<!-- by TradingView --><svg width="56" height="56" viewBox="0 0 56 56" xmlns="http://www.w3.org/2000/svg"><path fill="#F0F3FA" d="M0 0h56v56H0z"/><path d="M30.99 11h.33c1.87.1 1.5 2.04 1.39 3.22a82.35 82.35 0 0 1-1.29 7.82c-.07.33-.02.78.45.74a1 1 0 0 0 .3-.06c.5-.2.99-.47 1.48-.83 2.05-1.5 4.07-3.06 6.18-4.5.4-.27.83-.53 1.28-.75 1.26-.65 1.66.84 1.78 1.66.08.58.12 1.17.1 1.76l-.04 2.96c-.01.45-.05.82-.16 1.21-.2.7-.73.96-1.42 1.1-1.26.24-2.9.58-4.94 1-.54.1-1.14.24-1.82.4-.89.23-1.49.76-1.26 1.73.15.62.49 1.26.84 1.82.96 1.53 1.96 3.04 2.72 4.68.23.48.4.98.53 1.5.08.31.11.59.1.83-.07 1.48-1.44 2.9-2.55 3.8-.98.78-2.03 1.45-3.15 2.02-.53.27-1.18.49-1.67-.03a1.52 1.52 0 0 1-.3-.46 6.9 6.9 0 0 1-.45-1.68c-.13-.84-.2-1.7-.3-2.54a67.4 67.4 0 0 0-1.02-6.2 1.24 1.24 0 0 0-.14-.43c-.32-.54-.8-.1-1.03.2-.16.22-.3.46-.4.73a14.8 14.8 0 0 0-.92 3.57c-.36 2.38-.54 4.77-.74 7.17-.02.3-.06.58-.1.87a1 1 0 0 1-.12.38c-.36.56-1.57.23-2.08.05a12.5 12.5 0 0 1-2.07-.97c-.86-.5-1.62-1.03-2.27-1.57-.55-.46-1.1-.92-1.64-1.4-1.33-1.16-2.84-2.72-1.76-4.62a9.72 9.72 0 0 1 2.47-2.55c1.21-.98 2.47-1.9 3.78-2.75.77-.5 1.6-.99 2.3-1.58a.58.58 0 0 0 .16-.21.05.05 0 0 0 0-.04c-.1-.2-.5-.33-.75-.4-.54-.17-1.06-.34-1.6-.56a40.43 40.43 0 0 1-4.05-1.9c-.88-.48-1.7-1.03-2.48-1.66-.8-.63-1.54-1.46-1.66-2.48v-.26c.06-.49.27-.88.52-1.3a38.78 38.78 0 0 1 4.24-5.83c.28-.31.55-.6.83-.84.14-.14.36-.3.55-.33.57-.1 1 .79 1.2 1.23l1 2.16c.3.64.58 1.2 1.07 1.8.53.65 1.1 1.27 1.72 1.85.18.17 1.14 1.11 1.3.51.04-.13-.02-.36-.08-.51l-.51-1.34a18.63 18.63 0 0 1-.9-3.52c-.17-1.15.06-1.98 1.1-2.64.7-.46 1.5-.78 2.3-1.06.61-.2 1.33-.44 2.15-.68a7.61 7.61 0 0 1 1.5-.29Z" fill="#99D761"/></svg>