<!-- by TradingView --><svg width="56" height="56" viewBox="0 0 56 56" xmlns="http://www.w3.org/2000/svg"><path fill="#BBEAFE" d="M0 0h56v56H0z"/><ellipse cx="28" cy="28" rx="22" ry="12" fill="#242672"/><path d="M21.75 24.8 23 22.25A9.77 9.77 0 0 0 18.13 21C15.21 21 12 22.26 12 24.8c0 2.12 1.8 2.77 3.5 3.4.05 0 .09.02.13.04 1.74.63 2.37 1.33 2.37 2.25 0 .91-.63 1.51-2.37 1.51a3.98 3.98 0 0 1-3.68-2.36L10 32.31c.56.57 2.46 1.69 5.63 1.69 3.15 0 5.35-1.35 5.86-1.99.98 1.82 3.2 1.99 4.22 1.99 1.32 0 3.82-.5 4.7-1.48l1.7 1.48h7.37l-1.54-1.75 1.84-9.5c.3-.1.9-.29.96-.29 1.4 0 2.58 1.17 2.58 2.63 0 2.4-2.29 3.52-3.32 3.91 3.46 0 7-.62 7-4.28 0-2.92-2.21-3.7-3.32-3.72h-7.95l.59.8-2.07 10.6-.16.2c-.37-.22-1.06-.7-1.99-1.5 1-.9 2.9-2.9 2.9-5.1h-2.35c.12.05.36.31.36.99 0 .85-.76 2.28-1.86 3.2-1.18-1.09-3.53-3.74-3.53-5.66 0-1.2.73-2.26 2.13-2.26 1.12 0 1.93.94 2.07 1.41L33 21.71c-.22-.24-1.3-.71-2.96-.71-2.05 0-4.55 1.27-4.55 3.18 0 .5.14 1.01.22 1.2-1.22.15-3.38.87-4.29 2.64a2.79 2.79 0 0 0-.37-.48c-.25-.3-1.28-1.1-3.33-1.83-1.4-.35-2.09-.85-2.09-1.62 0-.77.84-1.12 2.09-1.12s3.61.49 4.03 1.82Zm3.62 2.2c.44 1 1.8 3.4 3.63 4.98-.2.34-.98 1.02-2.52 1.02-1.92 0-3.48-1.36-3.48-2.93s1.4-2.93 2.37-3.07Z" fill="#fff"/></svg>