<!-- by TradingView --><svg width="56" height="56" viewBox="0 0 56 56" xmlns="http://www.w3.org/2000/svg"><path fill="#F0F3FA" d="M0 0h56v56H0z"/><path d="M14 30.49V13.87L18 11v6h4v4h-4v9.27c0 4.59 3.53 8.5 8 9.46V44c-6.78-.95-12-6.63-12-13.51ZM30 44v-4.22a9.7 9.7 0 0 0 7.91-9.4A9.4 9.4 0 0 0 32 21.57v1.64l-6.83-3.87L32 15.35v1.76c7.4 2.38 9.8 8.99 10 12v1.38c0 6.88-5.22 12.56-12 13.51Z" fill="url(#a)"/><path d="M22.02 24v5.25c-.07 2.64-.15 6.37 5.92 8.75a49.38 49.38 0 0 1-3.28-5.13 7.48 7.48 0 0 1-.69-3.56c.6 1.16 1.94 3.73 2.5 4.69.55.95 2.04 2.6 2.72 3.32.18-1.36.42-4.37 0-5.55-.67.28-2.1.5-2.46-.82a2.05 2.05 0 0 1 .95-2.4l-3.35-2.77c-.29-.24-1.66-1.29-2.3-1.78Zm8.65 6.37c.06 1.29.05 4.18-.53 5.44.44-.5 1.41-1.68 1.8-2.4l1.12-1.98c-.58 1.44-1.82 4.38-2.16 4.65-.34.28-.98.98-1.25 1.3a15.9 15.9 0 0 0 3.41-3.14c1.06-1.4 1.01-4.74.86-6.23-.29.32-.97 1.05-1.41 1.43-.45.39-1.42.78-1.84.93Z" fill="url(#b)"/><defs><linearGradient id="a" x1="28" y1="11" x2="28" y2="43.96" gradientUnits="userSpaceOnUse"><stop stop-color="#396296"/><stop offset=".52" stop-color="#70B6E5"/><stop offset="1" stop-color="#31628F"/></linearGradient><linearGradient id="b" x1="21.14" y1="26.06" x2="30.31" y2="37.63" gradientUnits="userSpaceOnUse"><stop stop-color="#6F8738"/><stop offset=".48" stop-color="#C6DC60"/><stop offset="1" stop-color="#6CA335"/></linearGradient></defs></svg>