<!-- by TradingView --><svg width="56" height="56" viewBox="0 0 56 56" xmlns="http://www.w3.org/2000/svg"><path fill="#F0F3FA" d="M0 0h56v56H0z"/><path d="m28 12-11 7.93V24l1-.72v5.64l3-2.73v-5.07l7-5.05V12ZM18 39.2l-1 .73V44l11-7.93V32l-7 5.04v-8.46l-3 2.34v8.29Zm14-14.19L35 23v16.99L32 42V25.01Z" fill="#251716"/><path d="M40.96 16.95c.32.33-4.13 5.21-4.29 5.37 0 .17 0 .17.38.17C40.1 19.8 46 13.7 46 13.39c0-.34-.1-.39-.38-.39-9.05 2.69-14.04 6.09-14.04 6.53 0 .44.38 1.04.38 1.37 0 .33-3.17 2.3-3.6 2.3-.42 0-.2-1.86-.75-1.86-.53 0-3.48 2.2-6.86 4.77-3.37 2.58-6.75 7.3-6.75 7.57 0 .27.32.44.54.22 3.75-4.33 10.18-9 10.5-9 .32 0 .75.11.75.72 0 .6-.8 2.13-.86 2.52-.05.38.33.55.6.33 2.4-1.98 15.11-11.85 15.43-11.52Z" fill="#D41416"/></svg>