<!-- by TradingView --><svg width="56" height="56" viewBox="0 0 56 56" xmlns="http://www.w3.org/2000/svg"><path fill="#F0F3FA" d="M0 0h56v56H0z"/><circle cx="28" cy="28" r="17" fill="#836C5E"/><path d="M33.92 16.42a13.03 13.03 0 0 1 5.92 17 13.3 13.3 0 0 1-5.42 5.9c-.22.12-.42.22-.61.3-.1.03-.15.1-.24.15l-1.36.55c-.33.12-.7.17-1.05.3a1.7 1.7 0 0 1-.31.1c-.74.13-1.45.18-2.15.24-.4.04-.8.05-1.2.02-.77-.07-1.58-.12-2.32-.26-.2-.03-.4-.12-.58-.17a13.6 13.6 0 0 1-2.2-.81c-.06-.04-.12-.09-.17-.11a13.12 13.12 0 0 1-6.09-6.3c-.15-.32-.3-.75-.45-1.13a12.93 12.93 0 0 1-.51-6.33c.08-.45.16-.94.29-1.37a13.09 13.09 0 0 1 7.12-8.34l.22-.12c.54-.2 1.08-.38 1.62-.56.43-.14.9-.2 1.34-.3a11.76 11.76 0 0 1 4.52.01c.43.1.87.16 1.28.3.45.14.9.3 1.36.46.34.12.66.3 1 .47Z" fill="#17261A"/><path d="M28.04 22.55v.02s0 .02-.02.02l-.02.01a.04.04 0 0 1-.05-.03c-.1-.64-.23-1.39-.8-1.81l-.1-.08c-.18-.13-.39-.28-.48-.46-.08-.19-.33-.82-.19-1a86.18 86.18 0 0 0 1.61-1.88H28l1.66 1.96v.05c-.05.3-.18.9-.46 1.11l-.1.08c-.18.14-.38.3-.52.47a3.34 3.34 0 0 0-.54 1.54Zm.03-2.4a.56.56 0 0 0 .39-.21.59.59 0 0 0 .13-.43.6.6 0 0 0-.2-.4.57.57 0 0 0-.42-.14.56.56 0 0 0-.39.2.59.59 0 0 0-.13.43.6.6 0 0 0 .2.4.57.57 0 0 0 .42.14Z" fill="#836C5E"/><path d="M27.48 22.59c-.2-.38-.66-.87-1.13-.83-.32.03-.51.35-.58.62l-.02.02h-.01l-.5-.01-.02-.04a3 3 0 0 1 .3-1.21c.34-.59.88-.67 1.45-.32.1.07.18.14.25.24.38.5.56.99.65 1.63 0 .02 0 .03-.02.04-.17.07-.28.02-.37-.14ZM28.15 22.7l.03.04c.15.04.26 0 .33-.11l.01-.03c.1-.18.2-.34.36-.47.23-.18.38-.28.46-.31.49-.2.77.12.9.54 0 .02.02.02.03.03h.5c.01 0 .02 0 .02-.03-.04-.6-.2-1.64-.97-1.74-1.05-.14-1.6 1.26-1.67 2.07ZM20.57 21.79a.04.04 0 0 1 .02.02v.03c.05.16.1.33.04.49l-.02.04c-.49.42-.61 1.25-.51 1.85a4.63 4.63 0 0 0 .15.7h-.02a1.35 1.35 0 0 0-.1-.17 14.4 14.4 0 0 0-.38-.78l-1.36-2.83c-.01-.02 0-.03.02-.02.22.03.43.08.63.15l1.53.52ZM35.8 24.67h-.01c-.02 0-.02 0-.02-.02.12-.73.2-1.6-.37-2.2-.34-.34-.7-.33-1.1-.08-.35.22-.57.57-.78.91a15.56 15.56 0 0 1-.1.2l.43.21a.1.1 0 0 0 .11-.02c.76-.93 1.44.24 1.44.93 0 .02 0 .03.02.04l.13.1a.02.02 0 0 1-.02.05.78.78 0 0 1-.07-.04c-.1-.06-.24-.14-.3 0v.02c-.05.12-.09.22.06.3l.35.22h.04l.24-.44c.12-.2.22-.4.3-.6l.12-.27a1043.27 1043.27 0 0 0 1.38-2.86l-.02-.01c-.52.1-1.04.28-1.54.46l-.62.22a.05.05 0 0 0-.03.04l-.06.41a.05.05 0 0 0 .01.04c.42.5.61 1.06.58 1.7 0 .15-.05.3-.1.47l-.05.21a.02.02 0 0 1-.02.01Z" fill="#836C5E"/><path d="M21.5 23.34c-.58.04-.87.8-.88 1.28 0 .02 0 .04-.02.05l-.18.13a.07.07 0 0 1-.07 0 .07.07 0 0 1-.04-.04c-.21-.7-.23-1.8.36-2.35.27-.25.57-.3.9-.14.45.22.68.6.94 1l.1.16-.01.04-.4.22a.13.13 0 0 1-.15-.02.13.13 0 0 1-.03-.04c-.1-.2-.3-.3-.52-.29ZM23.2 24.06c.05.68.52 1.11 1.1 1.38.38.18.8.18 1.22.13.02 0 .02-.01.02-.03l-.02-.1c-.04-.16-.06-.26-.27-.34a1.37 1.37 0 0 1-.74-.57c-.31-.47-.41-.98-.3-1.52.02-.14.1-.29.17-.42a5.2 5.2 0 0 0 .06-.15 2.2 2.2 0 0 0-.98.73c-.2.26-.28.56-.26.89ZM30.51 25.58c-.02 0-.03-.01-.03-.03 0-.26.27-.44.55-.63.2-.14.4-.28.51-.44.4-.63.45-1.37.03-2-.01-.03 0-.04.02-.03 1.22.46 1.76 1.83.58 2.73-.46.36-1.01.5-1.66.4ZM27.42 22.81h1.2c.02 0 .05.03.05.05v.35c0 .03-.03.05-.05.05h-1.2a.05.05 0 0 1-.05-.05v-.35c0-.02.02-.05.05-.05ZM27.43 23.7a.68.68 0 0 0 .1-.15c.08-.15.17-.32.34-.17l.02.04c-.09.44-.21.94-.79.9-.35-.04-.7-.48-.34-.77.11-.09.31.05.43.13l.05.03a.15.15 0 0 0 .19-.02ZM28.14 23.44c.04.2.1.5.22.63.49.57 1.4-.04.9-.49-.13-.11-.23-.03-.34.05-.16.11-.3.22-.52-.25a.05.05 0 0 0-.05-.03h-.14a.07.07 0 0 0-.07.05v.04Z" fill="#836C5E"/><path d="M35.3 25.58c-.72.29-1.05-.2-.88-.86a.05.05 0 0 1 .04-.03.05.05 0 0 1 .05.02l.05.12c.02.07.05.14.1.2.16.17.37.23.62.18h.06l.21.13c.02.01.02.02.01.04l-1.04 2.13a.04.04 0 0 1-.02.02h-.02l-.01-.01-.02-.02a1.68 1.68 0 0 0-.28-.19l-.31-.16a12.5 12.5 0 0 0-4.63-1.51c-.8-.07-1.63-.06-2.47.02a12.37 12.37 0 0 0-5.07 1.8l-.11.1c-.03 0-.05 0-.07-.03l-1.04-2.12.01-.04c.1-.11.19-.16.36-.15.33.03.55-.13.67-.46a.15.15 0 0 1 .04-.07l.02-.01h.02l.01.01.01.02c.1.38.07.9-.43.95a.66.66 0 0 1-.58-.21v.02l.21.26c.26.32.88.35 1.26.29.24-.04.42-.28.6-.5.3-.37.58-.73 1.06-.3.23.2.44.38.76.43a3.18 3.18 0 0 0 1.1 0 .06.06 0 0 0 .03-.04v-.02l-.16-.57a.04.04 0 0 1 .02-.05l.3-.17c.03-.02.05-.01.06.02l.14.7a.08.08 0 0 0 .12.04c.16-.12.29-.26.4-.42.07-.09.12-.2.16-.3l.07-.14c0-.02.02-.03.03-.03.21-.04.33.02.49.17a2.82 2.82 0 0 0 .58.44v-.02a5.63 5.63 0 0 0-.06-.1c-.16-.25-.4-.63-.2-.88.22-.25.34-.54.36-.87a.08.08 0 0 1 .08-.07.08.08 0 0 1 .08.07c.03.33.16.63.39.9.17.2-.04.54-.17.75l-.06.09c-.08.15-.05.17.08.07a68.9 68.9 0 0 1 .43-.35c.1-.1.19-.2.4-.2.12-.01.17.06.2.16.08.26.23.4.38.56l.15.15a.08.08 0 0 0 .12 0 .08.08 0 0 0 .03-.04l.14-.67a.04.04 0 0 1 .03-.03.04.04 0 0 1 .03 0h.02l.02.01c.14.06.32.14.24.33a1.72 1.72 0 0 0-.1.49l.02.01c.38.1.77.1 1.16 0 .3-.07.5-.25.7-.43l.04-.03c.43-.37.77-.12 1.04.3.44.64 1.44.62 1.93.12v-.02Z" fill="#836C5E"/><path d="M25.73 23.73c.38.32.48.68.32 1.15-.05.16-.01.28.03.43a.04.04 0 0 0 .03.02.04.04 0 0 0 .03 0c.27-.26.73-.97.37-1.3a.38.38 0 0 1-.08-.12.29.29 0 0 0-.07-.1c-.16-.13-.44-.12-.63-.08ZM29.85 25.32c-.26-.28-.5-.67-.43-1.04.02-.12.08-.21.15-.3l.1-.15c0-.02.02-.03.03-.04.19-.07.38-.1.59-.07.02 0 .02.02 0 .03-.33.3-.49.66-.32 1.09.06.16.06.31-.01.46-.03.06-.07.07-.11.02ZM20.48 25.31l.5-.38v-.02l-.12-.15a.15.15 0 0 0-.05-.04.18.18 0 0 0-.07-.02l-.08.01a.26.26 0 0 0-.08.04l-.17.13a.26.26 0 0 0-.06.06.23.23 0 0 0-.03.07v.08l.02.06.12.16h.02ZM21.76 27.84a.08.08 0 0 1-.07 0c-.08-.03-.11-.14-.05-.18 1.77-1.01 3.85-1.85 5.92-1.88a11.94 11.94 0 0 1 6.9 1.92v.04c-.02.03-.05.06-.08.06-.05 0-.08-.02-.11-.06a.26.26 0 0 0-.07-.05c-1.53-.72-3.05-1.43-4.77-1.6-.74-.07-1.5-.1-2.24-.06-1.86.09-3.89.77-5.43 1.81Z" fill="#836C5E"/><path d="m22.09 28.95.04.01H33.9l.03-.01.01-.02.35-.86a.04.04 0 0 0-.02-.05 5.7 5.7 0 0 0-.94-.51c-1.1-.47-2.23-1-3.44-1.18-1.3-.19-2.6-.18-3.9.02-.14.02-.27.06-.4.1-1.16.34-2.32.67-3.36 1.28a14.35 14.35 0 0 1-.51.3l.35.88c0 .02.02.03.03.04ZM31.41 31.08c.01.1.06.13.15.07.91-.57 1.68-.4 2.52.18a.06.06 0 0 1 0 .1.06.06 0 0 1-.04.01 1.62 1.62 0 0 1-.58-.15c-.29-.14-1.15.4-1.39.57-.1.07-.18.12-.26.14a4.9 4.9 0 0 1-2.9.1 1.98 1.98 0 0 1-.88-.54c-.01-.02-.03-.02-.04 0-.9.87-2.56.84-3.66.49a3.15 3.15 0 0 1-.68-.35c-.15-.1-.3-.19-.45-.26l-.36-.15c-.16-.04-.35.02-.54.08-.11.03-.22.07-.33.08a.06.06 0 0 1-.06-.08c0-.01 0-.02.02-.03.62-.46 1.3-.7 2.06-.42l.28.14.21.11h.04l.06-.11c.03-.06.06-.12.1-.16.3-.28.88-.21 1.23-.11.25.07.53.4.26.62h-.04a1 1 0 0 1-.13-.02c-.1-.02-.2-.05-.32.04a.03.03 0 0 0 0 .04c.08.12.18.18.32.2.82.1 1.74-.71 1.94-1.47a.1.1 0 0 1 .09-.07.1.1 0 0 1 .04 0c.01 0 .03.04.04.09.15.52.53.96.98 1.23.3.18.93.38 1.21.06a.08.08 0 0 0 .01-.09.08.08 0 0 0-.06-.05c-.07 0-.14 0-.2.02a.4.4 0 0 1-.21.02.06.06 0 0 1-.04-.03c-.48-.74 1.55-.95 1.61-.3Z" fill="#836C5E"/><path d="M18 32.91a1.6 1.6 0 0 0-.08-.13c-.04-.07-.08-.14-.1-.22-.15-.6.3-1.1.8-1.37.6-.32 1.3-.4 1.92-.08.64.33.75 1.1.4 1.7-.22.34-.71.48-1.05.25-.23-.15-.27-.43-.16-.66a.03.03 0 0 0 0-.04.03.03 0 0 0-.04 0c-.5.17-.5.74-.03.95.52.23 1.35.09 1.87-.07a17.17 17.17 0 0 1 .85-.23c.45-.11.97-.24 1.4-.17.54.08.9.15 1.05.2a7.5 7.5 0 0 1 2.5 1.3 6.85 6.85 0 0 0 .68.43c.1-.03.17-.07.2-.1l1.1-.78c.68-.46 1.5-.8 2.32-.95l.16-.03c.3-.06.6-.11.9-.08.53.05 1.12.2 1.63.36.57.19 1.86.5 2.3-.12.22-.3 0-.64-.33-.72-.02 0-.03 0-.02.02.3.63-.4.96-.9.71a.89.89 0 0 1-.35-.38 1.15 1.15 0 0 1 .45-1.6c.63-.34 1.25-.2 1.88.06.1.04.2.1.28.18l.04.03c.27.24.45.4.54.77.07.28-.03.53-.2.76v.02a.03.03 0 0 0 .01.02l.1.06c.16.09.31.18.41.35.2.34.12.78-.13 1.08-.45.53-.98.81-1.68.59h-.04a.57.57 0 0 0-.1.12l-.1.1c-.52.35-1.08.23-1.64.02a.67.67 0 0 1-.24-.14.1.1 0 0 0-.04-.03l-.4-.15a3.7 3.7 0 0 0-.7-.2c-.97-.17-1.89.04-2.75.53-.3.17-.6.34-.92.5a.38.38 0 0 0-.13.1v.04c1.39.88 3.53 1.79 5.19 1.28a29.64 29.64 0 0 1 .86-.23l-.01.01c-.1.04-.17.1-.25.15-.73.48-1.76.81-2.6.96-1.95.34-3.15-.57-4.84-1.2l-.05.01c-.8.36-1.48.84-2.36 1.05-.32.07-.65.15-.94.18a6.86 6.86 0 0 1-4.31-1.17c.15.03.3.08.44.13.22.08.43.15.64.17a7.66 7.66 0 0 0 4.9-1.35c.03-.04.03-.07-.02-.09l-.62-.33c-.51-.27-1.03-.55-1.55-.7a3.52 3.52 0 0 0-2.03.08 4.18 4.18 0 0 1-.66.23.73.73 0 0 1-.23.14c-.64.26-1.38.43-1.88-.2a.04.04 0 0 0-.04-.02c-.53.17-.99.08-1.38-.27-.27-.25-.47-.46-.53-.8-.08-.46.15-.83.59-.98v-.01l.02-.01v-.03Zm5.1 1.16a5.27 5.27 0 0 1 2.28.22c.04 0 .05 0 0-.03a1.38 1.38 0 0 0-.46-.18 4.28 4.28 0 0 0-1.75-.22l-.55.12c-.28.06-.57.12-.84.2-.83.23-1.67.4-2.45-.1-.38-.24-.54-.6-.5-1.03a.02.02 0 0 0-.01-.02h-.02l-.01.01c-.27.79.53 1.45 1.22 1.53.51.05 1.01 0 1.57-.15.77-.2 1.28-.3 1.53-.35Zm7.51.22h.03c.84-.18 1.73-.37 2.58-.16l1.23.3c.77.18 1.76.33 2.4-.24a1.16 1.16 0 0 0 .4-1.12.02.02 0 0 0-.02 0h-.01a.02.02 0 0 0-.01.02c-.02.28-.1.68-.33.86-.73.6-1.58.5-2.44.28l-1.5-.35a4.12 4.12 0 0 0-1.95.22c-.14.03-.27.09-.39.16-.04.03-.04.04.01.03Z" fill="#836C5E"/><path d="M25.63 32.59c.35.53 1.04.52 1.6.43a.03.03 0 0 1 .03.02c.06.32.2.45.4.65l.07.08c.05.04.08.1.12.16.04.06.08.13.14.18.01.02.03.02.04 0l.13-.18c.05-.08.1-.15.17-.22.18-.18.4-.4.4-.66 0-.04.01-.05.05-.05.37.1.74.08 1.1-.02.15-.05.27-.16.4-.28a4.87 4.87 0 0 1 .1-.1.06.06 0 0 0-.04-.07h-.04l-.12.02c-.07.02-.13.04-.2.04-.64.04-1.2-.13-1.7-.51a.57.57 0 0 1-.23-.35.04.04 0 0 0-.06-.03l-.01.02a.77.77 0 0 1-.28.39 2.43 2.43 0 0 1-2.05.42.04.04 0 0 0-.03.04v.02Z" fill="#836C5E"/><path d="M27.33 11.9c0-.02.02-.03.03-.03h1.3c.03 0 .04.02.04.04.1.53.34.99.68 1.38l.19.18.16.16c.16.15.72.47 1.2.74.3.15.55.3.68.38l.01.02v.01a.02.02 0 0 1-.03.02c-.84-.2-1.72-.38-2.58-.43-.72-.04-1.44-.04-2.16.01a17.52 17.52 0 0 0-2.48.4c.3-.26.69-.49 1.07-.72a4.3 4.3 0 0 0 1.52-1.23c.17-.29.28-.6.37-.94ZM34.51 15.94v.01c-.16-.03-.3-.1-.42-.18l-.14-.07-.16-.08c-.23-.11-.45-.22-.72-.3a2.39 2.39 0 0 1-.31-.13c-.11-.06-.22-.11-.35-.14a7.33 7.33 0 0 1-.4-.14l-.13-.38c-.1-.3-.2-.6-.35-.84-.3-.52-.87-1.12-1.47-1.3a3.67 3.67 0 0 1-1.12-.49.02.02 0 0 1 .01-.01c.08-.02.16 0 .23.02l.1.03a15.71 15.71 0 0 1 3 .53c.01.74.27 1.5.76 2.06.1.12.24.21.38.3.15.1.3.2.41.34l.16.15c.06.05.12.1.17.17.1.15.21.3.35.45ZM33.03 12.97c.4.23.8.47 1.08.82.56.73.63 1.38.73 2.27a51.89 51.89 0 0 1 .04.15c.76.35 1.5.98 2.13 1.5h.01c.02.03.03.02.03 0a.84.84 0 0 0-.12-.28 4.15 4.15 0 0 0-.7-1.05 2.74 2.74 0 0 1-.54-2.55c0-.02 0-.03-.02-.03a4.64 4.64 0 0 1-.38-.2 7.11 7.11 0 0 0-.69-.32l-.47-.21c-.2-.1-.6-.24-1.18-.41l-.16-.07a1.08 1.08 0 0 0-.19-.08c-.02 0-.03 0-.03.02 0 .15.34.37.46.44ZM37.45 17c.05-.68-.22-1.5-.66-2.03a4.18 4.18 0 0 0-.35-.32c-.18-.16-.3-.34-.43-.52a7.87 7.87 0 0 0-.11-.18c.15.05.3.15.42.23l.13.09a13.43 13.43 0 0 1 2.2 1.66c-.32.8-.49 1.53-.12 2.35l.13.3c.21.46.4.88.46 1.42a.02.02 0 0 1 0 .01h-.02l-.14-.18-.07-.1A10.71 10.71 0 0 0 37.33 18c.06-.33.1-.66.12-1ZM40.65 22.72v-.07c.03-.5-.02-1-.14-1.47a2.16 2.16 0 0 1-.1-.81 2.97 2.97 0 0 1 .72-1.77v-.01a29.17 29.17 0 0 1-.83-1.02 20.58 20.58 0 0 0-1.46-1.5v.03c.15.4.35.76.6 1.1.57.8.36 2.29-.1 3.13v.05a10.64 10.64 0 0 1 1.03 1.8c.03 0 .04.02.04.03a3.8 3.8 0 0 1 .21.52h.02l.01-.01ZM41.45 22.04c.21-.6.32-1.36.14-1.97l-.12-.34a3.8 3.8 0 0 1-.23-.87l.01-.02a.04.04 0 0 1 .04 0c.03.02.05.04.06.07l.01.02c.39.6.74 1.22 1.07 1.84.1.17.18.36.26.55a12.48 12.48 0 0 0 .2.48l-.11.1c-.2.18-.38.36-.52.55a2.62 2.62 0 0 0-.55 1.57 6.23 6.23 0 0 1-.04.99v.03a1.72 1.72 0 0 1-.16.62h-.01a.02.02 0 0 1-.02-.02 11.82 11.82 0 0 0-.7-2.52c.2-.28.37-.57.52-.87l.06-.08c.03-.04.07-.08.09-.13ZM42.96 22.1v.02c-.03.34-.02.66.04.97.1.64-.05 1.14-.33 1.71a4.23 4.23 0 0 1-1.1 1.3 15.42 15.42 0 0 1 .08 2.02v.63c0 .04 0 .04.02.01.32-.46.41-.82.54-1.41a2.68 2.68 0 0 1 1.37-1.85c.1-.07.2-.15.33-.19a43.26 43.26 0 0 0-.34-1.56c-.1-.38-.23-.76-.36-1.15a39.5 39.5 0 0 1-.2-.5H43a.04.04 0 0 0-.04 0ZM43.93 25.62c.02-.04.04-.03.04.01a18 18 0 0 1 .14 3.28c0 .02-.01.03-.03.04l-.18.05c-.29.1-.58.18-.83.36-.47.32-.79.56-1.02 1.09a4.7 4.7 0 0 1-.93 1.39v-.01l.1-.35c.1-.39.2-.78.26-1.13a10.92 10.92 0 0 0 .15-1.13.13.13 0 0 1 .04-.05c.94-.5 1.94-1.3 2.02-2.45v-.04c.03-.41.05-.72.24-1.06ZM44.07 29.2c-.02 0-.03.01-.03.03-.05.1-.11.21-.18.3-.11.18-.17.38-.22.57-.05.18-.1.35-.2.52-.34.55-.8.97-1.39 1.26-.26.13-.57.2-.88.28l-.13.03a.04.04 0 0 0-.03.03c-.29.84-.64 1.65-1.06 2.43 0 .03 0 .03.02.02a5.1 5.1 0 0 0 1.16-1.12c.5-.68 1.36-.97 2.18-1.01a.9.9 0 0 1 .06 0c.08 0 .13 0 .16-.11l.05-.2c.14-.6.3-1.2.38-1.78a17.26 17.26 0 0 0 .12-1.25h-.01ZM42.02 35.93a1.8 1.8 0 0 0-1.3-.1c-.36.1-.78.19-1 .38a4.79 4.79 0 0 1-1.38.91l-.17.09h-.03l-.02-.01v-.05l.15-.15c.1-.1.2-.2.28-.32a18.9 18.9 0 0 0 1.19-1.63l.24-.02c.35-.02.74-.04 1.04-.15l.09-.04c.45-.17.84-.32 1.22-.68.2-.2.35-.44.5-.69l.11-.19c.07-.1.15-.2.23-.28l.17-.2a.04.04 0 0 1 .05-.02.04.04 0 0 1 .02.05l-.08.22-.06.14a14.31 14.31 0 0 1-1.25 2.74ZM36.28 38.86c-.15.11-.29.22-.41.34-.05.05-.05.06.02.05.53-.1 1.04-.25 1.5-.53.53-.31 1.4-.24 1.94-.1.12.02.23.09.34.15l.17.1a.08.08 0 0 0 .1-.02 14.94 14.94 0 0 0 1.97-2.76 3.4 3.4 0 0 0-.72.6c-.94 1-2.03 1-3.3.83-.05 0-.1.01-.14.06-.42.44-.94.88-1.47 1.28ZM33.15 40.72a.04.04 0 0 1-.03-.03.03.03 0 0 1 .02-.04l.54-.23c.26-.1.5-.23.74-.36l.42-.22c.1-.05.17-.1.24-.16.1-.07.19-.14.32-.2h.05c.28.07.49.14.6.2a3.1 3.1 0 0 0 2.37.02l.4-.23c.28-.17.56-.34.88-.43.03 0 .03 0 .02.02a.82.82 0 0 1-.13.16c-.45.45-.92.88-1.41 1.3a11.56 11.56 0 0 1-1.03.73l-.05-.02a2.02 2.02 0 0 0-.78-.47l-.1-.03c-.53-.2-1.08-.39-1.62-.13-.4.2-1.03.18-1.45.12ZM30.51 41.42l-.38.07c-.04 0-.04.02-.01.04.43.25 1.1.25 1.58.23a2.38 2.38 0 0 1 1.59.56l.15.12c.14.1.25.24.35.38a4.57 4.57 0 0 0 .16.17.9.9 0 0 0 .27-.11 1 1 0 0 1 .22-.1c.16-.04.3-.12.42-.2l.2-.1a13.06 13.06 0 0 0 1.86-1.07c-.31 0-.61.03-.9.18-.45.25-1.02.23-1.53.16a4.17 4.17 0 0 1-1.81-.91h-.03l-.48.15-.43.14-.77.21c-.13.04-.3.06-.46.08ZM23.72 12.44v.01c0 .37-.03.7-.16 1.04-.2.53-.4.96-.88 1.28-.46.3-.84.7-1.14 1.15-.02.04-.02.05.03.03l.98-.48c.1-.06.23-.1.36-.15l.34-.13a3.06 3.06 0 0 1 .73-.26 2.68 2.68 0 0 1 1.8-2.47l.26-.08c.35-.11.72-.23.98-.43.08-.07.07-.09-.03-.07-.36.07-.72.1-1.07.15a6.63 6.63 0 0 0-1.58.26l-.6.14h-.02ZM21.18 16.15V16c.03-.48.1-1.07.3-1.5.32-.7.72-1.11 1.42-1.49a2.47 2.47 0 0 0 .56-.44l-.01-.04a.06.06 0 0 0-.07-.03c-.07.02-.14.06-.2.1l-.21.08a7.7 7.7 0 0 0-1.04.36c-.25.13-.5.24-.76.34a4.1 4.1 0 0 0-.5.24 6.64 6.64 0 0 1-.34.18v.02c.17.79.11 1.8-.44 2.42a5.47 5.47 0 0 0-.92 1.46H19a12.17 12.17 0 0 1 2.19-1.56ZM18.28 18.39a14.2 14.2 0 0 0-1.38 1.6c0-.47.29-1.1.5-1.52.43-.84.32-1.7-.05-2.53l.01-.05c.57-.51 1.18-.97 1.83-1.38l.81-.53c.08-.05.1-.03.06.06-.14.26-.34.46-.55.66-.22.21-.43.42-.57.7-.25.5-.42 1.08-.4 1.65a7.85 7.85 0 0 0 .13.98 5.73 5.73 0 0 1-.39.36ZM15.25 19.14c.3.6.46 1.33.28 1.98a4.31 4.31 0 0 0-.13 1.59v-.01a15.12 15.12 0 0 1 1.27-2.35v-.03a3.61 3.61 0 0 1-.25-2.83c.03-.1.1-.21.18-.33.23-.33.43-.68.58-1.07.03-.06.02-.07-.03-.02-.43.39-.84.81-1.24 1.26-.23.26-.47.56-.7.85l-.31.39v.04l.1.16c.1.12.19.25.25.37ZM13.68 22.35a1.7 1.7 0 0 0-.28-.28c-.1-.08-.2-.17-.27-.26a27.64 27.64 0 0 1 1.56-2.93c.05 0 .07.01.07.07a3.2 3.2 0 0 1-.28.95l-.06.15c-.17.45-.09 1.2.04 1.66.1.34.3.68.5 1a19.55 19.55 0 0 1 .19.28c.03.04.07.08.08.14 0 .07-.04.16-.08.24a.78.78 0 0 0-.08.15c-.17.6-.33 1.2-.47 1.82-.02.07-.03.14-.03.22l-.01.08a.04.04 0 0 1-.04.03.04.04 0 0 1-.04-.03c-.13-.5-.2-.98-.16-1.5.05-.64-.27-1.3-.64-1.8ZM12.6 25.6a2.63 2.63 0 0 1 1.23 1.9c.06.43.22.83.5 1.22a21.76 21.76 0 0 1 .13-2.63c-.8-.66-1.45-1.52-1.48-2.58 0-.16.02-.33.05-.5.02-.21.05-.43.03-.63l-.02-.26c-.02-.1-.04-.1-.07 0l-.13.36c-.15.45-.3.89-.41 1.34a51.93 51.93 0 0 0-.34 1.49l.01.01.16.04a.1.1 0 0 1 .04.02c.1.1.2.17.3.23ZM11.91 28.95h-.01v-.03a19 19 0 0 1 .13-3.24c.02-.1.04-.1.09-.02.13.26.16.52.17.85.02.81.51 1.57 1.12 2.07a9.24 9.24 0 0 0 .99.65 14.34 14.34 0 0 0 .46 2.6c-.4-.38-.69-.88-.9-1.39-.18-.4-.44-.7-.82-.94a4.96 4.96 0 0 1-.13-.1c-.12-.08-.24-.16-.38-.21a9.8 9.8 0 0 0-.72-.24ZM12.52 32.52l.03.01c.72.02 1.4.19 1.97.65.2.15.36.36.5.54a4.85 4.85 0 0 0 1.03.95v-.02a15.7 15.7 0 0 1-1.08-2.46l-.84-.22c-.07-.02-.13-.06-.19-.1l-.1-.07a3.14 3.14 0 0 1-1.27-1.2c-.1-.15-.14-.32-.2-.5-.05-.2-.1-.4-.23-.57a.98.98 0 0 1-.15-.3l-.01-.01h-.03a.03.03 0 0 0-.02.03 17.9 17.9 0 0 0 .6 3.27ZM15.98 36.04c-.66-.25-1.31-.41-1.98-.11l-.03-.01c-.51-.88-.92-1.8-1.24-2.75l-.05-.12a1.08 1.08 0 0 1-.08-.25c0-.02 0-.03.03-.03.05.02.09.05.1.1 0 .02.01.03.03.04.2.2.34.37.4.51.4.79.98 1.16 1.79 1.44.4.14.84.16 1.27.17h.05a.05.05 0 0 1 .04.03 12.47 12.47 0 0 0 1.6 2.15.02.02 0 0 1-.01 0 4.69 4.69 0 0 1-1.33-.78c-.18-.15-.37-.31-.59-.4ZM14.07 36.12a16.75 16.75 0 0 0 2.05 2.76h.04l.17-.1c.12-.08.24-.15.37-.18.47-.1.94-.12 1.42-.06.23.03.39.12.55.22l.24.12a5.66 5.66 0 0 0 1.3.36.03.03 0 0 0-.01-.03 15.03 15.03 0 0 1-2.03-1.69l-.2.02c-1.17.1-2.19.17-3.1-.8a4.77 4.77 0 0 0-.8-.65.02.02 0 0 0 0 .03ZM21.4 40.6a1.8 1.8 0 0 0-.95-.09c-.17.02-.33.09-.5.15l-.18.07c-.36.13-.6.24-.85.49a.08.08 0 0 1-.1 0c-.89-.57-1.68-1.3-2.4-2a.55.55 0 0 1-.11-.15c-.01-.02 0-.02.02-.02.26.08.5.23.75.38.27.16.54.33.84.4.58.12 1.45.17 1.99-.12.17-.1.35-.16.53-.2.2-.05.37.04.5.16l.2.15 1 .51c.13.08.27.13.42.18l.28.11c.06.03.06.06 0 .1a2.72 2.72 0 0 1-1.43-.11ZM19.56 41.75a13 13 0 0 0 1.49.78c.04.01.09.05.13.08.03.04.07.06.1.07.24.08.48.18.72.3a.1.1 0 0 0 .14-.04c.21-.33.5-.6.87-.8.33-.19.57-.3.73-.32.24-.05.46-.05.67-.04l.4-.01a2.8 2.8 0 0 0 1.08-.25v-.01a.03.03 0 0 0-.02-.02c-.6-.09-1.21-.23-1.8-.43a21.36 21.36 0 0 0-.76-.22c-.52.43-1.2.84-1.87.92-.37.05-1.1.08-1.43-.15-.23-.17-.61-.2-.9-.2-.03 0-.03 0 0 .02l.25.17.2.15ZM28.63 42.89c0 .33-.28.6-.63.6a.62.62 0 0 1-.63-.6c0-.34.28-.6.63-.6s.63.26.63.6Z" fill="#17261A"/><path d="M29.67 41.57c.57.62 1.45 1.41 2.59 1.44l.42-.01h.64a3.36 3.36 0 0 1 .35.06v.03h-.01c-.29.15-.6.23-.93.32l-.47.13c-3.06.96-6.08.8-9.43-.26a1.7 1.7 0 0 1-.5-.2.02.02 0 0 1 .02-.04c.31-.04.61-.04.91 0a3.01 3.01 0 0 0 2.9-1.49c.01-.01.2-.02.21-.01a20.84 20.84 0 0 0 3.3.03ZM29 42.89a1 1 0 1 0-2 0 1 1 0 0 0 2 0Z" fill="#17261A"/></svg>