<!-- by TradingView --><svg width="56" height="56" viewBox="0 0 56 56" xmlns="http://www.w3.org/2000/svg"><path fill="#F0F3FA" d="M0 0h56v56H0z"/><path d="M37 11c-2 1.6-7.83 2-10.5 2 0 1.6 1.67 2 2.5 2L14 41h22.5l5.5-4H23.5L37 11Z" fill="url(#azdkmtlqz)"/><path d="M28.99 18c-6.8 0-15.83 2.67-19.5 4 1.6-.4 4-.17 5 0-1.2.4-4.16 2.83-5.5 4 2-1.2 4.84-1.5 6-1.5-1.6.8-5.32 3.33-6.99 4.5 4.33-1.67 14.59-5 20.99-5 6.4 0 8.99 1 8.99 3-.4 4-7.5 7-11 8 13 0 16.5-3.5 17-8s-6.5-9-15-9Z" fill="url(#bzdkmtlqz)"/><defs><linearGradient id="azdkmtlqz" x1="28" y1="11" x2="28" y2="41" gradientUnits="userSpaceOnUse"><stop stop-color="#FBD66D"/><stop offset="1" stop-color="#DF6C10"/></linearGradient><linearGradient id="bzdkmtlqz" x1="11" y1="25" x2="43.97" y2="26.5" gradientUnits="userSpaceOnUse"><stop stop-color="#E16B0D"/><stop offset="1" stop-color="#F1AC32"/></linearGradient></defs></svg>