<!-- by TradingView --><svg width="56" height="56" viewBox="0 0 56 56" xmlns="http://www.w3.org/2000/svg"><path fill="#F0F3FA" d="M0 0h56v56H0z"/><path d="M43.3 21c.4 1.45 1.3 4.24 1.7 5.45-9.26-2.18-14.53 3.46-16 6.55 1.22-8.44 10.04-11.52 14.3-12Z" fill="#C49E12"/><path d="M37.34 14A22.17 22.17 0 0 1 42 18.64C29.58 22.38 28 29.5 28 32c0 2 .6 4.17.9 5-.58-.83-1.9-2.14-1.9-5 0-9.8 6.95-15.62 10.34-18Z" fill="#C49E12"/><path d="M28.02 11c2.45.08 4.77.72 6.84 1.8-3.2 3.05-9.16 10.79-9.16 19.1 0 4.42 3.19 7.79 6.73 7.79 2.65 0 4.96-2.13 5.49-4.96.5-2.72 2.48-6.73 6.73-6.38-1.18.6-3.55 2.16-3.55 4.96 0 1.8.12 3.16-.55 5.02C38.6 43.72 32.8 45 27.47 45c-5.9 0-11.08-3.2-13.99-8.03 1.37.71 4.12 1.82 7.44 2.18-1.93-.64-6.1-2.39-8.65-4.6a17.43 17.43 0 0 1-1.19-8.27c1.75 2.33 4.88 5.83 7.89 7.03-1.91-1.7-5.8-6.02-7.16-10.58A17.1 17.1 0 0 1 16 15.8c.21 3.59 1.4 9.9 4.92 13.08-1.15-1.66-3.21-6.96-2.55-15.06 2-1.37 4.3-2.3 6.77-2.66C24 14.19 22.33 20.4 23.4 24.8c.4-3.35 1.86-10.61 4.62-13.81Z" fill="#C49E12"/><path d="M39.2 29.74c1.14-1.54 3.67-2.32 4.8-2.5-2.31-.78-4.8.57-5.7 1.34-.88.78.36 1.94.9 1.16Z" fill="#C49E12"/></svg>