<!-- by TradingView --><svg width="56" height="56" viewBox="0 0 56 56" xmlns="http://www.w3.org/2000/svg"><path fill="#F0F3FA" d="M0 0h56v56H0z"/><path d="M12.44 27.52c-.08 2.51-1.53 4.17-4.36 4.97-.05.02-.08.06-.08.11v3.29c0 .09.04.12.13.1a11.15 11.15 0 0 0 4.78-2.03c1.4-1.05 2.23-2.64 2.5-4.76.04-.23.06-.62.09-1.17.05-1.2.17-2.04.36-2.51.7-1.65 2.02-2.58 3.96-2.79.12 0 .18-.07.18-.19v-2.38c0-.1-.05-.16-.16-.16-2.2 0-4.1.75-5.67 2.24a5.07 5.07 0 0 0-1.46 2.24c-.14.5-.23 1.3-.25 2.41l-.02.63Zm7 0c-.08 2.52-1.53 4.17-4.36 4.97-.05.02-.08.06-.08.11v3.3c0 .08.04.12.13.1a11.11 11.11 0 0 0 4.78-2.03c1.4-1.05 2.23-2.64 2.5-4.76.03-.23.06-.62.08-1.17a8.4 8.4 0 0 1 .37-2.52c.7-1.65 2.01-2.57 3.96-2.78.12-.01.18-.08.18-.19v-2.39c0-.1-.05-.16-.16-.16-2.2 0-4.09.75-5.67 2.24a5.06 5.06 0 0 0-1.46 2.24c-.14.5-.23 1.3-.25 2.41l-.02.64ZM31.14 26h5.75c.08 0 .12.05.12.13L37 28.84c0 .09-.03.16-.1.16h-5.73c-.08 0-.17 0-.17.09v6.79a.74.74 0 0 0 0 .03c0 .06 0 .09-.06.09H28.1c-.07 0-.11-.04-.11-.12V20.14c0-.08.04-.14.11-.14h7.76c.05 0 .08.04.1.09l1.24 2.68c.05.12.01.23-.1.23h-5.97c-.07 0-.14.04-.14.12v2.76c0 .09.07.12.14.12Zm11.3.78c-.01.04-.03.06-.06.06s-.06-.02-.08-.06l-2.69-6.68c-.02-.05-.06-.08-.12-.08h-2.67c-.07 0-.1.03-.07.1 1.36 3.09 2.68 6.05 3.96 8.89.24.53.29 1.14.29 1.82v4.95c0 .13.14.2.27.21a41.41 41.41 0 0 0 2.5 0c.12 0 .23-.08.23-.21v-4.95c0-.68.08-1.29.32-1.83.67-1.48 1.27-3 1.9-4.56.55-1.41 1.13-2.85 1.77-4.32.03-.07 0-.1-.07-.1h-2.66c-.06 0-.1.02-.13.08-.89 2.19-1.78 4.41-2.68 6.68Z" fill="#9F9241"/></svg>