<!-- by TradingView --><svg width="56" height="56" viewBox="0 0 56 56" xmlns="http://www.w3.org/2000/svg"><path fill="#181B1E" d="M0 0h56v56H0z"/><path d="M43 32.62c.4-.01.4-.06.57-.15.29-.16.43-.45.43-.89v-7.16c0-.43-.14-.72-.41-.87-.16-.1-.17-.15-.59-.17V23h4.98v.38c-.6.02-1 .1-1.19.25-.2.15-.29.52-.29 1.1v7c0 .32.08.54.25.64a4.27 4.27 0 0 0 3.29-.43c.6-.39 1.1-1.16 1.53-2.3H52L51.41 33H43v-.38ZM32 32.62c.68-.03 1-.28 1-1.04v-7.16c0-.78-.31-.97-1-1.04V23h4.7v.38c-.69.04-1.2.25-1.2 1.04v2.9h3v-2.9c0-.8-.5-1-1.2-1.04V23h4.88v.38c-.7.05-1.18.26-1.18 1.04v7.16c0 .77.5 1.02 1.18 1.04V33H37.3v-.38c.7-.02 1.2-.26 1.2-1.04V28h-3v3.58c0 .8.51 1.02 1.2 1.04V33H32v-.38ZM24.7 32.62c.7-.01 1.3-.21 1.3-1.04v-7.16c0-.83-.59-1.01-1.3-1.04V23h5.14v.38c-.73.03-1.34.18-1.34 1.04v7.16c0 .84.6 1.04 1.34 1.04V33H24.7v-.38ZM14 28.04a4.9 4.9 0 0 1 6.6-4.7c.58.2.93.32 1.07.32.15 0 .27-.06.36-.16.1-.1.17-.27.23-.49h.39v3.31h-.36a7.74 7.74 0 0 0-1.02-1.7c-.66-.76-1.4-1.14-2.22-1.14-2.3 0-2.55 2.79-2.55 4.52 0 1.9.38 4.54 2.76 4.54.6 0 1-.13 1.2-.38.11-.14.17-.36.17-.65V30c0-.66-.64-.64-1.13-.65V29H24v.36c-.61.02-1 .35-1 .97v1.8c-.3.2-1 .39-1.69.58-.69.2-1.46.29-2.31.29-2.86 0-5-2.1-5-4.96ZM8.94 23c.59 0 1.18.11 1.79.33.6.22.93.32 1 .32.18 0 .32-.06.43-.2a.97.97 0 0 0 .2-.44h.4v3.3h-.36a7.7 7.7 0 0 0-1.04-1.69 2.93 2.93 0 0 0-2.25-1.14c-2.3 0-2.61 2.73-2.61 4.5 0 1.84.47 4.33 2.79 4.33.72 0 1.4-.2 2.02-.6.36-.24.78-.61 1.27-1.13l.42.35a8.03 8.03 0 0 1-1.45 1.33 4.4 4.4 0 0 1-2.48.74A4.88 4.88 0 0 1 4 28.07C4 25.25 6.1 23 8.94 23Z" fill="#fff"/></svg>