<!-- by TradingView --><svg width="56" height="56" viewBox="0 0 56 56" xmlns="http://www.w3.org/2000/svg"><path fill="#007750" d="M0 0h56v56H0z"/><path d="M4 34v1h5l.33-1H4Zm0-1h5.67l.33-1H4v1Zm2.38-2h3.95l.34-1H6.75l-.38 1Zm.75-2h11.75l-.38-1h-11l-.38 1Zm.75-2h3.79l.33-1H8.25l-.38 1Zm.75-2h3.7l.34-1H9l-.38 1Zm.74-2h7.26l-.38-1h-6.5l-.38 1Zm.76-2h5.74l-.37-1h-5l-.38 1ZM24 22v1h8v-1h-8Zm8-1h-8v-1h8v1Zm2 1v1h7.07l-.36-1H34Zm6.36-1H34v-1h6l.36 1Zm3.93 1-.36 1H52v-1h-7.71ZM52 21h-7.36l.36-1h7v1Zm-3 3h-5.43l-.36 1H49v-1Zm0 2h-6.14l-.36 1-.36-1H36v1h3v-.5l.2.5h6.6l.2-.5v.5h3v-1Zm0 2h-3v1h3v-1Zm0 2h-3v1h3v-1Zm3 2h-6v1h6v-1Zm0 2h-6v1h6v-1Zm-8.68-1 .42-1h-2.48l.42 1h1.64Zm-1.23 1h.82l-.41 1-.41-1ZM39 33v-1h-5v1h5Zm-5 1h5v1h-5v-1Zm-2-1v-1h-8v1h8Zm-8 1h8v1h-8v-1Zm-2-1v-1h-6l.33 1H22Zm-5.33 1H22v1h-5l-.33-1Zm-1-3h3.96l-.38-1h-3.92l.34 1ZM26 30v1h4v-1h-4Zm10 0v1h3v-1h-3Zm3-1h-3v-1h3v1Zm1.44 1 .41 1h3.3l.4-1h-4.1Zm4.53-1h-4.94l-.41-1h5.76l-.4 1ZM30 28v1h-4v-1h4Zm0-1v-1h-4v1h4Zm-11.88 0-.37-1H14l.33 1h3.8Zm-4.45-2h3.7L17 24h-3.67l.34 1ZM26 24v1h4v-1h-4Zm10 0v1h5.79l-.36-1H36Z" fill="#fff"/></svg>