<!-- by TradingView --><svg width="56" height="56" viewBox="0 0 56 56" xmlns="http://www.w3.org/2000/svg"><path fill="#F0F3FA" d="M0 0h56v56H0z"/><path d="M17 22.46V16c-4.25.92-9 5.11-9 9.23 0 3.3.7 4.6 1.04 4.83C8.63 36.14 14.84 39.9 18 41v-4.83c-5.43-1.87-7.89-4.85-8.43-6.1.83-3.98 5.37-6.73 7.43-7.6ZM39 22.46V16c4.25.92 9 5.11 9 9.23 0 3.3-.7 4.6-1.04 4.83.41 6.08-5.8 9.83-8.96 10.94v-4.83c5.43-1.87 7.89-4.85 8.43-6.1-.83-3.98-5.37-6.73-7.43-7.6ZM37.03 14c1.35 0 1.88.56 1.97.83-.5.84-.84-.27-1.69-.27-.84 0-1.96 1.31-3.23 3.54-1.26 2.22-1.61 4.86-2.6 4.86-1.68 0-2.24-5.97-2.6-5.97-.34 0-.77 1.39-2.1 3.6-1.34 2.23-2.81 3.41-3.23 3.41-.42 0-.63-.2-.63-.56 0-.62 1.05-3.33 1.05-5.2 0-1.88-.5-2.36-.77-2.36-.85 0-4.29 2.91-4.7 2.91-.43 0-.5-.14-.5-.41 0-1.12 7.52-4.24 8.08-4.24.56 0 .7.42.7 1.32 0 2-.47 3.66-.7 4.23.77-.76 2.38-4.23 3.16-4.23.77 0 .91.7 1.12 2.15.21 1.46.91 2.85 1.4 2.85.4 0 .4-.14.36-.21.84-4.51 3.23-6.25 4.91-6.25Z" fill="#F4C756"/><path fill-rule="evenodd" d="M28.74 42c2.06 0 6.1-.7 6.1-2.65 0-.75-1.46-1.22-2.62-1.3.92-.17 2.78-.74 2.78-1.55 0-1.02-2.47-1.5-5.49-1.5s-8.9.88-9.51 2.65c0 .27.15.34.39.34.03 0 .1-.06.23-.17.64-.55 2.65-2.28 8.12-2.28 3.01 0 4.17.28 4.17.96 0 .67-1.31 1.56-4.56 1.56l1.31-2.04-3.4.2v.28l.78.06c-.03.1-.19.44-.62 1.09l-.4.65c-.68 1.14-1.8 3.02-2.62 3.02h-1.39c-.21 0-.39.15-.39.34 0 .19.18.34.39.34h6.73Zm-2.86-.61h3.55c.93-.05 2.79-.46 2.79-1.77 0-.61-1.16-1.09-4.1-1.09-.34.7-1.25 2.26-2.24 2.86Z" fill="#F4C756"/><path d="M35.9 33c-.36 0-.62-.05-.8-.14-.07-.1-.11-.32-.1-.53.04-.05.18-.05.22-.01.08.19.33.46.66.46.19 0 .33-.08.33-.24 0-.17-.2-.27-.42-.35-.39-.14-.67-.3-.67-.59 0-.4.47-.6 1.03-.6.32 0 .61.06.68.1.07.1.1.29.1.47-.03.05-.19.05-.23.01-.12-.27-.28-.36-.5-.36-.18 0-.32.07-.32.2 0 .1.12.2.41.3.44.15.71.35.71.65 0 .42-.5.63-1.1.63ZM31.45 32.5v-1.84c0-.16 0-.2-.14-.26l-.13-.04a.07.07 0 0 1 0-.13c.3-.04.75-.14 1.12-.23.05 0 .1 0 .13.03-.02.17-.03.35-.03.6v1.32c0 .05.03.06.1.06.13 0 .28-.02.43-.12l.3-.2c.14-.1.18-.14.18-.17 0-.02-.07-.03-.14-.04l-.18-.02c-.07-.04-.06-.13.01-.14h.18c.34 0 .95-.02 1.38-.06.07.02.08.11.03.14l-.24.03a4.3 4.3 0 0 0-.98.39c-.03.03-.04.04-.04.06l.05.07c.14.13.78.7.96.8.1.05.24.07.43.1h.11c.06.03-.03.15-.03.15h-1.82s-.08-.1-.03-.15h.1l.12-.04a.52.52 0 0 0-.13-.14l-.52-.45a.25.25 0 0 0-.18-.06c-.05 0-.09.02-.09.1v.24c0 .3.03.33.29.35h.12c.05.03-.01.15-.01.15h-1.77s-.06-.12 0-.15h.13c.27-.02.3-.05.3-.35ZM28.5 32.45v-.7c0-.18 0-.23-.15-.3l-.12-.03a.08.08 0 0 1 0-.14c.4-.06.98-.19 1.25-.28.07 0 .12.01.15.04l-.03.2c0 .03.02.05.09.06.23-.08.48-.24.84-.24.23 0 .47.1.47.28 0 .21-.27.3-.55.3a.72.72 0 0 1-.33-.09.76.76 0 0 0-.33-.09c-.12 0-.16.1-.16.28v.71c0 .32.03.36.31.37l.28.02c.07.03-.01.16-.01.16h-2.17s-.08-.13-.01-.16l.16-.01c.29-.02.32-.06.32-.38ZM26.48 33c-.79 0-1.48-.32-1.48-.96-.01-.67.74-1.04 1.52-1.04s1.48.34 1.48 1c0 .68-.7 1-1.52 1Zm0-1.79c-.3 0-.53.22-.53.72s.22.85.6.85.5-.3.5-.72c-.01-.45-.2-.85-.57-.85ZM20.85 31.01h1.4l1.22-.01c.08 0 .07.15.02.17l-.1.01c-.16.03-.26.05-.26.07 0 .04.02.07.06.15.12.23.32.54.47.78.16-.28.27-.52.39-.74a.54.54 0 0 0 .06-.19c0-.02-.06-.04-.18-.06l-.11-.02c-.04-.04-.04-.15.02-.17a13.02 13.02 0 0 0 1.1 0c.07.02.08.12.03.17l-.1.01c-.23.04-.28.08-.39.26a31.7 31.7 0 0 0-.93 1.53c-.04.03-.09.03-.15.03-.07 0-.12 0-.16-.03-.15-.26-.5-.82-.72-1.13-.18.25-.6.89-.75 1.13-.04.03-.09.03-.16.03s-.12 0-.16-.03c-.33-.55-.67-1.1-1-1.6-.1-.14-.17-.16-.3-.18l-.12-.02c-.04-.04-.04-.15.02-.17l.8.01Zm1.47.45c0-.08-.12-.23-.26-.25a2.3 2.3 0 0 0-.33-.02c-.22 0-.35.02-.35.07 0 .03.02.09.06.16.1.17.37.6.49.76.1-.13.33-.48.37-.58.02-.06.02-.1.02-.14ZM38.48 29c-.79 0-1.48-.32-1.48-.96-.01-.67.74-1.04 1.52-1.04s1.48.34 1.48 1c0 .68-.7 1-1.52 1Zm0-1.79c-.29 0-.48.22-.48.72s.17.86.55.86.45-.3.45-.73c-.01-.45-.14-.84-.52-.84ZM36.52 27.65v.82c0 .31.03.35.3.37h.15c.07.03 0 .16 0 .16h-1.94s-.07-.13 0-.16h.15c.27-.02.3-.06.3-.37v-.67c0-.18 0-.23-.16-.28l-.1-.04a.07.07 0 0 1 0-.14c.37-.06.94-.18 1.18-.26.07 0 .11.02.15.04-.02.14-.03.33-.03.53Zm-.5-1.65c.36 0 .6.15.6.33 0 .23-.31.35-.64.35-.37 0-.6-.15-.6-.34 0-.2.3-.34.64-.34ZM34.86 27.6h-.57c-.08 0-.09 0-.09.1v.58c0 .21 0 .45.44.45.1 0 .2-.02.27-.06.06.02.1.06.09.1-.18.12-.52.23-.91.23-.53 0-.7-.19-.7-.44v-.87c0-.08-.01-.08-.13-.08h-.2c-.06-.02-.08-.1-.03-.12.2-.05.37-.12.52-.18.12-.05.27-.13.47-.3.04-.02.16-.01.19.02v.29c0 .07 0 .08.12.08h.56c.03.01.05.04.05.07 0 .04-.02.11-.08.14ZM32.39 27.68l-.05.61c-.02.32.17.4.31.4.08 0 .15 0 .26-.05.06 0 .1.07.08.1-.08.08-.4.26-.8.26-.24 0-.39-.06-.58-.16-.04-.03-.07-.04-.1-.04a.4.4 0 0 0-.15.05c-.12.06-.33.15-.59.15-.4 0-.77-.16-.77-.5 0-.23.21-.37.72-.48l.65-.13c.12-.02.15-.05.16-.1l.02-.15c0-.18-.1-.4-.4-.4-.17 0-.32.06-.36.26-.02.08-.06.12-.12.15-.1.06-.37.11-.5.11-.11 0-.16-.05-.16-.12 0-.12.17-.27.33-.36.24-.12.67-.28 1.16-.28.58 0 .92.2.89.68Zm-.9.79.02-.3c0-.07 0-.09-.05-.08-.3.03-.58.1-.58.33 0 .15.16.28.36.28.2 0 .25-.09.26-.23Z" fill="#B09D44"/><path d="M29.56 26.62v1.62c0 .38.03.47.14.47.1 0 .15 0 .25-.03.07.04.07.14 0 .17-.58.03-1.04.15-1.05.15-.04 0-.1-.02-.1-.06l.01-.12c0-.04-.03-.05-.05-.04-.2.1-.42.22-.64.22-.67 0-1.12-.4-1.12-.84 0-.57.62-.94 1.4-.94l.34.02a.08.08 0 0 0 .06-.07v-.52c0-.17 0-.21-.12-.26l-.1-.04c-.05-.03-.04-.1 0-.12.25-.04.61-.14.9-.23.04 0 .08 0 .1.03a8 8 0 0 0-.02.6Zm-.76 1.86v-.78c0-.07-.02-.1-.04-.14a.45.45 0 0 0-.34-.15c-.3 0-.6.21-.6.64 0 .27.18.64.66.64.09 0 .17-.02.25-.05.06-.03.07-.08.07-.16ZM23.46 28.45v-.7c0-.19 0-.24-.15-.3l-.1-.04c-.06-.03-.06-.11 0-.14.36-.06.92-.19 1.15-.27.06 0 .1.01.14.04l-.02.21c0 .03.01.04.04.04l.14-.04c.18-.06.54-.18.9-.18.65 0 .98.26.98.58v.8c0 .32.03.36.3.38h.13c.07.04 0 .17 0 .17h-1.79s-.07-.13 0-.16l.13-.02c.18-.01.21-.05.21-.3v-.79c0-.18-.15-.33-.54-.33a.75.75 0 0 0-.44.12c-.05.03-.06.08-.06.17v.83c0 .25.03.29.22.3l.13.02c.06.03 0 .16 0 .16h-1.8s-.07-.13 0-.16l.12-.01c.28-.02.31-.06.31-.38ZM40.46 28.45v-.7c0-.19 0-.24-.15-.3l-.1-.04c-.06-.03-.06-.11 0-.14.36-.06.92-.19 1.15-.27.06 0 .1.01.14.04l-.02.21c0 .03.01.04.04.04l.14-.04c.18-.06.54-.18.9-.18.65 0 .98.26.98.58v.8c0 .32.03.36.3.38h.13c.07.04 0 .17 0 .17h-1.8s-.06-.13 0-.16l.14-.02c.18-.01.21-.05.21-.3v-.79c0-.18-.15-.33-.54-.33a.75.75 0 0 0-.44.12c-.05.03-.06.08-.06.17v.83c0 .25.03.29.22.3l.13.02c.06.03 0 .16 0 .16h-1.8s-.07-.13 0-.16l.12-.01c.28-.02.31-.06.31-.38Z" fill="#B09D44"/><path d="M22.43 27.46v.83c0 .27.02.39.2.39.1 0 .22-.02.32-.04.07 0 .08.17-.03.2-.76.01-1.4.16-1.43.16-.06 0-.09-.03-.1-.05a.71.71 0 0 0 .03-.17c0-.03-.04-.04-.09-.04-.3.1-.57.26-1.05.26-.65 0-.91-.24-.91-.63v-.78c0-.24-.05-.26-.23-.3l-.1-.01c-.06-.04-.05-.13.03-.16.25 0 .52-.02.75-.04l.49-.08c.04 0 .08.03.1.05-.02.12-.03.24-.03.4v.76c0 .22.05.41.55.41.22 0 .34-.06.4-.09.06-.02.09-.09.09-.13v-.87c0-.18-.06-.22-.34-.24l-.1-.01c-.07-.03-.06-.14.03-.16l.81-.05c.27-.02.5-.07.55-.07.03 0 .07.02.08.05l-.02.4ZM17.48 29c-.79 0-1.48-.32-1.48-.96-.01-.67.74-1.04 1.52-1.04s1.48.34 1.48 1c0 .68-.7 1-1.52 1Zm0-1.79c-.3 0-.48.22-.48.72s.17.86.55.86.45-.3.45-.73c-.01-.45-.14-.84-.52-.84ZM14.37 26.4v.82c0 .12 0 .14.16.14H15c.31 0 .37-.04.44-.26l.03-.1c.04-.05.18-.04.22 0-.02.28-.02.68 0 .95-.04.04-.18.05-.22 0l-.03-.1c-.07-.22-.13-.26-.44-.26h-.46c-.16 0-.16.02-.16.14v.6c0 .43.03.46.3.49l.22.02c.04.03 0 .16 0 .16h-1.87s-.05-.13 0-.16l.2-.02c.26-.03.3-.06.3-.48v-1.68c0-.42-.04-.45-.3-.49l-.12-.01c-.06-.03-.06-.14.01-.16h.4l.43.01h1.25L16 26v.7c-.02.05-.15.06-.22.02a.98.98 0 0 0-.18-.35c-.1-.1-.28-.15-.58-.15h-.46c-.2 0-.2.01-.2.19Z" fill="#B09D44"/></svg>