<!-- by TradingView --><svg width="56" height="56" viewBox="0 0 56 56" xmlns="http://www.w3.org/2000/svg"><path fill="#F0F3FA" d="M0 0h56v56H0z"/><path fill-rule="evenodd" d="M8 28.89 4 24h1.87c.18 0 .35.08.46.2L9 27.36l2.63-3.14a.62.62 0 0 1 .47-.21H14l-4 4.89v2.7c0 .23-.03.41-.26.41H8v-3.11ZM40 32h1.68c.19 0 .3-.15.3-.34L42 29h.3c.11 0 .19-.05.19-.16v-1.6c0-.12-.08-.24-.19-.24H42v-2.66c0-.19-.13-.34-.32-.34H40v8Zm-19-4a4 4 0 1 1-8 0 4 4 0 0 1 8 0Zm-2 0a2 2 0 1 1-4 0 2 2 0 0 1 4 0Zm16 4a4 4 0 0 0 3.97-4.5H34.2L35.4 29h1.32a2 2 0 1 1 0-2h2.14A4 4 0 1 0 35 32Zm-11.22 0H22v-8h1.6c.08 0 .15.03.2.1l4.2 4.73v-4.56c0-.15.13-.27.28-.27H30v8h-1.56a.27.27 0 0 1-.2-.09L24 27v4.73c0 .15-.07.27-.22.27Z" fill="#0046B6"/><path d="M47 26h4.59c.23 0 .41-.21.41-.47V24h-5v2Zm0 4h4.59c.23 0 .41.21.41.47V32h-5v-2Z" fill="#0046B6"/><path d="M46 29v3h2v-3h3v-2h-3v-3h-2v3h-3v2h3Z" fill="#00B9FF"/></svg>