<!-- by TradingView --><svg width="56" height="56" viewBox="0 0 56 56" xmlns="http://www.w3.org/2000/svg"><path fill="#F0F3FA" d="M0 0h56v56H0z"/><path d="M15.6 27.53 12.01 31l8.42 3.97-4.85-7.43Z" fill="url(#a)"/><path d="M20.42 35H8l4.08-4.07L20.42 35Z" fill="#0D4BA1"/><path d="m19.7 28.2-1.87-2.67 5.68-5.28-3.8 7.96Z" fill="#95DBF9"/><path d="m33 35-13.28-6.84 3.72-7.84L33 35Z" fill="url(#b)"/><path d="m20.44 34.98-.79-6.86L33 35l-12.56-.02Z" fill="#0D4BA1"/><path d="m32 27-6-8.79L31.52 13 32 27Z" fill="#8DD7F7"/><path d="m46 35-14-8-.5-14L46 35Z" fill="url(#c)"/><path d="M33.4 34.97 32 27l14 8-12.6-.03Z" fill="#0D4BA1"/><defs><linearGradient id="a" x1="18.39" y1="29.59" x2="14.68" y2="34.07" gradientUnits="userSpaceOnUse"><stop stop-color="#009CDE"/><stop offset="1" stop-color="#93DFFD"/></linearGradient><linearGradient id="b" x1="29.4" y1="30.24" x2="24.8" y2="34.39" gradientUnits="userSpaceOnUse"><stop stop-color="#0094DC"/><stop offset=".93" stop-color="#95DBF9"/></linearGradient><linearGradient id="c" x1="37.77" y1="22.92" x2="32.38" y2="27.62" gradientUnits="userSpaceOnUse"><stop stop-color="#0094DC"/><stop offset="1" stop-color="#8DD7F7"/></linearGradient></defs></svg>