<!-- by TradingView --><svg xmlns="http://www.w3.org/2000/svg" width="56" height="56"><path fill="#F0F3FA" d="M0 0h56v56H0z"/><path fill-rule="evenodd" d="M8.7 33H8v6h1v-4.89L10.31 39h1.37L13 34.1V39h1v-6h-1.6L11 38.2 9.6 33h-.9zm6.3 6l2.34-6h1.32L21 39h-1.17l-.59-1.5h-2.48l-.58 1.5H15zm3-4.67l.93 2.37h-1.85l.92-2.37zM38.34 33L36 39h1.18l.58-1.5h2.48l.58 1.5H42l-2.34-6h-1.32zm1.59 3.7L39 34.33l-.93 2.37h1.86zM23 33h-1v6h1v-4.35L26.09 39H27v-6h-1v4.4L23 33zm5.3 0l1.76 6h1.06l.98-4.42.98 4.42h1.06l1.76-6h-1.12l-1.23 4.2-.92-4.2h-1.06l-.92 4.2-1.23-4.2H28.3zM44 33h-1v6h1v-2.7h3V39h1v-6h-1v2.5h-3V33z" fill="#231F20"/><path fill-rule="evenodd" d="M19.77 18.15C16.1 21.6 13.42 26.83 12 30h2.89c3.65-13.23 10.8-15.62 13.32-14.27-6.18 3.82-8.36 8.47-7.44 11.53.48 1.18 1.3 1.68 2.27 1.74 3.94.26 7.15-3.82 7.93-7.2.46-1.98.2-4-1-5.75 2.88-1.18 6.49-1.67 9.27-.6-2.94 1.73-6.72 5.26-7.39 9.3-.36 3.13 1.38 4.15 2.9 4.25 2.08.14 4.03-1.35 5.26-2.85 2.64-3.2 3.11-7.97.57-10.58 1.19-.76 3.42-1.24 3.42-1.24-1.88-.01-3.99.8-3.99.8-.67-.59-4.27-2.3-10.87.17-3.38-1.68-6.96.58-9.37 2.85zm9.27-1.5c-4.8 3.32-6.16 6.19-6.69 8.7-.3 1.47-.04 2.66.94 2.74 1.99.16 4.32-2.67 5.18-4.08 1.22-2 1.75-4.51.57-7.37zm10.87-.6c-1.4.97-2.53 1.99-3.43 3a12.06 12.06 0 00-3.06 6.13c-.23 1.5.02 2.9 1.58 3.04 1.6.14 3.04-.98 4.02-2.07a9.87 9.87 0 002.52-6.16 5 5 0 00-1.63-3.94z" fill="#F15C23"/></svg>