<!-- by TradingView --><svg width="56" height="56" viewBox="0 0 56 56" xmlns="http://www.w3.org/2000/svg"><path fill="#F0F3FA" d="M0 0h56v56H0z"/><path d="m45.94 40.42.11.19c.18.3.1.47-.25.51l-2.56.32c-.16.02-.26-.05-.28-.22l-.02-.18c-.02-.16.05-.24.22-.24h.78c.1 0 .16-.05.16-.16v-.26c0-.07-.04-.11-.1-.11h-1.24c-.08 0-.11.04-.11.1v1.42c0 .1-.05.16-.15.17l-.3.04c-.13.01-.2-.04-.2-.17v-2a.13.13 0 0 1 .13-.13H44c.09 0 .13-.04.12-.13v-.07c0-.06-.04-.09-.1-.09h-1.68a.12.12 0 0 1-.09-.03.11.11 0 0 1-.03-.08v-1.16c0-.08.04-.13.13-.13h1.62c.08 0 .13-.04.13-.13v-.13c0-.1-.06-.16-.16-.16h-1.6c-.15 0-.22-.07-.22-.21v-.14c0-.13.11-.24.24-.24h4.45c.14 0 .19.06.14.2l-.04.1a.31.31 0 0 1-.27.2l-1.87.15c-.12 0-.06.26-.01.3.03.03.07.05.12.05h1.66c.13 0 .2.07.2.2v1.03c0 .13-.07.2-.2.2h-1.78a.08.08 0 0 0-.08.07v.09c0 .06.06.11.12.11h2.1c.05 0 .1.05.1.1v1.95c0 .08-.04.12-.1.13-.33.05-1 .15-1.36.03a.26.26 0 0 1-.18-.17.24.24 0 0 1 .01-.2.17.17 0 0 1 .13-.08l.75-.1a.13.13 0 0 0 .12-.12v-.88c0-.04-.03-.06-.07-.06l-.3.03c-.05 0-.08.05-.06.09Zm-1.85-1.66v-.22a.07.07 0 0 0-.06-.07h-.76c-.08 0-.42 0-.42.13v.08c0 .13.34.14.41.14h.76c.04 0 .07-.03.07-.06Zm2.03-.17a.14.14 0 0 0-.14-.14h-1.1a.14.14 0 0 0-.15.15v.1c0 .08.07.14.15.14h1.1c.08 0 .14-.07.14-.15v-.1Zm-1.42 1.78.03.23c0 .05.06.03.1.03.19-.02.43-.05.6-.15.03-.02.04-.04.04-.06v-.05c-.02-.15-.56-.07-.68-.06-.04 0-.1 0-.09.06ZM38.74 22.4c-.4.03-.77.2-1.1.48-.04.04-.08.03-.11-.02-1.86-3.34-5.72-5.83-9.53-5.86a10.8 10.8 0 0 0-8.67 4.35C17.78 23.35 17 25.53 17 28c0 .8.08 1.6.23 2.41a.15.15 0 0 1-.1.17c-1.48.43-2.64 2.3-2.23 3.8.08.3.09.51.1.62a9.98 9.98 0 0 0-2.42 0c-.08 0-.3-.1-.4-.35A20.24 20.24 0 0 1 11 28c0-9.15 7.75-17.06 17-17 8.32.05 14.92 6.27 16.48 14.29-1.21-.56-2.74-.41-3.57.76-.43.6-.58 1.28-.36 1.95a3.2 3.2 0 0 1-2.1-2.14c-.04-.15.02-.23.18-.22.81.04 1.37-.32 1.69-1.08.44-1.05-.49-2.26-1.58-2.16Z" fill="#004177"/><path d="M30.84 26.49h-1.7c-.08 0-.14.04-.14.12v1.31c0 .04.02.08.06.08h3.48c.77-.01.52-1.01 1.31-.55.43.25.8.5 1.09.77.09.08.08.22-.02.28a.9.9 0 0 0-.44.84c.02.97.03 1.75.02 2.33-.01.73-.1 1.24-.24 1.52-.27.52-.8.78-1.6.8a.82.82 0 0 1-.36-.04c-.08-.03-.15-.12-.22-.27-.4-.75-1.13-1-1.92-1.37-.07-.04-.1-.18.01-.16.78.1 1.88.11 2.34.04.33-.06.5-.26.49-.6l-.01-2.92c0-.06-.03-.09-.1-.09h-3.6c-.2 0-.29.1-.29.28v1.05c0 .13.07.2.2.18l1.02-.12c.12-.02.17-.18.07-.25l-.58-.45a.13.13 0 0 1-.05-.06c-.03-.08.04-.16.13-.17.8-.02 1.12.17 1.74.59.4.26.46.6.47 1 0 .37.02.82-.36.96-.9.34-1-.47-1.3-1.01-.03-.05-.07-.06-.12-.04-.55.2-5.22 1.46-5.73 1.46-.16-.48-.49-1.5-.49-1.87 0-.07.07-.13.14-.13h2.8c.04 0 .06-.02.06-.06v-1.27c0-.05-.03-.08-.08-.08h-3.83a.09.09 0 0 0-.09.08v4.75c0 .05-.02.11-.05.16a.3.3 0 0 1-.14.1c-.52.18-1.15.25-1.71.2-.05 0-.1-.05-.1-.1v-6.3c0-.06.07-.11.13-.1l.6.13c.5.13 1.03.49 1.52.49h3.6c.08 0 .15-.05.15-.12v-1.4a.1.1 0 0 0-.1-.1c-.56.04-1.45.07-2.13.1-.36.01-.56.34-.86.42-.44.12-.85.16-1.2.14a.2.2 0 0 1-.13-.06.18.18 0 0 1-.05-.12V23.05a.1.1 0 0 1 .13-.06c.33.06.7.16 1.1.3.47.15.82.23 1.06.24l2.07.05c.07 0 .11-.03.11-.1v-1.1c0-.07-.04-.11-.13-.11-1.48.03-3.1 0-4.33-.06A19.1 19.1 0 0 1 21 22c.57-.1 1.9-.24 2.79-.36a49.4 49.4 0 0 0 7.64-1.62.48.48 0 0 1 .41.07c.62.4 1.14.92 1.57 1.55.07.1 0 .26-.14.27l-4.13.33c-.09 0-.14.06-.14.14v1.04c0 .1.04.15.15.16h.66c.82-.02 1.13.05 1.6-.52.07-.07.18-.12.36-.15.1-.02.22 0 .34.06.52.27.92.51 1.2.74.08.06.09.17.03.24-.22.26-.33.5-.34.85v1.47c0 .18-.06.33-.14.45-.29.4-1.34.29-1.75.19a.18.18 0 0 1-.11-.1.56.56 0 0 1-.07-.24c0-.06-.03-.08-.1-.08ZM27 24.17c0-.05-.05-.17-.11-.17h-2.78c-.06 0-.11.12-.11.17v1.73c0 .05.05.1.11.1h2.78c.06 0 .11-.05.11-.1v-1.73Zm4 .01c0-.05-.06-.18-.11-.18H29.1c-.05 0-.1.1-.1.16v1.74c0 .05.05.1.1.1h1.77c.05 0 .13-.04.13-.1v-1.72Z" fill="#D1974E"/><path d="M39 25a1 1 0 1 0 0-2 1 1 0 0 0 0 2ZM19.45 35.99c0 .02 0 .04.03.04 1.75.28 3.43.8 5.05 1.55.04.02.1 0 .13-.03l.7-.78c1.42-1.47 3.45-1.82 5.4-1.77 2.46.06 4.79.97 7.24 1 1.7.02 3.6-.6 4.4-2.29.28-.6.33-1.3.14-2.1-.15-.6-.47-1-.97-1.19-.57-.22-1.05-.1-1.42.35a.24.24 0 0 0 0 .3l.08.07c.18.08.42.15.71.21.25.06.4.25.41.56.05.87-.71 1.1-1.47 1.09-.96-.01-1.85-.52-1.88-1.65-.04-1.46 1.34-2.35 2.61-2.35.73 0 1.52.54 2.22.44.63-.08 1.33-.93.93-1.6-.18-.32-.44-.42-.8-.3-.07.02-.09.06-.06.12.06.14.14.25.24.33.14.1.12.31-.01.4-.64.43-1.5-.08-1.64-.72-.12-.5.03-.92.45-1.26.48-.4 1.03-.5 1.63-.32 1.6.52 1.75 2.37.98 3.63-.14.23-.33.47-.57.71a.15.15 0 0 0-.05.14l.18.52c.47 1.31.1 2.74-.67 3.89-1.4 2.1-3.75 3.02-6.1 3.02-2.15 0-4.24-.82-6.35-1.1A6.85 6.85 0 0 0 26 38.04c-.15.11-.15.21.02.3.18.1.37.16.56.05 1.26-.71 2.7-.7 4.14-.49 1.4.21 4.28 1.1 6.3 1.1.98 0 1.97.02 2.98-.31-.57 1.28-2.48 1.59-3.69 1.61-1.05.02-2.09-.1-3.13-.35l-2.39-.58a16.4 16.4 0 0 0-1.66-.33c-.57-.08-1.13-.12-1.68-.13-.06 0-.1.06-.06.1.06.08.14.14.24.19.89.46 1.85.86 2.9 1.2 1.76.58 3.53.75 5.3.51.24-.03.25.02.05.14-2.56 1.51-5.7 1-8.32-.03l-3.36-1.3c-1.7-.68-3.3-1.06-4.8-1.16-1.52-.1-2.96.1-4.35.57a.37.37 0 0 1-.43-.15l-1.57-2.35c-.1-.14-.06-.23.1-.28.85-.27 1.8-.43 2.87-.5.71-.05 1.2-.13 1.43-.23.67-.3 1.33-1.05 1.31-1.8 0-.38-.27-.5-.7-.7a.59.59 0 0 0-.55.03.17.17 0 0 0-.07.24c.18.28.56.61.56.88-.05.55-.6.82-1.05.75-.65-.1-.95-.7-.95-1.3 0-1.07.68-1.7 1.7-1.72 1.31-.03 2.27.78 2.3 2.06.02.68-.28 1.3-.55 1.93Z" fill="#004177"/><path d="M37 34a1 1 0 1 0 0-2 1 1 0 0 0 0 2ZM40.76 34.28c.45-.03.7-.16 1.1-.26.14-.04.17-.02.1.07-.42.57-1.1.87-2.06.9-.23.02-.45-.02-.66-.1-.38-.17-.28-.57.1-.67.43-.11.96.09 1.42.06ZM16.09 40.52a13.6 13.6 0 0 1 6.82-.17c1 .22 2.28.58 3.86 1.08.9.28 1.93.53 3.1.74 1.25.23 2.45.28 3.6.15.68-.08.7-.01.07.2-1.3.43-2.7.57-4.2.42a23.29 23.29 0 0 1-3.24-.56c-.18-.04-.83-.2-1.97-.5a14.9 14.9 0 0 0-2.28-.39 9.74 9.74 0 0 0-3.7.35.4.4 0 0 1-.31-.04l-1.79-1.08c-.08-.06-.06-.16.04-.2Z" fill="#004177"/><path d="M22.06 42.02c1.38.86 2.85 1.47 4.43 1.83 1.4.32 2.61.4 3.64.24.27-.07.55-.18.82-.12.06.02.07.04.01.08-.52.34-1 .56-1.48.66-2.23.48-4.45.36-6.65-.36-1-.33-1.92-.7-2.76-1.11-.09-.04-.1-.09 0-.14l1.84-1.08c.05-.03.1-.03.15 0ZM37.23 41.04l-.18.19a.15.15 0 0 0 0 .21l.5.51c.06.06.16.07.22 0l.18-.18a.15.15 0 0 0 0-.21l-.5-.51a.15.15 0 0 0-.22 0ZM38.72 43.42l-.17.4c-.05.14-.13.17-.24.11l-.17-.1c-.14-.07-.18-.17-.1-.29.16-.26.26-.6.31-1.03 0-.03.02-.05.03-.07a.13.13 0 0 1 .06-.04l.33-.1a.1.1 0 0 0 .08-.11l.05-1.04c0-.1.06-.15.16-.15h.23c.13 0 .2.06.2.19v1.1c-.01.15.53.1.63.14.03 0 .05 0 .05-.03l-.08-.99a.17.17 0 0 1 .17-.17l.34.01c.12 0 .17.07.16.18l-.03.8c0 .04.01.06.04.07l.48.14c.06.02.1 0 .1-.07l.06-1.22c0-.1.06-.14.15-.14h.28c.1 0 .16.05.16.15v4.67c0 .11-.06.17-.17.17h-.24a.19.19 0 0 1-.2-.18v-1.38c.02-.3-.02-.54-.12-.7a3.04 3.04 0 0 0-.48-.64c-.06-.05-.1-.04-.11.04l.06.26v.04l.03 2.16c0 .1-.05.15-.15.15h-.36c-.1 0-.15-.05-.15-.16v-1.65c0-.2-.06-.29-.24-.32a.19.19 0 0 1-.14-.12l-.12-.37c-.02-.05-.05-.06-.1-.03-.02.01-.03.03-.03.06-.01 1.05-.04 1.86-.65 2.65a.13.13 0 0 1-.16.05l-.33-.1a.16.16 0 0 1-.09-.24c.47-.69.66-1.38.56-2.09-.02-.12-.05-.12-.1 0Z" fill="#004177"/><path d="M37.97 43.63c.02.02.03.05.03.08 0 .16-.3.31-.43.29a.15.15 0 0 1-.09-.04l-.44-.44c-.04-.04-.05-.11-.03-.2.02-.1.14-.32.28-.32.03 0 .06.01.08.03l.6.6Z" fill="#004177"/><path d="m37.55 44 .38.14c.05.02.08.08.07.14l-.44 1.64c-.01.06-.07.1-.11.08l-.38-.14c-.05-.02-.08-.08-.07-.14l.44-1.64c.01-.06.07-.1.11-.08Z" fill="#004177"/></svg>