<!-- by TradingView --><svg width="56" height="56" viewBox="0 0 56 56" xmlns="http://www.w3.org/2000/svg"><path fill="#F0F3FA" d="M0 0h56v56H0z"/><path d="M16 18h21.38L43 33H19.37c.94-3.08 1.58-10.38-3.37-15Zm13.5 14 8.5-6.5-8.5-6.5-8.46 6.53L29.5 32Z" fill="#EC1D25"/><path d="M26 23h3v.5h-2.4v1H29v.5h-2.4v1.5H29v.5h-3v-4ZM30 27v-4h.5v2h2v-2h.5v4h-.5v-1.5h-2V27H30Z" fill="#EC1D25"/><path fill-rule="evenodd" d="M15.26 16.6c.63 0 1.14-.55 1.14-1.2 0-.67-.51-1.2-1.14-1.2-.62 0-1.13.53-1.13 1.2 0 .65.5 1.2 1.13 1.2Zm0 1.19a2.33 2.33 0 0 0 2.27-2.4c0-1.32-1.02-2.39-2.27-2.39A2.33 2.33 0 0 0 13 15.4c0 1.32 1.01 2.39 2.26 2.39Z" fill="#EC1D25"/><path d="M19 44h2.3l-4.36-26.94-2.22.41L19 44Z" fill="#EC1D25"/></svg>