<!-- by TradingView --><svg width="56" height="56" viewBox="0 0 56 56" xmlns="http://www.w3.org/2000/svg"><path fill="#F0F3FA" d="M0 0h56v56H0z"/><path d="M32 17c1.74.16 3.22.47 4.44.93 4.23 1.6 6.73 4.77 7.5 9.47a13.16 13.16 0 0 1-.17 3.63.94.94 0 0 0-.02 0l-.01-.02a18.1 18.1 0 0 0-.25-3.63 9.33 9.33 0 0 0-4.7-6.64 12.8 12.8 0 0 0-6.48-1.63c-2.21 0-4.4.45-6.58 1.33a21.22 21.22 0 0 0-7.27 4.84 18.52 18.52 0 0 0-4.52 7.45.55.55 0 0 0 .08.51c.12.16.27.24.46.24l4.15.03c.45 0 .8-.15 1.06-.45a18.85 18.85 0 0 1 1.5-1.53c.5-.39 1-.53 1.53-.53h3.79c.45 0 .77.27.98.9v.03c-.08.55-.36.84-.82.86l-2.15.11a.96.96 0 0 0-.7.34c-.7.8-1.38 1.63-2.06 2.47-.38.49-.83.82-1.33 1a5.1 5.1 0 0 1-1.7.29h-7.6c-.47-.1-.85-.39-1.13-.85v-.96a18.5 18.5 0 0 1 3.55-8.69c4.2-5.63 9.8-8.8 16.79-9.5h1.65Z" fill="#006CB8"/><path d="M20.2 24.99a5.42 5.42 0 0 0-.06-.12 17.17 17.17 0 0 1 13-4.74 9.54 9.54 0 0 1 7.25 3.45 9.26 9.26 0 0 1 2 7.12 1.85 1.85 0 0 1-1.37 1.7c-.11.04-.19.06-.23.06-.95.07-1.37-.35-1.27-1.23.44-3.8-.73-6.65-3.5-8.53a9.68 9.68 0 0 0-4.71-1.56c-1.7-.15-3.37.04-5 .54-2.17.68-4.2 1.78-6.1 3.3Z" fill="#009DDE"/><path d="m20.14 24.87.06.12-.13.07c-.14.06-.16.03-.03-.1a.65.65 0 0 1 .1-.1ZM40.95 37h-8.68c-.9-.17-1.48-.71-1.76-1.64l-2.13-6.88a.27.27 0 0 0-.21-.2.27.27 0 0 0-.28.1c-1.45 1.73-2.62 1.98-3.5.77-.23-.33-.22-.65.02-.97.32-.4.85-.98 1.61-1.76a4.37 4.37 0 0 1 1.93-1.27c.67-.17 1.3-.2 1.9-.08.74.15 1.24.52 1.49 1.1.05.1.83 2.3 2.34 6.56.16.46.48.69.95.69h7.68c.23 0 .4.1.54.29.13.19.16.4.08.61-.25.74-.49 1.28-.7 1.62-.34.54-.77.89-1.28 1.06Z" fill="#006CB8"/></svg>