<!-- by TradingView --><svg width="56" height="56" viewBox="0 0 56 56" xmlns="http://www.w3.org/2000/svg"><path fill="#F0F3FA" d="M0 0h56v56H0z"/><circle cx="28" cy="28" r="16" fill="url(#a)"/><circle cx="28" cy="26" r="12.86" fill="url(#b)"/><circle cx="28" cy="25.91" r="10.45" fill="#1283C3"/><path d="M28.75 34.29c-9.77.74-13.3-5.17-13.86-8.22 8.8 7.49 11.05 3.12 11.07 0-.4-3.07-.9-9.84.36-12.36 1.26-2.51 6.24-1.04 8.57 0 3.58 1.6 5.93 9.31 6 11.43.03 2.74-2.37 8.4-12.14 9.15Z" fill="#50ACDF"/><circle cx="28.87" cy="26.04" r="8.55" fill="#A0D2F1"/><path d="M21.59 33.43c1.89.7 4.52 1.44 7.43 1.22a14.8 14.8 0 0 0 8.49-3.31 10.18 10.18 0 0 0-11.85-14.87c-.34 3.1 0 7.35.3 9.6-.02 2.57-1.55 6-7.01 2.92.49 1.7 1.4 3.23 2.64 4.44Z" fill="#8EC8ED"/><path d="M24.14 29.87c1.34-.7 1.81-2.38 1.82-3.8a56.35 56.35 0 0 1-.42-5.36 6.17 6.17 0 1 1-1.4 9.16Z" fill="#C0DFF4"/><path d="M25.83 27.31c.1-.41.13-.84.13-1.24-.08-.64-.17-1.44-.24-2.34a3.58 3.58 0 1 1 .11 3.58Z" fill="#D9EBF9"/><defs><linearGradient id="a" x1="28" y1="12" x2="28" y2="44" gradientUnits="userSpaceOnUse"><stop stop-color="#1287C5"/><stop offset="1" stop-color="#00566F"/></linearGradient><linearGradient id="b" x1="28" y1="13.14" x2="28" y2="38.86" gradientUnits="userSpaceOnUse"><stop stop-color="#2289C9"/><stop offset="1" stop-color="#006997"/></linearGradient></defs></svg>