<!-- by TradingView --><svg width="56" height="56" viewBox="0 0 56 56" xmlns="http://www.w3.org/2000/svg"><path fill="#F0F3FA" d="M0 0h56v56H0z"/><path d="m12 28.32.19-3.32H43.8l.19 3.32h-.37L42.91 27H31.92a.93.93 0 0 0-.92.94V43h-6V27.94a.93.93 0 0 0-.92-.94h-11l-.71 1.32H12Z" fill="#2D2726"/><path d="M41 28.98h-5v6.1c0 .5-.41.92-.92.92h-3.1v2h3.1c.5 0 .92.41.92.92V40h5V28.98ZM15 13h5v1.08c0 .51.42.92.94.92h14.12c.52 0 .94-.41.94-.92V13h5v8h-5v-3.08c0-.51-.42-.92-.94-.92H20.94a.93.93 0 0 0-.94.92V24h-5V13ZM20 32h-5v8h5v-1.07c0-.51.42-.93.94-.93H24v-2h-3.06a.93.93 0 0 1-.94-.93V32Z" fill="#2D2726"/></svg>