<!-- by TradingView --><svg width="56" height="56" viewBox="0 0 56 56" xmlns="http://www.w3.org/2000/svg"><path fill="#F0F3FA" d="M0 0h56v56H0z"/><path d="M27.2 11a34.87 34.87 0 0 1-4.12 3.66c-2.16 1.63-3.5 2.79-4.05 3.48a11.5 11.5 0 0 0-2.54 8.67c.27 2.54 1.32 5.48 3.16 8.82L18.6 38h-.18c-.16-.02-.25-.1-.25-.27 0-1.09-.17-2.01-.51-2.77a15.25 15.25 0 0 0-2.12-3.02c-.68-.81-1.12-1.4-1.35-1.76-1-1.65-1.56-3.46-1.69-5.45a609.2 609.2 0 0 1-.19-3.25 16.66 16.66 0 0 1 5.92-7.4A16.66 16.66 0 0 1 27.19 11ZM36.47 13.24c4.3 5.46 5.6 11.47 3.9 18.05-.3 1.1-1.16 2.9-2.6 5.39a36.4 36.4 0 0 1-.95-2.71c-.25-.83-.41-1.77-.49-2.82-.11-1.61-.26-3.22-.43-4.84a28.69 28.69 0 0 0-6.39-15.26c2.48.22 4.8.95 6.96 2.2Z" fill="#E6E6E5"/><path d="m27.27 23.24-2.09 11.84a.56.56 0 0 1-.32.42l-6.47 3.2.21-.68 1.05-2.4a45.8 45.8 0 0 0 3.34-17.9c0-.32.14-.65.41-.99 1.24-1.48 2.5-2.94 3.79-4.38.28-.32.42-.26.4.17l-.32 10.72Z" fill="#008A3A"/><path d="M38.83 40.07c.12.24.27.45.45.63a16.7 16.7 0 0 1-6.34 3.55 2.9 2.9 0 0 1-.69-1.12c.14-.4 0-.89-.4-1.48-.36-.5-.59-.94-.7-1.3-.5-1.63-.94-3.28-1.3-4.96-.88-4.71-1.32-8.29-1.31-10.73.01-4.6-.02-8.52-.1-11.74-.02-.74.21-.83.7-.27l3.47 4.02c.2.24.3.5.3.81.11 8.12 1.78 15.22 5.03 21.33.25.47.55.89.9 1.26Z" fill="#0067AC"/><path d="M39.28 40.7c-.18-.18-.33-.4-.44-.64.28-.06.43-.2.43-.44 0-.13-.09-.28-.24-.46a6.13 6.13 0 0 1-1.26-2.48c1.45-2.49 2.31-4.28 2.6-5.39 1.7-6.58.4-12.6-3.9-18.05a16.63 16.63 0 0 1 6.67 7.02 16.62 16.62 0 0 1 1.7 10.03 16.46 16.46 0 0 1-5.56 10.4ZM12.31 21.5l.2 3.24c.11 1.98.68 3.8 1.68 5.45.22.36.67.95 1.35 1.76 1.08 1.3 1.79 2.3 2.12 3.02.34.76.51 1.68.51 2.77 0 .16.09.25.25.26l.18.01-.21.69-1.47 2.16a16.66 16.66 0 0 1-5.25-8.25 16.57 16.57 0 0 1 .64-11.12Z" fill="#D3D3D3"/><path d="M27.27 23.24c.18 4.07-.24 8.09-1.24 12.05l-1.98 7.56-.93 1.41c-2.3-.7-4.37-1.82-6.2-3.4l1.47-2.16 6.47-3.2a.56.56 0 0 0 .32-.42l2.09-11.84Z" fill="#006C37"/><path d="m26.03 35.3 3.82.08c.36 1.69.8 3.34 1.3 4.97.11.36.34.8.7 1.3.4.6.54 1.08.4 1.47-2.7-2.56-5.42-2.65-8.2-.27l1.98-7.56Z" fill="#113683"/><path d="M32.25 43.13c.08.3.3.68.69 1.12-3.28 1-6.55 1-9.82.01l.93-1.4c2.78-2.4 5.5-2.3 8.2.27Z" fill="#D3D3D3"/></svg>