<!-- by TradingView --><svg width="56" height="56" viewBox="0 0 56 56" xmlns="http://www.w3.org/2000/svg"><path fill="#F0F3FA" d="M0 0h56v56H0z"/><path fill-rule="evenodd" d="M32.85 26.03c-.94-.19-1.8-.26-2.6-.22-.13 0-.16-.05-.1-.17l2.7-4.77c.22-.4-.08-.9-.52-.87h-2.48c-1.18 0-1.46.58-1.84 1.42-.09.19-.18.4-.3.6-3.1 5.9-5.8 10.87-7.83 14.49-.24.43-.65.7-1.16.57a5.44 5.44 0 0 1-4.22-5.31C14.42 23.65 25.41 19 31.99 19c4.77 0 11.12 1.65 11.01 7.13-.09 4.77-4.5 8.87-8.07 11.34l-.88.61c-1.13.8-2.29 1.6-3.47 2.29a.31.31 0 0 0-.12.12c-.18.32-.1.49.27.51.77 0 1.13-.1 1.72-.31 6.13-2.26 13.29-7.7 13.54-15.05.26-7.44-6.68-10.52-13.02-10.64-9.18-.17-22.98 5.95-22.97 17.06a9 9 0 0 0 4.85 7.89c1.56.85 3.4 1.04 5.15 1.05 6 0 11.2-2.46 14.85-7.25a8.8 8.8 0 0 0 1.7-3.86c.37-2.14-2-3.53-3.7-3.86ZM30.8 30a4.8 4.8 0 0 0-3.62 1.6c-.17.19-.71 1.04-1.63 2.56A49.78 49.78 0 0 0 24 36.87a.14.14 0 0 0 .1.12h.08c1.93-.46 3.7-1.29 5.3-2.46.95-.7 2.29-1.9 2.48-3.08.17-1-.22-1.48-1.17-1.45Z" fill="#02294D"/></svg>