<!-- by TradingView --><svg width="56" height="56" viewBox="0 0 56 56" xmlns="http://www.w3.org/2000/svg"><path fill="#F0F3FA" d="M0 0h56v56H0z"/><path d="M7.63 22H4v8.9c1.1-.1 3-.68 3-2.33 0-.8-.57-1.72-1-2.07 1.47-.24 4 .08 4 3.22 0 1.34-.6 2.12-.9 2.34-.11-.62-.43-1.85-1.47-1.85-.18 0-.5.2-.92.49A6.43 6.43 0 0 1 4 31.9V34h3.63C10.6 34 13 31.31 13 28s-2.4-6-5.37-6ZM16 22h-2v12h9v-2h-7v-3h6v-2h-6v-3h7v-2h-7ZM44 22h1.65L50 30v-8h2v12h-1.65L46 26.5V34h-2V22ZM36 22h-2v7.5a4.5 4.5 0 1 0 9 0V22h-2v7.5a2.5 2.5 0 0 1-5 0V22ZM31.07 25.62c-.16-1.4-1.07-2.1-2.5-2.1-1.08 0-2.57.5-2.57 1.72 0 .84.87 1.3 1.6 1.56.26.09.5.16.74.22l1.18.3c1.73.4 3.48 1.35 3.48 3.27 0 2.34-2.32 3.41-4.48 3.41-2.7 0-4.37-1.36-4.52-3.97h2c.14 1.61.8 2.43 2.51 2.43 1.19 0 2.49-.55 2.49-1.89 0-1.15-1.15-1.53-2.1-1.77l-1.43-.38C25.88 28 24 27.1 24 25.34c0-2.2 2.56-3.34 4.61-3.34 2.34 0 4.17 1.28 4.22 3.62h-1.76Z" fill="#006733"/></svg>