<!-- by TradingView --><svg width="56" height="56" viewBox="0 0 56 56" xmlns="http://www.w3.org/2000/svg"><path fill="#F0F3FA" d="M0 0h56v56H0z"/><path d="M16 43h-3V24.5c2.5.17 7.8 1.4 9 5 1.2 3.6-3.5 10.5-6 13.5Z" fill="#BE9E63"/><path d="M13 24V13h15c.4 8.8-9.83 11-15 11Z" fill="#0799CC"/><path d="M43 13H29c-.4 7.2 7 11 11 11h3V13Z" fill="#FAD900"/><path d="M43 43V25c-1.83-.17-5.8.3-7 3.5-1.2 3.2 2.83 11 5 14.5h2Z" fill="#E5772A"/><path d="M40.5 43h-24c2.5-3 8.7-9 13.5-9 4.8 0 9 6 10.5 9Z" fill="#201615"/></svg>