<!-- by TradingView --><svg width="56" height="56" viewBox="0 0 56 56" xmlns="http://www.w3.org/2000/svg"><path fill="#F0F3FA" d="M0 0h56v56H0z"/><path d="M28 12.3c-1.08 0-2.16.1-3.22.32 1.98.05 3.94.44 5.78 1.17 7.57 3 11.35 10.87 8.98 18.06 1.22-10.72-8.16-11.09-11.2-15.31 1.31 4.88 4.83 5.92 6.77 8.49 1.14 1.53 1.72 4.54.89 7.39a8.6 8.6 0 0 1-1.79 3.26 5.62 5.62 0 0 1-4.24 1.86c-3.24.02-5.54-2.22-5.54-5.22a5.23 5.23 0 0 1 2.94-4.6 5.35 5.35 0 0 1 6.13.98l.14.13c.01.02.11-2.02-1.45-2.63 0 0 1.58-1.76-1.81-2.63-2.76-.72-8.3-.42-7.64-4.23-.45 1.06-1.93 3.33 1.23 5.27 0 0-.18.06-.48.2a8.57 8.57 0 0 0-4.67 4.9 8.42 8.42 0 0 0 .41 6.73 9.82 9.82 0 0 1-4.02-7.38 9.71 9.71 0 0 1 3.23-7.76c.37-.34 1.42-1.3 1.88-1.68 1.04-.86 2.26-2.34 2.24-5.37V12c-.38.63-.82 1.23-1.3 1.79-.65.7-1.36 1.33-2.13 1.9-2.04 1.43-3.93 2.91-5.2 5.06a14.71 14.71 0 0 0-1.93 7.4c0 3.13.94 6.2 2.7 8.8a16.14 16.14 0 0 0 24.62 2.4 15.8 15.8 0 0 0 3.46-17.27 15.89 15.89 0 0 0-5.9-7.11A16.1 16.1 0 0 0 28 12.29Z" fill="#E60012"/></svg>