<!-- by TradingView --><svg xmlns="http://www.w3.org/2000/svg" width="56" height="56"><path fill="#F0F3FA" d="M0 0h56v56H0z"/><path d="M28.17 12C35.9 12 42 18.3 42 26.1c0 5.8-3.46 10.34-8.45 12.5l-2.14-5.47A8.27 8.27 0 0036 25.78 7.84 7.84 0 0028.17 18a8.4 8.4 0 00-4.06 1.09l6.98 18.28c-1.78-4.81-1.86-4.84 0 0 0 0-3.27-2.75-7.77-2.66-2.15-5.6-4.3-11.24-6.45-16.9A13.8 13.8 0 0128.17 12z" fill="#D7000F"/><path d="M15.8 36.86s1.21-.15 2.88-.32A13.86 13.86 0 0114 26.14c0-1.96.4-3.82 1.12-5.51l5.96 15.82c1.5-.05 3.04-.02 4.22.15 3.27.57 7.34 3.55 9.06 4.47 1.75.86 4.5 1.58 7.54 1.6 3.07.1 4.1-.25 4.1-.25s-4.16 1.83-8.77 1.55c-4.6-.23-9.44-2.93-13.85-2.81-4.42.14-4.68 1.75-4.68 1.75l-2.9-6.05z" fill="#181878"/></svg>