<!-- by TradingView --><svg width="56" height="56" viewBox="0 0 56 56" xmlns="http://www.w3.org/2000/svg"><path fill="#F0F3FA" d="M0 0h56v56H0z"/><path d="M28 16c6.01-.1 19 3.07 19 11.78C47 38.75 32 40 28 40c-4 0-19-1.29-19-12.22C9 19.7 21.45 15.9 28 16Zm0 2.59c-6.76.06-14.81 3.21-14.81 9.03 0 5.8 6.6 9.86 14.81 9.88 5.42.02 8.05-2.14 7.73-5.04-.32-2.9-4.98-3-14.64-3-.96-1.61-1.8-3.77-2.09-4.46h23c-1.73-3.36-7.1-6.47-14-6.41Z" fill="url(#ardd2000r)"/><path d="M20.5 26.94h12.68c2.47.1 6.43 1.1 6.43 4.46 0 4.2-4.53 6.21-8.4 6.54-3.86.32-9.03-.24-13.2-2.26-4.82-2.34-5.56-5.97-5.56-7.9 0-1.96.17-6.86 8.79-9.2 3.3-.9 5.6-.9 6.76-.9 5.45 0 11.43 1.68 14.5 6.46L46 25h-4c-2.2-4.2-8.28-6.47-14-6.47-5.72 0-14.68 2.79-14.68 9.25 0 6.73 12.09 9.25 14.68 9.25 2.6 0 7.77-.84 7.77-4.2 0-3.23-6.19-3.37-14.68-3.37l-.59-2.52Z" fill="url(#brdd2000r)"/><path d="m20 26-1-1h27l-2 1H20Z" fill="url(#crdd2000r)"/><path d="m20.5 27-.5-1h24c.32 1.07.16 4.32-2.16 7.42-2.31 3.1-8.05 4.3-10.62 4.52 2.68-.33 8.05-1.94 8.05-5.8 0-3.88-3.87-5.17-6.76-5.17L20.5 27Z" fill="url(#drdd2000r)"/><defs><linearGradient id="ardd2000r" x1="28" y1="16" x2="28" y2="39.55" gradientUnits="userSpaceOnUse"><stop offset=".01" stop-color="#D0D0D0"/><stop offset=".1" stop-color="#F5F1F1" stop-opacity=".99"/><stop offset=".22" stop-color="#E4E2E2" stop-opacity=".97"/><stop offset=".35" stop-color="#B7B7B7"/><stop offset=".59" stop-color="#898989"/><stop offset=".77" stop-color="#8B8B8B"/><stop offset="1" stop-opacity=".81"/></linearGradient><linearGradient id="brdd2000r" x1="33.79" y1="16.65" x2="25.72" y2="38.57" gradientUnits="userSpaceOnUse"><stop offset=".04"/><stop offset=".17" stop-color="#232323" stop-opacity=".65"/><stop offset=".52" stop-color="#181818"/><stop offset=".61" stop-color="#424242" stop-opacity=".62"/><stop offset=".68" stop-color="#ACACAC"/><stop offset=".81" stop-color="#E6E6E6"/><stop offset="1" stop-color="#FCFCFC"/></linearGradient><linearGradient id="crdd2000r" x1="20.59" y1="25.36" x2="41.84" y2="25.36" gradientUnits="userSpaceOnUse"><stop stop-color="#C6C6C6"/><stop offset=".25" stop-color="#DADADA"/><stop offset="1" stop-color="#9D9D9D"/></linearGradient><linearGradient id="drdd2000r" x1="31.54" y1="25.04" x2="31.62" y2="37.94" gradientUnits="userSpaceOnUse"><stop offset=".01" stop-color="#FDFDFD"/><stop offset=".71" stop-color="#716E6E"/><stop offset=".99" stop-color="#979797"/></linearGradient></defs></svg>