<!-- by TradingView --><svg width="56" height="56" viewBox="0 0 56 56" xmlns="http://www.w3.org/2000/svg"><path fill="#F0F3FA" d="M0 0h56v56H0z"/><path d="M14 16.6a2.6 2.6 0 0 1 2.6-2.6h22.8a2.6 2.6 0 0 1 2.6 2.6v22.8a2.6 2.6 0 0 1-2.6 2.6H16.6a2.6 2.6 0 0 1-2.6-2.6V16.6Z" fill="url(#a)"/><path fill-rule="evenodd" d="M23.45 17.73c0 .3-.2.56-.46.67a5.3 5.3 0 0 0 5.46 4.26A5.4 5.4 0 0 0 34 18.4a.73.73 0 0 1 .28-1.4c.4 0 .72.33.72.73 0 .38-.3.7-.67.72A5.74 5.74 0 0 1 28.46 23a5.64 5.64 0 0 1-5.8-4.55.73.73 0 0 1 .06-1.45c.4 0 .73.33.73.73Zm12.94 6.37a.36.36 0 0 0-.27-.1l-5.25.02a.37.37 0 0 0-.37.36v.05c0 .9.29 1.67.85 2.3a2.6 2.6 0 0 0 2.02.95h.28a2.6 2.6 0 0 0 2.02-.97c.56-.63.83-1.4.83-2.3v-.05c0-.1-.04-.18-.11-.26Zm-.94.9-3.9.01v.02c0 .4.2.75.58 1.04.38.29.84.43 1.38.43.54 0 1-.15 1.38-.44.37-.29.56-.63.56-1.04v-.01Zm-16.04-.43c0-.38-.14-.57-.41-.57-.27 0-.4.2-.4.57l-.01.51v.85c0 .05-.03.08-.07.08L17.43 26c-.25 0-.4.17-.43.47v.05c.04.26.17.48.4.47h1.11c.06 0 .09.04.09.1v4.34c0 .38.14.57.4.57.27 0 .4-.19.4-.57.02-.91.02-2.11 0-4.34 0-.06.03-.1.1-.1h1.1c.23 0 .36-.21.4-.47v-.05c-.04-.3-.18-.47-.43-.47h-1.09c-.04 0-.07-.02-.07-.07v-1.35Zm5.99-.07c0-.33-.14-.5-.4-.5s-.47.17-.47.5v1.32c0 .09-.02.18-.09.18h-1.09c-.14 0-.24.03-.3.2-.1.3-.06.51.1.67.07.08.2.12.4.13a148.7 148.7 0 0 0 2.9 0c.2 0 .33-.05.4-.13.16-.16.2-.38.1-.67-.06-.17-.16-.25-.3-.25h-1.16c-.06 0-.1-.04-.1-.13V24.5Zm1.04 3.55c-.35-.38-.85-.56-1.49-.55-.64 0-1.13.2-1.47.6-.33.36-.49.86-.48 1.49l.03 1.99c.01.24.16.38.44.42h.02c.3-.03.45-.18.45-.44l-.02-2.19c0-.3.1-.54.28-.74.2-.2.45-.3.77-.3.31 0 .57.1.77.28.2.2.3.43.3.73l.05 2.19c0 .26.16.4.47.43h.01c.28-.05.43-.2.43-.44 0-.22 0-.88-.03-1.99a2.16 2.16 0 0 0-.53-1.48Zm-8.97-.45h-.04c-.24 0-.43.2-.43.44l.01 1.52c0 .24.2.43.43.43h.04c.24 0 .43-.2.43-.44l-.01-1.52c0-.24-.2-.43-.43-.43Zm3.43 0h.04c.23 0 .42.19.42.43l.01 1.53c0 .24-.19.43-.43.43h-.04a.43.43 0 0 1-.42-.43v-1.53c-.01-.24.18-.43.42-.43Zm11.99.5a.36.36 0 0 0-.26-.1h-4.26c-.1 0-.19.04-.26.1a.34.34 0 0 0-.11.26v.48c0 .73.23 1.36.68 1.88.46.52 1.01.78 1.66.78h.32c.64 0 1.2-.26 1.65-.78.46-.52.69-1.15.69-1.88v-.48c0-.1-.04-.18-.11-.25Zm-.8.94c0-.03-.02-.04-.04-.04h-3.1c-.04 0-.05.01-.05.04v.06c0 .48.16.88.47 1.21.3.34.68.5 1.12.5h.01c.44 0 .81-.16 1.12-.5.31-.33.47-.73.47-1.2v-.07Zm6.55-1.02c.1 0 .19.03.26.1s.1.15.1.24v.52a2.7 2.7 0 0 1-.7 1.86c-.45.5-1 .76-1.65.76h-.32c-.65 0-1.2-.26-1.65-.78a2.7 2.7 0 0 1-.68-1.86v-.51c0-.1.04-.18.1-.25.08-.07.16-.1.26-.1l4.28.02Zm-.62.99c.05 0 .07.02.07.07v.04c0 .47-.16.86-.47 1.2-.3.32-.68.49-1.12.49h-.02c-.43 0-.8-.17-1.12-.5-.3-.33-.46-.73-.46-1.2v-.04c0-.05.03-.07.07-.07h3.05Zm-8.76-11.45v.18h-.38v1.23h-.27v-1.23h-.28v-.18h.28v-.2a.3.3 0 0 1 .07-.2c.05-.05.1-.1.18-.12a.8.8 0 0 1 .49 0l-.08.18h-.06c-.02-.02-.05-.02-.09-.02-.09 0-.15.02-.19.06-.04.03-.05.09-.05.16v.14h.38Zm-1.52 0v1.41h.27v-1.41h-.27Zm0-.28c.04.03.09.04.14.04a.2.2 0 0 0 .13-.04c.04-.03.06-.06.06-.1 0-.04-.02-.08-.06-.1a.2.2 0 0 0-.13-.05c-.05 0-.1.01-.14.04a.13.13 0 0 0-.05.1c0 .05.02.08.05.11Zm-1.74-.2v1.9h1.35v-.21h-1.07v-1.68H26Zm3.86 1.83c.12.06.26.09.43.09.11 0 .22-.01.31-.04a.7.7 0 0 0 .24-.13c.06-.05.1-.12.13-.19l-.25-.06a.33.33 0 0 1-.1.13.43.43 0 0 1-.15.07.69.69 0 0 1-.18.03c-.11 0-.2-.02-.29-.06a.44.44 0 0 1-.25-.41H31v-.1a.77.77 0 0 0-.06-.33.58.58 0 0 0-.18-.21.7.7 0 0 0-.24-.12.98.98 0 0 0-.67.05.68.68 0 0 0-.27.26.74.74 0 0 0-.1.39c0 .14.03.27.1.38.06.1.16.19.28.25Zm-.11-.76c0-.06.02-.13.06-.18.04-.07.1-.13.17-.17a.55.55 0 0 1 .28-.06c.1 0 .18.01.25.05a.4.4 0 0 1 .22.36h-.98Z" fill="#fff"/><defs><linearGradient id="a" x1="28" y1="14" x2="28" y2="42" gradientUnits="userSpaceOnUse"><stop stop-color="#D31F19"/><stop offset="1" stop-color="#DD5C11"/></linearGradient></defs></svg>