<!-- by TradingView --><svg width="56" height="56" viewBox="0 0 56 56" xmlns="http://www.w3.org/2000/svg"><path fill="#305766" d="M0 0h56v56H0z"/><path d="M14 14h28v28H14v-9h-1v10h30V13H13v10h1v-9Z" fill="#FCFFFF"/><path d="M26.5 30.73H29V32h-4v-8h1.5v6.73ZM21.56 32c-.48 0-.92-.1-1.3-.28A2.2 2.2 0 0 1 19 29.67h1.48c.02.32.12.58.3.76a1 1 0 0 0 .75.28c.32 0 .58-.08.76-.25a.92.92 0 0 0 .28-.7.86.86 0 0 0-.2-.57 1.25 1.25 0 0 0-.46-.35 5.98 5.98 0 0 0-.78-.29c-.44-.15-.8-.3-1.1-.43a2.1 2.1 0 0 1-.71-.66c-.2-.3-.3-.7-.3-1.19 0-.46.1-.86.3-1.2.21-.35.5-.61.87-.79.36-.19.79-.28 1.26-.28.71 0 1.29.2 1.73.6.45.38.7.93.74 1.63H22.4a.91.91 0 0 0-.3-.66 1.02 1.02 0 0 0-.75-.27.9.9 0 0 0-.65.23c-.16.16-.24.39-.24.69 0 .2.06.38.18.52.13.14.28.25.45.34.19.08.45.18.78.29.44.15.8.3 1.1.45.28.14.52.37.72.67.2.3.31.69.31 1.17 0 .42-.1.8-.29 1.17-.19.35-.47.64-.84.86-.37.2-.8.31-1.31.31ZM14 32a4.05 4.05 0 0 1-3.46-1.94A4.02 4.02 0 0 1 10 28 3.94 3.94 0 0 1 14 24a4 4 0 0 1 2.02.51A3.94 3.94 0 0 1 18 28c0 .77-.18 1.46-.54 2.07-.35.6-.83 1.08-1.44 1.43-.61.34-1.28.51-2.01.51Zm0-1.4c.48 0 .89-.1 1.25-.31.36-.22.64-.52.84-.92a3 3 0 0 0 .3-1.38c0-.52-.1-.97-.3-1.36-.2-.4-.48-.7-.84-.9-.36-.22-.77-.32-1.24-.32s-.9.1-1.26.31-.64.51-.84.9c-.2.4-.3.85-.3 1.37 0 .53.1.99.3 1.38.2.4.48.7.84.92.37.2.79.31 1.26.31Z" fill="#FCFFFF"/></svg>