<!-- by TradingView --><svg width="56" height="56" viewBox="0 0 56 56" xmlns="http://www.w3.org/2000/svg"><path fill="#F0F3FA" d="M0 0h56v56H0z"/><path fill-rule="evenodd" d="M12 18h4v20h-4V18Zm23 0h-2v20h4v-6h2.88A7.06 7.06 0 0 0 47 25c0-3.87-3.19-7-7.12-7H35Zm2 3v8h1.97A3.96 3.96 0 0 0 43 25c0-2.24-1.75-4-4.03-4H37Zm-6.61-1.78-1.5 3.13c-.34-.3-1.58-.91-3.8-.91-2.77 0-3.07 1.3-3.07 2.04s1.22 1.68 3.27 2.45c2.05.76 5.71 2.55 5.71 6.13S27.78 38 23.63 38c-3.33 0-5.14-.95-5.63-1.42l1.2-3.7c.37.5 1.79 1.51 4.43 1.51 3.3 0 3.82-1.65 3.82-2.33 0-.68-.94-1.53-3.27-2.58l-.4-.19c-2.33-1.03-5.53-2.46-5.53-5.8 0-3.56 3.55-5.49 6.85-5.49 2.63 0 4.63.81 5.29 1.22Z" fill="#1E73BE"/></svg>