<!-- by TradingView --><svg xmlns="http://www.w3.org/2000/svg" width="56" height="56"><path fill="#ED1B24" d="M0 0h56v56H0z"/><path d="M40.29 18H15.71C10.35 18 6 22.48 6 28s4.35 10 9.71 10H16v-2h-.43C11.42 36 8 32.3 8 28.03 8 23.75 11.42 20 15.57 20H40.3c4.15 0 7.71 3.75 7.71 8.03C48 32.3 44.44 36 40.29 36H40v2h.29C45.65 38 50 33.52 50 28s-4.35-10-9.71-10zM26.43 30.82s.1.84-.23 1.62c-.38.92-1.27 1.8-2.51 1.8-1.3 0-1.84-1.75-.67-2.17a4.3 4.3 0 011.39-.26c.28-.02.52-.03.8-.15a5.12 5.12 0 001.22-.84zM47 28.14C47 32.1 44.1 35 42 35c-1.76 0-2.66-1.55-3.01-2.17l-.1-.17c-.27-.42-.31.14-.31.52 0 .37-.09.7-.53.7-.45 0-.45-.38-.45-1.08 0-.7-.45-.08-.88.52-.9 1.21-1.56 1.54-2.58 1.54s-1.33-.56-1.33-1.45c0-.89.84-1.03 2.26-1.22 1.42-.18 1.96-.65 1.96-1.03 0-.24-.5-.16-1.03-.08a5.3 5.3 0 01-.75.08c-.58 0-1.24-.18-1.06-.74.15-.49.37-.44.85-.34.29.07.67.15 1.19.15 1.37 0 1.29-.38.97-.52-.98-.43-.98-1.06-.97-2.05v-.24c0-1.12.57-1.73 2.04-1.73 1.46 0 1.82.8 1.82 2.25 0 1.37-.48 1.6-.83 1.79l-.06.03c-.36.19-.27.52.13.52.16 0 .4-.03.67-.05.42-.04.93-.1 1.46-.1.89 0 .93.24.93.52s-.26.56-.66.56c-.17 0-.36-.02-.6-.05-.32-.04-.7-.09-1.18-.09h-.34c-.24 0-.32 0-.33.02l.02.06.03.06c.4.94 1.4 1.4 2.53 1.4 2.66 0 4.14-2.2 4.14-4.7 0-2.52-1.74-4.91-4.12-4.91H14.12c-2.39 0-4.21 2.39-4.12 4.9.07 2 1 4.1 3.38 4.1 1.68 0 2.88-1.12 2.88-3.13 0-.47-.44-.51-1.15-.51-.37 0-.74.07-1.08.15-.3.06-.6.13-.87.13-.58 0-.8-.19-.8-.7 0-.85 1.02-.75 1.77-.57l.18.05c.68.17 1.3.33 1.9-.19.39-.32.16-1.17.02-1.73-.06-.2-.1-.38-.1-.46 0-.33.13-.94.7-.94.63 0 .76.65.63 1.03-.13.37-.31 1.78-.13 2.01.17.23.44.47 2.08.28l.38-.06c.63-.11 1.44-.26 1.44.44 0 .84-.53.88-1.1.8-.85-.14-2.85-.42-3.02.22-.18.66.17 1.13.53 1.6a4.8 4.8 0 002.35 1.68c.23.1.43.15.6.2.6.18.9.27.9 1.2 0 1.22-.7 1.45-1.37 1.45-.66 0-2.35-.46-3.2-3.83 0 0-.92 3.55-3.14 3.55-2.26 0-4.78-3.18-4.78-6.53C9 24.2 12.03 21 15.77 21h24.46c3.74 0 6.77 3.2 6.77 7.14zm-8.11-1.05c.27-.42-.22-.88-.84-.88-1.02 0-.8.8-.63.98.18.18 1.2.33 1.47-.1zm-.76.99c-.88 0-1.06.51-.66.84.4.33 1.42.33 1.55-.05.14-.37-.13-.8-.89-.8zm-10.8-3.63c-.9 0-.37 1.39.04 1.39.4 0 .94-1.39-.05-1.39zm.91 1.8c.8-.06 1.98-.16 2.67.05.5.15.72.78.31 1.34-.4.55-1.12-.23-1.3-.6-.11-.24-.82-.19-1.53-.14-.38.03-.77.06-1.07.05-.58-.04-1.15-.02-1.65-.01h-.63c-.47 0-.65.31-.82.59-.14.22-.27.43-.53.43-.18 0-.67 0-.67-.83 0-.37.45-.74.85-.92.22-.1.72-.07 1.46-.01.6.04 1.37.1 2.26.1l.65-.04zm5.68.6c.8.65 1.75 0 1.75 0s-.59-1.15-1.26-1.15-.98.77-.5 1.15zm1.83 1.11s-.49 1.53-1.39 1.53c-.9 0-1.07-1.39-.35-1.53.34-.07.7-.01 1 .03.31.05.58.09.74-.03zm6.96-1.57c0-.7-.59-.65-1.03-.6-.45.05-.86 1.06-.86 1.06.2-.02.41.06.63.14.19.07.37.14.54.14.36 0 .72-.05.72-.74zm-.23 1.8c.24.18.4 1.39-.54 1.39-1.2 0-1.25-1.57-1.25-1.57.4.16.73.11 1.01.07.29-.04.54-.07.78.11zm-4.12-3.32c.27-.46.18-1.2-.5-1.2-.8 0-.67.83-.36 1.34.32.5.59.32.86-.14zM27.64 27.4c.67-.1 1.52-.19 1.52.46 0 .97-1.43.88-1.43.88.42-1.09-.8-.57-1.46-.3l-.25.11c-.5.19-.94 0-.94-.6 0-.18.27-.64.67-.64.23 0 .46.02.7.05.38.05.78.1 1.19.04zm-.49 2.21c.02.87.03 1.74-.5 2.45-.59.78.05 1.39.4 1.39.36 0 1.13-.33 1.13-1.9.25 1.01 1.4 2.08 2.15 2.45 1.03.5 1.61-.32 1.75-.74.13-.41-.1-1.2-1.35-1.2s-2.42-1.57-2.42-1.57c-.1.16-.16.33-.18.5a3.18 3.18 0 00-.99-1.84l.01.46zm-3.82.74c0-.46.54-.81 1.08-.74.98.14 1.7-.32 1.7-.32s-.5 1.99-1.7 1.99c-.72 0-1.08-.46-1.08-.93zm6.01-.87c-.5 0-1.2-.24-1.2-.24S28.76 31 29.79 31c1.03 0 1.21-.46 1.08-1.1-.11-.53-.71-.48-1.2-.44l-.33.02zm-11.02 7.16c-.05-.22-.19-.38-.45-.38-.38 0-.54.36-.54.73s.16.73.54.73c.28 0 .43-.22.46-.5h.3c-.02.45-.32.77-.76.77-.54 0-.86-.45-.86-1s.32-1 .86-1c.4 0 .73.24.76.65h-.31zM19.9 36h-.34l-.68 2h.32l.17-.53h.71l.17.53h.34l-.7-2zm.1 1.2h-.55l.28-.86.27.86zm.92-1.2h1.24v.3h-.92v.53h.8v.28h-.8V38h-.32v-2zm2.95 0h-1.3v2h1.31v-.3h-.99v-.59h.9v-.28h-.9v-.53h.98V36zm1.31 0h.75c.55 0 .79.45.79 1s-.24 1-.8 1h-.74v-2zm.32 1.71h.3c.5 0 .6-.31.6-.71 0-.4-.1-.71-.6-.71h-.3v1.42zM28.45 36h-1.29v2h1.3v-.3h-.99v-.59h.9v-.28h-.9v-.53h.98V36zm2.53.65c-.05-.22-.19-.38-.45-.38-.38 0-.54.36-.54.73s.16.73.54.73c.28 0 .43-.22.46-.5h.3c-.02.45-.33.77-.76.77-.54 0-.86-.45-.86-1s.32-1 .86-1c.4 0 .72.24.76.65h-.31zM32.5 38c.53 0 .86-.45.86-1s-.33-1-.86-1c-.54 0-.86.45-.86 1s.32 1 .86 1zm0-.27c-.39 0-.55-.36-.55-.73s.16-.73.55-.73c.38 0 .54.36.54.73s-.16.73-.54.73zM33.8 36h.86c.4 0 .6.2.6.54 0 .38-.24.48-.3.5v.01c.1.02.26.1.26.42 0 .24.04.45.1.53H35c-.05-.09-.05-.2-.05-.3 0-.36-.07-.52-.36-.52h-.46V38h-.31v-2zm.32.91h.52c.2 0 .3-.1.3-.32 0-.25-.15-.3-.31-.3h-.51v.62zm2.43-.91h-.33l-.7 2h.33l.17-.53h.72l.17.53h.33l-.69-2zm.1 1.2h-.54l.27-.86.27.86zm.93-1.2h.31v1.7h.91v.3h-1.23v-2zm-14.26-.26l.36-.37h-.34l-.22.37h.2z" fill="#fff"/></svg>