<!-- by TradingView --><svg width="56" height="56" viewBox="0 0 56 56" xmlns="http://www.w3.org/2000/svg"><path fill="#F0F3FA" d="M0 0h56v56H0z"/><path fill-rule="evenodd" d="M40.02 40.02a17 17 0 1 0-24.04-24.04 17 17 0 0 0 24.04 24.04Zm3.18-5.73A16.44 16.44 0 1 0 12.8 21.7 16.44 16.44 0 0 0 43.2 34.3Z" fill="#024090"/><path d="M28.89 12.28h-1.02a.09.09 0 0 0-.09.09v.14c0 .05.04.09.1.09h1.01c.05 0 .09-.04.09-.1v-.13a.09.09 0 0 0-.09-.1Z" fill="#024090"/><path fill-rule="evenodd" d="M27.19 14.27v-.2c0-.05.02-.08.08-.09.33-.01.46-.2.38-.55a7.67 7.67 0 0 0-.08-.3.53.53 0 0 1 .02-.32c.06-.16.08-.33.08-.52 0-.05-.02-.07-.07-.07h-.66c-.05 0-.08.03-.08.08v1.97c0 .07.04.1.1.1h.13a.1.1 0 0 0 .1-.1Zm.16-.68a.47.47 0 0 0-.1-.4.17.17 0 0 1-.02-.15l.1-.45c.01-.03 0-.04-.02-.04h-.08c-.03 0-.05.01-.05.04v1a.06.06 0 0 0 .01.04l.04.02h.04a.1.1 0 0 0 .05-.01.09.09 0 0 0 .03-.05Z" fill="#024090"/><path d="M28.55 13.26v.9a.18.18 0 0 1-.09.15c-.09.05-.22.07-.4.06-.06-.01-.09-.05-.1-.1 0-.12.06-.2.18-.24a.1.1 0 0 0 .07-.1v-.67c0-.06-.03-.1-.09-.1h-.33c-.07 0-.11-.03-.11-.1v-.08c0-.08.04-.12.12-.12H29c.06 0 .1.03.1.1v.1c0 .08-.04.1-.1.1h-.36c-.06 0-.1.04-.1.1Z" fill="#024090"/><path d="m28.03 13.36-.04-.02a.13.13 0 0 0-.18.08l-.22.56c-.03.06 0 .14.07.17l.05.02c.07.02.14-.01.17-.08l.22-.56a.13.13 0 0 0-.07-.17ZM28.76 13.34l-.07.02a.12.12 0 0 0-.07.15l.18.54c.02.06.09.1.15.07l.07-.02c.06-.02.1-.1.08-.15l-.19-.54a.12.12 0 0 0-.15-.07ZM21.7 14.23c-.04.1-.17.2-.4.35a.11.11 0 0 0-.06.12c.01.07.07.1.17.1a.12.12 0 0 0 .09-.05l.25-.37a.15.15 0 0 1 .13-.07c.1 0 .17.02.2.05a.1.1 0 0 1 0 .13c-.13.15-.16.24-.1.29.18.12.36.18.53.2.06 0 .09.04.07.1l-.04.17c-.01.06-.05.1-.11.08a1.4 1.4 0 0 1-.68-.34h-.06l-.03.04c.14.14.24.3.28.49 0 .05 0 .1-.03.14a.8.8 0 0 1-.38.3h-.05a.08.08 0 0 1-.05-.04l-.03-.06c-.02-.04-.02-.08.02-.12a.58.58 0 0 0 .15-.22c.01-.03 0-.05-.02-.07h-.05l-.02.01-.6.74a.1.1 0 0 1-.1.03l-.08-.02a.1.1 0 0 1-.08-.13l.02-.05.67-.78V15.19l-.01-.01h-.03l-.55.63a.14.14 0 0 1-.18.03l-.07-.05a.07.07 0 0 1-.03-.08l.02-.03.6-.63c.02-.02.02-.04 0-.06-.02 0-.03 0-.05.02l-.47.44a.12.12 0 0 1-.08.04.11.11 0 0 1-.08-.04l-.06-.06c-.06-.05-.05-.1 0-.14l.46-.34c.06-.05.05-.07-.02-.09-.05 0-.09 0-.12.04-.1.1-.17.08-.2-.04a.12.12 0 0 1 .06-.15l1.13-.58c.01 0 .02-.01.01-.03l-.02-.04c-.02-.02-.04-.02-.06-.01l-1.14.58c-.09.04-.11.1-.07.16.07.1.03.18-.12.25-.08.04-.14.02-.18-.05l-.15-.27c-.04-.06-.03-.1.03-.13l.6-.35a.17.17 0 0 0 .08-.1c.04-.1.1-.19.18-.25.06-.04.12-.03.17.02l.05.05c.03.03.07.03.1.01l.54-.3a.13.13 0 0 1 .1-.02.13.13 0 0 1 .08.06l.16.28c.04.06.03.12-.02.16a.22.22 0 0 1-.17.05c-.05 0-.09.02-.1.07Z" fill="#024090"/><path fill-rule="evenodd" d="M25.75 14.35v-.03l-.44-1.82a.07.07 0 0 0-.07-.05h-.01l-1.94.46a.07.07 0 0 0-.02.02.07.07 0 0 0-.03.07l.44 1.82a.07.07 0 0 0 .08.05l1.94-.47a.07.07 0 0 0 .05-.04v-.01Zm-.56-.17h-.03L24 14.4c-.03 0-.03.02-.02.05l.03.06c.01.01.02.02.04.01l1.23-.29c.02 0 .03-.01.04-.03.01 0 .02-.03.01-.04l-.29-1.24a.05.05 0 0 0-.02-.03.05.05 0 0 0-.04-.01l-1.2.2a.1.1 0 0 0-.08.05c-.03.05-.04.09-.04.12 0 .01.02.02.05 0l1.13-.3c.1-.02.16.02.17.12l.02.07a.09.09 0 0 1 0 .03.09.09 0 0 1-.02.03.08.08 0 0 1-.05.03c-.17.02-.28.05-.34.1s-.05.08.02.1h.19c.18-.14.25-.1.22.14-.02.08.05.23.2.44a.12.12 0 0 1-.05.18Zm-1.14-.31.21-.05a.07.07 0 0 1 .08.03v.03l.02.06a.1.1 0 0 1-.01.07.1.1 0 0 1-.06.05.71.71 0 0 0-.3.12c-.05.05-.1.03-.1-.04l-.17-.67c-.02-.07 0-.09.07-.05.1.06.22.05.37-.02.03-.02.05 0 .06.02l.02.05-.01.03-.23.1a.16.16 0 0 0-.09.1c-.01.05 0 .1.02.13a.1.1 0 0 0 .12.04Zm.77-.03a.18.18 0 0 0-.1-.1c-.05-.02-.07 0-.05.06.02.07.04.11.06.13h.04a.06.06 0 0 0 .05-.03v-.06ZM31.97 12.9l.04.1c.03.08 0 .1-.06.08l-.34-.07c-.06-.02-.08-.05-.05-.1l.11-.24c.03-.05.02-.08-.04-.1l-.21-.05c-.08-.01-.12.01-.14.09a.43.43 0 0 1-.13.23c-.04.04-.1.05-.2.03-.05-.01-.06-.05-.03-.1l.05-.06a.13.13 0 0 0 0-.17c-.11-.16-.28-.09-.5.2a.22.22 0 0 0 .03.3c.03.03.06.05.1.05l.3.07a.06.06 0 0 1 .03.1 3 3 0 0 1-.82.71.15.15 0 0 0-.02.12c0 .03 0 .04.02.06l.06.08c.06.07.12.08.19.03l.5-.37c.04-.03.07-.03.09.01l.12.22a.05.05 0 0 1-.01.07l-.03.01-.45.05c-.1.01-.14.07-.13.17v.05c.02.08.06.12.14.1l.73-.07c.03 0 .07 0 .1.03l.56.38c.06.04.1.03.15-.02l.14-.14a.08.08 0 0 0 .01-.1.08.08 0 0 0-.03-.03l-.4-.2c-.08-.04-.09-.09 0-.13.26-.15.43-.3.49-.47a.12.12 0 0 0-.04-.14.12.12 0 0 0-.05-.03l-.93-.21c-.02 0-.03-.03-.03-.05l.01-.05a.07.07 0 0 1 .08-.05l1.1.25c.08.02.13-.01.15-.1l.02-.09c.02-.06 0-.1-.07-.12l-.17-.03c-.06-.02-.08-.05-.05-.11.06-.13.01-.25-.15-.35-.1-.05-.16-.04-.22.03a.13.13 0 0 0-.02.13Zm-.24.94a2.64 2.64 0 0 0-.4-.1c-.05 0-.07.03-.05.08.06.16.12.24.19.26.07.02.16-.04.28-.15.04-.04.04-.07-.02-.09Z" fill="#024090"/><path d="M41.16 28a13.15 13.15 0 1 1-26.31 0 13.15 13.15 0 0 1 26.3 0ZM33.98 15.02l-.01-.02-.05-.03-.04.01c-.1.18-.24.34-.41.46-.07.05-.12.04-.16-.03l-.08-.13a.15.15 0 0 1 .05-.2c.15-.1.27-.22.35-.35a10.5 10.5 0 0 0 .66-1.22.05.05 0 0 1 .04 0l1.64.82c.06.03.07.07.04.13l-.22.43a.09.09 0 0 1-.08.05l-.03-.01a.62.62 0 0 0-.22-.08c-.05 0-.07.01-.07.05a.05.05 0 0 0 .02.04l.23.16.04.05v.06l-.04.07c-.02.03-.05.04-.08.03l-.2-.1c-.05-.03-.08-.02-.12.01 0 .01-.01.04 0 .07 0 .01 0 .02.02.03l.25.13a.11.11 0 0 1 0 .2l-.41.17c-.06.02-.06.04-.01.08l.17.11c.07.05.07.1 0 .14l-.09.05a.15.15 0 0 1-.18 0 1.3 1.3 0 0 1-.55-.98.07.07 0 0 0-.05-.06h-.02a.07.07 0 0 0-.04 0h-.01a.42.42 0 0 0-.14.24c-.02.08.01.11.1.1h.04a.13.13 0 0 1 .1.1c.02.07.01.13-.03.16-.03.03-.07.04-.13.03a4.57 4.57 0 0 1-.5-.13c-.06-.02-.08-.05-.05-.1l.27-.54Zm1.59-.58-1.06-.52a.06.06 0 0 0-.06.12l1.06.52c.03.02.07 0 .08-.03a.06.06 0 0 0-.02-.09Zm-1.04 0c-.02.05-.1.04-.17 0s-.1-.1-.09-.14c.03-.04.1-.04.17 0 .08.04.12.1.1.15Zm.56.31c-.15.01-.22-.03-.23-.11-.01-.07.02-.1.09-.07.08.02.14.07.18.12.02.04 0 .06-.04.06Zm-.98-.04a.53.53 0 0 0 .19.12.04.04 0 0 0 .03-.02l.01-.02c.01-.04-.01-.09-.07-.13-.04-.04-.09-.05-.13-.04a.06.06 0 0 0-.04.07v.02Zm.57.29-.01-.03a.05.05 0 0 1 .02-.05h.03c.12 0 .2.03.22.1.01.06-.01.09-.07.08-.09 0-.15-.04-.2-.1Zm.28.44a.35.35 0 0 0-.15-.07.06.06 0 0 0-.07.04.06.06 0 0 0 .02.08c.1.06.16.08.2.04a.06.06 0 0 0 .02-.05.06.06 0 0 0-.02-.04Z" fill="#024090"/><path d="M28.35 17a1.06 1.06 0 0 0-1.11.19c-.88.75.05 2.17.6 2.94a.15.15 0 0 1 0 .2l-1.5 1.53a.09.09 0 0 1-.07.02.1.1 0 0 1-.06-.04 8.18 8.18 0 0 1-.79-1.46c-.56-1.37-.3-2.8.91-3.66a2.83 2.83 0 0 1 3.4.1c.88.67 1.21 1.63 1.02 2.89-.06.35-.28.88-.67 1.58a14.9 14.9 0 0 1-2.44 3.13.1.1 0 0 1-.13 0l-1.62-1.57a.08.08 0 0 1-.01-.09l.01-.02a14.82 14.82 0 0 0 2.77-3.47c.1-.17.2-.41.3-.72.23-.65.06-1.32-.61-1.56Z" fill="#FEFEFE"/><path fill-rule="evenodd" d="M37.94 17c.05.05.12.07.2.06.04 0 .08.02.1.07l.07.15c.02.06.06.07.11.05l.18-.08c.05-.02.07-.06.04-.11l-.3-.71a.18.18 0 0 1 0-.18c.1-.15.07-.27-.07-.37-.06-.04-.17-.05-.33-.03-.34.04-.66.01-.96-.08-.08-.03-.13 0-.13.08l-.02.15c0 .03.01.07.03.1.03.02.06.04.1.04.14.02.2.12.27.22l.11.14.6.5Zm.12-.67c0-.05-.01-.09-.04-.11-.02-.02-.06-.03-.12-.02l-.07.01-.2.01c-.07 0-.08.03-.03.08a4.84 4.84 0 0 0 .4.35c.06.04.09.03.08-.04l-.02-.2v-.08ZM19.8 16.87c0-.02-.01-.04-.03-.05l-1.2-1.4a.08.08 0 0 0-.12-.02l-1.5 1.3a.08.08 0 0 0 0 .1l1.2 1.4a.08.08 0 0 0 .12.02l1.5-1.3a.08.08 0 0 0 .02-.05Zm-.58.06-.03.04-.95.7c-.02.03-.02.04 0 .06l.06.04h.04l.96-.82a.07.07 0 0 0 .02-.03.06.06 0 0 0 0-.04v-.02l-.83-.97a.05.05 0 0 0-.06 0l-.98.73a.1.1 0 0 0-.04.07l.01.12c.01.01.03 0 .05-.01l.86-.77c.08-.08.15-.07.21.02l.04.05a.08.08 0 0 1 .01.06.08.08 0 0 1-.03.05c-.14.1-.23.17-.26.24-.03.07 0 .1.07.07.1-.03.15-.06.16-.08.1-.2.19-.19.26.03.03.08.15.18.38.3a.12.12 0 0 1 .05.16Zm-1.5 0c.07-.03.15-.1.23-.2.02-.02.04-.02.06 0l.05.04v.04l-.2.2c-.04.04-.04.08 0 .13l.07.06a.1.1 0 0 0 .07.03.1.1 0 0 0 .07-.03l.14-.13c.03-.04.07-.04.11 0l.07.06c.02.03.02.06 0 .09-.11.08-.2.18-.26.3a.05.05 0 0 1-.07.01l-.02-.01-.5-.58c-.07-.08-.06-.1.03-.06a.2.2 0 0 1 .06.04.07.07 0 0 0 .08.02Zm1.05-.04c0-.06-.05-.1-.15-.13-.04 0-.06 0-.06.05 0 .03.03.08.1.13a.07.07 0 0 0 .08 0 .07.07 0 0 0 .03-.05Z" fill="#024090"/><path d="M37.5 18.1c.02 0 .04-.01.05-.03l.54-.62a.07.07 0 0 0-.01-.1l-1.2-1.02a.07.07 0 0 0-.1 0l-.53.64a.07.07 0 0 0 0 .1l1.2 1.01c.02.02.03.02.05.02Zm-.54-1.3.63.54c.04.03.04.09.01.12l-.12.14a.09.09 0 0 1-.12.02l-.63-.54a.09.09 0 0 1-.01-.12l.11-.14a.09.09 0 0 1 .13-.01ZM39.23 18.69l-.1-.03c-.09-.02-.1-.06-.05-.12l.12-.13c.05-.05.1-.08.17-.09a4.91 4.91 0 0 0 .98-.22.14.14 0 0 1 .1.06l.02.06v.09c.02.08-.02.13-.1.15a.96.96 0 0 0-.33.11l-1.23.92c-.06.05-.12.04-.16-.02l-.07-.09c-.04-.06-.04-.12.03-.17l.63-.47c.04-.03.03-.04 0-.05Z" fill="#024090"/><path d="m40.21 19.08-.42.05c-.07 0-.1-.03-.1-.1l.01-.04c.01-.1.07-.16.16-.19l.85-.2c.07-.01.11.01.13.08l.04.18a.07.07 0 0 1-.05.08l-.06.02c-.07.01-.09.05-.04.12l.43.57c.05.07.05.14-.03.2l-.08.06c-.05.03-.1.03-.13-.02l-.33-.44a.1.1 0 0 0-.07-.04.09.09 0 0 0-.07.03l-.04.04c-.04.04-.05.08-.01.13l.28.38c.04.05.03.1-.02.14l-.1.07a.1.1 0 0 1-.13-.01l-.3-.4c-.06-.07-.1-.07-.16 0l-.03.04a.11.11 0 0 0-.02.07l.03.06.23.32c.04.06.05.12.02.18a.13.13 0 0 1-.04.06c-.09.06-.16.05-.23-.04l-.26-.34c-.03-.05-.07-.05-.12-.02l-.2.15a.08.08 0 0 1-.06.02.09.09 0 0 1-.06-.04l-.1-.14c-.04-.05-.04-.1.02-.14l1.09-.82c.08-.06.07-.08-.03-.07Z" fill="#024090"/><path fill-rule="evenodd" d="M16.18 20.8c.02 0 .04-.02.05-.04l1.16-1.59a.08.08 0 0 0-.02-.11l-1.5-1.09a.08.08 0 0 0-.1.02l-1.17 1.6a.08.08 0 0 0 .02.1l1.5 1.1a.08.08 0 0 0 .06 0Zm-.24-2.26a.1.1 0 0 1 .04.03c.1.16.06.31-.13.45a.05.05 0 0 0-.02.05l.01.05.01.02a.03.03 0 0 0 .03.01h.02c.1-.1.18-.19.23-.28a.1.1 0 0 1 .09-.05.1.1 0 0 1 .08.05c.07.15.2.23.39.24.07 0 .08-.01.02-.06l-.67-.52c-.14-.1-.26-.09-.35.06l-.54.78c-.09.13-.07.24.06.32l.68.47c.04.02.06.01.06-.03 0-.11.05-.22.15-.33l.01-.01a.1.1 0 0 0 0-.03.2.2 0 0 0 0-.04.12.12 0 0 0-.04-.06.11.11 0 0 0-.14 0 .34.34 0 0 0-.1.16c-.02.05-.06.07-.11.06a.25.25 0 0 1-.18-.13c-.03-.05-.02-.09.02-.13.1-.07.14-.14.14-.21 0-.06-.03-.07-.07-.03a.84.84 0 0 0-.22.25.1.1 0 0 1-.1.03.1.1 0 0 1-.04-.01l-.06-.05c-.05-.03-.05-.07-.02-.11l.62-.92.02-.01a.1.1 0 0 1 .06-.03.1.1 0 0 1 .05.01Zm1 .68v-.01a.04.04 0 0 0-.06 0l-.76 1.07a.04.04 0 0 0 .01.05l.01.01h.06l.76-1.07a.04.04 0 0 0-.01-.05Zm-.58.09c-.01-.02-.05-.03-.11-.03s-.07.02-.04.07l.05.06c.14.05.17.02.1-.1Z" fill="#024090"/><path d="M20.39 24.18c-.15.41-.09.78.19 1.11.74.88 2.17-.02 2.95-.57a.15.15 0 0 1 .19.01l1.52 1.51a.09.09 0 0 1-.02.14 8.1 8.1 0 0 1-1.47.76c-1.38.55-2.81.28-3.66-.95a2.83 2.83 0 0 1 .14-3.4c.68-.87 1.65-1.2 2.9-.98.36.06.89.29 1.58.69 1.03.59 2.06 1.41 3.1 2.47a.1.1 0 0 1 0 .13l-1.58 1.6a.08.08 0 0 1-.12 0 14.78 14.78 0 0 0-3.43-2.8c-.18-.1-.42-.2-.72-.32-.65-.23-1.33-.07-1.57.6ZM35.42 23.93c-.74-.9-2.18.01-2.96.56a.15.15 0 0 1-.1.03.14.14 0 0 1-.09-.04l-1.52-1.52-.02-.03v-.04a.09.09 0 0 1 .04-.07c.47-.3.96-.56 1.47-.76 1.4-.55 2.82-.27 3.67.96a2.84 2.84 0 0 1-.15 3.42c-.69.86-1.66 1.18-2.92.97-.35-.06-.88-.3-1.57-.7a14.97 14.97 0 0 1-3.1-2.49.1.1 0 0 1 0-.13l1.59-1.6a.08.08 0 0 1 .12 0 14.85 14.85 0 0 0 3.43 2.83c.17.1.41.2.72.32.65.23 1.33.07 1.58-.6.15-.41.09-.78-.19-1.11Z" fill="#FEFEFE"/><path fill-rule="evenodd" d="M41.18 21.93c.01.02.02.02.04 0v-.04l-.19-.5v-.05l.03-.03.06-.02a.1.1 0 0 1 .1.02c.01 0 .02.01.02.03l.3.67c0 .02.01.02.03.03l.05.01a.03.03 0 0 0 .03 0 .02.02 0 0 0 0-.03l-.16-.34c-.11-.24-.05-.3.18-.17.08.04.13.16.14.37v.02h.02l.07.02a.03.03 0 0 0 .04-.01v-.03l-.24-.55a.14.14 0 0 1 .08-.18l.27-.12c.08-.03.13-.01.17.06l.72 1.68c.03.07.01.13-.07.16l-.34.15c-.1.04-.16.01-.18-.1a3.53 3.53 0 0 0-.21-.6.07.07 0 0 0-.03-.02h-.03v.03a1.6 1.6 0 0 0 .23.67.07.07 0 0 1-.03.06l-.03.02c-.12.02-.2.1-.22.25a.08.08 0 0 1-.03.06.08.08 0 0 1-.06.01c-.06-.01-.1-.06-.14-.14-.1-.3-.19-.51-.28-.67-.01-.02-.03-.03-.05-.01l-.03.03c.1.16.18.35.21.56a.1.1 0 0 1-.06.11l-.55.24c-.04.02-.08.01-.1-.03l-.62-1.46c-.03-.05-.01-.08.04-.1l.26-.12c.05-.02.07-.06.05-.1l-.07-.16a.12.12 0 0 1 0-.09.12.12 0 0 1 .02-.03.11.11 0 0 1 .04-.03l.06-.03a.1.1 0 0 1 .13.04l.33.46Zm.87-.38c.04.06.09.1.11.1.03-.02.03-.09 0-.15-.03-.07-.08-.12-.11-.1-.03.01-.03.08 0 .15Zm.2.4-.01.01c-.02.07-.02.12.02.16a.06.06 0 0 0 .1 0l.01-.04c0-.04-.01-.08-.06-.13a.04.04 0 0 0-.04-.02l-.02.01Zm-1.21.24.33.82c0 .02 0 .03-.02.03l-.06.01c-.03 0-.04 0-.05-.03l-.3-.8a.04.04 0 0 1 0-.01.03.03 0 0 1 .02-.03h.08Zm.04.93-.33-.85c0-.02-.02-.03-.04-.01l-.05.04c-.02 0-.02.03-.01.05l.34.8a.04.04 0 0 0 .03.02h.01l.02-.01.03-.04Zm.8-.64a.92.92 0 0 1-.05.08h-.01a.05.05 0 0 1-.04.01h-.02c-.02-.02-.02-.04 0-.07a.42.42 0 0 1 .08-.1c.07-.06.09-.03.03.08Zm.74.13c0-.01 0-.03-.02-.05l-.05-.07c-.04-.05-.07-.04-.12 0v.06c0 .05.04.1.1.12a.07.07 0 0 0 .06 0 .07.07 0 0 0 .02-.03l.01-.03ZM15.38 22.84a.32.32 0 0 1-.08.12.12.12 0 0 1-.15.02l-.4-.2c-.04-.03-.07-.01-.1.03l-.3.6c-.04.09-.1.1-.18.08l-.73-.3c-.14-.05-.17-.14-.1-.27l.24-.49c.02-.05 0-.08-.04-.11l-.21-.1a.1.1 0 0 1-.07-.12.36.36 0 0 1 .07-.17c.03-.05.08-.06.13-.04l.22.06c.06.02.1 0 .1-.05l.16-.52c.05-.14.13-.19.27-.13l.73.28c.08.04.11.1.09.18l-.2.65c-.01.05 0 .08.06.1l.42.12c.06.02.09.06.1.11l-.03.15Zm-.83-1.04-.23-.1a.1.1 0 0 0-.14.06l-.1.26a.1.1 0 0 0 .06.13l.23.09a.1.1 0 0 0 .14-.06l.1-.25a.1.1 0 0 0-.06-.13Zm-.56.69.25.09a.1.1 0 0 1 .05.11l-.1.28a.1.1 0 0 1-.11.05l-.25-.09a.1.1 0 0 1-.06-.11l.1-.28a.1.1 0 0 1 .12-.05Z" fill="#024090"/><path d="M27.66 32.22c.41.15.78.08 1.1-.2.88-.76-.04-2.17-.6-2.95a.15.15 0 0 1 0-.18l1.5-1.54a.09.09 0 0 1 .13 0c.32.48.58.96.79 1.47.56 1.37.31 2.8-.9 3.67-1.05.74-2.4.69-3.42-.1-.86-.66-1.2-1.63-1-2.89.05-.35.27-.88.66-1.58a14.94 14.94 0 0 1 2.43-3.14.1.1 0 0 1 .13 0l1.63 1.57a.08.08 0 0 1 .02.06.08.08 0 0 1-.03.06 14.8 14.8 0 0 0-2.76 3.47c-.1.17-.2.41-.3.72-.23.65-.05 1.33.62 1.56ZM21.1 35.77c.02.44.22.76.62.95.43.22.87.15 1.3-.21a.1.1 0 0 1 .15.01l.29.39a.07.07 0 0 1 0 .09l-.15.13c-.93.52-1.74.47-2.42-.15-.32-.3-.49-.69-.5-1.2-.02-.5.13-.9.44-1.21.65-.66 1.46-.75 2.41-.27a.7.7 0 0 1 .15.12.07.07 0 0 1 0 .1l-.26.39a.1.1 0 0 1-.06.04.1.1 0 0 1-.08-.01c-.46-.34-.9-.4-1.32-.16-.39.22-.57.55-.56.99ZM29.45 35.5c-.12.46.16 1.04.62 1.24.42.19.85.1 1.3-.26l.03.01.3.5a.06.06 0 0 1-.02.08c-.67.52-1.68.54-2.35.01a1.74 1.74 0 0 1-.5-2.02c.47-1.14 1.93-1.37 2.86-.66.07.06.08.13 0 .2l-.28.28c-.05.05-.1.05-.16.01-.14-.1-.25-.16-.32-.18-.8-.18-1.29.08-1.48.8ZM24.66 34h-.6a.07.07 0 0 0-.06.07v3.22c0 .03.03.06.07.06h.59c.03 0 .06-.03.06-.06v-3.22a.07.07 0 0 0-.06-.07Z" fill="#FEFEFE"/><path fill-rule="evenodd" d="M25.34 34.02a.07.07 0 0 0-.02.05v3.24a.07.07 0 0 0 .08.07h1.4c.43 0 .85-.17 1.15-.47.3-.3.48-.7.48-1.12v-.21a1.54 1.54 0 0 0-.48-1.12 1.64 1.64 0 0 0-1.16-.46h-1.4l-.05.02Zm.68.59a.08.08 0 0 0-.02.05v2.06a.08.08 0 0 0 .08.08h.55a1.05 1.05 0 0 0 1.06-1.05v-.12a1.05 1.05 0 0 0-1.06-1.05h-.55l-.06.03ZM34.1 34.02a2.72 2.72 0 0 0-.6 0c-.05 0-.1.04-.12.09l-1.35 3.14c-.03.07 0 .1.07.1h.54c.08 0 .13-.03.16-.1l.31-.73a.13.13 0 0 1 .11-.08 7.85 7.85 0 0 1 1.16 0c.06 0 .1.03.11.08l.32.72c.03.08.08.11.16.11h.54c.07 0 .1-.03.07-.1l-1.36-3.14a.14.14 0 0 0-.12-.09Zm-.35.91-.37.9v.03a.06.06 0 0 0 .03.04l.03.01h.72a.06.06 0 0 0 .06-.05v-.03l-.36-.9a.06.06 0 0 0-.1-.03.06.06 0 0 0-.01.03Z" fill="#FEFEFE"/><path d="M13.52 27.94a14.5 14.5 0 0 0 29.02 0h.78a15.29 15.29 0 0 1-30.58 0h.78Z" fill="#024090"/></svg>