<!-- by TradingView --><svg width="56" height="56" viewBox="0 0 56 56" xmlns="http://www.w3.org/2000/svg"><path fill="#F0F3FA" d="M0 0h56v56H0z"/><path d="M30.2 14.04a.9.9 0 0 0-.79-.51c-.44-.03-.8-.02-1.07.03-1.32.24-2.64.56-3.96.99a13.45 13.45 0 0 0-9.13 10.53c-.5 2.76-.3 5.38.6 7.84.9 2.52 2.44 4.6 4.62 6.26 1.02.78 1.85 1.36 2.51 1.75.53.31 1.14.59 1.84.81l.49.19c.36.13.64.14.87 0 1.13.4 2.3.63 3.5.72.84.07 1.67.04 2.47-.09a10.3 10.3 0 0 0 3.19-.95c1.32-.61 2.5-1.34 3.54-2.19.4-.33.76-.75 1.05-1.25a2.6 2.6 0 0 0-.01-2.32 20.51 20.51 0 0 1 3.04-4.07 7.9 7.9 0 0 1-1.68 5.61 15.71 15.71 0 0 1-9.64 6.3 14.98 14.98 0 0 1-10.25-1.5A16.06 16.06 0 0 1 13 28.4a15.94 15.94 0 0 1 7.65-14.17 15.32 15.32 0 0 1 16.44.35c1.28.84 2.39 1.82 3.32 2.95.06.06.06.13 0 .2-.1.14-.22.14-.37 0a13.98 13.98 0 0 0-9.84-3.7Z" fill="#0A5890"/><path d="m30.2 14.04-.51.06c-2.44.15-4.63.92-6.54 2.3-.42.14-.71.29-.9.45-1.03.9-1.97 1.9-2.82 3.04a12.4 12.4 0 0 0-1.25 2.16 14.86 14.86 0 0 0-1.44 5.64c-.03.54-.01 1.16.05 1.85.07.97.15 1.58.22 1.82l.33 1.18a14.67 14.67 0 0 0 4.98 7.32 14.4 14.4 0 0 0 3.86 2.08c-.23.13-.52.12-.87-.01l-.49-.19c-.7-.22-1.31-.5-1.84-.8-.66-.4-1.5-.98-2.51-1.76a13.53 13.53 0 0 1-4.63-6.26 14.92 14.92 0 0 1-.6-7.85 13.45 13.45 0 0 1 9.14-10.52c1.32-.43 2.63-.75 3.96-.99.27-.05.63-.06 1.07-.03a.9.9 0 0 1 .79.5Z" fill="#0970AE"/><path d="M29.7 14.1c1.6.52 2.98 1.32 4.17 2.4.1.1.17.2.2.29.02.07 0 .13-.05.19a.16.16 0 0 1-.2.03 8.57 8.57 0 0 0-7.16-.14 8.8 8.8 0 0 0-4.74 5.05c.05 0 0 .05-.14.17a8.74 8.74 0 0 0-2.08 3.04c0-1.54.3-2.99.85-4.34a18.4 18.4 0 0 1 2.6-4.4 12.24 12.24 0 0 1 6.54-2.29Z" fill="#9B999A"/><path d="M23.68 30.98c-.26-.06-.53-.3-.8-.73a9.43 9.43 0 0 1-1.24-7.51c.05-.2.12-.36.22-.5a.1.1 0 0 0 .02-.1c-.02-.05-.06-.07-.1-.05.14-.12.19-.18.14-.17a8.07 8.07 0 0 1 4.4-1.85c.08 0 .2 0 .34.04.13.02.22.11.27.27.05.15.03.28-.06.38a.99.99 0 0 1-.32.23 6.7 6.7 0 0 0-3.72 4.48 7 7 0 0 0 .85 5.5Z" fill="#256DBD"/><path d="M21.78 22.09c.04-.02.08 0 .1.05a.1.1 0 0 1-.02.1c-.1.14-.17.3-.22.5a9.43 9.43 0 0 0 1.24 7.51c.27.43.54.67.8.73.42.65.94 1.19 1.56 1.62a8.43 8.43 0 0 0 4.44 1.5c.01.04-.01.09-.07.13l-1.2.07a7.88 7.88 0 0 1-7.02-3.5 10.28 10.28 0 0 1-1.7-5.67 8.74 8.74 0 0 1 2.09-3.04Z" fill="#103863"/><path d="M42.35 29.44a54.7 54.7 0 0 0-3.99 5.15c-.02.04-.02.07.03.09.62.25 1.13.64 1.53 1.17.37.77.37 1.54.01 2.32.08-.55-.09-1.06-.52-1.52a4.68 4.68 0 0 0-1.88-1.31c-.38-.12-.75-.25-1.11-.39-.1-.06-.15-.1-.15-.13 0-.18-.08-.3-.25-.35a5.46 5.46 0 0 1-2.45-1.57c-.05-.05-.1-.06-.17-.02l-.6.38c-.9.55-1.86.93-2.87 1.15l-.32-.18c.06-.04.08-.09.07-.14.3 0 .52-.03.66-.07 1.03-.3 2-.82 2.87-1.54.07-.06.09-.12.05-.2-.78-1.82-.53-3.43.75-4.83a4.36 4.36 0 0 1 1.92-1.22 4.7 4.7 0 0 1 4.61.84c.78.62 1.38 1.4 1.8 2.37Z" fill="#233069"/><path d="M42.35 29.44c.34.73.54 1.51.61 2.34a20.51 20.51 0 0 0-3.04 4.07c-.4-.53-.91-.92-1.53-1.17-.05-.02-.06-.05-.03-.09a54.68 54.68 0 0 1 3.99-5.15Z" fill="url(#a)"/><path d="M36.42 34.95c-.1-.01-.1 0-.03.05.03.01.02.03-.01.03a.5.5 0 0 1-.28-.04l-1.7-.5a3.15 3.15 0 0 1-1.6-1.23l.6-.38c.07-.04.12-.03.17.02a5.46 5.46 0 0 0 2.45 1.57c.17.05.25.17.25.35 0 .03.05.07.15.13Z" fill="#757273"/><path d="M20.55 20.79a18.4 18.4 0 0 1 2.6-4.4c-.42.15-.71.3-.9.46-1.03.9-1.97 1.9-2.82 3.04a12.4 12.4 0 0 0-1.25 2.16 14.86 14.86 0 0 0-1.44 5.64c-.03.54-.01 1.16.05 1.85.07.97.15 1.58.22 1.82l.33 1.18c.4.3.74.7 1.02 1.21.1.18.22.35.34.53.11.17.24.34.38.5.46.52.77.87.95 1.05a9 9 0 0 0 4.1 2.35c1.65.43 3.32.47 5.02.12l.7-.18 1.64-.54c1.1-.46 2.17-1.03 3.18-1.7.38-.23.68-.54.9-.91a.1.1 0 0 1 .1-.05l.43.07-1.7-.5a3.15 3.15 0 0 1-1.6-1.23c-.9.55-1.86.93-2.87 1.15l-.32-.18-1.2.07a7.88 7.88 0 0 1-7.02-3.5 10.28 10.28 0 0 1-1.7-5.67c.02-1.54.3-2.99.86-4.34Z" fill="url(#b)"/><path d="m18.7 34.28-.34-.53a3.7 3.7 0 0 0-1.02-1.2 14.67 14.67 0 0 0 4.98 7.3 14.4 14.4 0 0 0 3.86 2.09c1.13.38 2.3.62 3.5.71.84.07 1.67.04 2.47-.09a10.3 10.3 0 0 0 3.18-.95c1.33-.61 2.5-1.34 3.55-2.19.4-.33.76-.75 1.05-1.25.08-.55-.09-1.06-.52-1.52a4.68 4.68 0 0 0-1.88-1.31c-.38-.12-.75-.25-1.12-.39-.09-.01-.1 0-.02.05.02.01.02.03-.01.03a.5.5 0 0 1-.28-.04l-.42-.07a.1.1 0 0 0-.1.05c-.23.37-.53.68-.9.91a20.34 20.34 0 0 1-3.19 1.7l-1.64.54-.7.18c-1.7.35-3.37.3-5.02-.12a9 9 0 0 1-4.1-2.35 23.2 23.2 0 0 1-1.33-1.55Z" fill="url(#c)"/><defs><linearGradient id="a" x1="39.55" y1="32.96" x2="41.27" y2="34.29" gradientUnits="userSpaceOnUse"><stop stop-color="#233069"/><stop offset=".49" stop-color="#455FCF"/><stop offset=".89" stop-color="#0A5890"/></linearGradient><linearGradient id="b" x1="17.56" y1="24.17" x2="35.24" y2="30.28" gradientUnits="userSpaceOnUse"><stop stop-color="#2745A1"/><stop offset=".43" stop-color="#256DBD"/><stop offset="1" stop-color="#9B999A"/></linearGradient><linearGradient id="c" x1="37.01" y1="36.95" x2="28.51" y2="42.49" gradientUnits="userSpaceOnUse"><stop stop-color="#8797B9"/><stop offset="1" stop-color="#274C8D"/></linearGradient></defs></svg>