<!-- by TradingView --><svg width="56" height="56" viewBox="0 0 56 56" xmlns="http://www.w3.org/2000/svg"><path fill="#F0F3FA" d="M0 0h56v56H0z"/><path d="M25 22.67c0-.42.3-.77.67-.96a2.5 2.5 0 1 0-2.34 0c.36.2.67.54.67.96 0 .42-.3.76-.67.96a2.5 2.5 0 0 0-1.33 2.2v6.67a2.5 2.5 0 0 0 5 0v-6.66a2.5 2.5 0 0 0-1.33-2.2c-.36-.2-.67-.55-.67-.97ZM11 30H9.18C7.98 30 7 31.24 7 32.5S7.98 35 9.18 35h2.4A4.48 4.48 0 0 0 16 30.68V25h2.74c1.19 0 2.26-1.26 2.26-2.5S19.93 20 18.74 20h-3.35A4.45 4.45 0 0 0 11 24.32V30Zm18-4.5a2.5 2.5 0 0 1 5 0c0 .28.22.5.5.5h1a.5.5 0 0 0 .5-.5 2.5 2.5 0 0 1 5 0c0 .28.22.5.5.5h1a.5.5 0 0 0 .5-.5 2.5 2.5 0 0 1 5 0v7a2.5 2.5 0 0 1-5 0v-4.34a1 1 0 1 0-2 0v4.34a2.5 2.5 0 0 1-5 0v-4.34a1 1 0 0 0-2 0v4.34a2.5 2.5 0 0 1-5 0v-7Z" fill="#04478D"/></svg>