<!-- by TradingView --><svg width="56" height="56" viewBox="0 0 56 56" xmlns="http://www.w3.org/2000/svg"><path fill="#F0F3FA" d="M0 0h56v56H0z"/><path d="M22 17c.81-.45 1.68-.95 2.62-1.03.63-.05 1.44-.36 2.18-.47 1.83-.26 3.48-.42 4.95-.5.7-.03 1.4.05 2.09.24l.1.05a.22.22 0 0 1 .06.2c-.01.04-.02.08-.05.1-.33.44-.94 1-1.52.58a.4.4 0 0 0-.21-.07c-2.08-.05-4.31.2-5.85.3-.72.05-1.45.14-2.2.27-1.16.2-1.88.3-2.17.33ZM38.15 23.92c-1.44-2.6-4.45-3.98-7.3-4.17-2.66-.17-5.25.3-7.57 1.75a11.19 11.19 0 0 0-4.37 5.46.79.79 0 0 1-.27.35c-.77.54-1.38 1.05-1.83 1.52a.32.32 0 0 1-.14.08.31.31 0 0 1-.38-.19 2.5 2.5 0 0 1-.19-.79.63.63 0 0 0-.24-.48c-.76-.6-1.35-1.1-1.78-1.5-.8-.76-.44-1.42.32-2a18.04 18.04 0 0 1 4.84-2.68c.02 0 .04-.04.03-.06l-.03-.07a24.48 24.48 0 0 0-5.3 2.68.17.17 0 0 1-.26-.09l-.44-1.24a.23.23 0 0 0-.18-.15c-.36-.08-.7-.11-.9-.35-.27-.35-.55-.68-.84-1-.29-.31-.42-.57-.24-.98l.45-1.03a.15.15 0 0 1 .07-.08.14.14 0 0 1 .1 0c1.3.3 2.33.2 3.79-.06 5-.93 10.1-1.52 15.35-1.77 4.03-.2 7.88.03 11.56.68.65.12 1.33 0 1.97.13.08.01.14.05.2.1.5.52.56 1.1.18 1.75-.34.6-.68 1.11-1 1.54-.76.99-1.1 2-1.72 3.32-.17.39-.34.46-.67.58-.36.15-.64.59-.88.9a.37.37 0 0 1-.52.07l-.85-.62c-.07-.05-.1-.03-.09.06.04.47.07.8.1.96a6.4 6.4 0 0 1-.76 4.15 9.2 9.2 0 0 1-3.41 3.6c-.09.04-.1.1-.05.2l.3.47a5.94 5.94 0 0 1 .7 4.77c-1.19 4.27-6.19 6.33-10.16 4.73a6.92 6.92 0 0 0 6.23-1.58 5.88 5.88 0 0 0 2.14-4.58 5 5 0 0 0-2.42-4.27c-.08-.06-.19 0-.19.1a7.07 7.07 0 0 1-.72 2.93c-.56 1.13-1.64 1.85-2.86 1.53-.52-.14-.93-.5-1.27-.9 1.83.02 2.24-2.57 2.26-4.12 0-.1-.04-.15-.14-.15-.9-.01-1.85.36-2.84 1.12-1.24.94-2.7 3.05-2.41 4.75a4.12 4.12 0 0 0-1.77-.63c-.06 0-.08-.04-.08-.1a6.53 6.53 0 0 1 1.31-3.35.2.2 0 0 0-.05-.29A7.1 7.1 0 0 1 20 31.88a5.35 5.35 0 0 1-.6-2.22 7 7 0 0 1 .24-2.37 8.49 8.49 0 0 1 2.7-4.02 12.1 12.1 0 0 1 9.83-2.81 8.45 8.45 0 0 1 5.97 3.46Zm-12.54-1.85c1.24-.55 2.54-.86 3.9-.93.06 0 .07-.1 0-.1a10 10 0 0 0-6.05 1.87c-2.12 1.42-3.88 4.01-3.1 6.64.59 2 2.1 3.22 3.95 3.97a.4.4 0 0 0 .4-.05 7.74 7.74 0 0 1 3.23-1.43c.33-.07.36-.2.08-.4a2 2 0 0 0-.97-.34c-.15-.02-.22-.2-.13-.3.43-.58.96-1 1.58-1 1.31-.01 1.91 1.06 2.6 2a.4.4 0 0 0 .2.16l1.17.38c.07.02.16.02.24-.01a7.26 7.26 0 0 0 2.94-3c.66-1.28.75-3.22.08-4.5-1.08-2.08-3.5-3.34-5.76-3.42a19.2 19.2 0 0 0-2.17.03 6.7 6.7 0 0 0-2.15.54c-.02 0-.04 0-.07-.03-.03-.03-.02-.06.03-.08Z" fill="#A00111"/></svg>