<!-- by TradingView --><svg width="56" height="56" viewBox="0 0 56 56" xmlns="http://www.w3.org/2000/svg"><path fill="#F0F3FA" d="M0 0h56v56H0z"/><path fill-rule="evenodd" d="M43 43H13V13h30v30ZM24.68 15h5.15s-1.58 1.33-1.58 3.9c0 2.33 2.32 3.66 2.32 3.66s1.1.66 3.02 1.66c1.94 1 6 3.33 6 7.84 0 6.8-7.63 8.94-7.63 8.94h-6.14s2.13-1.42 2.13-4.04c0-2.61-5.5-4.9-5.5-4.9s-6.03-1.94-6.03-7.98c0-7.27 8.26-9.08 8.26-9.08ZM19 38v2h-2v-6h2v2h2v-2h2v6h-2v-2h-2Zm16-18h.54l1.19 2H39l-2.05-3.6L39 16h-2.03l-1.74 2H35v-2h-2v6h2v-2Z" fill="#EC1D24"/></svg>