<!-- by TradingView --><svg width="56" height="56" viewBox="0 0 56 56" fill="none" xmlns="http://www.w3.org/2000/svg">
<rect width="56" height="56" fill="#F0F3FA"/>
<path d="M36.5274 29C34.007 30.0237 30.4504 32.111 28.3781 35.0917C28.126 35.4229 27.79 35.453 27.4819 35.0616C26.8938 34.3089 23.8973 30.6274 19.6686 30.6274C18.6324 30.6274 17.0362 30.8652 16 31.2265L16 42.1961C16.6441 41.6842 18.1003 41.1423 19.5006 41.1423C21.6569 41.1423 25.7736 43.1294 27.2859 44.6047C27.846 45.1467 28.266 45.1166 28.7701 44.6047C30.9825 42.2864 34.9592 40.239 40 40.239V27H19.4726C21.993 25.9763 25.5496 23.8902 27.6219 20.9396C27.874 20.6084 28.21 20.5783 28.5181 20.9697C29.1062 21.7224 32.1027 25 36.3314 25C37.3956 25 38.9638 24.7935 40 24.4322V13.8039C39.3559 14.3158 37.8997 14.8577 36.4994 14.8577C34.3431 14.8577 30.2264 12.8706 28.7141 11.3953C28.154 10.8533 27.706 10.8834 27.2299 11.3953C24.9895 13.7136 21.0408 15.761 16 15.761V29" fill="#AB9752"/>
</svg>
