<!-- by TradingView --><svg width="56" height="56" viewBox="0 0 56 56" xmlns="http://www.w3.org/2000/svg"><path fill="#F0F3FA" d="M0 0h56v56H0z"/><path d="m33.95 18.2-.1-.07a.08.08 0 0 0-.1 0c-.78.52-1.5.88-2.19 1.1-1.3.4-2.51.29-3.64-.37-.22-.12-.2-.17.05-.15 1.38.1 2.1.13 3.24-.5l1.48-.82c.11-.07.1-.12-.03-.15-.31-.06-.7-.08-1.16-.06a13.38 13.38 0 0 1-8.15-2.38c-.4-.47-.31-.59.3-.35 1.2.46 2.3.84 3.3 1.13a9.8 9.8 0 0 0 3.9.27c.19-.02.2-.08.05-.19-.1-.07-.2-.14-.32-.2-.88-.59-1.8-1.19-1.34-2.37a.14.14 0 0 1 .13-.09.14.14 0 0 1 .13.07c1.44 2.47 3.73 2.66 6.31 1.95.54-.15 1.22.13 1.58.65.05.07.11.13.18.18.03.02.12.04.27.06 1.1.1 2.09-.18 3-.82.1-.06.2-.08.3-.04.44.15.73.47.9.95a.3.3 0 0 1-.05.31c-.2.25-.39.4-.55.49-.18.08-.23.04-.16-.14.2-.47.13-.74-.18-.8-1.18-.2-2.9 1.41-3.22 2.33-.16.47-.34.8-.53.97-.55.5-.63.43-.25-.2a14.4 14.4 0 0 0 .18-.61l-.13.02a.12.12 0 0 0-.1.07 12 12 0 0 1-.73 1.3c-.42.64-1 1.07-1.74 1.28-.04.02-.07 0-.1-.03l-.04-.08c-.05-.08-.03-.14.05-.18.66-.35 1.1-.9 1.32-1.64.14-.47.06-.51-.24-.12-.94 1.23-2.05 2.29-3.54 2.3-.63 0-.65-.1-.04-.3a4.2 4.2 0 0 0 2.34-1.58c.34-.52.27-.58-.2-.18a7.53 7.53 0 0 1-3.77 1.45c-.07.01-.12 0-.15-.04a.27.27 0 0 1-.04-.08c0-.03 0-.05.03-.07l3.73-2.05a.13.13 0 0 0 .07-.1.13.13 0 0 0-.05-.12Zm2.14-2.2c0-.03 0-.06-.02-.08a.28.28 0 0 0-.08-.08.58.58 0 0 0-.14-.06.83.83 0 0 0-.47-.02c-.08.03-.13.08-.14.14 0 .02 0 .05.02.08l.09.08.13.06a.84.84 0 0 0 .47.01c.08-.03.14-.08.14-.13ZM42.52 17.9v.15c0 .13-.06.17-.18.12l-.83-.34a.87.87 0 0 0-.39-.07c-.13.02-.26.01-.38-.01-.17-.03-.18-.08-.02-.15l1.95-.8c.12-.05.2-.01.24.1.01.06.04.1.08.15.04.05.1.08.17.09l1.72.17c.04 0 .06.03.07.06l.04.1c.02.03 0 .05-.04.05h-2.04c-.26 0-.39.13-.39.39Z" fill="#AF9E66"/><path d="M38.48 18.7a4.14 4.14 0 0 1 1.88-1.6.09.09 0 0 0-.03-.13c-.1-.05-.27-.07-.48-.07a.8.8 0 0 0-.38.12c-1.17.71-2 2.24-2.66 3.44l-.14.25c-1.07 1.96-3.85 1.89-5.67 1.1-.44-.2-1.06-.59-1.86-1.19-3.83-2.86-7.4-2.1-11.07.5-.04.02-.06.06-.06.1 0 .09.05.11.12.08l.9-.42c1.61-.77 3.5-1.67 5.18-1.57 2.34.14 3.63 1.03 5.42 2.32a6.25 6.25 0 0 0 4.77 1.16c1.98-.25 2.7-1.58 3.47-3 .2-.37.39-.73.61-1.1Z" fill="#AF9E66"/><path d="M40.37 20.01c-.21.18-.37.28-.47.31-.4.13-.45.04-.18-.24l.58-.61a.45.45 0 0 0 0-.62.46.46 0 0 0-.18-.12c-.3-.1-.65-.03-1.03.22-.35.24-.43.17-.22-.2.2-.36.48-.64.83-.82a.3.3 0 0 1 .12-.04c.04 0 .09.01.13.03l1.04.42c.07.03.14.02.2-.03l.1-.09a.37.37 0 0 1 .3-.08c.3.04.4.18.31.42l-.2.57c-.15.5-.3.94-.65 1.3-.13.14-.43.53-.88 1.16-.18.25-.26.22-.24-.08.04-.49.23-.96.57-1.4v-.05a.18.18 0 0 0-.06-.06c-.02-.02-.04-.01-.07.01Z" fill="#AF9E66"/><path fill-rule="evenodd" d="M27.09 43h1.85a11.8 11.8 0 0 0 7.46-3.6 3.45 3.45 0 0 0 .63-.92.06.06 0 0 0-.07-.05l-.04.01a11.56 11.56 0 0 1-8.85 2.94c-.56-.04-.56-.1 0-.17a12.5 12.5 0 0 0 4.44-1.31 10.53 10.53 0 0 0 4.78-13.66c-.33-.69-.43-.65-.3.13l.1.54c.54 3.09-1.4 5.73-4.43 6.42-.55.13-1.1.1-1.64-.09a9.8 9.8 0 0 1-3.24-1.84.72.72 0 0 1-.2-.27c-.07-.2-.2-.36-.36-.48-.1-.07-.18-.06-.27 0a.28.28 0 0 0-.08.1.22.22 0 0 0 .02.25c.13.17.3.28.5.34.14.03.2.11.22.24.02.2.15.38.4.54.66.45 1.35.8 2.07 1.06.49.17.48.21-.03.1a5.98 5.98 0 0 1-2.8-1.44 4.8 4.8 0 0 1-1.52-2.59c-.68-3.05 1.28-5.38 3.98-6.6.01 0 .04 0 .07.04h.01v.02l-.02.02-.02.02-1.81 1.2a.13.13 0 0 0-.06.16l.05.07.08.02h.22l2.47-1.54c.05-.04.05-.07 0-.1a.25.25 0 0 0-.13-.04.46.46 0 0 1-.27-.1 5.88 5.88 0 0 0-1.28-.8c-.16-.08-.2-.04-.1.1l.1.2c.08.12.05.2-.1.23a7.68 7.68 0 0 0-5.19 3.48c-1.4 2.23-1.93 5.69-.56 8.08 1.3 2.26 3.4 3.92 6.1 4.09.35.02.35.07.02.14a9.13 9.13 0 0 1-10.43-5.22 4.29 4.29 0 0 1-.25-3.41c.2-.72.38-1.38.35-2.01a5 5 0 0 0-1.35-3.24c-.25-.27-.37-.22-.37.15v.23c0 .16-.07.2-.2.12l-1.34-.78c-.17-.1-.25-.05-.25.15v.42a.19.19 0 0 1-.07.14.2.2 0 0 1-.16.04c-.12-.02-.26-.07-.42-.12-.45-.16-1-.34-1.4-.04-.11.1-.1.17.04.23l.3.14c.33.15.32.27-.03.37l-.43.11c-.72.19-1.3.34-1.56.9-.06.12-.02.2.13.23.23.05.38.14.42.28.04.1 0 .27-.12.49-.24.43-.45.86-.63 1.27-.21.49-.09.6.36.32l.3-.05c.11-.01.17.04.17.16-.01.34-.08.64-.2.91l-2.57-2.29.22-.14c.38-.22.35-.33-.1-.3-.02 0-.07-.04-.15-.1-.1-.06-.1-.14-.02-.21.72-.67.98-1.24.25-1.95-.08-.08-.12-.06-.12.06 0 .33-.04.53-.13.61-.26.27-.4.21-.4-.16l.02-.3c.02-.64.05-1.36-.75-1.6-.16-.06-.2-.01-.12.13.14.24.2.42.16.54a.12.12 0 0 1-.08.09.12.12 0 0 1-.12-.03c-.97-.92-2.03-1.1-3.18-.52-.04.03-.06.05-.06.09 0 .06.04.08.1.07l.69-.07h.48c.8.12 1.41.52 1.82 1.22a.39.39 0 0 1-.22.57c-.23.08-.48.01-.75-.19l-.23-.2.23.2 2.46 2.19-2.7-2.4.46 1.21c.06.1.1.2.1.3.03.34.03.7.03 1.08 0 .7-.01 1.4.17 1.92.83 2.21 3.97 2.93 5.1.7l4.49 3.99c.13.63.36 1.45.6 1.98 1.7 3.94 4.8 6.2 9.26 6.78ZM12.75 30.25c-.03.07.03-.06 0 0l-.6-.52c-.02.07.04-.06 0 0l.6.52Zm0 0 4.48 3.99s-.24-3.28.34-4.72a25 25 0 0 1 .19-.47c.42-1.01.9-2.15.3-2.88-1.32-1.59-3.73-1-4.74.48-.38.54-.36 1.18-.34 1.82.02.5.04 1-.12 1.5l-.11.28Zm-.6-.52c-.73 1.36-2.83 1.66-3.6 0-.4-.85.38-1.78 1.03-2.29l2.58 2.29Z" fill="#AF9E66"/><path d="M22.93 35.24c-.05.23-.04.37.03.43.23.12.5.17.8.15.13 0 .2.05.24.16.02.07.02.14.02.22 0 .13.06.2.18.23l.94.18h.02a.02.02 0 0 0 0-.02v-.01a24.5 24.5 0 0 1-1.94-2.16 6.55 6.55 0 0 1-1.05-2.61 8.4 8.4 0 0 1 5.54-9.53c.28-.1.27-.18-.02-.23h-.03c-.81-.14-1.71-.29-2.51.22-.12.08-.12.15 0 .22.05.04.1.05.15.06a.16.16 0 0 1 .14.14v.07c-.1.26-.67.35-1.26.44l-.45.08a.38.38 0 0 0-.17.08.35.35 0 0 0-.1.15.29.29 0 0 0-.01.18c.01.05.05.1.1.14l.06.08c.04.07.03.11-.05.14-.65.28-1.23.63-1.71 1.07a.2.2 0 0 0-.06.2.2.2 0 0 0 .15.13l.14.03a.18.18 0 0 1 .14.14.18.18 0 0 1-.07.19l-.1.06c-.6.4-1.13.76-1.3 1.38-.04.13 0 .18.13.16l.53-.08c.37-.06.42.04.15.3-.4.38-.68.82-.85 1.32-.06.19 0 .24.18.17l.32-.13a.16.16 0 0 1 .18.02c.03.03.06.06.07.1a.2.2 0 0 1-.02.2c-.37.52-.62.98-.74 1.4-.04.14 0 .2.15.16l.53-.12c.14-.03.17.04.1.21-.03.06-.2.32-.54.81-.06.08-.07.22-.04.42.02.13.09.16.2.1l.33-.18a.25.25 0 0 1 .28.02c.13.1.2.25.18.46-.01.1-.06.15-.17.13l-.27-.05c-.12-.03-.2.01-.24.12-.03.07-.02.15.02.24.14.26.4.53.77.8a.14.14 0 0 1 .04.2.15.15 0 0 1-.05.04c-.15.1-.2.2-.14.33.03.07.1.14.21.21.33.2.62.4.87.63ZM30.85 24.65c.22.02.36.09.43.2.06.1.03.19-.09.24-1.24.53-2.16 1.88-1.58 3.18.22.5.75.9 1.6 1.18a.07.07 0 0 0 .07-.02.07.07 0 0 0 0-.08c-.16-.29-.42-.48-.67-.66a2.3 2.3 0 0 1-.45-.39c-1.34-1.68.81-3.6 2.55-3.1 3.38 1 2.59 5.38-.44 6.17-.4.06-.78.06-1.13.02-.19-.02-.19-.05 0-.09l.56-.12c.22-.15.47-.24.75-.29.11-.02.12-.05 0-.1a1.24 1.24 0 0 0-.66-.04l-.58.02c-1.48-.28-2.42-1.04-2.8-2.27-.58-1.92.5-3.66 2.4-4.29 2.52-.82 4.77 1 5.03 3.52 0 .04-.02.07-.06.08-.06.01-.09-.01-.1-.06-.37-2.02-2.18-3.74-4.37-3.27l-.46.17Zm.46-.17c-.51 0-.67.06-.46.17a.9.9 0 0 1 .46-.17Zm-2.78 2.8v.45l.02.48.32.39c.09.1.11.08.07-.04-.43-1.54.02-2.72 1.36-3.55.07-.04.06-.07 0-.08-.09-.02-.15.02-.19.11a3.06 3.06 0 0 0-1.58 2v.24Zm1.83.22c.01-.24.09-.42.17-.63l.06-.16c.09-.23.05-.25-.1-.07-.25.29-.33.58-.25.87a.06.06 0 0 0 .1.03l.02-.04Z" fill="#AF9E66"/><path d="M26.7 26.37c.31-.11.44-.36.4-.73a.25.25 0 0 1 .12-.26c.45-.27.7-.54.71-.8a.14.14 0 0 0-.05-.12.15.15 0 0 0-.14-.02c-.52.18-.77.48-.77.9 0 .12-.05.2-.15.26-.23.14-.37.26-.44.36-.07.1-.06.2.02.3.1.11.2.15.3.11ZM26.24 28.48a.41.41 0 0 1-.15-.04.25.25 0 0 1-.16-.21c-.02-.22.04-.38.19-.48.1-.06.12-.15.07-.25a8.7 8.7 0 0 0-.11-.26.42.42 0 0 1-.05-.26c.04-.21.21-.32.5-.3a.19.19 0 0 1 .17.25l-.22.52a.33.33 0 0 0 .01.27c.1.21.1.44-.03.68-.05.1-.04.2.02.29.1.15.17.32.2.5a.15.15 0 0 1-.07.16.16.16 0 0 1-.05.02l-.43.07c-.1.01-.15-.03-.15-.14 0-.23.08-.45.27-.63.13-.14.13-.2-.01-.2ZM42.12 34.9c.03-.05.07-.05.11 0 .02.01.02.04 0 .07a.11.11 0 0 1-.06.04c-.1.03-.12-.01-.05-.1Z" fill="#AF9E66"/><path d="M41.1 43h1.35a7.95 7.95 0 0 0 2.34-5.42c.07-1.06.03-2.2-.13-3.44a9.24 9.24 0 0 0-1-3.31c-.6-1.1-1.87-1.89-2.95-.92a4 4 0 0 0-.85.9c-1.33 3.01-1.52 6.2-.57 9.57A4.45 4.45 0 0 0 41.1 43Zm.81-10.37-.04-.11c-.03-.06-.07-.06-.14 0l-.02.03a.1.1 0 0 1-.07.04c-.14 0-.23-.04-.28-.11a.13.13 0 0 1 .03-.19.13.13 0 0 1 .07-.02c.05 0 .09-.01.11-.03a.48.48 0 0 0 .1-.14c.2-.36.41-.58.64-.66.16-.06.2 0 .13.16a2.1 2.1 0 0 1-.4.37.2.2 0 0 0-.06.11c-.01.05 0 .1.02.13.02.04.06.07.11.1.11.05.14.14.08.25-.04.07-.08.12-.11.13-.08.04-.14.02-.17-.06Zm.45 1.08.2-.22a.16.16 0 0 0 .05-.1.15.15 0 0 0-.05-.1 4.11 4.11 0 0 1-.09-.1c-.09-.09-.07-.16.05-.2a.9.9 0 0 1 .42-.06.2.2 0 0 1 .16.11.19.19 0 0 1-.03.2l-.67.9a.24.24 0 0 0-.03.23c.04.09.12.21.23.37.07.09.06.18 0 .27l-.53.7a.52.52 0 0 0-.1.25l-.08.73c-.02.18-.08.2-.2.05-.07-.09-.1-.16-.09-.21.13-.6.12-1.12-.02-1.58a.6.6 0 0 1 0-.32l.16-.74a.22.22 0 0 0-.1-.23.23.23 0 0 0-.25 0l-1.08.73c-.2.14-.25.1-.14-.12.1-.22.3-.36.57-.4.1-.03.17-.08.2-.19.14-.45.42-.68.85-.68a.23.23 0 0 1 .23.2l.06.43c.04.2.13.24.28.08Zm-.37 4.35c0 .05.02.1.04.13.19.27.14.5-.16.71-.18.13-.44.1-.77-.09-.17-.1-.16-.15.04-.17.29-.02.46-.12.52-.3a.26.26 0 0 0 0-.17.27.27 0 0 0-.1-.13l-.15-.1c-.1-.09-.1-.15.03-.2.62-.23 1.16-.22 1.64.05.1.06.16.15.17.27.1 1.05.1 1.98 0 2.79-.05.39-.2.44-.47.15a.84.84 0 0 0-.74-.26c-.14.02-.27.08-.42.14-.17.08-.35.16-.53.16-.15 0-.17-.06-.06-.16.3-.26.6-.41.96-.46.3-.03.38-.1.25-.2l-.37-.28c-.2-.16-.23-.34-.07-.55l.21-.29c.08-.1.14-.09.18.03l.3 1.04c.04.1.08.17.13.2a.2.2 0 0 0 .13.04c.1-.01.16-.07.16-.17a91.57 91.57 0 0 0-.04-2.07c-.04-.3-.26-.44-.65-.4a.27.27 0 0 0-.21.16.26.26 0 0 0-.02.13Zm-1.32.79v2.06c0 .06-.02.08-.08.06-.08-.02-.17-.13-.27-.34-.15-.32-.12-.87.1-1.65a.13.13 0 0 1 .07-.07l.14-.09c.03-.01.04 0 .04.03Zm.52 1.26c-.07.03-.13.03-.18 0-.05-.03-.08-.1-.08-.17s.02-.15.07-.23a.43.43 0 0 1 .19-.16c.07-.03.13-.03.18 0 .05.03.08.1.08.17s-.02.16-.07.23a.43.43 0 0 1-.19.16ZM26.93 29.94l.07.22c.02.12-.03.19-.16.2-.28.02-.45-.05-.5-.2-.07-.16.02-.32.25-.49.1-.07.18-.06.24.05l.1.22ZM30.82 31.23a2.76 2.76 0 0 0-.64-.18 1.14 1.14 0 0 1-.32-.1 5.55 5.55 0 0 1-1.52-1.05c-.16-.16-.18-.14-.06.04.61.9 1.44 1.39 2.5 1.46a.1.1 0 0 0 .08-.07.1.1 0 0 0-.04-.1Z" fill="#AF9E66"/></svg>