<!-- by TradingView --><svg width="56" height="56" viewBox="0 0 56 56" xmlns="http://www.w3.org/2000/svg"><path fill="#F0F3FA" d="M0 0h56v56H0z"/><path d="M33 32.5 35 22h-3.32l-1.3 6.91h-.12L26.14 22h-2.86l-2 10.5h3.33l1.04-5.43h.09l3.25 5.43h4Zm-.1.5H29.3l.6 1h2.82l.2-1Zm-8.39 0H21.2l-.2 1h3.33l.2-1ZM16.84 25.6c.04.12.07.26.08.4H20c0-.17-.02-.34-.03-.5H16.8l.04.1Zm-4.38-.1c-.15.15-.29.32-.42.5H8.67c.07-.17.15-.34.24-.5h3.55Zm4.01-.5h3.4a3.55 3.55 0 0 0-.16-.5h-4.34c.17.02.33.06.47.1.25.1.46.22.63.4Zm-1.95-.5a3.38 3.38 0 0 0-1.44.5H9.21a6.12 6.12 0 0 1 .37-.5h4.94Zm-4.5-.5h9.45c-.11-.18-.23-.34-.37-.5h-8.53c-.19.15-.37.32-.55.5Zm1.27-1h7.26c-.4-.3-.87-.54-1.42-.7A7.1 7.1 0 0 0 15 22a7.27 7.27 0 0 0-3.71 1Zm-2.82 3.5a8 8 0 0 0-.15.5h3.19c.07-.17.14-.34.23-.5H8.47Zm2.87 1H8.2a9.52 9.52 0 0 0-.09.5h3.12c.03-.17.07-.34.12-.5Zm-.2 1h-3.1L8 29h3.1c0-.16.01-.33.04-.5Zm-.04 1H8c.01.35.06.69.13 1h3.24a2.36 2.36 0 0 1-.27-1Zm.65 1.5H8.27a4.28 4.28 0 0 0 .21.5h4.45a2.21 2.21 0 0 1-1.18-.5Zm2.08.5a3.2 3.2 0 0 0 1.47-.5h3.52a6.72 6.72 0 0 1-.34.5h-4.65Zm4.22.5H8.78c.12.18.25.34.4.5h8.33c.2-.16.37-.33.54-.5Zm-1.23 1H9.74a5.97 5.97 0 0 0 3.44 1 6.9 6.9 0 0 0 3.64-1Zm2.28-2.5h-3.23l.01-.02c.13-.15.23-.3.32-.48h3.1c-.05.17-.12.33-.2.5Z" fill="#0066B1"/><path d="M44.46 25.34c.1.18.16.4.19.64h3.34a3.22 3.22 0 0 0-.3-1.6c-.24-.5-.58-.91-1.04-1.27a5.07 5.07 0 0 0-1.66-.82 8.73 8.73 0 0 0-4.79.1 7.21 7.21 0 0 0-5.07 5.62 5.47 5.47 0 0 0 .21 3.2c.21.5.5.92.86 1.29h9.18a5.52 5.52 0 0 0 2.17-3.5l.3-1.55h-5.89l-.4 2.06h2.7c-.08.4-.26.74-.54 1.04-.29.31-.66.55-1.13.72-.47.17-1 .25-1.62.25a2.9 2.9 0 0 1-1.64-.41 2 2 0 0 1-.83-1.21 4.48 4.48 0 0 1 .02-1.92c.14-.74.4-1.38.8-1.9.38-.52.85-.92 1.41-1.2a4.11 4.11 0 0 1 2.7-.3c.25.06.46.16.63.29.17.13.3.29.4.47Zm.16 7.66H36.8l.45.28c.9.48 2 .72 3.3.72a8.53 8.53 0 0 0 4.07-1Z" fill="#D62B24"/></svg>