<!-- by TradingView --><svg width="56" height="56" viewBox="0 0 56 56" xmlns="http://www.w3.org/2000/svg"><path fill="#F0F3FA" d="M0 0h56v56H0z"/><path fill-rule="evenodd" d="M49 28.5C49 34.3 39.6 39 28 39S7 34.3 7 28.5 16.4 18 28 18s21 4.7 21 10.5Zm-25.2-.7v-.05c.02-.09-.01-.13-.1-.13-.76.03-1.57.02-2.33-.12-.8-.15-1.2-.85-1.08-1.65.19-1.22 1.5-2.04 2.55-2.42a7.3 7.3 0 0 1 3.48-.36c.2.02.56.06.6.26.08.33.1.67.06 1.03a.2.2 0 0 1-.12.18l-.3.15c-.41.21-.82.42-1.2.68-.11.08-.2.18-.28.28-.03.04-.07 0-.06-.04.13-.35.46-.6.77-.79.04-.02.06-.1.01-.11a1.1 1.1 0 0 0-.34-.08c-.8-.03-1.6.1-2.38.39-.47.17-1.86.74-1.88 1.39-.01.26.38.4.79.44 1.16.13 2.37.15 3.58.18.07 0 .15.04.14.13l-.08.44c-.06.28-.43.56-.68.59a6.5 6.5 0 0 0-3.81 1.46c-.43.3-1.18.9-.83 1.52.18.3.55.39.9.4.93.02 1.91-.24 2.76-.64a8.17 8.17 0 0 0 2.2-1.41l-.15 1.09a.85.85 0 0 1-.15.34c-.18.28-.45.55-.79.8A6.95 6.95 0 0 1 21.2 33c-1 0-2.2-.53-2.2-1.7 0-.62.35-1.22.83-1.64a6.46 6.46 0 0 1 3.8-1.71c.1 0 .15-.06.16-.14Zm6.3 1.79c-.09.11-.28.36-.37.35-.03 0-.03-.05-.02-.07.1-.21.23-.43.39-.66l.26-.4c.75-1.12 1.52-2.29 2.14-3.44v-.01c.16-.31.51-.96.5-1.73 0-.5-.44-.64-.88-.63-.88.01-1.92.63-2.65 1.06l-.28.17a.34.34 0 0 1-.19.05c-.03 0-.05-.04-.04-.07a22.97 22.97 0 0 1 .5-.5.74.74 0 0 0 .19-.25c.02-.05 0-.06-.04-.03-.84.48-1.7 1.1-2.24 1.92-.13.21-.49.99-.33 1.2.1.15.5-.05.62-.12l.08-.04c.54-.3 2.79-1.6 3.63-1.63.21-.01.34.06.31.26-.05.34-.2.7-.36 1.02-.25.5-.51 1-.8 1.48l-.15.27c-.62 1.06-1.3 2.23-2.04 3.3-.09.12-.1.25 0 .4.15.22.37.51.67.51.08 0 .16-.12.23-.2l.04-.07c.48-.56.95-1.15 1.43-1.74.77-.96 1.55-1.92 2.37-2.8l.08-.08c.48-.52 1.37-1.48 1.85-1.48.12 0 .2.1.17.24-.03.15-.09.3-.17.44-.34.63-.75 1.22-1.16 1.82-.4.59-.82 1.18-1.17 1.8a6 6 0 0 0-.58 1.4c-.12.47-.18 1.64.58 1.67.48.02 1.13-.41 1.45-.64.76-.56 1.62-1.19 1.88-2.14-.49.43-.93.77-1.45 1.07-.18.1-.42.2-.63.2-.28-.01-.38-.32-.38-.6 0-.46.23-.93.46-1.33.42-.73.93-1.4 1.44-2.1.37-.5.74-.99 1.08-1.5.25-.39.5-.8.48-1.26a1.36 1.36 0 0 0-.46-.95.3.3 0 0 0-.22-.08c-.31 0-.75.32-.94.45-.71.53-1.37 1.17-1.99 1.8a49.82 49.82 0 0 0-3.26 3.63l-.03.04Zm-16.1.13c.46.06 1 .17 1.62.32h.04c.73.18 1.53.38 2.21.7l-.05.05c-.35.42-.72.86-1.16 1.19a.12.12 0 0 1-.1.02c-.84-.21-1.66-.41-2.5-.6a9.07 9.07 0 0 0-2-.3c-.17 0-.32.01-.48.07l-.2.09c-.33.13-.67.27-1.02.32-.1.02-.2.01-.3-.03a.1.1 0 0 1-.06-.12.8.8 0 0 1 .12-.27 10.92 10.92 0 0 1 .73-.96c.17-.24.31-.42.67-.48.39-.07.82-.07 1.22-.03.32-.52.73-1.16 1.23-1.9.75-1.11 1.49-2.1 2.21-2.94.33-.38.67-.74 1.05-1.09.32-.3.93-.82 1.4-.75.92.12-.15 2.15-.35 2.53-.19.37-.39.73-.6 1.1-.02.03 0 .09.04.1l.15.09c.04.02.06.07.04.1a6.4 6.4 0 0 1-1.08 1.02c-.16.12-.5.33-.6.06-.08-.19 0-.46.06-.65.13-.33.28-.65.46-.96l.83-1.47c.1-.18.18-.36.23-.53a.08.08 0 0 0-.08-.1c-.2 0-.63.48-.8.66-.47.55-.93 1.1-1.32 1.72-.46.7-.88 1.37-1.26 2.02-.16.26-.3.55-.43.87-.04.09-.01.14.08.15Zm30.51-4.06c.03 0 .04.03.03.06a.4.4 0 0 1-.13.17l-.65.49c-.12.09-.2.18-.27.28-.05.06-.03.1.04.13l.06.02c.07.03.12.01.17-.04.42-.47 1.1-.86 1.74-.89.12 0 .21-.14.25-.26l.07-.22c.1-.26.2-.55.17-.81-.05-.45-.72-.56-1.09-.58-.9-.04-1.8.02-2.69.17-.72.12-1.3.33-1.93.72-.46.28-.74.61-.96 1.12-.16.4-.32.83-.32 1.24 0 .4.15.78.59 1.07.62.4 1.27.53 1.94.67l.64.14c.57.14 1.07.43 1.3 1.02.04.07.02.14-.03.19-.6.58-1.6.9-2.4.94-.79.03-1.63.04-2.54.03-.13 0-.25-.02-.36-.04-.05 0-.08-.07-.06-.12.04-.11.3-.27.4-.33.09-.05.08-.08-.02-.1-.62-.12-1.14.39-1.38.96-.43 1.03.91 1.22 1.52 1.27.73.06 1.45.05 2.16-.02 1.33-.13 3.18-.63 3.65-2.1.48-1.53-1.52-2.41-2.54-2.68l-.34-.06c-.59-.1-1.53-.25-1.53-.92 0-.75 1.5-1.23 2.1-1.36.8-.17 1.6-.22 2.41-.16Z" fill="#005CA1"/></svg>