<!-- by TradingView --><svg width="56" height="56" viewBox="0 0 56 56" xmlns="http://www.w3.org/2000/svg"><path fill="#F0F3FA" d="M0 0h56v56H0z"/><path fill-rule="evenodd" d="M28 39a14 14 0 1 0 0-28 14 14 0 0 0 0 28Zm-8.14-19c-1.14 0-2.38.42-2.86.63 1.87.2 3.89 1.15 8.63 3.37l.45.21C31.13 26.58 32.28 27 35.2 27c2.33 0 3.5-.98 3.79-1.47-1.93.2-5.18-.56-7.9-1.48 3.76-1.82 5.58-2.62 7.28-2.82a8.06 8.06 0 0 0-2.94-.67c-1.31 0-4.54 1.15-7.15 2.4a17 17 0 0 1-.56-.28C25.09 21.37 21.29 20 19.86 20Z" fill="#DF2124"/><path d="M32 33.35 27.69 27 17 45h22l-3.67-6H28.5l3.5-5.65Z" fill="#003E80"/></svg>