<!-- by TradingView --><svg width="56" height="56" viewBox="0 0 56 56" xmlns="http://www.w3.org/2000/svg"><path fill="#F0F3FA" d="M0 0h56v56H0z"/><path d="M45.56 32.18A7.13 7.13 0 0 0 47 27.97c0-1.46-.49-2.86-1.45-4.21a12.93 12.93 0 0 0-4.13-3.56c-3.71-2.14-8.2-3.21-13.44-3.2-5.25.01-9.72 1.1-13.43 3.24a12.94 12.94 0 0 0-4.11 3.58A7.13 7.13 0 0 0 9 28.03c0 1.46.49 2.86 1.45 4.21a12.93 12.93 0 0 0 4.13 3.56c3.71 2.14 8.2 3.21 13.44 3.2 5.25-.01 9.72-1.1 13.43-3.24a12.94 12.94 0 0 0 4.11-3.58Zm-18.55-5.16c1.33-.31 2.6-.84 3.82-1.59a.5.5 0 0 1 .54 0l2.12 1.2c.28.16.33.38.16.65a4.52 4.52 0 0 0-.83 2.37c-.03 1.71-.07 3.1-.12 4.17-.04.58-.2 1.25-.5 2.01-.35.89-.75 1.5-1.2 1.82-.25.18-.51.2-.79.07a.72.72 0 0 1-.45-.63l-.1-1.16c-.03-.37-.24-.54-.61-.5-1.4.18-2.82.48-4.27.92-.73.23-1.1.52-1.12.87 0 .18-.1.26-.28.23a1.54 1.54 0 0 1-1.01-.59 1.65 1.65 0 0 1-.32-1.05c.02-1.28.01-2.6-.04-3.96a8 8 0 0 0-.82-3.31.46.46 0 0 1 .02-.48c.1-.15.24-.23.42-.24.43 0 .87.02 1.32.1.58.1 1.04.02 1.4-.27.26-.2.55-.63.89-1.27.42-.81.74-1.67.96-2.55a.22.22 0 0 0-.07-.23.23.23 0 0 0-.24-.04l-6.78 2.33c-.38.13-.74.1-1.1-.08-.9-.46-1.57-.82-2.02-1.09-.44-.26-.64-.55-.59-.87.03-.2.15-.31.36-.33 2.33-.23 4.8-.68 7.4-1.36 5.47-1.42 9.25-2.45 11.36-3.1.58-.18 1.08-.2 1.51-.08.55.16 1.04.39 1.47.7.38.28.47.63.27 1.06-.24.5-.58.77-1 .8-2.5.25-5.09.74-7.76 1.47-.18.05-.22.15-.13.31.46.77.3 1.52-.46 2.28-.52.51-1.01.94-1.48 1.27-.23.17-.2.22.07.15Zm2.21 4.25a.6.6 0 0 0 .03-.56.62.62 0 0 0-.4-.37 3.16 3.16 0 0 0-1.92-.05l-2.4.73c-.23.06-.35-.02-.37-.25l-.09-1.01c-.02-.28.1-.46.39-.53l5.52-1.38c.3-.08.46.03.46.34v5.32c0 .27-.14.36-.4.28a3.32 3.32 0 0 1-.14-.05c-.65-.23-1.15-.3-1.49-.2-2.15.63-3.4 1-3.78 1.1-.25.07-.37-.02-.37-.28v-1.1c0-.26.12-.42.37-.48l3.62-.86c.47-.11.8-.33.97-.65Z" fill="#B82945"/></svg>