<!-- by TradingView --><svg width="56" height="56" viewBox="0 0 56 56" xmlns="http://www.w3.org/2000/svg"><path fill="#F0F3FA" d="M0 0h56v56H0z"/><path fill-rule="evenodd" d="M28 45a17 17 0 1 0 0-34 17 17 0 0 0 0 34Zm15.47-16a15.77 15.77 0 0 0 0-2H29.03c-.02.16-.03.32-.03.49v1.02c0 .17 0 .33.03.49h14.44Zm-.17 1.5a15.4 15.4 0 0 1-.46 2h-9.79c-1.6 0-2.88-.8-3.55-2h13.8ZM27.08 29c.02-.16.03-.32.03-.49v-1.02c0-.17 0-.33-.03-.49H12.53a15.77 15.77 0 0 0 0 2h14.55ZM12.7 30.5h13.9c-.68 1.2-1.98 2-3.6 2h-9.84a15.4 15.4 0 0 1-.46-2Zm16.8-5h13.8a15.4 15.4 0 0 0-.46-2h-9.79c-1.6 0-2.88.8-3.55 2Zm-6.5-2c1.62 0 2.92.8 3.6 2H12.7c.11-.68.27-1.35.46-2h9.85ZM42.3 34c-.38.89-.83 1.74-1.36 2.53h-10.2a.7.7 0 0 0 0 1.39h9.17a15.47 15.47 0 0 1-23.82 0h9.5a.7.7 0 0 0 0-1.39H15.06c-.53-.8-.98-1.64-1.36-2.53h9.87c1.95 0 3.63-1.1 4.44-2.72A4.96 4.96 0 0 0 32.44 34h9.86Zm0-12h-9.86a4.96 4.96 0 0 0-4.43 2.72A4.96 4.96 0 0 0 23.57 22H13.7c.3-.7.64-1.36 1.02-2h10.6c.38 0 .68-.34.68-.75s-.3-.75-.68-.75h-9.57a15.47 15.47 0 0 1 24.5 0h-9.56c-.38 0-.69.34-.69.75s.31.75.7.75h10.58c.38.64.72 1.3 1.02 2Z" fill="#BD9E7E"/></svg>