<!-- by TradingView --><svg width="56" height="56" viewBox="0 0 56 56" xmlns="http://www.w3.org/2000/svg"><path fill="#F0F3FA" d="M0 0h56v56H0z"/><path d="M45.44 24.72c-.17-.02-.14.05.1.2.78.48 1.49 1.2 2.11 2.15l-2.17.4h-.06a.1.1 0 0 1-.04-.07c-.01-.07-.04-.11-.07-.13-.29-.92-1.24-1.68-2.05-2.15a21.32 21.32 0 0 0-6.95-2.44c-1.99-.37-3.99-.6-6.02-.69-.1 0-.2-.03-.3-.07l-.66-.32c-1.18-.53-2.18-.25-3.33.3-.14.06-.3.1-.45.1-3.45.16-6.79.76-10.03 1.82-1.75.58-4.04 1.67-4.87 3.44a6.21 6.21 0 0 1-2.01-.54l.3-.44c1.33-1.3 2.96-2.31 4.88-3.03 1.23-.54 2.43-.93 3.57-1.17a42.29 42.29 0 0 1 7.12-.98c.89-.1 2.75-.12 5.58-.09.65.01 1.45.07 2.42.18l2.42.27c2.63.31 5.15.91 7.54 1.8.99.37 1.81.73 2.47 1.08.2.11.37.23.5.38Z" fill="#E9E9E9"/><path d="M45.31 27.27c.02.11 0 .22-.01.33l-.02.03a.08.08 0 0 1-.05.04h-.03c-.02-.01-.03-.02-.04-.05-.02-.03-.05-.05-.12-.07-.73-.16-1.47-.27-2.2-.35a1.81 1.81 0 0 0-.57-1.46c-.91-.93-2.12-1.37-3.36-1.76a38.99 38.99 0 0 0-8.03-1.41v.03l5.78 4.9c-.19.06-.38.08-.59.06l-3.25-2.86c-1.44-1.3-2.47-2.3-4-3a3.19 3.19 0 0 0-1.3-.04c-.83.23-1.6.65-2.32 1.28l-3.38 2.99-2.48 2.15a.2.2 0 0 1-.12.05.32.32 0 0 1-.22-.07.08.08 0 0 0-.08-.01.08.08 0 0 0-.03.02.1.1 0 0 0-.02.03c-.02.07-.06.12-.1.15a.07.07 0 0 1-.09-.03.08.08 0 0 1-.01-.04v-.13l6.38-5.41.02-.03v-.03l-.02-.02h-.03c-1.57.16-2.7.29-3.37.38-2.08.29-4.08.8-6.02 1.55-1.07.42-2.45 1.28-2.48 2.71v.06a.08.08 0 0 1-.04.06.07.07 0 0 1-.06 0c-.48-.1-.97-.04-1.47.18a.2.2 0 0 1-.06.02l-.76.06-.03-.01c-.07-.05-.1-.13-.08-.24v-.07c.83-1.77 3.12-2.86 4.87-3.44a37.3 37.3 0 0 1 10.03-1.81c.16-.01.3-.05.45-.11 1.15-.55 2.15-.83 3.33-.3l.67.32c.09.04.19.07.3.07 2.02.09 4.02.32 6 .7 2.41.44 4.85 1.17 6.96 2.43.8.47 1.76 1.23 2.05 2.15Z" fill="#2C2422"/><path d="M13.82 23.25a13.97 13.97 0 0 0-4.89 3.03c.01.07-.02.03-.09-.13 1.4-1.4 3.05-2.37 4.98-2.9Z" fill="#989899"/><path d="M45.44 24.72c.64.4 1.25.94 1.84 1.62 2.41 2.75-1.87 5.14-3.76 5.94a31.23 31.23 0 0 1-7.65 2.12c-3.68.54-7.1.72-10.27.52 1.34-.08 2.67-.12 4-.13 1.26-.02 2.14-.04 2.63-.09a75.5 75.5 0 0 0 2.6-.29c3.39-.42 6.67-1.3 9.8-2.8a7.9 7.9 0 0 0 2.22-1.6c.87-.9 1.13-1.87.8-2.94a7.06 7.06 0 0 0-2.12-2.16c-.23-.14-.26-.2-.09-.2ZM8.84 26.15c.07.16.1.2.1.13l-.3.44-.22.36-.19.32a.35.35 0 0 0-.04.16c-.03.84.24 1.56.79 2.17a7.48 7.48 0 0 0 2.35 1.78c.69.32 1.03.5 1.04.5.65.3 1.02.46 1.13.48.57.14 1.09.38 1.56.71-2.37-.67-5.18-1.84-6.68-3.99-.42-.6-.5-1.27-.22-1.99.07-.17.3-.53.68-1.07Z" fill="#2C2422"/><path d="M8.64 26.72c.64.3 1.3.47 2.01.54v.07c-.76.1-1.5.02-2.23-.25l.22-.36Z" fill="#989899"/><path d="M25.6 34.92c-.33.08-.7.06-1.13-.04l.09-.03a.11.11 0 0 0 .01-.11.1.1 0 0 0-.03-.05 111.38 111.38 0 0 0-2.48-.22c-.98-.04-1.81-.24-2.87-.36a6.82 6.82 0 0 0-2.26-.37l-1.87-.54c-.47-.33-1-.57-1.56-.7-.11-.03-.49-.2-1.13-.5l-1.04-.5a7.49 7.49 0 0 1-2.35-1.77 2.99 2.99 0 0 1-.79-2.17c0-.05.02-.1.04-.16l.19-.32c.73.27 1.47.35 2.23.25-.02.11 0 .19.08.24h.03l.76-.05a.2.2 0 0 0 .06-.02 2.31 2.31 0 0 1 1.5-.17l.03-.01.02-.03.01-.03v-.06c.04.1.06.2.06.28v.03l-.03.02-.02.02h-.11c-.82.2-1.55.33-2.16.38-.13 0-.21.04-.24.1-.03.07-.01.16.05.27-.03.2.04.4.22.6a6.02 6.02 0 0 0 2.52 2.02c.5.26.93.45 1.28.57 1.56.5 3.15.91 4.77 1.2a47.66 47.66 0 0 0 18.35-.24c.37-.08.87-.2 1.48-.36.5-.13.98-.26 1.47-.37a7.5 7.5 0 0 0 4.2-2.43c0-.17.07-.37.2-.59.11-.17.17-.3.17-.37l.02-.27c0-.03 0-.06-.03-.08a.11.11 0 0 0-.07-.04l-2.51-.43.07-.31c.74.08 1.48.2 2.21.35.07.02.1.04.12.07 0 .03.02.04.04.04a.07.07 0 0 0 .06 0l.02-.03.02-.03c.02-.1.02-.22.01-.33.03.02.06.06.07.13 0 .03.02.05.04.06.02.02.04.02.06.02l2.17-.4c.33 1.06.07 2.04-.8 2.92a7.9 7.9 0 0 1-2.22 1.6 31.53 31.53 0 0 1-9.8 2.81c-.99.13-1.86.22-2.6.3-.5.04-1.37.06-2.63.08-1.33 0-2.66.05-4 .13Z" fill="#544F4F"/><path d="M38.4 28.88c.03.04.02.08-.02.11a.14.14 0 0 1-.1.03.13.13 0 0 1-.1-.05c-.32-.44-.76-.4-1.14-.5a.4.4 0 0 1-.18-.11l-.79-.8c.2.02.4 0 .59-.06l1.74 1.38Z" fill="#989899"/><path d="M25.86 23.96c.79-.72 1.81-1.28 2.82-.93l.2.09 2.34 1.6 1.12.92 1.96 1.67 3.28 3.18.01.03v.03l-.03.03h-.03l-3.48-1.47-.58-.15c0-.13-.06-.25-.2-.37l-2.13-1.89-2.06-1.51a2 2 0 0 0-1.22-.43.39.39 0 0 0-.18.04c-.64.33-1.14.71-1.75 1.07a39.8 39.8 0 0 0-3.26 2.76c-.1.1-.14.2-.14.33a1.77 1.77 0 0 0-.44.18l-.79.25-2.85 1.2h-.03l-.02-.01v-.03l.01-.02.89-.87 1.97-1.9.82-.75 3.77-3.05Z" fill="url(#a)"/><path d="m40.78 31.72 1.65-.67c.88-.45 1.73-1.04 2.55-1.76a7.5 7.5 0 0 1-4.2 2.43Z" fill="#2C2422"/><path d="M27.52 21.66a3.19 3.19 0 0 1 1.3.04c1.53.7 2.56 1.7 4 3l3.25 2.86.79.8a.4.4 0 0 0 .18.1c.38.1.82.07 1.15.5a.14.14 0 0 0 .1.06h.05l.04-.03c.04-.03.05-.07.02-.1a2.53 2.53 0 0 0 1.5.4c1-.23 2.02-.49 2.65-1.4.1-.12.16-.25.2-.38l2.53.43c.02 0 .05.02.06.04.02.02.03.05.03.08l-.02.27c0 .07-.06.2-.17.37-.13.22-.2.42-.2.6-.82.71-1.66 1.3-2.55 1.76l-1.65.66c-.48.11-.98.24-1.47.37a47.66 47.66 0 0 1-19.83.6c-1.62-.29-3.2-.7-4.77-1.2-.35-.12-.78-.3-1.28-.57a6.02 6.02 0 0 1-2.52-2.02c-.18-.2-.25-.4-.22-.6l2.69-.4h.06l.04.04.74.7c.77.4 2.1.97 2.98.46.22-.13.7-.48 1.46-1.05v.13l.02.04a.07.07 0 0 0 .06.03h.04c.03-.03.07-.08.09-.15a.09.09 0 0 1 .06-.06h.03l.04.02c.06.05.14.07.22.07a.2.2 0 0 0 .12-.05l2.48-2.15 3.38-2.99a5.83 5.83 0 0 1 2.32-1.28Zm1.36 1.46c-1.07-.5-2.18.07-3.02.84l-3.77 3.05-.82.76-1.97 1.89-.89.87-.01.03a.04.04 0 0 0 .02.04h.03l2.85-1.21.79-.25.03-.01c.1-.07.25-.12.42-.17.02.25.1.46.25.61.16.17.28.31.36.42.2.28.5.46.9.55.97.1 1.65.15 2.04.15 1.92.04 3.83-.02 5.75-.16.25-.01.5-.04.76-.08l.12-.1c.32-.4.57-.86.75-1.4l.58.16 3.48 1.46h.03l.03-.01v-.04l-.01-.03-3.28-3.18-1.96-1.67-1.12-.92-2.34-1.6Z" fill="url(#b)"/><path d="M24.47 34.88a40.54 40.54 0 0 1-7.53-1.14 6.82 6.82 0 0 1 2.25.37c1.06.12 1.89.32 2.86.37a111.33 111.33 0 0 1 2.49.21.1.1 0 0 1 .03.05.11.11 0 0 1-.01.1c-.01.02-.04.03-.09.04Z" fill="#2C2422"/><defs><linearGradient id="a" x1="36" y1="29" x2="20.5" y2="29" gradientUnits="userSpaceOnUse"><stop stop-color="#2C2422"/><stop offset=".49" stop-color="#BCBDBC"/><stop offset="1" stop-color="#2C2422"/></linearGradient><linearGradient id="b" x1="13" y1="30" x2="43" y2="29.5" gradientUnits="userSpaceOnUse"><stop stop-color="#E9E9E9"/><stop offset=".09" stop-color="#868686"/><stop offset=".51" stop-color="#E9E9E9"/><stop offset=".75" stop-color="#A9A9A9"/><stop offset="1" stop-color="#E9E9E9"/></linearGradient></defs></svg>