<!-- by TradingView --><svg width="56" height="56" viewBox="0 0 56 56" xmlns="http://www.w3.org/2000/svg"><path fill="#F0F3FA" d="M0 0h56v56H0z"/><path d="M31.98 13.62c-.85.42-2.97.32-3.84.15a5.27 5.27 0 0 0-1.32-.13c-.6.06-1.1.11-1.48.17-.07 0-.15 0-.25-.04-.09-.03-.12-.14-.06-.2.15-.17.36-.37.62-.6.6-.55 1.18-.09 1.85.08.09.02.16 0 .22-.05l.31-.29a2.3 2.3 0 0 1 2.03-.69c.27.03.53.08.78.13.5.1 1.08-.07 1.6.2.08.03.16.04.24.02 1.34-.3 2.68.13 3.95.44a.4.4 0 0 0 .23 0c.45-.15.9-.14 1.36.05.08.03.16.04.24.03.57-.06 1 0 1.27.15.23.13.31.29.25.48-.02.07-.08.11-.17.11-1.17.04-2.61.04-4.32.02-.98-.02-1.83.1-2.55.34a.3.3 0 0 1-.12 0 .25.25 0 0 1-.11-.03l-.52-.34c-.06-.04-.13-.04-.21 0ZM20.63 13.06a1.5 1.5 0 0 1 1.3.21c.03.02.05.05.06.08v.1c-.17.37-.6.6-1.18.54a8.07 8.07 0 0 0-1.3-.04.52.52 0 0 1-.33-.09c-.15-.1-.2-.2-.17-.3.03-.07.12-.11.27-.15.46-.11.9-.21 1.35-.35ZM17.27 13.05c.2.06.42-.04.63-.02.02 0 .04.01.05.03.02.01.03.03.04.06a.27.27 0 0 1 0 .17.94.94 0 0 1-.42.53c-.07.04-.23.05-.5.03-.32-.02-.6.03-.86.13-.12.06-.19-.02-.2-.22a.3.3 0 0 1 .05-.23c.37-.46.77-.62 1.2-.48ZM13.37 21.58c-.1.14-.07.23.1.25.5.08.69.34.57.79-.37 1.4-.74 2.72.02 3.96a.27.27 0 0 1 0 .3.25.25 0 0 1-.09.07c-.27.15-.41.29-.41.66l.01 7.75c0 .3.1.77.28 1.43.21.71.06 1.42.11 2.02.01.09.04.17.1.24l.61.71c.06.07.13.1.22.1.64-.01 1.62-.08 2.52-.09.46 0 .95-.06 1.47-.18 2.6-.6 6.5-.97 9.03-.54.52.09.96.12 1.32.1a9.4 9.4 0 0 1 1.32.04.38.38 0 0 0 .35-.2c.08-.17.05-.36-.1-.57a2.97 2.97 0 0 0-1.02-.81c-.7-.4-1.66-.33-2.31-.45a3.14 3.14 0 0 0-1.1 0c-2.6.45-5.53.88-8.16.98a8.11 8.11 0 0 0-3.62.93.28.28 0 0 1-.31-.03.3.3 0 0 1-.1-.13.32.32 0 0 1-.02-.17c.04-.27.1-.52.17-.75.09-.28.14-.53.14-.75.11-2.89.71-6.59.35-9.38-.08-.6-.1-1.04-.05-1.33.23-1.48-.02-3.88-.23-5.35a3.64 3.64 0 0 1 0-1.18c.22-1.12-.37-2.43.17-3.46l.41-.76c.2-.35.4-.56.62-.6.4-.1.87.02 1.23 0 3.66-.24 7.46-.1 11.11.18.28.02.77-.05 1.5-.2.85-.2 1.65-.21 2.4-.04.44.1.46.3.08.59-.38.28-.5.7-.36 1.28.02.11 0 .22-.05.32a.4.4 0 0 1-.24.2c-2.02.59-3.9 2.28-5.3 3.87-.71.81-.73 2.14-.74 3.07 0 .55.35 10.36.73 8.59.26-1.26.38-2.27.35-3.03-.06-1.77-.2-5.6 1.07-7.14.38-.47.97-.78 1.75-.93.15-.03.27.03.35.17.6 1.06.5 2.7.42 4.09-.01.14-.06.28-.14.4-.08.12-.2.21-.33.26-.59.24-1.14.6-1.67 1.08-.12.11-.22.42-.28.93-.04.3 0 .6.1.93a5.4 5.4 0 0 0 1.17 2.25c1 .94 2.46.73 3.54 1.45a.71.71 0 0 0 .58.1c.77-.21 1.57-.27 2.4-.19.65.07 1.1.05 1.32-.04.69-.27.82-.98 1.18-1.58.42-.73.93-2 .73-2.92-.15-.68-.16-1.02-.72-1.57-.67-.64-1.97-.75-2.82-.94a.6.6 0 0 1-.36-.25.66.66 0 0 1-.12-.43l.35-4.2c.01-.12.07-.19.18-.21l2.46-.5a.2.2 0 0 1 .12.01c.04.02.07.05.1.1.37.7.83 1.2 1 1.88.59 2.18 1.13 4.16 1.23 6.47.05 1.32.16 2.69.35 4.12.12 1 .36 2.16.2 3.14-.05.37.34.69.64.43l.37-.33c.34-.32.45-.25.33.22-.32 1.24-.44 3.2-.29 4.43.01.07-.04.14-.11.13a.1.1 0 0 1-.06-.02c-.2-.16-.4-.33-.71-.27-1.32.27-2.98.14-4.36.17a1265 1265 0 0 1-7.67.14c-.84.01-1.78-.17-2.6-.13-1.69.08-3.67.1-5.93.07-.21 0-.86.1-1.94.3-.53.1-.97.06-1.4.09-.06 0-.11.02-.15.05a.28.28 0 0 0-.1.13.3.3 0 0 0 .07.3c.15.15.34.23.6.25 1.72.17 3.47.17 5.2.05.67-.05 1.35-.03 2.02.06.4.05.58.3.83.47.08.05.16.06.25.05.3-.06.66-.36.92-.37.76-.04 1.38-.42 2.18-.4 2.3.05 4.61-.24 6.9-.06 1.63.13 3.06 0 4.51.06.04 0 .08.02.1.05.04.02.05.06.06.1.02.12-.04.2-.18.27-.75.35-1.45.52-2.13.52-.98 0-2.1-.02-3.36-.06-1.73-.06-3.56.33-5.33.33-.33 0-.68-.03-1.03-.09-.93-.15-1.88-.2-2.85-.15a5.4 5.4 0 0 0-1.61.34c-.1.04-.4.03-.9-.03-1.34-.18-2.58.36-3.94.15-1.2-.2-2.63-.35-3.76.23a.25.25 0 0 1-.23 0c-1.22-.51-1.98-1.17-2.29-1.96a8.83 8.83 0 0 1-.36-2.86c-.02-2.23.14-4.24-.1-6.45a.47.47 0 0 1 .14-.39l.33-.35c.07-.08.1-.17.07-.28l-.59-2.01c-.13-.45-.17-.8-.14-1.07.13-.98.25-1.97.36-2.95a16.2 16.2 0 0 0-.13-3.66 1 1 0 0 1 .17-.69l.42-.57a.23.23 0 0 0 .01-.24 2.3 2.3 0 0 1-.28-1.46c.02-.12.13-.2.24-.2a5.26 5.26 0 0 1 1.04.88c.3.36.3.75.01 1.17l-.48.7Z" fill="#FF192D"/><path d="M33 15.46c-.02-.09.01-.15.1-.18.28-.1.84-.24 1.24-.24 2.1-.04 3.47-.05 4.1-.03.62.02 1.47.17 2.55.44.1.03.17.08.23.15.52.68.77 1.38.73 2.09-.08 1.52.09 2.96-.23 4.47-.02.13.01.37.11.71.07.24.1.48.1.71l-.13 2.63c-.05.65.26 1.31.14 1.94-.11.62-.1 1.23.02 1.84.1.5.02 1.25-.2 1.72-.18.4-.29.39-.33-.05a36 36 0 0 0-.26-2.16c-.24-1.46-.07-3.29-.16-4.6a9.3 9.3 0 0 0-1.24-4.16 6.98 6.98 0 0 0-3.94-3.13c-.78-.25-1.7-.28-2.5-.5a.28.28 0 0 1-.2-.3c.05-.5 0-.88-.12-1.35Z" fill="#FF192D"/><path d="M43.43 25.22c-.06.53-.12.81.29 1.08.1.07.19.17.24.3.04.13.05.28.02.42l-.27 1.26a.4.4 0 0 0 0 .17 3.87 3.87 0 0 1-.51 2.94.35.35 0 0 0-.05.28c.03.14.1.25.2.33.1.07.19.16.24.26.06.1.08.2.08.3-.04.53-.12 1-.23 1.4a5.8 5.8 0 0 0-.24 1.38c-.02.53-.08 1.39-.2 2.56-.1 1.09-.27 1.95-.52 2.6-.26.7-.38.67-.36-.08.08-2.89.2-5.56.34-8.03.03-.48 0-1.88-.1-4.19-.01-.23.03-.59.13-1.05a.25.25 0 0 0-.04-.2.99.99 0 0 0-.24-.21.38.38 0 0 1-.18-.28c-.1-.77.07-1.44.52-2.03a.75.75 0 0 0 .06-.83l-.38-.7a.74.74 0 0 1-.09-.47l.7-4.31c.02-.16.05-.16.09 0 .35 1.56.57 2.97.65 4.2.03.46.2.81.33 1.23.23.71-.42 1.11-.48 1.67ZM30.01 20.29a4.61 4.61 0 0 1 1.74-1.08 4.2 4.2 0 0 1 2.04-.15c.97.14 1.93.5 2.9 1.1.45.26.4.36-.13.29a17.41 17.41 0 0 0-7.14.54c-.15.05-.56-.17-.37-.24.52-.19.84-.34.96-.46ZM34 22.82c0 .03-.02.06-.05.06-.89.06-1.86.2-2.74.06-.11-.02-.17-.05-.17-.07l-.04-.45c0-.03.05-.06.16-.1.84-.26 1.82-.26 2.7-.32.04 0 .07.02.07.05l.07.77ZM31 24.3c-.03-.12.15-.16.3-.17.67-.07 1.32-.11 1.8-.13.49 0 .77 0 .78.06l.12.5c0 .06-.25.13-.72.2-.46.09-1.1.17-1.77.23-.15.02-.34.02-.37-.1L31 24.3ZM33.2 25.52l-1.75.16c-.2.02-.34.2-.32.4v.04c.01.2.19.36.38.34l1.76-.16c.2-.01.34-.2.32-.4v-.03a.36.36 0 0 0-.39-.35ZM33.15 28l3.7.29c.43.03.71.22.85.58l.25.68c.13.33 0 .44-.38.32a5.18 5.18 0 0 0-2.96.08c-.41.1-.87.04-1.39-.2-.1-.05-.14-.12-.13-.22a3.4 3.4 0 0 0-.08-1.38c-.03-.1.02-.16.14-.15ZM32 28.79c.01.04-.09.04-.14.05-.4.03-3.67.35-3.8 0l-.06-.21c-.09-.35 3.21-.59 3.6-.62.05 0 .15-.02.16.02l.24.76ZM29.13 30h2.28c.4 0 .59.28.59.84v.44c0 .54-.19.78-.57.7-.83-.15-1.62-.7-2.38-1.64-.1-.11-.04-.34.08-.34ZM35.86 31.14c.35-.1.64-.14.88-.14.04 0 .1 0 .13.02.09.03.14.09.13.14 0 .03-.02.06-.05.08-.22.18-.5.38-.83.6-.14.1-.4.16-.8.16-.69 0-1.36 0-2.01-.03a.45.45 0 0 1-.22-.06c-.06-.03-.09-.08-.09-.13v-.61c0-.09.13-.16.28-.15.31.02.63.09.92.04.5-.08.98-.06 1.43.07a.43.43 0 0 0 .23 0ZM41.4 35.63l-.24-2.26c0-.06.02-.1.07-.1h.08c.03-.01.04 0 .05.03.2.58.34 1.17.42 1.79.04.27.02.47-.05.61a.19.19 0 0 1-.08.08.17.17 0 0 1-.21-.04.2.2 0 0 1-.05-.1Z" fill="#FF192D"/></svg>