<!-- by TradingView --><svg width="56" height="56" viewBox="0 0 56 56" xmlns="http://www.w3.org/2000/svg"><path fill="#AEC7E5" d="M0 0h56v56H0z"/><path d="m32.03 13.16.88.57-8.13 12.77h8.66l-10.6 16.34-.88-.58L31.5 27.5h-8.65l9.18-14.34Z" fill="#2B2B2B"/><path d="M20.37 21H43.5l-7.67 12H12.44l7.93-12Zm.6 1L14.3 32h20.92l6.44-10h-20.7Z" fill="#2B2B2B"/><circle cx="32.5" cy="13.5" r="2.5" fill="#2B2B2B"/><circle cx="22.5" cy="42.5" r="2.5" fill="#2B2B2B"/><circle cx="20.5" cy="21.5" r="2.5" fill="#0076E1"/><circle cx="13.5" cy="32.5" r="2.5" fill="#FF3053"/><circle cx="42.5" cy="21.5" r="2.5" fill="#FFD53E"/><circle cx="35.5" cy="32.5" r="2.5" fill="#00AC70"/><circle cx="32" cy="27" r="2" fill="#2B2B2B"/><circle cx="24" cy="27" r="2" fill="#2B2B2B"/></svg>