<!-- by TradingView --><svg width="56" height="56" viewBox="0 0 56 56" xmlns="http://www.w3.org/2000/svg"><path fill="#F0F3FA" d="M0 0h56v56H0z"/><path d="m21.41 26.68.08.43c.06.31.02.32-.1.03-.92-2.2-2.87-8.15-1.7-10.32 3.53-6.48 12.73 7.87 14.04 10.43.13.25.31.3.55.17a21.88 21.88 0 0 0 5.2-4.12.87.87 0 0 0 .03-1.15.88.88 0 0 0-.33-.25l-.38-.17c-.24-.1-.23-.18.03-.24.8-.17 1.58-.06 2.35.3 3.17 1.56-4.34 7.55-5.65 8.52-.14.1-.18.23-.12.39 1.25 3.32 2.37 6.55 1.73 10.13a.18.18 0 0 0 .09.19.18.18 0 0 0 .2-.02c4.84-3.87 7-8.62 6.5-14.25a15.98 15.98 0 0 0-22.44-13.37c-7.8 3.38-11.14 11.86-8.7 19.94a.21.21 0 0 0 .13.15.22.22 0 0 0 .2-.03c1.99-1.42 4.05-2.78 6.18-4.08.03-.02.07-.02.12 0 .06.02.06.05.02.08l-.25.18c-1.05.77-3.15 2.29-2.72 3.7a.4.4 0 0 0 .34.29c3.96.49 9.73-2.1 13.27-3.9.17-.1.2-.22.1-.39-1-1.46-6.01-7.65-8.35-6.06-.96.65-.64 2.28-.42 3.42Zm12.5 15.67a6.47 6.47 0 0 1-2.85-1.53c-.52-.48-.49-.52.1-.13.8.54 2.28 1.23 3.06.3 1.25-1.52-.9-6.5-1.82-8a.27.27 0 0 0-.28-.12 93.17 93.17 0 0 1-13.92 7.7.16.16 0 0 0-.03.07.16.16 0 0 0 .07.14c4.82 3.4 10.05 4.1 15.7 2.14a.3.3 0 0 0 .2-.3.29.29 0 0 0-.22-.27Z" fill="#EB1C25"/></svg>