<!-- by TradingView --><svg width="56" height="56" viewBox="0 0 56 56" xmlns="http://www.w3.org/2000/svg"><path fill="#F0F3FA" d="M0 0h56v56H0z"/><path fill-rule="evenodd" d="M28 44a16 16 0 1 0 0-32 16 16 0 0 0 0 32Zm.78-29.5a.8.8 0 0 0-.8.8l.02 2.9c0 .44.36.8.8.8H31v4.5a.5.5 0 0 0 1 0v-4.7a.8.8 0 0 0-.8-.8H29v-1h1a.5.5 0 1 0 0-1h-1.02v-.5H31V17a.5.5 0 0 0 1 0v-1.7a.8.8 0 0 0-.8-.8h-2.42Zm-1.78.92a.8.8 0 0 0-1.05-.76l-1.1.37a.5.5 0 0 0 .3.94l.85-.28v.8a.5.5 0 0 0-.76-.42l-.6.37a7.39 7.39 0 0 0-.17-.6.5.5 0 1 0-.94.32A12.6 12.6 0 0 1 24 19.5h1v-.64c.41-.12.94-.27 1.29-.33a.85.85 0 0 0 .71-.83v-2.28Zm-1.24 1.5a.5.5 0 0 0 .24-.41v1.05c-.34.07-.75.19-1.1.3l-.06-.38.92-.55Zm1.8 3.7-.01-.56h.43v.59a8.45 8.45 0 0 0-.42-.02Zm1.66-.2c-.07-.05-.15-.1-.24-.14v.5c.36.05.75.14 1.14.23a.5.5 0 0 1-.24.98 14.6 14.6 0 0 0-.9-.2v1.71a.5.5 0 0 1-1 0v-1.85a7.4 7.4 0 0 0-.51-.02 4.9 4.9 0 0 1-.07.32c-.22.86-.71 1.77-1.78 2.04a.5.5 0 1 1-.24-.98c.53-.13.87-.6 1.05-1.3-.27.06-.5.14-.7.24a.5.5 0 0 1-.45-.9c.37-.19.8-.31 1.28-.37v-.48c-.36.08-.66.18-.87.26a.5.5 0 1 1-.38-.92c.39-.16.97-.33 1.62-.42.51-.07 1.08-.1 1.63 0 .42.07.84.21 1.22.46a.5.5 0 1 1-.56.84Zm-4.43-.22a.5.5 0 1 0-1 .1c.04.33.04.93-.06 1.58-.1.66-.3 1.33-.65 1.84a.5.5 0 0 0 .84.56c.45-.69.68-1.52.8-2.25.11-.73.11-1.41.07-1.83ZM39.5 23a.5.5 0 1 0-1 0 2.56 2.56 0 0 1-.23 1h-.77a.5.5 0 0 0-.5.5.5.5 0 0 0-.5.5v.5h-.2a.8.8 0 0 0-.8.8v.2a.5.5 0 0 0-1-.05.74.74 0 0 1-.07.08l-.29.26a19.22 19.22 0 0 0-.28.25c-.23-.05-.34-.11-.41-.26-.06-.11-.05-.18-.04-.22a.45.45 0 0 1 .12-.2c.16-.18.42-.32.63-.39A.5.5 0 0 0 34 25h.37c.07.13.16.25.27.35a.5.5 0 0 0 .85-.35.5.5 0 1 0 0-1h-.44c-.04-.2-.06-.39-.06-.5a.5.5 0 1 0-1 0c0 .13.01.3.04.5H33a.5.5 0 0 0 0 1h.99a.5.5 0 0 0-.15.03c-.3.1-.73.3-1.04.64a1.31 1.31 0 0 0-.24 1.55c.15.32.39.52.63.64a1.8 1.8 0 0 0-.18.57c-.07.44-.01.81.17 1.1a1 1 0 0 0 .72.47h.02-1.42a.5.5 0 0 0 0 1H34a.5.5 0 0 0 .22-.95l.28-.01a.5.5 0 0 0 .5.46h.9a.5.5 0 0 0-.25.15l-.5.5a.5.5 0 0 0 .7.7l.5-.5a.5.5 0 0 0-.24-.84l.39.01v1.98a.5.5 0 0 0 1 0V31c0 .1.03.2.08.28.2.3.57.71 1.05 1.06.49.35 1.13.66 1.87.66a.5.5 0 1 0 0-1c-.46 0-.9-.2-1.28-.47-.38-.27-.67-.6-.8-.8a.5.5 0 0 0-.11-.12 15.54 15.54 0 0 1 1.76.23l.1.04a.5.5 0 0 0 .68-.73 1.18 1.18 0 0 0-.49-.26 4.58 4.58 0 0 0-.74-.16c.26.03.55 0 .81-.14.39-.21.57-.61.57-1.09 0-.52-.2-.9-.46-1.19l.28-.3c.08-.12.18-.3.18-.51a.5.5 0 0 0-1-.08 3.81 3.81 0 0 1-.3.29c-.12-.07-.24-.12-.35-.17-.1-.06-.2-.1-.27-.13l.12-.12c.17-.14.38-.27.52-.34a.5.5 0 0 0-.21-.95h.99a.5.5 0 1 0 0-1h-1.16c.12-.38.16-.75.16-1ZM37 29a.5.5 0 0 0-.5.5v.02l-1.23-.02c.16-.26.23-.6.23-1 0-.44-.12-.8-.42-1.06a1.08 1.08 0 0 0-.08-.07l.14-.14c.14-.14.36-.39.36-.73v1.7c0 .44.36.8.8.8h.7Zm.5-1.5a.5.5 0 0 0 .5-.5c0-.2-.03-.51-.13-.8a1.2 1.2 0 0 0-.37-.53V25a.5.5 0 0 0 .72.44c.24-.12.43-.27.58-.45h.69a.5.5 0 0 0-.21.05c-.2.1-.48.27-.73.48-.12.11-.25.24-.35.39-.1.14-.2.34-.2.58 0 .25.13.42.24.53.1.1.23.18.33.24l.25.12a6.01 6.01 0 0 0-.64.6.87.87 0 0 0-.18.51c0 .22.1.4.2.51.09.12.2.22.32.3a2.5 2.5 0 0 0 .98.4 20.15 20.15 0 0 0-2-.15v-.06a.5.5 0 0 0-.5-.5h.2a.8.8 0 0 0 .8-.8V28a.5.5 0 0 0-.5-.5Zm0 0a.5.5 0 0 0-.5.5h-.5v-.23h.26a.5.5 0 0 0 .5-.33.5.5 0 0 0 .24.06Zm-.7-.72-.3-.01v-.27h.41l.02.04c.03.09.05.19.06.28a.5.5 0 0 0-.19-.04Zm2.35 1.64c.16-.15.36-.3.6-.48.16.16.25.33.25.56 0 .12-.02.17-.03.2l-.03.02c-.03.02-.13.04-.33 0a1.5 1.5 0 0 1-.53-.24l.07-.06Zm-1.65 2.57v-.43l.24.01-.02.01a.5.5 0 0 0-.22.41ZM34 28.57c.02-.15.1-.3.2-.45.15.03.2.06.23.08 0 0 .07.05.07.3 0 .44-.12.53-.13.54-.02.01-.08.03-.17 0a1.17 1.17 0 0 0-.17-.04c-.02-.03-.08-.14-.04-.43Zm-18.15-5.42a.5.5 0 0 0-.7.7l1 1c.1.1.22.15.35.15h-1a.5.5 0 0 0 0 1H17v.86h-.15c-.5 0-1.06.02-1.5.17a.5.5 0 1 0 .3.94c.28-.09.67-.1 1.2-.1l.16-.01c.3 0 .64 0 .99-.03V28h-1a.5.5 0 0 0 0 1h1v.38a12.7 12.7 0 0 0-3.17.65.5.5 0 1 0 .34.94 11.75 11.75 0 0 1 2.83-.59V31a.5.5 0 0 0-.85-.35 6.71 6.71 0 0 1-2.3 1.38.5.5 0 1 0 .3.94 7.7 7.7 0 0 0 2.7-1.62A.5.5 0 0 0 18 31v1.5a.5.5 0 0 0 1 0v-2.09c.52.03 1.15.07 1.73.14a9.46 9.46 0 0 1 1.34.27l.08.04a.5.5 0 0 0 .7-.71c-.12-.13-.27-.2-.4-.25-.14-.06-.3-.1-.46-.14-.33-.08-.73-.15-1.14-.2-.62-.07-1.3-.12-1.85-.15V29h1.5a.5.5 0 1 0 0-1H19v-.28c.43-.05.83-.07 1.2-.05.48.02.83.11 1.02.25a.5.5 0 1 0 .56-.84 3.06 3.06 0 0 0-1.54-.41H20V26h2a.5.5 0 1 0 0-1h-1.5a.5.5 0 0 0 .35-.15l1-1a.5.5 0 0 0-.7-.7l-1 1a.5.5 0 0 0-.15.35v-1a.5.5 0 1 0-1 0V25h-1v-1.5a.5.5 0 1 0-1 0v1a.5.5 0 0 0-.15-.35l-1-1ZM20 24.5v.5h.5a.5.5 0 0 1-.5-.5Zm-3 0v.5h-.5a.5.5 0 0 0 .5-.5Zm1 2.33V26h1v.71a12.9 12.9 0 0 0-1 .12Zm1.65 4.52c.37.38 1.4 1.2 2.7 1.62a.5.5 0 1 0 .3-.94 6.59 6.59 0 0 1-2.3-1.38.5.5 0 0 0-.7.7Zm15.07 1.1a.5.5 0 1 0-.44-.9l-1 .5a.5.5 0 1 0 .44.9l1-.5ZM26 32.5a.5.5 0 1 0-1 0v1.41a4.47 4.47 0 0 0-1.78.67.5.5 0 1 0 .56.84 3.66 3.66 0 0 1 1.22-.5v1.77l-1.72.86a.5.5 0 1 0 .44.9L25 37.8v1.69c0 .09-.03.23-.1.33-.06.08-.16.17-.4.17-.24 0-.34-.09-.4-.17a.62.62 0 0 1-.1-.33.5.5 0 1 0-1 0c0 .25.07.6.3.92.24.33.64.58 1.2.58.37 0 .67-.1.9-.28.14.17.35.28.6.28.38 0 .64-.28.79-.49a4 4 0 0 0 .44-.9c.26-.73.52-1.76.76-3.02a.5.5 0 1 0-.98-.18l-.01.05a.5.5 0 0 0-.72-.4l-.28.13v-1.3l.34.08a.5.5 0 0 0 .66-.46V35a.5.5 0 0 0 1 0v-1h3.5a.5.5 0 1 0 0-1h-3.7a.8.8 0 0 0-.8.8v.69a.5.5 0 0 0-.34-.46 3.16 3.16 0 0 0-.66-.15V32.5Zm0 6.9v-2.1l.72-.35a.5.5 0 0 0 .23-.22 18.13 18.13 0 0 1-.66 2.54c-.07.19-.14.34-.2.46v-.04a2.11 2.11 0 0 0-.09-.3Zm3-3.4a.5.5 0 0 0 0 1h2v2.83a4.42 4.42 0 0 0-1.84.1c-.1-.13-.2-.3-.26-.58-.08-.36-.1-.91.07-1.75a.5.5 0 1 0-.98-.2c-.2.93-.2 1.63-.07 2.17.13.55.37.9.58 1.14.23.24.56.3.81.22a3.4 3.4 0 0 1 1.63-.09.9.9 0 0 0 .7-.15c.2-.13.36-.37.36-.68V36.8a.8.8 0 0 0-.8-.8H29Z" fill="#079"/></svg>