<!-- by TradingView --><svg width="56" height="56" viewBox="0 0 56 56" xmlns="http://www.w3.org/2000/svg"><path fill="#F0F3FA" d="M0 0h56v56H0z"/><path d="M24 16v2H13.5l-.5 8c1.2-.8 3.83-1 5-1 4.8 0 7 3.5 7 6 0 6-4 8-8 8-3.2 0-6-.67-7-1l1-2c.5.33 2.4 1 6 1 4.5 0 6-3 6-6s-3-4-5-4c-1.6 0-3.67.67-4.5 1H11l.5-12H24ZM43.95 29c.03-.33.05-.66.05-1H26c0 .34.02.67.05 1h17.9Zm-.46 2H26.5c.12.34.27.68.43 1h16.12c.16-.32.3-.66.43-1Zm-1.78 3H28.29c.32.36.68.7 1.05 1h11.32c.37-.3.73-.64 1.05-1Zm-2.58 2h-8.26a8.96 8.96 0 0 0 8.26 0Zm-12.9-10h17.55a8.94 8.94 0 0 0-.3-1H26.52c-.11.33-.21.66-.29 1Zm1.29-3h14.96c-.23-.35-.49-.69-.77-1H28.29c-.28.31-.54.65-.77 1Zm1.82-2h11.32a8.96 8.96 0 0 0-11.32 0Z" fill="#365EAB"/><path d="M34.13 36c-.52.27-1.06.48-1.63.65a9 9 0 0 0 6.63-.65h-5Zm1.53-1h5c.37-.3.73-.64 1.05-1h-5c-.32.36-.68.7-1.05 1Zm2.4-3h5c.16-.32.3-.66.43-1h-5c-.12.34-.27.68-.43 1Zm.89-3h5c.03-.33.05-.66.05-1h-5c0 .34-.02.67-.05 1Zm-.17-3h5a8.94 8.94 0 0 0-.3-1h-5c.12.33.22.66.3 1Zm-1.3-3h5c-.23-.35-.49-.69-.77-1h-5c.28.31.54.65.77 1Zm-1.82-2a8.97 8.97 0 0 0-3.16-1.65A9 9 0 0 1 40.66 21h-5Z" fill="#00B9F2"/><path d="M44.33 24.39a10 10 0 1 0-14.74 12.02l-1.44 1.44A11.99 11.99 0 0 1 35 16a12 12 0 0 1 11.23 7.76l-1.9.63Z" fill="#365EAB"/><path d="M45 28a10 10 0 0 1-14.71 8.82l-1.12 1.67a12 12 0 0 0 17.29-14.07l-1.9.64A10 10 0 0 1 45 28Z" fill="#365EAB" fill-opacity=".6"/></svg>