<!-- by TradingView --><svg width="56" height="56" viewBox="0 0 56 56" xmlns="http://www.w3.org/2000/svg"><path fill="#F0F3FA" d="M0 0h56v56H0z"/><path d="M48 26h-3.46c-.17-1.44-1.22-3-2.74-3-2.52 0-2.8 2.9-2.8 5 0 2.11.24 5 2.78 5 1.46 0 2.54-1.59 2.76-3.02L48 30c-.28 3.28-3.04 6-6.29 6-4.46 0-6.71-3.94-6.71-8 0-4.04 2.27-8 6.71-8 3.38 0 5.99 2.6 6.29 6ZM22 36V20h6.37c3.15 0 5.63 1.64 5.63 5 0 3.43-2.57 5-5.74 5h-3.93v-3h3.24C29 27 30 26.56 30 25s-1-2-2.43-2H26v13h-4ZM8 36V20h4v7h5v-7h4v16h-4v-6h-5v6H8Z" fill="#FF0923"/></svg>