<!-- by TradingView --><svg width="56" height="56" viewBox="0 0 56 56" xmlns="http://www.w3.org/2000/svg"><path fill="#F0F3FA" d="M0 0h56v56H0z"/><path fill-rule="evenodd" d="M45 28a17 17 0 1 1-34 0 17 17 0 0 1 34 0Zm-.82 0a16.18 16.18 0 1 1-32.36 0 16.18 16.18 0 0 1 32.36 0ZM38.6 38.6a15 15 0 1 0-21.22-21.2 15 15 0 0 0 21.22 21.2Zm-7.29-24.4c-1.14-.26-2.25-.39-3.31-.38-1.06 0-2.17.13-3.31.4-.2.04-.2.08 0 .1a11.16 11.16 0 0 1 3.32.96 11.2 11.2 0 0 1 3.3-.96c.2-.03.2-.07 0-.11Zm-7.85 9.48a8.4 8.4 0 0 0-6.81 4.4c-.13.22-.2.2-.2-.05v-4.05c-.02-1.6.1-2.8.36-3.59A7.68 7.68 0 0 1 21 15.77a7.63 7.63 0 0 1 6.06 0 .1.1 0 0 1 .01.1 8.5 8.5 0 0 0-3.46 7.63c.01.1-.04.17-.14.18Zm8.9-.19c0 .1.05.17.16.18a8.39 8.39 0 0 1 6.8 4.4c.13.22.19.2.19-.05v-4.04c.03-1.61-.09-2.8-.35-3.6a7.62 7.62 0 0 0-10.23-4.61.1.1 0 0 0-.01.1 8.48 8.48 0 0 1 3.45 7.62ZM28 16.31h.06a7.68 7.68 0 0 1 3.5 7.26.13.13 0 0 1-.13.13 8.72 8.72 0 0 0-3.4.93h-.05a8.75 8.75 0 0 0-3.4-.93.13.13 0 0 1-.13-.12 7.68 7.68 0 0 1 3.52-7.27H28Zm12.35 6.48v11.89c0 .07.03.08.1.05a.54.54 0 0 0 .17-.23 14.22 14.22 0 0 0-.28-13.5c-.15-.3-.2-.28-.16.05v.07c.1.61.17 1.1.17 1.67Zm-24.69 5.09c-.02 3.58 0 5.45 0 5.53v1.2c0 .26-.02.34-.14.1a14.3 14.3 0 0 1-1.7-6.85c.02-2.38.57-4.66 1.75-6.82.12-.23.18-.22.17.05l-.03.47-.05.78v5.54Zm1 8.6a14.25 14.25 0 0 0 6.88 4.97.08.08 0 0 0 .07-.09V24.62a.1.1 0 0 0-.1-.1 7.54 7.54 0 0 0-6.91 6.22c-.1.52-.14 1.36-.13 2.54v2.54c0 .26.06.48.19.66Zm8.63-9.74c-.14.14-.37.41-.7.8-.1.12-.15.1-.15-.05v-2.83c0-.1.05-.15.14-.14a7.5 7.5 0 0 1 2.4.59c.11.04.12.1.02.17-.68.47-1.25.96-1.71 1.46Zm3.7-1.46a11.16 11.16 0 0 1 2.43 2.28c.1.12.15.1.15-.06v-2.84c0-.1-.04-.15-.14-.14-.85.07-1.66.26-2.41.59-.11.04-.11.1-.02.17Zm9.91 11.77a14.25 14.25 0 0 1-6.44 4.4.08.08 0 0 1-.06-.05l-.01-.04V24.61a.1.1 0 0 1 .1-.1 7.54 7.54 0 0 1 6.9 6.22c.1.52.14 1.37.13 2.54v2.55c0 .26-.06.48-.18.66a7 7 0 0 1-.44.57Zm-10.87-11.4h-.07a9.72 9.72 0 0 0-3.38 3.4v.06a9.79 9.79 0 0 0 3.4 3.38h.06a9.72 9.72 0 0 0 3.38-3.4v-.07a9.72 9.72 0 0 0-3.4-3.37ZM28 33.43c.04 0 .07 0 .1-.02a10.44 10.44 0 0 0 3.32-2.83c.1-.14.16-.12.16.05v10.95a.18.18 0 0 1-.14.18 14.12 14.12 0 0 1-6.86 0 .18.18 0 0 1-.14-.17V30.63c0-.17.04-.19.15-.05.9 1.17 2 2.11 3.32 2.83.03.02.06.02.1.02Z" fill="#010101"/></svg>