<!-- by TradingView --><svg width="56" height="56" viewBox="0 0 56 56" xmlns="http://www.w3.org/2000/svg"><path fill="#F0F3FA" d="M0 0h56v56H0z"/><path d="M20 30.67c-.58.86-1.3 1.18-2.34 1.3a4 4 0 0 1-4.58-3.51c-.36-2.25.49-4.62 2.8-5.3.6-.17 1.25-.2 1.93-.1.99.14 1.65.53 2.19 1.36V23h2v9h-2v-1.33Zm-5.23-3.12c-.01 1.58.92 2.76 2.56 2.78 1.65.02 2.67-.82 2.67-2.78s-1.02-2.87-2.67-2.89c-1.64-.02-2.54 1.3-2.56 2.89ZM27.44 23.04l.56 1.78v.02l-.02.01-2.96.93h-.01l-.01.02V32h-1.99l-.01-.03V23.01l.03-.01H25v.71a.03.03 0 0 0 .02.02h.02l2.36-.71h.02c.01 0 .02 0 .02.02ZM6.07 26.53c-.54 1.75.38 3.78 2.46 3.81a3.36 3.36 0 0 0 2.65-1.04.04.04 0 0 1 .02 0l1.03 1.02c.02.02.02.04 0 .06a4.18 4.18 0 0 1-2.4 1.47c-3.44.76-6.18-1.43-5.8-4.98a4.19 4.19 0 0 1 3.61-3.8c1.6-.24 3.36.13 4.48 1.35.02.02.02.04 0 .07l-1 1.17c-.01.02-.03.02-.05 0a3.4 3.4 0 0 0-2.48-.97c-1.23 0-2.17.68-2.52 1.84ZM32.5 23a4.3 4.3 0 0 1 4.5 4.5 4.3 4.3 0 0 1-4.5 4.5 4.3 4.3 0 0 1-4.5-4.5 4.3 4.3 0 0 1 4.5-4.5Zm-2.63 4.52c0 1.58.99 2.88 2.63 2.88s2.63-1.3 2.63-2.88c0-1.58-.99-2.88-2.63-2.88s-2.63 1.3-2.63 2.88ZM40 25.06c0 .02.02.03.03.02l1.89-.58h.02v.01l.55 1.77a.03.03 0 0 1-.02.03l-2.43.75c-.02 0-.04.02-.04.05v1.66c0 .73.08 1.55 1.02 1.49.31-.02.7-.14 1.17-.36.03-.02.05 0 .06.02l.44 1.42v.01l-.01.01c-.36.22-.76.38-1.18.5-2.05.58-3.5-.7-3.5-2.72a5539.42 5539.42 0 0 0 .01-6.13l.02-.01H40v2.06ZM45.87 28.84c.67 1.63 2.48 2.04 3.9 1.2.32-.19.65-.47.97-.85.01-.02.03-.02.05 0l1.01.98c.02.02.02.04 0 .06A4.44 4.44 0 0 1 48.3 32c-2.09.05-3.91-1.1-4.4-3.28-.43-1.9.12-4.05 1.8-5.09a4.45 4.45 0 0 1 2.33-.63c2.28-.04 3.84 1.5 3.97 3.84v.02l-.03.02-6.08 1.9c-.03.02-.03.03-.02.06Zm-.27-1.79v.04c.01.01.02.02.03.01l4.44-1.4h.01l.01-.01a.03.03 0 0 0 0-.03c-.31-.56-.75-.91-1.33-1.04a2.93 2.93 0 0 0-1.87.2c-.84.43-1.2 1.26-1.29 2.23Z" fill="#080303"/></svg>