<!-- by TradingView --><svg width="56" height="56" viewBox="0 0 56 56" xmlns="http://www.w3.org/2000/svg"><path fill="#F0F3FA" d="M0 0h56v56H0z"/><path d="M36.26 15.64c-3.3-3.1-10.6-1.7-16.94 3.35-6.77 5.39-10.5 12.12-6.96 16.84 3.53 4.73 10.78 2.72 17.55-2.67 5.56-4.43 8.67-10.3 7.97-14.43l-1.63 1.18c-.16 3.24-3.4 8.04-8.32 11.9-6.15 4.84-12.6 6.41-14.4 3.52-1.8-2.9 1.71-9.16 7.86-13.99 5.2-4.1 10.63-5.85 13.26-4.53l1.61-1.17Z" fill="#11A1F2"/><path d="M19.73 40.36c3.31 3.1 10.6 1.7 16.95-3.35 6.77-5.39 10.5-12.12 6.96-16.84-3.53-4.73-10.78-2.72-17.55 2.67-5.3 4.22-8.37 9.73-8.04 13.82l1.7-.5c.1-3.24 3.36-8.08 8.32-11.98 6.14-4.83 12.59-6.4 14.4-3.5 1.8 2.89-1.71 9.15-7.86 13.98-5.2 4.1-10.63 5.85-13.26 4.53l-1.62 1.17Z" fill="#07055B"/></svg>