<!-- by TradingView --><svg width="56" height="56" viewBox="0 0 56 56" xmlns="http://www.w3.org/2000/svg"><path fill="#F0F3FA" d="M0 0h56v56H0z"/><path d="M45 28a17 17 0 1 1-34 0 17 17 0 0 1 34 0ZM28 43.5a15.5 15.5 0 1 0 0-31 15.5 15.5 0 0 0 0 31Zm0-1.5a14 14 0 1 0 0-28 14 14 0 0 0 0 28Zm-8-21h7v6h-7v-6Zm-2-2h20v18H18V19Zm18 2h-7v6h7v-6Zm0 8h-7v6h7v-6Zm-9 0h-7v6h7v-6Z" fill="#EA1821"/><circle cx="19" cy="20" r="1" fill="#FF5E58"/><circle cx="28" cy="20" r="1" fill="#FF5E58"/><circle cx="37" cy="20" r="1" fill="#FF5E58"/><circle cx="19" cy="28" r="1" fill="#FF5E58"/><circle cx="28" cy="28" r="1" fill="#FF5E58"/><circle cx="37" cy="28" r="1" fill="#FF5E58"/><circle cx="19" cy="36" r="1" fill="#FF5E58"/><circle cx="28" cy="36" r="1" fill="#FF5E58"/><circle cx="37" cy="36" r="1" fill="#FF5E58"/></svg>