<!-- by TradingView --><svg width="56" height="56" viewBox="0 0 56 56" xmlns="http://www.w3.org/2000/svg"><path fill="#F0F3FA" d="M0 0h56v56H0z"/><path d="M28 12c2.12 0 4.16.4 6.12 1.22a15.84 15.84 0 0 1 8.66 8.66 15.84 15.84 0 0 1 0 12.24 15.84 15.84 0 0 1-8.66 8.66 15.84 15.84 0 0 1-12.24 0 15.84 15.84 0 0 1-8.66-8.66 15.84 15.84 0 0 1 0-12.24 15.84 15.84 0 0 1 8.66-8.66c1.96-.81 4-1.22 6.12-1.22Zm-10.9 7c-.07 0-.1.03-.1.1v3.36c0 .1.06.15.17.15h1.77c.05 0 .06.03.06.07.03 2.76.03 5.61 0 9.04-.02 3.18 1.2 3.98 4.22 4.17 1.34.09 2.62.08 3.83-.02.05 0-.05.02-.05.07v4.94c0 .08.17.12.25.12h3.66c.05 0 .09-.03.09-.08v-6.8c0-.08.08-.12.17-.12 1.96 0 4.29.05 5.93-.08 1.63-.13 3.1-.81 3.52-2.47.55-2.14.77-4.76-.57-6.67C38.95 23.2 36.9 23 35.12 23h-10c-.08 0-.12.03-.12.1v2.8c0 .06.03.1.09.1l1.96-.01c.05 0-.05.02-.05.07 0 2.44.02 4.46 0 6.07 0 .51-.18.78-.72.82-.8.05-1.62.05-2.42 0-1-.08-.85-.96-.85-1.76l-.01-.18c0-5.1.02-7.7.01-8.28 0-.04.03-.07.07-.07l1.8-.05c.08 0 .12-.08.12-.15v-3.37c0-.06-.04-.09-.1-.09h-7.8Zm18.21 7c.49 0 .9.15 1.24.46.35.3.52.67.52 1.1v1.88c0 .43-.17.8-.52 1.1-.34.3-.75.46-1.24.46h-4.2c-.03 0-.04-.01-.04-.04v-4.92c0-.03.01-.04.04-.04h4.2Z" fill="#E80113"/></svg>