<!-- by TradingView --><svg width="56" height="56" viewBox="0 0 56 56" xmlns="http://www.w3.org/2000/svg"><path fill="#F78F1E" d="M0 0h56v56H0z"/><path fill-rule="evenodd" d="M43 28a15 15 0 1 1-30 0 15 15 0 0 1 30 0Zm2 0a17 17 0 1 1-34 0 17 17 0 0 1 34 0Zm-28 3.09c-.65-.33-1.23-.74-.9-1.56 1.6-3.97 2.58-6.37 2.95-7.2.25-.55.14-.9 0-1.31 0-.04-.02-.07-.03-.1a.38.38 0 0 1 .18-.46.4.4 0 0 1 .18-.05l7.64-.48c.11 0 .13-.05.05-.13l-.2-.19c-.23-.22-.23-.45 0-.68l.85-.82c.15-.15.3-.15.46 0l.88.87c.09.08.11.17.07.28l-.2.59c-.05.11 0 .17.12.17 2.15 0 4.5.13 7.06.37.26.02.48.08.66.17a.4.4 0 0 1 .21.26.4.4 0 0 1-.07.34.86.86 0 0 0-.13.9c1.47 3.65 2.52 6.2 3.15 7.65.18.41 0 .77-.52 1.08a5.88 5.88 0 0 1-6.14.03.9.9 0 0 1-.42-1.14c1.44-3.62 2.48-6.21 3.13-7.77.1-.22.23-.4.42-.55.1-.08.13-.18.06-.3-.09-.14-.25-.2-.48-.17-.92.1-2.28.28-4.07.52-2.2.3-3.6 1-3.1 3.52.1.54.22 1.06.33 1.55.44 2.06.78 3.63.24 5.1l-.45 1.23a.36.36 0 0 0 .06.33c.57.71.76 1.49.6 2.32-.04.14.01.24.14.3.89.37 1.43.59 1.64.64.83.2 1.14.67.95 1.4-.04.14-.12.2-.25.2h-8.32c-.14 0-.2-.06-.22-.2-.06-.5-.05-.83.47-1.13a8.5 8.5 0 0 1 2.14-.85c.12-.03.19-.11.2-.23.02-.13-.01-.27-.04-.4a1.45 1.45 0 0 1-.04-.34c.03-.64.23-1.2.6-1.65a.59.59 0 0 0 .07-.62 6.21 6.21 0 0 1-.54-3.93c.38-1.9.64-3.32.77-4.24.2-1.37-.35-2.25-1.65-2.65-1.07-.33-3-.6-5.78-.82-.16-.01-.23.06-.23.2s.05.24.15.31c.1.07.17.16.22.26l3.2 7.95a.9.9 0 0 1-.38 1.12 6.76 6.76 0 0 1-4.75.8c-.16-.04-.32-.1-.5-.22a4.37 4.37 0 0 0-.44-.27Zm19.38-7.93c.27 0 .47.17.6.5a131.1 131.1 0 0 0 2.33 6.04.2.2 0 0 1-.11.16.21.21 0 0 1-.1.02h-2.3c-.13 0-.2-.06-.2-.2l.01-5.37c0-.41-.07-.62-.23-.62s-.24.2-.24.62l-.05 5.37c0 .13-.07.2-.2.2l-2.3-.02a.22.22 0 0 1-.09-.03.2.2 0 0 1-.06-.05l-.01-.01a.2.2 0 0 1-.02-.2c.83-1.93 1.62-3.9 2.37-5.9.12-.35.33-.51.6-.51Zm-16.6 6.49v-6.32a.08.08 0 0 1 .08-.07.07.07 0 0 1 .04.02c.08.07.14.14.17.21a383.61 383.61 0 0 0 2.5 6.26.17.17 0 0 1-.03.08.17.17 0 0 1-.14.07h-2.36c-.18 0-.26-.08-.26-.25Zm-.41-.03-.1-6.25a.07.07 0 0 0-.04-.07.07.07 0 0 0-.08.02.54.54 0 0 0-.16.21 364.35 364.35 0 0 1-2.39 6.23.16.16 0 0 0 .1.13.17.17 0 0 0 .07.02l2.34-.04c.17 0 .26-.09.26-.25Z" fill="#FDDAC8"/></svg>