<!-- by TradingView --><svg width="56" height="56" viewBox="0 0 56 56" xmlns="http://www.w3.org/2000/svg"><path fill="#F0F3FA" d="M0 0h56v56H0z"/><path d="M5.82 36h12.55l1.3-3.4h-9.02l.7-1.92h8.31l1.17-3h-8.71l.77-2.03h8.28L22.94 22h-9.27a3.64 3.64 0 0 0-3.7 2.24L5.81 36Z"/><path d="M5 35h12.55l1.3-3.4H9.82l.59-1.6h8.32l1.16-3.07h-8.7l.87-2.28h8.28L22.12 21h-9.27a3.64 3.64 0 0 0-3.71 2.24L5 35Z" fill="#D1D2D2"/><path d="M32.3 22h-7.08l3.88 9.87L32.3 22Z" fill="#8E8E8E"/><path d="M31.57 21H24.5l4.15 9.48L31.57 21Z" fill="#FF4F00"/><path d="M21.27 36h7.28l-4.41-9.8-2.87 9.8Z" fill="#8E8E8E"/><path d="M20.6 35h7.08l-4.15-9.2-2.92 9.2Z" fill="#FF4F00"/><path d="m35.9 22-4.97 14h3.93l3.84-11h2.1l-4.2 11h3.58l4.01-11h1.92l-4.14 11h1.96c1.47-.2 2.07-.95 2.18-1.3L51 22H35.9Z"/><path d="m34.9 21-4.97 14h3.92l3.84-11h2.1l-4.2 11h3.59l4.01-11h1.92l-4.14 11h1.96c1.46-.2 2.06-.95 2.18-1.3L50 21H34.9Z" fill="#D1D2D2"/></svg>