<!-- by TradingView --><svg xmlns="http://www.w3.org/2000/svg" width="56" height="56"><path fill="#F0F3FA" d="M0 0h56v56H0z"/><path d="M32.62 19H21l-4.83-4.83a.1.1 0 01.07-.17H35s4.87 0 7.5 3.88c1.2 1.77 1.5 3.97 1.5 5.96 0 1.66-.42 3.17-.86 4.17-2.3 5.32-7.98 5.93-9.66 5.99a.47.47 0 01-.48-.48V29.5c0-.28.22-.5.49-.53 1.43-.15 5.51-.94 5.51-5.13 0-5.09-6.38-4.84-6.38-4.84z" fill="url(#a5a3jpjtk)"/><path d="M31.5 29h-4a.5.5 0 00-.5.5v5.18S27 39 23.5 39 20 34.6 20 34.6V20l-4.83-4.83a.1.1 0 00-.17.07v21.89S15 44 23.3 44c8.28 0 8.7-6.56 8.7-6.56V29.5a.5.5 0 00-.5-.5z" fill="url(#b5a3jpjtk)"/><path d="M31.49 28h-4a.5.5 0 01-.5-.5V26h-.89c-.05 0-.1-.03-.1-.07 0-.04 0-.08.04-.1l3.18-2.7a.5.5 0 01.34-.13.5.5 0 01.31.13l3.1 2.7c.04.03.03.08.02.11-.02.04-.04.06-.08.06H32v1.5a.5.5 0 01-.51.5z" fill="#BD2532"/><defs><linearGradient id="a5a3jpjtk" x1="47.13" y1="19.05" x2="9.3" y2="18.53" gradientUnits="userSpaceOnUse"><stop offset=".15" stop-color="#1D72AC"/><stop offset=".29" stop-color="#189ACF"/><stop offset=".43" stop-color="#35B1E4"/><stop offset=".56" stop-color="#37A7D6"/><stop offset=".83" stop-color="#1B91C6"/></linearGradient><linearGradient id="b5a3jpjtk" x1="10.85" y1="24.19" x2="41.17" y2="31.32" gradientUnits="userSpaceOnUse"><stop offset=".11" stop-color="#E46738"/><stop offset=".2" stop-color="#EA9A49" stop-opacity=".94"/><stop offset=".31" stop-color="#EFC357" stop-opacity=".9"/><stop offset=".46" stop-color="#ECAE4F"/><stop offset=".54" stop-color="#E99143"/><stop offset=".7" stop-color="#E35534"/></linearGradient></defs></svg>