<!-- by TradingView --><svg width="56" height="56" viewBox="0 0 56 56" xmlns="http://www.w3.org/2000/svg"><path fill="#F0F3FA" d="M0 0h56v56H0z"/><path fill-rule="evenodd" d="M45.26 20H8v13.1c0 1.6 1.23 2.9 2.74 2.9H48V22.9c0-1.6-1.23-2.9-2.74-2.9ZM12 23h7v2.26h-.15c0-.95-.83-1.71-1.74-1.71h-2.1v3.94h1.7c.5 0 .9-.42.9-.93v-.29H18V29h-.39v-.05c0-.51-.4-.95-.9-.95h-1.7v2.97c0 .77.6 1.4 1.34 1.4h1.23c.75 0 1.42-.63 1.42-1.4v-.44h.34V33H12v-.38h.32c.38 0 .68-.31.68-.7v-7.8c0-.39-.3-.7-.68-.7H12V23Zm17.7 5.7H26v.3h.15c.5 0 .85.28.85.8v1.63c.03.35-.57 1.06-2.02 1.06-1.82 0-2.98-2.56-2.98-3.92 0-1.36.24-5.02 2.98-5.02 2.19 0 3.2 1.54 3.43 2.3h.15v-2.71h-.15c-.59.74-.72.66-1.13.42A5.02 5.02 0 0 0 20 28.12c0 2.8 2.1 4.88 5.15 4.88 2.44 0 3.65-.52 3.85-.79V29.8c0-.5.21-.8.7-.8v-.29ZM30 23h4v.3h-.1c-.47 0-.9.42-.9.93v7.55c0 .52.43.93.9.93h.1V33h-4v-.29h.21c.47 0 .79-.41.79-.93v-7.55c0-.51-.32-.93-.79-.93H30V23Zm14 8.08v-.7a3.63 3.63 0 0 1-3.01 1.75c-2.02 0-3.99-1.75-3.99-3.81s.82-4.75 3.4-4.75c2.07 0 3.02 2 3.23 3H44V23h-.37c-.36.67-.58.6-1.15.4-.46-.16-1.15-.4-2.32-.4A5.15 5.15 0 0 0 35 28.09c0 2.96 2.37 4.91 5.16 4.91 2.23 0 3.49-1.28 3.84-1.92Z" fill="url(#a)"/><defs><linearGradient id="a" x1="10.67" y1="28" x2="45.39" y2="28" gradientUnits="userSpaceOnUse"><stop stop-color="#29417D"/><stop offset="1" stop-color="#03A8E9"/></linearGradient></defs></svg>