<!-- by TradingView --><svg width="56" height="56" viewBox="0 0 56 56" xmlns="http://www.w3.org/2000/svg"><path fill="#F0F3FA" d="M0 0h56v56H0z"/><path d="M43 13H13v18.4c1.72-1.57 4.47-3.25 7.85-4.77l-1.43 2.77c-1.34.7-2.52 1.4-3.5 2.1a11.2 11.2 0 0 0-2.6 2.34c-.18.27-.28.46-.32.58v.15c.1.07.3.18.71.3.64.18 1.56.3 2.73.3L15.5 37c-.97-.05-1.82-.18-2.5-.4V43h30V27.63a28.23 28.23 0 0 1-6.34 4.06l-.86-1.67a32.48 32.48 0 0 0 4.29-2.5 11.2 11.2 0 0 0 2.58-2.34c.2-.26.29-.45.33-.57v-.15c-.1-.07-.3-.19-.71-.3-.79-.23-1.98-.35-3.57-.3a35.2 35.2 0 0 0-5.7.76l-.9-1.71c4.66-1.01 8.63-1.19 10.88-.49V13Zm-15.5 2L40 40h-3.24L34 34.49V35h-2v5h-2v-.79a5.7 5.7 0 0 1-2.9.79c-3.09 0-5.64-2.5-6-5.72L18.24 40H15l12.5-25Zm-3.1 12.69 3.1-6.2 3.53 7.06a5.78 5.78 0 0 0-6.63-.86ZM32.26 31h-1.93A3.9 3.9 0 0 0 27 29c-2.2 0-4 2.01-4 4.5s1.8 4.5 4 4.5c1.2 0 2.27-.59 3-1.52V35h-1v-2h4.26l-1-2Z" fill="#E72510"/></svg>