<!-- by TradingView --><svg width="56" height="56" viewBox="0 0 56 56" xmlns="http://www.w3.org/2000/svg"><path fill="#F0F3FA" d="M0 0h56v56H0z"/><path d="M29.73 23.73c0 .01 0 .02.02.02h4.7a.1.1 0 0 1 .08.03.1.1 0 0 1 .02.09l-2.7 10.59c-.05.18-.07.34-.07.48 0 .04.03.06.07.06h3.44c.12 0 .2-.07.25-.2l.06-.29.05-.27c1.05-4.15 1.88-7.32 2.3-8.93.1-.45.22-.93.32-1.45 0-.07.05-.1.12-.1h5.4c.1 0 .14.04.16.13.03.3.05.82.05 1.56 0 1.99-.7 3.97-2.13 5.94a17.7 17.7 0 0 1-4.73 4.43 25.45 25.45 0 0 1-14.92 4.16 18.3 18.3 0 0 1-3.61-.48c-1.22-.29-2.35-.7-3.4-1.21-.81-.41-1.6-.94-2.35-1.6a8.27 8.27 0 0 1-2.5-3.8 8.98 8.98 0 0 1-.32-1.72 3.14 3.14 0 0 1-.02-.74c0-.17.04-.45.1-.82l.04-.24c.05-.4.1-.69.17-.9a12.92 12.92 0 0 1 3.22-5.5 21.36 21.36 0 0 1 7.37-4.94 27.37 27.37 0 0 1 6.74-1.82c.21-.04.51-.08.9-.1l.6-.05a23.33 23.33 0 0 1 5.25.23c2.38.39 4.43 1.2 6.15 2.46a8.62 8.62 0 0 1 2.86 3.51c.1.24.18.46.22.67.01.06-.01.07-.07.07H29.78c-.03 0-.05.03-.05.07v.66Zm-4.61 5.73c.4-.01.94-.02 1.61 0l.36-.04c.04-.01.06-.04.07-.07a2002.98 2002.98 0 0 0 1.34-5.27c.1-.35.16-.67.2-.97 0-.04-.02-.06-.06-.06-.28-.03-.74-.03-1.38-.02a30.47 30.47 0 0 1-1.67.01 410.11 410.11 0 0 0-8.66.04c-.04 0-.07.02-.08.06-1.08 4.3-2.05 8.25-2.85 11.37a1.9 1.9 0 0 0-.05.44c0 .03.01.05.04.05h3.59c.1 0 .15-.06.17-.15L20.5 23.9c.02-.1.09-.14.19-.14h4c.03 0 .05 0 .06.03.02.02.02.04.02.06l-1.22 4.81c0 .05-.04.08-.09.08-.24.03-.5.03-.79.02l-.56-.02a8.62 8.62 0 0 0-1.41.02c-.05 0-.06.03-.05.07.03.16.07.3.11.42 1.1 2.92 1.68 4.84 1.84 5.28a1 1 0 0 0 .2.36c.05.06.12.1.21.11h3.7c.04 0 .07-.03.06-.08a3.3 3.3 0 0 0-.13-.66c-.78-2.26-1.27-4-1.54-4.76 0-.02 0-.04.03-.04Z" fill="#F18101"/></svg>