<!-- by TradingView --><svg width="56" height="56" viewBox="0 0 56 56" xmlns="http://www.w3.org/2000/svg"><path fill="#181B1E" d="M0 0h56v56H0z"/><path d="M23 27a1 1 0 1 1-2 0 1 1 0 0 1 2 0ZM29 33.7a6.27 6.27 0 0 1-4 1.3 6.58 6.58 0 0 1-4-1.3l.44-.7c.01 0 1.43 1.14 3.56 1.14 2.23 0 3.5-1.08 3.54-1.12l.46.68ZM27.5 23H26c.38.4.63.93.63 1.5h.9c.88 0 1.78-.23 2.47-.83L29.43 22c-.5.48-1.26 1-1.93 1Z" fill="#fff"/><path d="M24.07 23H20v1.5h3.82c.12 0 .68.03.68.69V32H26v-7.26c0-.8-.5-1.74-1.93-1.74ZM9.5 28.06c0 1.64-.62 2.44-2 2.44s-2-.8-2-2.44V23H4v5.3C4 30.47 5.27 32 7.5 32c2.24 0 3.5-1.54 3.5-3.7V23H9.5v5.06ZM18.43 27.25a2.1 2.1 0 0 0 1.12-1.83c0-1.73-1.53-2.42-3.06-2.42H13v9h3.5c1.64 0 3.5-.74 3.5-2.66 0-.98-.64-1.8-1.57-2.1ZM14.5 24.5h2c.76 0 1.5 0 1.5.92s-.68 1.08-1.5 1.08H16V28h.48c.92 0 2.02.19 2.02 1.33 0 1.13-1.08 1.17-2 1.17h-2v-6ZM41.55 30.5c-1.98 0-3.05-1.08-3.05-3 0-1.9 1.07-3 3.03-3 .7 0 1.45.1 2.1.37l.37-1.41a6.5 6.5 0 0 0-2.48-.46A4.3 4.3 0 0 0 37 27.5c0 2.75 1.77 4.5 4.52 4.5.86 0 1.7-.15 2.48-.5l-.37-1.44c-.66.3-1.36.44-2.08.44ZM50.5 23v3.5h-4V23H45v9h1.5v-4h4v4H52v-9h-1.5ZM36 27h-3v1.5h3V27Z" fill="#fff"/><path d="M32.64 23A2.59 2.59 0 0 0 30 25.68v3.61C30 31 31.14 32 32.66 32H36v-1.5h-3.18c-.82 0-1.37-.45-1.32-1.3v-3.36c0-.8.5-1.34 1.32-1.34H36V23h-3.36Z" fill="#fff"/></svg>