<!-- by TradingView --><svg width="56" height="56" viewBox="0 0 56 56" xmlns="http://www.w3.org/2000/svg"><path fill="#F0F3FA" d="M0 0h56v56H0z"/><path d="M12.6 22a9.9 9.9 0 0 1 3.14.58c.02.01.03.02.02.04l-.66 2.06a.03.03 0 0 1-.03.02h-.01a7.52 7.52 0 0 0-3.26-.51 2.3 2.3 0 0 0-1.07.33c-.37.24-.53.58-.42 1.02.05.19.24.4.38.5.18.13.48.3.74.4l.75.28c1.27.42 2.47.77 3.37 1.72.21.23.37.45.48.68.41.87.37 1.95-.12 2.78-.31.54-.76.97-1.34 1.28-.59.33-1.2.55-1.84.66-1.76.3-3.5.19-5.2-.34-.12-.03-.29-.1-.53-.2v-.03l.61-2.12c0-.02.02-.03.04-.02 1.04.43 2.12.67 3.25.71.28.01.6-.01.86-.05.48-.07 1.08-.3 1.3-.74.22-.41.12-.9-.23-1.22-.23-.2-.5-.37-.83-.5-.39-.15-.9-.33-1.5-.52a7.52 7.52 0 0 1-2.04-1c-.43-.3-.87-.8-1.07-1.28a2.8 2.8 0 0 1 .35-2.73c.3-.4.67-.74 1.14-1a5.6 5.6 0 0 1 1.8-.66 11 11 0 0 1 1.33-.14h.59ZM28 32v1.99l-.02.01h-7.97l-.01-.02V22l.02-.01H23v10h5Z" fill="#626466"/><path d="M49 27.55v.42a5.54 5.54 0 0 1-3.68 5.25c-.84.3-1.65.52-2.43.61-1 .12-1.7.18-2.1.17l-1.7-.04a27.35 27.35 0 0 1-2.08-.14L37 33.8V22.29c0-.02.01-.03.03-.04l.42-.07a32.9 32.9 0 0 1 4.5-.17c.58.02 1.35.12 1.89.2a8.03 8.03 0 0 1 2.97 1.15 4.79 4.79 0 0 1 2.14 3.57l.05.62Zm-2.91 1.73c.18-.66.24-1.36.16-2.1-.19-1.83-1.58-3.04-3.35-3.35a8.88 8.88 0 0 0-2.85-.04c-.03 0-.05.02-.05.05v8.34c0 .02.02.04.04.04a7.4 7.4 0 0 0 3.23-.24 3.97 3.97 0 0 0 2.82-2.7Z" fill="#C4141B"/><path d="M49 36v1H37v-.97c0-.02.01-.03.03-.03H49Z" fill="#626466"/></svg>