<!-- by TradingView --><svg width="56" height="56" viewBox="0 0 56 56" xmlns="http://www.w3.org/2000/svg"><path fill="#F0F3FA" d="M0 0h56v56H0z"/><path d="M6.37 25 4 31h1.22l2.07-5.31h-.65L8.74 31H10l-2.38-6H6.37ZM30.37 25 28 31h1.22l2.07-5.31h-.65l2.1 5.31H34l-2.38-6h-1.25ZM24.37 31 22 25h1.22l2.07 5.31h-.65l2.1-5.31H28l-2.38 6h-1.25ZM35 31v-5h-1v-1h3v1h-1v5h-1ZM17 31v-5h-1v-1h3v1h-1v5h-1ZM20 27.5V25h1v2.5h-1ZM20 31v-2.5h1V31h-1ZM38 27.5V25h1v2.5h-1ZM38 31v-2.5h1V31h-1ZM47 31v-6h1l3.26 4.32-.26.18V25h1v6h-1l-3.26-4.32.26-.18V31h-1ZM14.66 29.1a2 2 0 1 1-.12-2.38l.76-.64a3 3 0 1 0 .2 3.58l-.84-.55Z"/><path fill-rule="evenodd" d="M43 30a2 2 0 1 0 0-4 2 2 0 0 0 0 4Zm0 1a3 3 0 1 0 0-6 3 3 0 0 0 0 6Z"/></svg>