<!-- by TradingView --><svg width="56" height="56" viewBox="0 0 56 56" xmlns="http://www.w3.org/2000/svg"><path fill="#F0F3FA" d="M0 0h56v56H0z"/><path d="M24.79 30H12c.52-6.45 6.24-17 18.24-17 9.6 0 13.17 6.82 13.76 10.24-1.03-1.98-4.34-5.92-9.3-5.92-6.74 0-9.42 8.45-9.92 12.68Z" fill="url(#ah3sqgocu)"/><path d="M31.21 26H44c-.52 6.45-6.24 17-18.24 17-9.6 0-13.17-6.82-13.76-10.24 1.03 1.98 4.34 5.92 9.3 5.92 6.74 0 9.42-8.45 9.91-12.68Z" fill="url(#bh3sqgocu)"/><defs><linearGradient id="ah3sqgocu" x1="12.82" y1="30.5" x2="32.01" y2="8.97" gradientUnits="userSpaceOnUse"><stop stop-color="#193C76"/><stop offset="1" stop-color="#9BD1ED"/></linearGradient><linearGradient id="bh3sqgocu" x1="43.18" y1="25.5" x2="23.99" y2="47.03" gradientUnits="userSpaceOnUse"><stop stop-color="#193C76"/><stop offset="1" stop-color="#9BD1ED"/></linearGradient></defs></svg>