<!-- by TradingView --><svg width="56" height="56" viewBox="0 0 56 56" xmlns="http://www.w3.org/2000/svg"><path fill="#F0F3FA" d="M0 0h56v56H0z"/><path d="M19.1 26.56a59.6 59.6 0 0 0-2.84 4.83c-.45.85-.8 1.63-1.01 2.25-.1.3-.16.55-.18.73v.19l.02.03c0 .01 0 0 0 0 .01.01.05.03.12.03.16.01.4-.02.72-.1l.5-.12c.17-.04.36-.1.55-.13.38-.09.79-.16 1.2-.16.78 0 1.53.14 2.2.57.65.43 1.15 1.1 1.53 2.07C22.66 38.65 23 41.84 23 47h-1.06c0-5.17-.35-8.18-1.02-9.88a3.16 3.16 0 0 0-1.14-1.58c-.42-.28-.94-.4-1.6-.4-.3 0-.61.06-.96.14l-.52.12c-.18.05-.36.1-.53.13-.33.08-.7.15-1.03.13a1.16 1.16 0 0 1-.96-.54c-.19-.26-.2-.6-.17-.85.03-.29.11-.61.23-.96.23-.68.62-1.52 1.07-2.39.9-1.74 2.08-3.67 2.9-4.92l.9.56Z" fill="#A79171"/><path d="M34.45 27c2.1 0 3.55 1.38 3.55 3.5 0 2.1-1.46 3.5-3.55 3.5H32v-7h2.45ZM33 28v5h1.63c1.4 0 2.37-1 2.37-2.5 0-1.51-.97-2.5-2.37-2.5H33ZM28 27v6h3v1h-4v-7h1ZM23 27c1.95 0 3 1.7 3 3.5S24.95 34 23 34c-1.94 0-3-1.7-3-3.5s1.05-3.5 3-3.5Zm0 1c-1.3 0-2 1.22-2 2.5s.7 2.5 2 2.5 2-1.22 2-2.5c0-1.29-.7-2.5-2-2.5ZM42.5 21v-1H45v4h-.63l-.16-1.05A2.41 2.41 0 0 1 42.08 24C40.12 24 39 22.33 39 20.5c0-1.85 1.11-3.5 3.09-3.5 1.43 0 2.61.9 2.84 2.34h-.8c-.16-1-1.06-1.34-2.04-1.34-1.54 0-2.09 1.1-2.09 2.5s.55 2.5 2.09 2.5c1.28 0 2.22-.73 2.22-2H42.5ZM37 17h1v7h-1.08L33 18.5V24h-1v-7h1.08L37 22.5V17ZM31 21.31c0 1.54-.9 2.69-2.5 2.69S26 22.85 26 21.31V17h1v4.05c0 1.3.33 1.95 1.5 1.95s1.5-.65 1.5-1.95V17h1v4.31ZM14 17h5v1h-2v6h-1v-6h-2v-1ZM25 24h-1l-.7-2h-2.6l-.7 2h-1l2.56-7h.85L25 24Zm-3.95-3h1.9L22 18.27 21.05 21Z"/></svg>