<!-- by TradingView --><svg width="56" height="56" viewBox="0 0 56 56" xmlns="http://www.w3.org/2000/svg"><path fill="#F0F3FA" d="M0 0h56v56H0z"/><path d="M27 33H4.15c-.07 0-.12-.02-.15-.07V23h23v10Zm-10.87-5.7a3.6 3.6 0 0 0-1.4.06c-.48.14-.77.45-.86.93 0 .05.02.08.07.09l.93.1c.08 0 .13-.02.17-.1.09-.2.27-.3.52-.31.28-.01.44.1.48.32.02.1-.02.17-.12.2-.36.13-.8.25-1.32.37-.4.1-.67.32-.79.68a1 1 0 0 0 .17.96c.22.3.56.43 1.03.4.44-.04.79-.2 1.03-.47a.04.04 0 0 1 .05-.02c.02.01.03.02.03.04l.03.2c0 .1.07.16.18.16h.95c.05 0 .06-.02.05-.06-.1-.2-.14-.39-.14-.59 0-1.12-.01-1.74-.02-1.86-.05-.65-.4-1.02-1.04-1.1Zm-4.17 0a2.17 2.17 0 0 0-1.34.19c-.38.2-.64.54-.76 1-.12.45-.12.9 0 1.33.15.5.43.85.86 1.03.2.09.48.13.85.14.82.03 1.38-.29 1.69-.94.01-.04 0-.06-.04-.06l-1-.1c-.03-.01-.06 0-.09.02l-.16.14c-.23.2-.45.23-.66.08a.88.88 0 0 1-.34-.59c-.01-.05.01-.08.07-.08h2.23c.05 0 .08-.02.08-.07.03-.53-.05-.97-.25-1.32a1.45 1.45 0 0 0-1.14-.76Zm11.69-.02c-1.1-.04-1.7.26-1.8.9-.05.34.03.64.23.88.1.13.27.23.47.3.13.05.32.1.59.15.36.07.6.15.7.23.08.06.1.13.08.22a.33.33 0 0 1-.14.2.6.6 0 0 1-.61.03c-.1-.04-.18-.15-.27-.33-.02-.04-.05-.06-.1-.05l-1.04.11c-.03 0-.04.02-.04.05.1.55.44.87 1.02.96.56.1 1.03.08 1.4-.04.47-.15.75-.46.84-.93.05-.3 0-.57-.16-.8-.16-.23-.4-.38-.73-.46-.16-.04-.47-.1-.93-.17-.07-.01-.15-.07-.25-.17a.1.1 0 0 1-.03-.09c.04-.22.18-.32.42-.3.23.04.38.14.46.33.01.03.03.04.07.04l1.01-.11c.03 0 .04-.02.03-.04-.17-.58-.58-.89-1.22-.91ZM20.03 26c-.03 0-.04.01-.04.04v1.6l-.02.02h-.03a1.13 1.13 0 0 0-1.19-.34c-.25.06-.46.21-.64.45-.15.2-.25.45-.29.71-.08.54-.06 1.04.08 1.52.19.64.55.97 1.1.99.36.01.64-.1.83-.33.12-.13.18-.2.2-.2 0-.02.02-.02.04 0 .01 0 .02.01.02.03l-.03.31c-.01.08.03.11.1.11h.94c.04 0 .07-.02.07-.06v-4.81c0-.03 0-.04-.03-.04h-1.11ZM6.04 26c-.03 0-.04.01-.04.04v4.83c0 .02.01.04.04.04h3.3c.03 0 .05-.02.05-.04v-1.12c0-.03-.02-.04-.04-.04h-2c-.03 0-.04-.01-.04-.04v-3.63c0-.03-.01-.04-.04-.04H6.04Zm9.93 3.24c.05-.02.08 0 .08.04.03.6-.2.92-.68.98-.15.02-.27-.03-.34-.15-.15-.21-.11-.4.1-.54.12-.09.36-.19.7-.3l.14-.03Zm3.5-.98c.3 0 .54.4.54.88s-.24.87-.54.87c-.3 0-.55-.39-.55-.87 0-.49.25-.88.55-.88Zm-7.89-.2c.16 0 .3.08.4.21.12.14.17.3.17.49v.02c0 .03-.02.05-.06.05l-1.05-.01c-.04 0-.06-.02-.06-.05v-.02c0-.2.06-.35.18-.49.11-.13.25-.2.4-.2h.02Z" fill="#BC1724"/><path d="M39.94 26c.02 0 .03.02.03.04v4.93c0 .02-.01.03-.03.03H38.8c-.02 0-.03-.01-.03-.03v-4.93c0-.02.01-.03.03-.04h1.14Zm6.02.03c.03 0 .04 0 .04.04v1.83s0 .02.02.02h.03c.33-.35.65-.49 1.12-.37.26.07.47.22.65.46.15.2.25.45.3.71.08.54.05.82-.09 1.3-.2.63-.56.96-1.12.98-.36.02-.65-.1-.85-.32a4.1 4.1 0 0 0-.19-.21.05.05 0 0 0-.05 0c-.02 0-.02.02-.02.03l.03.32c.01.07-.03.18-.1.18h-.96c-.05 0-.07-.1-.07-.14v-4.82c0-.02.01-.04.04-.04l1.22.03ZM29.79 26c.71-.01 1.16.02 1.35.12.4.21.63.56.65 1.06.03.51-.18.9-.63 1.14a.03.03 0 0 0-.02.03c0 .02.01.03.03.03a.9.9 0 0 1 .62.42c.13.21.2.45.2.71.02.44-.12.82-.42 1.14-.21.23-.67.34-1.38.34l-2.11.01c-.05 0-.08-.02-.08-.07v-4.88c0-.03.02-.05.06-.05h1.73Zm4.15 1.5c.03 0 .06.02.06.05v3.4c0 .03-.03.05-.06.05h-1.18c-.03 0-.06-.02-.06-.05v-3.4c0-.03.03-.05.06-.05h1.18Zm2.42 0c.58 0 1.04.19 1.35.54.3.32.44.73.43 1.24-.01.5-.17.9-.47 1.22-.34.34-.8.5-1.38.5-.58 0-1.03-.19-1.35-.54-.3-.32-.43-.73-.42-1.24 0-.5.17-.9.47-1.22.33-.34.79-.5 1.37-.5Zm5.21.09c.35-.1.83-.12 1.44-.05.65.07.94.41.99 1.02v1.75c0 .19.12.37.21.55.02.04 0 .14-.04.14h-.97c-.11 0-.17-.13-.19-.23l-.02-.2-.04-.02-.04.01c-.25.26-.6.4-1.05.44-.48.03-.83-.1-1.05-.37a.88.88 0 0 1-.17-.91c.12-.33.39-.54.8-.63.53-.12.97-.23 1.34-.34.1-.04.15-.1.13-.19-.05-.21-.2-.32-.49-.3-.26 0-.44.1-.53.3-.04.06-.1.08-.17.08l-.94-.1c-.06 0-.08-.03-.07-.08.09-.45.38-.74.86-.88Zm9.07-.09c.65.03 1.07.32 1.24.87 0 .02 0 .03-.03.03l-1.04.1c-.03 0-.05 0-.06-.03-.08-.18-.24-.28-.47-.3-.24-.04-.39.05-.43.26-.01.04 0 .07.03.1.1.09.18.14.25.15l.95.16c.33.08.58.22.74.44a.9.9 0 0 1 .16.76c-.1.44-.38.73-.86.87-.38.1-.86.12-1.43.03-.59-.09-.93-.4-1.03-.91 0-.03 0-.04.04-.05l1.06-.1c.05 0 .08.01.1.05.09.17.18.28.27.32.22.1.42.08.62-.04.08-.04.13-.1.15-.18.02-.08 0-.15-.07-.2-.11-.09-.35-.16-.73-.23l-.59-.13a.96.96 0 0 1-.71-1.12c.1-.61.71-.89 1.84-.85Zm-7.8 1.86-.14.04c-.35.1-.59.18-.71.25-.21.13-.25.3-.11.5.07.1.19.15.33.14.48-.05.72-.34.7-.88 0-.04-.03-.06-.08-.05Zm-6.51-1c-.34.01-.62.4-.61.9 0 .49.28.88.62.88.34 0 .6-.4.6-.89s-.28-.88-.61-.88Zm10.12-.07c-.3 0-.55.39-.55.86 0 .48.24.86.54.86.3 0 .54-.38.54-.86 0-.47-.24-.85-.53-.86Zm-17.04.62c-.05 0-.07.02-.07.06v.89c0 .04.02.06.06.06h.73c.14 0 .27-.04.37-.14.1-.1.16-.2.16-.34v-.04a.45.45 0 0 0-.15-.35.53.53 0 0 0-.37-.14h-.73Zm.01-1.9c-.05 0-.08.03-.08.08v.8c0 .05.03.07.09.07h.6c.12 0 .23-.04.32-.13a.4.4 0 0 0 .14-.3v-.09a.4.4 0 0 0-.14-.3.46.46 0 0 0-.33-.13h-.6Zm4.54-1c.02 0 .04.01.04.03v.92c0 .02-.02.04-.04.04h-1.22c-.02 0-.04-.02-.04-.04v-.92c0-.02.02-.04.05-.04h1.2Z" fill="#234898"/></svg>