<!-- by TradingView --><svg width="56" height="56" viewBox="0 0 56 56" xmlns="http://www.w3.org/2000/svg"><path fill="#F0F3FA" d="M0 0h56v56H0z"/><path fill="#00388A" d="M22 24h2v8h-2zM44 24h2.03c.07 0 .15.04.19.1L50 29.5V24H52v7.98L50 32a.23.23 0 0 1-.18-.1L46 26.5V32h-2v-8ZM7 24l-3 8h1.74L8 25.97 10.26 32H12l-2.61-6.97A1.6 1.6 0 0 0 7.89 24H7Z"/><path fill-rule="evenodd" d="M17 24h-4v8h4a4 4 0 0 0 0-8Zm-.5 1.5H15v5h1.5a2.5 2.5 0 0 0 0-5Z" fill="#00388A"/><path d="M29 24h4v1.5h-3.5a2.5 2.5 0 0 0 0 5H33V32h-4a4 4 0 0 1 0-8ZM6 28.5h4V30H6v-1.5Z" fill="#00388A"/><path fill="#F04841" d="M35.81 25.51h.5v1.07h-.5zM39.68 29.42h.5v1.07h-.5zM36.7 24.96l.47.15-.33 1.02-.48-.16zM39.15 29.88l.48.15-.34 1.02-.47-.16zM37.66 24.7l.4.3-.62.87-.4-.3zM38.54 30.14l.4.29-.61.87-.4-.3zM38.63 24.75l.3.4-.84.65-.31-.4zM37.9 30.2l.3.4-.85.65-.3-.4zM39.6 25.1l.16.48-1 .35-.16-.47zM37.22 30.07l.17.47-1 .35-.16-.47zM40.46 25.8v.5H39.4v-.5zM36.59 29.7v.5l-1.06.01v-.5zM41.02 26.67l-.15.48-1.01-.32.15-.48zM36.13 29.18l-.15.47-1.01-.32.15-.47zM41.28 27.65l-.29.4-.87-.61.29-.41zM35.86 28.56l-.29.4-.87-.61.29-.4zM41.24 28.64l-.4.3-.65-.85.4-.3zM35.79 27.9l-.4.3-.65-.84.4-.3zM40.88 29.6l-.47.18-.36-1.01.47-.17zM35.93 27.23l-.47.16-.36-1 .47-.17z"/><path fill="#EF0B28" d="M35.14 23.88h.75v1.63h-.75zM40.11 30.49h.75v1.63h-.75z"/><path fill="#EF0B28" d="m36.3 23.28.72.2-.42 1.57-.72-.2zM39.4 30.95l.72.2-.43 1.57-.72-.2z"/><path fill="#EF0B28" d="m37.58 23 .65.38-.82 1.41-.65-.38zM38.58 31.2l.65.38-.81 1.42-.65-.38z"/><path fill="#EF0B28" d="m38.88 23.06.53.54-1.15 1.15-.53-.53zM37.73 31.25l.53.53-1.15 1.16-.53-.54z"/><path fill="#EF0B28" d="m40.13 23.46.38.65-1.42.82-.37-.65zM36.9 31.07l.37.65-1.4.82-.38-.65z"/><path fill="#EF0B28" d="m41.23 24.17.2.73-1.58.42-.2-.73zM36.14 30.68l.2.73-1.58.42-.2-.72z"/><path fill="#EF0B28" d="M42.11 25.14v.75h-1.63v-.75zM35.51 30.11v.75h-1.63v-.75z"/><path fill="#EF0B28" d="m42.71 26.3-.2.73-1.57-.42.2-.73zM35.05 29.4l-.2.72-1.57-.42.2-.72z"/><path fill="#EF0B28" d="m42.99 27.58-.38.65-1.4-.81.37-.65zM34.79 28.59l-.38.65-1.4-.82.37-.65z"/><path fill="#EF0B28" d="m42.92 28.9-.53.52-1.15-1.15.53-.53zM34.74 27.74l-.53.53-1.15-1.16.53-.53z"/><path fill="#EF0B28" d="m42.53 30.14-.65.37-.82-1.4.65-.38zM34.92 26.9l-.65.38-.81-1.41.65-.38z"/><path fill="#EF0B28" d="m41.82 31.24-.73.2-.42-1.58.73-.2zM35.31 26.15l-.72.19-.42-1.58.72-.19z"/><path fill-rule="evenodd" d="M38 30a2 2 0 1 0 0-4 2 2 0 0 0 0 4Zm0-1a1 1 0 1 0 0-2 1 1 0 0 0 0 2Z" fill="#FEB747"/></svg>