<!-- by TradingView --><svg width="56" height="56" viewBox="0 0 56 56" xmlns="http://www.w3.org/2000/svg"><path fill="#B60007" d="M0 0h56v56H0z"/><path d="M30.58 24.13h1.75l-.05.67c-.32.15-.45.16-.75.39-.28.21-.5.33-.95.26v-1.32Zm-.1-1.13c.17-.08 1.6-.26 1.85-.23a5 5 0 0 1-.01.52c-.05.35.05.18-.13.3-.12.2-.03.08-.36.16-.48.1-.73.16-1.26.13-.08-.32-.25-.45-.1-.88Zm2.54-.3c.46-.3 1.35-.35 1.91-.18.1.57-1.08 2.8-2.01 2.37-.33-1.49.73-.72.8-1.46-.23-.16-.35-.07-.72-.1l.02-.62Zm-6.89-10.53c.04.38.03 1.17-.22 1.35-.4.28-.9.15-1.18-.16-.09.18-.03.22.1.37l.1.12c.4.47.57.28.91.49-.05.21-.08.15-.16.33l-.04.1c-.13.35-.3.4-.84.57-.18.06-.31.08-.52.1l-.54.05c.44.54 1.32.17 1.9.1-.02.24-.07.29-.19.45-.1.13-.2.28-.25.4-.18.38-.2.62-.07 1.04.4.02.36-.25.75-.36-.07.35-.54 1-.77 1.26-.42.5-.77.42-.78 1.24.5-.05.8-.47 1.1-.78.13-.13.38-.3.51-.45.18-.2.23-.37.47-.41.22 1.46-.3 1.37-.41 1.77-.03.45.14.56.2.98-.74-.03-1.66-.28-2.65-.37-.09-.17-.12-.41-.25-.61-.16-.24-.34-.26-.5-.46-.23-.26-.2-.6-.43-.83l-.08-.06c-.18-.11-.19-.08-.33-.02.35.5.22-.02.4.76.07.28.29.6.34.9-.32.71-1.29.4-1.87.72.45.25 2.13-.39 3.81.36.64.29 1.45.4 2.1.67.94.4 1.85.12 3.18-.06.19-.02.47-.1.72-.14l.75-.15c.63-.15 1.06-.64 1.06.33s-.63.7-1.51.88c-.83.17-1.79.13-2.67.17.4.23.88 0 1.04.55.03.1.16 1.32.15 1.42-2.4-.04-5.36.69-7.41 1.63-.35.16-2.02.74-2.05.98-.07.67 1.58.09 1.94 0 2.06-.5 2.11-.59 4-1.15.64-.2 1.41-.48 2.18-.44-.05.17-.17.26-.3.36l-.7.56c-.22.2-.32.25-.39.53.49.04.76-.06 1.13-.26 2-1.1 2.2-.26 2.68-1.31l.74.02c0 .45-.32.58-.58.92-.17.23-.45.6-.68.79-.26.2-.65.45-.88.6-.23.15-.84.41-.92.6.88.23 1.9-.28 2.52-.8.44-.37 1.3-1.65 1.44-1.72.1.16.06-.05.07.27l-.04.31c-.05.5.17 1.48-.17 1.88-.24.27-.48.22-.78.35.13.19.3.22.55.35.44.23.17.3.45.55.65.27.73-.96.72-1.33l-.14-2.53c.53-.02.62.44.83.8.38.67 1.18 1.17 1.77 1.64.47.37 1.03.38 1.71.38 1.84 0 3.6.33 5.33.75.24.06.5.14.72.24.24.1.52.23.8.24-.3-.33-1.89-1.13-2.46-1.32-3.52-1.14-3.73-.74-4.8-1.02-.85-.22-3.33-1.92-3.4-2.34.59-.12.37-.02.65.2.33-.03 1.07-.17 1.15-.5.03-.16.01-.08.02-.22.02-.76.08-.27.4-1.09l.31-.7c.11-.24.4-.47.32-.74-.26-.44-.85-.54-1.38-.43-.48.1-1.3.31-1.73.27-.4-1.2-.07-1.09.73-1.22.45-.08.58-.1.74-.42-.32-.85-.92-.04-1.55-.27-.22-.54.12-1.14-.44-1.47-.27-.16-1.39-.24-1.57.08.3.46 1.12-.66 1.36 1.74-1.46.44-1.66.23-3.1.27l-2.52-.02c0-.3.25-1.16.33-1.48.13-.55 0-1.2.09-1.79.53.11.76 1.67 2.1 1.53.16-.26.22-.47.17-.83-.23-.16-.54-.4-.76-.52a3.46 3.46 0 0 0-.48-.18l-.51-.23c.26-.23.8-.43 1.17-.53.24-.07.28-.02.47-.12.1-.55-.4-.74-.95-.7-.2.52 0 .3-.46.64-.2.16-.42.37-.75.4-.02-.62.6-.51.47-1.17-.44-.05-.87.04-.76-.47.7-.35 1.56-.2 2.18-.65.08-1.14-1.46-.16-2.18-.23.02-.68.05-.54.64-.72.39-.12.57-.36.57-.78-.12-.12-.04-.03-.14-.18-.69-.11-.3.17-.93.12 0-.38.12-.46.16-.91l-1.38.02c.01.01.04 0 .05.03l.3.12ZM25.33 35.36c0-.28.33-.66.5-.89l.54-.83c.63-.96-.32-1.62-.74-1.64-.14.26-.13.33-.25.6-.19.43-2.06 3.25-2.19 3.66-1.07 3.45 2.67.71 3.25.62 0 .75-1.77 3.4-1.82 3.87.5.03 1.28-1.12 1.8-1.15 0 .48-.1.66-.11 1.17-.01.4-.07.81-.1 1.25-.13 1.64-.54 1.06.08 1.98h.35c.3-.38.21-.64.21-1.24 0-.72.22-2.38.19-2.54-.13-.62-.63-.81-.2-1.3.54-.61 2.18-2.24 2.16-3.07-.02-.75-1.23-1.1-1.66-1.14-.76-.07-1.43.43-2 .65Z" fill="#fff"/><path d="M20.41 31.78c.03.77.94.75 1.72.82a11.8 11.8 0 0 1-.87 1.7c-.34.57-.66 1.05-1 1.62-.39.63-1.43 2.06-1.99 2.64L18 39c.2-.01.06.02.23-.06l2.67-2.27c1-.9 1.83-1.92 2.5-3.07.19-.31.36-.56.53-.8.24-.35.46-.4.81-.6.47-.25 1.25-.55 1.77-.98a3 3 0 0 1 .8-.52c.43-.17.63-.21.68-.72.11-1.05-1.13-.72-1.95-.78 0-.44-.04-.72-.39-.92-.2-.12-.8-.28-1.06-.28-.55 0-.41.41-.48.84-.02.15-.55 1.58-.85 1.75-.25.15-.65.26-.95.4-.46.22-.9.5-1.4.62-.26.05-.37 0-.5.17ZM17.87 28.57c-.69.28-3.97.46-5.87 2.43.43-.01 1.15-.4 1.58-.54.52-.15 1.25-.36 1.79-.42.46-.05 2.4-.47 2.82-.24.08.05.52.7.9.16.1-.16.06-.02.09-.3.1-.77-.16-.17.23-2.1.1-.47.07-.83.2-1.32.12-.43.36-.71.39-1.24-.6.06-1.15.88-1.47 1.38l-.09.14-.03.05-.36.7c-.19.48-.09.74-.18 1.3ZM23 24.37c.04.71 1.85.66 2.66.6.19-.38.32-.3.34-.87.01-.39-.06-.7-.24-.96-.8-1.09-3.3-1.63-2.54-.56.48.68.94 1.13.23 1.54-.28.16-.28.04-.45.25ZM30.18 42.28c.5-.02.48.21.8.12.34-.1.3-.3.71-.27a8.36 8.36 0 0 1-.35 1.3l-.99.23c-.02-.85.05-.64-.17-1.38Zm2.78-.23c.26-.77-.85-1.16-1.17-1.02-.47.4-.1.3-.81.6-.33.12-.78.34-1.1.32-.3-.16-.29-.9-.76-.95-.32.58.07 2.3.38 2.74.18.26.23.26.6.26h2.35c-.12-1.63.2-.99.51-1.95ZM30.05 37.32c.4-.02.5-.17.9 0 .37.16.54.24.64.49-.82.04-1.05.17-1.8.37-1.35.36-.98.2-1.6.34l-.13.04a.3.3 0 0 0-.06.03c.46 1.03 3-.2 4.19-.25.6-.03 1.2.04 1.81.04 0-.37.01-.49-.2-.65-.62-.47-1.25.03-1.92-.1-.2-.43 0-.47-.05-.97-.8-.59-.97-.77-2.27-.6.09.22.08.2.34.3 1.09.46.24.54.15.96Z" fill="#fff"/><path d="M29 40.66c.19.5 1 .35 1.47.2l1.51-.41c.08-.45-.13-.46-.58-.45-1.02.02-1.18.65-2.4.66ZM29 39.6c.16.8 1.74.17 2.33.05.48-.1.39.05.67-.25-.18-.93-2.04.05-2.17.07-.37.06-.5.03-.83.12ZM23.15 18c1.4-.12.75-.94.32-1.12-.77-.34-.65-.12-1.15-.67-.16-.19-.03-.15-.32-.21.06.42-.04.05.22.44l.78 1.23.03.08.08.17.04.08ZM22 15.03c.32.35.33.52.4.84l.04.13c.25-.03.5.02.56-.47-.15-.21-.78-.65-1-.5Z" fill="#fff"/></svg>