<!-- by TradingView --><svg width="56" height="56" viewBox="0 0 56 56" xmlns="http://www.w3.org/2000/svg"><path fill="#F0F3FA" d="M0 0h56v56H0z"/><path d="M8 22v3h2v8h3v-8h2v-3H8ZM19.5 30c.38 0 .73-.14 1-.38v3.27A4.51 4.51 0 0 1 15 28.5a4.5 4.5 0 1 1 9 0V33h-3v-4.5a1.5 1.5 0 1 0-1.5 1.5Z" fill="#03666B"/><circle cx="26.5" cy="22.5" r="1.5" fill="#E93F02"/><path d="M33 22h-3v11h3v-4h3v4h3V22h-3v4h-3v-4ZM25 25h3v8h-3z" fill="#03666B"/><path fill-rule="evenodd" d="M44.16 30c.34-.04 1.1-.41 1.34-.64l1.67 2.5A5.44 5.44 0 0 1 44 33a4.5 4.5 0 1 1 3.98-6.6l-.07.07.09.03-3.84 3.5Zm-1.4-.64a1.5 1.5 0 0 1 2.21-2l-2.2 2Z" fill="#03666B"/></svg>