<!-- by TradingView --><svg width="56" height="56" viewBox="0 0 56 56" xmlns="http://www.w3.org/2000/svg"><path fill="#F0F3FA" d="M0 0h56v56H0z"/><path d="M8.02 24a6.5 6.5 0 1 0 12.96 0H8.02Zm12.93-.3c-.06-.5-.18-1-.35-1.45l-3.85 1.03c.02.13.04.28.04.42h4.16Zm-.46-1.74a6.49 6.49 0 0 0-.4-.79l-3.47 1.69.05.13 3.82-1.03Zm-.57-1.05c-.2-.3-.41-.57-.65-.83l-2.9 2.33.12.18 3.43-1.68Zm-.86-1.05c-.27-.26-.55-.5-.86-.7L16.01 22l.18.17 2.87-2.3ZM17.95 19c-.3-.2-.63-.36-.96-.5l-1.42 3.2.2.13 2.18-2.83Zm-1.25-.6c-.28-.11-.58-.2-.88-.26l-.7 3.38.17.06 1.41-3.19Zm-1.17-.31a6.54 6.54 0 0 0-.88-.08v3.43l.17.02.7-3.37ZM14.35 18c-.4 0-.8.06-1.2.14l.9 3.33.3-.04V18Zm-1.48.2c-.27.07-.52.16-.77.26l1.53 3.14.13-.05-.9-3.34Zm-1.05.37c-.3.14-.6.3-.88.49l2.24 2.79.18-.12-1.54-3.16Zm-1.13.66c-.3.22-.58.46-.84.73l2.93 2.25c.05-.06.1-.12.17-.17l-2.26-2.81Zm-1.05.95c-.25.29-.48.6-.68.92l3.51 1.56.12-.21-2.95-2.27Zm-.84 1.18c-.16.3-.3.61-.42.93l3.91.82.06-.18-3.55-1.57Zm-.51 1.22 3.94.82-.02.3H8.05c.05-.38.13-.76.24-1.12Z" fill="#BCBCBB"/><path d="m14.5 22-6 12h12l-6-12Z" fill="#2C9640"/><path d="M14.5 29.55 8.5 34h12l-6-4.45Z" fill="#133C89"/><path d="M22 25h-3v2.5h3V34h3v-6.5h3V25h-6ZM48 25h-9v2.5h3V34h3v-6.5h3V25ZM36.01 34h.29l-5.88-9h-.58l6.17 9Zm-6.49-9H29v9h3v-4.35L34.77 34h.63l-5.88-9Zm1.21 0 6.18 9h.34l-5.88-9h-.64Zm.96 0 6.17 9H38v-9h-3v3.96L32.3 25h-.61Z" fill="#2C9640"/></svg>