<!-- by TradingView --><svg width="56" height="56" viewBox="0 0 56 56" xmlns="http://www.w3.org/2000/svg"><path fill="#F0F3FA" d="M0 0h56v56H0z"/><path d="M4 25h2.5v2.5H7v2h-.5V32H4v-7Zm3.5 0H10v7H7.5v-7Z"/><path fill="#6D6D6D" d="M10.5 25H13v7h-2.5zM36 25h2.5v7H36zM16.3 25a2.76 2.76 0 0 0-2.8 2.72V32h2.49v-4.27c0-.37.23-.67.51-.67s.51.3.51.67V32h2.49v-4.28c0-1.5-1.25-2.72-2.8-2.72h-.4ZM41.8 25a2.76 2.76 0 0 0-2.8 2.72V32h2.49v-4.27c0-.37.23-.67.51-.67s.51.3.51.67V32H45v-4.28c0-1.5-1.25-2.72-2.8-2.72h-.4Z"/><path d="M27 27.52c0-1.5.9-2.52 2-2.52h.28c.73 0 1.37.45 1.72 1.2.35-.75.99-1.2 1.72-1.2H33c1.1 0 1.99 1.02 1.99 2.52V32h-2.1v-4.27c0-.37-.2-.67-.43-.67-.24 0-.44.3-.44.67V32h-2.06v-4.27c0-.37-.2-.67-.44-.67s-.43.3-.43.67V32H27v-4.48Z"/><path d="M25.04 27.25v-2a6.1 6.1 0 0 0-1.59-.25C22.2 25 20 26.28 20 28.5c0 2.22 1.84 3.5 3.68 3.5s2.82-1.24 2.82-2.18c0-.75-.53-1.35-.8-1.56h-2.02v1.39h.8v.6a1.8 1.8 0 0 1-2.33-1.68c0-.98.82-1.64 1.74-1.64.74 0 1.07.21 1.15.32ZM50.54 27.25v-2a6.1 6.1 0 0 0-1.59-.25c-1.26 0-3.45 1.28-3.45 3.5 0 2.22 1.84 3.5 3.68 3.5S52 30.76 52 29.82c0-.75-.53-1.35-.8-1.56h-2.02v1.39h.8v.6a1.8 1.8 0 0 1-2.33-1.68c0-.98.82-1.64 1.74-1.64.74 0 1.07.21 1.15.32Z" fill="#6D6D6D"/><circle cx="11.25" cy="23.25" r="1.25" fill="#A81313"/><circle cx="37.25" cy="23.25" r="1.25" fill="#A81313"/></svg>