<!-- by TradingView --><svg width="56" height="56" viewBox="0 0 56 56" xmlns="http://www.w3.org/2000/svg"><path fill="#F0F3FA" d="M0 0h56v56H0z"/><path d="m28.7 24.58 3.04-5.08c1.68-2.78-.48-6.25-3.73-6.22-1.1 0-2.07.4-2.9 1.16a4.06 4.06 0 0 0-1.15 4.14c.1.34.34.82.72 1.44 4.34 7.05 7.64 12.44 9.9 16.17.45.75.85 1.26 1.2 1.54.96.8 2.3 1.18 3.57.9a4.2 4.2 0 0 0 3.12-2.54c.5-1.1.37-2.48-.24-3.57a4.22 4.22 0 0 0-4.11-2.13h-5.79a.14.14 0 0 1-.13-.07l-1.27-2.27v-.02l.01-.02.01-.01h7.3c1.79 0 3.27.62 4.45 1.56.21.17.44.42.68.74.26.35.53.67.75 1.06a6.3 6.3 0 0 1-.39 6.97l-.47.63c-.17.23-.35.42-.54.55a6.62 6.62 0 0 1-5.67 1.32 6.31 6.31 0 0 1-3.67-2.2c-.13-.16-.66-1.02-1.62-2.59-2.93-4.8-5.86-9.59-8.8-14.37a11.9 11.9 0 0 1-1.23-2.38 6.47 6.47 0 0 1 5.42-8.23 6.6 6.6 0 0 1 6.73 3.37c.8 1.47.97 3.06.52 4.77-.14.5-.49 1.22-1.06 2.14a501.69 501.69 0 0 0-3.2 5.35.08.08 0 0 1-.1-.02l-1.34-2a.09.09 0 0 1 0-.1Z" fill="#00B1AD"/><path d="M20.31 25.54c.5 0 .91-.4.91-.9 0-.48-.4-.88-.9-.88a.9.9 0 0 0-.92.89c0 .5.41.9.91.9ZM35.8 25.54c.5 0 .91-.4.91-.9 0-.48-.4-.88-.9-.88a.9.9 0 0 0-.92.89c0 .5.4.9.91.9Z" fill="#F0870F"/><path d="m26.22 28.66 1.18 2.02c.02.04.02.08 0 .12a541.71 541.71 0 0 0-3.63 6.16 10.1 10.1 0 0 1-1.52 2.16 6.68 6.68 0 0 1-7.27 1.35 6.44 6.44 0 0 1-3.61-8.1c.33-.98.88-1.83 1.64-2.56a6.64 6.64 0 0 1 4.8-1.81 1122.1 1122.1 0 0 0 7.35.03.03.03 0 0 1 0 .03l-1.27 2.24a.14.14 0 0 1-.13.08h-5.35a7.6 7.6 0 0 0-2.19.21 4.06 4.06 0 0 0-2 6.46 4.26 4.26 0 0 0 5.04 1.3c.6-.26 1.08-.58 1.45-.96.2-.21.52-.68.94-1.42 1.98-3.4 3.44-5.84 4.38-7.32.07-.1.13-.1.2 0Z" fill="#00B1AD"/><path d="M28.06 36.2c.5 0 .91-.4.91-.9a.9.9 0 0 0-.91-.89.9.9 0 0 0-.92.9c0 .49.41.9.92.9Z" fill="#F0870F"/></svg>