<!-- by TradingView --><svg width="56" height="56" viewBox="0 0 56 56" xmlns="http://www.w3.org/2000/svg"><path fill="#F0F3FA" d="M0 0h56v56H0z"/><path d="M23.22 40.85c.44-1.6-.28-3.2-1.85-3.66a3.06 3.06 0 0 0-3.81 2.1 3.03 3.03 0 0 0 2.05 3.65c1.57.44 3.17-.5 3.61-2.1Z" fill="#D82C20"/><path d="M30.8 29.01c.3-2.02-.94-3.54-2.9-4.06a3.33 3.33 0 0 0-4.17 3.1c-.1 2 .94 4.05 3.07 4.22a3.72 3.72 0 0 0 4-3.26ZM29.55 37.03a3.06 3.06 0 0 0-2.46-3.67c-1.68-.26-3.4.92-3.52 2.62-.11 1.74.84 2.93 2.52 3.2 1.7.25 3.09-.52 3.46-2.15Z" fill="#EF4623"/><path d="M35.95 34.14c.03-1.73-.98-3.45-2.68-3.72-1.7-.26-3.04.8-3.46 2.63a3.4 3.4 0 0 0 2.56 3.88c1.82.34 3.54-1.05 3.58-2.8Z" fill="#D82C20"/><path d="M38.3 27.09c.15-1.8-.94-3.6-2.73-3.63-1.74-.04-3.36 1.03-3.68 2.74-.34 1.77.72 3.51 2.49 3.78 1.76.27 3.78-1.22 3.92-2.9ZM27.06 21.32c.26-1.71-.67-3.17-2.37-3.33-1.74-.17-3.38.9-3.52 2.62-.15 1.91.94 3.11 2.6 3.56 1.54.4 3.03-1.15 3.3-2.85ZM40.09 38.85c.22-1.45-.56-2.46-1.94-2.9-1.43-.47-2.98.52-3.08 2.22-.08 1.47.5 2.69 1.94 2.91a2.71 2.71 0 0 0 3.08-2.23Z" fill="#EF4623"/><path d="M40.83 19.39c.29-1.91-1.25-4-3.15-4.3-1.89-.3-3.47 1.17-4.1 2.97C33 19.8 35 22.04 36.5 22.27c1.9.29 4.05-.97 4.34-2.88Z" fill="#F26322"/><path d="M23.02 26.67c.24-1.57-.85-2.92-2.4-3.28-1.7-.4-3.17.63-3.24 2.42-.07 1.59.83 3.05 2.4 3.29a2.86 2.86 0 0 0 3.24-2.43Z" fill="#EF4623"/><path d="M29.88 24.75c1.55.3 2.99-.82 3.4-2.36.46-1.7-.52-3.23-2.28-3.37-1.57-.11-3.05.74-3.33 2.31-.3 1.57.66 3.13 2.21 3.42ZM23.8 33.35a2.99 2.99 0 0 0-2.55-3.5c-1.66-.2-3.29.88-3.46 2.57-.18 1.67.88 3.25 2.54 3.5 1.66.26 3.13-.91 3.47-2.57Z" fill="#F26322"/><path d="M34.8 41.51c.34-1.52-1.02-3.07-2.57-3.3-1.54-.25-2.79.8-3.02 2.37-.24 1.56.77 3.17 2.32 3.4 1.54.25 2.92-.93 3.27-2.47Z" fill="#D82C20"/><path d="M20.9 18.76c-.04-1.63-.86-3.06-2.45-3.3a2.91 2.91 0 0 0-3.3 2.46c-.25 1.6 1.09 3.5 2.74 3.59 1.6.08 3.04-1.25 3-2.75ZM25.92 14.66c-.04-1.62-.59-2.86-2.18-3.1a2.91 2.91 0 0 0-3.3 2.46c-.25 1.6.78 3.27 2.43 3.35 1.6.09 3.08-1.2 3.05-2.7Z" fill="#F26322"/><path d="M17.86 36.67c.35-1.7-.82-3.17-2.28-3.14-1.5.04-2.8.73-3.02 2.23-.22 1.5.8 2.9 2.28 3.13 1.49.23 2.72-.74 3.02-2.22Z" fill="#EF4623"/><path d="M43.26 32.67c.27-1.78-1-3.2-2.71-3.73-1.78-.53-3.35.86-3.69 2.75-.32 1.77.62 3.6 2.71 3.72 1.8.1 3.42-.95 3.69-2.74ZM28.61 42.83c.22-1.41-.73-2.92-2.14-2.95-1.46-.04-2.56.66-2.92 2.17-.33 1.39.73 2.92 2.14 2.95 1.38.03 2.71-.76 2.92-2.17ZM11.14 30.63c.57 1.76 1.64 2.67 3.28 2.33 1.64-.34 3.6-2.25 2.94-3.93-.6-1.57-2.53-2.4-4.17-2.06a2.82 2.82 0 0 0-2.05 3.66Z" fill="#D82C20"/><path d="M33.83 15.26a3.7 3.7 0 0 0-3.08-4.22c-2-.3-3.75 1.1-4.17 3.1-.42 1.97 1.02 3.72 3.02 4.02 2 .31 3.92-.87 4.23-2.9Z" fill="#EF4623"/><path d="M38.77 24.9c.09 1.63.71 2.9 2.56 3.28a2.98 2.98 0 0 0 3.63-2.57c.27-1.81-.9-4.1-2.77-4.05-1.8.03-3.51 1.52-3.42 3.35Z" fill="#D82C20"/><path d="M17 23.96c.24-1.6-.84-2.8-2.44-3.34-1.55-.53-3.06.86-3.3 2.46a2.67 2.67 0 0 0 2.45 3.1c1.9.19 3.05-.61 3.29-2.22Z" fill="#F26322"/></svg>