<!-- by TradingView --><svg width="56" height="56" viewBox="0 0 56 56" xmlns="http://www.w3.org/2000/svg"><path fill="#F0F3FA" d="M0 0h56v56H0z"/><path d="M40 33.67c1 0 1-.57 1-1.85v-7.85c0-1.16 0-1.63-1-1.63V22h4v.34c-1 0-1 .46-1 1.63V27h5v-3.03c0-1.17 0-1.63-1-1.63V22h4v.34c-1 0-1 .46-1 1.63v8.06c0 1.18 0 1.64 1 1.64V34h-4v-.33c1 0 1-.57 1-1.85V28h-5v4.03c0 1.18 0 1.64 1 1.64V34h-4v-.33ZM33.11 22c.69 0 1.36.1 2.02.28.66.19 1.04.28 1.14.28.25 0 .43-.05.53-.14.11-.1.2-.24.28-.42h.39l.13 3.67h-.4a6.67 6.67 0 0 0-1.12-1.89c-.7-.73-1.6-1.09-2.72-1.09-3.05 0-4.36 2.81-4.36 5.47 0 2.65 1.68 5.12 4.54 5.12.7 0 1.78-.1 2.3-.6.1-.1.16-.24.16-.44v-2.36c0-1.18-.35-1.49-1.5-1.56V28H39v.32c-.88.06-1 .43-1 1.34v3.01c0 .2-.56.48-1.81.82a8.84 8.84 0 0 1-2.87.51C29.9 34 27 31.64 27 28.1c0-3.45 2.68-6.1 6.11-6.1ZM19.94 22v.34c-.42-.02-.73.02-.93.1-.21.07-.31.24-.31.49 0 .08.01.17.05.3.03.1.1.25.23.44l2.61 4.03 2.53-4.09a1.7 1.7 0 0 0 .25-.67c0-.26-.13-.43-.4-.51a3.11 3.11 0 0 0-.83-.1V22H27v.34c-.36.01-.67.12-.96.32-.43.32-.92.9-1.47 1.75L22 28.5v3.53c0 .7.1 1.15.33 1.32.22.17.68.28 1.45.32V34h-5.4v-.33c.8-.04 1.14-.17 1.33-.36.2-.2.29-.7.29-1.49v-3.15l-2.15-3.48a20.6 20.6 0 0 0-1.68-2.3 1.67 1.67 0 0 0-1.17-.55V22h4.94ZM5.4 30.27c.31.78.66 1.4 1.07 1.87.7.8 1.59 1.21 2.63 1.21 1.16 0 1.9-.82 1.9-2 0-1.37-1.13-2.05-2.15-2.67l-1.52-.93a5.42 5.42 0 0 1-1.1-.86 2.64 2.64 0 0 1-.75-1.82c0-1.84 1.49-3.07 3.27-3.07.4 0 .9.1 1.46.3.57.19.9.29.98.29.22 0 .37-.05.45-.16.09-.1.16-.24.2-.43h.37l.39 3.7h-.43c-.29-1.1-.75-1.89-1.4-2.33a3.32 3.32 0 0 0-1.9-.66c-.92 0-1.87.65-1.87 1.65 0 .45.2.77.48 1.08.28.33.7.66 1.3 1.02l1.56.94c1.3.78 2.66 1.73 2.66 3.4 0 2.02-1.9 3.2-3.76 3.2a5.4 5.4 0 0 1-1.73-.3c-.6-.21-.94-.31-1.02-.31-.21 0-.35.06-.43.18-.07.13-.12.29-.14.43h-.39L5 30.27h.4Z"/></svg>