<!-- by TradingView --><svg width="56" height="56" viewBox="0 0 56 56" xmlns="http://www.w3.org/2000/svg"><path fill="#F0F3FA" d="M0 0h56v56H0z"/><path d="M25.95 27h-.9c-1.09 0-2.05.88-2.05 1.99V29c0 1.1.96 1.99 2.06 1.99h2.23c.22 0 .42-.29.42-.5.01-.21-.17-.49-.4-.5H24.8c-.22 0-.43-.11-.43-.32 0-.2.21-.29.43-.29h2.79c.22 0 .4-.18.41-.39v-.01c0-.53-.22-1.04-.6-1.4-.39-.38-.91-.59-1.45-.59Zm.28 1.79H24.8a.4.4 0 0 1-.43-.4c0-.22.2-.4.43-.39h1.43a.4.4 0 0 1 .42.4c0 .22-.2.4-.42.39ZM38.95 27h-.9c-1.09 0-2.05.88-2.05 1.99V29c0 1.1.96 1.99 2.06 1.99h2.23c.22 0 .42-.29.42-.5.01-.21-.17-.49-.4-.5H37.8c-.22 0-.43-.11-.43-.32 0-.2.21-.29.43-.29h2.79c.22 0 .4-.18.41-.39v-.01c0-.53-.22-1.04-.6-1.4-.39-.38-.91-.59-1.45-.59Zm.27 1.79H37.8a.4.4 0 0 1-.43-.4c0-.22.2-.4.43-.39h1.43a.4.4 0 0 1 .42.4c0 .22-.2.4-.42.39ZM21.22 24.08a.5.5 0 1 1 .56.84.5.5 0 0 1-.56-.84ZM49.83 27c1.14 0 2.17.94 2.17 2.1v1.29c-.02.33-.17.61-.5.61-.33 0-.49-.28-.5-.61v-1.3c-.12-.56-.92-1.09-1.5-1.09h-.01c-.58 0-1.37.53-1.49 1.1v1.29c-.01.33-.17.61-.5.61-.33 0-.49-.28-.5-.61v-3.78c.01-.33.17-.61.5-.61.33 0 .49.28.5.61v.62c.28-.15.85-.23 1.17-.23h.66ZM21.3 27h.4c.05 0 .08 0 .12.03a.3.3 0 0 1 .1.07l.06.12.02.14v3.29a.4.4 0 0 1-.09.25.27.27 0 0 1-.2.1h-.42a.27.27 0 0 1-.2-.1.4.4 0 0 1-.09-.25v-3.3c0-.1.03-.18.09-.25.05-.06.13-.1.2-.1ZM17.58 27h1.92c.26 0 .5.18.5.5 0 .28-.19.5-.5.5h-1.94c-.32.06-.57.62-.57 1s.25.94.57 1h1.94c.31 0 .5.22.5.5s-.19.5-.5.5h-1.93l-.1-.01C16.53 30.86 16 29.87 16 29c0-.88.53-1.86 1.47-1.99l.1-.01ZM43.58 27h1.92c.26 0 .5.18.5.5 0 .28-.19.5-.5.5h-1.94c-.32.06-.57.62-.57 1s.25.94.57 1h1.94c.31 0 .5.22.5.5s-.19.5-.5.5h-1.93l-.1-.01C42.53 30.86 42 29.87 42 29c0-.88.53-1.86 1.47-1.99l.1-.01ZM33 28.58v1.92c0 .26-.18.5-.5.5-.28 0-.5-.19-.5-.5v-1.94c-.06-.32-.62-.57-1-.57s-.94.25-1 .57v1.94c0 .31-.22.5-.5.5s-.5-.19-.5-.5v-1.93l.01-.1C29.14 27.53 30.13 27 31 27c.88 0 1.86.53 1.99 1.47l.01.1Z" fill="#898989"/><path d="M19.46 24H5.84C4.74 23.97 4 25.04 4 26.06s.74 1.97 1.84 1.94h7.43c.44 0 .73.6.73 1s-.29 1-.73 1h-8.7c-.28 0-.57.17-.57.5 0 .33.29.5.57.5h8.6c1.1.03 1.83-.98 1.83-2s-.74-2.03-1.84-2H5.73c-.44 0-.73-.54-.73-.94 0-.4.29-1.06.73-1.06h13.73c.33 0 .54-.2.54-.5s-.21-.5-.54-.5Z" fill="#0088B3"/><path d="M51.41 24H23.6c-.34-.01-.59.18-.59.5s.25.51.59.5h9.91c.3 0 .5.26.5.54v4.84c0 .33.2.62.5.62s.5-.29.5-.62v-4.84c0-.28.2-.54.5-.54H51.4c.34.01.59-.18.59-.5s-.25-.51-.59-.5Z" fill="#EF821D"/></svg>