<!-- by TradingView --><svg width="56" height="56" viewBox="0 0 56 56" xmlns="http://www.w3.org/2000/svg"><path fill="#F0F3FA" d="M0 0h56v56H0z"/><path d="M11.06 25.34c.51 0 .92-.3.92-.67 0-.37-.4-.67-.91-.67s-.92.3-.92.67c0 .37.4.67.91.67ZM44.99 25.34c.55 0 1-.3 1-.67 0-.37-.45-.67-1-.67-.56 0-1 .3-1 .67 0 .37.44.67 1 .67ZM7.81 26.13c.17-1.04-.3-1.55-1.39-1.55-.42 0-1.05.11-1.09.65-.03.42.15.7.54.87.99.41 1.64.71 1.97.9.93.55 1.45 1.67.99 2.73-.52 1.18-1.8 1.36-2.96 1.24-1.33-.15-1.95-.88-1.86-2.19 0-.04.02-.07.06-.08l.8-.26c.07-.03.1 0 .09.07-.2.96-.03 1.55.5 1.77.58.26 1.9.34 1.97-.63.02-.47-.41-.85-.76-.99-.8-.33-1.34-.6-1.62-.8-1.42-1-1.3-3.18.44-3.7 1.37-.4 3.16-.12 3.22 1.79a.1.1 0 0 1-.02.06.08.08 0 0 1-.05.03l-.77.15c-.05.01-.07-.01-.06-.06ZM41 30.5s-.32.34-.5.39c-1.27.34-2.06-.1-2.36-1.31-.28-1.11-.26-3.38 1.21-3.78a1.46 1.46 0 0 1 1.54.4c.07.06.11.04.11-.05v-1.97c0-.05.02-.07.07-.08l1.86-.1c.05 0 .07.02.07.07v6.85c0 .02 0 .04-.02.06a.08.08 0 0 1-.06.02h-1.8c-.07 0-.13-.04-.12-.11v-.39Zm0-3.48c0-.27-.17-.5-.44-.5h-.04c-.27 0-.52.23-.52.5l.02 2.72c0 .27.25.5.52.5h.04c.28 0 .44-.23.44-.5L41 27.02ZM29.92 26.46l-1.43 4.41c-.03.09-.09.13-.18.13h-.95c-.1 0-.15-.04-.18-.13l-1.3-4.13c-.1-.32-.14-.31-.14.03v4.14c0 .06-.03.09-.1.09h-.54c-.07 0-.1-.03-.1-.1v-6.73c0-.11.06-.17.17-.17h1.9a.17.17 0 0 1 .17.12l1.18 3.79c.05.17.1.17.16 0l1.25-3.78c.02-.09.08-.13.17-.13h1.83c.11 0 .17.06.17.16v6.74c0 .07-.03.1-.1.1h-1.8c-.07 0-.1-.03-.1-.1v-4.43c0-.18-.03-.18-.08-.01ZM10.09 26h1.82a.1.1 0 0 1 .06.02l.03.06v4.84c0 .02 0 .04-.03.06a.1.1 0 0 1-.06.02H10.1a.1.1 0 0 1-.06-.02.08.08 0 0 1-.03-.06v-4.84c0-.02 0-.04.03-.06a.1.1 0 0 1 .06-.02ZM15.1 26.74c.43-.43.85-.68 1.41-.73 1.14-.1 1.47.47 1.48 1.5v3.4c0 .06-.03.09-.1.09H16.1c-.02 0-.04 0-.05-.02a.07.07 0 0 1-.03-.05L16 27.18c0-.3-.13-.36-.45-.21-.33.16-.55.8-.55 1.14v2.8c0 .06-.03.09-.1.09h-1.8a.1.1 0 0 1-.1-.1v-4.7c0-.13.07-.2.2-.2h1.7c.07 0 .1.03.1.09v.61c0 .1.03.12.1.04ZM49.6 30.56c-.4.4-.94.53-1.62.38-1.26-.26-1.27-2.04-.23-2.58.28-.14 1.24-.36 1.66-.8a.6.6 0 0 0 .18-.32c.15-1.13-1.59-1.03-1.5-.08.02.17.04.32.08.46.02.07 0 .1-.08.09l-.63-.13a.13.13 0 0 1-.08-.05.2.2 0 0 1-.04-.1c-.1-.73.24-1.17 1-1.32.76-.16 2.98-.34 2.97 1l.01 3.01c0 .09.04.15.1.19.07.04.19.06.37.07h.06c.11.05.16.12.15.22 0 .08-.05.14-.12.17-.61.24-1.63.4-2.12-.2-.05-.07-.1-.07-.17-.01Zm0-2.4c0-.02-.02-.03-.04-.02-.74.34-.99.98-.76 1.93.01.04.03.09.06.12l.1.1a.3.3 0 0 0 .27 0c.23-.1.34-.35.35-.73.01-.43.02-.9.01-1.4ZM23.96 29a2.1 2.1 0 0 1-2.18 2l-.78-.04a2.09 2.09 0 0 1-2-2.18l.04-.78a2.1 2.1 0 0 1 2.18-2l.78.04a2.09 2.09 0 0 1 2 2.18l-.04.78Zm-2.46 1.62c.16 0 .32-.23.43-.62.12-.4.18-.94.18-1.5s-.06-1.1-.18-1.5c-.11-.39-.27-.61-.43-.61-.16 0-.32.22-.43.62-.12.4-.18.93-.18 1.5 0 .55.06 1.09.18 1.49.11.4.27.62.43.62ZM34.52 28.79c-.02.07.02.36.11.85.13.66.55.94 1.27.83.52-.08.76-.5.7-1.25 0-.07.03-.1.1-.07l.61.16c.07.02.1.06.1.13-.15 1.53-1.9 1.73-3.24 1.46-.86-.18-1.48-.68-1.67-1.49-.41-1.75.53-3.48 2.69-3.4 1.67.05 2.17 1.18 2.2 2.54.01.07-.03.11-.12.11H34.7c-.1 0-.15.04-.17.13Zm.08-.67h.97a.1.1 0 0 0 .07-.03.09.09 0 0 0 .03-.06v-.08a3.69 3.69 0 0 0-.15-1.04 1 1 0 0 0-.17-.32c-.07-.07-.14-.11-.21-.11h-.08c-.14 0-.28.15-.39.43-.1.27-.16.64-.17 1.03v.08c0 .03.01.05.03.07a.1.1 0 0 0 .07.03ZM45.91 26H44.1a.08.08 0 0 0-.09.08v4.84c0 .04.04.08.09.08h1.82c.05 0 .09-.04.09-.08v-4.84a.08.08 0 0 0-.09-.08Z" fill="#F29200"/></svg>