<!-- by TradingView --><svg width="56" height="56" viewBox="0 0 56 56" xmlns="http://www.w3.org/2000/svg"><path fill="#F0F3FA" d="M0 0h56v56H0z"/><path d="M19 15.85v-2.28a.3.3 0 0 1 .26-.3c3.96-.58 7.72-.22 11.26 1.08a21.68 21.68 0 0 1 10.4 7.98A22.02 22.02 0 0 1 45 34.88a.2.2 0 0 1-.11.1.2.2 0 0 1-.08.02h-2.38a.2.2 0 0 1-.14-.05.2.2 0 0 1-.06-.14 19.23 19.23 0 0 0-13.15-18.07 20.4 20.4 0 0 0-9.9-.67.22.22 0 0 1-.17-.22Z" fill="#479BE1"/><path d="M29.91 37h2.35c.03 0 .07 0 .1.02.03.01.06.03.08.06a.2.2 0 0 1 .03.1 6 6 0 0 1-.11.54c-1.24 3.02-3.32 4.98-6.22 5.86A9.5 9.5 0 0 1 15.5 39.8 8.51 8.51 0 0 1 14 34.88V15.3c0-1.92 3-1.88 3 .2v18.12c0 1.43.1 2.46.28 3.08a6.43 6.43 0 0 0 6.26 4.58 6.78 6.78 0 0 0 5.84-3.61c.04-.08.2-.58.28-.62a.5.5 0 0 1 .25-.06Z" fill="#98C043"/><path d="M30.43 24.67a12.55 12.55 0 0 0-8.9-2.35c-.75.07-1.58.34-2.31.46a.18.18 0 0 1-.15-.04.19.19 0 0 1-.07-.15v-2.34c0-.18.1-.3.27-.34a15.55 15.55 0 0 1 19.2 14.96.13.13 0 0 1-.04.1.13.13 0 0 1-.1.03H36a.28.28 0 0 1-.2-.07.27.27 0 0 1-.08-.2 12.47 12.47 0 0 0-5.28-10.06Z" fill="#479BE1"/><path d="M27.53 30.16a6.56 6.56 0 0 0-5.6-1.7c-1.09.16-1.74.53-2.65 1.04a.19.19 0 0 1-.28-.16v-2.48c0-.24.11-.4.34-.5a9.36 9.36 0 0 1 10.5 2.22 9.47 9.47 0 0 1 2.61 6.02c.02.27-.1.4-.37.4h-2.15a.26.26 0 0 1-.18-.07.26.26 0 0 1-.08-.17 6.46 6.46 0 0 0-2.14-4.6Z" fill="#98C043"/><path d="M23 38a3 3 0 1 0 0-6 3 3 0 0 0 0 6Z" fill="#479BE1"/></svg>