<!-- by TradingView --><svg width="56" height="56" viewBox="0 0 56 56" xmlns="http://www.w3.org/2000/svg"><path fill="#F0F3FA" d="M0 0h56v56H0z"/><path d="M46.2 32.51c.22.1.37.36.4.7-.07-.07-.15-.23-.2-.33l-.2-.37Zm-21.47-.85c.04.05.09.13.1.2v.88c-.08-.27-.1-.78-.1-1.08Zm18.97.38c.87-.01 1.77-.05 2.48.44-.78-.32-1.95-.14-2.41-.39-.07-.04.02.02-.03-.01l-.01-.01-.02-.02Zm-6.22-2.23.93.7c.66.47 1.4.9 2.22 1.08.24.05.47.09.72.1.27 0 .5-.04.74-.05-.1 0-.22.05-.34.07-1.29.19-2.37-.4-3.36-1.14L37.7 30c-.04-.03-.2-.16-.22-.2Zm-13.93-.03.79.54c.25.2.4.47.39.98-.1-.14-.02-.74-.66-1.03-.1-.05-.15-.04-.22-.11a3.47 3.47 0 0 1-.3-.38Zm13.93.03c-.14-.07-.05-.12 0 0Zm-17-.5.35.34c.08-.04.06-.06.13-.09.21.66 1.12.33 1.33.84a5.15 5.15 0 0 1-1.45-.72c-.31-.27-.27-.3-.35-.38Zm-2-.68c.06.2.15.24.13.53-.04.65.02 1.1.78 1.48.1.05.11.03.2.08 0 .01-.55.03-1.12-.51-.1-.1-.08-.25-.09-.44 0-.14.03-.27.05-.4.06-.22.16-.53.04-.74Zm9.98 1.55 1.75-1.32c.73-.57 2.38-1.7 3.19-1.97-.16.07-1.06.72-1.2.83l-1.17.9a9.81 9.81 0 0 1-2.57 1.56Zm-1.55-3.8.8-.4a12.53 12.53 0 0 1 4.8-1.33c.3-.02.86-.03 1.14.03.27.05.24.05.49-.05.2-.09.32-.06.36.17-2.33-.14-3.71.23-5.89.98l-.85.3c-.18.07-.7.29-.85.3Zm4.68-2.98c.6.04 1.98.52 2.44.93l-1.8-.73c-.2-.07-.47-.13-.64-.2Zm-16.96 2.86v-.84c.1.06.83-1.09 1.09-1.37.45-.5.77-.85 1-1.54 0 .53-.56 1.26-.88 1.65l-.17.2a5.32 5.32 0 0 0-1.04 1.9Zm5.57-2.67-.1-.32c.14-.13.22-.18.34-.33.26-.32.72-.89 1.21-.84-.34.1-.63.43-.8.66-.13.18-.5.75-.65.83Zm-7.08-2.2c.17-.02.83-.46 1.32-.57.64-.15.98.3.95.93-.02.6-.35 1-.6 1.34-.19.25-.43.5-.66.81l-.2.3c.05-.45.49-.91.69-1.17.42-.55 1.03-1.13.54-1.89-.19-.28-.25-.27-.65-.2-.43.1-1.2.46-1.4.46Zm6.49 1.2c.03-.4.2-.83.38-1.1.15-.24.47-.57.74-.7-.2.35-.36.58-.58.85-.18.22-.31.39-.43.66-.04.1-.07.22-.11.28Zm-7.16-2.44.58.2c-.07.05-.32.13-.41.17-.08.04-.36.16-.42.16.09-.06.5-.36.25-.53Zm5.02-.87c-.01-.47-.03-.64.2-.98l-.08-.1c-.12.05-.33.22-.41.3a2.15 2.15 0 0 0-.7 1.1c-.02.1-.03.23-.06.31-.03-.48.1-.98.32-1.28.2-.29.7-.46 1.04-.54l-.18.54c-.05.17-.08.54-.13.65ZM47 25.06l-.2.2c-.1-.02-.14-.07-.2-.12.12-.23.14-.67.08-.98-.09-.48-.25-.72-.28-.86a2 2 0 0 0-.21.54c-.22-.06-.29-.4-.34-.6l-.07-.24c-.28.08-.78.91-.93 1.1-.54.63-.29 1.31.22 1.77.33.3.69.57 1 .88.33.34.38.46.37.97 0 .5-.12 1.55-.72 1.62-1.8.2-2.99-1.3-4.1-2.43-.73-.91-1.31-1.91-2.37-2.46-1.6-.82-3.3-1.33-5.05-1.73-.96-.22-1.97-.48-2.96-.45l-.62.06c-.78.1-1.5.32-2.27.45a4.3 4.3 0 0 1-2.63-.24c-.22-.1-.42-.42-.6-.59a6.73 6.73 0 0 0-2.38-1.13c-.18-.06-.36-.12-.55-.13.13-.19.8-.03.81-.14.03-.22-.46-.7-.57-.81-.45-.47-.92-.9-1.61-.9-.22 0-.17.02-.29-.1l-.39-.4c-.52-.54-1.1-1.02-2.18-.92-.83.08-1.46.6-2.17.98l-.1-.1c.07-.1.55-.57.65-.64a1.2 1.2 0 0 0-.35-.46.89.89 0 0 0-.63-.2 3.7 3.7 0 0 1-1.55 2c-.22.16-.22.13-.47.18-1.05.22-1.6 1.22-2.24 2.01-.2.26-.6.88-.98.98.07.3.44.06.63.04.05.1.06.1.06.24-.26.17-.34.01-.62.07-.13.03-.11.04-.19.1.03.12.09.35.16.48.28.54.2.61.84.61.23 0 .51-.02.72.03.3.07.55.41.3.6-.13.12-.36.18-.52.06-.15-.11-.13-.27-.48-.27-.13 0-.2.05-.27.1 0 .23 0 .31.06.48.11.3.47.74.77.83.13-.1.27-.23.4-.32.27-.2.54-.4.78-.64.08-.08.26-.31.29-.43.32 0 .53.36.48.7-.03.15-.1.17-.15.27.1.06.18.14.29.2a2.5 2.5 0 0 0-.07 1.05c.05.28.17.63.4.79l.02-.18c.01-.48.04-.94.08-1.4.08.06.1.52.11.62.03.36.01.69-.06 1.03-.06.26-.02.1.05.27.07.19-.01.4-.18.42l-.02.24c0 .6-.05.97.27 1.47.64.97 1.67 1.72 2.52 2.47.16.16.52.6.56.8h.04c0-.13.03-.24.04-.35.04-.27.15-.81.16-1.04h.27c.51-.05.46.05.68.1 0-.18-.12-.26-.3-.38-.35-.25-1-.55-.87-1.12.1.06.4.47.48.56.2.25.3.27.69.36.3.07.58.1.93.05.32-.03.76-.2.82-.21-.04-.17-.24-.26-.32-.43-.2-.42-.6-.77-.65-1.26-.02-.18.03-.23.04-.36.06.05.1.24.14.32.14.32.33.62.53.9.26.36.59.66.86 1.02.98 1.31 2.34 2.04 2.97 3.62.08.2.2.49.1.79-.03.14-.25.5-.43.45-.58-.16-.93.04-1.32.44-.16.16-.31.34-.42.54.11.06.3.1.43.01.25-.2.12-.77.63-.75.12 0 .12.03.2.08-.1.13-.15.09-.27.33a.85.85 0 0 1-.11.19l-.16.14c.46 0 .6.08.81-.38.04-.08.1-.17.13-.26.2 0 .26-.02.33.12-.13.03-.28.38-.31.52.21 0 1.39.03 1.54-.02 1.2-.45 1.28-1.17.82-2.35-.09-.23-1-2.16-.54-2.27l.09-.01c.07-.16-.03-.36-.08-.46-.07-.16-.04-.36.12-.4.12.03.07.07.17.1-.03-.07-.08-.84-.1-1-.04-.3-.1-.67-.2-.92-.14-.4-.33-.73-.65-1-.1-.08-.2-.14-.33-.2l.09-.11c.08.02.59.42.67.48.64.5.53.81.65 1.66.02.15.05.34.1.48.05.19.09.26.18.4h.76c1.5-.01 3.09-.59 4.4-1.25.74-.38 1.51-.72 2.25-1.1l.17-.09c.66-.3 1.3-.24 1.87.06.32.17.61.42.86.68.46.47.9 1.04 1.42 1.45a7.57 7.57 0 0 0 2.5 1.38c1.15.4 2.98.66 4.34.78.4.04.4 0 .67.24.03.03.04.02.07.06.24.2.32.66.43.95.07.2.27.62.26.89 0 .22-.23.42-.41.52-.25.13-.35.2-.62.26-.37.07-.4.09-.6.45l-.2.34c.83.44.54-.73 1.18-.74.04.16.09.2-.06.43l-.27.41h2.12c0-.44.38-.7.61-.96l.03-.03c.33-.37.24-.66.04-1.06-.15-.32-.38-.63-.46-.98-.03-.15-.08-.2-.1-.37-.12-.59.25-1.65-.33-2-.37-.22-1.03-.03-2.01-.37a5.07 5.07 0 0 1-.69-.28 8.45 8.45 0 0 1-2.42-1.9c-.08-.07-.18-.16-.24-.25l.08-.1c.08.02.18.08.26.12.95.47 1.96 1.16 3.04 1.18.4 0 .82-.06 1.24-.25.53-.24.69-.85.78-1.42l.03-.4c0-.81-.16-1.64-.05-2.52.01-.1.05-.23.05-.35Z" fill="#C4903D"/><path d="M33.03 33.03c-.05-.5.05-.98.29-1.39.1-.17.18-.25.22-.3-.14.39-.51 1.25-.5 1.69ZM27 36.9c.28 0 .39.04.49-.07l.28-.27c.15-.16.38-.6.6-.33l-.63.66c.09.05.23.07.34.07.42 0 .66-.52.94-.71.06.1.22.15-.07.37-.34.28-.07.31.1.34 1.09.22 1.94-.56 2.56-1.37l.14-.19c.27-.4-.06-1.58.3-1.85 0 .64.12 1.51-.1 2.08-.03.08-.05.1-.09.17.1 0 .42-.08.5-.1 1.07-.37.25-1.8.75-2.38l.15-.15c.02-.03.14-.34.33-.64.55-.82 1.43-1.52 2.13-2.2.06-.06.26-.29.28-.36-.17-.27-.4-.5-.67-.67-.78-.55-1.8-.24-2.56.08-.6.28-1.2.6-1.78.9-.09.04-.1.04-.13.13-.28.81.16 1.86.16 2.69v.22a2.59 2.59 0 0 1-2.14 2.52c-.28.04-.6.06-.85.12-.27.06-.48.15-.66.3-.12.1-.35.44-.37.64ZM8 36.91c.47.3.72-.2.95-.55.09-.12.12-.13.23-.21.01.02.07.08.07.1 0 .25-.36.38-.38.66.29.16.47.01.63-.25.2-.33.16-.41.37-.41.08 0 .11.05.14.1-.03.08-.12.15-.2.26-.08.08-.16.16-.17.3.63 0 1.06.1 1.61-.23.41-.24.67-.63.85-1.13.3-.83.46-2.04.88-2.69l.2-.3c.06.05.04.07.11.09l-.1.15c-.27.37-.4 1-.48 1.47-.25 1.63-.42 1.54-.47 1.75l.6-.58c.95-1.09 1.85-2.3 3-3.12.06-.04.1-.07.16-.09-.03-.05-.08-.08-.14-.13-.38-.33-.54-.46-.89-.82l-.92-.93c-.1-.1-.28-.32-.38-.35-.03.15-.17.42-.23.57-.47 1.08-1.13 2.06-1.73 3.06-.22.43-.27.4-.37.82-.1.36-.19.56-.41.79-.69.71-2 .13-2.68 1.1-.1.14-.21.38-.25.57Z" fill="#C4903D"/></svg>