<!-- by TradingView --><svg width="56" height="56" viewBox="0 0 56 56" xmlns="http://www.w3.org/2000/svg"><path fill="#F0F3FA" d="M0 0h56v56H0z"/><path d="M17.29 23.73c-.01.03 0 .04.02.04h3.6c.03 0 .04 0 .03.03l-.5 1.17c-.01.02-.03.03-.05.03h-3.6c-.03 0-.05.02-.06.05L15.6 27.8c-.13.32-.17.6-.13.86.05.31.23.5.56.58.37.08.7.12 1 .12h2.3c.02 0 .03.01.02.04l-.44 1.07-.04.02H15.3c-1.4-.02-2.31-.25-2.72-.7-.4-.43-.47-.97-.21-1.6l2.11-5.13c.51-1.23 1.25-1.98 2.22-2.24a8.77 8.77 0 0 1 1.79-.28c.65-.04 2.03-.05 4.12-.03.02 0 .03.01.02.03l-.42 1.03c-.01.02-.03.03-.06.03h-2.02c-.45 0-.84.03-1.15.1-.45.08-.8.33-1.09.74a6.6 6.6 0 0 0-.6 1.29ZM32.69 29h15.76c.02 0 .02 0 .02.02l-.44.95c0 .02-.02.03-.04.03H31.2c-1.92 0-2.9-.49-2.98-1.46-.02-.28.1-.74.36-1.37l2.96-7.13c.01-.03.03-.04.06-.04h2.96c.07 0 .09.03.06.1-1.45 3.51-2.5 6.1-3.16 7.74-.35.87.58 1.16 1.22 1.16Z" fill="#0E5FAA"/><path d="M23.25 20.52c.04-.12.08-.12.12 0l.07.2c.04.1.04.2 0 .3-.24.68-.4 1.1-.48 1.28a.63.63 0 0 1-.37.37c-.1.03-.29.05-.55.05h-3.39c-.18 0-.2-.06-.05-.18.2-.16.44-.24.73-.25.96-.03 1.83-.03 2.62-.03.37 0 .66-.2.85-.64.2-.42.34-.79.45-1.1ZM35.42 20.47l.12.44v.03l-3 7.36c-.02.02-.03.02-.05.02h-.3c-.05 0-.06-.02-.04-.06l3.18-7.8c.01-.01.02-.02.05-.02.02 0 .03.01.04.03Z" fill="#E8213E"/><path fill-rule="evenodd" d="M24.06 30.23v.05c-.31.98-.97 1.5-1.98 1.54-.9.05-1.76-.04-2.57-.26-.03 0-.05 0-.07.03l-.7 1.03v.02c1.82.46 3.58.48 5.29.05a4.3 4.3 0 0 0 1.57-.74c.5-.37.85-.83 1.07-1.38l.63-1.54 2.41-5.97c.02-.04 0-.06-.04-.06h-2.76c-.05 0-.09.03-.1.08l-.04.1c-.03.06-.06.08-.11.05a3.59 3.59 0 0 0-1.35-.23 4.6 4.6 0 0 0-3.04.98c-.48.39-.9.93-1.26 1.63-.38.73-.7 1.46-.95 2.19-.16.45-.25.92-.26 1.38-.02.76.37 1.22 1.17 1.37a5.11 5.11 0 0 0 3.09-.32Zm.13-.83 2.07-5.1c.02-.06 0-.1-.05-.12a1.92 1.92 0 0 0-.82-.09c-.32.03-.57.14-.76.33-.12.12-.23.26-.3.42a21.68 21.68 0 0 0-1.63 4c-.13.43.01.69.44.75.32.05.65 0 1-.13a.09.09 0 0 0 .05-.06Z" fill="#0E5FAA"/><path d="M35.47 25.39h-.38c-.07 0-.09-.03-.06-.1l.08-.18c.03-.07.09-.11.17-.11h.42a.1.1 0 0 0 .09-.06l.39-.9a.05.05 0 0 1 .05-.04h1.1c.02 0 .03.01.02.03l-.39.9c-.02.05 0 .07.05.07h.55c.05 0 .06.02.04.07l-.12.27a.13.13 0 0 1-.12.08h-.53c-.05 0-.1.03-.11.07l-.82 1.73c-.08.16-.08.26-.02.3.06.06.2.08.4.06.03 0 .04 0 .02.04l-.14.32a.07.07 0 0 1-.05.04c-.41.04-.78.02-1.12-.06-.36-.08-.45-.33-.26-.74l.8-1.71c.02-.06 0-.08-.06-.08ZM42.25 27.83c-.59.18-1.07.21-1.44.11-.37-.1-.47-.32-.3-.68.13-.3.48-1.04 1.05-2.23a.05.05 0 0 1 .05-.03h1.06c.01 0 .02 0 .01.02l-1 2.28c-.06.12-.02.18.11.2l.3.03c.13 0 .22-.04.27-.16l1.03-2.33a.06.06 0 0 1 .06-.04h1.08c.03 0 .03.01.02.03l-1.33 2.91c-.01.04-.05.06-.1.06l-.74-.03c-.04 0-.06-.02-.06-.06v-.04c-.01-.03-.03-.05-.07-.04ZM47.54 27.52c.22.03.42-.01.58-.13a.17.17 0 0 0 .07-.14c0-.05-.02-.1-.06-.14-.1-.1-.3-.26-.59-.48-.23-.19-.33-.37-.29-.54.05-.24.12-.42.21-.55.1-.14.26-.25.47-.34.49-.2 1.03-.25 1.63-.14.22.04.36.16.43.35.02.08.01.14-.04.2a.23.23 0 0 1-.2.1h-.7c-.06 0-.09-.02-.08-.08.02-.12-.03-.19-.14-.19-.2 0-.33.05-.42.18-.1.1-.08.22.02.31l.26.22c.36.27.56.48.6.61.11.38 0 .67-.36.9-.55.35-1.21.43-1.98.24-.36-.08-.46-.28-.33-.58.02-.04.06-.07.11-.07h.67c.04 0 .07.03.07.07v.11c0 .05.02.08.07.09ZM46.18 25.12c.4-.13.8-.15 1.2-.08.03 0 .04.02.03.05l-.23.52c-.02.03-.04.05-.08.04h-.02c-.5-.07-.84-.06-1.01.01a.16.16 0 0 0-.09.09l-1 2.23c0 .01-.01.02-.03.02h-1.09c-.01 0-.02 0-.01-.02l1.29-2.89a.1.1 0 0 1 .1-.06h.8c.03 0 .05 0 .07.03l.04.05.03.01Z" fill="#0E5FAA"/><path fill-rule="evenodd" d="M39.86 25.02a2.25 2.25 0 0 0-1.95.63c-.34.34-.58.77-.74 1.28-.19.63.04.98.67 1.05.81.09 1.46-.12 1.95-.63.34-.34.59-.77.74-1.28.2-.63-.03-.98-.67-1.05Zm-.8 1.68.04-.06c.16-.35.3-.67.41-.96.05-.11 0-.18-.1-.22-.17-.05-.34.04-.5.25a3.53 3.53 0 0 0-.37.67c-.17.34-.3.67-.42.96-.04.1 0 .18.11.21.17.05.33-.03.5-.24.1-.13.2-.33.34-.6Z" fill="#0E5FAA"/><path d="m16.43 28.5-.28-.03c-.05 0-.06-.03-.04-.08l.96-2.36c.01-.02.03-.03.05-.03h2.4c.03 0 .04.01.05.03v.05l-.22.38a.05.05 0 0 1-.04.02h-1.99c-.02 0-.04.01-.05.04l-.79 1.94c-.01.02-.03.03-.05.03ZM47.93 31c.43 0 .72-.2.89-.55.13-.28.3-.71.53-1.3.01-.02.02-.03.04-.03s.04 0 .05.02c.09.17.1.35.04.55-.03.12-.2.54-.5 1.26-.08.2-.2.33-.35.4-.12.05-.3.08-.55.08H31c-.39 0-.87-.08-1.45-.23-.5-.13-.92-.39-1.25-.77-.17-.2-.15-.23.07-.09.62.42 1.51.66 2.67.66h16.89Z" fill="#E8213E"/><path fill-rule="evenodd" d="M13.5 22.34a5.68 5.68 0 0 0-.51-1.68c-.03-.06-.02-.08.05-.08l1.52.12h.05l.59-.47c.03-.02.02-.03 0-.04a9.17 9.17 0 0 0-6.5 1.03 7.4 7.4 0 0 0-2.75 2.68 6.56 6.56 0 0 0 .23 7.14 7.4 7.4 0 0 0 2.48 2.32 9 9 0 0 0 9.44-.23l-.37-.38c-.02-.02-.04-.02-.06 0a8.2 8.2 0 0 1-4.62 1.24c-.06 0-.07-.02-.04-.07a6 6 0 0 0 .59-2.2c0-.06.03-.08.08-.07.73.14 1.8.2 3.21.19h.85c.03 0 .05-.02.07-.05l.32-.46c.01-.02.01-.03-.01-.03-1.51.02-2.74.02-3.67-.02a4.59 4.59 0 0 1-2.36-.7c-.11-.08-.13-.06-.05.05.3.43.74.73 1.31.92.06.01.08.05.07.11a9.54 9.54 0 0 1-.4 1.78c-.06.2-.15.36-.26.5a.15.15 0 0 1-.14.05.15.15 0 0 1-.12-.08 3.48 3.48 0 0 1-.4-1.05c-.17-.72-.3-1.55-.38-2.48-.01-.2-.11-.4-.3-.62a.14.14 0 0 0-.1-.06H7.9c-.05 0-.08-.02-.1-.07-.6-2.1-.44-4.02.49-5.76a5.94 5.94 0 0 1 3.86-3.13c.04 0 .06 0 .04.05-.2.46-.34.9-.4 1.3a28.07 28.07 0 0 0-.43 5.6c0 .06.01.07.04.02.12-.2.18-.4.18-.62 0-1.6.1-3.12.34-4.58.15-.96.35-1.57.6-1.81.07-.06.14-.06.2 0 .27.33.48.98.62 1.97.01.09.04.1.1.03.06-.11.09-.23.07-.36Zm-5.89 2.4a6.4 6.4 0 0 1 2.95-3.65c.17-.09.16-.1-.02-.05a7.45 7.45 0 0 0-4.14 3.2 5.94 5.94 0 0 0-.38 5.37c.02.04.05.06.08.06h1.37c.05 0 .07-.03.05-.07a7.8 7.8 0 0 1 .09-4.86Zm.46 7.52a7.83 7.83 0 0 0 2.48 1.32c.2.07.21.05.03-.06a6.62 6.62 0 0 1-2.93-3.51c-.02-.04-.04-.06-.08-.06h-1.3c-.07 0-.08.03-.05.08.45.86 1.06 1.6 1.85 2.23Zm4.08 1.62A6.18 6.18 0 0 1 7.92 30c-.02-.04 0-.06.03-.06h3.39c.07 0 .11.04.12.11.06.8.15 1.55.27 2.26.1.55.25 1.06.46 1.51.01.04 0 .06-.04.05Z" fill="#E8213E"/><path d="m27.6 30.03.19.28v.04a4.5 4.5 0 0 1-1.66 2.53c-.67.48-1.5.81-2.5.98-1.15.2-2.33.22-3.54.06-.6-.07-1.13-.2-1.57-.35-.14-.05-.25-.17-.33-.35-.03-.06-.01-.08.05-.06 1.45.39 2.91.5 4.38.35a7.4 7.4 0 0 0 2.59-.73 4.18 4.18 0 0 0 1.94-1.87l.4-.87c0-.04.03-.04.05 0Z" fill="#E8213E"/><path fill-rule="evenodd" d="M42.66 33.33c-.01-.03-.01-.05.02-.07l.33-.24c.04-.03.07-.03.1 0l.44.47c.02.02.01.04-.01.06-.1.1-.23.19-.4.27-.06.04-.11.02-.15-.04l-.33-.45Zm2.5 2.1c.02-.03.01-.05-.03-.05h-.58c-.02 0-.03 0-.04.02l-.37.74a.13.13 0 0 1-.1.08l-.52.08c-.09 0-.12-.03-.1-.11l.07-.22c.03-.07.07-.1.13-.08.13.03.23-.06.32-.26.04-.08.15-.33.31-.76.03-.07 0-.1-.06-.1h-.12a.13.13 0 0 0-.13.09c-.22.53-.5 1-.83 1.4-.07.07-.14.09-.23.03l-.14-.1c-.07-.03-.07-.08-.02-.14.47-.53.8-1.18 1-1.94.01-.03 0-.05 0-.07a.06.06 0 0 0-.07-.02.4.4 0 0 1-.14 0c-.04 0-.05-.03-.04-.07l.14-.32c.02-.04.04-.05.08-.05h.41a.1.1 0 0 0 .1-.05.1.1 0 0 0 .01-.1l-.06-.25c0-.02 0-.04.03-.04l.5-.08c.04 0 .06.01.06.05l-.04.42c0 .06.02.09.08.09h.3c.06 0 .08.03.06.09a.6.6 0 0 1-.1.2c-.03.04-.1.05-.2.05h-.38c-.05 0-.1.03-.11.09l-.07.23c-.01.05 0 .07.06.07h.6c.06 0 .08.04.05.1l-.18.42c-.02.05 0 .08.05.08h.52c.03 0 .06-.01.09-.04l.29-.32c.04-.04.03-.07-.03-.07h-.43c-.05 0-.06-.02-.03-.06l.02-.04c.03-.03.02-.06 0-.09a.55.55 0 0 0-.15-.1c-.07-.01-.11-.05-.13-.12a.16.16 0 0 1 .06-.16c.32-.26.57-.56.76-.92a.05.05 0 0 1 .04-.02l.46.03c.01 0 .02.01 0 .02l-.15.26c-.03.05-.02.08.04.08h.72c.06 0 .07.02.05.07l-.12.3a.1.1 0 0 1-.1.06h-.82a.19.19 0 0 0-.17.08l-.11.16c-.03.04-.02.06.03.06h.75c.06 0 .08.03.05.09-.1.22-.29.47-.55.72-.04.05-.03.07.03.07h.27c.07 0 .1.03.07.1l-.06.18c-.04.09-.1.13-.2.12l-.34-.02c-.05 0-.07.01-.09.05l-.18.51a.63.63 0 0 1-.37.34c-.1.03-.28.04-.5.03-.06 0-.1-.04-.09-.1l.02-.25c0-.07.05-.1.11-.1h.2c.05 0 .08-.02.1-.06l.24-.38Zm-2.95-.86h.4c.03 0 .05.01.06.04.02.02.01.04 0 .06l-.62.73c-.05.05-.04.07.03.07h.4c.04 0 .05.02.03.06a3 3 0 0 1-1.14 1.07c-.04.02-.04.05-.02.08l.16.3c.02.02.04.03.07 0l.5-.36a.09.09 0 0 1 .1 0c.27.15.47.23.59.24.85.07 1.77.09 2.75.04.02 0 .04-.01.05-.03l.27-.43c.02-.04.01-.05-.02-.05-.96.06-1.7.08-2.24.07-.42 0-.79-.07-1.1-.2-.05-.01-.06-.04-.03-.08l.76-1.04c.05-.07.03-.1-.05-.1h-.31c-.06 0-.07-.03-.03-.07l.58-.8a.05.05 0 0 0 0-.06.05.05 0 0 0-.04-.02h-1.09c-.03 0-.04.01-.04.04l-.04.42c0 .01 0 .02.02.02Zm-7.72 1.26c-.1-.08-.09-.12.04-.12h.64c.04 0 .06-.01.08-.05l.69-1.6c.02-.05 0-.08-.05-.08h-1.36c-.07 0-.08-.02-.05-.08l.04-.06a.16.16 0 0 1 .15-.08h1.72c.03 0 .05-.02.06-.04l.17-.39c0-.03 0-.04-.03-.04h-1.77c-.06 0-.08-.02-.04-.08l.09-.14c.02-.05.01-.07-.04-.07h-.5c-.06 0-.09.03-.09.08v.11c-.01.07-.05.1-.11.1h-1.8c-.02 0-.03.01-.04.03l-.18.4c0 .03 0 .04.02.04h1.8c.05 0 .06.02.04.06l-.05.08a.16.16 0 0 1-.15.08h-1.26c-.06 0-.1.03-.13.09l-.67 1.55c-.02.06 0 .09.06.09h.53c.18 0 .2.04.03.12a5.1 5.1 0 0 1-1.3.45c-.02 0-.03.02-.03.04l.06.42c0 .02.01.03.04.03a5.8 5.8 0 0 0 1.98-1.05c.06-.05.08-.03.04.04l-.5 1.18c-.01.02 0 .03.01.03h.52c.02 0 .03 0 .03-.02l.5-1.15c.02-.05.05-.05.08 0 .03.03.09.13.17.28.13.25.46.48.99.68l.06-.01.43-.43c.02-.02.02-.03 0-.04a2.08 2.08 0 0 1-.92-.45Zm.6-1.4-.78.01c-.06 0-.11.05-.11.11v.05c0 .06.05.1.11.1l.8-.01c.05 0 .1-.05.1-.11v-.05a.11.11 0 0 0-.11-.1Zm-1.42.09-.05.1a.14.14 0 0 1-.14.1l-.7-.01c-.08 0-.1-.04-.07-.12l.03-.07c.03-.07.07-.1.14-.1h.73c.06.01.08.04.06.1Zm-.26.71.05-.1c.02-.07 0-.1-.06-.1l-.78.01c-.07 0-.12.03-.15.1l-.03.08c-.04.08 0 .12.08.12h.74c.07 0 .12-.04.15-.1Zm.53.02.05-.1c.03-.08.08-.11.16-.11h.73c.1 0 .12.04.08.12l-.03.08a.15.15 0 0 1-.15.1h-.77c-.07 0-.1-.03-.07-.1Zm5.85-2.12a.17.17 0 0 1-.02-.06c0-.05.02-.07.06-.07h.45c.05 0 .1.02.12.07l.03.06c.02.03.04.04.07.04h1.28c.07 0 .09.03.06.1l-.08.18c-.02.05-.05.07-.1.07h-2.48c-.07 0-.12.04-.15.13v.05c.02.07.06.1.13.1h2.13c.03 0 .04.02.03.05-.04.06-.06.13-.08.2 0 .02-.02.03-.04.03h-2.65a.17.17 0 0 1-.15-.08.18.18 0 0 1-.01-.18l.08-.2c.02-.05 0-.08-.05-.1a.28.28 0 0 0-.22.06 2 2 0 0 0-.35.29c-.03.03-.07.03-.1-.01l-.25-.36c-.04-.06-.03-.1.03-.14l.32-.19c.08-.05.15-.03.2.05.04.05.11.13.22.23 0 0 .03 0 .05-.05a.81.81 0 0 0 .06-.1c.02-.05.05-.07.1-.07h1.25c.08 0 .1-.03.06-.1Zm-2.5 1.7-.3-.42v-.04l.33-.25c.09-.06.17-.06.25.02l.2.2c.08.06.07.13 0 .19l-.43.31c-.02.02-.04.01-.05 0Zm3.99-.51-.27.63c-.01.02-.03.03-.05.03H37.9c-.05 0-.06-.02-.04-.07l.26-.63c.01-.02.03-.03.05-.03h3.06c.05 0 .07.02.05.07Zm-.75.17-1.92.01a.1.1 0 0 0-.1.1v.02c0 .06.05.1.1.1h1.92a.1.1 0 0 0 .1-.11v-.02a.1.1 0 0 0-.1-.1Zm-4.11 2.44-.4-.19c-.03 0-.03-.02-.02-.03.4-.43.7-.9.93-1.4.03-.06.08-.09.14-.09h.28c.04 0 .07.02.08.05.02.03.02.07 0 .1l-.95 1.54c-.01.02-.03.03-.06.02Zm2.92-1.63h.24c.07 0 .1.04.07.1l-.14.33c-.02.05 0 .07.04.07h.2c.06 0 .1-.03.1-.1v-.43c0-.1.04-.14.13-.14h.73c.06 0 .07.02.05.08l-.52 1.22c-.01.03 0 .04.02.06l.05.04c.03.01.05 0 .06-.02l.13-.3c.02-.05.04-.06.07-.01l.04.07v.05c-.08.28-.24.5-.5.65a.16.16 0 0 1-.17 0 .17.17 0 0 1-.09-.17l.01-.14c0-.01 0-.03-.02-.04a.05.05 0 0 0-.04 0l-.03.01c-.03.05-.06.07-.08.07-.04 0-.07-.02-.08-.08 0-.02-.02-.03-.03-.04-.02 0-.04 0-.05.02l-.23.31c-.04.06-.1.07-.15.02l-.06-.05c-.07-.05-.08-.1-.02-.17l.36-.36c.04-.05.06-.1.04-.16l-.04-.12c-.02-.07-.05-.08-.1-.02a.86.86 0 0 0-.21.48c0 .05-.03.09-.06.12-.08.06-.16.07-.26.03a.12.12 0 0 0-.12 0l-.43.26a.08.08 0 0 1-.09 0 .08.08 0 0 1-.04-.08v-.07c0-.09.04-.15.13-.18l.21-.06c.1-.03.1-.06 0-.1l-.13-.07c-.06-.02-.07-.06-.04-.11l.29-.47a.42.42 0 0 0 .06-.22v-.08c0-.13.06-.2.16-.2.04 0 .08-.03.1-.06.05-.09.1-.13.17-.14.13-.01.2.03.2.14 0 .04.03.06.07.06Zm.66 1.04h.02l.33-.85-.01-.03h-.01c-.1-.04-.19.02-.25.2l-.14.36c-.07.17-.05.28.05.32Zm-.82-.7c.05.04.06.1.03.15l-.3.48a.1.1 0 0 1-.14.03.1.1 0 0 1-.04-.16l.3-.47a.1.1 0 0 1 .15-.03Zm-1.57.75h.18c.08 0 .1.04.06.1l-.06.1a.16.16 0 0 1-.15.09c-.11 0-.18.07-.22.2-.01.06 0 .09.06.1.28.06.48-.06.59-.34.12-.35.32-.8.59-1.37.04-.1.01-.15-.1-.15h-.72c-.1 0-.17.06-.2.16-.2.62-.44 1.1-.73 1.42-.06.07-.05.13.02.18l.1.06c.08.05.15.04.2-.05l.27-.43a.12.12 0 0 1 .1-.07Zm.43-.72c.1-.05.16-.14.13-.2s-.14-.07-.23-.02c-.1.04-.16.13-.13.2.03.06.13.07.23.02Zm-.23.52c.1-.04.17-.12.15-.18-.02-.06-.12-.07-.23-.03-.1.04-.18.12-.15.18.02.06.12.07.23.03Z" fill="#E8213E"/></svg>