<!-- by TradingView --><svg width="56" height="56" viewBox="0 0 56 56" xmlns="http://www.w3.org/2000/svg"><path fill="#962029" d="M0 0h56v56H0z"/><path d="M28 45a17 17 0 1 0 0-34 17 17 0 0 0 0 34Zm-5.66-29.94c1.36-.47 4.28-2.2 5.66-3.06 1.38.86 4.3 2.6 5.66 3.06 1.4.47 1.99 2.02 2.1 2.73.24-.48 1.87 0 3.39 1.66 1.21 1.34 3.07 3.26 3.85 4.05-.16.63-.51 2.47-.7 4.75-.1 3.05-1.6 3.81-2.33 3.81 1.3 1.05.54 3.37 0 4.4l-3.5 5.47c-2.4-.24-3.83.31-4.86.7-.52.2-.94.37-1.33.37-.9 0-1.86-.65-2.28-1.02-.42.37-1.39 1.02-2.28 1.02-.39 0-.8-.16-1.33-.36-1.03-.4-2.45-.95-4.85-.71l-3.5-5.47c-.55-1.03-1.31-3.35 0-4.4-.74 0-2.25-.76-2.34-3.8a34.45 34.45 0 0 0-.7-4.76c.78-.8 2.64-2.71 3.85-4.05 1.52-1.66 3.15-2.14 3.39-1.66.11-.71.7-2.26 2.1-2.73Z" fill="#fff"/><path d="M18.38 23 18 20.66l2-.32V18h2v2.34c1-.41 3.8-1.25 6.5-1.25s3.46 2.4 3.5 3.6a6.3 6.3 0 0 0-3.75-1.4c-1.7 0-7.3 1.14-9.88 1.71Z" fill="#fff"/><circle cx="34" cy="20" r="1" fill="#fff"/><path fill="#fff" d="M20 38h1v3h-1zM24 38h2v3h-2zM31 38h2v3h-2zM36 38h1v3h-1zM26.9 34c.88 0 1.6.9 1.6 2 0-1.1.72-2 1.6-2H37v2h-7v2h-3v-2h-7v-2h6.9ZM26.69 24H20v2h7v5h-7v2h17v-2h-7v-5h7v-2h-6.69c-.79 0-1.47.43-1.81 1.07A2.05 2.05 0 0 0 26.69 24Z"/><path d="M24 27h-2v1h-1v1h1v1h2v-1h1v-1h-1v-1Zm8 0h2v1h1v1h-1v1h-2v-1h-1v-1h1v-1Z" fill="#fff"/></svg>