<!-- by TradingView --><svg width="56" height="56" viewBox="0 0 56 56" xmlns="http://www.w3.org/2000/svg"><path fill="#F0F3FA" d="M0 0h56v56H0z"/><path d="M25 22.2v13.07c-.2.7-.68.82-1.11.37a6.15 6.15 0 0 1-1.89-4.2c-.02-5.12.02-8.64 0-10.55 0-.2.36-.33.56-.37a40.05 40.05 0 0 1 18.27.09c.1.02.16.09.16.2-.03 2.11-.03 5.58 0 10.4.01 2.8-1.03 5.32-3.13 7.55a37.07 37.07 0 0 1-9.67 7.2.23.23 0 0 1-.22.01 35.94 35.94 0 0 1-7.23-4.6c-2.67-2.2-4.4-4.4-5.2-6.58a13.1 13.1 0 0 1-.54-4.23c0-1.66 0-6.86.03-15.61 0-.17.07-.27.23-.32a30.8 30.8 0 0 1 4.17-.98 54.34 54.34 0 0 1 20.98.86c.4.09.59.34.59.75v.41c0 .41-.2.58-.6.49a52.83 52.83 0 0 0-21.98-.1c-.21.05-.42.18-.42.4a1699 1699 0 0 1 0 15.25 8.9 8.9 0 0 0 2.01 5.44 24.85 24.85 0 0 0 7.59 6.63 1 1 0 0 0 1.12-.02 32.5 32.5 0 0 0 5.44-4.26C36.31 37.3 38 34.7 38 31.64c.02-3.1 0-6.24 0-9.42 0-.22-.33-.34-.55-.37a45.13 45.13 0 0 0-12.3.01c-.2.03-.15.15-.15.35Z" fill="#104085"/></svg>