<!-- by TradingView --><svg width="56" height="56" viewBox="0 0 56 56" xmlns="http://www.w3.org/2000/svg"><path fill="#F0F3FA" d="M0 0h56v56H0z"/><path d="M27.07 11.22a.81.81 0 0 1 1.09-.02l16.7 15.07c.28.25.1.73-.27.73h-1.77a.83.83 0 0 0-.82.84v11.32c0 .47-.37.84-.82.84H14.82a.83.83 0 0 1-.82-.84V27.84a.83.83 0 0 0-.82-.84H11.4c-.37 0-.55-.47-.27-.73l15.93-15.05Zm1.35 11.1a.44.44 0 0 0-.84 0L26.11 27h-4.66c-.44 0-.62.58-.25.84l3.74 2.27-1.44 4.29c-.14.41.31.77.67.52L28 32.25l3.84 2.67c.35.25.8-.1.66-.52l-1.44-4.29 3.74-2.27c.37-.26.2-.84-.25-.84H29.9l-1.47-4.69Z" fill="url(#a)"/><defs><linearGradient id="a" x1="28" y1="11" x2="28" y2="40" gradientUnits="userSpaceOnUse"><stop stop-color="#F3958E"/><stop offset=".63" stop-color="#DC1C22"/><stop offset="1" stop-color="#C21D23"/></linearGradient></defs></svg>