<!-- by TradingView --><svg xmlns="http://www.w3.org/2000/svg" width="56" height="56"><path fill="#F0F3FA" d="M0 0h56v56H0z"/><path d="M31 33h-1.65v1H31v.56h1V34h2v.56h1v-.58h1.69V33H35v-1h-1v1h-2v-1h-1v1zm-8.34-.93c-.4.07-1.19.2-2.02.24l-.64.03V33h1v1.23h-1V35h1l-1.19 2.49v1.38l1.19-2.1V40h1v-3.23L23 38v-1.5L22 35h1v-.77h-1V33h1.41v-1h-.38l-.37.07zM39 33h-1.4l.03 1H39c0 1-.19 2.89-1.34 3.99-.7.67-1.7.98-2.66 1.01h-2.97c-.12 0-.2-.03-.08-.15.05-.04.67-.58 1.9-1.55 1.39-1.11 1.78-1.5 1.99-1.68a.4.4 0 00.16-.37c0-.13-.07-.24-.16-.24l-3-.01-3.16-.01V36H34l-4 3.11c-.2.16-.51.38-.4.68.05.12.17.21.4.21h5a5.62 5.62 0 001.69-.32C39.15 38.81 40 36.31 40 34h5v-1h-1.84l.63-1H42.5l-.5 1h-2v-1h-1v1zm-27 7h1v-7h5v5.99c.03.39-.73.52-.73.52V40h.28c.62 0 1.45-.3 1.45-1.01V32h-7v8zm12-5h2.75c1 0 1.25-.23 1.25-1.23V32h-4v3zm2.45-.76H25V33h2v.77s0 .47-.55.47zm-12.86.5h3.86V34H13.6v.74zM40.55 39c0 .75.45 1 .94 1h2.15c.86 0 1.36-.43 1.36-1.31v-.32h-1c0 .63-.36.86-.71.86H41.8c-.28 0-.27-.4-.28-.77v-.34A5 5 0 0044.5 35h-1s-.84 1.84-1.95 2.28V34.5h-1V39zm-26.9 0h1.5c1.37 0 1.54 0 1.71-.09.23-.1.34-.2.44-.43a10 10 0 00.07-1.83V35.4h-3.72V39zM24 36.7h1.5v.79H24v.74h1.5v1.12h-1.95V40h5.02v-.65h-2.06v-1.12h1.77v-.74h-1.77v-.8h1.92V36H24v.7zm-7.41.11c-.02 1.04.06 1.17-1.18 1.19h-.94v-2h2.12v.81z" fill="#575A59"/><path d="M30.08 16.27c.04.15.17.48.28.73.2.42.23.45.33.35.15-.15.35-.14.56 0 .28.2.9.85.9.96 0 .12-.64.12-.89-.01-.22-.12-.45-.43-.5-.4-.03.02.02.17.15.44.4.85.98 1.47 1.52 1.62l.17.05-.15-.11a1.8 1.8 0 01-.47-.77c-.06-.18-.05-.18.18.04.21.2.4.3.75.41.06.02.3.32.52.66l.4.62-.22.28c-.13.15-.3.44-.4.66-.15.34-.17.47-.14 1 .02.52.06.69.3 1.17.69 1.48 2.14 2.32 4.43 2.57 1.3.14 2.33 0 3.26-.48A3.37 3.37 0 0043 22.8a4.78 4.78 0 00-1.5-3.43 7.15 7.15 0 00-3.9-1.95l-.42-.04.42.17a6.57 6.57 0 013.75 3.94c.44 1.42.09 3.06-.86 3.96a2.98 2.98 0 01-3.68.43 6.37 6.37 0 01-2.18-2 3.72 3.72 0 01-.45-2.4c.04-.04.17.08.31.26.54.71 1.38 1.5 1.83 1.74 1.33.67 2.82.58 3.62-.24.3-.3.43-.74.37-1.15-.16-1.06-1.11-1.92-2.42-2.21a5.28 5.28 0 00-2.69.22c-.08.03-.2-.11-.47-.53-.2-.31-.36-.6-.36-.62 0-.02.1-.04.21-.04h.21l-.34-.32-.33-.31c.46.12 1.24.16 1.28-.15.02-.18-.07-.34-.15-.49-.05.16-.1.32-.29.36a3.6 3.6 0 01-1.45-.42l-.34-.17.5.03c.33.02.53 0 .6-.06.11-.1.14-.4.03-.47-.04-.03-.07-.01-.07.03s-.12.11-.27.16c-.36.1-1.1 0-1.65-.27-.45-.2-.58-.19-.58.08v.18l-.33-.25a10.2 10.2 0 00-1.34-.84c-.03 0-.02.12.02.27zm2.57 1.27c.19.1.32.2.31.24-.05.15-.23.1-.52-.14-.35-.3-.27-.33.21-.1zm4.32 2.71c1.37.38 2.17 1.24 2.24 2.41.03.49.02.54-.14.7-.25.26-.48.3-.83.17-.71-.29-1.47-1.06-2.61-2.64l-.43-.6.2-.04.25-.07c.2-.07.96-.02 1.32.07zm-6.22 1.32c-.44.14-.75.51-.75.9 0 .78.33 1.83.8 2.58a7.03 7.03 0 004.79 2.9L36 28l-.45-.17a6.21 6.21 0 01-2.29-1.48 5.52 5.52 0 01-1.79-4.23l.03-.67h-.21c-.12 0-.36.06-.54.12z" fill="#E60012"/><path d="M19.5 26.18A3.2 3.2 0 0116.47 28C14.55 28 13 26.55 13 24.76c0-1.8 1.55-3.25 3.47-3.25 1.4 0 2.55.79 3.05 1.92.22-.33.52-.53.85-.53.68 0 1.23.86 1.23 1.92s-.55 1.92-1.23 1.92c-.34 0-.65-.21-.87-.56z" fill="url(#awilgf5qy)"/><ellipse cx="14.57" cy="24.32" rx=".9" ry=".89" fill="#F0F3FA"/><circle cx="14.23" cy="24.39" r=".5"/><circle cx="14.07" cy="24.29" fill="#F0F3FA" r=".13"/><path d="M15.97 21.54l.4 1.36c.04.17.2.83.16 1.4-.04.42-.26.7-.52 1.03l-.04.06c-.45.57-.93 1.26-.72 2.4.38.14.79.2 1.22.2a2.5 2.5 0 01.38-2.35c.15-.22.3-.45.37-.71.16-.55.1-1.12.04-1.7l-.04-.33-.13-1.34a3.64 3.64 0 00-1.12-.02z" fill="url(#bwilgf5qy)"/><path d="M21.66 17.43c.36.31.63.72.82 1.24.26-.45.64-.74 1.05-.74.81 0 1.47 1.07 1.47 2.39 0 1.31-.66 2.38-1.47 2.38-.4 0-.77-.26-1.03-.7-.54 1.6-1.93 2.16-3.57 2.16-2.1 0-3.8-1.7-3.8-3.78s1.7-3.77 3.8-3.77c.21 0 .41 0 .6.02.35-.53 1.03-.76 1.5-.56.54.24.76.8.63 1.36z" fill="url(#cwilgf5qy)"/><path d="M18.49 16.64a3.75 3.75 0 011.71 2.62c.1.97-.26 1.64-.6 2.27-.02.01-.02.03-.03.05a3.64 3.64 0 00-.46 2.58h-.18c-.39 0-.77-.06-1.12-.17-.51-1.1.02-1.86.61-2.71l.05-.07c.37-.53.66-1.35.63-2.22-.04-.99-.83-1.75-1.48-2.15.28-.1.57-.17.87-.2z" fill="url(#dwilgf5qy)"/><circle cx="16.83" cy="20.02" fill="#F0F3FA" r="1.03"/><ellipse cx="16.5" cy="20.02" rx=".57" ry=".56"/><circle cx="16.3" cy="19.95" fill="#F0F3FA" r=".17"/><defs><linearGradient id="awilgf5qy" x1="17.3" y1="21.51" x2="17.3" y2="28" gradientUnits="userSpaceOnUse"><stop stop-color="#75C906"/><stop offset="1" stop-color="#5EB301"/></linearGradient><linearGradient id="bwilgf5qy" x1="16.26" y1="21.51" x2="16.26" y2="28" gradientUnits="userSpaceOnUse"><stop stop-color="#CBDEBF"/><stop offset="1" stop-color="#CEDFAE"/></linearGradient><linearGradient id="cwilgf5qy" x1="20.07" y1="16" x2="20.07" y2="24.16" gradientUnits="userSpaceOnUse"><stop stop-color="#FF7904"/><stop offset="1" stop-color="#FB5900"/></linearGradient><linearGradient id="dwilgf5qy" x1="18.91" y1="16.64" x2="18.91" y2="24.16" gradientUnits="userSpaceOnUse"><stop stop-color="#FEFEFF"/><stop offset="1" stop-color="#FBB96A"/></linearGradient></defs></svg>