<!-- by TradingView --><svg width="56" height="56" viewBox="0 0 56 56" xmlns="http://www.w3.org/2000/svg"><path fill="#F0F3FA" d="M0 0h56v56H0z"/><path fill-rule="evenodd" d="M28 45a17 17 0 1 0 0-34 17 17 0 0 0 0 34Zm0-1a16 16 0 1 0 0-32 16 16 0 0 0 0 32Z" fill="#DA251C"/><path fill-rule="evenodd" d="M28 43a15 15 0 1 0 0-30 15 15 0 0 0 0 30Zm0-7c7.73 0 14-3.58 14-8s-6.27-8-14-8-14 3.58-14 8 6.27 8 14 8Z" fill="#DA251C"/><path d="M26 34.88a16.08 16.08 0 0 0 4 0A18.03 18.03 0 0 1 28.66 28c0-2.46.48-4.79 1.34-6.87a16.07 16.07 0 0 0-4-.01A18.03 18.03 0 0 1 27.34 28c0 2.46-.48 4.8-1.34 6.88Z" fill="#DA251C"/><circle cx="34" cy="28" r="4" fill="#DA251C"/><circle cx="22" cy="28" r="4" fill="#DA251C"/></svg>