<!-- by TradingView --><svg width="56" height="56" viewBox="0 0 56 56" xmlns="http://www.w3.org/2000/svg"><path fill="#F0F3FA" d="M0 0h56v56H0z"/><path d="m40.76 25.76-.26-.15c-.06-.03-.07-.07-.02-.12l.4-.4a.38.38 0 0 1 .41-.1c.26.1.46.1.6.04a1.62 1.62 0 0 0 .49-.43.08.08 0 0 0 .01-.1.08.08 0 0 0-.08-.04h-1c-.08 0-.12-.04-.12-.12 0-.15-.06-.26-.16-.32-.07-.04-.12-.02-.17.04l-.22.32a.18.18 0 0 1-.14.09l-.65.01c-.13 0-.23.07-.29.2a.12.12 0 0 0 0 .07c0 .12.07.18.19.18h.58c.06 0 .08.03.07.08l-.17.57c0 .03-.03.04-.06.04L40 25.6c-.08 0-.13 0-.17-.02-.22-.1-.45-.17-.7-.22a.23.23 0 0 0-.18.04c-.52.37-1.2.73-2.04 1.07-.11.05-.17.13-.17.24 0 .08.03.12.11.12.42.02.75.12 1 .3.14.1.16.2.06.33-.4.5-1.2.95-2.4 1.32a.22.22 0 0 1-.18-.01l-.62-.36a.25.25 0 0 0-.28 0 .26.26 0 0 0-.13.27c.04.38.26.66.64.83.76.36 1.55.28 2.35-.24.05-.04.1-.03.15 0 .17.12.24.27.21.46 0 .1-.1.33-.25.68-.06.15-.09.26-.07.33.04.14.15.22.32.25.07 0 .14-.01.19-.07l.38-.38.15-.09a4.1 4.1 0 0 1 1.68-.22l1.48.26c.15.03.23-.04.24-.18.03-.32.01-.64-.07-.97a.97.97 0 0 1-.03-.4 4.61 4.61 0 0 1 .21-.44c.12-.2.09-.38-.09-.52a.19.19 0 0 0-.17-.03 2 2 0 0 1-.81.04c-.6-.1-1.06-.15-1.4-.18-.29-.02-.34-.15-.15-.38.38-.46.89-.9 1.5-1.31a.2.2 0 0 0 .1-.19.2.2 0 0 0-.1-.18Zm-2.1.97-.18-.22c-.02-.03-.02-.05.01-.08l.12-.1c.44-.36.7-.5.77-.41l.04.04c.07.1-.11.32-.55.68l-.12.1c-.03.02-.06.02-.08 0Zm2 2.76-2.16.12c-.15 0-.22-.06-.23-.2l-.02-.29c0-.12.06-.23.2-.32.12-.1.28-.15.47-.16l1.22-.06c.2-.01.36.02.5.1s.21.18.22.3l.01.29c0 .14-.06.22-.2.22Zm-2.06-5.03-.54.06a.19.19 0 0 1-.19-.08c-.1-.15-.22-.24-.35-.25-.04-.01-.08 0-.13.05l-.3.3a.12.12 0 0 1-.08.03h-1.04c-.2 0-.3.1-.3.3v.11c0 .17.08.24.24.21l1.07-.14c.17-.01.28 0 .33.05.07.07.12.19.15.36.01.06.05.1.1.13l.07.02c.06 0 .11-.03.14-.09l.21-.34a.17.17 0 0 1 .1-.08c.34-.1.57-.22.68-.37.16-.2.1-.3-.16-.27ZM6.9 25.77v-.59c0-.12-.06-.18-.17-.18H5.15c-.29 0-.38-.15-.28-.44a.76.76 0 0 0 .03-.08c.05-.24.24-.37.59-.38l4.47-.1c.1 0 .17.05.2.16.03.13.03.21 0 .26-.12.27-.27.41-.46.41l-1.82.01c-.16 0-.23.1-.23.27v.57c0 .21.1.32.32.32H10c.08 0 .12.04.12.13.01.29-.03.56-.11.8-.03.08-.07.13-.14.14-.54.1-.87.14-1 .12-.68-.15-.78.06-.3.63a8.16 8.16 0 0 0 3 2.14c.07.04.12.1.13.18a.22.22 0 0 1-.08.2c-.4.35-.8.56-1.18.63a1.3 1.3 0 0 1-1.23-.38c-.37-.38-.83-1.03-1.36-1.95-.09-.16-.18-.28-.27-.35a.22.22 0 0 0-.22-.04.25.25 0 0 0-.17.17c-.5 1.43-1.47 2.08-2.9 1.96-.06 0-.1-.05-.13-.13l-.15-.71a.18.18 0 0 1 .05-.2c.06-.04.12-.05.18-.01l.1.05c.2.12.36.17.49.15.96-.18 1.54-.76 1.72-1.77a.36.36 0 0 0-.1-.33c-.08-.1-.18-.12-.3-.09l-.9.25c-.14.04-.26 0-.36-.13a.43.43 0 0 1-.07-.42c.12-.36.37-.61.74-.74.35-.12.72-.2 1.1-.25.16-.01.24-.1.24-.28ZM14.24 24.12c-.1 0-.16.08-.15.2l.02.47c.01.12.07.18.18.17l1.53-.11c.25-.02.46-.07.63-.15.17-.08.25-.17.25-.26l-.01-.15c0-.1-.1-.17-.28-.23-.18-.05-.4-.07-.64-.05l-1.53.11Zm2.65.7c-.12.22-.06.32.17.28 1.18-.18 2.35-.18 3.52-.01.24.03.38-.09.44-.35l.01-.06c.05-.1.04-.2-.02-.28a.29.29 0 0 0-.26-.14l-3.22-.02c-.22 0-.39.1-.5.32l-.14.26Zm-2 3.34c0-.05-.02-.08-.05-.1a.09.09 0 0 0-.1.01c-.27.19-.55.34-.85.44-.4.14-.68.15-.85.02-.2-.14-.28-.36-.27-.67 0-.13.05-.22.14-.3.1-.06.2-.08.3-.04.55.2 1.08.04 1.59-.48a.21.21 0 0 0 .06-.19.2.2 0 0 0-.1-.15c-.15-.08-.33-.08-.56-.01a1.4 1.4 0 0 1-.29.07c-.16.01-.28-.05-.37-.2a.46.46 0 0 1 0-.47c.24-.47 1.18-.67 2.82-.6.2 0 .29.12.27.34-.04.38-.22.54-.55.48-.08 0-.13.02-.17.1l-.2.38c-.07.13-.03.22.1.26.47.15.82.43 1.06.84.04.07.1.11.18.13.15.04.29.04.41.01a6.68 6.68 0 0 1 2.16-.24c.33.07.8.11 1.42.12.11 0 .2.06.25.17.05.1.05.22 0 .32-.18.38-.29.83-.31 1.35a1 1 0 0 1-.1.37c-.17.4-.4.54-.7.42-.34-.14-.53-.2-.57-.21-.66-.07-1.31 0-1.95.2a.22.22 0 0 0-.14.14.57.57 0 0 1-.15.23c-.1.08-.2.1-.32.04a.36.36 0 0 1-.2-.3 8.62 8.62 0 0 1-.06-1.08c0-.27-.04-.47-.1-.61a1.2 1.2 0 0 1-.12-.52c0-.1-.04-.15-.13-.17-.2-.04-.38-.21-.53-.52-.03-.08-.09-.1-.16-.07-.08.02-.12.14-.12.36 0 .72.03 1.53.07 2.42.02.3-.11.47-.38.54-.07.02-.12 0-.17-.07-.2-.3-.3-.55-.28-.74.05-.94.06-1.61.02-2.02Zm5.28.45c.01-.17-.16-.26-.5-.28-.34-.02-.51.06-.52.23 0 .17.16.27.5.29.34.01.52-.06.52-.24Zm-1.61-.01c-.02-.18-.19-.26-.52-.23-.33.02-.5.12-.48.3 0 .18.18.26.51.24.33-.03.5-.13.49-.31Zm-.11.92c-.01-.17-.17-.25-.49-.22-.31.02-.46.12-.45.3 0 .16.17.24.48.21.32-.02.47-.12.46-.3Zm1.7-.05c0-.17-.15-.24-.43-.23-.28.02-.41.1-.4.28 0 .16.14.24.42.22.28-.01.42-.1.41-.27Zm-2.4-1.73c.1-.06.19-.15.24-.3.03-.08.08-.12.17-.12h1.74c.21 0 .33-.12.37-.36.04-.31.1-.56.2-.76.09-.18.11-.32.07-.43-.08-.2-.23-.3-.44-.25-.83.14-1.64.13-2.43-.04a.22.22 0 0 0-.21.06.3.3 0 0 0-.1.23c0 .37.07.71.2 1.03a.4.4 0 0 1 .03.23l-.08.5a.2.2 0 0 0 .06.19c.06.05.12.05.18.02Zm1.6-1.51c.1 0 .14.05.14.16v.23c0 .1-.04.17-.14.17h-1c-.1 0-.14-.05-.15-.16v-.23c0-.11.05-.17.15-.17h1ZM46.73 24.6h.36c.47-.01.53.15.18.48-.07.06-.23.1-.5.11a.22.22 0 0 0-.16.1l-.3.4a.23.23 0 0 1-.24.09.22.22 0 0 1-.19-.19c-.1-.48-.4-.61-.92-.4a.46.46 0 0 1-.41 0c-.13-.07-.19-.17-.17-.3.01-.09.08-.17.2-.25a.48.48 0 0 1 .28-.08l.6.02c.07 0 .13-.03.16-.1l.19-.34c.04-.07.1-.12.18-.13.29-.05.48.1.58.47.02.08.07.11.16.11Zm3.03-.14c.3.05.64 0 1.03-.12.08-.03.12 0 .12.09 0 .24-.08.43-.26.57-.14.1-.4.12-.77.05-.35-.06-.59-.05-.73.02-.2.1-.34.26-.43.5-.02.06-.07.1-.14.1-.02 0-.05 0-.08-.03-.05-.03-.08-.08-.07-.15.04-.24-.03-.38-.21-.4-.08-.02-.12-.06-.13-.14 0-.11.02-.2.1-.27a.48.48 0 0 1 .22-.08c.23-.04.4-.15.53-.35.16-.24.36-.3.59-.2.07.04.11.1.11.18v.1c0 .08.04.12.12.13Zm-1.44 3.85c.46.05.84-.1 1.16-.43.08-.09.16-.08.23.02.1.15.27.3.5.48.08.06.28.06.61 0 .45-.06.83-.28 1.14-.63.04-.05.05-.1.03-.16a.14.14 0 0 0-.13-.1 2.46 2.46 0 0 1-1.04-.33l-.77-.48a11 11 0 0 0-1.3-.74c-.44-.2-.9-.3-1.4-.31a.18.18 0 0 0-.15.08 2.9 2.9 0 0 1-2.75 1.3 4.43 4.43 0 0 0-.6-.01.17.17 0 0 0-.14.12c-.1.27-.13.47-.1.61.04.12.1.2.2.26.11.05.22.06.33.02.84-.3 1.62-.64 2.33-1.04.1-.06.35-.28.77-.68a.37.37 0 0 1 .17-.1c.3-.06.52-.05.68.04.43.23.83.6 1.21 1.08.08.1.06.15-.07.15h-.76a.22.22 0 0 1-.22-.13l-.23-.48a.18.18 0 0 0-.15-.1c-.36-.06-.6.08-.7.41-.04.1-.08.2-.12.26a.17.17 0 0 1-.15.09c-.48 0-.9.13-1.25.4a.21.21 0 0 0-.1.17c0 .18.06.31.19.39.12.07.27.08.45.03.25-.07.46-.12.63-.14.08-.02.15 0 .2.06.07.05.1.12.1.2l.1 2.15c0 .26.1.3.28.11l.28-.27c.21-.22.32-.49.32-.8v-1.3c0-.16.07-.22.22-.2Zm-2.49 1.17c-.1.42-.06.78.09.82.15.04.35-.26.45-.68.1-.41.07-.78-.08-.82-.15-.04-.35.27-.46.68Zm3.67 1.04c-.2.05-.45-.3-.54-.77-.1-.47 0-.89.2-.93.22-.04.46.3.55.77.1.48 0 .9-.2.93Z" fill="#00833A"/><path fill-rule="evenodd" d="M25.99 30.94C26.63 31.65 27.3 32 28 32c.7 0 1.38-.36 2.02-1.06l2.94-3.26c.04-.05.04-.1 0-.14a239.89 239.89 0 0 0-3.05-3.47c-.65-.71-1.3-1.07-1.93-1.07-.63 0-1.27.36-1.92 1.08-.62.69-1.63 1.85-3.04 3.48-.04.05-.04.1 0 .15L26 30.94Zm2.36-5.53c.48.1.87.31 1.16.65.09.1.07.15-.06.15h-1.5c-.06 0-.1.03-.1.1v.07c0 .05.03.07.07.07h1.87c.1 0 .16.04.2.13l.13.3c.04.09.1.1.18.07.58-.3 1.02-.22 1.3.21.25.36.26.77.03 1.22-.2.38-.48.68-.85.92-.2.12-.36.23-.5.34-.06.04-.1.09-.12.16-.1.33-.25.61-.44.85a.21.21 0 0 1-.17.09h-3.24c-.06 0-.11-.03-.14-.1l-.4-.87a.38.38 0 0 0-.12-.14 1.82 1.82 0 0 1-.5-.49c-.1-.16-.15-.41-.17-.74-.03-.52-.26-.79-.68-.82-.07 0-.1-.04-.1-.1v-.44c0-.08.04-.13.1-.15.5-.12.9 0 1.23.4.05.06.1.05.13-.02l.03-.06c.03-.08.09-.12.17-.12h.7c.06 0 .1.04.1.12v2.87c0 .05.03.08.08.08h.07c.04 0 .06-.02.06-.06v-2.93c0-.06.02-.1.08-.1h.56c.05 0 .08-.03.08-.09v-.07c0-.06-.02-.1-.08-.1h-1.54c-.1 0-.13-.04-.07-.13l.07-.1c.04-.07.1-.1.18-.1h1.4c.05 0 .08-.04.08-.1v-.08c0-.05-.03-.08-.07-.08H26.3c-.02 0-.03 0-.04-.03v-.05c.4-.44.84-.69 1.36-.74.08 0 .1-.05.06-.13-.24-.47-.18-.78.17-.92a.34.34 0 0 1 .35.04c.3.23.33.52.1.86-.07.08-.05.14.05.16Zm1.23 2.2c.1 0 .14-.05.14-.15v-.48c-.01-.1-.06-.15-.15-.15l-1.46.01c-.09 0-.13.05-.13.15v.49c0 .1.05.15.14.15l1.46-.02Zm-1.28-.53h1.1c.08 0 .14.07.14.16s-.06.16-.14.15h-1.1c-.08 0-.14-.07-.14-.15v-.01c0-.08.06-.15.14-.15Zm2.15.37a.06.06 0 0 0-.03.05v1.26c0 .03.01.06.04.07.03.01.05 0 .07-.01.28-.25.48-.5.6-.75.11-.22.08-.4-.1-.55a.5.5 0 0 0-.58-.07Zm-4.17-.04h-.1c-.03 0-.05.03-.05.06l-.01 2.4c0 .03.02.05.05.05h.1c.02 0 .05-.02.05-.05v-2.4c0-.03-.01-.06-.04-.06Zm.99 2.53c-.03 0-.04-.01-.05-.04l-.06-2.36c0-.07.03-.11.1-.11.08 0 .11.03.12.1l.06 2.36c0 .03 0 .05-.04.05h-.13Zm2.59.03c0 .11-.05.17-.15.17l-1.74.02c-.1 0-.15-.05-.15-.16l-.02-1.8c0-.1.05-.16.15-.16l1.74-.02c.1 0 .15.05.15.16l.02 1.8Zm-.8-1.7h.47c.05 0 .1.04.1.09v.47c0 .05-.04.1-.09.1h-.47c-.05 0-.09-.03-.09-.09v-.47c0-.05.03-.1.08-.1Zm-.95 0h.58c.04 0 .07.04.07.08v.5c0 .04-.03.08-.07.08h-.58c-.04 0-.07-.03-.07-.07v-.5c0-.05.03-.08.07-.08Zm.57.92h-.55c-.04 0-.07.04-.07.08v.51c0 .05.04.08.08.08h.54c.04 0 .07-.04.07-.09v-.5c0-.05-.03-.08-.07-.08Zm.39 0 .48-.02c.04 0 .08.04.08.08v.52c0 .04-.03.08-.07.08h-.48c-.04 0-.07-.03-.08-.07v-.52c0-.04.03-.08.07-.08Z" fill="#E50011"/></svg>