<!-- by TradingView --><svg width="56" height="56" viewBox="0 0 56 56" xmlns="http://www.w3.org/2000/svg"><path fill="#9D886D" d="M0 0h56v56H0z"/><path fill-rule="evenodd" d="M12.15 38c.68-.8 2.35-3.08 2.35-5.77V18.5h6.98v18h-1.41L18.7 38H23V17H13v14.78a9.47 9.47 0 0 1-2 5.12l1.15 1.1Zm6.68-13h1.87l-.56 1.27h-4.36L15.3 25h1.94v-1.72h-1.7L15 22h2.24v-2l1.59-.88V22H21l-.62 1.28h-1.55V25ZM20 27h-4v7h4v-7Zm-1.26 1.25h-1.48v4.5h1.48v-4.5ZM31 36.5h2.8l.94 1.5H25.6l.82-1.5h2.96v-7.2h-2.32L26.4 28h3v-3.52H25.6c.93-1.49.82-4.5.64-5.82l1.33-.78V23h1.8v-5.1L31 17v6h3.18l-.62 1.48H31V28h2.95l-.78 1.3H31v7.2Zm14 0h-3v-7.2h2.35l.82-1.3H42v-3.52h2.76l.66-1.48H42v-6l-1.5.9V23h-2.05v-5.12l-1.4.78c.18 1.32.3 4.33-.67 5.82h4.12V28h-3.3l.7 1.3h2.6v7.2h-3.27l-.86 1.5H46l-1-1.5Z" fill="#fff"/></svg>