<!-- by TradingView --><svg width="56" height="56" viewBox="0 0 56 56" xmlns="http://www.w3.org/2000/svg"><path fill="#FBBE01" d="M0 0h56v56H0z"/><path d="M7.74 26h-3.1L4 32h4.8l.22-1.28h-1.8L7.75 26Z"/><path fill-rule="evenodd" d="M11.94 26a2.86 2.86 0 0 0-2.8 2.5l-.12.88A2.28 2.28 0 0 0 11.23 32h1.83c1.4 0 2.6-1.07 2.8-2.5l.12-.88A2.28 2.28 0 0 0 13.77 26h-1.83Zm.66 1a.6.6 0 0 0-.59.55l-.23 2.78v.12c.03.3.28.55.6.55a.6.6 0 0 0 .58-.55l.23-2.78v-.12a.6.6 0 0 0-.59-.55Z"/><path d="M16.69 26h5.38c1.15 0 2.04.95 1.92 2.04L23.53 32h-3.02l.5-4.33-.01-.1c-.03-.18-.3-.3-.49-.3h-.83L19.14 32H16l.69-6ZM37.69 26h5.38c1.15 0 2.04.95 1.92 2.04L44.53 32h-3.02l.5-4.33-.01-.1c-.03-.18-.3-.3-.49-.3h-.83L40.13 32H37l.69-6ZM52 26l-.1 1.21h-3.31c-.3 0-.57.24-.6.56l-.24 2.36c-.03.28.18.53.45.53h.65l.2-2.21h2.77l-.3 3.55H47c-1.18 0-2.1-1.07-2-2.3l.12-1.18A2.7 2.7 0 0 1 47.76 26H52ZM32.64 26H36l-.64 6H32l.64-6ZM24.6 26h3.13l-.19 1.84L29.2 26H32l-2.43 2.72L31.43 32h-2.97l-1.13-2-.2 2H24l.6-6Z"/><path d="M36.74 24.12 37 22l-3.76 1-.24 2 3.74-.88Z" fill="#03328E"/></svg>