<!-- by TradingView --><svg width="56" height="56" viewBox="0 0 56 56" xmlns="http://www.w3.org/2000/svg"><path fill="#F0F3FA" d="M0 0h56v56H0z"/><path fill-rule="evenodd" d="M36 45V11H20v34h16ZM25.05 25.89c-.01-.05-.04-.07-.08-.04-.54.34-1.13.38-1.76.13a.85.85 0 0 1-.46-.4 2.87 2.87 0 0 1-.36-1.98c.18-.82.3-1.36.34-1.6.12-.7.03-1.27-.25-1.73-.22-.36-.12-.5.3-.45h.06c.44.07.8.27 1.08.62l.72.9c.15.18.23.16.23-.07l.01-.54c0-.23.02-.4.03-.54.25-2.1.53-3.71.83-4.83.15-.55.28-1.07.38-1.58.01-.03.03-.05.06-.06.03 0 .05 0 .08.02.2.16.37.55.53 1.17.02.1.08.28.18.53.18.45.27.78.3.99.04.36-.08.6-.34.74l-.2.09c-.27.12-.46.24-.56.36-.28.33-.47.7-.58 1.13a8.4 8.4 0 0 0-.23 2.9c0 .03.02.06.06.07.03 0 .06 0 .08-.03.27-.3.55-.56.83-.75.17-.12.39-.3.65-.56.14-.13.38-.33.73-.58a.08.08 0 0 1 .1 0l.03.01c.04.02.07.02.1 0l.48-.38c.03-.02.04-.02.02.02-.27.61-.63 1.1-1.06 1.48-.33.3-.57.54-.72.75-.1.14-.25.4-.44.74-.11.2-.18.48-.21.82-.01.16-.06.44-.14.82-.1.52-.15.9-.15 1.1.02.7.29 1.3.8 1.8.18.16.19.34.05.53a.15.15 0 0 1-.13.07c-.75.04-1.16-.16-1.24-.6l-.15-1.07Zm-.84-2.6c.15-.14.24-.29.2-.32-.04-.04-.2.04-.34.19-.15.14-.24.29-.2.33.04.04.2-.05.34-.2Zm4.43-1.36h.04l.02-.04c-.07-.37-.02-.71.13-1.04.23-.52.51-1 .84-1.44.05-.06.03-.11-.03-.15l-.15-.08c-.02-.02-.02-.03.01-.04.06-.02.1-.05.13-.08.03-.07.02-.1-.04-.1l-.15-.01c-.11 0-.11-.03-.02-.08a.68.68 0 0 0 .3-.28.77.77 0 0 1 .3-.25c.52-.28.9-.46 1.13-.54.12-.05.27-.03.46.05.6.25.87.69.83 1.33a.8.8 0 0 1-.25.56c-.2.18-.38.31-.54.38-.62.27-1.04.48-1.26.62l-.48.19c-.23.09-.4.25-.52.47l.01.06c.02.02.04.03.06.02.05-.01.1-.05.12-.1.03-.08.06-.1.09-.08l.03.04.1.08.4.19c.04.02.08.02.13.02.39 0 .65-.02.8-.03.28-.04.5 0 .63.08.3.17.47.4.55.67.08.3-.04.55-.34.74l-1.58 1c-.1.1-.19.17-.24.25a.16.16 0 0 0-.03.15c.02.06.06.1.12.1.25.07.56.1.93.09l.75-.04c.83-.09 1.4.12 1.72.62.17.28.11.53-.19.74-.27.18-.56.33-.86.44-.21.08-.49.06-.83-.06a2.1 2.1 0 0 0-.35-.1c-.2-.03-.4-.03-.61 0-.41.03-.88.01-1.41-.07a.2.2 0 0 1-.12-.06l-.54-.52c-.06-.06-.14-.2-.21-.45a.23.23 0 0 1 0-.14l.13-.49c.04-.18.1-.33.2-.47.1-.12.25-.35.48-.69.08-.12.06-.22-.05-.32l-.02-.01a5.2 5.2 0 0 1-.56-.55 1.5 1.5 0 0 1-.33-.65c-.02-.07 0-.08.07-.05l.2.12Zm.15 2.54a.06.06 0 0 1 .05-.03c.03 0 .05.01.06.03.02.05.02.1-.01.14-.04.04-.07.04-.1-.01a.12.12 0 0 1 0-.13Zm-.38 8.13c0 .22.07.37.22.44.04.02.07.05.07.1.06.31.04.65-.04 1a.86.86 0 0 1-.29.46c-.13.11-.28.22-.47.31a13 13 0 0 1-1.46.65.1.1 0 0 1-.1-.01.1.1 0 0 1-.04-.1c-.01-.52-.07-.97-.18-1.34-.16-.54-.48-.82-.95-.86-.37-.04-.4.07-.08.31.22.17.25.42.1.76l-.56 1.13c-.2.4-.23.8-.08 1.16.15.36.3.62.46.78.22.2.51.3.86.29.36-.02.63-.09.8-.19.63-.38 1.15-.68 1.54-.9.24-.13.35-.06.34.2v.16c-.01.26-.13.46-.37.6l-.8.5a.97.97 0 0 0-.45.6c-.02.11.03.27.17.46l.25.42c.12.2.09.37-.09.55l-.42.43a.67.67 0 0 0-.22.5c0 .27 0 .46.03.58.04.21.13.36.28.46.27.16.57.24.89.24.2 0 .5-.06.92-.16.17-.04.46-.04.89 0 .25.02.43.02.53.02.25-.02.47-.1.66-.25.2-.16.3-.36.3-.6 0-.22-.13-.43-.4-.62a4.74 4.74 0 0 0-.93-.48.14.14 0 0 1-.09-.11c-.05-.3-.02-.52.12-.66l.56-.55c.14-.14.23-.25.27-.35a.8.8 0 0 0 .05-.45c-.15-.78-.6-1.15-1.34-1.1-.08 0-.13-.04-.15-.13-.06-.26-.04-.52.04-.77.04-.11.19-.27.44-.46l.13-.1c.09-.07.19-.18.3-.34.1-.13.2-.23.32-.3a.26.26 0 0 0 .1-.1l.4-.7a.27.27 0 0 0 .05-.13v-.11c0-.23.02-.37.08-.43l.17-.2c.04-.06.03-.1-.04-.11l-.87-.22a1.71 1.71 0 0 1-.73-.31c-.18-.17-.26-.4-.24-.7 0-.14.1-.37.26-.7.15-.3.24-.52.26-.66a.5.5 0 0 0-.24-.53 1.27 1.27 0 0 0-.86-.18c-.23.02-.53.1-.89.25-.48.2-.69.51-.63.97.05.39.19.75.42 1.07.02.04.05.04.08 0 .02-.03.07-.03.14.01a.1.1 0 0 1 .03.04c.09.14.22.24.38.3.07.03.1.09.1.16Zm.3-1.22c-.03 0-.05-.04-.04-.09 0-.04.03-.08.06-.07.03 0 .05.04.05.08 0 .05-.04.09-.07.08Zm-.37.14c-.02 0-.02.02-.01.03l.24.59c0 .01.01.02.03.01a.26.26 0 0 0 .16-.16.32.32 0 0 0-.01-.24l-.02-.04a.33.33 0 0 0-.16-.18.26.26 0 0 0-.22-.01h-.01Zm.77 1.99a.1.1 0 0 1 .04-.03c.04-.01.05 0 .05.04 0 .03 0 .05-.03.07-.02.02-.05.01-.06-.02-.02-.02-.02-.04 0-.06Zm.03.28c-.03 0-.05 0-.05.02-.05.08-.03.1.07.09.02 0 .03-.03.03-.06 0-.04-.01-.06-.05-.05Zm-1.26 5.07c-.02.09.02.17.07.17.06.01.12-.05.13-.14.01-.09-.02-.17-.08-.17-.06-.01-.11.05-.12.14Z" fill="#EA1C24"/></svg>