<!-- by TradingView --><svg width="56" height="56" viewBox="0 0 56 56" xmlns="http://www.w3.org/2000/svg"><path fill="#009FD7" d="M0 0h56v56H0z"/><path d="M31.7 35c.41 0 .77-.06 1.05-.24.43-.3.7-.7.82-1.23 1.09-5 1.96-9.14 2.7-12.6.46-2.22.87-4.15 1.24-5.85.01-.05.05-.08.1-.08h5.82c.06 0 .08.03.07.08l-4.1 18.85c-.32 1.5-.62 2.52-.9 3.08-.47.9-1.13 1.7-1.98 2.38a7.33 7.33 0 0 1-2.8 1.4c-.58.15-1.53.22-2.87.2h-5.5c-.06 0-.08-.03-.07-.1l1.31-5.73c.02-.1.08-.16.18-.16h4.92Zm-9.44-13.75c-.44.3-.71.7-.83 1.22-1.09 5.03-1.97 9.18-2.7 12.65l-1.24 5.8c-.02.04-.05.07-.1.07h-5.82c-.06 0-.08-.03-.07-.08l4.1-18.85c.32-1.5.62-2.52.9-3.07a7.2 7.2 0 0 1 1.98-2.38 7.36 7.36 0 0 1 2.8-1.4c.57-.15 1.53-.22 2.86-.21l5.5.01c.06 0 .09.03.07.1l-1.3 5.74c-.02.1-.08.15-.17.15H23.3c-.42 0-.77.07-1.05.25Zm10.59 9.67 1.15-5.8c.01-.08-.02-.12-.1-.12H22.25c-.05 0-.08.03-.09.08L21 30.88c-.01.08.02.12.1.12h11.66c.05 0 .08-.03.09-.08Z" fill="#fff"/></svg>