<!-- by TradingView --><svg width="56" height="56" viewBox="0 0 56 56" xmlns="http://www.w3.org/2000/svg"><path fill="#F0F3FA" d="M0 0h56v56H0z"/><path d="M40 36v-6h1v2.54h3V30h1v6h-1v-2.55h-3V36h-1ZM34 31v-1h5v1h-2v5h-1v-5h-2ZM30 36v-6h1v5h3v1h-4ZM24.22 36H23l2.22-6h1.4l2.23 6h-1.22l-1.68-4.77h-.05L24.22 36Zm.04-2.35h3.32v.87h-3.32v-.87ZM18 36v-6h4.1v1H19v1.54h2.88v.91H19V35h3.12v1H18ZM12 36v-6h1v2.54h3V30h1v6h-1v-2.55h-3V36h-1ZM41.63 27h-1.22l2.22-6h1.4l2.23 6h-1.22l-1.68-4.77h-.05L41.63 27Zm.04-2.35h3.32v.87h-3.32v-.87ZM47 27v-6h1v5h3v1h-4ZM38.78 22.68a.77.77 0 0 0-.38-.58c-.22-.14-.5-.2-.85-.2-.25 0-.46.03-.64.1a.94.94 0 0 0-.4.26.61.61 0 0 0-.14.4c0 .12.03.22.09.31a.8.8 0 0 0 .26.23 4.24 4.24 0 0 0 .76.26l.6.13c.25.06.49.12.71.21.23.09.44.2.62.33.18.14.32.3.43.48.1.2.16.41.16.66 0 .35-.1.65-.3.9-.19.27-.47.47-.84.61-.37.15-.81.22-1.33.22-.5 0-.95-.07-1.32-.21a1.7 1.7 0 0 1-1.2-1.6h1.15c.02.2.09.37.21.5.12.14.28.24.48.3.2.07.42.1.67.1.26 0 .48-.03.67-.1.2-.07.35-.16.46-.29a.66.66 0 0 0 .17-.43.52.52 0 0 0-.15-.38 1.1 1.1 0 0 0-.41-.25 4.3 4.3 0 0 0-.61-.18l-.74-.17a3.13 3.13 0 0 1-1.27-.56 1.23 1.23 0 0 1-.47-1.01c0-.34.1-.64.31-.9s.5-.46.86-.6c.36-.15.77-.22 1.22-.22.47 0 .87.07 1.22.22.35.14.62.34.82.6.2.24.3.53.31.86h-1.13ZM30 27v-6h2.36c.49 0 .9.08 1.22.24.33.16.58.39.75.67.17.3.25.63.25 1 0 .4-.08.73-.26 1.01-.17.28-.42.5-.75.65-.33.16-.74.23-1.22.23h-1.69v-.9h1.53c.29 0 .52-.04.7-.11a.82.82 0 0 0 .4-.33c.08-.15.13-.33.13-.54 0-.21-.05-.4-.13-.55a.83.83 0 0 0-.4-.34 1.73 1.73 0 0 0-.7-.12H31V27h-1Zm3.25-2.72L34.81 27h-1.27L32 24.28h1.24ZM25 27v-6h3.98v.91H26v1.63h2.77v.91H26v1.64h3V27h-4ZM19.99 21l1.63 4.72h.07L23.32 21h1.26l-2.22 6h-1.4l-2.23-6H20ZM18 21v6h-1v-6h1ZM16 21v6h-.98l-2.87-4.09H12V27h-1v-6h.99l2.86 4.09H15V21h1ZM9 21h1v3.86C10 26.25 8.78 27 7.5 27S5 26.25 5 24.86V21h1v3.77c0 .79.75 1.27 1.5 1.27S9 25.56 9 24.77V21Z"/></svg>