<!-- by TradingView --><svg width="56" height="56" viewBox="0 0 56 56" xmlns="http://www.w3.org/2000/svg"><path fill="#F0F3FA" d="M0 0h56v56H0z"/><path d="M10.12 39 8 36.07 12.95 17h4.42L20 20.1V26l5.38-9h4.77l1.6 1.7c.84-1.13 2.54-1.6 3.29-1.7h10.37L48 20.45 46.82 23h-7.77c-1.6 0-2.28.55-2.42 1h3.25a4 4 0 0 1 3.35 1.82l2.41 3.7c.06.33.18 1.2.18 2.05 0 5.71-4.28 7.33-6.42 7.43H24.44l-1.83-2.34L20.96 39h-4.18l-2.18-2.93-.7 2.93h-3.78Z" fill="#F61A29"/><path d="M13.46 18 9 36h2.7L15 22.3V36h3.56l7.6-13.37L23 36h2.7L30 18h-3.93L17 33.42V18h-3.54Z" fill="#FEFEFE"/><path d="M36.59 36H25.12L25 33h11.3c1.05 0 2.7-1.18 2.7-2.94S37.9 28 37.53 28h-5.3c-1.17 0-2.2-1.64-2.2-3.83 0-4.7 2.97-6.01 4.56-6.17H45v2h-8.53c-.94 0-3.45.98-3.45 3 0 1.62 1.13 1.92 1.74 2h5.77c1.3 0 2.47 1.55 2.47 2.86v2.44c0 4.46-4.32 5.66-6.41 5.7Z" fill="#FEFEFE"/></svg>