<!-- by TradingView --><svg width="56" height="56" viewBox="0 0 56 56" xmlns="http://www.w3.org/2000/svg"><path fill="#F0F3FA" d="M0 0h56v56H0z"/><path fill-rule="evenodd" d="M25.9 25.18c-.01.17.06.25.23.25h7.4c.3 0 .45.16.45.47v.23c0 .25-.12.37-.38.37H25c-.2 0-.3-.1-.29-.29.11-2.52.66-4.8 1.64-6.83a12.38 12.38 0 0 1 4.54-5.22c.31-.2.63-.21.95-.03.17.1.17.18 0 .28-3.34 1.89-5.32 5.48-5.93 10.77Zm-11.54 9.46a25.5 25.5 0 0 1-.92-6.63c0-2.19.29-4.4.88-6.65a12.09 12.09 0 0 1 4.81-7.1.13.13 0 0 0 .06-.15.13.13 0 0 0-.12-.1c-.87-.08-1.88.53-3.02 1.84-5.44 6.22-5.4 18.1.09 24.29 1.15 1.3 2.16 1.9 3.02 1.82.07-.01.1-.04.12-.1.02-.07 0-.11-.05-.15-2.41-1.65-4.03-4-4.87-7.07Zm2.67 1.01a22.64 22.64 0 0 1-1.24-7.59 22.6 22.6 0 0 1 1.13-7.6c.95-2.73 2.44-4.77 4.47-6.11.2-.14.18-.23-.06-.28-.26-.06-.54 0-.83.16-2.09 1.14-3.64 3.16-4.66 6.07a22.95 22.95 0 0 0-1.2 7.77c.03 2.85.47 5.44 1.32 7.76 1.07 2.89 2.65 4.89 4.75 6 .3.16.57.2.83.14.25-.05.26-.14.05-.28-2.05-1.3-3.57-3.32-4.56-6.04Zm23.31.15c.85-2.31 1.29-4.9 1.3-7.75a22.8 22.8 0 0 0-1.2-7.76c-1.02-2.9-2.57-4.92-4.66-6.06a1.16 1.16 0 0 0-.83-.16c-.24.05-.26.15-.05.28 2.03 1.34 3.52 3.37 4.47 6.1a22.53 22.53 0 0 1 1.13 7.6 22.63 22.63 0 0 1-1.23 7.58c-.98 2.72-2.5 4.73-4.55 6.04-.2.14-.19.23.06.28.26.06.54.02.83-.14 2.1-1.12 3.67-3.12 4.73-6ZM44 28.04a22.82 22.82 0 0 1-1.3 7.75c-1.06 2.89-2.64 4.89-4.73 6-.3.16-.57.2-.83.15-.25-.06-.26-.15-.05-.28 2.04-1.32 3.56-3.33 4.54-6.04.8-2.21 1.2-4.74 1.23-7.58.02-2.85-.36-5.38-1.14-7.6-.95-2.72-2.44-4.75-4.47-6.09-.2-.13-.19-.23.06-.28.26-.05.54 0 .82.16 2.09 1.14 3.64 3.16 4.66 6.05a22.7 22.7 0 0 1 1.2 7.76Zm-20.47-1.26c0 .22.1.33.33.33h9.8c.14 0 .21.07.22.2a20.9 20.9 0 0 1-2.8 11.62c-.11.2-.09.36.07.52l1.62 1.57c.17.16.35.17.54.02a11.44 11.44 0 0 0 3.52-5.16 24.53 24.53 0 0 0 1.32-9.61 19.77 19.77 0 0 0-2.83-9.25 8.22 8.22 0 0 0-1.75-1.93c-.16-.13-.32-.13-.47.02l-1.86 1.8c-.17.17-.18.35-.06.54a16.3 16.3 0 0 1 2.57 6.65c.05.27-.07.4-.36.4h-5.77c-.27 0-.38-.12-.35-.37a15.37 15.37 0 0 1 5.07-9.42c.05-.05.09-.1.1-.17l.05-.22c.04-.16.15-.25.34-.3.2-.03.38.01.56.12 2.14 1.3 3.7 3.36 4.7 6.17.82 2.3 1.22 4.94 1.2 7.94a21.86 21.86 0 0 1-1.34 7.74c-1.1 2.87-2.73 4.84-4.9 5.9-.11.06-.3.07-.56.05-.2-.03-.3-.13-.3-.31.01-.11-.03-.2-.11-.3l-1.55-1.5c-.13-.12-.23-.1-.3.04l-.09.15c-.14.27-.18.45-.1.56.37.42.82.78 1.36 1.08.23.12.21.2-.05.22-.27.03-.66-.06-1.2-.27a.5.5 0 0 1-.32-.35c-.07-.24-.24-.34-.52-.3-.19.04-.29.14-.3.32 0 .14.06.2.2.2h.3c.07 0 .12.03.15.09s.02.12-.02.17c-.1.12-.27.15-.5.07a2.86 2.86 0 0 0-2.24.19l-.04-.01-.13-.12c-.09-.09-.08-.16.04-.21 1.7-.88 3-2.16 3.86-3.86a19.4 19.4 0 0 0 2.12-9.08c0-.17-.09-.25-.26-.25h-9.88c-.19 0-.28-.09-.28-.27-.07-4.02.86-7.65 2.79-10.88.1-.16.07-.3-.06-.44l-1.82-1.77c-.17-.15-.34-.16-.51-.02-1.44 1.14-2.56 2.86-3.38 5.17-.67 1.9-1.07 4-1.2 6.3-.24 4.1.5 7.87 2.24 11.32a8.85 8.85 0 0 0 2.31 2.9c.16.13.31.12.46-.02l1.74-1.7c.14-.13.16-.28.06-.45a16.14 16.14 0 0 1-2.42-7.19c-.02-.17.06-.42.24-.42h5.89c.24 0 .34.28.31.51a15.43 15.43 0 0 1-5.1 9.65c-.18.16-.15.27.07.36.15.06.34.02.56-.11 3.2-1.95 5.16-5.36 5.88-10.59.03-.22-.07-.33-.3-.33h-7.5c-.22 0-.34-.11-.34-.33v-.37c0-.23.12-.35.35-.35h8.75c.2 0 .3.1.28.3-.37 5.73-2.46 9.61-6.26 11.99-.43.26-1.06.31-1.9.14a3.78 3.78 0 0 1-1.62-.82 11.34 11.34 0 0 1-3.68-5.64 23.92 23.92 0 0 1 .3-15.72 10.92 10.92 0 0 1 4.3-5.53c.35-.23.7-.21 1.04.05.05.04.07.11.06.22-.01.12.03.22.11.31l1.63 1.57c.1.1.2.1.3 0l.12-.12c.23-.22.24-.45.03-.68-.38-.4-.85-.76-1.42-1.06-.37-.2-.34-.32.07-.38.48-.06 1.05.21 1.7.82l.03.02c.38.28.65.3.82.04.12-.18.08-.3-.12-.38l-.27-.1c-.3-.13-.3-.24.01-.34.26-.07.56-.02.9.16a.5.5 0 0 0 .5 0c.38-.2.75-.27 1.1-.23.4.06.42.18.05.36-1.87.94-3.36 2.75-4.47 5.43a18.6 18.6 0 0 0-1.43 6.93Zm6.63-8.22.15-.04c.29-.1.6.06.7.34l1.42 4.23c.1.28-.07.58-.35.67l-.15.05a.55.55 0 0 1-.7-.34l-1.42-4.24a.53.53 0 0 1 .35-.67Zm-1.4 5.1c0 .1.06.16.18.15l.76-.04c.12 0 .17-.06.17-.17v-.09c-.09-1.46-.28-2.19-.6-2.17h-.17c-.31.03-.43.77-.35 2.23l.01.09Zm-4.57 8.33-.1.03a.5.5 0 0 0-.35.63l1.4 4.58c.1.27.39.42.66.34l.11-.03a.5.5 0 0 0 .35-.64l-1.41-4.57a.53.53 0 0 0-.66-.34Zm3.2.13c-.16-.07-.32-.1-.51-.1-.2 0-.36.03-.5.1-.18.08-.25.2-.22.4.29 1.7.53 2.54.71 2.54.19 0 .43-.84.73-2.54.03-.2-.05-.32-.22-.4Z" fill="#003AA0"/></svg>