<!-- by TradingView --><svg width="56" height="56" viewBox="0 0 56 56" xmlns="http://www.w3.org/2000/svg"><path fill="#F0F3FA" d="M0 0h56v56H0z"/><path d="M19 17.67C19 13.5 24.35 12 28 12c14.25.38 16.44 11.5 15.93 17-2.03-6.14-12.37-5-15.93-5-2.65 0-9-1.14-9-6.33Z" fill="#211917"/><path d="M42.97 30.5c0-3.6-4.65-5-6.97-5.5 1.4 1 .46 4.5.46 5s-.46 4 3.26 4c2.97 0 3.4-2.5 3.25-3.5ZM37 38.33C37 42.5 32 44 28.35 44c-14.25-.38-16.8-11.5-16.3-17 2.05 6.14 12.39 5 15.95 5 2.65 0 9 1.14 9 6.33Z" fill="#211917"/><path d="M13.03 25.5c0 3.6 4.65 5 6.97 5.5-1.4-1-.46-4.5-.46-5s.46-4-3.26-4c-2.97 0-3.4 2.5-3.25 3.5Z" fill="#211917"/></svg>