<!-- by TradingView --><svg width="56" height="56" viewBox="0 0 56 56" xmlns="http://www.w3.org/2000/svg"><path fill="#F0F3FA" d="M0 0h56v56H0z"/><path d="M36.33 34c-.4 0-.45-.62-.06-.77 3.27-1.28 5.53-4.04 5.53-7.23 0-3.2-2.26-5.95-5.53-7.23-.39-.15-.35-.77.06-.77 5.34 0 9.67 3.58 9.67 8s-4.33 8-9.67 8Z" fill="#6E6E6E"/><path d="M40.58 31.82c-.15 0-.23-.16-.23-.33 0-.28.3-.45.49-.65 1.41-1.45 1.66-2.98 1.66-4.84 0-3.38-3.04-5.98-5.33-7.12-.27-.13-.29-.3 0-.3 3.74 0 7.78 3.2 7.78 7.13 0 1.68-1.2 4.62-4.37 6.11Z" fill="url(#a)"/><path d="M19.67 34c.4 0 .45-.62.06-.77-3.27-1.28-5.53-4.04-5.53-7.23 0-3.2 2.26-5.95 5.53-7.23.39-.15.35-.77-.06-.77-5.34 0-9.67 3.58-9.67 8s4.33 8 9.67 8Z" fill="url(#b)"/><path d="M15.42 31.82c.15 0 .23-.16.23-.33 0-.28-.3-.45-.5-.64a6.53 6.53 0 0 1-1.93-4.92c0-3.38 3.32-5.9 5.6-7.05.28-.13.3-.3 0-.3-3.73 0-8.19 3.27-8.19 7.2 0 1.69 1.61 4.55 4.79 6.04Z" fill="url(#c)"/><path d="M12.1 36.42c-.3-.35.16-.79.58-.6a7.15 7.15 0 0 0 7-.48c2.8-1.87 3.74-5.52 2.58-8.7-.16-.44.31-.85.63-.52a7.66 7.66 0 0 1 2.11 5.3c0 4.19-3.3 7.58-7.37 7.58-2.2 0-4.18-1-5.53-2.58Z" fill="url(#d)"/><path d="M13.01 36.08c2.22.98 4.81.87 6.9-.53 2.57-1.72 3.58-4.96 2.8-7.95.5.68 1.14 1.98 1.14 3.68 0 2.6-2.52 6.85-7.15 6.85-2.36 0-3.36-1-3.69-2.05Z" fill="url(#e)"/><path d="M43.9 36.42c.3-.35-.16-.79-.58-.6a7.15 7.15 0 0 1-7-.48c-2.8-1.87-3.74-5.52-2.58-8.7.16-.44-.31-.85-.63-.52a7.66 7.66 0 0 0-2.11 5.3c0 4.19 3.3 7.58 7.37 7.58 2.2 0 4.18-1 5.53-2.58Z" fill="url(#f)"/><path d="M42.38 36.29c-2.22.98-4.2.66-6.28-.74-2.57-1.72-3.58-4.96-2.8-7.95a6.36 6.36 0 0 0-1.14 3.68c0 2.6 2.52 6.85 7.15 6.85 1.43.07 2.74-.8 3.07-1.84Z" fill="#F8F8F8"/><path d="M28 41h.04c.42-.2.63-.33.84-.8.16-.35.28-.8.4-1.3.22-1.02.39-2.38.53-3.87.27-3 .42-6.6.52-9.2v-.01c.05-1.12.08-2.05.12-2.68.14-2.4 1.77-3.28 2.73-3.78h.02l.43-.25.2-.17a.65.65 0 0 0 .17-.43c0-.57-.36-1-.74-1.28-.4-.3-.93-.52-1.5-.7a13.55 13.55 0 0 0-7.52 0c-.57.18-1.1.4-1.5.7-.38.29-.74.7-.74 1.28 0 .22.1.36.17.43.07.08.14.13.2.17.12.08.28.16.43.24l.02.01c.96.5 2.59 1.37 2.73 3.78.04.63.07 1.56.12 2.68.1 2.61.25 6.21.52 9.2.14 1.5.31 2.86.54 3.88.1.5.23.95.39 1.3.2.47.42.6.84.8H28Z" fill="url(#g)"/><path d="M28 16.5c-2.3 0-5.54.7-5.54 2.01 0 .11.22.23.56.4.95.5 2.83 1.48 2.99 4.2.04.63.07 1.57.12 2.69.2 5.22.58 14.35 1.83 14.69v.01h.08v-.01c1.25-.34 1.62-9.47 1.83-14.7.05-1.1.08-2.05.12-2.68.16-2.72 2.04-3.7 3-4.2.33-.17.55-.29.55-.4 0-1.3-3.24-2.01-5.54-2.01Z" fill="url(#h)"/><path d="M25.75 16.7c-.65.4-1.26.99-1.26 1.67 0 .51.5.9 1.12 1.37 1.01.78 2.39 1.81 2.39 4.09v16.72c-1.39-.29-1.66-9.53-1.87-14.75-.05-1.12-.08-2.06-.12-2.7-.16-2.7-2.04-3.69-3-4.19-.33-.17-.55-.29-.55-.4 0-.9 1.57-1.52 3.3-1.82Z" fill="url(#i)"/><defs><linearGradient id="a" x1="40.96" y1="20.05" x2="36.74" y2="36.93" gradientUnits="userSpaceOnUse"><stop stop-color="#F5F5F5"/><stop offset="1" stop-color="#7E7D7D"/></linearGradient><linearGradient id="b" x1="19.95" y1="18" x2="17.57" y2="33.97" gradientUnits="userSpaceOnUse"><stop stop-color="#858281"/><stop offset="1" stop-color="#5F5F5F"/></linearGradient><linearGradient id="c" x1="17.77" y1="18.59" x2="13.81" y2="31.26" gradientUnits="userSpaceOnUse"><stop stop-color="#F8F8F8"/><stop offset="1" stop-color="#E6E6E6"/></linearGradient><linearGradient id="d" x1="23.48" y1="26.01" x2="12.01" y2="36.34" gradientUnits="userSpaceOnUse"><stop stop-color="#BFBFBF"/><stop offset=".28" stop-color="#47403E"/><stop offset=".65" stop-color="#181B18"/><stop offset="1" stop-color="#5F5F5F"/></linearGradient><linearGradient id="e" x1="23.2" y1="28.39" x2="13.39" y2="36.91" gradientUnits="userSpaceOnUse"><stop stop-color="#D6D6D6"/><stop offset="1" stop-color="#F8F8F8"/></linearGradient><linearGradient id="f" x1="33.31" y1="26.01" x2="43.99" y2="36.56" gradientUnits="userSpaceOnUse"><stop stop-color="#DFDFDF"/><stop offset=".26" stop-color="#272424"/><stop offset=".59" stop-color="#1F1F1F"/><stop offset="1" stop-color="#AAA"/></linearGradient><linearGradient id="g" x1="29" y1="17" x2="25.5" y2="27" gradientUnits="userSpaceOnUse"><stop stop-color="#B4B4B4"/><stop offset="1" stop-color="#3F373A"/></linearGradient><linearGradient id="h" x1="28" y1="16.5" x2="28" y2="40.5" gradientUnits="userSpaceOnUse"><stop stop-color="#F8F8F8"/><stop offset="1" stop-color="#F9F9F9"/></linearGradient><linearGradient id="i" x1="25.21" y1="16.69" x2="25.21" y2="40.49" gradientUnits="userSpaceOnUse"><stop offset=".03" stop-color="#544F51"/><stop offset=".14" stop-color="#D8D8D8"/><stop offset=".31" stop-color="#191919"/></linearGradient></defs></svg>