<!-- by TradingView --><svg width="56" height="56" viewBox="0 0 56 56" xmlns="http://www.w3.org/2000/svg"><path fill="#F0F3FA" d="M0 0h56v56H0z"/><path d="M35 26.91c0-1.33-.37-2.57-1-3.63V13c5.86 2.39 10 8.17 10 14.92C44 36.8 36.84 44 28 44s-16-7.2-16-16.08c0-6.75 4.14-12.53 10-14.92v10.28a7.03 7.03 0 0 0 6 10.67c3.87 0 7-3.15 7-7.04Z" fill="url(#ay3w4l2e2)"/><path d="M35 26.72c0-1.32-.37-2.56-1-3.62V13c4.73 2.26 8 7.1 8 12.72 0 7.77-6.27 14.07-14 14.07s-14-6.3-14-14.07c0-5.61 3.27-10.46 8-12.72v10.1a7.03 7.03 0 0 0 6 10.66c3.87 0 7-3.15 7-7.04Z" fill="url(#by3w4l2e2)"/><circle cx="28" cy="18" r="5" fill="url(#cy3w4l2e2)"/><circle cx="25.5" cy="16.5" r="1.5" fill="#F0F3FA" fill-opacity=".5"/><defs><linearGradient id="ay3w4l2e2" x1="28" y1="13" x2="28" y2="44" gradientUnits="userSpaceOnUse"><stop stop-color="#52ADD9"/><stop offset=".4" stop-color="#018AD3"/><stop offset="1" stop-color="#086187"/></linearGradient><linearGradient id="by3w4l2e2" x1="28" y1="13" x2="28" y2="39.79" gradientUnits="userSpaceOnUse"><stop stop-color="#12648F"/><stop offset=".53" stop-color="#178EB6"/><stop offset="1" stop-color="#7ED1F7"/></linearGradient><linearGradient id="cy3w4l2e2" x1="25.5" y1="14" x2="30" y2="22" gradientUnits="userSpaceOnUse"><stop stop-color="#FDA96E"/><stop offset="1" stop-color="#F42D22"/></linearGradient></defs></svg>