<!-- by TradingView --><svg width="56" height="56" viewBox="0 0 56 56" xmlns="http://www.w3.org/2000/svg"><path fill="#F0F3FA" d="M0 0h56v56H0z"/><path d="M24.05 24.01a3.7 3.7 0 0 1 2.03.58c.6.42.9 1.02.91 1.8v5.43c0 .1-.05.18-.16.18h-.65c-.11 0-.17-.07-.17-.18v-.6c0-.07-.03-.09-.08-.06a6.96 6.96 0 0 1-3.61.82c-1.31-.1-2.06-.65-2.24-1.62-.29-1.48.22-2.4 1.54-2.75.52-.13 1.1-.22 1.72-.26a32.43 32.43 0 0 1 2.55-.01c.05 0 .08-.03.09-.08.08-.87-.04-1.5-.37-1.9-.34-.42-.95-.63-1.83-.63-1.2 0-2.27.03-3.2.1-.03 0-.04-.02-.04-.04v-.54c0-.02.01-.04.04-.04 1.16-.17 2.31-.24 3.47-.2Zm-9.52.09a5.6 5.6 0 0 1 1.63-.07c.6.06 1.1.22 1.51.47.57.34.96.85 1.16 1.53.15.5.2 1.16.15 1.96 0 .05-.02.01-.07.01h-5.8c-.04 0-.1.08-.11.13-.05.92.13 1.63.45 2.13.37.6 1 .93 1.9 1 1.07.1 2.17.04 3.29-.18.04-.01.07 0 .07.05v.49c0 .04-.03.07-.07.08-.85.16-1.78.25-2.77.3a4.3 4.3 0 0 1-2.5-.56 2.8 2.8 0 0 1-1.29-2.06c-.08-.53-.1-1.3-.06-2.3.03-.8.26-1.45.68-1.96a2.96 2.96 0 0 1 1.83-1.02Zm20.61-.1c.67 0 .95.24.83.73-.05.2-.15.39-.3.54l-5.59 5.52c-.1.1-.16.19-.18.27 0 .04 0 .09.04.12.03.04.08.06.13.06h5.87c.04 0 .05.02.05.05v.66c0 .03-.01.04-.04.04H29.2c-.47 0-.7-.17-.7-.52 0-.3.14-.59.41-.86 1.99-1.94 3.9-3.85 5.75-5.74.02-.02.03-.05.01-.08a.08.08 0 0 0-.08-.05h-5.5c-.03 0-.06-.02-.06-.04v-.66c0-.03.03-.04.06-.04h6.05Zm6.02.03c.6.06 1.1.22 1.51.47.57.34.96.85 1.16 1.53.15.5.2 1.1.15 1.9 0 .05-.02.05-.07.05l-5.8.02c-.04 0-.07-.06-.07-.02-.05.92.09 1.78.4 2.28.38.6 1.02.93 1.91 1 1.07.1 2.17.04 3.29-.18.04-.01.07 0 .07.05v.49c0 .04-.02.07-.07.08-.85.16-1.78.25-2.77.3-1 .04-1.83-.15-2.49-.56a2.8 2.8 0 0 1-1.3-2.05c-.08-.54-.1-1.3-.06-2.3.03-.8.26-1.46.68-1.97a2.95 2.95 0 0 1 1.82-1.02c.55-.1 1.1-.13 1.64-.07Zm7.15.04c.64-.1 1.22-.1 1.74.03.58.13 1.03.4 1.36.78.37.44.56 1.02.57 1.74.02 1.1.02 2.83.01 5.2 0 .12-.06.18-.18.18h-.64c-.13 0-.17-.06-.17-.19.01-2.44.02-4.18 0-5.21-.02-1.17-.69-1.78-1.95-1.85a7.23 7.23 0 0 0-2.98.65c-.04.01-.07.04-.07.08v6.37c0 .1-.03.15-.13.15h-.74c-.09 0-.13-.05-.13-.13v-7.7c0-.11.05-.17.16-.17h.7c.1 0 .14.06.14.16v.6c0 .05.04.07.1.04l.53-.23c.53-.25 1.1-.42 1.68-.5Zm-42.07.03c1.35-.14 2.82-.13 4.42.04.04 0 .07.03.07.07v.43c0 .06-.03.09-.1.09l-.62-.03c-1.6-.06-2.75-.07-3.48 0-.79.05-1.27.28-1.43.67-.18.41-.08.77.29 1.09.23.2.6.4 1.14.6 1.44.57 2.42.97 2.92 1.2.95.43 1.47.95 1.54 1.55.2 1.84-1.98 2.52-6.57 2.04h-.04c-.04 0-.07-.03-.07-.07v-.43c0-.05.03-.07.07-.07.52.03 1.3.05 2.31.07.77.02 1.47-.03 2.12-.16.54-.1.9-.36 1.09-.77.19-.43.1-.82-.29-1.14-.22-.2-.62-.41-1.2-.64l-2.6-1.06c-.4-.17-.7-.33-.93-.48-.3-.2-.54-.44-.71-.7-.15-.23-.2-.49-.16-.79.04-.3.16-.54.35-.74.4-.43 1.03-.68 1.88-.77Zm17.45 3.92c-.91.02-1.58.16-2 .4-.57.35-.8.94-.65 1.78.16.91.95 1.32 2.38 1.22a7.17 7.17 0 0 0 2.51-.66.1.1 0 0 0 .07-.1v-2.61c0-.03-.02-.05-.05-.05-.71 0-1.47 0-2.26.02Zm16.5-3.28c-.6 0-1.13.21-1.56.64-.43.42-.64.93-.64 1.52v.41c0 .03.02.05.05.05l4.9-.01c.03 0 .05-.02.05-.05v-.4c0-.6-.22-1.11-.65-1.53a2.15 2.15 0 0 0-1.57-.63h-.58Zm-25-.01c-.6 0-1.12.2-1.55.63-.43.42-.64.93-.64 1.52v.4c0 .04.02.06.06.06h4.88c.04 0 .06-.03.06-.07v-.4c0-.6-.22-1.1-.65-1.52a2.15 2.15 0 0 0-1.56-.62h-.6Z" fill="#4F9C37"/></svg>