<!-- by TradingView --><svg width="56" height="56" viewBox="0 0 56 56" xmlns="http://www.w3.org/2000/svg"><path fill="#F0F3FA" d="M0 0h56v56H0z"/><path d="M27.01 24.37c-.03-.78 0-1.54.05-2.09a.3.3 0 0 1 .34-.28c.17.02.29.18.27.36a15.6 15.6 0 0 0-.04 1.98c.03.79.14 1.58.35 2.2.06.16 0 .35-.16.43a.28.28 0 0 1-.4-.16 8.55 8.55 0 0 1-.4-2.44ZM24.85 24.2c.11-.72.15-1.41.15-1.92 0-.16-.16-.29-.34-.28-.2 0-.34.14-.34.3 0 .48-.03 1.14-.14 1.81-.12.71-.85 1.9-1.14 2.44a.3.3 0 0 0 .13.4c.16.1.37.05.45-.1.36-.63 1.1-1.9 1.23-2.66Z" fill="#7A171C"/><path fill-rule="evenodd" d="M22.64 31.8c-.17.14-.4.3-.62.27-.04 0-.04-.01 0-.03a.8.8 0 0 0 .3-.34.08.08 0 0 0-.01-.07c-.04-.09-.07-.2-.09-.36 0-.06.03-.1.08-.13h.02c.05-.03.08-.02.1.04 0 .12 0 .25-.02.4-.02.1.03.15.15.13l.13-.03c.1-.02.17-.1.2-.21l.03-.4c.02-.26-.05-.47-.35-.38-.21.06-.42.11-.6.14-.1.02-.2 0-.3-.02-.08-.02-.16-.04-.24-.04a.09.09 0 0 0-.06.03c-.03.03-.03.08-.03.14 0 .05.03.08.08.1l.12.04c.05.01.05.03 0 .06a.6.6 0 0 0-.25.19c-.04.06-.1.08-.17.05-.2-.07-.34-.02-.4.14 0 .03-.02.04-.05.04a.4.4 0 0 1-.17-.06.13.13 0 0 0-.06-.02c-.2 0-.35.38-.22.56.09.13.2.17.34.14.02 0 .04-.02.04-.04.01-.01.02-.03.01-.05-.02-.1-.03-.22-.01-.36 0-.03.01-.05.03-.07.06-.06.2-.06.2.05v.42c0 .04.03.06.06.04l.22-.08a.14.14 0 0 0 .1-.15c-.02-.07-.06-.13-.14-.18-.09-.06-.07-.29.06-.23.12.06.23.07.33.06.06 0 .1-.05.13-.1.05-.06.1-.12.22-.1.05.02.08.06.08.12v.03c0 .08-.04.12-.12.12h-.35a.1.1 0 0 0-.1.1c-.01.1.01.19.06.28a.07.07 0 0 0 .1.02c.1-.07.2-.08.32-.03.07.03.07.05 0 .06-.29.04-.64.16-.8.4a.12.12 0 0 0 .02.16c.16.13.28-.01.38-.13a.08.08 0 0 1 .12 0l.13.16c.03.04.02.1-.02.12a.08.08 0 0 1-.04.01h-.36a.12.12 0 0 0-.09.05l-.2.24c-.02.02-.03.02-.04-.01-.03-.12-.1-.16-.22-.11a1.8 1.8 0 0 1-.27.07l-.05-.01-.22-.27c-.03-.03-.02-.06.01-.07l.2-.1c.04-.03.07-.02.08.02l.08.15c.02.06.1.07.13.03l.2-.16c.06-.06.07-.13.03-.22l-.06-.12c-.02-.05-.05-.05-.09-.02-.2.22-.34.26-.42.1-.03-.06-.08-.07-.14-.03l-.13.08c-.05.03-.09.02-.1-.03l-.11-.3c-.02-.06 0-.1.05-.12l.18-.1c.04-.02.05-.08 0-.1-.07-.06-.12-.1-.13-.13-.02-.13-.06-.13-.12-.02a.94.94 0 0 0-.08.27c0 .03 0 .05-.03.07-.12.15-.13.2-.13.4 0 .03 0 .04-.03.05a.5.5 0 0 1-.26.05c-.1-.02-.1-.05-.02-.1a.93.93 0 0 0 .15-.1c.03-.02.04-.06.03-.1a.06.06 0 0 0-.05-.05c-.23-.04-.38-.09-.46-.15a8.2 8.2 0 0 1-.32-.3.05.05 0 0 0-.08.01.2.2 0 0 0 0 .1c0 .1.08.38.2.89.1.33.3.49.64.47h.04c.04.03.05.07.04.11-.02.04-.06.07-.11.09-.35.1-.57.33-.8.6-.04.05-.08.05-.13 0-.1-.08-.18-.18-.24-.3 0-1.47-.31-2.2-.88-1.83-.15.06-.29.14-.4.22-.05.03-.1 0-.1-.05v-1.99a.4.4 0 0 1 .07-.24c.12-.15.21-.3.3-.43.25-.45.16-.86.01-1.32-.05-.17-.17-.3-.31-.43v-.01c-.08-.07-.15-.08-.21-.02-.14.1-.28.28-.41.52-.2.37-.25.75-.13 1.14.03.1.08.19.14.28.09.14.17.29.19.45v.6c-.01.06-.08.1-.13.07l-.73-.4a.05.05 0 0 0-.07.04c-.02.3-.02.64-.01 1 0 .12.04.22.12.3.17.2.39.38.64.53.12.07.2.16.21.27l-.02.95c0 .08-.03.15-.08.2a.08.08 0 0 1-.1 0 4.57 4.57 0 0 0-.56-.41c-.06-.04-.1-.05-.12-.05-.06.01-.08.04-.09.1v.86c0 .12.05.2.12.26.46.33 1.02.65 1.68.98l.4.23c.03.02.03.07 0 .08-.32.1-.6.23-.86.4-.09.05-.09.1 0 .16.33.2.6.35.81.46.14.07.25.09.34.07.16-.04.37-.13.62-.27.17-.1.27-.14.32-.16l.06.01.59.3c.17.09.16.16-.02.22s-.4.17-.66.34a.1.1 0 0 0 0 .16 14.33 14.33 0 0 0 .9.47c.04 0 .08 0 .13-.03a4.86 4.86 0 0 0 .82-.44c.03 0 .05 0 .07.02l.78.46c.16.1.15.17-.04.2-.2.04-.4.16-.62.35a.06.06 0 0 0 0 .09l.77.42a.3.3 0 0 0 .28 0l.65-.33a.33.33 0 0 1 .32.01l.64.35c.03.02.04.07.01.1a52.28 52.28 0 0 1-.76.3c-.08.07-.06.14.04.2.2.13.47.28.8.45.12.07.21.07.33 0a6.6 6.6 0 0 0 .68-.35c.02 0 .04 0 .06.02.21.1.73.2.85.4.03.04.01.1-.03.12-.24.1-.4.28-.6.41-.05.03-.05.05-.01.08.23.15.51.31.85.48.13.06.24.07.32.02l.54-.34a.13.13 0 0 1 .14 0 5 5 0 0 1 .51.37c.1.08.13.2.04.3-.1.11-.18.19-.23.22-.06.04-.06.08 0 .13.13.1.27.18.4.23.04.01.07 0 .08-.04.1-.4.18-.33.27-.24.12.1.15.1.26 0 .09-.09.16-.16.27.24 0 .03.04.05.07.04.14-.05.28-.12.42-.23.05-.05.05-.09 0-.13a1.5 1.5 0 0 1-.24-.22c-.1-.1-.05-.22.04-.3a5 5 0 0 1 .58-.39c.02 0 .05 0 .07.02l.54.34c.08.05.19.04.32-.02.34-.17.62-.33.85-.48.04-.03.04-.05 0-.08-.22-.13-.37-.31-.61-.41a.08.08 0 0 1-.03-.11c0-.02.02-.03.03-.03l.82-.38a.14.14 0 0 1 .13 0c.17.11.37.22.6.34.13.06.22.06.35-.01.32-.17.59-.32.8-.45.1-.06.1-.13.03-.2a52.3 52.3 0 0 1-.66-.24c-.05-.02-.15-.07-.1-.14l.01-.02.64-.35a.33.33 0 0 1 .32 0l.65.33a.3.3 0 0 0 .28 0l.76-.43.02-.02a.06.06 0 0 0 0-.07c-.23-.2-.44-.3-.63-.35-.19-.03-.2-.1-.04-.2l.78-.46a.13.13 0 0 1 .07-.02c.03 0 .05 0 .07.02.24.17.5.3.75.42l.13.03.14-.04.76-.43a.1.1 0 0 0 0-.16 3.37 3.37 0 0 0-.66-.34c-.18-.06-.19-.13-.02-.22l.6-.3a.09.09 0 0 1 .05 0c.05 0 .15.06.32.15.25.14.46.23.62.27.09.02.2 0 .34-.07.2-.1.48-.26.81-.46.09-.05.09-.1 0-.16-.26-.17-.54-.3-.85-.4-.04 0-.04-.06-.01-.08l.4-.23c.66-.33 1.22-.65 1.68-.98.07-.06.11-.14.12-.26v-.86c0-.06-.03-.09-.09-.1a4.57 4.57 0 0 0-.73.49.08.08 0 0 1-.05-.03.31.31 0 0 1-.08-.2c-.02-.57-.03-.9-.02-.95.02-.11.09-.2.2-.27.26-.15.48-.32.65-.52.08-.09.12-.2.12-.32v-1a.05.05 0 0 0-.08-.04l-.73.4a.08.08 0 0 1-.12-.06 3.7 3.7 0 0 1 0-.6c0-.16.1-.3.18-.45.06-.1.11-.19.14-.28.12-.4.08-.77-.13-1.14a1.79 1.79 0 0 0-.4-.52c-.07-.06-.14-.05-.21.02h-.01c-.13.15-.26.27-.31.44-.15.46-.24.87.02 1.32.08.14.17.28.29.43a.4.4 0 0 1 .08.24v1.99c0 .05-.06.08-.1.05a2.4 2.4 0 0 0-.4-.22c-.89-.48-.83 1.28-.83 1.46 0 .18-.02.3-.06.37-.06.12-.14.22-.24.3-.05.05-.1.05-.13 0-.23-.27-.45-.5-.8-.6-.05-.02-.09-.05-.1-.09a.08.08 0 0 1 .03-.1h.04c.33.01.54-.15.63-.48l.22-.88a.2.2 0 0 0 0-.11.05.05 0 0 0-.09-.02c-.12.12-.23.23-.32.3-.08.07-.23.12-.46.16a.06.06 0 0 0-.05.04c-.01.05 0 .09.03.12l.15.09c.09.05.08.08-.02.1a.5.5 0 0 1-.26-.05c-.02 0-.03-.02-.03-.05 0-.2 0-.25-.13-.4a.14.14 0 0 1-.03-.07.94.94 0 0 0-.08-.27c-.06-.11-.1-.1-.12.02-.01.02-.06.07-.14.13-.04.02-.03.08.01.1l.18.1c.05.02.07.06.05.12l-.1.3c-.02.05-.06.06-.1.03l-.14-.08c-.06-.04-.11-.03-.14.04-.08.15-.22.11-.42-.1-.04-.04-.07-.04-.1 0l-.05.13c-.04.09-.03.16.04.22l.19.16c.04.04.1.03.13-.03l.08-.15c.01-.04.04-.05.07-.03l.2.1c.04.02.05.05.02.08l-.22.27a.05.05 0 0 1-.05.01 1.8 1.8 0 0 1-.27-.07c-.12-.05-.2-.01-.22.1 0 .04-.02.04-.04.02l-.2-.24a.12.12 0 0 0-.1-.05h-.35l-.04-.01a.08.08 0 0 1-.02-.12l.13-.16a.08.08 0 0 1 .12 0c.1.12.22.26.38.13a.12.12 0 0 0 .02-.16c-.16-.24-.51-.36-.8-.4-.07 0-.07-.03 0-.06a.31.31 0 0 1 .32.03l.03.01c.03 0 .05 0 .07-.03a.47.47 0 0 0 .06-.28.1.1 0 0 0-.03-.07.1.1 0 0 0-.07-.03h-.35c-.08 0-.12-.04-.12-.12v-.03c0-.06.03-.1.08-.11.12-.03.17.03.22.1.04.04.07.08.13.09.1.01.21 0 .33-.06.13-.05.15.17.06.23-.08.05-.12.1-.13.18a.14.14 0 0 0 .09.15l.22.08c.03.02.05 0 .05-.04v-.42c0-.11.15-.11.2-.05.03.02.04.04.04.07.02.14.01.26-.01.36v.05l.05.04c.14.03.25-.01.34-.14.04-.06.04-.13.03-.2v-.08c0-.17-.08-.27-.25-.28-.02 0-.04 0-.06.02a.4.4 0 0 1-.17.06c-.03 0-.05-.01-.06-.04-.05-.16-.18-.2-.39-.14-.07.03-.13.01-.17-.05a.6.6 0 0 0-.25-.2c-.05-.02-.05-.04 0-.05l.12-.04c.05-.02.07-.05.08-.1 0-.06 0-.1-.03-.14a.09.09 0 0 0-.06-.03c-.08 0-.16.02-.24.04-.1.02-.2.04-.3.02-.18-.03-.39-.08-.6-.14-.3-.09-.37.12-.35.37 0 .17.02.3.04.4.02.13.08.2.2.22l.12.03c.12.02.17-.02.15-.13a1.35 1.35 0 0 1-.01-.4c0-.06.04-.07.09-.05h.02c.05.03.08.08.08.14-.02.15-.05.27-.09.36a.08.08 0 0 0 0 .07.8.8 0 0 0 .3.34c.03.02.03.03 0 .03-.24.04-.46-.13-.63-.26a.07.07 0 0 0-.07-.02l-.2.07a.07.07 0 0 1-.09-.03v-.03l-.01-.1c-.02-.25-.03-.43-.28-.58a.32.32 0 0 0-.28-.02c-.22.07-.42.11-.6.13-.24.03-.28-.3-.24-.46.03-.1.11-.2.19-.3.05-.05.1-.11.13-.17.02-.04 0-.1-.04-.1-.1-.05-.2-.08-.31-.12-.39-.1-.83.2-1 .52-.12.26-.05.73.28.81.13.03.25.04.38.02.07-.01.11-.08.09-.15l-.13-.4c0-.03.07-.07.08-.03l.14.35c.06.19-.02.27-.16.35-.06.04-.14.07-.22.1-.15.07-.32.14-.44.26-.09.08-.16.16-.23.26a.1.1 0 0 1-.11.03l-.04-.02-.04-.01c-.27-.11-.42-.17-.73-.06-.15.06-.26-.08-.21-.24l.06-.21c.01-.05-.02-.09-.07-.09-.14.02-.24.1-.3.24-.04.1-.04.18 0 .24.14.23.26.27.53.24l.07-.01c.22-.04.58-.09.57.21v.15c0 .13 0 .18-.03.2h-.1l-.16-.01c-.07 0-.1.07-.07.13l.12.18c.05.1.08.23.1.34l.05.2a.6.6 0 0 0 .3.3.6.6 0 0 1 .14.18.1.1 0 0 0 .05.04l.27.07c.1.02.18.05.25.08.25.12.52.22.84.3.22.06.55.04.75-.09l.1-.06c.24-.15.5-.31.54-.6l.06-.7c0-.09.02-.16.05-.23.03-.07.06-.07.08.01.03.13.04.24.01.34l-.08.32-.07.53a.4.4 0 0 1-.13.24.87.87 0 0 1-.23.12 2.07 2.07 0 0 0-1 .74.07.07 0 0 1-.09-.02 1.63 1.63 0 0 0-.63-.6l-1.06-.47a.5.5 0 0 1-.2-.17c-.84-1.29-3.04-1.29-3.87 0a.5.5 0 0 1-.2.17l-1.07.48c-.27.15-.48.34-.63.59a.07.07 0 0 1-.1.02 2.07 2.07 0 0 0-.99-.75.87.87 0 0 1-.23-.1.4.4 0 0 1-.13-.25l-.07-.53-.08-.32a.66.66 0 0 1 0-.34c.03-.08.06-.08.1 0l.04.22.06.7c.03.29.3.45.53.6l.1.06c.2.13.54.15.76.09.32-.08.6-.18.84-.3.07-.03.15-.06.25-.08l.27-.07a.1.1 0 0 0 .05-.04.6.6 0 0 1 .15-.18.6.6 0 0 0 .3-.3l.04-.2c.02-.11.05-.24.1-.34l.12-.18c.04-.06 0-.14-.07-.13h-.17c-.04.02-.07.02-.09 0-.02-.01-.02-.06-.03-.19v-.15c-.01-.3.35-.25.57-.21h.07c.27.04.4 0 .53-.23.04-.06.04-.14 0-.24-.06-.15-.16-.22-.3-.24-.05 0-.08.04-.07.09l.06.21c.05.16-.06.3-.21.24-.31-.1-.46-.05-.73.06a9.7 9.7 0 0 1-.14.03.1.1 0 0 1-.05-.03c-.07-.1-.14-.18-.23-.26-.12-.12-.29-.19-.44-.25a1.62 1.62 0 0 1-.22-.1c-.14-.1-.22-.17-.16-.36l.14-.35c.01-.04.09 0 .08.03l-.13.4c-.02.07.02.14.09.15.13.02.25.01.38-.02.33-.08.4-.55.27-.8-.16-.33-.6-.64-.99-.53l-.31.11a.08.08 0 0 0-.04.11c.03.06.08.12.13.17.08.1.16.2.19.3.04.16 0 .49-.24.46a2.81 2.81 0 0 1-.6-.13.32.32 0 0 0-.28.02c-.25.15-.26.33-.28.58a6.43 6.43 0 0 1-.01.13.07.07 0 0 1-.09.03l-.2-.07c-.03 0-.05 0-.07.02Zm5.65 8.97c.02 0 .23-.14.64-.4.12-.08.19-.17.19-.27 0-.33.07-.64.2-.95.03-.05-.02-.1-.07-.09-.36.1-.7.4-1.06.52a.99.99 0 0 1-.38 0c-.36-.12-.7-.42-1.06-.52-.05-.01-.1.04-.07.1.13.3.2.61.2.94 0 .1.07.19.2.27.4.26.61.4.63.4.08.04.5.04.58 0Zm.22-1.9.1-.06c.24-.13.48-.25.71-.4a.05.05 0 0 0 0-.07c-.65-.45-1.99-.45-2.65 0a.05.05 0 0 0 0 .08c.27.16.54.3.82.45.33.18.7.18 1.02 0Zm-.1-1.36a3.15 3.15 0 0 1-.35-.4c0-.09-.02-.12-.06-.08-.04-.04-.06-.01-.06.08-.1.12-.2.26-.34.4a.09.09 0 0 1-.14-.02 1.8 1.8 0 0 0-1.26-.81c-.02 0-.03-.03-.01-.04.38-.5 1.15-.9 1.76-.6 0 .03.02.04.05.03.03.01.05 0 .05-.02.6-.3 1.38.1 1.76.59.02.01 0 .04-.01.04a1.8 1.8 0 0 0-1.29.84.09.09 0 0 1-.1-.01Zm-.38-1.83-.03.01h-.03c-.13-.04-.21-.08-.23-.13a.06.06 0 0 1 0-.07l.24-.28.01-.02h.02l.01.02.24.28c.01.02.02.04 0 .07-.02.05-.1.1-.23.12Zm-.09-.9c0-.11.12-.11.12 0l.47.55.01.01h.05l.37-.46c.07-.08.14-.2.2-.32.05-.11.14-.22.29-.33.23-.19-.02-.36-.18-.47a2 2 0 0 1-.06-.05c-.53-.41-1.89-.41-2.42 0l-.06.05c-.16.1-.41.28-.18.47.15.1.24.22.3.33.05.13.12.24.19.32l.37.45c.02.02.03.02.05.01h.01l.47-.57Zm-2.78-3.9c.03.06.03.1 0 .11 0 .02-.04 0-.1-.05l-.14-.2a1.15 1.15 0 0 1-.1-.22c-.03-.07-.03-.1 0-.12 0-.01.05.01.1.06.04.05.1.12.14.2.05.07.08.15.1.22Zm-2.93 1.84a.32.32 0 0 0-.13.15c-.03.07-.01.14.05.21l.03.04c.11.12.2.22.18.4a.14.14 0 0 1-.17.1l-.2-.06a.11.11 0 0 0-.1 0 .12.12 0 0 0-.05.07c-.04.11-.06.24-.07.39-.01.13-.03.22-.07.26-.13.16-.35.17-.58.18-.06 0-.1.05-.11.12 0 .06.04.14.08.2l.04.08v.05l-.02.02c-.1.12-.27.32-.41.24l-1.78-.96a.11.11 0 0 1-.04-.17c.24-.29.55-.46.93-.5a.4.4 0 0 0 .26-.16.1.1 0 0 1 .15-.01l.43.37c.06.05.14.04.18-.02.07-.11.09-.26.06-.46 0-.03.03-.06.07-.04.1.05.2.01.34-.04l.1-.04c.03-.01.05 0 .07.01l.02.06-.03.06-.03.01c-.19.13-.3.2-.39.43-.04.11 0 .2.1.24l.25.12c.1.05.15.01.17-.1a.96.96 0 0 1 .11-.37l.2-.19a.45.45 0 0 0 .12-.25v-.3c0-.12-.06-.19-.14-.27-.03-.03-.05-.06-.03-.1.02-.05.07-.06.13-.04l.1.04c.07.03.14.06.23.05a1.2 1.2 0 0 0 .8-.47h.02v.01c.03.03.02.13 0 .16 0 .02-.02.03-.03.04l-.45.4a.08.08 0 0 1-.05.02h-.27c-.03 0-.05 0-.07.02Zm-2.48.4-.01-.05c-.01-.08-.03-.17-.08-.2a.41.41 0 0 0-.18-.05c-.03 0-.04-.02-.05-.04v-.04c0-.02.01-.03.03-.04l.36-.22c.08-.04.1.08.1.15v.02l.06.13c.06.14.1.4-.1.44a.12.12 0 0 1-.13-.1Zm-2.14.1c-.04.27-.04.5 0 .7 0 .06.05.12.1.18.05.07.1.14.13.22.04.19.04.38-.01.59-.02.07-.06.09-.12.06-.28-.12-.53-.23-.76-.36a.34.34 0 0 1-.19-.31v-.03c0-.33-.01-.56.24-.79l.43-.36c.14-.1.2-.07.18.1Zm6.47.88a1.28 1.28 0 0 1-.63-.33 1.32 1.32 0 0 1-.31-.65v-.04l.03-.01c.03 0 .05 0 .06.02.04.03.1.17.2.41.01.05.05.1.12.17.07.07.12.11.16.13.24.1.37.17.4.2.02.02.03.04.02.06l-.01.03h-.04Zm2.23.21c.14-.03.35.2.4.31.01.02 0 .04-.03.03l-.4-.2a.06.06 0 0 1-.05-.05c0-.05.03-.08.08-.09Zm-4.27.2a.1.1 0 0 1-.02.04l-.26.3c-.1.1-.26-.05-.16-.16l.25-.28a.1.1 0 0 1 .15-.01.1.1 0 0 1 .04.12Zm.11.46h-.05c-.02-.01-.03-.06-.01-.13a.85.85 0 0 1 .1-.22c.05-.09.12-.2.21-.24h.05c.03.02.03.06.02.13a.85.85 0 0 1-.1.22.84.84 0 0 1-.15.2.25.25 0 0 1-.07.04Zm-3.34-.08c-.02-.04-.06-.28.05-.22.27.13.59.32.95.58.04.03.07.09.06.17 0 .18-.04.38-.1.6a.13.13 0 0 1-.18.09c-.17-.07-.6-.29-.67-.47a.15.15 0 0 1 0-.07c.03-.23 0-.46-.11-.68Zm8.36.71c-.07.04-.18.08-.34.14-.14.05-.25.1-.32.15-.25.18-.46.4-.64.66a.06.06 0 0 1-.1 0c-.29-.5-.74-.8-1.35-.93a.1.1 0 0 1-.06-.15c.28-.35.68-.65 1.13-.74.37-.07.74.02 1.11.26.2.13.4.32.58.58.02.01.01.03 0 .03Zm-5.46-.46c.24.04.49.09.7-.08a4.94 4.94 0 0 0 .38-.32.1.1 0 0 1 .06 0c.39.18.73.44 1.03.8.04.04-.04.09-.07.1-.4.09-.73.28-1.02.57-.05.05-.1.06-.15.03l-1.44-.8a.08.08 0 0 1-.04-.1.4.4 0 0 1 .2-.2c.06-.03.14-.03.26-.02l.1.02Zm-.91.76c-.02-.07.06-.12.11-.09.27.15.53.3.78.46.23.14.08.48.09.71 0 .09 0 .17-.02.24 0 .05-.06.08-.1.05-.12-.06-.31-.17-.59-.3a.28.28 0 0 1-.11-.14c-.11-.23-.11-.68-.16-.93Zm2.33.6c-.07-.05-.07-.09-.01-.14.65-.51 1.3-.55 1.96-.1.17.13.27.2.37.33a.08.08 0 0 1-.03.12c-.37.12-.65.3-.87.54-.01.01-.03.02-.05 0l-1.37-.76Zm-.35.34 1.02.56a.22.22 0 0 1 .1.28 9.2 9.2 0 0 0-.2.51c-.06.13-.12.2-.26.14-.13-.05-.54-.24-.55-.45-.01-.3-.07-.59-.16-.85a.22.22 0 0 1 0-.18c.02-.02.03-.02.05-.01Zm2.08.54c.38-.3.8-.43 1.22-.38.42.05.83.3 1.1.62.03.03.02.08-.02.09a2.42 2.42 0 0 0-.86.52h-.04l-1.4-.78a.04.04 0 0 1 0-.07Zm-.1 1.33c-.01-.18-.14-.84-.04-.78l1.05.58a.22.22 0 0 1 .12.22c-.03.24 0 .56-.13.77a.12.12 0 0 1-.07.05h-.09l-.67-.36c-.18-.1-.18-.3-.18-.48ZM30.82 31c-.02 0-.02-.05 0-.11a1.16 1.16 0 0 1 .26-.42c.04-.05.08-.07.1-.06.02.01.02.05 0 .12a1.16 1.16 0 0 1-.26.42c-.05.05-.08.07-.1.05Zm3.07 1.88a.32.32 0 0 0-.13-.15.13.13 0 0 0-.07-.02h-.27c-.02 0-.03 0-.05-.02l-.45-.4a.12.12 0 0 1-.03-.04c-.02-.03-.03-.13 0-.16h.02c.22.27.48.42.8.46.09.01.16-.02.24-.05l.09-.04c.06-.02.1 0 .13.04v.04l-.01.04a2 2 0 0 1-.02.02c-.08.08-.14.15-.15.27v.3c.03.1.07.19.14.25l.19.19c.06.1.1.22.11.37.02.11.07.15.17.1l.25-.12c.1-.05.14-.13.1-.24-.09-.23-.2-.3-.4-.43l-.02-.01a.07.07 0 0 1-.03-.06c0-.03 0-.04.02-.06a.06.06 0 0 1 .07-.01l.06.02.03.01h.01c.14.06.25.1.34.05.04-.02.08 0 .07.04-.03.2 0 .35.06.46.04.06.12.07.18.02l.43-.37a.1.1 0 0 1 .15.01.4.4 0 0 0 .26.15c.38.05.7.22.93.51.04.05.02.13-.04.17l-1.78.96c-.14.08-.3-.12-.41-.24l-.01-.02a.05.05 0 0 1-.01-.05l.04-.07c.04-.07.08-.15.08-.21a.12.12 0 0 0-.11-.12c-.23 0-.45-.02-.58-.18-.04-.04-.06-.13-.07-.26 0-.15-.03-.28-.07-.39a.12.12 0 0 0-.05-.06.11.11 0 0 0-.1-.01l-.2.07a.14.14 0 0 1-.17-.11c-.03-.19.1-.31.21-.44.06-.07.08-.14.05-.2Zm2.21.35c-.07-.01-.12-.05-.13-.13a.5.5 0 0 1 .04-.3.62.62 0 0 0 .05-.16c.01-.07.03-.2.11-.15l.36.22c.02 0 .03.02.03.04v.04c0 .02-.02.04-.05.04a.4.4 0 0 0-.18.05c-.05.03-.07.12-.08.2-.01.08-.05.16-.15.15Zm2.29.7c.03-.2.03-.43 0-.7-.03-.17.03-.2.17-.1l.43.36c.25.23.25.46.24.79v.03c0 .15-.07.25-.19.31-.23.13-.48.24-.76.36-.06.03-.1 0-.12-.06-.05-.2-.05-.4 0-.6.01-.07.07-.14.12-.2.05-.07.1-.13.1-.18Zm-5.85-.15c-.14.15-.35.26-.63.33h-.04l-.01-.04.01-.06c.04-.03.17-.1.4-.2.05-.02.1-.06.17-.13a.6.6 0 0 0 .13-.17c.09-.24.15-.38.19-.41a.06.06 0 0 1 .06-.02l.02.01.01.04c-.06.29-.16.5-.3.65Zm-3.26.85c.05-.12.26-.34.4-.3.05 0 .07.03.07.08 0 .03 0 .05-.03.06l-.41.2c-.02 0-.04-.02-.03-.04Zm4.7-.07a.1.1 0 0 1 0-.15.1.1 0 0 1 .16 0l.25.3c.1.1-.06.25-.16.14l-.26-.29Zm-.1.42h-.04a.24.24 0 0 1-.07-.05.84.84 0 0 1-.15-.19.84.84 0 0 1-.1-.22c-.01-.07 0-.11.02-.13h.05c.1.04.16.15.21.24.05.08.09.16.1.22.02.07.01.12-.01.13Zm3.25-.3c.1-.06.07.18.05.22-.1.22-.14.45-.1.68l-.01.07c-.07.18-.5.4-.67.47a.13.13 0 0 1-.17-.09c-.07-.22-.11-.42-.11-.6 0-.08.02-.14.06-.17.36-.26.68-.45.95-.58Zm-7.97 1.07c-.16-.06-.27-.1-.34-.14-.02 0-.03-.02-.01-.03.19-.26.38-.45.58-.58a1.5 1.5 0 0 1 1.11-.26c.45.09.85.39 1.13.74a.1.1 0 0 1-.06.15c-.6.12-1.06.43-1.35.93a.06.06 0 0 1-.1 0 2.6 2.6 0 0 0-.64-.66c-.07-.05-.18-.1-.32-.15Zm4.43-.68c.2.17.45.12.69.08h.02l.07-.02c.12-.01.2 0 .26.02.1.05.16.12.2.2v.05l-.04.05-1.44.8c-.05.03-.1.02-.15-.03-.29-.29-.63-.48-1.02-.58-.03 0-.11-.05-.07-.1.3-.35.64-.61 1.03-.78a.1.1 0 0 1 .11.02l.34.3Zm1.44 1.77a.28.28 0 0 1-.11.13l-.6.31c-.03.03-.09 0-.1-.05a1.37 1.37 0 0 1 0-.24c0-.23-.15-.57.08-.71l.78-.46c.05-.03.13.02.11.09l-.06.26c-.05.2 0 .48-.1.67Zm-2.16-.47c.06.05.06.1 0 .13l-1.38.77-.05-.01c-.22-.24-.5-.42-.87-.54a.08.08 0 0 1-.03-.12c.09-.12.18-.19.33-.29l.03-.02.01-.01c.65-.46 1.3-.42 1.96.1Zm-.68 1.04 1.02-.56c.02-.01.03 0 .04.01.03.06.04.12.01.18-.1.26-.15.55-.16.85-.01.2-.42.4-.55.45-.14.05-.2-.01-.25-.14a9.2 9.2 0 0 0-.2-.5.22.22 0 0 1 .09-.29Zm-1.06-.02c.03.01.02.05 0 .07l-1.4.77-.04.01c-.01 0-.02 0-.03-.02-.24-.21-.51-.38-.83-.5a.06.06 0 0 1-.02-.1c.27-.3.68-.56 1.1-.6.43-.06.84.07 1.22.37Zm-.07 1.81-.67.36a.12.12 0 0 1-.09 0 .12.12 0 0 1-.07-.05.58.58 0 0 1-.08-.27 8.7 8.7 0 0 0-.05-.5.22.22 0 0 1 .12-.22l1.05-.58c.93-.53.8.72-.2 1.26Z" fill="#7A171C"/><path d="M22.08 27.55h-.35c-.06-.02-.06-.04-.01-.06l.25-.13c.03 0 .05-.02.05-.04a.16.16 0 0 0 0-.12.06.06 0 0 0-.04-.05.83.83 0 0 0-.4.03l-.5.21c-.06.03-.08-.08-.02-.09a.92.92 0 0 0 .32-.12l.21-.1.12-.03c.13-.02.29-.06.37-.14a.8.8 0 0 0 .19-.32c0-.02.02-.04.04-.05l.13-.07c.14-.07.3-.14.28-.31 0-.02 0-.03-.02-.04l-.03-.01a3.62 3.62 0 0 0-1.66.48 4 4 0 0 0-.92.79c-.1.12-.18.29-.28.48l-.2.36a.2.2 0 0 0-.02.17c.03.09.15.11.21.04l.09-.12c.04-.07.09-.14.16-.2a6.2 6.2 0 0 0 .43-.42c.04-.05.07-.1.13-.13.02-.02.03 0 .03.02l-.01.06c0 .03-.01.05-.03.06-.23.16-.37.39-.42.7 0 .02 0 .05.02.07.63.75.9-.18 1.94-.25.26-.01.56.06.92.22.06.03.06-.04.05-.08a.18.18 0 0 0-.09-.13 2.56 2.56 0 0 0-.89-.3.06.06 0 0 1-.05-.08l.07-.2a.07.07 0 0 0-.07-.1Z" fill="#7A171C"/><path d="M19.74 28.72a.31.31 0 0 0 .07-.15c0-.06.03-.07.08-.04.1.05.22.14.38.26.21.15.38.03-.04.44a.06.06 0 0 0-.01.07l.1.2c.01.03.02.08 0 .12l-.03.12a.05.05 0 0 1-.1 0 .5.5 0 0 0-.24-.22.06.06 0 0 1-.03-.05.43.43 0 0 0-.25-.31.49.49 0 0 1-.24-.23c-.09-.18.12-.23.24-.2.03.02.05.01.07-.01Zm.02.03c-.03-.01-.05 0-.04.03v.04c.04.15.08.35.28.3a.1.1 0 0 0 .05-.17.96.96 0 0 0-.3-.2ZM19.37 30.18c.06-.17.14-.29.24-.35a.11.11 0 0 1 .07-.02c.08 0 .1-.04.1-.13a.16.16 0 0 0-.1-.13c-.12-.04-.13-.1-.15-.17a.29.29 0 0 0-.06-.13c-.06-.06-.11-.06-.16 0a.09.09 0 0 0-.01.1c.06.15.13.38.01.55l-.12.23c-.02.05 0 .08.05.1h.02c.06.02.1 0 .11-.05ZM20.37 30.22l-.05-.02c-.06-.02-.48-.17-.44-.3l.02-.06c.01-.03.07-.04.17-.03.1.01.23.05.36.1.04 0 .1.03.08.1l-.01.03c-.02.08-.05.2-.13.18ZM19.83 31.06l.13-.32a.7.7 0 0 1 .13-.22c.06-.06.1-.14.13-.23.01-.05 0-.08-.06-.06l-.18.03c-.04.01-.06.04-.06.08v.24c0 .08-.18.09-.22.08a.47.47 0 0 1-.17-.1.44.44 0 0 0-.28-.08c-.02 0-.04.01-.05.03-.04.17.05.28.28.32.05 0 .05.03.02.07v.02l-.02.02c-.07.08-.12.15-.14.25-.03.1-.04.28-.02.52 0 .01 0 .02.02.03l.03.02c.1 0 .15-.11.18-.21.03-.09.06-.16.13-.15.07.02.14.05.18.1.02.03.04.04.07.04.09 0 .18-.02.25-.08l.03-.01.06-.04c.05-.02.06-.08.05-.15a.88.88 0 0 0-.08-.24c-.03-.07-.13-.06-.15.02l-.02.05c-.01.04-.04.06-.08.05l-.12-.02c-.04 0-.05-.02-.04-.06ZM20.87 30.75v-.05a.06.06 0 0 0-.05-.03c-.12-.03-.36-.17-.35-.33 0-.09.1-.12.18-.1.14 0 .27.08.38.2.06.07.1.18.1.31l.03.35c0 .06-.03.11-.09.13h-.05c-.09-.02-.27-.05-.35.02a3 3 0 0 0-.07.05c-.13.12-.18.1-.15-.07l.02-.14.03-.06c.06-.05.15-.11.29-.18.04-.03.07-.06.08-.1Z" fill="#7A171C"/><path d="m20.52 30.66-.39-.04h-.04a.06.06 0 0 0-.02.05v.01c-.02.13.09.24.21.25h.03c.12.02.25-.06.26-.2a.06.06 0 0 0-.05-.07ZM33.92 27.55h.35c.06-.02.06-.04.01-.06l-.25-.13c-.03 0-.05-.02-.05-.04a.16.16 0 0 1 0-.12c0-.03.02-.04.04-.05a.83.83 0 0 1 .4.03l.5.21c.03.01.04 0 .05-.01v-.06l-.03-.02c-.12-.01-.22-.07-.32-.12a1.2 1.2 0 0 0-.21-.1l-.12-.03c-.13-.02-.29-.06-.37-.14a.8.8 0 0 1-.19-.32.11.11 0 0 0-.04-.05l-.13-.07c-.14-.07-.3-.14-.28-.31a.06.06 0 0 1 .03-.05h.02c.05-.01.14 0 .25.01.5.09 1 .2 1.41.47.4.26.7.53.92.79.1.12.18.29.28.48l.2.36a.2.2 0 0 1 .02.17.13.13 0 0 1-.21.04l-.09-.12c-.04-.07-.09-.14-.16-.2a6.16 6.16 0 0 1-.35-.32l-.08-.1a.43.43 0 0 0-.13-.13c-.02-.02-.03 0-.03.02l.01.06c0 .03.01.05.03.06.23.16.37.39.42.7 0 .02 0 .05-.02.07l-.27.32a.04.04 0 0 1-.05 0 3.16 3.16 0 0 0-1.62-.57c-.26-.01-.56.06-.92.22-.06.03-.06-.04-.05-.08a.18.18 0 0 1 .09-.13c.33-.17.62-.27.89-.3.03 0 .06-.04.05-.08l-.07-.2a.07.07 0 0 1 .07-.1Z" fill="#7A171C"/><path d="M36.26 28.72a.31.31 0 0 1-.07-.15c0-.06-.03-.07-.08-.04-.1.05-.22.14-.38.26a.25.25 0 0 1-.16.04.04.04 0 0 0-.04.04v.02c.04.1.12.22.24.34.02.02.02.04.01.07l-.1.2a.18.18 0 0 0 0 .12c0 .04.01.1.04.14.03.02.07.01.08-.01a.5.5 0 0 1 .25-.23c.01-.01.03-.03.03-.05a.43.43 0 0 1 .25-.31c.1-.04.18-.12.24-.23a.15.15 0 0 0-.17-.2h-.07c-.03.02-.05.01-.07-.01Zm-.02.03c.03-.01.05 0 .04.03v.04c-.04.15-.08.35-.28.3-.08 0-.1-.11-.05-.17a.96.96 0 0 1 .3-.2ZM36.63 30.18c-.06-.17-.14-.29-.24-.35a.11.11 0 0 0-.07-.02c-.08 0-.1-.04-.1-.13l.04-.08a.15.15 0 0 1 .07-.05c.1-.04.12-.1.14-.17.01-.04.02-.09.06-.13.06-.06.11-.06.16 0a.09.09 0 0 1 .01.1c-.06.15-.13.38-.01.55l.12.23c.02.05 0 .08-.05.1h-.02c-.06.02-.1 0-.11-.05ZM35.63 30.22l.05-.02a2.07 2.07 0 0 0 .33-.16.44.44 0 0 0 .09-.07c.02-.03.03-.05.02-.06l-.02-.07c-.01-.03-.07-.04-.17-.03-.1.01-.23.05-.36.1-.04 0-.1.03-.08.1l.01.03c.02.08.05.2.13.18ZM36.17 31.06a7.17 7.17 0 0 0-.13-.32.7.7 0 0 0-.13-.22.56.56 0 0 1-.13-.23c-.01-.05 0-.08.06-.06l.18.03c.04.01.06.04.06.08v.26l.03.02.2.04c.03 0 .08-.04.16-.1a.44.44 0 0 1 .28-.08c.02 0 .04.01.05.03.04.17-.05.28-.28.32-.05 0-.05.03-.02.07l.02.04c.07.08.12.15.14.25.03.1.04.28.02.52 0 .01 0 .02-.02.03l-.03.02c-.1 0-.15-.11-.18-.21-.03-.09-.06-.16-.13-.15a.32.32 0 0 0-.18.1.09.09 0 0 1-.07.04.38.38 0 0 1-.25-.08l-.09-.05c-.05-.02-.06-.08-.05-.15a.88.88 0 0 1 .08-.24c.03-.07.13-.06.15.02l.02.05c.01.04.04.06.08.05l.12-.02c.04 0 .05-.02.04-.06ZM35.13 30.75v-.05l.05-.03c.12-.03.36-.17.35-.33 0-.09-.1-.12-.18-.1a.58.58 0 0 0-.38.2.53.53 0 0 0-.1.31l-.03.35c0 .06.03.11.09.13h.05c.09-.02.27-.05.35.02l.07.05c.13.12.18.1.15-.07l-.02-.14a.11.11 0 0 0-.03-.06 1.47 1.47 0 0 0-.29-.18c-.04-.03-.07-.06-.08-.1Z" fill="#7A171C"/><path d="M35.44 30.68a.06.06 0 0 1 .04-.02l.39-.04h.04l.02.05v.01c.02.13-.09.24-.21.25h-.03c-.12.02-.25-.06-.26-.2v-.05ZM25 20.33c0-.18.15-.33.33-.33h1.34a.33.33 0 1 1 0 .66h-1.34a.33.33 0 0 1-.33-.33Z" fill="#7A171C"/><rect x="28.29" y="20" width="3.76" height=".66" rx=".33" fill="#7A171C"/><path d="M25.87 21h-1.54a.33.33 0 1 0 0 .66h1.2v6.61a.33.33 0 1 0 .66 0v-6.6h1.48a.33.33 0 1 0 0-.67h-1.8ZM29.27 21c.15 0 .35.1.35.25v.14a.66.66 0 0 1 .2-.03h2.6v-.11c0-.14.16-.26.31-.26s.27.12.27.26v.77c0 1.06-.9 1.92-2 1.92s-2-.86-2-1.92v-.77c0-.14.12-.26.27-.26Zm3.15 1.02h-2.8v.08c0 .77.57 1.25 1.38 1.25.8 0 1.42-.48 1.42-1.25v-.08Z" fill="#7A171C"/><path fill-rule="evenodd" d="M28.77 24.31c0-.17-.25-.31-.43-.31-.19 0-.34.14-.34.31V26.68c0 1.28 1.12 2.32 2.5 2.32s2.5-1.04 2.5-2.32v-2.37c0-.17-.15-.31-.34-.31-.18 0-.38.14-.38.31v.07h-3.51v-.07Zm0 2.46v-.15h1.44v1.65c-.86-.1-1.44-.66-1.44-1.5Zm2.1 1.5c.82-.13 1.4-.68 1.4-1.5v-.15h-1.4v1.64Zm0-2.27h1.4v-1h-1.41v1Zm-.65-1h-1.45v1h1.44v-1Z" fill="#7A171C"/><path fill-rule="evenodd" d="m28 18-9 5.23v10.54L28 39l9-5.23V23.23L28 18Zm10 4.75L28 17l-10 5.75v11.5L28 40l10-5.75v-11.5Z" fill="#7A171C"/><path fill-rule="evenodd" d="m28 11-15 8.48v17.04L28 45l15-8.48V19.48L28 11Zm16 8-16-9-16 9v18l16 9 16-9V19Z" fill="#7A171C"/><path fill-rule="evenodd" d="m28 14.3-12 6.89V34.8l12 6.9 12-6.9V21.2l-12-6.9ZM42 20l-14-8-14 8v16l14 8 14-8V20Z" fill="#7A171C"/></svg>