<!-- by TradingView --><svg width="56" height="56" viewBox="0 0 56 56" xmlns="http://www.w3.org/2000/svg"><path fill="#F0F3FA" d="M0 0h56v56H0z"/><path d="M13 30.32a9.61 9.61 0 0 0 5.55-1.86 48.06 48.06 0 0 0 6.28-5.75 32.96 32.96 0 0 1 2.84-2.76c2.8-2.29 6.05-3.92 9.84-3.94 2.19 0 3.98-.08 5.86.34 1.9.43 3.88 1.38 5.63 2.33-5.28-1.33-9.99-.12-14.2 3.1a62.81 62.81 0 0 0-4.75 4 21.01 21.01 0 0 1-3.96 3.16c-2 1.09-3.93 1.72-5.78 1.9-1.9.18-3.55.2-4.94.08-.76-.07-1.54-.36-2.37-.6Z" fill="#FF6C2D"/><path d="M8.43 30.55c-.3-.22-.35-.54-.43-.64 1.41.69 2.93 1.08 4.23 1.48 1.32.4 2.76.68 4.32.8 3.93.34 7.72-.17 11.37-1.53l2.83-1.05c2.4-.78 4.97-1.23 7.25-1.61-2.1.87-3.69 2.05-5.26 3.17a362.68 362.68 0 0 1-3.27 2.32c-1.21.83-2.57 1.5-4.06 2-3.3 1.09-7.2.3-10.3-1.05a35.96 35.96 0 0 1-6.68-3.89Z" fill="#FF6C2D"/><path d="M13 34a16.5 16.5 0 0 0 9.78 3.53c1.4.04 2.85-.2 4.32-.71.58-.2 1.36-.46 1.9-.69-1.58 1.9-3.98 3.85-6.5 3.87-.65 0-1.27-.02-1.84-.1a5.7 5.7 0 0 1-1.75-.54c-2.6-1.23-4.34-3.1-5.91-5.36Z" fill="#FF6C2D"/></svg>