<!-- by TradingView --><svg width="56" height="56" viewBox="0 0 56 56" xmlns="http://www.w3.org/2000/svg"><path fill="#F0F3FA" d="M0 0h56v56H0z"/><path fill-rule="evenodd" d="M45 28a17 17 0 1 1-34 0 17 17 0 0 1 34 0Zm-1.5 0a15.5 15.5 0 1 1-31 0 15.5 15.5 0 0 1 31 0ZM37 19h-6.1l-.34.51V19h-.5v1.27l-.6.91V19h-.5v2.93l-.71 1.1V19h-.5v4.78l-.6.92V19h-.5v6.45l-.6.91V19h-.5v8.12l-.55.85V19H19v18H25v-8.97l.56.85V37h.5v-7.36l.6.91V37h.49v-5.7l.6.92V37h.5v-4.03l.72 1.1V37h.5v-2.18l.6.91V37h.49v-.51l.34.51H37l-4.24-6.15v-5.7L37 19Zm-6.21 9 .37-.54v1.08L30.8 28Zm1.47-2.13-.6.87v2.52l.6.87v-4.26ZM25.01 28H25 25Zm-1-3h.49v6H24v-6Zm-.5 0v6h-.73v-6h.73Zm-1.22 0v6h-.6v-6h.6Zm-1.1 0v6h-.6v-6h.6Zm-1.1 0v6h-.6v-6h.6ZM35 25h-.5v6h.5v-6Zm-1 0h-.5v6h.5v-6Zm1.5 0h.5v6h-.5v-6Zm1.5 0h-.5v6h.5v-6Z" fill="#BF9F62"/></svg>