<!-- by TradingView --><svg width="56" height="56" viewBox="0 0 56 56" xmlns="http://www.w3.org/2000/svg"><path fill="#F0F3FA" d="M0 0h56v56H0z"/><path fill-rule="evenodd" d="M29 39.93V34.7l.03-.03 7.83-5.8a.09.09 0 0 1 .1 0l.03.03.01.04V39.9c0 .02 0 .04.02.06h.01l.05.04h4.84l.05-.03v-.01a.08.08 0 0 0 .03-.06V14.08a.08.08 0 0 0-.03-.06l-.02-.01-.04-.01-3.19.11-.06.03-9.3 8.97a.09.09 0 0 1-.11 0l-12.16-8.8a.09.09 0 0 0-.1 0l-4.96 3.63A.08.08 0 0 0 12 18a.08.08 0 0 0 .02.06l1.96 1.86.02.05v20.98a.08.08 0 0 0 .06.05h.04l3.84-.7.05-.03a.08.08 0 0 0 .01-.05v-9.97a.08.08 0 0 1 .05-.07.09.09 0 0 1 .08 0l7.82 4.38c.02 0 .03.02.04.03v5.34c0 .02.02.04.03.05.02.02.04.02.06.02h2.83c.02 0 .04 0 .06-.02.01-.01.03-.03.03-.05Zm-1.58-7.99 9.55-7.6a.09.09 0 0 0 .03-.07V21.5a.09.09 0 0 0-.05-.08.1.1 0 0 0-.1.01l-9.6 7.65a.1.1 0 0 1-.11 0l-9-6.64a.1.1 0 0 0-.1-.01.09.09 0 0 0-.04.08v2.6l9.31 6.85a.1.1 0 0 0 .11 0Z" fill="#1C2F80"/></svg>