<!-- by TradingView --><svg width="56" height="56" viewBox="0 0 56 56" xmlns="http://www.w3.org/2000/svg"><path fill="#F0F3FA" d="M0 0h56v56H0z"/><path d="M39 24.64c0-2.88-3.25-4.3-4.88-4.64.93.6 2.88 2.27 2.88 4.15 0 2.35-3.82 6.83-9.86 6.83-6.04 0-11.14-1.53-11.14-4.86 0-2.67 3.37-4.54 5-5.14-4.88.99-7 4.15-7 6.12 0 1.97 1.72 5.9 10.92 5.9S39 28.25 39 24.64Z" fill="#2E639B"/><path d="M6.08 34.12a.34.34 0 0 1 .48-.04 12.06 12.06 0 0 0 4.17 2.23c.18.05.3.23.26.42-.03.19-.21.3-.4.26-.98-.27-2.8-1-4.47-2.38a.35.35 0 0 1-.04-.49Z" fill="#A3B0CE"/><path d="M32.57 17A51.6 51.6 0 0 1 50 20.36h-4.73c3.2 1.41 3.53 2.32 3.3 2.6-5.58-2.21-9.73-4.36-21.01-4.36-11.28 0-19.82 5.79-19.82 10.8 0 5.02 8.71 6.57 14.18 6.57 21.82 0 23.08-6.9 23.08-8.22 0-1.06-.6-2.68-.88-3.36.63.5 1.88 1.86 1.88 3.36 0 2.56-2.28 4.74-3.57 5.52l3.87-1.77C44.25 35.1 38.78 39 26.76 39 14.75 39 7 34.2 7 29.4 7 20.8 23.35 17 32.57 17Z" fill="#3D7FAB"/><ellipse cx="29.5" cy="27" rx="7.5" ry="7" fill="#295296"/><ellipse cx="28.96" cy="26.27" rx="6.12" ry="5.71" fill="#3473A4"/><ellipse cx="28.12" cy="25.49" rx="4.2" ry="3.92" fill="#4F9AB9"/><ellipse cx="27.28" cy="24.48" rx="2.76" ry="2.58" fill="#8EC9D4"/></svg>