<!-- by TradingView --><svg width="56" height="56" viewBox="0 0 56 56" xmlns="http://www.w3.org/2000/svg"><path fill="#F0F3FA" d="M0 0h56v56H0z"/><path d="M26 12a2 2 0 1 1 4 0v4a2 2 0 1 1-4 0v-4ZM18.94 17.73a2.07 2.07 0 0 1-.69-2.73 1.81 1.81 0 0 1 2.56-.73l3.25 2c.9.55 1.2 1.77.69 2.73a1.81 1.81 0 0 1-2.56.73l-3.25-2ZM37.06 17.73c.9-.55 1.2-1.77.69-2.73a1.81 1.81 0 0 0-2.56-.73l-3.25 2c-.9.55-1.2 1.77-.69 2.73a1.81 1.81 0 0 0 2.56.73l3.25-2ZM18.94 32.73a2.07 2.07 0 0 1-.69-2.73 1.81 1.81 0 0 1 2.56-.73l3.25 2c.9.55 1.2 1.77.69 2.73a1.81 1.81 0 0 1-2.56.73l-3.25-2ZM37.06 32.73c.9-.55 1.2-1.77.69-2.73a1.81 1.81 0 0 0-2.56-.73l-3.25 2c-.9.55-1.2 1.77-.69 2.73a1.81 1.81 0 0 0 2.56.73l3.25-2ZM18.94 23.27c-.9.55-1.2 1.77-.69 2.73a1.81 1.81 0 0 0 2.56.73l3.25-2c.9-.55 1.2-1.77.69-2.73a1.81 1.81 0 0 0-2.56-.73l-3.25 2ZM37.06 23.27c.9.55 1.2 1.77.69 2.73a1.81 1.81 0 0 1-2.56.73l-3.25-2a2.07 2.07 0 0 1-.69-2.73 1.81 1.81 0 0 1 2.56-.73l3.25 2ZM18.94 38.27c-.9.55-1.2 1.77-.69 2.73a1.81 1.81 0 0 0 2.56.73l3.25-2c.9-.55 1.2-1.77.69-2.73a1.81 1.81 0 0 0-2.56-.73l-3.25 2ZM37.06 38.27c.9.55 1.2 1.77.69 2.73a1.81 1.81 0 0 1-2.56.73l-3.25-2a2.07 2.07 0 0 1-.69-2.73 1.81 1.81 0 0 1 2.56-.73l3.25 2ZM26 40a2 2 0 1 1 4 0v4a2 2 0 1 1-4 0v-4Z" fill="#FABE00"/></svg>