<!-- by TradingView --><svg width="56" height="56" viewBox="0 0 56 56" xmlns="http://www.w3.org/2000/svg"><path fill="#F0F3FA" d="M0 0h56v56H0z"/><path d="M36 25.78v6.43c0 .43-.35.79-.79.79h-1c-.44 0-.71-.36-.71-.8v-5.46a1.67 1.67 0 0 0-1.79-1.72c-1.05 0-1.79.83-2.21 1.58v5.36c0 .62-.32 1.04-.71 1.04H27.7c-.4 0-.71-.42-.71-1.04V19.91c0-.61.32-.91.71-.91h1.08c.4 0 .71.3.71.91v4.1c.9-.8 2.24-1.02 2.93-1.01h.82A2.76 2.76 0 0 1 36 25.78Zm-26 4.87V25H8.84c-.47 0-.84-.32-.84-.71v-.58c0-.39.37-.71.84-.71H10v-2.22a.8.8 0 0 1 .8-.78h1.07c.44 0 .63.35.63.78V23h1.66c.47 0 .84.32.84.71v.58c0 .39-.37.71-.84.71H12.5v4.73c0 .43.65.78 1.1.78h.88c.22 0 .4.18.4.4v1.7a.4.4 0 0 1-.4.39h-2.06A2.39 2.39 0 0 1 10 30.65Zm6-.43v-6.43c0-.44.35-.79.79-.79h1c.44 0 .71.35.71.8v5.45c-.03.58.36 1.72 1.79 1.72 1.05 0 1.79-.82 2.21-1.58v-5.6c0-.44.32-.79.71-.79h1.08c.4 0 .71.35.71.8v8.4c0 .45-.32.8-.71.8H23.2c-.4 0-.71-.35-.71-.8v-.23c-.9.81-2.24 1.03-2.93 1.02h-.82A2.76 2.76 0 0 1 16 30.22Zm22-6.43v6.43a2.76 2.76 0 0 0 2.75 2.77h.82c.69 0 2.02-.2 2.93-1.02v.24c0 .44.32.79.71.79h1.08c.4 0 .71-.35.71-.8v-8.4c0-.45-.32-.8-.71-.8H45.2c-.4 0-.71.35-.71.8v5.6c-.42.75-1.16 1.57-2.21 1.57a1.67 1.67 0 0 1-1.79-1.72V23.8c0-.44-.27-.79-.7-.79h-1.01a.79.79 0 0 0-.79.8Z" fill="#EE0017"/></svg>