<!-- by TradingView --><svg width="56" height="56" viewBox="0 0 56 56" xmlns="http://www.w3.org/2000/svg"><path fill="#F0F3FA" d="M0 0h56v56H0z"/><path d="M21 14v3.66c1.1.07 2.23.8 2.23 1.91 0 .68-.77 1.47-1.24 1.9L9.47 31.5A4.03 4.03 0 0 0 8 34.74 4.24 4.24 0 0 0 12.18 39H27v-4H12.18a.39.39 0 0 1-.24-.07.43.43 0 0 1-.14-.2.41.41 0 0 1-.02-.23.37.37 0 0 1 .14-.2l12.56-10.1.02-.01c1.3-1.16 2.5-2.85 2.5-4.62 0-3.03-2.94-5.38-6-5.57ZM35 14v3.66c-1.1.07-2.23.8-2.23 1.91 0 .68.77 1.47 1.24 1.9L46.53 31.5A4.03 4.03 0 0 1 48 34.74 4.24 4.24 0 0 1 43.82 39H29v-4h14.82c.12 0 .2-.03.24-.07.05-.04.1-.1.14-.2a.41.41 0 0 0 .02-.23.37.37 0 0 0-.14-.2L31.52 24.2l-.02-.01c-1.3-1.16-2.5-2.85-2.5-4.62 0-3.03 2.94-5.38 6-5.57Z" fill="#A2674F"/></svg>