<!-- by TradingView --><svg width="56" height="56" viewBox="0 0 56 56" xmlns="http://www.w3.org/2000/svg"><path fill="#F0F3FA" d="M0 0h56v56H0z"/><path fill-rule="evenodd" d="M29 20H14v23h15V20ZM14 30c2.13 7.07 5.47 7.36 8.38 7.62l.14.01c2.35.2 3.97 2.33 4.48 3.37V30H14Z" fill="#242343"/><path fill="#242343" d="M14 17h28v2H14zM42 43H28.22c-.17-.27-.4-.95 0-1.53 2.33-4.01 3.42-2.8 7.88-4.05 3.57-1.01 5.42-5.37 5.9-7.42v13Z"/><circle cx="28" cy="15" r="4" fill="#242343"/><circle cx="28" cy="15" r="2" fill="#FFAF30"/></svg>