<!-- by TradingView --><svg width="56" height="56" viewBox="0 0 56 56" xmlns="http://www.w3.org/2000/svg"><path fill="#F0F3FA" d="M0 0h56v56H0z"/><path d="m20.94 36.8-3.02.97a13.82 13.82 0 0 1-3.43-10.93c.3-2.36 1.1-4.47 2.42-6.32a13.23 13.23 0 0 1 3.35-3.32 12.5 12.5 0 0 1 12.91-.72 11.23 11.23 0 0 0-4.67-.66 11.51 11.51 0 0 0-7.7 3.77 12.29 12.29 0 0 0-3.28 8.86c.1 3.2 1.24 5.99 3.42 8.36Z" fill="#090"/><path d="M40.85 23.44c-.06.05-.08.03-.05-.04.23-.49.38-.93.47-1.32.12-.55.13-1 .02-1.37-.15-.5-.49-.84-1.01-1.04-.41-.15-.91-.2-1.5-.15-.87.07-1.8.26-2.76.56-2.8.89-5.4 2-7.82 3.34a30.5 30.5 0 0 0-5.28 3.73 972.55 972.55 0 0 1-2.6 2.24v-.02c3.33-3.3 6.89-6.2 10.67-8.7.83-.54 1.87-1.14 3.12-1.8a21.04 21.04 0 0 1 4.3-1.7c.65-.17 1.39-.29 2.2-.35.86-.06 1.72.04 2.58.3.26.07.44.17.54.29.16.18.25.4.26.63.03.4-.02.77-.14 1.12a9.49 9.49 0 0 1-2.38 3.8c-.2.19-.4.35-.62.48ZM22.26 37.98a20 20 0 0 1-2.66 1.35c-.96.44-1.97.8-3.03 1.07-1.17.31-2.3.42-3.37.33a5.2 5.2 0 0 1-1.6-.35c-.41-.18-.61-.53-.6-1.03 0-.3.06-.62.17-.98a9.2 9.2 0 0 1 2.96-4.23c.1-.08.13-.06.07.06a5.28 5.28 0 0 0-.52 1.6c-.07.45-.04.85.08 1.2.15.38.4.65.77.82.47.2.99.29 1.55.26a9.15 9.15 0 0 0 1.84-.3l3.02-.97a37.56 37.56 0 0 0 6.17-2.83 31.64 31.64 0 0 0 5.38-3.9 198.66 198.66 0 0 1 2.22-1.93v.03a73.52 73.52 0 0 1-8.86 7.49c-1.03.73-2.23 1.5-3.6 2.31Z" fill="#06F"/><path d="M19.6 39.33a15.85 15.85 0 0 0 2.66-1.35 11.33 11.33 0 0 0 14.85-.6v.02c-.82.97-1.75 1.8-2.78 2.48a12.32 12.32 0 0 1-7.54 2.1c-2.63-.1-5.03-.99-7.19-2.65Z" fill="#090"/></svg>