<!-- by TradingView --><svg width="56" height="56" viewBox="0 0 56 56" xmlns="http://www.w3.org/2000/svg"><path fill="#F0F3FA" d="M0 0h56v56H0z"/><path d="M22 22.85v3.24l-1.02.91h-4.96L15 26.09v-3.24l.95-.85h5.1l.95.85ZM20 23h-3v3h3v-3ZM24 31.85v3.24l-1.02.91h-4.96L17 35.09v-3.24l.95-.85h5.1l.95.85ZM22 32h-3v3h3v-3ZM49 27v-4.14l-.95-.86h-5.1l-.95.86V27h2v-4h3v4h2ZM50 31h-4.94l-1.06.86V36h2v-4h2.45L50 31ZM25 34.98V31h2v4h2v-4h2v4h2v-4h2v3.98L33.9 36h-3.88l-.02-.02-.02.02H26.1L25 34.98Z" fill="#FFC92F"/><path fill-rule="evenodd" d="m33 20.8-2-.8v2h-4.05l-.95.85v3.24l1.02.91h4.96l1.02-.91v-5.3ZM31 23h-3v3h3v-3Z" fill="#FFC92F"/><path d="M41 25v-2.14l-.95-.86h-5.1l-.95.86v3.21l1.02.93h4.96l1.02-.93V26h-5v-1h5Zm-5-2h3v1h-3v-1ZM43 34v-2.15l-.95-.85h-5.1l-.95.85v3.24l1.02.91h4.96l1.02-.91V35h-5v-1h5Zm-5-2h3v1h-3v-1Z" fill="#FFC92F"/><path fill-rule="evenodd" d="M9 29H8v7h2v-2h4.57L16 32.65v-2.3L14.57 29H9Zm5 2h-4v1h4v-1Z" fill="#FFC92F"/><path d="m15 20-2.43 2H8v3h4v-1H8l1.88-1H14v2.87L12.9 27H7.19L6 25.87v-4.82L7.69 20H15ZM23 20l2 .93V27h-2v-7Z" fill="#FFC92F"/></svg>