<!-- by TradingView --><svg width="56" height="56" viewBox="0 0 56 56" xmlns="http://www.w3.org/2000/svg"><path fill="#F0F3FA" d="M0 0h56v56H0z"/><path d="M11 17v.47h1.77c.88 0 1.23.75 1.23 1.68V33.9c0 .92-.35 1.67-1.23 1.67H11V36h12.77L25 32h-.42l-1.02 2.5a1.8 1.8 0 0 1-1.63 1.08h-4.28c-.88 0-1.65-.75-1.65-1.67V19.15c0-.93.77-1.68 1.65-1.68h1.04V17H11Zm14 0v.39h.67c.9 0 1.33.75 1.33 1.68v14.86c0 .93-.42 1.68-1.33 1.68H25V36h6.35v-.39h-.7c-.9 0-1.65-.75-1.65-1.68V27.4c0-.53.64-.75 1.16-.75h9.65c.52 0 1.19.22 1.19.75v6.53c0 .93-.98 1.68-1.89 1.68h-.67V36H45v-.39h-.7c-.9 0-1.3-.75-1.3-1.68V19.07c0-.93.4-1.68 1.3-1.68h.7V17h-6.56v.39h.67c.9 0 1.89.75 1.89 1.68v5.8c0 .53-.67 1.13-1.19 1.13h-9.65c-.52 0-1.16-.6-1.16-1.13v-5.8c0-.93.74-1.68 1.65-1.68h.7V17H25Zm20 21.5H11v.5h34v-.5Z" fill="#211D1E"/></svg>