<!-- by TradingView --><svg width="56" height="56" viewBox="0 0 56 56" xmlns="http://www.w3.org/2000/svg"><path fill="#F0F3FA" d="M0 0h56v56H0z"/><path d="M17.14 22.07a3.42 3.42 0 0 0-3.39 3.47 3.43 3.43 0 0 0 3.4 3.46c1.89 0 3.41-1.55 3.41-3.46a3.45 3.45 0 0 0-3.42-3.47Zm0 6.5c-1.24 0-2.24-1.26-2.24-3.03 0-1.76 1-3.04 2.24-3.04 1.25 0 2.28 1.27 2.28 3.04 0 1.76-1.03 3.03-2.28 3.03Zm-6.24-1.26c-.12 0-1.14 1.02-2.6 1.02-.53 0-.57-.14-.58-.46v-5.22c0-.5.57-.34.57-.53 0-.1-.06-.12-.18-.12H6.19c-.12 0-.19.01-.19.12 0 .19.58.03.58.52v5.64c0 .5-.58.33-.58.52 0 .1.07.2.19.2h3.3c.48 0 .71-.06.9-.42.24-.41.63-1.2.61-1.24 0-.02-.03-.03-.1-.03ZM49.81 22h-1.35c-.12 0-.19 0-.19.1 0 .2.58.03.58.53v4.3a.08.08 0 0 1-.05.06.07.07 0 0 1-.07-.02l-3.98-4.74c-.23-.23-.33-.23-.5-.23h-1.27c-.04 0-.13.04-.13.1 0 .34.92-.09.92 1.42v4.85c0 .5-.58.33-.58.52 0 .1.07.1.19.1h1.35c.12 0 .18 0 .18-.1 0-.19-.58-.03-.58-.52v-4.48c0-.2.01-.29.05-.29.03 0 .15.15.17.17l4.4 5.2a.07.07 0 0 0 .06.03h.3a.1.1 0 0 0 .08-.03.1.1 0 0 0 .03-.07v-6.27c0-.5.58-.34.58-.53 0-.1-.07-.1-.19-.1Zm-10.38 6.44a2.96 2.96 0 0 1-.06-.1v-.02l-2.44-6.25a.1.1 0 0 0-.03-.05.1.1 0 0 0-.06-.02c-.12 0-.14.15-.69 1.35l-2.26 5.06c-.23.5-.63.28-.63.48 0 .06.03.11.09.11h1.46c.12 0 .22.04.22-.13 0-.25-.8-.03-.6-.48.07-.13.68-1.51.68-1.51.1-.18.18-.18.35-.18h1.8c.13 0 .22.01.32.26l.51 1.28v.01c.02.06.08.2.08.24 0 .36-.47.18-.47.41 0 .1.14.1.2.1h2.14c.06 0 .13 0 .13-.1 0-.23-.46-.02-.74-.46Zm-2.26-2.32h-1.55c-.12 0-.13-.04-.07-.18l.8-1.86.04-.03a.08.08 0 0 1 .1.04l.74 1.94v.03a.06.06 0 0 1-.03.05h-.03Zm-6.97-.28a.12.12 0 0 0-.03-.08.11.11 0 0 0-.08-.04h-1.6c-.11 0-.17 0-.17.1 0 .2.68.13.68.63v.82c0 .81-.64 1.3-1.49 1.3-1.78 0-2.33-1.5-2.33-3.19 0-1.57.9-2.88 2.25-2.88 2.18 0 2.37 1.43 2.52 1.44.16 0 .15-.05.15-.13l-.05-1.03c-.02-.15 0-.23-.12-.23-.1 0-.1.2-.21.2-.26 0-.62-.67-2.22-.67a3.36 3.36 0 0 0-3.46 3.48A3.3 3.3 0 0 0 27.35 29c1.62 0 1.89-.64 2.8-.96.02 0 .03-.02.04-.03l.01-.04v-2.13ZM25.14 33.34a2.88 2.88 0 0 0-1.74-1.14l-.02.01-.01.02a.04.04 0 0 0 0 .06c.67.59.84 1.31.91 1.47a.13.13 0 0 0 .19.08c.22-.1.45-.2.66-.33.09-.06.01-.17.01-.17Zm1.68 5.14c-.09.02-.77 1.02-2.09 1.02-.66 0-.73-.24-.73-.71V37.6l.04-.03.01-.02c1.18-1.1 1.62-1.95 1.84-2.06.18-.08.13-.14.07-.14h-1.1a.13.13 0 0 0-.12.06c-.17.3-.37.59-.58.86-.04.05-.16.02-.16-.04v-1.55c0-.1.06-.2.16-.2h2.53c.1 0 .1-.13.02-.2l-.38-.32c-.09-.05-.18 0-.52.15a.85.85 0 0 1-.33.07H22.2a.07.07 0 0 1-.07-.08v-1.44c0-.21.03-.34.14-.42.2-.14.3-.24.06-.24H21.3c-.15 0-.2 0-.2.15v1.96a.07.07 0 0 1-.07.07h-2.3a.07.07 0 0 0-.07.07v.15a.07.07 0 0 0 .02.05.07.07 0 0 0 .05.03h2.3a.07.07 0 0 1 .07.07 7.59 7.59 0 0 1-.58 2.86 6.92 6.92 0 0 1-1.86 2.44c-.15.1-.13.2.05.13a5.57 5.57 0 0 0 3.43-5.29v-.14a.07.07 0 0 1 .07-.08h.72l.05.02.03.06v2.97l-.02.03c0 .01 0 .02-.02.03a11.7 11.7 0 0 1-2.07 1.56s0 .1.16.04c.24-.1 1.04-.37 1.83-.81a.07.07 0 0 1 .07 0l.03.03v.03c.02.43.12 1.57 1.27 1.57h.94c.33 0 .92.03 1.12-.25.2-.3.51-1.13.54-1.2.02-.04.01-.08-.03-.07Zm7.8-2.5c0-.1.04-.2.16-.2h2.32c.1 0 .1-.13.02-.2l-.38-.32c-.1-.05-.15-.02-.51.15-.1.04-.2.07-.31.07h-2.23a.07.07 0 0 1-.07-.07v-2.78c0-.2.02-.32.12-.4.16-.14.24-.23.05-.23h-1.05c-.12 0-.16 0-.16.13v3.27a.07.07 0 0 1-.02.05.07.07 0 0 1-.06.02h-3.14a.07.07 0 0 0-.05.02.07.07 0 0 0-.02.06v.15a.07.07 0 0 0 .07.07h2a.07.07 0 0 1 .05.02.07.07 0 0 1 .02.06c-.09 1.67-.48 3-2 3.85-.13.07-.07.15.02.12a4.73 4.73 0 0 0 2.15-1.3c.47-.5.82-1.08.86-2.54 0-.05 0-.1.03-.14a.13.13 0 0 1 .12-.07h.9a.07.07 0 0 1 .07.05V38.29c0 .3-.02 1.71 1.27 1.71h.83c.33 0 .7-.15.89-.42.2-.3.54-1.16.54-1.2 0-.02-.02-.02-.05-.02-.1.02-.72.9-1.76.9-.74 0-.67-.24-.67-.71v-2.57Zm1.87-3.51h-1.1a.11.11 0 0 0-.11.08A9.52 9.52 0 0 1 34 35.18l.02.02.03.03a.07.07 0 0 0 .07 0 4 4 0 0 0 1.33-1.07c.44-.55.7-1.31.82-1.44a.53.53 0 0 1 .22-.15.05.05 0 0 0 .04-.04v-.04a.04.04 0 0 0-.05-.02Zm-4.48 1.96c-.41-1.33-1.57-1.74-1.94-1.88a.13.13 0 0 0-.09 0l-.05.02a.04.04 0 0 0-.03.03.04.04 0 0 0 .01.03 7.65 7.65 0 0 1 1.24 2.13c.03.12.11.11.15.1l.63-.27a.13.13 0 0 0 .08-.16Z" fill="#673918"/></svg>