<!-- by TradingView --><svg width="56" height="56" viewBox="0 0 56 56" xmlns="http://www.w3.org/2000/svg"><path fill="#F0F3FA" d="M0 0h56v56H0z"/><path d="m26.99 11.06-.96.07a.2.2 0 0 0-.17.2l.28 3.83c.01.1.1.19.2.18l.97-.07c.1-.01.18-.1.17-.2l-.29-3.84a.2.2 0 0 0-.2-.17ZM30.15 11.12l-.97-.1a.2.2 0 0 0-.21.17l-.38 3.85c-.01.1.06.2.17.2l.97.1c.1.01.2-.06.2-.17l.4-3.84a.2.2 0 0 0-.18-.21ZM23.87 11.5l-.77.21a.26.26 0 0 0-.2.33l.95 3.57c.04.14.18.23.32.19l.78-.2a.26.26 0 0 0 .19-.33l-.94-3.58a.26.26 0 0 0-.33-.18ZM33.05 11.74l-.76-.22a.28.28 0 0 0-.34.2l-1.03 3.54c-.04.15.04.3.19.35l.76.22c.15.04.3-.05.34-.2l1.03-3.54a.28.28 0 0 0-.19-.35ZM20.91 12.51l-.7.33a.29.29 0 0 0-.13.38l1.57 3.34c.06.15.23.2.37.14l.7-.33c.15-.07.2-.24.14-.38l-1.57-3.34a.28.28 0 0 0-.38-.14ZM36.01 12.96l-.79-.4a.24.24 0 0 0-.32.1l-1.69 3.35a.24.24 0 0 0 .1.32l.8.4c.11.06.26.01.32-.1l1.69-3.35a.24.24 0 0 0-.1-.32ZM18.17 14.08l-.6.43a.3.3 0 0 0-.07.43l2.12 2.94c.1.13.28.17.42.07l.6-.44a.3.3 0 0 0 .07-.42l-2.11-2.94a.3.3 0 0 0-.43-.07ZM38.54 14.57l-.62-.46a.29.29 0 0 0-.4.05l-2.2 2.93c-.1.13-.07.31.05.4l.62.48c.13.1.3.07.4-.06l2.2-2.93c.1-.13.08-.31-.05-.4ZM18.94 18.55l-2.66-2.57a.27.27 0 0 0-.38 0l-.56.6c-.1.1-.1.27 0 .37l2.67 2.58c.1.1.28.1.38-.01l.56-.59c.1-.1.1-.27 0-.38ZM39.74 16.09l-2.6 2.42a.35.35 0 0 0-.01.49l.45.48c.13.14.35.15.49.02l2.59-2.43a.35.35 0 0 0 .02-.48l-.45-.49a.34.34 0 0 0-.5-.01ZM19.52 26.85a.13.13 0 0 0 .03.1.13.13 0 0 0 .1.05h25.17a.18.18 0 0 1 .17.11l.01.07v1.7c0 .1-.05.12-.16.12h-5.85c-.12 0-.19.1-.2.23a10.75 10.75 0 0 1-15.27 8.63c-2.67-1.26-4.58-3.55-5.7-6.56-.07-.2 0-.3.2-.3h1.7a.5.5 0 0 1 .45.3c2.24 5.08 8.53 6.93 13 3.61 1.86-1.38 3-3.3 3.4-5.76.01-.07-.02-.15-.1-.15H11.2c-.14 0-.19-.03-.19-.17v-1.6c0-.05.02-.1.06-.13.03-.04.08-.1.13-.1h5.88c.08 0 .17.01.23-.05.06-.05.1-.13.12-.22a10.7 10.7 0 0 1 10.2-9.43c1.64-.07 3.24.21 4.78.87 2.73 1.15 4.77 3.48 6.05 6.78.02.03 0 .05-.03.05H36.1c-.04 0-.07-.02-.09-.07a8.46 8.46 0 0 0-7.61-5.5c-1.7-.07-3.3.34-4.8 1.24-2.21 1.33-3.56 3.35-4.08 6.18ZM17.38 20.34l-3.08-2.07a.26.26 0 0 0-.36.07l-.46.68a.26.26 0 0 0 .07.36l3.08 2.07c.12.08.28.05.36-.07l.46-.68a.26.26 0 0 0-.07-.36ZM41.78 18.4l-3.06 1.99a.3.3 0 0 0-.09.4l.41.64a.3.3 0 0 0 .4.1l3.07-1.99a.3.3 0 0 0 .09-.4l-.41-.64a.3.3 0 0 0-.41-.1Z" fill="#ED2018"/><path d="m16.14 22.41-3.43-1.46a.24.24 0 0 0-.32.13l-.34.78c-.05.13 0 .27.13.33l3.43 1.46c.12.06.27 0 .32-.13l.34-.78a.24.24 0 0 0-.13-.33ZM43.34 21.06l-3.42 1.4c-.14.05-.2.2-.15.34l.31.76c.06.14.21.2.34.15l3.43-1.4c.14-.06.2-.21.14-.35l-.3-.76a.26.26 0 0 0-.35-.14ZM15.51 24.98l-.16.71a.31.31 0 0 1-.38.24l-3.53-.82a.31.31 0 0 1-.24-.37l.17-.72a.31.31 0 0 1 .37-.24l3.54.82a.31.31 0 0 1 .23.38ZM44.34 23.92l-3.65.76a.24.24 0 0 0-.2.29l.18.84c.03.14.16.22.29.2l3.66-.77a.24.24 0 0 0 .18-.28l-.17-.85a.24.24 0 0 0-.29-.2Z" fill="#ED2018"/><path d="M12.57 32.42a1.15 1.15 0 1 0 0-2.31 1.15 1.15 0 0 0 0 2.3ZM43.33 32.42a1.17 1.17 0 1 0 0-2.33 1.17 1.17 0 0 0 0 2.33Z" fill="#1D1C1C"/><path d="M42.17 34.72a.23.23 0 0 0-.02.17c.02.06.06.1.1.13l.33.18c.14.09.25.05.32-.1l.5-1.03c.07-.14.17-.17.3-.11h.02c.13.06.16.16.1.3l-.77 1.57a.15.15 0 0 1-.14.08l-.06-.01-2.27-1.15a.17.17 0 0 1-.09-.1.17.17 0 0 1 .01-.13l.75-1.47c.03-.07.09-.11.16-.11h.1c.03 0 .06 0 .08.02l.06.06a.2.2 0 0 1 0 .18l-.49 1.03a.25.25 0 0 0 0 .2.23.23 0 0 0 .13.14l.16.06c.16.06.27.01.33-.13l.38-.81c.03-.06.07-.1.13-.13a.28.28 0 0 1 .17-.02l.08.02a.15.15 0 0 1 .1.08c.02.03.02.05.02.07l-.01.07-.48.94ZM12.87 34.6a.53.53 0 0 0 .47.8c.15-.01.23 0 .26.02.35.37.27.54-.24.52-.46-.01-.8-.32-1.01-.93-.1-.27-.02-.54.21-.84.38-.48.86-.74 1.43-.78.4-.03.7.07.92.29.45.44.66 1.3-.01 1.62a.2.2 0 0 1-.29-.14.2.2 0 0 1 .01-.12l.14-.29c.23-.35-.09-.79-.4-.83-.7-.08-1.2.15-1.5.69ZM40.92 37.06c-.26-.02-.4-.02-.45 0-.13.04-.14.1-.03.16l1.24.8a.2.2 0 0 1 .06.26l-.05.08a.16.16 0 0 1-.17.08.17.17 0 0 1-.07-.02l-2.14-1.37a.2.2 0 0 1-.1-.2c.03-.18.14-.28.33-.3.1-.02.57 0 1.4.04h.44c.13-.04.14-.1.03-.17l-1.24-.79a.2.2 0 0 1-.06-.27l.05-.08a.17.17 0 0 1 .17-.08c.03 0 .05.02.07.03l2.14 1.37a.2.2 0 0 1 .08.09c.01.03.02.07.01.11-.02.18-.13.28-.32.3a15 15 0 0 1-1.4-.04ZM14.2 37.08l.77 1.18a.09.09 0 0 1 0 .1l-.03.02-.24.15a.08.08 0 0 1-.12-.02l-1.05-1.61a.09.09 0 0 1 .02-.12l2.23-1.46a.09.09 0 0 1 .12.02l.98 1.5a.09.09 0 0 1 0 .09l-.18.24a.09.09 0 0 1-.07.03.09.09 0 0 1-.07-.04l-.76-1.15a.09.09 0 0 0-.12-.03l-.41.27a.09.09 0 0 0-.03.12l.65.99a.09.09 0 0 1 0 .1l-.18.24a.09.09 0 0 1-.14 0l-.7-1.07a.09.09 0 0 0-.12-.02l-.53.35a.09.09 0 0 0-.02.12ZM40.95 38.64l-1.9-1.55a.24.24 0 0 0-.34.03l-.02.03c-.09.1-.07.25.03.33l1.9 1.55c.11.08.26.07.34-.03l.02-.03a.24.24 0 0 0-.03-.33ZM16.6 38.34l-1.1 1.09a.2.2 0 0 1-.12.05c-.05 0-.1 0-.13-.03l-.07-.06a.19.19 0 0 1-.07-.2c.01-.03.03-.06.05-.07l1.75-1.76a.19.19 0 0 1 .13-.05c.28 0 .4.16.33.49a7.82 7.82 0 0 1-.5 1.63c-.14.34-.08.38.19.13l1-.99c.07-.06.14-.08.22-.04a.3.3 0 0 1 .16.13c.03.05.07.1.12.14l2.03 1.48c.06.04.13.06.2.05a.3.3 0 0 1 .2.03c.07.04.08.1.04.17l-.78 1.6c-.15.32-.06.56.27.72l.02.01c.32.15.56.07.7-.25l.75-1.56c.06-.14.15-.16.28-.07l.08.06c.1.07.12.16.07.28l-.77 1.59c-.26.54-.67.68-1.2.42l-.21-.1c-.58-.28-.73-.71-.45-1.3l.68-1.4c.02-.04 0-.07-.04-.07-.31-.05-.58-.18-.82-.4-.05-.05-.1-.04-.13.01l-1.25 1.73c-.06.09-.15.11-.24.07a.27.27 0 0 1-.1-.06.33.33 0 0 1-.09-.2c0-.06.01-.13.05-.19l1.2-1.6a.1.1 0 0 0 .02-.06.09.09 0 0 0-.02-.05l-.64-.64c-.07-.07-.14-.07-.21 0a21 21 0 0 1-1.38 1.38c-.14.12-.24.19-.3.19a.35.35 0 0 1-.34-.47c.36-1.02.54-1.6.55-1.76 0-.14-.03-.17-.13-.07ZM38.8 39.52l-.3.3c-.05.07-.05.14.01.2l.63.63c.14.13.14.26.02.38a.26.26 0 0 1-.19.08.25.25 0 0 1-.17-.07l-1.68-1.72a.32.32 0 0 1-.1-.18c0-.08.01-.15.05-.22 0-.01.05-.04.13-.07.1-.03.2.01.3.13l.55.58c.02.01.07-.02.15-.1l.27-.27.27-.27c.08-.08.11-.13.1-.15l-.58-.54c-.11-.11-.16-.21-.12-.3.03-.1.05-.14.07-.15a.37.37 0 0 1 .2-.03c.08 0 .14.04.2.09l1.7 1.68c.04.05.07.11.07.18 0 .07-.02.13-.07.18-.13.13-.25.12-.39-.01l-.63-.64c-.06-.05-.12-.05-.19 0l-.3.29ZM36.11 40.8l.87-.25c.4-.12.72 0 .97.39.2.31.2.62-.03.91-.42.55-.91.73-1.49.55a.38.38 0 0 1-.24-.21l-.06-.13c-.06-.13-.02-.2.13-.2.43.02 1 .22 1.29-.32a.33.33 0 0 0-.19-.46.32.32 0 0 0-.19 0c-.52.14-1.18.44-1.52.12-.75-.73.03-1.51.78-1.66.13-.02.27 0 .39.08.11.07.2.19.25.33.03.08-.07.14-.3.17h-.1c-.33-.08-.57-.02-.74.17-.14.16-.15.3-.03.44a.2.2 0 0 0 .21.07ZM34.62 42.12c.2.15.33.23.38.24.13.04.17 0 .11-.12l-.6-1.34a.2.2 0 0 1 0-.15.2.2 0 0 1 .1-.1l.09-.05a.17.17 0 0 1 .22.09L35.95 43a.2.2 0 0 1 .02.11c0 .04-.02.08-.05.11-.11.13-.25.16-.43.07-.1-.05-.48-.31-1.14-.8-.2-.15-.33-.24-.37-.25-.13-.04-.17 0-.11.12l.6 1.34a.2.2 0 0 1 0 .15.2.2 0 0 1-.1.11l-.1.04a.17.17 0 0 1-.21-.08l-1.04-2.32a.2.2 0 0 1-.01-.12c0-.04.02-.08.05-.1.1-.14.25-.16.42-.08.1.05.48.32 1.14.8ZM32.27 44.52c-.63.15-1.08-.06-1.24-.68-.2-.78-.33-1.36-.41-1.74-.03-.12.02-.2.14-.23l.07-.02a.25.25 0 0 1 .27.1c.02.02.03.06.04.09.17.96.32 1.56.45 1.82.11.22.3.3.58.23.27-.07.4-.22.4-.47 0-.29-.14-.9-.42-1.83a.24.24 0 0 1 .19-.3l.07-.02c.12-.03.2.02.23.14.1.37.24.95.42 1.74.15.62-.16 1.01-.79 1.17ZM24.3 44.28l-.36-1.02c-.04-.1-.02-.16.07-.17.45-.1.7-.35.74-.77.07-.5-.29-.73-.7-.84a34.42 34.42 0 0 1-1.1-.32.16.16 0 0 0-.12.06.16.16 0 0 0-.03.05l-.72 2.35c-.05.18.01.29.2.34l.07.01c.06 0 .11 0 .16-.04a.23.23 0 0 0 .1-.13l.2-.8c.02-.05.05-.1.1-.12.04-.03.1-.05.15-.04a.3.3 0 0 1 .16.07c.04.04.08.09.1.14l.41 1.17c.05.13.13.2.26.23l.13.03c.19.04.25-.02.18-.2Zm-.83-2.52.58.2a.3.3 0 0 1 .18.38l-.07.19a.3.3 0 0 1-.37.18l-.58-.21a.3.3 0 0 1-.18-.38l.07-.18a.3.3 0 0 1 .37-.18ZM26.25 43.01l.65-.77c.1-.1.23-.15.41-.12.02 0 .06.04.1.1.04.02.05.06.05.1 0 .04-.01.08-.04.11-.49.53-.95.93-1.1 1.43-.1.3-.15.59-.17.87a.14.14 0 0 1-.14.13c-.19 0-.31-.05-.38-.15a.22.22 0 0 1 0-.24c.18-.35.31-.74.09-1.17a7.52 7.52 0 0 1-.5-1.24c-.06-.16 0-.23.17-.19l.1.02c.1.03.17.09.21.18l.41.92c0 .02.01.03.03.04a.08.08 0 0 0 .08 0c.01 0 .02 0 .03-.02ZM28.89 42.88a.2.2 0 0 0 .15.16l.86.23c.4.1.62.38.63.82.02.38-.15.63-.49.77-.63.26-1.14.16-1.54-.28a.37.37 0 0 1-.1-.31l.01-.15c.02-.14.09-.17.21-.1.36.23.75.7 1.26.39a.32.32 0 0 0-.08-.6c-.52-.14-1.24-.21-1.36-.66-.28-1 .79-1.28 1.5-1.02.12.04.23.14.3.26.06.12.08.27.05.41-.02.1-.14.1-.35 0a.34.34 0 0 1-.09-.06c-.23-.23-.47-.3-.72-.22-.2.06-.27.18-.24.36Z" fill="#030303"/></svg>