<!-- by TradingView --><svg width="56" height="56" viewBox="0 0 56 56" xmlns="http://www.w3.org/2000/svg"><path fill="#F0F3FA" d="M0 0h56v56H0z"/><path d="M40.31 40.3a5.69 5.69 0 0 1-4.15 1.69l-22.1.01c-.03 0-.05-.01-.05-.04L14 20a6.11 6.11 0 0 1 6-6L41.95 14c.02 0 .04.01.04.04l.01 22.1a5.92 5.92 0 0 1-1.69 4.16Z" fill="#7492D2"/><path d="M35.9 16.78a.22.22 0 0 1-.23.06 4.61 4.61 0 0 0-2.81.12c-.68.25-1.24.63-1.7 1.16-.05.05-.06.1-.05.13.01.04.05.09.1.13l6.4 6.41c.03.03.06.03.08 0 .32-.3.6-.66.85-1.06.74-1.23.88-2.5.4-3.84-.07-.16-.02-.28.13-.34h.01c.15-.08.25-.04.32.11A4.86 4.86 0 0 1 38 25.3a4.92 4.92 0 0 1-3.36 1.21.46.46 0 0 1-.33-.15c-1.6-1.62-3.2-3.23-4.82-4.84-.06-.02-.1-.07-.1-.13a5.11 5.11 0 0 1 3.25-4.89c1-.36 2.04-.4 3.14-.13.11.03.18.07.21.13.04.08.01.17-.1.29Z" fill="#F5F8FC"/><path d="M35.9 16.78c.13.2.13.35-.02.43-.08.05-.19.05-.34.02a4.89 4.89 0 0 0-2.01-.03c-.69.13-1.3.41-1.83.83l-.48.35c-.06-.04-.1-.09-.11-.13-.01-.04 0-.08.05-.13a3.98 3.98 0 0 1 1.7-1.16 4.61 4.61 0 0 1 2.81-.12c.09.02.16 0 .23-.06ZM29.49 21.51l4.82 4.84c.1.1.21.15.33.15 1.3 0 2.43-.4 3.36-1.21a5.34 5.34 0 0 0 1.6-2.5c.03.06.03.14-.02.21a.2.2 0 0 0-.02.12.5.5 0 0 1 0 .19 5.34 5.34 0 0 1-1.07 1.9 4.87 4.87 0 0 1-3.9 1.72.3.3 0 0 1-.25-.14c-.12-.17-.27-.3-.44-.39l-4.38-4.39a1.33 1.33 0 0 0-.1-.25c-.04-.1-.02-.19.07-.25Z" fill="#A5A5A3"/><path d="m29.52 22.01 4.38 4.4c-.09.01-.23 0-.43-.06a5.53 5.53 0 0 1-3.93-3.86l-.02-.48Z" fill="#F5F8FC"/><path d="m26.34 23.08-2.56 2.54c-.05.05-.05.1 0 .14l.1.14 1.47 1.45h.04l2.93-2.93c.07-.07.14-.07.22-.02.1.07.18.16.24.26a.1.1 0 0 1 0 .1.73.73 0 0 1-.17.22l-2.75 2.77c-.04.04 0 .12.1.23l4.1 4.1c.02.03.05.03.07 0l3.03-3.02c.13-.13.26-.13.39 0 .16.16.17.3.02.41l-5.38 5.4c-.05.05-.11.05-.17 0l-6.92-6.94a.6.6 0 0 1-.15-.2.1.1 0 0 1 .03-.13l5.05-5.05a.13.13 0 0 1 .1-.04c.18.01.3.1.34.27.03.1-.01.2-.13.3Z" fill="#DEE1F3"/><path d="m33.47 26.35.36.4v.06a.04.04 0 0 1-.04.02 5.16 5.16 0 0 1-2.44-1.14 4.93 4.93 0 0 1-1.81-3.2 5.53 5.53 0 0 0 3.93 3.86ZM26.34 23.08l.1.08c.08.06.08.13 0 .2L23.9 25.9l-.12-.14c-.04-.05-.04-.1 0-.14l2.57-2.54ZM28.61 24.98c.08.04.14.09.16.15.02.04.01.07-.02.1l-2.78 2.75c-.12-.1-.15-.19-.1-.23.9-.93 1.82-1.85 2.74-2.77ZM33.57 29.47c.13.14.12.29-.04.45l-5.24 5.26c-.2.19-.32.16-.4-.08l-6.95-6.96.16-.21 6.92 6.93c.06.06.12.06.17 0l5.38-5.39Z" fill="#A5A5A3"/><path d="m20.94 28.14 6.96 6.96-.18.23c-.1.11-.22.1-.34-.01a8561.4 8561.4 0 0 0-6.8-6.81l-.16-.18c-.03-.03-.03-.07 0-.11.05-.1.13-.19.23-.24a.1.1 0 0 1 .11 0c.07.04.13.1.18.16Z" fill="#DEE1F3"/><path d="m16.38 29.82-.04.44c-.03.4-.08.4-.13 0l-.02-.52c0-.1-.04-.12-.11-.05l-.34.35a.04.04 0 0 1-.05 0l-.04-.01c-.04-.02-.04-.04-.02-.08l.33-.43c.05-.07.04-.1-.05-.08a.19.19 0 0 0-.1.07c-.03.04-.06.05-.1.05l-.5-.05c-.08 0-.09-.03-.03-.07a.9.9 0 0 1 .41-.16c.27-.02.28-.08.04-.18a6.64 6.64 0 0 1-.69-.38l.02-.03.75.3c.02.01.05 0 .06-.01l.02-.04-.01-.03a8.13 8.13 0 0 1-.42-.46c-.13-.15-.12-.17.04-.05.16.12.3.24.41.36.16.16.2.13.13-.08a9.33 9.33 0 0 0-.21-.57l.04.01.36.63c.07.13.12.12.13-.02l.07-.36c.05-.2.1-.2.11 0v.51c0 .13.03.15.13.06.1-.1.18-.16.22-.18.28-.21.31-.18.1.1l-.24.29c-.03.04-.02.07.04.07.26.01.45.03.57.05.06 0 .11.03.15.06.04.04.03.06-.02.06h-.62c-.1 0-.11.02-.02.07l.67.35c.02 0 .02.02.02.04s-.02.03-.03.04h-.02c-.15-.05-.3-.11-.44-.18-.08-.04-.15-.05-.2-.03-.03.01-.06.05-.1.12a.12.12 0 0 0 0 .11l.27.7c0 .01 0 .02-.02.01h-.04l-.02-.02-.4-.79c-.04-.06-.06-.06-.06.01Z" fill="#F8D234"/><path d="m20.58 28.51 6.8 6.8c.12.13.24.13.34.02.15.12.14.27-.03.46-.08.09-.16.1-.25 0l-6.98-6.97a.16.16 0 0 1-.05-.15c.01-.05.04-.1.09-.12l.08-.04Z" fill="#A5A5A3"/><path d="m26.08 36.91-2.02 2.01c-.04.05-.09.05-.13 0L17.1 32.1a.74.74 0 0 1-.19-.22c-.02-.04-.01-.07.01-.1l2.17-2.16c.04-.04.09-.04.13 0l7 7c.02.02.03.06.01.1a.5.5 0 0 1-.16.2Z" fill="#CFD1ED"/><path d="m16.73 29.74-.03.03a.03.03 0 0 0 0 .05l.67.7h.04l.03-.03a.03.03 0 0 0 0-.05l-.66-.7a.03.03 0 0 0-.05 0Z" fill="#F8D234"/><path d="m16.94 32.26 6.87 6.88-.15.23a.46.46 0 0 1-.17.1.1.1 0 0 1-.1-.02l-6.86-6.84a.58.58 0 0 1-.13-.15.12.12 0 0 1 0-.12c.05-.12.14-.2.26-.25a.1.1 0 0 1 .1.02l.18.15Z" fill="#CFD1ED"/><path d="M26.08 36.91c.08.06.13.11.14.17a.1.1 0 0 1-.02.11l-2.14 2.14a.1.1 0 0 1-.1.03c-.08-.01-.13-.08-.15-.22l-6.87-6.88.17-.16 6.82 6.82c.04.05.09.05.13 0l2.02-2ZM23.66 39.37c.15.2.1.37-.13.51-.06.04-.11.03-.16-.02l-6.95-6.95a.13.13 0 0 1-.04-.1c0-.08.06-.14.15-.2l6.85 6.84a.1.1 0 0 0 .11.03.46.46 0 0 0 .17-.11Z" fill="#A5A5A3"/></svg>