<!-- by TradingView --><svg width="56" height="56" viewBox="0 0 56 56" xmlns="http://www.w3.org/2000/svg"><path fill="#F0F3FA" d="M0 0h56v56H0z"/><path d="M14.21 18H6v18h8.1c.91 0 1.76-.25 2.49-.68H16v-.57h1.37c.15-.14.3-.29.44-.45H16v-.56h2.23c.12-.18.22-.37.3-.56H9v-.57h9.76c.06-.17.1-.34.14-.52H9v-.57h9.98a4.95 4.95 0 0 0 .02-.53H9v-.57h9.95a4.87 4.87 0 0 0-.1-.55H9v-.57h9.66a4.87 4.87 0 0 0-.25-.53H9v-.57h9.05c-.15-.2-.3-.38-.48-.55H15v-.57h1.9a4.9 4.9 0 0 0-.65-.38H15v-.56h1.08c.3-.15.6-.34.86-.56H9v-.57h8.5c.15-.16.27-.34.38-.52H9v-.57h9.17c.07-.17.13-.35.18-.53H9v-.57h9.46l.03-.54v-.01H9v-.57h9.45a4.23 4.23 0 0 0-.06-.36H9v-.57h9.22c-.07-.2-.16-.38-.26-.56H16v-.57h1.59a4.31 4.31 0 0 0-.5-.52H16v-.57h.31a4.26 4.26 0 0 0-2.1-.55Z" fill="#D6B800"/><path fill-rule="evenodd" d="M20.54 24.89c.62-.29 2.43-.87 4.63-.89 2.76-.02 3.8 1.91 3.83 2.53v8.86l-5.77.6c-1.19.09-3.58-.57-3.69-3.84-.13-4.09 4.85-3.82 6.46-3.49v-1.62c-.3-.5-1.8-1.11-5.46.56v-2.71ZM26 30.52v2.88c-1.33.3-4 .49-4-1.2v-.52c.02-.54.86-1.53 4-1.16Z" fill="#500469"/><path d="M30 24.51V36h3v-9.23c2.91-.94 3 .01 3 .6V36h3v-8.94c-.02-.42.09-2.06-1.38-2.8-1.18-.58-5.57-.07-7.62.25ZM40 36V20h3v7.69L46.61 24H50l-5 5.25v.18L50 36h-3.39L43 31.23V36h-3Z" fill="#500469"/></svg>