<!-- by TradingView --><svg width="56" height="56" viewBox="0 0 56 56" xmlns="http://www.w3.org/2000/svg"><path fill="#F0F3FA" d="M0 0h56v56H0z"/><circle cx="28" cy="18" r="3" fill="#A78B51"/><path d="M22.35 20.29c-.46-2.01.97-5.03 1.75-6.29-1.94 1.05-5.81 3.77-5.81 6.29 0 3.14 2.65 3.6 4.65 5.03 1.74 1.26 3.48 3.99 4.06 5.66v-3.14c0-3.78-4.06-5.03-4.65-7.55Z" fill="url(#amaecz5ck)"/><path d="M15.97 27.84c-2.79-1.51-2.71-3.99-2.32-5.03a40.6 40.6 0 0 0 8.12 3.77c3.26 1 3.68 5.45 3.49 7.55-.2-.42-.93-1.64-2.32-3.15-1.75-1.88-3.49-1.26-6.97-3.14Z" fill="url(#bmaecz5ck)"/><path d="M24.1 34.76a5.93 5.93 0 0 0-3.49-3.15 5 5 0 0 1 1.16 3.15 5 5 0 0 1-1.16 3.14c1.86-.5 3.1-2.3 3.49-3.14Z" fill="url(#cmaecz5ck)"/><path d="M13.65 37.9c-2.8-.5-4.26-3.56-4.65-5.03.2 0 1.05.13 2.9.63 2.33.63 3.49 1.89 5.23 2.51 1.4.5 2.52.21 2.9 0-.97.84-3.6 2.4-6.38 1.9Z" fill="url(#dmaecz5ck)"/><path d="M33.65 20.29c.46-2.01-.97-5.03-1.75-6.29 1.94 1.05 5.81 3.77 5.81 6.29 0 3.14-2.65 3.6-4.65 5.03-1.74 1.26-3.48 3.99-4.06 5.66v-3.14c0-3.78 4.06-5.03 4.65-7.55Z" fill="url(#emaecz5ck)"/><path d="M40.03 27.84c2.79-1.51 2.71-3.99 2.32-5.03a40.6 40.6 0 0 1-8.12 3.77c-3.26 1-3.68 5.45-3.49 7.55.2-.42.93-1.64 2.32-3.15 1.75-1.88 3.49-1.26 6.97-3.14Z" fill="url(#fmaecz5ck)"/><path d="M31.9 34.76a5.93 5.93 0 0 1 3.49-3.15 5 5 0 0 0-1.16 3.15 5 5 0 0 0 1.16 3.14c-1.86-.5-3.1-2.3-3.49-3.14Z" fill="url(#gmaecz5ck)"/><path d="M42.35 37.9c2.8-.5 4.26-3.56 4.65-5.03-.2 0-1.05.13-2.9.63-2.33.63-3.49 1.89-5.23 2.51-1.4.5-2.52.21-2.9 0 .97.84 3.6 2.4 6.38 1.9Z" fill="url(#hmaecz5ck)"/><path d="M29.56 35.5c0 .83-.7 1.5-1.56 1.5-.86 0-1.55-.67-1.55-1.5S27.15 34 28 34c.86 0 1.56.67 1.56 1.5Z" fill="#A78B51"/><path d="M28.52 35.48c0 .28-.23.5-.52.5a.51.51 0 0 1-.52-.5c0-.28.23-.5.52-.5.29 0 .52.22.52.5Z" fill="#D9D9D9" fill-opacity=".7"/><circle cx="28" cy="18" r="2" fill="#D9D9D9" fill-opacity=".4"/><circle cx="28" cy="18" r="1" fill="#D9D9D9" fill-opacity=".6"/><path d="M28.5 18a.5.5 0 1 1-1 0 .5.5 0 0 1 1 0Z" fill="#F0F3FA" fill-opacity=".7"/><defs><linearGradient id="amaecz5ck" x1="15.97" y1="20.29" x2="26.29" y2="33.98" gradientUnits="userSpaceOnUse"><stop stop-color="#126479"/><stop offset="0" stop-color="#116D7F"/><stop offset="1" stop-color="#153052"/></linearGradient><linearGradient id="bmaecz5ck" x1="15.97" y1="20.29" x2="26.29" y2="33.98" gradientUnits="userSpaceOnUse"><stop offset="0" stop-color="#116D7F"/><stop offset="1" stop-color="#153052"/></linearGradient><linearGradient id="cmaecz5ck" x1="15.97" y1="20.29" x2="26.29" y2="33.98" gradientUnits="userSpaceOnUse"><stop offset="0" stop-color="#116D7F"/><stop offset="1" stop-color="#153052"/></linearGradient><linearGradient id="dmaecz5ck" x1="15.97" y1="20.29" x2="26.29" y2="33.98" gradientUnits="userSpaceOnUse"><stop offset="0" stop-color="#116D7F"/><stop offset="1" stop-color="#153052"/></linearGradient><linearGradient id="emaecz5ck" x1="40.03" y1="20.29" x2="29.71" y2="33.98" gradientUnits="userSpaceOnUse"><stop stop-color="#126479"/><stop offset="0" stop-color="#116D7F"/><stop offset="1" stop-color="#153052"/></linearGradient><linearGradient id="fmaecz5ck" x1="40.03" y1="20.29" x2="29.71" y2="33.98" gradientUnits="userSpaceOnUse"><stop offset="0" stop-color="#116D7F"/><stop offset="1" stop-color="#153052"/></linearGradient><linearGradient id="gmaecz5ck" x1="40.03" y1="20.29" x2="29.71" y2="33.98" gradientUnits="userSpaceOnUse"><stop offset="0" stop-color="#116D7F"/><stop offset="1" stop-color="#153052"/></linearGradient><linearGradient id="hmaecz5ck" x1="40.03" y1="20.29" x2="29.71" y2="33.98" gradientUnits="userSpaceOnUse"><stop offset="0" stop-color="#116D7F"/><stop offset="1" stop-color="#153052"/></linearGradient></defs></svg>