<!-- by TradingView --><svg width="56" height="56" viewBox="0 0 56 56" xmlns="http://www.w3.org/2000/svg"><path fill="#F0F3FA" d="M0 0h56v56H0z"/><path d="M28.15 47h-1.1c-2.3-.23-4.1-1.46-5.6-3.23-4.42-5.24-5.67-12.2-5.42-18.78 0-.03.02-.06.04-.09.05-.04.08-.03.08.03.11.77.41 2.18.91 4.23.77 3.18 2.42 7.02 5.32 8.74a6.5 6.5 0 0 0 6.07.3c4.12-2.17 6.07-7.94 6.6-12.2.15-1.21.25-2.75.3-4.6.08-4.1-.35-8.43-1.8-12.23-.07-.2-.04-.22.1-.06a24.53 24.53 0 0 1 5.41 10.11 30.65 30.65 0 0 1-.2 15.77c-1.4 5.13-4.53 11.52-10.71 12.01Z" fill="#139579"/><path d="M21.78 26.46c.95 1.66 2.55 3.57 4.55 3.77 4.49.46 7.05-4.36 7.98-7.87.02-.05.05-.07.1-.07.04.01.06.03.06.06.04.59.03 1.13-.02 1.63-.18 1.9-.56 3.76-1.13 5.59-.33 1.08-.71 2-1.13 2.74-1.17 2.06-3.36 4.61-5.94 4.81-5.28.41-7.8-5.08-8.61-9.24-.77-3.87-.68-7.8.28-11.79a15.16 15.16 0 0 1 1.94-4.52c.12-.2.16-.18.12.05-.13.6-.23 1.18-.33 1.76-.71 4.49-.15 9.1 2.13 13.08Z" fill="#168DCF"/></svg>