<!-- by TradingView --><svg width="56" height="56" viewBox="0 0 56 56" xmlns="http://www.w3.org/2000/svg"><path fill="#F0F3FA" d="M0 0h56v56H0z"/><path d="M28 18c4.84 0 9.68.33 14.46 1.1 1.48.25 3.05.57 4.72.97a5.2 5.2 0 0 1 4.18 3.42c.11.28.22.7.33 1.26a17.38 17.38 0 0 1 0 6.5c-.1.56-.22.98-.33 1.27a5.2 5.2 0 0 1-4.18 3.41A82.23 82.23 0 0 1 28 38c-6.44 0-12.91-.56-19.18-2.07a5.2 5.2 0 0 1-4.18-3.42 7.5 7.5 0 0 1-.33-1.26 17.36 17.36 0 0 1 0-6.5c.1-.56.22-.98.33-1.27a5.2 5.2 0 0 1 4.18-3.41c1.67-.4 3.24-.72 4.72-.96C18.32 18.33 23.16 18 28 18ZM6 28c0 .92.09 1.86.26 2.81.12.65.28 1.15.48 1.51a3.5 3.5 0 0 0 2.54 1.83C15.48 35.7 21.62 36 28 36c6.38 0 12.52-.3 18.72-1.86.55-.13 1.28-.28 1.55-.45.55-.33.68-.78 1-1.37.19-.36.35-.86.47-1.51a15.55 15.55 0 0 0 0-5.62 5.25 5.25 0 0 0-.48-1.51 3.5 3.5 0 0 0-2.54-1.83c-3.47-.87-6.7-1.11-10.25-1.42a97.27 97.27 0 0 0-16.94 0c-3.55.3-6.78.55-10.25 1.43a3.5 3.5 0 0 0-2.55 1.82c-.19.36-.35.86-.47 1.51C6.1 26.15 6 27.09 6 28Z" fill="#FF6A39"/><path d="M11 28.34c0 .04.05.13.1.08.38-.42.94-1.07 1.77-1.97a.5.5 0 0 1 .08-.07.34.34 0 0 1 .1-.05h.07a.1.1 0 0 1 .06.03l.7.77c.16.18.16.37 0 .55l-1.33 1.44c-.02.02-.02.04 0 .05l.98 1.04c.11.13.16.03.27.08.1.05.2.11.2.19v1.27c0 .07-.06.13-.1.18a.23.23 0 0 1-.17.07h-.68a.35.35 0 0 1-.26-.12l-1.73-1.93h-.02c-.02-.01-.04 0-.04.03v1.78c0 .13-.2.24-.31.24h-1.1c-.11 0-.21-.11-.21-.23v-5.98c0-.04-.02-.05-.05-.05-.2-.01-.31-.1-.32-.28v-1.2c0-.07.02-.13.07-.18.04-.05.1-.08.17-.08h.54a.4.4 0 0 1 .3.14l.73.86c.05.05.18.13.18.2v3.14ZM15.45 23.88c.26 0 .52.04.78.13.1.04.18.1.22.2.04.08.06.27.06.56 0 .28-.02.47-.06.55a.36.36 0 0 1-.22.2 2.34 2.34 0 0 1-1.56 0 .36.36 0 0 1-.22-.2 1.68 1.68 0 0 1-.06-.56c0-.28.02-.47.06-.55.04-.1.11-.16.22-.2.26-.09.52-.13.78-.13ZM21.5 25.77v4.99a.5.5 0 0 1-.13.35c-.12.12-.19.37-.51.74a.46.46 0 0 1-.15.1.42.42 0 0 1-.18.05h-1.66a2.1 2.1 0 0 1-.73-.1c-.52-.2-.88-.6-1.06-1.17a3.01 3.01 0 0 1-.08-.84v-1.56c0-.35.03-.61.08-.78a1.8 1.8 0 0 1 1.1-1.19c.17-.06.45-.08.83-.08H20c.02 0 0 0 0-.03v-1.09c0-.1.07-.18.15-.26.08-.08.35-.33.74-.76a.43.43 0 0 1 .14-.1.4.4 0 0 1 .16-.04h.59c.05 0 .11.03.15.07.05.05.07.11.07.18v1.09c0 .15-.02.25-.05.3-.06.07-.3.1-.41.09-.03 0-.04 0-.04.04ZM20 30.23v-2.2l-.01-.02-.02-.01h-.9a.51.51 0 0 0-.37.16.6.6 0 0 0-.15.41v1.12c0 .16.06.3.15.4.1.12.24.18.38.18h.89l.02-.01.01-.03ZM46.5 25.77v4.99a.5.5 0 0 1-.13.35c-.11.12-.19.37-.51.74a.46.46 0 0 1-.15.1.42.42 0 0 1-.18.05h-1.66a2.1 2.1 0 0 1-.73-.1c-.52-.2-.88-.6-1.06-1.17a3.01 3.01 0 0 1-.08-.84v-1.56c0-.35.03-.61.08-.78a1.8 1.8 0 0 1 1.1-1.19c.17-.06.45-.08.83-.08H45c.02 0 0 0 0-.03v-1.09c0-.1.07-.18.15-.26.08-.08.35-.33.74-.76a.43.43 0 0 1 .14-.1.4.4 0 0 1 .16-.04h.59c.05 0 .11.03.15.07.05.05.07.11.07.18v1.09c0 .15-.02.25-.05.3-.06.07-.3.1-.41.09-.03 0-.04 0-.04.04ZM45 30.23v-2.2l-.01-.02-.02-.01h-.9a.51.51 0 0 0-.37.16.6.6 0 0 0-.15.41v1.12c0 .16.06.3.15.4.1.12.24.18.38.18h.89l.02-.01.01-.03ZM29.62 30.22c0 .03.01.05.04.05.14 0 .23.04.27.08.04.05.07.13.07.25v1.15c0 .07-.03.13-.07.18a.23.23 0 0 1-.17.07h-.63a.42.42 0 0 1-.3-.13l-.76-.81a.25.25 0 0 1-.07-.18v-6.59c0-.2.1-.29.27-.29h1.11c.06 0 .12.03.17.07.04.05.07.11.07.18v5.97ZM15 27.87c0-.03-.02-.05-.05-.05-.24-.01-.45-.09-.45-.38a4892.25 4892.25 0 0 1 .02-1.29.25.25 0 0 1 .04-.08.22.22 0 0 1 .07-.05.2.2 0 0 1 .09-.02h.6c.1 0 .2.04.27.12l.82.92c.06.07.09.16.09.25v4.42a.3.3 0 0 1-.07.2.24.24 0 0 1-.18.09h-1a.23.23 0 0 1-.18-.08.3.3 0 0 1-.07-.2v-3.85ZM24.95 30.19c.06 0 .06-.02 0-.05l-2.8-1.66a.28.28 0 0 1-.1-.1.31.31 0 0 1-.05-.15V27.2c0-.05.03-.11.08-.2l.12-.17.7-.74a.3.3 0 0 1 .23-.1h3.6c.18 0 .27.1.27.29v1.26c0 .07-.03.13-.07.18a.24.24 0 0 1-.17.08h-2.6c-.03 0-.03.01 0 .03l2.73 1.7c.04.03.06.06.08.1.02.03.03.07.03.1v1a.5.5 0 0 1-.13.33l-.73.8c-.07.07-.15.11-.23.12h-3.66a.24.24 0 0 1-.18-.07.28.28 0 0 1-.07-.2v-1.26c0-.07.03-.14.08-.19a.24.24 0 0 1 .17-.08h2.7ZM35.62 30.2c.16-.03.27.02.33.11.03.05.05.14.05.3v1.1c0 .08-.03.15-.09.2a.3.3 0 0 1-.2.09h-3.5c-.35 0-.62-.03-.83-.1a1.94 1.94 0 0 1-1.27-1.24 3.02 3.02 0 0 1-.1-1v-1.29c0-.48.02-.82.1-1.02.2-.6.62-1.02 1.27-1.25.2-.07.45-.1.78-.1h2.1c.18 0 .32.11.45.24l.77.75c.06.06.09.15.09.25v2.9c0 .04.02.05.05.05Zm-1.92-.04v-2.34h-.03l-1.18-.01a.62.62 0 0 0-.58.39.63.63 0 0 0-.05.24v1.12a.62.62 0 0 0 .62.63h1.19a.03.03 0 0 0 .02 0 .03.03 0 0 0 0-.03ZM38.21 27.81a.02.02 0 0 0-.01 0v3.9a.3.3 0 0 1-.09.2.25.25 0 0 1-.19.08h-1.17a.24.24 0 0 1-.18-.07.28.28 0 0 1-.07-.19v-4.45c0-.03.02-.1.07-.2a.62.62 0 0 1 .11-.15l.78-.81a.36.36 0 0 1 .12-.09c.04-.02.09-.03.14-.03h2.6c.07 0 .13.03.18.08l.88.86c.04.04.07.1.1.18l.02.2v4.43c0 .07-.03.13-.07.18a.22.22 0 0 1-.16.07h-1.22a.22.22 0 0 1-.16-.07.25.25 0 0 1-.06-.17v-3.9c0-.03-.02-.05-.05-.05h-1.57Z" fill="#FF6A39"/></svg>