<!-- by TradingView --><svg width="56" height="56" viewBox="0 0 56 56" xmlns="http://www.w3.org/2000/svg"><path fill="#F0F3FA" d="M0 0h56v56H0z"/><path d="M35.26 13c-1.5-2.96-4.9-1.94-7.35-1.28-4.24 1.66-6.81 4.6-7.7 8.82l.3.03a6.77 6.77 0 0 1 1.93-.4c1.82-.1 3.64-.14 5.46-.09l4.56-.72a8.36 8.36 0 0 0 2.44-2.62c.83-1.3.95-2.55.36-3.73Z" fill="url(#a)"/><path d="M32.46 19.36a11.8 11.8 0 0 1-3.66 2.1c-1.12.4-2.23.82-3.33 1.27-2.28.92-3.5 2.78-3.63 5.57a11.6 11.6 0 0 1-1.6-7.53c0-.1.1-.18.27-.2a6.77 6.77 0 0 1 1.93-.4c3.4-.2 6.64-.28 10.02-.81Z" fill="#028376"/><path d="M20.51 20.57c-.17.02-.26.1-.27.2a11.6 11.6 0 0 0 1.6 7.53l1.06 2.54a.4.4 0 0 1-.03.4c-.4.59-1.03.91-1.92.96-.75.04-1.48-.11-2.17-.44a5.8 5.8 0 0 1-3.33-3.88 5.74 5.74 0 0 1 .31-3.93 5.45 5.45 0 0 1 3.16-2.84c.47-.18.9-.37 1.29-.57l.3.03ZM31 27.5c0 .3-.64.44-1.93.42-.14 0-.23.05-.28.17-.05.11-.02.21.1.29l.7.5c.08.06.12.14.1.23-.01.09-.06.15-.16.18l-.12.05c-.1.04-.2.03-.28-.03l-.88-.63c-.08-.05-.12-.04-.13.06C28 30.24 27.8 31 27.5 31c-.28 0-.49-.75-.62-2.26 0-.1-.05-.11-.13-.06l-.88.63a.29.29 0 0 1-.28.03l-.12-.04c-.1-.04-.15-.1-.16-.2-.02-.08.02-.15.1-.2l.7-.52c.12-.08.15-.18.1-.3-.04-.11-.14-.17-.28-.16-1.29.02-1.93-.12-1.93-.42s.64-.44 1.93-.42c.14 0 .24-.05.28-.17.05-.12.02-.22-.1-.3l-.7-.5c-.08-.06-.12-.13-.1-.22.01-.09.06-.15.16-.19l.12-.04c.1-.04.2-.03.28.03l.88.62c.08.06.12.04.13-.05.13-1.5.33-2.26.62-2.26s.5.75.62 2.26c.01.1.05.1.13.05l.88-.62a.29.29 0 0 1 .28-.03l.12.04c.1.04.15.1.16.19.02.09-.02.16-.1.22l-.7.5c-.12.08-.15.18-.1.3.05.12.14.17.28.17 1.29-.03 1.93.11 1.93.42Z" fill="#00ACA8"/><path d="m31 35.13-4.88.8c2.1-1.03 3.8-2.38 5.1-4.04a7.42 7.42 0 0 0 1.5-5.25 8.13 8.13 0 0 1 3.54 7.03c0 .34-.17.55-.52.61l-4.74.85Z" fill="#063149"/><path d="M29.05 43.7a13.17 13.17 0 0 1-8.21 1.06c-1.71-.3-3.24-.94-4.59-1.9a10.87 10.87 0 0 1-2.82-2.74 6.77 6.77 0 0 1-1.43-3.6.66.66 0 0 1 .28-.59c.2-.14.42-.17.65-.1l3.24 1.18c1.49.33 2.98.43 4.47.32 1.98-.25 3.8-.71 5.48-1.4l4.88-.8 4.74-.85c.35-.06.52-.27.52-.61a8.13 8.13 0 0 0-3.53-7.03c-.3-.5-.33-1.07-.11-1.7.21-.63.69-.86 1.41-.7 2.18.48 3.66 1.59 4.46 3.33.56 1.24.66 2.47.3 3.67a4.7 4.7 0 0 1-2.37 2.8.43.43 0 0 0-.23.34c-.7 4.34-3.08 7.45-7.14 9.32Z" fill="url(#b)"/><defs><linearGradient id="a" x1="22.29" y1="17.61" x2="35.63" y2="17.14" gradientUnits="userSpaceOnUse"><stop stop-color="#00AEAC"/><stop offset="1" stop-color="#5DC0C6"/></linearGradient><linearGradient id="b" x1="13.43" y1="43.75" x2="36.03" y2="37.24" gradientUnits="userSpaceOnUse"><stop stop-color="#00A8BE"/><stop offset="1" stop-color="#00446A"/></linearGradient></defs></svg>