<!-- by TradingView --><svg xmlns="http://www.w3.org/2000/svg" width="56" height="56"><path fill="#0DB14C" d="M0 0h56v56H0z"/><path fill-rule="evenodd" d="M40.19 42c1 0 1.81-.8 1.81-1.78V15.8c0-1-.81-1.8-1.81-1.8H15.82A1.8 1.8 0 0014 15.8v24.42c0 .98.83 1.78 1.82 1.78H40.2zm-6.73-20.83c0-.81-.2-1.57-.52-2.26a6.5 6.5 0 11-4.54-2.85 5.03 5.03 0 00-4.86 5.11 5.04 5.04 0 004.96 5.13 5.04 5.04 0 004.96-5.13zM19.53 39v-2.9s0-.18.11-.06c.16.15 1.23 1.8 1.23 1.8L22.19 36h.25s.05.02.05.15V39h-.48s-.12 0-.12-.18v-1.48l-1.06 1.54-1.03-1.57v1.7h-.27zm3.74 0v-3H25v.4h-.9c-.1 0-.15.12-.15.12v.71c0 .13.07.16.07.16h.64v.3h-.58c-.09 0-.14.11-.14.11v.7c0 .22.11.22.11.22H25V39h-1.73zm2.21-3v3h.28v-1.6l1.75 1.6s.09.03.09-.15v-2.7s0-.15-.1-.15h-.22v1.6L25.63 36h-.15zm4.99 3v-3h.14l1.66 1.6V36h.22c.1 0 .1.16.1.16v2.69c0 .18-.1.15-.1.15l-1.74-1.6V39h-.28zM30 36.3s-.14-.33-.88-.3c-.73.03-.97.21-1.03.67-.07.46 0 1.74 0 1.74s.02.59.39.59h1.29s.36-.06.36-.64c.03-.16 0-1 0-1h-.96v.33h.24v.67c0 .35-.17.35-.28.35-.12 0-.31 0-.31-.33v-1.8c0-.1.12-.16.28-.16h.46c.13 0 .23.06.23.2H30v-.32zm3.18-.3h.6v3h-.6v-3zm1.25 0H35v2.3s-.01.32.3.32c.22 0 .3-.1.3-.31v-2.2s.06-.11.09-.11h.46v2.4c0 .24-.1.57-.46.57h-.85s-.47-.05-.47-.53v-2.33l.06-.11zM22.5 30.56c-2.11.45-3.75.34-3.75.34-1.58 1.2-2.05 2.23-2.13 3.45-.06 1.24 1.55 1.34 3.2.67a25.64 25.64 0 015.3-1.53c1.65-.26 3.74-.44 8.27.76 4.54 1.2 6.86 2.75 6.86 2.75s.21-.39-.14-.95c-.37-.57-1.3-1.7-4.18-3.53-2.87-1.82-4.57-2.39-6.82-2.5-2.26-.1-4.5.07-6.6.54z" fill="#fff"/></svg>