<!-- by TradingView --><svg xmlns="http://www.w3.org/2000/svg" width="56" height="56"><path fill="#003071" d="M0 0h56v56H0z"/><path d="M42 28a14 14 0 01-14 14H14V28a14 14 0 0114-14h14v10.5h-6.94a7.88 7.88 0 00-14.49.88h-5.26l5.05.68a7.84 7.84 0 00-.19 1.06l-4.86.44 4.82.22a7.94 7.94 0 00.02.87l-4.84.66h4.92c.05.26.1.51.17.76l-6.4 1v.43h6.94a7.88 7.88 0 0014.49-.88h5.7l-5.48-.74c.06-.25.11-.5.15-.76l5.33-.25-5.27-.47a8.03 8.03 0 000-.8l5.27-.48-5.33-.24a7.83 7.83 0 00-.17-.85L42 25v3z" fill="#fff"/><path d="M35.43 25.38v-.02.02zm-.94 0H21.51a7 7 0 0112.98 0zm-13.25.8a6.96 6.96 0 00-.17.86l3.87-.35-3.7-.5zM21 27.82a7.1 7.1 0 00.02.71l3.92-.53-3.94-.18zm.12 1.5l.15.6 3.67-.6h-3.82zm.39 1.3a7 7 0 0012.98 0H21.51zm13.27-.86c.05-.2.1-.4.12-.6l-3.4.15 3.28.45zm.21-1.44a7.12 7.12 0 000-.64L31.5 28l3.5.32zm-.09-1.48l-3.4-.15 3.26-.52c.06.22.1.44.14.67z" fill="#fff"/></svg>