<!-- by TradingView --><svg width="56" height="56" viewBox="0 0 56 56" xmlns="http://www.w3.org/2000/svg"><path fill="#F0F3FA" d="M0 0h56v56H0z"/><path d="M23 34h-1v-4.43L20.38 34h-.77L18 29.57V34h-1v-6.5h1.26l1.76 4.83 1.7-4.83H23V34ZM24.59 28.4h-1v-.9h1v.9Zm0 5.6h-1v-5h1v5ZM27.14 34c-1.4 0-2.14-1.2-2.14-2.5s.76-2.5 2.14-2.5c.99 0 1.67.58 1.84 1.55h-.94c-.03-.55-.35-.87-.88-.87-.95 0-1.16.99-1.16 1.81 0 .81.18 1.82 1.16 1.82.5 0 .88-.3.88-.86H29c-.11.95-.93 1.55-1.86 1.55ZM44.97 34c-1.41 0-2.14-1.2-2.14-2.5s.76-2.5 2.14-2.5c.98 0 1.67.58 1.84 1.55h-.94c-.03-.55-.36-.87-.89-.87-.95 0-1.15.99-1.15 1.81 0 .81.18 1.82 1.15 1.82.5 0 .89-.3.89-.86h.96c-.12.95-.93 1.55-1.86 1.55ZM32.24 29.9a1.95 1.95 0 0 0-.6-.06c-.48 0-.9.23-1.27.7V34h-.96v-5h.96v.8c.41-.54.88-.8 1.42-.8.14 0 .28.02.43.05v.86h.02ZM34.2 29c.33 0 .65.06.93.17.27.11.5.29.7.5.2.21.35.47.46.78.11.32.16.66.16 1.04 0 .4-.05.74-.16 1.06-.11.31-.25.57-.45.79-.2.22-.43.38-.71.49a2.4 2.4 0 0 1-1.82 0c-.27-.11-.5-.27-.7-.5-.2-.2-.35-.47-.46-.77-.11-.3-.16-.66-.16-1.05 0-.4.05-.74.16-1.06.1-.31.25-.57.45-.79.2-.22.43-.38.7-.49.28-.12.57-.17.9-.17Zm0 4.3c.2 0 .38-.03.55-.1.16-.08.3-.2.43-.35.12-.16.22-.35.28-.57.06-.22.1-.49.1-.79 0-.3-.04-.57-.1-.79a1.6 1.6 0 0 0-.28-.56 1.25 1.25 0 0 0-.43-.35 1.22 1.22 0 0 0-.55-.11c-.2 0-.39.03-.55.1-.15.09-.3.2-.42.36-.13.15-.2.34-.28.56-.06.22-.1.5-.1.8 0 .3.04.56.1.78.06.22.15.43.28.57.13.16.27.27.42.35.18.07.36.1.55.1Z" fill="#25572A"/><path d="M40 28.3h-2V34h-1v-5.7h-2v-.75h5v.76Z" fill="#25572A"/><path d="M40.5 34c-.34 0-.66-.06-.94-.17a1.96 1.96 0 0 1-.74-.5 2.2 2.2 0 0 1-.47-.78 3.16 3.16 0 0 1-.17-1.06c0-.38.04-.72.15-1.04.11-.31.27-.57.46-.79.19-.2.43-.38.7-.49a2.56 2.56 0 0 1 1.83 0c.27.11.5.29.71.5.2.21.35.47.44.78.11.3.16.66.16 1.04v.2h-3.57c.01.3.06.53.14.73.08.2.19.38.31.5.13.13.27.24.45.3a1.53 1.53 0 0 0 .94.04c.14-.03.27-.1.38-.17.1-.08.2-.16.26-.27a.75.75 0 0 0 .11-.37h.89c-.04.24-.11.46-.24.65-.11.19-.27.35-.44.47-.17.13-.4.22-.63.3-.2.1-.46.13-.72.13Zm1.25-2.95a1.73 1.73 0 0 0-.46-1.02 1.2 1.2 0 0 0-.88-.35c-.35 0-.63.1-.86.33-.24.22-.4.57-.46 1.02h2.66v.02ZM48 29.87c.44-.46.8-.7 1.33-.7 1.12 0 1.67.56 1.67 1.7v3h-1v-2.96c0-.63-.04-1.05-.8-1.05-.44 0-.76.24-1.2.73v3.3h-1v-6.36h1v2.34ZM25.13 17.1s-.14 0-.39.04c-1.08.1-5.57.82-7.65 4.95a11.74 11.74 0 0 0-2.06-4.66l-.3-.43-.39.34s-.12.09-.3.27c-.77.77-3.79 4.02-3.25 8.46-1.47-1.44-3.58-2.22-6.3-2.34L4 23.7v.52l.01.4c.12 1.45 1.04 8.7 8.6 9.29l.43.03.07-.46c.02-.1.2-1.33-.05-2.9l.02-.02c.1-.06 2.21-1.31 3.38-3.75.07.02.42.07.95.07 1.88 0 8.02-.68 8.22-9.27l.02-.52-.52.02Zm-14.4 10.34c1.48 1.9 1.55 4.31 1.5 5.37L5.41 24.8c2.38.27 4.16 1.16 5.31 2.64Zm2.33 1.97 1.75-10.56c1.27 2.12 1.72 4.13 1.34 6a8.09 8.09 0 0 1-3.1 4.56Zm4.35-3.53h-.3l7.51-7.27c-.57 6.54-5.18 7.27-7.21 7.27Z" fill="#25572A"/></svg>