<!-- by TradingView --><svg width="56" height="56" viewBox="0 0 56 56" xmlns="http://www.w3.org/2000/svg"><path fill="#F0F3FA" d="M0 0h56v56H0z"/><path d="M22 19.2v-5.57c0-.4.37-.7.76-.62l8.21 1.6c.6.1 1.03.62 1.03 1.22v16.99c3.85-1.89 7.43-4.97 7.43-9.55 0-3.88-4.26-5.55-6.39-5.9v-.18c3.75-.7 11.5.38 11.5 6.31 0 5.48-7.67 11.17-19.3 12.2v.26c5.17.02 16.57-1.9 20.75-9.74.17 3.2-3.25 9.75-18.2 10.44v.29c3.18.03 10.5-.59 14.36-3.24-.82 1.27-3.94 3.69-10.15 4.2v3.15c0 .52-.43.94-.96.94h-8.08a.95.95 0 0 1-.96-.94V22.7a18.99 18.99 0 0 1 7.68-5.2c-.56.1-2.4.43-5.3 1-1.1.22-1.86.47-2.38.7Z" fill="url(#a)"/><path d="M10 29.46c0 5.54 7.13 6.68 11.14 5.95 0-.22-5.08-.75-5.08-5.95 0-6.3 8.97-10.59 13.46-11.94C21.26 17.27 10 22.54 10 29.46Z" fill="url(#b)"/><defs><linearGradient id="a" x1="34.13" y1="13" x2="34.13" y2="42" gradientUnits="userSpaceOnUse"><stop stop-color="#00A0E3"/><stop offset="1" stop-color="#0D2785"/></linearGradient><linearGradient id="b" x1="19.76" y1="17.51" x2="19.76" y2="35.61" gradientUnits="userSpaceOnUse"><stop stop-color="#FFED07"/><stop offset=".55" stop-color="#EA6200"/><stop offset="1" stop-color="#E50710"/></linearGradient></defs></svg>