<!-- by TradingView --><svg width="56" height="56" viewBox="0 0 56 56" xmlns="http://www.w3.org/2000/svg"><path fill="#F0F3FA" d="M0 0h56v56H0z"/><path d="m28.5 25.38-3.3 3.23c-.5.5-1.3.53-1.82.06a1.13 1.13 0 0 1-.05-1.65c.85-.87 1.7-1.54 2.27-2.1 1.47-1.22 3.67-1 5.4-.61-1.03-.1-2.18.78-2.5 1.07Z" fill="url(#a4a3adp1a)"/><path d="m27.5 30.62 3.3-3.23c.5-.5 1.3-.53 1.82-.06.49.45.51 1.18.05 1.65-.85.87-1.7 1.54-2.27 2.1-1.47 1.22-3.67 1-5.4.61 1.03.1 2.18-.78 2.5-1.07Z" fill="url(#b4a3adp1a)"/><path fill-rule="evenodd" d="M28 44a16 16 0 1 0 0-32 16 16 0 0 0 0 32Zm0-3a13 13 0 1 0 0-26 13 13 0 0 0 0 26Z" fill="#0F162F"/><path d="m36.62 32.16-9.49 9.4L23 42c3.4-3.55 10.09-10.82 10.84-11.52a3.36 3.36 0 0 0 1.16-2.7c0-.97-.3-1.76-.77-2.4-2.27-3.29-4.85-2.63-6.74-2.63.22-.58 1.32-1.75 3.99-1.75C34.8 21 38 24.86 38 27.78c0 2.33-.92 3.89-1.38 4.38Z" fill="#0F162F"/><path d="m19.38 23.84 9.49-9.4L33 14c-3.4 3.55-10.09 10.82-10.84 11.52a3.36 3.36 0 0 0-1.16 2.7c0 .97.3 1.76.77 2.4 2.27 3.29 4.85 2.63 6.74 2.63-.22.58-1.32 1.75-3.99 1.75C21.2 35 18 31.14 18 28.22c0-2.33.92-3.89 1.38-4.38Z" fill="#0F162F"/><defs><linearGradient id="a4a3adp1a" x1="29.52" y1="23.5" x2="23.06" y2="29.04" gradientUnits="userSpaceOnUse"><stop offset=".11" stop-color="#0F1A32"/><stop offset="1" stop-color="#00A264"/></linearGradient><linearGradient id="b4a3adp1a" x1="26.48" y1="32.5" x2="32.94" y2="26.96" gradientUnits="userSpaceOnUse"><stop offset=".11" stop-color="#0F1A32"/><stop offset="1" stop-color="#00A264"/></linearGradient></defs></svg>