<!-- by TradingView --><svg width="56" height="56" viewBox="0 0 56 56" xmlns="http://www.w3.org/2000/svg"><path fill="#F0F3FA" d="M0 0h56v56H0z"/><path fill-rule="evenodd" d="M10.95 27.17c.13-.11.26-.2.41-.28l.06-.01c1.41-.05 2.67-.05 3.76-.02a7.3 7.3 0 0 1 1.51.2c.55.14.87.44.95.9.03.18-.01.57-.14 1.14-.27 1.23-.44 2.1-.51 2.62-.07.45-.1.93.46.92.07 0 .14 0 .2-.02.62-.16 1.2-.3 1.77-.46.29-.08.56-.18.82-.3.11-.05.1-.1-.01-.13l-.1.01c-.27.06-.54.1-.8.14-.4.06-.65-.15-.74-.55a2.36 2.36 0 0 1-.07-.45c0-.58.1-1.3.28-2.17.4-1.84.79-3.68 1.2-5.51.26-1.17.45-1.95.56-2.34.17-.6.4-1.18.72-1.74.05-.1.02-.14-.08-.11-.2.04-.41.1-.65.18-.91.33-1.81.8-2.7 1.4-1.12.76-2.2 1.6-3.26 2.53l-3.77 3.32a163.97 163.97 0 0 0-6.24 6.06c-.43.45-.63 1-.57 1.66.02.25.04.46.07.63.05.28.13.28.23 0 .04-.08.07-.18.1-.28.05-.17.1-.35.18-.5.3-.56.66-1.09 1.1-1.57a80.95 80.95 0 0 1 5.26-5.27Zm2.12-1.78c-.3.27-.57.54-.79.8-.02.03-.01.05.02.05l1.11.1c.96.09 2.01.19 2.91.2a6.09 6.09 0 0 1 1.6.22c.03-.01.04-.03.05-.05a81.96 81.96 0 0 0 1.44-6.4v-.02l-.02-.01a.04.04 0 0 0-.04 0c-.33.19-.66.4-.98.66l-.85.68a193.5 193.5 0 0 0-4.45 3.77Z" fill="#A22D2E"/><path d="M34.15 24.17c0-.1-.02-.17-.07-.22a.06.06 0 0 0-.07-.01.15.15 0 0 0-.05.03.08.08 0 0 0-.02.08c.01.04.06.08.12.1.04.02.04.04.01.06-.07.06-.13.08-.2.06a.6.6 0 0 0-.41.04.06.06 0 0 0-.03.07v.03l.02.01h.67c.03 0 .05-.01.07-.05l.05-.18a.15.15 0 0 1 .07-.08.14.14 0 0 1 .11-.01c.08.02.15 0 .2-.05.02-.02.01-.04-.01-.06a.38.38 0 0 0-.17-.05h-.03a.06.06 0 0 1-.02-.1c.06-.09.07-.15.05-.17-.09-.1-.14-.1-.15.05 0 .08 0 .16.02.24l-.01.04a.61.61 0 0 0-.14.17h-.01Zm-.22-.44c0 .08.02.14.07.14.04 0 .08-.05.1-.12 0-.08-.03-.14-.08-.14-.04 0-.08.05-.09.12Zm-.23.18c-.07-.08-.1-.16-.06-.25.02-.04.04-.05.09-.04h.02a.03.03 0 0 1 .03.05c-.04.12-.01.22.08.3a.04.04 0 0 1 .01.03.04.04 0 0 1-.01.03c-.17.13-.32.11-.44-.04l-.03-.08a1 1 0 0 0 .02-.05c.01-.03.03-.04.06-.01l.14.1.03.02h.02l.04-.03v-.03Zm.9-.17c0 .07.05.12.1.12.04 0 .07-.06.07-.13s-.05-.12-.1-.12c-.04 0-.07.06-.07.13Zm.19.19-.1.06a.07.07 0 0 0 0 .1s.01.02.03.02c.07.02.13 0 .2-.04a.08.08 0 0 0 .03-.07c0-.09.04-.15.12-.2a.06.06 0 0 0 .03-.06c0-.05-.04-.09-.1-.12-.04-.02-.07 0-.06.05.02.16-.05.2-.15.26Zm.42.03c.04.05.09.07.11.05.03-.02.03-.07 0-.12-.04-.05-.1-.07-.12-.05-.03.02-.02.08.01.12Zm-2.02.29c-.04-.02-.05-.08-.02-.15.03-.06.09-.1.13-.08.04.02.04.09.01.15s-.08.1-.12.08Zm1.5.26c.3.02.3-.02.03-.13-.08-.04-.2 0-.37.1-.06.03-.09 0-.07-.1a.17.17 0 0 1 .13-.14c.2-.04.38-.03.53.04.03.01.04 0 .05-.02a.27.27 0 0 0-.01-.18.02.02 0 0 1 0-.02.03.03 0 0 1 .02-.01l.08-.01a.05.05 0 0 1 .05.03v.09l-.04.07a.45.45 0 0 0-.1.42.08.08 0 0 1-.07.1h-.04l-.27-.09a.07.07 0 0 0-.06.01.36.36 0 0 1-.24.08c-.05 0-.07-.02-.05-.08l.01-.04a.12.12 0 0 1 .1-.09l.33-.03Zm.75-.18c-.03 0-.05-.06-.04-.13.02-.06.06-.1.1-.1.03.01.05.07.03.13-.01.06-.05.1-.09.1Zm-.28.11c0 .06.03.1.07.1.04 0 .06-.05.06-.1 0-.06-.03-.1-.07-.1-.04 0-.06.04-.06.1Zm-1.17.27-.02.02h-.02l-.02-.01v-.01c-.03-.13-.08-.2-.15-.2a.1.1 0 0 0-.1.08v.04c0 .04.02.07.06.08.11.02.2.08.29.18a.03.03 0 0 0 .04 0v-.01c.04-.1.08-.16.13-.2.04-.03.04-.07 0-.1l-.04-.04c-.04-.03-.07-.02-.1.01a.31.31 0 0 0-.06.14l-.01.02Zm.58.17c.04.04.1.06.12.03.02-.03 0-.08-.04-.12-.05-.04-.1-.05-.12-.02-.03.02 0 .07.04.11Zm-.25.22c-.04 0-.06-.05-.06-.12 0-.06.02-.12.06-.12.03 0 .05.06.05.12 0 .07-.02.12-.05.12Z" fill="#072A73"/><path d="M34.42 25.32c-.02.04-.06.05-.13.05-.03 0-.05-.02-.04-.06l.02-.05a.3.3 0 0 1 .02-.05c.02-.03.05-.03.07-.01.05.05.07.09.06.12Z" fill="#A22D2E"/><path d="M33.91 31.1c.14.03.29-.04.45-.2a5.7 5.7 0 0 0 .64-.69.09.09 0 0 1 .07 0 .1.1 0 0 1 .03.01l.2.17c.04.03.04.06.01.1a7 7 0 0 1-.97 1.1c-.33.3-.84.51-1.24.36-.3-.12-.45-.4-.42-.82.01-.3.08-.63.19-.97.45-1.4.75-2.32.89-2.8a.76.76 0 0 0 .02-.35.2.2 0 0 0-.1-.13.18.18 0 0 0-.16 0c-.33.15-.62.58-.85.86-.03.05-.08.06-.13.02l-.18-.1c-.05-.04-.05-.07-.02-.12.37-.53.86-1.18 1.5-1.48a.94.94 0 0 1 .5-.05c.73.08.58 1.05.44 1.51a214.4 214.4 0 0 1-.88 2.88c-.08.2-.12.39-.12.54 0 .04.01.08.03.11.03.03.06.05.1.06ZM37.17 27.03l.02.2c.02.13.15.35.37.67l.8 1.13c.43.6.7 1.32.3 2a2.04 2.04 0 0 1-2.28.9c-.47-.15-1.1-.57-.93-1.16a.44.44 0 0 1 .24-.3c.57-.26.81.4 1.07.7.25.3.55.36.9.17.2-.12.3-.34.28-.66 0-.14-.15-.43-.24-.56a16.1 16.1 0 0 0-.74-1.03c-.45-.58-.86-1.38-.52-2.1.18-.38.47-.65.88-.82.78-.32 1.47-.2 2.08.38.08.08.13.2.16.36.03.18 0 .32-.1.43a.46.46 0 0 1-.34.14c-.54.02-.61-.4-.9-.74-.17-.18-.36-.25-.58-.2-.24.06-.4.22-.47.49Z" fill="#0267A7"/><path fill-rule="evenodd" d="M52 28.2v-.66c-.13-.79-.53-1.28-1.2-1.47a2.65 2.65 0 0 0-2 .34 4.65 4.65 0 0 0-2.03 2.8c-.12.45-.15.88-.09 1.29.21 1.43 1.6 1.77 2.75 1.3a3.74 3.74 0 0 0 1.43-1.03A4.7 4.7 0 0 0 52 28.2Zm-2.17 2.57c.28-.43.5-.88.66-1.36.23-.67.82-2.76-.35-2.91-.57-.08-1 .26-1.3.72-.28.43-.5.88-.66 1.36-.22.67-.82 2.76.36 2.91.56.08 1-.26 1.3-.72ZM44.36 26.23a3.4 3.4 0 0 0-1.51.77c-.05.04-.07.03-.05-.04a520.94 520.94 0 0 1 1.15-3.85c-.04-.09-.1-.12-.19-.1-.74.12-1.42.2-2.05.22-.05 0-.08.03-.09.07l-.08.25c-.01.04 0 .07.05.07.2-.01.41.02.62.1.4.15.26.65.17.94l-1.67 5.65-.49 1.63a.04.04 0 0 0 .04.06h.95a.07.07 0 0 0 .07-.05l.77-2.43.01-.01h.02l.7-.1a.09.09 0 0 1 .1.06c.25.71.52 1.47.93 2.1.49.75 1.2.4 1.66-.12.3-.32.54-.7.72-1.12.02-.04.01-.06-.03-.08l-.3-.09c-.03 0-.05 0-.07.03l-.07.1c-.17.28-.38.6-.67.76a.2.2 0 0 1-.21 0 .7.7 0 0 1-.22-.23 7.99 7.99 0 0 1-.71-1.62l.02-.01.02-.01c.67-.17 1.34-.4 1.78-.92.29-.33.42-.92.2-1.35-.28-.57-.97-.79-1.57-.68Zm.03.76c-.47-.08-.9.05-1.28.37a3.13 3.13 0 0 0-.92 1.69.04.04 0 0 0 .04.01 5.75 5.75 0 0 0 1.56-.31c.5-.17 1.1-.53 1.13-1.09.02-.34-.19-.62-.53-.67ZM22.88 27.27l-.01-.02v-.05L24 23.47c.04-.14.05-.27.05-.38 0-.07-.04-.1-.11-.09l-2.09.26c-.06.01-.1.04-.11.1l-.06.17a.07.07 0 0 0 .01.06.06.06 0 0 0 .05.02c.4 0 .92.1.86.63-.02.14-.03.25-.05.31l-1.45 4.9c-.16.52-.23.9-.23 1.15 0 .4.14.74.41 1 .7.62 1.7.44 2.48 0a4.6 4.6 0 0 0 2.35-3.53c.02-.47-.06-.86-.25-1.17-.3-.5-.7-.72-1.22-.7-.68.03-1.3.53-1.72 1.06a.03.03 0 0 1-.03.01h-.01Zm1.27-.17c-.45 0-.84.28-1.08.65a6.42 6.42 0 0 0-.94 2.09c-.1.41-.2 1.06.05 1.39.26.33.7.32 1.06.15.16-.09.32-.21.47-.38a4.73 4.73 0 0 0 1.21-2.58c.09-.58-.06-1.31-.77-1.32ZM28.59 27.27v-.07l1.12-3.73c.04-.14.06-.27.05-.38 0-.07-.04-.1-.11-.09l-2.09.26c-.05.01-.1.04-.11.1l-.05.17a.07.07 0 0 0 .03.08h.03c.4 0 .92.1.85.63-.01.14-.03.25-.05.31l-1.45 4.9c-.15.52-.23.9-.23 1.15 0 .4.14.74.42 1 .68.62 1.7.44 2.48 0a4.6 4.6 0 0 0 2.34-3.53c.02-.47-.06-.86-.25-1.17-.3-.5-.7-.72-1.22-.7-.68.03-1.3.53-1.72 1.06a.03.03 0 0 1-.03.01h-.01Zm1.27-.17c-.44 0-.83.28-1.08.65a6.4 6.4 0 0 0-.94 2.09c-.1.41-.2 1.06.05 1.39.26.33.71.32 1.06.14.16-.08.32-.2.47-.37a4.72 4.72 0 0 0 1.22-2.58c.08-.58-.06-1.31-.78-1.32Z" fill="#0267A7"/></svg>