<!-- by TradingView --><svg width="56" height="56" viewBox="0 0 56 56" xmlns="http://www.w3.org/2000/svg"><path fill="#E2221D" d="M0 0h56v56H0z"/><path d="M20 18h-4v4.01h2.44c.86 0 1.56-.8 1.56-1.77V18Zm-3.99 5h2.19c1 0 1.8.83 1.8 1.84v6.54c0 2.08-2 5.62-6.18 5.62-1.45.04-4.84-.52-6.82-3.1l3.59-2.68A3.36 3.36 0 0 0 13.56 33c1.72 0 2.45-1.58 2.45-2.76V23ZM21 18h7.5a9.5 9.5 0 0 1 8.5 5.25V18h4v15h8v4H37v-5.25A9.5 9.5 0 0 1 28.5 37H21V24.7c0-.94.76-1.7 1.7-1.7H25v10h3.5a5.5 5.5 0 1 0 0-11h-5.8a1.7 1.7 0 0 1-1.7-1.7V18Z" fill="#fff"/></svg>