<!-- by TradingView --><svg width="56" height="56" viewBox="0 0 56 56" xmlns="http://www.w3.org/2000/svg"><path fill="#F0F3FA" d="M0 0h56v56H0z"/><path d="M39.19 16.66a.23.23 0 0 0-.21 0 .25.25 0 0 0-.13.18c-.1.5.1.93.57 1.3.56.43.98.8 1.26 1.14.28.32.22.53-.18.62l-.58.13c-.5.12-.89-.06-1.16-.52a3.9 3.9 0 0 1-.48-2.38.46.46 0 0 0-.12-.34.4.4 0 0 0-.32-.13c-.64.03-.8.65-.97 1.34-.25 1-.53 2.15-2.38 1.86-.37-.05-.4-.19-.09-.4h.02c.93-.63 1.62-1.09 1.73-2.14 0-.14-.05-.2-.2-.2-.78.03-1.25.18-1.4.46l-.67 1.13a.26.26 0 0 1-.1.1.25.25 0 0 1-.27-.03.27.27 0 0 1-.09-.12.7.7 0 0 1 0-.56c.28-.6.35-1.22.22-1.89-.03-.13.02-.19.15-.17.18.03.74-.1 1.69-.4.78-.24 2.32-.3 4.6-.17a4 4 0 0 1 1.06.2l.97.32c.06.02.11.07.14.13a.3.3 0 0 1 .03.2c-.06.33-.12.78-.19 1.33a.98.98 0 0 1-.38.67.34.34 0 0 1-.5-.07.38.38 0 0 1-.06-.18l-.1-.8c-.01-.14-.1-.21-.23-.22a4.1 4.1 0 0 1-1.63-.4ZM28.84 16.04l.1 1.48c.01.3.16.48.43.55 1.41.34 2.48-.07 3.2-1.24.07-.12.05-.21-.07-.28a3.98 3.98 0 0 0-1.69-.65 7.1 7.1 0 0 1-1.54-.2c-.31-.1-.46.01-.43.34ZM28.69 21.2c0 .26.11.34.34.22a3.39 3.39 0 0 1 1.48-.43c.05 0 .1-.02.16-.04.05-.03.1-.07.12-.12l1.02-1.45c.1-.13.06-.2-.1-.23a7.59 7.59 0 0 0-2.74.15c-.19.04-.28.16-.28.36v1.54ZM31.94 21.87l-2.67 1.61c-.39.24-.59.6-.59 1.07v.75c0 .55.22.66.64.35a5.59 5.59 0 0 0 1.9-2.1c.2-.5.48-.93.84-1.3a.21.21 0 0 0 .03-.25l-.05-.1a.07.07 0 0 0-.05-.04l-.05.01ZM32.89 24.57c0 .1.09.26.26.48.06.09.1.2.12.3l.07.57a.4.4 0 0 0 .17.27.35.35 0 0 0 .32.03 3.88 3.88 0 0 0 2.42-2.62.38.38 0 0 0 .01-.17c-.03-.18-.12-.28-.26-.3a.36.36 0 0 0-.26.06c-.95.62-1.83 1-2.65 1.12-.14.02-.2.1-.2.26ZM39.16 23.7c.19 1.08.48 1.84.89 2.3a.77.77 0 0 0 .87.2c.1-.05.2-.1.27-.18l.68-.66c.38-.38.34-.7-.13-.93l-2.11-1.08c-.4-.2-.55-.08-.47.35Z" fill="#2771B1"/><path fill-rule="evenodd" d="M44 40.18c0 .5-.14 1-.32 1.46a3.84 3.84 0 0 1-1.98 2.07c-.45.2-.92.3-1.4.29H15.65c-.48 0-.96-.15-1.4-.34a3.65 3.65 0 0 1-1.97-2.07 3.98 3.98 0 0 1-.28-1.47v-24.3c0-.5.14-1 .32-1.46a3.84 3.84 0 0 1 1.98-2.07c.45-.2.92-.3 1.4-.29h24.65c.48 0 .96.15 1.4.34a3.65 3.65 0 0 1 1.97 2.07c.19.47.28.96.28 1.47v24.3ZM13.52 22.4c-.24.7-.04.87.6.51a10.9 10.9 0 0 1 5.23-1.2c.24 0 .39.12.44.36.07.33.1.67.1 1.03 0 .23-.04.56-.13 1-.2.9-.24 1.76-.13 2.6.05.45.27.58.65.42l.28-.12c.35-.15.52-.42.52-.8v-4.07c0-.12.04-.24.12-.33.07-.1.18-.16.3-.17 1.17-.18 2.53-.16 4.06.08a.49.49 0 0 0 .43-.15.53.53 0 0 0 .15-.44 3.1 3.1 0 0 1 .4-1.98c.42-.7.75-1.31.98-1.86a.48.48 0 0 0-.05-.47.44.44 0 0 0-.19-.15.42.42 0 0 0-.23-.02c-.58.1-1.13-.04-1.67-.2-.38-.1-.75-.2-1.13-.21-.4-.02-1.14-.02-2.24.02a.46.46 0 0 1-.35-.14c-.28-.26-.51-.63-.71-1.12-.18-.42-.45-.58-.84-.48a.37.37 0 0 0-.26.24l-.46 1.15a.37.37 0 0 1-.12.15.34.34 0 0 1-.17.06c-2.13.22-3.75.47-4.86.76-.96.24-1.3-.13-1-1.12l.24-1.2c.14-.45.4-.84.77-1.12.36-.28.8-.43 1.24-.43h12c.06 0 .12.02.16.07.04.04.06.1.06.16V27.5c0 .05-.01.09-.04.12a.15.15 0 0 1-.11.05h-14.4a.17.17 0 0 1-.12-.05.17.17 0 0 1-.03-.06L13 27.5v-9.76l.01-.06a.12.12 0 0 1 .05-.05.1.1 0 0 1 .12.01l1.35.85c.1.08.18.18.22.31.3.95.06 1.78-.55 2.54-.37.46-.6.82-.68 1.06Zm11.3-4.65-2.72-.3c-.57-.06-.9.2-.99.78l-.17 1.1c-.06.43.11.65.53.65h2.96c.13 0 .24-.06.3-.18.3-.45.46-.96.51-1.5a.52.52 0 0 0-.1-.37.48.48 0 0 0-.33-.18Zm-6.2-.03c.15.03.42.04.8.02a.41.41 0 0 1 .32.13c.05.05.08.1.1.17.02.06.02.12.02.19l-.1 1a.65.65 0 0 1-.15.36.6.6 0 0 1-.3.2l-2.81.74a.53.53 0 0 1-.48-.1c-.3-.25-.34-.52-.15-.8.6-.9 1.48-2.16 2.75-1.9Zm24.23 4.24c-.1.35-.25.64-.45.86-.1.1-.2.13-.33.11-.29-.04-1.24-.23-2.28-.58a4.1 4.1 0 0 0-1.33-.15c-.17 0-.25.09-.25.26v3.77c0 .3-.14.5-.43.58l-.22.06c-.45.12-.65-.07-.6-.55l.37-3.64a.54.54 0 0 0-.17-.45.5.5 0 0 0-.46-.12l-3.39.9c-.43.12-.65-.05-.65-.53v-.64c0-.4.18-.62.56-.66 1.74-.22 2.88-.42 3.44-.6.4-.14.66-.51.79-1.12.02-.1.07-.16.17-.18a.22.22 0 0 1 .11 0c.1.02.17.08.2.19l.24 1.03c.03.14.12.21.25.22.9.07 1.64.16 2.2.26a4.7 4.7 0 0 0 2.2-.67.3.3 0 0 0 .13-.12c.02-.05.05-.1.05-.16V17c0-1.15-.13-2.3-.39-2.75-.48-.84-1.52-1.26-2.59-1.25H28.48l-.07.02a.19.19 0 0 0-.1.1v.01l-.01.02v.01l-.01.03V27.5c0 .04.01.08.04.11s.07.05.11.05h14.28a.27.27 0 0 0 .2-.09.3.3 0 0 0 .08-.2V22c0-.07-.02-.09-.1-.09-.03 0-.04.02-.05.05Zm-20.62 7.38a4.2 4.2 0 0 1-.75.62c-.24.11-.54.17-.9.17-.78 0-1.36-.01-1.76-.04-.26-.02-.36.1-.3.37l.04.14c.03.1.08.18.15.24.08.06.17.1.27.1h2.44c.14 0 .2.06.18.2l-.01.15c-.03.27-.17.38-.43.34a3.72 3.72 0 0 0-2.4.34.4.4 0 0 0-.2.32c-.02.26.05.44.23.56.08.06.25.07.49.02.74-.14 1.43-.23 2.07-.27.16-.01.23.06.23.23v.11c0 .09-.03.17-.08.23a.32.32 0 0 1-.2.12l-2.62.34c-.13.02-.22.1-.25.24-.03.12-.02.21.03.27.13.14.3.23.5.26s.4 0 .59-.09a4.49 4.49 0 0 1 1.67-.38c.23 0 .37.1.43.34l.02.1c.05.2-.03.33-.23.36l-2.6.34c-.1.01-.16.08-.16.2v.18a.3.3 0 0 0 .1.22.27.27 0 0 0 .21.07l2.32-.3a.17.17 0 0 1 .13.03.18.18 0 0 1 .06.12l.02.14c.02.13-.04.21-.16.25l-3.02.8a.74.74 0 0 1-.47-.03.78.78 0 0 1-.36-.3.84.84 0 0 1 .01-.93l.52-.74a.38.38 0 0 0-.07-.51l-.94-.72c-.37-.29-.42-.63-.15-1.01l1.16-1.65a.5.5 0 0 0-.09-.66.45.45 0 0 0-.2-.1 7.95 7.95 0 0 0-3.53.11c-.32.09-.44.3-.36.64l.15.6c.09.37.31.51.67.42l1.53-.4c.03-.02.07-.02.1 0a.2.2 0 0 1 .1.06l.04.1-.01.11a7.22 7.22 0 0 1-1.39 2.31.15.15 0 0 0 .03.13l.06.04c.57.22 1.07.27 1.5.15a.25.25 0 0 1 .23.06l.07.1c.02.05.02.1.02.14l-.11 1.1c-.02.17-.1.23-.26.16l-2.53-1.12c-.12-.05-.2-.02-.26.1-.23.43-.2.83.08 1.22.08.12.2.2.33.21l1.66.29c.05 0 .1.02.13.05l.08.1a.3.3 0 0 1-.02.28 4.96 4.96 0 0 1-2.32 1.84.53.53 0 0 1-.51-.06.56.56 0 0 1-.18-.2.58.58 0 0 1-.05-.27v-10c0-.04 0-.09.03-.12a.16.16 0 0 1 .12-.05h14.43c.04 0 .07.02.1.04.02.03.04.07.04.1V39.8a.2.2 0 0 1-.07.15.18.18 0 0 1-.15.04l-.42-.08c-.4-.07-.73-.13-1.25-.09a5.1 5.1 0 0 1-3.43-1 .42.42 0 0 1-.19-.32c-.04-.5.08-.87.36-1.11.18-.15.54-.19 1.09-.1a15 15 0 0 0 1.36.14c.28.01.5-.12.63-.42l.07-.14c.14-.3.05-.46-.28-.46h-2.92c-.03 0-.06 0-.09-.02a.22.22 0 0 1-.07-.06.24.24 0 0 1-.06-.18l.02-.18c0-.08.04-.16.1-.21.05-.06.12-.1.2-.11l2.15-.29a.3.3 0 0 0 .13-.05.33.33 0 0 0 .1-.4c-.1-.21-.31-.33-.64-.35a24.87 24.87 0 0 0-1.86-.1.1.1 0 0 1-.05-.11l.02-.12a.36.36 0 0 1 .11-.22.33.33 0 0 1 .22-.08h1.98c.15 0 .23-.08.26-.23l.12-.78a.4.4 0 0 1 .06-.15.37.37 0 0 1 .12-.12.34.34 0 0 1 .32 0c.37.17.73.18 1.06.03.14-.07.21-.24.2-.52 0-.06-.02-.1-.05-.15a.23.23 0 0 0-.14-.08l-.75-.12a.28.28 0 0 1-.13-.06.3.3 0 0 1-.05-.4l.44-.64a.27.27 0 0 0 .02-.27 1.16 1.16 0 0 0-.28-.35.4.4 0 0 0-.34-.1c-.92.17-1.76.28-2.52.33-.36.02-.54-.25-.53-.8a.23.23 0 0 0-.03-.12.21.21 0 0 0-.1-.08c-.03-.02-.08-.03-.12-.02a.22.22 0 0 0-.11.05Zm14 .18a.4.4 0 0 1 .28-.1c.34.03.52.2.55.5 0 .14-.06.32-.2.53-.26.4-.44.66-.51.79a.57.57 0 0 0-.07.42.57.57 0 0 0 .24.35c.2.12.4.17.62.13a9.37 9.37 0 0 1 3.16.03c.61.1 1.65.03 2.5-.24a.29.29 0 0 0 .2-.3v-3.17c0-.15-.07-.23-.22-.23H28.52c-.16 0-.24.08-.24.25v4.15c0 .14.06.2.2.2 1.93.03 3.28-.1 4.04-.37.95-.34 1.17-1 .66-1.96a.42.42 0 0 1-.01-.35c.13-.33.31-.56.55-.68a.52.52 0 0 1 .55.06c.08.06.14.14.18.24.04.1.05.2.03.3l-.26 1.7c-.05.35.09.53.42.53h.47c.16 0 .32-.06.44-.17.13-.11.2-.27.23-.44l.3-1.9c.02-.11.07-.2.15-.27ZM23.7 31.67c.68-.07 1.2-.32 1.18-.55-.02-.23-.58-.36-1.26-.3-.67.08-1.2.32-1.18.56.02.23.59.36 1.26.29Zm-1.03.99 1.62-.13c.15-.01.27.1.29.25v.03c.01.15-.1.28-.24.3l-1.62.13a.27.27 0 0 1-.29-.25v-.03a.27.27 0 0 1 .24-.3Zm7.23 6.28a.37.37 0 0 0 .14.28.34.34 0 0 0 .3.06l3.67-.98c.2-.06.3.02.34.23.05.36.06.96.01 1.82-.04.87.29 1.4 1 1.6a.32.32 0 0 0 .3-.08.36.36 0 0 0 .12-.3l-.36-3a.3.3 0 0 1 .05-.2c.05-.06.1-.1.18-.11.5-.07.92-.09 1.23-.04 1.45.2 2.6.35 3.45.44.14.01.27-.02.4-.09a.73.73 0 0 0 .28-.3.54.54 0 0 0 .04-.23c0-.22-.1-.34-.3-.36l-5.17-.57c-.06 0-.08-.04-.08-.1v-.13c0-.08.04-.13.12-.12l4.5.18c.1 0 .2-.03.28-.1a.43.43 0 0 0 .15-.24v-.13c-.03-.36-.2-.55-.5-.56l-4.44-.17a.14.14 0 0 1-.08-.02.15.15 0 0 1-.05-.07.14.14 0 0 1 0-.08c0-.03.02-.05.04-.07l.2-.16a2.7 2.7 0 0 1 .17-.13l3.94.42a.66.66 0 0 0 .68-.43.56.56 0 0 0 .01-.22c-.02-.24-.15-.38-.37-.43l-1.9-.39c-2.33-.05-2.33-.24 0-.58a4.5 4.5 0 0 1 2.18.39c.78.3 1.65.03 2.15-.53.26-.3.41-.24.41.16v6.05c0 1.35-.51 2.62-1.66 3.14-.3.13-.73.2-1.31.21h-11.6a.14.14 0 0 1-.1-.04.16.16 0 0 1-.04-.11V34.5c0-.33.11-.38.34-.16.32.31.7.44 1.16.25.76-.31 1.65-.53 2.69-.66a.3.3 0 0 1 .17.03c.06.03.1.07.14.13l.06.12a.26.26 0 0 1-.06.32.23.23 0 0 1-.1.05l-1.74.27c-.28.04-.42.25-.42.64 0 .06.05.15.17.28.1.1.22.15.37.13l2.85-.38c.11-.01.17.04.17.15 0 .06-.04.1-.1.11-.58.2-1.5.43-2.76.7-.33.08-.48.29-.44.64l.02.12c.13.3.35.4.64.31l2.58-.76c.07-.03.14.03.22.15.05.07.07.13.06.18 0 .03-.02.07-.04.1a.16.16 0 0 1-.08.06c-1.24.38-2.31.6-3.2.65-.65.03-1.1.37-1.08 1Zm6-5.35c.04.2-.38.45-.93.56-.55.1-1.03.02-1.06-.18-.04-.2.38-.46.93-.56.55-.1 1.03-.03 1.06.18Zm-14.77 3.44a.2.2 0 0 1 .16.05.22.22 0 0 1 .07.16v1.14c0 .18-.07.21-.2.1l-1.35-1.02c-.19-.15-.17-.24.06-.27l1.26-.16Zm-4.05.47c-.36.83-2.38 3.71-3.53 2.95-.49-.33-.65-.2-.5.38.47 1.65 1.86 2.17 3.43 2.17l11.04.01c.13 0 .2-.07.2-.2V41c0-.2-.08-.24-.23-.1-.77.68-1.57 1-2.4.94-.48-.04-1.19-.4-2.11-1.07a37.18 37.18 0 0 0-5.65-3.36c-.11-.06-.2-.03-.25.1Z" fill="#2771B1"/></svg>