<!-- by TradingView --><svg width="56" height="56" viewBox="0 0 56 56" xmlns="http://www.w3.org/2000/svg"><path fill="#F0F3FA" d="M0 0h56v56H0z"/><path d="M32.49 13.78c-.79.13-1.93.13-3.42.01-1.63-.13-3.28.16-4.96.88a12.25 12.25 0 0 0-3.96 2.84 17.85 17.85 0 0 0-3.7 5.7c-.24.58-.44 1.5-.6 2.77v.06c-.05.33-.28.85-.7 1.55l-2.27 2.68c-.2.23-.33.2-.38-.1-.46-2.66-.13-5.27.98-7.83a15.46 15.46 0 0 1 8.37-8.24 15.55 15.55 0 0 1 10.64-.32Z" fill="#396CAF"/><path d="M32.49 13.78c1.34.37 2.62.99 3.81 1.85 1.04.75 2 1.6 2.87 2.53.06.07.09.16.07.25a.28.28 0 0 1-.17.2l-.68.33c-.36-.34-.87-.92-1.53-1.72a8.65 8.65 0 0 0-3.36-2.49 1.28 1.28 0 0 0-.04-.05 15.97 15.97 0 0 0-4.73-.65c-.65 0-1.23.13-1.73.36-2.14 1-3.91 2.44-5.3 4.34-.51.69-1.03 1.7-1.57 3.04a8.71 8.71 0 0 1-1.24 2.15c-.4.39-.64.65-.71.79l-3.03 2.88a4.86 4.86 0 0 0 .7-1.6c.16-1.28.36-2.2.6-2.77.9-2.2 2.13-4.1 3.7-5.71a12.25 12.25 0 0 1 3.96-2.84c1.68-.72 3.33-1.01 4.96-.88 1.5.12 2.63.12 3.42 0Z" fill="#6080BB"/><path d="M33.46 14.68c-.16.02-.32.02-.5-.02-.93-.24-1.87-.38-2.84-.41-.69-.02-1.34.1-1.95.36a9.8 9.8 0 0 0-4.95 4.65c-.2.4-.55 1.13-1.04 2.2l-4 3.25c.07-.14.3-.4.7-.79a8.71 8.71 0 0 0 1.25-2.15 13.95 13.95 0 0 1 1.57-3.04c1.39-1.9 3.16-3.34 5.3-4.34.5-.23 1.08-.35 1.73-.36 1.62-.02 3.2.2 4.73.65Z" fill="#7A90C4"/><path d="M32.96 14.66c-.6-.06-1.2-.1-1.8-.13-.63-.03-1.2.05-1.71.26a6.84 6.84 0 0 0-2.75 1.93c-.22.26-.56.74-1.01 1.45a12.37 12.37 0 0 1-2.51 2.55l-1 .73c.49-1.06.83-1.8 1.04-2.2a9.8 9.8 0 0 1 4.95-4.64 4.53 4.53 0 0 1 1.95-.36c.97.03 1.91.17 2.84.41Z" fill="#97A5D0"/><path d="M32.96 14.66c.18.04.34.04.5.02l.04.05 1.26.93a5.12 5.12 0 0 0-4.35-.38.38.38 0 0 0-.2.16 9.06 9.06 0 0 0-1.34 3.13 5.16 5.16 0 0 0 .49 3.33c.3.59.88 1.34 1.77 2.26.06.07.06.13 0 .2A5.59 5.59 0 0 1 29 26.1c-.08.04-.15.02-.2-.06l-.77-1.37a17.12 17.12 0 0 0-3.16-4.2c-.25-.25-.5-.35-.77-.29-.15.04-.39.16-.69.39a7.33 7.33 0 0 1-.2.14c1.22-1 2.05-1.85 2.49-2.54.45-.7.79-1.2 1-1.45a6.84 6.84 0 0 1 2.76-1.93c.5-.2 1.08-.3 1.7-.26.6.03 1.21.07 1.81.13Z" fill="#B1BCDE"/><path d="m38.39 18.94-.24.28-1.04.17c-.1 0-.15-.03-.17-.12a5.91 5.91 0 0 0-2.18-3.61l-1.26-.93c1.38.6 2.5 1.43 3.36 2.49.66.8 1.17 1.38 1.53 1.72Z" fill="#97A5D0"/><path d="M34.76 15.66a5.91 5.91 0 0 1 2.18 3.6c.02.1.07.14.17.13l1.04-.17-1.8 1.2a6.3 6.3 0 0 0-1.2 1.02c-.18.2-.5.45-.94.74-.41.26-.72.5-.9.68l-.95.97c-.34.36-.66.66-.98.92-.42.35-.96.8-1.63 1.39-.37.32-.69.37-.96.14-.18-.15-.4-.57-.64-1.26l-.13-.35.78 1.37c.04.08.1.1.19.06a5.59 5.59 0 0 0 2.15-1.74c.05-.07.05-.13-.01-.2a10.37 10.37 0 0 1-1.77-2.26 5.16 5.16 0 0 1-.5-3.33c.18-.95.63-2 1.35-3.13a.37.37 0 0 1 .2-.16 5.12 5.12 0 0 1 4.35.38Z" fill="#CCD3EA"/><path d="M30.53 17.52c.31-1.36 1.16-2.08 2.54-2.15.2-.02.37 0 .52.06.55.23.99.57 1.31 1.04.18.26.25.54.21.83l-.07.9a2.46 2.46 0 0 1-1.55 2.2c-.57.25-1.13.27-1.7.08a1.9 1.9 0 0 1-1.2-1.19 3.01 3.01 0 0 1-.06-1.77Z" fill="#EDF0F8"/><path d="M16.95 31.9a33.54 33.54 0 0 0 3.89 3.2 13.09 13.09 0 0 0 9.76 2.42 11.4 11.4 0 0 0 6.41-3.07 13.07 13.07 0 0 0 3.51-6.18c.27-1 .5-2.02.7-3.05.1-.54.1-1.1-.02-1.67-.27-1.3-.65-2.58-1.15-3.83l3.66-3.08a.15.15 0 0 1 .19-.02l.08.04c.02.02.03.04 0 .06a30.8 30.8 0 0 0-1.95 2.4 3.3 3.3 0 0 0-.64 1.7c-.03.38.09.95.35 1.7l.09.25c.37 1.05.6 1.85.69 2.4.9 5.38-.58 9.94-4.45 13.7-2.72 2.64-6.15 4.02-10.28 4.12-3.78.1-7.17-1.12-10.16-3.65a6.95 6.95 0 0 0-1.65-1.15 2.89 2.89 0 0 0-2.78.38 3.9 3.9 0 0 0-.58.45c-.72.85-.81.79-.29-.2a46.74 46.74 0 0 1 4.62-6.93Z" fill="#396CAF"/><path d="m16.95 31.9 2.6-2.98.2.11c1.25.68 2.13 1.23 2.66 1.63a52.1 52.1 0 0 0 4.95 3.4c.22.13.43.18.6.14a33.7 33.7 0 0 0 4.2-1.1c2.85-.96 4.86-2.64 6.04-5.04.94-1.92 1.41-4.55 1.42-7.89l.43-.45c.5 1.25.88 2.53 1.15 3.83.11.57.12 1.13.02 1.67a41 41 0 0 1-.7 3.05 13.07 13.07 0 0 1-3.5 6.18 11.4 11.4 0 0 1-6.42 3.07c-3.48.52-6.73-.3-9.76-2.43a33.55 33.55 0 0 1-3.89-3.2Z" fill="#6080BB"/><path d="M39.62 20.17c-.01 3.34-.48 5.97-1.42 7.89-1.18 2.4-3.19 4.08-6.04 5.04-1.27.43-2.67.8-4.2 1.1-.17.04-.38-.01-.6-.15a52.1 52.1 0 0 1-4.95-3.4 22.7 22.7 0 0 0-2.86-1.73l1.48-1.52c.91-.12 1.67.1 2.26.64a49.1 49.1 0 0 1 3.56 3.74c.17.2.38.53.62 1l.26.47c.04.21.1.35.2.4.08.06.15.04.2-.04l.57-.89.9-1.03a.5.5 0 0 1 .2-.13c1.46-.6 2.82-1.34 4.08-2.2 1.38-.97 2.5-2.2 3.35-3.73A21.8 21.8 0 0 0 39 20.94a.42.42 0 0 1 .14-.2c.19-.17.3-.35.36-.53 0 .05.03.04.1-.04Z" fill="#7A90C4"/><path d="M39.51 20.2a1.1 1.1 0 0 1-.36.53.42.42 0 0 0-.14.21 21.8 21.8 0 0 1-1.78 4.7 10.88 10.88 0 0 1-3.35 3.71c-1.26.87-2.62 1.61-4.08 2.21a.5.5 0 0 0-.2.13l-.9 1.03c.07-.23.17-.4.3-.51l1.83-2.15c.06-.06.1-.13.13-.21.12-.34.35-.58.67-.72l.07-.07a.35.35 0 0 0 .04-.06.46.46 0 0 1 .14-.2c1.42-1.07 2.46-2 3.13-2.76.9-1.01 1.57-2.18 2.01-3.48l2.5-2.35Z" fill="#97A5D0"/><path d="M37.02 22.56c-.44 1.3-1.1 2.47-2 3.48-.68.77-1.72 1.69-3.14 2.76a.46.46 0 0 0-.14.2.34.34 0 0 1-.04.06.21.21 0 0 1-.07.07c-.32.14-.55.38-.67.72a.68.68 0 0 1-.13.21L29 32.21c.09-.3.23-.55.42-.76a8.88 8.88 0 0 0 1-1.27 61.15 61.15 0 0 1 3.46-4.37c.67-.75 1.71-1.84 3.14-3.25Z" fill="#B1BCDE"/><path d="m27.73 33.25-.26-.47c-.24-.47-.45-.8-.62-1a49.1 49.1 0 0 0-3.56-3.74 2.66 2.66 0 0 0-2.26-.64l2.59-2.16c.24-.2.43-.16.57.12.77 1.5 1.52 3 2.26 4.52.42.85.84 1.97 1.28 3.37Z" fill="#97A5D0"/></svg>