<!-- by TradingView --><svg width="56" height="56" viewBox="0 0 56 56" xmlns="http://www.w3.org/2000/svg"><path fill="#F0F3FA" d="M0 0h56v56H0z"/><path d="m15.27 17.06-3.26 13.76c-.1.49.46.86.87.58 6.44-4.3 12.67-4.44 15.03-3.76-2.26-4.92 1.34-11.16 3.83-14.72.3-.42-.1-1.03-.6-.9l-14.31 3.44c-.78.2-1.38.82-1.56 1.6Z" fill="url(#aonrmoaft)"/><path d="m25.1 43.9 13.01-4.42c.48-.14.52-.82.07-1.05-6.93-3.44-9.67-8.4-10.27-10.8-3.1 4.42-10.24 4.25-14.54 3.88-.52-.05-.85.6-.48.97l10.06 10.87c.56.58 1.39.79 2.15.56Z" fill="url(#bonrmoaft)"/><path d="m43.32 22-10.04-9.44c-.36-.35-.97-.04-.94.46.49 7.74-2.66 12.9-4.43 14.62 5.37.49 8.9 6.37 10.73 10.3.22.47.94.43 1.08-.07l4.2-13.73c.22-.77-.01-1.6-.6-2.14Z" fill="url(#conrmoaft)"/><path d="M27.38 20.63c-.86 2.59 0 6.47.53 7 .54-.35 3-1.93 4.3-5.38 1.28-3.45.53-7.54 0-9.7a26.03 26.03 0 0 0-4.83 8.08Z" fill="#D7DF21"/><path d="M22.6 31.33c2.66-.54 5.12-2.96 5.31-3.7-.58-.28-2.9-1.17-6.52-.57-3.62.6-6.78 3.3-8.64 4.38 2.18.2 7.2.44 9.85-.1Z" fill="url(#donrmoaft)"/><path d="M34.35 30.87c-1.8-2.04-5.7-3.43-6.44-3.23.05.64.9 3.61 3.22 6.46 2.34 2.84 5.9 4.3 7.52 4.3 0-2.15-2.5-5.5-4.3-7.53Z" fill="url(#eonrmoaft)"/><defs><linearGradient id="aonrmoaft" x1="14.49" y1="22.25" x2="27.38" y2="22.25" gradientUnits="userSpaceOnUse"><stop stop-color="#094682"/><stop offset="1" stop-color="#0B88C1"/></linearGradient><linearGradient id="bonrmoaft" x1="31.13" y1="32.48" x2="17.7" y2="39.45" gradientUnits="userSpaceOnUse"><stop stop-color="#FAA61A"/><stop offset="1" stop-color="#C85223"/></linearGradient><linearGradient id="conrmoaft" x1="22.01" y1="22.79" x2="30.1" y2="37.84" gradientUnits="userSpaceOnUse"><stop stop-color="#18A3D8"/><stop offset=".52" stop-color="#D6EDFA"/><stop offset="1" stop-color="#29ACDF"/></linearGradient><linearGradient id="donrmoaft" x1="26.3" y1="23.33" x2="15.03" y2="26" gradientUnits="userSpaceOnUse"><stop stop-color="#D8E02C"/><stop offset="1" stop-color="#E6EB8D"/></linearGradient><linearGradient id="eonrmoaft" x1="15.58" y1="31.05" x2="23.57" y2="39.47" gradientUnits="userSpaceOnUse"><stop stop-color="#D8E02C"/><stop offset="1" stop-color="#E6EB8D"/></linearGradient></defs></svg>