<!-- by TradingView --><svg width="56" height="56" viewBox="0 0 56 56" xmlns="http://www.w3.org/2000/svg"><path fill="#F0F3FA" d="M0 0h56v56H0z"/><path d="m22.79 20-1.38 2.9a.15.15 0 0 1-.06.06c-.02.02-.05.04-.08.04h-5.16c-.05 0-.08 0-.1.04L10 34.94c0 .02-.02.03-.04.04a.1.1 0 0 1-.06.02H6.02a.05.05 0 0 1-.02-.05v-.02L13.57 20h9.23ZM33 20v5.94l-.09.04a.07.07 0 0 1-.04.02h-3.38a.03.03 0 0 1-.02 0 .03.03 0 0 1-.01-.03V23.02a.03.03 0 0 0-.04-.02H27.8a.08.08 0 0 0-.08.05l-5.53 11.83A.2.2 0 0 1 22 35h-3.97a.03.03 0 0 1-.03-.01v-.03L25.57 20H33Z" fill="#2A4070"/><path d="M46.08 20c1.06.18 1.7.69 1.88 1.54.09.4.03 1.04-.17 1.94l-.48 2.24c-.2.95-.42 1.61-.68 1.98a3.6 3.6 0 0 1-2.22 1.48.04.04 0 0 0 0 .04l1.44 5.7c.01.05-.01.08-.07.08h-3.3a.09.09 0 0 1-.08-.06l-1.44-4.84a.14.14 0 0 0-.05-.07.15.15 0 0 0-.1-.03H25.28l-.03-.01a.06.06 0 0 1-.03-.05v-.03l1.35-2.82a.15.15 0 0 1 .14-.09h15.37c.46 0 .8-.04 1.02-.15.46-.24.72-1.12.85-1.65.12-.5.44-1.1.26-1.63-.16-.47-.56-.57-1.05-.57h-2.63c-.05 0-.08 0-.1.05l-.68 2.86a.1.1 0 0 1-.03.06l-.06.03H35.9l-.01-.01-.02-.01a.04.04 0 0 1 0-.04L37.15 20h8.93Z" fill="#2A4070"/><path d="m13.48 29.92 1.32-2.89.02-.02.03-.01H19.28l.02.03a.06.06 0 0 1 0 .05L18 29.97l-.02.02-.03.01H13.5l-.02-.03a.06.06 0 0 1 0-.05Z" fill="#D4583B"/><path d="M32.94 31h-3.32a.07.07 0 0 0-.07.06v3.79c0 .03.04.15.07.15h3.27c.04 0 .11 0 .11-.03v-3.88c0-.03-.03-.09-.06-.09ZM37.74 35h-3.76a.07.07 0 0 1-.05-.02.06.06 0 0 1-.01-.05l1.1-3.88c0-.01 0-.03.02-.04h3.8a.06.06 0 0 1 .05.01l.01.03v.03l-1.1 3.87c0 .02 0 .03-.02.04a.06.06 0 0 1-.04.01Z" fill="#2A4070"/></svg>