<!-- by TradingView --><svg width="56" height="56" viewBox="0 0 56 56" xmlns="http://www.w3.org/2000/svg"><path fill="#F0F3FA" d="M0 0h56v56H0z"/><path d="M20.89 23.95c-1.58.15-3.57.38-4.87-.84a3.11 3.11 0 0 1-.99-2.25c-.04-1.18-.04-3.03 0-5.54.02-.74.2-1.41.74-1.84.14-.11.26-.11.36 0 .05.06.09.15.1.28a26.47 26.47 0 0 1-.02 4.36.1.1 0 0 0 .08.06.1.1 0 0 0 .05 0c.23-.07.41-.18.66-.18h3.9c.08 0 .1-.12.1-.2.02-1.66-.18-3.56-.31-4.95-.07-.79.18-1.87 1.17-1.85.52.01.6.95.52 1.32-.15.74-.2 1.28-.15 1.62a19.7 19.7 0 0 1 .19 3.96.16.16 0 0 0 .08.09l.06.01h4.04a.19.19 0 0 0 .18-.2c-.02-.68.1-1.47 0-2.15-.07-.5-.13-1.01-.18-1.52-.04-.34-.1-.53.3-.64.22-.06.41-.06.6-.01a.15.15 0 0 1 .09.08c.18.46.3.92.38 1.4.1.68 0 1.45-.08 2.2-.11 1.03.2 1.99.07 3-.25 1.99-1.31 3.22-3.19 3.69-.7.17-1.55.13-2.33.14-.05 0-.08.03-.08.08a29.9 29.9 0 0 0-.06 4.5c.03.61.04 1.82.02 3.61 0 .97-.2 2 .1 3.13a.2.2 0 0 1-.01.13c-.11.3-.64 1.32-1.05.7-.13-.2-.36-.45-.36-.7V24.04l-.02-.04a.1.1 0 0 0-.1-.05Z" fill="#241714"/><path d="M16.32 19.42h4.58a.14.14 0 0 1 .1.03.13.13 0 0 1 .03.1v2.89c0 .1-.04.15-.14.15l-2.44-.01c-.44 0-.79-.06-1.03-.16-1.07-.48-1.33-1.72-1.3-2.8 0-.06.02-.1.06-.14a.21.21 0 0 1 .14-.06ZM26.84 19.48c.47 2.64-2.32 3.24-4.32 3.1a.08.08 0 0 1-.05-.02.07.07 0 0 1-.03-.05l-.02-2.97a.08.08 0 0 1 .03-.07.1.1 0 0 1 .06-.02l4.26-.02c.04 0 .06.02.07.05Z" fill="#E7340C"/><path d="M34.04 44c-2.01-.03-3.65.03-5.5-.57a2.51 2.51 0 0 1-1.79-1.88 13.7 13.7 0 0 1-.6-2.94c-.08-1.15-.17-2.3-.17-3.44v-7.58c0-1.36.13-3.3 1.2-4.26.22-.2.56-.36 1.02-.49 1.58-.44 3.06-.5 4.88-.62 1.63-.1 3.64-.06 5.1.53.44.18.77.48.95.96.77 2.01.93 3.94.82 6.05-.04.64-.04 1.22-.03 1.76.06 1.68.09 3.36.08 5.04a11.55 11.55 0 0 1-1.17 5.65c-.48.99-1.2 1.37-2.29 1.57-.83.16-1.66.23-2.5.22Zm3.92-19.09c.04.15 0 .3-.09.42a3.63 3.63 0 0 1-3.26 1.44.16.16 0 0 0-.11.03c-.2.18-.27.73.13.7.53-.02 2.93.07 2.82.93 0 .06-.03.11-.08.15a.25.25 0 0 1-.16.07c-.79.05-1.55.07-2.3.06a.55.55 0 0 0-.38.14.16.16 0 0 0-.05.11c-.05.68 0 1.25.3 1.88l.52 1.01c.02.05.06.05.09.01.63-.8 1.33-1.69 2.1-1.88a.3.3 0 0 1 .36.2l.24.63a.3.3 0 0 1-.17.38c-.8.3-1.39.84-1.77 1.61a.45.45 0 0 0-.03.35 4.81 4.81 0 0 0 2.39 2.78.1.1 0 0 0 .08-.07.1.1 0 0 0 0-.06c-.07-.21-.1-.44-.1-.68-.01-.8 0-1.6.06-2.4.06-1.14.03-2.1-.02-3.15a22 22 0 0 1 .07-2.95c.2-2.5-1.8-2.73-3.6-2.97a15.73 15.73 0 0 0-5.66.43c-.36.08-.7.2-1.03.37-1.48.73-1.09 2.42-1.07 3.73 0 .34.01.67.03 1 .06 1.46-.3 2.88-.25 4.34.06 1.81.22 3.62.47 5.42.15 1.06.4 2.55 1.42 3.09.43.23.93.4 1.51.5 1.51.26 3.04.37 4.57.32 1.45-.05 2.71-.58 3.17-2.1a12 12 0 0 0 .48-3.89.12.12 0 0 0-.1-.06c-.02 0-.04 0-.06.02-1.01.56-2.3-1.2-2.73-1.98-.02-.04-.05-.04-.08-.01-.24.24-.35.5-.33.77.06.8.1 1.62.12 2.44.03 1.04.7 2.32.8 3.55.02.27-.12.52-.38.57-.75.13-1.33-1.95-1.47-2.48a5.07 5.07 0 0 1-.13-1.27c.02-1.62-.07-3.09.3-4.7.1-.44-.04-.52-.2-.9a12.8 12.8 0 0 1-1.02-3.68c-.04-.32-.2-.45-.5-.38a17.5 17.5 0 0 1-3.26.46c-.5.02-1.57 0-1.37-.84.11-.43.9-.71 1.24-.67 1.2.13 2.38.23 3.55-.09.2-.05.3-.16.3-.32-.01-.63-.74-3.77.38-3.56.72.13.6 1.4.58 1.93a.2.2 0 0 0 .09.17.19.19 0 0 0 .19.01c.91-.46 1.9-.79 2.93-.99.14-.02.26-.03.37-.02.05 0 .08.03.1.08Z" fill="#241714"/><path d="M37.86 24.83c-.1-.01-.23 0-.37.02a11.07 11.07 0 0 0-3.03 1.01.19.19 0 0 1-.16-.1.2.2 0 0 1-.02-.1c.02-.52.14-1.8-.58-1.93-1.12-.2-.39 2.93-.38 3.56 0 .16-.1.27-.3.32a9.46 9.46 0 0 1-3.55.09c-.35-.04-1.13.24-1.24.67-.2.84.87.86 1.37.84a17.5 17.5 0 0 0 3.26-.46c.3-.07.46.06.5.39.19 1.39.52 2.62 1.01 3.68.17.37.31.45.2.9-.36 1.6-.27 3.07-.29 4.7 0 .5.04.92.13 1.26.14.53.72 2.6 1.47 2.48.26-.05.4-.3.38-.57-.1-1.23-.77-2.51-.8-3.55-.02-.82-.06-1.63-.12-2.44-.02-.27.09-.53.33-.77.03-.03.06-.03.08.01.42.78 1.72 2.54 2.73 1.98a.12.12 0 0 1 .16.04l.02.06a12 12 0 0 1-.5 3.83c-.46 1.52-1.72 2.05-3.17 2.1-1.53.05-3.06-.06-4.57-.33a5.17 5.17 0 0 1-1.51-.49c-1.03-.54-1.27-2.03-1.42-3.09a51.3 51.3 0 0 1-.47-5.42c-.05-1.46.3-2.88.25-4.33l-.03-1c-.02-1.32-.4-3.01 1.07-3.74.33-.16.68-.29 1.03-.37 1.84-.45 3.78-.67 5.66-.43 1.8.24 3.8.47 3.6 2.97a22 22 0 0 0-.07 2.95c.05 1.06.08 2 .02 3.15-.05.8-.07 1.6-.06 2.4 0 .24.03.47.1.68a.1.1 0 0 1-.03.1.1.1 0 0 1-.11.02 4.81 4.81 0 0 1-2.33-2.77.45.45 0 0 1 .03-.35c.38-.77.98-1.3 1.77-1.61a.29.29 0 0 0 .16-.16.3.3 0 0 0 0-.22l-.23-.64a.3.3 0 0 0-.35-.19c-.78.2-1.48 1.07-2.11 1.88-.03.04-.06.04-.1 0l-.5-1.02a3.4 3.4 0 0 1-.3-1.94.16.16 0 0 1 .04-.05c.1-.09.23-.14.38-.14.75 0 1.51-.01 2.3-.06.06 0 .12-.02.16-.07.05-.04.08-.1.08-.15.1-.86-2.29-.95-2.82-.92-.4.02-.34-.53-.13-.7a.16.16 0 0 1 .1-.04c1.35.09 2.43-.4 3.27-1.44.1-.13.13-.27.09-.42-.02-.05-.05-.08-.1-.08ZM30.7 35.95c1.17 0 2.79-.36 2.95-1.83.09-.76.04-2.47-.67-2.97-1.1-.76-3.5-.57-4.35.55-.48.63-.56 1.23-.4 2.04.17.82.2 1.75 1.1 2.07.27.09.73.14 1.37.14Z" fill="#E7340C"/><path d="M29.33 35.8c-.9-.31-.93-1.24-1.1-2.06-.16-.8-.08-1.41.4-2.04.84-1.12 3.26-1.31 4.35-.55.71.5.76 2.2.67 2.97-.16 1.47-1.78 1.83-2.95 1.83-.64 0-1.1-.05-1.37-.14Zm.14-2.5c.16.4.3.76.4 1.08a.6.6 0 0 0 .23.31c.1.08.24.12.37.1.29 0 .58-.03.89-.06.74-.07 1.09-.3 1.17-1.06.08-.7.1-1.23-.7-1.34l-1.33-.19c-.48-.06-.58.04-.86.38-.22.27-.28.53-.17.78Z" fill="#241714"/><path d="M29.47 33.3c-.1-.25-.05-.5.17-.78.28-.34.38-.44.86-.38l1.33.19c.8.11.78.64.7 1.34-.08.76-.43 1-1.17 1.06l-.9.07a.6.6 0 0 1-.36-.1.6.6 0 0 1-.23-.32c-.1-.32-.24-.68-.4-1.08Z" fill="#E7340C"/><path d="M33.7 38a.26.26 0 0 1 .18.06l.05.08.02.08v.19c0 .07-.02.14-.05.2a.56.56 0 0 1-.15.18.75.75 0 0 1-.23.12c-.09.03-.18.09-.27.09h-4.29a.83.83 0 0 1-.5-.16.5.5 0 0 1-.21-.38v-.23a.21.21 0 0 1 .06-.16.24.24 0 0 1 .17-.07h5.23Z" fill="#1A1311"/></svg>