<!-- by TradingView --><svg width="56" height="56" viewBox="0 0 56 56" xmlns="http://www.w3.org/2000/svg"><path fill="#F0F3FA" d="M0 0h56v56H0z"/><path d="M43 13H13v30h30V13ZM14 36c3-6.67 10.6-20 17-20 1.5 0 4.6.8 5 4 .4 3.2-1.5 5-2.5 5.5 2.17.17 6.7-.1 7.5-2.5 0 1.33-1.5 4-7.5 4 1.5.5 4.5 2.1 4.5 4.5 0 3-7 4.5-13 4.5h-6v-1h6c3.83 0 11.5-.5 11.5-3.5 0-1.5-1.7-3.5-6.5-3.5s-12 7-15 11c1-2 4.2-6.6 7-9 3.5-3 6-4 7.5-4.5S34 23.51 34 21c0-2.5-1-3-3-3-5.36 0-11.2 9.02-16.58 17.35L14 36Z" fill="#2DAD40"/></svg>