<!-- by TradingView --><svg width="56" height="56" viewBox="0 0 56 56" xmlns="http://www.w3.org/2000/svg"><path fill="#F0F3FA" d="M0 0h56v56H0z"/><path d="M17.42 21.68c-.3-.14-.6-.27-.9-.38-.2-.08-.38-.18-.54-.3-.2-.18-.38-.3-.54-.38a31.6 31.6 0 0 1-1.77-.97c-.24-.15-.34-.41-.46-.65h2.92c.08 0 .16.02.23.07a.4.4 0 0 1 .15.19l.9 2.42Z" fill="#D99B5A"/><path d="M28.25 19c-.42.4-.75.87-.98 1.32a.22.22 0 0 0 .04.26L28.67 22l.05 3.02-3.15-.49v-2.2l-.01-.13c-.05-.11-.06-.2-.18-.2H21.2c-.11 0-.22-.13-.21-.25v-2.57c0-.04.02-.08.05-.1.03-.04.07-.08.1-.08h7.1Z" fill="#5C84C2"/><path d="M31.53 19c0 .19.05.32.14.36.33.15.46.5.63.69.36.4.72.82 1.07 1.25a.2.2 0 0 0 .14.07l.6.05c-.4-.1-.72.12-.94.58h-4.5l-1.36-1.43a.22.22 0 0 1-.04-.25c.23-.45.56-.92.97-1.32h3.3Z" fill="#83A5D5"/><path d="M37.27 22.3c-.27-.17-.47-.4-.61-.7a.23.23 0 0 0-.11-.12.58.58 0 0 0-.48-.03l-.11-.04a.58.58 0 0 0-.34-.22c-.25-.07-.41-.27-.66-.38-.46-.2-.75-.35-.88-.43a5.83 5.83 0 0 0-.78-.4 4.4 4.4 0 0 1-.77-.43l-.4-.22c-.13-.06-.26-.21-.37-.33h4.1a.3.3 0 0 1 .28.2l1.13 3.1Z" fill="#D26E7B"/><path d="m48.8 21.82-.42-.36a.2.2 0 0 0-.15-.06 3.34 3.34 0 0 1-1.71-.34c-.2-.09-.37-.1-.52-.02a.1.1 0 0 0-.07.1.6.6 0 0 0 0 .06c0 .06.04.1.11.1.2-.02.36.02.5.1.54.27.98.67 1.33 1.17.03.05.07.08.13.1l.44.11-1.17 2.86c-.1.05-.2.02-.27-.1a.36.36 0 0 0-.28-.18c-.71-.06-1.45-.18-2.22-.34-.06 0-.14.02-.25.08-.05.03-.09.03-.1 0a.28.28 0 0 1-.05-.11l2.15-5.85a.2.2 0 0 1 .08-.1c.03-.02.07-.04.11-.04h3.35c.2 0 .26.1.17.28l-1.17 2.54Z" fill="#D7588B"/><path d="M13.21 19c.12.24.22.5.46.65.64.37 1.23.7 1.77.97.16.08.34.2.54.37.16.13.34.23.54.3l.9.39.2.5c-.23.06-.4.13-.5.22a7.3 7.3 0 0 0-.6 1.38.1.1 0 0 1-.09.07h-.07l-1.31-.57a1.5 1.5 0 0 0-.76-.48c-.8-.33-1.55-.74-2.25-1.22l.94-2.49c.02-.05.06-.1.12-.09h.11Z" fill="#A97A45"/><path d="M31.76 19c.11.12.24.27.37.33l.4.22c.27.19.53.33.77.43.33.15.59.28.78.4.13.08.42.23.88.43.25.1.41.3.66.38.14.04.26.11.34.22H34.1l-.6-.04a.2.2 0 0 1-.14-.07c-.35-.43-.7-.85-1.07-1.25-.17-.2-.3-.54-.63-.69-.1-.04-.14-.17-.14-.36h.23Z" fill="#5C84C2"/><path d="m48.8 21.82-.36.96-.44-.12a.22.22 0 0 1-.13-.09c-.35-.5-.8-.9-1.32-1.18a.97.97 0 0 0-.51-.1c-.07 0-.1-.03-.1-.1v-.06a.1.1 0 0 1 .06-.1c.15-.07.33-.06.52.03.56.27 1.13.39 1.7.34.07 0 .12.02.16.05l.41.37Z" fill="#E399BA"/><path d="M34.11 21.42h1.85l.11.03c.08.21-.02.4-.28.57-.89.57-1.48.97-1.78 1.22l-.3-.85a.52.52 0 0 0-.2-.29c-.1-.08-.22-.08-.34-.1.22-.46.53-.69.94-.58Z" fill="#A6B8E0"/><path d="M37.27 22.3c.2.4.37.82.52 1.3.21.62.36 1.06.46 1.3.57 1.46 1.12 2.93 1.63 4.42.33.97.77 1.95 1.14 2.93.05.13.15.2.3.22a3.36 3.36 0 0 1 2.74 1.13l-.3.73-.71-.28a1.17 1.17 0 0 0-1.28.25c-.26.23-.68.56-1.25.97-.09.06-.3.25-.67.56-.26.22-.51.37-.77.45l-.66-1.55c-.17-.42-.36-.95-.57-1.59-.45-1.41-.98-2.8-1.6-4.14-.04-.12-.05-.26-.12-.4a22.23 22.23 0 0 1-1.4-3.36c-.21-.62-.52-1.3-.72-2 .3-.25.9-.65 1.78-1.22.26-.17.36-.36.28-.57a.58.58 0 0 1 .48.03c.05.02.08.06.1.11.15.3.35.54.62.71Z" fill="#E1B086"/><path d="M12.04 21.58c.7.48 1.45.89 2.25 1.22l-.04.53a1.7 1.7 0 0 1-.12.52 70.4 70.4 0 0 0-1.23 3.14c-.34 1-.67 1.9-1.01 2.74-.48 1.2-.83 2.1-1.05 2.73-.34.94-.8 2.14-1.4 3.62-.02.04-.1.27-.2.68a.2.2 0 0 1-.1.12.95.95 0 0 1-.43.12H6.65l.1-.11c.06-.02.09-.05.08-.1l-.02-.2c.11-.48.2-.92.27-1.32a.4.4 0 0 0-.04-.29c-.08-.12-.17-.17-.29-.15l1.33-3.25c.09-.22.34-.92.76-2.12.3-.84.6-1.53.9-2.07a18.18 18.18 0 0 1 2.3-5.81Z" fill="#ECD379"/><path d="m21.9 32.73-2.45-.08c-.28 0-.54-.1-.75-.27-.05-.04-.1-.03-.13.02-.02.03-.02.09 0 .16l-.15-.34a.14.14 0 0 0-.13-.1c-.73-.06-1.4-.09-2.03-.07a2138.54 2138.54 0 0 1-3.3.05.22.22 0 0 1-.12-.16v-.1l.88-2.38a.39.39 0 0 1 .15-.18.4.4 0 0 1 .23-.08h2.89c.29-.17.43-.34.43-.5a10.9 10.9 0 0 0-.5-2.74c-.16-.54-.3-1.15-.43-1.84-.01-.09-.08-.18-.13-.26h.07a.1.1 0 0 0 .1-.08 7.3 7.3 0 0 1 .59-1.38c.1-.09.27-.16.5-.22l4.27 10.55Z" fill="#E1B086"/><path d="M16.36 23.86c.05.08.12.17.13.26.13.69.27 1.3.44 1.84a10.73 10.73 0 0 1 .48 2.73c.01.17-.13.34-.42.51.15-.26.2-.46.15-.59a7.7 7.7 0 0 0-.37-.71c-.15-.27-.27-.51-.35-.72a48.6 48.6 0 0 1-1.37-3.9l1.31.58Z" fill="#F5D59D"/><path d="M28.72 25.02v.91h-3.15v-1.4l3.15.49Z" fill="#A6B8E0"/><path d="M44.1 24.99c0 .05.02.1.05.12.01.02.05.02.1-.01.11-.06.2-.09.25-.08.77.16 1.5.28 2.22.34a.37.37 0 0 1 .28.18c.07.12.16.15.27.1l-.5 1.25c-.2.45-.36.87-.5 1.25-.2.57-.46 1.23-.8 1.96-.17.38-.22.75-.4 1.15-.35.77-.69 1.56-1.01 2.35a3.36 3.36 0 0 0-2.75-1.13l2.79-7.48Z" fill="#E399BA"/><path d="M28.73 25.93v6.62l-.03-.14c-.02-.08-.07-.1-.13-.04a.55.55 0 0 0-.16.3c-.12.54-.32 1.1-.6 1.7-.06.13-.18.5-.34 1.09-.06.2-.18.42-.35.66-.03.04-.07.05-.1 0a1.26 1.26 0 0 1-.24-.3c-.15-.4-.38-1.18-.7-2.34-.02-.1-.08-.23-.16-.4-.08-.15-.13-.3-.15-.45-.01-.07-.05-.08-.1-.05-.07.04-.1.16-.1.31v-6.96h3.16Z" fill="#D99B5A"/><path d="m28.74 32.55.02 4.32c0 .06-.05.13-.1.13h-1.7c-.04-.1-.01-.3.07-.37a.16.16 0 0 0 .05-.16.16.16 0 0 0-.11-.11c-.22-.07-.41-.2-.57-.39-.1-.12-.22-.24-.38-.36a2.8 2.8 0 0 1-.4-.37l-.06-2.38c.01-.15.04-.24.1-.28.06-.03.1-.02.1.05.03.15.08.3.16.45.08.17.14.3.16.4.32 1.16.55 1.94.7 2.34.01.06.1.16.23.3.04.05.08.04.11 0 .17-.24.29-.46.35-.66.16-.6.28-.96.34-1.1.28-.59.48-1.15.6-1.69a.55.55 0 0 1 .16-.3c.06-.06.1-.04.13.04l.04.14Z" fill="#A97A45"/><path d="m21.9 32.73 1.62 4.14c.02.05 0 .13-.05.13h-3.1a.22.22 0 0 1-.11-.03.2.2 0 0 1-.08-.09 25.12 25.12 0 0 1-1.62-4.32c-.01-.07-.01-.13.01-.16.04-.05.08-.05.13-.02.21.18.47.27.75.27l2.44.08Z" fill="#D7588B"/><path d="m43.76 34.33-.9 2.4a.38.38 0 0 1-.13.2.4.4 0 0 1-.23.07h-2.68c-.5-.02-.74-.3-.74-.72.26-.08.51-.23.77-.45.36-.3.58-.5.67-.56.57-.41.99-.74 1.25-.97.4-.36.81-.41 1.28-.25l.71.28Z" fill="#F5D59D"/><path d="M6.68 37h-.5c-.03 0-.05-.02-.08-.03a.16.16 0 0 1-.1-.12l.01-.08.74-1.94c.12-.02.21.03.29.15a.4.4 0 0 1 .04.29c-.07.4-.16.84-.27 1.32l.02.2c0 .05-.02.08-.07.1l-.08.11Z" fill="#D26E7B"/><path d="M26.95 37h-1.17c-.08 0-.15-.13-.15-.22v-1.54c.11.14.25.26.4.37.15.12.28.24.37.36.16.2.35.32.57.39.03 0 .05.02.07.04a.16.16 0 0 1 .04.16c0 .02-.02.05-.05.07-.08.08-.1.26-.08.37Z" fill="#E399BA"/></svg>