<!-- by TradingView --><svg width="56" height="56" viewBox="0 0 56 56" xmlns="http://www.w3.org/2000/svg"><path fill="#F0F3FA" d="M0 0h56v56H0z"/><path d="m17.1 31 6.8-1.96a7.61 7.61 0 0 0 .06-2.05L10.06 31h7.05ZM23.2 24.42 8.07 28.78c.06.5.17.98.33 1.45l15.34-4.43c-.13-.48-.3-.94-.52-1.38ZM16 20a7.91 7.91 0 0 0-8 7.67l14.64-4.2A8.05 8.05 0 0 0 16 20ZM50 32H9a8.02 8.02 0 0 0 6.96 4c2.78 0 5.23-1.4 6.67-3.54H50v-.45ZM27.4 24H34l-.5 1H29l-.7 2h4.5l-.58 1h-4.17l-.66 2h4.47l-.59 1H25l2.4-7ZM34.47 24H42l-.47 1h-2.57l-1.98 6h-2.2L37 25h-3l.47-1ZM42.45 29.05s.45.94 1.93.95c.62 0 1.62-.25 1.62-.82 0-.68-.64-.8-.96-1.02a9.6 9.6 0 0 1-1.95-1.41c-.3-.34-.45-.67-.45-1 0-1.24 1.54-1.74 2.55-1.74 0 0 2.42-.17 3.81 1.07l-1.57.94c-.48-.97-2.26-.76-2.26-.76-.26 0-.8.1-.8.45 0 .12.06.23.16.33.15.14.58.43 1.3.89C46.55 27.37 48 28 48 29c0 1.7-2.26 2-3.57 2-1.09 0-2.65-.2-3.43-1.25l1.45-.7Z" fill="#0058A4"/></svg>