<!-- by TradingView --><svg width="56" height="56" viewBox="0 0 56 56" xmlns="http://www.w3.org/2000/svg"><path fill="#F0F3FA" d="M0 0h56v56H0z"/><path d="M39 24.28c0-1.62-1.93-3.53-3-4.28 1.46 2.02-.2 4.01-1.87 4.62-1.67.61-3.13 1.73-3.13 3.08 0 1.07.86 1.98 1.29 2.3a9.8 9.8 0 0 1 3.5-2.6c2.18-.92 3.21-1.96 3.21-3.12Z" fill="#E897A1"/><path d="M35 16.71c0-1.5-1.34-3.1-2.01-3.71C34.33 19.05 25 20.74 25 24.62c0 2.45 3.34 4.6 5.01 5.38-.49-.62-1.46-2.15-1.46-3.34 0-4.5 6.45-5.1 6.45-9.95Z" fill="#D84E60"/><path d="M30 11.5c0-2.4-1.36-4-2-4.5.08.45.3 1.63.3 2.7 0 6.47-11.3 7.48-11.3 13.81 0 5.07 6 6.44 9 6.49-1.37-.89-4-3.35-4-6.09 0-3.84 8-6.15 8-12.41Z" fill="#CD2127"/><path d="M35 37.4c.32-.18.35-.47.35-.81v-3.16c0-.36-.03-.63-.35-.83V31h4v1.6a.61.61 0 0 0-.28.28c-.03.1-.05.3-.05.55v3.16c0 .26.02.45.05.55.05.1.14.18.28.26V39h-4v-1.6ZM26 37.4a.58.58 0 0 0 .3-.27c.05-.11.07-.3.07-.54v-3.16c0-.36-.03-.65-.37-.83V31h4.27v1.6a.67.67 0 0 0-.23.21.98.98 0 0 0-.04.35V34h1v-.82a.79.79 0 0 0-.06-.36.6.6 0 0 0-.24-.22V31H35v1.6a.75.75 0 0 0-.3.28c-.06.1-.09.28-.09.53v3.18c0 .25.03.44.08.55.06.1.16.2.31.26V39h-4.3v-1.6c.12-.08.2-.15.24-.21a.64.64 0 0 0 .06-.32V36h-1v.94c0 .12.02.2.06.27.04.07.1.13.2.2V39H26v-1.6ZM17 37.4c.38-.22.38-.56.38-.97v-2.85c0-.4 0-.76-.38-.98V31h5.36c1.42 0 3.52.15 3.52 2.01 0 1.06-.67 1.55-1.62 1.83 1.07.2 1.74.75 1.74 1.88C26 38.8 24 39 22.38 39H17v-1.6Zm4.18-3.25c.4 0 .62-.04.79-.13a.46.46 0 0 0 .27-.44c0-.24-.1-.4-.27-.46-.18-.07-.4-.1-.77-.1H21v1.13h.18ZM21 37.43h.12c.45-.01.7-.07.88-.18.17-.11.25-.3.25-.58 0-.26-.1-.44-.3-.53a1.7 1.7 0 0 0-.8-.14H21v1.43ZM17 40h22v1H17zM19 42h18v1H19zM21 44h14v1H21zM23 46h10v1H23z" fill="#1B4079"/></svg>