<!-- by TradingView --><svg width="56" height="56" viewBox="0 0 56 56" xmlns="http://www.w3.org/2000/svg"><path fill="#F0F3FA" d="M0 0h56v56H0z"/><path d="M9 33.14V19h4v14.77c0 .4.54.73.97.73.43 0 1.03-.33 1.03-.73V19h4v14.14c0 2.13-1.83 3.86-4.1 3.86h-1.8C10.82 37 9 35.27 9 33.14Z" fill="#D14543"/><path fill-rule="evenodd" d="M20 19h6.02A2.93 2.93 0 0 1 29 21.88v2.77c0 1.2-.75 2.22-1.82 2.66A2.8 2.8 0 0 1 29 29.89v4.3c0 1.56-1.33 2.81-2.98 2.81H20V19Zm4 2h.24c.42 0 .76.48.76 1.08v2.84c0 .6-.34 1.08-.76 1.08H24v-5Zm0 7h.24c.42 0 .76.47.76 1.05v3.9c0 .58-.34 1.05-.76 1.05H24v-6Z" fill="#344D88"/><path fill-rule="evenodd" d="M33.44 22c-1.9 0-3.44 1.22-3.44 3.08v8.84c0 1.86 1.54 3.08 3.44 3.08h2.12c1.9 0 3.44-1.22 3.44-3.08v-8.84c0-1.86-1.54-3.08-3.44-3.08h-2.12Zm1.06 2.5c-.28 0-.5.29-.5.64v8.72c0 .35.22.64.5.64s.5-.29.5-.64v-8.72c0-.35-.22-.64-.5-.64Z" fill="#5AA55F"/><path d="M48 19H38v2.5h3V37h4V21.5h3V19Z" fill="#344D88"/></svg>