<!-- by TradingView --><svg width="56" height="56" viewBox="0 0 56 56" xmlns="http://www.w3.org/2000/svg"><path fill="url(#a)" d="M0 0h56v56H0z"/><path d="M27.73 26.75 18 31.88 31.8 16l-4.07 10.75Zm-9.68 5.77 10.18-5.37.72.34-9.8 5.16-1.1-.13Zm2.13.26 9.43-4.97.77.36-9.02 4.75-1.18-.14Zm2.2.26 8.66-4.56.66.3-8.3 4.38-1.01-.12Zm2.04.25 7.94-4.19.73.35-7.54 3.97-1.13-.13Zm2.15.26 7.19-3.8.7.34-6.8 3.59-1.09-.13Zm2.11.25 6.44-3.4.78.37-6.02 3.17-1.2-.14Zm2.22.27 5.66-2.99.53.25-5.38 2.83-.81-.1Zm1.84.22 5.01-2.65.64.3-4.6 2.43 1.12.07 4.14-2.19.93.44-3.8 2.01-1.24-.15A24.11 24.11 0 0 1 26.5 36C17.94 36 11 31.97 11 27s6.94-9 15.5-9c.96 0 1.9.05 2.82.15l-.65.76c-.7-.07-1.43-.1-2.17-.1-7.79 0-14.1 3.67-14.1 8.19s6.31 8.19 14.1 8.19c2.3 0 4.46-.32 6.38-.88h.08l-.22-.02Zm4.46.53 3.45-1.81.53.25-3.15 1.66-.83-.1Zm1.85.22 2.8-1.47.52.25-2.5 1.32-.82-.1Zm1.83.23 2.16-1.14.78.37-1.72.91-1.22-.14Zm2.25.26 1.36-.71L47 36l-3.87-.47ZM31.49 18.48l-.26.8c5.46 1.13 9.38 4.16 9.38 7.72 0 1.65-.85 3.19-2.3 4.47l1.2.43C41.08 30.49 42 28.8 42 27c0-3.96-4.4-7.32-10.5-8.52Z" fill="#fff"/><defs><linearGradient id="a" x1="10.42" y1="9.71" x2="68.15" y2="76.02" gradientUnits="userSpaceOnUse"><stop stop-color="#1A1E21"/><stop offset="1" stop-color="#06060A"/></linearGradient></defs></svg>