<!-- by TradingView --><svg width="56" height="56" viewBox="0 0 56 56" xmlns="http://www.w3.org/2000/svg"><path fill="#F0F3FA" d="M0 0h56v56H0z"/><path d="M16.55 30h.75l1.76-2h-.82l-1.7 2Zm.9-2h-.8l-2.23 2h1.27l1.75-2Zm2.4 0-1.69 2h.98l1.75-2h-1.04Zm1.84 0-1.7 2h1.6l1.76-2h-1.66Zm2.45 0-1.69 2h5.53l1.75-2h-5.59Zm11.92 0-1.7 2h.9L37 28h-.95Zm1.75 0-1.7 2h.94l1.75-2h-1Zm1.79 0-1.7 2h.76l1.76-2h-.82Zm1.61 0-1.69 2h4.42L46 28h-4.79Z" fill="#B496BC"/><path d="M22.5 30h4.04c-1.55 2.2-6.13 7-10.87 7-5.7 0-5.68-3.11-5.67-4.7v-.18c0-1.51 1.16-4.75 4-8C16.84 20.84 20.62 19 24.57 19s4.82 4.01 3.85 7.58h-3.6c.3-.55.9-1.84.9-2.64 0-1-.21-1.85-2.15-1.85-1.95 0-5 1.61-7.5 4.5-2.49 2.88-3.63 5.83-2.49 7.03 1.15 1.2 4.23.89 8.92-3.62Zm-.5 7h5.02l10.34-12.11v1.67h3.84L42 20h-5.57L22 37Z" fill="#5B366A"/></svg>