<!-- by TradingView --><svg width="56" height="56" viewBox="0 0 56 56" xmlns="http://www.w3.org/2000/svg"><path fill="#F0F3FA" d="M0 0h56v56H0z"/><path d="M10.63 23.26v-2.03c-.32.11-.36.13-.5.13-.66 0-1.26-.36-1.94-.36C6.02 21 5 22.91 5 24.59 5 26.22 6.03 28 8.13 28c1.46 0 2.42-.78 2.87-1.93l-.28-.12a2.4 2.4 0 0 1-2.32 1.68c-1.46 0-2.4-1.28-2.4-3.22 0-1.24.4-3.16 2.23-3.16 1.3 0 1.94 1.02 2.1 2h.3ZM13.04 21l-1.68.08v.2c.6.02.64.06.64.88v4.65c0 .9-.04.96-.64.98V28h2.27v-.21c-.59-.02-.63-.09-.63-.98v-1.54c0-.83.12-1.87 1.1-1.87.83 0 .9.83.9 1.49v1.92c0 .9-.04.96-.64.98V28h2.27v-.21c-.59-.02-.63-.1-.63-.98V24.9c0-1-.55-1.86-1.72-1.86-.72 0-.87.22-1.28.96 0-1.02 0-1.98.04-3ZM21.7 27.68c-.41 0-.54-.03-.6-.1-.07-.08-.1-.42-.1-.82.02-.76 0-1.5 0-2.27 0-.92-.46-1.49-1.4-1.49-.63 0-1.15.1-1.56.3-.44.23-.72.57-.72.9 0 .2.16.3.52.3.9 0 .56-1.27 1.6-1.27.64 0 .56.71.56 1.22V25c-1.06.06-3 .32-3 1.7 0 .9.76 1.3 1.55 1.3.6 0 1.03-.4 1.45-.81.04.63.13.81.45.81.21 0 .83-.07 1.24-.12v-.2Zm-2.85 0c-.53 0-.85-.4-.85-1 0-1.06 1.15-1.4 2-1.46 0 .78 0 2.46-1.15 2.46ZM24 23.03l-1.74.1v.22c.62 0 .74.14.74.86v2.59c0 .9-.05.97-.78.99V28h2.56v-.21c-.72-.02-.78-.09-.78-1v-1.84c0-.7.55-1.6 1.32-1.6.64 0 .68.47.68 1.4v2.05c0 .9-.05.97-.77.99V28h2.55v-.21c-.73-.02-.78-.1-.78-1v-1.7c0-.77.25-1.73 1.15-1.73.92 0 .85.76.85 1.52v1.92c0 .9-.05.97-.78.99V28h2.56v-.21c-.73-.02-.78-.1-.78-1v-2.08c0-1.01-.4-1.71-1.5-1.71-.82 0-1.2.34-1.64 1.12-.15-.73-.65-1.12-1.44-1.12-.78 0-1.03.36-1.42 1.04v-1.01ZM33 23l-1.66.13v.21c.55 0 .66.15.66.86v4.6c0 .9-.05.96-.7.98V30h2.44v-.22c-.7-.03-.74-.09-.74-.97v-1.4c.53.48.85.59 1.41.59 1.45 0 2.12-1.3 2.12-2.6 0-1.5-.74-2.4-1.96-2.4-.67 0-1.2.29-1.57.85V23Zm0 2.56c0-.72.09-1.26.33-1.67.23-.38.65-.62 1.1-.62.8 0 1.2.73 1.2 2.24 0 1.5-.42 2.23-1.3 2.23-.9 0-1.33-.7-1.33-2.18ZM37.35 23.14v.22c.3 0 .45.02.52.08.1.09.13.31.13.8v2.56c0 .9-.04.97-.65.99V28h2.28v-.21c-.59-.02-.63-.1-.63-1V23l-1.65.14ZM38.5 22a.5.5 0 0 1-.5-.5c0-.28.22-.5.5-.5s.5.22.5.5a.5.5 0 0 1-.5.5ZM41 25.58c0 1.45.98 2.42 2.46 2.42 1.56 0 2.54-.99 2.54-2.56 0-1.47-.98-2.44-2.47-2.44-1.5 0-2.53 1.08-2.53 2.58Zm1-.13c0-1.43.5-2.23 1.47-2.23 1 0 1.53.84 1.53 2.3s-.5 2.25-1.5 2.25c-.99 0-1.5-.84-1.5-2.32ZM19 34.68c.76 0 1.25.1 1.66.82.27.47.43 1.45.81 2.5H23v-.21c-.98-.04-1.1-2.2-1.84-2.82a1.66 1.66 0 0 0-.78-.35v-.09c.74-.07 1.35-.33 1.64-.71.21-.27.34-.68.34-1.1 0-1.17-.83-1.72-2.62-1.72h-2.5v.23c.71.03.76.1.76 1v4.54c0 .9-.06.97-.75.99V38h2.49v-.24c-.7-.02-.74-.1-.74-.99v-2.1Zm0-.3V31.3h.77c1.25 0 1.64.5 1.64 1.5 0 1.46-1.23 1.6-2.41 1.6ZM48 23l-1.74.13v.22c.61 0 .74.14.74.86v2.59c0 .9-.28.97-1 .99V28h2.78v-.21c-.73-.02-.78-.09-.78-1v-1.66c0-.9.08-1.82 1.04-1.82.92 0 .96.79.96 1.55v1.94c0 .65-.04.97-.77.99V28H52v-.21c-.73-.02-1-.09-1-1V24.8c0-1.08-.5-1.8-1.65-1.8-.88 0-1.08.35-1.35 1.02V23ZM23.3 38h4.51l.19-1.92-.26-.02c-.26 1.33-.12 1.65-1.28 1.65H25v-3.42h.44c.83 0 1.18.17 1.3 1H27v-2.05h-.26c-.1.85-.28.76-1.3.76H25v-2.71h1.27c1.19 0 1.24.29 1.46 1.46l.27-.02-.15-1.73H23.3v.23c.42 0 .59.08.65.28.03.09.03.1.05.72v4.54c-.02.73-.02.74-.12.85-.08.1-.27.15-.58.15V38ZM29.02 38h2.97v-.24c-.91-.02-.99-.1-.99-.99v-4.54c0-.9.07-.96 1-1V31h-2.98v.23c.91.04.98.1.98 1v4.54c0 .9-.07.97-.98.99V38ZM37 31.23c2.02.02 2.35.24 2.64 1.82l.36-.02-.2-2.03h-6.6l-.2 2.03.36.02c.28-1.58.63-1.8 2.64-1.82v5.54c0 .54-.03.74-.18.84-.11.1-.38.15-.86.15V38h3.1v-.24c-.45 0-.75-.04-.86-.13-.16-.1-.2-.29-.2-.86v-5.54Z" fill="#7B7B74"/></svg>