<!-- by TradingView --><svg width="56" height="56" viewBox="0 0 56 56" xmlns="http://www.w3.org/2000/svg"><path fill="#F0F3FA" d="M0 0h56v56H0z"/><path fill-rule="evenodd" d="M28 41c10.5 0 19-5.82 19-13s-8.5-13-19-13S9 20.82 9 28s8.5 13 19 13Zm0-.63c10.1 0 18.3-5.54 18.3-12.37 0-6.83-8.2-12.37-18.3-12.37-10.1 0-18.3 5.54-18.3 12.37 0 6.83 8.2 12.37 18.3 12.37Z" fill="#3969AB"/><ellipse cx="28" cy="28" rx="17" ry="11" fill="#3969AB"/><path d="M18.27 24.95a.04.04 0 0 0-.06-.04l-1.11.48a.21.21 0 0 0-.1.1.2.2 0 0 0-.02.15c.18.71.22 1.42.1 2.11-.1.61-.08 1.27-.16 1.91-.02.12 0 .2.04.24.07.06.17.08.3.08.11 0 .19.04.22.14.2.5.19 1.78-.64 1.74-1.13-.06-1.48-.55-1.55-1.6l-.07-.76c-.1-.65-.16-1.4-.21-2.28v-.69c.05-.7.7-1.46 1.24-1.82a.14.14 0 0 0 .07-.1c.07-.57-.23-.75-.51-1.13a.92.92 0 0 1-.12-.95c.07-.17.16-.5.37-.57a1.41 1.41 0 0 1 1.48.32l.5.52c.14.15.23.34.27.55l.15.95c0 .07.1.11.16.07.21-.15.42-.32.64-.53.32-.3.26-.62.01-.92a2.66 2.66 0 0 1-.2-.26.19.19 0 0 1-.03-.14c.07-.33.11-.6.49-.64.34-.04.66-.11.96-.2a.32.32 0 0 1 .27.03c.35.22.59.52.71.9.08.24.43.4.62.15.03-.04.05-.12.04-.24-.03-.45-.13-.93.08-1.22.18-.22.39-.32.64-.3.4.04.69.24.84.58.26.56.58 1.21-.08 1.67-.23.16-.63.04-.85.07a.2.2 0 0 0-.13.06c-.1.1-.17.26-.2.5a.18.18 0 0 0 .13.2c.3.08.51.28.63.61.2.56.33.93.4 1.46l.1.8a8.87 8.87 0 0 1-.23 3.42c-.06.23-.24.53-.52.9-.18.24-.43.42-.76.53a2.89 2.89 0 0 1-3.43-1c-.15-.2-.48-.28-.6-.5-.1-.2-.02-.6-.03-.77a22.2 22.2 0 0 1-.01-2.28c.01-.32.08-.61.21-.9.03-.05.12-.13.28-.23.15-.1.42-.01.6-.03.13 0 .2-.15.13-.25a.81.81 0 0 0-.89-.37h-.06a.15.15 0 0 1-.11-.14v-.38Zm4.92-2.07c.25-.04.16-.6.13-.75-.04-.18-.1-.35-.18-.48-.08-.12-.16-.18-.24-.16-.25.05-.16.6-.13.75.04.19.1.36.18.48.08.12.16.18.24.16Zm-3.2 1.89.02.61c0 .33.15.67.15 1 0 .17-.1.3-.23.37a.2.2 0 0 0-.09.1c-.1.27-.05.45.16.54.07.03.12.09.15.15.02.06.03.14 0 .2-.12.33-.14.65-.07.98l.12.56c.01.18-.02.37-.08.57-.04.13.04.28.18.31.2.07.37.08.5.05a.2.2 0 0 0 .17-.2c-.01-.46 0-.9.05-1.3.03-.36.37-.6.37-.93 0-.19-.07-.4-.2-.61a.22.22 0 0 1 .06-.3c.2-.16.27-.35.18-.58a1.27 1.27 0 0 0-.27-.3.58.58 0 0 1-.19-.48c.01-.2-.01-.43.23-.49.12-.03.31-.02.58.01.2.03.32.17.37.34.12.44.2.86.22 1.26.08 1.08.09 2.12.05 3.13-.02.5-.15.89-.64 1.1-.33.15-.64.35-.95.35-.16 0-.32-.01-.46-.03-.14-.02-.19.04-.15.17l.01.04c.05.15.15.24.3.26.38.05.76.02 1.15-.1.41-.13.71-.32.9-.57.25-.36.39-.81.4-1.36.03-1.02.04-2 .03-2.95 0-.26-.05-.52-.14-.79l-.25-.78c-.1-.35-.26-.6-.65-.59a7.77 7.77 0 0 1-.95-.02.1.1 0 0 1-.03-.06c-.04-.22.03-.36.27-.46.2-.1.39-.21.58-.35.12-.1.15-.2.1-.3a.16.16 0 0 0-.17-.09l-.43.07c-.06.01-.12 0-.18-.04a.26.26 0 0 1-.1-.14 51 51 0 0 1-.17-.6c-.14-.55-.65-.42-1.04-.28a.2.2 0 0 0-.1.31c.34.44.37.91.1 1.42-.11.2-.4.34-.56.45-.11.07-.14.18-.08.32a.13.13 0 0 0 .17.07l.39-.17c.1-.04.2.03.22.13Zm-3.15-.54-.14.55a.1.1 0 0 0 .12.13 2 2 0 0 0 .98-.45c.19-.18.26-.4.22-.68a4.64 4.64 0 0 0-.95-1.37c-.22-.25-.45-.27-.7-.06-.26.23-.37.57-.16.86l.58.82a.24.24 0 0 1 .05.2Zm-.22 6.13a.12.12 0 0 1-.16-.1 12.3 12.3 0 0 1 0-2.34 6.53 6.53 0 0 0-.15-2.4c-.05-.28-.2-.3-.42-.06-.24.33-.45.66-.4 1.1.07.7.02 1.57.09 2.22.07.71.14 1.29.2 1.73.04.34.1.57.2.69.14.2.39.28.75.25.42-.04.45-.5.38-.81-.06-.28-.23-.37-.5-.28Zm2.6-3.34a.29.29 0 0 0-.09-.2c-.17-.19-.5-.07-.51.19l-.04 2.95c0 .17.14.28.3.29a.3.3 0 0 0 .3-.29l.04-2.94Zm2.54 3c.2-.01.19-.71.19-.82 0-.22-.02-.43-.06-.58-.04-.15-.09-.24-.14-.24-.02 0-.05.02-.07.06-.2.35-.14.97-.06 1.33.04.16.09.24.14.24Zm-1.36.64c0-.03 0-.07-.02-.11-.09-.16-.3-.24-.48-.27-.17-.03-.55-.05-.6.19-.04.23.33.35.5.38.17.03.56.04.6-.19ZM34.57 24.7l.46-.04c.8.02 1.13.43.9 1.06-.04.12-.16.54-.31.69a.55.55 0 0 1-.3.11 238 238 0 0 1-2.01.29c-.3.01-.64.08-1 .21-.15.05-.48.14-1 .26-.84.2-1.34.35-1.94-.2a.13.13 0 0 0-.16 0 12.14 12.14 0 0 1-.38 1c-.21.5-.62.79-1.23.9-.6.12-1.03-.63-1.23-.98a3.11 3.11 0 0 1-.18-2.55.8.8 0 0 1 .21-.37c.24-.21.53-.49.38-.8-.28-.63-.18-1.18.27-1.7l.41-.48c.06-.07.14-.1.23-.1.08 0 .17.04.21.1l.55.73c.14.18.35.25.53.34.05.02.08.06.08.11s-.13.85.18.7l1.58-.68c.38-.16.97-.23 1.25-.5a2.1 2.1 0 0 1 2.04-.47c.49.12.7.46.96.82.14.19.18.3.02.5-.23.32-.43.64-.6.96-.01.03 0 .07.04.09h.04Zm-6.46 2.09c-.12.03-.19-.02-.2-.16-.07-1.05-.11-1.6-.1-1.65.02-.34.2-.57.43-.84.16-.2.24-.37.24-.5 0-.48-.33-.67-.68-.98a.23.23 0 0 0-.3.02c-.19.22-.3.44-.35.69-.08.4.4.8.25 1.16a.97.97 0 0 1-.23.35c-.6.54-.58 1.07-.61 1.75a3.16 3.16 0 0 0 .84 1.97c.03.04.07.07.11.09.13.05.3.03.4-.07.31-.29.2-.73.52-1.04.17-.17.26-.3.28-.42.05-.28.06-.48.06-.6 0-.08-.09-.15-.18-.16-.32-.02-.25.32-.48.39Zm5.38-1.73c0-.08.04-.17.1-.23.34-.38.59-.8.74-1.23.14-.43-.17-.82-.65-.84-.53-.02-.77 0-1.11.31-.44.4-1.36.47-1.92.77-.28.15-.62.2-.9.34-.16.08-.2.18-.11.32.22.36 1.45.02 1.78-.19.2-.13.48-.22.8-.29.13-.02.26.06.27.17a.6.6 0 0 1-.11.48c-.2.27-.36.52-.49.74a.73.73 0 0 1-.32.28l-.89.45c-.32.18-.69.18-1.02.3-.22.08-.22.17-.02.28l.31.17c.2.11.41.14.65.1 1.22-.26 2.28-.5 3.18-.73.49-.12.83-.09 1.23-.13.3-.04.46-.2.46-.46v-.16c0-.27-.16-.4-.47-.41-.34 0-.67.06-.98.2-.24.1-.54.03-.53-.24Zm-4.53.77c.1.14.18.23.27.26h.04l.08-.02c.13-.04.26-.19.46-.22.35-.06.73-.14 1.12-.26.55-.16.83-.46.84-.89 0-.08-.06-.14-.15-.15l-.08.01c-.57.23-1.17.25-1.76.42a.37.37 0 0 1-.33-.07l-.59-.52a.26.26 0 0 0-.3-.01c-.19.12-.28.26-.3.4-.03.42-.03.76 0 1.01.01.09.05.14.12.17a.1.1 0 0 0 .06 0c.02 0 .04-.02.05-.03.1-.15.22-.21.35-.19.05.02.1.04.12.09ZM29.18 29.85c-.07.02-.08.06-.03.11.23.29.23.46.05.79-.7 1.3-1.26 2.64-1.9 3.96-.12.24-.32.33-.58.27l-.05-.01c-.25-.06-.32-.2-.2-.44L27.2 33c.47-.7.73-1.5 1.16-2.22a.98.98 0 0 0 .14-.67c-.01-.12-.07-.16-.18-.11-.56.23-1.08.5-1.56.79-.25.15-.56.4-.92.74l-.86.83c-.12.13-.17.26-.16.4a.2.2 0 0 0 .29.16c.56-.28.92-.52 1.32-.52a.1.1 0 0 1 .06.02c.05.03.06.1.02.16-.36.47-1.25.82-1.78.92-.39.07-.63-.07-.73-.43a.21.21 0 0 1 0-.13c.85-2.25 3.68-3.71 5.97-3.92.32-.02 1.78-.05 1.93.32.16.42.1.79-.17 1.1a3.75 3.75 0 0 1-2.2 1.1c-.22-.04-.23-.12-.04-.24.29-.18.7-.41 1.21-.7.3-.16.52-.4.67-.73a.2.2 0 0 0-.11-.26 1.82 1.82 0 0 0-1.2-.01l-.89.26Z" fill="#fff"/><path d="M30.7 33.74a5.5 5.5 0 0 0-1 .02c-.21.02-.35 0-.42-.03-.51-.3-.2-.73 0-1.11.04-.1.14-.17.27-.21.15-.04.29.08.25.22l-.12.47c0 .05.01.09.06.11.14.06.23.04.28-.05.18-.3.35-.65.61-.74.16-.05.3.1.24.25-.15.33-.12.55.09.67.3.18.75.28.92-.13a.2.2 0 0 0 .01-.13c-.1-.47 0-.9.34-1.28l.63-.74a.17.17 0 0 1 .09-.06l.1.01.43.17c.15.06.2.16.16.3l-.27 1.08v.09c.1.29.69-.1.82-.15.08-.04.18.03.16.11l-.07.53c0 .06.02.1.08.1.2.05.35-.1.41-.26.1-.28.28-.5.54-.64.27-.15.76-.13 1.05-.16.03 0 .06 0 .09.02.26.1.01.69-.02.87-.04.17.03.23.2.2a.8.8 0 0 1 .05-.02.41.41 0 0 0 .33-.3l.17-.6a.3.3 0 0 1 .11-.15.32.32 0 0 1 .2-.06h1.2c.07 0 .14.06.13.13l-.03.77c0 .17.18.32.27.1.11-.23.16-.45.16-.65 0-.06.01-.12.05-.16.04-.05.1-.08.15-.1.51-.1 1-.13 1.45-.07.28.03.3.38.54.43l.54.13c.09.02.05.13-.02.15a7.1 7.1 0 0 0-.69.14c-.63.23-.76.73-.9 1.3-.14.6-.72 1.1-1.3 1.26-.42.12-.73-.22-.71-.6.01-.33.38-.65.69-.94a.4.4 0 0 0 .13-.32c0-.13-.14-.23-.28-.2l-.42.07c-.13.03-.26-.07-.26-.2v-.7c0-.08-.06-.14-.14-.15-.12 0-.22.05-.28.17-.23.42-.41.74-.57.98a.11.11 0 0 1-.1.06c-.64-.04-1.28-.03-1.92-.07-.43-.03-.8.02-1.25.12a.29.29 0 0 1-.3-.13c-.1-.15-.72-1.03-.78-.28-.01.06-.02.1-.05.14l-.53.9c-.23.4-.44.7-.61.86-.45.44-1.07.78-1.73.71a.19.19 0 0 1-.13-.06c-.11-.12-.13-.34-.04-.64.13-.45.42-.8.85-1.06.09-.05.14-.19.17-.41 0-.05-.02-.08-.07-.08Zm2.12-1.29c.14-.17.22-.43.2-.65-.02-.53-.46.36-.45.58l.02.12c.06.11.18.02.23-.05Zm7.27.91c.1-.08.17-.2.22-.34.09-.23.04-.9-.37-.54-.09.08-.17.2-.22.34-.08.23-.04.9.37.54Zm-4.67-.02c.06.03.13.02.2-.03.17-.1.4-.52.14-.64s-.46.32-.44.5c0 .08.05.14.1.17Zm-5.07 2.08c.16.12.5-.2.6-.29.26-.23.5-.52.64-.83a.69.69 0 0 0 .06-.22c0-.05 0-.1-.03-.12-.03-.02-.08-.03-.14-.01-.48.12-.92.73-1.1 1.13a.69.69 0 0 0-.07.21c0 .06.01.1.04.13Zm8.74-.3c.26-.16.68-.7.64-1.01v-.04a.08.08 0 0 0-.12-.01l-.57.4c-.22.14-.3.87.05.66Z" fill="#fff"/><path d="M34.03 31.22c-.07.16-.01.33.12.38.13.05.29-.04.35-.2.07-.16.01-.33-.12-.39-.13-.05-.29.04-.35.2Z" fill="#fff"/></svg>