<!-- by TradingView --><svg width="56" height="56" viewBox="0 0 56 56" xmlns="http://www.w3.org/2000/svg"><path fill="#F0F3FA" d="M0 0h56v56H0z"/><path d="M26.77 40.82c.09-2.3.86-4.17 1.23-4.82-5.42.68-9.6 2.44-11 3.24 1.37 1.4 3.9 2.43 4.98 2.76a8.15 8.15 0 0 1 4.79-1.18ZM38.56 24.02c3.21-4.53 8.3-7.9 10.44-9.02-14.48.95-27.7 6.41-32.5 9.02a24.07 24.07 0 0 0-.48 5.98c7.37-3.46 18.1-5.43 22.54-5.98ZM29.8 34.02c1.3-2.7 3.34-5.8 4.2-7.02-9.73 1.25-18.05 4.83-21 6.46A14.92 14.92 0 0 0 15.64 38c3.97-2.47 11.1-3.68 14.17-3.98Z" fill="#009A44"/></svg>