<!-- by TradingView --><svg width="56" height="56" viewBox="0 0 56 56" xmlns="http://www.w3.org/2000/svg"><path fill="#F37021" d="M0 0h56v56H0z"/><path d="M18.29 12 24 22c4.5 1.67 13.7 7.2 14.5 16 .13 1.47.05 4.31-1.02 6h-4.56c3.16-2.13 2.24-7.16 1.08-10 0 2.5-1.5 9.5-11 2.5-7.6-5.6-3.83-10.33-1-12-3.4-.38-5.67.1-7 2.1V15a3 3 0 0 1 3-3h.29Zm5.3 0c7.17 3.1 14.16 8.87 17.41 12v-9a3 3 0 0 0-3-3H23.6ZM41 26.05c-2.22-1.82-6.5-3.43-8.5-4.05 3.57 3.25 6.73 7.81 8.5 10.75v-6.7ZM15 34.2V41a3 3 0 0 0 3 3h6.3c-4.36-1.89-7.68-6.11-9.3-9.79Z" fill="#fff"/></svg>