<!-- by TradingView --><svg width="56" height="56" viewBox="0 0 56 56" xmlns="http://www.w3.org/2000/svg"><path fill="#F0F3FA" d="M0 0h56v56H0z"/><path d="M9 23.88a1.83 1.83 0 0 1-.56 1.44c-.11.1-.22.2-.36.29-.13.08-.26.16-.44.23-.16.06-.34.1-.51.14-.18.04-.4.06-.63.06h-.85V28H4v-6h2.52c.38 0 .7.04.98.1.27.06.52.17.74.31.25.15.43.35.56.6.13.23.2.54.2.87Zm-1.67.04a.72.72 0 0 0-.45-.68c-.16-.06-.31-.1-.45-.1-.13 0-.33-.03-.58-.03h-.22v1.8h.56l.35-.02a1.33 1.33 0 0 0 .5-.21.9.9 0 0 0 .22-.3c.04-.13.07-.28.07-.46ZM9.5 27.96V22h4v1.15h-2.52v1.04h2.34v1.15h-2.34v1.51h2.52V28h-4v-.04ZM20.5 28h-1.98l-1.82-2.2H16V28h-1.5v-6h2.6c.36 0 .67.02.93.06.27.04.51.13.74.27.22.14.42.3.55.52.14.2.2.47.2.8 0 .45-.1.82-.33 1.11a2.2 2.2 0 0 1-.89.68L20.5 28Zm-2.62-4.16a.74.74 0 0 0-.1-.4.61.61 0 0 0-.3-.24 1.96 1.96 0 0 0-.34-.09c-.13-.02-.28-.02-.46-.02H16v1.61h.61c.22 0 .42-.02.58-.04a.85.85 0 0 0 .4-.17.64.64 0 0 0 .22-.26c.05-.1.07-.23.07-.4ZM21 27.96V22h4v1.15h-2.52v1.04h2.34v1.15h-2.34v1.51H25V28h-4v-.04ZM30.98 28h-1.4l-2.24-4.19V28H26v-6h1.8l1.86 3.44V22H31v6h-.02ZM36.98 28h-1.4l-2.24-4.19V28H32v-6h1.8l1.86 3.44V22H37v6h-.02ZM41 28h-3v-1.05h.8v-3.9H38V22h3v1.05h-.8v3.9h.8V28ZM42 28l1.78-6h1.44L47 28h-1.36l-.32-1.22h-1.67L43.32 28H42Zm3.04-2.33-.54-1.98-.54 1.98h1.08ZM52 28h-4v-6h1.5v5H52v1ZM11 35.96V30h4v1.15h-2.52v1.04h2.34v1.15h-2.34v1.51H15V36h-4v-.04ZM20.98 36h-1.4l-2.24-4.19V36H16v-6h1.8l1.86 3.44V30H21v6h-.02ZM22 35.96V30h4v1.15h-2.52v1.04h2.34v1.15h-2.34v1.51H26V36h-4v-.04ZM33 36h-1.99l-1.8-2.2h-.58V36H27v-6h2.61c.36 0 .67.02.94.06.26.04.5.13.73.27.23.14.43.3.56.52.13.2.2.47.2.8 0 .45-.11.82-.33 1.11a2.2 2.2 0 0 1-.9.68L33 36Zm-2.63-4.16a.74.74 0 0 0-.1-.4.61.61 0 0 0-.3-.24c-.11-.05-.23-.07-.34-.09-.13-.02-.29-.02-.47-.02h-.53v1.61h.47c.22 0 .42-.02.58-.04a.86.86 0 0 0 .4-.17.64.64 0 0 0 .22-.26c.05-.1.07-.23.07-.4ZM38 35.56c-.25.1-.56.2-.96.3-.38.1-.78.14-1.15.14-.88 0-1.57-.26-2.1-.8A3.02 3.02 0 0 1 33 33c0-.91.27-1.62.79-2.18.51-.55 1.22-.81 2.14-.81a3.82 3.82 0 0 1 2.05.51v1.35h-.13a13.03 13.03 0 0 0-.65-.5c-.14-.07-.31-.15-.48-.21-.2-.06-.39-.1-.58-.1a1.67 1.67 0 0 0-1.19.47 1.5 1.5 0 0 0-.34.6c-.1.24-.13.51-.13.83 0 .67.17 1.17.5 1.49.32.31.76.47 1.33.47h.18c.07 0 .13 0 .17-.02v-1.13h-1.1v-1.09H38v2.9ZM45 30l-2.19 3.5V36h-1.58v-2.42L39 30h1.8l1.23 2.14 1.2-2.14H45Z" fill="#807F83"/></svg>