<!-- by TradingView --><svg width="56" height="56" viewBox="0 0 56 56" xmlns="http://www.w3.org/2000/svg"><path fill="#F0F3FA" d="M0 0h56v56H0z"/><circle cx="28" cy="28" r="17" fill="#234439"/><circle cx="28.04" cy="28.08" r="13.36" fill="url(#anq1j1dp5)"/><path fill-rule="evenodd" d="M27.95 40.37a12.38 12.38 0 1 0 0-24.77 12.38 12.38 0 0 0 0 24.77Zm.37-.47c.73-.02 1.45-.11 2.15-.26.76-.88 1.9-2.6 2.74-4.89a13.6 13.6 0 0 0-4.9-1.13v6.28Zm-.46 0v-6.29c-1.81 0-3.45.37-4.85.9.12.35.23.69.36 1 .75 2 1.64 3.5 2.32 4.18.7.13 1.43.2 2.17.21Zm.46-6.74c1.58.05 3.28.4 5.04 1.16a17.7 17.7 0 0 0 .97-6.13h-6.01v4.97Zm-.46-4.97v4.96c-1.86 0-3.55.37-4.99.93a23.85 23.85 0 0 1-1.03-5.89h6.02Zm.46-.46h5.99a17.8 17.8 0 0 0-1.34-5.69c-1.58.63-3.16.88-4.65.9v4.79Zm-.46-4.8v4.8h-6.03c.04-1.8.6-3.83 1.36-5.72a15.3 15.3 0 0 0 4.67.92Zm.46-.46c1.44 0 2.95-.26 4.47-.85a20.21 20.21 0 0 0-3.37-5.38l.08-.08c-.39-.05-.78-.08-1.18-.1v6.41Zm-.46-6.4v6.4a14.84 14.84 0 0 1-4.5-.88l.02-.04c.93-2.22 2.09-4.2 2.87-5.34l-.04-.02c.54-.08 1.09-.12 1.65-.13Zm8.43 20.43a11.9 11.9 0 0 1-5.08 2.95c.75-.98 1.7-2.54 2.42-4.5.87.4 1.76.92 2.66 1.55Zm3.58-8.3a11.88 11.88 0 0 1-3.26 7.97 17.6 17.6 0 0 0-2.82-1.66 18.18 18.18 0 0 0 1-6.32h5.08Zm-3.18-8.33a11.88 11.88 0 0 1 3.18 7.86h-5.1c-.11-2.11-.66-4.11-1.37-5.86 1.1-.48 2.2-1.13 3.29-2Zm-6.65-3.63a11.9 11.9 0 0 1 6.32 3.3c-1.04.82-2.1 1.45-3.14 1.9-1-2.3-2.26-4.13-3.18-5.2Zm-10.5 3.3a11.9 11.9 0 0 1 6.1-3.25 33.3 33.3 0 0 0-2.69 5.08l-.02.05a14.48 14.48 0 0 1-3.39-1.89Zm-3.5 8.19c.06-3.04 1.25-5.8 3.18-7.86.87.67 2.08 1.4 3.54 1.97-.77 1.92-1.35 4-1.39 5.89h-5.34Zm3.23 8.43a11.88 11.88 0 0 1-3.24-7.97h5.34l.01.16c.1 2.1.52 4.13 1.06 5.9-1.32.56-2.4 1.26-3.17 1.9Zm5.67 3.36a11.9 11.9 0 0 1-5.34-3.03c.73-.61 1.74-1.27 2.98-1.8l.35 1a15.66 15.66 0 0 0 2 3.83Z" fill="#fff"/><path d="m23.6 13.62-.1-.77a.1.1 0 0 1 .1-.1h.25a.1.1 0 0 1 .1.1l-.07.92c0 .06-.03.1-.08.12l-.13.06a.12.12 0 0 0 .09.23l.56-.16h.04c.02 0 .03 0 .04.02l.05.05a.1.1 0 0 1-.04.17l-2.08.7a.12.12 0 0 1-.16-.07.12.12 0 0 1 .08-.16l.5-.21a.1.1 0 0 0 .06-.13l-.02-.08c-.02-.08-.06-.1-.13-.06l-.11.07c-.04.02-.08.01-.1-.03l-.54-.79c-.04-.05-.03-.08.02-.12l.13-.09a.13.13 0 0 1 .19.04l.32.52a.03.03 0 0 0 .05-.03l-.32-1.07a.1.1 0 0 1 .06-.12l.14-.04c.05-.02.09 0 .1.05.26.83.45 1.4.57 1.69.01.04.06.05.13.02a.06.06 0 0 0 .04-.07l-.55-1.65c-.03-.06 0-.1.05-.14l.13-.05c.07-.04.12-.02.15.06l.38 1.14a.05.05 0 0 0 .1-.02ZM30.68 14.06l.01-.03.25-2.13a.04.04 0 0 0-.02-.05h-.01l-2.07-.24h-.03l-.02.04-.24 2.13a.04.04 0 0 0 0 .03l.03.02 2.07.24.03-.01Zm-1.5-2.04.61.05h.02l.01.01v.04c0 .04-.02.07-.06.1a.2.2 0 0 1-.13.03l-.32-.03a.2.2 0 0 1-.13-.05.13.13 0 0 1-.04-.1v-.04h.01a.03.03 0 0 1 .03-.01Zm1.31.24a.1.1 0 0 1-.04.07.1.1 0 0 1-.08.02.16.16 0 0 1-.09-.07.16.16 0 0 1-.03-.1.1.1 0 0 1 .04-.07.1.1 0 0 1 .09-.02c.03.01.06.04.08.07.02.03.04.06.03.1ZM29 13.4a1 1 0 0 1 .11-.36c-.02.15 0 .27.06.34l.01.01c.04.03.08.03.12 0l.36-.33a.05.05 0 0 1 .03-.01.04.04 0 0 1 .04.06c-.13.3-.35.43-.66.4h-.03v-.01m.07-.46a.5.5 0 0 1 0-.42c.03-.06.08-.09.14-.08l.2.01h.02c.09.02.1.05.03.12l-.39.37Zm-.11.36v.02-.02Zm0 .02v.02-.02Zm.02.06a.08.08 0 0 1-.02-.04m1.45-.73a.04.04 0 0 1 0 .02l-.11.87a.04.04 0 0 1-.01.01.04.04 0 0 1-.02.02h-.02l-.19-.02a.04.04 0 0 1-.01 0v-.01h-.01v-.01l-.01-.01v-.02l.11-.87a.04.04 0 0 1 .03-.03h.02l.19.02h.01l.01.02v.01ZM26.63 13.05l.8-.08a1.58 1.58 0 0 1-.15-1.11.07.07 0 0 0-.01-.06.07.07 0 0 0-.06-.03l-.54.06a.1.1 0 0 1-.11-.07c-.06-.14-.18-.18-.36-.11a.08.08 0 0 0-.06.07l-.02.13c0 .05-.03.08-.08.08-.1 0-.17-.06-.2-.16a.16.16 0 0 0-.3-.03l-.43.81a.08.08 0 0 0 0 .08.08.08 0 0 0 .07.04h.2c.05 0 .07.02.08.06l.08.45a.08.08 0 0 1-.01.07.08.08 0 0 1-.07.03c-.1 0-.16.05-.2.16a.13.13 0 0 0 .03.12.13.13 0 0 0 .11.04l.4-.06c.1-.02.12 0 .02.07-.12.1-.26.16-.41.2-.05.02-.07.05-.05.1l.05.1a.18.18 0 0 0 .26.08l.54-.34c.06-.03.1-.02.1.05l.03.19a.08.08 0 0 0 .1.06l.15-.03a.13.13 0 0 0 .04-.02.12.12 0 0 0 .05-.1v-.02l-.05-.19a.06.06 0 0 1 .03-.07.06.06 0 0 1 .07 0l.03.02c.22.14.66.43.82.08.04-.1 0-.16-.1-.18l-.38-.07a.05.05 0 0 1-.05-.05.05.05 0 0 1 .05-.05l.34-.05c.03 0 .05-.02.07-.03a.14.14 0 0 0 .04-.05.13.13 0 0 0 .02-.07.12.12 0 0 0-.03-.06c-.01-.02-.04-.04-.1-.06l-.84.07h-.01c-.04 0-.04 0 0-.03l.01-.02.01-.02h.02Zm-.51-.81-.13.01a.07.07 0 0 0-.06.05v.02a.07.07 0 0 0 .06.07c.08 0 .14.02.21.05.11.06.1.1-.02.11h-.03c-.15.01-.24-.05-.26-.2 0-.06 0-.1.04-.15a.2.2 0 0 1 .19-.06.05.05 0 0 1 .04.05l-.01.03a.05.05 0 0 1-.03.02Zm-.1.48a.1.1 0 0 1 .07-.01h.01a.7.7 0 0 1 .1.03.1.1 0 0 1 .04.03c.02.03.02.04-.01.06l-.14.05-.04.01-.03-.01-.02-.02a.09.09 0 0 1-.02-.02v-.02a.1.1 0 0 1 .05-.1ZM33.45 12.62a.99.99 0 0 1-.3.45c-.05.04-.06.03-.04-.02l.16-.48a.09.09 0 0 0 0-.07.09.09 0 0 0-.05-.04l-.68-.23h-.07a9.43 9.43 0 0 0-.24.59c-.15.45-.31.9-.58 1.23a.2.2 0 0 0-.05.14.2.2 0 0 0 .06.13l.05.04a.17.17 0 0 0 .2-.04l.02-.04c.04-.04.08-.03.12.01l.14.18c.05.05.1.07.16.05.17-.04.28.02.35.16a.1.1 0 0 0 .13.05c.3-.12.53-.05.68.23a.1.1 0 0 0 .06.06.1.1 0 0 0 .09-.01l.28-.17.01-.01a.08.08 0 0 0 .03-.06.08.08 0 0 0-.04-.07l-.26-.18a.08.08 0 0 1-.04-.05.09.09 0 0 1 .02-.06l.43-.62a.22.22 0 0 1 .1-.08l.13-.04a.1.1 0 0 0 .06-.1c0-.12-.05-.19-.16-.21a.1.1 0 0 1-.07-.05.1.1 0 0 1 0-.08l.12-.32c.03-.07 0-.12-.07-.14l-.63-.21a.1.1 0 0 0-.03 0 .1.1 0 0 0-.07.03l-.02.03Zm-.68.05c.03 0 .05.02.06.05.01.02.01.04 0 .07a.1.1 0 0 1-.05.05.1.1 0 0 1-.08 0 .09.09 0 0 1-.05-.04.09.09 0 0 1 0-.07.1.1 0 0 1 .05-.05.1.1 0 0 1 .07 0Zm1 .44-.1.25a.13.13 0 0 0 .02.12l.02.04c.05.08.03.1-.05.06l-.2-.1c-.05-.02-.05-.06-.02-.1l.23-.31a.05.05 0 0 1 .08-.01h.01v.05Zm-.78.6c.04.05.05.11.04.2v.1c.02.12 0 .2-.05.27a.16.16 0 0 1-.27-.16l.18-.4v-.02c.03-.05.06-.05.1 0Zm-.73.05c.05-.1.08-.1.1 0l.01.02c.03.12 0 .22-.08.29a.36.36 0 0 1-.03.03.07.07 0 0 1-.04.01.07.07 0 0 1-.07-.05v-.04l.11-.26Zm1.19.05a.07.07 0 0 1 .03.02c.06.05.07.12.03.2a.1.1 0 0 1-.12.04.1.1 0 0 1-.05-.12l.02-.1a.07.07 0 0 1 .06-.04h.03ZM19.38 15.06a.4.4 0 0 1 .2 0c.09.03.09.05 0 .06l-.33.05c-.06.01-.1.05-.1.11l-.02.08c0 .07.02.1.1.09.07-.01.13.01.17.07.04.05.03.08-.03.1-.14.02-.23.1-.26.23a.14.14 0 0 0 .06.14.14.14 0 0 0 .16.01l.6-.37a.06.06 0 0 1 .07.01.06.06 0 0 1 0 .08l-.49.51a.06.06 0 0 0-.01.04c0 .02 0 .04.02.05l.05.06c.13.13.25.12.36-.03l.48-.63a.2.2 0 0 1 .14-.08l.65-.03a.2.2 0 0 0 .02-.39.98.98 0 0 0-.52.08c-.03 0-.05 0-.08-.03a.06.06 0 0 1 0-.06.06.06 0 0 1 .03-.04.97.97 0 0 0 .48-.3.14.14 0 0 0-.18-.22l-.52.3a.07.07 0 0 1-.1-.03l-.32-.58c-.03-.04-.02-.08.03-.1.13-.07.24-.04.32.08a.1.1 0 0 0 .07.05.1.1 0 0 0 .08-.02l.14-.1a.12.12 0 0 0 .03-.16l-.21-.37a.08.08 0 0 0-.05-.03h-.06l-.6.35c-.05.03-.1.02-.14-.04-.06-.09-.13-.12-.21-.08a.35.35 0 0 0-.1.06.28.28 0 0 0-.07.1.16.16 0 0 0-.01.08c0 .03.02.05.04.07.03.03.03.06 0 .12a.21.21 0 0 1-.1.07c-.2.09-.39.2-.57.32-.06.04-.07.08-.03.14l.21.35c.03.05.07.06.12.04.18-.07.24-.2.18-.37a.1.1 0 0 1 .05-.13l.51-.28a.07.07 0 0 1 .1.01.08.08 0 0 1 0 .09c-.05.11-.14.15-.27.12a.18.18 0 0 0-.17.03c-.1.08-.11.16-.05.26.04.05.08.07.13.06Zm.48-.13c.1.06.16.14.14.25 0 .02 0 .04-.03.05a.08.08 0 0 1-.05.02h-.02c-.1-.01-.16-.06-.2-.16a.12.12 0 0 1 .16-.16ZM36.49 15.38a.1.1 0 0 0-.2-.08c-.17.3-.43.5-.77.6a.2.2 0 0 1-.16 0l-.47-.25a.1.1 0 0 1-.06-.1c0-.01 0-.03.02-.04l.4-.66a.11.11 0 0 0 0-.13l-.12-.17c-.03-.04-.02-.07.01-.1l1.05-.75a.09.09 0 0 1 .06-.01c.02 0 .04.01.05.03l.18.22c.04.05.04.09-.02.12-.21.09-.39.22-.53.4a.07.07 0 0 0 .01.1.07.07 0 0 0 .09 0l.58-.44a.1.1 0 0 1 .12-.01l.58.28a.1.1 0 0 1 .04.12 1.48 1.48 0 0 0-.06 1 .08.08 0 0 1 0 .03.08.08 0 0 1-.04.04l-.04.01h-.28a.13.13 0 0 0-.1.06l-.48.68a.15.15 0 0 1-.2.05l-.28-.15a.16.16 0 0 1-.08-.16.15.15 0 0 1 .13-.13c.3-.05.49-.24.57-.56Zm0-.5c.07.06.14.12.23.17l.02.01c.04.03.07.02.08-.04l.13-.54v-.02a.04.04 0 0 0-.06-.02l-.46.3c-.05.03-.05.07-.01.1a.1.1 0 0 0 .06.03Zm-.5.19-.21-.2-.02-.01h-.01a.04.04 0 0 0-.03 0l-.02.03a2.3 2.3 0 0 0-.33.42c-.06.1-.07.18-.04.21l.01.02c.02.01.05.02.09 0a.6.6 0 0 0 .15-.07 1.77 1.77 0 0 0 .21-.16l.18-.17.01-.01.01-.01a.04.04 0 0 0 0-.05ZM16.97 17.63l.39.73c.04.08.02.13-.06.16l-.24.1c-.06.01-.1 0-.1-.07-.1-.57-.44-.9-.9-1.33l-.2-.2c-.06-.05-.06-.1-.01-.15l1.3-1.26c.03-.04.08-.05.12-.02.08.04.11.1.1.16 0 .04-.02.1-.07.14l-.95.95c-.04.04-.04.08 0 .12l.21.27a.11.11 0 0 0 .08.04.1.1 0 0 0 .08-.03l1.1-1.01a.12.12 0 0 1 .2.1.3.3 0 0 0 .1.3.1.1 0 0 1 .04.11l-.05.2a.07.07 0 0 0 .1.08l.4-.18c.04-.02.07 0 .1.04.1.2.05.36-.14.44-.38.16-.79.13-1.21-.08-.08-.04-.1-.02-.06.06.05.1.11.17.2.22.06.04.1.03.15-.01a.22.22 0 0 1 .23-.06c.05.01.08.05.06.1l-.12.52a.16.16 0 0 1-.11.12.17.17 0 0 1-.17-.05l-.52-.54a.03.03 0 0 0-.04 0 .03.03 0 0 0-.01.01v.02Zm.72-.8a.4.4 0 0 0-.1.09c-.02.01-.02.03-.02.04l.02.04.05.03.05-.02.07-.08a.06.06 0 0 0-.03-.1.06.06 0 0 0-.04 0Z" fill="#fff"/><path d="m16.5 16.86.85-.8a.14.14 0 0 1 .2 0v.01c.06.06.06.15 0 .2l-.86.8a.14.14 0 0 1-.2-.22ZM38.21 18.03c.1-.1.22-.1.34-.01a.05.05 0 0 0 .09-.04l-.02-.04-.38-.4a.08.08 0 0 0-.06-.02.09.09 0 0 0-.06.02l-.2.2a.1.1 0 0 1-.11.03c-.12-.04-.18-.11-.18-.21 0-.07.03-.13.1-.2a72.9 72.9 0 0 1 .44-.42v-.04a.06.06 0 0 0-.06-.04c-.2-.02-.3-.15-.25-.4 0-.03.03-.05.07-.05h.8a.07.07 0 0 0 .07-.05.07.07 0 0 0-.02-.08l-.3-.3a.11.11 0 0 1 0-.15l.09-.09a.1.1 0 0 1 .07-.03.1.1 0 0 1 .06.03l.45.44a.13.13 0 0 0 .13.04l.13-.05c.06-.01.11 0 .16.02.18.12.21.24.08.37a.07.07 0 0 0-.03.06.07.07 0 0 0 .03.05l.63.64a.1.1 0 0 1-.02.14l-.08.05c-.05.04-.1.03-.16-.01l-.83-.8h-.04a.59.59 0 0 1-.04.05v.03l.6.58a.12.12 0 0 1 .02.04.11.11 0 0 1 0 .09l-.03.03-1 .94a.13.13 0 0 1-.12.04.6.6 0 0 1-.39-.3.14.14 0 0 1 .02-.16Zm.98-.64c.02-.01 0-.04-.03-.09l-.14-.15-.01-.01c-.12-.12-.23-.2-.26-.18 0 .01 0 .04.04.09a1.45 1.45 0 0 0 .38.34h.02Zm-.4.25c.05.03.08.05.1.04l-.01-.03a1.64 1.64 0 0 0-.18-.22v-.01a1.47 1.47 0 0 0-.17-.15c-.05-.03-.08-.05-.09-.04v.03l.04.06v.01l.14.16.17.15ZM15.85 19.07l-.52-.32a.4.4 0 0 1-.11-.1c-.14-.2-.31-.33-.52-.42-.05-.03-.1-.01-.12.03l-1.05 1.66a.1.1 0 0 0 .12.15c.22-.06.32 0 .3.2a.09.09 0 0 0 .1.08c.5-.02.83.2 1 .69a.1.1 0 0 0 .09.07l.41.04c.05 0 .08 0 .1-.05.12-.27.19-.54.2-.83 0-.06.02-.1.06-.13l.7-.55a.09.09 0 0 0 .01-.12l-.26-.37a.1.1 0 0 0-.11-.04l-.22.05a.24.24 0 0 1-.18-.04Zm-1.4.25a.1.1 0 0 1-.04 0h-.03l-.03-.02a.09.09 0 0 1 0-.04.12.12 0 0 1 0-.04l.01-.04.03-.04a.13.13 0 0 1 .03-.02l.04-.01h.03a.06.06 0 0 1 .02.02l.01.04v.03a.16.16 0 0 1-.01.06l-.03.03a.13.13 0 0 1-.04.03Z" fill="#fff"/><path fill-rule="evenodd" d="M39.97 19.59c.08.14.2.22.35.24.09 0 .1.03.02.07a.7.7 0 0 1-.27.08.21.21 0 0 0-.08.4l.36.19a.15.15 0 0 0 .22-.15c-.02-.2.07-.32.26-.38.1-.02.12 0 .04.07-.26.26-.4.58-.41.96 0 .06.02.1.08.12l.27.09c.06.02.1 0 .09-.07l-.03-.4a.08.08 0 0 1 .12-.09l.26.12c.05.02.08 0 .11-.03.22-.28.5-.49.83-.62.17-.07.2-.19.1-.34l-.93-1.5a.1.1 0 0 0-.1-.05.1.1 0 0 0-.04.01l-1.74 1.1a.16.16 0 0 0 .08.3c.12 0 .22-.04.3-.13a.07.07 0 0 1 .09-.02l.02.03Zm.35-.24a.06.06 0 0 0 0 .03.06.06 0 0 0 .09.03c.12-.08.23-.19.33-.33a1.37 1.37 0 0 0 .53-.3c.03-.03.01-.04-.04-.03-.1 0-.22.07-.35.18a1.81 1.81 0 0 0-.14.15c-.25.05-.4.14-.42.27Zm.37.35-.01-.02v-.06a.37.37 0 0 1 .07-.08l.11-.1c.05-.04.1-.08.15-.1l.04-.03a1.42 1.42 0 0 1 .34-.16.19.19 0 0 1 .1 0h.01l.02.03-.83.52Zm1.2.2c.01-.01.01-.04 0-.07a.7.7 0 0 0-.06-.16c-.06-.1-.14-.18-.16-.17-.01 0-.02.02-.01.05v.03l.03.07a.95.95 0 0 0 .09.15v.01a.52.52 0 0 0 .07.08l.04.01Zm-.3.18a.02.02 0 0 1-.01.01c-.03.01-.08-.02-.14-.07a.89.89 0 0 1-.12-.14.45.45 0 0 1-.05-.1v-.05c.04-.02.13.03.22.13.08.1.12.2.1.22Z" fill="#fff"/><path d="M14.43 22.24c.12.08.15.18.08.3-.02.03-.05.04-.08.03l-.6-.18a.11.11 0 0 1-.08-.1l-.08-.65a.1.1 0 0 0-.01-.04.1.1 0 0 0-.07-.05.1.1 0 0 0-.04 0l-.28.08c-.06.02-.08.06-.06.13l.13.35c.02.07 0 .09-.07.06l-.55-.2a.11.11 0 0 0-.14.07l-.06.19c-.02.06 0 .1.06.13l1.92.67a.14.14 0 0 0 .15-.04c.25-.28.56-1.04-.05-1.15a.22.22 0 0 0-.17.4ZM14.2 24l-.05-.35c-.01-.09.02-.12.1-.1l.21.06c.07.01.1-.01.12-.08l.04-.17c0-.07-.01-.11-.07-.13l-2.03-.74c-.06-.02-.1 0-.12.05l-.08.2c-.02.07 0 .1.06.13l.45.16c.06.02.09.06.07.13l-.1.31c-.02.05 0 .1.04.12.12.08.22.08.31-.02.05-.05.07-.12.1-.19a.97.97 0 0 1 .03-.1c.02-.05.05-.06.1-.05l.3.1a.1.1 0 0 1 .08.12l.02.59c0 .06.03.09.1.08l.26-.05c.05 0 .06-.03.06-.07ZM43.21 22.03l-1.14-.29a.08.08 0 0 0-.1.06l-.05.2c-.01.05.01.09.06.1l1.14.29c.05.01.1-.02.1-.06l.05-.2a.08.08 0 0 0-.06-.1ZM41.7 22.81l.21.44c.05.09.1.09.14 0l.06-.11a.09.09 0 0 1 .1-.05c.15.03.2.11.14.25-.05.13-.2.34-.45.61-.04.05-.08.05-.13.01-.15-.1-.17-.23-.08-.39a.13.13 0 0 0 0-.13l-.43-.9a.15.15 0 0 1 .02-.16.15.15 0 0 1 .17-.04 2.4 2.4 0 0 0 1.15.15.09.09 0 0 1 .06.05v.29a.09.09 0 0 1-.03.07.1.1 0 0 1-.08.02l-.81-.16c-.05-.01-.07 0-.05.05ZM43.6 22.67l-.08-.1c-.05-.05-.1-.05-.16 0-.37.3-.65.66-.82 1.1a.09.09 0 0 0 .05.12l.25.1a.1.1 0 0 0 .08 0 .1.1 0 0 0 .05-.07 2 2 0 0 1 .63-1c.05-.05.05-.1 0-.15ZM43.51 25.02l.08-.01c.07 0 .13.04.14.1l.13 1.37c0 .07-.05.13-.11.14h-.08a.12.12 0 0 1-.14-.1l-.13-1.37c0-.07.04-.13.11-.13Z" fill="#fff"/><path d="m42.51 26.79 1.37-.12c.08-.01.12-.05.11-.13l-.12-1.34c0-.03 0-.05.02-.07a.1.1 0 0 1 .06-.04l.12-.02c.08 0 .12.03.13.1l.21 1.75c.01.06-.02.1-.08.1l-2 .23c-.02 0-.05 0-.08-.02a.13.13 0 0 1-.05-.07l-.12-.45c-.02-.06 0-.1.07-.1h.1c.06 0 .1-.02.11-.08l.13-.63a.1.1 0 0 0-.06-.11c-.14-.06-.2-.16-.2-.31.01-.07.05-.11.12-.12l.82-.13a.1.1 0 0 1 .04 0 .1.1 0 0 1 .06.05l.01.03.13 1.15c0 .05-.02.07-.07.08-.27 0-.53.03-.76.06a.2.2 0 0 0-.13.07.07.07 0 0 0 .06.12Zm.3-.93c-.02.1 0 .2.07.27l.03.02c.07.06.1.04.1-.05v-.38a.1.1 0 0 0-.1-.1.1.1 0 0 0-.11.06c-.03.07-.03.13 0 .18ZM12.31 25.44h.06c.34.06.68.1 1.05.09.21 0 .32.1.3.3 0 .04.03.08.08.09.11.02.2-.03.24-.15.07-.14.05-.3-.04-.48a.11.11 0 0 0-.09-.07l-1.52-.17a.18.18 0 0 1-.13-.07l-.14-.19a.1.1 0 0 0-.12-.04.1.1 0 0 0-.07.1l-.2 1.67c0 .05-.02.1-.06.12-.12.1-.09.21.09.31a.13.13 0 0 0 .12.01c.23-.1.31-.26.23-.5a.1.1 0 0 1 0-.04l.1-.86a.14.14 0 0 1 .1-.12Z" fill="#fff"/><path d="M12.34 25.66c0-.08.05-.11.13-.1l.99.11c.06.01.09.04.1.1 0 .13-.07.21-.2.26a.07.07 0 0 0 0 .13c.13.06.18.17.13.32-.01.05-.04.07-.1.07l-1.06-.1a.08.08 0 0 1-.02 0h-.02a.1.1 0 0 1-.03-.03.1.1 0 0 1-.02-.03v-.05l.1-.68Zm.68.4c0-.04-.04-.07-.11-.1a.4.4 0 0 0-.07 0c-.06-.02-.1-.01-.15 0-.03.01-.05.03-.06.05v.01l.01.03.04.03a.23.23 0 0 0 .06.03l.07.01c.06.01.1 0 .14 0 .04-.02.07-.04.07-.06ZM13.04 26.62l.78.32a.08.08 0 0 1 .03.02.08.08 0 0 1 0 .11l-.17.2a.08.08 0 0 1-.1.01l-.75-.36a.08.08 0 0 1-.05-.06.08.08 0 0 1 .02-.07l.15-.15a.08.08 0 0 1 .1-.02ZM12.25 27.14c-.09-.07-.08-.24.02-.37.1-.12.26-.17.35-.1.1.08.09.24-.02.37-.1.13-.26.17-.35.1Z" fill="#fff"/><path d="m28.48 18.62-.82-.1c-.75 0-1.77.15-2.04.95a.14.14 0 0 0 .14.19c.03 0 .06-.02.09-.04a2.62 2.62 0 0 1 1.86-.6c1.12.04 2.18.56 3.07 1.21.65.48 1.05.7 1.8.41a.23.23 0 0 0 .14-.23c-.04-.34-.23-.51-.56-.5a.18.18 0 0 0-.15.07l-.17.25a.2.2 0 0 1-.3.04l-.6-.5a7.13 7.13 0 0 0-2.46-1.15Z" fill="url(#bnq1j1dp5)"/><path d="m25.28 22.49.7-.2c.14-.03.27-.08.41-.14.52-.23.63-1.25-.07-1.24-.38.02-.79-.03-1.23-.12-.36-.08-.4-.22-.3-.55a.2.2 0 0 1 .1-.12.2.2 0 0 1 .16 0l.67.3.03.01c.27.28.59.36.96.22a.18.18 0 0 0-.04-.35c-.5-.05-.9-.27-1.2-.66a.2.2 0 0 0-.1-.08 1.19 1.19 0 0 0-.83.05.22.22 0 0 0-.13.14l-.36 1.08a.19.19 0 0 1-.12.12l-.3.08h-.71l-.52.16-.31.34a2.4 2.4 0 0 1-1.15.02.08.08 0 0 0-.06.06.9.9 0 0 0 .13.69.13.13 0 0 0 .14.05c.42-.1.8-.01 1.15.26.15-.22.3-.38.47-.47.22-.1.4-.12.56-.07l.44-.08 1.71-.3a.08.08 0 0 1 .1.06.08.08 0 0 1-.05.1l-1.4.52a.97.97 0 0 1-1 .22.18.18 0 0 1-.13.07 1.3 1.3 0 0 0-.5.28.22.22 0 0 1-.13.05l-.18.02c-.23.04-.47.03-.71-.03a.12.12 0 0 0-.14.06.12.12 0 0 0 .02.14c.11.14.36.23.72.3l.94-.54a.04.04 0 0 1 .03 0 .04.04 0 0 1 .03.03l.01.03c.01.03 0 .05-.02.07-.23.2-.4.44-.52.73a.15.15 0 0 1-.11.09l-.3.07a.12.12 0 0 0-.09.1c-.02.13.04.23.2.3.26-.04.5-.11.75-.19.28-.08.56-.17.86-.18l.47.01c.4.02.8.04 1.16-.11.28-.13.56-.29.83-.49l.32-.22c.36-.25.73-.52 1.08-.44.06.01.09.05.07.11-.03.11-.1.2-.2.27a.16.16 0 0 0-.07.14l-.01.28c.35.07.68-.03.98-.29.17-.19.23-.43.17-.72a.17.17 0 0 0-.1-.12c-.27-.15-.63-.17-1.07-.05l-.3.12c-.3.3-.6.46-.91.46a2.8 2.8 0 0 1-2.65.59c-.09-.09.03-.2.34-.36.4-.3.83-.53 1.3-.68Zm-1.1-1.17 1.95-.14a.07.07 0 0 1 .08.09v.05c-.01.03-.03.05-.06.04-.42-.02-.82.02-1.22.14a.9.9 0 0 1-.78-.08.06.06 0 0 1-.02-.02v-.04a.06.06 0 0 1 .05-.04Z" fill="url(#cnq1j1dp5)"/><path d="m27.84 20.7-.18-.01a.35.35 0 0 1-.22-.6l.37-.37a2.09 2.09 0 0 1 1.77.23c.04.03.05.06 0 .09-.53.38-1.11.6-1.73.66Zm.73-.63c0-.02-.02-.03-.04-.05a.21.21 0 0 0-.07-.02l-.1-.01a.74.74 0 0 0-.34.09.21.21 0 0 0-.06.05l-.02.06.04.04.07.03h.1a.74.74 0 0 0 .34-.09.21.21 0 0 0 .06-.05l.02-.05Z" fill="url(#dnq1j1dp5)"/><path d="m24.97 20.52.04.03.22.07a.08.08 0 0 0 .1-.04.08.08 0 0 0-.03-.1.42.42 0 0 0-.27-.07.07.07 0 0 0-.06.11Z" fill="#FF5A1A"/><path d="M34.06 21.64c-.14.6-.5.92-1.1.95a.25.25 0 0 0-.23.23c-.02.14.06.22.22.22a6.43 6.43 0 0 0 .71.02c.41.13.5.3.25.5l-.94.22a.1.1 0 0 0-.08.1.1.1 0 0 0 .07.09l.67.18c.06.02.09.06.1.12 0 .08-.03.14-.12.17-.05 0-.12-.02-.19-.04-.45-.08-1.2-.23-1.2.35-.89 1.73-3.7 1.7-5.35 1.57l-.57-.26a.1.1 0 0 0-.13.03l-.54.57-.38.07c-.2.03-.4.06-.56.17a2 2 0 0 0-.73 1.06c-.21 1.02.1 1.86.95 2.54l1.12.52a.27.27 0 0 0 .27-.02l1.45-.99.44-.2.56-.18c.45-.04.88-.16 1.3-.38.52-.1 1-.09 1.46.06.6.2 1.04.7 1.47 1.19.28.31.55.62.86.85.25.16.48.2.7.14.43.08.78.02 1.04-.17a.12.12 0 0 0 .03-.17l-.34-.4a.1.1 0 0 1-.02-.07v-.06c.38-.77 1.47.55.44 1.22-.22.14-.55.15-.88.15-.2 0-.4.01-.57.04l-.03.11a.1.1 0 0 0 .1.13h1.11l.66.04a.08.08 0 0 1 .07.04.09.09 0 0 1 0 .07c-.32.79-1.42.55-2.04.35-.06-.01-.1 0-.1.06l-.07.21c-.02.07 0 .12.08.13l1.13.2a.27.27 0 0 1 .2.35.27.27 0 0 1-.07.13c-.13.11-.3.13-.5.06-.38-.2-.66-.24-.82-.12l-.4 1.03-.17.39a2.6 2.6 0 0 1-.9 1.03c-.73.56-1.47.8-2.2.74l-.73-.03-1.36-.4-.36-.17-.02-.02c-.27-.2-1.15-.9-1.4-.42a.3.3 0 0 0 .14.4c.15.07.28.18.4.32 0 .34-.4.34-.69.33h-.13c-.62-.41-.72-.88-.3-1.4a.3.3 0 0 0-.12-.45c-.35-.14-.62-.08-1 .05-.5.17-.99.23-1.46.16l-.57-.05a.72.72 0 0 0-.44-.35l-.29-.34c-.34-.53-.37-1.05-.09-1.56l.57-.41c1.14-.57 1.82.97.74 1.1-.06 0-.1-.02-.11-.08l-.15-.65c-.01-.05-.04-.07-.09-.06-.18.04-.27.16-.26.37-.43.5-.2 1.11.4 1.3.5.17 1 .18 1.5.04 1.49-.44 2.08-.32 3.32.7l.5.3c1.54.72 3.46.49 4.1-1.33.1-.09.14-.23.15-.43-.02-.02-.01-.07 0-.14-.06-.5-.25-.83-.46-1.2a9.03 9.03 0 0 1-.24-.49l.03-.7a.06.06 0 0 0 0-.04.05.05 0 0 0-.06-.02.05.05 0 0 0-.04.02v.02l-.23.67a.16.16 0 0 1-.09.1c-.55.26-.9.15-1.26.04a2.11 2.11 0 0 0-.81-.14c-.06 0-.08.03-.05.08l.15.3a.17.17 0 0 0 .1.07c.76.22 1.35.55 1.77 1l-.27.41c-.17.12-.27.26-.36.4-.18.25-.33.46-.98.33l-.1.55a.13.13 0 0 1-.1.1l-.88.13a.2.2 0 0 1-.22-.24.2.2 0 0 1 .06-.11c.11-.1.2-.24.26-.4a.15.15 0 0 0-.05-.17.15.15 0 0 0-.17 0l-.44.27-.13.01c-.11 0-.16-.04-.13-.11.15-.16.15-.27 0-.32a.43.43 0 0 0-.36 0 .11.11 0 0 1-.15-.15c.08-.15.2-.27.34-.36l.56.12c.33.3.7.49 1.1.54.4-.17.68-.42.85-.77.08-.14.1-.23.03-.26a4.1 4.1 0 0 0-2.47-.51c-.05 0-.1-.01-.11-.07-.32-.71-.1-1.26.67-1.65.16-.06.39-.1.63-.14.52-.1 1.11-.2 1.38-.5-.63-.2-1.3-.16-2 .11-.76.3-1.1.69-1.27 1.46.01.46-.08.83-.27 1.1-.32.09-.61.1-.89.06l-.52-.2c-.39-.15-.76-.29-1.1-.53a5.61 5.61 0 0 1-1.85-1.84l-.38-.88a4.37 4.37 0 0 1 .05-1.98c.43-1.9 1.36-3 3.22-3.26a5 5 0 0 1 1.95.1c1.55.37 4.14.5 3.98-1.91-.07-.96-1.17-1.48-1.95-1.84a.25.25 0 0 1-.14-.28c.21-.99 2.77.77 3.38 1.19a15.71 15.71 0 0 0 .16.1l.07-.01c.32-.08.56-.32.78-.55l.14-.15c.04-.04.09-.04.13 0 .11.07.2.2.26.38Z" fill="url(#enq1j1dp5)"/><path d="M28.6 20.9a3.57 3.57 0 0 0-.9-.02h-.46a.15.15 0 0 0-.13.07.5.5 0 0 0 0 .57c.04.04.07.07.12.08.14.04.26.02.37-.04 1.24-.3 2.07.1 2.49 1.17a.26.26 0 0 1-.24.34h-.59a.2.2 0 0 0-.2.25c.1.35.35.59.79.72.3 0 .42-.16.54-.33.07-.1.14-.2.25-.27.71-1.06-1.14-2.26-2.04-2.54Z" fill="url(#fnq1j1dp5)"/><path d="M35.98 24.1c-.24.18-.4.35-.45.5l-.3.33c-.21.1-.31.3-.3.61-.05.27.04.42.25.47a.18.18 0 0 0 .14-.03c1.05-.64 1.51.08 1.96.8.17.26.33.52.52.71a.08.08 0 0 1 .02.1.07.07 0 0 1-.08.03l-.34-.04a.05.05 0 0 0-.04.02.05.05 0 0 0-.01.03v.06c0 .04.02.07.06.08l.24.05c.01.25.19.37.51.34l-.85.07a.09.09 0 0 0-.08.07.09.09 0 0 0 .05.1c.14.06.23.16.27.3-.08.08-.22.09-.4.03l-.8-.58c.04-.09.05-.2.02-.34.18-.46.12-.83-.16-1.1-.5-.21-.87-.07-1.08.42l.1 1.03.08.7a1.4 1.4 0 0 1-.67 1.48l-.23.17c-.14.12-.28.23-.44.3a.1.1 0 0 1-.12-.03l-1.16-1.33c-.1-.12-.08-.2.07-.26a3.71 3.71 0 0 0 1.42-1.02c.17-.53.16-1.04-.02-1.54l-.16-.86c.12-.38.27-.65.46-.8l.15-.15c.39-.37.95-.91.4-1.35-.14-.12-.17-.25-.08-.38a.21.21 0 0 1 .28-.06c.47.29.73.64.77 1.07Z" fill="url(#gnq1j1dp5)"/><path d="m20.84 25.35.43-.36c.14-.2.19-.38.14-.5a.19.19 0 0 0-.36.02c-.03.2-.15.28-.34.25a.09.09 0 0 1-.07-.13l.29-.47c.02-.05.04-.1.04-.14a.6.6 0 0 0-.22-.54.16.16 0 0 0-.26.17c.08.26.04.5-.12.7a.1.1 0 0 1-.17-.05v-.05c.01-.45.03-1.13-.7-.86-.16.06-.16.14-.02.23l.2.13c.06.03.08.09.06.16l-.21.69a.22.22 0 0 0 0 .13c.08.3.12.51.02.83-.26.76-.3 1.52-.1 2.27.08.12.13.23.14.33.12.05.18.14.18.27.03.83.09 1.65.17 2.45.14 1.3.8 1.9 1.96 1.78.17-.1.28-.28.34-.52l-.07-.76a.9.9 0 0 0-.3-.28c-.08-.03-.12 0-.13.07l-.09.67c-.34.12-.57.01-.7-.34-.65-1.71 0-2.83.93-4.35l.1-.23c.22-.46.56-1.2.18-1.46l-.65.5-.97.98a.14.14 0 0 1-.18.01.13.13 0 0 1-.04-.05c-.26-.56-.21-1.39.52-1.55Z" fill="url(#hnq1j1dp5)"/><path d="M33.18 26.61c-.06 1.2-.83 1.7-2.31 1.46l-.89-.04c-.51 0-.84.15-1.17.3-.21.1-.42.2-.69.27-.63.15-.84.6-.8 1.23-.57.37-.74-.56-.32-.92a.08.08 0 0 0-.05-.14c-.08 0-.14.03-.18.1-.22.42-.28.88-.2 1.35.01.07-.02.1-.08.12a.44.44 0 0 1-.4-.12.16.16 0 0 1-.05-.1c-.03-.28 0-.56.1-.83a.07.07 0 0 0-.01-.08l-.04-.04c-.04-.03-.07-.03-.08.02l-.28.86a.12.12 0 0 1-.23 0c-.17-.71.17-1.22.7-1.85.7-.03 1.42-.16 2.15-.4.15-.05.3-.08.44-.11.3-.06.59-.12.8-.38a2.3 2.3 0 0 0-1.42-.18 10.77 10.77 0 0 1-2.19.58.25.25 0 0 1-.19-.22 1.2 1.2 0 0 1 .26-.86.21.21 0 0 1 .17-.08c.17 0 .33.04.48.07.22.04.42.08.63.07.85-.06 1.65-.03 2.4.01.56.03 1.1.05 1.6.03.05 0 .06.02.03.07l-.17.22a.34.34 0 0 0 .2.54c.51.09.9-.06 1.2-.46a.29.29 0 0 0-.07-.4l-.5-.35c-.05-.03-.05-.07-.01-.11.41-.45.95-.12 1.17.37Z" fill="url(#inq1j1dp5)"/><path d="M36.16 41.39a17.28 17.28 0 0 1-8.16 2.3c-10.31-.12-14.46-7.63-15.24-11.41l.9-.19c.73 3.5 4.6 10.56 14.34 10.67 1.9-.01 4.92-.56 7.7-2.17a13 13 0 0 0 6.3-8.51l.9.21a13.92 13.92 0 0 1-6.74 9.1Z" fill="#fff" fill-opacity=".8"/><defs><linearGradient id="anq1j1dp5" x1="34.75" y1="17.77" x2="20.91" y2="38.9" gradientUnits="userSpaceOnUse"><stop stop-color="#9DD2E6"/><stop offset=".32" stop-color="#CEE6F2"/><stop offset="1" stop-color="#357AC0"/></linearGradient><linearGradient id="bnq1j1dp5" x1="28.74" y1="18.52" x2="28.74" y2="36.99" gradientUnits="userSpaceOnUse"><stop stop-color="#F06F11"/><stop offset=".43" stop-color="#D5F041"/></linearGradient><linearGradient id="cnq1j1dp5" x1="28.74" y1="18.52" x2="28.74" y2="36.99" gradientUnits="userSpaceOnUse"><stop stop-color="#F06F11"/><stop offset=".43" stop-color="#D5F041"/></linearGradient><linearGradient id="dnq1j1dp5" x1="28.74" y1="18.52" x2="28.74" y2="36.99" gradientUnits="userSpaceOnUse"><stop stop-color="#F06F11"/><stop offset=".43" stop-color="#D5F041"/></linearGradient><linearGradient id="enq1j1dp5" x1="28.74" y1="18.52" x2="28.74" y2="36.99" gradientUnits="userSpaceOnUse"><stop stop-color="#F06F11"/><stop offset=".43" stop-color="#D5F041"/><stop offset="1" stop-color="#FF5A1A"/></linearGradient><linearGradient id="fnq1j1dp5" x1="28.74" y1="18.52" x2="28.74" y2="36.99" gradientUnits="userSpaceOnUse"><stop stop-color="#F06F11"/><stop offset=".43" stop-color="#D5F041"/></linearGradient><linearGradient id="gnq1j1dp5" x1="28.74" y1="18.52" x2="28.74" y2="36.99" gradientUnits="userSpaceOnUse"><stop stop-color="#F06F11"/><stop offset=".43" stop-color="#D5F041"/><stop offset="1" stop-color="#FF5A1A"/></linearGradient><linearGradient id="hnq1j1dp5" x1="28.74" y1="18.52" x2="28.74" y2="36.99" gradientUnits="userSpaceOnUse"><stop stop-color="#F06F11"/><stop offset=".43" stop-color="#D5F041"/><stop offset="1" stop-color="#FF5A1A"/></linearGradient><linearGradient id="inq1j1dp5" x1="28.74" y1="18.52" x2="28.74" y2="36.99" gradientUnits="userSpaceOnUse"><stop stop-color="#F06F11"/><stop offset=".43" stop-color="#D5F041"/><stop offset="1" stop-color="#FF5A1A"/></linearGradient></defs></svg>