<!-- by TradingView --><svg width="56" height="56" viewBox="0 0 56 56" xmlns="http://www.w3.org/2000/svg"><path fill="url(#a)" d="M0 0h56v56H0z"/><path d="M12 20H8v15.96h3.34c.37 0 .66-.3.66-.67V30h7.67c.4-.06.67-.36.76-.5L22 26V36h3.34c.37 0 .66-.3.66-.67v-7.79L29.92 36h2.95L37 27.07V36h3.34c.37 0 .66-.3.66-.67V20h-4.2l-5.41 12.25L26 20.02V20h-4v6H12v-6Zm32 0h4v15.33c0 .37-.3.67-.66.67H44V20Z" fill="#fff"/><defs><linearGradient id="a" x1="10.42" y1="9.71" x2="68.15" y2="76.02" gradientUnits="userSpaceOnUse"><stop stop-color="#1A1E21"/><stop offset="1" stop-color="#06060A"/></linearGradient></defs></svg>