<!-- by TradingView --><svg width="56" height="56" viewBox="0 0 56 56" xmlns="http://www.w3.org/2000/svg"><path fill="#181B1E" d="M0 0h56v56H0z"/><path d="M46 23v.5h-7l-.01-.5H46Zm0-1v-1h-7.58c.19.25.33.58.43 1H46Zm-10.26 0c.03-.42.12-.75.26-1H21.9c.07.17.1.35.1.55V22h13.74ZM22 23v1h15.31c-.77-.32-1.24-.59-1.45-1H22Zm-3.06 0v1H11v-1h7.94Zm0-1v-.45c0-.2.04-.38.1-.55h-7.96a7.6 7.6 0 0 0-.08 1h7.94Zm-7.64-2H46v-1H11.7c-.16.32-.3.65-.4 1Zm1.02-2h16.1c-.39-.3-.91-.65-1.54-1h-13.6c-.35.3-.68.64-.96 1Zm2.52-2h9.92c-1.48-.57-3.22-1-5.08-1-1.86 0-3.5.35-4.84 1Zm14.75 1c-.4.35-.64.7-.79 1h16.98c-.3-.3-.74-.65-1.32-1H29.59Zm12.8-1H31.11c1.22-.57 2.96-1 5.37-1 2.4 0 4.37.43 5.9 1ZM11 25v1h7.94v-1H11Zm11 0v.54h5.94c.04.14.09.3.16.46h13.78a29.08 29.08 0 0 0-2.12-1H22Zm21.5 2H28.68c.24.33.53.67.9 1H44.6c-.31-.37-.68-.7-1.1-1Zm1.77 2H31c.84.46 1.9.82 3.17 1h11.5c-.1-.36-.24-.7-.4-1Zm.62 2h-8.77c.39.28.7.62.91 1H46a9.8 9.8 0 0 0-.1-1Zm.1 2h-7.64l.01.27c0 .27-.02.51-.05.73h7.63c.03-.32.05-.65.05-1Zm-.19 2h-7.85c-.32.5-.79.73-1.26.73-.4 0-.78-.26-1.07-.73H21.9c-.22.58-.77 1-1.43 1-.65 0-1.2-.42-1.43-1h-7.82c.08.33.18.66.31 1h34.04c.09-.31.17-.65.23-1Zm-.6 2H12c.18.34.4.68.66 1h31.97c.21-.3.4-.64.57-1Zm-1.44 2H29.47c1.24.9 3.61 2 7.02 2 2.97 0 5.55-.45 7.27-2ZM27.8 39H13.6c1.33 1.17 3.29 2 6.08 2 3.88 0 6.65-1.1 8.12-2Zm-16.76-5h7.9v-1H11v.27c0 .23.01.47.04.73ZM11 32h7.94v-1H11v1Zm0-2h7.94v-1H11v1Zm0-2h7.94v-1H11v1Zm11 3v1h6.64v-1H22Zm13.1 2H22v1h13.23c-.07-.3-.12-.63-.13-1Z" fill="#fff"/></svg>