<!-- by TradingView --><svg width="56" height="56" viewBox="0 0 56 56" xmlns="http://www.w3.org/2000/svg"><path fill="#ED6D01" d="M0 0h56v56H0z"/><path d="M28.68 28.52c-.03 0-.03 0 0 .02l2.68 1.34c.18.1.3.17.36.24.12.12.16.28.12.46a.48.48 0 0 1-.27.35.51.51 0 0 1-.49 0l-4.64-2.44a.65.65 0 0 1-.17-.16.36.36 0 0 1-.1-.22c-.02-.39.17-.58.56-.59a637.33 637.33 0 0 1 3.76-.02c.1-.02.2-.05.26-.1.12-.09.19-.2.22-.33.02-.08.03-.22.02-.4v-.02a.62.62 0 0 0-.07-.31c-.13-.21-.3-.34-.52-.34h-5.34c-.03 0-.06.03-.06.05v4.21c0 .46-.2.95-.7.65-.2-.12-.3-.31-.3-.57V25.8c0-.23.03-.4.09-.5.06-.13.15-.2.27-.25.1-.04.22-.06.38-.06h5.51a3.13 3.13 0 0 1 .77.12c.89.3 1.07 1.39.9 2.2-.15.66-.52 1.05-1.12 1.16-.22.04-.57.05-1.06.03a10.4 10.4 0 0 0-1.06 0ZM5 25.53v2.64c0 .02.01.03.03.02L11.31 25h.3c.25.12.38.3.39.57a.8.8 0 0 1-.1.23.45.45 0 0 1-.19.17l-.5.26-2.92 1.53c-.04.02-.04.05 0 .07l3.28 2.1c.18.1.3.2.35.3.1.15.1.32 0 .49a.53.53 0 0 1-.3.25.5.5 0 0 1-.44-.04l-3.97-2.54a.1.1 0 0 0-.11 0l-2.03.96a.13.13 0 0 0-.08.13v.95c0 .25-.18.58-.46.56A.6.6 0 0 1 4 30.5v-4.92a.62.62 0 0 1 .42-.58c.4 0 .58.08.58.53Zm39.94-.24c.05.09.06.23.06.44v1.19c0 .23.04.4.1.48.1.16.26.23.5.23h5.36c.02 0 .04 0 .04-.03v-1.9c0-.45.13-.7.58-.7a.6.6 0 0 1 .42.45v4.44c-.12.5-.4.84-.82 1-.17.07-.42.1-.76.1h-5.3a.97.97 0 0 1-.4-.05c-.17-.09-.26-.23-.26-.44 0-.2.07-.35.23-.44.1-.05.24-.06.45-.06h5.25a.7.7 0 0 0 .36-.09c.16-.1.24-.25.25-.45a22.68 22.68 0 0 0-.02-.82h-5.64c-.48 0-.85-.2-1.1-.57a1.4 1.4 0 0 1-.24-.86v-1.56c0-.33.15-.55.43-.65.27 0 .37.02.51.3ZM15 29.46v-.9c0-.03.02-.05.04-.05h5.49a.5.5 0 0 0 .45-.24.86.86 0 0 0 .07-.16.32.32 0 0 0 0-.17.56.56 0 0 0-.26-.4.91.91 0 0 0-.43-.07h-5.33c-.02 0-.03 0-.03-.03v-.7a.89.89 0 0 1 .08-.48c.1-.15.26-.26.5-.26h5.85c.24 0 .41-.06.5-.24a.49.49 0 0 0 0-.47.5.5 0 0 0-.47-.29h-6c-.05 0-.12 0-.2.02a.91.91 0 0 1-.12.02c-.1 0-.17.02-.24.04a1.3 1.3 0 0 0-.84.9 6.4 6.4 0 0 0-.06 1.15v2.39c0 .26.04.48.1.63.14.36.39.6.73.74.17.07.44.1.79.1h5.83c.14 0 .24-.01.3-.06.1-.07.17-.15.21-.26a.48.48 0 0 0-.03-.44c-.1-.18-.29-.23-.55-.23h-5.76a.7.7 0 0 1-.4-.12.5.5 0 0 1-.22-.42Zm23.69-.92a7.2 7.2 0 0 1 1.06-.04c.5.03.85.02 1.07-.02.6-.11.98-.5 1.12-1.17.18-.8 0-1.88-.9-2.19a3.15 3.15 0 0 0-.77-.12h-5.53c-.16 0-.29.02-.38.06a.53.53 0 0 0-.27.24c-.06.1-.09.28-.09.51v4.53c0 .26.1.45.3.57.51.3.7-.19.7-.65v-4.21c0-.02.04-.05.06-.05h5.35c.23 0 .4.13.53.34.04.07.07.17.07.3v.02c0 .2 0 .33-.02.41a.57.57 0 0 1-.22.33.58.58 0 0 1-.26.1c-.1.02-.2.02-.29.02h-3.48c-.4 0-.58.2-.56.6 0 .08.04.15.1.21.05.08.11.13.17.16l4.65 2.44c.16.08.32.08.5 0a.48.48 0 0 0 .26-.35.49.49 0 0 0-.12-.46 1.37 1.37 0 0 0-.36-.24l-2.69-1.34Z" fill="#fff"/></svg>