<!-- by TradingView --><svg width="56" height="56" viewBox="0 0 56 56" xmlns="http://www.w3.org/2000/svg"><path fill="#F0F3FA" d="M0 0h56v56H0z"/><path d="M43.88 30a16 16 0 1 1-2.83-11.26l-5.1 5.03a9 9 0 1 0 .83 6.23h7.1Z" fill="#EE001F"/><path d="M46 28a18 18 0 1 1-3.49-10.65l-.73.69A17 17 0 1 0 45 27.52h1V28Z" fill="#EE001F"/><path fill="#EE001F" d="M28 30h11v4H28zM23 27h23v1H23zM34.95 23.84l6.97-6.97.52.53-6.97 6.96zM29.16 23.84l-3.36-3.37-.53.52 3.37 3.37.52-.52ZM31.1 23.3l-.36-3.69-.74.07.37 3.7.73-.08ZM33.72 23.78l.86-3.6-.72-.18-.86 3.61.72.17ZM27.31 25.8 22.36 23l-.36.64 4.95 2.8.36-.64ZM36.64 24.86 44 21l.36.64L37 25.5l-.36-.64ZM37.06 25.89l7.93-.51.05.74-7.94.5-.04-.73Z"/><path d="M37 28H27a5.14 5.14 0 0 1 10 0Z" fill="#EE001F"/></svg>