<!-- by TradingView --><svg width="56" height="56" viewBox="0 0 56 56" xmlns="http://www.w3.org/2000/svg"><path fill="#F0F3FA" d="M0 0h56v56H0z"/><path d="M44.45 26.34a.05.05 0 0 0 .03.05.05.05 0 0 0 .05 0c.67-.48 1-.78 1.92-.77.5 0 .87.08 1.11.22.65.38.89 1.27.9 1.98.04 1.02.04 2.38.02 4.08 0 .07-.04.1-.1.1h-1.29a.08.08 0 0 1-.05-.02l-.01-.02-.03-.03v-4.1c-.04-.57-.33-.9-.84-.98-.66-.11-1.22.32-1.64.74a.23.23 0 0 0-.07.17v4.16c0 .05-.02.08-.08.08h-1.28a.1.1 0 0 1-.06-.02.08.08 0 0 1-.03-.07v-8.86l.01-.04.04-.01h1.36c.02 0 .04.01.04.04v3.3ZM15.82 23h-.18a.63.63 0 0 0-.64.62v.13c0 .34.29.62.64.61h.19c.35 0 .63-.27.63-.61v-.13a.63.63 0 0 0-.64-.62ZM51.36 23h-.18a.63.63 0 0 0-.64.62v.12c0 .34.29.62.64.62h.18c.35 0 .64-.28.64-.62v-.12a.63.63 0 0 0-.64-.62ZM38.02 30.5c1 .43 1.94.2 2.82-.72.02-.03.04-.03.06 0l.75.89a.06.06 0 0 1 0 .07 3.42 3.42 0 0 1-2.8 1.26c-3.05-.05-4.13-2.79-3.79-5.39.28-2.09 1.75-3.65 3.96-3.6a3.3 3.3 0 0 1 2.41 1.04c.08.08.08.16 0 .23l-.72.72a.11.11 0 0 1-.07.03c-.03 0-.05-.01-.08-.03a3.7 3.7 0 0 0-.86-.59 2.2 2.2 0 0 0-1.89.22c-.56.37-.94.9-1.13 1.62-.35 1.36-.18 3.58 1.34 4.24ZM9.04 25.4l-1.49 6.51c-.01.06-.05.09-.1.09H5.86c-.07 0-.1-.03-.12-.1L4 23.05c0-.03 0-.05.04-.05h1.45c.02 0 .03.01.04.04l1.2 6.98c.02.12.05.12.08 0l1.58-6.92c.02-.07.06-.1.12-.1h1.16c.07 0 .12.04.13.1l1.62 7a.02.02 0 0 0 .02.02.02.02 0 0 0 .01-.01l1.2-7.06c0-.03.03-.05.05-.05h1.34c.04 0 .06.03.05.08l-1.7 8.83c0 .06-.04.09-.1.09h-1.6c-.06 0-.1-.03-.1-.1l-1.51-6.5c-.01-.05-.03-.05-.04 0ZM19.45 25.95c.23-.18.52-.48.78-.62a2.5 2.5 0 0 1 1.9-.24c1.06.27 1.34 1.48 1.35 2.51v4.3c0 .07-.03.1-.1.1h-1.25c-.07 0-.13-.03-.13-.1v-3.76c0-.64 0-1.53-.68-1.74-.7-.22-1.36.26-1.8.79a.27.27 0 0 0-.06.17v4.55c0 .06-.03.09-.09.09H18.1c-.06 0-.09-.03-.09-.1v-6.68c0-.15.07-.22.21-.22h.82c.11 0 .18.05.2.17l.1.73c.01.1.05.11.12.05ZM29.87 26.46l.06.08.08.14c.66 2.15-1.06 3.56-3 3.08-.24-.07-.4.03-.45.29l-.04.18c-.06.25.02.42.25.53.25.11.49.16.72.16 1.07-.03 2.43-.13 3.17.54.6.54.48 1.7.06 2.28-.4.54-.96.9-1.7 1.09-1.52.38-4.64.3-4.01-2.23.06-.24.3-.52.71-.83.05-.04.06-.08.03-.13-.07-.12-.23-.21-.29-.32-.25-.45-.27-.91-.07-1.38.1-.23.33-.41.48-.58.04-.04.04-.09 0-.13a2.52 2.52 0 0 1-.63-2.58c.41-1.32 1.73-1.8 2.96-1.61.52.08.88.12 1.07.12h1.64c.04 0 .05.02.05.06v1.06c0 .03-.01.05-.04.05h-1c-.1 0-.13.04-.05.13Zm-2.19 2.36c.3 0 .6-.14.82-.4.22-.25.34-.6.34-.96s-.12-.7-.34-.95c-.22-.26-.51-.4-.82-.4-.3 0-.6.14-.82.4-.21.25-.34.6-.34.95 0 .36.13.7.34.96.22.26.51.4.82.4Zm-.84 3.28c-.16 0-.3.06-.4.2-1.21 1.78 2.38 2.2 3.1.86.29-.51-.12-.96-.63-.97l-2.07-.09ZM16.36 25H15.1c-.06 0-.1.05-.1.1v6.8c0 .05.04.1.1.1h1.26c.05 0 .1-.05.1-.1v-6.8c0-.05-.05-.1-.1-.1ZM51.9 25h-1.26c-.06 0-.1.05-.1.1v6.8c0 .05.04.1.1.1h1.26c.06 0 .1-.05.1-.1v-6.8c0-.05-.04-.1-.1-.1Z" fill="#2D5A4A"/></svg>