<!-- by TradingView --><svg width="56" height="56" viewBox="0 0 56 56" xmlns="http://www.w3.org/2000/svg"><path fill="#F0F3FA" d="M0 0h56v56H0z"/><path fill-rule="evenodd" d="M43 13H13v30h30V13ZM15 28h3v.76c-.5-.26-1.42-.26-2-.26v1.99h2v.71c-.5-.2-1.42-.2-2-.2v3h-1v-6Zm5 1h-1v5h1v-5Zm8 8h1v5h-1v-5Zm7 0h-1v5h1v-5Zm-13-5.3V34h-1v-5h1.75c.81 0 1.75 0 1.75 1.5 0 .71-.5 1-1.12 1.04.46.8 1.01 1.58 1.55 2.35l.07.1h-1.38l-1.37-2.28H22Zm.75-2.28h-.73L22 31.39h.8c.45 0 .7-.54.7-.89 0-.46-.24-1.08-.75-1.08Zm5.18 1.63c-.61-.27-1.51-1.57-.34-1.6.42 0 .7.16.85.55h.11l.07-.22.05-.13.1-.3a1.82 1.82 0 0 0-1.15-.35c-.87 0-1.62.6-1.62 1.5 0 .68.5 1.12 1.09 1.38.36.17.69.33.9.55.45.5-.1 1.15-.68 1.15-.46 0-.89-.28-.97-.75h-.14c-.05.32-.1.56-.2.89.21.16.63.28 1.14.28.94 0 1.86-.55 1.86-1.56 0-.68-.48-1.13-1.07-1.39Zm3.07-1.5c-.36 0-.65.04-1 .09V29h3v.64c-.34-.06-.65-.1-1-.1V34h-1v-4.46ZM16.97 36H15v6h1v-2.6h.79c1.19 0 1.71-.9 1.71-1.9 0-1-.51-1.5-1.53-1.5Zm-.97.5h.72c.65 0 .78.41.78 1 0 .57 0 1.5-.71 1.5H16v-2.5Zm7 5.5h-1.36l-.54-1.46H19.3L18.76 42H18a72.11 72.11 0 0 0 2.23-5h.59L23 42Zm-2.77-3.6L19.5 40h1.43l-.7-1.6Zm6.59 3.31a4.77 4.77 0 0 1 .15-.6l-.1-.05c-.3.33-.76.53-1.2.53-1.09 0-1.67-1.06-1.67-2.02 0-.9.51-2.14 1.6-2.14.48 0 .81.18 1.15.63h.1c.01-.25.06-.49.15-.72-.4-.23-.9-.34-1.36-.34-1.6 0-2.64.98-2.64 2.57A2.4 2.4 0 0 0 25.46 42c.54 0 1-.1 1.36-.29Zm13.05-.3c-.03.1-.05.2-.05.3-.37.2-.82.29-1.36.29A2.4 2.4 0 0 1 36 39.57c0-1.6 1.04-2.57 2.64-2.57.46 0 .96.11 1.36.34-.09.23-.14.47-.16.72h-.09c-.34-.45-.67-.63-1.14-.63-1.1 0-1.61 1.24-1.61 2.14 0 .96.58 2.02 1.67 2.02.44 0 .9-.2 1.2-.53l.1.06-.1.3ZM33 37h-3v5h1v-2.5c.58 0 1.5 0 2 .2V39h-2v-1.5c.58 0 1.5.06 2 .2V37Z" fill="#007ABF"/></svg>