<!-- by TradingView --><svg width="56" height="56" viewBox="0 0 56 56" xmlns="http://www.w3.org/2000/svg"><path fill="#F0F3FA" d="M0 0h56v56H0z"/><path d="M17.57 16.6 8 39h5.4a1 1 0 0 0 .92-.6l8.9-20.17a1 1 0 0 1 .92-.6h22.54a.82.82 0 1 0 0-1.63H18.5a1 1 0 0 0-.92.6Z" fill="#074994"/><path d="M24.32 19.16 15.95 39h4.84c.74 0 1.41-.44 1.71-1.13l7.47-17.09c.3-.69.98-1.13 1.72-1.13h14.05a.82.82 0 0 0 0-1.65h-19.7c-.74 0-1.42.45-1.72 1.16Z" fill="#074994"/><path d="M31.36 21.17 23.92 39h4.85c.74 0 1.4-.45 1.71-1.14l6.53-15.05c.3-.7.97-1.14 1.71-1.14h5.65a.8.8 0 0 0 .72-.46c.27-.56-.12-1.21-.72-1.21H33.09c-.75 0-1.43.46-1.73 1.17Z" fill="#2095D4"/><path d="M38.62 24.09 34.55 33h4.28c.75 0 1.42-.43 1.72-1.1l3.97-8.9h-4.18c-.74 0-1.41.43-1.72 1.09Z" fill="#2095D4"/></svg>