<!-- by TradingView --><svg width="56" height="56" viewBox="0 0 56 56" xmlns="http://www.w3.org/2000/svg"><path fill="#F0F3FA" d="M0 0h56v56H0z"/><path d="M30 25h1.32l1.9 7h-1.33L30 25ZM35.44 25h1.32l1.9 7h-1.33l-1.89-7Z" fill="#F4623C"/><path d="M36 25h-1.32l-1.89 7h1.33L36 25ZM41.45 25h-1.33l-1.89 7h1.33l1.89-7ZM4 25h1.28l1.84 6.97H5.83L4 25ZM9.18 25h1.28l1.84 6.97H11L9.18 25Z" fill="#F4623C"/><path d="M15 25h-1.28l-1.84 6.97h1.29L15 25ZM9.82 25H8.54L6.7 31.97H8L9.82 25ZM16 25h1v7h-1zM18 25h1.7l2.3 5.75V25h1v7h-1.7L19 26.25V32h-1v-7ZM40 31.97h1.26L43.72 25h-1.25L40 31.97Z" fill="#F4623C"/><path d="M47 31.97h-1.26L43.28 25h1.25L47 31.97Z" fill="#F4623C"/><path d="M41.5 29H45l.5 1H41l.5-1ZM24 27.04c0-1.13.79-2.04 1.76-2.04h3.78v1h-3.78c-.41 0-.75.56-.75 1.04s.34.96.75.96h2.48c.97 0 1.76.83 1.76 1.96S29.21 32 28.24 32H24v-1h4.24c.41 0 .75-.56.75-1.04s-.34-.96-.75-.96h-2.48c-.97 0-1.76-.83-1.76-1.96ZM46 25h1.34l1.7 3.42L50.66 25H52l-2.4 4.74V32h-1.14v-2.26L46 25Z" fill="#F4623C"/></svg>