<!-- by TradingView --><svg width="56" height="56" viewBox="0 0 56 56" xmlns="http://www.w3.org/2000/svg"><path fill="#F0F3FA" d="M0 0h56v56H0z"/><path d="m24.1 23.37-8.04 1.03a.76.76 0 0 1-.85-.64l-.77-6.19a.74.74 0 0 1 .64-.81l4.74-.7 2.66-4.68a.77.77 0 0 1 1-.3l5.93 2.8c.4.18.54.65.33 1.01l-4.51 7.75c-.24.4-.66.67-1.13.73Z" fill="url(#a)"/><path d="M31.98 23.37 40 24.4c.42.05.8-.23.86-.64l.77-6.19a.74.74 0 0 0-.64-.81l-4.74-.7-2.66-4.68a.77.77 0 0 0-1-.3l-5.93 2.8a.73.73 0 0 0-.33 1.01l4.51 7.75c.24.4.65.67 1.13.73Z" fill="url(#b)"/><path d="m28.04 13.22 1.37.65c.4.19.54.66.33 1.02l-1.7 2.92-1.7-2.92a.73.73 0 0 1 .33-1.02l1.37-.65Z" fill="#DE4823"/><path d="m32.12 29.34 3.08 8.79c.1.4.5.64.92.55l6.02-1.4c.4-.1.65-.48.57-.87l-1.37-5.63 3.47-3.56a.72.72 0 0 0-.04-1.01L40 21.78a.78.78 0 0 0-1.1.05l-6.47 6.24c-.3.35-.43.82-.32 1.27Z" fill="url(#c)"/><path d="m41 22.7-.99-.92a.78.78 0 0 0-1.1.05l-2.23 2.15 3.33.42c.42.05.8-.23.86-.64L41 22.7Z" fill="#B0302D"/><path d="m23.88 29.34-3.08 8.79c-.1.4-.5.64-.92.55l-6.02-1.4a.74.74 0 0 1-.57-.87l1.37-5.63-3.47-3.56a.72.72 0 0 1 .04-1.01L16 21.78a.78.78 0 0 1 1.1.05l6.47 6.24c.3.35.43.82.32 1.27Z" fill="url(#d)"/><path d="m19.32 23.98-3.26.42a.76.76 0 0 1-.85-.64l-.14-1.12.92-.86a.78.78 0 0 1 1.1.05l2.23 2.15Z" fill="#45963A"/><path d="m28.58 32.18 8.5 5.16c.4.2.55.64.34 1l-3.16 5.27a.85.85 0 0 1-1.08.31l-5.61-2.74-4.89 2.74a.85.85 0 0 1-1.06-.3l-3.26-6c-.23-.38-.06-.85.36-1.03l8.42-4.43c.46-.2 1-.2 1.44.02Z" fill="url(#e)"/><path d="m34.34 35.68.86 2.45c.1.4.5.64.92.55l1.27-.3.03-.04c.2-.36.06-.8-.34-1l-2.74-1.66Z" fill="#3250A8"/><path d="m21.93 34.9-1.13 3.23c-.1.4-.5.64-.92.55l-1.08-.25-.44-.82c-.23-.37-.06-.84.36-1.02l3.21-1.7Z" fill="#2C672C"/><defs><linearGradient id="a" x1="17.88" y1="17.7" x2="22.41" y2="23.86" gradientUnits="userSpaceOnUse"><stop stop-color="#EB9123"/><stop offset="1" stop-color="#EBC548"/></linearGradient><linearGradient id="b" x1="38.09" y1="17.34" x2="34.14" y2="24.52" gradientUnits="userSpaceOnUse"><stop stop-color="#E15D1F"/><stop offset="1" stop-color="#DF9C45"/></linearGradient><linearGradient id="c" x1="32.36" y1="28.8" x2="41.5" y2="31.26" gradientUnits="userSpaceOnUse"><stop stop-color="#ED6974"/><stop offset=".61" stop-color="#DD323A"/><stop offset="1" stop-color="#DB1934"/></linearGradient><linearGradient id="d" x1="12.84" y1="31.01" x2="23.02" y2="30.08" gradientUnits="userSpaceOnUse"><stop stop-color="#55B337"/><stop offset="1" stop-color="#7EC464"/></linearGradient><linearGradient id="e" x1="27.88" y1="32.01" x2="27.88" y2="44" gradientUnits="userSpaceOnUse"><stop stop-color="#9EADCE"/><stop offset=".83" stop-color="#3B64B3"/></linearGradient></defs></svg>