<!-- by TradingView --><svg width="56" height="56" viewBox="0 0 56 56" xmlns="http://www.w3.org/2000/svg"><path fill="#181B1E" d="M0 0h56v56H0z"/><circle cx="28" cy="28" r="17" fill="#FDFFFC"/><path fill-rule="evenodd" d="M28 44a16 16 0 1 0 0-32 16 16 0 0 0 0 32Zm0-1a15 15 0 0 0 14.11-9.9c-.68-.3-2.25-.6-5.33-.6-2.88 0-7.77.55-12.26 1.05-3.53.4-6.82.77-8.7.83a6.46 6.46 0 0 1-1.63-3.01c.17.2 1.07.58 3.3.58 2.23 0 3.53-.39 3.9-.58.56-.49 1.83-1.76 2.44-2.96h3.99L27.35 30h1.8l1.54-3h-1.76l-.6.53H24.3c.92-1.16 2.75-4.17 2.75-6.97 0-2.04-1.1-3.86-1.55-4.56 1.11.57 3.7 3.26 4.2 7h1.85c.21-1.43-.36-6.04-5.4-9.89A15 15 0 0 0 28 43Zm9.5-15c1.32-.28 3.9-.5 5.5.17V28a15 15 0 0 0-16.4-14.94c3.93.57 10.64 4.16 10.9 14.94Zm1.04 8.5L40 35.17c-.01-.28-1.34-1.17-6.53-1.17-1.68 0-3.58.23-5.55.48-2.1.25-4.26.52-6.3.52H16l.12.19c.26.44.7 1.17 1 1.31 5.95-.64 18.57-1.54 21.42 0ZM37 38.45 35.03 40c-1.62-1.8-11.27-1.91-14.9-1.95-.78 0-1.28-.01-1.36-.03-.34-.09-.66-.72-.77-1.02h12.74c3.09 0 5.46.96 6.26 1.45ZM29.43 42A4.3 4.3 0 0 1 32 40.49a13.27 13.27 0 0 0-9-1.17c2.09.1 6.3.77 6.43 2.68Z" fill="url(#a)"/><defs><linearGradient id="a" x1="43.66" y1="28" x2="12.34" y2="28" gradientUnits="userSpaceOnUse"><stop stop-color="#20237B"/><stop offset="1" stop-color="#4A4458"/></linearGradient></defs></svg>