<!-- by TradingView --><svg width="56" height="56" viewBox="0 0 56 56" xmlns="http://www.w3.org/2000/svg"><path fill="#F0F3FA" d="M0 0h56v56H0z"/><path d="M30.9 30.86c1-1.17 1.76-2.47 2.26-3.92.56-1.63.66-3.1.31-4.43a7.34 7.34 0 0 0-1.33-2.73c-2.13-2.69-4.99-3.6-8.56-2.75-.06.01-.11 0-.15-.05a.14.14 0 0 1-.02-.15l1.5-3.45c.12-.27.2-.8.22-1.59 0-.08.05-.13.13-.13l5.37-.66c.13-.01.21.04.25.17.1.38.42.57.94.56.4 0 1.08-.05 2.04-.14.2-.02.35.07.43.26.3.78.15 1.58-.45 2.4-.06.1-.12.1-.18 0-.5-.7-1.1-.94-1.79-.7-.53.18-.89.5-1.07.95-.21.54-.15 1.09.18 1.66.3.5.73.91 1.3 1.2.77.4 1.32.67 1.64.8a4.8 4.8 0 0 1 2.42 2.22c.54 1 .75 2.05.63 3.18-.1.88-.4 1.8-.88 2.77a152.2 152.2 0 0 1-2.12 4.09 20.92 20.92 0 0 0-1.9 4.17A8.76 8.76 0 0 0 34 42.61c.1.12.07.19-.1.19h-9.55c-.11 0-.17-.06-.18-.16a6.69 6.69 0 0 1 .56-3.78c.86-1.71 1.54-3.12 2.04-4.21a17.81 17.81 0 0 0 1.27-11.04 2.1 2.1 0 0 0-.33-.8c-.22-.3-.45-.47-.71-.47-.5 0-.81.18-.96.55-.15.36-.09.74.2 1.13.06.1.16.14.28.13l.6-.07c.12-.02.18.03.2.15.57 3.97.16 7.63-1.23 11a12.7 12.7 0 0 1-4.16 5.44 11.66 11.66 0 0 1-6.5 2.32c-.54.03-.56-.06-.06-.27a14.93 14.93 0 0 0 4.05-2.55.18.18 0 0 0 .06-.14.13.13 0 0 0-.03-.08c-.02-.03-.04-.03-.07-.02-1 .46-2.02.77-3.07.92-.3.05-.32-.01-.07-.18.97-.65 1.7-1.2 2.22-1.65a8.52 8.52 0 0 0 1.72-2.1c.19-.32.14-.36-.15-.13-.98.8-1.9 1.37-2.77 1.73-.07.03-.12.02-.17-.01a.32.32 0 0 1-.05-.07v-.04c3.2-2.94 4.19-6.47 2.98-10.6-.7-2.41-1.12-3.84-1.26-4.27a7.51 7.51 0 0 1 .43-5.93c.22-.4.36-.38.43.07.05.33.17.65.37.98.3.48.75.7 1.34.63.32-.03.73-.23 1.23-.6.43-.31.78-.51 1.05-.59 2-.57 3.89-.35 5.65.67a6.28 6.28 0 0 1 3.3 5.56c.06 2.02-.5 4.19-1.68 6.52-.05.1-.04.1.03.02Z" fill="#0183B4"/></svg>