<!-- by TradingView --><svg width="56" height="56" viewBox="0 0 56 56" xmlns="http://www.w3.org/2000/svg"><path fill="#F0F3FA" d="M0 0h56v56H0z"/><path fill-rule="evenodd" d="M28 44a16 16 0 1 0 0-32 16 16 0 0 0 0 32Zm0 1a17 17 0 1 0 0-34 17 17 0 0 0 0 34Z" fill="#002F6C"/><path d="m42.97 28.98-2-.13a13.23 13.23 0 0 0 0-1.7l2-.13a15.28 15.28 0 0 1 0 1.96Zm-.26-3.9a14.9 14.9 0 0 0-.5-1.9l-1.9.64c.18.53.33 1.08.44 1.64l1.96-.39Zm-1.25-3.72-1.8.89a13 13 0 0 0-.85-1.47l1.66-1.11c.37.54.7 1.1.99 1.7Zm-2.18-3.25-1.5 1.32a13.1 13.1 0 0 0-1.2-1.2l1.31-1.5c.5.42.96.89 1.39 1.38Zm-2.95-2.58-1.1 1.66a13 13 0 0 0-1.48-.85l.89-1.8c.58.3 1.15.62 1.7.99Zm-3.5-1.74-.65 1.9a12.9 12.9 0 0 0-1.64-.44l.39-1.96c.65.12 1.28.3 1.9.5Zm-3.85-.76-.13 2a13.23 13.23 0 0 0-1.7 0l-.13-2a15.28 15.28 0 0 1 1.96 0Zm-3.9.26.38 1.96c-.56.1-1.1.26-1.64.44l-.64-1.9c.61-.2 1.24-.38 1.9-.5Zm-3.72 1.25.89 1.8a13 13 0 0 0-1.47.85l-1.11-1.66c.54-.37 1.1-.7 1.7-.99Zm-3.25 2.18 1.32 1.5c-.43.38-.83.78-1.2 1.2l-1.5-1.31c.42-.5.89-.96 1.38-1.39Zm-2.58 2.95 1.66 1.1a13 13 0 0 0-.85 1.48l-1.8-.89c.3-.58.62-1.15.99-1.7Zm-1.74 3.5 1.9.65a12.9 12.9 0 0 0-.44 1.64l-1.96-.39c.12-.65.3-1.28.5-1.9Zm-.76 3.85a15.28 15.28 0 0 0 0 1.96l2-.13a13.23 13.23 0 0 1 0-1.7l-2-.13Zm.26 3.9 1.96-.38c.1.56.26 1.1.44 1.64l-1.9.64a14.9 14.9 0 0 1-.5-1.9Zm1.25 3.72 1.8-.89c.25.51.53 1 .85 1.47l-1.66 1.11c-.37-.54-.7-1.1-.99-1.7Zm2.18 3.25 1.5-1.32c.38.43.78.83 1.2 1.2l-1.31 1.5c-.5-.42-.96-.89-1.39-1.38Zm2.95 2.58 1.1-1.66c.48.32.97.6 1.48.85l-.89 1.8c-.58-.3-1.15-.62-1.7-.99Zm3.5 1.74.65-1.9c.53.18 1.08.33 1.64.44l-.39 1.96a14.9 14.9 0 0 1-1.9-.5Zm3.85.76.13-2a13.23 13.23 0 0 0 1.7 0l.13 2a15.28 15.28 0 0 1-1.96 0Zm3.9-.26c.66-.12 1.29-.3 1.9-.5l-.64-1.9c-.53.18-1.08.33-1.64.44l.39 1.96Zm3.72-1.25-.89-1.8a13 13 0 0 0 1.47-.85l1.11 1.66c-.54.37-1.1.7-1.7.99Zm3.25-2.18-1.32-1.5c.43-.38.83-.78 1.2-1.2l1.5 1.31c-.42.5-.89.96-1.38 1.39Zm2.58-2.95-1.66-1.1a13 13 0 0 0 .85-1.48l1.8.89c-.3.58-.62 1.15-.99 1.7Zm1.74-3.5-1.9-.65c.18-.53.33-1.08.44-1.64l1.96.39c-.12.65-.3 1.28-.5 1.9Z" fill="#002F6C"/><path fill-rule="evenodd" d="M38 34.64a12 12 0 1 0-20 0v-12.6c0-.5 2.82-2.04 6.12-2.04 2.77 0 3.88 2.9 3.88 3.82 0 .17-.04.27-.11.27-.15 0-.32-.15-.54-.34-.33-.3-.77-.68-1.35-.68-2.63 0-5.18 2.72-5.18 4.1v3.06c0 1.02 0 1.54.95 2.05.47.25.94.13 1.4 0 .48-.13.95-.26 1.42 0 1.7.93 2.83 3.07 2.35 3.07-.17 0-.34-.14-.56-.31-.38-.3-.9-.72-1.79-.72-.83 0-1.66.36-2.6.76-.64.27-1.33.57-2.1.78-.33.09-.6.13-.84.14a11.97 11.97 0 0 0 17.9 0c-.23-.01-.5-.05-.83-.14-.78-.21-1.47-.5-2.12-.78a6.91 6.91 0 0 0-2.6-.76c-.89 0-1.4.42-1.78.72-.22.17-.4.3-.56.3-.36 0 .2-1.21 1.22-2.21.63-.03 1.57.08 2.6.6l.85.42c1.15.6 2.24 1.17 3.57 1.44l.34-.45a12.1 12.1 0 0 1-3.67-1.42c-.28-.15-.56-.3-.86-.44a6.07 6.07 0 0 0-2.26-.64c.18-.13.36-.26.56-.36.47-.26.94-.13 1.41 0 .43.11.85.23 1.27.06.45.21.88.48 1.23.84A4.1 4.1 0 0 0 38 34.3v.33ZM28 23.82c0-.29.1-.76.34-1.28.44-.1.97-.18 1.55-.22.98-.05 2.06.03 3.02.41l1.23.5c.77.33 1.51.63 2.21.88.56.2 1.1.36 1.65.48v1.46a5.78 5.78 0 0 1-1.86-.76 6.38 6.38 0 0 0-2.23-.84 10.7 10.7 0 0 0-.64-.1A5.47 5.47 0 0 0 30 23.07c-.58 0-1.02.38-1.35.68-.22.19-.39.34-.54.34-.07 0-.11-.1-.11-.27Zm6.6 8.22c.39.2.76.46 1.08.78a3.6 3.6 0 0 0 2.32.99v-1.26h-.01a3.7 3.7 0 0 1-1.67-.87 3.1 3.1 0 0 0-1.16-.71c-.04.45-.17.77-.55 1.07Zm.57-1.59c.51.16 1.06.43 1.5.87.34.33.82.56 1.33.7v-1.47h-.01a3.7 3.7 0 0 1-1.67-.87 3.1 3.1 0 0 0-1.14-.7v1.47Zm0-2c.51.16 1.06.43 1.5.87.34.33.82.56 1.33.7v-1.38a4.48 4.48 0 0 1-1.53-.42 1.45 1.45 0 0 1-.7-.6c-.1-.22-.31-.4-.6-.53v1.36Zm-.15-1.96c.48.16.97.44 1.2.9.07.13.22.26.46.38a4 4 0 0 0 1.32.36v-1.56a6.38 6.38 0 0 1-2.14-.86 5.69 5.69 0 0 0-1.89-.73c.49.5.86 1.04 1.05 1.51Zm-6.39-4.52c.37-.07.79-.12 1.23-.14a7.63 7.63 0 0 1 3.23.44l1.26.51c.76.32 1.48.61 2.17.86.51.18 1 .33 1.48.43v-.93c-1.05-.18-1.97-.55-3.35-1.1l-.74-.3a11.01 11.01 0 0 0-4.68-.58 4.7 4.7 0 0 0-.6.8Zm1.22-1.34c1.22-.04 2.84.08 4.24.64l.74.3c1.35.54 2.21.89 3.17 1.06v-.58c0-.52-2.82-2.05-6.12-2.05-.82 0-1.49.25-2.03.63Z" fill="#002F6C"/></svg>