<!-- by TradingView --><svg width="56" height="56" viewBox="0 0 56 56" xmlns="http://www.w3.org/2000/svg"><path fill="#083A33" d="M0 0h56v56H0z"/><path d="M34.95 13.48a7.95 7.95 0 0 1 3.72-.41c1.48.2 2.52.9 3.13 2.08a4.09 4.09 0 0 1-.6 3.62 6.54 6.54 0 0 1-2.75 2.24c-1.2.55-2.44.6-3.75.18a2.6 2.6 0 0 1-1.48-2.27.12.12 0 0 0-.06-.11.13.13 0 0 0-.13 0l-2.54 1.71a.18.18 0 0 0-.09.13c-.1.56-.08 1.21.04 1.94.03.16-.04.25-.21.25-3.13.1-5.98 1.02-8.53 2.79a9.47 9.47 0 0 0-2.42 2.47 9.32 9.32 0 0 0-1.43 3.21 6.48 6.48 0 0 0 .06 3.35 5.66 5.66 0 0 0 2.04 2.9 9.17 9.17 0 0 0 5.53 1.84c3.59.09 6.94.74 10.07 1.96.05.02.09.06.1.12 0 .06-.02.1-.07.14l-1.8 1.27c-.12.09-.24.08-.34-.02a10.39 10.39 0 0 0-2.11-1.33c-2.51-1.14-5.1-1.6-7.78-1.38a13.7 13.7 0 0 0-7.38 2.81c-.04.04-.1.04-.14 0l-2-1.49c-.04-.02-.04-.04 0-.06a28.23 28.23 0 0 1 6.92-1.77c.04 0 .05-.02.05-.05 0-.03 0-.05-.04-.06a7.14 7.14 0 0 1-3.25-1.65 6.73 6.73 0 0 1-1.67-7.37 10.84 10.84 0 0 1 5.2-5.95 19.5 19.5 0 0 1 7.33-2.11c.08 0 .12-.05.1-.13-.04-.32-.03-.65.04-.98.02-.07 0-.1-.08-.08-2.24.57-4.44.66-6.6.26a7.3 7.3 0 0 1-2.9-1.2 3.87 3.87 0 0 1-1.76-2.5 3.13 3.13 0 0 1 1.13-3.12c.89-.75 2-1.1 3.31-1.05.07 0 .1.03.1.1s-.05.13-.14.15c-1.07.3-1.83.67-2.3 1.13-.57.56-.8 1.34-.7 2.34.1 1.14.6 2.06 1.47 2.77.72.58 1.73.95 3.03 1.12 1.74.23 3.48.09 5.2-.42.2-.06.3-.18.33-.37a8.14 8.14 0 0 1 2.9-5.13c1-.84 2.08-1.47 3.25-1.87Zm3.81.52c-1-.51-2.12-.64-3.36-.38a5.42 5.42 0 0 0-3.38 2.31 8.91 8.91 0 0 0-1.49 3.86c0 .03.01.06.04.08.03.02.07.02.1 0l4.75-3.18c.04-.03.09-.03.14 0 .04.04.06.08.04.13-.06.17-.14.4-.26.69-.18.4-.28.73-.32.95-.06.37-.03.77.09 1.2.02.1.07.17.14.23.77.71 1.67.86 2.7.45.93-.36 1.62-1 2.07-1.91.4-.78.48-1.59.28-2.43a2.88 2.88 0 0 0-1.54-2Z" fill="#fff"/><path d="M29.26 38.76c3.22-1.34 5.27-3.48 6.16-6.45.49-1.6.1-2.95-1.18-4.06a5.1 5.1 0 0 0-4.52-1.22 6.01 6.01 0 0 0-3.94 2.55 3.82 3.82 0 0 0-.68 2.79c.15 1.14.76 1.8 1.84 1.98 1.04.17 1.63-.17 1.79-1.02.05-.33.14-.55.25-.66.14-.14.36-.18.66-.1.38.1.56.41.52.96-.03.45-.16.83-.38 1.14-.35.5-.95.83-1.78.96a3.8 3.8 0 0 1-2.03-.18 2.72 2.72 0 0 1-1.85-2.65 4.98 4.98 0 0 1 1.14-3.24 9.24 9.24 0 0 1 4.48-3.2 6.38 6.38 0 0 1 4.64.06 3.86 3.86 0 0 1 2.48 3.6 6.67 6.67 0 0 1-1.6 4.77c-.8.98-1.7 1.83-2.67 2.55a6.48 6.48 0 0 1-3.31 1.46c-.1 0-.1 0-.02-.04Z" fill="#fff"/></svg>