<!-- by TradingView --><svg width="56" height="56" viewBox="0 0 56 56" xmlns="http://www.w3.org/2000/svg"><path fill="#F0F3FA" d="M0 0h56v56H0z"/><circle cx="33" cy="33" r="10" fill="#00A23A"/><path d="M44.88 28.45A11.93 11.93 0 0 0 33 14.88 11.93 11.93 0 0 0 21.46 30c.84-5.75 5.83-10 11.87-10 5.49 0 10.11 3.48 11.55 8.45Z" fill="#005E31"/><path d="M44.88 28.37c.08-.6.12-1.2.12-1.8C45 19.66 39.63 14 33 14s-12 5.66-12 12.57a13 13 0 0 0 .46 3.43c.84-6.05 5.83-10.7 11.87-10.7 5.49 0 10.11 3.83 11.55 9.07Z" fill="#00A23A"/><path d="M28.08 13.19c-.65-.1-1.32-.16-2-.16-7.64 0-13.84 6.7-13.84 14.97s6.2 14.97 13.85 14.97c1.31 0 2.59-.2 3.8-.58C23.19 41.35 18 35.12 18 27.6c0-6.85 4.28-12.62 10.08-14.4Z" fill="#005E31"/><path d="M28.05 13.15A14.95 14.95 0 0 0 11 28a14.95 14.95 0 0 0 19 14.43c-7.22-1.05-13-7.3-13-14.85 0-6.85 4.81-12.64 11.05-14.43Z" fill="#00A23A"/></svg>