<!-- by TradingView --><svg width="56" height="56" viewBox="0 0 56 56" xmlns="http://www.w3.org/2000/svg"><path fill="#F0F3FA" d="M0 0h56v56H0z"/><path d="M21.58 14.22c.08 0 .09-.07.09-.13 0-.08-.04-.13-.12-.16l-1.07-.3c-.35-.08-.51-.32-.47-.7.05-.57.33-.87.83-.91.5-.05 1.14 0 1.94.11.66.1 1.12.23 1.16 1 .04.76.06 1.63.06 2.63 0 .06-.03.12-.07.17a.24.24 0 0 1-.17.07h-3.25a.35.35 0 0 1-.34-.37l.12-1.04c.09-.68.88-.43 1.3-.37ZM22.47 21.02a33.21 33.21 0 0 0-.1 3.96c.02.75-.06 1.25-.32 1.92a.45.45 0 0 1-.33.29c-.74.18-1.32-.5-1.5-1.14a7.62 7.62 0 0 1-.17-2.1c.05-2.09.08-3.38.08-3.87.02-.98-.67-2.81.95-2.92 1.3-.09 2.18-.14 2.64-.16.37-.01.58.12.62.4.1.61.15 1.32.14 2.14 0 .85 0 1.4.03 1.65.05.6.08 1.16.08 1.66.01.86.05 2.08 1.17 2.14l4.24.2c1.64.07 3.5-.02 5.28.06.48.03.72.27.72.74v.49c0 .46-.24.7-.7.7-.96.02-1.71 0-2.3.16-.13.03-.26.08-.39.15-.76.4-1.26.7-2.06.37-.7-.28-.85-.4-1.41-.43h-2.96c-.26 0-.48.02-.65.05-1 .18-1.62.31-2.55-.22a.36.36 0 0 1-.18-.3v-6.01c0-.22-.32-.08-.33.07Z" fill="#F81B34"/><path fill-rule="evenodd" d="m27.22 19.03-1.42.07c-.46.02-.69-.2-.69-.67v-.55c0-.45.22-.66.67-.61.5.05.95-.06 1.34-.33.42-.3.38-.45-.13-.46-.08 0-.22.08-.4.24a.26.26 0 0 1-.18.06c-.58.01-1.3-.29-1.3-.99.01-.36.09-.66.24-.93a.3.3 0 0 1 .15-.12c.42-.16.96-.07 1.43.02l.44.07c.12.01.2-.04.24-.16l.06-.22c.03-.1 0-.15-.1-.15l-2.22-.13a.3.3 0 0 1-.18-.08.32.32 0 0 1-.1-.17c-.2-.85.05-1.4.75-1.68.3-.11.56-.04.83.04l.29.07c.31.07.58.1.79.07.11 0 .35-.1.72-.25.65-.29 1.2-.15 1.76 0 .34.08.68.17 1.07.18 1.04 0 1.92.04 2.62.1.36.02.73.14 1.12.34.73.39.5.87.24 1.4l-.15.33a.7.7 0 0 0 .01.51c.26.7.4 1.51.43 2.44.11 3.47.14 5.65.1 6.52-.03.58-.3.92-.84 1a.92.92 0 0 1-.68-.18c-.47-.33-.78-.57-.82-1.12l-.04-.46c-.11-1.44-.23-2.99-.12-4.4a.24.24 0 0 0-.24-.27.24.24 0 0 0-.13.04c-.46.31-.97.47-1.51.47-.16 0-.27.06-.33.2l.01.11a.2.2 0 0 0 .17.16c1.32.23 1.85.91 1.6 2.04-.05.26-.2.37-.46.35l-1.65-.16c-.21-.02-.28.08-.2.31l.03.05c.12.2.3.32.52.37.36.07.7.12 1.04.15.64.05.94.34.97 1 .02.35 0 .66-.35.78a3.1 3.1 0 0 1-.9.2c-1.8-.02-3.37.03-4.7.15-.47.05-.79.04-.96-.02a1.1 1.1 0 0 1-.72-.78c-.12-.38-.23-1.07.1-1.35.08-.07.2-.12.39-.15.61-.1 1.07-.17 1.36-.23a.66.66 0 0 0 .28-.12c.13-.1.06-.32-.1-.34-.43-.04-.92-.1-1.48-.18-.33-.05-.55-.22-.65-.5-.2-.6 0-1 .6-1.16.55-.15.93-.27 1.15-.35.27-.1.39-.25.36-.46 0-.07-.05-.1-.13-.1Zm3.69-4.19a.1.1 0 0 1-.1-.1l-.01-.12c0-.14.08-.32.24-.33l.9-.03c.17-.01.27.16.28.3v.13a.1.1 0 0 1-.1.1l-1.21.05Zm1.05 1.8c.03.14-.2.29-.5.34-.3.05-.55-.01-.58-.14-.02-.14.2-.29.5-.34.3-.05.56.01.58.15Z" fill="#F81B34"/><path d="m27.99 29.71-.06.7c0 .12-.05.13-.12.04-.21-.26-.4-.53-.56-.83-.15-.27-.4-.4-.75-.36l-1.97.27c-.6.09-1.04.1-1.3.01-.8-.26-1.33-.42-1.62-.5-.33-.09-.68-.03-1.08.2a.86.86 0 0 0-.46.74c-.05.88.72 1.36 1.55 1.47 1.17.15 2.22.2 3.14.15.5-.03.58.14.23.53-.04.04-.16.07-.37.09-.61.05-1.31.1-1.88-.04l-.25-.07c-.6-.15-1.1-.27-1.65-.05-.48.2-.7.56-.64 1.1.03.25.15.41.36.49.17.06.57.15 1.18.29.61.13.82.63 1.01 1.1.17.4.33.78.73.85l1.14.21c.18.04.28.15.3.33.01.08-.05.3-.15.28l-1.83-.32c-.06-.01-.1-.05-.14-.1-.06-.1-.16-.35-.31-.76-.32-.87-.93-1.15-1.84-.84a.28.28 0 0 0-.19.25c-.02.59 0 1.26.04 2.02.03.4.16.7.39.9.3.23.64.34 1.04.34.48 0 1.39-.03 2.73-.06.28-.01.22.48-.05.47l-3.65-.1c-.6-.01-.85.27-.77.86l.01.06c.12.63.48.95 1.1.97l4.34.1c.06 0 .12.02.16.07.1.1.11.37-.06.43a28.3 28.3 0 0 0-4.81.06c-.43.04-.56.2-.67.59-.1.33-.16.69-.18 1.07-.03.7.38 1.04 1.04 1.12.44.06.8.06 1.07 0 .31-.06.57-.31.84-.57.23-.21.46-.43.73-.55.64-.26 2.08-.4 2.45.41.44.97 1.17.9 2.08.83l.2-.02c.3-.02.48-.13.53-.33.17-.62.53-.97 1.09-1.05.24-.03.67.06 1.3.26l.89.31c.8.3 1.42.51 2.17.5.63-.01 1.01-.33 1.15-.96.28-1.25-1.18-1.4-2.07-1.43-.59-.01-1.29-.02-2.1 0a3.65 3.65 0 0 1-1.27-.27c-.22-.21.16-.53.37-.52.58 0 1.93.04 4.03.1.31.02.6-.09.83-.32.2-.18.26-.37.18-.56-.24-.65-.72-1-1.43-1.06-.54-.04-1-.01-1.37.1-.67.2-1.47.42-2.09.17-.25-.1-.48-.22-.69-.35a.24.24 0 0 1-.1-.23.23.23 0 0 1 .16-.19c.68-.19 1.4-.09 2.21.03l.33.04c.6.08 1.23.07 1.9-.02 1.15-.16 1.3-1.2 1.18-2.19-.08-.67-.68-1.45-1.4-1.17-.56.2-.71.5-.95.97l-.12.22c-.3.58-.56.74-1.2.74-.85.01-1.57 0-2.15-.04-.14 0-.2-.08-.21-.21-.04-.93 1.78-.55 2.35-.42.09.02.18 0 .25-.04a.34.34 0 0 0 .15-.2c.16-.63.52-1.04 1-1.54.13-.15.28-.23.42-.24.58-.04 1.01-.09 1.3-.13a.38.38 0 0 0 .33-.34c.05-.44-.1-.76-.48-.97-.2-.11-.67-.16-1.4-.16-.49 0-1.39-.04-2.69-.11a.27.27 0 0 1-.21-.41.3.3 0 0 1 .25-.17c.75-.05 1.64-.06 2.7-.01.63.02 1.06-.08 1.54-.44.65-.48.76-1.2.2-1.83-.5-.53-1.5-.26-2.54.01-.94.25-1.9.5-2.5.16a2.46 2.46 0 0 0-2.08-.26.38.38 0 0 0-.26.33ZM25.19 33h5.63c.1 0 .18.16.18.35v.3c0 .2-.08.35-.18.35h-5.64c-.1 0-.18-.16-.18-.35v-.3c0-.2.08-.35.18-.35Z" fill="#F81B34"/><path fill-rule="evenodd" d="M36.12 11H19.88c-.48 0-.88.4-.88.88v32.24c0 .48.4.88.88.88h16.24c.48 0 .88-.4.88-.88V11.88c0-.48-.4-.88-.88-.88Zm-16.24-1c-1.04 0-1.88.84-1.88 1.88v32.24c0 1.04.84 1.88 1.88 1.88h16.24c1.04 0 1.88-.84 1.88-1.88V11.88c0-1.04-.84-1.88-1.88-1.88H19.88Z" fill="#F81B34"/></svg>