<!-- by TradingView --><svg width="56" height="56" viewBox="0 0 56 56" xmlns="http://www.w3.org/2000/svg"><path fill="#F0F3FA" d="M0 0h56v56H0z"/><path d="M31.53 37.97c4.46.5 7.5 2.9 8.47 4.03-11.12 0-16.22-4.5-17-8 .98 1.12 4.06 3.47 8.53 3.97ZM25.29 30.45A16.82 16.82 0 0 1 34 36c-12.93-1.63-17.4-7.75-18-12a16.87 16.87 0 0 0 9.29 6.45Z" fill="#0095DC"/><path d="M28.23 24.48C38.4 28.26 42.31 37.04 43 40.97c-1.6-2.59-7.35-8.83-17.52-13.1C15.31 23.58 12.26 15.5 12 12c1.17 2.58 6.06 8.7 16.23 12.48Z" fill="#0095DC"/></svg>