<!-- by TradingView --><svg width="56" height="56" viewBox="0 0 56 56" xmlns="http://www.w3.org/2000/svg"><path fill="#F0F3FA" d="M0 0h56v56H0z"/><path d="M9 22.66V21.5c.06-.22.24-.75.53-1.6.2-.54.52-.9.98-1.06.1-.04.54-.09 1.31-.16a147.19 147.19 0 0 1 24.03-.32c2.92.2 5.14.57 6.67 1.08 2.82.94 3.9 2.42 3.24 4.43-.31.97-1.2 1.76-2.64 2.37a20.65 20.65 0 0 1-3.64 1.03.24.24 0 0 0-.2.18c-.03.1-.01.18.06.26 2.1 2.3 4.55 4 7.36 5.1.15.06.24.17.28.32.05.18 0 .38-.15.58-.1.13-.28.22-.5.25a9.25 9.25 0 0 1-4.15-.6c-1.5-.5-2.64-1.1-3.4-1.77-.93-.8-2.25-2-3.96-3.57-.16-.14-.3-.13-.45.04l-.68.83a11.83 11.83 0 0 1-2.12 2.23c-.87.6-1.85.8-2.95.58-.43-.09-.72-.31-.85-.67a7.73 7.73 0 0 1-.46-2.68c0-.58-.17-.63-.5-.15l-.46.69c-.6.91-1.08 1.54-1.43 1.87-.6.55-1.26.83-2 .83-1.38 0-2.18-.66-2.38-2-.52-3.4-.84-5.35-.95-5.86-.16-.66.1-1 .8-1h1.6c.68 0 1.07.33 1.18.99l.73 4.36c.02.09.07.14.15.16a.2.2 0 0 0 .21-.07 14.3 14.3 0 0 0 2.3-4.1.93.93 0 0 0 .04-.43 2.4 2.4 0 0 1-.01-.81.37.37 0 0 1 .3-.29l.19-.03c.97-.2 1.65-.27 2.05-.2.68.1 1.06.54 1.13 1.3.14 1.63.26 3.13.35 4.52 0 .07.04.12.1.15.08.02.14.01.2-.04.68-.62 1.42-1.54 2.2-2.77.6-.94.6-1.83.04-2.68a.33.33 0 0 1-.02-.34.33.33 0 0 1 .27-.2l.1-.02c1.97-.3 3.04-.03 3.21.8.1.46-.13 1.28-.69 2.44l-.04.09a.2.2 0 0 0 .02.2c.04.08.1.11.19.1 1.63-.02 3-.38 4.1-1.05 1.12-.69 1.43-1.59.93-2.7-.52-1.17-2.42-1.79-5.71-1.88a99.7 99.7 0 0 0-16.5.97.38.38 0 0 0-.32.24 108.42 108.42 0 0 0-4.02 10.94c-.22.77-.6 1.21-1.12 1.32-.79.16-1.67.26-2.67.3a.63.63 0 0 1-.48-.17.6.6 0 0 1-.2-.47c-.01-.36.1-.82.33-1.38 1.58-3.79 3.07-7.13 4.5-10.02.04-.1 0-.15-.11-.13L9 22.66Z" fill="#083A81"/><path d="M15.55 34.99a.4.4 0 0 1 .15-.37 4.92 4.92 0 0 1 5.04-.78c.71.28 1.2.43 1.46.44 2.31.11 4.04.1 5.2-.03 2.62-.3 4.89-.44 6.79-.43 1.72 0 3.45.27 5.2.8.17.05.56.1 1.18.13.06 0 .09.04.1.1 0 .06-.04.09-.1.1l-4.86.83c-.02 0-.03.02-.03.03v.15c0 .07.04.1.1.08 1-.25 1.87-.07 2.6.53.12.1.25.14.4.14.57 0 1.43-.15 2.6-.48.79-.22.87-.06.25.47l-.7-.07a.29.29 0 0 0-.3.16c-.13.22-.33.32-.6.29-3.89-.38-6.97-.4-9.25-.04-2.94.46-5.29.76-7.05.9-1.91.17-3.82-.03-5.74-.6-1.05-.3-2.33-1.2-2.44-2.35Zm23.1-.21c0-.12-.05-.18-.17-.18l-4.46.07c-.12 0-.17.06-.17.18v.03c0 .11.06.17.18.17l4.45-.06c.12 0 .18-.06.18-.18v-.03Z" fill="#00A4E4"/><path d="M38.36 35.76c-.01-.05.02-.09.07-.1l.25-.01c2.2-.19 3.32-.17 3.34.04v.04c.02.2-1.08.4-3.3.6l-.23.01c-.06 0-.09-.02-.1-.08l-.03-.5ZM42.42 35.86l.15.05c.13.04.13.08 0 .14-.07.03-.13.04-.17.02-.26-.12-.26-.2.02-.21ZM42.49 37.63c.67.05 1.22.04 1.23-.04 0-.07-.54-.17-1.21-.23-.67-.05-1.22-.04-1.23.04 0 .07.54.17 1.2.23Z" fill="#00A4E4"/></svg>