<!-- by TradingView --><svg width="56" height="56" viewBox="0 0 56 56" xmlns="http://www.w3.org/2000/svg"><path fill="#F0F3FA" d="M0 0h56v56H0z"/><path d="m22 16 6-6 6 6-6 6-6-6Zm6 2.6 2.6-2.6-2.6-2.6-2.6 2.6 2.6 2.6Z" fill="#E60012"/><path fill-rule="evenodd" d="M23 30.25V17.87l-11 10.7 1.71 1.68-1.14 1.69 4 3.93 1.14-1.12 1.72 1.69-1.14 1.12 3.42 3.38 1.15-1.13 1.71 1.69-1.14 1.13L26.86 46 28 44.87 29.14 46l3.43-3.38-1.14-1.12 1.71-1.69 1.15 1.13L38.86 37l-1.15-1.13 1.15-1.12L40 35.88l4-3.94-.57-1.69.57-1.13-11-11.25v12.38l-5 4.5-5-4.5Zm-3.5 5.25L23 32l3.5 3.5L23 39l-3.5-3.5Zm5 5L28 37l3.5 3.5L28 44l-3.5-3.5ZM34 32l-3.5 3.5L34 39l3.5-3.5L34 32Zm-13-1.67V23l-6 7.33L18 34l3-3.67Zm14 0V23l7 7.33L38.23 34 35 30.33Z" fill="#E60012"/></svg>