<!-- by TradingView --><svg xmlns="http://www.w3.org/2000/svg" width="56" height="56"><path fill="#F0F3FA" d="M0 0h56v56H0z"/><path d="M4 28c0-2.36 2-4 4.5-4 1.99 0 3.84.93 4.37 3H10.8a2.5 2.5 0 100 2h2.08c-.53 2.07-2.38 3-4.37 3C6.16 32 4 30.36 4 28zm30 0c0-2.36 2-4 4.5-4 1.99 0 3.84.93 4.37 3H40.8a2.5 2.5 0 100 2h2.08c-.53 2.07-2.38 3-4.37 3-2.34 0-4.5-1.64-4.5-4z" fill="#12110F"/><path fill-rule="evenodd" d="M14 28c0 2.56 2.16 4 4.5 4s4.5-1.44 4.5-4-2.16-4-4.5-4-4.5 1.44-4.5 4zm4.5-2.5a2.5 2.5 0 100 5 2.5 2.5 0 000-5z" fill="#12110F"/><path fill="#12110F" d="M24 24h2v8h-2zm7 0h2v8h-2z"/><path d="M27 28v-6l3 6v6l-3-6z" fill="#EA000D"/><path d="M44 25a1 1 0 011-1h1v3h4v-3h1a1 1 0 011 1v6a1 1 0 01-1 1h-1v-3h-4v3h-1a1 1 0 01-1-1v-6z" fill="#12110F"/></svg>