<!-- by TradingView --><svg width="56" height="56" viewBox="0 0 56 56" xmlns="http://www.w3.org/2000/svg"><path fill="#F0F3FA" d="M0 0h56v56H0z"/><path fill-rule="evenodd" d="M44 28a16 16 0 1 1-32 0 16 16 0 0 1 32 0Zm1 0a17 17 0 1 1-34 0 17 17 0 0 1 34 0Zm-2 0a15 15 0 1 1-30 0 15 15 0 0 1 30 0Zm-23-8v2h5v2h-5v2h7v-6h-7Zm16 0v2h-5v2h5v2h-7v-6h7ZM20 32v-2h7v6h-7v-2h5v-2h-5Zm16-2v2h-5v2h5v2h-7v-6h7Zm0-3H20v2h16v-2Z" fill="url(#a)"/><defs><linearGradient id="a" x1="41" y1="16" x2="15" y2="40.5" gradientUnits="userSpaceOnUse"><stop stop-color="#E40213"/><stop offset="1" stop-color="#BA141D"/></linearGradient></defs></svg>