<!-- by TradingView --><svg width="56" height="56" viewBox="0 0 56 56" xmlns="http://www.w3.org/2000/svg"><path fill="#F0F3FA" d="M0 0h56v56H0z"/><path d="M32.47 13.3a6.7 6.7 0 0 1 3.76 1.12c2.73 1.69 4.78 3.99 6.14 6.9a16.23 16.23 0 0 1 1.45 9.44 15.15 15.15 0 0 1-4.24 8.52 8.22 8.22 0 0 1-2.65 1.85c-2.33 1.02-5.15 1.08-8.47.18a23.65 23.65 0 0 1-5.4-2.2c-.14-.07-.13-.1.02-.08 3.74.35 6.84-.36 9.3-2.14a11.29 11.29 0 0 0 4.14-5.58c.77-2.24.89-4.56.33-6.97-.48-2.1-1.4-3.84-2.75-5.24a10.1 10.1 0 0 0-5.18-2.83 36.98 36.98 0 0 0-8.14-.87c-.15 0-.16-.03-.02-.1a10.77 10.77 0 0 1 2.28-.79l.53-.12c.33-.08.74-.24 1.25-.48a.21.21 0 0 0 .1-.1c.49-1 1.33-1.58 2.52-1.74.61-.08 1.18-.1 1.71-.03 1.2.13 2.4.39 3.61.77.05.01.06.04.02.08l-.34.34c-.05.05-.04.07.03.07Z" fill="#DF2128"/><path d="M13.82 35.89a16.9 16.9 0 0 1-1.81-7.18c-.04-1.3.13-2.68.5-4.16.52-2 1.4-3.8 2.63-5.36a11.24 11.24 0 0 1 4.7-3.6c.15-.07.17-.04.07.08a22.27 22.27 0 0 0-3.5 5.67 33.42 33.42 0 0 0-2.54 14.55c-.01.04-.03.04-.05 0Z" fill="#FDD100"/><path d="M17.44 35.67a21.88 21.88 0 0 0 4.42 7.22c.03.04.03.06-.03.04a10.7 10.7 0 0 1-4.08-2.48 10.35 10.35 0 0 1-3.16-8.63c.17-1.64.68-3.15 1.52-4.53.03-.05.04-.04.04.01-.1 2.95.33 5.74 1.29 8.37Z" fill="#F08519"/><path d="M18.07 34.86a15.93 15.93 0 0 0 6.58 5.68 21.78 21.78 0 0 0 10.4 1.98c.17-.01.17.01.02.07-3.56 1.38-6.66 1.75-9.3 1.1a9.07 9.07 0 0 1-5.18-3.4 16.45 16.45 0 0 1-2.58-5.4c-.03-.13-.02-.14.06-.03Z" fill="#EA5B3E"/></svg>