<!-- by TradingView --><svg width="56" height="56" viewBox="0 0 56 56" xmlns="http://www.w3.org/2000/svg"><path fill="#F0F3FA" d="M0 0h56v56H0z"/><path d="M35.81 14a6 6 0 0 1 1.56 1.05c.54.51 1 .97 1.38 1.37a.16.16 0 0 1 .03.17.16.16 0 0 1-.14.1h-.72c-.1 0-.13-.05-.1-.15a.2.2 0 0 0 .01-.09c0-.05-.02-.1-.06-.12a9.33 9.33 0 0 0-3.27-1.8c-.05-.01-.08 0-.1.06l-.02.09h.02c1.25.47 2.24 1.09 3.27 1.86.03.02.06.06.07.1.02.03.03.07.03.11v.37c0 .11.04.2.12.29a19.28 19.28 0 0 1 3.89 6.55c.01.05.04.06.07.02l.08-.08c.03-.02.03-.06.02-.1a27.25 27.25 0 0 0-2.5-5.97l.01-.06.08-.08c.03-.03.05-.03.08 0 1.1 1.74 1.9 3.51 2.35 5.32.07.26.16.48.28.66.06.1.1.2.1.3.52 3.38.72 5.81.63 7.3a13.6 13.6 0 0 1-3.72 8.65 19.73 19.73 0 0 1-5.12 4.07c-.09.04-.14-.03-.14-.13V18.18c0-.11-.1-.18-.21-.18h-6.64c-.1 0-.15-.04-.15-.14v-1.7c0-.1.05-.16.16-.16h5.66c.12 0 .18-.06.18-.19v-.62c0-.13-.06-.19-.18-.19h-5.66a.15.15 0 0 1-.11-.04.16.16 0 0 1-.04-.11v-4.31c0-.14.05-.28.15-.38.1-.1.23-.16.37-.16h3.12c.13 0 .18.07.16.2a.83.83 0 0 1-.1.26c-.06.1-.05.2.04.27.11.09.24.12.38.1.42-.07.72-.11.9-.12.1 0 .2.02.3.07 4.05 2.1-2.13.53 3.48 3.22ZM18.4 18.05c-.15 0-.24.09-.24.25v23.6c0 .12-.04.13-.12.04a9.13 9.13 0 0 1-2.28-4.17c-.02-.1.02-.2.11-.34.07-.09.06-.18-.02-.26-.14-.14-.3-.18-.47-.12a.33.33 0 0 1-.43-.25l-.75-4a.51.51 0 0 0-.17-.29c-.58-.5-.44-.8-.43-1.47 0-.14-.04-.34-.13-.59-.66-1.99-.31-4.2-.46-5.9-.04-.52.03-1.01.23-1.49.1-.24.25-.72.46-1.46.19-.64.43-1.15.71-1.52.07-.08.28-.4.63-.93.2-.31.44-.6.7-.89a54.31 54.31 0 0 1 4.61-4.33c.8-.67 1.82-1.1 2.63-1.75.74-.6 1.36-.98 1.84-1.16.12-.05.18 0 .18.12v6.8a.12.12 0 0 1-.12.11H18.4Z" fill="#7F1185"/><path fill-rule="evenodd" d="M32 44.42V19.16c0-.1-.05-.16-.15-.16h-11.7a.15.15 0 0 0-.1.05.17.17 0 0 0-.05.11v24.6c0 .12.03.23.09.33s.14.19.24.24c.7.36 1.4.77 2.12 1.24.12.08.65.15 1.58.19.64.03 1.16.08 1.57.16.6.11 1.37.1 2.3-.02a13.1 13.1 0 0 0 3.87-1.1.39.39 0 0 0 .17-.15.44.44 0 0 0 .06-.23ZM21 20.8v-.58c0-.06.02-.11.05-.15a.15.15 0 0 1 .11-.06h9.68c.1 0 .16.12.16.2v.6c0 .09-.06.2-.16.2h-2.68c-.08 0-.16.1-.16.21v2.58c0 .06.02.11.05.15.03.04.07.06.11.06h2.68c.04 0 .08.02.11.06.03.04.05.1.05.15v.58c0 .05-.02.1-.05.15a.15.15 0 0 1-.11.06h-3.68a.15.15 0 0 1-.11-.06.24.24 0 0 1-.05-.15V21.2c0-.11-.08-.21-.16-.21h-1.68c-.08 0-.16.1-.16.2v3.6c0 .05-.02.1-.05.14a.15.15 0 0 1-.11.06h-3.68c-.08 0-.16-.1-.16-.2v-.6c0-.1.08-.2.16-.2h2.68c.04 0 .08-.02.11-.06.03-.04.05-.1.05-.15v-2.58c0-.11-.08-.21-.16-.21h-2.68c-.08 0-.16-.1-.16-.2Zm3 6.09v-.72c0-.1.07-.15.2-.15l.64-.01c.1 0 .16.04.16.13v1.74c0 .09-.05.13-.15.13H21.2c-.14 0-.21-.07-.21-.2l.01-.61c0-.13.08-.2.23-.2l2.62.01c.07 0 .14-.06.14-.12Zm7 .98v-.72c0-.09-.08-.14-.16-.14h-2.65c-.09 0-.19-.07-.19-.14v-.72c0-.07-.08-.14-.16-.14h-.68a.18.18 0 0 0-.11.04.13.13 0 0 0-.05.1v1.72c0 .04.02.07.05.1.03.03.07.04.11.04h3.68c.08 0 .16-.05.16-.14ZM26 30h3.52c.07 0 .13-.02.18-.05.05-.02.08-.06.08-.1l.07-.62c.01-.06.04-.12.1-.16a.29.29 0 0 1 .18-.07h.6c.18 0 .27.09.27.27v11.57c0 .04-.02.08-.04.1a.15.15 0 0 1-.1.05 879.2 879.2 0 0 1-9.7 0 .15.15 0 0 1-.1-.04.15.15 0 0 1-.05-.1L21 29.28c0-.18.1-.27.27-.28h.6c.07 0 .14.03.19.07.05.04.08.1.09.17l.07.62c0 .04.03.07.08.1.05.02.11.04.18.04H26Z" fill="#7F1185"/><path d="M29.8 32h-7.6a.2.2 0 0 0-.2.2v1.6c0 .11.1.2.2.2h7.6a.2.2 0 0 0 .2-.2v-1.6c0-.11-.1-.2-.2-.2ZM29.83 35h-7.66c-.1 0-.17.07-.17.16v1.68c0 .09.08.16.17.16h7.66c.1 0 .17-.07.17-.16v-1.68c0-.09-.08-.16-.17-.16ZM29.79 38H22.2a.2.2 0 0 0-.21.2v1.6c0 .1.1.2.21.2h7.58a.2.2 0 0 0 .21-.2v-1.6a.2.2 0 0 0-.21-.2Z" fill="#7F1185"/></svg>