<!-- by TradingView --><svg xmlns="http://www.w3.org/2000/svg" width="56" height="56"><path fill="#F0F3FA" d="M0 0h56v56H0z"/><path fill-rule="evenodd" d="M28 45a17 17 0 100-34 17 17 0 000 34zm0 1a18 18 0 100-36 18 18 0 000 36z" fill="#144A90"/><path fill="#144A90" d="M16 18h7v20h-7zm9 0h7v20h-7zm9 7h3a4 4 0 014 4v9h-7V25z"/><path d="M32 25.07c-8.93-.77-14.43 4.92-16 7.85L20.93 35c3-6.34 8.68-9.27 11.07-9.93z" fill="url(#aiexanm4p)"/><defs><linearGradient id="aiexanm4p" x1="27.08" y1="23.05" x2="20.13" y2="34.95" gradientUnits="userSpaceOnUse"><stop stop-color="#445EAB"/><stop offset=".21" stop-color="#52B7E5"/><stop offset=".46" stop-color="#18934B"/><stop offset=".63" stop-color="#9ECF1F"/><stop offset=".77" stop-color="#E0E101"/><stop offset=".89" stop-color="#E3BA10"/><stop offset="1" stop-color="#D1483E"/></linearGradient></defs></svg>