<!-- by TradingView --><svg width="56" height="56" viewBox="0 0 56 56" xmlns="http://www.w3.org/2000/svg"><path fill="#F0F3FA" d="M0 0h56v56H0z"/><path d="M27 38.17c0 2.67 1.72 4.83 4.5 4.83 1.27 0 2.26-.45 3.15-1.2.88.75 2.05 1.2 3.32 1.2A4.93 4.93 0 0 0 43 38.17V14.64c0-.9-.56-1.64-1.5-1.64s-1.5.73-1.5 1.64v23.8c0 .87-1.14 1.56-2.03 1.56-.9 0-1.97-.7-1.97-1.55V14.64c0-.9-.44-1.64-1.5-1.64s-1.5.79-1.5 1.64v23.8c0 .87-.6 1.56-1.5 1.56s-1.5-.7-1.5-1.55V17.83A4.9 4.9 0 0 0 25 13c-1.27 0-2.76.45-3.65 1.2a5.13 5.13 0 0 0-3.32-1.2A4.93 4.93 0 0 0 13 17.83v23.53c0 .9.56 1.64 1.5 1.64s1.5-.73 1.5-1.64v-23.8c0-.87 1.14-1.56 2.03-1.56.89 0 1.96.69 1.97 1.54v7.71c0 .9.56 1.75 1.5 1.75s1.5-.85 1.5-1.76v-7.69c0-.86 1.11-1.55 2-1.55.9 0 2 .7 2 1.55v7.86a2.9 2.9 0 0 1-1.44 2.5 2.9 2.9 0 0 1 1.44 2.5v7.76Z" fill="#0082C8"/><path d="M20 30.6c0-.88.67-1.6 1.5-1.6s1.5.72 1.5 1.6v10.8c0 .88-.67 1.6-1.5 1.6s-1.5-.72-1.5-1.6V30.6Z" fill="#0082C8"/></svg>