<!-- by TradingView --><svg width="56" height="56" viewBox="0 0 56 56" xmlns="http://www.w3.org/2000/svg"><path fill="#F0F3FA" d="M0 0h56v56H0z"/><path d="M6 24H4v7h5v-1H6v-6ZM15 24h-5v7h5v-1h-3v-5h3v-1ZM37 24h-2v7h2v-7ZM40 24h-2v7h2v-5.5l3 5.5h2v-7h-2v5.5L40 24ZM52 24v1h-3c-.33 0-1 .5-1 2.5s.83 2.5 1.5 2.5H51v-2h-1.5v-1H52v4h-2.5c-1 0-3.5-.7-3.5-3.5s2.33-3.5 3-3.5h3Z" fill="#30318B"/><path d="M15.94 28.37a15 15 0 0 0-4.4-.37l-.08-1a16 16 0 0 1 4.72.4c1.7.41 3.45 1.2 4.57 2.6h.51a5 5 0 0 1 1.13-.89c.59-.36 1.35-.7 2.26-1.02C26.48 27.47 28.95 27 32 27v1c-2.95 0-5.31.45-7.03 1.04-.85.29-1.54.61-2.06.93-.53.32-.85.6-1 .82l-.15.21h-1.52l-.15-.2c-.9-1.27-2.46-2.02-4.15-2.43Z" fill="#B08455"/><path d="M29 24h-1v2.86l2-.29V25h1c1 0 2 .5 2 2v1c0 1.6-1 2-2 2h-1v-1.42l-2 .34V31h3.5c2 0 2.5-2 2.5-3v-1c0-2-1.5-3-2.5-3H29Z" fill="#30318B"/><path d="M15.5 32h1l1.4-2.33-.67-.5L15.5 32Zm2.5-4.08.75.33L21 24.5l1.96 3.67 1.45-.83L22 23h-1l-3 4.92Zm7.54 1.45-1.36 1.09L25 32h2l-1.46-2.63Z" fill="#2C308B"/></svg>