<!-- by TradingView --><svg width="56" height="56" viewBox="0 0 56 56" xmlns="http://www.w3.org/2000/svg"><path fill="#F0F3FA" d="M0 0h56v56H0z"/><path d="M21.43 12.33a16.67 16.67 0 0 1 9.77-1.01c3.4.65 6.34 2.2 8.79 4.65a17.1 17.1 0 0 1 4.68 8.88c.02.08-.01.15-.1.15h-2.99c-.06 0-.1-.06-.11-.12a13.8 13.8 0 0 0-20.12-9.05 13.63 13.63 0 0 0-4.77 4.32 13.78 13.78 0 0 0-1.54 12.75 13.78 13.78 0 0 0 9.82 8.58A13.78 13.78 0 0 0 41.7 30.1c.01-.05-.01-.09-.07-.09H39.9c-.07 0-.1-.03-.09-.1.14-.82.18-1.64.14-2.44 0-.06.03-.09.08-.09h4.81c.1 0 .16.06.16.16A17.06 17.06 0 0 1 28.42 45h-.8l-.56-.04a16.97 16.97 0 0 1-13.28-7.67A16.34 16.34 0 0 1 11 27.93c.02-3.41.98-6.53 2.87-9.36a16.65 16.65 0 0 1 7.56-6.24Zm5.98 4.62c.82-.04 1.61 0 2.39.13.06.01.09.05.08.12l-.5 2.88c-.02.04 0 .07.05.08.61.13 1.16.3 1.64.5s.98.47 1.5.82c.04.02.08.02.1-.02l1.7-2.39c.04-.05.08-.06.14-.02a10.87 10.87 0 0 1 3.15 3.55c.03.05.01.1-.04.13l-2.57 1.4c-.04.02-.05.06-.03.1.28.56.49 1.1.63 1.59.14.5.24 1.06.3 1.69 0 .04.03.07.08.06l2.92-.16c.07 0 .1.03.1.1a10.78 10.78 0 0 1-.8 4.67c-.03.06-.07.07-.13.05l-2.7-1.14c-.04-.01-.07 0-.1.04a9.54 9.54 0 0 1-.85 1.49c-.3.42-.68.85-1.13 1.29-.03.03-.03.06 0 .1l1.95 2.18c.04.05.04.1 0 .14a10.86 10.86 0 0 1-4.17 2.28c-.06.02-.1 0-.12-.07l-.8-2.81c0-.05-.04-.06-.08-.05-.61.14-1.18.23-1.7.26a9.6 9.6 0 0 1-1.7-.08c-.06 0-.08.01-.1.06l-.48 2.88c-.02.07-.05.1-.12.08a10.8 10.8 0 0 1-4.37-1.83c-.06-.04-.06-.08-.03-.13l1.71-2.38c.03-.04.02-.07-.01-.1-.5-.39-.92-.78-1.26-1.16a9.58 9.58 0 0 1-1.01-1.4c-.02-.03-.06-.04-.1-.02l-2.56 1.42c-.06.03-.1.01-.13-.04a10.74 10.74 0 0 1-1.3-4.56c0-.07.03-.1.09-.1l2.92-.16c.05 0 .07-.02.07-.07 0-.63.04-1.2.13-1.7.09-.52.24-1.07.45-1.66.02-.04 0-.07-.04-.1l-2.7-1.11c-.06-.03-.08-.07-.05-.13a10.88 10.88 0 0 1 2.76-3.86c.04-.04.09-.04.13 0l1.94 2.2c.03.03.07.04.1 0a9.42 9.42 0 0 1 3-1.64c.04 0 .05-.04.04-.08l-.8-2.82c-.02-.06 0-.1.06-.12a10.9 10.9 0 0 1 2.35-.38Zm.6 8.05a3 3 0 1 0 0 6 3 3 0 0 0 0-6Z" fill="#E60013"/></svg>