<!-- by TradingView --><svg width="56" height="56" viewBox="0 0 56 56" xmlns="http://www.w3.org/2000/svg"><path fill="#F0F3FA" d="M0 0h56v56H0z"/><path d="M36.56 35.62c2.41-1.17 2.71-3.75 2.56-4.9a9.93 9.93 0 0 1-1.39 10.16c-1.6 1.18-5.88 3.4-9.93 3.1-7.06-.38-11.46-3.98-13.64-7.75-1.75-3.02-2.11-5.62-2.1-6.49a9.73 9.73 0 0 0 6.38 6.07c1.34.42 5.08.77 6.77.89 2.78.13 8.94.09 11.35-1.08Z" fill="url(#a)"/><path d="M30.32 16.73c-2.22-1.51-4.6-.48-5.51.22 3.5-3.9 7.74-4.14 9.42-3.77 1.83.8 5.92 3.31 7.67 6.98 3.21 6.33 2.31 11.95.15 15.73-1.74 3.03-3.68 4.64-4.43 5.06a9.62 9.62 0 0 0 1.92-8.57c-.31-1.38-1.88-4.8-2.62-6.33-1.28-2.48-4.39-7.81-6.6-9.32Z" fill="url(#b)"/><path d="M17.08 31.62c-.19 2.66 1.94 4.07 3 4.51-5.65-.72-7.47-4.5-8-6.14-.23-1.98-.12-6.75 2.16-10.09 3.82-5.9 9.1-7.9 13.43-7.9 3.46 0 5.82.88 6.56 1.32a9.49 9.49 0 0 0-8.32 2.58c-1.03.95-3.18 4-4.13 5.4-1.48 2.33-4.5 7.66-4.7 10.32Z" fill="url(#c)"/><defs><linearGradient id="a" x1="14.18" y1="31.97" x2="38.67" y2="31.36" gradientUnits="userSpaceOnUse"><stop stop-color="#898886"/><stop offset=".38" stop-color="#C3C2C0"/><stop offset="1" stop-color="#52534D"/></linearGradient><linearGradient id="b" x1="38.36" y1="38" x2="25.52" y2="17.06" gradientUnits="userSpaceOnUse"><stop stop-color="#019F42"/><stop offset=".27" stop-color="#A2C63E"/><stop offset=".54" stop-color="#0AA542"/></linearGradient><linearGradient id="c" x1="31.32" y1="14.14" x2="19.64" y2="35.53" gradientUnits="userSpaceOnUse"><stop stop-color="#EE600A"/><stop offset=".38" stop-color="#F48C43"/><stop offset="1" stop-color="#EC600B"/></linearGradient></defs></svg>