<!-- by TradingView --><svg width="56" height="56" viewBox="0 0 56 56" xmlns="http://www.w3.org/2000/svg"><path fill="#F0F3FA" d="M0 0h56v56H0z"/><path fill-rule="evenodd" d="m31.12 26.31.66-7.22h.02v.01l.41 5.36c0 .03 0 .05-.04.06-.3.14-.4.3-.32.5.06.16.15.3.26.42.05.05.12.09.23.11.04 0 .06.03.07.07l.06.77c0 .07-.02.13-.06.2-.05.07-.1.1-.16.08a.3.3 0 0 1-.12-.08 7.05 7.05 0 0 0-.33-.3c-.05-.04-.1-.06-.13-.05-.04 0-.08.03-.12.08-.22.23-.49.42-.8.55-.15.07-.27.03-.34-.1a5.84 5.84 0 0 1-.17-.33.04.04 0 0 0-.04-.03.04.04 0 0 0-.05.03c-.18.4-.34.7-.47.88-.2.27-.47.47-.8.6-.05.02-.09 0-.11-.04a70.75 70.75 0 0 1-.27-.83c-.08-.25-.17-.42-.27-.5a1.1 1.1 0 0 0-.77-.22c-.19.01-.37.12-.53.32-.05.06-.1.09-.14.1-.26.05-.43.02-.52-.09-.18-.2-.33-.34-.46-.4-.19-.09-.38-.07-.6.04-.16.08-.22.23-.19.45.03.19.1.35.23.47l.37.35c.1.08.2.12.3.14h.3l.14-.01c.19-.01.28.08.26.29v.06c0 .23-.03.39-.07.48a.4.4 0 0 1-.32.29l-.06-.01a1 1 0 0 1-.33-.33c-.09-.13-.17-.16-.24-.1-.3.27-.63.44-1 .5-.02 0-.04 0-.05-.02a.7.7 0 0 1-.1-.5l-.01-.05a3.75 3.75 0 0 0-.8-.88l-.04-.03a1.7 1.7 0 0 0-.25-.2.63.63 0 0 0-.3-.07c-.08 0-.18.08-.3.24a.86.86 0 0 1-.14.14.6.6 0 0 1-.29.11c-.06.01-.09.04-.08.1.03.31-.02.65-.15 1.02-.05.13-.1.23-.18.32-.49.6-1.06 1.17-1.71 1.68-.28.22-.63.37-1.06.46-.02 0-.03 0-.01-.02a29.7 29.7 0 0 0 1.77-1.94 11.53 11.53 0 0 0 2.95-8.6 3.8 3.8 0 0 0-.52-1.59 2.62 2.62 0 0 0-2.26-1.3h-.54c-.35 0-.6-.03-.76-.1a2.12 2.12 0 0 0-1.27-.13c-.5.11-.98.3-1.46.59-.55.31-1.06.67-1.54 1.07a22.6 22.6 0 0 0-3.01 3 16.01 16.01 0 0 0-2.64 4.33 11.1 11.1 0 0 0-.82 4.96c.03.51.16.96.37 1.34a4.28 4.28 0 0 0 3.02 2.13 3.7 3.7 0 0 0 2.66-.58c.05-.03.08-.04.12-.04a7.67 7.67 0 0 0 5.38-1.56c.51-.38.94-.73 1.3-1.06.2-.2.37-.43.51-.72.01-.02.03-.02.05-.01l.23.15c.22.16.43.24.64.26a2.37 2.37 0 0 0 1.06-.17 8.82 8.82 0 0 0 1.53-.87h.06c.27.19.56.2.9.06.24-.12.48-.3.73-.58a.1.1 0 0 1 .1-.04c.25.05.49.04.73-.01.2-.05.42-.13.68-.26.02 0 .04 0 .05.02.06.1.16.16.3.2.3.1.88-.36 1.75-1.35.06-.08.13-.12.18-.11.4.01.73 0 1-.07.33-.08.63-.23.9-.44a.06.06 0 0 1 .05-.02c.55.15 1.14.13 1.77-.05.57-.17 1.1-.44 1.58-.83.08-.06.15-.08.21-.07.3.02.6.03.87.01.02 0 .04.01.04.03a4.35 4.35 0 0 0 .99 1.56c.12.08.25.11.38.08.1-.02.23-.09.38-.19.34-.23.54-.54.6-.92.05-.39-.06-.73-.35-1.03a.41.41 0 0 0-.15-.1.8.8 0 0 0-.17-.03l-.11-.01c-.22-.03-.34-.16-.36-.37 0-.1.01-.17.06-.22.3-.33.47-.7.54-1.12.08-.53.08-.99-.01-1.38-.12-.52-.4-.86-.83-1.02-.35-.14-.64-.06-.86.22-.17.22-.27.51-.31.88-.05.5-.08.88-.09 1.16 0 .35.02.69.07 1.03 0 .04 0 .05-.05.05a3.09 3.09 0 0 1-1.01-.33c-.04-.02-.08-.01-.11.03-.06.08-.1.12-.13.13-.02 0-.04-.01-.03-.04l.02-.21c0-.03 0-.04-.03-.06a.06.06 0 0 0-.05-.01 3 3 0 0 0-1.68 1.15 1.5 1.5 0 0 1-.3.31c-.05.03-.09.02-.12-.03a.95.95 0 0 1-.1-.3 3.47 3.47 0 0 1-.03-.34v-.04c0-.17 0-.3.05-.4.05-.12.15-.2.3-.25l.79-.23c.25-.07.35-.2.3-.39-.08-.3-.24-.56-.47-.78l-.01-.01a.76.76 0 0 0-.19-.14c-.06-.03-.14-.02-.23.02l-.66.25c-.02.01-.04 0-.05-.02-.1-.36-.38-.58-.86-.65-.04-.01-.11 0-.21.02l-.09.02c-.02 0-.04 0-.04-.03l-.54-7.04c0-.03-.02-.05-.06-.05h-.36c-.04 0-.06.02-.07.06l-.92 10.23c0 .05.01.08.06.08h.35c.05 0 .07-.02.07-.06Zm6.71-.26c0-.03-.03-.05-.07-.05l-.99.01a.17.17 0 0 0-.11.04c-.32.27-.6.47-.86.58-.33.15-.68.2-1.03.16a.4.4 0 0 0-.13.01.12.12 0 0 0-.05.03c-.57.48-1.11.56-1.63.22-.02-.01-.04 0-.06.01-.57.55-1.26.72-2.06.51a.13.13 0 0 0-.14.04c-.43.43-.92.8-1.49 1.13-.26.15-.55.25-.85.27a1.8 1.8 0 0 1-.89-.14l-.05.01c-.27.27-.54.5-.81.68a1.4 1.4 0 0 1-.68.27c-.23.02-.44-.08-.63-.29-.02-.02-.05-.03-.08 0a21.98 21.98 0 0 1-1.86.99 1.1 1.1 0 0 1-.49.1.17.17 0 0 1-.12-.05.16.16 0 0 1-.05-.12c0-.15.08-.4.23-.72.1-.21.15-.47.14-.78 0-.05-.03-.07-.07-.07h-.28c-.05 0-.08.01-.1.05a3 3 0 0 1-.46.8c-.5.59-1.2 1.26-2.14 2.02a7.6 7.6 0 0 1-5.17 1.72c-.1 0-.17.02-.23.06-.3.2-.5.32-.6.37-.7.37-1.41.52-2.12.43a2.9 2.9 0 0 1-1.89-1c-.43-.5-.67-1.11-.72-1.85-.09-1.2.03-2.36.34-3.5.32-1.15.79-2.28 1.42-3.38a17 17 0 0 1 2.17-2.97c.66-.72 1.32-1.38 2-1.98.8-.72 1.6-1.27 2.41-1.67.28-.14.57-.24.85-.3.35-.07.64-.07.87.02.07.02.07.04 0 .06l-.21.06c-.93.35-1.78.82-2.55 1.42-1.23.95-2.3 2.03-3.2 3.23-.72.97-1.37 2.04-1.94 3.22-.3.61-.55 1.22-.75 1.83-.25.78-.4 1.5-.45 2.16-.13 1.72.46 2.86 1.76 3.43a2.83 2.83 0 0 0 1.65.2c.23-.05.44-.15.62-.3.03-.03.04-.06.02-.1-.12-.18-.2-.34-.25-.47-.17-.43-.3-.9-.42-1.38-.11-.46-.17-.86-.18-1.22-.04-.9.1-1.93.4-3.12.37-1.39.91-2.63 1.65-3.71a21.02 21.02 0 0 1 3.34-4 4.14 4.14 0 0 1 2.06-1.04c.7-.12 1.27.1 1.68.66.34.47.53 1.06.57 1.78a12.2 12.2 0 0 1-1.3 5.9c-.45.8-.99 1.6-1.63 2.36a29.13 29.13 0 0 1-3.14 3.2.04.04 0 0 0-.01.05c0 .02.01.03.03.04.6.11 1.27 0 2-.33a7.08 7.08 0 0 0 1.72-1.14c.5-.43.94-.87 1.32-1.3.26-.31.39-.77.38-1.38 0-.02 0-.04.02-.05.06-.05.1-.08.14-.08.05-.01.13-.09.25-.23.19-.22.59.07 1.2.87l.01.02c.02.02.02.04.01.07-.13.32-.22.66-.27 1.02 0 .02 0 .04.03.05.05.03.1.03.18 0 .56-.2 1.07-.47 1.51-.8.02-.02.05-.02.07 0 .18.13.32.21.43.26.16.06.32.08.47.04.02 0 .04-.01.05-.03a.74.74 0 0 0 .2-.56c-.06-.54 0-1.01.14-1.42.12-.33.35-.48.7-.47.15 0 .29.06.4.17.12.1.19.22.2.37.05.4 0 .8-.16 1.22v.05c.02.02.03.03.06.03.4.02.8-.12 1.23-.42.26-.17.52-.48.8-.93.02-.02.03-.03.06 0 .1.12.25.17.41.13.19-.03.32-.07.39-.11.21-.11.42-.25.62-.42.03-.02.05-.02.08 0 .13.12.26.2.4.24.18.04.31 0 .42-.13.04-.05.06-.18.07-.4 0-.4-.01-.82-.06-1.25a.07.07 0 0 0-.03-.06.07.07 0 0 0-.07 0l-.19.1a.06.06 0 0 1-.06-.01.54.54 0 0 1-.2-.19.11.11 0 0 1 0-.09.11.11 0 0 1 .05-.06l.35-.17a.08.08 0 0 0 .05-.08l.01-.97c0-.13.07-.21.2-.25l.16-.04c.13-.04.2.01.2.14v.94l.02.03h.03l1.37-.65c.07-.04.1-.01.1.07v.19c0 .06-.03.1-.09.13l-1.31.63a.06.06 0 0 0-.03.04A6.89 6.89 0 0 0 33.2 26c.02.16.08.31.16.46.07.1.17.19.28.23.13.05.24.06.36.01.13-.05.25-.13.38-.23a4.64 4.64 0 0 0 .44-.48c.21-.24.45-.42.7-.54.1-.05.13-.03.07.07-.05.08-.09.17-.12.28a.68.68 0 0 0-.02.31c0 .04.03.07.06.08a.1.1 0 0 0 .1 0c.33-.2.62-.45.86-.76.03-.03.06-.04.1-.03.36.14.74.2 1.15.17.05 0 .06-.03.06-.07a9.08 9.08 0 0 1 .03-2.54c.05-.27.15-.48.3-.65.2-.2.42-.23.65-.08.18.12.3.3.37.57a2.85 2.85 0 0 1-.4 2.25.93.93 0 0 1-.13.13l-.08.08a.1.1 0 0 0-.03.06c-.04.25.02.55.18.9.05.12.19.19.41.21.18.03.35.02.49-.03.02 0 .04 0 .05.02.02 0 .03.03.02.05-.04.25-.15.5-.34.73-.16.22-.37.4-.61.54-.08.04-.14.03-.2-.04-.15-.2-.27-.45-.38-.72a9.86 9.86 0 0 1-.25-.82l-.03-.11ZM19.2 29.23a24.5 24.5 0 0 1-3.02 2.5c-.06.05-.12.06-.17.05a.49.49 0 0 1-.15-.1 9.2 9.2 0 0 1-.68-6.4c.32-.93.72-1.84 1.2-2.7.18-.34.42-.7.71-1.06.21-.27.5-.6.86-1 .57-.63 1.14-1.16 1.72-1.58.7-.52 1.27-.74 1.74-.67.54.1.93.5 1.15 1.22.16.5.22 1.09.2 1.76a12.13 12.13 0 0 1-3.56 7.98Zm8.57-1.98-.4-.03-.01.15c-.02.2-.01.37.01.52.03.14.07.22.13.22s.11-.06.16-.2a2 2 0 0 0 .1-.51v-.15Zm-6.37-1.5a11.23 11.23 0 0 1-2.16 3.07 22.7 22.7 0 0 1-2.63 2.2.06.06 0 0 1-.08 0c-.4-.28-.65-.75-.76-1.4-.25-1.51 0-3.14.71-4.9.71-1.72 1.76-3.25 3.16-4.6.31-.31.62-.56.92-.75.46-.3.82-.4 1.1-.31.48.15.74.68.8 1.6.02.5-.03 1.17-.15 2.02l-.01.12a9.57 9.57 0 0 1-.9 2.95Zm-2.95-6.57c-.6.52-1.2 1.15-1.82 1.9a15.6 15.6 0 0 0-2.23 3.45 14.14 14.14 0 0 0-1.19 4.5 6.1 6.1 0 0 0 .14 1.9c.1.42.18.76.27 1.02.11.36.25.68.4.94.03.05.02.08-.03.1a2.06 2.06 0 0 1-1.25.1c-.19-.06-.36-.16-.5-.31a3.26 3.26 0 0 1-.8-1.95c-.23-2.15.43-4.43 1.99-6.83.89-1.38 1.78-2.5 2.69-3.37a7.96 7.96 0 0 1 1.78-1.3c.2-.1.39-.18.56-.23.08-.03.09-.01.03.05l-.04.03Zm7.4 7.75c-.04.17-.22.28-.4.24-.2-.03-.31-.2-.28-.38.04-.17.22-.28.4-.24.19.04.31.2.28.38Zm12.54-4.3a.12.12 0 0 1 .05-.05c.24-.1.37.08.38.56 0 .37-.02.66-.06.85-.07.27-.2.5-.41.7a.07.07 0 0 1-.08.02.07.07 0 0 1-.05-.06c-.05-.22-.06-.49-.05-.8.01-.2.04-.47.1-.84 0-.12.05-.25.12-.38Zm-5.8 12.38.33-.87a.32.32 0 0 0 .02-.14l-.41-5.37c0-.04.01-.06.06-.06h.35c.05 0 .07.02.08.07l.4 5.21c0 .03.01.05.04.05l15.5 1.64c.03 0 .04.01.04.03v.37c0 .03-.01.04-.04.04l-16.67 1.5a.12.12 0 0 0-.1.09l-.51 1.36c-.04.1-.07.1-.1 0l-.64-1.7a.18.18 0 0 0-.1-.1l-1.58-.76a1.18 1.18 0 0 0-.5-.13 1491.2 1491.2 0 0 1-8.65-.14l-9.46-.18c-.17 0-.26-.07-.26-.22v-.02c-.01-.14.05-.21.2-.22.38-.03.97-.04 1.75-.05a2659.64 2659.64 0 0 0 9.7-.1l6.52-.05c.09 0 .17-.03.26-.09l1.01-.72a.2.2 0 0 0 .09-.15l.43-4.77c0-.02 0-.02.03-.02h.44l.02.01-.43 4.68c-.01.13.03.32.12.56.06.13.09.24.1.3 0 .02.01.02.02.03l.03-.01c.22-.2.4-.33.56-.37.5-.16.93-.05 1.32.3.02.02.03.02.03 0Zm4.64 1.3c.01 0 .02 0 .02-.02l.06-.98c0-.05-.02-.07-.07-.07l-4.23.04c-.02 0-.03 0-.04-.02a.04.04 0 0 1 0-.04l.36-.98c0-.02.02-.03.04-.03a5203.43 5203.43 0 0 0 14.35 1.53c.07.01.07.02 0 .03l-15.38 1.38c-.02 0-.03 0-.02-.03.06-.32.21-.6.44-.86a.07.07 0 0 1 .06-.02l4.4.07Zm-7.03-1h-.9l-.03-.01v-.03l.73-.53c.02-.02.03-.01.04 0l.18.53c0 .02 0 .03-.02.03Zm-13.73.39h-.01l14.3-.14c.03 0 .05 0 .06-.02l.04-.08.07-.13c.1-.14.23-.24.39-.3a.86.86 0 0 1 .86.11c.12.1.22.23.3.38 0 .03.02.04.04.04l4.57-.05.02.02-.03.5c0 .02 0 .02-.02.02l-4.51-.07-.04.01a.44.44 0 0 0-.07.13.85.85 0 0 1-.89.48.81.81 0 0 1-.73-.58c-.01-.05-.05-.08-.1-.08a634.8 634.8 0 0 1-9.46-.15 214.34 214.34 0 0 1-4.79-.1Zm15.18.5c.23 0 .42-.2.42-.42 0-.23-.19-.42-.42-.42a.42.42 0 0 0-.43.42c0 .23.2.41.43.41Zm-1.87.06c-.1-.05-.1-.07.01-.07l.67.01c.04 0 .07.02.08.05l.2.42v.03h-.02l-.94-.44Zm1.9 1.41.26-.74c0-.02 0-.03-.02-.03h-.53c-.02 0-.03.02-.02.03l.27.74c0 .01 0 .02.02.02l.02-.02Z" fill="#BC9635"/></svg>