<!-- by TradingView --><svg width="56" height="56" viewBox="0 0 56 56" xmlns="http://www.w3.org/2000/svg"><path fill="#F0F3FA" d="M0 0h56v56H0z"/><path d="M42.78 34.12a15.85 15.85 0 0 0 0-12.24 15.84 15.84 0 0 0-8.66-8.66 15.85 15.85 0 0 0-12.24 0 15.84 15.84 0 0 0-8.66 8.66 15.85 15.85 0 0 0 0 12.24 15.84 15.84 0 0 0 8.66 8.66 15.85 15.85 0 0 0 12.24 0 15.84 15.84 0 0 0 8.66-8.66Zm-13.41 1.82a3.6 3.6 0 0 0 2.03-1.04c.5-.56.76-1.28.75-2.17v-1.79c0-.07.03-.1.1-.05l2.67 1.56c.04.02.06.06.06.1a5.67 5.67 0 0 1-1.43 4.36 6.05 6.05 0 0 1-3.05 1.8c-1.1.29-2.32.36-3.64.22a6.88 6.88 0 0 1-3.24-1.22 5.65 5.65 0 0 1-1.94-2.48 8.44 8.44 0 0 1-.65-3.17A347.9 347.9 0 0 1 21 24.3c.01-1.68.37-3.1 1.08-4.29a5.81 5.81 0 0 1 3.41-2.63 9.1 9.1 0 0 1 3.88-.28 5.93 5.93 0 0 1 4.16 2.44c.5.66.72 1.2.69 1.63-.06.66-.44 1.08-1.13 1.27-.4.11-.72.08-.97-.08a3.5 3.5 0 0 1-.75-.83 3.68 3.68 0 0 0-1.87-1.38 5.43 5.43 0 0 0-2.34-.11 3.22 3.22 0 0 0-2.95 2.72A11.3 11.3 0 0 0 24 25.2V31.89c.02 1.06.3 1.97.79 2.75.42.67 1.1 1.11 2.04 1.32.78.16 1.63.16 2.54-.02ZM35 26.06v5.25c0 .07-.03.09-.08.05l-8.9-5.25c-.02-.02-.03-.04-.02-.07.01-.03.03-.04.06-.04h8.88c.04 0 .06.02.06.06Z" fill="#F7931D"/></svg>