<!-- by TradingView --><svg width="56" height="56" viewBox="0 0 56 56" xmlns="http://www.w3.org/2000/svg"><path fill="#F0F3FA" d="M0 0h56v56H0z"/><path d="m30.46 25.92-2.08 2.3-1.8 2.16c-.16.18-.12.24.1.17l3.92-1.22c.42.2.77.48 1.04.83l-6.26 2a.43.43 0 0 0-.27.24l-1.63 3.34c-.1.21-.05.27.16.18l9.88-4.34.7.8-11.1 4.99a.58.58 0 0 0-.33.43l-.56 3.43c-.05.32.07.4.35.25l12.94-7.1.46 1-13.62 7.54a.43.43 0 0 0-.22.4l.27 5.59a.08.08 0 0 1-.06.09.08.08 0 0 1-.09-.06c-3.33-8.12-2.27-15.5 3.17-22.12l1.96-2.27 1.93-2.06c4.6-4.88 3.24-9.75 1.05-15.38a.08.08 0 0 1 .04-.1.08.08 0 0 1 .1.02c3.7 4.74 5.72 10.14 2.4 15.78-.49.84-1.3 1.88-2.45 3.11Z" fill="#409649"/><path d="m28.91 12.67.45 2.62a.61.61 0 0 1-.16.52l-1.75 1.86a.6.6 0 0 1-.67.14l-2.48-1.06a.6.6 0 0 1-.36-.45l-.47-2.54a.61.61 0 0 1 .18-.55l1.89-1.81a.6.6 0 0 1 .64-.13l2.36.94a.6.6 0 0 1 .37.46ZM27.4 24.55l-1.97 2.27c-5.2-2.5-8.18-7.94-5.32-13.46 0-.02.02-.04.04-.05a.08.08 0 0 1 .11.1c-.87 5.21 2.26 9.3 7.13 11.14ZM30.46 25.92c6.31 2.56 8.67 7.92 7.04 14.42a.06.06 0 0 1-.11.04.06.06 0 0 1-.02-.05c-.83-6.03-4.08-9.64-9-12.12l2.1-2.29Z" fill="#294174"/></svg>