<!-- by TradingView --><svg width="56" height="56" viewBox="0 0 56 56" xmlns="http://www.w3.org/2000/svg"><path fill="#F0F3FA" d="M0 0h56v56H0z"/><path d="M29.37 11h-2.74c-.07 0-.13.06-.13.14v10.72c0 .08.06.14.13.14h2.74c.07 0 .13-.06.13-.14V11.14c0-.08-.06-.14-.13-.14Zm-9.3 11.27a.07.07 0 0 0-.04-.06c-.03-.01-.06 0-.08.02a11.17 11.17 0 0 0-3.27 10.9c.45 1.77 1.3 3.34 2.53 4.73a11.66 11.66 0 0 0 6.97 3.77c.12.02.18-.03.18-.14V30.15c0-.11.05-.15.17-.15h3.02c.08 0 .12.02.12.1v11.36c0 .14.07.2.2.17 2.55-.45 4.7-1.55 6.47-3.29a11.05 11.05 0 0 0-.17-16 .15.15 0 0 0-.16-.04.15.15 0 0 0-.11.12c-.62 3.49-.8 7.04-.51 10.65.04.51.01.86-.08 1.05-.27.53-.67.82-1.19.86-.88.07-1.5-.22-1.82-.86a4.85 4.85 0 0 1-.3-1.72c-.22-3.9.06-7.78.85-11.65.53-2.62 1.3-5.11 2.3-7.48.3-.7.88-1 1.76-.94.61.05 1.28.07 2.02.06.05 0 .08.01.1.05.03.04.04.08.02.12-.8 1.74-1.5 3.55-2.07 5.43-.06.17-.09.35-.1.52 0 .09.03.15.1.2.51.42.87.71 1.06.89 2.71 2.44 4.31 5.35 4.8 8.74.49 3.37-.14 6.5-1.87 9.42a15.31 15.31 0 0 1-7.03 6.05 15.33 15.33 0 0 1-9.38.8c-1.4-.32-2.67-.8-3.82-1.43a14.7 14.7 0 0 1-6.18-6.27A14.13 14.13 0 0 1 14.08 25a14.67 14.67 0 0 1 5.02-6.33c.12-.08.15-.18.1-.31l-2.5-6a.1.1 0 0 1 .02-.11.1.1 0 0 1 .1-.04c.98.09 1.9.03 2.78-.16.47-.1.87.24 1.19 1.02a43.98 43.98 0 0 1 3.19 19.76c-.06 1.02-.32 1.65-.78 1.9a1.9 1.9 0 0 1-1.75.12c-.4-.18-.67-.45-.78-.82a3.1 3.1 0 0 1-.04-1.05c.27-3.6.09-7.17-.55-10.71Zm8.14 1.82 1.7 1.7a.3.3 0 0 1 0 .42l-1.7 1.7a.3.3 0 0 1-.42 0l-1.7-1.7a.3.3 0 0 1 0-.42l1.7-1.7a.3.3 0 0 1 .42 0Z" fill="#CEA064"/></svg>