<!-- by TradingView --><svg width="56" height="56" viewBox="0 0 56 56" xmlns="http://www.w3.org/2000/svg"><path fill="#F0F3FA" d="M0 0h56v56H0z"/><path d="M8.3 22H11l2.5 8 2.5-8h2.68L15 34h-3L8.3 22ZM7 22h3v12H7V22Zm10 0h3v12h-3V22ZM33 27.74v.52C33 31.5 30.82 34 27.52 34c-3.3 0-5.52-2.5-5.52-5.74v-.52c0-3.23 2.2-5.74 5.5-5.74s5.5 2.52 5.5 5.74Zm-3 .52v-.53c0-1.7-.5-3.73-2.5-3.73-2.02 0-2.5 2.03-2.5 3.73v.53c0 1.71.48 3.74 2.5 3.74 2 0 2.5-2.06 2.5-3.74ZM49 22v12h-3V22h3ZM41.92 27.84c1.3.32 2.08 1.6 2.08 2.9 0 2.11-1.62 3.26-3.63 3.26H35V22h5.2c1.92 0 3.55 1.06 3.55 3.11 0 1.22-.62 2.36-1.83 2.73Zm-3.9-.84h1.52c.76 0 1.46-.8 1.46-1.5 0-.71-.7-1.5-1.46-1.5h-1.52v3Zm1.73 5c.76 0 1.25-.56 1.25-1.27s-.5-1.75-1.25-1.75h-1.73L38 32h1.75Z" fill="#18407E"/></svg>