<!-- by TradingView --><svg width="56" height="56" viewBox="0 0 56 56" xmlns="http://www.w3.org/2000/svg"><path fill="#F0F3FA" d="M0 0h56v56H0z"/><path d="M21 28.83A9.92 9.92 0 0 1 28 19c-2.57-.35-7.74-1-7.92-1-.22 0-5.78 5.82-5 13.99.61 6.52 8.98 8.74 12.92 9.01v-3.52c-1.99 0-7-3.2-7-8.65Z" fill="url(#a)"/><path d="M12.62 28.42A14.54 14.54 0 0 0 28 41c-6.47-1.2-12-4.5-12-11.53 0-5.61 4.59-8.67 7-9.47-3.6.87-9.04 2.64-10.38 8.42Z" fill="#0296D2"/><path d="M28 19v-8c-10.17 1.97-16 10.23-16 15 0 3.82 1.34 6.26 2.07 7-.35-.74-1.07-2.6-1.07-4.13 0-6.49 10.05-9.26 15-9.87Z" fill="url(#b)"/><path d="M35 27.21a9.92 9.92 0 0 1-7 9.83c2.57.35 7.74 1 7.92 1 .22 0 5.78-5.82 5-13.98-.61-6.53-8.98-8.75-12.92-9.02v3.53c1.99 0 7 3.19 7 8.64Z" fill="url(#c)"/><path d="M43.38 27.62A14.54 14.54 0 0 0 28 15.04c6.47 1.2 12 4.51 12 11.53 0 5.61-4.59 8.67-7 9.47 3.6-.87 9.04-2.63 10.38-8.42Z" fill="#0296D2"/><path d="M28 37.04V45c10.17-1.97 16-10.19 16-14.96 0-3.82-1.34-6.26-2.07-7 .35.74 1.07 2.6 1.07 4.13 0 6.49-10.05 9.26-15 9.87Z" fill="url(#d)"/><defs><linearGradient id="a" x1="16.62" y1="24.31" x2="31.18" y2="42.23" gradientUnits="userSpaceOnUse"><stop stop-color="#8EDBFE"/><stop offset="1" stop-color="#E2F8FF"/></linearGradient><linearGradient id="b" x1="20" y1="11" x2="20" y2="33" gradientUnits="userSpaceOnUse"><stop stop-color="#00B5F4"/><stop offset="1" stop-color="#124FA0"/></linearGradient><linearGradient id="c" x1="39.38" y1="31.74" x2="24.82" y2="13.81" gradientUnits="userSpaceOnUse"><stop stop-color="#8EDBFE"/><stop offset="1" stop-color="#E2F8FF"/></linearGradient><linearGradient id="d" x1="36" y1="45.04" x2="36" y2="23.04" gradientUnits="userSpaceOnUse"><stop stop-color="#00B5F4"/><stop offset="1" stop-color="#124FA0"/></linearGradient></defs></svg>