<!-- by TradingView --><svg width="56" height="56" viewBox="0 0 56 56" xmlns="http://www.w3.org/2000/svg"><path fill="#F0F3FA" d="M0 0h56v56H0z"/><path d="M41.82 40h-.78l-7.88-6.07a1.02 1.02 0 0 0-.77-.2 1.03 1.03 0 0 0-.68.4 12.9 12.9 0 0 1-5.1 4.2A22.58 22.58 0 0 1 21.47 40h-5.2c-4.5-1.35-6.57-4.13-6.23-8.35a10.6 10.6 0 0 1 2.89-6.47c2.4-2.61 5.37-4.7 8.9-6.26a33.67 33.67 0 0 1 9.84-2.75c3.7-.41 7.23-.08 10.61 1.02.88.28 1.68.74 2.4 1.38 1.4 1.24 1.67 2.79.89 4.55a9.26 9.26 0 0 1-4.83 4.75 16.5 16.5 0 0 1-4.4 1.27c-.64.1-.85-.15-.64-.74l.59-1.7c.22-.61.67-.95 1.34-1 .74-.05 1.7-.34 2.87-.85 2.76-1.22 3.74-4.39.82-6.2a9 9 0 0 0-3.57-1.16c-5.11-.66-9.62.19-14.36 2.03a22.9 22.9 0 0 0-9.5 6.6 8.24 8.24 0 0 0-1.84 7.15c.53 2.81 2.99 4.77 5.93 4.72 2.57-.05 5.44-1.04 7.7-2.28a13 13 0 0 0 3.95-3.26.77.77 0 0 0-.08-1.05 12.7 12.7 0 0 0-6.16-3.1.48.48 0 0 1-.25-.12.46.46 0 0 1-.1-.51c.05-.09.1-.16.19-.2a5.3 5.3 0 0 1 4.37-.63c1.03.28 2.08.74 3.15 1.39a.94.94 0 0 0 1.36-.48l1.74-4.97a.36.36 0 0 0-.03-.32 2.1 2.1 0 0 0-.84-.75.48.48 0 0 1-.28-.43c-.01-.34.2-.58.64-.74.53-.2 1.74-.5 3.62-.9a.63.63 0 0 1 .6.19.6.6 0 0 1 .11.6l-3.28 9.36a1.1 1.1 0 0 0 .38 1.26l5.57 4.28c1.12.86 2.37.1 3.45-.57.14-.09.29-.1.45-.05.25.09.4.24.46.47.03.12-.02.29-.16.5-.88 1.49-1.79 2.92-2.72 4.32Z" fill="#FF0202"/></svg>