<!-- by TradingView --><svg width="56" height="56" viewBox="0 0 56 56" xmlns="http://www.w3.org/2000/svg"><path fill="#F0F3FA" d="M0 0h56v56H0z"/><path d="m22.77 27.22 5.3-7.2.02-.02h.01a.04.04 0 0 1 .03.01l7.98 9.2c.12.15.27.17.42.06l5.85-3.97c.04-.03.08-.03.12 0A3808.6 3808.6 0 0 1 52 31.9c0 .02-.02.02-.03.01l-9.52-5.5a.1.1 0 0 0-.12 0l-5.2 3.54c-.05.03-.05.06-.02.1l2.47 2.81c.04.04.03.05-.02.03a9.57 9.57 0 0 1-.64-.2 1.7 1.7 0 0 1-.56-.36 66.24 66.24 0 0 1-3.62-3.48c-1.02-1.16-2.05-2.3-3.1-3.44-.02-.02-.04-.02-.06 0l-6.68 7.55a.15.15 0 0 1-.12.05h-.27c-.07 0-.09-.03-.04-.09a94.33 94.33 0 0 1 6.74-7.92c0-.02 0-.04-.02-.05a45 45 0 0 1-3.08-3.6l-.04-.01a.07.07 0 0 0-.05.02l-5.95 7.95c-.04.05-.06.04-.07-.02l-.56-3.54a.04.04 0 0 0-.03-.03.04.04 0 0 0-.04 0l-3.78 3.95c-.21.22-.48.4-.72.6-.03.04-.07.04-.11 0l-1.63-1.46a.1.1 0 0 0-.11-.01 216.03 216.03 0 0 1-5.79 3.35c-.28.16-.6.23-.9.33-.22.07-.23.04-.03-.08l6.42-3.96c.06-.04.07-.08.02-.14l-1.38-1.54c-.03-.04-.07-.04-.11-.02-1.94 1.05-3.88 2.1-5.82 3.13-1.07.57-2.26.87-3.4 1.27H4a.02.02 0 0 1 0-.03l2.84-1.67c2.18-1.29 4.28-2.75 6.4-4.13.05-.03.08-.02.11.01l3.5 3.92.02.01a.05.05 0 0 0 .04 0h.02l5-5.25c.04-.05.07-.04.09.03l.66 3.18c.01.06.04.07.08.02Z" fill="#567280"/></svg>