<!-- by TradingView --><svg width="56" height="56" viewBox="0 0 56 56" xmlns="http://www.w3.org/2000/svg"><path fill="#F0F3FA" d="M0 0h56v56H0z"/><path d="M50.7 27.27A1.83 1.83 0 0 0 49 26c-1.31 0-2 1.35-2 2.5 0 1.18.67 2.5 2 2.5.97 0 1.82-.76 1.82-1.74l.27.05H49v-.97h3v.82c0 1.66-1.35 2.84-3 2.84-1.99 0-3-1.62-3-3.5 0-1.83 1.13-3.5 3.1-3.5 1.36 0 2.63.87 2.84 2.27H50.7ZM45 25v7h-.88l-3.07-4.77H41V32h-1v-7h.88l3.07 4.77H44V25h1ZM39 28.5c0 1.8-1.05 3.5-3 3.5s-3-1.7-3-3.5 1.05-3.5 3-3.5 3 1.7 3 3.5Zm-1 0c0-1.12-.7-2.5-2-2.5s-2 1.38-2 2.5c0 1.13.7 2.5 2 2.5s2-1.37 2-2.5ZM27 32v-7h1v3.22h.08L30.6 25h1.37l-2.4 3.14L32 32h-1.35l-1.84-3-.81.91V32h-1ZM21 25h1v4.5c0 1.45-1.06 2.5-2.5 2.5a2.41 2.41 0 0 1-2.5-2.5V25h1v4.4c0 .82.66 1.6 1.5 1.6.85 0 1.5-.78 1.5-1.6V25ZM11 32v-7h1v3h3v-3h1v7h-1v-3h-3v3h-1ZM10 27.4H8.76c-.14-.81-.85-1.4-1.64-1.4C5.8 26 5 27.33 5 28.5S5.8 31 7.12 31c.77 0 1.49-.57 1.64-1.36l1.24.01C9.8 31.1 8.52 32 7.12 32 5.14 32 4 30.36 4 28.5 4 26.65 5.15 25 7.12 25c1.45 0 2.68.92 2.88 2.4Z"/></svg>