<!-- by TradingView --><svg width="56" height="56" viewBox="0 0 56 56" xmlns="http://www.w3.org/2000/svg"><path fill="#F0F3FA" d="M0 0h56v56H0z"/><path d="M20.39 15.97c-.09.02-.16.02-.23.02-.17.01-.2-.06-.1-.2a.8.8 0 0 1 .3-.23c3.42-1.67 6.98-2 10.66-.98 3.67 1.01 6.5 3.4 8.5 7.15.1.18.04.27-.17.27h-6.66a.4.4 0 0 1-.36-.21c-2.7-4.78-6.68-6.72-11.94-5.82Z" fill="#853136"/><path d="M20.99 16.62a13.4 13.4 0 0 0-2.75 4.29 8.02 8.02 0 0 0 0 5.08l-1.58 1.46a6.76 6.76 0 0 1-.79-5.6c.34-1.32.72-2.7 1.13-4.1A8.26 8.26 0 0 1 21 16.63Z" fill="#F5871F"/><path d="M28.01 18.49c-1.98.22-3.48.68-4.5 1.37-1.33.89-2.06 2.31-2.18 4.14-1.06 0-2.1.62-3.1 1.99a8.02 8.02 0 0 1 0-5.08A13.4 13.4 0 0 1 21 16.62c2.55-.27 4.9.35 7.02 1.87Z" fill="#FAA21B"/><path d="M17 17.76c-.41 1.4-.79 2.77-1.13 4.1a6.76 6.76 0 0 0 .8 5.6c.1.16.18.25.21.25a.17.17 0 0 1-.1.1.19.19 0 0 0-.11.1c-.16.34-.08.58.25.74a8.71 8.71 0 0 0 3.51 4.23 10.36 10.36 0 0 0 5.2 1.66c1.96.1 3.78-.29 5.47-1.15.29.45-.08 1.2-1.1 2.24-2.5.4-4.94.25-7.31-.46a10.94 10.94 0 0 1-6.17-4.67 13.05 13.05 0 0 1-2.1-7.61l.11-3.35A7.21 7.21 0 0 1 17 17.76Z" fill="#E57725"/><path d="M32 24h-3.06c-.64-1.78-1.58-2.64-2.81-2.5-1.13.12-2.14.98-3.02 2.5h-1.78c.12-1.83.85-3.25 2.18-4.14 1.02-.69 2.52-1.15 4.5-1.37 1.91 1.3 3.21 3.2 3.99 5.51Z" fill="#FDBD3E"/><path d="M14.53 19.54c-.04 1.14-.08 2.26-.1 3.35-.08 2.82.62 5.35 2.09 7.6a10.94 10.94 0 0 0 6.17 4.68c2.37.7 4.8.86 7.3.46a10.33 10.33 0 0 1-4.4 3.17c-1.22-.5-2.43-.99-3.64-1.44-1.62-.6-2.8-1.16-3.52-1.66a12.48 12.48 0 0 1-4.1-4.77 58.25 58.25 0 0 1-2.74-6.73c.5-1.73 1.48-3.28 2.94-4.66Z" fill="#D3692B"/><path d="M28.94 24H23.1c.88-1.52 1.89-2.38 3.01-2.5 1.24-.14 2.18.72 2.82 2.5Z" fill="#FFDA84"/><path d="M36.2 24c.77.04 1.27.72 1.48 1.27.22.54.08 1.11-.4 1.71-.61.75-1.26 1.5-1.96 2.26l-1.24 1.15c.14-1.16-.25-1.95-1.16-2.35l-.97-.06-15.07.01c-.03 0-.53-.09-.65-.26l1.57-1.46c1-1.37 2.04-2.26 3.1-2.27h15.3Z" fill="url(#a)"/><path d="M25.58 38.8c-3.88 1.3-7.3.76-10.25-1.62-3.95-3.18-5.2-7.5-3.74-12.98a58.23 58.23 0 0 0 2.75 6.73 12.48 12.48 0 0 0 4.1 4.77c.71.5 1.89 1.05 3.5 1.66 1.22.45 2.43.93 3.64 1.44Z" fill="#BA5630"/><path d="M20.71 28.67a6.63 6.63 0 0 0 5.9 2.82c.01 1.08.45 1.71 1.3 1.9.48.1 1.54.1 3.2 0-1.7.86-3.52 1.25-5.47 1.15-1.9-.1-3.63-.65-5.2-1.66a8.71 8.71 0 0 1-3.52-4.23l3.8.02Z" fill="#F5871F"/><path d="M28.68 28.71c0 .28-.12.49-.38.62-.53.27-.88.57-1.03.9l-.66 1.26a6.63 6.63 0 0 1-5.9-2.82l7.97.04Z" fill="#FAA21B"/><path d="M27.37 30c.16-.33.4-.4.93-.67.26-.13.39-.34.38-.62l3.71-.04c.44 0 .65.22.62.67l-.01.24c-.03.34-.2.41-.54.42h-5.09Z" fill="#853136"/><path d="m35.32 29 12.32.03c.4 0 .47.15.2.45l-2.36 2.64c-.26.3-.85.4-1.26.38H28.27a.6.6 0 0 1-.5-.23.63.63 0 0 1-.11-.6c0-.04.01-.07.03-.1.1-.3.32-.56.63-.57h3.94c.7 0 1.31-.23 1.82-.85L35.32 29Z" fill="url(#b)"/><path d="M32.93 34h6.87c.2 0 .25.09.16.26-2.62 5.08-6.74 7.65-12.38 7.74-2.21.03-4.28-.44-6.2-1.43-.53-.27-.5-.37.08-.3 4.88.52 8.62-1.52 11.23-6.13.05-.1.13-.14.24-.14Z" fill="#853136"/><defs><linearGradient id="a" x1="29.86" y1="24.58" x2="37.82" y2="27.09" gradientUnits="userSpaceOnUse"><stop stop-color="#853136"/><stop offset="1" stop-color="#F49C1D"/></linearGradient><linearGradient id="b" x1="27.63" y1="30.75" x2="48" y2="30.75" gradientUnits="userSpaceOnUse"><stop offset=".35" stop-color="#853136"/><stop offset="1" stop-color="#FAA21B"/></linearGradient></defs></svg>