<!-- by TradingView --><svg width="56" height="56" viewBox="0 0 56 56" xmlns="http://www.w3.org/2000/svg"><path fill="#F0F3FA" d="M0 0h56v56H0z"/><path d="M42 26h3l-.02.17c0 .06 0 .12.02.18l-.53-.02a59.26 59.26 0 0 0-1-.04l-.71-.02v1.51c.67 0 1.34-.01 2-.06a.66.66 0 0 0 0 .36c-.66-.06-1.33-.05-2-.05v1.71h.58a31.3 31.3 0 0 0 1.19-.03c.18 0 .34-.02.47-.04a.43.43 0 0 0-.02.1v.08L45 30h-3v-4ZM37.64 26.3s-1.1 0-1.64.07a.55.55 0 0 0 .04-.19c0-.04-.01-.1-.04-.18 1.33.03 2.67.03 4 0a.63.63 0 0 0-.04.19c0 .05.01.1.04.18-.55-.06-1.64-.07-1.64-.07V30h-.72v-3.7ZM25.3 29.2c.33.42.97.58 1.54.58.58 0 1.16-.19 1.16-.78 0-.34-.1-.56-.56-.7-.77-.22-2.44-.32-2.44-1.24 0-.86 1.5-1.06 2.28-1.06.63 0 1.06.08 1.45.26-.06.07-.11.13-.15.2l-.12.27h-.11c-.23-.36-.7-.52-1.16-.52-.5 0-1.19.17-1.19.7 0 .58.94.74 1.46.85.6.12 1.54.35 1.54 1 0 .98-1.49 1.24-2.39 1.24-.56 0-1.11-.07-1.61-.3.06-.09.1-.17.12-.23l.07-.27h.11ZM31.3 29.2c.33.42.97.58 1.54.58.58 0 1.16-.19 1.16-.78 0-.34-.1-.56-.56-.7-.77-.22-2.44-.32-2.44-1.24 0-.86 1.5-1.06 2.28-1.06.63 0 1.06.08 1.45.26-.06.07-.11.13-.15.2l-.12.27h-.11c-.23-.36-.7-.52-1.16-.52-.5 0-1.19.17-1.19.7 0 .58.94.74 1.46.85.6.12 1.54.35 1.54 1 0 .98-1.49 1.24-2.39 1.24-.56 0-1.11-.07-1.61-.3.06-.09.1-.17.12-.23l.07-.27h.11ZM17 28c0-1.53 1.74-2 3-2 1.24 0 3 .47 3 2 0 1.56-1.75 2-3 2-1.26 0-3-.44-3-2Zm5 0c0-1.24-.88-1.8-2-1.8-1.13 0-2 .56-2 1.8 0 1.26.87 1.8 2 1.8 1.12 0 2-.54 2-1.8ZM11 26h1.8c.61 0 1.65.1 1.65.92 0 .77-1 1.05-1.62 1.11L15 30h-.93s-1.31-1.35-2.06-1.92h-.27V30H11v-4Zm.74 1.84.21.02a6.8 6.8 0 0 0 .8-.03c.46-.07 1-.32 1-.85 0-.44-.4-.68-.8-.73a7.4 7.4 0 0 0-1.2 0v1.59ZM8.84 29.7c-.48.28-1.22.3-1.76.3C5.84 30 4 29.58 4 28s1.91-2 3.17-2c.75 0 1.36.12 1.83.26a.6.6 0 0 0-.11.21l-.07.23h-.05a2.66 2.66 0 0 0-1.6-.5C6.03 26.2 5 26.7 5 28c0 1.31 1.03 1.8 2.17 1.8.6 0 1.18-.18 1.71-.46l.04.03-.08.33ZM51.84 29.7c-.48.28-1.22.3-1.76.3-1.24 0-3.08-.42-3.08-2s1.91-2 3.17-2c.75 0 1.36.12 1.83.26a.6.6 0 0 0-.11.21l-.07.23h-.05a2.66 2.66 0 0 0-1.6-.5c-1.14 0-2.17.5-2.17 1.8 0 1.31 1.03 1.8 2.17 1.8.6 0 1.18-.18 1.71-.46l.04.03-.08.33Z" fill="#00A1CA"/></svg>