<!-- by TradingView --><svg width="56" height="56" viewBox="0 0 56 56" xmlns="http://www.w3.org/2000/svg"><path fill="#0094DA" d="M0 0h56v56H0z"/><path d="M9.89 22h9.14l-6.45 8.75L9.88 22Z" fill="#E3FEFD"/><path d="M4 22h4.9l2.34 7.15 1.43-1.73 1.12 3.47L20.42 22H24l-9.87 13-.68-1.81L12.08 35l-1.22-3.56L8.18 35 4 22Z" fill="#E3FEFD"/><path d="M4.76 22.56H8.5l2.53 7.72 1.42-1.73 1.14 3.53 7.1-9.52h2.08L14.31 33.8l-.72-1.72-1.29 1.72-1.27-3.52-2.6 3.52-3.67-11.24Z" fill="#0067AB"/><path d="M17.92 22.56h-7.34l2.16 6.94 5.18-6.94Z" fill="#00B5EF"/><path d="m49.49 25-.82 2.42a3.2 3.2 0 0 1 1.04-.17c.87 0 1.7.37 2.08 1.23.34.8.24 1.78-.11 2.84a6.18 6.18 0 0 1-1.66 2.63A3.74 3.74 0 0 1 47.48 35c-.5 0-.95-.1-1.32-.38l-.14.38H42.5l3.4-10h3.59Zm-1.7 6.68c.14-.13.3-.37.43-.76a1.93 1.93 0 0 0 .1-.55.58.58 0 0 0-.14-.01.7.7 0 0 0-.5.19c-.15.13-.3.37-.43.75a2.01 2.01 0 0 0-.1.56l.12.01c.21 0 .37-.06.51-.19Z" fill="#E3FEFD"/><path d="m48.7 25.58-1.09 3.21a2.82 2.82 0 0 1 2.1-.96c.79 0 1.31.3 1.57.89.25.6.2 1.4-.13 2.4a5.6 5.6 0 0 1-1.5 2.4c-.66.6-1.39.9-2.17.9-.85 0-1.34-.36-1.48-1.09l-.31.94h-2.34l2.94-8.69h2.41Zm-1.43 6.87c.68 0 1.17-.44 1.48-1.34.3-.89.1-1.33-.57-1.33-.67 0-1.16.44-1.46 1.33-.3.9-.12 1.34.55 1.34Z"/><path d="M41.6 27h3.68l-2.73 8h-3.62l.02-.23c-.38.15-.8.23-1.23.23-.8 0-1.52-.26-1.86-1-.31-.68-.2-1.56.1-2.48L37.44 27h3.67l-1.47 4.48-.01.07a.56.56 0 0 0 .25-.1c.09-.08.17-.2.23-.38l1.5-4.07Z" fill="#E3FEFD"/><path d="m40.64 31.27 1.2-3.67h2.49l-2.17 6.64h-2.44l.31-.96H40a2.87 2.87 0 0 1-2.28 1.12c-1.4 0-1.81-.9-1.23-2.68l1.34-4.12h2.5l-1.21 3.68c-.2.59-.05.88.42.88.24 0 .46-.08.66-.22.2-.16.35-.38.44-.67Z"/><path d="M35.18 35h-3.9l1.52-4.34.02-.03c-.1 0-.2.05-.3.11h-.01a.62.62 0 0 0-.24.34L30.9 35H27l3.52-10h3.9l-.88 2.49c.4-.14.82-.21 1.27-.21.83 0 1.6.23 1.98.95.35.67.23 1.53-.08 2.42L35.18 35Z" fill="#E3FEFD"/><path d="M34.81 27.87c1.5 0 1.95.86 1.35 2.58l-1.4 3.95h-2.65l1.24-3.53c.2-.57.05-.85-.46-.85-.25 0-.49.08-.7.23a1.2 1.2 0 0 0-.46.63l-1.24 3.52h-2.66l3.1-8.8h2.65l-1.17 3.32a3.19 3.19 0 0 1 2.4-1.05Z"/><path d="m30 27.14-1.04 3.05h-1.3l-.52 1.55h1.18l-1.07 3.16-.37.03c-.43.05-.81.07-1.14.07-.5 0-.94-.04-1.3-.14-1.27-.33-1.63-1.42-1.18-2.76l.65-1.9H23l1.04-3.06h.9l.24-.7L29.77 24l-1.07 3.14H30Z" fill="#E3FEFD"/><path d="m29.17 27.76-.62 1.81h-1.3l-.74 2.2c-.08.25-.09.41-.02.49.09.07.26.1.54.1h.46l-.66 1.96c-.42.04-.79.06-1.1.06-.93 0-1.55-.16-1.85-.48-.3-.32-.32-.85-.07-1.6l.93-2.73h-.91l.62-1.81h.9l.3-.88 3.08-1.64-.86 2.52h1.3Z"/><path d="M21.7 35H18l3.33-10h3.7L21.7 35Z" fill="#E3FEFD"/><path d="M21.3 34.4h-2.5l2.92-8.8h2.51l-2.93 8.8Z"/></svg>