<!-- by TradingView --><svg width="56" height="56" viewBox="0 0 56 56" xmlns="http://www.w3.org/2000/svg"><path fill="#05203E" d="M0 0h56v56H0z"/><path d="m32.34 12.59-.96 7.29c-.8 5.99-1.38 10.85-1.71 10.8-.34-.03-.09-4.94.5-10.95l.74-7.46c.48.09.96.2 1.43.33v-.01ZM27.48 44c-.13-4.06-.48-9.65-.48-15.92s.35-12 .48-16.08h1.02c.14 4.06.5 9.74.5 16 0 6.28-.36 11.93-.5 16h-1.02ZM23 43.2l1.21-7.37c1-5.97 1.75-10.8 2.08-10.75.34.05-.08 4.95-.87 10.94l-1 7.58c-.49-.1-.96-.24-1.42-.4Zm-3.45-1.6c.41.26.83.49 1.27.7l1.63-5.3c1.78-5.77 3.05-10.51 2.73-10.63-.32-.1-1.9 4.53-3.88 10.23l-1.75 5Zm-3.43-2.87c.31.34.64.67.97.98l1.33-2.39c2.94-5.27 5.27-9.6 4.99-9.77-.29-.18-2.86 4-6.03 9.13l-1.25 2.03v.02Zm-2.35-3.4c4.21-4.19 7.6-7.56 7.84-7.32.23.23-3.05 3.9-7.13 8.35l-.08.09a14.5 14.5 0 0 1-.63-1.1v-.01Zm-1.3-3.45c3.91-2.35 6.8-4.04 6.94-3.8.14.24-2.71 2.25-6.62 4.88-.12-.35-.22-.72-.31-1.08h-.01ZM36 14.13c-.41-.24-.84-.46-1.27-.66l-1.48 5.23c-1.63 5.82-2.79 10.6-2.46 10.7.32.09 1.77-4.58 3.62-10.33l1.6-4.94Zm3.35 2.59a16.1 16.1 0 0 0-1.01-.94l-1.22 2.45c-2.7 5.4-4.86 9.8-4.56 9.98.3.18 2.68-4.11 5.62-9.39l1.17-2.1ZM42 20.24c-4.1 4.3-7.4 7.75-7.63 7.53-.25-.23 2.93-3.98 6.9-8.53l.07-.09c.24.35.46.72.66 1.09Zm1.49 3.69c-3.9 2.33-6.75 4-6.9 3.76-.13-.23 2.7-2.23 6.58-4.84.12.36.22.72.32 1.08Zm.51 3.58c-2.94.46-4.9.7-4.93.5-.04-.21 1.91-.73 4.88-1.41l.05.9Zm-32 .99c3.14-.5 5.24-.77 5.28-.55.04.21-2.07.77-5.22 1.48-.03-.3-.05-.61-.06-.93Z" fill="url(#a)"/><defs><linearGradient id="a" x1="20.69" y1="28" x2="41.11" y2="28" gradientUnits="userSpaceOnUse"><stop stop-color="#0075C2"/><stop offset=".23" stop-color="#1984A3"/><stop offset=".73" stop-color="#59A854"/><stop offset="1" stop-color="#7FBE26"/></linearGradient></defs></svg>