<!-- by TradingView --><svg width="56" height="56" viewBox="0 0 56 56" xmlns="http://www.w3.org/2000/svg"><path fill="#F0F3FA" d="M0 0h56v56H0z"/><path d="M12.62 14H19l.5 2H18l-.4-1H16l.5 2H22l1-2h3l1 2h2l1-2h2.92L34 17h5.5l.5-2h-1.5l-.5 1h-1.5l.5-2h6.38c-.61 1.43-1.85 4.53-1.85 6H14.45c0-1.23-.85-4.53-1.83-6Z" fill="url(#ayvj32zua)"/><path fill-rule="evenodd" d="M15.08 21h25.84a9.8 9.8 0 0 0-.61 3H37v2h3v3h-3v2h3.3c0 .61.13 2.5.62 3H32v1h8.92c.82 1.84 2.59 5.5 3.08 6h-6l-1.5-2.5h1l1 1.5H40l-1-2h-7v3h-8v-3h-7.08L16 40h1.5l1-1.5h1L18 41h-6l.08-.15c1.05-1.88 3-5.37 3-5.85H24v-1h-8.92c.2-.4.61-2.02.61-3H19v-2h-3v-3h3v-2h-3.3c0-.61-.13-2.5-.62-3ZM22 24v2h4v-2h-4Zm8 0v2h4v-2h-4Zm-8 7v-2h4v2h-4Zm8-2v2h4v-2h-4Z" fill="url(#byvj32zua)"/><defs><linearGradient id="ayvj32zua" x1="28" y1="14" x2="28" y2="40.39" gradientUnits="userSpaceOnUse"><stop stop-color="#CFB07A"/><stop offset=".19" stop-color="#CEA47E"/><stop offset=".4" stop-color="#C79A79"/></linearGradient><linearGradient id="byvj32zua" x1="28" y1="14" x2="28" y2="40.39" gradientUnits="userSpaceOnUse"><stop offset=".19" stop-color="#CEA47E"/><stop offset=".4" stop-color="#C79A79"/><stop offset="1" stop-color="#BA8C6B"/></linearGradient></defs></svg>