<!-- by TradingView --><svg width="56" height="56" viewBox="0 0 56 56" xmlns="http://www.w3.org/2000/svg"><path fill="#0068B7" d="M0 0h56v56H0z"/><path d="M32.7 26.59c.27-.29.24-.34-.1-.14-.48.27-.94.47-1.4.62-.06.02-.1 0-.13-.07-.1-.2-.1-.36 0-.5.27-.36.63-.76 1.1-1.19.16-.15.14-.19-.07-.11l-.5.23a.22.22 0 0 1-.14.01.23.23 0 0 1-.13-.07l-.1-.1c-.1-.14-.09-.23.07-.3l1.7-.71c.02 0 .04-.02.05-.04a.13.13 0 0 0 .01-.13.13.13 0 0 0-.04-.05c-.06-.04-.12-.06-.18-.04a.19.19 0 0 1-.15-.02l-.75-.44a.24.24 0 0 1-.11-.23c0-.05.02-.09.05-.12a.21.21 0 0 1 .1-.07c.54-.16 1.03-.1 1.46.19.09.06.15.15.18.25.02.1 0 .22-.05.3l-.11.22c-.04.06-.03.11.03.15l.16.1c.03 0 .05.03.06.05a.17.17 0 0 1 .02.16l-.05.06-1.42 1.32a.1.1 0 0 0-.03.07l.01.02c.02.02.04.02.05.02l1.35-.64c.33-.06.56-.09.69-.08.04 0 .09.03.12.06.04.03.06.07.07.11.02.05.01.1 0 .15a.23.23 0 0 1-.09.1l-2.98 2.15-.03-.01v-.06l.01-.02c.58-.53 1-.93 1.27-1.2ZM51.35 32.23c.09 0 .12-.05.1-.14a13.66 13.66 0 0 1-.2-5.56l.3-2.34c.02-.24 0-.4-.07-.5-.14-.21-.33-.27-.57-.17-.29.12-.64.4-1.05.83-.38.4-.89.62-1.52.67a.18.18 0 0 1-.17-.07c-.04-.05-.05-.11-.04-.17.01-.04.04-.07.1-.1.28-.17.54-.35.77-.53.36-.3.61-.48.75-.56.61-.36.98-.54 1.1-.54.75-.04 1.12.27 1.1.92-.02.54-.12 1.64-.3 3.31-.09.79-.1 1.6-.02 2.42.1 1.06.22 2 .37 2.84.02.12-.06.25-.25.38-.06.05-.11.05-.17 0-.18-.17-.3-.37-.35-.6-.01-.06 0-.09.06-.09h.06ZM14.5 27.44a.05.05 0 0 0 .01.06.05.05 0 0 0 .06 0l1-.79c.06-.05.1-.1.12-.18.13-.49.22-1 .26-1.53l.05-.45a1.2 1.2 0 0 0-.19-.79c-.22-.36-.15-.5.22-.4.33.08.55.28.65.6.05.14.03.4-.05.78-.08.41-.12.76-.1 1.04 0 .07.05.11.12.1.16 0 .29 0 .39.06.04.02.07.04.1.08a.26.26 0 0 1-.05.35c-.18.15-.34.25-.5.3a.2.2 0 0 0-.14.17l-.2 1.15a.1.1 0 0 0 .08.12.1.1 0 0 0 .06 0 .9.9 0 0 1 .5-.06c.04.02.09.04.12.07a.3.3 0 0 1 .1.28c-.01.05-.03.1-.06.13l-.75 1.1-.29.55c-.13.27-.35.47-.64.6-.04.03-.04.05-.02.08l.04.06c.01.02.03.02.05.02.31-.09.73-.26 1.25-.52.45-.24.85-.18 1.17.17.12.13.14.32.04.57-.03.07-.08.1-.15.1a16.7 16.7 0 0 0-.63-.02c-.17 0-.36.05-.59.15-.59.27-1.18.48-1.78.64-.18.05-.37.06-.58.05a.17.17 0 0 1-.09-.04.18.18 0 0 1-.06-.08.76.76 0 0 1 .2-.85c.23-.2.55-.54.96-1a.42.42 0 0 0 .1-.22l.04-.25c.03-.22-.03-.26-.2-.13-.27.2-.5.3-.67.27-.48-.07-.52-.23-.12-.5l.87-.57c.16-.1.26-.26.29-.45l.09-.55c.02-.14-.03-.16-.14-.07l-1.8 1.43c-.07.05-.15.06-.22 0a.91.91 0 0 1-.39-.5.26.26 0 0 1 .02-.2c.4-.79.86-1.54 1.38-2.25a.75.75 0 0 0 .1-.19c.05-.12.07-.2.06-.2-.1-.38 0-.43.29-.16.2.2.22.47.06.82-.16.34-.31.69-.45 1.05ZM8.02 25.17c-.15.1-.42.16-.82.16a.1.1 0 0 1-.05-.02.1.1 0 0 1-.02-.15A6.2 6.2 0 0 1 9 23.7c.15-.08.32-.12.5-.13.07 0 .13.02.18.05.06.03.1.08.12.14a.35.35 0 0 1-.04.36c-.38.47-.8 1.02-1.23 1.67-.14.2-.23.37-.27.5-.08.24-.03.27.14.1.29-.29.6-.53.91-.72.05-.03.11-.02.2.04a.25.25 0 0 1 .1.17.27.27 0 0 1-.05.2c-.48.58-1.06.99-1.74 1.21-.06.02-.08.06-.05.12l.08.22.02.04a.1.1 0 0 0 .13 0c.23-.14.45-.23.67-.26a.1.1 0 0 1 .09.03.11.11 0 0 1 .02.1c-.06.32-.25.58-.54.78a.19.19 0 0 0-.08.13.2.2 0 0 0 .03.15l1.65 2.24c.01.02.02.03.04.03a.08.08 0 0 0 .08-.02.09.09 0 0 0 .02-.04l.26-1.6c.01-.04.03-.08.07-.1l.07-.06a.1.1 0 0 0 .04-.1.96.96 0 0 1 .08-.52c.05-.1.08-.1.09.01.02.28.1.51.2.7.04.06.06.13.07.2l.08 1.43c.01.24 0 .47-.04.7l-.1.62c-.02.07-.07.11-.14.12-.39.04-.68-.05-.85-.28a23.7 23.7 0 0 1-1.99-3.1.14.14 0 0 0-.1-.02.14.14 0 0 0-.06.02c-.33.22-.37.59-.51.84a6.23 6.23 0 0 1-1.94 2.15c-.24.17-.39.32-.6.55a.3.3 0 0 1-.22.1.3.3 0 0 1-.23-.11c-.17-.21-.2-.4-.1-.6a43.27 43.27 0 0 0 1.7-3.83c.15-.37.18-.76.2-1.19 0-.1.04-.1.11-.05.22.2.32.4.3.61-.1.86-.37 1.85-.8 2.98a.85.85 0 0 0-.04.24c0 .1.03.12.1.05.56-.58 1.05-1.04 1.47-1.38.12-.1.1-.28-.05-.53a.03.03 0 0 1 0-.04l.01-.01c.18-.1.33-.2.45-.34a.16.16 0 0 0 .03-.18c-.15-.35-.2-.71-.17-1.08 0-.07.04-.12.1-.15l.07-.03a.2.2 0 0 0 .13-.15c.11-.53.29-.96.52-1.31.26-.4.2-.46-.17-.2Z" fill="#fff"/><path d="M49 28.23c-.03-.1-.07-.11-.14-.04l-1.33 1.38c-.12.13-.25.14-.39.03l-.05-.04a.2.2 0 0 1-.06-.24.2.2 0 0 1 .04-.07l1.78-1.7a.54.54 0 0 0 .15-.3l.03-.16c.03-.17-.03-.21-.17-.12a6.1 6.1 0 0 0-.5.35c-.28.23-.65.26-.91.08-.13-.08-.18-.22-.15-.41 0-.09.05-.13.13-.14.42-.04.91-.23 1.49-.58a.22.22 0 0 0 .1-.12l.3-.89a.08.08 0 0 1 .06-.05h.03c.02 0 .03.02.04.03.08.1.14.2.18.34.02.06.07.1.14.1l.16.03c.08.02.13.03.16.05.1.07.1.18.03.33a.38.38 0 0 1-.12.15c-.2.14-.33.29-.4.45-.09.25-.04.29.15.1a.56.56 0 0 1 .17-.08c.07-.03.13-.01.17.07.03.06.04.11.03.16-.02.12-.05.2-.09.21-.36.21-.54.47-.53.76a72 72 0 0 1 .06 2.01c0 .07.04.1.1.07l.54-.17c.21-.07.36.02.44.25v.01c.07.21 0 .35-.22.4-.41.11-.82.3-1.22.54-.62.38-1.18.53-1.76.52-.51-.02-.55-.15-.12-.4.6-.36 1.13-.62 1.57-.78.06-.02.08-.07.07-.13a6.45 6.45 0 0 1 .03-1.78.7.7 0 0 0 0-.22ZM46.29 29.58c.01.27.17.45.25.67.02.07 0 .13-.05.18-.56.52-1.05-.06-1.07-.68-.02-.75.1-1.77.35-3.04.08-.43.26-.74.52-.93a.26.26 0 0 1 .38.09c.16.29.14.51-.01.82a5.75 5.75 0 0 0-.37 2.89Z" fill="#fff"/><path fill-rule="evenodd" d="M32.35 29.38c.16-.3.25-.3.27.05.01.23.15.4.4.54a.13.13 0 0 1 .07.1v.07l-.05.06a.45.45 0 0 0-.14.16c-.04.09-.02.11.07.08a.78.78 0 0 1 .52-.01c.08.02.11.07.1.15l-.09 1.17c0 .03-.01.06-.03.08a.11.11 0 0 1-.08.03.83.83 0 0 1-.54-.24h-.02l-.04.04-.01.02a.06.06 0 0 0 0 .05l.02.02c.33.22.52.49.58.82a.35.35 0 0 0 .24.28.34.34 0 0 0 .35-.1l.37-.38a.2.2 0 0 0 .05-.17c-.26-1.5-.34-2.95-.24-4.37.02-.3 0-.54-.04-.73a.44.44 0 0 0-.25-.29.4.4 0 0 0-.37.04c-.6.38-.94.61-1.03.7-.64.62-.92 1.88-1.06 2.77-.04.25-.18.47-.3.67l-.1.16a.29.29 0 0 0-.02.2c.06.3.23.52.5.67.06.03.11.02.16-.03.23-.25.35-.54.35-.86l.02-.66c.1-.5.22-.85.34-1.09Zm.36-.71.15-.01c.1 0 .14.04.12.14-.12.47.06.82.54 1.05.07.03.1.01.08-.06-.05-.53-.03-1.2.06-2 .06-.43-.08-.51-.41-.23-.25.2-.46.52-.64.97-.04.1 0 .14.1.14ZM42.05 27.07a.11.11 0 0 1-.05-.03c-.03-.02-.04-.05-.01-.08l.44-.64a.14.14 0 0 0 .02-.13.1.1 0 0 0-.04-.05.1.1 0 0 0-.05-.01h-.27c-.35-.01-.38-.13-.11-.35a4 4 0 0 0 .77-.87.16.16 0 0 0 .03-.09.17.17 0 0 0-.03-.1.2.2 0 0 0-.18-.1l-.51.04c-.11 0-.14-.04-.09-.14.14-.26.38-.42.62-.59.27-.18.54-.37.68-.68.04-.08.02-.12-.06-.15-.41-.15-.69-.08-.81.21-.12.27-.21.26-.28-.01l-.04-.18c-.02-.08-.06-.11-.14-.12-.11 0-.22.02-.33.07a.13.13 0 0 0-.06.05.14.14 0 0 0-.02.08l.03.55c0 .05-.02.1-.05.13l-.83.79c-.11.1-.16.08-.14-.08.03-.3.16-.64.37-1 .1-.2.05-.3-.16-.33l-.18-.01c-.22-.02-.37.08-.43.3-.06.19-.24.41-.56.68-.06.05-.1.04-.13-.03l-.17-.44a.12.12 0 0 0-.09-.07h-.06a.12.12 0 0 0-.05.03c-.31.33-.53.7-.63 1.11-.07.24-.01.5.17.75.03.06.08.1.13.12a.34.34 0 0 0 .35-.02c.05-.04.1-.08.12-.14.17-.33.38-.63.64-.9.11-.12.15-.1.1.05-.32 1.22-.45 2.4-.37 3.58 0 .04.02.08.05.12l.19.21c.06.07.05.13-.02.17a35.42 35.42 0 0 0-3.62 2.59c-.22.18-.24.37-.06.57.04.05.1.06.16.04l.41-.12c.53-.15.85-.24 1.32-.56a25 25 0 0 1 2.82-1.59c.01 0 .03 0 .04.02l.03.03a.1.1 0 0 1 0 .05l-.03.47c0 .07 0 .14.02.2.13.47.13.93-.01 1.4l-.05.07a.18.18 0 0 1-.15.06.18.18 0 0 1-.08-.04c-.1-.07-.26-.13-.48-.18-.1-.02-.12.01-.09.1.15.41.4.72.76.93a.43.43 0 0 0 .5-.05.46.46 0 0 0 .1-.14c.11-.2.17-.42.18-.65.02-.36-.03-.96-.15-1.79-.06-.47.09-.8.46-.98l.29-.15c.38-.2.63-.31 1.04-.35.23-.01.44-.1.64-.27a.32.32 0 0 0 .03-.45.3.3 0 0 0-.14-.08c-.32-.1-.58-.07-.78.08l-.37.26-.88.44c-.08.04-.13.02-.13-.08l-.02-.3a.07.07 0 0 1 .03-.06l1.46-1.05a.2.2 0 0 0 .07-.09.2.2 0 0 0-.04-.21.19.19 0 0 0-.1-.05c-.28-.05-.58.03-.9.22a.06.06 0 0 1-.04.01Zm-1.06-2c-.16.16-.25.33-.2.38.04.05.21-.05.37-.21.16-.17.25-.35.2-.4-.05-.04-.22.05-.37.22Zm.87.07a.1.1 0 0 1 .08-.08.1.1 0 0 1 .06 0l.05.05a.1.1 0 0 1 0 .06c-.01.06-.05.1-.1.13-.08.04-.12.01-.1-.08l.01-.08Zm-.93 2.71-.31.22c-.08.06-.15.05-.2-.03a.3.3 0 0 1-.05-.21c.01-.1.06-.18.13-.23.17-.11.38-.26.61-.45a.2.2 0 0 0 .07-.1.21.21 0 0 0 0-.1l-.02-.1c-.02-.07-.06-.09-.12-.04l-.45.32c-.07.05-.13.04-.18-.03a.29.29 0 0 1-.04-.18c0-.1.04-.17.1-.22l.65-.55a.37.37 0 0 0 .13-.23l.01-.09c.02-.1-.01-.12-.09-.07l-.77.48a.26.26 0 0 0-.11.14c-.07.22-.1.36-.1.42a15.97 15.97 0 0 1-.01 1.65c0 .02.02.03.03.04a.09.09 0 0 0 .1 0l.73-.53c.02-.01.02-.03 0-.04l-.06-.06c-.01-.02-.03-.02-.05 0Zm-2.73 2.61 2.63-1.93c.13-.1.18-.06.17.1v.13c-.02.13-.08.23-.2.3l-2.5 1.5h-.04l-.06-.08v-.02Z" fill="#fff"/><path d="M42.63 30.66c.03-.26-.05-.4-.17-.63-.04-.07-.02-.11.07-.12.72-.04 1.12.27 1.2.93a.4.4 0 0 1-.1.3.38.38 0 0 1-.26.13.99.99 0 0 1-.7-.2.2.2 0 0 1-.07-.17c0-.03 0-.11.03-.24ZM22.68 27.2l.03.05c.03.04.02.07-.02.09l-2.7 1.12a.1.1 0 0 1-.07 0 .1.1 0 0 1-.06-.04c-.02-.05-.02-.09 0-.12a.06.06 0 0 0 0-.08.06.06 0 0 0-.06-.02l-.14.06a.2.2 0 0 0-.12.14l-.08.32a.3.3 0 0 0 .01.19c.03.06.07.11.13.15.06.04.14.07.22.08.07 0 .15-.01.23-.04l1.45-.57c.3-.11.34-.05.11.18-.32.33-.72.88-1.2 1.65a.37.37 0 0 0 .01.43l.18.28.05.04a.13.13 0 0 0 .17-.05l.06-.11c.24-.44.44-.82.85-1a4.19 4.19 0 0 0 1.2-.79.04.04 0 0 1 .05.03v.02c-.02.24 0 .48.06.73 0 .04 0 .08-.03.11l-.09.1c-.31.33-.83.88-1.01 1.45-.02.06-.01.12.04.17.23.26.44.3.64.15a.16.16 0 0 1 .2 0l.5.3c.05.02.1.02.13-.01.75-.64.87-1.28.36-1.95a.2.2 0 0 1-.02-.2c.24-.55.67-1.13 1.27-1.72.06-.06.1-.05.15.01.25.4.58.46.92.53.26.06.54.12.8.33l.05.08.02.1c-.01.23-.1.41-.28.55a.22.22 0 0 1-.18.05 7.27 7.27 0 0 0-2.02-.05c-.38.06-.38.14-.02.25.43.12.79.2 1.08.23.55.07.57.21.05.42a1.97 1.97 0 0 0-.3.5.09.09 0 0 0 .05.07h.04c.39-.02.79-.19 1.2-.51a.21.21 0 0 1 .18-.05c.3.06.6.2.93.4.07.04.07.08 0 .12-.13.1-.21.15-.23.18a.17.17 0 0 0-.02.1c0 .05.02.08.04.12l.1.07c.05.01.1.02.14.01l.89-.11a.39.39 0 0 0 .27-.16.42.42 0 0 0 .07-.31c-.06-.41-.28-.65-.66-.71a5.19 5.19 0 0 1-.95-.36c-.06-.03-.08-.08-.06-.15.21-.62-.02-1.08-.69-1.36a3.5 3.5 0 0 0-.93-.2.2.2 0 0 1-.16-.11.6.6 0 0 1 .05-.7c.2-.28.75-.88 1.64-1.8.22-.23.41-.53.58-.88a.38.38 0 0 0-.04-.37l-.37-.57a.33.33 0 0 0-.56 0c-.73 1.1-1.3 2.2-1.7 3.27-.12.33-.45.7-.98 1.1-.06.04-.11.04-.17 0a.65.65 0 0 0-.4-.18c-.1 0-.23.08-.4.25-.44.46-.89.81-1.34 1.07-.1.05-.12.03-.05-.06.37-.55.8-1.06 1.3-1.55.21-.21.53-.31.85-.41l.35-.12a.16.16 0 0 0 .1-.1v-.07a.11.11 0 0 0-.03-.06l-.13-.12c-.07-.06-.06-.11 0-.16.1-.07.17-.16.21-.26.03-.08.01-.13-.05-.17-.17-.1-.41.06-.74.46-.15.18-.23.15-.22-.1l.02-.6c0-.08.03-.14.1-.16l.85-.36c.02 0 .04-.02.05-.04a.14.14 0 0 0 .02-.14.14.14 0 0 0-.04-.06.87.87 0 0 0-.83-.13.08.08 0 0 1-.08-.02.1.1 0 0 1-.03-.07c0-.16.02-.33.04-.5.08-.73.16-1.5-.89-1.57-.03 0-.07 0-.1.03l-.08.06a.13.13 0 0 0-.05.06.14.14 0 0 0 .04.14c.02.02.04.03.07.03l.3.03c.1 0 .15.06.14.16l-.15 1.9c0 .07-.04.12-.11.14a.77.77 0 0 1-.47 0c-.13-.04-.2.01-.21.15l-.02.28a.15.15 0 0 0 .04.1.14.14 0 0 0 .1.05l.46-.02c.07 0 .1.03.12.1.03.23.01.44-.04.63-.02.06-.01.11.02.16Zm3.42-1.04c.45-.88.77-1.44.97-1.68.09-.11.17-.1.24.05a.7.7 0 0 1 .03.3c0 .1-.04.19-.1.26l-1.05 1.25c-.08.1-.12.07-.14-.06l.05-.12Zm-3.4 5.33c.12-.02.23-.1.32-.24a16.27 16.27 0 0 1 .5-.77.08.08 0 0 1 .1.03l.02.04c.1.62-.15.97-.75 1.06-.13.02-.2.01-.23-.02-.04-.05-.03-.09.03-.1ZM38.97 31.7c-.05.17-.02.19.1.07.46-.45.79-.74 1-.89.71-.53.78-.44.2.25-.36.42-.83.9-1.43 1.42-.13.1-.19.21-.28.36a.17.17 0 0 1-.15.09c-.26 0-.42-.09-.49-.29-.05-.15-.04-.27.04-.38.4-.51.64-.93 1.14-1.24.07-.05.1-.03.07.05l-.2.56Z" fill="#fff"/></svg>