<!-- by TradingView --><svg width="56" height="56" viewBox="0 0 56 56" xmlns="http://www.w3.org/2000/svg"><path fill="#F0F3FA" d="M0 0h56v56H0z"/><path fill-rule="evenodd" d="M4 28.69v.47C4 30.73 5.12 32 6.5 32c1.14 0 2.1-.87 2.4-2.05A3.6 3.6 0 0 0 12.08 32c1.78 0 3.08-1.08 3.36-3.14H13.6c-.23.9-.83 1.54-1.52 1.54-.9 0-1.63-1.08-1.63-2.4 0-1.32.73-2.4 1.63-2.4.62 0 1.16.51 1.44 1.26h1.87C15.04 25 13.77 24 12.08 24c-1.3 0-2.44.75-3.08 1.87V24H7.18v5.48c0 .4-.29.72-.64.72-.35 0-.63-.33-.63-.72v-.8H4ZM17 24v8h.3v-4.4h3.76v-.3H17.3v-3h3.98V24H17Zm4.33 8h-.48l3-8h.39l3 8h-.49l-.96-2.7h-3.5l-.96 2.7Zm4.35-3-1.64-4.6L22.4 29h3.28Zm1.32.36c-.03.88.43 2.64 2.46 2.64C32 32 32 30.22 32 29.69s-.34-1.51-2.23-1.98-2.24-1.07-2.24-1.81c0-.75.59-1.52 2.12-1.52 1.54 0 1.87 1.04 1.87 1.73h.35c.02-.7-.39-2.11-2.22-2.11-2.28 0-2.42 1.46-2.42 2.02 0 .55.15 1.32 1.92 1.95l.21.07c1.62.57 2.27.8 2.27 1.88 0 1.13-1.04 1.66-2.17 1.66-1.12 0-2.11-.64-2.11-2.22H27ZM39 24h.3v8H39v-8Zm8.3 0H47v8h.3v-7.3l4.4 7.25V32H52v-8h-.3v7.33l-4.4-7.28V24ZM33 24h.28v3.7h4.44V24H38v8h-.28v-4h-4.44v4H33v-8Zm13 4c0 2.2-.75 4-3 4s-3-1.8-3-4 .83-4 3-4 3 1.8 3 4Zm-.37 0c0 2-.65 3.61-2.63 3.61S40.37 30 40.37 28c0-2 .73-3.61 2.63-3.61S45.63 26 45.63 28Z"/></svg>