<!-- by TradingView --><svg width="56" height="56" viewBox="0 0 56 56" xmlns="http://www.w3.org/2000/svg"><path fill="#F0F3FA" d="M0 0h56v56H0z"/><path d="M11 28a17 17 0 1 0 34 0 17 17 0 0 0-34 0Zm17-15.6a15.6 15.6 0 1 1 0 31.2 15.6 15.6 0 0 1 0-31.2Zm5.39 2.77c.93.48.68 1.25.05 1.61C32.7 17.22 30 19 30 22.1v19.76a13.75 13.75 0 0 1-4 0V21.61c0-3.1-2.44-4.39-3.33-4.81-.84-.41-.9-1.18-.12-1.62C24 14.37 26.04 14 28.05 14c1.83 0 4.02.5 5.34 1.17Zm.61 2.78c-2.61.57-3 2.93-3 3.63V41.8c1.05-.25 2.05-.58 3-1.02V17.95Zm4.8 12.53c.38 1.05.78.3.78.3.68-1.86 2.4-1.73 2.4-1.73H42c-.31 4.6-2.63 8.6-6 10.94V16a14.48 14.48 0 0 1 6 11h-.02s-1.72.12-2.4-1.73c0 0-.4-.72-.77.3a9.14 9.14 0 0 0 0 4.91Zm-21.15.3s-.32.78-.78-.3a8.45 8.45 0 0 1 0-4.9c.4-1.05.8-.29.8-.29C18.34 27.14 20 27 20 27V16.05c-3.61 2.54-6 6.94-6 11.95 0 5.01 2.39 9.42 6 11.95v-10.9s-1.68-.13-2.35 1.73ZM22 40.73V17.95c2.58.52 3 2.9 3 3.63V41.8a15.28 15.28 0 0 1-3-1.07Z" fill="#D71820"/></svg>