<!-- by TradingView --><svg width="56" height="56" xmlns="http://www.w3.org/2000/svg"><path fill="#00734A" d="M0 0h56v56H0z"/><path d="M29.676 13H44l-.5 3H29.072l.604-3zM21 18h9.385l-.557 3h-9.391L21 18zM32.045 18H43l-.5 3h-11l.545-3zM20.07 23h12.722l-.554 3H19.523l.547-3zM11.525 27h17.19l-.537 3H10.98l.545-3zM10.633 32H27.8l-.563 3H10.072l.56-3zM30.383 27h11.102l-.5 3H29.814l.569-3zM32.733 32h7.777l-.5 3h-7.833l.556-3zM17.477 37h12.727l-.556 3H16.922l.554-3zM16.556 42h16.01l-.552 3H15.995l.561-3z" fill="#fff"/><path d="M20.999 17.993h1.687L17.688 45H16L21 17.993zM13.218 27l-1.48 8H10.05l1.48-8h1.688zM29.828 21h-1.683l1.473-8h1.688l-1.478 8zM27.05 27.005h1.689l-1.506 8.002h-1.688l1.506-8.002zM33.497 19.227l-3.752 20.27h-1.687l3.751-20.27h1.688zM34.42 32.01L32.013 45h-1.687l2.404-12.99h1.688z" fill="#fff"/></svg>