<!-- by TradingView --><svg width="56" height="56" viewBox="0 0 56 56" xmlns="http://www.w3.org/2000/svg"><path fill="#F0F3FA" d="M0 0h56v56H0z"/><path d="M27.98 12c.34.06.6.2.8.42.16.21.24.45.24.72a1 1 0 0 1-.28.68c-.2.2-.45.32-.76.33-.3.01-.58-.15-.83-.48-.54-.72-.28-1.28.79-1.67a.2.2 0 0 1 .04 0ZM33.6 15.51a1.32 1.32 0 1 0 0-2.64 1.32 1.32 0 0 0 0 2.64ZM22.31 14.99c.44 0 .79-.36.79-.8a.79.79 0 1 0-.79.8Z" fill="#022C60"/><path d="M17.5 20.16a2.68 2.68 0 1 0-2.67-2.68c0 1.48 1.2 2.68 2.68 2.68Z" fill="#01A5C7"/><path d="M38.5 19.04a1.6 1.6 0 0 0 1.59-1.6 1.6 1.6 0 1 0-1.6 1.6Z" fill="#022C60"/><path d="M28 19.7a1.82 1.82 0 1 0-1.81-1.82c0 1 .82 1.82 1.82 1.82ZM24.1 20.31a1.63 1.63 0 1 0 0 0Z" fill="#01A5C7"/><path d="M31.9 19.15a.53.53 0 1 0 0-1.06.53.53 0 0 0 0 1.06Z" fill="#022C60"/><path d="M20.84 22.31a1.44 1.44 0 1 0 0-2.88 1.44 1.44 0 0 0 0 2.88ZM14.24 24.8c1.33 0 2.4-1.09 2.4-2.42a2.41 2.41 0 1 0-2.4 2.42Z" fill="#01A5C7"/><path d="M35.16 21.54c.4 0 .73-.33.73-.73a.72.72 0 1 0-.73.73Z" fill="#022C60"/><path d="M28 22.33c.51 0 .94-.42.94-.95a.95.95 0 1 0-1.9 0c0 .53.43.95.95.95Z" fill="#01A5C7"/><path d="M41.74 24.19c1.02 0 1.85-.83 1.85-1.86a1.85 1.85 0 1 0-1.85 1.86Z" fill="#022C60"/><path d="M30.51 22.95c.59 0 1.07-.48 1.07-1.08a1.07 1.07 0 1 0-1.07 1.08ZM25.47 22.71a.83.83 0 1 0-.83-.83c0 .46.38.83.83.83ZM32.69 24.51a1.19 1.19 0 1 0-1.19-1.2c0 .67.54 1.2 1.19 1.2ZM23.3 24.02a.7.7 0 0 0 .71-.7.7.7 0 1 0-.7.7ZM18.65 25.4a1.27 1.27 0 1 0-1.27-1.27c0 .7.57 1.27 1.27 1.27Z" fill="#01A5C7"/><path d="M37.33 24.97c.5 0 .9-.41.9-.91a.9.9 0 1 0-.9.9Z" fill="#022C60"/><path d="M21.85 26.09c.33 0 .59-.27.59-.6a.59.59 0 1 0-.59.6Z" fill="#01A5C7"/><path d="M34.14 25.8a.33.33 0 1 0 0-.67.33.33 0 0 0 0 .67ZM42.86 30.13c1.18 0 2.14-.96 2.14-2.15a2.14 2.14 0 1 0-2.14 2.15Z" fill="#022C60"/><path d="M13.14 30.18c1.19 0 2.14-.96 2.14-2.15a2.15 2.15 0 1 0-2.14 2.15Z" fill="#01A5C7"/><path d="M38.13 29.07c.6 0 1.08-.5 1.08-1.1a1.09 1.09 0 1 0-1.08 1.1Z" fill="#022C60"/><path d="M17.87 29.14c.6 0 1.09-.49 1.09-1.1a1.1 1.1 0 1 0-1.1 1.1ZM21.34 28.47a.44.44 0 1 0 0-.88.44.44 0 0 0 0 .88Z" fill="#01A5C7"/><path d="M34.64 28.43a.44.44 0 1 0 0-.9.44.44 0 0 0 0 .9ZM34.15 31.1a.6.6 0 0 0 .6-.6.6.6 0 1 0-.6.6Z" fill="#022C60"/><path d="M21.87 30.87a.32.32 0 1 0 0-.64.32.32 0 0 0 0 .64Z" fill="#01A5C7"/><path d="M37.34 33.16c.7 0 1.26-.57 1.26-1.27a1.26 1.26 0 1 0-1.26 1.27Z" fill="#022C60"/><path d="M18.66 32.86c.5 0 .9-.41.9-.91a.9.9 0 1 0-.9.9Z" fill="#01A5C7"/><path d="M41.74 36.05a2.4 2.4 0 0 0 2.4-2.4 2.4 2.4 0 1 0-2.4 2.4ZM23.3 33.88c.66 0 1.19-.54 1.19-1.2a1.19 1.19 0 1 0-1.19 1.2Z" fill="#022C60"/><path d="M14.25 35.56c1.03 0 1.86-.84 1.86-1.88a1.87 1.87 0 1 0-1.86 1.88Z" fill="#01A5C7"/><path d="M32.69 33.39a.7.7 0 0 0 .7-.7.7.7 0 1 0-.7.7ZM25.49 35.2a1.06 1.06 0 1 0 0-2.14 1.06 1.06 0 0 0 0 2.14ZM30.52 34.95a.83.83 0 0 0 0-1.65.83.83 0 0 0-.83.83c0 .45.37.82.83.82ZM28 35.57c.53 0 .95-.42.95-.95a.95.95 0 1 0-.95.95ZM35.16 36.6a1.45 1.45 0 1 0 0 0Z" fill="#022C60"/><path d="M20.84 35.92c.4 0 .72-.32.72-.72a.72.72 0 1 0-1.43 0c0 .4.32.72.71.72Z" fill="#01A5C7"/><path d="M31.9 38.97c.9 0 1.63-.73 1.63-1.64a1.63 1.63 0 1 0-1.62 1.64ZM38.5 41.22c1.47 0 2.66-1.2 2.66-2.68a2.67 2.67 0 1 0-2.66 2.68ZM27.99 39.94c1 0 1.8-.81 1.8-1.81a1.8 1.8 0 1 0-1.8 1.8Z" fill="#022C60"/><path d="M24.1 37.93a.54.54 0 1 0-.01-1.08.54.54 0 0 0 0 1.08ZM17.5 40.17c.89 0 1.6-.71 1.6-1.6a1.6 1.6 0 1 0-1.6 1.6ZM22.39 43.17a1.34 1.34 0 1 0 0 0ZM33.68 42.63a.8.8 0 0 0 .8-.8.8.8 0 1 0-.8.8ZM28.03 44a1.07 1.07 0 1 0-1.07-1.07c0 .59.48 1.07 1.07 1.07Z" fill="#01A5C7"/></svg>