<!-- by TradingView --><svg width="56" height="56" viewBox="0 0 56 56" xmlns="http://www.w3.org/2000/svg"><path fill="#F0F3FA" d="M0 0h56v56H0z"/><path fill="url(#a)" d="M14 14h28v28H14z"/><path fill-rule="evenodd" d="M17.87 24c.53 0 1-.3 1.34-.76l-.51-.56c-.2.37-.5.6-.83.6-.61 0-1.11-.8-1.11-1.78s.5-1.78 1.1-1.78c.38 0 .7.29.9.74l.57-.52c-.35-.57-.87-.94-1.46-.94-1.03 0-1.87 1.12-1.87 2.5s.84 2.5 1.87 2.5Zm15.63-2.5c0 1.38-.9 2.5-2 2.5s-2-1.12-2-2.5.9-2.5 2-2.5 2 1.12 2 2.5Zm-.81 0c0 .94-.53 1.7-1.19 1.7-.66 0-1.19-.76-1.19-1.7s.53-1.7 1.19-1.7c.66 0 1.19.76 1.19 1.7ZM20 24v-5h.7v4.3h1.74v.7H20Zm3.7-5H23v5h.7v-5Zm.6 5v-5h2v.7H25V21h1.18v.7H25V24h-.7Zm2.7-5v5h.7v-2.3H29V21h-1.3v-1.3h1.6V19H27Zm7 0h1.18c.75 0 1.37.68 1.37 1.52 0 .54-.26 1.02-.65 1.29.34.18.5.59.55.8V24h-.68v-1.22c0-.28-.28-.59-.48-.75h-.59V24H34v-5Zm.66.82h.61c.34 0 .62.3.62.68 0 .38-.28.69-.62.69h-.61v-1.37ZM37 19h1.06c1.05 0 1.9.94 1.9 2.1v.8c0 1.16-.85 2.1-1.9 2.1H37v-5Zm.7.7h.19c.75 0 1.36.8 1.36 1.8s-.61 1.8-1.36 1.8h-.18v-3.6ZM27.09 26H26v5h1.08c1.06 0 1.92-.94 1.92-2.1v-.8c0-1.16-.86-2.1-1.92-2.1Zm-.17.7h-.2v3.6h.2c.8 0 1.45-.8 1.45-1.8s-.65-1.8-1.45-1.8Zm-1.41 1.8c0 1.38-.9 2.5-2 2.5s-2-1.12-2-2.5.9-2.5 2-2.5 2 1.12 2 2.5Zm-.71 0c0 1-.59 1.8-1.3 1.8-.72 0-1.3-.8-1.3-1.8s.58-1.8 1.3-1.8c.71 0 1.3.8 1.3 1.8ZM17 26v5h.7v-3.66l1.35 1.6 1.25-1.6V31h.7v-5h-.95l-1 1.87L17.87 26H17Zm13 4.99V26h2.3v.7h-1.6V28h1.6v.7h-1.6v1.6h1.6v.7h-1.8v-.01H30Zm6 .01h.7v-3.2l1.5 3.2h.8v-5h-.7v3.18L36.8 26H36v5Zm-1.82-5H33v5h.7v-1.96h.59c.2.15.48.46.48.74V31h.68v-1.38a1.26 1.26 0 0 0-.55-.81c.39-.27.65-.75.65-1.29 0-.84-.62-1.52-1.37-1.52Zm.1.66h-.62v1.7h.61c.34 0 .62-.39.62-.86 0-.46-.28-.84-.62-.84ZM17 37v-5h.7v4.3h2.1v.7H17Zm4-5v5h.7v-5H21Zm7.3 5v-5h.7v5h-.7Zm6-5v3.45l-2.6-3.44V32H31v5h.7v-3.67l2.6 3.63v-.01.05h.7v-5h-.7Zm-9.7 5L23 32h.92l1.1 3.97L26.15 32H27l-1.63 5h-.77Zm13.65 0c.63 0 1.2-.29 1.6-.75l.15-.02V34.3h-2v.7h1.3v.73h-.01c-.28.35-.67.57-1.1.57-.82 0-1.49-.8-1.49-1.8s.67-1.8 1.5-1.8c.48 0 .9.28 1.18.71l.62-.47a2.17 2.17 0 0 0-1.75-.94C37 32 36 33.12 36 34.5s1 2.5 2.25 2.5Z" fill="#F0F3FA"/><defs><linearGradient id="a" x1="14" y1="28.82" x2="42" y2="28.82" gradientUnits="userSpaceOnUse"><stop stop-color="#6AB844"/><stop offset=".15" stop-color="#009BDE"/><stop offset=".35" stop-color="#99128A"/><stop offset=".45" stop-color="#E4007E"/><stop offset=".69" stop-color="#E70020"/><stop offset="1" stop-color="#F5A300"/></linearGradient></defs></svg>