<!-- by TradingView --><svg width="56" height="56" viewBox="0 0 56 56" xmlns="http://www.w3.org/2000/svg"><path fill="#F0F3FA" d="M0 0h56v56H0z"/><path d="m37.6 25.4-.05.02c-.13.03-.27.04-.38.05a5.83 5.83 0 0 0-.08.01l-.02.02a.06.06 0 0 0 0 .06c.1.16.55.28.75.32.1.02.24 0 .33-.03.14-.05.22-.2.14-.33a.59.59 0 0 0-.08-.1c-.14-.13-.43-.06-.61-.01Z" fill="#D31C21"/><path d="m38.93 25.93.08-.19.03-.09c.04-.13.09-.26.25-.29.14-.03.25.02.31.15.02.04.02.1 0 .2s-.09.2-.15.3l-.06.1a78.05 78.05 0 0 0-.39.77.08.08 0 0 0 .02.07l.03.02c.64.29 1.28.6 1.9.95l.03.01.02.02c.2.1.4.2.39.45 0 .04-.02.1-.06.2-.08.17-.1.32-.14.5-.03.15-.1.4-.27.44a.5.5 0 0 1-.18.02c-.17-.03-.17-.27-.14-.4.02-.15.08-.33.17-.56a.29.29 0 0 0 0-.18.36.36 0 0 0-.1-.15 3.73 3.73 0 0 0-.82-.61 7.05 7.05 0 0 0-.78-.37l-1.6-.61-.06-.02c-.32-.13-.72-.27-1-.22a.58.58 0 0 0-.46.36l-.04.1c-.05.15-.12.32-.27.43-.09.06-.3.07-.34-.06-.09-.21.05-.48.17-.65.07-.1.11-.18.14-.25.02-.07.09-.19.19-.36.09-.14.22-.2.4-.18l.43.16 1.05.44a3.31 3.31 0 0 0 .86.25c.01 0 .02 0 .03-.02.15-.22.25-.46.36-.73Z" fill="#D31C21"/><path d="M40.52 26.52a.55.55 0 0 1-.05-.08c-.04-.15-.14-.23-.3-.23-.05 0-.1.02-.15.06-.12.1-.15.2-.1.33.05.09.1.15.17.19.15.07.3.17.47.29l.16.1c.06.01.13.03.2.03h.02l.01-.03c.03-.1 0-.19-.07-.26a5.2 5.2 0 0 1-.36-.4Z" fill="#D31C21"/><path fill-rule="evenodd" d="M37.86 29.74c-.16.17-.26.31-.3.44-.02.07 0 .13.06.17l.16.08a39.97 39.97 0 0 0 2.71 1.19c.24.17-.1.33-.25.38-.23.08-.35.02-.55-.1-.71-.47-1.47-.87-2.26-1.21-.42-.18-.95-.38-1.57-.6-.56-.21-1.1-.35-1.6-.42-.15-.02-.47-.1-.47-.3 0-.16.3-.3.44-.3a.9.9 0 0 1 .57.12 67.75 67.75 0 0 0 .74.39c.51.2.86.34 1.05.4.14.06.26.08.37.09.11 0 .18-.05.2-.17.04-.11.06-.2.07-.28.02-.14-.1-.18-.22-.21l-.66-.18c-.1-.02-.19-.07-.28-.12-.07-.04-.1-.11-.1-.2-.01-.09.02-.14.1-.18.17-.08.37-.04.54.04l.57.27c.11.06.24.1.33-.02.07-.1.16-.3.07-.39-.1-.1-.26-.11-.42-.13h-.05c-.25-.04-.42-.17-.33-.42.07-.2.14-.43.2-.68.06-.2.23-.54.51-.36l.38.23c.73.34 1.18.53 1.36.58.2.07.49.21.49.45 0 .05-.03.13-.1.23-.1.16-.23.32-.4.48-.12.12-.29.25-.46.16a5.7 5.7 0 0 0-.37-.17c-.15-.06-.24-.03-.28.1-.04.1-.06.18-.06.25v.05l.05.03c.29.1.54.2.75.3.1.05.18.1.27.18.08.07.1.15.06.23l-.03.03c-.06.04-.15.08-.22.08a.68.68 0 0 1-.26-.07 2.1 2.1 0 0 1-.34-.22 2.9 2.9 0 0 0-.43-.23h-.04Zm.84-1.16c-.23-.06-1.46-.4-1.34-.7.03-.08.15-.26.27-.25.25.03.52.11.81.24.21.08.39.2.53.35.04.04.07.08.07.12 0 .13-.04.24-.17.26-.04 0-.1 0-.17-.02Z" fill="#D31C21"/><path d="M15.8 24.81c-.1-.01-.11-.05-.03-.1.27-.16-.2-.8-.53-.46-.1.1-.12.22-.06.36a8.05 8.05 0 0 0 .1.32.06.06 0 0 1-.04.02c-.25.03-.49.11-.64.32a.37.37 0 0 0-.02.4c.34.7.61 1.45.82 2.24.02.1.03.2.02.25 0 .06-.03.14-.05.26-.03.13 0 .21.09.26.06.04.15.04.25.02.16-.05.35-.15.5-.25a5.08 5.08 0 0 1 1.3-.48c.17-.05.47-.08.64 0l.12.1c.34.36.37.77.4 1.27 0 .07 0 .12.02.15.07.1.25.08.32 0a.56.56 0 0 0 .1-.22c.12-.44.14-.91.05-1.4a.64.64 0 0 0-.07-.14c-.05-.1-.21-.15-.3-.17a2.55 2.55 0 0 0-.84-.03c-.61.07-1.18.21-1.76.39a.75.75 0 0 1-.32.03c-.03 0-.04-.02-.05-.04-.03-.18 0-.32.12-.41.05-.04.17-.1.36-.15.37-.1.75-.15 1.14-.12.2.02.37-.05.5-.2.07-.1.08-.2.06-.3a.1.1 0 0 0-.03-.07.1.1 0 0 0-.07-.02c-.16 0-.34.02-.54.06l-1.23.34c-.13.03-.36.09-.47.05a.05.05 0 0 1-.03-.03c-.05-.11-.01-.19.1-.23.27-.08.7-.23 1.27-.43.22-.08.4-.2.31-.44-.09-.25-.2-.64-.08-.87.07-.12-.05-.29-.14-.37a.28.28 0 0 0-.18-.07c-.28-.01-.5.05-.78.12l-.12.03a.5.5 0 0 1-.2.01Zm-.48.89a.29.29 0 0 1-.06.03h-.06l-.02-.03v-.03c.08-.25.35-.34.59-.38l.7-.12c.08 0 .14.02.18.1.04.07.02.1-.05.11-.19.02-.42.07-.71.13-.23.05-.44.1-.57.19Zm.55.33c.27-.12.55-.2.85-.23.09-.01.15.02.18.1v.05l-.04.06a357.04 357.04 0 0 0-1.17.34 1 1 0 0 1-.3.03.05.05 0 0 1-.03-.03v-.02c.05-.16.2-.2.35-.25l.16-.05ZM12.6 26.2c.1.03.22.06.26.12.04.07.04.22-.03.28a.58.58 0 0 1-.3.12 3.28 3.28 0 0 1-1.06-.07c-.34-.13-.17-.5.09-.6.2-.06.41-.08.62-.03.05 0 .1.03.16.06l.14.09.12.03Z" fill="#D31C21"/><path d="M13.45 27.33c-.02 0-.04.02-.06.05l-.03.03a2 2 0 0 1-.6.1c-.08.01-.14 0-.18-.03-.17-.11-.04-.3.06-.42.15-.2.33-.2.58-.2h.12c.06 0 .16-.03.28-.09l.25-.04c.06 0 .12-.02.16-.04l.09-.03a.65.65 0 0 1 .27-.06c.2.01.4.13.3.35-.04.1-.27.16-.4.2h-.02c-.08.03-.1.07-.1.15 0 .18.06.35.16.53l.03.02a.5.5 0 0 0 .23-.02l.2-.06c.13-.01.26.01.37.08l.02.03c.02.14-.02.24-.15.3a28.46 28.46 0 0 1-1.23.48l-.39.2c-.18.1-.5.2-.53-.1a.42.42 0 0 1 .17-.4c.08-.06.17-.1.28-.14l.4-.15c.04-.01.06-.04.04-.09l-.22-.6a.09.09 0 0 0-.1-.05Z" fill="#D31C21"/><path d="M12.58 28.23c-.35.13-.66.16-.94.1a.3.3 0 0 1-.22-.16.24.24 0 0 1 .02-.24c.12-.21.4-.3.64-.3.07 0 .16.02.3.06l.28.08c.05.02.08.05.12.1.14.17-.03.3-.2.36ZM17.56 28.9c-.02-.07-.05-.13-.1-.2l-.05-.1c-.07-.14.02-.26.18-.3.1-.03.21 0 .31.07a.2.2 0 0 1 .09.13c.03.14.06.59-.1.68-.18.1-.3-.14-.33-.27ZM16.44 28.88a4.15 4.15 0 0 0 .18.3c.08.14.23.39.4.27.02-.01.03-.02.03-.04a.51.51 0 0 0 0-.23l-.08-.36c-.04-.13-.16-.28-.32-.24-.16.03-.3.13-.2.3ZM15.56 29.07c-.03.13.01.25.12.34l.08.09.04.07c.04.1.1.23.23.16.09-.04.1-.15.1-.24.01-.13.02-.44-.08-.53a.28.28 0 0 0-.24-.08c-.14.01-.23.08-.25.2ZM13.19 29.29l.19-.18c.06-.06.15-.06.22 0 .1.08.1.18.04.29l-.45.72c-.17.27-.41.45-.76.37a.36.36 0 0 1-.23-.16c-.16-.25-.03-.48.23-.6l.15-.06.14-.07c.2-.1.35-.21.47-.31ZM15.26 29.95c.05-.1 0-.28-.05-.37l-.06-.2a.3.3 0 0 0-.23-.22c-.18-.04-.38.05-.4.24-.02.2.14.32.32.41.05.02.09.06.13.09.06.06.13.11.23.1.03 0 .05-.02.06-.05ZM29.5 24.57c-.82.04-1.59.08-2.3.1-.06 0-.13 0-.22-.02-.32-.06-.76-.02-.9.29-.07.16.05.26.2.28h.2a7.99 7.99 0 0 1 1.77-.14l1.25.01c.3.01.53 0 .73-.16.09-.07.21-.22.14-.33-.06-.09-.13-.12-.23-.1l-.32.04-.32.03ZM24.88 24.74h.6c.1 0 .15 0 .19.02.07.04.11.1.1.16 0 .24-.23.26-.44.24-.34-.02-.7 0-1.07.04-.07.01-.18 0-.32-.04-.15-.04-.23-.14-.13-.27.14-.2.37-.29.67-.24.05 0 .11.03.2.06a.6.6 0 0 0 .2.03ZM24.56 27.8a.19.19 0 0 1 .12-.1.07.07 0 0 1 .05 0l.02.03v.02l-.06 1.7c0 .2 0 .76.33.7.3-.06.28-.75.27-.96-.04-.78-.07-1.68-.08-2.7 0-.18.08-.26.26-.25l.18.01h.18c.11-.03.2-.09.25-.17.03-.04.04-.07.04-.1-.02-.12-.1-.19-.22-.21a2.33 2.33 0 0 0-.8-.02l-1.22.06a.67.67 0 0 0-.62.42v.04c.08.29.5.16.78.07l.16-.05c.15-.03.3-.02.44.03.02 0 .03 0 .03.02l.02.03c.09.29-.14.59-.32.83-.36.48-.75.91-1.18 1.3-.1.09-.14.27-.03.38.15.16.3.16.48.06l.18-.14c.3-.29.55-.62.74-1Z" fill="#D31C21"/><path fill-rule="evenodd" d="M27.14 25.53c.1-.04.22-.05.33-.05.52.03 1.04.02 1.55-.02.24-.02.5.03.6.26.03.1.03.2.02.3l-.07.41c-.07.29-.31.4-.6.41l-1.47.12-.24-.02c-.21-.03-.35-.12-.4-.28a2.02 2.02 0 0 1-.06-.35v-.02c-.03-.2-.08-.65.17-.7l.17-.06Zm.33.45.31-.06h1.12c.1 0 .17.02.2.1.16.3-.32.36-.52.37-.24.02-.49.02-.73 0-.07 0-.18 0-.35.02-.1 0-.17-.04-.17-.15l-.01-.08c0-.1.04-.17.15-.2Z" fill="#D31C21"/><path d="m25.6 27.57.05.04.25.26c.06.06.14.07.22.06.12-.01.14-.11.1-.21a2.67 2.67 0 0 0-.27-.64c-.12-.2-.27-.32-.5-.2-.31.17-.02.49.16.69Z" fill="#D31C21"/><path fill-rule="evenodd" d="M26.73 27.43c-.3.03-.49.16-.47.47.04.61.08 1.16.13 1.66.02.31.28.4.58.38l1.66-.11.96-.02c.3 0 .47-.13.52-.42.09-.5.16-1.02.2-1.55.04-.43-.25-.49-.6-.53a13.27 13.27 0 0 0-1.3.05 52.73 52.73 0 0 1-1.68.07Zm1.8.48a.11.11 0 0 1 .03-.09.13.13 0 0 1 .09-.04l.73-.02c.04 0 .08 0 .12.02.04 0 .08.02.1.04.04.02.06.04.08.07.02.02.03.05.03.08v.06c0 .06-.03.12-.09.16a.4.4 0 0 1-.22.07l-.73.02a.13.13 0 0 1-.1-.03.12.12 0 0 1-.04-.08v-.26Zm-1.15.45c-.18.01-.5.03-.5-.15-.01-.14.03-.24.1-.3.05-.04.12-.06.22-.07h.71c.22 0 .15.33.1.44 0 .02 0 .03-.02.04a15.71 15.71 0 0 1-.6.04Zm2.21.37h-.04l-.7.03c-.16 0-.24.08-.24.22v.33c0 .02 0 .04.04.04.23.01.45 0 .66-.02.28-.04.35-.3.35-.53 0-.02 0-.04-.02-.05a.07.07 0 0 0-.05-.02Zm-1.94.7c-.2.02-.38.04-.56 0-.18-.04-.26-.1-.23-.3.04-.26.31-.3.54-.3h.47c.06 0 .1.01.12.03.09.08.04.37.02.45-.02.05-.05.08-.11.08l-.25.03Z" fill="#D31C21"/><path fill-rule="evenodd" d="M44.23 32.04a169.77 169.77 0 0 1-3.06 4.81 16.54 16.54 0 0 0-8.96-4.82h-.03c-.35.28-.73.4-1.13.36-1.21-.1-2.45-.1-3.7.01-1.03.1-2.09.25-3.18.47-1.25.25-2.22.5-3.58.83l-.7.17-.81.17c-.43.1-.85.1-1.25.04-.51-.09-1.03-.3-1.08-.86 0-.06 0-.17.04-.3a.95.95 0 0 0 0-.55c-.01-.01-.02-.02-.04-.01a6.5 6.5 0 0 0-.8.25c-.41.16-.8.33-1.16.51a31.34 31.34 0 0 0-4.36 2.64c-.06.05-.06.08-.03.15v.04l-.03.03-.08.03c-.1.04-.21.1-.27.16a.17.17 0 0 0-.04.12v.35c0 .04 0 .07-.02.1a.22.22 0 0 1-.08.09c-.28.15-.58.2-.9.15a.52.52 0 0 1-.27-.15.24.24 0 0 1-.07-.16c0-.1-.03-.2-.06-.33-.01-.03-.03-.05-.07-.05a1 1 0 0 1-.48-.16.27.27 0 0 1-.09-.1A3323.29 3323.29 0 0 0 7 23.76a.1.1 0 0 1 .04-.09l.27-.2h.01v-.02c0-.13 0-.26-.02-.4-.02-.2.09-.34.31-.4a3.92 3.92 0 0 1 1.06-.08c.24.05.4.22.38.46v.08c-.01.09-.02.16 0 .23.01.02.02.03.04.03.2.06.35.17.46.33.01.02.03.03.05.02l1.26-.51c1.01-.4 2-.73 2.97-.99.76-.2 1.5-.34 2.23-.42a11.03 11.03 0 0 1 4.84.48.7.7 0 0 1 .24.14c.04.03.07.09.09.16a17.86 17.86 0 0 1 .07.2c1.44-.6 3-.86 4.57-.95a22.95 22.95 0 0 1 3.46.04.05.05 0 0 0 .02-.04l.01-.5c.05-.5.26-1 .76-1.21.23-.1.48-.14.76-.1 1.1.13 2.13.31 3.08.54 1.81.43 3.6 1.02 5.39 1.77a42.03 42.03 0 0 1 7.78 4.33v.01a34.24 34.24 0 0 1-1.93 3.77c.25.11.45.26.62.45a.4.4 0 0 0 .29.13h.1c.05-.02.12-.02.17 0 .12.03.18.1.24.2.02.04.04.07.07.09.18.13.32.2.55.17.25-.03.47-.1.66-.19l.32-.2c.23-.15.5-.23.8-.25a9.7 9.7 0 0 1 .38-.04.4.4 0 0 1 .38-.13l.04-.01.17-.1c.12-.12.27-.2.42-.24.14-.04.3-.07.48-.08.36-.03.71.2.97.42.25.21.47.44.66.68a1 1 0 0 0 .2.2c.11.07.2.12.26.14.03.01.03.02 0 .03a.43.43 0 0 1-.18 0c-.04-.02-.08-.01-.12 0-.04.03-.06.07-.08.12l-.02.04-.02.02h-.02l-.01-.01a3.61 3.61 0 0 1-.05-.03c-.12-.09-.28-.19-.4-.17-.2.03-.34.13-.5.24l-.04.03-.02.01c-.1.07-.2.12-.25.14a.84.84 0 0 1-.33.07c-.14-.01-.28-.03-.42-.07a.93.93 0 0 1-.67-.52c0-.01-.02-.02-.03-.01-.13.03-.27.04-.4.03a.5.5 0 0 1-.27-.11.08.08 0 0 0-.04-.02c-.26-.05-.63.1-.82.23-.16.1-.3.2-.43.25a1.64 1.64 0 0 1-.87.11l-.02.01c-.03.03-.04.06-.02.11.06.17.1.27.1.32.08.27.03.54-.03.83l-.02.1c-.03.19-.03.5.13.62.02.02.05.03.1.04.46.1 1 .39 1.23.8.1.2.18.37.21.53a4.64 4.64 0 0 1 .05 1.07c-.09.03-.15.06-.17.09a.28.28 0 0 0-.05.07c-.01.1-.04.1-.08.01a.52.52 0 0 1-.02-.05c-.01-.04-.02-.08-.04-.1-.1-.13-.22-.23-.35-.3-.12-.07-.28-.13-.42-.17l-.18-.07c-.11-.04-.23-.1-.36-.17a.84.84 0 0 1-.33-.33c-.1-.18-.14-.35-.1-.5l-.01-.03c-.17-.16-.2-.32-.08-.5a.04.04 0 0 0 0-.03 1.57 1.57 0 0 1-.08-.3.76.76 0 0 1 .02-.26c.06-.29.08-.52.06-.69a5.4 5.4 0 0 0-.12-.65 1.55 1.55 0 0 0-.15-.4c-.02-.02-.04-.03-.08-.02-.16.05-.44.1-.54-.06a.04.04 0 0 0-.03-.02c-.1 0-.16.05-.22.1a.61.61 0 0 1-.09.05c-.13.07-.26.06-.43.04h-.07c-.2-.02-.38-.07-.54-.17l-.03.01Zm-.84-.69c.04.02.04.02.02-.01a.6.6 0 0 1-.14-.4l.03-.16.02-.08c.01-.06.03-.1.06-.13.06-.06.1-.1.12-.1a1.62 1.62 0 0 1 .69-.16v-.02a.76.76 0 0 0-.77-.04c-.49.24-.47.84-.03 1.1Zm1.13.22v.02c.08 0 .14.02.22.04l.19.03c.22.04.35-.06.45-.22a.13.13 0 0 0 .02-.1c-.05-.2-.27-.33-.48-.39l-.03.01-.37.61Zm6.18-.4v-.02l-.26-.05a.1.1 0 0 1-.04-.01.1.1 0 0 1-.03-.03.08.08 0 0 1-.01-.03v-.04c0-.02.03-.03.07-.04l.12-.03c.02 0 .02-.01 0-.03h-.06l-.3.06c-.07.01-.11 0-.14-.06l.01-.04a.35.35 0 0 1 .12-.09c.13-.06.25-.1.37-.1a5.05 5.05 0 0 1 .65.01c-.03-.03-.06-.04-.09-.04h-.04c-.14 0-.32-.01-.36-.12v-.03c0-.01 0-.02.02-.03 0-.01.01-.02.03-.02l.04-.02c.32-.06.61.04.87.24.26.2.48.41.67.67.04.04.07.13.01.17-.07.06-.16.06-.23.07l-.12.01-.25.11a.83.83 0 0 0-.21.15c-.14.13-.52.37-.7.17a.07.07 0 0 1-.02-.06l.02-.03.03-.02.05-.02c.02 0 .02-.01 0-.01-.09-.02-.15 0-.18.06l-.03.02c-.06 0-.12 0-.16-.02-.04-.02-.06-.05-.06-.1 0-.03.03-.06.1-.08.05-.01.05-.02 0-.04l-.32-.09v.01l.07.12v.02c-.14-.02-.26-.08-.27-.22l.03-.03.06.02.02-.01c0-.07.05-.1.11-.08a9.02 9.02 0 0 0 .47.14l.38-.09v-.01c-.03-.02-.06-.02-.11-.02l-.04.01c-.13.03-.28.06-.32-.07a.03.03 0 0 0-.03-.02.5.5 0 0 0-.1 0c-.12 0-.25 0-.26-.12v-.04c.1-.1.3-.08.42-.05Zm-5.58-.27c-.35-.16-.7-.15-1.05.02a.8.8 0 0 1-.15.07c-.1.02-.23.04-.3-.04-.15-.14-.06-.28.1-.36.16-.1.4-.12.64-.14.2-.02.38 0 .53.04.27.08.5.22.7.43.05.04.08.1.09.16 0 .02 0 .03-.02.05l-.04.03c-.08.03-.21-.07-.3-.13V31h-.01a.93.93 0 0 0-.19-.11Zm4.54-.07a.21.21 0 0 0-.06.16v.12c0 .04-.03.1-.07.18-.02.05 0 .1.03.14 0 .02.02.02.03.03.09.02.15-.01.2-.09.13-.18.2-.41-.02-.55-.04-.03-.08-.03-.11.01Zm-2.7.8c.3.04.59-.02.86-.16l.17-.1c.5-.26.87-.46 1.39-.43.2.01.1.34-.03.4a.28.28 0 0 1-.13.02c-.3-.02-.6.06-.88.24l-.36.22a1.34 1.34 0 0 1-.86.15 7.65 7.65 0 0 1-.46-.06c-.08-.02-.14-.06-.16-.13-.03-.07.06-.23.14-.24.08-.01.13.01.19.04.03.02.08.04.12.04Zm-1.3-.35c-.1.08-.09.17-.07.29l.02.13.02.03c.05.05.12.05.2 0 .13-.07.2-.2.23-.36.02-.27-.3-.2-.4-.09Zm.45.29a.58.58 0 0 0 .05-.23c0-.07.04-.12.12-.14h.03a.13.13 0 0 1 .13.04l.02.04a.4.4 0 0 1 0 .2.96.96 0 0 1-.28.4c-.08.07-.19.1-.26.04a.09.09 0 0 1-.02-.07c0-.02 0-.04.02-.06l.02-.01c.07-.07.14-.14.17-.21Zm-.67.31c0-.07-.03-.1-.1-.08-.28.06-.47.07-.56.03-.17-.07-.41-.17-.5.02-.02.05.02.12.06.14.17.1.35.13.55.12.17-.02.31-.04.42-.08.08-.02.12-.07.13-.13v-.02Zm.97.36a.63.63 0 0 1-.07-.08c-.04-.06-.04-.12 0-.17a.05.05 0 0 1 .05-.02c.12 0 .28.12.34.2.1.14.18.28.24.44.03.1.04.22.02.35-.01.09-.04.2-.08.35-.04.16-.06.28-.05.34 0 .14.03.26.08.35.05.08.07.14.06.18-.02.12-.1.27-.25.24-.19-.04-.18-.35-.16-.49.06-.47.05-.9-.03-1.29-.03-.13-.07-.32-.15-.4Zm.63 2.25a10.9 10.9 0 0 1-.3.07c-.06.02-.1.04-.1.07-.05.08-.03.16.06.19s.18.02.27-.05a.85.85 0 0 0 .16-.16c.03-.05.02-.09-.04-.12h-.05Zm1.07.57a1.57 1.57 0 0 0-.24-.29c-.04-.04-.04-.08 0-.12.05-.04.1-.04.15 0a3 3 0 0 1 .38.38c.03.03.03.06.03.1v.07c.01.02.03.04.07.06l.06.05.02.04.03.1.04.12.02.53c0 .05-.02.08-.08.08-.05 0-.09-.03-.1-.08l-.02-.09c0-.02-.01-.02-.03 0-.03.02-.06.04-.1.04a.43.43 0 0 0-.2.04l-.04.01a.9.9 0 0 1-.28-.07 21.2 21.2 0 0 0-.42-.2c-.1-.03-.12-.08-.1-.16a.1.1 0 0 1 .09-.07.1.1 0 0 1 .03 0l.25.1v-.02c.01 0 0 0 0 0a1.33 1.33 0 0 1-.43-.3.22.22 0 0 1-.03-.21v-.01h.02l.05.03a.05.05 0 0 0 .06-.01l.01-.03v-.03l-.14-.17a.08.08 0 0 1-.02-.09v-.01h.01c.04-.04.07-.04.1-.01.04.03.07.07.1.12a.04.04 0 0 0 0 .01.05.05 0 0 0 .02.01h.01c.02.01.05.01.07 0 .02 0 .03-.01.02-.03 0-.02.01-.05.04-.07v-.02l-.11-.15a.05.05 0 0 1-.01-.04.05.05 0 0 1 .04-.04c.15-.04.34.14.45.26l.17.18Zm-.9.57a.41.41 0 0 1-.1-.12 1.57 1.57 0 0 0-.26-.39.07.07 0 0 0-.05 0h-.02a.13.13 0 0 0-.04.07v.04c.05.1.11.2.19.3.08.12.17.18.27.2h.04c.02-.03.02-.05 0-.07l-.01-.01-.02-.02Zm-5.75-10.72a38.42 38.42 0 0 0-7.51-2.73 62.8 62.8 0 0 1-1.18 8.6 33.83 33.83 0 0 1 7.68 3.37l.03-.01c1.27-2.16 2.4-4.14 3.38-5.94a26.55 26.55 0 0 0 .77-1.55l-.01-.03a34.5 34.5 0 0 0-3.16-1.71Zm-20.48-1.47-.01-.01a9.15 9.15 0 0 0-1.55-.39c-1.42-.22-2.9-.14-4.3.16a18.64 18.64 0 0 0-5.41 2.06l.65 8.57v.01h.02a38.5 38.5 0 0 1 5.18-2.47c.93-.36 1.85-.65 2.77-.87.69-.17 1.36-.28 2.02-.33a5.93 5.93 0 0 1 .68-.03L21 23.46v-.02Zm.29.7c.25-.13.5-.24.74-.33 1.33-.49 2.83-.7 4.27-.73 1.04-.02 2.11 0 3.23.1a9.4 9.4 0 0 1 2.07.4c.43.14.86.2 1.3.16a39.23 39.23 0 0 0 .67-.03.07.07 0 0 1 .02.06l-.1 1.09a62.22 62.22 0 0 1-1.01 6.04l-.07.22s-.01.02-.03.01a30.16 30.16 0 0 0-11.06 1.01l-.05-7.96v-.02l.02-.02Zm-12.2-.45c.09.05.13.1.13.15a63477.2 63477.2 0 0 1 .95 11.68l.05.02h.06a.06.06 0 0 0 .04-.02.05.05 0 0 0 .01-.04l-.86-11.33a1.1 1.1 0 0 0-.08-.43c-.1-.14-.23-.23-.43-.25a3.73 3.73 0 0 0-1.1.03c-.25.04-.46.13-.61.26-.04.03-.04.06-.01.1H7.37a2.4 2.4 0 0 1 1.46-.25.7.7 0 0 1 .24.08Zm8.15 8.54a12.8 12.8 0 0 1 3.46-.75c.11.04.14.18.09.28-.09.18-.28.3-.47.37-.36.16-.77.26-1.23.3a8.55 8.55 0 0 1-1.1.06.83.83 0 0 0-.3.05l-.3.13h-.04a.17.17 0 0 1-.12-.11.62.62 0 0 1-.01-.3c0-.02 0-.02.02-.03ZM9.75 35.8c.03 0 .07.02.12.05l.06.09.03.06.04.02c.1-.01.19-.05.24-.11a.1.1 0 0 0 0-.11.1.1 0 0 0-.02-.03.57.57 0 0 0-.25-.1 4.36 4.36 0 0 0-.75-.04 1.5 1.5 0 0 0-.98.33.05.05 0 0 0 .01.07.5.5 0 0 0 .2.1h.02c.02-.1.07-.17.17-.21.35-.15.72-.2 1.11-.12Zm-.12.59a.07.07 0 0 0 .04-.02.06.06 0 0 0 .02-.05l-.02-.28V36l.03-.02a.08.08 0 0 1 .07 0c.04 0 .07.04.1.1.02.03.03.08.02.14v.2c0 .04-.01.07-.03.09-.04.04-.08.05-.14.04-.1-.03-.24-.04-.42-.01a2.34 2.34 0 0 0-.41.06c-.04 0-.06-.01-.07-.02a.06.06 0 0 1 0-.09l.03-.02a.85.85 0 0 1 .34-.08h.44Zm20.65-14.7c-.15-.06-.24-.1-.39-.09a.03.03 0 0 0-.03.03l-.07.23a.1.1 0 0 0 0 .06c0 .02.02.04.04.05.1.06.2.09.32.1.32.04.57.06.73.09.13.01.3.04.52.1l.53.1.85.12c.14.03.3.02.46-.01.18-.04.3-.18.25-.35-.04-.19-.42-.3-.58-.3-.44-.02-1.2-.03-2.3-.04a.63.63 0 0 1-.22-.05l-.1-.04ZM8.42 22.8a54.07 54.07 0 0 1 .32.07c.01.01.02.02.01.04l-.02.27c0 .1.04.14.12.13a.09.09 0 0 0 .06-.03.08.08 0 0 0 .02-.06l-.07-.41c-.01-.04-.03-.07-.06-.08-.11-.04-.23-.06-.34-.06-.24-.01-.82-.04-.9.2a.04.04 0 0 0 .01.04l.02.01h.02c.07 0 .13 0 .2-.04.19-.09.4-.12.61-.08Z" fill="#D31C21"/></svg>