<!-- by TradingView --><svg width="56" height="56" viewBox="0 0 56 56" xmlns="http://www.w3.org/2000/svg"><path fill="#F0F3FA" d="M0 0h56v56H0z"/><path fill-rule="evenodd" d="m16.56 22.11 8.47-8.94c.6-.58 1.19-1.17 2.38-1.17 1.18 0 2.17.78 2.37 1.17l7.14 8.14c6 1.58 10.08 4.7 10.08 8.3C47 34.8 38.5 39 28 39a38.96 38.96 0 0 1-1.03-.01C16.96 38.72 9 34.62 9 29.6c0-2.74 2.37-5.2 6.14-6.92l.04-.07.07.03c.42-.2.85-.37 1.3-.54Zm12.76-1.87-1.91-2.37-2.5 2.47a38.38 38.38 0 0 1 4.41-.1ZM11.86 33h6.58l.26.4a29 29 0 0 0-4.03 1.55l.02.04A12.02 12.02 0 0 1 11.86 33Zm1.96-3-2.39 2.54A4.75 4.75 0 0 1 10.21 30h3.61Zm5.6 2.34 1.7-2.34h5.61l.27.22v1.74c-2.5.05-4.97.51-7.1 1.09l-.48-.7Zm-2.54-9.1c.73.24 1.61.5 2.61.73L21.34 22c-1.62.3-3.12.73-4.46 1.24ZM28.16 30l-.16.15v1.81a35 35 0 0 1 6.97 1l.22-.31L33.27 30h-5.11Zm8.04 3.27.17-.27H44l-2.82-3h4.61c-.2 1.72-1.68 3.53-4.53 5.02l.03-.08a43.35 43.35 0 0 0-5.1-1.67ZM45.76 29h-5.52l-4.02-4.28c1.46-.43 2.68-.88 3.51-1.23.4.17.8.34 1.17.53 2.97 1.46 4.56 3.25 4.86 4.98Zm-14.6-1.9 1.39 1.9h-3.36l1.98-1.9Zm2.31-5.3 1.96 2.08c1.18-.31 2.16-.65 2.86-.93a29.05 29.05 0 0 0-4.82-1.15ZM28 23.65l2.27-2.19a37.4 37.4 0 0 0-2.27-.07v2.26Zm-1-2.25c-.75.02-1.48.07-2.2.13l2.2 2.12V21.4Zm-11.72 2.53c.8.3 1.92.68 3.29 1.02L14.77 29h-4.53c.3-1.73 1.9-3.52 4.86-4.98l.18-.1ZM21.84 29h3.69l-2.3-1.9-1.39 1.9Zm18.06 6.66c-1.14-.42-2.7-.93-4.45-1.37-.57.71-1.26 1.46-2.04 2.14-.5.43-1.03.84-1.6 1.2a28.53 28.53 0 0 0 8.1-1.97ZM28 37.8a8.57 8.57 0 0 0 4.62-2.25c.58-.5 1.1-1.04 1.55-1.57a33 33 0 0 0-6.17-.84v4.66Zm-1-4.67v4.68a8.43 8.43 0 0 1-4.81-2.26c-.55-.48-1.05-.99-1.49-1.5 1.93-.5 4.11-.87 6.3-.92Zm-4.28 4.32c-2.52-.38-4.8-1-6.7-1.82a31.7 31.7 0 0 1 3.43-1.23 16.3 16.3 0 0 0 3.27 3.05Z" fill="#D0AD67"/></svg>