<!-- by TradingView --><svg width="56" height="56" viewBox="0 0 56 56" xmlns="http://www.w3.org/2000/svg"><path fill="#F0F3FA" d="M0 0h56v56H0z"/><path d="M41.27 37.66c.21.23.38.49.3.82-.1.48-.4.72-.91.7a.54.54 0 0 1-.26-.07.76.76 0 0 0-.13-.06.21.21 0 0 0-.2.02l-6.73 4.71a.17.17 0 0 0-.08.18c.05.5-.1.82-.48.96-.53.19-.9.03-1.14-.46a.18.18 0 0 0-.18-.11H25.8a.2.2 0 0 0-.18.1 5.7 5.7 0 0 0-.17.25.5.5 0 0 1-.22.2c-.37.16-.7.13-.97-.1-.25-.2-.26-.4-.33-.67a.23.23 0 0 0-.13-.16l-5.98-2.48a.22.22 0 0 0-.2.02c-.9.58-1.76-.16-1.3-1.14a.22.22 0 0 0-.02-.22l-4.17-6.25a.16.16 0 0 0-.16-.07c-1.06.09-1.32-1.2-.43-1.66.07-.04.1-.1.1-.17v-7.3c0-.04-.01-.07-.03-.1a.15.15 0 0 0-.07-.05 1.4 1.4 0 0 1-.2-.09.4.4 0 0 1-.15-.15c-.46-.82-.02-1.39.8-1.44.08 0 .14-.04.19-.11l3.63-6.12a.17.17 0 0 0 0-.2.85.85 0 0 1 1.27-1.12.13.13 0 0 0 .15.02l6.98-3.26c.07-.04.1-.1.11-.17.05-.8.73-1.16 1.4-.72.07.04.12.1.15.17l.12.26c.03.07.1.11.17.11l5.09.37c.25.01.42-.04.52-.18.3-.43.71-.52 1.17-.23.27.18.38.46.33.84a.19.19 0 0 0 .07.18l6.73 4.55a.2.2 0 0 0 .2.01c.59-.26 1-.09 1.23.52.1.28.03.57-.23.87a.2.2 0 0 0-.04.2l2.81 8.25a.2.2 0 0 0 .16.14l.22.03a.4.4 0 0 1 .22.1c.36.3.45.67.26 1.1-.14.31-.37.4-.67.47a.17.17 0 0 0-.13.11l-2.88 8.35c-.03.1-.02.17.05.25Zm-8.63-24.43c-.54.03-.76-.13-1-.59a.23.23 0 0 0-.2-.13l-4.25-.3c-.25-.02-.25 0-.02.09l6.21 2.08a.06.06 0 0 0 .07-.02.07.07 0 0 0 0-.08l-.64-.96a.2.2 0 0 0-.17-.09Zm.35 1.56c.13-.02.14-.06 0-.1l-6.97-2.33c-.08-.02-.15 0-.2.06a.8.8 0 0 1-.7.3.18.18 0 0 0-.18.1l-1.69 3.44a.36.36 0 0 0 .04.37c.04.05.1.1.15.11.06.03.13.03.19.02l9.36-1.97Zm-15.64.96a.07.07 0 0 0-.03.03.08.08 0 0 0 0 .09l.05.02 4.2.89c.07.01.12-.01.16-.07.24-.34.56-.5.96-.48.08 0 .14-.03.18-.1l1.72-3.53a.1.1 0 0 0 0-.1.1.1 0 0 0-.09-.04.46.46 0 0 0-.2.05l-6.95 3.24Zm16.64-1.6c.45.04.58.18.7.64.03.08.09.14.16.18l3.32 1.55c.14.07.15.06.02-.03l-4.81-3.25c-.14-.1-.16-.07-.07.07l.5.74c.04.06.1.1.18.1ZM23.5 17.34c-.03.16-.08.25-.13.37a.19.19 0 0 0 .03.2l6.86 8.82c.06.08.1.07.12-.02l3.23-11.17a.3.3 0 0 0-.06-.28.29.29 0 0 0-.27-.1l-9.64 2.03c-.08.02-.13.07-.14.15Zm13.36 2.27a.96.96 0 0 0-.3.22l-2.32-4.2c-.1-.18-.19-.17-.25.04l-3.12 10.8c-.17.48-.4.76-.68.86a2411.8 2411.8 0 0 1-7.06-9.1c-.12-.16-.25-.19-.4-.1a.25.25 0 0 0-.1.17L21.1 28.72l-.45.22-8.04-4.51a.04.04 0 0 0-.05 0 .04.04 0 0 0 0 .05l2.76 4.16c-.15.07-.3.1-.44.09l-2.74-4.07c-.07-.1-.1-.1-.1.03v7.34c0 .09.03.14.11.17.25.08.4.25.49.53.02.07.07.12.15.12l4.48.37c.26.2.42.37.46.51-.18 2.1-.33 4.19-.43 6.25 0 .1.04.16.14.18h.07c.02 0 .04-.02.05-.03l2.77-2.57c.14.03.29.09.43.17l-2.84 2.63a.46.46 0 0 0-.14.43.46.46 0 0 0 .27.34l5.93 2.46c.22.1.27.03.15-.19L20.9 37.7c.06-.13.21-.2.46-.23l3.13 5.73c.09.16.13.15.14-.04l.15-5.45.81-.2c2.09 1.95 4.2 3.9 6.32 5.83.12.12.23.1.31-.04a.23.23 0 0 0 .03-.12l-.45-13.81c.03-.17.16-.3.38-.39 2.3 1.33 4.59 2.66 6.83 4 .14.08.26.08.34 0a.2.2 0 0 0 .05-.17l-1.34-9.5c.14-.16.26-.27.36-.32l4.62 3.9c.07.05.08.04.03-.03l-3.73-5.55a2.4 2.4 0 0 1-.48-1.2l.94-1.34a.78.78 0 0 0-.3-1.15l-4.8-2.25c-.11-.05-.14-.03-.08.08l2.27 4.1v.01c0 .02-.02.04-.03.05Zm-20.4-2.8-.11-.02c-.08-.02-.14.01-.18.08l-3.6 6.07c-.09.13-.06.16.07.08a830.3 830.3 0 0 0 8.93-5.48c.15-.1.15-.2 0-.32a.08.08 0 0 0-.04-.02l-4.15-.87a.17.17 0 0 0-.17.07c-.17.23-.4.37-.7.42h-.05Zm4.27 11.62 1.48-10.14a.33.33 0 0 0-.14-.32.3.3 0 0 0-.33 0L12.8 23.4a.37.37 0 0 0-.18.32.39.39 0 0 0 .2.33l7.83 4.4c.05.03.07.01.08-.04Zm19.77-9.58a.26.26 0 0 0-.27.1l-.97 1.2a.2.2 0 0 0 0 .24l4.03 6.05c.11.17.14.16.07-.04l-2.5-7.37a.2.2 0 0 0-.16-.13l-.2-.05Zm-1.93 4.82c-.05-.04-.06-.03-.06.03l1.3 9.1a.13.13 0 0 0 .1.11.12.12 0 0 0 .12-.04l3.35-4.18a.17.17 0 0 0 .03-.18.98.98 0 0 1-.06-.65.22.22 0 0 0-.07-.22l-4.71-3.97Zm1.57 10.49a.2.2 0 0 0-.05.18l.66 3.06c.03.11.06.11.1 0l2.73-8.22c.02-.06.01-.07-.03-.01l-3.14 3.9a.2.2 0 0 0-.05.2c.1.34.02.64-.22.89Zm-1.07-.72a.08.08 0 0 0-.04-.07l-6.72-3.77a.08.08 0 0 0-.1.03c-.02.01-.02.03-.02.04l.47 13.6.01.06.05.03a.08.08 0 0 0 .09-.04l6.27-9.18a.08.08 0 0 0 .01-.05l-.02-.65Zm-21.9.16-4.4-.32a.28.28 0 0 0-.26.15.3.3 0 0 0 0 .3l4.15 6.2c.14.2.21.19.23-.06l.42-6.12c0-.1-.04-.15-.14-.15Zm22.76 4.93c-.04-.37.02-.63.33-.91.05-.05.07-.1.06-.17l-.62-3.11a.12.12 0 0 0-.04-.06.12.12 0 0 0-.13-.03.12.12 0 0 0-.05.04l-6.1 8.94c-.02.02-.02.03 0 .01l6.47-4.52c.06-.05.09-.1.08-.19Zm-14.66-.72c-.05-.05-.08-.04-.08.04l-.16 5.32c0 .08.03.15.1.19.2.13.36.3.47.51a.15.15 0 0 0 .14.09h5.78c.04 0 .08-.02.11-.05a.2.2 0 0 0 .04-.06.12.12 0 0 0-.03-.14l-6.37-5.9Z" fill="#808082"/><path d="M38.86 20.1c.08.52.24.92.48 1.2a1.93 1.93 0 0 1-.92 1.68c-.1.05-.22.16-.36.33a64.17 64.17 0 0 0-5.88 5.66c-.22.09-.35.22-.38.39a50.94 50.94 0 0 0-6.2 8.15l-.82.2a21.71 21.71 0 0 0-3.87-6.08c-.46-.5-.71-.9-.77-1.19-.1-.51.07-1.01.5-1.5l.46-.22c1.35-.37 1.84.56 2.44 1.77a30.7 30.7 0 0 1 1.8 4.53h.03a.05.05 0 0 0 .05-.02 78.08 78.08 0 0 1 4.77-7.68c.29-.1.51-.38.68-.87a63.32 63.32 0 0 1 5.7-6.63.96.96 0 0 1 .3-.22.4.4 0 0 1 .04.04.08.08 0 0 0 .07.02 2 2 0 0 1 1.88.43ZM21.36 37.46c-.25.03-.4.1-.46.23-.07 0-.11.01-.14.04a1.22 1.22 0 0 0-.43-.17l-2.6-3.83c-.04-.14-.2-.31-.46-.5-.5-.63-1.06-1.2-1.68-1.7-.56-.44-.88-.78-.96-1-.19-.53-.08-1.06.32-1.58.04-.06.04-.1 0-.16a.25.25 0 0 0-.07-.06c.14.01.29-.02.44-.1.7-.22 1.26-.12 1.7.32.33.32.72.85 1.17 1.57 1.34 2.19 2.4 4.5 3.17 6.94Z" fill="#0298D8"/></svg>