<!-- by TradingView --><svg width="56" height="56" viewBox="0 0 56 56" xmlns="http://www.w3.org/2000/svg"><path fill="#F0F3FA" d="M0 0h56v56H0z"/><path d="M43 16c4 3.31 4 8.69 0 12-4-3.31-4-8.69 0-12Z" fill="#036A44"/><path d="M51.49 22c1.7 5.1-.97 10.02-5.98 11-1.7-5.1.97-10.02 5.98-11Z" fill="#007196"/><path d="M32.51 14c5 .98 7.68 5.9 5.98 11-5-.98-7.68-5.9-5.98-11Z" fill="#8CC63F"/><path d="M27 34h-1v-2c0-.53-.2-1.2-.88-1.2-.87 0-1.12.75-1.12 1.43V34h-1v-4h1v.66a2 2 0 0 1 1.52-.66c1.02 0 1.48.61 1.48 1.57V34ZM15.81 32.7l1.13.16c-.29.74-.92 1.14-1.86 1.14-1.2 0-2.08-.74-2.08-1.97 0-1.15.8-2.03 1.96-2.03 1.37 0 2.07 1 2.04 2.3h-3.01c.01.53.55.94 1.1.94.35 0 .6-.16.72-.54Zm.19-1.03c-.01-.49-.45-.9-.97-.9-.51 0-1.04.4-1.04.9H16ZM20.81 32.7l1.13.16c-.29.74-.92 1.14-1.86 1.14-1.2 0-2.08-.74-2.08-1.97 0-1.15.8-2.03 1.96-2.03 1.37 0 2.07 1 2.04 2.3h-3.01c.01.53.55.94 1.1.94.35 0 .6-.16.72-.54Zm.19-1.03c-.01-.49-.45-.9-.97-.9-.51 0-1.04.4-1.04.9H21ZM11 34h-1v-4h1v.64c.27-.36.72-.64 1.2-.64.27 0 .54.07.8.2l-.38.9c-.2-.12-.4-.17-.57-.17-.93 0-1.05 1.24-1.05 1.86V34ZM7 32v-.67h2v1.92a3.6 3.6 0 0 1-2.29.75C5.21 34 4 33.05 4 31.48 4 29.95 5.19 29 6.66 29c1.32 0 2.06.53 2.27 1.42l-1.07.18c-.15-.47-.58-.77-1.2-.77-.97 0-1.66.67-1.66 1.61 0 .95.64 1.73 1.64 1.73.45 0 1-.16 1.36-.42V32H7Z" fill="#036A44"/><path d="M41 34v-5h.62v1.5c.3-.33.66-.5 1.1-.5.9 0 1.28.58 1.28 1.4V34h-.62v-2.6c0-.6-.29-.87-.78-.87-.7 0-.98.57-.98 1.2V34H41ZM37 32.77l.6-.1c.04.26.13.45.29.6.15.13.37.2.65.2s.5-.06.63-.18c.13-.13.2-.27.2-.43a.4.4 0 0 0-.18-.35c-.08-.06-.3-.13-.63-.22a5.7 5.7 0 0 1-.93-.3.95.95 0 0 1-.53-.89 1.03 1.03 0 0 1 .41-.83c.1-.08.23-.14.4-.2.16-.04.33-.07.52-.07.29 0 .53.04.75.13.21.09.37.2.47.35.1.15.18.35.21.6l-.6.08a.7.7 0 0 0-.23-.46.82.82 0 0 0-.55-.17c-.28 0-.49.05-.6.15a.44.44 0 0 0-.19.35c0 .08.03.16.08.22.05.07.13.13.23.18l.54.16c.44.13.74.23.9.3.18.08.32.2.41.34a1.14 1.14 0 0 1-.03 1.17c-.12.2-.29.34-.51.45-.23.1-.48.15-.77.15-.47 0-.82-.1-1.07-.31-.25-.2-.4-.51-.47-.92ZM35.22 32.68l.76.08c-.24.79-.9 1.24-1.91 1.24-1.2 0-2.07-.75-2.07-1.97 0-1.2.83-2.03 2.03-2.03A1.9 1.9 0 0 1 36 32v.17h-3.24c.05.74.55 1.3 1.31 1.3.54 0 .92-.24 1.15-.79Zm-2.42-1.05h2.42c-.06-.65-.51-1.1-1.19-1.1-.65 0-1.18.44-1.23 1.1ZM28.42 34v-3H28v-.47h.42v-.47c0-.62.36-1.06 1.04-1.06.16 0 .34.02.54.06l-.09.53a1.87 1.87 0 0 0-.34-.04c-.35 0-.57.13-.57.56v.42h.76V31H29v3h-.58ZM30 34v-4h.6v.68c.14-.28.24-.46.36-.55a.67.67 0 0 1 .4-.13c.2 0 .42.07.64.21l-.21.62a.85.85 0 0 0-.46-.14c-.63 0-.74.8-.74 1.26V34H30Z" fill="#8CC63F"/></svg>