<!-- by TradingView --><svg width="56" height="56" viewBox="0 0 56 56" xmlns="http://www.w3.org/2000/svg"><path fill="#F0F3FA" d="M0 0h56v56H0z"/><path d="M37.2 12c2.23.95 2.82 2.47 1.76 4.54-1.02 1.2-2.14 1.54-3.36 1.03-1.67-.7-2.17-2.07-1.51-4.08A4.67 4.67 0 0 1 35.97 12h1.22Z" fill="#8AE1AF"/><path d="M34.09 13.5c-.66 2-.16 3.36 1.51 4.07 1.22.51 2.34.17 3.36-1.03 5.03 5.1 6.3 11.06 3.8 17.87-.98-1.11-1.17-2.69-.56-4.72a.12.12 0 0 0-.03-.12.12.12 0 0 0-.13-.01c-.86.46-1.63 1.03-2.3 1.69-1.3 1.28-1.81 3.36-2.87 4.93-1.2 1.75-1.26 3.82-.96 5.87-1.8.97-3.7 1.62-5.7 1.95h-4.24a.37.37 0 0 0-.27-.09l-2.55-5.06c-.07-.14-.04-.25.1-.34a.38.38 0 0 1 .18-.06c.1-.01.22.03.37.13 1.19.8 2.4.72 3.65-.25 3.03.08 5.6-.92 7.72-3 2.03-2.01 3.03-4.41 3-7.2a10.06 10.06 0 0 0-5.61-9c-2.58-1.32-5.37-1.43-8.4-.35a6.41 6.41 0 0 0-2.28-1c-.16-.04-.29.01-.38.15-1.1 1.7-2 3.47-3.46 4.04-1.18.46-2.26.75-3.24.87-.75.1-.82.37-.23.83l2.92 2.26-1.53 2.3c-.09.14-.21.17-.36.1l-3.47-1.83a15.27 15.27 0 0 1 3.04-7.78c4.37-5.67 11.94-8.16 18.92-5.23Z" fill="#F89918"/><path d="M24.17 18.78a10.53 10.53 0 0 0-6 6.76c-.31.06-.54.2-.68.4l-2.92-2.27c-.6-.46-.52-.74.23-.83.98-.12 2.06-.41 3.23-.87 1.48-.57 2.38-2.33 3.47-4.04.1-.14.22-.2.38-.16.82.19 1.59.52 2.29 1.01Z" fill="#FBAC14"/><path d="M18.16 25.54c-.93 4.11.13 7.54 3.17 10.28a10.04 10.04 0 0 0 6.12 2.5c-1.25.98-2.46 1.06-3.65.26-.15-.1-.27-.14-.37-.13a.38.38 0 0 0-.19.06c-.13.09-.16.2-.09.34l2.55 5.06a13.7 13.7 0 0 1-4.82-1.52 31.26 31.26 0 0 0-2.33-2.88 6.75 6.75 0 0 1-1.25-1.95c-.91-2.2-1.98-3.86-4.47-4.4L12 29.38v-2.37c.07-.14.11-.32.13-.52l3.47 1.82c.15.08.27.05.36-.09l1.53-2.3c.14-.2.37-.33.67-.39ZM42.76 34.41a16.38 16.38 0 0 1-6.85 7.64c-.3-2.05-.24-4.12.96-5.87 1.06-1.57 1.57-3.65 2.87-4.93a10.12 10.12 0 0 1 2.36-1.7.12.12 0 0 1 .1.08v.06c-.6 2.03-.42 3.6.56 4.72Z" fill="#F6891B"/><path d="M20.88 42.39c-3.94-2-6.62-5.09-8.05-9.24 2.49.55 3.56 2.21 4.47 4.4.31.74.73 1.39 1.25 1.96.82.9 1.6 1.85 2.33 2.88Z" fill="#FBAC14"/></svg>