<!-- by TradingView --><svg width="56" height="56" viewBox="0 0 56 56" xmlns="http://www.w3.org/2000/svg"><path fill="#F0F3FA" d="M0 0h56v56H0z"/><path fill-rule="evenodd" d="M28.03 39.9c6.63 0 12-5.35 12-11.95S34.67 16 28.04 16s-12.01 5.35-12.01 11.95 5.38 11.95 12 11.95ZM28 38a10 10 0 1 0 0-20 10 10 0 0 0 0 20Z" fill="#F67B2C"/><path d="M33.5 16.22a13 13 0 0 0-13.22 22.25l-1.81 2.38a16 16 0 0 1 16.4-27.3l-1.36 2.67Z" fill="#000200"/><path d="m36.64 15.82-3.38.9 1.81-4.02 1.57 3.12Z" fill="#000200"/><path d="M22.5 39.78a13 13 0 0 0 13.22-22.25l1.81-2.38a16 16 0 0 1-16.4 27.3l1.36-2.67Z" fill="#F67B2C"/><path d="m19.36 40.18 3.38-.9-1.81 4.02-1.57-3.12ZM19 20h17v2H19zM25 23v8h-2v-8zM33 23v8h-2v-8zM29 23v16h-2V23z" fill="#F67B2C"/><path d="M26 17v5h-2v-4.5l2-.5ZM32 17v5h-2v-5zM17.5 23h20l.5 2H17l.5-2ZM17 26h21v2H17zM17 30h21v2H17zM19 33h18v2H19z" fill="#F67B2C"/></svg>