<!-- by TradingView --><svg width="56" height="56" viewBox="0 0 56 56" xmlns="http://www.w3.org/2000/svg"><path fill="#F0F3FA" d="M0 0h56v56H0z"/><path d="M37.1 14.22c-.2.1-.34.24-.46.41a423748.39 423748.39 0 0 1-8.61 13.31c-.05.02-.08 0-.1-.03l-8.6-13.32c-.1-.16-.25-.28-.43-.36.09-.15.18-.23.28-.23h17.65c.12 0 .2.07.26.22Z" fill="#060708"/><path d="M18.9 14.23c.18.08.32.2.42.36 2.87 4.42 5.74 8.86 8.6 13.32.03.04.06.05.11.03a358622.16 358622.16 0 0 0 8.61-13.3c.12-.18.27-.32.45-.42l8.83 13.52a.47.47 0 0 1 0 .51L37.05 42l-8.97-13.9c-.05-.08-.1-.08-.16 0L18.98 42l-8.9-13.76a.42.42 0 0 1 0-.5c2.82-4.3 5.6-8.63 8.37-12.96a6 6 0 0 1 .45-.55Z" fill="#E47C3B"/><path d="M37.05 42H18.97l8.95-13.9c.05-.08.1-.08.16 0L37.05 42Z" fill="#060708"/></svg>