<!-- by TradingView --><svg width="56" height="56" viewBox="0 0 56 56" xmlns="http://www.w3.org/2000/svg"><path fill="#F0F3FA" d="M0 0h56v56H0z"/><path d="m9.06 25.56 6.82 6.93c.13.13.28.2.46.2 1.5.08 2.87 0 4.13-.25 1.66-.3 2.84-.93 3.55-1.85a82.09 82.09 0 0 1 3.2-4.04 11.22 11.22 0 0 1 8.36-3.81c.98-.02 1.83-.02 2.56-.02.12 0 .2-.05.26-.17a.26.26 0 0 0-.06-.3l-6.9-7.03a.5.5 0 0 0-.33-.15c-2.4-.22-4.85.07-7.34.9a8.45 8.45 0 0 0-4.33 3.42c-.12.17-.3.42-.52.76a19.36 19.36 0 0 1-2.4 3.08 6.82 6.82 0 0 1-3.44 1.7c-1.27.24-2.56.34-3.88.3a.18.18 0 0 0-.18.11.18.18 0 0 0 .04.22Zm30.22 8.43a6.64 6.64 0 0 1 3.35-1.76 13.5 13.5 0 0 1 3.68-.17c.78.08.9-.18.35-.76l-7.5-7.92a.51.51 0 0 0-.38-.17c-1.08.02-2.37.23-3.86.66a7.42 7.42 0 0 0-4.28 3.04 30.4 30.4 0 0 1-3.28 4.19 5.82 5.82 0 0 1-2.01 1.5c-2.05.71-4.17.97-6.34.77a3.82 3.82 0 0 0-1.4.08c-.18.05-.2.15-.09.29.89 1.02 3.1 3.3 6.62 6.84.15.15.42.25.8.29 3.72.4 6.61-.1 8.68-1.46.96-.63 2.27-1.84 3.92-3.63.8-.85 1.38-1.45 1.74-1.8Z" fill="#EE1C25"/></svg>