<!-- by TradingView --><svg xmlns="http://www.w3.org/2000/svg" width="56" height="56"><path fill="#F0F3FA" d="M0 0h56v56H0z"/><path fill-rule="evenodd" d="M19.26 28l6.58-7H16v14h9.82l-6.56-7zm7.08 9H14.46a10.05 10.05 0 008.07 1.8c1.16-.25 2.55-.93 3.8-1.8zm-3.8-19.8c1.14.24 2.51.93 3.77 1.8H14.46a10.05 10.05 0 018.07-1.8zM14 36.65a10.6 10.6 0 01-2.21-2.5A11.37 11.37 0 0114 19.36v17.28zm14.95.88c.38-.33.73-.66 1.05-.99V37h8v-6h-2v4h-4V21h4v4h2v-6h-8v.5a15.09 15.09 0 00-1.48-1.35c-1.67-1.33-3.76-2.52-5.58-2.9-2.43-.5-4.94-.24-7.22.74a12.62 12.62 0 00-5.61 4.79 13.37 13.37 0 000 14.44 12.62 12.62 0 005.6 4.79c2.29.98 4.8 1.24 7.23.74a14.44 14.44 0 006-3.23zM30 19.5v17.03L22 28l8-8.5zm18-.5h-8v6h2v-4h4v14h-4v-4h-2v6h8V19z" fill="#E41622"/></svg>