<!-- by TradingView --><svg width="56" height="56" viewBox="0 0 56 56" xmlns="http://www.w3.org/2000/svg"><path fill="#F0F3FA" d="M0 0h56v56H0z"/><path d="M25.28 12.26c6.7-1 9.51 1.13 11 2.48.84.71 2.04 2.06 4.43 3.13-1.55 0-3.1-.79-6.76-.79a11.76 11.76 0 0 0-11.63 11.86c0 6.53 5.36 12.07 11.77 12.07 1.76 0 3.38-.35 4.51-1-3.03 4.06-11.14 4.9-20.58 3.06 6.41-2.27 4.65-3.9 1.76-4.9a17.08 17.08 0 0 1-9.58-7.8c4.58 1.84 7.54 2.12 7.61 0-.14-3.49-5.85-2.35-8.81-9.24 4.65 1.85 9.94 1.7 11.28-.14.98-1.56 1.34-2.7-.14-4.54-2.12-2.63-6-2.99-6-2.99s5.71-1.7 10.93.64c2.04.93 3.31 1 4.16.5 1.55-.92-.85-2.27-3.95-2.34Z" fill="#C81528"/><path d="M36.77 38.6c5.1 0 9.23-4.17 9.23-9.3 0-5.14-4.13-9.3-9.23-9.3a9.27 9.27 0 0 0-9.23 9.3c0 5.13 4.13 9.3 9.23 9.3Z" fill="#F39800"/></svg>