<!-- by TradingView --><svg width="56" height="56" viewBox="0 0 56 56" xmlns="http://www.w3.org/2000/svg"><path fill="#F0F3FA" d="M0 0h56v56H0z"/><path fill-rule="evenodd" d="M38.14 14H14v28h24.14L42 38.05V17.69L38.14 14Zm-.36.5H14.5v27h23.28l3.72-3.81V18.06l-3.72-3.56Z" fill="#585656"/><path d="M15 15v13c5.7-3.98 8.96-5.37 11.91-5.37 2.95 0 1.76 4.35 5.13 4.35 2.7 0 7.1-2.36 8.96-3.55v-3.06A5.25 5.25 0 0 0 36.55 15H15Z" fill="#00A3B2"/><path d="M15 41V30.68c1.25-.95 5.01-2.85 10.04-2.85 6.28 0 .2 4.77 5.35 4.77 4.12 0 8.8-3.73 10.61-5.6v9.33c0 3.2-3.09 4.45-4.63 4.67H15Z" fill="#A70239"/></svg>