<!-- by TradingView --><svg width="56" height="56" viewBox="0 0 56 56" xmlns="http://www.w3.org/2000/svg"><path fill="#F0F3FA" d="M0 0h56v56H0z"/><path d="M41.59 17.78a25.18 25.18 0 0 1-11.54 3.75c-.07-.55-.15-1.45-.16-2.4l.12-.03c.16-.06.27-.1.53-.1.72 0 1.66.2 1.96.31v-2.43c-.32.14-1.24.42-1.75.42-.21 0-.3-.03-.42-.07l-.13-.04a15 15 0 0 1 .8-2.11 7.74 7.74 0 0 0-3.05-.58c-1.44 0-2.6.38-2.95.58.37.77 1.2 2.65 1.2 3.92 0 .92-.11 1.8-.18 2.4l-.02.12a25.78 25.78 0 0 1-11.59-3.74 16.97 16.97 0 0 1 27.18 0ZM42.86 20c-2.58 2.04-5.6 6.64-5.6 15.47 0 .9-.02 1.74-.05 2.53-.06 1.44-.11 2.73.06 4A16.54 16.54 0 0 0 45 28c0-3-.78-5.56-2.14-8ZM19 35.5c0 2.56 0 4.55-.26 6.5A16.54 16.54 0 0 1 11 28c0-3 .78-5.56 2.14-8C15.73 22.03 19 26.64 19 35.47v.03ZM25 25h6v6h-6v-6Zm-3.94 18.53c.8-1.42 2.42-5.15 2.92-9.53h8.04c.5 4.36 2.11 8.09 2.92 9.52a16.94 16.94 0 0 1-13.88.01Z" fill="#BB2630"/></svg>