<!-- by TradingView --><svg width="56" height="56" viewBox="0 0 56 56" xmlns="http://www.w3.org/2000/svg"><path fill="#ED1B24" d="M0 0h56v56H0z"/><path fill-rule="evenodd" d="M5.57 26.56c.23.25.47.4.72.49.51.15 1.3.35 2.34.58.15.04.42.14.81.3.9.39 1.27 1.08 1.1 2.1-.14.96-.81 1.58-2 1.85a5.38 5.38 0 0 1-2.97-.17c-.89-.32-1.4-.98-1.57-1.98-.02-.14.05-.21.2-.21h.67c.15 0 .24.07.27.2.15.65.6 1.06 1.37 1.24.63.15 1.3.13 2-.07a1.1 1.1 0 0 0 .58-1.83c-.14-.15-.45-.3-.94-.45a38.9 38.9 0 0 0-2.01-.5c-.41-.1-.78-.24-1.1-.44-.4-.24-.65-.52-.76-.84-.2-.6-.16-1.14.13-1.64.28-.49.74-.82 1.37-1a5.14 5.14 0 0 1 2.62-.04c1.07.25 1.66.9 1.78 1.91.02.15-.05.22-.2.22h-.63c-.16 0-.27-.08-.31-.23-.17-.57-.62-.92-1.35-1.05a3.01 3.01 0 0 0-1.81.22.85.85 0 0 0-.48.6c-.08.29-.02.54.17.74ZM16 25c0 .13.09.15.17.06a3.08 3.08 0 0 1 3.09-.98c.66.13 1.13.49 1.41 1.07.22.44.32 1.06.32 1.85l.01 4.82c0 .12-.06.18-.17.18h-.72c-.11 0-.11-.05-.11-.16v-5.2c0-.58-.26-1.01-.6-1.3-.34-.28-.8-.4-1.35-.34-.84.09-1.42.5-1.74 1.23-.19.42-.31 1.08-.31 1.99v.92c.01.75.02 1.65 0 2.67 0 .11-.07.17-.18.17h-.56c-.17 0-.26-.1-.26-.28v-7.47c0-.15.07-.23.2-.23h.67c.12 0 .13.07.13.19V25Zm13.87 4.13h-.8c-.09 0-.14.04-.17.12-.12.33-.23.6-.34.8-.28.53-.77.85-1.45.97-.66.1-1.24 0-1.74-.3-.57-.35-1.1-1-1.25-1.84-.18-.95-.1-1.78.2-2.52.36-.87 1.18-1.3 2.11-1.39 1.07-.1 1.79.22 2.16.96l.2.43c.03.07.08.1.15.11.36.06.68.06.96 0 .06-.02.09-.06.07-.11a2.87 2.87 0 0 0-1.13-1.79 3.5 3.5 0 0 0-2.08-.57c-1.97.01-3.17.94-3.6 2.77-.23 1.01-.21 1.95.05 2.82.3 1.02.9 1.72 1.77 2.09a4.34 4.34 0 0 0 3.67-.2 3.1 3.1 0 0 0 1.35-2.2c.01-.1-.03-.15-.13-.15ZM41 25.43c0 .1.06.12.14.04.44-.48.91-.82 1.22-1.02.42-.27.9-.42 1.43-.45.14 0 .21.06.21.2v.8c0 .13-.07.2-.2.21-1.73.1-2.75 1.1-2.8 3-.03 1.18 0 3.6 0 3.6 0 .13-.06.19-.19.19h-.65c-.1 0-.16-.05-.16-.16v-7.6c0-.14.07-.24.2-.24h.62c.13 0 .18.1.18.23v1.2ZM12.16 24h.68c.09 0 .16.08.16.17v7.66c0 .1-.07.17-.16.17h-.68c-.09 0-.16-.08-.16-.17v-7.66c0-.1.07-.17.16-.17Zm21.6 6.24c-.41-.47-.6-.9-.6-1.66 0-.06.03-.08.1-.08h5.64c.06 0 .1-.04.1-.1a5.28 5.28 0 0 0-.84-3.14A3.05 3.05 0 0 0 35.41 24a3.41 3.41 0 0 0-2.97 1.94A4.46 4.46 0 0 0 32 28.1c.03.9.23 1.67.59 2.3.41.7 1 1.17 1.8 1.42.81.25 1.66.24 2.53-.03.95-.29 1.59-.98 1.9-2.06.04-.14-.02-.21-.17-.21h-.67c-.15 0-.24.07-.28.2-.1.4-.33.72-.67.96-.3.21-.67.33-1.1.37-.42.03-.82-.02-1.2-.17-.41-.14-.74-.36-.98-.64Zm-.59-2.82c0 .05.03.08.08.08h4.48c.06 0 .08-.03.08-.09v-.02c0-.66-.23-1.23-.68-1.7-.45-.46-1-.7-1.64-.69a2.2 2.2 0 0 0-1.64.7 2.34 2.34 0 0 0-.68 1.7v.02Zm13 1.19c-.02.76.17 1.15.58 1.63.24.28.56.5.97.64.39.14.79.2 1.2.17.43-.04.8-.16 1.1-.37.35-.23.57-.55.68-.95.04-.14.13-.2.28-.2h.67c.15 0 .2.06.16.2-.3 1.09-.94 1.78-1.9 2.07-.87.26-1.71.27-2.53.01a3.03 3.03 0 0 1-1.8-1.43A4.86 4.86 0 0 1 45 28.1c-.02-.8.12-1.51.44-2.16A3.4 3.4 0 0 1 48.42 24c1.18-.04 2.1.38 2.75 1.26.57.78.85 1.99.83 3.17 0 .07-.04.07-.1.07h-5.65c-.06 0-.09.05-.09.1Zm.1-1.11c-.06 0-.09-.03-.09-.1v-.03c0-.65.22-1.21.67-1.67.45-.46 1-.7 1.63-.7.64 0 1.19.23 1.64.69.45.46.68 1.01.68 1.66v.04c0 .06-.03.1-.09.1l-4.44.01Z" fill="#fff"/></svg>