<!-- by TradingView --><svg width="56" height="56" viewBox="0 0 56 56" xmlns="http://www.w3.org/2000/svg"><path fill="#F0F3FA" d="M0 0h56v56H0z"/><path d="M13 18.45c.02-1.9 3-1.97 3 .05v6.75c0 1.33-.08 2.3-.25 2.9A6.66 6.66 0 0 1 9.38 33c-1.38-.04-1.91-1.96-.72-2.73.17-.11.5-.2.96-.25 2.46-.29 3.4-2.03 3.38-4.42v-7.15ZM20.3 32.8c-.94.63-2.4-.35-2.18-1.49.05-.26.26-.65.61-1.18l3.12-4.64a.89.89 0 0 0 0-.99c-1.06-1.57-2.13-3.16-3.21-4.79-.27-.39-.42-.7-.48-.91-.3-1.25 1.12-2.29 2.2-1.56.18.12.39.36.63.7a395.5 395.5 0 0 1 2.78 4.14c1.17 1.76 1.7 3.32.47 5.14l-3.02 4.5a4.2 4.2 0 0 1-.92 1.09Z" fill="#005CAC"/><path d="M32.67 31.33c.25 1.42-1.71 2.33-2.57 1.08l-2.84-4.18c-1.53-2.27-1.92-3.55-.4-5.85 1.53-2.3 2.56-3.85 3.11-4.64 1.2-1.72 3.65-.17 2.3 1.85l-3.3 4.92c-.24.36-.14.75.1 1.11L32 29.98c.4.58.62 1.03.68 1.35Z" fill="#E60044"/><path d="M36.73 32.26C36 33.64 34 32.95 34 31.4V18.84c0-1.36.62-1.84 1.91-1.84h3.93c.87 0 1.54.07 2.02.22a4.53 4.53 0 0 1 1.5 7.81l-.97.86a.88.88 0 0 0-.14 1.13c.62.96 1.28 1.95 1.96 2.96.37.53.58.92.65 1.18.46 1.66-1.75 2.55-2.7 1.04-1.65-2.58-4.49-5.24-1.94-8.26.32-.38.87-.83 1.3-1.23 1.23-1.12.35-2.7-1.16-2.71h-3.3c-.07 0-.06.02-.06.08v10.93c0 .55-.11.97-.27 1.25Z" fill="#005CAC"/><path d="M46.5 37a1.5 1.5 0 1 0 0-3 1.5 1.5 0 0 0 0 3Z" fill="#E60044"/><path d="M42.73 36.76c1.1-.62 2.37.44 1.82 1.47-.15.28-.47.56-.95.82a24.38 24.38 0 0 1-24.87-.95c-1.26-.83-.2-2.85 1.4-1.97l1.37.76a21.81 21.81 0 0 0 21.23-.13Z" fill="#005CAC"/></svg>