<!-- by TradingView --><svg width="56" height="56" viewBox="0 0 56 56" xmlns="http://www.w3.org/2000/svg"><path fill="#F0F3FA" d="M0 0h56v56H0z"/><path d="M29.96 18.12a23.4 23.4 0 0 1-2.41 13.06 167.34 167.34 0 0 0-4.18 6.03 12.55 12.55 0 0 1-1.7 1.87c-.64.08-1.02-.02-1.13-.31a32.59 32.59 0 0 0 6.48-15.15c.06-.21.07-.4.04-.58.39-2.83.2-5.45-.57-7.86-.24-.77-.07-.89.51-.36.87.77 1.85 1.87 2.96 3.3Z" fill="#A5A29D"/><path d="M27.06 23.04c.03.17.02.37-.04.58l.04-.58Z" fill="#01623D"/><path d="M22.25 39.19c.5 0 .99-.3 1.44-.88a23.55 23.55 0 0 0 3.86-7.13 23.4 23.4 0 0 0 2.4-13.06c.07-1.4 0-2.34-.22-2.8-.7-1.55-.45-1.73.76-.55 3.32 3.23 5.58 7.69 6.78 13.35.05.22.13.23.24.04 1.2-2.14 1.7-4.2 1.5-6.17a5.22 5.22 0 0 0-3.67-4.68c-.22-.08-.26-.22-.1-.4.1-.11.25-.16.44-.14 1.66.19 3.1.6 4.3 1.26a5.43 5.43 0 0 1 2.96 4.35 8.8 8.8 0 0 1-1.12 5.35 24.23 24.23 0 0 1-8.07 8.61c-3.39 2.26-7 3.73-10.86 4.41-1.9.34-3.7.33-5.4-.02-2.06-.43-3.56-1.31-4.47-2.65a6.22 6.22 0 0 1-.97-4.34c.16-1.46.67-2.9 1.52-4.34a24.87 24.87 0 0 1 9.55-9.02c.66-.27.7-.17.12.3-4.45 3.66-6.99 7.43-7.62 11.3-.96 5.83 2.94 7.2 6.63 7.2Zm6.65-2.23a25.36 25.36 0 0 0 6.05-4.98c.78-.9.77-1.77-.03-2.6l-.23-.23c-1-1.03-1.91-.96-2.76.2l-5.92 8.27c-.58.82-.43 1.02.47.6 1.07-.5 1.87-.92 2.42-1.26Z" fill="#03A"/></svg>