<!-- by TradingView --><svg width="56" height="56" viewBox="0 0 56 56" xmlns="http://www.w3.org/2000/svg"><path fill="#F0F3FA" d="M0 0h56v56H0z"/><path fill-rule="evenodd" d="M23.95 17.29c-.05 0-.1-.06-.08-.12.1-.49.27-1.23.5-2.22.08-.3.11-.65.14-.95l.03-.32a.2.2 0 0 1 .06-.11.18.18 0 0 1 .1-.05c.44-.05.78-.12 1.02-.21.26-.1.26-.19-.01-.26a5.03 5.03 0 0 0-.6-.13c-.54-.08-.97-.69-1.3-1.16l-.25-.32c-.71-.9-1.17-.23-1.6.42l-.15.21c-.34.5-.65.62-1.17.84l-.26.1c-.4.18-.4.33.03.46.09.03.3.03.65.02.16 0 .3.13.29.3-.02.77.1 1.55.35 2.33l.32 1.01c.03.08-.03.16-.11.16h-2.17c-.47 0-.8-.74-1.02-1.06-.18-.27-.1-.52-.01-.77.06-.16.11-.32.1-.49a.1.1 0 0 0-.1-.1c-.52-.03-.94.1-1.26.42a.28.28 0 0 0-.07.11l-.2.6c-.02.07-.06.1-.12.1l-.15-.01c-.63-.02-1.27-.05-1.82.08-1.2.3-2.24.93-3.1 1.89a3.83 3.83 0 0 0-.98 1.99c-.06.34-.06.86 0 1.55.1 1.04.16 2.09.02 3.27-.08.69-.39 1.2-.92 1.55-.12.08-.14.22-.07.43.01.04.06.08.1.08.57.02 1.07-.06 1.5-.25a.3.3 0 0 1 .33.07 5.77 5.77 0 0 0 2.35 1.48c.66.22 1.62.29 2.26-.1.1-.06.29-.25.58-.56.06-.08.13.13.09.19l-.95 1.47c-.38.6-.88 1.04-1.5 1.3-.23.09-.51.2-.86.3a.2.2 0 0 0-.13.16.2.2 0 0 0 .07.18c.5.43 1.17.42 1.8.37.04 0 .08.05.07.1-.34 1.83-.2 3.65.23 5.49.02.1-.07.18-.16.16-.61-.17-1.05.01-1.33.55l-.06.11c-.08.13-.17.29-.2.46 0 .08.05.16.13.16l.07-.02c.71-.46 1.35-.2 1.96.28l1.32 1.07c.35.29.74.53 1.18.7.28.12.57.18.86.19.54 0 .93-.19 1.4-.44.33-.17.68-.23 1.04-.18a.1.1 0 0 1 .07.05c.02.02.02.05.02.08l-.52 3.7v.06c.02.04.05.07.09.07h.06c.96-.3 1.87-1.4 2.39-2.28a20.47 20.47 0 0 0 .88-1.66.13.13 0 0 1 .07-.02h1.17c.06 0 .09.03.09.1-.02.91.06 2 .23 3.28 0 .06 0 .12-.04.16a.22.22 0 0 1-.14.1c-.53.07-.9.39-1.14.95-.01.02-.02.04-.01.06 0 .07.06.12.13.12.28-.01.54.01.77.08.95.26 1.46.9 1.53 1.89 0 .02.01.04.03.05.02.03.07.04.13.04.05 0 .1-.01.13-.04a.1.1 0 0 0 .03-.05c.07-1 .58-1.63 1.53-1.9.23-.06.49-.08.77-.07.07 0 .13-.05.13-.12v-.06c-.24-.56-.62-.88-1.15-.96a.22.22 0 0 1-.14-.09.23.23 0 0 1-.04-.16c.17-1.27.25-2.37.23-3.29 0-.06.03-.1.1-.1h1.16c.03 0 .05.02.07.03a20.47 20.47 0 0 0 .88 1.66c.52.88 1.43 1.98 2.4 2.28h.05a.12.12 0 0 0 .09-.13l-.52-3.7c0-.03 0-.06.02-.08a.1.1 0 0 1 .07-.05c.36-.05.7 0 1.04.18.47.25.86.44 1.4.44.3 0 .58-.07.86-.18.44-.18.83-.42 1.18-.71.2-.18.64-.53 1.32-1.07.6-.48 1.25-.74 1.96-.28l.07.02c.08 0 .14-.08.13-.16a1.33 1.33 0 0 0-.2-.46l-.06-.11c-.28-.54-.72-.72-1.33-.55-.09.02-.18-.07-.16-.16.42-1.84.57-3.66.23-5.5 0-.04.03-.09.08-.09.62.05 1.29.06 1.8-.37a.2.2 0 0 0 .06-.18.2.2 0 0 0-.13-.15c-.35-.12-.63-.22-.86-.32a3.23 3.23 0 0 1-1.5-1.3l-.95-1.46c-.04-.06.03-.27.1-.2.28.32.47.51.57.57.64.39 1.6.32 2.26.1.9-.3 1.68-.8 2.35-1.48a.3.3 0 0 1 .32-.07c.44.19.94.27 1.5.25.05 0 .1-.04.11-.08.07-.21.05-.35-.07-.43a2.03 2.03 0 0 1-.92-1.55c-.14-1.18-.08-2.23.01-3.27.07-.69.07-1.2.01-1.55a3.83 3.83 0 0 0-.97-2 6.06 6.06 0 0 0-3.11-1.88c-.55-.13-1.2-.1-1.82-.08h-.15c-.06 0-.1-.02-.12-.08l-.2-.6a.28.28 0 0 0-.07-.12 1.57 1.57 0 0 0-1.26-.41.1.1 0 0 0-.1.1c-.01.16.04.32.1.48.09.25.17.5-.01.77-.21.32-.55 1.06-1.02 1.06H34.1c-.08 0-.14-.08-.1-.16.01-.07.12-.41.31-1 .26-.79.37-1.57.35-2.34 0-.17.13-.3.3-.3.34.01.55 0 .64-.02.43-.13.43-.28.03-.46l-.26-.1c-.52-.22-.83-.34-1.17-.84l-.15-.21c-.43-.65-.89-1.33-1.6-.42-.08.09-.16.2-.24.32-.34.47-.77 1.08-1.31 1.16-.25.04-.45.08-.6.13-.27.07-.27.16-.01.26.24.1.58.16 1.01.2.05 0 .08.03.11.06a.2.2 0 0 1 .06.11l.03.32c.03.3.06.65.14.95.23.99.4 1.73.5 2.22.01.06-.03.12-.08.12h-2.97c-.1 0-.2-.08-.23-.17a5.2 5.2 0 0 1-.07-2.2v-.02c.07-.65-.06-1.43-.18-2.14l-.06-.36c-.06-.44-.3-.66-.54-.66-.24 0-.48.22-.54.66l-.06.36c-.12.71-.25 1.5-.18 2.14v.03a5.2 5.2 0 0 1-.07 2.19.24.24 0 0 1-.23.17h-2.97ZM28 25.94l-.1.8a75.85 75.85 0 0 0-.47 3.24c-.02.15-.01.3.02.45.05.24.15.53.24.84.12.36.24.75.31 1.1.07-.35.19-.74.3-1.1.1-.3.2-.6.25-.84.03-.15.04-.3.02-.45a76 76 0 0 0-.47-3.25l-.1-.8Zm0 11.3c-.06.18-.17.36-.2.54-.05.23-.13.85-.26 1.87-.01.08.02.11.09.11h.74c.07 0 .1-.03.1-.1a60.82 60.82 0 0 0-.26-1.88c-.04-.18-.15-.36-.21-.54Zm-.46 2.94c-.05 0-.08.03-.1.09-.05.53-.08 1.05-.09 1.55 0 .52.17 1.27.3 1.86.08.36.18.55.35.86.17-.3.27-.5.35-.86.13-.6.3-1.34.3-1.86 0-.5-.04-1.02-.1-1.55 0-.06-.04-.09-.09-.09h-.92Zm-4.8-23.41c-.06-.25-.15-.7-.27-1.36-.2-1.04-.34-1.9.03-2.74a.37.37 0 0 1 .45-.2c.5.16.62.84.58 1.31-.05.67-.19 1.55-.4 2.65a.9.9 0 0 1-.15.4.14.14 0 0 1-.14.04.14.14 0 0 1-.1-.1Zm-8.34 6.6c.43.26 1.06-.08 1.24-.53.02-.07-.01-.14-.08-.17l-.18-.05c-.2-.04-.44-.1-.52-.23-.16-.27-.02-.65.27-.79.42-.2.82-.2 1.2-.02.77.39 1.09 1.27 1.17 2.16a4.8 4.8 0 0 1-.37 2.3c-.67 1.63-2.4 1.9-3.56.63l-.63-.76c-.17-.22-.13-.3.13-.23.39.1.72-.01.99-.34.03-.05.04-.1.04-.15-.03-.18-.14-.3-.25-.41-.1-.11-.2-.22-.23-.38a13 13 0 0 1-.02-.87c0-.06-.02-.1-.05-.15a1.4 1.4 0 0 0-.58-.44c-.05-.02-.08-.06-.08-.12v-.15c0-.26 0-.36-.2-.57-.92-.93-.7-2.23.05-3.23a5.38 5.38 0 0 1 2.58-1.9c.38-.13.74-.17 1.08-.13.07.01.13.08.14.16v.08c-.16.44-.3.9-.1 1.26.04.09.13.13.22.12.16-.02.33-.15.48-.27.05-.05.1-.09.16-.12.51-.34 1.22.15 1.7.45v5.19c0 .24 0 .48-.1.69l-.45.83c-.13.23-.17.22-.15-.05.15-1.44-.06-3.2-1.23-4.09-.7-.53-2.07-.58-2.69.22-.4.53-.68 1.62.02 2.05Zm7.04-3.7-1.49-1.84c-.04-.05 0-.13.06-.13h1.93c.1 0 .2.08.2.19 0 .63-.16 1.22-.5 1.76a.13.13 0 0 1-.1.06.12.12 0 0 1-.1-.04Zm5.15 4.64a.21.21 0 0 0-.1-.2l-.16-.08c-.15-.08-.33-.17-.4-.3-.13-.19-.25-.43-.37-.7-.07-.19-.72-1.65-1.93-4.38a.75.75 0 0 1-.06-.43c.02-.15.06-.3.13-.43.02-.06.08-.1.13-.1l2.95.02c.07 0 .1.09.06.14l-.8 1.03a.27.27 0 0 0 .01.34c.3.33.61.43 1.02.32.05-.02.1-.02.16-.02s.08.04.08.1l-.52 7.92a.1.1 0 0 1-.08.08c-.07 0-.12-.06-.14-.12l-.93-2.36c-.07-.2-.01-.33.17-.4l.65-.26c.07-.02.12-.1.13-.17Zm-7.17-1.07v-4.67l1.48 2.33-1.48 2.34Zm6.23 8.45a2.53 2.53 0 0 0-.9-.37c-.14-.01-.25.13-.2.27.42 1.28.64 2.58.67 3.9 0 .52-.08 1.1-.27 1.7-.06.21-.34 1-.85 2.33-.06.16-.12.25-.19.26a.54.54 0 0 1-.27-.01c-.06-.02-.08-.06-.07-.12.19-1.65.26-2.87.23-3.66l-.3-6.35c-.08-1.99.1-3.85.56-5.6.05-.18-.13-.34-.3-.28l-.48.2c-.06.01-.13-.03-.14-.1a2.02 2.02 0 0 0-.08-.4c-.24-.84-.51-1.64-.8-2.42a.48.48 0 0 1 .02-.4l.63-1.12a.13.13 0 0 1 .1-.07c.14 0 .21.24.25.35l.76 2.26c.3.83.46 1.4.5 1.72.07.46-.02 1.24-.15 1.92a5.7 5.7 0 0 0-.09 2.55c.02.09.1.15.19.14.24 0 .5-.04.78-.11.33-.09.53.01.6.3l.1.44c.27 1.06.43 1.72-.01 2.59a.2.2 0 0 1-.29.08Zm-5.55-5.53c.16.16.23.13.23-.1-.02-.64-.02-1.07 0-1.26.04-.39.15-.79.35-1.2l.64-1.32c.08-.15.14-.15.17.03l.83 4.16c.04.2-.16.35-.32.25l-.7-.42c-.17-.1-.4.01-.42.21-.07.47.04.92.33 1.34.1.15.23.31.37.48.28.35.61.76.8 1.22.04.09-.01.2-.1.22l-.66.14a.2.2 0 0 0-.11.32l.11.14c.26.33.45.55.57.92.2.6.33 1.24.37 1.92.07 1.35.13 2.37.18 3.04 0 .1-.07.1-.14.1a.13.13 0 0 1-.13-.14c0-.62-.17-1.11-.5-1.49a3.18 3.18 0 0 0-2.55-1.09l.06-8.14c.15.26.41.46.62.67Zm-1.85 2.35c.16.13.34.22.51.27.1.03.2-.07.2-.18a6.3 6.3 0 0 1 .04-2.06v7.22c-.43.43-.6 1.21-.42 1.87.04.17.16.23.27.3.08.03.1.07.15.14v3.52c-.64-.06-1.06-.3-1.23-.83-.07-.23-.05-.42.06-.58a.8.8 0 0 1 .54-.32.14.14 0 0 0 .09-.23.88.88 0 0 0-.75-.36c-.17 0-.31.1-.48.2l-.13.09a.15.15 0 0 1-.21-.1 9.4 9.4 0 0 1 .14-5.58c.07-.2.2-.27.4-.22h.01c.4.1.75.2.99-.26.18-.36.3-.74.27-1.13a3.15 3.15 0 0 0-.66-1.67c-.04-.16.11-.17.2-.1Zm8.11 11.25h-.88c-.1 0-.13-.05-.1-.15.2-.6.38-1.17.47-1.78.26-1.77.5-3.6.71-5.46 0-.06.07-.08.11-.05a.5.5 0 0 1 .14.28c.19.86.37 1.64.55 2.35.04.18 0 .5-.11.95-.15.59-.3 1.15-.47 1.7a7 7 0 0 0-.22 1.66l-.02.33a.2.2 0 0 1-.05.12.18.18 0 0 1-.13.05Zm-6.94-.15v-3.62c.07-.07.38-.34.39-.45 0-.1-.13-.23-.22-.33a1.38 1.38 0 0 1-.09-.08.24.24 0 0 1 .06-.35c.85-.54 1.61.16 1.93.98.3.77.35 1.46.16 2.1-.3 1.01-1.24 1.56-2.23 1.75Zm2.72.17h-.09c-.12 0-.16-.06-.1-.18l.33-.76c.23-.53.3-.5.22.08l-.13.67a.25.25 0 0 1-.08.14.23.23 0 0 1-.15.05Zm11.12-23.01c.06-.25.15-.7.27-1.36.2-1.04.34-1.9-.03-2.74a.37.37 0 0 0-.45-.2c-.5.16-.62.84-.58 1.31.05.67.19 1.55.4 2.65.04.2.09.33.15.4.04.04.1.06.14.04a.14.14 0 0 0 .1-.1Zm8.34 6.6c-.43.26-1.06-.08-1.24-.53-.02-.07.01-.14.08-.17l.18-.05c.2-.04.44-.1.52-.23.16-.27.02-.65-.27-.79-.42-.2-.82-.2-1.2-.02-.77.39-1.09 1.27-1.17 2.16a4.8 4.8 0 0 0 .37 2.3c.67 1.63 2.4 1.9 3.56.63l.63-.76c.17-.22.13-.3-.13-.23-.39.1-.72-.01-.99-.34a.18.18 0 0 1-.04-.15c.03-.18.14-.3.25-.41.1-.11.2-.22.23-.38 0-.08.02-.37.02-.87 0-.06.02-.1.05-.15.13-.18.32-.33.58-.44.05-.02.08-.06.08-.12v-.15c0-.26 0-.36.2-.57.92-.93.7-2.23-.05-3.23a5.38 5.38 0 0 0-2.58-1.9 2.26 2.26 0 0 0-1.08-.13.17.17 0 0 0-.14.16v.08c.16.44.3.9.1 1.26a.22.22 0 0 1-.22.12 1.2 1.2 0 0 1-.48-.27 2.9 2.9 0 0 0-.16-.12c-.51-.34-1.22.15-1.7.45v5.19c0 .24 0 .48.1.69l.45.83c.13.23.17.22.15-.05-.15-1.44.06-3.2 1.23-4.09.7-.53 2.07-.58 2.69.22.4.53.68 1.62-.02 2.05Zm-7.04-3.7 1.49-1.84c.04-.05 0-.13-.06-.13h-1.93a.2.2 0 0 0-.2.19c0 .63.16 1.22.5 1.76.02.04.06.06.1.06.04 0 .08-.01.1-.04Zm-5.15 4.64c0-.08.04-.16.1-.2l.16-.08c.15-.08.33-.17.4-.3.13-.19.25-.43.37-.7.07-.19.72-1.65 1.93-4.38.06-.15.09-.3.06-.43-.02-.15-.06-.3-.13-.43a.16.16 0 0 0-.13-.1l-2.95.02c-.07 0-.1.09-.06.14l.8 1.03a.27.27 0 0 1-.01.34c-.3.33-.61.43-1.02.32a.46.46 0 0 0-.16-.02c-.06 0-.08.04-.08.1l.52 7.92c0 .04.04.08.08.08.07 0 .12-.06.14-.12l.93-2.36c.07-.2.01-.33-.17-.4l-.65-.26a.21.21 0 0 1-.13-.17Zm7.17-1.07v-4.67L35.1 20.9l1.48 2.34Zm-6.23 8.45c.36-.21.66-.34.9-.37.14-.01.25.13.2.27a13.25 13.25 0 0 0-.67 3.9c0 .52.08 1.1.27 1.7.06.21.34 1 .85 2.33.06.16.12.25.19.26.1.02.19.02.27-.01.06-.02.08-.06.07-.12-.19-1.65-.26-2.87-.23-3.66l.3-6.35c.08-1.99-.1-3.85-.56-5.6-.05-.18.13-.34.3-.28l.48.2c.06.01.13-.03.14-.1 0-.13.03-.27.08-.4.24-.84.51-1.64.8-2.42a.48.48 0 0 0-.02-.4l-.63-1.12a.13.13 0 0 0-.1-.07c-.14 0-.21.24-.25.35l-.76 2.26c-.3.83-.46 1.4-.5 1.72-.07.46.02 1.24.15 1.92.17.84.31 1.76.09 2.55a.2.2 0 0 1-.19.14c-.24 0-.5-.04-.78-.11-.33-.09-.53.01-.6.3l-.1.44c-.27 1.06-.43 1.72.01 2.59.06.1.19.14.29.08Zm5.55-5.53c-.16.16-.23.13-.23-.1.02-.64.02-1.07 0-1.26a3.57 3.57 0 0 0-.35-1.2l-.64-1.32c-.08-.15-.14-.15-.17.03l-.83 4.16c-.04.2.16.35.32.25l.7-.42c.17-.1.4.01.42.21.07.47-.04.92-.33 1.34-.1.15-.23.31-.37.48-.28.35-.61.76-.8 1.22-.04.09.01.2.1.22l.66.14a.2.2 0 0 1 .11.32l-.11.14c-.26.33-.45.55-.57.92-.2.6-.33 1.24-.37 1.92-.07 1.35-.13 2.37-.18 3.04 0 .1.07.1.14.1s.13-.06.13-.14c0-.62.17-1.11.5-1.49a3.18 3.18 0 0 1 2.55-1.09V25.5c-.15.26-.47.46-.68.67Zm1.85 2.35c-.16.13-.34.22-.51.27-.1.03-.2-.07-.2-.18a6.3 6.3 0 0 0-.04-2.06v7.22c.43.43.6 1.21.42 1.87-.04.17-.16.23-.27.3-.08.03-.1.07-.15.14v3.52c.64-.06 1.06-.3 1.23-.83.07-.23.05-.42-.06-.58a.8.8 0 0 0-.54-.32.14.14 0 0 1-.09-.23c.2-.25.45-.37.75-.36.17 0 .31.1.48.2l.13.09c.08.04.19 0 .21-.1a9.4 9.4 0 0 0-.14-5.58c-.07-.2-.2-.27-.4-.22h-.01c-.4.1-.75.2-.99-.26a2.07 2.07 0 0 1-.27-1.13 3.15 3.15 0 0 1 .66-1.67c.04-.16-.11-.17-.2-.1Zm-8.11 11.25h.88c.1 0 .13-.05.1-.15-.2-.6-.38-1.17-.47-1.78-.26-1.77-.5-3.6-.71-5.46 0-.06-.07-.08-.11-.05a.5.5 0 0 0-.14.28c-.19.86-.37 1.64-.55 2.35-.04.18 0 .5.11.95.15.59.3 1.15.47 1.7a7 7 0 0 1 .22 1.66l.02.33c0 .04.02.09.05.12.04.04.08.05.13.05Zm6.94-.15v-3.62c-.07-.07-.38-.34-.39-.45 0-.1.13-.23.22-.33l.09-.08a.24.24 0 0 0-.06-.35c-.85-.54-1.61.16-1.93.98a3.2 3.2 0 0 0-.16 2.1c.3 1.01 1.24 1.56 2.23 1.75Zm-2.72.17h.09c.12 0 .16-.06.1-.18l-.33-.76c-.23-.53-.3-.5-.22.08l.13.67c.01.05.04.1.08.14.05.03.1.05.15.05Z" fill="#003C28"/></svg>