<!-- by TradingView --><svg width="56" height="56" viewBox="0 0 56 56" xmlns="http://www.w3.org/2000/svg"><path fill="#F0F3FA" d="M0 0h56v56H0z"/><path d="m34.33 11 .74 2.38c.06.17.16.3.32.39 5.37 3 8.23 7.58 8.59 13.7.2 3.35-.77 6.62-2.9 9.82a.46.46 0 0 0-.01.51c.67 1.28.98 2.54.9 3.77-.02.3-.1.37-.25.2l-2.61-3.01c-.24-.28-.38-.26-.41.04-.33 2.44-1.75 3.68-4.24 3.74-.2 0-.28.1-.27.3.03.46 0 .85-.12 1.16h-.09c-1.02-.6-2.53-.6-4.52 0h-2.62a16.34 16.34 0 0 1-12.36-7.8c-.1-.17-.22-.2-.37-.08-.66.53-1.25 1.09-1.77 1.68-.73.83-1.51 1-2.34.5v-.92c.65-1.52 1.33-3.02 2.04-4.5.35-.72.5-1.46.44-2.2-.07-.9-.1-1.42-.12-1.54-.1-.8-.13-1.33-.11-1.57.58-6.88 3.88-11.65 9.9-14.3 3.33-1.47 6.9-1.64 10.74-.5.17.06.3 0 .36-.17l.65-1.6h.43Zm-5.04 11.87.75-.42c1.53-.84 2.52-1.54 2.97-2.1 1.54-1.9 1.92-4.2 1.17-6.91-.07-.24-.16-.25-.26-.02-1.56 3.26-4 5.89-7.35 7.88-.55.33-1.07.47-1.53.4-2.45-.29-4 .5-4.65 2.38l-.1.3c-.23.7-.56 1.2-.99 1.46a17.04 17.04 0 0 0-6.67 7.66 83.04 83.04 0 0 1-1.98 4.12c-.07.12-.03.18.1.18h.37c.12 0 .22-.05.3-.15a18.1 18.1 0 0 1 9.77-6c.19-.04.34 0 .46.15 1.94 2.33 3.14 3.66 3.62 3.99 2.9 2 5.5 4.3 7.83 6.92.09.1.17.1.25 0l.1-.1c.02 0 .02-.02.01-.04a15.63 15.63 0 0 1-2.48-4c-.21-.49-.48-.82-.8-1a3.59 3.59 0 0 0-1.2-.31 1.2 1.2 0 0 1-.52-.19c-2.19-1.42-4-3.29-5.46-5.58-.1-.15-.05-.24.12-.25 6.83-.52 12.64 2.19 17.44 8.12.43.54.52.5.25-.15a77.1 77.1 0 0 0-3.9-8.24 20.18 20.18 0 0 0-7.62-7.82c-.16-.1-.16-.19 0-.28Zm-8.2-1.15a4.7 4.7 0 0 1 3.54-.85c.78.14 1.5-.05 2.14-.57l3.35-2.7c.62-.5.54-.79-.25-.87-3.28-.34-6.05.32-8.3 1.98-2.25 1.65-3.75 4.11-4.49 7.38-.06.28.02.34.26.17l1.81-1.34a.73.73 0 0 0 .3-.45c.25-1.27.8-2.18 1.63-2.75Zm12.67-.69c.03-.14-.02-.17-.14-.09l-2.7 2c-.15.11-.14.22.01.33a21.87 21.87 0 0 1 4.77 4.51c.13.17.22.15.24-.07l.2-1.6c.03-.2-.04-.33-.2-.41-1.86-.94-2.58-2.5-2.18-4.67Zm-2.6 16.31c.1.1.18.08.23-.04a3.9 3.9 0 0 1 2.77-2.38c.29-.07.3-.18.05-.34a17.85 17.85 0 0 0-9.48-2.61c-.46 0-.53.17-.2.5l3.89 3.9c.18.19.4.27.65.25.82-.04 1.52.2 2.1.72Zm-2.8 1.82c-.55-.52-1.27-1.1-2.16-1.72a23.54 23.54 0 0 1-4.98-4.94c-.06-.08-.14-.1-.24-.06l-2.67 1.02c-.06.03-.08.07-.04.12a11.45 11.45 0 0 0 9.96 5.87c.29 0 .33-.09.12-.29Z" fill="#E4D194"/><path d="M30.77 16.1a12.15 12.15 0 0 0-7.22.68c-4.37 1.92-6.84 5.34-7.42 10.24a.74.74 0 0 1-.22.44l-2.43 2.44c-.15.16-.24.13-.27-.08-.43-3.47.27-6.7 2.11-9.7 1.8-2.96 4.3-5.05 7.47-6.28a14.62 14.62 0 0 1 9.73-.36c.28.09.34.26.17.5l-1.3 1.86a.58.58 0 0 1-.62.26Z" fill="#006340"/><path d="M29.29 22.87c-.16.1-.16.19 0 .28a20.18 20.18 0 0 1 7.62 7.82 77.13 77.13 0 0 1 3.9 8.24c.27.64.18.7-.25.15-4.8-5.93-10.61-8.64-17.44-8.12-.17.01-.21.1-.12.25a18.07 18.07 0 0 0 5.46 5.58c.16.1.33.17.52.19.57.07.97.18 1.2.3.32.19.59.52.8 1.01a15.63 15.63 0 0 0 2.48 4v.05l-.1.1c-.09.08-.17.08-.25 0a43.39 43.39 0 0 0-7.84-6.93c-.48-.33-1.68-1.66-3.62-3.99a.42.42 0 0 0-.46-.15 18.1 18.1 0 0 0-9.76 6 .38.38 0 0 1-.31.15h-.37c-.13 0-.17-.06-.1-.18a83.04 83.04 0 0 0 1.98-4.12 17.04 17.04 0 0 1 6.67-7.66c.43-.26.76-.75 1-1.46l.1-.3c.64-1.88 2.2-2.67 4.64-2.37.47.06.98-.08 1.53-.41a18.15 18.15 0 0 0 7.35-7.88c.1-.23.2-.22.26.02.76 2.71.37 5.01-1.17 6.9-.45.57-1.44 1.27-2.97 2.11l-.75.42Zm6.6 10.03a26.68 26.68 0 0 0-6.87-8.54c-.7-.6-1.34-.85-1.89-.75-1.83.33-3.75.98-5.77 1.93a.42.42 0 0 0-.26.43c.07 1.48.37 2.76.91 3.85.11.22.3.33.54.32 3.27-.15 6.3.27 9.07 1.24.33.12 1.71.67 4.13 1.66.17.07.22.02.14-.14Z" fill="#006340"/><path d="M37.06 25.27c-1.31-.34-2.14-1.05-2.48-2.14-.5-1.57.03-2.83 1.62-3.77.16-.1.19-.22.06-.37a1.7 1.7 0 0 0-.58-.41.88.88 0 0 1-.53-.85v-2.64c0-.42.17-.52.53-.29a17.1 17.1 0 0 1 3.9 3.26c3.81 4.75 4.65 10.02 2.52 15.84a9.37 9.37 0 0 1-1.6 2.78.25.25 0 0 1-.23.1.23.23 0 0 1-.2-.17L39 33.8a.57.57 0 0 1 0-.43l.9-2.3c.08-.2.02-.33-.18-.39l-.52-.15a3.21 3.21 0 0 1-1.5-.76c-1.08-1.2-1.23-2.57-.47-4.13.09-.19.03-.3-.17-.36Z" fill="#006340"/><path d="m36.75 20.93-.33-.56c-.1-.19-.07-.33.12-.44l.27-.16c.23-.13.38-.07.44.2.1.4.07.73-.1.98-.15.2-.28.2-.4-.02ZM38.23 21.18c-.18.1-.27.05-.29-.16l-.05-.79c-.01-.23.1-.35.33-.37.1 0 .25.05.44.16.14.07.21.17.23.3.04.3-.18.59-.66.86ZM36.44 21.4c.07.13.03.2-.11.2h-.99c-.27 0-.33-.11-.17-.34l.4-.58c.17-.23.32-.23.47.02l.4.7ZM39.76 21.4c.05.1.07.18.07.27 0 .2-.09.33-.28.39-.56.15-.89.15-.98-.02-.09-.17.1-.44.54-.82.15-.13.3-.14.47-.02.07.05.13.11.18.2ZM36.32 22.61c-.3.4-.57.61-.84.62-.2 0-.32-.1-.38-.29-.13-.45-.02-.69.32-.7.2-.02.47.01.8.1.17.03.2.13.1.27ZM21.3 24.64c-.03.02-.06.01-.09-.03l-.01-.01c-.23-.37.13-.86 1.08-1.48l.1-.07c.96-.62 1.56-.75 1.79-.39l.01.02c.03.04.02.07-.02.1l-2.86 1.86ZM39.56 22.84c.1.05.14.14.12.25a1.1 1.1 0 0 1-.24.57c-.16.2-.31.2-.46-.01l-.33-.45a.31.31 0 0 1-.04-.32.31.31 0 0 1 .26-.2c.2-.03.43.03.69.16ZM36.64 23.38a.2.2 0 0 1 .2.08c.19.24.15.46-.11.68-.28.24-.51.24-.69.01-.15-.2-.13-.37.05-.54.12-.1.3-.18.55-.23ZM37.73 24.46a1 1 0 0 1-.25-.6c0-.26.11-.37.36-.32.15.02.3.1.47.22.14.1.2.25.16.42-.03.15-.2.26-.51.35a.2.2 0 0 1-.23-.07ZM29.01 24.36a26.68 26.68 0 0 1 6.88 8.54c.08.16.03.2-.14.14-2.42-.99-3.8-1.54-4.13-1.66a23.95 23.95 0 0 0-9.07-1.24.53.53 0 0 1-.54-.32 9.69 9.69 0 0 1-.91-3.85c0-.2.08-.34.26-.43 2.02-.95 3.94-1.6 5.77-1.93.55-.1 1.18.15 1.88.75Zm-7.05 1.77c-.06.02-.08.07-.08.13.04.95.25 1.9.64 2.84.07.18.2.27.4.26 3.68-.18 7.4.54 11.18 2.17.17.07.2.03.1-.12a25.98 25.98 0 0 0-6.28-6.92.68.68 0 0 0-.55-.13 19.7 19.7 0 0 0-5.41 1.77ZM40.28 25.36c.18-.08.4-.1.65-.04.1.03.18.09.23.18l.2.35c.05.07.04.15-.02.22a.18.18 0 0 1-.2.06c-.42-.13-.67-.06-.75.2-.03.11-.1.16-.21.13a.35.35 0 0 1-.17-.08c-.07-.06-.07-.12 0-.17l.25-.18c.19-.14.19-.28 0-.41l-.16-.11c-.13-.1-.22-.06-.27.08-.13.35-.3.54-.53.57-.17.03-.29-.04-.35-.21l-.2-.5c-.08-.23 0-.35.22-.36.29-.02.57.06.85.24.15.1.3.11.46.03ZM38.82 26.87c-.12.2-.45.21-1 .01-.18-.06-.25-.2-.2-.39a1 1 0 0 1 .26-.46c.13-.14.28-.14.44-.01.45.37.61.65.5.85ZM41.1 26.72l.64-.25c.2-.07.32 0 .37.2a.7.7 0 0 1-.09.53c-.1.19-.24.23-.43.14l-.51-.24c-.08-.04-.12-.1-.12-.2a.2.2 0 0 1 .13-.18ZM20.65 29.69c.02.03.06.12.11.28.09.22.01.35-.22.38l-3.6.5c-.1 0-.14-.03-.1-.13a10.8 10.8 0 0 1 2.84-4.09.2.2 0 0 1 .23-.03c.08.03.13.09.14.18.16 1.5.37 2.47.6 2.9ZM38.44 27.67c.19.11.21.25.08.41-.12.14-.27.26-.46.35a.42.42 0 0 1-.5-.05.42.42 0 0 1-.14-.48c.13-.45.47-.53 1.02-.23ZM41.04 27.99c.39-.12.62-.15.69-.12.21.1.3.26.25.48-.05.27-.14.45-.28.54-.19.1-.35.08-.48-.1l-.3-.43c-.14-.19-.1-.31.12-.37ZM39.35 28.62v.79c0 .2-.1.29-.3.27-.28-.03-.5-.13-.69-.3-.15-.16-.14-.3.04-.43l.65-.48a.18.18 0 0 1 .2-.02c.06.03.1.09.1.17ZM39.99 29.67c-.04-.45.03-.76.2-.93.17-.15.32-.14.44.06.19.3.24.56.16.79-.07.19-.2.28-.4.28h-.2c-.12 0-.2-.06-.2-.2Z" fill="#E4D194"/><path d="m29.91 40.56 1.99 1.83c.17.3.12.46-.15.5-7.19 1.21-12.74-1.19-16.67-7.2-.11-.18-.08-.33.11-.44l2.06-1.2c.19-.1.34-.07.45.12 2.62 4.14 6.35 6.14 11.19 6 .39 0 .73.12 1.02.39ZM37.93 38.7c0 .85-.3 1.57-.9 2.16-.58.6-1.3.9-2.13.9a2.9 2.9 0 0 1-2.14-.9c-.6-.6-.9-1.31-.9-2.15 0-.84.3-1.56.9-2.16.59-.6 1.3-.9 2.14-.9.84 0 1.55.3 2.14.9.6.6.89 1.32.89 2.16Z" fill="#006340"/><path d="m35.44 36.9-.13-.18c-.08-.11-.05-.2.1-.26.18-.07.46.02.84.27a.3.3 0 0 1 .14.31.3.3 0 0 1-.21.27c-.7.24-1.35.25-1.95.03-.32-.11-.42-.33-.3-.66.13-.32.41-.43.86-.31.2.05.24.16.11.33-.1.13-.12.29-.05.47.05.14.16.2.3.19a1 1 0 0 0 .15-.03c.24-.09.29-.23.14-.44ZM33.46 38.3l-.36-.15c-.22-.08-.31-.24-.3-.47a.68.68 0 0 1 .22-.46c.15-.15.3-.15.46 0 .32.33.44.63.36.88-.06.2-.19.27-.38.2ZM36.62 37.75a.7.7 0 0 1 .2-.11c.17-.06.26 0 .27.17.02.28 0 .5-.05.68-.03.1-.1.16-.2.18-.08.03-.17 0-.24-.07l-.37-.38c-.17-.17-.14-.3.07-.39.1-.04.21-.07.32-.08ZM33.07 39.59c.31.04.6-.1.63-.33.03-.23-.2-.46-.5-.5-.32-.05-.6.1-.64.33-.03.23.2.45.51.5ZM35.89 39.35c-.06-.1-.03-.16.09-.18.33-.05.57-.05.7 0 .2.06.3.18.3.38.02.25-.08.44-.28.56-.19.1-.34.07-.45-.12l-.36-.64ZM35.54 39.79l.29.75c.08.22.01.37-.2.46l-.23.09c-.2.07-.32 0-.34-.22-.03-.4.04-.78.23-1.1.1-.17.18-.16.25.02ZM33.86 39.88c.08-.1.15-.17.21-.21a.2.2 0 0 1 .22 0c.07.03.11.1.11.18v.77c0 .2-.1.28-.28.27a1 1 0 0 1-.62-.3c-.17-.17-.16-.33.03-.48l.31-.23h.02Z" fill="#E4D194"/></svg>