<!-- by TradingView --><svg width="56" height="56" viewBox="0 0 56 56" xmlns="http://www.w3.org/2000/svg"><path fill="#F0F3FA" d="M0 0h56v56H0z"/><path d="M42.49 31.08a15.93 15.93 0 0 0-30.38-1.26 15.96 15.96 0 0 1 11.71-17.14c1.42-.38 2.85-.69 4.25-.68a16.07 16.07 0 0 1 14.87 21.5 16.1 16.1 0 0 0-.45-2.42Z" fill="url(#admtohsi0)"/><path d="M22.93 14.04a15.98 15.98 0 0 0 .5 22.56 15.9 15.9 0 0 0 14.18 4.12 15.91 15.91 0 0 1-20.7-1.15 15.98 15.98 0 0 1 7.85-27.17c-.64.5-1.25 1.04-1.83 1.64Z" fill="url(#bdmtohsi0)"/><path d="M21.43 41.26c8.8 0 15.93-7.15 15.93-15.96 0-5.43-2.7-10.23-6.85-13.11a15.95 15.95 0 1 1-11.53 28.88c.8.13 1.62.19 2.45.19Z" fill="url(#cdmtohsi0)"/><path d="M18.9 21.55a15.98 15.98 0 0 0-6.8 8.3 15.96 15.96 0 0 1 12.56-17.36 16.04 16.04 0 0 0-5.76 9.06Z" fill="url(#ddmtohsi0)"/><defs><linearGradient id="admtohsi0" x1="13.46" y1="18.65" x2="41.99" y2="20.11" gradientUnits="userSpaceOnUse"><stop stop-color="#FBD267"/><stop offset="1" stop-color="#FFF8A6"/></linearGradient><linearGradient id="bdmtohsi0" x1="16.12" y1="16.66" x2="29.43" y2="43.24" gradientUnits="userSpaceOnUse"><stop stop-color="#D0D2B9"/><stop offset=".4" stop-color="#65B6E2"/><stop offset="1" stop-color="#205496"/></linearGradient><linearGradient id="cdmtohsi0" x1="31.49" y1="12.19" x2="31.49" y2="43.92" gradientUnits="userSpaceOnUse"><stop stop-color="#ACCB59"/><stop offset=".49" stop-color="#BCD483"/><stop offset="1" stop-color="#DBE8BD"/></linearGradient><linearGradient id="ddmtohsi0" x1="20.5" y1="14.5" x2="13.01" y2="24.01" gradientUnits="userSpaceOnUse"><stop stop-color="#E6D096"/><stop offset=".53" stop-color="#DAD3B3"/><stop offset="1" stop-color="#B5CFCC"/></linearGradient></defs></svg>