<!-- by TradingView --><svg width="56" height="56" viewBox="0 0 56 56" xmlns="http://www.w3.org/2000/svg"><path fill="#F0F3FA" d="M0 0h56v56H0z"/><path d="M17.35 21c.03 0 .06 0 .1.03a.2.2 0 0 1 .06.07c2.01 3.43 4.08 7.09 6.2 11a1.38 1.38 0 0 0 .24.32h.02l.01-.02V21.08l.03-.06a.07.07 0 0 1 .05-.02h1.81c.04 0 .07.01.1.04.02.03.03.06.03.1v13.71c0 .04-.01.08-.04.1a.13.13 0 0 1-.1.05h-2.2c-.02 0-.05 0-.07-.02a.16.16 0 0 1-.05-.06l-6.42-11.17a.15.15 0 0 0-.06-.06.14.14 0 0 0-.09-.02l-.04.01a.1.1 0 0 0-.04.02.1.1 0 0 0-.03.09l.01.04c.14.24.2.53.2.87-.07 2.63-.09 5.25-.07 7.87a84.04 84.04 0 0 1-.08 2.4.06.06 0 0 1-.04.03h-1.83l-.04-.02a.06.06 0 0 1-.01-.04v-13.8c0-.03.02-.07.04-.1a.14.14 0 0 1 .1-.04h2.2Zm27.36 0c2.89 0 4.56 1 5.01 3a5 5 0 0 1-.06 2.42c-.36 1.38-1.4 2.2-3.08 2.48l-.03.01-.02.03v.08L50 34.97V35h-.01l-.01.01h-2.03l-.04-.01a.1.1 0 0 1-.03-.04l-3.37-5.78a.28.28 0 0 0-.1-.1.25.25 0 0 0-.13-.04h-2.33c-.01 0-.02 0-.03.02l-.01.03v5.79c0 .03-.02.07-.04.1a.11.11 0 0 1-.08.03h-1.63a.15.15 0 0 1-.1-.05.18.18 0 0 1-.05-.12v-7.32c0-.03.01-.06.03-.08a.1.1 0 0 1 .08-.04c2.5.02 4.21.01 5.16 0 .38-.02.85-.1 1.43-.28.79-.24 1.23-.8 1.33-1.68.18-1.7-.78-2.55-2.9-2.58a484.91 484.91 0 0 0-5.12-.02.09.09 0 0 1-.02-.05V21.1c0-.02 0-.04.02-.05a314.59 314.59 0 0 1 4.69-.05Zm-9.08 0c.37.02.65.02.84.02.03 0 .07.01.09.04.02.02.03.06.03.1v1.57c0 .03 0 .07-.03.09a.12.12 0 0 1-.08.04c-.26 0-.64 0-1.16-.02-1.22-.03-2.11.01-2.68.12-.94.19-1.72.6-2.35 1.25a5.27 5.27 0 0 0-1.51 4.53 4.84 4.84 0 0 0 2.63 3.87c.86.45 1.86.6 3 .42a3.2 3.2 0 0 0 2.12-1.29.64.64 0 0 0 .13-.39v-2.24a.14.14 0 0 0-.04-.09c-.02-.02-.05-.02-.08-.02h-3.43c-.03 0-.06-.03-.08-.05a.12.12 0 0 1-.03-.09v-1.35c0-.03 0-.06.03-.08.02-.02.04-.05.07-.05h5.34l.04.03.02.05V32a.5.5 0 0 1-.1.3 6.65 6.65 0 0 1-2.54 2.17 5.9 5.9 0 0 1-6.05-.7c-1.94-1.37-2.87-3.34-2.8-5.9.06-2.56 1.07-4.48 3.04-5.78a6.44 6.44 0 0 1 2.68-.99 20 20 0 0 1 2.9-.1Zm-22.16.02a33.22 33.22 0 0 0 .66.03l.01.02v1.87l-.02.03-.03.02h-1.57a4.32 4.32 0 0 0-3.32 1.43A5.04 5.04 0 0 0 7.82 28c0 1.41.45 2.6 1.36 3.58.9.98 2.01 1.46 3.31 1.45a54.38 54.38 0 0 1 1.6.03l.02.04v1.84l-.02.04a9.95 9.95 0 0 1-2.71-.1c-2.8-.62-4.54-2.46-5.25-5.52A6.08 6.08 0 0 1 6 28c0-.55.05-1 .14-1.37.72-3.05 2.48-4.88 5.27-5.48.44-.1 1.13-.13 2.06-.12Z" fill="#BA2E31"/></svg>