<!-- by TradingView --><svg width="56" height="56" viewBox="0 0 56 56" xmlns="http://www.w3.org/2000/svg"><path fill="url(#a)" d="M0 0h56v56H0z"/><path d="m7.98 25.34.2-.09a3.22 3.22 0 0 1 1.9-.22 3.6 3.6 0 0 1 2.85 2.88c.05.23.07.6.07 1.08v3.73c0 .3-.03.51-.07.64a.97.97 0 0 1-.44.5c-.8.47-1.49-.32-1.49-1.06v-3.82c0-1.04-.56-2.16-1.79-1.92C8.3 27.25 8 28.1 8 28.93v3.73c0 .5-.12 1-.64 1.24a.92.92 0 0 1-.56.06.98.98 0 0 1-.76-.7c-.03-.1-.04-.26-.04-.48v-9.75c0-.18.05-.36.15-.54a.94.94 0 0 1 1.22-.4c.34.15.63.52.63.9v2.33c0 .01-.04.02-.02.02Z" fill="#ED0677"/><path d="M38 25c.65 0 1.26.09 1.86.3A3.17 3.17 0 0 1 42 28.6v1.83c0 .42-.02.73-.05.91a3.17 3.17 0 0 1-2.1 2.37c-.59.22-1.2.3-1.85.3-.65 0-1.26-.09-1.86-.3A3.17 3.17 0 0 1 34 30.42v-1.84c0-.42.02-.73.05-.91a3.17 3.17 0 0 1 2.1-2.37c.59-.22 1.2-.3 1.85-.3Zm-2 5.7c0 .38.16.7.37.99.37.5 1.04.65 1.63.65.58 0 1.25-.16 1.62-.65.21-.28.39-.61.38-.99v-2.39c0-.37-.17-.7-.38-.98-.37-.5-1.04-.66-1.62-.66-.59 0-1.26.16-1.63.65a1.6 1.6 0 0 0-.37 1v2.38Z" fill="#fff"/><path d="M20 26.07h.01a3.42 3.42 0 0 1 2.2-1.06 3.55 3.55 0 0 1 3.74 3.07c.04.2.05.58.05 1.13v3.47c0 .27-.02.46-.04.56-.16.57-.76.9-1.3.7-.58-.19-.66-.65-.66-1.18v-3.75c0-.4-.07-.67-.12-.83-.2-.58-.7-1-1.3-1.04-.67-.04-1.28.41-1.49 1.07-.05.16-.09.44-.09.85v3.97c0 .22-.08.44-.26.64A.94.94 0 0 1 20 34c-.3 0-.55-.1-.74-.33a.94.94 0 0 1-.26-.64v-3.97c0-.4-.04-.69-.1-.85a1.48 1.48 0 0 0-1.48-1.07c-.6.04-1.1.45-1.3 1.04-.05.15-.12.43-.12.83v3.75c0 .25.02.44-.02.56-.13.31-.34.52-.65.63a1.02 1.02 0 0 1-1.29-.71c-.03-.1-.04-.3-.04-.57v-3.46c0-.55.02-.93.05-1.14a3.55 3.55 0 0 1 3.75-3.06 3.42 3.42 0 0 1 2.2 1.06ZM30 30.65V34c-.47-.02-.8-.23-.98-.64l-2.94-6.88c-.16-.37-.08-.82.2-1.12a1.07 1.07 0 0 1 1.81.4c.6 1.63 1.24 3.26 1.9 4.89Z" fill="#ED0677"/><path d="M30 34v-3.35c.65-1.59 1.28-3.18 1.87-4.76.1-.26.2-.45.29-.55.4-.45 1.14-.45 1.55 0 .2.23.3.49.29.77 0 .14-.08.38-.23.73l-2.69 6.28c-.12.29-.23.48-.34.58-.19.2-.44.3-.74.3ZM50 29.5v1.14c0 .36-.04.71-.12 1.05a2.69 2.69 0 0 1-1.68 2.03c-.29.1-.59.19-.9.23-.2.03-.51.05-.93.05h-2.41a.97.97 0 0 1-.9-.62 1.39 1.39 0 0 1-.06-.45 13096 13096 0 0 1 0-6.86c0-.21.02-.36.05-.45a.97.97 0 0 1 .9-.61h2.42a4.05 4.05 0 0 1 1.83.28c.9.35 1.46 1.05 1.68 2.02.08.34.12.69.12 1.05v1.14Zm-5 2.48.03.02h1.47c.7-.01 1.35-.3 1.45-1.12l.05-.42v-1.93l-.05-.43c-.1-.82-.74-1.09-1.45-1.1H45v4.98Z" fill="#fff"/><defs><linearGradient id="a" x1="10.42" y1="9.71" x2="68.15" y2="76.02" gradientUnits="userSpaceOnUse"><stop stop-color="#1A1E21"/><stop offset="1" stop-color="#06060A"/></linearGradient></defs></svg>