<!-- by TradingView --><svg width="56" height="56" viewBox="0 0 56 56" xmlns="http://www.w3.org/2000/svg"><path fill="#F0F3FA" d="M0 0h56v56H0z"/><path d="M10.1 26.62c1.11-7.35 7.67-12.99 15.6-12.99 6.3 0 11.74 3.22 14.26 8.37h-4.2c-1.46-3.98-5.42-6.49-10.09-6.49-5.9 0-10.69 4.58-10.69 10.22 0 5.64 4.79 10.22 10.7 10.22A10.8 10.8 0 0 0 35.34 30h6.05a15.3 15.3 0 0 1-.5 2.84h-.4c-6.3 0-9.2 5.52-16.6 5.52-6.06 0-13.37-4.71-13.8-11.74Z" fill="#005CA5"/><path d="M40.28 34.57c-.36.85-.8 1.66-1.3 2.42-5.54.33-7.98 3.96-14.66 3.96-6.18 0-13.6-3.87-14.32-11.9 1.82 6.87 8.61 10.05 14.19 10.05 7.45 0 10.12-4.43 16.1-4.53Z" fill="#005CA5"/><path d="M37.69 38.67a15.97 15.97 0 0 1-12 5.33 15.78 15.78 0 0 1-14.5-9.27c3.13 4.43 8.72 6.99 13.13 6.99 8.15 0 7.99-2.93 13.37-3.05Z" fill="#005CA5"/><path d="M43.64 24H48l-.3 1h-3.05l-.46 2h3.11l-.22 1h-4.4l.96-4ZM20.35 31l3.86-21h1.42l3.91 18.17.9-4.17h1.84L31 31h-3.2l-2.79-12.51L22.64 31h-2.29Z" fill="#F8192F"/><path d="M15.99 25.83c0-5.2 4.36-9.41 9.73-9.41 4.23 0 7.08 2.14 8.77 5.58h-2.15c-1.16-2.27-3.48-3.82-6.64-3.82a7.75 7.75 0 0 0-7.84 7.67c0 4.24 3.51 7.67 7.84 7.67A7.93 7.93 0 0 0 32.24 30h2.17a9.83 9.83 0 0 1-8.7 5.23c-5.36 0-9.72-4.2-9.72-9.4Z" fill="#F8192F"/><path fill-rule="evenodd" d="M38.31 24h4.62l-.92 4h-4.66l.96-4Zm1 1h2.18L41 27h-2.18l.48-2ZM32.96 24h4.62l-.92 4H32l.96-4Zm.99 1h2.19l-.49 2h-2.18l.48-2Z" fill="#F8192F"/></svg>