<!-- by TradingView --><svg width="56" height="56" viewBox="0 0 56 56" xmlns="http://www.w3.org/2000/svg"><path fill="#F0F3FA" d="M0 0h56v56H0z"/><path fill-rule="evenodd" d="M18.35 30.82c.47.63 1.12 1.56 1.95 2.81.04.07.03.13-.03.17a491.66 491.66 0 0 0-8.03 6.14c-.23.18-.3.45-.19.81.05.18.17.26.34.25a6.4 6.4 0 0 0 1.74-.32c.2-.06.56-.03 1.11.1.41.1.77.13 1.07.1.85-.09 1.66-.26 2.43-.51 1.33-.44 2.67-.96 4.03-1.56a7.04 7.04 0 0 0 2.47-1.9c.16-.19.27-.37.32-.56.12-.44.01-1-.31-1.66a6.67 6.67 0 0 0-.99-1.48.27.27 0 0 1-.06-.26c.02-.1.08-.16.16-.2 1.01-.45 1.82-.86 2.43-1.21A47.84 47.84 0 0 1 40.8 26c.35-.07.7-.13 1.07-.16a28.77 28.77 0 0 1 1.13-.09v-.06c-.01-.03-.02-.04-.05-.04a12.28 12.28 0 0 0-3.35.18 49.18 49.18 0 0 0-10.64 3.54c-1.7.77-3.4 1.6-5.1 2.46-.4.2-.75.14-1.04-.2a19.8 19.8 0 0 1-2.02-2.8c-.92-1.5-1.05-2.95-.4-4.35.45-1 1.42-2.12 2.91-3.38a37.43 37.43 0 0 1 4.95-3.48c1.62-.97 3.3-1.7 5.05-2.2.59-.17 1.25-.22 1.98-.15 1.09.11 2.1.31 3.02.6.45.14.83.17 1.12.09a3.05 3.05 0 0 0 2.26-2.4c.03-.13-.02-.22-.14-.28a3.2 3.2 0 0 0-1.73-.27c-2.25.28-4.36.77-6.35 1.46a46.8 46.8 0 0 0-10.64 5.29 16.94 16.94 0 0 0-5.1 5.18 4.74 4.74 0 0 0-.58 3.57c.13.63.53 1.4 1.2 2.3Zm-1.9 7.54c-.52.4-.94.81-1.26 1.24a.35.35 0 0 0-.04.38c.06.14.17.2.32.21 1.24.03 2.4-.17 3.47-.61.57-.24 1.32-.54 2.25-.9.55-.22.9-.46 1.06-.71.28-.46.33-1.01.13-1.65a3.18 3.18 0 0 0-.9-1.45c-.1-.1-.2-.1-.31-.03-1.32.93-2.89 2.1-4.72 3.52Z" fill="#00598F"/></svg>