<!-- by TradingView --><svg width="56" height="56" viewBox="0 0 56 56" xmlns="http://www.w3.org/2000/svg"><path fill="#F0F3FA" d="M0 0h56v56H0z"/><path d="M18.2 29.28c-.06.04-.07.08 0 .13 1.54 1.23 3.31 2.47 4.43 3.37.54.44 1 .95.58 1.65-.18.32-.46.5-.84.55-.33.05-.66-.05-.98-.3l-6.18-4.99c-.3-.23-.42-.56-.37-.98.05-.42.24-.72.58-.88.11-.06.43-.12.96-.2a4.38 4.38 0 0 0 3.38-2.55c.74-1.76-.6-4.04-2.37-4.78a3.39 3.39 0 0 0-3.08.14c-1.74.94-2.31 2.84-2.31 4.64v8.33c0 .8-.05 1.6-1 1.58-.8-.03-.99-.65-.99-1.37L10 24.68c0-2.44.85-4.7 3.11-5.94a6 6 0 0 1 8.53 7.24c-.5 1.48-1.97 2.52-3.44 3.3Z" fill="#E85507"/><path d="M16 25a1 1 0 1 0 0-2 1 1 0 0 0 0 2Z" fill="#E85507"/><path d="M27.07 30a.08.08 0 0 0-.07.07v3.3c0 .76.05 1.62-.9 1.63-.88 0-1.1-.8-1.1-1.53v-9.15c0-.73.1-1.3 1-1.32.83-.02 1 .75 1 1.44l.02 3.46c0 .04.02.1.06.1h6.34c.5 0 .85.02 1.04.14.36.2.54.57.54 1.1v4.23c0 .74-.1 1.57-1 1.53-.8-.03-1.01-.74-1-1.44V30.1c0-.06-.03-.1-.08-.1h-5.85Z" fill="#58585A"/><path d="M34 25a1 1 0 1 0 0-2 1 1 0 0 0 0 2Z" fill="#E85507"/><path d="M41.95 30.1c-.18 0-.2.04-.06.15 1.57 1.15 2.77 2.05 3.6 2.7.48.37.62.8.42 1.29-.14.32-.36.55-.67.67-.45.18-.9.1-1.37-.26l-6.45-4.84a1.02 1.02 0 0 1-.4-1c.1-.83.83-.8 1.54-.81h3.29c.7 0 1.44-.38 1.65-1.15.29-1.06-.71-1.85-1.58-1.85h-3.1c-.76 0-1.76-.02-1.82-1 0-.84.74-1 1.5-1h3.07c1.85 0 3.68.67 4.26 2.6.77 2.52-1.49 4.52-3.88 4.5Z" fill="#58585A"/></svg>