<!-- by TradingView --><svg width="56" height="56" viewBox="0 0 56 56" xmlns="http://www.w3.org/2000/svg"><path fill="#F0F3FA" d="M0 0h56v56H0z"/><ellipse cx="28" cy="28" rx="20" ry="12" fill="url(#a)"/><path d="M47.55 30.55A10.92 10.92 0 0 1 40.57 33c-3.13 0-5.47-.83-7.58-1.7-1.7-.7-3.3-1.28-4.99-1.3-1.69.02-3.29.6-4.99 1.3-2.1.87-4.45 1.7-7.58 1.7s-5.5-1.23-6.98-2.45C10.4 35.95 18.41 40 28 40s17.6-4.05 19.55-9.45Z" fill="url(#b)"/><defs><linearGradient id="a" x1="28" y1="16" x2="28" y2="40" gradientUnits="userSpaceOnUse"><stop stop-color="#52A5DB"/><stop offset=".55" stop-color="#164998"/></linearGradient><linearGradient id="b" x1="28" y1="29.86" x2="28" y2="40" gradientUnits="userSpaceOnUse"><stop stop-color="#58A9DE"/><stop offset=".77" stop-color="#186AB3"/></linearGradient></defs></svg>