<!-- by TradingView --><svg width="56" height="56" viewBox="0 0 56 56" xmlns="http://www.w3.org/2000/svg"><path fill="#F0F3FA" d="M0 0h56v56H0z"/><path d="M20.72 24.58c-.54-.86-1.36-1.51-2.27-.56a421.66 421.66 0 0 0-6.07 6.54.11.11 0 0 1-.08.04c-.02 0-.05 0-.08-.03a.22.22 0 0 1-.04-.05 16.06 16.06 0 0 1 26.9-14.1.15.15 0 0 1 0 .21L26.7 30.9c-.98 1.13-1.78.4-2.39-.56l-3.6-5.75Zm12.96-6.02c-5.48-3.1-12.39-1.3-15.36 4.3a.06.06 0 0 0 .06.1c.02 0 .03-.02.04-.03 1.49-1.74 2.37-1.17 3.48.44 1 1.46 1.97 2.97 2.91 4.54a.4.4 0 0 0 .57.12c.08-.06.2-.17.33-.32a1410.66 1410.66 0 0 0 8.03-9 .12.12 0 0 0-.02-.11.12.12 0 0 0-.04-.04Z" fill="#0BA247"/><path d="m16.9 32.99-.42-1.02a.15.15 0 0 0-.14-.1l-2.98-.17a.39.39 0 0 1-.16-.05c-.31-.18-.35-.4-.13-.67 1.24-1.45 2.51-2.87 3.81-4.27a4.97 4.97 0 0 1 1.6-1.2c.8-.36 1.63.93 2.03 1.62a3893 3893 0 0 0 4.16 7.21c.7 1.2 1.6 1.06 2.44.12a5430.77 5430.77 0 0 0 13.84-15.64.14.14 0 0 1 .18.05 16.3 16.3 0 0 1 2.84 8.23c.64 10.24-8.78 18.56-18.9 16.62A16.07 16.07 0 0 1 12.8 33a.1.1 0 0 1 .06-.08.1.1 0 0 1 .05-.01l3.92.2a.1.1 0 0 0 .08-.03.09.09 0 0 0 0-.09Zm19.02 2.55a10.7 10.7 0 0 0 2.8-9.8c-.03-.14-.1-.16-.18-.05-3.63 4.12-7.18 8.14-10.65 12.05a5 5 0 0 1-1.35 1.05c-.09.04-.08.07.02.08 3.69.39 6.81-.72 9.36-3.33ZM24.8 38.52c.18.06.2.03.07-.1a7.9 7.9 0 0 1-1.39-1.87 429.25 429.25 0 0 1-4.84-9.15c-.1-.18-.29-.35-.58-.52a.16.16 0 0 0-.19.03l-.79.75a.27.27 0 0 0-.08.2c0 5.08 3.05 9 7.8 10.66Zm17.07-8.46c-.05-.82.3-1.57-.58-2.09a.21.21 0 0 0-.2 0c-.9.37-.9 1.85-1.03 2.7a.1.1 0 0 0 .08.1l2.1.53a.12.12 0 0 0 .16-.1l.16-.76a.12.12 0 0 0-.1-.14l-.47-.1c-.08-.02-.12-.07-.12-.14Zm-.54 2.83c0 .31-.12.55-.37.7a.2.2 0 0 1-.2 0l-1.32-.63a.13.13 0 0 0-.1 0 .13.13 0 0 0-.07.06l-.27.56c-.04.08-.02.14.06.18.42.23.86.45 1.3.66.32.15.61.1.86-.15.63-.64.84-1.36.62-2.18a.5.5 0 0 0-.34-.35l-1.47-.47c-.08-.02-.13 0-.16.09l-.2.6a.13.13 0 0 0 .07.17l1.46.58c.09.03.13.1.13.18Zm-25.06 2.38c.23.47.57.86 1 1.15.06.05.14.07.21.07.65 0 .99-.66.69-1.21a25.5 25.5 0 0 0-1.04-1.71.11.11 0 0 0-.14-.04l-1.9 1.01c-.08.05-.1.1-.05.19l.44.73c.05.07.1.08.18.03l.4-.27a.15.15 0 0 1 .18 0c.01.02.03.03.03.05Zm21.38 2.38c.13.1.3.16.47.18.18.02.37 0 .57-.07a2.67 2.67 0 0 0 1.45-1.45c.09-.22.14-.44.15-.65.02-.2-.01-.4-.07-.57a.92.92 0 0 0-.3-.4.92.92 0 0 0-.47-.18c-.18-.02-.37 0-.57.07-.2.07-.4.18-.59.32a2.66 2.66 0 0 0-.86 1.13c-.1.22-.14.44-.16.65 0 .2.02.4.08.56.07.17.17.3.3.4Zm-16.99 1.78c.23-.25.29-.62.18-1.04a2.96 2.96 0 0 0-1.4-1.64c-.22-.12-.44-.2-.66-.23a1.4 1.4 0 0 0-.59.01.88.88 0 0 0-.43.25c-.23.25-.29.62-.17 1.04.1.43.39.86.77 1.21.2.17.4.32.62.44.22.11.45.19.66.23.21.03.41.03.59-.02a.88.88 0 0 0 .43-.25Zm15.9-.28c.65.23 1.17.07 1.56-.49.06-.08.04-.13-.07-.12l-.86.04a.1.1 0 0 1-.08-.04.09.09 0 0 1 0-.09l.15-.34a.33.33 0 0 0 .03-.13c.04-.82-.83-.97-1.37-.59l-1.13.81c-.06.04-.07.1-.03.15l1.14 1.83a.14.14 0 0 0 .14.07l.05-.02.58-.37c.06-.04.07-.09.03-.15l-.27-.4a.1.1 0 0 1 .05-.16.1.1 0 0 1 .07 0ZM22.96 40.3l-.07 1.27c0 .08.03.14.1.17l.59.25c.07.03.14.01.19-.06l1.39-1.96c.07-.1.04-.16-.08-.18l-.56-.07a.16.16 0 0 0-.15.07l-.7 1.06a.1.1 0 0 1-.19-.05c0-.48.37-1.63-.44-1.6a.23.23 0 0 0-.17.07l-.79.9a.12.12 0 0 1-.2-.1l.26-1.19a.2.2 0 0 0-.1-.22l-.45-.28c-.1-.06-.17-.04-.18.08-.09.7-.2 1.42-.37 2.14a.59.59 0 0 0 .73.7.59.59 0 0 0 .33-.23c.22-.31.46-.6.71-.84.11-.1.16-.08.15.07Zm11.29.15c-.25.42-.6.61-1.07.6-1.19-.05-.66-1.55.2-1.48.46.03.84-.08 1.14-.32a.17.17 0 0 0-.08-.3 2.86 2.86 0 0 0-2.24.64c-.98.85-.65 2 .7 2.03.88.03 2.1-.6 2.24-1.58.04-.26-.02-.47-.2-.63a.15.15 0 0 0-.17-.02l-1.46.76c-.1.05-.15.1-.17.16-.03.1 0 .2.11.28.07.05.13.06.2.03l.7-.3a.09.09 0 0 1 .1.03.09.09 0 0 1 0 .1Zm-8.04.2a.87.87 0 0 1 .5.01c.32.1.5 0 .55-.3a.19.19 0 0 0-.16-.2l-1.5-.23c-.08 0-.14.03-.15.11l-.43 2.12a.17.17 0 0 0 .08.17l.06.02 1.77.23c.11.01.17-.03.17-.14v-.27c0-.07-.03-.11-.11-.12l-.87-.06c-.08 0-.12-.05-.11-.13v-.2c0-.1.05-.14.14-.13l.82.09c.03 0 .06 0 .08-.03a.12.12 0 0 0 .05-.07l.05-.27a.16.16 0 0 0-.14-.19l-.77-.08a.17.17 0 0 1-.15-.15.17.17 0 0 1 .12-.18Zm2.36 1.27c.66.42.73.81 1.66.52a.08.08 0 0 0 .05-.1.08.08 0 0 0-.03-.04l-.74-.44a.14.14 0 0 1 .03-.25c.6-.2.73-.78.28-1.21-.42-.4-1.5-.24-2.09-.25-.06 0-.1.03-.1.1l-.07 2.26c0 .08.03.11.11.11l.68-.01c.07 0 .1-.04.1-.1v-.52a.08.08 0 0 1 .12-.07Z" fill="#232021"/><path d="m41.2 29.04-.09-.02a.25.25 0 0 0-.29.21l-.08.52c-.02.14.08.27.22.3h.08c.14.03.27-.07.3-.2l.07-.53a.25.25 0 0 0-.21-.28ZM16.88 35.28c.16.26.4.41.55.33.14-.09.12-.37-.04-.64-.16-.26-.4-.4-.54-.32-.14.08-.13.37.03.63ZM38.22 35.73c-.32.42-.33.96-.02 1.2s.83.1 1.15-.32c.33-.42.33-.95.02-1.2-.31-.24-.83-.1-1.15.32ZM18.74 38.65c.41.37.96.45 1.23.16.26-.3.15-.83-.27-1.2-.4-.39-.96-.46-1.22-.17-.27.3-.15.83.26 1.2ZM35.73 38.42a.14.14 0 0 1 .01-.2l.07-.06a1.48 1.48 0 0 1 .42-.25.46.46 0 0 1 .18-.03c.05 0 .09.02.11.05l.05.05c.03.03.04.07.04.12 0 .05-.02.11-.05.17a1.48 1.48 0 0 1-.3.39l-.07.06a.14.14 0 0 1-.1.04.14.14 0 0 1-.1-.05l-.26-.29ZM28.42 40.82a.15.15 0 0 1 .15-.15h.04a1.43 1.43 0 0 1 .48.09c.07.03.12.06.15.1.03.03.05.07.05.11v.09c0 .08-.07.15-.2.21-.12.06-.3.1-.47.1h-.05a.15.15 0 0 1-.15-.15v-.4Z" fill="#232021"/></svg>