<!-- by TradingView --><svg width="56" height="56" viewBox="0 0 56 56" xmlns="http://www.w3.org/2000/svg"><path fill="#F0F3FA" d="M0 0h56v56H0z"/><path d="M18 17h-2v10.04A4.24 4.24 0 0 0 12.5 25C10.01 25 8 27.46 8 30.5s2.01 5.5 4.5 5.5c1.41 0 2.68-.8 3.5-2.04v1.5h2V17Zm-2 12.12v2.76c-.47 1.43-1.66 2.44-3.06 2.44-1.8 0-3.27-1.7-3.27-3.82 0-2.11 1.47-3.82 3.27-3.82 1.4 0 2.59 1.01 3.06 2.44ZM42 17h-2v10.04A4.24 4.24 0 0 0 36.5 25c-2.49 0-4.5 2.46-4.5 5.5s2.01 5.5 4.5 5.5c1.41 0 2.68-.8 3.5-2.04V36h2V17Zm-2 12.12v2.76c-.47 1.43-1.66 2.44-3.06 2.44-1.8 0-3.27-1.7-3.27-3.82 0-2.11 1.47-3.82 3.27-3.82 1.4 0 2.59 1.01 3.06 2.44Z"/><path fill-rule="evenodd" d="M28 33.94A4.24 4.24 0 0 1 24.5 36C22 36 20 33.54 20 30.5s2.01-5.5 4.5-5.5c1.41 0 2.68.8 3.5 2.06V25h2v11h-2v-2.06Zm0-2.1c-.46 1.45-1.66 2.48-3.06 2.48-1.8 0-3.27-1.7-3.27-3.82 0-2.11 1.46-3.82 3.27-3.82 1.4 0 2.6 1.03 3.06 2.48v2.68Z"/><circle cx="13" cy="30.5" r="1.5" fill="#7BCAD1"/><circle cx="37" cy="30.5" r="1.5" fill="#7BCAD1"/><circle cx="45" cy="21" r="1.5" fill="#7BCAD1"/><circle cx="25" cy="30.5" r="1.5" fill="#7BCAD1"/><path d="M44 25h2v11h-2z"/></svg>