<!-- by TradingView --><svg width="56" height="56" viewBox="0 0 56 56" xmlns="http://www.w3.org/2000/svg"><path fill="#F0F3FA" d="M0 0h56v56H0z"/><path d="M26.36 20.96c-1.98 1.9-4.55 4.45-7.73 7.66-1.15 1.17-2.35 2-3.6 2.5-.85.34-1.66.26-2.45-.25a3.16 3.16 0 0 1-1.57-3.03c.08-1.15.6-2.22 1.54-3.21 3.74-3.86 7.56-7.68 11.46-11.46.23-.23.46-.23.7 0l1.5 1.51c.23.25.23.49 0 .72L14.5 27.21a.26.26 0 0 0-.08.25l.03.2c.02.1.07.16.17.19.1.02.18 0 .25-.07l8.76-8.63c.3-.3.65-.49 1.06-.57l4.14-.82c.34-.06.64.03.88.28l6.64 6.69c.16.16.16.32 0 .49L31.4 30.2c-.14.13-.12.24.06.31l.2.08c.2.08.37.04.53-.1l4.73-4.78c.17-.17.34-.17.52 0l1.78 1.8c.13.13.13.25 0 .38L25.09 42.16c-.22.22-.44.22-.66 0l-1.64-1.66c-.22-.21-.22-.43 0-.65l5.36-5.4a.7.7 0 0 0 .21-.52v-.26c0-.1-.04-.16-.13-.2-.09-.03-.17-.02-.23.05a462 462 0 0 0-2.02 2.07c-.47.5-1.11.84-1.93 1.01l-4 .83c-.36.07-.4-.03-.15-.28L31.15 25.8c.1-.1.1-.2 0-.29l-.99-1c-.04-.04-.1-.04-.14 0L18.86 35.78c-.24.24-.48.24-.72 0l-1.64-1.66c-.18-.18-.18-.37 0-.55l11.15-11.25c.1-.08.1-.17 0-.26l-1.09-1.1c-.06-.07-.13-.07-.2 0Z" fill="#014C90"/><path d="m28.73 14.46 1.2-1.21c.17-.18.35-.18.53 0l14.4 14.54c.18.17.18.35 0 .53L30.46 42.87c-.18.17-.36.17-.53 0l-1.35-1.37c-.18-.17-.18-.35 0-.53l12.69-12.8c.17-.18.17-.36 0-.54L28.73 15c-.18-.18-.18-.35 0-.53Z" fill="#1C1617"/></svg>