<!-- by TradingView --><svg width="56" height="56" viewBox="0 0 56 56" xmlns="http://www.w3.org/2000/svg"><path fill="#EE2722" d="M0 0h56v56H0z"/><path fill-rule="evenodd" d="M34 36V24h8v12h-8Zm-19 2h14.33c-1.58 1.8-4.7 3-7.54 3A10.7 10.7 0 0 1 11 30.12C11 24.01 15.7 19 21.79 19c2.84 0 5.66 1.3 7.2 3H15v16Zm12.15-2H17V24h10.48l-5.55 6.12L27.15 36Zm-2.52-5.88L32 22v16l-7.37-7.88ZM41.33 22H44v16H32c-2.45 2.87-6.21 5-10.21 5C14.69 43 9 37.28 9 30.12 9 22.97 14.68 17 21.79 17c4 0 7.76 2.14 10.21 5h2.68a6 6 0 0 1-1.18-8.97A5.82 5.82 0 0 1 38.1 11a6 6 0 0 1 3.22 11Zm.67-5a4 4 0 1 1-8 0 4 4 0 0 1 8 0Z" fill="#fff"/></svg>