<!-- by TradingView --><svg width="56" height="56" viewBox="0 0 56 56" xmlns="http://www.w3.org/2000/svg"><path fill="#F0F3FA" d="M0 0h56v56H0z"/><path d="M7.26 26.4c0 .02-.02.02-.04 0-.41-.39-.9-.55-1.44-.5a.85.85 0 0 0-.4.13c-.1.07-.19.18-.27.32a.22.22 0 0 0-.02.07c-.04.23 0 .42.1.56a1 1 0 0 0 .48.3c.22.08.5.16.81.25.41.11.72.25.93.42.48.38.66.9.57 1.58-.08.54-.35.93-.8 1.19-.38.22-.85.31-1.38.27a3.5 3.5 0 0 1-1.77-.6c-.03-.01-.04-.04-.02-.07l.44-.8c.02-.05.05-.05.09-.02.53.43 1.13.6 1.8.53a.86.86 0 0 0 .47-.2.64.64 0 0 0 .23-.46c.03-.38-.22-.66-.74-.82l-.35-.1c-.52-.16-.9-.3-1.16-.43-.38-.2-.6-.55-.68-1.04a1.9 1.9 0 0 1 .26-1.25c.28-.43.73-.67 1.36-.72a3.2 3.2 0 0 1 1.55.27c.13.06.27.14.4.25.02.02.03.05 0 .08l-.42.79ZM19.98 28.55l.02-.01v-3.47c0-.05.02-.07.08-.07h.86c.04 0 .06.02.06.06v5.9c0 .03-.02.05-.05.04a20.15 20.15 0 0 1-.5-.45c-1.1-1.08-2.42-2.06-3.45-3.19H17l.01.01v3.59c0 .02-.04.04-.06.04h-.87c-.05 0-.07-.03-.07-.07V25.1c0-.04.02-.07.06-.08a.1.1 0 0 1 .1.02c.93.9 2.28 2.07 3.77 3.5l.05.02ZM24.5 25.01a313.45 313.45 0 0 0 2.44 0c.04 0 .06.02.06.07l.02.9c0 .01-.01.02-.03.02h-1.9c-.03 0-.09.01-.09.04l.03 4.92c0 .02-.01.04-.04.04a90.68 90.68 0 0 1-.96 0c-.02 0-.03-.01-.03-.04v-4.92c0-.03-.02-.04-.04-.04h-1.91c-.02 0-.03 0-.03-.02l-.02-.9c0-.04.02-.06.06-.06l.26-.01h2.18ZM14.95 25h-.9c-.03 0-.05.03-.05.06v5.88c0 .03.02.06.05.06h.9c.03 0 .05-.03.05-.06v-5.88c0-.03-.02-.06-.05-.06ZM38.07 27.52v.8c0 .02-.01.04-.04.04H36c-.03 0-.04 0-.04.03v1.62c0 .02.01.04.04.04h2.39c.02 0 .03 0 .03.03v.88c0 .03 0 .04-.03.04h-3.36c-.02 0-.03-.01-.03-.04v-5.92c0-.03.01-.04.03-.04h3.33c.02 0 .04.01.04.04v.86c0 .02-.02.03-.04.03H36c-.03 0-.04.02-.04.04v1.47c0 .03.01.04.04.04h2.03c.03 0 .04.01.04.04ZM42.38 30.97c0 .02 0 .03-.03.03h-3.31c-.02 0-.04-.01-.04-.03v-5.9c0-.04.02-.07.06-.07h.85c.03 0 .09.02.09.06l.02 4.9c0 .03-.02.04 0 .04h2.34c.02 0 .04.02.04.05l-.02.92ZM43 30.95v-5.9c0-.03.01-.05.04-.05h.92c.03 0 .04.02.04.05v4.9c0 .04.03.05.06.05h2.27c.03 0 .05.02.05.05l-.01.9c0 .03-.02.05-.05.05h-3.28c-.03 0-.04-.02-.04-.05ZM10.92 25c.02 0 .04 0 .05.03l2.5 5.9c.02.02.02.03 0 .05 0 .01-.01.02-.03.02h-.96c-.02 0-.04-.01-.05-.03l-.4-1.04H9.84c-.03 0-.04 0-.05.02l-.39 1c-.01.04-.03.05-.06.05H8.4c-.02 0-.03-.01-.02-.04a942.7 942.7 0 0 1 2.55-5.95Zm0 2.13c-.02 0-.03 0-.03.02l-.73 1.9c-.01.03 0 .04.03.04h1.47c.03 0 .03-.02.02-.05l-.74-1.89c0-.01-.01-.02-.03-.02ZM49.43 25c.04 0 .07.02.09.06A1195.75 1195.75 0 0 0 52 30.97c-.01.02-.03.02-.04.02h-.92c-.04 0-.07-.02-.09-.06l-.38-1-.03-.02h-1.1a393.4 393.4 0 0 1-1.13.03l-.38 1c-.02.03-.05.06-.1.06h-.9c-.02 0-.04 0-.05-.02v-.05l2.47-5.87c.02-.04.05-.06.08-.06Zm0 2.14c-.02 0-.03 0-.03.02l-.73 1.88c-.01.02 0 .04.03.04h1.46c.03 0 .03-.02.02-.05l-.73-1.87c0-.02-.02-.02-.03-.02ZM31.6 25c.48 0 .82.04 1.04.1.34.12.6.36.76.72.08.17.13.37.15.61.02.24 0 .44-.04.62-.08.3-.2.54-.38.73v.04l.01.02c.44.18.7.53.8 1.05.13.63.03 1.14-.3 1.53-.3.37-.73.56-1.29.57a114.06 114.06 0 0 1-2.35-.02v-5.92c0-.03.02-.05.05-.05h1.56Zm-.54 3.5c-.03 0-.05.02-.05.06L31 29.93c0 .04.02.06.05.06l1.2.01c.2 0 .38-.06.53-.2.14-.13.22-.3.22-.48v-.12a.64.64 0 0 0-.22-.49.76.76 0 0 0-.53-.2l-1.19-.01Zm0-2.5c-.04 0-.05.02-.05.05l-.01 1.4c0 .03.01.04.04.05H32c.2 0 .36-.07.5-.21.13-.14.2-.31.2-.52v-.03c0-.2-.06-.37-.2-.52A.66.66 0 0 0 32 26h-.95Z" fill="#040303"/></svg>