<!-- by TradingView --><svg width="56" height="56" viewBox="0 0 56 56" xmlns="http://www.w3.org/2000/svg"><path fill="#F0F3FA" d="M0 0h56v56H0z"/><circle cx="28" cy="27" r="12" fill="#D0B43B"/><circle cx="27.5" cy="26.5" r="11.5" fill="#D32E28"/><path d="m24.07 12.96-.24-.88a.16.16 0 0 0-.08-.1 5.76 5.76 0 0 0-.41-.18 1.66 1.66 0 0 1-.99-.94c-.08-.18-.02-.27.19-.26.31.01.69-.05 1.13-.18.06-.02.08-.05.08-.1l-.04-.68c0-.05 0-.1.03-.15.1-.18.23-.36.38-.51a.67.67 0 0 0 .16-.41c0-.06.06-.1.11-.09a1.96 1.96 0 0 1 .9 1.4c0 .06.04.08.1.07l.54-.09a.2.2 0 0 0 .1-.05.19.19 0 0 0 .05-.1l.35-1.62c.02-.07.1-.1.16-.08.21.09.45.25.72.48.34.28.25.66.24 1.01 0 .02.01.05.03.06a.1.1 0 0 0 .05.04l.56.11c.06.01.1.04.12.09.37.7-.9 1.46-1.46 1.71a.18.18 0 0 0-.1.13l-.22 1.02c-.02.06.01.1.08.09.55-.02.93-.07 1.16-.14.85-.3 1.45-.52 1.92-.52a.3.3 0 0 1 .3.26c.01.04 0 .1-.01.14-.07.17-.2.3-.41.39-.93.4-1.91.66-2.94.8-.1 0-.48.06-1.12.16l-1.12.14a3.16 3.16 0 0 1-2.27-.61c-.18-.13-.16-.2.07-.22l1.82-.1c.05 0 .08-.04.06-.09Zm1.35-.22c.05.03.1.04.16.05.36 0 .63-.4.6-.71a.41.41 0 0 0-.06-.17.33.33 0 0 0-.28-.16c-.36 0-.63.4-.6.7.01.07.03.13.06.18.03.05.07.09.12.11Z" fill="#1F1817"/><path d="M19.2 15.46c-.03 0-.09.05-.2.14-.39.32-1.1.32-1.31-.24a1.98 1.98 0 0 1-.14-.51c-.02-1.18-.2-2.3-.52-3.35-.08-.22 0-.3.23-.24.46.12.87.32 1.25.6.02.02.06.02.09 0l1.1-.63a.15.15 0 0 0 .07-.12v-.65c0-.06.03-.12.07-.17.29-.37.45-.78.49-1.22 0-.06.08-.1.13-.05.51.55.42 1.08.44 1.79 0 .06.03.09.09.08h.45c.26 0 .44.12.53.38.2.54-.73 1.95-1.08 2.43a.3.3 0 0 0-.06.16.96.96 0 0 1-.57.84.54.54 0 0 0-.28.42l-.23 1.4c-.03.26.04.3.23.13l.35-.3a.82.82 0 0 0 .27-.6l.01-.92c0-.06.04-.1.1-.12.43-.1.98.72 1.04 1.03.13.6-.41.58-.77.69a.14.14 0 0 0-.06.04l-1.26 1.44a.24.24 0 0 1-.2.09c-.23 0-.34-.13-.33-.35.06-.72.14-1.38.25-2 .04-.2-.03-.26-.19-.2Zm1.67-2.58c.37-.65.57-1.04.62-1.19.05-.18-.02-.26-.21-.23a.7.7 0 0 0-.27.08c-.23.14-.36.3-.4.45-.18.62-.28 1.03-.3 1.23-.07.56.03.6.3.1l.26-.44Zm-1.76 1.38c.1.03.2-.06.31-.22a2.6 2.6 0 0 0 .32-1.03c.01-.16.05-.61-.18-.67-.09-.02-.2.06-.3.23-.11.16-.2.4-.27.66-.06.27-.13.66.01.93.03.06.07.1.11.1ZM27.12 19c.01-.1-.1-.19-.21-.15-.26.11-.63.2-1.1.3-.48.1-.86.08-1.13-.04-.46-.2-.69-.64-.68-1.33.02-1.01.08-1.91.18-2.69.03-.22.01-.34-.04-.53-.02-.07 0-.11.07-.13.3-.07.54 0 .74.23.03.04.08.06.14.07.05 0 .1 0 .15-.04.67-.44 1.29-.91 2.17-.57.48.18.67.54.56 1.08-.13.61-.37 1.16-.41 1.87-.04.6-.01 1.38.09 2.35v.47c0 .08-.1.13-.17.1a1.3 1.3 0 0 1-.64-.58c-.02-.04 0-.1.04-.12.15-.05.22-.15.24-.28Zm-1.52-3.02 1.27-.1c.06-.01.09-.04.1-.1.08-.3.22-.89.07-1.17a.32.32 0 0 0-.47-.1c-.38.28-.7.58-.97.91-.08.1-.1.25-.08.5 0 .04.03.06.08.06Zm1.34.97-1.38-.05a.05.05 0 0 0-.06.05l-.03.9c-.01.34.31.6.65.61h.14c.34.02.68-.22.7-.56l.03-.9a.05.05 0 0 0-.05-.05ZM22.72 20.74c-.04.16 0 .18.1.06.14-.13.3-.15.5-.04a.16.16 0 0 1 .06.22c-.11.2-.3.32-.58.37a.2.2 0 0 0-.13.08.51.51 0 0 1-.48.23.17.17 0 0 1-.13-.08 1.23 1.23 0 0 1-.17-.45c-.01-.06 0-.11.02-.16a4 4 0 0 1 .44-.58c.06-.08.1-.2.1-.3 0-.07.04-.1.1-.09.18.02.28.12.31.31.01.06 0 .11-.02.16-.07.12-.1.2-.12.27ZM21.26 21.17l.25-.01c.05 0 .06.02.04.07l-.16.37a.13.13 0 0 1-.07.06c-.24.11-.41.33-.52.64a.14.14 0 0 1-.1.1c-.1.04-.18 0-.23-.09-.24-.5.04-1.15.3-1.76.02-.05.03-.1.03-.16 0-.11.02-.2.04-.28.02-.06.07-.08.12-.07.12.02.19.07.2.16.04.12.05.42.04.9 0 .05.02.08.06.07ZM22.45 22.05c-.02.25.07.47.22.49.14.01.28-.19.3-.45.02-.26-.08-.48-.22-.49-.15-.01-.28.19-.3.45ZM21.21 22.46v-.52c0-.14.15-.24.27-.2.23.09.3.22.2.4-.1.18-.2.31-.32.4-.1.07-.15.04-.15-.08ZM21.92 26.69c.1.35.17.62.26.8a2 2 0 0 0 1.24 1.15c.07.02.2 0 .42-.06.07-.01.12 0 .14.06.03.05.02.09-.01.13-.19.2-.4.27-.67.2-.55-.13-.99-.46-1.32-.99-.23-.36-.29-.77-.38-1.15a.13.13 0 0 0-.06-.08.13.13 0 0 0-.1-.02l-.57.1a.88.88 0 0 1-.75-.27c-.16-.17-.15-.28.04-.35l.92-.25c.37-.1.5-.36.4-.78a.13.13 0 0 0-.11-.1c-.3-.03-.49-.12-.59-.27-.2-.3-.12-.4.23-.34.11.02.27 0 .46-.04a.14.14 0 0 0 .1-.1.6.6 0 0 0 .01-.33.12.12 0 0 0-.1-.1l-.39-.08a.2.2 0 0 1-.14-.1l-.3-.54a.11.11 0 0 1 0-.12.18.18 0 0 1 .05-.05.12.12 0 0 1 .12-.01c.28.12.46.15.56.09l.7-.42c.04-.03.09-.03.14-.02.21.05.36.19.43.4.11.36-.22.53-.46.68a.32.32 0 0 0 .02.57l.24.1c.15.08.15.29.02.37l-.5.3c-.1.06-.14.14-.12.25.02.08.09.15.17.12.25-.11.43-.17.53-.18.46-.01.45.59.18.8-.13.11-.38.28-.75.5-.05.03-.07.07-.06.13ZM29.88 31.27c.35.28-.15 1.02-.38 1.33-.26.33-.56.37-1.06.4-.38.02-.6-.26-.77-.48-.28-.35-.5-.72-.66-1.09v-.06a.13.13 0 0 1 .06-.05c.63-.27 2.22-.54 2.81-.05ZM33.2 39.27c.02-.33-.1-.4-.37-.22l-.24.16a.98.98 0 0 0-.43.77c-.09 1.54-.2 2.48-.37 2.84l-.57 1.28c-.17.4-.25.39-.21-.05.14-1.78.3-3.9.44-6.33a21.5 21.5 0 0 0-.23-5.14.08.08 0 0 1 .1-.1c.52.08.98-.07 1.37-.44.51-.5.82-.77.92-.85.36-.26 1.15-.33 1.24.27.1.72-.06 1.35-.5 1.89a6.14 6.14 0 0 1-1.73 1.46.35.35 0 0 0-.17.33l.09 1.55c.01.23.24.39.45.31.78-.27 1.54-.5 2.29-.7.54-.14.8.28.7.77-.2.94-.87 1.24-1.74 1.63a.14.14 0 0 0-.08.13l-.57 8.87c-.01.13-.1.2-.2.26-.13.08-.2.04-.21-.11-.11-1.89-.16-2.98-.15-3.3.07-2.83.13-4.59.17-5.28ZM27.19 35.2a3.3 3.3 0 0 0-.34-.08 1.5 1.5 0 0 1-1.1-.83c-.07-.13.04-.29.19-.28.4.01.8 0 1.17-.07.23-.04.54-.15.95-.34l.92-.43c.27-.13.5-.18.66-.17.4.03.83.48 1.06.77a.24.24 0 0 1-.07.36l-.66.37a.17.17 0 0 0-.08.11l-.35 1.6c0 .04 0 .07.04.1.1.09.2.11.3.24.32.33.36.7.13 1.09-.15.27-.4.48-.73.62-.15.06-.22.16-.22.3v.68c-.01.16.07.2.22.14.54-.23 1.03-.52 1.46-.42a.2.2 0 0 1 .14.11c.4.81-.23 1.32-.99 1.46l-.84.16c-.07.01-.1.06-.1.13l-.1 7.06c0 .1-.15.13-.23.12-.06-.02-.1-.06-.1-.12l-.44-6.96c0-.04-.05-.07-.09-.06-1 .29-2 .43-2.82-.28-.27-.23-.22-.35.14-.35.3 0 .64-.06 1-.17.46-.14 1.03-.33 1.73-.58.06-.02.1-.06.1-.12v-1.02c0-.06-.02-.1-.08-.13l-1.37-.6c-.22-.1-.2-.4.02-.48l.74-.25c.07-.02.12-.1.1-.16-.2-.47-.3-.94-.28-1.4 0-.06-.03-.1-.08-.12Zm1.95-.15-.77-.1a.05.05 0 0 0-.06.03l-.06.4c-.03.22-.14 1.12.23 1.17l.09.01c.1.01.22-.09.32-.29.1-.2.19-.47.23-.76l.06-.4v-.04l-.04-.02Z" fill="#1F1817"/><path d="M29 42.06v-.03l.03-.01h.01c.31-.07.63.09.8.39.06.1.1.2.11.32l.04.25a.97.97 0 0 1-.13.65c-.12.2-.3.32-.5.37h-.05l-.01-.03-.3-1.91ZM27.24 42.1c.56.4.81.8.75 1.2-.03.24-.21.6-.75.68-1.1.13-1.35-.34-1.2-.71.17-.43.46-.85.87-1.24.03-.03.11-.04.16-.02.04.01.1.05.17.1ZM26.98 29.25c.06 0 .1-.04.08-.1l-.39-3.83c-.03-.34.1-.4.42-.2l.31.2c.26.17.4.4.42.72.07 1.63.09 2.84.05 3.63-.01.13-.1.23-.26.3-.32.14-.83-.3-1.03-.5a.11.11 0 0 1-.03-.06c-.01-.07.05-.13.12-.14l.3-.02ZM29.42 28.32c-.54-.21-.95-.75-.92-1.26 0-.06.04-.1.12-.1.48-.06 1.1.02 1.31.46.15.31.06.6-.25.85a.26.26 0 0 1-.26.04ZM25.23 27.05c0-.03.02-.04.05-.04l.2.03c.12.01.24.05.34.1.3.14.5.42.45.71a.66.66 0 0 1-.35.46c-.2.1-.44.15-.68.12-.04 0-.26 0-.24-.07l.23-1.31Z" fill="#1F1817"/></svg>