<!-- by TradingView --><svg width="56" height="56" viewBox="0 0 56 56" xmlns="http://www.w3.org/2000/svg"><path fill="#F0F3FA" d="M0 0h56v56H0z"/><path d="m9.44 29.88.45-2.18c0-.03.01-.04.04-.04h1.67c.07 0 .12-.03.13-.1l.24-1.17c0-.02 0-.04-.02-.06a.06.06 0 0 0-.05-.03H10.2c-.02 0-.03-.01-.03-.03.03-.24.07-.4.1-.45.09-.14.2-.22.34-.22h1.41c.07 0 .12-.03.13-.1l.28-1.4-.01-.07a.08.08 0 0 0-.07-.03H11c-.3 0-.6.07-.91.22-.29.13-.55.32-.8.56-.4.4-.66.88-.77 1.46l-.75 3.66c0 .02 0 .05.02.07l.06.03H9.3c.08 0 .13-.04.14-.12ZM4 28.63v-.4c.13-.73.28-1.45.43-2.18A2.54 2.54 0 0 1 7.23 24h1.02c.02 0 .04.02.06.04.01.02.02.04.01.07l-.28 1.37c-.01.08-.06.13-.15.13H6.6c-.2 0-.33.06-.4.18a1.48 1.48 0 0 0-.13.48c0 .02 0 .03.03.03h1.68l.06.03c.01.02.02.04.01.07l-.23 1.15c-.02.07-.06.11-.13.11H5.8a6 6 0 0 0-.11.38c-.01.12 0 .2.04.26s.12.1.24.1h1.38c.02 0 .05 0 .06.03.02.02.02.04.02.07l-.28 1.37c-.02.08-.07.12-.14.13l-1.47-.01c-.34 0-.67-.12-.97-.32A1.38 1.38 0 0 1 4 28.63Zm9.8-2.9h-1.04c-.02 0-.04 0-.05-.03a.07.07 0 0 1-.01-.05l.3-1.51c.02-.1.07-.14.16-.14h3.76c.03 0 .05.01.06.03.02.02.02.05.02.07l-.31 1.51c-.02.08-.06.12-.14.12h-1.01c-.02 0-.04.01-.04.04l-.84 4.1c-.02.08-.06.11-.13.11h-1.46c-.03 0-.06-.02-.07-.05v-.13l.83-4.04c0-.02 0-.03-.03-.03Z" fill="#FF8204"/><path d="M20.02 27.63c.1.12.14.21.13.27-.03.24-.15.37-.36.38h-.98c-.07 0-.12.04-.13.12l-.3 1.48c-.02.07.01.11.09.12h1.43a2.65 2.65 0 0 0 1.39-.39 1.8 1.8 0 0 0 .82-1.78 1.8 1.8 0 0 0-.2-.55 5.61 5.61 0 0 0-.52-.72c-.14-.2-.2-.33-.21-.4 0-.29.12-.43.37-.44h.9c.08 0 .13-.05.14-.12l.3-1.5c.01-.03 0-.05 0-.07a.07.07 0 0 0-.06-.02c-.57-.01-1.02-.01-1.37 0a3 3 0 0 0-1.19.3c-.42.2-.72.46-.9.8-.24.5-.27 1-.06 1.49.06.13.17.31.33.53l.38.5ZM29.56 24H28.2c-.05 0-.08.03-.1.08l-1.16 5.8c0 .03 0 .06.02.08.02.03.04.04.07.04h1.36c.05 0 .08-.02.1-.08l1.16-5.8a.1.1 0 0 0-.02-.08.09.09 0 0 0-.07-.04Zm8.3 1.15.21-1.07c.01-.05.04-.08.1-.08h1.35a.1.1 0 0 1 .08.04c.02.02.02.05.02.08l-.22 1.07c-.01.06-.04.08-.1.08h-1.35a.1.1 0 0 1-.08-.03c-.02-.03-.02-.06-.02-.09Zm-.97.85h-.75c-.02 0-.03 0-.03-.02l.2-.9c0-.02 0-.04-.02-.06a.06.06 0 0 0-.05-.02h-1.35c-.08 0-.13.04-.15.12a2017.47 2017.47 0 0 0-.65 3.2c0 .56.14 1 .45 1.3.18.17.4.28.66.34.2.04.45.05.78.03.07 0 .12-.04.13-.1l.24-1.14c0-.03 0-.05-.02-.07a.07.07 0 0 0-.06-.03h-.45a.21.21 0 0 1-.17-.08.21.21 0 0 1-.04-.18l.23-1.13c0-.02.02-.03.03-.03h.77c.08 0 .12-.04.14-.1l.2-1c.02-.07-.01-.13-.09-.13Zm9.58 1.94c.07-.3.01-.48-.16-.5a.32.32 0 0 0-.29.09.55.55 0 0 0-.15.28l-.46 2.08c-.01.07-.05.11-.13.11h-1.35c-.02 0-.04 0-.05-.03a.07.07 0 0 1-.02-.06l.4-1.88c.1-.45.29-.85.57-1.2A2.15 2.15 0 0 1 46.6 26c.55 0 .95.2 1.21.59.24.36.3.8.2 1.34l-.41 1.96c-.02.07-.07.11-.15.11h-1.33c-.02 0-.04 0-.06-.03a.07.07 0 0 1-.01-.06l.42-1.97Zm-21.2 1.84c.29-.14.54-.32.76-.55.18-.2.33-.43.44-.73.07-.2.14-.47.21-.82.11-.56-.03-1-.42-1.32-.33-.27-.78-.38-1.36-.36a2.46 2.46 0 0 0-1.67.77c-.18.2-.33.43-.44.73-.07.2-.14.47-.2.82-.12.56.02 1 .41 1.32.33.27.78.38 1.36.36.32-.02.62-.1.9-.22Zm-1-1.74a19.53 19.53 0 0 0 .04-.18c.05-.2.1-.36.14-.45.08-.17.2-.25.35-.25.18 0 .27.1.28.28a1.99 1.99 0 0 1-.1.63l-.02.07c-.04.2-.08.35-.13.45-.09.16-.2.24-.36.25-.17 0-.27-.1-.28-.28 0-.11.02-.28.08-.52Zm15.88-1.27a2.42 2.42 0 0 1 1.67-.77c.58-.02 1.03.1 1.36.36.4.32.53.76.42 1.32-.07.35-.14.63-.21.82-.1.3-.25.54-.44.73a2.41 2.41 0 0 1-1.67.77c-.58.02-1.03-.1-1.36-.36-.39-.32-.53-.76-.42-1.32.07-.35.14-.63.21-.82.11-.3.26-.54.44-.73Zm1.07 1.15-.03.12c-.06.24-.08.4-.08.52.02.18.1.28.28.28.15 0 .27-.09.36-.25.05-.1.1-.25.13-.45l.02-.07.03-.1c.05-.25.08-.42.07-.53 0-.19-.1-.28-.27-.28-.16 0-.27.08-.36.25a1.87 1.87 0 0 0-.15.51Zm-9.58.65a.32.32 0 0 1-.31.09c-.08-.02-.13-.08-.15-.17a.52.52 0 0 1 0-.24 206.98 206.98 0 0 1 .45-2.19c0-.04-.02-.06-.06-.06h-1.35c-.07 0-.12.04-.13.1l-.36 1.69a2.42 2.42 0 0 0 0 1.34c.21.54.62.83 1.23.86.77.05 1.4-.22 1.88-.8.28-.34.46-.69.54-1.06a124.38 124.38 0 0 0 .44-2.1.06.06 0 0 0-.05-.03h-1.35c-.08 0-.14.04-.16.13a148.3 148.3 0 0 1-.46 2.15.61.61 0 0 1-.16.3ZM37.78 26h1.36a.1.1 0 0 1 .08.04.1.1 0 0 1 .02.08l-.8 3.8c0 .05-.04.08-.1.08H37a.1.1 0 0 1-.07-.04.1.1 0 0 1-.02-.08l.79-3.8c.01-.05.04-.08.1-.08Zm14.22.15V26h-1.47c-.4 0-.76.1-1.05.28-.33.22-.53.52-.58.9-.04.33.16.69.61 1.08.06.05.1.1.12.14.04.1.02.18-.05.26a.39.39 0 0 1-.25.1c-.12.01-.33.02-.62.01-.09 0-.14.04-.15.13l-.21.99c0 .02 0 .05.02.07.01.02.03.03.06.03h1.28c.3 0 .51-.02.65-.06.24-.06.45-.16.63-.3.21-.17.35-.36.4-.57.09-.28.07-.54-.05-.77a2.06 2.06 0 0 0-.45-.51 11.51 11.51 0 0 1-.26-.27c-.03-.07-.02-.13.01-.18a.27.27 0 0 1 .16-.1 30.94 30.94 0 0 0 .86-.02c.08 0 .12-.04.14-.11l.2-.96Z" fill="#49CAEE"/></svg>