<!-- by TradingView --><svg width="56" height="56" viewBox="0 0 56 56" xmlns="http://www.w3.org/2000/svg"><path fill="#474D52" d="M0 0h56v56H0z"/><path d="M19.5 43c-3.86 0-4.5-1.88-4.5-3.75V16.12c0-.62 0-3.12 4.5-3.12 3.6 0 4.5 2.5 4.5 3.75v3.75c-.86 1.04-2 4-2 8.5s1.14 7.13 2 7.75v2.5c0 1.88-1.29 3.75-4.5 3.75Z" fill="#fff"/><path d="M28 24c0-6 6.96-9.75 10.74-11C28.67 14.25 23 22.38 23 29.25 23 36.13 30.56 43 34.96 43c3.53 0 4.83-2.5 5.04-3.75V34c-3.78 0-12-2.5-12-10Z" fill="#fff"/><path d="M40 14v6.88c-5.42 0-9.5 2.66-10.94 4.06C29.11 18.29 36.38 14.88 40 14Z" fill="#fff"/></svg>