<!-- by TradingView --><svg width="56" height="56" viewBox="0 0 56 56" xmlns="http://www.w3.org/2000/svg"><path fill="#F0F3FA" d="M0 0h56v56H0z"/><path d="M35.92 12.76c-3.92 1.46-5.4 5.45-5.66 7.24-1.13-4-8.81-5.05-13.17-4.95A17.34 17.34 0 0 1 28.26 11c2.75 0 5.35.63 7.66 1.76Z" fill="#E4B646"/><path d="M11 27.78c.06-4.13 1.61-7.9 4.14-10.82C22.82 15.8 26.71 17.1 28 18c-8.68.2-14.63 6.5-17 9.78Z" fill="#98B352"/><path d="M26.58 44.98a17.27 17.27 0 0 1-13.8-9.4A19.06 19.06 0 0 1 28 18.7c-2.15 1.26-6.57 5.36-6.57 11.65 0 6 3.28 12.02 5.15 14.64Z" fill="#62ADCC"/><path d="M29.75 45C27.65 42.87 23 36.02 23 29.7c0-5.77 3.68-9.22 5.51-10.2-.5.79-1.53 3.2-1.53 6.4 0 6.74 7.05 13.37 11.03 16.2a17.32 17.32 0 0 1-8.25 2.9Z" fill="#AB4780"/><path d="M40.02 40.5C35.6 37.97 27.27 31 28.38 22c.23 3.4 3.55 10.87 14.9 14.44a17.14 17.14 0 0 1-3.26 4.06Z" fill="#D74D5D"/><path d="m36.75 17-4.75.77L34.42 19l1.05-.29L38 20l-1.25-3ZM43 18h-2l1.68 2H43v-2ZM37.06 30 35 27.5l2.73 1.07 4.3-2.33-.28-1.6-2.8-2.1h2.1l.7-.54H43l1 .53.32 1.43-1.32.85.27 1.43L45 28.09l-.5 1.63-2.26-1.63L37.06 30ZM45 31l-4 .33L43.23 35c.91-1.1 1.56-3.12 1.77-4Z" fill="#DC711A"/></svg>