<!-- by TradingView --><svg width="56" height="56" viewBox="0 0 56 56" xmlns="http://www.w3.org/2000/svg"><path fill="#F0F3FA" d="M0 0h56v56H0z"/><path d="M15.96 11.02a.1.1 0 0 0 .06-.02h.02v1.51l.01.22.01.09.02.2a2.9 2.9 0 0 0 .54 1.37l.06.07.04.05a.2.2 0 0 0 .03.04l.06.08a.2.2 0 0 0 .06.05l.06.05.07.06.04.04a.3.3 0 0 0 .05.04c.05.03.08.08.14.11l.1.07.1.06c.12.06.23.13.35.17a4.83 4.83 0 0 0 .7.16l.2.01a23830.14 23830.14 0 0 0 21.32.01v.06a12 12 0 0 1-.01.62 253735.5 253735.5 0 0 1-21.45 0h-.09l-.1-.02h-.09a5.94 5.94 0 0 0-.29-.06L17.8 16a2.54 2.54 0 0 1-.6-.23 9.36 9.36 0 0 1-.59-.4l-.08-.07a3.7 3.7 0 0 0-.73-.91.83.83 0 0 1-.07-.16 1.5 1.5 0 0 0-.07-.16 1.27 1.27 0 0 1-.1-.22 28.63 28.63 0 0 1-.14-.7 21.66 21.66 0 0 0-.02-.4v-.19a135.79 135.79 0 0 0 .02-1.54h.01a34.62 34.62 0 0 1 .54 0Z" fill="#CDC560"/><path d="M14.6 11.02h.03l.04.01v1.55l.02.44a9.9 9.9 0 0 0 .14.9c0 .06.03.08.04.14 0 .01 0 .03.02.05l.01.05.06.18.13.29c.04.12.1.24.18.34l.07.12.07.1.05.08.07.11.11.13a.6.6 0 0 0 .07.09c.03.02.06.05.08.09l.07.06.24.25c.03.04.06.06.12.1l.09.07.09.06.1.07.1.07.09.06.2.13h.02l.05.02.3.15.23.06.1.05a3.06 3.06 0 0 0 .64.13 6.3 6.3 0 0 0 .45.03 42610.62 42610.62 0 0 1 21.31.02l.01.02v.65l-.01.01H18.4c-.06 0-.13 0-.21-.02l-.16-.03-.32-.06a3.97 3.97 0 0 1-1.83-.87 5.64 5.64 0 0 0-.2-.16 25.96 25.96 0 0 1-.6-.63l-.22-.3a3.9 3.9 0 0 1-.24-.4c-.03-.03-.03-.07-.05-.1a2.43 2.43 0 0 1-.28-.65.25.25 0 0 1-.04-.1 6.67 6.67 0 0 1-.25-1.67v-1.63a.04.04 0 0 1 .01-.03.11.11 0 0 1 .08-.03 4.3 4.3 0 0 1 .5 0Z" fill="#CDC560"/><path d="M17.02 11.04v-.02h.57a.07.07 0 0 1 .06.06 1105.05 1105.05 0 0 1 .02 1.45l.02.1.03.15.02.06c0 .03 0 .07.03.1l.02.03a3.38 3.38 0 0 0 .15.27l.06.08c0 .02.03.04.06.07l.2.2c.12.11.24.2.38.25a2.48 2.48 0 0 0 .59.14l.07-.01h.02l.08.02h.14a1241699.59 1241699.59 0 0 0 20.43.02l.02.03V14.6a.03.03 0 0 1 0 .03h-.02a355126.61 355126.61 0 0 0-21.01 0l-.14-.03a3.19 3.19 0 0 1-.6-.22 1.3 1.3 0 0 1-.16-.1 1.74 1.74 0 0 0-.1-.07 6.47 6.47 0 0 1-.33-.28 3.23 3.23 0 0 1-.47-.71.27.27 0 0 1-.04-.1s0-.04-.03-.1a1.9 1.9 0 0 1-.09-.62 696.16 696.16 0 0 1 0-1.36h.02ZM35.77 21.93l-.02.01a46.17 46.17 0 0 1-1.01-.02h-.04a.03.03 0 0 0-.02.03v.3h.14a41.53 41.53 0 0 0 .98-.01V21.95c0-.02 0-.03-.03-.02ZM36.3 21.96h.01v-.01h.01l1.16-.01.04.01c.02.01.02.02.02.03V22.22l-.02.02h-.04l-1.15.01a.02.02 0 0 1-.01 0l-.01-.02v-.27ZM34.72 22.63h1.05c.02 0 .03.01.03.03v.26c0 .02-.01.04-.03.04h-1.05a.03.03 0 0 1-.04-.04v-.26c0-.02.02-.03.04-.03ZM37.52 22.63h-1.19a.02.02 0 0 0-.02.02v.28c0 .01 0 .02.02.02h1.2l.01-.02v-.28a.02.02 0 0 0-.02-.02ZM37.42 23.41v-.01l.02-.01h.03v-.02a.14.14 0 0 0-.08-.04 13.32 13.32 0 0 0-1.02.02c-.04 0-.06.02-.06.06v.24a.04.04 0 0 0 .01.03.04.04 0 0 0 .03 0 6.74 6.74 0 0 1 .42 0c.2-.01.38-.02.56-.01a.02.02 0 0 0 .02-.04l-.06-.06-.03-.03v-.03a.1.1 0 0 1 .05-.02.02.02 0 0 0 .02 0 .12.12 0 0 1 .05-.05c.02 0 .03-.02.04-.03Z" fill="#CDC560"/><path d="M32.02 19c-.02.02-.03.04-.02.07l.01.01v.02a.1.1 0 0 0 0 .03L32 27h7.99v-.03H40v-.01c-.02-.02 0-.04 0-.06V19c0 .02 0-.02 0 0h-7.98Zm3.7 4.73h.07l.02-.02v-.35l-.01-.01h-.06a3.12 3.12 0 0 1-.23-.02H34.62a3.65 3.65 0 0 1-.46-.02v-1.75h.02l.37-.02a58.48 58.48 0 0 1 1.2 0 .1.1 0 0 0 .05-.07v-.16l-.02-.07v-.02a.04.04 0 0 0-.03-.02h-2.12c-.04 0-.06-.02-.06-.06v-.39a.1.1 0 0 1 .07 0l.01.01h2.11a.03.03 0 0 0 .02 0v-.02a3.9 3.9 0 0 1 0-.43l-.01-.02c.01-.03.03-.04.04-.05h.01l.12-.03h.24c.05 0 .09.02.13.04v.01l.01.04v.06a3 3 0 0 1 0 .18l-.01.18v.04a308.87 308.87 0 0 1 2.31.02v.39a1094.83 1094.83 0 0 1-2.24.03l-.06.01-.01.02v.27a.04.04 0 0 0 0 .03l.02.01h.02a170.2 170.2 0 0 1 1.69.02v1.49l.02.08.01.08v.14h-.02l-.02-.01a4.93 4.93 0 0 1-.3.03v.02a6.3 6.3 0 0 0 .15.12l.14.1.19.13.06.05.08.06a.99.99 0 0 1 .2.17v.01l-.14.13-.05.05c-.06.06-.13.14-.2.08a.99.99 0 0 1-.12-.08 1.2 1.2 0 0 0-.2-.17c-.08-.05-.16-.04-.25-.03h-.08a11.07 11.07 0 0 0-.69.05l-.3.02a5.85 5.85 0 0 1-.44.03l-.3.02a5.34 5.34 0 0 0-.58.05 4.92 4.92 0 0 1-.5.04l-.22.02c-.05 0-.12 0-.22.02l-.22.02h-.05l-.04.02a.03.03 0 0 1-.02 0c-.07-.06-.1-.14-.12-.22a4.63 4.63 0 0 0-.1-.3l.02.01h.08a24.2 24.2 0 0 0 1.38-.05h.52Zm.52 1.33h-.06l-.02.01h-.03a2.6 2.6 0 0 1-.06-.19 1.6 1.6 0 0 0-.17-.4v-.03h.01v-.01h.01a.7.7 0 0 0 .16-.06.8.8 0 0 1 .15-.06l.08-.02h.07l.06.08a13.13 13.13 0 0 1 .24.49.02.02 0 0 1 0 .02 8.85 8.85 0 0 0-.44.17Zm2.57.21v.02h.02l.01.01v.03l-.48.28h-.02a1.5 1.5 0 0 1-.23-.23 6.9 6.9 0 0 0-.65-.75.03.03 0 0 1 .01-.03l.4-.23h.03l.27.23a4.53 4.53 0 0 1 .64.67Zm-3.4-.08c0 .07.03.12.09.14a.1.1 0 0 1 .03.02l.04.02h.12l.11.02h.8c.1-.01.2-.04.3-.09a.26.26 0 0 0 .09-.1l.08-.14a.65.65 0 0 0 .06-.22l.01-.01h.01a3.28 3.28 0 0 0 .53.28v.04l-.06.18c-.03.09-.07.16-.11.23a.35.35 0 0 1-.13.13c-.1.05-.22.09-.36.11a2.3 2.3 0 0 1-.45.04 1.89 1.89 0 0 1-.25 0l-.56.03c-.22 0-.4-.02-.54-.05a.62.62 0 0 1-.15-.07.33.33 0 0 1-.15-.19.71.71 0 0 1-.04-.24 95.04 95.04 0 0 0 0-.86l.02-.01h.51v.01l.01.01v.72Zm-.91-.48v.02a7.63 7.63 0 0 1-.16.6l-.05.12-.08.2c-.02.06-.06.16-.12.2h-.05c-.14-.07-.27-.11-.38-.14a.23.23 0 0 1-.09-.05.04.04 0 0 1 0-.06l.03-.06.2-.37c.07-.16.12-.34.16-.52.02-.06.05-.07.1-.06a7.13 7.13 0 0 0 .44.12ZM35.12 33.12l-.02.01h-.02v-.02h-.03v.01l-.02.01h-.76a.02.02 0 0 0-.02.02v.81a.02.02 0 0 0 .01.02l.04.02h.04a132.26 132.26 0 0 0 .78-.01l.01-.02v-.84h-.01Z" fill="#CDC560"/><path d="M32 36h8v-8h-8v8Zm1.8-6.08c-.01-.02-.02-.02-.02 0-.02 0-.02 0-.02-.02a17.54 17.54 0 0 0 .02-.47h.02l.04-.02a365.17 365.17 0 0 1 1.59.03h.01a3.4 3.4 0 0 1-.02.47l-.18.02H33.8Zm4 .16h-.02l-1.7.01c-.03 0-.04 0-.04-.04v-.45H38.35v2.3a.1.1 0 0 1-.1.1H36.8c-.02 0-.03 0-.04.02a207.74 207.74 0 0 0 0 2.03c0 .04 0 .09.02.12.02.05.05.07.1.07a2.16 2.16 0 0 1 .34.02 56.78 56.78 0 0 1 .66-.02c.05 0 .08 0 .11-.02.08-.04.13-.1.15-.14.05-.09.08-.2.1-.34 0-.05.01-.08.02-.08a.25.25 0 0 0 .02-.07l.01-.01.07.05.06.04c.12.07.25.12.39.17.02 0 .03.01.04.03v.05l-.05.2c0 .03-.05.11-.12.24l-.08.1-.03.04c-.09.1-.2.17-.32.2a1.64 1.64 0 0 1-.45.04 61.05 61.05 0 0 0-1.15-.03.34.34 0 0 1-.26-.12.43.43 0 0 1-.1-.23 2.64 2.64 0 0 1-.04-.4 343.42 343.42 0 0 0-.03-2.2 1.25 1.25 0 0 1 0-.26H36.34a2323.6 2323.6 0 0 0 1.49 0v-1.38a.04.04 0 0 0-.01-.03h-.02Zm-1.86.2.01.04v.36a.05.05 0 0 1-.05.05h-2.6c-.01 0-.02 0-.03-.02l-.02-.03v-.36a.05.05 0 0 1 .05-.05h2.6c.01 0 .03 0 .04.02Zm-.1 1.18-.03.02v.01h.01v.01h-2.28v-.02l-.01-.02v-.4c0-.02 0-.03.02-.03h2.24c.01 0 .02 0 .03.02l.01.03v.37Zm.03.41V32.28a.02.02 0 0 1-.02 0l-2.2.01h-.06l-.02-.03v-.38l.02-.01h.03a.2.2 0 0 1 .03-.01h2.22v.01Zm-.72 2.62c0-.05 0-.07-.04-.08h-.03l-.03.01h-.77c-.02 0-.03 0-.03.03l-.01.3c0 .04-.02.07-.06.08a1.63 1.63 0 0 1-.46 0l-.02-.01a85.89 85.89 0 0 0 0-2.12l.02-.02h1.95l.01.01a.03.03 0 0 1 .01.02v.08l-.01.07V34.51l.01.06v.16l-.01.02h-.49l-.03-.01v-.25ZM39.93 45h-.6v-.02l-.01-1.8v-.12l-.01-.12a5.2 5.2 0 0 0-.14-.82l-.03-.12a2.45 2.45 0 0 0-.26-.64l-.1-.2-.08-.13-.16-.26a.83.83 0 0 0-.1-.13c-.03-.02-.03-.04-.05-.06l-.06-.08a.18.18 0 0 0-.06-.06.74.74 0 0 1-.12-.14 2.66 2.66 0 0 0-.64-.55 1.04 1.04 0 0 0-.18-.1 1.55 1.55 0 0 1-.16-.1 6.27 6.27 0 0 1-.56-.26l-.13-.05c-.11-.03-.28-.08-.41-.1a4.15 4.15 0 0 1-.23-.05c-.1-.02-.24-.02-.33-.03a2.26 2.26 0 0 0-.32-.03H14v-.65h21.46a4.95 4.95 0 0 1 1.45.3l.48.21.22.13a8.52 8.52 0 0 0 .32.2l.1.07.3.22c.04.03.06.08.1.1l.08.08.26.27c.03.02.04.06.06.08l.1.1.04.06.05.05v.02c0 .02.01.03.03.03v.01l.11.16.05.07.04.06c.02.01.04.04.06.09l.05.09a1 1 0 0 1 .13.26l.07.17c.05.07.08.15.1.23.02.06.06.13.07.19l.08.25a1.69 1.69 0 0 1 .08.35 12.49 12.49 0 0 0 .1.63v.15a337.52 337.52 0 0 1-.01 1.98l-.01.01h-.04Z" fill="#CDC560"/><path d="M37.13 41.41a.17.17 0 0 0-.04-.04h-.01a.51.51 0 0 0-.12-.13.56.56 0 0 1-.06-.05.34.34 0 0 0-.06-.05l-.1-.08a2.14 2.14 0 0 0-.34-.23 5.27 5.27 0 0 0-.68-.28 1.1 1.1 0 0 0-.96-.1H14l-.02-.02v-.63l.01-.02.03-.02a711861.04 711861.04 0 0 1 21.23.02h.07l.25.04c.07 0 .13.02.17.03a16.75 16.75 0 0 0 .43.11l.15.06.13.05c.02 0 .03 0 .05.02l.17.1c.04.01.08.04.12.07l.12.07.08.06.05.04.06.03.13.12.3.27.12.14a7.15 7.15 0 0 1 .36.54l.03.06.04.07a5.04 5.04 0 0 0 .15.37l.04.12.04.12a16.54 16.54 0 0 0 .1.4 17.16 17.16 0 0 1 .04.47 671.47 671.47 0 0 0 0 1.86h-.67l.01-.01v-.02a1298.02 1298.02 0 0 1 0-1.88l-.04-.24a1.54 1.54 0 0 0-.05-.27 3.5 3.5 0 0 0-.15-.46l-.1-.2a1.93 1.93 0 0 0-.14-.23 5.87 5.87 0 0 0-.2-.28Z" fill="#CDC560"/><path d="m36.77 42.58.1.22a3.12 3.12 0 0 1 .13 1v1.14a.05.05 0 0 1-.01.03.04.04 0 0 1-.03.02 59.59 59.59 0 0 0-.61-.02 648.57 648.57 0 0 0-.02-1.51 6.8 6.8 0 0 1-.07-.34 11.77 11.77 0 0 1-.15-.35l-.07-.1a1.08 1.08 0 0 0-.19-.25 2.41 2.41 0 0 0-.42-.34.88.88 0 0 0-.2-.1 2 2 0 0 0-.3-.06h-.17A29546.26 29546.26 0 0 0 14 41.9v-.7h20.78a2.16 2.16 0 0 1 .54.08 10.48 10.48 0 0 0 .31.12l.13.07.12.06a5.1 5.1 0 0 1 .47.39c.04.05.1.1.14.18a12.55 12.55 0 0 1 .26.4l.02.07ZM14 19v17h1v-2.19L29.98 19H14Zm1 12.43V22c0-1.1.9-2 2-2h6.98a1 1 0 0 1 .7 1.7L15 31.44ZM31 36V19h-1v2.19L15 36H31Zm-1-12.43V33a2 2 0 0 1-2 2h-6.98a1 1 0 0 1-.71-1.7L30 23.56ZM38.06 13.49V11h1.86v.32h-1.41v.76h1.31v.32h-1.31v.77h1.43v.32h-1.88ZM35.6 13.49V11h1.86v.32h-1.42v.76h1.32v.32h-1.32v.77h1.44v.32h-1.89ZM32.88 13.49V11h.45v1.19h.03L34.61 11h.57l-1.2 1.12 1.2 1.37h-.54l-.96-1.11-.35.34v.77h-.45ZM31.14 11v2.49h-.44V11h.44ZM28.08 13.49h-.47L28.68 11h.52l1.07 2.49h-.48l-.84-2.04h-.02l-.85 2.04Zm.08-.98h1.55v.32h-1.55v-.32ZM24.68 13.49 23.85 11h.47l.58 1.93h.03l.6-1.93H26l.6 1.93h.03L27.2 11h.47l-.83 2.49h-.45l-.62-1.87h-.03l-.62 1.87h-.45Z" fill="#CDC560"/><path d="M23.97 43.19c-.02-.11-.08-.2-.2-.26a.9.9 0 0 0-.43-.1.98.98 0 0 0-.32.06.5.5 0 0 0-.2.12.26.26 0 0 0-.08.18c0 .06.02.11.05.15.03.04.08.08.13.1l.18.08.19.04.29.06.3.08c.1.03.19.07.28.13.08.05.15.11.2.19.06.08.09.17.09.28 0 .13-.05.26-.14.36a.87.87 0 0 1-.38.25c-.16.06-.36.1-.6.1-.22 0-.42-.04-.58-.1a.9.9 0 0 1-.4-.24.62.62 0 0 1-.15-.37h.46c0 .09.04.16.1.22.07.05.15.1.25.12a1.2 1.2 0 0 0 .66 0c.1-.04.18-.08.24-.14a.28.28 0 0 0 .09-.2.22.22 0 0 0-.08-.18.59.59 0 0 0-.2-.11 2.37 2.37 0 0 0-.3-.08l-.35-.08a1.54 1.54 0 0 1-.57-.23.48.48 0 0 1-.21-.4c0-.14.04-.26.14-.37.1-.1.22-.18.38-.24s.34-.08.54-.08.39.02.54.08a.9.9 0 0 1 .37.24c.1.1.14.21.14.34h-.43ZM21.66 42.56v2.4h-.42l-1.53-1.76h-.03v1.76h-.45v-2.4h.42l1.53 1.76h.03v-1.76h.45ZM16.74 44.96v-2.4h1.88v.31H17.2v.73h1.34v.31h-1.34v.74h1.45v.31h-1.9ZM14.01 44.96v-.24l1.59-1.85H14v-.31h2.15v.24l-1.58 1.85h1.6v.31H14Z" fill="#CDC560"/></svg>