<!-- by TradingView --><svg width="56" height="56" viewBox="0 0 56 56" xmlns="http://www.w3.org/2000/svg"><path fill="#F0F3FA" d="M0 0h56v56H0z"/><path d="M47.37 26.89c.4-.24.68-.64.62-1.1 0-.18 0-1.28-.62-3.02-.12-.32-.16-.73-.2-1.15-.05-.39-.1-.8-.2-1.16a9.58 9.58 0 0 0-1.4-2.98l-.43-.66a3.8 3.8 0 0 0-3.98-1.74c-.33.04-.55.3-.77.58l-.25.3-1.94 2.13c-.18.1-.8.54-1.67 1.16-1.6 1.14-4.04 2.87-6.18 4.22l-2.4 1.46c-3.42 2.1-7.48 4.58-11.1 6.59 0 0-.1.05.35.11l.9.08.35.04c-1.13.7-2.79 1.5-3.81 1.96-.3.1-.3.16-.29.21v.02h.35l.78-.1.81-.13c.12 0 .17.06.06.06a56.5 56.5 0 0 1-6.15 3.07c-.11.05-.05.11.06.11.28.06.74.06 1.93 0 .04.04.04.06 0 .06a30.15 30.15 0 0 1-4.95 2.32c-.4.17-.23.29 0 .29h.23c2.17 0 4.78-.7 6.49-1.28 0 0 .06 0 0 .06-.32.21-1.03.58-1.68.91l-.14.08c-.11.05-.17.11-.17.11 0 .05.17.05.22.05a11.65 11.65 0 0 0 2.62-.33v.04c-.1.08-.31.21-.55.36-.28.17-.6.36-.81.52-.06 0-.18.11.06.11.9-.05 2.95-.29 6.08-1.1h.13c0 .02-.05.07-.19.24-.07.07-.07.11 0 .11a19.77 19.77 0 0 0 4.05-1.5c.17-.07.17-.07.06.06a30.54 30.54 0 0 1-5.99 2.83c0 .06.06.11.12.11.8-.05 4.27-.34 8.48-2.2a68.57 68.57 0 0 0 5.46-2.72s.46-.23 1.15-.63h-4.08c-.86 0-.78-.64-.78-.64V34h1.5v-1.56h.8V31h.5v1h.69v-1H32v1h.68v-1h.52v1h5.78c.16 0 .21 0 .36-.1.36-.23.79-.53 1.27-.86.75-.53 1.62-1.14 2.49-1.67-.63-.23-1.88-.52-4.27-.63-3.07.11-4.33.63-4.61.81a6.96 6.96 0 0 0-.63-.4c-.4-.3-.17-.59.29-.76 1.02-.43 2.1-.58 2.82-.69l.43-.06a23.73 23.73 0 0 1 3.4 0l.47.07c.7.1 1.74.26 2.78.68l.12.07c.13.08.24.15.28.28l1.66-.98c.78-.46 1.35-.8 1.53-.87ZM39 31.39h-1v-1.8h1v1.8Zm-4 0h-.69v-1.15c0-.4.69-.52.69-.52v1.68Zm1.25-6.53a4.46 4.46 0 0 1-.6-.58c-.18-.17-.35-.46.22-.7.97-.34 2-.97 2.16-1.09.23-.18.4-.47.4-.52.06-.29.12-1.05.12-1.1-.12-.06-.18-.23-.18-.34 0-.24.18-.41.4-.41h.06c.17 0 .4.17.4.4 0 .12-.11.29-.23.35.03.03.07.35.1.65l.07.45c0 .05.17.34.4.52a13 13 0 0 0 2.1 1.1c.57.23.4.52.29.7-.23.23-.57.51-.74.63 0-.46-1.08-.8-2.39-.8-1.37 0-2.45.34-2.45.8v.06l-.13-.12Zm6.78 1.3a3.99 3.99 0 0 0 .12.06c.16.1.34.23.29.5l-.18.14c-.13.1-.3.21-.4.32l-.4.23s.13-.23-.1-.4c-.57-.41-1.94-.7-3.53-.7-1.76 0-3.19.34-3.7.8-.12.12 0 .3 0 .3l-.28-.18s-.63-.46-.63-.52c-.12-.29.11-.4.34-.52l.06-.03c.38-.2 1.87-1 4.21-1 2.28 0 3.81.8 4.2 1Zm-12.74 8.3v-.69h5.35c-.42.27-.81.5-1.19.7h-4.16Zm.58-2.02h6.42v.4c-.15.08-.3.18-.45.3h-5.97v-.7Z" fill="#1E378D"/></svg>