<!-- by TradingView --><svg width="56" height="56" viewBox="0 0 56 56" xmlns="http://www.w3.org/2000/svg"><path fill="#F0F3FA" d="M0 0h56v56H0z"/><path d="m28 28-4.72-14L13 28h15ZM35 28h-6.5L26 20.28l.72.06.33.84L31.32 15 35 28ZM35 23h1.32L38 28h-1.32L35 23ZM39.06 23H37l1.94 5H43l-.26-1h-1.97l-1.7-4Z" fill="#126736"/><circle cx="35.5" cy="20.5" r="1.5" fill="#D23840"/><circle cx="35" cy="38" r="1" fill="#E1969A"/><path d="M44.88 30a17 17 0 0 1-33.4 2h1.02a16 16 0 0 0 31.22-1H11.26a17 17 0 1 1 33.7-2h-1a16 16 0 1 0-31.85 1H44.9Z" fill="#126736"/><path d="m24.59 40-.85 2-1.95-2h2.8Zm6.07 0 .84 1 .39-1h-1.23Zm1.62-1h-2.45l-.84-1h3.68l-.4 1Zm.78-2 .38-1h-6.19l-.25.6.88.07.27.33h4.9Zm-7.2 0 .43-1h-8.4l.98 1h7Zm-6.02 1 .98 1h4.2l.42-1h-5.6Zm-2.92-3h9.8l.43-1h-11.2l.97 1Zm-1.95-2h12.6l.43-1H14l.97 1Zm13.13 1-.43 1h6.16l.4-1H28.1Zm6.51-1h-6.1l.43-1H35l-.39 1Zm.19 1-.4 1h1.4l.4-1h-1.4Zm1.8-1h-1.4l.4-1H37l-.4 1Zm.3 1-.45 1h2.17l.5-1H36.9Zm4.77-1h-4.32l.45-1H42l-.33 1Z" fill="#87AD95"/></svg>