<!-- by TradingView --><svg width="56" height="56" viewBox="0 0 56 56" xmlns="http://www.w3.org/2000/svg"><path fill="#F0F3FA" d="M0 0h56v56H0z"/><path d="M24.86 30.84c0-.03 0-.05-.02-.07l-.06-.02-.77-.12a3.67 3.67 0 0 0-1.06.02c-.2.04-.4.06-.57.08-.35.03-.49.03-.76.1-.5.11-1 .35-1.48.7-.05.03-.13.04-.23.03a.07.07 0 0 1-.06-.04c-.16-.32-.4-.6-.71-.83-.04-.03-.06-.08-.07-.15 0-.22.03-.36.1-.43.1-.1.17-.22.19-.38a81.45 81.45 0 0 0-.02-4.22.32.32 0 0 0-.06-.16l-.26-.38a.1.1 0 0 1-.01-.1.1.1 0 0 1 .02-.03 15.47 15.47 0 0 1 5.02-.68c.22 0 .42-.07.63-.15a.19.19 0 0 1 .18.03c.3.23.62.46.96.67.1.06.14.1.16.16.06.15-.02.32-.08.5-.08.19-.08.44-.08.6-.04 1.6.22 3.23.15 4.88 0 .18-.1.3-.12.46-.03.13-.09.32-.19.58a.17.17 0 0 1-.25.08c-.24-.18-.4-.41-.63-.58a18.92 18.92 0 0 1-.47-.37c-.03-.05.02-.08.06-.08l.45-.06c.02 0 .04-.01.04-.04Zm-.8-4.84c.16.14.33.25.51.32.07.03.12.03.14.01a.16.16 0 0 0 .05-.05.12.12 0 0 0 .02-.05l-.02-1.35a.2.2 0 0 0-.03-.11.18.18 0 0 0-.1-.07 1.27 1.27 0 0 0-.4-.07H22.8c-.03 0-.12 0-.1.06v.02l.17.17a.16.16 0 0 1 .05.12.16.16 0 0 1-.06.12c-.1.08-.17.2-.2.34 0 .04.03.08.08.07a.9.9 0 0 0 .26-.1c.3-.18.54.1.7.33.04.03.01.08-.03.09l-1.05.19c-.04 0-.07.04-.07.08l-.02.12c0 .06.02.08.08.08.36 0 .69-.04 1-.1.14-.03.26-.1.34-.21a.07.07 0 0 1 .1-.01Zm-3.08-.13c.27-.03.63-.13.89-.24a.06.06 0 0 0 .04-.06v-.63c0-.1-.05-.15-.15-.13l-1.53.28c-.06 0-.1.05-.09.11l.08 1.47c0 .06.06.1.12.1l1.5-.33c.04-.01.06-.03.08-.06a.14.14 0 0 0 .03-.1v-.02c-.02-.1-.07-.12-.14-.09l-.33.13a.3.3 0 0 1-.3-.05l-.25-.22c-.11-.1-.1-.15.05-.16Zm2.54.95c.24.14.5.26.77.35.08.02.1.14.03.2-.2.16-.37.36-.48.6-.08.16.59.2.65.2.06 0 .1.02.13.05a.2.2 0 0 1 .04.12v.03l-.03.02-.72.42a.13.13 0 0 0-.06.12.13.13 0 0 0 .07.1c.3.17.56.39.78.66.06.08.07.21.07.3 0 .04.01.06.03.07l.07.04c.03 0 .05 0 .06-.03a.5.5 0 0 0 .05-.25l-.06-2.17c0-.15-.03-.33-.09-.54a1.44 1.44 0 0 1-.05-.37.06.06 0 0 0-.03-.03h-.03c-.16 0-.25.02-.39-.02-.28-.1-.55-.1-.8-.02a1.7 1.7 0 0 1-.36.07c-.35.02-.62.03-.9.12-.24.08-.5.07-.76.16l-.73.19a.98.98 0 0 1-.29.03c-.08 0-.18-.02-.28-.05-.03-.01-.06.01-.06.05.04.67.08 1.2.03 1.8l-.04.63c0 .03.01.04.04.03a.33.33 0 0 0 .18-.07l.92-.88c.03-.03.01-.08-.03-.1-.19-.02-.31-.14-.37-.35a.72.72 0 0 1-.02-.33.07.07 0 0 0-.02-.06l-.22-.23c-.27-.27.6-.35.64-.37.3-.1.61-.16.92-.2.4-.06.68-.16 1.05-.23l.06-.03a.68.68 0 0 1 .1-.07c.02-.02.06 0 .13.04Zm-1.83.83.05.35c.02.07.97-.17 1.07-.2.25-.07.4-.13.39-.17l-.01-.06c0-.04-.16-.06-.42-.05a8.8 8.8 0 0 0-1.08.13Zm1 .73c-.05.02-.09.07-.11.17 0 .03 0 .05.04.06l.37.1c.07.02.13 0 .18-.05l.21-.22c.07-.06.05-.1-.03-.12a1.25 1.25 0 0 0-.65.06Zm-.08 1.56v.03c0 .03 0 .04.03.04l1.27-.02c.1 0 .13-.04.06-.1-.06-.05-.16-.08-.24-.14-.33-.28-.69-.51-1.08-.69-.06-.03-.1 0-.1.06-.02.2 0 .32.05.54.02.09.05.2.01.28Zm-.83-.35c.05-.06.29-.58.07-.52-.02 0-.03 0-.03.02l-.63.63a.46.46 0 0 1-.2.12l-.7.18c-.1.02-.15.05-.16.1a.58.58 0 0 0-.01.23c0 .03.02.06.04.08.02.02.05.03.08.03.6 0 1.19-.3 1.8-.31.08 0 .11-.04.1-.11l-.05-.06a3.45 3.45 0 0 0-.33-.36v-.02l.02-.01ZM45.4 26.08c-.4-.03-.74.15-1.15.13-.02 0-.05.02-.04.04.02.17.08.42.17.75.03.1-.03.15-.16.13-.3-.04-.46-.52-.54-.74-.02-.03-.04-.04-.07-.04-.38 0-.7.05-.94.32-.09.1-.21.13-.32.09-.34-.15-.7-.3-1.06-.48a.35.35 0 0 1-.15-.13c-.12-.19 2.01-.4 2.22-.43.1-.01.16-.1.14-.19-.1-.32-.23-.62-.42-.89-.03-.04 0-.1.04-.1a.32.32 0 0 1 .22 0c.2.08.4.14.62.2.1.02.16.07.17.15.03.14.03.3 0 .48 0 .03.02.06.05.07h.03l1.3-.05.03-.02a.05.05 0 0 0 .02-.04v-1.2c0-.02 0-.05.02-.07a.14.14 0 0 1 .05-.05.15.15 0 0 1 .15.01c.35.24.68.52.99.84.06.06.04.16-.04.2-.18.08-.31.17-.4.28-.03.03-.03.05.01.05.27.06.5.03.7-.1a.22.22 0 0 1 .22 0l.95.57c.18.1.23.25.15.43-.09.17-.26.21-.43.12-.36-.2-.7-.37-1.13-.36h-.67c-.03 0-.06.02-.07.05l-.28.55c-.06.13-.19.14-.31.14-.11 0-.15-.05-.13-.15l.1-.51c.02-.03 0-.05-.04-.05Z" fill="#80543F"/><path d="M43.61 28.23a.6.6 0 0 1 .39.03c.15.07.36.13.44.17a.9.9 0 0 0 .31.07c.16 0 .48-.04.62-.15a.09.09 0 0 0 .03-.07c0-.3-.02-.49-.06-.57a.75.75 0 0 0-.48-.43c-.12-.03-.13-.08-.04-.15.07-.05.15-.13.24-.15a.3.3 0 0 1 .13 0l1.33.32c.09.02.14.1.14.17 0 .03 0 .05-.02.07l-.3.53c-.04.06 0 .12.07.13.36.03.67-.02.94-.14a.24.24 0 0 1 .23 0c.16.1.33.23.5.37.13.1.2.24.05.36a.12.12 0 0 1-.07.03 1 1 0 0 0-.37.06.85.85 0 0 1-.33.07c-.27 0-.55 0-.83.02-.1.01-.17.06-.18.16l-.08.68c0 .03.03.07.07.07h.76c.1 0 .18.02.27.04.11.04.31.18.5.07l.18-.09a.17.17 0 0 1 .18.04l.71.75c.07.07.08.16.02.26-.11.17-.27.2-.48.1a7.26 7.26 0 0 0-.92-.34c-.51-.16-.89-.1-1.56-.08-.18.01-.33.03-.43.06-.28.07-.52.09-.78.2a44.77 44.77 0 0 0-.4.15.18.18 0 0 1-.09-.03l-.7-.5c-.04-.01-.06 0-.06.03-.07.46-.06.9.03 1.33.01.09-.03.13-.12.13-.3 0-.63-.26-.83-.46-.3-.28.12-.43.13-.71v-.74c0-.03-.02-.04-.05-.05a.66.66 0 0 0-.44.08c-.08.04-.14.15-.18.31-.05.2-.13.43-.24.71a.74.74 0 0 1-.24.33.16.16 0 0 1-.23-.04l-.36-.58v-.05c.15-.14.27-.34.39-.6v-.06a.1.1 0 0 0-.04-.05c-.1-.05-.18-.12-.26-.21-.04-.04-.01-.1.04-.12.17-.04.29-.08.36-.11a.83.83 0 0 1 .35-.09c.13 0 .33-.02.6-.06.05-.01.1-.04.13-.07a.2.2 0 0 0 .06-.12v-.09c.02-.11-.03-.15-.14-.1l-.65.23a.14.14 0 0 1-.08 0 1.43 1.43 0 0 1-.7-.34.08.08 0 0 1 .02-.1c.4-.4.49-.85.27-1.38-.03-.05.02-.12.09-.11.28.03.65.22.63.54-.01.23-.03.4-.05.53-.02.14.05.2.2.18l.3-.05c.13-.02.2-.1.2-.23l-.03-.55c0-.21-.1-.35-.29-.42-.1-.03-.16-.08-.17-.17-.01-.06.03-.1.09-.1.35-.02.7.06 1.03.21.16.08.23.17.21.34a3.5 3.5 0 0 0 0 .5c0 .03.02.04.04.03Zm.7 1a.41.41 0 0 1-.26-.23c-.1-.27-.26-.48-.45-.64-.02-.02-.04-.02-.05.02l-.06.34c-.02.27-.02.65 0 1.14.01.14.03.23.07.29.02.02.04.03.07.03.22.02.41 0 .58-.05.32-.1.53-.1.84-.21.13-.05.24-.05.37-.06.03 0 .06-.02.08-.04a.11.11 0 0 0 .03-.08v-.4c0-.06-.03-.09-.1-.09h-1.05l-.07-.01ZM36.56 31.08v-.02l-.03-.01h-2.01c-.14.01-.4.07-.8.18-.14.04-.2.1-.26.22a.2.2 0 0 1-.21.12.54.54 0 0 1-.35-.2l-.53-.64c-.17-.2-.06-.37.02-.58l.05-.22.11-.7c.1-.63-.1-1.28-.1-1.92 0-.04-.01-.1-.05-.16-.09-.14-.21-.3-.38-.45-.1-.1-.1-.19-.03-.27a.1.1 0 0 1 .07-.02c.24 0 .47.05.7.14.03.02.1.02.19 0 .05 0 .11-.02.19-.04.23-.08.46-.12.7-.13a.13.13 0 0 0 .11-.08c.2-.45.13-.8-.21-1.08a.13.13 0 0 0-.14-.02c-.14.05-.27.08-.4.08-.17.01-.2-.04-.32-.14-.2-.18-.34-.38-.43-.6a.15.15 0 0 1 .13-.2c.18 0 .4.05.57.05.51-.01 1.04-.03 1.6-.07.43-.02.97-.05 1.38-.17.28-.09.52-.32.83-.1.18.11.63.5.63.76.01.16-.05.26-.17.28-.14.03-.34-.06-.48-.1a.91.91 0 0 0-.2-.03h-1.01c-.04 0-.05.02-.04.05.04.1.1.24.1.34-.03.2-.04.4-.04.63 0 .07.03.1.1.13l.41.1a.22.22 0 0 0 .2-.04l.27-.22a.17.17 0 0 1 .2 0 4.7 4.7 0 0 0 1.04.52.13.13 0 0 1 .02.12c0 .02-.01.04-.03.05-.26.25-.42.55-.46.92l-.11.94c-.02.13-.01.4.02.79.03.23.04.49.04.79l.02 1.52c-.01.1-.02.2-.05.3a.14.14 0 0 1-.12.1h-.06l-.52-.24c-.1-.04-.16-.14-.16-.28v-.4Zm-1.98-5.53c.08.07.09.26.03.57-.02.13.03.18.15.15l.1-.02c.1-.02.16-.09.15-.2l-.05-.93c0-.04-.02-.06-.06-.06l-.7.04c-.13 0-.14.04-.04.12l.42.33Zm-1.28 3.56.02.01h.02c.24-.1.47-.15.68-.15.17 0 .35-.03.52-.08.28-.08.65-.1 1.1-.07.16.02.28.07.35.16.08.1.19.22.33.33.11.1.21 0 .2-.12a60.7 60.7 0 0 0-.1-.6.11.11 0 0 0-.04-.07.1.1 0 0 0-.08-.03c-.17 0-.59.05-.8-.06a.7.7 0 0 1-.4-.58 14.05 14.05 0 0 0-.14-1.1.07.07 0 0 0-.02-.03.33.33 0 0 0-.2-.02.08.08 0 0 0-.07.04.7.7 0 0 0-.06.15c-.1.43-.16.68-.19.75-.08.26-.22.52-.4.8-.1.12-.2.19-.3.2-.13.02-.26.03-.4.03a.07.07 0 0 0-.07.06c-.02.13 0 .25.05.38Zm3.04-2.44-.56.05h-.02v.02l.05.55c0 .12.04.23.08.3.05.08.1.12.16.12.3-.03.4-.14.37-.47l-.05-.55a.02.02 0 0 0-.03-.02Zm-2.5.2-.4.02a.11.11 0 0 0-.11.13c.05.3.05.59.01.87-.04.32.01.34.16.05a4.88 4.88 0 0 0 .4-1c0-.05-.02-.07-.06-.07Zm2.63 3.43-.03-.64c0-.02-.02-.04-.04-.04a6.26 6.26 0 0 1-.42-.1 1.36 1.36 0 0 0-.43.01c-.42.05-.91.08-1.48.1a.63.63 0 0 1-.37-.11l-.36-.26c-.04-.04-.06-.04-.06.02l.09 1.16c0 .03.01.05.04.05l.18-.03c.1-.03.17-.04.23-.04.5 0 1-.06 1.52-.15.36-.07.73-.05 1.1.05.02.01.03 0 .03-.02Z" fill="#80543F"/><path d="M31.3 26.12c.04-.16.08-.28.13-.37.13-.3.07-.51-.07-.81a.32.32 0 0 1-.02-.25l.04-.03h.05c.44.16.8.45 1.09.84.01.03.02.05 0 .07a.7.7 0 0 1-.26.33c-.1.07-.32.01-.44.03-.08.02-.16.08-.23.18l-.32.47a.93.93 0 0 0-.08.38c-.02.3.3.27.44.48.16.26-.08.54-.35.58-.07 0-.17-.03-.31-.1-.3-.15-.55-.36-.76-.64-.05-.07-.14-.13-.17-.24a.1.1 0 0 1 0-.05c.05-.23.66-.09.8-.09.22 0 .43-.62.47-.78ZM30.48 30.31a.1.1 0 0 0 .1-.02c.24-.23.5-.5.66-.81.19-.34.35-.67.48-.98.04-.09.1-.13.18-.1.02 0 .04.02.05.04.01.01.02.04.01.06-.1.72-.28 1.4-.57 2.05-.1.2-.08.4.05.55.1.13-.38.67-.5.7-.03 0-.05 0-.08-.02l-.17-.2c-.24-.35-.45-.68-.61-.98a.57.57 0 0 1-.08-.35c.03-.24.4.05.48.06ZM12.57 25.72l2.13 1.12a.1.1 0 0 1 .06.07c.02.15.48 1.33.07 1.35-.1 0-.2-.03-.28-.11l-.66-.72c-.14-.16-.3-.2-.47-.13-.35.14-.72.11-1.08.22-.6.2-1.15.46-1.66.8-.2.13-.38.1-.52-.06a4.65 4.65 0 0 0-.65-.6c-.09-.08-.13-.16-.12-.25a.06.06 0 0 1 .02-.04.06.06 0 0 1 .05 0c.18.05.37.08.56.07.1 0 .22-.03.35-.08.24-.08.44-.12.58-.38.11-.2.33-.71.66-1.53.08-.2.12-.38.19-.58a.13.13 0 0 0-.02-.13 1.9 1.9 0 0 0-.47-.43c-.15-.1-.14-.18.05-.24l.12-.04a.64.64 0 0 1 .52.06l1.1.61c.01.01.02.03 0 .04l-.57.84c-.04.06-.03.1.04.14Zm-.88 1.2c-.02.02-.01.04.02.05h.08c.33-.1.65-.15.98-.15a1.76 1.76 0 0 0 .54-.07v-.02a.04.04 0 0 0 0-.05l-.9-.86c-.03-.04-.06-.03-.08 0l-.64 1.1Z" fill="#80543F"/><path d="m9.1 26.46.01.02.01.01a.04.04 0 0 0 .04.01.54.54 0 0 1 .37.03 7.65 7.65 0 0 1 .78.42l.01.05c0 .05-.04.08-.1.1-.21.03-.42.09-.65.16-.14.04-.26.01-.42.02a.1.1 0 0 0-.07.03.1.1 0 0 0-.03.07v1.02c.04.7.06 1.26.06 1.67 0 .34.05.76.06 1.03 0 .1-.04.23-.12.39-.07.16-.1.28-.16.46 0 .03-.02.05-.05.05-.1 0-.16-.01-.19-.06-.09-.17-.2-.34-.33-.5a.2.2 0 0 1 0-.25c.13-.16.2-.34.2-.53.01-1.4-.01-2.4-.06-3a7.09 7.09 0 0 0-.08-.46.08.08 0 0 0-.03-.02l-.24-.08c-.08-.03-.08-.06-.01-.1l.31-.18a.08.08 0 0 0 .05-.08c-.04-.42-.07-.88-.09-1.38a3.05 3.05 0 0 0-.28-1.2.1.1 0 0 1 .03-.08.1.1 0 0 1 .04-.02l.1.01c.18.06.34.14.48.26l.5.49c.07.05.08.16.06.31-.06.31-.12.75-.2 1.33ZM7.35 26.44l.47.43c.04.04.05.08.05.12l-.2 1.8a.1.1 0 0 1-.04.06.1.1 0 0 1-.08.02c-.2-.03-.41-.51-.51-.77-.04-.1-.05-.18-.02-.25.2-.52.24-1 .14-1.44-.03-.13.03-.12.2.03ZM10.79 30.12c.05-.55-.17-.93-.65-1.15a.04.04 0 0 1-.02-.03.04.04 0 0 1 .01-.04c.12-.07.24-.12.39-.16.7-.17 1.53-.33 2.26-.34.15 0 .26-.04.36-.16a.16.16 0 0 1 .21-.03l1.3.94.04.07v.08c-.06.15-.24.24-.42.36-.25.17-.43.46-.48.73-.04.23.34.58.36.68 0 .08 0 .14-.03.17-.02.02-.04.02-.07 0-.31-.14-.6-.24-.85-.28a1.1 1.1 0 0 0-.4.01l-.39.1c-.32.09-.61.23-.88.42a.1.1 0 0 1-.14-.01l-.8-.98a.11.11 0 0 1-.02-.1.11.11 0 0 1 .05-.07c.08-.05.16-.09.17-.21Zm.69.04c0 .12.12.2.24.19l1.25-.22a.2.2 0 0 0 .12-.06.2.2 0 0 0 .05-.11l.08-.73a.2.2 0 0 0-.21-.22l-1.38.07a.2.2 0 0 0-.2.21l.05.87ZM10 33.57h37V34H10v-.43ZM10 37.57h37V38H10v-.43ZM45.02 35.8A11.88 11.88 0 0 0 45 35a2.67 2.67 0 0 0 .48 0 6 6 0 0 1 .81.05c.15.03.27.08.38.15.1.07.18.16.24.29.06.12.09.27.09.45a1.07 1.07 0 0 1-.32.77 1.12 1.12 0 0 1-.75.29 9.03 9.03 0 0 1-.82-.01L45 37a10.4 10.4 0 0 0 .02-.8v-.4Zm.46-.38v1.16a5.58 5.58 0 0 0 0 .25 5.41 5.41 0 0 0 .28 0c.11 0 .21-.01.3-.05a.6.6 0 0 0 .25-.17.75.75 0 0 0 .15-.28 1.33 1.33 0 0 0 0-.71.65.65 0 0 0-.37-.4.75.75 0 0 0-.29-.05 3.63 3.63 0 0 0-.32 0 4.43 4.43 0 0 1 0 .25ZM42.63 36.08h-.04v.12a9.91 9.91 0 0 0 .01.42l.01.2c0 .05 0 .12.02.18a9.5 9.5 0 0 0-.49-.01L42 37a8.47 8.47 0 0 0 .03-.8v-.4A9.67 9.67 0 0 0 42 35a4.06 4.06 0 0 0 .55 0 5.97 5.97 0 0 1 .88.05l.1.05c.08.04.14.1.18.16.05.06.07.13.07.22 0 .14-.05.26-.15.35a.93.93 0 0 1-.44.18l.39.5.42.49a93.24 93.24 0 0 1-.52-.01l-.17.01-.68-.92Zm.57-.54a.47.47 0 0 0-.04-.2.24.24 0 0 0-.1-.11.46.46 0 0 0-.19-.05l-.26-.01-.02.78a3.7 3.7 0 0 1 .09.01c.17 0 .3-.03.38-.1.1-.07.14-.18.14-.32ZM40.17 36.24a31.73 31.73 0 0 0-.28-.69 7.06 7.06 0 0 0-.3.7h.58ZM40.13 35a244.88 244.88 0 0 1 .44 1.07A35.66 35.66 0 0 0 41 37a16.97 16.97 0 0 1-.4-.01l-.14.01a15.03 15.03 0 0 0-.22-.6 109.64 109.64 0 0 0-.72 0 5.38 5.38 0 0 0-.22.6l-.07-.01A.7.7 0 0 0 39 37a39.99 39.99 0 0 0 .9-2 2.6 2.6 0 0 1 .11.01h.06l.06-.01ZM37.15 35.87l.14-.19a4.58 4.58 0 0 0 .38-.68 1.48 1.48 0 0 0 .24 0H38a7.55 7.55 0 0 0-.54.81l-.19.3a2.26 2.26 0 0 1 0 .28 10.08 10.08 0 0 0 .03.61 35.9 35.9 0 0 0-.44-.01l-.15.01.02-.28a2.28 2.28 0 0 0 .01-.55 10.92 10.92 0 0 0-.42-.67A20.13 20.13 0 0 0 36 35a7.35 7.35 0 0 0 .62 0 24.06 24.06 0 0 0 .52.87ZM34.02 35.8A14.03 14.03 0 0 0 34 35a6.82 6.82 0 0 1 .46.01h.18a52.4 52.4 0 0 0 .28 0L35 35a.76.76 0 0 0 0 .2v.05a16.57 16.57 0 0 0-.58-.03l-.02.31v.32a17.64 17.64 0 0 0 .59-.02 2.23 2.23 0 0 0-.01.13V36l.01.08-.59-.03a10.65 10.65 0 0 1 0 .37v.36a4.67 4.67 0 0 0 .6-.04 2.84 2.84 0 0 0-.01.13A1.3 1.3 0 0 0 35 37h-.17a5.45 5.45 0 0 0-.83 0 5.74 5.74 0 0 0 .02-.8v-.4ZM31.07 35.58a7.62 7.62 0 0 0-.02-.58.95.95 0 0 0 .29 0 442.51 442.51 0 0 0 1.4 1.38v-.53a19.75 19.75 0 0 0-.03-.85.91.91 0 0 0 .29 0 18.22 18.22 0 0 0-.05 1.03V37l-.07-.01a.54.54 0 0 0-.19.01 28.48 28.48 0 0 0-1.4-1.4l-.01.33v.34a18.8 18.8 0 0 0 .02.73 20.63 20.63 0 0 0-.15-.01L31 37l.01-.1a25.63 25.63 0 0 0 .06-1.32ZM29 35c.18.02.36.02.54 0-.04.79-.04 1.21 0 2a2.35 2.35 0 0 0-.54 0c.04-.79.04-1.21 0-2ZM27.12 36.45a21.03 21.03 0 0 0 .6-1.45.82.82 0 0 0 .28 0l-.19.41a50.3 50.3 0 0 0-.68 1.59 5.33 5.33 0 0 0-.2-.01l-.07.01a6.17 6.17 0 0 0-.27-.64A22.58 22.58 0 0 0 26 35a6.09 6.09 0 0 0 .56 0 7.28 7.28 0 0 0 .26.71 371.14 371.14 0 0 0 .3.74ZM22.02 35.8A14.03 14.03 0 0 0 22 35a6.82 6.82 0 0 1 .46.01h.18a52.4 52.4 0 0 0 .28 0L23 35a.76.76 0 0 0 0 .2v.05a16.57 16.57 0 0 0-.58-.03l-.02.31v.32a17.64 17.64 0 0 0 .59-.02 2.23 2.23 0 0 0-.01.13V36l.01.08-.59-.03a10.65 10.65 0 0 1 0 .37v.36a4.67 4.67 0 0 0 .6-.04 2.84 2.84 0 0 0-.01.13A1.3 1.3 0 0 0 23 37h-.17a5.45 5.45 0 0 0-.83 0 5.74 5.74 0 0 0 .02-.8v-.4ZM20.98 36.64l-.05.12a.6.6 0 0 0-.02.12l-.3.09a2.03 2.03 0 0 1-.9-.04 1.17 1.17 0 0 1-.39-.2.87.87 0 0 1-.24-.3 1.04 1.04 0 0 1 .03-.86.93.93 0 0 1 .29-.32c.12-.09.26-.15.42-.19a2.06 2.06 0 0 1 .87-.02 2.02 2.02 0 0 1 .31.1.77.77 0 0 0-.08.28h-.04a.81.81 0 0 0-.26-.19.77.77 0 0 0-1 .41.99.99 0 0 0-.07.39c0 .14.02.26.07.36.04.1.1.19.18.25.07.07.16.11.25.14a.95.95 0 0 0 .89-.16l.04.02ZM17.17 36.24a31.73 31.73 0 0 0-.28-.69 7.06 7.06 0 0 0-.3.7h.58ZM17.13 35a244.88 244.88 0 0 1 .44 1.07A35.66 35.66 0 0 0 18 37a16.97 16.97 0 0 1-.4-.01l-.14.01a15.03 15.03 0 0 0-.22-.6 109.64 109.64 0 0 0-.72 0 5.38 5.38 0 0 0-.22.6l-.07-.01A.7.7 0 0 0 16 37a39.99 39.99 0 0 0 .9-2 2.6 2.6 0 0 1 .11.01h.06l.06-.01ZM13.63 36.08h-.04v.12a9.91 9.91 0 0 0 .01.42l.01.2c0 .05 0 .12.02.18a9.5 9.5 0 0 0-.49-.01L13 37a8.47 8.47 0 0 0 .03-.8v-.4A9.67 9.67 0 0 0 13 35a4.06 4.06 0 0 0 .55 0 5.97 5.97 0 0 1 .88.05l.1.05c.08.04.14.1.18.16.05.06.07.13.07.22 0 .14-.05.26-.15.35a.93.93 0 0 1-.44.18l.39.5.42.49a93.24 93.24 0 0 1-.52-.01l-.17.01-.68-.92Zm.57-.54a.47.47 0 0 0-.04-.2.24.24 0 0 0-.1-.11.46.46 0 0 0-.19-.05l-.26-.01-.02.78a3.7 3.7 0 0 1 .09.01c.17 0 .3-.03.38-.1.1-.07.14-.18.14-.32ZM11.84 35.45a.72.72 0 0 0-.6-.28.73.73 0 0 0-.51.22.82.82 0 0 0-.17.27c-.05.11-.07.24-.07.39 0 .1.02.21.05.3a.67.67 0 0 0 .68.47h.19a.6.6 0 0 0 .08-.02l.06-.02v-.09a2.87 2.87 0 0 0 0-.44l-.01-.15.07.01a2.13 2.13 0 0 0 .39-.01l-.01.07v.12l-.01.14V36.67a1.94 1.94 0 0 0 0 .2 4.19 4.19 0 0 1-.8.13c-.17 0-.33-.02-.47-.06-.15-.05-.27-.11-.38-.2a.84.84 0 0 1-.33-.68c0-.17.03-.33.1-.46a.9.9 0 0 1 .26-.33c.1-.1.24-.16.39-.2a1.73 1.73 0 0 1 1.21.1 9.61 9.61 0 0 0-.08.28h-.04ZM46.05 18.62l-.2.89h.04c.13.04.23.02.3-.05a.84.84 0 0 0 .2-.35l.06.01-.26 1.14-.06-.01a.94.94 0 0 0 0-.33.36.36 0 0 0-.1-.2.5.5 0 0 0-.21-.1l-.14.62-.04.22c0 .03.02.06.04.09.02.02.06.04.12.05l.12.04a.7.7 0 0 0 .49-.02.78.78 0 0 0 .34-.37l.06.01-.25.67-1.75-.46.01-.06.07.02h.15c.03 0 .05-.03.08-.06a.72.72 0 0 0 .06-.2l.33-1.43.03-.19a.17.17 0 0 0-.03-.1.26.26 0 0 0-.15-.09l-.07-.01.02-.06 1.69.45-.15.64-.05-.01c0-.17-.01-.3-.05-.37a.48.48 0 0 0-.18-.21 1.18 1.18 0 0 0-.31-.12l-.21-.05ZM44.7 18.12l-.2.75-.06-.02c0-.2-.03-.38-.13-.52a.65.65 0 0 0-.36-.28.57.57 0 0 0-.37.01.66.66 0 0 0-.31.24c-.1.14-.18.31-.23.51a2 2 0 0 0-.07.55c0 .17.05.31.12.43.08.1.2.18.35.23a.7.7 0 0 0 .37.01c.12-.03.26-.1.4-.2l-.04.18c-.14.1-.28.15-.42.17a1.25 1.25 0 0 1-.98-.35 1.05 1.05 0 0 1-.29-.51 1.25 1.25 0 0 1 .3-1.14 1.09 1.09 0 0 1 1.53-.07c.08.06.13.1.16.1a.1.1 0 0 0 .09 0 .21.21 0 0 0 .07-.11l.06.02ZM41.13 18.87l-.71-.17-.13.2a.5.5 0 0 0-.08.16c-.01.07 0 .12.04.16.03.02.09.05.2.08l-.02.06-.67-.16v-.06a.3.3 0 0 0 .2-.05c.06-.04.14-.14.25-.3l1.07-1.58h.03l.38 1.98c.03.18.07.3.1.36.03.04.08.07.14.1l-.01.05-.99-.22.01-.06H41c.07.02.13.02.17 0 .02 0 .04-.03.05-.06v-.06l-.02-.13-.06-.3Zm-.02-.13-.16-.83-.46.68.62.15ZM38.07 17.92l-.1.62a.79.79 0 0 0-.03.23l.06.09c.03.02.1.04.19.06l-.01.06-1.05-.2.01-.07c.1.02.16.02.2.01a.16.16 0 0 0 .08-.06.7.7 0 0 0 .06-.22l.25-1.43c.02-.12.03-.2.02-.23a.16.16 0 0 0-.06-.1.47.47 0 0 0-.19-.06l.01-.06.95.2a2 2 0 0 1 .54.16.6.6 0 0 1 .3.63.53.53 0 0 1-.24.37.65.65 0 0 1-.32.1l.36.84.1.21c.04.04.09.07.14.08v.07l-.65-.13-.49-1.14-.13-.03Zm.19-1.09-.17.97.08.02c.14.03.25.04.33.02a.32.32 0 0 0 .18-.11.58.58 0 0 0 .11-.28c.03-.16.02-.3-.04-.4-.06-.09-.17-.15-.33-.18l-.16-.04ZM36.8 16.58l-.1.78h-.05c-.04-.23-.12-.41-.24-.54a.7.7 0 0 0-.43-.24.54.54 0 0 0-.4.09c-.12.08-.2.2-.27.36a2.08 2.08 0 0 0-.13 1.08c.03.16.09.3.18.38.1.1.22.15.36.17a.74.74 0 0 0 .32-.02l.06-.46a.53.53 0 0 0 0-.17.17.17 0 0 0-.06-.09.25.25 0 0 0-.12-.05h-.05v-.06l1 .14v.06a.4.4 0 0 0-.16.02.16.16 0 0 0-.08.07.5.5 0 0 0-.04.15l-.06.46a1.88 1.88 0 0 1-.88.07c-.2-.03-.35-.08-.47-.16a1.3 1.3 0 0 1-.32-.28 1.12 1.12 0 0 1-.23-.87c.04-.33.19-.6.44-.8.24-.2.53-.27.86-.23l.28.07.2.1c.1.06.15.1.17.1.03 0 .06 0 .09-.02a.3.3 0 0 0 .08-.12h.06ZM30.34 17.3l-.04.7a.8.8 0 0 0 0 .2l.07.09.14.04h.07v.06l-1.1-.07.01-.06h.07c.06 0 .11 0 .15-.02a.15.15 0 0 0 .06-.08c.02-.02.03-.09.03-.2l.09-1.48a.8.8 0 0 0 0-.21.16.16 0 0 0-.07-.08.25.25 0 0 0-.14-.05h-.07v-.06l1.1.07v.06h-.08c-.06 0-.1 0-.15.02a.15.15 0 0 0-.06.08.73.73 0 0 0-.03.2l-.04.64.74.05.03-.64a.8.8 0 0 0 0-.21.16.16 0 0 0-.07-.08.26.26 0 0 0-.13-.04h-.07v-.07l1.09.07v.07h-.07c-.07-.01-.11 0-.15.02a.15.15 0 0 0-.07.07.73.73 0 0 0-.03.2l-.08 1.48a.8.8 0 0 0 0 .22c.01.03.03.06.07.08.03.02.08.04.13.04h.07v.07l-1.09-.08v-.06h.07c.06.01.11 0 .15-.02a.15.15 0 0 0 .07-.07l.03-.21.04-.7-.74-.04ZM28.92 16.03v.61h-.06a1 1 0 0 0-.1-.3.43.43 0 0 0-.17-.15.49.49 0 0 0-.2-.03h-.16v1.74c0 .11 0 .18.02.21 0 .03.03.06.06.08.04.02.09.03.15.03h.06v.06h-1.09v-.06h.07c.06 0 .11-.01.15-.04a.16.16 0 0 0 .06-.07c.01-.03.02-.1.02-.21v-1.74h-.15c-.14 0-.24.03-.3.1a.66.66 0 0 0-.18.38h-.05v-.6h1.87ZM26.4 18.18v.06l-1.09.07v-.06h.07c.06 0 .1-.02.14-.05a.15.15 0 0 0 .06-.08.74.74 0 0 0 0-.2l-.08-1.48a.8.8 0 0 0-.03-.22.15.15 0 0 0-.07-.07.25.25 0 0 0-.14-.02h-.07v-.06l1.09-.07v.06h-.07c-.06.01-.1.02-.14.05a.16.16 0 0 0-.06.08.74.74 0 0 0 0 .21l.08 1.48c0 .11.01.18.02.21.02.03.04.05.08.07.03.02.08.03.14.03h.07ZM24.57 16.08v.06a.2.2 0 0 0-.1.05.26.26 0 0 0-.05.1l-.07.26-.47 1.92h-.06l-.65-1.37-.42 1.5-.06.01-.87-1.74a2 2 0 0 0-.17-.32c-.04-.04-.08-.05-.15-.05v-.06l.9-.1v.05c-.07.01-.12.03-.14.06a.1.1 0 0 0-.03.08c0 .04.04.13.1.26l.52 1.03.24-.88-.11-.23c-.06-.12-.1-.2-.14-.24a.24.24 0 0 0-.1-.09.3.3 0 0 0-.14 0l-.01-.07 1-.12v.06a.52.52 0 0 0-.14.04.1.1 0 0 0-.05.04.1.1 0 0 0 0 .07c0 .02.02.1.08.22l.49 1.02.24-1 .04-.21v-.1a.13.13 0 0 0-.05-.1c-.03-.03-.08-.03-.17-.03v-.06l.54-.06ZM17.66 17.08l.14.9h.04c.13-.02.22-.09.26-.18.05-.1.07-.24.06-.41l.05-.01.18 1.16h-.06a.9.9 0 0 0-.12-.29.33.33 0 0 0-.16-.14.48.48 0 0 0-.23 0l.09.62c.02.12.03.2.05.22.01.03.03.05.06.06.03.01.07.02.13 0l.13-.02c.19-.03.33-.1.44-.22.1-.12.16-.28.18-.48l.06-.01V19l-1.77.3v-.05l.06-.01c.06-.01.1-.03.14-.06a.15.15 0 0 0 .05-.1l-.02-.2-.21-1.46-.04-.18a.15.15 0 0 0-.07-.08.25.25 0 0 0-.16-.02l-.07.01-.01-.06 1.72-.3.1.66h-.06a.82.82 0 0 0-.17-.32.44.44 0 0 0-.25-.11c-.06-.01-.17 0-.32.02l-.22.04ZM16.3 17.35l.02.06a.35.35 0 0 0-.18.17c-.03.07-.07.2-.12.43l-.39 1.83-.05.01-1.02-1.6c-.12-.2-.2-.3-.24-.34-.04-.03-.1-.04-.17-.03l-.02-.06.98-.21.01.06h-.03c-.09.03-.14.05-.17.08a.09.09 0 0 0-.02.08 4.33 4.33 0 0 0 .15.26l.63 1 .22-1.06a2.84 2.84 0 0 0 .05-.36.15.15 0 0 0-.04-.08.15.15 0 0 0-.09-.04h-.17l-.01-.05.67-.15ZM14 19.95l.01.06-1.05.31-.01-.06.06-.02c.06-.01.1-.04.13-.07a.16.16 0 0 0 .04-.1c0-.02 0-.1-.03-.2l-.36-1.43a.78.78 0 0 0-.07-.2.15.15 0 0 0-.09-.05.25.25 0 0 0-.14 0l-.07.02-.01-.05 1.05-.32.01.06-.06.02a.28.28 0 0 0-.14.08.16.16 0 0 0-.04.1l.04.2.36 1.42c.03.11.05.18.07.2.02.03.05.05.09.06.04.01.08 0 .14 0l.07-.03ZM12.2 19.72l.1.79-1.78.49-.02-.06.07-.02c.06-.01.1-.04.13-.07a.16.16 0 0 0 .04-.1c0-.02 0-.1-.03-.2l-.34-1.43a.78.78 0 0 0-.06-.2.15.15 0 0 0-.09-.06.25.25 0 0 0-.14 0l-.07.02-.01-.06 1.08-.3.01.07-.09.02a.28.28 0 0 0-.13.07.16.16 0 0 0-.04.1c0 .02 0 .1.03.2l.33 1.39c.02.11.05.18.06.2.02.04.05.05.09.06l.18-.04.17-.04c.1-.03.2-.08.26-.14.06-.06.1-.14.13-.24.04-.1.05-.25.06-.43l.06-.02Z" fill="#80543F"/></svg>