<!-- by TradingView --><svg width="56" height="56" viewBox="0 0 56 56" xmlns="http://www.w3.org/2000/svg"><path fill="#F0F3FA" d="M0 0h56v56H0z"/><path d="M28.52 18.72c-.53-.02-.85-.25-.97-.7-.1-.42-.01-.83.28-1.24.39-.53.65-.79.8-.78.13 0 .36.28.7.84.27.43.33.84.2 1.25-.16.44-.5.65-1.01.63Z" fill="#94C13B"/><path d="M20.11 17.13c.67.11 1.24.52 1.71 1.24.13.2.15.41.05.64a.66.66 0 0 1-.5.4c-1.08.23-1.67-.38-1.76-1.82-.02-.36.14-.51.5-.46Z" fill="#60B63A"/><path d="M35.95 19.5c.63-.54.87-1.29.54-1.67-.32-.4-1.1-.27-1.72.27-.63.54-.87 1.29-.54 1.68.33.38 1.1.26 1.72-.28Z" fill="#DFE03C"/><path d="M25.49 21.28c-.51.1-.87-.06-1.09-.46-.2-.38-.2-.8 0-1.26.24-.6.43-.9.56-.93.14-.03.44.19.9.64.35.35.5.74.46 1.17-.05.46-.32.73-.83.84ZM31.84 19.24a.43.43 0 0 1 .39.05c.12.08.18.2.2.34.14 1.47-.36 2.18-1.49 2.14a.67.67 0 0 1-.58-.34.65.65 0 0 1-.05-.65c.36-.8.87-1.32 1.53-1.54Z" fill="#94C13B"/><path d="M14.18 20c1 .14 1.75.49 2.24 1.05.13.15.18.32.16.51a.58.58 0 0 1-.27.44c-.5.34-1.03.26-1.57-.22-.5-.43-.77-.93-.84-1.5-.01-.2.08-.3.28-.28Z" fill="#60B63A"/><path d="M41.81 20.38c.22-.01.31.1.27.32-.11.59-.45 1.1-1.02 1.5-.61.46-1.17.5-1.67.1a.62.62 0 0 1-.24-.5.64.64 0 0 1 .2-.5 3.63 3.63 0 0 1 2.46-.92Z" fill="#DFE03C"/><path d="M19.1 20.89c1 .11 1.76.45 2.27 1.01.13.15.19.31.17.5a.6.6 0 0 1-.26.46c-.5.35-1.03.28-1.59-.2-.5-.42-.8-.92-.88-1.49-.02-.21.07-.3.28-.28Z" fill="#60B63A"/><path d="M37.09 21.03c.22-.03.31.07.29.29-.07.58-.36 1.1-.87 1.55-.57.5-1.1.57-1.62.23a.6.6 0 0 1-.28-.46.65.65 0 0 1 .16-.53c.51-.58 1.28-.94 2.32-1.08Z" fill="#DFE03C"/><path d="M28.53 22.72c.13 0 .38.28.75.83.3.43.37.85.24 1.27-.13.46-.47.68-1 .68s-.87-.22-1-.68c-.13-.42-.05-.84.23-1.27.38-.55.64-.83.78-.83ZM24.55 23.37c.69.11 1.26.53 1.72 1.26.13.2.14.42.04.65a.66.66 0 0 1-.51.4c-1.1.22-1.68-.4-1.75-1.85-.02-.37.15-.52.5-.46Z" fill="#94C13B"/><path d="M32.39 25.5c.41-.64.4-1.4-.05-1.7-.44-.28-1.14.02-1.55.67-.42.65-.4 1.4.04 1.7.44.28 1.14-.01 1.56-.66Z" fill="#DFE03C"/><path d="M15.48 23.72c1 .14 1.76.5 2.25 1.08.13.15.18.32.15.51a.58.58 0 0 1-.27.44c-.51.34-1.04.26-1.59-.23-.5-.44-.77-.95-.83-1.53-.02-.21.08-.3.29-.27Z" fill="#60B63A"/><path d="M45.77 23.73c.22.04.28.17.2.38-.26.55-.7.97-1.35 1.24-.71.3-1.27.2-1.67-.3a.64.64 0 0 1-.12-.54c.04-.2.14-.35.32-.46a3.66 3.66 0 0 1 2.62-.32Z" fill="#DFE03C"/><path d="M10.04 24.3c-.08-.14-.04-.22.12-.24 1.1-.1 1.99.1 2.69.6a.6.6 0 0 1 .25.67.6.6 0 0 1-.5.48c-1.05.2-1.9-.31-2.56-1.5Z" fill="#60B63A"/><path d="M39.59 25.8c.85-.35 1.4-.98 1.22-1.42-.18-.43-1.01-.5-1.86-.14-.86.36-1.4 1-1.23 1.43.18.43 1.01.5 1.87.14Z" fill="#DFE03C"/><path d="M21.76 24.98a3.5 3.5 0 0 1 2.27 1.06c.13.15.19.32.16.51a.6.6 0 0 1-.27.45c-.5.34-1.03.27-1.59-.22-.5-.44-.78-.94-.85-1.52-.02-.21.07-.3.28-.28Z" fill="#94C13B"/><path d="M34.77 27.06c.83-.37 1.36-1 1.17-1.42-.18-.42-1-.46-1.83-.1-.84.38-1.36 1.01-1.18 1.43.18.42 1 .46 1.84.1ZM43.72 26.66c.22.01.3.13.24.34a2.4 2.4 0 0 1-1.13 1.4c-.65.4-1.2.37-1.66-.06a.63.63 0 0 1-.2-.5c.01-.2.1-.37.26-.5.6-.5 1.44-.72 2.5-.68Z" fill="#DFE03C"/><path d="M27.01 28.62c-.25-.3-.22-.59.08-.84l.35-.29c.35-.28.72-.43 1.12-.43.41 0 .73.14.96.42l.04.05c.23.28.3.62.22 1.02-.09.4-.3.75-.64 1.03l-.35.28c-.3.26-.59.23-.84-.08l-.94-1.16Z" fill="#D32D27"/><path d="M28.44 30.85c1.06 0 1.8-.12 2.22-.36l1.11-.7c2.05-1.29 3.56-2 4.53-2.14.17-.03.18 0 .04.1-2.72 1.9-4.63 3.7-5.73 5.45-1.3 2.05-1.94 4.6-1.9 7.63.01.78-.08 1.17-.27 1.17-.2 0-.29-.39-.28-1.17.04-3.04-.59-5.58-1.9-7.63-1.1-1.74-3-3.56-5.72-5.44-.14-.1-.13-.14.04-.11.97.14 2.48.85 4.52 2.14l1.12.7c.42.24 1.16.36 2.22.36Z" fill="#D32D27"/><path d="M14.3 27.68c-.85-.26-1.64-.14-1.76.27-.12.4.48.93 1.33 1.19.85.25 1.64.13 1.76-.27.12-.4-.48-.94-1.33-1.2Z" fill="#60B63A"/><path d="M39.14 28.72A2.46 2.46 0 0 1 38 30.14c-.65.4-1.21.4-1.68-.04a.63.63 0 0 1-.2-.51c0-.2.1-.37.25-.5.61-.5 1.46-.74 2.53-.7.22 0 .3.12.24.33Z" fill="#DFE03C"/><path d="M18.33 29.5a3.58 3.58 0 0 1 2.54.34c.17.1.27.26.31.46.04.2 0 .37-.13.52-.4.48-.93.57-1.62.27a2.36 2.36 0 0 1-1.29-1.23c-.08-.2-.02-.32.19-.36Z" fill="#94C13B"/></svg>