<!-- by TradingView --><svg width="56" height="56" viewBox="0 0 56 56" xmlns="http://www.w3.org/2000/svg"><path fill="#F0F3FA" d="M0 0h56v56H0z"/><path d="M37 23.29 38 21h13c-2.58 1.2-7.56 5.69-10.82 14H35l.16-.37C37.23 31.06 41.89 24.66 49 22c-2.82.75-8.44 3.44-12.74 10.04L40 23.29h-3ZM23.62 25H26c-.28 0-.63.43-.77.64l-2.67 5.74L25.92 35h-4.08l-.71-.69c-.22.51-.9.67-1.22.69H18c.6 0 1.17-.73 1.38-1.1l4.24-8.9ZM12.55 21H8l6 7 1.55-3.37-3-3.63Z" fill="#D6000F"/><path d="M22.83 24h8.11L32 21H19.73c-.7 0-1.33.4-1.63 1.02L13.34 32H9.07L8 35h8.45c.69 0 1.32-.4 1.62-1.03L22.83 24ZM37 21h-4.07L28 35h6.83L36 32h-2.87L37 21Z" fill="#D6000F"/></svg>