<!-- by TradingView --><svg width="56" height="56" viewBox="0 0 56 56" xmlns="http://www.w3.org/2000/svg"><path fill="url(#akvdfntt5)" d="M0 0h56v56H0z"/><path d="M7.48 26.27c.73 0 1.29.24 1.5.73h1.49c-.21-.82-.99-2-2.99-2C5.47 25 4 26.35 4 28.5 4 30.61 5.63 32 7.63 32a3.6 3.6 0 0 0 2.8-1.26V28h-3.1v1.29H9v.9c-.33.24-.73.5-1.33.5-1.25 0-2.15-.92-2.15-2.21 0-1.3.72-2.2 1.96-2.2Zm19.52.88c-.38-.2-.82-.3-1.32-.3a2.5 2.5 0 0 0-2.64 2.56c0 1.4 1 2.58 2.64 2.58.5 0 .94-.12 1.32-.3V32h1.29v-7H27v2.15Zm-1.34 3.7c-.8 0-1.27-.67-1.27-1.43 0-.75.46-1.42 1.27-1.42.8 0 1.27.67 1.27 1.43 0 .75-.47 1.42-1.27 1.42Zm5.95-4c-.5 0-.9.1-1.3.3V25H29v7h1.3v-.32c.39.2.81.3 1.3.3a2.5 2.5 0 0 0 2.64-2.57 2.5 2.5 0 0 0-2.63-2.57Zm0 4c-.8 0-1.27-.67-1.27-1.43 0-.75.46-1.42 1.27-1.42.8 0 1.27.67 1.27 1.43 0 .75-.46 1.42-1.27 1.42Zm12-4c-.5 0-.91.1-1.3.3V25H41v7h1.31v-.32c.39.2.8.3 1.3.3a2.5 2.5 0 0 0 2.62-2.57 2.5 2.5 0 0 0-2.63-2.57Zm0 4c-.82 0-1.28-.67-1.28-1.43 0-.75.46-1.42 1.27-1.42.8 0 1.27.67 1.27 1.43 0 .75-.46 1.42-1.27 1.42Zm7-3.85-1.28 3.37L48.04 27h-1.4l2.02 5.28-.08.16-.33.89-.05.15c-.14.27-.35.36-.7.36h-.13L46.9 35h.63c.85 0 1.52-.29 1.89-1.2l.17-.45L52 27h-1.38ZM38.71 27.3c-.38-.19-.82-.3-1.32-.3-1.64 0-2.64 1.14-2.64 2.49 0 1.36 1 2.5 2.64 2.5.5 0 .94-.11 1.32-.3V32H40v-5h-1.29v.3Zm-1.34 3.58c-.81 0-1.27-.64-1.27-1.38 0-.73.46-1.38 1.27-1.38.8 0 1.27.65 1.27 1.38.01.74-.47 1.38-1.27 1.38ZM13.89 27c-1.64 0-2.62 1.14-2.62 2.5s.98 2.5 2.62 2.5c1.65 0 2.63-1.14 2.63-2.5 0-1.34-.98-2.5-2.63-2.5Zm0 3.9c-.81 0-1.27-.65-1.27-1.4 0-.73.46-1.37 1.27-1.37.8 0 1.26.64 1.26 1.38 0 .74-.44 1.38-1.26 1.38ZM19.94 27c-1.63 0-2.61 1.14-2.61 2.5s.98 2.5 2.61 2.5c1.66 0 2.64-1.14 2.64-2.5 0-1.34-.98-2.5-2.64-2.5Zm0 3.9c-.8 0-1.27-.65-1.27-1.4 0-.73.47-1.37 1.27-1.37.81 0 1.27.64 1.27 1.38 0 .74-.44 1.38-1.27 1.38Z" fill="#fff"/><defs><linearGradient id="akvdfntt5" x1="10.42" y1="9.71" x2="68.15" y2="76.02" gradientUnits="userSpaceOnUse"><stop stop-color="#1A1E21"/><stop offset="1" stop-color="#06060A"/></linearGradient></defs></svg>