<!-- by TradingView --><svg width="56" height="56" viewBox="0 0 56 56" xmlns="http://www.w3.org/2000/svg"><path fill="#F0F3FA" d="M0 0h56v56H0z"/><path d="M40.9 14c.07 0 .1.04.1.1v18.47c0 .13-.06.23-.17.3a25.25 25.25 0 0 1-6.13 2.87 21.7 21.7 0 0 1-6.64 1.02 11.66 11.66 0 0 1-5.36-1.2 6.51 6.51 0 0 1-3.44-4.11c-.55-1.97-.2-4.11 1.03-6.45 1.01-1.9 2.41-3.6 4.2-5.14a.06.06 0 0 0 .02-.06c0-.02 0-.02-.02-.01a20.5 20.5 0 0 0-6.7 6.87 10.92 10.92 0 0 0-1.26 3.26 7.25 7.25 0 0 0 0 3.48c.6 2.13 2 3.69 4.2 4.67 1.8.8 3.9 1.13 6.33 1.02 2.41-.1 4.83-.62 7.25-1.53a28.05 28.05 0 0 0 6.6-3.56c.06-.05.09-.03.09.05v7.83c0 .08-.04.12-.12.12H14.12c-.08 0-.12-.04-.12-.13V14.09c0-.06.03-.09.09-.09H40.9Zm-8.82 4.77a4.97 4.97 0 0 0-5.31-1.88c-1.87.4-3.6 1.42-5.19 3.07V20c.01.02.03.02.04.01l.75-.5a7.98 7.98 0 0 1 3.2-1.28 5.6 5.6 0 0 1 3 .28c.94.38 1.68 1 2.23 1.87.58.93.89 2.08.9 3.45a11.6 11.6 0 0 1-1.8 6.3 13.84 13.84 0 0 1-4.62 4.62c-.16.1-.15.11.03.05a11.1 11.1 0 0 0 4.45-3.15 14.82 14.82 0 0 0 2.82-4.76c.5-1.38.75-2.78.72-4.19a6.42 6.42 0 0 0-1.22-3.93Zm14.81 9.25c.02-.02.05-.03.08 0 .03.02.04.04.02.07a22.95 22.95 0 0 1-5.82 5.81.1.1 0 0 1-.11.01.1.1 0 0 1-.06-.09v-.77c0-.13.06-.24.18-.31a24.24 24.24 0 0 0 5.71-4.72Z" fill="#1D4199"/></svg>