<!-- by TradingView --><svg width="56" height="56" viewBox="0 0 56 56" xmlns="http://www.w3.org/2000/svg"><path d="M0 28a28 28 0 1 1 56 0 28 28 0 0 1-56 0Z" fill="#181B1E"/><path d="M9 22H5v1h4v-1Z" fill="#D12520"/><path d="M5 24h3s1 0 1 1v2h1s0 1-.09 1.57c-.2.37-.91.82-.91.82v3.72s.04.89-.8.89h-.7v-6h-1v4.92S6.5 34 5.73 34H5v-6.66s.23-.84.97-.84h1.3v-.98H5V24Z" fill="#F0F3FA"/><path fill-rule="evenodd" d="M11 32V22h3.7c1.47 0 1.3 1.69 1.3 1.69V34h-6v-2h1Zm3.5-8v2h-2v-2h2Zm0 3h-2v2h2v-2Zm-2 3h2v2h-2v-2Z" fill="#F0F3FA"/><path d="M17 24h3.5s.41-1.04.3-2h1.95l-.2 2h3.97c1.18 0-.3-1.39-.48-2h1.68l1.06 1.78s.23.47.22.9c0 .4-.21.82-.94.82H25V28l2.5-1.5 1.5 1-4 2.5v1.61s.29.89 1.04.89H28s0 1.5-.89 1.5h-3.12s-.96-.43-.96-1v-2l-1.53 1v-2l1.53-1v-2.66s-.1-.64-.86-.81l-1.95 6.76S19.8 34 18.82 34H17v-1.42s1.3.35 1.64-.97C19 30.3 20 25.5 20 25.5l-3 .03V24Z" fill="#D12520"/><path fill-rule="evenodd" d="M31.5 22H30v1.34l-.3.07V25h.3v4l1 2-1 1v2l2-1.5 1 1.5h1.56L33 30.97c.95-1.2 1-2.47 1-2.47V25h.25v-1.45H34V22h-1.5v1.48h-1V22Zm1 3h-1v3.5l.5 1 .5-1V25ZM41 26h-6v-3c0-.98 1-1 1-1h3.97c1.06 0 1.03 1 1.03 1v3Zm-4.5-2.5h3V25h-3v-1.5Z" fill="#F0F3FA"/><path d="M35 27h6v1.5h-2v1h2V31h-2.4v.5h.93l.84 1h2.13l.67-2.5h1.8l-.71 2.7S44 34 43.16 34H39.7l-1.19-1.5H38l-.5 1.5h-2l1.14-2.57s.03-.43-.61-.43H35v-1.5h2v-1h-2V27Z" fill="#F0F3FA"/><path d="M52 22v.5s-.06 1-1 1h-7.5V27H46v-2s1.4.15 1.5 1v1H51s.97.15 1 1.5h-4.5V30h1.98c1.47.18.02 2.5 2.52 2.5V34h-1.98S49 34 49 33s0-2-1.5-2v2.11s.03.89-.77.89H46v-4s0-1.5-.75-1.5h-2s-1.25.14-1.25-1V23s-.04-1 1-1h9Z" fill="#F0F3FA"/></svg>