<!-- by TradingView --><svg width="56" height="56" viewBox="0 0 56 56" xmlns="http://www.w3.org/2000/svg"><path fill="#F0F3FA" d="M0 0h56v56H0z"/><path d="M27.84 17.23a37.84 37.84 0 0 0-2.67 4.75L14.1 22c-.06 0-.1-.04-.1-.1v-5.54c0-.79.1-1.35.28-1.68.25-.45.73-.68 1.43-.68h24.72c1 0 1.51.6 1.54 1.77.04 1.88.04 3.94 0 6.16 0 .05-.02.07-.06.07h-11.1a.24.24 0 0 1-.23-.14l-2.61-4.73c-.01-.03-.03-.04-.06-.04-.08.01-.1.06-.07.14Z" fill="#004A83"/><path d="M25.28 21.74A38.6 38.6 0 0 1 28 17v7.13c-.04.64.44.88 1 .87h3.38c.13 0 .22.13.28.24l.32.6a.1.1 0 0 1 0 .1.1.1 0 0 1-.08.06h-9.76a.13.13 0 0 1-.12-.07.14.14 0 0 1 0-.15l2.26-4.04Z" fill="#BE2B19"/><path d="m22.4 27.04-4.3 7.46-.35.61-3.52 6.21a.16.16 0 0 0-.02.1c.01.07 0 .12-.02.15-.06.06-.1.05-.13-.04a.2.2 0 0 0-.06-.1V27.08c0-.06.03-.09.09-.09l8.3.04ZM42 41.55c-.16 0-.24-.06-.24-.19a.13.13 0 0 0-.03-.1l-.25-.25-3.67-6.47a.17.17 0 0 0-.16-.1l-.21.02c.13-.14.18-.23.15-.29-.1-.2-.23-.41-.38-.64l-3.73-6.42c-.05-.07-.03-.11.06-.11h8.33c.08 0 .12.04.12.12v14.43Z" fill="#004A83"/><path d="M37.21 33.53c.15.23.27.45.38.64.03.06-.02.15-.15.29l-19.33.04L22.4 27h4.93c.38 0 .67.23.67.58v5.36c0 .37.08.55.42.55 2.93 0 5.86.02 8.8.04ZM41.48 41l.25.26c.02.02.03.06.03.1 0 .12.08.18.24.18 0 .13 0 .25-.04.35-.02.07-.07.11-.14.11H14.15c-.07 0-.1-.04-.12-.11l-.03-.47c.03.02.05.06.06.1.02.1.07.1.13.04.02-.03.03-.07.02-.14 0-.03 0-.07.02-.1l3.52-6.3 9.74-.02c.1 0 .2.04.29.12.07.08.22.18.22.3 0 1.6-.03 3.23 0 4.9 0 .36.13.68.52.68 6.26.02 10.43-.02 12.5 0 .07 0 .22-.05.46 0Z" fill="#BE2B19"/></svg>