<!-- by TradingView --><svg width="56" height="56" viewBox="0 0 56 56" xmlns="http://www.w3.org/2000/svg"><path fill="#F0F3FA" d="M0 0h56v56H0z"/><path fill-rule="evenodd" d="M19 9h18v7c0 .33-.2 1-1 1h-6v1h7v2h-7v2h7v2h-7v2h7v2H18v-2h8v-2h-7v-2h-1v-2.5c.67-.33 2-1.3 2-2.5h-1V9Zm3 2v1h11v-1H22Zm0 3h11v1H22v-1Zm4 3h-4c.8 0 1 .67 1 1h3v-1Zm-4 4h4v1h-5l1-1ZM18 30c.67-.17 2-.7 2-1.5h3v.5h14v6c0 .33-.2 1-1 1H23v1h14v2H23v1h14v6c0 .33-.2 1-1 1h-4v-1H19v-3h3v1h2v-2h-5v-9.5h-1V30Zm5 2v-1h10v1H23Zm0 3v-1h10v1H23Zm4 7h7v2h-1v-1h-3v1h-3v-2Z" fill="#C22026"/></svg>