<!-- by TradingView --><svg width="56" height="56" viewBox="0 0 56 56" xmlns="http://www.w3.org/2000/svg"><path fill="#F0F3FA" d="M0 0h56v56H0z"/><path d="M28 37c11.05 0 20-4.03 20-9s-8.95-9-20-9-20 4.03-20 9 8.95 9 20 9Zm-6.37-12H19c0-1.54.72-5 3.95-5 2.59 0 3.67 1.76 3.89 2.64A4.28 4.28 0 0 1 30.83 20c3.3 0 5.17 3.19 5.17 4.93v2.38c0 2.68 1.87 4.3 3 4.78L38.18 35c-3.97-.96-5.1-5.53-5.18-7.7v-2.25c0-1.03-.78-1.86-1.73-1.86s-1.72.83-1.72 1.86V26h2.19c.7 0 1.26.67 1.26 1.5s-.57 1.5-1.26 1.5h-2.2v6H26.5v-2.55c-.15.85-.91 2.55-3.3 2.55-3.52 0-4.26-3.4-4.2-5h2.75s-.01 2.04 1.45 2.04c1.16 0 1.42-1.11 1.4-1.67 0-1.45-1.42-1.68-2.14-1.6h-.48c-.47 0-.86-.42-.86-.94v-.75c0-.51.39-.93.86-.93h.48c1.56 0 1.8-.84 1.8-1.38 0-.55-.15-1.58-1.45-1.58-1.05 0-1.23 1.23-1.18 1.81Zm5.65 1h2.22v3h-2.22c-.7 0-1.28-.74-1.28-1.5s.58-1.5 1.28-1.5Z" fill="#EE1C23"/></svg>