<!-- by TradingView --><svg xmlns="http://www.w3.org/2000/svg" width="56" height="56"><path fill="#04518D" d="M0 0h56v56H0z"/><path d="M39.34 12H16.66A4.66 4.66 0 0012 16.66v22.68A4.66 4.66 0 0016.66 44h22.68A4.66 4.66 0 0044 39.34V16.66A4.66 4.66 0 0039.34 12zM28 39.32a11.33 11.33 0 110-22.65 11.33 11.33 0 010 22.65z" fill="#fff"/><path d="M35.37 27.67a9.9 9.9 0 01-7.03-7.05.34.34 0 00-.66.03 9.9 9.9 0 01-7.06 7.03.34.34 0 00.03.65 9.9 9.9 0 017.04 7.03.34.34 0 00.65-.01 9.9 9.9 0 017.03-7.02.35.35 0 00.25-.33.35.35 0 00-.25-.33z" fill="#fff"/></svg>