<!-- by TradingView --><svg width="56" height="56" viewBox="0 0 56 56" xmlns="http://www.w3.org/2000/svg"><path fill="#F0F3FA" d="M0 0h56v56H0z"/><path d="M44 21.97a4.36 4.36 0 0 0-2.52-.04c-.75 0-1.5.05-2.24.15-.52.08-.9.12-1.14.13-.55.02-1.23.03-1.46.35a.1.1 0 0 1-.1.04.1.1 0 0 1-.07-.07.89.89 0 0 1-.06-.45v-.15l-.23-.83c.05-.47.04-.83-.04-1.06a8.87 8.87 0 0 0-2.03-3.43 9.63 9.63 0 0 0-4.61-2.66 7.58 7.58 0 0 0-2.46-.2c-1.05.03-1.99.18-2.82.45a13.98 13.98 0 0 0-7.23 5.19 15.44 15.44 0 0 0-2.55 5.41c-.18.73-.28 1.47-.3 2.23-.02.5-.02.97 0 1.42.02.74.13 1.48.33 2.21a9.6 9.6 0 0 0 3.83 5.59c.6.42 1.27.75 2 1.01.65.24 1.37.41 2.16.53.69.1 1.2.14 1.76-.15.05-.03.05-.04-.01-.04-.3 0-.77 0-1.42-.03-.25 0-.4-.1-.63-.12a2.2 2.2 0 0 1-.47-.08c-.56-.18-1-.31-1.34-.4a5.17 5.17 0 0 1-1.06-.44c-.51-.29-.84-.49-1-.6a9.41 9.41 0 0 1-3.69-6.08c-.04-.25-.06-.44-.04-.6 0-.05-.03-.23-.11-.52a1.9 1.9 0 0 1-.06-.5v-1.65c0-.05.02-.1.05-.14.05-.07.07-.12.07-.16.02-.45.09-.9.21-1.37l.44-1.45.4-.08-.1.6c-.06.14 0 .24.2.31.4.15.7.3.87.44a.2.2 0 0 0-.09-.02c-.06 0-.09.04-.1.1-.32.99-.44 3-.19 4.65.18 1.15.55 2.2 1.13 3.15.29.48.7 1.03 1.24 1.68.18.21.4.41.63.6l.6.48a7.03 7.03 0 0 0 3.18 1.43c.98.2 1.93.27 2.86.2a8.83 8.83 0 0 0 4.95-1.96c.47-.38.89-.69 1.26-.92.02.13.05.19.07.15-.12.08-.15.19-.07.31.08.14.21.32.41.55l4.58 5.46c.02.03.02.06-.02.1l-1.14.84c-.43.31-.84.58-1.25.8a22.17 22.17 0 0 1-4.64 1.94c-.07.02-.07.05-.03.1.05.04.15.09.3.13-1.3.3-2.6.47-3.9.5-1.73.03-3.37-.25-4.91-.84-.96-.37-1.98-.9-3.06-1.62a11.29 11.29 0 0 1-2.31-1.99 16.8 16.8 0 0 1-2.75-4.32A15.05 15.05 0 0 1 12.03 31c-.03-.55-.04-1.28-.02-2.2.02-.78.15-1.67.38-2.68l.17-.8c.04-.3.1-.57.16-.82.03-.15.1-.32.2-.52l.1-.36.13-.35c.23-.52.48-1.05.76-1.59.05-.09.17-.35.36-.8.12-.27.27-.53.44-.77l.92-1.35c.18-.33.44-.66.77-1 .12-.12.4-.44.82-.97.12-.16.27-.3.44-.44.2-.15.35-.29.45-.41.27-.33.58-.63.94-.91a22.75 22.75 0 0 1 3.22-2.12 15.9 15.9 0 0 1 6.24-1.85 15.68 15.68 0 0 1 9.07 2.09c.9.53 1.9 1.41 2.73 2.17.27.25.53.58.78 1l1.96 3.15c.3.5.62 1.32.95 2.5Z" fill="#AE3E31"/><path d="M36.18 21.1a13.1 13.1 0 0 0-1.42-3.25c-.28-.46-.64-.82-1.02-1.22a8.7 8.7 0 0 0-5.03-2.5c-.57-.08-1.14-.14-1.72-.18a.35.35 0 0 0 .05-.2c.87-.06 1.7 0 2.46.2a9.63 9.63 0 0 1 4.6 2.66c.92.95 1.6 2.1 2.04 3.43.08.23.1.59.04 1.06Z" fill="#C26E50"/><path d="M27.04 13.75c0 .09-.01.16-.05.2l-2.4.4c-1.84.45-3.48 1.3-4.92 2.58a7.9 7.9 0 0 0-1.65 1.6l-.92 1.2a11.39 11.39 0 0 0-1.94 3.73l-.44 1.45-.28-.1c.5-2 1.35-3.8 2.55-5.42a13.98 13.98 0 0 1 7.23-5.2c.83-.26 1.77-.4 2.82-.44Z" fill="#fff"/><path d="M27 13.95c.57.04 1.14.1 1.71.18a8.7 8.7 0 0 1 5.03 2.5l-.2 1.6a8.73 8.73 0 0 0-4.74-2.49 12.7 12.7 0 0 0-2.88.06l-.86.15-.46-1.6 2.4-.4Z" fill="#AE3E31"/><path d="m24.6 14.35.46 1.6c-.67.17-1.32.38-1.95.65a9.21 9.21 0 0 0-3.16 2.15c.5-.75.2-1.23-.28-1.82a11.42 11.42 0 0 1 4.93-2.58Z" fill="#C26E50"/><path d="m36.18 21.1.22.83c.01.05.02.1.01.15a.9.9 0 0 0 .06.45.1.1 0 0 0 .08.07.1.1 0 0 0 .09-.04c.23-.32.9-.33 1.46-.35.24-.01.62-.05 1.14-.13.75-.1 1.5-.15 2.24-.15l-.27 1.86-4.33.22a1.5 1.5 0 0 1-.37.08.3.3 0 0 1-.22-.08.32.32 0 0 1-.1-.2 9.45 9.45 0 0 0-1.16-3.6c-.16-.3-.2-.72-.49-.93-.15-.1-.28-.22-.37-.34-.24-.31-.4-.48-.63-.72l.2-1.59c.38.4.74.76 1.02 1.22a13.1 13.1 0 0 1 1.42 3.25Z" fill="#705143"/><path d="M19.67 16.93c.48.59.77 1.07.28 1.82-.63.65-1.86 1.74-2.05 2.58-.6.11-1.06.25-1.39.42-.42.22-.86.68-.57 1.16.04.07.14.14.3.2l.3.18c.1.07.09.1-.02.1-.24 0-.48-.05-.7-.13a.16.16 0 0 0-.15 0 .27.27 0 0 0-.11.12l-.4.08a11.39 11.39 0 0 1 1.94-3.74l.92-1.19a7.91 7.91 0 0 1 1.65-1.6Z" fill="#D39072"/><path d="M34.8 20.16a6.55 6.55 0 0 0 .08 2.17.17.17 0 0 1-.08.1 1839 1839 0 0 0-2.72.3c-.1.02-.17.08-.2.19-.13-.05-.2-.02-.18.08l-.02-1.13c.05-.03.06-.09.05-.18.1-.43.1-.85.01-1.26a.24.24 0 0 0-.2-.2 4.5 4.5 0 0 0-2.65.48.18.18 0 0 0-.1.16v2.04c.01.06-.02.1-.08.1l-2.16.2c-.05-.22-.08-.37-.03-.6.03-.18.04-.37.03-.58 0-.06-.02-.1-.07-.1a.06.06 0 0 0-.05.04.33.33 0 0 1-.02.04c-.05.05-.08.05-.08-.03v-.04a.13.13 0 0 1 .05-.1c.12-.09.13-.22.03-.39l.05-1.25c0-.06.02-.12.06-.17.04-.04.1-.08.16-.09l2.2-.42a.2.2 0 0 1 .14.03l.1.05c.04.03.1.03.14.01a10.4 10.4 0 0 1 3.48-.76c.4-.02.77.03 1.13.15.53.16.84.55.93 1.16Z" fill="#2C5FA8"/><path d="m31.73 21.69-.04-.91c0-.2-.1-.31-.3-.33a4.76 4.76 0 0 0-2.27.42.14.14 0 0 0-.1.14v2.1c0 .06-.02.1-.09.1l-2.54.17c-.01-.02-.04-.03-.07-.03.05-.13.13-.18.23-.14l2.16-.2c.06 0 .09-.04.09-.1v-2.05c0-.03 0-.06.02-.09a.17.17 0 0 1 .07-.06 4.5 4.5 0 0 1 2.65-.48.24.24 0 0 1 .2.2c.09.4.08.83 0 1.26ZM35.18 22.68c-1 .17-2.02.28-3.04.34-.13 0-.22-.03-.25-.1.02-.11.08-.17.19-.18a1707.57 1707.57 0 0 1 2.72-.3.17.17 0 0 0 .08-.11v-.07a6.55 6.55 0 0 1-.08-2.1c.2.57.31 1.18.32 1.8 0 .18.02.42.06.72Z" fill="#A698C4"/><path d="M26.4 21.45c.11.17.1.3-.02.39a.13.13 0 0 0-.05.1v.04c0 .08.03.08.08.03l.02-.04a.06.06 0 0 1 .05-.03c.05 0 .07.03.07.09.01.2 0 .4-.03.58-.05.23-.02.38.03.6-.1-.04-.18.01-.23.14-.1.25-.12.54-.09.86a.29.29 0 0 1-.15.29 75.11 75.11 0 0 1-1.8.12.58.58 0 0 1-.4-.12.14.14 0 0 0-.11-.02c-.6.22-1.24.3-1.9.26-.59-.04-.95-.34-1.42-.63 0-.05.02-.08.04-.11.02-.02.06-.03.1-.04a6.7 6.7 0 0 0 2.35-.5c.07 0 .13.02.19.05v.04c.01.04.04.06.08.06l1.81-.1c.04 0 .09-.02.12-.05a.19.19 0 0 0 .05-.12l.27-3.07c0-.1.03-.1.09-.03l.86 1.21Z" fill="#161330"/><path d="M23.13 23.51a.36.36 0 0 0-.19-.05l.1-.06c.09-.18.04-.23-.14-.15a5 5 0 0 1-2.82.36.51.51 0 0 1-.32-.18.49.49 0 0 1-.1-.35l-.04-.29c.06-.04.08-.1.04-.19l.26-.78c.02-.09.02-.28-.02-.6.38-.19.84-.3 1.4-.31.03-.03.07-.03.1 0 .02 0 .03.01.04.03v.04c-.1.59-.17 1-.2 1.26-.04.2-.04.36-.01.45.05.15.21.21.49.2.41-.04.73-.13.96-.27 0-.02 0-.04.02-.05.25 0 .4-.1.42-.28.13-1.06.2-1.64.2-1.73.01-.04.03-.07.07-.07l1.77-.23c.06-.01.08.01.08.07l-.25 2.92c0 .04-.02.08-.05.1a.15.15 0 0 1-.1.05l-1.71.11Z" fill="#2C5FA8"/><path d="M31.73 21.69c.01.1 0 .15-.05.18a.14.14 0 0 0-.12-.05 4.61 4.61 0 0 0-1.82.32.18.18 0 0 0-.1.16v1.9c0 .03-.02.06-.04.08a.12.12 0 0 1-.08.04l-2.29.13a.1.1 0 0 1-.08-.03c-.26-.26-.5-.54-.74-.84a.15.15 0 0 1-.04-.1c0-.03 0-.07.02-.1l2.54-.17c.07 0 .1-.04.1-.1v-2.1c0-.07.03-.12.1-.14a4.76 4.76 0 0 1 2.25-.42c.2.02.3.12.31.33l.04.91Z" fill="#161330"/><path d="m21.72 20.84-.29 1.66a.23.23 0 0 0 .05.2.22.22 0 0 0 .18.07c.13 0 .26-.04.4-.11.04-.02.08-.04.13-.04h.49c-.23.14-.55.23-.96.26-.28.02-.44-.04-.5-.2a1.05 1.05 0 0 1 .01-.44 73.32 73.32 0 0 1 .2-1.3.07.07 0 0 0-.02-.04c-.04-.02-.08-.02-.1 0a.4.4 0 0 1 .4-.06Z" fill="#A698C4"/><path d="M21.72 20.84c.3.23.59.5.85.76.13.14.2.29.2.45a1.62 1.62 0 0 1-.1.57h-.48c-.05 0-.1.02-.14.04a.92.92 0 0 1-.39.1.22.22 0 0 1-.18-.07.23.23 0 0 1-.05-.19l.29-1.66Z" fill="#514A8A"/><path d="M19.2 21.24c-.13-.03-.2 0-.24.06-.1.19-.14.43-.14.74a1.91 1.91 0 0 0-1.6.03.7.7 0 0 0-.23.09c-.17.11-.15.18.05.2.16.01.35 0 .56-.04.35-.07.7-.07 1.03 0-.16.02-.11.08.15.17a.36.36 0 0 1 .22.44c-.09.28-.28.5-.55.64-.72.4-1.52.58-2.41.55-.34.02-.53-.03-.58-.15l.1-.59c.03-.05.06-.09.1-.11.06-.03.1-.03.15-.01.23.08.47.13.7.13.12 0 .13-.03.04-.1-.1-.07-.2-.13-.32-.17-.15-.07-.25-.14-.29-.2-.29-.5.15-.95.57-1.17.33-.17.8-.3 1.4-.42.28 0 .6-.04.94-.13a.53.53 0 0 1 .36.04Z" fill="#2C5FA8"/><path d="m19.2 21.24-.17.85.01.08c.01.03.03.05.05.06l.57.37c.04.09.02.15-.04.2-.12-.1-.24-.16-.37-.2-.19-.14-.4-.24-.62-.27a2.47 2.47 0 0 0-1.03-.01c-.21.04-.4.05-.56.04-.2-.02-.22-.09-.05-.2a.7.7 0 0 1 .22-.09c-.07.1 0 .16.18.2h.06l1.37-.23c0-.3.04-.55.14-.74.03-.07.11-.09.25-.06Z" fill="#161330"/><path d="M19.9 21.22c.04.32.04.51.02.6l-.26.78-.57-.37a.13.13 0 0 1-.05-.06.14.14 0 0 1 0-.08l.17-.85.42.3c.04.04.09.05.14.04.12-.03.16-.14.13-.36Z" fill="#514A8A"/><path d="m44 21.97-1.13 1.58a.24.24 0 0 1-.18.1l-1.48.14.27-1.86a4.36 4.36 0 0 1 2.52.04Z" fill="#161330"/><path d="m18.82 22.04-1.37.22h-.06c-.19-.03-.25-.1-.18-.19a1.91 1.91 0 0 1 1.61-.03ZM18.63 22.33c.23.03.43.13.62.28.14.2.12.35-.05.47a.21.21 0 0 0-.08.11l-.02.07a.3.3 0 0 1-.08.12c-.41.4-.82.66-1.22.77-.56.15-1.15.14-1.76-.03.89.03 1.7-.16 2.41-.55.27-.14.46-.36.55-.64a.36.36 0 0 0-.02-.26.35.35 0 0 0-.2-.18c-.26-.09-.31-.14-.15-.16Z" fill="#A698C4"/><path d="m19.62 22.8.04.28c-.01.13.03.25.1.35.08.1.2.16.32.18a5 5 0 0 0 2.82-.36c.18-.08.23-.03.14.15l-.1.06a6.7 6.7 0 0 1-2.35.5c-.04 0-.08.02-.1.04a.15.15 0 0 0-.04.11c-.04-.02-.07-.01-.1.03-.36.44-.65.57-1.22.73-.19.05-.39.08-.6.09-.55.02-.98.03-1.3.02a1.2 1.2 0 0 1-.7-.25 3.1 3.1 0 0 0-.88-.44c-.18-.07-.25-.17-.2-.32.06.12.25.17.59.15.61.17 1.2.18 1.76.03.4-.11.8-.36 1.22-.77a.29.29 0 0 0 .08-.12l.02-.07a.21.21 0 0 1 .08-.1c.17-.13.19-.29.05-.48.13.03.25.1.37.18Z" fill="#514A8A"/><path d="M35.18 22.68v1.2c0 .05-.02.08-.04.1a.14.14 0 0 1-.1.05l-2.8.15a.22.22 0 0 1-.22-.15L31.7 23c-.02-.1.05-.13.19-.08.03.07.12.1.25.1 1.02-.06 2.04-.17 3.04-.34Z" fill="#161330"/><path d="m17.4 23.1-.7-.07c-.03 0-.04-.01-.05-.03 0 0 0-.02.02-.02l.79-.08h.12c.03 0 .07.02.1.04.03.01.05.03.06.06.02.02.02.05.02.07v.1c-.01.08-.05.1-.12.06l-.2-.12a.13.13 0 0 0-.04-.01Z" fill="#A698C4"/><path d="m14.44 24.8.28.11c-.12.46-.2.92-.2 1.37 0 .04-.03.09-.08.16a.25.25 0 0 0-.04.14v1.65c0 .2.01.36.05.5.08.3.11.47.1.53a9.41 9.41 0 0 0 3.74 6.67c.16.11.49.31 1 .6.32.17.68.32 1.06.43l1.34.4c.13.05.29.08.47.1.22 0 .38.1.63.11l1.42.03c.06 0 .06 0 0 .04-.54.29-1.06.25-1.75.15a11.1 11.1 0 0 1-2.16-.53 8.62 8.62 0 0 1-2-1.01 9.6 9.6 0 0 1-3.83-5.59 9.4 9.4 0 0 1-.34-2.2v-1.43c.03-.76.13-1.5.3-2.23Z" fill="#C26E50"/><path d="m37.42 40.38-5.35-6.1c-.02.03-.05-.03-.07-.16.22-.12.4-.09.55.1.71.83 2.23 2.55 4.54 5.16.21.23.32.57.33 1Z"/><path d="m32.07 34.27 5.35 6.11c.09-.06.17.05.23.34a.16.16 0 0 1-.06.17c-2.16 1.53-4 2.6-6.48 3.4-.3.1-.6.17-.9.21a.88.88 0 0 1-.3-.14c-.04-.04-.04-.07.03-.09a21.45 21.45 0 0 0 7.03-3.59c.04-.03.04-.06.02-.09-1.77-2.13-3.3-3.94-4.58-5.46-.2-.23-.33-.41-.41-.55-.08-.12-.05-.23.07-.3Z" fill="#D39072"/></svg>