<!-- by TradingView --><svg width="56" height="56" viewBox="0 0 56 56" xmlns="http://www.w3.org/2000/svg"><path fill="#F0F3FA" d="M0 0h56v56H0z"/><path d="m23.83 22.31-.9-.6a8.05 8.05 0 0 0-9-.06 7.5 7.5 0 0 0-3.12 7.53 7.85 7.85 0 0 0 2.55 4.61 7.26 7.26 0 0 0 4.9 1.97c1.8.02 3.5-.56 5.12-1.74.14-.1.16-.23.06-.38l-6.82-10.43a.1.1 0 0 1 0-.1c.01-.04.04-.11.08-.11h2.5c.1 0 .2.1.26.19l4.16 6.02c.07.1.13.1.2 0l4.11-6.03c.06-.09.15-.18.25-.18h2.31c.15 0 .23.12.23.28v10.57c0 .1-.05.15-.15.15h-2.5c-.06 0-.07-.03-.07-.1v-6.19c0-.03-.03-.05-.06-.06-.03-.01-.06 0-.08.02a213.02 213.02 0 0 0-4.2 6.23 6.53 6.53 0 0 1-4.6 2.96c-1.34.22-2.6.18-3.8-.11-3.89-.95-6.23-3.17-7.02-6.65a8.68 8.68 0 0 1 1.04-6.6 9.26 9.26 0 0 1 8.44-4.49 7.36 7.36 0 0 1 6.2 3.2c.02.04.02.06 0 .09-.03.03-.06.03-.09.01ZM38.99 33.9c.03.07 0 .1-.06.1H36.5a.22.22 0 0 1-.22-.14l-1.81-3.9a.2.2 0 0 0-.2-.11h-2.56c-.14 0-.22-.08-.22-.23V28.3c0-.16.08-.24.24-.24 1.24.02 2.22.02 2.94.02.84 0 1.4-.12 1.66-.36.44-.4.57-.95.38-1.63-.2-.71-.69-1.07-1.48-1.07h-3.56c-.12 0-.18-.07-.18-.19v-1.6c0-.11.05-.17.16-.17 1.25-.06 2.5-.07 3.76-.01a3.8 3.8 0 0 1 1.96.63c.64.42 1.05.95 1.24 1.61.24.86.24 1.69.01 2.48-.24.84-.73 1.5-1.45 1.98-.07.05-.09.1-.05.19l1.86 3.97ZM42.9 31.52c1.74-.26 2.62-.75 2.62-1.47.02-1.7.03-4 .01-6.9 0-.1.05-.15.14-.15h2.2c.1 0 .13.05.12.14l.01 6.64c0 .92-.1 1.58-.29 2a3.61 3.61 0 0 1-2.03 1.81c-.85.34-1.77.47-2.77.39-.1-.01-.14-.06-.14-.16v-2.14c0-.1.04-.14.13-.16ZM41.87 23h-2.24a.13.13 0 0 0-.13.14v10.72c0 .08.06.14.13.14h2.24c.07 0 .13-.06.13-.14V23.14a.13.13 0 0 0-.13-.14Z" fill="#9C6A2F"/><path d="M18.9 34.08h-2.3c-.07 0-.1-.04-.1-.1v-9c0-.04.02-.07.07-.09.04-.01.07 0 .1.04l2.31 3.52a.1.1 0 0 1 .02.06v5.47c0 .06-.03.1-.1.1Z" fill="#F4D237"/></svg>