<!-- by TradingView --><svg width="56" height="56" viewBox="0 0 56 56" xmlns="http://www.w3.org/2000/svg"><path fill="#F0F3FA" d="M0 0h56v56H0z"/><path fill-rule="evenodd" d="M12.06 26.02a.17.17 0 0 0 .05-.12c0-.06.03-.08.07-.08h.98c.04 0 .07.02.07.07v5.4c0 .19-.03.33-.09.42-.06.11-.18.17-.35.18-.3.02-.6 0-.9-.03-.03 0-.04 0-.04.03v.04c0 .04.02.06.05.06.53.09.8.4.81.92 0 .06.03.08.08.09.78.02 1.26-.08 1.43-.3a.7.7 0 0 0 .13-.44V24.3c0-.05.01-.1.04-.13l.28-.3c.04-.03.04-.07 0-.11-.28-.3-.61-.55-1.01-.75-.05-.02-.09-.01-.13.03l-.39.42a.16.16 0 0 1-.11.05c-.5.02-.78.01-.85-.02a15.3 15.3 0 0 0-1-.4c-.04-.01-.05 0-.05.03v3c0 .03.01.05.05.06.27.03.53 0 .77-.08a.27.27 0 0 0 .11-.08Zm1.13-2.25h-1.05c-.02 0-.04.02-.04.04v.76c0 .02.02.05.04.05h1.05c.02 0 .04-.03.04-.05v-.76c0-.02-.02-.04-.04-.04Zm-.01 1.08h-1.04c-.02 0-.04.03-.04.05v.63c0 .03.02.06.04.06h1.04c.03 0 .05-.03.05-.06v-.63c0-.03-.02-.05-.05-.05ZM52 27.79v-.26a12.02 12.02 0 0 1-2.95-.4 5.81 5.81 0 0 1-1.82-.87c-.05-.04-.05-.06.02-.09l.14-.05c.18-.06.18-.13 0-.21l-1.56-.73c-.04-.02-.07-.06-.07-.12v-.18c0-.06.03-.08.08-.08h1.37c.05 0 .07.02.08.07v.2c0 .18.01.29.05.35.05.1.16.15.34.17.4.04.75.02 1.08-.05.07-.01.1-.06.1-.14v-.53c0-.05.03-.07.07-.07h2.58c.06 0 .1-.03.14-.1a.17.17 0 0 0 0-.17c-.22-.37-.5-.68-.84-.91-.1-.07-.18-.06-.26.02l-.48.5a.21.21 0 0 1-.16.08h-.97c-.06 0-.08-.03-.08-.09v-.35c0-.06.02-.1.07-.14l.22-.13c.05-.03.07-.07.06-.14-.01-.06-.05-.1-.1-.1l-1.66-.25c-.08-.01-.11.02-.11.1v1.04c0 .04-.02.06-.06.06h-1.44c-.06 0-.09-.03-.09-.1v-.37c0-.05.03-.1.07-.12.12-.07.2-.13.25-.18.08-.1.06-.16-.06-.18a9.05 9.05 0 0 0-1.85-.27c-.05 0-.08.03-.08.08v1.1c0 .02 0 .03-.02.03h-2.27c-.03 0-.04.01-.03.04l.3.55h1.97c.04 0 .06.02.06.06v.72c0 .05.02.08.07.08h.95c.04 0 .05.01.03.04-.25.4-.47.71-.67.93a11.14 11.14 0 0 1-3.1 2.49.13.13 0 0 0-.08.13c0 .04.02.06.06.05a9.32 9.32 0 0 0 2.94-1.05 13.74 13.74 0 0 0 2.6-1.84c.05-.05.1-.05.14.02.47.81 1.06 1.47 1.76 1.96.04.04.04.07 0 .1l-.53.46a.2.2 0 0 1-.13.05h-.74c-.05 0-.08-.03-.08-.09v-.6a.1.1 0 0 1 .05-.1l.2-.12c.07-.04.09-.09.08-.16-.02-.07-.06-.1-.12-.12l-1.74-.26c-.06 0-.08.02-.08.08v1.32c0 .04-.02.06-.06.06h-2.37c-.07 0-.1.04-.08.1l.08.34c.02.05.05.08.1.08h2.3c.03 0 .04.02.04.05v1.5c0 .19-.02.31-.06.39-.1.18-.43.23-.97.15h-.08c-.03-.01-.05 0-.07 0a.08.08 0 0 0-.04.04c-.02.06 0 .1.04.12l.37.19c.4.18.59.49.58.94 0 .06.03.09.08.09.27 0 .6-.03 1.02-.1.46-.1.7-.37.72-.82.02-.7.02-1.54 0-2.5 0-.04.03-.06.07-.06h2.24a.1.1 0 0 0 .09-.05.1.1 0 0 0 0-.11l-.28-.52c-.05-.08-.03-.1.06-.08l1.67.51c.06.02.08 0 .09-.06.01-.6.27-1.08.76-1.42ZM4.84 23.46c.18.14.33.28.45.44.06.07.11.22.17.46.06.27.13.46.21.55.16.17.37.23.64.18.36-.07.56-.28.6-.64.06-.47-.17-.8-.7-1-.38-.13-.82-.19-1.32-.15-.16.01-.17.07-.05.16Zm12.9.53a2.33 2.33 0 0 0-.46-.41c-.12-.1-.11-.15.04-.16.5-.05.92-.01 1.3.12.53.18.76.5.72.96-.04.35-.23.57-.58.64-.26.05-.47 0-.63-.16a1.24 1.24 0 0 1-.23-.54 1.26 1.26 0 0 0-.17-.45Zm-9.28 1.87v6.7c0 .19-.1.3-.27.33l-.7.1c-.2.03-.28-.06-.27-.26.05-.6.07-.99.07-1.19a4490.3 4490.3 0 0 0-.02-7.7l-.03-.79c0-.04.02-.06.07-.05.42.13.85.28 1.3.46.05.02.25.02.58 0 .04 0 .08-.02.1-.05l.3-.32c.08-.09.17-.1.27-.04l.75.47c.1.07.12.15.03.25l-.19.2a.17.17 0 0 0-.04.12v1.82c0 .1-.05.16-.14.17l-.76.06c-.1 0-.14-.04-.14-.13v-.13c0-.07-.03-.1-.09-.1h-.75c-.05 0-.07.03-.07.08Zm.05-2.14h.8c.04 0 .06.03.06.06v.7c0 .04-.03.07-.06.07h-.8c-.03 0-.06-.03-.06-.07v-.7c0-.03.03-.06.06-.06Zm0 1.07h.81c.03 0 .05.02.05.05v.65c0 .03-.02.06-.05.06H8.5c-.02 0-.05-.03-.05-.06v-.65c0-.03.02-.05.05-.05Zm14.36.6.05.23v.24a14 14 0 0 0-.07.33c-.02.15.03.26.17.32a.7.7 0 0 0 .56 0c.2-.08.3-.22.3-.44-.01-.22-.12-.4-.32-.54a1.4 1.4 0 0 0-.62-.23c-.06-.01-.09.02-.07.08Zm-18.05 4.2c.06-.03.14-.1.24-.22l.18-.28a30.49 30.49 0 0 0 1.65-3.6c.02-.05.05-.07.1-.06.02 0 .03.02.05.03v.07c-.11.63-.3 1.5-.57 2.63-.19.8-.3 1.35-.35 1.63-.09.51 0 1.15.26 1.9.04.11.06.25.05.42 0 .25-.1.45-.29.6a.9.9 0 0 1-.64.17c-.27-.02-.46-.13-.56-.33a1.25 1.25 0 0 1-.08-.6l.01-.19c.03-.46.02-.8-.02-1.01-.06-.37-.2-.63-.45-.78a1.74 1.74 0 0 1-.21-.15c-.17-.16-.14-.22.08-.17.16.04.35.02.55-.06Zm12.58-.08c-.17.07-.4.09-.67.05h-.06c-.07.02-.08.06-.04.12l.01.02c.25.15.4.25.45.3.17.19.27.42.28.68a3.48 3.48 0 0 1-.1.85c-.07.3-.07.52-.02.64.1.26.29.41.58.45.23.04.48 0 .74-.11.14-.06.23-.2.28-.42.04-.19.04-.36 0-.52a4.7 4.7 0 0 1-.05-2.09l.78-3.51a.75.75 0 0 0 .02-.12c-.05-.16-.1-.17-.18-.01a68.87 68.87 0 0 1-1.56 3.2.96.96 0 0 1-.46.47ZM4 25.91v-.1c.69-.03 1.23.14 1.65.51.2.2.28.43.22.71a.64.64 0 0 1-.45.5.84.84 0 0 1-.67-.07c-.11-.05-.17-.15-.2-.3-.02-.23-.06-.47-.1-.7-.03-.19-.18-.37-.45-.55Zm12.63.17c.15.13.27.27.37.41.05.07.09.2.12.42.04.25.1.42.16.5.13.16.32.22.56.2.32-.04.5-.22.57-.53.07-.41-.12-.72-.57-.92a2.75 2.75 0 0 0-1.17-.22c-.14 0-.15.05-.04.14Zm-6.37 1.33H8.9c-.07 0-.1-.04-.1-.1l-.01-.07c0-.04.01-.05.05-.05h1.4c.03 0 .05-.02.05-.06v-.46c0-.08.04-.12.13-.11l.76.08c.12.01.13.06.05.14-.07.06-.09.18-.06.35 0 .04.03.06.07.06h.35c.05 0 .09-.01.12-.05l.39-.4c.04-.04.09-.05.14-.01.19.11.36.29.52.52a.1.1 0 0 1 0 .1.09.09 0 0 1-.08.05h-1.46c-.04 0-.05.02-.05.06V28c0 .03.01.05.05.05h.63a.2.2 0 0 0 .15-.06l.14-.15a.13.13 0 0 1 .14-.04c.17.05.35.16.54.34a.1.1 0 0 1 .04.1.1.1 0 0 1-.05.08c-.06.03-.1.1-.11.19-.03.14-.03.54 0 1.19 0 .05-.02.08-.06.11a.67.67 0 0 1-.5.12c-.06 0-.09-.04-.09-.1v-.05c0-.05-.03-.08-.08-.08h-.72c-.05 0-.08.02-.08.08v2.48c0 .13-.06.2-.19.21l-.58.05c-.08 0-.12-.03-.12-.11v-1.54c0-.04-.01-.05-.04-.02-.4.37-.82.6-1.24.69-.2.04-.22 0-.07-.15a6.2 6.2 0 0 0 1.32-1.64c.02-.03.01-.05-.02-.05h-.75c-.04 0-.06.02-.06.06v.05c0 .05-.02.08-.07.08l-.44.04c-.03 0-.05-.01-.05-.05V28c0-.12.06-.16.17-.11.4.16.8.21 1.23.16.02 0 .03-.02.03-.04v-.57c0-.02 0-.02-.02-.02Zm.97 1.52c.05-.1.1-.23.14-.38.02-.05.05-.07.1-.06.19.06.35.18.5.34.02.02.01.05-.03.07l-.74.47c-.12.08-.1.11.04.11h.75c.04 0 .06-.02.06-.06v-1c0-.1-.05-.16-.16-.16h-.6c-.09 0-.14.05-.14.15v.5c0 .1.03.11.08.02Zm-1.01.55c.04 0 .07-.02.07-.06v-1.08c0-.05-.03-.07-.07-.07h-.74c-.05 0-.07.02-.07.07v1.08c0 .04.02.06.07.06h.74ZM9.63 29v.17c0 .13.06.2.2.2.2.01.32-.07.35-.23.05-.32-.13-.56-.55-.72-.02 0-.04 0-.06.02a.05.05 0 0 0 0 .06c.05.13.07.3.06.5Zm23.63-3.61v-2.32c0-.05.02-.08.07-.07l2.08.32c.05 0 .08.04.1.09.02.05 0 .1-.03.14l-.4.42-.02.03c-.03.02-.06.05-.06.08v1.32c0 .04.07.07.11.07h1.92c.04 0 .07-.02.1-.06l.53-.7c.23-.3.49-.34.77-.11.66.52 1.01.91 1.08 1.16a.2.2 0 0 1-.04.18c-.04.06-.09.06-.15.06h-4.2c-.05 0-.12.05-.12.1v2.24c0 .05.06.07.1.07h.74a.1.1 0 0 0 .08-.04l.59-.63a.27.27 0 0 1 .28-.08c.5.13 1 .4 1.47.82.07.06.07.13 0 .2l-.31.34a.15.15 0 0 0-.04.1l.05 3.42c0 .2-.08.3-.25.33-.44.08-.99.12-1.41.11-.2 0-.3-.1-.3-.3v-.61c0-.06-.01-.07-.06-.07h-3.6c-.06 0-.08.01-.08.07v.45c0 .2-.1.32-.27.36-.46.12-.93.15-1.41.09-.07 0-.12-.05-.14-.12a.95.95 0 0 1-.02-.28c.08-1.51.08-3.08 0-4.7 0-.06.02-.11.07-.14.04-.04.1-.05.14-.03a68 68 0 0 1 1.79.68c.1.04.36.05.77.02.05 0 .07-.03.07-.08v-2.2c0-.06-.03-.12-.08-.12h-3.6c-.01.01-.02.02-.03 0l-.29-.53H33.2c.05 0 .07-.03.07-.08Zm2.7 3.61h-3.91a.04.04 0 0 0-.05.04v2.22c0 .02.02.04.05.04h3.9c.03 0 .05-.02.05-.04v-2.22a.04.04 0 0 0-.05-.04Zm9.06 1.64-.72.62c-.6.5-1.46 1.05-2.6 1.66a.1.1 0 0 1-.1 0 .1.1 0 0 1-.05-.1c0-.04.02-.08.06-.11a8.3 8.3 0 0 0 2.16-2.97c.04-.09.1-.11.19-.07l1.28.59a.1.1 0 0 1 .06.08.1.1 0 0 1-.03.1l-.25.2Zm3.15-.3c.2.17.37.34.53.5.16.17.35.58.57 1.25.17.52.5.76.95.7.4-.04.64-.25.7-.61.07-.34-.03-.66-.28-.96a3 3 0 0 0-1.92-1.05 1.23 1.23 0 0 0-.52 0 .09.09 0 0 0-.07.08c0 .04 0 .07.04.1Zm-36.21.84c-.09-.28-.22-.5-.4-.63-.32-.24-.32-.35 0-.34.3.02.55.08.78.18.33.15.48.36.44.62-.04.25-.21.38-.52.39-.15 0-.25-.07-.3-.22ZM22.1 23l1.71.51c.05.02.07.05.06.1-.03.08-.1.15-.22.23-.04.02-.04.04 0 .07.97.89 2.08 1.4 3.3 1.53.18.01.2.08.06.18-.34.26-.51.62-.5 1.1a.1.1 0 0 1-.05.08.1.1 0 0 1-.09.02 3.61 3.61 0 0 1-1.73-1.05c-.5-.53-.9-1.08-1.24-1.66-.02-.05-.05-.05-.08 0-.47.65-.95 1.2-1.47 1.65l-.68.6c-.04.04-.03.07.02.1.22.08.45.2.69.32.16.08.4.13.71.12h1.26c.04 0 .08-.02.11-.05l.39-.4c.1-.1.2-.11.31-.04l1 .6c.1.05.12.13.06.23l-.14.27a.14.14 0 0 0-.02.07v1.47c0 .18-.08.29-.25.34-.32.1-.68.11-1.08.05a.13.13 0 0 1-.1-.07c-.07-.1-.19-.16-.37-.16l-1.78-.01c-.05 0-.08.02-.1.07l-.14.53c-.02.04 0 .08.04.1.6.32.96.5 1.06.51.15.04.6.04 1.36.01.04 0 .08-.02.1-.05l.09-.12c.11-.16.2-.26.27-.31.12-.08.25-.1.4-.03.35.16.71.36 1.1.6.04.04.07.08.07.14 0 .05 0 .1-.05.14l-.26.27a.06.06 0 0 0-.01.05v1.5c0 .16-.08.24-.23.26l-1.15.1c-.13 0-.2-.06-.2-.2v-.36c0-.05-.02-.08-.06-.08h-1.51c-.04 0-.06.02-.06.06.02.29-.09.44-.33.47a12.95 12.95 0 0 0-.83.14h-.2c-.11-.03-.17-.08-.16-.13l.08-1.96c0-.08-.02-.09-.07-.02a12.32 12.32 0 0 1-.86 1.05c-.32.32-.66.58-1.02.76a.1.1 0 0 1-.1 0 .11.11 0 0 1-.06-.1c0-.03 0-.06.03-.09l.51-.82c.48-.8.74-1.67.78-2.64l.07-2.3c0-.02 0-.03-.02-.04h-.05c-.15.16-.3.28-.45.38a.25.25 0 0 1-.2.05.08.08 0 0 1-.06-.06.08.08 0 0 1 .01-.08c.56-.77 1.06-1.6 1.5-2.45.25-.5.47-1.02.64-1.55h.19Zm1.92 4.3-1.96.01a.06.06 0 0 0-.06.06v.42c0 .03.03.06.06.06h1.96c.04 0 .06-.03.06-.07v-.41a.06.06 0 0 0-.06-.06Zm0 .96h-1.98a.07.07 0 0 0-.07.07v.39c0 .04.03.07.07.07h1.98c.03 0 .06-.03.06-.07v-.4a.07.07 0 0 0-.06-.06Zm-1.26 2.6h1.5c.04 0 .08.03.08.08v.9c0 .05-.04.09-.09.09h-1.49a.09.09 0 0 1-.08-.1v-.89c0-.05.04-.09.08-.09Z" fill="#E7141A"/></svg>