<!-- by TradingView --><svg width="56" height="56" viewBox="0 0 56 56" xmlns="http://www.w3.org/2000/svg"><path fill="#F0F3FA" d="M0 0h56v56H0z"/><path fill-rule="evenodd" d="M24 20h-8v-3H8v10h24v-3h7.75c.7 0 1.25.56 1.25 1.25v5.51c0 .7-.56 1.25-1.25 1.25H32V29H8v10h8v-3h8v3h19.84c2.3 0 4.16-1.87 4.16-4.17V21.17c0-2.3-1.86-4.17-4.16-4.17H24v3Zm1-2v3H15v-3H9v8h22v-3h8.61A2.4 2.4 0 0 1 42 25.4v5.2a2.4 2.4 0 0 1-2.39 2.4H31v-3H9v8h6v-3h10v3h18.84c1.67 0 3.16-1.5 3.16-3.17V21.17C47 19.5 45.5 18 43.84 18H25Z" fill="#C50D31"/><path fill-rule="evenodd" d="M30 34v-3H10v6h4v-3h12v3h17.37A2.65 2.65 0 0 0 46 34.4V21.6c0-1.44-1.1-2.6-2.48-2.6H26v3H14v-3h-4v6.02h20V22h10.6c1.33 0 2.4.46 2.4 1.83v7.34c0 1.37-1.07 2.83-2.4 2.83H30Zm-1-10v-3h11.6c1.96 0 3.4.99 3.4 3.02v7.15C44 33.2 42.56 35 40.6 35H29v-3H11v4h2v-3h14v3h16.52c.75 0 1.48-.63 1.48-1.4V21.4c0-.77-.73-1.4-1.48-1.4h-16.5v3H13v-3h-2v4h18Z" fill="#C50D31"/></svg>