<!-- by TradingView --><svg width="56" height="56" viewBox="0 0 56 56" xmlns="http://www.w3.org/2000/svg"><path fill="#666" d="M0 0h56v56H0z"/><path fill-rule="evenodd" d="M8 24H4v1h1.33v5h1.34v-5H8v-1Zm.06 1.3V30h1.25v-3.82c.04-.08.2-.24.57-.24.38 0 .75.16.88.24V25.1c-1.61-.25-2.47.03-2.7.2ZM32 30v-4.7c.23-.17 1.08-.45 2.7-.2v1.08c-.14-.08-.5-.24-.88-.24s-.54.16-.57.24V30H32Zm17-4.7V30h1.39v-3.82c.04-.08.21-.24.63-.24.42 0 .83.16.98.24V25.1c-1.8-.25-2.75.03-3 .2ZM11 25v3.9c0 .36.34 1.1 1.65 1.1 1.3 0 2.11-.21 2.35-.32V25h-1.23v4.03h-.93a.54.54 0 0 1-.53-.54V25H11Zm32 1.1V30h-1.3v-3.49c0-.3-.25-.51-.54-.51h-.93v4H39v-4.68c.24-.1 1.04-.32 2.35-.32s1.65.74 1.65 1.1Zm-23.35 1.77H16.8c0 .77.58 1.15 1.39 1.15.64 0 1.25-.27 1.47-.4v.97c-.23.14-.89.41-1.7.41-2.18 0-2.45-1.6-2.45-2.44 0-.83.13-2.56 2.16-2.56 2.03 0 2.14 1.46 2.14 1.98 0 .42-.1.77-.15.89Zm-.93-.9h-1.93c0-.33.2-1 .96-1s.96.67.97 1Zm26.13.9h2.99c.05-.12.16-.47.16-.89 0-.52-.12-1.98-2.25-1.98-2.12 0-2.25 1.73-2.25 2.56 0 .83.28 2.44 2.56 2.44.85 0 1.54-.27 1.78-.41v-.97c-.23.13-.86.4-1.54.4-.85 0-1.45-.38-1.45-1.15Zm0-.76h2.01c0-.38-.21-1.14-1.01-1.14s-1 .76-1 1.14ZM23 30v-6h2.54c.8 0 1.46.63 1.46 1.42v1.08c0 .78-.65 1.5-1.46 1.5h-1.17v2H23Zm1.25-5h.82c.38 0 .68.28.68.62v.76c0 .34-.3.62-.68.62h-.82v-2Zm3.69.24v1.06c.17-.1.68-.3 1.3-.3.77 0 1.01.4 1.01.77v.4H28.7a1.2 1.2 0 0 0-1.2 1.18v.48c0 .64.53 1.17 1.2 1.17h2.8v-3.7c-.02-.43-.38-1.3-1.72-1.3-.99 0-1.63.16-1.83.24Zm1.43 2.61c-.3 0-.56.24-.56.54v.3c0 .29.25.53.56.53h.92v-1.37h-.92ZM36 29.34V26h-.5v-1h.5v-1h1.28v1h1.22v1h-1.22v2.8c0 .14.11.26.25.26H38V30h-1.37a.64.64 0 0 1-.63-.66Z" fill="#fff"/></svg>