<!-- by TradingView --><svg width="56" height="56" viewBox="0 0 56 56" xmlns="http://www.w3.org/2000/svg"><path fill="#F0F3FA" d="M0 0h56v56H0z"/><path d="M21.5 25.48c1.21.73 2.59 1.6 4.31 2.62.5.29.82.63.99 1.02.13.33.2.82.2 1.5v4.83c0 .1-.06.17-.15.22L24.77 37a.06.06 0 0 1-.07 0 .06.06 0 0 1-.04-.06v-5.66c0-.34-.03-.58-.07-.72a.98.98 0 0 0-.46-.57l-4.97-3a.29.29 0 0 1-.15-.26L19 17.58c0-.62.16-1.15.5-1.6.2-.25.6-.57 1.22-.95l6.08-3.66a2.18 2.18 0 0 1 1.84-.27c.16.05.68.33 1.55.85l5.37 3.23c.95.57 1.42 1.48 1.43 2.73v3.64c0 .03 0 .06-.03.07a.07.07 0 0 1-.08 0l-2.14-1.28a.32.32 0 0 1-.17-.3l.02-1.34a2.3 2.3 0 0 0-.32-1.2c-.15-.2-.44-.45-.9-.72a786.3 786.3 0 0 0-4.5-2.7c-.32-.2-.55-.3-.7-.34-.25-.05-.51 0-.79.17l-5.43 3.29c-.2.12-.36.32-.45.6-.05.15-.08.4-.08.71v6.83c0 .06.03.1.08.14Z" fill="#8FC02A"/><path d="m33.71 23.75-4.49 2.66c-.5.3-.95.42-1.37.37-.35-.04-.8-.22-1.38-.56-.73-.42-2.1-1.24-4.1-2.43a.25.25 0 0 1-.12-.23v-2.62c0-.03 0-.05.03-.07a.07.07 0 0 1 .07 0 563.52 563.52 0 0 0 4.82 2.82c.28.17.5.28.65.31.23.06.47.01.72-.13l5.1-2.99c.1-.05.2-.05.3 0 .95.57 3.54 2.09 7.78 4.57.52.3.89.72 1.1 1.24.12.3.18.83.18 1.58v7.3c0 .75-.25 1.35-.72 1.8-.13.13-.64.45-1.53.97l-5.5 3.23c-.97.57-1.99.54-3.06-.08l-3.1-1.81a.08.08 0 0 1-.04-.07c0-.03.02-.06.04-.07l2.2-1.29a.31.31 0 0 1 .34 0c.72.45 1.1.67 1.12.68.46.24.85.35 1.19.31.25-.02.6-.17 1.07-.44a868.28 868.28 0 0 0 4.62-2.7c.32-.2.54-.35.64-.47.17-.2.26-.46.26-.8V28.3c0-.25-.1-.48-.28-.7-.1-.12-.3-.27-.57-.43l-5.8-3.41a.15.15 0 0 0-.17 0Z" fill="#004EA2"/><path d="m28.96 35.44-.03-5.28c0-.58.12-1.04.37-1.39.2-.29.6-.6 1.16-.93l4.12-2.39a.24.24 0 0 1 .26 0l2.24 1.31c.02.02.03.04.03.07l-.03.06a533.63 533.63 0 0 0-4.8 2.82c-.3.17-.5.31-.6.42a1 1 0 0 0-.24.7v5.97c0 .12-.05.2-.15.27-.96.55-3.55 2.07-7.77 4.56-.53.31-1.06.42-1.61.35-.32-.05-.8-.26-1.44-.63l-6.23-3.65a2.36 2.36 0 0 1-1.17-1.53c-.04-.17-.06-.78-.07-1.82v-6.46c0-1.13.53-2.01 1.6-2.65l3.09-1.81a.07.07 0 0 1 .07 0c.03.02.04.04.04.07v2.57c0 .13-.05.23-.17.3l-1.14.65a2.2 2.2 0 0 0-.85.88c-.1.24-.16.63-.16 1.18v5.4c0 .38.03.65.08.8.08.25.26.46.54.62l5.58 3.26c.22.13.46.16.73.1.17-.02.39-.12.66-.28l5.8-3.4a.16.16 0 0 0 .09-.14Z" fill="#008CD6"/></svg>