<!-- by TradingView --><svg width="56" height="56" viewBox="0 0 56 56" xmlns="http://www.w3.org/2000/svg"><path fill="#F0F3FA" d="M0 0h56v56H0z"/><path d="M34.8 44.68c-9.16-2.92-17.68-8-25.22-14.02-1.35-1.07-2.23-2.57-.97-4.16.13-.17.36-.4.7-.7a65.01 65.01 0 0 1 10.25-7.33 92.57 92.57 0 0 1 15.19-7.12c1.79-.64 3.55-.52 4.47 1.4.07.15.18.5.31 1.04.52 2.1.89 4.23 1.1 6.38.41 4.42.48 8.85.2 13.28-.14 2.1-.39 4.19-.75 6.26-.18 1-.42 2-.73 2.96-.19.57-.36.97-.53 1.21-.62.91-1.74 1.2-2.8 1.1-.29-.03-.7-.13-1.23-.3ZM26.84 32h-.01l4-14.99a.02.02 0 0 0 0-.02.02.02 0 0 0-.02 0h-4.88a.02.02 0 0 0-.02.01l-5.03 19H36.28l.94-4H26.84Z" fill="#EA5404"/></svg>