<!-- by TradingView --><svg width="56" height="56" viewBox="0 0 56 56" xmlns="http://www.w3.org/2000/svg"><path fill="#F0F3FA" d="M0 0h56v56H0z"/><path d="M17.1 13h13.23c.4 0 .67.35.67.71 0 .17-.06.34-.19.48-1.87 1.97-3.42 3.8-4 4.81h-6.23c-.87 0-1.58.71-1.58 1.59V33.1c0 .54.35.9.74.9.21 0 .43-.09.62-.3 1.44-1.6 4.2-4.44 5.72-9.03C29.31 15 35.64 12.86 38.4 13.01c2.27 0 4.6 1.84 4.6 4.12v21.74A4.1 4.1 0 0 1 38.9 43H26.47c-.7 0-1.1-1.3-.6-1.79 1.5-1.46 2.9-3.13 3.6-4.21h5.95c.87 0 1.58-.71 1.58-1.59V21.94c0-.56-.4-.94-.82-.94-.2 0-.43.09-.61.28a20.5 20.5 0 0 0-4.84 8.7C28 37 20.23 43.08 17.1 43a4.11 4.11 0 0 1-4.1-4.13V17.13a4.11 4.11 0 0 1 4.1-4.12Z" fill="#2E519A"/></svg>