<!-- by TradingView --><svg width="56" height="56" viewBox="0 0 56 56" xmlns="http://www.w3.org/2000/svg"><path fill="#F0F3FA" d="M0 0h56v56H0z"/><path d="M24.5 25.5c-1.4 0-3.66 2.12-4.63 3.07.58-.19 1.51-1.14 2.9-1.14 1.75 0-.58 4.57-1.16 6.28-.67 1.99-1.74 6.29.58 6.29 2.33 0 2.9-3.43 4.07-6.29 1.16-2.85 5.01-14.21 10.24-14.21 4.65 0 4.5 4.5 3.11 6.79-1.22 2.01-4.64 6.07-6.96 6.07A5.64 5.64 0 0 1 29 31c.58 1.14 2.48 2 3.65 2 5.22 0 8.12-5 8.7-6.71.19-.55 3.2-8.29-4.35-8.29S25.68 33.71 24.52 33.71c-1.16 0 1.16-3.42 1.45-5.14.29-1.71.27-3.07-1.47-3.07Z" fill="#E25B00"/><path d="M39.03 16c-2.79 0-5.26 1.24-6.03 2 1-.5 2.32-1 6.03-1 3.72 0 5 3.5 4.97 5.86C43.91 30.56 37.87 35 33.23 35A8.3 8.3 0 0 1 28 33c.58 1.71 3 3.5 5 3.5 9.04 0 13-9.07 13-13.64S42.52 16 39.03 16ZM20.19 22c1.8 0 2.62 1.14 2.81 1.71-.19-.19-1.01-.57-2.81-.57-2.25 0-3.94 2.29-4.5 5.15-.56 2.85.6 4.84 1.69 5.14 1.43.39 2.6 0 3.37-.57-.9.91-2.25 1.14-3.38 1.14-2.7 0-3.37-3.05-3.37-4.57 0-4.57 3.94-7.43 6.19-7.43Z" fill="#E25B00"/><path d="M19.34 19c3.73 0 4.66 2.4 4.66 3.6a5.55 5.55 0 0 0-4.66-2.4c-3.49 0-5.84 3.6-7 8.4-1.17 4.8.58 7.8 2.35 7.8 1.14 0 3.49-.4 4.65-.6-1.86.96-3.88 1.2-4.65 1.2-4.2 0-4.85-4.4-4.66-6.6.58-6 4.66-11.4 9.31-11.4Z" fill="#E25B00"/></svg>