<!-- by TradingView --><svg width="56" height="56" viewBox="0 0 56 56" xmlns="http://www.w3.org/2000/svg"><path fill="#F0F3FA" d="M0 0h56v56H0z"/><path d="M30.6 12.22A13 13 0 1 0 42.92 33.4a15.94 15.94 0 0 1-15 10.61C19.13 44 12 36.84 12 28a15.96 15.96 0 0 1 18.6-15.78Z" fill="#007440"/><path d="M41.63 18.37c.41-.29 1.4-.72 2.01-.1.77.76.26 2.81-1.1 4.17-1.28 1.28-4.13 2.04-6.32 1.78l-.28.28.28.28c2.2-.26 5.04.5 6.32 1.78 1.36 1.36 1.87 3.4 1.1 4.18-.61.61-1.6.18-2.01-.11.29.41.72 1.4.1 2.01-.76.77-2.82.26-4.17-1.1-1.28-1.28-2.04-4.12-1.78-6.32l-.28-.28-.28.28c.26 2.2-.5 5.04-1.78 6.32-1.35 1.36-3.4 1.87-4.18 1.1-.61-.61-.18-1.6.11-2.01-.41.29-1.4.72-2.01.1-.77-.76-.26-2.81 1.1-4.17 1.28-1.28 4.13-2.04 6.32-1.78l.28-.28-.28-.28c-2.2.26-5.04-.5-6.32-1.78-1.36-1.36-1.87-3.4-1.1-4.18.61-.61 1.6-.18 2.01.11-.29-.41-.72-1.4-.1-2.01.76-.77 2.82-.26 4.17 1.1 1.28 1.28 2.04 4.12 1.78 6.32l.28.28.28-.28c-.26-2.2.5-5.04 1.78-6.32 1.35-1.36 3.4-1.87 4.18-1.1.61.61.18 1.6-.11 2.01Z" fill="#007440"/></svg>