<!-- by TradingView --><svg width="56" height="56" viewBox="0 0 56 56" xmlns="http://www.w3.org/2000/svg"><path fill="#F0F3FA" d="M0 0h56v56H0z"/><path d="m9.96 25.32.73 1.76c.22.53 0 1.15-.49 1.42-.55.3-1.24.05-1.47-.56L7.3 24.12A1.71 1.71 0 0 0 5.7 23c-.23 0-.47.05-.7.16a1.83 1.83 0 0 0-.83 2.42l3.61 7.9a.86.86 0 0 0 1.6-.02l3.48-8.12c.47-1.1-.3-2.34-1.44-2.34s-1.9 1.22-1.46 2.32ZM22 23.98a1 1 0 0 0-1.02-.98h-5.83c-.63 0-1.15.5-1.15 1.11v8.78c0 .61.52 1.11 1.15 1.11h5.83a1 1 0 0 0 1.02-.98v-.54a1 1 0 0 0-1.02-.98H17v-2h3.5a1 1 0 0 0 1.03-.98v-.54A1 1 0 0 0 20.5 27H17v-1.5h3.98a1 1 0 0 0 1.02-.98v-.54Z" fill="#FE0C22"/><circle cx="28" cy="29" r="2" fill="#C37428"/><path d="M28.14 23c-.5.37-1.07.85-1.54 1.42l-.05.05c-.75.88-1.28 1.53-1.28 4.48 0 1.5 1.23 2.77 2.73 2.77a2.72 2.72 0 1 0-2.05-4.51c.1-.96.47-1.68 1.08-2.4a8.1 8.1 0 0 1 2.16-1.78c2.7.3 4.81 2.64 4.81 5.47 0 3.04-2.42 5.5-5.4 5.5h-4.64a.97.97 0 0 1-.96-.98v-9.04c0-.54.43-.98.96-.98h4.18Z" fill="#FE0C22"/><ellipse cx="27.74" cy="28.75" rx=".74" ry=".75" fill="#EDBB53"/><path d="M36.53 23.69c.16-.42.55-.69.98-.69h1.06c.43 0 .82.27.98.69l3.35 8.5c.34.86-.26 1.81-1.15 1.81h-.66c-.5 0-.97-.32-1.16-.81L39.46 32h-3.84l-.51 1.3c-.17.42-.57.7-1.02.7-.77 0-1.3-.83-1-1.58l3.44-8.73ZM36.4 30h2.27l-1.13-2.88L36.4 30Z" fill="#FE0C22"/><path d="M43 23.79a.8.8 0 0 1 .8-.79h1.96c.33 0 .62.2.74.5l2.5 6v-5.71a.8.8 0 0 1 .8-.79h.4c.44 0 .8.35.8.79v9.42a.8.8 0 0 1-.8.79h-2.06a.8.8 0 0 1-.74-.5l-2.4-6v5.71a.8.8 0 0 1-.8.79h-.4a.8.8 0 0 1-.8-.79V23.8Z" fill="#FE0C22"/></svg>