<!-- by TradingView --><svg width="56" height="56" viewBox="0 0 56 56" xmlns="http://www.w3.org/2000/svg"><path fill="#22A643" d="M0 0h56v56H0z"/><path d="M43 41.27A1.73 1.73 0 0 1 41.27 43H14.73A1.73 1.73 0 0 1 13 41.27V14.73A1.73 1.73 0 0 1 14.73 13h26.54A1.73 1.73 0 0 1 43 14.73v26.54Z" fill="#E20A22"/><path d="M17.1 18h1.77c.09 0 .13.05.13.14v.72c0 .04-.01.07-.03.1a.13.13 0 0 1-.1.04H15.1c-.02 0-.04 0-.06-.02a40.66 40.66 0 0 1-.02-1.68c.01-.4.06-.68.15-.84.35-.59 1.04-.45 1.74-.44a.1.1 0 0 1 .07.03.1.1 0 0 1 .03.07v1.78c0 .03 0 .05.03.07a.1.1 0 0 0 .07.03ZM38.9 17h-7.82a.08.08 0 0 0-.08.08v8.8l.03.08c.02.02.05.04.08.04h7.26a.09.09 0 0 1 .05.06v.04l-.22.77c-.02.08-.07.13-.15.13h-7.68c-.41 0-.7-.07-.9-.17-.31-.18-.47-.47-.47-.88v-8.89c0-.7.39-1.06 1.16-1.06h9.6c.83 0 1.24.39 1.24 1.16v8.88c0 .24-.13.48-.37.7-.34.32-1.11.27-1.53.24a.1.1 0 0 1-.07-.04.1.1 0 0 1-.03-.07V17.1c0-.07-.03-.1-.1-.1ZM18.1 23c-.03 0-.06.02-.08.04a.1.1 0 0 0-.02.07v2.83a.1.1 0 0 0 .06.06.1.1 0 0 0 .04 0h.76a.1.1 0 0 1 .04.01.1.1 0 0 1 .03.03.1.1 0 0 1 .02.1l-.18.7c-.03.1-.1.15-.2.15l-1.3.01c-.38 0-.66-.06-.84-.19-.27-.18-.43-.48-.43-.91v-2.78c0-.08-.04-.12-.12-.12h-.74c-.1 0-.14-.05-.14-.14v-.72c0-.1.05-.14.14-.14h.72c.1 0 .14-.05.14-.15v-1.03c0-.13-.06-.2-.18-.2h-.67c-.1 0-.15-.05-.15-.15v-.73c0-.11.06-.17.17-.17h3.7c.08 0 .13.04.13.14v.77c0 .1-.05.14-.13.14h-.63c-.16 0-.24.08-.24.25v.87c0 .17.07.26.23.26h.58c.13 0 .19.06.19.2v.65c0 .1-.05.15-.14.15h-.77Z" fill="#fff"/><path fill-rule="evenodd" d="M33.7 22.42c0-.08.04-.11.1-.11h2.11c.07 0 .09.03.09.1v.47c0 .08-.03.12-.1.12h-1.4c-.1 0-.13.05-.13.14v.49c0 .09.04.14.12.14h3.2c.07 0 .1-.04.1-.11v-1.2l.02-.08a.17.17 0 0 1 .05-.06.16.16 0 0 1 .14-.03c.1.04.2.04.3.03l.02-.02.02-.03a.08.08 0 0 0 0-.07l-.75-1.38a.12.12 0 0 1 0-.1.11.11 0 0 1 .04-.05.1.1 0 0 1 .05-.02h.58c.1 0 .14-.05.14-.15v-.64a.12.12 0 0 0-.03-.08.11.11 0 0 0-.08-.04h-3.35c-.13 0-.17-.06-.1-.18l.19-.34c.06-.12.16-.22.28-.22h2.7c.09 0 .13 0 .13-.1v-.62c0-.1-.05-.16-.14-.16h-.38l-.02-.03a.07.07 0 0 1 0-.07l.24-.45a.08.08 0 0 0 0-.08.07.07 0 0 0-.02-.03.07.07 0 0 0-.04 0h-1.14a.16.16 0 0 0-.15.09l-.23.41a.3.3 0 0 1-.28.18h-.11c-.12 0-.16-.06-.1-.17l.3-.53a.1.1 0 0 0-.04-.13.08.08 0 0 0-.04 0h-1.63a.24.24 0 0 0-.13.03.25.25 0 0 0-.09.1l-.32.58a.2.2 0 0 1-.07.07.18.18 0 0 1-.19 0 .2.2 0 0 1-.06-.07l-.28-.5a.13.13 0 0 0-.04-.05.12.12 0 0 0-.07-.02h-1.13a.1.1 0 0 0-.05.02.1.1 0 0 0-.03.15c.1.14.17.26.2.38.02.08 0 .12-.09.12h-.26a.11.11 0 0 0-.08.04.12.12 0 0 0-.03.08v.65c0 .11.05.11.15.11h1.23c.12 0 .15.1.1.22l-.21.37a.29.29 0 0 1-.1.11.27.27 0 0 1-.14.04h-1.11c-.12 0-.18.06-.18.2v.5c0 .14.06.2.2.2h.52l.05.02a.1.1 0 0 1 .03.04.1.1 0 0 1 0 .1l-.76 1.4a.08.08 0 0 0 .03.1l.03.01h.4l.07.04c.03.02.05.05.05.09v2.45c0 .03 0 .06.02.08a.1.1 0 0 0 .07.03h5.85a.07.07 0 0 0 .05-.02l.02-.03v-.01l-.01-.01v-.86c0-.04 0-.07-.05-.07h-4.14c-.07 0-.1-.04-.1-.11v-1.47Zm.17-1.03h.02l1.96.01.02-.01.01-.02v-.03a.7.7 0 0 0-.68-.7h-.65a.69.69 0 0 0-.69.7v.02l.01.03ZM23.92 23.43c-.06-.27-.12-.27-.2 0l-.3 1.2c-.03.08-.08.12-.15.12h-1.14a.12.12 0 0 0-.09.03.12.12 0 0 0-.04.09v1.84c0 .1-.04.15-.14.16-.96.05-1.86-.13-1.86-1.28v-3.9c0-.89.65-1.2 1.5-1.2l1.12.01c.06 0 .13-.01.18-.05a.27.27 0 0 0 .1-.15l.36-1.25c0-.03.03-.05.07-.05h1.5c.05 0 .09-.02.12-.05a.16.16 0 0 0 .05-.1V17.1c0-.03-.02-.05-.04-.07a.1.1 0 0 0-.07-.03h-2.33c-.02 0-.04 0-.05.02a.06.06 0 0 0-.02.04v2.72c0 .04-.01.08-.04.1l-.03.05c-.02.03-.05.07-.08.07h-.83c-.77 0-1.12-.33-1.12-1.14v-1.73c0-.38.06-.65.16-.8.16-.23.45-.33.87-.33h4.49c.74 0 1.09.38 1.09 1.15v1.88c0 .28-.16.53-.48.73-.34.23-1.01.2-1.47.17l-.19-.01c-.14 0-.23.06-.26.2l-.05.19c-.04.14.02.2.16.2a46.9 46.9 0 0 1 1.84 0c.88.06 1.07.72 1.07 1.53v3.9c0 .36-.16.65-.47.87-.18.12-.48.19-.9.19h-1.14a.07.07 0 0 1-.06-.03.08.08 0 0 1-.01-.06l.22-.86c.02-.08.07-.12.15-.12h.16c.07 0 .11-.04.11-.11v-.96a.12.12 0 0 0-.12-.13H24.4a.2.2 0 0 1-.19-.14l-.28-1.16Zm-1.92.1v-1.74c0-.09.04-.13.13-.13h.34c.09 0 .13.04.1.13-.25.99-.4 1.57-.47 1.76-.07.16-.1.16-.1-.02Zm2.17-1.23h1c.06 0 .1.02.12.07a4.48 4.48 0 0 1 .27 1.1h.06c.03 0 .05-.02.05-.05v-1.66c0-.07-.03-.1-.1-.1h-1.26a.15.15 0 0 0-.14.1l-.1.4a.1.1 0 0 0 .01.1.1.1 0 0 0 .09.04Z" fill="#fff"/><path d="M31.8 31.38h-2.12a.08.08 0 0 1-.07-.05l-.75-2.23a.07.07 0 0 1 .01-.07.08.08 0 0 1 .06-.03h2.13a.08.08 0 0 1 .07.05l.75 2.23a.08.08 0 0 1-.07.1ZM35.08 30c-.02 0-.04.02-.05.03a.07.07 0 0 0-.03.06v8.85c0 .02.01.03.03.05l.05.01h5.84l.03.02a.08.08 0 0 1 .05.05v.04l-.28.76a.18.18 0 0 1-.17.13h-5.32c-.7 0-1.17-.06-1.42-.2-.54-.29-.81-.76-.81-1.42v-7.26c0-.6.05-1.03.16-1.26.28-.64.82-.85 1.53-.86h6.18c.09 0 .13.04.13.13v.77c0 .07-.04.1-.12.1h-5.8ZM31.79 34.6h-2.1a.1.1 0 0 1-.1-.06l-.73-2.2a.1.1 0 0 1 .1-.12h2.1a.1.1 0 0 1 .08.06l.74 2.2a.1.1 0 0 1-.05.12.1.1 0 0 1-.04 0Z" fill="#fff"/><path fill-rule="evenodd" d="M16.87 33h-1.75a.08.08 0 0 1-.06-.12c.35-.57.7-1.2 1.03-1.83.26-.49.52-.97.77-1.39.4-.66 1-.66 1.83-.66h5.13c.41 0 .72.06.92.16.24.11.47.35.68.7.29.48.57 1 .84 1.51.3.55.58 1.08.85 1.52a.07.07 0 0 1 0 .07l-.02.02h-.01l-.03.02h-1.47c-.03 0-.06 0-.08.02a.1.1 0 0 0-.03.08v2.14a.76.76 0 0 1-.77.76h-5.35a.12.12 0 0 1-.06-.13l.2-.74c.02-.1.08-.13.17-.13h3.17c.12 0 .17-.07.17-.19v-.22c0-.12-.06-.17-.17-.17h-3.67a.14.14 0 0 0-.1.04c-.03.03-.06.06-.06.1v4.33c0 .07.06.11.12.11h1.11a.12.12 0 0 1 .06.08v.05l-.18.71c-.03.1-.1.16-.21.16h-1.62c-.68 0-1.1-.26-1.24-.8a8.13 8.13 0 0 1-.04-1.27V33.1c0-.08-.06-.11-.13-.11Zm4.2-2.7h2.21c.04 0 .08.02.1.03.04.02.06.04.07.07l.8 1.46a.1.1 0 0 1 0 .09l-.03.03a.07.07 0 0 1-.04.02h-2.05c-.08 0-.13-.05-.13-.14v-.45c0-.09-.05-.14-.14-.14h-1.71a.16.16 0 0 0-.1.04.14.14 0 0 0-.04.05l-.01.05v.45c0 .1-.04.14-.11.14h-1.92l-.04-.01a.09.09 0 0 1-.03-.03.1.1 0 0 1 0-.1l.8-1.46a.17.17 0 0 1 .06-.06.28.28 0 0 1 .1-.03c.07-.01.81-.02 2.21-.02Zm-1.93 2.53h3.72c.08 0 .14.06.14.14v.3c0 .07-.06.13-.14.13h-3.72a.14.14 0 0 1-.14-.14v-.3c0-.07.06-.13.14-.13Z" fill="#fff"/><path d="M31.05 40h-2.13a.07.07 0 0 1-.07-.06v-.03l1.18-4.43c0-.02.02-.03.03-.04a.07.07 0 0 1 .04-.02h2.13a.07.07 0 0 1 .06.03.07.07 0 0 1 .02.06l-1.19 4.44c0 .01 0 .03-.02.04a.07.07 0 0 1-.05.01ZM24.01 36.7h1.9a.06.06 0 0 1 .04.1l-1.04 1.8a.06.06 0 0 0 .01.07l1.67 1.34a.06.06 0 0 1-.04.1h-2.02l-.03-.01-4.13-3.3a.06.06 0 0 1 .04-.1h2.06l.98.79a.06.06 0 0 0 .05.01.06.06 0 0 0 .03-.03l.43-.74a.06.06 0 0 1 .05-.03Z" fill="#fff"/></svg>