<!-- by TradingView --><svg width="56" height="56" viewBox="0 0 56 56" xmlns="http://www.w3.org/2000/svg"><path fill="#F0F3FA" d="M0 0h56v56H0z"/><path d="M38 36h-1.97V24H38v12Zm-2-14v-2h2v2h-2ZM42 36v-7h6v-2h-6v-1.86c0-2.2 1.49-3.14 3.54-3.14H48v-2h-2.79C41.94 20 40 21.96 40 25.38V36h2ZM10 36H8V25.5c0-3.4 2.29-5.5 4.92-5.5A4.93 4.93 0 0 1 18 25.05c0 2.74-1.89 4.95-4.34 4.95H10v6Zm.86-8H13.08C14.7 28 16 26.89 16 25c0-1.92-1.32-3-3-3-1.65 0-3 1.2-3 3.18V28h.86Z" fill="#989A9D"/><path d="m28.4 25-2.9-5-2.87 5h5.77Z" fill="#DF3527"/><path d="m21.77 36-2.87-4.91L16 36h5.77ZM35 36l-2.87-4.91L29.27 36H35ZM31.68 30.5l-2.86-5-2.87 5h5.73ZM25.09 30.5l-2.87-5-2.9 5h5.77ZM19.32 31l2.86 5 2.9-5h-5.76ZM25.95 31l2.87 5 2.86-5h-5.73ZM22.63 25.5l2.87 5 2.9-5h-5.77Z" fill="#989A9D"/></svg>