<!-- by TradingView --><svg width="56" height="56" viewBox="0 0 56 56" xmlns="http://www.w3.org/2000/svg"><path fill="#F0F3FA" d="M0 0h56v56H0z"/><path d="M14 14.98c0-.54.44-.98.98-.98h26.04c.54 0 .98.44.98.98v11.59a.7.7 0 0 1-.7.7h-.27a.73.73 0 0 1-.72-.66A12.02 12.02 0 0 0 28.28 16C21.6 16 16 21.31 16 28s5.6 12 12.28 12c6.22 0 11.34-4.58 12.03-10.61a.73.73 0 0 1 .72-.66h.27c.39 0 .7.32.7.7v11.59c0 .54-.44.98-.98.98H14.98a.98.98 0 0 1-.98-.98V14.98Zm14.28 24.31a11.29 11.29 0 1 0 0-22.58 11.29 11.29 0 0 0 0 22.58ZM38.35 28a10.06 10.06 0 1 1-20.13 0 10.06 10.06 0 0 1 20.13 0ZM23 36V20h9.33L34 21.5v5.41L32.8 28l1.2 1.08v5.4L32.27 36H23Zm7-13h-3v2.5h3V23Zm0 7h-3v2.5h3V30Z" fill="#FE0000"/></svg>