<!-- by TradingView --><svg width="56" height="56" viewBox="0 0 56 56" xmlns="http://www.w3.org/2000/svg"><path fill="#F0F3FA" d="M0 0h56v56H0z"/><path fill-rule="evenodd" d="M7.34 31c.98 0 1.86-.44 2.47-1.15l-.6-.63c-.46.54-1.13.88-1.87.88a2.55 2.55 0 0 1-2.49-2.6c0-1.44 1.12-2.6 2.49-2.6.85 0 1.6.44 2.05 1.13l.61-.64A3.28 3.28 0 0 0 7.34 24 3.42 3.42 0 0 0 4 27.5C4 29.43 5.5 31 7.34 31Zm5.19-6a.53.53 0 1 1-1.06 0 .53.53 0 0 1 1.06 0Zm.47 0a1 1 0 1 1-2 0 1 1 0 0 1 2 0Zm1-1h3.15c.8 0 1.46.78 1.46 1.75 0 .65-.3 1.22-.74 1.52.65.24 1.13.96 1.13 1.83 0 1.05-.7 1.9-1.58 1.9H14v-7Zm.78.78h2.2c.47 0 .85.5.85 1.1 0 .62-.38 1.11-.84 1.11h-2.2v-2.21Zm.01 3h2.4c.56 0 1.02.54 1.02 1.21 0 .68-.46 1.23-1.02 1.23h-2.4v-2.45ZM20.44 31h-.92l2.84-7h.62l2.96 7h-.96l-.85-2.18H21.3L20.44 31Zm2.29-5.74L23.8 28h-2.17l1.1-2.74ZM27 31h.65v-5.55L31.3 31h.7v-7h-.7v5.53L27.65 24H27v7Zm7.65 0H34v-7h.65l3.65 5.53V24h.7v7h-.7l-3.65-5.55V31ZM41 24h4v.81h-3.25v2.47h2.13v.65h-2.13v2.32H45V31h-4v-7Zm5.76 7H46v-7h3.15c1.01 0 1.85.92 1.85 2.06 0 1.13-.84 1.94-1.85 1.94h-.3L51 31h-.79s-1.33-1.97-2.1-3h-1.35v3Zm2.34-6.2h-2.4v2.55h2.4c.66 0 1.2-.57 1.2-1.28 0-.7-.54-1.28-1.2-1.28Z"/></svg>