<!-- by TradingView --><svg width="56" height="56" viewBox="0 0 56 56" xmlns="http://www.w3.org/2000/svg"><path fill="#F0F3FA" d="M0 0h56v56H0z"/><path d="M36.81 24.12c.16.13.32.3.48.54 1.11 1.6 2.29 3.34 3.54 5.19.06.1.04.15-.06.15h-.7c-.1 0-.17-.05-.24-.13-.17-.21-.32-.36-.46-.45-1.13-.68-2.58-1.22-3.8-.85-.75.23-1.45.62-2.1 1.17-.2.17-.37.26-.52.26a6 6 0 0 1-.73-.06v-.04c.69-.98 1.94-2.82 3.76-5.51.1-.15.23-.27.4-.35.13-.07.28-.04.43.08Zm-.27 3.57c.8 0 1.45.28 2.16.6.06.02.07 0 .04-.05a240.16 240.16 0 0 0-2.15-3.36.2.2 0 0 0-.04 0h-.03l-.02.02c-.85 1.28-1.56 2.39-2.15 3.32-.03.05-.02.07.03.05.72-.3 1.37-.59 2.16-.58ZM17.62 29.6v.29c0 .03-.01.06-.03.08a.08.08 0 0 1-.06.03h-4.44a.08.08 0 0 1-.06-.03.12.12 0 0 1-.03-.08v-4.78c0-.03 0-.06.03-.08a.08.08 0 0 1 .06-.03h.82c.02 0 .05.01.06.03.02.02.03.05.03.08V29.43l.03.03.02.03h3.48c.02 0 .05.02.06.04.02.02.03.04.03.07ZM19.08 27.17h1.68c.06 0 .12-.03.17-.08.5-.53 1.1-1.14 1.78-1.83.3-.31.55-.24.91-.26l.05.01.03.05a.1.1 0 0 1 0 .05.1.1 0 0 1-.02.05l-2.1 2.25c-.04.04-.04.09 0 .13l2.22 2.35v.04h-.01a1 1 0 0 1-.9-.08 7.5 7.5 0 0 1-.65-.64l-1.28-1.32a.38.38 0 0 0-.27-.12h-1.64c-.01 0-.03 0-.04.02a.07.07 0 0 0-.01.04v2.04c0 .09-.04.13-.12.13h-.76a.11.11 0 0 1-.08-.04.15.15 0 0 1-.04-.1v-4.7c0-.1.04-.16.13-.16h.75c.03 0 .06.03.08.05.02.03.04.06.04.1v1.93c0 .06.02.1.08.1ZM30.88 28.87l.02-.01.01-.02 1.44-3.62a.36.36 0 0 1 .11-.15c.05-.04.11-.06.17-.06h.46c.11 0 .15.06.1.19l-1.85 4.66a.21.21 0 0 1-.07.1c-.03.02-.06.04-.1.04h-.66c-.03 0-.06-.02-.09-.04a.19.19 0 0 1-.06-.08l-1.43-3.68a.08.08 0 0 0-.03-.03.06.06 0 0 0-.03-.02c-.02 0-.03 0-.04.02a9664.29 9664.29 0 0 0-1.55 3.64c-.04.11-.15.17-.33.18-.16.02-.33.01-.5-.02-.06 0-.1-.04-.12-.1l-2-4.7c-.05-.1-.02-.16.07-.16h.57c.06 0 .1.03.13.1l1.63 3.84.04.04a.08.08 0 0 0 .1 0 .1.1 0 0 0 .03-.05l1.53-3.85c0-.02.02-.04.04-.05.02-.02.04-.04.06-.04h.62c.04 0 .07.02.1.04.03.03.06.07.08.12l1.44 3.64c.03.07.07.1.11.07ZM42.87 29.02c.03 0 .05-.01.07-.05l2.3-3.78c.04-.05.08-.1.12-.12.05-.03.1-.07.16-.07h.66c.11 0 .13.08.07.19l-2.86 4.67a.27.27 0 0 1-.07.08.22.22 0 0 1-.1.04 2.76 2.76 0 0 1-.71 0 .22.22 0 0 1-.1-.04.27.27 0 0 1-.08-.08l-2.83-4.7c-.06-.1-.04-.16.07-.16h.66c.06 0 .1.02.16.05.04.03.09.07.12.12l2.28 3.8c.02.04.05.05.08.05ZM4 29.88v-.3c.06-.1.2-.15.4-.13l.42.03h4.05c.09 0 .13-.05.13-.15V28.1c0-.07-.03-.11-.08-.11h-4.7a.18.18 0 0 1-.14-.06.3.3 0 0 1-.08-.17v-2.34c.04-.48.35-.43.7-.43h5.15c.1 0 .15.07.15.2v.16c0 .12-.05.18-.15.18H5.12c-.1 0-.12.06-.12.18v1.12c0 .08.04.16.1.16h4.66c.16 0 .24.1.24.29v2.52c0 .05-.02.1-.05.13a.14.14 0 0 1-.1.06H4.13c-.05 0-.08-.02-.1-.07L4 29.88ZM11.9 25h-.8a.1.1 0 0 0-.1.1v4.8c0 .06.04.1.1.1h.8a.1.1 0 0 0 .1-.1v-4.8a.1.1 0 0 0-.1-.1ZM51.6 27.3v.34c0 .03 0 .06-.02.08a.08.08 0 0 1-.06.03H48.05a.09.09 0 0 0-.03.03l-.02.04v1.59l.02.03.03.03H51.9c.02 0 .04.02.06.04l.02.07v.31c0 .03 0 .06-.02.08a.08.08 0 0 1-.06.03h-4.81a.08.08 0 0 1-.06-.03.12.12 0 0 1-.03-.08v-4.78c0-.03 0-.06.03-.08a.08.08 0 0 1 .06-.03h4.82c.03 0 .05.01.06.03.02.02.03.05.03.08v.34c0 .03 0 .06-.03.08a.08.08 0 0 1-.06.03h-3.83a.08.08 0 0 0-.06.03.12.12 0 0 0-.02.07v1.43c0 .03 0 .06.02.08l.06.03h3.44l.06.03.02.08Z" fill="#106195"/></svg>