<!-- by TradingView --><svg width="56" height="56" viewBox="0 0 56 56" xmlns="http://www.w3.org/2000/svg"><path fill="#F0F3FA" d="M0 0h56v56H0z"/><path d="M8 25H6c-.33.17-.8.6 0 1s2.33 1.5 3 2v-4h3v7H9v-1.5c-.17.5-.8 1.5-2 1.5H4v-1h2c.33-.17.9-.6.5-1a3.1 3.1 0 0 0-.59-.4C5.14 28.17 4 27.5 4 26c0-1.6 1.33-2 2-2h2v1Z" fill="url(#a)"/><path fill-rule="evenodd" d="M14 31h-1v-7h3l3 5v-5h1v2c.33-.67 1.2-2 4-2s3.67 1.67 4 2.5V24h3l1.5 3 1.5-3h3v6l3-6h2l3 6 1.5-2-3-4h3l1.5 2 1.5-2H51l-2 3 3 4h-3l-1.5-2-1.5 2h-6l.5-1H42l-1.5-3-2.5 4h-3v-5l-3 5-3-5v5h-1v-2c-.5.67-1.6 2-4 2s-3.5-1.33-4-2v2h-3l-3-5v5Zm11.5-3.5c0 1.38-.4 2.5-1.5 2.5s-1.5-1.12-1.5-2.5.4-2.5 1.5-2.5 1.5 1.12 1.5 2.5Z" fill="url(#b)"/><path d="M4 30v1h3c1.2 0 1.83-1 2-1.5V31h3v-1.5c-.63-.42-1.81-1.1-3-1.55V28l-.14-.1c-.65-.24-1.3-.4-1.86-.4-.87 0-1.58.2-2.1.43.33.29.7.5 1.01.68.25.14.47.27.59.39.4.4-.17.83-.5 1H4Zm9-1.9V31h1v-4.3l-1 1.4Zm1.23-1.72L17 31h3v-2c.5.67 1.6 2 4 2s3.5-1.33 4-2v2h1v-4.5c-.8 0-2.33.33-3 .5l-.5.3v.2c0 1.38-.4 2.5-1.5 2.5-.9 0-1.34-.75-1.46-1.79L19 27.15V29l-1.8-3h-2.7l-.27.38ZM37 29.13l-2-.73V31h3l1-1.6-1 .1-.63-.24L37 30v-.87Zm7.8.47L43 29l-1.43.14.43.86h-1.5l-.5 1h6l.6-.8-1.4-.47-.2.27-.2-.4Zm6.6.6L49 31h3l-.6-.8Zm-17.59-2.22a50.8 50.8 0 0 0-4.48-1.43L32 31l1.81-3.02Z" fill="url(#c)"/><defs><linearGradient id="a" x1="24" y1="24.5" x2="24" y2="31" gradientUnits="userSpaceOnUse"><stop stop-color="#171676"/><stop offset=".49" stop-color="#0078C1"/><stop offset="1" stop-color="#0064AE"/></linearGradient><linearGradient id="b" x1="24" y1="24.5" x2="24" y2="31" gradientUnits="userSpaceOnUse"><stop stop-color="#171676"/><stop offset=".49" stop-color="#0078C1"/><stop offset="1" stop-color="#0064AE"/></linearGradient><linearGradient id="c" x1="24.5" y1="27" x2="24.5" y2="31" gradientUnits="userSpaceOnUse"><stop stop-color="#FBFBE3"/><stop offset="1" stop-color="#5DA624"/></linearGradient></defs></svg>