<!-- by TradingView --><svg width="56" height="56" viewBox="0 0 56 56" xmlns="http://www.w3.org/2000/svg"><path fill="#F0F3FA" d="M0 0h56v56H0z"/><path d="M40.17 18.61c2.12 0 3.83-1.7 3.83-3.8 0-2.1-1.71-3.81-3.83-3.81a3.82 3.82 0 0 0-3.83 3.8c0 2.11 1.72 3.81 3.83 3.81Z" fill="#00FF90"/><path d="M28.79 23.59c.1-.27.22-.94.35-2.02.3-1.81 1.25-2.88 2.86-3.2 4.6-.93 6.65 5.36 2.3 7.24-.4.18-1.39.36-2.96.54-1.62.64-2.61 1.67-2.98 3.07-.08.33-.13.72-.18 1.13a6.94 6.94 0 0 1-.4 1.92 3.5 3.5 0 0 1-2.62 2.06c-.29.06-.61.1-.95.14a4.68 4.68 0 0 0-4.6 4.61c-.05.4-.1.8-.2 1.17-.63 2.44-3.58 3.47-5.67 2.17a3.51 3.51 0 0 1-1.69-2.63c-.24-1.75.36-3.03 1.78-3.86.67-.38 1.45-.5 2.33-.63l.46-.07A4.69 4.69 0 0 0 20 32.72c1.25-2.32.15-5.07-2.03-6.24a6.15 6.15 0 0 0-2.03-.53c-.56-.08-1.1-.15-1.54-.34-1.43-.59-2.21-1.56-2.36-2.91-.19-1.75.38-3.02 1.7-3.82 1.36-.81 2.63-.87 3.83-.17a3.65 3.65 0 0 1 1.91 2.7c.14.94.25 1.57.32 1.9.23.98.8 1.82 1.73 2.53 2.62 2.03 6.08.78 7.26-2.25Z" fill="url(#a)"/><path d="M36.72 39.2c0 2.1-1.72 3.8-3.83 3.8a3.82 3.82 0 0 1-3.83-3.8c0-2.11 1.71-3.81 3.83-3.81 2.11 0 3.83 1.7 3.83 3.8Z" fill="url(#b)"/><defs><linearGradient id="a" x1="34.64" y1="19.6" x2="13.37" y2="40.4" gradientUnits="userSpaceOnUse"><stop stop-color="#24DCA2"/><stop offset="1" stop-color="#1D29FF"/></linearGradient><linearGradient id="b" x1="34.64" y1="19.6" x2="13.37" y2="40.4" gradientUnits="userSpaceOnUse"><stop stop-color="#24DCA2"/><stop offset="1" stop-color="#1D29FF"/></linearGradient></defs></svg>