<!-- by TradingView --><svg width="56" height="56" viewBox="0 0 56 56" xmlns="http://www.w3.org/2000/svg"><path fill="#F0F3FA" d="M0 0h56v56H0z"/><path fill-rule="evenodd" d="M45 28a17 17 0 1 1-34 0 17 17 0 0 1 34 0Zm-2 0a15 15 0 1 1-13.2-14.9 11.66 11.66 0 0 0-9.8 9.31A10.03 10.03 0 0 1 28.27 18C33.8 18 38 22.53 38 28.09A9.88 9.88 0 0 1 34.41 36a11.68 11.68 0 0 0 8.49-9.75c.07.57.1 1.16.1 1.75ZM29.8 13.1a15 15 0 0 1 13.1 13.15 11.66 11.66 0 0 0-13.1-13.14Z" fill="#33638E"/><path d="M20.23 22C19.08 23.64 18 25.63 18 27.77 18 33.42 22.7 38 28.5 38c2.46 0 4.71-1.04 6.5-2.4-1.01.26-2.08.4-3.18.4C25.07 36 20 30.9 20 24.33c0-.8.08-1.58.23-2.33Z" fill="#33638E"/></svg>