<!-- by TradingView --><svg width="56" height="56" viewBox="0 0 56 56" xmlns="http://www.w3.org/2000/svg"><path fill="#F0F3FA" d="M0 0h56v56H0z"/><path fill-rule="evenodd" d="m24.08 38.12-2.86 4.28c-.54.8-1.74.8-2.27 0l-8.4-12.57a3.28 3.28 0 0 1 0-3.66l8.4-12.57c.53-.8 1.73-.8 2.27 0l2.86 4.28 2.85-4.28c.54-.8 1.74-.8 2.28 0l2.78 4.18 2.79-4.18c.54-.8 1.74-.8 2.27 0l8.4 12.57a3.28 3.28 0 0 1 0 3.66l-8.4 12.57c-.53.8-1.73.8-2.27 0l-2.79-4.18-2.78 4.18c-.54.8-1.74.8-2.28 0l-2.85-4.28Zm2-15.13-1.57 2.45 1 1.56c.2.3.3.65.3 1h4.05c.38-.57.1-.23.6-1L35 19.9a1.12 1.12 0 0 1 1.88 0L41.45 27c.2.3.3.65.3 1h3.08c0-.42-.13-.83-.37-1.2l-8.39-12.57a.19.19 0 0 0-.31 0l-7.68 11.5-2-2.74Zm1.92.77-1.23-1.85.78-1.21a.56.56 0 0 1 .94 0l.76 1.18L28 23.76Zm0 8.48-1.23 1.84.78 1.22c.22.34.73.34.94 0l.76-1.18L28 32.24Zm-3.22 4.83 1.5-2.24.8 1.26c.44.68 1.45.68 1.88 0L33.52 29c.4-.6.4-1.4 0-2l-1.04-1.63 1.56-2.43 2.58 3.86c.48.73.48 1.67 0 2.4l-2.58 3.86L34 33l-.3.54-5.49 8.22a.19.19 0 0 1-.3 0l-3.14-4.7ZM14.22 28h-3.05c0-.42.13-.83.37-1.2l8.39-12.57a.19.19 0 0 1 .31 0l3.14 4.7-1.56 2.33-.87-1.35a1.12 1.12 0 0 0-1.88 0L14.51 27c-.2.3-.3.65-.3 1Zm.98.06c0-.37.09-.74.3-1.06l4.04-6.3a.56.56 0 0 1 .94 0l.84 1.3-2.78 4.17a3.28 3.28 0 0 0 0 3.66l2.78 4.16-.84 1.31a.55.55 0 0 1-.36.25l-4.92-7.5Zm4.32 1.14 2.49 3.72 1.52-2.36-1-1.56c-.4-.6-.4-1.4 0-2l4.55-7.09a1.12 1.12 0 0 1 1.88 0l.8 1.22 1.53-2.3-3.07-4.6a.19.19 0 0 0-.3 0l-8.4 12.57a2.15 2.15 0 0 0 0 2.4Zm5-2.2-.5-.8-.51.8c-.4.61-.4 1.39 0 2l.5.8.52-.8c.4-.61.4-1.39 0-2Zm10.2-5.13 2.88 4.3a3.28 3.28 0 0 1 0 3.66l-2.87 4.3.75 1.17c.1.15.24.23.4.25l4.88-7.43c.02-.39-.07-.78-.3-1.12l-4.04-6.3a.56.56 0 0 0-.94 0l-.75 1.17ZM32 29.86l.55-.86c.4-.61.4-1.39 0-2l-.55-.86-.55.86c-.4.61-.4 1.39 0 2l.55.86Z" fill="#EA0D20"/></svg>