<!-- by TradingView --><svg width="56" height="56" viewBox="0 0 56 56" xmlns="http://www.w3.org/2000/svg"><path fill="#F0F3FA" d="M0 0h56v56H0z"/><path fill-rule="evenodd" d="M28.02 29.42h.35l2.06 1.06 6.4 2.82-8.84 3.81-8.8-3.8 5.31-2.35c-8.27-.78-14.5-4.24-14.5-8.4C10 17.83 18.06 14 28 14s18 3.83 18 8.56c0 .15 0 .3-.02.44h-6c.02-.1.02-.2.02-.29 0-3.7-5.37-6.71-12-6.71s-12 3-12 6.71c0 3.7 5.36 6.7 11.97 6.71l.02-.01.03.01Zm-3.91 3.9 3.88-1.72 3.9 1.72L28 35l-3.88-1.68Z" fill="#00A65D"/><path fill-rule="evenodd" d="M31.5 25.04c8.27.78 14.5 4.24 14.5 8.4C46 38.17 37.94 42 28 42s-18-3.83-18-8.56c0-.15 0-.3.02-.44h6c-.02.1-.02.2-.02.3C16 37 21.37 40 28 40s12-3 12-6.7-5.37-6.7-12-6.7h-.32l-2.11-1.08-6.4-2.82 8.84-3.81 8.8 3.8-5.31 2.35Zm.4-2.36L28 24.4l-3.9-1.72L28 21l3.9 1.68Z" fill="#0071BC"/></svg>