<!-- by TradingView --><svg width="56" height="56" viewBox="0 0 56 56" xmlns="http://www.w3.org/2000/svg"><path fill="#0088BF" d="M0 0h56v56H0z"/><path d="M41.92 18.39a3.65 3.65 0 0 0-4.4-4.3c-.92.22-1.66.73-2.24 1.54a4.49 4.49 0 0 0-.8 3.8 3.03 3.03 0 0 0 2.2 2.14c1.31.34 2.7-.08 3.77-.9.8-.6 1.28-1.37 1.47-2.28Zm-7.95 7.5a2.83 2.83 0 0 0-3.86-3.86c-.13.07-.27.17-.4.27l-.29.2a2.7 2.7 0 0 1-3.03-.12 4.42 4.42 0 0 1-.63-.67l-5.54-6.67a3.65 3.65 0 0 0-5.61 4.63c.17.27.56.66 1.17 1.16l5.86 4.86c.45.37.74.67.88.9.54.89.53 2.04-.07 2.92-.12.18-.36.42-.7.7l-6.67 5.54c-.17.14-.36.38-.54.7a3.58 3.58 0 0 0 .54 4.47 3.58 3.58 0 0 0 4.48.54c.31-.18.55-.37.7-.54l5.53-6.67c.28-.34.52-.58.7-.7.88-.6 2.03-.61 2.93-.07.22.14.52.43.89.88l4.86 5.86c.5.61.89 1 1.16 1.17a3.66 3.66 0 0 0 4.63-5.6l-6.67-5.55a4.43 4.43 0 0 1-.67-.63 2.7 2.7 0 0 1 .08-3.32c.1-.13.2-.27.27-.4Z" fill="#FD0"/></svg>