<!-- by TradingView --><svg width="56" height="56" viewBox="0 0 56 56" xmlns="http://www.w3.org/2000/svg"><path fill="#F0F3FA" d="M0 0h56v56H0z"/><path fill="#049BD0" d="M4 34h48v2H4z"/><path fill-rule="evenodd" d="M52 21H4v12h48V21Zm-38.31 3c-1.3 0-2.43.9-2.78 2.22l-.87 3.23c-.2.78.35 1.55 1.11 1.55h5.98l.38-1.42h-4.65c-.6 0-1.02-.69-.8-1.32l.66-1.83c.21-.6.74-1 1.32-1h4.58L19 24h-5.31Zm28 0c-1.3 0-2.43.9-2.78 2.22l-.87 3.23c-.2.78.35 1.55 1.11 1.55h5.98l.38-1.45h-4.65c-.6 0-1.02-.67-.8-1.3l.66-1.81c.21-.6.74-1 1.32-1h4.57L47 24h-5.31Zm-15.3 0h-5.74l-.36 1.4h5.23c.28 0 .47.25.48.52a.6.6 0 0 1-.59.61H20L19 31h1.78l.65-3h2.32L26 33h1.77l-2.23-5h.42c.92 0 1.73-.74 1.99-1.72.3-1.14-.48-2.28-1.56-2.28Zm11.18 1.52L38 24h-6.86c-.85 0-2 1.52-2 2.74 0 .97.86 1.32 1.29 1.37h3.71c.24-.05.72 0 .72.6 0 .62-.29.77-.43.77h-5.86L28 31h7.43c.71 0 1.71-1.67 1.71-2.9 0-.97-.85-1.31-1.28-1.36h-3.72c-.85 0-1-.15-1-.46 0-.48.38-.7.57-.76h5.86Z" fill="#294C90"/></svg>