<!-- by TradingView --><svg width="56" height="56" viewBox="0 0 56 56" xmlns="http://www.w3.org/2000/svg"><path fill="#F0F3FA" d="M0 0h56v56H0z"/><path d="M33.75 30a7 7 0 1 1 0-8h2.31a9 9 0 1 0 0 8h-2.31Z" fill="#9C342B"/><path d="M38.58 40c-.86.76-1.81 1.44-2.83 2h-15.5a16.04 16.04 0 0 1-2.83-2h21.16ZM28 44c-1.96 0-3.84-.35-5.58-1h11.16c-1.74.65-3.62 1-5.58 1Zm11.62-5H16.38a16 16 0 1 1 26.46-17h-4.59a11 11 0 1 0 0 8h5.63a15.95 15.95 0 0 1-4.26 9Z" fill="#382461"/><path d="m29.7 28-.25 1H24.9l.24-1h4.57Zm-2.66-5-1.62 6H25a1 1 0 0 1-.97-1.26L25.31 23h1.73ZM38.7 23l-1.46 6h-1.5l-2.48-4.2-1.02 4.2H30.7l1.45-6h1.5l2.48 4.21L37.15 23h1.55ZM45.4 26l-.5 2.18c-.84.74-2.2.83-3.25.82-1.63-.02-3.25-.97-2.9-2.8l.07-.39c.39-1.88 2.07-2.83 3.88-2.81 1.34.02 3.3 0 3.3 0v1c-.28.03-2.95.01-3.3 0-1.23-.03-2.05.62-2.3 1.8l-.08.4c-.2 1.09.2 1.78 1.38 1.8.53 0 1 0 1.66-.2l.22-.8h-1.62l.25-1h3.19Z" fill="#9C342B"/></svg>