<!-- by TradingView --><svg width="56" height="56" viewBox="0 0 56 56" xmlns="http://www.w3.org/2000/svg"><path fill="#F0F3FA" d="M0 0h56v56H0z"/><circle cx="28" cy="28" r="16" fill="#A7D23D"/><circle cx="28.5" cy="39.5" r="2.5" fill="#FFFEF8"/><path d="M28.5 20a2.5 2.5 0 1 0 0-5 2.5 2.5 0 0 0 0 5Zm8 2.9a2.5 2.5 0 1 1-5 0 2.5 2.5 0 0 1 5 0Zm-8 2.6a2.5 2.5 0 1 0 0-5 2.5 2.5 0 0 0 0 5Zm0 5.5a2.5 2.5 0 1 0 0-5 2.5 2.5 0 0 0 0 5Zm5.5 0a2.5 2.5 0 1 0 0-5 2.5 2.5 0 0 0 0 5Zm8-2.5a2.5 2.5 0 1 1-5 0 2.5 2.5 0 0 1 5 0ZM31 34a2.5 2.5 0 1 1-5 0 2.5 2.5 0 0 1 5 0Zm3 2.5a2.5 2.5 0 1 0 0-5 2.5 2.5 0 0 0 0 5Z" fill="#F0E852"/></svg>