<!-- by TradingView --><svg width="56" height="56" viewBox="0 0 56 56" xmlns="http://www.w3.org/2000/svg"><path fill="#F0F3FA" d="M0 0h56v56H0z"/><path fill-rule="evenodd" d="M36.18 14.34A11.22 11.22 0 0 1 42.95 12v2.45c-1.25 0-3.26.32-5.24 1.82-1.97 1.5-4.04 4.27-5.26 9.4l-.17.69.15.08 1.04.58A18.75 18.75 0 0 0 43 29.55V32a21.33 21.33 0 0 1-11.36-3.18c-.24.86-.49 1.67-.74 2.42l.18.1c3.12 1.7 6.71 3.21 11.92 3.21V37c-5.71 0-9.7-1.67-12.95-3.42-.32.8-.65 1.52-1 2.17C31.3 37.15 36.46 39 43 39v2.45c-6.95 0-12.53-1.94-15.22-3.6-2.14 2.96-5.24 4.15-8.9 4.15-5.93 0-8.88-2.7-8.88-5.45 0-2.55 2.24-3.92 4.64-4.55.45-2.33 2.78-3.78 5.19-4.27.14-.66.46-1.38 1.06-2.01.98-1.03 2.59-1.72 4.83-1.72a9.58 9.58 0 0 1 4.29 1.15v-.03c1.32-5.55 3.65-8.86 6.17-10.78Zm-6.79 13.25c-.23-.12-.46-.24-.7-.34a7.18 7.18 0 0 0-3-.77c-1.74 0-2.56.5-2.95.9a1.8 1.8 0 0 0-.19.23c2.17.26 4.23 1.33 6.13 2.4.24-.75.48-1.56.71-2.42Zm-1.71 4.67.17.1c-.29.75-.58 1.42-.88 2.02-2.65-1.53-5.74-2.83-8.85-2.83l-.61.02c.86-1.12 2.8-1.57 4.09-1.57 2.12 0 4.22 1.2 6.08 2.26ZM25.7 36.5c-2.27-1.3-4.93-2.49-7.6-2.49-1.38 0-5.61.4-5.61 2.55 0 .71.99 3 6.39 3 2.82 0 5.15-.77 6.82-3.06Z" fill="#007FC7"/></svg>