<!-- by TradingView --><svg width="56" height="56" viewBox="0 0 56 56" xmlns="http://www.w3.org/2000/svg"><path fill="#F0F3FA" d="M0 0h56v56H0z"/><path d="M28.1 10a7.53 7.53 0 0 1 7.48 7.62 7.4 7.4 0 0 1 2.36-.4 7.66 7.66 0 0 1 7.56 7.54 7.58 7.58 0 0 1-5.24 7.19 7.68 7.68 0 0 1 .64 7.9 7.6 7.6 0 0 1-4.4 3.75 7.62 7.62 0 0 1-8.48-2.76 7.66 7.66 0 0 1-7.35 3.07 7.57 7.57 0 0 1-4.9-11.96A7.6 7.6 0 0 1 10.72 23a7.65 7.65 0 0 1 9.71-5.39A7.74 7.74 0 0 1 28.1 10Zm-.08 4.55c-.78 0-1.44.62-1.44 1.4 0 .65.47 1.2 1.08 1.35v7.27c-.24 0-.48.05-.72.11l-1.32-2.9c.2-.2.36-.46.36-.77a1.14 1.14 0 0 0-1.12-1.11 1.1 1.1 0 0 0-.76 1.88 1.07 1.07 0 0 0 .76.31h.12l1.32 2.87c-.21.13-.41.28-.6.44l-2.4-2.15a1.07 1.07 0 0 0 0-.84c-.24-.55-.89-.76-1.44-.52a1.1 1.1 0 0 0-.56 1.44c.24.55.9.76 1.44.52l.08-.04 2.4 2.11c-.15.2-.29.41-.4.64l-6.88-2.23a1.43 1.43 0 0 0-2.07-1.3A1.4 1.4 0 1 0 17.7 25l6.88 2.24c-.05.25-.08.5-.08.76l-3.16.32a1.1 1.1 0 0 0-.64-.56 1.09 1.09 0 0 0-1.36.72 1.06 1.06 0 0 0 .68 1.35 1.13 1.13 0 0 0 1.4-.72v-.08l3.16-.35c.05.25.1.49.2.71L22.06 31a1.08 1.08 0 0 0-.8-.24c-.6.06-1.06.6-1 1.2.06.6.6 1.02 1.2.96.6-.07 1.06-.6 1-1.2 0-.04-.03-.09-.04-.12l2.72-1.56c.15.2.33.4.52.56l-4.24 5.83a1.41 1.41 0 0 0-1.36 2.43c.63.46 1.54.35 2-.28.39-.53.33-1.27-.08-1.75l4.24-5.8c.22.14.44.25.68.33l-.64 3.07a1.1 1.1 0 0 0-.91 1.23 1.04 1.04 0 0 0 .43.69 1.09 1.09 0 0 0 1.7-.62 1.04 1.04 0 0 0-.42-1.1 1.43 1.43 0 0 0-.12-.08l.68-3.07c.13.01.27.04.4.04h.36l.64 3.03a1.15 1.15 0 0 0-.48 1.14 1.07 1.07 0 0 0 .84.86 1.08 1.08 0 1 0 .44-2.12c-.04 0-.08-.03-.12-.04l-.64-3.03c.25-.08.5-.2.72-.32l4.24 5.83a1.42 1.42 0 0 0-.04 1.71 1.4 1.4 0 0 0 1.96.28 1.4 1.4 0 0 0-.44-2.48c-.3-.09-.63-.07-.92.05l-4.24-5.79c.19-.17.37-.4.52-.6l2.72 1.6a1.04 1.04 0 0 0 .2.8 1.09 1.09 0 0 0 1.52.23 1.04 1.04 0 0 0 .24-1.47c-.35-.49-1.03-.63-1.52-.28l-.08.08-2.76-1.56c.1-.23.19-.47.24-.72l3.16.32a1.11 1.11 0 0 0 .92.82 1.08 1.08 0 0 0 1.08-.54 1.08 1.08 0 0 0-1.88-1.08c-.02.04-.02.1-.04.13L31.5 28c0-.26-.03-.48-.08-.72l6.88-2.24a1.45 1.45 0 0 0 1.64.56 1.38 1.38 0 0 0 .88-1.75 1.4 1.4 0 0 0-1.76-.92c-.63.2-1 .8-.96 1.44l-6.92 2.23a3.3 3.3 0 0 0-.36-.64l2.4-2.15a1 1 0 0 0 .8.08 1.09 1.09 0 1 0-.64-2.08 1.13 1.13 0 0 0-.72 1.4l.04.08-2.36 2.15a3.52 3.52 0 0 0-.6-.44l1.32-2.95c.28.02.57-.04.8-.24a1.11 1.11 0 0 0 .08-1.55 1.12 1.12 0 0 0-1.81.25 1.07 1.07 0 0 0 .17 1.18c.03.03.05.1.08.12l-1.28 2.92a3.59 3.59 0 0 0-.72-.16V17.3a1.41 1.41 0 0 0 .63-2.34 1.4 1.4 0 0 0-.99-.41Z" fill="#E6001D"/></svg>