<!-- by TradingView --><svg width="56" height="56" viewBox="0 0 56 56" xmlns="http://www.w3.org/2000/svg"><path fill="#F0F3FA" d="M0 0h56v56H0z"/><path d="M4 31.86V22h1v9.86c0 .07.12.14.19.14H11v1H5.19C4.53 33 4 32.49 4 31.86ZM29 31.86V22h1v9.86c0 .07.11.14.19.14H36v1h-5.81c-.66 0-1.19-.51-1.19-1.14ZM12 26h1v7h-1zM37 26h1v7h-1zM12 24h1v1.45h-1zM37 24h1v1.45h-1zM17.18 27.02a7.37 7.37 0 0 0-2.73.7v-1.1c.7-.33 1.67-.64 2.76-.62 1.23.03 2.32.64 2.76 1.83l.03.09v4.7l-.4.1c-.86.2-2.17.37-3.28.23a3.4 3.4 0 0 1-1.57-.54 1.76 1.76 0 0 1-.75-1.48c0-.65.28-1.16.72-1.53.42-.36.97-.58 1.53-.72.88-.23 1.94-.28 2.75-.25v-.33c-.3-.74-1.07-1.06-1.82-1.08ZM19 29.46c-.74-.04-1.71 0-2.48.2-.63.17-1.52.5-1.52 1.27 0 .73.86.93 1.45 1 .8.1 1.8.02 2.55-.12v-2.35ZM42.18 27.02a7.37 7.37 0 0 0-2.73.7v-1.1c.7-.33 1.67-.64 2.76-.62 1.23.03 2.32.64 2.76 1.83l.03.09v4.7l-.4.1c-.86.2-2.17.37-3.28.23a3.4 3.4 0 0 1-1.57-.54 1.76 1.76 0 0 1-.75-1.48c0-.65.28-1.16.72-1.53.42-.36.97-.58 1.53-.72.88-.23 1.94-.28 2.75-.25v-.33c-.3-.74-1.07-1.06-1.82-1.08ZM44 29.46c-.74-.04-1.71 0-2.48.2-.63.17-1.52.5-1.52 1.27 0 .73.86.93 1.45 1 .8.1 1.8.02 2.55-.12v-2.35ZM22 26.52V26h-1v7h1v-5.28c.21-.18.5-.35.88-.48.47-.16 1-.24 1.5-.2.5.04.9.19 1.19.44.26.24.43.62.43 1.24V33h1v-4.28c0-.89-.3-1.56-.8-2.02a2.9 2.9 0 0 0-1.76-.69 4.83 4.83 0 0 0-2.44.5ZM47 26.52V26h-1v7h1v-5.28c.21-.18.5-.35.88-.48.47-.16 1-.24 1.5-.2.5.04.9.19 1.19.44.26.24.43.62.43 1.24V33h1v-4.28c0-.89-.3-1.56-.8-2.02a2.9 2.9 0 0 0-1.76-.69 4.83 4.83 0 0 0-2.44.5Z" fill="#004097"/></svg>