<!-- by TradingView --><svg width="56" height="56" viewBox="0 0 56 56" xmlns="http://www.w3.org/2000/svg"><path fill="#F0F3FA" d="M0 0h56v56H0z"/><path d="m28.02 17.28.03 3.27c0 .11.04.13.12.06l4.38-4.07a.34.34 0 0 0 .11-.27L32.62 13l3.54.02c.14 0 .21.07.21.21v3.07c0 .17-.06.3-.17.41l-4.22 3.93c-.14.12-.14.25 0 .38l3.67 3.43v3.33c0 .03-.01.05-.04.06a.07.07 0 0 1-.08-.01l-7.21-6.75c-.2-.2-.31-.14-.31.14v3.15l-3.67 3.42c-.14.14-.14.28 0 .41L28 31.63v3.23c0 .16-.06.19-.18.08l-7.37-6.89c-.08-.07-.08-.14 0-.21l7.48-6.95c.07-.07.07-.13 0-.2l-4.33-4.04a.79.79 0 0 0-.58-.23l-3.38.04.02-3.32c0-.09.05-.13.14-.13h3.51c.1 0 .19.03.26.1l4.45 4.17Z" fill="#042579"/><path d="m32.62 13 .04 3.27c0 .1-.03.2-.11.27l-4.38 4.07c-.08.07-.12.05-.12-.06l-.03-3.27 4.6-4.28Z" fill="#5AB3E6"/><path d="m28 31.63 3.69-3.43c.14-.14.14-.27 0-.4L28 24.37v-3.15c0-.29.1-.33.3-.14l7.22 6.75c.03.02.05.02.08.01s.04-.03.04-.06v-3.33L40.27 20l.05 3.3c0 .19-.06.34-.2.46L19.8 42.97a.19.19 0 0 1-.09-.04.13.13 0 0 1-.05-.1v-3.1c0-.19.07-.35.2-.47l4.2-3.9c.13-.12.13-.24 0-.36l-3.7-3.46v-3.25c0-.05-.03-.09-.07-.11a.11.11 0 0 0-.14.02c-2.65 2.44-5.3 4.9-7.95 7.4-.09.08-.07.3.04.4-.06.03-.13-.1-.21-.12v-3.52l4.4-4.19c.12-.12.12-.24 0-.36L12 23.67l3.6-.05c.1 0 .17.03.24.1l4.34 4.05c.1.1.16.08.16-.07v-3.24L24.07 21c.12-.12.12-.23 0-.34l-4.42-4.2 3.38-.04c.22 0 .41.07.58.23l4.33 4.04c.07.07.07.13 0 .2l-7.48 6.95c-.08.07-.08.14 0 .21l7.37 6.89c.12.1.18.08.18-.08v-3.23Z" fill="#5AB3E6"/><path d="m20.35 24.46-.01 3.24c0 .15-.05.17-.16.07l-4.34-4.05a.32.32 0 0 0-.23-.1l-3.61.05.02.06V20h3.56c.1 0 .18.18.26.25l4.5 4.2ZM44 35.66l-8.07-7.44a.14.14 0 0 0-.17-.03c-.06.03-.1.08-.1.15v3.21L32 34.96c-.15.14-.15.28 0 .41l4.2 3.93c.1.1.16.23.16.38v3.13a1.08 1.08 0 0 1-.44-.25 1398.1 1398.1 0 0 0-7.7-7.24c-.05-.03-.1-.04-.14-.02-.05.02-.08.06-.08.12l.01 3.3-4.42 4.13a.36.36 0 0 1-.26.1l-3.54.02 20.34-19.21c.13-.12.2-.27.19-.45L40.27 20h3.57c.1 0 .16.19.16.3v3.28c0 .1-.04.19-.1.26l-4.2 3.89c-.18.18-.18.35 0 .53l4.18 3.9c.08.07.11.16.11.27v3.23ZM20.35 31.54l-4.51 4.2c-.08.07-.16.26-.26.26h-3.35c-.11-.1-.13-.32-.04-.4 2.65-2.5 5.3-4.96 7.95-7.4a.11.11 0 0 1 .13-.02c.05.02.08.06.08.11v3.25Z" fill="#042579"/><path d="M44 35.66a.4.4 0 0 1 0 .11c-.02.09-.07.23-.15.23h-3.28c-.2 0-.36-.17-.5-.3l-4.41-4.15v-3.21c0-.07.04-.12.1-.15a.14.14 0 0 1 .17.03l8.06 7.44ZM36.35 42.8a.28.28 0 0 1-.06.14c-.03.03-.07.04-.13.04-1.13.02-2.24.03-3.35 0a.67.67 0 0 1-.47-.18L28 38.72v-3.3c0-.06.02-.1.07-.12.05-.02.1-.01.13.02 2.57 2.4 5.14 4.8 7.71 7.24.12.11.26.2.43.25Z" fill="#5AB3E6"/></svg>