<!-- by TradingView --><svg width="56" height="56" viewBox="0 0 56 56" xmlns="http://www.w3.org/2000/svg"><path fill="#F0F3FA" d="M0 0h56v56H0z"/><path d="M18 32.92V15h6v17.84c0 7.53-6.6 8.16-8.7 8.16a17.1 17.1 0 0 1-4.3-.67c.44-1.15 1.47-3.2 2.1-4.7.77.23 1.4.37 2.3.37 1.52 0 2.6-1.73 2.6-3.08ZM43.68 16.99l-1.61 4.38A15.4 15.4 0 0 0 36.05 20c-2.18 0-3.05.74-3.05 1.89 0 2.04 1.49 2.31 4.47 3.62 2.98 1.3 6.53 2.97 6.53 7.6 0 4.62-4.11 7.89-9.08 7.89s-7.87-1.66-8.92-2.07c1.29-1.44 1.83-4.11 1.83-4.41A15.28 15.28 0 0 0 34.49 36c1.75 0 3.51-.64 3.51-2.27s-1.39-2.34-4.2-3.51C28.62 28.04 27 26.52 27 22c0-4.52 4.21-7 8.83-7 3.7 0 6.77 1.32 7.85 1.99Z" fill="#EB6100"/></svg>