<!-- by TradingView --><svg width="56" height="56" viewBox="0 0 56 56" xmlns="http://www.w3.org/2000/svg"><path fill="#F0F3FA" d="M0 0h56v56H0z"/><path fill-rule="evenodd" d="M10.33 25h-.97l.8 1.06a1.7 1.7 0 0 1-1.29-.18 1.6 1.6 0 0 1-.58-.7c-.14-.32-.2-.7-.2-1.14 0-.45.06-.83.2-1.14.14-.3.33-.54.58-.7.25-.16.53-.24.86-.24.32 0 .6.08.85.24.25.16.44.4.58.7.14.31.21.69.21 1.14 0 .44-.07.82-.21 1.13-.09.2-.2.36-.32.49l-.5-.65Zm1.16 1.45c.24-.21.44-.47.6-.78.24-.45.36-1 .36-1.63 0-.64-.12-1.19-.36-1.64A2.53 2.53 0 0 0 9.73 21a2.56 2.56 0 0 0-2.37 1.4c-.24.45-.36 1-.36 1.64 0 .63.12 1.18.36 1.63.24.45.56.8.97 1.04.41.24.88.29 1.4.29.37 0 .72-.02 1.04-.13l.5.63h1.04l-.82-1.05ZM41 21h1v3.86c0 1.39-1.22 2.14-2.5 2.14s-2.5-.75-2.5-2.14V21h1v3.77c0 .79.75 1.27 1.5 1.27s1.5-.48 1.5-1.27V21Zm4.91 10c-.04-.15-.1-.35-.19-.47a1.25 1.25 0 0 0-.28-.32 1.14 1.14 0 0 0-.38-.2 1.53 1.53 0 0 0-1.28.18c-.23.15-.42.39-.55.7-.14.3-.2.67-.2 1.1 0 .45.06.82.2 1.13.13.3.32.53.55.7.24.15.52.23.83.23.29 0 .54-.06.75-.17.2-.11.37-.28.48-.49.07-.12.11-.25.14-.39H45v-1h2v.56c0 .5-.1.94-.3 1.3-.21.37-.5.65-.85.85-.36.2-.78.29-1.24.29-.52 0-.98-.12-1.37-.36-.39-.25-.7-.6-.91-1.04A3.62 3.62 0 0 1 42 32c0-.47.06-.89.2-1.26.12-.37.3-.68.54-.94.23-.26.5-.46.82-.6.3-.13.65-.2 1.02-.2.31 0 .6.05.87.14a2.28 2.28 0 0 1 1.24 1.02c.13.24.22.55.26.84h-1.04ZM41 35v-6h-1v4.09h-.15L36.99 29H36v6h1v-4.09h.15L40.02 35H41Zm-6-6v6h-1v-6h1Zm-7 0v6h1v-1.79l.73-.78L31.5 35h1.3l-2.32-3.3 2.3-2.7h-1.32l-2.31 2.76H29V29h-1Zm-1 0v6h-.98l-2.87-4.09H23V35h-1v-6h.99l2.86 4.09H26V29h1Zm-6 6v-6h-1v6h1Zm-7 0v-6h1v2.54h3V29h1v6h-1v-2.55h-3V35h-1Zm-6-6v1h2v5h1v-5h2v-1H8Zm35-8h1.27l1.7 4.35h.06l1.7-4.35H49v6h-1v-4.12h-.05l-1.58 4.1h-.74l-1.58-4.11H44V27h-1v-6Zm-12 0v1h2v5h1v-5h2v-1h-5Zm-1 0v6h-.98l-2.87-4.09H26V27h-1v-6h.99l2.86 4.09H29V21h1Zm-11.35 6h1.14l.5-1.48h2.22l.5 1.48h1.14l-2.09-6h-1.33l-2.08 6Zm3.57-2.35-.8-2.42h-.05l-.8 2.42h1.65ZM17 21h1v3.94c0 1.39-1.22 2.14-2.5 2.14s-2.5-.75-2.5-2.14V21h1v3.85c0 .79.75 1.28 1.5 1.28s1.5-.5 1.5-1.28V21Z"/></svg>