<!-- by TradingView --><svg width="56" height="56" viewBox="0 0 56 56" xmlns="http://www.w3.org/2000/svg"><path fill="#F0F3FA" d="M0 0h56v56H0z"/><path d="M45 28a17 17 0 1 0-34 0 17 17 0 0 0 34 0Zm-19-7h-2.06A4.01 4.01 0 0 0 20 25.12v5.76c0 2.24 1.7 4.12 3.94 4.12H26v5.9c-6.44-.95-11-6.2-11-12.9s4.56-11.91 11-12.86V21Zm5.66 4c.22 0 .34.16.34.38v5.2c0 .22-.12.42-.34.42h-7.33c-.22 0-.33-.19-.33-.4v-5.21c0-.22.11-.39.33-.39h7.33ZM41 28c0 6.7-4.56 11.95-11 12.9V35h2.06A4.01 4.01 0 0 0 36 30.88v-5.76c0-2.24-1.7-4.12-3.94-4.12H30v-5.86c6.44.95 11 6.16 11 12.86Z" fill="#B31C2A"/></svg>