<!-- by TradingView --><svg width="56" height="56" viewBox="0 0 56 56" xmlns="http://www.w3.org/2000/svg"><path fill="#F0F3FA" d="M0 0h56v56H0z"/><path d="M24.26 27.6 28 31.78l3.74-4.16L36.87 34H45L32.13 21 28 24.99 23.87 21 11 34h8.13l5.13-6.4Z" fill="#D0AE67"/><path d="m40 23-9.97-10.16a2.87 2.87 0 0 0-4.06 0L16 23l8.62-1.3L28 17.88l3.47 3.82L40 23Z" fill="#D0AE67"/><path fill-rule="evenodd" d="M41.71 36.31c3.54-1.67 5.29-3.8 5.29-5.81s-1.75-4.14-5.29-5.81C38.26 23.04 33.41 22 28 22c-5.4 0-10.26 1.04-13.71 2.69C10.75 26.36 9 28.49 9 30.5s1.75 4.14 5.29 5.81C17.74 37.96 22.59 39 28 39c5.4 0 10.26-1.04 13.71-2.69ZM28 40c11.05 0 20-4.25 20-9.5S39.05 21 28 21 8 25.25 8 30.5 16.95 40 28 40Z" fill="#D0AE67"/><path d="M19.1 30.8c0 4.37 3.93 8 8.9 8 4.97 0 8.9-3.63 8.9-8h1c0 5.02-4.48 9-9.9 9s-9.9-3.98-9.9-9h1Z" fill="#D0AE67"/><path d="M28 33.5c-5.4 0-10.26 1.5-13.71 3.91l-.58-.82c3.65-2.53 8.71-4.09 14.29-4.09 5.58 0 10.64 1.56 14.29 4.09l-.58.82c-3.45-2.4-8.3-3.91-13.71-3.91ZM28 26.5c-5.03 0-9.55-1.14-12.76-2.94l-.49.88c3.39 1.9 8.08 3.06 13.25 3.06s9.86-1.16 13.24-3.06l-.49-.88c-3.2 1.8-7.72 2.94-12.75 2.94Z" fill="#D0AE67"/><path d="M27.5 39.86V22h1v17.86h-1Z" fill="#D0AE67"/><path d="M9 29.5h38.85v1H9v-1Z" fill="#D0AE67"/></svg>