<!-- by TradingView --><svg width="56" height="56" viewBox="0 0 56 56" xmlns="http://www.w3.org/2000/svg"><path fill="#F0F3FA" d="M0 0h56v56H0z"/><path d="M18.45 37H8c.73-2.42 2.48-8.39 3.7-12.85 1.2-4.47 1.96-5.15 2.17-5.15h1.77L20 31.68 18.45 37Z" fill="url(#a)"/><path d="M30.6 19h.6c2 .42 5.72 2.9 4.59 9.5-1.14 6.6-2.72 8.41-3.37 8.5H30.5c-2.04-2.3-4.53-7.99-3.23-12.3 1.3-4.32 2.76-5.6 3.32-5.7Z" fill="url(#b)"/><path d="M41.39 19H31c3.43 1.96 5.78 12.82 6.53 18H48c-2.24-14.6-5.3-18-6.61-18Z" fill="url(#c)"/><path d="M23.95 19H14c.87 0 2.02 2.42 3.55 9.41 1.22 5.6 3.18 8.06 4 8.59H32c-.9-.26-2.02-1.73-4.13-9.71-1.68-6.4-3.32-8.19-3.92-8.29Z" fill="url(#d)"/><defs><linearGradient id="a" x1="14" y1="19" x2="14" y2="37" gradientUnits="userSpaceOnUse"><stop stop-color="#7F8082"/><stop offset=".51" stop-color="#F6F6F6"/><stop offset="1" stop-color="#BEBEBE"/></linearGradient><linearGradient id="b" x1="31.5" y1="19" x2="31.5" y2="37" gradientUnits="userSpaceOnUse"><stop stop-color="#7F8082"/><stop offset=".51" stop-color="#F6F6F6"/><stop offset="1" stop-color="#BEBEBE"/></linearGradient><linearGradient id="c" x1="39.5" y1="19" x2="39.5" y2="37" gradientUnits="userSpaceOnUse"><stop stop-color="#025A98"/><stop offset=".14" stop-color="#025DA1"/><stop offset=".49" stop-color="#029EDE"/><stop offset=".5" stop-color="#0075C2"/><stop offset=".72" stop-color="#002F79"/><stop offset="1" stop-color="#013D7D"/></linearGradient><linearGradient id="d" x1="23" y1="19" x2="23" y2="37" gradientUnits="userSpaceOnUse"><stop stop-color="#025A98"/><stop offset=".14" stop-color="#025DA1"/><stop offset=".49" stop-color="#029EDE"/><stop offset=".5" stop-color="#0075C2"/><stop offset=".72" stop-color="#002F79"/><stop offset="1" stop-color="#013D7D"/></linearGradient></defs></svg>