<!-- by TradingView --><svg width="56" height="56" viewBox="0 0 56 56" xmlns="http://www.w3.org/2000/svg"><path fill="#F0F3FA" d="M0 0h56v56H0z"/><path d="M25 15h9.57c.24 0 .43-.25.43-.5a3.5 3.5 0 0 0-3.48-3.5h-6.4A4.14 4.14 0 0 0 21 15.15v10.41c0 .24.2.44.43.44A3.57 3.57 0 0 0 25 22.5V15ZM15 31v-9.57c0-.24-.25-.43-.5-.43a3.5 3.5 0 0 0-3.5 3.48v6.4A4.14 4.14 0 0 0 15.15 35h10.41c.24 0 .44-.2.44-.43A3.57 3.57 0 0 0 22.5 31H15Zm4.4-15a3.34 3.34 0 0 0-3.4 3.27V30h4V16.57a.58.58 0 0 0-.6-.57Zm-.13 24A3.34 3.34 0 0 1 16 36.6c0-.33.25-.6.57-.6H30v4H19.27ZM41 19.4c0-1.87-1.57-3.4-3.52-3.4H27v4h13.39a.6.6 0 0 0 .61-.6Zm.72 1.6c1.81 0 3.28 1.53 3.28 3.4 0 .33-.26.6-.57.6h-8.58A3.93 3.93 0 0 1 32 21h9.72ZM21 41.6c0 1.87 1.44 3.4 3.21 3.4h5.3c.27 0 .49-.24.49-.53V41h-8.44c-.31 0-.56.27-.56.6Z" fill="url(#a)"/><path d="M31 34.4c0-1.79 2.12-3.4 4-3.4v10.2c0 2.1-1.8 3.8-4 3.8V34.4Zm9 2.3c0 1.83-1.53 3.3-3.4 3.3a.58.58 0 0 1-.6-.57V31h4v5.7Zm1-5.7h3.5c.28 0 .5.23.5.52A3.4 3.4 0 0 1 41.68 35h-.17a.53.53 0 0 1-.51-.54V31Z" fill="url(#b)"/><defs><linearGradient id="a" x1="27.5" y1="11" x2="27.5" y2="44.71" gradientUnits="userSpaceOnUse"><stop stop-color="#E1B671"/><stop offset="1" stop-color="#B28D5A"/></linearGradient><linearGradient id="b" x1="32.47" y1="32.22" x2="39.49" y2="39.8" gradientUnits="userSpaceOnUse"><stop stop-color="#C29058"/><stop offset="1" stop-color="#B92728"/></linearGradient></defs></svg>