<!-- by TradingView --><svg width="56" height="56" viewBox="0 0 56 56" xmlns="http://www.w3.org/2000/svg"><path fill="#F0F3FA" d="M0 0h56v56H0z"/><path d="M40.62 39C28.92 24.92 12.67 29.05 6 32.88c8.46-7.65 17.7-11.48 26.92-11.48 7.39 0 11.8 4.08 13.08 6.12L40.62 39Z" fill="#034291"/><path d="M32.67 20.3c-3.73 0-9.14 1.35-11.47 2.2-2.48-2.04-6.72-.85-8.53 0 1.1-1.65 4.67-4.4 7.77-4.4 3.1 0 5.16 1 6.2 1.85 2.32-1.42 8.07-3.92 12.41-2.56 4.35 1.37 3.88 3.98 3.1 5.11a23.71 23.71 0 0 0-9.48-2.2Z" fill="#73BD2A"/></svg>