<!-- by TradingView --><svg width="56" height="56" viewBox="0 0 56 56" xmlns="http://www.w3.org/2000/svg"><path fill="#F0F3FA" d="M0 0h56v56H0z"/><path d="M36.88 15.7a36.33 36.33 0 0 0-4.37-1.73 12.5 12.5 0 0 0-5.48-.5.13.13 0 0 0-.04.07v.07c0 .03.02.05.04.07.1.1.34.15.74.17l.23.01-2.2.18a5.1 5.1 0 0 0-1.72.45l-.85.24c-2.12.6-3.71 1.17-4.8 1.73-.13.07-.38.13-.74.18a17.03 17.03 0 0 1 7.15-3.36c1.1-.22 2.32-.31 3.63-.27 3.06.1 5.87 1 8.41 2.7Z" fill="#7A7B7C"/><path d="M36.88 15.7a17.3 17.3 0 0 1 5.26 5.4c-.03.17-.18.17-.46 0-.13-.08-.27-.2-.43-.37l-2.43-2.5a5.79 5.79 0 0 0-1.36-1.37 15.9 15.9 0 0 0-1.44-.84 24.74 24.74 0 0 0-2.67-1.31c-1.45-.54-2.95-.8-4.5-.8l-.85-.05-.23-.01c-.4-.02-.65-.08-.74-.17a.14.14 0 0 1-.04-.14l.04-.06a12.5 12.5 0 0 1 5.48.5c1.49.47 2.94 1.05 4.37 1.72Z" fill="#2C2C2C"/><path d="m28 13.86.85.05 1.1.31.69.26a19.67 19.67 0 0 1 4.78 2.35v.03l-.02.05a.08.08 0 0 1-.05.05.08.08 0 0 1-.07 0c-.8-.48-1.43-.8-1.91-.97a20.03 20.03 0 0 0-8.01-1.11c-.56.03-1.37.17-2.45.43a18.26 18.26 0 0 1-1.59.31v-.02l-.02-.05v-.05c.01-.02.02-.03.04-.03l2.74-.98a5.1 5.1 0 0 1 1.71-.45l2.2-.18Z" fill="#E0E0E2"/><path d="M38.82 18.22a19.41 19.41 0 0 0-3.24-2.17c-.46-.26-1.24-.56-2.35-.89-.4-.22-.82-.36-1.28-.4a.74.74 0 0 1-.17-.05c-.59-.23-1.2-.4-1.84-.49l-1.1-.31c1.56 0 3.06.26 4.51.8.51.18 1.4.62 2.67 1.3.71.4 1.19.67 1.44.85.54.4 1 .85 1.36 1.36Z" fill="#5B5D5F"/><path d="m33.23 15.16.92.45c1.65.8 2.8 1.45 3.46 1.96a.3.3 0 0 1 .1.14c.56 1.54.88 2.5.94 2.85.33 1.93.78 3.84 1.35 5.72l-1.65.7a.11.11 0 0 0-.05.05l-.53.96a.22.22 0 0 1-.06.06.2.2 0 0 1-.07.04l-.15.04a.13.13 0 0 0-.08.07.13.13 0 0 0 0 .1c.01.05.04.1.09.14l-.72-.21c.1-.46.28-.86.56-1.2.28-.35.44-.58.46-.7.24-1.34-1.47-2.9-5.14-4.66a2.25 2.25 0 0 0-1.02-.22l-.01.02a.05.05 0 0 0 0 .05 10 10 0 0 1 .87 1.07h-.03l-.02-.01-.79-.78a.02.02 0 0 0-.02 0 .03.03 0 0 0-.02 0l-.01.03v.02c.31.3.5.52.56.66.35.81.3 1.08-.18.8-2.85-3.28-5.93-5.3-9.26-6.06l-.93-.29h-.02v-.04h.02c.85.01 1.68.07 2.5.17.87.1 1.5.15 1.88.14a15.84 15.84 0 0 1 5.82.88c1.05.32 1.85.6 2.38.85.86.39 1.47.54 1.82.44a.32.32 0 0 0 .15-.1c.04-.04.07-.1.09-.16a.36.36 0 0 0-.11-.34c-2.11-1.88-4.19-3.02-6.22-3.4-2.64-.5-4.79-.45-6.46.17l-1.28.36c-1.32.34-2.61.75-3.88 1.22-.64.24-1.05.44-1.22.59a6.3 6.3 0 0 1-1.8 1.1c.65-.88 1.4-1.61 2.22-2.2.36-.05.61-.11.75-.18a26.45 26.45 0 0 1 4.79-1.73l.85-.24-2.74.98a.06.06 0 0 0-.04.03v.05l.01.05.01.02h.03c.32-.04.84-.14 1.56-.31 1.08-.26 1.9-.4 2.45-.43 2.8-.17 5.47.2 8 1.1a11.92 11.92 0 0 1 1.96.98h.03a.08.08 0 0 0 .05-.05l.02-.05a.04.04 0 0 0-.02-.05c-.96-.73-2.55-1.5-4.76-2.33l-.7-.26c.64.1 1.25.26 1.84.5l.17.04c.46.04.89.18 1.28.4Z" fill="#AFAFB1"/><path d="m22.73 17.25-1.91-.05h-.01a.03.03 0 0 0-.01.03v.01c.2.12.44.2.72.25l-1.7.09a9.38 9.38 0 0 0-5.94 3.3c.47-.75 1-1.43 1.6-2.05a6.3 6.3 0 0 0 1.79-1.09c.17-.15.58-.35 1.22-.59 1.27-.47 2.56-.88 3.88-1.22l-.56.48a.16.16 0 0 0-.05.08v.1c0 .02.02.05.05.07a95.14 95.14 0 0 1 3.38.3c.4.04 1 .05 1.77.02.76-.02 1.32-.01 1.67.03 1.44.17 2.61.42 3.53.74 1.12.38 2.07.69 2.86.92.04.02.07.01.1 0a.16.16 0 0 0 .08-.08.17.17 0 0 0-.04-.2 13.65 13.65 0 0 0-4.4-2.5 8.96 8.96 0 0 0-2.18-.6 22.1 22.1 0 0 0-2.6-.07c-.27 0-.76.07-1.46.2-.4.08-.68.12-.87.15 1.67-.62 3.82-.67 6.46-.17 2.03.38 4.1 1.52 6.22 3.4.04.05.08.1.1.16a.36.36 0 0 1-.08.35.32.32 0 0 1-.15.1c-.35.09-.96-.06-1.82-.45-.53-.24-1.33-.53-2.38-.85l-.76-.23c-1.5-.47-3.2-.69-5.06-.65-.38 0-1-.04-1.89-.14a25.44 25.44 0 0 0-2.51-.15v.01l.02.01.93.3Z" fill="#D2D7D8"/><path d="m38.82 18.22 2.43 2.51c.16.17.3.3.43.37.28.17.43.17.46 0 .5.8.77 1.51.78 2.14.01.73-.04 1.43-.15 2.1-.03.15-.13.43-.32.8a.23.23 0 0 1-.08.1l-.13.1a.2.2 0 0 0-.07.07c-.1.2-.24.37-.43.53.53-.95.81-1.7.85-2.23.08-1.02.03-1.65-.16-1.9a.12.12 0 0 0-.06-.04c-.02-.01-.05-.01-.07 0a.12.12 0 0 0-.06.04.13.13 0 0 0-.02.07 3.66 3.66 0 0 1-2.22 3.4 47.63 47.63 0 0 1-1.35-5.72c-.06-.36-.38-1.3-.94-2.85a.3.3 0 0 0-.1-.14 21.08 21.08 0 0 0-3.46-1.96l-.92-.45c1.1.33 1.89.63 2.35.89l.17.1a19.4 19.4 0 0 1 3.07 2.07Z" fill="#919093"/><path d="m22.37 15.93 1.28-.36c.19-.03.48-.07.87-.15.7-.13 1.2-.2 1.47-.2.87-.03 1.73 0 2.6.07.5.04 1.22.24 2.17.6a13.65 13.65 0 0 1 4.4 2.5c.03.03.05.06.05.1v.1a.16.16 0 0 1-.08.08.15.15 0 0 1-.1 0c-.8-.23-1.75-.54-2.87-.92-.92-.32-2.1-.57-3.53-.74-.35-.04-.91-.05-1.67-.03-.78.03-1.37.02-1.77-.02-1.09-.11-2.19-.2-3.3-.27a.15.15 0 0 1-.08-.03.16.16 0 0 1-.05-.08v-.09c0-.03.02-.06.05-.08l.56-.48Z" fill="#fff"/><path d="M21.52 17.49c1.88.16 3.57.76 5.08 1.78a24.75 24.75 0 0 1 4.93 4.43l-.01.03-.03.02h-.03a27.42 27.42 0 0 0-3.72-2.15c-.32-.15-.92-.3-1.8-.44l.11-.04a.1.1 0 0 0 .06-.04.12.12 0 0 0 0-.14.1.1 0 0 0-.07-.03l-4.3-.95c-.46-.6-.97-1.13-1.52-1.62-.18-.16-.3-.41-.4-.76l1.7-.1Z" fill="#236E11"/><path d="M19.83 17.58c.08.35.21.6.39.76.55.49 1.06 1.03 1.52 1.62-1.53-.2-3.06-.16-4.6.14a4.48 4.48 0 0 0-1.36.47.08.08 0 0 0-.02.07l.02.03c.22.27.52.5.9.7 1.14.58 2.34.66 3.6.24-1.08.38-2.12.81-3.1 1.31-1.64.83-2.87 1.19-3.69 1.07a.52.52 0 0 1-.3-.15.57.57 0 0 1-.15-.3 2.23 2.23 0 0 1 .45-1.82l.4-.84a9.37 9.37 0 0 1 5.94-3.3Z" fill="#50AF14"/><path d="m21.74 19.96 4.3.95a.1.1 0 0 1 .06.03.12.12 0 0 1-.05.18l-.12.04a13.2 13.2 0 0 0-5.66.45 4.48 4.48 0 0 1-3.6-.24 2.71 2.71 0 0 1-.9-.73.08.08 0 0 1 0-.07l.03-.02c.35-.2.8-.35 1.35-.45 1.53-.3 3.06-.35 4.59-.14Z" fill="#186011"/><path d="M36.78 28.23a2.74 2.74 0 0 1-1.52-.95 11.96 11.96 0 0 1-1.43-1.81L32 23.32c.47.27.53 0 .18-.8a2.7 2.7 0 0 0-.56-.7v-.02h.05l.79.78.02.01h.04v-.01a9.98 9.98 0 0 0-.89-1.08v-.03l.02-.02h.03c.34 0 .68.07 1 .22 3.66 1.76 5.37 3.32 5.13 4.66-.02.12-.17.35-.46.7-.28.34-.47.74-.56 1.2Z" fill="#E0E0E2"/><path d="M41.74 26.94c-1.01 1.45-2.43 1.95-4.24 1.5a.57.57 0 0 1-.1-.13.14.14 0 0 1 0-.11.13.13 0 0 1 .1-.07l.14-.04a.2.2 0 0 0 .07-.04.22.22 0 0 0 .06-.06l.53-.96a.11.11 0 0 1 .05-.05l1.65-.7a3.66 3.66 0 0 0 2.22-3.4c0-.02 0-.05.02-.07a.12.12 0 0 1 .06-.04.12.12 0 0 1 .13.04c.2.25.24.88.16 1.9a6.22 6.22 0 0 1-.85 2.23ZM17.94 27.45c-.07 0-.1.08-.1.22v.02l-.02.01c-.23.05-.44.2-.63.44a.86.86 0 0 0-.12.22l-.35.94c0 .03-.02.05-.05.06l-1.37.77c-.5.34-.87.76-1.1 1.27a8 8 0 0 0-.47 1.7l-.03.03a.1.1 0 0 1-.1 0c-.04-.01-.08-.06-.1-.14a5.18 5.18 0 0 1 .44-3.24 6 6 0 0 0 .29-.75 3.8 3.8 0 0 1 3.7-1.55Z" fill="#1B1E1D"/><path d="M17.94 27.45c.4.03.8.13 1.18.3-.04.62-.5 1.15-1.39 1.59a.23.23 0 0 0-.1.12.25.25 0 0 0-.01.17 6.25 6.25 0 0 0 2.31 3.1c1.36 1 2.82 1.84 4.39 2.53.23.1.45.14.64.13l.07-.03a.18.18 0 0 0 .06-.06.2.2 0 0 0 .01-.17l-.15-.36a7.64 7.64 0 0 1-2.2-3 1.42 1.42 0 0 1-.13-.52.03.03 0 0 1 .03-.01h.02c.06.1.13.12.2.08a22.75 22.75 0 0 0 7.53 6.44c.22.12.55.26 1 .42a10.4 10.4 0 0 0 2.99.78v.07l-.03.02c-.46.08-1.01.09-1.66 0a34.65 34.65 0 0 0-4.38-.24c-.74 0-1.44-.08-2.11-.25-1.9-.48-3.54-.99-4.93-1.53-.6-.23-1.1-.4-1.5-.48h-.1a.15.15 0 0 0-.06.07.16.16 0 0 0 0 .17c.4.64.97 1.2 1.7 1.64.71.44 1.43.87 2.16 1.3 1.73 1 4.07 1.35 7.02 1.03a9.26 9.26 0 0 0 2.62-.52c1.77-.43 3.12-.85 4.06-1.25.67-.29 1.58-.82 2.72-1.6a122.71 122.71 0 0 1 .52-.35l.04.03a.07.07 0 0 1 0 .09l-.57.78c-.67.73-1.41 1.37-2.24 1.9-.51.02-1.16.24-1.92.66l-.25.13c-1.19.63-2.53.98-4.03 1.04.7-.3 1.42-.58 2.15-.84.15-.06.3-.12.43-.2.02 0 .03-.02.03-.04v-.05a.07.07 0 0 0-.03-.03 18.53 18.53 0 0 0-12.07-.64.06.06 0 0 0-.02.02.06.06 0 0 0 .01.07 5 5 0 0 0 .83.52c1.48.66 3 1.17 4.55 1.52a4.8 4.8 0 0 1-1.38-.2l-1.84-.53a29.5 29.5 0 0 1-2.66-.94 121.34 121.34 0 0 0-1.24-.5l-1.67-1.02L17.5 38l-1.14-1.1c-.03-2.74-.39-5-1.06-6.77l1.37-.77a.11.11 0 0 0 .05-.06l.35-.94a.86.86 0 0 1 .12-.22c.19-.25.4-.4.63-.44h.01l.01-.03c0-.14.03-.21.1-.22Z" fill="#AFAFB1"/><path d="M22.87 31.32c-.07.04-.14.01-.2-.07l-.02-.01h-.02a.03.03 0 0 0-.02.03c.01.15.06.32.13.5a7.64 7.64 0 0 0 2.21 3l.15.36a.2.2 0 0 1-.07.23.17.17 0 0 1-.07.03 1.3 1.3 0 0 1-.64-.13 22.82 22.82 0 0 1-4.39-2.53 6.25 6.25 0 0 1-2.31-3.1.25.25 0 0 1 0-.17c.02-.05.06-.1.11-.12.89-.44 1.35-.97 1.4-1.59.9.26 1.82 1.06 2.74 2.41.29.43.62.81 1 1.16Z" fill="#D2D7D8"/><path d="M18.78 30a.38.38 0 0 1-.07-.35.37.37 0 0 1 .1-.16c.04-.04.1-.07.16-.08l.78-.2a1.19 1.19 0 0 1 1.08.27c.72.64 1.43 1.83 2.13 3.59a.08.08 0 0 1-.02.1.07.07 0 0 1-.09.01A19.62 19.62 0 0 1 20 31.18a10 10 0 0 1-1.23-1.18Z" fill="#fff"/><path d="M14.23 29c-.08.25-.18.5-.29.75A5.18 5.18 0 0 0 13.5 33c.02.08.06.13.1.15a.1.1 0 0 0 .1-.01l.03-.03a3.03 3.03 0 0 1 1.56-2.97 20.09 20.09 0 0 1 1.07 6.78l-2.83-2.7c-.86-2.1-.63-3.83.7-5.21Z" fill="#919093"/><path d="m41.47 35.92-.65.47c-1.24.91-2.22 1.47-2.94 1.68-.3.09-.8.2-1.49.32-.59.1-1.2.13-1.86.07-.8-.44-1.94-1.22-3.4-2.36a104.24 104.24 0 0 0-.89-.7v-.05l.04-.04.06-.01c.87.22 1.74.4 2.6.53 2.98.46 5.4.34 7.25-.34a.1.1 0 0 0 .04-.03.1.1 0 0 0-.02-.15 8.28 8.28 0 0 0-2.16-1.1l-.88-.36.94-.45c1.5-.75 2.65-1.2 3.42-1.37.37-.08.7-.08 1-.02.11.02.21.08.3.16a.6.6 0 0 1 .14.3c.07.36.02.75-.14 1.16a7.77 7.77 0 0 1-1.36 2.3Z" fill="#46A212"/><path d="m37.17 33.85.88.36a8.27 8.27 0 0 1 2.2 1.14.11.11 0 0 1-.02.1.1.1 0 0 1-.04.04c-1.85.69-4.27.8-7.24.34a28.87 28.87 0 0 1-2.67-.52.09.09 0 0 0-.03.04l-.01.05a109.48 109.48 0 0 1 .88.7 28.74 28.74 0 0 0 3.41 2.36c-1-.05-1.98-.26-2.94-.61-2.48-1.04-4.83-2.86-7.04-5.47l-.01-.03v-.04l.04-.02.03.01c.94.63 1.93 1.21 3 1.77.9.47 2.02.75 3.38.83 2.16.13 4.22-.22 6.18-1.05Z" fill="#186011"/><path d="M16.36 36.9 17.5 38c.76.88 2.1 1.8 4.04 2.77a16.72 16.72 0 0 0 3.62 1.19c.48.08 1.18.1 2.12.08l1.3.12c.04 0 .09.03.13.07.06.07.14.1.24.1H29l.03.05v.06l-.04.04c-.22.1-.45.17-.68.2-1.42.13-2.89-.03-4.4-.5a22.96 22.96 0 0 1-4.01-1.55.35.35 0 0 1-.12-.11c-.13-.18-.3-.2-.52-.1a18.2 18.2 0 0 1-4.5-4.22 12.7 12.7 0 0 1-1.23-2l2.83 2.7Z" fill="#2C2C2C"/><path d="M41.47 35.92a5.03 5.03 0 0 1-1.58 2.02l.57-.78a.07.07 0 0 0 0-.1.06.06 0 0 0-.09-.01l-.47.33A16.94 16.94 0 0 1 37.18 39c-.94.4-2.29.82-4.06 1.25l.76-.59a.13.13 0 0 0 .04-.06.14.14 0 0 0-.04-.15 25.12 25.12 0 0 0-5.59-.38h-.43c-.64.01-1.44-.07-2.42-.25a9.48 9.48 0 0 1-2.13-.69 12.58 12.58 0 0 0-2.58-.82.11.11 0 0 0-.05.05.12.12 0 0 0 .02.14c.92.83 1.91 1.47 2.99 1.93l.64.28c.92.42 1.62.68 2.09.77.27.06.52.13.75.22.07.02.15.04.22.04l3.1.03c-2.94.32-5.28-.02-7-1.03-.74-.43-1.46-.86-2.17-1.3a5.2 5.2 0 0 1-1.7-1.64.16.16 0 0 1 0-.17.15.15 0 0 1 .06-.06.15.15 0 0 1 .1-.01c.4.09.9.25 1.5.48 1.39.54 3.03 1.05 4.93 1.53.67.17 1.37.25 2.1.25 1.7 0 3.17.08 4.4.24a5.38 5.38 0 0 0 1.68-.02v-.07l-.03-.01a10.4 10.4 0 0 1-2.96-.77c.14-.08.2-.2.2-.33a9.94 9.94 0 0 0 6.28.22c.72-.21 1.7-.77 2.94-1.68l.65-.47Z" fill="#D2D7D8"/><path d="M33.12 40.24c-.87.3-1.74.48-2.62.52l-3.11-.03a.62.62 0 0 1-.22-.04 5.4 5.4 0 0 0-.75-.22c-.47-.1-1.17-.35-2.1-.77l-.63-.28a10.6 10.6 0 0 1-3.02-2v-.07a.11.11 0 0 1 .06-.05 12.58 12.58 0 0 1 2.59.83c.76.33 1.47.56 2.12.68.98.18 1.78.26 2.42.25h.43c1.48-.02 2.61.02 3.4.12a49.04 49.04 0 0 0 2.2.26.14.14 0 0 1 .03.15c0 .02-.02.04-.04.06l-.76.6Z" fill="#fff"/><path d="M27.33 42c1.1.06 2.18.03 3.24-.1l-3.3.14c-.93.02-1.63 0-2.11-.08-.37-.06-.98-.22-1.84-.48-.6-.17-1.18-.41-1.78-.7-1.94-.98-3.28-1.9-4.04-2.78l1.03.8.01.01 1.67 1.02.09.05 1.15.45c1.14.45 2.02.76 2.66.94l1.84.53c.45.14.92.2 1.38.2Z" fill="#5B5D5F"/><path d="M37.65 39.85a16.26 16.26 0 0 1-18.4.58c.23-.12.4-.09.53.09.03.05.07.08.12.1.98.53 2.32 1.05 4.01 1.57 1.51.46 2.98.62 4.4.48.23-.02.46-.08.68-.2.02 0 .03-.02.04-.03a.08.08 0 0 0-.03-.1.07.07 0 0 0-.05-.01.28.28 0 0 1-.24-.1.2.2 0 0 0-.14-.07l-1.3-.12 3.3-.13.88-.24a9.34 9.34 0 0 0 4.28-1.17c.76-.42 1.4-.64 1.92-.65Z" fill="#7A7B7C"/><path d="m31.45 41.67-.88.24c-1.06.12-2.14.15-3.24.09a24.72 24.72 0 0 1-4.55-1.52 5 5 0 0 1-.85-.55v-.04l.03-.03H22c.23.04.75.19 1.55.45 1.53.48 3.45.78 5.78.89.83.04 2.08-.13 3.76-.5a41.57 41.57 0 0 1 .94-.2l.03.04v.05c0 .02-.01.03-.03.04a2.6 2.6 0 0 1-.43.2 38 38 0 0 0-2.15.84Z" fill="#E0E0E2"/></svg>