<!-- by TradingView --><svg width="56" height="56" viewBox="0 0 56 56" xmlns="http://www.w3.org/2000/svg"><path fill="#F0F3FA" d="M0 0h56v56H0z"/><circle cx="28" cy="28" r="17" fill="#007EC6"/><path d="M30.34 16.71a386.94 386.94 0 0 1-.02 2.33 449.43 449.43 0 0 1-2.36 2.26c-.01.01-.03.02-.07.02l-.03-.01a492.93 492.93 0 0 1-2.37-2.26 292.84 292.84 0 0 1 0-4.67 412.18 412.18 0 0 1 2.4-2.27l.05.01a444.02 444.02 0 0 1 2.37 2.26l.02.1v2.23Zm-2.44 4.37h.06a345.93 345.93 0 0 0 2.24-2.16 305.44 305.44 0 0 0 0-4.43 413.81 413.81 0 0 0-2.25-2.14l-.07-.01h-.03a418.64 418.64 0 0 0-2.24 2.16 308.7 308.7 0 0 0 0 4.43l.06.08a404.89 404.89 0 0 0 2.23 2.07ZM34.14 27.68c0 1.55-.66 3.03-1.82 4.12a6.38 6.38 0 0 1-4.38 1.7 6.38 6.38 0 0 1-4.37-1.72 5.66 5.66 0 0 1-1.8-4.12c0-1.55.66-3.03 1.82-4.12a6.38 6.38 0 0 1 4.37-1.7c1.64 0 3.21.62 4.37 1.72a5.66 5.66 0 0 1 1.8 4.12Zm-3.35-.88c-.03.07-.04.13-.02.17.03.07.07.08.13.02l.03-.03c.05-.05.08-.04.07.03 0 .04 0 .06-.02.07-.1.15-.16.3-.16.45 0 .04-.02.09-.05.13-.4.52-.62.8-.7.87-.26.2-.4.32-.45.38-.04.05-.08.08-.12.09l-.37.07c-.05.01-.07 0-.06-.06.02-.05 0-.09-.04-.13a.1.1 0 0 1-.04-.12c.03-.1.05-.16.04-.17-.02-.06-.06-.06-.1 0-.05.1-.15.13-.3.1a.14.14 0 0 0-.13.03l-.32.33a.13.13 0 0 1-.15.03 1.54 1.54 0 0 0-.08-.02c-.03-.02-.08 0-.13.05a.26.26 0 0 0-.09.14c-.01.05.01.09.06.1.21.08.36.12.51.3.16.17.34.34.56.51.31.25.63.3.94.14.16-.08.3-.2.41-.36l.35-.44c.02-.04.01-.05-.03-.06h-.04c-.07.03-.1 0-.11-.05 0-.02.01-.05.05-.1a5.1 5.1 0 0 0 1.27-2.03c.01-.04 0-.07-.04-.09a.12.12 0 0 0-.06 0c-.14 0-.17-.05-.09-.16.2-.26 0-.52-.14-.8-.19-.37-1.02-.48-1.38-.48-.12 0-.14-.04-.03-.11.54-.39.96-.89 1.25-1.5a.72.72 0 0 0 .07-.25c.02-.27.07-.45-.06-.68-.27-.5-.72-.71-1.35-.63-.08.02-.34.11-.8.3-.23.1-.43.26-.6.48l-.52.6c-.03.02-.03.05 0 .07l.03.04h.05c.28-.34.63-.55 1.05-.63a.2.2 0 0 1 .24.16.2.2 0 0 1 0 .1c-.03.08-.03.14 0 .17.03.07.07.07.1 0l.06-.12c.03-.06.07-.07.11-.01.08.1.17.16.25.15.03 0 .05 0 .08.02l.05.07.02.08c0 .04-.02.07-.03.1-.1.15-.18.3-.2.45a.89.89 0 0 1-.15.34l-.23.29a.25.25 0 0 0-.07.13c-.03.18-.14.25-.33.22-.05 0-.08.02-.08.07v.06c0 .05-.02.1-.06.13-.1.08-.13.18-.1.31.02.07.05.07.09.01a.42.42 0 0 0 .06-.26.05.05 0 0 1 .05-.05h.05c.01 0 .02.01.02.03-.01.3-.16.5-.42.62a.1.1 0 0 0-.07.11v.34c0 .1.03.11.1.04.12-.13.3-.22.51-.28a.2.2 0 0 0 .12-.08 2 2 0 0 0 .29-.69c.03-.1.08-.17.17-.17.05 0 .08.01.1.05 0 .02.03.03.07.03.25.01.43.1.54.27a.21.21 0 0 1 0 .2c-.35.76-.77 1.44-1.25 2.06v.05c.02.02.04.02.06 0 .41-.4.8-.92 1.15-1.53.08-.13.2-.19.36-.16.06.01.07.04.05.1Z" fill="#fff"/><path d="M30.74 26.71c-.16-.03-.28.03-.36.16a7.24 7.24 0 0 1-1.15 1.53c-.02.02-.04.02-.05 0-.02-.01-.02-.03 0-.05.47-.62.89-1.3 1.25-2.06a.21.21 0 0 0-.01-.2c-.11-.17-.29-.26-.54-.27-.04 0-.07 0-.08-.03-.01-.04-.04-.06-.09-.05-.09 0-.14.06-.17.17a2 2 0 0 1-.3.7.2.2 0 0 1-.1.07c-.23.06-.4.15-.52.28-.07.07-.1.06-.1-.04v-.34a.1.1 0 0 1 .07-.1.68.68 0 0 0 .42-.63c0-.02 0-.03-.02-.03h-.05a.05.05 0 0 0-.05.05c0 .1-.01.2-.06.26-.04.06-.07.06-.09-.01-.03-.13 0-.23.1-.3a.16.16 0 0 0 .06-.14v-.06c0-.05.03-.08.08-.07.19.03.3-.04.33-.22.01-.05.03-.1.07-.13l.23-.29a.9.9 0 0 0 .14-.34c.03-.15.1-.3.2-.46a.19.19 0 0 0 .04-.09c0-.03 0-.06-.02-.08a.15.15 0 0 0-.05-.07.14.14 0 0 0-.08-.02c-.08 0-.17-.05-.25-.15-.04-.06-.08-.05-.11 0l-.06.13c-.03.07-.07.07-.1 0-.03-.03-.03-.1 0-.17a.2.2 0 0 0-.14-.25.2.2 0 0 0-.1 0c-.42.07-.77.28-1.05.62h-.05l-.03-.04c-.03-.02-.03-.05 0-.08.24-.27.41-.46.51-.6.18-.21.38-.37.6-.47.47-.19.73-.28.81-.3.63-.08 1.08.13 1.35.63.13.23.08.4.06.68 0 .09-.03.18-.07.26-.29.6-.7 1.1-1.25 1.49-.1.07-.1.1.03.11.36 0 1.2.11 1.38.48.13.28.34.54.14.8-.08.1-.05.16.1.15l.05.01c.04.02.05.05.04.09a5.1 5.1 0 0 1-1.27 2.04c-.04.04-.05.07-.05.1 0 .05.04.07.1.05h.05c.04 0 .05.01.03.05l-.35.44c-.12.16-.25.28-.4.36-.32.16-.64.11-.95-.14-.22-.17-.4-.34-.56-.51-.15-.18-.3-.22-.5-.3-.06-.01-.08-.05-.07-.1.01-.06.04-.1.09-.14.05-.05.1-.07.13-.05l.08.02c.05.02.1.01.15-.03l.32-.33a.14.14 0 0 1 .14-.04c.14.04.24 0 .3-.1.03-.05.07-.05.1.01l-.05.17a.1.1 0 0 0 .04.12c.04.04.06.08.04.13-.01.05 0 .07.06.06l.37-.07a3.85 3.85 0 0 1 .57-.47c.08-.06.3-.35.7-.87a.23.23 0 0 0 .05-.13c0-.15.06-.3.16-.45.01 0 .02-.03.02-.07 0-.07-.02-.08-.07-.03l-.03.03c-.06.06-.1.05-.13-.02-.02-.04 0-.1.02-.17.02-.05 0-.08-.05-.09ZM26.54 31.02l.08.25c.01.04.04.07.08.09.46.16.18.87-.33.57a.12.12 0 0 1-.05-.05.14.14 0 0 1-.01-.06v-.18c0-.05-.03-.08-.07-.09-.13-.01-.24-.09-.32-.23-.02-.04-.05-.04-.08 0a.1.1 0 0 0 0 .06c.03.2.06.31-.08.44-.15.14-.3.14-.45 0-.14-.13-.11-.3-.02-.44a.26.26 0 0 0 .04-.14v-.2c0-.05-.02-.08-.06-.08a.31.31 0 0 1-.24-.46.92.92 0 0 1 .13-.2c.04-.04.04-.09 0-.13l-.03-.03c-.04-.04-.13-.1-.13-.15v-6.92c0-.05.1-.07.14-.07h1.77c.05 0 .09.03.09.08v6.2c0 .04-.03.1-.05.17l-.03.1a.13.13 0 0 0 .02.12c.06.08.08.15.04.23-.07.14-.18.22-.31.23-.03 0-.04.01-.05.03l-.01.05c0 .02.01.03.03.04l.17.04c.24.11.2.46.03.62a.14.14 0 0 1-.1.05h-.17c-.04 0-.05.02-.03.06Zm-.56 0c.13-.11.2-.14.32-.15.05 0 .07-.02.06-.04l-.04-.18c-.01-.07-.03-.07-.06-.02-.08.17-.22.22-.4.16a.14.14 0 0 1-.06-.03.16.16 0 0 1-.04-.05l-.05-.12c-.03-.05-.06-.06-.1-.02a.14.14 0 0 0-.03.05c-.02.06-.01.1.04.11.1.05.2.14.28.27.02.03.05.04.08.01Z" fill="#EE1C23"/><path d="M26.44 31.02c-.14.01-.22.04-.38.15-.03.03-.07.03-.1-.01a.71.71 0 0 0-.33-.28c-.06-.02-.07-.06-.05-.11a.15.15 0 0 1 .04-.06c.05-.04.09-.03.12.03l.07.12a.17.17 0 0 0 .1.08c.23.07.4.01.5-.17.02-.05.04-.05.06.02l.05.2c0 .02-.02.03-.08.04ZM20.64 36.27c-.54.56-1.1 1.12-1.66 1.66a.24.24 0 0 1-.17.07h-3.27a.09.09 0 0 1-.06-.03.1.1 0 0 1-.03-.07v-3.22a.38.38 0 0 1 .11-.26c.59-.57 1.15-1.13 1.68-1.69.54-.56 1.1-1.12 1.66-1.66.05-.05.1-.07.17-.07h3.27c.02 0 .05.01.06.03a.1.1 0 0 1 .03.07v3.22a.38.38 0 0 1-.11.26c-.59.57-1.15 1.13-1.68 1.69Zm-.1-.1c.5-.53 1.04-1.06 1.59-1.6a.36.36 0 0 0 .1-.25V31.3a.1.1 0 0 0-.02-.07.08.08 0 0 0-.06-.02l-3.09-.01a.23.23 0 0 0-.15.06c-.54.52-1.06 1.04-1.57 1.58a54 54 0 0 1-1.59 1.59.34.34 0 0 0-.1.25v3.03a.1.1 0 0 0 .02.07l.03.02h.03l3.09.01c.06 0 .11-.02.15-.06.54-.52 1.06-1.04 1.57-1.58ZM35.3 36.27c-.54-.56-1.1-1.12-1.68-1.68a.36.36 0 0 1-.12-.27v-3.21a.1.1 0 0 1 .03-.07.09.09 0 0 1 .06-.03l3.27-.01c.06 0 .12.02.16.07a64 64 0 0 1 1.66 1.66c.54.56 1.1 1.12 1.68 1.68.04.04.06.08.08.12l.03.15v3.21a.1.1 0 0 1-.02.07.1.1 0 0 1-.07.03l-3.26.01a.24.24 0 0 1-.17-.07c-.56-.54-1.11-1.1-1.65-1.66Zm3.29-3.45a54.23 54.23 0 0 0-1.57-1.57.22.22 0 0 0-.16-.06h-3.12a.1.1 0 0 0-.05.09v3.05a.36.36 0 0 0 .11.25 55.3 55.3 0 0 1 1.59 1.59c.51.53 1.03 1.05 1.57 1.57.04.04.1.06.15.06h3.09l.03-.01.03-.02a.1.1 0 0 0 .02-.07v-3.04a.36.36 0 0 0-.1-.25 59.5 59.5 0 0 1-1.6-1.59Z" fill="#fff"/><path d="M25.92 32.99c.2 0 .38-.14.4-.33 0-.19-.16-.35-.37-.36-.2 0-.38.14-.39.33 0 .19.16.35.36.36Z" fill="#EE1C23"/></svg>