<!-- by TradingView --><svg width="56" height="56" viewBox="0 0 56 56" xmlns="http://www.w3.org/2000/svg"><path fill="#F0F3FA" d="M0 0h56v56H0z"/><path d="M28.43 10h-.9a3.2 3.2 0 0 0-1.36.56 86.39 86.39 0 0 0-14.63 14.37l-.25.31A5.05 5.05 0 0 0 10 27.51v.9c.1.57.3 1.07.65 1.51.6.77 1.2 1.53 1.84 2.28.04.05.06.04.06-.02-.18-4.25 1.95-8.18 5.21-10.77 1.8-1.43 4.21-2.42 6.53-2.16a5.91 5.91 0 0 1 5.04 4.19c.06.15.11.28 0 .46a.18.18 0 0 1-.09.08l-4.1 1.4c-.28.1-.44-.14-.5-.39a3.37 3.37 0 0 0-2.43-2.58c-1.56-.4-3.22.33-4.38 1.36a9.4 9.4 0 0 0-3.15 6c-.23 1.71.2 3.79 1.67 4.85.74.54 1.59.72 2.56.54a6.64 6.64 0 0 0 4.76-4.14h-.02l-5.08 1.14a.2.2 0 0 1-.24-.24l.61-2.66c.08-.34.27-.4.6-.5l.06-.01 22.36-6.66c.05-.02.05-.04.02-.08a84.48 84.48 0 0 0-12.36-11.58 2.97 2.97 0 0 0-1.19-.43Zm-.67 36h.4c.68-.06 1.29-.3 1.83-.73a87.1 87.1 0 0 0 14.87-14.75c.52-.66.85-1.19.98-1.58.3-.92.17-1.83-.4-2.74a.09.09 0 0 0-.1-.04l-4.24.95a.1.1 0 0 0-.09.09l-1.44 6.16c-.11.5-.29.62-.76.68l-5.22.65a.23.23 0 0 1-.25-.29l1.33-5.78c.01-.05 0-.07-.05-.06l-5.35 1.2a.18.18 0 0 0-.14.13c-1.6 4.58-5.6 8.62-10.7 8.7-.06 0-.07.02-.03.06 2 1.96 4.46 4.11 7.36 6.44.66.53 1.32.83 2 .91Z" fill="#0A50B4"/></svg>