<!-- by TradingView --><svg width="56" height="56" viewBox="0 0 56 56" xmlns="http://www.w3.org/2000/svg"><path fill="#F0F3FA" d="M0 0h56v56H0z"/><path d="M13.3 30.44c-.03 0-.03.01 0 .03l.06.04c.03.01.05.02.08 0a53.14 53.14 0 0 1 31.8-.65c1.73.5 3.29 1.07 4.67 1.72.1.04.12.11.06.2l-1.94 3.12c-.03.05-.07.07-.13.04A56.34 56.34 0 0 0 7.99 35a.06.06 0 0 1-.03-.03L6.03 31.7c-.05-.08-.03-.14.05-.2l21.81-13.46a.17.17 0 0 1 .2 0l5.94 3.62c.2.13.18.18-.05.17-1.02-.05-2.1.02-3.22.2-3.77.58-7.4 1.76-10.88 3.54-.04.02-.04.04 0 .05l.06.03h.03a45.17 45.17 0 0 1 15.95-2.7c.1 0 .29.08.54.24a431.6 431.6 0 0 0 8.02 4.91c.38.23.35.3-.1.2-.18-.03-.46-.2-.72-.28a32.23 32.23 0 0 0-8.27-1.65c-7.66-.37-15.02 1-22.1 4.08Z" fill="url(#a)"/><defs><linearGradient id="a" x1="9.64" y1="31.45" x2="44.88" y2="31.27" gradientUnits="userSpaceOnUse"><stop stop-color="#005510"/><stop offset=".54" stop-color="#67B31D"/><stop offset="1" stop-color="#C4DC1D"/></linearGradient></defs></svg>