<!-- by TradingView --><svg width="56" height="56" viewBox="0 0 56 56" xmlns="http://www.w3.org/2000/svg"><path fill="#F0F3FA" d="M0 0h56v56H0z"/><path d="M43 19.5 28 11l-15 8.5v16.38a33.9 33.9 0 0 1 11.54-4.28l-5.83-8.27 8.14 6.9 1.4-7.89 1.4 7.88 8.14-6.9-5.82 8.28c4.53.75 8.5 2.53 11.03 3.98V19.5Z" fill="url(#a)"/><path d="M43 36.12c-12.74-4.8-24.3-2.37-30 .07v.31L28 45l15-8.5v-.38Z" fill="url(#b)"/><defs><linearGradient id="a" x1="28" y1="16.04" x2="28" y2="39.09" gradientUnits="userSpaceOnUse"><stop stop-color="#1C447A"/><stop offset="1" stop-color="#52B1E8"/></linearGradient><linearGradient id="b" x1="28" y1="33.36" x2="28" y2="45" gradientUnits="userSpaceOnUse"><stop stop-color="#ACC43F"/><stop offset="1" stop-color="#3D7738"/></linearGradient></defs></svg>