<!-- by TradingView --><svg width="56" height="56" viewBox="0 0 56 56" xmlns="http://www.w3.org/2000/svg"><path fill="#F0F3FA" d="M0 0h56v56H0z"/><path d="M12 35.49c0-3.63 4.57-7.17 6.68-8.49.1.25.32.55.32.94-4.05 2.51-5 6.07-5 7.36 0 1.92 5 2.6 5 5.75 0 1.4-1.43 2.55-2.15 2.95H12c0-1.65 4-2.68 4-3.48 0-2.35-4-1.92-4-5.03Z"/><path fill-rule="evenodd" d="m30 37.26-2-1.86-2 1.86v3.71l2 1.86 2-1.86v-3.71ZM29 38l-1-1-1 1v2l1 1 1-1v-2ZM33 35.4l2 1.86v3.71l-1.07 1.49-1.81-.44V43H31v-5.75l2-1.85Zm0 1.63.8 1.04v2.09l-.33.75-1.26-.17v-2.67l.79-1.04Z"/><path d="M39.19 41.1V41H38l-1-1v-.5h2v-1h-2V38l1-1h.94l-1.35-1.6L36 37.3V41.1l1.6 1.9 1.59-1.9ZM19 14h1v29h-1zM21 13h1v1l2 19.33V13h1v30h-1l-2-19.33V43h-1V13Z"/><path fill-opacity=".5" d="M26 25h15v4H26z"/><path d="M14.5 34.57A15.74 15.74 0 0 0 18.96 39v-2.2a13.61 13.61 0 0 1-3.69-4.67l-.77 2.44Zm-1.67-3.33a14.75 14.75 0 0 1-.83-4.9C12 17.87 19.16 11 28 11s16 6.87 16 15.34c0 4.28-1.83 8.15-4.77 10.93v-2.7A13.13 13.13 0 0 0 42 26.5C42 19.04 35.73 13 28 13s-14 6.04-14 13.5c0 1.11.14 2.2.4 3.23-.59.57-1.15 1.12-1.57 1.51Z" fill="#F1314A"/><path d="m42 35.4 2 1.9v.7h-1l-1-1-1 1v2l1 1 1-1h1v1.1L42 43l-2-1.9v-3.8l2-1.9Z"/></svg>