<!-- by TradingView --><svg width="56" height="56" viewBox="0 0 56 56" xmlns="http://www.w3.org/2000/svg"><path fill="#F0F3FA" d="M0 0h56v56H0z"/><path fill-rule="evenodd" d="M44 28a16 16 0 1 1-32 0 16 16 0 0 1 32 0Zm-10-3a3 3 0 1 1-6 0 3 3 0 0 1 6 0Zm-9.5 2.96a3 3 0 1 0 0-6 3 3 0 0 0 0 6Zm-3.15-2.99c0 1.66-1.11 3-2.5 3-1.38 0-2.5-1.34-2.5-3s1.12-3 2.5-3c1.39 0 2.5 1.34 2.5 3Zm-.55 8.87c1.18-.5 1.55-1.94.83-3.23-.72-1.29-2.26-1.94-3.43-1.45-1.18.5-1.55 1.94-.83 3.23.72 1.29 2.26 1.94 3.43 1.45Zm2.83-13.45c.72-1.3.35-2.73-.83-3.23-.39-.16-.82-.2-1.25-.12.34-.08.7-.21 1.05-.4 1.21-.67 1.88-1.8 1.48-2.51-.4-.72-1.7-.76-2.91-.1-1.22.67-1.88 1.8-1.49 2.51.27.48.94.66 1.71.53-.8.18-1.57.73-2.02 1.54-.72 1.3-.35 2.73.83 3.23 1.17.49 2.71-.16 3.43-1.45Zm6.26-5.96c.4 1.06-.33 2.17-1.65 2.49-1.31.31-2.72-.29-3.13-1.35-.4-1.06.33-2.17 1.65-2.49 1.31-.31 2.72.29 3.13 1.35Zm-13.9 11.2c-.12 1.37-.87 2.44-1.7 2.37-.81-.07-1.39-1.24-1.28-2.62.12-1.38.87-2.45 1.7-2.38.81.07 1.39 1.24 1.28 2.62Zm-1.2 8.36c.8-.09 1.34-1.28 1.18-2.66-.16-1.38-.94-2.42-1.76-2.32-.8.09-1.34 1.28-1.18 2.66.16 1.38.94 2.42 1.76 2.32Zm20.3-17.45c-.4.72-1.7.76-2.92.1-1.22-.67-1.88-1.8-1.49-2.51.4-.72 1.7-.76 2.92-.1 1.21.67 1.88 1.8 1.48 2.51Zm-17.3 4.68c-.67 1.21-1.8 1.87-2.52 1.47-.71-.4-.74-1.7-.06-2.91.67-1.21 1.8-1.87 2.52-1.47.71.4.74 1.7.06 2.91Zm-.2 16.65c.57-.38.54-1.54-.07-2.57-.6-1.04-1.55-1.56-2.12-1.17-.56.38-.53 1.54.08 2.57.6 1.04 1.55 1.56 2.12 1.17Z" fill="#FCB131"/></svg>