<!-- by TradingView --><svg width="56" height="56" viewBox="0 0 56 56" xmlns="http://www.w3.org/2000/svg"><path fill="#F0F3FA" d="M0 0h56v56H0z"/><path fill-rule="evenodd" d="M28 45a17 17 0 1 0 0-34 17 17 0 0 0 0 34Zm0-2a15 15 0 1 0 0-30 15 15 0 0 0 0 30Z" fill="#475428"/><path fill-rule="evenodd" d="M39 22.42a6.4 6.4 0 0 1-4.54 6.16 6.49 6.49 0 0 1 1.96 7.24 6.28 6.28 0 0 1-8.12 3.77 6.44 6.44 0 0 1-4.03-7.04 6.24 6.24 0 0 1-7.5-1.22 6.5 6.5 0 0 1 .16-9.07 6.24 6.24 0 0 1 9.48.82A6.37 6.37 0 0 1 32.69 16 6.37 6.37 0 0 1 39 22.42Zm-11.45 3.46 2.32-2.02a2.94 2.94 0 0 1-.26-1.22c0-1.6 1.28-2.91 2.86-2.91 1.58 0 2.86 1.3 2.86 2.9 0 1.61-1.28 2.92-2.86 2.92-.43 0-.85-.1-1.21-.28l-2.2 2.4 1.1 2.73s.8.02 1.21.17a2.92 2.92 0 0 1 1.68 3.74 2.85 2.85 0 0 1-3.68 1.71 2.92 2.92 0 0 1-1.68-3.74c.15-.41.68-1.06.68-1.06l-.92-2.81-3.16-.48a2.83 2.83 0 0 1-4.73.97 2.94 2.94 0 0 1 .07-4.11 2.83 2.83 0 0 1 4.7 1.15l3.22-.06Z" fill="#475428"/></svg>