<!-- by TradingView --><svg width="56" height="56" viewBox="0 0 56 56" xmlns="http://www.w3.org/2000/svg"><path fill="#F0F3FA" d="M0 0h56v56H0z"/><path d="M41.4 36.79c-.26.41-.64.58-1.12.51-1.14-.17-1.28-1.15-1.28-2.03 0-7.62-.01-12.34 0-14.15.02-3.1-1.16-4.15-4.09-4.12-1.62.02-6.24 0-13.85 0-.83 0-1.73-.13-2.03-1.1a1.3 1.3 0 0 1 .18-1.18c.14-.2.46-.44.96-.7 3.18-1.7 6.5-2.33 9.94-1.87a15.76 15.76 0 0 1 12.41 9.17 15.96 15.96 0 0 1-1.12 15.46ZM17 20.72c0 7.62.01 12.34 0 14.15-.02 2.91 1.16 4.15 4.08 4.13 1.63-.02 6.25-.01 13.86 0 .83 0 1.73.13 2.03 1.1.13.43.07.82-.18 1.18-.14.2-.46.44-.96.7a16.08 16.08 0 0 1-9.95 1.87 15.76 15.76 0 0 1-12.41-9.18A15.95 15.95 0 0 1 14.6 19.2c.27-.42.64-.6 1.12-.52 1.14.17 1.28 1.15 1.28 2.03Z" fill="#B61C22"/><path d="M35.99 35.97h-.02L24.7 36a.48.48 0 0 1-.35-.14l-5.23-5.23a.6.6 0 0 1-.12-.22.18.18 0 0 1 .03-.17c.03-.06.08-.24.15-.24H29.96l.04-.06V19.19c0-.07.04-.12.09-.15a.18.18 0 0 1 .17-.03.6.6 0 0 1 .22.12c1.6 1.59 3.47 3.33 5.37 5.22.1.1.14.21.14.35L36 35.95v.01h-.01Z" fill="#B61C22"/><path d="m25.96 25.97-.04.03h-4.71a.4.4 0 0 1-.3-.13l-1.85-1.85a.18.18 0 0 1-.04-.21c.03-.09.1-.13.18-.13h4.4c.02 0 .04 0 .06-.02l.03-.06v-4.4c0-.09.04-.15.13-.18a.18.18 0 0 1 .21.04l1.85 1.86a.4.4 0 0 1 .12.3 1162.64 1162.64 0 0 1-.04 4.75Z" fill="#B61C22"/></svg>