<!-- by TradingView --><svg width="56" height="56" viewBox="0 0 56 56" xmlns="http://www.w3.org/2000/svg"><path fill="#F0F3FA" d="M0 0h56v56H0z"/><path d="M35.18 32H33.5l4.19-10h.67l4.14 10h-1.7l-2.85-7.14L35.18 32ZM35 35.98v-.4c3.55 0 5.29-1.72 5.71-2.58h1.79c-1.53 2.7-5.64 3.11-7.5 2.98Z" fill="#9F6B51"/><path fill-rule="evenodd" d="M5 32v-1.5h.91c.31 0 .56-.25.56-.55V24H8v5.97C8 31.09 7.09 32 5.97 32H5Zm5.5-8H12v8h-1.5v-8Zm3.5 8v-8h.86l4.64 5.13V24H21v8h-.95l-4.55-5.1V32H14Zm11.07 0H23.5l1.01-8h.86L28 28.7l2.7-4.7h.8l.99 8h-1.56l-.62-4.44-2.27 4.07-2.33-4.07-.65 4.44ZM51 28a4 4 0 1 1-8 0 4 4 0 0 1 8 0Zm-1.5 0a2.5 2.5 0 1 1-5 0 2.5 2.5 0 0 1 5 0Z" fill="#2B4093"/></svg>