<!-- by TradingView --><svg width="56" height="56" viewBox="0 0 56 56" xmlns="http://www.w3.org/2000/svg"><path fill="#F0F3FA" d="M0 0h56v56H0z"/><path d="M19.89 12.26c1.58 2 3.21 3.9 4.88 5.66.36.38.48.8.39 1.29-.08.39-.14.73-.18 1.01a2.4 2.4 0 0 0 .2 1.4.03.03 0 0 1-.03.02h-.01c-.52-.19-.6-.61-.55-1.14.06-.49.08-.88.08-1.17 0-.47-.16-.9-.49-1.28a98.55 98.55 0 0 1-4.32-5.43 22.03 22.03 0 0 1-1-1.56l.02-.04.02-.01a.02.02 0 0 1 .03 0l.96 1.25ZM32.57 13.88c.4.39.69.67 1.25.67.82-.01 1.63.1 2.4.34.1.03.1.07.02.12l-1.18.61a.23.23 0 0 1-.11.03l-1.09-.05a2.78 2.78 0 0 1-1.34-.4 8.5 8.5 0 0 1-.78-.68 6.02 6.02 0 0 0-7.64-.62 7.19 7.19 0 0 0-1.24 1.08.08.08 0 0 1-.06-.02l-.64-.65a.06.06 0 0 1 0-.08 7.32 7.32 0 0 1 6.65-2.27c1.42.25 2.71.9 3.76 1.92ZM28.76 22.44c.43-.3.73-.87.85-1.4.12-.53.2-.95.22-1.27.04-.3.09-.53.16-.65.14-.21.3-.38.5-.5l2.8-1.52c1.32-.72 2.7-1.5 4.15-2.37a39.93 39.93 0 0 0 3.13-2.05l.06.01a.02.02 0 0 1 0 .03c-.91.77-1.76 1.4-2.52 1.92a91.1 91.1 0 0 1-6.57 3.95c-.2.1-.39.24-.57.38-.38.27-.63.68-.75 1.13-.09.3-.21.8-.38 1.5-.16.65-.4 1.2-1.2 1.02a.04.04 0 0 1-.02-.08l.14-.1Z" fill="#C6020B"/><path d="M32.99 16.4c.05 0 .06.03.01.07l-.04.03a.17.17 0 0 1-.16.03c-.5-.16-.91-.4-1.26-.71-.5-.46-.85-.85-1.38-1.14a5.13 5.13 0 0 0-6.5 1.05.13.13 0 0 1-.05.04.1.1 0 0 1-.07 0c-.05-.04-.07-.08-.04-.13a5.21 5.21 0 0 1 3.73-1.84c1.62-.08 3 .49 4.15 1.6.3.29.5.47.61.55.3.2.64.35 1 .44ZM20.8 14.64l1.55 2.09c.1.12.13.26.12.4l-.02.14c-.02.16-.08.18-.18.06a10.37 10.37 0 0 1-1.43-2 1.6 1.6 0 0 1-.21-.63c-.02-.2.04-.23.16-.06Z" fill="#C6020B"/><path d="M20.23 14.65a1.88 1.88 0 0 0 .2.93.05.05 0 0 1-.02.04l-.02.01-.64.1a6.05 6.05 0 0 0-4.97 5.94 2.89 2.89 0 0 1-.66 2.1c-.18.23-.49.5-.7.76a6.11 6.11 0 0 0-.2 7.56c.27.37.73.79.98 1.12.33.45.52.95.57 1.5.03.34 0 .74.04 1.09a6.04 6.04 0 0 0 5.85 5.44c.43.01.71.03.85.06.64.12 1.15.37 1.53.77a6.1 6.1 0 0 0 8.16.73c.34-.25.72-.69 1.03-.93.39-.3.83-.5 1.32-.58.46-.07 1.14-.02 1.62-.11a6 6 0 0 0 5.07-5.63l.03-.64a2.76 2.76 0 0 1 .66-1.82c.4-.41.62-.65.68-.73a6.1 6.1 0 0 0 .01-7.83c-.23-.29-.62-.64-.84-.96a2.57 2.57 0 0 1-.5-1.4 11.6 11.6 0 0 0-.12-1.58 5.97 5.97 0 0 0-2.49-3.88c-.03-.02-.03-.05 0-.08a1.68 1.68 0 0 0 .42-.76.05.05 0 0 1 .07 0 7.36 7.36 0 0 1 3.08 5c.07.44.04 1 .09 1.45.04.36.21.6.5.88a7.29 7.29 0 0 1 2.16 5 7.34 7.34 0 0 1-2 5.3c-.38.4-.68.68-.67 1.24a7.33 7.33 0 0 1-7.45 7.58c-.22 0-.38.02-.48.05-.37.13-.6.4-.94.7a7.27 7.27 0 0 1-10.36-.46c-.13-.12-.29-.2-.48-.25a2.6 2.6 0 0 0-.54-.05 7.34 7.34 0 0 1-7.32-6.76l-.04-1c0-.1-.05-.25-.13-.43-.05-.1-.14-.21-.27-.35a7.3 7.3 0 0 1-1.69-2.48 6.73 6.73 0 0 1-.28-4.91 7.29 7.29 0 0 1 2.09-3.4c.12-.13.21-.3.26-.51.02-.1.03-.28.04-.56a7.34 7.34 0 0 1 6.5-7.27v.01Z" fill="#C6020B"/><path d="M37.67 15.66a2.97 2.97 0 0 1 .23-.13l.03.01a.05.05 0 0 1 .02.05c-.07.3-.37.59-.6.78-.18.15-.55.4-1.1.75a55.56 55.56 0 0 1-2.75 1.6.07.07 0 0 1-.06-.02.07.07 0 0 1-.01-.03c-.02-.27.2-.47.45-.62 1.68-1.04 2.95-1.84 3.79-2.39ZM22.67 17.05c.25.35.57.76.97 1.21.14.16.2.33.2.52a.06.06 0 0 1-.03.05h-.07c-.43-.4-.76-.72-.98-.95-.24-.25-.29-.52-.16-.82a.04.04 0 0 1 .03-.02h.02l.02.01ZM33.79 19.39a3.38 3.38 0 0 1-.4.18.06.06 0 0 1-.05-.04v-.03c.04-.34.31-.54.63-.71a75.21 75.21 0 0 0 2.83-1.63.05.05 0 0 1 .06.07c-.06.21-.18.4-.35.55-.2.2-.53.4-.96.65l-1.76.96ZM22.64 17.9c.26.3.6.63 1 1.01.15.13.23.28.24.45a.06.06 0 0 1-.03.06.06.06 0 0 1-.06 0 15.5 15.5 0 0 1-.99-.77c-.24-.21-.31-.45-.22-.74a.03.03 0 0 1 .03-.02h.01l.02.01ZM33.03 19l-1.19.7a.06.06 0 0 1-.07-.02l-.01-.02v-.1c.11-.25.3-.45.55-.6l.85-.47c.1-.05.14-.02.13.1a.82.82 0 0 1-.07.2.47.47 0 0 1-.19.21ZM36.1 18.6c-.04.39-.67.81-.96.97a20.53 20.53 0 0 1-1.96.94.08.08 0 0 1-.06-.04v-.04c.03-.38.26-.54.6-.71a108.73 108.73 0 0 0 2.31-1.2.07.07 0 0 1 .07.04v.04ZM23.7 19.87l-.58-.38a.61.61 0 0 1-.29-.6.04.04 0 0 1 .05-.03h.02c.2.18.43.36.71.57.18.13.28.26.3.48a.04.04 0 0 1-.05.04l-.15-.08ZM31.73 20.47a.06.06 0 0 1-.08-.04v-.08c.11-.25.29-.45.54-.6.38-.22.66-.37.84-.46.1-.05.14-.02.12.08a.82.82 0 0 1-.06.2.47.47 0 0 1-.19.22l-1.17.68ZM31.16 19.87c-.19.22-.27.44-.2.5.08.07.29-.05.47-.27.18-.21.27-.44.2-.5-.08-.07-.29.05-.47.27ZM23.1 19.64l.6.37c.14.1.22.2.23.36a.05.05 0 0 1-.04.05h-.03l-.64-.32a.34.34 0 0 1-.18-.22l-.05-.17v-.04c0-.02.01-.03.03-.04h.08Z" fill="#C6020B"/><path fill-rule="evenodd" d="M24.1 22.5a53 53 0 0 1-.8-.31 1.38 1.38 0 0 1-.48-.33c-.4-.41-.75-.9-1.08-1.36l-.44-.6a.23.23 0 0 0-.16-.1l-.71-.04c-.3-.03-.51-.18-.79-.4l-.12-.1a.1.1 0 0 1-.04-.06l-.01-.08c0-.03-.02-.05-.05-.05-.06 0-.2 0-.43.03-.22.03-.41.26-.52.39a.14.14 0 0 1-.08.05l-.08-.01-.16-.07c-.04-.02-.05-.05-.02-.08l.88-.88a.06.06 0 0 0 .01-.05 2.27 2.27 0 0 0-.3-.81c-.27-.44-.48-.76-.64-.97-.03-.05-.02-.06.03-.05.35.1 1.19.47 1.25.89l-.03.17-.02.08c-.01.07 0 .08.03.01a.7.7 0 0 0 .08-.18l.01-1.07c0-.1-.02-.18-.04-.26a1.5 1.5 0 0 1-.03-.1c-.02-.11 0-.13.09-.06.51.44.7 1.18.66 1.83v.03l.02.03a.06.06 0 0 0 .05.01c.29-.04.48.07.6.34a.04.04 0 0 1-.02.05l-.7.47c-.08.06-.18.1-.29.14l-.04.02a.11.11 0 0 0-.06.05c-.05.09-.02.16.07.21.02.02.03.01.03-.02a.08.08 0 0 0-.03-.04c-.03-.04-.03-.05.02-.05s.1 0 .13.03c.19.1.37.17.54.2.03 0 .03 0 .03-.03l-.02-.02v-.01l.25-.06c.06-.01.1-.04.1-.09 0-.04-.02-.06-.06-.08l-.13-.04a.16.16 0 0 1-.1-.13l.01-.17c.03-.06.07-.07.12-.03.17.13.4.22.72.29.17.03.26.16.36.34.14.25.32.48.57.7.45.39.83.77 1.16 1.14.05.06.14.11.26.15.54.19 1.15.35 1.84.5.23.04.46.16.7.35.03.01.05.01.07 0a.5.5 0 0 0 .17-.31c0-.02 0-.03.02-.03h.03c.01.25-.07.45-.23.6a.1.1 0 0 1-.14-.02.84.84 0 0 0-.56-.42c-.7-.16-1.37-.35-2.01-.58a.62.62 0 0 1-.28-.17c-.3-.35-.68-.73-1-1.05-.19-.18-.35-.33-.47-.47-.09-.08-.14-.18-.19-.27-.09-.17-.17-.32-.4-.38a2.08 2.08 0 0 1-.58-.23c-.03-.02-.05-.01-.07.01 0 .03 0 .05.02.07.08.09.17.14.29.17.04 0 .07.02.08.03v.06c0 .03-.01.05-.04.06-.08.01-.15.04-.22.06-.06.02-.11.05-.18.06a.16.16 0 0 0-.08.07.08.08 0 0 1-.07.03.54.54 0 0 1-.38-.17.14.14 0 0 0-.06-.04l-.07-.02h-.02a.03.03 0 0 0-.02.03v.02c.32.4.88.4 1.35.31.04 0 .07.01.1.04l1.14 1.49.06.07c.24.3.47.57.8.74.38.19.87.34 1.3.48.2.06.4.12.55.18.06.02.1 0 .16-.02h.01a.04.04 0 0 1 .05 0v.05a.85.85 0 0 1-.2.42 5.58 5.58 0 0 0-.49.55.1.1 0 0 0 .02.09l.03.03c.18.1.38.11.6.04.26-.08.5-.2.73-.33a8.23 8.23 0 0 0 1.1-.78.06.06 0 0 0-.02-.06l-.03-.02h-.13c-.04.01-.05 0-.04-.04.05-.27.07-.45.06-.53-.04-.24-.21-.27-.39-.3-.07 0-.14-.01-.2-.03-.08-.03-.14-.1-.18-.21-.17-.44-.28-.77-.15-1.2v-.09c-.06-.33.14-.68.32-.95.12-.18.27-.3.46-.34.26-.06.51-.06.76.01.06.02.17 0 .32-.04.05-.02.1-.05.14-.1.06-.05.11-.07.17-.06.37.1.57.33.6.71a.13.13 0 0 1-.04.1l-.3.3a.08.08 0 0 0-.03.08c.06.37-.03.72-.28 1.04-.18.22-.25.4-.29.66a.05.05 0 0 1-.03.04h-.04l-.14-.1a.03.03 0 0 0-.04 0 .03.03 0 0 0-.01.03c-.02.22 0 .43.04.62.02.07.1.15.22.23.13.1.3.15.47.2a1.4 1.4 0 0 1 .94.78c.3.62.6 1.19.92 1.7.18.3.33.5.64.66.9.52 1.5.85 1.79 1 .48.27.9.62 1.27 1.06.16.2.21.41.16.67a.06.06 0 0 1-.1.04c-.02-.02-.04-.05-.04-.08s0-.05.03-.08c.07-.12.05-.21-.06-.3a.13.13 0 0 1-.05-.06c-.1-.28-.37-.5-.63-.7l-.09-.07c-.12-.1-.3-.21-.53-.35l-2.1-1.16a.98.98 0 0 1-.3-.36c-.38-.6-.73-1.22-1.06-1.83a1.6 1.6 0 0 0-.5-.57c-.3-.2-.58-.18-.85.06-.39.36-.69 1.04-.47 1.57a.12.12 0 0 0 .08.07c.18.06.25-.13.32-.31l.05-.12a1.06 1.06 0 0 1 .56-.59.04.04 0 0 1 .04.04c.03.24.13.48.3.71a34.4 34.4 0 0 0 1.3 1.71c.11.12.31.24.6.36a236 236 0 0 0 1.93.75c.08.03.17.1.26.2.05.05.08.15.1.29.03.2.13.4.29.63.05.07.08.06.08-.03 0-.1-.05-.22-.15-.35a.08.08 0 0 1 0-.1.08.08 0 0 1 .09-.03c.1.04.17.1.19.19.03.15 0 .32-.08.49-.02.05-.02.09.01.12.02.02.05.02.07 0 .16-.15.27-.24.33-.28.08-.06.11-.12.1-.19 0-.1.02-.12.1-.04.02.02.03.06.04.12 0 .04 0 .06-.03.08l-.6.45a.07.07 0 0 1-.11-.05.4.4 0 0 0-.08-.25c-.2-.26-.32-.5-.38-.76-.04-.22-.15-.32-.34-.4-.45-.15-1.1-.38-1.92-.7-.33-.11-.56-.29-.8-.59l-.9-1.12c-.1-.1-.18-.18-.26-.23a.07.07 0 0 0-.08 0c-.16.09-.32.28-.47.57-.15.29-.28.61-.4.99-.08.21-.1.4-.08.57.04.28.49.5.74.59l.47.18c.76.29 1.28.48 1.91.9.35.22.68.6.73 1.03l.04.38a.3.3 0 0 0 .3.27l.78.03c.2.02.46.1.78.24.14.06.37.09.68.07l.4-.11c.21-.06.41-.09.6-.08.07 0 .25.03.55.1.27.05.53.04.76-.03.2-.07.26 0 .2.2l-.02.06a.58.58 0 0 1-.37.39l-.55.18c-.09.03-.17.1-.24.23l-.3.52c-.06.09-.24.23-.54.42a.68.68 0 0 0-.16.17c-.1.12-.17.31-.23.46l-.06.13c-.1.22-.24.4-.4.57-.05.05-.05.09.03.11.25.1.52.12.79.1.27-.03.44.06.49.27.02.06 0 .21-.03.47-.05.43-.03.84.09 1.23.05.17.02.35-.07.55-.14.28-.39.4-.74.35a.17.17 0 0 1-.15-.17l.02-.08.08-.12c.08-.13.15-.23.06-.47-.1-.28-.21-.53-.32-.77a.77.77 0 0 0-.52-.45 14.95 14.95 0 0 0-1.23-.24c-.19.08-.35.2-.49.32-.35.33-.63.74-.84 1.24l-.64 1.66a2.5 2.5 0 0 1-.81 1.13.12.12 0 0 0 .01.14c.13.14.28.27.46.37.23.14.4.25.34.53-.05.2-.22.34-.4.47-.1.08-.2.16-.28.26-.16.21-.27.48-.33.8 0 .04 0 .05.04.05.29-.02.5.01.65.08a6.12 6.12 0 0 1 .72.38c.03 0 .06 0 .08-.02.2-.15.41-.35.65-.6a3.62 3.62 0 0 1 1.8-1.03c.17-.03.46-.05.9-.06a5.28 5.28 0 0 0 3.61-1.42 5.1 5.1 0 0 0 1.64-4.17c0-.3.07-.63.15-.91.01-.03 0-.05-.03-.05l-1.98-.1a25.08 25.08 0 0 0-2.48-.01l-.3-.03c-.09-.01-.1-.04-.02-.1.17-.14.3-.32.4-.54.02-.06.08-.1.17-.11l.37-.07a.88.88 0 0 0 .35-.1c.29-.16.47-.3.54-.43.2-.32.43-.58.68-.79.2-.16.43-.17.73-.18.08 0 .16 0 .25-.02a1 1 0 0 0 .4-.18l.85-.64c.15-.11.4-.1.62-.02l.44.15h.36c.08 0 .2-.03.35-.1.16-.06.32-.1.46-.12a.11.11 0 0 0 .1-.08c.55-1.71.3-3.44-.76-4.88-.14-.2-.32-.37-.49-.55a3.47 3.47 0 0 1-1.1-2.01c-.02-.06-.03-.4-.06-1-.07-1.66-.78-3-2.13-4.06-.06-.05-.06-.09-.01-.12.03-.06.07-.06.12-.02a5.35 5.35 0 0 1 2.2 4.4l.01.42c.06.9.45 1.59 1.06 2.23l.47.52a5.44 5.44 0 0 1-.66 7.4c-.42.45-.7.99-.82 1.6-.05.26-.05.56-.06.84 0 .17 0 .34-.02.48a5.27 5.27 0 0 1-1.48 3.28 5.24 5.24 0 0 1-3.7 1.65c-.55.03-.91.06-1.1.1a3.04 3.04 0 0 0-1.74 1.02l-.37.34a5.22 5.22 0 0 1-3.59 1.25 5.3 5.3 0 0 1-3.57-1.5l-.08-.07a3.25 3.25 0 0 0-1.87-1.08 8.92 8.92 0 0 0-.95-.05 5.38 5.38 0 0 1-5.27-5.45 5.47 5.47 0 0 0-.07-.91c-.09-.42-.25-.8-.49-1.13-.03-.05-.25-.29-.65-.73a5.45 5.45 0 0 1 .1-7.52 3.41 3.41 0 0 0 1.04-1.71c.08-.31.08-.63.09-.96 0-.25 0-.5.04-.76a5.4 5.4 0 0 1 2.24-3.7.07.07 0 0 1 .08.03v.03c.01.05 0 .09-.04.12a5.2 5.2 0 0 0-2.13 4.1 3.54 3.54 0 0 1-.79 2.56c-.1.13-.24.27-.37.4-.15.16-.3.31-.42.46a5.22 5.22 0 0 0 .45 6.97.1.1 0 0 0 .13 0c.32-.3.58-.55.77-.7.36-.3.71-.13 1.03.03l.29.13c.3.1.51.13.64.11l.53-.1c.2-.05.42.06.62.15.1.05.19.1.26.11a1 1 0 0 0 .67-.1l.33-.17c.38-.2.73-.37 1.14-.41.33-.03.58.06.75.26l.09.1c.38.43.71.82 1.22 1.08.12.06.25.09.38.12.2.05.4.1.58.26.16.15.36.26.58.32a.3.3 0 0 1 .12.07l.08.1a10.62 10.62 0 0 0 1.4 2.51.06.06 0 0 1-.02.06H15.99c-.03 0-.04.02-.03.05a5.2 5.2 0 0 0 5.08 4.04 3.46 3.46 0 0 1 2.8 1.18l.39.35c.36.3.77.56 1.22.75.13.05.21 0 .3-.05l.1-.04a2.6 2.6 0 0 0 1.03-.85c.13-.17.38-.14.62-.11.22.02.44.05.6-.05.14-.1.24-.24.28-.4.1-.4.1-.85.01-1.37-.04-.22-.11-.37-.23-.46a.13.13 0 0 1-.05-.07 7.12 7.12 0 0 0-.68-1.68 63.9 63.9 0 0 0-1.25-2.13 9.31 9.31 0 0 1-.7-1.5c-.25-.65-.46-1.32-.65-2.03a7.26 7.26 0 0 1-.18-2.78l.14-1.22c.03-.78 0-1.55-.13-2.32a2.68 2.68 0 0 0-.16-.57l-.02-.06c-.19-.47-.37-.92.06-1.32a12.22 12.22 0 0 1 .55-.5.08.08 0 0 0-.02-.1.69.69 0 0 0-.67-.1c-.19.06-.36.07-.41-.15-.01-.02 0-.05.02-.07.02-.02.05-.02.1-.02.03 0 .03 0 0-.02Zm-7.34 10.6a.35.35 0 0 0-.39-.12.1.1 0 0 1-.1-.04.1.1 0 0 1-.02-.12l.39-.66a.07.07 0 0 1 .05-.04.07.07 0 0 1 .06.02l.16.24 1.2 2.13c.16.28.11.55.07.83l-.01.05c-.02.1-.03.1-.05 0-.04-.18-.1-.35-.2-.5-.38-.62-.76-1.22-1.16-1.79Zm5.7 1.41h-.04c-.34-.07-.55-.1-.78-.4l-.13-.16c-.4-.52-.8-1.03-1.42-1.32l-.02-.02v-.02a.03.03 0 0 1 .02-.03 1.44 1.44 0 0 0 .55-.35.06.06 0 0 1 .07.04c.22.44.5.84.82 1.22.3.34.66.55 1.08.6a.09.09 0 0 1 .07.05l.4.68c.1.13.13.27.17.4l.05.18c.07.22.04.23-.09.05-.2-.3-.43-.58-.69-.88a.12.12 0 0 0-.07-.04Zm-2.76-.13a1.3 1.3 0 0 1 .29.65.03.03 0 0 0 .03 0l.03-.12.02-.1c.08-.26.01-.51-.18-.76l-1.06-1.35c-.07-.1-.16-.14-.25-.13h-.05c-.09 0-.1.05-.06.12.48.65.89 1.21 1.23 1.7Zm18.6-2.35v.02c.02.02 0 .05-.03.09-.24.23-.43.49-.58.77-.05.1-.02.14.09.1a.3.3 0 0 0 .13-.1l.6-.8c.2-.28.4-.43.64-.6l.24-.18c.1-.08.1-.14-.03-.18l-.1-.03a.29.29 0 0 0-.3.07l-.02.02c-.14.16-.44.48-.65.48a.8.8 0 0 0-.72.34c-.23.33-.49.6-.76.83-.05.05-.05.08.03.08h.25a.33.33 0 0 0 .26-.12 2.8 2.8 0 0 1 .93-.8l.02.01Zm-11-12.97c-.17 0-.32.08-.51.17-.03.02-.07.01-.12-.01-.03-.02-.03-.03-.01-.06.23-.2.5-.25.8-.15.04.02.04.03 0 .04a.91.91 0 0 1-.16 0Zm.55.01v-.03c.02-.04.04-.05.07-.03l.33.27c.02.01.02.02 0 .03l-.03.01h-.03l-.2-.2c-.03-.02-.06-.02-.09 0-.01 0-.03.03-.04.08-.01.02-.03.04-.06.04-.06.01-.12-.01-.18-.06-.04-.02-.04-.04 0-.04l.17-.02c.03 0 .05-.02.06-.05Zm-.26 1.33.01.01.03.03c.03.01.04 0 .02-.02a.38.38 0 0 1-.02-.24v-.08a.82.82 0 0 1-.09-.36c.01-.44-.52-.41-.78-.31a.09.09 0 0 1-.08 0l-.09-.06a.14.14 0 0 0-.19.05l-.22.38a.06.06 0 0 0 0 .06.06.06 0 0 0 .05.03c.15.03.22.13.18.32 0 .03-.02.04-.05.04h-.16l-.03.01a.06.06 0 0 0-.03.03c-.13.37-.03.66.1 1.01l.02.08c.07.2.22.25.45.14.04-.02.14-.1.33-.27.07-.06.1-.11.1-.17.01-.03.02-.1.02-.21 0-.03.01-.06.03-.08a.56.56 0 0 1 .12-.1.6.6 0 0 0 .09-.09c.05-.06.09-.12.12-.19a.05.05 0 0 1 .04-.02h.03Zm.58.13c0-.01 0-.03-.02-.04a.07.07 0 0 0-.04-.02c-.1-.01-.17.03-.24.12h-.01l-.03-.02a.04.04 0 0 1-.01-.02.04.04 0 0 1 0-.03.39.39 0 0 1 .25-.14.15.15 0 0 1 .13.06.15.15 0 0 1 .02.14c-.06.16-.19.33-.37.5a.16.16 0 0 1-.08.03c-.1.02-.14.08-.13.17a.03.03 0 0 1-.02.04h-.05a.04.04 0 0 1-.01-.06.79.79 0 0 0 .14-.23.1.1 0 0 1 .05-.05.42.42 0 0 0 .27-.3c.01-.03.05-.06.12-.09.03-.01.04-.03.03-.06Zm-1.25 2.85c-.07.08-.1.06-.1-.05l.04-.1c.04-.1.02-.12-.07-.06a17.5 17.5 0 0 1-1.17.7.86.86 0 0 0-.26.05c-.24.1-.48.1-.7.02-.03-.01-.05 0-.05.03-.02.23.2.32.39.23a7.18 7.18 0 0 1 .42-.15c.02.02.01.04 0 .07a.15.15 0 0 1-.05.03l-.2.12a.07.07 0 0 0-.05.07c0 .13-.03.25-.11.36v.03h.03c.2-.28.41-.42.66-.58l.22-.14c.08-.06.1-.04.06.05a1.91 1.91 0 0 0-.2.87.02.02 0 0 0 .03 0c.08-.26.19-.43.32-.51h.04l.01.02.02.19a.07.07 0 0 0 .05.05l.16.06a.1.1 0 0 1 .06.05l.15.32.02.01h.02a.57.57 0 0 1 0-.38.14.14 0 0 1 .1-.09.13.13 0 0 1 .13.04l.13.14c.07.07.1.05.08-.05-.11-.69.12-1.46.7-1.9.06-.05.05-.07-.03-.07a.52.52 0 0 0-.2.07c-.24.13-.45.29-.65.5Zm-.04 2.85c.13.08.18.05.13-.1v-.12c.02-.08.04-.08.06 0 .05.2.11.55-.07.68a.13.13 0 0 1-.2-.05 2.6 2.6 0 0 1-.16-.38.72.72 0 0 1-.01-.36c.01-.1.02-.23 0-.37l.02-.02.03.01a8.87 8.87 0 0 0 .2.71Zm.3 1.05-.01.01-.38.3c-.15.14-.27.23-.36.27-.3.14-.66.1-1 .04-.16-.03-.17-.01-.01.06.4.19.99.26 1.33-.1.06-.05.18-.19.37-.4.05-.07.1-.1.15-.13a.7.7 0 0 0 .1-.07.03.03 0 0 0 .01-.03.03.03 0 0 0-.02-.03 1.3 1.3 0 0 0-.57.03.7.7 0 0 1-.36.01c-.33-.1-.4-.5-.47-.82a.17.17 0 0 0-.04-.09.39.39 0 0 1-.1-.26 12.19 12.19 0 0 0-.04-.47c-.07.46-.17 1.88.5 1.97.1.01.24-.03.42-.13a15.81 15.81 0 0 1 .4-.2l.02.01.06.03Zm3.15 3.16c-.07-.04-.1-.11-.13-.21l-.1-.45c-.09-.43-.33-.77-.7-1.01a2.48 2.48 0 0 0-2.4-.14l-.02-.01v-.03l.17-.07c.23-.11.46-.22.69-.27.8-.16 1.64.11 2.26.6a1.41 1.41 0 0 1 .55 1.05c.03.18.05.4.17.56.12.17.3.25.51.24l.89-.02c.18 0 .33.01.47.05.1.04.1.06 0 .08-.84.14-1.68.2-2.48.06a2.74 2.74 0 0 1-1.3-.6l.01-.02h.03c.42.28.88.38 1.36.3.1-.02.11-.05.02-.1Zm-1.5-1.7c-.2-.13-.43-.2-.67-.2-.25 0-.47.07-.68.2a.43.43 0 0 0-.12.1c-.02.04-.02.04.02.03.26-.13.52-.2.78-.2.25 0 .52.06.78.19.03.01.04 0 .02-.02a.41.41 0 0 0-.12-.1Zm4.15 4.1c.21 0 .45-.03.7-.12.06-.02.09 0 .08.06 0 .2-.08.4-.21.59-.27.38-.63.63-1.07.78h-.04c-.55.18-1.03.33-1.42.72-.37.36-.65.77-.82 1.24l-.36.92a2.09 2.09 0 0 1-.77.92l-.02-.01v-.02c.3-.28.51-.62.65-1.03l.36-1.11c.33-1.04 1.17-1.64 2.19-1.93.28-.09.75-.29.9-.57a.07.07 0 0 0-.01-.07.07.07 0 0 0-.07-.03l-.75.1a.11.11 0 0 1-.13-.1c0-.03 0-.05.02-.07l.1-.14a.07.07 0 0 0-.03-.1 1.76 1.76 0 0 0-.42-.01c-.12.02-.13-.01-.04-.1.23-.2.5-.32.8-.37a3.93 3.93 0 0 0 .96-.32c.06-.07.05-.1-.05-.08a3.1 3.1 0 0 1-.69.03l-.95-.07a5.52 5.52 0 0 0-1.88.21v-.02c.6-.27 1.23-.42 1.9-.46h1.43c.14.01.32-.03.54-.13.1-.04.23-.16.39-.33.18-.2.3-.33.36-.37.16-.1.33-.16.53-.16.13 0 .13.02.01.05-.31.08-.5.4-.67.7a4 4 0 0 1-.18.3c-.32.44-.84.73-1.37.97-.18.07-.17.12.03.13ZM27 32.66c.3.1.62.16.94.19.03 0 .04.02.04.05l-.02.12c0 .04 0 .06.05.07.06 0 .1.02.1.02.1.07.1.12-.03.14l-.13.01c-.02 0-.03.01-.02.03v.04c0 .02.01.02.02.03.27.02.86 0 1.08-.22.06-.07.05-.1-.04-.08-.3.03-.53.02-.7-.03-.24-.08-.24-.15 0-.23l.07-.02c.38-.12.77-.25 1.18-.46l-.01-.02c0-.01-.01-.02-.02-.01-.4.12-.79.2-1.19.23-.27.02-.5 0-.7-.04-.23-.06-.23-.12-.01-.2.22-.08.4-.17.52-.29.21-.18.18-.22-.08-.12a2.17 2.17 0 0 1-.94.16.03.03 0 0 0-.02.03v.01l.01.02.02.01c.12-.02.2.01.22.1a.1.1 0 0 1-.04.11.11.11 0 0 1-.05.02l-.52.09c-.1.01-.1.05-.02.1.07.06.17.1.3.14Zm7.19 3.87c.14-.15.2-.36.13-.55l-.3-.76a1.03 1.03 0 0 0-.8-.66c-.26-.05-.5-.1-.72-.17-.06-.02-.07-.05 0-.07.24-.12.58-.29.87-.22l.25.08c.14.05.28.1.45.1l.34-.01c.03 0 .06 0 .08.02.03.02.04.05.05.07.04.14.06.23.05.26-.03.46-.02.74.02.85.14.38.25.7 0 .97-.12.12-.21.2-.38.2a.06.06 0 0 1-.06-.04.07.07 0 0 1 .02-.07Zm-6.35-1.8a145.8 145.8 0 0 0 .75.34.12.12 0 0 1-.01.17l-.26.26a.05.05 0 0 0-.01.05.04.04 0 0 0 .03.03l.25.04c.04.01.08.03.1.07.03.04.05.08.04.12a.95.95 0 0 1-.19.48c-.09.12-.07.14.07.07.45-.23.68-.67.9-1.1l.07-.15a1.66 1.66 0 0 1 .91-.82v-.03h-.01c-.28.02-.48.08-.61.16l-.38.23a.8.8 0 0 1-.67.1l-.19-.04c-.48-.14-.87-.24-1.29-.08l-.01.02c0 .02 0 .03.03.03.24 0 .4.01.48.05Zm.98 6.84c-.12.11-.3.2-.54.25a.5.5 0 0 1-.33-.04.07.07 0 0 1 0-.13c.39-.22.62-.5.64-.97a4.2 4.2 0 0 0-.15-1.46.09.09 0 0 1 .07-.08c.28-.06.42.04.6.28l.26.37c.09.1.08.22 0 .32l-.02.04c-.23.3-.35.46-.4.8l-.06.49c0 .05-.03.1-.07.13Zm-.85 1.29v-.01c-.18-.34-.6-.92-1.02-.9a.14.14 0 0 0-.07.04c-.34.26-.68.46-1 .6-.05.02-.05.03 0 .05.63.22 1.32.3 2.06.25h.01a.03.03 0 0 0 .02-.03Zm-9-23.82.08-.02a.54.54 0 0 1 .07-.03.8.8 0 0 1 .3-.02c.1 0 .2 0 .29-.04l.32-.15a2.65 2.65 0 0 1 .51-.36v-.02a.03.03 0 0 0-.02-.02 3.33 3.33 0 0 0-.38-.07c-.1 0-.23.02-.38.08-.3.13-.56.3-.8.53-.07.06-.06.1.01.12Zm9.37-.1c0 .02-.05.04-.1.02-.05 0-.08-.04-.07-.07 0-.03.05-.04.1-.03.04.01.08.04.07.07Zm-2.18 1.12c.04.05.1.06.13.04.04-.03.03-.09 0-.14-.04-.04-.1-.06-.13-.03-.03.02-.03.08 0 .13Z" fill="#C6020B"/><path d="m26.88 20.08-.05.03a.03.03 0 0 0 .02.06c.14.03.23.05.27.08.14.1.12.14-.05.13l-.4-.08c-.08-.02-.1-.06-.05-.13.17-.24.37-.29.6-.14.04.03.04.04-.02.04l-.2-.03c-.05 0-.09.01-.12.04ZM32.92 21.38c-.13.02-.18 0-.16-.08a.85.85 0 0 1 .53-.54c.92-.38 1.5-.63 1.77-.73.24-.1.3-.04.18.2-.24.47-.64.6-1.2.8a16.63 16.63 0 0 1-1.12.35ZM31.8 21.1l-.2.06a.05.05 0 0 1-.04-.02l-.01-.02v-.03c.06-.25.2-.38.44-.5a12.24 12.24 0 0 0 .96-.54h.03l.01.03.01.02a.73.73 0 0 1-.45.65c-.3.15-.56.26-.76.34ZM23.25 20.23l.51.3c.12.06.2.16.21.29a.04.04 0 0 1-.03.04h-.02l-.56-.24a.28.28 0 0 1-.16-.18l-.04-.15v-.03c0-.01 0-.02.02-.03l.03-.01h.04ZM31.33 20.88l-.5.27a.06.06 0 0 1-.1-.03v-.04c.02-.1.07-.2.15-.3.05-.05.22-.18.53-.39.1-.07.15-.04.12.09l-.02.16a.32.32 0 0 1-.18.24ZM23.75 21.2c.23.12.44.18.48.12.03-.06-.14-.21-.37-.34-.23-.12-.44-.17-.48-.11-.03.06.14.2.37.33ZM32.6 20.96a.1.1 0 0 1 .05-.01.1.1 0 0 1 .05.02l.02.04v.05l-.1.21a.41.41 0 0 1-.26.23l-.85.26a.06.06 0 0 1-.06-.01l-.01-.03v-.03a.56.56 0 0 1 .35-.39c.23-.09.5-.2.8-.34ZM26.62 21.03l-.3-.13h-.02l-.02.02v.02a.26.26 0 0 0-.02.17c.02.05.05.1.1.11.05.02.1.02.15 0a.26.26 0 0 0 .12-.14.04.04 0 0 0 0-.04Zm-.13.07c0 .02-.04.03-.09.03-.04 0-.08-.02-.08-.04s.04-.03.09-.03c.04 0 .08.02.08.04ZM30.62 21.73h-.03a.06.06 0 0 1-.04-.04v-.04a.6.6 0 0 1 .19-.25c.05-.05.25-.14.57-.28.12-.05.15-.02.1.1l-.05.15c-.03.1-.1.17-.2.2l-.54.16ZM33.13 22.11a111.34 111.34 0 0 0-.6.03.07.07 0 0 1-.05-.06l.01-.03c.1-.25.31-.37.59-.43a17.42 17.42 0 0 0 1.39-.37s.02 0 .03.02a.07.07 0 0 1 .02.07.95.95 0 0 1-.34.48c-.13.1-.3.17-.5.2-.27.06-.46.08-.55.09ZM32.38 21.7a.09.09 0 0 1 .09.02l.02.05-.01.04-.1.17a.37.37 0 0 1-.27.18l-.77.13a.05.05 0 0 1-.05-.02.05.05 0 0 1 0-.05.5.5 0 0 1 .35-.3l.74-.22ZM30.42 22.19a.06.06 0 0 1-.06-.03.06.06 0 0 1 0-.06.56.56 0 0 1 .23-.2c.06-.03.25-.08.57-.14.12-.02.15.02.08.12l-.08.13a.29.29 0 0 1-.23.14l-.51.04ZM30.17 22.56a.06.06 0 0 1-.05-.07l.02-.02a.57.57 0 0 1 .26-.15c.07-.02.28-.03.62-.01.12 0 .13.04.05.13l-.1.1a.3.3 0 0 1-.28.1l-.52-.08ZM31.48 22.77c-.1-.02-.23-.02-.35-.05a.06.06 0 0 1-.04-.05.06.06 0 0 1 .02-.06.93.93 0 0 1 .65-.2 27.09 27.09 0 0 0 1.66-.02.06.06 0 0 1 .03.05l-.01.03c-.28.32-.62.47-1.03.43a7.26 7.26 0 0 1-.93-.13ZM30.77 22.81c-.01.08-.07.14-.16.17a.57.57 0 0 1-.31.02h-.05a.64.64 0 0 1-.15-.06.5.5 0 0 1-.13-.09.31.31 0 0 1-.07-.1.2.2 0 0 1-.01-.11l.88.17ZM24.64 22.78h.02v.01a.21.21 0 0 1 .01.17.23.23 0 0 1-.1.13l-.03.02a.22.22 0 0 1-.17.02.21.21 0 0 1-.13-.1V23l.4-.23ZM30.17 23.3h-.36a.05.05 0 0 1-.04-.02l-.21-.29a.07.07 0 0 1 .02-.11h.04c.15.01.28.06.4.14.07.05.18.09.22.2 0 .03.02.04.05.05.2 0 .34.02.4.07a7.7 7.7 0 0 0 .97.57.07.07 0 0 1-.02.1c-.29.19-.54.18-.77-.03a9.55 9.55 0 0 1-.7-.68ZM30.92 23.24a6.83 6.83 0 0 1-.19-.1.08.08 0 0 1 .04-.12c.17-.09.32-.1.53-.05a8.08 8.08 0 0 0 1.19.22.07.07 0 0 1 .03.06l-.01.03c-.19.36-.6.39-.95.24l-.64-.28Z" fill="#C6020B"/><path d="M30.78 24.32c.1.13.06.2-.1.2h-.17a.37.37 0 0 1-.35-.23l-.31-.77a.06.06 0 0 1 .01-.07l.02-.01c.12-.03.22 0 .3.1.17.19.37.45.6.78ZM15.18 27.52c-.07.01-.16.04-.27.08h-.03l-.02-.02a.03.03 0 0 1-.01-.03.03.03 0 0 1 .01-.02l.76-.4a.04.04 0 0 1 .06.05v2.68a.16.16 0 0 0 .13.15l.22.04.03.03v.03l-.03.01h-1.1l-.03-.03a.03.03 0 0 1 .01-.06l.26-.03c.03 0 .06-.02.08-.04a.12.12 0 0 0 .03-.08V27.7c0-.13-.03-.19-.1-.18ZM22.49 27.52h-.9c-.16 0-.25.03-.33.15l-.1.11c-.12.1-.15.09-.1-.07l.2-.49a.08.08 0 0 1 .08-.05h1.52a.05.05 0 0 1 .06.05v.02L22 30.1c-.01.05-.04.07-.09.07h-.15c-.04 0-.06-.02-.05-.06l.81-2.53a.04.04 0 0 0-.02-.05h-.01Z" fill="#C6020B"/><path fill-rule="evenodd" d="M20.21 28.91c.07-.04.09-.02.06.05a1.6 1.6 0 0 1-1.25 1.16c-.02 0-.03.01-.03.04v.02c0 .03.01.03.03.03.98-.1 1.55-.61 1.72-1.53.12-.62-.12-1.45-.82-1.55a.85.85 0 0 0-.84.33c-.24.3-.3.9-.08 1.25.27.44.8.45 1.21.2Zm.12-.6c0-.33-.01-.7-.27-.94-.08-.08-.2-.12-.35-.1-.5.06-.47.8-.37 1.15.09.35.32.53.69.42.16-.05.32-.13.31-.33v-.2ZM18.02 28.91c.06-.03.08-.02.06.05a1.6 1.6 0 0 1-1.25 1.16c-.02 0-.03.01-.03.03v.03c0 .02 0 .03.03.03.97-.1 1.54-.61 1.72-1.53.12-.61-.12-1.44-.82-1.55a.85.85 0 0 0-.84.33c-.24.3-.3.9-.08 1.25.27.44.78.45 1.2.2Zm-.2-.08c.17-.05.33-.13.32-.33v-.19c-.02-.33-.02-.7-.28-.94-.08-.08-.2-.11-.35-.1-.49.06-.46.8-.37 1.14.1.35.32.53.69.42Z" fill="#C6020B"/><path d="M33.65 28.27c-.02.05-.04.05-.07 0-.02-.03-.02-.08 0-.16 0-.04.03-.05.06-.03.06.03.06.1.01.19Z" fill="#C6020B"/></svg>