<!-- by TradingView --><svg width="56" height="56" viewBox="0 0 56 56" xmlns="http://www.w3.org/2000/svg"><path fill="#F0F3FA" d="M0 0h56v56H0z"/><path d="M13.87 13a.86.86 0 0 0-.87.86v28.28c0 .47.39.86.87.86h28.26c.48 0 .87-.39.87-.86V30.06c0-.59-.47-1.06-1.06-1.06-.55 0-1 .43-1.09.97a13 13 0 1 1 0-3.94c.08.54.54.97 1.1.97.58 0 1.05-.47 1.05-1.06V13.86a.86.86 0 0 0-.87-.86H13.87Z" fill="#E70012"/><path fill-rule="evenodd" d="M28 39.97a11.97 11.97 0 1 0 0-23.94 11.97 11.97 0 0 0 0 23.94ZM39 28a11 11 0 0 1-15.59 10h8.5L34 36.35v-7.16l-1.23-1.27L34 26.7v-7.16L32.15 18h-8.74A11 11 0 0 1 39 28Zm-22 0a11 11 0 0 1 5-9.22v18.44A11 11 0 0 1 17 28Zm9-6h4v4h-4v-4Zm4 8h-4v4h4v-4Z" fill="#E70012"/></svg>