<!-- by TradingView --><svg width="56" height="56" viewBox="0 0 56 56" xmlns="http://www.w3.org/2000/svg"><path fill="#F0F3FA" d="M0 0h56v56H0z"/><path d="M12.15 20.51c0-1.03.5-1.55.75-1.67.23-.18 14.23-1.22 15.29 2.13-3.01.46-8.19 2.66-8.19 6.17 0 2.8 2.94 5 4.5 5.86-11.97-4.34-12.35-11.2-12.35-12.49Z" fill="url(#a)"/><path d="M30.45 10.68a4.9 4.9 0 0 0-4.97 0l-11.07 6.5A5.28 5.28 0 0 0 12.66 19c10.96.12 31.55 3.62 31.05 17.24.19-.54.29-1.11.29-1.7v-13c0-1.8-.95-3.47-2.48-4.37l-11.07-6.5Z" fill="#1B4A85"/><path d="M43.48 19.3c-8.57 0-13.89 1.2-15.48 1.79 8.41 2.33 16.02 6.86 15.71 15.16.19-.54.29-1.11.29-1.7v-13c0-.8-.19-1.57-.52-2.26Z" fill="url(#b)"/><path d="M43.85 35.49c0 1.03-.5 1.55-.75 1.67-.23.18-14.23 1.22-15.29-2.13 3.01-.45 8.2-2.66 8.2-6.17 0-2.8-2.95-5-4.5-5.86 11.96 4.34 12.34 11.2 12.34 12.49Z" fill="url(#c)"/><path d="M25.55 45.32c1.54.9 3.44.9 4.97 0l11.07-6.5a5 5 0 0 0 1.7-1.79c-10.96-.12-31.5-3.66-31-17.28a5.12 5.12 0 0 0-.29 1.7v13c0 1.8.95 3.47 2.48 4.37l11.07 6.5Z" fill="#1B4A85"/><path d="M12.52 36.7c8.57 0 13.89-1.15 15.48-1.74-8.41-2.34-16.02-6.9-15.71-15.21a5.12 5.12 0 0 0-.29 1.7v13c0 .8.19 1.57.52 2.26Z" fill="url(#d)"/><defs><linearGradient id="a" x1="20.17" y1="18.55" x2="20.17" y2="33.23" gradientUnits="userSpaceOnUse"><stop stop-color="#008E71"/><stop offset="1" stop-color="#E2DF50"/></linearGradient><linearGradient id="b" x1="43.55" y1="31.71" x2="27.94" y2="22.35" gradientUnits="userSpaceOnUse"><stop offset=".28" stop-color="#1B4A85"/><stop offset="1" stop-color="#4AA5CF"/></linearGradient><linearGradient id="c" x1="35.83" y1="37.45" x2="35.83" y2="22.77" gradientUnits="userSpaceOnUse"><stop stop-color="#008E71"/><stop offset="1" stop-color="#E2DF50"/></linearGradient><linearGradient id="d" x1="12.45" y1="24.29" x2="28.06" y2="33.65" gradientUnits="userSpaceOnUse"><stop offset=".28" stop-color="#1B4A85"/><stop offset="1" stop-color="#4AA5CF"/></linearGradient></defs></svg>