<!-- by TradingView --><svg width="56" height="56" viewBox="0 0 56 56" xmlns="http://www.w3.org/2000/svg"><path fill="#F0F3FA" d="M0 0h56v56H0z"/><path d="M35.97 21.16a5739 5739 0 0 1-6.8 11.26 5.19 5.19 0 0 1-2.84 2.28c-.56.2-1.43.3-2.6.3H21.1c-.1 0-.12-.04-.08-.12l7.39-12.2c.37-.6.72-1.02 1.05-1.23a2.93 2.93 0 0 1 1.7-.45h4.72c.12 0 .15.06.09.16ZM47.98 23.16c-2.35 4.25-4.26 7.68-5.73 10.3-.39.7-.96 1.28-1.71 1.75-.76.47-1.55.73-2.36.77-.56.02-1.1.03-1.6 0-.08 0-.1-.04-.06-.11l6.43-11.57c.28-.5.7-.87 1.26-1.1.31-.13.83-.2 1.56-.2h2.13a.1.1 0 0 1 .09.05.1.1 0 0 1 0 .1ZM28.02 36.9c1.81-3.14 3.89-6.71 6.22-10.71.24-.4.62-.73 1.14-.97.3-.15.78-.22 1.42-.22h4.11c.09 0 .11.05.07.12-1.9 3.24-3.65 6.27-5.28 9.09a5.56 5.56 0 0 1-3.55 2.62c-.45.12-1.13.18-2.02.17h-2.05c-.08 0-.1-.03-.06-.1Z" fill="#EE2F42"/><path fill-rule="evenodd" d="M13.9 34.8c2.02.3 4.09.26 6.21-.12a.26.26 0 0 0 .19-.13l4.66-8.04a.27.27 0 0 0 .03-.22 5 5 0 0 0-2.65-3.2c-2.13-1.03-4.94-1.33-8.43-.9-.88.11-1.73.35-2.54.71a5.4 5.4 0 0 0-2.1 1.54 5.32 5.32 0 0 0-1 1.99 7.99 7.99 0 0 0-.02 4.05 5.07 5.07 0 0 0 2.3 3.2 9 9 0 0 0 3.35 1.12Zm6.69-8.88c-.56-.52-1.87-.77-3.94-.77-2.06 0-3.38.25-3.93.77-.58.53-.87 1.39-.87 2.58 0 1.18.29 2.05.87 2.58.55.51 1.87.77 3.93.77 2.07 0 3.38-.26 3.94-.77.58-.53.87-1.4.87-2.58 0-1.19-.29-2.05-.87-2.58Z" fill="#212423"/></svg>