<!-- by TradingView --><svg width="56" height="56" viewBox="0 0 56 56" xmlns="http://www.w3.org/2000/svg"><path fill="#F0F3FA" d="M0 0h56v56H0z"/><path fill-rule="evenodd" d="M16.39 31c.2.07 1.86.74 4.32 2.11 2.46 1.37 3.29 2.5 3.29 3.03 0 .42-.53 1.02-.8 1.26-.13.2-.5.6-.98.6-.31 0-.86-.38-1.49-.8a9.9 9.9 0 0 0-1.8-1.06c-1.2-.46-1.75-.78-2.15-2.08l-.18-.58c-.38-1.19-.8-2.48-.21-2.48Zm1.36 1.48c.13.04 1.16.44 2.7 1.27 1.52.83 2.04 1.5 2.04 1.82 0 .26-.33.62-.5.77-.07.12-.31.36-.6.36-.2 0-.54-.23-.93-.49a6.2 6.2 0 0 0-1.13-.64c-.74-.27-1.08-.46-1.33-1.25l-.11-.35c-.24-.71-.5-1.5-.14-1.5Z" fill="#FF2120"/><path d="M22.87 32.14c-1.36-1.48-4.1-3.37-5.16-4.07-.24-.15-.53-.05-.65.23-.15.33 0 .74.28.88.38.19.95.48 1.74.92 1.15.65 2.39 1.88 3.15 2.75.23.26.62.17.74-.17a.54.54 0 0 0-.1-.54Z" fill="#FF2120"/><path d="M22.7 28.65c-1.32-2.38-1.77-3.74-1.84-4.12-.11-.18-.4-.53-.65-.53a4.53 4.53 0 0 1-1.69 1.71H15.3c-.7-.06-2.15-.16-2.3 0 0 .7 1.5 2 2.3 2 .8 0 3.68-1.26 4.37-1.26.7 0 1.2.33 2.46 3.06 2.18 5.3 4.06 6.49 4.72 6.49.65 0 1.8-.4.69-.73-1.12-.33-3.19-3.64-4.84-6.62Z" fill="#FF2120"/><path fill-rule="evenodd" d="M44 19.6V34L28 44 12 34V19.6L28 14l16 5.6Zm-16 7.9 14.24-7.47L28 14.94l-14.24 5.09L28 27.5Zm-14.96 5.94V20.8l14.42 7.58v14.1l-14.42-9.03Zm29.92 0V20.8l-14.42 7.58v14.1l14.42-9.03Z" fill="#FF2120"/><path d="M37.05 22 39 21h-9v-2l1.35-1.13L36 19.5l1.06-.88L31 16.5l-2 1.63V26l1-.58V22h7.05ZM26 16.69l1-.69v10h-1v-5h-6v2h-1v-5h1v2h6v-3.31ZM42.59 24.15l.07 2.22c0 .14-.01.36-.04.67-.06.62-.66 1.14-1.23 1.32-1.47.47-3 .96-4.3 1.75-.6.34-1.27.6-1.83.98s-1.25.64-1.78 1.06a31 31 0 0 1-3.26 2.35c-.24.15-.4.12-.5-.07a3.76 3.76 0 0 1-.4-1.73l-.04-2.16c0-.14.05-.52.14-1.13.02-.1.03-.21.03-.32v-.28c0-.04.02-.06.06-.07.29-.07.54-.08.76-.04.04 0 .07.03.09.07.33.9.03 2.78.62 3.48.21.25.49.29.84.13.29-.13.49-.23.6-.3.8-.46 1.61-.96 2.42-1.5.3-.19.61-.31.86-.53a.27.27 0 0 0 .08-.27c-.05-.2-.11-.49-.17-.85-.2-1.14.29-2.27.56-3.35.02-.1.09-.17.17-.23l.37-.2c.05-.03.11-.01.12.04l.15.61c.23.74.08 1.61-.04 2.36-.07.37-.07.72 0 1.05 0 .07.08.1.15.08.37-.16.66-.3.85-.4a27 27 0 0 1 2.8-1.4c.96-.42.87-2.24.78-3.07l.04-1.2c.48-.17.34-.42.9-.33a.12.12 0 0 1 .1.12l.03 1.14Z" fill="#FF2120"/><path d="m41.26 23.99-.04.38c-.15-.01-.3.02-.43.1-.23.11-.22.34-.55.37-.13.02-.2.08-.22.2 0 .04.02.06.06.04.12-.06.73-.24.77-.03.03.18.02.3-.03.37-.21.31-.48.44-.83.55-.1.03-.18.16-.18.26 0 .05.02.07.07.07.34 0 .62-.05.84-.17.1-.05.16-.03.19.07.04.15 0 .27-.1.36-.22.18-.4.3-.55.4a3.51 3.51 0 0 0-1.16 1.1h-.03a1.27 1.27 0 0 0-.54-.04c-.19.04-.46.18-.8.41-.1.06-.2.1-.33.12-.13.02-.25-.1-.22-.22.2-.66 1.11-.7 1.47-1.27a.08.08 0 0 0 0-.05.08.08 0 0 0-.02-.05c-.04-.04-.1-.05-.2-.02-.13.05-.24.2-.4.21-.13.02-.4 0-.36-.18a.8.8 0 0 1 .34-.53c.29-.18.72-.4.83-.6.05-.08.03-.1-.07-.07l-.99.35c-.15.05-.23 0-.23-.14v-.27c0-.14.07-.24.21-.29.29-.1.69-.31 1.2-.64a.51.51 0 0 0 .17-.2c.14-.26.35-.5.44-.78a.12.12 0 0 1 .07-.08.42.42 0 0 1 .25 0c.13.04.08.21.08.3 0 .06.04.1.1.1h.37c.04 0 .07-.02.1-.05.03-.05.04-.1.01-.16a.08.08 0 0 1 .04-.1.1.1 0 0 1 .04-.01c.49-.05.7.02.63.19ZM32.77 29.1c.02-.13-.02-.16-.15-.08-.31.19-.64.33-.97.44-.24.07-.44-.16-.3-.36.37-.48.89-.76 1.36-1.07a.14.14 0 0 0 .04-.03.13.13 0 0 0 .02-.05c.05-.33.11-.55.18-.66.1-.15.35-.34.54-.37.22-.04.35.03.39.18 0 .03.02.05.04.07.04.03.1.04.15.02a4.87 4.87 0 0 1 1.29-.82c.1.1.16.2.18.3.04.13-.02.2-.17.21a.2.2 0 0 0-.1.05c-.4.34-.77.63-1.11.87-.11.07-.3.25-.3.38-.02.29.08.33.3.11a4.56 4.56 0 0 1 .87-.6c.09 0 .17.07.18.15.03.34-.1.6-.37.79l-.5.28c-.09.05-.14.12-.16.2 0 .06.06.1.12.09l.64-.23a.6.6 0 0 1 .5.02c.09.04.1.14.04.2-.42.44-.9.81-1.44 1.12-.08.05-.2.2-.33.46-.07.12-.2.25-.39.38-.27.18-.64.06-.94.29-.31.24-.65.42-1.03.55a.15.15 0 0 1-.1 0 .13.13 0 0 1-.07-.07c-.1-.21-.06-.4.12-.58.25-.26.58-.49.97-.68.2-.1.36-.26.43-.45.02-.06-.03-.13-.1-.13-.02 0-.04 0-.06.02l-1.07.6c-.16.1-.25.06-.26-.11l-.01-.1a.43.43 0 0 1 .21-.41c.25-.15.53-.3.83-.45.24-.11.49-.33.53-.53ZM38.52 30.6l-1.63.84c-.49.25-1 .54-1.45.83-1.19.8-2.39 1.62-3.6 2.49-.15.1-.3.18-.46.22a.16.16 0 0 1-.13-.01.14.14 0 0 1-.04-.04.13.13 0 0 1-.02-.06.68.68 0 0 1 .15-.53l.43-.48c.45-.4 1.01-.8 1.7-1.18l.93-.53c1.5-.9 2.62-1.59 3.34-2.05.3-.19.6-.35.87-.47.65-.28 1.08-.58 1.73-.57l.07.02.06.05.02.06v.07a.89.89 0 0 1-.33.4c-.29.2-.83.51-1.64.94ZM37.88 34.45c0 .02.03.04.05.03.81-.45 1.64-.9 2.47-1.32.76-.39 1.52-.9 2.25-1.25a.7.7 0 0 1 .22-.07c.05 0 .1.02.12.07a.1.1 0 0 1 0 .05c-.05.43-.22.79-.48 1.09a4.6 4.6 0 0 1-1.97 1.34c-.89.3-1.7.6-2.51 1.05-.7.4-1.43.78-2.17 1.17-.5.27-.99.58-1.48.87a256.54 256.54 0 0 1-3.52 2.41c-.3.2-.99.6-1.21.91a.43.43 0 0 1-.44.2.25.25 0 0 1-.14-.07.21.21 0 0 1-.06-.14c-.06-.64.38-.93.78-1.4.15-.18.37-.37.67-.58a17.8 17.8 0 0 1 1.72-1.03c.34-.18.71-.41 1.15-.63.13-.07.2-.19.2-.37 0-.05-.02-.07-.06-.08-.3-.05-.5-.01-.63.1-.25.22-.4.42-.64.48-.1.02-.37.06-.4-.08a7.58 7.58 0 0 1-.25-1.41.7.7 0 0 1 .26-.57c.4-.37.76-.8 1.22-1.1 1.71-1.11 2.8-1.8 3.27-2.06l2.78-1.52c.32-.17.78-.3.9.18.1.36.05.72-.14 1.09a3.3 3.3 0 0 1-.7 1c-.32.29-.56.49-.7.6-.39.3-.55.61-.56 1.05Zm-1.2-.87a6.83 6.83 0 0 0 1.85-1.3.7.7 0 0 0 .17-.37c.01-.05-.05-.1-.11-.1a4.8 4.8 0 0 0-.81.3c-.96.43-1.86 1-2.7 1.6-.46.31-2.45 1.28-2.27 1.85.01.04.04.06.07.08.13.06.27.05.4-.04.41-.26.77-.48 1.08-.64.79-.4 1.55-.97 2.33-1.38Zm-.1 1.74c.22-.13.36-.3.42-.53l.1-.41c.06-.18.01-.23-.13-.15l-2.05 1.17c-.3.18-.33.46-.3.75.02.23.13.28.34.15l1.63-.98Z" fill="#FF2120"/></svg>