<!-- by TradingView --><svg width="56" height="56" viewBox="0 0 56 56" xmlns="http://www.w3.org/2000/svg"><path fill="#F0F3FA" d="M0 0h56v56H0z"/><path d="M47.16 32.03c.55-1.28.84-2.63.84-4.03H9c0-7.18 8.5-13 19-13 8.98 0 16.51 4.27 18.5 10h1.04C45.58 18.71 37.57 14 28 14 16.95 14 8 20.27 8 28c0 .68.07 1.35.2 2H46.78c-.16.7-.4 1.38-.71 2.03h1.09Zm-3.86 4.99C39.63 40.06 34.14 42 28 42c-6.15 0-11.65-1.94-15.32-5h1.61c3.46 2.47 8.32 4 13.71 4 5.38 0 10.23-1.53 13.69-3.98h1.61Z" fill="#020202"/><path d="m23 17 3 3h-6l3-3Z" fill="#020202"/><path d="m23 19 4 3h-8l4-3Z" fill="#020202"/><path d="m23 21 5 4H18l5-4Z" fill="#020202"/><path d="M22.5 24h1v5h-1v-5ZM33 17l3 3h-6l3-3Z" fill="#020202"/><path d="m33 19 4 3h-8l4-3Z" fill="#020202"/><path d="m33 21 5 4H28l5-4Z" fill="#020202"/><path d="M32.5 24h1v5h-1v-5ZM45.18 34.68h-1.43l-.8.74a.46.46 0 0 0-.1.1c-.02.04-.02.07.01.1.04.02.12.04.26.06.05 0 .07.04.03.1a.72.72 0 0 1-.07.1 61.11 61.11 0 0 0-.77-.04 8.4 8.4 0 0 0-.63.03l.01-.05.03-.04c.04-.07.09-.1.15-.1l.34-.07a.68.68 0 0 0 .23-.13l3.49-3.04a.34.34 0 0 1 .21-.09h.07a.5.5 0 0 1 .07.01l-.27 3.14c-.01.05.02.09.08.12a.9.9 0 0 0 .22.05c.06.01.07.05.03.1a.72.72 0 0 1-.07.1 257.41 257.41 0 0 1-.8-.03h-.23a101.27 101.27 0 0 1-.81.03l.01-.05.03-.04a.2.2 0 0 1 .13-.1l.3-.06c.07-.02.12-.06.15-.1a.23.23 0 0 0 .03-.08l.1-.76Zm.03-.26.15-1.19-1.32 1.19h1.17Z" fill="#020202"/><path d="M42.96 34.54c-.12.2-.26.39-.42.55a2.42 2.42 0 0 1-1.26.72c-.26.06-.56.1-.9.1a3 3 0 0 1-.91-.1c-.2-.08-.34-.17-.4-.3a.57.57 0 0 1 0-.42c.05-.17.14-.34.25-.53l1.07-1.75c.04-.07.05-.13 0-.15-.03-.03-.14-.06-.31-.08-.05 0-.05-.04-.01-.1l.02-.04a.24.24 0 0 1 .05-.05 88.34 88.34 0 0 0 .93.02 24.87 24.87 0 0 0 .97-.02c0 .02-.02.03-.03.05 0 .02 0 .03-.02.04-.03.06-.08.1-.13.1-.2.02-.34.05-.43.08a.37.37 0 0 0-.18.15l-1 1.64c-.23.36-.3.64-.25.83.06.19.3.28.73.28s.8-.08 1.08-.26c.3-.18.57-.47.81-.87l.99-1.62c.04-.07.04-.12 0-.15a.79.79 0 0 0-.32-.08c-.05 0-.05-.04-.02-.1l.03-.04.04-.05a6.97 6.97 0 0 0 1.1.02l.34-.02-.02.05-.02.04a.2.2 0 0 1-.14.1c-.18.02-.31.04-.4.08a.37.37 0 0 0-.18.15l-1.06 1.73Z" fill="#020202"/><path d="M37.96 35.45a.71.71 0 0 0-.05.1c0 .01 0 .03.02.05a.3.3 0 0 0 .1.05l.2.03c.05 0 .05.04.02.09l-.03.05a.32.32 0 0 1-.04.05 89.62 89.62 0 0 0-.88-.03 22.18 22.18 0 0 0-.93.03c0-.01 0-.03.02-.05l.03-.05c.03-.06.07-.09.12-.09a3.77 3.77 0 0 0 .4-.08.33.33 0 0 0 .1-.06.5.5 0 0 0 .06-.09l.76-1.24h-1.84l-.75 1.24a.73.73 0 0 0-.05.1c0 .01 0 .03.02.05a.3.3 0 0 0 .1.05l.21.03c.04 0 .05.04.01.09l-.03.05a.32.32 0 0 1-.04.05 73.22 73.22 0 0 0-.9-.03 20.96 20.96 0 0 0-.9.03l.01-.05.03-.05c.03-.06.08-.09.12-.09a3.77 3.77 0 0 0 .4-.08.33.33 0 0 0 .1-.06.5.5 0 0 0 .06-.09l1.61-2.64a.27.27 0 0 0 .04-.08l-.01-.07c-.02-.02-.05-.03-.1-.04a1.22 1.22 0 0 0-.2-.04c-.05 0-.05-.04-.02-.09l.03-.04a.25.25 0 0 1 .05-.06 90.19 90.19 0 0 0 .88.02 21.86 21.86 0 0 0 .92-.02l-.03.06-.02.04a.18.18 0 0 1-.12.1 2.58 2.58 0 0 0-.4.07.31.31 0 0 0-.1.07.75.75 0 0 0-.06.08l-.69 1.12h1.84l.68-1.12a.27.27 0 0 0 .04-.08l-.01-.07c-.02-.02-.06-.03-.1-.04a1.22 1.22 0 0 0-.2-.04c-.05 0-.05-.04-.02-.09l.03-.04a.25.25 0 0 1 .05-.06 89.68 89.68 0 0 0 .89.02 20.9 20.9 0 0 0 .91-.02l-.03.06-.02.04a.18.18 0 0 1-.12.1 2.58 2.58 0 0 0-.41.07.31.31 0 0 0-.1.07.75.75 0 0 0-.05.08l-1.61 2.64ZM31.12 35.82a21.12 21.12 0 0 1-1 .08h-.41c-.4 0-.73-.03-.98-.12a.92.92 0 0 1-.5-.36.8.8 0 0 1-.1-.56c.05-.22.15-.46.32-.73.12-.2.3-.42.51-.63a4.02 4.02 0 0 1 1.73-.99c.35-.1.71-.16 1.1-.16a6.19 6.19 0 0 1 1.48.16 5.72 5.72 0 0 0-.32.8l-.1.02h-.07a.3.3 0 0 1-.09 0c-.01-.02-.02-.04 0-.07.04-.24-.01-.4-.18-.5a1.5 1.5 0 0 0-.72-.13 2.55 2.55 0 0 0-1.35.38 3.02 3.02 0 0 0-1.29 1.66.88.88 0 0 0 .01.51c.05.15.16.26.31.34.16.07.38.11.65.11a2.86 2.86 0 0 0 .51-.04l.47-.76c.05-.1.06-.16.01-.2-.04-.04-.14-.07-.3-.08-.04-.01-.05-.03-.05-.05 0-.02 0-.04.02-.06 0-.02.01-.03.03-.05a.6.6 0 0 1 .04-.05 20.73 20.73 0 0 0 .72.03H31.98a5.93 5.93 0 0 1 .5-.02l.22-.01-.02.05-.03.05a.22.22 0 0 1-.07.07.26.26 0 0 1-.07.03 1.3 1.3 0 0 0-.35.07.38.38 0 0 0-.18.16l-.56.92a.23.23 0 0 1-.08.08.67.67 0 0 1-.22.05ZM27.29 34.7l1.14-1.88c.05-.08.05-.13 0-.16a.84.84 0 0 0-.32-.08c-.05 0-.06-.04-.02-.1a7.23 7.23 0 0 1 .07-.1 4.99 4.99 0 0 0 .7.03 11.66 11.66 0 0 0 .7-.02l-.03.05-.02.04c-.03.06-.08.1-.14.1-.16.02-.28.05-.35.08a.37.37 0 0 0-.18.15l-1.88 3.09h-.18a.2.2 0 0 1-.1-.01l-.06-.08-1.07-2.64-1.39 2.28a.74.74 0 0 0-.05.1c0 .01 0 .03.02.05l.1.04a6.12 6.12 0 0 0 .25.07l-.01.07a.7.7 0 0 1-.07.1 30.52 30.52 0 0 1-.65-.04 13.64 13.64 0 0 0-.72.03l.01-.05.03-.04a.22.22 0 0 1 .06-.07.24.24 0 0 1 .08-.03c.18-.02.3-.05.37-.08a.36.36 0 0 0 .17-.15l1.63-2.67c.04-.05.04-.1 0-.12-.02-.03-.11-.06-.27-.08-.05 0-.05-.04-.02-.1l.01-.02.03-.03.03-.04a39.25 39.25 0 0 1 .35.01l.3.01h.25c.13 0 .21 0 .25.02.03 0 .06.02.07.05l.9 2.21Z" fill="#020202"/><path d="M22.44 34.68h-1.42l-.8.74a.48.48 0 0 0-.1.1c-.02.04-.02.07.01.1.03.02.12.04.25.06.06 0 .07.04.04.1a.7.7 0 0 1-.07.1 61.56 61.56 0 0 0-.77-.04 8.4 8.4 0 0 0-.64.03c0-.01 0-.03.02-.05l.02-.04c.05-.07.1-.1.16-.1l.34-.07a.67.67 0 0 0 .22-.13l3.5-3.04a.34.34 0 0 1 .21-.09h.07a.5.5 0 0 1 .07.01l-.28 3.14c0 .05.03.09.09.12a.9.9 0 0 0 .21.05c.07.01.08.05.04.1a.73.73 0 0 1-.07.1 251.7 251.7 0 0 1-.8-.03h-.24a101.27 101.27 0 0 1-.8.03v-.05l.03-.04a.2.2 0 0 1 .14-.1l.3-.06c.07-.02.12-.06.15-.1a.23.23 0 0 0 .02-.08l.1-.76Zm.04-.26.14-1.19-1.31 1.19h1.17Z" fill="#020202"/><path d="M20.23 34.54c-.12.2-.26.39-.42.55a2.42 2.42 0 0 1-1.26.72c-.26.06-.56.1-.9.1a3 3 0 0 1-.91-.1c-.2-.08-.34-.17-.4-.3a.57.57 0 0 1 0-.42c.05-.17.14-.34.25-.53l1.07-1.75c.04-.07.04-.13 0-.15-.04-.03-.14-.06-.31-.08-.05 0-.05-.04-.02-.1l.03-.04a.24.24 0 0 1 .05-.05 88.34 88.34 0 0 0 .92.02 24.85 24.85 0 0 0 .98-.02c0 .02-.02.03-.03.05l-.02.04c-.03.06-.08.1-.13.1-.2.02-.34.05-.43.08a.37.37 0 0 0-.19.15l-1 1.64c-.22.36-.3.64-.25.83.07.19.3.28.73.28.44 0 .8-.08 1.09-.26.3-.18.56-.47.8-.87l1-1.62c.04-.07.04-.12 0-.15a.79.79 0 0 0-.32-.08c-.05 0-.06-.04-.02-.1l.02-.04.05-.05a6.97 6.97 0 0 0 1.1.02l.34-.02c0 .02-.01.03-.03.05l-.01.04a.2.2 0 0 1-.15.1c-.17.02-.3.04-.39.08a.37.37 0 0 0-.19.15l-1.05 1.73Z" fill="#020202"/><path d="M15.29 35.45a.73.73 0 0 0-.05.1c0 .01 0 .03.02.05a.3.3 0 0 0 .1.05l.2.03c.05 0 .05.04.02.09l-.03.05a.32.32 0 0 1-.04.05 90.19 90.19 0 0 0-.88-.03 22.18 22.18 0 0 0-.93.03c0-.01 0-.03.02-.05l.03-.05c.03-.06.07-.09.12-.09a3.77 3.77 0 0 0 .4-.08.33.33 0 0 0 .1-.06.5.5 0 0 0 .06-.09l.76-1.24h-1.84l-.75 1.24a.74.74 0 0 0-.05.1c0 .01 0 .03.02.05a.3.3 0 0 0 .1.05l.21.03c.04 0 .05.04.01.09l-.03.05a.32.32 0 0 1-.04.05 73.58 73.58 0 0 0-.9-.03 20.96 20.96 0 0 0-.9.03l.01-.05.03-.05c.03-.06.08-.09.12-.09a3.77 3.77 0 0 0 .4-.08.33.33 0 0 0 .1-.06.5.5 0 0 0 .06-.09l1.61-2.64a.27.27 0 0 0 .04-.08l-.01-.07c-.02-.02-.05-.03-.1-.04a1.23 1.23 0 0 0-.2-.04c-.05 0-.05-.04-.02-.09l.03-.04a.25.25 0 0 1 .05-.06 89.62 89.62 0 0 0 .88.02 21.86 21.86 0 0 0 .92-.02l-.03.06-.02.04a.18.18 0 0 1-.12.1 2.58 2.58 0 0 0-.4.07.31.31 0 0 0-.1.07.75.75 0 0 0-.06.08l-.69 1.12h1.84l.68-1.12a.27.27 0 0 0 .04-.08l-.01-.07c-.02-.02-.06-.03-.1-.04a1.23 1.23 0 0 0-.2-.04c-.05 0-.05-.04-.02-.09l.03-.04a.25.25 0 0 1 .05-.06 90.19 90.19 0 0 0 .89.02 20.9 20.9 0 0 0 .91-.02l-.03.06-.02.04a.18.18 0 0 1-.12.1 2.58 2.58 0 0 0-.41.07.31.31 0 0 0-.1.07.75.75 0 0 0-.05.08l-1.61 2.64ZM12.22 33.27a.63.63 0 0 1-.14.01c-.06 0-.1 0-.12-.02a.08.08 0 0 1-.02-.07c.02-.2-.03-.34-.14-.43-.1-.09-.3-.13-.58-.13-.22 0-.43.04-.63.13-.2.08-.35.2-.45.37-.08.13-.1.24-.03.32a.9.9 0 0 0 .31.2l.46.18c.17.05.31.12.43.2.13.1.2.2.24.33.04.13 0 .3-.13.5-.08.14-.19.27-.32.4-.14.12-.3.23-.49.33a3 3 0 0 1-1.37.32c-.3 0-.55-.03-.76-.08-.2-.05-.36-.1-.48-.17a4.53 4.53 0 0 0 .37-.87.67.67 0 0 1 .17-.02c.05 0 .09.01.1.03.02.01.03.04.02.08-.02.13-.03.25-.01.35.01.1.05.17.1.23.06.06.14.1.25.14.1.02.25.04.4.04.15 0 .28-.02.4-.04.11-.04.22-.08.31-.13a1.17 1.17 0 0 0 .42-.38c.1-.15.11-.26.05-.35a.59.59 0 0 0-.28-.22 3.1 3.1 0 0 0-.44-.16c-.16-.05-.3-.12-.42-.2a.58.58 0 0 1-.22-.3c-.04-.13.01-.3.14-.5.09-.15.2-.28.34-.4s.3-.23.48-.31a2.88 2.88 0 0 1 2.36-.1 10.02 10.02 0 0 0-.32.72Z" fill="#020202"/></svg>