<!-- by TradingView --><svg width="56" height="56" viewBox="0 0 56 56" xmlns="http://www.w3.org/2000/svg"><path fill="#F0F3FA" d="M0 0h56v56H0z"/><path d="M25.37 44.93A17.01 17.01 0 0 0 40.81 28c0-8.85-6.78-16.12-15.44-16.93A17.02 17.02 0 0 1 44 28a17.02 17.02 0 0 1-18.63 16.93Z" fill="#0EA149"/><path d="M36.32 32.89a13.3 13.3 0 0 1-23.91-10.56 14.36 14.36 0 0 0 12.96 20.54 14.36 14.36 0 0 0 12.96-20.54 13.26 13.26 0 0 1 .21 4.92c.25.72.42 1.75.14 2.88-.32 1.26-1.44 2.2-2.36 2.76Z" fill="#8CC63D"/><path d="M36.02 28c-.36-.18-1.07-.64-1.07-1.06.53-.53 2.66.53 3.2.53.53 0 0 .53-.54 1.06-.53.53.53.53.53 1.06 0 .54-.53.54-.53 1.07s-1.6 1.06-2.66 1.06-1.6 0-2.13-1.06c-.53-1.07.53-1.07 1.07-1.07.53 0 .53-.53.53-1.06s1.06.53 1.6.53c.42 0 .17-.7 0-1.06ZM34.42 32.78c-1.28 0-1.95-.7-2.13-1.06 1.7.85 3.2.7 3.73.53 0 .18-.32.53-1.6.53Z"/><path d="M18.45 14.47c.42.41.95.78 1.45.78.48 0 .85-.21 1.25-.45.5-.3 1.06-.61 1.94-.61.94 0 1.88.37 2.93.78.73.29 1.52.6 2.4.81 2.12.53 3.19 2.13 3.72 4.25.5 2.01 3.86 6.4 5.57 6.87a12.25 12.25 0 0 0-19.26-12.43Z" fill="#24A9E1"/><path d="M24.84 37.56c-2.13 0-3.73-.35-4.26-.53l4.8-4.78c.52-.53 1.06-.53 3.18 0 1.7.42 1.6-.53 2.67-.53 1.06 0 1.06 2.12 3.19 1.6-2.66 3.71-6.92 4.24-9.58 4.24Z" fill="#0EA149"/><path d="M13.13 14.72h3.2c.35-.18 1.38-.1 2.65 1.6 1.11 1.47 1.7.38 2.15-.42.19-.35.35-.65.51-.65.23 0 .45.18.7.4.37.3.81.66 1.43.66 1.07 0 3.2 0 3.73 1.6.53 1.59 1.06 2.65 2.13 3.18.5.26.77.63 1.08 1.06.34.48.74 1.04 1.58 1.6 1.6 1.06.53 2.66 0 3.19-.27.26-.93.53-1.6.8-.66.26-1.33.53-1.6.8-.53.52-.53.52-1.59.52-.48 0-.85-.43-1.26-.9-.5-.58-1.05-1.22-1.93-1.22-1.6 0-2.13 2.12-2.13 3.18 0 .54-.27.93-.54 1.33-.26.4-.53.8-.53 1.33 0 1.06-.53 3.19-1.6 3.19-1.06 0-5.85-3.19-6.38-7.97-.43-3.82-.18-6.2 0-6.9.35.35 1.28 1.06 2.13 1.06 1.06 0 3.72-1.07 3.72-1.6s-1.6-1.06-3.72-1.06c-1.07-1.24-2.98-3.93-2.13-4.78Zm11.7 14.87c.54.36 1.71 1.17 2.14 1.6.29.29.73.1 1.08-.04.3-.11.51-.2.51.04 0 .53-1.06.53-2.12 0-.58-.29-1.15.5-1.72 1.3-.5.67-.99 1.35-1.48 1.35-.67 0-.5-.2-.14-.63.21-.25.48-.57.67-.96.2-.4.18-.8.15-1.18-.04-.61-.07-1.15.92-1.48Zm1.18-10.09c-.53 0-1.5.1-1.07.53.36.36.71.24 1.07.12.18-.06.35-.12.53-.12.43 0-.18-.35-.53-.53Z"/></svg>