<!-- by TradingView --><svg width="56" height="56" viewBox="0 0 56 56" xmlns="http://www.w3.org/2000/svg"><path fill="#E0D6BC" d="M0 0h56v56H0z"/><path d="M40.88 16.9a16.93 16.93 0 0 1 4.07 12.4 16.77 16.77 0 0 1-2.81 8.14 16.83 16.83 0 0 1-5.61 5.27 16.76 16.76 0 0 1-7.38 2.25 16.86 16.86 0 0 1-15.7-8.18c-1.82-3-2.62-6.27-2.42-9.83A16.7 16.7 0 0 1 16.4 15.6a16.72 16.72 0 0 1 7.96-4.2 17.1 17.1 0 0 1 8.78.39c2.99.91 5.57 2.62 7.75 5.1Z" fill="#D5B453"/><path d="M28.05 43.67c-.03.04-.06.04-.1 0L12.34 28.05c-.03-.03-.03-.06 0-.09l15.63-15.62c.03-.03.06-.03.09 0l15.62 15.62c.03.03.03.06 0 .1L28.05 43.66Zm10.62-26.34a14.93 14.93 0 0 1 4.02 7.21c.03.12 0 .13-.08.05a2273.45 2273.45 0 0 1-11.2-11.2c-.08-.08-.07-.1.04-.08 2.8.67 5.2 2.01 7.22 4.02ZM13.39 24.6a1898.53 1898.53 0 0 0 11.17-11.2c.08-.07.07-.1-.04-.07a14.9 14.9 0 0 0-7.2 4.02c-2.01 2-3.35 4.41-4.02 7.2-.02.12 0 .13.09.05Zm5.6 12.4 5.59 5.61c.08.08.07.1-.04.08-2.8-.67-5.2-2.01-7.21-4.02a14.92 14.92 0 0 1-4.02-7.21c-.03-.11 0-.13.08-.05l5.6 5.6Zm23.62-5.6a1937.18 1937.18 0 0 0-11.19 11.2c-.08.08-.06.11.05.09 2.8-.68 5.2-2.02 7.2-4.03 2.02-2 3.36-4.41 4.03-7.2.02-.12 0-.13-.09-.05Z" fill="#360100"/><path fill-rule="evenodd" d="M25.4 34.76c-.66.73-1.39 1.39-2.18 1.98l-7.93-7.85c-.1-.1-.1-.16.02-.2h9.95c.06 0 .1-.03.1-.09v-6.12c0-.27-.05-.44-.12-.53-.1-.14-.23-.25-.38-.35-.04-.03-.08-.02-.11.01a199.7 199.7 0 0 1-3.88 3.69c-.65.6-1.14 1.06-1.52 1.44-.14.13-.3.26-.49.26H15.64c-.11 0-.13-.08-.05-.16L27.91 14.6c.05-.05.1-.05.15 0l12.68 12.25c.02.02.02.04.01.07-.01.04-.03.08-.05.08h-9.88c-.02 0-.05-.03-.07-.05a.27.27 0 0 0-.02-.03l-2.6-2.08c-.07-.07-.13-.05-.13.05v3.74h12.69c.03 0 .12.08.1.1l-6.2 6.19c-.03.03-.07.03-.1 0l-1.83-1.77c-.05-.04-.06-.09 0-.14l1.51-1.51c.02-.02.02-.04.01-.06 0-.02-.02-.03-.05-.03H22.51c-.02 0-.03 0-.04.02v.04l2.93 3.3Zm1.35-15.16 1.22-1.22c.02-.03.05-.03.07 0l6.48 6.54v.05c0 .02-.01.03-.04.03h-2.37l-.03-.02-5.33-5.31c-.03-.03-.03-.05 0-.07ZM25.4 34.76c-.66.73-1.39 1.39-2.18 1.98l4.74 4.67c.02.02.04.02.07 0l5.12-5.12c.03-.03.03-.06 0-.08-.63-.61-1.25-1.18-1.88-1.75l-1.35-1.25a.82.82 0 0 0-.58-.21H26.2c-.1 0-.11.02-.04.1l3.2 3.12v.06l-1.31 1.3c-.05.04-.09.04-.13 0l-2.5-2.82Z" fill="#D5B453"/></svg>