<!-- by TradingView --><svg width="56" height="56" viewBox="0 0 56 56" xmlns="http://www.w3.org/2000/svg"><path fill="#F0F3FA" d="M0 0h56v56H0z"/><path d="M40.52 35H6l11-12.04A5.91 5.91 0 0 1 21.36 21h5.48l.34 1.63A6.25 6.25 0 0 1 31.41 21c2.13 0 3.35 1.8 3.69 2.71 1.42-1.94 3.07-2.61 3.72-2.71h10.56c.49 0 .78.56.53 1l-2.8 5h-2.87c-.15.01-.44.07-.44.18 0 .4.85 1.56.85 3.4 0 2.84-2.75 4.13-4.13 4.42Z" fill="#211714"/><path fill-rule="evenodd" d="m10 33 8-8.03A6.68 6.68 0 0 1 22.72 23H26l-2.58 10h-5.03l1.7-6.66L13.46 33H10Zm28.46-10H47l-1.44 2.97h-4.03c-.17.03-.52.17-.52.46 0 .3.17.66.26.8.14.2.33.43.54.69.55.65 1.19 1.42 1.19 2.01 0 2.22-2.11 2.97-3.04 3.07h-6.78c-1.9 0-3.2-2.76-3.6-4h-1.54c-.34 0-.62.3-.62.65 0 .35.28.88.62.88h1.54a6.42 6.42 0 0 0 1.8 2.47h-3.7c-.49 0-2.68-.9-2.68-3.2 0-1.84 1.62-2.56 2.42-2.8H28v-1.2c0-1.93 2-2.8 3.09-2.8.88 0 2.91.37 2.91 2.97 0 2.08-1.14 2.69-1.83 2.86l1.01 1.7h3.6c.2-.03.6-.2.6-.6 0-.4-.25-.72-.37-.83A5.52 5.52 0 0 1 36 25.97c0-2 1.56-2.81 2.46-2.97ZM32 26a1 1 0 1 1-2 0 1 1 0 0 1 2 0Z" fill="url(#a)"/><path d="M17.77 33 19 28l-5 5h3.77Z" fill="url(#b)"/><defs><linearGradient id="a" x1="14.83" y1="40.13" x2="47.19" y2="24.04" gradientUnits="userSpaceOnUse"><stop offset=".13" stop-color="#9FA0A0"/><stop offset=".33" stop-color="#FEFEFE"/><stop offset=".49" stop-color="#D3D3D3"/><stop offset=".67" stop-color="#FEFEFE"/><stop offset=".83" stop-color="#9FA0A0"/></linearGradient><linearGradient id="b" x1="18.75" y1="28.22" x2="14.16" y2="32.94" gradientUnits="userSpaceOnUse"><stop offset=".24" stop-color="#FBDC00"/><stop offset=".52" stop-color="#FAF7D6"/><stop offset=".82" stop-color="#FBDC00"/></linearGradient></defs></svg>