<!-- by TradingView --><svg width="56" height="56" viewBox="0 0 56 56" xmlns="http://www.w3.org/2000/svg"><path fill="#004EA1" d="M0 0h56v56H0z"/><path d="M31.25 20a1.5 1.5 0 1 0 0 3 1.5 1.5 0 0 0 0-3ZM30 24h2.5v10H30V24Zm14 5-.03.54h-7.52c.23 1.39 1.25 2.46 2.62 2.46 1.03 0 1.93-.62 2.41-1.52l2.16.4A5 5 0 1 1 44 29Zm-2.4-1c-.4-1.1-1.12-2-2.53-2-1.41 0-2.06.9-2.46 2h4.99Zm-27.1-2v-5H17v13h-2.5v-6h-6v6H6V21h2.5v5h6Zm11-2v.72a4.78 4.78 0 0 0-2.54-.72A4.98 4.98 0 0 0 18 29a4.98 4.98 0 0 0 7.5 4.31V34H28V24h-2.5Zm-2.41 8c-1.6 0-3.1-1.06-3.09-3 0-1.94 1.49-3 3.09-3 1.6 0 2.92 1.23 2.91 3a2.9 2.9 0 0 1-2.91 3Zm22.41-3.73C45.53 25.63 47.4 23 50 23v2.57c-1.18.16-2 1.26-2 2.6V34h-2.5v-5.73Z" fill="#fff"/></svg>