<!-- by TradingView --><svg width="56" height="56" viewBox="0 0 56 56" xmlns="http://www.w3.org/2000/svg"><path fill="#1F292E" d="M0 0h56v56H0z"/><path fill-rule="evenodd" d="M13.54 31H8v-.34h.5a1 1 0 0 0 .96-1v-9.07h-.92c-.96 0-1.8.66-2.05 1.62l-.2.79H6v-3h9.51v3h-.31l-.11-.65A2.15 2.15 0 0 0 13 20.6H12v9.06c0 .56.48 1.01 1.02 1.01h.52V31Zm7.38-1.36.25.19c-.22.39-.86 1.17-1.7 1.17-1.03 0-1.46-.68-1.47-1.22l-.59.48c-.67.55-1.34.73-1.72.73-.4 0-1.43-.3-1.43-1.49s1.07-2.03 1.81-2.44c.54-.3 1.43-.74 1.93-.98v-1.2c.05-.42-.04-1.24-.95-1.24-1.15 0-1.08.7-.87.86.21.15.4.55.4.87 0 .32-.32.9-1.04.9-.71 0-1.16-.49-1.16-1.01 0-.53.65-2.26 3.4-2.26.8 0 2.22.46 2.22 2.26v4.2c0 .16.26.47.5.47.22 0 .37-.2.42-.29ZM18 26.7c-1.2.67-1.62 1.57-1.62 2.05 0 .5.31.88.8.88.3 0 .62-.23.82-.42V26.7ZM24 23h-3v.36h.1c.38 0 .9.35.9.78v5.76c0 .42-.52.77-.9.77H21V31h3.9v-.33h-.24c-.38 0-.66-.35-.66-.77v-3.13c.21-1.61.71-2.12 1.06-2.12.17 0 .3.11.44.24.19.18.42.4.85.4.6 0 .8-.7.83-1.04.05-.42-.07-1.25-.88-1.25-1.15 0-1.92 1.08-2.3 1.96V23Zm8.63 5c2.56 0 4.64-1.57 4.64-3.5 0-.74-.31-1.43-.83-2H38v-1h-2.98c-.7-.32-1.51-.5-2.39-.5-2.56 0-4.63 1.57-4.63 3.5 0 1.52 1.29 2.82 3.09 3.3-.98.37-2.65 1.39-2.65 2.8 0 1.03.95 1.69 1.43 1.88-.17 0-1.8.36-1.8 1.52 0 1.17 1.75 2 5.1 2 3.34 0 5.14-1.4 5.14-3.46s-2.4-2.42-4.13-2.42H31.8c-.42.03-1.26-.11-1.26-.9 0-.65.86-1.1 1.45-1.25.21.02.42.03.64.03Zm.15-.64c1.2 0 1.53-1.28 1.53-2.86 0-1.58-.45-2.86-1.53-2.86-1.09 0-1.54 1.28-1.54 2.86 0 1.58.33 2.86 1.54 2.86Zm1.71 5.4h-2.67c-.18-.01-1.85-.06-1.85.96 0 1.17 1.63 1.51 2.87 1.51 1.24 0 3.62-.28 3.62-1.4 0-.89-1.31-1.09-1.97-1.08ZM43.98 27h-3.91c0 1.78 1.04 2.76 2.04 2.76.81 0 1.42-.82 1.62-1.23.05.06.18.19.25.19-.26.76-1.18 2.28-2.87 2.28-2.76 0-3.11-2.84-3.11-3.88 0-1.03.52-4.12 3.23-4.12 2.18 0 2.74 2.75 2.75 4Zm-1.9-.5h-2.05c-.06-1 .07-3 1.06-3 1 0 1.08 2 .99 3ZM46 24h-1v-.54A8.8 8.8 0 0 0 47.9 20h.1v3h2v1h-2v4.75c0 .88.29 1.22.78 1.22.39 0 .75-.57.88-.86l.26.25A2.18 2.18 0 0 1 47.78 31c-1.4 0-1.74-1.34-1.78-2.01V24ZM5 33h22v.5H5V33Zm35 0h11v.5H40V33Z" fill="#FDB716"/></svg>