<!-- by TradingView --><svg width="56" height="56" viewBox="0 0 56 56" xmlns="http://www.w3.org/2000/svg"><path fill="#F0F3FA" d="M0 0h56v56H0z"/><circle cx="28" cy="28" r="17" fill="#179B53"/><circle cx="28" cy="28" r="15" fill="#46A766"/><circle cx="28" cy="28" r="10" fill="#74BF86"/><path d="M33.54 17.88a5.78 5.78 0 0 0-1.2 1.89.39.39 0 0 0 .03.34c.12.21.2.44.23.69.02.1 0 .21-.05.31l-2.16 4.02c-.16.3-.06.46.3.5.6.04 3.18.05 4.25.5.73.32 1.06.94 1.06 1.85 0 1.52-1.52 2.88-2.42 4.14a4.85 4.85 0 0 0-.93 2.28.34.34 0 0 0 .23.36c1.06.38 2 .23 3.06.2.53 0 1.05-.03 1.55-.07 1.53 0 2.36.6 2.5 1.81.04.27-.15.55-.55.84a57.15 57.15 0 0 1-8.75 5.17c-.12.06-.21.03-.26-.1a.2.2 0 0 1 0-.13.26.26 0 0 1 .08-.1c.18-.15.28-.25.3-.3.12-.37.02-.43-.3-.2-1.2.82-2.58 1.47-3.73 2.12 1.7-1.84 3.7-3.6 5.47-5.35.1-.1.14-.26.1-.4a.4.4 0 0 0-.32-.26c-.58-.1-1.03-.16-1.34-.2-1.54-.22-2.31-1.79-2.31-3.11 0-1.68 1.33-3.37 1.93-5.09.14-.41.1-.78-.13-1.1l-.18-.24c-.27-.38-.5-.38-.69.02-.2.4-.5 1.12-.93 2.15-.23.55-.47 1.28-.73 2.2a9.26 9.26 0 0 1-.87 2.33c-1.57 2.2-3.55 3.51-5.93 3.53-1.77.02-2.86-1.22-2.85-3.03 0-1.3.68-2.62 1.42-3.67.99-1.4 2.11-2.81 3.36-3.8.8-.62 1.93-1.2 3.42-1.73.7-.24.82-.46 1.16-1.1 1.1-2.12 2.1-4.29 3.01-6.5.15-.36-.23-.67-.58-.6-.2.03-.57.04-.46-.28l.6-1.92c.15-.43-.26-.86-.7-.74a4.3 4.3 0 0 0-2.78 2.4c-.42.87-.3 1.84-.29 3.01 0 .23-.04.46-.14.67a.48.48 0 0 1-.24.24c-.83.4-1.66.58-2.35.57-1.33-.02-2.19-.77-2.98-2.31a2.15 2.15 0 0 1-.45-1.3c0-.37.08-.78.25-1.22l2.51-4.98c.07-.12.24-.22.38-.18.1.03.16.1.16.2-.03 2.17-.12 3.58.8 5.08a.67.67 0 0 0 1 .14c1.1-1 1.92-2.34 3.27-3.06.6-.32 1.18-.37 2.27-.37 1.66 0 2.36.07 2.97.14.74.1 1.25.63 1.2 1.4-.05.74-.67 1.63-1.27 2.34Zm-8.7 13.3c.2-.92.85-1.74 1.15-2.67.02-.07-.03-.15-.1-.16-.03 0-.05 0-.08.02-1.94.97-4.4 2.65-4.96 4.77-.18.73.03 1.86 1.06 1.81 1.9-.09 2.56-2.2 2.93-3.77Z" fill="#F2D861"/></svg>