<!-- by TradingView --><svg width="56" height="56" viewBox="0 0 56 56" xmlns="http://www.w3.org/2000/svg"><path fill="#F0F3FA" d="M0 0h56v56H0z"/><path d="M25.03 20.11c2.93 1.84 6.26 3.6 9.1 5.93 4.54 3.7 5.62 9.06 4.2 14.59a.5.5 0 0 0 .05.31.25.25 0 0 0-.1 0c-.08 0-.13.04-.15.12-.18.78-.32 1.28-.41 1.5-.71 1.8-1.79 3.97-2.67 6.53-.25.75-.46 1.3-.62 1.65-.16.36-.26.34-.3-.04-.09-.74-.12-1.54-.08-2.41.02-.57.2-1.19.53-1.85.76-1.5 1.77-3.27 2.47-5.31.03-.09.02-.14-.03-.16l.12-.2c.9-2.95.68-5.66-.65-8.11-2.18-4.03-6.64-5.86-10.37-8.03a24.08 24.08 0 0 1-6.06-4.93c-3.04-3.49-2.35-6.38-2.3-10.65l.01-.03.04-.02a.1.1 0 0 1 .04 0l.04.02.12.1v.03c0 .96.05 1.93.12 2.9.24 3.1 4.69 6.68 6.9 8.06Z" fill="#C4BFDC"/><path d="M38.22 41c-.05-.12.1-.29.12-.37 1.4-5.53.33-10.89-4.2-14.6-2.85-2.31-6.18-4.08-9.11-5.92a21.1 21.1 0 0 1-5.47-4.8c-.2-.26-.28-.28-.12-.31H41v25.85c0 .03-.01.06-.03.08-.03.02-.05.07-.09.07h-2.66Z" fill="#532B5F"/><path d="M17.86 15c.03.03.06.1.08.2.5 1.83 1.1 3.33 2.13 4.5a24.08 24.08 0 0 0 6.05 4.93c3.73 2.17 8.19 4 10.37 8.03a10.18 10.18 0 0 1 .65 8.1.83.83 0 0 1-.12.24H15.17c-.04 0-.09-.06-.12-.1a.18.18 0 0 1-.05-.12V15.24c0-.16.08-.24.24-.24h2.62Z" fill="#532B5F"/></svg>