<!-- by TradingView --><svg width="56" height="56" viewBox="0 0 56 56" xmlns="http://www.w3.org/2000/svg"><path fill="#F0F3FA" d="M0 0h56v56H0z"/><path d="M30.18 17.31c.05-.31.2-.39.45-.23l.07.05c.25.15.34.39.28.7-.08.44-.19.78-.33 1.03a.29.29 0 0 1-.08.09.24.24 0 0 1-.21.04.26.26 0 0 1-.1-.05c-.24-.21-.31-.56-.22-.9.05-.2.1-.44.14-.73ZM23.19 17.3c.05-.3.2-.38.44-.22l.07.05c.25.16.34.4.28.7-.08.44-.2.79-.34 1.03a.29.29 0 0 1-.07.1.24.24 0 0 1-.21.04.26.26 0 0 1-.1-.07c-.24-.2-.31-.56-.22-.9l.15-.72ZM11.45 22.28c-.02-.15-.07-.16-.17-.04-.36.42-.83.7-1.4.84a.36.36 0 0 0-.18.09.29.29 0 0 0-.08.16l-.2 1.16a.2.2 0 0 1-.05.1.24.24 0 0 1-.09.07.28.28 0 0 1-.23-.01l-.86-.43a.19.19 0 0 1-.1-.11 9.42 9.42 0 0 1 .18-3.35c.11-.5.27-.93.48-1.29a.12.12 0 0 1 .07-.05.14.14 0 0 1 .09 0c.36.11.79.24 1.04.51.3.32.15 1.06.02 1.42-.02.05 0 .08.06.09.39.03.7-.04.92-.19.05-.03.1-.03.15 0 .13.1.24.24.33.4 0 .02.01.03.03.04a.09.09 0 0 0 .07 0c.02 0 .03-.01.03-.02a.8.8 0 0 0 .16-.33c.12-.62.27-1.18.45-1.68.1-.31.47-.78.93-.63.28.1.55.23.8.42.04.03.07.07.08.11.02.05.02.1.01.14l-.37 1.51a55.93 55.93 0 0 1-.5 2.55 3.4 3.4 0 0 1-.31.85l-.4.83a.17.17 0 0 1-.06.08.21.21 0 0 1-.21 0 .17.17 0 0 1-.08-.08l-.1-.2a.17.17 0 0 0-.06-.07.21.21 0 0 0-.2-.02.19.19 0 0 0-.08.06c-.23.32.19.64.24.92 0 .05 0 .1-.02.14a1.56 1.56 0 0 1-.77.73h-.02l-.02-.02v-.01c-.05-.6-.1-1.04 0-1.74.09-.68.22-1.56.4-2.64.02-.13.03-.24.02-.31ZM23.75 24.6c.12.34 0 .47-.34.37l-.67-.13a.75.75 0 0 1-.64-.59 2.6 2.6 0 0 1-.08-.96c.13-1.07.34-2.01.62-2.82.14-.42.41-.56.81-.42l.03.01c.4.11.57.38.5.79a77 77 0 0 0-.33 2.5c-.05.46-.02.88.1 1.25ZM30.76 24.6c.12.34 0 .47-.34.37l-.67-.12a.76.76 0 0 1-.65-.6c-.1-.35-.12-.67-.09-.96.14-1.07.34-2 .62-2.82.14-.42.41-.56.82-.42l.02.01c.4.11.58.37.52.79a80.98 80.98 0 0 0-.33 2.5 3 3 0 0 0 .1 1.25ZM15.25 22.04c.05.1.08.09.1-.02.04-.26.14-.5.28-.7.16-.26.25-.38.53-.3.3.1.51.19.66.28.2.14.24.38.08.6-.21.3-.4.68-.57 1.12-.3.78-.52 1.36-.69 1.74-.08.2-.22.82-.4 1.88-.01 0-.06.21-.14.62a2.21 2.21 0 0 0-.05.7l-.02.02L15 28h-.04c-.64-.2-.93-1.29-.8-1.96.06-.27.02-.62.08-.94.1-.53.22-1.02.35-1.46a.37.37 0 0 0-.05-.33 2.83 2.83 0 0 1-.54-1.67v-.32c.02-.12.08-.2.17-.23.03-.01.12 0 .3.04.54.14.59.49.78.9ZM17.98 30.96c.1.1.19.16.27.17.05 0 .09-.02.12-.07.17-.3.35-.52.53-.66a.6.6 0 0 1 .41-.12c.24.03.38.2.53.36.2.22.21.45.01.68-.57.66-.95 1.1-1.12 1.33-.24.29-.38.56-.43.8a15.06 15.06 0 0 0-.21 1.35.24.24 0 0 1-.07.07.21.21 0 0 1-.2.02c-.39-.16-.67-.3-.78-.8-.09-.4-.05-.86-.05-1.22a4.66 4.66 0 0 1 .41-1.9l-.01-.05a.12.12 0 0 0-.04-.04.1.1 0 0 0-.05-.02c-.4-.05-.73.37-1.01.73-.04.03-.05.09-.04.15.07.84.08.75-.27 1.53a.15.15 0 0 1-.04.06.14.14 0 0 1-.07.03l-.3.03a.15.15 0 0 0-.07.03.17.17 0 0 0-.05.05c-.47.75-1.05 1.31-1.9 1.5-.27.06-.62.02-1.07-.12a2.11 2.11 0 0 1-1.47-1.5 10.7 10.7 0 0 1 .49-2.5c.36-.9 1.24-2.58 2.37-2.84.18-.04.4.02.64.2.41.27.54.67.39 1.2l-.02.03-.03.02h-.04a.07.07 0 0 1-.03-.02l-.44-.48c-.05-.06-.1-.06-.15 0a.83.83 0 0 0-.15.24.44.44 0 0 1-.09.13c-.59.6-1.05 1.34-1.38 2.24a4.5 4.5 0 0 0-.24 1.98c.01.13.1.24.21.28.04.01.08.02.12.01.33-.05.7-.16 1.1-.32.2-.08.44-.23.73-.46.14-.1.79-.74.63-.6-.2.18-.44.34-.7.48-.16.1-.3.11-.44.06-.26-.1-.69-.31-.7-.69a.7.7 0 0 1 .21-.58c.7-.64 1.3-1.08 1.8-1.3.13-.06.62-.2 1.47-.43a.58.58 0 0 1 .34-.01c.42.15 1.27.11.9.87-.05.02-.06.05-.02.1ZM31.05 33.25c.16-.2.51-.63.62-.95.16-.45.23-.8.2-1.05-.04-.4-.23-.62-.58-.67l-.08.01a.16.16 0 0 0-.06.05.77.77 0 0 0-.13.4c0 .05-.03.1-.06.13-.3.25-.78-.06-1.03-.29-.1-.08-.1-.26.02-.33.1-.07.31-.2.63-.37.25-.13.47-.2.67-.18.38.03.79.21 1.23.55.5.4.6 1.36.46 1.94-.32 1.37-.89 2.53-2.29 2.7a.1.1 0 0 0-.06.04.13.13 0 0 0-.04.07l-.48 3.58c0 .07-.04.1-.1.11-.38.04-.64-.11-.77-.46-.12-.29-.18-.51-.19-.67-.06-1.53.1-3.01.48-4.45.14-.53.2-1.13.38-1.68a.21.21 0 0 1 .08-.11.18.18 0 0 1 .13-.03c.32.04.6.2.84.49.29.33.07.74 0 1.09-.05.21 0 .24.13.08ZM26.73 33.78l.08-.03a.4.4 0 0 0 .3-.37c.07-.62.22-1.27.45-1.96.09-.26.27-.34.53-.23l.57.24c.27.11.38.3.33.58-.31 1.76-.53 2.9-.64 3.38-.05.2-.1.35-.17.45a.33.33 0 0 1-.12.12.36.36 0 0 1-.45-.1c-.2-.24-.33-.43-.38-.57-.18-.4-.8-.58-1.22-.72a1.28 1.28 0 0 1-.96-1.11c-.1-.75-.04-1.47.2-2.14.1-.27.3-.37.6-.3l.44.12c.13.03.25.12.33.23.08.11.11.25.09.38l-.28 1.78c-.04.24.06.32.3.25ZM21.81 33.67c.1-.04.19-.1.23-.19a6 6 0 0 0 .41-1.11c.1-.35 0-.45-.16-.81-.08-.17-.05-.34.1-.51a.12.12 0 0 1 .13-.04c.59.16.92.29 1 .37.44.46.58 1.03.41 1.7-.08.34-.22.59-.41.76l-.96.83c-.23.2-.46.3-.68.32-.37.03-.75-.03-1.14-.18a1.19 1.19 0 0 1-.67-.63c-.1-.19-.1-.42 0-.68l.29-.79c.13-.37.34-.69.61-.97.14-.14.45-.1.62-.12.38-.04.6.21.63.53a.7.7 0 0 1-.12.4c-.18.33-.32.64-.42.96-.03.06.05.2.13.16Z" fill="#D30726"/><path d="m38.61 19.66-.04.01-.02.02a.51.51 0 0 1-.42.44c-.3.07-.54.09-.74.06-.69-.12-.25-.8-.28-1.2 0-.12 0-.32.02-.61.06-1 .63-1.26 1.45-1.36.64-.09 1.15.13 1.53.65a.8.8 0 0 1 .15.4c.03.21.03.36 0 .46-.17.65-.28 1.09-.32 1.33-.07.35-.27.6-.44.88a.52.52 0 0 0-.04.45l.25.63c.02.05.05.09.09.12.11.08.28.17.34.32a.8.8 0 0 1 0 .62c-.14.34-.2.53-.2.58 0 .06.04.08.1.08.13 0 .25 0 .36.04.29.1.37.63.67.67.18.02.33 0 .46-.05s.26-.12.42-.2c.24-.13.31-.06.22.21-.12.37-.24.79-.37 1.27-.12.45-.21.89-.27 1.3a21.58 21.58 0 0 0-.13 5.06c.02.28.08.58.17.92.18.68.33 1.17.98 1.32.06.02.11.05.15.1.04.04.06.1.07.16l.23 2.43c0 .07-.02.11-.07.14-.13.07-.31.1-.54.09a4.26 4.26 0 0 1-.88-.14.14.14 0 0 1-.1-.1c-.06-.18-.04-.33.03-.46.08-.13.27-.18.35-.31a.17.17 0 0 0 .03-.14c-.63-2.4-.88-4.85-.74-7.38.03-.51.13-1.16.29-1.94a.23.23 0 0 0-.05-.2.2.2 0 0 0-.08-.05.18.18 0 0 0-.1 0 .82.82 0 0 1-.7-.12 14.16 14.16 0 0 0-.71-.4l-.04.01a.08.08 0 0 0-.03.04 1072.6 1072.6 0 0 0 .6 10.32c0 .1-.04.16-.11.2l-.1.04a.12.12 0 0 1-.12 0 .13.13 0 0 1-.04-.05 6.22 6.22 0 0 1-.54-10.85.86.86 0 0 0-.11-.49c-.26-.48-.55-.8-.57-1.41a34.5 34.5 0 0 1 0-2c0-.05.01-.1.04-.13l.3-.32a.33.33 0 0 0 .02-.4c-.22-.3-.34-.64-.37-1.02 0-.04-.02-.05-.05-.04ZM43.09 19.82c.3-.55.8-1.01 1.4-.74.46.2.8.44 1.04.7.45.52.55 1.12.33 1.8-.08.23-.11.39-.09.47.06.19.13.35.2.49.03.05.04.11.03.17a.24.24 0 0 1-.1.15c-.24.19-.48.45-.72.8-.12.16-.31.27-.58.32A1.78 1.78 0 0 1 42.54 22c0-.1.03-.3.07-.59.01-.06 0-.1-.02-.16-.09-.16-.35-.27-.45-.46-.2-.37-.18-.72.04-1.03.03-.05.07-.06.12-.03.26.18.49.24.68.18a.2.2 0 0 0 .11-.1Z" fill="#1E1715"/><path d="M44.96 24.6c-.31.53-.56 1.29-.85 2.07-.1.25-.27.36-.52.32l-1.23-.19a.42.42 0 0 1-.3-.2.46.46 0 0 1-.04-.36l.53-2.03a.3.3 0 0 1 .13-.17.27.27 0 0 1 .21-.03c.67.2 1.32.3 1.95.26.03 0 .06.01.08.03.03.01.05.04.06.06.03.08.03.17-.02.25ZM45.01 30.9c0 .43-.14.77-.44 1.03a.13.13 0 0 0-.05.1v.91c0 .04-.02.06-.07.06h-.07c-.06 0-.1-.02-.1-.07 0-.32-.01-.77-.1-1.16-.15-.75-.2-1.62-.17-2.6a.1.1 0 0 1 .04-.08.14.14 0 0 1 .09-.02c.4 0 .6.16.6.47.01.23.13.28.38.15l.36-.2c.23-.12.32-.3.25-.53-.05-.2 0-.47.15-.8.07-.16.01-.29-.16-.39h-.02c-.2-.08-.34-.05-.43.1-.17.24-.25.47-.27.67-.02.18-.13.24-.35.17l-.24-.08c-.23-.07-.34-.21-.3-.41.15-1.07.53-2.1 1.13-3.13a.19.19 0 0 1 .1-.08h.13c.21.05.42.15.62.3a3.55 3.55 0 0 1 1.32 1.75c.13.38.4.68.53.98.2.48-.2 1.11-.3 1.42-.34.96-1.35 1.28-2.48 1.32a.17.17 0 0 0-.1.03.11.11 0 0 0-.05.09ZM45.81 38.93c-.6.17-1.39.02-1.88-.45a1.16 1.16 0 0 1-.3-.69 101 101 0 0 0-.62-3.77.3.3 0 0 1 .04-.11.25.25 0 0 1 .08-.08.2.2 0 0 1 .1-.03c.56 0 1.02-.26 1.4-.77a.08.08 0 0 1 .04-.03h.05l.03.04.02.05c.05 1.08.22 2.35.5 3.8.13.6.3.73.6 1.21.15.23.17.47.06.72a.18.18 0 0 1-.12.11Z" fill="#1E1715"/><path fill-rule="evenodd" d="M34.76 21.48a1.49 1.49 0 0 1-.49-.2.13.13 0 0 1-.06-.12 8 8 0 0 1 0-.1c.03-.28.06-.56-.19-.72a1.9 1.9 0 0 0-.75-.34.34.34 0 0 0-.29.1c-.2.21-.48.36-.82.45a.59.59 0 0 0-.34.24 5.32 5.32 0 0 0-.76 1.73c-.09.34-.08.65.04.92.16.39.42.7.77.93.27.18.5.25.7.22.24-.05.48-.15.72-.31a.25.25 0 0 1 .19-.04c.06 0 .12.04.16.1.23.33.6.55 1.1.65.2.04.26-.04.2-.24a3 3 0 0 1-.18-1.61 141.85 141.85 0 0 0 .23-1.44.28.28 0 0 0-.23-.22Zm-1.23.3c.06-.2.21-.37.45-.52.18-.11.19-.24.01-.38l-.18-.13c-.18-.14-.35-.13-.5.04a3.84 3.84 0 0 0-1.18 2.73c0 .25.11.32.33.2l.54-.32a.75.75 0 0 0 .37-.57c.05-.53.1-.88.16-1.05ZM25.16 21.16c-.25.22-.47.43-.34.87.01.05 0 .08-.06.08l-.53.06a.25.25 0 0 0-.2.14.27.27 0 0 0 0 .26c.1.18.15.4.14.68-.01.2 0 .36.03.44.15.39.83.9 1.1 1.08.4.27.87.3 1.38.09.45-.19.73-.44.84-.76a.2.2 0 0 1 .1-.12l.26-.11a.2.2 0 0 0 .11-.24.21.21 0 0 0-.04-.09c-.15-.18-.3-.25-.56-.18-.44.14-1.07.3-1.88.5-.1.02-.15-.02-.16-.13v-.06c-.02-.13.03-.2.15-.2.4-.03.68-.1.81-.23l.54-.43c.7-.5 1.22-1.48.62-2.26a3.42 3.42 0 0 0-.6-.45.51.51 0 0 0-.37-.1c-.4.07-.82.5-1.03.83-.09.13-.2.23-.31.33Zm1.24-.46c.03.25.01.41-.05.5-.1.15-.29.38-.54.68-.06.08-.05.1.04.06.24-.09.46-.27.67-.54.03-.05.05-.1.04-.15l-.08-.55c0-.03-.02-.04-.05-.04h-.01l-.01.01v.03ZM19.12 24.44l.35-.04c.08-.01.11.03.1.11l-.4 1.62c0 .03-.02.06-.04.09a.22.22 0 0 1-.06.06.19.19 0 0 1-.17.01c-.19-.08-.33-.2-.46-.33-.11-.11-.23-.22-.36-.28a5.95 5.95 0 0 0-1.02-.33.09.09 0 0 0-.04.03.11.11 0 0 0-.02.05v.06c.05.17.16.3.32.4l1.41.83c.39.23 1.24.54 1.48-.1.28-.72.48-1.48.6-2.26.03-.16.09-1.02.18-2.59.02-.28 0-.53-.05-.75a.4.4 0 0 0-.15-.24c-.43-.29-.87-.52-1.3-.68-.34-.13-.61-.13-.83-.01-.27.14-.47.4-.59.78a9.35 9.35 0 0 0-.47 1.89c-.1 1.1.53 1.52 1.38 1.67.04.01.09.01.14 0Zm-.08-1.24c.17-.12.33-.34.52-.6.27-.38.23-1.38.19-1.79 0-.01 0-.03-.02-.05a.12.12 0 0 0-.03-.04.1.1 0 0 0-.1-.01.55.55 0 0 0-.32.36 6.51 6.51 0 0 0-.33 2.1l.03.03a.06.06 0 0 0 .06 0Z" fill="#D30726"/></svg>