<!-- by TradingView --><svg width="56" height="56" viewBox="0 0 56 56" xmlns="http://www.w3.org/2000/svg"><path fill="#F0F3FA" d="M0 0h56v56H0z"/><path d="M12 27.6a11.81 11.81 0 0 1 6.34-5.9c3.62-1.53 7.6-1.7 9.9-1.7a23.27 23.27 0 0 1 8.47 1.56 6.3 6.3 0 0 0 .28-2.23C34.46 18.17 30.91 18 28.27 18c-2.64 0-6.14.09-9.16 1.28a14.8 14.8 0 0 0-6.4 4.85c-.4 1.3-.63 2.5-.71 3.46Z" fill="url(#a)"/><path d="M13.14 22.88a13.6 13.6 0 0 1 5.68-4.43 26.5 26.5 0 0 1 9.41-1.71c2.69 0 6.04.48 8.68 1.62a7.19 7.19 0 0 0-.8-2.38c-2.44-.86-5.53-.98-7.88-.98-2.64 0-5.93.44-8.95 1.62a18.88 18.88 0 0 0-3.93 2.08 19.68 19.68 0 0 0-2.2 4.18Z" fill="url(#b)"/><path d="M16.61 17.1c.77-.45 1.57-.88 2.38-1.3a26.03 26.03 0 0 1 9.28-1.8c2.63 0 4.84.22 7.1 1-1.54-1.84-4.05-3-7.06-3-5.37 0-9.14 2.22-11.7 5.1Z" fill="url(#c)"/><path d="M36.2 22.72a26.3 26.3 0 0 0-2.7-.84 22.1 22.1 0 0 0-5.27-.88c-2.2 0-6 .43-9.4 1.86-3 1.27-5.78 3.26-6.8 6.7.08.9.23 1.75.43 2.54 1-3.75 3.48-5.7 6.38-7.04a23.8 23.8 0 0 1 9.43-2.04c3.1 0 5.47.72 6.7 1.2.47-.42.88-.92 1.22-1.5Z" fill="url(#d)"/><path d="M33.76 25.14a6.7 6.7 0 0 1-3.07 1.05l-.5-.01c-2.85-.12-13.92-.6-16.28 9.82-.25-.45-.6-1.2-.94-2.15.53-4.18 3.42-6.25 6.4-7.64a22.21 22.21 0 0 1 8.9-1.83c2.39 0 4.29.4 5.49.76Z" fill="url(#e)"/><path d="M44 28.4a11.81 11.81 0 0 1-6.34 5.9c-3.62 1.53-7.6 1.7-9.9 1.7a23.27 23.27 0 0 1-8.47-1.56 6.3 6.3 0 0 0-.29 2.23C21.54 37.83 25.1 38 27.73 38c2.64 0 6.14-.09 9.16-1.28a14.8 14.8 0 0 0 6.4-4.85c.4-1.3.63-2.5.71-3.46Z" fill="url(#f)"/><path d="M42.86 33.12a13.6 13.6 0 0 1-5.68 4.43 26.5 26.5 0 0 1-9.41 1.71c-2.69 0-6.04-.48-8.68-1.62.14.87.4 1.67.8 2.38 2.44.86 5.53.98 7.88.98 2.64 0 5.93-.44 8.95-1.62a18.87 18.87 0 0 0 3.93-2.08c.95-1.36 1.68-2.8 2.2-4.18Z" fill="url(#g)"/><path d="M39.39 38.9c-.77.45-1.57.88-2.38 1.3a26.03 26.03 0 0 1-9.28 1.8 20.9 20.9 0 0 1-7.1-1c1.54 1.84 4.05 3 7.06 3 5.37 0 9.14-2.22 11.7-5.1Z" fill="url(#h)"/><path d="M19.8 33.28c.6.23 1.55.54 2.7.84 1.62.42 3.55.88 5.27.88 2.2 0 6-.43 9.4-1.86 3-1.27 5.78-3.26 6.8-6.7-.08-.89-.23-1.75-.43-2.54-1 3.75-3.48 5.7-6.38 7.04a23.8 23.8 0 0 1-9.43 2.04c-3.1 0-5.47-.72-6.7-1.2-.47.42-.89.92-1.22 1.5Z" fill="url(#i)"/><path d="M22.24 30.86a6.7 6.7 0 0 1 3.07-1.05l.5.01c2.85.13 13.92.6 16.28-9.82.25.45.6 1.2.94 2.15-.53 4.18-3.42 6.25-6.4 7.64a22.2 22.2 0 0 1-8.9 1.83c-2.39 0-4.29-.4-5.49-.76Z" fill="url(#j)"/><defs><linearGradient id="a" x1="25.81" y1="17.5" x2="34.6" y2="22.78" gradientUnits="userSpaceOnUse"><stop stop-color="#79653B"/><stop offset=".74" stop-color="#D2BB92"/><stop offset="1" stop-color="#D2B98E"/></linearGradient><linearGradient id="b" x1="25.81" y1="17.5" x2="34.6" y2="22.78" gradientUnits="userSpaceOnUse"><stop stop-color="#79653B"/><stop offset=".74" stop-color="#D2BB92"/><stop offset="1" stop-color="#D2B98E"/></linearGradient><linearGradient id="c" x1="25.81" y1="17.5" x2="34.6" y2="22.78" gradientUnits="userSpaceOnUse"><stop stop-color="#79653B"/><stop offset=".74" stop-color="#D2BB92"/></linearGradient><linearGradient id="d" x1="25.81" y1="17.5" x2="34.6" y2="22.78" gradientUnits="userSpaceOnUse"><stop stop-color="#79653B"/><stop offset=".74" stop-color="#D2BB92"/><stop offset="1" stop-color="#D2B98E"/></linearGradient><linearGradient id="e" x1="25.81" y1="17.5" x2="34.6" y2="22.78" gradientUnits="userSpaceOnUse"><stop stop-color="#79653B"/><stop offset=".74" stop-color="#D2BB92"/><stop offset="1" stop-color="#D2B98E"/></linearGradient><linearGradient id="f" x1="30.19" y1="38.5" x2="21.39" y2="33.22" gradientUnits="userSpaceOnUse"><stop stop-color="#79653B"/><stop offset=".74" stop-color="#D2BB92"/><stop offset="1" stop-color="#D2B98E"/></linearGradient><linearGradient id="g" x1="30.19" y1="38.5" x2="21.39" y2="33.22" gradientUnits="userSpaceOnUse"><stop stop-color="#79653B"/><stop offset=".74" stop-color="#D2BB92"/><stop offset="1" stop-color="#D2B98E"/></linearGradient><linearGradient id="h" x1="30.19" y1="38.5" x2="21.39" y2="33.22" gradientUnits="userSpaceOnUse"><stop stop-color="#79653B"/><stop offset=".74" stop-color="#D2BB92"/></linearGradient><linearGradient id="i" x1="30.19" y1="38.5" x2="21.39" y2="33.22" gradientUnits="userSpaceOnUse"><stop stop-color="#79653B"/><stop offset=".74" stop-color="#D2BB92"/><stop offset="1" stop-color="#D2B98E"/></linearGradient><linearGradient id="j" x1="30.19" y1="38.5" x2="21.39" y2="33.22" gradientUnits="userSpaceOnUse"><stop stop-color="#79653B"/><stop offset=".74" stop-color="#D2BB92"/><stop offset="1" stop-color="#D2B98E"/></linearGradient></defs></svg>