<!-- by TradingView --><svg width="56" height="56" viewBox="0 0 56 56" xmlns="http://www.w3.org/2000/svg"><path fill="#F0F3FA" d="M0 0h56v56H0z"/><path d="M32 33.77c-1.05.16-1.98.23-2.94.23-3.44 0-6.06-1.11-6.06-4 0-2.71 2.54-4 6.06-4 .83 0 2 .1 2.94.3v1.14a9.61 9.61 0 0 0-2.8-.44c-1.85 0-3.2 1.15-3.2 2.99C26 31.8 27.39 33 29.2 33c.52 0 1.42-.06 2.8-.36v1.13ZM42 29.48h-4v.99h1.46v2.45c-.23.04-.6.08-.93.08-2.33 0-3.19-1.3-3.19-2.99 0-1.54 1.36-3.01 3.78-3.01.62 0 1.53.2 2.62.53v-1.2a15.28 15.28 0 0 0-3-.33c-3.56 0-6.13 1.25-6.13 4 0 3.02 2.66 4 5.57 4 1.09 0 2.26-.08 3.82-.3v-4.22ZM45.71 26c.42 0 .78.18 1.03.47L51 31.3V26h1v8h-1.71c-.41 0-.78-.18-1.03-.47L45 28.67V34h-1v-8h1.71Z" fill="#004274"/><path d="M8.67 31.97h.02c.03 0 .04 0 .04.03l-.01.04c-1.09.84-2.33 1.12-3.33.6-1.59-.82-1.86-3.38-.58-5.64 1.27-2.23 3.5-3.26 5-2.35.51.3.88.8 1.07 1.4v.02c0 .02-.01.04-.04.04l-.04-.03a2.16 2.16 0 0 0-.76-.84c-1.3-.79-3.25.1-4.35 2.05-1.11 1.97-.88 4.2.5 4.9.74.42 1.64.28 2.48-.22Zm-1.37-.65c.53.27 1.17.2 1.78-.15h.03c.02 0 .04.03.04.04 0 .01 0 .03-.02.04-.83.63-1.77.86-2.52.46-1.2-.63-1.41-2.56-.44-4.29.96-1.7 2.67-2.48 3.8-1.79.22.14.42.33.56.56l.01.02c0 .03 0 .04-.04.04l-.02-.01c-.08-.08-.17-.15-.26-.21-.97-.6-2.45.08-3.27 1.55-.87 1.5-.7 3.18.35 3.74Zm12.42-8.22c-1.06-.74-2.55-.6-3.9.26h-.03c-.03 0-.04-.01-.04-.04l.01-.04c1.67-1.34 3.62-1.7 4.97-.74 1.79 1.27 1.84 4.4.16 7.04-1.71 2.68-4.63 3.96-6.53 2.79a3 3 0 0 1-1.14-1.28v-.01c0-.03.02-.04.04-.04l.04.01c.2.25.44.48.73.65 1.7 1.02 4.3-.1 5.83-2.45 1.5-2.3 1.45-5.04-.14-6.15Zm-3.69.72c1.11-.66 2.32-.75 3.19-.13 1.35.97 1.4 3.35.11 5.36-1.3 2.06-3.52 3.03-4.98 2.14a2.26 2.26 0 0 1-.88-1v-.03c0-.03.02-.04.04-.04l.04.01c.14.17.3.3.49.42 1.28.77 3.23-.06 4.39-1.82 1.12-1.73 1.08-3.77-.1-4.6a2.05 2.05 0 0 0-1.15-.35c-1.12.04-1.76.7-2.27 1.46-.88 1.29-1.73 3.66-1.73 3.66l-1.92 5.36a1.1 1.1 0 0 1-2.14-.38c0-.08.01-.16.03-.23.28-1.8 1.1-2.98 1.45-4.33.1-.38.11-.46.19-.82v-.05a.26.26 0 0 0-.26-.26c-.04 0-.08 0-.12.02l-1.5.65H8.9c-.04 0-.07-.03-.07-.07 0-.03.02-.04.03-.05l1.91-1.4a.34.34 0 0 1 .2-.07h.09l.6.18c.15.04.25.17.25.33l-.01.06-.9 4.35 2.66-5.3c.62-1.27 1.45-2.5 2.38-3.07Z" fill="#DD6816"/></svg>