<!-- by TradingView --><svg width="56" height="56" viewBox="0 0 56 56" xmlns="http://www.w3.org/2000/svg"><path fill="#112667" d="M0 0h56v56H0z"/><path d="M43 40h-1.3c-1.36 0-1.7-.45-1.7-1.78v-3.07c0-1.18-.5-1.7-1.53-1.7-.9 0-1.47.59-1.47 1.65V40h-.95c-1.32 0-2.05-.5-2.05-1.78v-3.07c0-2.51 1.7-4.15 4.55-4.15 3.17 0 4.45 1.64 4.45 4.23V40ZM23 31h1.3c1.36 0 1.7.45 1.7 1.78v3.07c0 1.18.5 1.7 1.53 1.7.9 0 1.47-.59 1.47-1.65V31h.95c1.32 0 2.05.5 2.05 1.78v3.07c0 2.51-1.7 4.15-4.55 4.15-3.17 0-4.45-1.64-4.45-4.23V31ZM22 35.77c0 2.57-1.94 4.23-5.34 4.23-2.81 0-4.66-1.04-4.66-2.83v-1.22h.1c.79.8 2.78 1.26 4.24 1.26 1.63 0 2.15-.38 2.15-1.2 0-.76-.7-1.02-2.65-1.4C13.07 34.09 12 33.1 12 31.2c0-2.22 2.07-4.2 5.3-4.2 3.15 0 4.7 1.39 4.7 2.66v1.32h-.1c-.84-.83-2.73-1.19-4.06-1.19-1.74 0-2.33.45-2.33 1.15 0 .56.24.87 2.6 1.34 2.63.52 3.89 1.56 3.89 3.49ZM44 27.37c0 1.22-.87 1.63-1.89 1.63-1.74 0-3.11-.92-3.11-3.33V19h.81c1.87 0 2.19.57 2.19 2.42v3.74c0 .9.69 1.18 1.6 1.18h.4v1.03ZM37 24.58c0 3.44-1.15 4.42-4.76 4.42-1.91 0-4.24-.86-4.24-3.01 0-2.1 1.83-2.99 5.44-2.99H34v-.57c0-.78-.95-.97-2.3-.97-1.86 0-2.9.41-3.61 1.03H28v-1.15c0-1.17 1.64-2.34 4.47-2.34 2.74 0 4.53 1.33 4.53 4.11v1.47Zm-3 .98V25h-.69c-1.3 0-2.31.16-2.31.8 0 .6.64.91 1.6.91.61 0 1.4-.3 1.4-1.15Z" fill="#fff"/><path d="M30 17.25c0 .8-.9 1.75-1.97 1.75H26v10h-1c-1.07 0-2-.5-2-1.87V19h-4v-1.26c0-.8.69-1.74 2-1.74h9v1.25Z" fill="#fff"/><path d="M40.5 17c.84 0 1.5-.67 1.5-1.5s-.66-1.5-1.5-1.5c-.82 0-1.5.67-1.5 1.5s.68 1.5 1.5 1.5Z" fill="#FF6E24"/></svg>