<!-- by TradingView --><svg width="56" height="56" viewBox="0 0 56 56" xmlns="http://www.w3.org/2000/svg"><path fill="#003C70" d="M0 0h56v56H0z"/><path d="M40.16 21.74c.09.06.62.25 1.6.57.41.13.96.24 1.62.31.85.1 1.66.32 2.43.68a.3.3 0 0 1 .19.3v8.92c0 .09-.04.14-.12.17l-5.14 1.75c-.14.05-.4.06-.75.01-.25-.03-.49 0-.73.07-2.62.8-4.35 1.36-5.19 1.66a.5.5 0 0 0-.36.5c0 .1-.05.17-.15.2l-6.02 2.06a.95.95 0 0 1-.63 0l-5.6-1.99c-.23-.07-.31-.22-.31-.46v-2.57c0-.15-.1-.21-.24-.2-1.78.27-3.8.53-5.53.79-.65.1-1.14.08-1.48-.04l-3.53-1.22c-.15-.05-.22-.15-.22-.3v-9.92c0-.14.07-.23.2-.27l3.79-1.3c.2-.07.42-.1.63-.06l6.21.87c.1.01.17-.03.17-.12V19.5c0-.23.08-.39.3-.46l5.63-2.02c.21-.07.36 0 .45.2.18.38.53.66 1.05.82 1.35.41 2.65.83 3.89 1.24.22.08.47.07.74-.02.33-.1.62-.11.86-.04.57.18 2.61.88 6.13 2.1.08.03.1.08.07.15l-.03.07c-.03.08-.01.15.07.2ZM27.52 38.76l5.7-1.96a.43.43 0 0 0 .32-.45v-8.52a.44.44 0 0 0-.06-.23l-5.97-9.86c-.11-.18-.51-.17-.51.05v20.84c0 .13.4.17.52.13Zm9.72-13.25c.05 0 .08-.02.1-.06a.12.12 0 0 0 0-.13l-3.52-5.83a.12.12 0 0 0-.1-.06h-.67a.11.11 0 0 0-.1.07.12.12 0 0 0 0 .12l3.53 5.83c.02.04.05.06.1.06h.66Zm-2.96-5.95a.1.1 0 0 0-.1.03c-.03.04-.04.08-.01.12l3.32 5.48c.05.09.1.09.17 0l2.18-3.61c.04-.07.03-.12-.05-.15l-5.5-1.87ZM21 22.64c0-.1-.08-.17-.19-.19l-6.63-.88c-.14-.02-.18.05-.18.2v3.86c0 .15.03.21.17.2l6.63-.67c.12-.01.2-.07.2-.19v-2.33Zm21.83.28a.1.1 0 0 0-.06.05l-2.76 4.57a.11.11 0 0 0 0 .12.1.1 0 0 0 .1.06h.32a.1.1 0 0 0 .1-.05l2.85-4.72c.03-.05.03-.09 0-.13-.04-.04-.08-.06-.13-.04l-.42.14Zm.94-.12c-.03-.02-.06 0-.08.03l-3.04 5.02v6.31c0 .07.02.1.09.07l5.04-1.72c.03-.02.05-.04.05-.07v-8.9c0-.03-.02-.05-.05-.06l-2-.68Zm-3.3 5.34c0-.1-.05-.14-.14-.14h-.4c-.09 0-.13.04-.13.14v5.99c0 .1.05.14.15.14h.39c.09 0 .14-.05.14-.14l-.01-6ZM21 31c0-.1-.08-.16-.18-.17l-6.6-.67c-.13-.02-.22.04-.22.17v3.9c0 .13.09.18.22.16l6.6-.86c.1-.02.18-.07.18-.18v-2.35Z" fill="#fff"/></svg>