<!-- by TradingView --><svg width="56" height="56" viewBox="0 0 56 56" xmlns="http://www.w3.org/2000/svg"><path fill="#F0F3FA" d="M0 0h56v56H0z"/><path d="M14.15 24.05c-.72 2.46.28 4.79 2.42 5.47 1.06.34 2.03.06 3.23-.35l.22-.08c1.07-.37 2.43-.84 3.84-.4a7.84 7.84 0 0 1 3 2.06c.83.85 1.5 1.76 1.88 2.35l-1.61 1.1c-.31-.5-.9-1.29-1.62-2.02a6 6 0 0 0-2.22-1.57c-.8-.25-1.6.02-2.89.46-1.17.4-2.7.9-4.4.36-3.38-1.07-4.65-4.7-3.69-7.97.97-3.27 3.97-5.53 7.35-4.46 2.37.75 3.7 3.35 6 4.09L25.1 25c-2.36-.75-3.7-3.35-6-4.09-2.14-.68-4.22.67-4.95 3.14Z" fill="#0594D6"/><path d="M41.65 22.53c-.93-2.4-3.11-3.55-5.19-2.68-2.4 1-2.68 4.35-5.14 5.38-1.98.83-4.49.43-6.46-.23l.59-1.9c1.53.5 3.6.93 5.15.28 2.28-.96 2.64-4.33 5.14-5.38 3.28-1.38 6.46.6 7.7 3.78 2.05 5.27-1.81 8.62-6.6 8.22-1.06-.09-2 .08-3.11.54L32.04 29a12.62 12.62 0 0 1 4.77-1h.03c3.4.28 6.34-1.53 4.81-5.47Z" fill="#B4262C"/><path d="M27.72 13c-2.48 0-4.33 1.67-4.33 4 0 1.33.71 2.39 1.43 3.45.72 1.08 1.46 2.17 1.46 3.55 0 1.73-.8 3.48-1.77 4.96-.22-.1-.43-.2-.65-.26-.49-.16-.97-.2-1.43-.18.95-1.26 1.92-2.94 1.92-4.52 0-1.25-.69-2.28-1.4-3.34-.73-1.1-1.49-2.23-1.49-3.66 0-3.67 2.96-6 6.26-6s6.25 2.33 6.25 6c0 1.74-.56 2.91-1.04 3.92l-.02.03-.13.28c-.59.9-1.2 1.74-2.17 2.15l-.47.19c.08-1.5.6-2.57 1.03-3.49l.02-.03c.48-.99.86-1.8.86-3.05 0-2.33-1.85-4-4.33-4Z" fill="#307E48"/><path d="M19.17 31.45c-.54.42-1.07.95-1.56 1.7-2.87 4.43 1.15 9.82 5.78 9.85 3.85.02 5.84-3.39 5.76-6.93-.02-1.4-.26-2.4.2-3.13.85-1.3 2.79-1.86 4.29-2.3l.45-.14-2.05-1.5c-1.98.6-3.05.98-4.25 2.8-1.04 1.14-.59 2.97-.56 4.03v.24c.05 2.42-1.08 4.93-3.84 4.93-3.14 0-6.18-3.64-4.18-6.73a6.09 6.09 0 0 1 2.36-2.03l.02-.01c.64-.38 1.36-.8 2.05-1.48a2.9 2.9 0 0 0-.35-.14c-.8-.25-1.6.02-2.89.46-.38.13-.79.27-1.23.38Z"/><path d="M31.67 25.06c.04.48.1 1.02.21 1.57.6 2.98 1.49 3.23 3.37 3.77l.3.08c1.2.35 2.75.81 3.88 2.24 2.24 2.84 1.34 6.56-1.24 8.7a6.81 6.81 0 0 1-4.1 1.58c-2.57.06-4.32-1.9-5.3-4.2.26-.86.38-1.79.36-2.73 0-.35-.02-.68-.04-.98-.04-.59-.07-1.08 0-1.5.52.76.6 1.23.71 1.85l.11.56v.03c.48 2.18 1.66 5.06 4.16 4.98.95-.03 2-.4 2.88-1.14 1.94-1.6 2.37-4.1.95-5.9-.77-.97-1.97-1.31-3.1-1.63l-.02-.01c-2.8-.8-4.24-2.4-4.82-5.3-.1-.48-.16-.96-.2-1.4a5.95 5.95 0 0 0 1.89-.57Z" fill="#EAAF2E"/></svg>