<!-- by TradingView --><svg width="56" height="56" viewBox="0 0 56 56" xmlns="http://www.w3.org/2000/svg"><path fill="#F0F3FA" d="M0 0h56v56H0z"/><path d="M26.37 29.63a.4.4 0 0 0 .18-.16.45.45 0 0 0 .06-.24v-1.12c0-.08.04-.11.12-.11h1.14c.09 0 .13.04.13.13v1.5a.3.3 0 0 1-.1.22c-1.54 1.48-4 1.46-5.7.36-1.26-.8-1.77-2.41-.79-3.71 1.2-1.57 3.61-1.77 5.2-1.23.18.06.54.25 1.08.57.09.06.1.12.01.2l-.66.55c-.07.07-.16.07-.24.02-1.03-.7-2.63-.8-3.67-.07-.81.57-1.07 1.67-.43 2.48.86 1.08 2.57 1.08 3.67.6Z"/><path d="M8.37 25h.77c.05 0 .1.01.13.04.05.02.08.06.1.1l3.33 5.61c.1.17.06.25-.12.25h-1.43a.47.47 0 0 1-.43-.25l-.4-.67a.24.24 0 0 0-.2-.13l-1.75-.01H6.63a.25.25 0 0 0-.2.14l-.4.67a.47.47 0 0 1-.43.25H4.18c-.18 0-.23-.08-.13-.25l3.33-5.61a.29.29 0 0 1 .1-.1.26.26 0 0 1 .13-.04h.76Zm-.97 3.4a.1.1 0 0 0 0 .09l.03.03.04.01h1.85l.03-.04a.1.1 0 0 0 0-.09l-.9-1.5a.08.08 0 0 0-.04-.04.07.07 0 0 0-.07 0 .08.08 0 0 0-.03.03l-.9 1.51ZM16.5 29.68c.7 0 2.01-.18 1.95-1.23v-2.36c0-.06 0-.09.06-.09h1.4c.05 0 .08.03.08.09a44.7 44.7 0 0 1-.02 2.97C19.81 30.69 17.63 31 16.5 31c-1.13 0-3.31-.31-3.47-1.95a44.7 44.7 0 0 1-.02-2.97c0-.05.03-.08.08-.08h1.44c.05 0 .07.03.07.09v2.36c-.07 1.05 1.2 1.23 1.9 1.23Z" fill="#C78B5B"/><path d="M38.64 28.5c0 .66-.33 1.3-.92 1.77a3.6 3.6 0 0 1-2.23.73 3.6 3.6 0 0 1-2.22-.73 2.27 2.27 0 0 1-.92-1.77c0-.66.33-1.3.92-1.77a3.6 3.6 0 0 1 2.22-.73c.84 0 1.64.26 2.23.73.59.47.92 1.1.92 1.77Zm-1.4 0c0-.37-.18-.72-.5-.98-.33-.26-.77-.4-1.23-.4-.46 0-.9.14-1.23.4-.32.26-.5.61-.5.98s.18.72.5.98c.33.26.77.4 1.23.4.46 0 .9-.14 1.22-.4.33-.26.51-.61.51-.98ZM47 30.15v1.68c0 .11-.09.17-.2.17h-1.13c-.08 0-.13-.05-.13-.14v-5.7c0-.04.02-.08.05-.11a.14.14 0 0 1 .1-.05h1.16c.02 0 .04 0 .06.02.02 0 .04.02.06.04a.18.18 0 0 1 .04.13v.45c-.01.11 0 .15.09.1.25-.11.52-.45.83-.54a3.51 3.51 0 0 1 2.94.26c.52.31.85.72 1 1.21.52 1.64-.67 2.84-2.05 3.11a3.1 3.1 0 0 1-2.73-.7c-.09-.07-.09-.05-.09.07Zm3.58-1.74c0-.17-.04-.35-.12-.51-.08-.16-.2-.31-.34-.44a1.63 1.63 0 0 0-.52-.29 1.84 1.84 0 0 0-1.73.3c-.15.12-.26.27-.34.43a1.16 1.16 0 0 0 0 1.03c.08.16.2.31.34.43.15.13.33.23.52.3a1.84 1.84 0 0 0 1.73-.3c.15-.12.26-.27.34-.44.08-.16.12-.33.12-.5ZM30.98 27a.44.44 0 0 0-.2.05.51.51 0 0 0-.16.13.62.62 0 0 0-.11.2.7.7 0 0 0-.04.22v3.2c0 .06-.02.1-.05.14a.15.15 0 0 1-.12.06h-1.14c-.1 0-.16-.06-.16-.2v-4.63c0-.04.02-.09.04-.12a.13.13 0 0 1 .1-.05h3.29c.13 0 .2.08.2.23v.53c0 .16-.07.24-.2.24h-1.45ZM42 29.84c.67 0 1.42-.12 1.43-.92.02-.84.02-1.76 0-2.76 0-.1.06-.16.17-.16h1.18c.06 0 .11.02.15.06.04.04.06.1.06.15v2.69C45 30.42 43.38 31 42 31c-1.36 0-2.99-.57-3-2.1V26.2a.2.2 0 0 1 .07-.15c.04-.04.1-.06.15-.06h1.23c.11 0 .17.05.17.16v2.76c.02.8.71.92 1.38.92Z"/></svg>