<!-- by TradingView --><svg width="56" height="56" viewBox="0 0 56 56" xmlns="http://www.w3.org/2000/svg"><path fill="#F0F3FA" d="M0 0h56v56H0z"/><path d="M39 13c3.2.08 4.7 2.74 3.69 5.63L41.3 22h-2.93l1.7-4.2c.2-.58.35-1.59-.28-1.96-2.03-1.2-2.99 2.77-3.27 4.04L34.26 28H37v2h-3.54L29.5 43h-2.86l3.97-13h-1.83l-.58 2.24A4.86 4.86 0 0 1 23.41 36c-1.58 0-2.8-.44-3.55-1.27A5.14 5.14 0 0 1 16.55 36c-2.56 0-4.14-2.07-3.34-4.48L17.56 18h2.88l-4.59 14.22c-.12.66-.15 1.78.7 1.78 1.65 0 2.5-1 2.85-2.55L23.73 18h2.88L22 32.3c-.48 1.3.3 1.7 1.53 1.7s1.73-1.43 2.01-2.43L29.3 18h2.84l-2.62 10h1.88l2.5-8.84C34.54 16.69 36 13 39 13Z" fill="#E61A28"/></svg>