<!-- by TradingView --><svg width="56" height="56" viewBox="0 0 56 56" xmlns="http://www.w3.org/2000/svg"><path fill="#F0F3FA" d="M0 0h56v56H0z"/><path fill-rule="evenodd" d="M48 20.1c-.94.6-3.43 1.76-5.94 1.76-3.12 0-5.55-2.08-5.61-7.86-.36 1.71-2 5.13-5.62 5.13-1.79 0-3.38-1.51-3.96-2.27-.21 1.75-1.6 5.26-5.42 5.26-3.83 0-7.77-3.5-9.26-5.26.3.73.9 2.64.9 4.35 0 2.14-1.03 4.48-7.09 3.9 1.94 1.19 5.8 4.35 5.8 7.47a7.95 7.95 0 0 1-2.48 5.91c1.53-.78 5.13-2.34 7.28-2.34 2.68 0 4.85 2.67 4.85 4.3a9.04 9.04 0 0 1 6.95-3.06c3.73 0 6.37 3.07 7.22 4.61.08-1.47 1.03-4.42 4.15-4.42 3.11 0 6.4 1.78 7.66 2.67-.86-.94-2.56-3.46-2.56-6.11 0-2.65 2.09-3.4 3.13-3.44-1.04-.76-3.13-2.73-3.13-4.55 0-1.82 2.09-4.79 3.13-6.04ZM36.68 32.28c.45.49 1.08.73 1.88.73.72 0 1.35-.2 1.88-.58.53-.39.92-.9 1.17-1.52a5.6 5.6 0 0 0 .39-2.13c0-.9-.22-1.58-.65-2.05-.43-.48-1.07-.72-1.9-.72-1.04 0-1.87.4-2.5 1.22-.63.8-.95 1.8-.95 2.98 0 .9.23 1.6.68 2.07Zm3.2-1.42c-.34.57-.76.85-1.26.85a.86.86 0 0 1-.75-.38 2.04 2.04 0 0 1-.26-1.12c0-.8.17-1.49.51-2.05.34-.58.75-.86 1.22-.86.34 0 .6.12.78.37.19.25.28.6.28 1.09a4 4 0 0 1-.52 2.1ZM33.26 33c-.46 0-.88-.06-1.26-.17-.38-.12-.72-.29-1.03-.52-.3-.23-.54-.55-.71-.93-.17-.4-.26-.85-.26-1.36 0-1.2.36-2.16 1.09-2.9A3.83 3.83 0 0 1 33.96 26c.76 0 1.44.11 2.04.34l-.36 1.4a3.26 3.26 0 0 0-1.63-.41c-.7 0-1.27.24-1.7.72a2.66 2.66 0 0 0-.62 1.82 2 2 0 0 0 .42 1.31c.28.34.68.5 1.2.5.16 0 .33-.02.5-.06l.3-1.41h-1.06l.25-1.22h2.5l-.74 3.75c-.55.17-1.15.26-1.8.26Zm-8.92-7L23 33h1.6l.51-2.87c.12-.65.24-1.44.34-2.36h.02c.11.98.46 2.72 1.06 5.23h2.13L30 26h-1.58l-.54 3.16c-.14.77-.23 1.44-.27 2h-.02A64 64 0 0 0 26.53 26h-2.19ZM20 33l1.33-7H23l-1.33 7H20Zm-4.62-7L14 33h2.65c.37 0 .7-.04 1.03-.11.33-.07.64-.19.94-.34.3-.16.53-.39.7-.68.19-.3.28-.65.28-1.05 0-.8-.43-1.27-1.27-1.42v-.02c.51-.09.92-.29 1.22-.6.3-.32.45-.71.45-1.19 0-.32-.06-.58-.18-.8a1.1 1.1 0 0 0-.53-.49c-.23-.11-.48-.19-.76-.23a6 6 0 0 0-.99-.07h-2.16Zm1.54 2.8h-.4l.3-1.56h.33c.42 0 .71.06.88.16.17.1.25.27.25.52 0 .59-.45.89-1.36.89Zm-.58 2.93h-.4l.35-1.72h.3c.45 0 .78.05.97.16.2.1.3.3.3.55 0 .4-.13.67-.38.8-.26.14-.64.2-1.14.2Z" fill="#00A8E2"/></svg>