<!-- by TradingView --><svg width="56" height="56" viewBox="0 0 56 56" xmlns="http://www.w3.org/2000/svg"><path fill="#F0F3FA" d="M0 0h56v56H0z"/><path d="M29.54 28.46c-.22.8.03 1.2.74 1.19 1.7-.02 3.5.13 5.4.45.29.05.85.2 1.69.45 3.28.97 5.98 4 5.55 7.5-.24 1.98-2.58 4.01-4.57 3.95-.99-.03-1.43-.79-2.07-1.62a6.63 6.63 0 0 1-.73-1.22 62.23 62.23 0 0 0-2.1-4.12c-.6-1.08-1.3-2-2.06-2.73l-1.44-1.18A7.57 7.57 0 0 1 27.7 28c-.6-1.49-1-3.15-1.67-4.7-.92-2.12-2.36-3.96-3.68-5.86a5.34 5.34 0 0 1-.83-4.7c.34-1.2.68-2 2.13-1.68.76.17 1.43.44 2.01.82 1.93 1.26 3.82 2.74 4.81 4.69.28.53.45 1.54.5 3.01.12 2.81-.15 6.03-1.4 8.75a.53.53 0 0 0-.04.12ZM35.75 22c.57 0 1.03-.45 1.03-1s-.46-1-1.03-1c-.57 0-1.03.45-1.03 1s.46 1 1.03 1Z" fill="#FF1A2F"/><path d="M31.65 22.8a.98.98 0 0 0 .79 1.18c.55.1 1.1-.25 1.22-.79a.98.98 0 0 0-.78-1.17c-.56-.1-1.11.25-1.23.79ZM26.48 29.43c-.1-.22-.24-.25-.43-.1a6.9 6.9 0 0 1-3.24 1.5c-2.8.37-4.8.68-6 .95a8.6 8.6 0 0 1-2.47.06 4.68 4.68 0 0 1-3.12-1.46c-.79-.84.71-2.26 1.38-2.7a16.86 16.86 0 0 1 7.55-2.63c1.8-.2 3.35.19 4.6 1.18 1.05.82 1.92 1.78 2.62 2.88.6.94.95 2.13 1.07 3.56.28 3.4-.01 6.81-1.74 9.8-.29.5-.75.97-1.4 1.38a7.06 7.06 0 0 1-5 1.07.75.75 0 0 1-.56-.4 4.76 4.76 0 0 1-.38-3.47 19.24 19.24 0 0 1 6.78-10.7c.23-.18.47-.64.34-.92ZM31.68 28.97a15.3 15.3 0 0 0 1.54-.4c1.4-.46 3.27-.52 4.96-.58.84-.02 1.63-.05 2.3-.12.58-.06 1.2-.28 1.88-.64A2.93 2.93 0 0 0 44 24.58c.04-1.3-.52-2.09-1.66-2.36a8.32 8.32 0 0 0-5.4.55A15.57 15.57 0 0 0 31 27.38c-.22.28-.36.58-.4.9-.02.13.01.24.08.33a.9.9 0 0 0 1 .36ZM35.75 26c0 .55-.46 1-1.03 1-.57 0-1.03-.45-1.03-1s.46-1 1.03-1c.57 0 1.03.45 1.03 1Z" fill="#FF1A2F"/></svg>