<!-- by TradingView --><svg width="56" height="56" viewBox="0 0 56 56" xmlns="http://www.w3.org/2000/svg"><path fill="#F0F3FA" d="M0 0h56v56H0z"/><path d="M18.73 31.84c.45-.64 1.36-1.43 2.03-2.51a12.97 12.97 0 0 0 1.92-6.92c0-1.54.02-3.93.06-7.14a.79.79 0 0 1 .43-.7A23.9 23.9 0 0 1 33.05 12a.37.37 0 0 1 .28.11.38.38 0 0 1 .11.3c-.47 8.85-5.96 16.96-14.48 19.74a.2.2 0 0 1-.23-.3Z" fill="#F8A41D"/><path d="M12 33.06c.05-3.35.9-6.63 2.56-9.83a1.03 1.03 0 0 1 .9-.55h5.56a.5.5 0 0 1 .5.53c-.23 5.07-3.86 9.96-9.24 10.12a.27.27 0 0 1-.28-.27Z" fill="#F8A41D"/><path d="M44 23a21.7 21.7 0 0 1-2.53 9.79 1.03 1.03 0 0 1-.9.55l-5.53.02a.5.5 0 0 1-.5-.53c.21-5.06 3.82-9.93 9.18-10.1A.27.27 0 0 1 44 23Z" fill="#22B058"/><path d="M37.3 24.16c-.45.64-1.36 1.44-2.03 2.51a12.98 12.98 0 0 0-1.9 6.91c0 1.55-.02 3.93-.05 7.14a.79.79 0 0 1-.43.7A23.87 23.87 0 0 1 23.03 44a.38.38 0 0 1-.4-.4c.46-8.85 5.93-16.96 14.44-19.75a.2.2 0 0 1 .23.3Z" fill="#22B058"/></svg>