<!-- by TradingView --><svg width="56" height="56" viewBox="0 0 56 56" xmlns="http://www.w3.org/2000/svg"><path fill="#F0F3FA" d="M0 0h56v56H0z"/><circle cx="14.5" cy="20.5" r="1.5" fill="#00873C"/><path d="M17 20.53c0 .14-.01.27-.03.4 3.3.03 7.6.66 12.18 1.89 4.9 1.32 9.14 3.06 12.04 4.8 1.46.87 2.53 1.7 3.18 2.45.68.78.74 1.27.68 1.51-.07.25-.38.64-1.36.97-.94.32-2.3.5-4 .53-3.39.04-7.94-.58-12.84-1.9a64.6 64.6 0 0 1-2.7-.8l-.45.84c.94.3 1.91.58 2.9.85 9.92 2.67 18.58 2.56 19.35-.24.76-2.8-6.65-7.24-16.56-9.9A52.1 52.1 0 0 0 16.94 20c.04.17.06.35.06.53Zm.68 8.38c-5.04-2.3-8.14-4.88-7.63-6.74.2-.7.88-1.23 1.95-1.59 0 .32.08.63.2.91-.9.32-1.18.69-1.25.92-.06.25 0 .74.68 1.51.65.75 1.72 1.6 3.18 2.46 1 .6 2.15 1.2 3.43 1.77l-.56.76Z" fill="#E64949"/><path d="M43 21.4 40.2 16c-2.95 1.03-7 2.84-10.94 5.1 1.71.46 4.3 1.25 6.32 2.18 2.3-.86 4.8-1.51 7.42-1.88Zm-10.8 3.33-5.84-1.84C20.74 26.56 16 31.07 16 35.42 16 37.5 17.74 41 23.75 41c4.8 0 7.53-.83 8.29-1.24-3.48.38-10.43.13-10.43-3.94 0-3.4 4.23-7.95 10.6-11.1Z" fill="#00873C"/></svg>