<!-- by TradingView --><svg width="56" height="56" viewBox="0 0 56 56" xmlns="http://www.w3.org/2000/svg"><path fill="#F0F3FA" d="M0 0h56v56H0z"/><path d="M41.75 38A16.92 16.92 0 0 0 45 28c0-3.74-1.2-7.2-3.25-10H25v5h10.49c2.85 0 5.15 2.2 5.15 4.92v.16c0 2.72-2.3 4.92-5.15 4.92H25v5h16.75Zm-2.8 3h-21.9C20 43.5 23.83 45 28 45c4.17 0 8-1.5 10.95-4Zm-24.7-3A16.92 16.92 0 0 1 11 28c0-3.58 1.1-6.9 3-9.65v15.72c0 .76.67 1.38 1.5 1.38s1.5-.62 1.5-1.38V18h5v20h-7.75Zm2.8-23h21.9C36 12.5 32.17 11 28 11c-4.17 0-8 1.5-10.95 4Zm18.44 15H25v-4h10.5c1.42 0 2.58.9 2.58 2s-1.16 2-2.59 2Z" fill="#009F40"/></svg>