<!-- by TradingView --><svg width="56" height="56" viewBox="0 0 56 56" xmlns="http://www.w3.org/2000/svg"><path fill="#F0F3FA" d="M0 0h56v56H0z"/><path d="M28.14 15.02a.26.26 0 0 1-.27 0c-.4-.25-.6-.37-.62-.37l-.67-.25c-1.78-.62-4.01-.52-6.7.32a9.95 9.95 0 0 0-5.2 3.54 8.52 8.52 0 0 0-1.64 6.06c.1 1.17.38 2.12.82 2.86a11.68 11.68 0 0 0 6.73 5.43c.77.25 1.33.49 1.67.73.54.4 1.16.6 1.88.64.1 0 .2.04.3.1.58.46 1.2.72 1.84.78a.6.6 0 0 1 .3.12L27.94 36h.14l1.34-1a.6.6 0 0 1 .3-.13 3.51 3.51 0 0 0 1.85-.77c.09-.07.19-.1.3-.1a3.39 3.39 0 0 0 1.88-.65c.34-.24.9-.48 1.67-.73 2.87-.9 5.11-2.7 6.73-5.42.44-.75.71-1.7.82-2.86a8.53 8.53 0 0 0-1.65-6.07 9.95 9.95 0 0 0-5.2-3.54c-2.68-.84-4.9-.94-6.69-.32l-.67.25c-.01 0-.22.12-.61.37Zm-.03 20.43a.4.4 0 0 1-.1.08c-.01 0-.05-.02-.1-.08-.73-.63-.8-1.21-.22-1.73.1-.09.12-.19.08-.3l-.3-.9a.47.47 0 0 0-.28-.3c-.28-.11-.6-.1-.96.06-.12.06-.2.02-.25-.1a4.9 4.9 0 0 1-.29-.85c-.06-.27-.36-.54-.91-.82a.38.38 0 0 0-.35 0c-.82.38-1.05 1.13-.69 2.25.07.2 0 .29-.22.24a.96.96 0 0 1-.71-.67.36.36 0 0 1 .04-.34c.1-.16.22-.27.36-.34.12-.07.2-.16.24-.3.25-.91.11-1.62-.43-2.13-.87-.83-1.68-.79-2.41.11-.31.39-.36.83-.16 1.31.03.07.04.14.04.24 0 .1-.01.18-.04.23-.08.13-.18.15-.3.05a26 26 0 0 1-2.13-1.88c-1.97-2.04-2.8-4.32-2.48-6.84a8.46 8.46 0 0 1 3.04-5.62c1.75-1.47 3.97-2.1 6.64-1.89.4.04.58.19.56.46a.3.3 0 0 0 .13.3c.4.28.54.65.4 1.1-.01.05 0 .1.03.16l.08.12c.08.12.12.25.1.37-.05.73.18 1.36.7 1.9.1.1.1.21.01.33-.15.17-.51.3-1.1.38-1.81.24-3.14-.17-3.97-1.2a1.36 1.36 0 0 1-.32-.67.34.34 0 0 1 .15-.34c.1-.08.23-.1.36-.04.57.23 1.16.3 1.8.23.25-.04.85-.38 1.83-1.05.14-.1.13-.16-.04-.2a3.68 3.68 0 0 1-1.14-.43 2.68 2.68 0 0 0-1.34-.39 3.52 3.52 0 0 0-2.85 1.26c-.43.47-.59.88-.48 1.23a3.42 3.42 0 0 0 2.59 2.34 6.67 6.67 0 0 0 5.29-.6l.14.07a6.67 6.67 0 0 0 5.14.53 3.42 3.42 0 0 0 2.59-2.34c.11-.35-.05-.76-.47-1.23a3.52 3.52 0 0 0-2.86-1.26c-.52.02-.97.15-1.34.39-.28.17-.66.32-1.13.43-.18.04-.19.1-.05.2a6.98 6.98 0 0 0 1.83 1.05c.64.08 1.24 0 1.8-.23a.34.34 0 0 1 .37.04c.1.09.15.2.14.34-.03.21-.14.43-.32.66-.83 1.04-2.16 1.45-3.98 1.2-.58-.07-.94-.2-1.09-.37-.1-.12-.1-.23.01-.34.52-.53.75-1.16.7-1.89a.57.57 0 0 1 .1-.37l.08-.12c.04-.05.04-.11.03-.17-.13-.44 0-.8.4-1.1a.3.3 0 0 0 .13-.3c-.02-.26.16-.41.56-.45 2.68-.21 4.9.42 6.64 1.9a8.46 8.46 0 0 1 3.04 5.61c.32 2.52-.51 4.8-2.48 6.84-.45.46-1.16 1.1-2.13 1.88-.11.1-.21.08-.3-.05a.52.52 0 0 1-.04-.23c0-.1.01-.17.04-.24.2-.48.16-.92-.15-1.3-.74-.9-1.54-.95-2.42-.12-.54.5-.68 1.22-.42 2.14.03.13.11.22.23.29.14.07.26.18.37.34.07.11.08.22.04.34a.96.96 0 0 1-.72.67c-.21.05-.28-.03-.22-.24.36-1.12.13-1.87-.69-2.26a.38.38 0 0 0-.34.01c-.55.28-.86.55-.92.82-.07.3-.16.58-.28.85-.05.12-.14.16-.26.1-.36-.15-.68-.17-.95-.05a.47.47 0 0 0-.28.3l-.3.89a.26.26 0 0 0 .07.3c.58.52.51 1.1-.21 1.73Zm-.98-20.23c.35.24.46.46.32.66s-.38.17-.73-.07c-.35-.25-.45-.47-.32-.66.14-.2.38-.18.73.07Zm1.4.2c.05-.05.19-.13.43-.23.23-.1.39-.14.46-.13.14.01.2.1.17.24-.07.31-.18.5-.35.58-.17.07-.4.01-.66-.17-.12-.08-.13-.18-.04-.29Zm-.05 3.2c-.13.3-.28.45-.47.45-.18 0-.34-.15-.48-.44-.13-.3-.2-.66-.21-1.09 0-.42.05-.78.18-1.08.13-.3.28-.46.47-.46.18 0 .34.14.48.44.13.3.2.66.21 1.08 0 .43-.05.79-.18 1.1Zm-4.94-2c.34.03.5.17.48.43-.02.25-.2.37-.54.34-.35-.03-.5-.17-.49-.42.02-.26.2-.37.55-.34Zm8.95.01c.36-.02.54.1.56.34 0 .25-.16.38-.52.4-.36.02-.54-.1-.55-.34-.01-.25.16-.38.51-.4Zm-9.87 14.76c-.1.23-.24.34-.4.35-.16 0-.3-.11-.4-.34-.12-.22-.18-.5-.19-.81 0-.32.05-.6.16-.82.11-.23.25-.34.4-.34.16 0 .3.1.41.33.12.22.18.5.18.81 0 .32-.04.6-.16.82Zm11.55.01c-.11.22-.25.33-.4.33-.17 0-.3-.12-.4-.34-.11-.23-.16-.5-.16-.82 0-.31.07-.58.19-.8.11-.23.25-.33.4-.33.16 0 .3.11.4.34.11.23.16.5.16.82 0 .31-.07.58-.19.8Zm-2.57.74c-.07.42-.24.6-.52.56-.27-.05-.37-.29-.3-.7.07-.42.25-.61.52-.56.28.05.38.28.3.7ZM25.25 32c.07.4-.04.61-.34.66-.3.06-.47-.11-.54-.5-.07-.4.05-.61.34-.67.3-.05.48.12.54.51Zm1.99 1.34c.1.33.04.53-.22.62-.25.08-.43-.04-.54-.36-.1-.33-.04-.53.21-.62.26-.08.44.04.55.36Zm1.39-.1.72-.26c.1-.03.16 0 .2.1l.01.04c.13.39.04.63-.27.74l-.08.03c-.31.1-.54-.03-.67-.42l-.01-.03c-.03-.1 0-.17.1-.2Zm-2.78.09c.2.24.2.44 0 .59-.19.15-.38.1-.57-.14-.18-.24-.18-.43 0-.59.2-.15.39-.1.57.14Zm4.96.38c-.13.27-.3.35-.53.23-.23-.1-.28-.3-.16-.57.13-.27.31-.35.54-.23.23.1.28.3.15.57Zm4.34-9.53-1.47 1.16c-.14.11-.23.08-.27-.1-.16-.6-.5-.85-1.04-.78a.27.27 0 0 1-.25-.09.26.26 0 0 1-.07-.25l.03-.1c.06-.25.2-.37.41-.35 1.04.09 1.93.06 2.67-.07.25-.05.52-.04.8.03.2.06.46.09.8.1.35 0 .53-.13.54-.39.02-.25-.1-.4-.35-.44-.46-.07-.8-.28-1.03-.61a1.1 1.1 0 0 0-1.08-.53c-.12.01-.18.08-.18.2v.67c0 .16-.07.24-.23.24h-1.55c-.23 0-.31-.12-.23-.34l.12-.33c.07-.2.05-.4-.06-.58a.54.54 0 0 0-.48-.26c-.46 0-.7.33-.73 1 0 .34-.18.5-.52.5h-1.53c-.21 0-.32.11-.32.33v.12c0 .28.14.43.43.43h1.06c.18 0 .24.09.17.26a9.43 9.43 0 0 1-1.85 3.02c-.09.1-.12.2-.08.32.03.13.1.21.22.26l.72.24c.31.1.55.02.7-.28.18-.33.4-.87.68-1.59.1-.28.24-.43.42-.45.16-.01.23.06.23.22v1.88c0 .18.07.34.2.48.13.13.29.2.47.2h3.64c.37 0 .63-.2.78-.6.14-.35.16-.7.07-1.06a.46.46 0 0 0-.32-.34.46.46 0 0 0-.46.08l-.72.57c-.1.07-.2.1-.32.1l-1.54.04c-.27 0-.41-.12-.44-.36a.28.28 0 0 1 .17-.3c.9-.44 1.7-1.03 2.36-1.77.1-.12.09-.25-.05-.37l-.11-.1c-.13-.11-.27-.12-.4 0Zm-12.8-.34.01.02c.05.22.2.33.43.32l4.02-.1c.38-.01.57.18.57.56v.14c0 .37-.2.56-.57.56h-1.67c-.11 0-.19.05-.24.15-.05.1-.04.2.02.28.33.46 1.07.83 2.24 1.12.34.08.4.26.19.53l-.4.53c-.25.33-.56.4-.92.21a8.39 8.39 0 0 1-2.96-2.72c-.12-.16-.27-.21-.45-.16-.2.06-.29.2-.29.39v1.15c0 .14.07.25.2.31.3.14.54.22.75.24.17.01.27.1.3.28l.02.17c.04.29-.09.43-.38.43h-2c-.38 0-.58-.2-.58-.58V25.7c0-.2-.1-.3-.3-.3H19.2c-.3 0-.46-.16-.46-.47v-.4c0-.29.14-.43.42-.43h1.13c.24 0 .35-.12.35-.36v-2.09c0-.15.08-.23.23-.23H22c.12 0 .2.06.26.16.1.18.14.4.1.62 0 .13.03.23.12.3.1.09.2.12.32.09l3.58-.9c.31-.07.5.05.54.38l.03.16c.05.41-.12.65-.53.7l-3.8.56c-.22.03-.31.15-.26.35ZM40 41.65c0 .23-.1.35-.33.35H16.33c-.22 0-.33-.12-.33-.35v-5.3c0-.23.1-.35.33-.35h23.34c.22 0 .33.12.33.35v5.3Zm-11.96-3.69c.42 0 .85.07 1.31.2.14.04.26 0 .35-.1.1-.1.12-.22.07-.35-.02-.05-.09-.12-.22-.21a8.08 8.08 0 0 0-1.5-.75 8.26 8.26 0 0 0-1.5.75c-.14.1-.21.16-.23.21a.32.32 0 0 0 .07.36c.1.1.21.14.35.1.46-.14.9-.2 1.3-.2Zm3.79.02c.2 0 .52.07.95.2.58.17.69 0 .33-.5-.36-.5-.78-.77-1.25-.78-.49 0-.92.23-1.3.72s-.27.66.3.52c.45-.1.77-.16.97-.16Zm-7.35.02c.18 0 .48.04.89.15.54.13.63-.03.28-.48-.35-.46-.74-.68-1.19-.67-.45 0-.84.24-1.17.71-.34.46-.23.62.3.47.4-.12.7-.18.89-.18Zm7.25 2.7-1.1-.4a.27.27 0 0 0-.28.06c-.64.5-1.26.55-1.85.13a.45.45 0 0 1-.2-.37c-.01-.16.05-.29.17-.38l.7-.59c.07-.06.1-.14.09-.24a.34.34 0 0 0-.15-.21.43.43 0 0 0-.25-.08H17.7c-.57 0-.86.3-.86.91v.93c0 .62.3.93.88.93h20.75c.48 0 .72-.25.72-.76v-1.3c0-.51-.24-.77-.73-.76l-4.7.06c-.21 0-.42.02-.63.05a5.5 5.5 0 0 1-1.04.02 5.86 5.86 0 0 0-1.07.02c-.2.03-.4 0-.63-.07a1.97 1.97 0 0 0-.32-.08.4.4 0 0 0-.4.17.46.46 0 0 0-.07.45c.12.34.36.54.73.59.13.02.22-.04.27-.18l.03-.1c.05-.16.16-.22.32-.16l.4.15c.44.18.75.27.94.26.3-.02.6-.2.93-.54.1-.1.18-.09.23.05.1.24.27.48.52.7.09.08.13.18.13.3 0 .13-.05.23-.14.3l-.22.19c-.22.18-.45.18-.68 0l-.59-.48c-.1-.08-.19-.06-.27.04l-.22.32c-.06.08-.14.1-.24.08Zm-2.37-.14c.16.01.25-.14.27-.45.02-.32-.05-.48-.2-.5-.16 0-.25.15-.27.46-.02.31.05.48.2.49Zm-11.11-.32.13.34c.24.58.1.7-.4.33-.1-.07-.3-.27-.57-.61-.1-.12-.1-.23-.02-.36.23-.37.47-.65.71-.83.12-.1.24-.1.36 0l.12.1c.08.05.08.12.03.2l-.32.44a.39.39 0 0 0-.04.4Zm4.12.48.12.03c.33.1.41 0 .24-.32l-.6-1.1c-.2-.35-.35-.34-.47.04l-.37 1.14c-.04.14 0 .2.14.16.3-.07.61-.05.94.05Zm2.4-.37a.8.8 0 0 0-.22.3c-.05.1-.14.14-.25.1l-.93-.34c-.23-.08-.35-.25-.35-.5v-.4c0-.21.1-.28.29-.21l1.36.48c.12.05.23.04.34-.02.2-.12.4-.28.58-.48a.28.28 0 0 1 .25-.1c.1.01.18.07.23.16.04.08.1.19.2.34.2.34.28.56.25.66-.07.2-.12.34-.17.41-.07.12-.16.17-.29.16-.3-.03-.61-.2-.95-.52-.1-.1-.21-.11-.33-.04Zm9.85.27c.09.15.2.17.34.08l.93-.67c.14-.1.16-.22.07-.36l-.02-.04a.93.93 0 0 0-.54-.42.66.66 0 0 0-.6.1l-.06.04a.74.74 0 0 0-.31.55c-.03.25.03.47.16.69l.03.03Zm3.3-.48c0-.16.07-.4.2-.75.02-.07.07-.11.14-.12.08-.01.13.01.18.07.53.7.32 1.15-.63 1.38a.59.59 0 0 1-.36-.03c-.28-.1-.62-.08-1.03.07a.13.13 0 0 1-.15-.03.15.15 0 0 1-.04-.17l.4-1.22c.03-.12.11-.18.22-.19.12 0 .2.04.25.15l.5.95c.2.41.31.37.32-.11Zm-17.21-.77c-.03-.1-.08-.11-.15-.05-.41.3-.8.35-1.17.13a.28.28 0 0 0-.31 0 .32.32 0 0 0-.16.3c0 .33.08.58.24.77.1.1.2.13.33.1.44-.13.92-.08 1.44.16.08.04.11.01.09-.08l-.31-1.33Zm7.34 1.5c.01.02 0 .04-.02.05h-.01a.61.61 0 0 1-.55-.03.88.88 0 0 1-.4-.48l-.04-.11a.92.92 0 0 1-.02-.64c.07-.2.2-.35.38-.42.03-.02.05-.01.06.01l.6 1.62Z" fill="#BA1107"/></svg>