<!-- by TradingView --><svg width="56" height="56" viewBox="0 0 56 56" xmlns="http://www.w3.org/2000/svg"><path fill="#E1D9C8" d="M0 0h56v56H0z"/><path d="M18.6 14h18.8l.94 2.23c-.44.96-1.32 3.28-1.32 4.84 0 1.95.45 3.27.92 4.64.52 1.52 1.06 3.1 1.06 5.68 0 4.93-3.02 7.35-5.29 8.84A34.3 34.3 0 0 1 28 43a34.3 34.3 0 0 1-5.71-2.77c-2.27-1.49-5.29-3.9-5.29-8.84 0-2.58.54-4.16 1.06-5.68.47-1.37.92-2.7.92-4.64 0-1.56-.88-3.88-1.32-4.84l.95-2.23ZM28 41.32c7.7-3.34 9.49-6.3 9.49-9.93 0-1.78-.46-3.36-.92-4.96a18.72 18.72 0 0 1-.97-5.36c0-3.13.76-4.53 1.13-4.84l-.28-.74h-16.9l-.28.74c.37.31 1.13 1.71 1.13 4.84 0 1.99-.5 3.69-.97 5.36-.46 1.6-.92 3.18-.92 4.96 0 3.62 1.79 6.6 9.49 9.93Z" fill="#001A41"/><path fill-rule="evenodd" d="M20 16c.74 1.94 1 4.02 1 6.08 0 1.46-.46 2.57-.9 3.8l-.11.28a13.7 13.7 0 0 0-.99 5.08c0 4.74 4.93 7.7 9 8.76 4.07-1.06 9-4.02 9-8.76a13.7 13.7 0 0 0-1.1-5.36c-.44-1.23-.9-2.34-.9-3.8 0-2.06.26-4.14 1-6.08H20Zm.82.54c.35 1.07.76 3.2.76 5.54 0 1.56-.48 2.74-.93 3.96l-.1.3a13.19 13.19 0 0 0-.97 4.9c0 4.4 4.65 7.19 8.42 8.2 3.77-1.01 8.42-3.8 8.42-8.2 0-2.14-.48-3.58-.96-4.9l-.11-.3c-.45-1.22-.93-2.4-.93-3.96 0-2.34.41-4.47.76-5.54H20.82Z" fill="#001A41"/><path d="M32.57 22.02c-.14-.14-.1-.46.06-.83a.09.09 0 0 1 .05-.06.2.2 0 0 1 .15 0c.03.01.04.03.04.06 0 .19.09.33.24.43 0-.25.12-.13.22-.31 0-.06.03-.17.1-.19h.02l.22.02c.04 0 .06.02.07.05.06.17.14.33.24.47.7.92 1.2 2 1.9 2.91.08.12.13.23.12.33-.01.18-.04.3-.08.36a6.7 6.7 0 0 1-4.26 2.39c-.09 0-.74-.1-.7.1v.02c.12.14.4 1.02.58.97.26-.07.52-.12.8-.14.61-.04 1.25.38 1.47.93.17.43.22.85.16 1.27a4.69 4.69 0 0 1-.26.86c-.13.11-.3.21-.3.39-.02.32.1.59.2.9.05.13.02.29-.09.47-.04.08-.15.21-.32.4-.14.14-.17.32-.07.51.1.2.25.3.47.33.22.02.27-.26.4-.36.15-.12.2-.1.13.1-.01.03-.05.17-.1.43-.04.14-.18.2-.26.32a.04.04 0 0 0 0 .05l.02.02.06-.01a.85.85 0 0 1 .22-.14.54.54 0 0 0 .45-.39c.02-.05.05-.07.1-.07.02 0 .04.01.04.04.01.26-.24.57-.44.7-.1.08-.26.11-.47.1-.45 0-1.4-.13-1.71-.5-.32-.38-.43-1.46-.47-1.95 0-.03-.04-.02-.05 0-.03.33-.26.42-.4.69-.1.22-.3.55-.56 1-.12.2-.2.5-.25.89-.01.11-.1.26-.24.43a.1.1 0 0 1-.07.04c-.41.06-.54.2-.7.56-.03.08-.1.14-.21.2-.34.15-.72.21-1.14.18-.15 0-.13-.21-.1-.32.03-.2.3-.4.47-.5.16-.1.2-.27.28-.42.15-.32.58-.48.84-.7.28-.21.46-.38.52-.73.04-.28.06-.57.03-.9 0-.06-.03-.18-.1-.36a3.08 3.08 0 0 0-1.5-1.5c-.2-.07-.29 0-.36.18-.17.39-.26.78-.25 1.16 0 .1.03.24.1.39v.07a.48.48 0 0 1-.31.38c-.69.27-1.02.69-1.49 1.18a19.45 19.45 0 0 0-.28.27l-.35.07c-.35.05-.26.5-.67.57a7 7 0 0 1-.8.05.65.65 0 0 1-.32-.06.08.08 0 0 1-.03-.13c.2-.22.4-.43.63-.62l.2-.12c.12-.07.2-.18.23-.32.03-.12.12-.2.27-.25.53-.17 1-.46 1.4-.85.22-.2.34-.39.38-.54.05-.28.04-.51-.04-.71-.2-.5-.32-.99-.37-1.44a.88.88 0 0 1 .12-.6l.3-.42c.08-.13.05-.23-.09-.3-.53-.27-1.07-.5-1.57-.85a5.24 5.24 0 0 1-1.65-2.41.11.11 0 0 0-.06-.06c-.24-.13-.57-.22-.83-.33a.3.3 0 0 0-.25 0c-.34.17-.66.76-.84 1.08-.07.13-.06.25.04.36l.06.03c.42.04.43.1.44.5 0 .07.07.12.14.1l.21-.05.08.01c.1.05.16.12.2.21.12.34.16.77.14 1.3 0 .03-.02.05-.05.05a.75.75 0 0 1-.34-.02.08.08 0 0 1-.06-.05.27.27 0 0 0-.28-.17c-.04 0-.05-.01-.06-.04-.05-.37-.26-.56-.65-.57a.29.29 0 0 1-.22-.12c-.12-.15-.31-.38-.42-.6-.19-.42-.3-.85-.3-1.28-.02-.43-.41-.93-.39-1.47 0-.14.03-.22.14-.34.31-.36.65-.7 1.02-1.01.18-.16.35-.4.5-.6.18-.25.43-.42.75-.5l.21.01a.3.3 0 0 1 .17.1 1.78 1.78 0 0 1 .41.72l.04.03c.12.04.22.03.3-.06.28-.28.63-.64.92-.89.29-.23.56-.38.82-.45.47-.12.88-.26 1.23-.43.26-.13.35-.27.31-.54 0-.03-.02-.05-.05-.05-.45-.02-.83.13-1.14.43-.1.1-.18.16-.25.18l-.19.09c-.14.1-.4.01-.56-.03a.62.62 0 0 1-.48-.53.39.39 0 0 1 .12-.38c.17-.18.5-.47.69-.73l.18-.25c.3-.33.4-.69.82-.9a.68.68 0 0 0 .27-.21c.1-.16.13-.34.1-.53-.04-.14.28-.16.35-.24a.07.07 0 0 1 .06-.03c.13 0 .53.04 1.22.1.2.03.4.06.58.12.27.1.52.15.74.17l.85.09c.04 0 .09-.01.14-.04.03-.01.05 0 .05.03v.2a.05.05 0 0 1-.06.04h-.35a.08.08 0 0 0-.07.04c-.07.12-.02.22.12.26.06.01.16.02.3 0 .42-.04-.56.53.15.6.02 0 .03.02.04.04.05.6-.03.53.45.83.09.05.13.13.12.22a.6.6 0 0 1 0 .08c-.03.1-.08.11-.16.06a.87.87 0 0 1-.2-.2.11.11 0 0 0-.07-.04.1.1 0 0 0-.09.02.1.1 0 0 0-.05.07c-.01.14.01.28.07.4.01.04.04.05.07.05.58 0 .53-.17.87-.27.1-.02.2-.02.28.02.06.02.12.09.2.18.2.32.42.64.63.95Zm-2.09.23c-.09-.01-.17.07-.17.16 0 .03 0 .06.02.09.06.08.13.59.22.57h.03c.25-.22.43-.42.53-.61.1-.18.48-.28.37-.54-.04-.1-.1-.2-.17-.33a.24.24 0 0 1-.03-.06l-.03-.16c-.01-.03-.03-.05-.06-.05-.14 0-.27.01-.38.05a.15.15 0 0 0-.11.15c-.01.14 0 .25.11.36.54.53.14.4-.33.37Zm-.18.63c-.25-.15-.46-.11-.63.12-.34.45-.74.81-1.1 1.24-.1.13-.2.26-.2.4l.02.06c.13.22.5-.18.6-.24a6.94 6.94 0 0 0 1.24-.93c.11-.1.18-.2.2-.28.06-.16.01-.28-.13-.37Zm-8.16 1.5a.55.55 0 0 1 .51.17c.03-.01.03-.01 0 0-.03-.1-.13-.35-.26-.35-.16 0-.33.03-.53.09-.11.03-.25.13-.42.29a4.3 4.3 0 0 1-.41.31c-.29.2-.04.45.12.6.15.13.45-.78.52-.87.1-.14.26-.22.47-.25Zm9.87 5.37c.02-.1-.02-.17-.12-.2a.7.7 0 0 0-.27 0 .08.08 0 0 0-.06.03c-.03.06-.07.21-.12.46-.04.2-.31.67-.46.8-.55.54-.31 1.32.1 1.88.17.24.54.1.57-.18.02-.33-.11-.6-.26-.88-.07-.14-.22-.19-.15-.41 0-.05.06-.23.14-.54.04-.16.12-.2.25-.3.45-.31.37-.62.38-.66ZM21.9 42l-.74.52-.83-.37.3.8-.63.62.92-.02.44.75.27-.82.9-.15-.76-.49.12-.84Zm12.18 0 .73.52.83-.37-.3.8.63.62-.92-.02-.44.75-.27-.82-.9-.15.76-.49-.12-.84Zm-3.06 1.94.73.52.83-.37-.3.8.63.62-.92-.02-.44.75-.27-.82-.9-.15.76-.48-.12-.85Zm-6.8.52.74-.52-.13.85.77.48-.91.15-.26.82-.45-.75-.92.02.64-.61-.31-.8.83.36Zm4.1 1.1-.35-.8-.35.8-.92.06.7.55-.22.83.8-.44.78.44-.22-.83.7-.55-.91-.07ZM34 10h.57l2 1.59-.14.02V10H37v2h-.57l-2-1.58.15-.03V12H34v-2ZM30.59 11.17c0 .17.08.3.25.4.16.1.39.15.67.15s.5-.05.66-.15c.16-.1.24-.23.24-.4V10H33v1.17c0 .17-.06.32-.18.44-.12.13-.3.22-.52.3-.22.06-.48.09-.8.09a2.9 2.9 0 0 1-.8-.1 1.2 1.2 0 0 1-.52-.29.63.63 0 0 1-.18-.44V10h.59v1.17ZM29 11.38c0 .2-.1.35-.28.46-.18.1-.43.16-.75.16-.2 0-.38-.02-.54-.07-.16-.05-.3-.12-.43-.21l.26-.25a1.44 1.44 0 0 0 .7.22c.15 0 .27-.03.35-.08a.27.27 0 0 0 .13-.24V10H29v1.38ZM24.5 10c.21 0 .4.03.59.08.18.05.34.12.47.2.14.1.25.2.32.33a.72.72 0 0 1 0 .78c-.07.12-.18.23-.32.32-.13.09-.29.16-.47.21a2.18 2.18 0 0 1-1.66-.21c-.13-.1-.24-.2-.32-.32a.74.74 0 0 1 0-.79c.08-.12.19-.22.32-.31.14-.1.3-.16.48-.21.18-.05.38-.08.59-.08Zm0 .28a1.37 1.37 0 0 0-.72.2.77.77 0 0 0-.22.24.54.54 0 0 0 0 .56.8.8 0 0 0 .23.23 1.35 1.35 0 0 0 1.43 0c.09-.07.16-.14.21-.23a.53.53 0 0 0 0-.56.74.74 0 0 0-.21-.23c-.1-.07-.2-.12-.33-.15a1.31 1.31 0 0 0-.39-.06ZM20.61 10c.26 0 .48.02.66.06.2.04.33.1.43.17.1.08.16.17.16.27 0 .11-.06.2-.18.29-.11.08-.27.13-.48.16.25.02.45.07.59.16.14.1.21.2.21.34 0 .12-.05.21-.16.3-.11.08-.27.14-.47.18-.2.05-.44.07-.72.07H19v-2h1.61Zm-.03.83c.2 0 .35-.02.47-.07.1-.05.17-.12.17-.2 0-.1-.06-.16-.17-.2a1.2 1.2 0 0 0-.47-.07h-.95v.54h.95Zm0 .88c.24 0 .43-.02.57-.07.14-.06.2-.13.2-.23 0-.09-.06-.16-.2-.21a1.6 1.6 0 0 0-.57-.08h-.95v.6h.95Z" fill="#001A41"/></svg>