<!-- by TradingView --><svg width="56" height="56" viewBox="0 0 56 56" xmlns="http://www.w3.org/2000/svg"><path fill="#F0F3FA" d="M0 0h56v56H0z"/><path fill-rule="evenodd" d="M44 15H12v26h32V15Zm-4 2a1 1 0 1 1-2 0 1 1 0 0 1 2 0Zm0 3a1 1 0 1 1-2 0 1 1 0 0 1 2 0Zm-1 4a1 1 0 1 0 0-2 1 1 0 0 0 0 2Zm1 2a1 1 0 1 1-2 0 1 1 0 0 1 2 0Zm-1 4a1 1 0 1 0 0-2 1 1 0 0 0 0 2Zm-15 4h-2v-1.1a.39.39 0 0 0-.38-.4h-4.24a.39.39 0 0 0-.38.4v4.32c0 .21.17.39.38.39h4.24c.2 0 .38-.18.38-.39V36h2v1.84c0 .64-.51 1.16-1.15 1.16h-6.7c-.64 0-1.15-.52-1.15-1.16v-5.68c0-.64.51-1.16 1.15-1.16h6.7c.31 0 .6.13.8.33L23.5 31h2.13l2.22 5.25L30.19 31H31.82l2.33 5.25L36.37 31H40v8h-2v-6.91L34.82 39h-1.25L31 33.74 28.43 39h-1.25L24 32.08V34Z" fill="url(#a)"/><defs><linearGradient id="a" x1="28" y1="15" x2="28" y2="41" gradientUnits="userSpaceOnUse"><stop stop-color="#149CC6"/><stop offset="1" stop-color="#065181"/></linearGradient></defs></svg>