<!-- by TradingView --><svg width="56" height="56" viewBox="0 0 56 56" xmlns="http://www.w3.org/2000/svg"><path fill="#386A69" d="M0 0h56v56H0z"/><path fill-rule="evenodd" d="M18 16.95c0-1.63 1.74-2.95 3.37-2.95h13.26c1.63 0 3.37 1.32 3.37 2.95V18h1.05c1.63 0 2.95 1.74 2.95 3.37v13.26c0 1.63-1.32 3.37-2.95 3.37H38v1.05c0 1.63-1.74 2.95-3.37 2.95H21.37C19.74 42 18 40.68 18 39.05V38h-1.05C15.32 38 14 36.26 14 34.63V21.37c0-1.63 1.32-3.37 2.95-3.37H18v-1.05Zm10.24 12.53c.06-2.13-.85-4.23-2.13-6.05-.06-.08-.04-.12.05-.14.04 0 .08.01.13.05a7.54 7.54 0 0 1 3 6.62l.01.03a.07.07 0 0 0 .07 0 .54.54 0 0 0 .29-.32c1.05-3.03 1.01-6.16-.93-8.72a2.98 2.98 0 0 0-.85-.78c-.2-.12-.34-.07-.41.16l-.06.15a.21.21 0 0 1-.24.15.22.22 0 0 1-.09-.04c-1.33-1-2.71-1.72-4.15-2.17-1.45-.46-3.28-.5-4.54.4-.7.49-1.4 1.64-.32 2.21.47.26.96.3 1.54.36l.26.03c.17.02.26.1.28.24.02.15-.1.28-.21.42-.1.13-.22.26-.23.4-.04.38.14.65.53.83 1.33.6 2.65 1.35 3.96 2.24a.32.32 0 0 1 .04.49l-.26.27a.85.85 0 0 0-.03 1.18c.63.69 1.14 1.37 1.54 2.04.62 1.05.8 1.89.5 3.02-.17.64-.26 1-.25 1.07 0 .05.04.08.09.08.2.02.35-.02.47-.13a5.6 5.6 0 0 0 1.94-4.09Zm6.94 2.1c.08.03.12.09.1.15-.01.06-.04.08-.1.07a5.5 5.5 0 0 0-4.73 1.2c-.17.15-.28.29-.33.43-.04.13 0 .17.13.11a2.3 2.3 0 0 1 2.15.06c.19.11.35.19.5.23.09.02.18.01.26-.03a.35.35 0 0 0 .17-.2l.18-.54a.13.13 0 0 1 .12-.1c.19-.01.37.01.55.08a7.8 7.8 0 0 1 2.4 1.55c.5.42.9.57 1.33-.04.1-.13.25-.18.46-.15.08.01.18.1.3.26.33.46.81.56 1.44.29.3-.13.43-.36.41-.72-.15-2.26-1.25-3.7-3.3-4.33a6.1 6.1 0 0 0-1.32-.23.14.14 0 0 1-.11-.1.14.14 0 0 1 .03-.14c.1-.1.13-.2.07-.29-.03-.05-.1-.08-.2-.1-3.93-.81-7.25 1.05-8.4 4.97-.05.2-.08.33-.08.39.03.3.14.32.34.07l.85-1.03c1.67-2.01 4.25-3.09 6.78-1.87Zm-11 6.07c.64.7 1.98 1.04 2.84 1.02l.8-.02c.2 0 .2.03.01.1-2.1.72-4.11-.02-5.6-1.66-1-1.1-1.4-2.43-1.23-3.99.17-1.56 1.52-2.37 3-2.41.49-.01 1.26.31.84.98a3.2 3.2 0 0 1-.4.45c-.26.26-.37.69-.33 1.28.09 1.36 1.68 2.18 2.96 2.56 1.11.33 2.32-.14 2.55-1.35.04-.18-.04-.3-.13-.44a4.3 4.3 0 0 1-.05-.09c-.09-.14-.05-.19.11-.14.6.15.99.94.97 1.47-.03 1.35-.98 2.4-2.29 2.81-1.46.46-2.65.01-3.95-.7-.28-.15-.32-.1-.1.13Z" fill="#E4EDD4"/></svg>