<!-- by TradingView --><svg width="56" height="56" viewBox="0 0 56 56" xmlns="http://www.w3.org/2000/svg"><path fill="#F0F3FA" d="M0 0h56v56H0z"/><path d="M25.22 12C18.47 12 12 18.47 12 25.22v5.56C12 37.53 18.47 44 25.22 44h5.56C37.53 44 44 37.53 44 30.78v-5.56C44 18.47 37.53 12 30.78 12h-5.56ZM24 20h2v4.61a3.75 3.75 0 0 1 4.8.6c.79.86 1.2 2.13 1.2 3.79 0 3.55-2.45 5-4 5h-4V20Zm2 8v4h2c.45 0 2-.55 2-3 0-1.34-.34-2.07-.68-2.46A1.7 1.7 0 0 0 28 26c-.42 0-.93.22-1.36.64-.42.43-.64.94-.64 1.36Zm-5-6a1 1 0 1 1-2 0 1 1 0 0 1 2 0Zm-2 4h-1v-2h1c.5 0 1.21.14 1.83.59A2.85 2.85 0 0 1 22 27v7h-2v-7c0-.47-.18-.67-.33-.79-.21-.15-.5-.21-.67-.21Zm17-4a1 1 0 1 1-2 0 1 1 0 0 1 2 0Zm-2 4h-1v-2h1c.5 0 1.21.14 1.83.59A2.85 2.85 0 0 1 37 27v7h-2v-7c0-.47-.18-.67-.33-.79-.21-.15-.5-.21-.67-.21Z" fill="url(#a)"/><defs><linearGradient id="a" x1="18.93" y1="17.33" x2="38.13" y2="40.27" gradientUnits="userSpaceOnUse"><stop stop-color="#00AEE0"/><stop offset="1" stop-color="#007CBF"/></linearGradient></defs></svg>