<!-- by TradingView --><svg width="56" height="56" viewBox="0 0 56 56" xmlns="http://www.w3.org/2000/svg"><path fill="#F0F3FA" d="M0 0h56v56H0z"/><path fill="#5E0000" d="M12 15h5v26h-5z"/><path fill="#5E0000" d="M22 26v4h-8v-4zM32.64 15l-3.9 3H14.38v-3h18.27ZM28.82 38 33 41H14v-3h14.82Z"/><path d="M42.79 19.44a13 13 0 1 0 0 17.12v-.64A10.22 10.22 0 0 1 35.5 39C29.7 39 25 34.08 25 28s4.7-11 10.5-11c2.83 0 5.4 1.17 7.29 3.08v-.64Z" fill="#5E0000"/><path fill="#5E0000" d="M45 27v1H25v-1z"/><path fill-rule="evenodd" d="M35.09 36C41.12 36 46 32.42 46 28s-4.88-8-10.91-8-10.91 3.58-10.91 8 4.88 8 10.91 8Zm0-1.2c5.1 0 9.22-3.05 9.22-6.8s-4.13-6.8-9.22-6.8c-5.1 0-9.22 3.05-9.22 6.8s4.13 6.8 9.22 6.8Z" fill="#5E0000"/><path fill="#5E0000" d="M35 21h1v15h-1z"/><path fill-rule="evenodd" d="M35.5 35.83c3.04 0 5.5-3.47 5.5-7.74 0-4.28-2.46-7.75-5.5-7.75S30 23.81 30 28.1c0 4.27 2.46 7.74 5.5 7.74Zm0-.86c2.58 0 4.67-3.08 4.67-6.88s-2.1-6.89-4.67-6.89c-2.58 0-4.67 3.09-4.67 6.89s2.1 6.88 4.67 6.88Z" fill="#5E0000"/><path d="M44.34 31.34c-2.68.42-5.9.66-9.34.66-3.36 0-6.5-.23-9.14-.63.28.4.6.77.98 1.12 2.52.33 5.35.51 8.35.51 2.9 0 5.66-.17 8.13-.48a7.6 7.6 0 0 0 1.02-1.18Zm-1.02-7.86c.39.37.73.76 1.02 1.18A62.25 62.25 0 0 0 35 24c-3.36 0-6.5.23-9.14.63.28-.4.6-.77.98-1.12 2.52-.33 5.35-.51 8.35-.51 2.9 0 5.66.17 8.13.48Z" fill="#5E0000"/></svg>