<!-- by TradingView --><svg width="56" height="56" viewBox="0 0 56 56" xmlns="http://www.w3.org/2000/svg"><path fill="#F0F3FA" d="M0 0h56v56H0z"/><path d="M40.3 34H38l4.17-12h2.65L49 34h-2.3l-3.16-9.54h-.09L40.3 34Zm.07-5h6.25v2h-6.25v-2ZM36 25.37C35.89 24.3 34.66 24 33.59 24c-1 0-2.11.26-2.13 1.3 0 .73.6 1.16 1.28 1.4.24.09.47.16.71.21l1.1.28c1.82.42 3.45 1.48 3.45 3.36 0 2.3-2.17 3.45-4.45 3.45-2.43 0-4.46-1.32-4.55-3.7h2c.1 1.22 1.3 1.7 2.53 1.7 1.1 0 2.33-.32 2.35-1.47-.02-1.03-1.21-1.39-2.11-1.62l-1.33-.34c-1.68-.43-3.13-1.4-3.13-3.13 0-2.18 2.12-3.44 4.3-3.44 2.15 0 4.35 1.24 4.39 3.37h-2ZM28 28c0 3.04-1.9 6-5.5 6S17 31.04 17 28s1.9-6 5.5-6 5.5 2.96 5.5 6Zm-2 0c0-1.9-1.1-4-3.5-4S19 26.1 19 28c0 1.91 1.09 4 3.5 4 2.4 0 3.5-2.1 3.5-4ZM7 34V22h4.62c2.06 0 3.9 1.05 3.9 3.11 0 1.25-.79 2.24-2.1 2.56v.11c1.64.1 2.58 1.56 2.58 2.95C16 32.9 14.06 34 11.88 34H7Zm2-2h2.54c1.12 0 2.24-.25 2.24-1.44 0-1.14-1-1.9-2.19-1.9H9V32Zm0-5h2.35c1.07 0 2-.56 2-1.6 0-1.05-.9-1.4-1.96-1.4H9v3Z"/></svg>