<!-- by TradingView --><svg width="56" height="56" viewBox="0 0 56 56" xmlns="http://www.w3.org/2000/svg"><path fill="#F0F3FA" d="M0 0h56v56H0z"/><path d="m21.47 36 6.03-5-6.03-7.5-6.02 5 6.02 7.5Z" fill="url(#a)"/><path d="m34.53 20-6.03 5 6.03 7.5 6.02-5-6.02-7.5Z" fill="url(#b)"/><path d="M23.48 23c-3.61 3.2-4.18 8.33-4.01 10.5l-4.52-5c-2.41-2.8.33-6.5 2-8L30 9v9c-.5.33-2.9 1.8-6.52 5Z" fill="url(#c)"/><path d="M32.52 33c3.61-3.2 4.18-8.33 4.01-10.5l4.52 5c2.41 2.8-.33 6.5-2 8L26 47v-9c.5-.33 2.9-1.8 6.52-5Z" fill="url(#d)"/><defs><linearGradient id="a" x1="21.47" y1="23.5" x2="21.47" y2="36" gradientUnits="userSpaceOnUse"><stop stop-color="#439DD7"/><stop offset="1" stop-color="#405975"/></linearGradient><linearGradient id="b" x1="34.53" y1="32.5" x2="34.53" y2="20" gradientUnits="userSpaceOnUse"><stop stop-color="#184125"/><stop offset="1" stop-color="#5A913B"/></linearGradient><linearGradient id="c" x1="29.51" y1="14" x2="16.01" y2="29.55" gradientUnits="userSpaceOnUse"><stop stop-color="#3F95CD"/><stop offset="1" stop-color="#1F4E77"/></linearGradient><linearGradient id="d" x1="26.49" y1="42" x2="39.99" y2="26.45" gradientUnits="userSpaceOnUse"><stop stop-color="#64A13D"/><stop offset="1" stop-color="#37873A"/></linearGradient></defs></svg>