<!-- by TradingView --><svg width="56" height="56" viewBox="0 0 56 56" xmlns="http://www.w3.org/2000/svg"><path fill="#F0F3FA" d="M0 0h56v56H0z"/><path d="M40 16.89c-.19-.62-.95-.91-1.71-.89h-3.98a.31.31 0 0 1-.22-.1.31.31 0 0 1-.09-.22v-2.43c0-.17.08-.25.24-.25h5.19c1.07 0 1.8.1 2.16.31.48.28.87.67 1.15 1.19.17.3.26.82.26 1.55v4.9c0 .03-.02.05-.05.05H40v-4.11Z" fill="#3C92C2"/><path d="M34.52 18h2.4c.57 0 1.02.3 1.08.9v1.23c0 .5-.2.87-.75.87h-2.56a.55.55 0 0 1-.35-.12c-.1-.08-.3-.33-.34-.46v-1.97c.01-.12.1-.24.2-.32.08-.08.2-.13.32-.13Z" fill="#3C92C2"/><path fill-rule="evenodd" d="M27.53 34.54c-.36 0-.53.18-.53.54v.4c0 .36.17.52.52.52h4.65c.44 0 .83.24.83.68v1.56c0 .5-.43.76-.93.76h-7.08a.99.99 0 0 1-1-.99l.01-10.2c0-.98-.36-1.62-1.12-1.81H13.2a.19.19 0 0 1-.19-.18v-9.33c0-1.12.13-1.9.4-2.33.45-.78 1.25-1.16 2.39-1.16h16.9c.21 0 .31.1.31.3v2.14c0 .11-.04.22-.12.3l-.07.08c-.06.08-.14.18-.22.18h-4.7c-.48 0-.89.1-.89.56v.7c0 .47.41.74.88.74h4.3c.56 0 .85.24.82.8v1.29c-.04.57-.46.91-1.04.91h-4.24c-.42 0-.72.16-.72.58v.17c0 .43.29.73.72.73h4.46c.38 0 .76.15.82.43v1.76c-.08.55-.6.82-1.12.84h-4.34c-.39 0-.54.18-.54.57v.37c0 .39.15.55.54.55h4.64c.45 0 .82.26.82.72v1.56c0 .53-.4.72-.94.72h-4.48c-.47 0-.58.31-.58.78v.08c0 .44.1.65.53.65h4.65c.44 0 .82.22.82.67v1.54c0 .54-.43.82-.98.82h-4.49ZM23.64 16h-7.29c-.2 0-.35.2-.35.46v1.08c0 .25.16.46.35.46h7.3c.19 0 .35-.2.35-.46v-1.08c0-.25-.16-.46-.36-.46Zm-7.26 5h7.24c.2 0 .38.22.38.49v1.02c0 .27-.17.49-.38.49h-7.24c-.21 0-.38-.22-.38-.49V21.5c0-.27.17-.49.38-.49Z" fill="#3C92C2"/><path d="m37.24 22.41-2.48.02a.75.75 0 0 0-.76.74v1.5c0 .41.36.74.78.74l2.48-.02c.42 0 .74-.33.74-.74v-1.5c0-.41-.34-.74-.76-.74Z" fill="#3C92C2"/><path d="M39.54 36c.3 0 .46-.01.46-.32v-.8c0-.32-.16-.48-.48-.48h-4.79c-.48 0-.73-.25-.73-.74v-1.2c0-.56.28-.84.83-.84h4.59c.4 0 .58-.2.58-.6v-.57c0-.39-.18-.45-.56-.45h-4.67c-.48 0-.77-.37-.77-.86v-1.22c0-.57.33-.92.89-.92h2.86c.13 0 .21.13.25.25v.82c0 .25.42.41.67.41h.87c.27 0 .46-.13.46-.41v-5.62c0-.25.11-.45.4-.45h2.22c.25 0 .38.13.38.39v16.46c0 .1-.05.15-.14.15H34.8c-.53 0-.8-.27-.8-.82v-1.1c0-.62.3-1.08.91-1.08h4.63ZM13.23 27h3.34c.12 0 .23.04.3.12.09.08.13.19.13.3v15c0 .37-.19.56-.56.58-1.59.05-3.43-.5-3.43-2.3V27.22c0-.15.07-.22.22-.22Z" fill="#3C92C2"/><path d="M22 38.23c0 1.23.13 1.77 1.69 1.77H42.8c.11 0 .17.27.18.37.12 1.11-.32 1.9-1.31 2.38-.36.17-1.07.25-2.12.25H18.78c-.52 0-.78-.25-.78-.76V27.62c0-.41.21-.62.64-.62h2.58c.51 0 .78.25.78.74v10.5Z" fill="#3C92C2"/></svg>