<!-- by TradingView --><svg width="56" height="56" viewBox="0 0 56 56" xmlns="http://www.w3.org/2000/svg"><path fill="#F0F3FA" d="M0 0h56v56H0z"/><path d="M21.56 22c.37.02.67.18.91.5a1.69 1.69 0 0 1 .21.88c0 .21 0 .42-.02.63 0 .13 0 .27.04.41a.5.5 0 0 0 .12.24c.07.08.15.11.24.1.17 0 .28-.07.35-.2l.1-.29c.02-.1.05-.2.1-.29l.16-.27.03-.06c.07-.1.18-.23.33-.38l.05-.05c.24-.24.44-.4.58-.49a.96.96 0 0 1 .78-.13.7.7 0 0 1 .15.03c.21.08.38.2.5.37.11.17.16.36.13.58a.88.88 0 0 1-.26.5 17.63 17.63 0 0 1-.44.43c-.07.13-.05.23.06.31l.03.01h.2c.17 0 .3.01.38.03.22.06.4.16.52.33.13.16.19.35.19.57v6.35c0 .12-.02.24-.08.35a.83.83 0 0 1-.6.52l-.4.02h-1.18a1.12 1.12 0 0 1-.54-.14.9.9 0 0 1-.34-.38.77.77 0 0 1 .02-.72c.06-.1.14-.2.24-.27a.91.91 0 0 1 .57-.18c.11 0 .2 0 .24-.02a.34.34 0 0 0 .2-.14c.03-.04.04-.1.04-.18v-3.8c0-.18-.02-.3-.05-.38a.7.7 0 0 0-.25-.3 1.91 1.91 0 0 0-.32-.07h-6.09c-.27 0-.46.1-.56.32a.82.82 0 0 0-.07.36v5.01c0 .16-.03.3-.1.43a.9.9 0 0 1-.69.45c-.15.02-.3 0-.43-.04a1 1 0 0 1-.36-.23.88.88 0 0 1-.14-.2l-.04-.08a7905.72 7905.72 0 0 0-.07-6.76.9.9 0 0 1 .51-.75c.16-.08.4-.1.74-.1.09.01.15-.05.17-.17v-.04a.52.52 0 0 0-.08-.16l-.38-.35a.86.86 0 0 1-.3-.62.77.77 0 0 1 .28-.63c.21-.2.47-.3.76-.3.12 0 .24.04.38.09.13.05.24.12.33.2.3.25.52.47.68.66.1.12.21.3.33.53l.08.26.08.25c.06.11.15.18.28.21.14.03.25 0 .33-.11.07-.1.12-.2.13-.3v-.06l.02-.27a9.89 9.89 0 0 1-.02-.75 1.18 1.18 0 0 1 .57-1.1c.2-.12.42-.18.67-.17Zm12.1 0c.03 0 .05 0 .07.02.45.15.71.46.79.9.02.14.02.3.01.5l-.02.5c0 .04 0 .07.02.1.1.36.35.53.72.52l2.2-.08c.1 0 .26.01.45.05.26.05.46.15.6.3.17.17.25.39.24.65a.77.77 0 0 1-.23.51c-.12.13-.28.22-.49.29-.25.08-.55.11-.9.1-.4-.03-.9-.05-1.52-.07-.12 0-.25.01-.36.05a.75.75 0 0 0-.32.18c-.17.16-.15.4.05.68a34.6 34.6 0 0 0 1.55 1.84c.87.96 1.5 1.63 1.87 2.03.11.13.2.23.24.31.23.45.27.84.12 1.17a.71.71 0 0 1-.57.43c-.33.05-.66-.02-.98-.23a3.9 3.9 0 0 1-.78-.72 309.48 309.48 0 0 1-2.53-2.95.67.67 0 0 0-.22-.16.63.63 0 0 0-.26-.06c-.1 0-.2.02-.27.06a.68.68 0 0 0-.21.17l-.36.4-2.18 2.54c-.29.34-.55.58-.77.72-.32.21-.65.29-.99.23a.71.71 0 0 1-.57-.43c-.15-.32-.1-.71.13-1.16.04-.09.12-.2.24-.31a173.32 173.32 0 0 0 2.66-2.96c.39-.45.64-.76.75-.92.2-.29.22-.52.06-.68a.76.76 0 0 0-.32-.18 1.12 1.12 0 0 0-.37-.05l-1.51.06c-.35.02-.65 0-.9-.09-.21-.06-.38-.16-.5-.28a.77.77 0 0 1-.22-.52.83.83 0 0 1 .22-.65c.15-.15.36-.25.61-.3.2-.03.34-.05.45-.05l2.2.08c.37.01.61-.16.72-.51a.33.33 0 0 0 .02-.1l-.02-.5c-.01-.2 0-.37.01-.5.08-.45.34-.76.79-.91l.07-.02a13.47 13.47 0 0 1 .51 0Zm-20.33.13c.32 0 .53.13.63.38.06.16.1.31.1.44 0 .16-.04.3-.13.43a.87.87 0 0 1-.32.3c-.22.11-.5.17-.83.16a.3.3 0 0 0-.25.12.43.43 0 0 0-.09.28c0 .15.04.27.13.36.08.1.2.15.33.15l.86.01c.24.01.43.06.58.15.15.09.26.22.32.4.04.1.06.28.06.54v.16c0 .19 0 .33-.02.4a.97.97 0 0 1-.12.37.74.74 0 0 1-.35.31.8.8 0 0 1-1.03-.42l-.1-.24c-.04-.07-.1-.1-.19-.13a2.05 2.05 0 0 0-.39-.04 2118.59 2118.59 0 0 1-4.14.01c.12.14.2.28.24.44l.02.02a107.4 107.4 0 0 0 2.69-.03c.54-.02.92-.03 1.14-.02.28 0 .5.12.67.34.09.11.12.29.09.51-.05.37-.2.6-.49.7-.1.03-.27.04-.5.04l-.82-.03a29.58 29.58 0 0 0-3.18.05.18.18 0 0 0-.08.12c-.02.1.01.16.08.2a.4.4 0 0 0 .23.07h.78c.7 0 1.24 0 1.65-.02h1.06c.29.01.57.05.85.1.2.05.35.13.46.26.17.18.23.37.19.56-.03.15-.13.32-.3.5-.26.28-.52.52-.8.73l-.21.2v.03c0 .05.04.08.07.09l1.24.2c.2.02.38.06.55.12a.4.4 0 0 1 .17.11c.15.16.23.35.22.58 0 .16-.04.31-.1.45a.45.45 0 0 1-.25.21.98.98 0 0 1-.33.08c-.15 0-.36 0-.64-.03a9.96 9.96 0 0 1-2.21-.46 2.34 2.34 0 0 0-1.42-.03c-.66.2-1.43.36-2.3.5-.25.04-.47.02-.67-.05a.68.68 0 0 1-.34-.28 1.38 1.38 0 0 1-.12-.24l-.05-.1a.05.05 0 0 0-.03-.03H5.9c-.07.04-.14.1-.2.17-.17.15-.3.27-.4.33-.14.1-.3.15-.47.17a.74.74 0 0 1-.69-.27.63.63 0 0 1-.14-.43c0-.27.1-.5.31-.7l.46-.47a12.22 12.22 0 0 0 1.32-1.8 14.52 14.52 0 0 0 .42-.87.03.03 0 0 0-.03-.02 1 1 0 0 1-.54-.21.66.66 0 0 1-.24-.53c0-.15 0-.26.03-.34.02-.1.08-.2.17-.28a.86.86 0 0 1 .58-.24 7.16 7.16 0 0 1 .47 0c.05-.16.12-.29.23-.4v-.02h-.65c-.3 0-.5.05-.6.12l-.03.02-.15.32-.06.08a.9.9 0 0 1-.13.17.7.7 0 0 1-.32.17.96.96 0 0 1-.48-.03c-.32-.1-.49-.4-.5-.9v-.7a.68.68 0 0 1 .22-.47.93.93 0 0 1 .47-.23c.18-.03.37-.05.58-.06h.56c.2.01.34-.04.42-.14a.27.27 0 0 0 .06-.21.3.3 0 0 0-.11-.2.48.48 0 0 0-.32-.09H5.7a1.35 1.35 0 0 1-.6-.17.86.86 0 0 1-.42-.48.6.6 0 0 1 .04-.48.8.8 0 0 1 .36-.35c.37-.18.84-.25 1.42-.2a7 7 0 0 0 .72.04h1.02c.39 0 .99-.03 1.8-.07h.04a52.46 52.46 0 0 0 2.85-.25l.32-.01h.08Zm35.52 4.8c.3 0 .56.1.77.28.18.15.33.34.45.56l1.16 2.16c.23.43.41.84.56 1.22.16.4.23.7.2.94 0 .08-.03.17-.09.26-.1.18-.24.3-.43.4a.8.8 0 0 1-.67.02c-.2-.08-.37-.22-.55-.42l-.32-.46-.75-1.31-.22-.37a.68.68 0 0 0-.17-.22.37.37 0 0 0-.24-.07c-.17.01-.3.12-.42.32a14.98 14.98 0 0 1-.97 1.53c-.19.24-.38.44-.58.58a.94.94 0 0 1-.19.12.55.55 0 0 1-.21.05.55.55 0 0 1-.21-.05.95.95 0 0 1-.2-.12 3.2 3.2 0 0 1-.58-.58 14.9 14.9 0 0 1-.97-1.53c-.1-.2-.24-.3-.41-.32-.1 0-.18.02-.25.07a.69.69 0 0 0-.17.22 346.09 346.09 0 0 1-.96 1.68 3.5 3.5 0 0 1-.33.46c-.17.2-.35.34-.54.42a.8.8 0 0 1-.67-.02.98.98 0 0 1-.43-.4.63.63 0 0 1-.1-.26c-.02-.23.05-.54.2-.94.15-.38.34-.79.57-1.22l1.16-2.16c.12-.22.27-.4.44-.55.21-.18.47-.28.77-.29.17 0 .32.02.44.08.15.06.3.17.43.32.08.1.2.25.34.47l.04.06a11 11 0 0 0 1.13 1.65c.12.1.22.16.3.16.08 0 .18-.05.3-.16l.23-.27c.2-.27.4-.57.6-.9a12 12 0 0 1 .3-.48c0-.02.02-.04.04-.06.14-.22.26-.38.34-.47.13-.15.27-.26.42-.32a.98.98 0 0 1 .44-.08ZM7.61 30.35a.24.24 0 0 0-.16.09l-.48.6c-.04.08-.06.14-.05.2.02.07.07.11.15.14.16.05.38.06.67.02.29-.04.5-.1.64-.2.07-.04.1-.1.1-.16s-.03-.13-.09-.18a46.5 46.5 0 0 0-.6-.47.24.24 0 0 0-.18-.04Zm11.95-3.2a1.14 1.14 0 0 1 .96.03l.2.08a2.46 2.46 0 0 0 1.25 0l.2-.08.22-.08c.25-.07.5-.05.74.05.17.07.3.19.4.35.1.15.15.33.16.52.02.13 0 .3-.02.52-.05.48-.17.93-.35 1.36a3 3 0 0 1-.45.77c-.2.24-.42.43-.68.55-.27.14-.55.2-.84.2h-.02a1.7 1.7 0 0 1-.84-.2 2.16 2.16 0 0 1-.67-.55c-.17-.2-.32-.46-.45-.77A5.13 5.13 0 0 1 19 28c.02-.19.07-.36.16-.51.1-.17.24-.28.4-.35Zm-9.68 2.68c-.14 0-.24.03-.3.09-.07.06-.05.15.07.27l.5.42a.4.4 0 0 0 .27.08.4.4 0 0 0 .26-.08 29 29 0 0 0 .5-.42c.12-.12.14-.2.07-.28-.06-.05-.16-.08-.3-.08a50.19 50.19 0 0 0-1.07 0ZM20.7 28.4c-.08 0-.13.03-.16.08a.49.49 0 0 0-.04.24v.01c.01.36.1.66.23.9.16.28.36.41.61.42.25 0 .46-.14.61-.4.15-.25.23-.56.24-.91v-.01c0-.11 0-.2-.03-.24-.03-.05-.09-.08-.17-.09-.06 0-.12 0-.19.03-.16.05-.3.08-.45.08-.15 0-.3-.03-.46-.08a.5.5 0 0 0-.2-.03Zm23.26-6.2c.26-.06.53-.03.82.08a10.21 10.21 0 0 1 .58.23 3.41 3.41 0 0 0 1.24.04c.12-.03.32-.1.6-.22.6-.25 1.1-.2 1.5.17.08.08.16.16.22.25l.15.22c.52.7 1.05 1.4 1.58 2.08.06.07.12.17.18.28a1.39 1.39 0 0 1 .18.76.75.75 0 0 1-.38.65.86.86 0 0 1-.44.1 1.7 1.7 0 0 1-1.1-.4c-.12-.1-.28-.28-.47-.52-.32-.4-.7-.92-1.13-1.55-.1-.14-.18-.24-.24-.29-.2-.16-.45-.25-.77-.25-.37 0-.7 0-1 .02-.23 0-.44.08-.62.2a1.1 1.1 0 0 0-.24.26l-.59.8c-.28.37-.55.71-.8 1.01-.26.3-.5.5-.74.6-.26.1-.53.14-.8.1a.7.7 0 0 1-.37-.2.78.78 0 0 1-.22-.46c-.03-.17-.02-.34.04-.5.07-.21.16-.4.29-.57a178.9 178.9 0 0 0 1.83-2.43c.2-.24.42-.4.7-.46ZM8.19 24.06c-.12 0-.23.02-.33.04a.28.28 0 0 0-.2.13.26.26 0 0 0 0 .23c.03.1.07.16.13.2.06.05.14.08.25.1.2.05.38.07.55.06.1 0 .2-.04.3-.09l.01-.02a.35.35 0 0 0 .08-.1c.04-.27-.09-.44-.4-.52a1.54 1.54 0 0 0-.39-.03Zm2.55.02c-.17 0-.3.01-.37.04a.41.41 0 0 0-.26.25c-.04.1-.05.19-.02.26.04.07.1.12.2.13a3.34 3.34 0 0 0 .84-.02.41.41 0 0 0 .26-.25c.04-.1.04-.18.01-.25-.03-.08-.1-.12-.2-.13-.14-.02-.3-.03-.46-.03Z" fill="#006F45"/></svg>