<!-- by TradingView --><svg width="56" height="56" viewBox="0 0 56 56" xmlns="http://www.w3.org/2000/svg"><path fill="url(#a)" d="M0 0h56v56H0z"/><path fill-rule="evenodd" d="M7.97 26.67H6.88c0-.2-.1-.59-.47-.59-.48 0-.98.59-1.28 1.34-.3.75-.09 1.5.5 1.5a.8.8 0 0 0 .78-.53h1.02C7.22 29.08 6.55 30 5.3 30c-1 0-1.28-.95-1.3-1.43C4 26.7 5.04 25 6.67 25c1.3 0 1.4 1.11 1.3 1.67Zm4.54 0h-1.1c0-.2-.1-.59-.5-.59-.48 0-.99.59-1.3 1.34-.3.75-.09 1.5.52 1.5.49 0 .73-.36.79-.53h1.05c-.22.69-.9 1.61-2.18 1.61-1.02 0-1.31-.95-1.33-1.43 0-1.88 1.06-3.57 2.72-3.57 1.33 0 1.44 1.11 1.33 1.67Zm9.93 0h1.1c.11-.56 0-1.67-1.33-1.67-1.66 0-2.72 1.69-2.72 3.57.02.48.31 1.43 1.33 1.43 1.27 0 1.96-.92 2.18-1.61h-1.05a.82.82 0 0 1-.79.53c-.6 0-.83-.75-.52-1.5.31-.75.82-1.34 1.3-1.34.4 0 .5.4.5.59ZM13.5 30h-1.2l1.42-5h1.2l-1.42 5Zm1.06 0 1.29-5h1.95c.4.02 1.22.38 1.22 1.61 0 2.04-1.7 3.1-2.55 3.39h-1.91Zm1.37-1.04.7-2.92h.54c.22.01.66.22.66.94 0 1.2-.92 1.82-1.39 1.98h-.51Zm8.25.92c.76.35 1.81-.1 2.35-1s.36-1.9-.4-2.26c-.75-.35-1.8.1-2.35 1-.54.9-.36 1.9.4 2.26Zm.4-.68c.45.21 1.07-.05 1.38-.58.32-.52.21-1.12-.23-1.32-.44-.21-1.06.05-1.38.58-.31.52-.2 1.12.24 1.32Zm2.3.8 1.09-3.5h1l-.13.42c.22-.21.55-.42.94-.42.73 0 1 .45.74 1.49L29.88 30H28.8l.84-2.32.01-.04c.07-.18.18-.44-.28-.44-.32 0-.6.27-.79.55l-.7 2.25h-1Zm5.4-.5a.55.55 0 0 1-.57-.5h-.83c.01.33.32 1 1.4 1 1.09 0 1.42-.56 1.45-.83 0-.68-.5-.89-.93-1.06-.18-.08-.35-.15-.47-.25-.38-.33-.05-.8.46-.8.4 0 .49.3.5.46H34c0-.62-.5-1.02-1.21-1.02-.72 0-1.35.4-1.35 1.18 0 .6.47.78.89.94.14.06.28.11.39.18.43.26.1.7-.44.7Zm3.05-3-.75 2.4c-.15.6-.26 1.1.84 1.1.5 0 1-.28 1.1-.41l-.11.41h.79l.83-3.5h-.83l-.61 2.25c-.09.16-.34.5-.9.5-.33 0-.32-.34-.27-.5l.67-2.25h-.76Zm12.22 1.1-.53 2.4h-.89l.58-2.25c.05-.16.06-.5-.26-.5-.56 0-.77.34-.85.5L45.04 30h-.84l.88-3.5h.77l-.12.41c.11-.13.49-.41.99-.41 1.2 0 .97.73.84 1.1ZM38.09 30h1.02l1.36-5h-.98l-1.4 5Zm2.76-3-.67 1.9c-.12.37-.13 1.1.74 1.1.42 0 .8-.19.92-.28.12-.24.33-.7.28-.66-.08.05-1.16.44-.87-.5L41.8 27h.5l.25-.5h-.57l.36-1h-.98l-.35 1h-.62l-.26.5h.7Zm2.46-.5-.9 3.5h1.01l.83-3.5h-.94Zm1.31-.95c0 .3-.26.54-.58.54-.33 0-.6-.24-.6-.54 0-.3.27-.55.6-.55.32 0 .58.24.58.55Zm4.13 4.19c.4.17.86.14 1.3-.05-.22.43-.4.66-1.01.66-.6 0-.64-.3-.59-.46h-.8c0 .37.28 1.11 1.39 1.11 1.11 0 1.64-.6 1.77-.9L52 26.83h-.77l-.06.16a1.16 1.16 0 0 0-.47-.37c-.76-.34-1.81.08-2.35.94-.54.87-.36 1.84.4 2.18Zm1.79-1.2.03-.06.12-.3c.1-.4-.05-.77-.39-.92-.45-.2-1.07.05-1.39.56-.31.5-.2 1.08.24 1.28.45.2 1.07-.06 1.39-.56Z" fill="#FFFDFF"/><defs><linearGradient id="a" x1="28" y1="0" x2="28" y2="56" gradientUnits="userSpaceOnUse"><stop stop-color="#338882"/><stop offset="1" stop-color="#115C55"/></linearGradient></defs></svg>