<!-- by TradingView --><svg width="56" height="56" viewBox="0 0 56 56" xmlns="http://www.w3.org/2000/svg"><path fill="#F0F3FA" d="M0 0h56v56H0z"/><path d="M15.7 22c.19 0 .36.1.44.26L22 33h-4l-1.06-2h-6.88L9 33H6l5.36-10.72a.5.5 0 0 1 .45-.28h3.9Zm-2.02 2.83a.2.2 0 0 0-.36 0L11.12 29h4.76l-2.2-4.17ZM26 22h-4v7c0 .5 0 4 6.5 4 5.2 0 6.5-2.67 6.5-4v-5.52a.2.2 0 0 1 .34-.14L40 28l-5 5h4l3-3 2.5 3h5l-5-5.5L50 22h-4l-3 3-2.7-2.7a1 1 0 0 0-.71-.3H32c-.8 0-1 .67-1 1v6c0 .67-.5 2-2.5 2S26 29.67 26 29v-7Z" fill="#003B82"/></svg>