<!-- by TradingView --><svg width="56" height="56" viewBox="0 0 56 56" xmlns="http://www.w3.org/2000/svg"><path fill="#F0F3FA" d="M0 0h56v56H0z"/><path d="M45 28.4c0 2.28-.48 4.45-1.35 6.42-.45-1.83-1.71-3.34-3.26-5.05-.99-1.08-2.66-1.85-4.32-2.62-1.8-.82-3.6-1.65-4.55-2.88-1.47-1.9-1.02-4.6-.56-5.48a5.36 5.36 0 0 0-2.24 4.27c0 1.66.76 2.72 1.6 3.88 1.02 1.43 2.16 3 2.16 6.03 0 5.51-5.22 8.03-10.72 8.03-3.1 0-5.04-.66-6.09-1.3l-.61-.65c5.85-2.88 7.62-6.56 7.77-8.04-2.42 3.9-6.8 5.95-8.93 6.58-.34-.5-.66-1.01-.95-1.54 6.3-1.34 9.32-5.41 10.05-7.32-4 4.16-8.77 5.37-10.9 5.49-.16-.4-.3-.8-.42-1.2 2.86-.32 8.87-2.07 12.35-6.85-3.01 1.97-9.62 5.5-12.88 4.4A16 16 0 0 1 11 28.4C11 19.35 18.61 12 28 12s17 7.35 17 16.4Z" fill="#E4312C"/><path d="M21.74 28.64c.83-.72 1.6-1.54 2.29-2.47a39 39 0 0 1-2.8 1.65 10 10 0 1 1 17.22.5c-.73-.4-1.56-.79-2.38-1.17-1.8-.82-3.6-1.65-4.55-2.88-1.47-1.9-1.02-4.6-.56-5.48a5.36 5.36 0 0 0-2.24 4.27c0 1.66.76 2.72 1.6 3.88.99 1.38 2.09 2.9 2.15 5.75a10.02 10.02 0 0 1-9.92-3.02c.2-.35.35-.66.45-.94-.22.24-.45.46-.68.68-.2-.25-.4-.5-.58-.77Z" fill="#EE802E"/><path d="M35.64 26.96c-1.65-.77-3.24-1.56-4.12-2.7-1.47-1.9-1.02-4.59-.56-5.47a5.36 5.36 0 0 0-2.24 4.27c0 1.66.76 2.72 1.6 3.88.43.6.88 1.23 1.26 1.98a7.5 7.5 0 1 1 4.06-1.97Z" fill="#F8B92B"/><path d="M30.81 22.93a6 6 0 0 1 .15-4.14c-.6.4-1.68 1.46-2.08 3.03a3.5 3.5 0 1 1 1.93 1.11Z" fill="#FFE222"/></svg>