<!-- by TradingView --><svg width="56" height="56" viewBox="0 0 56 56" xmlns="http://www.w3.org/2000/svg"><path fill="#F0F3FA" d="M0 0h56v56H0z"/><path d="m36.1 16.65-4.33-4.28a.52.52 0 0 0-.74 0l-2.28 2.31c-.2.21-.2.54 0 .75l4.34 4.27c.2.2.54.2.74 0l2.28-2.31c.2-.2.2-.54 0-.74ZM34.77 22.44l-9.86-9.8a.5.5 0 0 0-.7 0l-4.3 4.33a.5.5 0 0 0 .01.7l9.86 9.79c.2.19.5.19.7 0l4.3-4.33a.5.5 0 0 0-.01-.7ZM32.8 34.47l-4.02-4.02c-.14-.14-.14-.28 0-.42L38.9 19.89c.13-.14.27-.14.41 0l4.03 4.03c.14.14.14.28 0 .42L33.21 34.47c-.14.14-.27.14-.41 0Z" fill="#073A6E"/><path d="m19.45 22.12-1.91-1.9a.64.64 0 0 0-.9 0l-4.19 4.17a.64.64 0 0 0 0 .91l1.91 1.9c.25.26.66.26.9 0l4.19-4.17a.64.64 0 0 0 0-.9Z" fill="#F08208"/><path d="m26.93 25.73-4.25-4.25a.54.54 0 0 0-.76 0l-9.48 9.47a.54.54 0 0 0 0 .77l4.25 4.25c.21.2.56.2.77 0l9.47-9.48a.54.54 0 0 0 0-.76ZM43.52 31.15l-2.6-2.6a.67.67 0 0 0-.95 0l-4.1 4.1a.67.67 0 0 0 0 .95l2.6 2.6c.27.27.7.27.96 0l4.1-4.1a.67.67 0 0 0 0-.95Z" fill="#073A6E"/><path d="m36.04 39.58-4.22 4.22c-.27.27-.54.27-.81 0l-9.78-9.78c-.27-.28-.27-.55 0-.82l4.22-4.22c.27-.27.54-.27.81 0l9.78 9.78c.28.27.28.54 0 .82Z" fill="#F08208"/><path d="m26.7 40.44-3.96-3.92a.4.4 0 0 0-.57 0l-2.16 2.2a.4.4 0 0 0 0 .56l3.96 3.92a.4.4 0 0 0 .57 0l2.17-2.2a.4.4 0 0 0 0-.56Z" fill="#073A6E"/></svg>