<!-- by TradingView --><svg width="56" height="56" viewBox="0 0 56 56" xmlns="http://www.w3.org/2000/svg"><path fill="#F0F3FA" d="M0 0h56v56H0z"/><path fill-rule="evenodd" d="m11.98 40 9.57-22h10.07l-4.38 10h-6.8l-.94 2.56.94 2.44h4.6l-3.07 7h-10Zm14.55-7-3.05 7h7.67l3.07-7h-7.7Zm8.98 0-3.04 7h3.88l3.07-7h-3.9Zm6.1-5H37.7l4.35-10H46l-4.39 10Zm-5.2 0h-7.7l4.35-10h7.74l-4.4 10Zm-21.15 1.12c-.02.09-3.51-7.37-5.26-11.1h10.15c-1.63 3.66-4.88 11.02-4.9 11.1Zm26.25-.62H20.66l-.73 2 .73 2H39.9l1.61-4ZM27 29v3h2.26v-.5h-1.74v-.8H29v-.5h-1.5v-.72h1.62V29H27Zm-5.63.05 1.14 1.62V32H23v-1.33l1.14-1.62h-.54l-.84 1.22-.84-1.22h-.55Zm3.11 2.88v-2.88h2.13v.46H25v.69h1.49v.48h-1.5v.77h1.76v.48h-2.27ZM32 29.05h.5v2.88H32v-1.31h-1.47v1.31H30v-2.88h.53v1.19H32v-1.2Zm4 1.45a1.5 1.5 0 1 1-3 0 1.5 1.5 0 0 1 3 0Zm-.48 0c0 .63-.46 1.13-1.02 1.13s-1.02-.5-1.02-1.13c0-.62.46-1.13 1.02-1.13s1.02.5 1.02 1.13Zm.99 1.5v-3h1.37c.5 0 .91.42.91.93 0 .52-.4.93-.9.93H37V32h-.5Zm1.39-2.57H37v.97h.9c.24 0 .43-.22.43-.48 0-.27-.2-.5-.43-.5Z" fill="#F04D1B"/></svg>