<!-- by TradingView --><svg width="56" height="56" viewBox="0 0 56 56" xmlns="http://www.w3.org/2000/svg"><path fill="url(#a)" d="M0 0h56v56H0z"/><path d="M23.56 14h16.69c1.46 0 2.58 1.26 2.73 2.66.05.48 0 .97-.17 1.43l-7.81 22A2.8 2.8 0 0 1 32.43 42H15.74c-2.05 0-3.2-2.3-2.56-4.09l7.81-22A2.8 2.8 0 0 1 23.56 14Zm-3.44 11-4.88 13.7c-.2.58.19 1.3.72 1.3h14.49c2.06 0 2.37-.39 2.54-.87l7.68-21.64C41.2 16 40.25 16 38 16c-5.47 0-9.26-.04-14 0-.52 0-.9.58-1.05 1.04L20.12 25Z" fill="#C24343"/><path d="M35.9 24h-4.63c-.06 0-.1.03-.12.09-.12.33-.6 1.85-1.46 4.2-.06.16-.12.28-.16.35-.08.1-.17.19-.29.26a.68.68 0 0 1-.28.08c-.35.03-.61-.08-.8-.33a.9.9 0 0 1-.16-.49c-.01-.15.02-.33.09-.52a6847.98 6847.98 0 0 0 3.71-10.16c.1-.23.26-.37.47-.44a1 1 0 0 1 .39-.04c.3.03.54.21.66.49.1.23.12.46.04.7a2033 2033 0 0 0-1.56 4.34v.01a.03.03 0 0 0 .03.01h4.66l.04-.01.03-.04 1.75-4.82c.04-.12.1-.24.2-.36.13-.17.3-.27.5-.3.22-.03.42.02.61.14.32.2.43.6.35.97a72171.6 72171.6 0 0 0-7.36 20.24c-.05.14-.12.26-.2.36a.64.64 0 0 1-.53.27c-.22 0-.4 0-.56-.1a1.55 1.55 0 0 1-.25-.28c-.2-.25-.15-.65-.04-.95 1.64-4.51 3.29-9.03 4.88-13.57.01-.03.06-.1 0-.1Z" fill="#C24343"/><path d="m27.54 34.87.04-.13 2.82-7.34c.12-.3.21-.5.3-.58.15-.16.36-.23.63-.21.18.02.34.1.47.27.21.27.25.57.12.92a51676.94 51676.94 0 0 1-4.15 10.77.93.93 0 0 1-.09.16c-.12.18-.42.28-.6.26-.36-.03-.58-.25-.65-.64l-1.11-7.18v-.1c0-.08-.03-.1-.08-.04l-.29.28-7.12 6.89c-.2.2-.5.48-.76.7a.52.52 0 0 1-.32.1c-.43.01-.68-.2-.75-.66a.55.55 0 0 1 .02-.27 6409.36 6409.36 0 0 1 7.1-19.63c.1-.2.27-.33.49-.4a.83.83 0 0 1 .76.15.8.8 0 0 1 .32.49c.07.33-.02.64-.13.95a6795.23 6795.23 0 0 0-5.45 15.12l.01.01h.02a4.85 4.85 0 0 1 .3-.29l.2-.19a4960.34 4960.34 0 0 1 5.82-5.47c.26-.2.64-.16.88 0 .18.14.28.3.31.52l.1.63.69 4.5c.02.13.03.27.07.41.02.05.03.04.03 0Z" fill="#C24343"/><defs><linearGradient id="a" x1="10.42" y1="9.71" x2="68.15" y2="76.02" gradientUnits="userSpaceOnUse"><stop stop-color="#1A1E21"/><stop offset="1" stop-color="#06060A"/></linearGradient></defs></svg>