<!-- by TradingView --><svg width="56" height="56" viewBox="0 0 56 56" xmlns="http://www.w3.org/2000/svg"><path fill="#F0F3FA" d="M0 0h56v56H0z"/><path d="M13.1 21H6c0 14 12.18 21 22.33 21 7.32 0 10.82-4.17 11.67-6-18.67 3.6-25.71-8.5-26.9-15Z" fill="#775E19"/><path d="M42.9 21H50c0 14-12.18 21-22.33 21-7.32 0-10.82-4.17-11.67-6 18.67 3.6 25.71-8.5 26.9-15Z" fill="#BC8D0F"/><path d="m14 32 15-15 15 15H14Zm17.57-8c-.16.39-.5.97-1 1.46-.5.48-1.13.85-1.86.85v.49h2.84v.5h-1.8l-.21.39 1.23 1.82h-1.03V30h4.13v-.5h-.61l.84-1.85-.23-.36h-1.8v-.5h2.83l.1-.47a8.33 8.33 0 0 1-1.66-.88 3.3 3.3 0 0 1-1.29-1.43l-.48-.01Zm2.22 2.3h-3.48a5.28 5.28 0 0 0 1.5-1.65c.3.47.76.87 1.23 1.2.25.16.5.32.75.46Zm-3.53 1.48h1.29v1.73h-.13l-1.16-1.73Zm2.42 1.73h-.61v-1.73h1.38l-.77 1.73ZM22.78 24v1.81H22v.5h.77v.98H22v.5h.77v.73c0 .15-.02.37-.08.53-.07.2-.14.21-.17.21v.5c.38 0 .57-.32.65-.54.1-.24.12-.52.12-.7v-.74h1.03V30h.52v-.74h2.06V30h.52v-2.46l-.26-.25h-2.01l.08-.09c.34-.39.6-1.82.64-2.7h1.03v1.56a.3.3 0 0 1-.05.16c-.03.04-.08.09-.2.09v.49c.29 0 .5-.12.62-.29a.77.77 0 0 0 .15-.45v-1.81l-.26-.25h-2.58v.5h.77c-.04.79-.27 2.1-.52 2.39-.27.31-.59.4-.77.4h-.77v-.98h.77v-.5h-.77V24h-.52Zm2.06 4.77v-.99h2.06v.99h-2.06Z" fill="#BC8D0F"/></svg>