<!-- by TradingView --><svg width="56" height="56" viewBox="0 0 56 56" xmlns="http://www.w3.org/2000/svg"><path fill="#F0F3FA" d="M0 0h56v56H0z"/><path d="m33 11 12 13.03-2.7 3.85-4.33-2.68c-.42.39-1.17.8-2.22.8-1.07 0-2-.49-2.51-1.43-.99.17-2.33.66-3.45 1.6-1.1.91-2.1 1.88-2.29 3.83h9.74L41 35.27v4.88L36.77 46l-1.14-6.66.47-.05c1.15-.11 1.9-1 1.9-2.19a2 2 0 0 0-1.88-2.1H35v1.8l-.69 3.05L29.5 43l1.19-5 .35.01c.69.02.96-.61.96-1.26V35h-2.58v-1h6.76A3.09 3.09 0 0 1 39 37.1a3.01 3.01 0 0 1-2.35 3.02l.61 3.56L40 39.86v-4.28L36.8 31H26.5c0-1.76-.59-3-2.5-3v-1c1.63 0 2.46.86 3 1.86a6.9 6.9 0 0 1 2.24-3.4 8.5 8.5 0 0 1 3.66-1.76 4 4 0 0 1-.12-.95h.88c0 1.23.78 2.25 2.1 2.25.88 0 1.53-.28 2.01-.98l4.3 2.66 1.78-2.56L34 13.22V17l-1-2.45V11Zm0 24v1.75c0 1.02-.6 1.9-1.63 2.06l-.51 2.32 2.69-1.88.45-2.56V35h-1Z" fill="#00BAE0"/><path d="M30.78 13.33c1.8.94 3.07 2.77 3.22 3.67-.05-.81-.81-2.48-1.32-3.41A4.37 4.37 0 0 0 30 12.06h-1.5c.5.28 1.08.97 1.3 1.27a5.21 5.21 0 0 0-2.67-.66c-1.7 0-3.12.81-4.97.81-1.48 0-2.6-.34-2.97-.5a5.38 5.38 0 0 0 4.09 3.25c-.2.12-.92.36-2.24.36-2.26 0-4.1-1-4.73-1.58.23 3.7 2.76 4.89 4 5.1-.43.31-1.7.89-3.46.89-2.22 0-4.83-1.29-5.85-1.97 2.2 5.7 5.02 6.97 8.04 6.97 3.02 0 5.9-2.49 7.55-5.39 1.33-2.32 2.96-2.7 3.6-2.74L30 17c-2.19.36-3.6 1.93-4.82 3.97C23.96 23 22.26 25 19.04 25c-3.5 0-5.46-2.68-6.04-4 .78.32 2.56 1 3.85 1 1.6 0 2.82-.32 3.7-.93a9.33 9.33 0 0 1 3.46-1.58v-.92c-1.01 0-2.2.55-2.68.82a4.5 4.5 0 0 1-3.7-2.7c.55.26 2.02.76 3.5.76 3.12 0 4.93-1.68 6.29-1.68.55 0 .84.1.93.16l.24-.92a5.54 5.54 0 0 0-1.07-.15c-1.51 0-1.42.6-3.02.6a5.54 5.54 0 0 1-2.98-1c2.73 0 4.34-.87 5.7-.87 2.15 0 3.76 1.66 4.3 2.49l-.74-2.75ZM37.54 19H35c.53 1.22 1.54 1.17 1.98 1L39 21l-1.55-1.6.1-.4ZM13 24.1 12 23v19h16.8l.2-1H13V24.1Z" fill="#00BAE0"/><path d="M24 35.38c1.06-.04 2.59-.14 2.59-1.54 0-1.1-.94-1.44-1.88-1.44-.32 0-.71-.03-.71.37v2.6Zm-2 3.43c.76-.07 1-.33 1-1.08v-4.58c0-.69-.33-.9-1-.95V32h3.02c1.2 0 2.76.36 2.76 1.85 0 1.13-.98 1.62-1.97 1.77l2.24 2.68c.14.17.28.29.42.36.14.08.31.13.53.15V39h-1.76l-2.6-3.25-.64.02v2.08c0 .73.33.9 1.03.96V39H22v-.2ZM15 38.8c.75-.08 1-.32 1-1.07v-4.58c0-.68-.33-.9-1-.95V32h2.85v.2c-.67.05-.85.27-.85.95v2.06h3v-2.06c0-.68-.18-.9-.85-.95V32H22v.2c-.67.05-1 .27-1 .95v4.7c0 .69.33.9 1 .96V39h-2.85v-.2c.76-.07.85-.33.85-1.07v-2.06h-3v2.18c0 .69.18.9.85.96V39H15v-.2Z" fill="#00BAE0"/></svg>