<!-- by TradingView --><svg width="56" height="56" viewBox="0 0 56 56" xmlns="http://www.w3.org/2000/svg"><path fill="#F0F3FA" d="M0 0h56v56H0z"/><path fill-rule="evenodd" d="M31 21H12v21h19V21Zm-20-1v23h21V20H11Z" fill="#0096E2"/><path fill-rule="evenodd" d="M35 18.04H16v21.92h19V18.04ZM15 17v24h21V17H15Z" fill="#0096E2"/><path fill-rule="evenodd" d="M40 16H21v21h19V16Zm-20-1v23h21V15H20Z" fill="#0096E2"/><path fill-rule="evenodd" d="M44 14H25v21h19V14Zm-20-1v23h21V13H24Z" fill="#0096E2"/><path d="m20.02 21.78.82.73-7.44 8.12 8.94 9.66-.81.74-9.62-10.4 8.1-8.85Z" fill="#0096E2"/><path d="m24.4 19.6 1.2 1.07-7.45 8.14 8.95 9.68-1.18 1.07-9.94-10.74 8.43-9.21Zm.04.7-7.79 8.51 9.3 10.05.44-.4-8.92-9.65 7.42-8.1-.45-.4Z" fill="#0096E2"/><path d="m32.93 16.13 1.2 1.07-7.46 8.14L35.63 35l-1.19 1.08-9.94-10.75 8.43-9.2Zm.04.7-7.79 8.51 9.3 10.04.44-.4-8.93-9.64 7.42-8.1-.44-.4Z" fill="#0096E2"/><path d="m31.4 17.52-1.2 1.07 7.45 8.14-8.95 9.67 1.18 1.08 9.94-10.75-8.43-9.2Zm-.04.7 7.78 8.5-9.29 10.05-.44-.4 8.92-9.64-7.42-8.1.45-.4Z" fill="#0096E2"/><path d="m21.71 20.12-1.19 1.06 8.7 9.22-8.95 9.68 1.19 1.07L31.4 30.4l-9.69-10.28Zm-.03.7 9.04 9.59-9.3 10.04-.44-.4 8.93-9.65-8.67-9.19.44-.4Z" fill="#0096E2"/><path d="m30.4 16.71.82.73-8.95 9.91 8.95 9.66-.82.74-9.61-10.4 9.6-10.64Z" fill="#0096E2"/><path d="m25.55 18-.82.73 8.94 9.91-8.94 9.66.82.74 9.61-10.39L25.56 18Z" fill="#0096E2"/><path d="m34.28 15.03-.82.72 8.94 9.91-7.88 8.42.8.75 8.57-9.16-9.61-10.64Z" fill="#0096E2"/></svg>