<!-- by TradingView --><svg width="56" height="56" viewBox="0 0 56 56" xmlns="http://www.w3.org/2000/svg"><path fill="#F0F3FA" d="M0 0h56v56H0z"/><path d="M46 34.5c-1.22-.46-1.59-.96-3-.42-2.14.82-3.86 1.42-6.08.3-.79-.4-1.62-.99-2.38-1.13-1.92-.36-3.07.54-4.53 1.6a8.82 8.82 0 0 1-5.06 1.79c-.1 0-.12-.04-.07-.12.15-.29.18-.59.07-.9a.15.15 0 0 1 .04-.17l.36-.39a.15.15 0 0 0 .03-.17c-.1-.17-.07-.3.06-.4.07-.06.2-.08.35-.08 1.68.07 3.27-.71 3.82-2.35a.25.25 0 0 1 .12-.14c1.14-.6.34-3.37-.08-4.42-.21-.53-.7-1.05-.85-1.73-.03-.1.01-.14.1-.14h.2a.16.16 0 0 0 .15-.1c.12-.27.32-.39.61-.36.07.01.12-.01.16-.06.9-1.3-.95-1.47-1.7-1.18a.12.12 0 0 1-.13-.04c-.54-.62-1.11-.63-1.73-.02a.32.32 0 0 1-.16.09l-.35.06c-.08.02-.12.07-.1.15l.04.33c.02.09-.02.13-.1.12-.89-.1-1 1.38-.8 1.92a.15.15 0 0 1-.08.18.14.14 0 0 1-.19-.06c-.51-.96-.5-2.67-1.78-2.84-1.12-.16-1.65 1.8-2 2.59a.43.43 0 0 1-.68.14 2.88 2.88 0 0 1-.84-1.62c-.15-.83-.93-1.04-1.61-.69-1.14.58-.73 2.85-2.51 3.37a3.67 3.67 0 0 0-2.19 2c-.22.6-.48 1.18-.76 1.76-.35.68.04 1.24-.13 1.9a4 4 0 0 1-.26.74c0 .01 0 .03.02.05.08.15.17.15.27 0 .28-.45.45-.93.5-1.44.1-.93.33-1.46.8-2.18.04-.08.07-.07.07.02.07 1.37 0 3.08-.84 4.07a.21.21 0 0 1-.17.08c-.93 0-1.8.2-2.61.6v-19c0-.21.22-.21.22-.21h35.6c.04 0 .18 0 .18.13V34.5Z" fill="#1E37DA"/><path d="M17.75 33.6c1.68 1.48 4.54-.32 4.72 2.96 0 .07-.03.1-.1.1-2.11-.15-4.02-.87-6.32-1.58a.15.15 0 0 1-.12-.15c-.02-.46.07-.9.27-1.32a.29.29 0 0 1 .4-.12c.3.16.62.18.95.07a.19.19 0 0 1 .2.04Z" fill="#1E37DA"/><path d="M46 35v3.12c-.94.2-2.58.69-3.46.48-2.5-.59-4.62-.92-6.38-1-1.81-.07-3.22.74-4.22 2.4h-5.92c-.05-.36-.24-.64-.58-.74a.19.19 0 0 1-.13-.12c-.24-.69-.7-1.19-.58-2 .02-.06.05-.1.12-.1a9.37 9.37 0 0 0 5.55-1.97c1.6-1.24 3.11-2.17 5.12-.98 1.73 1.03 3.15 1.55 5.1 1.19 1.96-.36 3.46-1.93 5.38-.28ZM12.86 40h-2.7c-.16 0-.16-.15-.16-.21V35.6a6.63 6.63 0 0 1 2.42-.59.11.11 0 0 1 .04.16.9.9 0 0 0-.1.89c.47 1.22.64 2.6.5 3.94ZM21.91 40h-3.94c-.09-.52-.4-.85-.93-.82-.08.01-.12-.02-.14-.1a.9.9 0 0 0-.45-.6.39.39 0 0 1-.17-.19 5.72 5.72 0 0 1-.38-2.7c0-.08.05-.1.13-.08 2.07.61 4.19 1.37 6.34 1.54a.17.17 0 0 1 .16.17 1.8 1.8 0 0 1-.3.92.23.23 0 0 0-.04.09L21.91 40ZM15.76 40h-1c.33-.49-.2-.84-.6-.96a.25.25 0 0 1-.17-.15 4.1 4.1 0 0 1-.13-2.62.06.06 0 0 1 .07-.01l.03.02c.52.66.97 1.35 1.35 2.08.25.48.22 1.09.45 1.64ZM23.39 37.14a.1.1 0 0 1 .1-.07h.19c.07 0 .11.03.13.1.13.6.12 1.2-.03 1.8a.13.13 0 0 1-.11.1.13.13 0 0 1-.13-.08 2.53 2.53 0 0 1-.15-1.85Z" fill="#C9BD50"/><path d="M46 38.12v1.75c0 .08-.07.13-.15.13H31.94c1-1.66 2.4-2.47 4.22-2.4 1.76.08 3.89.41 6.38 1 .88.2 2.52-.28 3.46-.48Z" fill="#0DE1F7"/></svg>