<!-- by TradingView --><svg width="56" height="56" viewBox="0 0 56 56" xmlns="http://www.w3.org/2000/svg"><path fill="#F0F3FA" d="M0 0h56v56H0z"/><path d="M21.89 32.22c.19-.07.62.07 1.3.42.39.2.63.1.75-.33.08-.3.22-.55.42-.75a.7.7 0 0 1 .79-.18l2.12.8c.25.09.41.01.5-.23.11-.29.25-.44.43-.46.44-.05.73.03.89.2.2.25.2.48-.03.7l-.27.28c-.2.2-.2.38-.01.58 2.27 2.42 2.73 4.85 1.38 7.3a6.4 6.4 0 0 1-3.54 3.01 7.86 7.86 0 0 1-4.59.18 8.12 8.12 0 0 1-4.05-2.3 6.96 6.96 0 0 1-1.95-4.47 8.15 8.15 0 0 1 1-4.89 18 18 0 0 1 4.7-5.25c4.06-3.42 6.81-6.17 8.23-8.24 2.46-3.58 2.87-7 1.26-10.29-.16-.31-.08-.38.22-.2.43.25.7.48.83.7 2.25 4.05 2.14 8.13-.35 12.24-1.1 1.81-2.4 3.4-3.9 4.77-2.03 1.86-4 3.65-5.9 5.36-.15.13-.32.41-.52.85-.1.25-.01.31.29.2ZM23 34.48l-1.67-1.64c-.18-.19-.34-.17-.46.07-1.16 2.27-.8 4.16 1.08 5.69 1.85 1.5 3.5 1.33 4.93-.51 1.17-1.5 1.09-2.72-.26-3.65-1.08-.73-2.13-.71-3.15.08-.16.12-.32.11-.47-.04Zm12.28-17.72c.24.8.34 1.52.28 2.2a26.22 26.22 0 0 1-4.3 12.18c-.1.16-.22.18-.37.07A9.8 9.8 0 0 0 28 29.76c-.21-.07-.24-.18-.08-.33a21.94 21.94 0 0 0 7.21-12.66c.04-.2.09-.21.14-.01Zm.66 7.62c-.43 2.54-1.56 5.29-3.4 8.25a.49.49 0 0 0-.07.4l.88 3.32c.04.14.09.14.16.01 2.72-5.07 3.85-9.92 3.4-14.53-.04-.33-.17-.35-.38-.04-.14.19-.33 1.06-.6 2.6Z" fill="#C81427"/></svg>