<!-- by TradingView --><svg width="56" height="56" viewBox="0 0 56 56" xmlns="http://www.w3.org/2000/svg"><path fill="#F0F3FA" d="M0 0h56v56H0z"/><path fill-rule="evenodd" d="M21 12a9 9 0 0 0-9 9v14a9 9 0 0 0 9 9h14a9 9 0 0 0 9-9V21a9 9 0 0 0-9-9H21Zm9.78 7.94-.34-.89c-.3-.84 1.03-1.22 1.58-1.05l2.44.95a1.5 1.5 0 0 0 1.94-.81c.3-.75-.06-1.6-.83-1.9l-2.53-1H33c-2.84-.93-6.54 1.6-5.37 4.8l.39 1.03.07.2c-.28.08-.57.19-.84.3-1.93.83-3.77 2.32-4.4 4.38a5.18 5.18 0 0 0 4.97 6.68c3.38.04 5.2-2.65 4.92-5.76-.08-.87-.26-1.77-.5-2.63 2.6.72 3.77 2.91 3.77 5.53 0 4.1-3.96 7.3-7.97 7.3-4.55 0-8.42-2.81-8.98-7.47-.68-5.67 3.68-8.8 6.02-9.66a1.45 1.45 0 0 0 .87-1.88 1.5 1.5 0 0 0-1.92-.86c-2.98 1.1-8.85 5.17-7.93 12.74C16.83 36.08 22.03 40 28.04 40 33.64 40 39 35.5 39 29.77c0-4.8-3.05-8.18-7.79-8.69l-.43-1.14Zm-2.33 4.31c.23-.1.44-.17.63-.23l.2.67c.24.87.42 1.7.48 2.43.13 1.4-.26 2.6-1.9 2.58a2.21 2.21 0 0 1-2.15-2.91c.37-1.22 1.62-2.06 2.74-2.54Z" fill="#EB2000"/></svg>