<!-- by TradingView --><svg width="56" height="56" viewBox="0 0 56 56" xmlns="http://www.w3.org/2000/svg"><path fill="#F0F3FA" d="M0 0h56v56H0z"/><path d="M21.14 15h10.91l-.76 3H39v2h-8.22l-5.11 20H11l.68-2h3.59l4.6-18H17l.69-2h2.69l.76-3Z" fill="url(#a)"/><path d="M33.62 18H45l-5.62 22H28l5.62-22Z" fill="url(#b)"/><path d="M28.11 40C34.3 25.74 41.5 19.33 44.9 18H45l-5.62 22H28.1Z" fill="url(#c)"/><defs><linearGradient id="a" x1="21.49" y1="15.04" x2="24.15" y2="32.9" gradientUnits="userSpaceOnUse"><stop stop-color="#F2DC3C"/><stop offset="1" stop-color="#D06A26"/></linearGradient><linearGradient id="b" x1="34.32" y1="19.03" x2="37.28" y2="33.74" gradientUnits="userSpaceOnUse"><stop stop-color="#F2DC3C"/><stop offset="1" stop-color="#D06A26"/></linearGradient><linearGradient id="c" x1="33.35" y1="35.45" x2="38.71" y2="39.87" gradientUnits="userSpaceOnUse"><stop stop-color="#B11621"/><stop offset="1" stop-color="#DF9831"/></linearGradient></defs></svg>