<!-- by TradingView --><svg width="56" height="56" viewBox="0 0 56 56" xmlns="http://www.w3.org/2000/svg"><path fill="#F0F3FA" d="M0 0h56v56H0z"/><path d="M35.44 12 42 17.66v9.73l-1.5-1.51v-7.53l-5.05-4.34-4.95 4.34v6.36l8 7.02v4.37L35.46 39l-2.96-2.9v-5.3l1.5 1.27v3.35L35.44 37 37 35.43v-3.02l-8-7v-7.75L35.44 12ZM14 17.71 20.56 12 27 17.72v20.57L20.5 44 14 38.28v-8L20 25v2.17l-4.5 4v6.42l5 4.38 5-4.39V18.41l-4.94-4.4-5.06 4.4v7.6L14 27.54v-9.83Z" fill="#D72027"/><path d="M35.56 44 29 38.13v-10.1l1.5 1.58v7.8L35.55 42l4.95-4.59v-6.6l-8.05-7.26v-4.53L35.54 16l3.24 3.01v5.5l-1.51-1.32V19.7l-1.7-1.58-1.61 1.57v3.13L42 30.1v8.03L35.56 44ZM24 37l-.03-.01L20.58 40 17 36.97v-4.98L20 30v2l-1.5 1.06v3.2L20.55 38l1.95-1.73V19.73L20.55 18l-2.05 1.74v3.5L17 24.57v-5.54L20.58 16 24 19.04V37Z" fill="#D72027"/></svg>