<!-- by TradingView --><svg xmlns="http://www.w3.org/2000/svg" width="56" height="56"><path fill="url(#anwyruxa3)" d="M0 0h56v56H0z"/><path d="M10.19 21.4L9 17l1.87 2.47L12.92 17l2.2 2.47L17 17l-1.28 4.4a7.2 7.2 0 01-5.53 0zm6.34.92c-2.96.95-6.12.4-7.32 0l.7 1.98 1.33.6-.75.65-.35 8.45h5.6l-.56-8.45-.51-.65 1.07-.6.8-1.98zM16 34.5h-6V36h6v-1.5z" fill="url(#bnwyruxa3)"/><path d="M14.8 19.1c-.72 1.15-1.33 2.84-1.33 2.84.71-.05 1.48-.2 2.25-.53L17 17l-1.89 2.47-.32-.36z" fill="url(#cnwyruxa3)" fill-opacity=".5"/><path d="M13.13 22.84a11.6 11.6 0 003.4-.52l-.79 1.98-1.07.6.51.65.56 8.45h-2.21c-2.34-5.45-.4-11.16-.4-11.16z" fill="url(#dnwyruxa3)" fill-opacity=".5"/><path d="M47.9 28l-.56 7.02h-5.13a10.27 10.27 0 01-6.58-2.94c-.94-.88-1.2-7.26 1.8-9.23 2.4-1.57 7.97-1.52 10.46-1.3L47.22 26H44v-3h-2.92c-1.07.06-1.08 1.1-1.08 1.47v3.08c.13 4.03 2.43 5.95 4 6.36V30h-1.57l-.22-2h5.68z" fill="url(#enwyruxa3)"/><path d="M33 28.73c0-8.08 10.12-8.33 15-7.3l-1.7 1.05a18.2 18.2 0 00-3.67-.3c-6.09.14-6.72 4.29-6.59 6.55.27 4.52 4.56 6.28 6.59 6.28h4.71l-.09.99h-7.04c-5.68-.66-7.21-5-7.21-7.27z" fill="url(#fnwyruxa3)"/><path d="M31.9 28l-.56 7.02h-5.13a10.27 10.27 0 01-6.58-2.94c-.94-.88-1.2-7.26 1.8-9.23 2.4-1.57 7.97-1.52 10.46-1.3L31.22 26H28v-3h-2.92c-1.07.06-1.08 1.1-1.08 1.47v3.08c.13 4.03 2.43 6.16 4 6.36V30h-1.57l-.22-2h5.68z" fill="url(#gnwyruxa3)"/><path d="M17 28.73c0-8.08 10.12-8.33 15-7.3l-1.7 1.05a18.2 18.2 0 00-3.67-.3c-6.09.14-6.72 4.29-6.59 6.55.27 4.52 4.56 6.28 6.59 6.28h4.71l-.08.99H24.2c-5.68-.66-7.21-5-7.21-7.27z" fill="url(#hnwyruxa3)"/><defs><linearGradient id="anwyruxa3" x1="10.42" y1="9.71" x2="68.15" y2="76.02" gradientUnits="userSpaceOnUse"><stop stop-color="#1A1E21"/><stop offset="1" stop-color="#06060A"/></linearGradient><linearGradient id="bnwyruxa3" x1="14" y1="17" x2="14" y2="36" gradientUnits="userSpaceOnUse"><stop stop-color="#FED94A"/><stop offset="1" stop-color="#F6C439"/></linearGradient><linearGradient id="cnwyruxa3" x1="13.01" y1="21.58" x2="16.53" y2="33.49"><stop offset=".3" stop-color="#E7891F"/></linearGradient><linearGradient id="dnwyruxa3" x1="13.01" y1="21.58" x2="16.53" y2="33.49" gradientUnits="userSpaceOnUse"><stop offset=".3" stop-color="#E7891F"/><stop offset=".93" stop-color="#F7C63B"/></linearGradient><linearGradient id="enwyruxa3" x1="37.72" y1="22.72" x2="46.28" y2="35.12" gradientUnits="userSpaceOnUse"><stop stop-color="#E7891F"/><stop offset=".75" stop-color="#F6C439"/></linearGradient><linearGradient id="fnwyruxa3" x1="40.5" y1="21" x2="45.96" y2="35.54" gradientUnits="userSpaceOnUse"><stop stop-color="#FED94A"/><stop offset="1" stop-color="#F6C439"/></linearGradient><linearGradient id="gnwyruxa3" x1="22.74" y1="22.62" x2="30.64" y2="35.11" gradientUnits="userSpaceOnUse"><stop stop-color="#A0A0A0"/><stop offset="1" stop-color="#A2A2A2"/></linearGradient><linearGradient id="hnwyruxa3" x1="20.42" y1="22.21" x2="29.36" y2="34.72" gradientUnits="userSpaceOnUse"><stop stop-color="#E0E0E0"/><stop offset="1" stop-color="#A2A2A2"/></linearGradient></defs></svg>