<!-- by TradingView --><svg width="56" height="56" viewBox="0 0 56 56" xmlns="http://www.w3.org/2000/svg"><path fill="#008AE6" d="M0 0h56v56H0z"/><path d="M12 27.34v-6.57A2.76 2.76 0 0 1 14.74 18c1.5 0 2.73 1.24 2.73 2.76v6.71c0 3.45 2.76 6.53 6.16 6.53 3.4 0 6.15-3.08 6.15-6.53v-.46c0-1.25 1-2.26 2.23-2.26h.38A2.63 2.63 0 0 1 35 27.4C35 33.8 29.85 39 23.53 39A11.6 11.6 0 0 1 12 27.34Z" fill="#fff"/><path d="M41.32 30h.33c1.3 0 2.35-1.05 2.35-2.33C44 21.44 38.85 16 32.5 16S21 21.44 21 27.67A2.34 2.34 0 0 0 23.35 30h.28a2.6 2.6 0 0 0 2.63-2.58v-.54c0-2.95 3-5.88 6-5.88h.66c3 0 5.72 2.93 5.72 5.88v.49c0 1.45 1.2 2.63 2.68 2.63Z" fill="#1E2AB3"/><circle cx="40.5" cy="36.5" r="3.5" fill="#D0D0D0"/></svg>