<!-- by TradingView --><svg width="56" height="56" viewBox="0 0 56 56" xmlns="http://www.w3.org/2000/svg"><path fill="#F0F3FA" d="M0 0h56v56H0z"/><path d="M28 13v-2h2v2h10.06c2.37 0 3.94 1.64 3.94 4.08V43h-3V17.08c0-.92-.05-1.08-.94-1.08H30v2h5.52C37 18 39 20 39 21.65V33h-9v1h9v9H23.4c-1.62 0-3.4-1.44-3.4-3.1V34h8v-1h-8v-3h8v-3h-8v-3h8v-3h-8v-3h8v-2h-9.45c-.91 0-1.55.18-1.55 1.59V43h-3V17.08c0-1.82 1.7-4.08 4.85-4.08H28Zm2 8v3h6v-1.7c0-.48-.64-1.3-1.1-1.3H30Zm6 6h-6v3h6v-3ZM23 37v2c0 .47.55 1 1 1h12v-3H23Z" fill="#E50112"/></svg>