<!-- by TradingView --><svg width="56" height="56" viewBox="0 0 56 56" xmlns="http://www.w3.org/2000/svg"><path fill="#F0F3FA" d="M0 0h56v56H0z"/><path fill-rule="evenodd" d="M39.5 10.5h-23v35h23v-35ZM16 10v36h24V10H16Z" fill="#003777"/><path d="M20 27.9V17.38L26 13v10.65l-6 4.25Z" fill="#BE2C37"/><path d="M29 44V33.49l6-4.39v10.65L29 44Z" fill="#003777"/><path d="m28.82 32.51-8.26-3.85 5.6-4.17 8.4 3.7-5.74 4.32Z" fill="#BE2C37"/><path d="M28 37.5v6.45l-8-3.55 5.89-4L28 37.5ZM27 19.5v-6.45l8 3.27-5.89 4.28L27 19.5Z" fill="#003777"/></svg>