<!-- by TradingView --><svg width="56" height="56" viewBox="0 0 56 56" xmlns="http://www.w3.org/2000/svg"><path fill="#F0F3FA" d="M0 0h56v56H0z"/><path d="m39 35.86.66 1.15c.18.31.27.7.29 1.17.06 2.28.07 3.96.03 5.02-.06 1.48-.9 2.23-2.5 2.26-.99.02-2.05-.27-3.15-.04-1.77.37-3.38.68-5.4.23-2.95-.65-5.84-.85-8.78.22-.7.25-1.37.14-2.01-.33a5.08 5.08 0 0 1-2.13-4.11 24.7 24.7 0 0 1 1.08-7.46c.14-.5.02-1.46-.1-2.1-.29-1.53-.4-2.45-.33-2.76.35-1.73.7-3.53 1.04-5.41.19-1.04.22-2.09.1-3.13l-.91-5.88c-.28-1.74 1.18-3.92 3.03-4.33.44-.09 1.11-.07 2.03.05 1.1.16 1.74.3 2.7.15 1.19-.2 2.7-.62 3.73-.55.99.07 2.12.28 3.41.63.63.17 1.42.09 2.39-.24 3.1-1.04 4.94 2.44 4.66 4.8-.2 1.79-.6 4.21-.28 6.37.18 1.17.23 2.05.15 2.65l-.27 2.46c-.14 1.44.82 2.8.69 4.12-.15 1.47-.74 3.97-.13 5.06Z" fill="#E12325"/><path d="M24.17 17.14c.5.04.77-.15.82-.58l.12-.96a.6.6 0 0 0-.03-.28.66.66 0 0 0-.16-.24.77.77 0 0 0-.26-.17.86.86 0 0 0-.31-.06h-2.96a.38.38 0 0 1-.23-.07.3.3 0 0 1-.12-.19c-.05-.32.13-.5.54-.52a11.1 11.1 0 0 1 2.97.04c1.13.3 1.6.93 1.41 1.93-.4 2.1-.58 3.8-.57 5.1.02 1.35.22 3.2.6 5.53a.2.2 0 0 1 0 .1.23.23 0 0 1-.07.1.28.28 0 0 1-.1.06.32.32 0 0 1-.1.02h-.24a.35.35 0 0 1-.2-.06.27.27 0 0 1-.11-.16 22.78 22.78 0 0 1-.54-8.45c.02-.16-.06-.26-.23-.3-1.13-.26-3.05-.25-2.56 1.39.73 2.44.72 4.9-.03 7.42a.28.28 0 0 1-.11.15.36.36 0 0 1-.2.06h-.24c-.04 0-.08 0-.1-.02a.25.25 0 0 1-.1-.05.22.22 0 0 1-.05-.09.2.2 0 0 1 0-.1c.3-2.07.72-3.72.45-5.28l-.44-2.51c-.25-1.74 1.75-1.91 3.15-1.8ZM31.78 22.76a.31.31 0 0 0-.22.1.3.3 0 0 0-.1.21v.54c0 .26.14.39.4.39h2.69c.2 0 .38.52.38.7a.29.29 0 0 1-.15.26.3.3 0 0 1-.15.04h-2.8c-.18 0-.27.08-.29.25l-.13 1.4c0 .05-.04.1-.09.15l-.11.12a.24.24 0 0 1-.12.07h-.15a.27.27 0 0 1-.17-.22l-.22-1.56c-.02-.17-.11-.25-.28-.23-.86.1-1.58.07-2.14-.07-.62-.15-.95-.68-1-1.34L27 22.2c-.06-.63.21-.8.8-.53.53.25 1.36.3 2.49.15.15-.02.23-.11.23-.26v-.32a.23.23 0 0 0-.08-.17.25.25 0 0 0-.17-.07h-1.7c-.8 0-1.25-.5-1.38-1.27l-.04-.23c-.11-.79.23-1.18 1.05-1.18h1.95c.24 0 .35-.12.35-.34v-.18c0-.15-.07-.22-.23-.22h-2.76c-.22 0-.33-.1-.33-.32v.05c0-.2.1-.31.32-.31h2.75c.25 0 .37-.12.37-.36v-.5a.33.33 0 0 0-.1-.23.35.35 0 0 0-.24-.1h-2.7c-.24 0-.37-.12-.37-.36v-.14c0-.22.12-.34.36-.34h2.68l.15-.03a.31.31 0 0 0 .1-.1l.34-.6c.1-.14.22-.15.36-.06.1.06.19.38.29.62.06.13.16.2.32.2h1.84a.6.6 0 0 0 .46-.2l.41-.62c.26-.28.4-.23.41.15l.06 2.1c.05 1.43-1.93 1.26-3.07 1.1-.24-.03-.37.08-.37.31v.12c0 .22.12.34.34.34l2.2.1c.18 0 .36.07.5.18.14.11.24.26.28.43.47 2.05-1.67 1.96-2.93 1.91-.31 0-.47.14-.47.45v.16c0 .31.16.47.48.47h2.5c.25 0 .38.12.38.37v.12c0 .18-.1.27-.28.27h-2.78ZM24.16 32.14c.5.04.77-.15.82-.58l.12-.97a.6.6 0 0 0-.03-.28.66.66 0 0 0-.16-.24.77.77 0 0 0-.26-.16.86.86 0 0 0-.31-.06h-2.96a.38.38 0 0 1-.23-.07.3.3 0 0 1-.12-.19c-.05-.32.13-.5.54-.52a11.2 11.2 0 0 1 2.97.04c1.12.29 1.6.93 1.4 1.92-.38 2.1-.57 3.8-.55 5.1.02 1.36.22 3.2.6 5.54a.2.2 0 0 1 0 .1.23.23 0 0 1-.06.1.28.28 0 0 1-.1.05.32.32 0 0 1-.11.03h-.23a.35.35 0 0 1-.2-.07.27.27 0 0 1-.11-.15c-.72-2.83-.9-5.65-.56-8.45.02-.16-.05-.26-.23-.3-1.13-.26-3.04-.25-2.55 1.39a12.7 12.7 0 0 1-.01 7.42.28.28 0 0 1-.12.15.36.36 0 0 1-.2.06h-.24c-.04 0-.07 0-.1-.02a.26.26 0 0 1-.09-.06.22.22 0 0 1-.05-.08.2.2 0 0 1-.01-.09c.31-2.08.72-3.73.44-5.29l-.44-2.5c-.26-1.75 1.75-1.92 3.14-1.82ZM34.23 30.37c.02-.03.03-.09.02-.17-.05-.29-.23-.43-.56-.43h-6.4a.3.3 0 0 1-.2-.08.24.24 0 0 1-.09-.18v-.17c0-.23.13-.34.38-.34h6.32c.8.01 1.23.5 1.3 1.28l-.03.17c-.15.7-.62 1.04-1.4 1.04h-5.12c-.36 0-.45.3-.45.6 0 .12.07.18.2.17h5.74c.79.02 1.12.47.99 1.35-.06.4-.3.64-.75.72a4.8 4.8 0 0 1-1.55.03.24.24 0 0 0-.09.05.22.22 0 0 0-.06.07.2.2 0 0 0-.02.09v.12c0 .1.04.19.1.26.08.07.17.11.27.12.63.06 1.23.1 1.83.09.29 0 .4.14.3.43a.28.28 0 0 1-.08.13.32.32 0 0 1-.14.07c-1.67.33-2.73 0-3.17-.99-.36-.8-.73-.8-1.1 0-.08.14-.3.37-.7.67-.53.41-1.7.4-2.43.52-.22.04-.34-.05-.34-.26v-.41c0-.15.09-.22.25-.2.81.05 1.56.01 1.92-.12.5-.17.5-.36-.02-.55-.03-.02-.32-.1-.87-.24-.82-.22-1.33-1-1.28-1.67.1-1.17.83-1.78 2.23-1.83.8-.03 2.33-.03 4.58-.02a.4.4 0 0 0 .23-.09.68.68 0 0 0 .2-.23Z" fill="#fff"/><path d="M32.1 36.45c.9-.12 2.82-.25 2.9 1.15.08 1.7-1.9 1.4-2.98 1.4-.35 0-.52.29-.52.64v.8c0 .41.2.56.61.56h2.6c.16 0 .29.2.29.36v.17c0 .25-.12.38-.37.4-1.52.1-2.95.26-3.67-.76-.37-.54-.18-1.12-.3-1.7-.02-.16-.12-.44-.27-.47h-2.1c-.22.07-.35.4-.37.65a65.8 65.8 0 0 0-.12 1.75c-.01.17-.06.29-.15.35a.28.28 0 0 1-.24.05.37.37 0 0 1-.18-.1.38.38 0 0 1-.1-.17c-.2-.75-.17-1.5.07-2.25.24-.73.78-1.24 1.48-1.28h1.66c.16 0 .34-.12.34-.35v-.26c0-.26-.13-.39-.38-.39h-2.84c-.14 0-.2-.07-.2-.2v.01c0-.23.1-.35.34-.35h2.55a.3.3 0 0 0 .3-.21l.24-.62c.35-.88.6-.84.77.11.02.11.11.3.3.56.08.12.2.17.34.15Z" fill="#fff"/><path d="M33.55 16h-2.1c-.25 0-.45.15-.45.33v.34c0 .18.2.33.45.33h2.1c.25 0 .45-.15.45-.33v-.34c0-.18-.2-.33-.45-.33ZM33.54 19h-5.08a.47.47 0 0 0-.46.48v.04c0 .26.2.48.46.48h5.08c.25 0 .46-.22.46-.48v-.04c0-.26-.2-.48-.46-.48ZM29.65 23h-1.3c-.2 0-.35.15-.35.32v.36c0 .17.16.32.35.32h1.3c.2 0 .35-.15.35-.32v-.36c0-.17-.16-.32-.35-.32ZM33.53 33h-5.1a.43.43 0 0 0-.43.42v.03c0 .23.2.42.44.42h5.1c.23 0 .43-.19.43-.42v-.03c0-.23-.2-.42-.44-.42ZM33.51 37H31.5c-.27 0-.49.2-.49.44v.12c0 .24.22.44.49.44h2.02c.27 0 .5-.2.49-.44v-.12c0-.24-.22-.44-.49-.44Z" fill="#E12325"/></svg>