<!-- by TradingView --><svg width="56" height="56" viewBox="0 0 56 56" xmlns="http://www.w3.org/2000/svg"><path fill="url(#a)" d="M0 0h56v56H0z"/><path d="M43 22H24c0-3 2.5-4 4-4h19c-.8 3.2-3 4-4 4Z" fill="#FCC800"/><path d="M24 31H11l1.5-4c1-3 2.5-4 3.5-4h13.5l-2 5c-.8 2.4-2.67 3-3.5 3Z" fill="#98679F"/><path d="M15 38c-2.8 0-2.83-1.67-2.5-2.5L14 32h23l-1.5 3.5c-.8 2-2.67 2.5-3.5 2.5H15Z" fill="#C1C0BE"/><defs><linearGradient id="a" x1="10.42" y1="9.71" x2="68.15" y2="76.02" gradientUnits="userSpaceOnUse"><stop stop-color="#1A1E21"/><stop offset="1" stop-color="#06060A"/></linearGradient></defs></svg>