<!-- by TradingView --><svg width="56" height="56" viewBox="0 0 56 56" xmlns="http://www.w3.org/2000/svg"><path fill="#F0F3FA" d="M0 0h56v56H0z"/><path d="M19.3 22.6c-.62.55-.73.45-.34-.27.7-1.3 2.45-2.7 5.25-4.24a3.14 3.14 0 0 0 1.52-1.85A49.9 49.9 0 0 1 27 12.4a.27.27 0 0 0-.22-.36 8.6 8.6 0 0 0-4.94.9c-.84.47-1.61 1.75-2.3 3.86-1.48 4.51-2.28 6.92-2.39 7.23-.23.69-.04.83.56.44 3.05-2 6.28-2.94 9.69-2.8 3.33.13 5.34 1.65 6.02 4.58a1.07 1.07 0 0 0 .84.81l4.15.81a.34.34 0 0 0 .26-.05.32.32 0 0 0 .13-.23c.76-6.7-3.67-9.73-9.8-9.2a16.63 16.63 0 0 0-9.71 4.22Zm-3.78 13.92c-.53-1.1-.37-1.2.48-.33 3.03 3.12 6.83 4.22 11.38 3.31.6-.12.68-.39.26-.82l-2.3-2.29a1.68 1.68 0 0 0-1.27-.5c-3.78.08-6.92-.05-8.67-3.8-.84-1.82-.2-3.37 1.68-3.95.74-.22 1.65.07 2.74.86a26.66 26.66 0 0 1 2.75 2.2c2.94 3.24 4.73 5.2 5.38 5.9 1.71 1.82 3.14 2.94 4.29 3.35 1.76.63 3.67.72 5.71.27 1.57-.34 1.56-.66-.01-.95-3.26-.6-5.5-2.15-8.25-4.46a61.92 61.92 0 0 0-9.2-6.6c-.05-.03-.07-.08-.04-.14.03-.1.07-.18.1-.2.1-.11.26-.12.45-.04 3.23 1.43 6.52 3.7 9.44 5.71 1.1.76 2.16 1.49 3.14 2.12 1.7 1.1 3.57 1.7 5.6 1.81a5.96 5.96 0 0 0 3.55-.98c.44-.3.95-.8 1.52-1.5.65-.8.46-1.18-.56-1.15-2.65.07-4.78-.28-6.4-1.04-6.65-3.13-10.74-5-12.27-5.64-.2-.09-.4-.14-.63-.16-.67-.05-1.16-.22-1.45-.5a.22.22 0 0 1-.05-.23.2.2 0 0 1 .2-.12c1.83.2 3.55.63 5.2 1.29 4.15 1.68 7.02 2.9 8.62 3.68 2.02.98 4.42 1.28 7.2.9.89-.13 1.7-.6 2.25-1.3l1.29-1.63c.6-.75.43-.98-.48-.7-5.46 1.74-10.5.15-16.22-1.65-.5-.16-1-.32-1.52-.47a19.18 19.18 0 0 0-11.17-.08c-2.6.74-4.36 2.37-4.28 5.08.04 1.34-.03 2.3-.2 2.9-.41 1.44-1 3.35-1.76 5.73a.42.42 0 0 0 .38.55c2.38.12 4.28-.14 5.7-.78a.54.54 0 0 0 .05-.97 6.32 6.32 0 0 1-2.63-2.68Z" fill="#1D5F75"/></svg>