<!-- by TradingView --><svg width="56" height="56" viewBox="0 0 56 56" xmlns="http://www.w3.org/2000/svg"><path fill="#E30514" d="M0 0h56v56H0z"/><path d="M19.9 40.95c.05.53.07.92.06 1.17 0 .55-.3.84-.89.86-.32 0-.55-.09-.7-.3a1.64 1.64 0 0 1-.2-.78c0-.14-.07-.7-.17-1.65a2.96 2.96 0 0 0-.49-.9c-.25-.38-.2-1.13.17-2.27a3.22 3.22 0 0 0 .04-1.14 75.96 75.96 0 0 0-.22-2.86c-.06-.6-.09-1.14-.1-1.62a.17.17 0 0 0-.09-.16 3.73 3.73 0 0 1-1.42-1.28c-.38-.6-.5-1.2-.34-1.82.18-.73.62-1.14 1.3-1.23.11-.01.18-.07.21-.17s.01-.19-.07-.26a6.3 6.3 0 0 1-.5-.5.9.9 0 0 1-.2-.5 3.1 3.1 0 0 1 0-.57l.02-.27c0-.12-.03-.3-.1-.55-.67-2.33-1.18-4.09-1.54-5.28-.1-.37-.22-.64-.34-.83-.19-.28-.3-.52-.32-.7-.06-.5.07-.94.4-1.3a.34.34 0 0 0 .08-.22v-.65c0-.25.07-.47.18-.68a3.52 3.52 0 0 1 .5-.62.21.21 0 0 0 .05-.13l.01-.32c.02-.48.08-.85.2-1.12.15-.32.4-.6.77-.82.34-.2.69-.32 1.06-.36.06 0 .12.01.17.05.05.04.08.1.08.16l.04.51c0 .1.05.16.13.2.46.2.8.41 1 .6.3.3.46.64.46 1.04 0 .27.01.43.02.48.01.06.04.12.08.17l.08.11c.2.25.32.44.39.58.1.2.15.46.18.78 0 .07.03.14.08.2.28.33.43.6.45.84.01.18-.06.5-.22.93-.04.1-.07.22-.09.33-.27 2.08-.54 4.02-.8 5.82-.02.16 0 .42.04.78.04.35.06.61.04.78-.03.28-.13.5-.31.67a.74.74 0 0 0-.23.45c-.02.11 0 .3.02.54.04.29.12.46.26.53.02.02.05.03.08.03l.66.1c.15.03.26-.02.34-.14.3-.42.64-.74 1.01-.97.19-.12.35-.27.49-.47.18-.25.4-.5.69-.73.05-.04.05-.08.01-.14a7.32 7.32 0 0 1-1.09-1.93 5.25 5.25 0 0 1-.08-3.46c.35-1.15 1-2.12 1.94-2.92a8.07 8.07 0 0 1 2.76-1.54c.12-.04.16-.12.12-.25l-.34-1.03a.37.37 0 0 0-.1-.16l-.51-.46a.77.77 0 0 1-.16-.2c-.2-.37-.2-.74-.03-1.13.17-.4.46-.64.85-.71.48-.09.9.03 1.29.35.11.1.19.21.23.37.03.09.05.25.06.47l.03.24c0 .07.04.11.1.13l.05.01c.04 0 .06 0 .06-.05l-.07-1.06c-.01-.12.02-.23.08-.33.31-.46.7-.69 1.18-.69.54 0 .92.22 1.16.64.22.41.23.87.03 1.38-.03.08 0 .14.06.19h.01c.03.03.06.03.1.02a.09.09 0 0 0 .05-.08l.12-.83a.2.2 0 0 1 .03-.07c.28-.5.7-.74 1.27-.72.44.02.78.22 1 .61.23.39.26.78.08 1.18-.06.14-.22.32-.46.52-.42.36-.64.87-.67 1.53 0 .05.02.08.07.1.44.16.94.39 1.51.7.74.38 1.38.88 1.92 1.49.53.6.93 1.25 1.2 1.97a5.52 5.52 0 0 1-.34 4.6c-.26.5-.55.92-.88 1.28-.06.07-.05.13.03.18.23.14.43.33.6.58.09.14.25.34.47.62a5 5 0 0 1 .95 1.56c.04.16.13.29.26.4a7.56 7.56 0 0 1 2.48 3.84c.09.32.13.83.12 1.51 0 .51-.16.98-.48 1.4a.57.57 0 0 0-.08.6c.27.66.46 1.32.57 1.98.17.99-.19 1.7-1.06 2.14-.42.2-.88.39-1.4.54-.33.09-.9.22-1.68.4l-1.3.28c-.33.08-.87.27-1.62.58a10.57 10.57 0 0 1-8.32.06c-.75-.32-1.32-.52-1.7-.62l-2.9-.67c-.05-.02-.08 0-.07.06Z"/><path d="M28.8 11.61c.23 0 .41.09.54.26.13.16.18.36.15.58l-.02.06-.24.4a.16.16 0 0 0 0 .15c.17.46.42.7.73.75.32.05.63-.12.93-.52.06-.08.07-.2.03-.36a.64.64 0 0 1 .15-.6.32.32 0 0 1 .13-.09c.36-.15.64-.1.84.16.2.25.19.53-.05.83a.14.14 0 0 1-.05.04l-.38.19a.23.23 0 0 0-.11.12c-.33.8-.53 1.43-.58 1.87 0 .08-.05.14-.14.15a9.1 9.1 0 0 1-3.85 0 .17.17 0 0 1-.14-.15 7.78 7.78 0 0 0-.58-1.87.23.23 0 0 0-.11-.12l-.38-.19a.14.14 0 0 1-.05-.04c-.24-.3-.25-.58-.05-.83.2-.26.48-.3.84-.16.05.02.1.05.13.1.15.16.2.36.15.59-.04.16-.02.28.04.36.3.4.6.57.92.52.32-.04.56-.3.74-.75a.16.16 0 0 0-.01-.15l-.24-.4a.16.16 0 0 1-.02-.06.75.75 0 0 1 .15-.58.64.64 0 0 1 .54-.26ZM18.16 14.8c-.02.03-.01.07.02.1.03.02.06.02.1 0 .23-.12.4-.13.53-.03.55.45.59.94.1 1.47-.04.05-.05.1-.01.15.03.05.07.07.13.05l.31-.09c.13-.03.23 0 .3.12.35.6-.01 1.04-1.1 1.33-.97.27-1.95.3-2.94.09-.4-.09-.68-.26-.84-.52-.17-.28-.14-.6.09-.95.09-.14.21-.2.38-.16l.27.06c.07.02.12 0 .16-.07.03-.07.02-.12-.03-.17l-.09-.08c-.24-.2-.37-.39-.4-.54-.13-.53.13-.98.76-1.36.1-.05.14-.14.1-.25-.26-1.02-.02-1.7.74-2.04.05-.03.1-.01.12.04.1.21.2.37.3.47.1.1.27.2.5.32.9.43 1.13 1 .7 1.7-.1.16-.17.28-.2.36ZM28.8 16.4a12.64 12.64 0 0 0 2.22-.21c.09-.02.17-.01.25.02a6.84 6.84 0 0 1 3.48 2.32 4.82 4.82 0 0 1-.4 6.53 6.9 6.9 0 0 1-2.54 1.67 8.22 8.22 0 0 1-6 0 6.9 6.9 0 0 1-2.55-1.67 4.82 4.82 0 0 1-.4-6.53 6.85 6.85 0 0 1 3.48-2.33.53.53 0 0 1 .25-.01l.22.03c.75.12 1.42.18 2 .19Z" fill="#fff"/><path d="M17.8 24.51c-.45.03-.74-.02-.87-.17a.14.14 0 0 1-.03-.06l-1.65-5.64c0-.02 0-.05.02-.07a.07.07 0 0 1 .08-.02c.62.16 1.3.22 2.03.17.73-.05 1.4-.2 1.98-.46.03-.01.05 0 .08.01.02.02.03.04.03.07l-.82 5.81c0 .03 0 .05-.02.07-.11.16-.4.26-.83.29Z" fill="#FEB21C"/><path d="M27.31 19.24c-.01-.02-.03-.02-.05 0-.02.01-.03.03-.02.05.13.26.1.47-.12.64-.06.05-.06.1 0 .14l.2.22c.03.02.04.04.04.07.03.28 0 .54-.1.78-.1.3-.26.49-.49.57-.29.1-.57.04-.83-.2a1.48 1.48 0 0 1-.45-.8c-.09-.44-.08-.85.03-1.23.13-.44.38-.74.74-.91a.97.97 0 0 1 .93.02c.28.15.49.4.61.73.03.08.01.14-.06.18-.07.04-.13.04-.19-.02l-.24-.24ZM31.92 21.22a2.72 2.72 0 0 1-1.8-.5c-.1-.6 0-1.12.27-1.59.2-.31.48-.49.84-.52a1 1 0 0 1 .94.4c.18.22.27.38.27.5 0 .06-.03.1-.08.12a.11.11 0 0 1-.13-.03l-.26-.25c-.01-.01-.03-.02-.05 0-.02 0-.03.02-.02.04l.08.28a.2.2 0 0 1-.05.2l-.25.25c-.04.05-.03.07.03.09.07.01.15.06.22.13.04.03.07.08.07.14.02.23-.01.48-.08.74Z" fill="#05318D"/><path d="M30.13 20.72c.55.38 1.14.54 1.79.5l.51.15c.09.02.14.08.17.16.02.09 0 .16-.06.23a3.44 3.44 0 0 1-2.76 1.09c-.48-.03-.84-.22-1.05-.58-.21-.36-.19-.75.07-1.16.26-.4.7-.54 1.33-.4Z" fill="#FEB21C"/><path d="M27.04 23.85c.1.16.05.33-.15.5-.87-.03-1.49-.22-1.84-.58-.3-.29-.43-.6-.41-.92.01-.3.14-.52.37-.68.23-.17.49-.2.75-.1.31.12.56.4.75.85.13.32.3.63.53.93Z" fill="#E30514"/><path d="M26.9 24.34c.19-.16.23-.33.14-.5.46.27.91.44 1.35.52a3.84 3.84 0 0 0 3.55-1.13c.04-.05.1-.08.17-.07.07 0 .13.02.18.07.12.13.12.25 0 .37a4.44 4.44 0 0 1-5.4.74Z" fill="#05318D"/><path d="M18.75 25c.05 0 .08.02.08.07v.06a.82.82 0 0 1-.24.64.97.97 0 0 1-.66.3h-.05a.97.97 0 0 1-.7-.22.82.82 0 0 1-.32-.6v-.07c0-.05.02-.08.07-.08l1.82-.1Z" fill="#FEB21C"/><path d="M26.54 27.8c0 .04 0 .07-.04.09-1.05.5-2.13.59-3.23.24a7 7 0 0 0-1.94-.4c-.07 0-.11-.03-.13-.1-.02-.06 0-.12.07-.15l.7-.4a.4.4 0 0 0 .15-.14l.1-.17c.15-.24.26-.4.34-.49a.87.87 0 0 1 .44-.26c.1-.02.24.04.44.2a8.02 8.02 0 0 0 3.05 1.52.2.2 0 0 1 .05.07ZM31.18 27.8l.02-.04c0-.02.01-.02.03-.03 1.29-.46 2.28-.97 2.96-1.52.09-.07.19-.08.3-.03.23.11.46.35.7.72.12.18.2.3.27.35.16.15.44.5.82 1.02.02.03.02.05.01.08a.09.09 0 0 1-.07.06c-.76.12-1.63.16-2.6.15a4.96 4.96 0 0 1-2.4-.69.09.09 0 0 1-.04-.08Z" fill="#E30514"/><path d="M18.22 26.61c.06 0 .1.03.1.09L19.4 42a.5.5 0 0 1-.06.3c-.05.07-.11.12-.19.12l-.12.01c-.07 0-.14-.03-.2-.1a.5.5 0 0 1-.1-.28l-1.07-15.3c0-.07.02-.1.08-.1l.48-.04Z" fill="#FEB21C"/><path d="M17.3 30.37c-.02.06-.05.07-.1.03a2.59 2.59 0 0 1-.81-.93c-.2-.4-.24-.79-.13-1.19.1-.32.3-.52.59-.6.13-.03.22.01.26.15.28.87.34 1.72.18 2.54ZM38.95 35.07l-.61.6c-.07.08-.15.09-.23.03-.09-.05-.11-.12-.08-.21.1-.34.11-.91.01-1.73A3.19 3.19 0 0 0 37.3 32a.15.15 0 0 0-.15-.05.14.14 0 0 0-.11.1l.02.1c.55 1.94.4 3.75-.41 5.41a7.86 7.86 0 0 1-3.16 3.34 9.22 9.22 0 0 1-4.44 1.28 9.2 9.2 0 0 1-6.16-1.98 7.44 7.44 0 0 1-2.4-3.2c-.8-2.06-.66-4.1.42-6.15a.08.08 0 0 0-.01-.1c-.03-.03-.06-.04-.1-.02-.22.08-.5.34-.83.76l-.07.1a.19.19 0 0 1-.13.07c-.38.06-.59-.12-.62-.54-.04-.8-.11-1.7-.2-2.7-.01-.07.02-.1.09-.08.44.13 1.05.16 1.82.08.59-.05 1.16 0 1.7.18.81.27 1.6.4 2.33.37a3.85 3.85 0 0 0 2.15-.66l.47-.32a.35.35 0 0 1 .21-.05c.85.08 1.64.07 2.39-.03.05 0 .1 0 .15.04a5.6 5.6 0 0 0 3.81 1.27c.7-.02 1.4-.07 2.1-.15.17-.02.33.03.47.14a6.66 6.66 0 0 1 2.63 4.41c.04.25 0 .61-.12 1.1a.7.7 0 0 1-.2.34Z" fill="#fff"/><path d="M35.32 40.54c0-.04.01-.08.05-.1a8.47 8.47 0 0 0 2.45-3.8c.04-.13.12-.2.25-.24l.5-.15c.07-.02.1 0 .12.06.27.91.45 1.53.53 1.85.24.88-.24 1.5-1.43 1.84-.76.22-1.56.41-2.41.58-.04.01-.06 0-.06-.04ZM19.58 37.05c0-.03.01-.04.04-.05.03 0 .05 0 .06.03a8.95 8.95 0 0 0 2.37 3.47c.02.01.02.04 0 .06 0 .02-.02.03-.05.03l-2.11-.48c-.07 0-.1-.05-.1-.1l-.2-2.96Z" fill="#E30514"/></svg>