<!-- by TradingView --><svg width="56" height="56" viewBox="0 0 56 56" xmlns="http://www.w3.org/2000/svg"><path fill="#F0F3FA" d="M0 0h56v56H0z"/><path fill-rule="evenodd" d="M7.7 29.72c.06-.1.1-.22.12-.37.02-.17 0-.3-.08-.38a1.4 1.4 0 0 0-.48-.35 3.08 3.08 0 0 0-.63-.18c-.6-.12-1.05-.22-1.37-.31-.2-.06-.39-.16-.57-.29a1.25 1.25 0 0 1-.42-.61c-.09-.26-.11-.5-.07-.73.06-.36.19-.67.39-.92.12-.14.28-.26.48-.36.2-.09.4-.15.62-.17.44-.06.86-.06 1.26-.02.8.07 1.3.48 1.51 1.22.06.22.1.44.11.68 0 .04-.01.05-.05.05h-.78c-.05 0-.08-.02-.09-.07l-.07-.35a.74.74 0 0 0-.12-.33 1.1 1.1 0 0 0-.61-.37c-.2-.05-.45-.07-.76-.05-.29.01-.52.08-.7.22a.84.84 0 0 0-.33.6c-.01.18.06.34.23.48.13.12.3.2.5.25.16.05.41.1.76.17.57.11.99.22 1.25.32.33.12.58.32.74.6.1.17.16.4.16.68 0 .33-.02.6-.1.8-.08.25-.24.46-.48.64-.28.22-.73.36-1.36.41-.5.05-.98.01-1.45-.1a1.6 1.6 0 0 1-1-.73 2.02 2.02 0 0 1-.3-1.18c0-.04.02-.06.06-.06h.78c.02 0 .04.01.03.03 0 .2.02.38.09.53.2.47.61.72 1.23.74.3.02.58 0 .82-.07.31-.08.54-.22.68-.42Zm33.32-2.09c.06-.7.27-1.28.64-1.73.24-.3.5-.5.8-.65.28-.14.62-.22 1.02-.24.46-.03.88.01 1.26.11.42.11.76.35 1.02.7.22.32.37.7.44 1.14 0 .02 0 .03-.03.03h-.87c-.02 0-.04 0-.04-.03l-.01-.03c-.05-.2-.1-.36-.15-.45a1 1 0 0 0-.32-.36c-.28-.21-.61-.31-1-.32-.66 0-1.17.26-1.5.78-.25.37-.37.77-.39 1.2 0 .22 0 .44.02.66.04.5.23.92.59 1.3.22.23.49.38.8.44.3.05.62.03.95-.07a1.52 1.52 0 0 0 1-1.17l.06-.34c.01-.02.03-.03.06-.03h.82c.04 0 .06.02.05.06-.02.2-.06.38-.1.55-.12.5-.36.93-.73 1.27-.2.18-.42.31-.65.39a3.85 3.85 0 0 1-1.5.14 2.2 2.2 0 0 1-1.85-1.22 3.86 3.86 0 0 1-.4-2.13Zm-21.3 3.32v-.72c0-.03-.01-.05-.05-.05h-2.72c-.04 0-.06-.02-.06-.05v-5.08c0-.03-.02-.05-.05-.05h-.79c-.03 0-.05.02-.05.05v5.9c0 .03.02.05.05.05h3.62c.04 0 .06-.02.06-.05Zm-10.2-3.18v.05c-.05.5.01.97.16 1.43.09.29.25.57.48.84.23.28.5.49.78.62.29.14.6.23.96.26.28.04.63.04 1.03.01a2.67 2.67 0 0 0 2.56-2.8c.04-.5-.02-.97-.17-1.43-.09-.29-.25-.57-.48-.84-.24-.28-.5-.49-.78-.62-.29-.14-.6-.23-.96-.26a5.93 5.93 0 0 0-1.03-.01 2.67 2.67 0 0 0-2.55 2.75Zm4.94.92c.09-.35.11-.7.08-1.08a2.4 2.4 0 0 0-.2-.77 1.6 1.6 0 0 0-.52-.65 2.13 2.13 0 0 0-1.52-.38 2 2 0 0 0-1.29.61c-.27.29-.44.66-.52 1.13-.06.41-.05.83.05 1.24a2 2 0 0 0 .46.86c.25.29.58.46.98.52.86.12 1.55-.1 2.09-.68.17-.19.3-.45.39-.8Zm12.4-.15v2.41c0 .03-.01.05-.05.05h-.77c-.03 0-.04-.02-.04-.04V25.1c0-.08.04-.11.1-.11h2.73c1 0 1.73.52 1.78 1.56.02.36-.05.7-.2 1.03-.1.22-.27.4-.5.5a.03.03 0 0 0-.01.04c0 .01 0 .02.02.03.14.05.24.1.3.14.1.07.17.16.22.28.03.09.05.24.06.46l.03 1.08c.01.31.11.58.3.82v.04l-.04.02h-.84a.17.17 0 0 1-.17-.1.91.91 0 0 1-.09-.36l-.05-1.28a.62.62 0 0 0-.18-.46.96.96 0 0 0-.7-.27l-1.86-.03c-.03 0-.04.01-.04.04Zm0-2.7c0-.02.01-.03.03-.03h1.85c.27 0 .5.08.7.25.2.17.29.37.29.6v.19c0 .23-.1.44-.29.6-.19.18-.42.26-.7.26l-1.84.01c-.02 0-.03 0-.03-.03v-1.85Zm-5.43 3.4c0-.03.03-.04.05-.03l.2.01a147.84 147.84 0 0 1 1.87.04c.06.02.1.08.13.17l.24.67a9.34 9.34 0 0 1 .3.85c0 .03.03.04.06.04h.85c.04 0 .05-.02.04-.05l-2.11-5.89a.08.08 0 0 0-.08-.05h-.88a.05.05 0 0 0-.05.04l-2.14 5.89v.05l.05.02h.8c.05 0 .08-.02.1-.06l.57-1.7Zm1.05-3.08-.76 2.18c-.01.03 0 .04.03.04h1.53c.03 0 .04-.01.03-.04l-.76-2.18c0-.02-.02-.03-.04-.03l-.03.03ZM36 25.06c0-.03.03-.06.06-.06h4.26c.03 0 .06.03.06.07v.65c0 .04-.03.07-.06.07h-3.48v1.7h3.23c.04 0 .06.03.06.06v.66c0 .03-.02.06-.06.06h-3.23v1.94h3.48c.03 0 .06.03.06.07v.65c0 .04-.03.07-.06.07h-4.26c-.03 0-.06-.03-.06-.07v-5.86ZM31.32 25c-.04 0-.06.03-.06.07v.65c0 .04.02.07.06.07H33v5.14c0 .04.03.07.07.07h.7c.04 0 .07-.03.07-.07V25.8h1.73c.04 0 .06-.03.06-.07v-.65c0-.04-.02-.07-.06-.07h-4.25Zm15.74 0a.07.07 0 0 0-.06.07v5.68c0 .04.03.07.06.07h.68c.03 0 .06-.03.06-.07V28h3.4v2.75c0 .04.03.07.06.07h.68c.03 0 .06-.03.06-.07v-5.68a.07.07 0 0 0-.06-.07h-.68a.07.07 0 0 0-.06.07v2.13h-3.4v-2.13a.07.07 0 0 0-.06-.07h-.68Z" fill="#3A3685"/></svg>