<!-- by TradingView --><svg width="56" height="56" viewBox="0 0 56 56" xmlns="http://www.w3.org/2000/svg"><path fill="#F0F3FA" d="M0 0h56v56H0z"/><path fill-rule="evenodd" d="M27 35v1h2v-1h2c1.5 0 4.6-1 5-5 .4-4 4.83-6.33 7-7-1.83-.17-6 0-8 2-.17-1.67-1.6-5-6-5h-2c-2 0-6.2 1-7 5-.33-.67-2.2-2-7-2 1.67.67 5.5 3.5 6.5 7 .61 2.15 2.5 5 5.5 5h2Zm0-14h-2c-.67 0-2 .4-2 2s1.33 2 2 2v2h-2v2h4v-8Zm2 8v-8c1 0 3 .8 3 4s-2 4-3 4Zm-4 1 3 3 3-3h-6Z" fill="#436199"/><path fill-rule="evenodd" d="M43.1 34.88C46.99 32.95 49 30.45 49 28s-2.02-4.95-5.9-6.88C39.3 19.2 33.96 18 28 18c-5.95 0-11.3 1.2-15.1 3.12C9.01 23.05 7 25.55 7 28s2.02 4.95 5.9 6.88C16.7 36.8 22.04 38 28 38c5.95 0 11.3-1.2 15.1-3.12ZM28 39c12.15 0 22-4.92 22-11s-9.85-11-22-11S6 21.92 6 28s9.85 11 22 11Z" fill="#436199"/></svg>