<!-- by TradingView --><svg width="56" height="56" viewBox="0 0 56 56" xmlns="http://www.w3.org/2000/svg"><path fill="#F0F3FA" d="M0 0h56v56H0z"/><path d="M42.62 31h-.78c-.23 0-.34-.1-.34-.3 0-.2.11-.3.34-.3h.78c.42 0 .38-.1.38-.31V30h-1.55c-.97 0-1.45-.48-1.45-1.2v-1.48c0-.21.25-.32.5-.32s.5.1.5.32v1.54c0 .28.22.43.65.43H43v-1.97c0-.21.25-.32.5-.32s.5.1.5.32v2.76c0 .61-.46.92-1.38.92ZM37.53 30h-2.1c-.95 0-1.43-.27-1.43-.81v-.35c0-.54.48-.84 1.44-.84H38v-.08c0-.21-.1-.32-.56-.32h-.84c-.27 0-.41-.1-.41-.3 0-.2.14-.3.41-.3h.84c1.04 0 1.56.3 1.56.91v1.22c0 .58-.49.87-1.47.87Zm-.06-.6c.44 0 .53-.1.53-.3v-.59h-2.48c-.43 0-.52.12-.52.31v.3c0 .18.1.28.52.28h1.95ZM31.93 29.9 29 28.08v1.53c0 .26-.22.39-.5.39-.27 0-.5-.13-.5-.4v-4.28c0-.21.11-.32.34-.32h2.78c1.25 0 1.88.42 1.88 1.27v.5c0 .82-.63 1.23-1.88 1.23h-.99l2.3 1.23c.16.08.23.2.23.37 0 .27-.14.4-.42.4a.6.6 0 0 1-.3-.1ZM29 25.83v1.47h2.15c.69 0 .85-.18.85-.54v-.45c0-.36-.16-.54-.85-.54h-2.1c-.03 0-.05.02-.05.05Z" fill="#989999"/><path d="M26 29.68v-1.72c0-.22-.23-.34-.68-.34h-.64c-.45 0-.68.12-.68.34v1.72c0 .21-.25.32-.5.32s-.5-.1-.5-.32v-1.71c0-.65.48-.97 1.45-.97h1.1c.96 0 1.45.32 1.45.97v1.7c0 .22-.25.33-.5.33s-.5-.1-.5-.32ZM19 27c.18 0 .32.08.4.25l.95 1.75.87-1.77c.07-.15.2-.23.38-.23.27 0 .4.1.4.3 0 .06-.02.13-.06.2l-1.17 2.24a.56.56 0 0 1-.16.2.45.45 0 0 1-.25.06.45.45 0 0 1-.23-.05.54.54 0 0 1-.17-.2L19 28l-.96 1.75c-.05.1-.1.16-.16.2a.45.45 0 0 1-.24.05.47.47 0 0 1-.25-.06.6.6 0 0 1-.16-.2l-1.17-2.23a.46.46 0 0 1-.06-.2c0-.2.14-.31.4-.31.2 0 .32.08.4.23l.85 1.76.94-1.74c.05-.09.1-.15.16-.2A.44.44 0 0 1 19 27ZM13.55 30h-1.1c-.97 0-1.45-.33-1.45-.98v-1.05c0-.65.48-.97 1.45-.97h1.1c.97 0 1.45.32 1.45.97v1.05c0 .65-.48.98-1.45.98Zm.45-.97v-1.06c0-.23-.22-.34-.67-.34h-.65c-.45 0-.68.11-.68.34v1.06c0 .23.23.34.68.34h.65c.45 0 .67-.11.67-.34ZM8 29.6v-3.83H6.4c-.26 0-.4-.13-.4-.39 0-.25.14-.38.4-.38h4.19c.27 0 .41.12.41.37 0 .27-.14.4-.41.4H9v3.83c0 .27-.2.4-.49.4-.3 0-.51-.13-.51-.4Z" fill="#009DD9"/><path d="M46.03 28a8 8 0 0 1-15.42 3h.81a7.26 7.26 0 1 0 6.6-10.26c-2.06 0-3.71.87-5.03 2.26H32c1.47-1.83 3.5-3 6.03-3a8 8 0 0 1 8 8Z" fill="#1671B3"/><path d="M48 28c0 5.52-4.44 10-9.91 10a9.82 9.82 0 0 1-9.03-6H30a8.9 8.9 0 0 0 8 5 9 9 0 1 0-7.48-14H29.5A9.9 9.9 0 0 1 48 28Z" fill="#009DD9"/><path d="M8 31h23.14v.7H8.53L8 31Z" fill="#1671B3"/><path d="M9 32h21v.4H9V32Z" fill="#009DD9"/></svg>