<!-- by TradingView --><svg width="56" height="56" viewBox="0 0 56 56" xmlns="http://www.w3.org/2000/svg"><path fill="#F0F3FA" d="M0 0h56v56H0z"/><path fill-rule="evenodd" d="M5 21c-.55 0-1 .57-1 1.27V29c0 2.76 2.26 5 5.06 5 2.79 0 5.05-2.24 5.05-5s-2.26-5-5.05-5c-1.15 0-2.21.38-3.06 1.02v-2.75c0-.7-.45-1.27-1-1.27Zm1 8a3 3 0 1 0 6 0 3 3 0 0 0-6 0ZM15 29a5 5 0 1 1 10 .05l-.02 3.75c0 .66-.44 1.2-.99 1.2-.5 0-.9-.44-.98-1A5 5 0 0 1 15 29Zm2 0a3 3 0 1 1 6 0 3 3 0 0 1-6 0Z" fill="#1B96D5"/><path d="M28.98 32.85c0 .63-.44 1.15-.99 1.15s-.99-.52-.99-1.15l.02-6.7c0-.64.44-1.15.99-1.15s1 .52.99 1.15l-.02 6.7Z" fill="#1B96D5"/><circle cx="28" cy="23" r="1" fill="#1B96D5"/><path fill-rule="evenodd" d="M50.35 24.76a5.4 5.4 0 0 0-7.98 0l-2.09 2.22-1.32-1.53a4.47 4.47 0 0 0-6.6 0 5.2 5.2 0 0 0 0 7.03 4.47 4.47 0 0 0 6.6 0l1.3-1.5 2.11 2.26a5.4 5.4 0 0 0 7.98 0 6.27 6.27 0 0 0 0-8.48ZM38.39 29l-1.29 1.41a1.7 1.7 0 0 1-2.57 0c-.7-.78-.7-2.04 0-2.82a1.7 1.7 0 0 1 2.57 0l1.29 1.4Zm9.76-2.12a2.83 2.83 0 0 0-4.1 0L42 29l2.05 2.12a2.83 2.83 0 0 0 4.1 0 3.07 3.07 0 0 0 0-4.24Z" fill="url(#a)"/><path d="M40.31 31.04 38.38 29l-1.13 1.26 1.88 2.04 1.18-1.26Z" fill="url(#b)"/><defs><linearGradient id="a" x1="52" y1="29" x2="31" y2="29" gradientUnits="userSpaceOnUse"><stop stop-color="#EAE400"/><stop offset=".83" stop-color="#1A96D5"/></linearGradient><linearGradient id="b" x1="39.17" y1="29.86" x2="37.97" y2="31.01" gradientUnits="userSpaceOnUse"><stop stop-color="#2990B7"/><stop offset="1" stop-color="#40A4B0"/></linearGradient></defs></svg>