<!-- by TradingView --><svg width="56" height="56" viewBox="0 0 56 56" xmlns="http://www.w3.org/2000/svg"><path fill="#F0F3FA" d="M0 0h56v56H0z"/><path d="M10.22 23c-.12 0-.22.1-.22.23V24H7.5a.5.5 0 0 0-.5.5v1c0 .28.22.5.5.5h2.4c-.07.72-.18 1.45-.34 2.17a6.9 6.9 0 0 1-2.34 4 .55.55 0 0 0-.13.74l.57.86c.15.24.48.3.7.13a8.91 8.91 0 0 0 3.2-5.26c.2-.89.32-1.78.37-2.64H16v6c0 1.1.9 2 2 2h1.5a.5.5 0 0 0 .5-.5v-1a.5.5 0 0 0-.5-.5h-1a.5.5 0 0 1-.5-.5V26a2 2 0 0 0-2-2h-4v-.73a.27.27 0 0 0-.26-.27h-1.52ZM39.22 23c-.12 0-.22.1-.22.23V24h-2.5a.5.5 0 0 0-.5.5v1c0 .28.22.5.5.5h2.4a16.1 16.1 0 0 1-.34 2.17 6.9 6.9 0 0 1-2.34 4 .55.55 0 0 0-.13.74l.57.86c.15.24.48.3.7.13a8.91 8.91 0 0 0 3.2-5.26c.2-.89.32-1.78.37-2.64H45v6c0 1.1.9 2 2 2h1.5a.5.5 0 0 0 .5-.5v-1a.5.5 0 0 0-.5-.5h-1a.5.5 0 0 1-.5-.5V26a2 2 0 0 0-2-2h-4v-.73a.27.27 0 0 0-.26-.27h-1.52ZM32.62 24.04c.27-.06.43-.34.37-.62l-.23-1.01a.5.5 0 0 0-.6-.4c-2.98.66-7.36.87-9.67.9-.27 0-.49.24-.49.53v1.04c0 .29.22.52.5.52.9-.01 2.14-.05 3.5-.13V26h-3.5a.5.5 0 0 0-.5.5v1c0 .28.22.5.5.5H26v1h-3.5a.5.5 0 0 0-.5.5v1c0 .28.22.5.5.5H26v.02c0 1.72 2.28 2.98 4.05 2.98 1.76 0 3.04-.45 3.76-.9.24-.16.25-.49.04-.68l-.68-.65c-.2-.19-.5-.19-.75-.07-.62.3-1.44.3-2.1.3h-.17c-.45 0-2.03-.3-2.14-1h4.49a.5.5 0 0 0 .5-.5v-1a.5.5 0 0 0-.5-.5H28v-1h4.5a.5.5 0 0 0 .5-.5v-1a.5.5 0 0 0-.5-.5H28v-1.28c1.6-.15 3.24-.37 4.62-.68Z" fill="#DBB572"/></svg>