<!-- by TradingView --><svg width="56" height="56" viewBox="0 0 56 56" xmlns="http://www.w3.org/2000/svg"><path fill="#F0F3FA" d="M0 0h56v56H0z"/><path d="M48 27.52v.93c-.06.23-.1.48-.13.72a5.67 5.67 0 0 1-1.29 2.8c-.1.12-.64.68-1.61 1.68l-4.48 4.58a6.1 6.1 0 0 1-1.93 1.36 6.25 6.25 0 0 1-5.25-.34 9.74 9.74 0 0 1-1.75-1.53l-3.37-3.47c-.13-.13-.25-.13-.38 0l-3.55 3.65a8.37 8.37 0 0 1-1.73 1.45c-.7.38-1.43.59-2.2.63-.91.05-1.65 0-2.2-.15a6.67 6.67 0 0 1-3.02-2c-.44-.48-2.17-2.25-5.19-5.31a5.9 5.9 0 0 1-1.77-3.31c-.04-.26-.09-.5-.15-.76v-.84c.07-.3.12-.62.18-.94.18-1.13.89-2.32 2.11-3.58 3.17-3.24 4.97-5.07 5.42-5.5a5.33 5.33 0 0 1 3.28-1.54c.98-.1 1.85-.03 2.6.2.77.23 1.45.64 2.04 1.22 1.3 1.3 2.68 2.73 4.17 4.29.13.13.25.13.37 0l2.96-3.05A17.4 17.4 0 0 1 33 16.98c.72-.53 1.6-.84 2.63-.95 1.4-.14 2.67.18 3.81.95.56.38 1.23.97 2.01 1.77.35.35.86.9 1.53 1.65.67.75 1.16 1.27 1.46 1.58.77.77 1.52 1.54 2.25 2.32.5.53.86 1.25 1.06 2.15l.25 1.07Zm-22.15.14L24.23 26c-.08-.07-.08-.15 0-.22l1.97-2c.05-.07.05-.12 0-.18l-3.14-3.19a9.18 9.18 0 0 0-1.62-1.38 3.24 3.24 0 0 0-2.1-.5c-.71.08-1.53.6-2.45 1.53a798.45 798.45 0 0 0-5.24 5.38 3.56 3.56 0 0 0-.83 3.9 8 8 0 0 0 1.54 1.95c.58.61 2 2.06 4.23 4.34a7.42 7.42 0 0 0 2.04 1.63c1.24.52 2.43.2 3.55-.95l3.9-3.99c.07-.07.07-.14 0-.21l-6.17-6.3c-.14-.14-.28-.13-.42.02l-1.76 2.02c-.1.12-.1.23.01.33l2.03 2.07c.03.03.05.03.08 0l1.83-1.87c.08-.07.15-.07.22 0l1.57 1.6c.09.09.09.18 0 .26L19.9 33.9c-.06.06-.13.06-.19 0l-5.65-5.77c-.08-.08-.08-.15 0-.23l5.67-5.79c.05-.05.1-.05.15 0l7.97 8.12c.1.1.2.1.3 0l1.76-1.8c.07-.06.15-.1.24-.1.1 0 .18.04.24.1l1.29 1.31c.18.2.18.39 0 .58l-1.74 1.76c-.09.1-.09.2 0 .29l3.41 3.47a7.24 7.24 0 0 0 1.74 1.43c.74.34 1.52.34 2.35 0a6.37 6.37 0 0 0 1.78-1.44l4.69-4.8a6.9 6.9 0 0 0 1.2-1.45c.27-.56.38-1.2.33-1.93a2.78 2.78 0 0 0-.4-1.28c-.24-.39-.46-.7-.67-.91-.52-.55-2.35-2.42-5.5-5.61-.8-.82-1.61-1.25-2.43-1.3a3.3 3.3 0 0 0-2.61 1.13 316.5 316.5 0 0 1-3.9 3.98c-.08.09-.08.18 0 .27l6.16 6.27c.12.12.24.12.36 0l2.02-2.07c.09-.08.09-.17 0-.26l-2.05-2.09c-.1-.1-.19-.1-.29 0l-1.8 1.84c-.08.08-.17.08-.25 0l-1.56-1.59c-.08-.09-.08-.18 0-.27l3.62-3.68c.03-.04.06-.04.1 0L42.04 28c.06.06.06.12 0 .18l-5.69 5.8c-.05.06-.11.06-.17 0l-8-8.15c-.12-.14-.26-.14-.39 0L26 27.66c-.05.05-.1.05-.15 0Z" fill="#3255F0"/></svg>