<!-- by TradingView --><svg width="56" height="56" viewBox="0 0 56 56" xmlns="http://www.w3.org/2000/svg"><path d="M0 28a28 28 0 1 1 56 0 28 28 0 0 1-56 0Z" fill="#F0F3FA"/><path d="M40.67 19.43c-.16-.03-.38 0-.53 0-2.2 0-4.52 1.12-5.89 1.93-1.37.78-3.1 2.18-2.56 4.5.55 2.31 1.59 5.89 1.59 5.89s2.41 4.84 9.8 3.9l.23-2.17c-.21.19-1.46.95-3.05.95-3.78 0-5.18-3.27-5.18-3.27s-1.25-2.82-1.93-5.38a4.3 4.3 0 0 1-.15-1.22c.04-1.62 1.31-2.23 1.31-2.23l3.05-1.38s.82-.42 2.25-.45h1.06v-1.07Z" fill="url(#aam4msp5z)"/><path d="m43.25 35.45.06-2 .03-.03S45 30.92 45 28.03c0-2.6-1.4-6.93-4.33-7.53v-1.07c.64.1 1.64.5 2.2.78A11.2 11.2 0 0 1 46 28c0 2.88-.53 5.23-2.46 7.45h-.29Z" fill="url(#bam4msp5z)"/><path d="m19.1 15.48 4.75 3.47S27 21 27 24.54c-.01.4-.05.82-.14 1.27-.85 4.63-2 7.76-2 7.76s-.58 3.35-3.97 5.36l-2.77 1.63-3.3-2.16 7.54-3.04L25 23.99l-2.96-3.72-7.04-3.2 4.1-1.6Z" fill="url(#cam4msp5z)"/><path d="m36.9 15.48-4.66 3.47s-3.25 1.75-3.24 5.4c0 .45.04.94.14 1.46.85 4.63 2.1 7.76 2.1 7.76s.57 3.35 3.96 5.36l2.77 1.63 3.27-2.13-7.54-3.04-2.62-11.4 2.96-3.72 7.04-3.23-4.17-1.56Z" fill="url(#dam4msp5z)"/><path d="m13.57 35.83-.76-2.38-.03-.03S11 30.88 11 28c0-2.6 1.6-6.7 4.5-7.42v-1.2c-.64.1-1.99-.09-2.54.2a14.14 14.14 0 0 0-3.5 8.76c0 2.89 1.77 5.99 3.81 7.68.03 0 .3-.2.3-.2Z" fill="url(#eam4msp5z)"/><path d="m38.06 16.48-5.32 3.32s-2.72 1.69-2.74 4.8c0 .4.04.82.13 1.27.8 3.91 1.88 7.05 1.88 7.05s.82 3.16 3.08 4.22c1.46.7 2.93 1.45 3.79 1.86 2.22-.79 3.17-2.24 4.21-3.46-1.43.65-8.3-.21-9.2-3.75 0 0-1.17-3.7-1.75-5.98-.09-.37-.13-.7-.14-1.02-.03-1.7 1.08-2.78 2.23-3.46 1.38-.81 3.75-1.9 5.94-1.9.86 0 1.92.32 2.62.73a17.2 17.2 0 0 0-4.73-3.68Z" fill="url(#fam4msp5z)"/><path fill-rule="evenodd" d="M28 13c10.5 0 19 6.7 19 15s-8.5 15-19 15S9 36.3 9 28s8.5-15 19-15Zm0 1c9.76 0 18 6.33 18 14s-8.24 13.93-18 13.93S10 35.67 10 28s8.24-14 18-14Z" fill="url(#gam4msp5z)"/><path d="M9.06 29.13c.1-.38.24-.75.46-1.07.41-1.06.38-2.13.84-3.5.1-.29.3-.44.49-.63A10.79 10.79 0 0 0 10 28c0 7.1 7.11 12.96 15.9 13.78l-1.99.81c-8.05-1.34-14.2-6.8-14.85-13.46Z" fill="url(#ham4msp5z)"/><path d="M17.45 39.19c.22.12 1.77.27 2.1.33C22.06 40.65 24.9 41 28 41c3.05 0 5.92-.32 8.39-1.44.82-.16 1.43-.17 2.17-.35A20.23 20.23 0 0 1 28 42c-3.96 0-7.59-1.06-10.55-2.81Z" fill="url(#iam4msp5z)"/><path d="M36 16.15h1.5C34.7 14.62 31.72 14 28 14c-3.57 0-6.72.75-9.5 2.16h1.51C22.4 15.13 25.11 15 28 15c2.93 0 5.58.12 8 1.15Z" fill="url(#jam4msp5z)"/><path d="M15.5 19.43h.45c2.2 0 4.55 1.12 5.92 1.93 1.37.78 2.6 2.16 2.04 4.48a99.27 99.27 0 0 1-1.73 5.98s-1.58 6.88-8.9 4.09l-.48-2.47c.22.2 1.45.99 3.03.99 3.78 0 5.19-3.27 5.19-3.27s1.15-2.82 1.82-5.38c.12-.44.17-.84.16-1.18a2.59 2.59 0 0 0-1.22-2.27l-3.05-1.38s-.8-.42-2.23-.45c-.36 0-.7-.02-1.03.08.03-.03.03-1.15.03-1.15Z" fill="url(#kam4msp5z)"/><path d="m18 16.4 5.33 3.4S26 21.5 26 24.6c0 .4-.04.82-.13 1.27-.8 3.91-1.83 7.05-1.83 7.05s-.83 3.16-3.08 4.22L17.08 39c-1.46-.88-3-2.01-4-3.32.26.19.77.32 1.42.32 2.45 0 6.95-1.39 7.64-4.18 0 0 1.13-3.7 1.71-5.98.1-.4.15-.77.15-1.12-.01-1.63-1.06-2.69-2.2-3.36-1.36-.81-3.71-1.86-5.9-1.86-.86 0-1.98.17-2.68.58A17.72 17.72 0 0 1 18 16.4Z" fill="url(#lam4msp5z)"/><defs><linearGradient id="aam4msp5z" x1="37.69" y1="19.33" x2="38.95" y2="36.17" gradientUnits="userSpaceOnUse"><stop offset=".1" stop-color="#010101"/><stop offset=".24" stop-color="#7B7B7B"/><stop offset=".82" stop-color="#7D7C81"/><stop offset=".92" stop-color="#010101"/></linearGradient><linearGradient id="bam4msp5z" x1="43.16" y1="19.39" x2="32.58" y2="33.72" gradientUnits="userSpaceOnUse"><stop offset=".32" stop-color="#010101"/><stop offset=".41" stop-color="#F6F6F6"/></linearGradient><linearGradient id="cam4msp5z" x1="21.81" y1="15.51" x2="18.12" y2="40.53" gradientUnits="userSpaceOnUse"><stop stop-color="#ACACAE"/><stop offset=".37" stop-color="#111"/><stop offset=".7" stop-color="#010101"/><stop offset="1" stop-color="#B0AFB4"/></linearGradient><linearGradient id="dam4msp5z" x1="29.74" y1="16.76" x2="36.15" y2="40.79" gradientUnits="userSpaceOnUse"><stop stop-color="#E9E9EB"/><stop offset=".26" stop-color="#919191"/><stop offset=".72" stop-color="#0E0E0E"/><stop offset="1" stop-color="#7E7D82"/></linearGradient><linearGradient id="eam4msp5z" x1="12.96" y1="19.39" x2="12.96" y2="35.83" gradientUnits="userSpaceOnUse"><stop stop-color="#020202"/><stop offset=".9" stop-color="#828282"/></linearGradient><linearGradient id="fam4msp5z" x1="37.52" y1="15.82" x2="39.44" y2="40.86" gradientUnits="userSpaceOnUse"><stop offset=".17" stop-color="#F9F9F9"/><stop offset="1" stop-color="#5E5E5E"/></linearGradient><linearGradient id="gam4msp5z" x1="15.4" y1="15.35" x2="40.02" y2="41" gradientUnits="userSpaceOnUse"><stop stop-color="#FAFAFA"/><stop offset="1" stop-color="#111"/></linearGradient><linearGradient id="ham4msp5z" x1="10.68" y1="22.86" x2="20.07" y2="41.93" gradientUnits="userSpaceOnUse"><stop offset=".09" stop-color="#0C0B0E"/><stop offset=".94" stop-color="#656565"/></linearGradient><linearGradient id="iam4msp5z" x1="39.96" y1="38.99" x2="16.17" y2="38.99" gradientUnits="userSpaceOnUse"><stop stop-color="#E4E4E4"/><stop offset="1" stop-color="#818084"/></linearGradient><linearGradient id="jam4msp5z" x1="38.58" y1="16.44" x2="17.84" y2="16.44" gradientUnits="userSpaceOnUse"><stop stop-color="#696969"/><stop offset="1" stop-color="#030303"/></linearGradient><linearGradient id="kam4msp5z" x1="18.41" y1="19.33" x2="16.05" y2="36.47" gradientUnits="userSpaceOnUse"><stop offset=".1" stop-color="#030303"/><stop offset=".21" stop-color="#E7E7E7"/><stop offset=".34" stop-color="#C0C0C2"/><stop offset=".67" stop-color="#C1C0C5"/><stop offset=".77" stop-color="#F0F0F0"/><stop offset=".86" stop-color="#444"/></linearGradient><linearGradient id="lam4msp5z" x1="19.25" y1="15.66" x2="19.25" y2="40.4" gradientUnits="userSpaceOnUse"><stop stop-color="#FEFEFE"/><stop offset="1" stop-color="#6E6E6E"/></linearGradient></defs></svg>