<!-- by TradingView --><svg width="56" height="56" viewBox="0 0 56 56" xmlns="http://www.w3.org/2000/svg"><path fill="#D68333" d="M0 0h56v56H0z"/><path d="M31.18 19.1c-.95-1.23-2.85-1.4-4.23-1.17-1.05.18-2.29.76-2.71 1.8-.37.91.22 1.92.86 2.6.3.3.64.6 1.04.89.8.55 1.75 1.07 2.88 1.57l3.3 1.43c1.02.44 2 .93 2.95 1.5 1.34.79 2.63 1.85 3.48 3.15a7.52 7.52 0 0 1 1.04 5.97 6.63 6.63 0 0 1-3.17 4.21c-.97.58-1.98 1.01-3.04 1.3-1.42.37-2.9.58-4.43.64H26.7a18.25 18.25 0 0 1-3.12-.3 11.02 11.02 0 0 1-5.56-2.8 6.68 6.68 0 0 1-1.98-3.86 3.5 3.5 0 0 1 1.43-3.46c1.05-.77 2.79-.91 4.04-.68.79.15 1.38.6 1.78 1.32.46.85.56 2.02.76 2.76.26 1.02.84 1.7 1.8 2.16.6.28 1.23.44 1.9.46.53.03.99.01 1.34-.04a4 4 0 0 0 2.66-1.37c.34-.45.41-.98.43-1.57a3.04 3.04 0 0 0-1.36-2.69c-.53-.38-.99-.68-1.38-.9a33.02 33.02 0 0 0-2.6-1.37c-.73-.33-1.45-.65-2.16-.99a32.24 32.24 0 0 1-5.07-2.97c-.8-.57-1.34-1-1.61-1.3a6.15 6.15 0 0 1-1.52-4.76c.14-1.8.83-3.29 2.08-4.47.74-.7 1.6-1.28 2.6-1.75a15.2 15.2 0 0 1 6.9-1.4c1.49.03 2.96.26 4.42.69 1.4.41 2.63.95 3.66 1.62a7.96 7.96 0 0 1 1.91 1.8c.56.7.98 1.44 1.25 2.2.25.7.32 1.75-.09 2.4-.26.43-.63.75-1.12.97-.86.38-1.77.58-2.74.6-.32 0-.7-.05-1.13-.14-.74-.14-1.58-.46-2-1.1-.58-.87-.41-2.17-1.03-2.96Z" fill="#fff"/></svg>