<!-- by TradingView --><svg width="56" height="56" viewBox="0 0 56 56" xmlns="http://www.w3.org/2000/svg"><path fill="#F0F3FA" d="M0 0h56v56H0z"/><path d="M24 11a17.57 17.57 0 0 0-13 17c0 8.16 5.52 15.02 13 17v-7c-3.83-1.65-7-5.2-7-10.1 0-4.9 3.17-8.25 7-9.9v-7ZM45 31a17.62 17.62 0 0 1-13 14v-7c2.82-1.25 5.07-4 6-7h7Z" fill="#22202E"/><path d="M45 24a17.8 17.8 0 0 0-13-13v7c2.52 1.1 4.9 3.48 6 6h7Z" fill="#FFDB38"/><path d="m44.9 23.63.1.37h-7c-1.05-2.4-3.65-4.87-6-6 7.57-.29 11.73 3.6 12.9 5.63Z" fill="#FFA52D"/></svg>