<!-- by TradingView --><svg xmlns="http://www.w3.org/2000/svg" width="56" height="56"><path fill="#F0F3FA" d="M0 0h56v56H0z"/><path d="M5 25H4v7h1v-7zm3 2v-1H7v6h1v-3.56c0-.56.71-1.44 1.65-1.44.92 0 1.35.81 1.35 1.6V32h1v-3.54c.01-1.38-.97-2.46-2.29-2.46-.94 0-1.61.64-1.71 1zm7-1v1c.1-.36.77-1 1.71-1 1.32 0 2.3 1.08 2.29 2.46V32h-1v-3.4c0-.79-.43-1.6-1.35-1.6-.94 0-1.65.88-1.65 1.44V32h-1v-6h1zm29 1v-1h-1v6h1v-3.56c0-.56.71-1.44 1.65-1.44.92 0 1.35.81 1.35 1.6V32h1v-3.54c.01-1.38-.97-2.46-2.29-2.46-.94 0-1.61.64-1.71 1zm-15-1l2.5 6h1l2.5-6h-1l-2 5-2-5h-1zm23 0v1h-1v3.32c0 .73.53.7.87.69L52 31v.93c-.25.05-.49.08-.7.07-.76-.02-1.32-.38-1.3-1.41V27h-1v-1h1v-1h1v1h1zm-10.46 4a3.14 3.14 0 01-2.85 2 3 3 0 010-6c2.05 0 3.2 1.86 3 3.5h-4.93c.1.5.68 1.5 1.94 1.5a2 2 0 001.71-1h1.13zm-2.85-3a2 2 0 00-1.93 1.5h3.86A1.99 1.99 0 0038.7 27z" fill="#025592"/><path d="M24.45 25c1.05.02 1.8.44 2.06.6-2.17-.1-4.54 1.05-4.54 3.07a2.5 2.5 0 002.67 2.6c.7-.06 1.26-.53 1.5-.73.22-.11.18.05.14.14-.54.85-1.64 1.27-2.61 1.27a3.21 3.21 0 01-3.17-3.28c.02-2.52 2.27-3.7 3.95-3.67z" fill="url(#axnsd1pvt)"/><path d="M24.55 33a4.06 4.06 0 01-2.06-.6c2.17.1 4.54-1.05 4.54-3.07 0-2.02-1.6-2.7-2.67-2.6a2.9 2.9 0 00-1.5.73c-.21.11-.18-.05-.14-.14.54-.85 1.64-1.27 2.62-1.27 1.05 0 3.17.83 3.16 3.28-.01 2.52-2.26 3.7-3.95 3.67z" fill="url(#bxnsd1pvt)"/><defs><linearGradient id="axnsd1pvt" x1="25.8" y1="25.45" x2="21.11" y2="30.51" gradientUnits="userSpaceOnUse"><stop stop-color="#9DD8F8"/><stop offset="1" stop-color="#0158A6"/></linearGradient><linearGradient id="bxnsd1pvt" x1="23.49" y1="32.82" x2="27.88" y2="27.29" gradientUnits="userSpaceOnUse"><stop stop-color="#9DD8F8"/><stop offset="1" stop-color="#0158A6"/></linearGradient></defs></svg>