<!-- by TradingView --><svg width="56" height="56" viewBox="0 0 56 56" xmlns="http://www.w3.org/2000/svg"><path fill="#F0F3FA" d="M0 0h56v56H0z"/><path fill-rule="evenodd" d="M19.7 31.53A6.78 6.78 0 0 1 13.82 35 6.91 6.91 0 0 1 7 28c0-3.87 3.05-7 6.82-7a6.78 6.78 0 0 1 5.84 3.39l-2.36 1.35a4 4 0 1 0-.01 4.54l2.41 1.25ZM21 21h7.6a3.9 3.9 0 0 1 2.36 7 3.9 3.9 0 0 1-2.36 7H21V21Zm3 3h4.26c.69 0 1.24.56 1.24 1.25s-.55 1.25-1.24 1.25H24V24Zm0 5.5h4.26c.69 0 1.24.56 1.24 1.25S28.95 32 28.26 32H24v-2.5ZM38 21h-3v14h3v-4.14l2.33-2.43L44.6 35H48l-5.56-8.77L47.46 21H43.6L38 26.77V21Z" fill="#4C4C4C"/></svg>