<!-- by TradingView --><svg width="56" height="56" viewBox="0 0 56 56" xmlns="http://www.w3.org/2000/svg"><path fill="#F0F3FA" d="M0 0h56v56H0z"/><path d="M23.12 18.44c.18-.05.26.02.26.2v1.6a.5.5 0 0 1-.3.48 10.74 10.74 0 0 0-4.47 3.92 34.82 34.82 0 0 0-2.2 4.21c-.28.6-.34 1.05-.2 1.38.26.63.7.82 1.3.57.57-.24.92-.62 1.07-1.14.26-.87.49-1.61.7-2.24.32-.92.87-1.3 1.68-1.14.38.07.82.23 1.32.46.52.25.95.5 1.27.78.12.11.18.25.15.42a.43.43 0 0 1-.29.34c-.13.06-.3.08-.52.06-.82-.07-1.64-.15-2.45-.24-.44-.05-.75.1-.94.47a17.84 17.84 0 0 0-1.85 5.57c-.1.66-.06 1.16.12 1.52.3.57.82.87 1.55.88a9.3 9.3 0 0 0 5.92-1.89c.1-.07.16-.05.2.06a3.45 3.45 0 0 0 3.3 2.41c1.39.16 2.45.2 3.18.14 1.34-.1 2.04-.53 2.09-1.25.02-.35-.13-.81-.46-1.4a11.1 11.1 0 0 1-.87-1.7c-.2-.54-.23-1-.08-1.36.4-.99.82-2.02 1.27-3.08.09-.22.26-.33.5-.33h1.4c.15 0 .22.07.22.21-.06 1-.27 2.17-.62 3.5-.5 1.9-.93 3.65-1.26 5.26-.28 1.37-.28 2.38 0 3.05.28.69.51 1.1.7 1.23A13.9 13.9 0 0 1 38 44.8c.2.3.31.26.34-.08a34.73 34.73 0 0 1 .76-4.8c.75-3.54 1.25-6.11 1.48-7.73.37-2.6.49-5.06.36-7.41-.16-3-1.15-5.61-2.97-7.83a13.41 13.41 0 0 0-5.2-3.75 16.01 16.01 0 0 0-9.55-.85c-3.1.6-6.1 1.87-8.97 3.81-.38.26-.34.4.12.43a7.02 7.02 0 0 1 5.52 3.18c.06.08.13.1.21.04 1-.63 2-1.08 3.01-1.37Zm5.32 1.77a9.52 9.52 0 0 0-3.6-.08c-.13.02-.2-.03-.2-.17v-1.61c0-.14.07-.21.21-.22 2.16-.11 4.01.19 5.56.91.2.1.25.24.13.43l-.6 1c-.08.14-.2.18-.36.12-.55-.2-.93-.34-1.14-.38Zm6.45 2.67a7.87 7.87 0 0 1 1.09 3.8c0 .18-.09.27-.28.27h-1.3c-.19 0-.3-.08-.33-.25-.2-1.06-.53-2-1.02-2.85a9.39 9.39 0 0 0-1.95-2.35c-.13-.11-.15-.25-.05-.4l.7-1.06c.1-.15.23-.18.38-.08a8.2 8.2 0 0 1 2.76 2.92Z" fill="#122849"/></svg>