<!-- by TradingView --><svg width="56" height="56" viewBox="0 0 56 56" xmlns="http://www.w3.org/2000/svg"><path fill="#F0F3FA" d="M0 0h56v56H0z"/><path d="M28 9a47.99 47.99 0 0 1 2.33 4.26c.1.43.3 2.65.38 3.7C35.14 17.68 44 21.26 44 29.94 44 40.9 33.33 43.2 28 42.99c-5.33.22-16-2.08-16-13.06 0-8.68 8.86-12.26 13.3-12.96.07-1.06.26-3.28.37-3.71.11-.44 1.6-3.02 2.33-4.26Zm-1.23 11.84c.12-.73.24-1.44 1.23-1.44s1.11.71 1.23 1.44c.09.5.17 1 .55 1.28 1.7.59 2.04 1.89 2.22 2.46v3.36a3.3 3.3 0 0 1 1.04 0c.09.05-.02.3-.16.65-.19.43-.43 1-.43 1.5 0 .26.04.57.07.88.07.76.15 1.52-.24 1.52-.44 0-.64-.26-.68-.38-.1.48-.6.83-1.03 1.15-.41.3-.57.57-.57.9 0 1.15.33 1.84 2.83 1.84S38 33.83 38 28.97c0-7.17-7.3-9.57-8.05-9.57-.75 0-1.71-.93-1.71-1.54 0-.22.08-.48.19-.82.18-.58.43-1.39.43-2.57 0-2.35-.57-3.62-.86-3.97-.29.35-.86 1.62-.86 3.97 0 1.18.25 1.99.43 2.57.1.34.19.6.19.82 0 .61-.96 1.54-1.71 1.54-.76 0-8.05 2.4-8.05 9.57 0 4.86 2.67 7.03 5.17 7.03S26 35.3 26 34.15c0-.32-.16-.6-.57-.9-.44-.31-.92-.66-1.03-1.14-.04.12-.24.38-.68.38-.4 0-.31-.76-.24-1.52.03-.31.07-.62.07-.88 0-.5-.24-1.07-.43-1.5-.14-.35-.25-.6-.16-.65a3.3 3.3 0 0 1 1.04 0v-3.36c.18-.57.52-1.87 2.22-2.46.38-.28.46-.78.55-1.28Z" fill="#784524"/></svg>