<!-- by TradingView --><svg width="56" height="56" viewBox="0 0 56 56" xmlns="http://www.w3.org/2000/svg"><path fill="#F0F3FA" d="M0 0h56v56H0z"/><circle cx="18.5" cy="27.5" r="11.5" fill="url(#a)"/><circle cx="18.39" cy="27.82" r="10.53" fill="url(#b)"/><circle cx="18.29" cy="28.79" r="9.57" fill="url(#c)"/><circle cx="18.5" cy="29" fill="url(#d)" r="8.71"/><circle cx="19.79" cy="29" r="8.06" fill="url(#e)"/><ellipse cx="20.54" cy="29.22" rx="7.31" ry="7.85" fill="#ED2B2C"/><circle cx="19.57" cy="28.36" fill="url(#f)" r="5.91"/><path d="M19.14 33.41a4.84 4.84 0 1 0-.27-9.66 4.3 4.3 0 1 1-4.55 4.55l-.01.27a4.84 4.84 0 0 0 4.83 4.84Z" fill="#ED252F"/><path d="M25.43 27.36c.27.4.91.64 1.05 1.1.06.22.07.5.02.8-.43.17-.84.25-1.24.25-.3 0-.54.11-.72.33l-.64.73c-.2.24-.16.32.14.26.52-.1.99-.29 1.4-.56 1.03-.66 1.42-.06 1.99.67.3.47-.13.9-.6.97l-1.14.16c-.77.1-1.21.48-1.33 1.14-.02.11.02.15.14.12.23-.07.65-.3 1.26-.69.44-.28 1.07-.03 1.12.51.03.37-.03.7-.19 1.03a.35.35 0 0 1-.2.16l-1.05.4c-.41.17-.4.25.04.27.47.02.94-.07 1.42-.27.82.12 1.18.68 1.09 1.66a.6.6 0 0 1-.5.53.59.59 0 0 1-.27-.02 4.95 4.95 0 0 0-2.81-.05c-.53.04-1.06.08-1.58.14-.11.01-.26-.08-.46-.27-.48-.49-.5-.96-.03-1.41a.3.3 0 0 1 .22-.1h.51a.1.1 0 0 0 .09-.06.09.09 0 0 0-.04-.1l-.39-.22a.3.3 0 0 1-.16-.26c-.02-.42.1-.87.38-1.37.05-.08.12-.11.22-.1.05.01.1.04.14.07.07.07.14.07.22.02.32-.2.57-.41.73-.62.12-.16.1-.2-.08-.1l-.68.36a.25.25 0 0 1-.1.03h-.07c-.52-.2-.9-.5-1.13-.88a.57.57 0 0 1 .33-.86 2.74 2.74 0 0 0 1.46-1.08c.25-.34.2-.62-.13-.82a.41.41 0 0 1-.16-.19 1.74 1.74 0 0 1 .19-1.82.28.28 0 0 1 .2-.12c.57-.07.91-.29 1.34.26Z" fill="#030303"/><path d="M22.09 27c.46.13.76.47.91 1.01 0 .5-.05.81-.15.96-.64.89-1.19 1.84-1.65 2.87a.26.26 0 0 0-.01.17c0 .05.04.1.08.13.23.18.4.46.52.86.08.26.06.6-.04 1a7.5 7.5 0 0 0-.15 2.4c.03.41 0 .72-.09.92-.17.36-.39.58-.66.67a.3.3 0 0 1-.22-.02c-.34-.16-.6-.44-.8-.83a.33.33 0 0 1-.02-.24c.08-.32.31-.63.32-1.02 0-.27.03-.77.07-1.5.03-.34-.08-.4-.31-.17-.44.43-.95.44-1.55.02-.48-.32-.45-.96.1-1.15a.32.32 0 0 0 .17-.14 20.56 20.56 0 0 0 1.99-4 .43.43 0 0 0 .01-.26c-.11-.46-.07-.95.13-1.47.02-.07.07-.1.14-.11l1.21-.1ZM46.42 29.07c.33.04.7.02 1.1-.04.32-.04.55-.04.7.02.5.2.75.88.78 1.38 0 .07-.02.14-.07.2-.53.6-1.34 0-2.03-.41-.07-.05-.1-.1-.07-.16l.08-.24c.02-.09-.01-.13-.12-.13-.47.01-.82.03-1.04.06-.44.05-.67.38-1.14.27-.84-.21-1.59.13-2.35.44-.57.24-.64.6-.86 1.07-.24.53-.63.54-1.13.38a.3.3 0 0 1-.12-.07.28.28 0 0 1-.07-.12c-.22-.71 0-1.27.65-1.67.28-.16.68-.07.98-.16.23-.07.47-.18.72-.32a.09.09 0 0 0 0-.16c-.23-.13-.46-.29-.71-.47-.33-.25-.33-.55 0-.92.38-.42.95-.28 1.44-.14.08.02.13.07.14.16.01.2-.28.28-.2.46l.18.4c.2.45.32.43.37-.05.07-.72.05-1.43-.08-2.13a.32.32 0 0 1 .03-.21c.44-.84 1.5-.48 2.09-.04.03.02.05.05.06.08 0 .04 0 .07-.02.1-.25.41-.42.86-.5 1.33-.03.18.04.23.22.14.4-.2.68-.46.82-.77a.4.4 0 0 1 .18-.18.42.42 0 0 1 .25-.04c.32.04.63.25.93.64.12.15.12.3-.02.43-.19.2-.34.33-.6.43a2.1 2.1 0 0 0-.64.32c-.06.07-.05.1.05.12ZM33.23 31.1c-.03.08.06.17.14.14.83-.28 1.7-.71 2.65-1.3.16-.09.4-.17.74-.24.8-.17 1.35.45 1.22 1.28a.6.6 0 0 1-.49.5 3.32 3.32 0 0 0-2.35 1.61 9.2 9.2 0 0 1-.79 1.16c-.52.62-.98 1.16-1.38 1.61-.5.58-.87.9-1.14.99-.43.13-.96.17-1.6.14a.26.26 0 0 1-.23-.29c.06-.36.18-.59.52-.71 1.17-.43 1.9-1.59 2.53-2.64.04-.06-.01-.14-.08-.13-.4.06-.78.41-1.25.26-.44-.15-.63-.64-1.05-.87a.3.3 0 0 1-.16-.25c-.05-.78.94-.9 1.41-.98.74-.15 1.27-.76 1.72-1.33.07-.09.2-.14-.05-.28l-.7-.4a.15.15 0 0 1-.07-.1l-.34-1.32a.27.27 0 0 1 .25-.34c1 0 1.88-.16 2.64-.48.67-.28 1.2-.11 1.6.49l.1.16c.4.6.26 1-.4 1.22a10.4 10.4 0 0 0-3.01 1.58c-.21.16-.35.33-.43.52Z" fill="#030303"/><path d="M35.38 33.47c.16-.37.41-.52.76-.45l.3.06c.37.19.46.44.26.76l-.5.81a.6.6 0 0 0-.1.2c-.03.22-.02.44 0 .65.03.15.13.27.26.3.55.12 1.04.1 1.46-.05.2-.07.28-.3.27-.7-.01-.44-.05-.88-.1-1.32-.03-.21.01-.25.13-.1.03.05.18.16.44.34.14.1.23.27.25.45l.17 1.38c.04.35.02.61-.06.8-.1.24-.34.37-.7.38-.65.02-1.32.03-2 .01-.56-.01-1.08-.12-1.17-.84-.12-1-.02-1.9.33-2.68Z" fill="#030303"/><path fill-rule="evenodd" d="M42.84 34.34c.18.46.41.74.68.86.09.03.11.1.07.2-.03.09-.11.13-.24.12a9.8 9.8 0 0 0-1 0c-.34.05-.43.27-.28.68.17.46.35.87.83.79a9.94 9.94 0 0 1 3.49-.04c.38.07.56-.13.56-.6v-.3c0-.46-.18-.69-.55-.69h-1.08c-.04 0-.06-.02-.07-.07-.01-.13-.02-.29.13-.28.47.04.8-.19.99-.67a.3.3 0 0 0 0-.24c-.18-.39-.45-.58-.84-.57h-.04c-.04-.04-.06-.12-.09-.16-.03-.07-.01-.1.05-.1.34 0 .55-.02.64-.09.2-.16.26-.46.15-.88-.04-.14 0-.25.1-.33l.45-.32c.15-.1.23-.32.2-.53-.01-.1-.05-.18-.1-.26-.25-.49-.55-1.08-1.16-.78a5 5 0 0 1-2.3.54c-.58-.01-.86.22-1.22.72a.24.24 0 0 0-.03.24c.14.38.34.88.6 1.48.3.73.9.42 1.27-.02.06-.08.1-.07.14.04a.4.4 0 0 1-.02.26c-.22.6-.7.63-1.15.63-.15 0-.25.2-.19.37Zm1.03-1.86c.03.21.1.24.21.1.24-.31.54-.65.91-1.02.06-.05.07-.12.06-.2-.03-.15-.1-.18-.2-.11l-.9.64c-.18.13-.1.38-.08.59Z" fill="#030303"/><defs><linearGradient id="a" x1="18.5" y1="16" x2="18.39" y2="37.5" gradientUnits="userSpaceOnUse"><stop stop-color="#EE742B"/><stop offset="1" stop-color="#F14926"/></linearGradient><linearGradient id="b" x1="14.85" y1="18.15" x2="16.89" y2="26.43" gradientUnits="userSpaceOnUse"><stop stop-color="#F16122"/><stop offset="1" stop-color="#E41D30"/></linearGradient><linearGradient id="c" x1="18.29" y1="19.22" x2="18.29" y2="38.36" gradientUnits="userSpaceOnUse"><stop stop-color="#F16C28"/><stop offset="1" stop-color="#F14927"/></linearGradient><linearGradient id="d" x1="15.38" y1="20.84" x2="18.5" y2="37.71" gradientUnits="userSpaceOnUse"><stop stop-color="#F13F35"/><stop offset="1" stop-color="#F04D1F"/></linearGradient><linearGradient id="e" x1="15.92" y1="21.8" x2="19.79" y2="37.07" gradientUnits="userSpaceOnUse"><stop stop-color="#FF7030"/><stop offset="1" stop-color="#F14926"/></linearGradient><linearGradient id="f" x1="19.57" y1="22.45" x2="18.07" y2="33.95" gradientUnits="userSpaceOnUse"><stop stop-color="#F5702D"/><stop offset="1" stop-color="#FE9825"/></linearGradient></defs></svg>