<!-- by TradingView --><svg width="56" height="56" viewBox="0 0 56 56" xmlns="http://www.w3.org/2000/svg"><path fill="#F0F3FA" d="M0 0h56v56H0z"/><path fill-rule="evenodd" d="M43.2 35.41a10.67 10.67 0 0 0 3.29-6.91h-2.9c-.1 2.3-.8 4.45-1.97 6.33.62.21 1.15.4 1.58.58Zm-.68.65c-.36-.18-.8-.37-1.34-.56a14.81 14.81 0 0 1-3.88 3.74c2.01-.82 3.78-1.9 5.22-3.18ZM42 32c.4-1.11.63-2.29.69-3.51h-2.86c-.03 1.21-.2 2.39-.48 3.5H42v.01Zm-3-9.2c.5 1.46.78 3.04.83 4.69h2.86c-.1-2.23-.8-4.32-1.98-6.13l-1.71.47v.97Zm0-1.7c.45-.12.88-.25 1.27-.38a14.1 14.1 0 0 0-4.02-3.65c-.18.1-.36.18-.56.27A13.8 13.8 0 0 1 38.26 21H39v.11ZM37.12 21a12.46 12.46 0 0 0-2.47-3.22 17 17 0 0 1-.57.2c.7 1.11 1.3 2.41 1.73 3.85L37 21.6V21h.12ZM37 22.29l-1 .2c.4 1.54.65 3.23.7 5.01h.3v-5.21Zm0 11.34V28.5h-.3a21.37 21.37 0 0 1-.68 4.94l.98.19Zm1.7.37c.75.19 1.43.38 2.05.56l.34-.56H38.7Zm-.28.65c.7.18 1.33.36 1.9.55a14.06 14.06 0 0 1-4 3.67c-.18-.1-.37-.19-.57-.28 1.08-1.1 1.99-2.44 2.67-3.94Zm-3.22 4.47.38.18c-.48.26-.97.5-1.48.7a12 12 0 0 0 1.1-.88Zm2.23-4.71a12.64 12.64 0 0 1-2.71 3.75l-.6-.21c.7-1.12 1.28-2.42 1.71-3.86.56.1 1.1.2 1.6.32Zm-3.3 4.27-.4-.14c-.25.34-.5.67-.78.97.41-.25.8-.53 1.18-.83Zm.76-4.68a14.85 14.85 0 0 1-1.93 3.6 18.8 18.8 0 0 0-1.45-.32c.29-.98.54-2.08.73-3.28h.05l.06-.4.86.1v.3h1.68Zm-1.68-.98V28.5h-.1l-.66 4.44.76.08Zm1.79.25.14.02c.47-1.47.77-3.09.82-4.79H35v4.77Zm-2.6-10.12.04-.17h-.06l.02.17Zm.2-.87-.32.03c-.2-1.35-.47-2.59-.8-3.67.52-.1 1-.2 1.47-.32.58.78 1.1 1.68 1.55 2.68H32.9l-.3 1.28Zm2.4.37.13-.02c.48 1.49.78 3.14.83 4.87H35v-4.85Zm-3.66 10.87.03.11c-.22 1.31-.5 2.5-.83 3.5-.65-.07-1.33-.13-2.04-.15V34h1.44v-.56l1.4.08Zm-1.25-5.02 1.08 4.33-1.23-.08V28.5h.15Zm2.4 9.7c-.37-.1-.77-.18-1.2-.25-.22.69-.48 1.3-.75 1.82l.25.03a9.4 9.4 0 0 0 1.7-1.6Zm-2.19-.38a10.1 10.1 0 0 1-.88 1.85c-.3-.03-.6-.04-.92-.05V37.7c.63.02 1.23.06 1.8.12Zm-2.8-.12v1.91c-.33 0-.64.03-.93.05-.3-.49-.6-1.11-.87-1.85.56-.06 1.16-.1 1.8-.1Zm0 2.6-.43.02c.15.15.29.27.43.35v-.37Zm-2.27-.49.23-.03a13.1 13.1 0 0 1-.76-1.84c-.43.07-.83.15-1.21.24a9.4 9.4 0 0 0 1.74 1.63Zm3.68.53a13.6 13.6 0 0 0-.41-.03v.36a2 2 0 0 0 .41-.33ZM27.5 33.4v3.58c-.71.02-1.4.07-2.04.15-.3-.94-.57-2.03-.78-3.23.32-.09.62-.24.88-.44.63-.03 1.28-.05 1.94-.06Zm-3.12-1.62c.57-.2.57-.87.57-1.28 0-.38-.23-.92-.76-1.47.03.95.1 1.87.2 2.75Zm1.52-4.28a5.24 5.24 0 0 0-1.67-1.38c.05-.98.14-1.93.26-2.82.46.34.51 1.15.46 1.7h1.8v-.11c0-.65-.07-1.21-.2-1.7l.95.02v4.29h-1.6Zm.6 1h1v4.2l-1.26.04c.41-.61.66-1.4.66-2.3 0-.72-.15-1.37-.4-1.94Zm-.22-6.01 1.22.02v-3.58c-.71-.01-1.39-.06-2.03-.14a22.7 22.7 0 0 0-.62 2.38c.63.23 1.11.67 1.43 1.32ZM23.94 21c.16-.84.35-1.63.57-2.35-.52-.09-1-.2-1.47-.32a14.66 14.66 0 0 0-1.95 3.68l.6.08c.4-.68 1.06-1.09 2.07-1.09h.18Zm-2.54 1.73a5.96 5.96 0 0 0-.23 1.78c0 1.3.6 2.27 1.28 2.99H21V26h-.86c.12-1.05.33-2.05.62-3H21v-.33l.4.06Zm2 2.58c-.46-.79-.37-1.78.2-2.08-.09.67-.15 1.37-.2 2.08ZM20.47 21c.4-1.1.88-2.11 1.44-3l-.58-.2c-.96.9-1.8 1.97-2.45 3.2h1.59Zm-2.73 0a13.8 13.8 0 0 1 2.56-3.63l-.56-.28c-1.6.97-2.96 2.22-4.02 3.67l.78.24h1.24Zm-1.74.58-.7-.2a12.14 12.14 0 0 0-1.99 6.12H16v-5.92ZM17.25 34H16v-5.5h-2.69c.1 2.2.79 4.26 1.94 6.06.6-.19 1.27-.38 2-.56Zm.75-5.5v4.52l.28.74c.54-.12 1.1-.24 1.7-.34-.4-1.52-.63-3.18-.67-4.92H18Zm1.39-2.5H18v-3h1.87c-.22.95-.39 1.96-.48 3Zm3.29 7.7c.33.16.7.27 1.08.3.2 1.19.44 2.3.73 3.27-.52.09-1 .2-1.46.32a14.9 14.9 0 0 1-1.95-3.68l1.6-.22Zm-.78-.58c-.36.04-.7.1-1.04.15a17.2 17.2 0 0 1-.82-4.77h3.28c0 1.1.06 2.17.16 3.19-.38-.3-.49-.9-.49-1.25v-.96h-1.96v1.38c0 .9.33 1.7.87 2.26Zm-1.74.94a15.9 15.9 0 0 0 1.7 3.87l-.6.21a12.65 12.65 0 0 1-2.7-3.76c.5-.1 1.04-.22 1.6-.32Zm2.1 4.46-.41.13c.38.32.78.6 1.2.86-.28-.3-.54-.64-.8-1Zm-4.7-3.9c.69 1.5 1.6 2.85 2.68 3.96l-.57.28a14.06 14.06 0 0 1-4-3.69c.56-.18 1.2-.37 1.9-.55Zm3.22 4.47-.4.2c.5.26 1 .5 1.52.71a12 12 0 0 1-1.12-.9Zm-6.4-4.26a12.86 12.86 0 0 1-1.97-6.33h-2.9a10.67 10.67 0 0 0 3.3 6.93c.43-.18.95-.38 1.57-.6Zm-.91 1.21c.35-.17.8-.36 1.34-.56a14.8 14.8 0 0 0 3.89 3.76 18.25 18.25 0 0 1-5.23-3.2Zm29.67-15.51a10.7 10.7 0 0 1 3.35 6.97h-2.9c-.1-2.32-.81-4.5-2.02-6.4.62-.2 1.14-.4 1.57-.57Zm-.68-.64a18.31 18.31 0 0 0-5.16-3.13c1.51 1 2.81 2.25 3.83 3.68.53-.2.97-.38 1.33-.55Zm-8.36-3.9c.48.2.94.42 1.4.66l-.36.18c-.34-.3-.68-.58-1.04-.83Zm-1.15.5c.38.23.75.5 1.1.78l-.37.12c-.23-.32-.48-.62-.73-.9Zm-2.13-.3c.57.4 1.13.92 1.66 1.54-.38.09-.79.17-1.21.24-.23-.66-.47-1.24-.74-1.75l.29-.03Zm-1.9-.54a1.96 1.96 0 0 0-.42-.33v.36l.42-.03Zm-.42.73c.32-.02.64-.03.94-.06.3.47.59 1.07.85 1.78-.56.06-1.16.1-1.79.11v-1.83Zm-1 0v1.83c-.63 0-1.23-.05-1.8-.1.27-.71.56-1.3.85-1.78.3.03.62.04.95.05Zm0-.69v-.37c-.15.08-.3.2-.44.35l.44.02Zm-2.03.53c-.27.5-.52 1.1-.74 1.76-.43-.07-.84-.15-1.22-.24a9.13 9.13 0 0 1 1.69-1.56l.27.04Zm5.06 2.56c-.64.08-1.32.13-2.03.15V21h1.76l.33 1.44.79-.05a24.63 24.63 0 0 0-.85-3.61Zm1.23 7.17c-.05-1-.15-1.97-.28-2.88l-.73.05.84 3.6.17-.77Zm-8.71-9.46a11 11 0 0 0-.74.93 14 14 0 0 1-.39-.13c.36-.3.74-.56 1.13-.8Zm-1.15-.5c-.37.27-.72.55-1.06.86a10.9 10.9 0 0 1-.37-.18c.46-.25.94-.47 1.43-.67Zm-7.04 4.47a14.82 14.82 0 0 1 3.84-3.7 18.3 18.3 0 0 0-5.17 3.14c.35.17.8.36 1.33.56Zm-1.98.05A10.7 10.7 0 0 0 9.5 27.5h2.9c.1-2.32.81-4.5 2.02-6.4-.61-.21-1.14-.41-1.55-.59ZM27.95 14h.1C39.07 14.02 48 20.28 48 28c0 7.73-8.95 14-20 14S8 35.73 8 28c0-7.72 8.93-13.98 19.95-14Z" fill="#727DBE"/></svg>