<!-- by TradingView --><svg xmlns="http://www.w3.org/2000/svg" width="56" height="56"><path fill="url(#adtqdc1ju)" d="M0 0h56v56H0z"/><path d="M42.91 26.35C40.6 15.23 30.37 14.41 25.18 15.23 19.5 16.13 12 19.98 12 29.11s7.76 10.15 9.58 10.15c1.32 0 2.78-.5 3.35-.74.09 0 .26.25.25 1.27a21.5 21.5 0 01-.8 4c-.08.33-.2 1.02 0 1.16.22.14.55-.06.68-.18 1.31-1.36 2.73-4.53 3.44-5.92 1.17-3.62 4.92-3.08 7.36-3.62 5.96-1.32 7.56-6.45 7.05-8.88z" fill="#fff"/><path d="M39 12c-.55 0-1 .4-1 .9v3.25c.04.48.47.85 1 .85s.96-.37 1-.85v-3.24c0-.5-.45-.91-1-.91z" fill="#F5861F"/><path d="M44.93 14.28c-.38-.4-.99-.45-1.35-.1l-2.35 2.24c-.31.36-.29.93.08 1.3.36.4.93.45 1.3.15l2.35-2.24c.36-.35.35-.95-.03-1.35zM20 24c-.5 0-.97.45-1 .99 0-.02 0 .01 0 0s0 .01 0 0V27h-2v-2.01c0-.55-.48-.99-1-.99-.5 0-.97.5-1 1.04 0-.02 0 .01 0 0s0 .01 0 0l.01 6.1c.06.48.53.84.99.86.53-.02 1-.42 1-.93V29h2v2c0 .54.54.98 1 1 .53-.02 1-.5 1-1v-6c0-.55-.48-1-1-1zm19.32.05a1 1 0 00-1.25.6L37 28.53l-1.07-3.9a1 1 0 00-1.25-.59c-.52.18-.8.75-.63 1.27v.01l1.95 5.8c.14.47.48.88 1 .87.53 0 .85-.4 1-.87l1.95-5.8c.17-.53-.11-1.1-.63-1.28zM28.02 26H29v5.11c0 .5.56.89 1 .89.48-.02 1-.41 1-.89V26h1c.55 0 1-.46 1-1a1 1 0 00-.96-1h-4.18a.99.99 0 00-.86 1c.02.53.48 1 1.02 1z" fill="#0DB14B"/><path d="M46.15 19h-3.24c-.5 0-.91.45-.91 1s.4 1 .91 1h3.24c.48-.04.85-.47.85-1s-.37-.96-.85-1zM25.73 30.34l-1.82-1.67c-.42-.39-1.12-.39-1.55 0a.95.95 0 000 1.42l1.82 1.66c.43.35 1.09.33 1.5-.04a.94.94 0 00.05-1.37z" fill="#EE619A"/><path d="M25.63 24.3a1.17 1.17 0 00-1.5-.05l-1.81 1.66a.94.94 0 000 1.42c.43.39 1.12.39 1.55 0l1.81-1.67c.38-.4.36-1-.05-1.37z" fill="#F5861F"/><defs><linearGradient id="adtqdc1ju" x1="44.64" y1="5.88" x2="9.73" y2="49.92" gradientUnits="userSpaceOnUse"><stop stop-color="#DFDE13"/><stop offset="1" stop-color="#A4BA23"/></linearGradient></defs></svg>