<!-- by TradingView --><svg width="56" height="56" viewBox="0 0 56 56" xmlns="http://www.w3.org/2000/svg"><path fill="#F0F3FA" d="M0 0h56v56H0z"/><path d="M29.46 41h-1.65c-5.27-.07-9-2.02-11.2-5.85a.68.68 0 0 0-.57-.36c-1.23-.1-2.01-.73-2.34-1.87-.7-2.44.17-3.88 2.62-4.3.16-.03.25-.13.25-.3v-.2c0-.15-.08-.22-.24-.2-1.68.27-3 .29-3.95.06-1.31-.3-2.1-1.24-2.38-2.83v-.29a8.46 8.46 0 0 1 3.17-5.38 46.18 46.18 0 0 1 13.75-7.8c1.23-.44 2.51-.66 3.84-.68 1.65-.01 2.84.36 3.59 1.12.94.96 1.2 2.06.8 3.3a15.5 15.5 0 0 1-1.62 2.7c-.15.23-.1.4.15.5 3.83 1.65 6.18 4.58 7.04 8.79.04.21.16.37.34.48l2.06 1.18c.2.12.36.3.45.53 1 2.48.25 4.14-2.23 4.97a.75.75 0 0 0-.48.47 7.21 7.21 0 0 1-3.45 3.88c-2.41 1.3-5.06 2-7.95 2.08Zm-.6-.63c4.42-.03 7.75-1.2 10-3.5 1.86-1.9 1.98-3.76.35-5.54-.3-.33-.23-.42.19-.28.26.09.47.2.63.33.36.3.53.23.51-.24-.08-1.85-.4-3.61-.94-5.3a9.79 9.79 0 0 0-4.17-5.48 12.18 12.18 0 0 0-6.77-1.75c-2.61.01-4.86.64-6.73 1.87a9.8 9.8 0 0 0-4.06 5.55c-.52 1.7-.8 3.47-.85 5.31-.01.47.16.55.52.24.15-.14.36-.25.62-.34.42-.15.48-.06.19.27-1.6 1.82-1.44 3.66.45 5.54 2.29 2.26 5.64 3.36 10.06 3.32Z" fill="#1F1D1D"/><path d="M12.7 22.71c-.33.64-.22.72.32.25a9.34 9.34 0 0 1 4-2.21c.55-.13 1.01.02 1.37.45.37.44.43.9.2 1.41l-1.96 4.19c-.13.27-.25.42-.37.46a7.7 7.7 0 0 1-2.74.1c-2.12-.22-3-1.23-2.66-3.01a7.02 7.02 0 0 1 2.5-4A45.5 45.5 0 0 1 25 13.25a18.6 18.6 0 0 1 4.1-1.34c2.15-.34 2.26-.03.32.95a13.8 13.8 0 0 0-3.97 3.25c-.56.64-1.98 1.43-4.25 2.35-2.1.86-4.23 1.7-6.37 2.55a3.84 3.84 0 0 0-2.13 1.7Z" fill="#F51C24"/><path d="m26.5 15.9 4.8-3.9c.16-.14.35-.2.58-.18 1.06.1 1.84.55 2.33 1.32.47.76.44 1.65-.1 2.67a10.3 10.3 0 0 1-1.4 2.13.59.59 0 0 1-.66.16 9.59 9.59 0 0 0-3.4-.23c-.63.04-1.1-.03-1.4-.21a2.7 2.7 0 0 1-.89-1.04c-.16-.27-.12-.52.14-.72ZM22.53 19.32a11.43 11.43 0 0 0-2.86 2.1c-.3.29-.55.26-.78-.07-.3-.45-.2-.82.3-1.13.3-.18 1.31-.7 3.01-1.56a92.6 92.6 0 0 1 3.04-1.5c.55-.24.91-.1 1.1.4.13.39-.01.62-.41.68-1.25.2-2.38.56-3.4 1.08Z" fill="#F51C24"/><path d="M28.67 18.6c2.61-.02 4.87.57 6.76 1.76 2.01 1.27 3.4 3.1 4.17 5.48.54 1.69.86 3.45.94 5.3.02.47-.15.55-.5.24a1.92 1.92 0 0 0-.64-.33c-.42-.14-.48-.05-.19.28 1.63 1.78 1.51 3.63-.35 5.54-2.25 2.3-5.58 3.47-10 3.5-4.42.04-7.77-1.06-10.05-3.32-1.9-1.88-2.06-3.72-.46-5.54.29-.33.23-.42-.19-.27-.26.1-.47.2-.62.34-.36.31-.53.23-.52-.24.05-1.84.33-3.6.85-5.3a9.8 9.8 0 0 1 4.06-5.56 12.13 12.13 0 0 1 6.74-1.87Zm-4.78 6.56a4.7 4.7 0 0 1 3.25 2.57c.07.11.17.16.3.14l.32-.06c.14-.02.18-.1.12-.22-1.04-2.34-2.78-3.43-5.2-3.26-.42.02-.7.21-.83.56-.1.3 0 .45.31.44.16 0 .4-.04.75-.1a3 3 0 0 1 .98-.07Zm10.62.7c.6.03 1.17.38 1.75 1.07.25.3.44.5.59.63.76.66.9.49.43-.51-.58-1.22-1.5-1.85-2.73-1.9-1.24-.07-2.2.49-2.9 1.65-.56.95-.43 1.14.38.55.16-.11.37-.3.64-.57.64-.64 1.25-.95 1.84-.92Zm-10.24 2.79c.26.11.54.36.85.73.16.2.29.35.38.42.62.49.8.35.55-.4-.22-.65-.7-1.13-1.47-1.46a2.49 2.49 0 0 0-2.07-.07c-.73.33-.7.56.08.67.12.02.3.02.57 0 .49-.04.86 0 1.11.1Zm8.92.1.28-.27c.12-.12.1-.22-.04-.3-.31-.17-.67-.05-1.06.35-.64.65-.59 1.29.16 1.91.59.49 1.13.44 1.63-.13.27-.31.42-.66.46-1.04.02-.18-.06-.3-.21-.38a.34.34 0 0 0-.42.07l-.34.34c-.13.12-.25.13-.38 0a.52.52 0 0 1-.16-.3.3.3 0 0 1 .08-.24Zm-1.75 5.4h-5.28c-.27 0-.4.14-.4.4v.1c0 1 .28 1.86.85 2.57.57.7 1.26 1.06 2.07 1.06h.24c.8 0 1.5-.36 2.06-1.06.57-.71.86-1.56.86-2.57v-.1c0-.26-.13-.4-.4-.4Z" fill="#FFE8C3"/><path d="M23.89 25.16a3 3 0 0 0-.98.07c-.35.06-.6.1-.75.1-.31 0-.42-.14-.3-.44.13-.35.4-.54.81-.56 2.43-.17 4.17.92 5.21 3.26.06.12.02.2-.12.22l-.32.06a.26.26 0 0 1-.3-.14 4.7 4.7 0 0 0-3.25-2.57ZM34.55 25.14c1.24.06 2.15.7 2.73 1.9.47 1 .33 1.18-.43.52a5.81 5.81 0 0 1-.59-.63c-.58-.69-1.16-1.04-1.75-1.07-.59-.03-1.2.28-1.84.92-.27.27-.48.46-.64.57-.81.59-.94.4-.38-.55.7-1.16 1.66-1.72 2.9-1.66ZM24.58 27.94c.77.33 1.25.81 1.47 1.46.25.75.07.89-.55.4-.1-.07-.22-.21-.38-.42-.31-.38-.59-.62-.85-.73a2.38 2.38 0 0 0-1.11-.11 3.2 3.2 0 0 1-.57 0c-.78-.11-.8-.34-.08-.67a2.49 2.49 0 0 1 2.07.07ZM33.1 29c.03.13.08.23.17.3.13.13.25.12.38 0l.34-.34a.34.34 0 0 1 .42-.07c.15.08.23.2.21.38-.04.38-.2.73-.46 1.04-.5.57-1.04.62-1.63.13-.75-.62-.8-1.26-.16-1.91.4-.4.75-.52 1.06-.35.15.08.16.18.04.3l-.28.28a.3.3 0 0 0-.08.25Z" fill="#1F1D1D"/><path d="M41.1 29.06c0-.08.04-.13.13-.13h.03a1.9 1.9 0 0 1 1.44.68c.4.45.6.98.59 1.6v.29a2.29 2.29 0 0 1-.62 1.58c-.41.44-.9.65-1.47.64h-.03c-.09 0-.13-.04-.13-.13l.06-4.53ZM16.47 34c0 .08-.04.13-.14.13h-.06c-.6 0-1.1-.24-1.52-.7-.41-.44-.61-.98-.6-1.62v-.28c0-.63.23-1.16.65-1.6.43-.44.94-.65 1.54-.64h.07c.09 0 .14.05.14.14L16.47 34Z" fill="#FFE8C3"/><path d="M35.62 35.61a2.18 2.18 0 1 0 .01-4.36 2.18 2.18 0 0 0 0 4.36ZM22.34 35.85a2.12 2.12 0 1 0 0-4.23 2.12 2.12 0 0 0 0 4.23Z" fill="#FABDBE"/><path d="M31.44 34.15c.27 0 .4.14.4.4v.1c0 1-.29 1.86-.86 2.57a2.58 2.58 0 0 1-2.06 1.06h-.24c-.8 0-1.5-.36-2.07-1.06a3.95 3.95 0 0 1-.85-2.57v-.1c0-.26.13-.4.4-.4h5.28Z" fill="#1F1D1D"/><path d="M30.45 34.79c.34 0 .5.16.5.5v.09c0 .6-.2 1.1-.61 1.53-.41.42-.91.64-1.5.64h-.08c-.58.01-1.09-.2-1.51-.62a2.1 2.1 0 0 1-.64-1.52v-.1c0-.33.17-.5.5-.5l3.34-.02Z" fill="#F51C24"/></svg>