<!-- by TradingView --><svg width="56" height="56" viewBox="0 0 56 56" xmlns="http://www.w3.org/2000/svg"><path fill="#F0F3FA" d="M0 0h56v56H0z"/><path d="M5.28 25.13v2.2h2.37v-2.2h1.28v5.74H7.65v-2.48H5.28v2.48H4v-5.74h1.28Zm6.34 3.5v2.24h1.29v-2.2l2.17-3.54h-1.43l-1.36 2.27-1.37-2.27H9.48l2.14 3.5Zm4-3.5v5.74h1.29V28.8h1.35c.32.01.64-.04.93-.16.24-.09.45-.23.63-.4.16-.18.28-.38.35-.6.15-.44.15-.92 0-1.36-.07-.22-.2-.42-.35-.59a1.76 1.76 0 0 0-.63-.41c-.3-.12-.61-.17-.93-.16h-2.63Zm1.29 2.7v-1.72h1l.42.03c.13.02.25.07.36.13.1.06.2.15.25.26.07.14.1.29.1.44 0 .15-.03.3-.1.44-.05.11-.14.2-.25.26-.1.07-.23.11-.35.13a2.8 2.8 0 0 1-.43.03h-1Zm3.92-2.7v5.74h4.43V29.8h-3.15V28.4h2.83v-.98h-2.83v-1.23h3.09v-1.06h-4.37Zm4.98 0v5.74h2.83c.26 0 .52-.04.77-.1.23-.06.46-.16.66-.3a1.47 1.47 0 0 0 .63-1.27c.01-.33-.08-.65-.26-.92a1.4 1.4 0 0 0-.81-.53c.24-.1.44-.27.6-.47.13-.22.2-.47.2-.73 0-.23-.04-.46-.14-.67a1.1 1.1 0 0 0-.38-.44c-.18-.11-.38-.2-.59-.24-.25-.04-.5-.07-.76-.07h-2.75Zm1.29 2.32v-1.34h1.2l.33.03c.1.02.2.05.28.1.08.05.15.12.2.2.05.1.08.22.07.33 0 .24-.07.42-.22.52a.93.93 0 0 1-.56.16h-1.3Zm0 2.44V28.3h1.4c.23 0 .47.06.67.19.17.13.25.34.25.63 0 .13-.02.25-.08.37a.62.62 0 0 1-.2.23.9.9 0 0 1-.31.12c-.12.02-.24.04-.36.04H27.1Zm4.15-4.76v5.74h4.44V29.8h-3.15V28.4h2.83v-.98h-2.83v-1.23h3.08v-1.06h-4.37Zm7.2 0-2.21 5.74h1.29l.45-1.28h2.19l.44 1.28h1.33l-2.18-5.74h-1.32Zm-.13 3.52.76-2.1h.02l.74 2.1h-1.52Zm4.98.8c-.08-.15-.11-.31-.1-.48h-1.25a1.82 1.82 0 0 0 .75 1.55c.24.17.5.3.8.36a3.75 3.75 0 0 0 1.98-.02c.28-.07.54-.2.77-.38.2-.15.35-.35.46-.58a1.72 1.72 0 0 0-.05-1.52c-.13-.2-.3-.37-.5-.5-.18-.11-.37-.2-.58-.27a88.72 88.72 0 0 1-1.34-.34c-.18-.04-.36-.1-.53-.17a.58.58 0 0 1-.26-.2.52.52 0 0 1-.06-.27c0-.1.02-.21.08-.3a.7.7 0 0 1 .2-.2c.09-.06.19-.1.29-.12l.3-.03c.15 0 .3.01.44.04.13.03.25.07.36.14.1.06.2.15.26.26a1 1 0 0 1 .1.43h1.25a1.65 1.65 0 0 0-.72-1.42 2.21 2.21 0 0 0-.74-.33 3.78 3.78 0 0 0-1.67 0c-.25.07-.49.17-.7.32-.2.14-.38.33-.5.54-.14.24-.2.5-.2.77 0 .23.05.46.15.67.1.18.24.34.4.46.17.13.36.23.56.3a13.96 13.96 0 0 0 1.27.36c.18.05.37.1.55.18.15.05.28.14.4.24a.5.5 0 0 1 .15.37c0 .13-.03.26-.11.36a.8.8 0 0 1-.3.22c-.11.06-.23.1-.36.11a1.94 1.94 0 0 1-.86-.03c-.15-.04-.29-.1-.41-.19a.92.92 0 0 1-.28-.32m5.66-3.27v4.68h1.29v-4.68H52v-1.06h-4.79v1.06h1.75Z"/></svg>