<!-- by TradingView --><svg width="56" height="56" viewBox="0 0 56 56" xmlns="http://www.w3.org/2000/svg"><path fill="#F0F3FA" d="M0 0h56v56H0z"/><path d="M13.2 29.55c-2.74 2.9-2.77 4.98-2.44 5.66.13-.52.54-1.86 1.18-3.01.8-1.44 3.6-4.07 7.13-6.77 3.53-2.7 7.28-4.74 13.2-7.4 4.75-2.1 7.53-1.49 8.32-.9-.1-.36-1.06-1.06-4.08-1.08-3.77-.03-11.8 4.56-13.42 5.63-1.61 1.08-6.48 4.25-9.9 7.87Z" fill="#1793CF"/><path d="M34 36.35a11.02 11.02 0 0 1-9.2 2.46 55.18 55.18 0 0 0 12.2-8.3V39h-3v-2.65ZM15.6 27.5c0 4.06 2.06 7.62 5.16 9.67.77-.56 1.65-1.22 2.58-1.94a8.54 8.54 0 0 1-4.82-7.73c0-4.7 3.72-8.52 8.31-8.52a8.35 8.35 0 0 1 7.97 6.07c.86-.93 1.6-1.78 2.18-2.48A11.21 11.21 0 0 0 26.83 16c-6.2 0-11.22 5.15-11.22 11.5Z" fill="#F7C110"/><path d="M21.74 36.45a9.85 9.85 0 0 1-5.1-8.67 9.7 9.7 0 0 1 9.59-9.82 9.61 9.61 0 0 1 9.05 6.57l-.48.52a8.35 8.35 0 0 0-7.97-6.07 8.42 8.42 0 0 0-8.31 8.52 8.54 8.54 0 0 0 4.82 7.73l-1.6 1.22Z" fill="#D29718"/><path d="m36.3 14 .4 1.04 1.08.38-1.09.38-.4 1.04-.4-1.04-1.08-.38 1.08-.38.4-1.04ZM26 27h-4.6l1.27-2h9.29l-1.17 2H28v5.9l-2 1.03V27Z" fill="#F7C110"/><path d="M9.42 38.14c-1.3-1.95.8-4.83 1-5.03-1.62 4.18.97 4.41 2.64 4.41 1.68 0 7.3-.24 15.9-6 8.62-5.75 12.72-11.14 12.72-13.24 0-1.68-1.72-2.5-2.58-2.7 1.63.04 4.9.7 4.9 3.13 0 3.03-1.77 6.62-11.45 13.96C22.87 40 15.03 40 14.29 40c-.74 0-3.58.1-4.87-1.86Z" fill="#1793CF"/></svg>