<!-- by TradingView --><svg width="56" height="56" viewBox="0 0 56 56" xmlns="http://www.w3.org/2000/svg"><path fill="#00873B" d="M0 0h56v56H0z"/><path fill-rule="evenodd" d="M9.22 39.86c-.3-.27-.74-1.07 0-2.19.75-1.12 2.63-4.74 3.47-6.4-.74 0-1.96-.47-.9-2.4-1.01.22-3.02.22-3.02-1.63-.06-.28.13-1.1 1.41-2.2l-.53-.62c-.35.14-1.13.23-1.43-.52-.38-.93-.26-1.2.36-1.4l2.68-.78.28-1.9-1.89.87a.78.78 0 0 1-1.07-.42l-.12-.24c-.3-.61-.48-.97.3-1.23.72-.24 1.96-.54 2.5-.66.32-.11 1.07-.2 1.43.29.46.61.74 1.08.2 1.4l-.53.44v1.94l1.24 1.4-1.53 1.84v.93c.58-.01 1.7-.43 1.93-1.96V18.8c-.02-.56.4-1.7 1.85-1.8 1.45-.1 2 .91 2.08 1.43l-.53.48v.68h-.85c-.24.23-.67.76-.46 1.1.1.03.38.02.7-.23.39-.31 1.68-.64 2.21 1.75v5.29c-.04.38-.33 1.17-1.07 1.25-.73.09-1.45-1.35-1.92-2.29l-.31-.6v1.38c-.24.29-.85.69-1.37 0-.25.02-.97.33-1.85 1.4-1.1 1.31 1.12.41 1.53.11l1.09 1.19-1.09 2.37c1.4-.1 4.35-.03 4.84.28.62.38 2.3 2.35-.42 2.61.37.4.85 1.33-.17 1.8h-3.42c-.24 0-.72-.21-.72-1.08 0-.22.15-.7.72-.8.71-.14 2.3-.6 2.7-1.12h-3.53c-.44.05-1.22.25-.81 1.02.5.96.85 2.5.42 2.65-.42.16-1.09-.57-1.38-1.48l-1.83 3.56c-.09.16-.45.4-1.19.1ZM17 21.82v4.5c-.34-.3-1.02-1.04-1-1.61.02-.12.14-.43.47-.66-.16-.17-.47-.6-.47-.94 0-.43.3-.86 1-1.29Zm8.55 1.68a1.6 1.6 0 0 0-.99-1.45l-.09-.05a23.23 23.23 0 0 1-3.24 4.84c-.06.91-.03 3.44 1.49 3.23 1.21-.16 1.67-1.5 1.75-2.14l2.05.2v.44c-1.35-.17-2.05 0-1.73 1.5.26 1.2 1.44 1.09 2 .88v.47l-.06.04c-.94.68-1.7 1.24-1.67 2.19v.07c.02.92.03 1.28 2.69 1.28 2.71 0 3.85-.47 3.85-1.76 0-1.03-.68-1.02-1.02-.88h-1.55c1.92-1.74.65-3.13-.03-3.61v-1.53c1.08-.09 1.86-.49 1.93-.67a11.22 11.22 0 0 0-2.28-3.05c-1.49-1.38-1.7-.27-1.87.88a1.15 1.15 0 0 1-1.23 1.05c.02-.26.05-1.02 0-1.93Zm9.55-1.17c.28-.17.98-.36 1.48.17l.28.29c.53.52.93.92-.03 1.24-.9.3-1.53-1.01-1.73-1.7Zm1.07 3.43c-.7-.77-2.35-.17-3.08.23l.97 1.58.06-.02c.99-.28 2.92-.84 2.05-1.79Zm1.54.35c-.47.76-1.74 2.59-3.09 3.79-.42.57-.87 1.87.68 2.52.23.1.78.1 1.1-.81.4-1.13 1.3-3.86 1.3-5.5Zm10.92 5.6c.94.04 1.3-.23 1.37-.37 0-.88-.54-1.1-.8-1.1H47c-.05-.26-1.01-.56-.82.26.2.82 1.28 1.14 2.45 1.2Zm-12.6 6.34c-.4-.24-1.08-1.11-.55-2.71.54-1.6 3.72-10.68 5.24-15.02-.57-.2-1.7-.76-1.66-1.33.05-.72 1.43-1.07 3.7-1.15 2.29-.08 1.38 1.81.42 2.74 1.12.01 3.38.3 3.53 1.38.14 1.09-1.4.94-2.18.72-.44 0-1.27.08-1.06.5h2c.77.1 2.4.74 2.71 2.5.01.43-.31 1.43-1.68 2.03.2 0 .88.86.93 1.29h-2.2c-.29.05-.73.54-.2 1.37.64 1.03.56 4.2-.5 4.36-.85.13-1.74-1.72-2.07-2.73h-1.33a2.06 2.06 0 0 1-.15-2.43h.6c.4.61 1.36 1.97 2.07 2.53v-1.73c-.83-.3-1.96-1.28.18-2.87h-1.92c-.12.33-.54.8-1.24 0L37.9 37.73c-.07.37-.52.94-1.87.32Zm6.63-15.66c.02-.22.14-.66.5-.62.45.04.13.43-.5.62Zm1.4 2.02c-1.45-.07-1.73.79-1.7 1.23h3.47c.03-.32-.34-1.15-1.78-1.23Z" fill="#fff"/></svg>