<!-- by TradingView --><svg width="56" height="56" viewBox="0 0 56 56" xmlns="http://www.w3.org/2000/svg"><path fill="#F0F3FA" d="M0 0h56v56H0z"/><path d="M28.36 9a16.63 16.63 0 0 0-15.88 21.62l.77-.78a15.69 15.69 0 1 1 26.44 6.62l.74.62A16.64 16.64 0 0 0 28.36 9ZM14.49 32.93 14 34c1.11 1.9 2.27 3.56 4.01 4.88v-1.23c-1.56-1.3-2.55-2.91-3.5-4.73Z" fill="#ED1C24"/><path d="M36 37.67 37.5 36l1.5 2h-2v1.5h2v1h-2V42h2l-1.5 2-1.5-1.8v-4.53ZM32 37.67 33.55 36 35 37.67v4.54l-.98 1.25L32.93 42H34v-4h-1v6h-1v-6.33ZM15.61 37.96c.67.45 3.97 2.9.67 5.98H11l2.16-1.86s1.05.36 2-.63c0 0 .7-1.32-.2-2 0 0-.72-.84-2.1-1.56 0 0-1.98-.9-1.14-3.72 0 0 .6-4.31 6-6.65l.31-.12c.16 0-3.97 2.76-4.87 6.6 0 0-.27.86 0 2.06 0 0 0 .8 1.05 1.35 0 0 .93.39 1.23.45l.17.1ZM20 44h1V11l-1 1.1V44ZM22 11.32V44h.98V30.03L24.12 44H25V10h-.9s-.01 15.23 0 15.23l-1.26-14.57-.84.66ZM28.5 35.97 27 37.7v4.61L28.45 44 30 42.32v-4.67l-1.5-1.68ZM28 42v-4h1v4h-1ZM41 37.61 42.42 36 44 37.85v1.65h-1V38h-1v4h1v-1.5h1v1.77L42.47 44 41 42.33V37.6ZM27.47 24.5l-.06-.58v-.4l-.04-.29.16-.17.24-.06v1.5s.46-.12.85-.09l.4.12.1.17-.07.17-.18.12-.28.11s-.64.2-.24.84l-.12.14-.22.03-.27-.03s-.18-.03-.18.23v2.2l-.03.25v.26l-.13.15-.09-.15-.06-.2v-2.07s.12-.47-.24-.4c0 0-.15-.18.06-.27 0 0 .27-.14.37-.34 0 0 .03-.06 0-.32 0 0 .06-.43-.46-.11 0 0-.61.34-.73.95 0 0-.28.14-.25-.55 0 0 .1-.46.28-.75 0 0 .33-.35.3.09 0 0 .03.26.3.02 0 0 .34-.31.52-.4l.07-.17Zm.12.72s0-.23.33-.23c0 0 .19.17-.09.34l-.18.06-.06-.17Zm2.47-.8 1.12-.53s.4-.08.8.03c0 0 .4.03.45.63l.16 1.53s.06.23-.06.52c0 0-.04.37-.16.58l-.18.37s-.12.35-.4.2c0 0-.24-.17.06-.49 0 0 .34-.2.3-.57 0 0-.02-1.1-.08-1.21l-.15-.81s.03-.6-.67-.46l-.55.2-.28.12-.18.08-.18-.03v-.17Zm-.58.8-.12.34v.64s.09.37-.22.46l-.03.23v.23l.12.17.19-.11.15-.15.03-.26v-1.23l.06-.18-.03-.14h-.15Zm.73-.03.46-.03s.06-.29-.06-.46c0 0 .4.11.48.43v.4s-.12.29.28.15c0 0 .49-.5.21.03 0 0-.21.17-.36.34 0 0-.1.23.15.4l.06.35.12.14-.03.15-.15.05.03.15.24.08-.27.06-.1.12-.42.03-.3-.09-.28-.03-.24-.03.06-.11s.76-.38.88-.75c0 0 .12-.52-.18-.78 0 0-.24.32-.46.55 0 0 .3.05.46.03 0 0-.27.26-.67.46 0 0-.4.11-.25-.2 0 0 .34-.23.37-.52l-.1-.12-.02-.26.15-.06-.03-.14-.24.03v-.12l.06-.17.15-.08Zm.98-.43.15.17.21-.03-.03-.17-.12-.12-.15-.08-.13.02.07.2Zm3.01-.32s.52-.26 1.8-.4l.22-.03-.22.23-.18.2-.21.14-.34.1-.37.05-.36-.12-.22-.14-.12-.03Zm.5.52-.25.14-.19.15-.09.17-.03.37-.12.35-.12.37-.15.35-.13.26-.15.31-.12.2-.15.27-.22.31-.18.23-.15.26-.15.2-.19.24-.18.2-.18.23-.15.2-.13.23.37-.26.24-.23.19-.23.12-.17.15-.2.15-.27.15-.17.13-.23.15-.26.12-.23.12-.17.1-.17.09-.15.06-.11.09-.12.15.14.15.12s.46.09.49-.26v-.17l-.12-.09s.03-.43.36-.37l.34.05s.52-.11.33.32l-.2.23s-.22.38.39.15l.4-.12.24-.12-.25-.05s-.33-.03-.12-.46l.18-.23.19-.18s.21-.4-.3-.2l-.25.12s-.37.34-.76.26l-.3-.03-.22.03s-.37-.06-.18-.46l.12-.18.06-.2.03-.14.12-.09-.06-.14Zm3.86-.7-.15.12-.12.15-.19.34-.12.15-.15.14-.12.17-.18.15-.13.14-.12.12h-.18l-.12.08-.03.15.2.02.22-.02s.34-.06.43-.32c0 0 .21-.2.24.06v.54s.1.26-.18.44l-.21.2-.15.14h.36s.46-.06.55-.6v-.47l-.03-.2s.03-.28-.18-.37c0 0-.25-.09 0-.32l.09-.2.12-.2.15-.15.21-.11.16-.09-.06-.11-.16.03-.15.03Zm1.04.7s.15.43-.46.55l-.15.02v.15h.21l.12.03.04.37v.38s0 .69.76.66l.6-.03h.31s.55-.03 1.13-.52l.4-.29.2-.26s.4-.26.16-.63l-.12-.26.03-.5-.06-.34-.1-.14-.05.17-.06.23v.52l-.04.32.04.23v.23l-.07.14-.12.17-.18.18-.24.14-.25.17-.18.1-.25.08-.27.03h-.3l-.25-.06s-.67-.17-.73-.7v-.54l.18-.17.34-.26.36-.26.25-.17.21-.15.15-.14-.12-.14-.21.02-.15.06-.13.15-.2.17s-.34.23-.47.03l-.03-.2-.15.11-.12.12-.03.23Z"/></svg>