<!-- by TradingView --><svg width="56" height="56" viewBox="0 0 56 56" xmlns="http://www.w3.org/2000/svg"><path fill="red" d="M0 0h56v56H0z"/><path d="m7.87 26.58 1.4.42c1.16.33 1.74 1.14 1.73 2.37C11 30.9 9.8 32 8.09 32c-1.56 0-2.7-.8-3.06-2.14L5 29.73l1.17-.49.04.13a1.9 1.9 0 0 0 1.92 1.34c.74 0 1.6-.32 1.6-1.25 0-.61-.32-.97-1.06-1.23l-1.38-.4c-1.28-.4-1.83-1.11-1.83-2.34C5.46 24.02 6.54 23 8.1 23c1.39 0 2.39.65 2.76 1.77l.04.12-1.13.49-.04-.11c-.3-.66-.86-1-1.64-1-.68 0-1.35.35-1.35 1.14 0 .55.36.93 1.13 1.17ZM34 28.38c0-1.63 1.28-2.38 2.48-2.38 1.51 0 2.52.94 2.52 2.35v1.26c0 1.64-1.28 2.39-2.48 2.39C35 32 34 31.1 34 29.73v-1.36Zm2.5-1.26c-.77 0-1.22.45-1.22 1.18v1.4c0 .72.48 1.16 1.24 1.16.78 0 1.2-.43 1.2-1.2v-1.4c0-.7-.46-1.14-1.23-1.14ZM18.37 26c-.73 0-1.41.26-1.89.71A2.7 2.7 0 0 0 14.6 26a3.9 3.9 0 0 0-2.6 1.05V32h1.28l.03-4.43s.5-.43 1.3-.43c.78 0 1.39.45 1.39 1.19V32h1.16v-3.67c0-.74.46-1.2 1.25-1.2s1.27.44 1.27 1.16V32H21v-3.63c-.01-1.42-1.07-2.37-2.62-2.37ZM28 27.05A3.87 3.87 0 0 1 30.6 26h.02l.03.03v1.1h-.03c-.82 0-1.32.44-1.32.44V32H28v-4.95Zm15.08-1c-.04-.02-.08-.02-.13-.02l-.11-.02h-.1l-.09-.01h-.13c-1.5 0-2.5 1.02-2.52 1.05V32h1.25v-4.43s.48-.42 1.24-.43c.77 0 1.21.43 1.21 1.15V32H45v-3.63c0-1.22-.73-2.1-1.92-2.33Zm-20.75 1.03A2.5 2.5 0 0 1 24.48 26C26 26 27 26.95 27 28.35v2.61A3.74 3.74 0 0 1 24.46 32a3 3 0 0 1-.94-.16 2.15 2.15 0 0 1-1.43-1.34l-.02-.04a1.5 1.5 0 0 1 .12-1.2c.27-.45.81-.77 1.6-.93l1.88-.37c-.1-.55-.55-.85-1.2-.85-.5 0-.88.19-1.06.54l-.02.03-.03.02-1.05-.58.02-.04Zm2.93 3.67c.3-.13.5-.29.5-.29v-1.34a16.1 16.1 0 0 0-.53.1l-.33.07-.86.16c-.6.13-.76.33-.78.48-.03.2.03.4.18.56.21.26.62.4 1.07.4.27-.01.5-.06.75-.14Zm25.55-2.02a1.5 1.5 0 0 0 .12-1.2l-.02-.04a2.15 2.15 0 0 0-1.43-1.33c-.3-.1-.63-.16-.94-.16h-.03c-1.2 0-2.51.75-2.51 2.38v1.28c0 1.4 1.03 2.34 2.54 2.34.9 0 1.7-.4 2.14-1.08l.03-.04-1.06-.57-.03.01-.01.03c-.19.36-.57.54-1.06.54-.65 0-1.1-.31-1.2-.84.46-.1 1.17-.25 1.87-.38.78-.17 1.32-.48 1.6-.94Zm-3.03.07a4.96 4.96 0 0 0-.5.1v-.59c0-.64.34-1.06.92-1.15l.3-.03c.46 0 .86.15 1.08.4.14.16.2.36.17.57-.01.14-.17.34-.78.47-.3.07-.64.13-.96.19l-.23.04ZM29.66 23H35v1.35h-2V32h-1.34v-7.65h-2V23Z" fill="#fff"/></svg>