<!-- by TradingView --><svg xmlns="http://www.w3.org/2000/svg" width="56" height="56"><path fill="#F0F3FA" d="M0 0h56v56H0z"/><path d="M16.31 19.2c-2.21-.02-2.7 1.04-2.65 1.57.15 1.45.8 1.4 1.1 1.2 1.52-.51 5.06-1.4 6.99-.85 2.4.7 5.22 5.3 6.03 7.29.8 1.98 1.48 3.28 1.85 3.2.36-.08 1.04-.33 1.67-1.26.51-.75.37-1.53.24-1.83-1.11-1.94-4.38-5.17-5.88-6.54-1.06-.98-2.42-1.93-2.22-2.78.2-.86 1.95-2.55 2.8-3.28.15-.23.12-.7-1.16-.72-1.28-.03-1.62.46-1.64.72-.4.97-1.41 3.02-2.3 3.38-1.13.44-2.05-.08-4.83-.1z" fill="url(#a3r2ranxy)"/><path d="M28.28 37a17.55 17.55 0 01-12.52 1.09c-.66-.2-1.1.31-.64.82a35.66 35.66 0 004.96 4.26c.4.19 6.55-1.07 13.28-6.82 6.74-5.75 6.86-8.83 8.42-8.68 1.25.13 1.58 1.52 1.59 2.2-.02.98.02 2.97.34 3.15.33.17.45-.08.47-.22.24-.78.74-2.79.81-4.62.1-2.3-.5-4.15-.81-4.06-.31.1-.19 1.76-1.84 1.35-1.65-.4-1.12 0-4.68-4.9-3.55-4.9-9.38-9.42-11.22-9.56-1.84-.13-5.76.92-6.4 1.92-.52.8.87 1.3 1.64 1.46a20 20 0 017 1.1c7.52 2.54 8.5 7.77 8.6 9.98.11 2.22-1.13 7.74-9 11.54z" fill="url(#b3r2ranxy)"/><path d="M33.1 43.17c-.52.4-.33.65-.17.73.84.03 3.2-.48 5.95-2.8 2.75-2.33 4.08-4.75 4.4-5.66.13-.45.22-1.36-.45-1.38-.68-.03-1.05.64-1.15.98-.23 1.12-1.22 3.36-3.32 3.42-2.1.06-3.8-.7-4.38-1.07-.35-.2-1.09-.47-1.26 0-.18.47 0 .63.18.87 1.04.64 2.87 1.48 3.02 2.27.19.98-2.16 2.14-2.81 2.64z" fill="url(#c3r2ranxy)"/><path d="M14.7 27.25c-2.49-.73-2.25-4.49-1.83-6.27-1.83 2.16-1.98 6.3-1.82 8.1a3 3 0 011.47-.74c.72-.12 1.08.45 1.17.75-.07.41.05 2.04 1.01 5.2 1.2 3.97 6.34 7.14 7 7.61a4.55 4.55 0 011.63 1.96c.39.9 2.8 1.18 4.35 1.14.48-.02.9-.05 1.25-.1.56-.08.69-.65.19-.93-.57-.3-1.4-.67-2.57-1.01-2.8-.82-7.03-3.88-7.19-8.66-.15-4.78 3.58-5.49 10.3-8.74 5.38-2.6 6.86-4.43 6.92-5.02.24-.68.34-2.3-1.13-3.37-1.82-1.33-2.68.32-3.14 1.1-.47.79-3.58 5.1-7.58 7.29-4 2.2-6.92 2.59-10.03 1.69z" fill="url(#d3r2ranxy)"/><ellipse rx="2.28" ry="3.28" transform="matrix(.939 .34392 -.33898 .9408 16.67 23.16)" fill="#EF5129"/><ellipse rx="1.1" ry="1.4" transform="rotate(4.51 -444.77 513.8) skewX(.07)" fill="#EFAA2C"/><path d="M40.5 16.67a14.24 14.24 0 00-7.97-5.13c-.09-.02-.12.1-.04.14 1.18.55 2.97 1.46 3.38 1.89.4.4.27 1.88.1 2.92 0 .1.15.15.2.07.44-.62 1.14-1.35 1.85-1.27.64.07 1.61.82 2.36 1.5.07.07.19-.04.13-.12z" fill="url(#e3r2ranxy)"/><ellipse rx=".92" ry=".62" transform="matrix(.97108 -.23875 .23509 .97197 33.9 14.26)" fill="#FEF086"/><defs><linearGradient id="a3r2ranxy" x1="14.54" y1="20.29" x2="26.1" y2="20.13" gradientUnits="userSpaceOnUse"><stop stop-color="#03A5DD"/><stop offset="1" stop-color="#0275BA"/></linearGradient><linearGradient id="b3r2ranxy" x1="13.42" y1="25.2" x2="44.77" y2="30.38" gradientUnits="userSpaceOnUse"><stop stop-color="#0A98CC"/><stop offset="1" stop-color="#176693"/></linearGradient><linearGradient id="c3r2ranxy" x1="33.41" y1="39.84" x2="42.31" y2="34.48" gradientUnits="userSpaceOnUse"><stop stop-color="#EB6E35"/><stop offset="1" stop-color="#F2C529"/></linearGradient><linearGradient id="d3r2ranxy" x1="9.96" y1="31.79" x2="36.15" y2="24.03" gradientUnits="userSpaceOnUse"><stop offset=".23" stop-color="#EF5129"/><stop offset="1" stop-color="#F1A72E"/></linearGradient><linearGradient id="e3r2ranxy" x1="33.94" y1="11.69" x2="38.12" y2="15" gradientUnits="userSpaceOnUse"><stop stop-color="#FEED75"/><stop offset="1" stop-color="#F3BF66"/></linearGradient></defs></svg>