<!-- by TradingView --><svg width="56" height="56" viewBox="0 0 56 56" xmlns="http://www.w3.org/2000/svg"><path fill="#F0F3FA" d="M0 0h56v56H0z"/><path d="M41.3 38.6a16.99 16.99 0 0 0-4.3-25c9.32 10.87 3.88 20.07 0 23.31l4.3 1.68Z" fill="#DB1D2A"/><path fill-rule="evenodd" d="M28.86 30.96c1.86 4.37 8 7.57 11.38 8.84a17 17 0 1 1-3.93-26.64c1.23 1.05 1.82 2.23 2 4.71.52 6.97-6.11 11.66-9.45 13.1Zm-1.85 8.71C23 39.3 14.85 36.01 14.48 25.79c-.08-4.3 2.56-13.09 13.76-13.88 2.84.02 8.48 1.02 8.34 4.84-.18 4.78-6.77 11.78-18.72 7.58.06 2.2 1.97 8.34 9.15 15.34Z" fill="#2A3467"/></svg>