<!-- by TradingView --><svg width="56" height="56" viewBox="0 0 56 56" xmlns="http://www.w3.org/2000/svg"><path fill="#F0F3FA" d="M0 0h56v56H0z"/><path fill-rule="evenodd" d="M23.74 21.85c.17-.38.26-.83.26-1.35 0-.52-.09-.97-.26-1.35a2.01 2.01 0 0 0-.72-.85c-.3-.2-.64-.3-1.02-.3s-.72.1-1.02.3c-.3.2-.54.48-.72.85-.17.38-.26.83-.26 1.35 0 .52.09.97.26 1.34.18.38.42.66.72.86.3.2.64.3 1.02.3s.72-.1 1.02-.3c.3-.2.54-.48.72-.85Zm-.69-2.28c.1.25.16.56.16.93s-.05.68-.16.94c-.1.25-.24.44-.42.57-.18.13-.4.2-.63.2-.24 0-.45-.07-.63-.2a1.3 1.3 0 0 1-.42-.57c-.1-.26-.16-.57-.16-.94s.05-.68.16-.93c.1-.26.24-.45.42-.58.18-.13.4-.2.63-.2.24 0 .45.07.63.2s.32.32.42.58Zm3.6 3.43H25v-5h1.68c.48 0 .9.1 1.24.3.35.2.61.48.8.86.19.37.28.82.28 1.34 0 .52-.1.96-.28 1.34-.19.37-.46.66-.81.86-.35.2-.77.3-1.27.3Zm-.77-.78h.72c.34 0 .62-.07.85-.2.22-.12.4-.31.5-.57.12-.25.18-.57.18-.95 0-.39-.06-.7-.17-.96a1.19 1.19 0 0 0-.5-.57c-.23-.12-.5-.19-.83-.19h-.75v3.44ZM30 18v5h3v-.76h-2.17v-1.36h2v-.76h-2v-1.36h2.15V18H30Zm4 5v-5h1.73c.35 0 .65.07.89.2s.42.32.55.56c.12.24.18.52.18.84 0 .32-.06.6-.19.83a1.3 1.3 0 0 1-.64.59l1 1.98h-.93l-.9-1.83h-.86V23H34Zm1.6-2.58h-.77v-1.66h.77c.2 0 .38.03.51.1.13.06.23.16.3.29.06.12.1.27.1.45s-.04.33-.1.45a.62.62 0 0 1-.3.27c-.13.07-.3.1-.5.1ZM42 18v5h-.78l-2.3-3.4h-.04V23H38v-5h.79l2.29 3.4h.04V18H42Zm-28 .07h1.02l1.37 3.52h.05l1.37-3.52h1.02v4.86h-.8V19.6H18l-1.27 3.33h-.6l-1.28-3.34h-.04v3.35H14v-4.86ZM7 25v5h.88v-2.12h2.24V30H11v-5h-.88v2.12H7.88V25H7Zm5 5v-5h2.98v.76h-2.15v1.36h2v.76h-2v1.36H15V30h-3Zm3.57 0h.89l.38-1.23h1.73l.38 1.23h.9l-1.63-5h-1.03l-1.62 5Zm2.76-2-.6-1.97h-.04L17.08 28h1.25Zm1.84 2v-5H21v4.24h2.04V30h-2.87Zm3.42-5v.76H25V30h.83v-4.24h1.42V25h-3.67ZM28 30v-5h.83v2.12H31V25h.8v5H31v-2.12h-2.17V30H28Zm7.43-3.3h.84c-.03-.26-.1-.5-.22-.71a1.76 1.76 0 0 0-1.01-.88 2.17 2.17 0 0 0-1.8.19c-.31.2-.57.48-.75.85a3 3 0 0 0-.28 1.35c0 .52.1.97.28 1.35.18.37.43.65.75.85a2 2 0 0 0 1.08.3c.28 0 .53-.04.75-.13a1.86 1.86 0 0 0 1-.9 2 2 0 0 0 .2-.65h-.84a1.1 1.1 0 0 1-.38.66c-.1.07-.2.13-.33.17a1.27 1.27 0 0 1-1.05-.13 1.3 1.3 0 0 1-.45-.58c-.11-.25-.17-.57-.17-.94s.06-.68.17-.93c.1-.25.26-.45.45-.58.2-.13.42-.2.67-.2.14 0 .27.02.39.06a.98.98 0 0 1 .57.47c.06.11.1.24.13.39Zm2.14 3.3h-.9l1.63-5h1.03l1.62 5h-.89l-.38-1.23h-1.73L37.57 30Zm1.26-3.97.61 1.97H38.2l.6-1.97h.04ZM41.56 30h.83v-1.83h.85l.9 1.83h.93l-1-1.98a1.36 1.36 0 0 0 .65-.59c.12-.23.19-.51.19-.83 0-.32-.07-.6-.2-.84-.11-.24-.3-.43-.54-.56a1.8 1.8 0 0 0-.89-.2h-1.72v5Zm.83-2.58h.77c.2 0 .38-.03.5-.1a.62.62 0 0 0 .3-.27c.06-.12.1-.27.1-.45a.98.98 0 0 0-.1-.46.64.64 0 0 0-.3-.28c-.13-.07-.3-.1-.5-.1h-.77v1.66ZM46 30h3.01v-.76h-2.18v-1.36h2v-.76h-2v-1.36H49V25H46v5ZM7 32v.76h1.42V37h.83v-4.24h1.42V32H7Zm4.17 5v-5h3v.76H12v1.36h2.01v.76H12v1.36h2.18V37h-3Zm7.05-3.3h.84c-.04-.26-.11-.5-.22-.71a1.76 1.76 0 0 0-1.02-.88 2.17 2.17 0 0 0-1.8.19c-.3.2-.56.48-.74.85A3 3 0 0 0 15 34.5c0 .52.1.97.27 1.35.19.37.44.65.75.85a2 2 0 0 0 1.09.3c.27 0 .52-.04.75-.13a1.86 1.86 0 0 0 1-.9 2 2 0 0 0 .2-.65h-.84a1.1 1.1 0 0 1-.39.66c-.1.07-.2.13-.32.17a1.27 1.27 0 0 1-1.05-.13 1.3 1.3 0 0 1-.46-.58 2.4 2.4 0 0 1-.16-.94c0-.37.05-.68.16-.93s.26-.45.46-.58a1.22 1.22 0 0 1 1.06-.14.98.98 0 0 1 .56.47c.07.11.11.24.14.39ZM20 32h.83v2H23v-2h.8v5H23v-2.25h-2.17V37H20v-5Zm8.78 0h-.83v3.4h-.04L25.75 32H25v5h.83v-3.4h.04l2.17 3.4h.74v-5Zm4.59 2.5a3 3 0 0 1-.28 1.35A2 2 0 0 1 31.25 37c-.4 0-.76-.1-1.08-.3-.32-.2-.57-.48-.76-.85a3.02 3.02 0 0 1-.27-1.35 3 3 0 0 1 .27-1.35c.2-.37.44-.65.76-.85.32-.2.68-.3 1.08-.3a2 2 0 0 1 1.84 1.15c.18.38.28.83.28 1.35Zm-.84 0c0-.37-.06-.68-.16-.93-.11-.26-.26-.45-.45-.58-.2-.13-.42-.2-.67-.2-.25 0-.47.07-.66.2-.2.13-.34.32-.45.58-.11.25-.16.56-.16.93s.05.68.16.94a1.15 1.15 0 0 0 1.11.77 1.15 1.15 0 0 0 1.12-.77c.1-.26.16-.57.16-.94ZM34 37h2.86v-.76h-2.03V32H34v5Zm7.45-2.5a3 3 0 0 1-.28 1.35A2 2 0 0 1 39.33 37c-.8 0-1.47-.41-1.84-1.15a3.02 3.02 0 0 1-.27-1.35c0-1.27.73-2.5 2.11-2.5a2 2 0 0 1 1.84 1.15c.18.38.28.83.28 1.35Zm-.84 0c0-.37-.06-.68-.17-.93-.1-.26-.25-.45-.45-.58-.19-.13-.4-.2-.66-.2-.92 0-1.33.92-1.33 1.71 0 .8.4 1.7 1.33 1.7a1.15 1.15 0 0 0 1.11-.76c.11-.26.17-.57.17-.94Zm4.43-1.22c.07.1.12.21.16.34h.85a1.88 1.88 0 0 0-.64-1.17 2.09 2.09 0 0 0-2.8.21 2.3 2.3 0 0 0-.45.8c-.1.3-.16.65-.16 1.04 0 .52.09.96.27 1.34.18.37.43.66.75.86.32.2.69.3 1.11.3.38 0 .72-.08 1.01-.24.3-.17.53-.4.7-.7.16-.3.16-.66.16-1.06v-.61h-1.78V35h1.06c-.01.23-.06.51-.14.66-.1.18-.22.31-.4.4-.17.1-.37.15-.6.15-.26 0-.49-.07-.68-.2a1.3 1.3 0 0 1-.46-.58c-.1-.26-.16-.57-.16-.93 0-.37.05-.68.16-.93.11-.26.27-.45.46-.58a1.23 1.23 0 0 1 1.04-.14c.12.03.22.09.31.16.1.08.17.16.23.27ZM46.76 32h-.94l1.67 3.13V37h.84v-1.87L50 32h-.94l-1.13 2.21h-.04L46.76 32Z"/></svg>