<!-- by TradingView --><svg width="56" height="56" viewBox="0 0 56 56" xmlns="http://www.w3.org/2000/svg"><path fill="#F0F3FA" d="M0 0h56v56H0z"/><path d="M46 27.66c0 2.35-.78 4.56-2.16 6.5l-13.14-9.1a.78.78 0 0 0-.39-.12c-.18-.02-.34.1-.47.23l-.46.5c-.16.17-.36.31-.58.28-.42-.06-.61-.52-.78-.91v-.01l-.02-.05v-.01c-.19-.43-.4-.93-.85-.97a2337.85 2337.85 0 0 1-12.2 7.84l-3.02 1.98A11.03 11.03 0 0 1 10 27.66C10 20.1 18.06 14 28 14s18 6.11 18 13.66ZM15 23h8.47c.13.4.55 1 1.23 1 .56 0 1.85-.49 2.73-.82l.48-.18h12.66L42 21.89c-1.72-.2-5.27-.6-7-.6.19-.15.42-.3.66-.45.65-.42 1.34-.87 1.34-1.36 0-.68-1.78-1.48-2.33-1.48-.25 0-1.68.6-3.25 1.27-1.93.82-4.07 1.73-4.53 1.73-.44 0-1.02-.85-1.56-1.65-.48-.7-.92-1.35-1.22-1.35-.42 0-.73.13-.96.24l-.15.06.5 3.14-7.34.26L15 23Z" fill="#00468E"/><path d="M41 38c-3.35 2.47-7.94 4-13 4s-9.65-1.53-13-4h26Z" fill="#CE7521"/><path d="M25.96 27.91a3.23 3.23 0 0 1 4.5 0L38.55 36H17.87l2-2H33l-1.14-1H20.87l3-3H30l-1.14-1h-3.99l1.1-1.09Z" fill="#00468E"/></svg>