<!-- by TradingView --><svg width="56" height="56" viewBox="0 0 56 56" xmlns="http://www.w3.org/2000/svg"><path fill="#F0F3FA" d="M0 0h56v56H0z"/><path d="M42.27 35.22a26.3 26.3 0 0 0-15.34-4.12c-.02 0-.04 0-.04-.03V31c0-.02 0-.04.02-.05.07-.06.06-.12 0-.19-.02-.01-.03-.03-.01-.05.08-.11.09-.22.01-.3a.1.1 0 0 1-.02-.06l-.03-.29-.01-.02-.05-.04a.06.06 0 0 1-.01-.06.64.64 0 0 0-.15-.47.33.33 0 0 1-.05-.19v-.05l-.04-.08c-.04-.1-.11-.37-.22-.8-.07-.3-.1-.6-.06-.91l.27-2.4a16.45 16.45 0 0 0 .02-1.2 4.27 4.27 0 0 0-.15-.9 4.15 4.15 0 0 0-.48-1.02.35.35 0 0 1-.03-.1.3.3 0 0 0-.03-.13.49.49 0 0 1-.04-.05l.01-.05c.14-.1.21-.27.24-.5l.1-1c.03-.4.07-.67.1-.82a.61.61 0 0 1 .34-.45c.18-.09.36-.06.54.08.14.11.32.31.54.6a2.63 2.63 0 0 0 1.4 1.06c.79.27 1.45.13 1.98-.4a2.4 2.4 0 0 0 .6-1.29 7.55 7.55 0 0 0 .04-1.35l-.02-.01-.02.01c-.08.41-.22.8-.43 1.16-.22.4-.5.7-.8.9-.38.25-.77.31-1.17.18a2.3 2.3 0 0 1-1.13-.87l-.32-.43a1.59 1.59 0 0 0-1.2-.67c-.62-.04-1.04.34-1.27 1.13-.12.4-.21.83-.28 1.28-.02.14-.08.37-.19.71 0 .03 0 .06.02.08.04.04.06.1.06.17.01.1.05.2.12.29.02.02.02.04.02.06-.01.03-.02.05-.05.05l-.34.15a.16.16 0 0 0-.08.08c-.09.18-.13.37-.13.56 0 .09.02.16.07.23a1.35 1.35 0 0 0 .2.24.2.2 0 0 1 .07.18l-.02.1a.84.84 0 0 0-.03.26c.03.21.11.36.26.45.03.02.05.05.05.08.03.17.04.33 0 .5 0 .02 0 .04-.02.05a2.1 2.1 0 0 1-.47.47.61.61 0 0 0-.17.24c-.04.1-.04.2 0 .28.04.1.12.18.24.23l.08.04c.16.09.06.31-.32.66l-.01.02a5.91 5.91 0 0 1-.16.25.22.22 0 0 0 0 .17l.04.04c.14.11.3.18.49.22.02 0 .03.02.02.03a.6.6 0 0 1-.08.24.59.59 0 0 1-.17.21.63.63 0 0 0-.3.45c0 .03 0 .06.03.09.01.02.04.04.07.04l.06.01c.16.03.27.06.34.1.11.06.12.15.04.28a17.23 17.23 0 0 0-.27.43c.02.1.06.18.12.25 0 .02.02.03.04.03.11.07.2.14.27.22.01.02.03.03.05.03.08.04.12.1.12.18 0 .04.03.08.08.13.03.03.04.05.05.09l.03.31c0 .02 0 .04-.02.06l-.02.02a.06.06 0 0 0-.02.05v.2c0 .02 0 .04.02.06l.3.3c.03.02.05.06.06.11l.05.19c0 .01 0 .02-.02.02-1.77.16-3.52.5-5.23 1-2.37.7-4.6 1.73-6.68 3.08a15.97 15.97 0 0 1 10.64-22.84 15.89 15.89 0 0 1 16.37 5.92 15.9 15.9 0 0 1 1.51 16.88Z" fill="url(#a)"/><path d="M25.86 33.2a24.07 24.07 0 0 1 7.24.4 25.86 25.86 0 0 1 8.23 3.21v.02a15.94 15.94 0 0 1-21.04 5.2 15.88 15.88 0 0 1-5.58-5.13l.97-.56a25.57 25.57 0 0 1 10.18-3.15ZM22.02 36l-.02.01a468.83 468.83 0 0 0 .02 3.99h.95c.02 0 .03 0 .03-.03V38.4c0-.02 0-.03.02-.02a312.3 312.3 0 0 0 1.98.02v1.59c0 .01.01.02.03.02h.95l.02-.01a509.29 509.29 0 0 0-.02-3.99h-.95c-.02 0-.03 0-.03.03v1.58c0 .02 0 .02-.02.02a277.55 277.55 0 0 0-1.98-.02v-1.59c0-.01-.01-.02-.03-.02h-.95Zm5 0c-.01 0-.02 0-.02.02v3.96c0 .01.01.02.03.02h2.94c.02 0 .03 0 .03-.02v-.66c0-.01-.01-.02-.03-.02h-1.94c-.02 0-.03 0-.03-.02v-.91c0-.02 0-.03.03-.03h1.7c.02 0 .03 0 .03-.02v-.65c0-.02-.01-.03-.03-.03h-1.7c-.02 0-.03 0-.03-.02v-.9c0-.02 0-.02.03-.02h1.81c.02 0 .03-.01.03-.03v-.65c0-.01 0-.02-.03-.02h-2.81Zm6.64.05c-.4-.06-.8-.07-1.18-.02a2.1 2.1 0 0 0-1.67 1.25 2.03 2.03 0 0 0 .23 1.98c.26.35.63.58 1.13.69a3.92 3.92 0 0 0 1.8-.13c.02-.01.03-.02.03-.04v-.71c0-.02 0-.02-.02-.01-.23.11-.47.19-.72.22-.26.04-.51.03-.75-.04a1.1 1.1 0 0 1-.78-.69 1.54 1.54 0 0 1-.02-1.02c.04-.13.12-.26.24-.4.18-.2.41-.33.68-.38a2.24 2.24 0 0 1 1.1.07l.24.09c.02 0 .03 0 .03-.02v-.72c0-.02-.01-.03-.03-.04a1.38 1.38 0 0 0-.3-.08Z" fill="url(#b)"/><defs><linearGradient id="a" x1="28" y1="12" x2="28" y2="35.26" gradientUnits="userSpaceOnUse"><stop stop-color="#FFE200"/><stop offset="1" stop-color="#F18700"/></linearGradient><linearGradient id="b" x1="14.71" y1="38.54" x2="41.33" y2="38.54" gradientUnits="userSpaceOnUse"><stop stop-color="#0068AF"/><stop offset=".5" stop-color="#0090D7"/><stop offset="1" stop-color="#0067AE"/></linearGradient></defs></svg>