<!-- by TradingView --><svg width="56" height="56" viewBox="0 0 56 56" xmlns="http://www.w3.org/2000/svg"><path fill="#F0F3FA" d="M0 0h56v56H0z"/><path d="M4 24h4.3a2.2 2.2 0 0 1 1.13 4.11A2.54 2.54 0 0 1 8.46 33H7v-2.25h1.05a.38.38 0 0 0 0-.75H7v-2.67h.56a.46.46 0 1 0 0-.91h-.88V33H4v-9ZM35 24h-3v6c0 1.66 1.26 3 2.82 3H36v-3h-.53c-.26 0-.47-.22-.47-.5V24ZM25 27v-3h-7v3h2v6h3v-6h2Z" fill="#2E3A6A"/><path d="M11 29.5a3.6 3.6 0 0 1 3.69-3.5H15c2.2 0 4 1.7 4 3.8V33h-3v-3.41c0-.52-.48-.94-1.08-.94-.6 0-1.08.42-1.08.94 0 .51.49.93 1.08.93.24 0 .45-.06.63-.17V33h-.86A3.6 3.6 0 0 1 11 29.5ZM36 29.5a3.6 3.6 0 0 1 3.69-3.5H40c2.2 0 4 1.7 4 3.8V33h-3v-3.41c0-.52-.48-.94-1.08-.94-.6 0-1.08.42-1.08.94 0 .51.49.93 1.08.93.24 0 .45-.06.63-.17V33h-.86A3.6 3.6 0 0 1 36 29.5ZM52 29.6c0 1.88-1.65 3.4-3.69 3.4H48c-2.2 0-4-1.65-4-3.7V24h3v5.52c0 .5.45.9 1.04.9.6 0 .96-.4.96-.9s-.36-.92-.96-.92c-.23 0-.45.07-.62.17V26h.9A3.72 3.72 0 0 1 52 29.6ZM31.97 30c.02-.14.03-.36.03-.5 0-1.93-1.8-3.5-4-3.5s-4 1.57-4 3.5 1.8 3.5 4 3.5c.98 0 1.88-.3 2.57-.82l-1.62-1.71a1.1 1.1 0 0 1-.9.53c-.65 0-1.17-.7-1.17-1.5s.52-1.5 1.16-1.5c.42 0 .79.32 1 .73H27.6V30h4.37Z" fill="#2E3A6A"/></svg>