<!-- by TradingView --><svg width="56" height="56" viewBox="0 0 56 56" xmlns="http://www.w3.org/2000/svg"><path fill="#F0F3FA" d="M0 0h56v56H0z"/><path d="m38.7 17.26.27-.06.56-.08c3.51-.53 6.06.6 5.35 4.6l-.05.28h-3.59l.07-.27.04-.26.02-.25c.19-2.04-1.73-1.86-2.46-.43l-.07.15-.08.2c-.55 1.64.71 2.25 2.06 2.9.89.42 1.81.86 2.28 1.63l.12.2.09.23.07.26.06.26c.43 3.68-1.54 5.79-4.91 6.3l-.4.04-.32.02c-3.43.19-5.74-1.64-4.79-4.98h3.71c-.52 1.36-.25 2.74 1.62 2.2l.11-.04.11-.06c1.07-.46 1.18-2.3.54-3.04l-.1-.12-.12-.11-.13-.1-.26-.17-.65-.35c-1.54-.81-2.65-1.4-2.84-3.6l-.01-.27v-.27c.08-1.98 1.36-3.98 3.18-4.64l.25-.1.28-.07ZM19.28 23h3.75l.26-1.22c.46-2.95-.8-4.75-3.84-4.78l-.63.01-.57.06c-4.89.62-5.84 4.79-6.67 9.02l-.2 1-.21.98-.07.35-.05.36c-.19 2.05.25 3.69 2.43 4.05l.29.06.3.04c3.21.4 6.51-.85 7.61-4.23l.16-.5.12-.53.11-.67h-3.9l-.22.87-.19.69-.08.3c-.36 1.1-.8 1.63-1.97 1.43l-.15-.05-.13-.04c-.95-.43-.51-2.03-.25-2.96l.1-.38.23-.8.2-.74.18-.79.17-.84.09-.4c.24-1.16.67-3.2 1.9-3.28h.16l.15.01c1 .1 1.27.69 1.14 1.65L19.27 23Zm-2.72 15.93.18.01h.15l.17-.01.17-.01a7.06 7.06 0 0 0 2.15-.68c.95-.42 1.88-.82 2.84-.59l.29.07.3.08c.44.14.86.3 1.27.46 1.45.57 2.78 1.09 4.37.36l.3-.12.31-.14.6-.26c1.92-.91 3.05-.4 4.26.16 1.5.68 3.1 1.41 6.44-.38l.13-.06.13-.04.08-.41c.09-.42.2-.83.32-1.24.15-.54.3-1.07.4-1.62l.13-.68-.7.28-.67.27-.66.24c-2.56 1.07-3.94.55-5.47-.02a9.41 9.41 0 0 0-3.28-.76l-.17.02-.15.03-.15.02c-.48.12-.86.37-1.23.63-.35.24-.7.48-1.14.62l-.16.06-.15.05c-1.06.2-1.25.1-1.88-.18-.19-.1-.42-.2-.73-.32l-.3-.14-.33-.12-.34-.13-.36-.12-.4-.11c-1.49-.63-2.71-.1-3.92.43-1.18.51-2.35 1.02-3.74.46l-.33-.15-.32-.16-.3-.15a3.96 3.96 0 0 0-2.89-.63l-.26.05-.29.07c-.83.23-1.89 1.73-1.98 2.68l-.05.3-.06.32-.06.69-.07.8.3-.26c2.2-1.53 3.58-1 5.28-.33.6.23 1.24.48 1.97.66ZM25.7 17h3.9l-1.35 5.86L32.67 17h3.76l-5.94 8.16L32.86 33h-3.9l-1.59-5.6L25.9 33H22l3.7-16Z" fill="#AD2023"/></svg>