<!-- by TradingView --><svg width="56" height="56" viewBox="0 0 56 56" xmlns="http://www.w3.org/2000/svg"><path fill="#F0F3FA" d="M0 0h56v56H0z"/><path d="M13.05 13H13c.56 11.74 9.56 14.21 14 13.99L13.05 13Z" fill="url(#aafc5bvmw)"/><path d="M26.95 27H27C26.44 15.25 17.44 12.78 13 13L26.95 27Z" fill="url(#bafc5bvmw)"/><path d="M42.95 43H43C42.44 31.25 33.44 28.78 29 29L42.95 43Z" fill="url(#cafc5bvmw)"/><path d="M29.05 29H29c.56 11.74 9.56 14.21 14 13.99L29.05 29Z" fill="url(#dafc5bvmw)"/><path d="M29 27h.05l.01-.01c4.47.2 13.38-2.3 13.94-13.97V13l-.05-.01-.01.01c-4.47-.2-13.38 2.3-13.94 13.97V27Z" fill="url(#eafc5bvmw)"/><path d="M27 29h-.05l-.01.01c-4.47-.2-13.38 2.3-13.94 13.97V43l.05.01.01-.01c4.47.2 13.38-2.3 13.94-13.97V29Z" fill="url(#fafc5bvmw)"/><defs><linearGradient id="aafc5bvmw" x1="15.1" y1="14.35" x2="27.05" y2="26.97" gradientUnits="userSpaceOnUse"><stop stop-color="#82A941"/><stop offset=".4" stop-color="#AACE7E"/><stop offset=".8" stop-color="#DDF1CA"/><stop offset="1" stop-color="#EDF6EA"/></linearGradient><linearGradient id="bafc5bvmw" x1="26.31" y1="27.05" x2="12.95" y2="13.04" gradientUnits="userSpaceOnUse"><stop stop-color="#D4E2C1"/><stop offset=".23" stop-color="#93BB5F"/><stop offset=".4" stop-color="#A0C975"/><stop offset=".8" stop-color="#ACD177"/><stop offset="1" stop-color="#B9D898"/></linearGradient><linearGradient id="cafc5bvmw" x1="40.9" y1="41.65" x2="28.95" y2="29.03" gradientUnits="userSpaceOnUse"><stop stop-color="#82A941"/><stop offset=".4" stop-color="#AACE7E"/><stop offset=".8" stop-color="#DDF1CA"/><stop offset="1" stop-color="#EDF6EA"/></linearGradient><linearGradient id="dafc5bvmw" x1="29.69" y1="28.95" x2="43.05" y2="42.96" gradientUnits="userSpaceOnUse"><stop stop-color="#D4E2C1"/><stop offset=".23" stop-color="#93BB5F"/><stop offset=".4" stop-color="#A0C975"/><stop offset=".8" stop-color="#ACD177"/><stop offset="1" stop-color="#B9D898"/></linearGradient><linearGradient id="eafc5bvmw" x1="29.69" y1="27.05" x2="43.05" y2="13.04" gradientUnits="userSpaceOnUse"><stop stop-color="#CDE4FF"/><stop offset=".23" stop-color="#7EC9F5"/><stop offset=".4" stop-color="#1D9FD7"/><stop offset=".8" stop-color="#18A5DC"/><stop offset="1" stop-color="#17B1E1"/></linearGradient><linearGradient id="fafc5bvmw" x1="26.31" y1="28.95" x2="12.95" y2="42.96" gradientUnits="userSpaceOnUse"><stop stop-color="#CDE4FF"/><stop offset=".23" stop-color="#7EC9F5"/><stop offset=".4" stop-color="#1D9FD7"/><stop offset=".8" stop-color="#18A5DC"/><stop offset="1" stop-color="#17B1E1"/></linearGradient></defs></svg>