<!-- by TradingView --><svg width="56" height="56" viewBox="0 0 56 56" xmlns="http://www.w3.org/2000/svg"><path fill="#F0F3FA" d="M0 0h56v56H0z"/><path d="M25 16c-4 0-6.33 2.67-7 4 11 0 21 9 29 16-9-16-17-20-22-20Z" fill="#FACA00"/><path d="M21 22c-4 0-6.33 4-7 6 7.2-4.8 23.67 3.33 31 8-11-11-19-14-24-14Z" fill="url(#a2i2c0nfe)"/><path d="M18 28c-6 0-8.33 6-9 9 8.8-5.6 26.33-2.33 34 0-6-4-15.31-9-25-9Z" fill="url(#b2i2c0nfe)"/><defs><linearGradient id="a2i2c0nfe" x1="15" y1="26" x2="44" y2="35" gradientUnits="userSpaceOnUse"><stop stop-color="#CB4800"/><stop offset="1" stop-color="#EF9000"/></linearGradient><linearGradient id="b2i2c0nfe" x1="10" y1="34" x2="42" y2="36" gradientUnits="userSpaceOnUse"><stop stop-color="#005BAC"/><stop offset="1" stop-color="#98CAEB"/></linearGradient></defs></svg>