<!-- by TradingView --><svg width="56" height="56" viewBox="0 0 56 56" xmlns="http://www.w3.org/2000/svg"><path fill="#F0F3FA" d="M0 0h56v56H0z"/><path d="m31.44 13.08-.3 3.42c-2.97-.26-4.68 1.15-5.13 4.24-.02.1.02.2.11.26.1.06.2.06.29 0l.72-.41c.32-.18.42-.45.32-.8-.14-.5-.05-1.03.27-1.6.04-.08.1-.1.18-.08.08.03.12.08.1.17l-.1.83c-.02.08.02.14.1.18.08.04.15.02.2-.05.31-.38.52-.6.62-.64.1-.04.18-.02.23.08.06.1.04.18-.05.25a1.7 1.7 0 0 0-.71 1.06c-.03.15.04.23.19.24.6.06 1.1-.02 1.49-.24.1-.05.14-.03.12.09l-.05.37c0 .02 0 .03-.03.04-.33.15-.72.24-1.18.28-.1 0-.14.05-.14.14 0 .1.04.15.13.16l1.29.18a.1.1 0 0 1 .1.09c0 .05-.02.09-.06.12-.32.17-.74.2-1.26.1a4.15 4.15 0 0 0-.42-.09.15.15 0 0 0-.15.07.14.14 0 0 0-.01.16c.08.17.23.3.45.4.09.05.11.11.06.2l-.05.09c-.01.01-.02.02-.04 0-.31-.2-.55-.44-.72-.74-.1-.2-.26-.24-.45-.12l-.84.48c-.24.13-.28.3-.12.53.32.45.64.69.94.71l.17.02c.75.07 1.29.07 1.6 0 .56-.13.8-.48.75-1.06 0-.1 0-.15.03-.18a.3.3 0 0 1 .11-.07c.06-.02.1 0 .11.06.05.23.12.34.21.33a.49.49 0 0 0 .33-.17.3.3 0 0 1 .27-.11c.04 0 .06.02.06.06 0 .04 0 .06-.04.08-.16.05-.38.32-.68.8-.05.09-.04.17.03.24.06.07.14.09.23.04.14-.06.32-.1.54-.1.06 0 .1.04.13.1.02.05.01.1-.03.14-.05.05-.18.06-.4.06a.15.15 0 0 0-.15.09.15.15 0 0 0 .02.17l.36.38c.04.04.04.08.02.13-.03.05-.07.07-.12.06-.54-.1-.91-.28-1.12-.53-.1-.11-.2-.12-.32-.04-.17.11-.53.21-1.1.3-.05 0-.09.04-.1.1 0 .06.02.1.08.12l1.91.76.38 1.9a13.1 13.1 0 0 0-5.58-2.19c-.06 0-.1.02-.14.07-.03.05-.03.1 0 .15l1 1.57c.08.14.18.24.28.3l.22.11c.02.06 0 .1-.03.14-.04.03-.09.04-.14.02a5.65 5.65 0 0 1-3.08-3.24 7.89 7.89 0 0 1-.31-4.55c0-.06 0-.1-.06-.15a.14.14 0 0 0-.15-.02l-2.33.96a.68.68 0 0 0-.22.15l-.99.93c-.04.04-.08.04-.13.02-.05-.03-.07-.07-.06-.13.65-2.98 2.43-4.62 5.35-4.91.39-.04.87-.11 1.45-.2.64-.12 1.15-.18 1.54-.2.19-.01.3-.11.32-.3.03-.19-.05-.31-.23-.37a17.01 17.01 0 0 0-4.8-.83c-.18 0-.19-.03 0-.07.4-.09.72-.22.98-.4a.36.36 0 0 1 .21-.07h3.69c.06 0 .1.02.15.05.3.28.59.27.88-.03.12-.12.13-.25 0-.38l-.44-.48c-.4-.42-.66-.73-.78-.92-.2-.3-.29-.62-.3-.98a.1.1 0 0 1 .08-.11c.04-.02.09 0 .12.03l.58.73c.93 1.2 1.72 2.01 2.38 2.44.04.02.07.02.1-.01.04-.03.05-.06.03-.1-.24-.63-.77-1.47-1.56-2.52-.3-.4-.51-.69-.62-.86-.2-.31-.36-.8-.47-1.47-.01-.04 0-.07.05-.1.03-.02.07-.01.1.02a22.51 22.51 0 0 1 3.53 4.05Z" fill="#073865"/><path d="m31.44 13.08 1.23 1.6a1 1 0 0 0 .28.23c.52.32.93.76 1.22 1.32.42.8.7 1.26.83 1.38.35.32.54.35.58.1 0-.03 0-.05-.02-.07l-1-1.73c-.02-.05-.01-.1.03-.13.05-.03.1-.03.14.01l.67.71c.04.05.09.06.14.04.05-.02.08-.06.08-.12v-3.2c0-.16.03-.16.09-.01.54 1.37.9 2.86 1.08 4.46.03.23.14.38.35.47a6.6 6.6 0 0 1 1.44.94c.38.29.5.77.37 1.45a.5.5 0 0 1-.14.2c-.03.05-.08.06-.13.03-.05-.02-.07-.06-.06-.11.07-.72-.2-1.17-.83-1.37a.7.7 0 0 0-.65.11.84.84 0 0 0-.35.6 3.5 3.5 0 0 0 .46 2.44 1 1 0 0 1 .12.7c-.02.14.02.27.1.4.46.69.63 1.52.5 2.51a.66.66 0 0 1-.2.41c-.93.9-1.68 1.08-2.23.53-.15-.15-.22-.55-.2-1.2a3.53 3.53 0 0 0-1.02-2.52l-1.8-1.96a.66.66 0 0 1-.16-.5c.03-.6-.23-.86-.8-.79-.06.01-.1 0-.12-.06-.03-.05-.02-.1.02-.13.53-.57.82-1.2.86-1.87.05-.79-.34-1.27-1.18-1.45l.3-3.42Zm2.84 6.78c-.2.06-.21.4-.03 1.05s.37.94.57.89c.2-.06.21-.41.03-1.06-.18-.64-.38-.94-.57-.88Z" fill="#005183"/><path d="M33.38 37.5c-.58-1.46-.64-3.23-.2-5.31l.17-.9c.04-.17-.03-.24-.21-.21l-2.64.44c-.07.02-.12-.01-.15-.07-.04-.06-.03-.12.02-.17l.49-.48c1.34-1.28 1.33-2.57-.04-3.87l-.38-1.9c1.54.72 2.84.54 3.89-.55.02-.03.05-.03.09 0 .03.02.04.05.02.08-.3.68-.81 1.17-1.54 1.45-.06.02-.1.07-.1.13 0 .07.03.12.09.14a8.72 8.72 0 0 1 4.8 5.44c.05.16.08.32.08.48a6.19 6.19 0 0 1-1.84 4.52c-.05.05-.1.06-.15.03-.06-.03-.08-.08-.06-.14l.33-1.46c0-.03 0-.06-.03-.07l-.09-.05c-.03-.02-.05-.01-.07.02a7.16 7.16 0 0 0-.98 3.27c-.01.15.04.27.17.35.64.44 1.24.52 1.8.23.21-.1.45-.16.7-.17.09-.01.13.03.13.11v.12c0 .05-.03.08-.08.08-.3 0-.53.06-.7.2a.15.15 0 0 0-.04.18c.03.07.08.1.15.1h.78a.1.1 0 0 1 .1.08c.01.05 0 .09-.04.12-.08.06-.2.1-.37.1-.4.02-.56.15-.5.42.02.07 0 .12-.06.16a.14.14 0 0 1-.17.01l-.6-.34c-.12-.07-.23-.06-.34.04l-.21.2c-.06.05-.12.05-.19.02-.13-.07-.21-.17-.22-.29-.02-.15.05-.23.2-.22l.16-.01c.11-.07.12-.14 0-.21a1.15 1.15 0 0 0-.54-.17c-.17-.01-.26.07-.26.24v.78c0 .05-.02.09-.08.11-.05.02-.09.01-.13-.03a4.72 4.72 0 0 1-1.16-3.03Z" fill="#005183"/><path d="M33.18 32.19c-.44 2.08-.38 3.85.2 5.3l-2 2.18c-.13.13-.13.26-.03.4.32.41.75.74 1.29.99a.5.5 0 0 0 .51-.05c.37-.24.68-.32.93-.24.05.01.09.05.09.1 0 .06-.02.1-.07.13l-1.2.7c-.08.04-.1.1-.07.18.03.08.09.11.17.1.23-.04.43-.11.6-.22.16-.1.3-.12.39-.05.09.07.15.13.2.2.02.05.02.1-.02.14a.12.12 0 0 1-.14.04c-.3-.09-.59-.02-.88.2-.16.12-.17.26-.05.4l.07.1c.04.06.03.11-.02.16-.05.06-.1.06-.17.03l-1.54-.89a.33.33 0 0 0-.27-.02c-.44.15-.9.13-1.38-.09-.11-.04-.16-.13-.13-.24.02-.12.1-.18.22-.18h1.36c.05 0 .09-.03.11-.08.02-.05.01-.1-.02-.13l-.9-.96c-.1-.11-.23-.14-.37-.08l-1.67.69c-.04.02-.08 0-.1-.03-.03-.04-.03-.08 0-.11l.92-.86c.05-.05.06-.1.03-.16-.02-.06-.07-.09-.13-.08l-1.75.02c-2.2.44-4.2 1.4-6.03 2.91-.04.03-.08.04-.12 0-.04-.02-.05-.06-.03-.1a4.5 4.5 0 0 1 1.28-1.87c.35-.3.92-.65 1.72-1.07.55-.3.96-.53 1.23-.7a.31.31 0 0 0 .15-.26c0-.1-.03-.2-.12-.27a2.67 2.67 0 0 0-1.1-.55.34.34 0 0 0-.4.15 3.73 3.73 0 0 1-2.36 1.45c-.18.05-.37.04-.55-.02-.15-.04-.38-.1-.68-.2a6.65 6.65 0 0 1-2.56-1.17.11.11 0 0 1-.03-.13c.02-.05.06-.07.12-.07.08.01.13.08.16.2a3.9 3.9 0 0 0 2.83.14c.1-.03.13-.09.1-.19-.02-.1-.08-.14-.18-.12-.45.06-.78-.15-.99-.62-.04-.09-.02-.16.06-.21.08-.06.15-.05.22.02l.29.3c.11.13.24.14.38.05.48-.32.66-.68.54-1.1-.1-.34-.38-.66-.85-.94a3.78 3.78 0 0 0-3.18-.45l-.21-3.08c2.27-.77 4.62-1.11 7.03-1.04.04 0 .06.02.06.06 0 .06-.03.08-.08.08-1.4 0-2.8.56-4.2 1.7-.04.03-.04.05.01.06l2.96.4a.1.1 0 0 1 .1.1c0 .05-.01.09-.06.12l-.52.3c-.08.04-.11.11-.1.2.02.1.07.15.17.17 1.24.23 2.39.17 3.43-.18.07-.02.12 0 .17.05.04.05.05.1.01.17l-.43.73c-.08.16-.09.31 0 .47.07.15.2.24.38.25a7.43 7.43 0 0 0 4.03-.79c.04-.02.07-.01.1.02.02.04.02.07-.01.1-.42.4-.85.66-1.3.76a.1.1 0 0 0-.09.09c0 .04.01.08.05.1.33.18.58.26.74.23a3.48 3.48 0 0 0 2.37-1.3 10.68 10.68 0 0 0 1.3-2.54Zm-.68 10.05c.05.02.1.02.18 0 .05-.01.06-.04.04-.08-.05-.1-.1-.14-.13-.15-.07-.02-.12 0-.15.07-.02.07 0 .13.06.16Z" fill="#073865"/><path d="m17.05 31.88.2 3.08c-.97.34-1.8.9-2.47 1.65a.14.14 0 0 1-.16.04c-.06-.03-.1-.07-.1-.14v-.74c0-.06-.02-.1-.08-.12-.06-.01-.1 0-.13.06a10.14 10.14 0 0 0-1.13 5.53c0 .06-.02.1-.08.1-.06.01-.1 0-.12-.06L12 38.5v-1.26c.57-2.65 2.25-4.44 5.05-5.37Z" fill="#005183"/></svg>