<!-- by TradingView --><svg width="56" height="56" viewBox="0 0 56 56" xmlns="http://www.w3.org/2000/svg"><path fill="#F0F3FA" d="M0 0h56v56H0z"/><path d="M17.43 35.37c.45.25.84.25 1.18.02l.07.06c.06.03.12.03.17-.02l.09-.06c.47.28.97.3 1.5.03h9.34c1.03.18 1.98.17 2.86 0h13.4c.02 0 .04 0 .06.02.02 0 .04.03.05.05a.13.13 0 0 1-.01.13l-.14.18a.33.33 0 0 1-.28.14H8.34c-.19 0-.29-.1-.3-.28-.42-8.38 2.67-14.85 9.26-19.42a18.42 18.42 0 0 1 8.68-3.1c5.28-.57 10.11.89 14.5 4.38a12.21 12.21 0 0 1 4.75 8.3c.02.14.1.22.22.25 1.45.3 2.3 1.23 2.55 2.82a.25.25 0 0 1-.06.2.24.24 0 0 1-.17.08c-1.16.03-1.46-.27-2.33-1.22-.32-.35-.5-.8-.56-1.33-.34-3.82-2.17-6.93-5.5-9.3a19.13 19.13 0 0 0-21.68-.75c-6.32 4.3-9.36 10.48-9.12 18.58 0 .07.03.14.08.19.05.05.11.07.18.07l8.59-.02Z" fill="#A8D12F"/><path d="M32.64 35.4c-.88.17-1.83.18-2.86 0l-.44-5.39c-.01-.18-.1-.27-.28-.3a9.37 9.37 0 0 0-4.29.56c-.63.23-.9.05-1.51-.17a.19.19 0 0 0-.22.08.2.2 0 0 0-.03.08c-.06.37-.2.72-.43 1.06a.39.39 0 0 0-.05.34c.1.3.1.5 0 .61-.1.1-.2.1-.3 0l-.2-.2c-.14-.14-.22-.11-.24.1l-.02.3c-.03.25-.14.3-.34.16-.1-.07-.23-.22-.36-.43-.1-.16-.17-.15-.2.05l-.09.43c-.05.28-.17.33-.37.13-.12-.12-.22-.36-.3-.71a.22.22 0 0 0-.13-.16.21.21 0 0 0-.2.03c-.14.1-.2.23-.2.36.04.51.03 1-.02 1.49-.01.12.01.24.08.34l.8 1.24a1.5 1.5 0 0 1-1.5-.03l-.58-3.53c-.04-.22-.1-.22-.16 0-.2.67-.31 1.36-.31 2.06 0 .13.04.24.12.33a3 3 0 0 1 .6 1.16c-.34.23-.73.23-1.18-.02a3.2 3.2 0 0 1-.35-2.1c.05-.38-.04-.97-.25-1.8-.13-.48-.02-.64.26-1.08.51-.82.13-1.5-.1-2.62-.07-.37-.14-.37-.2 0-.15.97-.23 1.99-.66 2.97-.14.31-.22.63-.25.96a.55.55 0 0 1-.14.33c-.5.55-1.19.77-2.03.65-.15-.02-.19-.1-.11-.23.31-.53.89-1.03 1.73-1.48.21-.11.34-.3.4-.58a12 12 0 0 1 .08-.4c.52-1.79.64-3.78.34-5.97-.05-.3.08-.82.38-1.52.14-.32.4-.55.79-.7.38-.14.83-.43 1.36-.45 3.08-.11 6.1-.2 9.05-.27 2.16-.05 4.39.41 6.64.18.02 0 .05-.01.07-.03a.17.17 0 0 0 .08-.14c0-.03 0-.06-.02-.08a3.32 3.32 0 0 1-.34-1.03.2.2 0 0 1 .05-.16.18.18 0 0 1 .14-.07c.54-.03.97.07 1.28.3.1.08.2.09.31.03.67-.3 1.3-.17 1.86.39a.33.33 0 0 0 .3.09c.45-.08.88-.03 1.29.15.12.05.17.15.13.28-.1.35-.32.6-.68.77a.34.34 0 0 0-.2.27.35.35 0 0 0 .13.31l.68.52c.37.28.46.64.27 1.07-.3.68-.76.89-1.4.62a.52.52 0 0 0-.35-.02c-1.53.41-2.71 1.04-3.28 2.58-.24.64-.6 1.2-1.1 1.65-.5.47-.84 1.34-1.35 1.74a.39.39 0 0 0-.15.32c0 .35.06.75-.02 1.11a7.13 7.13 0 0 0-.18 1.63c0 .3.1.62.28.94.16.28.31.57.47.9Zm-1.7-.52c.06.1.13.15.21.13a.13.13 0 0 0 .08-.07.14.14 0 0 0 0-.11c-.2-.49-.27-1-.22-1.56.04-.47-.12-.94-.3-1.36-.08-.15-.13-.14-.15.03a4.8 4.8 0 0 0 .37 2.94Z" fill="#00A651"/><path d="M45 27.95a4.32 4.32 0 0 1-1.27 4.33.36.36 0 0 1-.36.08.37.37 0 0 1-.23-.3c-.1-.85-.18-2.21.2-2.89a3.53 3.53 0 0 1 1.53-1.33.14.14 0 0 1 .1.05l.03.06ZM45.9 36.5H8.25a.24.24 0 0 0-.24.25c0 .14.1.25.24.25h37.67c.13 0 .24-.11.24-.25s-.1-.25-.24-.25Z" fill="#A8D12F"/></svg>