<!-- by TradingView --><svg width="56" height="56" viewBox="0 0 56 56" xmlns="http://www.w3.org/2000/svg"><path fill="#F0F3FA" d="M0 0h56v56H0z"/><path d="M17.94 17.02v.5h-.04l.05.43c.03.27.06.54.06.82.05.52.05.74.13.94.07.2.21.37.56.78a28.67 28.67 0 0 0 2.88 3.05 43.45 43.45 0 0 0 3.89 3.36c.55.43 1.13.83 1.78 1.11.33.15.62.22.95.15.18-.04.33-.11.47-.18.7-.33 1.28-.76 1.86-1.19a49.07 49.07 0 0 0 5.86-5.4c.44-.47.84-.94 1.2-1.47.07-.11.15-.22.15-.36.07-.32.14-.68.14-1 .07-.47.07-.97.07-1.47v-.07c-.07-.04-.07 0-.07 0l-.14.1c-.35.29-.69.6-1.02.9l-1.02.9a35.6 35.6 0 0 1-4.15 3.11c-.98.61-2 1.11-3.1 1.43-.21.07-.43.15-.69.07-.47-.1-.94-.28-1.38-.46-1.13-.5-1.71-.82-3.24-1.9a44.94 44.94 0 0 1-4.33-3.5l-.76-.65h-.11ZM27.9 36h.14c.04-.04.15-.1.15-.1l1.02-.9c.34-.3.67-.61 1.02-.9A35.6 35.6 0 0 1 34.39 31c.98-.61 2-1.12 3.1-1.44.21-.07.43-.14.68-.07.48.1.95.29 1.39.47 1.12.5 2.22 1.18 3.24 1.9a44.94 44.94 0 0 1 4.33 3.5l.76.65H48v-.5l-.05-.63-.06-.63-.03-.36c-.03-.27-.04-.43-.1-.58-.07-.19-.2-.35-.53-.74l-.03-.03a28.67 28.67 0 0 0-2.88-3.05 43.42 43.42 0 0 0-3.9-3.37 8.23 8.23 0 0 0-1.77-1.1c-.33-.15-.62-.22-.95-.15-.15.04-.33.1-.47.18-.7.32-1.28.75-1.86 1.18a49.07 49.07 0 0 0-5.86 5.41c-.44.47-.84.93-1.2 1.47-.07.1-.15.21-.15.36 0 .1-.02.2-.04.31-.03.23-.07.47-.07.69-.03.24-.05.5-.06.76l-.02-.16a6.91 6.91 0 0 1-.06-.82l-.04-.36c-.02-.27-.04-.43-.09-.58-.07-.19-.2-.35-.53-.74l-.03-.03a28.67 28.67 0 0 0-2.88-3.05 43.42 43.42 0 0 0-3.9-3.37 8.23 8.23 0 0 0-1.78-1.1c-.32-.15-.61-.22-.94-.15-.18.04-.33.1-.48.18-.69.32-1.27.75-1.85 1.18a49.07 49.07 0 0 0-5.86 5.41c-.44.47-.84.93-1.2 1.47-.08.1-.15.21-.15.36l-.04.31c-.03.23-.07.47-.07.69-.07.47-.07.97-.07 1.47V36h.07c.04-.04.15-.1.15-.1l1.02-.9c.33-.3.67-.61 1.02-.9A35.6 35.6 0 0 1 14.4 31c.98-.61 2-1.12 3.09-1.44.22-.07.44-.14.7-.07.46.1.94.29 1.37.47 1.13.5 1.71.82 3.24 1.9a44.94 44.94 0 0 1 4.33 3.5l.77.65Z" fill="#37B3A4"/></svg>