<!-- by TradingView --><svg width="56" height="56" viewBox="0 0 56 56" xmlns="http://www.w3.org/2000/svg"><path fill="#F0F3FA" d="M0 0h56v56H0z"/><path d="M31 13H14.56c-.86 0-1.56.7-1.56 1.56V17h18v-4Zm-18 6v4h6v-4h-6Zm0 6v12h6V25h-6Zm0 14v2.44c0 .86.7 1.56 1.56 1.56H31v-4H13Zm20 4h8.44c.86 0 1.56-.7 1.56-1.56V39H33v4Zm10-6V25H21v12h10v-1h-6V26h14v10h-6v1h10Zm0-14v-4h-6v4h6Zm0-6v-2.44c0-.86-.7-1.56-1.56-1.56H33v4h10Zm-6 17H27v-2h10v2Zm-2-15v4h-7v-4h7Zm-9 0h-5v4h5v-4Zm1 9h10v2H27v-2Z" fill="#F21A2E"/></svg>