<!-- by TradingView --><svg width="56" height="56" viewBox="0 0 56 56" xmlns="http://www.w3.org/2000/svg"><path fill="#F0F3FA" d="M0 0h56v56H0z"/><path d="M16 13h11v4h-7v3h-3v16h3v3h7v4H16v-3h-3V16h3v-3Zm1 1v3h-3v22h3v3h9v-2h-7v-3h-3V19h3v-3h7v-2h-9ZM40 13H29v4h7v3h3v16h-3v3h-7v4h11v-3h3V16h-3v-3Zm-1 1v3h3v22h-3v3h-9v-2h7v-3h3V19h-3v-3h-7v-2h9Z" fill="#E8343D"/><path d="M21 18h6v4h-2v3h-2v6h2v3h2v4h-6v-3h-2V21h2v-3Zm1 1v3h-2v12h2v3h4v-2h-2v-3h-2v-8h2v-3h2v-2h-4ZM35 18h-6v4h2v3h2v6h-2v3h-2v4h6v-3h2V21h-2v-3Zm-1 1v3h2v12h-2v3h-4v-2h2v-3h2v-8h-2v-3h-2v-2h4Z" fill="#E8343D"/></svg>