<!-- by TradingView --><svg width="56" height="56" viewBox="0 0 56 56" xmlns="http://www.w3.org/2000/svg"><path fill="#F0F3FA" d="M0 0h56v56H0z"/><path d="M34 20a3 3 0 0 1 3-3h6a3 3 0 1 1 0 6h-6a3 3 0 0 1-3-3ZM37 28a3 3 0 1 1 6 0v8a3 3 0 1 1-6 0v-8ZM26 20a3 3 0 1 1 6 0v8a3 3 0 1 1-6 0v-8ZM11 28a3 3 0 1 1 6 0v8a3 3 0 1 1-6 0v-8Z" fill="#033884"/><circle cx="13.5" cy="20.5" r="3.5" fill="#A8D0F3"/><path d="M18.32 19.55a6.76 6.76 0 0 1-1.2 4.13.62.62 0 0 0 .1.83c2.44 2.08.79 6.25 3.06 9.54C23 38 27.38 39 29.92 39c2.54 0 5.08-.99 5.08-3.47 0-1.98-2.03-2.47-3.05-2.47h-3.04c-4.06 0-4.06-5.95-5.08-8.92-.87-2.54-3.1-4.24-4.79-5.09-.35-.17-.73.12-.72.5Z" fill="#033884"/></svg>