<!-- by TradingView --><svg width="56" height="56" viewBox="0 0 56 56" xmlns="http://www.w3.org/2000/svg"><path fill="#F0F3FA" d="M0 0h56v56H0z"/><path d="M45 28a17 17 0 1 0-34 0 17 17 0 0 0 34 0Zm-19-9h-5a2 2 0 0 0-2 2v14.06c0 1.1.9 2 2 2l2.5-.01L26 37v4a13.1 13.1 0 0 1-8.12-4.3C15.8 34.28 15 31.2 15 28c0-3.2.8-6.28 2.88-8.7A13.1 13.1 0 0 1 26 15v4Zm6 4a1 1 0 0 1 1 1v8a1 1 0 0 1-1 1h-8a1 1 0 0 1-1-1v-8a1 1 0 0 1 1-1h8Zm9 5c0 3.2-.8 6.3-2.9 8.72A12.96 12.96 0 0 1 30 41v-4h5a2 2 0 0 0 2-2V21a2 2 0 0 0-1.99-2L33 19h-3v-4c3.17.47 6 1.84 8.1 4.27C40.2 21.7 41 24.8 41 28Z" fill="#B10021"/></svg>