<!-- by TradingView --><svg width="56" height="56" viewBox="0 0 56 56" xmlns="http://www.w3.org/2000/svg"><path fill="#F0F3FA" d="M0 0h56v56H0z"/><path d="M38 16.21 35.6 14 25.25 26.7c-.33.41-.81.68-1.34.74l-.4.04a7.23 7.23 0 0 0-4.89 2.74L14 36.12 16.27 38l6.31-7.58a9.24 9.24 0 0 1 4.8-3.03c.96-.25 1.83-.8 2.47-1.56L38 16.21ZM18 39.79 20.4 42l10.02-12.26a3.76 3.76 0 0 1 2.07-1.22 7.23 7.23 0 0 0 4.89-2.74l4.62-5.9L39.73 18l-6.31 7.58a9.24 9.24 0 0 1-4.8 3.03c-.96.25-1.83.8-2.47 1.56L18 39.79Z" fill="#312522"/><path d="M46 23.24 43.3 21c-3.2 4.54-6.2 7.1-7.3 7.81 4.7 1.15 8.62-3.23 10-5.57ZM10 32.76 12.7 35c3.2-4.54 6.2-7.1 7.3-7.81-4.7-1.15-8.62 3.23-10 5.57Z" fill="#C88C53"/></svg>