<!-- by TradingView --><svg width="56" height="56" viewBox="0 0 56 56" xmlns="http://www.w3.org/2000/svg"><path fill="#F0F3FA" d="M0 0h56v56H0z"/><path d="M22.35 12.48c.06-.27.17-.43.34-.45.3-.06.32 0 .07.17l-.41.28ZM33.65 12.39c-.04.06-.2-.02-.45-.23-.05-.04-.06-.09-.03-.13.03-.04.07-.04.13 0 .28.18.39.3.35.36Z" fill="#FECF62"/><path d="M22.35 12.48c-.03.03-.03.04 0 .05.28.07.48 0 .58-.23a.14.14 0 0 1 .13-.08c.1 0 .17.03.22.1.03.04.02.06-.02.08l-.1-.01a.17.17 0 0 0-.07-.02.2.2 0 0 0-.08.03c-.06.03-.11.1-.17.2a.17.17 0 0 1-.12.1 1.3 1.3 0 0 1-.56 0c-.06-.01-.07-.05-.02-.1a.57.57 0 0 1 .2-.12ZM32.88 12.38h-.12a.07.07 0 0 1 .02-.14h.2c.07 0 .1.02.13.08.05.16.3.25.73.26l.02.01.02.03a.04.04 0 0 1-.03.05c-.32.15-.58.09-.76-.2a.2.2 0 0 0-.1-.09.14.14 0 0 0-.1 0ZM21.55 12.85c.17.08.34.1.51.06h.03l.03.01a.07.07 0 0 1 .03.06v.06l-.03.03a.78.78 0 0 1-.71-.12.13.13 0 0 1-.06-.14c.04-.2.12-.35.24-.45.08-.07.2-.07.34 0a.08.08 0 0 1 .05.04.08.08 0 0 1 0 .07.53.53 0 0 1-.42.28c-.12.02-.12.05-.01.1ZM34.46 12.77c-.1-.08-.2-.07-.32.01-.07.05-.1.04-.06-.05.05-.12.05-.22 0-.29-.07-.08-.05-.12.05-.12h.17c.09 0 .15.03.2.1.08.13.14.27.17.43a.2.2 0 0 0 .11.15c.17.08.22.15.15.2h-.05l-.18-.2a.14.14 0 0 0-.09-.03c-.03 0-.06 0-.09.02a.62.62 0 0 1-.57.1c-.04-.01-.05-.04-.05-.07v-.07c0-.04.02-.06.06-.05.14.03.3.02.48-.04.07-.02.08-.05.02-.1ZM21.6 39.9l-1.02-.04c-.33-.54-.8-.69-1.39-.44-.16.07-.18.17-.07.3l.14.18-.64.03a.28.28 0 0 0-.27.27l-.03 1.06a1.07 1.07 0 0 0-.88-.3c-.55.06-.96.09-1.23.07-.34-.01-.57-.16-.68-.46l-.04-.1c-.13-.32-.03-.47.3-.47.41 0 .8.06 1.18.17.06.01.07 0 .03-.04l-.32-.4a.24.24 0 0 0-.07-.07.21.21 0 0 0-.1-.02c-.83-.05-1.27-.04-2-.54-.19-.14-.27-.37-.3-.57a.23.23 0 0 1 .08-.22.24.24 0 0 1 .23-.04l1.34.46h.01a.03.03 0 0 0 .03-.03v-.06c0-.02 0-.03-.02-.03a3.9 3.9 0 0 1-.83-.45c-.15-.13-.22-.35-.23-.66 0-.06-.03-.1-.09-.1-.4 0-.83-.1-1.27-.27-.42-.17-.63-.45-.63-.86 0-.06.03-.1.09-.12.3-.08.8.1 1.47.52 0 .01.01.01 0 0l-.43-.76a.13.13 0 0 0-.08-.06c-.3-.1-.73-.14-1.06-.31-.37-.2-.74-.56-.6-1.01.02-.06.06-.1.11-.11.24-.07.6.14 1.12.62a.02.02 0 0 0 .02 0l.01-.01V35l-.29-.74a.25.25 0 0 0-.14-.15 3.41 3.41 0 0 1-1.58-1.17.18.18 0 0 1 .07-.26.17.17 0 0 1 .1-.01c.46.05.94.57 1.3.93.01.02.02.01 0-.01-.17-.4-.19-.71-.56-.97-.31-.22-.73-.47-.82-.84-.07-.25.02-.31.27-.17.22.12.4.27.56.45.06.06.07.05.06-.03-.05-.2-.09-.4-.28-.55l-1-.82a.81.81 0 0 1-.16-.29c-.04-.1.01-.2.16-.29a.15.15 0 0 1 .16 0c.35.21.57.49.78.8.06.08.08.07.06-.03-.14-.72-.6-1.2-1.07-1.71a.3.3 0 0 1-.06-.1.26.26 0 0 1-.01-.11.2.2 0 0 1 .03-.1.17.17 0 0 1 .08-.05c.09-.04.34.16.75.6.05.05.07.04.06-.03l-.14-.65a.17.17 0 0 0-.1-.13c-.04-.02-.13-.1-.26-.23a.92.92 0 0 1-.28-.66c0-.06.03-.09.1-.06.2.08.34.22.38.44.05.2.08.2.12 0 .02-.14.03-.3.02-.5a.2.2 0 0 0-.07-.13 1.7 1.7 0 0 1-.59-.95c-.01-.08 0-.1.07-.04.3.23.48.53.57.9.02.09.04.09.06 0 .07-.27.15-.4.35-.58.05-.05.08-.04.1.03.04.17.05.29.02.35-.18.32-.49.8-.44 1.12.03.2.06.36.1.5.08.32.1.32.07-.03-.01-.17.1-.3.33-.39a.18.18 0 0 0 .1-.1c.14-.31.4-.41.78-.3.46.12.79.4.98.84.05.11.08.1.08-.02v-1.6a.12.12 0 0 0-.1-.1 2.35 2.35 0 0 1-1.51-.88.83.83 0 0 1-.2-.37c-.07-.5.38-.71.76-.43.1.07.42.4.95 1 .06.06.1.05.1-.04l.17-1.34a.33.33 0 0 0-.1-.29c-.48-.41-.78-.7-.9-.86-.22-.27-.31-.52-.28-.77a.39.39 0 0 1 .32-.34c.06 0 .12 0 .17.02.44.14.69.65.88 1.04.04.08.07.07.08-.02l.25-1.14c0-.04 0-.08-.04-.1-.7-.47-.95-1.1-.74-1.92a.29.29 0 0 1 .22-.2.28.28 0 0 1 .28.1c.14.17.22.38.27.64 0 .07.08.26.2.6.02.05.04.05.05 0l.39-1.2v-.08a.1.1 0 0 0-.03-.06c-.34-.33-1.06-1.4-.53-1.86a.32.32 0 0 1 .47.07c.21.3.31.67.3 1.07 0 .29.04.3.14.03.1-.3.24-.62.44-.98a.14.14 0 0 0-.01-.15 2.28 2.28 0 0 1-.4-1.57c.04-.24.17-.35.41-.31.06 0 .1.03.13.08.22.3.28.64.2 1.01-.07.28-.03.3.12.04l.55-.93c.03-.05.03-.1.01-.16-.21-.54-.33-.87-.07-1.39.03-.06.08-.07.13-.03.28.22.38.5.3.83-.05.24-.01.26.12.06l.34-.51a.17.17 0 0 0 .03-.14l-.1-.41c-.06-.32.02-.4.19-.62a.11.11 0 0 1 .07-.04.1.1 0 0 1 .08.02c.14.09.2.26.18.53 0 .08.02.09.08.03l.28-.28c.05-.05.05-.1.02-.16a.95.95 0 0 1-.11-.8.34.34 0 0 1 .37-.24c.07 0 .1.04.11.1.04.26.04.44 0 .54-.06.17-.02.2.11.07l.41-.37c.05-.05.06-.1.05-.14a1.1 1.1 0 0 1 .18-.99.1.1 0 0 1 .08-.04.1.1 0 0 1 .08.05c.15.26.15.48.02.67a.06.06 0 0 0 0 .08.06.06 0 0 0 .09 0l.27-.29a.15.15 0 0 0 .05-.14.92.92 0 0 1 0-.41c.03-.08.08-.13.16-.13.06 0 .1.02.1.1v.49l.04.01.56.13c.06.01.09.05.06.11l-.02.06c-.04.13-.13.18-.27.17a1.52 1.52 0 0 1-.62-.16.14.14 0 0 0-.15 0l-.46.31c-.08.05-.07.08.03.07h.64a.18.18 0 0 1 .15.08.19.19 0 0 1 .02.17l-.02.05a.37.37 0 0 1-.37.24c-.3 0-.53-.06-.7-.17-.04-.04-.09-.04-.14 0a.78.78 0 0 0-.23.25c-.02.05-.05.06-.1.02a.15.15 0 0 1-.04-.06c-.02-.06-.03-.07-.05-.02v.05a.12.12 0 0 0 .04.1.12.12 0 0 0 .1.02c.24-.07.48-.1.73-.09a.15.15 0 0 1 .14.16c0 .03-.02.05-.03.07-.27.4-.81.37-1.26.32a.2.2 0 0 0-.2.1l-.12.2c-.04.07-.02.1.06.1h.46c.06 0 .1.04.1.1.02.1.01.18-.01.22a.29.29 0 0 1-.16.15c-.23.1-.51.13-.85.1-.06-.02-.1 0-.14.05-.17.2-.33.44-.5.73-.06.12-.04.13.06.04.28-.23.6-.36.95-.4.05 0 .1.01.14.04a.2.2 0 0 1 .08.13c.04.26-.04.44-.22.53-.42.2-.81.23-1.17.06-.07-.03-.12 0-.15.06l-.16.39c-.03.06-.01.08.05.05.29-.12.9-.38 1.11-.02.04.07.04.14 0 .22a.38.38 0 0 1-.16.18c-.43.25-.85.33-1.27.24-.07-.01-.12.01-.15.08l-.24.57c-.04.09-.02.1.06.06.44-.27.86-.34 1.26-.23a.25.25 0 0 1 .17.16.25.25 0 0 1-.04.23c-.2.28-.5.43-.85.43s-.61 0-.78-.03c-.06-.02-.1 0-.12.06l-.33.92c-.03.1-.02.12.05.02.22-.3.7-.71 1.03-.33a.28.28 0 0 1 0 .36c-.35.4-.74.42-1.22.55a.16.16 0 0 0-.12.13l-.21 1c-.02.07 0 .08.04.03.35-.4 1.03-1.03 1.48-.79a.32.32 0 0 1 .17.23.32.32 0 0 1-.09.28c-.4.44-.89.47-1.62.57-.05 0-.09.04-.1.1l-.2.97c-.03.09 0 .1.06.04.28-.29.58-.5.9-.62a.32.32 0 0 1 .36.08.33.33 0 0 1 .06.36c-.21.47-.88.8-1.4.9-.06 0-.1.04-.1.1l-.12.94c0 .11.02.13.09.04.31-.39.47-.68.96-.61.07 0 .1.04.11.1.06.34 0 .6-.17.79-.24.27-.56.55-.96.85a.25.25 0 0 0-.1.2v1.36c0 .12.03.12.07.01.04-.11.1-.24.2-.4.17-.29.4-.48.71-.59a.36.36 0 0 1 .43.16c.03.04.05.1.05.15.08.67-.88 1.34-1.38 1.6a.07.07 0 0 0-.04.07l.1 1.25c0 .04.02.04.04 0 .25-.5.45-.8.6-.93.08-.07.2-.06.36.02.13.07.2.2.2.4 0 .63-.52 1.17-.94 1.62a.17.17 0 0 0-.05.17l.3 1.36c.02.12.05.12.08 0l.3-.96c.14-.36.39-.48.75-.33.28.1.47.28.58.52.03.07.05.06.07-.01l.03-.15a.16.16 0 0 1 .08-.1l.11-.07c.07-.04.1-.02.11.05.02.19-.07.38-.26.58a.06.06 0 0 0-.02.06l.02.02.02.02c.02 0 .06 0 .12-.03s.1 0 .12.06l.02.1c-.04.18-.15.45-.3.79-.01.02 0 .03.01.05.02.02.04.02.06 0 .11-.17.2-.27.26-.32.19-.14.25-.1.18.14-.08.32-.28.6-.14 1.01.07.2.11.19.14-.02l.05-.35c.01-.07.05-.1.1-.12a.2.2 0 0 1 .11.01c.06.02.1.06.1.13.01.2-.05.46-.2.76a.38.38 0 0 0 .05.4c.04.07.07.06.06-.02-.02-.3.07-.44.29-.44.06 0 .1.03.12.09.07.2.03.4-.14.61a.18.18 0 0 0-.04.16c.01.07.05.13.1.18.06.03.1.03.15-.01l.1-.1c.05-.05.1-.05.13.02.13.22.15.41.06.56-.19.3-.16.6.08.88.04.05.06.05.06-.02 0-.24.05-.43.15-.59.04-.05.08-.05.1.01.1.21.13.42.1.62-.02.07 0 .1.07.07l.19-.06c.05-.02.1-.02.15 0 .05.01.1.04.14.09.04.04.08.1.1.16.03.07.04.14.04.2.01.22-.03.45-.12.7-.02.05-.01.1.03.14l.33.33c.05.05.07.04.06-.02-.01-.22 0-.36.03-.41.2-.34.34-.32.41.08.07.35-.09.86.25 1.1.05.04.07.03.06-.03a2.52 2.52 0 0 1-.03-.3c.04-.42.19-.46.43-.12.09.12.15.33.18.62Zm-8.77-10.53.02.17c.01.14 0 .27-.05.4l-.37.88c-.03.07-.02.17.02.31.03.08.05.08.07 0 .08-.29.2-.68.55-.66.39.03.88.34 1.46.94.02.02.03.02.03 0l-.2-1.6a.07.07 0 0 0-.05-.07 4.72 4.72 0 0 1-1.7-1.11c-.04-.05-.07-.04-.1.02l-.37.96a.22.22 0 0 0 0 .15l.09.38c.02.15.04.15.06 0 .02-.23.11-.5.28-.82a.14.14 0 0 1 .15-.07.14.14 0 0 1 .1.12Zm.09 3.14c.04-.31.04-.44.21-.75a.05.05 0 0 0 0-.06l-.03-.07c-.03-.03-.04-.03-.06 0-.13.33-.21.57-.24.74a.2.2 0 0 0 .03.16c.05.06.07.06.09-.02Zm.56.34c.47.02.94.22 1.4.58.09.06.12.04.1-.06l-.17-.8a.12.12 0 0 0-.12-.1c-.33-.02-.64-.11-.93-.27-.04-.02-.07-.01-.09.03l-.23.55v.05a.05.05 0 0 0 .04.02Zm3.62-.04a.9.9 0 0 0-.18-.4.1.1 0 0 0-.1-.04.1.1 0 0 0-.09.07c-.07.23.04.42.33.57.07.03.1 0 .1-.06.02-.06-.01-.1-.06-.14Zm-.43.67c.1-.05.24.02.44.2.06.04.08.03.07-.04a.69.69 0 0 0-.52-.6c-.06-.02-.1 0-.12.06-.12.34-.38.65-.76.91a.13.13 0 0 0-.04.15c.17.52.37 1 .58 1.45.07.16.1.16.05-.02-.09-.39-.23-.93.03-1.25.12-.15.26-.2.44-.17.19.04.35.15.47.34.04.06.06.06.06-.02-.03-.29-.08-.42-.39-.55a.69.69 0 0 1-.35-.32c-.04-.07-.02-.11.04-.14Zm-3.08.84c.03-.01 0-.21-.08-.6-.03-.1-.07-.14-.12-.13-.06.02-.07.08-.04.18.12.37.2.56.24.55Zm.64.15a.22.22 0 0 1 .27-.14c.04 0 .07.03.1.06.08.1.13.21.14.36 0 .05.03.1.08.12l.83.49c.03.02.05.01.03-.03l-.46-1.17a.08.08 0 0 0-.07-.05l-.85-.1c-.07-.01-.11.02-.12.08-.03.23-.13.46-.3.69a.07.07 0 0 0-.02.05v.12c0 .04.01.04.04.02.16-.13.27-.3.33-.5Zm3.46 1c.02-.02-.02-.16-.13-.42a.4.4 0 0 0-.12-.17c-.09-.07-.16-.08-.2-.05-.05.04-.06.1-.02.22a.4.4 0 0 0 .11.16c.21.19.33.28.36.26Zm-.28.79c-.03-.07-.01-.1.06-.1.14 0 .23-.05.3-.14.03-.06.02-.1-.04-.14l-.44-.25c-.07-.03-.1-.02-.11.06-.05.35-.14.65-.3.9a.13.13 0 0 0 0 .13l.5.87c.06.1.09.08.1-.02l.02-1.04-.01-.1-.08-.17Zm-2.5.38v-.71c0-.07-.03-.1-.1-.1h-.14a.13.13 0 0 0-.12.06.14.14 0 0 0 0 .14l.35.61c.01.02.02.02.02 0Zm1.52-.77v-.02c0 .04 0 .07.02.09.03.03.03.02.02-.02l-.02-.02-.02-.03Zm-.29 1.2a.12.12 0 0 1 .12-.07c.08 0 .18.05.3.14.05.04.06.03.03-.02a9.58 9.58 0 0 1-.4-.7c-.12-.26-.26-.29-.48-.38-.07-.03-.1-.01-.08.07.06.28.05.6-.05.95-.02.05 0 .1.05.12.24.13.41.1.51-.1Zm2.32.16.04.04h.03a.02.02 0 0 0 0-.04 1.15 1.15 0 0 0-.1-.09c-.06-.04-.04-.02.03.09Zm-.19.7.59.02h.01l.01-.02a.33.33 0 0 0-.07-.22.27.27 0 0 0-.08-.07.25.25 0 0 0-.1-.03h-.1a.26.26 0 0 0-.19.08.32.32 0 0 0-.09.2v.01a.02.02 0 0 0 .02.02Zm-.03.33c-.07-.06-.1-.04-.08.05a1.73 1.73 0 0 0 .48.9.03.03 0 0 0 .04-.03v-.03c-.1-.15-.1-.3-.01-.42.08-.11.12-.19.13-.22a.1.1 0 0 0 .01-.04l-.01-.03a.06.06 0 0 0-.03-.03h-.03a.6.6 0 0 1-.5-.15Zm-.88.1-.32.04a.1.1 0 0 0-.08.1l.03.3c0 .07.03.14.08.18.05.05.11.07.17.06h.05c.06 0 .11-.04.15-.1a.28.28 0 0 0 .05-.18l-.03-.3a.1.1 0 0 0-.06-.09.1.1 0 0 0-.04 0Z" fill="#FECF62"/><path d="m37.63 41.31-.02-1.1a.32.32 0 0 0-.44-.3.54.54 0 0 1-.43-.02l.15-.17a.2.2 0 0 0-.08-.3 1.7 1.7 0 0 0-.82-.09.27.27 0 0 0-.15.08l-.5.49c-.14.03-.3.05-.43.05-.02 0-.03-.03-.04-.08.06-.01.1-.06.12-.13.54-.2 0-1.13.5-1.44.06-.03.1-.02.12.04a1.33 1.33 0 0 1 .13.65V39a.03.03 0 0 0 .04 0l.35-.36c.05-.05.06-.1.04-.17-.21-.46-.18-.83.09-1.1.04-.05.1-.06.15-.03l.23.1c.06.02.09 0 .08-.07-.03-.2 0-.4.09-.62a.08.08 0 0 1 .07-.05l.04.01c.02 0 .03.02.03.03.1.16.13.32.11.5a.07.07 0 0 0 .06.07.07.07 0 0 0 .08-.04l.16-.37a.14.14 0 0 0-.02-.14c-.13-.2-.18-.45-.14-.75a.17.17 0 0 1 .08-.12c.13-.07.2-.04.21.11.01.06.04.07.08.03l.15-.15c.04-.04.05-.09.02-.15l-.17-.37c-.07-.13-.05-.25.05-.37a.2.2 0 0 1 .08-.04c.08-.04.15-.01.2.07.06.1.1.23.1.37.01.09.03.09.06.01l.07-.16a.19.19 0 0 0 0-.17c-.13-.24-.2-.5-.24-.8a.14.14 0 0 1 .07-.13l.06-.03c.06-.04.1-.02.13.04l.2.52c.02.04.04.04.05 0 .1-.32.06-.64-.13-.95-.04-.08-.04-.18 0-.3.04-.07.08-.08.13-.02a.9.9 0 0 1 .17.27l.01.02.02.01h.02l.02-.02.05-.09.02-.04c-.14-.3-.23-.52-.25-.65 0-.06 0-.1.05-.14.05-.04.1-.02.12.05l.05.03c.02.02.05.01.07-.01a.1.1 0 0 0 .02-.05.14.14 0 0 0-.04-.12.92.92 0 0 1-.26-.55c0-.07.03-.1.09-.08.18.05.27.14.28.26 0 .08.03.1.08.02.22-.32.5-.49.86-.5.06-.01.11 0 .16.04.35.3.43.82.58 1.33.03.1.05.1.07 0l.3-1.4v-.08a.17.17 0 0 0-.05-.07c-.42-.42-1.03-1.13-.92-1.75a.38.38 0 0 1 .21-.28.37.37 0 0 1 .34.02c.27.16.46.58.55.88.03.08.05.08.06-.01l.14-1.16a.15.15 0 0 0-.07-.16c-.68-.4-1.1-.76-1.27-1.08a1.8 1.8 0 0 1-.08-.3c-.03-.13-.03-.23 0-.3.11-.2.3-.26.56-.16.35.14.62.45.82.93.04.09.06.09.07 0 .06-.44.05-.91-.03-1.43a.16.16 0 0 0-.06-.1c-.26-.2-.5-.42-.75-.63a1.2 1.2 0 0 1-.44-.8.3.3 0 0 1 .18-.31.3.3 0 0 1 .12-.03c.22 0 .4.1.52.27 0 .02.12.15.32.4.05.06.07.06.06-.02l-.1-1.02c0-.06-.04-.09-.1-.1a2.42 2.42 0 0 1-1.07-.47c-.18-.13-.3-.3-.39-.49a.16.16 0 0 1 .02-.16c.35-.56.98.08 1.36.42.05.04.07.03.06-.04l-.21-1c-.01-.05-.05-.08-.1-.09-.54-.04-1.59-.2-1.7-.72a.3.3 0 0 1 .04-.25.32.32 0 0 1 .23-.13c.49-.06 1.1.43 1.36.83.05.08.07.07.05-.02l-.21-1.01a.16.16 0 0 0-.13-.14c-.46-.1-1.2-.25-1.27-.73 0-.06 0-.11.04-.16.38-.44.8.03 1.08.33.05.05.07.04.04-.03l-.38-.95c-.02-.06-.06-.08-.12-.07-.4.1-.8.1-1.18-.03a.74.74 0 0 1-.47-.44.21.21 0 0 1 .06-.24.2.2 0 0 1 .07-.04c.42-.13.87-.05 1.35.24.04.03.05.02.03-.03l-.24-.62c-.03-.07-.08-.1-.16-.08-.47.1-.92 0-1.34-.29a.28.28 0 0 1-.05-.41c.25-.27.8-.03 1.11.1.08.04.1.03.05-.05l-.3-.52c-.03-.05-.05-.05-.06 0a.2.2 0 0 1-.04.08.1.1 0 0 1-.05.03c-.3.1-.67.06-1.08-.13-.13-.06-.2-.17-.23-.35v-.08c.02-.22.13-.3.34-.25.4.1.7.26.93.46.1.09.1.08.03-.03l-.53-.8a.14.14 0 0 0-.14-.07c-.32.04-.6.02-.82-.05a.33.33 0 0 1-.22-.25l-.02-.1c-.03-.13.02-.2.16-.18l.44.06c.1 0 .12-.03.07-.11-.14-.26-.3-.37-.5-.34-.42.08-.73.04-.92-.11-.34-.26-.3-.4.13-.44.08 0 .25.03.51.1.06.01.07 0 .04-.06a.92.92 0 0 0-.32-.31.15.15 0 0 0-.15 0c-.28.19-.6.22-.94.11-.07-.02-.1-.07-.1-.14v-.23c0-.07.03-.1.1-.1h.73c.08 0 .08-.02.02-.06l-.54-.3a.13.13 0 0 0-.13-.01 1.2 1.2 0 0 1-.65.15c-.15-.02-.23-.09-.24-.21 0-.07.02-.11.08-.14.21-.07.4-.1.56-.1l.05-.01.03-.03a.08.08 0 0 0 0-.09c-.08-.12-.11-.2-.1-.25.1-.35.2-.35.31-.01v.33c0 .06.01.1.05.14l.3.31c.02.02.04.02.05 0 .03-.01.05-.03.05-.04v-.03l-.01-.02c-.18-.2-.19-.44-.02-.7.03-.05.07-.06.12-.01.25.22.33.54.22.94-.02.06 0 .1.03.14l.4.4c.17.17.22.14.14-.1-.08-.25-.07-.42.03-.53a.21.21 0 0 1 .11-.06h.13a.3.3 0 0 1 .11.08c.04.04.06.08.08.12.1.3.08.6-.09.86-.04.05-.03.1.02.15l.24.25c.05.05.08.04.09-.03.02-.24.09-.41.2-.5.04-.05.09-.05.14 0 .32.31.23.63.1 1a.18.18 0 0 0 .03.17l.4.6c.07.1.1.1.08-.03-.09-.44 0-.75.26-.93.05-.03.1-.02.13.03.2.26.24.58.11.97a4.9 4.9 0 0 1-.17.48c0 .03.01.05.03.08l.64 1.12c.04.06.05.06.05-.01 0-.16-.02-.32-.05-.48-.04-.14.02-.35.16-.62.07-.14.16-.21.26-.21.17 0 .28.08.33.25.11.48-.01 1.02-.37 1.62a.14.14 0 0 0 0 .14l.49 1.15c.06.15.09.15.07-.03-.04-.4.04-.79.26-1.16a.36.36 0 0 1 .36-.18c.04 0 .09.02.13.05.2.12.26.36.16.7-.13.47-.35.86-.67 1.18-.04.04-.05.08-.03.13l.4 1.2c.01.06.03.06.06 0l.3-.95a.74.74 0 0 1 .14-.3.3.3 0 0 1 .44 0c.04.05.07.1.08.15.17.83-.08 1.45-.74 1.87a.11.11 0 0 0-.05.13l.23 1.09c.03.15.08.15.14.01.18-.43.38-.73.6-.9.17-.11.31-.15.44-.12.23.08.38.3.3.56-.2.62-.73 1-1.15 1.37a.35.35 0 0 0-.13.31l.13 1.35c.01.13.06.14.14.05.44-.54.79-.89 1.03-1.04.27-.18.68-.05.66.34-.04.76-1.04 1.26-1.7 1.37-.06 0-.09.04-.09.1v1.55c0 .14.03.14.1.02.22-.44.58-.7 1.07-.8.3-.07.52.03.64.3.03.05.06.08.11.1.19.1.29.19.31.26.07.24.11.46.14.66.02.14.07.15.14.03a.88.88 0 0 1 .66-.45c.07-.01.1.02.09.09-.04.2-.11.34-.22.43-.46.4-.76.88-.9 1.44-.07.26-.04.27.08.03.13-.25.37-.49.7-.71.14-.09.25-.05.34.12l.01.12a.42.42 0 0 1-.15.31l-.96.8a.8.8 0 0 0-.3.56c-.02.08 0 .1.06.03.1-.13.27-.27.5-.41.27-.17.38-.1.33.19a.9.9 0 0 1-.19.25c-.15.18-.43.4-.83.68-.13.09-.23.32-.31.7-.01.07 0 .08.05.03.27-.25.77-.83 1.26-.8a.14.14 0 0 1 .12.08.15.15 0 0 1 0 .14c-.16.24-.28.4-.37.47-.4.32-.8.56-1.2.7a.28.28 0 0 0-.16.16l-.33.78a.03.03 0 0 0 .04.02c.5-.45.84-.66 1.05-.63.15.01.22.1.21.25-.04.83-.9 1.05-1.61 1.15a.2.2 0 0 0-.15.1l-.37.65c-.06.1-.04.11.05.05.51-.34.95-.5 1.3-.46a.18.18 0 0 1 .13.07.18.18 0 0 1 .03.14c-.09.42-.36.7-.8.83-.4.13-.78.2-1.12.22-.07 0-.1.03-.1.1.03.43-.2.73-.67.9a.9.9 0 0 0-.37.25c-.05.05-.04.07.03.05.46-.14.85-.27 1.15-.38a.67.67 0 0 1 .34-.06c.12.02.18.1.17.21a.82.82 0 0 1-.31.6c-.65.5-1.22.52-2.01.55a.2.2 0 0 0-.16.08l-.33.4c-.04.06-.03.07.03.06.37-.12.76-.17 1.19-.16.33 0 .42.16.3.46l-.04.08a.74.74 0 0 1-.7.5c-.16 0-.59-.03-1.28-.09-.33-.03-.62.09-.89.35Zm5.56-11.93a.14.14 0 0 1 .11-.12.14.14 0 0 1 .15.07c.17.3.26.58.29.81.01.16.03.16.05 0 .02-.12.05-.24.1-.38a.22.22 0 0 0 0-.15l-.38-.96c-.03-.06-.06-.07-.1-.02-.57.55-1.14.92-1.7 1.12a.07.07 0 0 0-.05.06l-.2 1.6c0 .03.01.04.03.02.59-.6 1.07-.92 1.46-.95.35-.02.47.37.55.66.02.08.05.08.07 0 .05-.14.06-.25.03-.31l-.38-.88a.84.84 0 0 1-.05-.4l.02-.17Zm-.09 3.14c.01.08.04.08.08.02a.2.2 0 0 0 .04-.15c-.02-.17-.1-.41-.22-.73-.01-.04-.03-.04-.05 0l-.04.06a.05.05 0 0 0 0 .05c.16.32.16.45.2.75Zm-.56.33a.05.05 0 0 0 .05-.05v-.02l-.24-.55c-.02-.04-.05-.06-.1-.03-.28.16-.59.24-.92.26a.12.12 0 0 0-.12.1l-.17.8c-.02.1.01.12.1.06.46-.36.93-.55 1.4-.57Zm-3.58-.07c-.06.04-.08.08-.07.13.01.07.05.09.1.06.29-.17.38-.35.3-.57a.1.1 0 0 0-.18-.02.87.87 0 0 0-.15.4Zm.38.69c.07.02.08.07.05.13a.68.68 0 0 1-.35.33c-.3.13-.35.27-.37.55 0 .07.01.08.05.01.12-.18.28-.3.47-.34.17-.03.32.02.44.17.25.31.12.85.04 1.24-.04.17-.02.18.05.01.2-.44.39-.93.56-1.44v-.08a.12.12 0 0 0-.05-.07 1.86 1.86 0 0 1-.76-.9c-.02-.05-.06-.07-.12-.05-.3.1-.47.3-.5.6-.02.07 0 .09.06.04.2-.18.34-.25.43-.2Zm3.11.38a.6.6 0 0 0 0 .33c.01.07.04.07.08 0l.1-.28.07-.28c0-.08-.01-.1-.07-.05a.59.59 0 0 0-.18.28Zm.66-.24-.01-.01c-.03 0-.05.02-.05.05 0 .06 0 .06.03 0l.03-.04Zm-1.32.86c.05.2.16.37.33.5.03.03.04.02.04-.02v-.12l-.01-.05a1.44 1.44 0 0 1-.32-.69c0-.07-.04-.1-.11-.09l-.86.1a.08.08 0 0 0-.07.06l-.46 1.18c-.01.04 0 .05.03.02l.84-.48a.15.15 0 0 0 .08-.13c0-.15.05-.27.14-.36a.22.22 0 0 1 .2-.07.21.21 0 0 1 .17.15Zm-3.34.9c.26-.09.38-.2.35-.34-.08-.3-.18-.31-.3-.01l-.16.37c-.03.06-.01.08.05.04a.15.15 0 0 0 .06-.05Zm.16.89-.08.17a.22.22 0 0 0-.01.1l.03 1.04c0 .1.04.11.09.02l.5-.87a.13.13 0 0 0 0-.14 2.24 2.24 0 0 1-.3-.9c-.01-.06-.05-.08-.11-.04l-.44.25c-.06.03-.07.08-.03.14.05.08.15.13.29.13.07 0 .1.04.06.1Zm2.5.34c.04 0 .14-.16.32-.5.08-.15.05-.25-.1-.3-.15-.03-.22.03-.23.2-.02.4-.02.6.01.6Zm-1.6-.65v.01h.01l.04-.04a.05.05 0 0 0 .02-.04c0-.03-.02 0-.07.07Zm-.05 1.16a.3.3 0 0 0-.12.12c-.07.13-.06.13.03.02l.1-.14c.24-.15.4-.13.5.08.02.06.07.09.14.07l.21-.04c.05-.01.07-.04.07-.08V36.1c0-.05-.03-.07-.08-.06-.23.07-.37.16-.44.28-.14.25-.28.51-.4.78Zm-2 .15v.01a.03.03 0 0 0 .02.03c.02.01.04 0 .07-.02v-.04c0-.05-.04-.05-.08.02Zm-.32.7.61-.06a.02.02 0 0 0 .02-.02.3.3 0 0 0-.11-.2.31.31 0 0 0-.23-.07h-.04a.31.31 0 0 0-.2.11.3.3 0 0 0-.07.22v.01a.02.02 0 0 0 .02.02Zm.28.45a.25.25 0 0 0-.11 0c-.07 0-.08.04-.06.1l.14.36c.02.07.02.12 0 .18l-.04.1c-.04.1-.03.1.04.04.26-.26.41-.55.46-.89 0-.05-.01-.07-.06-.04l-.2.12a.23.23 0 0 1-.17.03Zm1.61.1a.15.15 0 0 0-.08-.13.15.15 0 0 0-.06-.01l-.2-.01a.15.15 0 0 0-.15.14v.37a.15.15 0 0 0 .08.14l.05.01h.2c.04.01.08 0 .1-.03a.15.15 0 0 0 .05-.1l.01-.37ZM21.1 13.07a.08.08 0 0 1 .08-.03l.02.01a.06.06 0 0 1 .02.08c-.04.04-.07.06-.1.03-.04-.03-.04-.06-.02-.1Z" fill="#FECF62"/><path d="M25.61 15c.01-.03 0-.05-.04-.05h-1.29c-.03 0-.04.01-.04.04v8.32c0 .17-.09.27-.27.3h-.01c-.19.05-.28-.04-.28-.26v-9.14c0-.08.03-.1.09-.05l.44.38c.04.04.1.06.15.06h1.26a.1.1 0 0 0 .1-.07l.1-.25c.04-.07.09-.08.15-.04l.46.37c.14.12.14.22-.02.31l-.21.12a.27.27 0 0 0-.12.14l-1 2.36a.11.11 0 0 0 .03.12c.77.79 1.32 1.84.94 2.9-.16.46-.48.68-.94.68-.06 0-.1-.02-.12-.08a.95.95 0 0 0-.46-.52c-.27-.12-.25-.2.04-.24.1-.02.26.01.48.09.1.03.2.03.29-.02a.39.39 0 0 0 .2-.21c.3-.83-.21-1.87-.75-2.55a.17.17 0 0 1-.02-.19c.38-.84.66-1.68.84-2.52Z" fill="#FBAC17"/><path d="M29.45 20.4v2.97c0 .1-.05.18-.16.22l-.22.1c-.12.04-.18 0-.18-.14v-2.84c0-.1-.03-.11-.1-.04-.14.2-.31.48-.49.66a7.12 7.12 0 0 1-3.1 1.84.08.08 0 0 1-.04-.05v-.06c-.02-.04 0-.07.04-.09a6.82 6.82 0 0 0 3.25-2.66c.07-.1.04-.16-.09-.16h-.94c-.06 0-.09.03-.09.09v.23c0 .12-.05.18-.17.18h-.23c-.07 0-.11-.04-.11-.11v-4c0-.1.04-.11.12-.06l.3.2c.03.03.08.05.13.05h1.43c.06 0 .08-.03.08-.1v-.73c0-.06-.02-.09-.08-.09h-2.12c-.08 0-.14-.04-.15-.12l-.03-.1c0-.05.01-.08.06-.08h2.24c.06 0 .09-.03.09-.09v-1.16c0-.06.02-.09.08-.09.3 0 .54.07.72.22a.1.1 0 0 1 0 .14c-.23.17-.3.46-.24.89.01.06.05.1.11.1H31c.07 0 .12-.03.17-.08l.43-.44c.06-.06.12-.06.2 0l.58.46a.14.14 0 0 1 .05.15c0 .02-.02.04-.03.05a.42.42 0 0 1-.37.16 94.86 94.86 0 0 0-2.56 0v.02l-.01.02v.82c0 .03.01.04.04.04h1.54c.05 0 .09-.01.12-.04l.2-.2a.11.11 0 0 1 .15 0l.35.36a.08.08 0 0 1 .03.06.08.08 0 0 1-.03.06l-.17.17a.15.15 0 0 0-.04.1v3.25c0 .05-.02.1-.05.14a.22.22 0 0 1-.13.08l-.16.03c-.12.03-.18-.02-.18-.14v-.35c0-.06-.03-.09-.08-.09h-1.21c-.08 0-.1.03-.06.1a4.72 4.72 0 0 0 2.97 2.32l-.01.02-.58.42c-.03.02-.06.02-.1 0a6.62 6.62 0 0 1-2.56-2.61c-.03-.06-.04-.06-.04 0Zm-.57-3.26c0-.02 0-.04-.02-.05a.07.07 0 0 0-.05-.02h-1.4c-.02 0-.04 0-.05.02a.07.07 0 0 0-.02.05v1.03a.07.07 0 0 0 .07.07h1.4a.07.07 0 0 0 .07-.07v-1.03Zm2.24 0a.07.07 0 0 0-.02-.05.06.06 0 0 0-.04-.02H29.5c-.02 0-.03 0-.04.02a.06.06 0 0 0-.02.04v1.07a.06.06 0 0 0 .06.04h1.55c.01 0 .03 0 .04-.02a.06.06 0 0 0 .02-.04v-1.05Zm-2.23 1.52a.07.07 0 0 0-.07-.07H27.4a.07.07 0 0 0-.04.02.07.07 0 0 0-.02.04v1.08a.07.07 0 0 0 .01.05.07.07 0 0 0 .05.02h1.42a.07.07 0 0 0 .06-.06v-1.08Zm2.23-.01a.06.06 0 0 0-.02-.04.06.06 0 0 0-.04-.02h-1.55a.06.06 0 0 0-.06.06v1.09a.06.06 0 0 0 .03.06h1.58a.06.06 0 0 0 .06-.06v-1.09Z" fill="#FBAC17"/><path d="m44.4 24.9.13-.23.05-.02.03.03v.03c-.03.19-.08.35-.15.48-.1.24-.18.23-.21-.03a3.56 3.56 0 0 0-.31-.98v-.02c0-.01 0-.02.02-.03l.02-.01.05-.02c.03-.01.05 0 .06.03l.23.76c.02.06.05.07.08 0ZM11.87 25.32a.59.59 0 0 1 .14-.17c.19-.18.25-.14.17.1-.04.11-.17.25-.4.43-.07.05-.1.03-.08-.06l.02-.11c.01-.06 0-.1-.03-.14a1.37 1.37 0 0 1-.3-.64c-.01-.07.01-.08.08-.04l.18.24c.02.04.05.04.09 0 .02-.01.03-.03.03-.06-.02-.24 0-.42.07-.54.2-.34.25-.31.17.07a2.7 2.7 0 0 1-.25.61c-.02.05-.02.15.02.28.03.11.06.12.1.03Z" fill="#FECF62"/><path d="M25.27 28.3c-.06-.04-.09-.03-.09.04v5.63c0 .1-.03.16-.11.2l-.23.14a.1.1 0 0 1-.11 0 .1.1 0 0 1-.06-.1v-4.9l-.04-.62c-.03-.25-.06-.25-.08 0a5.84 5.84 0 0 1-1.18 3.03.1.1 0 0 1-.06.04h-.06a.11.11 0 0 1-.09-.1l.01-.06a14.39 14.39 0 0 0 1.23-4.07.08.08 0 0 0-.04-.05H23.42c-.07 0-.1-.04-.1-.1v-.18c0-.05.02-.07.07-.07h1.2c.05 0 .08-.03.08-.09v-2.08a.1.1 0 0 1 .1-.1c.24.02.46.07.65.16.06.03.07.08.02.15l-.2.3a.26.26 0 0 0-.05.16v1.4a.14.14 0 0 0 .08.12.14.14 0 0 0 .15-.03l.46-.46c.06-.06.12-.06.17 0l.43.42a.23.23 0 0 1-.16.4h-1.05c-.06 0-.09.02-.09.08v.26l.03.09c.02.02.04.05.07.06.36.18.85.51.98.95a.2.2 0 0 1-.08.24.23.23 0 0 1-.06.04.25.25 0 0 1-.3-.13c-.18-.35-.37-.6-.55-.76Z" fill="#FBAC17"/><path d="M27.71 28.48a4.7 4.7 0 0 1-1.76 1.36.13.13 0 0 1-.1.01l-.1-.02a.06.06 0 0 1-.04-.1l.03-.02a5.53 5.53 0 0 0 2.15-2.46c.02-.05 0-.07-.05-.07l-1.1-.01a.13.13 0 0 1-.09-.04.2.2 0 0 1-.05-.1l-.01-.05c-.02-.1.03-.16.14-.16h1.34l.02-.04.24-.75a.04.04 0 0 0 0-.04.04.04 0 0 0-.04-.01l-1.41.08a.16.16 0 0 1-.14-.05l-.06-.07a.1.1 0 0 1-.02-.1.1.1 0 0 1 .08-.06 21.8 21.8 0 0 0 2.31-.31c.66-.13 1.2-.3 1.62-.5a.47.47 0 0 1 .5.03l.27.17c.16.12.15.2-.05.24l-2.44.52a.09.09 0 0 0-.07.06l-.23.77c-.01.05 0 .07.05.07h2.15c.08 0 .14-.03.2-.08l.39-.4c.06-.06.12-.06.18-.01l.6.48c.07.05.07.1.03.16a.49.49 0 0 1-.46.2l-.22-.01-1.25.01c-.05 0-.06.03-.04.08a3.9 3.9 0 0 0 2.22 1.79.04.04 0 0 1 0 .04v.01l-.54.39c-.02.02-.05.02-.07 0a6.63 6.63 0 0 1-1.2-1.04c-.06-.06-.08-.04-.08.04v1.26a.18.18 0 0 1-.15.17l-.18.04c-.1.02-.14-.02-.14-.12v-.24c0-.06-.03-.09-.1-.09h-1.67c-.06 0-.08.03-.08.1v.13c0 .07-.04.12-.12.14a.6.6 0 0 1-.26 0c-.07 0-.1-.04-.1-.11v-1.25c0-.1-.03-.11-.1-.04Zm.53-.53h1.92l.03-.01.01-.03v-.04a.8.8 0 0 0-.17-.5.52.52 0 0 0-.4-.2h-.86a.48.48 0 0 0-.22.05.58.58 0 0 0-.19.15.74.74 0 0 0-.12.24.86.86 0 0 0-.05.27v.03a.05.05 0 0 0 .05.04Zm1.9.42a.06.06 0 0 0-.03-.05.06.06 0 0 0-.04-.02h-1.72a.06.06 0 0 0-.07.06v.77a.06.06 0 0 0 .07.04h1.72a.06.06 0 0 0 .06-.07v-.73Z" fill="#FBAC17"/><path d="M43.77 25.12v-.02l.01-.01a.1.1 0 0 1 .08-.02c.03 0 .06.02.1.05.04.02.07.05.11.1.04.03.07.07.1.12l.03.04a.98.98 0 0 1 .13.28.3.3 0 0 1 0 .11.1.1 0 0 1-.04.07h-.02a.02.02 0 0 1-.01 0l-.49-.72Z" fill="#FECF62"/><path d="M44.29 26.1c.07-.22.2-.42.42-.61.03-.03.07-.03.1 0l.03.03v.03c-.24.34-.42.71-.53 1.12-.02.06-.04.07-.08.02-.2-.3-.35-.6-.44-.86-.04-.13 0-.16.1-.07.1.07.2.19.3.35.05.06.08.05.1-.02ZM11.82 26.11c.1-.16.2-.27.3-.34.1-.09.14-.06.1.07-.09.26-.23.54-.44.84-.03.05-.06.05-.07-.01-.1-.4-.28-.77-.53-1.1v-.04l.04-.03c.03-.03.06-.03.1 0 .2.19.34.39.4.6.03.06.06.07.1.01Z" fill="#FECF62"/><path d="M44.15 27.24a.06.06 0 0 0 .12.02c.17-.36.28-.68.54-.8.06-.03.08-.02.07.05-.06.33-.24.62-.54.89a.24.24 0 0 0-.09.14 1 1 0 0 0 .03.5c.02.08.05.08.08 0 .1-.23.23-.36.4-.4.06-.02.1.01.09.08-.04.3-.14.51-.3.64-.24.18-.38.4-.4.63V29l-.01.02h-.02c-.03 0-.05-.02-.05-.03l.12-.81c0-.06 0-.1-.02-.14l-.4-.85c-.2-.4-.11-.5.25-.29.05.03.1.14.13.34ZM38.68 29.99c.08.2.19.34.23.32.05-.02.02-.2-.06-.4s-.19-.34-.23-.32c-.05.02-.02.2.06.4ZM17.17 29.94c-.07.21-.08.4-.03.4.04.02.14-.13.2-.34.08-.2.1-.39.04-.4-.05-.02-.14.14-.21.34Z" fill="#FECF62"/><path d="M31.3 30.51h-4.18c-.05 0-.08.03-.08.09v3.34c0 .12-.06.2-.18.22l-.15.03c-.13.03-.2-.02-.2-.15v-4.05c0-.07.04-.09.1-.06l.35.2c.03.03.06.03.1.03h4.22c.05 0 .1-.02.14-.05l.16-.17c.05-.05.1-.05.15 0l.36.36c.05.05.06.1.02.17l-.17.26a.32.32 0 0 0-.05.17v2.82c0 .06-.02.12-.06.17a.89.89 0 0 1-.57.3.12.12 0 0 1-.13-.08c-.14-.38-.38-.37-.69-.55-.05-.04-.07-.08-.06-.14 0-.02.02-.03.03-.05a.1.1 0 0 1 .1-.03l.73.16a.12.12 0 0 0 .13-.07l.01-.05V30.6c0-.06-.03-.09-.08-.09Z" fill="#FBAC17"/><path d="M16.9 31.46c.06.05.1.03.1-.05v-.1a.08.08 0 0 0-.03-.05c-.12-.1-.2-.2-.25-.28-.13-.23-.08-.28.15-.15.01.01.08.1.19.28.07.12.13.12.18.01l.01-.05a.08.08 0 0 0-.02-.04 2.06 2.06 0 0 1-.45-.73c-.03-.07 0-.1.07-.08.1.02.19.13.28.32.03.06.06.06.11.01a.1.1 0 0 0 .03-.05c0-.06.03-.07.08-.04.04.02.06.06.05.12a.1.1 0 0 1-.01.05c-.07.1-.11.19-.13.28-.02.09.01.12.1.09l.05-.02c.06-.03.08 0 .06.06a.64.64 0 0 1-.27.4c-.13.08-.17.19-.1.33.04.12.09.12.13 0 .04-.14.1-.24.16-.31a.1.1 0 0 1 .13-.03l.04.03a.06.06 0 0 1 .01.07c-.1.22-.25.4-.43.52-.05.04-.09.03-.11-.03a.9.9 0 0 0-.38-.44.13.13 0 0 1-.06-.11v-.12c0-.07.03-.08.08-.04l.22.15ZM38.8 31.03c0-.11-.04-.23-.14-.35-.06-.07-.06-.13-.01-.2.03-.04.07-.04.12.01l.03.04c.04.04.07.04.08-.01a.45.45 0 0 1 .34-.3.05.05 0 0 1 .06.02v.07l-.3.44a.18.18 0 0 0-.03.1c0 .15-.06.22-.15.18Z" fill="#FECF62"/><path d="M38.8 31.03c0 .08.02.14.05.18.04.05.08.04.1-.03.04-.2.11-.32.21-.35.26-.07.3-.01.1.18-.14.16-.24.32-.31.48-.03.08-.07.08-.1.02l-.29-.39c-.05-.07-.04-.11.05-.12.05-.01.11 0 .19.03Z" fill="#FECF62"/><path d="M29.82 32.8h-1.26c-.07 0-.1.05-.1.12v.26c0 .06-.04.1-.1.11l-.21.05c-.08.02-.13-.02-.13-.1v-2.21c0-.1.04-.11.1-.06l.2.14c.04.03.1.05.15.05h1.33c.07 0 .11-.03.14-.09l.05-.1c.03-.05.07-.06.14-.04a.7.7 0 0 1 .22.13c.02.02.04.06.03.13l-.04 1.82c0 .05-.02.1-.04.15a.35.35 0 0 1-.09.12.3.3 0 0 1-.13.06c-.05.01-.1.01-.14 0-.09-.03-.1-.18-.05-.44.01-.06 0-.1-.07-.1Zm.05-1.23a.06.06 0 0 0-.01-.04.06.06 0 0 0-.05-.02h-1.3a.06.06 0 0 0-.04.01.06.06 0 0 0-.02.05v.83a.06.06 0 0 0 .02.04.06.06 0 0 0 .04.02h1.3a.06.06 0 0 0 .04-.01.06.06 0 0 0 .02-.05v-.83Z" fill="#FBAC17"/><path d="M38.93 31.77a.83.83 0 0 1 .42-.47c.03-.01.05 0 .07.03l.02.05a.14.14 0 0 1-.05.16c-.2.16-.34.32-.44.5-.03.05-.07.05-.1 0-.25-.24-.38-.41-.4-.52-.01-.08.01-.1.09-.08.12.04.22.15.29.33.03.08.06.08.1 0Z" fill="#FECF62"/><path d="M30.7 35h-5.4a.3.3 0 0 0-.3.29v1.42c0 .16.13.29.3.29h5.4a.3.3 0 0 0 .3-.29V35.3a.3.3 0 0 0-.3-.29ZM27.2 37.5h-5.4a.3.3 0 0 0-.3.29v1.42c0 .16.13.29.3.29h5.4a.3.3 0 0 0 .3-.29V37.8a.3.3 0 0 0-.3-.29ZM23.7 40h-5.4a.3.3 0 0 0-.3.29v1.42c0 .16.13.29.3.29h5.4a.3.3 0 0 0 .3-.29V40.3a.3.3 0 0 0-.3-.29ZM30.7 40h-5.4a.3.3 0 0 0-.3.29v1.42c0 .16.13.29.3.29h5.4a.3.3 0 0 0 .3-.29V40.3a.3.3 0 0 0-.3-.29ZM37.7 40h-5.4a.3.3 0 0 0-.3.29v1.42c0 .16.13.29.3.29h5.4a.3.3 0 0 0 .3-.29V40.3a.3.3 0 0 0-.3-.29ZM34.2 37.5h-5.4a.3.3 0 0 0-.3.29v1.42c0 .16.13.29.3.29h5.4a.3.3 0 0 0 .3-.29V37.8a.3.3 0 0 0-.3-.29Z" fill="#F58D76"/><path d="m18.43 37.14.03.09c-.07-.1-.09-.13-.03-.09ZM39.23 37.47a.1.1 0 0 0 .02-.05v-.01l.02-.01h.01v.02c0 .03 0 .05-.03.06-.04.02-.04.01-.02-.01Z" fill="#262627"/><path d="m19.64 38.8.07.08a.03.03 0 0 1 0 .03v.02h-.02c-.04 0-.07-.02-.09-.08a.05.05 0 0 1 0-.04l.03-.01h.01Z" fill="#F58D76"/><path d="m35 39.74-.13.13c-.2.09-.35.1-.45.02.03-.31.13-.57.3-.77a.15.15 0 0 1 .27.1v.52Z" fill="#FECF62"/><path d="M37.55 39.52c.07-.07.11-.07.1-.03 0 .02 0 .04-.02.06l-.06.03h-.02l-.01-.03a.04.04 0 0 1 0-.03Z" fill="#262627"/></svg>