<!-- by TradingView --><svg width="56" height="56" viewBox="0 0 56 56" xmlns="http://www.w3.org/2000/svg"><path fill="#F0F3FA" d="M0 0h56v56H0z"/><path d="M44 28a16 16 0 1 1-32 0 16 16 0 0 1 32 0Z" fill="#B7882F"/><path d="M34.75 22.43a12.14 12.14 0 0 0-5.78 2.91c-.22.2-.48.3-.78.32-3.86.15-6.93 1.93-9.21 5.33.04-1.4.22-2.72.53-3.96 1.8-7.08 9.5-8.6 15.24-4.6Z" fill="#CDA667"/><path d="M24.4 37.73a8.74 8.74 0 0 1-.25-5.36c.03-.11.1-.17.23-.17h.26a.25.25 0 0 1 .24.2v.1c-.41 1.73-.23 3.83 1.94 4.27 5.01 1 9.34-3.96 10.56-8.13.35-1.17.4-2.19.13-3.05-.41-1.34-1.39-2.03-2.94-2.08-1.68-.06-3.4.66-5.14 2.15-.25.22-.26.45-.03.7 1.67 1.78 1.9 3.66.67 5.63-.5.81-.68.75-.54-.19.25-1.61.16-2.65-.29-3.11-.56-.6-1.44-.78-2.65-.54-3.02.6-5.2 2.3-6.51 5.1-.96 2.04-.49 3.45 1.43 4.23.23.1.45.12.67.08.2-.04.52-.16.93-.37a.5.5 0 0 1 .37-.03c.12.04.22.12.3.23.05.1.1.22.1.37-.54.2-1.3.31-2.27.35-4.62.17-4.78-4.37-2.63-7.12 2.28-3.4 5.35-5.18 9.21-5.33.3-.01.56-.12.78-.32a12.14 12.14 0 0 1 5.78-2.91c3.11-.53 5.02.55 5.74 3.25.34 1.3.17 2.86-.5 4.66-1.47 4-4.03 6.85-7.67 8.53-3.17 1.46-5.81 1.08-7.92-1.14Z" fill="#fff"/><path d="M24.4 37.73c-.1-.07-.28-.06-.51.03a.89.89 0 0 0-.12-.37.52.52 0 0 0-.3-.23.5.5 0 0 0-.36.03c-.41.2-.72.33-.93.37-.22.04-.44.01-.67-.08-1.92-.78-2.4-2.19-1.43-4.23a8.72 8.72 0 0 1 6.51-5.1c1.2-.24 2.1-.06 2.65.54.45.46.54 1.5.3 3.11-.15.94.03 1 .53.2 1.22-1.98 1-3.86-.67-5.64-.23-.25-.22-.48.03-.7 1.75-1.49 3.46-2.2 5.14-2.15 1.55.05 2.53.74 2.94 2.08.27.86.23 1.88-.13 3.05-1.22 4.17-5.55 9.13-10.56 8.13-2.17-.44-2.35-2.54-1.94-4.27a.24.24 0 0 0-.24-.3h-.26c-.12 0-.2.06-.23.17a8.74 8.74 0 0 0 .25 5.36Z" fill="#CDA667"/></svg>