<!-- by TradingView --><svg width="56" height="56" viewBox="0 0 56 56" xmlns="http://www.w3.org/2000/svg"><path fill="#F0F3FA" d="M0 0h56v56H0z"/><path d="m27.98 28.6-14.52 4.07c.43 1.6-.23 3.74.72 5.03.99 1.36 3.4 1.37 4.75 2.36 1.37.99 2.11 3.27 3.76 3.8 1.6.52 3.57-.86 5.35-.86 1.71 0 3.63 1.38 5.18.9 1.63-.52 2.38-2.78 3.74-3.75 1.37-.98 3.78-.97 4.78-2.31 1-1.34.19-3.53.72-5.15L27.98 28.6Z" fill="#B91C22"/><path d="m24.45 28.2-10.98 4.26c-.18-.38-.72-1.37-1.53-2.27-.8-.9-.96-1.82-.94-2.17 0-.37.2-1.36.94-2.32.75-.97 1.33-1.93 1.53-2.3l10.9 3.64c.16.05.5.23.55.56.05.34-.26.51-.47.6Z" fill="url(#arzx4p4nn)"/><path d="m31.55 28.2 10.98 4.26c.18-.38.72-1.37 1.53-2.27.8-.9.96-1.82.94-2.17 0-.37-.2-1.36-.94-2.32a19.24 19.24 0 0 1-1.53-2.3l-10.9 3.64c-.16.05-.5.23-.55.56-.05.34.26.51.47.6Z" fill="url(#brzx4p4nn)"/><path d="m30.97 26.09 11.44-2.87a9.97 9.97 0 0 1-.1-2.73 3.3 3.3 0 0 0-.5-2.3c-.23-.3-.97-1-2.14-1.34a19.6 19.6 0 0 1-2.59-.99l-6.72 9.23c-.1.13-.28.48-.12.78.16.3.51.26.73.22Z" fill="url(#crzx4p4nn)"/><path d="m25 26.09-11.44-2.87c.08-.41.22-1.53.1-2.73-.13-1.2.28-2.03.5-2.3.23-.3.96-1 2.14-1.34a19.6 19.6 0 0 0 2.58-.99l6.73 9.23c.1.13.27.48.11.78-.15.3-.5.26-.73.22Z" fill="url(#drzx4p4nn)"/><path d="m26.67 24.82-7.49-9.02c.32-.28 1.1-1.1 1.72-2.13a3.37 3.37 0 0 1 1.79-1.56 4.42 4.42 0 0 1 2.52.17c1.16.4 2.26.65 2.67.72l-.12 11.38c0 .17-.06.55-.37.7-.3.14-.57-.1-.72-.26Z" fill="url(#erzx4p4nn)"/><path d="m29.33 24.82 7.49-9.02a10.1 10.1 0 0 1-1.72-2.13 3.37 3.37 0 0 0-1.79-1.56 4.42 4.42 0 0 0-2.52.17c-1.16.4-2.26.65-2.67.72l.12 11.38c0 .17.06.55.37.7.3.14.57-.1.72-.26Z" fill="url(#frzx4p4nn)"/><defs><linearGradient id="arzx4p4nn" x1="11" y1="27.93" x2="24.57" y2="27.93" gradientUnits="userSpaceOnUse"><stop stop-color="#E37710"/><stop offset="1" stop-color="#F5D522"/></linearGradient><linearGradient id="brzx4p4nn" x1="45" y1="27.93" x2="31.43" y2="27.93" gradientUnits="userSpaceOnUse"><stop stop-color="#E37710"/><stop offset="1" stop-color="#F5D522"/></linearGradient><linearGradient id="crzx4p4nn" x1="41.75" y1="18.12" x2="30.8" y2="26.05" gradientUnits="userSpaceOnUse"><stop stop-color="#E37710"/><stop offset="1" stop-color="#F5D522"/></linearGradient><linearGradient id="drzx4p4nn" x1="14.22" y1="18.12" x2="25.16" y2="26.05" gradientUnits="userSpaceOnUse"><stop stop-color="#E37710"/><stop offset="1" stop-color="#F5D522"/></linearGradient><linearGradient id="erzx4p4nn" x1="22.77" y1="12.08" x2="26.89" y2="24.87" gradientUnits="userSpaceOnUse"><stop stop-color="#E37710"/><stop offset="1" stop-color="#F5D522"/></linearGradient><linearGradient id="frzx4p4nn" x1="33.23" y1="12.08" x2="29.11" y2="24.87" gradientUnits="userSpaceOnUse"><stop stop-color="#E37710"/><stop offset="1" stop-color="#F5D522"/></linearGradient></defs></svg>