<!-- by TradingView --><svg width="56" height="56" viewBox="0 0 56 56" xmlns="http://www.w3.org/2000/svg"><path fill="#F0F3FA" d="M0 0h56v56H0z"/><path d="m29.1 37.94.28-.19c.05-.03.1-.05.16-.05.97 0 1.91-.15 2.83-.45.06-.02.1-.06.14-.11.08-.16.2-.24.36-.26a4.83 4.83 0 0 1 2.45.3c.82.33 1.48.41 1.97.26.36-.11.54-.45.53-1.02 0-.46-.1-.87-.29-1.23-.15-.29-.26-.61-.33-.96a.3.3 0 0 1 .01-.15c.04-.12.07-.31.1-.58.03-.41.11-.7.24-.87.15-.18.25-.38.3-.6l.08-.14c.13-.13.2-.3.2-.49 0-.06.03-.12.08-.17l.55-.6c.05-.05.1-.08.16-.1l.2-.06c.22-.06.38-.13.48-.24.35-.33.7-.64 1.04-.93.09-.07.23-.13.44-.18.32-.08.5-.24.54-.48.06-.27.08-.56.06-.85-.01-.42-.33-.73-.96-.93l-.27-.09c-.2-.07-.4-.17-.63-.31-.34-.2-.7-.4-1.08-.57-2-.91-2.07-3.05-1.27-4.7.1-.23.2-.4.26-.52.12-.2.22-.53.3-.97a10 10 0 0 1 .06-.3c.08-.34.01-.62-.19-.84a1.1 1.1 0 0 0-.82-.33c-.5-.01-.87.02-1.1.1-.25.1-.49.15-.72.17-.34.03-.6.18-.8.44a3.3 3.3 0 0 1-.63.62c-.05.04-.06.1-.02.14l.18.25c.11.16.09.28-.08.38-.71.4-1.46.76-2.24 1.12-.36.16-.69.25-1 .28-.43.02-.94-.01-1.53-.12-.1-2.58-.15-5.1-.14-7.57 0-.86.35-1.18 1.03-.98 4.63 1.36 8.63 2.56 12.02 3.58.62.2.95.71.95 1.36v20c0 .72-.33 1.2-.97 1.39L30.1 42.94c-.47.14-.8.03-.98-.34a2.13 2.13 0 0 1-.1-.88 234.7 234.7 0 0 0 .04-3.68.34.34 0 0 0 .03-.1Z" fill="#1D4896"/><path d="m29.1 37.94.17-5.6c1.66.66 3.17 1.53 4.54 2.58.17.14.43.13.76-.02l2.13 1.68c.02.02.04.02.07 0l.03-.04v-.02l-1.4-1.78a2.9 2.9 0 0 1-.35-1.24.24.24 0 0 0-.06-.16 5.9 5.9 0 0 1-.72-1.03 3.93 3.93 0 0 0-.59-.8.3.3 0 0 1-.08-.2l-.01-.8c0-.06.02-.1.06-.14a4.37 4.37 0 0 1 1.86-.82l.66-.11c.5-.08.85-.17 1.08-.27.22-.1.46-.18.7-.25.13-.04.3-.1.54-.2.48-.2.88-.28 1.2-.23.46.07.94.1 1.42.06.13 0 .22-.07.26-.18.06-.16.05-.3-.03-.42-.26-.35-.78-.52-1.55-.5a3.5 3.5 0 0 1-.9-.08 64.56 64.56 0 0 0-3.69-.9 4.51 4.51 0 0 1-.79-.28l-.45-.18a.58.58 0 0 1-.4-.48c-.07-.34 0-.64.16-.92.07-.1.15-.27.26-.5.16-.34.3-.58.42-.72.1-.1.15-.22.16-.36.01-.05.03-.1.07-.14a.59.59 0 0 0 .19-.4.3.3 0 0 1 .07-.17c.1-.13.09-.26-.02-.4l1.84-2.35c.03-.05.02-.07-.04-.08a.4.4 0 0 0-.28.11l-1.9 1.54c-.22-.08-.38-.09-.49-.04-.52.26-1.16.64-1.92 1.15-.08.06-.21.12-.39.18-.24.09-.42.19-.52.3-1.6 1.7-1.93 2.7-2.03-1.12.6.1 1.1.14 1.53.12.31-.03.64-.12 1-.28.78-.36 1.53-.73 2.23-1.12.18-.1.2-.22.09-.38l-.18-.25c-.04-.05-.03-.1.02-.14l.1-.08c.26-.22.44-.4.54-.54.18-.26.45-.4.8-.44.22-.02.46-.07.7-.16.24-.09.61-.12 1.11-.1.35 0 .63.11.82.32.2.22.27.5.2.84l-.07.3c-.08.44-.18.77-.3.97l-.26.52c-.8 1.65-.73 3.8 1.27 4.7.38.17.74.36 1.08.57a3.79 3.79 0 0 0 .9.4c.63.2.95.51.96.93.02.3 0 .58-.06.85-.04.24-.22.4-.54.48-.2.05-.35.11-.44.18-.35.3-.7.6-1.04.93-.1.1-.26.18-.48.24l-.2.06a.36.36 0 0 0-.16.1l-.55.6a.26.26 0 0 0-.07.17c-.01.2-.08.36-.2.5a.33.33 0 0 0-.08.14c-.06.21-.16.41-.3.6-.14.16-.22.45-.26.86-.02.27-.05.46-.1.58a.3.3 0 0 0 0 .15c.07.35.18.67.33.97.18.35.28.76.29 1.22 0 .57-.17.9-.53 1.02-.49.15-1.15.07-1.97-.26l-.12-.04a4.83 4.83 0 0 0-2.33-.26.46.46 0 0 0-.36.26.24.24 0 0 1-.14.11c-.92.3-1.86.45-2.83.45-.06 0-.11.02-.16.05l-.28.19Z" fill="#2762AA"/><path d="m34.5 21.14-5 3.91c-.11.08-.18.06-.2-.08-.02-.13-.08-1.42-.03-1.43a3.63 3.63 0 0 0 1.9-.81c.1-.11.28-.21.52-.3.18-.06.3-.12.4-.18.75-.5 1.39-.89 1.91-1.15.1-.05.27-.04.5.04ZM34.87 21.92c.1.14.12.27.02.4a.3.3 0 0 0-.07.18c0 .15-.07.28-.19.4a.23.23 0 0 0-.06.13.66.66 0 0 1-.17.36c-.12.14-.26.38-.42.73-.1.22-.2.39-.26.49-.17.28-.23.58-.17.92.04.24.18.4.4.48.11.03.27.1.47.18.33.15.6.24.78.28 1.25.27 2.49.57 3.7.9.18.06.48.08.9.07.76-.01 1.28.16 1.54.51.08.12.1.26.03.42a.27.27 0 0 1-.26.18c-.48.03-.96 0-1.42-.06-.32-.05-.72.02-1.2.22-.23.1-.41.17-.54.2-.24.08-.47.16-.7.26-.23.1-.59.2-1.08.27a7.28 7.28 0 0 0-.73.13c-.8.2-1.4.47-1.79.8a.17.17 0 0 0-.06.13v.8c0 .08.04.15.1.21.23.25.43.52.58.8.22.39.45.73.72 1.03.04.04.06.1.06.16 0 .38.13.8.35 1.24-.7-.8-1.35-1.6-1.95-2.44l-1.43-2a.94.94 0 0 1-.2-.42c-.02-.22.08-.38.3-.47l.2-.09c.36-.15.65-.25.85-.29l1.32-.24c.43-.08.88-.14 1.34-.19 1.06-.1 2.12-.24 3.16-.4a5.84 5.84 0 0 1 1.38 0c.13 0 .18-.05.14-.18a.15.15 0 0 0-.02-.06.42.42 0 0 0-.35-.2 8.1 8.1 0 0 1-1.12-.12 15.2 15.2 0 0 0-1.61-.18c-.7-.05-1.21-.1-1.55-.16-.19-.04-.45-.07-.81-.1-.46-.06-.8-.1-1.03-.16a8.56 8.56 0 0 0-.6-.1 2.9 2.9 0 0 1-1.51-.55.17.17 0 0 1-.06-.13c-.02-.35.06-.63.24-.83.36-.41.6-.7.72-.87.66-.9 1.34-1.77 2.06-2.64ZM34.57 34.9c-.33.15-.59.16-.76.02a18.98 18.98 0 0 0-4.54-2.59l.06-1.4c0-.08.04-.1.11-.05l5.13 4.02Z" fill="#91B3D8"/><path d="M26.99 15.62c-1.7.24-3.33.66-4.9 1.25a6.3 6.3 0 0 0-.67.3 4.3 4.3 0 0 1-1.01.42l-.8.17c-.09.02-.2.07-.34.17a.98.98 0 0 1-.37.17 2.2 2.2 0 0 0-.42.11.32.32 0 0 0-.18.15l-.45.8a.22.22 0 0 0-.01.19c.1.26.06.5-.1.7-.07.1-.13.27-.17.5-.04.2-.09.34-.14.44l-.25.47a13.23 13.23 0 0 0-1.4 3.33c-.14.62-.43 1.03-.89 1.24-.23.1-.5.36-.78.77l-.2.27c-.36.45-.38.96-.08 1.53.35.67.77 1.28 1.24 1.82a3 3 0 0 1 .6 1.05c.33 1 .75 2 1.28 3 .18.33.3.67.37 1.02a7.92 7.92 0 0 0 .29 1.06c.24.83.62 1.3 1.13 1.43.32.08.65.12 1 .13.06 0 .1.01.14.03l.09.06a.4.4 0 0 0 .19.07c.6.06 1.15.19 1.65.39s1.15.4 1.96.6c.1.02.24.02.42-.01.15-.03.27-.04.35-.02l2.44.28c.03 1.45.03 2.39-.02 2.82-.07.6-.44.8-1.1.6-3.9-1.15-7.82-2.32-11.76-3.5-.73-.23-1.1-.65-1.1-1.43V18c0-.63.43-1.22 1.28-1.48 3.78-1.14 7.65-2.29 11.6-3.46.37-.11.68-.06.92.15.14.12.2.29.2.5v.24l-.01 1.67Z" fill="#F3850E"/><path d="m26.99 15.62-.1 4.81c-.82.1-1.63.16-2.45.18-.4.01-.75-.03-1.07-.12-.41-.1-.8-.22-1.15-.33-.12-.04-.28-.1-.48-.2-.38-.16-.7-.25-.96-.25a.23.23 0 0 1-.16-.07l-.04-.04c-.17-.17-.32-.27-.45-.29a9.13 9.13 0 0 0-.77-.08c-.09 0-.14.03-.16.11-.05.23.03.38.26.45.07.02.13 0 .18-.05a.1.1 0 0 0 .02-.09c-.01-.06.02-.1.08-.1.2-.03.4-.02.57.03.05.01.1.04.12.09.05.08.12.14.2.2.06.02.12.03.18.02.15-.02.29 0 .41.07.26.16.54.27.85.35.1.02.1.06.02.1-.1.06-.21.06-.31 0l-.74-.35c-.15-.07-.31-.11-.49-.12l-.5-.02c-.33-.08-.43 0-.31.2.18 1.62 1 4.2-.82 5.35a.32.32 0 0 0-.1.12c-.16.26-.35.41-.57.45-.72.15-1.49.31-2.28.5-.24.06-.45.17-.66.32-.23.18-.2.24.08.17.43-.1.84-.26 1.25-.45.08-.04.2-.08.36-.12.2-.04.35-.1.44-.16.03-.02.05-.01.07.02l.02.04v.02a7.88 7.88 0 0 1-2 .73c-.14.01-.24.05-.3.12-.3.3-.44.6-.44.93 0 .27.14.43.4.48.23.04.46.1.67.18.92.36 1.81.63 2.67.82.1.02.21.09.35.19.15.1.29.17.4.2.38.07.72.22 1.04.45.4.27.59.57.59.9-.01.58-.14 1.09-.41 1.5-.1.17-.2.42-.3.76-.1.32-.19.55-.27.7-.11.2-.19.44-.24.73-.07.42-.19.85-.35 1.29a.16.16 0 0 0-.1.07c-.04.06-.02.1.04.12.05.02.1 0 .16-.05.36-.3.69-.55.99-.76.93-.01 1.8-.29 2.6-.83a.3.3 0 0 1 .25-.04c.07.02.08.05.02.1l-.43.38c-.12.1-.1.17.04.21l.2.1c.1.1.1.15-.05.18a4.76 4.76 0 0 0-1.47.53l.02.04c.02.04.05.05.1.04.97-.44 2.18-.38 3.62.17a4.87 4.87 0 0 0 1.62.22l.03 2.67-2.44-.28c-.08-.02-.2 0-.35.02-.18.03-.32.03-.42 0-.81-.19-1.46-.39-1.96-.6-.5-.2-1.05-.32-1.65-.38a.4.4 0 0 1-.19-.07 1.05 1.05 0 0 0-.09-.06.3.3 0 0 0-.13-.03c-.36-.01-.69-.05-1-.13-.52-.13-.9-.6-1.14-1.43l-.09-.3c-.08-.25-.14-.5-.2-.76-.07-.35-.19-.69-.37-1.02-.53-1-.95-2-1.28-3a3 3 0 0 0-.6-1.05 9.27 9.27 0 0 1-1.24-1.82c-.3-.57-.28-1.08.08-1.53l.2-.27c.29-.41.55-.67.78-.77.46-.21.75-.62.88-1.24.18-.84.65-1.95 1.4-3.33l.26-.47c.05-.1.1-.24.14-.44.04-.23.1-.4.17-.5a.7.7 0 0 0 .1-.7.22.22 0 0 1 .01-.2l.45-.8c.04-.06.1-.11.18-.14.13-.05.27-.09.42-.11.1-.02.22-.07.37-.17.14-.1.25-.15.34-.17l.8-.17a4.3 4.3 0 0 0 1.01-.41c.29-.15.5-.25.66-.31 1.58-.6 3.21-1 4.9-1.25Z" fill="#F59A1C"/><path d="m26.9 20.43-.19 4.49c0 .07-.03.09-.1.04-8.55-5.84-10.51-7.13-3.43-4.86.32.09.95.34 1.35.33.81-.02 1.54.1 2.37 0Z" fill="#F7B238"/><path d="M19.74 20.12c1.33 1.76 2.32 3.09 2.95 3.99a24.5 24.5 0 0 1 1.33 2.2s-1.68.44-2.18.5c-.36.04-.69.11-.99.2-.27.1-.68.17-1.22.23-.4.05-.7.1-.9.14-.97.23-1.96.41-2.96.56a.26.26 0 0 0-.15.09l-.06.06c-.09.1-.06.15.07.16.94.08 1.84.21 2.7.42.33.07.67.13 1.05.18l1.07.14c.3.05.72.14 1.3.27.62.15 1.1.25 1.42.3.43.05.57.28.44.68-.13.36-.32.72-.57 1.1l-1.09 1.54c-.29.41-.67.92-1.13 1.51-.5.64-1 1.3-1.48 1.97.16-.44.28-.87.35-1.3.05-.28.13-.52.24-.71.08-.16.17-.4.27-.7.1-.35.2-.6.3-.76.26-.42.4-.93.4-1.52 0-.32-.19-.62-.58-.9a2.8 2.8 0 0 0-1.04-.44 1.1 1.1 0 0 1-.4-.2c-.14-.1-.25-.16-.35-.19-.86-.19-1.75-.46-2.67-.82a3.58 3.58 0 0 0-.67-.18c-.26-.05-.4-.21-.4-.48-.43-2.32 3.07-2.04 3.46-2.12.22-.04.4-.2.56-.45v-.02a.32.32 0 0 1 .11-.1c.53-.34.83-.77.9-1.3.24-1.98.16-1.93-.08-4.05ZM26.95 36.84h-.11a4.87 4.87 0 0 1-1.51-.22c-1.44-.55-2.65-.6-3.63-.17-.04.01-.07 0-.09-.04l-.02-.04.01-.03c.45-.24.94-.4 1.46-.5.14-.03.16-.09.04-.18a.56.56 0 0 0-.19-.1c-.15-.04-.16-.11-.04-.21l.43-.38c.06-.05.05-.08-.02-.1a.3.3 0 0 0-.26.04c-.8.54-1.66.82-2.59.83l6.1-4.6c.1-.07.14-.05.15.07l.27 5.63Z" fill="#F7B238"/></svg>