<!-- by TradingView --><svg width="56" height="56" viewBox="0 0 56 56" xmlns="http://www.w3.org/2000/svg"><path fill="#F0F3FA" d="M0 0h56v56H0z"/><path d="M18.48 14 13 34.76l8.5-2.26a4 4 0 0 0-.5 1.9c0 .95 2.74 1.38 5.3 1.38a8.2 8.2 0 0 0 4.07-1.02L33 36.49c-.53.17-2.34.51-6.25.51-7.4 0-8.5-1.7-8.12-2.6-.57.19-1.63.8-1.63 1.68 0 1.1 3.66 2.92 9.97 2.92 5.05 0 9.12-1.12 10.52-1.68L42 19.4 18.48 14Z" fill="#676666"/><path d="M46 42.07 39.87 38A38 38 0 0 1 27 40C20.51 40 14 39.14 14 36.36c0-2.23 7.78-3.84 11.63-4.36C23.29 32 10 33.14 10 37.43 10 41.7 24.46 43 31.4 43c5.55 0 12.04-.62 14.6-.93Z" fill="#C21823"/><path d="M31.19 11.5 38 8 28 34l3.19-22.5Z" fill="#C21823"/><path d="M25.62 21.99 21 20l7 14-2.38-12.01Z" fill="#fff"/></svg>