<!-- by TradingView --><svg width="56" height="56" viewBox="0 0 56 56" xmlns="http://www.w3.org/2000/svg"><path fill="#F0F3FA" d="M0 0h56v56H0z"/><path fill-rule="evenodd" d="M32.34 15.13 48.32 25.5c2.56 1.66 2.15 4.56-.91 6.47l-13.56 8.45c-3.07 1.9-7.63 2.1-10.19.44L7.68 30.5c-2.56-1.66-2.15-4.56.91-6.47l13.56-8.45c3.07-1.9 7.63-2.1 10.19-.44ZM21.5 32h-4.67l6.66-12h11.48l-1.54 2h-6.21l-1.24 2h6.83l-3.44 6h1.9l3.29-6h4.72l-6.53 12H21.39l.87-2h6.72l.97-2h-6.28l3.04-6H24.8l-3.29 6Z" fill="#115FAD"/></svg>