<!-- by TradingView --><svg width="56" height="56" viewBox="0 0 56 56" xmlns="http://www.w3.org/2000/svg"><path fill="#F0F3FA" d="M0 0h56v56H0z"/><path d="M30.27 12.16c3.22.47 6.04 1.78 8.46 3.93a15.56 15.56 0 0 1 5.08 9.39c.33 2 .19 3.9-.13 5.89 0 .03-.02.04-.05.04h-1.31c-.02 0-.03 0-.03-.03a14.81 14.81 0 0 0-2.84-12.55 14.57 14.57 0 0 0-8.81-5.25 14.53 14.53 0 0 0-5.36.02 14.44 14.44 0 0 0-10.23 7.54 14.55 14.55 0 0 0-.5 12.7 14.46 14.46 0 0 0 11.03 8.62 14.56 14.56 0 0 0 13.26-4.58c.09-.1.2-.15.34-.15h1.4c.03 0 .06.01.07.05.02.03.01.06 0 .1a16.68 16.68 0 0 1-4.55 3.95 15.63 15.63 0 0 1-5.65 2c-.36.05-.73.1-1.08.17h-2.71l-1.05-.18a16 16 0 0 1-11.27-7.45 15.95 15.95 0 0 1-2.07-11.24A15.89 15.89 0 0 1 25.54 12.2c1.57-.25 3.15-.27 4.73-.04Z" fill="#C40018"/><path d="M37.9 37.72c.03 0 .05.02.06.05.01.02 0 .05-.01.07a14.03 14.03 0 0 1-13.58 3.64 13.73 13.73 0 0 1-9.88-9.92 13.6 13.6 0 0 1 .21-7.85c.85-2.6 2.33-4.76 4.45-6.5a13.74 13.74 0 0 1 11.9-2.84 13.87 13.87 0 0 1 9.56 7.6 13.85 13.85 0 0 1 .97 9.41c0 .02-.02.03-.04.03h-.87c-.02 0-.03 0-.02-.03A13.05 13.05 0 0 0 32.1 15.6a12.93 12.93 0 0 0-11.78 1.85 12.84 12.84 0 0 0-4.86 6.86 12.85 12.85 0 0 0 .36 8.45 13 13 0 0 0 13.35 8.28c2.8-.25 5.29-1.31 7.45-3.2a.44.44 0 0 1 .3-.1h.98Z" fill="#C40018"/><path d="M21.6 18.05c0-.06.03-.07.08-.02l3.09 2.65.02.03v2.6c0 .03 0 .04.03.05h.05l1.5-1.2a.05.05 0 0 1 .04-.02l3.13 1.38c.02 0 .03.01.03.03l2.41 7.39c.02.04 0 .06-.05.06H19.77c-.04 0-.06-.02-.05-.06l1.87-12.89Zm13.38 3.87c.03-.04.06-.04.09.02l3.57 9c.02.04 0 .06-.05.06h-5.92c-.03 0-.04-.01-.05-.04l-1.39-4.25v-.05l3.75-4.74ZM36.5 32c.07 0 .1.04.1.12l-.14 3.5c0 .1.02.13.09.1 0 0 .02 0 .02-.02l1.45-3.57c.03-.08.09-.12.17-.12h.64c.07 0 .11.03.14.1l1.28 3.76c.03.09 0 .13-.07.13h-.66c-.07 0-.13-.04-.15-.12l-.88-2.57-.03-.02c-.02 0-.03 0-.03.02l-1.06 2.62c-.02.04-.05.06-.1.06h-1.61c-.08 0-.11-.04-.1-.12l.07-1.44c0-.04-.02-.07-.06-.07h-1.06c-.04 0-.06.03-.06.07l-.08 1.46c0 .07-.04.11-.1.11h-.69c-.07 0-.1-.04-.1-.12l.2-3.78c0-.06.04-.1.1-.1h.7c.06 0 .09.04.08.1l-.07 1.39c0 .04.02.07.06.07h1.05c.03 0 .05-.02.05-.06l.07-1.39c0-.07.04-.1.1-.1h.68Zm-15.97 0c.03 0 .04.02.05.04l.9 2.23c0 .03.02.04.05.03.02 0 .04-.02.04-.05l.27-2.2c0-.02.02-.04.05-.04h.79c.04 0 .05.02.05.06l-.47 3.77c0 .03 0 .05.03.06.03.01.05 0 .06-.03l1.85-3.83c0-.02.02-.03.04-.03h.8c.02 0 .04.01.05.04l1.09 3.87c.01.05 0 .07-.05.07h-.79c-.02 0-.04 0-.04-.04l-.74-2.6c0-.03-.02-.04-.04-.05-.03 0-.04.01-.05.03l-1.27 2.63c-.01.02-.03.03-.05.03h-1.82c-.02 0-.04 0-.05-.03l-.91-2.29c-.01-.02-.03-.03-.05-.03-.03 0-.05.02-.05.05L20 35.95c0 .03-.02.05-.05.05h-.78c-.04 0-.06-.02-.05-.07l.48-3.87c0-.04.03-.05.06-.05h.88Zm6.88 0c.07 0 .12.04.16.1a35.41 35.41 0 0 1 1 2.23c.02.02.03.03.05.02.01 0 .02-.01.02-.03l.19-2.2c0-.08.04-.11.1-.11h.68c.07 0 .1.04.1.12l-.32 3.76c0 .07-.04.1-.1.1h-.74c-.07 0-.12-.03-.15-.1a34.36 34.36 0 0 1-1.01-2.22c-.01-.02-.03-.03-.04-.02-.02 0-.03.01-.03.03l-.18 2.2c0 .07-.04.11-.1.11h-.69c-.07 0-.1-.04-.1-.12l.32-3.76c0-.07.04-.1.1-.1h.74Zm13.81 0c.07 0 .12.03.15.1a40.12 40.12 0 0 1 1.19 2.22c0 .02.03.03.05.02.02 0 .03-.02.03-.05v-2.18c0-.07.03-.1.1-.1h.68c.05 0 .08.02.08.09v3.8c0 .06-.02.1-.08.1h-.76c-.07 0-.12-.04-.15-.1a39.54 39.54 0 0 1-1.19-2.23c-.01-.02-.03-.02-.05-.02-.02.01-.03.03-.03.05v2.18c0 .07-.03.11-.1.11h-.68c-.06 0-.08-.03-.08-.1v-3.8c0-.06.02-.09.08-.09h.76Zm-8.1 0c.07 0 .1.04.1.11l-.04.61c0 .08-.03.11-.1.11H31.2l-.05.01c-.23.1-.33.24-.3.45.03.19.13.28.3.28a79.97 79.97 0 0 0 1.3.02c.5.1.75.44.78.99 0 .23-.03.46-.13.68-.1.23-.23.4-.41.54-.18.13-.62.19-1.31.17h-1.34c-.06 0-.1-.03-.1-.1l.04-.62c0-.07.04-.11.1-.11h1.9l.04-.01c.22-.09.32-.24.3-.45-.04-.19-.13-.28-.3-.28a90.42 90.42 0 0 0-1.3-.02c-.5-.1-.75-.44-.78-.98a1.5 1.5 0 0 1 .54-1.22c.18-.14.62-.2 1.3-.18.46.02.9.02 1.34 0ZM43.5 36.3H19.01c-.03 0-.06.03-.06.06v.58c0 .03.03.06.06.06H43.5c.04 0 .06-.03.06-.06v-.58c0-.03-.02-.06-.06-.06Z" fill="#C40018"/></svg>