<!-- by TradingView --><svg width="56" height="56" viewBox="0 0 56 56" xmlns="http://www.w3.org/2000/svg"><path fill="#F0F3FA" d="M0 0h56v56H0z"/><path d="M12 21.3v2.04l14.73-8.26a2.5 2.5 0 0 1 2.52.04l11.81 7.13a1.72 1.72 0 0 1-.04 2.96l-8.8 4.97 10.52 6.4c1 0 1.26-1.99 1.26-2.98V21.3c0-1.9-1.04-3.64-2.7-4.53L29.18 10.3a2.5 2.5 0 0 0-2.36 0L14.7 16.77a5.14 5.14 0 0 0-2.7 4.54Z" fill="#EA5407"/><path d="M16 25.9v13.68l10.3 6.06c.79.48 1.77.48 2.57 0l10.08-6.06L21.6 29h1.68c1.35 0 2.25-.23 2.53-.37l8.93-5.29-5.95-3.2a2.5 2.5 0 0 0-2.4.03L16 25.9Z" fill="#EA5407"/></svg>