<!-- by TradingView --><svg width="56" height="56" viewBox="0 0 56 56" xmlns="http://www.w3.org/2000/svg"><path fill="#F0F3FA" d="M0 0h56v56H0z"/><path d="M25 23h-1l-.38 2H22v1h1.43L23 28l-2.51 2.5h1l1.2-1.2-.2.7c-.4 1.2-1.17 1.5-1.5 1.5v.5h1c.8 0 1.33-1.33 1.5-2l.4-1.9 1.6-1.6h-1l-.32.32.18-.82h1.14l.5-1h-1.43l.43-2ZM32 23h-1l-2.5 9h5l.5-1h-4l2-8Z" fill="#E80617"/><path d="M27 23.5v1h8.5l.5-1h-9ZM27 29h-1c0 1.6-1.33 2.33-2 2.5v.5h1c.8 0 1.33-1 1.5-1.5 0 .8 1.33 1.33 2 1.5l.5-1c-1.6 0-2-1.33-2-2ZM33.5 30H30v-1h4l-.5 1ZM26 28v.5h6c1.6 0 2.33-1 2.5-1.5.4-1.6-1.17-2-2-2H27l-.5.5h6c1 0 1 .5 1 1.5 0 .8-1 1-1.5 1h-6Z" fill="#E80617"/><path d="m26.5 26.5-.5.5h9l.5-.5h-9Z" fill="#E80617"/><path fill-rule="evenodd" d="m43.5 23-.5 1h6l-2 1-1-.5h-1l1 .5h-1.5c-.5 0-1.6.4-2 2l-.5 4h1l.13-1h2.64l-.27 1h1l.27-1h.73v.5c.17.17.6.5 1 .5l.32.03c.65.08 1.76.22 2.18-1.03l.5-3c0-.5-.4-1.5-2-1.5H48l4-1.5v-1h-8.5Zm6 7c0 .17-.2.5-1 .5s-1-.33-1-.5h2Zm.33-1 .17-.5c.04-.18.06-.34.08-.5h-2.76l-.27 1h2.78Zm-3.78 0 .27-1h-2.95l-.12 1h2.8Zm.54-2H43.5c0-.33.3-1 1.5-1h1.86l-.27 1Zm3.54 0h-2.54l.27-1h1.64c.23 0 .56.23.63 1Z" fill="#EB0718"/><path d="M41.5 23H40c0 2 1.67 2.17 2.5 2v-.5c-.8 0-1-1-1-1.5ZM39 26l-.5 1h1c.5 0-.5 1.5-.5 3.5 0 1.5 2 1.5 3 1.5h9v-.5h-9c-1.2 0-1.17-1.33-1-2l.5-2.5c0-.8-.67-1-1-1H39Z" fill="#EB0718"/><path fill-rule="evenodd" d="M8.67 23h-1l-.22 1h-.78c-1.5 0-1.83 1.33-2 2l-.5 2c-.5 2 .17 2 1 2h.95l-.45 2h1l.45-2h.05c1.28 0 1.47-.4 1.86-1.2l.14-.3 1-2.5c.4-1.6-.5-2-1-2h-.72l.22-1Zm-2 2h.56l-.34 1.5H5.58l.06-.26c.15-.57.33-1.24 1.03-1.24Zm-1.34 2.5-.19.74c0 .05-.03.1-.05.16-.08.26-.19.6.08.6h1.17l.33-1.5H5.33Zm2.34 0L7.34 29c.48-.02.54-.12.77-.61l.15-.3.24-.59h-.83Zm1.23-1s.13-.19.32-.8c.24-.8-.05-.7-.55-.7h-.44l-.34 1.5h1Z" fill="#E80617"/><path d="M17.17 23h-6.5v.5h5.5c-2 .83-6 2.6-6 3 0 .4.67.5 1 .5h4.5c.4 0 .5.67.5 1l-.5 2c-.4.8-.83 1-1 1h-2c0 .8.67 1 1 1h1.5c.8 0 1.34-.67 1.5-1 .34-1 1-3.2 1-4 0-.8-1-1-1.5-1h-3c1.67-.67 5-2.1 5-2.5 0-.4-.66-.5-1-.5Z" fill="#E80617"/><path d="M12.67 27.5h-1.5l-2.2 2.64a1 1 0 0 1-.77.36h-.03v.5h.5c.4 0 .84-.33 1-.5l3-3ZM9.17 31.5v.5h1c.8 0 1.67-.67 2-1l3-3.5h-1.5l-1.5 2c-1.2 1.6-2.16 2-2.5 2h-.5Z" fill="#E80617"/></svg>