<!-- by TradingView --><svg width="56" height="56" viewBox="0 0 56 56" xmlns="http://www.w3.org/2000/svg"><path fill="#F0F3FA" d="M0 0h56v56H0z"/><path d="M43.08 24.64 14.43 34.8l-.77 2.02 28.73-4.57.69-7.6Z" fill="#003ADD"/><path d="M42 28.71V27l-28 9h1.7L42 28.71Z" fill="#E9F43E"/><path d="M37.85 18h4.86A2.33 2.33 0 0 1 45 20.36v16.28c0 1.3-1.02 2.36-2.29 2.36H13.3A2.33 2.33 0 0 1 11 36.64V20.36c0-1.3 1.03-2.36 2.29-2.36h15.89a.49.49 0 0 0-.03.15c-.04.74-1.13 1.96-2.05 2.85H15.6c-.33 0-.6.28-.6.62v13.76c0 .34.27.62.6.62H31v-4h8v4h2.4c.33 0 .6-.28.6-.62V21.62a.61.61 0 0 0-.6-.62H39v3.05L31 27V15l6.85 3Z" fill="#003ADD"/></svg>