<!-- by TradingView --><svg width="56" height="56" viewBox="0 0 56 56" xmlns="http://www.w3.org/2000/svg"><path fill="#F0F3FA" d="M0 0h56v56H0z"/><path d="m19.6 11.08.07-.03c.43-.16.9.06 1.06.5l.78 2.14c.16.43-.06.9-.48 1.06l-.07.03a.82.82 0 0 1-1.06-.5l-.79-2.14a.83.83 0 0 1 .49-1.06Zm-3.63 2.27 2.16 2.17c.32.33.32.85 0 1.17l-.05.05a.82.82 0 0 1-1.16 0l-2.17-2.17a.83.83 0 0 1 0-1.17l.05-.05a.82.82 0 0 1 1.17 0Zm-2.88 14.54c-1.14-.38-1.56-2.02-.37-2.65a4.14 4.14 0 0 1 1.76-.24h.33c.1 0 .16-.1.18-.2 2.22-13.37 23.63-13.4 26.03-.04.02.11.09.24.21.24h1.8l.1.01c1.15.81 1.21 2.37-.23 2.9-.09.02-.11.08-.06.16 1.81 3.15 1.5 6.05-.92 8.72a.35.35 0 0 0-.1.26c.05 1-.1 2-.81 2.77A3.5 3.5 0 0 1 38.5 41a2.9 2.9 0 0 1-2.75-1.84c-.04-.1-.12-.16-.22-.16H20.4c-.03 0-.06.02-.09.04a.15.15 0 0 0-.05.07A2.79 2.79 0 0 1 17.49 41a3.45 3.45 0 0 1-3.3-3.92.33.33 0 0 0-.1-.26c-2.43-2.67-2.74-5.58-.93-8.74.05-.1.03-.15-.07-.19Zm24.82-3.1c-2.27-9.46-17.6-9.4-19.8-.02-.02.11.02.17.13.18l19.54-.01c.11 0 .16-.05.13-.15ZM19.48 31.9c0-.57-.23-1.11-.64-1.51a2.19 2.19 0 0 0-3.07 0 2.13 2.13 0 0 0 0 3.03 2.19 2.19 0 0 0 3.07 0c.41-.4.64-.95.64-1.52Zm20.74-1.51a2.19 2.19 0 0 0-3.54.7 2.11 2.11 0 0 0 1.17 2.79 2.2 2.2 0 0 0 2.37-.47 2.13 2.13 0 0 0 0-3.02ZM23.9 32.47c3.24 2.79 7.94 1.43 9.74-2.34a.09.09 0 0 0-.04-.11l-.04-.02H22.54c-.14 0-.19.07-.13.2.29.7.79 1.67 1.49 2.27ZM13.13 17.36l2.16.79c.42.15.64.63.48 1.05l-.02.08a.82.82 0 0 1-1.05.48l-2.16-.79a.82.82 0 0 1-.49-1.05l.03-.08a.82.82 0 0 1 1.05-.48Z" fill="#DB4E52"/></svg>