<!-- by TradingView --><svg width="56" height="56" viewBox="0 0 56 56" xmlns="http://www.w3.org/2000/svg"><path fill="#F0F3FA" d="M0 0h56v56H0z"/><path d="M27.77 13c.8 0 1.6.25 2.25.73 2.4 1.75 8.48 6.26 11.8 9.34.12.12.18.26.18.44v2.4c0 .06-.03.1-.08.13a.13.13 0 0 1-.15-.02 949.98 949.98 0 0 1-10.43-8.72 3.08 3.08 0 0 0-1.72-.8.95.95 0 0 0-.54.11c-.68.38-1.3.82-1.87 1.33A2357.8 2357.8 0 0 1 12 31.6V25c3.77-3.81 10.84-9.25 13.47-11.24a3.8 3.8 0 0 1 2.3-.77Z" fill="#155FAD"/><path d="M30.8 22h-2.6c-.11 0-.2.07-.2.16v2.68c0 .09.1.16.2.16h2.6c.12 0 .2-.08.2-.17v-2.68c0-.08-.09-.15-.2-.15Z" fill="#155FAD"/><path d="M36.17 27c-.29.01-.58.13-.86.37a480.25 480.25 0 0 0-6.2 5.13c-.07.06-.11.04-.11-.05v-1.68c0-.1.04-.17.12-.24l5.18-4.35c1.8-1.56 3.66-1.57 5.57-.04a283.6 283.6 0 0 1 4.02 3.25.3.3 0 0 1 .11.23v3.31c0 .08-.03.09-.09.04l-6.75-5.62c-.28-.24-.6-.35-.99-.34Z" fill="#78BD38"/><path d="M29.39 42h-2.87c-5.02-.72-8.36-3.4-10.03-8.04-.4-1.15-.56-2-.46-2.55.08-.45.21-.47.39-.04.95 2.35 2.32 4.2 4.11 5.52A10.57 10.57 0 0 0 27 38.97a9.3 9.3 0 0 0 6.1-2.17c1.71-1.4 2.88-3.25 3.52-5.55.04-.17.15-.25.32-.25h2.8c.18 0 .27.1.26.27a10.71 10.71 0 0 1-2.14 5.91A12.45 12.45 0 0 1 29.4 42Z" fill="#F39607"/></svg>