<!-- by TradingView --><svg width="56" height="56" viewBox="0 0 56 56" xmlns="http://www.w3.org/2000/svg"><path fill="#F0F3FA" d="M0 0h56v56H0z"/><path fill-rule="evenodd" d="M22.5 14H14v28h8.41v-4.72l-4-7.28h9.3l-4.1 7.28V42h8.82c7.04 0 12.93-5.47 13.57-12.61v-.89h-3.86l-.25.98A5.17 5.17 0 0 1 37 33c-2.5 0-5-2.25-5-5 .05-2.74 2.5-5 5-5s4.24 1.32 4.89 3.52l.25.98H46v-.89A13.73 13.73 0 0 0 32.43 14H23.5v4.72L27.71 26h-9.3l4.09-7.28V14ZM37 21.5a6.2 6.2 0 0 1 6.18 4.5h1.33a12.26 12.26 0 0 0-12.08-10.5H25v2.84l5 9.16H16.02L21 18.35V15.5h-5.5v25H21v-2.85l-4.98-9.15H30l-5 9.16v2.84h7.43c6.06 0 11.17-4.48 12.08-10.5h-1.33A6.28 6.28 0 0 1 37 34.5a6.65 6.65 0 0 1-6.5-6.51A6.7 6.7 0 0 1 37 21.5Z" fill="#FF3548"/></svg>