<!-- by TradingView --><svg width="56" height="56" viewBox="0 0 56 56" xmlns="http://www.w3.org/2000/svg"><path fill="#E30413" d="M0 0h56v56H0z"/><path d="M25.29 20.78v-.02l2.17-9.29a.55.55 0 0 1 .55-.47.57.57 0 0 1 .55.41l6.9 19.84-6.31-1.21a1.83 1.83 0 0 0 .54-2.17l-2.72-7.82a.19.19 0 0 0-.1-.12.2.2 0 0 0-.25.04L25.77 21a.27.27 0 0 1-.48-.16v-.05Zm-12.33 14.4a.34.34 0 0 0 .5-.2.33.33 0 0 0-.02-.2 17.13 17.13 0 0 1 6.38-18.9 17.4 17.4 0 0 1 6.46-2.91.33.33 0 0 0 .22-.16.33.33 0 0 0-.35-.5 16.56 16.56 0 0 0-12.4 8.02A16.3 16.3 0 0 0 12.81 35c.02.07.07.14.15.18Zm16.72-22.72a.33.33 0 0 1 .34-.12 16.56 16.56 0 0 1 12.31 8.14 16.3 16.3 0 0 1 .8 14.68.34.34 0 0 1-.64-.02.33.33 0 0 1 0-.2 17.13 17.13 0 0 0-6.18-18.98A17.4 17.4 0 0 0 29.88 13a.35.35 0 0 1-.22-.16.33.33 0 0 1 .02-.37Zm11.55 25.67.02.13c0 .08-.03.16-.08.22A16.47 16.47 0 0 1 27.9 45a16.58 16.58 0 0 1-13.19-6.66.32.32 0 0 1-.08-.22.34.34 0 0 1 .59-.21 17.35 17.35 0 0 0 12.69 5.57 17.45 17.45 0 0 0 12.86-5.53.34.34 0 0 1 .45.18ZM22.5 34.86l-9.17 2.8.01-.01a.57.57 0 0 1-.7-.24.57.57 0 0 1 .1-.68l13.84-15.85 2.09 6.03a1.85 1.85 0 0 0-2.16.61l-5.45 6.25a.2.2 0 0 0-.02.28.2.2 0 0 0 .12.07l1.31.22a.26.26 0 0 1 .23.2.26.26 0 0 1-.13.29.12.12 0 0 1-.04.02h-.03Zm20.7 1.83-7.02-6.5h-.02a.27.27 0 0 0-.4.07.27.27 0 0 0-.01.23l.45 1.24a.2.2 0 0 1-.08.24.2.2 0 0 1-.16.03l-8.18-1.58a1.83 1.83 0 0 1-1.6-1.54l-4.22 4.82 20.74 3.98a.58.58 0 0 0 .63-.26.56.56 0 0 0-.13-.72v-.01Z" fill="#fff"/></svg>