<!-- by TradingView --><svg xmlns="http://www.w3.org/2000/svg" width="56" height="56"><path fill="#FE0201" d="M0 0h56v56H0z"/><path d="M39.97 14H16.03c-1.13 0-2.03.96-2.03 2.05v11.74l.28-.32c1.1-1.22 2.2-2.46 3.44-3.59 2.85-3.48 5.17-5.26 7.17-5.55 1.08-.16 2.1.1 3.03.77 1.56.96 1.06 1.94-.31 2.9-.9.4-1.8.9-2.72 1.51-2.93 1.83-6.35 4.68-10.89 9.17v7.27c0 1.15.9 2.05 2.03 2.05h23.94c1.13 0 2.03-.9 2.03-2.05v-4.27a67.14 67.14 0 00-10.55-1.2v-.02a77.32 77.32 0 00-11.94.45c-1.34.16-2.19-.67-.13-1.46 1.3-.33 2.6-.7 3.93-1.1l1.58-.44a57.16 57.16 0 016.56-1.57c3.9-.67 7.55-.56 10.55 1.4v-8.97a41.32 41.32 0 00-10.55 4.27 38.3 38.3 0 00-3.05 2.05 5.84 5.84 0 01-5.12 1.46l-.74-.08c-2.53-.24-2.25-1.98.24-3.88.73-.55 1.24-.82 1.95-1.2l.16-.07A26.27 26.27 0 0131.45 23c2.15-.48 4.25-.7 6.34-.92 1.4-.15 2.8-.3 4.21-.52v-5.52c0-1.12-.92-2.05-2.03-2.05z" fill="#fff"/></svg>