<!-- by TradingView --><svg width="56" height="56" viewBox="0 0 56 56" xmlns="http://www.w3.org/2000/svg"><path fill="#F0F3FA" d="M0 0h56v56H0z"/><path d="M27.9 14.13a.86.86 0 0 0-.02-.94l-.24-.4a4.02 4.02 0 0 1-.23-2.9c.33-1 1.8-1.2 2.57-.39.21.23.35.58.4 1.03.06.66 0 1.27-.2 1.84a4.54 4.54 0 0 0-.3 1.21c.02.39.19.72.49 1 .14.14.46.3.94.48 1.38.5 2.03 1.52 1.97 3.07 0 .06.01.12.04.17.41.74.62 1.32.6 1.74 0 .36 0 .72.02 1.08 0 .07.03.14.07.2.67.95 1.06 1.56 1.15 1.83.26.77.66 1.68 1.2 2.72a7.53 7.53 0 0 1 .6 3.92.06.06 0 0 1-.05 0h-.07l-.02-.02-.17-.57c-.02-.08-.09-.12-.19-.13l-.71-.05c-.35-.02-.38-.11-.07-.26.09-.05.2-.13.3-.26a.2.2 0 0 0 .04-.2c-.18-.51-.2-1-.1-1.46a.49.49 0 0 0-.12-.47 14.97 14.97 0 0 1-3.66-6.02.12.12 0 0 0-.11-.08c-.08-.01-.13.02-.14.1l-.35 2.4c-.01.06 0 .11.03.17a7.16 7.16 0 0 1 1.31 4.04c.02 2.24-.3 4.54-.96 6.91a.37.37 0 0 0 0 .22c.11.34.13.67.05 1-.08.35-.12.67-.1.95.08 1.78-.13 3.62-.63 5.52-.06.23-.07.52-.02.86.03.2.16.44.4.73a4.22 4.22 0 0 1 .8 1.51c-.11.64-.37.7-.79.17-.35-.45-.84-.89-1.47-1.3a.4.4 0 0 1-.14-.17.39.39 0 0 1-.03-.21c.3-2.09.26-4.14-.11-6.17a4.7 4.7 0 0 1 .23-1.53c.08-.3.07-.6 0-.9-.6-2.26-.87-4.56-.82-6.91 0-.06-.03-.09-.08-.1h-.07c-.1-.02-.16.03-.17.13a15.9 15.9 0 0 1-1.6 5.56c-.2.39-.31.79-.36 1.21l-.16 1.24c-.06.36-.05.77.01 1.23.2 1.36.06 2.76-.4 4.18-.08.27-.16 1-.25 2.22-.03.47.1.73.18 1.15.02.08 0 .17-.03.26a.66.66 0 0 1-.17.24l-2.07 1.83c-.3.27-.56.25-.77-.04v-.02c-.25-.37-.23-.7.03-.99l1.43-1.6a.95.95 0 0 0 .24-.7c-.07-.65-.2-1.6-.38-2.87-.18-1.28-.15-2.74.1-4.4.04-.3.03-.61-.02-.96-.06-.39-.04-.76.05-1.13.1-.45.16-.8.15-1.05l-.04-1.46c-.06-1.7.22-3.47.81-5.28.16-.49.24-.92.24-1.3 0-.62.07-1.23.23-1.82a.56.56 0 0 0-.05-.4 6.29 6.29 0 0 1-.7-3.56c.01-.2-.04-.33-.17-.4a.18.18 0 0 0-.24.1 14.72 14.72 0 0 1-5.1 6.92c-.28.23-.48.45-.59.67-.4.78-.84 1.4-1.65 1.89-.18.1-.32.15-.42.11a.38.38 0 0 1-.26-.28c-.03-.1 0-.22.08-.34a15.01 15.01 0 0 0 .6-1.12c0-.03-.02-.06-.03-.08a.2.2 0 0 0-.06-.07.2.2 0 0 0-.09-.03l-.36-.05c-.14-.02-.15-.07-.05-.15.52-.4 1.05-.6 1.6-.6a.3.3 0 0 0 .2-.09 6.46 6.46 0 0 0 1.2-1.41 10.13 10.13 0 0 1 2.16-3.12c.1-.13.18-.37.21-.72.1-.89.41-1.66.98-2.32a.39.39 0 0 0 .08-.18c.2-.96.53-1.65 1.02-2.1a6.07 6.07 0 0 1 2.95-1.32c.12-.02.25-.16.4-.4Z" fill="#004EA2"/></svg>