<!-- by TradingView --><svg width="56" height="56" viewBox="0 0 56 56" xmlns="http://www.w3.org/2000/svg"><path fill="#FFDC02" d="M0 0h56v56H0z"/><path d="M10.41 20.36 40.57 14 48 25.38l-2.5 5.43.51 7.19-13.2-.57L29.69 40l-3.38-2.71L23.54 45l-3.01-6.5-8.7.5L8 28.07l2.41-7.7Z" fill="#fff"/><path d="m40 15-29 6-2 7 3.41 10.05 8.59-.41L23.44 43 26 36l3.68 3 2.8-2.4L45 37l-.34-6.34L47 25.5 40 15Z" fill="#3B3C4E"/><path d="M38 21.4V18l-2.36.53 1 1.7-.8 1.17H32V23h2.63c0 4.17-.61 6.63-.91 7.45L32 31.3l2.22 1.7c1.86-1.79 2.26-7.34 2.22-10H38v9h-1.35l-.2 1h3.13V23H42l-.6-1.6H38Z" fill="#FFDC02"/><path d="M42 25h-2l.8 5 3.2-.2-1.73-2.1L42 25ZM27.82 25.5l-.22-1.39a9.28 9.28 0 0 1 3.4.1v8.8c1.28.49 4.4.46 5.7.49h4.38L43 32.38v2.52l-3.2.1h-4.93c-2.48 0-4.02-.72-4.49-1.07L28.68 36 26 33.93l2.14-.3 1.36-1.04V25.5h-1.68ZM31 23v-3l-3 .7 1.38 1.2-.8 1.1H31Z" fill="#FFDC02"/><path d="m34 25-1.9.19.66 1.11L32 29h1.62l.38-4ZM12.4 23l-.4 1.9 3.25-.9H17v5h-1.45l.2-4-2.43.7 1.11.5V28l-.8 2.1 3.85.2-.2 4.4h-1.63l-.3 1.3H19v-7h-.5l.2-6h-6.3Z" fill="#FFDC02"/><path d="m17 32.67-.3-1.34-2.4.78L12 31l1 3 4-1.33ZM20 24h2.55l.75-1.26-1.83-.52L25 21.4v2.82l.77-.21H27v6l-5.53-.52A19.1 19.1 0 0 1 20.03 36L19 35.69l.2-.96c.32-1.5.8-3.76.8-5.63V24Zm6 1.5h-4.5V28H26v-2.5Z" fill="#FFDC02"/></svg>