<!-- by TradingView --><svg width="56" height="56" viewBox="0 0 56 56" xmlns="http://www.w3.org/2000/svg"><path fill="#F0F3FA" d="M0 0h56v56H0z"/><path d="M37.58 13.94a17.05 17.05 0 0 0-21.03 1.5l-.53.52a18.35 18.35 0 0 1 6.66 3.4 17.15 17.15 0 0 1 5.7 8.76c0 .04.02.05.05.02a12.57 12.57 0 0 0 3.46-5.4 7.88 7.88 0 0 0 .23-3.53 5 5 0 0 0-2.14-3.31c-2.55-1.69-6.07-1.14-8.64.14a11.82 11.82 0 0 0-1.83 1.05v-.02a15 15 0 0 1 1.88-1.43c.89-.57 1.82-1.03 2.82-1.39a8.98 8.98 0 0 1 6.42-.05 5.49 5.49 0 0 1 2.98 3.53l.2 1.28a8.3 8.3 0 0 1-.59 3.22 12.83 12.83 0 0 1-3.32 4.72l.03.01c1.9-1.35 4-2.14 6.33-2.36 3.4-.33 6.64.88 8.7 3.64l.03-.01v-.03a16.88 16.88 0 0 0-2.62-9.3l-1-1.42-1.5-1.67c-.71-.69-1.48-1.31-2.29-1.87Z" fill="url(#a)"/><path d="M28.88 30.92a17.76 17.76 0 0 0-.46-2.7l.01-.02a12.82 12.82 0 0 1 7.05-2.25 9.9 9.9 0 0 1 3.57.6 8.54 8.54 0 0 1 4.81 4.12l.6 1.46a.54.54 0 0 1 0 .08 17.04 17.04 0 0 1-20.3 12.35c-.1-.01-.13-.08-.13-.18.04.04.09.04.13 0a16.78 16.78 0 0 0 4.67-9.82c.14-1.2.16-2.42.05-3.64Z" fill="url(#b)"/><path d="M14.57 17.7c.07.06.04.16-.07.32l-.8 1.88-.58 1.9-.14.6-.24 1.3-.1.92a17.5 17.5 0 0 0-.1 2.45c.11 1.48.27 2.93.66 4.38l.04.17.59 1.75.98 2.15.85 1.44c.47.7.98 1.38 1.54 2.04l.25.26a19 19 0 0 0 6.23 4.61c-.27.14-.6.2-.96.16a16.85 16.85 0 0 1-9.78-8.27 16.94 16.94 0 0 1-1.36-12.26l.6-1.8c.46-1.2 1.05-2.32 1.77-3.37.16-.22.33-.38.53-.54l.09-.08Z" fill="url(#c)"/><path d="M20.4 19.96a17.53 17.53 0 0 1 4.34 4.63 16.58 16.58 0 0 1 2.34 5.87 16.88 16.88 0 0 1-2.63 12.8c-.21.3-.47.5-.77.61a19 19 0 0 1-6.23-4.6L17.2 39a20.62 20.62 0 0 1-1.54-2.04l-.85-1.44-.98-2.15-.59-1.75-.04-.17c-.25-.94-.43-1.9-.54-2.86l-.11-1.52c-.03-.82 0-1.64.08-2.45l.1-.93.25-1.3.14-.6.58-1.89.8-1.88.13-.32c2.12.04 4.1 1.04 5.77 2.26Zm-3.17 13.33a7.67 7.67 0 0 0 3.5 3.3c.1.05.11.03.03-.05a12.93 12.93 0 0 1-1.99-2.96 17.2 17.2 0 0 1-1.69-5.46 12.1 12.1 0 0 1-.06-3.03c.01-.12 0-.12-.07-.02-.36.63-.61 1.3-.76 2.02a9.53 9.53 0 0 0 1.04 6.2Zm1.81-2.8c.98.42 1.95.4 2.9-.05a3.4 3.4 0 0 0 1.67-1.97c.02-.06 0-.06-.04-.02a5.96 5.96 0 0 1-5 1.7c-.05 0-.05.01-.01.04l.48.3Z" fill="url(#d)"/><defs><linearGradient id="a" x1="30.51" y1="11" x2="30.51" y2="45" gradientUnits="userSpaceOnUse"><stop stop-color="#F19F4D"/><stop offset=".63" stop-color="#DD3335"/></linearGradient><linearGradient id="b" x1="30.51" y1="11" x2="30.51" y2="45" gradientUnits="userSpaceOnUse"><stop stop-color="#F19F4D"/><stop offset=".63" stop-color="#DD3335"/><stop offset="1" stop-color="#BB3338"/></linearGradient><linearGradient id="c" x1="17.34" y1="17.71" x2="17.34" y2="44.04" gradientUnits="userSpaceOnUse"><stop stop-color="#EE8945"/><stop offset=".56" stop-color="#DD3335"/><stop offset="1" stop-color="#BC3338"/></linearGradient><linearGradient id="d" x1="15.03" y1="17.7" x2="24.11" y2="42.37" gradientUnits="userSpaceOnUse"><stop stop-color="#F0F7FC"/><stop offset=".56" stop-color="#388BC9"/><stop offset="1" stop-color="#2B5DAA"/></linearGradient></defs></svg>