<!-- by TradingView --><svg width="56" height="56" viewBox="0 0 56 56" xmlns="http://www.w3.org/2000/svg"><path fill="#F0F3FA" d="M0 0h56v56H0z"/><path d="M25.93 20.66c-.14.16-.12.2.07.1a23.74 23.74 0 0 1 9.27-2.49c1.1-.06 2.24.05 3.4.34a6.12 6.12 0 0 1 4.08 3.2c.02.02.01.04-.01.06l-.04.04-.02-.01a6.27 6.27 0 0 0-2.94-2.14c-1.47-.51-3-.68-4.6-.51a17.68 17.68 0 0 0-12.16 6.46.14.14 0 0 1-.22-.02l-2.34-3.86c-.29-.48-.72-.76-1.28-.85l-.54-.07c-.52-.08-.65.11-.38.57l8.75 14.46c.08.14.06.25-.07.34-1.46 1.03-3 1.68-4.6 1.94-1.6.27-3.14.12-4.62-.45a10.5 10.5 0 0 1-3.85-2.66c-.39-.4-.64-.77-.76-1.1a17.64 17.64 0 0 1-.95-4.13c-.17-1.5-.16-2.95.02-4.32a15.59 15.59 0 0 1 5.54-9.91 15.86 15.86 0 0 1 10.9-3.63c2.49.12 4.8.78 6.97 1.97a18.23 18.23 0 0 1 5.47 4.74c.03.04.03.07-.02.1l-.05.03h-.04a4.52 4.52 0 0 0-2.12-1.25c-1.71-.45-3.85-.36-6.4.27a22.08 22.08 0 0 0-6.14 2.5c-.1.06-.2.16-.32.28Z" fill="#F07F2F"/><path d="M32 43.28c1.09-.63 1.98-1.3 2.68-2.03a13.46 13.46 0 0 0 3.89-8.28c.26-2.7-.31-5-1.71-6.9a8.53 8.53 0 0 0-6.23-3.42c-.08-.01-.13-.04-.16-.08a.14.14 0 0 1-.02-.07c0-.07.03-.12.1-.15a19.4 19.4 0 0 1 5.3-1.32c.62-.06 1.3-.05 2.03.02a6.26 6.26 0 0 1 5.42 3.84c.54 1.18.77 2.48.68 3.89a15.89 15.89 0 0 1-2.83 8.36 15.97 15.97 0 0 1-9.05 6.37c-.64.18-.68.1-.1-.23Z" fill="#DAB778"/><path d="M14.42 36.52a8.19 8.19 0 0 0 5.64 2.88c2.25.2 4.52-.14 6.79-1.06a16.87 16.87 0 0 0 5.7-3.78 10.68 10.68 0 0 0 3.14-5.71c.01-.06.04-.1.1-.1.06-.02.1 0 .14.04.54.79.83 1.81.86 3.09.03 1-.1 2.08-.4 3.25a17.38 17.38 0 0 1-2.05 5 10.1 10.1 0 0 1-1.97 2.37 5.28 5.28 0 0 1-2.68 1.35c-2.44.35-4.88.09-7.33-.8a16.34 16.34 0 0 1-6.17-3.98c-.4-.4-.72-.79-.99-1.15a30.63 30.63 0 0 1-.93-1.38l.05-.03c.04-.02.08-.02.1.01Z" fill="#196692"/></svg>