<!-- by TradingView --><svg width="56" height="56" viewBox="0 0 56 56" xmlns="http://www.w3.org/2000/svg"><path fill="#F0F3FA" d="M0 0h56v56H0z"/><path d="M13.7 28.33c0-.01 0-.02-.02-.02h-3c-.02 0-.03 0-.03-.02v-1.84c0-.02 0-.03.02-.03h5.28c.02 0 .03.01.03.03a5.3 5.3 0 0 1-1.46 4.04 5.12 5.12 0 0 1-4.19 1.5 5.97 5.97 0 0 1-2.31-.58 5.05 5.05 0 0 1-1.83-1.48 5.6 5.6 0 0 1-1.18-3.89 5.44 5.44 0 0 1 5.23-5.03c.67-.04 1.33.01 1.98.16A5.43 5.43 0 0 1 15.23 23l-1.38 1.36c-.02.02-.03.02-.04 0a4.6 4.6 0 0 0-1.79-1.17 4.05 4.05 0 0 0-2.13-.15A3.5 3.5 0 0 0 8.08 29c.7.7 1.57 1.06 2.58 1.09.7.02 1.3-.1 1.81-.39.54-.3.94-.75 1.22-1.36ZM36.99 32h-1.97c-.01 0-.02 0-.02-.02V21.02c0-.01 0-.02.02-.02H37l.01.02v6.23l.02.02h.02l3-3.21V24h2.53l.02.06v.02l-3.46 3.77v.03l3.86 4.08V32h-2.51l-3.44-3.58h-.02s-.02 0-.02.02v3.55l-.01.02ZM29.76 24c.8-.04 1.55.17 2.22.62a4.68 4.68 0 0 1 1.52 1.8l-5.02 3.13c-.02.02-.03.04 0 .06.43.46.93.7 1.49.69.53-.01 1.03-.23 1.52-.65.38-.33.64-.75.77-1.28 0-.02.02-.03.04-.03l1.68-.2c.02 0 .02 0 .02.02a3.54 3.54 0 0 1-1.14 2.53c-.43.4-.9.72-1.4.95a3.61 3.61 0 0 1-3.68-.3 4.17 4.17 0 0 1-1.38-1.67 3.98 3.98 0 0 1-.36-2.32c.12-.8.46-1.5 1.02-2.07a4.27 4.27 0 0 1 2.7-1.27Zm.5 1.68c-.3-.06-.6-.05-.9.03-.29.08-.56.21-.81.4-.25.2-.46.45-.62.73-.2.35-.26.8-.2 1.38 0 .02.02.03.04.01l3.35-2.1c.02 0 .02-.02 0-.04a1.96 1.96 0 0 0-.86-.41ZM20.97 24c.82 0 1.55.24 2.2.73a4.7 4.7 0 0 1 1.42 1.88l-5.2 2.86c-.01.02-.02.04 0 .06.41.49.9.74 1.46.77.53.02 1.05-.17 1.56-.56.4-.3.67-.72.84-1.24 0-.02.02-.03.04-.03l1.7-.1.01.01a3.55 3.55 0 0 1-1.28 2.46c-.45.39-.93.68-1.45.88a3.62 3.62 0 0 1-3.67-.5 4.18 4.18 0 0 1-1.28-1.75 3.98 3.98 0 0 1-.24-2.33c.16-.8.53-1.47 1.12-2.02A4.27 4.27 0 0 1 20.97 24Zm.42 1.7c-.3-.07-.6-.08-.9-.02a2.42 2.42 0 0 0-1.5 1.05c-.2.34-.3.79-.26 1.36 0 .03.01.03.03.02l3.46-1.9c.03-.02.03-.03 0-.05a1.97 1.97 0 0 0-.83-.46ZM48.68 26.25H46.26V24.2a1.16 1.16 0 0 1 1-1.2c.28-.04.55 0 .79.13.26.14.45.35.56.65.05.13.07.38.07.76v1.7Z" fill="#018BD4"/><path d="M46.26 26.24h.03l-.03.05a920.86 920.86 0 0 0 0 2.37l.03.04-.03.01a1064.9 1064.9 0 0 1-1.95-.02c-.53 0-.93-.23-1.18-.68a1.07 1.07 0 0 1-.13-.53c0-.2.04-.4.13-.55.16-.28.39-.49.69-.6.14-.06.42-.08.84-.08h1.6Z" fill="#70B92C"/><path d="M48.65 26.25a.9.9 0 0 1 .03.19 655.1 655.1 0 0 1 .02 2.26l-.02.02-2.4-.02-.02-.04V26.3c0-.01 0-.03.03-.04h2.36Z" fill="#F6AA00"/><path d="m48.68 26.25 2-.02c.37 0 .7.12.97.38.13.13.23.29.3.5.05.2.07.4.03.58-.1.48-.37.8-.84.95-.13.04-.32.06-.58.06H48.7v-.13l-.02-2.13-.03-.2h.03Z" fill="#FEE101"/><path d="M48.68 28.72v1.68c0 .43-.02.7-.07.83a1.2 1.2 0 0 1-1.13.77 1.22 1.22 0 0 1-1.14-.77c-.06-.13-.08-.4-.08-.8v-1.72h2.42Z" fill="#E93A0F"/></svg>