<!-- by TradingView --><svg width="56" height="56" viewBox="0 0 56 56" xmlns="http://www.w3.org/2000/svg"><path fill="#F0F3FA" d="M0 0h56v56H0z"/><path fill-rule="evenodd" d="M39.61 27.31a18.1 18.1 0 0 0-7.7-1.63c-.32 0-.34-.08-.07-.23l3.67-2.1c.14-.09.14-.16 0-.24l-7-3.6a.3.3 0 0 0-.28 0l-7.9 3.8c-.17.08-.17.16.01.23l7.35 3.04c.6.25 1.13.39 1.6.4 4.45.2 7.44 1.4 8.94 3.6.45.64.72 1.56.8 2.77.05.75-.15 1.42-.62 2.02-1.23 1.58-3.09 2.71-5.59 3.39a19.3 19.3 0 0 1-10.51 0 9.95 9.95 0 0 1-4.17-2.3 6.05 6.05 0 0 1-1.9-3.33c-.03-.1-.08-.13-.18-.13h-4.9c-.12 0-.17.03-.16.15.18 1.79 1 3.06 2.46 4.15 1.36 1 2.91 1.78 4.66 2.3a32.11 32.11 0 0 0 16.39.62c4.9-1.05 8.02-2.95 9.36-5.69.71-1.46.53-2.91-.54-4.36a9.5 9.5 0 0 0-3.72-2.86Zm-8.68-4.22-3.05-1.56a.1.1 0 0 0-.1 0l-2.83 1.64c-.1.06-.1.12 0 .17L28 24.9c.03.02.06.01.1 0l2.83-1.64c.1-.06.1-.12 0-.17Z" fill="#0164B2"/><path fill-rule="evenodd" d="M16.38 28.72a18.13 18.13 0 0 0 7.72 1.62c.31 0 .34.08.07.23l-3.67 2.11c-.14.09-.14.17 0 .24l7 3.58c.1.05.2.05.3 0l7.88-3.8c.18-.1.18-.17 0-.25l-7.36-3.02a4.73 4.73 0 0 0-1.6-.4c-4.46-.18-7.45-1.37-8.96-3.57a5.63 5.63 0 0 1-.8-2.78c-.06-.74.14-1.42.6-2.02 1.23-1.59 3.1-2.72 5.6-3.4 3.63-.99 7.13-1 10.5-.03a10 10 0 0 1 4.19 2.29c.97.9 1.6 1.91 1.91 3.33.02.1.08.15.17.15h4.91c.12 0 .17-.07.16-.18a5.58 5.58 0 0 0-2.48-4.15c-1.36-1-2.91-1.77-4.66-2.3a32.12 32.12 0 0 0-16.4-.58c-4.9 1.07-8.02 2.98-9.35 5.72-.71 1.47-.53 2.92.55 4.36a9.53 9.53 0 0 0 3.72 2.85Zm11.54 2.43-2.83 1.63c-.1.06-.1.12 0 .18l3.02 1.54a.1.1 0 0 0 .1 0l2.83-1.63c.1-.07.1-.13-.01-.18l-3.02-1.54a.1.1 0 0 0-.1 0Z" fill="#00A24F"/></svg>