<!-- by TradingView --><svg width="56" height="56" viewBox="0 0 56 56" xmlns="http://www.w3.org/2000/svg"><path fill="#181B1E" d="M0 0h56v56H0z"/><path d="M39 30.93V33h-1v-1.46l-.01-.36c-.02-.3-.19-.42-.48-.42-.2 0-.36.09-.51.17V33h-1v-3h1v.4c.34-.25.6-.4.98-.4.4 0 .73.17.9.5.4-.3.75-.5 1.11-.5.66 0 1.01.4 1.01 1.1V33h-1v-1.46c0-.38 0-.78-.48-.78-.17 0-.3.05-.52.17ZM35 24.93V27h-1v-1.46l-.01-.36c-.02-.3-.19-.42-.48-.42-.2 0-.36.09-.51.17V27h-1v-3h1v.4c.34-.25.6-.4.98-.4.4 0 .73.17.9.5.4-.3.75-.5 1.11-.5.66 0 1.01.4 1.01 1.1V27h-1v-1.46c0-.38 0-.78-.48-.78-.17 0-.3.05-.52.17ZM31 29.5h-1V29h1v.5ZM30 33h1v-3h-1v3ZM39 23.5h-1V23h1v.5ZM38 27h1v-3h-1v3ZM28 32.18v-.59l-.38.04c-.25.03-.61.07-.61.4 0 .3.22.35.48.35a.8.8 0 0 0 .51-.2Zm0 .44c-.32.23-.6.38-1 .38-.5 0-1-.34-1-.9 0-.68.65-.9 1.23-.97.26-.04.5-.06.78-.07 0-.32-.24-.43-.76-.43-.3 0-.62.1-.9.2h-.09v-.69c.39-.1.8-.14 1.19-.14 1.1 0 1.55.3 1.55.99V33h-1v-.38ZM23 26.18v-.59l-.38.04c-.25.03-.61.07-.61.4 0 .3.22.35.48.35a.8.8 0 0 0 .51-.2Zm0 .44c-.32.23-.6.38-1 .38-.5 0-1-.34-1-.9 0-.68.65-.9 1.23-.97.26-.04.5-.06.78-.07 0-.32-.24-.43-.76-.43-.3 0-.62.1-.9.2h-.09v-.69c.39-.1.8-.14 1.19-.14 1.1 0 1.55.3 1.55.99V27h-1v-.38ZM22 30.92c-.16 0-.31-.04-.47-.04-.25 0-.3.03-.53.12v2h-1v-2.99h1v.44c.4-.36.55-.45.8-.45l.2.01v.91ZM20 24.92c-.16 0-.31-.04-.47-.04-.25 0-.3.03-.53.12v2h-1v-2.99h1v.44c.4-.36.55-.45.8-.45l.2.01v.91ZM19 31.67h-2c.03.45.26.7.86.7.34 0 .77-.16 1.04-.37h.1v.73c-.41.16-.8.27-1.24.27-1.14 0-1.76-.53-1.76-1.48 0-.94.7-1.52 1.61-1.52.92 0 1.39.48 1.39 1.36v.31Zm-1-.53c-.01-.38-.09-.57-.46-.57-.35 0-.51.17-.54.57h1ZM45 31.67h-2c.03.45.26.7.86.7.34 0 .77-.16 1.04-.37h.1v.73c-.41.16-.8.27-1.24.27-1.14 0-1.76-.53-1.76-1.48 0-.94.7-1.52 1.61-1.52.92 0 1.39.48 1.39 1.36v.31Zm-1-.53c-.01-.38-.09-.57-.46-.57-.35 0-.51.17-.54.57h1ZM15 32.91c-.18.06-.57.09-.87.09-.66 0-1.13-.27-1.13-1.03v-1.3h-.35V30H13v-1h1v1h1v.67h-1v1.24c0 .26.13.42.4.42.1 0 .47-.06.53-.1H15v.68ZM25 32.91c-.18.06-.57.09-.87.09-.66 0-1.13-.27-1.13-1.03v-1.3h-.35V30H23v-1h1v1h1v.67h-1v1.24c0 .26.13.42.4.42.1 0 .47-.06.53-.1H25v.68ZM42 26.91c-.18.06-.57.09-.87.09-.66 0-1.13-.27-1.13-1.03v-1.3h-.35V24H40v-1h1v1h1v.67h-1v1.24c0 .26.13.42.4.42.1 0 .47-.06.53-.1H42v.68ZM52 32.91c-.18.06-.57.09-.87.09-.66 0-1.13-.27-1.13-1.03v-1.3h-.35V30H50v-1h1v1h1v.67h-1v1.24c0 .26.13.42.4.42.1 0 .47-.06.53-.1H52v.68ZM12 33h-1v-1.45c0-.41.01-.8-.49-.8-.17 0-.3.06-.51.18V33H9v-3h1v.4c.34-.26.59-.4.97-.4.65 0 1.03.37 1.03 1.1V33ZM35 33h-1v-1.45c0-.41.01-.8-.49-.8-.17 0-.3.06-.51.18V33h-1v-3h1v.4c.34-.26.59-.4.97-.4.65 0 1.03.37 1.03 1.1V33ZM28 27h-1v-1.45c0-.41.01-.8-.49-.8-.17 0-.3.06-.51.18V27h-1v-3h1v.4c.34-.26.59-.4.97-.4.65 0 1.03.37 1.03 1.1V27ZM49 33h-1v-1.45c0-.41.01-.8-.49-.8-.17 0-.3.06-.51.18V33h-1v-3h1v.4c.34-.26.59-.4.97-.4.65 0 1.03.37 1.03 1.1V33ZM8 33H5v-4h3v.77H6v.7h1.86v.77H6v.99h2V33ZM17.5 23.77H16V27h-1v-3.23h-1.5V23h4v.77ZM31 26.02c0 .63-.52.98-1.1.98-.39 0-.71-.11-.9-.23v-.75h.06c.23.22.52.37.84.37.27 0 .4-.08.4-.23 0-.14-.06-.19-.27-.24a2.2 2.2 0 0 0-.21-.05 1.9 1.9 0 0 1-.24-.07c-.39-.13-.58-.42-.58-.85 0-.6.53-.95 1.1-.95.32 0 .64.1.8.2v.72h-.06c-.2-.18-.47-.31-.74-.31-.22 0-.39.08-.39.23 0 .14.04.19.3.26a7.55 7.55 0 0 0 .46.12c.36.13.53.4.53.8Z" fill="#fff"/></svg>