<!-- by TradingView --><svg width="56" height="56" viewBox="0 0 56 56" xmlns="http://www.w3.org/2000/svg"><path fill="#F0F3FA" d="M0 0h56v56H0z"/><path fill="#395723" d="M14 39h30v3H14zM26.36 29 22 38h12c-3.5-.9-6.55-6.38-7.64-9Z"/><path d="M29.2 23 27 28.36c.55 1.07 1.86 3.95 3.86 5.89 2.2 2.14 5.15 3.4 6.62 3.75H43c-2.02-.54-6.95-2.25-10.48-4.82-3.53-2.57-3.68-7.86-3.31-10.18ZM15 33.71c3.86 0 5.18 2.2 5.36 3.29L30 17.83A6.92 6.92 0 0 1 23.57 14L15 33.71ZM31.83 15.08c-.58 1.07-2.55 1.23-4.4.36-1.84-.88-2.85-2.45-2.26-3.52.58-1.07 2.55-1.23 4.4-.36 1.84.88 2.85 2.45 2.26 3.52Z" fill="#395723"/></svg>