<!-- by TradingView --><svg width="56" height="56" viewBox="0 0 56 56" xmlns="http://www.w3.org/2000/svg"><path fill="#F0F3FA" d="M0 0h56v56H0z"/><path d="M42 32.52c0 4.78-7.33 5.63-11 5.46 1.96-5.58 5.32-16.74 6.5-16.74 1.18 0 3.78-2.16 4.5-3.24v14.52Z" fill="#78B82E"/><path d="M28 32.51 20.29 32 20 42.66l8 .34V32.51Z" fill="#FFD400"/><path d="M23 34.26 20.49 34c-2.16.43-6.49 2.17-6.49 5.67s6 5.01 9 5.33V34.26Z" fill="#F5A300"/><path fill="#008CD3" d="M23 16h8v13h-8z"/><path d="M31 11v5c3.8.25 6.25 3.27 7 4.5v-4.18A9.68 9.68 0 0 0 31 11Z" fill="#55C0F6"/><path d="M31 38v-9.5c2.7-1.84 5.8 1.78 7 3.82v.8c0 3.83-4.67 4.85-7 4.88Z" fill="#0059A7"/><path d="M21 36.09V26.02c-4.22-.27-6.42 2.16-7 3.41V39c.65-2.2 4.94-2.86 7-2.91Z" fill="#EC6500"/><path d="M31 16v13.1c3.8.29 6.25 2.57 7 3.9V20.34c-1.74-4.04-5.4-4.1-7-4.34Z" fill="#03A7ED"/></svg>