<!-- by TradingView --><svg width="56" height="56" viewBox="0 0 56 56" xmlns="http://www.w3.org/2000/svg"><path fill="#F0F3FA" d="M0 0h56v56H0z"/><path fill-rule="evenodd" d="M5.93 27.65h2.2c.07 0 .12.04.15.11l.5 1.48a.3.3 0 0 1-.01.25c-.11.2-.3.3-.58.32-.04 0-.06.03-.06.07v.1c0 .01 0 .02.02.02h2.39c.02 0 .04-.01.05-.04a.08.08 0 0 0 0-.06.08.08 0 0 0-.05-.07c-.3-.08-.53-.23-.69-.45a3.59 3.59 0 0 1-.4-.87 867.3 867.3 0 0 1-1.99-5.28c-.11-.3-.23-.3-.34 0L4.86 29c-.18.47-.46.74-.82.82-.02 0-.03.02-.04.04v.06c.02.04.06.07.12.07h1.8l.02-.02.02-.06c.01-.02 0-.04-.01-.04l-.53-.24c-.2-.1-.26-.25-.18-.48l.53-1.4c.03-.07.08-.1.16-.1Zm1.02-2.88L6 27.17c-.04.1 0 .14.08.14h1.9c.08 0 .11-.04.08-.13l-.94-2.41c-.02-.04-.04-.06-.08-.06s-.07.02-.09.06Zm8.74-.88c.24 0 .43-.2.43-.45 0-.24-.2-.44-.43-.44-.24 0-.43.2-.43.44 0 .25.2.45.43.45Zm-2.11 2.14-.16.09a.25.25 0 0 1-.2.02c-.95-.28-1.6-.14-1.93.44a1 1 0 0 0-.12.72c.06.28.2.48.43.6.2.1.65.33 1.33.7.39.22.5.48.37.8-.14.33-.42.46-.83.38-.5-.09-.86-.37-1.06-.84-.15-.35-.22-.33-.23.06l-.01.86c0 .06.03.1.1.08.22-.03.51-.02.88.03.64.1 1.16-.04 1.55-.39a.91.91 0 0 0 .3-.63.96.96 0 0 0-.2-.67c-.15-.2-.57-.46-1.25-.76-.27-.12-.46-.2-.55-.26-.28-.16-.38-.36-.3-.6.08-.25.27-.4.59-.45a.9.9 0 0 1 .8.25c.22.2.35.44.4.74.02.04.04.07.08.08l.06.03c.05.01.07 0 .07-.05V26.1c0-.09-.04-.1-.12-.07Zm1.5.55h-.3c-.33-.02-.34-.08-.04-.18l1.12-.39c.09-.03.14 0 .14.08v2.98c0 .27.03.46.09.55.08.14.26.23.55.26h.01v.06c0 .04-.02.06-.06.06h-1.92c-.02 0-.03 0-.04-.03l-.03-.06c-.01-.03 0-.05.03-.05.2 0 .35-.06.47-.16.1-.08.14-.2.15-.37.03-.85.01-1.73-.04-2.61 0-.09-.05-.13-.14-.14Zm14.76 3.3-.32-.23c-.07-.04-.08-.1-.03-.16l.93-1.14c.08-.1.15-.1.21 0l.74 1.18c.04.06.04.12-.02.17-.06.06-.16.11-.3.17a.06.06 0 0 0-.03.02.1.1 0 0 0-.01.05c0 .04.02.06.07.06h1.87c.01 0 .03 0 .04-.02l.01-.05c0-.02 0-.04-.03-.05a1.4 1.4 0 0 1-.74-.49 72.6 72.6 0 0 1-1.2-1.65c-.05-.07-.05-.13 0-.2l.87-1.06c.04-.05.09-.1.15-.12l.44-.24c.14-.07.13-.11-.04-.11h-1.19c-.17 0-.19.05-.05.15l.21.14c.08.05.1.12.03.19l-.64.8c-.05.05-.1.05-.13-.02l-.5-.79a.15.15 0 0 1 .01-.19c.05-.06.11-.1.19-.13.25-.1.24-.16-.02-.16H28.6c-.04 0-.06.02-.07.05l.01.06c.01.02.04.04.08.05.25.05.4.11.46.19l1.2 1.55c.02.04.02.08-.01.12l-1.2 1.48a1.83 1.83 0 0 1-.48.36c-.13.08-.12.13.05.13h1.16c.13 0 .15-.04.04-.11Zm9.9-3.3c.03.2.1.21.2.03.15-.3.39-.48.73-.58.37-.1.6.03.7.38a.3.3 0 0 1-.08.32c-.09.1-.2.13-.33.11-.14-.02-.31-.1-.5-.23-.08-.06-.15-.06-.22 0-.15.13-.27.26-.37.4a.96.96 0 0 0-.12.5c-.02.7-.03 1.26-.01 1.68 0 .39.24.61.7.68.03 0 .04.02.04.05v.06c0 .01 0 .02-.02.02H38.4a.08.08 0 0 1-.08-.1s.01-.02.03-.02c.22-.04.4-.11.55-.2.05-.05.1-.1.1-.17v-2.45c0-.4-.2-.57-.59-.5-.04.01-.06 0-.08-.03-.02-.02-.02-.04 0-.06 0-.02 0-.03.03-.03l1.2-.43c.06-.01.1 0 .14.02.04.03.06.07.05.11-.02.2-.02.35 0 .44Zm8.03-.46a.25.25 0 0 1-.2.02c-.95-.28-1.6-.13-1.93.44a1 1 0 0 0-.12.72c.06.28.2.48.43.6.2.1.65.33 1.33.7.39.21.5.48.37.8-.14.33-.42.46-.82.38a1.33 1.33 0 0 1-1.07-.84c-.15-.34-.22-.33-.23.06v.86c0 .07.03.1.1.08.21-.03.5-.02.88.03.64.1 1.15-.04 1.54-.4a.92.92 0 0 0 .3-.63.96.96 0 0 0-.2-.67c-.15-.2-.57-.45-1.25-.75-.27-.12-.46-.2-.55-.26-.28-.16-.38-.36-.3-.6.08-.24.27-.4.58-.45a.9.9 0 0 1 .8.25c.22.2.36.44.42.74 0 .04.03.07.07.08l.06.02c.05.02.07 0 .07-.04V26.1c0-.09-.04-.11-.13-.07l-.15.09Zm3.4.02c.08.02.15.01.22-.02l.16-.08c.09-.05.13-.03.13.06v1.16c0 .05-.02.06-.08.05l-.06-.03c-.04-.01-.07-.04-.08-.08a1.3 1.3 0 0 0-.42-.74.97.97 0 0 0-.85-.25c-.32.06-.53.2-.61.44-.09.24.02.45.31.6.1.06.3.15.58.27.72.3 1.15.55 1.32.76.16.2.23.42.2.67a.9.9 0 0 1-.32.63c-.4.35-.95.48-1.62.4-.4-.06-.7-.07-.93-.04-.07.01-.1-.02-.1-.08V29c.01-.39.1-.4.25-.06.2.47.58.75 1.11.84.43.08.72-.05.87-.37.15-.33.02-.6-.38-.8l-1.4-.72a.8.8 0 0 1-.45-.6.96.96 0 0 1 .13-.72c.35-.57 1.03-.71 2.03-.43Zm-25.42 1.4c-.07 0-.1.03-.11.1 0 .4.1.77.35 1.08.25.33.58.52 1 .6.57.09 1.02-.15 1.36-.73.03-.04.06-.06.1-.05 0 0 .03 0 .05.02.02 0 .03.02.03.04-.26.89-.8 1.36-1.61 1.4a1.78 1.78 0 0 1-1.9-1.64c-.06-.51.02-1 .24-1.44.18-.34.44-.59.8-.75.34-.15.72-.2 1.14-.15.41.04.73.2.95.44.25.3.37.63.38 1.02 0 .04-.02.06-.07.06h-2.7Zm.04-.2c-.07 0-.11-.04-.11-.1v-.04c0-.25.09-.46.27-.64a.95.95 0 0 1 .68-.26c.26 0 .48.08.67.26.19.17.28.38.28.63v.04c0 .07-.03.1-.1.1h-1.69Zm16.08.3c0-.07.05-.1.12-.1h2.7c.05 0 .07-.02.07-.06 0-.39-.13-.73-.38-1.02a1.4 1.4 0 0 0-.94-.44c-.43-.05-.8 0-1.15.15-.35.16-.62.41-.8.75-.22.44-.3.93-.23 1.44a1.77 1.77 0 0 0 1.9 1.63c.81-.03 1.35-.5 1.6-1.4 0-.01 0-.02-.02-.03a.25.25 0 0 0-.05-.02c-.04-.01-.08 0-.1.05-.34.58-.8.82-1.36.72a1.55 1.55 0 0 1-1.01-.6 1.66 1.66 0 0 1-.35-1.07Zm.04-.4c0 .06.04.1.12.1l1.67-.01c.08 0 .12-.04.11-.1v-.05c0-.24-.1-.45-.28-.63a.95.95 0 0 0-.67-.25.95.95 0 0 0-.67.26.84.84 0 0 0-.28.64v.03Zm-7.2-.62c0 .12.04.13.12.04.31-.35.64-.56.99-.63.4-.08.75-.01 1.05.2.63.44.86 1.17.7 2.19-.06.43-.24.79-.52 1.08-.3.32-.62.5-1.1.5h-.1c-.39 0-.7 0-1.02-.17-.07-.04-.1-.02-.1.05a16 16 0 0 0 0 1.45c.02.33.23.5.63.53.05 0 .07.02.07.06v.06c0 .01 0 .02-.02.02H33.3c-.04 0-.06-.02-.06-.05v-.06c0-.03.02-.05.06-.05.21 0 .4-.04.53-.14.1-.06.17-.21.17-.44V27a.44.44 0 0 0-.16-.35c-.1-.09-.26-.12-.46-.1-.03 0-.06 0-.07-.03-.02-.05 0-.09.04-.1.22-.08.63-.22 1.22-.4.09-.04.14 0 .14.08v.5Zm2.11 1.58c.01.53-.13.96-.4 1.28-.32.39-.75.44-1.27.17a.78.78 0 0 1-.4-.54 3.15 3.15 0 0 1-.05-.71v-.18a9.96 9.96 0 0 1 .03-.89.78.78 0 0 1 .38-.55c.52-.28.95-.23 1.28.15.28.32.43.74.43 1.27Zm-18.2 1.59.53-.3c.09-.02.13 0 .14.07.03.27.15.42.38.43a1 1 0 0 0 .59-.16c.17-.1.31-.24.4-.39.14-.2.1-.24-.11-.1-.05.04-.13.07-.27.12a.2.2 0 0 1-.17-.03c-.05-.03-.11-.08-.11-.14v-2.37c-.02-.46-.3-.75-.82-.86a2.7 2.7 0 0 0-1.37.07.96.96 0 0 0-.72.82c-.03.15.04.26.2.32l.12.05a.3.3 0 0 0 .23 0 .27.27 0 0 0 .15-.16.95.95 0 0 0 .06-.44c0-.07.02-.13.07-.19.28-.3.6-.36.96-.19.3.14.43.44.39.9 0 .06-.04.1-.1.13-.54.2-.94.36-1.21.49-.47.21-.75.41-.85.6-.21.38-.23.74-.05 1.07.19.35.53.5 1.03.47.14-.01.32-.08.54-.21Zm-.61-1.6a.32.32 0 0 0-.12.1c-.28.43-.26.8.07 1.09.32.28.73.19 1.25-.27a.2.2 0 0 0 .08-.16v-1.07c0-.25-.12-.31-.36-.19l-.92.5ZM22.07 27h1.86c.04 0 .07.04.07.09v.53c0 .05-.03.08-.07.08h-1.86c-.04 0-.07-.04-.07-.08v-.54c0-.04.03-.08.07-.08Z" fill="#0E4575"/></svg>