<!-- by TradingView --><svg width="56" height="56" viewBox="0 0 56 56" xmlns="http://www.w3.org/2000/svg"><path fill="#F0F3FA" d="M0 0h56v56H0z"/><path fill-rule="evenodd" d="M16.01 41.35c3.46.43 7.54-.4 11.43-2.61 3.89-2.22 6.8-5.4 8.38-8.72 1.58-3.31 1.81-6.72.43-9.48-1.37-2.76-4.14-4.45-7.6-4.89-3.45-.43-7.54.4-11.43 2.61a20.53 20.53 0 0 0-8.38 8.72c-1.58 3.31-1.8 6.72-.43 9.48 1.38 2.76 4.15 4.45 7.6 4.89ZM7.97 36.7c2.95 5.92 11.78 7.04 19.71 2.5 7.93-4.53 11.97-13 9.02-18.92-2.96-5.92-11.78-7.04-19.72-2.5-7.93 4.53-11.97 13-9.01 18.92Z"/><path d="M24.63 17.68c-2.4.15-5.02.91-7.54 2.35a17.88 17.88 0 0 0-7.28 7.56c-1.38 2.87-1.58 5.82-.39 8.21 1.2 2.4 3.6 3.85 6.6 4.23 3 .37 6.54-.35 9.92-2.28l.4.79c-3.51 2-7.23 2.77-10.42 2.38-3.18-.4-5.87-1.97-7.23-4.7-1.36-2.72-1.08-5.99.38-9.04a18.74 18.74 0 0 1 7.63-7.94c2.62-1.5 5.35-2.3 7.89-2.45l.04.9Z" fill="#B10A15"/><path d="M31.4 22h4.99l-7.84 13h-5l7.85-13ZM47.1 22H51l-2.03 3H45.3l-6.03 10h-5l6.04-10h-4.8l2.08-3h9.52ZM19.75 22h10.74l-2.03 3h-5.53l-1.2 2h5l-2.02 3h-4.8l-3 5h-5l6.03-10 .04-.07L19.75 22Z" fill="#0000FA"/></svg>