<!-- by TradingView --><svg width="56" height="56" viewBox="0 0 56 56" xmlns="http://www.w3.org/2000/svg"><path fill="#F0F3FA" d="M0 0h56v56H0z"/><path d="m46.9 20.13-.2.12c-.12.06-.12.1.01.1l.4.04c-.96.27-1.87.32-2.72.16a5.65 5.65 0 0 0-2.01-.07.18.18 0 0 0-.16.14c-.03.1 0 .2.07.29.06.06.12.1.2.11.6.1 1.23.33 1.56.82.28.42 0 1.63 0 2.11 0 2.39 0 4.8.03 7.22 0 .72 0 1.2-.03 1.46v.93c0 .62-.33 1.04-.97 1.24-.34.1-.84.16-1.5.15-.44-.01-.76-.12-.98-.35a4.81 4.81 0 0 1-.73-1c-.4-.73-.92-1.55-1.54-2.46a6.7 6.7 0 0 0-.9-1.03c-.4-.38-.72-.75-.97-1.08a.4.4 0 0 1-.06-.38.4.4 0 0 1 .12-.16c.05-.05.1-.08.17-.09 2.76-.56 3.86-2.3 3.3-5.2-.96-2.18-4.47-3.07-6.33-2.67-.59.13-1.16.17-1.71.13-.56-.04-.9-.05-1.05-.05-.35 0-.7-.02-1.04-.06a9.34 9.34 0 0 0-2.36.04c-.5.07-.94.07-1.35.02-1.2-.15-2.04-.22-2.5-.22a.19.19 0 0 0-.18.1c-.05.1-.06.2-.03.31a.2.2 0 0 0 .15.15c.14.04.27.06.39.07.63.07.96.69.84 1.27-.05.24-.23.56-.55.97-.53.68-1.35 1.67-2.43 2.99a17.59 17.59 0 0 1-1.61 1.69.1.1 0 0 1-.06-.01.1.1 0 0 1-.04-.04 2916.48 2916.48 0 0 1-.05-5.45c0-.31.05-.56.15-.74.23-.4.58-.62 1.07-.65.25 0 .43-.03.56-.07a.17.17 0 0 0 .08-.06.18.18 0 0 0 .04-.1v-.28c0-.08-.04-.13-.13-.13-.46-.02-.9-.02-1.32-.02-.19 0-.62.07-1.3.2-.71.13-1.4.08-2.1-.15a6.4 6.4 0 0 0-1.47-.08c-.08 0-.12.04-.12.13v.33c0 .1.04.15.13.16.58.06 1 .22 1.27.46.29.25.43.49.43.7a958.13 958.13 0 0 0-.01 4.87.23.23 0 0 1-.12.12.21.21 0 0 1-.08.02h-5.83a.36.36 0 0 1-.26-.11.38.38 0 0 1-.1-.27v-4.76l.01-.08c.36-.64.88-.94 1.57-.89.2.01.3-.08.3-.28v-.08c-.04-.16-.1-.24-.23-.25a7.24 7.24 0 0 0-2.2.14c-.49.1-.75.01-1.17.07-.09 0-.38-.04-.86-.15a5.84 5.84 0 0 0-1.77-.12c-.14.01-.2.1-.2.24v.08c0 .08.02.16.08.21.05.06.12.1.2.1.49.02.87.18 1.16.47.19.2.29.5.3.95.06 2.19.09 3.63.08 4.33 0 .14-.02.41-.06.81-.03.31-.05.58-.04.81.04 1.63.04 3.46-.01 5.5a.66.66 0 0 1-.25.5c-.41.33-.86.51-1.34.56-.24.02-.33.15-.27.4v.07c0 .04.02.09.05.13.02.04.06.08.1.1.04.03.09.05.14.06l.15-.01c.35-.08.71-.11 1.1-.1.18.01.54-.03 1.07-.13a4.41 4.41 0 0 1 1.87.08.9.9 0 0 0-.47.27l-4.07.14c-.14 0-.21-.07-.21-.21v-.8c0-.17.08-.25.24-.26.49-.02.89-.13 1.2-.33a.9.9 0 0 0 .44-.87c-.06-1.22-.06-4.85 0-10.88.01-.63-.29-1.01-.9-1.15-.36-.08-.6-.12-.7-.12a.25.25 0 0 1-.18-.08.27.27 0 0 1-.07-.19v-.8c0-.17.08-.25.25-.25.61.02 1.5-.03 2.14.09.25.05.53.09.84.13.21.02.5 0 .84-.04.94-.14 1.9-.2 2.87-.15.12 0 .18.07.18.2v.93a.2.2 0 0 1-.05.13.18.18 0 0 1-.13.05c-.77-.02-1.62.1-1.63 1.13-.02 1.5-.02 2.87-.02 4.15 0 .04.02.09.05.12.03.03.07.05.11.05h5.31c.04 0 .09-.02.12-.05a.18.18 0 0 0 .05-.13c.01-1.18.02-2.38 0-3.6 0-.78.08-1.23-.64-1.5a2.9 2.9 0 0 0-.99-.2.15.15 0 0 1-.1-.06.16.16 0 0 1-.05-.1v-.97c0-.1.05-.15.14-.15.98-.06 1.87-.02 2.68.13.43.08.86.08 1.3.01.92-.15 1.84-.2 2.76-.14.15 0 .22.08.22.24v.86c0 .15-.07.22-.22.22-.76-.03-1.58.14-1.58 1.12L20.46 27c0 .12.05.14.13.05a74.36 74.36 0 0 0 3.5-4.19c.72-.93.34-1.54-.78-1.57-.12 0-.18-.06-.18-.2v-.84c0-.11.05-.18.17-.18.87-.06 1.75-.04 2.61.07.5.05 1.05.06 1.68 0 1.21-.1 2.4-.1 3.58.02.63.06 1.08.08 1.35.05 1.24-.14 2.36-.23 3.62-.12 1.54.14 3.22.98 3.94 2.44.28.56.44 1.22.48 1.97.1 2.26-1.53 3.84-3.57 4.25a.1.1 0 0 0-.04.03.1.1 0 0 0 0 .14 28.24 28.24 0 0 1 3.14 4.32c.17.28.78 1.25 1.24 1.32.82.12 1.49.03 2-.26.2-.12.32-.32.32-.59.01-2.47.03-5.95.03-10.43 0-.93.08-1.54-.88-1.77a4.2 4.2 0 0 0-.7-.13.25.25 0 0 1-.18-.08.27.27 0 0 1-.08-.18v-.81c0-.17.09-.25.25-.25l1.19.01c.18 0 .57.05 1.18.13.8.12 1.62.1 2.44-.08Z" fill="#65131F"/><path d="m47.13 27.2-.04 5.75c0 .08-.04.1-.1.04a.7.7 0 0 1-.2-.4c.04-3.34.07-6.68.08-10.03 0-.36.05-.6.15-.72.32-.36.53-.58 1.06-.62l.5-.07a.16.16 0 0 0 .14-.13.83.83 0 0 0-.03-.55.2.2 0 0 0-.08-.09.2.2 0 0 0-.1-.03l-1.4.04-.4-.04c-.13 0-.13-.04-.02-.1l.21-.12 1.88-.01a.2.2 0 0 1 .14.06.2.2 0 0 1 .06.14v.87c0 .14-.07.2-.2.21-.26.01-.56.06-.9.13-.46.1-.7.41-.7.94l-.05 4.74Z" fill="#65131F"/><path d="m47.12 20.39 1.39-.04a.2.2 0 0 1 .1.03.2.2 0 0 1 .08.09c.07.15.08.34.03.55a.16.16 0 0 1-.13.13l-.51.07c-.53.04-.74.26-1.06.62-.1.12-.15.36-.15.72-.01 3.35-.04 6.69-.07 10.03-.02.37-.01.75.03 1.12.05.5.2.8.45.94.28.16.67.24 1.16.27a.34.34 0 0 1 .23.1l.05.11c.02.04.02.08 0 .12v.08c0 .2-.1.31-.3.32-.7.02-1.42-.03-2.14-.15a6.02 6.02 0 0 0-1.56 0c-1.36.15-2.63.15-3.8.02a5.4 5.4 0 0 0-1.26 0c-.46.06-.88.06-1.28 0a.52.52 0 0 1-.24-.1.55.55 0 0 1-.17-.2c-.24-.52-.51-1.03-.82-1.53a46.1 46.1 0 0 1-.88-1.49l-1.64-3.01c-.18-.34-.27-.52-.63-.52-.38 0-.63.02-.74.03-.06 0-.11.03-.15.08a.24.24 0 0 0-.06.15c0 1.52 0 3.03-.07 4.52-.03.45.02.78.12.98.18.33.5.5.97.48.12 0 .36 0 .73.04.21.01.3.13.25.34l-.01.06c-.04.23-.17.33-.4.3l-2.4-.28a8.5 8.5 0 0 0-2.7.18 7.8 7.8 0 0 1-2.39-.14 2.06 2.06 0 0 0-.48-.02l-.47.04a47.77 47.77 0 0 1-2.7.19.31.31 0 0 1-.1-.06.27.27 0 0 1-.07-.1.24.24 0 0 1-.02-.1v-.07c-.01-.13.05-.21.18-.24l.48-.08c.22-.03.39-.1.5-.18.4-.32.44-.71.13-1.2-.2-.3-.3-.49-.31-.56a.26.26 0 0 0-.13-.16.51.51 0 0 1-.16-.15 1631.05 1631.05 0 0 0-2.83-4.2.24.24 0 0 0-.2-.01.24.24 0 0 0-.09.06l-.67.7a.26.26 0 0 0-.08.17 79.2 79.2 0 0 0-.05 3.96c0 .44.1.76.3.98.35.39.78.57 1.28.55.23-.01.35.09.36.31v.05c.02.22-.08.33-.3.33-.5-.01-1.36-.07-2.58-.2a3.67 3.67 0 0 0-.9 0c-.82.14-1.68.22-2.58.24-.14 0-.22-.07-.22-.21v-.1c0-.23.11-.35.33-.37.67-.08 1.13-.33 1.38-.76.14-.24.21-.71.21-1.42 0-1.58 0-3.16.03-4.72 0-.12-.04-.08-.15-.08h-5.96c-.2 0-.28.04-.28.24v5.31c.01.43.12.75.34.95.28.26.66.37 1.13.36.27-.02.41.1.45.37v.06c.02.25-.1.37-.33.35l-1.84-.11a4.41 4.41 0 0 0-1.87-.08c-.53.1-.9.14-1.08.13-.38-.01-.74.02-1.09.1a.4.4 0 0 1-.15 0 .37.37 0 0 1-.14-.05.33.33 0 0 1-.1-.1.3.3 0 0 1-.05-.13v-.08c-.06-.24.03-.37.27-.4.48-.04.93-.22 1.34-.54a.64.64 0 0 0 .25-.5c.05-2.05.05-3.88.01-5.5 0-.24 0-.5.04-.82l.06-.8c0-.7-.02-2.15-.08-4.34-.01-.44-.11-.76-.3-.95-.29-.3-.67-.45-1.16-.47a.3.3 0 0 1-.2-.1.32.32 0 0 1-.09-.21v-.08c0-.15.07-.23.21-.24.6-.05 1.18 0 1.77.12.48.11.77.16.86.15.42-.06.68.04 1.17-.07.7-.16 1.44-.2 2.2-.14.12 0 .2.1.22.25v.08c0 .2-.1.3-.29.28-.69-.05-1.2.25-1.57.89-.01.02.02.05.02.08v4.66c0 .1 0 .3.07.37s.16.1.26.1h5.83a.21.21 0 0 0 .15-.06.22.22 0 0 0 .06-.16v-4.77c0-.22-.14-.46-.43-.71-.27-.24-.7-.4-1.27-.46-.09-.01-.13-.07-.13-.16v-.33c0-.09.04-.13.12-.13a6.4 6.4 0 0 1 1.47.08c.7.23 1.4.28 2.1.15.68-.13 1.11-.2 1.3-.2.41 0 .86 0 1.32.02.09 0 .13.05.13.13v.27c0 .04-.01.08-.04.1a.17.17 0 0 1-.08.07c-.13.04-.31.06-.56.07-.49.03-.84.25-1.07.65-.1.18-.15.43-.15.74a2908.97 2908.97 0 0 0 .05 5.45.1.1 0 0 0 .04.04.1.1 0 0 0 .1-.02c.54-.5 1.06-1.05 1.57-1.66 1.08-1.32 1.9-2.31 2.43-3 .32-.4.5-.72.55-.96.12-.58-.21-1.2-.84-1.27a2.63 2.63 0 0 1-.39-.07.2.2 0 0 1-.15-.15.37.37 0 0 1 .04-.3c.03-.07.1-.1.17-.1.46-.01 1.3.06 2.5.21.4.05.86.05 1.35-.02a9.33 9.33 0 0 1 2.36-.04c.35.04.7.06 1.04.06.14 0 .5.01 1.05.05s1.12 0 1.71-.13a6.2 6.2 0 0 1 5.8 1.7c.21.21.49.72.54.98.55 2.9-.55 4.63-3.31 5.2a.38.38 0 0 0-.17.08.4.4 0 0 0-.14.35c.01.07.04.13.08.19.25.33.57.7.98 1.08.37.37.67.7.9 1.03.61.9 1.13 1.73 1.53 2.46.22.39.46.72.74 1 .21.23.53.34.96.35.67 0 1.17-.04 1.51-.15.64-.2.92-.62.92-1.24V22.12c0-.07-.07-.14-.11-.2a2 2 0 0 0-1.4-.9.32.32 0 0 1-.2-.11.29.29 0 0 1-.07-.3.18.18 0 0 1 .16-.13c.57-.1 1.24-.08 2 .07.86.16 1.77.1 2.74-.16Zm-23.24 8.09c.37.61.67 1.07.91 1.38.41.52.75.98 1.01 1.38.71 1.07 1.2 1.8 1.47 2.17l.4.67c.44.75 1.11 1.05 2 .9.32-.04.54-.17.66-.38.15-.24.22-.52.22-.83-.07-5-.08-8.7-.03-11.1.02-.7-.3-1.18-.92-1.43-.42-.17-.99-.23-1.72-.2-.48.02-.89.14-1.23.38-.51.35-.85.65-1 .9a39.21 39.21 0 0 1-2.16 3.02l-.46.48a2.4 2.4 0 0 0-.43.64.34.34 0 0 0 .06.37c.34.37.64.8.91 1.31.03.05.09.1.16.17.06.04.11.1.15.17Zm12.02-6.91a5.61 5.61 0 0 0-2.6-.43c-.08 0-.17.05-.23.12a.38.38 0 0 0-.1.25v6.14a.46.46 0 0 0 .14.33.44.44 0 0 0 .32.12c.27-.01.56 0 .86.03.37.05.65.04.83-.02.5-.15.97-.39 1.4-.7.32-.25.54-.63.66-1.14.2-.84.3-1.4.3-1.7-.01-1.1-.5-2.53-1.58-3Z" fill="#E5012E"/><path d="M23.73 28.3a.58.58 0 0 1-.16-.16c-.27-.5-.57-.94-.91-1.3a.34.34 0 0 1-.06-.38c.12-.26.27-.47.43-.64l.46-.48c.76-.97 1.48-1.98 2.15-3.03.16-.24.5-.54 1.01-.9a2.3 2.3 0 0 1 1.23-.37c.73-.03 1.3.03 1.72.2.63.25.94.72.92 1.42-.05 2.42-.04 6.12.03 11.1 0 .32-.08.7-.23.94-.12.2-.33.3-.64.35-.9.14-1.57-.22-2.01-.97l-.4-.67c-.27-.38-.76-1.1-1.47-2.17-.26-.4-.6-.86-1-1.38-.25-.3-.55-.77-.92-1.38a.56.56 0 0 0-.15-.17Zm-.67-1.83a.22.22 0 0 0 0 .26c2.01 2.92 3.7 5.34 5.04 7.27.38.54.86.74 1.45.6.36-.08.45-.37.45-.73V22.32c0-.27-.02-.45-.2-.53a3.11 3.11 0 0 0-2.67-.15c-.38.16-.8.55-1.26 1.16l-2.8 3.67ZM37.48 24.57c0 .3-.1.86-.3 1.7-.12.5-.34.89-.67 1.13-.42.32-.89.56-1.4.71-.17.06-.45.07-.82.02-.3-.03-.59-.04-.86-.03a.43.43 0 0 1-.32-.12.45.45 0 0 1-.14-.33v-6.14c0-.1.04-.18.1-.25a.35.35 0 0 1 .24-.12c.91-.06 1.78.09 2.59.43 1.09.47 1.57 1.9 1.58 3Zm-4.06-2.85v5.91c0 .04.01.07.04.1.02.02.05.04.09.04h.85c.69 0 1.35-.28 1.84-.78s.76-1.17.76-1.87v-.88c0-.7-.27-1.38-.76-1.87a2.59 2.59 0 0 0-1.84-.78h-.85a.13.13 0 0 0-.1.04.14.14 0 0 0-.03.1Z" fill="#65131F"/><path d="M47.13 27.2c.02 2.05 0 4.1-.03 6.15 0 .72.34 1.14 1.03 1.26.28.04.5.07.65.06.15 0 .22.07.22.23v.84c0 .06-.02.12-.06.16a.2.2 0 0 1-.15.06h-1.33c-.76-.01-1.77-.26-2.7-.13-.65.08-1.1.12-1.35.12l-5.28-.02a.3.3 0 0 1-.16-.04.32.32 0 0 1-.12-.12l-3.56-6.4c-.22-.4-.36-.37-.73-.35-.08 0-.13.05-.13.14 0 1.66 0 3.14.02 4.44 0 .31.04.53.1.64.28.46 1.35.36 1.64.35a.15.15 0 0 1 .11.04.16.16 0 0 1 .05.12v1.05c0 .12-.06.19-.18.19-1.07.02-1.71 0-1.93-.04a7 7 0 0 0-2.6-.2 7.95 7.95 0 0 1-2.72.17c-.96-.15-1.3-.22-2.1-.1-.87.13-1.76.16-2.67.1-.1 0-.16-.07-.16-.17v-.89c0-.12.06-.18.18-.17.43.04.75.01.96-.07a.49.49 0 0 0 .3-.32.52.52 0 0 0-.07-.44l-3.27-4.84a.1.1 0 0 0-.06-.04.09.09 0 0 0-.07.03c-.28.24-.49.5-.5.9 0 1.96 0 3.2.02 3.73.01.86.86 1 1.61 1 .14 0 .21.08.21.22v.94c0 .08-.04.13-.13.14-1.12.06-2.17 0-3.15-.2-.18-.03-.55 0-1.12.09a8 8 0 0 1-1.11.1h-1.43a.23.23 0 0 1-.16-.08.24.24 0 0 1-.07-.16v-.77c0-.16.08-.25.24-.25.65 0 1.58-.23 1.6-1.08v-5.1c0-.06-.02-.11-.06-.15a.2.2 0 0 0-.14-.06l-2.27-.02a.12.12 0 0 1-.02-.11c.01-.05 0-.08-.05-.1-.07-.02-.13 0-.18-.05h2.97c.1 0 .17-.04.17.08-.02 1.56-.03 3.14-.03 4.72 0 .7-.07 1.18-.2 1.42-.26.43-.72.68-1.4.76-.2.02-.32.14-.32.37v.1c0 .14.08.22.22.21.9-.02 1.76-.1 2.58-.25.18-.03.48-.02.9.02 1.22.12 2.09.18 2.59.19.21 0 .31-.1.3-.33l-.01-.05c-.01-.22-.13-.32-.36-.31-.5.02-.93-.16-1.28-.55-.2-.22-.3-.54-.3-.98-.01-1.27 0-2.6.05-3.96 0-.07.03-.13.08-.18l.67-.7a.24.24 0 0 1 .2-.07.24.24 0 0 1 .17.11L24 32.72c.04.06.1.11.16.15.07.04.1.1.13.16.01.07.12.26.31.56.31.49.27.88-.13 1.2-.11.09-.28.15-.5.18l-.48.08c-.13.03-.19.1-.18.24v.07c0 .04 0 .08.02.1l.07.1.1.06.13.01a47.78 47.78 0 0 0 3.04-.24c.19 0 .35 0 .48.02a7.8 7.8 0 0 0 2.4.14c1-.21 1.9-.27 2.7-.18l2.4.28c.22.03.35-.07.39-.3l.01-.06c.04-.21-.04-.33-.25-.34a8.59 8.59 0 0 0-.73-.04c-.46.01-.79-.15-.97-.48-.1-.2-.15-.53-.12-.98.08-1.5.07-3 .07-4.52 0-.05.02-.11.06-.15a.22.22 0 0 1 .15-.08l.74-.03c.36 0 .45.18.63.52l1.64 3.01c.12.22.41.72.88 1.5.3.49.58 1 .82 1.52.03.08.1.15.17.2.07.06.15.1.24.1.4.06.82.06 1.28 0a5.4 5.4 0 0 1 1.25 0c1.19.13 2.45.13 3.8-.02a6.02 6.02 0 0 1 1.57 0c.72.12 1.44.17 2.14.15.2 0 .3-.11.3-.32v-.08c.02-.04.02-.08 0-.12a.27.27 0 0 0-.05-.1.34.34 0 0 0-.23-.1c-.5-.04-.88-.12-1.16-.28-.25-.13-.4-.45-.45-.94a7.83 7.83 0 0 1-.03-1.12c.02.16.09.3.2.4.05.06.09.04.09-.04l.04-5.74Z" fill="#65131F"/><path d="M14.26 28c.05.04.1.03.17.05.04.02.06.05.05.1-.01.04 0 .07.02.1l-3.05.01a.12.12 0 0 0-.09.04.13.13 0 0 0-.04.09v5.05c0 .35.06.6.16.72.31.4 1.06.5 1.44.5.17-.01.26.07.26.25v.78c0 .17-.08.25-.25.24l-2.65-.13a.9.9 0 0 1 .47-.27l1.84.11c.24.02.35-.1.33-.35v-.06c-.04-.26-.18-.39-.45-.37-.47.01-.85-.1-1.13-.36-.22-.2-.33-.52-.34-.95-.04-1.93-.04-3.7-.02-5.3 0-.2.1-.25.3-.25h2.98Z" fill="#65131F"/></svg>