<!-- by TradingView --><svg width="56" height="56" viewBox="0 0 56 56" xmlns="http://www.w3.org/2000/svg"><path fill="#F0F3FA" d="M0 0h56v56H0z"/><path d="M34.8 26.03c-.2.45-.3.94-.3 1.47 0 .52.1 1 .3 1.46a3.36 3.36 0 0 0 1.8 1.77 3.68 3.68 0 0 0 3.43-.34c.56-.38.96-.89 1.22-1.52.17-.42.25-.88.25-1.37 0-.48-.08-.94-.25-1.36a3.3 3.3 0 0 0-2.66-2.1 3.68 3.68 0 0 0-3.05.91c-.32.32-.57.68-.74 1.08Zm1.7 3.03a2.3 2.3 0 0 1-.53-1.57c0-.62.18-1.14.54-1.56.38-.43.88-.65 1.5-.65.6 0 1.1.22 1.48.66.36.42.54.94.54 1.56a2.3 2.3 0 0 1-.54 1.56c-.39.44-.88.66-1.5.66-.6 0-1.1-.22-1.48-.66Zm-24.75-.2c.17-.41.25-.87.25-1.36 0-.49-.08-.94-.25-1.36a3.3 3.3 0 0 0-2.66-2.1 3.68 3.68 0 0 0-3.05.91c-.32.32-.57.68-.74 1.08-.2.45-.3.94-.3 1.47 0 .52.1 1 .3 1.46a3.36 3.36 0 0 0 1.8 1.77 3.68 3.68 0 0 0 3.43-.34 3.3 3.3 0 0 0 1.22-1.53Zm-4.74.2a2.3 2.3 0 0 1-.54-1.57c0-.62.18-1.14.54-1.56.38-.43.88-.65 1.5-.65.6 0 1.1.22 1.48.66.36.42.54.94.54 1.56a2.3 2.3 0 0 1-.54 1.56c-.39.44-.88.66-1.5.66-.6 0-1.1-.22-1.48-.66Zm6.72-.56c0 .28.06.54.17.76a1.2 1.2 0 0 0 1.81.35c.14-.1.3-.1.47-.02.25.12.35.33.31.65-.01.1-.09.2-.23.32-.18.15-.38.26-.6.32-.63.18-1.21.16-1.76-.09a2.2 2.2 0 0 1-1.18-1.2 2.78 2.78 0 0 1 0-2.18 2.2 2.2 0 0 1 1.18-1.2 2.52 2.52 0 0 1 1.76-.1c.22.07.42.18.6.33.14.12.21.22.23.32.04.31-.06.53-.3.65-.18.08-.34.08-.48-.02a1.2 1.2 0 0 0-1.8.35 1.6 1.6 0 0 0-.18.76Zm5.24 1.37a1.2 1.2 0 0 1-.7-.92c0-.03.01-.05.04-.05l2.64-.01c.17 0 .29-.02.36-.04.25-.08.38-.26.38-.53 0-.43-.1-.83-.3-1.19a2.17 2.17 0 0 0-.9-.86c-.37-.2-.77-.29-1.2-.27-.59.03-1.08.23-1.48.6-.34.3-.58.69-.7 1.14-.13.45-.14.9-.04 1.37A2.3 2.3 0 0 0 19.28 31c.52.04 1.03-.06 1.5-.28.2-.1.34-.2.41-.34.08-.16.06-.33-.07-.5a.42.42 0 0 0-.17-.14.38.38 0 0 0-.19-.04c-.09 0-.23.05-.42.14l-.2.09a1.6 1.6 0 0 1-1.17-.05Zm1.54-1.82h-2.23v-.01c0-.29.1-.54.32-.74.22-.2.48-.3.78-.3h.02c.3 0 .57.1.79.3.21.2.32.45.32.73v.02Zm4.5.38c.01-.44 0-.7-.01-.76a.77.77 0 0 0-.55-.57c-.42-.12-.8-.09-1.17.09l-.27.13a.57.57 0 0 1-.36.08.4.4 0 0 1-.28-.2c-.11-.2-.12-.37-.01-.53.06-.09.17-.18.35-.28.7-.38 1.42-.48 2.17-.31.89.2 1.33.77 1.34 1.73v2.27c0 .23-.01.4-.06.5a.57.57 0 0 1-.38.35.56.56 0 0 1-.5-.08.65.65 0 0 1-.27-.43c0-.02 0-.02-.02 0-.42.42-.95.62-1.58.57a1.55 1.55 0 0 1-1.44-1.33c-.06-.46.03-.85.26-1.16.23-.3.57-.5 1.02-.57.21-.03.46-.02.74.02.38.06.7.22.98.5.02.01.03 0 .03-.02Zm-1.84 1.02c0 .22.1.39.27.52.22.16.49.22.8.17.3-.04.55-.16.74-.36a.1.1 0 0 0 .03-.07v-.53a.1.1 0 0 0-.03-.07 1.2 1.2 0 0 0-.75-.36c-.31-.04-.58.02-.8.18a.62.62 0 0 0-.26.52Zm6.87-3.42c-.69-.11-1.3.1-1.83.66h-.03l-.01-.02c-.02-.28-.14-.47-.36-.57a.5.5 0 0 0-.45 0 .57.57 0 0 0-.3.34c-.04.09-.06.24-.06.44v3.45c.01.32.14.52.39.62.26.11.48.03.67-.23.07-.1.1-.23.1-.39v-2.58c0-.04.02-.08.05-.11.3-.38.67-.54 1.1-.5.2.02.36.08.47.2.13.14.2.32.21.54v2.22c0 .27.03.45.08.56.08.18.22.29.4.33.2.04.36-.01.5-.16.12-.14.19-.29.2-.46v-2.86c-.01-.4-.1-.74-.29-1-.2-.26-.47-.42-.84-.48Zm13.19.66a2.07 2.07 0 0 1 1.82-.67c.39.05.68.2.89.48.2.26.3.6.3 1.03v2.58c0 .24-.02.41-.06.52a.55.55 0 0 1-.41.35c-.2.05-.38 0-.52-.14a.78.78 0 0 1-.25-.54v-2.4c0-.25-.04-.45-.2-.6a.77.77 0 0 0-.52-.17c-.43 0-.79.17-1.07.53a1329.45 1329.45 0 0 1-.03 2.44c0 .27-.02.46-.07.57a.57.57 0 0 1-1.04-.01 1.33 1.33 0 0 1-.07-.5v-3.3c0-.2.02-.34.05-.43a.57.57 0 0 1 .83-.3c.19.1.29.28.31.54 0 .01 0 .02.02.02h.02Zm4.5 2.36c-.01-.03 0-.05.03-.05H50.29c.16 0 .28-.03.35-.05.24-.08.36-.36.36-.63 0-.43-.1-.83-.3-1.19a2.12 2.12 0 0 0-2-1.13c-.57.03-1.04.22-1.42.6-.33.3-.56.69-.68 1.14-.12.45-.13.9-.04 1.37.12.57.38 1.02.78 1.36.37.31.82.49 1.35.52.5.04.98-.06 1.44-.28.2-.1.32-.2.39-.34.08-.16.06-.33-.07-.5a.41.41 0 0 0-.16-.14.35.35 0 0 0-.18-.04c-.09 0-.22.05-.4.14l-.2.09c-.42.13-.8.11-1.12-.05-.36-.17-.58-.38-.66-.82ZM49.86 28l-2.13.01v.03a1 1 0 0 1 .3-.74c.21-.2.46-.3.75-.3h.03c.29 0 .54.1.75.3.2.2.3.45.31.73V28Z" fill="#100E26"/></svg>