<!-- by TradingView --><svg width="56" height="56" viewBox="0 0 56 56" xmlns="http://www.w3.org/2000/svg"><path fill="#F0F3FA" d="M0 0h56v56H0z"/><path d="M46.52 31.86c0 .08-.07.14-.16.14h-.81c-.1 0-.15-.06-.14-.14l.44-3.38c.06-.52-.1-.72-.7-.72-.74 0-1.52.18-1.52.18l-.5 3.92c-.01.08-.08.14-.17.14h-.82c-.09 0-.15-.06-.14-.14l.85-6.54c.01-.1.07-.15.18-.17l.82-.15h.03c.08 0 .13.06.12.14l-.2 1.54-.18.55a8.6 8.6 0 0 1 1.8-.24c1.15 0 1.7.33 1.56 1.34l-.46 3.53ZM41.69 31.65v.04c0 .05-.05.1-.12.13-.17.05-.6.18-1.2.18-1.01 0-1.47-.42-1.35-1.47l.5-4.2c0-.1.06-.14.17-.16l.78-.17h.04c.08 0 .12.06.1.15L40.44 28h1.44c.09 0 .14.06.13.15l-.06.54c-.02.09-.08.14-.16.14h-1.45l-.23 1.7c-.05.48.13.65.63.65.28 0 .61-.07.79-.11h.03c.05 0 .09.04.1.1l.04.48ZM38 31.73v.04c-.01.07-.08.11-.1.11-.09.04-.38.12-.83.12-.77 0-1.15-.39-1.06-1.1l.73-5.6c.01-.1.07-.13.17-.15l.82-.15h.04c.08 0 .12.06.1.14l-.73 5.7c-.04.32.16.39.36.39.14 0 .27-.02.35-.04h.03c.04 0 .08.02.08.08l.04.46ZM30.88 29.83l.07-.44c.1-.7.08-1.26-.2-1.66-.28-.48-.87-.73-1.9-.73-2 0-2.58.87-2.8 2.51-.24 1.74.37 2.49 2.36 2.49a6.1 6.1 0 0 0 1.85-.28c.06-.03.12-.06.12-.13v-.03l-.07-.42c-.02-.08-.05-.11-.11-.11h-.05l-.13.04a5.4 5.4 0 0 1-1.36.19c-.6 0-1.01-.09-1.26-.33-.22-.2-.3-.46-.25-.9l.11-.82c.04-.27.09-.53.2-.79.2-.5.55-.69 1.29-.69.68 0 .99.18 1.07.71.04.28.01.53-.03.84l-2.11.01-.1.71h3.1a.2.2 0 0 0 .2-.17ZM34.6 31.87c.72-.14.94-.28 1.03-.94l.34-2.51c.06-.49.07-.91-.42-1.18-.3-.15-.76-.24-1.48-.24-.99 0-1.92.2-2.21.3-.06.02-.12.04-.13.13v.02l.05.51c0 .06.05.07.09.07.07 0 .15-.02.22-.04.39-.08 1.04-.22 1.68-.22.4 0 .65.03.82.1.27.1.27.3.23.57l-.37 2.7c-.3.1-.7.15-1.11.15-.55 0-1.25-.05-1.14-.83.08-.62.48-.68.9-.74l1.2-.17.16-.73-1.61.24c-.9.13-1.67.25-1.83 1.42-.2 1.45 1.18 1.52 2.2 1.52.55 0 1.03-.05 1.38-.13ZM25.52 31.86c0 .08-.07.14-.16.14h-.81c-.1 0-.15-.06-.14-.14l.44-3.38c.06-.52-.1-.72-.7-.72-.74 0-1.52.19-1.52.19l-.5 3.91c-.01.08-.08.14-.17.14h-.82c-.09 0-.15-.06-.14-.14l.85-6.54c.01-.1.07-.15.18-.17l.82-.15h.03c.08 0 .13.06.12.14l-.2 1.54-.18.56a8.6 8.6 0 0 1 1.8-.24c1.15 0 1.7.32 1.56 1.33l-.46 3.53Z" fill="#009B85"/><path d="M20.94 29.5c-.19 1.38-.6 2.5-2.77 2.5s-2.3-1.12-2.1-2.5c.18-1.38.6-2.5 2.77-2.5s2.28 1.12 2.1 2.5Zm-1.17 0c.15-1.11.18-1.76-1.03-1.76-1.22 0-1.36.65-1.5 1.76-.16 1.11-.2 1.76 1.03 1.76 1.21 0 1.35-.65 1.5-1.76ZM15.53 31.86c-.01.08-.08.14-.17.14h-.82c-.1 0-.15-.06-.14-.14l.44-3.34c.07-.57-.13-.76-.72-.76-.72 0-1.49.2-1.49.2l-.5 3.9c-.01.08-.08.14-.17.14h-.82c-.09 0-.15-.06-.14-.14l.51-3.95c.05-.35.2-.5.75-.65a9.47 9.47 0 0 1 2.06-.26c1.2 0 1.8.32 1.66 1.38l-.45 3.48ZM8.73 29.93C8.56 31.55 7.31 32 6.1 32a5.85 5.85 0 0 1-1.98-.33c-.08-.03-.12-.1-.1-.18v-.03l.16-.54a.15.15 0 0 1 .15-.1h.04c.17.04.99.3 1.83.3.7 0 1.41-.24 1.5-1.1.1-.86-.55-.95-1.39-1.1-.9-.13-2.04-.39-1.87-1.94C4.61 25.4 5.75 25 6.98 25c.97 0 1.73.26 1.9.31.1.03.13.1.12.18v.04l-.17.54c-.02.05-.09.1-.15.1h-.01c-.3-.08-.94-.29-1.74-.29-.65 0-1.39.16-1.48.99-.1.83.64.96 1.4 1.1.95.14 2.07.27 1.88 1.96Z" fill="#019ED3"/><path d="M52 22h-1.87L49 24l1.13 2H52l-1.13-2L52 22Z" fill="#009B85"/><path d="M47 25.01h1.87l1.13 2L48.87 29H47l1.13-2L47 25.02ZM10.13 31.86c-.01.08-.08.14-.17.14h-.82c-.1 0-.15-.06-.14-.14l.6-4.73c0-.07.08-.13.17-.13h.82c.09 0 .14.06.13.13l-.6 4.73Zm.73-5.64c-.01.12-.1.19-.23.19h-.7c-.14 0-.2-.07-.2-.2l.14-1.02c.02-.12.1-.19.24-.19h.7c.13 0 .2.07.19.19l-.14 1.03Z" fill="#019ED3"/></svg>