<!-- by TradingView --><svg width="56" height="56" viewBox="0 0 56 56" xmlns="http://www.w3.org/2000/svg"><path fill="#F0F3FA" d="M0 0h56v56H0z"/><path d="m42 37-14 8-14-8 14-8 14 8Z" fill="url(#affjhoohm)"/><path d="M43 19.5 28 11l-15 8.5v17l12.02-7.92v-1.4l-11.43-7.46 12.4 6.05 1.16-.65.85-13.35.86 13.35 1.14.65 12.4-6.05-11.42 7.46v1.43l11.97 7.86-.09-.05.14.08v-17Z" fill="#F47C08"/><path d="M39 33.87V22l-.05-.03-7.97 5.2v1.44L39 33.87Zm-.6-12.2-10.12-5.52.57 8.97 1.15.65 8.4-4.1Zm-10.68-5.52-10.13 5.53 8.4 4.1 1.16-.66.57-8.97Zm-10.68 5.83L17 22v11.86l8.02-5.28v-1.4l-7.98-5.2Z" fill="#F9A404"/><path d="M35 31.25v-6.7l-4.02 2.63v1.43L35 31.25Zm-.63-7.61-5.82-3.33.3 4.81 1.15.65 4.37-2.13Zm-6.92-3.33-5.82 3.33 4.36 2.13 1.16-.65.3-4.8ZM21 24.56v6.67l4.02-2.65v-1.4L21 24.57Z" fill="#FFE001"/><defs><linearGradient id="affjhoohm" x1="28" y1="29" x2="28" y2="45" gradientUnits="userSpaceOnUse"><stop stop-color="#60BFF3"/><stop offset="1" stop-color="#09559F"/></linearGradient></defs></svg>