<!-- by TradingView --><svg width="56" height="56" viewBox="0 0 56 56" xmlns="http://www.w3.org/2000/svg"><path fill="#F0F3FA" d="M0 0h56v56H0z"/><path d="M24.42 20.4c0 .05-.08.07-.13.07h-2.91c-.05 0-.09.02-.1.07a10.1 10.1 0 0 1-5.84 6.67c-1.65.7-3.45.98-5.41.86A67.31 67.31 0 0 1 9 28.01v.04l5.82 7.38c.03.03.06.05.1.05.13.02.28.03.47.02 2.76-.11 5.36-.82 7.8-2.13 1.68-.9 3.13-2.12 4.34-3.68.54-.7.95-1.38 1.22-2.06.54-1.31.96-2.27 1.26-2.87a6.45 6.45 0 0 1 1.77-2.3c.78-.6 1.72-.87 2.82-.83.04 0 .05-.01.02-.05l-4.7-6.14c-.27-.34-.52-.59-.74-.73a4.32 4.32 0 0 0-2.5-.7c-1 .02-1.72.46-2.16 1.31-.1.2-.1.41-.1.66v4.42ZM19.06 15h4.88c.03 0 .06.03.06.06v4.88c0 .03-.03.06-.06.06h-4.88a.06.06 0 0 1-.06-.06v-4.88c0-.03.03-.06.06-.06Zm17.18 7.33-4.76-6.24c-.03-.05-.02-.09.02-.12.65-.46 1.29-.53 1.92-.22.2.1.43.32.7.67l6.05 7.95c.03.04.02.06-.03.06-.35.03-.65.06-.88.1-1.55.25-2.79.99-3.7 2.21-.3.4-.57.89-.84 1.47-.16.33-.33.78-.52 1.36a13.52 13.52 0 0 1-7.54 8.05c-1.58.7-3.26 1.18-5.05 1.45-.38.05-.79.07-1.22.04a.12.12 0 0 1-.1-.06l-2.02-3.15c-.02-.04-.01-.06.04-.07 1.35-.28 2.59-.62 3.71-1.04a13.2 13.2 0 0 0 5.54-3.87 18 18 0 0 0 2.9-5.04c.2-.5.36-.85.49-1.08.47-.84.93-1.43 1.39-1.74a4.5 4.5 0 0 1 3.84-.66c.1.03.12 0 .06-.07Zm.17-4.21 5.38 6.97c.03.04.02.06-.04.05a5.52 5.52 0 0 0-3.58.55 6.46 6.46 0 0 0-2.4 2.34c-.15.26-.35.72-.6 1.4a15.47 15.47 0 0 1-5.16 7.25 12.98 12.98 0 0 1-6.08 2.57c-.05 0-.05.02-.03.06l2.05 2.65a.1.1 0 0 0 .09.04c.32 0 .65-.05 1-.12 1.34-.27 2.64-.77 3.9-1.5 1.19-.68 2.28-1.53 3.27-2.55a18 18 0 0 0 3.3-4.87 85.49 85.49 0 0 1 1.5-3.07c.21-.39.54-.9.99-1.51.49-.68 1.1-1.16 1.82-1.44a5.88 5.88 0 0 1 2.05-.27c.7.01 1.4.05 2.08.12.02 0 .03 0 .04-.02a.04.04 0 0 0 0-.05l-6.05-7.86c-.24-.3-.45-.53-.66-.68-.22-.18-.5-.31-.81-.4a2.5 2.5 0 0 0-2.03.2c-.07.03-.08.08-.03.14Z" fill="url(#a)"/><defs><linearGradient id="a" x1="9" y1="28.93" x2="46" y2="28.93" gradientUnits="userSpaceOnUse"><stop stop-color="#E8D26C"/><stop offset=".41" stop-color="#B18D2A"/><stop offset=".65" stop-color="#D2B84A"/><stop offset=".82" stop-color="#E9D560"/><stop offset="1" stop-color="#BC9537"/></linearGradient></defs></svg>