<!-- by TradingView --><svg width="56" height="56" viewBox="0 0 56 56" xmlns="http://www.w3.org/2000/svg"><path fill="#F0F3FA" d="M0 0h56v56H0z"/><path d="M13.1 19.99c.54 0 .98-.45.98-1s-.44-.99-.99-.99a.99.99 0 0 0-.98 1c0 .54.44.99.98.99Zm15.03 2.55c.54 0 .98-.44.98-.99s-.44-1-.98-1a.99.99 0 0 0-.98 1c0 .55.44 1 .98 1Zm-1.43 4.12c0 .55-.43 1-.98 1a.99.99 0 0 1-.98-1c0-.54.44-.99.98-.99.55 0 .98.45.98 1ZM28.13 20c.54 0 .98-.45.98-1s-.44-.99-.98-.99a.99.99 0 0 0-.98 1c0 .54.44.99.98.99ZM26.7 24.1c0 .55-.43 1-.98 1a.99.99 0 0 1-.98-1c0-.55.44-1 .98-1 .55 0 .98.45.98 1Zm1.43 1c.54 0 .98-.45.98-1s-.44-1-.98-1a.99.99 0 0 0-.98 1c0 .55.44 1 .98 1Zm-1.43 4.11c0 .55-.43 1-.98 1a.99.99 0 0 1-.98-1c0-.55.44-1 .98-1 .55 0 .98.45.98 1Zm1.43 3.55c.54 0 .98-.44.98-1 0-.54-.44-.98-.98-.98a.99.99 0 0 0-.98.99c0 .55.44 1 .98 1Zm-3.98-3.55c0 .55-.44 1-.98 1a.99.99 0 0 1-.99-1c0-.55.44-1 .99-1 .54 0 .98.45.98 1Zm3.98-1.56c.54 0 .98-.45.98-1 0-.54-.44-.99-.98-.99a.99.99 0 0 0-.98 1c0 .54.44.99.98.99Zm-1.43 4.12c0 .55-.43 1-.98 1a.99.99 0 0 1-.98-1c0-.55.44-1 .98-1 .55 0 .98.45.98 1Zm1.43 3.55c.54 0 .98-.45.98-1 0-.54-.44-.99-.98-.99a.99.99 0 0 0-.98 1c0 .54.44.99.98.99Zm-3.98-3.55c0 .55-.44 1-.98 1a.99.99 0 0 1-.99-1c0-.55.44-1 .99-1 .54 0 .98.45.98 1Zm3.98-1.57c.54 0 .98-.44.98-.99s-.44-1-.98-1a.99.99 0 0 0-.98 1c0 .55.44 1 .98 1Zm-1.43 4.13c0 .54-.43.99-.98.99a.99.99 0 0 1-.98-1c0-.54.44-.99.98-.99.55 0 .98.45.98 1Zm1.43 3.55c.54 0 .98-.45.98-1s-.44-.99-.98-.99a.99.99 0 0 0-.98 1c0 .54.44.99.98.99ZM8.97 24.1c0 .55-.44 1-.99 1a.99.99 0 0 1-.98-1c0-.55.44-1 .98-1 .55 0 .99.45.99 1Zm-.99-1.57c.55 0 .99-.44.99-.99s-.44-1-.99-1a.99.99 0 0 0-.98 1c0 .55.44 1 .98 1ZM16.63 19c0 .55-.44 1-.98 1a.99.99 0 0 1-.98-1c0-.55.44-.99.98-.99s.98.44.98 1Zm14.05 3.55c.55 0 .99-.44.99-.99s-.44-1-.99-1a.99.99 0 0 0-.98 1c0 .55.44 1 .98 1Zm.99 1.57c0 .55-.44 1-.99 1a.99.99 0 0 1-.98-1c0-.55.44-1 .98-1 .55 0 .99.45.99 1Zm-.99 3.55c.55 0 .99-.45.99-1a.99.99 0 1 0-1.97 0c0 .55.44 1 .98 1Zm.99 1.56c0 .55-.44 1-.99 1a.99.99 0 0 1-.98-1c0-.55.44-1 .98-1 .55 0 .99.45.99 1Zm-.99 3.55c.55 0 .99-.44.99-1a.99.99 0 0 0-1.97 0c0 .56.44 1 .98 1Zm-19.16-8.66c0 .55-.44 1-.98 1a.99.99 0 0 1-.98-1c0-.55.44-1 .98-1s.98.45.98 1Zm-.98 3.55c.54 0 .98-.45.98-1 0-.54-.44-.99-.98-.99a.99.99 0 0 0-.98 1c0 .54.44.99.98.99Zm.98-6.11c0 .55-.44 1-.98 1a.99.99 0 0 1-.98-1c0-.55.44-1 .98-1s.98.45.98 1Zm6.68-1.56c.55 0 .99-.45.99-1s-.44-.99-.99-.99a.99.99 0 0 0-.98 1c0 .54.44.99.98.99Zm16.02 1.56c0 .55-.44 1-.98 1a.99.99 0 0 1-.98-1c0-.55.44-1 .98-1s.98.45.98 1Zm-.98-1.56c.54 0 .98-.45.98-1s-.44-.99-.98-.99a.99.99 0 0 0-.98 1c0 .54.44.99.98.99Zm.98 4.12c0 .55-.44 1-.98 1a.99.99 0 0 1-.98-1c0-.55.44-1 .98-1s.98.45.98 1Zm-.98 3.55c.54 0 .98-.45.98-1 0-.54-.44-.99-.98-.99a.99.99 0 0 0-.98 1c0 .54.44.99.98.99Zm.98 1.56c0 .55-.44 1-.98 1a.99.99 0 0 1-.98-1c0-.55.44-1 .98-1s.98.45.98 1ZM13.1 25.1c.55 0 .99-.44.99-1a.99.99 0 1 0-1.97 0c0 .56.44 1 .98 1Zm.99 1.56c0 .55-.44 1-.99 1a.99.99 0 0 1-.98-1c0-.54.44-.99.98-.99.55 0 .99.45.99 1Zm-.99 3.55c.55 0 .99-.44.99-.99s-.44-1-.99-1a.99.99 0 0 0-.98 1c0 .55.44 1 .98 1Zm3.54 1.57c0 .55-.44 1-.98 1a.99.99 0 0 1-.98-1c0-.55.44-1 .98-1s.98.45.98 1Zm-3.54-9.24c.55 0 .99-.44.99-.99s-.44-1-.99-1a.99.99 0 0 0-.98 1c0 .55.44 1 .98 1Zm8.65 1.57c0 .55-.44 1-.98 1a.99.99 0 0 1-.98-1c0-.55.44-1 .98-1s.98.45.98 1Zm-.98 11.22c.54 0 .98-.45.98-1 0-.54-.44-.99-.98-.99a.99.99 0 0 0-.98 1c0 .54.44.99.98.99Zm.98 1.56c0 .55-.44 1-.98 1a.99.99 0 0 1-.98-1c0-.55.44-.99.98-.99s.98.44.98 1Zm1.57-14.35c.55 0 .99-.44.99-.99s-.44-1-.99-1a.99.99 0 0 0-.98 1c0 .55.44 1 .98 1ZM21.74 19c0 .55-.44 1-.98 1a.99.99 0 0 1-.98-1c0-.55.44-.99.98-.99s.98.44.98 1Zm14.06 3.55c.54 0 .98-.44.98-.99s-.44-1-.98-1a.99.99 0 0 0-.99 1c0 .55.44 1 .99 1Zm.98-3.55c0 .55-.44 1-.98 1a.99.99 0 0 1-.99-1 .99.99 0 1 1 1.97 0Zm-.98 6.11c.54 0 .98-.44.98-1 0-.54-.44-.99-.98-.99a.99.99 0 0 0-.99 1c0 .55.44 1 .99 1Zm.98 1.56c0 .55-.44 1-.98 1a.99.99 0 0 1-.99-1 .99.99 0 1 1 1.97 0Zm-.98 3.55c.54 0 .98-.44.98-.99s-.44-1-.98-1a.99.99 0 0 0-.99 1c0 .55.44 1 .99 1Zm.98 1.57c0 .55-.44 1-.98 1a.99.99 0 0 1-.99-1c0-.55.44-1 .99-1 .54 0 .98.45.98 1Zm1.57 6.1c.54 0 .98-.44.98-.99s-.44-.99-.98-.99a.99.99 0 0 0-.98 1c0 .54.44.99.98.99ZM16.63 24.12c0 .55-.44 1-.98 1a.99.99 0 0 1-.98-1c0-.55.44-1 .98-1s.98.45.98 1Zm-.98 11.22c.54 0 .98-.45.98-1 0-.54-.44-.99-.98-.99a.99.99 0 0 0-.98 1c0 .54.44.99.98.99Zm.98-8.67c0 .55-.44 1-.98 1a.99.99 0 0 1-.98-1c0-.54.44-.99.98-.99s.98.45.98 1Zm-.98 3.55c.54 0 .98-.44.98-.99s-.44-1-.98-1a.99.99 0 0 0-.98 1c0 .55.44 1 .98 1Zm3.54 1.57c0 .55-.44 1-.99 1a.99.99 0 0 1-.98-1c0-.55.44-1 .98-1 .55 0 .99.45.99 1Zm-3.54-9.24c.54 0 .98-.44.98-.99s-.44-1-.98-1a.99.99 0 0 0-.98 1c0 .55.44 1 .98 1ZM24.3 19c0 .55-.44 1-.99 1a.99.99 0 0 1-.98-1c0-.55.44-.99.98-.99.55 0 .99.44.99 1Zm14.05 3.55c.54 0 .98-.44.98-.99s-.44-1-.98-1a.99.99 0 0 0-.98 1c0 .55.44 1 .98 1Zm3.54-.99c0 .55-.44 1-.98 1a.99.99 0 0 1-.99-1c0-.55.44-1 .99-1 .54 0 .98.45.98 1Zm1.57 1c.54 0 .98-.45.98-1s-.44-1-.98-1a.99.99 0 0 0-.98 1c0 .55.44 1 .98 1Zm-1.57-3.56c0 .55-.44 1-.98 1a.99.99 0 0 1-.99-1 .99.99 0 1 1 1.97 0Zm4.13 3.55c.54 0 .98-.44.98-.99s-.44-1-.98-1a.99.99 0 0 0-.99 1c0 .55.44 1 .99 1Zm-6.69 1.57c0 .55-.44 1-.98 1a.99.99 0 0 1-.98-1c0-.55.44-1 .98-1s.98.45.98 1Zm1.58 1c.54 0 .98-.45.98-1s-.44-1-.98-1a.99.99 0 0 0-.99 1c0 .55.44 1 .99 1Zm3.53-1c0 .55-.44 1-.98 1a.99.99 0 0 1-.98-1c0-.55.44-1 .98-1s.98.45.98 1Zm1.58 1c.54 0 .98-.45.98-1s-.44-1-.98-1a.99.99 0 0 0-.99 1c0 .55.44 1 .99 1Zm-6.69 1.55c0 .55-.44 1-.98 1a.99.99 0 0 1-.98-1c0-.54.44-.99.98-.99s.98.45.98 1Zm1.58 1c.54 0 .98-.45.98-1 0-.54-.44-.99-.98-.99a.99.99 0 0 0-.99 1c0 .54.44.99.99.99Zm3.53 11.79c0 .55-.44 1-.98 1a.99.99 0 0 1-.98-1c0-.55.44-1 .98-1s.98.45.98 1Zm-6.09-9.24c.54 0 .98-.44.98-.99s-.44-1-.98-1a.99.99 0 0 0-.98 1c0 .55.44 1 .98 1Zm.98 1.57c0 .55-.44 1-.98 1a.99.99 0 0 1-.98-1c0-.55.44-1 .98-1s.98.45.98 1Zm1.58 6.1c.54 0 .98-.44.98-.99s-.44-.99-.98-.99a.99.99 0 0 0-.99 1c0 .54.44.99.99.99Zm.98-3.54c0 .54-.44.99-.98.99a.99.99 0 0 1-.99-1 .99.99 0 1 1 1.97 0ZM18.2 25.1c.55 0 .99-.44.99-1a.99.99 0 1 0-1.97 0c0 .56.44 1 .98 1Zm.99 9.24a.99.99 0 1 1-1.97 0c0-.55.44-1 .98-1 .55 0 .99.45.99 1Zm-.99 3.55c.55 0 .99-.45.99-1s-.44-.99-.99-.99a.99.99 0 0 0-.98 1c0 .54.44.99.98.99Zm.99 1.56c0 .55-.44 1-.99 1a.99.99 0 0 1-.98-1c0-.55.44-1 .98-1 .55 0 .99.45.99 1ZM18.2 43c.55 0 .99-.44.99-1a.99.99 0 1 0-1.97 0c0 .56.44 1 .98 1Zm.99-16.34c0 .55-.44 1-.99 1a.99.99 0 0 1-.98-1c0-.54.44-.99.98-.99.55 0 .99.45.99 1Zm1.57-4.12c.54 0 .98-.44.98-.99s-.44-1-.98-1a.99.99 0 0 0-.98 1c0 .55.44 1 .98 1Z" fill="#4D4845"/></svg>