<!-- by TradingView --><svg width="56" height="56" viewBox="0 0 56 56" xmlns="http://www.w3.org/2000/svg"><path fill="#F0F3FA" d="M0 0h56v56H0z"/><path d="M12 16.4a4.4 4.4 0 0 1 4.42-4.4h23.16A4.4 4.4 0 0 1 44 16.4v4.82l-16 3.8-16-3.8V16.4Z" fill="#F76801"/><path d="M12 20.39A4.4 4.4 0 0 1 16.42 16h23.16A4.4 4.4 0 0 1 44 20.39v4.81L28 29l-16-3.8V20.4Z" fill="#FE9D00"/><path d="M16.42 43.36a4.4 4.4 0 0 1-4.42-4.4v.64a4.4 4.4 0 0 0 4.42 4.4h23.16A4.4 4.4 0 0 0 44 39.6v-.64a4.4 4.4 0 0 1-4.42 4.4H16.42Z" fill="silver"/><path d="M12 24.39A4.4 4.4 0 0 1 16.42 20h23.16A4.4 4.4 0 0 1 44 24.39v2.46L28 33l-16-6.15v-2.46Z" fill="#FFCD00"/><circle cx="17.5" cy="24.5" r="2.5" fill="#fff"/><circle cx="33" cy="26" r="1" fill="#fff"/><ellipse cx="37.8" cy="38.21" rx="2.42" ry="2.41" fill="#F76801"/><circle cx="36" cy="26" r="1" fill="#fff"/><circle cx="39" cy="26" r="1" fill="#fff"/><ellipse cx="35.11" cy="38.21" rx="2.42" ry="2.41" fill="#FFCD00"/><path d="m23 40 .58-3h1.4c.25 0 .46.03.62.1.16.06.27.15.33.27.07.12.09.25.06.4a.7.7 0 0 1-.15.3.87.87 0 0 1-.26.22c-.11.06-.22.1-.35.12v.03c.13 0 .24.04.35.1.1.06.19.14.24.25.05.1.06.23.03.38-.03.16-.1.3-.22.43a1.2 1.2 0 0 1-.46.3c-.2.06-.42.1-.68.1H23Zm.84-.52h.6c.2 0 .36-.03.47-.1a.4.4 0 0 0 .2-.27.33.33 0 0 0-.04-.22.34.34 0 0 0-.16-.15.71.71 0 0 0-.3-.06h-.62l-.15.8Zm.24-1.22h.54c.1 0 .2-.02.28-.05a.56.56 0 0 0 .21-.13c.06-.06.1-.13.11-.2.02-.11 0-.2-.08-.27-.08-.06-.2-.1-.36-.1h-.56l-.14.75ZM23 37l-.5 3h-.54l-.99-1.89h-.02L20.63 40H20l.5-3h.55l.98 1.89h.03l.31-1.89H23ZM20 37l-.66 3h-.84l.53-2.4H19l-1 .43.12-.56 1.09-.47H20ZM16.18 40c-.26 0-.48-.04-.66-.11a.9.9 0 0 1-.42-.31.59.59 0 0 1-.09-.46h.77c-.02.12.03.21.12.28.1.07.23.1.38.1.13 0 .24-.01.35-.06.1-.04.19-.1.26-.18a.56.56 0 0 0 .14-.27c.02-.1.01-.2-.03-.28a.4.4 0 0 0-.19-.18.7.7 0 0 0-.32-.07 1.04 1.04 0 0 0-.6.2l-.68-.1.5-1.56H18l-.1.51h-1.64l-.25.74h.02c.08-.07.2-.13.34-.18a1.43 1.43 0 0 1 1.03.05c.16.09.28.2.35.35.07.15.08.31.04.5-.04.2-.13.38-.28.53-.15.16-.34.28-.57.37a2.1 2.1 0 0 1-.76.13Z" fill="#F76801"/></svg>