<!-- by TradingView --><svg width="56" height="56" viewBox="0 0 56 56" xmlns="http://www.w3.org/2000/svg"><path fill="#F0F3FA" d="M0 0h56v56H0z"/><path d="M21.62 17c1.23.1 2.38.5 3.46 1.24a20.75 20.75 0 0 1 2.84 2.6c.06.05.1.05.16 0 .67-.68 1.34-1.33 2-1.94a6.92 6.92 0 0 1 4.27-1.9h.73a7 7 0 0 1 4.37 2c2.1 2.03 4.36 4.2 6.77 6.5a5.6 5.6 0 0 1 1.43 2.2 6.43 6.43 0 0 1-2 7.02 5.82 5.82 0 0 1-3.98 1.27 5.78 5.78 0 0 1-3.87-1.63c-.73-.7-1.55-1.54-2.47-2.5-.08-.1-.17-.09-.25 0a13.05 13.05 0 0 1-3.83 3.24 6.37 6.37 0 0 1-4.82.68c-1.95-.55-3.78-1.85-5.5-3.9-.08-.1-.17-.1-.25-.02l-.82.85c-1.15 1.21-2.03 2-2.63 2.38a5.89 5.89 0 0 1-5.3.51 5.98 5.98 0 0 1-3.66-3.9 6.41 6.41 0 0 1 .46-4.82c.28-.57 1.1-1.47 2.44-2.72a389.8 389.8 0 0 0 5.45-5.24 6.8 6.8 0 0 1 4.3-1.92h.7Zm6.5 7.6c-.08-.08-.15-.08-.22-.01l-1.23 1.2-2.32 2.26-1.71 1.8c-.03.03-.03.05 0 .07a11.34 11.34 0 0 0 3.69 3.06c1 .5 2 .55 2.98.14 1.37-.58 2.7-1.63 4.02-3.15.03-.04.03-.08 0-.12L28.1 24.6ZM43.98 27a3.38 3.38 0 0 0-3.09-.54c-.57.16-1.2.61-1.9 1.35a1516.21 1516.21 0 0 0-1.94 2.07v.05c0 .02.02.05.06.08l1.93 1.95c.71.72 1.36 1.15 1.94 1.3 1.13.3 2.16.1 3.07-.61a3.36 3.36 0 0 0 1.36-2.85A3.36 3.36 0 0 0 44 27Zm-28.91-.54A3.37 3.37 0 0 0 12 27a3.35 3.35 0 0 0-1.42 2.81 3.35 3.35 0 0 0 1.36 2.84c.91.7 1.94.9 3.07.6a4.55 4.55 0 0 0 1.93-1.3 1417.15 1417.15 0 0 1 2-2.05.1.1 0 0 0-.01-.03 2033.66 2033.66 0 0 1-1.94-2.07 4.56 4.56 0 0 0-1.91-1.34Zm20.6-6.7a3.86 3.86 0 0 0-2.93.37c-.44.23-1.13.81-2.05 1.75l-.75.75c-.05.04-.05.09 0 .14l5.16 5.2c.05.07.11.07.17 0a53.3 53.3 0 0 1 2.63-2.7 5.51 5.51 0 0 1 2.71-1.42c.07-.02.08-.05.03-.1a101.87 101.87 0 0 1-2.45-2.34 5.98 5.98 0 0 0-2.53-1.65Zm-12.48.36c-1-.52-1.97-.64-2.91-.36-.83.24-1.67.8-2.52 1.66-.37.39-1.18 1.16-2.43 2.34-.05.04-.04.08.03.1 1.03.2 1.94.67 2.7 1.4.8.75 1.68 1.65 2.64 2.69.06.06.11.06.17 0l5.13-5.21c.04-.05.04-.1 0-.14-.17-.16-.43-.4-.76-.75-.93-.92-1.6-1.5-2.05-1.73Z" fill="#262626"/></svg>