<!-- by TradingView --><svg width="56" height="56" viewBox="0 0 56 56" xmlns="http://www.w3.org/2000/svg"><path fill="#F0F3FA" d="M0 0h56v56H0z"/><path d="M11 25H8v-4c1.8 1.43 3 2.38 3 3.43V25Z" fill="#4E8F6A"/><path d="M12 27v3h3.57c.36 0 1.43 0 1.43-1.5 0-1.2-.95-1.5-1.43-1.5H12Z" fill="#003E1E"/><path d="M22 35v-6l6 6h-6Z" fill="#4E8F6A"/><path d="M28 29h-6v-7h6.35c1.77 0 5.65.38 5.65 6.12C34 32.7 31.5 35 28 35v-6Z" fill="#003E1E"/><path d="M38 26h-3v9h7.65c4.2 0 5.35-1.88 5.35-4.5 0-2.1-1.02-2.88-1.53-3l-3.44 2.25c.64 0 1.91.23 1.91 1.13 0 .9-1.02 1.12-1.53 1.12H38v-6Z" fill="#116935"/><path d="M35 22v3h9.18c.25 0 .82.36.82 1s-.57 1-.82 1h-1.53l-3.06 3h3.82c3.06 0 4.59-1.6 4.59-4.8 0-2.65-2.3-3.2-3.82-3.2H35Z" fill="#4E8F6A"/><path d="M11 35V25l-3 3.08V35h3ZM19.08 25H11l3.08-3h5c.77 0 1.92.3 1.92 1.5S19.85 25 19.08 25Z" fill="#116935"/></svg>