<!-- by TradingView --><svg width="56" height="56" viewBox="0 0 56 56" xmlns="http://www.w3.org/2000/svg"><path fill="#F0F3FA" d="M0 0h56v56H0z"/><path d="M9.5 23v5l-1-1.7V23h1ZM5 29v-5l1 1.7V29H5Zm3.2 0L5 23h1.16l3.26 6H8.21Zm5.8-1.82h-2.47c0 .27.16.5.24.6l-.6.8c-.54-.32-.67-1.16-.67-1.54A1.96 1.96 0 0 1 12.12 25v.78c-.44.16-.58.6-.6.8h1.64c0-.5-.4-.74-.59-.8V25c1.1 0 1.41.9 1.43 1.35v.83Zm-.25 1.58a2.4 2.4 0 0 1-1.15.24c-.55 0-.88-.13-1.01-.22l.56-.72a1.97 1.97 0 0 0 1.79-.2l-.2.9Zm35.78-1.58H52v-.83c-.02-.45-.32-1.35-1.43-1.35v.78c.2.06.59.3.59.8h-1.63c.01-.2.15-.64.59-.8V25c-.54.08-1.62.6-1.62 2.04 0 .38.13 1.22.67 1.54l.6-.8a.93.93 0 0 1-.24-.6ZM50.6 29c.6 0 1.02-.16 1.15-.24l.18-.9a1.97 1.97 0 0 1-1.78.2l-.56.72c.13.09.46.22 1.01.22ZM15 25.2l1.03-.2 1.1 4H16.1L15 25.2Zm2.08 2 .35 1.17.54-1.72.66 2.35h.97l-1.14-3.64-.88.13-.5 1.7ZM21 25h-1l-.56 2.1.42 1.59L21 25Zm4.77-2 1.7 6h1.16l-1.83-6h-1.03Zm-1.07 6h-.98l1.72-5.74.45 1.65-.6 2.09h1.1l.26 1H25l-.29 1Zm9.06-3.78.12.69c.79-.26 1.08.28 1.12.58V29h1v-2.77c.01-1.26-1.25-1.46-2.24-1Zm-2.36.71.28-.9c.62-.1 1.86-.02 1.84 1.22V29h-1.01v-2.49c-.04-.3-.32-.83-1.11-.58Zm-1.4-.75V29h1v-3.97l-1 .15Zm12.39.75.28-.9c.62-.1 1.84-.02 1.83 1.22v2.73h-1v-2.47c-.04-.3-.32-.83-1.11-.58ZM41 25.15V29h1v-4l-1 .15Zm-3.74.96.14-.87c.14-.08.58-.24 1.13-.24.56 0 .8.11.84.17l-.53.7a2.1 2.1 0 0 0-1.57.24Zm1.9 0 .62-.79c.36.35.46.75.46.9v1.73c0 .35.33.34.5.3l-.17.65c-.07.03-.26.1-.47.1-.66 0-.81-.48-.8-.71v-.94h-.84c-.14 0-.5.08-.5.44s.3.45.6.45c.23 0 .38-.06.42-.1l-.3.8c-.1.02-.33.06-.53.06-.86 0-1.13-.7-1.15-1.05 0-.98.88-1.21 1.32-1.2h.98v-.33a.5.5 0 0 0-.15-.31ZM46.03 25v-1.2l1.01-.14V25H48v1h-2.56v-1h.6ZM46 26.5v1.46c.02.32.26.96 1.1.96.3 0 .63-.13.76-.2l.14-.9a.75.75 0 0 1-.54.21c-.36 0-.46-.15-.46-.55v-.98h-1Z"/></svg>