<!-- by TradingView --><svg width="56" height="56" viewBox="0 0 56 56" xmlns="http://www.w3.org/2000/svg"><path fill="#F0F3FA" d="M0 0h56v56H0z"/><path d="M20.95 32 15 22h7.27l3.99 6.77 2.27-3.48 2.22 3.41L34.7 22h7.27l-5.95 10h-4.58l-2.9 4.73L25.57 32h-4.62Zm4.89-.46 2.7 4.3 2.64-4.3h4.57l5.4-9.09h-6.17l-4.2 7.15-2.25-3.44-2.3 3.5L22 22.46h-6.17l5.4 9.09h4.62Z" fill="#C42C3E"/><path d="M28.51 27 31 31l-2.49 4L26 31l2.51-4Z" fill="#C42C3E"/><path fill-rule="evenodd" d="M46 28c0-8.14-11.82-11-18-11-6.23 0-18 2.88-18 11 0 8.12 11.77 11 18 11 6.17 0 18-2.91 18-11ZM28 40c10.5 0 19-5.37 19-12s-8.5-12-19-12S9 21.37 9 28s8.5 12 19 12Z" fill="#C42C3E"/><path d="M17 23h4.5l1.97 3.5h-4.5L17 23Zm2.53 4.5L21.5 31H26l-1.97-3.5h-4.5ZM40 23h-4.5l-1.97 3.5h4.5L40 23Zm-2.53 4.5L35.5 31H31l1.97-3.5h4.5Z" fill="#C42C3E"/></svg>