<!-- by TradingView --><svg xmlns="http://www.w3.org/2000/svg" width="56" height="56" viewBox="0 0 56 56"><path fill="#F0F3FA" d="M0 0h56v56H0z"/><path d="M40.83 12c-8.21 1.01-16.6 3.78-17.16 12.17-.26 3.92.92 6.86 2.25 9.7A17.77 17.77 0 0 0 11 28.48c4.12 1.2 8.97 3.48 11.58 6.5.56.64 1.36 1.76 1.17 2.7-.31 1.6-3.18 1.27-4.91 1.36 3.6 1.47 7.62 4.13 12.75 3.96 2.56-.08 4.45-1.68 4.25-4.64-.36-5.32-4.19-9.87-4.59-15.88-.44-6.78 4.2-9.27 9.42-10.38.1.03.27 0 .32-.03.03-.03 0-.06-.14-.06h-.02z" fill="url(#anbduwadu)"/><defs><linearGradient id="anbduwadu" x1="37.55" y1="33.56" x2="24.32" y2="20.02" gradientUnits="userSpaceOnUse"><stop stop-color="#FDB913"/><stop offset=".22" stop-color="#E5A521"/><stop offset=".51" stop-color="#CE9130"/><stop offset=".77" stop-color="#C08538"/><stop offset="1" stop-color="#BB813B"/></linearGradient></defs></svg>