<!-- by TradingView --><svg width="56" height="56" viewBox="0 0 56 56" xmlns="http://www.w3.org/2000/svg"><path fill="#F0F3FA" d="M0 0h56v56H0z"/><path d="M17.16 18.51a14.2 14.2 0 0 1 9.58-4.87c.28-.03.5.03.65.2l.58.46c.05.05.1.04.15 0l.61-.62a.2.2 0 0 1 .17-.06c2 .13 3.85.64 5.55 1.51l.88.45c.05.02.09.02.12-.01l1.77-1.77v-.02a.05.05 0 0 0 0-.04l-.01-.01c-3.28-2.11-6.87-3-10.8-2.66a17.08 17.08 0 0 0-13.05 8.3 16.57 16.57 0 0 0-2.23 10.75c.32 2.74 1.32 5.3 3 7.68a16.62 16.62 0 0 0 2.82 3.08c.02 0 .03 0 .05-.02l6.94-7.1a.18.18 0 0 0 .06-.13v-8.97c0-.07.04-.11.11-.11h2.82c.01 0 .03 0 .04.02.02 0 .03.03.03.04v2.76a.06.06 0 0 0 .02.03h2.37c.04 0 .08-.01.1-.04a.15.15 0 0 0 .05-.1v-5.2a.07.07 0 0 0-.02-.04.06.06 0 0 0-.04-.02h-7.95c-.05 0-.08.03-.08.08v10.36a.5.5 0 0 1-.14.36l-4.27 4.41a.09.09 0 0 1-.06.03.09.09 0 0 1-.07-.04l-1.39-2.01a14.8 14.8 0 0 1-1.91-5.99c-.02-.2.05-.4.21-.58l.5-.57a.1.1 0 0 0 0-.14l-.63-.63a.2.2 0 0 1-.06-.16 14.43 14.43 0 0 1 3.53-8.61Z" fill="url(#a)"/><path d="m34.6 23.28 4.41-4.56a14.5 14.5 0 0 1 3.37 8.36.2.2 0 0 1-.06.17l-.63.64a.16.16 0 0 0 0 .22l.64.64c.04.04.06.1.05.15a14.31 14.31 0 0 1-3.73 8.79 14.27 14.27 0 0 1-9.77 4.7l-.82-.7c-.04-.03-.09-.03-.13.01-.21.2-.43.38-.65.57-.1.08-.25.11-.42.1a17.7 17.7 0 0 1-2.77-.5 15.75 15.75 0 0 1-3.41-1.46c-.05-.03-.1-.02-.13.02l-1.77 1.77c-.03.03-.03.05.01.08a16.92 16.92 0 0 0 13.15 2.26c3.6-.88 6.61-2.75 9.04-5.59a16.99 16.99 0 0 0-.6-22.57l-1.28-1.23c-.04-.04-.08-.04-.12 0l-6.87 7.02a.38.38 0 0 0-.11.27v8.93a.1.1 0 0 1-.1.1h-2.32c-.08 0-.11-.04-.11-.12V28.7a.1.1 0 0 0-.1-.1h-2.3c-.05 0-.07.03-.07.07V33.98c.01.02.02.02.04.02h7.36a.14.14 0 0 0 .13-.09.14.14 0 0 0 .01-.05V23.45c0-.06.02-.12.07-.17Z" fill="url(#b)"/><defs><linearGradient id="a" x1="13.75" y1="26.09" x2="42.69" y2="29.88" gradientUnits="userSpaceOnUse"><stop stop-color="#C49D78"/><stop offset="1" stop-color="#F2CEA1"/></linearGradient><linearGradient id="b" x1="13.75" y1="26.09" x2="42.69" y2="29.88" gradientUnits="userSpaceOnUse"><stop stop-color="#C49D78"/><stop offset="1" stop-color="#F2CEA1"/></linearGradient></defs></svg>