<!-- by TradingView --><svg width="56" height="56" viewBox="0 0 56 56" xmlns="http://www.w3.org/2000/svg"><path fill="#F0F3FA" d="M0 0h56v56H0z"/><path fill-rule="evenodd" d="M8 38.1 9.9 40h7.83l1.06-7.97-1.27-1.56L18.8 24h1.9l3.58 14.53L25.6 40h6.83l-8.17-22.18L22.04 16h-6.03L8 38.1Zm1.5-.1h6.72l1-6.12-1.61-1.62L17.22 22h3.72L25 38h5l-7.95-21h-5.33L9.5 38Zm23.94.64L24.55 16h6l2.9 2.84L36.38 31h1.28l3.6-15H47l1 1.48L40.28 40h-5.73l-1.1-1.36Zm.67-.64L26.4 17h4l4.22 15h4.06l3.39-15h4l-7 21H34.1Z" fill="#EF443A"/></svg>