<!-- by TradingView --><svg width="56" height="56" viewBox="0 0 56 56" xmlns="http://www.w3.org/2000/svg"><path fill="#F0F3FA" d="M0 0h56v56H0z"/><path fill-rule="evenodd" d="M19.21 12A7.21 7.21 0 0 0 12 19.21V36.8A7.21 7.21 0 0 0 19.21 44H36.8A7.21 7.21 0 0 0 44 36.79V19.2A7.21 7.21 0 0 0 36.79 12H19.2ZM14 19.66a3 3 0 1 1 6 0V26a3 3 0 1 1-6 0v-6.34Zm2 .34a1 1 0 1 1 2 0v6a1 1 0 1 1-2 0v-6Zm26 6a4 4 0 0 0-4-4h-1v-3.5a1.5 1.5 0 0 0-3 0V22h-5v2h9a2 2 0 1 1 0 4h-9v2h9a4 4 0 0 0 4-4Zm-3 0a1 1 0 0 0-1-1h-9v2h9a1 1 0 0 0 1-1Zm-.55-5.45c.6.6 1.56.6 2.16 0l1.39-1.4L39.84 17l-1.4 1.4c-.59.59-.59 1.56 0 2.15Zm-8.06 0a1.53 1.53 0 0 0 2.16-2.16L31.15 17 29 19.16l1.4 1.4ZM26.85 17H20v2h4v7.6c0 .77-.63 1.4-1.41 1.4H20v2h2.24A3.75 3.75 0 0 0 26 26.26V19h.85c.63 0 1.15-.45 1.15-1s-.52-1-1.15-1ZM33 31.46V32h-4v5.83l-.05.3a4.1 4.1 0 0 1-.53 1.76l.64.46c.5-.7.8-1.61.94-2.45V36h3v.5h-2v.83h2v.53c-.02.21-.38.43-.63.57l-.14.08-1.15-1.17-.56.56 1 1.02c-.48.25-.98.46-1.35.59l.27.74a12.6 12.6 0 0 0 2.17-1.03c.14-.07.29-.14.39-.22v.27c-.03.26-.16.73-.33.94a.77.77 0 0 1-.2-.18l-.6.51c.21.24.46.43.75.46.88 0 1.32-.94 1.38-1.7v-.7l2.42 1.85.44-.65-1.5-1.02.79-.9-.6-.52-.84.98-.71-.68v-.33h2.25V36H37v-1h-.76v-1.5H34V33h3v-1h-3v-.54h-1ZM30 33h3v.5h-2v1h2v.5h-3v-2Zm4 2v-.5h1.46v.5H34Zm0 1h1.46v.5H34V36Zm-13.27-1.81v1.63c.65-.87 1.06-1.8 1.46-2.82h-.91v-1h1.99l-.17.51c-.28.86-.54 1.67-1 2.49h.9c0 1.26-.07 2.43-.44 3.64l.18.33c.21.45.5 1.03.9 1.03H27v1h-3.35c-.5 0-.9-.65-1.2-1.14l-.21-.32-.13.33c-.17.4-.35.87-.57 1.13l-.53-.59c.27-.31.49-.95.67-1.47a58 58 0 0 1 .07-.19 15.2 15.2 0 0 1-.8-1.7l.66-.34c.1.27.26.63.44 1 .14-.6.23-1.25.28-1.71h-1.6v5H20v-5.53l-.46.61-.54-.56c.14-.19.37-.49.58-.8.2-.3.37-.56.44-.72.1-.5.28-1.48.28-2h.73c0 .63-.2 1.7-.3 2.19Zm4.6-2.19v.55h-.86v.75h.86v.52H24v.75h1.33v.68h-.86V36h.86v.5h-1.14v.75h1.14V38H24v.75h1.33V39H26v-.25h2V38h-2v-.75h1.46v-.75H26V36h2v-1.43h.24v-.75H28v-1.27h-2V32h-.67Zm.67 1.82v-.52h1.24v.52H26Zm0 .75h1.24v.68H26v-.68Z" fill="#DD202C"/></svg>