<!-- by TradingView --><svg width="56" height="56" viewBox="0 0 56 56" xmlns="http://www.w3.org/2000/svg"><path fill="#F0F3FA" d="M0 0h56v56H0z"/><path d="M39.54 19.35c-.03.02-.06.03-.1.02a8.77 8.77 0 0 0-2.55-.2c-.4.04-.8.05-1.21.06-2.51-.6-5-.9-7.45-.9-2.66 0-5.13.33-7.42 1.02-2.03.6-3.78 1.51-5.25 2.7a8.75 8.75 0 0 0-3.21 4.87c-.2.9-.2 1.78 0 2.61.23.95.7 1.64 1.39 2.1 2 1.3 4.1 1.43 6.34.4 1.8-.84 3.48-2.3 5-4.39h.14c.05.04.06.09.03.14-.38.7-1.13 2.26-2.25 4.67a7.3 7.3 0 0 1-1.87 2.49 6.29 6.29 0 0 1-4.66 1.54h-.29c-1.29-.4-2.45-.97-3.47-1.7a9.2 9.2 0 0 1-2.61-2.82 7.3 7.3 0 0 1 .97-8.96 14.92 14.92 0 0 1 4.83-3.5 23.98 23.98 0 0 1 5.78-1.88c2.99-.59 5.95-.76 8.91-.51 3.05.25 5.94.93 8.67 2.03.08.03.17.1.28.21Z" fill="#18397A"/><path d="M21 18.1c.15-.02.28-.05.36-.08.4-.16.8-.24 1.2-.26.06 0 .1.02.1.08v.05a25.7 25.7 0 0 0-6.1 1.93c-.98.44-1.97 1-2.98 1.7l-.97.8a8.37 8.37 0 0 0-2.93 5.03c-.1.6-.07 1.3.09 2.1.15.77.37 1.43.67 1.96.01.03 0 .05-.01.06-.02.02-.04.01-.06 0a2.84 2.84 0 0 1-.32-.52l-.2-.62a7.68 7.68 0 0 1-.36-1.4 6.87 6.87 0 0 1 .93-4.36 12.33 12.33 0 0 1 4.03-3.87c.5-.3.85-.53 1.06-.7a27.91 27.91 0 0 0 1.37-.62 18.36 18.36 0 0 1 1.91-.7c.26-.12.64-.23 1.12-.32l.58-.13.5-.13Z" fill="#7179A8"/><path d="M39.53 19.35c.04 0 .08.06.13.18a7.33 7.33 0 0 0-3.19.55c-.73.31-1.4.78-2.02 1.4-.6.6-1.08 1.28-1.43 2.03-.88 1.83-1.62 3.35-2.23 4.55a.1.1 0 0 1-.1.06.1.1 0 0 1-.1-.07l-.04-.08.21-.35c.2-.33.35-.59.43-.77l1.01-2.2c.07-.14.04-.25-.07-.35a5.53 5.53 0 0 0-2.34-1.16.15.15 0 0 0-.16.05A54.97 54.97 0 0 1 28.07 25c-.2.2-.44.51-.73.96l-.68.99c-.43.6-.84 1.4-1.26 2.41-.02.06 0 .1.04.12l3.11 1.79a13.5 13.5 0 0 1-6.03 4.7c-.33.13-.8.26-1.4.39l-.55.12a.28.28 0 0 0-.13.07c-.08.08-.1.17-.02.26-.19 0-.47 0-.84.03-.48.02-.83.03-1.05.02-.63-.02-1.28-.06-1.95-.12a1.4 1.4 0 0 1-.4-.25l.3-.01a6.28 6.28 0 0 0 4.65-1.55 7.3 7.3 0 0 0 1.86-2.48c1.13-2.41 1.88-3.97 2.26-4.67.03-.05.02-.1-.03-.13-.02-.02-.06-.02-.13 0 .2-.33.56-.8 1.08-1.4l.48-.59a54.2 54.2 0 0 1 1.63-2.03 12.61 12.61 0 0 1 4.73-3.5 12.98 12.98 0 0 1 2.64-.7c.08-.02.1-.06.06-.13l-.03-.07c.4 0 .8-.02 1.2-.05.87-.06 1.72 0 2.56.2a.1.1 0 0 0 .1-.03Z" fill="#BEC1C1"/><path d="M16.58 36.74c.68.06 1.32.1 1.95.12.22 0 .57 0 1.05-.02l.84-.03c5.67 1.26 10.77 1.16 15.3-.33a13.75 13.75 0 0 0 5.67-3.42c1.79-1.82 2.57-3.83 2.35-6.02a3.92 3.92 0 0 0-.5-1.54 3.2 3.2 0 0 0-1.06-1.16 6.15 6.15 0 0 0-6.41-.28c-1.14.57-2.1 1.26-2.91 2.07a45.37 45.37 0 0 0-3.6 4.27l1.3-2.43.03.08a.1.1 0 0 0 .1.07.1.1 0 0 0 .1-.06 201 201 0 0 0 2.23-4.55c.36-.75.83-1.43 1.43-2.03.62-.62 1.3-1.09 2.02-1.4.97-.41 2.03-.6 3.19-.55 1.81.47 3.36 1.32 4.65 2.56a8.4 8.4 0 0 1 2.57 4.52c.32 1.7 0 3.4-.98 5.08-.8 1.38-2.1 2.63-3.88 3.75a22.53 22.53 0 0 1-6.45 2.67 32.05 32.05 0 0 1-17.1-.59c-.72-.23-1.35-.49-1.89-.78Z" fill="#39927F"/><path d="M41.27 23.25c.03.02.04.04.02.08-.02.03-.04.04-.07.02a6.6 6.6 0 0 0-4.8-.11c-.4.14-1 .47-1.79.98-.03.02-.05.02-.07 0l-.04-.05c-.01-.02-.01-.03.01-.05.52-.34 1.05-.66 1.58-.97a5.08 5.08 0 0 1 2.58-.67c1 0 1.85.26 2.58.77Z" fill="#419C84"/><path d="m30.55 27.97-1.29 2.43c-.27.22-.5.51-.71.87l-3.1-1.79c-.06-.02-.07-.06-.05-.12.42-1 .83-1.8 1.26-2.41.36-.52.6-.85.68-1 .29-.44.53-.75.73-.95.12-.12.64-.72 1.56-1.8.04-.06.1-.07.16-.06.89.21 1.67.6 2.34 1.16.11.1.14.21.07.35l-1.01 2.2a7.67 7.67 0 0 1-.64 1.12Z" fill="url(#a)"/><path d="M14.93 32.79c.82.28 1.45.42 1.9.43 1.02 0 1.99-.19 2.9-.58.78-.34 1.63-.87 2.54-1.6h.05c.02.03.02.05 0 .07a8.54 8.54 0 0 1-3.5 2.18 5.05 5.05 0 0 1-3.93-.42v-.06c.01-.02.02-.03.04-.02Z" fill="#7179A8"/><defs><linearGradient id="a" x1="32.61" y1="24.25" x2="28.84" y2="31.28" gradientUnits="userSpaceOnUse"><stop offset=".04" stop-color="#BEC1C1"/><stop offset=".57" stop-color="#999"/><stop offset="1" stop-color="#BEC1C1"/></linearGradient></defs></svg>