<!-- by TradingView --><svg width="56" height="56" viewBox="0 0 56 56" xmlns="http://www.w3.org/2000/svg"><path fill="#F0F3FA" d="M0 0h56v56H0z"/><path fill-rule="evenodd" d="M7 22h3.4c.88 0 1.6.8 1.6 1.77v1.05c0 .62-.28 1.16-.72 1.48.44.34.72.94.72 1.61v1.15c0 1.07-.72 1.94-1.6 1.94H7v-9Zm1.5 1.5h2v2h-2v-2Zm0 4h2v2h-2v-2Zm3.6-2.5h1.43l1.19 3.2 1.21-3.2h1.48l-3.48 9h-1.4l1.55-4.1-1.99-4.9Zm5.9-3v9h4.43v-1.28H19.4V22H18Zm6.47 3A1.5 1.5 0 0 0 23 26.52v2.96c0 .84.66 1.52 1.47 1.52h1.56a1.5 1.5 0 0 0 1.47-1.52v-.29H26V30h-1.5v-1.6h3v-1.88A1.5 1.5 0 0 0 26.03 25h-1.56ZM26 27.42V26h-1.5v1.42H26ZM31.03 31H33v-1h-.59c.06-.16.09-.34.09-.52v-2.95A1.5 1.5 0 0 0 31.03 25h-1.56A1.5 1.5 0 0 0 28 26.53V27h1.5v-1H31v1.5h-3v1.98c0 .84.66 1.52 1.47 1.52h1.56Zm-1.53-2.5V30H31v-1.5h-1.5ZM38 25h-3.67a.83.83 0 0 0-.83.84v1.96c0 .46.37.7.83.7h2.17V30h-3v1h3.67c.46 0 .83-.37.83-.84v-1.83a.83.83 0 0 0-.83-.83H35V26h3v-1Zm2 0h-1.5v6H40v-6Zm3.74 0H40.5v6H42v-5h1.5v5H45v-4.7c0-.72-.57-1.3-1.26-1.3ZM50 25h-3.24c-.7 0-1.26.58-1.26 1.3v3.4c0 .72.56 1.3 1.26 1.3h1.74v2H47v-.67h-1.5v.52c0 .64.72 1.15 1.3 1.15h2.17c.57 0 1.03-.51 1.03-1.15V25Zm-1.5 1H47v4h1.5v-4Z" fill="#403A3A"/><path d="M25.52 18c-6.15 0-11.3 2.43-13.1 3.64 2.52-.85 7.22-2.57 13.1-2.57 4.43 0 10.2 1.9 12.54 2.85-1.62-1.3-6.38-3.92-12.54-3.92Z" fill="#E8192D"/><ellipse cx="39.12" cy="23" rx=".75" ry=".76" fill="#E8192D"/></svg>