<!-- by TradingView --><svg width="56" height="56" viewBox="0 0 56 56" xmlns="http://www.w3.org/2000/svg"><path fill="#F0F3FA" d="M0 0h56v56H0z"/><path d="M22.7 30h1.27l1.5 2.65h.07L27.05 30h1.27L26 33.76V36h-1v-2.24L22.7 30ZM22 30v6h-1v-6h1ZM19 30h1v3.86c0 1.39-1.22 2.14-2.5 2.14s-2.5-.75-2.5-2.14V30h1v3.77c0 .79.75 1.27 1.5 1.27s1.5-.48 1.5-1.27V30ZM33 30h1v3.86c0 1.39-1.22 2.14-2.5 2.14s-2.5-.75-2.5-2.14V30h1v3.77c0 .79.75 1.27 1.5 1.27s1.5-.48 1.5-1.27V30ZM10 36v-6h2.25c.46 0 .84.08 1.16.24.31.16.55.39.7.67.17.3.25.63.25 1 0 1.25-.96 2.09-2.13 2.09h-1.6v-1h1.46c.64 0 1.16-.28 1.16-.98S12.73 31 12.08 31H11v5h-1Zm3.1-2.72L14.58 36h-1.21l-1.46-2.72h1.19ZM47.91 22.94c-.05-.15-.13-.29-.23-.4-.32-.43-1.06-.59-1.57-.59-1.18 0-2.11.92-2.11 2.04 0 1.16.94 2.06 2.14 2.06.85 0 1.86-.42 1.86-1.36h.1-1.84v-.83H49v.7a2.26 2.26 0 0 1-1.39 2.15c-.43.2-.92.29-1.48.29-1.77 0-3.13-1.18-3.13-3 0-1.24.67-2.36 1.87-2.8a3.69 3.69 0 0 1 2.27-.06c.32.1.61.23.86.4s.46.38.62.62c.17.24.27.5.32.78h-1.03ZM42 21v6h-.98l-2.87-4.09H38V27h-1v-6h.99l2.86 4.09H41V21h1ZM46 30v6h-.98l-2.87-4.09H42V36h-1v-6h.99l2.86 4.09H45V30h1ZM32.14 27H31l2.07-6h1.32l2.08 6h-1.14l-1.57-4.77h-.05L32.14 27Zm.04-2.35h3.1v.87h-3.1v-.87ZM35.6 36h-1.13l2.07-6h1.32l2.07 6H38.8l-1.58-4.77h-.04L35.6 36Zm.04-2.35h3.1v.87h-3.1v-.87ZM30 21v6h-1v-6h1ZM27 21h1v4.16c0 1.17-.93 1.84-2.04 1.84-.37 0-.7-.06-1-.18a1.6 1.6 0 0 1-.7-.56 1.54 1.54 0 0 1-.26-.91h1.14c0 .16.04.3.11.41.07.12.18.2.3.27.14.06.28.09.45.09.48 0 1-.46 1-.96V21ZM19 27v-6h4v1h-3v1.54h2.77v.91H20V26h3v1h-4ZM13 27v-6h1v2.54h3V21h1v6h-1v-2.55h-3V27h-1ZM7 27v-.68L10.47 22H7v-1h5v.68L8.53 26H12v1H7Z"/></svg>