<!-- by TradingView --><svg width="56" height="56" viewBox="0 0 56 56" xmlns="http://www.w3.org/2000/svg"><path fill="#F0F3FA" d="M0 0h56v56H0z"/><path d="M15 15h-3v26h3V15Zm29 0h-3v26h3V15Zm-18.38 0H17v3h7v6h-3v-2h-3v3.59c0 .78.62 1.41 1.38 1.41H27V16.41A1.4 1.4 0 0 0 25.62 15ZM17 41h8.62A1.4 1.4 0 0 0 27 39.59V29h-7.62A1.4 1.4 0 0 0 18 30.41V34h3v-2h3v6h-7v3Zm13.38-26H39v3h-7v6h3v-2h3v3.59a1.4 1.4 0 0 1-1.38 1.4H29V16.42c0-.78.62-1.41 1.38-1.41ZM39 41h-8.62A1.4 1.4 0 0 1 29 39.59V29h7.62c.76 0 1.38.63 1.38 1.41V34h-3v-2h-3v6h7v3Z" fill="#DF0530"/></svg>