<!-- by TradingView --><svg width="56" height="56" viewBox="0 0 56 56" xmlns="http://www.w3.org/2000/svg"><path fill="#181B1E" d="M0 0h56v56H0z"/><path d="M26 18h-5c.84 0 4.03.8 8.06 9.32 3.23 6.83 5.96 8.63 7.13 8.68H41c-2.19 0-5.16-4.76-8.6-11.26C29.67 19.54 27 18.08 26 18Z" fill="url(#a)"/><path d="M36.19 36H37c-2.19 0-5.16-4.76-8.6-11.26C25.67 19.54 23 18.08 22 18h-1c.84 0 4.03.8 8.06 9.32 3.23 6.83 5.96 8.63 7.13 8.68Z" fill="url(#b)"/><path d="M34 18h-5c.84 0 4.03.8 8.06 9.32 3.23 6.83 5.96 8.63 7.13 8.68H49c-2.19 0-5.16-4.76-8.6-11.26C37.67 19.54 35 18.08 34 18Z" fill="url(#c)"/><path d="M44.19 36H45c-2.19 0-5.16-4.76-8.6-11.26C33.67 19.54 31 18.08 30 18h-1c.84 0 4.03.8 8.06 9.32 3.23 6.83 5.96 8.63 7.13 8.68Z" fill="url(#d)"/><path d="M29.25 18H34c-.8 0-3.83.8-7.66 9.32-3.06 6.83-5.66 8.63-6.77 8.68H15c2.08 0 4.9-4.76 8.16-11.26 2.62-5.2 5.15-6.66 6.09-6.74Z" fill="url(#e)"/><path d="M21.25 18H26c-.8 0-3.83.8-7.66 9.32-3.06 6.83-5.66 8.63-6.77 8.68H7c2.08 0 4.9-4.76 8.16-11.26 2.62-5.2 5.15-6.66 6.09-6.74Z" fill="url(#f)"/><path d="M11.57 36h-.77c2.08 0 4.9-4.76 8.16-11.26 2.62-5.2 5.15-6.66 6.09-6.74H26c-.8 0-3.83.8-7.66 9.32-3.06 6.83-5.66 8.63-6.77 8.68Z" fill="url(#g)"/><defs><linearGradient id="a" x1="31" y1="18" x2="31" y2="36" gradientUnits="userSpaceOnUse"><stop offset=".17" stop-color="#002B27"/><stop offset=".86" stop-color="#49B9BB"/></linearGradient><linearGradient id="b" x1="29" y1="18" x2="29" y2="36" gradientUnits="userSpaceOnUse"><stop offset=".06" stop-color="#012B28"/><stop offset=".36" stop-color="#F8F9F3"/><stop offset=".78" stop-color="#63BFC5"/></linearGradient><linearGradient id="c" x1="39" y1="18" x2="39" y2="36" gradientUnits="userSpaceOnUse"><stop offset=".17" stop-color="#002B27"/><stop offset=".86" stop-color="#49B9BB"/></linearGradient><linearGradient id="d" x1="37" y1="18" x2="37" y2="36" gradientUnits="userSpaceOnUse"><stop offset=".06" stop-color="#012B28"/><stop offset=".36" stop-color="#F8F9F3"/><stop offset=".78" stop-color="#63BFC5"/></linearGradient><linearGradient id="e" x1="24.5" y1="18" x2="24.5" y2="36" gradientUnits="userSpaceOnUse"><stop offset=".17" stop-color="#E2DD05"/><stop offset=".86" stop-color="#527B05"/></linearGradient><linearGradient id="f" x1="16.5" y1="18" x2="16.5" y2="36" gradientUnits="userSpaceOnUse"><stop offset=".17" stop-color="#E2DD05"/><stop offset=".86" stop-color="#527B05"/></linearGradient><linearGradient id="g" x1="18.4" y1="18" x2="18.4" y2="36" gradientUnits="userSpaceOnUse"><stop offset=".12" stop-color="#8BBD02"/><stop offset=".72" stop-color="#F8F9F3"/><stop offset="1" stop-color="#D5DE00"/></linearGradient></defs></svg>