<!-- by TradingView --><svg width="56" height="56" viewBox="0 0 56 56" xmlns="http://www.w3.org/2000/svg"><path fill="#F0F3FA" d="M0 0h56v56H0z"/><path d="M34.5 26.18s14.36-.74 17.5 3.27c0 0-1.6-2.7-17.5-3.27ZM6.37 28.17s7.45-4.54 18.91-2.57c0 0-8.91-1.59-18.91 2.57ZM31.67 21.24s-7.7-4.3-20.34 3.1c0 0 10.22-5.45 20.34-3.1ZM31.43 21.79l6.99 3.83h2l-8.2-3.83h-.8Z" fill="#005EAC"/><path d="M12.48 32c-.5 0-.95-.05-1.36-.15-.41-.1-.79-.25-1.12-.46l.6-.52c.26.16.55.28.86.36a4.1 4.1 0 0 0 2.18-.07c.27-.14.4-.32.4-.56a.5.5 0 0 0-.2-.43c-.14-.1-.32-.18-.54-.22a7.96 7.96 0 0 0-.74-.12l-.78-.12c-.26-.04-.5-.1-.72-.2-.22-.09-.4-.22-.53-.39-.14-.17-.2-.4-.2-.68 0-.46.2-.81.63-1.06a3.55 3.55 0 0 1 1.8-.38 4.62 4.62 0 0 1 2.1.51l-.54.55a3.3 3.3 0 0 0-1.56-.41c-.47 0-.83.06-1.1.2-.25.13-.38.32-.38.57 0 .18.07.32.22.42.15.1.35.16.6.21.24.05.5.1.78.13l.75.13c.25.05.48.13.69.22.2.1.37.23.5.4.12.16.18.38.18.64v.01c0 .45-.22.8-.66 1.05-.44.25-1.06.37-1.86.37Z" fill="#005EAC"/><path d="m17.71 32 2.68-5h.87l2.68 5h-1.1l-2.01-4.03L18.8 32h-1.1Z" fill="#439841"/><path d="M28 32h1v-5h-1v5ZM37 30.3l2.07-3.3H40v5h-1v-3.46l-1.66 2.77h-.69L35 28.54V32h-1v-5h.93L37 30.3ZM4 30.72l4.26.22-.38.3L4 30.71ZM45.5 31.32c.45 0 .8-.1 1.07-.3.27-.2.43-.47.43-.8v-1.44c0-.33-.16-.6-.43-.8-.27-.2-.62-.3-1.07-.3-.45 0-.8.1-1.07.3a.98.98 0 0 0-.43.8v1.44c0 .33.16.6.43.8.27.2.62.3 1.07.3Zm0 .68c-.5 0-.94-.07-1.32-.22a2 2 0 0 1-.87-.64c-.2-.27-.31-.58-.31-.95v-1.38c0-.37.1-.68.31-.95a2 2 0 0 1 .87-.64c.38-.15.82-.22 1.32-.22.5 0 .94.07 1.32.22a2 2 0 0 1 .87.64c.2.27.31.58.31.95v1.38c0 .37-.1.68-.31.95a2 2 0 0 1-.87.64c-.38.15-.82.22-1.32.22Z" fill="#005EAC"/></svg>