<!-- by TradingView --><svg width="56" height="56" viewBox="0 0 56 56" xmlns="http://www.w3.org/2000/svg"><path fill="#F0F3FA" d="M0 0h56v56H0z"/><path d="M16 31.89c0-3.4 1.87-6 2.8-6.89-.55 6.93 11.4 11.5 14.82 11.5 2.75 0 4.06-.93 4.38-1.5-1.5 5.5-4.73 9-8.32 9C20.85 43.33 16 36.12 16 31.89Z" fill="url(#a)"/><path d="M24.74 11.82c4.71 0 8.15 3.47 9.26 5.18-3.93-2.41-18.5 5.46-18.5 14.88C15.5 40.43 27.11 45.7 32 44c-.76.3-2.45.99-3.49.99C19.05 45 11 37.14 11 28s7.85-16.18 13.74-16.18Z" fill="url(#b)"/><path d="M32 44c2.85-1.66 7-5.84 7-13.2 0-9.6-4.1-18.4-14.22-19.5A16.92 16.92 0 0 1 45 27.84C45 35.75 39.41 42.2 32 44Z" fill="url(#c)"/><defs><linearGradient id="a" x1="16.79" y1="35.01" x2="36.62" y2="37.21" gradientUnits="userSpaceOnUse"><stop stop-color="#4C2988"/><stop offset=".21" stop-color="#28489F"/><stop offset="1" stop-color="#4AAFDD"/></linearGradient><linearGradient id="b" x1="28.04" y1="11.86" x2="27.15" y2="45" gradientUnits="userSpaceOnUse"><stop stop-color="#8F333F"/><stop offset=".75" stop-color="#FBD268"/><stop offset="1" stop-color="#F58431"/></linearGradient><linearGradient id="c" x1="26.55" y1="11" x2="34.75" y2="44.23" gradientUnits="userSpaceOnUse"><stop stop-color="#90CF70"/><stop offset=".2" stop-color="#BFD14F"/><stop offset=".86" stop-color="#007D37"/></linearGradient></defs></svg>