<!-- by TradingView --><svg width="56" height="56" viewBox="0 0 56 56" xmlns="http://www.w3.org/2000/svg"><path fill="#F0F3FA" d="M0 0h56v56H0z"/><path fill-rule="evenodd" d="M28 45V28.83c0-.84.34-1.61 1.09-2.03l10.24-5.37c.74-.42 1.67.1 1.67.93v2.15c0 .73-.39 1.4-1.03 1.8l-7.08 3.84c-.55.34-.89.92-.89 1.56v1.99c0 .53.6.85 1.07.58l7.43-3.92c.22-.12.5.03.5.28v2.87c0 .73-.39 1.4-1.03 1.8l-7.21 4.06c-.47.29-.76.78-.76 1.32V44l9.97-5.45c1.68-.96 2.03-2.71 2.03-4.6V22.16a5.32 5.32 0 0 0-2.85-4.67l-11.03-5.93a4.72 4.72 0 0 0-4.48.01l-10.83 5.9A5.32 5.32 0 0 0 12 22.15V34.1c0 1.92 1.07 3.7 2.81 4.65l10.67 5.83c.5.28 1.07.42 1.64.42H28Zm-3-5.76V28.3c-.04-.65-1.13-1.96-3.1-2.29-.8 0-.9.64-.9 1.5v5.75c-.04.27-.23.81-.75.81-.63 0-1.25-1.27-1.25-2.57v-6.57c0-1.35.54-2.6 1.8-3.24l6.38-3.4c.22-.1.82-.28 1.43-.28.77 0 1.06.54 1.06.78s-.44.57-1.06.93l-1.02.62c-1.15.7-2.95 1.81-4.02 2.4-.19.1-.57.4-.57.74 0 .42.95 1.53 2.5 1.53 1.05 0 2.48-.9 3.26-1.4l.21-.13c.56-.35 5.05-2.71 7.22-3.85.27-.16.81-.57.81-.85 0-.34-.43-.58-2.12-1.5l-.24-.13c-1.13-.62-3.28-1.83-4.88-2.75a2.91 2.91 0 0 0-2.8-.05L16.4 20.02A2.6 2.6 0 0 0 15 22.3v11.46c0 .79.2 1.5.92 1.9l7.86 4.24c.54.29 1.22-.07 1.22-.66Z" fill="#CCA540"/></svg>