<!-- by TradingView --><svg xmlns="http://www.w3.org/2000/svg" width="56" height="56"><path fill="#F0F3FA" d="M0 0h56v56H0z"/><path d="M21.23 14.75C21.15 24 22.3 29.5 22.87 30.89h10.85c.68-4.25.96-12.53 1.02-16.14A1.56 1.56 0 0033.3 13H22.7c-1.35.14-1.47 1.07-1.47 1.75z" fill="url(#asmqjia0u)"/><path d="M15.36 17h7.95c.18 4.43 1.25 13.13 1.7 16h-4.83l-4.54-1.68c-1.35-5.83-1.9-11.42-1.87-12.58.02-1.41 1.07-1.75 1.6-1.74z" fill="url(#bsmqjia0u)"/><path d="M22.82 31a94.97 94.97 0 01-1.55-14h2.04c.15 3.66.92 10.25 1.43 14h-1.92z" fill="url(#csmqjia0u)"/><path d="M40.64 17h-7.95a199.29 199.29 0 01-1.7 16h4.83l4.54-1.68c1.35-5.83 1.9-11.42 1.87-12.58-.02-1.41-1.07-1.75-1.6-1.74z" fill="url(#dsmqjia0u)"/><path d="M11.82 23h7.27c1 4.1 3.66 10.26 4.87 12.7l-7.88 1.21-2.62-3c-.8-2.12-2.5-6.79-2.86-8.54-.36-1.75.66-2.39 1.22-2.37z" fill="url(#esmqjia0u)"/><path d="M44.18 23h-7.27c-1 4.1-3.66 10.26-4.87 12.7l7.88 1.21 2.62-3c.8-2.12 2.5-6.79 2.86-8.54.36-1.75-.66-2.39-1.22-2.37z" fill="url(#fsmqjia0u)"/><path d="M11.09 31h8.27c1.3 2.64 4.25 6.44 5.57 8.02l-3.32 3.51c-6.57-2.26-10.26-7.28-11.28-9.51-.85-1.5.15-1.97.76-2.02z" fill="url(#gsmqjia0u)"/><path d="M44.91 31h-8.27c-1.3 2.64-4.25 6.44-5.57 8.02l3.32 3.51c6.57-2.26 10.26-7.28 11.28-9.51.85-1.5-.15-1.97-.76-2.02z" fill="url(#hsmqjia0u)"/><path d="M38.51 36H17.44c-1.1 0-1.03.98-.74 1.46.8 1.46 3.85 6.63 11.76 6.54a12.15 12.15 0 0010.83-6.54c.57-1.25-.24-1.5-.78-1.46z" fill="url(#ismqjia0u)"/><path d="M33.19 31a94.98 94.98 0 001.55-14H32.7a186.2 186.2 0 01-1.42 14h1.91z" fill="url(#jsmqjia0u)"/><defs><linearGradient id="asmqjia0u" x1="27.98" y1="13" x2="27.98" y2="30.89" gradientUnits="userSpaceOnUse"><stop stop-color="#6CBB4E"/><stop offset=".33" stop-color="#8AC453"/><stop offset="1" stop-color="#F9FBF3"/></linearGradient><linearGradient id="bsmqjia0u" x1="19.38" y1="17" x2="20.65" y2="33.46" gradientUnits="userSpaceOnUse"><stop stop-color="#0DA339"/><stop offset=".22" stop-color="#7FBF4B"/><stop offset=".71" stop-color="#CDE5B6"/><stop offset="1" stop-color="#F9FBF3"/></linearGradient><linearGradient id="csmqjia0u" x1="21.84" y1="17" x2="23.78" y2="32.25" gradientUnits="userSpaceOnUse"><stop stop-color="#118E2B"/><stop offset=".37" stop-color="#7FBF4B"/><stop offset=".83" stop-color="#CDE5B6"/><stop offset="1" stop-color="#F9FBF3"/></linearGradient><linearGradient id="dsmqjia0u" x1="36.62" y1="17" x2="35.35" y2="33.46" gradientUnits="userSpaceOnUse"><stop stop-color="#0DA339"/><stop offset=".22" stop-color="#7FBF4B"/><stop offset=".71" stop-color="#CDE5B6"/><stop offset="1" stop-color="#F9FBF3"/></linearGradient><linearGradient id="esmqjia0u" x1="11.71" y1="23.24" x2="20.52" y2="35.57" gradientUnits="userSpaceOnUse"><stop stop-color="#0DA339"/><stop offset=".36" stop-color="#7FBF4B"/><stop offset=".71" stop-color="#CDE5B6"/><stop offset="1" stop-color="#F9FBF3"/></linearGradient><linearGradient id="fsmqjia0u" x1="44.29" y1="23.24" x2="35.48" y2="35.57" gradientUnits="userSpaceOnUse"><stop stop-color="#0DA339"/><stop offset=".36" stop-color="#7FBF4B"/><stop offset=".71" stop-color="#CDE5B6"/><stop offset="1" stop-color="#F9FBF3"/></linearGradient><linearGradient id="gsmqjia0u" x1="10.5" y1="31" x2="23.48" y2="40.4" gradientUnits="userSpaceOnUse"><stop stop-color="#0DA339"/><stop offset=".43" stop-color="#7FBF4B"/><stop offset=".74" stop-color="#CDE5B6"/><stop offset="1" stop-color="#F9FBF3"/></linearGradient><linearGradient id="hsmqjia0u" x1="45.5" y1="31" x2="32.52" y2="40.4" gradientUnits="userSpaceOnUse"><stop stop-color="#0DA339"/><stop offset=".43" stop-color="#7FBF4B"/><stop offset=".74" stop-color="#CDE5B6"/><stop offset="1" stop-color="#F9FBF3"/></linearGradient><linearGradient id="ismqjia0u" x1="28" y1="33.91" x2="28" y2="44" gradientUnits="userSpaceOnUse"><stop stop-color="#0DA339"/><stop offset=".43" stop-color="#7FBF4B"/><stop offset=".81" stop-color="#CDE5B6"/><stop offset="1" stop-color="#F9FBF3"/></linearGradient><linearGradient id="jsmqjia0u" x1="34.18" y1="17" x2="32.24" y2="32.25" gradientUnits="userSpaceOnUse"><stop stop-color="#118E2B"/><stop offset=".37" stop-color="#7FBF4B"/><stop offset=".83" stop-color="#CDE5B6"/><stop offset="1" stop-color="#F9FBF3"/></linearGradient></defs></svg>