<!-- by TradingView --><svg width="56" height="56" viewBox="0 0 56 56" xmlns="http://www.w3.org/2000/svg"><path fill="#F0F3FA" d="M0 0h56v56H0z"/><path d="M33.85 45c.82 0 1.38-.79 1.06-1.5L28.66 29.4c-.25-.55-1.07-.55-1.32 0L21.1 43.5c-.32.71.24 1.5 1.06 1.5.47 0 .89-.27 1.06-.69L28 32.67l4.79 11.64c.17.42.6.69 1.06.69Z" fill="#67A931"/><path d="M33.85 11c.82 0 1.38.79 1.06 1.5L28.66 26.6c-.25.55-1.07.55-1.32 0L21.1 12.5c-.32-.71.24-1.5 1.06-1.5.47 0 .89.27 1.06.69L28 23.33l4.79-11.64c.17-.42.6-.69 1.06-.69Z" fill="#1B5692"/><circle cx="28" cy="37" r="1" fill="#67A931"/><circle cx="1" cy="1" r="1" transform="matrix(1 0 0 -1 27 20)" fill="#1B5692"/><path d="M11 33.85c0 .82.79 1.38 1.5 1.06l14.09-6.25c.55-.25.55-1.07 0-1.32L12.5 21.1c-.71-.32-1.5.24-1.5 1.06 0 .47.27.89.69 1.06L23.33 28 11.7 32.79c-.42.17-.69.6-.69 1.06Z" fill="#1B5692"/><path d="M45 33.85c0 .82-.79 1.38-1.5 1.06L29.4 28.66c-.55-.25-.55-1.07 0-1.32L43.5 21.1c.71-.32 1.5.24 1.5 1.06 0 .47-.27.89-.69 1.06L32.67 28l11.64 4.79c.42.17.69.6.69 1.06Z" fill="#67A931"/><circle cx="19" cy="28" r="1" fill="#1B5692"/><circle cx="1" cy="1" r="1" transform="matrix(0 1 1 0 36 27)" fill="#67A931"/><path d="M21.18 39.8c.35.35.94.23 1.13-.23l3.66-8.98a.43.43 0 0 0-.56-.56l-8.98 3.66a.69.69 0 1 0 .53 1.27l7.27-3.19-3.2 7.27a.69.69 0 0 0 .15.76Z" fill="#1B5692"/><path d="M39.8 21.18c.35.35.23.94-.23 1.13l-8.98 3.66a.43.43 0 0 1-.56-.56l3.66-8.98a.69.69 0 1 1 1.27.53l-3.19 7.27 7.27-3.2a.69.69 0 0 1 .76.15Z" fill="#67A931"/><path d="M22.85 33.85a.5.5 0 1 1-.7-.7.5.5 0 0 1 .7.7Z" fill="#1B5692"/><path d="M33.85 22.85a.5.5 0 1 0-.7-.7.5.5 0 0 0 .7.7ZM34.82 39.8a.69.69 0 0 1-1.13-.23l-3.66-8.98c-.14-.35.21-.7.56-.56l8.98 3.66a.69.69 0 1 1-.53 1.27l-7.27-3.19 3.2 7.27c.1.25.05.56-.15.76Z" fill="#67A931"/><path d="M16.2 21.18a.69.69 0 0 0 .23 1.13l8.98 3.66c.35.14.7-.21.56-.56l-3.66-8.98a.69.69 0 1 0-1.27.53l3.19 7.27-7.27-3.2a.69.69 0 0 0-.76.15Z" fill="#1B5692"/><path d="M33.15 33.85a.5.5 0 1 0 .7-.7.5.5 0 0 0-.7.7Z" fill="#67A931"/><path d="M22.15 22.85a.5.5 0 1 1 .7-.7.5.5 0 0 1-.7.7Z" fill="#1B5692"/></svg>