<!-- by TradingView --><svg width="56" height="56" xmlns="http://www.w3.org/2000/svg"><path fill="#F0F3FA" d="M0 0h56v56H0z"/><path d="M20.148 14.016c-2.005 1.259-3.275 2.969-3.275 5.581 0 2.838 1.73 4.462 4.503 5.722l13.726 6.212c1.62.747 2.128 1.63 2.128 2.735 0 .63-.348 1.263-.846 1.697l.805-.52C38.916 34.34 40 32.842 40 30.467c0-3.046-1.967-4.716-4.393-5.82l-13.358-6.044c-1.305-.591-2.606-1.258-2.606-2.875 0-.68.197-1.24.505-1.711z" fill="#086DA9"/><path d="M29.726 8l-9.578 6.016a3.058 3.058 0 00-.505 1.71c0 1.618 1.3 2.285 2.606 2.876l4.434 2.005c-.726-.355-1.541-.78-1.541-1.332 0-.485.422-.8.736-.996l3.548-2.201c1.61-.996 2.565-2.293 2.565-4.236 0-1.814-1.116-3.173-2.265-3.842zm1.05 21.582c.703.328.942.586.942.996 0 .393-.336.755-1.378 1.346l-1.241.715 7.286 3.324c.497-.434.846-1.068.846-1.697 0-1.107-.507-1.988-2.129-2.735l-4.325-1.949zM20.64 38.375L16 41.22c.115 2.416 2.102 4.418 4.489 4.418.922 0 1.801-.347 2.77-.94l4.611-3-7.23-3.324z" fill="#80B0D5"/><path d="M37.258 15.124l-8.5 5.259 7.313 3.323.887-.519c1.65-.956 2.579-2.293 2.579-4.235 0-1.814-1.13-3.147-2.279-3.828zm-17 10.882c-.422.472-.683.946-.683 1.851 0 1.746 1.458 2.334 3.002 3.043l3.452 1.557c-.64-.298-1.119-.653-1.119-1.08 0-.395.347-.68.846-.996l1.815-1.065-7.314-3.31z" fill="#A2D993"/><path d="M38.491 46c-1.841-1.458-3.806-2.444-6.194-3.557l-11.039-5.02c-2.773-1.27-4.612-2.964-4.612-5.814 0-2.77 1.305-4.11 3-5.213l.613-.395c-.421.472-.689.946-.689 1.852 0 1.745 1.458 2.336 3.002 3.045l12.842 5.817c2.234.985 4.278 2.681 4.278 5.569 0 1.587-.588 3.008-1.2 3.716z" fill="#35AF3B"/></svg>