<!-- by TradingView --><svg width="56" height="56" viewBox="0 0 56 56" xmlns="http://www.w3.org/2000/svg"><path fill="#F0F3FA" d="M0 0h56v56H0z"/><path d="M44.94 23.6 28.04 31a.1.1 0 0 1-.08 0l-16.9-7.4a.1.1 0 0 1-.06-.1.1.1 0 0 1 .06-.1l16.9-7.4a.1.1 0 0 1 .08 0l16.9 7.4a.1.1 0 0 1 .06.1.1.1 0 0 1-.06.1Z" fill="#B7001F"/><path d="m10.06 32.4 7.65-3.4a.1.1 0 0 1 .08 0l7.65 3.4a.1.1 0 0 1 .06.1.1.1 0 0 1-.06.1L17.79 36a.1.1 0 0 1-.08 0l-7.65-3.4a.1.1 0 0 1-.06-.1.1.1 0 0 1 .06-.1ZM30.56 32.4l7.65-3.4a.1.1 0 0 1 .08 0l7.65 3.4a.1.1 0 0 1 .06.1.1.1 0 0 1-.06.1L38.28 36a.1.1 0 0 1-.07 0l-7.65-3.4a.1.1 0 0 1-.06-.1.1.1 0 0 1 .06-.1ZM27.96 40l-7.63-3.4a.1.1 0 0 1-.06-.1.1.1 0 0 1 .06-.1l7.63-3.4a.09.09 0 0 1 .08 0l7.63 3.4a.1.1 0 0 1 .06.1.1.1 0 0 1-.06.1L28.03 40a.09.09 0 0 1-.07 0Z" fill="#A0A2A4"/></svg>