<!-- by TradingView --><svg width="56" height="56" viewBox="0 0 56 56" xmlns="http://www.w3.org/2000/svg"><path fill="#F0F3FA" d="M0 0h56v56H0z"/><path d="M37.26 15.44a6.33 6.33 0 0 1 3.05-.04c.98.24 1.8.74 2.47 1.52a5.1 5.1 0 0 1 .41 6.13 14.23 14.23 0 0 1-2.34 2.96 24.26 24.26 0 0 1-6.6 4.27c-.38.17-.89.36-1.53.58-1.3.44-2.09.77-3.03.94a19 19 0 0 1-1.52.2c-.04 0-.08 0-.1-.03a.16.16 0 0 1-.08-.1.44.44 0 0 1 .06-.34c.03-.06.13-.12.27-.17.81-.28 1.42-.48 1.83-.6.88-.27 1.49-.48 1.83-.61 1.71-.7 3.32-1.77 4.83-3.22a8.21 8.21 0 0 0 2.46-4.38c.05-.27-.03-.68-.25-1.23-.67-1.64-1.95-2.33-3.85-2.06-.21.03-.43 0-.65-.12a1 1 0 0 1-.4-.48c-.22-.44-.35-.77-.57-1.07a3.26 3.26 0 0 0-3.21-1.4c-.56.06-1.03.23-1.41.5-.45.3-.8.68-1.05 1.1-.6 1-1.01 2.21-1.23 3.62-.2 1.31-.3 2.37-.27 3.18.04 1.31.16 2.85.36 4.6a5 5 0 0 0 .3 1.25c.07.16-.07.35-.26.34-.57-.04-.61-.43-.74-.95-.57-2.31-.9-4.69-1.02-7.12-.04-.96-.02-1.91.08-2.87.12-1.18.25-2.13.39-2.85.34-1.72 1.05-3.62 2.38-4.75a4.73 4.73 0 0 1 2.52-1.17 6.19 6.19 0 0 1 3.43.4 5.68 5.68 0 0 1 2.49 2.62l.55 1.16c.03.07.1.13.17.17.07.03.15.04.23.02ZM13.04 27.18c.1-.03.2-.1.24-.2a.4.4 0 0 0 .04-.3 3.03 3.03 0 0 1 .08-1.89 3.95 3.95 0 0 1 2.93-2.69 4.18 4.18 0 0 1 1.98.04c2.02.49 3.71 2.05 4.88 3.7a24.9 24.9 0 0 1 2.18 3.75c.15.33.29.71.4 1.15.17.62.43 1.44-.02 1.9-.04.03-.06.02-.07-.03a3.32 3.32 0 0 0-.11-.41A19.68 19.68 0 0 0 23 27.64a9.45 9.45 0 0 0-1.57-1.67 5.3 5.3 0 0 0-1.48-.86 2.46 2.46 0 0 0-2.22.22 2.4 2.4 0 0 0-1.18 1.65c-.07.32-.12.75-.15 1.3 0 .07-.02.15-.07.21-.15.23-.53.31-.77.42-.97.46-1.4 1.22-1.3 2.28.09.74.46 1.3 1.12 1.7.62.38 1.25.65 1.87.83 1.3.36 2.62.47 3.97.33 1.73-.17 3.12-.45 4.17-.84.12-.04.16 0 .12.1-.06.18-.1.46-.3.53-1.39.48-2.85.83-4.4 1.05-1.03.15-2.37.1-3.56.1a10.59 10.59 0 0 1-4.88-1.01C10.8 33.25 10 32.1 10 30.56c0-.66.16-1.23.48-1.73.62-.95 1.48-1.3 2.56-1.65ZM37.43 43.21c-.34.6-.7 1.01-1.08 1.25-.87.55-1.8.68-2.77.4-1.38-.4-2.47-1.62-3.26-2.83a13.92 13.92 0 0 1-1.94-4.6c-.22-.96-.4-1.7-.38-2.53 0-.15.17-.24.3-.16.08.05.14.16.18.32.39 1.5.74 2.58 1.05 3.23a15.76 15.76 0 0 0 1.53 2.6c.47.63 1.1 1.03 1.88 1.21.26.07.5.06.72-.03.65-.25 1.05-.4 1.37-1.07.23-.5.37-1 .44-1.5.07-.52.98-.74 1.27-.97 1.51-1.22.72-2.77-.59-3.64a7.89 7.89 0 0 0-3.4-1.1c-.6-.1-1.2-.12-1.76-.04-.83.12-1.55.23-2.17.34-.3.05-.35-.04-.17-.28.13-.16.3-.27.5-.32 2.88-.72 5.67-.64 8.4.23 1 .32 1.87.85 2.58 1.58a3 3 0 0 1 .87 2.23c-.02 1.1-.5 1.77-1.26 2.45-.24.21-.45.34-.65.4-.57.15-.87.26-.91.32-.49.73-.32 1.75-.75 2.51ZM21 41.77c.3.06.6.12.8.49l.17.3c.27.52.53 1.02 1.09 1.27.36.17.74.21 1.15.13.48-.1.85-.27 1.12-.51.42-.4.76-.9 1-1.54.43-1.1.65-2.21.67-3.32v-1.3c0-.39-.07-.74-.2-1.06a7.91 7.91 0 0 1-.32 3.1c-.3.95-.64 1.77-1.45 2.17-.98.48-1.34-.13-1.74-.8a9.65 9.65 0 0 0-.2-.35c-.2-.28-.44-.35-.73-.43l-.4-.12c-.62-.26-.95-.66-1.01-1.2-.1-.94.74-1.84 1.53-2.26.73-.39 1.54-.76 2.42-1.1.3-.13.57-.19.79-.19-.43-.12-.9-.01-1.4.1-1.33.32-2.57.86-3.72 1.63A3.3 3.3 0 0 0 19 39.41c0 1.04.5 1.79 1.53 2.23.15.07.31.1.46.13Z" fill="#ED216E"/></svg>