<!-- by TradingView --><svg xmlns="http://www.w3.org/2000/svg" width="56" height="56"><path fill="#F0F3FA" d="M0 0h56v56H0z"/><path d="M32 24h3v-1h-4v6h1v-2.5h3v-1h-3V24zm14.77 5h1.14l-1.32-2.28c.79-.2 1.41-.93 1.41-1.75 0-.95-.68-1.97-1.8-1.97H43v6h1v-5h2.2c.42 0 .82.36.82.97 0 .52-.49.8-.97.8h-1.2L46.78 29zm-23.95 0H24v-6h-1v4.61c-.9-1.43-1.97-3.18-2.88-4.61H19v6h1v-4.33c.9 1.43 1.91 2.9 2.82 4.33zM12 29v-.99H9V23H8v6h4zm15.59-2.43h1.72c-.31.82-.92 1.43-1.9 1.43-1.3 0-1.95-1.23-1.87-2.24a1.9 1.9 0 013.13-1.32l.86-.54a2.73 2.73 0 00-2.12-.9 2.82 2.82 0 00-2.88 2.56c-.2 1.77.97 3.44 2.88 3.44 1.9 0 2.83-1.28 2.92-2.79.02-.2 0-.43-.03-.65h-2.71v1z" fill="#003893"/><path d="M49.17 20H47v1h2v2h1v-3h-.83z" fill="#00B1B2"/><path d="M22.11 36.29l-.2-.02a.13.13 0 01-.1-.1 1.08 1.08 0 01-.01-.23v-.02a7.34 7.34 0 001.87-2.13h-.89c-.29.45-.7.9-.98 1.13V33H24v-.67h-1.26l.55-.42a8 8 0 00-1.12-.91l-.53.4c.35.26.74.61 1.07.93h-2.06c.05-.47.07-.86.1-1.33h-.82c0 .47-.02.86-.07 1.33H18V33h1.77c-.2 1.27-.68 2.78-1.77 3.48l.55.52c1.33-.94 1.74-2.47 1.95-4h.5v2.58c-.4.3-.82.54-1.28.74l.49.68.55-.34.3-.2c.05.27.2.42.46.49.13.03.28.05.48.05h2v-.71h-1.89zm9.28-.29H32v-1.33h-.61V36zm.61-2h.7v2.53c.32-.6.32-1.7.32-2.48V31H35v5.41c0 .32-.26.59-.58.59h-.56v-.6h.34c.06 0 .11-.05.11-.11v-1.45h-.63c-.03.85-.1 1.58-.46 2.16l-.62-.33.07-.1h-1.95V34h.65v-1h-.84v-.7h.84V31H32v1.3h.82v.7H32v1zm2.31-2.3h-.62v.86h.62v-.87zm-.62 2.23v.2h.62v-.87h-.62v.67zm-3.99 3.03c.29-.58.67-1.5.82-2.17l-.69-.25a13 13 0 01-.83 2.04l.7.38zm-.27-4.22c.33.12.76.35 1.04.57l-.44.62c-.25-.24-.7-.47-1-.62l.4-.57zm1.28-1.16a4.3 4.3 0 00-1.03-.58l-.4.56c.32.15.75.4.99.64l.44-.62z" fill="#003893"/><path fill-rule="evenodd" d="M15 28a2 2 0 100-4 2 2 0 000 4zm0 1a3 3 0 100-6 3 3 0 000 6zm24-1a2 2 0 100-4 2 2 0 000 4zm0 1a3 3 0 100-6 3 3 0 000 6z" fill="#003893"/></svg>