<!-- by TradingView --><svg width="56" height="56" viewBox="0 0 56 56" xmlns="http://www.w3.org/2000/svg"><path fill="#F0F3FA" d="M0 0h56v56H0z"/><path d="M7.01 28.83a9.72 9.72 0 0 1 2.42-5.88c-1.6 2.94.65 11.1 5.24 10.2 3.67-.71 8.34-4.72 10.22-6.63l4.05-4.07S33.22 18 39.26 18c0 0 7.7 0 9.69 8.3 0 0 .62 4.97-2.42 8.14l-.55-8.98-4.91-2.81s-2.87-.2-7.11 3.87L29.86 31c-3.78 4.21-8.1 6.75-13.72 6.88C10.52 38 6.76 32.6 7 28.83Z" fill="url(#agfsly53w)"/><path d="M11.68 24.42c-.54.61-.87 2.02-.96 2.64a7.3 7.3 0 0 1 .27-3.07c.36-1.03 1.7-2.82 5.52-2.92 3.83-.1 6.07 2.66 6.07 2.82 0 .16.13.21 0 .4-.1.15-.32.06-.42 0a9.82 9.82 0 0 0-5.65-2.02c-3.18 0-4.16 1.39-4.83 2.15Z" fill="url(#bgfsly53w)"/><path d="M16.02 20.06c3.5 0 5.85 2.56 6.59 3.84a8.32 8.32 0 0 0-6.05-2.77c-5 .1-5.84 4.18-5.84 6 0 1.6 1.3 4.57 4.98 4.57 2.93 0 6.56-2.73 8-4.1-5.59 5.56-8.22 5.46-10.17 5.51-1.95.05-5.89-1.69-5.67-5.98.22-4.3 3.77-7.07 8.16-7.07Z" fill="url(#cgfsly53w)"/><path d="M13.95 33.4a9.93 9.93 0 0 0 6.48-2.88l-3.31 1.58c-1.06.25-3.2.73-3.3.73-.11 0-2.4-.73-3.52-1.1l-2.34-3.25c-.1 1.6 1.9 5.12 5.99 4.92Z" fill="#E38C8D"/><path d="M10.73 27.33a4.76 4.76 0 0 0 4.97 4.37c2.93 0 6.56-2.73 8-4.1-5.43 5.4-8.07 5.46-10 5.5l-.17.01c-1.88.05-5.62-1.57-5.68-5.54l2.88-.24Z" fill="url(#dgfsly53w)"/><path d="M41.95 22.63c-2.2-.16-4 .63-6.7 2.68 1.64-.8 6.05-2.35 6.77-2.26 3 .48 4.79 2.6 5.28 3.67a6.54 6.54 0 0 0-5.35-4.1Z" fill="#E38C8D"/><path d="m33.77 26.66-5.2 5.63c.73-.58 2.74-2.31 5.05-4.64 2.3-2.33 4.49-2.82 5.3-2.78 4.2.02 5.41 3.65 5.49 5.47a6.57 6.57 0 0 1-6.57 6.43 8.41 8.41 0 0 1-6.07-2.66c2 3.43 6.07 4.01 7.86 3.87 5.85-.53 8.4-4.77 8.4-7.64 0-2.88-1.09-4.65-2.2-5.57-1.1-.93-2.4-2.08-5.48-1.84-2.48.2-5.42 2.57-6.58 3.73Z" fill="url(#egfsly53w)"/><path d="M37.97 35.94c3.86-.14 5.7-2.51 6.13-3.68.24.76-1.74 4.41-6.06 4.53-3.45.1-5.52-1.66-6.13-2.55-.16-.11-.28-.25-.14-.41.12-.13.35 0 .45.07a9.07 9.07 0 0 0 5.75 2.04Z" fill="url(#fgfsly53w)"/><path d="m48 31-3.7.44c.07-.36.1-.73.1-1.1-.07-1.82-1.28-5.45-5.49-5.47-.8-.04-2.98.45-5.3 2.78a71.37 71.37 0 0 1-5.03 4.64l5.19-5.63c1.16-1.16 4.1-3.54 6.58-3.73 3-.23 4.3.85 5.4 1.76l.08.08c1.11.92 2.2 2.7 2.2 5.57 0 .2 0 .43-.04.65Z" fill="url(#ggfsly53w)"/><defs><linearGradient id="agfsly53w" x1="7" y1="29.94" x2="49.01" y2="30.01" gradientUnits="userSpaceOnUse"><stop stop-color="#C91A17"/><stop offset=".14" stop-color="#960607"/><stop offset=".41" stop-color="#E73020"/><stop offset=".67" stop-color="#E73020"/><stop offset=".93" stop-color="#AF1318"/><stop offset="1" stop-color="#C36267"/></linearGradient><linearGradient id="bgfsly53w" x1="22.37" y1="24.07" x2="10.9" y2="26.05" gradientUnits="userSpaceOnUse"><stop stop-color="#EEC319"/><stop offset=".3" stop-color="#E4702F"/><stop offset=".53" stop-color="#C71B16"/><stop offset=".77" stop-color="#99161C"/><stop offset="1" stop-color="#B96165"/></linearGradient><linearGradient id="cgfsly53w" x1="20.43" y1="21.46" x2="9.32" y2="27.39" gradientUnits="userSpaceOnUse"><stop stop-color="#FDD005"/><stop offset=".64" stop-color="#E35118"/><stop offset=".74" stop-color="#E83428"/></linearGradient><linearGradient id="dgfsly53w" x1="10.13" y1="27.45" x2="18.54" y2="31.89" gradientUnits="userSpaceOnUse"><stop stop-color="#E83428"/><stop offset=".39" stop-color="#900208"/><stop offset=".59" stop-color="#8F0208"/><stop offset="1" stop-color="#E16E6E"/></linearGradient><linearGradient id="egfsly53w" x1="46.73" y1="31.38" x2="33.1" y2="35.79" gradientUnits="userSpaceOnUse"><stop stop-color="#E1840F"/><stop offset=".6" stop-color="#FBCA01"/><stop offset="1" stop-color="#CBA300"/></linearGradient><linearGradient id="fgfsly53w" x1="43.5" y1="33.55" x2="32.33" y2="34.52" gradientUnits="userSpaceOnUse"><stop stop-color="#C16065"/><stop offset=".28" stop-color="#B64739"/><stop offset=".5" stop-color="#D38400"/><stop offset="1" stop-color="#FDD000"/></linearGradient><linearGradient id="ggfsly53w" x1="36.04" y1="24.84" x2="44.31" y2="32.23" gradientUnits="userSpaceOnUse"><stop stop-color="#E96A68"/><stop offset=".33" stop-color="#C82626"/><stop offset=".58" stop-color="#CB3024"/><stop offset=".85" stop-color="#DC7218"/><stop offset="1" stop-color="#E1840F" stop-opacity="0"/></linearGradient></defs></svg>