<!-- by TradingView --><svg width="56" height="56" viewBox="0 0 56 56" xmlns="http://www.w3.org/2000/svg"><path fill="#F0F3FA" d="M0 0h56v56H0z"/><path d="M30.3 11.15a18.66 18.66 0 0 0-4.59 0A17.05 17.05 0 0 0 11 28a17.03 17.03 0 0 0 17 17h.04A17.06 17.06 0 0 0 45 28c0-8.58-6.4-15.7-14.7-16.85ZM28 13a15.26 15.26 0 0 1 13.42 8.38c-.53 2.5-2.25 5.02-4.07 6.7a13.67 13.67 0 0 0-11.64-13.62 15.7 15.7 0 0 0-3.8-.15A15.23 15.23 0 0 1 28 13Zm4.43 15.14c0 1.05-.05 2.1-.28 3.1a12.6 12.6 0 0 1-1.85 4.11 17.26 17.26 0 0 1-2.25 2.75l-.01-.01a13.83 13.83 0 0 1-4.05-13.23c.32-1.46.93-2.84 1.72-4.09a16.17 16.17 0 0 1 2.33-2.8c.87.85 1.63 1.79 2.26 2.81a13.89 13.89 0 0 1 2.13 7.36ZM13 28c0-5.98 3.58-11.21 8.69-13.58a14.8 14.8 0 0 1 6.13 3.36 13.86 13.86 0 0 0-13.38 16.57A14.95 14.95 0 0 1 13 28Zm15 15a15.24 15.24 0 0 1-13.37-8.3c.6-2.64 2.14-4.98 4.1-6.76A13.68 13.68 0 0 0 25.7 40c.75.4 1.5.74 2.33 1 .71.26 1.49.44 2.26.56 1.18.16 2.43.24 3.69.12-1.9.82-3.94 1.28-6 1.32Zm6.25-1.44a14.72 14.72 0 0 1-6.07-3.32c.45.01 1.2-.03 2.12-.2 4.33-.8 12.52-4.31 11.4-16.06.79 1.83 1.3 3.9 1.3 6.02 0 5.98-3.64 11.2-8.75 13.56Z" fill="#E60021"/></svg>