<!-- by TradingView --><svg width="56" height="56" viewBox="0 0 56 56" xmlns="http://www.w3.org/2000/svg"><path fill="#F0F3FA" d="M0 0h56v56H0z"/><path d="M14 18.06A6.08 6.08 0 0 1 20.1 12h11.1L15.67 27.43a2.22 2.22 0 0 0 0 3.16l11.88 11.78c.87.87 2.3.87 3.17 0l9.63-9.57a2.22 2.22 0 0 0 .02-3.14L33 21.82c-.87-.88-2.3-.89-3.18-.01l-5.16 5.62a2.54 2.54 0 0 0-.66 1.83c.01.65.23 1.3.66 1.73l2.82 3.36c.43.42 1.1.64 1.76.65.7.01 1.41-.2 1.86-.65L34 31v2.34c0 1.47-1.2 2.66-2.67 2.66h-5.55A2.77 2.77 0 0 1 23 33.24V23.4c0-1.88 1.53-3.4 3.42-3.4h11.41A4.2 4.2 0 0 1 42 24.23v15.3A4.48 4.48 0 0 1 37.51 44H19.77A5.76 5.76 0 0 1 14 38.26v-20.2Z" fill="#005EF9"/><circle cx="30" cy="29" r="2" fill="#ED1C25"/></svg>