<!-- by TradingView --><svg width="56" height="56" viewBox="0 0 56 56" xmlns="http://www.w3.org/2000/svg"><path fill="#F0F3FA" d="M0 0h56v56H0z"/><path fill-rule="evenodd" d="M4 24h2.5l2.08 5.95 2.3-5.95H13l-3.13 8h-2.9L4 24Zm10 8v-8h3.4l1.31 5.34h.55l1.2-5.34H24v8h-2v-7h-.32l-1.96 7H18.1l-1.58-7H16v7h-2Zm18-8v1h-4v2h3.6v1H28v3h4v1h-6v-8h6Zm6.6 0H34v8h2v-3h2.6c1.32 0 2.4-1.12 2.4-2.5S39.92 24 38.6 24ZM36 25.77V28h1.56c.8 0 1.44-.67 1.44-1.5s-.64-1.5-1.44-1.5h-.82c-.41 0-.74.34-.74.77Z" fill="#0A246E"/><path d="M41 24v.42h.37c.4 0 .63.32.63.72v5.77c0 .4-.22.71-.63.71H41V32h5v-.38c-.38 0-1-.3-1-.67V28.5h3v2.4c0 .4-.3.72-.7.72H47V32h5v-.38c-.38 0-.99-.3-.99-.67v-5.86c0-.37.61-.67.99-.67V24h-5v.42h.3c.4 0 .7.32.7.72V28h-3v-2.9c0-.38.62-.68 1-.68V24h-5Z" fill="#FE0000"/></svg>