<!-- by TradingView --><svg width="56" height="56" viewBox="0 0 56 56" xmlns="http://www.w3.org/2000/svg"><path fill="#F0F3FA" d="M0 0h56v56H0z"/><path d="M25.28 44.4c.67-.5.96-1.13.86-1.9a.18.18 0 0 1 .07-.16c.24-.19.52-.25.84-.19a.06.06 0 0 1 .04.09l-.02.02c-.39.22-.57.42-.64.9a5.4 5.4 0 0 0-.03 1.16c.01.28.09.3.22.04.18-.33.24-.74.19-1.22a.22.22 0 0 1 .13-.22.22.22 0 0 1 .09-.02h2a.16.16 0 0 1 .16.15c.03.45.15.9.36 1.34.11.24.2.23.24-.04.01-.08 0-.21-.06-.4a3.62 3.62 0 0 1-.13-1.48.08.08 0 0 0-.04-.05h-1.77c-.05 0-.07-.02-.07-.07v-.05c0-.05.03-.08.09-.09l1.98-.19a.27.27 0 0 1 .28.36c-.21.63-.17 1.33.64 1.42a9.63 9.63 0 0 0 1.37.02.2.2 0 0 0 .11-.2c-.06-.68-.09-1.05.18-1.6.06-.11.2-.24.44-.4a21.05 21.05 0 0 0 4.87-4.23c1.38-1.65 2.4-3.5 3.05-5.54a.35.35 0 0 1 .17-.2c.27-.15.55-.32.85-.51.09-.06.22-.1.39-.15a5 5 0 0 0 .42-.1c.06-.03.1-.08.09-.15l-.03-.47c0-.06.03-.1.09-.1l.28-.03a.1.1 0 0 0 .1-.12.1.1 0 0 0-.03-.05c-.11-.16-.24-.24-.39-.25a16.6 16.6 0 0 0-1.8-.01.13.13 0 0 1-.08-.13v-2.66a.34.34 0 0 1 .4-.33l.88.15c.33.05.52-.08.58-.41l.02-.08c.05-.32-.08-.54-.39-.64-1-.32-1.8-1.37-2.28-2.33l-1.27-2.47a5.03 5.03 0 0 0-1.1-1.43c-.1-.08-.14-.06-.14.07v.07c0 .05.01.1.04.13l.92 1.26a.22.22 0 0 1-.17.35c-.2.01-.35.08-.45.2-.15.18-.1.26.13.23 1.19-.13 1.57.9 1.71 1.87a.15.15 0 0 1-.09.17.16.16 0 0 1-.06.01h-.62c-.08 0-.11.04-.1.12l.23.9c.02.05.05.07.1.06a.27.27 0 0 0 .17-.11c.07-.1.13-.24.19-.44a.19.19 0 0 1 .26-.12l.08.07c.41.68.59 1.4.52 2.18a.21.21 0 0 1-.22.2.22.22 0 0 1-.1-.04l-.5-.28a.1.1 0 0 0-.15.1c0 .29.1.55.27.78.04.05.1.07.15.05a.71.71 0 0 0 .2-.1.22.22 0 0 1 .34.1 3.74 3.74 0 0 1 .14 2.12.2.2 0 0 1-.23.08l-.43-.15c-.29-.1-.42 0-.41.3 0 .27.13.4.36.42h.39c.22 0 .3.1.27.31l-.33 1.89a.17.17 0 0 1-.2.14.17.17 0 0 1-.08-.05l-.45-.44a.21.21 0 0 0-.18-.06.22.22 0 0 0-.16.11c-.14.25-.15.49-.05.7.03.06.07.09.13.1h.45c.03 0 .06.02.08.04.02.02.03.05.03.08.01.34-.02.58-.09.71a15.15 15.15 0 0 0-.7 1.47.15.15 0 0 1-.13.04.16.16 0 0 1-.06-.03l-.53-.4c-.12-.09-.22-.05-.31.1l-.05.21a.37.37 0 0 0 .24.42l.22.08c.2.07.25.2.16.38a7.1 7.1 0 0 1-1.11 1.6.13.13 0 0 1-.16.03l-.63-.3a.22.22 0 0 0-.15 0 .65.65 0 0 0-.43.35c-.03.07 0 .11.07.13l.47.08a.2.2 0 0 1 .17.2.2.2 0 0 1-.03.08c-.4.73-.99 1.2-1.75 1.45-.08.02-.12 0-.13-.09l-.05-.54a.09.09 0 0 0-.05-.07.09.09 0 0 0-.08 0l-.61.29c-.09.04-.1.08-.03.14l.31.28a.38.38 0 0 1 .1.43.37.37 0 0 1-.1.12c-.44.4-.98.65-1.6.74a.22.22 0 0 1-.26-.23l.02-.48c0-.09-.04-.11-.11-.07l-.7.33a.07.07 0 0 0-.04.06.07.07 0 0 0 .02.06c.2.14.34.3.43.46a.31.31 0 0 1-.26.46c-.58.05-1.05.16-1.41.33a.2.2 0 0 1-.17 0c-.34-.12-.35-.6-.2-.86.03-.04.02-.06-.02-.06l-.62-.02a.14.14 0 0 0-.15.13c0 .03 0 .05.02.07l.27.56a.15.15 0 0 1-.14.21c-.48 0-.96.08-1.44.25-.16.06-.28.09-.36.08-.56-.03-.41-.69-.46-1.03-.03-.16-.12-.26-.28-.28l-.17-.03c-.12-.02-.18.03-.18.15v.76a.17.17 0 0 1-.17.16 3.8 3.8 0 0 1-1.89-.5.19.19 0 0 1-.08-.1.18.18 0 0 1 0-.12l.21-.6c.06-.17 0-.26-.17-.26h-.14c-.17-.01-.27.07-.3.24l-.08.49a.08.08 0 0 1-.04.06.09.09 0 0 1-.07 0 5.18 5.18 0 0 1-1.97-1v-.06l.3-.4a.32.32 0 0 0-.03-.4l-.3-.32a.14.14 0 0 0-.13-.04.14.14 0 0 0-.1.09l-.17.46a.32.32 0 0 1-.37.2c-.7-.15-.83-.77-1.36-1.14a.24.24 0 0 1-.06-.33.24.24 0 0 1 .09-.08l.4-.19c.1-.04.1-.1.03-.2l-.45-.48c-.05-.07-.1-.06-.15.01l-.35.6a.2.2 0 0 1-.29.07.2.2 0 0 1-.07-.09c-.14-.34-.4-.68-.75-1.03-.2-.2-.35-.5-.44-.76a.15.15 0 0 1 .02-.14.15.15 0 0 1 .13-.06c.14.01.25 0 .34-.06a.16.16 0 0 0 .09-.13 1.4 1.4 0 0 0-.13-.68.16.16 0 0 0-.21-.08.16.16 0 0 0-.06.05l-.31.44a.2.2 0 0 1-.29.05.2.2 0 0 1-.07-.08l-.91-1.91a.22.22 0 0 1 .1-.28.21.21 0 0 1 .1-.03l.63.02a.1.1 0 0 0 .1-.04.11.11 0 0 0 0-.11l-.3-.75c-.02-.07-.07-.08-.13-.05l-.46.21a.2.2 0 0 1-.17 0 .2.2 0 0 1-.1-.12c-.08-.26-.2-.63-.38-1.13a1.88 1.88 0 0 1-.08-.96.09.09 0 0 1 .1-.04l.71.26a.1.1 0 0 0 .15-.12l-.07-.7a.1.1 0 0 0-.06-.07.1.1 0 0 0-.1.01.75.75 0 0 1-.56.2.2.2 0 0 1-.19-.2v-1.98a.17.17 0 0 1 .18-.17c.03 0 .06 0 .08.02l.43.25a.15.15 0 0 0 .2-.03.15.15 0 0 0 .02-.06c.07-.25.06-.5 0-.75a.15.15 0 0 0-.1-.1.15.15 0 0 0-.12 0l-.37.18a.21.21 0 0 1-.3-.16c-.04-.33-.01-.63.1-.87.23-.58.37-1.02.4-1.34a.2.2 0 0 1 .33-.12c.17.17.28.3.32.4.09.18.14.17.17-.04.02-.2.1-.4.23-.62a.08.08 0 0 0 0-.08.08.08 0 0 0-.06-.04l-.47-.08c-.07-.01-.1-.05-.1-.11-.04-.34-.04-.56 0-.66.2-.39.36-.77.49-1.14a.19.19 0 0 1 .1-.1.2.2 0 0 1 .14-.02l.58.18c.47.15.57.01.3-.4-.23-.34-.44-.65-.2-1.11l.15-.3c.13-.26.09-.3-.14-.11-.4.33-.74.77-1 1.3-.55 1.05-1 2.4-1.84 3.35-.38.43-.91.72-1.58.87a.12.12 0 0 0-.1.08l-.33.94c-.04.1.04.2.14.2.19-.01.38 0 .57.04.1.01.14.05.16.11.02.06 0 .1-.07.11-.3.06-.6.04-.9-.04-.07-.01-.1.01-.1.08.02.08.03.13.06.16.1.11.21.18.32.19l.93.1c.19.02.28.12.28.31l-.04 1.07c0 .23-.13.36-.36.39-.54.07-1.07.01-1.59-.2-.13-.05-.2-.14-.17-.29.2-1.61.07-2.96-.02-5.1a.17.17 0 0 1 .05-.14l1-.9a.13.13 0 0 1 .06-.02c.24-.03.37.1.38.37.02.29.08.3.17.03a.99.99 0 0 0 0-.61.22.22 0 0 0-.11-.14c-.92-.53-1.31-1.36-1.18-2.49.06-.5.31-.89.75-1.17a.12.12 0 0 0 .04-.07v-.08c-.33-.68-.72-1.68.21-2.05.4-.16.87-.22 1.4-.2.87.04 1.48.07 1.83.07.35 0 .4.12.13.34-.45.38-.97.45-1.58.22-.21-.08-.24-.04-.1.14.55.63 1.28 1.11 2.15.88a.11.11 0 0 0 .07-.07.11.11 0 0 0-.01-.1l-.17-.24a.13.13 0 0 1-.02-.12l.35-.98a.22.22 0 0 1 .15-.13c.79-.2 1.37-.34 1.77-.42a5.23 5.23 0 0 0 1.98-.97c.13-.12.28-.3.43-.53.03-.05.04-.1.01-.16-.1-.23-.35-.33-.77-.3-.2.02-.33-.08-.37-.29-.06-.35-.41-.61-.45-1.02-.02-.22.34-.63.63-1.04a1 1 0 0 1 .59-.4c.57-.15.96.04 1.16.56.14.39.27.95.37 1.71a.13.13 0 0 0 .13.12c.01 0 .03-.02.05-.06.3-.67.21-1.3-.24-1.89-.08-.1-.07-.18.04-.24.05-.03.1-.02.14.01l.46.31c.05.04.07.09.06.15-.03.3-.02.63.03.98 0 .11 0 .26-.04.46-.05.22-.07.36-.07.4 0 .06.04.1.1.14.23.13.42.2.54.2.07 0 .1-.02.06-.08-.06-.1-.18-.19-.35-.25a.12.12 0 0 1-.08-.13c.02-.09.07-.13.15-.14.33-.01.56.13.7.43.02.05.06.07.1.05l1.4-.45c.04-.02.05-.04.03-.07a3.97 3.97 0 0 1-.6-1.15.08.08 0 0 0-.04-.04.09.09 0 0 0-.06-.02c-.56.09-1.01.06-1.36-.09a.18.18 0 0 1-.11-.15.17.17 0 0 1 .08-.16c.79-.47 1.52-.43 2.5-.38.5.03.9-.05 1.35-.23a.43.43 0 0 1 .47.11l.31.35a.09.09 0 0 0 .07.02.09.09 0 0 0 .06-.02c.38-.4.77-.34 1.32-.2.85.22 1.66.26 2.43.13.79-.14 1.28-.21 1.48-.23.2-.01.4 0 .6.04.56.11.88.84.93 1.35 0 .1-.08.31-.27.64-.35.64-.84.87-1.48.7-.06-.01-.1.01-.1.07.03.5.26.9.72 1.2.38.25.7.44.97.57.17.08.4.12.7.1.26-.01.63.03 1.1.13.2.04.52.06.96.04.08 0 .11.03.11.1 0 .25.06.52.2.82.02.07.01.13-.03.19l-.2.28c-.04.06-.02.11.04.15.22.12.36.18.4.18.3 0 .58-.12.85-.36.37-.34.73-.6 1.08-.8.26-.15.24-.22-.08-.23-.14 0-.33.12-.56.35a6.1 6.1 0 0 0-.27.3.13.13 0 0 1-.15.04 1.26 1.26 0 0 1-.64-.5c-.05-.07-.03-.11.05-.13.77-.16 2.04-.88 3.05-.44.57.26.84.7.8 1.34-.03.48-.06.85-.4 1.17a.14.14 0 0 0-.02.2c.27.28.6.56 1 .84.52.38.32 1.25-.13 1.52-.56.33-.86.78-.68 1.44l.05.05.8.46a.43.43 0 0 1 .2.42c-.1.83-.04 1.69.16 2.6.13.55-.02 1.03-.46 1.42a.08.08 0 0 0-.02.1l.03.03.47.33c.05.03.06.07.06.12-.01.1-.04.25-.09.43-.15.6-.1 1.09 0 2.03.1.9 0 1.75-.28 2.57-.12.36-.39.65-.8.86a.24.24 0 0 0-.14.23c.02.8.02 1.56-.03 2.31-.02.38-.13.8-.33 1.27-.25.6-.61.74-1.18.95a.18.18 0 0 0-.11.12 8.2 8.2 0 0 1-1.46 2.67c-.41.53-.66.96-1.04 1.6a.28.28 0 0 1-.24.13c-.26 0-.5-.09-.72-.26-.06-.04-.1-.03-.14.03-.2.37-.62.71-1.27 1.04-.56.28-.94.7-1.15 1.25a.3.3 0 0 1-.3.2c-.49-.03-1.18-.15-2.07-.36-.95-.23-1.45-.28-2.24.23a.17.17 0 0 1-.2 0c-.52-.33-.85-.67-1.42-.14-.14.13-.27.29-.38.48-.24.41-.62.46-.86.02a4.3 4.3 0 0 0-.33-.53c-.04-.04-.05-.1-.02-.16l.15-.26c.06-.12.07-.23 0-.34a.09.09 0 0 0-.07-.04.09.09 0 0 0-.07.04l-.51.88a.19.19 0 0 1-.22.09 5.75 5.75 0 0 0-4.61.51.12.12 0 0 1-.17-.04c-.21-.33-.47-.64-.76-.93a2.4 2.4 0 0 1-.64-1.1.14.14 0 0 0-.14-.11H18.6c-.07 0-.12-.04-.14-.1-.24-.66-.77-.9-1.53-1.4-.27-.16-.44-.4-.5-.7a.47.47 0 0 1 0-.16l.06-.32c0-.06-.02-.1-.08-.12a2.1 2.1 0 0 1-1.3-1.2c-.09-.2-.06-.4-.06-.58 0-.06-.03-.1-.07-.14a2 2 0 0 1-.76-1.3 32.07 32.07 0 0 1-.36-2.91.09.09 0 0 1 .05-.04c.06-.01.12.01.2.08.36.28.55.68.56 1.19a16.32 16.32 0 0 1-.11 1.85.1.1 0 0 0 .15.04c.23-.16.44-.34.63-.54.26-.27.44-.34.76-.43l.04-.03a.08.08 0 0 0 .01-.09 4.27 4.27 0 0 1-1.84-2.4.1.1 0 0 0-.11-.06c-.22.02-.4.03-.55.01-.12-.01-.28-.1-.46-.27l-.92-.81a.15.15 0 0 1-.05-.15c.15-.74.1-1.52-.13-2.33-.14-.45-.2-1.2.28-1.43.05-.03.08-.01.1.03l.07.17c.02.07.07.1.15.1.67-.06 1.2-.19 1.58-.38.65-.32.6-1.47.42-2.06a.17.17 0 0 0-.1-.11 1.4 1.4 0 0 0-.33-.11c-.3-.05-.31-.13-.03-.25.17-.07.38-.08.63-.02a.14.14 0 0 1 .12.14v2.6a.24.24 0 0 1-.27.25 3.6 3.6 0 0 0-1.71.21.13.13 0 0 0-.1.13l-.01.66c0 .16.07.26.23.29.98.16 2 .48 2.33 1.52a.08.08 0 0 1-.04.09h-.03a.26.26 0 0 1-.21-.07 7.93 7.93 0 0 0-1.37-1.2.33.33 0 0 0-.28-.04c-.3.09-.49.17-.57.25-.4.38-.35.46.16.24.09-.04.24-.1.48-.17a.45.45 0 0 1 .42.1c.2.17.35.39.45.66.08.22.25.3.33.46l1.76 3.34c.64 1.2 1.4 2.27 2.32 3.19a8.6 8.6 0 0 0 1.87 1.32c.68.36 1.29.74 1.82 1.14.35.26.54.47.65.94.13.6.24 1.04.33 1.33.05.18.12.18.2.02.16-.28.39-.47.7-.59.3-.11.55-.07.76.14.05.04.07.1.06.16-.01.16-.05.3-.12.45-.09.2-.04.23.13.1Z" fill="#DD1625"/><path d="M18.3 37.87a.02.02 0 0 1 0 .03h-.01l-.02.02c-.07.04-.28-.17-.57-.56-.29-.4-.64-.96-.98-1.57l-.02-.04c-.34-.6-.63-1.2-.82-1.65-.19-.46-.25-.74-.18-.78h.02a.02.02 0 0 1 .02 0h.01l2.55 4.55ZM22.86 41.66c-.71-.6-1.57-1.18-2.56-1.75a7.35 7.35 0 0 1-.62-.42c-.25-.19-.78-.55-.91-.85a.11.11 0 0 1 .05-.15h.05c.27 0 .51.11.73.33.46.48.83.98 1.43 1.37.24.16.79.48 1.63.96a3.2 3.2 0 0 1 1.6 2.15c.02.06 0 .07-.05.03a3.3 3.3 0 0 1-.42-.63 4.7 4.7 0 0 0-.93-1.04Z" fill="#DD1625"/><path d="M28.1 12.12c0 .02.05.12.16.3a.22.22 0 0 1-.08.31.22.22 0 0 1-.11.03c-.23 0-.34-.17-.31-.4a4.9 4.9 0 0 1 .25-.98.2.2 0 0 1 .28-.01c.47.38 1.15 1.57.16 1.84-.27.08-.3.02-.09-.16.45-.37.5-.74.14-1.11-.32-.33-.45-.27-.4.18ZM22.32 12.46c-.05-.18-.16-.25-.34-.2l-.07.01a.27.27 0 0 0-.18.38c.11.24.17.46.16.67 0 .13-.07.19-.2.16l-.53-.09c-.2-.03-.3-.14-.34-.34-.1-.73.1-1.47 1-1.53.88-.05.87 1.5.76 2.05a.06.06 0 0 1-.04.04.06.06 0 0 1-.05 0l-.06-.05-.02-.02v-.04c.02-.36 0-.7-.1-1.04ZM29.68 13.11c.01.08-.01.1-.09.07a.48.48 0 0 1-.22-.2.78.78 0 0 1-.11-.32c-.04-.28-.03-.57.02-.86a.3.3 0 0 1 .3-.24h.07c.17 0 .22.09.16.25-.18.45-.22.89-.13 1.3ZM33 14.14l.34.16a.36.36 0 0 1 .25.28l.01.07c.03.15-.03.2-.18.16-.4-.12-.66-.3-.77-.55a3.82 3.82 0 0 1 .05-2.68.15.15 0 0 1 .2 0l.05.05a.2.2 0 0 1 .06.18l-.21 1.27c-.02.12 0 .38.04.78.02.14.07.23.16.28ZM34.2 12.12a.48.48 0 0 0-.33-.12.15.15 0 0 1-.14-.07c-.04-.06 0-.12.12-.2a.2.2 0 0 1 .15-.02c.5.11.85.4 1.06.85.16.35 0 .7-.24.92a.13.13 0 0 1-.18 0l-.49-.49a.1.1 0 0 1-.03-.09l.12-.67v-.06a.12.12 0 0 0-.04-.05ZM31.4 13.75c.07-.03.08-.07.04-.12a.14.14 0 0 0-.1-.06c-.13-.02-.22-.02-.26 0l-.56.35a.26.26 0 0 1-.35-.07.25.25 0 0 1-.04-.11 4.38 4.38 0 0 1 .12-1.8.22.22 0 0 1 .25-.07 3.25 3.25 0 0 0 1.56.21.13.13 0 0 1 .1.13c-.05.76 0 1.47.15 2.12.02.1-.02.13-.11.12l-1.01-.17a.18.18 0 0 1-.1-.3c.08-.1.18-.17.32-.23ZM31.73 15.79c-.13.03-.18.11-.15.24.04.15.05.25.04.32 0 .09-.04.1-.1.03l-1.41-1.8a3.48 3.48 0 0 0-.94-.72c-.1-.06-.09-.1.03-.1h.25l.03.01c.32.28.64.53.97.76.41.28.84.39 1.3.33a.18.18 0 0 1 .2.11l.22.56c.04.1 0 .15-.08.17l-.36.09ZM29.09 14.15a.08.08 0 0 1-.08.09l-.22.02c-.4.03-.77.03-1.05.01-.28-.02-.44-.06-.44-.12v-.01c0-.06.15-.13.42-.19a7.8 7.8 0 0 1 1.04-.13l.22-.02a.08.08 0 0 1 .06.02.09.09 0 0 1 .03.06l.02.27ZM23.65 15.15c-.02-.04 0-.08.04-.1l1.87-.74c.06-.02.08 0 .05.05l-.8 1.52-.05.05a.16.16 0 0 1-.06.02.72.72 0 0 1-.29-.06c-.19-.06-.42-.03-.7.11a.05.05 0 0 1-.05 0 .05.05 0 0 1-.02-.05c.09-.3.1-.56 0-.8ZM26.94 15.13c-.06.14-.06.35 0 .63.03.2-.06.31-.27.31h-.24c-.24 0-.32-.11-.24-.33l.39-1.07a.15.15 0 0 1 .13-.1l2.04-.03c.44 0 .76.08.96.23.32.23.44.59.36 1.06-.02.12-.09.18-.21.18h-.57a.13.13 0 0 1-.12-.12l.01-.06c.2-.36.26-.6.2-.74a.13.13 0 0 0-.11-.07h-2.16a.18.18 0 0 0-.1.03.18.18 0 0 0-.07.08ZM32.86 15.15c.45.1.78.2.97.34.18.12.23.27.16.45l-.04.1c-.08.2-.2.22-.36.07l-.81-.81c-.14-.14-.11-.19.08-.15ZM23.08 16.55c-.53-.07-.58-.47-.96-.73a.26.26 0 0 1-.06-.35.25.25 0 0 1 .1-.09c.4-.21.74-.18 1 .11.22.25.3.52.25.83a.29.29 0 0 1-.12.18.3.3 0 0 1-.2.05Z" fill="#fff"/><path d="M27.7 16.26a.13.13 0 0 0 .1-.11v-.06l-.25-.62a.14.14 0 0 1 .01-.13.15.15 0 0 1 .12-.06h.76c.06 0 .1.03.09.09-.04.33-.16.47.08.8.28.4 1.42.61 1.77.22a3.56 3.56 0 0 0 .26-.3.12.12 0 0 1 .11 0c.02 0 .03.02.04.04l.68.92c.09.12.06.17-.09.14a24.4 24.4 0 0 0-3.69-.4 8 8 0 0 0-3.17.49c-.37.14-.4.1-.07-.12.28-.19.8-.65.9-1.07l.14-.45c.01-.04.03-.05.07-.02l.05.04c.04.02.05.06.03.1l-.14.41a.29.29 0 0 0 .21.38c.24.04.6.06.84-.03.36-.13.74-.21 1.14-.26ZM20.18 16.16a.16.16 0 0 0 .21.1l1.3-.5a.14.14 0 0 1 .13.01.14.14 0 0 1 .06.12c-.04.48.17.8.6.96a.04.04 0 0 1 .03.03v.04c-.42.66-1 1.02-1.75 1.09a.36.36 0 0 1-.38-.27l-.45-1.8c0-.01 0-.03.03-.04l.1-.04c.03-.01.05 0 .06.03l.06.27ZM33.74 17.34h-.03a.26.26 0 0 1-.08-.18c-.01-.07 0-.15.03-.25.03-.09.08-.19.14-.29.07-.1.14-.2.23-.3l.04-.03c.17-.19.37-.33.56-.4.18-.08.33-.08.42 0l.01.02a.02.02 0 0 1 0 .02l-1.32 1.4ZM32.03 16.52c.2-.1.45-.19.62-.38a.26.26 0 0 1 .14-.07.3.3 0 0 1 .17.02.4.4 0 0 1 .16.11c.04.05.07.12.09.18.08.34.12.65.1.94a.27.27 0 0 1-.19.24.28.28 0 0 1-.29-.07l-.82-.82a.1.1 0 0 1-.03-.08.1.1 0 0 1 .05-.07ZM35.77 18a.25.25 0 0 0-.15.2.25.25 0 0 0 .1.24l.56.35v.08c-.02.04-.04.05-.07.03a4.5 4.5 0 0 0-1.4-.4c-.38-.05-.62-.22-.73-.51a.17.17 0 0 1 .13-.23l.1.01.7.25c.07.02.13.02.2-.01a.98.98 0 0 0 .33-.35c.07-.1.08-.24.04-.41-.09-.4-.14-.81.14-1.1.08-.09.18-.12.28-.08.08.03.14.07.2.12.03.04.04.1.02.15l-.24.66a.22.22 0 0 0 0 .16c.06.14.13.25.2.33a.23.23 0 0 1 .02.3.24.24 0 0 1-.1.07l-.33.14ZM37.24 16.84l-.45.26a.1.1 0 0 1-.09 0 .1.1 0 0 1-.05-.07c-.05-.35.08-.52.41-.51.29 0 .54.05.76.14a.25.25 0 0 1 .14.32l-.25.68a.16.16 0 0 1-.14.1h-.8c-.08 0-.11-.03-.1-.1 0-.13.06-.21.17-.26.12-.05.3-.1.54-.13a.18.18 0 0 0 .16-.17c0-.03 0-.05-.02-.08l-.03-.1c-.05-.11-.13-.14-.25-.08ZM40.12 19.68a.34.34 0 0 0 .14.23l.65.45a.25.25 0 0 1 .1.28.25.25 0 0 1-.06.09l-.35.35c-.11.1-.22.1-.34.01a1.59 1.59 0 0 1-.43-.49 6.68 6.68 0 0 0-1-1.58c-.04-.05-.04-.09 0-.13l2.4-2.16c.07-.06.1-.05.1.05v.16c0 .1-.05.2-.12.28-.4.4-.96.86-1.07 1.27-.08.32-.1.72-.02 1.19ZM15.22 20.34c.01.18.09.2.22.08.35-.33.57-.69.66-1.07a.37.37 0 0 0-.26-.43l-1.38-.4a1.43 1.43 0 0 1-1.12-1.3.12.12 0 0 1 .17-.12c.61.26 1.18.68 1.7 1.25a.19.19 0 0 0 .32-.06c.08-.23.25-.27.5-.1.36.24.64.47.85.7a.38.38 0 0 1 .04.47L15.7 21.1a.11.11 0 0 0 0 .12l.03.03c.09.06.17.07.24.03.17-.1.32-.28.45-.53l.66-1.16c.04-.07.2-.04.17.06-.47 1.54-1.36 2.88-2.33 4.42-.23.36-.44.6-.64.72a1.5 1.5 0 0 1-1.02.18c-.37-.06-.36-.12 0-.2.16-.03.43-.03.59-.13a3.91 3.91 0 0 0 1.8-2.8c-.03-.07-.1-.02-.14 0a.2.2 0 0 0-.09.1l-.52 1.17a.19.19 0 0 1-.34 0l-.28-.58c-.1-.2-.05-.24.14-.12.11.07.23.1.33.07.06-.01.1-.05.13-.1.17-.42.33-.76.49-1.03.13-.22.07-.4-.18-.53-.13-.07-.31-.1-.53-.1-.28 0 .15-.53.16-.55a.12.12 0 0 0 .02-.08.13.13 0 0 0-.04-.08c-.05-.05-.17-.1-.34-.17-.23-.08-.12-.34 0-.46a.2.2 0 0 1 .17-.05c.26.03.51.11.74.24.06.03.08.1.05.16-.14.26-.2.47-.2.6ZM18.73 18.29l-.54.62c-.16.18-.3.18-.45-.02l-.32-.44a.16.16 0 0 1-.02-.15.28.28 0 0 1 .12-.16.19.19 0 0 1 .2 0l.2.12c.06.03.12.03.18 0a.17.17 0 0 0 .04-.27c-.16-.17-.25-.33-.27-.5a.11.11 0 0 1 .12-.11 21.05 21.05 0 0 1 1.3.9c.21.18.37.36.47.53a.08.08 0 0 1 0 .1.09.09 0 0 1-.08.03c-.43-.03-.7-.24-.8-.63a.08.08 0 0 0-.07-.05.09.09 0 0 0-.08.03Z" fill="#fff"/><path d="M41.27 18.43c-.3.13-.5.2-.57.22-.06.02-.1 0-.07-.08.2-.87.86-1.07 1.7-1.23.07 0 .11.02.12.1.04.18 0 .32-.1.41-.2.16-.56.35-1.08.58ZM38.05 18.37l.1-.26a.13.13 0 0 1 .11-.09c.15-.01.27 0 .36.06a.09.09 0 0 1 0 .15.94.94 0 0 0-.46.63c-.01.07-.05.1-.12.07a3.78 3.78 0 0 1-.47-.14c-.27-.14-.25-.22.05-.27l.3-.04a.15.15 0 0 0 .13-.1ZM25.1 19.03h.04c.04-.03.04-.09 0-.12l-.4-.43c-.08-.08.08-.15.15-.11.47.34.95.56 1.42.64.51.1.8-.26 1-.67.07-.16.13-.15.16.02.02.06-.05.2-.21.4-.13.18.3.45.47.29.16-.16.23-.28.5-.3a12.38 12.38 0 0 1 6.89 2.02c.59.4.91.87.97 1.39.03.22.33.22.38.43.38 1.35.56 2.63.55 3.83 0 1.44-.35 3.09-1.52 3.96-.07.04-.07.1-.02.16.52.65.76 1.35.72 2.12a3.24 3.24 0 0 1-2.14 2.77 3.32 3.32 0 0 1-3.68-.7.14.14 0 0 0-.16.03c-.37.46-.58 1.57.2 1.69.2.03.22.1.05.2-.42.25-.7.58-.69 1.12v.54c.01.06-.02.1-.08.1h-6.4a.26.26 0 0 1-.23-.12 7.24 7.24 0 0 1-1.35-3.72c0-.06-.04-.1-.1-.09a.68.68 0 0 0-.5.23c-.38.43-.67.71-.88.85-.24.16-.33.1-.25-.18.05-.18.14-.35.27-.54.34-.46.89-.83 1.3-1.22.36-.36.47-.76.32-1.2a.36.36 0 0 1-.02-.17l.07-.38c.01-.08-.09-.15-.16-.1l-.25.14a.18.18 0 0 1-.27-.15c-.03-.73.18-1.24.62-1.52.09-.06.06-.2-.04-.22-.24-.06-.58-.12-1-.19-.16-.02-.26-.14-.31-.36 0-.04 0-.07.05-.08l1.3-.52a.1.1 0 0 0 .07-.1c.05-3.7.05-6.33 0-7.91a7.8 7.8 0 0 0-.21-1.64.15.15 0 0 1 .12-.18c.79-.1 1.5-.12 2.11-.08.58.04.95.07 1.14.07Z" fill="#fff"/><path d="M39.32 28.01c.15-.03.3-.11.47-.24.12-.1.3 0 .3.15v.7c0 .21-.27-.09-.28-.1a.35.35 0 0 0-.6.18L39 29.97c-.1.53.91.46.91 1v.21c0 .17-.07.2-.2.1-.29-.2-.55-.16-.8.1-.47.5-.88 1.61.11 1.84.06.01.09.05.08.1-.03.28-.1.5-.2.66-.05.06-.1.06-.14.02-.38-.35-.72-.29-1.01.19-.18.28-.4.7-.67 1.26-.05.1.01.2.12.22l.51.1c.1 0 .16.13.11.22-.05.08-.52.74-.67.48l-.24-.4a.17.17 0 0 0-.27-.04l-1.33 1.33a.23.23 0 0 0-.02.3c.1.13.28.24.51.34.08.03.08.07.03.13l-.51.5c-.06.07-.18.04-.2-.05l-.15-.6a.15.15 0 0 0-.22-.1c-.28.18-.57.39-.86.64a1.6 1.6 0 0 1-.65.35.2.2 0 0 0-.04.35l.56.33c.13.07.12.26-.02.32l-.71.28c-.07.03-.1 0-.12-.07l-.08-.44a.34.34 0 0 0-.4-.27 4.2 4.2 0 0 0-.81.32c-.25.12-.44.2-.58.23-.55.14-.56.3-.03.46.07.02.17.13.3.33.04.05.03.1-.04.12l-.8.32a.06.06 0 0 1-.07-.04v-.03l.15-.89a.15.15 0 0 0-.18-.16l-1.83.45a.13.13 0 0 0-.08.17l.24.6c.02.07-.03.15-.1.15h-.9c-.08 0-.1-.04-.07-.1.07-.19.1-.38.1-.57a.18.18 0 0 0-.07-.15c-.48-.36-1.1-.37-1.8-.42-.17 0-.28.18-.18.32.13.18.22.37.27.56.02.06 0 .1-.07.1l-.92-.04c-.18 0-.26-.22-.14-.35l.31-.3a.31.31 0 0 0-.11-.51l-1.48-.52a.19.19 0 0 0-.16.01c-.23.12-.25.4-.08.82.06.13.03.16-.1.09l-.5-.3a.25.25 0 0 1-.13-.17c-.05-.21.04-.41.25-.6a.1.1 0 0 0 0-.15 3.49 3.49 0 0 0-1.56-.95.16.16 0 0 0-.2.12l-.09.49a.1.1 0 0 1-.1.07.1.1 0 0 1-.04 0c-.7-.4-.49-1.04-.59-1.64-.07-.38-.28-.7-.64-.93a.38.38 0 0 0-.47.04.9.9 0 0 0-.26.48c0 .03-.04.06-.08.05l-.03-.02-.48-.48a.19.19 0 0 1 .09-.31l.52-.13c.05-.02.08-.05.06-.11a1.7 1.7 0 0 0-.28-.66 3 3 0 0 1-.7-1.19.16.16 0 0 0-.27-.06 1.7 1.7 0 0 0-.24.4c-.15.33-.28.32-.38-.03a7.62 7.62 0 0 0-.25-.71.11.11 0 0 1 .12-.1.7.7 0 0 0 .46-.1.17.17 0 0 0 .08-.14c.02-.28.01-.46-.03-.54a4.57 4.57 0 0 1-.44-1.44.14.14 0 0 0-.12-.06l-.07.01c-.17.09-.33.23-.5.43a.07.07 0 0 1-.08.02.07.07 0 0 1-.05-.06 2 2 0 0 0-.2-.73.07.07 0 0 1 .03-.07h.66a.2.2 0 0 0 .15-.08.2.2 0 0 0 .04-.16l-.29-1.7a.15.15 0 0 0-.07-.11.15.15 0 0 0-.13-.01l-.53.2a.12.12 0 0 1-.11 0 .12.12 0 0 1-.06-.11v-.87a.09.09 0 0 1 .04-.08.09.09 0 0 1 .1 0c1.08.58 1.03-1.33.98-1.8-.03-.25-.28-.3-.76-.14-.11.04-.15 0-.1-.1l.1-.28a.46.46 0 0 1 .42-.31c.95-.01 1.13-1.11 1.03-1.84a.18.18 0 0 0-.21-.16.68.68 0 0 1-.37 0 .2.2 0 0 1-.1-.13c-.06-.16 0-.34.16-.53.14-.16.28-.17.44-.03a.7.7 0 0 0 .51.2.15.15 0 0 0 .12-.07l.79-1.36a.16.16 0 0 0-.01-.18l-.38-.52a.4.4 0 0 1-.04-.46l.08-.14c.08-.16.16-.15.24.01.08.15.2.29.35.4.05.03.1.04.17.03a.98.98 0 0 0 .48-.23c.31-.28.59-.56.83-.82l.05.04c.02.01.02.03 0 .05-.56.77-1.07 1.51-1.53 2.22a12.08 12.08 0 0 0-2.07 5.8c-.23 3.04.62 5.8 2.54 8.27.75.96 1.62 1.79 2.6 2.48a9.61 9.61 0 0 0 8.24 1.42 11.15 11.15 0 0 0 7.6-6.72c.68-1.8.96-3.67.83-5.63a10.62 10.62 0 0 0-2.1-5.7 19.24 19.24 0 0 0-2.16-2.4c-.05-.05-.26-.39-.01-.33.42.1.8.33 1.1.7.18.2.46.56.83 1.05a.19.19 0 0 0 .32-.02l.32-.54c.28-.48.6.62.62.68.05.1-.03.23-.14.23-.2.02-.34.02-.42 0-.29-.05-.35.06-.18.33l.98 1.58c0 .02.03.04.05.05.06.04.15.02.2-.04a.86.86 0 0 0 .23-.56c0-.06.04-.1.1-.1.08.01.13.04.16.1.11.24.23.48.37.71.03.06.02.1-.05.11-.13.02-1.03 0-.88.38l.72 1.8a.13.13 0 0 0 .2.06l.4-.29a.19.19 0 0 1 .23.02l.05.07c.09.25.12.45.1.6a.14.14 0 0 1-.18.12l-.57-.2a.17.17 0 0 0-.23.19l.34 2.02c.01.06.05.08.1.07ZM41.88 19.28h.02c.08.11.1.24.08.38a.56.56 0 0 1-.22.33l-.03.02a.58.58 0 0 1-.4.1.49.49 0 0 1-.18-.06.45.45 0 0 1-.14-.12v-.03l.87-.62ZM38.42 19.4c.47.3.83.72 1.07 1.28l1.11 2.5a2.6 2.6 0 0 0 2.13 1.56c.27.03.28.1.03.2-1.1.44-2.16-1.3-2.61-2.14a79.06 79.06 0 0 1-1.42-2.75c-.09-.18-.26-.4-.38-.57-.1-.14-.08-.16.07-.08ZM43.03 20.5a3.24 3.24 0 0 1-1.96 1.23c-.28.06-.35-.04-.2-.28l.2-.37a.91.91 0 0 1 .57-.43l1.29-.32a.1.1 0 0 1 .1.04.1.1 0 0 1 0 .12ZM13.3 20.77c.64-.12 1.9.12 1.49 1.06-.03.07-.08.1-.15.07-.55-.16-1.36-.4-1.46-.96-.02-.1.02-.16.12-.17Z" fill="#fff"/><path d="M41.6 22.46a.03.03 0 0 1 .02.03v.02c0 .14-.04.27-.12.37-.08.1-.2.16-.32.16h-.06a.44.44 0 0 1-.33-.13.55.55 0 0 1-.15-.36v-.03a.03.03 0 0 1 0-.02.03.03 0 0 1 .03 0l.92-.04ZM41.97 24.18c.33.1.64.05.7-.13.06-.19-.16-.42-.48-.53-.33-.1-.64-.04-.7.14-.06.18.15.42.48.52ZM14.16 23.55c.05 0 .1 0 .16.02.06.03.08.06.05.12-.17.38-.48.55-.93.53a.08.08 0 0 1-.07-.06v-.03c.02-.39.2-.57.57-.56l.22-.02ZM41.74 27.4c-.17 0-.26.1-.26.27v1.07c0 .16.08.22.24.17a1.52 1.52 0 0 1 1.63.42c.1.1.09.14-.06.1l-.68-.17a3.01 3.01 0 0 0-1.31-.07s-.02 0-.02-.02a.06.06 0 0 1-.03-.04v-2.05c0-.07.04-.1.12-.1.62.09 1.28.05 1.99-.12.09-.02.1 0 .03.06-.39.35-1.16.49-1.65.49ZM20.43 31.48c-.04.03-.04.1 0 .13.5.26 1.17.83.83 1.47a.2.2 0 0 1-.22.1l-1.2-.3c-.37-.1-.45.01-.26.32l.17.15c.07.06.06.09-.02.1a.78.78 0 0 1-.4-.02.14.14 0 0 1-.1-.12c-.1-.5.06-.79.47-.86l.07-.03a.15.15 0 0 0 .02-.2.75.75 0 0 0-.5-.28.08.08 0 0 1-.05-.1c.31-.6.89-1.32 1.57-1.02a.24.24 0 0 1 .02.44l-.4.22ZM38.8 37.54l-.32.25a123.74 123.74 0 0 1-5.23 4.29c-.23.17-.4.36-.39.7.03.41 0 .8-.07 1.15a.13.13 0 0 1-.14.11l-.06-.01c-.1-.07-.16-.17-.17-.3-.01-.3.04-.7.15-1.17.08-.33.25-.6.5-.82.44-.37.83-.67 1.19-.89l1-.62c1.14-.8 2.11-1.79 2.9-2.94.54-.76.99-1.47 1.36-2.13.63-1.12 1.26-2.3 1.91-3.53.03-.06.08-.1.13-.13.55-.24.97-.33 1.27-.27.23.04.38.14.46.3.14.28.06.38-.25.28a1.7 1.7 0 0 0-1.65.38c-.26.2-.53.66-.8 1.34-.41 1-.7 1.69-.87 2.05-.17.39-.4.72-.7 1a.2.2 0 0 0-.02.24c.43.75.62 1.3.07 2.09-.22.31-.48.57-.77.76-.2.12-.35.3-.47.55a6.62 6.62 0 0 0-.55 1.4.16.16 0 0 1-.14.06.17.17 0 0 1-.08-.02c-.16-.1-.29-.22-.38-.33a.15.15 0 0 0-.16-.06c-.06.02-.1.09-.14.2 0 .06-.04.09-.1.09-.12 0-.2-.07-.24-.2a.86.86 0 0 1 .07-.75c.25-.39.57-.69.97-.89.05-.03.11-.02.18 0l.34.13c.33.12.4.03.24-.26-.18-.33-.09-.65.29-.96.35-.29.6-.58.78-.87.04-.07.05-.13.03-.18-.03-.07-.07-.08-.13-.04Z" fill="#fff"/><path d="m39.95 35.8.7-1.47c.02-.06.06-.09.1-.08.14.03.21.12.2.28-.01.6-.32 1.06-.9 1.36-.12.06-.16.03-.1-.09ZM39.9 36.95a.64.64 0 0 0-.22.09.14.14 0 0 1-.2-.04.14.14 0 0 1-.02-.07c-.02-.28.2-.41.46-.49.45-.12.77-.34.97-.64.04-.06.09-.07.14-.02.07.06.12.13.16.22.02.05 0 .09-.04.11l-.28.13a.19.19 0 0 0-.1.1.18.18 0 0 0 .01.15l.3.62a.17.17 0 0 1-.15.24 2.93 2.93 0 0 0-.97.36.04.04 0 0 1-.04-.03v-.02l.1-.6c.02-.1-.03-.13-.13-.11ZM15.5 37.96c.23.17.46.27.69.3.16.01.22.1.2.26l-.1.6c-.04.18-.13.22-.28.15-.5-.24-.76-.63-.78-1.17a.17.17 0 0 1 .18-.17c.03 0 .06 0 .08.03ZM19.26 40.42c-.25.01-.49.1-.72.27a.16.16 0 0 0-.07.15c.01.1.05.21.12.33.03.05.02.1-.03.13-.48.27-.99-.02-1.29-.43-.45-.6.11-1.37.69-1.64a.28.28 0 0 1 .3.04l1.07.9c.14.11.21.37.22.77 0 .02-.01.02-.03.02a.1.1 0 0 1-.05-.02 22 22 0 0 0-.08-.42.12.12 0 0 0-.04-.07.13.13 0 0 0-.09-.03ZM39.03 40.87c0 .1-.02.2-.06.27a.11.11 0 0 1-.07.06.12.12 0 0 1-.1-.02.8.8 0 0 1-.4-.86c0-.07.05-.11.13-.12.24 0 .46-.06.68-.17a.17.17 0 0 1 .17.01c.06.04.08.1.07.17 0 .04-.03.09-.07.14l-.3.35a.32.32 0 0 0-.05.17ZM35.3 42.05c.32-.28.45-.66.3-.83-.15-.16-.54-.07-.86.22-.33.3-.46.66-.31.83.15.17.54.07.86-.22ZM19.49 42.38c-.11-.05-.12-.16-.08-.25a.72.72 0 0 1 .92-.42l.08.03c.17.07.32.2.4.38.05.13.13.68-.16.69l-.06-.01-1.1-.42ZM21.52 44.17c.02.12.1.18.22.18.16.01.37-.08.65-.27.17-.13.26-.27.25-.43-.03-.51-.2-.96-.52-1.34-.13-.17-.1-.22.1-.18.16.04.3.13.42.3.35.48.45 1.09.31 1.83-.2 1.06-1.58 1.24-1.96.2-.12-.33-.15-.7-.09-1.1.08-.52.62-.83 1.12-.51.3.19.25.64-.02.82l-.37.26a.25.25 0 0 0-.1.24ZM36.57 42.79c-.27.25-.43.4-.51.68a.1.1 0 0 1-.13.07.1.1 0 0 1-.04-.03c-.37-.34-.44-.75-.2-1.23.07-.17.2-.2.36-.12l.48.28a.22.22 0 0 1 .11.17.21.21 0 0 1-.07.18ZM34.55 43.58c-.04.33.06.37.3.13.05-.06.1-.16.15-.3.04-.13.09-.13.13 0 .18.44.1.82-.22 1.12-.38.36-1.1.55-1.49.09-.17-.2-.12-.73-.14-1.24a1.4 1.4 0 0 1 .3-1.03c.07-.07.1-.06.08.04-.05.38-.07.81-.05 1.3 0 .38.75 1.22.93.6a.26.26 0 0 0 0-.1.86.86 0 0 0-.17-.39c-.15-.18-.23-.3-.24-.32a.45.45 0 0 1 .1-.47c.05-.05.1-.06.17-.05.14.04.2.13.18.28l-.03.34ZM28.77 43.8c-.1-.15-.16-.24-.21-.26-.29-.14-.28-.25.03-.31.08-.02.17.05.26.2.3.47.3.97.02 1.49a.3.3 0 0 1-.08.09.67.67 0 0 1-.14.08.4.4 0 0 1-.21.02c-.08 0-.1-.04-.05-.1.4-.55.53-.95.38-1.21Z" fill="#fff"/><path d="M28 44.6c.26 0 .46-.2.46-.45s-.2-.45-.45-.45-.46.2-.46.45.2.45.46.45Z" fill="#fff"/><path d="M32.22 20.69c1.41.88 2.08 2.1 2.02 3.67-.07 1.82-1 3.03-2.8 3.62-1.38.46-3.71-.04-5.15.02a.21.21 0 0 0-.2.16 7.2 7.2 0 0 0-.18 2.24c.1 1.38.16 2.38-.18 3.54a.32.32 0 0 0 .14.36l.74.51c.2.15.3.28.29.41-.03.2-.13.3-.33.28l-3.33-.1c-.07 0-.1-.04-.08-.1.1-.33-.02-.62-.02-.95 0-1.36-.02-3.4-.07-6.15a83.78 83.78 0 0 1 .2-7.72c0-.13.15-.21.27-.15.4.2.66.56.76 1.09.13.7.2 1.33.19 1.9 0 .03.02.05.06.05l.8-.14c.02 0 .02-.01.02-.03a2 2 0 0 1 0-.97c.03-.1 0-.14-.1-.15a.79.79 0 0 1-.36-.1c-.23-.18.54-.7.61-.77.1-.1.08-.16-.05-.2-.15-.04-.38-.07-.57-.18-.75-.44-1.1-.74-1.73-.81-.23-.03-.24-.07 0-.12.41-.09.82-.18 1.24-.19 1.4-.01 3.2 0 5.39.03.14 0 .47 0 1-.03.08 0 .1.03.09.1a.58.58 0 0 1-.09.2.14.14 0 0 0 .1.2c.43.08.95.12 1.54.14.48.02.88.57 1.14.79l1.21.99c.26.2.43.41.54.61.1.2.06.24-.13.11a2.93 2.93 0 0 1-.8-.87.38.38 0 0 0-.12-.11c-.63-.36-1.22-.74-1.77-1.14-.09-.07-.18-.06-.27-.1h-.03v.04l.01.02Z" fill="#DD1625"/><path d="M24.62 37.14c-.32.01-.33.06-.02.16.6.18 1.27.23 2.01.16a9.76 9.76 0 0 1 1.72-.03c.08 0 .14-.06.13-.14a2.16 2.16 0 0 0-.31-.76l-.9-1.24a.96.96 0 0 1-.18-.56l-.05-3.36c0-.91.06-1.6.21-2.07.02-.06.06-.09.12-.08.38.02.93.04 1.64.05 2.47.07 5.4-.56 6.22-3.12.24-.76.3-1.68.2-2.76-.01-.04.01-.07.06-.06l.06.01.08.07a5.1 5.1 0 0 1 .5 4.13 5.3 5.3 0 0 1-3.54 3.28 6.7 6.7 0 0 1-3.27.18.1.1 0 0 0-.1.05 24.91 24.91 0 0 1-.2 6.54c-.02.04-.04.08-.07.1a.17.17 0 0 1-.11.04h-4.58a.25.25 0 0 1-.22-.13 3.54 3.54 0 0 0-.79-1c-.1-.1-.08-.13.05-.1l.5.12c1.58 0 2.72.02 3.41.07.35.03.62.08.8.16.24.09.23.17 0 .24-1.06.3-2.44.03-3.37.05Z" fill="#DD1625"/><path d="M34.4 32.68c-.91 1.64-1.84 1.26-2.38 2a.15.15 0 0 0-.03.08l-.01.34a.1.1 0 0 1-.04.07.1.1 0 0 1-.09.01c-1.5-.5-1.85-1.97-1.56-3.35 0-.02.01-.05.03-.07a.15.15 0 0 1 .22 0c.25.25.48.5.72.78.05.06.2.12.22 0v-.04l-.28-.58c-.05-.1.04-.2.14-.18l.33.06c.38.03.76-.14 1.36-.33.45-.15.78-.02.99.37.07.15.28.18.4.07.27-.25.37-.57.3-.98-.03-.17.04-.25.21-.25h.08c.16.01.24.1.23.26l-.02.59c0 .07.02.13.06.19.2.3.29.5.3.6 0 .44.02.88.04 1.3 0 .1-.04.14-.14.14-.07 0-.12-.02-.16-.06a.54.54 0 0 1-.1-.16.37.37 0 0 1-.04-.16l.02-.7c0-.1-.02-.1-.09-.05l-.3.3a.12.12 0 0 1-.13.04c-.12-.04-.19-.13-.2-.27 0-.1-.03-.11-.08-.02Z" fill="#DD1625"/><path d="M32.77 23.75h.9a.19.19 0 0 1 .18.18v.08c0 .13-.06.2-.19.2h-1.3c-.09 0-.12-.04-.11-.13.12-1.13-.34-2.03-1.38-2.7a3.87 3.87 0 0 0-1.17-.52c-.03-.01-.05-.04-.04-.07l.02-.05.04-.01c1.58-.06 3.14.99 4.02 2.22a.29.29 0 0 1-.2.46l-.83.08a.09.09 0 0 0-.08.06v.08c.01.08.06.12.14.12Z" fill="#fff"/><path d="M27.4 22.48a.28.28 0 0 0-.25.22c-.1.49-.15.91-.13 1.27.07 1.24.06 2.2-.02 2.87a.4.4 0 0 1-.32.36.42.42 0 0 1-.17 0c-.25-.05-.41-.25-.5-.6a4.98 4.98 0 0 1-.13-1.7 16.13 16.13 0 0 0 .06-3.5.22.22 0 0 1 .12-.12 101.95 101.95 0 0 1 2.7 0c1.27.03 2.44.47 2.7 1.85.02.06 0 .07-.04.02-.4-.44-1-.67-1.8-.7-.53 0-1.27 0-2.21.03ZM25.3 23.76l-.81-.01c-.1 0-.18.07-.18.17v.09c0 .1.07.17.17.17l.82.01c.1 0 .18-.07.18-.17v-.08c0-.1-.08-.18-.17-.18ZM25.28 24.51h-.8a.2.2 0 0 0-.2.2v.04c0 .1.1.2.2.2h.8c.1 0 .2-.1.2-.2v-.04a.2.2 0 0 0-.2-.2ZM33.24 24.96l-.92-.03a.18.18 0 0 1-.17-.13c0-.02-.01-.05 0-.07v-.05c0-.04.03-.09.06-.12a.18.18 0 0 1 .13-.04h1.33a.08.08 0 0 1 .06.02.07.07 0 0 1 .02.07 4.3 4.3 0 0 1-.48 1.3 2.42 2.42 0 0 1-2.31 1.3c-.07 0-.1-.03-.05-.1.17-.25.44-.61.8-1.07.13-.17.22-.4.28-.7.01-.07.05-.1.12-.1h1.1c.08 0 .12-.04.12-.12v-.06c0-.06-.03-.1-.1-.1ZM25.27 25.25l-.77-.02a.2.2 0 0 0-.2.2v.05c0 .1.08.2.19.2l.77.02a.2.2 0 0 0 .2-.19v-.06a.2.2 0 0 0-.19-.2ZM24.4 26.47a.04.04 0 0 1-.04-.01.04.04 0 0 1 0-.03v-.02c-.01-.1.03-.18.1-.25s.17-.1.28-.11h.25a.42.42 0 0 1 .28.1c.04.03.07.07.09.11.02.04.03.09.03.14v.01a.04.04 0 0 1-.04.04l-.96.02ZM24.84 27.24c.27 0 .49-.05.5-.12 0-.07-.22-.14-.5-.15-.27 0-.49.05-.49.12 0 .08.22.14.49.15ZM24.86 27.95c.24-.05.42-.2.4-.31-.04-.12-.26-.17-.5-.12-.25.06-.42.2-.4.32.03.12.25.17.5.11ZM25.25 28.21l-.76-.03a.1.1 0 0 0-.1.1v.05c0 .06.04.1.1.1l.75.04a.1.1 0 0 0 .11-.1v-.05a.1.1 0 0 0-.1-.1Z" fill="#fff"/></svg>