<!-- by TradingView --><svg width="56" height="56" viewBox="0 0 56 56" xmlns="http://www.w3.org/2000/svg"><path fill="#F0F3FA" d="M0 0h56v56H0z"/><path d="M38.05 15.58c3.92 3.19 5.9 7.42 5.95 12.7 0 .77-.13 1.61-.2 2.4 0 .07-.04.1-.1.1-1.31-.2-2.62-.3-3.94-.27-.06 0-.09-.03-.08-.1.2-1.58-.02-3.1-.67-4.53-.2-.46-.64-1.03-.67-1.63-.1-2.09-.46-4.13-1.09-6.11a.25.25 0 0 0-.28-.17c-1.55.3-3.25 1.27-4.54 2.18a.18.18 0 0 1-.16.03c-2.85-.89-5.7-.89-8.55 0-.05.02-.1 0-.13-.02-1.18-.85-3.07-1.98-4.52-2.19a.32.32 0 0 0-.35.23c-.61 1.98-.97 3.99-1.06 6.02-.01.17-.06.5-.15.65a8.57 8.57 0 0 0-1.23 5.57.13.13 0 0 1-.07.08 19.01 19.01 0 0 0-3.9.26c-.05 0-.09-.02-.1-.07a15.98 15.98 0 0 1 25.84-15.13ZM12.88 33.31l-.41-1.44a.06.06 0 0 1 .05-.08l3.98-.24a.06.06 0 0 1 .06.04l.28.85a.06.06 0 0 1 0 .04.06.06 0 0 1-.04.03l-3.85.84h-.05a.06.06 0 0 1-.02-.04ZM43.52 31.9l-.4 1.38a.09.09 0 0 1-.1.06l-3.82-.82a.08.08 0 0 1-.07-.08v-.04l.34-.8a.09.09 0 0 1 .08-.05l3.9.24a.09.09 0 0 1 .08.07v.04ZM14.17 35.99c-.04.02-.07.01-.09-.03l-.71-1.37a.12.12 0 0 1 0-.1.12.12 0 0 1 .07-.08c1.12-.31 2.24-.55 3.35-.73.59-.09.9.1 1.06.65.02.05 0 .09-.06.1-1.26.4-2.47.91-3.62 1.56ZM42.6 34.45c.04 0 .05.03.03.07l-.7 1.44c-.02.05-.06.06-.11.03a18.42 18.42 0 0 0-3.65-1.56c-.08-.03-.1-.08-.05-.15l.37-.56a.2.2 0 0 1 .18-.08c1.34.14 2.65.4 3.93.8ZM41.19 37c-.06.14-.15.28-.24.4a16.01 16.01 0 0 1-26.13-.3c-.04-.06-.03-.1.03-.14a16.61 16.61 0 0 1 3.9-1.53l.08.04c4.94 4.84 13.38 4.9 18.3 0 .05-.04.1-.05.16-.04 1.37.34 2.67.86 3.9 1.56Z" fill="#E6352B"/><path d="M26 26.32c-2.72-2.98-7.8-.47-6.9 3.2.44 1.76 1.88 2.86 3.8 2.97.02 0 .04 0 .06.02a.1.1 0 0 1 .03.07c.31 2.5 3.34 3.3 4.93 1.27a.1.1 0 0 1 .08-.04.1.1 0 0 1 .05.01.1.1 0 0 1 .04.03c1.5 2.03 4.66 1.2 4.86-1.25 0-.06.04-.1.1-.1 3.57-.23 5.37-4.21 2.6-6.54a4.18 4.18 0 0 0-5.18-.1 3.59 3.59 0 0 0-.27 5.55 5.88 5.88 0 0 0 1.63 1.02c.05.03.09.07.1.12.33.86-.18 1.47-1.04 1.7-1.05.29-1.87-.07-2.44-1.06-.03-.05-.01-.09.04-.12.5-.27 1.03-.8.36-1.26-1.3-.87-2.96.73-1.38 1.23a.1.1 0 0 1 .06.05.08.08 0 0 1 0 .07c-.83 1.71-3.89 1.6-3.55-.55 0-.06.04-.1.09-.13l1.11-.66a3.53 3.53 0 0 0 .81-5.5ZM22 28a1 1 0 1 1 2 0v2a1 1 0 1 1-2 0v-2Zm10 0a1 1 0 1 1 2 0v2a1 1 0 1 1-2 0v-2Z" fill="#E6352B"/></svg>