<!-- by TradingView --><svg width="56" height="56" viewBox="0 0 56 56" xmlns="http://www.w3.org/2000/svg"><path fill="#F0F3FA" d="M0 0h56v56H0z"/><path d="M15.48 38.18 8 30.74l4.14-4.21 5.43 5.28 5.3-5.28 5.34 5.28 9.77-9.83 4.13 4.1-11.9 12.1a2.94 2.94 0 0 1-4.08 0l-3.27-3.26-3.3 3.26c-1.82 1.48-3.47.62-4.08 0Z" fill="url(#a0dugqulc)"/><path d="m27 30.62-4.14 4.3-4.1-4.3 4.1-4.09 4.15 4.1ZM43.62 16.9c.25 0 .45-.2.45-.45s-.2-.45-.45-.45c-.24 0-.44.2-.44.45s.2.45.44.45Zm-.52.93c0 .19-.07.35-.18.48h1.4a.71.71 0 0 1 .53-1.19c.4 0 .7.32.7.71a.7.7 0 0 1-.7.72.7.7 0 0 1-.45-.17v1.35h1.34a.71.71 0 0 1 .52-1.18c.4 0 .7.31.7.7a.7.7 0 0 1-.7.72.7.7 0 0 1-.47-.18v1.54H44.4v1.37a.7.7 0 0 1 .45-.17c.4 0 .7.32.7.71a.7.7 0 0 1-.7.71.71.71 0 0 1-.51-1.2H42.9a.71.71 0 0 1-.5 1.2.7.7 0 0 1-.71-.7c0-.4.31-.72.7-.72a.7.7 0 0 1 .45.17v-1.37h-1.39v-1.6h1.4v-1.35a.7.7 0 0 1-.46.17.7.7 0 0 1-.7-.72c0-.39.31-.7.7-.7.4 0 .7.31.7.7Zm3.87 4.08a.7.7 0 0 1-.7.71.7.7 0 0 1-.71-.7c0-.4.31-.72.7-.72.4 0 .7.32.7.71Zm-6.09.71a.7.7 0 0 0 .7-.7.7.7 0 0 0-.7-.72.7.7 0 0 0-.7.71c0 .4.31.71.7.71Zm-.99-2.04c0 .24-.2.45-.44.45a.45.45 0 0 1-.45-.45.45.45 0 1 1 .9 0Zm7.66.45c.25 0 .45-.2.45-.45s-.2-.45-.45-.45c-.24 0-.44.2-.44.45 0 .24.2.45.44.45Zm-3.48 3.52a.45.45 0 1 1-.9 0 .45.45 0 1 1 .9 0Zm-3.19-4.58a.7.7 0 0 0 .7-.71.7.7 0 0 0-.7-.71.7.7 0 0 0-.7.7c0 .4.31.72.7.72Z" fill="#6A9C42"/><defs><linearGradient id="a0dugqulc" x1="37.83" y1="22.64" x2="16.5" y2="42.15" gradientUnits="userSpaceOnUse"><stop stop-color="#65973E"/><stop offset=".99" stop-color="#2D530F"/></linearGradient></defs></svg>