<!-- by TradingView --><svg width="56" height="56" viewBox="0 0 56 56" xmlns="http://www.w3.org/2000/svg"><path fill="#F0F3FA" d="M0 0h56v56H0z"/><path fill-rule="evenodd" d="M24.6 35.23c7.14 3.54 15.34 1.6 18.32-4.31 2.97-5.93-.4-13.6-7.53-17.15-7.13-3.54-15.33-1.6-18.3 4.31-2.98 5.93.39 13.6 7.52 17.15Zm3.24-6.37c4.84 2.27 10.4 1.04 12.42-2.75 2.03-3.8-.26-8.7-5.1-10.97-4.84-2.27-10.4-1.04-12.42 2.75-2.03 3.8.26 8.7 5.1 10.97Z" fill="#FED005"/><path d="M42.94 33.68c-4.22 4.61-12.75 7.04-19.06 3.9-8.6-4.61-10.59-14.37-7.53-20.48a18.96 18.96 0 0 0-2.98 4.86c-3.1 6.14-1.1 15.97 7.57 20.62 7.4 3.67 17.82-.25 20.9-6.39.43-.84.8-1.68 1.1-2.51Z" fill="#0D4C92"/><path d="M38.5 23.32c-1.39 2.6-5.2 3.46-8.5 1.9-3.31-1.56-4.88-4.94-3.5-7.54 1.39-2.6 5.2-3.46 8.5-1.9 3.31 1.56 4.88 4.94 3.5 7.54Z" fill="#BF1E2E"/></svg>