<!-- by TradingView --><svg width="56" height="56" xmlns="http://www.w3.org/2000/svg"><path fill="#D61920" d="M0 0h56v56H0z"/><path d="M21.65 31.44l1.925-1.917L22.039 28l1.536-1.526-1.925-1.913-1.536 1.522-1.013-1.008a4.18 4.18 0 00-5.886 0 4.125 4.125 0 000 5.847 4.18 4.18 0 005.886 0c.466-.46 1.013-1.008 1.013-1.008l1.536 1.526zm-4.478-2.432a1.447 1.447 0 01-2.028 0 1.418 1.418 0 010-2.015 1.439 1.439 0 012.028 0c.457.45 1.013 1.008 1.013 1.008l-1.013 1.007zm25.63-3.933a4.2 4.2 0 00-5.903 0c-.47.464-1.005 1.008-1.005 1.008l-1.531-1.522-1.93 1.913L33.97 28l-1.535 1.523 1.929 1.918 1.531-1.527s.535.548 1.005 1.008a4.2 4.2 0 005.903 0A4.08 4.08 0 0044 28a4.09 4.09 0 00-1.198-2.925zm-1.925 3.933a1.478 1.478 0 01-2.053 0C38.397 28.553 37.84 28 37.84 28s.556-.556.984-1.007a1.47 1.47 0 012.053 0c.257.276.385.642.385 1.008 0 .365-.128.727-.385 1.007zM29.953 28s4.517-4.494 4.97-4.94a4.104 4.104 0 000-5.851 4.187 4.187 0 00-5.886 0c-.637.633-1.01 1.007-1.01 1.007s-.38-.374-1.013-1.007a4.187 4.187 0 00-5.886 0 4.12 4.12 0 000 5.85L26.098 28l-4.97 4.937a4.12 4.12 0 000 5.851 4.18 4.18 0 005.886 0c.633-.633 1.014-1.008 1.014-1.008s.372.375 1.01 1.008a4.18 4.18 0 005.885 0 4.104 4.104 0 000-5.85C34.47 32.49 29.953 28 29.953 28zm-6.896-6.858a1.418 1.418 0 010-2.016 1.439 1.439 0 012.028 0l1.014 1.008-1.536 1.527 1.93 1.913 1.535-1.522 1.531 1.522 1.93-1.913-1.536-1.527 1.014-1.008a1.439 1.439 0 012.027 0c.56.557.56 1.459 0 2.016-.586.587-4.988 4.962-4.988 4.962l-4.949-4.962zm9.937 15.728a1.439 1.439 0 01-2.027 0l-1.014-1.007 1.535-1.527-1.929-1.913-1.531 1.522-1.536-1.522-1.929 1.913 1.536 1.527-1.014 1.007a1.439 1.439 0 01-2.028 0 1.418 1.418 0 010-2.015c.586-.583 4.95-4.962 4.95-4.962l4.987 4.962c.56.557.56 1.458 0 2.015z" fill="#fff"/></svg>