<!-- by TradingView --><svg width="56" height="56" viewBox="0 0 56 56" xmlns="http://www.w3.org/2000/svg"><path fill="#F0F3FA" d="M0 0h56v56H0z"/><path d="M50.78 34h-6.56A1.2 1.2 0 0 1 43 32.8v-9.6c0-.68.55-1.2 1.22-1.2h6.56c.67 0 1.22.52 1.22 1.2 0 .68-.55 1.3-1.22 1.3H45.5V27h5.28c.66 0 1.22.53 1.22 1.2 0 .67-.56 1.3-1.22 1.3H45.5v2h5.28c.67 0 1.22.62 1.22 1.3s-.55 1.2-1.22 1.2ZM26.84 34c-.66 0-1.34-.56-1.34-1.2v-6.3l-2.6 4.05c-.22.3-.52.45-.9.45s-.68-.15-.9-.45l-2.6-4.05v6.3c0 .64-.63 1.2-1.29 1.2-.65 0-1.21-.56-1.21-1.2v-9.58c0-.57.25-.95.76-1.13.51-.2.93-.07 1.27.39l3.97 5.4 3.97-5.4c.34-.44.76-.58 1.27-.4.5.19.76.57.76 1.14v9.58c0 .64-.5 1.2-1.16 1.2ZM4 28c0-3.28 2.74-6 6.01-6 1.95 0 3.52.77 4.72 2.3.21.26.3.55.26.87a1.21 1.21 0 0 1-1.34 1.05c-.33-.04-.6-.19-.8-.45A3.56 3.56 0 0 0 6.5 28a3.56 3.56 0 0 0 6.35 2.23c.2-.26.47-.41.8-.45.66-.09 1.25.4 1.34 1.05.04.32-.05.61-.26.87a5.72 5.72 0 0 1-4.72 2.3A6.06 6.06 0 0 1 4 28ZM36.73 29a2 2 0 1 1 0-2h3.07c.67 0 1.2.53 1.2 1.2 0 3.2-2.86 5.8-6 5.8-3.27 0-6-2.73-6-6s2.73-6 6-6a5.8 5.8 0 0 1 3.86 1.4c.25.22.4.5.43.83a1.2 1.2 0 0 1-1.1 1.28c-.33.04-.62-.05-.88-.27A3.4 3.4 0 0 0 35 24.5a3.47 3.47 0 0 0-3.5 3.5c0 1.96 1.54 3.5 3.5 3.5 1.36 0 2.92-1.17 3.4-2.5h-1.67Z" fill="#F88E48"/></svg>