<!-- by TradingView --><svg width="56" height="56" viewBox="0 0 56 56" xmlns="http://www.w3.org/2000/svg"><path fill="#F0F3FA" d="M0 0h56v56H0z"/><path d="M45.96 25.37c0 .05.02.09.05.12a.2.2 0 0 0 .1.07 6.11 6.11 0 0 1 3.66 2.38c.5.68.86 1.45 1.05 2.29a6.3 6.3 0 0 1-2.4 6.59 5.95 5.95 0 0 1-3.96 1.16.06.06 0 0 1-.01-.05v-1.38c0-.04.01-.05.05-.05l.68-.04a4.71 4.71 0 0 0 4.31-4.87 4.75 4.75 0 0 0-4.3-4.64c-.45-.07-.68-.34-.68-.81a8 8 0 0 0-.65-3.19 7.36 7.36 0 0 0-2.7-3.21 7.15 7.15 0 0 0-9.96 2.05.38.38 0 0 1-.35.17 17.56 17.56 0 0 0-1.44-.01.05.05 0 0 1 0-.05 8.81 8.81 0 0 1 4.08-4.06 8.6 8.6 0 0 1 7.99.3 8.92 8.92 0 0 1 4.48 7.23Z" fill="#EDB84C"/><path d="M14.95 24H8.38c-.26 0-.38.14-.38.4v2.2c0 .25.11.4.36.4h7.18c.45 0 .75.01.9.07.3.13.5.41.56.84a.07.07 0 0 1-.04.08l-.03.01H8.04a4.4 4.4 0 0 1-1.1-.09c-.43-.13-.7-.42-.84-.85a4 4 0 0 1-.1-1.05v-1.07c0-.54.04-.92.14-1.13.19-.4.51-.67.98-.77.11-.03.33-.04.64-.04h9.19l.01.01a.04.04 0 0 1 .02.03l.02.02v2.84c0 .07-.05.1-.12.1h-6.85c-.02 0-.03-.01-.03-.03v-.93c0-.03.02-.04.04-.04h4.92l.02-.02.02-.03v-.9c0-.02-.02-.05-.05-.05ZM19.34 24.2a1.79 1.79 0 0 1-.62-1.13c-.01-.05 0-.07.05-.07h2.17c.04 0 .06.02.06.06v1.63a.04.04 0 0 1-.04.03 2.73 2.73 0 0 1-1.62-.52ZM24.5 26.05l.01-.02V26l-.02-.01H22.08c-.06 0-.08-.03-.08-.08v-.85c0-.05.02-.07.07-.07h2.87a.06.06 0 0 0 .06-.03v-1.85c0-.08.04-.12.13-.12h1.79c.03 0 .08.02.08.05v1.92c.03.04.05.03.08.03h2.43c.4.08.6.4.58.9 0 .01-.04.1-.06.1h-3.34c-.04 0-.08.02-.09.04l-2.86 5.85a.2.2 0 0 1-.19.11h-1.82a.1.1 0 0 1-.05-.01.1.1 0 0 1-.03-.03.09.09 0 0 1 0-.09l2.86-5.82ZM33.09 23.01h7.24c.31 0 .62.15.66.49.02.18.02.33 0 .45l-.02.04a.05.05 0 0 1-.04.01H33.1a.1.1 0 0 1-.1-.1v-.8a.09.09 0 0 1 .1-.09Z" fill="#3F8FD1"/><path d="M21.3 32.85c.06.1.17.15.33.15h7.5c.16 0 .31.02.45.11.13.09.23.2.3.35l.07.15c.12.26.04.4-.25.39h-8.8c-.54 0-.9-.04-1.07-.12-.66-.28-.83-1.03-.83-1.72v-7.11c0-.03.02-.05.05-.05H21v6.91c0 .38.14.69.3.94Z" fill="#3F8FD1"/><path d="M29.82 32h-1.99a.06.06 0 0 1-.02-.03l-1.61-3.2-.01-.02v-.03l.94-2.02s.01-.02.03-.02a.07.07 0 0 1 .07 0l.02.02 2.63 5.21a.06.06 0 0 1 0 .06l-.03.02-.03.01ZM31.04 27h9.67c.46 0 .74.02.83.04.34.1.5.39.45.86a.1.1 0 0 1-.03.07.1.1 0 0 1-.07.03H31.05c-.03 0-.05-.02-.05-.05v-.91c0-.03.01-.04.04-.04ZM33.85 33h6.06c.02 0 .05.03.07.01.02-.02.02-.04.02-.07v-.67c0-.05.03-.07.08-.07.58.06 1.31.31 1.56.78.15.29.24.61.27.97 0 .03-.02.05-.05.05h-9.1c-.37 0-.63-.03-.75-.08a.93.93 0 0 1-.55-.58.98.98 0 0 1 .17-1l2.87-3.64a.34.34 0 0 1 .12-.1c.04-.02.1-.03.15-.03H37.1l.02.03a.06.06 0 0 1 0 .07l-3.33 4.24c-.07.09-.04.09.06.09ZM8 30.08a.05.05 0 0 0 0-.05L7.98 30 7.95 30c-.93-.07-1.74-.35-1.88-1.34a.09.09 0 0 1 .03-.07.1.1 0 0 1 .07-.03H7.9a.1.1 0 0 1 .07.03c.02.01.04.04.04.06v.26c0 .06.01.09.07.09h7.58c.43 0 .72.03.89.11.32.16.46.44.46.85v2.6c-.02.78-.35 1.44-1.27 1.44h-3.11c-.07 0-.1-.03-.07-.1l.37-.8a.18.18 0 0 1 .07-.08.18.18 0 0 1 .1-.02h1.78l.06-.03c.01-.01.07-.03.07-.05v-2.86c0-.02-.1-.06-.12-.06h-1.21c-.03 0-.05 0-.08.02a.13.13 0 0 0-.05.05l-1.96 3.84a.16.16 0 0 1-.06.06.18.18 0 0 1-.09.03H9.51l-.02-.01-.02-.02v-.05l1.97-3.84c.03-.05.01-.08-.06-.08h-1.14c-.03 0-.06 0-.08.02a.15.15 0 0 0-.06.06l-1.95 3.81a.19.19 0 0 1-.07.08.2.2 0 0 1-.1.03H6.14l-.04-.02a.09.09 0 0 1-.04-.03.08.08 0 0 1 0-.08L8 30.08Z" fill="#3F8FD1"/></svg>