<!-- by TradingView --><svg width="56" height="56" viewBox="0 0 56 56" xmlns="http://www.w3.org/2000/svg"><path fill="#F0F3FA" d="M0 0h56v56H0z"/><path d="M39 18.5c0 .6-.25 1.7-.37 2.17.4-1.8-1.44-3.67-6.82-3.67C20.94 17 10 25.64 10 29.78c0 2.04 1.81 3.72 6.16 3.72C24.32 33.5 27 30.85 27 30c0-1.82-5.78-2.8-8.67-3H34c-6.92 6.63-15.1 9-19.85 9C9.4 36 8 33.86 8 31.79 8 23.16 25.82 15 32.41 15c5.35 0 6.59 2.75 6.59 3.5Z" fill="#033E90"/><path d="M39 21a2 2 0 0 1-.79 1.6l.66 1.62a3 3 0 0 1 4.1 2.31h1.08a2 2 0 1 1 .12 1.29H42.9a3 3 0 0 1-1.48 1.83l.74 1.4a1.5 1.5 0 1 1-1.01.82l-1-1.87a3.13 3.13 0 0 1-1.37-.26l-1.43 2.77A2 2 0 0 1 36 36a2 2 0 1 1 .15-4l1.58-3.04a2.99 2.99 0 0 1 .06-3.99l-.8-1.97A2 2 0 1 1 39 21Z" fill="#FFC134"/></svg>