<!-- by TradingView --><svg width="56" height="56" viewBox="0 0 56 56" xmlns="http://www.w3.org/2000/svg"><path fill="#F0F3FA" d="M0 0h56v56H0z"/><path d="M39.69 15.66a16.93 16.93 0 0 1 1.37 23.18c-.27.33-.57.39-.88.16l-.02-.02c-.39-.3-.44-.61-.16-.95a15.64 15.64 0 0 0-1.23-21.4 15.74 15.74 0 0 0-21.5-.1c-.31.3-.64.27-.96-.1l-.01-.02c-.25-.3-.21-.6.11-.89a17.02 17.02 0 0 1 23.28.14ZM14.5 21a1.5 1.5 0 1 0 0-3 1.5 1.5 0 0 0 0 3ZM12.62 30.93c.41 2.18 1.3 4.25 2.65 6.22a.56.56 0 0 1-.13.76c-.46.34-.84.25-1.17-.25a18.13 18.13 0 0 1-2.67-6.47c-.43-2.22-.4-4.55.09-7 .12-.59.45-.81 1-.67a.56.56 0 0 1 .39.66 16.42 16.42 0 0 0-.16 6.75Z" fill="#CF323A"/><path fill-rule="evenodd" d="M39.34 24.4c-.05-.04-.05-.07 0-.1.46-.34.63-.77.51-1.32a.3.3 0 0 1 .03-.21c.27-.5.2-.94-.2-1.3a.12.12 0 0 0-.13-.02.12.12 0 0 0-.07.1c-.04.55-.3.81-.8.8a.23.23 0 0 1-.1-.03l-.84-.48a.2.2 0 0 1-.1-.19c0-.18.1-.3.29-.34.3-.06.5.1.58.48.07.25.17.26.31.05.34-.5.3-1.17-.19-1.52-.48-.34-.92-.25-1.47-.14l-.18.03a.34.34 0 0 0-.27.26l-.28 1.16a.2.2 0 0 1-.19.15.2.2 0 0 1-.08-.01c-.55-.2-.95-.13-1.25.39-.13.21-.28.37-.47.49a.46.46 0 0 1-.66-.19.85.85 0 0 1-.1-.33l.01-.64c.02-.51.05-1.09-.1-1.59a2.56 2.56 0 0 0-2.26-1.89c-.65-.1-1-.17-1.45-.58-.66-.6-1.32-1-2.18-.85-.25.04-.49.15-.73.27-.44.2-.9.42-1.54.26-.3-.08-.34 0-.13.22.47.48 1.02.76 1.67.84.08.01.13.05.15.13.05.15 0 .26-.15.33-.29.15-.61.15-.98 0a3.72 3.72 0 0 0-1.88-.25c-.02 0-.05.03-.1.08a.07.07 0 0 0 0 .06c0 .06.04.1.1.1.67.02 1.2.25 1.63.68.3.32.56.52.76.61.83.4 1.54.3 2.15-.28.46-.44.73-.68.8-.72.48-.24.98-.16 1.48.23a2.63 2.63 0 0 1 1.03 2.13c0 .34-.15.53-.46.58a.14.14 0 0 0-.11.15l.01.07.5.84a.2.2 0 0 1-.01.23.32.32 0 0 1-.13.1.25.25 0 0 0-.1.35l.35.61c.04.07.03.12-.03.17-.24.2-.27.45-.07.75 0 0 .08.17.2.5.04.07.01.11-.07.12-.1 0-.17.02-.22.06-.1.06-.1.12 0 .17.72.39 1.33.89 1.55 1.7.02.08-.01.1-.08.08-.3-.1-.5-.16-.6-.17-.44-.05-.5.07-.17.35.36.31.5.75.44 1.3a.15.15 0 0 1-.08.12.16.16 0 0 1-.13.01c-.34-.12-.59-.15-.75-.1-.09.03-.1.08-.03.14.37.34.56.76.57 1.25a.26.26 0 0 1-.26.26.26.26 0 0 1-.13-.03l-.68-.39a.2.2 0 0 0-.28.1.98.98 0 0 1-.3.49.2.2 0 0 1-.2.04.86.86 0 0 1-.51-.39c-.18-.32-.3-.3-.34.05 0 .04-.04.16-.1.36a.2.2 0 0 1-.27.11.2.2 0 0 1-.08-.08l-.34-.58a.16.16 0 0 0-.28 0l-.27.46a.19.19 0 0 1-.32 0l-.27-.46a.25.25 0 0 0-.08-.08.23.23 0 0 0-.11-.04.2.2 0 0 0-.11.02.2.2 0 0 0-.08.08l-.34.6a.3.3 0 0 1-.43.1 7.12 7.12 0 0 0-.47-.3c-.13-.06-.3-.08-.49-.1-.18-.02-.38-.04-.56-.12a.17.17 0 0 1-.1-.18c.02-.19.1-.31.27-.36a2 2 0 0 1 .41-.06c.36-.02.79-.05.97-.38.14-.24.24-.41.31-.5.08-.11.18-.14.3-.1.55.23 1 .23 1.37.01a.19.19 0 0 0 0-.32l-.28-.16a.22.22 0 0 1 .15-.4c.63.13 1.19.1 1.67-.12a.13.13 0 0 0 .07-.1c0-.03 0-.05-.02-.07a.12.12 0 0 0-.04-.05l-.32-.18a.32.32 0 0 1-.01-.54c.44-.27.83-.41 1.2-.43.25 0 .27-.07.05-.2a8.68 8.68 0 0 1-1.6-1.17c-.24-.23-.33-.88-.03-1.2l.15-.17c.2-.2.43-.44.47-.68a1.8 1.8 0 0 0-.39-1.44c-.06-.09-.13-.08-.18.02a4 4 0 0 1-.83 1.06.4.4 0 0 1-.56 0c-.62-.59-1.2-1.03-2.1-.6a.26.26 0 0 0-.14.16l-.13.38c-.03.06-.07.1-.15.09l-.59-.06c-.82-.06-1.36-.5-1.62-1.3l-.13-.47c-.25-.92-.55-2.06-1.87-1.69l-.7.2a.51.51 0 0 1-.63-.3c-.2-.55-.69-.54-.98-.13-.47.68.17 1.5.91 1.37l1.05-.2c.54-.1 2.05.28 1.04 1.11-.53.44-.67.64-.68 1.3 0 .28-.02.46-.07.56-.18.41-.55.53-1.11.37a2.51 2.51 0 0 1-1.38-.96c-.13-.19-.24-.3-.33-.35-.43-.21-.85-.1-.96.4-.12.55.47.72.95.86l.08.02c.16.05.34.13.53.24.76.46 1.51.62 2.25.48.16-.03.35-.1.55-.17.33-.13.7-.26 1.01-.24.21 0 .46.06.75.15.2.07.32.2.34.38a.29.29 0 0 1-.1.24.3.3 0 0 1-.25.07l-.18-.04c-.47-.1-1.02-.2-1.32.03-.14.11-.12.17.06.17h.45c.06 0 .12.02.17.06.33.3.67.58 1.02.86.54.43.92 1.32.22 1.81-.18.13-.5.3-.97.54a3.03 3.03 0 0 0-1.63 1.96c-.16.55-.5 1.07-1.08.63-.48-.37-.68-.9-.59-1.6.08-.58.59-.79 1.1-1 .28-.12.57-.24.78-.42.57-.45 1-1.22.24-1.78a.34.34 0 0 0-.21-.07c-.29 0-.49-.17-.6-.52-.15-.5-.46-.66-.94-.48l-.38.2c-.07.04-.12.03-.17-.03-.73-.93-1.4-.26-1.82.48a.2.2 0 0 1-.17.1c-.61.04-1.06.27-1.35.68-.29.42-.24.78.15 1.1.06.05.1.03.13-.04.1-.25.25-.36.47-.32.61.08.62 1.13.52 1.54-.14.6-.86.36-1.02-.1a1.87 1.87 0 0 1-.12-.68.14.14 0 0 0-.16-.14.14.14 0 0 0-.07.03c-.78.68-.34 2.03.24 2.66a.59.59 0 0 0 .81.04c.83-.72 1.54-.6 2.12.36.6.97.71 1.65.81 2.68.06.6.36.9 1 .73a.43.43 0 0 0 .29-.25l.23-.54a.34.34 0 0 1 .13-.15c.65-.4 1.46.1 1.8.69.04.06.03.1-.05.1-.25.02-.42.07-.52.15-.14.14-.2.38-.26.59l-.08.25a.19.19 0 0 1-.15.11c-1.2.2-1.38.45-1.22 1.67 0 .08-.02.23-.09.46-.23.78.26 1.07.82 1.4.05.03.07.08.04.14-.22.52-.09 1.09.5 1.26.58.18 1.16.17 1.73-.03.02 0 .04-.02.05-.03a.09.09 0 0 0 .01-.05v-.09a.1.1 0 0 0-.03-.07.1.1 0 0 0-.08-.02.5.5 0 0 1-.3-.01c-.08-.03-.1-.1-.1-.18.08-.35.23-.63.47-.82a.2.2 0 0 1 .2-.04c.55.2.95.3 1.2.28.56-.01.6.13.13.44a1.6 1.6 0 0 1-.2.1c-.23.1-.48.22-.48.53a.22.22 0 0 0 .13.2.23.23 0 0 0 .24-.03c.3-.27.6-.32.9-.15.35.2.56.3.62.3.79.09 1.5-.53 1.17-1.34-.06-.15-.24-.29-.38-.4l-.14-.12c-.5-.45-.42-.69.26-.7.38-.02.77-.06 1.2-.15a4.69 4.69 0 0 1 1.68-.06c.76.06 1.45.1 1.95-.36.35-.33.42-.73.2-1.18-.21-.47-.78-.41-1.23-.36-.16.02-.3.03-.4.02-.7-.05-1.23-.52-.92-1.24a.56.56 0 0 1 .58-.34c.45.05.96.08 1.52.1 2.22.1 3.69-.88 4.4-2.92.78-2.28.05-4.1-1.46-5.86-.3-.34-.44-.64-.45-.9-.03-.64.6-1.4 1.22-1.42.34-.02.49.15.46.51a3.9 3.9 0 0 1-.08.5c-.13.58-.25 1.16.6 1.4.27.07.55-.04.87-.33a.34.34 0 0 1 .2-.09l.2-.01c.4-.04.79-.07 1.03-.26.31-.25.47-.61.48-1.07 0-.16-.04-.18-.15-.05-.17.22-.35.38-.56.47a.1.1 0 0 1-.1 0l-.06-.03ZM26.5 25a.5.5 0 1 0 0-1 .5.5 0 0 0 0 1Zm-8.14 1.01v-.02h.01c.1-.04.2-.04.3 0 .09.05.16.13.2.22v.02c.04.1.04.2 0 .3a.37.37 0 0 1-.2.2h-.01a.02.02 0 0 1-.02 0l-.28-.72Zm1.13 1.12c-.08-.07-.04-.25.09-.4.13-.15.3-.22.38-.15.08.07.05.25-.08.4-.13.16-.3.22-.39.15Zm.98.05c-.17.18-.24.37-.17.44.07.07.26-.03.43-.2.16-.18.24-.38.17-.45-.07-.06-.27.03-.43.2Zm6.32 7.94c-.3-.13-.74-.18-1.34-.15a.77.77 0 0 1-.39-.06c-.14-.08-.19-.04-.14.12.22.61.67 1.25 1.17 1.54 1.09.62 2.04-.84.7-1.45Zm-3 .45a.03.03 0 0 1 .02 0 .03.03 0 0 1 .02 0l.04.05a1.6 1.6 0 0 1 .2.37l.02.14c0 .04-.02.06-.04.08l-.05.03c-.02.02-.05.02-.09.01a.4.4 0 0 1-.12-.06 1.6 1.6 0 0 1-.29-.3l-.04-.05v-.02a.03.03 0 0 1 .01-.02l.32-.23Zm-.08 1.33c-.2-.18-.42-.28-.64-.3a.27.27 0 0 0-.25.14l-.04.07c-.05.09-.03.15.07.19.22.08.5.1.82.05a.09.09 0 0 0 .07-.06.09.09 0 0 0-.03-.09Zm-.96 1.5a.07.07 0 0 1-.07-.03.06.06 0 0 1 0-.06c.06-.21.19-.3.37-.28.23.03.25.11.04.26l-.34.1Z" fill="#CF323A"/><path d="M27.37 43.62a15.6 15.6 0 0 0 9.67-2.85c.36-.26.7-.17 1 .27a.72.72 0 0 1 .03.5.62.62 0 0 1-.22.3c-3.1 2.18-6.8 3.3-10.54 3.15A17.08 17.08 0 0 1 17.07 41a.62.62 0 0 1-.2-.69.6.6 0 0 1 .06-.11c.34-.41.69-.48 1.02-.2a15.6 15.6 0 0 0 9.42 3.62Z" fill="#CF323A"/></svg>