<!-- by TradingView --><svg width="56" height="56" viewBox="0 0 56 56" xmlns="http://www.w3.org/2000/svg"><path fill="#F0F3FA" d="M0 0h56v56H0z"/><path d="M31.18 12.85c.2.12.3.3.3.53v13.25c-.01.52.1.86.36 1.02 1.07.7 1.94 1.23 2.61 1.6.12.05.24.06.36.01.13-.05.15-.14.19-.26.05-.18 0-.46 0-.85-.01-5.29-.02-9.32 0-12.1 0-.03.13-.06.14-.1a.4.4 0 0 1 .23-.35.42.42 0 0 1 .43.02l5.74 3.51c.3.19.46.46.46.82v16.1a.9.9 0 0 1-.46.82L28.18 45h-.3l-6.04-3.68c-.14-.08-.2-.2-.15-.36a.64.64 0 0 1 .3-.38c5.07-3.1 7.71-4.73 7.92-4.87.09-.06.15-.11.17-.15.14-.23.1-.41-.14-.56L25 31.97a.85.85 0 0 1-.43-.77V13.42c0-.29.13-.5.38-.66L27.87 11h.24l3.07 1.85Zm-10.7 2.72c.13-.02.23 0 .33.08.1.07.19.17.19.3v16.07c0 .36.1.63.42.82l1.25.74c1.55.9 2.37 1.44 2.47 1.61.13.23.08.42-.16.57a506.4 506.4 0 0 1-5.61 3.44c-.33.2-.66.21-1 .03A25.88 25.88 0 0 1 14 36.3V20.04c.07-.44.18-.71.36-.82a3349.68 3349.68 0 0 0 5.9-3.61l.23-.04Z" fill="#0B3388"/></svg>