<!-- by TradingView --><svg width="56" height="56" viewBox="0 0 56 56" xmlns="http://www.w3.org/2000/svg"><path fill="#F0F3FA" d="M0 0h56v56H0z"/><path d="M42.44 28c-.08-.59-.67-2.15-2.44-3.72.5-.28 1.7-1.12 2.44-2.28A7.7 7.7 0 0 0 45 24.28c-1.77 1.57-2.48 3.13-2.56 3.72ZM28.8 45c9.86 0 14.9-7.33 16.2-11h-8.54c-3.49 5.75-9.21 8.48-12.42 8.48-2.56 0-4.43-.74-5.04-1.11A14.77 14.77 0 0 0 28.8 45Z" fill="#C53228"/><path d="M40 17.33A16.17 16.17 0 0 0 17.33 40 16.17 16.17 0 1 1 40 17.33Z" fill="#2C5499"/><path d="M34 22h-.18L32 32h2.18l.82-4.5.82 4.5H38l-1.82-10H34ZM26 24.5a2.5 2.5 0 0 1 5 0v1.38h-2V24.5a.5.5 0 0 0-1 0v5a.5.5 0 0 0 1 0v-1.17h2v1.17a2.5 2.5 0 0 1-5 0v-5ZM40 32v-6c.76.66 2.2 2.43 2.5 4.61A8.12 8.12 0 0 1 45 26v6h-5Z" fill="#C53228"/></svg>