<!-- by TradingView --><svg width="56" height="56" viewBox="0 0 56 56" xmlns="http://www.w3.org/2000/svg"><path fill="#F0F3FA" d="M0 0h56v56H0z"/><path d="M17 40.98v-17.4c2.18 3.06 8.28 8 11.24 10.15L17 40.99Z" fill="url(#aifgtzdci)"/><path d="M39 15.5c-3.2 3.9-9.33 5.97-12 6.52l12 12.62V15.5Z" fill="url(#bifgtzdci)"/><path d="M21.93 35.96c-3.3 1.37-4.66 4-4.93 5.14 1.27 1.33 4.7 4.17 8.33 4.9 2.23-2.55 7.4-5.42 10.35-7.09 2.37-1.34 3.32-2.75 3.32-3.74 0-3.05-2.02-4.52-3.03-5.34l-9.06-8.32c6.24-1.63 10.42-5.35 11.73-7.01l-6.34-4.22a1.7 1.7 0 0 0-1.83-.03L17 18.56v3.7L28.57 32.9c-.84.45-3.34 1.7-6.64 3.06Z" fill="url(#cifgtzdci)"/><defs><linearGradient id="aifgtzdci" x1="16.42" y1="30.39" x2="26.3" y2="30.39" gradientUnits="userSpaceOnUse"><stop stop-color="#006755"/><stop offset="1" stop-color="#A8C5B3"/></linearGradient><linearGradient id="bifgtzdci" x1="28.46" y1="21.71" x2="39" y2="21.71" gradientUnits="userSpaceOnUse"><stop stop-color="#F9E29F"/><stop offset="1" stop-color="#E36A40"/></linearGradient><linearGradient id="cifgtzdci" x1="18.54" y1="24.69" x2="38.3" y2="24.95" gradientUnits="userSpaceOnUse"><stop stop-color="#2A5D13"/><stop offset=".29" stop-color="#5D8640"/><stop offset="1" stop-color="#C6C569"/></linearGradient></defs></svg>