<!-- by TradingView --><svg width="56" height="56" viewBox="0 0 56 56" xmlns="http://www.w3.org/2000/svg"><path fill="#181B1E" d="M0 0h56v56H0z"/><path d="m50.32 22 .3 3.62h-.3c-.3-.9-.7-1.58-1.2-2.04a3.8 3.8 0 0 0-2.7-.99c-2.9 0-4.42 2.57-4.42 5.22s1.57 5.61 4.54 5.61c.87 0 1.7-.23 2.46-.65v-2.8c0-1.18-.35-1.65-1.57-1.65V28H52v.32h-.22c-1.02 0-.78.85-.78 1.68v2.98c-1.3.68-3 1.02-4.47 1.02-3.41 0-6.53-2.2-6.53-5.82A6.24 6.24 0 0 1 46.25 22c.94 0 1.8.24 2.67.55.32.12.54.18.65.18.11 0 .2-.05.28-.15.08-.1.13-.3.15-.58h.32ZM32 22.65v4.75h2.85c1.21 0 1.77-.51 1.83-1.75H37v4.14h-.32c-.17-1.22-.52-1.79-1.83-1.79H32v4c0 .53.02.86.07.97.04.12.13.2.24.28.11.06.33.1.65.1h2.3c.87 0 1.67-.06 2.3-.7.36-.37.72-.92 1.1-1.66H39L38 34h-9v-.33c1 0 1-.54 1-1.79v-7.8c0-1.34-.03-1.75-1-1.75V22h8.86l.13 2.63h-.33c-.28-1.43-.66-1.98-2.14-1.98H32ZM22.41 27.35l2.63 3.84a11 11 0 0 0 1.61 2.02c.36.28.8.43 1.35.46V34h-5.25v-.33c.34 0 .6-.04.77-.1a.72.72 0 0 0 .3-.24.56.56 0 0 0 .14-.34c0-.13-.03-.27-.09-.4a6.9 6.9 0 0 0-.5-.78l-2.07-3.08-2.56 3.22c-.27.34-.44.57-.49.69a.8.8 0 0 0-.08.35c0 .19.08.35.24.47.16.12.48.2.93.21V34H15v-.33c.3-.03.57-.09.8-.18.37-.16.72-.36 1.06-.62.34-.26.72-.66 1.16-1.2l2.88-3.57-2.4-3.46a6.94 6.94 0 0 0-1.68-1.84c-.45-.3-.98-.45-1.58-.47V22h5.66v.33c-.48.02-.8.1-.99.23-.17.13-.26.28-.26.45 0 .22.14.54.43.95l1.88 2.76 2.18-2.7c.25-.32.4-.54.46-.66a.79.79 0 0 0 .09-.36.52.52 0 0 0-.11-.33.7.7 0 0 0-.34-.25 3.02 3.02 0 0 0-.86-.1V22h4.34v.33a2.6 2.6 0 0 0-1.73.7c-.27.24-.66.66-1.15 1.28l-2.43 3.04ZM14.44 22l.28 3.9h-.28c-.37-1.17-.9-2-1.6-2.52a4.05 4.05 0 0 0-2.48-.77C7.3 22.6 6 25.46 6 28.19c0 2.8 1.73 5.07 4.62 5.07 1.82 0 3.03-.99 4.1-2.38l.28.17A5.69 5.69 0 0 1 9.95 34 5.76 5.76 0 0 1 4 28.18a6.15 6.15 0 0 1 8.83-5.57c.25.12.43.19.54.19.16 0 .3-.06.42-.17.16-.15.27-.36.34-.63h.31Z" fill="#fff"/></svg>