<!-- by TradingView --><svg width="56" height="56" viewBox="0 0 56 56" xmlns="http://www.w3.org/2000/svg"><path fill="#F0F3FA" d="M0 0h56v56H0z"/><circle cx="28" cy="28" r="16" fill="#632121"/><circle cx="31.5" cy="23.5" r="9.5" fill="#9C5C38"/><circle cx="33" cy="21" r="5" fill="#CE8C4B"/><path d="M20 20.45c0-.8.66-1.45 1.48-1.45h13.76c.97 0 1.76.5 1.76 1.45S36.21 22 35.24 22H23v13h11v-6h-5.24c-.97 0-1.76-.6-1.76-1.55 0-.95.79-1.45 1.76-1.45h6.76c.82 0 1.48.65 1.48 1.45v9.1c0 .8-.66 1.45-1.48 1.45H21.48c-.82 0-1.48-.65-1.48-1.45v-16.1Z" fill="#E8B743"/></svg>