<!-- by TradingView --><svg width="56" height="56" viewBox="0 0 56 56" xmlns="http://www.w3.org/2000/svg"><path fill="#F0F3FA" d="M0 0h56v56H0z"/><path d="M10.6 25.31a.08.08 0 0 0 0-.06v-.02l-.03-.02-.84-.55a.53.53 0 0 1-.15-.14.6.6 0 0 1-.1-.43c.01-.07.03-.14.07-.2l1.9-3.59a.6.6 0 0 1 .16-.18.5.5 0 0 1 .64 0h.01c.07.05.13.11.17.18a.68.68 0 0 1 .08.5.68.68 0 0 1-.1.24l-1.75 2.68a.36.36 0 0 0 .02.42.3.3 0 0 0 .11.09l.05.01a.5.5 0 0 0 .35.02.55.55 0 0 0 .29-.23l1.05-1.66c.08-.13.2-.22.35-.25a.5.5 0 0 1 .4.08l.03.02c.06.04.1.1.15.15.03.06.06.13.07.2a.6.6 0 0 1-.08.43l-3.19 4.76c-.07.1 0 .23.13.24h2.1c.17-.01.3-.14.35-.36.02-.1.02-.2-.02-.3a.47.47 0 0 0-.17-.23l-.52-.38a.37.37 0 0 1-.12-.2.4.4 0 0 1 .02-.24c.07-.17.16-.34.3-.5a.36.36 0 0 1 .5-.06c.65.5 1.03 1.17 1.15 2 .19 1.31-.92 1.27-1.88 1.27-1.24 0-2 0-2.26-.02-.3-.02-.52-.1-.64-.25a.92.92 0 0 1-.05-1.07c.54-.83 1.02-1.61 1.45-2.35ZM20.35 34.08a.75.75 0 0 0-.01.18c0 .01 0 .03.02.04l.04.02c.01 0 .02 0 .03-.02a.07.07 0 0 0 .03-.04c.06-.29 0-.59-.16-.9a.5.5 0 0 1-.07-.26c.02-1.56.01-2.98-.04-4.25-.02-.53-.13-1.14-.23-1.66a.25.25 0 0 0-.08-.14.2.2 0 0 0-.13-.05H15.4c-.28 0-.43-.14-.4-.4v-.03c.02-.32.28-.59.56-.57 2.95.2 5.74.2 10.01.1.1 0 .21.04.29.13.08.08.12.2.13.33 0 .18-.01.43-.25.44h-4.42c-.1 0-.15.1-.15.18l.33 8.45c0 .04 0 .08-.02.12a.34.34 0 0 1-.05.1.29.29 0 0 1-.09.08.25.25 0 0 1-.1.03l-.6.04a.2.2 0 0 1-.1-.02.24.24 0 0 1-.1-.07.3.3 0 0 1-.04-.11.32.32 0 0 1 0-.13c.08-.48.01-.87-.22-1.15a.34.34 0 0 1-.07-.28c.02-.17.05-.27.08-.29a.09.09 0 0 1 .11 0l.04.06v.07ZM40.94 22.66c-.45-.1-1.21-.1-1.14-.72a.45.45 0 0 1 .15-.3c.1-.07.2-.12.33-.12.76-.02 2.64.16 2.82-.74.16-.77.74-.91 1.44-.68a.34.34 0 0 1 .21.43c-.08.25-.22.48-.43.7a.16.16 0 0 0 .13.27l2.63-.13a.8.8 0 0 1 .7.34l.15.22a.37.37 0 0 1-.3.58H43.7a.66.66 0 0 0-.39.13l-2.23 1.57a.1.1 0 0 0-.04.08.1.1 0 0 0 .03.08c.22.2.42.33.62.39 1.74.54 3.64.86 5.68.95a.56.56 0 0 1 .46.26.52.52 0 0 1 .01.51c-.04.1-.18.2-.4.29-1.84.81-5.57-.7-7.45-1.76-1.02-.58-2.06-.5-3.29.03-.96.42-2.45 1.05-3.69 1.27l-2.16.4c-.57.1-2.04.23-1.67-.81a.2.2 0 0 1 .18-.14c1.13-.09 2.52-.28 4.18-.59 1.22-.22 1.98-.5 2.28-.83a.12.12 0 0 0-.03-.18 7.17 7.17 0 0 1-2.11-1.47.35.35 0 0 0-.27-.1l-3.5.1a.9.9 0 0 1-.86-.56l-.02-.06a.39.39 0 0 1 .19-.5.4.4 0 0 1 .18-.03l2.8.07a.25.25 0 0 0 .26-.19v-.11a2.24 2.24 0 0 1-.08-.55c0-.13.05-.26.12-.35.07-.1.17-.16.28-.18.23-.04.44-.01.64.08l.04.04.74 1.04a.27.27 0 0 0 .22.11c.95-.03 2.3-.36 2.67.49.04.08.05.18.03.27a.5.5 0 0 1-.13.25.6.6 0 0 1-.25.16c-.1.03-.2.04-.31.02a.73.73 0 0 0-.3-.01.27.27 0 0 0 .02.52c1.2.28 3.8.5 4.83-.4a.09.09 0 0 0-.04-.14Z" fill="#005238"/><path d="m16.67 28.22.06-.06a.6.6 0 0 1 .33-.15c.13-.02.27 0 .38.05.59.27 1.24.77 1.96 1.48.65.65.77 1.27.36 1.89a.65.65 0 0 1-.12.13L16.3 34.8a.83.83 0 0 1-1 .08l-.04-.03a.56.56 0 0 1-.17-.16.44.44 0 0 1-.05-.42.51.51 0 0 1 .13-.18c.28-.26 1.22-1.1 2.83-2.51.35-.32.61-.66.78-1.03.04-.1.04-.2.01-.3a.5.5 0 0 0-.19-.24l-1.88-1.32a.34.34 0 0 1-.1-.1.27.27 0 0 1-.02-.25.3.3 0 0 1 .08-.1ZM24.83 28.32c-.02.92-.96 1.2-1.75 1.5a.26.26 0 0 0-.16.15.25.25 0 0 0 .02.2c.23.43.53.82.89 1.19.93.94 1.95 1.95 3.06 3.01a.35.35 0 0 1-.22.6l-.63.03a.58.58 0 0 1-.46-.19c-1.52-1.69-2.5-2.75-2.91-3.2-.67-.7-1.05-1.75-.11-2.41.52-.37.9-.67 1.11-.9.37-.37.63-.35 1-.2a.24.24 0 0 1 .16.22ZM13.42 30.03l-.19.09c-.19.09-.28.34-.2.55l1.07 3.07c.07.21.29.32.48.23l.19-.09c.19-.09.28-.34.2-.55l-1.07-3.07c-.07-.21-.29-.32-.48-.23ZM11.65 31l-.21.04c-.3.05-.49.29-.43.54l.7 3.05c.06.25.35.41.64.36l.21-.03c.3-.05.49-.29.43-.54l-.7-3.05c-.06-.25-.35-.41-.64-.36ZM9.65 31.06l-.06-.03c-.27-.1-.55.08-.64.41l-.93 3.7c-.08.33.06.7.33.8l.06.03c.27.1.55-.08.64-.41l.93-3.7c.08-.33-.06-.7-.33-.8ZM25.33 20c.28-.02.5.18.64.6.04.1.04.2.01.3a5.17 5.17 0 0 1-2.97 3.6c-2.78 1.15-4.98.33-6.6-2.45-.26-.45-.4-.94-.41-1.47 0-.05 0-.1.02-.15l.08-.14a.36.36 0 0 1 .12-.1l.14-.02c1.42-.02 3 .2 4.65.1l4.32-.27Zm-7.4 1a.3.3 0 0 0-.14.04.35.35 0 0 0-.12.11.42.42 0 0 0-.05.33c.44 1.54 1.35 2.42 2.78 2.42 1.64 0 3.34-.84 4-2.64a.21.21 0 0 0 0-.18.17.17 0 0 0-.07-.06.15.15 0 0 0-.07-.02h-6.32Z" fill="#005238"/><path d="M21.08 23c.55-.06.96-.32.92-.59-.05-.27-.53-.45-1.08-.4-.55.05-.96.3-.92.58.05.27.53.45 1.08.4ZM30.35 33.94a.93.93 0 0 1 .55-.25c.27-.02.46-.06.57-.12.3-.17.63-.3.96-.4.3-.1.39-.29.25-.58a20.45 20.45 0 0 0 3.95-2.5c.01-.04-.03-.1-.08-.09h-6.73c-.33 0-.64-.13-.78-.28v-.01a.4.4 0 0 1-.04-.2c.02-.22.18-.5.4-.51h7.96c.35 0 .61.01.43-.3a.83.83 0 0 1-.07-.15.49.49 0 0 1 .42-.55c.08 0 .17 0 .24.04.52.23.74.21.69.76-.01.1.08.2.19.2h7.67c.23 0 .45.13.63.26l.31.23c.05.03.09.08.1.14.03.05.03.12 0 .17a.3.3 0 0 1-.27.2h-7.34c-.06 0-.11.07-.08.13.07.15.18.38.36.5a19.48 19.48 0 0 0 5.38 2.61c.09.03.18.04.27.04l1.14.04c.25 0 .49.18.55.42.02.08.03.16.01.24v.03a.58.58 0 0 1-.23.37.63.63 0 0 1-.44.12 7.99 7.99 0 0 1-2.55-.69c-1.1-.5-2.2-1-3.28-1.52a7.26 7.26 0 0 1-2.17-1.55c-.06-.07-.19-.03-.2.06a23.63 23.63 0 0 0 0 4.58.58.58 0 0 1-.36.58.61.61 0 0 1-.25.04c-1.1-.02-.67-2.8-.78-3.5a6.6 6.6 0 0 1 .03-1.62c0-.06-.06-.09-.1-.06a20.38 20.38 0 0 1-7.28 3.7c-.43.11-1.55.02-1.27-.66a.14.14 0 0 1 .05-.06.14.14 0 0 1 .2.05c.19.36.52.39 1 .1Z" fill="#005238"/></svg>