<!-- by TradingView --><svg width="56" height="56" viewBox="0 0 56 56" xmlns="http://www.w3.org/2000/svg"><path fill="#F0F3FA" d="M0 0h56v56H0z"/><path d="M18 26.03 15.82 25A20.65 20.65 0 0 1 12 31.66l.87 2.34c2.27-2.02 4.37-6.16 5.13-7.97Z" fill="#4E4C4D"/><path d="m12 19 11-3v3l-11 3v-3ZM33.5 16 23 19v3l10.5-3L44 22v-3l-10.5-3Z" fill="#F74D31"/><path fill="#4E4C4D" d="M14 29h2v11h-2zM28 37v2H17v-2zM28 27v2H18v-2z"/><path fill-rule="evenodd" d="M38 27h-1v12h2v-1h3v1h2V27h-6Zm4 2h-3v7h3v-7Z" fill="#4E4C4D"/><path d="M30.95 25 33 26.02l-.2.5-.19.48H36v2h-2v3h3v2h-2.85c.41.97.82 1.47 1.2 1.95.23.27.44.54.65.88L35.06 39a19.96 19.96 0 0 1-2.13-3.12A21.51 21.51 0 0 1 30.02 40L29 37.93c.2-.28.45-.55.73-.84.66-.7 1.46-1.54 2.02-3.09H29v-2h3v-3h-.41c-.41.6-.96 1.25-1.77 2L29 28.7c.15-.2.29-.34.41-.47.56-.6.87-.93 1.54-3.23Z" fill="#4E4C4D"/></svg>