<!-- by TradingView --><svg width="56" height="56" viewBox="0 0 56 56" xmlns="http://www.w3.org/2000/svg"><path fill="#F0F3FA" d="M0 0h56v56H0z"/><path fill-rule="evenodd" d="M4 24v8h.9v-6.05L9.4 32h.6v-8h-.88v5.99L4.72 24H4Zm42 0v8h.9v-6.05L51.4 32h.6v-8h-.88v5.99L46.72 24H46Zm-28 4c0 2.2-1.57 4-3.5 4S11 30.2 11 28s1.57-4 3.5-4 3.5 1.8 3.5 4Zm-.88 0c0 1.65-1.17 3-2.62 3-1.45 0-2.62-1.35-2.62-3s1.17-3 2.62-3c1.45 0 2.62 1.35 2.62 3Zm24.3 4c1.94 0 3.5-1.8 3.5-4s-1.56-4-3.5-4c-1.92 0-3.5 1.8-3.5 4s1.58 4 3.5 4Zm0-1c1.45 0 2.63-1.35 2.63-3s-1.18-3-2.62-3c-1.45 0-2.62 1.35-2.62 3s1.17 3 2.62 3Zm-6.87 1c.95 0 1.81-.42 2.45-1.11l-.7-.65c-.46.47-1.08.75-1.75.75-1.47 0-2.66-1.34-2.66-2.99 0-1.65 1.2-3 2.66-3 .69 0 1.32.3 1.79.8l.55-.8c-.62-.62-1.44-1-2.34-1-1.96 0-3.55 1.8-3.55 4s1.59 4 3.55 4Z"/><path d="M19.06 24H18l2.87 8H21.85l2.88-8h-1.06l-2.3 6.2-2.31-6.2Zm10.88 8H31l-2.87-8H27.15l-2.88 8h1.06l2.3-6.2 2.31 6.2Z" fill="url(#a)"/><defs><linearGradient id="a" x1="18.36" y1="26.12" x2="29.24" y2="32.04" gradientUnits="userSpaceOnUse"><stop stop-color="#4F4E9F"/><stop offset="1" stop-color="#31AFC6"/></linearGradient></defs></svg>