<!-- by TradingView --><svg width="56" height="56" viewBox="0 0 56 56" xmlns="http://www.w3.org/2000/svg"><path fill="#F0F3FA" d="M0 0h56v56H0z"/><path d="M50 21a7 7 0 0 0-7 7h3.5a3.5 3.5 0 0 1 3.5-3.5V21Z" fill="#C5B277"/><path fill-rule="evenodd" d="M20.5 35a7 7 0 1 0 0-14 7 7 0 0 0 0 14Zm0-10-3 3 3 3 3-3-3-3ZM35.5 35a7 7 0 1 0 0-14 7 7 0 0 0 0 14Zm0-10-3 3 3 3 3-3-3-3Z" fill="#C5B277"/><path d="M6 35a7 7 0 1 0 0-14v3.5a3.5 3.5 0 1 1 0 7V35ZM50 28a7 7 0 0 0-7 7h3.5a3.5 3.5 0 0 1 3.5-3.5V28Z" fill="#C5B277"/></svg>