<!-- by TradingView --><svg width="56" height="56" viewBox="0 0 56 56" xmlns="http://www.w3.org/2000/svg"><path fill="#F0F3FA" d="M0 0h56v56H0z"/><path d="M45.16 26.33c-.3-.51-.8-.8-1.51-.8-1.4 0-1.65 1.2-1.65 2.47 0 1.7.5 2.5 2 2.5.9 0 1.62-.64 2-1.5h-3v-2h5v2.97a4.87 4.87 0 0 1-2.34 2.6c-.59.29-1.26.43-2.01.43C40.8 33 39 30.73 39 28c0-2.71 1.82-5 4.64-5 2.09 0 3.88 1.2 4.26 3.33h-2.74ZM23 40h10l2.63-7H35v-5.52L33.5 33h-2L30 27.44V33h-3v-3.67L23 40Zm15-13.33L42 16H32l-2.63 7h1.18l1.95 6.5 1.97-6.5H38v3.67ZM14.15 27.87a2.45 2.45 0 0 1 1.85 2.4c0 1.86-1.53 2.73-3.23 2.73H8V23h4.62c1.62 0 3.16.8 3.16 2.6 0 1.05-.6 1.97-1.63 2.27ZM11 27h1.03c.68 0 .97-.42.97-1 0-.6-.3-1-.97-1H11v2Zm1 4c.67 0 1-.41 1-1 0-.6-.3-1-.97-1H11v2h1ZM23.15 27.87a2.45 2.45 0 0 1 1.85 2.4c0 1.86-1.53 2.73-3.23 2.73H17V23h4.62c1.62 0 3.16.8 3.16 2.6 0 1.05-.6 1.97-1.63 2.27ZM20 27h1.03c.68 0 .97-.42.97-1 0-.6-.3-1-.97-1H20v2Zm1 4c.67 0 1-.41 1-1 0-.6-.3-1-.97-1H20v2h1Z" fill="#E4312A"/></svg>