<!-- by TradingView --><svg width="56" height="56" viewBox="0 0 56 56" xmlns="http://www.w3.org/2000/svg"><path fill="#F0F3FA" d="M0 0h56v56H0z"/><circle cx="19" cy="28" r="10" fill="#0087CB"/><path fill="#DB9602" d="M29 19h17v18H29z"/><path fill-rule="evenodd" d="M13 23h3.95c1.96 0 3.55 1.73 3.55 3.87v2.26c0 2.14-1.59 3.87-3.55 3.87H13V23Zm2 2h1.8c.94 0 1.7.83 1.7 1.86v2.28c0 1.03-.76 1.86-1.7 1.86H15v-6Zm4.73-2 3.21 5.7V33H25v-4.3l2.97-5.7h-2.14L24 26.78 21.86 23h-2.13Zm9 0v2H32v4.6c0 .8-.82 1.4-1.65 1.4-.82 0-1.35-.6-1.35-1.4V29h-2v.65A3.38 3.38 0 0 0 30.4 33h.2c1.87 0 3.4-1.5 3.4-3.35V23h-5.28ZM37 23h-2v10h2v-4h3v4h2V23h-2v4h-3v-4Z" fill="#F0F3FA"/></svg>