<!-- by TradingView --><svg width="56" height="56" viewBox="0 0 56 56" xmlns="http://www.w3.org/2000/svg"><path fill="#F0F3FA" d="M0 0h56v56H0z"/><path d="M35.24 36.8A12.99 12.99 0 0 0 28 13a13 13 0 0 0-10.3 20.93l10.4-9.28L29.22 28l4.16-1.18-7.67 11.97c.35.06.7.11 1.07.14L35 25.91l5.46-1.2L33.3 36.8h1.95Zm-.3.2h-2l7.13-12-4.94 1.08-8.12 12.88A13.17 13.17 0 0 0 34.93 37Zm-9.44 1.76a12.9 12.9 0 0 1-3.18-1.06l1.84-2.94-1.1.55v-.55l-2.38 1.99a13.07 13.07 0 0 1-2.86-2.66L28 25l1.1 3.25 3.84-1.08-7.44 11.6Zm-4.64-1.9 2-1.67v.44l.76-.37-1.48 2.35c-.44-.23-.87-.48-1.28-.75Z" fill="#E72B31"/><path d="m40.07 25-4.94 1.08L26.36 40h8.77l1.65-3h-3.84l7.13-12Zm.54 12h-2.74l-1.64 3h2.74l1.64-3Zm-.54 3 1.64-3h3.3l-1.65 3h-3.3ZM24.7 40l8.22-12.83-3.83 1.08L28 25 11 40c1.17-.58 2.1-1.34 2.75-1.89.57-.47.94-.78 1.09-.64.43.43-.56 1.36-1.8 2.54-.34.31-.7.64-1.04.99.73-.36 1.74-.7 1.74-.27 0 .43-1.2 1.26-1.74 1.63v.54c.91-.9 2.84-2.6 2.84-2.17 0 .43-1.93 1.99-2.84 2.71V44l11.06-9.24v.55l1.1-.55L20.87 40h3.84Z"/></svg>