<!-- by TradingView --><svg width="56" height="56" viewBox="0 0 56 56" xmlns="http://www.w3.org/2000/svg"><path fill="#CD0000" d="M0 0h56v56H0z"/><path fill-rule="evenodd" d="M22 21h-3v1h3v2h-3.43v1h3.25c-.39 1.97-2.44 3.68-3.41 4.31l.52.69c3.3-1.36 4.47-3.1 4.64-3.86.57 1.68 2.5 3.24 3.4 3.86l1.5-1.71c-2-.78-3.64-2.5-4.21-3.29h4.04v-.57l-1.15-1.14-.61.71H24v-2h3.7v-.67l-1.06-.94L26 21H24v-1.59L22 19v2ZM7.6 19.9c-.12.6-.98 2.18-1.4 2.9l1.96.85L8.7 22h1.41c-.84 1.66-3.1 3.13-4.12 3.68l.64.92c.71-.24 1.4-.57 1.66-.71v2.1l-1.34.32.58 1.69c2.03-.5 3.96-1.52 4.67-2l-.45-1.02a8.6 8.6 0 0 1-1.76.62v-2.76l.95-.82c.89 2.98 3.51 5.2 4.71 5.98l1.55-1.7c-1-.49-2.3-1.46-2.83-1.88a3.9 3.9 0 0 0 1.82-1.28l-1.5-.97c-.34.7-.98 1.17-1.26 1.31a7.63 7.63 0 0 1-1.57-2.45c.22-.28.54-.79.67-1.03h2.15l-.5 1.29 1.47.5 1.4-2.5-1.58-1-.79.71H13c.2-.45.38-1.05.44-1.34l-2.02-.6a9.62 9.62 0 0 1-.77 1.94h-1.7l.17-.5-1.52-.6ZM32 22l-2-.4V30l2-.25V29h4v1l2-.25V22l-2-.4V28h-1v-8.6l-2-.4v9h-1v-6.01Zm8-1.97 1.84.98h.73c.24-.42.73-1.55.81-1.95l1.84.63c-.11.22-.5.94-1.1 1.32h2.9l.78-.98 1.6 1.47-.4.5v3.22l-2 .4V25h-5v.21l-2 .4v-5.59Zm7 1.82h-5v.58h5v-.58Zm-5 1.58h5V24h-5v-.58Zm-.52 2.52H39.3v.75h2.05c-.34 1.17-1.58 2.18-2.15 2.54l.63.64a4.96 4.96 0 0 0 3.25-3.07l.63-.43-1.52-.99-.7.57Zm2.52-.8v3.15c0 .1-.13.28-.42.28H42v.56h.53c.25.03.75.18.79.6V30h1.43c.36 0 1.26-.1 1.25-.87V27.5a5.73 5.73 0 0 0 2.75 2.5L50 28.79a8.87 8.87 0 0 1-2.46-1.29c.6-.18 1.86-.66 2.13-1.1l-1.54-.74c-.26.35-.89 1.1-1.35 1.33L46 25.92v-.5l-2-.29ZM7 32v5h1v-2.59L9.15 37H10v-5H9v2.64L7.9 32H7Zm7 5v-5h.9l1.1 2.64V32h1v5h-.85L15 34.41V37h-1Zm29-5v5h1v-2.59L45.15 37H46v-5h-1v2.64L43.9 32H43Zm-32.58 1.17c0-.65.53-1.17 1.18-1.17h.64c.65 0 1.18.52 1.18 1.17v2.66c0 .65-.53 1.17-1.18 1.17h-.64c-.65 0-1.18-.52-1.18-1.17v-2.66Zm1 .06a.5.5 0 1 1 1 0v2.6a.5.5 0 1 1-1 0v-2.6ZM25 32h-1v3.83c0 .65.53 1.17 1.18 1.17h.64c.65 0 1.18-.52 1.18-1.17V32h-1v3.83a.5.5 0 1 1-1 0V32Zm17 0h-1v5h1v-5Zm-7.72 0h-.78v5h1v-2h.5a1.5 1.5 0 0 0 0-3h-.72Zm.22.72v1.56h.22a.78.78 0 1 0 0-1.56h-.22Zm3.33-.72H37v5h1v-2h.53l.68 2h1.05l-.75-2.23a1.5 1.5 0 0 0-.8-2.77h-.88Zm.64 2.28H38v-1.56h.47a.78.78 0 1 1 0 1.56ZM22 34v-1.2h1.6V32H21v5h1v-2.18h1.14V34H22Zm11-.82A1.34 1.34 0 0 0 31.59 32c-1.3 0-1.5.99-1.5 1.26 0 .26.05.78 1.16 1.54.26.16.73.6.75 1.01 0 .14-.02.43-.41.46-.48.03-.62-.47-.64-.73l-.95.12c.02.45.37 1.35 1.59 1.34 1.22-.01 1.44-.9 1.4-1.34 0-.28-.22-.9-1.01-1.41-.82-.54-.9-.91-.88-1.07.02-.15.09-.44.44-.45.35 0 .5.35.52.53l.94-.08Zm-15.42 0c0-.66.5-1.18 1.13-1.18h.6c.64 0 1.14.52 1.14 1.17v.46h-.98v-.39a.44.44 0 1 0-.89 0v2.52a.44.44 0 1 0 .89 0v-.58h-.61v-.7h1.59V37h-.48l-.06-.17c-.17.1-.37.17-.6.17h-.6c-.62 0-1.13-.52-1.13-1.17v-2.66ZM47.88 32c-.63 0-1.14.52-1.14 1.17v2.66c0 .65.5 1.17 1.13 1.17h.6c.22 0 .43-.06.6-.17l.06.17h.48v-2.51H48v.7h.63v.57a.44.44 0 1 1-.89 0v-2.52a.44.44 0 1 1 .89 0v.4h.98v-.47c0-.65-.5-1.17-1.13-1.17h-.6Z" fill="#fff"/></svg>