<!-- by TradingView --><svg width="56" height="56" viewBox="0 0 56 56" xmlns="http://www.w3.org/2000/svg"><path fill="#F0F3FA" d="M0 0h56v56H0z"/><path d="M19.2 42.44c.89.31 1.75.32 2.58.03 2.86-1 5.24-3.3 7.39-5.15.36-.3.55-.5.58-.6.03-.12 0-.15-.1-.1-.18.09-.47.32-.87.68a4.91 4.91 0 0 1-4.03 1.52c-2.19-.16-4.27-1.95-5.78-3.55-.25-.27-.22-.32.11-.16a9 9 0 0 0 4.16.89h7.59a.17.17 0 0 1 .16.11l.01.07v6.62c0 .04-.01.08-.04.11s-.08.09-.12.09H21.1c-2.78-.18-5.38-.77-7.61-2.57-.03-.03-.04-.05-.01-.06h.04c1.28.85 2.66 1.45 4.14 1.8.04.01.06 0 .07-.03l.02-.07c-2.6-1-4.7-2.49-6.29-4.47-3.3-4.13-4.24-8.8-2.83-14 .08-.3.14-.3.17.01.23 2.33 1.65 4.57 3.3 6.13 1 .96 2.06 2.15 3.25 3.2h.1c.03-.02.04-.05 0-.1-.3-.36-.62-.68-.94-.97-1.71-1.52-1.93-4.08-1-6 .72-1.5 1.8-2.99 3.2-4.43.04-.03.03-.06-.01-.07l-.07-.02h-.01c-.94.81-1.86 1.82-2.79 3.02a5.88 5.88 0 0 0-1.07 5.13c.05.23.15.4.31.51.02.02.02.03 0 .05l-.1.06c-.04.02-.07.01-.09-.02l-.22-.4a.14.14 0 0 1 0-.14c.05-.08.02-.17-.08-.26a7.67 7.67 0 0 1-.99-4.67c0-.05-.01-.06-.05-.03l-.13.07a.09.09 0 0 0-.04.07 7.4 7.4 0 0 0 1 4.77c.06.1.04.12-.06.07a1.12 1.12 0 0 1-.4-.32 16.38 16.38 0 0 1-1.87-2.88 8.6 8.6 0 0 1-.84-3.72c0-.1-.03-.11-.1-.04l-.04.07c0 .1-.06.15-.15.1a.17.17 0 0 1-.1-.14c-.07-1.57.86-3.54 1.64-4.89.02-.03.04-.04.06-.02.02.03.02.05.02.07a14.94 14.94 0 0 0-1.3 3.8c-.07.41-.02.43.17.05.5-1 .97-1.9 1.61-2.72 3.23-4.15 7.49-6.12 12.85-5.93.1 0 .14.05.14.15v6.6a.21.21 0 0 1-.21.2 17 17 0 0 0-1.91.08c-6.53.72-9.48 8.9-4.65 13.66.25.25.85.46 1.14.99l.35.63c1.61 2.18 3.8 4.1 6.71 3.87.65-.05.67.05.07.3-1.44.6-2.98.74-4.6.41-.03 0-.05 0-.08.03l-.05.08c-.04.05-.03.09.04.1 1.7.39 3.27.28 4.72-.34.54-.23.58-.16.12.2a10.95 10.95 0 0 1-6.43 2.4c-.13 0-.14.02-.01.07Zm-.6-25.75a4.12 4.12 0 0 0 1.82-2.44.08.08 0 0 0-.02-.04.08.08 0 0 0-.09 0l-1.66.96a.96.96 0 0 0-.47.84v.44c0 .35.14.42.42.24Zm-2.52.54.6.45a.14.14 0 0 0 .21-.04l.16-.22c.4-.58.75-1.16.96-1.62.2-.46.26-.76.15-.84l-.03-.03c-.05-.03-.15-.02-.27.06-.13.07-.28.2-.46.37a13.02 13.02 0 0 0-1.2 1.44l-.16.23a.15.15 0 0 0 .04.2Zm6.36-1.73c.33-.16.56-.29.7-.37.22-.13.2-.22-.05-.27a3.84 3.84 0 0 0-3.04.77.32.32 0 0 0-.13.34.32.32 0 0 0 .26.25c.99.16 1.49-.35 2.26-.72Zm-7.25 3.27a4.07 4.07 0 0 0 .9-2.85.07.07 0 0 0-.04-.02H16a.08.08 0 0 0-.04.02l-1.21 1.44a.95.95 0 0 0-.17.92l.14.42c.11.32.27.34.47.07Zm4.19-2.55-.16.73a.05.05 0 0 0 .04.06l.7.15c.71.15 1.4.25 1.92.28.52.03.82-.01.85-.12.01-.05-.04-.12-.17-.2a3.2 3.2 0 0 0-.55-.26 10.26 10.26 0 0 0-1.87-.53l-.71-.15h-.03a.05.05 0 0 0-.02.04Zm-5.55 3.92a4.13 4.13 0 0 0 .42-2.99.08.08 0 0 0-.08 0 .08.08 0 0 0-.03.02l-.98 1.64a.96.96 0 0 0-.02.95l.21.39c.17.3.33.3.48 0Zm6.77-2.4c0-.05-.03-.12-.1-.18-.09-.06-.2-.12-.35-.17-.15-.06-.33-.1-.52-.15a5.62 5.62 0 0 0-1.8-.05c-.15.03-.28.07-.36.12-.09.04-.14.1-.14.16s.03.12.1.18c.09.06.2.12.35.18a5.6 5.6 0 0 0 2.32.2c.15-.03.28-.07.36-.12.1-.05.14-.1.14-.16Zm-2.53 1.1.7-.12c.24-.06.25-.14.04-.25a3.52 3.52 0 0 0-2.86-.18.3.3 0 0 0-.2.26.3.3 0 0 0 .15.28c.81.42 1.4.12 2.17 0Zm-5.4 2.85a4.2 4.2 0 0 0-.02-3.07.08.08 0 0 0-.04-.02c-.02 0-.03 0-.05.02a.08.08 0 0 0-.03.03l-.74 1.8a.98.98 0 0 0 .13.96l.27.36c.2.27.36.25.48-.08Zm3.87-1.8a9 9 0 0 0 .68-.21c.22-.08.22-.17 0-.25a3.48 3.48 0 0 0-2.83.19.3.3 0 0 0-.17.28.3.3 0 0 0 .2.26c.84.3 1.38-.07 2.12-.27Zm-4.8 3.57a4.22 4.22 0 0 0-.37-3.06.08.08 0 0 0-.04 0l-.04.01a.08.08 0 0 0-.03.04l-.52 1.88a.99.99 0 0 0 .23.94l.3.33c.25.25.4.2.48-.14Zm1.4-2.38c-.27.17-.26.32.02.46l.37.2a.88.88 0 0 0 .88-.06l1.5-1a.08.08 0 0 0 .03-.07l-.01-.04a3.77 3.77 0 0 0-2.78.52Zm1.56.89c-1.02-.18-2.03.15-2.58.96a.29.29 0 0 0 .17.45c.89.18 1.53-.5 2.46-1.23a.1.1 0 0 0 .03-.1.1.1 0 0 0-.08-.08Zm-2.1 10.92a7.24 7.24 0 0 1-.37-1.66c-.02-.36-.1-.37-.24-.05-.31.7-.36 1.56-.14 2.57.02.1.08.17.18.23l.23.15c.1.06.15.04.17-.07l.1-.52v-.04h.05a.1.1 0 0 1 .04.04 33.76 33.76 0 0 0 .2 1.23c.05.35.22.62.5.83a.12.12 0 0 0 .13.01.12.12 0 0 0 .07-.09c.08-.43.2-.86.05-1.25-.15-.4-.31-.92-.48-1.53-.04-.14-.1-.15-.18-.03l-.14.2a.1.1 0 0 1-.1.05.1.1 0 0 1-.08-.07Zm-2.42-1.26a9.66 9.66 0 0 0-.53-.46c-.19-.15-.26-.1-.21.13.19.94.74 1.7 1.65 2.3a.28.28 0 0 0 .42-.15.3.3 0 0 0 .01-.16c-.2-.88-.78-1.13-1.34-1.66Zm2.23 3.04a3.59 3.59 0 0 0-2.45-1.07.07.07 0 0 0-.03.07c0 .01 0 .03.02.03l1.17 1.25a.84.84 0 0 0 .8.24l.38-.1c.3-.07.33-.2.11-.42Zm1.93 0a7.07 7.07 0 0 0-.3-.58c-.1-.2-.17-.18-.21.03-.17.87.03 1.72.6 2.55a.26.26 0 0 0 .27.11.26.26 0 0 0 .2-.21c.15-.82-.27-1.25-.56-1.9Zm1.25 1.1a7.05 7.05 0 0 0-.3-.53c-.12-.17-.19-.15-.21.05-.1.82.14 1.6.73 2.34a.25.25 0 0 0 .26.09.25.25 0 0 0 .18-.22c.08-.77-.34-1.15-.66-1.73Zm-2.03.3a3.4 3.4 0 0 0-2.49-.6.07.07 0 0 0-.01.08l.02.03 1.31.97a.8.8 0 0 0 .8.08l.34-.15c.26-.12.27-.26.03-.41Zm4.18 2.45c.05-.03.08-.1.09-.18.01-.08 0-.2-.03-.32a3.76 3.76 0 0 0-.97-1.6.92.92 0 0 0-.27-.16c-.08-.03-.15-.03-.2 0-.04.03-.07.09-.08.17-.01.09 0 .2.03.32a3.76 3.76 0 0 0 .97 1.6c.1.08.19.14.27.17.08.03.14.03.2 0Zm-2.77-1.33a3.52 3.52 0 0 0-2.64-.16.07.07 0 0 0 .03.1l1.5.76a.82.82 0 0 0 .82-.06l.33-.22c.24-.17.23-.3-.04-.42Zm2.8-.24c.08.93.58 1.74 1.4 2.05a.25.25 0 0 0 .31-.14.26.26 0 0 0 .02-.12c-.04-.81-.76-1.22-1.58-1.87a.09.09 0 0 0-.14.03.1.1 0 0 0 0 .05Zm-1.1 1.45c0-.12-.14-.23-.4-.31a3.43 3.43 0 0 0-1.53-.1c-.17.02-.33.05-.46.1-.13.03-.23.08-.3.14-.07.05-.11.1-.11.17 0 .12.15.23.41.31a3.43 3.43 0 0 0 1.53.1c.17-.02.32-.05.45-.1.13-.03.24-.08.3-.14.08-.05.11-.1.11-.17Zm1.69.66c-.02-.12-.19-.2-.47-.25a3.78 3.78 0 0 0-1.58.1c-.18.05-.33.1-.46.16s-.23.12-.3.18c-.06.07-.1.13-.09.18.02.12.18.2.47.25a3.78 3.78 0 0 0 1.58-.1c.18-.05.33-.1.46-.16s.23-.12.3-.18c.06-.06.1-.13.09-.18Zm1.33.13a3.62 3.62 0 0 0-2.51 1v.03a.07.07 0 0 0 .06.05l1.71.05a.84.84 0 0 0 .75-.4l.2-.35c.17-.26.1-.39-.2-.38Z" fill="#5EBD1E"/><path d="M30.12 18c-.08 0-.12.03-.12.11v16.75c0 .04-.01.07-.04.1a.14.14 0 0 1-.1.04h-4.72a.14.14 0 0 1-.1-.04.14.14 0 0 1-.04-.1V13.14a.12.12 0 0 1 .12-.12c2.18 0 4.09 0 5.74-.02a25.7 25.7 0 0 1 5.58.4c11.05 2.66 15.35 16.12 7.68 24.56a14.54 14.54 0 0 1-11.96 5.03c-.1 0-.16-.06-.16-.17v-4.67c0-.1.06-.16.16-.15 3.62.16 6.62-1.12 8.67-3.64 4.6-5.67 1.4-14.74-5.55-16.17-1.32-.27-3.74-.18-5.16-.19Z" fill="#1C74CD"/></svg>