<!-- by TradingView --><svg width="56" height="56" viewBox="0 0 56 56" xmlns="http://www.w3.org/2000/svg"><path fill="#FFC02E" d="M0 0h56v56H0z"/><path d="M8.7 32.2c-.02.02 0 .05.01.05 1.41.48 2.74.34 3.97-.4.13-.07.23-.04.3.11a.18.18 0 0 1-.03.2c-.48.5-.95.98-1.44 1.46-.22.22-.4.34-.73.36-.9.06-1.74-.02-2.52-.22a5.25 5.25 0 0 1-3.58-3 6.91 6.91 0 0 1-.67-2.7c-.03-.61 0-1.24.07-1.88.12-1.02.44-1.96.96-2.82.34-.56.77-.96 1.27-1.19.32-.14.72-.2 1.22-.16.65.04 1.11.5 1.4 1.05a.1.1 0 0 0 .15.02l.89-.93a.49.49 0 0 1 .55-.1c.4.18.83.41 1.29.6.16.07.3.06.42-.02a4.89 4.89 0 0 0 .6-.5c.06-.01.14.03.16.1l.01.08c0 .06-.02.12-.06.18l-.77 1.14a.84.84 0 0 1-.34.31.72.72 0 0 1-.26.06.64.64 0 0 1-.23-.04c-.23-.08-.62-.3-1.18-.57-.35-.17-.67-.13-.95.14-.32.3-.73.76-.64 1.22a216.72 216.72 0 0 0 1.71 4.53c.09.21.06.44-.1.67-.31.5-.77 1.16-1.36 1.96-.03.04-.07.14-.13.3Zm-1.24-6.1c-.2-.45-.36-.75-.08-1.08l1.16-1.35a.28.28 0 0 0 .05-.28c-.31-.82-1.07-1.3-1.9-.82-1.47.86-1.7 2.69-1.69 4.26a5.71 5.71 0 0 0 3.15 5.2c.03 0 .07-.03.09-.05.67-.73.93-1.66.66-2.6-.1-.36-.21-.68-.39-1.03-.37-.74-.72-1.5-1.05-2.25ZM22 26.99l2.6-1.4c.24-.15.33-.08.27.19a.77.77 0 0 0 .01.3c.02.08.06.16.13.26l.72 1.03c.43.62.77 1.26.77 2.02.01 1.9-1.82 3.43-3.17 4.53-.09.08-.22.1-.39.06a.64.64 0 0 1-.3-.19c-.22-.21-.22-.35-.36-.4a8.77 8.77 0 0 0-1.65-.48.17.17 0 0 1-.05-.07.16.16 0 0 1 .03-.17l.28-.3a.6.6 0 0 0 .11-.38v-8c0-.4-.14-.65-.24-1.01v-.09c.07-.14.18-.15.33-.02.12.1.25.24.39.43.04.06.14.05.17-.02.32-.79 1-1.22 2.04-1.28.05 0 .1.01.14.03a.2.2 0 0 1 .08.1c.04.12-.02.22-.14.25-.98.2-1.76.7-1.77 1.49v3.12Zm3.4 3.35a3.09 3.09 0 0 0-.55-1.7 1522.55 1522.55 0 0 1-1.22-1.87.12.12 0 0 0-.1-.02s-.02 0-.03.02l-1.5.66v4.7c.29.17 1.07.35 1.52.58.2.1.36.1.48.04a3.26 3.26 0 0 0 1.4-2.41ZM28 26.99l2.6-1.4c.24-.15.33-.08.27.19a.77.77 0 0 0 .01.3c.02.08.06.16.13.26l.72 1.03c.43.62.77 1.26.77 2.02.01 1.9-1.82 3.43-3.17 4.53-.09.08-.22.1-.39.06a.64.64 0 0 1-.3-.19c-.22-.21-.22-.35-.36-.4a8.77 8.77 0 0 0-1.65-.48.17.17 0 0 1-.05-.07.16.16 0 0 1 .03-.17l.28-.3a.6.6 0 0 0 .11-.38v-8c0-.4-.14-.65-.24-1.01v-.09c.07-.14.18-.15.33-.02.12.1.25.24.39.43.04.06.14.05.17-.02.32-.79 1-1.22 2.04-1.28.05 0 .1.01.14.03a.2.2 0 0 1 .08.1c.04.12-.02.22-.14.25-.98.2-1.76.7-1.77 1.49v3.12Zm3.4 3.35a3.09 3.09 0 0 0-.55-1.7 1385.18 1385.18 0 0 1-1.22-1.87.12.12 0 0 0-.1-.02s-.02 0-.03.02l-1.5.66v4.7c.29.17 1.07.35 1.52.58.2.1.36.1.48.04a3.26 3.26 0 0 0 1.4-2.41ZM35.06 31.37c.35.8 1 1.47 2.12 1.07.13-.04.47-.22 1.01-.53.11-.06.2-.05.27.04l.01.05-.01.1a.16.16 0 0 1-.05.09l-2.23 1.75a.27.27 0 0 1-.17.06.28.28 0 0 1-.17-.06c-.73-.58-1.34-.75-1.72-1.7a2.8 2.8 0 0 1-.12-.96v-2.91c0-.19.12-.37.37-.56.71-.52 1.12-1.08 1.97-1.67.3-.22.56-.18.76.11l1.48 2.13c.04.06.06.14.04.21a.3.3 0 0 1-.12.19A106 106 0 0 1 35.23 31c-.15.1-.25.2-.17.36Zm2.18-2.38-1.29-1.85a.17.17 0 0 0-.05-.05.22.22 0 0 0-.22 0c-.28.17-.48.38-.6.63-.05.15-.08.4-.08.78v2.03c0 .07.05.1.1.06a69.9 69.9 0 0 1 1.76-1.18c.14-.09.27-.2.37-.31a.09.09 0 0 0 .02-.05l-.01-.06ZM41.06 31.37c.35.8 1 1.47 2.12 1.07.13-.04.47-.22 1.01-.53.11-.06.2-.05.27.04l.01.05-.01.1a.16.16 0 0 1-.05.09l-2.23 1.75a.27.27 0 0 1-.17.06.28.28 0 0 1-.17-.06c-.73-.58-1.34-.75-1.72-1.7a2.8 2.8 0 0 1-.12-.96v-2.91c0-.19.12-.37.37-.56.71-.52 1.12-1.08 1.97-1.67.3-.22.56-.18.76.11l1.48 2.13c.04.06.06.14.04.21a.3.3 0 0 1-.12.19A106 106 0 0 1 41.23 31c-.15.1-.25.2-.17.36Zm2.18-2.38-1.29-1.85a.17.17 0 0 0-.05-.05.22.22 0 0 0-.22 0c-.28.17-.48.38-.6.63-.05.15-.08.4-.08.78v2.03c0 .07.05.1.1.06a69.9 69.9 0 0 1 1.76-1.18c.14-.09.27-.2.37-.31a.09.09 0 0 0 .02-.05l-.01-.06ZM17.97 32.24a.07.07 0 0 0-.12-.05l-2.04 1.77a.17.17 0 0 1-.27-.08c-.04-.12-.1-.28-.18-.4-.71-.9-1.37-1.96-1.36-3.1 0-.95.4-1.83.97-2.6.45-.6 1.15-1.12 1.73-1.57.2-.17.3-.32.57-.1a6.55 6.55 0 0 0 2.23 1.13.17.17 0 0 1 .04.16l-.05.08c-.25.26-.5.37-.49.8v3.59c.02.23.11.44.22.62a.28.28 0 0 0 .37.1l.37-.22a.15.15 0 0 1 .15 0 .15.15 0 0 1 .07.13c0 .08-.03.15-.1.22-.37.41-.7.81-.96 1.2a.19.19 0 0 1-.26.05.19.19 0 0 1-.06-.07 1.6 1.6 0 0 0-.35-.48c-.39-.34-.46-.67-.48-1.18Zm-.86.05c.28-.22.56-.4.72-.54.17-.19.17-.49.17-.84v-2.97c0-.04-.01-.07-.05-.09-.3-.2-.72-.44-1.2-.72-.17-.11-.32-.13-.44-.05l-.27.29A2.77 2.77 0 0 0 15 29.56c0 .93.54 1.88 1.14 2.7.14.18.22.28.25.3.2.17.53-.11.72-.27ZM47 27.75c.03.17.1.2.25.07l2.16-1.75c.1-.1.3-.09.4.01.44.44.78.8 1.49.93.11.01.2.12.18.22l-.05.1c-.18.2-.45.43-.43.79v4.06c0 .16.08.56.33.43l.55-.27a.09.09 0 0 1 .07 0c.01 0 .02 0 .03.02l.02.03a.46.46 0 0 1-.15.4c-.36.36-.69.76-.98 1.13a.2.2 0 0 1-.08.06.24.24 0 0 1-.2 0c-.27-.15-.59-1.1-.59-1.4v-4.1c0-.5-.43-.9-.91-1.17-.11-.07-.21-.06-.31.02l-1.68 1.2c-.05.04-.1.1-.1.15v3.64c0 .46.88.4.99.69l.01.07c0 .08-.06.16-.22.2-.37.08-.95.28-1.07.6a.14.14 0 0 1-.08.07c-.14.06-.07.06-.24.02a.12.12 0 0 1-.05-.02.1.1 0 0 1-.03-.05c-.1-.34-.36-.56-.75-.64a.24.24 0 0 1-.1-.05.2.2 0 0 1-.07-.1.18.18 0 0 1 0-.1.2.2 0 0 1 .08-.1c.33-.23.53-.37.53-.76v-4.3c0-.17-.1-.24-.3-.21l-.55.08a.1.1 0 0 1-.1-.04c-.07-.09-.07-.17.02-.26.46-.43.87-.85 1.24-1.27.08-.1.27-.08.33.05.36.3.36.8.36 1.3v.25Z" fill="#222221"/></svg>