<!-- by TradingView --><svg width="56" height="56" viewBox="0 0 56 56" xmlns="http://www.w3.org/2000/svg"><path fill="#F0F3FA" d="M0 0h56v56H0z"/><path d="M15 22.5v1a.5.5 0 0 1-1 0 .5.5 0 0 0-.5-.5h-4a.5.5 0 0 0-.5.5v1.3c0 .13.05.25.15.35l.7.7c.1.1.15.22.15.36v3.29c0 .28.22.5.5.5h3a.5.5 0 0 0 .5-.5v-2a.5.5 0 0 0-.5-.5h-1a.5.5 0 0 1 0-1h2c.28 0 .5.22.5.5v4a.5.5 0 0 1-.5.5h-6a.5.5 0 0 1-.5-.5v-8c0-.28.22-.5.5-.5h6c.28 0 .5.22.5.5Z" fill="#FF920B"/><path fill-rule="evenodd" d="M17 25.5c0-.28.22-.5.5-.5h2c.28 0 .5.22.5.5v4a.5.5 0 0 1-.5.5h-1a.5.5 0 0 1-.5-.5v-1.3a.5.5 0 0 0-.15-.35l-.75-.75c-.05-.05-.1-.12-.1-.2v-1.4Zm-.5 5.5a.5.5 0 0 1-.5-.5v-6c0-.28.22-.5.5-.5h4c.28 0 .5.22.5.5v6a.5.5 0 0 1-.5.5h-4Z" fill="#FF920B"/><path d="M23 24.5v-2a.5.5 0 0 0-1 0v8c0 .28.22.5.5.5h1a.5.5 0 0 0 .5-.5v-5a.5.5 0 0 0-.5-.5.5.5 0 0 1-.5-.5Z" fill="#FF920B"/><path fill-rule="evenodd" d="M30 22.5a.5.5 0 0 0-1 0V24h-3.5a.5.5 0 0 0-.5.5v6c0 .28.22.5.5.5h4a.5.5 0 0 0 .5-.5v-8ZM26.5 25a.5.5 0 0 0-.5.5v1.4c0 .08.05.15.1.2l.75.75c.1.1.15.22.15.36v1.29c0 .28.22.5.5.5h1a.5.5 0 0 0 .5-.5v-4a.5.5 0 0 0-.5-.5h-2ZM35.5 24c.28 0 .5.22.5.5v6a.5.5 0 0 1-.5.5H32v1.5c0 .17-.1.5-.5.5s-.5-.33-.5-.5v-8c0-.28.22-.5.5-.5h4ZM32 25.5c0-.28.22-.5.5-.5h2c.28 0 .5.22.5.5v4a.5.5 0 0 1-.5.5h-1a.5.5 0 0 1-.5-.5v-1.3a.5.5 0 0 0-.15-.35l-.75-.75c-.05-.05-.1-.12-.1-.2v-1.4Z" fill="#FF920B"/><path d="M37.5 26a.5.5 0 0 1-.5-.5v-1c0-.28.22-.5.5-.5h4c.28 0 .5.22.5.5v6a.5.5 0 0 1-.5.5h-4a.5.5 0 0 1-.5-.5v-3c0-.28.22-.5.5-.5h3a.5.5 0 0 0 .5-.5v-1a.5.5 0 0 0-.5-.5h-2a.5.5 0 0 0-.5.5.5.5 0 0 1-.5.5Zm3.5 2.5a.5.5 0 0 0-.5-.5h-1a.5.5 0 0 0-.5.5v1c0 .28.22.5.5.5h1a.5.5 0 0 0 .5-.5v-1ZM48 24.5v1a.5.5 0 0 1-1 0 .5.5 0 0 0-.5-.5h-2a.5.5 0 0 0-.5.5v1.3c0 .13.05.25.15.35l.7.7c.1.1.15.22.15.36v1.29c0 .28.22.5.5.5h1a.5.5 0 0 0 .5-.5v-1a.5.5 0 0 1 1 0v2a.5.5 0 0 1-.5.5h-4a.5.5 0 0 1-.5-.5v-6c0-.28.22-.5.5-.5h4c.28 0 .5.22.5.5ZM8 35h40v1H8z" fill="#FF920B"/></svg>