<!-- by TradingView --><svg width="56" height="56" viewBox="0 0 56 56" xmlns="http://www.w3.org/2000/svg"><path fill="#F0F3FA" d="M0 0h56v56H0z"/><path d="M47.79 19.2c-.02-.09.02-.15.11-.19.1-.03.12 0 .08.09l-5.6 9.96a.37.37 0 0 1-.3.2 11.3 11.3 0 0 1-6.78-1c-3.13-1.34-9.4-4.52-12.75-3.05a.39.39 0 0 0-.21.46.4.4 0 0 0 .09.17L35.4 40.8a.1.1 0 0 1-.03.16c-.02.01-.04.04-.06.04h-8.74c-.53 0-.81-.15-1.1-.55-3.05-4.1-6.3-9.02-9.78-12.77-2.16-2.33-4.44-4.65-7.54-5.4a.2.2 0 0 1-.16-.2.2.2 0 0 1 .03-.1c1.21-1.96 2.7-1.78 4.94-1.3.97.21 1.94.3 2.93.3 2.64-.05 4.96-1.5 7.63-1.81 6.46-.77 12.52 1.57 18.5 1.82 1.99.07 3.9-.52 5.76-1.78Z" fill="#EE1B22"/></svg>