<!-- by TradingView --><svg width="56" height="56" viewBox="0 0 56 56" xmlns="http://www.w3.org/2000/svg"><path fill="#F0F3FA" d="M0 0h56v56H0z"/><path fill-rule="evenodd" d="M4 33V23l7.88 8.43H26V33H10.9l-5.4-5.9V33H4Zm5.5-6.05V23l1.5 1.46v3.94l-1.5-1.45ZM33 23v6.1l1.5 1.45v-6.1L33 23Zm-11 4.5a2.5 2.5 0 1 1-5 0 2.5 2.5 0 0 1 5 0Zm-1 0a1.5 1.5 0 1 1-3 0 1.5 1.5 0 0 1 3 0Zm21.5 2.55c1.38 0 2.5-1.13 2.5-2.53 0-1.39-1.12-2.52-2.5-2.52a2.51 2.51 0 0 0-2.5 2.52c0 1.4 1.12 2.53 2.5 2.53Zm0-1.05a1.5 1.5 0 1 0 0-3 1.5 1.5 0 0 0 0 3Zm-26.04 0A2.47 2.47 0 0 1 12 27.5a2.48 2.48 0 0 1 4.67-1.17v.01h-.02l-2.22 1.9-.82-.75 1.54-1.29a1.5 1.5 0 0 0-2.25 1.31 1.5 1.5 0 0 0 2.74.86l.82.63Zm21.02 1c.81 0 1.53-.4 1.98-1l-.77-.6a1.5 1.5 0 1 1-.5-2.23l-1.58 1.32.82.75 2.22-1.9h.03v-.01h-.01A2.48 2.48 0 0 0 35 27.5c0 1.38 1.11 2.5 2.48 2.5ZM26 28h-3v-1h3v1Zm-6 5.5V35h8.5v-7.5l4.13 5.5h2.1s-5.15-6.76-7.73-9.94V33.5h-7ZM47.5 31H46v-8l4.5 5.28V23l1.5 2.22V31h-1.47l-3.03-3.66V31Z" fill="#52A148"/></svg>