<!-- by TradingView --><svg xmlns="http://www.w3.org/2000/svg" width="56" height="56"><path fill="#F6821F" d="M0 0h56v56H0z"/><path d="M29.77 18.6c-.14-2.04-1.55-2.47-2.24-2.42-2.14 0-2.53 2.42-2.49 3.43.03.8.3 2.6.44 3.39.18 1.7-.8 2-1.19 1.88-3.23-1.05-2.64-6.99-2.66-8.96-.01-1.58-.84-1.93-1.26-1.9-.81-.1-2.42.41-2.37 3.25.08 3.56 2.76 7.4 4.12 8.97 1.1 1.26 0 1.9-.67 2.07l-8.08 1.52c-.62.11-2.24.53-2.75-.13-.4-.52-.8-.58-.95-.54-.58.16-.69.86-.67 1.2.27 4.14 2.9 4.47 3.6 4.43a7.76 7.76 0 001.87-.47c2.21-.95 7.36-2.87 10.24-2.9 3.6-.06 8.21 6.86 10.57 9.35 1.87 1.99 2.5 2.23 3.78 2.23 2.33-.26 2.35-5.01 1.95-7-.12-.63-.95-1.22-1.65-.24s-1.9.74-2.4.5c-1.26-.59-6.38-4.18-6.06-8.38.32-4.2 7.15-8.29 10.52-9.81.92-.42 2.74-1.26 2.57-2.5-.2-1.43-1.39-1.6-2.1-1.57-3.99.15-7.9 5-8.88 6.49-1 1.48-2.37 3.4-3.53 3.44-1.16.04-.96-1.6-.33-2.88.52-1.03.63-2.06.62-2.45z" fill="#fff"/></svg>