<!-- by TradingView --><svg width="56" height="56" viewBox="0 0 56 56" xmlns="http://www.w3.org/2000/svg"><path fill="#F0F3FA" d="M0 0h56v56H0z"/><path fill-rule="evenodd" d="m28 16 16.15 4.03A5.02 5.02 0 0 1 48 24.87v6.26a5.02 5.02 0 0 1-3.85 4.84L28 40l-16.15-4.03A5.02 5.02 0 0 1 8 31.13v-6.26a5.02 5.02 0 0 1 3.85-4.84L28 16Zm10 16.2a20.28 20.28 0 0 1-9.83 2.47c-3.78 0-7.28-.99-10.17-2.67 2.4 2.44 6.04 4 10.1 4 3.95 0 7.5-1.48 9.9-3.8ZM21.98 21h1.87a7.4 7.4 0 0 0-.98 3h2.55l.58 1h-3.23l-.03.67A5.26 5.26 0 0 0 28 30.34c-.35.22-1.4.66-2.84.66-2.49 0-3.57-1.65-3.8-2.48h-.42A3.54 3.54 0 0 1 17 30.34c1.83-.64 3.02-3.14 3.39-4.3l.33-1.04H18l.73-1h2.3l.95-3Zm14.52-1H38l-1.5 2H35l1.5-2Zm-2.2 2H32c.05.34.11.68.18 1H29l-2 7h2l.98-3.44c.13-.1.24-.1.37-.1.31 0 .26.22.2.47l-.02.1c-.05.23-.28 1.34-.53 1.97h1.35c.28-.82.65-2.56.65-2.9 0-.45-.12-1.1-.76-1.1-.29 0-.61.12-.88.26L30.7 24h1.7c.3 1.16.67 2.15 1.07 2.99L31 30h1.88l1.36-1.64c1.2 1.88 2.47 2.64 2.9 2.64.74 0 1.86-.37 1.86-.59 0-.17-.1-.31-.15-.36-1.27-.13-2.34-1.68-3.13-3.5L37 25h-1.88a24.9 24.9 0 0 1-.31-1H37l-.61-1h-1.85c-.1-.36-.17-.7-.23-1Z" fill="#ED011F"/></svg>