<!-- by TradingView --><svg width="56" height="56" viewBox="0 0 56 56" fill="none" xmlns="http://www.w3.org/2000/svg">
<rect width="56" height="56" fill="#F0F3FA"/>
<path d="M44 19.0108C35.4393 18.0545 29.7151 12.6052 27.9578 10L24.3804 12.0535C29.9536 20.1938 39.8054 22.7768 44 23.0731V19.0108Z" fill="#001648"/>
<path d="M44 25.9424C32.2502 24.9836 24.302 17.2532 21.8349 13.5078L18.2302 15.4929C25.3783 26.5192 38.414 29.7372 44 29.9869V25.9424Z" fill="#001648"/>
<path d="M44 32.9461C28.3847 31.7476 18.6265 21.785 15.6993 16.9535L12.0693 18.9721C21.0949 32.8744 37.1171 36.7524 44 36.9537V32.9461Z" fill="#001648"/>
<path d="M44 23.0685C28.3847 24.267 18.5572 34.2296 15.63 39.0611L12 37.0425C21.0255 23.1402 37.1171 19.2622 44 19.061V23.0685Z" fill="#EF2D24"/>
<path d="M44 36.9892C35.4393 37.9455 29.7151 43.3948 27.9578 46L24.3804 43.9465C29.9536 35.8062 39.8054 33.1785 44 32.8823V36.9892Z" fill="#EF2D24"/>
<path d="M44 29.9847C32.2502 30.9435 24.2328 38.6738 21.7657 42.4192L18.161 40.4342C25.3091 29.4079 38.414 26.1519 44 25.9022V29.9847Z" fill="#EF2D24"/>
</svg>
