<!-- by TradingView --><svg width="56" height="56" viewBox="0 0 56 56" xmlns="http://www.w3.org/2000/svg"><path fill="#F0F3FA" d="M0 0h56v56H0z"/><path fill-rule="evenodd" d="M28 43a15 15 0 1 0 0-30 15 15 0 0 0 0 30Zm0 1a16 16 0 1 0 0-32 16 16 0 0 0 0 32Z" fill="#C30201"/><path d="M27.14 15 15.35 32.51c-.54-1.95-.86-7.71 2.14-11.67A14.85 14.85 0 0 1 27.14 15ZM40 22.43c-.86-3.82-5.9-6.9-8.04-6.9-4.28 3.4-4.82 8.54-3.21 9.55 4.72 2.96 9.47-.53 11.25-2.65ZM27.68 31.45c-5.9 0-8.76 2.65-10.19 4.24.54 1.6 3.76 5.31 10.19 5.31 6.44 0 9.28-2.65 10.18-4.24 0-2.13-4.8-5.31-10.18-5.31Z" fill="#C30201"/></svg>