<!-- by TradingView --><svg width="56" height="56" viewBox="0 0 56 56" xmlns="http://www.w3.org/2000/svg"><path fill="#F0F3FA" d="M0 0h56v56H0z"/><path d="m4 32 2.14-6h1.91l2.13 6H8.35l-.29-1H6.11l-.3 1H4Zm2.49-2.29h1.2l-.6-2.05-.6 2.05ZM11 26v6h1.52v-3.16L14.45 32H16v-6h-1.55v3.27L12.52 26H11ZM28 26v6h1.52v-3.16L31.45 32H33v-6h-1.55v3.27L29.52 26H28ZM21.66 26h-4.92v1.48h1.69V32H20v-4.52h1.66V26Z" fill="#0D1D76"/><path fill-rule="evenodd" d="M24.57 32c1.9 0 2.69-1.34 2.69-3s-.8-3-2.7-3c-1.88 0-2.69 1.34-2.69 3s.78 3 2.7 3Zm0-1.34c.79 0 1.11-.75 1.11-1.67 0-.92-.33-1.66-1.11-1.67-.79 0-1.12.75-1.12 1.67 0 .92.32 1.68 1.12 1.67Z" fill="#0D1D76"/><path fill-rule="evenodd" d="M38.78 25h1.38v.37h2.5V27h-1.38v-.69h-3.62V27h-1.38v-1.63h2.5V25ZM43 27.53h-3.35l.48-.7-1.26-.27-.65.97H36v.94h1.59l-.76 1.14 1.74.71a6.8 6.8 0 0 1-2.29.54v1.1c.9 0 2.4-.27 3.65-1.08L42.67 32v-1.1l-1.85-.76c.43-.44.8-1 1.02-1.67H43v-.94Zm-2.37.94h-1.6l-.5.74 1.12.46c.51-.41.82-.85.98-1.2ZM47.5 25H49v.36h3v1h-3v.25h2.38V30h-1.16c.31.25.86.54 1.78.77v1.2c-.6-.13-2-.63-3-1.57V32h-1.5v-1.62a7.07 7.07 0 0 1-3.03 1.6v-1.21a4.6 4.6 0 0 0 1.78-.77H45v-3.39h2.5v-.24h-3.03v-1.01h3.02V25Zm-1.22 2.42h1.21v.46h-1.2v-.46Zm0 1.24v.4h1.21v-.4h-1.2Zm2.72 0v.4h1.2v-.4H49Zm1.2-.78v-.46H49v.46h1.2Z" fill="#BE0022"/></svg>