<!-- by TradingView --><svg width="56" height="56" viewBox="0 0 56 56" xmlns="http://www.w3.org/2000/svg"><path fill="#F0F3FA" d="M0 0h56v56H0z"/><path d="M31.1 24.78c-.82.25-.81.5.03.72.69.2 1.1.71 1.21 1.57.03.2.14.29.34.28.08 0 .14-.02.19-.05a.23.23 0 0 0 .11-.2c.06-1.18.73-1.7 2.01-1.56 2.5.26 4.7.67 6.6 1.22.34.1.7.29 1.07.57a.57.57 0 0 1-.11.98c-1.66.76-3.6 1.26-5.84 1.5a4.69 4.69 0 0 1-2.56-.64c-.72-.36-2.2-.98-4.45-1.86-1.91-.73-4.77-2.37-4.6-4.69.13-1.65 1-2.76 2.6-3.31 3.02-1.06 5.08.42 7.44 2.3.32.25.67.28 1.03.07l1.64-.95c.4-.23.39-.45-.02-.65a4 4 0 0 1-1.99-1.85 4.43 4.43 0 0 0-2.62-2.17 24.95 24.95 0 0 1-6.6-3.15c-.7-.47-.63-.75.22-.83 4.77-.44 8.95.9 12.52 4a16.12 16.12 0 0 1 5.23 9.48c.04.19.14.35.28.49.25.23.58.43.99.6.07.02.1.07.1.15v.37c0 .2-.08.25-.26.15-3.18-1.8-7.12-2.17-10.8-2.4-1.17-.07-1.83-.65-1.96-1.74-.02-.12-.08-.19-.2-.2-.07-.02-.13 0-.17.04-.02.02-.04.07-.06.15-.15.84-.6 1.38-1.37 1.6Z" fill="#EB3A01"/><path d="m16.52 35.6-.14.13c-.08.08-.09.17-.03.27a16.96 16.96 0 0 0 9.19 7.61.16.16 0 0 1 0 .22l-.14.13c-.02.02-.04.02-.07.02-6.54-1.75-10.73-5.87-12.56-12.36a.4.4 0 0 0-.15-.2c-.37-.29-.82-.6-1.34-.95-1.86-1.23-1.6-2.88.16-3.82.35-.19.61-.35.79-.5.16-.14.28-.41.37-.82 1.46-6.6 5.41-10.9 11.86-12.88.67-.2.77-.05.3.47l-.57.5c-.62.55-.53.95.25 1.2l3.2 1.03a.15.15 0 0 1 .1.16.17.17 0 0 1-.12.15c-4.05.9-6.11 3.22-6.18 6.95a7.3 7.3 0 0 0 3.97 6.63c.78.4.73.6-.15.58a34.1 34.1 0 0 1-10.01-1.58c-.31-.1-.51-.23-.6-.38a.96.96 0 0 1-.13-.31.83.83 0 0 1 0-.32c.02-.1.06-.2.12-.27a.5.5 0 0 1 .22-.16c1.91-.72 3.85-1.15 5.82-1.28.15-.01.2-.09.15-.23l-.1-.23c-.04-.14-.14-.21-.3-.2-3.53.13-6.5.87-8.89 2.21-.26.15-.47.32-.64.54a1 1 0 0 0 .2 1.43c1.1.81 2.4 1.37 3.88 1.67 4.06.83 8.36 1.27 12.89 1.32 3.17.03 6.91-.22 11.23-.74 2.5-.3 4.68-.92 6.54-1.86.26-.14.38-.05.36.27l-.03.25c-.02.25-.14.4-.37.46-.71.19-1.11.45-1.2.8-1.8 6.7-6.07 10.87-12.8 12.48-.1.03-.16 0-.18-.1h-.01c-.03-.1 0-.17.1-.2 5.15-1.85 7.08-5.5 5.77-10.94-.06-.24-.21-.36-.47-.34l-3.3.16c-.52.03-.64.24-.36.64a4.2 4.2 0 0 1 .55 4.18c-.61 1.6-1.94 2.68-3.97 3.26-3.32.95-6.3.53-8.95-1.27a20.43 20.43 0 0 1-4.12-3.78c-.04-.05-.1-.05-.14 0Z" fill="#EB3A01"/></svg>