<!-- by TradingView --><svg width="56" height="56" viewBox="0 0 56 56" xmlns="http://www.w3.org/2000/svg"><path fill="#F0F3FA" d="M0 0h56v56H0z"/><path d="M29.25 12a23.2 23.2 0 0 0-6.18 6.47.56.56 0 0 1-.5.28.54.54 0 0 1-.49-.3l-2.23-3.83c-.12-.22-.07-.4.15-.52l1.24-.71c.22-.13.4-.09.53.14l.7 1.19c.12.22.27.24.45.07L25.94 12h3.31Z" fill="#E52023"/><path d="m21.63 24.1.99-2.81a18.95 18.95 0 0 1 7.62-8.38c.8-.45 1.42-.6 1.85-.42.58.24 1.13.43 1.63.58.3.09.32.21.04.37A58.26 58.26 0 0 0 30 15.72c-3.66 2.6-5.63 5.98-5.9 10.17-.08 1.22-.5 1.34-1.25.39-.4-.52-.8-1.24-1.22-2.18Z" fill="#E8472C"/><path d="m35.38 13.88 1.88 1.08c.13.07.13.15 0 .22l-1.08.59c-3.2 1.74-5.26 3.11-6.15 4.12a10.06 10.06 0 0 0-2.48 9.2 9.67 9.67 0 0 0 6.14 7.29c2.97 1.22 6.01 1 9.14-.67.66-.36 1.19-.21 1.57.43.15.25.13.6-.07 1.03a.85.85 0 0 1-.35.38c-2.7 1.56-5.49 2.1-8.38 1.64a12.19 12.19 0 0 1-10.15-9.47 12.4 12.4 0 0 1 .39-7 12.44 12.44 0 0 1 4.52-6.02c.6-.45 2.2-1.4 4.76-2.82a.24.24 0 0 1 .26 0Z" fill="#EC6C3E"/><path d="m22.62 21.29-.99 2.81-4.4-7.63c-.1-.2-.08-.36.1-.5l1.11-.88c.24-.19.43-.15.58.1l3.6 6.1Z" fill="#E52023"/><path d="M32.92 32.12c2.62 2.4 5.9 2.35 9.85-.16.5-.32.66-.2.48.37l-.47 1.51a2.11 2.11 0 0 1-1.29 1.4c-3.45 1.38-6.55 1.09-9.31-.87a8.67 8.67 0 0 1-3.78-6.52 9.21 9.21 0 0 1 2.4-7.25c.78-.88 2.5-2.05 5.18-3.53.89-.49 1.53-.85 1.93-1.09.24-.14.46-.12.65.08l1.05 1.07c.18.2.16.35-.07.48-.97.53-2.81 1.6-5.52 3.2a6.65 6.65 0 0 0-3.43 5.35 6.8 6.8 0 0 0 2.33 5.96Z" fill="#F08C53"/><path d="m22.13 27.16-.7 3.14-7.32-12.72c-.28-.48-.17-.86.3-1.14l.26-.15c.6-.34 1.08-.21 1.43.39l6.03 10.48Z" fill="#E52023"/><path d="M43.41 30.39c-1.3.75-2.28 1.3-2.93 1.66a5.85 5.85 0 0 1-7.3-1.13 5.85 5.85 0 0 1-1.57-3.4 6.03 6.03 0 0 1 1.02-4.02c.49-.75 1.5-1.58 3.05-2.47 2.44-1.4 3.98-2.3 4.63-2.66.2-.12.38-.07.5.14l.77 1.34c.1.16.06.3-.1.39-2.08 1.2-3.54 2.04-4.37 2.5-1.46.84-2.38 1.56-2.77 2.16a3.45 3.45 0 0 0-.1 3.77 3.56 3.56 0 0 0 3.31 1.95c.86 0 2.42-.69 4.68-2.08l1.27-.76c.25-.14.36-.07.35.2l-.1 1.85a.65.65 0 0 1-.34.56Z" fill="#F5A96B"/><path d="M28.03 44h-2.39L13.12 22.4a.57.57 0 0 1 0-.62l.91-1.57c.11-.2.22-.2.34 0L28.03 44ZM12 27.03v-.91c.04-.82.23-1.5.55-2.04.1-.17.2-.17.3 0l10.93 18.86c.23.39.12.52-.32.39l-1.86-.58c-.45-.15-.8-.42-1.03-.83L12 27.02Z" fill="#E52023"/><path d="m39.71 24.96-1.76-1.43 4.1-2.4c.18-.11.31-.07.38.14l.53 1.55c.05.16 0 .28-.15.37l-3.1 1.77Zm-1.76-1.43 1.76 1.43-.72.44a.65.65 0 0 1-.54.07c-.88-.26-1.43 0-1.65.77-.22.77.1 1.3.95 1.56.3.09.58.06.85-.1s.44-.4.5-.7c.12-.57.54-.94 1.28-1.11l.25 2.27a5.88 5.88 0 0 1-2.93 1.43c-.77.09-1.46-.23-2.07-.96-.98-1.17-1.02-2.37-.11-3.6.3-.4 1.11-.9 2.43-1.5Zm2.43 2.36.25 2.27 2.91-1.61c.18-.1.24-.25.2-.44l-.33-1.77c-.03-.16-.11-.2-.26-.12l-2.77 1.67Z" fill="url(#a)"/><path d="m22.13 27.16 9.35 16.26c.06.11.03.17-.09.2l-1.87.35c-.15.03-.27-.03-.35-.16L21.42 30.3l.7-3.14Z" fill="#E8472C"/><path d="M12 29.9a.83.83 0 0 0 0-.47l6.57 11.03c.45.75.32.86-.37.32A16.45 16.45 0 0 1 12 29.91Z" fill="#E52023"/><path d="M31.24 38.9c2.08.95 4.14 1.45 6.2 1.5.45 0 .49.14.1.39l-2.09 1.35a1.3 1.3 0 0 1-1.13.16l-1.96-.61c-.63-.2-1.1-.6-1.4-1.18a4.13 4.13 0 0 1-.42-1.08c-.1-.61.14-.79.7-.53Z" fill="#E8472C"/><defs><linearGradient id="a" x1="41.9" y1="24.3" x2="37.07" y2="26.99" gradientUnits="userSpaceOnUse"><stop stop-color="#F5A96B"/><stop offset="1" stop-color="#FAD8AB"/></linearGradient></defs></svg>