<!-- by TradingView --><svg width="56" height="56" viewBox="0 0 56 56" xmlns="http://www.w3.org/2000/svg"><path fill="#F0F3FA" d="M0 0h56v56H0z"/><path fill-rule="evenodd" d="M33 16v16.77c0 4-2.99 7.23-6.67 7.23H23V23.23c0-4 2.99-7.23 6.67-7.23H33Zm-11 0v16.77c0 4-2.99 7.23-6.67 7.23H12V23.23c0-4 2.99-7.23 6.67-7.23H22Zm22 16.77V16h-3.33C37 16 34 19.24 34 23.23V40h3.33C41 40 44 36.76 44 32.77ZM16.87 23c2.65 0 3.33 2.3 3.34 3.45h-2c-.18-1.04-.6-1.37-1.34-1.37-.73 0-1.23.66-1.23 1.04v.08c-.02.37-.03.88 2.23 1.29a3.02 3.02 0 0 1 2.63 2.95c0 .44-.05 3.56-3.63 3.56-2.86 0-3.43-2.37-3.36-3.56h1.94c.05.88.4 1.59 1.42 1.59 1.03 0 1.53-.55 1.53-.93v-.07c0-.36.02-.74-2.05-1.46-2.21-.77-2.84-2.3-2.84-2.8 0-.49.05-3.77 3.36-3.77Zm22 0c2.65 0 3.33 2.3 3.34 3.45h-2c-.18-1.04-.6-1.37-1.34-1.37-.73 0-1.23.66-1.23 1.04v.08c-.02.37-.03.88 2.23 1.29a3.02 3.02 0 0 1 2.63 2.95c0 .44-.05 3.56-3.63 3.56-2.86 0-3.43-2.37-3.36-3.56h1.94c.05.88.4 1.59 1.42 1.59 1.03 0 1.53-.55 1.53-.93v-.07c0-.36.02-.74-2.05-1.46-2.21-.77-2.84-2.3-2.84-2.8 0-.49.05-3.77 3.36-3.77ZM29 26H27v8h2v-8Zm.01-2a1 1 0 1 1-2 0 1 1 0 0 1 2 0Z" fill="#EB1C22"/></svg>