<!-- by TradingView --><svg width="56" height="56" viewBox="0 0 56 56" xmlns="http://www.w3.org/2000/svg"><path fill="#F0F3FA" d="M0 0h56v56H0z"/><path d="M52 22 40 34l4.5-8.25L40 22h12Z" fill="#FDC405"/><path d="M52 22 40 34l9-3.75L52 34V22Z" fill="#F08702"/><path d="M11.86 24H4l1.57-2h6.29C14.2 22 15 23.56 15 24.67V31c0 2.13-1.43 3-3 3H7c-1.57 0-3-1-3-2.5v-3C4 26.9 5.57 26 6.5 26H12v2H7.14C6.36 28 6 28.75 6 29.5v1C6 32 7.27 32 8 32h3c1.45 0 2-.5 2-2v-4.5c0-1.07-.36-1.5-1.14-1.5ZM31.14 32H39l-1.57 2h-6.29C28.8 34 28 32.44 28 31.33V25c0-2.13 1.43-3 3-3h5c1.57 0 3 1 3 2.5v3c0 1.6-1.57 2.5-2.5 2.5H31v-2h4.86c.78 0 1.14-.75 1.14-1.5v-1c0-1.5-1.27-1.5-2-1.5h-3c-1.45 0-2 .5-2 2v4.5c0 1.07.36 1.5 1.14 1.5Z" fill="#010101"/><path d="M18 34h-2v-9c0-2.4 1.95-3 3-3h5c2.51 0 3 2 3 3v9h-2v-9c0-.5-.48-1-1-1h-5c-.5 0-1 .5-1 1v9Z"/></svg>