<!-- by TradingView --><svg width="56" height="56" viewBox="0 0 56 56" xmlns="http://www.w3.org/2000/svg"><path fill="#F0F3FA" d="M0 0h56v56H0z"/><path d="M34.3 15.78c-.37.27-.86.34-1.36.2-.5-.15-.98-.5-1.32-.96a2.52 2.52 0 0 1-.51-1.54c.01-.51.23-.95.6-1.22.36-.26.85-.33 1.35-.19.5.15.97.49 1.32.96.34.46.52 1.02.5 1.53 0 .52-.22.96-.59 1.22Z" fill="#3DB133"/><path d="M29.7 20.26a.52.52 0 0 0-.05-.63.51.51 0 0 0-.18-.13c-3.25-1.48-8.48-1.11-11.82-.73a.25.25 0 0 1-.26-.15.25.25 0 0 1-.02-.1v-.9c0-.2.1-.31.28-.36 3.61-.8 7.27-1.12 10.98-.97.57.02 2.07.24 4.5.66 3.03.54 8.1 1.2 9.03-2.6.09-.37.32-.54.7-.5l.68.07c.34.03.49.22.45.55-.36 3.66-2.44 5.71-6.23 6.15-.62.07-1.63.09-3.04.06-.23 0-.41.1-.55.28-5.5 7.58-13.1 13.26-21.44 17.73-1.04.56-1.5.22-2.49.08a.29.29 0 0 1-.23-.21.28.28 0 0 1 .1-.3c4.82-3.51 9.44-7.32 13.87-11.4a36.31 36.31 0 0 0 5.71-6.6Z" fill="#3DB133"/><path d="M29.56 36.44c-.34.26-.3.4.13.43A17.7 17.7 0 0 1 41 41.62c.08.07.1.15.04.25a.36.36 0 0 1-.11.13c-.03 0-.07 0-.12-.04-8.13-4.86-19.25-4.8-27.55-.37-.05.03-.1.02-.13-.03a.3.3 0 0 1-.08-.16c0-.02.01-.04.05-.07 3.48-3.16 6.93-3.95 11.47-4.57.88-.11 1.7-.5 2.47-1.13 1.6-1.36 3.04-2.8 4.34-4.34a.92.92 0 0 0-.46-1.48 6.39 6.39 0 0 0-2.9-.21c-.9.16-1-.06-.32-.66 2.6-2.3 4.72-4.69 6.34-7.17.22-.33.43-.33.63.01l.11.2c.03.04.03.08 0 .13l-2.5 4.29c-.2.34-.1.53.3.56 1.68.13 2.61.9 2.8 2.32.28 2.26-4.1 5.86-5.81 7.16Z" fill="#F08100"/></svg>