<!-- by TradingView --><svg width="56" height="56" viewBox="0 0 56 56" xmlns="http://www.w3.org/2000/svg"><path fill="#F0F3FA" d="M0 0h56v56H0z"/><path d="M41.02 39A17.05 17.05 0 0 1 11 28a17.05 17.05 0 0 1 30.81-10h-5.5a13 13 0 1 0-1.38 21h6.1ZM19 19h3v4.17a3 3 0 0 1 3 .6V19h3v13h-3v-3.76a2.99 2.99 0 0 1-3 .59V32h-3V19Zm13.5 0H36l-.05.19a3 3 0 0 1 3.28.8l.27-.99H43l-3.5 13H36l1.92-7.14a3 3 0 0 1-3.24-.96L32.5 32H29l3.5-13Z" fill="url(#a)"/><circle cx="29" cy="23" r="3" fill="#E70012"/><path fill="#00378B" fill-opacity=".5" d="M19 33h4v4h-4zM25 33h4v4h-4zM31 33h5v4h-5zM38 33h4v4h-4z"/><defs><linearGradient id="a" x1="26.79" y1="11" x2="26.79" y2="45" gradientUnits="userSpaceOnUse"><stop stop-color="#00A297"/><stop offset="1" stop-color="#044891"/></linearGradient></defs></svg>