<!-- by TradingView --><svg xmlns="http://www.w3.org/2000/svg" width="56" height="56"><path fill="#F0F3FA" d="M0 0h56v56H0z"/><path d="M19.53 29.73l-2.8-9.4c4.75-8.77 17.92.09 23.11-8.33l3.6 9.26c-6.5 8.22-17.22.68-23.91 8.47z" fill="url(#a4s3i0r13)"/><path d="M40.51 33.29L41.57 35c-1.49 2.49-5.53 3.65-8.27 3.81-5.99.35-12-2.31-15.5 4.19l-1.5-2c3.9-6.2 11.26-3.5 16.96-4.05 2.82-.27 5.2-1.63 7.25-3.66z" fill="#102A18"/><path d="M38.8 30.63l1.08 1.63s-.42.75-1.15 1.37a10.42 10.42 0 01-6.12 2.46C26.56 36.48 19.8 34 15.8 40.3l-1.2-1.8c2.5-4.5 7.56-4.5 9.03-4.5 5.68-.09 10.25 1.93 15.18-3.37z" fill="#102A18"/><path d="M13 35.94c2.8-4.44 6.67-5 10.53-4.84 4.93.2 9.1.75 13.14-2.83.15-.12.43-.4.43-.4l1.12 1.63c-.08.32-.42.66-1.02 1.19-3.46 3.09-8.03 2.62-12.33 2.21-5.57-.54-8.35 1.36-10.8 5.04l-1.07-2z" fill="#102A18"/><defs><linearGradient id="a4s3i0r13" x1="43.3" y1="16.5" x2="16.3" y2="26.5" gradientUnits="userSpaceOnUse"><stop offset=".1" stop-color="#336A40"/><stop offset=".33" stop-color="#77CB97"/><stop offset=".54" stop-color="#33663F"/></linearGradient></defs></svg>