<!-- by TradingView --><svg width="56" height="56" viewBox="0 0 56 56" xmlns="http://www.w3.org/2000/svg"><path fill="#F0F3FA" d="M0 0h56v56H0z"/><path d="M17.98 28.45c1.52.06 3.02.6 4.08 1.74a4.2 4.2 0 0 1 1.13 2.47 6.55 6.55 0 0 1-2.23 5.3A10.71 10.71 0 0 1 17.21 40a48.45 48.45 0 0 1-4.18 1c-.01 0-.02 0-.03-.02-.14-.43-.28-.97-.41-1.61a8.23 8.23 0 0 1-.17-1.74c0-.55.12-1.15.38-1.6.37-.64.97-.95 1.64-1.14a19 19 0 0 0 1.05-.33c.34-.12.64-.3.89-.52.52-.48.77-1.25.76-1.97a1.99 1.99 0 0 0-.98-1.75 5.91 5.91 0 0 0-1.53-.63l-1.22-.36a5.44 5.44 0 0 1-1.39-.62c-.52-.33-.84-.8-.97-1.42-.09-.43-.1-1.06.32-1.28.3-.16.79-.03 1.13.08a63.71 63.71 0 0 0 1.54.5c.22.05.46.07.7.07.27 0 .5-.03.7-.11.55-.23 1.02-.8 1.07-1.44.03-.5-.17-1.02-.4-1.45l-1.25-2.39c-.18-.35-.34-.7-.48-1.04a3.92 3.92 0 0 1-.29-1.4c0-.5.04-.96.14-1.38a7.23 7.23 0 0 1 1.1-2.45c1.46.54 2.81 1.28 4.04 2.2.53.4 1.02.87 1.48 1.4a7.72 7.72 0 0 1 1.6 2.82 5.34 5.34 0 0 1-.57 4.24 5.9 5.9 0 0 1-3.9 2.78c-.02 0-.02 0 0 0ZM34.17 18.77c4.49.04 8.04 3.88 8 8.49-.04 4.6-3.64 8.38-8.13 8.34-4.48-.03-8.03-3.87-8-8.48.04-4.6 3.65-8.38 8.13-8.35Zm-4.26 8.4a4.3 4.3 0 0 0 4.17 4.4 4.3 4.3 0 0 0 4.23-4.35 4.3 4.3 0 0 0-4.17-4.42 4.3 4.3 0 0 0-4.23 4.36Z" fill="#7EC500"/><path d="M37.95 16.43a6.2 6.2 0 0 0-8.99 1.4c0 .01 0 .02.01.01a6.36 6.36 0 0 1 3.12.5l.52.26a8.28 8.28 0 0 1 1.4-.13 8.13 8.13 0 0 1 6.45 3.07c.02.02.03.01.03-.01a6.78 6.78 0 0 0-2.54-5.1Zm-9.9 4.76a8.47 8.47 0 0 1 4.1-2.49 5.77 5.77 0 0 0-5.44.18 6.12 6.12 0 0 0-2.7 3.1 6.66 6.66 0 0 0-.2 4.44v.01h.01a6.83 6.83 0 0 1 2.61-2.67l.07-.15c.39-.9.9-1.7 1.55-2.42Zm-2.3 6.09a8.92 8.92 0 0 0 1.98 5.56 6.84 6.84 0 0 0 1.2 3.7h-.02a6.25 6.25 0 0 1-2.58-.91 6.84 6.84 0 0 1-.08-11.38c.01-.02.02-.01.01 0a9 9 0 0 0-.5 3.03Zm14.74-8.85-.58-.16c-.01 0-.02 0-.01.01l.3.6a7.34 7.34 0 0 1 .6 3.1 8.94 8.94 0 0 1 1.32 7.68c0 .01 0 .02 0 0a6.45 6.45 0 0 0 2.55-5.78 6.5 6.5 0 0 0-1.08-3.08 6.2 6.2 0 0 0-3.1-2.37Zm3.96 8.79a6.9 6.9 0 0 1-.6 6.5 6.43 6.43 0 0 1-4.46 2.8 6.16 6.16 0 0 1-3.77-.73c-.03-.02-.03-.03 0-.03a8.07 8.07 0 0 0 4.76-2.82 9.01 9.01 0 0 0 1.6-2.8 6.43 6.43 0 0 0 2.02-2.1l.44-.82c0-.02 0-.02.01 0Zm-15.18 7.07a9 9 0 0 1-1.23-1.08 6.4 6.4 0 0 0 2.56 4.6 5.9 5.9 0 0 0 8-.94 6.47 6.47 0 0 1-3.5-1.03l-.52.05a8.2 8.2 0 0 1-5.3-1.6Z" fill="url(#a)"/><defs><linearGradient id="a" x1="44" y1="22.24" x2="22.86" y2="29.05" gradientUnits="userSpaceOnUse"><stop stop-color="#008196"/><stop offset=".26" stop-color="#28A53D"/><stop offset=".54" stop-color="#EFC300"/><stop offset="1" stop-color="#E6363B"/></linearGradient></defs></svg>