<!-- by TradingView --><svg width="56" height="56" viewBox="0 0 56 56" xmlns="http://www.w3.org/2000/svg"><path fill="#F0F3FA" d="M0 0h56v56H0z"/><path fill-rule="evenodd" d="M45 21a2 2 0 1 0 0-4 2 2 0 0 0 0 4Zm0 1a3 3 0 1 0 0-6 3 3 0 0 0 0 6Z" fill="#F7960F"/><path d="M37 22h-2v-2l5-1v20h-3V22ZM20 19h-9v2h4.5l-4 7H15c1.6 0 1.33 1.33 1 2l-4.5 9H15c1-1.83 3.3-6.2 4.5-9 1.2-2.8-.5-4-3.5-4l4-7ZM29.5 19H26c-1 3.5-4 11.17-4 14 0 3.5 2 6 5.5 6 3.54 0 5.5-2.5 5.5-6.5 0-3.2-2-5.5-3.5-5.5h-2l-.5 2h1.5c1 0 1.5 1.5 1.5 3.5s-.5 4.5-2.5 4.5-2.5-2.5-2.5-4c0-1.2.5-2.5 1-4l3.5-10Z" fill="#F7960F"/></svg>