<!-- by TradingView --><svg width="56" height="56" viewBox="0 0 56 56" xmlns="http://www.w3.org/2000/svg"><path fill="#F0F3FA" d="M0 0h56v56H0z"/><path d="M28 13v7h-1.6c-.22 0-.4.28-.4.5 0 .22.18.5.4.5H28v3.16c-.02.9-.75 2.06-1.82 2.06-.88 0-1.39-.62-1.39-1.22 0-.52.54-1.22 1.1-1.22.3 0 .64.2.64.53 0 .2-.22.49-.43.51-.16.02-.33.04-.44.29-.14.35.32.53.58.48.6-.07 1.08-.7 1.08-1.28 0-.77-.7-1.31-1.44-1.31-.99 0-1.88 1.05-1.88 2 0 1.05.88 2 2.18 2 1.53 0 2.8-1.5 2.82-2.83V21h1.6c.22 0 .4-.28.4-.5 0-.22-.18-.5-.4-.5H29v-7h10.29A3.71 3.71 0 0 1 43 16.71V28h-7v-1.6c0-.22-.28-.4-.5-.4-.22 0-.5.18-.5.4V28h-3.16c-.9-.02-2.06-.75-2.06-1.82 0-.88.62-1.39 1.22-1.39.52 0 1.22.54 1.22 1.1 0 .3-.2.64-.53.64-.2 0-.49-.22-.51-.43-.02-.16-.04-.33-.29-.44-.35-.14-.53.32-.48.58.07.6.7 1.08 1.28 1.08.77 0 1.31-.7 1.31-1.44 0-.99-1.05-1.88-2-1.88-1.05 0-2 .88-2 2.18 0 1.53 1.5 2.8 2.83 2.82H35v1.6c0 .22.28.4.5.4.22 0 .5-.18.5-.4V29h7v10.29A3.71 3.71 0 0 1 39.29 43H28v-7h1.6c.22 0 .4-.28.4-.5 0-.22-.18-.5-.4-.5H28v-3.16c.02-.9.75-2.06 1.82-2.06.88 0 1.39.62 1.39 1.22 0 .52-.54 1.22-1.1 1.22-.3 0-.64-.2-.64-.53 0-.2.22-.49.43-.51.16-.02.33-.04.44-.29.14-.35-.32-.53-.58-.48-.6.07-1.08.7-1.08 1.28 0 .77.7 1.31 1.44 1.31.99 0 1.88-1.05 1.88-2 0-1.05-.88-2-2.18-2-1.53 0-2.8 1.5-2.82 2.83V35h-1.6c-.22 0-.4.28-.4.5 0 .22.18.5.4.5H27v7H16.71A3.71 3.71 0 0 1 13 39.29V28h7v1.6c0 .22.28.4.5.4.22 0 .5-.18.5-.4V28h3.16c.9.02 2.06.75 2.06 1.82 0 .88-.62 1.39-1.22 1.39-.52 0-1.22-.54-1.22-1.1 0-.3.2-.64.53-.64.2 0 .49.22.51.43.02.16.04.33.29.44.35.14.53-.32.48-.58-.07-.6-.7-1.08-1.28-1.08-.77 0-1.31.7-1.31 1.44 0 .99 1.05 1.88 2 1.88 1.05 0 2-.88 2-2.18 0-1.53-1.5-2.8-2.83-2.82H21v-1.6c0-.22-.28-.4-.5-.4-.22 0-.5.18-.5.4V27h-7V16.71A3.71 3.71 0 0 1 16.71 13H28Z" fill="#006346"/></svg>