<!-- by TradingView --><svg width="56" height="56" viewBox="0 0 56 56" xmlns="http://www.w3.org/2000/svg"><path fill="#F0F3FA" d="M0 0h56v56H0z"/><path d="M23.2 36c.75-4.24 1.51-18.1 1.8-24.5L22.07 9C22 17.36 20 22.05 19 23.35A71.34 71.34 0 0 1 23.2 36ZM32.8 36c-.75-4.24-1.51-18.1-1.8-24.5L33.93 9C34 17.36 36 22.05 37 23.35A71.34 71.34 0 0 0 32.8 36ZM28.04 11c.43.06 1.29.23 1.73.5.26 5.64 1.08 18.58 2.23 25.28A58.96 58.96 0 0 0 30.63 48h-5.26c0-4.14-.91-9.2-1.37-11.22 1.15-6.7 1.97-19.64 2.23-25.27a5.22 5.22 0 0 1 1.8-.5ZM25 48c-.22-3.91-1-8.3-1.36-10L22 44.37 24.27 48H25ZM31 48c.22-3.91 1-8.3 1.36-10L34 44.37 31.73 48H31Z"/></svg>