<!-- by TradingView --><svg width="56" height="56" viewBox="0 0 56 56" xmlns="http://www.w3.org/2000/svg"><path fill="#F0F3FA" d="M0 0h56v56H0z"/><path d="M20.35 30.42c.01.04 0 .08-.04.1-.04.02-.08.01-.1-.02a10.54 10.54 0 0 1-2.98-9.75 10.84 10.84 0 0 1 6.42-7.88 11.7 11.7 0 0 1 7.7-.41c2.64.68 4.91 1.96 6.83 3.83 2.57 2.52 4.17 6.01 4.82 9.7.02.12-.03.16-.16.16h-7.42c-.13 0-.23-.04-.28-.17-.7-1.75-1.6-3.46-2.68-4.38a7.3 7.3 0 0 0-4.4-1.64 7.22 7.22 0 0 0-5.97 2.24 7.75 7.75 0 0 0-2.04 6.15c.04.55.14 1.24.3 2.07Z" fill="#FF9906"/><path d="M16.21 16.83c-1.2 3.1-1.5 6.03-.93 8.8.62 2.98 2.21 5.37 4.77 7.18a12.98 12.98 0 0 0 6.5 2.52c2.52.2 4.65-.53 6.4-2.2.15-.13.15-.26.02-.4l-4.28-4.36c-.03-.03-.04-.08-.02-.12.02-.05.05-.08.1-.08h14.09c.1 0 .14.06.14.15v14.36c0 .08-.03.13-.1.16a.15.15 0 0 1-.18-.04l-4.18-4.25c-.08-.09-.17-.09-.25 0a23.65 23.65 0 0 1-4.68 3.28c-.55.3-1.08.51-1.6.63-3.08.74-6.03.72-8.87-.05-2.99-.8-5.5-2.55-7.54-5.24a17.85 17.85 0 0 1-3.52-8.69c-.24-1.91.04-3.98.84-6.19.74-2.04 1.8-3.89 3.16-5.54.03-.03.06-.04.1-.02.04.03.05.06.03.1Z" fill="#4A3EF6"/></svg>