<!-- by TradingView --><svg width="56" height="56" viewBox="0 0 56 56" xmlns="http://www.w3.org/2000/svg"><path fill="#F0F3FA" d="M0 0h56v56H0z"/><path d="M17.72 37.7a8.35 8.35 0 0 0 1.83.18v.02c0 .02-.01.02-.03.03-.84.06-1.63.08-2.36.06a10.21 10.21 0 0 1-4.01-.99 9.33 9.33 0 0 1-4.45-4.85 9.39 9.39 0 0 1 .07-7.25c.37-.84.87-1.68 1.5-2.52a5.44 5.44 0 0 1 .68-.73 8.84 8.84 0 0 1 2.08-1.53c.82-.44 1.49-.75 1.99-.93A20.77 20.77 0 0 1 20.93 18c.05 0 .07.02.07.06v7.83c0 .03-.02.05-.06.05-1.13 0-2.22.15-3.28.42-.96.25-1.86.65-2.7 1.2a5.9 5.9 0 0 0-2.6 4.11 5.2 5.2 0 0 0 1.68 4.18c.64.62 1.4 1.1 2.29 1.44.4.16.87.3 1.4.4Z" fill="#3136A0"/><path d="m34.97 23.25.03.02c.02 0 .03 0 .04-.02l2.27-5.18a.1.1 0 0 1 .1-.07h2.04l.04.02v.04a283.74 283.74 0 0 0-2 3.91c-.46.92-.91 1.79-1.36 2.62-.09.16-.14.32-.14.47v3.87c0 .05-.03.07-.08.07h-1.8c-.04 0-.06-.02-.06-.06l-.02-.6c.02-1.7.02-2.79 0-3.25 0-.12-.04-.26-.12-.43a727.82 727.82 0 0 0-3.41-6.61c-.02-.03 0-.05.03-.05h2.1c.04 0 .06.02.08.05l2.26 5.2Z" fill="#4C94C4"/><path d="M22.47 18h-.94c-.01 0-.03.02-.03.04v10.92c0 .02.02.04.03.04h.94c.01 0 .03-.02.03-.04V18.04c0-.02-.02-.04-.03-.04Z" fill="#3136A0"/><path d="M24 24.62c0-.07 0-.1.08-.1h3.86c.06 0 .06.04.06.09V28.92c0 .05.1.08.15.08h1.79c.03 0 .05-.02.05-.05a3186.66 3186.66 0 0 1-.01-3.7 2.2 2.2 0 0 0-.13-.72 1.79 1.79 0 0 0-.83-.88c-.04-.02-.04-.05-.02-.08l.3-.33c.17-.18.28-.3.34-.39.2-.28.35-.63.35-1.04v-1.76c0-.41-.18-.79-.4-1.13-.2-.3-.47-.54-.82-.7a2.6 2.6 0 0 0-1.08-.22h-4.64c-.03 0-.05.02-.05.05v10.9c0 .03.02.05.06.05h.88c.02 0 .06-.02.06-.04v-4.34Zm.03-4.62h3.93c.02 0 .04.02.04.04v2.92c0 .02-.02.04-.04.04h-3.93c-.02 0-.03-.02-.03-.04v-2.92c0-.02.01-.04.03-.04ZM40.2 27.76c.15.35.36.62.64.8.24.17.5.29.76.36.18.04.46.07.83.07h3.76c.8-.03 1.33-.38 1.63-1.06.1-.25.16-.51.17-.79l.01-1.4v-5.53c0-.48-.1-.91-.32-1.32a1.5 1.5 0 0 0-.87-.73c-.26-.1-.52-.15-.76-.15h-3.49a2.48 2.48 0 0 0-1.92.65 1.7 1.7 0 0 0-.53.87c-.07.26-.1.5-.1.7v6.5c0 .38.07.72.2 1.03ZM42.05 20h3.9c.03 0 .05.03.05.06l-.01 6.9c0 .02-.02.05-.05.05l-3.9-.01c-.03 0-.05-.02-.05-.05l.01-6.9c0-.03.02-.05.05-.05Z" fill="#4C94C4"/><path d="M18 34a3 3 0 1 0 0-6 3 3 0 0 0 0 6Z" fill="#E2692E"/><path d="M30 31.06v4.91c0 .03.02.03.05.03h2.88c.04 0 .06.03.06.07v.89c0 .02-.01.04-.04.04h-1.89c-.53 0-.88-.03-1.06-.1a1.52 1.52 0 0 1-.85-.73 1.1 1.1 0 0 1-.14-.52v-3.72c0-.38.02-.64.06-.78.07-.27.2-.5.38-.7.2-.2.43-.34.69-.41.1-.03.36-.04.76-.04l2.02.02c.05 0 .08.02.08.08v.86c0 .03-.02.04-.05.04h-2.89c-.03 0-.06.02-.06.06ZM37.95 36c.03 0 .05-.02.05-.05v-5.9c0-.03 0-.05.04-.05h.88c.05 0 .08.03.08.08v1.69l-.01 3.78c0 .32-.08.6-.22.86-.21.38-.59.58-1.11.58h-2.04c-.35 0-.6-.02-.74-.06a.98.98 0 0 1-.56-.39c-.21-.3-.32-.66-.32-1.1l.02-5.38c0-.03.01-.05.04-.05h.91c.05 0 .03.03.03.08v5.86c0 .03.02.05.05.05h2.9ZM41 31.1v1.7c0 .15.07.2.21.2h2.53c.83 0 1.2.4 1.24 1.23.03.4.02.85 0 1.37-.03.31-.1.58-.2.8-.14.26-.33.44-.58.52-.1.04-.26.06-.49.06-.6.01-1.83.02-3.67.02-.03 0-.04-.01-.04-.04v-.93c0-.03.01-.03.04-.03h3.71c.07 0 .25-.19.25-.26v-1.3c0-.31-.23-.44-.44-.44-.72 0-1.53 0-2.41.02-.15 0-.31-.01-.47-.04-.16-.03-.3-.13-.43-.3-.12-.16-.2-.33-.22-.5-.02-.1-.03-.27-.03-.51v-1.42c0-.6.26-1 .77-1.2.1-.03.26-.05.49-.05a216.04 216.04 0 0 0 3.3.02c.03 0 .05.03.05.07v.86c0 .04-.02.05-.06.05H41.1c-.03 0-.1.08-.1.1Z" fill="#4C94C4"/><path d="M28 31.98c0-.34-.04-.67-.12-.98-.1-.38-.24-.64-.45-.76a2.1 2.1 0 0 0-1.1-.24l-1.89.01c-.33 0-.6.05-.79.14a.93.93 0 0 0-.5.61c-.09.32-.14.63-.14.95v3.56c0 .26.01.52.06.76.07.41.27.7.61.84.18.07.42.12.75.12h2.18c.26 0 .47-.03.63-.08a1 1 0 0 0 .63-.67c.09-.24.13-.58.13-1v-3.26ZM24.05 31h2.9c.03 0 .05.02.05.05v4.9c0 .03-.02.05-.05.05h-2.9a.05.05 0 0 1-.05-.05v-4.9c0-.03.02-.05.05-.05Z" fill="#3136A0"/></svg>