<!-- by TradingView --><svg width="56" height="56" viewBox="0 0 56 56" xmlns="http://www.w3.org/2000/svg"><path fill="#F0F3FA" d="M0 0h56v56H0z"/><path d="M21.4 21.41c-1.72 0-2.68-.92-2.95-1.39 1.7-1.68 5.65-5.31 7.78-6.33a11.05 11.05 0 0 1 5.81-.76c-.19.3-1.04 1.5-2.92 3.9-2.35 2.98-5.6 4.58-7.73 4.58Z" fill="url(#a)"/><path d="M23.08 13.72a11.5 11.5 0 0 0-4.68 6.33 73.26 73.26 0 0 1 5.32-4c2.54-1.77 6.59-2.85 8.3-3.17-.95-.83-5.08-1.79-8.94.84Z" fill="#B57758"/><path d="M19.11 32.33c-.54 1.63-1.7 2.27-2.23 2.38-1.06-2.16-3.24-7.07-3.53-9.42-.29-2.35.61-4.85 1.1-5.8.22.27 1.1 1.46 2.76 4 2.08 3.19 2.57 6.8 1.9 8.84Z" fill="url(#b)"/><path d="M12.38 28.31a11.5 11.5 0 0 0 4.5 6.45 74.1 74.1 0 0 1-2.09-6.33c-.88-2.99-.63-7.2-.4-8.93-1.08.64-3.27 4.29-2 8.81Z" fill="#B57758"/><path d="M28.48 37.76c1.37 1.03 1.6 2.35 1.54 2.89-2.38.32-7.7.85-10 .38a11.1 11.1 0 0 1-5.11-2.89c.33-.13 1.73-.58 4.65-1.36 3.66-.98 7.21-.3 8.92.98Z" fill="url(#c)"/><path d="M22.56 42.91c3.73.18 6.56-1.43 7.5-2.26-1.84.1-3.75.1-6.62 0-3.1-.1-6.98-1.68-8.54-2.46.26 1.25 3 4.5 7.66 4.72Z" fill="#B57758"/><path d="M36.76 30.85c1.4-1 2.71-.8 3.2-.58-.43 2.38-1.57 7.63-2.73 9.7a11.15 11.15 0 0 1-4.3 4c-.03-.36-.02-1.84.14-4.88.21-3.8 1.95-7 3.7-8.24Z" fill="url(#d)"/><path d="M39.8 38.11c1.32-3.51.67-6.72.18-7.88a74.11 74.11 0 0 1-2.05 6.34c-1.06 2.93-3.75 6.17-4.96 7.42 1.25.13 5.17-1.48 6.82-5.88Z" fill="#B57758"/><path d="M32.48 20.65c-.53-1.63.04-2.84.4-3.24 2.12 1.1 6.77 3.76 8.38 5.48a11.24 11.24 0 0 1 2.53 5.33c-.35-.1-1.74-.53-4.58-1.59-3.55-1.32-6.07-3.93-6.73-5.98Z" fill="url(#e)"/><path d="M40.26 19.88a11.37 11.37 0 0 0-7.43-2.51c1.57.99 3.13 2.1 5.42 3.85 2.47 1.88 4.75 5.42 5.58 6.96.5-1.17.11-5.42-3.57-8.3Z" fill="#B57758"/><defs><linearGradient id="a" x1="31.26" y1="14.79" x2="21.43" y2="22.2" gradientUnits="userSpaceOnUse"><stop stop-color="#D8AA7E"/><stop offset="1" stop-color="#BC7B5A"/></linearGradient><linearGradient id="b" x1="15.96" y1="20.82" x2="20" y2="32.49" gradientUnits="userSpaceOnUse"><stop stop-color="#D8AA7E"/><stop offset="1" stop-color="#BC7B5A"/></linearGradient><linearGradient id="c" x1="16.64" y1="37.12" x2="28.92" y2="37.02" gradientUnits="userSpaceOnUse"><stop stop-color="#D8AA7E"/><stop offset="1" stop-color="#BC7B5A"/></linearGradient><linearGradient id="d" x1="32.49" y1="41.99" x2="36.24" y2="30.22" gradientUnits="userSpaceOnUse"><stop stop-color="#D8AA7E"/><stop offset="1" stop-color="#BC7B5A"/></linearGradient><linearGradient id="e" x1="31.56" y1="26.67" x2="33.05" y2="16.73" gradientUnits="userSpaceOnUse"><stop stop-color="#D8AA7E"/><stop offset="1" stop-color="#BC7B5A"/></linearGradient></defs></svg>