<!-- by TradingView --><svg width="56" height="56" viewBox="0 0 56 56" xmlns="http://www.w3.org/2000/svg"><path fill="#F0F3FA" d="M0 0h56v56H0z"/><path d="M20 31.42V30h1v1.15c0 .48.34.85.77.85h1.57c.57 0 .95-.43 1.07-.65l.59.43A1.96 1.96 0 0 1 23.5 33h-2.08c-.78 0-1.42-.7-1.42-1.58ZM10.82 24H9.6c0 .67.36.73.58 1H9v1h2v2H9.26v1H11c-.09.82-.52 2.62-2 3.45.08.25.18.47.23.55.7-.24 1.78-1.1 2.35-2.63A5.59 5.59 0 0 0 14.35 33c.24-.35.53-.9.65-1.13-.7-.31-2.64-1.33-3-2.87h1.97l.32-1H12v-2h1.97l.32-1h-1.37c.22-.27.58-.33.58-1h-1.23c-.03.38-.15.55-.39 1h-.67c-.24-.45-.36-.62-.39-1ZM34 29h5l-.3 1H37v2h3l-.35 1H33v-1h3v-2h-2v-1ZM31 24h1v1h.7l-.32 1H32v2.34c.28-.16.47-.36.7-.52l.31.45c-.35.39-.6.7-1.01 1.04v1.5c.03.55-.48 1.75-2 2.19a5.65 5.65 0 0 0-.32-.55c.3-.13 1.32-.65 1.32-1.63v-1c-.29.17-1.05.61-1.4.77-.23-.39-.5-.9-.6-1.1.65-.27 1.36-.47 2-.77V26h-1.61v-1H31v-1Z" fill="#2F4571"/><path fill-rule="evenodd" d="M9 24H4v.8h1v5.44c-.31.05-.8.1-1 .12.05.2.19.72.31 1.11.99-.15 1.86-.47 2.69-.81V32h1v-1.9c.27-.13.8-.26.97-.36l-.19-.47c-.15.06-.62.11-.78.16v-4.62h.69L9 24Zm-3 6.02c.37-.07.62-.16 1-.25V24.8H6V26h1l-.31.8H6V28h1l-.31.8H6v1.22ZM22 24h5v5h-5v-5Zm1 .5h3v.5h-3v-.5Zm0 1.5h2.55l.45-1v2h-3v-1Zm0 2h2.55l.45-1v1.5h-3V28Z" fill="#2F4571"/><path d="M19 24h-1v1h-1v1h.8a3.19 3.19 0 0 1-1.42 1.94l.35.6A4.48 4.48 0 0 0 18 27.45V29h1v-1.65c.16.21.46.52 1.04 1 .11-.2.27-.33.34-.44A7.43 7.43 0 0 1 19.25 26h.61l.3-1H19v-1ZM19 30.11l-.32-.11A6.36 6.36 0 0 0 16 32.14l1.5.86a8.2 8.2 0 0 1 1.5-2.89ZM21 29.31l.21-.26c1.3-.21 2.22.33 2.79.64-.27.37-.73.98-1 1.31a4.82 4.82 0 0 0-2-1.69ZM25 30.23l.17-.2c1.06-.17 2.3.5 2.83 1-.22.28-.78.72-1 .97a5.59 5.59 0 0 0-2-1.77ZM37.76 26H37c.07 1.24 1.55 2.51 2.2 3 .26-.32.58-.93.8-1.24A5.6 5.6 0 0 1 37.76 26ZM34.73 26H36c-.08 1.38-1.86 2.58-2.73 3a3.1 3.1 0 0 1-.27-.5 4.12 4.12 0 0 0 1.73-2.5ZM36.4 24h-1.31l.34 1H33v1l1-.23v-.27h5v.5l1-.23V25h-3.27l-.34-1ZM47 25.54V24h3.61v2.07c0 .36.41.43.62.43H52l-.16.5h-1.36c-.8 0-.97-.55-.98-.82v-1.7H48v.8c-.01.37-.14 1.25-1.48 1.72-.21-.1-.43-.33-.52-.42.35-.2 1-.68 1-1.04ZM51 28h-4v.7h2.68c-.23 1.12-.71 1.58-.97 1.85-.72-.37-1.04-1.16-1.23-1.55-.07.02-.27.1-.48.2.26.8.74 1.68 1.06 2.01-.36.4-1.52.96-2.06 1.2l.29.59a6.55 6.55 0 0 0 2.52-1.2 6.95 6.95 0 0 0 2.67 1.2c.11-.24.37-.82.52-1.2-.97-.2-1.9-.49-2.39-.72A4.69 4.69 0 0 0 51 28Z" fill="#2F4571"/><path fill-rule="evenodd" d="M42 30.48V24h4v7.06c-.02.45-.45 1.45-1.96 1.94l-.38-.65c.32-.12 1-.55 1-1.29v-1.7l-.22.64h-1v.48c-.12.52-.7 1.76-1.94 2.52a6.4 6.4 0 0 1-.5-.61c.37-.29 1-1.07 1-1.91ZM44.65 25h-1.2v1h1.2v-1Zm0 1.47V29h-1.2v-2h.99l.21-.53Z" fill="#2F4571"/></svg>