<!-- by TradingView --><svg xmlns="http://www.w3.org/2000/svg" width="56" height="56"><path fill="#F0F3FA" d="M0 0h56v56H0z"/><path d="M13 15c0-1.1.9-2 2-2h26a2 2 0 012 2v26a2 2 0 01-2 2H15a2 2 0 01-2-2V15z" fill="url(#ai51ih13l)"/><path d="M16 26v-3c4 0 9 1.9 11 3.5v1c-.8-.4-7-1.5-11-1.5z" fill="url(#bi51ih13l)"/><path d="M27 27.5c-.8-.4-7-1.5-11-1.5v-1.5c2.5 0 6.5.5 11 2.5v.5z" fill="url(#ci51ih13l)"/><path d="M16 29.5v3c4 0 9-1.9 11-3.5v-1c-.8.4-7 1.5-11 1.5z" fill="url(#di51ih13l)"/><path d="M27 28c-.8.4-7 1.5-11 1.5V31c2.5 0 6.5-.5 11-2.5V28z" fill="url(#ei51ih13l)"/><path d="M26.5 25c-.4-1.2-4-8-10.5-8v3c4.5 0 9 3 10.5 5z" fill="url(#fi51ih13l)"/><path d="M16 20c4.5 0 9 3 10.5 5-.9-2.69-6-6.5-10.5-6.5V20z" fill="url(#gi51ih13l)"/><path d="M26.5 31c-.4 1.2-4 8-10.5 8v-3c4.5 0 9-3 10.5-5z" fill="url(#hi51ih13l)"/><path d="M16 36c4.5 0 9-3 10.5-5-.9 2.69-6 6.5-10.5 6.5V36z" fill="url(#ii51ih13l)"/><path d="M40 26v-3c-4 0-9 1.9-11 3.5v1c.8-.4 7-1.5 11-1.5z" fill="url(#ji51ih13l)"/><path d="M29 27.5c.8-.4 7-1.5 11-1.5v-1.5c-2.5 0-6.5.5-11 2.5v.5z" fill="url(#ki51ih13l)"/><path d="M40 29.5v3c-4 0-9-1.9-11-3.5v-1c.8.4 7 1.5 11 1.5z" fill="url(#li51ih13l)"/><path d="M29 28c.8.4 7 1.5 11 1.5V31c-2.5 0-6.5-.5-11-2.5V28z" fill="url(#mi51ih13l)"/><path d="M29.5 25c.4-1.2 4-8 10.5-8v3c-4.5 0-9 3-10.5 5z" fill="url(#ni51ih13l)"/><path d="M40 20c-4.5 0-9 3-10.5 5 .9-2.69 6-6.5 10.5-6.5V20z" fill="url(#oi51ih13l)"/><path d="M29.5 31c.4 1.2 4 8 10.5 8v-3c-4.5 0-9-3-10.5-5z" fill="url(#pi51ih13l)"/><path d="M40 36c-4.5 0-9-3-10.5-5 .9 2.69 6 6.5 10.5 6.5V36z" fill="url(#qi51ih13l)"/><defs><linearGradient id="ai51ih13l" x1="40.5" y1="14.5" x2="15.5" y2="43" gradientUnits="userSpaceOnUse"><stop stop-color="#76C2E4"/><stop offset="1" stop-color="#00699F"/></linearGradient><linearGradient id="bi51ih13l" x1="16.52" y1="23.56" x2="20.02" y2="26.35" gradientUnits="userSpaceOnUse"><stop stop-color="#E3E3E3"/><stop offset="1" stop-color="#fff"/></linearGradient><linearGradient id="ci51ih13l" x1="16" y1="25" x2="27" y2="27" gradientUnits="userSpaceOnUse"><stop stop-color="#fff"/><stop offset=".38" stop-color="#D2D2D3"/><stop offset="1" stop-color="#fff"/></linearGradient><linearGradient id="di51ih13l" x1="16.52" y1="31.94" x2="20.02" y2="29.15" gradientUnits="userSpaceOnUse"><stop stop-color="#E3E3E3"/><stop offset="1" stop-color="#fff"/></linearGradient><linearGradient id="ei51ih13l" x1="16" y1="30.5" x2="27" y2="28.5" gradientUnits="userSpaceOnUse"><stop stop-color="#fff"/><stop offset=".38" stop-color="#D2D2D3"/><stop offset="1" stop-color="#fff"/></linearGradient><linearGradient id="fi51ih13l" x1="16.5" y1="18" x2="24.5" y2="22" gradientUnits="userSpaceOnUse"><stop stop-color="#E6E7E7"/><stop offset="1" stop-color="#fff"/></linearGradient><linearGradient id="gi51ih13l" x1="17" y1="19.5" x2="26" y2="24.5" gradientUnits="userSpaceOnUse"><stop stop-color="#fff"/><stop offset=".39" stop-color="#DCDDDD"/><stop offset="1" stop-color="#fff"/></linearGradient><linearGradient id="hi51ih13l" x1="16.5" y1="38" x2="24.5" y2="34" gradientUnits="userSpaceOnUse"><stop stop-color="#E6E7E7"/><stop offset="1" stop-color="#fff"/></linearGradient><linearGradient id="ii51ih13l" x1="17" y1="36.5" x2="26" y2="31.5" gradientUnits="userSpaceOnUse"><stop stop-color="#fff"/><stop offset=".39" stop-color="#DCDDDD"/><stop offset="1" stop-color="#fff"/></linearGradient><linearGradient id="ji51ih13l" x1="39.48" y1="23.56" x2="35.98" y2="26.35" gradientUnits="userSpaceOnUse"><stop stop-color="#E3E3E3"/><stop offset="1" stop-color="#fff"/></linearGradient><linearGradient id="ki51ih13l" x1="40" y1="25" x2="29" y2="27" gradientUnits="userSpaceOnUse"><stop stop-color="#fff"/><stop offset=".38" stop-color="#D2D2D3"/><stop offset="1" stop-color="#fff"/></linearGradient><linearGradient id="li51ih13l" x1="39.48" y1="31.94" x2="35.98" y2="29.15" gradientUnits="userSpaceOnUse"><stop stop-color="#E3E3E3"/><stop offset="1" stop-color="#fff"/></linearGradient><linearGradient id="mi51ih13l" x1="40" y1="30.5" x2="29" y2="28.5" gradientUnits="userSpaceOnUse"><stop stop-color="#fff"/><stop offset=".38" stop-color="#D2D2D3"/><stop offset="1" stop-color="#fff"/></linearGradient><linearGradient id="ni51ih13l" x1="39.5" y1="18" x2="31.5" y2="22" gradientUnits="userSpaceOnUse"><stop stop-color="#E6E7E7"/><stop offset="1" stop-color="#fff"/></linearGradient><linearGradient id="oi51ih13l" x1="39" y1="19.5" x2="30" y2="24.5" gradientUnits="userSpaceOnUse"><stop stop-color="#fff"/><stop offset=".39" stop-color="#DCDDDD"/><stop offset="1" stop-color="#fff"/></linearGradient><linearGradient id="pi51ih13l" x1="39.5" y1="38" x2="31.5" y2="34" gradientUnits="userSpaceOnUse"><stop stop-color="#E6E7E7"/><stop offset="1" stop-color="#fff"/></linearGradient><linearGradient id="qi51ih13l" x1="39" y1="36.5" x2="30" y2="31.5" gradientUnits="userSpaceOnUse"><stop stop-color="#fff"/><stop offset=".39" stop-color="#DCDDDD"/><stop offset="1" stop-color="#fff"/></linearGradient></defs></svg>