<!-- by TradingView --><svg width="56" height="56" viewBox="0 0 56 56" xmlns="http://www.w3.org/2000/svg"><path fill="#F0F3FA" d="M0 0h56v56H0z"/><path fill-rule="evenodd" d="M31.73 15.23c-1.2-.15-2.45-.23-3.73-.23-11.05 0-20 5.82-20 13 0 4.61 3.7 8.67 9.27 10.97L22 24h2l-4.94 15.63C21.76 40.51 24.8 41 28 41c11.05 0 20-5.82 20-13 0-6.02-6.3-11.08-14.83-12.56L28.5 31H26l-.3-4.2-1.2 4.2H23l2-7h2l.4 5.65 4.33-14.42Zm-8.75 6.27h1.52l-.48 1.5H22.5l.48-1.5ZM13 24h2.5v4.21L17.7 24h2.8l-2.07 7H17l1.4-4.92L15.84 31H14v-5.25L12.5 31H11l2-7Zm20 0h-2l-.5 1.5h2.07L31 31h1.5l1.57-5.5H36l.5-1.5H33Zm5.5 0H37l-2 7h1.5l.86-3h2.5L39 31h1.5l2-7H41l-.86 3h-2.5l.86-3Z" fill="#0A539D"/></svg>