<!-- by TradingView --><svg width="56" height="56" viewBox="0 0 56 56" xmlns="http://www.w3.org/2000/svg"><path fill="#F0F3FA" d="M0 0h56v56H0z"/><path d="M19.65 23.07a1.63 1.63 0 0 0-1.14-.54l-.96-6.78a.2.2 0 0 1 .18-.22L33.98 14c.2-.02.3.25.12.36l-14.45 8.71Zm25.87-.38-5.95.1a1.65 1.65 0 0 0-1.74-1.29h-.05l-1.86-6.72c-.05-.18.17-.32.31-.2l9.41 7.77a.2.2 0 0 1-.12.34Zm-13.37 6.53 4.5-5.1a1.64 1.64 0 0 1 .52-2.42l-1.93-7a.2.2 0 0 0-.28-.12l-14.98 9.04c.06.17.1.36.1.56 0 .15-.03.3-.07.44l9.95 5.1a1.64 1.64 0 0 1 2.2-.5Zm-2.43 1.08a1.64 1.64 0 0 0 1.12 1.9l-.65 11.22c-.02.2-.27.25-.37.09L19.45 25.47c.1-.08.2-.18.28-.28l10 5.1Zm10.82 4.82a.2.2 0 0 0 .27-.23l-2.79-10.1h-.06c-.3 0-.59-.1-.84-.24l-4.5 5.09a1.63 1.63 0 0 1 .25 1.55l7.67 3.93Zm-22.65-12.5c-.55.2-.96.67-1.07 1.26l-7.32.1a.2.2 0 0 1-.14-.32l7.29-7.55a.2.2 0 0 1 .33.1l.9 6.42Zm14.65 9.12c-.27.3-.65.5-1.08.53l-.66 11.52c-.01.17.18.27.3.17l9.8-7.63a.2.2 0 0 0-.02-.33l-8.34-4.26Zm6.1-7.1c.48-.22.84-.67.94-1.21l6.22-.1a.2.2 0 0 1 .19.25l-4.17 11.27a.2.2 0 0 1-.37-.02l-2.81-10.2Zm-21.32.74a1.64 1.64 0 0 1-.5-.87l-7.63.11a.2.2 0 0 0-.18.26l2.9 8.74a.2.2 0 0 0 .35.04l5.06-8.28Zm1.12.44c.15 0 .3-.02.44-.06l5.84 10.14a.2.2 0 0 1-.2.3l-11.74-1.67a.2.2 0 0 1-.13-.3l5.2-8.52c.19.07.38.11.59.11Z" fill="#015AFF"/></svg>