<!-- by TradingView --><svg width="56" height="56" viewBox="0 0 56 56" xmlns="http://www.w3.org/2000/svg"><path fill="#F0F3FA" d="M0 0h56v56H0z"/><path fill-rule="evenodd" d="M16 15h9v26h-9c-3.2 0-4-2.67-4-4V19c0-3.2 2.67-4 4-4Zm1 3h7v1h-5c-.8 0-1 .67-1 1v16c0 .8.67 1 1 1h5v1h-7c-1.6 0-2-1.33-2-2V20c0-2 1.5-2 2-2Zm23-3H27v3h6v1h-6v8.5h6v1h-6V37h6v1h-6v3h13c3.2 0 4-2.67 4-4V19c0-3.2-2.67-4-4-4Zm-6 25V18h6c.67 0 2 .4 2 2v6.73a.5.5 0 0 1-.22.42L40.5 28l1.28.85c.14.1.22.25.22.42V36c0 .67-.4 2-2 2h-4v2h-2Zm2-12.5V19h2c.8 0 1 .67 1 1v7.5h-3Zm0 9.5v-8.5h3V36c0 .8-.67 1-1 1h-2Z" fill="#595656"/></svg>