<!-- by TradingView --><svg width="56" height="56" viewBox="0 0 56 56" xmlns="http://www.w3.org/2000/svg"><path fill="#02ABEF" d="M0 0h56v56H0z"/><path d="M49 33a27.35 27.35 0 0 1-16.6 5.5c-6.21 0-11.91-2-16.4-5.34C19.27 38.44 25.42 42 32.45 42c7.1 0 13.3-3.63 16.55-9Z" fill="#FFFFF2"/><path fill-rule="evenodd" d="M43.5 31a5.5 5.5 0 1 0 0-11 5.5 5.5 0 0 0 0 11Zm0-2a3.5 3.5 0 1 0 0-7 3.5 3.5 0 0 0 0 7ZM20.5 31a5.5 5.5 0 1 0 0-11 5.5 5.5 0 0 0 0 11Zm0-2a3.5 3.5 0 1 0 0-7 3.5 3.5 0 0 0 0 7Z" fill="#FFFFF2"/><path d="M28 20h2v4h4v-4h2v11h-2v-5h-4v5h-2V20ZM6 20h2.02L10 23.99 11.98 20H14l-2.98 6H11v5H9v-5h-.02L6 20Z" fill="#FFFFF2"/></svg>