<!-- by TradingView --><svg width="56" height="56" viewBox="0 0 56 56" xmlns="http://www.w3.org/2000/svg"><path fill="#F0F3FA" d="M0 0h56v56H0z"/><path fill-rule="evenodd" d="M15 28a4 4 0 1 0-8 0 4 4 0 0 0 8 0Zm-1.6 0a2.4 2.4 0 1 0-4.8 0 2.4 2.4 0 0 0 4.8 0Z" fill="#356523"/><path d="M19 27.5s.64 2.5 3.3 2.5H30s.06-1-1.42-1h-5.92s-1.16 0-2.16-1.5c1-1.5 2.16-1.5 2.16-1.5h5.92c1.48 0 1.42-1 1.42-1h-7.7c-2.66 0-3.3 2.5-3.3 2.5Z" fill="#356523"/><path d="M30 27.5s.64 2.5 3.3 2.5H41s.06-1-1.42-1h-5.92S32 29 31.5 27.5C32 26 33.66 26 33.66 26h5.92c1.48 0 1.42-1 1.42-1h-7.7c-2.66 0-3.3 2.5-3.3 2.5Z" fill="#356523"/><path d="M33 27.5s.33-.5 1.05-.5h5.94s.51-.04 1.01.5c-.5.54-1 .5-1 .5h-5.95c-.72 0-1.05-.5-1.05-.5ZM11 21.4V20c-1.12 0-1.4 1-1.4 1A6.68 6.68 0 0 0 4 27.66s1.09-.1 1.53-.96A5.28 5.28 0 0 1 10 22.39s.15 0 .3-.04c.78-.35.7-.94.7-.94ZM18 28.44s-.97-.04-1.56.95a5.41 5.41 0 0 1-4.57 4.1c-.22.05-.87.3-.87 1.45V36c1.22 0 1.4-1.2 1.4-1.2 3.14-.6 5.6-3.22 5.6-6.36ZM42 27.38V30c1.5 0 1.5-1 1.5-1v-1h5c.84 0 1.52 1.25 1.66 1.5l.03.04.04.07c.1.2.21.39.8.39.64 0 .97-.33.97-.33-.24-1.24-1.36-1.84-1.36-1.84C52.05 27.06 52 25 52 25h-7.08C42.38 25 42 27.38 42 27.38ZM45 26h5.64c-.49 1-1.64 1-1.64 1h-5.5c.56-.86 1.5-1 1.5-1Z" fill="#356523"/></svg>