<!-- by TradingView --><svg width="56" height="56" viewBox="0 0 56 56" xmlns="http://www.w3.org/2000/svg"><path fill="#F0F3FA" d="M0 0h56v56H0z"/><path d="m31.26 11.32 3.95 2.05c2.38 3.8 3.65 7.48 2.43 11.89l.01-1.05c0-.32-.13-.4-.4-.25l-.43.23c-.98-5.15-2.6-10.06-8.44-10.18-6-.13-8.55 4.5-9.16 10.26-.77-.73-1.02-.13-.77 1.8-1.28-3-1.33-5.82-.14-8.43.65-1.43 1.89-3.1 3.74-5.03a7.82 7.82 0 0 0 2.53-1.26 16.9 16.9 0 0 1 6.68-.03Z" fill="#0B6DA7"/><path d="M22.05 12.6c-1.85 1.94-3.1 3.61-3.74 5.04-1.19 2.61-1.14 5.43.14 8.44l-.06 6.01c-.63-.13-1.38-.94-2.26-2.42-2.67-7.18-.7-12.87 5.92-17.06ZM35.21 13.37c6.19 4.24 8.83 13.25 3.6 19.06-.29.31-1.19-.03-1.19-.45l.02-6.72c1.22-4.41-.05-8.1-2.43-11.89Z" fill="#085D8A"/><path d="m36.82 24.2-2.42 1.77c-.3-3.13-1.12-6.86-3.9-8.62a4.5 4.5 0 0 0-3.67-.6c-3.85.99-5.05 5.55-5.15 9.26l-2.46-1.74c.61-5.76 3.17-10.4 9.16-10.26 5.85.12 7.46 5.03 8.44 10.18Z" fill="#0E79BC"/><path d="m34.4 25.97-.58 3.15-1.6.85-3.48.18a.66.66 0 0 0-.28.56v1.54a.4.4 0 0 1-.06.2.36.36 0 0 1-.17.15c-.2.09-.37.04-.52-.14a.3.3 0 0 1-.07-.2v-1.43a.67.67 0 0 0-.26-.52l-2.94-2.26a.2.2 0 0 0-.24-.02.23.23 0 0 0-.09.1.24.24 0 0 0-.03.12l.07 1.33c0 .03-.02.05-.05.05h-.24c-.07 0-.1-.04-.1-.12v-1.46a.8.8 0 0 0-.32-.65L21.68 26c.1-3.7 1.3-8.26 5.15-9.25a4.5 4.5 0 0 1 3.66.6c2.8 1.76 3.62 5.49 3.9 8.62Z" fill="#1687C7"/><path d="m34.38 34.92-6.17 4.1a.4.4 0 0 1-.43 0l-5.71-3.76a.8.8 0 0 1-.36-.55c-.1-.62-.06-1.3.13-2.06l5.73 4.01c.31.21.62.2.91-.03a94.69 94.69 0 0 1 4.63-3.38c.93-.63.94-1.2.83-2.18-.01-.07.02-.12.1-.15.1-.03.14 0 .14.1l.2 3.9Z" fill="#085D8A"/><path d="M31.26 11.32a17.05 17.05 0 0 1 12.54 10.4 17.03 17.03 0 0 1-5.75 19.99 17 17 0 1 1-13.47-30.36c-.8.59-1.65 1-2.53 1.26-6.62 4.19-8.6 9.88-5.92 17.06A9.8 9.8 0 0 0 18 31.99v-5.91c0-1.8.45-2.54 1.22-1.8L21.68 26l1.76 1.4c.2.16.31.38.31.64v1.46c0 .08.04.12.11.12h.24l.03-.01.02-.04-.07-1.33a.24.24 0 0 1 .12-.22.2.2 0 0 1 .23.02l2.95 2.26a.64.64 0 0 1 .23.35c.02.06.03.11.03.17v1.43c0 .08.02.15.07.2.15.18.32.23.52.14a.35.35 0 0 0 .17-.14.4.4 0 0 0 .06-.21V30.7c0-.23.1-.42.28-.56l2.57-1.85.78-.58c-.05.07 0 1.9 0 1.9l.38-.07V28.3s-.08-.38-.03-.58c.05-.2.16-.37.32-.5l1.64-1.25 2.8-2.1.42-.23c.28-.15.39-.06.38.26v8c0 .43.14.48.42.17 5.24-5.81 2.98-14.46-3.2-18.7l-3.96-2.05Zm-9.42 21.33a5.14 5.14 0 0 0-.13 2.06.8.8 0 0 0 .36.55l5.71 3.76a.39.39 0 0 0 .43 0l6.17-4.1-.14-2.46a147 147 0 0 0-5.76 4.17c-.3.23-.6.24-.9.03l-5.74-4Z" fill="url(#a)"/><defs><linearGradient id="a" x1="28" y1="11.32" x2="28" y2="45" gradientUnits="userSpaceOnUse"><stop offset=".34" stop-color="#F4D364"/><stop offset="1" stop-color="#D29118"/></linearGradient></defs></svg>