<!-- by TradingView --><svg width="56" height="56" viewBox="0 0 56 56" xmlns="http://www.w3.org/2000/svg"><path fill="#F0F3FA" d="M0 0h56v56H0z"/><path d="M27.9 13c3.43-.03 6.68.9 9.77 2.8a21.3 21.3 0 0 1 7.14 7.25c.25.42.22.8-.1 1.16-.22.25-.43.35-.64.3a1.76 1.76 0 0 1-.65-.4 25.15 25.15 0 0 0-7.21-4.45 21.72 21.72 0 0 0-16.48.16 25.11 25.11 0 0 0-7.13 4.58c-.28.25-.49.39-.63.42-.2.05-.42-.05-.65-.29-.32-.35-.36-.73-.12-1.16a21.3 21.3 0 0 1 7-7.38A17.97 17.97 0 0 1 27.9 13ZM44.2 27a.3.3 0 0 1 .1.02c.45.16.69.47.7.94a1 1 0 0 1-.6.98.57.57 0 0 1-.25.06 118 118 0 0 0-3.9.02c-.53.01-.94.27-1.26.78-.27.44-.4.92-.4 1.46v7a.7.7 0 0 1-.24.53.78.78 0 0 1-.56.21h-.05a.8.8 0 0 1-.56-.23.71.71 0 0 1-.23-.53v-7.73a8.29 8.29 0 0 1 .34-1.3A3.7 3.7 0 0 1 40.02 27h4.18Zm-.1 5c.5 0 .9.4.9.88v.25c0 .49-.4.88-.9.88h-3.2c-.5 0-.9-.4-.9-.89v-.24c0-.49.4-.88.9-.88h3.2ZM17.54 34.04c.37-.22.7-.12 1.03.31a550.01 550.01 0 0 0 1.43 1.9c.66.8.99 1.34 1 1.6 0 .48-.16.82-.51 1.03-.37.23-.7.13-1.03-.3a337.49 337.49 0 0 0-1.45-1.9c-.64-.81-.97-1.35-.97-1.6-.01-.48.15-.82.5-1.04Zm-5.62-6.96c.24.01.43.11.57.3l3.82 5.12c.07.1.11.27.1.52 0 .25-.03.42-.1.52-.7.96-1.98 2.66-3.82 5.11a.73.73 0 0 1-.57.3.73.73 0 0 1-.6-.25l-.03-.03a1.05 1.05 0 0 1-.07-1.37 248.64 248.64 0 0 1 3.2-4.23.58.58 0 0 1 0-.1v-.01h-.03c-.95-1.24-2-2.65-3.17-4.23a1.06 1.06 0 0 1-.21-.7c.01-.26.1-.48.28-.67l.03-.04a.73.73 0 0 1 .6-.24Zm7.53.35c.31-.43.66-.54 1.03-.32.35.22.53.56.52 1.04 0 .26-.33.8-.97 1.62l-.26.33c-.66.9-1.06 1.43-1.2 1.6-.31.44-.66.55-1.03.32-.35-.21-.53-.56-.52-1.03 0-.27.34-.81.99-1.64l.24-.31 1.2-1.6ZM30.53 34.04c.37-.23.71-.13 1.03.3a413.52 413.52 0 0 0 1.44 1.9c.66.81.99 1.35 1 1.61 0 .48-.16.82-.51 1.03-.37.23-.71.13-1.03-.3a630.05 630.05 0 0 0-1.45-1.91c-.65-.8-.97-1.34-.98-1.6-.01-.47.16-.82.5-1.03Zm-5.6-6.97c.24.01.43.11.57.3l3.82 5.13c.07.1.1.27.1.52s-.03.43-.1.52l-3.83 5.12a.72.72 0 0 1-.57.3.73.73 0 0 1-.6-.24l-.03-.03c-.18-.2-.27-.42-.29-.68-.01-.26.06-.49.21-.7a257.6 257.6 0 0 1 3.2-4.23v-.12c0 .02 0 .02-.01 0-.96-1.23-2.01-2.65-3.18-4.23a1.06 1.06 0 0 1-.21-.7c.01-.26.1-.49.29-.68l.03-.03a.72.72 0 0 1 .6-.25Zm7.52.36c.32-.44.66-.54 1.03-.31.36.2.53.55.52 1.03 0 .26-.33.8-.98 1.62l-.25.33-1.2 1.6c-.32.44-.66.54-1.03.32-.35-.22-.53-.56-.52-1.04 0-.26.34-.8 1-1.63a29.79 29.79 0 0 0 1.43-1.92Z" fill="#EF8200"/></svg>