<!-- by TradingView --><svg width="56" height="56" viewBox="0 0 56 56" xmlns="http://www.w3.org/2000/svg"><path fill="#F0F3FA" d="M0 0h56v56H0z"/><path d="M8.82 31c-3.68 0-4.03-1.94-3.74-2.91H8c-.09.88.58 1.21 1.28 1.21.7 0 1.65-.25 1.65-.79s-.93-.7-1.35-.86c-.41-.16-3.74-.66-3.36-2.59C6.6 23.14 8.06 22 11.28 22c2.57 0 3.16 1.82 3.13 2.74h-2.94c-.21-.56-.53-.89-1.04-.89s-1.14.23-1.14.75.57.68 2.38.98c1.82.31 2.35 1.47 2.35 2.07 0 .6-.6 3.35-5.2 3.35ZM21.08 22 19 31h2.8l1.16-4.7L25 31h2.72L30 22h-2.77l-1.4 4.8L24 22h-2.9ZM39.15 27.7h-2.68c-.63.95-1.32 1.44-2.16 1.44-.84 0-1.53-1-1.4-2.22.14-1.22 1.37-2.9 2.66-2.9 1.03 0 1.45.89 1.53 1.33h2.66c.18-1.1-.6-3.35-3.53-3.35-2.92 0-5.55 1.95-6 4.03-.45 2.08-.21 4.97 3.5 4.97 2.97 0 4.79-1.62 5.42-3.3Z" fill="#0077C6"/><path fill-rule="evenodd" d="M50.63 24.9c.61-.5 1.72-1.78 1.26-2.87-.58-1.37-5 .08-7.92 2.58-2.34 2-3.19 3.95-3.32 4.67.46.6 2.08 1.72 3.95 1.72 2.34 0 5.63-1.67 5.63-4.94 0-1.5-.75-2.67-1.13-3.06.44-.22 1.4-.56 1.69-.22.36.43.25 1.4-.16 2.12Zm-5.74 3.85c1.21 0 2.95-.93 2.95-2.62-.01-.51-.45-1.53-2.13-1.53-2.11 0-2.64 1.88-2.64 2.56 0 .7.3 1.6 1.82 1.6Z" fill="#0077C6"/><path d="M46.42 22.19c-3.18 1.37-5.38 4.84-6.08 6.4a6.3 6.3 0 0 1 1.15-4.68c2.09-2.18 4.15-2.06 4.93-1.72ZM15.99 32.1l-.55-8.42c-.03-.9.43-2.68 2.47-2.68s1.92 1.44 1.6 2.17L16 32.1Zm-.19.57c-.12.29-.5.98-1.05 1.46-.68.6-1.05.97-1.05 1.52 0 .54.21 1.35 1.45 1.35 1.23 0 1.55-.95 1.55-1.68 0-.37-.23-.86-.45-1.35a3.74 3.74 0 0 1-.45-1.3Z" fill="#ACCE22"/></svg>