<!-- by TradingView --><svg width="56" height="56" viewBox="0 0 56 56" xmlns="http://www.w3.org/2000/svg"><path fill="#F0F3FA" d="M0 0h56v56H0z"/><path d="M30.94 16.7c.03 0 .04-.01.05-.03.4-.65.94-1.2 1.6-1.62.13-.09.17-.06.11.09-.33.9-.52 1.86-.55 2.85 0 .04-.03.06-.07.06a64.51 64.51 0 0 0-8.2.03 41.33 41.33 0 0 0-4.32.5v-.01a23.67 23.67 0 0 1 6.24-1.21c.06-.01.12-.03.17-.07l.44-.33c.07-.05.2-.1.4-.13 1.36-.26 2.74-.3 4.13-.14Z" fill="#F9441E"/><path d="M41.98 25.06h.03l1.05-.7a.08.08 0 0 0 .04-.07l-.06-1.3c0-.06-.03-.09-.09-.1h-.08c-.19-.01-.32-.06-.4-.13a22.37 22.37 0 0 0-6.5-3.9c-.76-.28-1.48-.5-2.16-.66a.06.06 0 0 1-.05-.06c-.04-.24-.03-.46.02-.67.01-.05.04-.07.1-.05.4.1.77.2 1.11.33a22.5 22.5 0 0 1 7.55 4.57c.08.06.16.1.25.12l.48.1a.1.1 0 0 1 .06.05.5.5 0 0 1 .09.26c.03.36.05.91.07 1.66 0 .02 0 .04-.03.05l-1.45.96a.04.04 0 0 1-.05 0c-.2-.13-.4-.3-.54-.5-.02-.03-.02-.05 0-.07.06-.1.14-.13.23-.1.06.01.14.06.25.15l.08.06ZM34.69 20.41c-.36.07-.65.1-.88.11a.87.87 0 0 1-.53-.17 15.94 15.94 0 0 0-.77-.53l.01-.03c.62-.3 1.2-.23 1.74.2a8.88 8.88 0 0 1 .45.4l-.02.02ZM22.19 20.14v-.03a332.53 332.53 0 0 1-3.93-.05c-.1 0-.1-.02 0-.04 1.28-.23 2.62-.35 4-.37a69.1 69.1 0 0 1 3.18.04v.04l-.53.78a.1.1 0 0 1-.1.06h-2.85c-.1 0-.11-.04-.05-.11l.28-.32ZM20.98 21.83h-3.93s-.01 0 0 0v-.02c0-.03 0-.04.02-.04 1-.17 2.04-.28 3.11-.33 1.32-.06 2.68-.07 4.08-.02.03 0 .04.02.02.04l-.63.95a.07.07 0 0 1-.07.03h-3c-.01 0-.02 0-.03-.02v-.03l.45-.51v-.03a.02.02 0 0 0-.02-.02Z" fill="#171C8E"/><path d="M33.71 27.82c.1 0 .1-.01.01-.05-.42-.19-.83-.4-1.22-.65a3.38 3.38 0 0 1-1.42-1.77c-.25-.7-.3-1.47-.13-2.3 0-.02.02-.04.04-.04h.06c.44.3.85.54 1.23.74.85.43 1.6.56 2.25.4.11-.03.33-.13.65-.28.92-.46 1.9-.58 2.93-.38.53.1 1.08.26 1.65.47.4.15.96.38 1.65.7.1.04.15.14.15.29-.07.1-.15.14-.24.1-.8-.37-1.47-.64-2-.83a7 7 0 0 0-1.72-.39 3 3 0 0 0-1.78.37c-.46.26-.82.45-1.08.57-.64.3-1.21.39-1.72.27a2.97 2.97 0 0 1-1.55-1.03c-.03-.03-.05-.03-.05.02-.02.95.35 1.71 1.11 2.28.43.3.83.54 1.23.71.57.25.96.43 1.16.54a4.23 4.23 0 0 1 1.73 1.86c.04.1.08.2.09.3 0 .02 0 .03-.04.03H36a.12.12 0 0 1-.1-.05 2.67 2.67 0 0 0-2.86-1.13c-.48.08-.9.31-1.29.7-.7.68-.99 1.52-.87 2.5s.6 1.72 1.43 2.22c.4.23.84.35 1.33.34a2.63 2.63 0 0 0 2.18-1.1c.05-.06.1-.09.18-.09h.62c.07 0 .09.03.05.1-.6 1-1.43 1.57-2.5 1.72a3.6 3.6 0 0 1-2.73-.72 3.62 3.62 0 0 1-1.3-2.52 3.53 3.53 0 0 1 1.1-2.93 3.3 3.3 0 0 1 2.47-.97ZM19.53 23.86a.04.04 0 0 0 0-.05.04.04 0 0 0-.03-.02h-3.81c-.02 0-.03-.01-.03-.03v-.03l1.2-.15c.4-.05.8-.1 1.19-.12a47.72 47.72 0 0 1 5.03-.06v.04l-.53.94a.13.13 0 0 1-.13.07h-3.27a.05.05 0 0 1-.05-.03.06.06 0 0 1 .01-.07l.42-.49ZM18.14 25.97v-.04a266.25 266.25 0 0 0-3.93-.05c-.1-.01-.1-.03 0-.04 2.52-.35 5.09-.47 7.7-.35.05 0 .06.02.04.05l-.64 1.2a.06.06 0 0 1-.06.03h-3.59c-.02 0-.03 0-.03-.02 0-.04.02-.07.04-.1l.47-.68ZM12.92 27.6h7.94l.03.01v.04l-.65 1.38c0 .01-.01.02-.03.02h-4.03c-.01 0-.02 0-.03-.02V29l.5-.73v-.03a.03.03 0 0 0-.03-.02l-4.02-.07-.03-.01v-.04l.32-.48.03-.01ZM12 33.05v1.9c0 .03-.02.05-.05.05h-4.9c-.03 0-.05-.02-.05-.05v-6.9c0-.03.02-.05.05-.05h.93c.03 0 .02.02.02.05v4.91c0 .03.04.04.07.04h3.88c.03 0 .05.02.05.05Z" fill="#171C8E"/><path d="M39.03 28h3.44c.02 0 .03.01.03.03v1.94c0 .02-.01.03-.03.03h-3.44c-.02 0-.03-.01-.03-.03v-1.94c0-.02.01-.03.03-.03Zm.01 7h3.4c.02 0 .04-.01.04-.04v-2.88c0-.03.01-.08.04-.08h4.44c.03 0 .04.06.04.08v2.88c0 .03.01.04.04.04h.92c.03 0 .04-.01.04-.04v-6.92c0-.02-.01-.04-.04-.04h-.92c-.03 0-.04.02-.04.04v2.92c0 .03-.01.04-.04.04h-7.92c-.03 0-.04.02-.04.04v3.92c0 .03.01.04.04.04ZM19.91 33.31h-3.23c-.02 0-.04-.01-.04-.04v-1.26l.02-.01h5.3c.02 0 .03 0 .03.02a3.1 3.1 0 0 0 1.39 2.33 3.67 3.67 0 0 0 4.62-.37c.56-.56.89-1.24.97-2.05a3.37 3.37 0 0 0-1.39-3.25 3.29 3.29 0 0 0-1.62-.65 3.47 3.47 0 0 0-3.88 2.57c0 .04-.04.06-.08.06h-8.98c-.01 0-.02.01-.02.03v4.26c0 .02 0 .05.03.05h6.9c.02 0 .07-.03.07-.05v-1.59c0-.03-.05-.05-.09-.05Zm5.54 1.24c-1.56-.01-2.81-1.39-2.8-3.08.02-1.68 1.3-3.04 2.85-3.02 1.56.01 2.81 1.39 2.8 3.08-.01 1.68-1.29 3.04-2.85 3.02Z" fill="#171C8E"/></svg>