<!-- by TradingView --><svg width="56" height="56" viewBox="0 0 56 56" xmlns="http://www.w3.org/2000/svg"><path fill="#F0F3FA" d="M0 0h56v56H0z"/><path d="M18.66 13.8a4.98 4.98 0 0 0 4.34 1l-9.11 22.68a16.98 16.98 0 0 1 4.77-23.68ZM16.02 40.06a17 17 0 0 0 28.4-7.64C39.92 38.06 35.49 41 32.83 41c-2.75 0-3.33-2.7-3.33-4.5 0-1.03.34-3.36.63-5.36.22-1.5.41-2.8.41-3.22 0-1-.5-1.92-1.83-1.92-2.99 0-9.37 8.89-12.69 14.06Z" fill="#561706"/><path d="M22 12c1.62.37 4.17.9 5.54.04L19 33c1.72-2.93 6.43-9 10.46-9 3.46 0 4.54 1.88 4.54 4.33 0 1.37-.47 2.87-.78 4.21-.25 1.08-.47 2.05-.47 2.75 0 1.59 1 2.63 1.96 2.63h.01c.94 0 2.47 0 10.24-8.79A17 17 0 0 0 28 11c-2.2 0-4.07.24-6 1Z" fill="#F8B300"/></svg>