<!-- by TradingView --><svg width="56" height="56" viewBox="0 0 56 56" xmlns="http://www.w3.org/2000/svg"><path fill="#F0F3FA" d="M0 0h56v56H0z"/><path d="M38.19 37.17a5.43 5.43 0 0 0-2.36-2.48.05.05 0 0 1 .02-.05c1-.74 1.77-1.71 2.28-2.9.59-1.36.87-2.68.84-3.96a8.06 8.06 0 0 0-2.34-5.67c-1.47-1.5-3.24-2.7-5.3-2.96-.52-.07-1.59-.15-3.2-.15H13s0-3.08.03-3.4c.01-.27.02-.49.11-.74.48-1.24 1.4-1.86 2.8-1.86h23.3c.88 0 1.42.02 1.63.07 1.32.3 2.13 1.46 2.13 2.82v24.16c0 1.6-1.02 2.85-2.62 2.95a.16.16 0 0 1-.16-.12 26.23 26.23 0 0 0-2.03-5.71Z" fill="#F08619"/><path d="M19.44 37h7.22c1.32 0 2.87.16 4.05.8a5.04 5.04 0 0 1 2.46 2.8 52.18 52.18 0 0 1 .83 2.33.09.09 0 0 1-.09.07h-17.6a4.7 4.7 0 0 1-1.65-.2 2.66 2.66 0 0 1-1.45-1.44c-.14-.32-.21-.88-.21-1.67V27.65c0-.69.26-1.3.77-1.83.5-.52 1.13-.82 1.9-.82H30.1a3.13 3.13 0 0 1 3.11 2.47c.34 1.67-.49 2.85-2.13 3.38-.37.12-.87.15-1.5.15h-10.1c-.33 0-.47.2-.47.53v4.72c0 .33 0 .75.44.75Z" fill="#E6212A"/></svg>