<!-- by TradingView --><svg width="56" height="56" viewBox="0 0 56 56" xmlns="http://www.w3.org/2000/svg"><path fill="#F0F3FA" d="M0 0h56v56H0z"/><path d="M16.7 13.98A37.2 37.2 0 0 1 28 12c1.97 0 6.94.4 11.3 1.98l.56.2.1.59C40.3 16.87 41 22 41 25.76c0 2.31-.1 5.46-1.76 8.73-1.68 3.28-4.87 6.56-10.82 9.32L28 44l-.42-.2c-5.95-2.75-9.14-6.03-10.82-9.31C15.1 31.22 15 28.07 15 25.76c0-3.75.7-8.9 1.04-11l.1-.57.55-.2Z" fill="url(#a)"/><path d="M16 25.8c0 4.6.4 11.81 12 17.2 11.6-5.39 12-12.6 12-17.2 0-3.68-.69-8.78-1.03-10.87A36.1 36.1 0 0 0 28 13c-1.9 0-6.74.39-10.97 1.93-.34 2.1-1.03 7.2-1.03 10.87Z" fill="url(#b)"/><path d="M35.4 26.57c0 .1.01.23.04.27.04.05.1.07.19.08h.02V27h-.63v-.08h.02c.09 0 .15-.03.18-.08.04-.04.05-.16.05-.27V25.3a1.24 1.24 0 0 0-.15-.16c-.04-.03-.08-.05-.11-.05H35V25h.62l1 1.24v-.86c0-.1-.01-.18-.05-.22-.03-.05-.1-.07-.18-.08h-.03V25H37v.08h-.03c-.08 0-.14.03-.18.08-.03.04-.05.12-.05.22V27h-.07l-1.28-1.57v1.14Z" fill="#860245"/><path d="M34 27a.97.97 0 0 1-1-1 .97.97 0 0 1 1-1 .97.97 0 0 1 1 1 .97.97 0 0 1-1 1Zm0-.12c.16 0 .3-.07.38-.23.1-.15.14-.37.14-.65s-.05-.5-.14-.65c-.09-.16-.22-.23-.38-.23s-.3.07-.38.23c-.1.15-.14.37-.14.65s.05.5.14.65c.09.16.22.23.38.23ZM31.76 26.68v-1.36c0-.09-.01-.15-.05-.18-.03-.04-.1-.06-.18-.06h-.03V25h1v.08h-.03c-.08 0-.14.02-.18.06-.04.03-.05.1-.05.18v1.36c0 .09.01.15.05.18.04.04.1.06.18.06h.03V27h-1v-.08h.03c.08 0 .15-.02.18-.06.04-.03.05-.1.05-.18ZM29.73 26.68v-1.56h-.01a.66.66 0 0 0-.43.13c-.1.08-.16.2-.18.37H29V25h2v.62h-.1a.54.54 0 0 0-.18-.37.66.66 0 0 0-.43-.13h-.02v1.56c0 .09.02.15.06.18.04.04.11.06.21.06h.03V27h-1.13v-.08h.03c.1 0 .17-.02.2-.06.04-.03.06-.1.06-.18ZM27.23 26.69l.7-1.69h.09l.73 1.69.11.18c.04.03.08.05.13.05H29V27h-.95v-.08h.03c.08 0 .14-.02.17-.06.03-.04.02-.1-.01-.17l-.1-.26h-.66l-.1.26c-.03.07-.03.12 0 .16.03.03.1.06.2.07h.03V27H27v-.08h.01c.05 0 .09-.03.12-.06s.07-.1.1-.17Zm.57-1.05-.26.66h.54l-.28-.66ZM27 26.6c-.12.14-.25.24-.4.3-.15.07-.31.1-.5.1-.32 0-.58-.1-.79-.28A.93.93 0 0 1 25 26c0-.29.1-.53.31-.72.21-.19.47-.28.79-.28.2 0 .38.04.54.1.05.03.1.03.14.02.04-.02.06-.05.08-.1V25h.09v.7h-.09a.87.87 0 0 0-.28-.43.68.68 0 0 0-.43-.15c-.2 0-.34.07-.45.22-.1.16-.16.37-.16.64 0 .28.05.5.16.64.1.15.26.23.45.23a.99.99 0 0 0 .75-.33l.1.08ZM24.76 26.24c0 .25-.07.44-.2.57-.12.13-.3.19-.55.19-.25 0-.44-.06-.56-.17-.13-.12-.2-.29-.2-.51v-1c0-.1 0-.15-.04-.18-.04-.04-.1-.06-.18-.06H23V25h.98v.08h-.03c-.08 0-.14.02-.18.06-.03.03-.05.09-.05.17v1.04c0 .16.03.29.1.37.08.09.18.13.31.13.17 0 .3-.05.38-.16.09-.1.13-.26.13-.47v-.84c0-.1-.02-.18-.05-.22-.04-.05-.1-.07-.18-.08h-.03V25H25v.08h-.02c-.08 0-.14.03-.17.08-.04.04-.05.12-.05.22v.86ZM21.27 26.68v-1.36c0-.09-.02-.15-.06-.18-.03-.04-.1-.06-.18-.06H21V25h.97c.33 0 .58.09.76.26.18.18.27.43.27.74s-.1.56-.3.74c-.2.17-.46.26-.82.26h-.87v-.08h.02c.09 0 .15-.02.18-.06.04-.03.06-.1.06-.18Zm.48.04c0 .06 0 .1.03.13.02.02.07.03.13.03.2-.01.34-.08.44-.21.1-.15.15-.37.15-.67 0-.29-.05-.5-.15-.66a.49.49 0 0 0-.43-.22c-.07 0-.12.01-.14.03-.02.03-.03.07-.03.14v1.43ZM19 27v-.08h.03c.1 0 .16-.02.2-.06.04-.03.06-.1.06-.18v-1.36c0-.09-.02-.15-.06-.18-.04-.04-.1-.06-.2-.06H19V25h1.85v.6h-.1c-.03-.19-.1-.32-.2-.38-.1-.07-.28-.1-.54-.1H20c-.07 0-.12.01-.15.03-.02.03-.03.07-.03.14v.63h.04c.15 0 .26-.03.32-.09.07-.06.11-.17.15-.34h.09v1h-.1c-.03-.19-.08-.3-.14-.37-.06-.06-.17-.09-.32-.09h-.04v.64c0 .09.01.14.05.17.03.03.09.04.18.04.24 0 .41-.03.53-.1.12-.07.24-.2.35-.4H21l-.07.31-.07.31h-1.85ZM33 22.56v-6.12c0-.6-.25-1.06-.9-1.06H32V15h3.09c1.9 0 2.91.86 2.91 2.5 0 1.64-1 2.5-2.91 2.5h-.5v2.56c0 .6.18 1.06.84 1.06h.1V24H32v-.38h.09c.66 0 .9-.47.9-1.06Zm1.6-3.1h.49c1.06 0 1.16-1.13 1.16-1.96 0-1.3-.38-1.96-1.16-1.96-.2 0-.33.05-.4.13-.06.09-.1.26-.1.51v3.28ZM28.5 24c-2.35 0-3.5-2.44-3.5-4.5 0-2.05 1.14-4.5 3.5-4.5 2.36 0 3.5 2.44 3.5 4.5S30.85 24 28.5 24Zm0-.52c1.5 0 1.5-2.82 1.5-3.98 0-1.16 0-3.98-1.5-3.98S27 18.35 27 19.5c0 1.16 0 3.98 1.5 3.98ZM21 22.56v-7.02c-1.1 0-1.55.74-1.68 2.25H19V15h6v2.79h-.29c-.12-1.5-.6-2.25-1.71-2.25v7.02c0 .58-.03 1.06.62 1.06h.1V24h-3.39v-.38h.1c.63 0 .57-.5.57-1.06ZM21 34h14v4H21z" fill="#860245"/><path d="M22 36.27c.05.06.16.3.13.73l5.27-.5c.1.16.36.47.58.5h.04c.22-.03.48-.34.58-.5l5.27.5c-.03-.43.08-.67.13-.73l-3.5-2.2-2.5 1.61-2.5-1.6-3.5 2.19Z" fill="url(#c)"/><path d="M28 33.77v1.96c-.1-.1-.6-.3-1.78-.3-1.18 0-3.3.56-4.22.84l.5-2.23A5.09 5.09 0 0 1 25.62 33c1.57 0 2.23.51 2.37.77Z" fill="url(#d)"/><path d="M28 33.77v1.96c.1-.1.6-.3 1.78-.3 1.18 0 3.3.56 4.22.84l-.49-2.23A5.09 5.09 0 0 0 30.37 33c-1.57 0-2.23.51-2.37.77Z" fill="url(#e)"/><path d="m17.32 29 2.31-1 2.31 1h.95l2.31-1 2.31 1h.95l2.3-1 2.32 1h.95l2.3-1 2.32 1h1.2c-.1.77-.17 1.2-.36 2H16.52c-.2-.83-.28-1.2-.36-2h1.16Z" fill="url(#f)"/><path d="M11.38 21.77a1.06 1.06 0 0 1-.28-.37 1.04 1.04 0 0 1-.08-.45.97.97 0 0 1 .3-.7c.2-.18.43-.26.7-.25.29.01.51.12.69.31.18.2.26.44.25.72 0 .18-.05.34-.12.48-.03.05-.03.09-.02.12.01.04.04.06.09.08h.02v.08l-.67-.02v-.08a.85.85 0 0 0 .42-.23c.1-.11.16-.24.16-.4a.46.46 0 0 0-.2-.4c-.15-.1-.35-.16-.62-.17-.26-.01-.47.02-.62.11a.45.45 0 0 0-.24.4c0 .13.02.25.06.36.05.1.13.22.23.33l-.07.08Zm-.06.45 1.6.7V23l-1.62.7a.57.57 0 0 0-.17.1.16.16 0 0 0-.05.13v.01H11v-.46l.01-.47h.08v.03c0 .09.02.14.05.17.04.03.1.02.17 0l.24-.11v-.63l-.24-.1c-.06-.03-.12-.03-.15 0s-.06.09-.07.19v.03h-.08v-.3l.01-.3h.08v.02c0 .04.02.08.05.11.03.04.09.07.17.1Zm.99.56-.63-.26v.53l.63-.27Zm-1 1.55 1.26-.02c.08 0 .14-.02.17-.05.03-.04.05-.1.05-.19v-.02h.08v.86c.01.26-.03.46-.11.6a.43.43 0 0 1-.39.21.43.43 0 0 1-.39-.2 1.13 1.13 0 0 1-.14-.6v-.14l-.53.01c-.08 0-.14.02-.17.06-.03.03-.05.1-.05.18v.02h-.08v-.48l-.01-.5h.08v.03c0 .09.02.15.05.18.03.03.1.05.17.05Zm.64.45v.14c0 .12.04.2.1.25.07.05.17.07.32.07.13 0 .23-.03.3-.09.07-.05.1-.13.1-.24 0-.06-.01-.1-.03-.11-.02-.02-.06-.03-.1-.03l-.69.01Zm-.62 1.28 1.65.57v.07l-1.56.84a.58.58 0 0 0-.16.11.17.17 0 0 0-.04.13l-.08.01-.03-.46-.03-.46h.08v.02c0 .09.03.14.07.17.04.02.09.01.16-.02l.24-.13-.04-.63-.25-.08c-.07-.02-.13-.01-.16.02s-.05.1-.05.19v.03h-.08l-.02-.29-.02-.3h.08v.01c0 .05.03.08.07.11.03.03.09.06.17.09Zm1.03.48-.65-.21.04.52.6-.31Zm-.9 1.62 1.26-.15c.08-.01.13-.04.16-.07.03-.04.04-.1.03-.19v-.03h.07l.06.48.04.36c.02.25 0 .44-.06.59-.06.15-.17.23-.3.24-.15.02-.26-.04-.36-.16a.77.77 0 0 1-.1-.2.86.86 0 0 1-.08.29.43.43 0 0 1-.35.27.42.42 0 0 1-.4-.18c-.1-.13-.18-.32-.2-.58l-.05-.41-.05-.49h.08v.02c0 .09.03.14.07.17.03.03.1.04.17.04Zm1.33.3-.55.07v.04c.02.13.06.23.12.28.06.06.15.08.27.07.12-.02.21-.05.27-.11.05-.05.07-.11.07-.2 0-.07-.02-.1-.04-.13-.03-.02-.07-.02-.14-.02Zm-.65.08-.66.08c-.07 0-.1.02-.13.04-.02.03-.02.07-.01.13v.03c.01.11.05.2.12.24.07.05.17.06.3.05.15-.02.26-.07.32-.16.06-.08.08-.2.06-.36v-.05Zm-.47 1.53 1.26-.2c.08 0 .13-.03.16-.07.03-.04.03-.1.02-.19v-.02l.08-.02.07.49.07.48-.08.02v-.03c-.02-.08-.04-.14-.08-.17s-.1-.04-.18-.03l-1.25.2c-.08.01-.14.04-.16.08-.03.04-.04.1-.03.18v.03l-.07.01-.07-.48-.07-.49h.08v.02c.01.08.04.14.08.17.03.03.1.03.17.02Zm-.18.93.08-.02v.03c.02.08.05.14.09.16.04.03.1.04.18.02l1.24-.26c.08-.02.13-.05.16-.1.02-.03.03-.1.01-.18v-.02l.07-.02.1.48.1.48-.09.02v-.03c-.02-.08-.04-.14-.08-.17-.04-.02-.1-.03-.18-.01l-1.28.27c-.06.01-.1.03-.12.06v.13c.04.23.11.38.2.48.1.09.26.15.5.2v.07h-.66l-.18-.88-.14-.71Zm.75 2.05 1.23-.34c.07-.03.12-.06.15-.1.02-.04.02-.1 0-.19v-.02l.07-.03.12.48.13.47-.08.02v-.03c-.03-.08-.06-.13-.1-.15-.04-.03-.1-.03-.18 0l-1.22.34c-.08.02-.13.05-.15.1-.03.04-.03.1 0 .18v.03l-.08.02-.12-.47-.12-.47.07-.03v.03c.03.08.06.13.1.16.04.02.1.03.18 0Zm.45 1.42 1.34-.6c-.07-.15-.15-.25-.25-.3-.1-.04-.23-.04-.38 0l-.04-.08.27-.12.26-.12.33.8.33.78-.27.12-.27.12-.03-.08a.55.55 0 0 0 .26-.29.54.54 0 0 0-.03-.38v-.02l-1.34.6c-.08.03-.12.07-.14.11-.02.05-.01.11.02.2l.01.02-.07.03-.18-.45-.19-.44.07-.03.01.02c.04.07.07.12.12.14.04.01.1 0 .17-.03Zm1.38 1.69.4-.89a.77.77 0 0 0 .07-.2c0-.06 0-.1-.03-.14h-.01l.06-.06.27.4.27.38-.07.04-.01-.02c-.05-.07-.1-.1-.13-.12-.04 0-.07.02-.1.07l-.38.75.65-.05c.13-.01.21-.04.24-.09.03-.04.02-.1-.04-.2l-.02-.03.07-.05.18.26.18.26-.07.05v-.01a.2.2 0 0 0-.12-.07.8.8 0 0 0-.2 0l-.9.06-.42.3c-.06.05-.1.1-.1.15-.01.05 0 .1.06.18l.01.02-.06.04-.28-.4-.27-.4.06-.04.02.02c.04.07.1.11.14.12.04 0 .1-.01.17-.06l.36-.27Zm1.04 2.2.98-.83c.06-.05.1-.1.1-.15 0-.05-.02-.1-.07-.17l-.02-.02.06-.05.3.38.3.38-.06.05-.02-.02c-.05-.07-.1-.1-.15-.1-.04-.01-.1 0-.16.06l-.98.84c-.07.05-.1.1-.1.15 0 .05.02.1.07.17l.01.02-.06.05-.3-.38-.3-.37.07-.06.01.02c.06.07.1.1.15.11.05 0 .1-.02.17-.07Zm.8.92c-.07.07-.11.13-.12.19-.01.05.01.11.06.18l.02.02-.06.06-.2-.24-.2-.24.05-.05.02.02c.06.06.11.09.17.08.05 0 .11-.04.19-.1l.9-.86c.02-.1.03-.16.02-.21 0-.06-.01-.1-.03-.12l-.01-.01.06-.06.2.23.2.23-.24 1.57.6-.57c.08-.07.12-.13.13-.19.01-.05 0-.12-.06-.18l-.02-.02.06-.06.2.24.21.23-.06.06-.02-.02c-.05-.06-.11-.09-.17-.08-.05 0-.11.04-.19.1l-1.15 1.08-.02-.03-.02-.03.3-1.98-.82.76Zm1.5 1.76 1.02-1.07v-.01c-.11-.11-.22-.17-.34-.17-.11 0-.23.04-.35.14l-.07-.06.2-.21.21-.22.59.6.59.6-.2.22-.2.22-.07-.06c.1-.13.15-.25.14-.37a.53.53 0 0 0-.17-.35h-.01l-1.02 1.07c-.06.06-.09.11-.09.16s.03.1.09.16l.02.02-.06.06-.33-.34-.33-.34.06-.06.01.02c.06.06.11.09.16.08.04 0 .1-.03.15-.09Zm.66 1.1.05-.06.02.02c.06.05.11.08.16.08s.1-.04.15-.1l.84-1c.05-.06.07-.12.07-.16 0-.05-.04-.1-.1-.16l-.02-.02.05-.06.53.47.67.61-.19.22-.18.22-.06-.05c.1-.16.13-.3.1-.4-.02-.11-.12-.24-.29-.39v-.01c-.06-.05-.1-.07-.12-.06-.03 0-.07.02-.1.07l-.4.46.03.02c.1.1.19.14.26.13.08 0 .18-.06.3-.16l.06.05-.3.36-.3.37-.06-.05c.08-.16.13-.27.12-.35 0-.08-.05-.17-.15-.26l-.03-.02-.39.46c-.05.07-.08.12-.07.16 0 .04.03.08.1.14.14.13.28.21.4.23.12.02.28 0 .48-.09l.04.06-.23.18-.24.18-.68-.61-.52-.48Zm2.24 2a1.1 1.1 0 0 1-.45-.68 1 1 0 0 1 .2-.77.97.97 0 0 1 .62-.42c.25-.05.48 0 .69.17.16.12.28.26.36.42a.1.1 0 0 0 .07.06l.09-.01.05-.04.06.05-.39.55-.06-.05a.94.94 0 0 0 .02-.5.65.65 0 0 0-.24-.36c-.12-.1-.26-.1-.41-.02-.16.07-.32.22-.48.45-.17.24-.26.45-.27.62-.02.18.04.32.18.43l.03.02c.07.05.13.07.18.06.05-.02.1-.06.16-.14l.11-.16c.05-.06.07-.12.05-.17 0-.06-.05-.11-.13-.17l-.02-.02.04-.06.4.3.4.3-.05.06-.02-.01c-.07-.05-.12-.07-.17-.06-.04 0-.1.04-.14.1l-.24.35a1.62 1.62 0 0 1-.64-.3Zm1.25.5.69-1.11c.04-.07.05-.13.04-.18 0-.05-.05-.1-.12-.14l-.02-.02.05-.06.4.26.34.23c.22.15.37.3.43.43.06.15.04.3-.05.44a.4.4 0 0 1-.39.21.74.74 0 0 1-.2-.04v.75c0 .1.01.18.03.23a.2.2 0 0 0 .08.12l-.03.07-.12-.08-.36-.23-.04-1.09-.05-.03-.3.49c-.05.07-.06.13-.05.17 0 .05.05.1.12.15l.02.01-.04.07-.4-.26-.4-.27.04-.07.03.02c.06.04.12.06.17.05.04-.01.09-.05.13-.12Zm.73-.33.08.05c.12.07.22.1.3.08.1-.02.17-.1.26-.23.06-.11.09-.21.07-.3a.34.34 0 0 0-.15-.2c-.05-.05-.09-.06-.12-.06-.03.01-.06.04-.1.1l-.34.56Zm.99 1.42.62-1.15c.04-.07.06-.13.04-.18 0-.05-.05-.1-.12-.13l-.02-.02.03-.07.41.24.41.25-.03.07-.03-.02c-.07-.04-.13-.05-.17-.04-.05.01-.09.05-.13.13l-.63 1.15c-.03.07-.05.13-.04.18.02.04.06.09.13.13l.02.01-.04.07-.4-.24-.41-.24.03-.07.03.01c.07.04.12.06.17.05.05-.02.09-.06.13-.13Zm1.28.71.62-1.37h-.01c-.14-.07-.26-.08-.37-.05-.11.04-.2.12-.29.26l-.08-.04.13-.27.12-.27.75.36.75.37-.13.27-.12.27-.07-.03a.58.58 0 0 0 0-.4.51.51 0 0 0-.26-.26l-.02-.01-.62 1.37c-.03.07-.04.14-.02.18.01.05.06.09.13.12l.03.02-.04.07-.42-.2-.42-.21.03-.07h.03c.07.04.12.05.17.03.04-.01.08-.06.11-.14Zm1.91.36-.13-.97a.77.77 0 0 0-.06-.21.18.18 0 0 0-.1-.1h-.01l.03-.08.43.17.43.17-.03.07H27c-.08-.04-.13-.04-.17-.03-.03.01-.05.05-.04.11l.08.84.51-.41c.1-.09.16-.16.16-.21 0-.06-.05-.1-.14-.15l-.04-.02.03-.07.29.1.29.12-.03.08a.19.19 0 0 0-.14 0 .82.82 0 0 0-.18.12l-.7.57-.19.5c-.02.07-.03.13 0 .18.01.04.06.08.14.1l.02.02-.03.07-.44-.17-.44-.17.03-.08.02.01c.08.03.14.04.18.02.04-.02.08-.07.1-.15l.16-.43Z" fill="#860245"/><path d="m28.69 47.62-.45-1.24c-.02-.08-.06-.12-.1-.14-.05-.03-.1-.02-.18.01h-.03l-.02-.07.44-.17.39-.15c.24-.1.44-.13.59-.1.14.04.24.15.3.31s.04.31-.07.45l-.16.15.59.45c.07.05.14.1.19.11.05.02.1.02.13 0h.02l.02.07-.12.05-.4.16-.86-.62-.06.02.2.55c.02.08.06.13.1.15.05.02.1.01.18-.02h.03l.02.07-.44.17-.44.17-.03-.08h.03c.07-.04.12-.07.14-.12.02-.04.02-.1-.01-.18Zm.18-.8.09-.04c.13-.05.21-.12.25-.2.03-.1.02-.2-.03-.35-.05-.12-.1-.2-.18-.24-.07-.04-.16-.04-.25 0-.06.01-.1.04-.11.07-.02.02-.01.07.01.13l.22.62Zm2.27.13-.03-.07.02-.01c.07-.04.12-.08.13-.13.02-.05 0-.1-.03-.18l-.57-1.18c-.04-.08-.08-.12-.12-.14-.05-.01-.1 0-.18.04l-.02.01-.04-.07.62-.33.8-.41.12.26.13.26-.07.03c-.1-.15-.22-.23-.32-.25-.1-.01-.25.03-.45.14h-.02c-.05.03-.09.06-.1.1 0 .02 0 .06.03.12l.27.55.03-.02c.11-.06.19-.13.21-.2.02-.08.01-.2-.03-.36l.06-.03.21.43.21.43-.06.03c-.1-.14-.2-.22-.27-.25-.07-.02-.17 0-.28.05l-.03.02.26.55c.04.08.08.12.11.13.04.01.1 0 .16-.04.18-.1.3-.2.36-.3.07-.1.1-.27.1-.5l.07-.01.07.29.08.3-.8.42-.63.32Zm2.67-3.1a.64.64 0 0 0-.35-.21.46.46 0 0 0-.37.06.37.37 0 0 0-.15.18.24.24 0 0 0 .03.21c.03.06.1.1.19.12.09.01.2 0 .36-.03.2-.04.37-.04.5 0 .14.04.25.11.32.23.1.15.12.31.07.47a.71.71 0 0 1-.31.4c-.13.1-.26.15-.4.17a.1.1 0 0 0-.08.06.12.12 0 0 0 0 .1v.01l-.06.04-.38-.61.06-.04c.1.13.24.22.4.25a.5.5 0 0 0 .4-.07.36.36 0 0 0 .16-.2.3.3 0 0 0-.04-.24.26.26 0 0 0-.19-.12c-.08-.01-.2 0-.36.03-.19.03-.35.03-.48 0a.5.5 0 0 1-.3-.23.57.57 0 0 1-.08-.45.64.64 0 0 1 .28-.38c.1-.06.2-.1.33-.13.05 0 .08-.02.1-.05a.12.12 0 0 0 .02-.1v-.02l.06-.04.33.54-.06.04Zm1.6.08-.78-1.04c-.05-.06-.1-.1-.14-.1-.05-.01-.1.01-.17.07l-.02.01-.05-.06.37-.3.28-.23c.2-.17.38-.26.54-.27.15-.01.29.05.4.19.1.14.12.28.08.44a1.1 1.1 0 0 1-.38.48l-.1.09.33.43c.05.07.1.1.14.1.05.01.1-.01.17-.07l.02-.01.05.06-.37.3-.37.31-.05-.06.02-.02c.06-.05.1-.1.1-.15.01-.05-.01-.1-.06-.17Zm-.04-.82.1-.08c.09-.07.13-.15.13-.23 0-.08-.05-.18-.14-.3-.08-.11-.16-.18-.25-.2-.08-.02-.16 0-.24.07-.04.03-.07.06-.07.09 0 .02.01.06.05.1l.42.55Zm2.73-1.08a.92.92 0 0 1-1.37-.03 1 1 0 0 1 .03-1.43.93.93 0 0 1 1.37.03 1 1 0 0 1 .28.73 1 1 0 0 1-.31.7Zm-.08-.08c.12-.12.15-.26.11-.44a1.32 1.32 0 0 0-.34-.57c-.18-.2-.36-.33-.53-.38-.17-.05-.3-.02-.42.1-.12.11-.16.26-.12.43.04.18.16.37.34.58.2.2.37.33.54.38.16.04.3.01.42-.1Zm1.4-1.87c.07.07.13.1.18.1.06.01.12-.02.17-.08l.02-.02.06.06-.2.23-.2.24-.06-.05.02-.02c.05-.07.06-.13.05-.19 0-.05-.05-.11-.12-.18l-.93-.84-.2.01c-.05.01-.1.03-.11.06l-.07-.05.2-.23.19-.23 1.52.05-.61-.56c-.08-.07-.14-.1-.2-.1-.05 0-.1.02-.16.08l-.02.02-.06-.05.2-.24.2-.24.06.05-.02.02c-.05.07-.06.13-.05.19 0 .05.05.12.12.18l1.17 1.06-.03.03-.02.02-1.93-.06.82.74ZM41 36.6a.63.63 0 0 0-.4-.07.47.47 0 0 0-.33.18.38.38 0 0 0-.09.23c0 .07.04.13.1.19.05.04.13.05.21.04.1-.02.2-.07.34-.15.18-.1.34-.17.48-.18a.5.5 0 0 1 .37.11c.13.12.2.26.22.42a.73.73 0 0 1-.17.5c-.1.12-.2.22-.32.29a.11.11 0 0 0-.06.08c0 .03 0 .06.02.1h.01l-.05.06-.55-.45.05-.06c.14.1.3.13.45.11a.52.52 0 0 0 .37-.2.37.37 0 0 0 .08-.25.29.29 0 0 0-.11-.22c-.06-.04-.13-.06-.22-.04-.09.01-.2.06-.33.14-.17.1-.32.16-.46.17a.49.49 0 0 1-.35-.11.56.56 0 0 1-.22-.4.66.66 0 0 1 .15-.45.93.93 0 0 1 .27-.24.16.16 0 0 0 .07-.08.12.12 0 0 0-.01-.1v-.01l.04-.07.48.4-.04.06Zm1.52-.5-1.08-.69c-.07-.04-.13-.06-.17-.05-.05.02-.1.06-.14.13l-.01.02-.07-.04.25-.42.25-.41.06.04-.01.02c-.04.07-.06.13-.05.18.01.05.05.1.12.14l1.08.69c.07.04.13.06.17.05.05-.01.1-.06.14-.13l.01-.02.07.04-.25.42-.24.42-.07-.05.01-.02c.04-.07.06-.13.05-.18-.01-.05-.05-.1-.12-.14Zm.86-1.63-1.22-.37c-.08-.02-.14-.02-.18 0-.04.02-.07.08-.1.16v.02l-.08-.02.13-.47.1-.34c.07-.24.16-.42.27-.53.12-.1.24-.14.38-.1.13.04.22.14.26.3l.02.23c.05-.1.1-.18.18-.24a.42.42 0 0 1 .42-.1c.16.04.26.15.31.31.05.17.04.38-.03.62l-.12.4-.13.47-.07-.03v-.02c.03-.08.03-.14 0-.19-.02-.04-.07-.07-.14-.1Zm-1.12-.82.53.16.01-.04c.04-.13.04-.23 0-.3-.04-.08-.11-.14-.22-.17-.12-.04-.22-.04-.3-.01-.05.02-.1.07-.13.15-.02.06-.03.11-.01.14.01.02.05.05.12.07Zm.63.2.64.19c.06.02.1.02.13 0 .02 0 .05-.05.06-.1v-.03c.04-.11.03-.2-.01-.27-.05-.07-.14-.13-.27-.17-.14-.04-.25-.04-.34.01-.09.06-.15.16-.2.31v.05Zm1.16-2-1.25-.26c-.08-.02-.14-.01-.17.01-.04.03-.07.09-.09.17v.03l-.08-.02.1-.48.09-.48.08.02-.01.02c-.02.08-.01.15.01.19.03.04.08.07.16.08l1.25.27c.07.02.13.01.17-.02.04-.02.07-.08.09-.16v-.03l.08.02-.1.48-.1.48-.07-.02v-.03c.02-.08.02-.14 0-.18-.03-.04-.08-.07-.16-.09Zm.58-1.6h-.08v-.03c.02-.09 0-.15-.02-.19-.03-.03-.09-.06-.17-.07l-1.26-.15c-.08 0-.14 0-.17.04-.04.03-.06.09-.07.17v.03l-.08-.01.05-.49.05-.49.08.01v.03c-.01.08 0 .14.03.18.03.04.08.07.16.08l1.3.15c.06 0 .1 0 .12-.02.03-.02.04-.06.05-.12.02-.23 0-.4-.06-.52a.98.98 0 0 0-.4-.35l.02-.07.31.1.32.1-.1.9-.08.72Zm-.02-2.99-1.27-.1c-.08 0-.14.02-.18.05-.03.03-.05.09-.06.17v.03h-.08l.04-.5.03-.48h.08v.03c-.01.08 0 .15.03.18.03.04.09.06.17.07l1.27.09c.08 0 .13 0 .17-.04.03-.03.06-.1.06-.18v-.02h.08l-.03.49-.03.49h-.08v-.03c0-.09 0-.15-.04-.19-.03-.03-.08-.05-.16-.06Zm.09-2.31h-1.46c0 .16.04.29.12.37.08.09.2.14.35.16v.1h-.58v-1.73H43.71v.09a.53.53 0 0 0-.35.15.54.54 0 0 0-.11.37v.02h1.45c.08 0 .14-.01.17-.05.04-.03.05-.1.05-.18v-.02H45v.96h-.08v-.02c0-.08-.02-.14-.05-.17-.03-.04-.09-.05-.17-.05Zm-.46-2.8-.8.5a.72.72 0 0 0-.18.13.19.19 0 0 0-.04.13v.01h-.08l-.01-.47-.01-.48h.08V22c0 .09.01.14.04.17.02.03.06.03.11 0l.72-.4-.56-.33c-.11-.06-.2-.09-.24-.07-.05.02-.08.08-.08.2v.03h-.08v-.32l-.02-.32h.08v.01c0 .04.02.08.06.12.03.04.09.08.17.13l.78.47h.5c.08-.01.14-.03.17-.06.03-.04.05-.1.04-.19v-.02h.08l.01.48.01.5h-.07v-.03c0-.08-.02-.14-.06-.18-.03-.03-.09-.05-.17-.05l-.45.01Z" fill="#860245"/><defs><linearGradient id="a" x1="16.25" y1="14.49" x2="39.33" y2="35.54" gradientUnits="userSpaceOnUse"><stop offset=".07" stop-color="#505152"/><stop offset=".28" stop-color="#F4F4F4"/><stop offset=".52" stop-color="#6B706E"/><stop offset=".69" stop-color="#515253"/><stop offset="1" stop-color="#FCFCFC"/></linearGradient><linearGradient id="b" x1="18.72" y1="16.2" x2="27.17" y2="26.19" gradientUnits="userSpaceOnUse"><stop stop-color="#6B6C6B"/><stop offset="1" stop-color="#D4D5D3"/></linearGradient><linearGradient id="c" x1="28" y1="37" x2="28" y2="34.08" gradientUnits="userSpaceOnUse"><stop stop-color="#fff"/><stop offset="1" stop-color="#9B9A9A"/></linearGradient><linearGradient id="d" x1="28.02" y1="34.63" x2="22" y2="34.63" gradientUnits="userSpaceOnUse"><stop stop-color="#fff"/><stop offset="1" stop-color="#9B9A9A"/></linearGradient><linearGradient id="e" x1="27.98" y1="34.63" x2="34" y2="34.63" gradientUnits="userSpaceOnUse"><stop stop-color="#9B9A9A"/><stop offset="1" stop-color="#fff"/></linearGradient><linearGradient id="f" x1="27.99" y1="27.89" x2="27.99" y2="31" gradientUnits="userSpaceOnUse"><stop stop-color="#393B3A"/><stop offset="1" stop-color="#616361"/></linearGradient></defs></svg>