<!-- by TradingView --><svg width="56" height="56" viewBox="0 0 56 56" xmlns="http://www.w3.org/2000/svg"><path fill="#F0F3FA" d="M0 0h56v56H0z"/><path d="M12.03 29.02c4.74-2.2 12.73-6.55 13.47-9.53.62-2.5.07-5.36-.52-7.21a16 16 0 0 0-12.95 16.74Zm.17 1.48a16 16 0 0 0 25.46 10.25c-2.46-4.98-6.82-12.7-9.66-13.76-2.93-1.1-11.12 1.64-15.8 3.51Zm26.83 9.08a15.95 15.95 0 0 0 2.5-20.14c-2.79.98-6.53 3.04-6.53 6.05 0 3 2.3 9.64 4.03 14.1Zm.08-23.1A15.94 15.94 0 0 0 28.42 12c1 1.83 2.6 3.93 4.58 4.5 1.95.55 4.33.33 6.1-.02Z" fill="url(#a)"/><defs><linearGradient id="a" x1="34" y1="16" x2="19.5" y2="41" gradientUnits="userSpaceOnUse"><stop stop-color="#0A78C4"/><stop offset="1" stop-color="#273B91"/></linearGradient></defs></svg>