<!-- by TradingView --><svg width="56" height="56" viewBox="0 0 56 56" xmlns="http://www.w3.org/2000/svg"><path fill="#F0F3FA" d="M0 0h56v56H0z"/><path d="M18.82 23.56c-4.01 8.37.87 17.76 9.7 20.13.03.01.07.04.09.07a.16.16 0 0 1-.03.2.16.16 0 0 1-.1.04c-11.86-.24-20.1-11.97-14.88-22.87C18.82 10.24 33.27 9.02 41 17.85a.16.16 0 0 1-.1.26c-.04 0-.08 0-.1-.02-7.5-5.18-17.96-2.9-21.98 5.47Z" fill="#62352D"/><path d="M27.1 17.84a11.38 11.38 0 0 1 11.83-.25c.18.1.34.23.48.38.49.52.83 1.05 1.02 1.6a.45.45 0 0 0 .53.3c.53-.13.99.14 1.38.8.8 1.32 1.65 2.54 1.25 3.98-.06.2-.05.41.02.6 1.68 4.68-2.36 10-6.69 11.48a11 11 0 0 1-8.32-.36c-7.67-3.4-8.36-14.01-1.5-18.53Zm11.28.03c-2.67-.74-4.98-.56-6.96.56a8.23 8.23 0 0 0-3.48 10.94 8.5 8.5 0 0 0 11.02 3.74c2.09-.9 3.61-2.63 4.58-5.18.08-.22.1-.46.05-.7-.11-.56-.5-1.2-1.16-1.9a.3.3 0 0 0-.25-.1.3.3 0 0 0-.22.14l-2.47 4.2a.27.27 0 0 1-.32.12.27.27 0 0 1-.14-.1.26.26 0 0 1-.04-.18l.64-4.88a.26.26 0 0 0-.1-.24.28.28 0 0 0-.26-.03c-1.07.4-1.65.53-1.74.35-.1-.18.34-.57 1.31-1.17a.27.27 0 0 0 .13-.23.26.26 0 0 0-.13-.23l-4.38-2.38a.27.27 0 0 1-.12-.32.27.27 0 0 1 .29-.18l4.9.55a.3.3 0 0 0 .25-.1.29.29 0 0 0 .07-.25 4.27 4.27 0 0 0-.88-2.05c-.16-.18-.36-.31-.6-.38Z" fill="#62352D"/><path d="M27.98 38.73c6.08 2.25 12.23-.54 15.02-6.12a.13.13 0 0 1 .07-.08.13.13 0 0 1 .17.06c.01.03.02.07 0 .1-1.63 7.47-9.04 12.09-16.52 9.3-7.48-2.77-9.93-11.05-6.13-17.72a.13.13 0 0 1 .07-.07.13.13 0 0 1 .1 0c.03.02.06.04.07.07v.1c-1.67 6 1.07 12.1 7.15 14.36Z" fill="#62352D"/></svg>