<!-- by TradingView --><svg width="56" height="56" viewBox="0 0 56 56" xmlns="http://www.w3.org/2000/svg"><path fill="#F0F3FA" d="M0 0h56v56H0z"/><path d="M30.17 11.25a2.47 2.47 0 0 0-3.38-.92l-13.41 7.75a2.76 2.76 0 0 0 .01 4.79l8.93 5.09-8.9 4.89a2.76 2.76 0 0 0-.08 4.79l13.42 8.01c1.17.7 2.69.31 3.39-.86.7-1.18.31-2.7-.86-3.4l-10.1-6.04 8.96-4.93a2.76 2.76 0 0 0 .03-4.82l-9-5.14 10.08-5.82c1.18-.69 1.59-2.2.9-3.4Z" fill="url(#a)"/><path d="m16.6 24.7-3.21-1.83a2.76 2.76 0 0 1-.01-4.8l13.4-7.74a2.47 2.47 0 0 1 3.39.92c.68 1.18.27 2.7-.91 3.39l-10.08 5.82.13.07c-1.45.85-2.6 2.1-2.7 4.17Z" fill="url(#b)"/><path d="m16.81 39.71 9.95 5.94c1.17.7 2.69.31 3.39-.86.7-1.18.31-2.7-.86-3.4l-10.05-6.01c-1.14.56-2.39 1.77-2.43 4.33Z" fill="url(#c)"/><path d="M25.83 11.25a2.47 2.47 0 0 1 3.38-.92l13.41 7.75a2.76 2.76 0 0 1-.01 4.79l-8.93 5.09 8.9 4.89a2.76 2.76 0 0 1 .08 4.79l-13.42 8.01c-1.17.7-2.69.31-3.39-.86-.7-1.18-.31-2.7.86-3.4l10.1-6.04-8.96-4.93a2.76 2.76 0 0 1-.03-4.82l9-5.14-10.08-5.82a2.49 2.49 0 0 1-.9-3.4Z" fill="url(#d)"/><path d="m39.4 24.7 3.21-1.83a2.76 2.76 0 0 0 .01-4.8l-13.4-7.74a2.47 2.47 0 0 0-3.39.92 2.49 2.49 0 0 0 .91 3.39l10.08 5.82-.13.07c1.45.85 2.6 2.1 2.7 4.17Z" fill="url(#e)"/><path d="m39.19 39.71-9.95 5.94c-1.17.7-2.69.31-3.39-.86-.7-1.18-.31-2.7.86-3.4l10.05-6.01c1.14.56 2.39 1.77 2.43 4.33Z" fill="url(#f)"/><defs><linearGradient id="a" x1="21.25" y1="24.46" x2="20.72" y2="39.57" gradientUnits="userSpaceOnUse"><stop stop-color="#033163"/><stop offset="1" stop-color="#0396DB"/></linearGradient><linearGradient id="b" x1="29.7" y1="11.73" x2="13.2" y2="22.62" gradientUnits="userSpaceOnUse"><stop stop-color="#0081B9"/><stop offset="1" stop-color="#144679"/></linearGradient><linearGradient id="c" x1="17.93" y1="37.03" x2="30.52" y2="44.52" gradientUnits="userSpaceOnUse"><stop stop-color="#012551"/><stop offset="1" stop-color="#005787"/></linearGradient><linearGradient id="d" x1="35.45" y1="21.54" x2="35.28" y2="39.57" gradientUnits="userSpaceOnUse"><stop stop-color="#346D27"/><stop offset="1" stop-color="#C8D726"/></linearGradient><linearGradient id="e" x1="26.3" y1="11.73" x2="42.8" y2="22.62" gradientUnits="userSpaceOnUse"><stop stop-color="#C5D826"/><stop offset="1" stop-color="#70B13D"/></linearGradient><linearGradient id="f" x1="38.07" y1="37.03" x2="25.48" y2="44.52" gradientUnits="userSpaceOnUse"><stop stop-color="#366E25"/><stop offset="1" stop-color="#C1D540"/></linearGradient></defs></svg>