<!-- by TradingView --><svg width="56" height="56" viewBox="0 0 56 56" xmlns="http://www.w3.org/2000/svg"><path fill="#4D4D4D" d="M0 0h56v56H0z"/><path fill="#CAA33F" d="M8 37h40v1H8z"/><path d="M26.72 17.81c-.1-.57-.42-.78-.57-.81-.56.1.57 6 .9 8.34.34 2.34.57 3.36 1.13 3.36.56 0 .9-.1 1.01-.51.11-.41-2.36-9.66-2.47-10.38ZM27.73 31.95c0 1.87 2.85 2.81 4.27 3.05-2.14-1.93-1.57-2.54-1.57-3.46 0-.73-.83-.85-1.24-.81.11-1.12-.11-1.53-.56-1.53-.45 0-.68.2-.68.51 0 .25.3.92.45 1.22-.22.14-.67.53-.67 1.02ZM46.16 34.58c-1.61.93-3.31 1.4-5.1 1.42A7.89 7.89 0 0 1 33 27.95 7.78 7.78 0 0 1 40.98 20c1.77 0 3.76.4 5.2 1.49 0-.41.01-.72.05-.93.08-.26.37-.39.77-.39V25h-.64c-.84-2.79-2.66-4.24-5.22-4.28-3.84 0-5.14 3.96-5.14 7.25 0 3.3 1.05 7.3 5.04 7.3 2.64-.01 4.4-1.4 5.28-4.27H47v5c-.21 0-.37-.02-.47-.05-.25-.1-.37-.65-.37-1.37ZM9 20h7.17c4.4 0 7.83 2.95 7.83 7.5 0 4.46-3.53 7.5-7.88 7.5H9v-.65h2v-13.7H9V20Zm7.12.65H14v13.7h2.17c3.39-.02 4.81-2.33 4.83-6.95 0-3.37-.92-6.75-4.88-6.75Z" fill="#fff" fill-opacity=".8"/></svg>