<!-- by TradingView --><svg width="56" height="56" viewBox="0 0 56 56" xmlns="http://www.w3.org/2000/svg"><path fill="#F0F3FA" d="M0 0h56v56H0z"/><path d="M9.1 30h1.36l1.08 1.13c1-.88 1.46-2.3 1.46-3.56C13 25.55 11.83 23 9.5 23 7.16 23 6 25.55 6 27.57A6 6 0 0 0 6.5 30a3.53 3.53 0 0 0 2.91 2c.4.02.8-.08 1.19-.27L9.1 30Zm4.9-2.43c0 1.66-.47 3.44-1.75 4.55L13.58 34h-1.35l-.9-1.27c-2.11 1-4.78-.13-5.75-2.2A6.96 6.96 0 0 1 5 27.57C5 24.87 6.47 22 9.5 22c3.03 0 4.5 2.86 4.5 5.57ZM27 22v11h1v-5h4.5v-1H28v-4h5v-1h-6Zm14.35 3c-.14-1.26-1.35-2-2.55-2-1.06 0-2.54.7-2.54 1.92 0 1.08 1.26 1.66 2.15 1.9l.49.13c1.65.44 3.6.95 3.6 2.97 0 2.06-1.9 3.08-3.76 3.08-1.87 0-3.6-.99-3.74-3h1.1c.1 1.29 1.47 2 2.64 2 1.16 0 2.73-.77 2.73-2.1 0-1.32-1.65-1.7-2.86-1.98l-.68-.17c-1.35-.4-2.65-1.23-2.65-2.77 0-1.92 1.82-2.98 3.56-2.98 1.82 0 3.46 1.07 3.52 3h-1ZM45 33V22h6v1h-5v4h4.5v1H46v5h-1Zm-23.54-3H20.1l1.5 1.73c-.4.19-.8.29-1.19.27a3.53 3.53 0 0 1-2.9-2 6 6 0 0 1-.51-2.43c0-2.02 1.16-4.57 3.5-4.57 2.33 0 3.5 2.55 3.5 4.57 0 1.26-.46 2.68-1.46 3.56L21.46 30Zm1.8 2.12c1.27-1.11 1.74-2.9 1.74-4.55 0-2.7-1.47-5.57-4.5-5.57-3.03 0-4.5 2.86-4.5 5.57 0 1.14.2 2.13.58 2.96.97 2.07 3.64 3.2 5.76 2.2l.89 1.27h1.35l-1.33-1.88Z"/></svg>