<!-- by TradingView --><svg width="56" height="56" viewBox="0 0 56 56" xmlns="http://www.w3.org/2000/svg"><path fill="#F0F3FA" d="M0 0h56v56H0z"/><path fill-rule="evenodd" d="m28 9 15 9.75V43H13V18.75L28 9Zm-.5 1.72-2.4 1.38 2.4 6.17v-7.55Zm0 10.32-3.26-8.4-2.62 1.7 5.88 7.73v-1.03Zm0 2.68-6.72-8.84-2.83 1.85 9.55 8.13v-1.14Zm0 2.45L17.07 17.3l-2.7 1.76 13.13 8.2v-1.08Zm0 3.86L14 38.39V42h13.5V30.03Zm1 11.97H42v-3.61l-13.5-8.36V42Zm0-14.75 13.12-8.2-2.7-1.76-10.42 8.88v1.08Zm0-2.39 9.55-8.13-2.83-1.85-6.72 8.84v1.14Zm0-2.79 5.88-7.73-2.62-1.7-3.26 8.4v1.03Zm0-3.8 2.4-6.17-2.4-1.38v7.55Zm-3.32 12.11L14 37.21v-3.53l11.18-3.3Zm0-1.38L14 32.64V29h11.18Zm0-1H14v-3.57L25.18 28Zm0-.93L14 23.37V20l11.18 7.08Zm5.64 3.31L42 37.21v-3.53l-11.18-3.3Zm0-1.38L42 32.64V29H30.82Zm0-1H42v-3.57L30.82 28Zm0-.93L42 23.37V20l-11.18 7.08Z" fill="#907260"/></svg>