<!-- by TradingView --><svg width="56" height="56" viewBox="0 0 56 56" xmlns="http://www.w3.org/2000/svg"><path fill="#F0F3FA" d="M0 0h56v56H0z"/><path d="M42.21 13c.47.08.73.36.8.85v12.7c-.2.58-.58.82-1.14.71a.79.79 0 0 1-.53-.37 1.56 1.56 0 0 1-.18-.58 12.88 12.88 0 1 0-.02 3.49c.07-.39.16-.65.3-.8.21-.26.52-.33.9-.23.32.08.54.3.66.66v12.43c.02.72-.29 1.1-.92 1.14H13.94a.92.92 0 0 1-.94-.67V13.7a.93.93 0 0 1 .75-.7h28.46Z" fill="#FE0000"/><path fill-rule="evenodd" d="M40.42 28a12.02 12.02 0 1 1-24.04 0 12.02 12.02 0 0 1 24.04 0Zm-1.24 0a10.8 10.8 0 0 1-16.05 9.42c-.1-.07-.16-.13-.2-.18A10.8 10.8 0 0 1 17.62 28c0-3.8 2.02-7.21 5.28-9.21.04-.05.12-.12.23-.2A10.8 10.8 0 0 1 39.18 28ZM23 19h9.37a.5.5 0 0 1 .32.11l1.19.98.1.13c.02.04.02.1.02.15v6.21c0 .16-.04.3-.16.41a109.98 109.98 0 0 0-.97 1 .1.1 0 0 0 0 .04v.03l.97.97c.12.11.16.25.16.4v6.22c0 .06 0 .1-.02.15a.37.37 0 0 1-.1.13l-1.21.95a.5.5 0 0 1-.32.12H23V19Zm6.95 4h-2.9c-.03 0-.05.03-.05.06v2.88c0 .03.02.06.05.06h2.9c.02 0 .04-.02.04-.05l.01-2.89c0-.03-.02-.05-.05-.05Zm-2.9 7h2.9c.03 0 .05.03.05.06v2.89c0 .03-.03.06-.06.06l-2.9-.01c-.02 0-.04-.03-.04-.06v-2.88c0-.03.02-.06.05-.06Z" fill="#FE0000"/></svg>