<!-- by TradingView --><svg width="56" height="56" viewBox="0 0 56 56" xmlns="http://www.w3.org/2000/svg"><path fill="#F0F3FA" d="M0 0h56v56H0z"/><path d="M27 35V12l-3 2.97V25h-3v-7.06l-3 2.96v8.16c0 2.38-1.27 4.95-2 5.94h2.93C20.7 33.81 21 30.55 21 29.06V28h3v7h3ZM29 35V12l3 2.97v10.06h3v-7.1l3 2.97v8.16c0 2.38 2.2 4.95 3 5.94h-3.2c-1.92-1.19-2.8-4.45-2.8-5.94V28h-3v7h-3Z" fill="#F08200"/><path d="M8 35.9c0-2.03 3.5-2.78 5.25-2.9-.75.36-2.25 1.3-2.25 2.18 0 1.1 8.25 2.82 16.5 2.82 8.26 0 17.26-1.36 17.26-2.82 0-1.16-1.5-1.94-2.25-2.18 1.88 0 5.6.58 5.49 2.9-.14 2.92-11.5 5.1-20.5 5.1S8 38.45 8 35.9Z" fill="#F08200"/></svg>