<!-- by TradingView --><svg width="56" height="56" viewBox="0 0 56 56" xmlns="http://www.w3.org/2000/svg"><path fill="#F0F3FA" d="M0 0h56v56H0z"/><path d="M23.76 12.67a5.52 5.52 0 0 0 0 8.08L30.32 27a5.78 5.78 0 0 0 2.87-1.74l-7.08-6.74a2.46 2.46 0 0 1 0-3.6c1.04-1 2.74-1 3.78 0 1.05.99 1.05 2.6 0 3.6l-1.04.99 2.35 2.24 1.04-1a5.52 5.52 0 0 0 0-8.08 6.21 6.21 0 0 0-8.48 0ZM12.67 32.24a5.52 5.52 0 0 0 8.08 0L27 25.68a5.78 5.78 0 0 0-1.74-2.87l-6.74 7.08a2.46 2.46 0 0 1-3.6 0c-1-1.04-1-2.74 0-3.78.99-1.05 2.6-1.05 3.6 0l.99 1.04 2.24-2.35-1-1.04a5.52 5.52 0 0 0-8.08 0 6.21 6.21 0 0 0 0 8.48Zm30.66-8.48a5.52 5.52 0 0 0-8.08 0L29 30.32c.34 1.2.68 1.76 1.74 2.87l6.74-7.08c1-1.05 2.61-1.05 3.6 0 1 1.04 1 2.74 0 3.78a2.46 2.46 0 0 1-3.6 0l-.99-1.04-2.24 2.35 1 1.04a5.52 5.52 0 0 0 8.08 0 6.21 6.21 0 0 0 0-8.48ZM32.24 35.25a5.52 5.52 0 0 1 0 8.08 6.21 6.21 0 0 1-8.48 0 5.52 5.52 0 0 1 0-8.08l1.04-1 2.35 2.24-1.04 1a2.46 2.46 0 0 0 0 3.6c1.04 1 2.74 1 3.78 0 1.05-1 1.05-2.61 0-3.6l-7.08-6.75A5.78 5.78 0 0 1 25.68 29l6.56 6.25Zm7.7-18.43c.23-.52-.24-1-.76-.76l-1.03.47a9.34 9.34 0 0 0-4.63 4.63l-.47 1.02a.71.71 0 0 0-.05.19l4.07-3.44L33.63 23c.06 0 .12-.03.19-.05l1.02-.47a9.34 9.34 0 0 0 4.63-4.63l.47-1.03ZM16.06 39.18c-.23.52.24 1 .76.76l1.03-.47a9.34 9.34 0 0 0 4.63-4.63l.46-1.02a.71.71 0 0 0 .06-.19l-4.07 3.44L22.37 33a.71.71 0 0 0-.19.05l-1.02.47a9.34 9.34 0 0 0-4.63 4.63l-.47 1.03Zm23.12.76c.52.23 1-.24.76-.76l-.47-1.03a9.34 9.34 0 0 0-4.63-4.63l-1.02-.47a.71.71 0 0 0-.19-.05l3.44 4.07L33 33.63c0 .06.03.12.05.19l.47 1.02a9.34 9.34 0 0 0 4.63 4.63l1.03.47ZM16.82 16.06c-.52-.23-1 .24-.76.76l.47 1.03a9.34 9.34 0 0 0 4.63 4.63l1.02.46.19.06-3.44-4.07L23 22.37a.71.71 0 0 0-.05-.19l-.47-1.02a9.34 9.34 0 0 0-4.63-4.63l-1.03-.47Z" fill="url(#a)"/><defs><linearGradient id="a" x1="15.63" y1="17.4" x2="38.66" y2="39.22" gradientUnits="userSpaceOnUse"><stop stop-color="#249D9E"/><stop offset="1" stop-color="#531C6F"/></linearGradient></defs></svg>