<!-- by TradingView --><svg width="56" height="56" viewBox="0 0 56 56" xmlns="http://www.w3.org/2000/svg"><path fill="#F0F3FA" d="M0 0h56v56H0z"/><path fill-rule="evenodd" d="m47 19.45-.8.93-14.02 2.1.28 3.66-2.45 1.12-.48-4.23-4.38.6L21.89 28 20 26.7 31.05 11l.9 9.99L47 19.45Zm-17.89-1.44.28 3.3-2.88.33 2.6-3.63Z" fill="#B11116"/><path d="m20.74 24.1 1.29-1.91L10 23.37l7.97 5.94L10 41l13.73-7.03L34.01 41l-.93-11.87 13.1-6.76L47 21l-17.05 7.35.97 7.67-6.82-4.88-6.4 2.83 3.54-5.07-5.11-4.06 4.6-.73Z" fill="#F26522"/></svg>