<!-- by TradingView --><svg width="56" height="56" viewBox="0 0 56 56" xmlns="http://www.w3.org/2000/svg"><path fill="#F0F3FA" d="M0 0h56v56H0z"/><path d="M23.05 29.08c-1.3.49-2.25.95-3.21 2.07a41.4 41.4 0 0 0-1.8 2.28c-.66.9-1.45 1.72-2.37 2.46-1.1.9-2.3 1.1-3.67 1.11a8.94 8.94 0 0 0 2.54-1.61c.47-.42.95-1.08 1.44-1.98.21-.4.62-1.12 1.23-2.16 1.6-2.75 3.92-3.75 6.95-3.02.39.1.62.4.84.61-.74-.1-1.33 0-1.95.24Z" fill="#A50035"/><path d="M14.57 32.94c.23-.29.76-.87 1.43-1.94-.53 1.3-.96 2.44-1.47 3.18a5.33 5.33 0 0 1-2.1 1.84c-.67.33-1.51.54-2.51.65-1.23.14-2.54.2-3.92.33.43-.23.9-.47 1.4-.61 3.2-.86 5.32-1.11 7.17-3.45Z" fill="#9A031E"/><path fill-rule="evenodd" d="m28.53 24 2.87-.52c.49-.11.54-.01.16.3l-2.33 2.11c.66.2 1.35.02 1.87-.28.68-.38.78-.26.3.35-.05.07-.31.21-.79.44-.84.41-1.73.55-2.66.43-.42-.05-1.58-.24-3.48-.57a7.73 7.73 0 0 0-7.43 3.25s1.94-1.16 3-1.41a8.23 8.23 0 0 1 5.15.34c1.02.42 1.69.7 2 .86 1.32.67 2.28.34 3.58-.35 1.4-.75 2.2-1.96 3.03-3.27a9.69 9.69 0 0 1 .69-.71c.06 0 .1.03.1.1v.08a13.74 13.74 0 0 1-2.39 3.59 5.87 5.87 0 0 1-1.98 1.5c-.8.34-1.67.44-2.58.31l-2.62-.37a6.24 6.24 0 0 0-4.07.71 7.1 7.1 0 0 0-2.23 2.15c-.38.53-.73 1.08-1.07 1.62-.22.35-.43.7-.65 1.02a62.06 62.06 0 0 1 3.88-2.1l.1-.05c2.46-1.25 4.73-.2 7.12.9 1.17.55 2.36 1.1 3.62 1.4 1.44.35 2.84.15 4.18-.6a343.5 343.5 0 0 1 4.45-2.44.53.53 0 0 1 .61.09c.25.23.46.55.63.93a48.43 48.43 0 0 1 .7 1.87.25.25 0 0 1-.12.2.26.26 0 0 1-.1.03c-.23.03-.4.12-.5.26a.21.21 0 0 0-.01.25 7.1 7.1 0 0 0 2.4 2.5.5.5 0 0 0 .25.08c.04 0 .08 0 .11-.02a.24.24 0 0 0 .12-.3l-.1-.27c-.16-.36-.3-.7-.36-1.16-.2-1.6-.34-2.65-.42-3.15a3.6 3.6 0 0 0-.43-1.19l-1.2-2.09c-.36-.65-1.1-.43-1.67-.22-.32.12-.72.34-1.17.58-.87.48-1.92 1.05-2.88 1.18-.34.05-.67.03-1-.07-.06-.01-.08-.04-.07-.1 0-.02.01-.05.03-.06.02-.03.06-.04.1-.04 1.13.02 2.1-.34 2.92-1.1a.22.22 0 0 0 .07-.23 25.68 25.68 0 0 1-.98-4.19c-.1-.59-.09-1.2-.09-1.82 0-.52 0-1.05-.05-1.59-.02-.26.04-.28.17-.05.6 1 1.38 1.24 2.35.7.36-.2.96-.55 1.8-1.07a2.86 2.86 0 0 1 2.5-.37c.54.17 1.54.5 1.8-.3h.01c.25-.73.43-1.26-.21-1.67a6.43 6.43 0 0 0-1.71-.77c-1.2-.34-2.73-.72-4.6-1.15-.61-.14-1.1-.44-1.48-.9a.23.23 0 0 1-.03-.23c.1-.25.25-.55.43-.9.07-.14.1-.25.07-.35a.13.13 0 0 0-.08-.09.14.14 0 0 0-.13.01c-.45.27-1 .54-1.63.8-2.5 1.07-4.64 2.01-6.04 4.2.85-.5 1.62-.7 2.53-.62A9.98 9.98 0 0 0 30 22.59c-.43.42-.92.91-1.47 1.41Zm9.63-4.5.95 1.41c.03.05.07.08.12.09.05 0 .1 0 .14-.04.46-.39.88-.56 1.25-.5.46.07.5-.05.14-.35a4.84 4.84 0 0 0-2.39-1.1c-.4-.06-.48.1-.21.5Z" fill="#A50035"/></svg>