<!-- by TradingView --><svg width="56" height="56" viewBox="0 0 56 56" xmlns="http://www.w3.org/2000/svg"><path fill="#F0F3FA" d="M0 0h56v56H0z"/><path d="M6.25 25h-.6l-.29 1.86L8.72 31h.74v-2.05L6.26 25Z" fill="url(#a)"/><path d="M5.3 31H4v-5.39c0-.34.31-.61.7-.61H6v5.39c0 .34-.31.61-.7.61Z" fill="url(#b)"/><path d="M8 26.5v-.98c0-.29.18-.52.4-.52H12v.98c0 .29-.18.52-.4.52H11v3.89c0 .34-.31.61-.7.61H9v-4.5H8Z" fill="url(#c)"/><path d="M14 25v6h.62c.27 0 .38-.22.38-.5V29h2.3c.87 0 1.7-.95 1.7-1.83v-.4c0-.89-.83-1.77-1.7-1.77H14Zm1 1h2.06c.52 0 .94.45.94 1s-.42 1-.94 1H15v-2Zm5.45-1H20v6h.45c.3 0 .55-.28.55-.62V28h3v2.38c0 .34.24.62.55.62H25v-6h-.45c-.3 0-.55.28-.55.62V27h-3v-1.38c0-.34-.24-.62-.55-.62Zm8.03 0h.84l2.67 6h-.6a.74.74 0 0 1-.66-.43l-.27-.57h-3.1l-.23.54a.74.74 0 0 1-.68.46h-.66l2.7-6Zm-.7 4h2.2l-1.16-2.48L27.78 29Zm21.54-4h-.83l-2.7 6h.66c.3 0 .57-.18.68-.46l.23-.54h3.1l.28.57c.12.26.38.43.66.43h.6l-2.68-6Zm.67 4h-2.2l1.04-2.48L49.99 29ZM33 31h.62c.27 0 .38-.22.38-.5V29h2.12l.9 2H38l-.97-2.22c.55-.33.97-1 .97-1.63v-.4c0-.89-.83-1.75-1.7-1.75H33v6Zm1-5h2.06c.52 0 .94.45.94 1s-.42 1-.94 1H34v-2Zm5.9-1H39v6h.39c.33 0 .61-.28.61-.63v-2.84L41.63 31h.74L44 27.53v2.84c0 .35.28.63.61.63H45v-6h-.9L42 29.56 39.9 25Z" fill="#656565"/><defs><linearGradient id="a" x1="5.44" y1="25.51" x2="8.97" y2="30.72" gradientUnits="userSpaceOnUse"><stop stop-color="#0364B1"/><stop offset=".53" stop-color="#0590D5"/><stop offset="1" stop-color="#175D98"/></linearGradient><linearGradient id="b" x1="5" y1="25" x2="5" y2="31" gradientUnits="userSpaceOnUse"><stop stop-color="#11AAE3"/><stop offset="1" stop-color="#0186CB"/></linearGradient><linearGradient id="c" x1="10.15" y1="25" x2="10.15" y2="31" gradientUnits="userSpaceOnUse"><stop stop-color="#1079B0"/><stop offset="1" stop-color="#1CA4DE"/></linearGradient></defs></svg>