<!-- by TradingView --><svg width="56" height="56" viewBox="0 0 56 56" xmlns="http://www.w3.org/2000/svg"><path fill="#F0F3FA" d="M0 0h56v56H0z"/><path d="M20.15 34.55c4.17 1.1 11.46.46 14.58 0C32.17 36.97 26.41 42 23.9 42c-3.14 0-4.36-1.88-4.36-3.98 0-1.67.4-3.01.61-3.47ZM44 28.82v-1.23c-8.02 1.91-22.19 5.73-14.73 5.73 7.45 0 11.74-1.54 12.96-2.3l1.77-2.2ZM12.05 31.12v1.23l4.3 3.27 1.12-1.74c-2.35-.7-4.6-2.13-5.42-2.76ZM37 16.42l-.65.36C33.09 16.45 18.76 23.45 12 27v-4c1.76-3.83 11.9-7 17.02-7 4.1 0 7.03.28 7.98.42Z" fill="#FCD46B"/><path d="M25.87 10.58a4.22 4.22 0 0 1 4.26 0L39 15.75l-.27.08c-12.78-3.36-22.15.65-26.28 3.4.36-.74.94-1.37 1.68-1.8l11.74-6.85ZM12 32.17v2.68a4.3 4.3 0 0 0 2.13 3.72l3.09 1.8a7.96 7.96 0 0 1-.36-2.24c0-.55.2-1.7.7-3.2A16.14 16.14 0 0 1 12 32.17ZM20.5 35.55c-.14.72-.2 1.39-.2 2.01 0 3.02 1.83 4.44 3.85 4.44 1.67 0 8.5-1.27 15.66-8.9-4.02 1.37-12.05 3.5-19.3 2.45ZM42.22 30.3l-.14.05c-8.27 3.6-15.5 3.4-20.6 2.24.99-2.25 2.72-4.98 5.56-8.43 3.25-3.94 7.8-6.38 10.97-7.6 1.41.24 2.73.55 3.92.9A4.3 4.3 0 0 1 44 21.15v6.7c-.6.87-1.19 1.68-1.78 2.44Z" fill="#EA1C2A"/><path d="m43.43 31.5.57-.3v3.65a4.3 4.3 0 0 1-2.13 3.72l-11.74 6.85a4.22 4.22 0 0 1-4.26 0l-1.73-1h.01c8.56-.12 15.9-7.94 19.28-12.93ZM37.02 16.42c-10.42 3.82-15.7 10.44-18.18 15.44-2.64-.87-4.65-1.9-5.24-2.4A4.23 4.23 0 0 1 12 26.3a5.05 5.05 0 0 1 1.35-3.28c2.16-2.57 6.46-4.9 15.6-6.51a26.5 26.5 0 0 1 8.07-.1Z" fill="#EA1C2A"/></svg>