<!-- by TradingView --><svg width="56" height="56" viewBox="0 0 56 56" xmlns="http://www.w3.org/2000/svg"><path fill="#FED104" d="M0 0h56v56H0z"/><path d="M20 17h-8v1h8v-1Zm-8 2v1.5h8V19h-8Zm0 2.5V23h8v-1.5h-8Zm0 2.3v1.5h8v-1.5h-8Zm0 2.2v2h8v-2h-8Zm0 2.5V31h8v-2.5h-8Zm0 2.97V34h8v-2.53h-8Zm0 2.9V39h8v-4.63h-8ZM23.66 28a2.6 2.6 0 0 0-2.12-1H21v-1h11v2h-8.34Zm.34 3v-1.92c0-.2-.03-.4-.09-.58H32V31h-8Zm0 3v-2.53h8V34h-8Zm0 .37V39h8v-4.63h-8Zm7.97-12.87.03.1V23H21v-1.5h10.97ZM30.55 19c.4.44.75.95 1.02 1.5H21V19h9.55Zm5.2 9c-.36-.64-1.03-1-1.87-1H33v-1h11v2h-8.26Zm.25 3v-1.92c0-.2-.02-.4-.07-.58H44V31h-8Zm0 3v-2.53h8V34h-8Zm0 .37V39h8v-4.63h-8Zm8-9.07v-1.5H33v1.5h11Zm-.02-2.3a6.7 6.7 0 0 0-.27-1.5H33V23h10.98Zm-.66-2.5a6.48 6.48 0 0 0-1.03-1.5H33v1.5h10.32Zm-2.2-2.5H33v-1h4.83c1.21 0 2.34.37 3.3 1ZM29.4 18H21v-1h5.09c1.21 0 2.34.37 3.3 1ZM32 23.8v1.5H21v-1.5h11Z"/></svg>