<!-- by TradingView --><svg width="56" height="56" viewBox="0 0 56 56" xmlns="http://www.w3.org/2000/svg"><path fill="#F0F3FA" d="M0 0h56v56H0z"/><path d="M14.92 25.42c0 .04 0 .04.03.01L16.38 24c-.02 0 0-.01 0 0-.02 0 0 0 0 0h5.2c.06 0 .07.09.02.13L17 27.97v.05l.61 1.54.04.02h.16c.02 0 .03 0 .03-.03.07-.7.25-1.37.63-1.95a3.36 3.36 0 0 1 2.33-1.43c1.49-.26 3.34-.1 4.5.99h.04c.98-1.15 2.6-1.24 4-1.05.47.07.85.18 1.14.33.48.25.85.61 1.12 1.08.01.02.02.02.03 0a3.7 3.7 0 0 1 2.4-1.3 5.57 5.57 0 0 1 2.58.25 3.03 3.03 0 0 1 1.06.6l.15-.73c0-.02 0-.02.02-.02h3.98a.02.02 0 0 0 .02-.02.02.02 0 0 0 0-.02l-.68-.98v-.01a.03.03 0 0 1 0-.03h.02c2.41.04 4.75-.35 7-1.15a15.25 15.25 0 0 0 3.77-2c.04-.04.06-.03.05.02a11.23 11.23 0 0 1-4.76 7.02c-.7.43-1.44.78-2.22 1.08a.05.05 0 0 0-.04.04L44.26 34H40.6l.78-4.27c.08-.47-.37-.43-.44-.05a708.08 708.08 0 0 0-.8 4.19l-.02.13h-3.44l.07-.56a.03.03 0 0 0-.01-.03.03.03 0 0 0-.04 0c-.13.07-.28.13-.45.19-.66.2-1.37.32-2.15.37-1.22.06-2.64-.2-3.38-1.29h-.01a.02.02 0 0 0-.01 0 3.6 3.6 0 0 1-1.92 1.1 6.5 6.5 0 0 1-2.74.09c-.37-.07-.72-.2-1.06-.41-.03-.02-.04-.01-.04.02V34h-3.77v-.4c0-.03 0-.03-.03-.01-.76.47-1.83.52-2.66.22-.1-.04-.3.19-.42.19h-3.17l-1.17-2.88c0-.02-.01-.02-.02 0l-.5 2.8c0 .03 0 .08-.04.08H9.23v-.04a.02.02 0 0 1-.02-.01v-.01l1-5a.03.03 0 0 0-.02-.03 9.26 9.26 0 0 1-4.36-3.53A12.33 12.33 0 0 1 4 21.04c0-.04 0-.05.04-.02a12.94 12.94 0 0 0 4.95 2.52c2.02.55 4.16.58 6.29.46l-.36 1.42Z" fill="#171717"/><path d="M40.66 27.51a.02.02 0 0 0 .01.03h.03c.26-.23.55-.42.88-.56a2.8 2.8 0 0 1 1.27-.23v-.01l.01-.01v-.02l-.74-.9a.02.02 0 0 1 0-.03h.02a17.42 17.42 0 0 0 8.88-2.56c.04-.02.06-.01.04.03-.06.26-.14.51-.24.77a9.37 9.37 0 0 1-2.3 3.36c-.96.9-2.08 1.6-3.36 2.08-.03.02-.06 0-.08-.03l-.4-.67-.01-.02a.04.04 0 0 0-.04 0l-.01.03-.83 4.25c0 .03-.02.05-.05.05h-2.38c-.04 0-.05-.02-.05-.05l.65-3.44a.94.94 0 0 0-.1-.55.61.61 0 0 0-.55-.37c-.36-.03-.68 0-.85.36-.08.17-.15.41-.22.72a73.03 73.03 0 0 0-.6 3.3H37.37a.05.05 0 0 1-.03 0l-.01-.03V33a1777.04 1777.04 0 0 0 .11-1.04c0-.02-.02-.02-.03 0-.2.3-.47.54-.79.73-.44.27-.92.44-1.44.54-.73.13-1.43.16-2.1.1a3.56 3.56 0 0 1-.74-.17 2.33 2.33 0 0 1-1.6-1.64c0-.06-.03-.06-.05 0-.06.21-.18.42-.34.62-.48.61-1.2.96-1.97 1.1-.54.08-1.12.1-1.75.07a5.67 5.67 0 0 1-1.06-.18c-.4-.1-.95-.36-1.11-.75a.04.04 0 0 0-.04-.03.04.04 0 0 0-.03.02.36.36 0 0 0-.03.27l.04.05c.06.03.1.07.1.14a4.11 4.11 0 0 1-.01.29h-2.77a.02.02 0 0 1-.02-.01v-.01l.09-.45c0-.05 0-.06-.05-.03-.67.45-1.43.69-2.28.73a1.5 1.5 0 0 1-.99-.3c-.03-.01-.09-.03-.17-.03a211.8 211.8 0 0 0-3.1-.02.08.08 0 0 1-.02-.04l-1.24-3.07a.06.06 0 0 0-.06-.04l-.03.01-.43.34a.5.5 0 0 0-.19.28l-.54 2.5c0 .03-.02.05-.06.05H9.92a.05.05 0 0 1-.04-.02.05.05 0 0 1-.01-.04l.96-4.48a.03.03 0 0 0-.02-.03 6.29 6.29 0 0 1-1.22-.49 10.44 10.44 0 0 1-4.5-5 2.42 2.42 0 0 1-.15-.73l.02-.01h.02l.02.01a12.1 12.1 0 0 0 3.35 1.68 18.16 18.16 0 0 0 6.04.9.04.04 0 0 1 .01.03l-.6 2.3c-.02.08 0 .1.07.03l2.49-2.12c.04-.04.1-.05.16-.05h3.03c.05 0 .05 0 .02.04l-3.25 2.69a.14.14 0 0 0-.04.15 447.84 447.84 0 0 0 1.37 3.28c.03.13.05.13.08 0 .13-.66.51-1.14 1.13-1.44.4-.19.8-.3 1.22-.32.3-.01.75-.05 1.34-.1.36-.04.98-.22 1.11-.59.1-.26-.1-.42-.34-.47-.52-.09-.9.1-1.14.58-.02.04-.06.06-.12.06a132.1 132.1 0 0 0-2.46-.02.04.04 0 0 1 0-.03c.08-.5.32-.95.7-1.32a3.34 3.34 0 0 1 1.86-.85c.51-.08 1.09-.09 1.72-.04.31.03.63.1.96.2.45.15.8.4 1.06.72.17.21.28.43.33.66.01.06.03.06.06 0 .4-.8 1.23-1.3 2.11-1.45.49-.08 1-.1 1.53-.08.51.03.97.09 1.42.32.64.34.9 1 .92 1.67a.05.05 0 0 1-.02.04.05.05 0 0 1-.03.01h-2.2a.06.06 0 0 1-.05-.04c-.05-.21-.14-.44-.37-.51-.28-.1-.79-.08-.9.26-.19.54.84.56 1.16.6.24.02.43.05.56.08.43.12.88.3 1.2.62a1 1 0 0 1 .24.35c.03.1.06.1.09 0 .23-.9.68-1.8 1.36-2.4a3.68 3.68 0 0 1 2.02-.86 4.83 4.83 0 0 1 1.93.13 2.62 2.62 0 0 1 1.82 1.6h.02v-.02l.28-1.49c0-.02.02-.03.04-.03h2.44a.04.04 0 0 1 .03.02v.03l-.1.46Z" fill="#028238"/><path d="M33.51 29.2a.01.01 0 0 1 0-.02c-.01-.29.1-.56.31-.76.2-.2.49-.32.79-.32h.1a1.16 1.16 0 0 1 .8.3 1.06 1.06 0 0 1 .33.76l-.01.01-2.32.02ZM26.76 30.88H24.7a.07.07 0 0 1-.05-.03.07.07 0 0 1-.02-.05l.23-1.31c0-.05.02-.06.05 0 .26.44.61.74 1.07.9.13.03.33.07.61.11.45.06.9.12 1.31.29.33.13.47.5.23.78-.17.19-.52.22-.77.2-.49-.04-.57-.45-.57-.85 0-.03-.01-.04-.04-.04ZM21.91 30.52a1.25 1.25 0 0 0 .24-.11h.02v.01l.01.02c-.01.51-.26.86-.73 1.05-.27.1-.83.2-1.04-.03-.17-.18-.07-.46.11-.6.32-.26.71-.26 1.13-.28a1.01 1.01 0 0 0 .26-.06ZM35.09 31.12a.1.1 0 0 0-.09.04c-.23.37-.64.46-1.06.43-.42-.02-.66-.23-.71-.63-.03-.15-.01-.3.03-.47l.01-.02H37.62a.06.06 0 0 1 .05.02.06.06 0 0 1 0 .05l-.08.53-.02.03a.06.06 0 0 1-.04.02h-2.44Z" fill="#171717"/></svg>