<!-- by TradingView --><svg width="56" height="56" viewBox="0 0 56 56" xmlns="http://www.w3.org/2000/svg"><path fill="#F0F3FA" d="M0 0h56v56H0z"/><path d="M43.1 36c-.33.07-.6.07-.8-.01-.28-.1-.4-.32-.36-.66.16-1.59.15-3.11-.03-4.57a14.6 14.6 0 0 0-3.6-8.14 12.64 12.64 0 0 0-3.7-2.81 7.36 7.36 0 0 0-1.2-.47c-1.19-.37-2.25-.63-3.18-.77-1.07-.16-2.1-.2-3.1-.1l-2.07.22c-.18.02-.34.06-.47.1-.81.3-1.48.44-2 .4a2.16 2.16 0 0 1-1.72-1 78.23 78.23 0 0 1-1.86-2.87 1.8 1.8 0 0 1-.25-1.02c.01-.36.09-.7.24-1.04.12-.27.33-.49.62-.66a2.51 2.51 0 0 1 .94-.32c1.15-.18 2.02-.27 2.63-.28l2.69.01c2.81.05 5.66.76 8.55 2.12 1.27.6 2.35 1.22 3.22 1.88 1.8 1.35 3.2 3.03 4.23 5.02a18.24 18.24 0 0 1 2.08 7.42 45 45 0 0 1-.09 5.25 5.1 5.1 0 0 1-.18 1.15c-.1.34-.26.7-.46 1.05a.19.19 0 0 1-.13.1Z" fill="#E07F48"/><path d="M12.44 20.54c.12-.24.3-.44.52-.58.27-.17.5-.17.7 0 .21.2.36.35.42.46.1.17.14.36.09.56a8.9 8.9 0 0 0-.26 2.06c0 3.29.91 6.3 2.74 9.03a11.65 11.65 0 0 0 2.76 2.88c1.04.77 2.2 1.38 3.48 1.83a15.96 15.96 0 0 0 9.6.15c.8-.23 1.5-.16 2.06.22.16.11.42.42.75.93.95 1.43 1.5 2.28 1.67 2.55.53.88.46 1.7-.21 2.46-.28.31-.65.52-1.1.6-.03.02-.1.03-.18.05a9.8 9.8 0 0 1-1.55.22c-2.2.07-3.97.05-5.32-.07a21.08 21.08 0 0 1-10.67-4.23c-.39-.3-.76-.64-1.11-1.02l-1.05-1.14a18 18 0 0 1-3.7-9.44 35.76 35.76 0 0 1-.06-4c.02-.5.07-1 .15-1.49.09-.61.16-1.23.22-1.85a.5.5 0 0 1 .05-.18Z" fill="#70AC4E"/><path d="M23.69 30.9c-.35.08-.7.1-1.04.05-.14-.01-.2-.08-.2-.2V27.3c-.01-.63-.35-1-1-1.1a1.97 1.97 0 0 0-1.18.14c-.37.17-.6.45-.7.84-.07.3-.1.61-.1.93 0 1.44.01 2.25.02 2.43.02.22-.08.36-.28.43-.12.03-.34.04-.64.03l-.18-.01c-.18 0-.3-.06-.35-.16a.93.93 0 0 1-.04-.38V25.31c0-.12.07-.2.2-.22.5-.1.93.02 1.3.36.04.04.1.05.15.02.5-.23.95-.37 1.35-.43.47-.07.95-.04 1.43.09.55.15.95.41 1.2.8.19.3.3.75.34 1.32.07 1.2 0 2.39-.21 3.6 0 .03-.03.05-.07.06ZM28.42 25.08c.06.02.1.07.1.14v.93c0 .1-.05.14-.14.16l-.43.03c-.5.03-.82.08-.99.15a.9.9 0 0 0-.48.52 3.54 3.54 0 0 0-.14.79c-.1.9-.11 1.82-.04 2.77.02.2-.07.32-.26.35-.18.03-.4.06-.66.08-.25.02-.38-.1-.38-.38v-5.3c0-.13.09-.22.25-.27.41-.12.73 0 .94.37.05.09.12.11.21.07l.73-.37a2.1 2.1 0 0 1 1.3-.05ZM37.13 30.99c-.26 0-.4-.1-.4-.3.01-.84.02-1.73.01-2.66 0-.64-.06-1.07-.18-1.3-.22-.42-.6-.6-1.16-.56-.43.03-.75.18-.97.46-.2.26-.3.6-.3 1.04 0 .91 0 1.94.04 3.07 0 .16-.08.25-.27.25h-.82c-.15 0-.23-.1-.23-.27.02-1.35.03-2.4.02-3.13 0-.42-.05-.71-.15-.87-.19-.3-.46-.48-.83-.52-.35-.05-.68.03-.99.23-.2.14-.36.32-.45.54a2.4 2.4 0 0 0-.13.74c-.06.98-.05 1.98.02 3 .01.19-.1.28-.33.28h-.71c-.2 0-.3-.1-.3-.32V25.4c0-.13.06-.21.17-.26.37-.14.7-.03 1 .33.07.1.16.1.26.04a2.7 2.7 0 0 1 1.43-.42c.39 0 .67.01.85.05.28.05.52.17.73.34l.23.2c.11.1.23.1.35 0 .4-.35.85-.56 1.34-.64.82-.13 1.46.03 1.92.47.45.43.68 1.06.7 1.9.02 1.94.03 3.03.02 3.26-.01.15-.1.25-.26.3-.09.02-.25.03-.48.02h-.13Z" fill="#7E7E7E"/></svg>