<!-- by TradingView --><svg width="56" height="56" viewBox="0 0 56 56" xmlns="http://www.w3.org/2000/svg"><path fill="#F0F3FA" d="M0 0h56v56H0z"/><path d="M8 27c.8-5.8 8.4-10.43 18-11v.83C16.93 17.38 9.74 21.65 8.93 27H8ZM8 29c.8 5.8 8.4 10.43 18 11v-.83C16.93 38.62 9.74 34.35 8.93 29H8ZM47.07 29c-.8 5.35-8 9.62-17.07 10.17V40c9.6-.57 17.2-5.2 18-11h-.93ZM48 27c-.8-5.8-8.4-10.43-18-11v.83c9.07.55 16.26 4.82 17.07 10.17H48Z" fill="#004EA1"/><path d="M26.53 17h1.15v2.02h-.84C18.54 19.36 12 23.25 12 28h-1c0-5.23 6.83-9.52 15.53-9.96V17Zm1.79 0h1.15v1.04C38.17 18.48 45 22.77 45 28h-1c0-4.75-6.55-8.64-14.84-8.98h-.84V17Zm-1.8 20.96c-4.95-.25-9.3-1.75-12.12-3.96h1.67c2.7 1.69 6.5 2.8 10.77 2.98h.84V39h-1.15v-1.04Zm2.95 0c4.96-.25 9.3-1.75 12.13-3.96h-1.67c-2.7 1.69-6.5 2.8-10.77 2.98h-.84V39h1.15v-1.04ZM18.23 29.08H11L13.9 32c-.53.14-1.56.5-1.56.87 0 .46.05 1.13 1.55 1.13s2.2-.72 3.91-.72 3.75.72 5.14.72c1.4 0 3.32-.72 5.2-.72 1.87 0 2.89.72 5.62.72s3.48-.72 5.03-.72c1.55 0 2.3.46 3.37.46.86 0 1.36-.17 1.5-.25L45 31.85V30h-.9l-.85-2H41v2H18.87l-.64-.92Z" fill="#004EA1"/><path d="M17 23h2.96L25 28h-2.96L17 23Z" fill="#C31429"/><path d="M24.78 23h-1.5L17 28h1.5l6.28-5Z" fill="#C31429"/><path d="M24 23h2.82l2 2.1 1.72-2.1H32l-2.35 2.96V28H27v-2.04L24 23Z" fill="#C31429"/><path fill="#C31429" d="M31 23h4.41v.4H31z"/><path d="M31 25.4c0-1.19 1.16-1.89 1.75-2.1.67-.1 2.17-.3 2.76-.3 2.48 0 3.47.95 3.49 1.43h-1.18c-.1-.34-.94-1.02-2.2-1.02-1.26 0-1.56.85-1.62 1.27v1.23c0 .97.27 1.58 1.4 1.58 1.12 0 1.23-.56 1.23-1.07 0-.41-.03-.39-.05-.42H35v-.56h4V28h-.79l-.28-.77c-.23.26-1.08.77-2.7.77-2.31 0-4.23-1.12-4.23-2.6Z" fill="#C31429"/></svg>