<!-- by TradingView --><svg width="56" height="56" viewBox="0 0 56 56" xmlns="http://www.w3.org/2000/svg"><path fill="#F0F3FA" d="M0 0h56v56H0z"/><path fill-rule="evenodd" d="M15.84 19.38V38h.7V20.64l-.7-1.26Zm1.42 2.56V38h.7V23.2l-.7-1.26ZM9 17h.71v1.23L9 17Zm2.14 3.68-.72-1.24V17h.72v3.68Zm.7 1.21V17h.72v6.13l-.72-1.24Zm1.43 2.45V17h1.03v9.12l-1.03-1.78ZM15 27.33V17h1.2l2.49 3.72V38h.7V21.1l.61-1.22V38h.7V18.48l.75-1.48h.08v7.9l.7-1.18V17h.73v5.5l.7-1.18V17h.72v3.1l.7-1.18V17h.73v1.37h.7V17H28v21h.7V17h.6v21h.7V17h.86v21h.7V17h1.1v3.36h.7V17H34v3.36h.7V17h.61v3.36H36.01V17h.72v3.61c.24.15.49.36.7.67v-4.25c.2.02.39.03.57.06v20.9c.23-.03.46-.06.7-.11V17.2c.3.05.59.13.86.2v20.23c.24-.08.47-.18.7-.29V17.65c.25.1.5.22.72.35v8.2c.25-.2.49-.4.7-.62v-7.13c.26.2.5.42.71.65v5.6c.32-.49.54-.98.7-1.46v-3.2c.15.28.27.55.37.81.2.34.54 1.18.54 2.38 0 2.43-1.5 4.19-2.25 4.77A7.83 7.83 0 0 1 44 33.4c0 4.89-3.7 6.59-5.56 6.6h-9.7L27 38V21.06s-2.69 4.1-4 6.15V40h-5.58L15 38h.01V27.33Zm25.98 1.46v8.16c.24-.16.47-.33.7-.51v-7.15a4.67 4.67 0 0 0-.7-.5Zm1.41 1.25v5.68c.29-.34.52-.71.7-1.12v-3.36a4.93 4.93 0 0 0-.7-1.2ZM37.43 38v-6.55l.07-.23c-.25-.19-.72-.24-1.51-.24H34V38h.7v-3.74c.22-.03.42-.09.61-.16V38h.7v-4.33c.28-.22.52-.5.72-.8V38h.7Zm-4.08 0v-3.46h-.7V38h.7Zm0-9.48h-.7v-3.2h.7v3.2Zm1.35 0H34V22h1.98c1.1 0 1.58.9 1.72 1.35-.03.33-.13.62-.27.87v5a1.6 1.6 0 0 0-.7-.55v-3.66a1.4 1.4 0 0 1-.6.3H36v3.21H35.31V25.3h-.61v3.22Z" fill="#0391DD"/></svg>