<!-- by TradingView --><svg width="56" height="56" viewBox="0 0 56 56" xmlns="http://www.w3.org/2000/svg"><path fill="#F0F3FA" d="M0 0h56v56H0z"/><path d="M28 37c.02 2.16 0 6.5 0 7 13.22 0 16.05-10.1 16-16.32 0-.6-.03-1.16-.08-1.68a67.67 67.67 0 0 0-5.97 7.54c-1.37 2.14-5.68 3.04-7.67 3.46H28Z" fill="url(#a)"/><path d="M36.67 32h-9.11l9.1-7h5.84c1.29 0 1.49.83 1.42 1.25-1.33 7.82-9.75 10.37-13.8 10.75 5.16-1.46 6.51-3.7 6.55-5Z" fill="#DE5524"/><path d="M26.04 13.11c1.96.11 6.1-.15 7.96-2.11-.1 2.77-1.62 8.43-7.96 8.97a8.38 8.38 0 0 0-7.04 8.4A8.65 8.65 0 0 0 26 37v7c-7.9-.84-14-7.59-14-15.78 0-8.2 6.15-14.36 14.04-15.13v.02Z" fill="url(#b)"/><path d="M39 20.42c0-4.14-1.8-8-2.7-9.42 0 6.41-6.24 10.38-8.4 11.93-1.9 1.36-1.9 5.38-1.9 6.7 0 1.34.99 2.37 1.56 2.37C34.02 30.96 39 25.6 39 20.42Z" fill="url(#c)"/><defs><linearGradient id="a" x1="43.97" y1="27.74" x2="27.4" y2="42.04" gradientUnits="userSpaceOnUse"><stop stop-color="#E1D641"/><stop offset="1" stop-color="#85B339"/></linearGradient><linearGradient id="b" x1="32.97" y1="11.91" x2="18.53" y2="40.94" gradientUnits="userSpaceOnUse"><stop stop-color="#00A0D2"/><stop offset=".73" stop-color="#18609A"/></linearGradient><linearGradient id="c" x1="38.95" y1="16.42" x2="25.53" y2="29.77" gradientUnits="userSpaceOnUse"><stop stop-color="#EAC643"/><stop offset="1" stop-color="#DF6F27"/></linearGradient></defs></svg>