<!-- by TradingView --><svg width="56" height="56" viewBox="0 0 56 56" xmlns="http://www.w3.org/2000/svg"><path fill="#F0F3FA" d="M0 0h56v56H0z"/><path fill-rule="evenodd" d="m28 10.16-15 8.9v17.87l15 8.9 15-8.9V19.07l-15-8.9Zm16 8.34L28 9l-16 9.5v19L28 47l16-9.5v-19Z" fill="#9B9E9D"/><path d="m14 34.46 14 8.21V45l-14-8.22v-2.32Z" fill="#9CE978"/><path d="m42 34.46-14 8.21V45l14-8.22v-2.32Z" fill="#33671A"/><path d="M14 34.46 17.92 32 28 37.87 38.08 32 42 34.46l-14 8.21-14-8.21Z" fill="url(#a)"/><path d="m20 30 7.95 3.9V35L20 31.1V30Z" fill="#9CE978"/><path d="m35.9 30-7.95 3.9V35l7.94-3.9V30Z" fill="#33671A"/><path d="m27.95 26 7.94 4-7.94 4L20 30l7.95-4Z" fill="url(#b)"/><path d="m25 17 3 1.73V22l-3-1.73V17Z" fill="#33671A"/><path d="m31 17-3 1.73V22l3-1.73V17Z" fill="#9FE57A"/><path d="m28 11 3 1.5-3 1.56-3-1.55L28 11Z" fill="url(#c)"/><path d="m25 12.5 3 1.56V17l-3-1.56v-2.93Z" fill="#33671A"/><path d="m31 12.5-3 1.56V17l3-1.56v-2.93Z" fill="#9FE57A"/><path d="M22.64 15 14 19.9l1.51 1.01 8.49-5-1.36-.91Z" fill="url(#d)"/><path d="M22.64 22.7 14 27.58l1.51 1.02 8.49-5-1.36-.92Z" fill="url(#e)"/><path d="m15.51 20.91 8.49-5v2.43l-6 3.48v4.97l6-3.18v2.4L15.51 31 14 29.06l1.51-.82V20.9Z" fill="#33671A"/><path d="m14 19.9 1.51 1.01V31L14 29.98V19.9Z" fill="#9CE978"/><path d="m25 22 3 1.54V32l-3-1.54V22Z" fill="#33671A"/><path d="m31 22-3 1.54V32l3-1.54V22Z" fill="#9FE57A"/><path d="M41.45 28.52 35 25l2-1 6 3.72-1.55.8Z" fill="url(#f)"/><path d="M37 20.1V24l-2 1-.03-5.88 2.03.97Z" fill="#2B5916"/><path d="M35 25v-5.5l6.5 3.5v-2.5l-6.1-3.43v-.35L34.44 15 33 16.02v10.33L41.45 31v-2.5L35 25Z" fill="#9FE57A"/><path d="M41.5 20.8 43 20v2l-1.5 1v-2.2ZM41.45 28.5l1.55-.78v2.05L41.45 31v-2.5Z" fill="#2C5E19"/><path d="M41.5 20.96 33 16.02 34.45 15 43 20l-1.5.96Z" fill="url(#g)"/><defs><linearGradient id="a" x1="42" y1="37.34" x2="14" y2="37.34" gradientUnits="userSpaceOnUse"><stop stop-color="#34671C"/><stop offset="1" stop-color="#97DC72"/></linearGradient><linearGradient id="b" x1="35.89" y1="30" x2="20" y2="30" gradientUnits="userSpaceOnUse"><stop stop-color="#34671C"/><stop offset="1" stop-color="#97DC72"/></linearGradient><linearGradient id="c" x1="31" y1="12.53" x2="25" y2="12.53" gradientUnits="userSpaceOnUse"><stop stop-color="#34671C"/><stop offset="1" stop-color="#97DC72"/></linearGradient><linearGradient id="d" x1="16.86" y1="19.06" x2="23.42" y2="15.52" gradientUnits="userSpaceOnUse"><stop stop-color="#8FD868"/><stop offset="1" stop-color="#366720"/></linearGradient><linearGradient id="e" x1="16.86" y1="26.75" x2="23.42" y2="23.21" gradientUnits="userSpaceOnUse"><stop stop-color="#8FD868"/><stop offset="1" stop-color="#366720"/></linearGradient><linearGradient id="f" x1="35.99" y1="24.45" x2="42.53" y2="27.89" gradientUnits="userSpaceOnUse"><stop stop-color="#8FD868"/><stop offset="1" stop-color="#366720"/></linearGradient><linearGradient id="g" x1="35.74" y1="16.87" x2="42.17" y2="20.16" gradientUnits="userSpaceOnUse"><stop stop-color="#8FD868"/><stop offset="1" stop-color="#366720"/></linearGradient></defs></svg>