<!-- by TradingView --><svg width="56" height="56" viewBox="0 0 56 56" xmlns="http://www.w3.org/2000/svg"><path fill="#F0F3FA" d="M0 0h56v56H0z"/><path d="M44 33V22h4.1c1.76 0 3.48.9 3.48 2.85 0 1.18-.74 2.06-1.87 2.34v.11c1.4.08 2.29 1.38 2.29 2.7 0 2.08-1.83 3-3.66 3H44Zm2-1.66h2.03c.96 0 1.97-.37 1.97-1.5 0-1.08-.9-1.73-1.92-1.73H46v3.23Zm0-4.66h1.86c.93 0 1.78-.58 1.78-1.57 0-.99-.83-1.47-1.73-1.47H46v3.04ZM37.53 33C35.74 33 34 31.94 34 30c0-1.35 1.05-2.2 2.08-2.9l1.9-1.3c.55-.36.85-.74.85-1.28 0-.58-.56-.97-1.09-.97-.67 0-1.14.54-1.14 1.12 0 .47.28.95.7 1.46l.68.82 5.02 5.9h-2.05l-4.17-4.79-.9-1.07a3.76 3.76 0 0 1-.97-2.34c0-1.58 1.27-2.65 2.8-2.65 1.4 0 2.72.94 2.72 2.43 0 1.01-.53 1.8-1.42 2.44l-2.16 1.59c-.45.32-.85.85-.85 1.45 0 .95.7 1.53 1.58 1.53.77 0 1.54-.36 2.16-1 .59-.62 1-1.51 1-2.38h1.62c0 .96-.26 1.97-.8 2.77-.34.48-.76.84-1.23 1.18-.75.68-1.8.99-2.8.99ZM26 33V22h7v1.67h-5v2.99h4.52v1.67H28V33h-2ZM13 33v-1.42l4.08-3.7c.74-.7 1.73-1.52 1.73-2.63 0-1.07-.94-1.66-1.92-1.66-1.07 0-1.9.7-1.9 1.8H13c0-2.17 1.9-3.39 3.92-3.39 1.87 0 3.9 1.05 3.9 3.15 0 1.79-1.66 3.14-2.87 4.23L16 31.36h5V33h-8ZM4 33V22h2v5.05h.12L9.78 22h2.19l-3.83 4.94L12 33H9.84L6.9 28.28 6 29.72V33H4Z"/></svg>