<!-- by TradingView --><svg width="56" height="56" viewBox="0 0 56 56" xmlns="http://www.w3.org/2000/svg"><path fill="#F0F3FA" d="M0 0h56v56H0z"/><path d="M28.12 11C36.56 11 43.6 16.97 45 25h-3c-1.33-6.6-6.86-11-13.88-11-8 0-14.12 6.07-14.12 14 0 7.96 6.12 14 14.12 14C35.14 42 40.7 37.62 42 31h3c-1.33 8.07-8.37 14-16.88 14A17.05 17.05 0 0 1 11 28c0-9.39 7.67-17 17.12-17ZM40 31.05l-4.1 6.88-6.27-10.66L26.77 32h4.4c-.28.46-3.36 6-3.36 6l-6.24-10.78-1.38 2.21c-.53.84-1.07 1.67-1.6 2.57h4.1l-3.38 5.95-3.31-5.7L24.39 18l1.25 2.13c.94 1.6 1.87 3.2 2.78 4.8l4.08-6.9L40 31.04Z" fill="#C6A04B"/></svg>