<!-- by TradingView --><svg width="56" height="56" viewBox="0 0 56 56" xmlns="http://www.w3.org/2000/svg"><path fill="#F0F3FA" d="M0 0h56v56H0z"/><path d="M38.78 13a1.36 1.36 0 0 1 1.09.74c.09.18.13.57.13 1.15a53418.15 53418.15 0 0 0-.02 30.1h-.04c-2.14-1.5-4.44-3.13-6.91-4.89a4.9 4.9 0 0 0-1.76-.78 9.92 9.92 0 0 0-1.93-.12H19.23c-.48 0-.84-.03-1.07-.1a3.7 3.7 0 0 1-1.75-1.14 4.96 4.96 0 0 1-1.04-1.8 5 5 0 0 1-.16-1.36l-.03-2.24-.18-18.2c0-.37.12-.69.36-.95.25-.27.56-.4.93-.4h22.49ZM23.9 34.42l-.01.02v.02l8.8 3.05h.04v-.04l-1.49-3a.1.1 0 0 0-.03-.03.1.1 0 0 0-.06-.02H23.9Zm.24-16.4-.02.02L24 33.96a.04.04 0 0 0 .04.04h6.92l.03-.01.01-.03V18.04a.04.04 0 0 0-.04-.04h-6.79l-.03.01Z" fill="url(#a)"/><defs><linearGradient id="a" x1="13.79" y1="9.11" x2="26.65" y2="45.3" gradientUnits="userSpaceOnUse"><stop stop-color="#65B0C9"/><stop offset=".37" stop-color="#4060A4"/></linearGradient></defs></svg>