<!-- by TradingView --><svg width="56" height="56" viewBox="0 0 56 56" xmlns="http://www.w3.org/2000/svg"><path fill="#F0F3FA" d="M0 0h56v56H0z"/><path d="M32 19.54c-.14.09-.28.2-.4.31-.11.1-.22.19-.32.25-.48.31-.97.66-1.46 1l-1.49 1a49.66 49.66 0 0 1-6.42 3.44c-.58.26-1.23.48-1.87.7l-.67.24a20.88 20.88 0 0 1-10.15 1.04.26.26 0 0 1-.17-.09.25.25 0 0 1-.05-.18c.3-3.18 1.58-5.93 3.83-8.25 4.99-5.12 12.6-6.88 19.58-5.6a21.8 21.8 0 0 1 8.5 3.53.06.06 0 0 1-.02.07A21.06 21.06 0 0 0 34 18.29v3.11l.03-.01a15.77 15.77 0 0 1 9.87-1.28c.16.03.16.08.02.13a22.02 22.02 0 0 0-9.13 6.89l-.79.96v3.79l.02.01a.09.09 0 0 0 .08 0l.7-.4c.52-.3 1.05-.62 1.54-.84 3.19-1.45 7.11-1.82 10.59-1.54.05 0 .07.03.07.08-.13 1.89-.75 3.53-1.74 5.2-2.01 3.4-5.59 5.9-9.34 7.23a23.17 23.17 0 0 1-17.56-.75.06.06 0 0 1 .05-.06 61.65 61.65 0 0 0 6.6-2.7c2.52-1.2 4.85-2.7 6.99-4.48v-3.77a35.2 35.2 0 0 1-8.53 5.54 39.4 39.4 0 0 1-9.1 2.92.2.2 0 0 1-.2-.05l-1-.98c-.05-.04-.05-.07.02-.08a37.04 37.04 0 0 0 16.43-6.76l.58-.44c.62-.47 1.24-.93 1.8-1.5v-4.34a37.2 37.2 0 0 1-5.54 3.97c-.25.14-.5.3-.74.45-.34.22-.68.44-1.02.61a35.17 35.17 0 0 1-7.09 2.9c-.57.18-1.15.35-1.68.48-1.83.44-3.7.71-5.58.82a.16.16 0 0 1-.16-.1l-.49-1.35c-.02-.06 0-.1.07-.09 4.38.06 8.4-1.03 12.4-2.68a25.5 25.5 0 0 0 1.73-.83l.94-.47a30.55 30.55 0 0 0 7.16-5.1v-3.24Zm12.22 3.72.3-.13c.38-.18.8-.37 1.23-.47h.08c.03.02.05.03.06.06a12.26 12.26 0 0 1 .95 2.83.12.12 0 0 1-.07.08l-.05.01a27.03 27.03 0 0 0-6.21.16.07.07 0 0 1-.03-.03l-.01-.05.02-.04a13.86 13.86 0 0 1 3.73-2.42Z" fill="#C02D35"/></svg>