<!-- by TradingView --><svg width="56" height="56" viewBox="0 0 56 56" xmlns="http://www.w3.org/2000/svg"><path fill="#F0F3FA" d="M0 0h56v56H0z"/><path d="m31.99 33 3.23-10.4c.59-1.52 1.27-2.55 2.95-2.6H48v5h-5v-1h-2.76l-1.36 5H48v4H31.99Zm-1.15 0 5.1-16h-5.52l-2.3 7.02L25.77 17h-5.63l5.3 16h5.4ZM8 33V20h9.5c1.94.08 2.8.89 3.48 2.6L24.3 33h-5.53l-2.88-9H13v9H8Z" fill="#138B5B"/><path d="M8 35h.45v3H8v-3Zm1.69 0h.52l1.47 2.24V35h.45v3h-.5l-1.5-2.27V38H9.7v-3Zm4.45.5h-.98V35h2.42v.5h-.99V38h-.44v-2.5Zm4.54 2v.5H16.6v-3h2.05v.5h-1.6v.7h1.28v.43h-1.28v.88h1.63Zm3.46.5h-.57l-.8-1.17h-.58V38h-.45v-3h1.24c.56 0 .99.38.99.95 0 .44-.28.74-.68.84l.85 1.21Zm-1.19-1.6c.3 0 .56-.13.56-.44s-.25-.46-.56-.46h-.75v.9h.75ZM23.1 35h.52l1.47 2.24V35h.45v3h-.5l-1.5-2.27V38h-.44v-3Zm4.64 0h.44l1.25 3h-.53l-.27-.75h-1.35L27 38h-.53l1.25-3h.01Zm.72 1.83-.5-1.22-.5 1.22h1Zm2.16-1.33h-.98V35h2.41v.5h-.98V38h-.44v-2.5Zm2.46-.5h.45v3h-.45v-3Zm1.5 1.5a1.5 1.5 0 0 1 .42-1.07 1.43 1.43 0 0 1 1.05-.43 1.4 1.4 0 0 1 1.06.43 1.47 1.47 0 0 1 .42 1.07 1.5 1.5 0 0 1-.43 1.07 1.44 1.44 0 0 1-1.05.43 1.45 1.45 0 0 1-1.47-1.5Zm2.48 0c0-.6-.38-1.07-1-1.07-.63 0-1.01.47-1.01 1.07 0 .6.4 1.06 1 1.06.62 0 1.01-.46 1.01-1.06Zm1.52-1.5h.52l1.47 2.24V35h.45v3h-.5l-1.5-2.27V38h-.44v-3Zm4.64 0h.44l1.25 3h-.53l-.27-.75h-1.35l-.27.75h-.53l1.25-3h.01Zm.73 1.83-.5-1.22-.52 1.22h1.02ZM45.85 35h.45v2.5H48v.5h-2.15v-3Z" fill="#3F3F3F"/></svg>