<!-- by TradingView --><svg width="56" height="56" viewBox="0 0 56 56" xmlns="http://www.w3.org/2000/svg"><path fill="#F0F3FA" d="M0 0h56v56H0z"/><path d="M30.97 15.35c-.15.51-.93.78-1.74.59-.82-.2-1.36-.77-1.2-1.29.15-.51.93-.78 1.74-.59.82.2 1.36.77 1.2 1.29Zm3.12.15c.8.48 1.63.64 1.85.37.23-.28-.24-.89-1.03-1.37-.8-.48-1.63-.64-1.85-.37-.23.28.24.89 1.03 1.37Zm4.87 1.37c-.15.27-.7.1-1.23-.37-.53-.48-.84-1.1-.7-1.37.16-.27.71-.1 1.24.37.53.48.84 1.1.7 1.37Zm-1.09 1.96c-.27.3-.88.19-1.36-.27-.48-.45-.65-1.08-.38-1.39.27-.3.88-.19 1.36.27.48.45.65 1.08.38 1.39ZM32 21.26c-.1.53-.61.85-1.15.7-.55-.14-.92-.69-.83-1.22.1-.53.61-.85 1.15-.7.55.14.92.69.83 1.22Zm3.99 0c-.14.53-.91.85-1.73.7-.81-.14-1.37-.69-1.23-1.22.14-.53.91-.85 1.73-.7.81.14 1.37.69 1.23 1.22Zm1.7.62c.52.26 1.09.09 1.27-.4.17-.48-.1-1.09-.63-1.36-.52-.26-1.09-.09-1.27.4-.17.48.1 1.09.63 1.36Zm1.83-2.53c.48.52 1.1.78 1.36.59.27-.2.1-.78-.38-1.3-.48-.5-1.1-.77-1.36-.58-.27.2-.1.78.38 1.3Zm-4.67-.65c-.36.4-1.26.4-2 .01-.75-.39-1.05-1.02-.68-1.41.36-.4 1.26-.4 2-.01.75.39 1.05 1.02.68 1.41Zm-5.61.24c.81.19 1.6-.08 1.74-.6.16-.51-.38-1.09-1.2-1.28-.81-.19-1.6.08-1.74.6-.16.51.38 1.09 1.2 1.28ZM25.48 16c.82.02 1.5-.42 1.52-.97.01-.55-.65-1.01-1.48-1.03-.82-.02-1.5.42-1.52.97-.01.55.65 1.01 1.48 1.03ZM29 21.03c-.01.55-.7.99-1.52.97-.83-.02-1.5-.48-1.48-1.03.01-.55.7-.99 1.52-.97.83.02 1.5.48 1.48 1.03ZM23.48 20c.82.02 1.5-.42 1.52-.97.01-.55-.65-1.01-1.48-1.03-.82-.02-1.5.42-1.52.97-.01.55.65 1.01 1.48 1.03Z" fill="url(#a)"/><path d="M40.47 19.94c.47.79 1.08 1.24 1.38 1 .29-.25.15-1.08-.32-1.88-.47-.79-1.08-1.24-1.38-1-.29.25-.15 1.08.32 1.88Zm1.13 3.89c-.66.38-1.91.1-2.8-.63-.88-.74-1.06-1.64-.4-2.03.66-.38 1.91-.1 2.8.63.88.74 1.06 1.64.4 2.03ZM28 32a2 2 0 1 0 0-4 2 2 0 0 0 0 4Zm-3.5 6c1.38 0 2.5-.9 2.5-2s-1.12-2-2.5-2-2.5.9-2.5 2 1.12 2 2.5 2Zm-.5-6c0 1.1-1.12 2-2.5 2s-2.5-.9-2.5-2 1.12-2 2.5-2 2.5.9 2.5 2Zm2 10c1.1 0 2-.67 2-1.5s-.9-1.5-2-1.5-2 .67-2 1.5.9 1.5 2 1.5Zm-5.16-3.86c-.42.9-1.6 1.13-2.61.5-1.02-.63-1.5-1.88-1.07-2.78.42-.9 1.6-1.13 2.61-.5 1.02.63 1.5 1.88 1.07 2.78Zm-7.7-5.25c.33.8 1.22 1.27 1.98 1.06.75-.22 1.09-1.04.75-1.84-.34-.8-1.23-1.27-1.99-1.06-.75.22-1.09 1.04-.75 1.84Zm4.76 8.83c-.29.48-1.15.33-1.93-.35-.77-.67-1.16-1.6-.87-2.09.29-.48 1.15-.33 1.93.35.77.67 1.16 1.6.87 2.09Zm-6.63-4.23c.37 1.07 1 1.72 1.41 1.45.4-.27.43-1.35.05-2.43-.37-1.07-1-1.72-1.41-1.45-.4.27-.43 1.35-.05 2.43Zm29.8-10.82c.21.82.8 1.41 1.3 1.32.52-.1.76-.83.56-1.66-.21-.82-.8-1.41-1.3-1.32-.52.1-.76.83-.56 1.66Zm1.56 5.32c-.52-.08-.76-.81-.56-1.64.21-.82.8-1.42 1.3-1.34.52.08.76.81.56 1.64-.21.82-.8 1.42-1.3 1.34Zm1.17-7c-.22.1-.53-.48-.7-1.3-.17-.82-.12-1.57.1-1.68.22-.1.53.48.7 1.3.17.82.12 1.57-.1 1.68Zm.2 2.51c0 .83.22 1.5.5 1.5s.5-.67.5-1.5-.22-1.5-.5-1.5-.5.67-.5 1.5ZM33.96 38.04c.21.79-.5 1.63-1.58 1.89-1.09.25-2.13-.18-2.34-.97-.21-.79.5-1.63 1.58-1.89 1.09-.25 2.13.18 2.34.97Zm6.92-7.55c.32-1.07-.03-2.16-.8-2.43-.76-.27-1.64.38-1.96 1.45-.32 1.07.03 2.16.8 2.43.76.27 1.64-.38 1.96-1.45Zm-2.12 4.87c.52.53.16 1.48-.8 2.11-.98.63-2.2.71-2.72.17-.52-.53-.16-1.48.8-2.11.98-.63 2.2-.71 2.72-.17Zm2.85-1.3c.56-.77.51-1.64-.1-1.95-.62-.31-1.57.06-2.12.83-.56.77-.51 1.64.1 1.95.62.31 1.57-.06 2.12-.83Zm-9.67 0c.27.8-.38 1.64-1.45 1.88-1.07.23-2.15-.22-2.43-1-.27-.8.38-1.64 1.45-1.88 1.07-.23 2.15.22 2.43 1Zm4.18-.14c1.34-.32 2.14-1.44 1.8-2.5-.34-1.05-1.7-1.65-3.04-1.34-1.34.32-2.14 1.44-1.8 2.5.34 1.05 1.7 1.65 3.04 1.34ZM35 28.12c-.06 1.1-1 1.94-2.1 1.88-1.1-.07-1.95-1.01-1.9-2.11.06-1.1 1-1.95 2.1-1.89 1.1.07 1.95 1.01 1.9 2.11Zm.83-1.67c.9.76 2.14.73 2.79-.07.65-.8.45-2.07-.45-2.83-.9-.76-2.14-.73-2.79.07-.65.8-.45 2.07.45 2.83Z" fill="url(#b)"/><defs><linearGradient id="a" x1="22.7" y1="18.01" x2="41.27" y2="19.5" gradientUnits="userSpaceOnUse"><stop stop-color="#2FAD5B"/><stop offset="1" stop-color="#82BC29"/></linearGradient><linearGradient id="b" x1="43.72" y1="23.08" x2="11.2" y2="37.24" gradientUnits="userSpaceOnUse"><stop stop-color="#393E8E"/><stop offset="1" stop-color="#9EDAF2"/></linearGradient></defs></svg>