<!-- by TradingView --><svg width="56" height="56" viewBox="0 0 56 56" xmlns="http://www.w3.org/2000/svg"><path fill="#F0F3FA" d="M0 0h56v56H0z"/><path d="M12 28a16 16 0 0 1 16-16v8.25c-1.58.84-4 2.73-4 5.25s2.42 6.3 4 8.37V44a16 16 0 0 1-16-16Z" fill="url(#a)"/><path d="M35.75 42c-2.3 1.27-4.94 2-7.75 2v-2h7.75Zm2.83-2H28v-2h12.5a16.1 16.1 0 0 1-1.92 2Zm3.28-4H28v-1.5h14.62c-.22.51-.48 1.02-.76 1.5Zm1.63-3.97-12.43.43c.46-.53.8-1.17.9-1.93l11.77.42c-.07.37-.15.73-.24 1.08Zm.5-3.5-12.1.44A9.58 9.58 0 0 0 31.2 27h12.77a16.24 16.24 0 0 1 .02 1.54Zm-.37-4-13.5.47c-.46-.72-.93-1.4-1.39-2H29l14.35.48c.1.34.2.7.27 1.05Zm-1.21-3.5L28 21.48v-2.46l13.54.45c.32.5.6 1.02.87 1.56Zm-2.73-3.97-11.68.9V15.5h9.99c.6.48 1.16 1 1.69 1.56Zm-4.76-3.5L28 14v-2c2.48 0 4.82.56 6.92 1.57Z" fill="#0074C1"/><defs><linearGradient id="a" x1="20" y1="12" x2="20" y2="44" gradientUnits="userSpaceOnUse"><stop stop-color="#FDCA00"/><stop offset=".28" stop-color="#F38C01"/><stop offset=".4" stop-color="#E84D0A"/><stop offset=".53" stop-color="#E70312"/></linearGradient></defs></svg>