<!-- by TradingView --><svg width="56" height="56" viewBox="0 0 56 56" xmlns="http://www.w3.org/2000/svg"><path fill="#F0F3FA" d="M0 0h56v56H0z"/><path d="M36 29.68a13.94 13.94 0 0 1-3.6 9.45c-1.76 2-3.46 2.98-4.76 2.77-1.04-.17-1.99-1.11-2.77-2.84v-.03c-1.44-2.95-1.24-7.55 2.44-11.13 2.65-2.57 3.46-5.24 3.69-8.32l-2-.04a9.96 9.96 0 0 1-3.15 6.8A12.4 12.4 0 0 0 22 34.3c-.56-.7-1.11-1.32-1.6-1.86-1.34-1.49-2.12-2.37-2.28-4.23-.2-2.2.81-3.28 1.6-4.1l-1.37-1.62a6.87 6.87 0 0 0-2.32 5.93c.23 2.57 1.44 3.92 2.84 5.48 1.2 1.35 2.7 3 4.1 6.05 1.12 2.4 2.58 3.76 4.34 4.03.2.03.43.03.66.03 1.86 0 3.91-1.18 5.93-3.48 2.7-3.08 4.2-7.05 4.1-11.25l-2 .4Z" fill="#E40057"/><path fill-rule="evenodd" d="M22 25a4 4 0 1 0 0-8 4 4 0 0 0 0 8Zm0-2a2 2 0 1 0 0-4 2 2 0 0 0 0 4ZM30 20a4 4 0 1 0 0-8 4 4 0 0 0 0 8Zm0-2a2 2 0 1 0 0-4 2 2 0 0 0 0 4ZM37 30a4 4 0 1 0 0-8 4 4 0 0 0 0 8Zm0-2a2 2 0 1 0 0-4 2 2 0 0 0 0 4Z" fill="#E40057"/></svg>