<!-- by TradingView --><svg width="56" height="56" viewBox="0 0 56 56" xmlns="http://www.w3.org/2000/svg"><path fill="#F0F3FA" d="M0 0h56v56H0z"/><path d="M47 32v-8h5v1.6h-3.5v1.6h3.18v1.6H48.5v1.6H52V32h-5ZM37 32v-8h1.5v8H37ZM30 32v-8h1.5v3.2h3.1V24H36v8h-1.4v-3.2h-3.1V32H30ZM16 32v-8h1.88l3.62 5.85V24H23v8h-1.89l-3.61-5.83V32H16ZM39 32v-8h1.88l3.62 5.85V24H46v8h-1.89l-3.61-5.83V32H39Z" fill="#024DA2"/><path d="M13.5 32v-3.19L15 24v8h-1.5Z" fill="#02944C"/><path d="M6.1 31.99 4 24h1.57l1.32 5.01L8.21 24H9.8l1.32 5.01L12.43 24H14l-2.1 8-1.58-.01L9 26.95 7.68 32l-1.57-.01Z" fill="#024DA2"/><path d="m25.49 29.36-.94 1.01c.53 2.04 3.28.17 2.28 0a1.84 1.84 0 0 1-1.34-1.01Z" fill="#02944C"/><path d="M24.1 30.87A3.07 3.07 0 0 0 26.37 32c1.18 0 2.63-.81 2.63-2.28 0-1.96-1.3-2.34-2.3-2.63-.6-.18-1.08-.32-1.08-.76 0-.46.3-.75.8-.75s.77.2.95.56L28.42 25a2.83 2.83 0 0 0-2.13-.99c-1.18 0-2.29.98-2.29 2.28 0 1.92 1.34 2.31 2.36 2.61.61.18 1.1.32 1.1.75 0 .52-.58.74-1.14.74-.56 0-.94-.3-1.08-.75l-1.14 1.24Z" fill="#024DA2"/></svg>