<!-- by TradingView --><svg width="56" height="56" viewBox="0 0 56 56" xmlns="http://www.w3.org/2000/svg"><path fill="url(#a)" d="M0 0h56v56H0z"/><path d="M18.06 18c1.6-2.96 4.47-6 8.17-6H40v7H18.68a6.92 6.92 0 0 0 0 6H30.2a9.8 9.8 0 0 1 8.6 5h1.43c2.34 0 3.77 1.71 3.77 4s-1.43 4-3.77 4h-1.2c-1.53 3.21-4.92 6-8.83 6H16v-7h22.38c.35-.9.62-1.99.62-3 0-1.19-.35-1.98-.82-3H26.23a9.11 9.11 0 0 1-8.17-5h-2.2C13.49 26 12 24.34 12 22c0-2.5 1.48-4 3.87-4h2.19Zm1.16 0H39v-5H26.23c-3.13 0-5.52 2.62-7.01 5Zm-1.62 1h-1.73C13.99 19 13 20.25 13 22s.99 3 2.87 3h1.73a7.79 7.79 0 0 1 0-6Zm1.62 7a8.1 8.1 0 0 0 7.01 4h11.4a8.83 8.83 0 0 0-7.43-4H19.22Zm20.05 5c.42 1.04.73 1.82.73 3 0 1-.25 2.1-.56 3h.79c1.83 0 2.77-1.3 2.77-3s-.94-3-2.77-3h-.96Zm-1.36 7H17v5h13.2c3.35 0 6.25-2.37 7.71-5Z"/><defs><linearGradient id="a" x1="10" y1="7.5" x2="48" y2="46" gradientUnits="userSpaceOnUse"><stop stop-color="#FFB9B9"/><stop offset=".45" stop-color="#EEBCD9"/><stop offset="1" stop-color="#CCBCFD"/></linearGradient></defs></svg>