<!-- by TradingView --><svg width="56" height="56" viewBox="0 0 56 56" xmlns="http://www.w3.org/2000/svg"><path fill="#F0F3FA" d="M0 0h56v56H0z"/><path d="M27.67 12c4.36 0 6.04 1 6.33 1.5-10.99 0-13.84 6.06-13.84 10.96 0 4.89 2.68 7.53 6.05 7.53 4.94 0 6.42-4.45 6.96-4.45s.83 1.64.83 2.81C34 38.61 26.41 41 23.13 41 19.85 41 12 38.39 12 27.54 12 16.7 22.22 12 27.67 12Z" fill="#DF2422"/><path d="M28.33 44c-4.36 0-6.04-1-6.33-1.5 10.99 0 13.84-6.06 13.84-10.96 0-4.89-2.68-7.53-6.05-7.53-4.94 0-6.42 4.45-6.96 4.45S22 26.82 22 25.65C22 17.39 29.59 15 32.87 15 36.15 15 44 17.61 44 28.46 44 39.3 33.78 44 28.33 44Z" fill="#08287E"/></svg>