<!-- by TradingView --><svg width="56" height="56" viewBox="0 0 56 56" xmlns="http://www.w3.org/2000/svg"><path fill="#F0F3FA" d="M0 0h56v56H0z"/><path fill-rule="evenodd" d="M15 23h-3v1.5h1.5v1.15l-.3.01c-1.85 0-2.6-1.06-2.6-2.22 0-1.16.88-2.1 2.6-2.1.63 0 1.15.12 1.56.35v-1.5A6.1 6.1 0 0 0 13.2 20C10.42 20 9 21.52 9 23.4c0 1.87 1.22 3.6 4.2 3.6.7 0 1.29-.1 1.8-.26V23Zm1 1.59V20h1.5v4.36c0 .74.74 1.35 1.5 1.35s1.5-.6 1.5-1.35V20H22v4.59c0 1.33-1.1 2.41-2.47 2.41h-1.06A2.44 2.44 0 0 1 16 24.59ZM22 27h1.75l.54-1.7h2.42l.54 1.7H29l-2.59-7H24.6L22 27Zm3.5-5.52.8 2.52h-1.6l.8-2.52ZM30 20v7h1.5v-4.58L34.63 27H36v-7h-1.5v4.46L31.51 20H30Zm7 1.5V20h4.98v1.1l-3.25 4.4h3.25V27h-5.35v-1.11l3.47-4.39H37Zm6 5.5v-7h3.86v1.5H44.5v1.25h2.07v1.5H44.5v1.25H47V27h-4ZM8 29v7h1.5v-5.56L11.42 36h1.15l1.93-5.56V36H16v-7h-2.3L12 33.77 10.3 29H8Zm9 0v7h4v-1.5h-2.5v-1.25h2.07v-1.5H18.5V30.5H21V29h-4Zm8.25 0H22v7h3.25A2.8 2.8 0 0 0 28 33.16v-1.32A2.8 2.8 0 0 0 25.25 29Zm-.54 1.5H23.5v4h1.2c.77 0 1.8-.73 1.8-1.62v-.76c0-.9-1.03-1.62-1.8-1.62ZM30.5 29H29v7h1.5v-7Zm16.07 0H45v7h4v-1.4h-2.43V29Zm-11.14 0c.57 0 1.1.14 1.57.4v1.49a2.1 2.1 0 0 0-1.43-.56c-1.17 0-2.13.97-2.13 2.17s.96 2.18 2.13 2.18a2.1 2.1 0 0 0 1.43-.56v1.5c-.47.24-1 .38-1.57.38A3.46 3.46 0 0 1 32 32.5c0-1.93 1.54-3.5 3.43-3.5Zm3.8 7H37.5l2.57-7h1.85l2.58 7h-1.75l-.46-1.5H39.7l-.46 1.5Zm2.6-3L41 30.32 40.17 33h1.65Z" fill="#009FDA"/></svg>