<!-- by TradingView --><svg width="56" height="56" viewBox="0 0 56 56" xmlns="http://www.w3.org/2000/svg"><path fill="#F0F3FA" d="M0 0h56v56H0z"/><path d="M29.42 16.6a44.2 44.2 0 0 0-13.72 7c-.28.18-.57.23-.88.14-.3-.08-.53-.26-.68-.53a2.3 2.3 0 0 1-.14-.99v-5.34c0-.84.1-1.42.29-1.74.27-.46.65-.78 1.15-.98.27-.1.75-.16 1.42-.16 6.12.02 12.17.02 18.16.01.26 0 .43.13.5.38.11.4-.12.67-.69.79a56.2 56.2 0 0 0-5.41 1.43Z" fill="#007936"/><path d="m42 28-.01 9.73c0 1.09-.11 1.83-.32 2.21-.28.52-.75.86-1.42 1.01-.37.1-.92.05-1.64-.1a51.02 51.02 0 0 1-4.53-1.24 32.34 32.34 0 0 1-13.84-8.73A4.12 4.12 0 0 1 19 27.99c0-1.04.41-2 1.24-2.88 3.88-4.1 8.5-7 13.85-8.73 1.56-.5 3.07-.9 4.53-1.23a4 4 0 0 1 1.64-.1c.66.15 1.14.49 1.42 1 .2.4.31 1.13.31 2.22L42 28Z" fill="#83BA28"/><path d="M29.41 39.4c2.07.64 3.87 1.12 5.42 1.43.57.12.8.38.69.8-.08.24-.24.37-.5.37-5.99-.02-12.04-.02-18.17 0-.67 0-1.14-.05-1.41-.16-.5-.2-.89-.53-1.16-.98-.18-.32-.28-.9-.28-1.74v-5.34c0-.49.05-.82.14-1 .15-.27.38-.44.68-.53.31-.08.6-.03.88.14a15.06 15.06 0 0 1 1.24.91 44.2 44.2 0 0 0 12.47 6.1Z" fill="#007936"/></svg>