<!-- by TradingView --><svg width="56" height="56" viewBox="0 0 56 56" xmlns="http://www.w3.org/2000/svg"><path fill="url(#a43rlfu2o)" d="M0 0h56v56H0z"/><path d="M7.46 32c-.27 0-.69-.03-.96-.08v2.86c0 .06-.02.11-.06.16a.19.19 0 0 1-.14.06H5.21a.2.2 0 0 1-.14-.06.25.25 0 0 1-.07-.16v-9.16c0-.18.04-.26.31-.33.7-.19 1.43-.28 2.15-.29C9.1 25 10 26.05 10 27.87v1.26C10 30.9 9.17 32 7.46 32Zm1.04-4.13c0-.8-.32-1.37-1.04-1.37-.27 0-.69.01-.96.05v3.89c.27.04.69.06.97.07.71 0 1.03-.6 1.03-1.38v-1.26ZM11.83 32H10.7a.18.18 0 0 1-.14-.07.3.3 0 0 1-.06-.18v-8.52c0-.06.03-.12.06-.16a.17.17 0 0 1 .14-.07h1.13c.04 0 .09.03.12.07.03.04.05.1.05.16v8.62l-.05.07a.2.2 0 0 1-.05.06.15.15 0 0 1-.07.02ZM15 32c-1.61 0-2.5-1.2-2.5-3.09v-.83c0-1.88.88-3.08 2.5-3.08s2.5 1.2 2.5 3.08v.83c0 1.9-.88 3.09-2.5 3.09Zm1-3.92c0-.96-.42-1.44-1-1.44-.57 0-1 .48-1 1.44v.83c0 .97.42 1.46 1 1.46.58 0 1-.5 1-1.46v-.83ZM23.99 25.28l-1.4 5.46C22.32 31.8 21.64 32 21 32c-.65 0-1.32-.2-1.6-1.26l-1.38-5.46a.16.16 0 0 1-.01-.08.2.2 0 0 1 .05-.14.18.18 0 0 1 .06-.04.17.17 0 0 1 .07-.02h1.46c.1 0 .2.1.23.25l.95 4.72c.04.18.1.25.17.25.08 0 .14-.07.18-.25l.95-4.72c.03-.14.12-.25.23-.25h1.46c.03 0 .05 0 .07.02.03 0 .05.02.07.04a.22.22 0 0 1 .05.15l-.01.07ZM29.29 29H26v.02c0 .68.34 1.39 1.13 1.39.63 0 1.52-.06 1.92-.1h.03c.11 0 .19.05.19.18v.9c0 .2-.04.28-.21.32-.67.2-1.36.3-2.05.29-1.21 0-2.51-.76-2.51-3.05v-.74c0-1.9.94-3.21 2.53-3.21 1.64 0 2.47 1.33 2.47 3.12v.59c0 .17-.08.29-.21.29ZM28 27.95c0-.88-.44-1.45-1-1.45s-1 .59-1 1.45V28h2v-.05ZM32.86 26.61h-.08c-.43.01-.9.16-1.28.42v4.72a.3.3 0 0 1-.05.17.19.19 0 0 1-.14.08h-1.1a.2.2 0 0 1-.15-.08.3.3 0 0 1-.06-.17v-6.51c0-.07.02-.13.06-.17a.17.17 0 0 1 .13-.07h1.09c.05 0 .1.02.13.07.04.04.06.1.06.17v.34c.36-.38.87-.58 1.34-.58.05 0 .1.02.13.07.04.04.06.1.06.17v1.14c0 .11-.05.23-.14.23Z" fill="#fff"/><path d="M37.47 32c-.73 0-1.45-.1-2.16-.3-.27-.07-.31-.15-.31-.34v-8.13c0-.06.03-.12.07-.16a.2.2 0 0 1 .14-.07h1.09c.05 0 .1.02.14.07.04.04.06.1.06.16v1.85c.27-.04.69-.07.96-.08 1.71 0 2.54 1.3 2.54 3.13v.9c0 1.88-.9 2.97-2.53 2.97Zm1.03-3.87c0-.82-.32-1.58-1.03-1.58-.28 0-.7.02-.97.06v3.78c.27.04.69.07.97.07.71 0 1.03-.6 1.03-1.43v-.9ZM45.28 32h-.96a.2.2 0 0 1-.15-.07.25.25 0 0 1-.06-.16v-.3c-.43.36-1.22.54-1.76.53-.94 0-1.85-.5-1.85-2.04v-.1c0-1.4.81-2.36 2.66-2.36H44v-.43c0-.46-.55-.46-1.06-.46-.7 0-1.46.04-1.8.08h-.05l-.08-.01a.17.17 0 0 1-.07-.05.2.2 0 0 1-.04-.07.21.21 0 0 1-.01-.08v-.97c0-.06.02-.12.06-.17a.24.24 0 0 1 .14-.1 7.97 7.97 0 0 1 1.88-.24c1.56 0 2.53.69 2.53 2.42v4.34a.25.25 0 0 1-.06.17.21.21 0 0 1-.07.05.2.2 0 0 1-.09.02Zm-1.25-3h-.87c-.76 0-1.16.27-1.16.85v.1c0 .5.44.6.9.6.3-.01.86-.1 1.13-.26V29ZM52 25.26l-1.82 6.78c-.54 1.82-.57 2.93-2.42 2.96a5.2 5.2 0 0 1-1.32-.18c-.12-.04-.23-.08-.23-.2v-.9c0-.07.03-.12.07-.16.04-.04.1-.06.15-.06h.02c.36.02 1 .09 1.36.09.4 0 .63-1.08.73-1.69l.1-.55h-.17c-.4 0-.75-.07-1.02-1.04l-1.44-5.05a.21.21 0 0 1-.01-.08c0-.11.07-.18.22-.18h1.45c.05 0 .1.03.14.07.04.04.06.09.06.14l.99 4.22c.03.16.06.21.13.21h.1l1.01-4.43c.01-.05.04-.1.08-.15.05-.04.1-.06.16-.06h1.45c.06 0 .1.02.15.06.03.04.06.09.06.14v.06Z" fill="#FDB71C"/><defs><linearGradient id="a43rlfu2o" x1="10.42" y1="9.71" x2="68.15" y2="76.02" gradientUnits="userSpaceOnUse"><stop stop-color="#1A1E21"/><stop offset="1" stop-color="#06060A"/></linearGradient></defs></svg>