<!-- by TradingView --><svg width="56" height="56" viewBox="0 0 56 56" xmlns="http://www.w3.org/2000/svg"><path fill="#F0F3FA" d="M0 0h56v56H0z"/><path d="M33.8 20.87c.03.05.07.1.12.13.05.03.1 0 .17 0h15.76a.15.15 0 0 1 .14.21l-6.36 15.51a.41.41 0 0 1-.42.28H6.15a.15.15 0 0 1-.12-.07.16.16 0 0 1-.02-.14l6.42-15.6c.04-.1.1-.19.21-.19h1.48c.15 0 .3-.04.36-.17a10.9 10.9 0 0 1 19.32.04ZM24.48 28l.05.02.03.03a.1.1 0 0 1 0 .09l-1.25 2.95c-.27.65-.75.95-1.45.9l-.43-.03c-.68-.04-.9-.39-.63-1.02l4.19-10.17c.23-.57.65-.83 1.26-.78l.66.07c.6.05.8.36.56.92l-1.3 2.86a.11.11 0 0 0 .01.1l.04.05.06.01h6.75c.15 0 .2-.05.17-.2-2.06-9.02-14.07-9.8-17.65-1.33a9.35 9.35 0 0 0-.03 6.99c1.5 3.46 4.23 5.1 8.02 5.54a.28.28 0 0 0 .3-.18l3.6-8.63c.06-.13.01-.2-.13-.2h-3c-.11 0-.18.06-.22.15l-.64 1.66a.16.16 0 0 0 .07.2h.96Zm7.07-.52c.34 0 .44.15.31.47L29 34.78c-.06.14-.02.22.14.22h1.22a.3.3 0 0 0 .31-.21l2.79-6.62c.19-.47.53-.7 1.03-.7h.42c.38 0 .5.17.35.52l-2.85 6.8c-.06.14-.02.2.14.2h1.2a.38.38 0 0 0 .35-.23c1.62-3.96 2.5-5.91 2.75-6.49.24-.54.7-2.03-.22-2.2a3.6 3.6 0 0 0-2.53.43.2.2 0 0 1-.1.03.2.2 0 0 1-.11-.04c-.57-.42-1.13-.58-1.67-.47l-.96.2a.42.42 0 0 1-.27-.01 2.78 2.78 0 0 0-1.61-.2.26.26 0 0 0-.2.17l-3.57 8.53c-.08.2-.02.29.2.29h1.03c.1 0 .2-.02.27-.07a.49.49 0 0 0 .18-.22l2.79-6.62a.9.9 0 0 1 .9-.61h.57Zm9.89 6.05a.12.12 0 0 0-.02-.11.12.12 0 0 0-.1-.05h-3.05a.12.12 0 0 1-.11-.17l2.95-7.04A.12.12 0 0 0 41 26h-1.42a.12.12 0 0 0-.11.07l-3.66 8.75a.12.12 0 0 0 .05.15l.06.03h4.84l.06-.03a.12.12 0 0 0 .05-.06l.57-1.38Z" fill="#1B92CE"/></svg>