<!-- by TradingView --><svg xmlns="http://www.w3.org/2000/svg" width="56" height="56"><path fill="#F0F3FA" d="M0 0h56v56H0z"/><path d="M41.52 26.77c.3.17.65.25 1 .23.47 0 .82-.1 1.06-.28a.86.86 0 00.26-.3.8.8 0 00.1-.37.65.65 0 00-.07-.3.69.69 0 00-.2-.26 2.42 2.42 0 00-.91-.34c-.44-.09-.69-.16-.76-.2a.17.17 0 01-.06-.07.16.16 0 01-.03-.07l.03-.1a.18.18 0 01.07-.05.96.96 0 01.46-.09.75.75 0 01.4.09c.09.06.16.15.18.26l.78-.14a1 1 0 00-.43-.56c-.2-.12-.52-.22-.94-.22-.45 0-.78.12-.99.28a.8.8 0 00-.24.28.74.74 0 00-.08.34.7.7 0 00.1.37.75.75 0 00.27.28c.18.1.6.22 1.26.36.1.01.19.04.27.1a.2.2 0 01.06.14.22.22 0 01-.03.11.24.24 0 01-.08.09.88.88 0 01-.48.1.78.78 0 01-.45-.1.55.55 0 01-.2-.34l-.83.11c.07.27.24.5.48.64zm-1.06-2.55a1.61 1.61 0 00-.9-.22 1.55 1.55 0 00-.59.09c-.19.06-.36.17-.5.3-.27.26-.4.66-.4 1.13s.13.83.4 1.09a1.45 1.45 0 001.08.39c.34.02.67-.08.95-.26a1.28 1.28 0 00.48-.77l-.8-.12a.72.72 0 01-.21.42.58.58 0 01-.39.12.64.64 0 01-.27-.05.6.6 0 01-.23-.16c-.13-.13-.18-.37-.18-.7 0-.31.06-.56.18-.7a.66.66 0 01.49-.19.55.55 0 01.37.12c.1.08.17.2.19.33l.8-.1a1.35 1.35 0 00-.47-.72zM37.63 24h-.82v3h.82v-3zm0-1h-.82v.79h.82V23zm-3.38 1.8a.6.6 0 01.22-.15.64.64 0 01.26-.06.67.67 0 01.28.06.63.63 0 01.23.16c.14.19.21.42.2.65.01.23-.06.55-.21.73a.65.65 0 01-.23.16.69.69 0 01-.28.05.64.64 0 01-.26-.05.6.6 0 01-.21-.15c-.13-.14-.2-.46-.2-.76s.07-.5.2-.64zm-.93 2.49a.74.74 0 00.09.35.79.79 0 00.24.28c.22.16.6.24 1.12.24.23 0 .47-.02.69-.08.16-.04.3-.12.43-.22a.92.92 0 00.26-.4c.07-.24.1-.5.1-.74V24h-.78v.47a1.12 1.12 0 00-.41-.34 1.21 1.21 0 00-.53-.13 1.3 1.3 0 00-.51.1c-.16.07-.3.17-.43.29-.25.25-.37.61-.37 1.09-.01.34.09.76.29 1.04.1.15.25.28.42.36.18.09.37.13.56.12.19 0 .37-.04.53-.12.16-.08.3-.2.4-.34v.42c0 .12 0 .23-.04.35a.36.36 0 01-.16.19.99.99 0 01-.48.08.68.68 0 01-.37-.07.3.3 0 01-.08-.1.28.28 0 01-.03-.11l-.93-.1v.09zm-1.92-2.68c.46 0 .75.42.75.87s-.28.92-.75.91c-.47 0-.76-.46-.76-.9 0-.45.29-.89.76-.88zm0 2.4c.82.02 1.62-.63 1.6-1.5.02-.85-.78-1.54-1.6-1.51-.84-.01-1.6.62-1.6 1.48-.03.91.7 1.53 1.6 1.52zm-2-4.01h-.82v4h.82v-4zm-2.81 1.61c.46 0 .75.4.75.87 0 .46-.28.92-.76.92-.47 0-.75-.47-.75-.91 0-.45.29-.88.76-.88zm0 2.39c.83.03 1.62-.63 1.6-1.48.02-.86-.78-1.55-1.6-1.52-.84-.01-1.6.63-1.6 1.49-.03.92.73 1.52 1.6 1.51zm-2.01-3h-.82v3h.82v-3zm0-1h-.82v.78h.82V23zm-3.32 2.3c.25-.01.51 0 .77.05a.55.55 0 01.27.18.49.49 0 01.09.3.47.47 0 01-.12.34.56.56 0 01-.31.15 4.31 4.31 0 01-.6.03h-.8V25.3h.7zm-.2-1.65c.4 0 .65 0 .73.02.24 0 .45.24.44.51 0 .27-.24.43-.48.45l-.63.01h-.56v-.99h.5zM19.7 27h1.45c.55 0 .9 0 1.04-.02.2-.02.4-.08.58-.19.16-.1.29-.24.37-.4.09-.16.14-.34.14-.52a.9.9 0 00-.21-.6 1.12 1.12 0 00-.6-.35 1 1 0 00.6-.93c0-.8-.97-.99-1.66-.99h-1.72v4zm-2.03-3h-.82v3h.82v-3zm0-1h-.82v.78h.82V23zm-3.96 4l.95-1.35.95 1.35h1.04l-1.46-2.01L16.52 23h-1l-.84 1.35-.86-1.35h-1.01l1.32 1.96L12.68 27h1.03zm-1.22 0v-3h-.81v1.3c.01.26 0 .52-.07.77a.55.55 0 01-.22.26.68.68 0 01-.38.1.54.54 0 01-.3-.07.4.4 0 01-.17-.22 3.26 3.26 0 01-.04-.73V24h-.82v1.9c-.01.22.03.44.11.64a.77.77 0 00.36.35 1.35 1.35 0 001.14 0c.18-.1.33-.16.44-.31V27h.76zm-6.53 0l.84-2.92.85 2.93h.92L9.6 23h-.87l-.66 2.82L7.33 23H6.31l-.79 2.78L4.88 23H4l1.02 4h.94z" fill="#231815"/><path d="M47.8 23l-6.53 8h4.2L52 23h-4.2z" fill="#FDD000"/><path d="M36.28 29l-1.63 2h10.83l1.63-2H36.27z" fill="#6FBA2C"/><path d="M36.28 29l-5.7 7h3.8l5.72-7h-3.82z" fill="#37BEF0"/><path d="M38.46 31l1.64-2h-3.82l-1.63 2h3.81z" fill="#00A33E"/><path d="M47.1 29h-4.2l-1.63 2h4.2l1.13-1.38.5-.62z" fill="#92AB23"/><path d="M4.25 36l2.2-3h30.39l-2.47 3H4.25z" fill="#0068B7"/><path fill="#414141" d="M4 29h30v2H4z"/></svg>