<!-- by TradingView --><svg width="56" height="56" viewBox="0 0 56 56" xmlns="http://www.w3.org/2000/svg"><path fill="#01415C" d="M0 0h56v56H0z"/><path d="m4.11 23 4.3.01c1.64 0 2.96.4 3.95 1.2A4.59 4.59 0 0 1 14 28c0 1.63-.54 2.9-1.63 3.78a6.1 6.1 0 0 1-3.95 1.2c-1.83 0-3.26.02-4.3.03-.06 0-.1-.03-.1-.1-.02-.07.01-.11.08-.13l.75-.17c.33-.08.5-.28.53-.62.02-.32.03-1.65.03-3.98 0-2.34-.02-3.67-.04-3.99-.03-.33-.2-.54-.53-.61l-.75-.17c-.07-.02-.1-.06-.09-.13 0-.07.05-.1.11-.1Zm29.74 0c2.74 0 5.47.98 6.04 4 .22 1.17.1 2.24-.33 3.21a4.36 4.36 0 0 1-2.27 2.24c-.83.36-1.92.54-3.27.54H19.96c-.08 0-.12-.03-.13-.1 0-.08.03-.13.1-.14l.8-.14c.14-.02.25-.1.31-.22a.4.4 0 0 0 .02-.4l-.78-1.64a.29.29 0 0 0-.27-.17h-3.15c-.1 0-.17.05-.22.13-.3.59-.49 1.1-.55 1.53-.07.5.32.8 1.19.86.07 0 .1.05.1.12v.09c0 .05-.02.08-.08.08h-3.15c-.08 0-.13-.04-.15-.12-.01-.07.02-.13.1-.15.63-.25 1.15-.8 1.54-1.64l3.7-8.02a.09.09 0 0 1 .08-.06.1.1 0 0 1 .1.05l4.25 9.06c.06.14.16.24.29.33.53.33 1.06.36 1.59.09.26-.14.35-.35.35-.63v-7.75c0-.1 0-.2-.05-.29-.23-.32-.61-.47-1.16-.44-.09 0-.13-.04-.13-.13v-.1c0-.04.02-.2.06-.2l9.13.01Zm12.54 0a5.6 5.6 0 0 1 3.92 1.39 4.63 4.63 0 0 1 1.69 3.5 4.6 4.6 0 0 1-1.53 3.57A5.56 5.56 0 0 1 46.6 33a5.6 5.6 0 0 1-3.92-1.39 4.63 4.63 0 0 1-1.69-3.5 4.6 4.6 0 0 1 1.53-3.57c1.05-1 2.34-1.5 3.86-1.54Zm-17.05.4c-.47 0-.84.41-.84.91v7.5c0 .5.37.9.84.9h.82c.47 0 .84-.4.84-.9v-7.5c0-.5-.37-.9-.84-.9h-.82Zm4.51.32c-.24 0-.35.1-.35.31l.06 8.14c0 .2.12.31.36.31h.35c.9 0 1.66-.35 2.3-1.03.63-.69.94-1.5.93-2.47l-.02-1.81c0-.96-.33-1.77-.97-2.45a3.05 3.05 0 0 0-2.31-1h-.35ZM8.12 23.6c-.21 0-.32.1-.32.32v8.23c0 .21.1.32.32.32h.3c.8 0 1.48-.35 2.05-1.03.56-.69.84-1.52.84-2.48V27.1c0-.97-.28-1.8-.84-2.48a2.56 2.56 0 0 0-2.04-1.03h-.31Zm38.38-.04c-2 0-3 1.47-3 4.42 0 2.96 1 4.43 3 4.43s3-1.47 3-4.43c0-2.95-1-4.42-3-4.42Zm-28 2.84a.1.1 0 0 0-.1.07l-1.37 3.01c-.05.1-.01.16.1.16l2.7.02c.1 0 .14-.05.1-.16l-1.33-3.03a.1.1 0 0 0-.1-.07Z" fill="#B08B3A"/></svg>