<!-- by TradingView --><svg width="56" height="56" viewBox="0 0 56 56" xmlns="http://www.w3.org/2000/svg"><path fill="#F0F3FA" d="M0 0h56v56H0z"/><path d="M34.24 11c.25.02.52.1.8.21.67.27 1.27.62 1.78 1.06l.56.75a9.67 9.67 0 0 1 1.83 4.95c.43 5.58-4.09 10.56-8.33 13.76-.14.1-.22.2-.26.29a.57.57 0 0 0-.02.38c.1.3.32.86.67 1.72l.81 1.9.05.06a.2.2 0 0 0 .25.01c1.7-1.3 3.27-2.72 4.7-4.26a20.02 20.02 0 0 0 3.38-5.15c.81-1.8 1.2-3.7 1.17-5.7a10.3 10.3 0 0 0-3.45-7.76c.04-.02.1 0 .18.04a8.58 8.58 0 0 1 3.05 2.84v.02l.04.02c.01 0 .03 0 .03.02 3.78 3.07 3.83 10.05 3.24 14.05a26.86 26.86 0 0 1-1.88 4.55 20.93 20.93 0 0 1-7.98 8.2 5.18 5.18 0 0 1-.66 1.15l-.85.02c-.18.01-.3-.06-.37-.2-.22-.52-.42-1-.59-1.48l-2.91-7.5-.73-1.64-1.2-3.17-1.42-3.6c-.08-.2-.03-.35.16-.44 3.5-1.8 6.7-5.33 6.32-9.42-.24-2.56-1.86-4.03-4.42-4.4-3.33-.5-6.27.08-8.84 1.73-7.57 4.85-9.29 16.1-4.66 23.35.6.95 1.4 1.9 2.14 2.72.64.7 1.07 1.13 1.29 1.3A18.28 18.28 0 0 0 25 44.53c.13.03.28-.04.43-.21.06.05.1.12.14.2l.09.1c.03.02.08.04.12.04l.87.12a.05.05 0 0 1 .04.03.05.05 0 0 1 0 .04l-.1.15c-.51-.05-1.03-.12-1.57-.22a13.55 13.55 0 0 1-3.35-1.04 17.84 17.84 0 0 1-9.59-10.3c-2.81-7.56-.08-15.4 6.9-19.94a13.68 13.68 0 0 1 9.8-2.16c3.45.56 5.83 3.09 5.47 6.62-.33 3.17-2.46 6.06-5.02 7.96l-.54.4c-.3.22-.35.36-.22.7.37.9.72 1.83 1.08 2.75l.23.56a.15.15 0 0 0 .16.09l.06-.02c4.31-2.88 8.62-7.7 8.16-13.12a8.1 8.1 0 0 0-1.91-4.57c-.54-.64-1.68-1.03-2.09-1.6a.07.07 0 0 1 .03-.1l.04-.01Zm7.7 6.76a16.18 16.18 0 0 1 .64 5.31c-.1.83-.19 1.43-.3 1.81a21.57 21.57 0 0 1-9.18 12.5c-.23.15-.34.3-.24.56l1.17 3.23c.1.28.32.5.6.29a31.18 31.18 0 0 0 7.16-8 15.35 15.35 0 0 0 1.14-14.55l-.99-1.15Z" fill="url(#a)"/><path d="M24.64 15.6c.56-.05 1.17.06 1.82.33.94.4 1.35 1.11 1.2 2.14a5.54 5.54 0 0 1-1.68 3.1 15.28 15.28 0 0 1-4.49 3.35l-.8.4 2.27 7.09c.3.62.55 1.3.75 2.03l.58 1.66 1.22 3.36 1.57 4.5a2.17 2.17 0 0 0 .64 1.27v.03l-.02.03-.03.01-1.08.1.1-.15a.05.05 0 0 0 .01-.04l-.01-.02-.03-.01-.87-.12a.27.27 0 0 1-.2-.15.75.75 0 0 0-.15-.2l-.18-.24a15.34 15.34 0 0 1-9.07-7.45c-1.54-3.1-2.46-5.88-1.97-9.54l.15-.7c.6-3.09 2-5.75 4.2-7.98l.16-.16a9.6 9.6 0 0 1 5.91-2.65Z" fill="url(#b)"/><defs><linearGradient id="a" x1="16.75" y1="16.87" x2="36.69" y2="41.43" gradientUnits="userSpaceOnUse"><stop stop-color="#67C2ED"/><stop offset="1" stop-color="#315387"/></linearGradient><linearGradient id="b" x1="16.96" y1="22.94" x2="25.11" y2="43.72" gradientUnits="userSpaceOnUse"><stop stop-color="#67C2ED"/><stop offset="1" stop-color="#315387"/></linearGradient></defs></svg>