<!-- by TradingView --><svg width="56" height="56" viewBox="0 0 56 56" xmlns="http://www.w3.org/2000/svg"><path fill="#F0F3FA" d="M0 0h56v56H0z"/><path fill-rule="evenodd" d="M36 28.5c0 4.7-4.92 8.5-11 8.5s-11-3.8-11-8.5S18.92 20 25 20s11 3.8 11 8.5Zm-2-1.46-.27.94-.9 2.9-.14.5c0 .04.02.06.09.06.05 0 .15-.06.3-.2.16-.14.25-.2.29-.2.07 0 .1.02.07.08-.05.14-.24.32-.55.54-.31.23-.54.34-.67.34-.14 0-.22-.11-.22-.34 0-.07.01-.16.04-.26l1.07-3.47c.06-.19.09-.32.09-.4 0-.1-.07-.16-.2-.19-.12-.02-.19-.06-.19-.1 0-.05.03-.08.09-.09a95.83 95.83 0 0 0 1.01-.15c.06 0 .09.01.09.04Zm-2.12.75c.08-.08.12-.2.12-.32a.46.46 0 0 0-.47-.47.4.4 0 0 0-.31.16c-.09.1-.13.2-.13.32s.05.22.14.31c.1.09.2.13.33.13s.24-.04.32-.13Zm-.58 2.5c.3-.62.45-1.04.45-1.25 0-.2-.08-.3-.26-.3-.15 0-.4.1-.75.3-.36.2-.58.4-.68.56-.03.06 0 .09.1.1.03 0 .14-.07.31-.2.19-.14.32-.2.4-.2.04 0 .06.01.06.05 0 .03-.08.22-.23.58l-.61 1.38a.95.95 0 0 0-.09.38c0 .2.1.31.28.31.15 0 .41-.11.78-.33.37-.22.58-.4.65-.54.02-.06 0-.1-.1-.1-.03 0-.14.07-.32.2-.18.14-.3.21-.38.21-.04 0-.06-.02-.06-.06a5 5 0 0 1 .45-1.09ZM30 29.15v.04a183.58 183.58 0 0 1-1.05 2.28c0 .05.02.08.05.08.07 0 .2-.08.42-.23.21-.15.35-.22.4-.22.07 0 .1.02.07.06-.09.17-.3.36-.65.55-.35.2-.62.29-.82.29-.17 0-.26-.07-.26-.22 0-.1.04-.25.12-.45l.2-.44c-.37.33-.67.56-.89.7-.4.28-.78.41-1.12.41-.31 0-.47-.14-.47-.42 0-.48.31-1 .95-1.53a2.97 2.97 0 0 1 1.9-.82c.08 0 .2.03.33.1.1-.21.2-.32.28-.33.07 0 .17 0 .32.04.15.02.22.06.22.1Zm-1.01.51c0-.12-.1-.18-.27-.18-.37 0-.78.24-1.23.73-.42.47-.64.85-.64 1.16 0 .13.07.19.21.19.3 0 .7-.26 1.2-.77.49-.5.73-.88.73-1.13Zm-3.13-.47c.1 0 .14-.05.14-.17 0-.08-.04-.12-.12-.12h-.52l.2-.82c0-.05-.05-.08-.16-.08-.17 0-.28.04-.31.12l-.33.76-.52.07c-.05 0-.07.07-.07.19 0 .04.02.06.05.06h.45l-.6 2.2c-.05.16-.07.28-.07.36 0 .16.09.24.24.24.21 0 .45-.12.71-.35.23-.2.41-.41.55-.65a.25.25 0 0 0 .02-.1c0-.04-.02-.06-.06-.06-.05 0-.16.1-.33.3-.17.2-.3.3-.38.3-.03 0-.05-.02-.05-.07a1 1 0 0 1 .05-.25l.53-1.93h.58Zm-1.86.33c0 .31-.25.58-.76.8a4.9 4.9 0 0 1-1.29.34c-.07.2-.1.35-.1.48 0 .28.14.42.45.42.21 0 .45-.1.7-.27.26-.18.4-.27.43-.27.04 0 .07.02.07.07 0 .04-.03.1-.07.16-.14.19-.36.36-.67.52-.32.15-.6.23-.87.23-.3 0-.52-.08-.67-.24a.78.78 0 0 1-.22-.59c0-.43.24-.9.73-1.4.51-.51 1.03-.77 1.55-.77.2 0 .37.05.5.14.15.09.22.22.22.38Zm-.65-.12c0-.11-.06-.17-.18-.17-.23 0-.47.15-.73.47a3.1 3.1 0 0 0-.44.73c.32-.05.62-.17.88-.35.31-.2.47-.44.47-.68Zm-2.8 2.56c.26-.04.39-.1.39-.17 0-.03-.05-.06-.15-.09-.23-.07-.4-.14-.5-.21-.1-.08-.19-.22-.28-.4-.17-.38-.21-.73-.25-1.04a3.35 3.35 0 0 0-.1-.5c.02-.04.15-.12.4-.25.27-.13.48-.28.62-.43.21-.23.32-.5.32-.83 0-.7-.6-1.04-1.81-1.04h-2c-.08 0-.13.06-.13.16 0 .06.06.1.16.12l.28.05c.1.04.14.12.13.25-.03.24-.06.45-.1.63l-.58 2.55c-.11.49-.23.77-.35.84l-.36.09c-.16.03-.24.1-.24.2 0 .05.03.07.1.07h2.08c.1 0 .14-.04.14-.13 0-.07-.05-.12-.14-.14l-.28-.05c-.1-.04-.14-.12-.14-.25.11-.68.22-1.22.32-1.63.01-.06.12-.09.33-.09h.15c.3 0 .4.81.47 1.4.03.23.06.43.09.52.13.27.45.41.97.41.14 0 .3-.01.47-.04Zm-1.57-4.65c.65 0 .98.26.98.79 0 .1 0 .2-.03.3-.09.37-.25.63-.5.79-.24.13-.58.2-1.03.2-.13 0-.2-.05-.2-.15 0-.07.03-.2.07-.37l.31-1.36c.03-.13.16-.2.4-.2Z" fill="#EC1C2E"/><path d="M47.5 30c0-.98.73-2 1.79-2 .41 0 .95.17 1.21.49V28H52v4h-1.5v-.54h-.01c-.2.35-.73.54-1.19.54-1.07 0-1.8-1.02-1.8-2Zm1.5 0c0 .47.27.84.76.84.47 0 .78-.32.78-.84 0-.46-.3-.84-.79-.84-.47 0-.75.4-.75.84ZM46.5 28v4H45v-4h1.5Z" fill="#084C94"/><path d="M45.06 26.46a.75.75 0 1 0 1.44.29c0-.1-.02-.2-.06-.28a.66.66 0 0 0-.15-.24.67.67 0 0 0-.24-.16.75.75 0 0 0-1 .39Z" fill="#EC1C2E"/><path d="m41 31.57.44-.93a3.2 3.2 0 0 0 .48.27 1.7 1.7 0 0 0 .48.11c.1 0 .19-.02.26-.07a.24.24 0 0 0 .12-.22.22.22 0 0 0-.07-.17.45.45 0 0 0-.18-.1 1.41 1.41 0 0 0-.25-.08 4.13 4.13 0 0 1-.55-.17.84.84 0 0 1-.24-.18 1 1 0 0 1-.17-.28 1.25 1.25 0 0 1-.06-.42c0-.21.04-.4.11-.56a1.4 1.4 0 0 1 .8-.68c.2-.06.4-.09.6-.09a2.84 2.84 0 0 1 1.13.24l-.4.85a1.43 1.43 0 0 0-.66-.18c-.1 0-.2.02-.27.07-.08.04-.11.1-.11.18 0 .06.01.11.04.15l.14.09.17.06c.07 0 .13.02.2.03.34.07.6.2.75.39.16.19.24.43.24.72 0 .28-.05.5-.16.68-.1.18-.24.33-.4.43-.16.1-.34.18-.53.22a2.32 2.32 0 0 1-1.91-.36ZM37.2 27h1.64L41 32h-1.6l-.36-.87h-2.06l-.4.87H35l2.2-5Zm.2 3.14h1.23l-.6-1.6H38l-.62 1.6Z" fill="#084C94"/><path d="M15 23.5h21v3H13.5l1.5-3Z" fill="#F0F3FA"/><path d="M16 25c0-.6.45-1 1-1 .61 0 1 .44 1 1.06v.05h-1.36c0 .28.14.42.4.42.14 0 .25-.05.32-.17h.62c-.1.44-.53.64-.93.64-.58 0-1.05-.37-1.05-1Zm.65-.27h.75a.38.38 0 0 0-.37-.3c-.18 0-.34.1-.38.3ZM24 25c0-.6.45-1 1-1 .61 0 1 .44 1 1.06v.05h-1.36c0 .28.14.42.4.42.14 0 .25-.05.32-.17h.62c-.1.44-.53.64-.93.64-.58 0-1.05-.37-1.05-1Zm.65-.27h.75a.38.38 0 0 0-.37-.3c-.18 0-.34.1-.38.3ZM33 25c0-.6.45-1 1-1 .61 0 1 .44 1 1.06v.05h-1.36c0 .28.14.42.4.42.14 0 .25-.05.32-.17h.62c-.1.44-.53.64-.93.64-.58 0-1.05-.37-1.05-1Zm.65-.27h.75a.38.38 0 0 0-.37-.3c-.18 0-.34.1-.38.3ZM30 25.02a.96.96 0 0 1 .33-.74 1.32 1.32 0 0 1 1.1-.24l.18.07v.56a.92.92 0 0 0-.18-.09.51.51 0 0 0-.39 0 .46.46 0 0 0-.26.24.45.45 0 0 0-.04.18c0 .14.05.25.14.33.1.09.22.13.37.13a.53.53 0 0 0 .36-.13v.56a1.2 1.2 0 0 1-.5.11c-.16 0-.3-.02-.43-.07a1.1 1.1 0 0 1-.36-.2.97.97 0 0 1-.23-.32.88.88 0 0 1-.09-.39ZM22 23.36a.37.37 0 0 1 .22-.33.36.36 0 0 1 .48.2c.02.04.03.08.03.13s-.02.1-.04.15a.38.38 0 0 1-.08.11.4.4 0 0 1-.25.1.36.36 0 0 1-.36-.36ZM13 24h.62l.38 1.03.38-1.03H15l-.82 2h-.36L13 24ZM10.68 24v.31c.15-.23.34-.31.6-.31.5 0 .72.3.72.79V26h-.67v-1.06c0-.25-.08-.4-.3-.4-.25 0-.35.17-.35.44V26H10v-2h.68ZM19.68 24v.31c.15-.23.34-.31.6-.31.5 0 .72.3.72.79V26h-.67v-1.06c0-.25-.08-.4-.3-.4-.25 0-.35.17-.35.44V26H19v-2h.68ZM27.68 24v.31c.15-.23.34-.31.6-.31.5 0 .72.3.72.79V26h-.67v-1.06c0-.25-.08-.4-.3-.4-.25 0-.35.17-.35.44V26H27v-2h.68ZM7 25a.96.96 0 0 1 .28-.73c.1-.08.2-.15.32-.2.12-.05.26-.07.4-.07s.27.02.39.07a.92.92 0 0 1 .53.52c.05.12.08.26.08.41 0 .16-.03.3-.08.42a.92.92 0 0 1-.53.51 1.12 1.12 0 0 1-.79 0 1 1 0 0 1-.32-.2A.97.97 0 0 1 7 25Zm.62 0c0 .13.04.23.1.3.08.08.17.12.28.12.12 0 .2-.04.28-.11.06-.08.1-.18.1-.3a.44.44 0 0 0-.1-.3.34.34 0 0 0-.28-.13c-.11 0-.2.04-.28.12a.44.44 0 0 0-.1.3ZM5.38 23c.11 0 .22.01.31.04.1.02.2.06.31.1v.9a.72.72 0 0 0-.6-.31c-.1-.01-.19 0-.27.05a.64.64 0 0 0-.23.16.76.76 0 0 0-.14.25c-.04.1-.05.2-.05.32a.77.77 0 0 0 .2.56.66.66 0 0 0 .5.21c.12 0 .22-.02.32-.08.1-.05.2-.12.27-.22v.89a3.14 3.14 0 0 1-.6.13 1.33 1.33 0 0 1-.71-.2 1.51 1.51 0 0 1-.52-.55A1.58 1.58 0 0 1 4 24.5a1.57 1.57 0 0 1 .42-1.08c.13-.13.28-.24.45-.31.16-.07.33-.11.51-.11ZM22.73 26v-2H22v2h.73Z" fill="#084C94"/></svg>