<!-- by TradingView --><svg width="56" height="56" viewBox="0 0 56 56" xmlns="http://www.w3.org/2000/svg"><path fill="#F0F3FA" d="M0 0h56v56H0z"/><path d="M43.21 26.44c.13-.2.16-.5.09-.9a1 1 0 0 0-.36-.6 1.02 1.02 0 0 0-.67-.21c-3.18.15-1.58 5.19 2.08 3.34.82-.42 1.53-2.26 1.17-3.24-.46-1.22-1.22-1.92-2.3-2.08-.86-.14-2.47-.1-4.82.1-.2.02-.28.12-.25.31a7.72 7.72 0 0 1-1.5 6.2c-.14.18-.24.74-.31 1.66-.03.47.08 1 .35 1.62.76 1.78 1.07 3.22.93 4.3a14.35 14.35 0 0 1-2.34 5.9c-.06.08-.14.16-.25.16h-3.91c-.01 0-.02-.04-.04-.04a.06.06 0 0 1-.01-.1 11.5 11.5 0 0 0 2.38-5.67 4.8 4.8 0 0 0-.34-2.48l-.65-1.6c-.58-1.43-.26-3.37.22-4.8a78 78 0 0 1 1.05-1.92 3.6 3.6 0 0 0 .07-3.33.45.45 0 0 0-.17-.2.47.47 0 0 0-.26-.08h-2.94a.3.3 0 0 0-.29.24l.01.14a7.5 7.5 0 0 1-1.2 6.92c-.5.73-.59 1.92-.15 2.9 1.02 2.3 1.53 4.15.67 6.56-.26.73-.88 1.83-1.85 3.29-.06.1-.15.17-.26.17H24.3c-.02 0-.04-.03-.05-.04a.1.1 0 0 1-.06-.1l.02-.05c2-3.12 2.73-5.3 2.22-6.53l-.92-2.36c-.79-2.08-.26-4.42.84-6.13.56-.9.83-1.6.8-2.15a7.42 7.42 0 0 0-.58-2.68.25.25 0 0 0-.24-.16h-3.21a.11.11 0 0 0-.1.05.11.11 0 0 0 0 .1c.96 2.24.97 4.14.03 5.71-1.27 2.14-1.65 3.33-.8 5.59.38 1.02.96 2.35.9 3.3a8.59 8.59 0 0 1-2.2 5.07.96.96 0 0 1-.74.38h-1.58c-.4 0-.46-.18-.18-.47a6.14 6.14 0 0 0 1.38-7.06c-.9-2.12-1.2-3.7-.26-5.9.5-1.18 1.59-2.38 1.37-3.9-.12-.9-.34-1.8-.66-2.67-.05-.14-.15-.2-.3-.2h-1.02a.23.23 0 0 0-.22.16v.1c.14.89.31 1.62.5 2.2.58 1.82-.23 3.86-1.36 5.27-.15.2-.3.9-.44 2.13-.28 2.37 2.14 4.2 1.18 6.85a9.68 9.68 0 0 1-2.15 3.4c-.1.1-.22.12-.37.06l-.18-.06a.26.26 0 0 1-.1-.07.24.24 0 0 1-.05-.1.22.22 0 0 1 0-.12.2.2 0 0 1 .06-.1c2.1-1.9 2.71-4.04 1.82-6.42-.59-1.56-.9-2.5-.91-2.79-.1-1.47.3-2.87 1.2-4.19.63-.91.87-1.9.72-2.97-.11-.87-.37-1.88-.76-3.03-.07-.2-.22-.31-.44-.3-2.4.01-4.39-1.2-6.46.75-2.2 2.07.73 6.24 3.33 4.6 1.19-.75 1.44-2.78-.1-3.39a1.2 1.2 0 0 0-1.57.73c-.13.4-.11.68.06.87.14.15.3.2.5.1.28-.1.53-.16.77-.15a.48.48 0 0 1 .39.75c-.46.7-1.26 1.17-2.04.69-1.56-.97-1.33-3.62.46-4.21 2.07-.69 3.83.73 3.87 2.86.01 1-.62 2.29-1.56 2.8a4.05 4.05 0 0 1-6.08-3.24c-.44-5.5 4.9-5.22 8.63-5.22.2 0 .34-.09.42-.27.56-1.22.91-2.54 1.9-3.65.08-.1.17-.15.26-.17.1-.02.17.04.23.17l.01.1V17l-1.64 3.43c-.12.26-.04.39.25.39h.52c.28 0 .47-.13.57-.39l1.37-3.7c.03-.09.1-.14.2-.16l3.32-.66a.08.08 0 0 1 .09.03.08.08 0 0 1 0 .09 29.87 29.87 0 0 0-2.04 4.17c-.15.48.04.7.58.64.78-.08 1.48-.09 2.12-.03.07 0 .13 0 .2-.04a.3.3 0 0 0 .11-.16l1.83-4.9a.6.6 0 0 1 .47-.4l3.77-.74c.27-.06.35.04.22.28l-2.88 5.65a.2.2 0 0 0 .01.18.19.19 0 0 0 .16.1h3.38c.1 0 .16-.06.17-.17a14.3 14.3 0 0 1 2.24-6.38.63.63 0 0 1 .43-.3l4.67-.92c.37-.07.44.04.22.35a28.74 28.74 0 0 0-3.47 6.56.63.63 0 0 0 .6.85c3.46.02 8.52-.53 9.02 4.2.3 2.75-1.95 5.19-4.85 4.68-1.74-.3-2.68-1.31-2.82-3.03-.17-2.12 1.72-3.85 3.82-3.07 1.74.66 2.03 3.2.42 4.2-.77.47-1.6.01-2.03-.67a.5.5 0 0 1 .18-.7.51.51 0 0 1 .26-.07c.22 0 .5.09.82.25.18.09.33.04.44-.13Z" fill="#910015"/></svg>