<!-- by TradingView --><svg width="56" height="56" viewBox="0 0 56 56" xmlns="http://www.w3.org/2000/svg"><path fill="#051F12" d="M0 0h56v56H0z"/><path d="M49.44 25c.53 0 .99.12 1.37.36.39.23.68.58.88 1.03.2.44.31.98.31 1.61 0 .63-.1 1.17-.3 1.62A2.28 2.28 0 0 1 49.43 31H47.8v-.43h1.51c.27 0 .5-.1.68-.3a2 2 0 0 0 .44-.89c.1-.38.16-.84.16-1.38 0-.54-.06-1-.16-1.38a2 2 0 0 0-.44-.88.9.9 0 0 0-.68-.31h-1.58V25h1.7ZM49 25v6h-1.5v-6H49Zm-1.49 5.37V31H47v-.09h.08c.11 0 .2-.05.29-.15.08-.1.12-.24.12-.39h.02Zm0-4.74h-.02a.59.59 0 0 0-.12-.38c-.08-.11-.18-.16-.29-.16h-.07L47 25h.51v.63ZM41.55 25l4.82 4.94.09 1.06-4.82-4.93-.1-1.07Zm.04 5.42V31H41v-.08h.14a.4.4 0 0 0 .3-.15c.09-.1.13-.22.13-.35h.02Zm1.41 0c0 .13.08.25.17.35.08.1.19.15.3.15h.14V31H43v-.58ZM41.55 25 43 26.78V31h-1.43v-4.97a4.43 4.43 0 0 0-.1-1.03h.08Zm4.88 0v4.95a6.57 6.57 0 0 0 .1 1.05h-.07L45 29.09V25h1.43Zm.57 0v.08h-.13a.4.4 0 0 0-.3.15.53.53 0 0 0-.14.35h-.02V25H47Zm-2.61 0H45v.58a.56.56 0 0 0-.17-.35.38.38 0 0 0-.3-.15h-.14V25ZM25.55 25l4.81 4.94.1 1.06-4.82-4.93-.1-1.07Zm.04 5.42V31H25v-.08h.14a.4.4 0 0 0 .3-.15c.09-.1.13-.22.13-.35h.02Zm1.41 0c0 .13.08.25.17.35.08.1.19.15.3.15h.14V31H27v-.58ZM25.55 25 27 26.78V31h-1.43v-4.97a4.43 4.43 0 0 0-.1-1.03h.08Zm4.88 0v4.95a6.57 6.57 0 0 0 .07.93l.02.12h-.06L29 29.09V25h1.43Zm.57 0v.08h-.13a.4.4 0 0 0-.3.15.53.53 0 0 0-.14.35h-.02V25H31Zm-2.61 0H29v.58a.56.56 0 0 0-.17-.35.38.38 0 0 0-.3-.15h-.14V25ZM37.93 25l2.6 5.95h-1.8l-1.45-3.83.65-2.12Zm-1.61 5.4c-.05.1-.05.2-.03.28.02.07.07.13.13.18.06.04.13.06.18.06h.07V31H35v-.08h.07c.11 0 .23-.04.35-.12a.88.88 0 0 0 .3-.4h.6Zm1.61-5.4v1.3l-1.84 4.68h-.61l1.96-4.75.1-.23a8.23 8.23 0 0 0 .33-1h.06Zm.62 4.21v.41h-2.13v-.41h2.13Zm-.04 1.18h1.77c.09.2.19.33.3.41.13.08.25.12.36.12H41V31h-2.84v-.08h.07c.1 0 .18-.05.26-.14.08-.09.09-.22.02-.39ZM33 25v6h-1.5v-6H33Zm1.48 5.56.26.44H33v-.44h1.48Zm.52-1.55L34.76 31h-1.18l.23-.44c.2 0 .19-.06.36-.18.18-.12.34-.3.47-.53.13-.23.23-.51.3-.84H35Zm-3.49 1.36V31H31v-.09h.08c.11 0 .2-.05.29-.15.08-.1.12-.24.12-.39h.02Zm0-4.74h-.02a.62.62 0 0 0-.12-.38c-.08-.11-.18-.16-.29-.16H31V25h.51v.63Zm1.49 0V25h.51v.09h-.08c-.11 0-.2.05-.29.16a.63.63 0 0 0-.14.38ZM18 25v6h-1.5v-6H18Zm1.48 5.56.26.44h-1.95v-.44h1.69Zm-.21-2.73v.43h-1.48v-.43h1.48ZM20 25v.44h-2.2V25H20Zm0 4.01L19.76 31h-1.4l.24-.44a1 1 0 0 0 .57-.18c.18-.12.34-.3.47-.53.13-.23.23-.51.3-.84H20Zm-.73-.77v1h-.07v-.05c0-.27-.06-.49-.2-.66a.61.61 0 0 0-.49-.27v-.02h.76Zm0-1.39v1h-.76v-.02c.2 0 .37-.1.5-.28.13-.17.2-.4.2-.66v-.04h.06Zm.73-1.44v1.2h-.06v-.07c0-.34-.08-.6-.22-.8a.73.73 0 0 0-.61-.31v-.02H20Zm-3.49 4.96V31H16v-.09h.08c.11 0 .2-.05.29-.15.08-.1.12-.24.12-.39h.02Zm0-4.74h-.02a.62.62 0 0 0-.12-.38c-.08-.11-.18-.16-.29-.16H16V25h.51v.63ZM22.5 25v6H21v-6h1.5Zm1.48 5.56.26.44h-1.95v-.44h1.69Zm-.21-2.73v.43h-1.48v-.43h1.48ZM24.5 25v.44h-2.2V25h2.2Zm0 4.01L24.26 31h-1.4l.24-.44a1 1 0 0 0 .57-.18c.18-.12.34-.3.47-.53.13-.23.23-.51.3-.84h.06Zm-.73-.77v1h-.07v-.05c0-.27-.06-.49-.2-.66a.61.61 0 0 0-.49-.27v-.02h.76Zm0-1.39v1H23v-.02c.2 0 .37-.1.5-.28.13-.17.2-.4.2-.66v-.04h.06Zm.73-1.44v1.2h-.06v-.07c0-.34-.08-.6-.22-.8a.73.73 0 0 0-.61-.31v-.02h.89Zm-3.49 4.96V31h-.51v-.09h.08c.11 0 .2-.05.29-.15.08-.1.12-.24.12-.39h.02Zm0-4.74H21a.62.62 0 0 0-.12-.38c-.08-.11-.18-.16-.29-.16h-.08V25h.51v.63Z" fill="#F0F3FA"/><path d="M11.9 25h.96c.22 0 .45.02.68.07.23.04.44.13.63.25.19.11.34.27.46.49.12.2.18.48.18.81 0 .22-.04.44-.1.68-.08.23-.2.43-.37.6-.16.18-.4.3-.7.35.2.07.38.18.53.35a2.33 2.33 0 0 1 .43.65l.15.3a50.76 50.76 0 0 1 .4.71c.11.18.21.31.3.4.08.1.16.16.24.2.09.03.2.05.31.05V31h-.92c-.29 0-.56-.02-.8-.06a1.64 1.64 0 0 1-.68-.27c-.2-.13-.37-.35-.52-.65a4.24 4.24 0 0 1-.33-1.14 2.82 2.82 0 0 0-.05-.24.98.98 0 0 0-.18-.42.6.6 0 0 0-.2-.15v-.09h.11c.14 0 .26-.03.37-.1.1-.08.2-.2.27-.35.07-.16.12-.36.15-.6a12.48 12.48 0 0 0 .01-.35c-.02-.43-.1-.72-.27-.89a.75.75 0 0 0-.56-.24H11.98l-.02-.12a3.45 3.45 0 0 0-.04-.22L11.9 25Zm.1 0v6h-1.44v-6H12Zm-1.41 5.37V31H10v-.09h.1a.4.4 0 0 0 .32-.15.6.6 0 0 0 .14-.39h.03Zm0-4.74h-.03a.57.57 0 0 0-.14-.38.4.4 0 0 0-.32-.16H10V25h.59v.63Zm1.39 4.74H12c0 .15.12.28.21.39.1.1.2.15.33.15h.09V31h-.65v-.63ZM9 29.42v-1c0-.23 0-.34.23-.34h.1V28h-2.2v.08h.1c.23 0 .32.11.32.34l-.01.99c0 .18-.02.33-.11.45a.78.78 0 0 1-.32.28.95.95 0 0 1-.41.1.96.96 0 0 1-.72-.3 1.81 1.81 0 0 1-.4-.8 5.32 5.32 0 0 1-.14-1.27c0-.53.05-.98.16-1.34.1-.37.27-.66.49-.85.22-.2.5-.3.86-.3.2 0 .39.05.58.13.2.08.37.22.53.43.17.2.3.5.38.89h.06l.07-1.47c-.13-.07-.3-.13-.52-.18A6.22 6.22 0 0 0 6.62 25c-.55 0-1.02.11-1.4.34-.4.22-.7.54-.91.96-.2.41-.31.91-.31 1.5s.1 1.1.31 1.52c.22.42.51.74.9.97.38.22.83.33 1.34.33a3.42 3.42 0 0 0 1.32-.25C8.25 31.17 8.93 32 10 32c-.36-.21-1-1.03-1-2.58Z" fill="#F0F3FA"/></svg>