<!-- by TradingView --><svg width="56" height="56" viewBox="0 0 56 56" xmlns="http://www.w3.org/2000/svg"><path fill="#F0F3FA" d="M0 0h56v56H0z"/><path fill-rule="evenodd" d="M28 44.5a16.5 16.5 0 1 0 0-33 16.5 16.5 0 0 0 0 33Zm0 .5a17 17 0 1 0 0-34 17 17 0 0 0 0 34Z" fill="#FF0101"/><circle cx="32.5" cy="36.5" r="1.5" fill="#FF0101"/><path fill-rule="evenodd" d="M23 25.5v.5h1.5v1H31v-1h2v-.5c2.52 0 3.6-2.42 3.92-4 .04-.18.06-.35.08-.5h-5c-1.5 0-2.5-4-3-6h-2c-.5 2-2 6-3 6h-5c0 .17.01.34.03.5.3 2.46 2.72 3.69 3.97 4Zm-3.47-4a3.7 3.7 0 0 0 1.3 2.3 5.82 5.82 0 0 0 2.3 1.21l.37.1v.39H25v1h5.5v-1h2V25h.5a3 3 0 0 0 2.57-1.47c.44-.64.7-1.4.84-2.03H32c-.61 0-1.08-.4-1.43-.85a7.35 7.35 0 0 1-.9-1.71c-.46-1.14-.81-2.46-1.06-3.44h-1.22c-.28 1-.74 2.33-1.25 3.46-.28.63-.6 1.23-.91 1.67a3 3 0 0 1-.52.58c-.18.15-.42.29-.71.29h-4.47Z" fill="#FF0101"/><path d="M41.42 32a14 14 0 0 1-26.84 0H26v9h1V28H12a16 16 0 1 0 32 0H29v13h1v-9h11.42Zm-27.38-5a14 14 0 0 1 27.92 0h2a16 16 0 0 0-31.93 0h2Zm9.46 11a1.5 1.5 0 1 0 0-3 1.5 1.5 0 0 0 0 3Z" fill="#FF0101"/><path fill="#FF0101" fill-opacity=".6" d="M24 22h8v3h-8z"/></svg>