<!-- by TradingView --><svg width="56" height="56" viewBox="0 0 56 56" xmlns="http://www.w3.org/2000/svg"><path fill="#F0F3FA" d="M0 0h56v56H0z"/><path d="m19.09 36.52-2.89-6.2A9.92 9.92 0 0 0 23.11 33c5.23 0 11.31-2.24 20.82-11.54l-1.74 3.72c-3.8 4.27-12.42 12.49-18.69 12.49a8.17 8.17 0 0 1-4.41-1.15Z" fill="#FCA129"/><path d="M33.4 17 28 27.56 22.6 17H10l5.72 12.28c1.73 1.2 4.91 2.72 7.4 2.72 4.78 0 12.46-3.46 21.55-12.14L46 17H33.4ZM41.05 27.62a61.82 61.82 0 0 1-6.78 6.07 32.07 32.07 0 0 1-5.38 3.38 12.8 12.8 0 0 1-5.39 1.43 9.52 9.52 0 0 1-3.84-.74L22.1 43h11.8l7.15-15.38Z" fill="#009CB0"/></svg>