<!-- by TradingView --><svg xmlns="http://www.w3.org/2000/svg" width="56" height="56"><path fill="#273777" d="M0 0h56v56H0z"/><path d="M43.64 18.36c-2.32-1.7-6.66-.93-8.52-.31 4.98-.82 7.58 1.24 8.04 2.4 3.11 7.83-6.5 15.24-11.79 18.16-.14.08-.21.23-.14.36.05.1.21.07.34 0 10.88-5.99 12.88-12.64 12.88-15.64.14 7.8-9.02 14.74-13.62 17.23-.13.07-.24.23-.13.36.1.13.33.04.44 0 11.37-5.98 14.12-14.56 14.08-18.11.82 10.65-14.43 19.4-14.7 19.6-.18.13-.25.3-.18.42s.25.09.36.05c2.39-1.21 8.12-4.96 11.9-10.27 4.74-6.63 3.97-12.1 1.04-14.25z" fill="url(#ai2iudtba)"/><path d="M19.07 42.99c4.73-.24 9-2.35 10.55-3.37-15.1 5.7-16.66-2.72-15.55-7.65 2.9-10.34 14.91-16.47 20.56-18.24.21-.07.53-.19.53-.4 0-.2-.4-.14-.6-.1C21.12 17.3 14.8 26.46 13.3 30.54c3.46-10.47 15.89-16.65 21.67-18.43.17-.04.5-.18.46-.37-.04-.2-.4-.13-.59-.08C20.81 16 14.12 25.05 12.56 28.9c4.4-12.73 22.48-18.3 22.77-18.35.3-.07.52-.19.47-.4-.04-.19-.37-.16-.55-.11-21.9 6.72-25.67 20.7-25.22 24.82.46 4.12 3.13 8.42 9.04 8.13z" fill="url(#bi2iudtba)"/><path d="M21.02 41.58c3.8-.1 7.22-1.12 8.46-1.95-12.15 4.6-13.2-2.9-12.23-6.35 2.33-8.32 11.94-13.35 16.48-14.77.18-.06.43-.16.43-.32s-.32-.12-.48-.08c-10.8 3.26-16.5 10.56-17.9 17.24C17 24.8 29.4 18.3 34.04 16.87c.14-.03.4-.14.37-.3-.03-.16-.32-.1-.47-.06C22.67 20.01 16.16 28.17 14.82 34c3.15-13.68 19.3-18.65 19.54-18.7.23-.05.4-.15.37-.32-.03-.15-.3-.13-.44-.09-17.53 5.77-21.03 17.15-20.67 20.46.37 3.3 2.67 6.35 7.4 6.23z" fill="url(#ci2iudtba)"/><path d="M30.96 25.23l.51 4.53 3.58-2.85-2.86 3.56 3.09.51-3.09.5 2.86 3.57-3.58-2.85-.5 4.53-.52-4.53-3.58 2.85 2.86-3.56-4.56-.51 4.56-.5-1.28-2.1 2 1.38.51-4.53zm-8.89 5.89l.34 3.04 2.4-1.91-1.91 2.39 2.07.34-2.07.33 1.92 2.4-2.4-1.92-.35 3.04-.34-3.04-2.4 1.91 1.92-2.39-3.06-.33 3.06-.34-.86-1.4 1.34.92.34-3.04zM35.34 18.7l.34 3.04 2.4-1.9-1.91 2.38 2.07.34-2.07.34 1.91 2.38-2.4-1.9-.34 3.03-.34-3.03-2.4 1.9 1.92-2.38-3.06-.34 3.06-.34-.86-1.4 1.34.92.34-3.04zm-8.29 4.55l.22 1.9 1.5-1.2-1.2 1.5 1.3.22-1.3.2 1.2 1.5-1.5-1.19-.22 1.9-.21-1.9-1.5 1.2 1.2-1.5-1.92-.21 1.92-.22-.54-.88.84.58.21-1.9zm11.19 3.25l.21 1.9 1.51-1.2-1.2 1.5 1.3.22-1.3.21 1.2 1.5-1.5-1.2-.22 1.9-.21-1.9-1.51 1.2 1.2-1.5-1.91-.21 1.91-.21-.53-.88.84.58.21-1.91zm3.07-5.14l.22 1.9 1.5-1.19-1.2 1.5 1.3.21-1.3.21 1.2 1.5-1.5-1.2-.22 1.9-.21-1.9-1.51 1.2 1.2-1.5-1.91-.21 1.91-.21-.53-.88.84.58.21-1.9z" fill="#DFA21E"/><defs><linearGradient id="ai2iudtba" x1="38.16" y1="17.32" x2="33.75" y2="41.77" gradientUnits="userSpaceOnUse"><stop stop-color="#DD9520"/><stop offset=".47" stop-color="#F4D71E"/><stop offset="1" stop-color="#F4D821"/></linearGradient><linearGradient id="bi2iudtba" x1="33.8" y1="10.94" x2="21.59" y2="43.05" gradientUnits="userSpaceOnUse"><stop offset=".01" stop-color="#F4D821"/><stop offset=".8" stop-color="#E6C419"/><stop offset="1" stop-color="#DD9520"/></linearGradient><linearGradient id="ci2iudtba" x1="33.8" y1="17.03" x2="22.87" y2="41.64" gradientUnits="userSpaceOnUse"><stop stop-color="#F4D821"/><stop offset="1" stop-color="#E1B51E"/></linearGradient></defs></svg>