<!-- by TradingView --><svg width="56" height="56" viewBox="0 0 56 56" xmlns="http://www.w3.org/2000/svg"><path fill="#F0F3FA" d="M0 0h56v56H0z"/><path fill-rule="evenodd" d="M18.42 24.55c-2.34.35-5.7 1.88-5.7 1.88v1.62s2.28-1.01 2.99-.8c.71.23.09 1.14.09 1.14l-2.68 4.8s-.82 1.13-.44 2.71c.31 1.31 3.55 1.2 5.79.22 2.9-1.26 4.59-3.45 4.59-3.45l-1.25-.3s-2.3 2.15-3.39 2.57c-2.05.8-1.11-.6-1.11-.6s4.32-7.39 4.28-8.13c-.05-.74-.85-2-3.17-1.66ZM48 18H8v20h40V18Zm-.5.5H28v19h19.5v-19Zm-27 5.5a2.5 2.5 0 1 0 0-5 2.5 2.5 0 0 0 0 5Z" fill="#E60020"/><path d="M43.25 20.69a8 8 0 1 0 0 14.63 9 9 0 1 1 0-14.63Z" fill="#E60020"/><path d="M44.25 22.43A5.98 5.98 0 0 0 36 28a6 6 0 0 0 8.25 5.57 7 7 0 1 1 0-11.13Z" fill="#E60020"/><circle cx="42" cy="28" r="5" fill="#E60020"/></svg>