<!-- by TradingView --><svg width="56" height="56" viewBox="0 0 56 56" xmlns="http://www.w3.org/2000/svg"><path fill="#F0F3FA" d="M0 0h56v56H0z"/><path d="M29.15 14h.02v.02a27.4 27.4 0 0 0 .3.54 22.66 22.66 0 0 0 .6.13v.03a29.92 29.92 0 0 0-.42.46 29.33 29.33 0 0 0 .07.62h-.03a24.78 24.78 0 0 0-.55-.26 29.27 29.27 0 0 0-.56.26l-.01-.02v-.01a21.56 21.56 0 0 0 .07-.62 20.33 20.33 0 0 0-.41-.46v-.02h.02a22.02 22.02 0 0 0 .6-.13 27.97 27.97 0 0 0 .3-.54ZM35.23 15.42h.02v.01a507.1 507.1 0 0 0 .67 1.29 458.78 458.78 0 0 0 1.4.25V17l-.98 1.02v.02h-.01a262.32 262.32 0 0 0 .2 1.45h-.03l-1.26-.64h-.02l-1.25.64h-.03l-.01-.01v-.02a863.82 863.82 0 0 0 .2-1.42v-.01a381.57 381.57 0 0 0-.99-1.06l.02-.02a458.78 458.78 0 0 0 1.4-.24 475.45 475.45 0 0 0 .67-1.3Z" fill="#57B5CD"/><path d="M31.74 18.52c-2.32 1.18-4.3 2.98-6.15 4.86-.44.44-.8.73-1.08.86-1.07.5-2.43.23-3.54-.07a30.63 30.63 0 0 0-3.2-.75 7.52 7.52 0 0 0-5.14.88 14.2 14.2 0 0 0-3.5 2.97 27.73 27.73 0 0 0-3.62 5.27.14.14 0 0 1-.08.02H4.02L4 32.53a.04.04 0 0 1 0-.04 33.38 33.38 0 0 1 3.55-5.04 16.5 16.5 0 0 1 4.58-3.9c.5-.28.97-.48 1.4-.62 1.88-.58 3.8-.37 5.73.12 1.71.43 2.86.7 3.45.8.87.15 1.64-.09 2.31-.71.45-.42 1.41-1.23 2.88-2.42a13.46 13.46 0 0 1 3.84-2.21Z" fill="#375B9B"/><path d="M31.92 18.74c-2.5 1.53-4.29 3.78-6.14 6.05-.3.37-.56.6-.78.72-.91.45-2.11.32-3.07.1a58.44 58.44 0 0 0-4.2-.84 6 6 0 0 0-3.85.76 12.28 12.28 0 0 0-3.3 2.88 23 23 0 0 0-2.75 4.12.05.05 0 0 1-.04.03H6.5a.01.01 0 0 1-.01 0v-.02a26.93 26.93 0 0 1 3.48-4.99 13.87 13.87 0 0 1 3.04-2.6 7.08 7.08 0 0 1 4.92-.9c1.1.19 2.45.48 4.07.87.55.14 1.1.2 1.63.2.83.02 1.35-.3 1.94-.97l1.36-1.53a17.73 17.73 0 0 1 4.97-3.9c.27-.14.27-.13.02.02Z" fill="#375B9B"/><path d="M32.24 20.12v-.01a27.37 27.37 0 0 0 .3-.54h.02l.01.01a21.6 21.6 0 0 0 .3.55 21.94 21.94 0 0 0 .6.13v.02a25.7 25.7 0 0 0-.42.46 25.18 25.18 0 0 0 .07.63h-.03a24.82 24.82 0 0 0-.56-.26 24.32 24.32 0 0 0-.56.25v-.02a31.14 31.14 0 0 0 .06-.62 29.02 29.02 0 0 0-.4-.47v-.01h.01a25.14 25.14 0 0 0 .6-.12ZM23.04 21.46a23.54 23.54 0 0 0 .31-.55h.02v.01a23.85 23.85 0 0 0 .3.55 26.07 26.07 0 0 0 .6.13v.03a18.95 18.95 0 0 0-.41.44v.02a24.74 24.74 0 0 0 .06.62h-.02a22.72 22.72 0 0 0-.56-.26 26.38 26.38 0 0 0-.57.26v-.03a30.43 30.43 0 0 0 .07-.62 29.57 29.57 0 0 0-.42-.47l.01-.01h.02a22.99 22.99 0 0 0 .59-.12ZM37.1 22.16h.01a22.3 22.3 0 0 0 .3-.55h.02l.01.02a21.58 21.58 0 0 0 .3.54 21.94 21.94 0 0 0 .6.13v.02a25.5 25.5 0 0 0-.42.45v.02a21.11 21.11 0 0 0 .07.62h-.03a24.23 24.23 0 0 0-.56-.26 21.09 21.09 0 0 0-.55.26l-.02-.01v-.02a21.11 21.11 0 0 0 .08-.62 25.1 25.1 0 0 0-.42-.46l.01-.02h.02a21.95 21.95 0 0 0 .59-.12ZM35.08 24.05h.01a23.96 23.96 0 0 0 .3-.55h.02l.01.01a23.13 23.13 0 0 0 .3.55 27.28 27.28 0 0 0 .6.13v.02a29.2 29.2 0 0 0-.42.47 31.1 31.1 0 0 0 .06.62l-.01.01h-.01a21.67 21.67 0 0 0-.56-.27 21.68 21.68 0 0 0-.56.26l-.01-.01v-.02a29.48 29.48 0 0 0 .07-.62 22.36 22.36 0 0 0-.41-.46v-.02h.02a27.3 27.3 0 0 0 .6-.12Z" fill="#57B5CD"/><path d="M28.53 29.63c0-.13-.01-.13-.06-.02l-.58 1.3c-.1.22-.33.38-.71.5a4 4 0 0 1-.77-.01.06.06 0 0 1-.01-.05l.07-.4c0-.03.03-.06.07-.06.2-.01.36.06.5-.18a104.94 104.94 0 0 0 1.23-2.86.03.03 0 0 0-.02-.01h-1.22a.25.25 0 0 0-.16.06.26.26 0 0 0-.08.15l-.65 3.76a.73.73 0 0 1-.52.61l-.16.06c-.28.09-.39-.01-.34-.3.24-1.33.49-2.74.74-4.24.09-.51.53-.64 1.03-.63a227.73 227.73 0 0 0 1.62-.01l.03-.04.16-.36a.08.08 0 0 1 .08-.05h.8c.05 0 .06.02.05.07a.76.76 0 0 1-.11.24c-.07.1-.04.15.08.15h2.05a.05.05 0 0 1 .04.02v.04l-.73 4.27c-.1.54-.31.84-.87.84a153.82 153.82 0 0 0-2.17-.02.05.05 0 0 1-.01-.04l.07-.41.02-.04a.07.07 0 0 1 .05-.02h1.72c.05 0 .1-.02.15-.06a.24.24 0 0 0 .08-.14l.66-3.86a.05.05 0 0 0 0-.04.05.05 0 0 0-.05-.01H29.4a.2.2 0 0 0-.2.13l-.38.82c-.04.08-.01.12.07.12h.5c.04 0 .06.02.06.07v1.56c0 .3.16.42.46.35.04 0 .06 0 .05.06l-.07.4a.1.1 0 0 1-.09.07c-.6.02-1.24.05-1.26-.72v-1.07ZM16.52 27.71h2.3a.05.05 0 0 1 .03.06l-.39 2.27c-.11.65-.3.9-.97.9h-1.54c-.05 0-.07.03-.08.07l-.14.85a.67.67 0 0 1-.5.56l-.23.08c-.27.08-.38-.02-.33-.3l.2-1.19c.01-.04 0-.07-.05-.07h-2.24c-.04 0-.06-.02-.05-.06l.4-2.33c.1-.52.28-.82.81-.82l1.64-.02c.04 0 .07-.02.07-.06l.1-.6c.03-.1.09-.16.2-.16h.7c.09 0 .13.05.11.14l-.1.61c-.01.05 0 .07.06.07Zm-2.97 2.67c0 .02.01.04.03.04l1.34-.01c.05 0 .08-.03.09-.07l.33-2.03c.01-.05 0-.07-.05-.07l-1.19.01c-.05 0-.1.02-.14.06a.24.24 0 0 0-.08.14l-.33 1.93Zm4.27-2.1c0-.03 0-.05-.03-.05h-1.36c-.05 0-.07.03-.08.08l-.36 2.05c0 .04.01.06.05.06h1.2c.06 0 .12-.02.16-.05a.25.25 0 0 0 .08-.15l.34-1.95ZM22.66 27.74a1.57 1.57 0 0 1-.48.52v.02H24.95c.03 0 .04.02.04.05l-.08.44c0 .03-.02.04-.04.04h-3.39c-.05 0-.07-.02-.06-.08l.05-.3c0-.04 0-.06-.05-.06h-.26c-.04 0-.06-.02-.05-.06l.07-.4c0-.02 0-.04.02-.05a.07.07 0 0 1 .06-.01c.53.07.6-.44.81-.9a.09.09 0 0 1 .09-.06h.8c.05 0 .06.03.04.07l-.07.15c-.02.05 0 .08.05.08H25.32a.04.04 0 0 1 .02.03v.01l-.07.45c0 .02-.02.03-.04.03H22.7a.06.06 0 0 0-.05.03ZM35.7 29.22c0-.07-.02-.1-.1-.1h-.28a.18.18 0 0 0-.11.03.19.19 0 0 0-.07.11l-.42 2.44a.65.65 0 0 1-.45.53l-.14.05c-.25.08-.35 0-.3-.27l.5-2.88c.03-.14.14-.27.32-.39.26-.16.85-.1 1.05-.1.06.01.1-.02.11-.09l.12-.67c.01-.06-.02-.1-.08-.1h-.24a.1.1 0 0 0-.09.07c-.18.38-.53.55-1.06.51-.06 0-.1.03-.11.09-.1.36-.36.52-.8.48-.04 0-.06-.02-.05-.07l.13-.76c.01-.05-.01-.07-.06-.07h-.2a.1.1 0 0 0-.07.02.1.1 0 0 0-.03.07c-.06.41-.24.72-.56.91-.05.04-.05.06.02.06h.42a.06.06 0 0 1 .05.07l-.46 2.68a.13.13 0 0 0 .03.1.13.13 0 0 0 .1.05h.52c.04 0 .06.02.05.06l-.06.35c0 .02 0 .03-.02.04a.07.07 0 0 1-.04.02h-.99a.44.44 0 0 1-.34-.17.45.45 0 0 1-.1-.36l.48-2.75a.05.05 0 0 0-.03-.05h-.51c-.04 0-.06-.02-.05-.06l.07-.4c0-.05.04-.08.1-.07.38.05.4-.22.52-.57l.3-.99c.02-.1.09-.15.19-.15h.59c.09 0 .12.04.09.13l-.14.41c-.02.05 0 .08.05.08h.9c.04 0 .06.02.05.06l-.03.2c-.01.06.01.09.07.07.26-.06.36-.7.43-.88a.1.1 0 0 1 .09-.06h.72c.06 0 .07.02.05.07l-.1.2c-.02.07 0 .1.06.1h2.51c.02 0 .03 0 .02.02l-.08.45c0 .04-.02.05-.05.05h-1.35c-.02 0-.04.01-.04.04l-.14.77c0 .03.01.04.04.04h1.27c.04 0 .06.02.05.07l-.46 2.7c-.07.43-.08.72-.54.89-.12.04-.35.05-.7.03-.05 0-.07-.03-.06-.07l.06-.32c0-.05.03-.08.08-.07.15 0 .26-.05.29-.22l.43-2.51c0-.02 0-.03-.02-.03h-.49c-.02 0-.03.01-.04.03l-.48 2.77a.65.65 0 0 1-.47.55l-.12.04c-.26.08-.37-.02-.32-.29l.52-2.99ZM20.14 27.6c-.04-.07-.1-.1-.2-.1a12.65 12.65 0 0 0-.45-.02v-.03l.06-.41c0-.04.03-.07.08-.07h.83c.32 0 .53.14.62.45.07.24-.07.79-.3.97a.93.93 0 0 1-.7.19c-.05 0-.07-.04-.06-.08l.14-.8c0-.03 0-.07-.02-.1ZM19.83 29.4c-.04-.07-.1-.1-.2-.1a13.2 13.2 0 0 0-.45-.02.04.04 0 0 1 0-.04l.06-.4c0-.05.03-.07.08-.07h.83c.32-.01.53.14.62.44.07.24-.07.8-.3.97a.93.93 0 0 1-.7.19c-.05 0-.07-.03-.06-.08l.14-.8c0-.03 0-.07-.02-.1ZM23.4 29.9h-2.46a.05.05 0 0 1-.05-.06l.07-.4c0-.04.03-.06.07-.06h3.83c.04 0 .06.02.05.06-.01.43-.16.67-.55.9l-2.5 1.52c-.08.05-.07.07.01.07h2.64c.04 0 .05.02.05.05l-.08.43c0 .03-.02.05-.05.05H20.6c-.05 0-.07-.03-.07-.08.02-.55.18-.77.67-1.06.9-.54 1.64-.99 2.22-1.36.06-.03.05-.05-.02-.05ZM19.22 31.95c.05 0 .11-.02.15-.06a.25.25 0 0 0 .09-.15l.2-1.15c0-.02.01-.03.03-.03h.86a38.77 38.77 0 0 1-.17 1.18c-.07.38-.32.72-.68.72-.36.01-.7.02-1.03.01-.04 0-.06-.02-.05-.06l.07-.4c0-.04.03-.06.07-.06h.46Z" fill="#375B9B"/><path d="m19.6 35.24.03-.14c.01-.04.04-.07.08-.07h.54c.04 0 .06.03.06.07-.06.44-.24.7-.54.81-.33.12-.98.11-1.25.02-.59-.19-.3-1.13-.17-1.71.2-.83 1.15-.82 1.8-.69.35.07.35.53.28.8 0 .04-.03.06-.07.06h-.53c-.04 0-.06-.02-.06-.06v-.13a.1.1 0 0 0-.07-.1c-.22-.08-.62-.1-.7.2-.07.31-.12.6-.15.89a.18.18 0 0 0 .12.19c.23.07.43.05.6-.08a.09.09 0 0 0 .04-.06ZM36.8 34.53c.07-.47.19-.8.63-.96.27-.1.6-.12 1-.07.88.1.64.83.53 1.45-.08.47-.2.79-.64.95-.27.1-.6.12-1 .08-.87-.1-.64-.84-.53-1.45Zm.64.13-.07.53c0 .05.01.1.04.13.03.04.07.06.11.07.14.03.3.03.47 0 .28-.05.28-.36.32-.58.04-.23.07-.4.07-.53a.2.2 0 0 0-.04-.13.19.19 0 0 0-.1-.07 1.2 1.2 0 0 0-.48 0c-.27.05-.28.36-.32.58ZM42.5 34.53c.08-.47.2-.8.64-.95.27-.1.6-.13 1-.08.87.1.64.83.53 1.44-.08.47-.2.8-.64.96-.27.1-.6.12-1 .08-.87-.1-.64-.83-.53-1.45Zm.65.13c-.04.23-.07.4-.07.53 0 .05 0 .1.04.13.02.04.06.06.1.07.15.04.31.04.48 0 .27-.04.28-.36.32-.57l.08-.54a.2.2 0 0 0-.04-.13.2.2 0 0 0-.11-.07c-.15-.03-.3-.03-.48 0-.27.05-.28.36-.32.58ZM21.69 35.04h-.4c-.04 0-.07.02-.07.05l-.14.85c-.01.04-.03.06-.07.06h-.54a.05.05 0 0 1-.05-.05l.41-2.4.02-.04.04-.02h.56a.04.04 0 0 1 .03.02.04.04 0 0 1 0 .03l-.14.81c0 .07.02.1.08.1a45.1 45.1 0 0 0 .67 0c.05 0 .07-.02.08-.05l.14-.85c0-.04.03-.06.07-.06h.54a.05.05 0 0 1 .03.02.05.05 0 0 1 .01.04l-.4 2.4-.02.04a.06.06 0 0 1-.04.01H21.92a.04.04 0 0 1-.02-.03v-.02l.14-.81c.01-.07-.01-.1-.08-.1h-.27ZM23.35 33.5h.58a.04.04 0 0 1 .03.03v.02l-.41 2.42-.02.02-.03.01H22.92l-.02-.01a.04.04 0 0 1 0-.04l.4-2.42.02-.02.03-.01ZM25.62 34.67l.13.63c.02.08.04.08.05 0l.26-1.77c0-.02.01-.03.03-.03h.6c.02 0 .03 0 .02.02l-.4 2.41c-.01.05-.04.07-.08.07h-.97c-.04 0-.07-.02-.07-.07a83.08 83.08 0 0 0-.34-1.73c-.02-.09-.04-.09-.05 0l-.26 1.77c0 .02-.02.03-.04.03h-.6c-.01 0-.02-.01-.02-.03l.41-2.4c.01-.05.04-.07.08-.07h.96c.05 0 .07.02.08.06l.21 1.11ZM28.13 35.64c0-.05-.03-.08-.08-.08h-.72c-.05 0-.08.03-.1.07l-.12.27a.14.14 0 0 1-.14.1h-.47c-.08 0-.1-.03-.07-.1l1.08-2.34a.1.1 0 0 1 .04-.05.1.1 0 0 1 .05-.01h.86c.04 0 .07.02.07.07l.3 2.37c0 .04-.02.06-.06.06h-.52c-.06 0-.1-.04-.1-.1l-.02-.26Zm-.64-.6a.02.02 0 0 0 0 .01.02.02 0 0 0 .02.01h.5c.03 0 .05-.01.05-.05l-.09-.86c0-.09-.03-.1-.07-.01l-.4.9ZM30.66 35.6l-.17.37s0 .02-.02.02l-.03.01h-.54a.06.06 0 0 1-.05-.03v-.05l1.08-2.39s0-.02.02-.02l.03-.01h.93l.04.01.02.04.24 2.38v.03l-.01.02a.06.06 0 0 1-.04.02h-.53c-.02 0-.03 0-.04-.02a.06.06 0 0 1-.02-.03l-.03-.33-.02-.04a.06.06 0 0 0-.04-.01h-.77a.06.06 0 0 0-.05.03Zm.25-.56a.02.02 0 0 0 .01.03h.51c.04 0 .06-.01.05-.05l-.09-.87c0-.1-.03-.1-.07-.01l-.4.9ZM33.38 35.42h.23c.18 0 .28-.1.31-.28l.28-1.6c0-.03.02-.04.06-.04h.56c.02 0 .03.01.03.03-.15.95-.26 1.54-.31 1.77-.19.77-.95.73-1.58.67-.37-.04-.54-.24-.5-.63l.3-1.8c.01-.03.03-.04.06-.04h.56c.03 0 .04.01.04.05l-.27 1.58c-.04.19.04.29.23.29ZM34.92 34.03l.08-.5.02-.02.03-.01h1.83a.05.05 0 0 1 .03.06l-.08.49-.02.03h-.6l-.03.02-.01.03-.32 1.83-.01.03-.03.01h-.56a.05.05 0 0 1-.03-.02.05.05 0 0 1-.02-.04l.31-1.8a.05.05 0 0 0-.03-.05h-.52a.05.05 0 0 1-.04-.04v-.02ZM41.7 34.18l-.87 1.76a.1.1 0 0 1-.09.06h-.43c-.02 0-.04 0-.05-.02a.08.08 0 0 1-.03-.05l-.25-1.58c-.03-.23-.06-.23-.09 0l-.2 1.6c0 .01 0 .03-.02.04a.05.05 0 0 1-.04.01h-.58l-.01-.01a.03.03 0 0 1-.01-.03l.41-2.4c0-.04.03-.06.06-.06h.92c.05 0 .07.02.08.07l.14 1.41.01.02.02.01a.04.04 0 0 0 .04-.02l.65-1.43a.1.1 0 0 1 .04-.05.1.1 0 0 1 .05-.01h.92c.05 0 .07.02.06.07l-.4 2.38c-.01.03-.03.05-.07.05h-.54c-.04 0-.06-.02-.05-.06l.36-1.75c.02-.1.01-.1-.04-.01ZM45.48 34.15c0-.05-.01-.07-.06-.07h-.47a.06.06 0 0 1-.05-.01.06.06 0 0 1-.01-.05l.06-.42c0-.07.04-.1.1-.1h1.77c.05 0 .06.02.05.07l-.08.45a.1.1 0 0 1-.03.05.09.09 0 0 1-.05.02h-.51l-.05.01a.07.07 0 0 0-.02.05l-.3 1.78c-.01.05-.04.07-.08.07h-.52c-.05 0-.07-.02-.06-.07l.3-1.78ZM47.2 36h-.54a.05.05 0 0 1-.04-.02v-.04l.4-2.4s0-.02.02-.03l.03-.01h.55a.05.05 0 0 1 .05.04v.02l-.41 2.4s0 .02-.02.03l-.03.01ZM49.52 33.5h.59a.04.04 0 0 1 .03.02v.03l-1.1 2.43v.01L49 36h-.95l-.03-.01v-.02l-.26-2.43v-.02a.04.04 0 0 1 .04-.02h.61l.01.03.18 1.77.01.02a.04.04 0 0 0 .06-.01l.8-1.79a.04.04 0 0 1 .04-.02ZM51.69 35.5l-.08.46c0 .01 0 .02-.02.03l-.02.01h-1.7l-.02-.02a.05.05 0 0 1 0-.03l.4-2.42.02-.02.03-.01h1.66a.04.04 0 0 1 .04.03v.02l-.08.46-.01.03h-1.06l-.02.02-.02.03-.06.35a.05.05 0 0 0 .02.05H51.72a.04.04 0 0 1 .03.02.05.05 0 0 1 .01.04l-.06.38-.02.03-.03.01h-.95l-.03.01-.01.03-.07.38a.05.05 0 0 0 .01.04.04.04 0 0 0 .03.01h1.02a.04.04 0 0 1 .03.02.05.05 0 0 1 0 .04Z" fill="#57B5CD"/></svg>