<!-- by TradingView --><svg width="56" height="56" viewBox="0 0 56 56" xmlns="http://www.w3.org/2000/svg"><path fill="#F0F3FA" d="M0 0h56v56H0z"/><path d="M4.8 23 4 25h3.11l-1.97 8h2.7l2-8h3.2l.6-2H4.8Zm10.51 0L12.7 33h2.62l2.2-8h1.19c.99 0 1.82.32 1.82 1.35 0 .82-1.5 1.24-2.24 1.34l-.35 1.76c1.52 0 1.65 1.1 1.52 1.64L19 33h2.88c.12-.5.34-1.76.34-2.67 0-.92-.55-1.5-.83-1.68.53-.3 1.6-1.24 1.6-2.52 0-2.2-1.65-3-2.47-3.13h-5.2Zm10.32 0L24 28.66c-.3 1.44.01 4.34 3.76 4.34s5.08-2.7 5.28-4.04L34.63 23h-3l-1.58 6.5c-.11.48-.64 1.5-1.88 1.5-1.55 0-1.59-1.4-1.16-2.81.35-1.14 1.27-3.93 1.69-5.19h-3.07Zm8.41 10 2.67-10h2.78l-1.9 8h4.23l-.56 2h-7.22Zm7.66-10 2.8 6-.84 4h2.87l.63-3.88L52 23h-2.77l-2.94 3.88L44.32 23H41.7Z" fill="#DA251C"/></svg>