<!-- by TradingView --><svg width="56" height="56" viewBox="0 0 56 56" xmlns="http://www.w3.org/2000/svg"><path fill="#F0F3FA" d="M0 0h56v56H0z"/><path d="M21 15.92c-.72 1.14-1.23 2.53-.9 3.9.1-.78.6-2.55 1.84-3.42-.86 1.18-2.24 4.07-.87 6.19-.05-1.09.12-3.39 1.21-3.93a8.8 8.8 0 0 0-.84 3.64c0 2.01 1.12 3.38 2.37 3.7a6.24 6.24 0 0 1-1.03-3.13c0-1.62 1.03-3 2.09-3.6-.7.74-1.9 2.62-1.06 4.18a6.61 6.61 0 0 1 3.74-4.79c-.23.43-.59 1.48-.19 2.3.47-.98 2.02-2.93 4.49-2.93 1.49 0 2.96.7 3.51 1.05l1.64-.6L27.75 9 21 15.92ZM35 40.08c.72-1.14 1.23-2.53.9-3.9-.1.78-.6 2.55-1.84 3.42.86-1.18 2.24-4.07.87-6.19.05 1.09-.12 3.39-1.21 3.93a8.8 8.8 0 0 0 .84-3.64c0-2.01-1.12-3.38-2.37-3.7.34.5 1.03 1.82 1.03 3.13 0 1.62-1.03 3-2.09 3.6.7-.74 1.9-2.62 1.06-4.18a6.61 6.61 0 0 1-3.74 4.79c.23-.43.59-1.48.19-2.3-.47.98-2.02 2.93-4.49 2.93-1.49 0-2.96-.7-3.51-1.05l-1.64.6L28.25 47 35 40.08ZM40.08 21c-1.14-.72-2.53-1.23-3.9-.9.78.1 2.55.6 3.42 1.84-1.18-.86-4.07-2.24-6.19-.87 1.09-.05 3.39.12 3.93 1.21a8.8 8.8 0 0 0-3.64-.84c-2.01 0-3.38 1.12-3.7 2.37a6.24 6.24 0 0 1 3.13-1.03c1.62 0 3 1.03 3.6 2.09-.74-.7-2.62-1.9-4.18-1.06a6.61 6.61 0 0 1 4.79 3.74c-.43-.23-1.48-.59-2.3-.19.98.47 2.93 2.02 2.93 4.49 0 1.49-.7 2.96-1.05 3.51l.6 1.64L47 27.75 40.08 21ZM15.92 35c1.14.72 2.53 1.23 3.9.9-.78-.1-2.55-.6-3.42-1.84 1.18.86 4.07 2.24 6.19.87-1.09.05-3.39-.12-3.93-1.21a8.8 8.8 0 0 0 3.64.84c2.01 0 3.38-1.12 3.7-2.37a6.24 6.24 0 0 1-3.13 1.03 4.3 4.3 0 0 1-3.6-2.09c.74.7 2.62 1.9 4.18 1.06a6.61 6.61 0 0 1-4.79-3.74c.43.23 1.48.59 2.3.19-.98-.47-2.93-2.02-2.93-4.49 0-1.49.7-2.96 1.05-3.51l-.6-1.64L9 28.25 15.92 35Z" fill="#826A49"/></svg>