<!-- by TradingView --><svg width="56" height="56" viewBox="0 0 56 56" xmlns="http://www.w3.org/2000/svg"><path fill="#2C0300" d="M0 0h56v56H0z"/><path d="M27 20.58h.4v17.54H27V20.58Zm1.44 0h.4v17.54h-.4V20.58Zm1.84 0h-.4v17.54h.4V20.58Zm.88 0h.4v17.54h-.4V20.58Zm1.84 0h-.4v17.54h.4V20.58Z" fill="#FFBE8E"/><path d="M30.74 38c-4.13 0-8.4.67-10.02 1a127 127 0 0 1 9.71-.49c3.45 0 7.45.33 9.02.49-1.18-.33-4.57-1-8.7-1ZM31.03 21c-3.32 0-6.73-.67-8.03-1 1.44.16 5.01.49 7.78.49 2.76 0 5.96-.33 7.22-.49-.94.33-3.66 1-6.97 1Z" fill="#C01339"/><path fill-rule="evenodd" d="M34.63 19.91c1.1-2.54 4.6-6.91 7.84-6.91 4.04 0-.56 5.56-6.35 7.21a10.44 10.44 0 0 0-.4 3.06c-.04 1.87-.13 6.03-1.88 8.47-1.93 2.69-6.15 4.86-9.96 5.17 1.68-.43 5.55-1.94 7.51-4.55 2.45-3.26 3.84-7.25 3.78-9.83-.48 1.69-1.75 5.6-3.02 7.76-1.6 2.69-5.9 6.96-13.25 6.96-7.36 0-8.9-4.22-8.9-6.83 0-2.62 3.1-7.92 9.6-7.92s6.63 4.81 6.63 5.38c0 .57-.84 4.94-6.1 4.94-.87-.03-2.75-.28-3.37-.98-.5-.56.5-.32 1.52-.08.57.14 1.16.28 1.5.28.94 0 5.08-1.14 5.08-4.16 0-3.02-2.91-4.52-5.67-4.52s-8.07 2.3-8.07 7.68 6.82 5.4 8.07 5.4c1.24 0 8.57-.38 12.2-9.08.46-1.2 1.47-3.46 2.3-5.32l.94-2.13Zm2.05-.7a9.08 9.08 0 0 1 2.33-3.5c1.56-1.33 3.1-1.8 3.55-1.5.46.31-1.22 2.33-2.57 3.14-1.08.65-2.66 1.5-3.3 1.86Z" fill="url(#a)"/><defs><linearGradient id="a" x1="28.58" y1="16.87" x2="27.03" y2="37.25" gradientUnits="userSpaceOnUse"><stop offset=".33" stop-color="#F4CF7E"/><stop offset=".65" stop-color="#D50D34"/><stop offset="1" stop-color="#BF1339"/></linearGradient></defs></svg>