<!-- by TradingView --><svg width="56" height="56" viewBox="0 0 56 56" xmlns="http://www.w3.org/2000/svg"><path fill="#F0F3FA" d="M0 0h56v56H0z"/><path d="M32.38 12.2c0 8.18-3.56 13.94-5.34 15.8-2.73-.38-9.24 1.08-12.15 1.85 1.94-1.85 2.43-2.78 5.83-11.14a10.2 10.2 0 0 1 11.66-6.5ZM40.64 27.07c-2.33-1.86-5.18-6.97-6.32-9.3-.38 4.47-3.07 8.99-4.37 10.69 1.94 6.32 8.59 11 11.66 12.54 4.38-5.57 1.95-11.61-.97-13.93ZM35.3 39.6c-1.95-1.85-5.67-6.96-7.3-9.28-10.1-.75-15.54 2.16-17 3.71 1.94 5.58 7.29 6.97 9.72 6.97 2.43 0 7.77-1.86 9.72-1.86 1.55 0 3.88.31 4.86.47Z" fill="#006C66"/></svg>