<!-- by TradingView --><svg width="56" height="56" viewBox="0 0 56 56" xmlns="http://www.w3.org/2000/svg"><path fill="#F0F3FA" d="M0 0h56v56H0z"/><path d="M32.58 28.74c.17.17.38.26.63.26h9.6a1.19 1.19 0 0 1 1.17 1.43 1.2 1.2 0 0 1-.33.6c-4.14 4.17-8.34 8.84-12.6 13.11-.99.99-1.76 1.57-2.32 1.74-1.08.32-2.1 0-3.08-.99-.73-.74-5.16-5.66-13.3-13.85A1.19 1.19 0 0 1 13.2 29H21c.27 0 .5.1.7.3l4.02 4.12a.34.34 0 0 1-.23.58h-2.71a.44.44 0 0 0-.41.27.44.44 0 0 0 .1.48l4.59 4.98c.63.65 1.27.65 1.92 0l4.23-4.7c.76-.77.6-1.06-.48-1.03a3.38 3.38 0 0 1-2.63-1.1l-6.66-5.64a.9.9 0 0 0-.64-.26h-9.6a1.19 1.19 0 0 1-1.17-1.42c.05-.23.16-.45.33-.61 4.14-4.16 8.34-8.84 12.6-13.11.99-.99 1.76-1.57 2.32-1.74 1.08-.32 2.1 0 3.08.99.73.74 5.16 5.67 13.3 13.86A1.19 1.19 0 0 1 42.8 27H35c-.27 0-.5-.1-.7-.3l-4.02-4.12a.34.34 0 0 1 .23-.58h2.71a.44.44 0 0 0 .44-.53.44.44 0 0 0-.12-.22l-4.6-4.98c-.63-.65-1.27-.65-1.92 0l-4.23 4.7c-.76.78-.6 1.06.48 1.03.89-.02 1.63.12 2.63 1.11l6.67 5.63Z" fill="#E31D23"/></svg>