<!-- by TradingView --><svg width="56" height="56" viewBox="0 0 56 56" xmlns="http://www.w3.org/2000/svg"><path fill="#F0F3FA" d="M0 0h56v56H0z"/><path d="M32 22.7v-8.86l5.6 4.68c.17.17.3.33.3.62 0 .25-.18.58-.48.75L32 22.71Zm-3 19.86-12-8.78 12-6.6v15.38Zm10.82-25.61L32.4 10.6c-.6-.54-1.74-.8-2.44-.46-.57.25-.96.66-.96 1.82V24.2l-13.65 7.46c-1.13.58-1.35 1.41-1.35 2 0 1.03.61 1.65 1.3 2.15L29 45.55c.57.37 1.31.66 2.18.25.79-.38.86-1.04.82-1.62V25.7l6.77-3.56c1.35-.7 2.22-1.5 2.22-2.82.05-.87-.13-1.5-1.17-2.36Z" fill="#ED1B23"/></svg>