<!-- by TradingView --><svg width="56" height="56" viewBox="0 0 56 56" xmlns="http://www.w3.org/2000/svg"><path fill="#F0F3FA" d="M0 0h56v56H0z"/><path d="M19.46 16.89 12 35.4l12.86-1.6 6.67-16.2c1.34-1.62 2.34-2.8 6.01-2.69 2.94.09 5.53 1.83 6.46 2.68-.13-.54-.9-2.03-2.94-3.62-3.52-2.76-12.8-1.96-16.2-1.54-2.92.37-4.81 3.12-5.4 4.45Z" fill="#D7000F"/><path d="M36.54 39.11 44 20.6l-12.86 1.6-6.67 16.2c-1.34 1.62-2.34 2.8-6.01 2.69A10.96 10.96 0 0 1 12 38.4c.13.54.9 2.03 2.94 3.62 3.52 2.76 12.8 1.96 16.2 1.54 2.92-.37 4.81-3.12 5.4-4.45Z" fill="#002A7E"/></svg>