<!-- by TradingView --><svg width="56" height="56" viewBox="0 0 56 56" xmlns="http://www.w3.org/2000/svg"><path fill="#F0F3FA" d="M0 0h56v56H0z"/><path fill-rule="evenodd" d="m10.76 24.72.19-1.39A5.64 5.64 0 0 0 9.3 23H7.78c-1.36 0-1.7 1.1-1.72 1.64v1.26c0 1.41 1.65 1.7 2.5 1.85l.2.03c.6.12.78.48.8.65v.59c0 .54-.43.66-.65.65h-1.3c-.54 0-1.1-.33-1.32-.5L6 30.5c.62.37 1.51.49 1.88.5h1.3A1.77 1.77 0 0 0 11 29.38v-1.7c0-.94-1.84-1.4-2.63-1.6a4.67 4.67 0 0 1-.3-.08c-.3-.1-.38-.31-.38-.4v-.53c0-.4.05-.73 1.21-.73.93 0 1.63.25 1.86.38ZM12 25v4.9c.02.37.36 1.1 1.56 1.1.73 0 1.41-.3 1.92-.6v.6h1.58v-6h-1.58v3.83c-.34.26-.85.56-1.29.56a.59.59 0 0 1-.63-.56V25H12Zm11 1.1V31h-1.54v-3.83a.58.58 0 0 0-.62-.56c-.44 0-.94.3-1.28.56V31H18v-6h1.56v.6c.5-.3 1.18-.6 1.9-.6 1.18 0 1.52.73 1.54 1.1ZM44 31v-4.9c-.02-.37-.36-1.1-1.54-1.1-.72 0-1.4.3-1.9.6V25H39v6h1.56v-3.84c.34-.25.84-.55 1.28-.55.48 0 .62.37.62.56V31H44Zm-17-8h1.65v8H27v-8Zm4.22 0H33l-2.27 4L33 31h-1.78l-2.27-4 2.27-4Zm4.53 8c1.52 0 2.75-.6 2.75-3s-1.23-3-2.75-3-2.75.82-2.75 3 1.23 3 2.75 3Zm0-1.32c.58 0 1.05-.33 1.05-1.68 0-1.35-.47-1.68-1.05-1.68-.58 0-1.05.46-1.05 1.68s.47 1.68 1.05 1.68Zm13.82-2.36c0 1.86-1.03 2.32-2.29 2.32l-.23-.01c-.6.83.08.82.72.8h.04c.69 0 1.99.11 1.99 1.55S49.16 34 47.48 34a4.9 4.9 0 0 1-2.3-.4l.27-1.32c.23.13.89.4 1.72.4 1.04 0 1.21-.22 1.21-.57s-.65-.47-1.45-.47c-.8 0-1.68-.13-1.68-1.1 0-.56.38-.98.71-1.22-.58-.34-.96-.98-.96-2 0-1.69 1.02-2.32 2.28-2.32.5 0 .95.07 1.32.26H50v.9h-.62c.12.3.19.69.19 1.16Zm-1.58 0c0 .71-.31.9-.7.9-.4 0-.72-.25-.72-.9s.32-.9.71-.9c.4 0 .71.18.71.9Z" fill="#BF9215"/></svg>