<!-- by TradingView --><svg width="56" height="56" viewBox="0 0 56 56" xmlns="http://www.w3.org/2000/svg"><path fill="#2D2D2D" d="M0 0h56v56H0z"/><path d="M18.69 31 18 35.5l2 2.5v-7h-1.31Z" fill="#9A9899"/><path d="M20.57 31v2.67l.51.58-.5 1.08c.3.25.93.84.93 1.26 0 .52.13 1.24-.43 1.24-.44 0-1.4-.12-1.58-.33.3.55 1.47 1.37 1.75 1.48.34.14 1.54-.62 1.54-2.2 0-1.25-.56-2.2-.84-2.53L23 31h-2.43Z" fill="#9A9899"/><path fill-rule="evenodd" d="M23 37h1.5l.45-1.53H26v5.63h1V31h-2.4L23 37Zm2.83-2.4v-1.9l-.71 1.9h.71Z" fill="#9A9899"/><path fill-rule="evenodd" d="M28 44.7c8.84 0 16-7.32 16-16.35C44 19.32 36.84 12 28 12s-16 7.32-16 16.35c0 9.03 7.16 16.35 16 16.35Zm0-4.13a12.1 12.1 0 0 0 11.97-12.22A12.1 12.1 0 0 0 28 16.14a12.1 12.1 0 0 0-11.96 12.21A12.1 12.1 0 0 0 28 40.57Z" fill="#9A9899"/><path d="M45 40.83 41.04 45a421.76 421.76 0 0 1-8.14-9.45c-.82-1.12-1.36-3.3-.34-4.31.82-.82 3.16.66 4.22 1.5L45 40.83Z" fill="#9A9899"/><path fill-rule="evenodd" d="M30 36.1c.83 0 1.5-1.14 1.5-2.55 0-1.4-.67-2.55-1.5-2.55s-1.5 1.14-1.5 2.55.67 2.56 1.5 2.56Zm0-1.88c.38 0 .68-.3.68-.67 0-.36-.3-.66-.68-.66-.38 0-.68.3-.68.66 0 .37.3.67.68.67Z" fill="#9A9899"/><path fill-rule="evenodd" d="M30 40.41c1.1 0 2-1.27 2-2.84 0-1.56-.9-2.83-2-2.83s-2 1.27-2 2.83c0 1.57.9 2.84 2 2.84Zm0-1.85c.42 0 .76-.44.76-.99 0-.54-.34-.98-.76-.98s-.76.44-.76.98c0 .55.34.99.76.99Z" fill="#9A9899"/></svg>