<!-- by TradingView --><svg width="56" height="56" viewBox="0 0 56 56" xmlns="http://www.w3.org/2000/svg"><path fill="#F0F3FA" d="M0 0h56v56H0z"/><path fill="#004079" d="M13 23h2v11h-2zM9 23H7v7.28c.03 1.24.63 3.72 2.7 3.72 1.48 0 2.15-.61 2.3-.92v-2.2c-.17.37-.72 1.12-1.5 1.12-.97 0-1.5-1.04-1.5-1.68V23ZM22 23h2v11h-2zM22 19h2v2h-2zM16 23v2h.8c.66 0 1.2.67 1.2 1.5V34h2v-7.83c0-1.75-1.14-3.17-2.54-3.17H16ZM25 34h1.14L29 23h-2.29L25 29.6V34ZM29 27.9c0-2.7 1.98-4.9 4.43-4.9H34v2h-.48c-1.4 0-2.52 1.1-2.52 2.45v.05h3v2h-3v.05A2.48 2.48 0 0 0 33.52 32H34v2h-.57C30.98 34 29 31.8 29 29.1v-1.2ZM45 27.9c0-2.7 1.98-4.9 4.43-4.9H50v2h-.48c-1.4 0-2.52 1.1-2.52 2.45v.05h3v2h-3v.05A2.48 2.48 0 0 0 49.52 32H50v2h-.57C46.98 34 45 31.8 45 29.1v-1.2ZM37 23h-2v11h2v-5.53a4 4 0 0 1 2-2.92v-2.52a4.79 4.79 0 0 0-2 2v.01V23ZM39.5 32.08V34c1.33 0 4-.65 4-3.24 0-2.6-2.67-3.59-4-3.76v2.32c.54.04 1.63.38 1.63 1.44s-1.09 1.32-1.63 1.32ZM39.5 23v1.9c.5 0 1.49.22 1.62 1.1h2.38c-.13-2.4-2.7-3-4-3Z"/></svg>