<!-- by TradingView --><svg width="56" height="56" viewBox="0 0 56 56" xmlns="http://www.w3.org/2000/svg"><path fill="#F0F3FA" d="M0 0h56v56H0z"/><path d="M27.74 39.95A14.5 14.5 0 1 1 26.5 11c6.01 0 11.3 3.66 13.5 8.88L38.63 22c-1.5-5.2-6.44-9-12.13-9a12.5 12.5 0 1 0 2.56 24.74l-1.32 2.2Z" fill="#EF1935"/><path d="M32.44 30.1c6.55-2.62 7.79-8.25 7.59-11.2-.37-.37-.72-.67-1-.9-.53 8.52-7.81 11.66-11.39 12.16C28.7 39.52 19 42.71 14 43.14A48.4 48.4 0 0 0 26.7 45C39.32 45 44 33.13 44 27.48c0-1.25-.26-2.44-.66-3.53-.64 2.22-2.92 6.45-7.58 7.43 2.12-1.3 6.35-4.96 6.68-9.34-.29-.5-.6-.98-.92-1.41-1.08 6.98-6.47 9.23-9.08 9.47Z" fill="#008E40"/></svg>