<!-- by TradingView --><svg width="56" height="56" viewBox="0 0 56 56" xmlns="http://www.w3.org/2000/svg"><path fill="#F0F3FA" d="M0 0h56v56H0z"/><path d="M17.11 15 8 39h7.78l2.72-10.27v-3.14c0-1.93 2.08-4.77 3.12-5.95L18.79 15H17.1ZM38.89 15 48 39h-7.46l-2.53-10.02c0-.23-.03-2.33-.3-4.13-.28-1.92-1.67-3.57-2.71-4.74L37.21 15h1.68Z" fill="#D8B000"/><path d="M21.8 28.16 27.13 39h1.8l4.54-8h-2.82l-2.61 5.58-5.54-13.41a9.78 9.78 0 0 0-.7 4.99Zm9.78.84h3.02l3.4-6h-3.6l-2.82 6Z" fill="#D8B000"/><path d="M18 27.21C18 22.34 21.72 17 28.05 17c5.06 0 8.28 3.83 9.26 5.74l.12.22-3.57 1.24-.05-.25c-.19-1-.71-2.5-1.65-3.74a5.07 5.07 0 0 0-4.11-2.2c-2.28 0-3.85 1.49-4.85 3.46-1 1.96-1.43 4.36-1.43 6.03s.43 4.02 1.44 5.93c1 1.92 2.58 3.37 4.86 3.37 1.84 0 3.17-.92 4.1-2.1a8.75 8.75 0 0 0 1.59-3.27H30V29h8v.21c.04 1.69-.93 3.7-2.65 5.53a10 10 0 0 1-7.3 3.26 9.48 9.48 0 0 1-7.33-3.57A11.61 11.61 0 0 1 18 27.2Zm10.05-9.78c-6.03 0-9.6 5.09-9.6 9.78 0 2.34.93 4.94 2.61 6.95a9.03 9.03 0 0 0 6.99 3.41 9.55 9.55 0 0 0 6.97-3.12c1.6-1.7 2.5-3.5 2.54-5.02h-7.12V31h3.86l-.05.26c-.2 1-.74 2.45-1.73 3.7a5.55 5.55 0 0 1-4.45 2.27c-2.52 0-4.2-1.6-5.25-3.6a14 14 0 0 1-1.49-6.13c0-1.73.43-4.19 1.47-6.23 1.04-2.03 2.73-3.7 5.25-3.7a5.5 5.5 0 0 1 4.46 2.39 9.99 9.99 0 0 1 1.68 3.67l2.61-.91c-1.06-1.9-4.11-5.29-8.75-5.29Z" fill="#D8B000"/></svg>