<!-- by TradingView --><svg width="56" height="56" viewBox="0 0 56 56" xmlns="http://www.w3.org/2000/svg"><path fill="#F0F3FA" d="M0 0h56v56H0z"/><path d="M18.91 13c-3.73 0-6.16-.54-6.91-1 2.43 5.46 10.35 6.9 14.5 7h3.51c1.54 0 3.99 1.16 3.99 3.35 0 1.74-1.93 2.89-2.82 3.24 1.76.6 5.22 3.19 6.73 4.41C40.9 28.6 43 25.5 43 22.35c0-6.72-6.38-9.16-9.58-9.35h-14.5ZM26 42c.14-10.87-6.81-16.53-10.31-18 3.44 6.83.97 14.85-.69 18h11Z" fill="#1C4A98"/><path d="M43 42c-5.2-14.52-20.22-19-25-19 7.22 2.87 12.71 13.22 13.74 19H43Z" fill="#1C4A98"/></svg>