<!-- by TradingView --><svg width="56" height="56" viewBox="0 0 56 56" xmlns="http://www.w3.org/2000/svg"><path fill="#F0F3FA" d="M0 0h56v56H0z"/><path d="m28.58 11 1.8.18c.06 0 .09.03.1.09l.21 3.2c0 .03.01.05.03.07a.1.1 0 0 0 .05.03l1.38.38c.05 0 .08 0 .1-.04L34 12.25a.12.12 0 0 1 .06-.05h.09c1.5.62 2.87 1.43 4.14 2.44a.14.14 0 0 1 .04.17l-1.36 2.84a.13.13 0 0 0 .03.15l.96.98a.16.16 0 0 0 .18.03l2.8-1.4h.05a17.7 17.7 0 0 1 2.45 4.26c.02.05.02.1-.02.14a.87.87 0 0 1-.71.35l-1.8.02c-.12 0-.13-.04-.03-.1l1.04-.71a.1.1 0 0 0 .03-.13l-1.2-2.14a.19.19 0 0 0-.11-.08.18.18 0 0 0-.14 0l-2.68 1.35a.17.17 0 0 1-.11.01.18.18 0 0 1-.1-.06 14.19 14.19 0 0 0-2.13-2.18.12.12 0 0 1-.04-.07v-.08l1.36-2.83a.12.12 0 0 0-.05-.16l-2.14-1.26a.1.1 0 0 0-.07 0 .11.11 0 0 0-.07.04l-1.72 2.64a.1.1 0 0 1-.12.04c-.97-.4-1.97-.68-2.99-.83-.05 0-.07-.03-.08-.08l-.21-3.18c0-.07-.05-.1-.12-.1h-2.49a.1.1 0 0 0-.1.08l-.21 3.2c0 .05-.03.08-.08.09a12.35 12.35 0 0 0-3.05.82.1.1 0 0 1-.05-.04L21.5 13.8c-.04-.07-.1-.08-.16-.04l-2.12 1.26a.11.11 0 0 0-.05.14l1.35 2.82a.14.14 0 0 1-.03.17c-.81.67-1.51 1.4-2.11 2.16a.2.2 0 0 1-.24.06l-2.7-1.35a.13.13 0 0 0-.18.05l-1.22 2.17a.12.12 0 0 0 .03.15l1.05.71c.06.05.06.07-.02.07a43.2 43.2 0 0 1-1.92.01.86.86 0 0 1-.63-.36.13.13 0 0 1-.01-.14 17.76 17.76 0 0 1 2.44-4.25h.07l2.8 1.4a.14.14 0 0 0 .16-.03l.98-1c.04-.04.04-.08.02-.12l-1.37-2.86a.13.13 0 0 1 .04-.16 16.87 16.87 0 0 1 4.22-2.46.1.1 0 0 1 .05.04l1.76 2.67a.1.1 0 0 0 .11.04l1.38-.38c.04-.01.07-.04.07-.09l.22-3.24c0-.02 0-.03.02-.04a.07.07 0 0 1 .04-.03L27.5 11h1.1ZM28 17.61a9.94 9.94 0 0 1 8.2 4.37V22h-1.48a.08.08 0 0 1-.07-.02 9.01 9.01 0 0 0-3.69-2.6 8.41 8.41 0 0 0-2.96-.52 8.4 8.4 0 0 0-2.96.52 9.01 9.01 0 0 0-3.69 2.6.08.08 0 0 1-.06.03h-1.48v-.01a9.93 9.93 0 0 1 8.2-4.38Zm-17 5.8V26h4.82c.05 0 .07.03.06.09l-1.14 6.84a.04.04 0 0 0 0 .03.04.04 0 0 0 .04.02c1.89 0 2.98.01 3.28.02.7.01 1.2-.2 1.55-.66.2-.25.35-.73.48-1.45l.43-2.61.36-2.22c0-.02 0-.03.02-.04l.04-.02h5.7c.05 0 .07-.02.08-.06l.56-2.85c.01-.06-.01-.09-.07-.09H11.95c-.36 0-.68.14-.95.4ZM45 23v4h-4.65l-.02-.01h-.01a.07.07 0 0 1-.05-.09l.2-1.34a.1.1 0 0 0-.1-.12h-5.48c-.55 0-1.03 0-1.13.59l-.64 3.65c-.1.54.11.82.63.84 1.04.05 2.91.05 5.6 0a.28.28 0 0 0 .27-.2l.12-.48c.04-.12-.01-.18-.14-.18h-4.74c-.07 0-.1-.03-.08-.1l.26-1.47c.01-.08.06-.09.14-.09H45v.35l-.57 3.12c-.1.66-.4 1.1-.9 1.34-.27.13-.75.2-1.46.19h-12.1c-.37 0-.71 0-1.01-.1a1.5 1.5 0 0 1-1.05-1.17c-.05-.27-.02-.74.1-1.42.33-1.95.68-3.89 1.03-5.83.1-.6.4-1.03.85-1.27a3.3 3.3 0 0 1 1.38-.21H45Zm-30.4 6.49-1.4-.1c-.08 0-.12-.05-.12-.13v-2.15l-.01-.04a.06.06 0 0 0-.05-.02h-1.08c-.04 0-.06.03-.07.07-.05 1.08 0 2.2.15 3.34 0 .06.04.1.1.1l2.26.16.03-.01.02-.03.2-1.14v-.02l-.01-.01a.04.04 0 0 0-.03-.02Zm13.38 7.69c1.05 0 2.04-.17 2.97-.51a9.05 9.05 0 0 0 3.7-2.6l.02-.02c.02-.03.03-.05.05-.05h1.47v.05h.01v.01a9.96 9.96 0 0 1-10.76 4.01A9.96 9.96 0 0 1 19.79 34h1.47l.06.03a9.04 9.04 0 0 0 3.7 2.62c.92.35 1.91.53 2.96.53Zm-2.4 7.63a15.96 15.96 0 0 0 4.89-.02.07.07 0 0 0 .02-.04l.22-3.23a.1.1 0 0 1 .07-.09l1.39-.37a.1.1 0 0 1 .1.04l1.75 2.67a.09.09 0 0 0 .11.03 17.07 17.07 0 0 0 4.22-2.52l-.01-.08-1.37-2.88a.1.1 0 0 1-.01-.06.1.1 0 0 1 .03-.05l1-1.03a.1.1 0 0 1 .05-.03.1.1 0 0 1 .06 0l2.84 1.43c.04.02.07 0 .1-.03 1-1.3 1.8-2.74 2.42-4.28a.07.07 0 0 0-.02-.09 1.12 1.12 0 0 0-.84-.37h-1.69c-.11 0-.12.04-.03.1l1.02.7c.03.02.04.04.05.07l-.01.1-1.23 2.17c-.04.06-.08.08-.14.05l-2.8-1.4a.1.1 0 0 0-.07 0 12.59 12.59 0 0 1-2.21 2.24.14.14 0 0 0-.05.08l.01.1 1.34 2.8c.02.03.02.06.01.1 0 .03-.03.06-.06.08l-2.1 1.24a.13.13 0 0 1-.17-.04l-1.72-2.62a.1.1 0 0 0-.11-.04c-.97.4-1.96.68-2.98.83-.06 0-.09.03-.1.1l-.2 3.12c0 .03-.02.05-.03.07a.1.1 0 0 1-.07.03 12.2 12.2 0 0 1-2.58-.03.11.11 0 0 1-.03-.07l-.22-3.13c0-.05-.03-.09-.09-.1a12.22 12.22 0 0 1-3.04-.81.1.1 0 0 0-.05.04l-1.72 2.62a.13.13 0 0 1-.16.04L19.26 41a.13.13 0 0 1-.06-.08v-.1l1.35-2.8a.15.15 0 0 0 0-.1.14.14 0 0 0-.04-.07 12.59 12.59 0 0 1-2.22-2.25.1.1 0 0 0-.07.01l-2.79 1.4c-.06.03-.1.01-.14-.05l-1.23-2.18a.12.12 0 0 1 .03-.16l1.02-.7c.1-.06.09-.1-.03-.1H13.4c-.36 0-.59.14-.83.37a.07.07 0 0 0-.02.09 17.82 17.82 0 0 0 2.42 4.28c.03.04.06.05.1.03l2.84-1.42a.1.1 0 0 1 .06-.01.1.1 0 0 1 .05.03l1 1.02a.1.1 0 0 1 .03.06.1.1 0 0 1 0 .06l-1.38 2.88a.11.11 0 0 0 .03.14 17.05 17.05 0 0 0 4.24 2.46c.02 0 .04-.02.05-.04l1.75-2.67a.1.1 0 0 1 .1-.04l1.39.37c.05.02.07.05.08.1l.22 3.22a.07.07 0 0 0 .05.06Z" fill="#1D5699"/></svg>