<!-- by TradingView --><svg width="56" height="56" viewBox="0 0 56 56" xmlns="http://www.w3.org/2000/svg"><path fill="#F0F3FA" d="M0 0h56v56H0z"/><path d="M48.5 30.72h.86c.38 0 .66-.06.82-.2.16-.12.25-.33.25-.62 0-.3-.1-.52-.27-.67-.17-.14-.44-.21-.81-.21h-.85v1.7Zm.76-2.95c.27 0 .47-.06.6-.18s.2-.3.2-.55c0-.27-.07-.47-.2-.6s-.33-.2-.6-.2h-.76v1.53h.76ZM47 32v-7h2.19c1.56 0 2.36.6 2.36 1.8 0 .62-.27 1.1-.79 1.37.83.3 1.24.9 1.24 1.82 0 1.34-.78 2.01-2.35 2.01H47ZM42 32v-7h4v1.3h-2.53v1.42h2.35v1.3h-2.35v1.67H46V32h-4ZM34.49 32 32 25h1.6l1.19 3.78 1.2-3.78h1.02l1.2 3.78L39.4 25H41l-2.49 7h-.63l-1.38-4.34L35.11 32h-.62ZM29.5 32v-7H31v7h-1.5ZM23.5 27.6V32H22v-7h1.31l3.19 4.17V25H28v7h-1.17l-3.33-4.4ZM18.55 28c.65 0 .95-.27.95-.82 0-.53-.33-.81-.95-.81H17.5V28h1.05ZM16 32v-7h2.54c1.88 0 2.46.64 2.46 2.03 0 .77-.1 1.31-.91 1.7.17.06.32.16.45.31.14.15.26.34.36.56L22 32h-1.94l-.88-2.02c-.14-.32-.3-.68-.48-.8a2.36 2.36 0 0 0-1.2-.17V32H16ZM15 25v3.94c0 1.81-1.17 3.06-3 3.06-1.84 0-3-1.25-3-3.06V25h1.5v3.87c0 1.09.59 1.69 1.51 1.69.91 0 1.49-.59 1.49-1.7V25H15ZM4 32v-7h4v1.5H5.57V28H7.5v1.5H5.57V32H4Z" fill="#002983"/></svg>