<!-- by TradingView --><svg width="56" height="56" viewBox="0 0 56 56" xmlns="http://www.w3.org/2000/svg"><path fill="#F0F3FA" d="M0 0h56v56H0z"/><path d="M22 27v3.17c0 .76.61 1.37 1.36 1.37H25v.99c-6.93.44-10.64 2.57-12 3.59A17.24 17.24 0 0 0 28.19 45c6.24.07 11.82-3.4 14.81-8.88-1.36-1.02-5.07-3.15-12-3.6v-.98h1.63c.76 0 1.37-.61 1.37-1.37V27H22Z" fill="#72C05B"/><path d="M28 11c5.55 0 10.49 2.66 13.59 6.78-1.33.8-4.98 2.15-11.3 2.46V21h2.47c.68 0 1.24.54 1.24 1.23V25H22v-2.77c0-.69.56-1.23 1.24-1.23h2.46v-.76c-6.31-.31-9.96-1.66-11.29-2.46A17.14 17.14 0 0 1 28 11Z" fill="#ED4850"/><path d="M11 28c0 2.55.56 4.97 1.57 7.14a20.64 20.64 0 0 0 3.89-2.67c1.37-1.29 1.46-4.5 1.54-7.29.03-.99.05-1.92.14-2.7.22-2.2-2.7-3.23-4.53-3.54A16.92 16.92 0 0 0 11 28ZM45 28c0 2.55-.56 4.97-1.57 7.14a20.63 20.63 0 0 1-3.89-2.67c-1.37-1.29-1.46-4.5-1.54-7.29-.03-.99-.05-1.92-.13-2.7-.23-2.2 2.68-3.23 4.52-3.54A16.92 16.92 0 0 1 45 28Z" fill="#ED4850"/></svg>