<!-- by TradingView --><svg width="56" height="56" viewBox="0 0 56 56" xmlns="http://www.w3.org/2000/svg"><path fill="#F0F3FA" d="M0 0h56v56H0z"/><path d="M26.98 21.78a14.55 14.55 0 0 0-4.82-.92c0 .21-.08-.02-.14-.11-.02-2.48-.03-5.13 0-7.6 0-.92.1-1.56.32-1.93.35-.63.9-1.02 1.64-1.17.74-.15 1.41 0 2.01.45.38.28.64.6.78.94.13.3.19.71.2 1.25.02 2.95.05 5.98.01 9.1Z" fill="#6EB7B0"/><path d="M34 24.09c-.01.2-.05.25-.1.1l-4.87-1.27c-.03-1.7-.04-3.43-.02-5.17.01-.68.04-1.11.07-1.3a2 2 0 0 1 .98-1.33 2.2 2.2 0 0 1 1.67-.27c1.43.32 2.15 1.2 2.18 2.66.05 2.21.08 4.4.09 6.58ZM22.07 20.74c.06.1.13-.02.12 0l-.06 4.36c-.8-.13-1.58-.24-2.36-.3-1.74-.17-3.65.07-5.71.7-1.11.33-1.8-.1-2.06-1.28v-.97a3.22 3.22 0 0 1 2.43-2.38 15.2 15.2 0 0 1 7.18-.27c.21.04.33.2.46.14Z" fill="#01869F"/><path d="m27 21.78-.05 4.33c0 .12-.06.16-.19.13L22 25.1v-4.35c1.63.06 3.34.4 5 1.03ZM34 24.2v4.24l-4.8-1.2c-.13-.03-.2-.1-.2-.22v-4.1l5 1.28Z" fill="#A6BD78"/><path d="M34.09 24.2c1.77.34 3.73.24 5.87-.1 1.04-.18 1.7.26 1.96 1.3.1.44.1.88 0 1.33a2.2 2.2 0 0 1-.62 1.12c-.43.41-1.13.7-2.08.85-1.74.28-3.48.2-5.22-.26V24.2h.09ZM22.16 27.53l.07 4.1c0 .08.09.17.27.27a.63.63 0 0 0-.43.04 13.23 13.23 0 0 0-5.56-.1c-1.05.2-1.77-.05-2.17-.76a2.27 2.27 0 0 1-.09-2.22c.36-.75.97-1.22 1.84-1.43 1.87-.44 3.9-.41 6.07.1Z" fill="#6EB7B0"/><path d="m27 33.14-4.64-1.25c-.19-.1-.35-.18-.35-.27-.03-1.35.02-2.73 0-4.12l4.84 1.15c.1.02.16.08.16.19v4.3ZM34 30.87v4.25c-.35.28-.92.3-1.71.06a64.48 64.48 0 0 0-3.29-.92v-4.43c0-.12.15-.16.27-.12 1.53.55 3.1.94 4.73 1.16Z" fill="#A6BD78"/><path d="M34 35.39v-4.52c2.6.6 5.4.46 8.34-.44.39-.12.75-.03 1.09.27.32.29.5.65.55 1.08.24 2.34-1.4 3.62-4.92 3.82-1.67.09-3.39.02-5.06-.21ZM22.45 31.9 27 33.14c0 1.74.01 3.5-.03 5.26-.02.98-.18 1.67-.5 2.05-.53.68-1.37.87-2.51.59-.66-.16-1.18-.61-1.57-1.34-.2-.4-.31-1.01-.32-1.86-.01-2.33-.1-4.28-.06-5.83 0 0 .17-.07 0-.07.16-.07.3-.08.44-.04Z" fill="#01869F"/><path d="M34 35.12v7.83c0 .83-.1 1.43-.27 1.78-.4.8-1.1 1.22-2.08 1.26-.97.04-1.7-.3-2.21-1.03-.27-.4-.4-1.06-.41-1.99v-.17c-.02-2.84-.05-5.69-.01-8.54a64 64 0 0 1 3.27.92c.77.24 1.37.22 1.71-.06Z" fill="#6EB7B0"/></svg>