<!-- by TradingView --><svg width="56" height="56" viewBox="0 0 56 56" xmlns="http://www.w3.org/2000/svg"><path fill="#F0F3FA" d="M0 0h56v56H0z"/><path d="M38.8 12c2.6.32 4.07 3.08 2.64 5.37a3.5 3.5 0 1 1-3.3-5.37h.66Z" fill="#90C31F"/><path d="M16 21a3 3 0 1 0 0-6 3 3 0 0 0 0 6ZM25.83 23.42c1.24 0 2.24-.99 2.24-2.21s-1-2.21-2.24-2.21c-1.24 0-2.24.99-2.24 2.21s1 2.21 2.24 2.21Z" fill="#0D6FB8"/><path d="M27.32 28.87c-.48.76-.84 1.49-1.07 2.18a8.44 8.44 0 0 0 .2 6.36c.12.33.39.68.8 1.05-1.15.28-2-.14-2.54-1.26a7.24 7.24 0 0 1-.66-3.59c.1-1.63.4-3.2.94-4.7l1.03-2.24a12.98 12.98 0 0 1 8.17-6.57c.98-.24 1.84-.3 2.61-.19 2.7.41 4.57 2.65 5.5 5.2l.02.02.03.02h.06c.98-.57 2.18-1.17 3.6-1.8 1.28-.57 2.57-1 3.88-1.28.11-.02.14.01.07.11a6.2 6.2 0 0 0-1.02 2.6.12.12 0 0 1-.05.03l-5.85 2.55a.28.28 0 0 0-.16.27c.38 4.48-1.76 9.06-4.67 12.34a14.66 14.66 0 0 1-4.16 3.3c-.6.3-1.2.53-1.8.66-1.59.35-2.3-.63-2.27-2.16.03-.86.21-1.82.57-2.88a25.48 25.48 0 0 1 8.78-12.05.15.15 0 0 0 0-.08c-.38-1.62-1.24-2.67-2.57-3.15-2.22-.8-4.56.23-6.36 1.7a14.05 14.05 0 0 0-3.08 3.56Zm12.05.73c-.16.07-.32.18-.45.33l-.34.28a24.55 24.55 0 0 0-4.53 4.67 13.87 13.87 0 0 0-2.1 4.02c-.12.4-.32 1.32.02 1.66.99.98 2.9-.72 3.55-1.46a18.52 18.52 0 0 0 3.23-5.79c.43-1.19.68-2.39.76-3.61.01-.12-.04-.15-.14-.1Z" fill="#90C31F"/><path d="M26.02 26.67 25 28.91c-1.38-1.78-3.36-3.46-5.59-3.77a3.81 3.81 0 0 0-3.17.96 3.9 3.9 0 0 0-1.06 2.03c-.01.07 0 .12.06.16a22.63 22.63 0 0 1 7.17 9.2c.6 1.42 1.15 3.06.97 4.48-.2 1.6-1.6 1.52-2.79 1.05-4.78-1.88-8.77-8.29-8.58-13.5.1-2.59 1.25-5.2 3.4-6.67 2.07-1.42 4.9-.74 7 .49 1.43.84 2.64 1.95 3.62 3.33Zm-10.89 3.97c-.1-.04-.13-.01-.13.09.07 1.08.3 2.14.67 3.18.65 1.79 1.6 3.66 2.85 5.1.57.65 2.25 2.15 3.12 1.29.31-.3.13-1.12.02-1.46a12.23 12.23 0 0 0-1.85-3.55 21.62 21.62 0 0 0-4.28-4.35 1.25 1.25 0 0 0-.4-.3ZM27.32 28.87a13.51 13.51 0 0 1 1.31 5.54c.02 1.12-.12 2.55-.77 3.5-.15.2-.35.39-.62.55-.4-.37-.67-.72-.79-1.05.9-2.16.84-4.28-.2-6.36.23-.69.59-1.42 1.07-2.18Z" fill="#0D6FB8"/></svg>