<!-- by TradingView --><svg width="56" height="56" viewBox="0 0 56 56" xmlns="http://www.w3.org/2000/svg"><path fill="#F0F3FA" d="M0 0h56v56H0z"/><path d="m23.57 15.85-.28.15c-.46-.92-1.42-2.6-1.6-2.87-.24-.34-1.14-.44-1.94-.44-3.17 0-4.75 2.16-4.75 3.53 0 1.38.5 2.46 4.18 4.18C22.87 22.1 24 23.73 24 25.5c0 4.27-5.72 5.5-8.13 5.5-1.92 0-2.94-.26-3.2-.4L12 27.16l.52-.15 1.51 2.77c.4.2 1.4.6 2.32.6 3.11 0 5.33-1.53 5.33-3.84 0-2.3-2.03-3.39-3.59-3.97-1.55-.6-5.43-1.97-5.43-4.82 0-4.8 6.38-5.74 7.9-5.74 1.2 0 2.23.26 2.59.4l.42 3.45ZM32.43 40.15l.28-.15c.46.92 1.42 2.6 1.6 2.87.24.34 1.14.44 1.94.44 3.17 0 4.75-2.16 4.75-3.53 0-1.38-.5-2.46-4.18-4.18C33.13 33.9 32 32.27 32 30.5c0-4.27 5.72-5.5 8.13-5.5 1.92 0 2.94.26 3.2.4l.67 3.45-.52.15-1.51-2.77c-.4-.2-1.4-.6-2.32-.6-3.11 0-5.34 1.53-5.34 3.84 0 2.3 2.04 3.39 3.6 3.97 1.55.6 5.43 1.97 5.43 4.82 0 4.8-6.38 5.74-7.9 5.74-1.2 0-2.23-.26-2.59-.4l-.42-3.45ZM15.85 32.43l.15.28c-.92.46-2.6 1.42-2.87 1.6-.34.24-.44 1.14-.44 1.94 0 3.17 2.16 4.75 3.53 4.75 1.38 0 2.46-.5 4.18-4.18C22.1 33.13 23.73 32 25.5 32c4.27 0 5.5 5.72 5.5 8.13 0 1.92-.26 2.94-.4 3.2l-3.45.67-.15-.52 2.77-1.51c.2-.4.6-1.4.6-2.32 0-3.11-1.53-5.34-3.84-5.34-2.3 0-3.39 2.04-3.97 3.6-.6 1.55-1.97 5.43-4.82 5.43-4.8 0-5.74-6.38-5.74-7.9 0-1.2.26-2.23.4-2.59l3.45-.42ZM40.15 23.57 40 23.3c.92-.46 2.6-1.42 2.87-1.6.34-.24.44-1.14.44-1.94 0-3.17-2.16-4.75-3.53-4.75-1.38 0-2.46.5-4.18 4.18C33.9 22.87 32.27 24 30.5 24c-4.27 0-5.5-5.72-5.5-8.13 0-1.92.26-2.94.4-3.2l3.45-.67.15.52-2.77 1.51c-.2.4-.6 1.4-.6 2.32 0 3.11 1.53 5.33 3.84 5.33 2.3 0 3.39-2.03 3.97-3.59.6-1.55 1.97-5.43 4.82-5.43 4.8 0 5.74 6.38 5.74 7.9 0 1.2-.26 2.23-.4 2.59l-3.45.42Z" fill="#9B7C65"/></svg>