<!-- by TradingView --><svg width="56" height="56" viewBox="0 0 56 56" xmlns="http://www.w3.org/2000/svg"><path fill="#D0D0D0" d="M0 0h56v56H0z"/><path d="m29.76 16.21-.05.4-2.87-.66c-.16-.03-.18-.11-.09-.24l1.2-1.64a.16.16 0 0 1 .08-.06.16.16 0 0 1 .16.03l.05.07a4.2 4.2 0 0 0 1.52 2.1Z" fill="#BC904F"/><path d="m29.71 16.6.05-.39c.61.56 1.1 1.21 1.49 1.97.07.14.04.17-.08.08a4.28 4.28 0 0 1-1.46-1.66Z" fill="#1F1B1C"/><path d="m30.26 17.8 1.2 2.18a.28.28 0 0 1-.11.39.25.25 0 0 1-.15.02l-6.32-.9c-1.03-.15-1.04-.36-.04-.62l4.93-1.29c.1-.02.2-.02.28.02.09.04.16.11.21.2Z" fill="#BC904F"/><path d="M32.15 21.16c-.38-.36-.32-.8.17-1.3.12-.12.23-.12.33.02l1.98 2.7c.12.16.09.2-.09.12-1-.47-1.8-.98-2.39-1.54Z" fill="#1F1B1C"/><path d="m32.2 21.56 1.6 2.9a.04.04 0 0 1 0 .04.05.05 0 0 1-.03.02l-12.6-.76c-.16 0-.2-.09-.13-.24.05-.11.18-.2.37-.23 1.1-.21 4.65-.82 10.63-1.8h.1l.07.07Z" fill="#BC904F"/><path d="M34.11 24.7s0-.03.02-.05a.22.22 0 0 1 .06-.05l1.15-.7a.24.24 0 0 1 .18-.03c.05.02.1.05.15.1l2.2 2.99c.08.12.06.15-.07.09l-3.32-1.58a.46.46 0 0 1-.25-.31l-.12-.45Z" fill="#1F1B1C"/><path d="m35.65 28.71-17.78-.66c-.16 0-.2-.08-.11-.22.1-.16.24-.25.44-.28 5.06-.65 10.25-1.33 15.55-2.04.16-.02.31 0 .45.08a.8.8 0 0 1 .34.33l1.33 2.4c.14.28.07.4-.22.4Z" fill="#BC904F"/><path d="M41.18 31.5a.07.07 0 0 1 0 .09.07.07 0 0 1-.08.02l-4.23-2.02c-.78-.37-.75-.67.08-.89l1.62-.42a.32.32 0 0 1 .34.13l2.27 3.1Z" fill="#1F1B1C"/><path d="m14.65 31.94 21.73-2.35a.1.1 0 0 1 .06 0 .1.1 0 0 1 .05.05l1.7 3.07a.11.11 0 0 1 0 .1.1.1 0 0 1-.1.05l-23.44-.42a.1.1 0 0 1-.08-.04.11.11 0 0 1-.03-.07l.01-.28c0-.03.01-.06.03-.08a.1.1 0 0 1 .07-.03Z" fill="#BC904F"/><path d="m44.91 36.77-5.76-3.1c-.95-.51-.9-.8.17-.89l2.41-.18a.4.4 0 0 1 .38.18l2.88 3.9a.06.06 0 0 1 0 .08.06.06 0 0 1-.08.01Z" fill="#1F1B1C"/><path d="m11.06 36.77.54-.33.04-.01 26.85-2.9h.07l.05.06 1.78 3.22a.13.13 0 0 1-.04.17.11.11 0 0 1-.06.02H11.11a.11.11 0 0 1-.07-.03.13.13 0 0 1-.04-.14.12.12 0 0 1 .06-.06Z" fill="#BC904F"/></svg>