<!-- by TradingView --><svg width="56" height="56" viewBox="0 0 56 56" xmlns="http://www.w3.org/2000/svg"><path fill="#F0F3FA" d="M0 0h56v56H0z"/><path fill-rule="evenodd" d="M21.1 12c-2.33 0-4.1 2-4.1 4.35V17h-.65A4.26 4.26 0 0 0 12 21.15v13.93c0 2.35 1.9 4.26 4.23 4.26h.64v.4c0 2.36 1.9 4.26 4.23 4.26h13.98C37.4 44 39 41.76 39 39.41V39h.47C41.8 39 44 37.43 44 35.08V21.17c0-2.35-2.08-4.17-4.41-4.17H39v-.65C39 14 37.3 12 34.96 12H21.1Zm-2.23 27.34a2.65 2.65 0 0 0 2.64 2.65H24v-5.98h-3c0 1.37-.46 2.17-2.13 3.33ZM37 38.59c0 1.7-.97 3.4-2.65 3.4H34v-9.98h4.3a.7.7 0 0 0 .7-.71V23h3v11.26c0 1.7-1.67 2.73-3.35 2.73h-.94a.7.7 0 0 0-.7.71v.89ZM37 23h-6.3a.7.7 0 0 1-.7-.7V14h-7v2.3c0 .38.32.7.7.7h1.6c.38 0 .7.32.7.7v4.6c0 .39-.32.7-.7.7H19v3h8.3c.38 0 .7.32.7.7v4.6c0 .39-.32.7-.7.7H21v2h11v-3.3c0-.38.32-.7.7-.7H37v-7Zm-5-2v-7h2.14c1.68 0 2.86 1.47 2.86 3.17v1.12c0 .4.32.71.7.71h2.06c1.14 0 2.24.85 2.24 2H32Zm-8-1.38c0-.4-.2-.62-.59-.62h-1.7a.7.7 0 0 1-.7-.7V14C19.63 14 19 15.13 19 16.5v1.8c0 .4-.32.71-.7.71h-2.12c-1.14 0-2.18.86-2.18 2h10v-1.38ZM26 28h-8.3a.7.7 0 0 1-.7-.71V23h-3v11.64c0 1.49 1.2 2.69 2.67 2.69S19 36.28 19 34.8v-4.1c0-.38.32-.7.7-.7H26v-2Zm6 8v5.98h-6v-5.98h6Z" fill="#AC3236"/></svg>