<!-- by TradingView --><svg width="56" height="56" viewBox="0 0 56 56" xmlns="http://www.w3.org/2000/svg"><path fill="#F0F3FA" d="M0 0h56v56H0z"/><path d="M28.82 27.18a18.35 18.35 0 0 0 5.96 4 19.1 19.1 0 0 0 7.06 1.46c.11 0 .16.06.16.17a9.32 9.32 0 0 1-2.15 5.77 9.26 9.26 0 0 1-7.5 3.42 31911.18 31911.18 0 0 1-18.3-.02l-.01-.02h-.01l-.02-.04L14 23.64c0-3.1 1.14-5.59 3.42-7.49A9.32 9.32 0 0 1 23.2 14c.1 0 .16.05.17.16.04 2.5.53 4.84 1.45 7.05a18.36 18.36 0 0 0 4.01 5.97Z" fill="#123D68"/><path d="m41.94 14.05.03.06c.02 3.07.02 6.12.01 9.17 0 .06-.03.09-.1.09a9.29 9.29 0 0 1-6.52-2.74 9.26 9.26 0 0 1-2.73-6.53c0-.06.03-.09.1-.09 3.04 0 6.1 0 9.16.02.02 0 .04 0 .05.02Z" fill="#9B1A31"/></svg>