<!-- by TradingView --><svg width="56" height="56" viewBox="0 0 56 56" xmlns="http://www.w3.org/2000/svg"><path fill="#F0F3FA" d="M0 0h56v56H0z"/><path d="M30 25.9c0-.75 0-.9.59-.9h1.8c.6 0 .61.15.61.9v10.37c0 1.94 1.52 4.73 4.63 4.73H44v-3h-5.22C37.34 38 37 36.92 37 36V24.39c0-1.7-.74-2.39-2.33-2.39h-6.4c-1.69 0-2.27.86-2.27 2.35v11.57c0 1.18-.42 2.08-1.92 2.08h-6.5C16.4 38 16 37.3 16 35.93V18h3v16h4V21.03c0-1.65 1-3.03 2.65-3.03h11.7c1.62 0 2.65 1.47 2.65 2.89V34h4V19.72c0-2.48-1.75-4.72-4.4-4.72H12v21.14c0 2.19 1.29 4.85 4.54 4.85h8.7A4.7 4.7 0 0 0 30 36.13V25.89Z" fill="#D8182A"/></svg>