<!-- by TradingView --><svg width="56" height="56" viewBox="0 0 56 56" xmlns="http://www.w3.org/2000/svg"><path fill="#F0F3FA" d="M0 0h56v56H0z"/><path fill-rule="evenodd" d="M28 44a16 16 0 1 0 0-32 16 16 0 0 0 0 32Zm-5.57-13.07h.04l.03-.01.02-.04v-.04c-.8-1.03-.93-1.96-.43-2.8 1.3-2.15 3.95-3 6.3-3.18.47-.04.82.27 1.06.9v.04a1.3 1.3 0 0 1-.28.58.76.76 0 0 1-.46.27c-1.5.2-2.57.43-3.22.67-1.4.53-3.32 1.87-1.96 3.7a4.7 4.7 0 0 0 2.66 1.82l-.03.1c0 .05-.04.07-.08.06-1.1-.19-2.31-.6-3.63-1.23-2.67-1.28-5.38-3.55-6.15-6.56-1.54-6.03 3.06-10.3 8.04-11.65A13.3 13.3 0 0 1 28.3 13c1.08.04 1.88 1 1.66 2.16-.16.88-.76 1.26-1.59 1.37-1.36.18-2.24.3-2.63.38-1.5.3-2.99.97-4.48 2.02-3.7 2.57-4.66 7.54-1 10.75.05.04.07.03.07-.03l.01-.09-.01-.04a4.68 4.68 0 0 1-1.23-4.06c.42-2.29 2.64-4.13 4.63-5a13.88 13.88 0 0 1 4.39-1.14c.87-.08 1.41.33 1.63 1.23l.04.16c-.02.88-.4 1.39-1.13 1.51-1.23.21-2.3.44-3.22.69-2.12.56-4.9 2.22-4.67 4.9.1 1.25.66 2.29 1.66 3.1Zm14.13 4.36a10.45 10.45 0 0 1-6.2 3.76c-.81.17-1.64.3-2.5.4-.65.09-1.1.25-1.35.49-.71.68-.7 2.25.2 2.72 1.49.78 4.26.05 5.8-.5a10.9 10.9 0 0 0 5.66-3.93 8.06 8.06 0 0 0 1.42-7.65c-1.34-4.24-5.9-6.7-9.71-7.58-.05 0-.09 0-.1.05-.02.05 0 .08.05.1 1.13.39 3.14 1.67 3.05 3.1-.04.7-.37 1.26-1 1.69a8.3 8.3 0 0 1-4.38 1.36c-.56.03-.85.35-.84.97v.03c.02.62.32.91.9.88a9.62 9.62 0 0 0 4.9-1.6c1.48-1 2.33-2.8 1-4.37-.04-.04-.04-.06 0-.08.02-.01.05-.02.07 0 .65.56 1.11 1.2 1.37 1.9.86 2.33-.46 4.23-2.35 5.23a13.91 13.91 0 0 1-5.08 1.46c-.88.1-1.28.62-1.22 1.59v.06c.12.96.62 1.4 1.5 1.32 2.18-.19 4.08-.78 5.7-1.78a8.15 8.15 0 0 0 2.06-1.7c1.8-2.17 1.87-4.4.25-6.7v-.04l.02-.02c.01-.01.03 0 .05.01 2.48 2.46 2.91 6 .73 8.83Z" fill="#007FA8"/></svg>