<!-- by TradingView --><svg width="56" height="56" viewBox="0 0 56 56" xmlns="http://www.w3.org/2000/svg"><path fill="#F0F3FA" d="M0 0h56v56H0z"/><path fill-rule="evenodd" d="M28 45a17 17 0 1 0 0-34 17 17 0 0 0 0 34Zm0-1a16 16 0 1 0 0-32 16 16 0 0 0 0 32Z" fill="#7E6B47"/><path d="M14 23.06c0-1.14 1-2.06 2.21-2.06h5.88c.91 0 1.4.67 2.21.87l.19-.46a.91.91 0 0 1 .77-.41h3.97c.25 0 .5.1.66.27l.81.98A2.22 2.22 0 0 1 32.74 21h5.87c.82 0 1.53.41 1.92 1.03l.92 1.15c.34.36.55.84.55 1.36 0 .95-.7 1.76-1.66 1.99l-4.5 10.5c-.24.58-.85.97-1.53.97h-2.76c-.4 0-.78-.13-1.08-.37l-2.68-2.1-1.1 1.72c-.3.46-.85.75-1.43.75h-3.2c-.4 0-.8-.14-1.1-.4l-2.78-2.31a1.52 1.52 0 0 1-.52-.85l-2.02-9.4A2.09 2.09 0 0 1 14 23.06Z" fill="#7E6B47"/><path fill-rule="evenodd" d="m16.9 23.66 2.45 10.53c.03.11.13.2.27.2h3.04c.12 0 .21-.07.25-.16L26 27.15l2.54 7.07c.03.1.13.17.25.17h2.87c.12 0 .22-.07.26-.16l4.49-11.07h.68c.18 0 .3-.14.3-.27 0-.14-.12-.28-.3-.28h-5a.26.26 0 0 0-.26.16.22.22 0 0 0 .05.25l1.27 1.23-2.06 7.05-2.62-8.47a.33.33 0 0 0-.33-.22H25.7c-.15 0-.28.1-.32.21l-3.25 8.91-1.48-8.07h1.09c.32 0 .55-.25.55-.53a.54.54 0 0 0-.55-.52h-5.57a.54.54 0 0 0-.56.52c0 .28.23.53.56.53h.73Zm5.1.58c.52-.12.9-.57.9-1.1 0-.63-.52-1.14-1.16-1.14h-5.57c-.65 0-1.17.5-1.17 1.13 0 .63.52 1.14 1.17 1.14h.25l2.34 10.06c.1.4.45.67.86.67h3.04c.35 0 .67-.2.8-.52l2.48-5.68 2.02 5.62c.13.35.46.58.83.58h2.87c.36 0 .69-.22.82-.54l4.34-10.69h.27c.5 0 .91-.4.91-.88a.9.9 0 0 0-.91-.89h-5c-.8 0-1.18.92-.63 1.46l1 .97-1.38 4.76-2.03-6.54a.94.94 0 0 0-.9-.65H25.7c-.4 0-.76.25-.9.61l-2.47 6.8-.95-5.14h.36c.09 0 .17-.01.26-.03Z" fill="#fff"/></svg>