<!-- by TradingView --><svg width="56" height="56" viewBox="0 0 56 56" xmlns="http://www.w3.org/2000/svg"><path fill="#F0F3FA" d="M0 0h56v56H0z"/><path d="M23.33 16.53c1.41.05 2.37.71 2.87 2a.6.6 0 0 0 .28.3c.13.07.29.08.43.05 1.1-.27 2.06-.73 3.14.03.56.4.51 1.08-.06 1.44-.52.32-1.31.52-1.5 1.14-.13.43-.17.92-.12 1.48 0 .1.07.17.17.18.72.07 1.48.14 2.29.18.52.03.98.16 1.38.38.07.04.12.1.14.16.03.07.03.15.01.22-.46 1.46-3.84 1.4-5.05 1.24-.6-.08-1.23.02-1.76.31-.37.22-.34.35.09.42.84.13 1.9-.05 2.72-.14.42-.05.8.04 1.15.27 1.33.9.5 2.26-.76 2.6-.26.06-.5.18-.7.32-.26.2-.23.28.1.28.71 0 1.4.02 2.05.07.43.03.8.41.55.83a4.11 4.11 0 0 1-1.45 1.5c-1.36.83-4.13-.46-5.44-1.05a.3.3 0 0 1-.16-.18.28.28 0 0 1 .04-.25c.5-.7 1.41-1.2 2.14-1.68.41-.27.47-1.01-.15-1.08-.9-.09-1.64.06-2.24.46a.4.4 0 0 0-.16.2c-.3.88-.21 1.76-.2 2.67 0 .09-.04.15-.1.2-.28.22-.65.33-1.12.35a7.04 7.04 0 0 1-2.18-.08c-1.52-.78.03-1.9.43-2.67.06-.11.07-.24.04-.36a.5.5 0 0 0-.22-.28l-.68-.44a.37.37 0 0 1-.16-.21l-.1-.29c-.15-.38-.3-.37-.43.02-.18.52-.5 1.08-1.15 1.13a3.7 3.7 0 0 1-1.84-.25c-.09-.04-.16-.03-.22.06-.53.78-1.12 1.5-1.7 2.24-.88 1.13-3.23 3.19-4.51 1.36-.8-1.12-.8-2.28-.04-3.47a.3.3 0 0 1 .13-.11.31.31 0 0 1 .34.06c.04.04.07.09.08.15l.05.26c0 .03.02.06.04.08a.2.2 0 0 0 .16.08l.09-.01c3.15-1.2 5.56-4.42 7.3-7.17a.18.18 0 0 0 0-.19c-.12-.2-.3-.3-.57-.26-.82.09-1.64.18-2.35-.29-.4-.26-.34-.76-.11-1.1.4-.62.94-1.03 1.59-1.22 1.66-.5 3.13-1.13 4.4-1.9.2-.12.2-.24 0-.36a.77.77 0 0 0-.24-.09 1.37 1.37 0 0 0-.77.06 6.2 6.2 0 0 0-1.15.6c-.18.12-.23.09-.13-.1.15-.32.32-.64.5-.98.28-.51.1-1-.09-1.48-.21-.53-.04-.88.5-1.05a4.07 4.07 0 0 1 2.67.11c1.64.6 2.19 1.64 1.65 3.11-.04.1 0 .14.1.14Zm1.3 4.78c.76.3 1.4.26 1.94-.13.06-.05.07-.1.01-.16-.67-.64-1.34-.6-1.98.11-.07.08-.06.14.04.18Zm-3.6 1.19.81-.54c.28-.18.25-.29-.08-.32a8.1 8.1 0 0 0-1.1 0c-.5.03-.92.5-1.18.87a83.76 83.76 0 0 1-2.35 3.11c-.18.23-.12.33.17.31.16 0 .32-.03.48-.07.33-.08.6-.24.8-.5a8.05 8.05 0 0 1 2.34-1.94c.07-.04.1-.1.08-.17l-.1-.45a.28.28 0 0 1 .02-.17.3.3 0 0 1 .11-.13Zm4.87.92a.25.25 0 0 0 .13-.3.25.25 0 0 0-.07-.1c-.55-.53-1.1-.46-1.65.22a.26.26 0 0 0-.04.26c.02.04.05.08.08.1.04.04.09.05.13.06.5.06.97-.02 1.42-.24Zm-3.17.89c-.05-.1-.2-.16-.42-.15-.22 0-.5.07-.76.18-.26.1-.5.25-.66.4-.15.15-.21.3-.17.4.05.1.2.15.42.15.22 0 .49-.07.76-.18.26-.11.5-.26.65-.4.16-.16.22-.3.18-.4Zm.14 2.42c-.52-.24-1.06.12-1.31.54a.18.18 0 0 0-.02.15.17.17 0 0 0 .1.1c.59.24 1.03.04 1.31-.57.05-.1.02-.18-.08-.22ZM43.6 25.3a8.14 8.14 0 0 1 4.52-.39c1.1.25 2 .91 2.68 1.97.55.85-.12 1.57-1.02 1.6-1.64.04-3.25-.11-4.45 1.2a.34.34 0 0 0-.1.22l-.04 1.07c0 .12-.05.23-.13.32a.55.55 0 0 1-.3.17l-2.54.53a.61.61 0 0 0-.51.49l-.03.12c-.06.27.04.36.32.29 1.7-.48 3.37-.6 5.02-.35.24.04.45.12.63.24.45.31.27 1.02-.08 1.32-.36.3-.95.46-1.13.9-.26.63.6 1.2 1.1 1.44a.38.38 0 0 1 .2.26c.15.6-.22.94-.8.96-1.07.04-2.15.06-3.26.06-.98-.01-1.99-.18-3.01-.5a.25.25 0 0 0-.22.04.22.22 0 0 0-.07.09.21.21 0 0 0-.02.1l.08.78a.43.43 0 0 1-.15.37.47.47 0 0 1-.39.11c-.8-.13-1.86-.98-2.4-1.47-.94-.85-1.38-2.17-.36-3.17a.27.27 0 0 1 .21-.08c.86.03 1.48.51 2.06 1.06 1.23 1.14 2.85 1 4.04-.2a.3.3 0 0 0 .08-.26.3.3 0 0 0-.06-.13.32.32 0 0 0-.1-.1c-.21-.1-.44-.13-.7-.08-.73.15-1.52.34-2.23.15-.75-.2-.92-.97-.5-1.56.3-.41.6-.83.86-1.26.46-.7 1.15-1.17 1.72-1.8a.14.14 0 0 0 .03-.16.15.15 0 0 0-.06-.07 190 190 0 0 1-1.19-.09c-.49-.03-1-.87-.46-1.16.8-.42 1.45-.76 2.14-.79.95-.05 1.97-.1 3.06-.19a1.7 1.7 0 0 0 1.2-.59c.12-.13.09-.26-.09-.39a.38.38 0 0 0-.18-.06 9.76 9.76 0 0 0-3.84.34c-1.13.36-2.2.8-3.22 1.35-1.2.63.2 1.5.4 2.17.52 1.77-2.1 2.93-2.6.6a7.35 7.35 0 0 0-.5-1.5.35.35 0 0 0-.12-.14.37.37 0 0 0-.5.06c-.34.41-.64.83-.92 1.25-.74 1.1-2.2.2-2.9-.49-.75-.74-.26-1.9.38-2.52.52-.5 1.15-1 1.9-1.53 1.04-.72 2.6-1.05 2.9.57a.16.16 0 0 0 .07.1.17.17 0 0 0 .13.03 21.83 21.83 0 0 0 3.04-.85.13.13 0 0 0 .04-.1.13.13 0 0 0-.02-.06.36.36 0 0 0-.24-.14c-.65-.11-1.32-.17-2-.17a.48.48 0 0 1-.22-.06c-.24-.12-.31-.25-.2-.37.32-.35.64-.67.96-.97a.34.34 0 0 0 .01-.48 4.18 4.18 0 0 1-.64-.91c-.3-.58.11-1 .74-1 1.92 0 3.33.87 4.22 2.61.2.4.1.77-.3 1.09-.18.14-.16.17.06.1ZM26.28 34h-.56a.13.13 0 0 0-.13.13v3.74c0 .07.05.13.13.13h.56c.08 0 .14-.06.14-.13v-3.74a.13.13 0 0 0-.14-.13ZM6.9 34.7l-.8.02a.09.09 0 0 1-.07-.03.1.1 0 0 1-.03-.07v-.52a.1.1 0 0 1 .03-.07.1.1 0 0 1 .06-.03h2.82a.09.09 0 0 1 .06.03.1.1 0 0 1 .03.07v.52a.1.1 0 0 1-.04.07.1.1 0 0 1-.06.03l-.8-.02a.1.1 0 0 0-.1.06.1.1 0 0 0 0 .04v3.1a.1.1 0 0 1-.03.07.1.1 0 0 1-.07.03h-.8a.1.1 0 0 1-.07-.03.1.1 0 0 1-.03-.07v-3.1a.1.1 0 0 0-.03-.07.1.1 0 0 0-.07-.03ZM20.55 36.75v1.13c0 .03-.02.06-.04.08a.1.1 0 0 1-.07.03c-.27.01-.5 0-.68-.01-.06 0-.1-.04-.1-.1v-3.73c0-.1.06-.15.16-.15.53 0 1.05 0 1.56.03 1.92.12 1.35 2.91-.66 2.57-.12-.02-.17.03-.17.15Zm0-2-.01 1.13a.08.08 0 0 0 .08.08h.4a.68.68 0 0 0 .45-.17c.05-.05.1-.11.13-.18a.54.54 0 0 0 .05-.22v-.14c0-.15-.06-.3-.18-.4a.66.66 0 0 0-.44-.18h-.4a.08.08 0 0 0-.08.08ZM10.35 37.65c-.48.5-1.44.5-1.63-.28-.27-1.14.89-1.16 1.6-1.29.15-.02.2-.11.11-.25a.57.57 0 0 0-.3-.24.46.46 0 0 0-.2-.03c-.31.03-.6.11-.86.25-.1.05-.14.02-.13-.09l.04-.37c0-.1.06-.16.14-.19.79-.27 2.03-.32 2.1.78.05.54.06 1.15.03 1.84 0 .1-.05.15-.15.15l-.5.01c-.1 0-.14-.05-.13-.15l.01-.08c.02-.15-.02-.17-.13-.06Zm.13-.92c.01-.1-.03-.14-.12-.15-.22 0-.4.02-.57.08a.45.45 0 0 0-.28.3c-.1.25.06.38.44.38.2 0 .34-.1.44-.26.05-.1.08-.22.1-.35ZM12.77 35.37c.14-.2.33-.32.58-.35.85-.13 1.15.45 1.13 1.23-.01.57 0 1.1.04 1.6 0 .09-.04.15-.12.15h-.63a.12.12 0 0 1-.08-.04.12.12 0 0 1-.04-.09v-1.7c0-.28-.14-.46-.41-.52a.3.3 0 0 0-.18.02c-.3.11-.46.34-.46.68v1.51c0 .1-.04.14-.13.14h-.58c-.08 0-.12-.05-.12-.13v-2.72c0-.09.04-.15.13-.15h.55a.14.14 0 0 1 .12.05.15.15 0 0 1 .03.12v.1c.02.16.08.24.17.1Z" fill="#9D6B3E"/><path d="M16.28 39h-.58l-.44-.1c-.11-.01-.17-.08-.17-.2v-.4c0-.1.05-.13.15-.08.73.4 1.66.24 1.73-.7 0-.11-.03-.13-.12-.05-.18.18-.38.29-.62.31-2.33.28-1.45-3.84.58-2.52.1.07.15.04.16-.07 0-.04.02-.07.07-.09a.25.25 0 0 1 .12-.03l.5.03c.08 0 .12.04.12.12v2.37c0 .82-.5 1.3-1.5 1.4Zm0-1.77a.6.6 0 0 0 .46-.21c.13-.15.21-.36.22-.58a.94.94 0 0 0-.15-.58.58.58 0 0 0-.45-.27.6.6 0 0 0-.47.22.95.95 0 0 0-.22.57c-.01.22.05.43.16.6.11.15.27.25.45.26ZM24.18 37.63c-.14.13-.25.25-.44.31-.65.22-1.3-.2-1.2-.94.11-.83.96-.85 1.61-.9.12-.01.16-.08.13-.19-.12-.53-.95-.33-1.26-.13-.14.08-.2.05-.21-.12l-.01-.14c0-.2.08-.33.27-.39.57-.18 1.5-.26 1.83.33.3.53.18 1.7.18 2.33 0 .1-.05.14-.14.14h-.51a.12.12 0 0 1-.12-.08l-.01-.05v-.11c.01-.12-.03-.14-.12-.06Zm.1-.71c.11-.24.04-.35-.22-.34-.19.01-.38.05-.56.13a.34.34 0 0 0-.2.3.34.34 0 0 0 .18.32c.33.16.6.02.8-.41ZM28.43 37.63c-.14.12-.24.23-.41.3-.59.22-1.24-.08-1.25-.77-.03-1.01.97-.96 1.64-1.07.13-.03.16-.1.1-.21-.1-.23-.32-.33-.65-.3h-.01c-.26.04-.5.12-.76.25-.06.03-.09.01-.08-.06l.05-.44c0-.08.05-.13.12-.16.9-.32 2.13-.3 2.13.98 0 .55 0 1.09.02 1.6 0 .11-.05.17-.16.17l-.48.02c-.1 0-.14-.05-.15-.14v-.1c.04-.13 0-.16-.11-.07Zm.08-.7c.12-.28.03-.4-.27-.34a7.3 7.3 0 0 1-.35.05c-.28.04-.42.3-.31.56a.27.27 0 0 0 .15.15c.36.12.62-.01.78-.41Z" fill="#9D6B3E"/><path d="M31.84 35.82c-.76-.44-1.53.03-1.37.9.13.71.86.8 1.4.46h.02a.03.03 0 0 1 .02.02c.03.21.02.42-.02.64 0 .02-.02.04-.04.04-3.05.88-2.92-3.56 0-2.79.02 0 .04.03.04.05a1.22 1.22 0 0 1-.02.67h-.01l-.01.01h-.01ZM33.06 36.92c.17.62 1.03.53 1.46.3.1-.04.15-.01.15.1v.31c0 .11-.06.2-.17.23-1.16.39-2.39 0-2.28-1.47.13-1.88 2.9-1.9 2.69.24-.01.08-.05.12-.13.11H33.2a.15.15 0 0 0-.14.11v.07Zm.1-.7.91-.01a.07.07 0 0 0 .07-.07v-.05a.5.5 0 0 0-.51-.5h-.04a.51.51 0 0 0-.5.5v.05a.07.07 0 0 0 .06.07Z" fill="#9D6B3E"/></svg>