<!-- by TradingView --><svg width="56" height="56" viewBox="0 0 56 56" xmlns="http://www.w3.org/2000/svg"><path fill="#C63693" d="M0 0h56v56H0z"/><path d="M5 34h2.3L16 21.25V34h8v-2h-6v-9h6v-2H13.54L5 34ZM47 21v9l-6.3-9H39v13h2v-9l6.32 9H49V21h-2Z" fill="#fff"/><path fill-rule="evenodd" d="M31.5 32a4.5 4.5 0 1 0 0-9 4.5 4.5 0 0 0 0 9Zm0 2a6.5 6.5 0 1 0 0-13 6.5 6.5 0 0 0 0 13Z" fill="#fff"/><path d="M27.5 26.08c1.65.24 2 .68 1.95.9-.14.66-3.18 1.3-7.09 1.3-3.92 0-7.1-.63-7.1-1.3s3.64-1.25 7.81-1.25c0 0 .3.01.3-.1 0-.14-.28-.13-.28-.13-5.92 0-9.09.8-9.09 1.87 0 1.01 3.74 1.84 8.36 1.84 4.61 0 8.35-.83 8.35-1.84 0-.53-.78-1.19-3.15-1.52-.15-.02-.2.21-.06.23Z" fill="url(#amlvzbskv)"/><defs><linearGradient id="amlvzbskv" x1="22.5" y1="26" x2="22.5" y2="34" gradientUnits="userSpaceOnUse"><stop stop-color="#fff"/><stop offset=".04" stop-color="#F9EEF5"/><stop offset=".18" stop-color="#E6B9D5"/><stop offset=".32" stop-color="#D58BB9"/><stop offset=".46" stop-color="#C865A3"/></linearGradient></defs></svg>