<!-- by TradingView --><svg width="56" height="56" viewBox="0 0 56 56" xmlns="http://www.w3.org/2000/svg"><path fill="#F0F3FA" d="M0 0h56v56H0z"/><path d="M33.25 30.85c.12.12.37.14.75.15h1.95c.03 0 .05.07.05.1v2.8c0 .06-.03.1-.08.1-1.73.02-2.83-.02-3.32-.12-1.17-.23-1.95-.85-2.32-1.87a9.59 9.59 0 0 1-.28-2.85l.01-7.1c0-.04.02-.06.05-.06h2.79c.08 0 .15.04.15.13l-.01 4.46-.02 3.51c0 .3.1.54.28.75Zm-20.04-1.59h-2.57c-.04 0-.06-.02-.06-.07v-2.53c0-.05.02-.07.06-.07h5.76c.05 0 .08.03.08.08.05.97 0 1.77-.1 2.42a6.02 6.02 0 0 1-1.93 3.52 5.33 5.33 0 0 1-3.67 1.4c-1.19 0-2.26-.33-3.2-.99a5.8 5.8 0 0 1-2-2.36 6.25 6.25 0 0 1 .25-5.8 5.68 5.68 0 0 1 6-2.77c1.32.22 2.5.78 3.53 1.7.06.06.06.12 0 .18L13.6 25.8c-.08.08-.16.09-.25.02l-.55-.4a3.2 3.2 0 0 0-2-.58c-.78.02-1.42.28-1.92.77a3 3 0 0 0-.81 1.5c-.23 1-.09 1.91.42 2.73.54.86 1.31 1.31 2.31 1.35.51.02 1-.14 1.48-.5.43-.32.78-.73 1.04-1.25.06-.11.03-.17-.1-.17ZM37.05 22h2.9c.03 0 .05.02.05.05v11.9c0 .03-.02.05-.05.05h-2.9a.05.05 0 0 1-.05-.05v-11.9c0-.03.02-.05.05-.05Zm10.4 5.02c.84.23 1.42.69 1.72 1.36.14.32.21.98.2 1.98v3.55c0 .06-.02.09-.08.09h-2.94c-.05 0-.07-.02-.07-.07V30.3c0-.33-.03-.59-.1-.76a.73.73 0 0 0-.52-.47 4.63 4.63 0 0 0-1.62-.11c-.04 0-.06 0-.06.05l.02 4.95c0 .03-.03.04-.06.04h-2.85c-.06 0-.09-.02-.09-.08V22.09c0-.06.03-.09.09-.09h2.76c.08 0 .15.05.15.14v3.85c0 .06.01.1.07.1.3 0 .51-.06.66-.2.1-.09.2-.29.35-.6l.1-.22c.4-.82.86-1.81 1.4-3a.12.12 0 0 1 .13-.07h3.2c.09 0 .11.04.07.13-.63 1.34-1.23 2.59-1.8 3.75-.13.27-.39.6-.76 1a.08.08 0 0 0-.02.08c0 .03.02.05.06.06ZM22.99 34a5.92 5.92 0 0 1-4.24-1.77 5.97 5.97 0 0 1-1.28-6.55A5.94 5.94 0 0 1 23.02 22a5.93 5.93 0 0 1 4.24 1.77 5.96 5.96 0 0 1 1.28 6.55 5.94 5.94 0 0 1-3.26 3.23c-.74.3-1.5.45-2.3.45Zm-2.95-5.95a3 3 0 1 0 6-.05 3 3 0 0 0-6 .05Z" fill="#D01F25"/></svg>