<!-- by TradingView --><svg width="56" height="56" viewBox="0 0 56 56" xmlns="http://www.w3.org/2000/svg"><path fill="#F0F3FA" d="M0 0h56v56H0z"/><path d="M33.3 26.49c-.3-.12-.62 0-.5.38.3.99.67 1.9.2 2.86-.44.88-1.43 1.68-1.74 2.56-.18.51-.31 1.11-.64 1.55-.42.55-.75 1.1-.73 1.77.01.55.04 1.24-.42 1.56-.6.43-.86.94-1.38 1.38-.83.69-2.19.46-3.13.13a1.51 1.51 0 0 0-.7 0c-.68.12-.79-.22-1.28-.47-.56-.27-1.02-.5-.72-1.24.03-.07.15-.05.15.03.03 1 1.28.44.66-.15-.38-.37-.71-.7-.48-1.26.13-.3.34-.54.61-.71.82.57 1.57.4 2.44.05.35.11.9.3 1.19.53.7-.1.3-1.03.2-1.46-.1-.52.23-.85.04-1.44-.16-.47-.15-.98.02-1.55.3-1-.3-1.56-.5-2.39-.55-2.36 1.87-3.63 3.34-4.87.43-.36.47-1 .15-1.42-.17-.22-.44-.4-.81-.57-.22-.7-.68-.97-1.06-1.45-.1-.14.02-.35.2-.3.3.07.6.18.9.34.5.27.88.75 1.5.95.92.27 1.37.92 1.84 1.69.42.67 1.1.09 1.59-.1 1.28-.47 3.05-1.14 4.34-.29.38.26.5.61.33 1.07-.63 1.74-2.17 3.3-4.18 3.19a5.18 5.18 0 0 1-1.43-.37ZM27.73 36c-.5.05-.38 1.02-1.03.96-1.62-.16-.76 1.87.34.21.13-.2.3-.35.51-.46.2-.1.64-.76.18-.71ZM25.28 21.51l-.21 1.12c-.1.49-.53.74-.78 1.06-.73.96-.71 2.05-.23 3.12.34.74.2 1.31-.15 2a2.6 2.6 0 0 0-.25 2.02c.06.24.06.56-.02.75-.32.74-.67 1.56-.69 2.4-.32-.97.23-2.1.08-3.09a4 4 0 0 0-.69-1.71.95.95 0 0 1-.14-.8c.07-.29-.01-.57-.3-.68-.11-.2.03-.82.06-1.07-1.83.39-3.6-.46-4.6-1.98-.34-.5-.58-1.53-.05-2 .57-.5 2.83.26 3.67.57.82.3 1.55.2 2.2-.3.54-.42.9-1.25 1.23-1.88.5-.12 1.02-.41 1.4-.77a.19.19 0 0 1 .31.1c.11.6-.33.95-.84 1.14ZM15.59 32.56l.12.35-1.78.6-.18-.54 1.29-.8-1.51.16-.18-.54 1.78-.6.11.35-1.2.4a12.29 12.29 0 0 1-.29.1l1.6-.17.13.36-1.38.84a11.06 11.06 0 0 0 .29-.1l1.2-.4Zm-.62-2.72c.04.26-.01.48-.14.63-.15.21-.4.34-.73.38-.34.05-.6-.01-.8-.18-.17-.12-.26-.32-.3-.58-.03-.27.01-.48.14-.64.15-.21.4-.34.73-.38.34-.04.6.02.8.18.17.13.27.32.3.59Zm-.54-.3a.77.77 0 0 0-.5-.08c-.22.03-.37.1-.47.2-.1.1-.15.23-.13.38.02.16.1.27.22.35.12.08.3.1.5.08.21-.03.37-.1.47-.2.1-.1.14-.24.12-.4a.45.45 0 0 0-.21-.34Zm.38-1.86-.02.8-1.88-.04.02-.81a1 1 0 0 1 .05-.29.62.62 0 0 1 .24-.31c.1-.07.2-.1.31-.13a1.44 1.44 0 0 1 .94.14c.23.14.34.35.34.64Zm-1.4-.33c-.1.06-.15.18-.16.35v.37l1.22.03v-.37c.01-.18-.07-.31-.26-.39a.97.97 0 0 0-.35-.07c-.2 0-.34.02-.44.08Zm.9-2.34-.17.9.48.08.18-1.02.33.06-.25 1.4-1.85-.33.25-1.36.32.06-.17.98.39.07.16-.9.32.06Zm.5-1.43-.14.38.7.24-.12.36-1.78-.6.3-.87c.04-.13.09-.22.14-.28.05-.05.11-.1.18-.12a.52.52 0 0 1 .38-.01c.08.02.16.07.23.14.06.07.1.16.1.27a.35.35 0 0 1 .2-.13c.07 0 .17 0 .3.05l.11.04c.08.03.14.04.17.04.05.01.1 0 .13-.03l.04.02-.14.4h-.1a.96.96 0 0 1-.16-.04l-.17-.05c-.11-.04-.2-.04-.24-.02-.06.03-.1.1-.14.2Zm-.25-.34c-.01-.08-.07-.14-.17-.18-.1-.03-.19-.02-.25.04a.43.43 0 0 0-.1.17l-.14.43.48.16.14-.42a.5.5 0 0 0 .04-.2Zm2.08-1.95-.18.35-1.54.08 1.19.6-.17.33-1.67-.86.19-.36 1.5-.07-1.16-.6.17-.32 1.67.85Zm.32-3.03-.58.74.34.27.5-.65.27.2-.51.65.62.48-.25.31-1.47-1.16.82-1.05.26.2Zm1.95-.28-.5.47.17.37-.3.28-.8-1.82.32-.3 1.77.9-.3.3-.36-.2Zm-.3-.16-.68-.38.33.7.35-.32Zm1.52-1.24-.33.24.43.6-.32.22-1.08-1.53.75-.53c.1-.08.2-.12.27-.14a.47.47 0 0 1 .22 0l.17.07c.06.04.1.08.15.14.05.08.08.16.1.26 0 .1-.02.19-.08.28.09-.03.17-.02.24.01.06.03.13.1.21.2l.07.11.11.14c.04.03.08.05.12.04l.03.04-.35.25a.96.96 0 0 1-.19-.19l-.1-.14c-.07-.1-.14-.15-.2-.16-.05 0-.13.03-.22.1Zm0-.41c.04-.08.03-.16-.03-.24-.07-.1-.14-.14-.23-.12-.04 0-.1.03-.17.08l-.37.26.29.41.36-.25a.5.5 0 0 0 .15-.14Zm1.8.18-.33.15-.77-1.71.52-.24.92 1.2-.3-1.48.51-.23.77 1.71-.33.15-.52-1.15a14.07 14.07 0 0 1-.13-.28l.33 1.58-.35.15-.97-1.29a13.7 13.7 0 0 0 .13.28l.52 1.16Zm1.2-2.52.37-.13.6 1.78-.37.13-.6-1.78Zm2.97 1.2-.39.07-.99-1.17.24 1.31-.36.06-.33-1.84.4-.08.97 1.16-.23-1.29.36-.06.33 1.85Zm1.67-.16c-.1.07-.22.1-.38.1a.8.8 0 0 1-.61-.24.99.99 0 0 1-.27-.7c0-.3.07-.55.23-.74a.86.86 0 0 1 .66-.29c.24 0 .43.05.58.17.15.11.23.26.26.44l-.39.01a.37.37 0 0 0-.22-.26.54.54 0 0 0-.22-.04.47.47 0 0 0-.37.18c-.09.12-.13.3-.13.52 0 .23.06.4.17.49.11.1.23.14.36.13a.46.46 0 0 0 .47-.42l-.43.01v-.31l.77-.02.03 1-.26.01-.05-.23a.9.9 0 0 1-.2.2Zm2.07.71-.08-.13c-.05-.08-.1-.2-.14-.36a1.73 1.73 0 0 1 .16-1.46c.08-.15.2-.3.35-.46l.27.03-.09.13a2.12 2.12 0 0 0-.4 1.04 2.17 2.17 0 0 0 .2 1.25l-.27-.04Zm1.85-.17a.72.72 0 0 1-.4-.01.8.8 0 0 1-.51-.42.99.99 0 0 1-.05-.75c.08-.3.23-.5.44-.63a.85.85 0 0 1 .72-.09c.22.07.4.18.5.33.1.16.14.33.11.5l-.37-.1a.37.37 0 0 0-.13-.32.54.54 0 0 0-.2-.1.47.47 0 0 0-.4.07c-.13.08-.22.23-.28.45-.07.23-.06.4.01.52.08.12.18.2.31.24a.46.46 0 0 0 .57-.27l-.41-.12.08-.3.75.21-.27.97-.25-.07.02-.24a.9.9 0 0 1-.24.13Zm2 .02-.36-.17-.3.67-.35-.16.77-1.7.84.37c.12.06.2.12.26.17.05.06.08.12.1.2l.03.18a.56.56 0 0 1-.22.4.38.38 0 0 1-.28.08c.07.07.1.14.1.21.02.08 0 .17-.06.3l-.05.1a.96.96 0 0 0-.07.17c0 .05 0 .1.02.13l-.02.04-.39-.18.02-.1.05-.15.07-.16c.05-.11.06-.2.04-.25-.02-.05-.09-.1-.2-.15Zm.37-.21c.08 0 .15-.05.19-.15.05-.1.04-.19 0-.25a.43.43 0 0 0-.17-.11l-.42-.2-.2.47.4.18a.5.5 0 0 0 .2.06Zm1.12 1.93c-.22-.14-.36-.31-.4-.51-.06-.26 0-.53.18-.8.19-.3.4-.46.66-.5.2-.05.41 0 .64.14.22.15.36.32.4.52.06.24 0 .51-.18.8-.18.29-.4.45-.66.5-.2.05-.41 0-.64-.15Zm.59-.22a.77.77 0 0 0 .38-.34.77.77 0 0 0 .14-.48.45.45 0 0 0-.21-.35.45.45 0 0 0-.4-.06.76.76 0 0 0-.39.34.76.76 0 0 0-.15.49c.02.14.1.26.22.34.13.09.27.1.4.06Zm1.86 1.21.8-.83.28.27-.8.84a.97.97 0 0 1-.38.27c-.23.07-.45-.01-.69-.24-.24-.22-.33-.45-.27-.67a.96.96 0 0 1 .26-.4l.8-.84.28.27-.8.84a.65.65 0 0 0-.16.24c-.04.1 0 .21.12.32.11.11.22.15.33.1a.64.64 0 0 0 .23-.17Zm1.19 1.4-.25-.31-.53.41-.24-.3 1.47-1.16.51.64c.12.15.17.3.16.44 0 .15-.09.29-.25.41-.17.14-.33.2-.47.16a.74.74 0 0 1-.4-.3Zm.42-.1c.06.01.14-.01.21-.07.08-.06.12-.12.12-.19a.33.33 0 0 0-.09-.2l-.22-.3-.44.35.23.28c.06.08.12.12.19.13Zm-.55 1.79-.15-.01-.14-.23a2.19 2.19 0 0 0 1.2-.36 2.14 2.14 0 0 0 .77-.8l.08-.14.15.23c-.09.2-.17.38-.27.52a1.74 1.74 0 0 1-1.25.77c-.16.02-.3.03-.39.02Zm1.75 2.32a.76.76 0 0 1-.37-.43.8.8 0 0 1 0-.68c.1-.21.3-.37.58-.48.3-.12.58-.13.8-.04.2.09.35.24.44.46.11.3.1.55-.04.76a.67.67 0 0 1-.28.25l-.14-.37a.54.54 0 0 0 .15-.16c.05-.1.05-.21 0-.34a.4.4 0 0 0-.28-.25.83.83 0 0 0-.5.06c-.2.08-.33.18-.4.3a.41.41 0 0 0-.02.36c.05.13.13.21.24.25.06.02.14.02.24 0l.14.37a.85.85 0 0 1-.56-.06Zm.25 1.56c-.06-.26-.03-.48.08-.65.13-.23.36-.38.69-.45.33-.08.6-.05.82.1.17.1.29.29.35.55.06.26.03.48-.08.65-.12.22-.35.37-.69.45-.33.08-.6.04-.82-.1-.17-.1-.29-.3-.35-.55Zm.58.24c.13.07.3.07.5.03.2-.05.36-.13.45-.25.1-.11.12-.24.08-.4a.45.45 0 0 0-.25-.32.76.76 0 0 0-.5-.02.76.76 0 0 0-.45.24.45.45 0 0 0-.08.4c.03.15.11.26.25.32Zm.08 1 .05.39-.38.04-.05-.38.38-.05Zm-.4 1.3a.37.37 0 0 1-.17-.09.43.43 0 0 1-.12-.15.4.4 0 0 1-.04-.13h.14c.02.07.06.13.1.16.05.03.12.05.2.05v-.22h.38l.01.39h-.33l-.18-.01Zm2 .6v.4l-1.54-.04-.03.93h-.33l.03-1.33 1.88.05Zm-.36 3.2-.33-.06.1-.55-1.52-.28.07-.38 1.52.27.1-.56.33.06-.27 1.5Zm-2.2.82.26-.77 1.78.6-.26.77a1 1 0 0 1-.13.26.62.62 0 0 1-.33.23.83.83 0 0 1-.33.03 1.44 1.44 0 0 1-.86-.41.68.68 0 0 1-.13-.71Zm1.23.72c.12-.02.2-.12.26-.29l.12-.34-1.16-.4-.12.35c-.06.17-.02.33.13.45.09.07.2.13.32.17a.9.9 0 0 0 .45.06Z" fill="#977429"/><path d="m21.8 37.09.42-.53a10.32 10.32 0 0 1-4.28-10.9l-.61-.34A11.02 11.02 0 0 0 21.8 37.1Zm17.2-9.1a11 11 0 0 1-10.07 10.97l-.07-.67a10.33 10.33 0 0 0 9.23-12.53l.65-.16c.17.77.26 1.57.26 2.4ZM28 17.68c3.38 0 6.39 1.63 8.27 4.14l.6-.3a10.98 10.98 0 0 0-18.06.44l.6.3c1.86-2.76 5.01-4.58 8.59-4.58Z" fill="#977429"/><path fill-rule="evenodd" d="M28 45a17 17 0 1 0 0-34 17 17 0 0 0 0 34Zm0-.4a16.6 16.6 0 1 0 0-33.2 16.6 16.6 0 0 0 0 33.2Z" fill="#977429"/></svg>