<!-- by TradingView --><svg width="56" height="56" viewBox="0 0 56 56" xmlns="http://www.w3.org/2000/svg"><path fill="#F0F3FA" d="M0 0h56v56H0z"/><path d="M44.59 22.84c.34.26.82.76 1.11 1.07.29.31.6.43.93.34.43-.1.67-.15.73-.14.1 0 .11.04.06.11-.17.23-.36.35-.55.36-.3.01-.32.1-.06.26.68.4 1.38.7 2.1.9.03 0 .06.02.07.05.02.03.02.06.02.09l-.02.07c0 .03-.03.06-.05.08a.1.1 0 0 1-.08.02 7.98 7.98 0 0 1-4.06-2.19c-.27-.25-.6-.71-.64-.95l.44-.07ZM44 22a8.95 8.95 0 0 1-1.01-.1l-.97-3.32c-.08-.32.06-.5.44-.56l.14-.01c.33-.04.52.1.59.44L44 22Z" fill="#32A52E"/><path d="M46 22.24c-.92.28-1.4.62-2.2.92-.74.3-1.45.77-2.08 1.25a8.09 8.09 0 0 1-.61 8.32 13.47 13.47 0 0 1-3.6 3.65A18.94 18.94 0 0 1 31.65 39a13.2 13.2 0 0 0 3.89-3.54A8.21 8.21 0 0 0 37.16 32a7.44 7.44 0 0 0-.47-3.9 36.28 36.28 0 0 1-7.57 4.03c-7.1 2.9-14.5 3.8-22.12 2.79 1.03-.06 1.99-.17 2.88-.26A43.13 43.13 0 0 0 27 29.5c-4.55 1.33-9.35 1.55-14.11 1.35-1.65-.07-3.32-.4-4.89-.52 1.7-.06 3.63-.23 5.4-.41a52 52 0 0 0 13.72-3.25c1.8-.7 3.79-1.77 5.89-2.95-2.97-1.82-6.5-3.13-10.01-3.06-2.38.06-4.76.5-6.93 1.31.87-.62 1.73-1.25 2.66-1.7a23.02 23.02 0 0 1 10-2.27c2.89.01 5.76 1.11 8.38 2.36.42.2 1.13.75 1.63.95a15.72 15.72 0 0 1 4.08-.28c1.25.1 2.03.69 3.18 1.21Z" fill="#0063AA"/></svg>