<!-- by TradingView --><svg xmlns="http://www.w3.org/2000/svg" width="56" height="56"><path fill="#FF0C02" d="M0 0h56v56H0z"/><path d="M25.25 25c-.83 0-1.67.1-2.25.9V25h-2v7h2v-3.96c0-.76.44-1.63 1.5-1.63.82 0 1.5.64 1.5 1.63V32h2v-4.56c0-1.72-1.3-2.44-2.75-2.44zM42 25l-2 5-2-5h-2l3 7h2l3-7h-2zm-26.83 2.18a1.7 1.7 0 011.41-.67c.67 0 1.17.38 1.43.94l-3.22 1.34c-.08-.7.1-1.23.38-1.61zm3.53 2.63c-.77.57-1.21.71-1.92.71-.64 0-1.13-.2-1.48-.54L20 28a3.6 3.6 0 00-.8-1.86A3.38 3.38 0 0016.54 25 3.47 3.47 0 0013 28.51c0 2.04 1.53 3.49 3.75 3.49 1.24 0 2.52-.6 3.11-1.3l-1.16-.9zM12 30H8v-7H6v9h6v-2zm20.47-3.41c-1 0-1.72.79-1.72 1.9 0 1.08.77 1.91 1.75 1.91 1 0 1.72-.8 1.72-1.9 0-1.07-.77-1.91-1.75-1.91zm0 5.4A3.43 3.43 0 0129 28.5a3.46 3.46 0 013.5-3.49c1.95 0 3.5 1.51 3.5 3.5 0 1.96-1.56 3.5-3.53 3.5zm15-5.39c-1 0-1.72.78-1.72 1.9 0 1.07.77 1.9 1.75 1.9 1 0 1.72-.8 1.72-1.9 0-1.07-.77-1.9-1.75-1.9zm0 5.4A3.43 3.43 0 0144 28.5c0-1.96 1.53-3.5 3.5-3.5 1.95 0 3.5 1.51 3.5 3.5 0 1.96-1.56 3.5-3.53 3.5z" fill="#fff"/></svg>