<!-- by TradingView --><svg width="56" height="56" viewBox="0 0 56 56" xmlns="http://www.w3.org/2000/svg"><path fill="#F0F3FA" d="M0 0h56v56H0z"/><path d="M45.57 33H42v-.29c1-.08 1-.17 1-1.13v-6.8c0-.88.06-.95-.96-1.05v-.24c.89-.08 1.6-.28 2.46-.49v8.58c0 1 .1 1.05 1.07 1.13V33ZM42 27v.26c-.63.1-.73.2-1.04.96-.34.82-.68 1.75-1.42 3.73a39.63 39.63 0 0 0-1.24 3.67c-.07.3-.24.38-.45.38-.33 0-.8-.32-.8-.64 0-.18.12-.3.37-.47.41-.23.67-.5.9-.93a5 5 0 0 0 .34-.83c.03-.17 0-.33-.1-.58a88.85 88.85 0 0 0-1.6-4.38c-.28-.7-.36-.84-.96-.9V27h2.91v.26c-.66.08-.68.21-.5.77l1.05 3.13c.35-1.05.73-2.2.99-3.12.17-.55.07-.7-.65-.78V27H42ZM35.54 32.39c-.62.22-1.34.61-2.02.61-1.17 0-1.52-.49-1.52-1.63v-3.9h-.94l-.06-.1.45-.37H32v-1.07l1.28-.93.22.05V27h1.77c.14.14.1.4-.12.48H33.5v3.5c0 1.05.5 1.27.99 1.27.4 0 .68-.08.9-.16l.15.3ZM30.64 28.56l-.34.09c-.4-.84-.94-1.3-1.68-1.3-.53 0-1 .36-.98.84 0 .51.5.82 1.25 1.11 1.25.5 2.11.94 2.11 1.87C31 32.4 29.55 33 28.25 33c-.9 0-1.71-.25-2.04-.44a6.95 6.95 0 0 1-.21-1.52l.34-.05c.34.78 1.1 1.66 2.12 1.66.6 0 1.02-.34 1.02-.85s-.36-.87-1.25-1.22c-.94-.4-2.02-.87-2.02-1.81 0-.96 1-1.76 2.65-1.77.64-.01 1.09.1 1.46.22.1.3.29 1.13.32 1.34ZM24.77 31.47l.17.22A2.96 2.96 0 0 1 22.68 33c-1.7 0-2.68-1.28-2.68-2.75 0-1.82 1.47-3.25 2.93-3.25h.02c1.21 0 2.06 1 2.05 1.96 0 .29-.06.35-.34.4-.19.05-1.74.16-3.16.22 0 1.7.83 2.44 1.78 2.44a2.2 2.2 0 0 0 1.49-.55Zm-2.12-4.08c-.54 0-1.05.58-1.15 1.61h1.8c.2 0 .28-.08.28-.3 0-.7-.32-1.3-.93-1.3ZM51.77 31.47l.17.22A2.96 2.96 0 0 1 49.68 33c-1.7 0-2.68-1.28-2.68-2.75 0-1.82 1.47-3.25 2.93-3.25h.02c1.21 0 2.06 1 2.05 1.96 0 .29-.06.35-.34.4-.19.05-1.74.16-3.16.22 0 1.7.83 2.44 1.78 2.44a2.2 2.2 0 0 0 1.49-.55Zm-2.12-4.08c-.54 0-1.05.58-1.15 1.61h1.8c.2 0 .28-.08.28-.3 0-.7-.32-1.3-.93-1.3Z" fill="#939598"/><path d="M16.38 27.55H17v-.4c0-.36.06-.72.15-.97a3.29 3.29 0 0 1 2.7-2.18c.51.03.84.15 1.04.33.14.13.18.26.15.4-.01.16-.2.35-.4.48-.16.09-.28.06-.4-.04-.36-.3-.73-.56-1.12-.56-.64 0-.65 1.87-.64 2.35l.02.59h1.54c.08.13.02.37-.15.45H18.5v3.75c0 .86.12.9 1.07 1V33h-3.46v-.26c.72-.09.89-.13.89-.99V28h-.94l-.06-.1.38-.35ZM14.5 33H11v-.28c.94-.09 1-.15 1-1.14v-3.1c0-.86-.04-.9-.89-1.05v-.24c.83-.11 1.4-.3 2.39-.56v4.95c0 .98.04 1.05 1 1.14V33ZM10.15 30.85l.35.08c-.11.47-.4 1.73-.5 2.07H4v-.3c1.14-.08 1-.2 1-1.3v-5.75c0-1.19-.11-1.27-1-1.35V24h3.53v.3c-1.03.08-1.03.18-1.03 1.35v5.72c0 .69.06.97.33 1.1.25.1.51.14 1.05.14.74 0 1.21-.12 1.55-.47.25-.3.5-.73.72-1.3ZM11.5 25c0 .54.45 1 .98 1a1 1 0 0 0 1.02-1c0-.57-.43-1-1-1a1 1 0 0 0-1 1Z" fill="#939598"/></svg>