<!-- by TradingView --><svg width="56" height="56" viewBox="0 0 56 56" xmlns="http://www.w3.org/2000/svg"><path fill="#F0F3FA" d="M0 0h56v56H0z"/><path d="M43 13H13v1h30v-1Zm-16.94 4H13v1h13.57c.13.32.24.65.33 1h11.56l.7-1H43v-1h-3.12l.02-.03H26.04l.02.03ZM13 20h30v1h-5.95l-1.42 2h-8.72c.12-.64.2-1.3.21-2H13v-1Zm13.67 4H13v1h13.34c-.27.75-.6 1.43-.92 2h7.38l1.41-2H43v-1h-8.08l.02-.03h-8.26l-.01.03ZM13 28h30v1H31.9l.74 1h-6.9c-.37-.37-.73-.7-1.05-1H13v-1Zm30 4v-1H13v1h14.5c.5.62 1 1.3 1.43 2h6.72l-1.5-2H43Zm-30 3h30v1h-5.85l.75 1h-7.48c-.12-.34-.25-.67-.4-1H13v-1Zm17.72 3H13v1h17.91c.09.67.09 1.34-.02 2H40.9l-1.5-2H43v-1H30.72ZM13 43v-1h30v1H13Zm29-29-1.42 2H25.36A8.15 8.15 0 0 0 23 14h19Z" fill="#FFD000"/></svg>