<!-- by TradingView --><svg width="56" height="56" viewBox="0 0 56 56" xmlns="http://www.w3.org/2000/svg"><path fill="#F0F3FA" d="M0 0h56v56H0z"/><path d="M27 10c-4.66 3.96-14.2 15.6-15 30.5.34 0 .61-.1.91-.21.38-.14.8-.29 1.47-.29.5 0 1.36.17 2.36.38a24 24 0 0 0 4.42.62c2.35 0 4.03-.78 4.26-2.68.02-.1.03-.31.05-.6C21.17 36.69 18 33.18 18 29c0-4.5 3.67-8.23 8.47-8.9L27 10Zm-.59 11.2c-3.1.83-5.41 4-5.41 7.8 0 3.44 1.9 6.37 4.56 7.5.19-3.02.53-9.2.85-15.3Z" fill="#05306D"/><path d="M29 10c4.66 3.96 14.2 15.6 15 30.5-.34 0-.61-.1-.91-.21-.38-.14-.8-.29-1.47-.29-.5 0-1.36.17-2.36.38a24 24 0 0 1-4.42.62c-2.35 0-4.03-.78-4.26-2.68l-.03-.27c4.28-.98 7.45-4.56 7.45-8.83 0-4.6-3.68-8.4-8.47-9.02L29 10Zm.59 11.2c3.1.83 5.41 4 5.41 7.8 0 3.44-1.9 6.37-4.56 7.5-.19-3.02-.53-9.2-.85-15.3Z" fill="#0165B6"/></svg>