<!-- by TradingView --><svg width="56" height="56" viewBox="0 0 56 56" xmlns="http://www.w3.org/2000/svg"><path fill="#F0F3FA" d="M0 0h56v56H0z"/><path d="m31.06 12.66-.2-.18c-.07-.05-.07-.1 0-.14.3-.16.57.06.78.66.17.48.04.84-.4 1.09-.38.2-.84.19-1.37-.05a7.8 7.8 0 0 0-6.24-.15c-.19.07-.36.2-.53.39l-.22.24c-.62.51-.7.42-.24-.27 1.11-1.68 2.23-2.26 3.36-1.74.18.08.36.1.54.03.52-.19 1.33-.35 2.43-.5 1-.14 1.55.15 1.66.89.02.16.1.22.26.2.14-.04.22-.14.24-.32 0-.06-.02-.1-.07-.15Z" fill="#1D8BCB"/><path d="M28.29 25.42a8.22 8.22 0 0 0-4.71-4.72c-.37-.16-.35-.22.04-.18 3.84.38 6.62 2.43 8.36 6.15 1.03 2.2 2 3.38 2.9 3.53 1.68.3 2.69-.34 3.01-1.9a8.15 8.15 0 0 0-.4-4.15 12.44 12.44 0 0 0-1.78-3.57c-3.15-4.29-7.45-6.05-12.9-5.27a.92.92 0 0 1-.51-.08c-.5-.24-.98-.27-1.45-.11a14.02 14.02 0 0 0-9 8.56 11.81 11.81 0 0 0-.73 6.03c.23 1.67.72 1.75 1.46.24l.24-.5a8.48 8.48 0 0 1 1.62-2.55c1.31-1.2 2.68-1.7 4.09-1.51 1.36.18 2.61.98 3.74 2.39.47.58.86 1 1.17 1.26.67.56 1.39.88 2.14.94a2.71 2.71 0 0 0 2.95-2.11c.18-.75.1-1.57-.24-2.45Zm-2.05-9.49c2 .27 3.85.93 5.53 1.98a8.49 8.49 0 0 1 3.78 4.4c.06.2 0 .25-.2.14-.06-.03-.62-.6-1.66-1.7a17.15 17.15 0 0 0-7.5-4.48c-.03-.01-.05-.04-.05-.08v-.17c0-.07.04-.1.1-.09Zm.62 10.02a18.56 18.56 0 0 0-5-4.58c-.55-.32-.52-.4.1-.23a7.85 7.85 0 0 1 5.4 4.6c.06.13.08.21.06.24-.19.2-.38.2-.56-.03Z" fill="#1D8BCB"/><path d="m14.99 35.58-.06.18c-.07.24-.14.24-.22.01-.08-.25-.07-.5.04-.74a.94.94 0 0 1 .81-.61c.4-.04.7.1.93.43.4.6.75 1.25 1.07 1.97a6.43 6.43 0 0 0 2.26 2.73c.51.36.47.45-.13.27-1.57-.5-3-1.34-4.28-2.53-.15-.15-.16-.3-.01-.46.36-.4.36-.86 0-1.4-.05-.09-.13-.11-.24-.08-.1.04-.16.11-.17.23ZM23.6 41.48c2.8 1.9 5.92 2.56 9.35 1.98.22-.04.33.06.33.28 0 .1.05.18.15.23.07.04.2.04.35 0 3.56-.67 6.4-2.48 8.52-5.41a14.1 14.1 0 0 0 2.62-9.96c-.05-.48-.28-.7-.7-.64a.54.54 0 0 0-.43.28l-1.46 2.61a.43.43 0 0 1-.26.2 6.4 6.4 0 0 1-2.49-.1c-.47-.08-.78.08-.95.47-.1.23-.04.4.17.52.8.47 1.45.55 1.97.24.11-.07.18-.03.19.1a.3.3 0 0 1-.16.3 5.1 5.1 0 0 1-3.87.71c-1.1-.25-2.34-1.2-3.73-2.85l-.19-.21c-.6-.7-1.3-1.15-2.1-1.33a2.97 2.97 0 0 0-2.07.21c-.66.33-1.1.84-1.33 1.53a3.8 3.8 0 0 0 .16 2.6 7.95 7.95 0 0 0 4.57 4.75c.68.29.66.38-.07.28-3-.4-5.35-1.77-7.04-4.12-.2-.3-.54-.91-1-1.84-1.12-2.29-2.07-3.52-2.85-3.7-1.5-.34-2.5.08-3 1.26-.4.94-.43 2.13-.1 3.56.8 3.47 2.6 6.15 5.42 8.05Zm10.5-4.1c.55.33.52.4-.09.24a7.85 7.85 0 0 1-5.4-4.6c-.05-.13-.07-.21-.05-.23.19-.21.37-.2.56.03a18.44 18.44 0 0 0 4.98 4.57Zm-4.52 5.31c0 .07-.03.1-.1.08a13.51 13.51 0 0 1-5.38-1.98 8.33 8.33 0 0 1-3.66-4.33c-.06-.2 0-.24.2-.14.06.03.6.59 1.61 1.67 1.86 2 4.29 3.48 7.28 4.45.03.02.05.04.05.08v.17Z" fill="#A6CE39"/></svg>