<!-- by TradingView --><svg width="56" height="56" viewBox="0 0 56 56" xmlns="http://www.w3.org/2000/svg"><path fill="#F0F3FA" d="M0 0h56v56H0z"/><path fill-rule="evenodd" d="M28 39c12.15 0 22-4.92 22-11s-9.85-11-22-11S6 21.92 6 28s9.85 11 22 11Zm14.4-12.58h3.2c-.12-1.14-1.24-3.42-4.77-3.42-3.24 0-4.5 1.95-4.5 3.05 0 1.11 1.12 2.58 3.4 2.98 2.28.4 2.67.53 2.67 1.13 0 .59-.8.84-1.47.84-.67 0-1.93-.6-1.93-1.74h-3c.02 1.25 1.01 3.74 4.83 3.74 3.44 0 5.17-1.74 5.17-3.07 0-1.34-1.34-2.62-4-3l-.51-.08c-.87-.12-1.99-.28-1.99-.87 0-.73.7-.98 1.43-.98s1.47.63 1.47 1.42ZM20.95 29A5.02 5.02 0 0 1 11 28a5.02 5.02 0 0 1 9.95-1h-3.22a2 2 0 1 0 0 2h3.22ZM25 33h-3V23h4.82l1.68 6 1.68-6H35v10h-3v-7l-2 7h-3l-2-7v7Z" fill="#F39800"/><path d="M11 24h35v.5H11V24ZM11 26h35v.5H11V26ZM10 28h36v.5H10V28ZM10 30h37v.5H10V30ZM10 32h37v.5H10V32Z" fill="#F39800"/></svg>