<!-- by TradingView --><svg width="56" height="56" xmlns="http://www.w3.org/2000/svg"><path fill="#FF6709" d="M0 0h56v56H0z"/><path d="M43.731 18h-3.463c-.148 0-.268.145-.268.323v19.356c0 .176.12.321.268.321h3.463c.147 0 .269-.145.269-.321V18.322c0-.177-.122-.322-.269-.322zm-15.659 0H12.32a.32.32 0 00-.319.323v19.356a.32.32 0 00.32.321h3.37c.176 0 .31-.145.31-.321V22.376c0-.175.154-.376.331-.376h10.47C29.308 22 30 24.024 30 25.294v12.385c0 .176.162.321.34.321h3.34c.176 0 .32-.145.32-.321V23.947C34 20.532 31.497 18 28.072 18z" fill="#fff"/><path d="M24.805 26h-3.536c-.13 0-.269.141-.269.314v11.373c0 .172.14.313.269.313h3.536c.129 0 .195-.141.195-.313V26.314c0-.173-.066-.314-.195-.314z" fill="#fff"/></svg>