<!-- by TradingView --><svg width="56" height="56" viewBox="0 0 56 56" xmlns="http://www.w3.org/2000/svg"><path fill="#F0F3FA" d="M0 0h56v56H0z"/><path d="m32 13.1-3.72-2.04a.51.51 0 0 0-.5 0l-14.53 8.26a.49.49 0 0 0-.25.43v16.5c0 .18.1.34.25.43l14.54 8.26c.15.08.33.08.49 0l14.47-8.26a.49.49 0 0 0 .25-.43V28h-4v6.07c0 .17-.1.33-.25.42l-10.47 6.06a.51.51 0 0 1-.5 0l-10.53-6.06a.49.49 0 0 1-.25-.42V21.93c0-.17.1-.34.25-.42 5.08-2.8 9.7-5.55 14.74-8.4Z" fill="#13110C"/><path d="M21 32.6V22l7 3.91L46 16v11L28 37l-7-4.4Z" fill="#D7000F"/></svg>