<!-- by TradingView --><svg width="56" height="56" viewBox="0 0 56 56" xmlns="http://www.w3.org/2000/svg"><path fill="#F0F3FA" d="M0 0h56v56H0z"/><path d="M20 13v4.5l7-4.5h-7ZM20 27v-8l7 4-7 4ZM20 36v-8l7 4-7 4ZM12 40.5v-8l7 4-7 4ZM36 36v-8l7 4-7 4ZM20 45v-8l7 4-7 4ZM27 40.5v-8l-7 4 7 4ZM27 31.5v-8l-7 4 7 4ZM19 36v-8l-7 4 7 4ZM43 40.5v-8l-7 4 7 4ZM27 22v-8l-7 4 7 4ZM12 18.5v4l7-4h-7ZM12 27.5v-4l7 4h-7ZM19 27v-8l-7 4 7 4ZM43 18.5V22l-7-3.5h7ZM43 27.5v-4l-7 4h7ZM36 27v-8l7 4-7 4ZM35 13v4.5L28 13h7ZM35 27v-8l-7 4 7 4ZM35 36v-8l-7 4 7 4ZM35 45v-8l-7 4 7 4ZM28 40.5v-8l7 4-7 4ZM28 31.5v-8l7 4-7 4ZM28 22v-8l7 4-7 4Z" fill="#C8332D"/></svg>