<!-- by TradingView --><svg width="56" height="56" viewBox="0 0 56 56" xmlns="http://www.w3.org/2000/svg"><path fill="#F0F3FA" d="M0 0h56v56H0z"/><path fill-rule="evenodd" d="M43 13H13v30h6.01c.02-.18.08-.36.18-.52l4.62-7.8c.05-.08.1-.16.17-.23a1.35 1.35 0 0 1 2.17.23l4.62 7.8c.1.16.16.34.18.52h1.27c.02-.18.08-.36.18-.52l4.6-7.8a1.34 1.34 0 0 1 1.77-.55 1.34 1.34 0 0 1 .6.56L43 40.83V33.5a1.35 1.35 0 0 1-1.35-.65l-3.47-5.86-3.46 5.86a1.35 1.35 0 1 1-2.32-1.37l4.6-7.8a1.34 1.34 0 0 1 1.77-.55 1.34 1.34 0 0 1 .6.56L43 29.83V13Zm-1.85 30-2.97-5-2.96 5h5.93Zm-13.2 0-2.97-5-2.97 5h5.94Zm-1.96-19.55a1.35 1.35 0 0 0-2.18.23l-4.62 7.8a1.35 1.35 0 0 0 2.32 1.37l3.47-5.86 3.47 5.86a1.35 1.35 0 1 0 2.32-1.37l-4.62-7.8-.16-.23Z" fill="#FBB03F"/></svg>