<!-- by TradingView --><svg width="56" height="56" viewBox="0 0 56 56" xmlns="http://www.w3.org/2000/svg"><path fill="#F0F3FA" d="M0 0h56v56H0z"/><path fill-rule="evenodd" d="M5 23h8l-.35 2.2h-.43v-.66a.85.85 0 0 0-.86-.84H8.5v3.82h2.04c.36 0 .65-.28.65-.63v-.57h.55v3.1h-.55v-.48a.64.64 0 0 0-.65-.63H8.5v3.98h2.94c.44 0 .81-.34.85-.78l.1-1.13h.52L12.76 33H5v-.34h.91c.36 0 .59-.28.59-.63V24.1c0-.35-.23-.63-.59-.63H5V23Zm9.8 0h5.73c2.41 0 4.36 2.1 4.36 4.67v.66c0 2.58-1.95 4.67-4.36 4.67H14.8v-.47h.67c.33 0 .54-.29.54-.64V24.2c0-.35-.2-.64-.54-.64h-.67V23Zm3.2.8v8.56h2c1.65 0 3-1.43 3-3.18v-2.19c0-1.76-1.35-3.18-3-3.18h-2Zm8-.8h4v.47h-.54c-.22 0-.46.2-.46.43v8.25c0 .24.24.43.46.43H30V33h-4v-.42h.58c.23 0 .42-.2.42-.43V23.9a.42.42 0 0 0-.42-.43H26V23Zm20 10c3.4.04 5-2.24 5-5s-1.6-5-5-5-5 2.24-5 5 1.6 4.96 5 5Zm0-.73c2.05.04 3-1.91 3-4.27 0-2.36-.95-4.27-3-4.27s-3 1.9-3 4.27c0 2.36.95 4.24 3 4.27Zm-6-1.08v.79A6.58 6.58 0 0 1 36.52 33C34.48 33 31 31.7 31 27.91c0-3.78 3.24-4.91 5.73-4.91 1.99 0 3 .56 3.27.84v2.1h-.68v-1.15c-.28-.35-1.23-1.04-2.8-1.04-1.97 0-3.52 1.4-3.52 4.49 0 3.09 3.17 3.74 4.2 3.74.87 0 1.87-.41 2.5-.67l.3-.12Z" fill="#643C00"/></svg>