<!-- by TradingView --><svg width="56" height="56" viewBox="0 0 56 56" xmlns="http://www.w3.org/2000/svg"><path fill="#01ADBC" d="M0 0h56v56H0z"/><path d="M24.02 22.17a1 1 0 0 0 1.15.82 1 1 0 0 0 .81-1.15 1 1 0 0 0-1.15-.83 1 1 0 0 0-.81 1.16Z" fill="#9AC83B"/><path d="M25.92 23.63c.05.12.08.24.08.35v6.45a3 3 0 0 1-.09.87c-.15.45-.45.67-.9.68-.44 0-.74-.23-.91-.68a2 2 0 0 1-.08-.65L24 26.88c-.01-.85.22-1.56.7-2.13.37-.44.72-.83 1.05-1.16a.1.1 0 0 1 .1-.03c.03 0 .06.03.07.07ZM31.83 28.9a56.1 56.1 0 0 0-2.28-.01 2.5 2.5 0 0 1-1.83-.71c-.5-.5-.74-1.1-.72-1.84.04-1.13 1.08-2.34 2.29-2.34h3.58c.4 0 .68.04.84.11.29.14.43.4.43.77 0 .38-.16.63-.48.75-.15.06-.4.08-.74.08l-3.14.02c-.44 0-.66.23-.66.68v.03c0 .18.06.35.2.48.13.14.3.2.49.21l1.9.02c.64 0 1.1.07 1.38.21.44.22.78.53 1.04.95.37.6.46 1.22.27 1.89a2.5 2.5 0 0 1-1.2 1.5c-.28.17-.76.3-1.1.3l-4.14-.01a.73.73 0 0 1-.39-.14.77.77 0 0 1-.35-.6.96.96 0 0 1 .21-.68c.07-.09.2-.16.4-.22.13-.05.27-.07.43-.07h3.48c.44 0 .68-.2.72-.63v-.05c.04-.44-.17-.67-.63-.7ZM48.6 24c.5.01.87.07 1.1.17.54.23.92.6 1.13 1.13.12.27.17.77.17 1.49l-.02 4.63c0 .32-.2.5-.58.54-.48.05-.81.05-.99.02a.54.54 0 0 1-.4-.33c-.05-.1-.01-.27-.01-.5V26.6c0-.25-.17-.5-.39-.73-.08-.08-.26-.13-.53-.14a16.81 16.81 0 0 0-1.15 0c-.28 0-.46.05-.54.14-.22.23-.39.48-.39.73v4.55c0 .23.03.4-.01.5a.54.54 0 0 1-.4.32c-.18.04-.52.03-1-.01-.38-.04-.57-.22-.57-.55L44 26.78c0-.71.05-1.21.17-1.5.22-.5.6-.88 1.13-1.11.24-.1.6-.16 1.1-.17h2.2Z" fill="#fff"/><path fill-rule="evenodd" d="m17.28 29.87-.05-.45c-.02-.22.08-.42.32-.42H20.83c1.08 0 1.99-.07 2.15-1.36.02-.17.03-.54.01-1.1a2.87 2.87 0 0 0-.18-1.07c-.26-.58-.69-1-1.28-1.25-.33-.14-.9-.2-1.73-.21h-1.67a4.6 4.6 0 0 0-1.63.22c-.62.26-1.05.65-1.28 1.19A4.1 4.1 0 0 0 15 27v2.35c0 .6.05 1.05.18 1.34.2.47.55.81 1.03 1.04.37.18.91.26 1.64.27 1.8 0 3.12 0 3.96-.02.44-.02.72-.21.85-.6.12-.37 0-.69-.36-.93-.16-.11-.44-.17-.85-.17h-3.7a.48.48 0 0 1-.31-.13.43.43 0 0 1-.16-.28Zm.04-2.55c.06.06.13.09.22.09l2.88-.02a.3.3 0 0 0 .22-.09c.06-.05.1-.12.09-.2v-.71a.68.68 0 0 0-.2-.48.6.6 0 0 0-.44-.2l-2.24.02a.6.6 0 0 0-.45.2.67.67 0 0 0-.18.48v.7c0 .09.03.16.1.21ZM37.3 29.87l-.06-.45c-.03-.22.08-.42.31-.42h3.59c.48 0 .84 0 1.08-.12.43-.23.69-.65.76-1.26.02-.17.03-.53.01-1.09a2.86 2.86 0 0 0-.18-1.07c-.27-.58-.7-1-1.3-1.25a5.1 5.1 0 0 0-1.72-.2h-1.67c-.74 0-1.28.08-1.63.22a2.3 2.3 0 0 0-1.28 1.2A4.1 4.1 0 0 0 35 27v2.35c0 .6.06 1.05.2 1.34.2.47.55.81 1.03 1.04.36.17.9.26 1.64.26 1.8 0 3.11 0 3.96-.03.44-.02.72-.21.84-.6.12-.38 0-.69-.36-.93-.16-.11-.44-.17-.85-.17h-3.7a.49.49 0 0 1-.31-.11.44.44 0 0 1-.16-.29Zm-.03-2.65c0 .13.07.2.2.2l3.05-.03c.13 0 .2-.06.2-.2v-.8a.65.65 0 0 0-.21-.48.65.65 0 0 0-.48-.2l-2.1.02a.65.65 0 0 0-.47.2c-.13.13-.2.3-.2.48l.01.81Z" fill="#fff"/><path d="M12.94 26.3c-.06-.06-.07-.13-.02-.2.58-.88.72-1.82.42-2.81-.29-1-.91-1.69-1.86-2.07A6.28 6.28 0 0 0 9.45 21h-3.4c-.32 0-.56.06-.71.18-.22.16-.33.42-.33.77L5 30.94c0 .44.13.74.4.9.16.1.44.15.85.16 1.02 0 2.54 0 4.56-.03A3.13 3.13 0 0 0 14 28.99a3.2 3.2 0 0 0-1.05-2.7ZM7 23.15c0-.1.05-.14.15-.14l2.9-.02c.4 0 .74.12 1.02.36.28.25.43.54.43.9v.02c0 .34-.14.64-.42.9-.28.24-.61.36-1.01.37l-2.9.02c-.1 0-.15-.05-.15-.14L7 23.16Zm0 4.4c0-.04.02-.06.07-.06l3.58-.01c.37 0 .69.12.95.36.27.24.4.54.4.88v.04c0 .34-.13.64-.4.88-.25.25-.57.37-.94.37l-3.58.01c-.05 0-.07-.02-.07-.07L7 27.56Z" fill="#fff"/></svg>