<!-- by TradingView --><svg width="56" height="56" viewBox="0 0 56 56" xmlns="http://www.w3.org/2000/svg"><path fill="#F0F3FA" d="M0 0h56v56H0z"/><path d="M8.7 24h3.97l-.7 1.95c0 .02-.02.05-.03.05H9.72c-.5 0-.85.11-1.08.38-.06.08-.13.22-.2.41L7.24 30l-.02.01h-3.2C4 30 4 30 4 29.97l1.4-3.82c.17-.46.32-.78.46-.98.25-.34.56-.6.96-.8.42-.21.88-.33 1.37-.37h.5Z" fill="#E94609"/><path d="m30 24-1.81 4.73.01.02h1.73c.02 0 .02.01.02.03l-.53 1.2a19203.78 19203.78 0 0 0-2.64.02 1 1 0 0 1-.54-.13.53.53 0 0 1-.24-.47c0-.16.02-.3.07-.45L27.86 24H30ZM47.93 27.52a11.8 11.8 0 0 0-2.57-.15l-.48.08a1.5 1.5 0 0 0-.52.2c-.18.12-.26.27-.23.44.02.1.1.2.23.29.1.07.24.13.38.17a4.34 4.34 0 0 0 2.55-.1c.34-.15.62-.35.83-.6.11-.13.23-.34.35-.63A2304.7 2304.7 0 0 1 49.9 24h2.09c.02 0 .02 0 .02.02l-1.33 3.06a5.26 5.26 0 0 1-1.39 2.04c-.32.27-.75.48-1.3.64a8.2 8.2 0 0 1-4.3-.06c-.7-.22-1.16-.5-1.4-.83-.34-.5-.37-.98-.1-1.44.19-.31.44-.56.77-.75a5.3 5.3 0 0 1 2.48-.62c.73-.03 1.45.01 2.16.13.04 0 .06.03.06.06l.31 1.24c0 .02 0 .03-.03.03ZM12.52 28.04c0 .1.03.2.1.3.07.09.15.16.25.22.51.3 1.22.43 2.1.39a11.76 11.76 0 0 0 2.62-.4l-.38 1.13c-.01.03-.03.04-.06.05a23.97 23.97 0 0 1-2.3.27c-.8.03-1.58-.08-2.35-.33-.3-.1-.57-.24-.81-.42-.28-.2-.47-.42-.58-.67a1.24 1.24 0 0 1-.04-.91c.16-.5.5-.86 1.03-1.1a5.69 5.69 0 0 1 2.34-.57c.76-.01 1.5.1 2.2.31.39.12.7.27.92.45.32.24.46.52.44.84-.02.17-.16.32-.44.46-.19.09-.4.16-.65.22-1.04.24-2.03.3-2.98.17-.5-.07-.96-.2-1.38-.42h-.03Zm3.4-.63c.06 0 .1-.02.15-.03l.04-.05c0-.03 0-.05-.02-.06a.5.5 0 0 0-.21-.12 4.5 4.5 0 0 0-2.28-.04c-.1.03-.22.07-.34.13l-.01.02c0 .02 0 .02.02.03a6.1 6.1 0 0 0 2.66.12ZM37 27.82c.01.26-.07.52-.23.78-.17.25-.4.48-.73.68-.32.2-.69.37-1.11.5a5.8 5.8 0 0 1-3.84-.24c-.33-.17-.6-.38-.79-.61-.19-.24-.29-.49-.3-.75-.01-.26.06-.52.23-.78.16-.25.4-.48.72-.68.32-.2.7-.37 1.12-.5a5.81 5.81 0 0 1 3.83.24c.34.17.6.38.8.61.18.24.28.49.3.75Zm-2.09.13c0-.23-.16-.41-.44-.56-.3-.14-.63-.2-1.03-.19-.4.02-.73.12-1 .29-.27.17-.4.37-.4.6.02.22.16.4.45.55.29.15.63.21 1.03.2.4-.03.73-.12 1-.3.27-.17.4-.37.4-.6ZM23.98 26.3l.05-.25c0-.03.03-.05.06-.05h1.9c.02 0 .03.01.02.03l-1.24 3.94c0 .02-.02.03-.04.03h-1.96c-.02 0-.02 0-.02-.02l.62-1.78a.5.5 0 0 0-.04-.4.93.93 0 0 0-.5-.44 2.1 2.1 0 0 0-.76-.18 3 3 0 0 0-1.54.32c-.2.12-.32.27-.34.48-.02.2.07.37.26.51.4.3.87.37 1.38.22.16-.05.33-.11.5-.2.03 0 .05 0 .05.03l.27 1.19c0 .02 0 .03-.02.03-1.1.33-2.15.28-3.17-.12a2.1 2.1 0 0 1-.73-.45c-.45-.46-.57-1-.35-1.6.08-.24.25-.46.5-.67.77-.64 1.88-.95 3.31-.92.7.02 1.28.13 1.75.33.02 0 .03 0 .04-.02ZM39.7 27.48a102.33 102.33 0 0 0-.83 2.5c0 .01-.01.02-.03.02h-1.82c-.02 0-.02-.01-.02-.03l.9-2.86c.09-.25.23-.47.45-.66.2-.18.43-.31.7-.38.15-.05.36-.07.62-.07a984.44 984.44 0 0 1 2.33.03l-.35 1.16-.03.02h-1.35a.7.7 0 0 0-.57.27Z" fill="#015183"/></svg>