<!-- by TradingView --><svg width="56" height="56" viewBox="0 0 56 56" xmlns="http://www.w3.org/2000/svg"><path fill="#F0F3FA" d="M0 0h56v56H0z"/><path d="M37 33.59c.76-.04 1-.27 1-1.15v-7.87c0-.9-.23-1.08-1-1.16V23h5v.41c-.78.05-1 .24-1 1.16V28h4v-3.43c0-.93-.24-1.1-1.03-1.16V23H49v.41c-.77.06-1 .25-1 1.16v7.87c0 .89.23 1.12 1 1.15V34h-5v-.41c.86-.03 1-.24 1-1.15V29h-4v3.44c0 .92.22 1.12 1 1.15V34h-5v-.41ZM25 28.54C25 25.3 27.7 23 30.86 23c.7 0 1.38.12 2.07.36.68.24 1.1.36 1.28.36.18 0 .32-.06.43-.17.11-.12.2-.3.27-.53h.47v3.63h-.43c-.78-1.54-1.99-3.13-3.9-3.13-2.62 0-3.05 2.9-3.05 4.98 0 2.26.59 5 3.31 5 .71 0 1.23-.15 1.48-.43.14-.15.21-.4.21-.71v-1.89c0-.47-.16-.78-.47-.92a6.3 6.3 0 0 0-1.53-.16V29h6v.4c-.58.02-.96.12-1.15.32-.19.2-.28.8-.28 1.34v1.98c-.37.22-.97.43-1.8.64-.82.21-1.75.32-2.77.32-3.2 0-6-2.1-6-5.46ZM17 30h.42a5.51 5.51 0 0 0 1.15 2.68c.54.53 1.15.79 1.83.79 1 0 1.6-.62 1.6-1.68 0-1.02-.57-1.47-1.37-1.9l-.96-.5c-1.34-.7-2.67-1.61-2.67-3.26 0-1.8 1.45-3.1 3.22-3.1.85 0 1.63.5 2.43.5.16 0 .27-.04.33-.14.07-.1.12-.23.15-.39h.44v3.38h-.4c-.34-1.35-1.29-2.87-2.84-2.87-.85 0-1.33.57-1.33 1.47 0 1.23.97 1.7 1.91 2.19l1.1.58c1.17.6 1.99 1.62 1.99 2.99 0 2.07-1.76 3.26-3.68 3.26-.59 0-1.2-.11-1.8-.36-.15-.06-.3-.13-.48-.16a.68.68 0 0 0-.15-.02c-.16 0-.26.05-.32.15-.06.09-.1.22-.15.39H17v-4ZM6 33.74l6.3-10.18c-1.24 0-1.98.02-2.23.04l-.65.1c-.7.14-1.24.47-1.64.98-.24.32-.5.87-.8 1.67h-.46L6.86 23h8.65v.26L9.24 33.44c2.24 0 3.75-.17 4.53-.51.78-.34 1.38-1.37 1.8-2.93H16l-.43 4H6v-.26Z" fill="#CB1623"/></svg>