<!-- by TradingView --><svg width="56" height="56" viewBox="0 0 56 56" xmlns="http://www.w3.org/2000/svg"><path fill="#F0F3FA" d="M0 0h56v56H0z"/><path d="M44 27.12c-2.1.24-4.7.48-7.28.72-2.4.23-4.77.45-6.7.66l-7.14.76c-2.77.3-5.35.56-6.86.74l2 3c1.83-.67 6.8-2 12-2 4.75 0 10.41 1.11 13.27 1.81-.98 3.1-2.88 5.8-5.37 7.76a15.25 15.25 0 0 0-6.9-1.57c-4.8 0-6.67.67-7 1 1 .67 3.8 2 7 2h4.75a15.95 15.95 0 0 1-17.94-1.65C20.22 38.6 24.77 36 29 36c4.8 0 7.34.67 8 1l1-2c-2-.5-5-1-9-1-5.9 0-10.37 1.57-13.75 3.67A15.92 15.92 0 0 1 12 28v-.05a1909.47 1909.47 0 0 0 21.14-2.21c2.77-.3 5.36-.56 6.86-.74l-2-3c-1.83.67-6.8 2-12 2-4.57 0-10-1.03-12.94-1.73a16.05 16.05 0 0 1 5.46-7.16C20.11 16.04 22.67 17 26 17c4.8 0 6.67-.67 7-1-1-.67-3.8-2-7-2h-5.75a15.95 15.95 0 0 1 17.93 1.64C35.8 17.4 31.24 20 27 20c-4.8 0-7.33-.67-8-1l-1 2c2 .5 5 1 9 1 5.9 0 10.39-1.57 13.77-3.67a15.91 15.91 0 0 1 3.23 8.8Z" fill="url(#auvfnq4rx)"/><defs><linearGradient id="auvfnq4rx" x1="35.06" y1="15" x2="15.06" y2="36.06" gradientUnits="userSpaceOnUse"><stop stop-color="#CEA866"/><stop offset=".2" stop-color="#E7CFA4"/><stop offset=".55" stop-color="#CEA866"/><stop offset=".75" stop-color="#EBD7B3"/><stop offset="1" stop-color="#CEA866"/><stop offset="1" stop-color="#D9D9D9" stop-opacity="0"/></linearGradient></defs></svg>