<!-- by TradingView --><svg width="56" height="56" viewBox="0 0 56 56" xmlns="http://www.w3.org/2000/svg"><path fill="#F0F3FA" d="M0 0h56v56H0z"/><path d="M21.47 22.23c1.21-.13 2.43-.4 3.64-.77.4-.12.93-.16 1.6-.12.7.05 1.5.76 2.1 1.1a.89.89 0 0 1 .44.8c-.1 1.7.05 3.12-.32 4.91-.5 2.5-.78 3.83-.82 4a4.34 4.34 0 0 1-2.34 2.8.5.5 0 0 1-.7-.24l-.66-1.52c-.17-.39-1.02-.56-1.39-.5a53.7 53.7 0 0 1-2.84.44c-.31.03-.6.12-.87.25l-.82.43a.38.38 0 0 1-.28.03.37.37 0 0 1-.22-.17c-.58-.96-1.18-2.05-1.13-3.23.08-1.9.03-3.83-.14-5.8-.12-1.35.93-2.81 1.4-4.09.03-.08-.06-.16-.15-.13-1.6.7-2.88 1.24-3.86 1.64-.7.29-1.21.4-1.56.33a3.05 3.05 0 0 1-1.07-.42c-.93-.57-2.28-.93-3.09-1.27-.53-.22-.52-.4.05-.54.86-.22 1.98-.63 3.36-1.23 1.06-.47 2.2-.83 3.4-1.1 4.62-.98 8.95-1.59 13-1.83 1.4-.08 2.86 1.02 3.63 2.06a.85.85 0 0 1 0 1c-.2.3-.66.28-1 .16-2.25-.74-4.6-.89-7.05-.43-.13.03-.19.1-.18.23.01.32.04.61-.17.89-.54.72-1.22 1.45-2.02 2.19-.12.1-.1.15.06.13Zm2.73 6.13c-1.08.6-2.3.82-3.64.63a.2.2 0 0 0-.23.2v2c0 .13.14.2.25.14a7.62 7.62 0 0 1 4.3-1.15.3.3 0 0 0 .28-.16c.24-.42.39-.89.44-1.41.2-1.95.3-3.43.33-4.46 0-.17-.2-.29-.36-.2-.46.25-.98.44-1.56.57-.9.2-1.57.8-2.57.85a.7.7 0 0 1-.3-.05 6.2 6.2 0 0 0-1.9-.52c-.64-.04-.7.13-.16.53.25.19.47.64.66 1.34.1.36.36.62.79.76a.3.3 0 0 0 .31-.06c.86-.8 1.93-1.1 3.21-.93a.3.3 0 0 1 .27.21c.15.42.18.9.07 1.44a.38.38 0 0 1-.2.27ZM35.54 26.98c0 .17.07.22.22.16.72-.3 1.55-.73 2.48-1.3.55-.34 1.3-.46 2.22-.36.13.02.21.1.24.23.1.44.03 1.01.02 1.36 0 .26-.24.47-.7.63-.87.3-1.69.45-2.46.42-.86-.03-.9.2-.1.66.5.3 1.17.88 1.6 1.44 1.7 2.18 3.8 3.85 6.29 5 .9.42 1.48 1.04 2.24 1.48.57.32.55.59-.08.79-2.43.8-4.62.45-6.57-1.03-.4-.3-.68-.76-1.02-1.2-.1-.13-.2-.14-.31-.05a4.8 4.8 0 0 1-2.23.9.4.4 0 0 0-.25.15.44.44 0 0 0-.1.28c.08 2.38-.3 4.71-.25 7.07 0 .13-.04.23-.15.3-.13.1-.3.11-.54.06-.15-.04-.28-.15-.37-.33-.41-.8-.6-1.56-.55-2.27.1-1.75.18-3.27.22-4.55.01-.21-.2-.36-.38-.3-.88.33-1.75.31-2.62-.05a.33.33 0 0 0-.33.05c-1.32 1.1-2.51 2.04-4.2 2.16-1.05.07-1.14-.2-.26-.8A8.89 8.89 0 0 0 30 35.6c.87-1.2 1.58-2.07 2.1-3.33l1.13-2.9c.04-.12.01-.17-.1-.18-.66-.08-2.94-.63-2.99-1.6 0-.07.02-.13.06-.17.13-.18.34-.22.63-.13a5.7 5.7 0 0 0 2.75.26c.1-.02.2-.12.2-.23.1-.77.11-1.68.2-2.57a1.4 1.4 0 0 0-.52-1.31c-.19-.15-.17-.26.05-.34.64-.2 1.14-.13 1.5.2.68.62.55 2.63.53 3.67Zm2.93 6.72c.02-.01.06-.04.04-.06-.64-.9-1.21-1.85-1.72-2.85-.25-.5-.84-.98-1.1-1.41a.2.2 0 0 0-.33-.02c-.07.1-.13.24-.17.4-.04.13 0 .23.12.3.75.43 1.23 1.22 1.43 2.37.12.67.2 1.2.24 1.61 0 .14.08.18.2.13l1.3-.47Zm-4.46.1c-.2.38-.6.94-1.19 1.7-.2.26-.15.37.18.32a5.04 5.04 0 0 0 2.45-1.03.46.46 0 0 0 .14-.27c.07-.9-.1-1.8-.5-2.7-.13-.32-.25-.31-.36.02-.28.93-.52 1.58-.72 1.96Z" fill="#201F4A"/></svg>