<!-- by TradingView --><svg width="56" height="56" viewBox="0 0 56 56" xmlns="http://www.w3.org/2000/svg"><path fill="#002F6C" d="M0 0h56v56H0z"/><path d="M50 34h2v-5h-2v5Z" fill="#FFCE29"/><path d="M50 29h2v-5h-2v5Z" fill="#D52527"/><path d="M50 24h2v-5h-2v5Z" fill="#2B2B2A"/><path d="M4 25.34c0-.1.03-.18.09-.24.06-.07.13-.1.2-.1H7.7c.09 0 .16.03.21.1.06.06.09.14.09.24 0 .1-.03.17-.09.24a.27.27 0 0 1-.2.1H4.6v2.41h2.23c.08 0 .15.04.2.1.07.07.1.15.1.24 0 .1-.03.17-.1.24a.27.27 0 0 1-.2.1H4.6v2.56h3.1c.09 0 .16.03.21.1.06.06.09.14.09.23 0 .1-.03.18-.09.24a.27.27 0 0 1-.2.1H4.3a.27.27 0 0 1-.21-.1.35.35 0 0 1-.09-.24v-6.32ZM9 27.32a.3.3 0 0 1 .1-.23c.06-.06.13-.09.22-.09.1 0 .17.03.23.1.06.05.1.13.1.22v2.2c0 .25.04.5.14.72a1.86 1.86 0 0 0 3.57-.72v-2.2a.3.3 0 0 1 .1-.23c.05-.06.13-.09.22-.09a.3.3 0 0 1 .23.1c.06.05.09.13.09.22v2.2a2.4 2.4 0 0 1-.73 1.75 2.52 2.52 0 0 1-4.07-.78 2.4 2.4 0 0 1-.2-.97v-2.2ZM15 29.48c0-.34.07-.65.2-.95A2.68 2.68 0 0 1 17.61 27a.4.4 0 0 1 .28.1c.07.05.11.13.11.22a.3.3 0 0 1-.1.23.4.4 0 0 1-.29.09 2.06 2.06 0 0 0-1.36.55 1.78 1.78 0 0 0-.57 1.29v2.2a.3.3 0 0 1-.1.23.34.34 0 0 1-.24.09.35.35 0 0 1-.24-.1.3.3 0 0 1-.1-.22v-2.2ZM19.64 29.52a1.8 1.8 0 0 0 .54 1.3 1.89 1.89 0 0 0 1.31.55 1.84 1.84 0 0 0 1.72-1.14 1.84 1.84 0 0 0-1-2.44 1.84 1.84 0 0 0-2.03.4 1.87 1.87 0 0 0-.54 1.33ZM21.52 27c.33 0 .64.07.94.2a2.64 2.64 0 0 1 1.34 1.34 2.38 2.38 0 0 1 0 1.93 2.6 2.6 0 0 1-1.32 1.33 2.51 2.51 0 0 1-2.74-.5 2.42 2.42 0 0 1-.74-1.78 2.44 2.44 0 0 1 .72-1.76 2.74 2.74 0 0 1 1.8-.76ZM26 25.34c0-.1.03-.18.09-.24.05-.07.12-.1.2-.1h3.41c.08 0 .16.03.21.1.06.06.09.14.09.24 0 .1-.03.17-.09.24a.27.27 0 0 1-.2.1H26.6v2.41h2.23c.08 0 .15.04.2.1.07.07.1.15.1.24 0 .1-.03.17-.1.24a.27.27 0 0 1-.2.1H26.6v2.56h3.1c.08 0 .16.03.21.1.06.06.09.14.09.23 0 .1-.03.18-.09.24a.27.27 0 0 1-.2.1H26.3a.27.27 0 0 1-.21-.1.34.34 0 0 1-.09-.24v-6.32ZM36 33.67c0 .1-.03.17-.1.24a.3.3 0 0 1-.22.09.31.31 0 0 1-.23-.1.32.32 0 0 1-.1-.23v-2.4a2.5 2.5 0 0 1-1.85.83 2.54 2.54 0 0 1-2.5-2.53v-2.24c0-.1.03-.17.1-.24a.3.3 0 0 1 .22-.09.3.3 0 0 1 .23.1c.06.06.1.13.1.23v2.24a1.84 1.84 0 0 0 .54 1.33 1.88 1.88 0 0 0 1.31.55 1.9 1.9 0 0 0 1.86-1.8v-2.32c0-.1.03-.17.09-.24a.3.3 0 0 1 .23-.09.3.3 0 0 1 .23.1c.06.06.09.13.09.23v6.34ZM39.5 27.65c-.23 0-.45.04-.65.12-.2.08-.39.19-.55.32a1.93 1.93 0 0 0-.63 1.08h3.65a1.87 1.87 0 0 0-1.83-1.52Zm-1.84 2.17a1.9 1.9 0 0 0 1.18 1.43 1.82 1.82 0 0 0 1.96-.4c.06-.07.13-.1.22-.1.1 0 .17.03.23.1.06.05.1.13.1.22a.3.3 0 0 1-.1.23c-.23.25-.48.43-.77.54a2.8 2.8 0 0 1-1.95-.03 2.5 2.5 0 0 1-1.33-1.3c-.13-.3-.2-.64-.2-1a2.44 2.44 0 0 1 .72-1.75 2.74 2.74 0 0 1 1.8-.76c.32 0 .64.07.93.2a2.69 2.69 0 0 1 1.32 1.3c.14.3.21.62.23.95.01.12-.02.21-.1.27a.35.35 0 0 1-.22.1h-4.02ZM43.1 31.68a.3.3 0 0 1 .1-.23.3.3 0 0 1 .22-.09h2.22a.7.7 0 0 0 .5-.22.7.7 0 0 0 .22-.51.7.7 0 0 0-.21-.52.7.7 0 0 0-.51-.21h-1.2a1.39 1.39 0 0 1-1.02-.43 1.45 1.45 0 0 1 0-2.05 1.44 1.44 0 0 1 1.02-.42h2.09a.3.3 0 0 1 .22.1c.06.05.1.13.1.22a.3.3 0 0 1-.1.23.3.3 0 0 1-.22.09h-2.1a.8.8 0 0 0-.56.25.77.77 0 0 0-.23.56c0 .22.07.41.23.57.16.16.35.24.57.24h1.2c.18 0 .36.03.52.1a1.37 1.37 0 0 1-.52 2.64h-2.22a.3.3 0 0 1-.22-.1.3.3 0 0 1-.1-.22Z" fill="#fff"/></svg>