<!-- by TradingView --><svg width="56" height="56" viewBox="0 0 56 56" xmlns="http://www.w3.org/2000/svg"><path fill="#F0F3FA" d="M0 0h56v56H0z"/><path d="m36.09 11.9.5-1.18c-.11-.04 1.03.28 1.83.67.39.17 1.06.56 1.06.56l-.58 1.16a22.5 22.5 0 0 0-2.81-1.2Zm-4.72-1 .15-1.32c0-.02 1.21.13 1.45.2.28.04 1.62.32 1.56.34l-.3 1.27c-.93-.2-1.86-.35-2.86-.5Zm-4.9-.18-.03-1.27 1.65-.06 1.49.04.02 1.33c-1.04-.08-2.1-.04-3.14-.04Zm-4.68.71-.28-1.25c-.02-.13 2.23-.56 2.51-.6.26-.02.46-.04.46.02l.17 1.25c-1.06.15-1.99.35-2.86.58Zm-2.52 1.23c-.57.21-.91.4-1.22.56l-.02-.02 1.73 3.59h-.02c.74-.45 1.62-.84 2.66-1.16 1.64-.5 3.59-.8 5.7-.8 3.49 0 6.58.82 8.48 2.02a2 2 0 0 1-.28-.17L38 13.11c-.35-.15-.76-.34-1.23-.52l-.57 1.25-.15.39c-.08-.07-.17-.1-.47-.22-.3-.13-.78-.3-1.32-.45l-1.2-.3.36-1.63c-.5-.11-.98-.18-1.43-.24l-.28 1.57c-1-.17-2-.3-3-.3v-1.53c-.42 0-.87-.02-1.28 0v1.57c-.52.02-1.02.04-1.52.09-.56.04-1.12.15-1.55.21l-.4-1.61c-.43.06-.84.15-1.2.21l.36 1.64a19.4 19.4 0 0 0-3.09 1.03l-.75-1.61Z" fill="#FFD000"/><path d="m25.6 17.05-1.34-.48-.97.97 1.23.52 1.08-1.01Zm1.28-.15 1.2-.76 1.17.76-1.1.75-1.27-.75Zm-6.92-4.97-.5-1.2s.15-.07-.48.16c-.65.24-2.44 1.14-2.44 1.14l.56 1.2c.93-.48 1.88-.92 2.86-1.3Zm15.15 7.6a15.3 15.3 0 0 0-6.87-1.54c-2.81 0-5.34.65-7.1 1.62l.7.32a14.79 14.79 0 0 1 6.38-1.33c2.4 0 4.58.5 6.22 1.27.23-.1.46-.22.67-.35ZM39.11 39.86l.28.5c-.04.16-.34.61-.77 1.07a6.73 6.73 0 0 1-1.78 1.29c-1.17.5-2.38.84-3.6 1.14-.7.15-1.3.4-1.89.67a8.98 8.98 0 0 0-3.24 2.02c0-.02-.05-.05-.11-.11v-1.87l.1.08c.44-.28.79-.6 1.22-.86.5-.28 1.62-.75 2.92-1.18 1.38-.45 3.22-.69 4.34-1.7.28-.26.48-.5.65-.86-.26-.45-.5-.99-.71-1.49a13.52 13.52 0 0 1-1.3-5.59H28V22.9h.09v.17h.13v.15h-.13v.26c.21.04.39.24.34.47.48-.17 1.2-.21 1.3.46.09.56-.95.84-.32 1.4h-.03.4v1.57h-.61c.02.8.43 1.72 1.7 2.38v1.45H35c-.08-2.26.29-4.59 1.1-6.7.31-.75.63-1.42 1-1.91l-2.03-1.3c-1.69.8-4.35 1.4-7.07 1.4v-1.24c1.7 0 3.37-.24 4.71-.63a10.7 10.7 0 0 0 2.81-1.16l3.8 2.37c-1.61 2.24-2.63 5.47-2.63 9.12 0 3.42.93 6.5 2.42 8.72v-.02ZM28 46.44c-.26-.24-.97-.77-1.47-1.05-.45-.24-1-.59-2.46-1.17-.9-.29-1.81-.54-2.73-.75-1.21-.36-2.18-.62-2.85-1.07-1.39-.9-1.73-1.92-1.78-2a23.63 23.63 0 0 0 2.3-5.45c.28-1.14.4-2.39.4-3.66-.1-3.14-.8-6.5-2.59-9.12l3.72-2.45.1-.05.1.05c1.1.7 2.48 1.2 4.06 1.48.97.17 2.03.28 3.2.26v1.25h-.09c-2.68 0-5.36-.58-7.07-1.34l-1.83 1.36c1.01 1.42 1.75 4.02 1.94 6.67.04.62.04 1.23.04 1.8h4.13v-1.44c1.28-.66 1.69-1.59 1.71-2.38h-.63V25.8h.46c.54-.52-.48-.84-.39-1.42.1-.67.82-.59 1.3-.43-.07-.24.1-.43.34-.48v-.26h-.15v-.15h.15v-.17H28v10.07h-7.11c-.07.8-.26 2.15-.65 3.55a9.8 9.8 0 0 1-1.45 3.42l-.02.07c.13.32.26.54.47.77.44.5 1.04.82 1.65 1.03 1.58.46 3.24.95 4.45 1.4.76.28 1.28.48 1.67.74.38.17.67.43.99.62v1.87Z" fill="#FFD000"/><path d="M36.37 17.13c.06.13.24.26.04.43-.15.16-.35 0-.52-.08-1.86-1.03-4.67-1.7-7.78-1.7-3.4 0-6.4.77-8.24 1.98-.22.02-.3-.17-.28-.3.02-.11.1-.18.1-.2 1.89-1.2 4.98-2.08 8.46-2.08 3.33 0 6.31.81 8.22 1.95Z" fill="#FFD000"/><path d="m31.72 18.02 1.23-.54-1.02-.95-1.34.54 1.13.95Zm3.24 1.05.37-.02.39-1.01-.3-.37-1.4.24.83 1.12.11.04Zm-13.7.1-.59-.08-.32-.75.43-.56 1.4.21-.82 1.12-.1.07ZM31.65 39.8h.07l.13.01H32l.15.02s.07.11.2.18c.08.06.21.1.3.08l.1-.04c.16-.1.18-.3.18-.3l.09-.02.06-.03.04-.04.05-.04.02-.07.04-.12c0-.05 0 0 .05-.05.04-.02.1-.04.1-.13.02-.06.02-.13.02-.17l.07.04.32-.51-.32-.22 1.17-1.52-.02-.95-.91.39-.93 1.65-.35-.2-.3.48.26.2-.07.1c-.13.02-.34-.02-.5.02a.34.34 0 0 0-.17.18v1.05Zm0-2.42v-.75c.03 0 .05 0 .07.02h.37c.04.13-.11.26-.24.3l-.04.02a.8.8 0 0 1 .02.33c-.02.04-.05.1-.18.08Zm0-.97v-.13a.2.2 0 0 1 .16.07l.15.08c0-.12-.09-.17-.15-.21-.07-.02-.11-.04-.16-.04v-1.16h.2l.28.04.17.04c.15 0 .18.54 0 .54.2.56-.21.73-.28.77l-.06.02c.1.05.23.05.36.03.2-.05.3-.15.35-.22.04-.08.02-.15.02-.15s.2.06.15.17c-.02.13-.17.28-.45.33a1.2 1.2 0 0 1-.7-.13.05.05 0 0 0-.04-.05Zm0 5.23c.09.02.22.02.3-.08.05-.07 0-.2-.06-.3a.67.67 0 0 0 .09-.16c.02-.02-.05-.32-.33-.43v.97Zm-.88-.82-.26-.04a.98.98 0 0 1-.46-.21c-.15-.13-.21-.26-.15-.24.05 0 .28 0 .54-.04.22-.02.42-.09.6-.2.27-.17.5-.3.53-.3h.08v-1.05l-.15.21s-.04.09-.24.15c-.17.07-.73.07-.84.02l.02-.12c.18.08.22.04.35.02.09-.02.37-.22.37-.4-.11-.06-.4-.18-.57-.34-.15-.12-.23-.27-.13-.43 0-.02.05-.02.07-.04l.09-.02.28-.02c.08-.02.1-.04.1-.17-.28-.03-.21-.46-.17-.5.13 0 .43.15.6.22l.05.02.17.04v-.75a.72.72 0 0 1-.28-.09.2.2 0 0 1-.08-.17h.04c.04-.02.2-.02.32.04v-.13c-.13-.04-.26-.04-.3-.04.07-.06.17-.08.3-.06v-1.16a.2.2 0 0 1-.1-.03.52.52 0 0 1-.24-.13c-.07-.04-.13-.1-.13-.19l-.15-.09c-.15-.13-.5-.06-.54-.04-.09 0-.15-.02-.2-.06a1.84 1.84 0 0 1-.32-.48c-.02-.04-.11-.1-.15-.1-.22 0-.37-.09-.87.3-.1.08-.17.17-.3.2l-.13.03h-.13v.03s-.07.3.1.36h-.06c-.06 0-.32.13-.39.17-.2.13-.4.39-.52.52-.02.02-.02.04-.04.04-.04.02-.04.05-.06.05-.05.02-.07.02-.09.04 0 0-.02.02-.06.02.04.09.19.22.32.24l-.02.02h-.04a.45.45 0 0 0-.13.04c-.7.33-.07 1.06-.93 1.14 0 .24.13.43.4.35a2.2 2.2 0 0 1-.6.28c-.02.06.02.13.09.17.04.04.1.06.2.08.12.05.25.07.25.07.02.02-.02.02-.04.02-.11.04-.43.07-.52.07 0 .23.04.4.1.53a.89.89 0 0 1-.51.41c-.1.02-.24.07-.41.07-.7 0-1-.17-1.17-.26.04-.04.13-.17.2-.3a2.28 2.28 0 0 0 .36-1.14c.02-.26-.06-.54-.21-.76-.24-.3-.57-.43-.91-.4v.86c.13-.07.26 0 .3.19.04.28.02.39-.06.58l-.24.35v2.75c.82.54 1.84.84 2.8.8l.48-.09c.22-.02.42-.09.57-.13.6-.21.84-.5.86-.47.04.02 1.7.62 2.14.62.41-.02.54.07.54.04 0-.02.3.18.46.07.15-.1.04-.22.04-.22h.06v-.96c-.02 0-.04 0-.06-.03-.32-.06-.86.13-.82.18Zm-7.07-4.54c-.2.03-.4.07-.56.15-.22.1-.44.26-.61.41-.15.18-.35.54-.43 1.01-.07.41-.07.87.04 1.27-.09.03-.22.03-.37.03-.2 0-.3-.03-.47-.15a1.5 1.5 0 0 1-.37-.33c0-.02-.3.28-.3.56s.08.41.08.41-.3.2-.4.37c-.05.06-.07.13-.12.19-.06.13-.08.26-.08.26s.13.08.3.15c.13.04.3.09.41.09.24-.03.33-.05.3-.03-.04 0 .16.35.4.43.23.09.47.09.45.05 0-.05-.02-.15.13-.54.13-.32.43-.47.52-.54.3.37.68.7 1.1.96l-.02-2.77a.96.96 0 0 1-.13.11h-.02v-.02c-.03 0-.03-.02-.03-.02a.82.82 0 0 1-.13-.28.74.74 0 0 1-.02-.43c.02-.15.11-.28.18-.37a.38.38 0 0 1 .15-.1v-.87Z" fill="#FFD000"/><path d="M31.65 32.97h3.57c.02 1.94.48 3.85 1.3 5.6.21.49.45 1.03.71 1.48-.17.37-.37.6-.65.86-1.12 1.01-2.96 1.25-4.34 1.7-.2.06-.4.15-.59.22v-1.19c.09.02.22.02.3-.08.05-.07 0-.2-.06-.3a.67.67 0 0 0 .09-.16c.02-.02-.05-.32-.33-.43v-.88h.07l.13.02H32l.15.02s.07.11.2.18c.08.06.21.1.3.08l.1-.04c.16-.1.18-.3.18-.3l.09-.02.06-.03.04-.04.05-.04.02-.07.04-.12c0-.05 0 0 .04-.05.05-.02.11-.04.11-.13.02-.06.02-.13.02-.17l.07.04.32-.51-.32-.22 1.17-1.52-.02-.95-.91.39-.93 1.65-.35-.2-.3.48.26.2-.07.1c-.13.02-.34-.02-.5.02a.34.34 0 0 0-.17.18v-1.36c.13.02.15-.04.18-.09a.78.78 0 0 0-.03-.32l.05-.02c.13-.04.28-.17.24-.3h-.37c-.02-.02-.05-.02-.07-.02v-.22c.02 0 .05.02.05.05.13.06.39.17.69.13.28-.05.43-.2.45-.33.05-.1-.15-.17-.15-.17s.02.06-.02.15a.56.56 0 0 1-.35.22.71.71 0 0 1-.36-.03l.06-.02c.07-.04.48-.21.28-.77.17 0 .15-.54 0-.54l-.17-.04-.28-.05h-.2v-2.04Zm0 3.31a.2.2 0 0 1 .16.07l.15.08c0-.12-.09-.17-.15-.21-.07-.02-.11-.04-.16-.04v.1Zm-4.23-3.3h4.23V35c-.04 0-.06 0-.1-.02a.52.52 0 0 1-.24-.13c-.07-.04-.13-.1-.13-.19l-.15-.09c-.15-.13-.5-.06-.54-.04-.09 0-.16-.02-.2-.06a1.83 1.83 0 0 1-.32-.48c-.02-.04-.11-.1-.15-.1-.22 0-.37-.09-.87.3-.1.08-.17.17-.3.2l-.13.03h-.13v.03s-.07.3.1.36h-.06c-.06 0-.32.13-.39.17-.2.13-.4.39-.52.52-.02.02-.02.04-.04.04-.04.02-.04.05-.06.05-.03 0-.05.02-.05.02v-2.65h.05Zm4.23 9.85c-1.06.36-1.92.77-2.33 1-.43.26-.78.54-1.21.82-.26-.15-.48-.27-.74-.45v-2.56c.07 0 .13-.06.18-.08.6-.21.84-.46.86-.43.04.02 1.7.62 2.14.62.41-.02.54.06.54.04 0-.02.3.17.46.07.15-.11.04-.22.04-.22h.06v1.19Zm0-6.65v.1c-.13-.04-.26-.04-.3-.04.07-.06.17-.08.3-.06Zm0 .23v.22a.73.73 0 0 1-.28-.09.2.2 0 0 1-.08-.17h.04c.04-.02.2-.02.32.04Zm0 .97v1.36l-.15.21s-.04.09-.24.15c-.17.07-.73.07-.84.02l.02-.12c.18.08.22.04.35.02.09-.02.37-.22.37-.4-.11-.06-.4-.18-.57-.34-.15-.12-.23-.27-.12-.43 0-.02.04-.02.06-.04l.09-.02.28-.02c.08-.02.1-.04.1-.17-.28-.03-.21-.46-.17-.5.13 0 .43.15.6.22l.05.02.17.04Zm0 2.41v.88c-.02 0-.04 0-.06-.02-.33-.06-.87.13-.82.17l-.26-.04a.98.98 0 0 1-.46-.21c-.15-.13-.21-.26-.15-.24.05 0 .28 0 .54-.04.22-.02.42-.09.6-.2.27-.17.5-.3.53-.3h.08ZM27.4 36l-.02-.22.22.13-.02.02h-.05a.45.45 0 0 0-.13.04v.02Zm-6.5-3.02h6.53l-.05 2.65-.04.02s-.02.02-.07.02l.11.11.02.21c-.64.35-.06 1.04-.93 1.12 0 .24.13.43.42.35-.05.06-.55.28-.61.28-.02.06.02.13.09.17.04.04.1.06.2.08.12.05.25.07.25.07.02.02-.02.02-.04.02-.11.04-.44.07-.52.07 0 .23.04.4.1.53a.88.88 0 0 1-.51.41c-.11.02-.24.07-.41.07-.7 0-1.02-.15-1.2-.24.05-.04.16-.2.22-.32a2.28 2.28 0 0 0 .37-1.14c.02-.26-.06-.54-.21-.76-.37-.47-.96-.5-1.47-.25a2.3 2.3 0 0 0-.61.4c-.15.18-.35.54-.43 1.02-.07.4-.07.86.04 1.27-.09.02-.22.02-.37.02-.2 0-.3-.02-.47-.15-.2-.13-.37-.3-.37-.33 0-.02-.3.28-.3.56s.08.41.08.41-.3.2-.4.37c-.05.06-.07.13-.12.2-.06.12-.08.25-.08.25s.13.09.3.15c.13.04.3.09.41.09.24-.03.33-.05.3-.03-.04 0 .16.35.4.43.23.1.47.1.45.05 0-.05-.02-.15.13-.54.13-.32.43-.47.52-.54a4.88 4.88 0 0 0 3.88 1.73l.48-.07c.15-.02.28-.04.4-.09v2.56c-.12-.06-.25-.19-.38-.25-.38-.26-.9-.46-1.66-.74a65.9 65.9 0 0 0-4.45-1.4 3.88 3.88 0 0 1-1.65-1.03 2.33 2.33 0 0 1-.47-.77l.02-.07a9.8 9.8 0 0 0 1.45-3.42c.39-1.4.58-2.75.65-3.55ZM28.2 17.7l.92.01c.91.05 1.78.16 2.6.3l-1.13-.94 1.34-.54 1.02.95-1.23.54c1.17.23 2.23.58 3.13 1l-.84-1.11 1.4-.24.3.37.1-.2c-2.25-1.27-5.1-1.74-7.66-1.74h-.09v.07l.03-.03 1.16.76-1.1.75-.08-.04v.08h.12Zm-.14-1.6c-1.2 0-2.42.12-3.6.35v.19l1.14.4-1.08 1.02-.07-.04v.06c1.2-.25 2.4-.38 3.61-.39v-.08l-1.18-.71 1.19-.74v-.06Zm-3.6.35c-1.67.34-3.12.88-4.2 1.52-.02.02-.04.02-.04.05l.13.32.43-.56 1.4.21-.82 1.12c.87-.43 1.93-.8 3.1-1.03v-.06l-1.17-.48.97-.97.2.07v-.2ZM20.82 19.41c.15-.08.28-.17.43-.23l-.58-.1.15.33Z" fill="#E72714"/><path d="M20.8 19.41h.02l-.06-.02.04.02Zm14.16-.34.28.15.07-.17-.35.02Zm-9.84 12.14v-1.45c1.28-.66 1.69-1.59 1.71-2.38h-.62V25.8h.45c.54-.52-.48-.84-.39-1.42.1-.67.82-.59 1.3-.43-.07-.24.1-.43.34-.48v-.26h-.15v-.15h.15v-.17h.18v.17h.13v.15h-.13v.26c.21.05.39.24.34.48.48-.18 1.2-.22 1.3.45.09.56-.95.84-.33 1.4h-.02.4v1.57h-.61c.02.8.43 1.72 1.7 2.39v1.44H35c-.08-2.26.29-4.59 1.1-6.7.31-.75.63-1.42 1-1.91l-2.03-1.3c-1.7.8-4.41 1.4-7.16 1.4-2.68 0-5.36-.57-7.07-1.33l-1.83 1.36c1.01 1.42 1.75 4.02 1.94 6.67.04.62.04 1.23.04 1.8h4.13Zm-1.73 6.84c.03.08.07.2.13.28 0 0 0 .02.03.02v.02h.02c.02 0 .26-.26.37-.45.08-.2.1-.3.06-.58-.04-.26-.3-.28-.45-.09a.82.82 0 0 0-.18.37.74.74 0 0 0 .02.43Z" fill="#E72714"/><path d="M22.18 39.1c-.02.05-.2.05-.4.05s-.31-.03-.48-.15a1.5 1.5 0 0 1-.37-.33c0-.02-.3.28-.3.56s.08.41.08.41-.3.2-.4.37c-.05.06-.07.13-.12.2-.06.12-.08.25-.08.25s.13.08.3.15c.13.04.3.09.41.09.24-.03.33-.05.3-.03-.04 0 .16.35.4.43.23.09.47.09.45.05 0-.05-.02-.15.13-.54s.56-.54.54-.56l-.07-.09c-.02-.02-.43.24-.58.54-.07.13-.1.22-.13.3-.02.13-.04.2-.07.22 0 0-.15-.02-.25-.09a.55.55 0 0 1-.26-.28l-.07-.15c-.02-.02-.41.07-.6 0a1.12 1.12 0 0 1-.3-.1c0-.03.08-.3.25-.46.2-.15.33-.2.33-.2s-.15-.38-.11-.55c.04-.17.15-.3.15-.3s.3.3.56.36c.24.07.78.03.72.05 0 0 0-.22-.03-.2ZM30.44 39l-.06.34c-.11.28-.43.5-.6.56l-.1.02c-.02 0-.1-.45-.14-.52 0-.02 0-.02-.03-.04v.02a.47.47 0 0 1-.15.15c0 .02-.02.02-.02.02v-.17c.09-.1.15-.21.17-.21.02 0 .07.04.13.13a.4.4 0 0 1 .07.19c.04.1.06.26.06.26s.11-.04.2-.13c.06-.04.13-.1.17-.15.13-.13.17-.45.17-.45l-.04-.18s.32.13.5.05c.15-.11.2-.2.2-.2l-.27-.13-.1-.08-.11-.09-.09-.1-.09-.11-.02-.09-.02-.08c0-.16.06-.26.22-.3l.13-.05h.2c.01 0-.16-.13-.16-.34-.02-.24.06-.3.09-.35.02-.04.54.17.75.26.24.09.22 0 .22-.02l-.05-.3c.4-.2.24-.13.03-.13a.86.86 0 0 1-.46-.13.38.38 0 0 1-.1-.15c-.03-.07-.03-.13-.03-.2.02-.08.07-.17.15-.21a.6.6 0 0 1 .54-.02c.2.1.22.17.2.2 0 .01.2-.12.22-.29.04-.2-.07-.4-.07-.4l.13-.07v-.17l-.02-.07-.04-.06-.3-.07h-.37c-.07.03-.46-.21-.5-.38-.07-.18-.46-.15-.54-.13a.29.29 0 0 1-.35-.09c-.04-.04-.1-.17-.2-.28-.14-.24-.19-.26-.4-.24a.42.42 0 0 0-.22.07v-.13c.22-.1.32-.06.48-.06.04 0 .13.06.15.1.04.11.24.41.32.48.05.04.11.06.2.06.04-.02.39-.09.54.04.06.02.1.07.15.09 0 .09.06.15.13.2.06.06.15.1.24.12.1.05.21.02.3.02l.28.05.17.04c.15 0 .18.54 0 .54.2.56-.21.73-.28.77l-.06.02c0-.13-.09-.17-.15-.21-.4-.2-.7.13-.44.32.09.07.2.09.35.1h.37c.04.14-.11.27-.24.31l-.04.02a.8.8 0 0 1 .02.32c-.02.07-.09.15-.35.05l-.04-.02c-.18-.07-.48-.22-.6-.22-.05.04-.12.47.17.5 0 .12-.03.15-.11.17l-.28.02-.09.02c-.02.02-.06.02-.06.04-.11.15-.03.3.12.43.18.15.46.28.57.35 0 .17-.28.36-.37.39-.13.02-.17.06-.35-.03Zm-1.1.55-.17.11c-.15.07-.35.09-.46-.02.05-.02.05-.52-.04-.54-.26.22-.5.28-.65.33a.7.7 0 0 1-.34.04c-.07-.02-.2-.07-.16-.09.11-.1.2-.36.11-.58-.62.2-1.36.48-1.38-.66.09 0 .41-.03.52-.07.02 0 .06 0 .04-.02 0 0-.13-.02-.26-.07a.42.42 0 0 1-.2-.08c-.06-.04-.1-.11-.08-.17.07 0 .58-.22.6-.28-.28.08-.4-.11-.4-.35.86-.08.23-.82.93-1.14l.12-.04h.05l.02-.02a.54.54 0 0 1-.33-.24.1.1 0 0 0 .07-.02l.09-.05c.02 0 .02-.02.06-.04.02 0 .02-.02.04-.04.11-.13.33-.39.52-.52.07-.04.33-.17.4-.17h.06c-.18-.06-.11-.37-.11-.37v-.02h.13l.13-.04c.13-.02.2-.1.3-.2.12-.1.25-.17.39-.23v.13c-.04 0-.09.02-.13.06-.22.18-.32.3-.5.35l-.21.04s-.05.15.08.22c.11.08.15.08.15.08s-.47.11-.7.33c-.25.23-.44.45-.44.45l-.05.02-.04.02-.06.04.1.07.14.06.15.07c.02 0-.22.08-.41.17-.1.04-.16.08-.18.13l-.08.21-.07.24c0 .13-.02.21-.02.21s-.04.09-.1.15c-.03.05-.1.1-.14.11l-.13.07a.37.37 0 0 1-.13.02s.07.17.26.17c.17 0 .26-.02.26-.02s-.06.15-.24.26c-.15.08-.39.17-.4.15a1 1 0 0 0 .45.13c.04.02.1.02.13.02l.1-.02c.03 0-.02.13-.1.21-.07.07-.2.11-.3.13-.27.04-.35.02-.35.02s.04.56.4.58c.38.03.87-.19.87-.19s.11.04.15.28c0 .1-.04.22-.04.28a.3.3 0 0 1-.06.13s.13.06.5-.1c.34-.16.47-.29.47-.29l.06-.06s.07.08.11.2c.02.08.05.16.05.25v.21c.08.05.32-.06.4-.12 0-.03.03-.05.05-.05v.17Z"/><path d="M26.64 37.34c.02.02.37.08.52-.07l.2-.19s-.16.34.06.45c.21.11.58.05.58.05s-.39.23-.32.43c.04.17.43.04.5 0l.08-.05s-.09.17.04.3c.13.11.22.11.22.11l-.09.1-.1-.01a.26.26 0 0 1-.11-.11c-.11-.13-.07-.22-.09-.17-.02.04-.43.08-.54 0-.1-.11-.13-.24-.04-.37.1-.13.15-.1.15-.1s-.28.02-.4-.07c-.1-.1-.06-.24-.1-.22l-.26.15-.1.07-.18.06s.28-.17.24-.23c-.07-.07-.26-.13-.26-.13Zm1.38-1.23c-.06 0-.32.17-.24.37.11.2.24.13.4.08l-.07.11.13.04.1-.34-.1-.02s-.15.2-.24.13l-.06-.04c-.07-.11.1-.2.21-.24a.47.47 0 0 0-.13-.09Zm.11.73c.02.03.1.07.22.05.1-.02.15 0 .15 0s-.07.15-.05.32c.03.15.24.09.35 0 .09-.09.1-.04.1-.04s-.1.38.05.45c.15.06.33-.24.35-.22l.08.11s-.15.17-.28.24c-.13.06-.39-.05-.37-.17 0-.16.03-.22.03-.22s-.2.1-.35.04c-.15-.08-.1-.26-.09-.28l.05-.08s-.11.02-.18-.02c-.06-.07-.06-.2-.06-.18Zm1.21-.04c.04-.06-.09-.56.13-.56.13.13.32.2.5.22.04.13-.2.43-.3.47-.05 0-.07-.02-.1-.04 0-.11.33-.33.05-.37-.24-.13-.1.26-.15.3 0 0-.15.02-.13-.02Zm.74-1.55c-.03 0-.07.09-.26 0-.18-.06-.35-.26-.59-.17-.21.06-.34.2-.26.4.09.24.37.35.6.3l.38-.06s.06-.08 0-.08c-.07-.02-.26.06-.5.04-.22-.02-.24-.08-.35-.2-.08-.1.05-.27.15-.27.13-.02.22 0 .4.1.17.13.27.13.38.1.13-.03.11-.14.11-.14l-.06-.02Zm-.48-.36s.22-.05.35.06c.15.13.23.15.23.2 0 .06-.06.12-.13.06-.08-.07-.17-.13-.26-.15-.08-.05-.21-.05-.21-.05-.02 0 0-.15.02-.12Zm.41-.26s.1.1.15.13c.04.02.17.1.09.13-.09 0-.17 0-.22-.05-.04-.04-.13-.06-.1-.15.02-.06.08-.06.08-.06Zm1.1.51s-.06 0-.1.07c-.03.06-.05.1-.1.1-.06.03-.1.05-.06.1.07.01.22.06.26-.03l.09-.2-.09-.04Zm-.84 1.98c0 .05.09.63-.04.78-.28.3-.52-.13-.54-.35l.1-.06c.03.02.03.06.05.1.02.1.06.24.17.27.28 0 .06-.74.1-.84.05.02.1.04.14.04.02.02.02.04.02.06Zm-1.54 1.25c.07.15.18.24.3.28.18.04.33 0 .27-.1-.07-.05-.18.01-.26-.05-.05-.02-.07-.06-.11-.1-.02-.05-.04-.1-.07-.11-.04 0-.06.02-.13.04-.02 0 0 .02 0 .04Zm.8.02.03.07a.3.3 0 0 1 .06.08c.05.05.09.09.15.09l.22.02s.15.17.26.24c.05.04.1.06.17.06l.13-.04s-.04 0-.06-.02a1.09 1.09 0 0 1-.3-.22c-.05-.08-.05-.06-.05-.06l.1-.05.05-.04.02-.04.03-.05v-.06l-.03-.09-.08-.1s0 .06-.03.1c-.02.11-.08.2-.19.2h-.06c-.22 0-.26-.07-.3-.15-.07-.09-.1-.09-.1-.09s-.04.15-.02.15Zm1.8-2.15c-.02 0 .32 0 .48.1.15.12.32.16.51.12.2-.05.3-.15.35-.22.04-.08.02-.15.02-.15s.2.06.15.17c-.02.13-.17.28-.45.33a1.2 1.2 0 0 1-.7-.13c-.1-.09-.3-.11-.36-.09-.04 0-.07 0-.1.02l.1-.15Zm-.93 2.88c0 .05.67.05.86-.02.2-.06.24-.15.24-.15s.18-.32.33-.39c.15-.04.36 0 .5-.02.1-.02.86.02.82.3 0 .1-.1.24-.2.28-.13.05-.41 0-.41 0s-.02.1-.09.18a.26.26 0 0 1-.1.1c-.05 0-.11.03-.16 0-.1 0-.21-.02-.2-.04l.03-.1s.2.08.3.02c.1-.05.13-.28.13-.3l.22.04c.13.02.22.04.3-.07.05-.04.09-.1.02-.15a1.03 1.03 0 0 0-.4-.15c-.14 0-.57.02-.68.04-.1 0-.23.3-.4.43-.07.07-.27.11-.48.13-.24.03-.48.03-.57.03l-.1-.03s.04-.17.04-.13Z"/><path d="m30.01 34.6.01.02.02.01a1.89 1.89 0 0 0 .13.11l.1.07.01.02.01.03v.03l-.04.01h-.13a.18.18 0 0 1-.1-.05.25.25 0 0 0-.04-.02.38.38 0 0 1-.04-.03.11.11 0 0 1-.03-.05.1.1 0 0 1 0-.06.1.1 0 0 1 .06-.07H30l.01-.02Zm0 .04-.03.01a.07.07 0 0 0-.04.05v.04l.02.03.04.03c.02 0 .03.02.04.03.02.02.05.03.09.03h.13v-.01l-.02-.02a.4.4 0 0 0-.09-.06m-.55.13v-.01h-.01v.01h.01Zm0 0-.01.04a.25.25 0 0 0 0 .06.53.53 0 0 1 .07 0c.04 0 .1.02.14.04.09.02.18.09.26.15l.04.03.03-.01a.08.08 0 0 0 .04-.07l-.01-.01-.05-.04h-.01l-.17-.13a.35.35 0 0 0-.2-.07.6.6 0 0 0-.12.01Zm-.02.1Zm0 .03a.39.39 0 0 1 .07 0l.14.04a.79.79 0 0 1 .27.17h-.01a.13.13 0 0 1-.04.03c-.04 0-.1 0-.19-.03a.86.86 0 0 1-.13-.07l-.02-.01-.11-.07a.4.4 0 0 0-.33-.03c-.11.04-.2.09-.25.16-.06.07-.07.16-.02.27.09.25.38.36.62.32l.27-.05c.04 0 .06-.01.07-.02h.04a.27.27 0 0 0 .03-.05v-.04l-.02-.02h-.02a.2.2 0 0 0-.08 0h-.07l-.04.01c-.09.02-.2.03-.31.02a.4.4 0 0 1-.2-.06.41.41 0 0 1-.07-.05l-.02-.02-.04-.05c-.04-.05-.03-.11 0-.16.03-.06.09-.1.13-.1a.39.39 0 0 1 .18.01.8.8 0 0 1 .2.1c.1.06.16.1.23.11.06.01.12 0 .18-.02.03 0 .06-.02.07-.03a.11.11 0 0 0 .04-.06.13.13 0 0 0 0-.06h-.01.02v-.01l-.03-.01.02-.01a.12.12 0 0 0 .05-.1c0-.01 0-.03-.02-.04a.35.35 0 0 0-.05-.04h-.01l-.16-.12a.39.39 0 0 0-.24-.08.64.64 0 0 0-.11 0h-.01l-.02.01-.01.02-.01.05v.07s0 .02.02.02Zm.54.25-.04-.01h-.01a1.82 1.82 0 0 1-.05.03c-.05.01-.11.01-.21-.03a.9.9 0 0 1-.13-.07l-.02-.01a1.61 1.61 0 0 0-.12-.07.37.37 0 0 0-.3-.03.44.44 0 0 0-.24.15c-.04.06-.05.14-.01.24.08.23.35.33.59.3a37.87 37.87 0 0 1 .34-.07h.02l.01-.03v-.02H29.87a1.63 1.63 0 0 0-.11.02c-.1.01-.2.03-.32.02a.44.44 0 0 1-.22-.07.45.45 0 0 1-.07-.06l-.02-.02-.05-.05c-.05-.06-.04-.14 0-.2s.1-.1.16-.1a.42.42 0 0 1 .19 0c.06.01.13.05.21.1.09.07.16.1.21.1.06.02.11 0 .17-.01l.06-.03a.08.08 0 0 0 .03-.04.1.1 0 0 0 0-.03Zm1-.15v.01-.01l.1.05v.01a.75.75 0 0 1-.03.07l-.06.13c-.03.05-.09.06-.14.06a.58.58 0 0 1-.14-.03.07.07 0 0 1-.03-.04l.01-.04.04-.02.04-.02c.02 0 .04 0 .05-.02a.3.3 0 0 0 .03-.08.16.16 0 0 1 .12-.07Zm.06.07-.07-.04h-.03a.13.13 0 0 0-.06.06.32.32 0 0 1-.04.08c-.01.02-.03.03-.06.03a.41.41 0 0 0-.04.02.09.09 0 0 0-.02.01v.03l.13.02c.05 0 .1 0 .1-.04a2.47 2.47 0 0 0 .09-.17Zm1.48.86.04.01v.02-.02a.56.56 0 0 1 .1.05.2.2 0 0 1 .05.06.1.1 0 0 1 0 .09c-.02.14-.18.29-.46.33-.3.05-.57-.06-.7-.13a.54.54 0 0 0-.29-.1l-.07.02c-.04 0-.07 0-.1.02l-.06.02.15-.2h.18c.1.02.24.05.32.1.14.11.31.15.5.11.19-.04.3-.15.34-.2a.22.22 0 0 0 .02-.14l-.02-.04Zm-1.33.16v.02-.02Zm0 .04-.07.1h.07c.02-.01.04-.02.07-.01a.59.59 0 0 1 .3.1c.14.06.39.16.69.12.27-.04.42-.2.44-.31v-.06a.16.16 0 0 0-.06-.05.38.38 0 0 0-.06-.03v.01c0 .03 0 .07-.03.12a.57.57 0 0 1-.35.22c-.2.05-.38 0-.53-.1a.71.71 0 0 0-.3-.1 1.69 1.69 0 0 0-.16-.01Zm-3.35-.16h.08c0 .02.02.02.04.03l.06.06.02.01-.02.01a.66.66 0 0 0-.17.1.15.15 0 0 0-.05.05v.06l.03.02.04.02c.02.02.04.02.06 0l.07-.04a.6.6 0 0 0 .08-.07v-.01l.01-.01.14.03-.12.38-.17-.06.06-.09-.07.02a.37.37 0 0 1-.1.02.19.19 0 0 1-.11-.04.3.3 0 0 1-.1-.1c-.04-.11 0-.21.07-.28a.47.47 0 0 1 .15-.1Zm.26.27a.64.64 0 0 1-.08.08.28.28 0 0 1-.08.05h-.09v-.01l-.03-.02-.04-.02a.1.1 0 0 1 0-.1.18.18 0 0 1 .05-.07c.04-.04.1-.07.15-.09a.93.93 0 0 0-.1-.06H28a.45.45 0 0 0-.14.1c-.06.07-.1.15-.06.24.02.05.05.08.08.1l.08.02.1-.01.06-.02.05-.01.04-.01-.08.12.1.03.1-.3-.09-.02Zm1.12.44h.04a.5.5 0 0 0 .04 0h.02v-.27a.1.1 0 0 1 .03-.05c.03-.02.08-.02.14.01.07.02.1.04.12.08a.1.1 0 0 1 0 .05l-.03.06a1.07 1.07 0 0 1-.08.11.4.4 0 0 0-.03.05.1.1 0 0 0-.01.03c.01.02.03.03.06.03a.35.35 0 0 0 .1-.07.95.95 0 0 0 .18-.27.2.2 0 0 0 .01-.1.88.88 0 0 1-.49-.21c-.02 0-.03 0-.05.02a.12.12 0 0 0-.03.05.49.49 0 0 0-.02.17v.19a.78.78 0 0 1 0 .1v.02Zm.11.03a.84.84 0 0 1-.07 0h-.05l-.03-.02v-.03l.01-.01v-.02a.76.76 0 0 0 0-.12v-.14c0-.07 0-.14.02-.19a.15.15 0 0 1 .04-.06.12.12 0 0 1 .08-.03h.01c.13.13.32.2.49.22h.01v.01c.02.04 0 .09-.01.13a.98.98 0 0 1-.2.28.36.36 0 0 1-.1.09c-.06 0-.08-.03-.1-.05V36.82l.04-.05.03-.04a.99.99 0 0 0 .08-.12v-.03c0-.02-.03-.04-.1-.05-.07-.04-.1-.03-.1-.02l-.02.03-.01.06v.13a.43.43 0 0 1 0 .07v.02h-.01Zm-1.32 0v-.01h-.01l-.03-.03v.04a.36.36 0 0 0 .01.06c.01.04.03.1.06.13.04.02.09.03.13.03a.4.4 0 0 0 .03 0l-.03.05-.01.02v.03c-.01.02-.02.05-.01.08 0 .06.03.13.11.18.09.03.18.02.25 0a.65.65 0 0 0 .08-.03v.02l-.01.16c0 .04 0 .08.03.1a.3.3 0 0 0 .1.08c.09.04.19.05.26.01.07-.03.14-.1.2-.14a1.65 1.65 0 0 0 .08-.1h.02l-.1-.13h-.04l-.03.04-.01.01a1.4 1.4 0 0 1-.07.07.42.42 0 0 1-.1.08c-.04.02-.07.03-.1.01-.03-.01-.05-.04-.06-.08a.49.49 0 0 1-.01-.15 1.12 1.12 0 0 1 .03-.18v-.03h-.01.01v-.01l-.03-.01c-.03 0-.06.01-.1.06a.43.43 0 0 1-.2.08h-.08l-.04-.07a.64.64 0 0 1 .04-.32v-.01h-.01v-.01h-.04a.4.4 0 0 0-.12 0h-.13a.2.2 0 0 1-.06-.04Zm-.02 0h-.02v.01h.02Zm.02.04.05.02h.15a.37.37 0 0 1 .12 0 .76.76 0 0 0-.03.31c0 .04.02.07.05.09.03.02.07.02.1.02.08-.01.16-.05.22-.1.04-.04.07-.05.08-.05a1.41 1.41 0 0 0-.03.2v.15c.02.05.04.1.08.11.05.02.1.01.13 0a.45.45 0 0 0 .11-.1l.07-.06.02-.02a.34.34 0 0 1 .02-.03l.07.09a1.4 1.4 0 0 1-.27.22c-.05.03-.15.02-.22-.01a.26.26 0 0 1-.1-.07l-.02-.07a1.08 1.08 0 0 1 .02-.21l.02-.05-.04.03a.49.49 0 0 1-.11.04.34.34 0 0 1-.22 0 .19.19 0 0 1-.1-.15.22.22 0 0 1 .01-.1l.07-.13-.04.01H28.3c-.03 0-.07 0-.1-.02a.23.23 0 0 1-.05-.12Zm1.96.11.02.01a.3.3 0 0 0 .12.04h.01a.09.09 0 0 1 .03.06v.14a3.53 3.53 0 0 1 .02.48.37.37 0 0 1-.07.19c-.07.08-.15.11-.21.1a.27.27 0 0 1-.18-.08.7.7 0 0 1-.18-.37v-.02a.47.47 0 0 0 .06-.03.47.47 0 0 1 .06-.04h.02l.02.06.02.06.06.15c.02.05.06.09.1.1a.1.1 0 0 0 .07-.03.17.17 0 0 0 .04-.08.81.81 0 0 0 .02-.25c0-.08-.02-.15-.03-.22a14.63 14.63 0 0 1 0-.25v-.02Zm.15.16v-.05l-.02-.02a.3.3 0 0 1-.11-.04 1.52 1.52 0 0 0 0 .15l.02.06.02.23-.01.26a.2.2 0 0 1-.05.1.13.13 0 0 1-.1.03c-.07-.01-.1-.06-.13-.11a.71.71 0 0 1-.06-.16.33.33 0 0 1-.02-.06l-.01-.03c-.02 0-.03.02-.04.03l-.05.02c.02.1.08.26.17.35.05.04.1.07.16.07.05 0 .12-.02.18-.1.03-.03.05-.09.06-.16l.01-.25a3.57 3.57 0 0 0-.02-.3v-.02Zm-2.95 0-.14.14c-.08.08-.21.1-.32.1h-.05l.04.01.07.05v.05c0 .01 0 .03-.02.04a.55.55 0 0 1-.1.1l.04-.02.1-.06.26-.15h.03l.02.02v.05c.01.04.03.1.08.15.02.02.06.03.1.04l.12.02a1.2 1.2 0 0 0 .16 0v.03h-.03a.34.34 0 0 0-.11.1.26.26 0 0 0-.05.18c0 .06.04.11.09.16.02.02.07.04.12.04a.99.99 0 0 0 .4-.03v-.01h.02a.02.02 0 0 1 .01 0v.04c.01.03.03.08.08.14.02.04.06.08.1.1a.43.43 0 0 0 .1.02l.06-.08h-.04a.54.54 0 0 1-.16-.1.26.26 0 0 1-.07-.22V38l-.04.02a.95.95 0 0 1-.26.08.42.42 0 0 1-.16 0c-.05-.01-.09-.04-.1-.09-.02-.05 0-.11.02-.16l.12-.14.13-.1h-.14c-.12 0-.27 0-.38-.06-.12-.06-.14-.18-.12-.29l.02-.12Zm.06-.06v.01a.71.71 0 0 0-.05.17c-.01.1 0 .2.1.25.1.05.25.06.37.06a1.63 1.63 0 0 0 .2-.02l.02.03a.5.5 0 0 0-.06.04l-.13.1a.58.58 0 0 0-.1.13c-.03.05-.04.1-.03.14.01.04.04.06.08.07h.14a.93.93 0 0 0 .25-.08l.14-.07-.03.05V38l-.02.07c0 .05 0 .12.06.18a.5.5 0 0 0 .16.1.25.25 0 0 0 .05 0h.03l-.11.15h-.04l-.08-.03a.28.28 0 0 1-.12-.11.33.33 0 0 1-.08-.16 1.1 1.1 0 0 1-.4.03.29.29 0 0 1-.14-.04.32.32 0 0 1-.1-.19c-.01-.06 0-.13.05-.2a.57.57 0 0 1 .08-.08 1.1 1.1 0 0 1-.2-.02.3.3 0 0 1-.11-.05.3.3 0 0 1-.09-.16v-.05l-.26.15-.11.06-.17.07-.02-.03h.01a1.77 1.77 0 0 0 .2-.17.1.1 0 0 0 .02-.03v-.01a.31.31 0 0 0-.06-.05.95.95 0 0 0-.18-.07l-.01-.01.01-.03h.01l.02.01h.01l.03.01.14.01c.1 0 .22-.02.3-.09l.19-.2.03.03Zm-.16.35Zm.49.26v.02h.06l-.06-.03v.01Zm2.51.43.12.15.02.09v.07l-.02.05-.02.04-.05.05-.09.03c0 .02.02.03.03.05 0 .02.02.03.05.05l.08.06.16.1.04.02a.14.14 0 0 0 .02 0v.03l-.13.05a.33.33 0 0 1-.18-.07 1.03 1.03 0 0 1-.24-.21l-.02-.02a2.03 2.03 0 0 1-.2-.02c-.08 0-.13-.05-.17-.1a.29.29 0 0 0-.06-.08.25.25 0 0 1-.03-.07v-.09l.01-.05v-.02h.03v-.02l.03.02.07.08c.02.04.04.08.08.1.04.02.1.04.2.04h.07c.1 0 .16-.08.18-.18a.2.2 0 0 0 .02-.07.33.33 0 0 0 0-.03m-.65.06v-.02h-.02v.02h.02Zm.65-.06v-.05.05Zm-.64.09a1.21 1.21 0 0 0-.02.1v.04l.02.04.07.08c.04.05.08.08.13.08a10 10 0 0 0 .21.02H30v.01a1.57 1.57 0 0 0 .26.23c.05.04.1.06.16.06l.07-.02h-.01a1.58 1.58 0 0 1-.25-.17.31.31 0 0 1-.06-.06.68.68 0 0 0-.03-.05h-.02v-.02h.02-.02v-.02h.02l.1-.04.04-.04.02-.04.02-.04v-.06l-.02-.08-.06-.07c0 .02 0 .05-.02.07-.02.1-.09.2-.21.2h-.06a.42.42 0 0 1-.23-.04.26.26 0 0 1-.1-.11.42.42 0 0 0-.05-.07Zm-.77.01.06-.01h.01l.04.05.03.06.04.05.02.01.04.05c.05.03.09.03.13.02h.07c.02 0 .05 0 .07.02.02.03.02.06.01.09 0 .02-.03.04-.06.05a.42.42 0 0 1-.23 0 .5.5 0 0 1-.31-.3h.01-.01v-.02l-.01-.01v-.01l.02-.02.06-.02h.01Zm-.05.09v-.02a.67.67 0 0 0 .07-.04h.04l.02.03.03.06.05.05.01.02a.2.2 0 0 0 .06.05c.05.03.1.03.15.03H29.24a.1.1 0 0 1 .04 0c.02.03.02.04.01.06l-.04.03a.39.39 0 0 1-.2 0 .46.46 0 0 1-.3-.27Zm-.02-.02Zm3.77.2-.17.01h-.2a5.35 5.35 0 0 0-.3.02.36.36 0 0 0-.1.08 1.12 1.12 0 0 0-.18.25l-.03.04v.01l-.01.02-.04.04a.59.59 0 0 1-.2.1 3.8 3.8 0 0 1-.87.03.33.33 0 0 1 .01-.02.02.02 0 0 1-.02 0v.01h.01a1.1 1.1 0 0 0-.02.1h-.02v.01h.01v-.01l.1.02v.02-.02a6.4 6.4 0 0 0 .85-.07.74.74 0 0 0 .1-.04.22.22 0 0 0 .07-.04c.08-.06.15-.15.21-.24l.02-.02.1-.12c.03-.03.06-.05.1-.05v.01-.01a3.59 3.59 0 0 1 .66-.05 1.56 1.56 0 0 1 .35.1.3.3 0 0 1 .08.06l-.02.01.02-.01.03.04v.05c0 .03-.03.06-.05.08h-.02.01a.21.21 0 0 1-.14.09l-.15-.01h-.02a23.12 23.12 0 0 1-.2-.05v-.02h-.02v-.01h.05l.02.01.15.03v.02V39h.02l.15.02c.04 0 .08-.03.12-.08a.18.18 0 0 0 .05-.07v-.03l-.02-.02a.27.27 0 0 0-.08-.05 1.52 1.52 0 0 0-.33-.1v-.02.02a7.38 7.38 0 0 0-.66.04c-.03 0-.05.02-.08.05l-.1.11-.01.02c-.06.09-.14.19-.22.25v-.02.02a.25.25 0 0 1-.07.04 2.07 2.07 0 0 1-.4.09h-.01c-.24.02-.48.02-.57.02l-.12-.02v-.05a2.6 2.6 0 0 1 .05-.12h.02v.02h.02l.08.01a2.92 2.92 0 0 0 .75-.04c.1-.03.15-.07.19-.1a.24.24 0 0 0 .04-.04h.01-.01v-.02a1.65 1.65 0 0 1 .21-.29.4.4 0 0 1 .12-.1.9.9 0 0 1 .26-.01h.25m-.84.41.01.01m.52.3v.02h.01l-.01.1h.03l.14.02h.15v.01-.01a.24.24 0 0 0 .1-.1.55.55 0 0 0 .08-.16h.02v.01h.01a.57.57 0 0 1-.08.17l-.02-.01h.02a.28.28 0 0 1-.12.12h-.16v-.02.02l-.15-.01-.04-.02-.02-.01v-.02H32l-.01-.01.02-.12h.02m1.13-.38c0 .04-.02.1-.06.16a.34.34 0 0 1-.14.13.79.79 0 0 1-.26.02 2.01 2.01 0 0 1-.15-.02v-.01h-.03m.43-.02a.3.3 0 0 0 .12-.12.3.3 0 0 0 .06-.15c0-.06-.02-.1-.09-.15a.8.8 0 0 0-.25-.1l-.29-.03m.45.55a.76.76 0 0 1-.25.01 2.08 2.08 0 0 1-.15-.01h-.02v.01m.63-.27h-.01.01Zm-.83.44a.17.17 0 0 0 .07-.07.95.95 0 0 0 .07-.23h-.02v-.03h-.01v.01a.07.07 0 0 0 0 .01.6.6 0 0 1-.03.13.5.5 0 0 1-.04.1.13.13 0 0 1-.05.05c-.05.03-.12.03-.18.01a.63.63 0 0 1-.1-.03h-.01v.04h.02l.08.02c.06.02.14.03.2-.01Zm0 0v-.01.01Z"/><path d="m33.4 39-.02.25c0 .09-.06.11-.1.13-.05.05-.05 0-.05.05l-.04.13-.02.06-.05.04-.04.04-.06.03-.09.02s-.02.2-.17.3l-.11.04c-.09.02-.22-.02-.3-.08-.13-.07-.2-.18-.2-.18l-.15-.02h-.15l-.13-.02h-.15c-.02 0-.26.13-.52.3-.15.09-.35.17-.6.2-.27.04-.5.04-.55.04-.06-.02 0 .1.15.24.13.1.3.19.46.21.26.07.43.02.8.09.1 0 .24.04.32.1.24.18.4.46.33.59-.11.15-.37.08-.37.08s.1.11-.04.22c-.16.1-.46-.09-.46-.07 0 .02-.13-.06-.54-.04-.43 0-2.1-.6-2.14-.62-.02-.03-.26.25-.86.47-.16.04-.35.1-.57.13l-.47.08a4.76 4.76 0 0 1-1.65-.23v-.15a3.93 3.93 0 0 0 2.25.17c.89-.22 1.26-.65 1.26-.65s1.51.54 1.86.6c.34.05.9.07.9.1-.02 0 .29.14.37.06.09-.07-.08-.22-.06-.22.02.02.1.07.21.04.3-.08.07-.32-.08-.43-.09-.08-.3-.1-.7-.13a1.35 1.35 0 0 1-.87-.26 2.42 2.42 0 0 1-.54-.71c.01 0 .07.07.18.14l.09.02c.06.02.2.04.37.04.2 0 .45-.04.58-.09.24-.08.78-.43.78-.43l.13-.02h.1c.14.02.33.04.46.07.07 0 .09.02.09.02s.1.15.2.2c.06.01.14.03.23.01.09-.04.15-.21.15-.21s-.17-.02-.3-.13a.98.98 0 0 1-.2-.22l.11-.06.02.04.09.1.1.1.1.04c.08.02.12.04.25 0 .1-.05.1-.22.1-.22s0 .02-.25-.06a1.02 1.02 0 0 1-.32-.15l.02-.09.17.04.13.07.07.02c.06.02.08.04.15.04.15.03.24-.04.22-.19 0-.06-.18-.1-.18-.1l.07-.16.24.2V39Zm-8.54.25c.22.05.4.05.59.05.2 0 .37-.02.52-.09.37-.17.54-.5.52-.52l-.11-.08s-.11.34-.54.47c-.11.02-.24.07-.41.07-.2 0-.38-.02-.57-.05v.15Zm0 2.33a4.74 4.74 0 0 1-2.27-1.53 2.48 2.48 0 0 1-.51-1.2c-.05-.35-.03-.7.02-1 .08-.47.28-.83.43-1 .17-.16.39-.33.6-.42.52-.23 1.1-.21 1.48.26.15.22.23.5.21.76a2.28 2.28 0 0 1-.37 1.14c-.06.13-.15.28-.2.32l-.12-.06c.02-.07.09-.18.17-.3.05-.07.11-.18.13-.26.2-.37.33-.78.2-1.2a.86.86 0 0 0-.4-.53.97.97 0 0 0-.68-.1c-.3.04-.59.2-.8.38-.57.54-.54 1.32-.54 1.79.02.26.08.82.5 1.36a4.61 4.61 0 0 0 2.16 1.44v.15Zm0-2.48c-.69-.12-1.65-.66-1.49-1.48.02-.15.11-.28.18-.37.15-.2.4-.17.45.09.04.28.02.39-.07.58-.1.2-.39.46-.4.46l.12.12c.03 0 .11-.09.22-.21.04-.09.1-.16.15-.24a1 1 0 0 0 .15-.5.6.6 0 0 0-.06-.36c-.04-.09-.13-.17-.22-.2a.27.27 0 0 0-.28.03c-.2.1-.34.32-.37.56-.08.43.02.75.3 1.05l.24.2c.3.19.7.34 1.08.42v-.15Z"/><path d="m33.4 36.87.3-.56.92-.4.02.96-1.17 1.52.32.22-.32.51-.06-.06v-.13.02l.19-.3-.2-.15v-.22l1.09-1.46.02-.66c0-.05-.7.27-.7.27l-.4.7v-.27Zm-.88 1.67h-.2l.07-.1-.26-.2.3-.47.35.2.63-1.1v.25l-.55.9.5.3-.08.12-.8-.5-.18.28 1.1.71v.13c-.08-.06-.25-.2-.43-.3a1.4 1.4 0 0 0-.45-.22Zm.89-.25-.11.15.1.06v-.21Z"/><path d="M28 41.15c-.1 0-.43-.11-.43-.09-.02.02.24.22.34.2.11 0-.1.08-.23.1-.13.05-.54-.15-.54-.15s.08.22.23.24c.13.02-.23.08-.2.1l-.25-.02c-.07 0-.13 0-.15-.02a.94.94 0 0 1-.3-.17c-.05-.04.04.22.17.26l.1.02-.4.02s-.11 0-.22-.04c-.07-.02-.13-.04-.17-.07a6.66 6.66 0 0 1-.29-.23s.03.17.1.26c.03.08.01.06.01.06l-.28-.1a.62.62 0 0 1-.21-.14c-.1-.06-.13-.15-.18-.19-.08-.1-.08-.13-.08-.13v.09l.02.15.04.15.07.06c.06.07-.2-.04-.46-.21-.24-.2-.4-.41-.43-.48 0 0 0 .16.04.26.05.13.11.17.11.17s-.2-.06-.26-.12c-.06-.05-.3-.26-.37-.37l-.17-.32s0 .3.06.36c.05.09.1.11.1.11s-.35-.24-.44-.37c-.09-.15-.17-.34-.17-.34l.02.17.02.15.43.39.65.32.82.33.76.13.62.02.57-.09.7-.17.5-.37c.07-.02-.14.05-.25.07Zm2.79-.33c-.09-.04.47-.23.8-.17.34.09.41.43.39.45-.09.2-.09.18-.2 0-.02-.02.03-.06 0-.1-.1-.2-.26-.22-.4-.2-.12 0-.2.05-.29.05l-.3-.03Zm2.25-2.69c0 .05.65-.75.65-.75l-.48.86s-.17-.13-.17-.1ZM37.8 42.57v-.43c.28-.22.56-.48.82-.71.43-.46.73-.9.77-1.08l-.28-.5v.03c-.52-.76-.95-1.62-1.32-2.56v-1.14a13.11 13.11 0 0 0 2 4.04c.06.09-.22.67-.53 1.03-.41.52-.9.96-1.47 1.32Zm0-16.64v-1c.4-1.08.92-2.05 1.53-2.89l-1.54-.95v-.4l1.93 1.24c-.8 1.1-1.47 2.46-1.93 4Zm0-11.53v-.88l.19-.41-.2-.09v-.43c.37.15.74.35 1.1.52l.6-1.16s-.68-.39-1.07-.56c-.2-.09-.41-.2-.63-.28v-.41c.76.28 1.5.62 2.21 1.1l-.9 1.83-.03-.03s-.26-.15-.73-.38l-.55 1.18Zm-1.43 2.73c.06.13.24.26.04.43-.15.16-.35 0-.52-.08-.24-.14-.5-.26-.76-.37v.39c.24.1.46.21.67.34l-.08.2-.3-.37-.29.07v.19l.22-.04.3.36-.23.56-.29.05v.21l.18-.02-.07.17-.1-.06v.75c.12-.09.25-.17.38-.24l2.27 1.42v-.4l-2.18-1.4.56-1.3c.6.2 1.04-.75.48-1.1l1.14-2.49v-.88l-1.49 3.16a10.17 10.17 0 0 0-1.17-.56v.39c.46.2.87.39 1.24.62Zm1.42-6.43v.4c-.67-.23-1.3-.42-1.2-.38l-.5 1.18c.6.22 1.16.44 1.7.7v.42c-.3-.13-.64-.28-1.03-.43l-.57 1.25-.15.39c-.08-.07-.17-.1-.47-.22l-.44-.17v-.39c.22.09.46.15.68.24l.54-1.25-.78-.3.78-1.9c.5.14.97.29 1.44.46Zm0 14.22v1.01a17.6 17.6 0 0 0-.73 5.15c0 1.83.26 3.55.73 5.1v1.14a16.7 16.7 0 0 1-1.1-6.16c0-2.3.4-4.43 1.1-6.24Zm0 17.22v.43c-.8.54-1.7.88-2.66 1.16v-.39c.59-.17 1.15-.39 1.71-.62.34-.16.66-.35.95-.58Zm-2.66-.11c1.02-.39 1.93-.93 2.43-1.96a14.75 14.75 0 0 1-2.12-7.34h-.3v.24h.08c.02 1.94.48 3.85 1.3 5.6.21.49.45 1.03.71 1.48-.17.37-.37.6-.65.86-.4.37-.9.62-1.45.84v.28Zm0-10.75v-2.96c.18-1.31.5-2.6.98-3.8.3-.76.62-1.43 1-1.92l-1.98-1.25v-.3l2.3 1.46c-1.1 1.53-1.93 4.07-2.14 7.02-.05.64-.05 1.13-.03 1.75h-.13Zm0-12.75v-.36c.03 0 .07 0 .1.02.2.08.1.36-.1.34Zm0-1.42a.16.16 0 0 0-.08-.04v.39l.08.04v-.39Zm-.08-.64.08.04v-.39a.16.16 0 0 0-.08-.04v.39Zm.08-3.02v.4l-.08-.03v-.39l.08.02Zm0 4.29v.19h-.08v-.2h.08Zm0 .43v.36h-.06c0-.02-.02-.02-.02-.02v-.3c.02-.02.04-.04.09-.04Zm0 .69v.21h-.08v-.2l.08-.01Zm0 .3v.75a.16.16 0 0 0-.08.04v-.38c.02-.03.04-.03.06-.05l-.06-.04v-.37c.02.03.05.04.08.05Zm0 1.89v.3l-.06-.04c-.02 0-.02 0-.02.02v-.26l.06-.04.02.02Zm0 7.27v2.96h-.08V29.3c.02-.32.04-.64.09-.97Zm0 4.41v.24h-.08v-.24h.08Zm0 9.02v.28l-.08.02v-.26l.08-.04Zm0 1.6v.38c-.02.02-.06.02-.08.02v-.39l.09-.02Zm-.08-33.4v-.11h.02l-.02.1Zm0 7.12a14.92 14.92 0 0 0-3.27-.97v.35c1.15.21 2.25.53 3.27 1v-.38Zm-3.27-1.55v-.37c1.21.22 2.32.52 3.27.93v.39c-.95-.41-2.06-.73-3.27-.95Zm3.27-5.68v.1l-.56 1.9c-.24-.05-.48-.1-.72-.13l-.3 1.25c.56.15 1.06.3 1.58.47v.39c-.24-.09-.5-.2-.8-.26l-1.2-.3.36-1.63c-.5-.11-.98-.18-1.43-.24l-.2 1.05v-1.48c.85.13 1.65.26 2.45.43l.3-1.27a15.42 15.42 0 0 0-2.75-.52v-.4l.37.04.97.15 1.04.21.89.24Zm0 7.9v.19l-.72.13.65.82h.07v.2h-.09c.02.01.05.03.09.03v.37c-.93-.45-2.03-.84-3.27-1.12v-.32c1.15.23 2.19.56 3.07.99l-.84-1.12 1.04-.17Zm0 .47a.2.2 0 0 0-.06.23.2.2 0 0 0 .06.07v-.3Zm0 1.36-.6.3c-.79-.37-1.67-.67-2.67-.89v.33c.78.17 1.54.43 2.25.73-.72.3-1.48.53-2.25.69v.34c.33-.06.65-.15.93-.24a12.6 12.6 0 0 0 2.34-.88v-.38Zm0 1.5v.26c-.89.39-2 .75-3.27 1.01v-.26c1.26-.23 2.36-.58 3.27-1Zm0 8.22v2h-3.27v-.27h3.23c-.03-.62-.03-1.08.04-1.73Zm0 3.44v.24h-3.27v-.24h3.27Zm0 9.06v.26c-.89.32-1.84.5-2.66.75-.2.07-.39.13-.6.22v-.26l.45-.15c.86-.28 1.88-.47 2.8-.82Zm0 1.57v.39c-.37.1-.74.2-1.1.28-.74.18-1.46.4-2.17.67v-.37c.46-.17.93-.34 1.45-.47.6-.15 1.21-.3 1.82-.5ZM31.78 18v-.19l.87-.36-.74-.7-.13.05v-.2l.15-.06 1.02.95-1.17.51Zm0-.55v-.37h.07c.24.04.17.39-.07.37Zm0-1.34a13 13 0 0 0-1.36-.2v.33c.46.04.9.1 1.36.22v-.35Zm-1.36-.8c.48.07.93.13 1.36.22v-.37c-.45-.08-.9-.15-1.36-.19v.34Zm1.36-6.1v.4l-.26-.02-.15 1.31.41.07v1.48l-.08.52-1.28-.2v-.38l.95.1.2-1.16c-.33-.04-.5-.06-.56-.08l.19-2.09.58.04Zm0 7.4v.19l-.84.34.82.7.02-.03v.2l-.06.02c.02.02.04.02.06.02v.32c-.43-.09-.88-.17-1.36-.21v-.33c.44.04.87.1 1.3.2l-1.13-.95 1.2-.47Zm0 .47c-.2 0-.23.32 0 .37v-.37Zm0 1.91v.33c-.45-.11-.9-.2-1.36-.26v-.3c.48.06.93.13 1.36.23Zm0 1.75v.34c-.45.1-.9.17-1.36.24v-.37c.48-.04.93-.13 1.36-.21Zm0 1.35v.26c-.43.09-.88.15-1.36.22v-.26c.48-.07.93-.13 1.36-.22Zm0 8.94v.26h-1.36v-.26h.28v-.35h-.28v-.15h.28v-.65h-.28v-.39c.15.11.43.2.58.28v1.26h.78Zm0 1.71v.24h-1.36v-.24h1.36Zm0 10.03v.26c-.46.15-.92.33-1.36.54v-.28c.41-.15.87-.35 1.36-.52Zm0 1.57v.37c-.46.18-.92.39-1.36.62v-.4c.3-.14.6-.29.93-.4.15-.06.3-.12.43-.19Zm-1.36-28.42c-.1-.02-.2-.02-.3-.05v.33l.3.04v-.32Zm-.3-.63.3.03v-.35l-.3-.04v.36Zm.3-2.9v.39l-.3-.03v-.4h.09l.21.04Zm0 5.44v.33c-.1-.03-.2-.03-.3-.05v-.32l.3.04Zm0 .93v.3c-.1-.02-.2-.04-.3-.04v-.3l.3.04Zm0 2.2v.36c-.1 0-.2.02-.3.04V21c.1 0 .2-.03.3-.05Zm0 1.35v.26l-.3.04v-.28l.3-.02Zm0 7.18v.22c-.1-.09-.21-.15-.3-.24v-.21c.09.08.2.17.3.23Zm0 .22v.17h-.28v.65h.28v.15h-.3v-.97h.3Zm0 1.32v.26h-.3v-.26h.3Zm0 1.71v.24h-.3v-.24h.3Zm0 10.55v.28c-.1.04-.21.08-.3.13v-.26c.09-.07.2-.11.3-.15Zm0 1.63v.41c-.1.07-.21.1-.3.17v-.4c.09-.07.2-.11.3-.18Zm-.3-29.05-.89-.06v.32l.89.07v-.33Zm-.89-.64c.3 0 .59.02.89.06v-.36l-.89-.07v.37Zm.89-2.88v.4c-.3-.04-.6-.06-.89-.06v-.39l.89.05Zm0 5.44v.32c-.3-.02-.59-.06-.89-.06v-.32l.89.06Zm0 .92v.3l-.89-.08v-.28c.3 0 .59.04.89.06Zm0 2.29v.36l-.89.07v-.35l.89-.08Zm0 1.33v.28l-.89.06v-.25c.3-.02.6-.05.89-.09Zm0 6.93v.21a2.18 2.18 0 0 1-.46-.43h-.4v.67h.86v.97h-.6v.35h.6v.26h-.89v-.26h.13v-.35h-.13v-.15H30v-.65h-.76v-1h.3c-.12-.18-.21-.35-.3-.5v-.5c.11.47.4.95.89 1.38Zm0 3.48v.24h-.89v-.24h.89Zm0 10.7v.26c-.3.15-.6.3-.89.5v-.33c.05-.02.07-.05.09-.07.2-.08.45-.23.8-.36Zm0 1.65v.41c-.35.2-.63.37-.89.54v-.4c.26-.18.56-.37.89-.55Zm-.89-17.7v-.15h.4v-1.25h-.4v-.39c.05.06.09.15.17.22h-.02.4v1.57h-.55Zm0-2.07v-.3c.15-.15.3-.3.33-.45.04-.28-.11-.45-.33-.52v-.17c.24.06.43.21.5.54.06.36-.37.62-.5.9Zm0-8.41v-.02l.02.02h-.02Zm0-5.75v-.4c.13 0 .24 0 .37.02l-.02-1.34-.35-.02v-.37l.76.03c0 .7 0 1.46-.02 2.1l-.74-.02Zm0 4.65-.6-.02v.32l.6.02v-.32Zm-.6-.6c.21 0 .4 0 .6.02v-.37l-.6-.02v.37Zm.6-6.16v.37h-.6v-.39l.6.02Zm0 1.7v.41h-.15v1.14h.15v.39l-.54-.02v-1.53h-.06v-.4l.6.01Zm0 6.14v.02l-.6.43v-.22l.32-.21-.32-.22v-.2l.6.4Zm0 .84v.32c-.2-.02-.39-.02-.6-.02v-.33c.21 0 .4.03.6.03Zm0 .92v.28c-.2-.02-.39-.02-.6-.02v-.3l.6.04Zm0 2.43v.35l-.6.04v-.37l.6-.02Zm0 1.34v.25c-.2.03-.39.03-.6.05v-.28l.6-.02Zm0 1.46v.17a.96.96 0 0 0-.5 0c-.04 0-.06 0-.1.02v-.17c.2-.04.4-.06.6-.02Zm0 1.14v.3a.32.32 0 0 0 0 .28v.39h-.37v.51h-.23v-.68h.54c-.05-.07-.26-.11-.54-.13v-.22c.06 0 .1-.02.13-.04.23-.1.15-.63.06-.63l-.13.03c-.06 0 .46-.41.05-.41h-.11v-.15c.3-.07.6.17.32.47l.07.09c.1.23.08.56-.11.7.04.03.1.03.13.03-.05-.22.06-.39.2-.54Zm0 2.22v.15h-.06c0 .17.02.32.06.5v.49l-.08-.22h-.37v.71h.45v1.01h-.15c.04.22.02.43.02.65h.13v.15h-.13v.35h.13v.26h-.6v-.26h.28v-.14h-.28v-.17h.28v-.5l-.28.11v-.15l.28-.13a.8.8 0 0 0-.26-.55l-.02.02v-.28c.17.1.32.25.39.47h.08v-.67h-.47V28h.47c-.08-.28-.1-.5-.1-.62h-.37v-.15h.6Zm0 5.5v.24h-.6v-.24h.6Zm0 11.13v.32c-.2.1-.4.26-.6.39v-.28c.2-.15.39-.3.6-.43Zm0 1.76v.41c-.24.17-.43.35-.6.48v-.43c.17-.13.36-.29.6-.46Zm-.6-29.84h-.2v.32h.2v-.32Zm-.2-.6.2.02v-.37h-.2v.35Zm.2-6.16v.39h-.2V9l.2.02Zm0 1.7v.41h-.2v-.4h.2Zm0 5.77v.2l-.2-.12v-.21l.2.13Zm0 .62v.22l-.2.13v-.22l.2-.13Zm0 .58v.33c-.07 0-.13-.03-.2-.03v-.3h.2Zm0 .9v.3a.6.6 0 0 0-.2-.01v-.28h.2Zm0 2.5v.37h-.2v-.37h.2Zm0 1.34v.28h-.2v-.28h.2Zm0 1.46v.17a.63.63 0 0 0-.2.05v-.16l.2-.06Zm0 .37v.15c-.13.04-.2.13-.18.3 0 .08.03.15.03.15l-.05.04v-.58a.35.35 0 0 1 .2-.06Zm0 1.2v.22a.6.6 0 0 0-.2-.03v-.17c.07 0 .13 0 .2-.02Zm0 .35v.68h-.2v-.68h.2Zm0 1.42v.15h-.2v-.15h.2Zm0 .77v1.03h-.2v-.17h.2v-.71h-.2V28h.2Zm0 1.23v.28l-.2.32v-.3l.09-.15c-.02-.02-.04-.05-.09-.05v-.21c.07.02.13.06.2.1Zm0 .94v.15l-.2.09v-.15l.2-.09Zm0 .54v.17h-.2v-.17h.2Zm0 .31v.26h-.2v-.26h.2Zm0 1.71v.24h-.2v-.24h.2Zm0 11.56v.28c-.06.06-.13.1-.2.15v-.3l.2-.13Zm0 1.79v.43l-.2.17v-.43l.2-.17Zm-.2-30.3h-.13v.32h.13v-.32Zm-.13-.6h.13v-.35h-.13v.35ZM28.43 9v.4l-.13-.01V9h.13Zm0 1.72v.41h-.13v-.4h.13Zm0 5.64v.21l-.13-.1v-.2l.13.09Zm0 .88v.22l-.13.08v-.2l.13-.1Zm0 .45v.3h-.13v-.3h.13Zm0 .9v.29h-.13v-.28h.13Zm0 3.84v.28h-.13v-.28h.13Zm0 1.52v.16l-.13.06v-.58c.11.08.15.21.13.36Zm0 .37v.58c-.02.04-.08.1-.13.2v-.59c0-.04.05-.1.09-.15l.04-.04Zm0 1.16v.17h-.13v-.21c.05.02.09.04.13.04Zm0 .33v.68h-.02v-.51h-.1v-.17h.12Zm0 1.42v.15h-.13v-.15h.13Zm0 .77v.15h-.13V28h.13Zm0 .86v.17h-.13v-.17h.13Zm0 .26v.21l-.13-.06v-.2c.05.03.09.03.13.05Zm0 .4v.3l-.08.14c.06.1.08.2.08.3v1.02h-.13v-1.54l.13-.21Zm0 3.21v.24h-.13v-.24h.13Zm0 11.69v.3l-.13.1v-.3l.13-.1Zm0 1.83v.43l-.13.13v-.46l.13-.1Zm-.13-30.47H28v.32h.3v-.32Zm-.3-.6h.3v-.35H28v.35ZM28.3 9v.39H28V9h.3Zm0 1.72v.41H28v-.4h.3Zm0 5.55v.2l-.2-.11-.1.06v-.23l.09-.05.21.13Zm0 1.08v.2l-.15.1-.15-.09v-.19l.15.06.15-.08Zm0 .34v.3H28v-.3h.3Zm0 .9v.29H28v-.28h.3Zm.13 2.5v.37H28v-.35c.09 0 .35 0 .43-.02Zm-.13 1.34v.28H28v-.28h.3Zm0 1.16v.58c-.15.06-.26.1-.3.13v-.2c.04 0 .1-.04.26-.08.09-.26-.09-.37-.26-.39v-.73h.09v.17h.13v.15h-.13v.26c.08.02.15.04.21.1Zm0 .92v.26a.5.5 0 0 1 0-.26Zm0 .33v.26a.45.45 0 0 0-.06.1c-.07.13-.02.22.06.24v.21c-.1-.02-.2-.02-.3-.02v-.15c.03.02.06.03.09.02-.15-.21.15-.64.21-.66Zm0 .97v.17H28v-.17h.3Zm0 1.42v.15h-.24V28h.24v.15H28v-.92h.3Zm0 1.63v.17H28v-.17h.3Zm0 .22v.19a.78.78 0 0 0-.24-.04v.58c.07.02.11.02.18.06l.06-.13v.48a.3.3 0 0 0-.3-.26v-.93c.1 0 .2.02.3.05Zm0 1.96v.24H28v-.24h.3Zm0 1.7v.23H28v-.24h.3Zm0 11.79v.3l-.17.15c-.04-.05-.09-.07-.13-.11v-.28c.04.02.09.04.1.06l.2-.12Zm0 1.82v.46c-.13.13-.17.19-.17.19l-.13-.09v-.47l.1.1.2-.19Zm-.3-21.6v-.32l.17.15-.17.17Zm0-7.72v-.33c.04-.02.06-.02.1-.02.25 0 .25.37 0 .37-.04 0-.06 0-.1-.02Zm0-1.25h-.3v.32h.3v-.32Zm-.3-.58c.1-.02.21-.02.3-.02v-.35h-.3v.37ZM28 9v.39l-.3.02V9h.3Zm0 1.72v.41h-.3v-.4h.3Zm0 5.47v.23l-.3.18v-.22l.3-.2Zm0 .84v-.33c-.1.07-.1.26 0 .33Zm0 .34v.2l-.3-.2v-.2l.3.2Zm0 .32v.3l-.3.03v-.33h.3Zm0 .9v.29c-.09 0-.2 0-.3.02v-.28c.1-.02.21-.02.3-.02Zm0 2.52v.35h-.3v-.35h.3Zm0 1.32v.28h-.3v-.28h.3Zm0 .47v.73c-.17 0-.37.13-.26.39.17.06.22.09.26.09v.19l-.3-.13v-.6a.65.65 0 0 1 .21-.09v-.26h-.15v-.15h.15v-.17H28Zm0 1.53v.32l-.17-.17.17-.15Zm0 1.05v.15c-.09 0-.2 0-.3.02v-.21c.08-.04.1-.1.04-.24 0-.04-.02-.06-.04-.08v-.28c.08.08.32.45.2.64h.1Zm0 .33v.17h-.3v-.17h.3Zm0 1.42v.92h-.3V28h.21v-.62h-.21v-.15h.3Zm0 1.63v.17h-.3v-.17h.3Zm0 .17v.93c-.15 0-.28.13-.28.3v.78H28v.24h-.3v-1.56l.08.13.13-.04v-.58a.77.77 0 0 0-.21.04v-.2c.1-.02.21-.04.3-.04Zm0 3.7v.24h-.3v-.24h.3Zm0 11.86v.28l-.3-.22v-.28c.1.07.21.13.3.22Zm0 1.85v.47l-.3-.25v-.48l.3.26Zm-.3-30.66h-.13v.32h.13v-.32Zm-.13-.58h.13v-.37h-.13v.37ZM27.7 9v.4h-.13v-.38c.04 0 .08 0 .13-.02Zm0 1.72v.41h-.13v-.4h.13Zm0 5.66v.22l-.13.08v-.21l.13-.09Zm0 .8v.2l-.13-.07v-.2l.13.07Zm0 .51v.33h-.13v-.33h.13Zm0 .93v.28h-.13v-.28h.13Zm0 2.5c-.05-.03.04 0 0 0Zm0 1.3v.29h-.13v-.28h.13Zm0 1.15v.6a.3.3 0 0 0-.13-.04v-.39a.52.52 0 0 1 .13-.17Zm0 1.27v.28c-.05-.09-.09-.13-.13-.18v-.6c.02 0 .02.02.02.02.17.15.09.48.09.48 0-.02.02 0 .02 0Zm0 .6v.21h-.13v-.17c.06-.02.1-.02.13-.04Zm0 .37v.17h-.11v.51h-.02v-.68h.13Zm0 1.42v.15h-.13v-.15h.13Zm0 .77v.15h-.13V28h.13Zm0 .86v.17h-.13v-.17h.13Zm0 .22v.19l-.13.06v-.21c.04 0 .08-.02.13-.04Zm0 .64v1.56h-.13v-1.04c0-.1.02-.2.1-.28l-.1-.13v-.3l.13.2Zm0 3.01v.24h-.13v-.24h.13Zm0 11.64v.28l-.13-.08v-.28l.13.08Zm0 1.81v.48l-.13-.09v-.47l.13.08Zm-.13-30.4h-.2v.32h.2v-.32Zm-.2-.58h.2v-.37c-.07 0-.13 0-.2.02v.35Zm.2-6.18v.39h-.2v-.39h.2Zm0 1.7v.41h-.15v1.57h-.05v-1.98h.2Zm0 5.75v.21l-.2.13v-.24l.2-.1Zm0 .64v.2l-.2-.11v-.22l.2.13Zm0 .58v.33h-.2v-.3c.07 0 .13-.03.2-.03Zm0 .93v.28h-.2v-.28h.2Zm0 3.8v.29h-.2v-.28h.2Zm0 1.32v.39l-.2-.07v-.15c.07 0 .13.02.2.05a.37.37 0 0 1 0-.22Zm0 .6v.6a.63.63 0 0 0-.07-.08l.05-.15c.02-.15-.05-.26-.18-.28v-.17a.27.27 0 0 1 .2.08Zm0 1.14v.17c-.07 0-.13 0-.2.03v-.22c.07.02.13.02.2.02Zm0 .33v.68h-.2v-.68h.2Zm0 1.42v.15h-.2v-.15h.2Zm0 .77v.15h-.2V28h.2Zm0 .86v.17h-.2v-.17h.2Zm0 .26v.21a.16.16 0 0 0-.09.05l.09.15v.3l-.2-.3v-.3c.07-.05.13-.07.2-.11Zm0 1.12v.17l-.2-.07v-.17l.2.07Zm0 .47v.17h-.2v-.17h.2Zm0 .3v.27h-.2v-.26h.2V31Zm0 1.72v.24h-.2v-.24h.2Zm0 11.56v.28l-.2-.13v-.28l.2.13Zm0 1.8v.48c-.05-.07-.13-.1-.2-.15v-.47c.07.04.13.1.2.15Zm-.2-30.31c-.08.02-.2.02-.28.02v.32c.09 0 .2 0 .28-.02v-.32Zm-.28-.56c.09-.02.2-.02.28-.02v-.35h-.28v.37Zm.28-6.2v.39l-.28.02v-.4h.28Zm0 1.7v1.98c-.08 0-.2 0-.28.02v-2h.28Zm0 5.85v.24l-.15.09.15.08v.22l-.28-.2v-.23l.28-.2Zm0 1.14v.3c-.08.03-.2.03-.28.03v-.32h.28Zm0 .9v.29l-.28.02v-.28l.28-.02Zm.33 2.5v.35h-.6v-.37l.6.02Zm-.33 1.32v.28h-.28v-.28h.28Zm0 1.48v.15c-.09-.02-.18-.04-.28-.04v-.17c.09.02.2.02.28.06Zm0 .35v.17c-.02-.02-.06-.02-.13-.02-.4 0 .11.4.05.4l-.13-.02c-.03 0-.07.09-.07.18v-.7c.09-.04.17-.04.28-.01Zm0 1.2v.22c-.1 0-.19.01-.28.04v-.54c0 .1.04.2.13.24.04.02.09.04.15.04Zm0 .35v.68h-.23v-.51h-.05v-.17h.28Zm0 1.42v.15h-.28v-.15h.28Zm0 .77v1.03h-.28v-.17h.13v-.7h-.13V28h.28Zm0 1.23v.3l-.02-.05a.81.81 0 0 0-.26.59l.28.1v.17l-.28-.12v.5h.28v.16h-.28v.14h.28v.26h-.28v-1.75c.07-.13.17-.22.28-.3Zm0 3.5v.24h-.28v-.24h.28Zm0 11.43v.28c-.1-.05-.19-.1-.28-.17v-.28c.09.04.2.1.28.17Zm0 1.79v.47c-.08-.09-.2-.15-.28-.24v-.45l.28.22ZM27.1 15.8h-.06v.32h.06v-.32Zm-.06-.58h.06v-.37h-.06v.37Zm.06-6.2v.41h-.06v-.39c.02 0 .04 0 .06-.02Zm0 1.7v2h-.06v-.38h.02l-.02-1.19v-.43h.06Zm0 6.05V17l-.06-.02v-.17l.06-.04Zm0 .95v.32h-.06v-.32h.06Zm0 .92v.28h-.06v-.28h.06Zm0 3.79v.28c-.02-.02-.04-.02-.06-.02v-.26h.06Zm0 1.42v.17c-.02-.02-.04-.02-.06-.02v-.15h.06Zm0 .43v.69a.36.36 0 0 0 0 .21v.35c-.02 0-.04-.03-.06-.07v-1.14l.06-.04Zm0 1.27v.17h-.06v-.17h.06Zm0 .26v.17h-.06v-.17h.06Zm0 1.42v.15h-.06v-.15h.06Zm0 .77v.15h-.06V28h.06Zm0 .86v.17h-.06v-.17h.06Zm0 .67v1.75h-.06v-1.64c.02-.05.04-.1.06-.11Zm0 3.2v.24h-.06v-.24h.06Zm0 11.26v.28c-.02 0-.04-.02-.06-.05v-.28c.02.03.04.03.06.05Zm0 1.74v.45l-.06-.04v-.45c.02.02.04.04.06.04Zm-.06-29.93-.24.02v.32l.24-.02v-.32Zm-.24-.58h.24v-.37l-.24.02v.35Zm.24-6.18v.4h-.24v-.4h.24Zm0 1.68v.43h-.24v-.43h.24Zm0 1.62v.38h-.24v-.36l.24-.02Zm0 4.47v.17l-.15-.08.15-.09Zm0 .9v.33l-.24.02v-.32c.09 0 .15 0 .24-.02Zm0 .93v.28a.89.89 0 0 1-.24.02v-.28l.24-.02Zm.06 2.45v.37c-.09-.02-.21-.02-.3-.02v-.37c.09 0 .21 0 .3.02Zm-.06 1.34v.26h-.24v-.28c.09 0 .15 0 .24.02Zm0 1.42V24l-.24.02v-.15a.81.81 0 0 1 .24-.02Zm0 .47v.41c-.15-.17-.11-.32 0-.4Zm0 .41v.73l-.07-.08a.3.3 0 0 1 0 .19l.07-.02v.17a.42.42 0 0 0-.18.09h.18v.17h-.24v-.35c.04-.1.02-.19 0-.28v-.28c.06.07.1.13.13.2-.04-.15 0-.3.04-.45.05-.05.07-.07.07-.09Zm0 2.5v.15H27c0 .13-.03.34-.11.62h.13v.15h-.18l-.06.2v-.56c.02-.16.04-.28.04-.41h-.04v-.15h.24Zm0 1.63v.17h-.13v.67h.08c.03-.02.03-.04.05-.06v1.64h-.24v-.26h.13v-.35h-.13v-.15h.13c0-.22-.02-.43.02-.65h-.15v-1h.24Zm0 3.87v.24h-.24v-.24h.24Zm0 11.21v.28l-.05-.02a21.1 21.1 0 0 0-.2-.13v-.25l.22.12h.03Zm0 1.75v.45l-.24-.17v-.43l.24.15Zm-.24-29.87-.89.07v.34c.28-.04.59-.06.89-.09v-.32Zm-.89-.51.89-.1v-.34l-.89.07v.37Zm.89-6.27v.4l-.35.01.02 1.27h.33v.43h-.65l-.09-2.04.74-.07Zm0 3.32v.36l-.89.07v-.37l.89-.06Zm0 5.38v.32c-.3.02-.6.06-.89.09v-.33l.89-.08Zm0 .92v.28a11 11 0 0 0-.89.1v-.3c.28-.01.59-.06.89-.08Zm0 2.41v.37c-.3-.02-.6-.05-.89-.09v-.34l.89.06Zm0 1.34v.28c-.3-.03-.6-.05-.89-.1v-.25l.89.07Zm0 1.46v.15c-.2.06-.32.17-.37.43-.02.2.2.4.37.62v.28c-.13-.3-.58-.58-.52-.96.06-.33.26-.48.52-.52Zm0 1.76v.35h-.43v1.25h.43v.15h-.58V25.8h.45c.06-.07.1-.11.13-.18Zm0 2.16v.55c-.09.16-.17.35-.3.52h.3v1.01H26v.65h.78v.15h-.13v.35h.13v.26h-.89v-.26h.6v-.35h-.6v-.97h.85v-.67h-.4c-.12.15-.27.3-.45.45v-.23c.45-.38.76-.9.89-1.46Zm0 4.94v.24h-.89v-.24h.89Zm0 11.09v.25c-.24-.12-.54-.25-.89-.4v-.26l.89.4Zm0 1.72v.43c-.35-.26-.7-.48-.89-.56v-.37c.26.13.46.24.63.35.09.04.17.1.26.15Zm-.89-29.65-.34.04v.34c.1-.02.21-.04.34-.04v-.34Zm-.34-.54.34-.04v-.37l-.34.04v.37Zm.34-2.93v.37c-.13 0-.23.02-.34.04v-.36l.26-.05h.08Zm0 5.4v.32c-.13.03-.23.05-.34.05v-.32c.1 0 .21-.03.34-.05Zm0 .93v.3l-.34.06v-.3l.34-.06Zm0 2.26v.34c-.13 0-.23-.02-.34-.04v-.35c.1.03.21.03.34.05Zm0 1.33v.26l-.34-.02v-.28l.34.04Zm0 6.9v.24c-.1.07-.21.16-.34.22v-.2c.13-.08.23-.17.34-.25Zm0 .46v.97h-.34v-.15h.28v-.65h-.28v-.17h.34Zm0 1.32v.26h-.34v-.26h.34Zm0 1.71v.24h-.34v-.24h.34Zm0 10.68v.25l-.34-.12v-.24c.13.04.23.09.34.1Zm0 1.63v.37l-.34-.17v-.37c.13.06.23.1.34.17Zm-.34-27.95v-.04h.04l-.04.04Zm0-1.16c-.4.04-.76.1-1.13.17v.37c.37-.09.74-.15 1.13-.2v-.34Zm-1.13-.41c.37-.06.74-.13 1.13-.17v-.37c-.4.05-.76.11-1.13.17v.37Zm1.13-3.05v.36c-.38.04-.76.1-1.13.17v-1.33l.2.92.93-.12Zm0 4.58v.04l-1.04.97-.09-.04v-.24l.05.02.77-.67-.82-.3v-.21l1.13.43Zm0 .82c-.38.06-.76.13-1.13.21v.32c.37-.08.74-.15 1.13-.21v-.32Zm0 .94v.3c-.37.07-.76.13-1.13.24v-.32c.37-.09.74-.17 1.13-.22Zm0 2.15v.35a7.97 7.97 0 0 1-1.13-.17v-.37c.13.02.26.04.41.09l.72.1Zm0 1.34v.28c-.38-.05-.75-.1-1.13-.17v-.26c.37.06.74.1 1.13.15Zm0 7.2v.37h-.28v.65h.28v.15h-.28v.35h.28v.26h-1.13v-.26H25v-1.26c.15-.08.43-.17.56-.25Zm0 3.23v.24h-1.13v-.24h1.13Zm0 10.57v.24c-.35-.13-.72-.28-1.13-.41v-.24a21.25 21.25 0 0 1 1.13.4Zm0 1.57v.37c-.26-.13-.6-.28-1.13-.48v-.39c.48.2.85.37 1.13.5Zm-1.13-27.41h.02c.22-.05.18-.35-.02-.37v.37Zm0-6.11v-.46l.22-.04-.17-1.25c0-.02-.03-.02-.05-.04v-.37l.37-.04.24 2.09c-.17.04-.35.06-.6.1Zm0 4.75c-1.2.22-2.29.54-3.22.95v.43c.9-.43 2.01-.78 3.22-1.01v-.37Zm-3.22.39v-.43a16.62 16.62 0 0 1 3.22-.9v.36c-1.2.24-2.29.56-3.22.97Zm3.22-7.3v.37c-.08 0-.24 0-.4.02-.29.04-2.54.47-2.52.6l.29 1.25c.8-.21 1.66-.4 2.63-.54v.46h-.08l.08.32V13h-.08l-.4-1.61c-.43.06-.84.15-1.2.21l.36 1.64c-.73.2-1.38.39-1.9.58v-.4c.48-.18.97-.35 1.47-.46l-.34-1.27-.7.17h-.04l-.39-1.44v-.56c1.05-.34 2.13-.56 3.22-.67Zm0 7.43v.21l-.13-.04-.69.69.82.3v.24l-1.14-.48.97-.97.17.05Zm0 .47v.37c-.24.04-.3-.33-.06-.37h.06Zm0 1c-1.16.23-2.2.6-3.07 1.02l.82-1.12-.97-.15v.2l.67.1-.65.82-.02-.02v.22l.04.02-.04.02v.37c.89-.48 1.99-.89 3.22-1.17v-.32Zm0 .94v.32c-.74.2-1.47.44-2.18.75.67.26 1.38.5 2.18.67v.37A11.36 11.36 0 0 1 21.21 20v-.37c.2.11.41.21.63.3.75-.36 1.62-.67 2.6-.9Zm0 3.12v.26a15.7 15.7 0 0 1-3.22-.89v-.3c.9.39 2.01.71 3.22.93Zm0 8.87v.26h-3.22v-.26h3.22Zm0 1.71v.24h-3.22v-.24h3.22Zm0 10.16v.24c-.97-.33-2.12-.67-3.22-1.01v-.22c1.08.31 2.15.64 3.22.99Zm0 1.48v.4c-.71-.27-1.73-.61-3.22-.98v-.34l.13.02c.92.21 1.83.46 2.73.75.12.07.23.11.36.15Zm-3.22-25.82v-.21a.2.2 0 0 1 0 .21Zm0-1.5c-.09.04-.17.06-.24.1v.44c.07-.05.15-.07.24-.11v-.43Zm-.24-.45a.8.8 0 0 1 .24-.11v-.43a.81.81 0 0 0-.24.1v.44Zm.24-6.74v.56l-.15-.52a.31.31 0 0 1 .15-.04Zm0 3.55v.41a.8.8 0 0 0-.24.09v-.41c.07-.02.15-.07.24-.09Zm0 4.43v.2l-.24-.05v-.19l.24.04Zm0 .5v.21a.3.3 0 0 1-.09.07c-.06.02-.1.02-.15-.02v-.33H21c.1-.04.18 0 .22.07Zm0 .6v.22l-.24-.03v-.21l.24.02Zm0 .26v.37l-.06.04.06.02V20l-.24-.13v-.54l.24-.13Zm0 2.02v.3a.81.81 0 0 1-.24-.1v-.3l.24.1Zm0 9.8v.26h-.24v-1.6c.02.51.02.85.02 1.34h.22Zm0 1.71v.24h-.24v-.24h.24Zm0 9.17v.22a3.49 3.49 0 0 1-.24-.07v-.21l.24.06Zm0 1.55v.34l-.24-.06v-.37l.24.09Zm-.24-26.3-.2.1v.42l.2-.08v-.43Zm-.2-.47c.07-.04.14-.06.2-.08v-.43l-.2.06v.45Zm.2-3.18v.4l-.2.07v-.4l.2-.07Zm0 4.3v.2l-.13-.03-.06.09v-.28l.2.02Zm0 .8v-.33c-.15.09-.1.26 0 .33Zm0 .32v.21l-.2-.04v-.21l.2.04Zm0 .4v.55c-.06-.05-.13-.07-.2-.11v-.37l.03.02h.02l-.04-.02v-.06l.04.08c.05-.02.09-.06.15-.08Zm0 1.8v.3c-.04 0-.08-.03-.13-.05l-.06.05v-.3l.06-.05.13.04Zm0 8.56v1.6h-.2V27.9c.1.5.14 1.01.18 1.5l.02.29Zm0 3.05v.24h-.08c-.03.26-.05.56-.11.9v-1.14h.2Zm0 9.1v.22c-.06-.02-.13-.04-.2-.04v-.24c.05.02.1.02.12.04l.08.03Zm0 1.53v.37a.63.63 0 0 1-.2-.04v-.4l.2.07Zm-.2-26.12c-.3.16-.6.34-.9.52-.22.02-.3-.17-.28-.3.02-.11.1-.18.1-.2.33-.2.7-.4 1.09-.58v-.45c-.5.24-.93.47-1.32.75.09-.06.2-.15.3-.2l-1.51-3.13v.84l1.17 2.47c0 .02-.03.07-.05.07l-.15.21c-.2.35.15 1.08.67.93.02 0 .48 1.16.5 1.24l-2.14 1.4v.41l2.29-1.5.1-.05.1.05.04.04v-.43l-.11-.26.1.02v-.21l-.2-.05-.12-.3.33-.47v-.28l-.43.56-.13-.32c0-.03.02-.03.04-.05.15-.1.34-.2.52-.3v-.43Zm0-3.68v.41l-.75.3-.75-1.61c-.35.13-.69.29-1.02.45v-.45c.56-.26 1.12-.5 1.7-.73l-.5-1.2s.16-.07-.47.16l-.73.3v-.4c.46-.2.93-.39 1.4-.56l.83 1.93-.83.37.54 1.25.59-.22Zm0 7.55v.3l-1.76 1.32c.82 1.14 1.47 3.08 1.77 5.16v3.4h-.04c.02-.63.02-1.12-.05-1.76-.2-2.86-1-5.36-2.05-6.89l2.14-1.53Zm0 11.62v1.14c-.1.76-.27 1.7-.53 2.65a9.8 9.8 0 0 1-1.45 3.42l-.02.07c.13.32.26.53.47.77.41.47.98.78 1.54 1V42c-.02-.02-.07-.02-.1-.04-1.05-.37-1.83-.93-2.24-1.96l.05-.05a9.85 9.85 0 0 0 1.53-3.55c.4-1.46.59-2.9.65-3.68h.1Zm0 10.57v.39l-.25-.07a7.7 7.7 0 0 1-2.27-.95v-.43c.09.05.15.11.24.15.56.4 1.34.63 2.29.9Zm-2.52-6.07c.3-.75.56-1.5.76-2.28.28-1.14.4-2.39.4-3.66-.06-2.1-.4-4.32-1.16-6.35v1.08c.48 1.55.76 3.27.78 5.14.02 1.75-.26 3.4-.78 5v1.07Zm0-26.44v.4l-1.7.84.55 1.2c.4-.18.76-.38 1.15-.57v.45l-.2.1-.02-.01.22.45v.84l-.52-1.12-.8.4-.93-1.93c.74-.39 1.5-.73 2.25-1.05Zm0 10.02v.41l-1.43.95c.59.86 1.07 1.8 1.43 2.77v1.08a14.8 14.8 0 0 0-1.9-3.98l1.9-1.23Zm0 15.35v1.07a28.43 28.43 0 0 1-1.54 3.16c.05.07.35 1 1.54 1.85v.43c-1.62-1.05-1.93-2.34-1.93-2.34.8-1.33 1.47-2.73 1.93-4.17Z"/></svg>