<!-- by TradingView --><svg width="56" height="56" viewBox="0 0 56 56" xmlns="http://www.w3.org/2000/svg"><path fill="#F0F3FA" d="M0 0h56v56H0z"/><circle cx="28" cy="28" r="16" fill="#0F3665"/><circle cx="28" cy="28" r="14" fill="#67C4F2"/><path d="M23 34.62c0-5.14 3.33-10.55 5-12.62 1.67 2.07 5 7.48 5 12.62 0 5.14-3.33 7.73-5 8.38-1.67-.65-5-3.24-5-8.38Z" fill="#0F3665"/><path d="M24 34.82c0-4.4 2.67-9.05 4-10.82 1.33 1.77 4 6.41 4 10.82 0 4.4-2.67 6.62-4 7.18-1.33-.56-4-2.78-4-7.18Z" fill="#fff"/><path d="M26 36.94c0-2.69 1.33-4.86 2-5.94.67 1.08 2 3.25 2 5.94 0 2.7-1.33 4.72-2 5.06-.67-.34-2-2.36-2-5.06Z" fill="#0F3665"/></svg>