<!-- by TradingView --><svg width="56" height="56" viewBox="0 0 56 56" xmlns="http://www.w3.org/2000/svg"><path fill="#F0F3FA" d="M0 0h56v56H0z"/><path d="M31.05 41.94h1.97a5.56 5.56 0 0 0 4.49-3.43c1.03-2.55 4.99-12.42 6.83-17.04.5-1.29 1.92-3.95 3.66-4.32-2.02-.35-6.38-.3-7.7 2.72-.5 1.15-1.4 3.5-2.46 6.24-2.45 6.36-5.74 14.9-6.79 15.83Zm-6.07.06h-5.74l-.62-1.3h2.83c1.22 0 1.62-.8 1.68-1.19h-2.48c-1.49 0-3.07-2.25-3.68-3.38-1.32-3.35-4.23-10.73-5.28-13.44A12.72 12.72 0 0 0 8 17.53l11 1.87c1.61.28 2.68 1.71 3.02 2.39.84 2.09 2.6 6.5 2.99 7.43.37.93.85 1.09 1.03 1.05h.75c.44-1.08 1.58-3.92 2.59-6.62 1-2.7 4.08-3.83 5.5-4.06-2.46 6.27-7.54 19.14-8.17 20.54-.63 1.4-1.41 1.84-1.73 1.87Zm4.63 0h-3.43c.65-.66 1.3-1.76 1.55-2.23l7.58-19.58c.67-1.75 3.9-2.16 5.42-2.14-.47.16-.9.85-1.06 1.18a1492.4 1492.4 0 0 1-8.25 21c-.62 1.36-1.46 1.75-1.81 1.77Z" fill="#5D2322"/></svg>