<!-- by TradingView --><svg width="56" height="56" viewBox="0 0 56 56" xmlns="http://www.w3.org/2000/svg"><path fill="#F0F3FA" d="M0 0h56v56H0z"/><path d="M15.85 31.17c.06.13.13.94.15 1.33-3.06-.93-4.03-2.06-4-2.5l3.85 1.17ZM15.32 29.1c.54.2.68 1.08.68 1.5-.35-.14-1.41-.42-3.45-1.02-2.04-.6-2.85-1.8-3-2.33 1.75.58 5.23 1.65 5.77 1.85ZM12.32 26.17a6.12 6.12 0 0 1 3.08 2.33c-.6-.2-2.38-.77-4.72-1.5S7.18 25.14 7 24.67c1.05.3 3.77 1.03 5.32 1.5Z" fill="#3A3D3D"/><path d="M20.57 30.67A8.14 8.14 0 0 0 25 38c-5.76-.27-7.6-3.06-7.8-4.42 0-.83-.07-2.16-.75-4.08-1.25-3.56-5.77-4.42-8.55-5.25A6.67 6.67 0 0 1 4 21c4 1.17 12.54 3.65 14.7 4.25 2.16.6 2.7 1.64 2.7 2.08-.27.56-.82 2-.82 3.34Z" fill="#3A3D3D"/><path d="M40.15 31.17A9.3 9.3 0 0 0 40 32.5c3.06-.93 4.03-2.06 4-2.5l-3.85 1.17ZM40.67 29.25c-.54.2-.67 1.08-.67 1.5.35-.14 1.41-.57 3.45-1.17s2.85-1.8 3-2.33c-1.75.58-5.23 1.8-5.78 2ZM43.67 26.17a6.12 6.12 0 0 0-3.07 2.33c.6-.2 2.38-.77 4.73-1.5 2.34-.73 3.5-1.86 3.67-2.33-1.05.3-3.77 1.03-5.33 1.5Z" fill="#3B3C3D"/><path d="M35.42 30.67A8.14 8.14 0 0 1 31 38c5.76-.27 7.6-3.06 7.8-4.42 0-.83.08-2.16.75-4.08 1.25-3.56 5.78-4.42 8.55-5.25A6.67 6.67 0 0 0 52 21c-4 1.17-12.54 3.65-14.7 4.25-2.16.6-2.7 1.64-2.7 2.08.27.56.82 2 .82 3.34Z" fill="#3B3C3D"/><path d="M28.8 37.86a9.28 9.28 0 0 1-1.28-6.06c2.15 2.76 4.62 3.68 5.7 3.81a7.03 7.03 0 0 1-4.41 2.25ZM27.2 24.07a9.28 9.28 0 0 1 1.28 6.06c-2.15-2.76-4.62-3.68-5.7-3.81a7.03 7.03 0 0 1 4.41-2.25Z" fill="#F71B28"/><path d="M33.47 35.27a9.37 9.37 0 0 1-5.21-3.38c3.48.44 5.88-.65 6.73-1.31a6.96 6.96 0 0 1-1.52 4.7ZM22.53 26.66c2.7.6 4.6 2.5 5.21 3.38-3.48-.44-5.88.65-6.73 1.3a6.96 6.96 0 0 1 1.52-4.68Z" fill="#F71B28"/><path d="M34.93 30.16a9.41 9.41 0 0 1-6.09 1.28c2.78-2.14 3.7-4.6 3.83-5.67a6.97 6.97 0 0 1 2.26 4.4ZM21.07 31.77a9.41 9.41 0 0 1 6.09-1.28c-2.78 2.14-3.7 4.6-3.83 5.67a6.97 6.97 0 0 1-2.26-4.4Z" fill="#F71B28"/><path d="M32.33 25.52a9.32 9.32 0 0 1-3.4 5.19c.45-3.46-.65-5.85-1.32-6.7a7.04 7.04 0 0 1 4.72 1.51ZM23.75 36.48a9.32 9.32 0 0 1 3.4-5.19c-.45 3.46.65 5.85 1.32 6.7a7.04 7.04 0 0 1-4.72-1.51Z" fill="#F71B28"/></svg>