<!-- by TradingView --><svg width="56" height="56" viewBox="0 0 56 56" xmlns="http://www.w3.org/2000/svg"><path fill="#F0F3FA" d="M0 0h56v56H0z"/><path fill-rule="evenodd" d="M12 21.7v12.03c0 3.6 2.93 6.46 6.41 6.26l18.28-1.03a4.67 4.67 0 0 0 4.23-5.55l-1.56-8.79a5.4 5.4 0 0 0-4.33-4.42l-17.7-3.13A4.6 4.6 0 0 0 12 21.7ZM24.8 25H24v7h.8v-2.64L26.73 32h1.11l-2.11-2.73L27.67 27h-1.1l-1.77 2.07V25ZM17 31.04V27.7h-1V27h1v-1h.8v1h1.1v.7h-1.1v2.86c0 1.04.9.86 1.36.64v.48c-.1.1-.43.32-.84.32-1.01 0-1.3-.64-1.32-.96ZM21.36 27c-.93 0-1.55.5-1.75.75l.55.38c.16-.16.6-.5 1.11-.5.76 0 .94.5.94.75v.72h-.85c-1.65 0-1.86 1.03-1.86 1.56 0 .54.43 1.34 1.44 1.34.81 0 1.18-.3 1.27-.44l.24.44H23v-3.62c0-.59-.5-1.38-1.64-1.38Zm.85 3.88v-1.15h-1.04c-.57 0-.9.6-.9.89 0 .3.22.71.9.71.55 0 .92-.3 1.04-.45ZM28.2 25h.8v2.78c.36-.48.88-.78 1.45-.78 1.1 0 2 1.12 2 2.5s-.9 2.5-2 2.5c-.57 0-1.09-.3-1.45-.78V32h-.8v-7Zm2.17 6.28c.74 0 1.34-.8 1.34-1.78s-.6-1.78-1.34-1.78c-.74 0-1.34.8-1.34 1.78s.6 1.78 1.34 1.78Zm4.78.72c1.19 0 2.15-1.12 2.15-2.5s-.96-2.5-2.15-2.5S33 28.12 33 29.5s.96 2.5 2.15 2.5Zm0-.72c.74 0 1.34-.8 1.34-1.78s-.6-1.78-1.34-1.78c-.75 0-1.35.8-1.35 1.78s.6 1.78 1.35 1.78Z" fill="#80AF3F"/><circle cx="43" cy="20" r="3" fill="#D61C24"/></svg>