<!-- by TradingView --><svg width="56" height="56" viewBox="0 0 56 56" xmlns="http://www.w3.org/2000/svg"><path fill="#F0F3FA" d="M0 0h56v56H0z"/><path d="M4 24v-1h7v1.23L5.34 31H11v1H4v-1.23L9.68 24H4ZM12 25h1v7h-1z" fill="#189B35"/><path fill="#E7A41F" d="M12 20h1v4h-1z"/><path d="M16.17 23H14v1h2.11c.92 0 1.89.87 1.89 2.02V32h1v-6.02A2.9 2.9 0 0 0 16.17 23ZM42.26 23H44v1h-1.67c-1.4 0-2.33 1.05-2.33 2.02V32h-1v-6.02c0-1.65 1.46-2.98 3.26-2.98Z" fill="#189B35"/><path fill-rule="evenodd" d="M29 27.57v-.07a4.5 4.5 0 1 0-.39 1.83l-.89-.46a3.5 3.5 0 0 1-6.72-1.3h8Zm-7.82-1.2h6.64a3.5 3.5 0 0 0-6.64 0ZM48.5 32a4.5 4.5 0 1 0 0-9 4.5 4.5 0 0 0 0 9Zm0-1a3.5 3.5 0 1 0 0-7 3.5 3.5 0 0 0 0 7Z" fill="#189B35"/><path d="M30 26.9V32h1v-5.15A2.96 2.96 0 0 1 34.01 24 2.93 2.93 0 0 1 37 26.85V32h1v-5.1c0-2.15-1.81-3.9-4-3.9s-4 1.75-4 3.9Z" fill="#189B35"/></svg>