<!-- by TradingView --><svg width="56" height="56" viewBox="0 0 56 56" xmlns="http://www.w3.org/2000/svg"><path fill="#F0F3FA" d="M0 0h56v56H0z"/><path d="M14 20v21h5V19.88c0-2.2 2.19-3.88 4.38-3.88h9.15c2.2 0 4.47 1.67 4.47 3.88V41h5v-7.17c0-1.57-.85-2.92-2.05-3.5A3.6 3.6 0 0 0 42 27.07V20c0-3.31-2.67-6-5.95-6h-16.1A5.98 5.98 0 0 0 14 20Zm7-.54V41h6v-9.07c0-.54.36-.93.92-.93s1.08.39 1.08.93V41h6v-8.4c0-1.33-1.07-2.19-1.6-2.45a2.76 2.76 0 0 0 1.6-1.99v-8.7A2.5 2.5 0 0 0 32.46 17h-8.92A2.5 2.5 0 0 0 21 19.46Zm6 .52c0-.54.45-.98 1-.98s1 .44 1 .98v8.04c0 .54-.45.98-1 .98s-1-.44-1-.98v-8.04Z" fill="#A57E46"/></svg>