<!-- by TradingView --><svg width="56" height="56" viewBox="0 0 56 56" xmlns="http://www.w3.org/2000/svg"><path fill="#F0F3FA" d="M0 0h56v56H0z"/><path d="M33.4 38.8c-6.01 0-9.1-1.05-9.9-1.58.93 2.63 5.48 7.52 9.43 7.24 3.96-.28 7.26-4.44 9.28-6.65-.43.34-2.8 1-8.8 1Z" fill="url(#axm03vn5j)"/><path d="M33.75 44.38C22.89 47.4 10.17 39 11.05 27.08c0-.26.29-3.09 4.89-5.97 3.68-2.31 7.7-3.09 9.25-3.19-1.14 1-3.41 4.52-3.41 10.64 0 7.66 5.54 14.13 11.97 15.82Z" fill="url(#bxm03vn5j)"/><path d="M22.6 17.2c6.01 0 9.1 1.05 9.9 1.58-.93-2.63-5.48-7.52-9.43-7.24-3.96.28-7.26 4.44-9.28 6.65.43-.34 2.8-1 8.8-1Z" fill="url(#cxm03vn5j)"/><path d="M22.25 11.62C33.11 8.6 45.83 17 44.95 28.92c0 .26-.29 3.09-4.89 5.97a22.15 22.15 0 0 1-9.25 3.19c1.14-1 3.41-4.52 3.41-10.65 0-7.65-5.54-14.12-11.97-15.8Z" fill="url(#dxm03vn5j)"/><path fill="url(#exm03vn5j)" d="M24 24h8v8h-8z"/><defs><linearGradient id="axm03vn5j" x1="27.17" y1="43.08" x2="37.7" y2="34.59" gradientUnits="userSpaceOnUse"><stop stop-color="#FAB325"/><stop offset="1" stop-color="#FF6521"/></linearGradient><linearGradient id="bxm03vn5j" x1="22.37" y1="17.92" x2="22.37" y2="45" gradientUnits="userSpaceOnUse"><stop stop-color="#EF342B"/><stop offset="1" stop-color="#F27326"/></linearGradient><linearGradient id="cxm03vn5j" x1="28.83" y1="12.92" x2="18.3" y2="21.41" gradientUnits="userSpaceOnUse"><stop stop-color="#FAB325"/><stop offset="1" stop-color="#FF6521"/></linearGradient><linearGradient id="dxm03vn5j" x1="33.63" y1="38.08" x2="33.63" y2="11" gradientUnits="userSpaceOnUse"><stop stop-color="#EF342B"/><stop offset="1" stop-color="#F27326"/></linearGradient><linearGradient id="exm03vn5j" x1="28" y1="24" x2="28" y2="32" gradientUnits="userSpaceOnUse"><stop stop-color="#FAB23A"/><stop offset="1" stop-color="#F8681F"/></linearGradient></defs></svg>