<!-- by TradingView --><svg width="56" height="56" viewBox="0 0 56 56" xmlns="http://www.w3.org/2000/svg"><path fill="#F0F3FA" d="M0 0h56v56H0z"/><path d="M4.58 25h1.4c.33 0 .58.25.56.55L6.42 27h2l.16-2h2L10 32H8l.25-3h-2L6 32H4l.58-7ZM14.44 27h-2L12 32h2l.44-5ZM14.09 25h-1.47l-.1 1h1.95l.06-.6c.01-.21-.19-.4-.44-.4ZM31.37 26.3a27 27 0 0 1 3.15-.3c1.17 0 2.53.13 2.48 1.69a232 232 0 0 1-.21 4.31h-1.92l.2-3.99c.02-.25-.13-.75-.82-.75-.3 0-.58.04-.81.09l-.3 4.65H31l.37-5.7ZM22 26.29l-.14 1.21c-.4-.13-1.6-.29-2.27-.29-.66 0-1.09.13-1.09.29 0 .16.26.38 1.03.7 1.41.58 2.47 1.25 2.47 2.24C22 31.8 19.85 32 18.99 32c-.7 0-2.28-.15-2.99-.22v-1.34c.54.1 1.71.32 2.15.32.55 0 1.35 0 1.35-.23 0-.22-.37-.44-1.35-.86-.98-.41-2.15-1.05-2.15-2.04 0-1 1.32-1.63 3.22-1.63 1.51 0 2.48.2 2.78.29ZM44 26.29l-.14 1.21c-.4-.13-1.6-.29-2.27-.29-.66 0-1.09.13-1.09.29 0 .16.26.38 1.03.7 1.41.58 2.47 1.25 2.47 2.24C44 31.8 41.85 32 40.99 32c-.7 0-2.28-.15-2.99-.22v-1.34c.54.1 1.71.32 2.15.32.55 0 1.35 0 1.35-.23 0-.22-.37-.44-1.35-.86-.98-.41-2.15-1.05-2.15-2.04 0-1 1.32-1.63 3.22-1.63 1.51 0 2.48.2 2.78.29Z" fill="#00999E"/><path fill-rule="evenodd" d="M29.92 29.49c.39-1.54-.57-3.49-3.2-3.49-2.46 0-3.72 1.85-3.72 3.14S23.84 32 26.97 32c1.44 0 2.32-.25 2.59-.38l.18-1.13c-.48.09-1.66.25-2.62.25-1.01 0-1.73-.4-1.93-1.25h4.73Zm-1.87-1.13c-.05-.9-.76-1.2-1.32-1.2-.47 0-1.24.38-1.5 1.2h2.82ZM51.92 29.46c.39-1.54-.57-3.46-3.2-3.46-2.46 0-3.72 1.85-3.72 3.14S45.84 32 48.97 32c1.44 0 2.32-.25 2.59-.38l.18-1.13c-.48.09-1.66.25-2.62.25-1.01 0-1.73-.4-1.93-1.25h4.7v-.03h.03Zm-1.87-1.1c-.05-.9-.76-1.2-1.32-1.2-.47 0-1.24.38-1.5 1.2h2.82Z" fill="#00999E"/></svg>