<!-- by TradingView --><svg width="56" height="56" viewBox="0 0 56 56" xmlns="http://www.w3.org/2000/svg"><path fill="#F0F3FA" d="M0 0h56v56H0z"/><path d="M7 22.26A2.26 2.26 0 0 1 9.26 20h37.48A2.26 2.26 0 0 1 49 22.26V31h-9.5c-2.2-1.15-7.68-1.38-10.32-1.38-3.13 0-6.03.56-8.18 1.38H7v-8.74Z" fill="url(#av1zcke0i)"/><path d="M28.32 37.83c-6.63.63-12.14-.57-12.32-2.68-.17-2.12 5.06-4.35 11.68-4.98 6.63-.63 12.14.57 12.32 2.68.17 2.12-5.06 4.35-11.68 4.98Z" fill="#4293D9"/><path d="M28.75 36.84c-5.8.53-10.61-.3-10.75-1.88-.13-1.57 4.46-3.27 10.25-3.8 5.8-.53 10.61.3 10.75 1.88.13 1.57-4.46 3.27-10.25 3.8Z" fill="url(#bv1zcke0i)"/><path d="M28.75 36.84c-5.8.53-10.61-.3-10.75-1.88-.13-1.57 4.46-3.27 10.25-3.8 5.8-.53 10.61.3 10.75 1.88.13 1.57-4.46 3.27-10.25 3.8Z" fill="url(#cv1zcke0i)"/><path d="M15.55 36c-.32-.3-.5-.62-.54-.97-.11-1.07 1.24-2.15 3.51-3.03H7v1.75A2.25 2.25 0 0 0 9.26 36h6.3Zm21.93 0h9.26C48 36 49 35 49 33.75V32h-8.55c.32.3.5.62.54.97.11 1.07-1.24 2.15-3.51 3.03Z" fill="url(#dv1zcke0i)"/><path d="M12.77 24.82c.1.02.21.03.32.03 1.02 0 1.55-.8 1.55-1.7 0-.5-.28-.86-.82-.86-.28 0-.37.16-.44.4l-.61 2.13ZM10 27.77c.44-.05.64-.24.76-.64l1.15-4.03.01-.06c.07-.24.18-.62-.1-.74a1.91 1.91 0 0 0-.5-.07V22h2.69c.94 0 1.99.33 1.99 1.4 0 1.26-1.38 1.76-2.5 1.76-.25 0-.5-.02-.75-.04h-.07l-.5 1.78-.08.31c-.14.45.3.53.66.56V28H10v-.23Zm5-.35c.32-.87.59-1.75.85-2.6l.02-.04.53-1.67.01-.04c.06-.17.17-.49-.08-.56-.1-.03-.27-.04-.5-.03v-.23l1.05-.09L18 22l-.55 1.57a48.56 48.56 0 0 0-1.11 3.34c-.06.14-.15.39-.02.45l.1.03c.1 0 .23-.07.39-.21.16-.14.3-.3.42-.46l.23.12c-.3.38-.55.64-.74.79a1.6 1.6 0 0 1-1 .37c-.41 0-.72-.25-.72-.58Zm5.4-3.07c.25 0 .32.24.32.46 0 .36-.12.85-.37 1.47-.36.74-.67 1.11-.95 1.1-.25 0-.37-.27-.37-.49 0-.64.55-2.54 1.36-2.54Zm-.11-.35C19.02 24 18 25.76 18 26.9c0 .55.3 1.1.9 1.1.61 0 .94-.47 1.25-.9l.13-.19a3 3 0 0 0-.11.52c0 .31.24.57.55.57.21 0 .42-.1.63-.28.2-.2.42-.45.65-.79l-.18-.12-.16.21-.04.05c-.1.14-.32.44-.47.3-.12-.1-.01-.43.05-.61l.02-.1c.15-.6.34-1.21.54-1.82l.24-.77-.94.06-.14.44c-.09-.34-.25-.57-.63-.57Zm15.43.8c0-.21-.07-.45-.33-.45-.8 0-1.36 1.9-1.36 2.54 0 .22.12.5.37.5.28 0 .6-.37.95-1.1.25-.63.37-1.12.37-1.48ZM33 26.9c0-1.14 1.02-2.9 2.29-2.9.38 0 .54.23.63.57l.14-.44.94-.06-.24.77c-.2.6-.39 1.21-.54 1.83l-.02.09c-.06.18-.17.51-.05.61a.1.1 0 0 0 .07.03c.05 0 .1-.02.14-.05.1-.08.19-.19.27-.3l.03-.03.16-.21.18.12c-.23.34-.44.6-.65.79a.93.93 0 0 1-.63.28.56.56 0 0 1-.55-.57c0-.06.03-.23.1-.49l-.1.15-.07.1c-.27.4-.68.8-1.2.8-.6 0-.9-.54-.9-1.1Zm-10.13 1.79c0 .21 0 .59-.46.59a.87.87 0 0 1-.42-.16.92.92 0 0 0-.45-.16c-.29 0-.54.2-.54.5s.32.54.63.54c.42 0 .83-.18 1.24-.54.41-.35.87-.9 1.38-1.64.1-.13.2-.3.34-.47.58-.82 1.41-1.97 1.41-2.74 0-.33-.24-.61-.6-.61-.3 0-.56.23-.56.52 0 .2.14.3.27.42.14.1.27.21.27.39 0 .36-.6 1.15-1.01 1.73-.16.2-.3.39-.36.5v-.25c0-.7 0-1.52-.14-2.07l-.15-.64-.14-.54c-.38.05-.78.08-1.18.12l-.34.03v.24c.22 0 .38.06.45.18.44.69.4 2.36.37 3.46v.6Zm3.13-.78.85-2.71.1-.34c.02-.1.06-.3-.08-.36-.06-.02-.2-.04-.42-.05v-.22a14.28 14.28 0 0 0 1.9-.23l-.57 1.57.04.02.13-.19c.45-.61 1.02-1.4 1.9-1.4.62 0 .66.58.53 1.01l-.13.37c.33-.44.59-.75.79-.93.33-.3.68-.45 1.04-.45.45 0 .74.25.74.66 0 .12-.03.28-.08.48-.1.38-.25.76-.4 1.14-.08.17-.15.33-.2.5l-.04.09c-.06.13-.12.28-.12.42 0 .07.07.12.15.12.1 0 .22-.1.38-.28.08-.1.18-.22.28-.37l.21.12c-.24.34-.44.59-.6.73-.28.26-.58.39-.9.39-.36 0-.66-.2-.66-.53 0-.4.16-.8.3-1.18l.03-.09.48-1.28a.41.41 0 0 0 .02-.12c0-.11-.09-.18-.21-.18-.2 0-.42.15-.68.44a5.3 5.3 0 0 0-.8 1.33l-.55 1.52H28.3l.97-2.75v-.01c.06-.16.2-.53-.1-.53-.15 0-.35.12-.6.38-.24.25-.47.58-.69.98a6.7 6.7 0 0 0-.38.9l-.35 1.03H26Zm11.13-1.03c-.06.18-.13.37-.13.55 0 .33.3.57.7.57.35 0 .68-.12 1-.36.18-.15.42-.4.73-.78l-.23-.12c-.13.18-.27.33-.42.46-.15.14-.28.2-.37.2-.03 0-.06 0-.1-.02-.18-.08.02-.56.12-.81l.05-.11.66-1.8H40v-.46h-.74l.4-1.2h-.36c-.45.59-1.1 1-1.88 1.26v.4h.52l-.77 2.12-.04.1Zm5.94-2.26c0-.18-.08-.35-.3-.35-.24 0-.47.16-.7.48a4.7 4.7 0 0 0-.62 1.33c.59-.1 1-.32 1.25-.63.25-.3.37-.59.37-.83ZM40 26.7c0-.64.3-1.24.89-1.81.61-.6 1.28-.89 2.01-.89.48 0 1.1.2 1.1.74 0 1.09-1.76 1.52-2.62 1.61a2.5 2.5 0 0 0-.04.24c-.07.48.13.86.68.86.5 0 .88-.4 1.16-.76l.3.14C43 27.5 42.38 28 41.49 28c-.8 0-1.49-.52-1.49-1.3Zm4.41-.08-.22-.02L44 28h.23a.43.43 0 0 1 .08-.12c.04-.04.1-.06.16-.06.13 0 .26.05.39.09.13.04.26.09.4.09.64 0 1.28-.4 1.28-1.13 0-.72-.36-1.05-.68-1.34-.26-.23-.49-.44-.49-.8 0-.28.2-.46.46-.46.16 0 .3.08.45.24.14.15.24.41.3.77l.22.02L47 24h-.25a.42.42 0 0 1-.09.13c-.1.1-.3.03-.43-.03l-.05-.02c-.16-.06-.32-.09-.47-.09-.58 0-1.2.36-1.2 1.03 0 .62.35.97.67 1.3.28.28.54.54.54.95 0 .28-.23.46-.48.46-.55 0-.78-.65-.83-1.12Z" fill="url(#ev1zcke0i)"/><path d="m31.13 34.95.14.01c.04.36.19.84.56.84.16 0 .31-.13.31-.34 0-.66-.8-.81-.8-1.7 0-.5.42-.76.8-.76.1 0 .2.02.32.07.08.04.23.12.31.04a.32.32 0 0 0 .07-.1H33l-.13.96-.15-.01c-.04-.27-.1-.46-.2-.58-.1-.12-.2-.17-.3-.17-.17 0-.3.12-.3.33 0 .63.77.63.77 1.61 0 .55-.43.85-.85.85-.18 0-.35-.13-.53-.13-.04 0-.08.01-.1.04a.33.33 0 0 0-.06.09H31l.13-1.05ZM22 35.89c.28 0 .44-.07.52-.33l.74-2.4c-.25 0-.46.05-.64.16-.17.1-.32.27-.44.48l-.13-.03.2-.77H25l-.18.86h-.13c-.01-.3-.1-.5-.28-.6a.86.86 0 0 0-.42-.1l-.7 2.29-.05.2c-.03.23.24.23.42.24V36H22v-.11Z" fill="#FDFFFA"/><path fill-rule="evenodd" d="M26.89 33c-1 0-1.89 1.02-1.89 1.98 0 .62.48 1.02 1.09 1.02 1 0 1.91-1 1.91-1.97 0-.63-.5-1.03-1.11-1.03Zm-.8 2.85c.18 0 .34-.06.49-.18.51-.44.77-1.34.77-2 0-.29-.16-.53-.47-.53-.37 0-.69.32-.94.95-.2.47-.3.87-.3 1.19 0 .28.13.57.46.57Z" fill="#FDFFFA"/><path d="M28 35.89c.27-.02.44-.08.52-.33l.3-.96-.45-1.2c-.06-.18-.14-.28-.37-.28V33h1.45v.1l-.27.04c-.06.02-.09.07-.09.13s.02.11.04.17l.35.98.66-.83c.07-.09.14-.18.14-.3 0-.07-.04-.12-.11-.15a.9.9 0 0 0-.24-.03V33H31v.1c-.2.04-.35.18-.47.32l-.97 1.2-.25.83a.76.76 0 0 0-.06.24c0 .2.23.19.4.2V36H28v-.11Z" fill="#FDFFFA"/><defs><linearGradient id="av1zcke0i" x1="28" y1="20" x2="28" y2="31" gradientUnits="userSpaceOnUse"><stop stop-color="#4092DA"/><stop offset="1" stop-color="#3373B7"/></linearGradient><linearGradient id="bv1zcke0i" x1="39" y1="33.04" x2="17.99" y2="34.85" gradientUnits="userSpaceOnUse"><stop offset=".09" stop-color="#62070A"/><stop offset=".21" stop-color="#CA1E30"/><stop offset=".74" stop-color="#DF1F33"/><stop offset=".93" stop-color="#580008"/></linearGradient><linearGradient id="cv1zcke0i" x1="29" y1="31.13" x2="29.5" y2="36.44" gradientUnits="userSpaceOnUse"><stop stop-color="#DF1F33" stop-opacity="0"/><stop offset=".85" stop-color="#871E28"/></linearGradient><linearGradient id="dv1zcke0i" x1="28" y1="32" x2="28" y2="36" gradientUnits="userSpaceOnUse"><stop stop-color="#B31527"/><stop offset="1" stop-color="#DF1B2E"/></linearGradient><linearGradient id="ev1zcke0i" x1="28.05" y1="20.17" x2="28.03" y2="30.55" gradientUnits="userSpaceOnUse"><stop stop-color="#C5D2DB"/><stop offset=".45" stop-color="#F7FBF8"/><stop offset=".5" stop-color="#D1D8DE"/><stop offset=".79" stop-color="#FBFDFD"/></linearGradient></defs></svg>