<!-- by TradingView --><svg width="56" height="56" viewBox="0 0 56 56" xmlns="http://www.w3.org/2000/svg"><path fill="#F0F3FA" d="M0 0h56v56H0z"/><path d="M18.93 12.15c-.36.06-.77.17-1.2.33-1.38.5-2.6 1.29-3.69 2.33-.05.05-.05.1 0 .12h.04c1.07-.62 2.2-1.04 3.4-1.27a6.05 6.05 0 0 1 5.31 1.28 5.31 5.31 0 0 1 .84 4.84 7.4 7.4 0 0 1-1.5 2.5c-.4.43-.84.84-1.31 1.2l-1 .8c-.33.32-.64.68-.9 1.1a3.43 3.43 0 0 0-.34 3.23c.13.36.35.74.66 1.14.21.29.46.52.74.68 2.03 1.19 4.33.08 5.9-1.3a13.26 13.26 0 0 0 3.52-4.82c.49-1.12.78-2.3.74-3.52a9.52 9.52 0 0 0-11.21-8.64Z" fill="url(#a)"/><path d="M38.95 16.14c.56.53 1 1.08 1.32 1.67a11.53 11.53 0 0 1 1.58 3.85 7.67 7.67 0 0 1-.2 3.8c-.23.69-.5 1.31-.82 1.86a21.88 21.88 0 0 1-3.57 4.45 146.1 146.1 0 0 1-3.1 3.03 72.07 72.07 0 0 0-3.98 4 34.89 34.89 0 0 0-2.72 3.4c-.62.87-1.15 1.75-1.61 2.65-.04.08-.08.12-.12.14-.07.03-.14 0-.2-.07-2.3-2.93-3.85-7.14-1.07-10.37a8 8 0 0 1 .57-.62 31.57 31.57 0 0 1 2.42-2.07c1.36-1.1 2.72-2.2 4-3.38 1.03-.96 1.96-2 2.8-3.12a12.24 12.24 0 0 0 1.93-3.87c.27-.97.38-1.96.33-2.95 0-.2-.09-.5-.23-.9a4.26 4.26 0 0 0-2.14-2.47 6.56 6.56 0 0 0-1.87-.61 13.55 13.55 0 0 0-3.55-.18c.16-.1.35-.17.57-.24 1.85-.61 3.9-.74 5.78-.22a9.1 9.1 0 0 1 3.88 2.22Z" fill="url(#b)"/><defs><linearGradient id="a" x1="22.07" y1="12" x2="22.07" y2="30.93" gradientUnits="userSpaceOnUse"><stop stop-color="#D64F39"/><stop offset=".38" stop-color="#EEB940"/><stop offset=".81" stop-color="#D64F39"/></linearGradient><linearGradient id="b" x1="32.49" y1="13.6" x2="32.49" y2="45" gradientUnits="userSpaceOnUse"><stop stop-color="#2D3588"/><stop offset=".56" stop-color="#3E8CCF"/><stop offset="1" stop-color="#2962AA"/></linearGradient></defs></svg>