<!-- by TradingView --><svg width="56" height="56" viewBox="0 0 56 56" xmlns="http://www.w3.org/2000/svg"><path fill="#F0F3FA" d="M0 0h56v56H0z"/><path d="M25.7 36.45c.2 0 .4-.05.59-.15.19-.1.35-.25.5-.44a2.53 2.53 0 0 0 .48-1.49c-.01-.3-.08-.5-.23-.63-.14-.12-.38-.19-.72-.19-.23 0-.44.06-.63.17-.19.11-.35.26-.5.45-.13.18-.24.4-.32.65-.07.25-.11.52-.11.8 0 .31.08.53.23.65.15.12.39.18.71.18Zm-.2.55a2.2 2.2 0 0 1-.67-.1 1.42 1.42 0 0 1-.47-.24 1.14 1.14 0 0 1-.27-.39 1.35 1.35 0 0 1-.09-.48c0-.34.05-.68.16-1.01a2.5 2.5 0 0 1 1.26-1.53c.32-.17.67-.25 1.08-.25.54 0 .92.1 1.15.33.23.2.35.5.35.85 0 .28-.04.58-.13.9-.1.34-.24.64-.44.93a2.22 2.22 0 0 1-1.93 1ZM21 37c-1.18 0-2-.63-2-1.84 0-1.97 1.17-4.16 3.37-4.16.57 0 1.18.1 1.63.49l-.48.63c-.37-.3-.83-.36-1.29-.36-1.71 0-2.42 1.8-2.42 3.24 0 .89.5 1.33 1.37 1.33.62 0 1.22-.28 1.67-.68l.31.57A3.2 3.2 0 0 1 21 37ZM43.6 24.17c.05-.22.08-.41.09-.59l.03-.58h.66a6.32 6.32 0 0 1-.06.82l.2-.29c.08-.1.17-.18.27-.26a1.16 1.16 0 0 1 1.02-.24l.19.06-.32.6a.57.57 0 0 0-.28-.07.75.75 0 0 0-.48.19c-.15.11-.29.25-.4.43a2.84 2.84 0 0 0-.48 1.07L43.68 27H43l.6-2.83ZM28.6 34.17c.05-.22.08-.41.09-.59l.03-.58h.66a6.32 6.32 0 0 1-.06.82l.2-.29c.08-.1.17-.18.27-.26a1.16 1.16 0 0 1 1.02-.24l.19.06-.32.6a.57.57 0 0 0-.28-.07.75.75 0 0 0-.48.19c-.15.11-.29.25-.4.43a2.84 2.84 0 0 0-.48 1.07L28.68 37H28l.6-2.83ZM30.63 24.17a5.03 5.03 0 0 0 .12-1.17h.68l-.01.42c0 .13-.02.25-.05.36l.23-.25c.09-.09.2-.18.31-.26a1.57 1.57 0 0 1 .91-.27c.44 0 .76.1.97.32.2.2.26.53.17.98l-.6 2.7h-.7l.58-2.64c.05-.24.04-.44-.05-.58-.09-.14-.27-.21-.57-.21-.2 0-.38.05-.55.16-.17.1-.32.25-.45.41a2.86 2.86 0 0 0-.54 1.17L30.7 27H30l.63-2.83ZM27.41 26.46c.4 0 .8-.32 1.13-.8a4.06 4.06 0 0 0 .63-1.88c-.24-.18-.62-.23-.9-.23-1.09 0-1.57 1.22-1.57 2.14 0 .45.27.77.71.77Zm-.21.54c-.77 0-1.2-.56-1.2-1.32 0-1.37 1-2.68 2.42-2.68.31 0 .66.07.94.22.09-.08.2-.12.32-.14a.72.72 0 0 1 .32.02l-.68 3c-.04.17-.06.32-.06.47l-.01.43h-.67v-.42l.06-.39c-.33.47-.86.81-1.44.81ZM40.41 26.46c.4 0 .8-.32 1.13-.8a4.06 4.06 0 0 0 .63-1.88c-.24-.18-.62-.23-.9-.23-1.09 0-1.57 1.22-1.57 2.14 0 .45.27.77.71.77Zm-.21.54c-.77 0-1.2-.56-1.2-1.32 0-1.37 1-2.68 2.42-2.68.31 0 .66.07.94.22.09-.08.2-.12.32-.14a.72.72 0 0 1 .32.02l-.68 3c-.04.17-.06.32-.06.47l-.01.43h-.67v-.42l.06-.39c-.33.47-.86.81-1.44.81ZM24.05 27c-.58 0-1.14-.3-.94-.96l.71-2.5h-.42c-.15 0-.26-.05-.33-.14-.07-.1-.09-.23-.05-.4h.95l.29-.84.82-.16-.3 1H26l-.2.54h-1.17l-.66 2.49c-.07.26.05.44.33.44.34 0 .63-.1.84-.2l.08.46a2.6 2.6 0 0 1-1.17.27ZM20.05 27a4.57 4.57 0 0 1-1.3-.2 3.7 3.7 0 0 1-.44-.18 2.69 2.69 0 0 1-.31-.2l.4-.58.28.2c.1.06.23.13.36.18.14.06.3.1.48.14a3.42 3.42 0 0 0 1.28-.03c.19-.07.34-.15.46-.25s.22-.23.27-.37a1.07 1.07 0 0 0 .04-.78.57.57 0 0 0-.18-.26c-.08-.08-.2-.16-.35-.23a7.7 7.7 0 0 0-.55-.26 6.2 6.2 0 0 1-.64-.3 2.1 2.1 0 0 1-.44-.33 1.2 1.2 0 0 1-.24-.4 1.51 1.51 0 0 1-.07-.5 1.43 1.43 0 0 1 .55-1.17c.18-.15.4-.27.68-.35a3.23 3.23 0 0 1 2.44.26c.1.07.17.12.23.18l-.42.5a1.9 1.9 0 0 0-1.35-.48c-.26 0-.48.02-.65.08-.17.06-.31.14-.42.24-.1.09-.19.2-.24.32a1.1 1.1 0 0 0-.06.37.67.67 0 0 0 .27.56c.1.08.22.17.37.25l.55.24c.25.1.45.21.62.32.17.1.31.2.41.32a1 1 0 0 1 .23.4c.04.14.07.31.07.5 0 .6-.2 1.05-.6 1.36-.4.3-.97.45-1.73.45ZM14.41 26.42c1.13 0 1.78-.96 1.78-1.97 0-.5-.28-.87-.8-.87-1.23 0-1.9 1.55-1.98 2.58.3.18.66.26 1 .26ZM13.2 24.2a7.14 7.14 0 0 0 .13-1.2h.76a5.62 5.62 0 0 1-.08.85c.38-.5.99-.85 1.62-.85.9 0 1.38.5 1.38 1.36A2.64 2.64 0 0 1 14.3 27c-.46 0-.83-.1-1.02-.19L12.8 29H12l1.19-4.8ZM33.41 36.42c1.13 0 1.78-.96 1.78-1.97 0-.5-.28-.87-.8-.87-1.23 0-1.9 1.55-1.98 2.58.3.18.66.26 1 .26ZM32.2 34.2a7.14 7.14 0 0 0 .13-1.2h.76a5.62 5.62 0 0 1-.08.85c.38-.5.99-.85 1.62-.85.9 0 1.38.5 1.38 1.36A2.64 2.64 0 0 1 33.3 37c-.46 0-.83-.1-1.02-.19L31.8 39H31l1.19-4.8ZM36.59 23.58c-1.13 0-1.78.96-1.78 1.97 0 .5.28.87.8.87 1.23 0 1.9-1.55 1.98-2.58a1.9 1.9 0 0 0-1-.26Zm1.22 2.22a7.14 7.14 0 0 0-.13 1.2h-.76a5.62 5.62 0 0 1 .08-.85c-.38.5-.99.85-1.62.85-.9 0-1.38-.5-1.38-1.36A2.64 2.64 0 0 1 36.7 23c.46 0 .83.1 1.02.19L38.2 21h.8l-1.19 4.8ZM48.59 23.58c-1.13 0-1.78.96-1.78 1.97 0 .5.28.87.8.87 1.23 0 1.9-1.55 1.98-2.58a1.9 1.9 0 0 0-1-.26Zm1.22 2.22a7.14 7.14 0 0 0-.13 1.2h-.76a5.62 5.62 0 0 1 .08-.85c-.38.5-.99.85-1.62.85-.9 0-1.38-.5-1.38-1.36A2.64 2.64 0 0 1 48.7 23c.46 0 .83.1 1.02.19L50.2 21h.8l-1.19 4.8ZM9.7 26.45c.2 0 .4-.05.59-.15.19-.1.35-.25.5-.44a2.53 2.53 0 0 0 .48-1.49c-.01-.3-.08-.5-.23-.63-.14-.12-.38-.19-.72-.19-.23 0-.44.06-.63.17-.19.11-.35.26-.5.45-.13.18-.24.4-.32.65-.07.25-.11.52-.11.8 0 .31.08.53.23.65.15.12.39.18.71.18Zm-.2.55a2.2 2.2 0 0 1-.67-.1 1.42 1.42 0 0 1-.47-.24 1.14 1.14 0 0 1-.27-.39A1.35 1.35 0 0 1 8 25.8c0-.34.05-.68.16-1.01a2.5 2.5 0 0 1 1.26-1.53c.32-.17.67-.25 1.08-.25.54 0 .92.1 1.15.33.23.2.35.5.35.85 0 .28-.04.58-.13.9-.1.34-.24.64-.44.93a2.22 2.22 0 0 1-1.93 1ZM6.58 21.64H5l.14-.64H9l-.14.64H7.33L6.23 27H5.5l1.1-5.36Z" fill="#394D61"/></svg>