<!-- by TradingView --><svg width="56" height="56" viewBox="0 0 56 56" xmlns="http://www.w3.org/2000/svg"><path fill="#F0F3FA" d="M0 0h56v56H0z"/><path d="m30.73 11.4-.46-.45a3.24 3.24 0 0 0-4.59 0L10.95 25.68a3.24 3.24 0 0 0 0 4.59l10.33 10.32a3.24 3.24 0 0 0 4.58 0l9.02-9.02c.88-.88.88-2.3 0-3.18L32 25.51a2.24 2.24 0 0 0-3.18 0l-4.88 4.88 3.54 3.55c-.92.92-2.41.92-3.33 0l-6.22-6.21a2.5 2.5 0 0 1 0-3.53l12.8-12.8Z" fill="#2C6CC5"/><path d="m25.27 44.6.46.45a3.24 3.24 0 0 0 4.59 0l14.73-14.73a3.24 3.24 0 0 0 0-4.59L34.72 15.41a3.24 3.24 0 0 0-4.58 0l-8.67 8.67c-1.06 1.06-1.1 2.78-.14 3.74l.84.84 6.47-6.48c.92-.92 2.3-1.04 3.21-.12l6.22 6.21a2.5 2.5 0 0 1 0 3.53l-12.8 12.8Z" fill="#3CB249"/></svg>