<!-- by TradingView --><svg width="56" height="56" viewBox="0 0 56 56" fill="none" xmlns="http://www.w3.org/2000/svg">
<rect width="56" height="56" fill="#F0F3FA"/>
<path fill-rule="evenodd" clip-rule="evenodd" d="M16 12H32.164C34.1547 12 35.9723 12.7553 37.356 14H32.0089V15H38.2918C38.5393 15.3147 38.764 15.6489 38.9633 16H32.0089V17H39.4428C39.5712 17.3234 39.6795 17.6572 39.7661 18H21.0028V19H39.9526C39.9927 19.3276 40.0134 19.6613 40.0134 20H21.0028V21H39.9526C39.911 21.3404 39.8483 21.6742 39.7661 22H21.0028V23H39.4428C39.3054 23.346 39.1449 23.68 38.9633 24H21.0028V25H38.2918C38.0085 25.3601 37.6953 25.6948 37.356 26H31.0084V27H35.967C35.7275 27.1355 35.4802 27.2586 35.2261 27.3684C36.2958 27.7076 37.2725 28.2686 38.1065 29H31.0084V30H39.0717C39.3287 30.3145 39.5641 30.6486 39.7754 31H21.0028V32H40.2908C40.4314 32.3231 40.5531 32.6569 40.6545 33H21.0028V34H40.887C40.943 34.3272 40.9811 34.661 41 35H21.0028V36H41C40.9811 36.339 40.943 36.6728 40.887 37H21.0028V38H40.6545C40.5531 38.3431 40.4314 38.6769 40.2908 39H32.0089V40H39.7754C39.5641 40.3514 39.3287 40.6855 39.0717 41H32.0089V42H38.1065C36.6835 43.2479 34.845 44 32.8375 44H16V28V27V12Z" fill="url(#paint0_linear_5723_200081)"/>
<defs>
<linearGradient id="paint0_linear_5723_200081" x1="38.3023" y1="16.2365" x2="27.6557" y2="29.5258" gradientUnits="userSpaceOnUse">
<stop stop-color="#F5A531"/>
<stop offset="1" stop-color="#E62913"/>
</linearGradient>
</defs>
</svg>
