<!-- by TradingView --><svg width="56" height="56" viewBox="0 0 56 56" xmlns="http://www.w3.org/2000/svg"><path fill="#F0F3FA" d="M0 0h56v56H0z"/><path fill="url(#a)" d="M4 23h48v10H4z"/><path d="m40.58 24.96 1.15-1.18A7.37 7.37 0 0 0 35.9 21C29 21 29 27.62 29 28c0 1.21.42 7 7.13 7 5.36 0 6.48-4.66 6.36-6.98H37v1.48h3.9c-.42 1.34-1.67 4-4.77 4-3.99 0-5.63-2.86-5.63-5.39s1.78-5.61 5.4-5.61a5.76 5.76 0 0 1 4.68 2.46Z" fill="#004E5B"/><path d="M7 24h1v1.1H7V24Zm19 0h1v1.1h-1V24ZM8 26H7v5h1v-5Zm4 0h-1v5h1v-3.55c.24-.4.61-.77 1.14-.77.87 0 .87.67.86 1V31h1v-3.56c0-.48-.39-1.44-1.7-1.44-.63 0-1.04.27-1.3.56V26Zm32 0h1v.56c.25-.3.67-.56 1.3-.56 1.31 0 1.7.96 1.7 1.44V31h-1v-3.31c.01-.34.01-1.01-.86-1.01-.53 0-.9.37-1.14.77V31h-1v-5Zm-25.8.68V26h4.5v.52l-3.48 3.72H23V31h-5v-.7l3.51-3.62H18.2ZM27 26h-1v5h1v-5Z" fill="#fff"/><defs><linearGradient id="a" x1="4" y1="28" x2="52" y2="28" gradientUnits="userSpaceOnUse"><stop stop-color="#007090"/><stop offset=".24" stop-color="#007998"/><stop offset=".42" stop-color="#3FA3BB"/><stop offset=".66" stop-color="#F6FBFE"/><stop offset=".86" stop-color="#52A8BE"/><stop offset="1" stop-color="#018FAC"/></linearGradient></defs></svg>