<!-- by TradingView --><svg width="56" height="56" viewBox="0 0 56 56" xmlns="http://www.w3.org/2000/svg"><path fill="#F0F3FA" d="M0 0h56v56H0z"/><path fill-rule="evenodd" d="M28 44a16 16 0 1 0 0-32 16 16 0 0 0 0 32Zm.29-26.35c.39-.52.97-1.74.14-2.55L26.28 13c.13.58.26 1.87-.29 2.4l-9.61 9.39a4.51 4.51 0 0 0 0 6.5l3.5 3.41a5.87 5.87 0 0 0 8.15 0l.6-.58A4.58 4.58 0 0 0 30 31a4.54 4.54 0 0 0-.6-2.52l-1.02-1.72c-.5-.84-.36-1.91.35-2.6a2.55 2.55 0 0 1 3.54 0l2.19 2.14a2.65 2.65 0 0 1 0 3.8l-8.67 8.46c-.36.6-.64 1.65.07 2.34l2.15 2.1c-.13-.58-.26-1.87.29-2.4L41 28.2l-6.66-6.5a5.75 5.75 0 0 0-4.07-1.7 6.03 6.03 0 0 0-4.08 1.7l-.6.59a4.59 4.59 0 0 0-.77 5.6l1.03 1.78c.49.84.34 1.9-.36 2.58-.97.95-2.56.95-3.53 0l-2.37-2.31a2.65 2.65 0 0 1 0-3.81l8.7-8.48Z" fill="#0168B7"/></svg>