<!-- by TradingView --><svg width="56" height="56" viewBox="0 0 56 56" xmlns="http://www.w3.org/2000/svg"><path fill="url(#at2emldf4)" d="M0 0h56v56H0z"/><path d="M5.85 29c-.53 0-.96-.13-1.3-.4A1.5 1.5 0 0 1 4 27.44h1.35c.01.17.06.3.14.37.08.08.19.12.32.12.12 0 .21-.03.28-.1a.32.32 0 0 0 .12-.25.37.37 0 0 0-.19-.34 3.2 3.2 0 0 0-.6-.26c-.3-.1-.54-.2-.73-.3a1.5 1.5 0 0 1-.48-.44 1.3 1.3 0 0 1-.2-.75 1.37 1.37 0 0 1 .83-1.31c.26-.12.55-.18.88-.18.53 0 .95.13 1.26.4.32.26.5.64.52 1.11H6.12c0-.14-.05-.25-.13-.33a.42.42 0 0 0-.3-.1c-.1 0-.18.02-.24.08s-.09.15-.09.26c0 .09.04.17.1.24.07.06.15.12.25.17l.44.18c.29.1.53.21.71.32.2.1.35.25.49.44.13.18.2.42.2.7a1.4 1.4 0 0 1-.8 1.33c-.25.13-.55.2-.9.2ZM9.4 25v1H11v.99H9.4V28H11v1H8v-5h3v1H9.4ZM17 24v5h-1.27v-2.74L14.87 29h-1.06L13 26.24V29h-1.32v-5h1.53l1.15 3.24L15.47 24H17ZM23.03 24v5h-1.26v-2h-1.55v2h-1.26v-5h1.26v2h1.55v-2h1.26ZM25.94 29a2.26 2.26 0 0 1-2.03-1.21c-.2-.38-.3-.81-.3-1.3 0-.47.1-.9.3-1.28a2.31 2.31 0 0 1 3.2-.9c.36.22.65.52.85.9.2.38.31.8.31 1.29 0 .48-.1.9-.3 1.29A2.26 2.26 0 0 1 25.94 29Zm0-1.26c.32 0 .58-.11.76-.34.2-.22.29-.53.29-.9 0-.4-.1-.7-.29-.92a.93.93 0 0 0-.76-.34.94.94 0 0 0-.77.34c-.18.23-.28.53-.28.92 0 .38.1.68.28.9.19.23.44.34.77.34ZM30.27 28h1.41v1H29v-5h1.27v4ZM33.82 24c1.38 0 2.37 1.19 2.37 2.51 0 1.34-1 2.49-2.37 2.49h-1.8v-5h1.8Zm-.1 4c.74 0 1.19-.7 1.19-1.49 0-.8-.45-1.51-1.19-1.51h-.44v3h.44ZM38 24v5h-1.23v-5H38ZM43 29h-1.3l-1.68-2.77V29h-1.27v-5h1.27l1.69 2.84V24H43v5ZM46.6 25.68a.75.75 0 0 0-.3-.3.9.9 0 0 0-.45-.1.93.93 0 0 0-.76.33c-.18.22-.27.52-.27.9 0 .41.1.73.3.95.2.22.48.33.85.33.45 0 .84-.36 1.03-.79h-1v-1h2.02v1.49a2.47 2.47 0 0 1-1.17 1.28c-.3.14-.62.22-1 .22a2.18 2.18 0 0 1-2.03-1.19c-.19-.38-.28-.81-.28-1.3 0-.48.1-.9.28-1.28.2-.37.47-.67.82-.87.35-.22.75-.32 1.2-.32.58 0 1.05.15 1.43.44.37.3.6.7.7 1.21H46.6ZM50.3 29c-.53 0-.96-.13-1.3-.4a1.5 1.5 0 0 1-.55-1.16h1.35c.01.17.06.3.14.37.08.08.19.12.32.12.11 0 .2-.03.28-.1a.32.32 0 0 0 .12-.25.37.37 0 0 0-.2-.34 3.2 3.2 0 0 0-.6-.26c-.3-.1-.54-.2-.72-.3a1.5 1.5 0 0 1-.48-.44 1.3 1.3 0 0 1-.2-.75 1.37 1.37 0 0 1 .83-1.31c.26-.12.55-.18.88-.18.52 0 .95.13 1.26.4.32.26.49.64.51 1.11h-1.37c0-.14-.05-.25-.13-.33a.42.42 0 0 0-.3-.1c-.1 0-.18.02-.24.08s-.09.15-.09.26c0 .09.03.17.1.24.07.06.15.12.25.17l.44.18c.29.1.52.21.7.32.2.1.36.25.5.44.13.18.2.42.2.7a1.4 1.4 0 0 1-.8 1.33c-.25.13-.55.2-.9.2ZM17.23 34h1.36v1H16v-5h1.23v4ZM20.23 30v5H19v-5h1.23ZM26.14 30v5H24.9v-2.76L24.08 35h-1.02l-.84-2.78V35h-1.23v-5h1.49l1.1 3.25L24.66 30h1.48ZM28 30v5h-1.23v-5H28ZM32 30v1h-1v4h-1.32v-4H28.5v-1H32ZM33.76 31v1h1.59v.99h-1.6V34h1.6v1h-2.82v-5h2.82v1h-1.6ZM37.7 30c1.42 0 2.3 1.14 2.3 2.5 0 1.34-.9 2.5-2.3 2.5H36v-5h1.7Zm-.1 4c.72 0 1.16-.69 1.16-1.5 0-.83-.44-1.5-1.15-1.5h-.43v3h.43Z" fill="#F0F3FA"/><defs><linearGradient id="at2emldf4" x1="10.42" y1="9.71" x2="68.15" y2="76.02" gradientUnits="userSpaceOnUse"><stop stop-color="#1A1E21"/><stop offset="1" stop-color="#06060A"/></linearGradient></defs></svg>