<!-- by TradingView --><svg width="56" height="56" viewBox="0 0 56 56" xmlns="http://www.w3.org/2000/svg"><path fill="#F0F3FA" d="M0 0h56v56H0z"/><path d="M24.02 42C38.1 42 45.2 26.76 47 19.14c-5.14 2.95-10.47 2.4-16.61 3.45a9.22 9.22 0 0 0-7.37 6.93c2.9-2.71 5.74-3.13 6.98-3.1-8.08 2.92-8.71 6.1-8.21 7.27 2-3 10.9-5.28 15.21-5.91-1.58 2.62-6.06 7.99-12.21 7.99-7.7 0-8.79-5.3-8.79-7 0-7.28 7.1-11.17 10.93-11.17a9.57 9.57 0 0 1 6.42 2.64L37 18.49C35.24 17.33 30.6 15 26.93 15 18 15 11 23.38 11 30.52 11 37.66 16.96 42 24.02 42Z" fill="url(#a)"/><defs><linearGradient id="a" x1="29" y1="15" x2="29" y2="42" gradientUnits="userSpaceOnUse"><stop stop-color="#A5CA0B"/><stop offset="1" stop-color="#008A3E"/></linearGradient></defs></svg>