<!-- by TradingView --><svg width="56" height="56" viewBox="0 0 56 56" xmlns="http://www.w3.org/2000/svg"><path fill="#F0F3FA" d="M0 0h56v56H0z"/><path d="M4 28.84v-.67c.17-1.05.68-1.74 1.52-2.05 1.24-.47 2.6.5 2.81 1.93.5 3.24-3.73 4.25-4.33.79Zm.8-.33c0 1.59.45 2.38 1.37 2.39.92 0 1.38-.79 1.39-2.38 0-1.58-.46-2.38-1.38-2.38-.92 0-1.38.78-1.38 2.37ZM36.34 26.41l.01-.22.03-.06a.1.1 0 0 1 .05-.04c.08-.01.12.01.12.07a29.4 29.4 0 0 1-.05 1.43l-.02.02c-.04.02-.06 0-.07-.03-.1-.82-.68-1.45-1.42-1.43-1.41.03-1.33 2.09-1.18 3.26.14 1.1.7 1.56 1.69 1.38.07-.02.2-.1.36-.25.09-.07.13-.2.14-.4v-1.5c0-.08-.04-.12-.1-.12h-.44c-.03 0-.04-.01-.05-.04-.01-.03-.01-.05 0-.07 0-.02.02-.03.02-.03h1.75l.01.01V28.5c0 .02 0 .03-.02.03h-.36c-.05 0-.09.05-.1.15l.02 1.3c.01.41-.14.58-.45.73-1.51.72-3.07.1-3.28-1.9-.22-2 1.52-3.68 3.17-2.32a.1.1 0 0 0 .1.01.1.1 0 0 0 .05-.03.12.12 0 0 0 .02-.06Z" fill="#AC0314"/><path d="M8.47 31H8.4a.17.17 0 0 1-.08-.07.08.08 0 0 1 0-.08l.03-.02h.03c.35 0 .52-.19.5-.6-.02-1.49-.03-2.78-.01-3.87 0-.05-.02-.1-.05-.14a.19.19 0 0 0-.13-.07l-.42-.04-.01-.02v-.05c0-.03 0-.04.03-.04h1.17c.03 0 .06.01.08.03.03.01.05.03.06.05l2.14 3.35c.06.08.09.07.09-.03v-3.11a.13.13 0 0 0-.03-.09.1.1 0 0 0-.08-.03h-.38c-.03 0-.05-.02-.05-.05v-.07c0-.03.02-.05.04-.05h1.24l.02.01.01.03v.06l-.5.06c-.07.01-.1.06-.1.14v4.4c0 .26-.08.28-.21.07l-2.66-4.15c-.09-.13-.13-.11-.13.05v3.98c0 .1.05.15.14.15h.4v.02h.01v.02l-.02.08c0 .03-.02.04-.05.04a2.74 2.74 0 0 0-1 .04ZM13.08 31h-.07c-.29-.12-.2-.19.27-.22.06 0 .08-.04.08-.1v-4.35c0-.06-.02-.1-.08-.13a1.03 1.03 0 0 0-.44-.1v-.06c0-.03.02-.04.04-.04h3.45c.08 0 .11.04.1.13l-.06.97v.01l-.02.02h-.1c-.02 0-.04-.02-.03-.05.04-.5-.12-.79-.5-.85a6.16 6.16 0 0 0-1.7-.01.1.1 0 0 0-.02.06v4.36a.18.18 0 0 0 .04.12l.05.04h.06c.2 0 .51 0 .95-.02.74-.02 1.22-.21 1.12-1.15 0-.05.01-.07.06-.07h.07c.03 0 .05.03.05.06v1.18c0 .06-.09.2-.15.2h-3.17ZM19.07 28.63c.03.11.05.11.08 0l.63-2.53c.01-.07.05-.1.11-.1h1.4c.02 0 .04.01.05.03v.06c0 .01 0 .02-.02.03l-.19.06c-.06.02-.13.06-.13.13v4.32c0 .14.21.2.3.22.02.01.03.03.03.05l-.02.07a5.1 5.1 0 0 0-1.55-.01c-.22.02-.23-.02-.04-.15l.11-.01c.06 0 .17-.04.17-.11v-3.94c0-.4-.13-.38-.22 0l-.92 3.73c-.17.7-.34.7-.5 0l-.86-3.57c-.09-.37-.13-.37-.13.02v3.67c0 .07.03.13.08.17a.5.5 0 0 0 .22.07c.02 0 .03.03.03.05l-.02.06a1.25 1.25 0 0 0-.62-.02c-.27.07-.29.02-.05-.15a.56.56 0 0 0 .11-.18.5.5 0 0 0 .05-.22l.01-4.04c0-.07-.03-.12-.09-.15a.31.31 0 0 0-.18-.01c-.03 0-.05 0-.05-.04l-.02-.08c-.01-.04 0-.06.03-.06h1.48c.03 0 .05.01.07.03l.05.08.6 2.52ZM21.91 26.21a.41.41 0 0 1-.14-.09c-.08-.08-.07-.12.04-.12h2.37c.08 0 .12.05.12.15v1.04c0 .13-.02.14-.08.03-.29-.56-.35-1.15-1.09-1.04a.1.1 0 0 0-.06.04c-.02.02-.07.05-.07.08v1.96c0 .08.08.12.15.12.34-.04.5-.61.58-.98.02-.04.04-.05.08-.03l.03.05a8.24 8.24 0 0 0 .02 1.88c0 .05 0 .08-.04.1-.03 0-.06 0-.1-.02a.09.09 0 0 1-.04-.06l-.14-.61c-.02-.1-.07-.15-.16-.16l-.23-.02h-.04a.1.1 0 0 0-.03.03.11.11 0 0 0-.03.04c0 .01-.05.03-.05.05v2.1c0 .07.08.1.14.1.8-.04.9-.56 1.13-1.37 0-.02.02-.03.04-.03l.05.02c.01 0 .02.01.02.03l-.1 1.35c0 .08-.04.15-.1.15h-2.36l-.04-.01a.08.08 0 0 1-.03-.04v-.04l.03-.02c.06 0 .1-.02.14-.05a.18.18 0 0 0 .08-.15v-4.34a.14.14 0 0 0-.09-.14ZM28.01 28.5c0 2.9-1.55 2.4-3.26 2.5l-.02-.01-.02-.07c0-.03 0-.05.03-.05.09 0 .16-.03.2-.09.03-.04.06-.1.06-.19v-4.18a.28.28 0 0 0-.07-.2.26.26 0 0 0-.2-.08c-.02 0-.03-.01-.03-.05l.02-.07.02-.01c1.7.1 3.27-.41 3.27 2.5ZM26 26.2v4.6l.42-.01c.3-.18.58-.56.58-.88v-2.8c0-.4-.34-.96-.8-.96h-.08l-.03.01-.09.04ZM31.4 30.72l-.22-1c-.01-.07-.05-.1-.11-.1h-.62c-.06 0-.1.03-.1.09l-.21.9c-.03.11 0 .18.1.2.08.03.14.07.2.12.04.05.03.07-.03.07h-2.08c-.1 0-.1-.03-.02-.09l.1-.07c.06-.04.09-.1.09-.18v-4.31c0-.04 0-.07-.02-.1a.13.13 0 0 0-.07-.05.23.23 0 0 1-.1-.07c-.07-.09-.06-.13.04-.13h1.35c.1 0 .1.04.03.11a.7.7 0 0 1-.15.11c-.04.03-.07.08-.07.14v4.42c0 .1.04.13.12.1l.2-.06c.02 0 .05-.03.07-.05a794.6 794.6 0 0 0 1.08-4.46c.04-.2.09-.29.14-.3h.23c.06 0 .1.05.12.12.08.4.4 1.87.97 4.4.05.21.13.26.22.41.03.04.02.06-.02.06h-1.42c-.04 0-.05-.02-.02-.05a.27.27 0 0 1 .13-.08c.07-.03.1-.08.07-.15Zm-.85-1.54h.4c.08 0 .11-.05.1-.15l-.12-.67c-.1-.57-.2-.57-.26 0a7.07 7.07 0 0 1-.17.79l.02.02h.03ZM38.81 31h-1.76c-.02 0-.03-.04-.03-.05a.06.06 0 0 1-.02-.04v-.06c0-.02 0-.03.02-.04l.03-.02h.42c.09 0 .13-.04.13-.13v-4.38c0-.08-.04-.13-.12-.13h-.45l-.01-.01-.02-.05c-.02-.06 0-.08.04-.08 1.13-.02 1.9 0 2.32.02.8.06 1.3 1.06.78 1.8-.14.2-.5.34-.71.47-.15.09-.14.14.03.15.4.03.64.3.7.8a21.72 21.72 0 0 0 .23 1.47l.08.06c.08.04.18.04.3-.01.03 0 .05 0 .06.03v.05c0 .02 0 .03-.02.03-.45.14-.82.05-1.11-.26a.36.36 0 0 1-.08-.2l-.18-1.33c-.1-.66-.58-.68-1.08-.62-.07.01-.1.06-.1.14v2.03c0 .06.02.09.07.1.44.03.6.12.48.26Zm-.55-4.83v2.1a.05.05 0 0 0 .01.03l.01.01h.4a1 1 0 0 0 .71-.3c.19-.18.3-.45.3-.72v-.14c0-.27-.11-.53-.3-.72a1 1 0 0 0-.71-.3h-.4a.04.04 0 0 0-.02.03v.01ZM42.61 31c-.51 0-1-.27-1.36-.73a2.91 2.91 0 0 1-.57-1.77c0-.33.05-.66.15-.96.1-.3.24-.58.42-.81.18-.23.4-.42.63-.54.23-.13.48-.2.74-.19.51 0 1 .27 1.36.73.37.47.57 1.11.57 1.77 0 .33-.05.66-.15.96-.1.3-.24.58-.42.81-.18.23-.4.42-.63.54-.23.13-.49.2-.74.19Zm0-.08c.17 0 .34-.06.49-.19.15-.12.3-.3.4-.52.13-.23.22-.5.28-.79a4.41 4.41 0 0 0-.28-2.63c-.23-.46-.56-.7-.9-.7a.78.78 0 0 0-.47.18c-.16.12-.3.3-.41.52-.12.23-.21.5-.28.79a4.4 4.4 0 0 0 .28 2.63c.24.46.56.7.9.7ZM44.88 26.17h-.38c-.03 0-.04-.02-.04-.05v-.07c0-.03.01-.05.04-.05h1.72c.02 0 .03.01.03.04v.07c0 .03 0 .04-.03.04h-.5c-.08 0-.12.05-.12.14-.01 1.85 0 3.05.02 3.58.07 1.27 1.62 1.2 2.18.45.15-.2.21-.49.2-.9v-3.08c0-.03-.02-.06-.04-.08a.13.13 0 0 0-.06-.06 1.16 1.16 0 0 0-.53-.06V26.06c0-.05.01-.07.05-.07h1.04c.19 0 .2.04.02.12l-.23.1c-.06.03-.1.08-.1.15-.01.64 0 1.72.01 3.22.02 1.55-1.76 1.62-2.65 1.17-.35-.17-.5-.53-.51-1.07v-3.41c0-.08-.06-.11-.12-.11ZM52 27.38c0 1.04-.97 1.47-1.89 1.3a.08.08 0 0 0-.07.02.1.1 0 0 0-.03.03v1.86c0 .03 0 .07.02.1.01.03.03.06.06.08a.19.19 0 0 0 .19.03c.14-.05.24-.04.3.03l.02.03c0 .03-.04.14-.05.14H48.9l-.08-.05c-.05-.04-.06-.07 0-.11.06-.04.16-.05.3-.02h.09a.2.2 0 0 0 .08-.05.23.23 0 0 0 .05-.08.25.25 0 0 0 .02-.1V26.3c0-.02 0-.05-.02-.07a.15.15 0 0 0-.04-.05.13.13 0 0 0-.13-.02.44.44 0 0 1-.4-.02c-.1-.06-.1-.13.02-.14h1.68c.88 0 1.53.5 1.53 1.38Zm-2-1.06v2.08c0 .03.03.07.05.1.02.02.05.03.09.03h.32c.11 0 .23-.02.33-.08.11-.05.2-.12.29-.22a1.15 1.15 0 0 0 .26-.72v-.32c0-.27-.1-.53-.26-.72a.83.83 0 0 0-.63-.3h-.32l-.04.02a.12.12 0 0 0-.04.03.14.14 0 0 0-.03.04l-.02.06Z" fill="#AC0314"/><path d="M15.58 28.73c-.25-.32-.97-.2-1.48-.23-.01 0-.02 0-.01-.01l.01-.06c.01-.04.04-.06.07-.06.7 0 1.47.2 1.54-.81 0-.03.02-.05.04-.06l.06-.02c.02 0 .03 0 .03.02v1.72c0 .12-.03.13-.1.03a.53.53 0 0 1-.08-.3.33.33 0 0 0-.08-.22Z" fill="#AC0314"/></svg>