<!-- by TradingView --><svg width="56" height="56" viewBox="0 0 56 56" xmlns="http://www.w3.org/2000/svg"><path fill="#F0F3FA" d="M0 0h56v56H0z"/><path d="M32.82 43.26a16 16 0 1 0-.53.16c5.64-3.1 7.11-8.33 6.93-10.9-.6-8.51-7.83-10.86-11.18-10.93v7.4c1.19-.04 3.57.62 3.6 3.52.03 2.9-2.37 3.6-3.6 3.6a8.07 8.07 0 0 1-8.23-8.07c0-3.63 3.04-8.15 8.23-8.19 5.2-.04 12.03 4.14 12.03 12.03 0 6.13-3.99 9.48-7.25 11.38Z" fill="#BE8C4B"/><path d="M28 12a16 16 0 1 0 4.29 31.42c5.64-3.1 7.11-8.33 6.93-10.9C38.62 24 31.35 21.65 28 21.58v7.4c1.19-.04 3.61.62 3.64 3.52.03 2.9-2.37 3.6-3.6 3.6a8.07 8.07 0 0 1-8.23-8.07c0-3.62 3.02-8.12 8.19-8.19V12Z" fill="#640000"/></svg>