<!-- by TradingView --><svg width="56" height="56" viewBox="0 0 56 56" xmlns="http://www.w3.org/2000/svg"><path fill="#F0F3FA" d="M0 0h56v56H0z"/><path d="M10.23 20c-1.63.86-3.16 2.25-3.16 4.25 0 1.84.78 2.74 1.52 3.6.69.8 1.35 1.57 1.35 3.02 0 1.5-.78 2.5-1.7 3.13H6V20h4.23Zm1.58 0c-1.17.61-2.13 1.6-2.13 3.13 0 1.5.74 2.4 1.47 3.3.75.92 1.5 1.84 1.5 3.39 0 1.9-1.48 3.3-3 4.18H14V20h-2.2Z" fill="#F50C2B"/><path d="M50 27v1.5h-2.07c-1.3 0-2.32.18-2.43 1.5H50v1h-4.5c.11 1.2.97 1.5 2.5 1.5h2V34h-2.07C45.58 34 44 32.99 44 30.45c0-2.04 1.3-3.45 3.31-3.45H50ZM39 27h1.5v3.93c.07 1.51.53 1.57 2.06 1.57h1.11L45 34h-2.6c-2.19 0-3.4-.77-3.4-3.07V27ZM33.5 31.55V34H32v-7h3.36c1.46 0 2.64.66 2.64 2.28 0 1.4-.91 2.27-2.27 2.27H33.5Zm0-1.24h1.88c.7 0 1.05-.37 1.05-1.09 0-.67-.4-.97-1.02-.97H33.5v2.06ZM25.2 27l1.76 5.47L28.8 27H31v7h-1.5v-5.26L27.72 34h-1.55l-1.67-5.26V34H23v-7h2.2ZM15 34l2.7-7h1.6l2.7 7h-1.63l-.62-1.75h-2.49L16.63 34H15Zm3.5-5.32L17.57 31h1.86l-.93-2.32Z" fill="#312E2B"/></svg>