<!-- by TradingView --><svg width="56" height="56" viewBox="0 0 56 56" xmlns="http://www.w3.org/2000/svg"><path fill="#CF281E" d="M0 0h56v56H0z"/><path fill-rule="evenodd" d="M12.04 25.16c-.3.5-.55.97-.74 1.38-.3.67-.38 1.4-.22 2.19.14.73.53 1.44.9 2.12l.11.18c3.2 5.8 8.18 10.32 14.07 13.48 1.21.65 2.45.65 3.72 0a35.6 35.6 0 0 0 8.79-6.24 28.77 28.77 0 0 0 5.52-7.58c.82-1.61 1.17-2.93.33-4.63a29.28 29.28 0 0 0-6.29-8.35 46.32 46.32 0 0 0-7.46-5.65c-.42-.27-.85-.53-1.3-.74a3.5 3.5 0 0 0-3.31.21 39.9 39.9 0 0 0-9.37 7.3 35.76 35.76 0 0 0-4.75 6.33Zm26.28 11.47a25.54 25.54 0 0 0 4.15-5.82c.27-.51.5-1 .68-1.48a3.7 3.7 0 0 0-.2-3.13A26.5 26.5 0 0 0 37.58 19a42.58 42.58 0 0 0-7.8-5.87 3.28 3.28 0 0 0-3.53 0C20.69 16.33 16 20.8 13 26.4c-.37.7-.48 1.44-.34 2.23.06.33.21.75.46 1.25a28.74 28.74 0 0 0 7.35 9.15 36.21 36.21 0 0 0 5.25 3.6c.7.41 1.3.66 1.75.73.73.13 1.5-.01 2.3-.42a31.82 31.82 0 0 0 8.55-6.3Z" fill="#fff"/><path fill-rule="evenodd" d="M29.59 18.24a.06.06 0 0 0 .04.03.06.06 0 0 0 .05 0c.34-.3.74-.44 1.2-.44l.17.02c.06.01.12.03.2.02a.1.1 0 0 0 .07-.04 1.91 1.91 0 0 1 3.35.1c.2.38.23.8.2 1.21-.01.36.18.55.57.57.37.03.74.02 1.11-.03.13-.02.25 0 .38.03.03 0 .07.03.1.07l.02.11c-.03.24-.12.45-.27.63-.6.76-1.4 1.13-2.4 1.11a4.46 4.46 0 0 1-1.69-.35.94.94 0 0 0-.71.02 3 3 0 0 1-.87.22c-.1 0-.11.04-.02.1.22.15.58.2.88.24l.17.02c.65.1 1.2.5 1.4 1.13.06.22.15.43.26.63a.21.21 0 0 0 .18.11l.85.06c1.32.12 2.12.85 2.63 1.98a7.24 7.24 0 0 0 1.85 2.58 5.9 5.9 0 0 0 1.53.91.13.13 0 0 1-.06.2.66.66 0 0 1-.24.05c-1.32.03-2.63-1.27-3.4-2.27-.2-.27-.38-.57-.54-.88-.37-.68-.75-1.35-1.53-1.57-.32-.09-.53 0-.61.26-.2.63 1.02 2.28 1.58 3.05a35.92 35.92 0 0 1 .15.24.08.08 0 0 1-.03.05.11.11 0 0 1-.08.02c-.49-.05-.93-.45-1.25-.8a7.5 7.5 0 0 1-1.48-2.5l-.55-1.49c-.14-.38-.46-.88-.92-.88-.42 0-.64.5-.62.85.02.33.08.68.2 1.06.48 1.54 1.28 2.8 2.19 4.14.1.15.07.27-.09.37a.1.1 0 0 1-.1 0 2.01 2.01 0 0 1-.78-.56 10.16 10.16 0 0 1-2.27-4.64l-.27-1.4a1.37 1.37 0 0 0-.12-.41c-.31-.58-.56-1.1-.75-1.56-.56-1.35-.85-2.8-1.07-4.27a.18.18 0 0 0-.06-.12.03.03 0 0 0-.03 0 .02.02 0 0 0-.01.02c-.3 1.43-.51 2.83-.64 4.17-.01.13-.04.25-.08.38a28.59 28.59 0 0 0-.9 3.65c-.09.47-.13.97-.14 1.5 0 .13-.04.24-.12.36-.57.89-1.07 1.61-1.5 2.19-.2.27-.77 1.04-1.12 1.05a.1.1 0 0 1-.1-.13c.09-.38.26-.72.47-1.05l.95-1.5c.2-.3.38-.72.43-1.12l.26-1.59c.18-1.1.48-2.24.87-3.38l.01-.04c.11-.31.3-.88-.1-1.02-.33-.1-.7.23-.85.48-.26.45-.42.96-.47 1.52l-.03.29c-.05.51-.1 1.02-.2 1.54-.1.4-.19.82-.27 1.22a6.91 6.91 0 0 1-.97 2.51c-.33.5-.73.99-1.2 1.47-.33.35-.7.62-1.1.83-.13.06-.17.03-.12-.11a135.18 135.18 0 0 0 1.5-2.43c.2-.31 1.34-2.2.24-2.14-.19 0-.34.18-.43.33l-.36.64a8.32 8.32 0 0 1-.95 1.5c-.34.38-.8.57-1.25.76-.29.11-.57.23-.8.39l-.25.16c-.68.47-1.6 1.1-2.4.94h-.02a.06.06 0 0 1-.02-.05v-.03a.3.3 0 0 1 .15-.16c.75-.36 1.4-.79 1.96-1.29.38-.34.82-.58 1.28-.78.13-.06.27-.16.4-.28a4.1 4.1 0 0 0 1.21-2.06c.1-.55-.27-.95-.82-.68l-.31.16a3 3 0 0 1-.7.3 2.24 2.24 0 0 1-2.83-2.49c.16-1.31 1.22-2.06 2.5-2a.1.1 0 0 0 .11-.09c.3-1.73 2.68-1.76 3.51-.45.3.46.4 1.06.19 1.59-.17.41-.33.92.04 1.27.5.48 1.06-.02 1.07-.57.02-1.6.37-3.01 2.2-3.35.02-.01.04-.03.05-.06l.14-.54.54-2.31c.12-.52.28-.96.48-1.34.12-.24.45-.45.7-.27.43.3.6 1.05.7 1.54.15.88.34 1.74.58 2.57Zm2.02.55a1.29 1.29 0 0 1 1.98-.61c.4.3.48.74.51 1.21.06.92.94 1.14 1.7 1.02a.03.03 0 0 1 .03.02.03.03 0 0 1 0 .03.22.22 0 0 1-.07.08 2.2 2.2 0 0 1-2.13.12c-.57-.29-1.12-.53-1.74-.2l-.44.25c-.43.23-.97.08-1.26-.29-.48-.6-.23-1.5.55-1.66.24-.06.5-.03.77.07.05.02.08 0 .1-.04ZM21.09 19.8c-.6.06-.9.67-.93 1.23 0 .06-.03.08-.1.06-.7-.28-1.27-.17-1.73.33-.63.71-.4 1.79.43 2.22.57.3.95.11 1.43-.12l.15-.07c.5-.24 1.16-.26 1.68.03.47.25.99.49 1.53.4.03 0 .05-.02.07-.05a.1.1 0 0 0-.03-.12.1.1 0 0 0-.04-.02c-.56-.1-1.1-.26-1.5-.68-.29-.3-.36-.8-.23-1.2l.08-.25c.17-.5.36-1.04-.03-1.47a.88.88 0 0 0-.78-.3Z" fill="#fff"/><path d="m37.97 34.19-.03-.16c-.02-.02-.03-.03-.05-.03h-3.82c-.05 0-.08.15-.1.2-.13.2-.26.33-.53.31-.29 0-.44-.31-.44-.6v-2.48c0-.17.06-.3.2-.41.42-.36.8-.03.8.45v1.45l.04.05c.01 0 .03.03.05.03h1.4c.05 0 .08-.04.08-.09v-1.97c0-.31-.04-.68.27-.87.37-.23.78.14.78.54a351.16 351.16 0 0 1 .02 2.36l.02.01.03.02h1.26c.03 0 .05-.03.05-.07V31.6c0-.31.16-.55.42-.68a.14.14 0 0 1 .11 0c.18.05.33.16.44.31.02.03.03.07.03.1v2.87c0 .1-.06.15-.15.15l-.78-.01c-.04 0-.07-.02-.08-.07l-.02-.08ZM30.55 30h-4.9c-.2 0-.36.19-.36.42v.15c0 .23.16.43.35.43h4.9c.2 0 .36-.19.36-.42v-.15c0-.23-.16-.43-.35-.43Z" fill="#fff"/><path fill-rule="evenodd" d="M30.26 32.56c0-.02 0-.04.02-.06l.03-.03h.03l.65-.02c.22 0 .33-.12.33-.34v-.17c-.04-.22-.18-.34-.4-.34-2-.03-3.88-.03-5.65-.02-.1 0-.17.04-.24.1-.24.25-.24.5 0 .78.03.03.07.05.1.05h.46a.07.07 0 0 1 .08.06v.03c-.03.11-.08.22-.13.3l-.55.92c-.1.14-.08.28.02.42.26.36.48.25.73.12.13-.07.27-.14.43-.14H30a.7.7 0 0 1 .35.11c.1.06.2.11.33.1.32-.01.74-.23.45-.6a11.4 11.4 0 0 1-.88-1.27ZM29 32.5h-2.04a.14.14 0 0 0-.12.06l-.43.65a.14.14 0 0 0 .12.2l2.81.01a.14.14 0 0 0 .14-.13c0-.03 0-.05-.02-.07l-.34-.65a.14.14 0 0 0-.12-.07ZM19.1 30.48h3.2c.42 0 .7.18.7.6v2.89c0 .4-.28.5-.62.5-1.86.02-3.53.02-5.03.02-.23 0-.35-.12-.35-.37V32.1c0-.03 0-.06-.02-.09a.17.17 0 0 0-.07-.06 4.08 4.08 0 0 1-.5-.28c-.23-.16-.35-.5-.03-.66l.92-.5a6 6 0 0 0 1.11-.95.15.15 0 0 1 .1-.05c.24-.03.5.27.64.45.11.15.09.3-.07.45-.04.05-.03.07.03.07Zm2.55.87H18.5c-.1 0-.2.1-.2.2v.34c0 .12.1.21.2.21h3.16c.11 0 .2-.1.2-.2v-.34c0-.12-.09-.21-.2-.21Zm-3.18 1.51h3.1c.11 0 .2.09.2.2v.2c0 .12-.09.22-.2.22h-3.1c-.11 0-.2-.09-.2-.2v-.2c0-.12.09-.22.2-.22Z" fill="#fff"/></svg>