<!-- by TradingView --><svg width="56" height="56" viewBox="0 0 56 56" xmlns="http://www.w3.org/2000/svg"><path fill="#F0F3FA" d="M0 0h56v56H0z"/><path d="M12.97 31.06c.03.13.06.13.08 0l2.39-13.63c0-.03-.01-.05-.04-.05h-1c-.08 0-.13-.04-.13-.12v-.14c0-.08.04-.12.13-.12h2.46c.1 0 .14.04.14.13v.13c0 .08-.04.12-.13.12h-1.01c-.05 0-.08.03-.1.07l-3.27 19.4c-.03.2-.08.2-.13.01v-.22l-4.09-19.2c0-.04-.03-.06-.07-.06H7.1c-.07 0-.11-.03-.11-.1v-.16c0-.08.04-.12.12-.12h4.25c.08 0 .11.04.1.11l-.04.2c0 .05-.03.08-.08.08h-1.23c-.05 0-.07.02-.06.07l2.91 13.6Zm27.68-2.55c0-2.9.52-5.3 1.55-7.2.22-.41.52-.76.87-1.05.47-.38 1-.34 1.56.12.43.35.78.82 1.07 1.4.59 1.23.97 2.55 1.13 3.97.11.95.17 1.86.17 2.74 0 2.9-.52 5.3-1.55 7.2a3.5 3.5 0 0 1-.87 1.05c-.47.38-1 .34-1.56-.12a4.05 4.05 0 0 1-1.06-1.4c-.6-1.23-.98-2.55-1.14-3.97-.11-.95-.17-1.86-.17-2.74Zm1.47-.04c0 1.5.1 2.97.3 4.42.3 2.42.79 3.63 1.44 3.63.66 0 1.13-1.22 1.4-3.65a36.54 36.54 0 0 0-.05-8.84c-.31-2.42-.8-3.63-1.45-3.63-.66 0-1.12 1.22-1.4 3.65a36.14 36.14 0 0 0-.24 4.42ZM20.7 21.61c.56 1.75.84 3.6.84 5.53 0 .05-.02.08-.06.1l-2.39 1.3c-.04.03-.05.06-.02.1l.17.22c.03.03.06.04.1.02l3.59-1.96a.11.11 0 0 0 .06-.1c-.04-1.72-.4-3.36-1.09-4.92a5.1 5.1 0 0 0-.67-1.13c-.34-.43-.67-.68-1-.74-.6-.12-1.11.13-1.54.75-.47.7-.83 1.53-1.07 2.5-.3 1.2-.5 2.44-.58 3.72-.13 2.17 0 4.09.37 5.76.26 1.17.64 2.17 1.15 3 .77 1.29 1.58 1.57 2.42.86.74-.63 1.27-1.83 1.57-3.6.2-1.17.3-2.38.31-3.63 0-.05-.02-.07-.07-.04l-.14.07c-.06.04-.1.1-.1.18.01 1.38-.15 2.7-.47 4-.36 1.49-.9 2.43-1.6 2.82-.67.38-1.17-.03-1.5-1.24-.2-.72-.32-1.39-.38-2-.34-3.5-.33-6.86.03-10.1a5 5 0 0 1 .71-2.37c.15-.2.3-.3.46-.32.18-.03.33.07.46.28.2.33.34.64.44.94Zm8.84 5.53c0-1.94-.28-3.78-.84-5.53-.1-.3-.25-.61-.44-.94-.13-.21-.28-.3-.46-.28-.16.02-.31.13-.46.32a5 5 0 0 0-.71 2.38c-.36 3.23-.37 6.6-.03 10.09.06.61.19 1.28.38 2 .33 1.2.83 1.62 1.5 1.24.7-.4 1.24-1.33 1.6-2.83.32-1.28.48-2.61.47-4 0-.07.04-.13.1-.17l.14-.07c.05-.03.07-.01.07.04 0 1.24-.11 2.45-.31 3.63-.3 1.77-.83 2.97-1.57 3.6-.84.71-1.65.43-2.42-.85-.5-.84-.9-1.84-1.15-3.01-.38-1.67-.5-3.59-.37-5.76.08-1.28.27-2.52.58-3.73.24-.96.6-1.8 1.07-2.5.43-.61.94-.86 1.55-.74.32.06.65.31.99.74.26.33.48.7.67 1.13.68 1.56 1.05 3.2 1.09 4.92 0 .04-.02.08-.06.1l-3.6 1.96c-.03.02-.07.01-.1-.03l-.16-.21c-.03-.04-.02-.07.02-.1l2.39-1.3a.11.11 0 0 0 .06-.1Zm3.12-9.6v-.19c0-.03.02-.05.05-.06l2.19-.29c.04 0 .09.01.09.06v19.52c0 .03 0 .04.03.04h.7c.04 0 .06.02.06.06v.26c0 .04-.02.06-.05.06h-3.32c-.03 0-.05-.02-.05-.06v-.26c0-.04.02-.06.05-.06h.87c.04 0 .06-.02.06-.05V17.65c0-.04-.02-.06-.06-.06h-.56c-.04 0-.06-.02-.06-.06Zm5.15 19.08c.01 0 .02-.01.02-.03-.88-3.18-1.67-6.06-2.36-8.64-.1-.33-.1-.6-.01-.8.9-2.2 1.68-4.08 2.35-5.65.02-.05 0-.07-.05-.07H37c-.06 0-.09-.03-.09-.1v-.2c0-.09.04-.13.12-.13h1.94c.06 0 .09.03.09.09v.25c0 .06-.03.09-.08.09h-.72c-.05 0-.08.02-.1.06l-1.81 4.54a.23.23 0 0 0-.01.15l2.7 10.36c0 .05.04.08.09.08h.86c.06 0 .1.03.1.09v.2c0 .06-.04.09-.1.09h-3c-.08 0-.12-.04-.12-.13v-.12c0-.09.04-.13.12-.13h.84Z" fill="#EC1A23"/></svg>