<!-- by TradingView --><svg width="56" height="56" viewBox="0 0 56 56" xmlns="http://www.w3.org/2000/svg"><path fill="#F0F3FA" d="M0 0h56v56H0z"/><path d="M32.95 13c.53.15 1.02.4 1.46.73.64.49 1.04.77 1.2.86 1.25.63 2.66 1.02 4.23 1.17.1 0 .1.03.02.08-1.13.59-3.02 1.1-4.3.71a3.8 3.8 0 0 1-1.38-.95c-.8-.77-2.05-1.8-3.19-1.94-.11-.02-.12-.06-.03-.13.34-.24.73-.42 1.17-.53h.82Z" fill="#F08400"/><path d="M44.4 27.87c-1.19-2.36-2.64-4.01-5.38-4.32a1.49 1.49 0 0 0-1.02-.02c-.15.06-.16.04-.04-.06 1.99-1.57 4.96-2.65 6.56.1.76 1.31.54 2.96-.13 4.3Z" fill="#006CB9"/><path d="M44.4 27.87c-.45.96-1.03 1.89-1.75 2.78.1-1.88-.18-3.71-1.97-4.65a3.32 3.32 0 0 0-1.66-2.45c2.74.3 4.2 1.96 5.37 4.32Z" fill="#0C3190"/><path d="M36.26 24.17a15.55 15.55 0 0 0-3.16-6.44 17.57 17.57 0 0 0-5.2-4.4c.27.37.67.85 1.2 1.46a15.66 15.66 0 0 1 4.08 9.27 11.4 11.4 0 0 1-2.74 7.45c-1.73 2.18-3.6 4.62-4.53 7.3 1.8-.22 3.4-.85 5.03-1.6 1.74-1.26 3.64-2.46 4.68-4.47.5-.97.8-2.24.87-3.8.15-.89.16-1.8.05-2.72l-.28-2.05Z" fill="url(#a)"/><path d="m24.42 30.94-.34.47a23.44 23.44 0 0 0-1.88 3.21 8.2 8.2 0 0 0-.83 4.06c.16.83.42 1.53.79 2.1a7.05 7.05 0 0 0 3.2 2.66 4.84 4.84 0 0 1-1.9-5.3c.21-.91.5-1.71.86-2.4a23.3 23.3 0 0 1 1.83-2.87l2.38-2.99a9.88 9.88 0 0 0 1.87-4.41c.28-2.1-.28-4-1.7-5.71a4.07 4.07 0 0 0-3.08-1.52c-.95-.04-1.78 0-2.5.15a16.8 16.8 0 0 0-6.76 2.95 9.02 9.02 0 0 1-6.25.77c-.1-.03-.14.01-.08.11a.9.9 0 0 0 .3.28c1.26.65 2.59.89 4 .73 1.08-.12 2.13-.35 3.16-.7l.96-.3c1.35-.62 2.68-.95 3.97-1 .68-.02 1.37.1 2.05.38a3.9 3.9 0 0 1 1.64 1.2c1.05 1.3 1.23 2.89.53 4.75-.48.94-1.94 2.99-2.22 3.38Z" fill="url(#b)"/><path d="m26.54 27.79.1-.23c.7-1.86.52-3.44-.53-4.75a3.9 3.9 0 0 0-1.64-1.2 5.03 5.03 0 0 0-2.05-.37c-1.3.04-2.62.37-3.97 1l-.96.29c-1.03.35-2.08.58-3.15.7a6.88 6.88 0 0 1-4-.73c.51.57 1.15 1.1 1.91 1.6a5.44 5.44 0 0 0 4.3.8c.85-.18 1.68-.4 2.51-.65.3-.08.71-.1 1.25-.07 1.66.47 2.86 2.27 1.7 3.9-.22.3-.47.57-.76.8a2.6 2.6 0 0 1-1.96.52c-.27-.04-.63-.2-1.08-.5a4.46 4.46 0 0 0-2.6-.7 9.63 9.63 0 0 0-2.74.42c-.1.03-.1.07 0 .12 1.82.9 3.36 1.9 3.39 4.05-.08 1.63-.1 2.7-.05 3.23.33 4.1 2.56 7.54 6.88 7.98h1.64l.99-.2c.09-.01.1-.05.03-.12-.11-.1-.24-.19-.4-.24a7.05 7.05 0 0 1-3.2-2.66 5.97 5.97 0 0 1-.78-2.1 8.2 8.2 0 0 1 .83-4.06 23.44 23.44 0 0 1 1.88-3.2l.34-.48 1.81-2.57.06-.08.11-.23a.9.9 0 0 1 .14-.27Z" fill="url(#c)"/><path d="M42.65 30.65a34.96 34.96 0 0 1-5.34 5.27l-.8-.38a32.96 32.96 0 0 0 2.8-4.4l1.1-2.64c.24-.84.34-1.67.27-2.5 1.79.94 2.07 2.77 1.97 4.65Zm-5.34 5.27-.8-.38-1.75 2.23c-.15.19-.13.21.06.06l2.49-1.91Z" fill="url(#d)"/><path d="M33.35 16.18A13.86 13.86 0 0 0 27.5 13c-.05.15.09.26.4.34 2 1.11 3.74 2.58 5.2 4.39a15.55 15.55 0 0 1 3.16 6.44l.28 2.05c.11.92.1 1.83-.05 2.72a9.23 9.23 0 0 1-.87 3.8c-1.05 2.04-2.72 3.12-4.68 4.47a16.88 16.88 0 0 1-5.03 1.6 3.33 3.33 0 0 0-.25 2.22c.19.8.74 1.25 1.68 1.38l.37.01c.51-.07 1-.22 1.45-.47l1.92-1.36c1.68-1.55 3-3.32 3.93-5.31.76-1.63 1.34-3.4 1.75-5.28.55-2.45.65-4.9.28-7.37a9.66 9.66 0 0 0-.5-1.67 11.68 11.68 0 0 0-3.19-4.78Z" fill="url(#e)"/><defs><linearGradient id="a" x1="31.26" y1="13.34" x2="31.26" y2="38.82" gradientUnits="userSpaceOnUse"><stop stop-color="#006CB9"/><stop offset="1" stop-color="#0C3190"/></linearGradient><linearGradient id="b" x1="28.95" y1="20.75" x2="21.26" y2="37.32" gradientUnits="userSpaceOnUse"><stop stop-color="#006CB9"/><stop offset="1" stop-color="#0C3190"/></linearGradient><linearGradient id="c" x1="18.7" y1="21.23" x2="18.7" y2="44" gradientUnits="userSpaceOnUse"><stop stop-color="#F7B100"/><stop offset="1" stop-color="#F08400"/></linearGradient><linearGradient id="d" x1="41.17" y1="26.3" x2="36.6" y2="36.59" gradientUnits="userSpaceOnUse"><stop stop-color="#006BB8"/><stop offset="1" stop-color="#0C3190"/></linearGradient><linearGradient id="e" x1="31.42" y1="13" x2="31.42" y2="42.42" gradientUnits="userSpaceOnUse"><stop stop-color="#F7B100"/><stop offset="1" stop-color="#F08400"/></linearGradient></defs></svg>