<!-- by TradingView --><svg width="56" height="56" viewBox="0 0 56 56" xmlns="http://www.w3.org/2000/svg"><path fill="#F0F3FA" d="M0 0h56v56H0z"/><path fill-rule="evenodd" d="M33.41 44.12a17 17 0 1 0-19.63-25.48 16.76 16.76 0 0 0-2.78 9.8 16.97 16.97 0 0 0 22.41 15.68Zm6.1-4.6a16.28 16.28 0 1 0-23.04-23.04 16.28 16.28 0 1 0 23.05 23.03Z" fill="#192975"/><path fill-rule="evenodd" d="M24.76 14.2c-.01.1.02.2.11.28a.06.06 0 0 1-.02.1c-.1.04-.19.05-.27.03a.14.14 0 0 1-.1-.13c-.03-.19-.05-.32-.08-.38-.04-.1-.13-.15-.27-.14a.1.1 0 0 0-.1.1v.48c0 .05-.02.1-.05.16l-.14.19c-.04.06-.03.1.04.13.22.09.33.19.35.3l.21 1.13c.02.06.05.12.09.16.04.05.1.08.15.1l.08-.01c.12-.01.17-.05.15-.12l-.28-1.4a.32.32 0 0 1 0-.14c.01-.05.04-.08.07-.1l.04-.02a.14.14 0 0 1 .1 0c.01 0 .03 0 .04.02l.03.04c.11.24.14.48.09.74-.01.06 0 .12.05.16.2.21.44.33.7.34.05 0 .08-.02.07-.08a.93.93 0 0 1-.01-.33c.01-.07.05-.1.12-.09.06.02.1.06.12.13.04.1 0 .22-.1.33-.06.05-.05.09.02.12.17.06.32.05.44-.05a.2.2 0 0 0 .07-.15c0-.22.07-.4.2-.57.05-.06.04-.1-.01-.15l-.05-.03a.22.22 0 0 1-.1-.18 2.19 2.19 0 0 0-.2-.85.23.23 0 0 1-.02-.17l.04-.12a.3.3 0 0 0-.35-.4l-.55.11a.21.21 0 0 0-.15.11.45.45 0 0 1-.41.24c-.08 0-.12.04-.12.11Zm1.03 1.06c-.06.02-.11.03-.19.03h-.09c-.19.12-.17.2.05.25.1.03.2-.04.3-.2.04-.08.02-.1-.07-.08ZM30.29 15.86c.04.07.06.14.06.2-.01.08-.05.12-.13.12h-.92c-.08 0-.12-.04-.13-.12a.27.27 0 0 1 .11-.26.17.17 0 0 0 .08-.14c0-.14.03-.26.1-.36a.25.25 0 0 0 .02-.18l-.07-.33c-.01-.06 0-.1.05-.13l.48-.36c.07-.05.07-.1 0-.13a2.15 2.15 0 0 0-.22-.1c-.07-.03-.12-.08-.14-.13a.16.16 0 0 1 0-.12c.03-.06.08-.1.15-.1h.76c.05 0 .1.03.14.06.1.1.2.16.28.2.06.02.12.02.17-.01.13-.08.29-.12.43-.03.19.1.37.2.55.28.05.02.08.05.1.1.02.03.02.08 0 .12l-.02.08c-.01.02-.03.04-.06.05h-.1c-.24-.08-.41-.1-.5-.07-.34.14-.32.25.06.32l.26.04a.22.22 0 0 1 .14.1.21.21 0 0 1 .03.16c-.07.3-.16.63-.26.96-.13.41-.3.65-.76.53-.08-.02-.13-.07-.15-.13a.43.43 0 0 1 0-.2c0-.04.01-.06.04-.08a.12.12 0 0 1 .08-.02c.15.01.27-.02.35-.1a.2.2 0 0 0 .05-.1l.15-.65a.15.15 0 0 0-.07-.16.48.48 0 0 0-.47-.02.07.07 0 0 0-.02.1c.17.2.26.34.27.46a.16.16 0 0 1-.04.12.16.16 0 0 1-.12.05h-.17c-.08 0-.12-.04-.13-.11v-.07c-.03-.25-.06-.48-.27-.57-.12-.05-.21-.06-.3-.04-.06.03-.07.07-.02.12.19.2.24.35.16.49a.15.15 0 0 0 0 .16Zm.65-1.56a.03.03 0 0 1 .02 0 .03.03 0 0 1 .01.02v.01a.39.39 0 0 1-.1.3.44.44 0 0 1-.28.15l-.06.01a.45.45 0 0 1-.31-.09.4.4 0 0 1-.16-.27v-.03a.03.03 0 0 1 .02-.01l.86-.1Zm-.72 1.43c0 .04-.17.08-.39.08-.21.01-.38-.02-.39-.06 0-.05.18-.09.39-.1.21 0 .39.03.39.08Z" fill="#192975"/><path d="M35.13 17.95c.05.04.1.05.14.04.04-.01.07-.04.1-.08l1.02-1.42c.06-.1.17-.13.3-.1.03.01.05.03.06.05.06.09.08.15.06.18l-.64.89c-.02.02-.02.04 0 .06l.06.04h.03c.18-.22.32-.32.43-.32.4.01.45.14.14.4-.15.12-.34.25-.55.39a.2.2 0 0 1-.17.02.96.96 0 0 0-.24-.05c-.1 0-.17.05-.2.16-.02.06 0 .11.05.15.19.14.4.26.42.42a.2.2 0 0 1-.08.19.18.18 0 0 1-.1.04.2.2 0 0 1-.12-.03 37.77 37.77 0 0 1-1.97-1.47.18.18 0 0 1 0-.11.2.2 0 0 1 .16-.14c.15-.03.34.13.52.26.06.04.11.04.17 0 .09-.06.12-.14.08-.24a.96.96 0 0 0-.12-.2.2.2 0 0 1-.03-.17c.06-.25.13-.47.2-.65.14-.38.28-.37.41 0 .04.1-.01.27-.16.51v.03l.06.04c.03.02.05.01.06-.01l.64-.89c.02-.03.09-.03.2 0 .02 0 .04.02.05.03.08.13.09.23.02.33l-1.04 1.41a.17.17 0 0 0-.04.12c0 .05.03.1.08.12Z" fill="#192975"/><path fill-rule="evenodd" d="m20.23 17.97.02.06c.05.07.05.1 0 .09a.24.24 0 0 1-.15-.1 2.24 2.24 0 0 1-.32-.49.17.17 0 0 0-.14-.1c-.23 0-.4.14-.53.42a.11.11 0 0 0 .06.15l.06.01c.52-.1.7.33.63.79-.01.1.03.18.14.22l.06.02a.12.12 0 0 0 .1 0 .12.12 0 0 0 .06-.08l.1-.28c0-.03.02-.05.04-.07a.15.15 0 0 1 .08-.03 2.84 2.84 0 0 0 1.58-.89.15.15 0 0 0 .04-.14.15.15 0 0 0-.1-.1l-.24-.09a.15.15 0 0 1-.1-.1 3.13 3.13 0 0 0-.63-1.1.08.08 0 0 0-.05 0l-.02.01-.01.01c-.15.15-.28.25-.4.32-.43.25-.5.18-.21-.23l.4-.26c.09-.06.13-.14.13-.25 0-.04 0-.07-.03-.09-.1-.08-.16-.1-.21-.06l-1.15.83a.3.3 0 0 0-.1.12c-.12.25-.23.38-.34.39-.43.02-.47.17-.12.43.03.03.14.01.31-.04.06-.02.1-.06.1-.12.04-.26.17-.4.4-.45.06-.01.1 0 .14.05.29.33.41.7.38 1.09l.02.06Zm.96-.24-.05-.1a.33.33 0 0 1-.04-.16v-.42a.18.18 0 0 0-.08-.15c-.17-.13-.34-.11-.52.04a.13.13 0 0 0-.04.08l.01.08c.2.35.23.66.08.92-.04.07-.02.1.06.1.2-.02.4-.1.55-.24.05-.04.06-.1.03-.15Z" fill="#192975"/><path d="M35.88 21.9a.65.65 0 0 1-.25.11c-.23-.71-.75-1.07-1.56-1.07-2.55-.8-4.55-.13-6.03 2-.01.01-.04.02-.08 0a4.94 4.94 0 0 0-2.33-2.03 4.7 4.7 0 0 0-3.88.07l-1.13.4a5.38 5.38 0 0 1-.04-.05 9.97 9.97 0 0 1 15.3.58Z" fill="#27377C"/><path d="M27.96 22.95c.01.1 0 .17-.03.23a4 4 0 0 0-.6 1.96c-.02.56-.04.95-.08 1.19a258.11 258.11 0 0 1-4.55-4.59 3.35 3.35 0 0 0-.47-.39c-.15-.1-.31-.23-.48-.37a4.7 4.7 0 0 1 3.88-.07c.96.4 1.74 1.08 2.33 2.04Z" fill="#88B954"/><path d="M34.07 20.94c-.38.23-.65.44-.83.62a1300.3 1300.3 0 0 0-4.44 4.56c-.28.29-.43.58-.43.86l-.01 1.47c-.32-.22-.6-.6-.85-1.15 0-.37-.09-.69-.26-.97.04-.24.06-.63.07-1.19a4 4 0 0 1 .6-1.96.37.37 0 0 0 .04-.23c.04 0 .06 0 .08-.02 1.48-2.12 3.48-2.79 6.03-2Z" fill="#C63263"/><path d="m20.58 21.33.04.04c-.54.7-.7 1.3-.03 1.98 1.38 1.42 2.88 2.83 4.26 4.2a.48.48 0 0 1 .15.33v1.18c-.13.11-.37.26-.5.35-.18.12-.31.22-.4.3l-.46.55-.43-.01c.28-.22.66-.46.85-.73.25-.35.31-.72.19-1.1-.08-.22-.28-.5-.61-.84l-3.03-3.06c-.35-.35-1.25-.5-1.64-.04l-.37.4c-.06.06-.08.05-.07-.03.1-.63.53-1.3.96-2.07.3-.53.67-1.01 1.1-1.45Z" fill="#88B954"/><path d="M35.88 21.9a9.16 9.16 0 0 1 1.7 3.4l-.06.02c-.2-.68-.77-1.16-1.49-1.07-.28.04-.52.15-.71.34l-3.09 3.12c-.6.6-.73 1.2-.38 1.75.32.53.93.83 1.53.62a3 3 0 0 0 .93-.72l2.44-2.46c.13.1.17.2.13.3a5.18 5.18 0 0 1-3.35 3.13c-.14.04-.36.07-.66.08-.26 0-.49.06-.67.16a2.52 2.52 0 0 0-1.2-.24v-2.11c.01-.4.04-.68.2-.84 1.36-1.36 2.7-2.73 4.04-4.1.37-.4.5-.81.39-1.27a.65.65 0 0 0 .25-.1Z" fill="#C63263"/><path d="M37.59 25.3c.48 1.8.5 3.51.07 5.13a10.04 10.04 0 0 1-8.27 7.45 14.18 14.18 0 0 1-3.72-.18 10 10 0 0 1-4.34-2.3c-2.72-2.56-3.75-5.74-3.08-9.56.03-.19.1-.2.2-.04l.64 1.08a4.4 4.4 0 0 0 3.4 3.3l.72.07h.43c-.39.82-.61 1.44-.67 1.86a4.76 4.76 0 0 0 1.91 4.7c.47.8 1.14 1.06 2 .79.7.24 1.42.26 2.18.05.42.09.7.11.83.07.52-.14.88-.5 1.08-1.08.35-.2.64-.48.87-.82a4.98 4.98 0 0 0 .36-5.25c.18-.1.4-.15.67-.16.3 0 .52-.04.66-.08 1.59-.5 2.7-1.55 3.35-3.13.04-.1 0-.2-.13-.3.47-.44.87-.87.77-1.58l.07-.02Z" fill="#27377C"/><path d="M22.48 30.18a4.4 4.4 0 0 1-3.39-3.3 41.11 41.11 0 0 1 3.4 3.3Z" fill="#88B954"/><path d="M28.36 28.45v7.62c0 .76.23 1.28.7 1.59-.76.2-1.48.18-2.18-.06.42-.36.62-.68.62-.98-.01-3.07 0-6.18.01-9.32.25.55.53.93.85 1.15ZM25 29.02v7.97a4.92 4.92 0 0 1-2.03-4.88c.06-.42.28-1.04.67-1.85.15-.2.3-.37.46-.54.09-.1.22-.2.4-.31.13-.1.38-.28.5-.39ZM32.2 30.57a4.98 4.98 0 0 1-.36 5.25c-.23.34-.5.62-.84.82v-6.3c.49-.01.86.07 1.2.23Z" fill="#E4A347"/><path fill-rule="evenodd" d="M31.42 40.31a8.64 8.64 0 0 0-3.38-.86c-1.14 0-2.32.39-3.38.86a.14.14 0 0 1-.18-.06c-.5-.98-1.15-2.04-2.18-2.4-.58-.2-1.17-.3-1.77-.33l-1-.02c-.06 0-.09-.03-.09-.1 0-.51-.02-.83-.02-.96-.14-2.16-1.45-3.41-3.32-4.23l-.03-.02a.07.07 0 0 1-.02-.05v-.03c.55-1.37 1.16-3.08.57-4.44a7.32 7.32 0 0 0-.97-1.62c-.05-.06-.05-.12.01-.17 1.27-1.13 1.96-2.28 1.3-4a6.1 6.1 0 0 0-.29-.67c-.05-.1-.03-.17.06-.22.38-.23.58-.42.6-.57.05-.21-.02-.25-.2-.12l-.55.4a.15.15 0 0 1-.06.03.13.13 0 0 1-.15-.09l-.26-.78c-.02-.03-.04-.05-.08-.04a.09.09 0 0 0-.05.03.08.08 0 0 0-.02.05c-.03.33 0 .65.1.96.03.07.01.13-.05.17-.23.15-.45.3-.66.46-1.36 1.05-1.45 2.98-.45 4.3a.1.1 0 0 1 .02.07.1.1 0 0 1-.04.06c-.31.26-.6.55-.84.86-.24.31-.43.66-.57 1.03-.62 1.7-.17 3.1 1.35 4.22.17.13.36.26.57.38.05.04.07.08.05.14-.25.65-.4 1.35-.42 2.1-.07 1.91 1.37 3.17 3.22 3.28l.6.05c.07 0 .1.04.1.1.02 1.08.26 2.25 1.04 2.94 1.1.96 3.06.67 4.27.03.05-.02.1-.01.15.04l.3.41c.9 1.24 2.01 1.86 3.34 1.86 1.32 0 2.43-.62 3.33-1.86.17-.24.27-.38.3-.4.06-.06.1-.07.16-.05 1.2.65 3.16.93 4.26-.03.79-.68 1.02-1.86 1.04-2.93 0-.07.04-.1.1-.1l.6-.05c1.86-.11 3.3-1.37 3.23-3.28a6.48 6.48 0 0 0-.42-2.1c-.02-.06 0-.1.05-.14a7 7 0 0 0 .57-.38c1.52-1.11 1.97-2.52 1.35-4.22a3.77 3.77 0 0 0-.57-1.03 5.5 5.5 0 0 0-.84-.86.1.1 0 0 1-.03-.06c0-.03 0-.05.02-.07 1-1.32.9-3.25-.46-4.3-.2-.16-.42-.31-.65-.46-.07-.04-.09-.1-.06-.18.1-.3.14-.62.11-.95a.08.08 0 0 0-.02-.05.09.09 0 0 0-.05-.03c-.04 0-.07 0-.08.04l-.26.78a.13.13 0 0 1-.21.06l-.55-.4c-.18-.14-.25-.1-.2.11.02.15.22.34.6.58.08.05.1.12.05.21-.07.14-.16.36-.28.67-.67 1.72.03 2.87 1.3 4 .05.06.05.12 0 .18-.38.48-.7 1.02-.96 1.62-.6 1.36.01 3.07.55 4.44a.1.1 0 0 1 0 .01v.01a.07.07 0 0 1-.01.06l-.03.01c-1.87.83-3.18 2.07-3.32 4.24 0 .12-.02.45-.02.96 0 .06-.04.1-.1.1l-1 .02c-.6.02-1.18.12-1.76.32-1.04.36-1.7 1.42-2.18 2.4a.14.14 0 0 1-.18.06ZM16.28 21.35h-.01l-.03-.02h-.03c-.56.37-1.5 1.15-1.65 1.81-.14.67.37 1.78.7 2.34l.04.02h.04c.55-.37 1.49-1.15 1.64-1.81.15-.66-.36-1.77-.7-2.34Zm25.27 1.79c.15.66-.37 1.77-.71 2.34l-.02.01h-.04c-.56-.36-1.5-1.15-1.65-1.81-.15-.67.37-1.78.71-2.35h.04l.02-.01c.56.37 1.5 1.15 1.65 1.82ZM15.5 31.91c.08.05.13.03.16-.05l.77-2.07c.25-.68.22-1.26-.08-1.76a52.04 52.04 0 0 0-1.07-1.68.11.11 0 0 0-.1-.01 8.75 8.75 0 0 0-1.22 1.4c-.48.67-.6 1.32-.36 1.95.3.78 1.14 1.73 1.9 2.22Zm24.91-.04c-.28-.77-.54-1.46-.76-2.1-.24-.67-.2-1.26.1-1.75a50.96 50.96 0 0 1 1.1-1.68.12.12 0 0 1 .1 0l.04.02c.42.4.81.87 1.17 1.38.46.69.58 1.34.34 1.97a5.36 5.36 0 0 1-1.94 2.2c-.07.05-.12.03-.15-.04Zm-.3.78c-.7.33-1.36.71-1.96 1.16-.6.44-.9 1.05-.93 1.81-.04.93-.05 1.51-.05 1.75 0 .07.03.1.1.1.59.01 1.15-.07 1.68-.25 1.27-.4 1.83-1.3 1.67-2.67a9.94 9.94 0 0 0-.4-1.88.1.1 0 0 0-.08-.03.1.1 0 0 0-.03.01Zm-22.15 1.18c.6.44.9 1.04.94 1.8l.06 1.76c0 .06-.04.1-.1.1a5.3 5.3 0 0 1-1.7-.25c-1.26-.4-1.82-1.29-1.67-2.66a9.94 9.94 0 0 1 .4-1.88.1.1 0 0 1 .1-.02c.71.32 1.37.7 1.97 1.15Zm5.44 5.3c-.42-.7-1-.94-1.74-1.02A26 26 0 0 0 19.5 38a.1.1 0 0 0-.05.05.1.1 0 0 0-.01.03c0 .9.13 2.42.95 2.88 1 .56 2.6.06 3.59-.37.1-.04.14-.12.08-.22-.26-.53-.48-.94-.66-1.23Zm8.6 1.3c.26-.53.55-1.02.87-1.47a2.13 2.13 0 0 1 1.8-.95l1.86-.02c.06 0 .1.04.1.1.02.96-.25 2.72-1.36 3.03-1 .27-2.23-.12-3.2-.51a.13.13 0 0 1-.08-.08.13.13 0 0 1 .01-.1Zm-3.15-.6c-.32-.1-.59-.14-.81-.14-.22 0-.49.05-.8.15-.73.23-1.5.55-2.31.97-.06.03-.07.07-.03.12.64.98 1.95 2.18 3.17 2.17 1.22 0 2.5-1.23 3.13-2.22.04-.05.03-.1-.03-.13a14.2 14.2 0 0 0-2.32-.92Z" fill="#192975"/></svg>