<!-- by TradingView --><svg width="56" height="56" viewBox="0 0 56 56" xmlns="http://www.w3.org/2000/svg"><path fill="#F0F3FA" d="M0 0h56v56H0z"/><path d="M21.63 32.47A8 8 0 1 1 15 20c4.75 0 7.58 3.99 9 8.09.9 2.6 2.27 4.91 5 4.91a5 5 0 0 0 4.52-2.86l2.65 1.42A8 8 0 0 1 29 36c-5.91 0-6.55-5.2-9.16-9.26C18.6 24.81 17.33 23 15 23a5 5 0 1 0 4.93 5.86c.51.96 1.1 2.17 1.7 3.61Z" fill="#A98736"/><path d="M24.31 26.26a5 5 0 0 1 9.2-.4l2.66-1.42a8 8 0 0 0-13.6-1.2c.75 1.1 1.33 2.16 1.74 3.02ZM49 20H36v3h5v13h3V23h5v-3Z" fill="#A98736"/></svg>