<!-- by TradingView --><svg xmlns="http://www.w3.org/2000/svg" width="56" height="56"><path fill="#F0F3FA" d="M0 0h56v56H0z"/><path d="M25.24 38l4.77-9H32l-.43 9h-2l.1-1h-1.95l-.53 1h-1.95zm3.38-3h1.17l.35-3.27L28.62 35zM8 38l4.77-9h1.99l-.44 9h-1.99l.09-1h-1.88l-.6 1H8zm3.38-3h1.17l.35-3.27L11.38 35zm5.76-6h1.73l.74 4.81L21 29h2.03l-2.6 9h-1.95l-.69-4.48L16.5 38h-1.95l2.6-9zm6.33 0h5.63l-.57 2h-1.77l-2.04 7h-1.95l2.04-7h-1.86l.52-2z" fill="#231916"/><path d="M48 32.49a34.46 34.46 0 00-16.44-12.77c4 .13 7.77.74 11.5 1.7l-2.57-2.18A48 48 0 0023.1 16c-3.65 0-7.26.4-10.69 1.18L8 20.24c.56 0 1.42-.04 1.97-.04A41.84 41.84 0 0144.1 38l3.9-5.51z" fill="#D70010"/></svg>