<!-- by TradingView --><svg width="56" height="56" viewBox="0 0 56 56" xmlns="http://www.w3.org/2000/svg"><path fill="#F0F3FA" d="M0 0h56v56H0z"/><path d="M27.22 16c-4.48 0-8.24 1.83-10.16 5.81l-2.67 5.6A3.91 3.91 0 0 0 17.97 33h10.68l1.85-4h-9.07a.66.66 0 0 1-.61-.93l3.45-7.12c.27-.58.86-.95 1.5-.95h19.45L47 16H27.22Z" fill="#07264A"/><path d="M28.78 40c4.48 0 8.24-1.83 10.16-5.81l2.67-5.6A3.91 3.91 0 0 0 38.03 23H27.35l-1.85 4h9.07c.49 0 .81.5.61.93l-3.24 7.12c-.26.58-.85.95-1.5.95H11l-2 4h19.78Z" fill="#95A3B1"/></svg>