<!-- by TradingView --><svg width="56" height="56" viewBox="0 0 56 56" xmlns="http://www.w3.org/2000/svg"><path fill="#F0F3FA" d="M0 0h56v56H0z"/><path d="M32.62 11.38 32 8l-.62 3.38L28 12l3.38.62L32 16l.62-3.38L36 12l-3.38-.62Zm-4.28 4.8C27.1 13.3 22.26 12.19 20 12c3.04 1.13 4 2.52 4.11 3.08 1.55-.94 3.21.21 4.97 4.55 1.77 4.33 3.64 6.37 6.68 6.37 1.17 0 2.21-.31 3.05-.84A5.12 5.12 0 0 1 41 29.48c0 2.97-2.08 4.9-3 5.49 2.14.27 6-1.11 6-5.49 0-2.96-2.37-4.57-4.11-5.22a4.21 4.21 0 0 0 1.11-2.8c0-2.4-2.94-4.13-3.05-4.13.43-.71 1.86-1.38 2.52-1.62h-2.52c-.1-.21-.49-.63-1.17-.63-.86 0-1.66.79-1.66 1.78 0 1.01.91 1.9 1.66 2.63.52.51.96.94.96 1.29 0 .83-.7 2.76-3.95 2.76-2.63 0-3.56-2.44-4.63-5.28-.26-.68-.52-1.38-.82-2.08Zm-2.2 18.68c.32 2.4-.28 7.77-5.14 10.14h14c-4.86-2.37-5.46-7.75-5.15-10.14a4.26 4.26 0 0 0 4.9 1.46c-2.97-.3-4.1-3-4.28-4.32h-4.94c-.19 1.32-1.3 4.02-4.27 4.32.98.38 3.32.62 4.89-1.46Zm-6.8.13c-2.45.14-7.34-.77-7.34-5.57 0-2.48 2.76-4.06 4-4.54-.07-2.96.5-8.88 4.45-8.88 2.92 0 4.44 4.44 4.55 6.26l.02.6c.04 1.7.09 3.64 3.98 4.64-1.61 0-4.87-.53-5-2.62-.15-2.62-.63-5.88-2.65-5.88S19 21.46 19 22.8v3.52c-.92.2-3 1.23-3 3.8s2.13 4.31 3.33 4.87ZM24 17c1.24.6 3.78 2.38 4 4.8a8.7 8.7 0 0 1-.33 2.2c.24-1.13-.16-4.12-3.67-7Zm13 9.7c-5.05 1.65-7.94-1.11-8.75-2.7-1.1 1.76 1.6 4 4.93 4 2.66 0 3.65-.86 3.82-1.3Z" fill="url(#a)"/><defs><linearGradient id="a" x1="37.37" y1="14.82" x2="16.67" y2="41" gradientUnits="userSpaceOnUse"><stop stop-color="#4B93CE"/><stop offset="1" stop-color="#009793"/></linearGradient></defs></svg>