<!-- by TradingView --><svg width="56" height="56" viewBox="0 0 56 56" xmlns="http://www.w3.org/2000/svg"><path fill="#F0F3FA" d="M0 0h56v56H0z"/><path d="M23.88 9.08c.05-.06.1-.09.18-.08.08.02.13.06.14.13.3 1.1.5 2.23.6 3.4.42 4.41.16 10.24-.76 17.48-.03.2.06.3.26.3h.75c.18 0 .25.08.2.26A875 875 0 0 1 24 34.84c-.16.56-.52.87-1.07.95-2.24.32-4.48.38-6.72.18a.21.21 0 0 1-.18-.14.2.2 0 0 1 .04-.23c.7-.75 1.35-1.67 1.95-2.76 1.3-2.4 2.36-5.16 3.2-8.3a86 86 0 0 0 2.67-15.46Z" fill="#787A7D"/><path d="m30.52 29.76-.27 3.28-.41 3.11c-.02.16.05.24.21.24a33.6 33.6 0 0 0 6.06-.57c1.42-.25 3.33-.68 5.73-1.27.06-.02.1 0 .14.06.03.05.02.1-.02.15A32.08 32.08 0 0 1 20.99 44a.13.13 0 0 1-.13-.07.13.13 0 0 1 .01-.16c2.2-2.76 4-6.64 5.4-11.62a108.48 108.48 0 0 0 3.35-17.1c0-.05.03-.08.09-.1.06 0 .1.02.12.07.2.41.33.84.4 1.27l.12.66c.18 1.08.29 1.9.33 2.43.14 2.04.13 4.35 0 6.95-.07 1.14-.12 2.28-.16 3.43Z" fill="#231F20"/><path d="m30.25 33.04.27-3.28L36 28.5c.08-.02.13 0 .17.07.03.06.02.12-.03.17-2.23 2.1-4.19 3.53-5.88 4.3Z" fill="#787A7D"/></svg>