<!-- by TradingView --><svg width="56" height="56" viewBox="0 0 56 56" xmlns="http://www.w3.org/2000/svg"><path fill="#F0F3FA" d="M0 0h56v56H0z"/><path d="M40 27v-6h.37l5.46 5.5h-.33V21h.5v6h-.38l-5.45-5.5h.33V27H40ZM24 27c-1 0-2.18-.15-3-.77l.33-.48c.75.54 1.76.72 2.66.72.66 0 2.51 0 2.51-.97 0-.85-1.68-1.07-2.29-1.17-1-.18-2.71-.34-2.71-1.73 0-1.4 1.66-1.6 2.67-1.6.84 0 1.74.14 2.5.52l-.3.5a5.2 5.2 0 0 0-2.21-.49c-.68 0-2.12.1-2.12 1.07 0 .86 1.34.99 1.95 1.1.98.17 3.01.33 3.01 1.7 0 1.39-2 1.6-3 1.6ZM14.5 23.68H20v.54h-5.5v-.54Zm.1 2.82H20v.5h-6v-6h6v.5h-5.4v5ZM5 27v-6h3.02c1.8 0 3.98.9 3.98 3s-2.17 3-3.98 3H5Zm.5-.5h2.48c1.48 0 3.52-.78 3.52-2.5s-2.04-2.5-3.52-2.5H5.5v5Z" fill="#AC8F78"/><path d="M45 35v-6h.5v5.5H50v.5h-5ZM12 35l3.14-6h.72L19 35h-.5l-3-5.66-3 5.66H12Zm1.34-1.5H13l.5-.5h4.05l.22.5h-4.43ZM37 35l3.14-6h.72L44 35h-.5l-3-5.66-3 5.66H37Zm1.34-1.5H38l.5-.5h4.05l.22.5h-4.43ZM33.75 35v-5.5H31V29h6v.5h-2.75V35h-.5ZM29 35V21h.5v14H29ZM21 35v-6h2.87c1.3 0 3.13.38 3.13 2 0 1.61-1.84 2-3.13 2H21.5v-.2V35H21Zm.5-2.1v-.35h2.35c1.54 0 2.65-.61 2.65-1.55 0-.95-1.11-1.5-2.65-1.5H21.5v-.2 3.6ZM8.52 35C6.78 35 5 33.9 5 32s1.8-3 3.53-3c.88 0 1.83.24 2.47.86l-.45.4a2.9 2.9 0 0 0-2-.76c-1.4 0-3.05.97-3.05 2.5s1.64 2.5 3.05 2.5c.77 0 1.45-.27 2-.76l.45.4c-.6.57-1.49.86-2.48.86Z" fill="#123881"/><path d="M34.5 26.5c1.5 0 2.66-.9 2.94-2H34V24h4c0 1.66-1.57 3-3.5 3S31 25.66 31 24s1.57-3 3.5-3c.97 0 1.84.34 2.47.88l-.38.33a3.29 3.29 0 0 0-2.09-.71c-1.73 0-3 1.19-3 2.5s1.27 2.5 3 2.5Z" fill="#AC8F78"/></svg>