<!-- by TradingView --><svg width="56" height="56" viewBox="0 0 56 56" xmlns="http://www.w3.org/2000/svg"><path fill="#F0F3FA" d="M0 0h56v56H0z"/><path d="M46.29 26.87c0 .02 0 .03.03.03h.92c.04 0 .06.02.06.06v2.6c0 .35.03.7.1 1.05.13.62.45 1.05.95 1.3a5.31 5.31 0 0 0 2 .24c.48-.06.96-.13 1.45-.23.03 0 .04-.02.04-.05l-.2-1.9c-.02-.17.01-.18.1-.02.03.06.05.14.06.26l.2 1.65c.01.15-.02.26-.1.33a.98.98 0 0 1-.35.1l-.08.02a6.37 6.37 0 0 1-1.52.16h-.34l-.21-.01c-.47-.01-.88-.1-1.23-.3a1.78 1.78 0 0 1-.82-.94 3.73 3.73 0 0 1-.24-1.33l.01-2.58c0-.03-.01-.04-.04-.04l-.73-.01a.2.2 0 0 1-.2-.14 1.34 1.34 0 0 1-.06-.39V25c0-.23.12-.35.36-.35h.63c.02 0 .04-.02.04-.05v-.96c-.01-.09.04-.15.13-.2.82-.44 1.75-.9 2.78-1.4l.03.01.02.01-2.74 1.4a.08.08 0 0 0-.05.07v1.18c0 .01 0 .02-.02.02h-.9c-.04 0-.05.02-.05.05l-.03 2.1Z"/><path fill-rule="evenodd" d="M23.19 25.2c-.03.03-.05.02-.05-.01v-.23c0-.2-.1-.3-.3-.31a60.2 60.2 0 0 0-2.65 0l-.02.03a.35.35 0 0 0-.09.07.25.25 0 0 0-.03.13l-.01.26v2.08c0 .04 0 .08-.02.1-.02.02-.03.02-.03 0-.01-.06-.03-.1-.07-.14a.03.03 0 0 0-.03-.01c-.02 0-.03.02-.03.03v2.2c0 .03 0 .04-.03.04a601.09 601.09 0 0 0-4.13-.01v-2.14c0-.16-.05-.18-.14-.05a.64.64 0 0 0-.07.14v.01h-.03a5.16 5.16 0 0 0-5.57-5.38 6.12 6.12 0 0 0-2.86.56c-.85.4-1.56.98-2.12 1.76a4.88 4.88 0 0 0-.9 2.82 5.33 5.33 0 0 0 .44 2.5A4.58 4.58 0 0 0 6.5 31.9a7.33 7.33 0 0 0 6.6.03 5.09 5.09 0 0 0 2.1-2.11c.08-.16.08-.3-.02-.43-.04-.05-.1-.08-.21-.1a59.37 59.37 0 0 1-2.27-.18c-.14 0-.24 0-.3-.02a3.57 3.57 0 0 0-.94-.07.43.43 0 0 0-.22.07 5.16 5.16 0 0 1-.51.48c-.3.2-.65.29-1.03.28-.2 0-.37-.04-.52-.1a1.5 1.5 0 0 1-.89-1.13c0-.03.01-.05.04-.05l.41-.01a464.4 464.4 0 0 1 6.04-.01 40.19 40.19 0 0 1 .53-.02l.07-.02c.04 0 .06.01.06.05-.02.32 0 .64.05.95v.03l.05.17c.02.05.05.08.1.1.1.05.22.07.35.06l.32-.03 3.53-.02c.1 0 .14-.05.13-.15 0-.02.01-.04.03-.04h.02c.02 0 .02 0 .02.02v5.15c0 .05.02.1.06.13.03.04.07.06.12.06l.33.02h2.5c.13 0 .21-.03.25-.1.03-.04.05-.13.05-.27a692.13 692.13 0 0 0 .01-2.63h.03c.75.44 1.54.57 2.37.41a3.02 3.02 0 0 0 2.28-1.87c.15-.37.25-.75.29-1.15.05-.51.05-1.03 0-1.55a4.48 4.48 0 0 0-.8-2.14 2.68 2.68 0 0 0-2.3-1.15l.03.01c.67.01 1.26.23 1.74.65a4.23 4.23 0 0 1 1.16 2.42c.04.34.05.74.03 1.2a4.13 4.13 0 0 1-.31 1.48 2.97 2.97 0 0 1-1.51 1.59 3.11 3.11 0 0 1-3.18-.41h-.02l-.01.02v3.1c0 .04-.02.06-.06.06l-2.83-.04c-.04 0-.06-.02-.06-.06v-9.82c0-.02.01-.03.03-.03h2.66c.05 0 .07.02.07.06v.7c0 .04.01.05.04.01a2.53 2.53 0 0 1 1.97-.94h-.01v-.01a2.7 2.7 0 0 0-1.78.67ZM8.05 28.26c0-.03 0-.04.03-.04.41-.03.9-.04 1.47-.03h5.62c.05 0 .08-.03.08-.08a9.44 9.44 0 0 0-.14-2.11 4.24 4.24 0 0 0-1.48-2.58c-.6-.5-1.28-.86-2.04-1.08a6.65 6.65 0 0 0-3.05-.18 5.45 5.45 0 0 0-2.9 1.46 4.63 4.63 0 0 0-1.4 2.68 6.09 6.09 0 0 0 .4 3.21c.25.53.57.98.96 1.33.3.28.54.47.72.59.8.48 1.64.78 2.53.88 1.2.15 2.38 0 3.51-.42.52-.19.96-.43 1.32-.73a5.84 5.84 0 0 0 1.37-1.68.09.09 0 0 0 0-.09.08.08 0 0 0-.07-.04 7.02 7.02 0 0 1-.82-.07l-.45-.03a4.6 4.6 0 0 1-.58-.06l-.45-.03c-.13 0-.27-.02-.4-.05a3.33 3.33 0 0 0-.82-.04c-.1 0-.16.02-.19.06-.2.22-.32.34-.36.37-.25.2-.54.32-.86.37-.34.06-.65.02-.93-.1-.46-.19-.77-.51-.93-.97-.05-.16-.1-.34-.14-.54Z"/><path d="M51.68 24.71h-1.41c-.02 0-.03 0-.03-.03v-2.56c0-.06.02-.07.06-.04.04.03.07.07.09.13l.01.1v2.26c0 .04.02.06.06.06h1.08c.1 0 .16.01.2.04.05.03.08.06.11.1.02.04.04.08.04.14a74.74 74.74 0 0 1 0 2.13.25.25 0 0 1-.15.19.62.62 0 0 1-.22.03h-1.07c-.03 0-.05.02-.05.05v2.37c0 .21.1.31.31.28.2-.02.4-.07.6-.14a.5.5 0 0 1 .16 0c.08 0 .09 0 0 .03a4.94 4.94 0 0 1-.82.16.45.45 0 0 1-.23-.06c-.11-.07-.17-.19-.17-.34l-.03-2.64c0-.04.02-.06.06-.06h1.39c.04 0 .05-.02.05-.06v-2.1c0-.02-.01-.04-.04-.04Z"/><path fill-rule="evenodd" d="m34.25 22.03-.05.13-.03.02h-.04a250.73 250.73 0 0 0-.02 1.84c0 .15.02.25.06.3.04.06.1.1.17.12l.22.01h2.55c.1 0 .18-.02.23-.07a.37.37 0 0 0 .11-.28c.02-.79.02-1.38 0-1.78a.4.4 0 0 0-.17-.3.06.06 0 0 0-.03-.02H34.3a.05.05 0 0 0-.05.03Zm2.92 2.06c.03 0 .04-.02.04-.04v-1.92c0-.03-.01-.04-.04-.04h-2.76c-.03 0-.04.01-.04.04v1.92c0 .02.01.04.04.04h2.76Z"/><path d="M45.88 31.96V27.3c0-.24 0-.46-.03-.66-.04-.3-.12-.58-.24-.84-.13-.28-.3-.51-.51-.69a2.2 2.2 0 0 0-1-.48 3.69 3.69 0 0 0-.99-.07c.4-.02.72-.02.96.02s.53.15.84.34a2.2 2.2 0 0 1 .91 1.1 2.96 2.96 0 0 1 .2.85c.03.14.04.27.04.39a220.58 220.58 0 0 0 0 3.35v1.51c0 .06-.01.12-.06.16a.2.2 0 0 1-.15.07h-2.93c-.02 0-.03-.02-.03-.04a.25.25 0 0 0-.08-.16 436.54 436.54 0 0 0-.04-3.98c0-.22-.02-.4-.07-.56a.48.48 0 0 0-.4-.34c-.37-.06-.63.06-.8.37-.07.1-.1.24-.13.44-.04.33-.06.61-.06.86v3.13c0 .07-.02.14-.07.2a.26.26 0 0 1-.2.08h-2.8c-.02 0-.03-.01-.04-.03 0-.03-.02-.04-.04-.05a.1.1 0 0 1-.04-.02l-.1-.1a12.7 12.7 0 0 1 .01-7.26c.02-.1.07-.16.15-.2a.45.45 0 0 1 .22-.06l2.44.01c.15 0 .24.08.27.23.04.15.03.28 0 .4-.02.07 0 .08.05.04l.13-.1a2.88 2.88 0 0 1 1.75-.66v.02c-.58.03-1.1.23-1.55.57l-.5.45c-.02.02-.03.02-.03 0v-.76a.11.11 0 0 0-.04-.08.11.11 0 0 0-.08-.03h-2.49c-.06 0-.09.03-.09.09v7.15c0 .01.01.02.03.02h2.8c.02 0 .03 0 .03-.03 0-1.7 0-2.88.02-3.53 0-.37.04-.66.11-.87.1-.32.3-.52.57-.6a.99.99 0 0 1 .68 0c.3.12.44.41.45.88v4.11c0 .03.02.04.05.04h2.85c.02 0 .03 0 .03-.02Z"/><path fill-rule="evenodd" d="M28.65 32.26h.02l.04.04.01.02c.01.02.03.03.05.03h2.82c.08 0 .15-.03.21-.1a.3.3 0 0 0 .09-.21v-2.87c0-.47.06-.9.2-1.3.05-.15.1-.27.16-.35a.67.67 0 0 1 .52-.29c.14 0 .34.05.6.14.13.05.23.06.3.04.09-.03.16-.1.2-.23l.16-.37c.07-.18.1-.17.1.02l-.03 5.28c0 .02 0 .03.02.04.06.04.11.1.17.18l.03.02h2.93c.02 0 .04-.01.04-.03l.01-.02.03-.03a.19.19 0 0 0 .1-.14c.03-.11.04-.23.04-.36v-5.71l-.01-1.01c-.01-.28-.15-.42-.43-.42a197.1 197.1 0 0 0-2.56.02l-.16.05c-.08.03-.24 0-.47-.07l-.04-.02a5.31 5.31 0 0 0-1.1-.06c-.38.07-.7.24-.97.5h-.03a.03.03 0 0 1-.02-.02c-.02-.17-.06-.28-.13-.33a.26.26 0 0 0-.13-.05 68.6 68.6 0 0 0-2.6 0 .46.46 0 0 1-.15.07.05.05 0 0 0-.03.04.26.26 0 0 1-.08.12 76.3 76.3 0 0 1-.02 7.22c0 .02.01.04.03.05.04.02.06.05.06.09l.02.02Zm5.6-6.53c.06-.14.09-.14.08.02a16.7 16.7 0 0 1 0 .63c.03.81.04 1.44.04 1.89a577.35 577.35 0 0 0 .03 3.71h2.75c.04 0 .06-.01.06-.05v-7.15c0-.04-.03-.07-.07-.07h-2.7c-.02 0-.04.01-.05.03-.07.08-.16.1-.26.05a2.55 2.55 0 0 0-1.3-.21 1.5 1.5 0 0 0-1.1.62l-.18.24c-.04.05-.05.04-.05-.02v-.57c0-.09-.04-.13-.13-.13h-2.54c-.03 0-.04 0-.04.03v7.22l.02.01h2.88c.02 0 .03 0 .03-.03v-3.2c.02-.48.1-.91.26-1.29.12-.27.3-.45.54-.54a1 1 0 0 1 .54-.01c.18.03.35.1.53.19.03.01.06 0 .07-.03l.58-1.34ZM8.3 26.25l.22-.01a256.27 256.27 0 0 1 2.86 0c-.03-.26-.1-.5-.2-.75a1.36 1.36 0 0 0-1-.88 1.77 1.77 0 0 0-1.06.07c-.6.22-.94.74-1.06 1.54 0 .02 0 .04.03.04l.22-.01Zm2.38-1.05c-.1-.09-.2-.15-.3-.2-.31-.12-.62-.15-.94-.09-.33.07-.6.23-.8.48-.16.21-.27.46-.33.75-.01.04 0 .06.04.06h2.75c.04 0 .05-.02.05-.06a2.21 2.21 0 0 0-.24-.65c-.05-.1-.13-.2-.23-.29Z"/><path d="M19.78 27.05c0 .04-.03.05-.1.05-2.62 0-3.93-.01-3.93-.04s1.31-.05 3.93-.06c.07 0 .1.02.1.05Z"/><path fill-rule="evenodd" d="M25.15 29.23c.08-.24.12-.54.12-.9 0-.37-.05-.67-.13-.9a.98.98 0 0 0-.17-.32c-.3-.34-.66-.43-1.1-.27a1 1 0 0 0-.59.6c-.1.25-.15.55-.14.9 0 .35.05.65.16.9.13.3.33.5.6.6.44.15.8.05 1.08-.3.08-.08.13-.19.17-.31Zm-.1-1.21a1.12 1.12 0 0 0-.34-.73.65.65 0 0 0-.6-.18.8.8 0 0 0-.53.34c-.1.13-.16.3-.2.53-.07.42-.05.82.04 1.19a.9.9 0 0 0 .5.6c.08.04.2.05.36.06.17 0 .32-.06.45-.17.12-.1.2-.24.26-.42.09-.3.1-.71.06-1.22Z"/><path fill-rule="evenodd" d="M34.52 22.27h2.46c.03 0 .05.03.05.06v1.52c0 .03-.02.05-.05.05h-2.46a.06.06 0 0 1-.05-.05v-1.52c0-.03.02-.06.05-.06Zm12.92 4.45c.03 0 .05.02.04.05l-.02.26c.01.85.02 1.7.01 2.55 0 .07.02.18.05.33l.04.24c.02.22.04.4.08.52.19.69.64 1.08 1.35 1.2l.31.03h1.11a4.26 4.26 0 0 0 .68-.08c.21-.02.37-.06.48-.1.02 0 .02-.02.02-.03l-.16-1.55c0-.02-.01-.03-.03-.03l-.6.12c-.35.04-.79-.17-.8-.58-.03-.94 0-2.88 0-2.88 0-.04.06-.06.1-.06h1.37c.05 0 .07-.03.07-.08v-1.55c0-.06-.03-.08-.09-.08h-1.43c-.02 0-.02-.02-.02-.04v-2.58l-.02-.02h-.03c-.5.23-1.09.53-1.8.9l-.5.25a.32.32 0 0 0-.18.31v1.1c0 .04-.01.08-.06.08h-.89c-.01 0-.02 0-.02.02v1.6c0 .06.02.09.07.09h.87ZM7.8 28.03c0-.01 0-.03.02-.03h7.15c.02 0 .02 0 .02-.02v-.6a5.3 5.3 0 0 0-.26-1.92 4.02 4.02 0 0 0-.78-1.36c-.38-.43-.84-.8-1.37-1.07a6.18 6.18 0 0 0-3.96-.62 5.17 5.17 0 0 0-3.78 2.72c-.15.33-.26.65-.33.96-.08.38-.13.81-.15 1.3 0 .1 0 .22.03.37l.03.22.12.68c.27 1 .81 1.8 1.64 2.42.47.35 1.01.62 1.63.81a6.39 6.39 0 0 0 2.9.2c.72-.08 1.4-.28 2.04-.6.36-.17.67-.37.92-.6a5.03 5.03 0 0 0 1.02-1.28l-.02-.01-.71-.07a46.33 46.33 0 0 1-2.26-.22.45.45 0 0 0-.28.04.96.96 0 0 0-.2.17l-.05.06a1.7 1.7 0 0 1-.81.47c-.3.08-.61.1-.95.06a1.67 1.67 0 0 1-1.12-.62c-.3-.36-.46-.86-.49-1.46ZM8.36 25c-.15.15-.26.33-.34.52-.13.32-.2.64-.2.96 0 .05.02.07.06.06.89-.03 1.85-.05 2.89-.04a11.13 11.13 0 0 1 .84.03.06.06 0 0 0 .01-.04c-.03-.36-.1-.69-.21-1a1.6 1.6 0 0 0-.91-.96c-.23-.1-.56-.14-1-.12a1.5 1.5 0 0 0-1.14.59Zm23.19.92c-.07.12-.16.14-.25.06a.04.04 0 0 1-.01-.03v-.87c0-.04-.03-.07-.07-.07h-2.2s-.02.01-.02.03v6.74c0 .02.01.03.03.03h2.37c.02 0 .03 0 .04-.03a.6.6 0 0 0 .09-.28c.02-1.06.02-1.9 0-2.56 0-.34 0-.6.02-.76.1-.7.33-1.15.7-1.38.15-.1.33-.14.54-.15.1 0 .28.03.53.1l.15.03c.04.01.08 0 .1-.05l.7-1.58c0-.03 0-.04-.02-.05a2.31 2.31 0 0 0-1.18-.31c-.47 0-.83.16-1.09.46-.11.14-.26.36-.43.67Zm9.2.29.01.02c.02 0 .03 0 .04-.02.12-.18.31-.4.57-.64a2.5 2.5 0 0 1 1.28-.71c.28-.06.6-.08.95-.06.34.01.65.08.92.21.54.26.9.72 1.05 1.38l.1.45c.02.12.03.28.03.46v4.47c0 .03-.02.05-.05.05H43.2c-.05 0-.07-.03-.07-.07v-3.4c0-.05 0-.2.03-.42.03-.26-.02-.52-.14-.77a.78.78 0 0 0-.58-.45c-.19-.04-.37-.05-.55-.02-.2.03-.36.1-.5.22-.25.23-.33.53-.37.92-.02.17-.03.39-.03.64v3.3c0 .03-.01.04-.03.04h-2.52l-.01-.01v-6.73c0-.04.02-.06.06-.06h2.18c.04 0 .06.02.06.07v1.13Zm-3.72 5.57v-6.74c0-.02 0-.03-.03-.03h-2.4c-.04 0-.06.02-.06.07v2.9l-.03.15a.48.48 0 0 0-.04.15v3.4c0 .03 0 .06.03.09s.06.04.1.04H37c.02 0 .03-.01.03-.03Zm-14.26-5.63c-.02.03-.04.03-.04-.01l-.02-1.03a.1.1 0 0 0-.1-.1h-2.23c-.02 0-.03.01-.03.03l.04 9.37c0 .02 0 .03.03.03h2.5c.02 0 .03 0 .03-.03v-3.36c0-.08.03-.1.08-.03a2.6 2.6 0 0 0 2.03.9 2.67 2.67 0 0 0 2.5-1.42 5.04 5.04 0 0 0 .13-3.8 3.57 3.57 0 0 0-.58-1.04c-.31-.38-.7-.63-1.15-.76-.33-.1-.68-.13-1.06-.1-.7.04-1.28.33-1.73.87l-.4.48Zm2.66 2.93c.05-.22.08-.45.09-.7 0-.42-.05-.78-.2-1.1-.12-.28-.33-.49-.6-.62-.24-.11-.5-.14-.8-.08a1.1 1.1 0 0 0-.63.38c-.13.14-.22.36-.28.63a4 4 0 0 0-.09.71c-.01.41.05.78.2 1.09.12.28.32.5.6.63.24.11.5.14.8.08.24-.05.45-.18.63-.38.13-.15.22-.36.28-.64Zm-9.38-1.72h3.57c.03 0 .05.02.05.05v1.8c0 .04-.02.06-.05.06h-3.57c-.03 0-.05-.02-.05-.05v-1.8c0-.04.02-.06.05-.06Z" fill="url(#a)"/><path d="m50 29.18-1.69-.75-.84-.37v1.52c0 .07.02.18.05.33l.04.24c.02.22.04.4.08.52.19.69.64 1.08 1.35 1.2l.31.03h1.11a4.26 4.26 0 0 0 .68-.08c.21-.02.37-.06.48-.1.02 0 .02-.02.02-.03l-.16-1.55c0-.02-.01-.03-.03-.03l-.6.12c-.35.04-.79-.17-.8-.58v-.47Zm-34-.35c.65.05 1.33.08 2.03.08.67 0 1.21-.1 1.64-.23v.53c0 .03-.02.05-.05.05h-3.57c-.03 0-.05-.02-.05-.05v-.38Zm-11.53-.59a14.44 14.44 0 0 1-.1-.85v-.13c.4-.2 1.17-.48 2.2-.48.5 0 1.3.24 2.34.56.67.2 1.44.44 2.3.66H7.84l-.02.03c.03.6.2 1.1.5 1.46.3.36.67.57 1.11.62.34.04.65.02.95-.06a1.7 1.7 0 0 0 .86-.53c.09-.09.16-.15.2-.17a.45.45 0 0 1 .27-.04 46.33 46.33 0 0 0 2.27.22 11.37 11.37 0 0 0 .73.08v.03c-.28.47-.61.89-1.02 1.25-.25.23-.56.43-.92.6-.64.32-1.32.52-2.04.6a6.39 6.39 0 0 1-2.9-.2 5.3 5.3 0 0 1-1.63-.8 4.38 4.38 0 0 1-1.28-1.5l-.44-1.35Zm15.9.13c.3-.19.5-.4.59-.54.16-.26.66-.8 1.37-.8.25 0 .51.1.77.25l-.1.3a4 4 0 0 0-.08.71c-.01.41.05.78.2 1.09.12.28.32.5.6.63.24.11.5.14.8.08.24-.05.45-.18.63-.38.12-.14.2-.33.27-.57.33.19.67.31 1.06.31.43 0 1.1-.6 1.51-1.06 0 .27-.03.53-.06.8a3.6 3.6 0 0 1-.38 1.3 2.67 2.67 0 0 1-2.49 1.42 2.6 2.6 0 0 1-2.03-.9c-.05-.06-.08-.05-.08.03v3.36c0 .02 0 .03-.03.03h-2.5c-.02 0-.03 0-.03-.03l-.03-6.03ZM29 27.3c.06-.03.1-.04.16-.04.35 0 .68.26 1.05.56l.02.02c.08.06.18.14.28.24.27.25.62.58 1.02.78v.07c.02.65.02 1.5 0 2.56a.6.6 0 0 1-.09.28.05.05 0 0 1-.04.03h-2.37c-.02 0-.03-.01-.03-.03V27.3Zm5.52.8c.3-.18.6-.34.88-.47.5-.23 1.09-.39 1.63-.42v4.56c0 .02 0 .03-.03.03h-2.4a.13.13 0 0 1-.1-.04.13.13 0 0 1-.03-.1v-3.39c0-.03.01-.08.04-.15v-.03Zm3.92-.53a1 1 0 0 1 .06.06c.6.66 1.16 1.21 2.03 1.21.13 0 .29-.02.47-.06v2.99c0 .02-.01.03-.03.03h-2.52l-.01-.01v-4.22Zm4.72.51a1286.42 1286.42 0 0 0-.02 3.65c0 .05.02.08.07.08h2.44c.03 0 .05-.02.05-.05v-4.13h-.15a5.97 5.97 0 0 0-2.4.45Z" fill="url(#b)"/><defs><linearGradient id="a" x1="35.42" y1="23.23" x2="35.42" y2="29.13" gradientUnits="userSpaceOnUse"><stop stop-color="#0075B8"/><stop offset=".55" stop-color="#009FE3"/><stop offset="1" stop-color="#74CCF4"/></linearGradient><linearGradient id="b" x1="29.43" y1="34.43" x2="29.43" y2="26.78" gradientUnits="userSpaceOnUse"><stop stop-color="#009FE3"/><stop offset="1" stop-color="#0064AC"/></linearGradient></defs></svg>