<!-- by TradingView --><svg width="56" height="56" viewBox="0 0 56 56" xmlns="http://www.w3.org/2000/svg"><path fill="#F0F3FA" d="M0 0h56v56H0z"/><path d="m51.94 30.45.06 1.41c-.47.1-.89.14-1.25.14-1.7 0-2.78-1.15-2.78-2.73V26.5H47V25h1v-1.4l2-.6v2h2v1.5h-2v2.39c0 .8.3 1.66 1.3 1.66.17 0 .39-.03.64-.1ZM44 32h-2v-7h2v1.8c.26-.94.45-1.8 1.49-1.8.15 0 .32.02.51.07v1.68c-.23-.06-.43-.1-.61-.1-1.3 0-1.39 1.4-1.39 2.49V32ZM27 35h-2V25h2v1.22c.55-.81 1.1-1.22 2.11-1.22 1.97 0 2.89 1.79 2.89 3.5 0 1.82-.87 3.5-2.97 3.5-1.45 0-2.03-1.1-2.03-1.1V35Zm3-6.5c0-.97-.3-1.99-1.46-1.99-1.17 0-1.54 1-1.54 1.99 0 1 .31 2.06 1.5 2.06 1.13 0 1.5-1.12 1.5-2.06ZM16.54 30.05l.03 1.5c-.68.3-1.42.45-2.2.45-2.08 0-3.37-1.46-3.37-3.5 0-1.87 1.16-3.5 3.14-3.5C16.1 25 17 26.7 17 28.46c0 .2-.02.34-.04.54h-4.32c.08 1.03.9 1.72 1.9 1.72.6 0 1.26-.22 2-.67ZM15.41 28c-.02-.8-.42-1.8-1.32-1.8-.92 0-1.4.97-1.48 1.8h2.8ZM23.54 30.05l.03 1.5c-.68.3-1.42.45-2.2.45-2.08 0-3.37-1.46-3.37-3.5 0-1.87 1.16-3.5 3.14-3.5C23.1 25 24 26.7 24 28.46c0 .2-.02.34-.04.54h-4.32c.08 1.03.9 1.72 1.9 1.72.6 0 1.26-.22 2-.67ZM22.41 28c-.02-.8-.42-1.8-1.32-1.8-.92 0-1.4.97-1.48 1.8h2.8ZM10 30.5V32H4v-9h2v7.5h4Z" fill="#0088D0"/><path d="M40 27.1a3.7 3.7 0 0 0-2.69-1.15 3.62 3.62 0 0 0-3.66 3.57c0 .53.12 1.03.33 1.48-.6-.64-.98-1.5-.98-2.43A3.62 3.62 0 0 1 36.66 25c1.49 0 2.76.86 3.34 2.1Z" fill="#19A530"/><path d="M34 30.9a3.7 3.7 0 0 0 2.69 1.15c2.02 0 3.66-1.6 3.66-3.57 0-.53-.12-1.03-.33-1.48.6.64.98 1.5.98 2.43A3.62 3.62 0 0 1 37.34 33 3.67 3.67 0 0 1 34 30.9Z" fill="#0088D0"/></svg>