<!-- by TradingView --><svg width="56" height="56" viewBox="0 0 56 56" xmlns="http://www.w3.org/2000/svg"><path fill="#F0F3FA" d="M0 0h56v56H0z"/><path d="M41.37 26.92c-1.87 6.1-5.82 8.19-11.85 6.26a.8.8 0 0 0-.2-.4c-.08-.08-.07-.15.02-.2l.11-.07a.2.2 0 0 1 .14-.03c.19.03.52.13.98.3a7.82 7.82 0 0 0 6.58-.55c1.66-1 3.07-2.78 4.22-5.31Z" fill="#3C3115"/><path fill-rule="evenodd" d="M37.15 32.24c1.66-1.02 3.07-2.79 4.22-5.32.26-.42.44-1.16.54-2.2.31-3.48-.18-6.7-1.47-9.67a15.87 15.87 0 0 0-2.69-4.03c-.02-.02-.04-.03-.06-.01-.02.01-.02.03.01.07a15.53 15.53 0 0 1 3.24 11.53 9.1 9.1 0 0 1-3 5.95 7.42 7.42 0 0 1-6.24 2 8.05 8.05 0 0 1-4.45-2.14 8.95 8.95 0 0 1-2.6-4.17 6.06 6.06 0 0 1-.17-3.48 5.93 5.93 0 0 1 2.2-2.97 7.62 7.62 0 0 1 4-1.48c.07 0 .09-.03.06-.07a.34.34 0 0 0-.07-.07c-1.92 0-3.56.58-4.93 1.71a6.83 6.83 0 0 0-2.22 3.6 9.17 9.17 0 0 0-.1 4.3c.02.08 0 .16-.08.22a.23.23 0 0 1-.23.06c-2.94-.86-5.56-.52-7.84 1.01a7.02 7.02 0 0 0-3.21 6.1c.2.74.39 1.45.54 2.12.23 1.02.45 1.72.64 2.1a8.75 8.75 0 0 0 3.7 3.68 8.82 8.82 0 0 0 10.92-1.73 5.8 5.8 0 0 0 1.22-2.17c.02-.06.06-.08.11-.08h.11l.02.01c0 .11.04.22.08.31a9.08 9.08 0 0 0 .07-4.08.76.76 0 0 1 .03-.22.77.77 0 0 0-.19-.35c-.07-.07-.06-.14.03-.19l.11-.07a.2.2 0 0 1 .14-.03c.19.03.52.13.99.3.48.18.83.3 1.05.33 2.13.36 3.97.07 5.52-.87ZM26.58 35.2a5.1 5.1 0 0 0 .44-3.36 6.72 6.72 0 0 0-3.67-3.8c-2.94-1.2-5.49-.62-7.66 1.75a5.11 5.11 0 0 0-.28 4.2 6.03 6.03 0 0 0 3.28 3.58 6 6 0 0 0 5.45.02 5.22 5.22 0 0 0 2.44-2.39Z" fill="#AA873C"/><path d="M29.4 37.42a7.7 7.7 0 0 1-5.78 5.32c-2.02.49-4.01.3-5.98-.6a10.07 10.07 0 0 1-4.54-3.98 7.58 7.58 0 0 1-1.04-4.98c.2.74.39 1.45.54 2.12.23 1.02.45 1.72.64 2.1a8.75 8.75 0 0 0 3.7 3.68 8.82 8.82 0 0 0 10.92-1.73 5.8 5.8 0 0 0 1.22-2.17c.02-.06.05-.08.11-.08h.11l.02.01c0 .11.04.22.08.31Z" fill="#3C3115"/></svg>