<!-- by TradingView --><svg width="56" height="56" viewBox="0 0 56 56" xmlns="http://www.w3.org/2000/svg"><path fill="#F0F3FA" d="M0 0h56v56H0z"/><path d="M18.97 19.95a10.6 10.6 0 0 1 .17-7.57c1.33 3.76.72 6.2.2 7.61.16.97.54 2.52 1.17 4.2.75 2 1.84 4.17 3.27 5.74l-.25.27a18.6 18.6 0 0 1-3.35-5.88 24.11 24.11 0 0 1-1.21-4.37Z" fill="#3196A8"/><path d="M17.04 22.09a10.75 10.75 0 0 1-1.63-7.45c2.18 3.32 2.17 5.86 2 7.4.39.9 1.13 2.3 2.14 3.77a17.56 17.56 0 0 0 4.53 4.73l-.18.33a17.92 17.92 0 0 1-4.64-4.83 23.67 23.67 0 0 1-2.22-3.95Z" fill="#40A994"/><path d="M15.59 24.24a10.46 10.46 0 0 1-3.46-6.66c2.97 2.58 3.6 5.05 3.83 6.56a20.54 20.54 0 0 0 8.45 6.96l-.18.42c-3.64-1.4-6.55-4.34-8.64-7.28Z" fill="#82B464"/><path d="M15.2 27.08a10.1 10.1 0 0 1-5.25-5.71c3.32 1.63 4.56 3.74 5.17 5.15 2.59 2.2 5.68 4.39 9.58 5.16l-.07.45c-4.12-.89-6.9-2.9-9.43-5.05Z" fill="#95B955"/><path d="M14.8 29.64A11.76 11.76 0 0 1 8.35 25a11.5 11.5 0 0 1 6.84 4.4c2.85 1.42 6.19 2.7 9.93 2.73l.02.46c-4.16.1-7.42-1.43-10.34-2.95Z" fill="#B8C63C"/><path d="M15.2 32.35A11.41 11.41 0 0 1 8 29.2a11.2 11.2 0 0 1 7.53 2.85c3.07.78 6.58 1.33 10.25.56l.1.44c-4.05.99-7.54.19-10.68-.69Z" fill="#96B858"/><path d="M16.62 34.84c-3.55.6-6.73-.9-7.64-1.57a11 11 0 0 1 7.92 1.2c3.15.1 6.7-.1 10.14-1.64l.2.41c-3.8 1.83-7.36 1.79-10.62 1.6Z" fill="#81B65E"/><path d="M18.36 36.9a11.1 11.1 0 0 1-7.76.07c3.59-1.58 6.54-1 8.02-.5 2.97-.48 5.96-1.16 9.02-3.39l.27.37c-3.34 2.57-6.35 3-9.45 3.43l-.1.02Z" fill="#41A98F"/><path d="M21.02 38.77c-3.07 1.99-6.55 1.87-7.64 1.62a11.05 11.05 0 0 1 7.76-2.08c2.95-1.16 4.11-1.76 6.49-3.9l.33.3c-2.27 2.26-3.87 2.92-6.94 4.06Z" fill="#3196AA"/><path d="M37.03 19.95c1.22-3.58.31-6.5-.17-7.57-1.33 3.76-.72 6.2-.2 7.61-.15.97-.54 2.52-1.17 4.2-.75 2-1.84 4.17-3.27 5.74l.25.27a18.6 18.6 0 0 0 3.35-5.88 24.1 24.1 0 0 0 1.21-4.37Z" fill="#3196A8"/><path d="M38.96 22.09a10.75 10.75 0 0 0 1.63-7.45c-2.18 3.32-2.17 5.86-2 7.4a23.7 23.7 0 0 1-2.14 3.77 17.56 17.56 0 0 1-4.53 4.73l.18.33a17.92 17.92 0 0 0 4.64-4.83 23.68 23.68 0 0 0 2.22-3.95Z" fill="#40A994"/><path d="M40.41 24.24a10.46 10.46 0 0 0 3.46-6.66c-2.97 2.58-3.6 5.05-3.83 6.56a20.54 20.54 0 0 1-8.45 6.96l.18.42c3.64-1.4 6.55-4.34 8.64-7.28Z" fill="#82B464"/><path d="M40.8 27.08a10.1 10.1 0 0 0 5.25-5.71c-3.32 1.63-4.56 3.74-5.17 5.15-2.59 2.2-5.68 4.39-9.58 5.16l.07.45c4.12-.89 6.9-2.9 9.43-5.05Z" fill="#95B955"/><path d="M41.2 29.64c3.5-.93 5.85-3.64 6.45-4.64a11.5 11.5 0 0 0-6.84 4.4c-2.85 1.42-6.19 2.7-9.93 2.73l-.02.46c4.16.1 7.42-1.43 10.34-2.95Z" fill="#B8C63C"/><path d="M40.8 32.35c3.6-.16 6.43-2.3 7.2-3.16a11.2 11.2 0 0 0-7.53 2.85c-3.07.78-6.58 1.33-10.25.56l-.1.44c4.05.99 7.54.19 10.68-.69Z" fill="#96B858"/><path d="M39.38 34.84c3.55.6 6.73-.9 7.64-1.57a11 11 0 0 0-7.92 1.2c-3.15.1-6.7-.1-10.14-1.64l-.2.41c3.8 1.83 7.36 1.79 10.62 1.6Z" fill="#81B65E"/><path d="M37.64 36.9a11.1 11.1 0 0 0 7.76.07c-3.59-1.58-6.54-1-8.02-.5-2.97-.48-5.96-1.16-9.02-3.39l-.27.37c3.34 2.57 6.35 3 9.45 3.43l.1.02Z" fill="#41A98F"/><path d="M34.98 38.77c3.07 1.99 6.55 1.87 7.64 1.62a11.05 11.05 0 0 0-7.76-2.08c-2.95-1.16-4.11-1.76-6.49-3.9l-.33.3c2.27 2.26 3.87 2.92 6.94 4.06Z" fill="#3196AA"/><path d="M28.04 35.75c-1.32 1.25-2.72 2.6-4.09 3.52-1.55.14-4.47.83-7.18 3.73 1.12.01 4.54-.64 7.16-3.26 1.36-.87 2.78-2.13 4.11-3.32v-.67Z" fill="#2781A6"/><path d="M27.96 35.75c1.32 1.25 2.72 2.6 4.09 3.52 1.55.14 4.47.83 7.18 3.73-1.12.01-4.54-.64-7.16-3.26-1.36-.87-2.78-2.13-4.11-3.32v-.67Z" fill="#2781A6"/><path d="M23.43 11c-.73.9-2.33 3.46-2.05 7.25-.04.57-.12 1.7-.12 2.33 0 .84.22 7.75 4.97 14.6.59.76 1.14 1.18 1.73 1.22a1.63 1.63 0 0 0 .08 0c.6-.04 1.14-.46 1.73-1.22a27.81 27.81 0 0 0 4.97-14.6c0-.63-.08-1.76-.12-2.33A10.43 10.43 0 0 0 32.57 11c-.37 4.17.95 6.36 1.81 7.55a26.2 26.2 0 0 1-.22 5.03c-1 7.16-4.48 8.9-6.16 8.88-1.68.02-5.15-1.72-6.16-8.88a26.2 26.2 0 0 1-.22-5.03c.86-1.19 2.18-3.38 1.81-7.55Z" fill="url(#a)"/><defs><linearGradient id="a" x1="28" y1="11" x2="28" y2="36.4" gradientUnits="userSpaceOnUse"><stop offset=".77" stop-color="#2B81A5"/><stop offset="1" stop-color="#8BB764"/></linearGradient></defs></svg>