<!-- by TradingView --><svg width="56" height="56" viewBox="0 0 56 56" xmlns="http://www.w3.org/2000/svg"><path fill="#F0F3FA" d="M0 0h56v56H0z"/><path d="M45.45 25.37V24H52v1.37h-2.54V33H48v-7.63h-2.55ZM37.47 28.5c0 .94-.17 1.75-.5 2.43a3.7 3.7 0 0 1-1.38 1.54c-.58.35-1.24.53-1.97.53a3.7 3.7 0 0 1-1.98-.53 3.76 3.76 0 0 1-1.37-1.55 5.37 5.37 0 0 1-.5-2.42c0-.94.16-1.75.5-2.42.33-.67.8-1.19 1.37-1.55a3.7 3.7 0 0 1 1.98-.53c.73 0 1.39.18 1.97.53a3.7 3.7 0 0 1 1.38 1.55c.33.67.5 1.48.5 2.42Zm-1.52 0c0-.66-.1-1.22-.3-1.68a2.1 2.1 0 0 0-2.03-1.4c-.46 0-.86.12-1.21.36-.35.23-.63.58-.82 1.04-.2.46-.3 1.02-.3 1.68 0 .66.1 1.23.3 1.69.2.45.47.8.82 1.03.35.24.75.36 1.2.36.46 0 .87-.12 1.22-.36.35-.23.62-.58.82-1.03.2-.46.3-1.03.3-1.69ZM27.04 26.52c-.04-.37-.2-.66-.48-.87a1.8 1.8 0 0 0-1.1-.3c-.32 0-.59.04-.82.14-.22.1-.4.24-.52.4a1.01 1.01 0 0 0-.06 1.07c.08.13.2.24.33.34.14.09.3.17.46.23l.52.16.78.2c.32.08.62.18.92.31.3.13.56.3.79.5a2.18 2.18 0 0 1 .76 1.71c0 .51-.13.97-.38 1.36-.25.38-.61.69-1.09.9a4.1 4.1 0 0 1-1.71.33c-.66 0-1.22-.1-1.7-.32a2.55 2.55 0 0 1-1.13-.92c-.27-.4-.41-.9-.43-1.48h1.5c.02.3.1.56.26.76.16.2.37.36.62.46.26.1.55.15.86.15.33 0 .62-.06.87-.16s.45-.25.6-.43c.13-.2.2-.41.2-.66a.86.86 0 0 0-.18-.57c-.13-.15-.3-.27-.53-.37-.23-.1-.49-.2-.79-.27l-.95-.26a3.79 3.79 0 0 1-1.64-.84c-.4-.38-.6-.88-.6-1.51 0-.52.13-.97.4-1.35.27-.4.64-.7 1.1-.9a3.7 3.7 0 0 1 1.58-.33c.6 0 1.12.1 1.57.32.45.22.8.52 1.06.9.25.38.39.81.4 1.3h-1.47ZM21 24v9h-1.37l-4.02-6.13h-.07V33H14v-9h1.38l4.01 6.13h.08V24H21ZM12.52 24v9H11v-9h1.52ZM4 33v-9h5v1.37H5.5V28h3.16v1.36H5.5V33H4ZM39 33v-9h5v1.37h-3.5V28h3.16v1.36H40.5V33H39Z"/></svg>