<!-- by TradingView --><svg width="56" height="56" viewBox="0 0 56 56" xmlns="http://www.w3.org/2000/svg"><path fill="#F0F3FA" d="M0 0h56v56H0z"/><path d="M20.51 12.2c4.03 1 7.62 1.99 10.84 2.8 2.9.75 5.54 1.43 8 2.12 1.01.25 1.95 1.3 2.14 2.37.38 2.3.76 4.74 1.14 7.3.44 2.67.88 5.54 1.32 8.47.25 1.5-.5 2.8-1.7 3-2.77.43-5.92.93-9.45 1.43-4.03.62-8.63 1.37-14 2.24-2.76.44-5.03-1.25-4.78-3.68.5-4.92.94-9.47 1.39-13.65.37-3.86.69-7.42 1-10.78.2-1.5 2.02-2.19 4.1-1.63Z" fill="#231F20"/><path d="m20.64 13.88 2.39.56c.76.19 1.32.75 1.32 1.3v1.69c0 .56-.63.93-1.45.75-.75-.13-1.63-.25-2.45-.44-.89-.12-1.52-.75-1.52-1.37.07-.62.07-1.18.13-1.8.06-.57.76-.88 1.58-.7ZM20.38 19.55l2.52.37c.76.13 1.4.69 1.4 1.31v1.87c0 .69-.7 1.13-1.52 1.06a37.7 37.7 0 0 1-2.65-.25c-.94-.06-1.64-.68-1.64-1.37l.2-2.05c0-.69.81-1.06 1.7-.94Z" fill="#9BCD65"/><path d="M20 25.97c.95 0 1.83.06 2.71.13.82.06 1.52.62 1.52 1.37 0 .68-.07 1.37-.07 2.12s-.69 1.37-1.57 1.37h-2.84c-1 0-1.76-.62-1.7-1.43.07-.75.07-1.56.13-2.31s.88-1.3 1.83-1.25ZM19.63 33.27c.94-.07 1.95-.07 2.9-.13.88 0 1.57.56 1.57 1.37s-.06 1.62-.06 2.43c0 .88-.76 1.62-1.7 1.75l-3.09.37c-1 .13-1.89-.5-1.83-1.43l.2-2.68c.05-.87 1-1.62 2-1.68ZM27.57 15.5c.7.19 1.32.31 1.95.43.63.2 1.14.69 1.14 1.19.06.5.06 1.06.12 1.56 0 .5-.5.87-1.07.75l-2.02-.38c-.69-.12-1.26-.68-1.26-1.25-.06-.56-.06-1.06-.06-1.62s.57-.8 1.2-.68ZM27.7 20.67c.69.06 1.38.19 2.07.31a1.4 1.4 0 0 1 1.2 1.19c0 .56.06 1.12.06 1.68.07.62-.44 1-1.13.94l-2.08-.2c-.76-.05-1.32-.61-1.39-1.24v-1.8c0-.63.57-1 1.26-.88Z" fill="#FFE153"/><path d="M27.82 26.4c.76.07 1.45.13 2.14.13.7.06 1.26.63 1.26 1.25.07.62.07 1.25.13 1.93 0 .63-.5 1.19-1.2 1.19h-2.2c-.82 0-1.45-.56-1.45-1.31v-2.06c0-.68.63-1.18 1.32-1.12ZM27.95 32.95c.75-.06 1.5-.06 2.26-.12.7 0 1.33.56 1.33 1.25.06.68.06 1.43.12 2.18 0 .75-.56 1.37-1.26 1.5-.82.06-1.57.18-2.4.24a1.3 1.3 0 0 1-1.5-1.3v-2.37c0-.75.69-1.38 1.45-1.38Z" fill="#9BCD65"/><path d="M33.3 16.87c.5.13 1.07.25 1.58.37.5.13.94.63 1 1.06l.2 1.44c0 .5-.38.8-.89.68-.56-.06-1.07-.18-1.64-.3a1.33 1.33 0 0 1-1.13-1.13c0-.5-.06-1-.06-1.5-.07-.5.37-.75.94-.62ZM33.68 21.6c.57.07 1.13.2 1.64.26.57.12 1 .56 1.07 1.06l.19 1.62c0 .5-.38.87-.88.87l-1.77-.19a1.33 1.33 0 0 1-1.13-1.12 15 15 0 0 0-.13-1.68c0-.56.44-.94 1-.81h.01Z" fill="#FFE153"/><path d="M34.06 26.84c.63.07 1.2.07 1.76.13.57.06 1.01.5 1.07 1.06l.2 1.74c.06.63-.32 1.13-.89 1.13h-1.83c-.56 0-1.13-.56-1.2-1.19 0-.62-.06-1.24-.12-1.87 0-.62.44-1.06 1-1ZM34.5 32.7c.63-.06 1.26-.06 1.83-.06.56 0 1.07.44 1.13 1.12l.19 1.94c.06.62-.31 1.24-.94 1.3l-1.83.2c-.7.12-1.26-.44-1.26-1.13-.06-.75-.13-1.43-.13-2.12-.06-.68.44-1.25 1.01-1.25ZM38.03 18l1.32.37c.44.06.88.5.95.93l.18 1.31c.07.5-.25.75-.69.69-.44-.07-.88-.2-1.38-.25-.45-.13-.89-.56-.95-1l-.19-1.44c-.06-.43.32-.74.76-.62ZM38.6 22.42l1.38.18c.44.13.88.57.95 1l.19 1.5c.06.43-.26.8-.7.75-.44 0-.94-.07-1.38-.13a1.2 1.2 0 0 1-1.01-1.06l-.19-1.5c-.06-.5.25-.87.76-.74Z" fill="#9BCD65"/><path d="M39.23 27.22c.44.06.94.06 1.38.12.5 0 .88.44 1.01 1l.19 1.56c.06.56-.19 1-.7 1h-1.44c-.5 0-1.01-.5-1.07-1.06l-.2-1.69c-.05-.56.32-1 .83-.93ZM39.86 32.52h1.5c.45-.06.9.43.95 1 .13.56.2 1.12.26 1.74.12.56-.2 1.12-.7 1.18-.5.07-1 .07-1.5.13-.58.06-1.02-.38-1.14-1.06l-.2-1.87c-.05-.62.32-1.12.83-1.12Z" fill="#FFE153"/></svg>