<!-- by TradingView --><svg width="56" height="56" viewBox="0 0 56 56" xmlns="http://www.w3.org/2000/svg"><path fill="#181B1E" d="M0 0h56v56H0z"/><path d="m28 12 9 11-3 1.9 6 6.1-3 2 5 7.28a23.5 23.5 0 0 0-5.22-.85h-1.22c-2.56.08-4.39.6-6.16 1.16 1.16-1.35 2.6-3.6 2.6-6.7 0-2.73-2.1-6.18-4.02-9.31-1.58-2.6-3.03-4.97-3.03-6.52 0-1.05.05-1.86.11-2.47L28 12Zm-3.6 4.39c-.21.97-.4 2.22-.4 3.62s1.03 3.65 2.18 6.16c1.47 3.18 3.13 6.79 3.13 9.67 0 2.75-.9 4.43-1.8 5.33-1.58.46-3.3.83-5.62.83-4.9 0-7.29-1.7-7.88-2.57H14v-.01h.01L19 33l-3-2 6-6-3-2 5.4-6.61Z" fill="#F6F6F6"/></svg>