<!-- by TradingView --><svg xmlns="http://www.w3.org/2000/svg" width="56" height="56"><path fill="#F0F3FA" d="M0 0h56v56H0z"/><ellipse cx="28" cy="28" rx="19" ry="10" fill="#fff"/><path d="M28.22 39a39.84 39.84 0 01-1.77-.03l-.35-.01h-.06c-.16 0-.32-.02-.46-.04C15.68 38.26 8 33.62 8 28v-.13c0-.21 0-.42.02-.63.01-.22.05-.44.1-.65.02-.17.06-.33.07-.5.03-.13.07-.29.14-.42l.06-.14a8.6 8.6 0 011.53-2.49l.23-.24a7.65 7.65 0 011.54-1.39 19.7 19.7 0 011.7-1.1l.6-.35.4-.2a9.47 9.47 0 011.04-.48l.27-.1.29-.12.57-.21.93-.33c.2-.09.42-.15.64-.22a4.52 4.52 0 01.87-.23l.42-.1.53-.12a14.72 14.72 0 00.93-.22c1.78-.35 3.57-.52 5.37-.59A33.8 33.8 0 0128 17c11.05 0 20 4.92 20 11 0 .26-.02.52-.05.77v.06l-.02.26c-.07.43-.18.84-.3 1.26-.1.28-.25.56-.39.82l-.06.13a6.94 6.94 0 01-1.46 1.96l-.45.46a11.38 11.38 0 01-2.7 1.96l-.44.25c-.23.14-.47.26-.71.38-.17.08-.34.16-.5.26-.23.1-.45.19-.69.27l-.3.12-.31.13-.32.13-.2.06a7.33 7.33 0 01-.67.22l-.48.15-.62.2c-.15.03-.29.07-.43.12-.3.09-.6.17-.92.2l-.04.01-.03.02c-.4.1-.82.21-1.24.23h-.02c-.22.1-.46.13-.7.15l-.36.05-.51.08c-.3.05-.61.1-.91.12-.22 0-.44.03-.66.05l-.67.05a43.05 43.05 0 01-2.62.07zm-9.89-8.24l.27-.6c.09-.23 0-.46-.2-.55-.22-.09-.42 0-.53.22l-.4.89-.32.68-.32.69c-.02.06-.07.15-.11.21l-.16-.21v-.02l-.02-.03-.15-.4v-.01l-.16-.41a15.83 15.83 0 00-.5-1.3l-.03-.05c-.08-.18-.15-.35-.38-.37a.45.45 0 00-.42.15c-.1.13-.13.26-.04.42a.7.7 0 01.09.21c.04.15.09.29.15.44.13.3.27.6.38.91l.13.33A7.32 7.32 0 0016 33c.09.2.18.37.44.37l.16.01.09.01c.3.02.48-.06.57-.26.12-.23.23-.48.33-.72l.1-.21.31-.72.32-.72zm-3.4-3.78v.54a4.6 4.6 0 00.02.57c0 .17.2.34.42.34.22 0 .35-.1.35-.34v-.06c.03-.35.05-.68.05-1.03 0-.33-.18-.46-.5-.43-.17 0-.32.21-.35.4zm1.63 1.48c.2 0 .38-.16.38-.35 0-.2 0-.4.02-.57v-.65c0-.1-.02-.17-.13-.24-.13-.08-.27-.15-.4-.06-.16.08-.27.2-.27.39v1.1c0 .2.2.38.4.38zm.78-.96l-.02.52c0 .2.08.33.24.41.22.11.49.03.53-.21.03-.16.04-.32.05-.48 0-.08 0-.16.02-.24h-.03v-.54a.38.38 0 00-.6-.3.41.41 0 00-.17.32l-.02.52zm2.74 4.5l.01-.52.01-.52v-.33c.01-.22.02-.43 0-.63 0-.17-.2-.35-.37-.4-.13-.01-.36.14-.42.3a.68.68 0 00-.07.3v2.91c-.02.15.07.26.2.32.13.07.27.05.4-.02.2-.1.22-.3.22-.48.02-.3.02-.63.02-.93zm7.26 1.54c.2-.1.27-.3.27-.52V31.6c0-.48 0-.96.04-1.46 0-.28-.15-.43-.42-.43h-.06a27.5 27.5 0 00-1.58-.05h-2.81c-.24 0-.26-.04-.26-.26 0-.1 0-.22-.02-.32-.03-.2-.2-.27-.36-.29-.15-.02-.29.07-.38.2-.09.13-.09.26-.08.39v.06c0 .2 0 .2-.2.2-.14 0-.3 0-.42.02-.2.05-.31.24-.3.44.03.2.2.34.4.34h.38c.1 0 .14.07.14.16-.03.43-.03.89-.03 1.32-.02.4-.04.79-.04 1.18 0 .28.13.39.42.39.27-.02.4-.13.4-.4v-.3c0-.7.02-1.37.04-2.07v-.06c0-.2.03-.2.2-.2.18.03.38.05.56.05l2.59.07h.8c.15 0 .17.02.17.17v.37c0 .09-.02.15-.13.15l-.73-.01-.73-.01c-.36-.02-.73-.04-1.09-.04a.4.4 0 00-.4.32c-.02.09-.04.18-.04.26v1.35c0 .13.02.24.1.28.1.05.23.11.36.11l.62.02a42.2 42.2 0 002.28.06c.11 0 .22-.01.31-.06zm9.61-.91c.02-.48.02-.93.02-1.4a5 5 0 01.07-.82c.02-.28-.13-.43-.4-.48-.09-.02-.2-.04-.29-.04h-.06c-.66-.02-1.3-.04-1.97-.04h-2.48c-.67 0-1.33-.02-2-.05-.3-.02-.64-.02-.97-.02-.26 0-.42.09-.44.4-.02.47-.05.97-.05 1.45 0 .37.18.48.47.48.47.03.94.04 1.4.05l.7.01h.4c.09 0 .11.05.11.13v.44c0 .09-.07.13-.15.13-.45-.02-.87-.02-1.29-.02a24.4 24.4 0 00-1.26-.05.4.4 0 00-.31.13c-.13.14-.13.29-.07.44.07.15.2.24.38.24h1.51l.57.02.52.01.52.01c.22 0 .33-.1.38-.32a3 3 0 00.04-.44v-1.06c0-.26-.2-.48-.49-.48-.7 0-1.41-.02-2.12-.05h-.21c-.13.01-.2.02-.23-.02-.04-.03-.04-.12-.03-.32v-.13c0-.11 0-.17.03-.2.03-.02.08-.02.2-.02.5 0 1.01.02 1.52.04l1.01.02c.34 0 .68.01 1 .03l1.48.03 1.47.03c.2 0 .2.02.2.22l-.02.6-.02.6v.56c0 .22 0 .22-.22.22a21.7 21.7 0 00-1.22-.05h-.32c-.1 0-.21 0-.32-.02-.18-.02-.18-.02-.18-.2l.01-.2.01-.23c.02-.26.02-.54.02-.8-.02-.2-.2-.4-.37-.42a.42.42 0 00-.45.26.66.66 0 00-.06.29v1.72c0 .15.06.28.22.34a.5.5 0 00.27.07h.06c.97.02 1.93.04 2.9.04.31 0 .44-.1.47-.41.02-.24.04-.48.04-.72zm2.63-8.28c.25 0 .5.02.74.04.15.02.17.03.08.24v3.26c0 .24-.04.26-.28.26l-.9-.02-.9-.02h-.13c-.1-.01-.2-.02-.29 0-.33.02-.46.28-.33.59.06.12.18.16.3.2l.05.01h2.88c.29 0 .4-.1.4-.37l.07-2.8c0-.27 0-.54.02-.82l.02-.81c0-.33-.2-.48-.49-.48l-.23-.02-.23-.02c-.11-.02-.13-.07-.13-.18v-.05c.02-.29.04-.55.04-.84 0-.28-.15-.43-.42-.43l-.83-.02-.83-.03c-.38 0-.53.16-.53.53v.82c0 .13-.05.18-.18.18H37c-.26 0-.28-.03-.28-.29v-.89c0-.1 0-.22-.11-.28-.14-.09-.27-.15-.42-.09-.18.09-.27.2-.27.4 0 .3 0 .6-.02.9 0 .18-.02.2-.18.2-.42 0-.84-.02-1.26-.04-.18 0-.18-.02-.18-.2 0-.11 0-.22.02-.34 0-.17.02-.34 0-.5-.02-.3-.15-.44-.44-.42-.26.02-.37.13-.37.4v.86c0 .2-.05.22-.25.22h-.26c-.25 0-.38.17-.4.4 0 .19.13.38.4.4h.27c.17.03.2.03.2.2v.63c-.03.44-.05.87-.05 1.3 0 .27.13.42.37.46a39.61 39.61 0 011.82.06h.06c.18 0 .2.05.18.2a4.5 4.5 0 00-.04.57v.17c0 .18 0 .18-.18.18h-.27c-.48 0-.95-.02-1.44-.05h-.06c-.34 0-.68-.02-1.01-.03h-.01l-1.02-.03-1.38-.03c-.46 0-.92 0-1.38-.02H28c-.12 0-.18 0-.18-.13v-1.65h.02v-1.67c0-.2.02-.22.22-.22h.9c.14 0 .19.04.19.17v.96c0 .3-.03.63-.05.93-.02.13.02.24.1.33.12.15.26.22.46.17.17-.06.28-.2.28-.37a25.83 25.83 0 00.05-1.3v-.06c.02-.23.04-.46.04-.7.02-.13.07-.15.18-.15h.88c.18 0 .2.06.2.21v.23l-.02.23v1.57c.02.15.18.32.33.34.25.03.38-.04.45-.26a.65.65 0 00.04-.2l.03-1.22.04-1.23c.02-.35-.18-.52-.51-.52h-.95l-.3-.02-.28-.02-.01-.29-.01-.28v-.54a.44.44 0 00-.38-.37.36.36 0 00-.4.28v.05a1.2 1.2 0 00-.04.25v.77c0 .15-.05.17-.2.17l-.34-.01-.35-.01h-.15c-.14-.01-.2-.01-.24-.05-.03-.03-.03-.1-.03-.22v-.85c-.02-.27-.2-.43-.46-.4a.45.45 0 00-.38.43v.8c0 .24 0 .24-.24.24l-.55-.02c-.19 0-.37 0-.56-.02h-.02c-.02.01-.03.02-.04 0-.03 0-.03-.04-.03-.06l.02-.03c.02-.02.04-.05.07-.06l.34-.27.35-.27c.1-.1.22-.22.2-.4-.03-.13-.07-.3-.22-.32h-.05c-.14-.03-.3-.05-.44.08-.11.12-.24.2-.37.3l-.14.1c-.38.28-.75.56-1.1.87-.07.04-.14.08-.23.08a47.8 47.8 0 01-1.75-.02c-.17 0-.2-.02-.2-.17v-.98c0-.18-.09-.3-.26-.37-.16-.04-.33-.04-.45.09a.6.6 0 00-.1.34c-.03.26-.03.5-.03.76 0 .29 0 .29-.29.29-.46 0-.9-.02-1.37-.04h-.09l-.03-.02a.08.08 0 00-.03 0l.02-.05.02-.04.4-.33.16-.13c.1-.08.22-.16.3-.26.1-.09.16-.22.07-.4-.09-.15-.2-.23-.4-.23a.58.58 0 00-.37.15l-.45.36-.44.36-.6.45a.47.47 0 01-.22.1h-1.17l-.06-.02-.05-.01a.47.47 0 01.06-.11c.3-.22.58-.43.85-.67.22-.22.17-.48-.12-.63-.17-.1-.33-.03-.48.06l-.21.16-.1.08c-.49.4-.95.76-1.44 1.13a.46.46 0 00-.22.46c.02.17.1.28.29.3.22.02.44.04.66.04.29.03.55.03.84.03l.06.03.05.03-.07.07-1.12.91-.31.25-.31.25c-.14.09-.16.22-.14.35.05.24.16.35.4.35.22.02.42.02.64.02l.88.02.87.02c.22.02.4-.2.42-.39 0-.2-.2-.4-.42-.41l-.46-.03c-.16 0-.31 0-.47-.02h-.1c-.07 0-.1-.04-.05-.08l.06-.07.82-.65a102.44 102.44 0 011.02-.78c.02 0 .09.02.09.04v.23c-.02.33-.04.64-.04.97v3.08c0 .28.15.44.44.44l1.65.03 1.65.03c.27 0 .51.02.78.04h.06c.18 0 .4-.12.44-.3a.39.39 0 00-.22-.5.7.7 0 00-.29-.06h-.97c-.2 0-.2-.03-.2-.2v-.14l.02-.14c.02-.22.02-.22.24-.22h1.09c.2 0 .38-.17.38-.37a.4.4 0 00-.36-.39l-.5-.02-.5-.02h-.22c-.09 0-.13-.05-.13-.13v-.42c0-.1.07-.15.18-.15h1.08c.31-.02.47-.2.42-.48-.02-.2-.22-.35-.46-.35h-.95c-.12 0-.18 0-.21-.03-.04-.04-.04-.12-.04-.3v-.12c.01-.12.02-.18.05-.21.04-.03.1-.03.22-.03.82 0 1.64.02 2.46.04.15 0 .15.02.15.2v2.24c-.02.56-.04 1.15-.04 1.71 0 .11.04.22.13.3.13.14.29.12.42.07a.4.4 0 00.29-.34v-.22a202.71 202.71 0 01.06-3.83c.03-.04.07-.08.11-.08h1.04c.12 0 .16.06.16.15v.17c0 .44-.02.9-.04 1.33v.93c-.03.48-.05.98-.05 1.46 0 .37.18.43.47.48h.1l.9.02.88.02 1.2.02 1.21.02c1.06.03 2.1.03 3.14.03.21 0 .42 0 .64.02l.63.02c.37 0 .48-.2.48-.48l.03-.62c0-.2 0-.41.02-.62 0-.11 0-.16.02-.19.03-.03.08-.03.18-.03H38c.3 0 .42-.13.42-.4l.04-1.63.03-1.62.01-.19.01-.16c0-.08.05-.13.14-.13l.32.02h.32c.09.03.13.07.13.16v1.22c0 .1.04.15.15.15zm1.58 6.75l.22-.5c.02-.06.04-.12.02-.17a.42.42 0 00-.29-.45c-.1-.05-.37.04-.44.15-.07.1-.13.24-.18.35l-.4.98c-.11.3-.25.58-.38.87l-.13.28-.08.09c-.01-.03-.03-.04-.05-.06a.21.21 0 01-.04-.05l-.15-.36-.14-.36-.33-.83-.33-.82c-.11-.24-.34-.37-.58-.29-.18.07-.3.3-.24.53.06.21.15.43.24.65l.07.15.06.15.18.43.18.42c.15.41.3.8.48 1.22.12.24.16.48.03.72-.11.2-.2.39-.27.6-.07.2.05.44.2.5.16.1.44 0 .55-.17.06-.09.1-.17.14-.26l.06-.13.2-.5.2-.5a19 19 0 01.44-.98l.54-1.17.22-.5zm.77-9.17a10.77 10.77 0 011.57.96l.31.2-.02-.04a.11.11 0 00-.02-.05c-.16-.13-.31-.26-.47-.37a17.98 17.98 0 00-1.05-.7c-.15-.08-.3-.16-.43-.26-.44-.29-.92-.52-1.4-.75l-.28-.14c-.32-.16-.66-.3-.99-.43l-.16-.07-.25-.1a11.2 11.2 0 01-.24-.1l-.29-.08-.29-.09-.35-.12a22.06 22.06 0 00-2.6-.72c-.3-.08-.58-.13-.87-.19l-.38-.08c-.05-.02-.07-.02-.11-.02l-.31-.04c-.2-.02-.42-.04-.62-.09-.3-.07-.63-.1-.94-.14l-.48-.05a4.32 4.32 0 00-.53-.05c-.18 0-.35-.02-.52-.03l-.52-.03-.45-.04a5.19 5.19 0 00-.68-.05h-.8c-.88-.02-1.77-.03-2.65.09-.15.03-.31.04-.47.05l-.24.01a28.99 28.99 0 01-1.42.11l-.03.01a.08.08 0 01-.03.01l-.67.12-.66.12-.56.11-.66.13c-.12.02-.24.06-.35.09l-.36.09a6.4 6.4 0 00-.84.2 18.58 18.58 0 01-.6.19l-.26.08-.93.33c-.36.12-.71.27-1.06.41l-.43.18a33.32 33.32 0 01-.9.43c-.22.11-.45.22-.67.35l-1.02.65-.08.05c-.24.16-.52.34-.73.54a8 8 0 00-2.32 2.83 5.84 5.84 0 00-.54 2.17v.37c-.04.56.13 1.09.31 1.6a5.8 5.8 0 00.98 1.81c.14.2.28.39.46.54l-.18-.28-.18-.28a7.5 7.5 0 00-.1-.16l-.23-.45c-.17-.43-.33-.89-.44-1.35a5 5 0 01.35-3.22 8.66 8.66 0 012.13-2.76c.27-.23.57-.44.88-.65l.27-.2a16.23 16.23 0 013.21-1.71l.28-.12a16.65 16.65 0 011.79-.63l.34-.1.18-.06a9.07 9.07 0 011.44-.37l.42-.08.49-.1a14.82 14.82 0 011.77-.3c.31-.04.63-.1.95-.11.13 0 .26-.03.4-.04.23-.03.46-.06.68-.05h.27c.19 0 .38-.02.56-.04l.57-.04.53-.01c.18 0 .35 0 .53-.02.64-.02 1.28.02 1.92.06l1.2.05.06.01.05.01.45.05.44.04.16.02c.06 0 .12.01.17.03l.53.09c.27.05.55.1.82.12.34.03.66.1.98.17l.35.07.39.09.38.09a11.58 11.58 0 011.91.52c.24.04.47.13.7.21l.32.11c.26.08.5.18.76.3a29.17 29.17 0 001.16.46l.62.32c.2.1.41.22.62.31zm-7.64 2.5v1.14l.03.21c0 .07 0 .14.02.22l.2.01h.01l.21.01h.06c.29.03.56.05.85.05.17 0 .2 0 .2-.16 0-.48.02-.98.04-1.45.02-.13-.02-.18-.15-.18h-1.31c-.11 0-.16.05-.16.15zm3.37 1.09l-.02.41c0 .11-.05.16-.14.16h-.62c-.13 0-.17-.07-.17-.18l.02-.74.02-.74c0-.1.05-.13.16-.13h.62c.13 0 .17.05.17.18-.03.14-.03.29-.02.45v.18l-.02.41zm-17.6-.81c.13 0 .26.02.38.03.2 0 .42 0 .64-.02.15-.02.18-.03.18-.2v-.35c0-.08 0-.13-.03-.15-.02-.02-.06-.02-.15-.02h-.9a3.34 3.34 0 01-.47-.02c-.1 0-.16.04-.16.15v.4c0 .1.05.14.13.14l.38.04zm.44 3.05c-.28-.02-.57-.04-.86-.04-.13 0-.15-.05-.15-.15v-.4c0-.13.06-.17.17-.15.16.02.31.05.47.05H21c.18 0 .2 0 .2.2v.2c0 .16.01.23-.03.27-.03.03-.1.03-.23.03h-.45zm-.82-1.56h.67c.15 0 .29 0 .44.02h.19c.12 0 .18-.01.2-.04.04-.03.04-.1.03-.22v-.16c0-.26-.02-.28-.29-.28-.3-.02-.62-.02-.93-.02-.53 0-.53 0-.5.5 0 .17 0 .2.2.2zm5.8 6.53l-.77-.01c-.2 0-.2-.02-.2-.18v-.17c.01-.17.01-.24.05-.28.03-.03.09-.02.19-.02h1.8c.22 0 .22 0 .2.21 0 .11 0 .22-.03.35 0 .09-.04.13-.15.13h-.31v-.02l-.78-.01z" fill="#ED1C24"/></svg>