<!-- by TradingView --><svg width="56" height="56" xmlns="http://www.w3.org/2000/svg"><path fill="#D4003B" d="M0 0h56v56H0z"/><path fill-rule="evenodd" d="M40.099 19.67l.155-.014c.067.011.145.004.155-.015l-.01.019c1.382-.017 2.408.592 3.136 2.134C44.545 23.914 49 36 49 36h-3.19s-.671-1.904-1.514-4.156c-1.148.27-2.603.42-3.889.44-1.256.012-2.708-.103-3.821-.362L35.17 36H31.97s4.115-11.948 5.057-14.097c.684-1.568 1.707-2.205 3.07-2.232zm3.04 9.064c-.835.28-3.418.73-5.427.167 0 0 1.352-4.002 1.945-5.795.058-.203.263-.72.582-.68.334-.064.519.424.602.622.066.158 1.633 3.948 2.298 5.686zM15.136 19.67l.155-.014c.067.011.144.004.154-.015l-.01.019c1.38-.017 2.403.592 3.13 2.134C19.572 23.914 24.028 36 24.028 36h-3.195s-.67-1.904-1.51-4.156c-1.146.27-2.597.42-3.88.44-1.254.012-2.702-.103-3.813-.362L10.218 36H7s4.132-11.948 5.072-14.097c.682-1.568 1.704-2.205 3.064-2.232zm3.033 9.064c-.833.28-3.41.73-5.415.167 0 0 1.35-4.002 1.942-5.795.057-.203.261-.72.58-.68.333-.064.518.424.6.622.067.158 1.63 3.948 2.293 5.686z" fill="#fff"/><path d="M30 20v16h-4V20h4z" fill="#fff"/></svg>