<!-- by TradingView --><svg width="56" height="56" viewBox="0 0 56 56" xmlns="http://www.w3.org/2000/svg"><path fill="#F0F3FA" d="M0 0h56v56H0z"/><path d="M48 29.94 50.4 24H52l-3.23 8h-1.54L44 24h1.6l2.4 5.94ZM20 24h1.5v8H20v-8ZM30 24v8h6v-1.4h-4.5v-2H36v-1.4h-4.5v-1.8H36V24h-6ZM37 24v8h1.48v-6.66h2.4c.62 0 1.12.48 1.12 1.06 0 .58-.5 1.06-1.12 1.06h-1.72l3.2 4.54H44l-2.25-3.33a2.4 2.4 0 0 0 1.87-2.3c0-1.3-1.13-2.37-2.52-2.37H37ZM4 24v8h1.48v-6.66h2.4c.62 0 1.12.48 1.12 1.06 0 .58-.5 1.06-1.12 1.06H6.16L9.36 32H11l-2.25-3.33a2.4 2.4 0 0 0 1.87-2.3c0-1.3-1.13-2.37-2.52-2.37H4ZM11 27.5a4.04 4.04 0 0 1 8 0h-1.37a2.69 2.69 0 0 0-5.26 0H11Z" fill="#007280"/><path d="M11 28.52A4.03 4.03 0 0 0 15 32c2.04 0 3.73-1.5 4-3.48h-1.37a2.69 2.69 0 0 1-5.26 0H11Z" fill="#E06128"/><path d="M27.36 26.34a.97.97 0 0 0-.38-.71 1.48 1.48 0 0 0-.92-.25c-.26 0-.48.03-.66.11a.94.94 0 0 0-.41.3.75.75 0 0 0-.15.46c0 .14.03.26.09.36.06.1.15.2.26.27.11.07.24.14.39.2.14.05.3.1.46.13l.69.17c.33.07.63.18.9.3.28.13.52.29.73.47.2.19.35.4.47.65.11.25.17.54.17.87 0 .47-.12.89-.36 1.24-.23.34-.56.61-1 .8-.44.2-.97.29-1.58.29-.62 0-1.15-.1-1.6-.29-.46-.2-.8-.48-1.06-.85a2.6 2.6 0 0 1-.4-1.41h1.55c.02.26.1.47.22.65.13.17.3.3.52.4.22.08.47.12.75.12.27 0 .5-.04.7-.12.2-.08.36-.2.47-.34a.8.8 0 0 0 .17-.5.66.66 0 0 0-.15-.44c-.1-.12-.24-.22-.44-.3a4.36 4.36 0 0 0-.7-.23l-.82-.21a3.43 3.43 0 0 1-1.52-.75c-.37-.34-.55-.8-.55-1.37 0-.47.12-.89.37-1.24s.59-.63 1.02-.82c.44-.2.93-.3 1.48-.3.57 0 1.06.1 1.48.3a2.22 2.22 0 0 1 1.35 2.05h-1.54Z" fill="#007280"/></svg>