<!-- by TradingView --><svg width="56" height="56" viewBox="0 0 56 56" xmlns="http://www.w3.org/2000/svg"><path fill="#F0F3FA" d="M0 0h56v56H0z"/><path d="M26 48V23.27c12.08.37 15.99 4.65 16 9.13.01 4.22-3.43 8.62-6.43 10.1A82.53 82.53 0 0 0 26 48Z" fill="url(#aiy334yhd)"/><path d="M34.83 34.02c.4 3.83-9.06 7.57-13.83 8.96V24.95c4.45 1.43 13.43 5.25 13.83 9.07Z" fill="#97CDE7"/><path d="M26 41.32c4.4-1.82 9.1-4.54 8.83-7.3-.28-2.7-4.72-5.39-8.83-7.25v14.55Z" fill="#094D96"/><path d="M35 33.48V9.13c-18.94-1.27-21 7.02-21 8.58 0 1.55.28 5.1 6.31 7.56 4.83 1.97 11.9 6.3 14.69 8.21Z" fill="url(#biy334yhd)"/><path d="M35 24.64v8.84c-1.8-1.23-5.39-3.47-9-5.44v-4.77c3.75.12 6.7.61 9 1.37Z" fill="url(#ciy334yhd)"/><defs><linearGradient id="aiy334yhd" x1="26.19" y1="33.82" x2="42" y2="33.82" gradientUnits="userSpaceOnUse"><stop stop-color="#1862A3"/><stop offset="1" stop-color="#ABD9F1"/></linearGradient><linearGradient id="biy334yhd" x1="14" y1="17.23" x2="34.73" y2="17.55" gradientUnits="userSpaceOnUse"><stop stop-color="#EDF3CF"/><stop offset="1" stop-color="#64A932"/></linearGradient><linearGradient id="ciy334yhd" x1="26" y1="25.72" x2="35" y2="25.72" gradientUnits="userSpaceOnUse"><stop stop-color="#00543B"/><stop offset="1" stop-color="#23743A"/></linearGradient></defs></svg>