<!-- by TradingView --><svg width="56" height="56" viewBox="0 0 56 56" xmlns="http://www.w3.org/2000/svg"><path fill="#F0F3FA" d="M0 0h56v56H0z"/><path d="M37.55 27A2.37 2.37 0 0 1 40 29.4c0 1.74-1.23 2.6-2.49 2.6A2.39 2.39 0 0 1 35 29.6a2.5 2.5 0 0 1 2.55-2.6Zm-.18.3c-.54 0-.95.67-.95 1.95 0 1.39.4 2.45 1.2 2.45.53 0 .96-.4.96-2 0-1.43-.38-2.4-1.2-2.4ZM35 31.46l-1.09.42c-.2.07-.38.12-.53.12-.94 0-1.38-.43-1.38-1.43V27h-.96l-.04-.1.36-.32H32v-.77l1.19-.81.17.05v1.53h1.42c.12.12.09.36-.1.42h-1.32v3.24c0 .91.4 1.1.8 1.1.32 0 .54-.07.72-.14l.12.26ZM30.6 25.8l-.27.07c-.27-.75-.66-1.53-1.69-1.53-.73 0-1.18.55-1.18 1.25 0 .77.48 1.17 1.44 1.7 1.06.58 2.1 1.23 2.1 2.47C31 31 29.88 32 28.18 32c-.41 0-.74-.05-1.07-.13a4.49 4.49 0 0 1-.77-.24c-.12-.33-.26-1.17-.34-1.79l.3-.1c.24.73.87 1.92 2.06 1.92.85 0 1.32-.58 1.32-1.35 0-.73-.54-1.21-1.44-1.73-1-.58-2.04-1.23-2.04-2.42 0-1.18.96-2.16 2.64-2.16.65 0 1.15.14 1.54.25.05.45.13.94.23 1.56ZM24.81 30.73l.14.18c-.6.86-1.38 1.09-1.8 1.09-1.36 0-2.15-1.07-2.15-2.29 0-.87.36-1.59.84-2.03.43-.4.97-.68 1.5-.68h.02c.97 0 1.65.84 1.64 1.63 0 .24-.05.3-.27.34-.15.03-1.28.13-2.42.18 0 1.42.55 2.03 1.32 2.03.45 0 .8-.14 1.18-.45Zm-1.69-3.4c-.43 0-.67.56-.75 1.42.5 0 .76-.02 1.27-.03.16 0 .22-.06.22-.25 0-.58-.26-1.14-.74-1.14ZM50.81 30.73l.14.18c-.6.86-1.38 1.09-1.8 1.09-1.36 0-2.15-1.07-2.15-2.29 0-.87.36-1.59.84-2.03.43-.4.97-.68 1.5-.68h.02c.97 0 1.65.84 1.64 1.63 0 .24-.05.3-.27.34-.15.03-1.28.13-2.42.18 0 1.42.55 2.03 1.32 2.03.45 0 .8-.14 1.18-.45Zm-1.69-3.4c-.43 0-.67.56-.75 1.42.5 0 .76-.02 1.27-.03.16 0 .22-.06.22-.25 0-.58-.26-1.14-.74-1.14ZM21 32h-2.67v-.22c.59-.07.67-.1.67-.85v-2.1c0-.76-.08-1.1-.7-1.1-.34 0-.66.14-.97.37v2.87c0 .7.08.75.6.8V32H15.2v-.22c.73-.07.8-.1.8-.84v-2.51c0-.67-.04-.73-.64-.84v-.18c.72-.08 1.36-.23 1.97-.41v.8c.27-.19.5-.32.74-.47.34-.2.58-.32.98-.32.96 0 1.28.65 1.28 1.62v2.31c0 .74.07.77.67.84V32ZM46 32h-2.67v-.22c.59-.07.67-.1.67-.85v-2.1c0-.76-.08-1.1-.7-1.1-.34 0-.66.14-.97.37v2.87c0 .7.08.75.6.8V32H40.2v-.22c.73-.07.8-.1.8-.84v-2.51c0-.67-.04-.73-.64-.84v-.18c.72-.08 1.36-.23 1.97-.41v.8c.27-.19.5-.32.74-.47.34-.2.58-.32.98-.32.96 0 1.28.65 1.28 1.62v2.31c0 .74.07.77.67.84V32ZM14.8 32h-3v-.25c.7-.08.8-.13.8-1.02V28c0-.77-.08-.8-.71-.94v-.21c.62-.1 1.36-.27 2.11-.5v4.4c0 .87.08.93.8 1V32ZM12.5 24.7c0 .39.35.72.74.72.44 0 .76-.33.76-.71 0-.4-.32-.71-.75-.71-.4 0-.74.3-.74.7ZM5.07 24H8c1.46 0 2.99.55 2.99 2.26 0 1.58-1.2 2.36-2.5 2.53-.17.02-.3.02-.43.01l-.68-.21v1.96c0 1.02.03 1.13 1 1.21V32H5v-.24c.86-.09 1-.19 1-1.21v-5.06c0-1.04-.12-1.13-.93-1.23V24Zm2.32.9v3.35c.16.06.3.11.58.11.5 0 1.5-.32 1.5-2.05 0-1.45-.71-1.97-1.56-1.97-.2 0-.28.04-.36.09-.13.07-.16.2-.16.47Z" fill="#00391D"/></svg>