<!-- by TradingView --><svg width="56" height="56" viewBox="0 0 56 56" xmlns="http://www.w3.org/2000/svg"><path fill="#F0F3FA" d="M0 0h56v56H0z"/><path d="M26 22.27c-.7-2.56-3-2.26-3-2.26A15.5 15.5 0 0 1 24.4 24l1.6-1.73ZM24 26.3C23.3 23.7 21 24 21 24A15.2 15.2 0 0 1 22.4 28l1.6-1.7ZM49 20h-9.1c-1.63 0-1.9 2-1.9 2h9.15c1.59 0 1.85-2 1.85-2ZM39.53 26c.36-.41.78-.76 1.25-1.04a3.57 3.57 0 0 1 1.89-.58c1.31 0 2.35.86 2.96 1.62h2.48c1.52 0 1.89-2 1.89-2H37.92C36.48 24 36 26 36 26h3.53ZM24 28l-4 4.8 1.71 1.2c2.53-3.54 2.28-6 2.28-6Z" fill="#008ED8"/><path d="M47.13 27.97c-.87-.33-1.44-.42-1.8-.97-.4-.63-1.95-3.1-4.42-1.43-1.85 1.26-1.2 2.1-3.28 3.16-1.3.67-1.63 1.47-1.63 2.16 0 .41.17.8.44 1.09.51.55 1.75 1.02 3.12 1.02 1.66 0 4.03-.69 3.97-2.7-.01-.71-.69-1.3-1.44-1.3-.46 0-.95.18-1.33.82a.56.56 0 0 0-.06.36c.02.12.07.23.16.31.05-.64.4-.46.4-.46.33.2.62.56.25 1.1-.66.94-2.5.78-2.83.35-.32-.44-.51-1.37.7-2.25A5.32 5.32 0 0 1 42.5 28c.45.01.93.1 1.45.35.91.45 2.06 1.2 2.05 2.4-.02 2.65-4.64 3.1-6.44 3.4C37.12 34.58 34.37 36 34 37c0 0 2-2 7.22-2 2.57.04 7.8-.93 7.78-4.51 0-1.42-1-2.2-1.87-2.52ZM14.2 20l-1.04 6.23a65.35 65.35 0 0 1-.85 4.66c-.36 1.4-.8 2.77-1.31 4.11a7.15 7.15 0 0 0 2.2-2.07c.59-.85 1-1.9 1.22-2.93h3.06l-.15 1.39c-.17 1-.38 2.24-1.56 2.24h-.8L14.7 35s.97.05 1.76 0c.59 0 1.16-.22 1.62-.6.3-.3.52-.64.68-1.02.18-.43.3-.88.37-1.35L21 20h-6.8Zm3.48 8h-2.93c.13-.67.24-1.33.34-2H18l-.32 2Zm.77-4h-3.03l.31-2h3.04l-.32 2ZM34.11 27.95 35 23h-2.98c.34-.56.33-.72.5-1h1.95C35.8 22 36 20 36 20h-9.48l-.93 5.86c-.5 3.17-1.32 6.44-2.59 7.67.37-.35 3.02-.17 4.29-7.4l.7-4.13h2.75c-.19.43-.15.59-.37 1h-1c-.52.08-.96.57-1.01 1.15L27.54 29h2.4l-.37 2.4c-.07.35-.38.61-.7.61-.37.02-.95 0-.95 0 .47-.72.67-1.72.56-2.57a17.2 17.2 0 0 1-2.75 2.9l1.08 1.12c.4-.32.75-.89 1.02-1.35 0 .59-.06 1.33-.17 1.9h1.97c.93-.1 1.5-1.13 1.6-1.97l.45-3.03h1.39c.9-.01 1.04-1.05 1.04-1.05Zm-1.6.05h-3.08l.15-1h3.09l-.16 1Zm.37-3H29.8l.15-1h3.08l-.15 1ZM13 20H9.11c-1.06 0-1.25 1.22-1.25 1.22L6 33h4.08c.76 0 1.01-.93 1.01-.93L13 20ZM9.47 31H8.14l.58-3.58h1.33L9.47 31Zm.87-5.45H9.01L9.6 22h1.33l-.58 3.55Z" fill="#008ED8"/><path d="M32 30c.16 1.2.29 2.48.47 4l1.53-.92c-.3-2.74-2-3.08-2-3.08Z" fill="#008ED8"/></svg>