<!-- by TradingView --><svg width="56" height="56" viewBox="0 0 56 56" xmlns="http://www.w3.org/2000/svg"><path fill="#F0F3FA" d="M0 0h56v56H0z"/><path d="M39.9 30.76c.1-.08.23-.1.39-.06.04 0 .05.03.04.07 0 .04-.02.07-.05.1-.24.22 0 .34-.11.73-.02.05-.04.07-.1.06a.65.65 0 0 0-.37.06c-.04.02-.05.04-.03.08.07.11.08.46.3.38a.3.3 0 0 0 .23-.26.15.15 0 0 1 .07-.1c.17-.12.32-.68.53-.67.05 0 .08 0 .1-.04.41-.54.42-.59.86-1.2a.4.4 0 0 1 .24-.17c.05-.01.08 0 .07.06l-.01.1c-.01.1.17.12 0 .53 0 .03-.02.04-.04.05-.04.03-.35.14-.27.2.06.05.1.12.14.2.1.24.27-.34.31-.38a.19.19 0 0 0 .06-.1c.03-.21.2-.31.3-.49.6-1.11.66-1.08 1.22-.78.04.02.06 0 .05-.04 0-.08.02-.15.08-.2.07-.04.1-.03.09.05A16.05 16.05 0 0 1 29.86 43.9a16 16 0 1 1 12.6-22.73 5.95 5.95 0 0 1-1.93 7.06c-.22.17-.5.17-.77.28-.47.19-.94.43-1.44.5-.82 0-2.84-.08-3.62-.87-.08-.08-.18.14-.3.1-.05 0-.06-.03-.04-.08.07-.15.03-.32-.1-.5l-.72-1c-.61-.83-1.33-1.4-1.96-2.25-.59-.82-1.27-1.63-1.83-2.5a6.37 6.37 0 0 0-1.83-1.88.21.21 0 0 0-.24.03c-.34.3-.64.7-1 .97-.66.48-2.46 3.18-2.95 4.16-1.33 2.65-2.22 3.45-4.15 6.46-.1.17-.25.22-.35.37a.07.07 0 0 0 .03.1c.67.42 1.58.05 2.5-.2.38-.09.72-.07 1.1-.1.77-.06 1.5.1 2.39.17.39.03.74.26 1.1.4.23.08.48.04.73.05 1.49.02 3.27 1.56 4.82 1.14.4-.1.72.28 1.11.23l1.8-.2c.83-.09 1.4-.35 2.18-.65 1.4-.55 1.88-1.4 2.9-2.2Z" fill="#F42A2C"/></svg>