<!-- by TradingView --><svg width="56" height="56" viewBox="0 0 56 56" xmlns="http://www.w3.org/2000/svg"><path fill="#181B1E" d="M0 0h56v56H0z"/><path fill-rule="evenodd" d="M32.53 18.63h.26c0 .1.04.18.1.23.04.04.1.06.2.05l.3-.05c.4-.08.82-.16 1.12.26.06.08.13.1.22.08a.37.37 0 0 0 .12-.09.28.28 0 0 1 .24-.07c.12.01.24.14.34.38.04.08.1.13.19.13.07 0 .16-.05.25-.16a.22.22 0 0 1 .26-.08l3.1 1.03.09.06.06.09c.08.2.12.32.1.35-.2.4-.1.5.3.33.41-.17.78-.04 1.1.38.06.07.12.12.2.15.07.04.15.05.23.03.25-.04.47 0 .67.12a6.8 6.8 0 0 0 .77.39c.36.13.62.22.99.46.21.14.6.35 1.15.63.08.04.12.1.1.2-.01.24-.13.38-.34.41-.12.02-.13.06-.03.13.13.08.27.05.45-.1.1-.09.18-.22.22-.38.04-.13.1-.15.2-.06l.45.44c.07.07.07.14 0 .2a.99.99 0 0 1-.23.14c-.1.05-.15.09-.17.12a.21.21 0 0 0-.02.15c.02.1.07.13.15.1.28-.06.44.02.47.24.01.05.03.09.07.12.03.03.08.04.12.03l.23-.03c.12-.02.17-.1.14-.22l-.04-.22c-.02-.1.01-.14.1-.11l.47.16c.05.01.08.04.1.08.02.05.02.1.01.14l-.05.18a.1.1 0 0 0 0 .06c0 .02.02.04.04.05.19.13.19.32 0 .57a.23.23 0 0 0-.03.25c.16.35.4.58.74.7.1.03.13.1.1.2l-.13.46c-.03.1 0 .17.06.22.09.06.25.07.49.02.27-.06.36.05.28.34l-.04.16c-.03.1-.02.2.03.28.12.2.18.4.17.62 0 .1-.06.15-.15.15h-.1a.12.12 0 0 0-.08.04.16.16 0 0 0-.04.1c0 .04 0 .08.03.11.01.04.04.07.07.1.14.1.19.23.14.4-.03.1-.1.15-.19.16l-1.16.17a.22.22 0 0 0-.1.05.25.25 0 0 0-.08.1c-.04.09-.07.2-.08.34 0 .1-.06.16-.14.2-.2.07-.37.02-.49-.17a.57.57 0 0 0-.18-.2l-.66-.36c-.09-.05-.15-.05-.2.02v.01l-.02.05c-.01.04 0 .07.02.1.1.15.31.26.62.33.07.02.1.07.1.16 0 .08-.1.16-.3.22a.35.35 0 0 1-.3-.03l-.48-.3a.27.27 0 0 0-.25-.04c-.1.04-.14.17-.14.38 0 .1-.05.14-.14.11a.17.17 0 0 1-.1-.06c-.05-.1-.13-.12-.23-.1-.35.1-.8.09-1.37-.05a.27.27 0 0 0-.23.05l-.24.16a.39.39 0 0 1-.26.07c-.24-.03-.38-.2-.42-.48 0-.05 0-.09.03-.12l.07-.08c.02-.03.02-.06-.02-.08-.16-.09-.28-.1-.37 0-.08.07-.09.16-.04.25l.12.21c.05.1.05.18 0 .27-.13.27-.38.27-.75.01-.1-.07-.1-.16-.03-.26l.3-.35a.1.1 0 0 0 .01-.07.1.1 0 0 0-.03-.06.63.63 0 0 1-.06-.04c-.08-.06-.14-.05-.2.02-.11.16-.27.2-.49.1a.08.08 0 0 0-.07.02.09.09 0 0 0-.03.03.1.1 0 0 0 0 .04c-.02.21-.08.4-.2.55-.06.08-.13.08-.2.02-.3-.23-.58-.2-.87.08a.36.36 0 0 1-.22.1c-.3.03-.47-.12-.52-.46-.02-.1-.07-.16-.16-.2-.24-.06-.51-.09-.82-.06-.11 0-.15-.05-.12-.17l.02-.09a.18.18 0 0 0-.07-.18c-.11-.08-.27-.1-.48-.05-.1.02-.14.07-.15.16v.12c-.01.04-.02.07-.05.1a.13.13 0 0 1-.08.03c-.2.02-.36-.1-.45-.33-.04-.09-.1-.12-.2-.08l-.63.24-.04.03a.5.5 0 0 0-.04.07c-.1.17-.24.18-.45.04-.07-.04-.17-.05-.32 0-.1.02-.11.08-.04.17l.2.25c.08.1.07.17-.03.23l-.07.05a.17.17 0 0 1-.23-.04c-.17-.22-.38-.3-.62-.22-.06.02-.1 0-.14-.03l-.55-.52c-.1-.1-.2-.1-.29.01l-1.52 1.86a.43.43 0 0 0-.08.37c.17.64.3 1.08.38 1.31.22.62.61 1.13 1.18 1.53.3.21.6.5.9.85.21.25.55.53 1.02.82.44.28.4.4-.1.37a3.95 3.95 0 0 0-1.84.38.32.32 0 0 1-.25 0c-.61-.23-1-.34-1.14-.32-1.8.24-3.6.25-5.42.05-.3-.03-.6-.1-.9-.2a.4.4 0 0 0-.26-.02c-.44.12-.86.14-1.26.07l-.55-.07c-.48-.06-.52-.23-.11-.52l.16-.12c.36-.26.54-.38.83-.72.31-.37.64-.66.99-.86.22-.13.43-.37.63-.7.34-.58.63-1.27.89-2.09.02-.06 0-.11-.05-.14l-2.5-1.56a.45.45 0 0 0-.24-.07c-.41 0-.73-.12-.94-.38-.07-.08-.14-.08-.21.01-.27.4-.6.46-1.01.21a.37.37 0 0 0-.24-.06.73.73 0 0 0-.31.17.25.25 0 0 1-.24.05l-1-.33a.2.2 0 0 1-.1-.1l-.06-.1c-.06-.15-.13-.14-.19.01a.67.67 0 0 1-.1.17c-.06.07-.13.1-.21.07l-.59-.2a.24.24 0 0 0-.24.05c-.26.2-.56.17-.9-.1-.06-.04-.11-.05-.17-.01a.13.13 0 0 0-.06.08.28.28 0 0 1-.12.15l-.51.32a.18.18 0 0 1-.14.03.2.2 0 0 1-.12-.08c-.15-.22-.32-.34-.49-.36-.12-.02-.16.03-.1.15.06.15.06.28 0 .42a.2.2 0 0 1-.09.09.18.18 0 0 1-.12.01 1.7 1.7 0 0 1-.85-.45c-.09-.08-.16-.07-.2.03l-.04.07c-.02.05-.06.08-.12.08h-1.59a.4.4 0 0 0-.23.08c-.1.06-.18.07-.25.02-.08-.05-.1-.12-.04-.21.2-.3.27-.54.22-.71-.03-.1-.09-.15-.19-.13-.13.03-.21.14-.26.34-.02.1-.07.15-.16.16-.16.03-.33.11-.52.25a.3.3 0 0 1-.15.08.24.24 0 0 1-.16-.05.16.16 0 0 1-.06-.06.17.17 0 0 1-.01-.08v-.16c0-.08-.04-.12-.11-.12-.24.01-.45.05-.62.13a.25.25 0 0 1-.25-.03c-.09-.05-.18-.04-.25.05-.07.08-.15.11-.24.1l-.57-.07c-.48-.06-.5-.18-.06-.37.02 0 .06-.06.13-.17.06-.1.04-.15-.08-.13l-.37.07c-.1.02-.15-.02-.15-.13 0-.3-.08-.52-.26-.68a.28.28 0 0 0-.23-.07c-.17.02-.27-.06-.3-.25.07-.16.21-.16.41 0 .02.02.03.03.05.03a.12.12 0 0 0 .08 0l.03-.02a.14.14 0 0 0 .03-.04l.06-.1c.05-.1.03-.18-.08-.21l-.33-.11c-.1-.04-.14-.1-.13-.2.01-.1.06-.16.15-.17.2-.02.41.03.63.15.08.04.15.03.21-.05l.25-.3c.06-.08.06-.15 0-.22-.1-.12-.24-.1-.42.04a.16.16 0 0 1-.1.03.16.16 0 0 1-.1-.04.56.56 0 0 1-.08-.1c-.08-.12-.05-.18.1-.16l.32.03a.28.28 0 0 0 .24-.09c.25-.28.5-.43.78-.48.1-.01.14-.08.1-.19-.03-.05-.02-.1.02-.15.03-.03.1-.04.21-.05.14 0 .23-.07.27-.2.02-.09 0-.14-.1-.14l-.82-.04c-.14-.14-.2-.27-.17-.37.01-.08.1-.14.25-.19.2-.07.39-.18.55-.33a.3.3 0 0 1 .21-.08h.9c.08 0 .13.05.12.15 0 .07-.03.17-.09.31-.04.11 0 .16.1.14l.54-.08c.12-.01.14-.07.05-.16-.18-.18-.22-.35-.13-.52.04-.09.03-.16-.04-.21a.15.15 0 0 1-.05-.07c-.04-.1-.02-.17.06-.22.2-.14.37-.21.53-.23.21-.02.28.08.2.3-.06.18-.07.33-.03.45.03.08.09.13.17.13h1.02c.13 0 .16-.06.08-.17l-.17-.25c-.08-.11-.17-.13-.28-.07l-.25.16a.2.2 0 0 1-.28-.06.24.24 0 0 1-.04-.1c-.08-.54.15-.87.7-.97.11-.02.17.03.17.15v.52c0 .1.02.1.07.02a.76.76 0 0 1 .1-.12.18.18 0 0 1 .08-.06c.14-.05.28-.1.41-.17.1-.05.1-.08 0-.09l-.22-.02c-.54-.04-.56-.19-.08-.43l.9-.4a.25.25 0 0 0 .09-.06.27.27 0 0 0 .07-.2.28.28 0 0 0-.04-.11l-.05-.1c-.06-.1-.05-.2.03-.28.08-.08.25-.15.52-.22.1-.03.15.02.14.13l-.03.33a.1.1 0 0 0 0 .04l.03.03h.07l.1-.06a.1.1 0 0 0 .04-.08c.02-.45.06-.72.12-.84.2-.34.43-.44.71-.31.16.07.27.1.33.1.05-.01.13-.05.23-.1.08-.06.1-.13.03-.2-.13-.2-.15-.4-.04-.64a.19.19 0 0 1 .07-.07.16.16 0 0 1 .09-.03c.03 0 .06 0 .09.03l.06.07.44 1.06c.02.05.06.07.1.06h.1a.1.1 0 0 0 .05-.03.11.11 0 0 0 .03-.04.12.12 0 0 0 0-.11c-.26-.43-.2-.76.18-.97.09-.05.11-.12.06-.22l-.07-.13c-.07-.12-.04-.2.1-.22.57-.1 1.06-.05 1.45.18.09.05.12.12.12.2l-.1.75c-.01.16.05.22.2.15.11-.04.17-.25.18-.62 0-.1.04-.2.1-.27a.29.29 0 0 1 .21-.1l.38-.01c.06 0 .1-.02.15-.05a.3.3 0 0 0 .1-.11.33.33 0 0 0 .01-.31.58.58 0 0 1-.04-.27c0-.11.06-.16.17-.12l.66.22c.08.03.1.08.08.16a.94.94 0 0 0-.04.1c-.03.18 0 .18.1.04.05-.06.09-.15.13-.28a.3.3 0 0 1 .17-.18c.36-.16.76-.21 1.19-.15.05 0 .1 0 .14-.02a.28.28 0 0 0 .12-.1.32.32 0 0 1 .18-.13c.1-.02.14.03.11.13a.5.5 0 0 0 .02.36c.06.14.12.13.16-.01l.1-.34c.02-.1.08-.14.17-.13.13.01.21-.04.24-.15a.28.28 0 0 1 .13-.18.34.34 0 0 1 .23-.04c.34.05.5.2.48.48l.01.07h.03c.01 0 .02-.01.01-.03a.94.94 0 0 1 0-.58c.04-.1.1-.14.2-.14.08 0 .17.04.26.14.07.06.15.09.23.07.33-.05.56-.13.7-.24.07-.07.15-.07.23-.03.29.14.55.18.78.12.09-.02.16 0 .22.06l.16.15c.07.06.13.06.2 0 .05-.05.1-.13.14-.24a.19.19 0 0 1 .08-.1.17.17 0 0 1 .12-.02c.15.03.25.07.3.12a.2.2 0 0 1 .06.21l-.05.15c-.02.09 0 .15.1.18.17.06.26-.02.26-.23 0-.1.05-.15.15-.14.06 0 .18.09.34.25.07.06.14.07.22.02.14-.1.31-.16.5-.18.1 0 .17.03.22.11.05.08.07.13.05.17-.1.3-.03.37.25.21l.08-.04c.2-.12.37-.22.65-.21.31.01.62.02.92.01Zm-7.38 11.92c.3.14.38.05.24-.28l-.22-.3c-.07-.09-.05-.14.05-.14.5-.04.85.1 1.06.43.1.18.13.48.05.89a.37.37 0 0 1-.04.12.1.1 0 0 1-.04.03h-.03l-1.55-.78c-.03 0-.03-.03-.03-.05l.02-.08c.01-.03.04-.04.07-.03l.42.19Zm6.02-.31c-.06-.13-.23-.21-.5-.26-.09-.01-.13.03-.13.12v.89c0 .19.06.21.18.07l.41-.51c.08-.1.1-.2.04-.31Z" fill="#fff"/></svg>