<!-- by TradingView --><svg width="56" height="56" viewBox="0 0 56 56" xmlns="http://www.w3.org/2000/svg"><path fill="#F0F3FA" d="M0 0h56v56H0z"/><path d="M28 44c4.56 0 8.73-1.51 11.9-4H29.05c-.58 0-1.04-.45-1.04-1s.46-1 1.04-1h13.01a16.1 16.1 0 0 0 1.54-2H29.06c-.59 0-1.06-.45-1.06-1s.47-1 1.06-1h15.63a14.42 14.42 0 0 0 1.12-8.36C43.63 28.8 38.7 31 33 31c-7.73 0-14-4.03-14-9s6.27-9 14-9c.48 0 .95.02 1.41.05C32.42 12.37 30.26 12 28 12c-9.94 0-18 7.16-18 16s8.06 16 18 16Z" fill="#00297E"/><path d="M39.28 19h-4.6c-.58-.71-2.01-1-3.07-1-1.05 0-1.91.8-1.91 1.95 0 1.7 2.73 4.05 5.55 4.05 2.26 0 2.64-1.27 2.54-2h-6.18l-1.29-2H40c.35.31 1 1.14 1 2.85C41 25 39.66 27 35.64 27c-5.32 0-9.2-4.24-9.2-7.23S27.97 15 30.94 15c4.75 0 7.54 2.65 8.34 4Z" fill="#EE001F"/><path d="M26.2 18c-.76 2.23.73 5.33 3.6 7.45 3.13 2.3 7.1 2.41 9.2 1.2-1.45 2.77-7.47 3.22-10.94.66-3.47-2.55-3.83-7.1-1.87-9.31Z" fill="#EE001F"/></svg>