<!-- by TradingView --><svg width="56" height="56" viewBox="0 0 56 56" xmlns="http://www.w3.org/2000/svg"><path fill="#F0F3FA" d="M0 0h56v56H0z"/><path d="M31.65 12c4.55 1.13 6.2 4.02 4.97 8.68-.78 2.93-2.74 5.74-5.88 8.42-.11.1-.19.07-.23-.06l-.94-2.99a.2.2 0 0 1 .05-.23 16.22 16.22 0 0 0 3.63-6.08c1.12-3.31.08-6.45-3.82-6.32-1.96.07-3.9.66-5.85 1.77a28.16 28.16 0 0 0-5.44 4.06c-.03.02-.08.02-.16 0s-.09-.08-.02-.17A19.49 19.49 0 0 1 28.84 12h2.8Z" fill="#21948F"/><path d="M29.96 17.97c-1.5 2.4-2.28 4.37-2.34 5.89a.31.31 0 0 1-.14.25.3.3 0 0 1-.28.02c-1.9-.9-3.9-1.1-6-.59-.59.14-.67-.01-.26-.46 1.63-1.76 2.57-3.52 2.83-5.28.05-.33.22-.44.53-.32a8.7 8.7 0 0 0 5.51.28.14.14 0 0 1 .15.05.14.14 0 0 1 0 .16Z" fill="#21948F"/><path d="M21.84 42h-4.26c3.67-2.74 6.32-5.84 7.93-9.3.37-.78.6-1.7.67-2.76.24-3.2-2.02-4.87-5.12-4.37a19.16 19.16 0 0 0-9.86 4.96c-.06.05-.1.04-.12-.03l-.07-.22c-.02-.05-.01-.1.02-.12a19.42 19.42 0 0 1 8.6-5.45c.84-.25 2.15-.33 3.95-.22 1.53.1 2.74.47 3.62 1.12 2.63 1.96 2.58 5.73 1.32 8.58A17.67 17.67 0 0 1 21.84 42Z" fill="#164CA0"/><path d="M37.02 42h-4.64a32.65 32.65 0 0 0 6.7-6.16c1.5-1.85 3.19-4.96 2.74-7.23-.57-2.88-3.6-3.37-6.16-2.81a.25.25 0 0 1-.24-.1.25.25 0 0 1-.02-.27l.29-.5a.6.6 0 0 1 .42-.3c4.1-.78 8.69.74 8.88 5.34.2 4.8-3.99 9.55-7.97 12.03Z" fill="#21948F"/><path d="M37.22 29.32c-1.28 2.32-1.9 4.47-1.84 6.44a.44.44 0 0 1-.15.34.43.43 0 0 1-.36.1c-1.94-.38-4.02.03-6.25 1.21a.2.2 0 0 1-.25-.05.22.22 0 0 1-.02-.25 13.87 13.87 0 0 0 2.54-6.75.54.54 0 0 1 .18-.37c.1-.09.24-.13.38-.12a8.75 8.75 0 0 0 5.27-1.05c.76-.44.92-.27.5.5Z" fill="#21948F"/><path d="M16.5 29.98c1.97.8 3.86.72 5.69-.26.16-.1.3-.06.4.08.08.1.1.2.1.27v.09a.22.22 0 0 1-.06.08c-1.86 1.75-3.29 4.18-4.29 7.26a.58.58 0 0 1-.3.34.54.54 0 0 1-.46 0 7.45 7.45 0 0 0-6.04-.21c-.28 0-.42-.15-.42-.44 0-.05.02-.1.04-.15a.35.35 0 0 1 .1-.12 12.58 12.58 0 0 0 4.8-6.73.33.33 0 0 1 .45-.21Z" fill="#164CA0"/></svg>