<!-- by TradingView --><svg width="56" height="56" viewBox="0 0 56 56" xmlns="http://www.w3.org/2000/svg"><path fill="#F0F3FA" d="M0 0h56v56H0z"/><path fill="#072F71" d="M42 12h1v32h-1zM13 12h1v32h-1zM36 12h1v32h-1zM19 12h1v32h-1zM15 12h3v32h-3zM38 12h3v32h-3z"/><path fill-rule="evenodd" d="M36 20a8 8 0 1 1-16 0 8 8 0 0 1 16 0Zm-8 7a7 7 0 1 0 0-14 7 7 0 0 0 0 14Zm0 .5a7.5 7.5 0 1 0 0-15 7.5 7.5 0 0 0 0 15ZM31 17h-6v6h6v-6Z" fill="#876E48"/><path fill-rule="evenodd" d="M30 18h-4v4h4v-4Zm-4.5-.5v5h5v-5h-5ZM36 36a8 8 0 1 1-16 0 8 8 0 0 1 16 0Zm-8 7a7 7 0 1 0 0-14 7 7 0 0 0 0 14Zm0 .5a7.5 7.5 0 1 0 0-15 7.5 7.5 0 0 0 0 15ZM31 33h-6v6h6v-6Z" fill="#876E48"/><path fill-rule="evenodd" d="M30 34h-4v4h4v-4Zm-4.5-.5v5h5v-5h-5Z" fill="#876E48"/></svg>