<!-- by TradingView --><svg width="56" height="56" viewBox="0 0 56 56" xmlns="http://www.w3.org/2000/svg"><path fill="#F0F3FA" d="M0 0h56v56H0z"/><path fill="#F47427" d="M8 37h40v1H8z"/><path fill-rule="evenodd" d="M22.25 14 31 25.53 11 31l11.25-17ZM25 21.21l1.82 2.5h-3.18l1.36-2.5Z" fill="#009F8D"/><path fill-rule="evenodd" d="m24.8 15.21 20.1 20.67-19.02-8.77L11.41 34 24.8 15.2Zm.18 2.9 4.69 6.58h-7.49l2.8-6.57Z" fill="#fff"/><path d="M24.78 15 45 35.79l-.15.21-18.97-8.74L11 34.34 24.78 15Zm.03.42L11.82 33.65l14.06-6.69 18.42 8.5-19.49-20.04Zm.14 2.42 4.98 7.07h-7.95l2.97-7.07Zm.06.55-2.62 6.25h7.02L25 18.4Z" fill="#009F8D"/></svg>