<!-- by TradingView --><svg width="56" height="56" viewBox="0 0 56 56" xmlns="http://www.w3.org/2000/svg"><path fill="#004BC8" d="M0 0h56v56H0z"/><path d="M24.48 38.56c7.85 3.62 15.55-5.72 9.7-12.47a834.5 834.5 0 0 1-8.1-9.6c-1.06-1.27-1.9-2.55-.86-3.99a29.65 29.65 0 0 1 1.5-1.96c1.04-1.17 1.7-.2 2.45.68l8.48 10.12c1.68 2 2.75 3.56 3.23 4.68 2.46 5.83.78 12.2-4.19 16.06-6.82 5.29-17.05 3.15-21.09-4.42-3.74-7-.66-15.22 6.43-18.58.5-.23.88-.12 1.26.23 1.2 1.14 2.27 2.67 1.32 4.35-.47.83-1.8 1.54-2.42 2.16-3.87 3.99-2.85 10.38 2.3 12.74Z" fill="#fff"/></svg>