<!-- by TradingView --><svg width="56" height="56" viewBox="0 0 56 56" xmlns="http://www.w3.org/2000/svg"><path fill="#F0F3FA" d="M0 0h56v56H0z"/><path d="M25.64 18.49c2.33.4 4.59 1.1 6.76 2.12 1.17.55 3.02 1.62 2.34 3.18a7.14 7.14 0 0 0-1.58-1.28c-.9-.51-1.92-.96-3.06-1.34-2.6-.86-5.26-1.5-7.97-1.9-.25-.03-.4-.14-.49-.34a.1.1 0 0 1 .06-.14c.35-.15.58-.22.69-.21 1.08.06 2.17.03 3.25-.09Z" fill="#006B3B"/><path d="M21.77 17.54a.15.15 0 0 1-.11-.2l.04-.07c.6-.48 3.71-.28 4.1-.24 4.1.4 8.24 1.15 12.43 2.25 1.89.5 3.79 1.22 5.26 2.33.05.03.07.02.08-.04l.36-5.46.03-.27c.04-.33.08-.62-.04-.98-.26-.8-1-.89-1.74-.85-8.43.42-16.87.86-25.31 1.32l-.74.11c-1.25.38-1.6 1.15-1.75 2.57l-1.86 17.46c-.05.04-.08.14-.08.3l.1.2c.02.06.06.08.12.06 5.5-2.2 10.85-4.71 16.07-7.53 1.97-1.16 3.92-2.34 5.47-3.95.1-.1.2-.23.28-.37l.26-.39a7.14 7.14 0 0 0-1.58-1.28c-.9-.51-1.92-.96-3.06-1.34-2.6-.86-5.26-1.5-7.97-1.9-.25-.03-.4-.14-.49-.34a.1.1 0 0 1 .06-.14c.35-.15.58-.22.69-.21 1.08.06 2.17.03 3.25-.09-1.42-.51-2.28-.64-3.87-.95Z" fill="url(#arnrig0ws)"/><path d="M42.57 28.95c-1.88 1.3-3.97 2.23-6.07 3.2-2.72 1.28-5.5 2.45-8.3 3.53a210.45 210.45 0 0 1-12.6 4.36c-1.03.32-2.06.62-3.1.9a.2.2 0 0 0-.14.12.22.22 0 0 1-.12.1c-.03.02-.04.05-.04.08l.03.23a2.14 2.14 0 0 1-.04-1.86c.02-.05.06-.09.12-.1 7.53-2.16 14.9-4.77 22.12-7.85 2.87-1.22 5.73-2.47 8.3-4.24l-.16 1.53Z" fill="#005632"/><path d="m42.57 28.9-.39 3.1h-3.07c.17.56-.31 1.37-.71 1.73-.54.5-1.42 1.06-2.65 1.72-1.4.75-2.84 1.43-4.3 2.05A164.3 164.3 0 0 1 19.12 42h-4.8c-.86 0-1.71 0-2.1-.53l-.03-.23c0-.03.01-.06.04-.07.06-.03.1-.06.13-.11a.2.2 0 0 1 .13-.11c1.04-.29 2.08-.59 3.1-.9a209.7 209.7 0 0 0 12.56-4.47c5.01-1.9 9.97-3.9 14.4-6.69Z" fill="url(#brnrig0ws)"/><path d="m41.5 38.13-6.57 2.68c-1.94.55-4.02.54-6 .54.03-.01.02-.06-.01-.13-.02-.04 0-.07.03-.08a96.24 96.24 0 0 0 10.88-3.72c.57-.24 1.2-.59 1.8-.9.07-.03.1 0 .08.07l-.2 1.54Z" fill="#005632"/><path d="M41.5 38.13c.06 1.42-.57 1.98-1.79 2.56-1.22.59-2.74.59-3.9.59h-3.5l9.2-3.15Z" fill="#027945"/><defs><linearGradient id="arnrig0ws" x1="39.47" y1="14.81" x2="13.21" y2="34.45" gradientUnits="userSpaceOnUse"><stop stop-color="#41BA7C"/><stop offset="1" stop-color="#006F3E"/></linearGradient><linearGradient id="brnrig0ws" x1="41.07" y1="30.05" x2="17.72" y2="40.33" gradientUnits="userSpaceOnUse"><stop stop-color="#2AA468"/><stop offset="1" stop-color="#006F3E"/></linearGradient></defs></svg>