<!-- by TradingView --><svg width="56" height="56" viewBox="0 0 56 56" xmlns="http://www.w3.org/2000/svg"><path fill="#F0F3FA" d="M0 0h56v56H0z"/><path fill-rule="evenodd" d="M26.34 16H43l-1.45 4h-.2c.39-1.64-.47-1.92-.95-2h-5.55l-.3 1c3.9.07 8.45 3.41 8.45 8.04 0 3.74-4.75 7.74-7.1 9.27A7.58 7.58 0 0 0 40.84 38c3.67 0 5.38-4 5.78-6 .12.23.37.81.37 1.27 0 2.3-4.79 6.73-7 6.73-1.77 0-5.04-1.59-6.4-2.38-2.16.8-7.6 2.38-12.1 2.38C11.58 40 9 34.01 9 30.28c0-3.74 1.48-6.53 5.78-9.89 4.56-3.6 9.6-4.43 11.56-4.39Zm6.23 3 .32-1h-7.94C16.95 18 11 22.57 11 29.83c0 8.07 7.56 9.62 11.45 9.4-6.48-2.28-6.46-6.93-6.45-8.37v-.13c.69-9.16 7.3-11.7 10.34-11.73h6.23ZM23.4 29c5.61 0 8.27-5.95 8.9-9h-6.16c-5.34 0-7.85 5.83-8.44 8.63 1.07.12 3.7.37 5.7.37Zm10.7-9c2.63.04 7.91 1.7 7.91 6.42 0 4.73-4.78 8.04-7.17 9.1.57-.9 1.72-3.27 1.72-5.4A5.4 5.4 0 0 0 35.32 27h2.66l.66-2H33c.85.5 2.48 2.1 2.48 5.11a7.17 7.17 0 0 1-2.17 4.8c-1.68-1.25-5.63-4.03-7.95-5.04 2.44-.54 7.61-3.57 8.73-9.87ZM32 36.77c-6.6-5.63-12.69-6.85-14.9-6.77-.94 6.33 4.85 9 8.3 9 2.76 0 5.55-1.48 6.6-2.23Z" fill="red"/></svg>