<!-- by TradingView --><svg width="56" height="56" viewBox="0 0 56 56" xmlns="http://www.w3.org/2000/svg"><path fill="#F0F3FA" d="M0 0h56v56H0z"/><path d="M11 29.17v-2.23c.4-3.81 1.72-7.06 3.96-9.75a17 17 0 0 1 15.26-6.04c2.29.32 4.44 1.07 6.45 2.27a17.07 17.07 0 0 1 5.1 4.64 16.6 16.6 0 0 1 2.87 6.57c.97 4.8-.04 9.36-3.02 13.68-.1.16-.23.17-.37.04a9.03 9.03 0 0 0-3.69-2.1c-.22-.07-.33-.21-.33-.44v-1.6c0-.18.1-.3.27-.35.55-.16 1.03-.4 1.45-.72.26-.2.39-.47.39-.8 0-.32-.14-.59-.4-.78a12.47 12.47 0 0 0-4.11-1.99.55.55 0 0 1-.4-.4c-.08-.24-.1-.59-.07-1.03.01-.21.12-.34.32-.4.7-.16 1.23-.4 1.6-.68a.81.81 0 0 0 .33-.74.81.81 0 0 0-.42-.7l-6.91-4a1.1 1.1 0 0 1-.54-.7c-.08-.3-.05-.6.11-.87l.37-.65a.7.7 0 0 0 .07-.58c-.22-.7-.69-1.02-1.42-.99-.48.03-.83.26-1.03.7-.2.43-.17.84.12 1.23.65.88.35 1.68-.93 2.41-1.8 1.03-3.85 2.14-6.16 3.32a.79.79 0 0 0-.43.56c-.06.26 0 .5.17.7.6.73 1.41.97 2.43.71 2.56-.64 5.24-.82 8.04-.52.77.08 1.33.2 1.68.37 1.29.61 1.22.83-.2.66-4.37-.52-9.13.52-14.28 3.12-.95.48-1.05 1.1-.29 1.87l.14.13c.59.6 1.29.76 2.1.49a28.18 28.18 0 0 1 12.76-1.18c.75.1 1.37.3 1.87.62.64.4.59.56-.17.46-4.56-.55-9.25.12-14.07 2.02a15.4 15.4 0 0 0-4.78 2.86c-.15.13-.28.12-.4-.05A18.68 18.68 0 0 1 11 29.17Z" fill="#0C6597"/><path d="M28 37.87c3.8 0 7.42.97 10.86 2.89.24.13.25.28.04.45a19.2 19.2 0 0 1-7.6 3.58c-.62.14-1.72.21-3.3.21a17.2 17.2 0 0 1-3.3-.21 19.18 19.18 0 0 1-7.6-3.6c-.2-.16-.2-.3.04-.44A22 22 0 0 1 28 37.87Z" fill="#4C9E82"/></svg>