<!-- by TradingView --><svg width="56" height="56" viewBox="0 0 56 56" xmlns="http://www.w3.org/2000/svg"><path fill="#F0F3FA" d="M0 0h56v56H0z"/><path fill="#29A0BD" d="M14 13h1v30h-1zM18 13h1v30h-1zM20 13h1v30h-1zM22 13h1v30h-1zM24 13h1v30h-1zM26 13h1v30h-1zM28 13h1v30h-1zM30 13h1v30h-1zM32 13h1v30h-1zM34 13h1v30h-1zM36 13h1v30h-1zM38 13h1v30h-1zM40 13h1v30h-1zM16 13h1v30h-1z"/><path fill="#29A0BD" d="M14 13h9v9h-9zM32 13h9v9h-9z"/><path d="M24 22.38 32 13l1 9.38V43h-9V22.37Z" fill="#29A0BD"/></svg>