<!-- by TradingView --><svg width="56" height="56" viewBox="0 0 56 56" xmlns="http://www.w3.org/2000/svg"><path fill="#F0F3FA" d="M0 0h56v56H0z"/><path d="m28.49 27-2.47-.01h-9.8c-.5 0-.86-.19-1.05-.56-.1-.19-.14-.54-.14-1.03l-.01-8.07c0-.61.08-1.03.25-1.25.34-.44.86-.52 1.56-.23.22.09.8.34 1.72.76 2.76 1.27 5.77 2.43 8.5 3.76-1.19.62-2.9.74-4.66.45l-4.21-2.02a.66.66 0 0 0-.23-.06.93.93 0 0 1-.33-.1.12.12 0 0 0-.13 0 .12.12 0 0 0-.07.12v5.74c0 .14.08.2.22.2l8.32-.03 2.55-.06h8.85c.1 0 .16-.06.16-.16v-7.53a.1.1 0 0 0-.07-.1.1.1 0 0 0-.11.02l-7.37 5.9c-.13.11-.2.08-.2-.08v-2.29c0-.33.13-.6.4-.8 2.65-2.05 5.24-4.22 7.84-6.36.3-.24.72-.28 1.27-.1.47.17.7.5.7 1v11.72c0 .32-.1.59-.33.81-.23.23-.5.34-.82.34L28.5 27Z" fill="#C3D600"/><path d="m28.5 24.64-2.5.06v-2.04c0-.09-.05-.15-.13-.19L22.4 20.8a6.9 6.9 0 0 0 4.43-.5c1.2.22 1.78.86 1.73 1.93a61.8 61.8 0 0 0-.04 2.42Z" fill="url(#a)"/><path d="M28.49 26.92 28.47 29l.01 2.4c.02.8.02 1.62.02 2.47 0 .51-.1.88-.28 1.1a3 3 0 0 1-.95.55l-.27.13-10.2 4.62c-.27.13-.53.16-.77.1-.7-.16-1.04-.6-1.03-1.33v-8.73c0-.8.43-1.26 1.28-1.31H22.8c.08 0 .12.18.12.26l-.03 2.09-5.29.07c-.08 0-.12.04-.12.12v5.66c0 .1.05.13.14.09l8.24-3.74c.08-.04.12-.1.12-.18V31.3l.07-3.06-.03-1.33 2.47.01Z" fill="#0086CD"/><path d="m25.97 31.29-3.08.05.02-2.13c0-.08-.11-.21-.11-.21h3.25l-.08 2.29Z" fill="url(#b)"/><path d="M28.48 31.4V29l10.4.06c.3 0 .57.1.78.32.22.22.33.48.33.78v11.2c0 .5-.05.86-.16 1.06-.2.4-.55.58-1.07.58-.39 0-.74-.14-1.05-.41-.76-.67-3.25-2.67-7.48-6.01-.27-.22-.42-.55-.44-1-.05-.86-.06-1.65-.04-2.37 0-.04.02-.07.06-.08a.09.09 0 0 1 .1 0l7.49 6c.06.06.1.04.1-.04v-7.6c0-.1-.05-.14-.15-.14l-8.87.05Z" fill="#5DB7E9"/><defs><linearGradient id="a" x1="26.99" y1="24.39" x2="26.99" y2="21.22" gradientUnits="userSpaceOnUse"><stop offset=".36" stop-color="#92BD69"/><stop offset="1" stop-color="#C3D600"/></linearGradient><linearGradient id="b" x1="21.97" y1="30.17" x2="26.05" y2="30.17" gradientUnits="userSpaceOnUse"><stop offset=".34" stop-color="#0086CD"/><stop offset="1" stop-color="#5DB7E9"/></linearGradient></defs></svg>