<!-- by TradingView --><svg width="56" height="56" viewBox="0 0 56 56" xmlns="http://www.w3.org/2000/svg"><path fill="#F0F3FA" d="M0 0h56v56H0z"/><path d="M21 12h14v11h-9v-6.2h-1V23h-4V12Zm10 12h4v17h10v1H11v-1h10V24h4v17h1V24h4v17h1V24Z" fill="#254A7F"/><path d="M20.44 17.71c-1.97.22-3.8 1.9-4.46 2.7 1.38 0 4.5-.17 6.04-.88 1.53-.7 3.65-1.5 4.52-1.82 1.3 0 3.77-.68 5.28-.68 1.5 0 3.7-1.15 5.35-1.21 1.31-.06 3.06-.7 3.77-1.02-1.6-.37-6.74.16-9.12.48-1.65-.14-5.69 1.08-7.2 1.08-1.2 0-3.29.9-4.18 1.35Z" fill="#79726C"/></svg>