<!-- by TradingView --><svg width="56" height="56" viewBox="0 0 56 56" xmlns="http://www.w3.org/2000/svg"><path fill="#F0F3FA" d="M0 0h56v56H0z"/><path fill-rule="evenodd" d="M18.59 30.9a8.38 8.38 0 0 1-4.33 2.7c-1.65.45-3.39.52-5.22.2-.59-.1-.95-.41-1.08-.95a32.95 32.95 0 0 1-.93-9.22c.03-.78.11-1.43.25-1.94.03-.1.1-.17.2-.2 2.54-.63 4.98-.65 7.3-.08 2.78.69 4.55 2.13 5.33 4.33.33.94.31 1.89-.05 2.85a8.45 8.45 0 0 1-1.47 2.31Zm-2.38-.53a.14.14 0 0 0 .03.16c.05.05.1.06.16.04l2.55-.73c.02 0 .03 0 .04.02l.03.07c0 .02 0 .03-.03.05a14.74 14.74 0 0 1-8.54 1.66c-.25-.03-.38.09-.38.34v1.47c0 .04-.02.05-.06.03l-.1-.06c-.04-.02-.06-.04-.06-.07-.3-2.31-.38-4.68-.23-7.11.08-1.28.37-2.68.87-4.22.12-.37.2-.37.23.01 0 .13-.04.33-.13.62a.3.3 0 0 0 .03.27c.06.09.14.14.24.15 1.97.25 3.43.84 4.38 1.77 1.52 1.5 1.84 3.35.97 5.53ZM24 23a1 1 0 1 1-2 0 1 1 0 0 1 2 0Zm24.01 1.28c.55 0 .99-.43.99-.97a.98.98 0 0 0-.99-.96.98.98 0 0 0-.99.96c0 .54.45.97 1 .97Zm-17.72.6a2.9 2.9 0 0 0-2.26-.87c-.96 0-1.71.3-2.25.9a3.3 3.3 0 0 0-.77 2.27v4.53c0 .18.1.3.27.29h1.42c.2 0 .3-.14.3-.32-.02-1.68-.01-3.11 0-4.3.01-.83.33-1.24 1.04-1.24.7 0 .94.4.96 1.23.02 1.19.01 2.62 0 4.3 0 .19.24.33.43.33h1.41c.16 0 .16-.1.16-.26V30.6c.01-1.1.02-2.24 0-3.43-.01-.95-.2-1.71-.71-2.27Zm2.38 1.5c-.34-.22-.62-.29-.85-.23-.27.08-.44-.02-.5-.28-.09-.39-.3-.8-.62-1.23-.18-.22-.12-.38.16-.45 1.1-.3 2.03-.24 2.8.18.83.45 1.26 1.23 1.3 2.33.04 1.22.03 5 .03 5 0 .17-.09.3-.26.3H33.3c-.19 0-.28-.14-.28-.31.01-2.06 0-3.57-.02-4.54 0-.08-.03-.22-.1-.43a.59.59 0 0 0-.23-.34Zm11.23.36a.59.59 0 0 0-.23-.35c-.34-.21-.63-.29-.86-.22-.27.07-.44-.03-.5-.3-.09-.38-.3-.78-.62-1.22-.18-.23-.13-.38.16-.46 1.1-.3 2.03-.24 2.8.18.83.45 1.26 1.23 1.3 2.34.05 1.23.06 2.9.04 5.03 0 .17-.08.26-.26.26H44.3c-.19 0-.3-.1-.3-.27v-1.3c.01-1.42.02-2.5 0-3.26 0-.08-.04-.22-.1-.43Zm-4.9-.59c-.7 0-.99.41-1 1.24-.02 1.2-.02 2.64 0 4.32 0 .19-.15.28-.34.28l-1.39.01c-.17 0-.26-.09-.26-.26v-4.55c.01-.96.27-1.72.77-2.28.53-.6 1.26-.9 2.21-.9s1.69.3 2.22.9c.5.56.76 1.32.77 2.27.02 1.6.02 3.11.02 4.55 0 .17-.1.26-.27.26h-1.39c-.19 0-.34-.1-.34-.28.02-1.69.02-3.13 0-4.32-.01-.83-.31-1.24-1-1.24ZM23.8 25h-1.6c-.1 0-.2.09-.2.2l-.01 6.6c0 .11.09.2.2.2h1.59c.11 0 .2-.08.2-.19L24 25.2c0-.11-.1-.2-.2-.2Zm23.39 7h1.62c.13 0 .19-.06.19-.18V25.2c0-.16-.08-.22-.24-.17l-1.62.44c-.1.03-.14.09-.14.18v6.18c0 .12.06.18.19.18Z" fill="#56A2AA"/></svg>