<!-- by TradingView --><svg width="56" height="56" viewBox="0 0 56 56" xmlns="http://www.w3.org/2000/svg"><path fill="#F0F3FA" d="M0 0h56v56H0z"/><path d="M21 25.26c0-4.44-4.7-5.35-7-5.25V20H9v14h5V24a2 2 0 0 1 1 3.73V31c2.58 0 6-1.26 6-5.74Z" fill="#010986"/><path fill-rule="evenodd" d="M22 20h6.36c3.12 0 5.64 2.78 5.64 6.2 0 1-.22 1.95-.6 2.79-3.51 0-8.64 1.65-11.4 2.7V20Zm4 5h1.6c.77 0 1.4.67 1.4 1.5s-.63 1.5-1.4 1.5H26v-3Z" fill="#DC3B05"/><path d="M12.95 37H12c3.66-5 11.32-7.33 14.7-7.88.12.14.45.37.76.2.38-.2.19-.5.86-.5.66 0 1.14.3 1.9.3.77 0 .39-.3.58-.3.19 0 .38-.3.67 0 .28.3.38-.3.85-.3.48 0 1.82-.52 2.2-.52.3 0 1.78.34 2.48.51-.45.17-1.37.53-1.53.61-.19.1-1.33.93-1.33 1.13 0 .2-.38.72-.58.72-.19 0-1.04.71-1.24.71-.19 0-.66-.4-.85-.4-.2 0-.39.4-1.24.4-.86 0-1.63-.4-1.91-.71-.54.16-.48.68-.38.92a19.9 19.9 0 0 0-1.25-.62c-7.55.66-12.3 4.1-13.74 5.73ZM40.4 33.55c-8.39-.08-13.76.93-15.4 1.45 1.42-1.06 10.02-2.13 10.96-2.13.95 0 2.55.2 3.21 0 .66-.2 1.8-.68 2.84-.68.83 0 5-.13 6.99-.19-.66.23-2.14.72-2.74.87-.76.2-.85-.2-1.42-.2-.56 0-.56.5-1.8.4-1.22-.1-1.98.28-2.64.48ZM34 36c3.34.08 11.4-.62 15-.98-.4-.35-1.95-.44-2.68-.44-.1-.1-.46-.37-1.1-.54-.79-.22-1.39.54-1.48.54-.1 0-1-.1-1.9-.32-.89-.22-1.28.76-1.68.76h-4.17c-.8 0-1.3.65-1.99.97ZM44 31.46l-5.93.54-.07-.46 5.93-.54.07.46Z" fill="#010986"/><path d="m44 32.46-7.9.54-.1-.46 7.9-.54.1.46Z" fill="#010986"/><path d="M37.74 20h6.56l3.74 12h-4.38l-.62-2H39l-.62 2H34l3.74-12ZM41 28a2 2 0 1 0 0-4 2 2 0 0 0 0 4Z" fill="#6B93E2"/></svg>