<!-- by TradingView --><svg width="56" height="56" viewBox="0 0 56 56" xmlns="http://www.w3.org/2000/svg"><path fill="#F0F3FA" d="M0 0h56v56H0z"/><path d="M44 33h4v.35c0 2.99-1.84 5.65-4.95 5.65-3 0-5.05-2.48-5.05-5.41 0-3.02 1.97-5.59 5.12-5.59 1.9 0 3.3.73 4.22 2.2l-1 .57c-.72-1.28-1.78-1.77-3.18-1.77-2.48 0-4.16 2.28-4.16 4.59 0 2.25 1.78 4.41 4.16 4.41 1.98 0 3.44-2.05 3.58-4H44v-1ZM26 39V28l8 8v-8h1v11l-8-8v8h-1ZM16 39V28h1v10h4v1h-5ZM14 35.78c0 1.8-1.22 3.22-3.07 3.22-1.51 0-2.6-1.16-2.93-2.6l.9-.33C9.2 37.34 9.97 38 10.94 38c1.12 0 2.07-.9 2.07-2 0-1.55-1.6-2.1-2.8-2.65-1.27-.58-1.9-1.49-1.9-2.77C8.3 29.07 9.54 28 11 28c1.16 0 2.01.55 2.48 1.58l-.94.66C12.11 29.43 11.67 29 11 29c-.86 0-1.54.72-1.54 1.56 0 .75.33 1.5 1.21 1.92 1.6.77 3.33 1.28 3.33 3.3Z"/><path d="m24.93 11-1.43 5.6-1.26-5.6-.86.2 1.17 5.05-3.63-4.34-.7.55 3.5 4.54-5.02-2.04-.33.83L20.88 18H16v.7h4.88l-4.51 1.89.33.83 4.7-2.03-3.78 3.91.63.63 4.16-4.3-2.22 5.78.82.32L23 20.45V39h1V20.45l2.06 5.28.83-.32-1.96-5.09 3.5 3.6.62-.62-3.7-3.82 4.8 1.94.33-.83-4.84-1.88H31V18h-5.36l4.84-2.2-.33-.84L25 17l3.5-4.54-.7-.55-3.12 4.34.97-5.05-.72-.2Z" fill="#5C9234"/></svg>