<!-- by TradingView --><svg width="56" height="56" viewBox="0 0 56 56" xmlns="http://www.w3.org/2000/svg"><path fill="#F0F3FA" d="M0 0h56v56H0z"/><path d="M16.9 38.9c0-.94.57-1.92.85-2.29 2.13.76 7.4 2.34 11.46 2.55 4.05.22 10.69-7.07 13.5-10.75C43.24 36.43 36.9 44 28.14 44S16.9 40.06 16.9 38.9Z" fill="url(#a)"/><path d="M28.35 40.57c-5.74 0-9.04-1.92-9.91-2.7 1.83-4.09 6.06-12.5 7.77-14.89 2.14-2.98 8.29-4.38 10.37-4.32 1.67.05 4.48 2 5.68 2.98.17.37.74 1.62.74 5.96 0 5.44-7.46 12.97-14.65 12.97Z" fill="url(#b)"/><path d="M18.8 38.17C16.85 36.95 13 32.9 13 26.5c0-8 5.85-14.49 14.9-14.49 8.93 0 14.69 6.45 14.93 12.13-.1-1.36-1.44-3.72-6.25-3.72-6.31 0-6.54 7.54-8.69 10.81-2.14 3.27-3.3 5.26-9.1 6.95Z" fill="url(#c)"/><path fill-rule="evenodd" d="M18 15.13v7.91A3 3 0 0 0 21.06 26h3.07l1.1-2h-3.7c-.85 0-1.53-.23-1.53-1.04V13l-2 2.13Zm8 8.4V19h1.5v3.64c0 1.03.35 1.87 2 1.87.87 0 1.55-.7 2-1.4V19H33v7h-1.5v-1.13A3.82 3.82 0 0 1 28.84 26 2.68 2.68 0 0 1 26 23.54Zm-5.15 11.01-.07.23c-.2.43-.76 1.23-1.44 1.23h-3.62v1.5h3.86c.64 0 2.08-.57 2.74-2.73L24.85 27h-1.7l-1.6 5.24L19.6 27H18l2.85 7.54ZM33 31l-.01.3h-6.6a2.62 2.62 0 0 0 4.97.85h1.47A4 4 0 1 1 33 31Zm-6.47-.87a2.62 2.62 0 0 1 4.95 0h-4.95Z" fill="#F0F3FA"/><circle cx="39" cy="26" r="4" fill="#FF6D00"/><defs><linearGradient id="a" x1="38.76" y1="29.88" x2="32.12" y2="39.06" gradientUnits="userSpaceOnUse"><stop stop-color="#FFB365"/><stop offset="1" stop-color="#9CE8E4"/></linearGradient><linearGradient id="b" x1="43.19" y1="25.73" x2="20.49" y2="39.35" gradientUnits="userSpaceOnUse"><stop stop-color="#45D7D5"/><stop offset="1" stop-color="#348497"/></linearGradient><linearGradient id="c" x1="42.84" y1="19.85" x2="12.95" y2="30.17" gradientUnits="userSpaceOnUse"><stop stop-color="#036C85"/><stop offset="1" stop-color="#29CDCE"/></linearGradient></defs></svg>