<!-- by TradingView --><svg width="56" height="56" viewBox="0 0 56 56" xmlns="http://www.w3.org/2000/svg"><path fill="#F0F3FA" d="M0 0h56v56H0z"/><circle cx="28" cy="28" r="16" fill="url(#akl5ci0yf)"/><path d="m21 23-.46 3h-4.18c-.47 0-1.86.5.93 1 2.22.4 2.78.5 2.78 1.5l-.46 2a3.32 3.32 0 0 1-3.25 2.5H8l1.4-3h5.1c1.49 0 .93-1-.46-1.5L11.7 28c-1.39-.5-1.85-.5-1.85-1.5l.46-2c.37-1.2 2.32-1.5 3.25-1.5H21ZM28 23h-5l-2 10h5l2-10ZM36 23h-5l-2 10h5l2-10ZM48 23l-1 3h-4c-1.2 0-1.5 1.67-1.5 2.5 0 1.2.67 1.5 1 1.5h4l-1 3h-7c-2 0-2.17-2.67-2-4l.5-3c.4-2.4 2.83-3 4-3h7Z" fill="#94082D"/><defs><linearGradient id="akl5ci0yf" x1="26.5" y1="13.5" x2="26.5" y2="43.5" gradientUnits="userSpaceOnUse"><stop stop-color="#6F7172"/><stop offset=".3" stop-color="#D7D8DA"/><stop offset=".45" stop-color="#FBFFFF"/><stop offset=".7" stop-color="#B5B6B8"/><stop offset="1" stop-color="#727272"/></linearGradient></defs></svg>