<!-- by TradingView --><svg width="56" height="56" viewBox="0 0 56 56" xmlns="http://www.w3.org/2000/svg"><path fill="#F0F3FA" d="M0 0h56v56H0z"/><path d="M27.8 16h1.4c2.09.07 4.11.42 6.09 1.05 3.86 1.23 7.55 3.73 9.16 7.55 0 .02.02.03.04.03h7.5l.01.04v6.65a.06.06 0 0 1-.06.05h-.58c-.16-.01-.35.03-.56.1l-7.88 2.72c-.1.04-.2.1-.29.19a16.44 16.44 0 0 1-6.68 4.34 22.5 22.5 0 0 1-13.4.49c-4.13-1.13-8.31-3.73-10-7.8a.1.1 0 0 0-.08-.06L4 31.37V27h1.96c-.8-1.81-.12-4 2.15-4h5.21a.1.1 0 0 0 .04-.03c2.78-4.45 8.4-6.56 13.42-6.9L27.8 16Z" fill="#004583"/><path d="M30.48 18.09c-1.23.2-2.5.2-3.8.02a5.64 5.64 0 0 1-2.7-.98c-.04-.04-.04-.06.02-.07 1.7-.39 3.36-.45 5.11-.43a19.64 19.64 0 0 1 3.92.45v.02l-.02.02a5.4 5.4 0 0 1-2.53.97ZM17.5 19.83a18.47 18.47 0 0 1 6.18-2.74.1.1 0 0 1 .1.03 3.46 3.46 0 0 0 .55.5.03.03 0 0 1-.02.02 10.82 10.82 0 0 0-4.43 3.82h-.04a8.36 8.36 0 0 1-2.36-1.6.05.05 0 0 1 .03-.03ZM34.88 17.56a18.45 18.45 0 0 1 4.72 2.3v.03l-.02.02a8.86 8.86 0 0 1-2.48 1.55l-.03-.01a10.77 10.77 0 0 0-4.42-3.84c.25-.19.43-.36.57-.5a.07.07 0 0 1 .07-.03c.52.15 1.05.3 1.6.48Z" fill="#F0F3FA"/><path d="M26.48 18.28a9.67 9.67 0 0 0-2.38 4.36h-.02a22.02 22.02 0 0 1-3.82-1.08v-.02a10.38 10.38 0 0 1 4.52-3.72h.08a7.96 7.96 0 0 0 1.62.45v.01ZM32.06 20.4a7.13 7.13 0 0 0-1.54-2.15c.6-.1 1.15-.24 1.67-.43a.17.17 0 0 1 .13 0 10.83 10.83 0 0 1 4.4 3.75.05.05 0 0 1-.03.03c-1.2.47-2.46.81-3.76 1.04-.03 0-.05-.01-.06-.04a13.3 13.3 0 0 0-.81-2.2Z" fill="#F0F3FA"/><path d="M24.38 22.6c.42-1.55 1.2-3.25 2.45-4.23a.1.1 0 0 1 .08-.02 8.26 8.26 0 0 0 1.48.08v.02l.01.02v4.5c0 .02 0 .03-.02.03-1.34.02-2.66-.09-3.96-.33-.04 0-.05-.03-.04-.06ZM30.19 18.39a8.42 8.42 0 0 1 2.42 4.22c0 .03 0 .05-.04.06a21.67 21.67 0 0 1-3.97.33l-.02-.03v-4.51a.05.05 0 0 1 .04-.03h.02c.51 0 .97-.04 1.46-.07.03 0 .06 0 .09.03ZM19.76 21.62a15.27 15.27 0 0 0-1.32 3h-4.53a.04.04 0 0 1-.03 0 .04.04 0 0 1-.01-.04v-.76a.4.4 0 0 1 .07-.21 12.88 12.88 0 0 1 3.28-3.62c.04-.02.07-.02.1 0a8.41 8.41 0 0 0 2.45 1.59.05.05 0 0 1 0 .04ZM38.53 24.59a9.23 9.23 0 0 0-1.3-3.01.06.06 0 0 1 .03-.04 7.53 7.53 0 0 0 2.45-1.57l.03.01a10.74 10.74 0 0 1 3.8 4.63.03.03 0 0 1-.02.02h-4.94c-.03 0-.04-.02-.05-.04ZM18.82 24.58c.33-.97.78-1.89 1.3-2.78.02-.03.04-.04.07-.03a21.33 21.33 0 0 0 3.8 1.08.06.06 0 0 1 0 .04l-.35 1.71a.03.03 0 0 1-.03.03h-4.76a.03.03 0 0 1-.03-.02.03.03 0 0 1 0-.03ZM36.86 21.79a8.63 8.63 0 0 1 1.3 2.83H33.37a.04.04 0 0 1-.04-.03 9.85 9.85 0 0 0-.33-1.71c-.01-.04 0-.06.04-.06 1.3-.23 2.55-.58 3.77-1.05.02 0 .04 0 .05.02ZM28.64 23.2a27.76 27.76 0 0 0 4.07-.27l.02.04c.14.5.25 1.04.33 1.6 0 .04-.01.06-.05.06h-4.37c-.04 0-.06-.02-.06-.06v-1.32c0-.04.02-.06.06-.06ZM23.92 24.57l.35-1.6c.01-.03.03-.04.06-.04a30.46 30.46 0 0 0 4.06.27l.01.02v1.36c0 .03-.01.05-.04.05h-4.42l-.02-.02v-.04Z" fill="#F0F3FA"/><path d="M7.5 28h.03a.04.04 0 0 0 .01-.06 4.48 4.48 0 0 1-.9-2.63c.08-.84.98-1.3 1.78-1.31h4.85l.04.02v1.28l.02.04.04.01h38.11c.01 0 .03 0 .04.02l.01.03v5.18c0 .05-.02.07-.07.07H5.01v-2.63l.05-.02H7.5Z" fill="#D81718"/><path d="M11.84 24.88c.03-.04.05-.1.07-.15.07-.26.5-.27.5.04a21.25 21.25 0 0 1-.02 1.28.14.14 0 0 1-.12.07.13.13 0 0 1-.07-.03c-.09-.06-.18-.12-.21-.24-.07-.29-.29-.5-.65-.62-.45-.17-1.5-.28-1.7.33-.09.25.1.48.27.61.44.35.95.69 1.52 1 .45.26 1.28 1 1.27 1.57-.02.98-.72 1.26-1.5 1.26H6.45c-.26 0-.32.18-.4.37a.09.09 0 0 1-.07.05c-.06.02-.11 0-.15-.04-.03-.03-.04-.08-.04-.14l-.01-1.15c0-.06.03-.09.1-.08l.11.02c.06.01.1.05.1.11.01.17.1.25.28.25h3.87c.11 0 .24-.03.37-.1.26-.1.28-.46.13-.66-.13-.18-.3-.32-.48-.43-.83-.48-2.6-1.34-2.39-2.58.16-.95 1.25-.98 1.96-1.03a3.7 3.7 0 0 1 1.84.34.13.13 0 0 0 .17-.05ZM46.51 29.5c0 .17-.06.31-.17.45a.11.11 0 0 1-.15.03c-.08-.05-.13-.14-.13-.25v-.98c0-.04.02-.08.04-.1a.16.16 0 0 1 .09-.06c.1-.03.19.05.22.16.03.1.1.2.2.24.76.4 1.46.7 2.25.32.27-.13.32-.32.15-.57-.13-.17-.4-.25-.59-.27a5.08 5.08 0 0 1-1.62-.42 1.21 1.21 0 0 1-.62-.78c-.2-.94.8-1.26 1.5-1.27.6 0 1.18.11 1.72.35.31.14.44-.02.56-.3 0-.01.02-.03.04-.03h.06c.13.03.2.12.2.25l.01.7c0 .15-.08.27-.2.33-.03.02-.06.01-.09-.01a2.98 2.98 0 0 0-.63-.52c-.49-.26-1.56-.56-2.01-.14a.14.14 0 0 0-.05.09c-.06.4.26.55.57.6l1.39.33c.74.2 1.39.94.86 1.75-.45.68-1.3.66-2.02.53a6.6 6.6 0 0 1-1.52-.47c-.04-.01-.06 0-.06.05ZM13.12 29.72c.26-.1.65-.17.65-.58v-2.3c0-.38-.4-.46-.66-.56a.07.07 0 0 1-.02-.02l-.02-.03a.09.09 0 0 1 .01-.07.3.3 0 0 1 .26-.16h1.75c.1 0 .18.03.25.1.01 0 .03.02.03.05a.13.13 0 0 1-.02.12.1.1 0 0 1-.05.04c-.26.06-.54.16-.54.51v2.38c0 .35.31.42.55.5a.1.1 0 0 1 .04.04l.03.05a.13.13 0 0 1-.03.11.3.3 0 0 1-.23.1h-1.8a.35.35 0 0 1-.22-.08.1.1 0 0 1-.04-.05.12.12 0 0 1 .02-.11.1.1 0 0 1 .04-.04ZM16.98 27.97a.14.14 0 0 0-.05.05.16.16 0 0 0-.02.08v1.25c0 .03 0 .06.02.08.01.03.03.05.05.06.18.1.36.18.55.23.08.03.1.08.08.16a.17.17 0 0 1-.06.08.15.15 0 0 1-.1.03h-1.44a.23.23 0 0 1-.17-.07.12.12 0 0 1-.03-.05v-.06l.02-.05a.1.1 0 0 1 .05-.03c.17-.07.5-.15.5-.42L16.36 27c0-.36-.16-.55-.49-.6-.08 0-.12-.06-.13-.15l-.02-.09c0-.08.03-.13.1-.13l.88-.02c.2 0 .33.05.46.2.68.8 1.34 1.54 1.98 2.24l.22.2.08.02.07-.01a.15.15 0 0 0 .06-.06 229.78 229.78 0 0 0 .02-1.72c0-.37-.38-.51-.64-.56-.07-.01-.09-.05-.07-.12l.01-.06c.02-.08.07-.13.15-.13h1.36a.1.1 0 0 1 .04.02c.12.06.18.12.17.2 0 .09-.05.13-.13.14-.23.02-.35.16-.35.41v2.83c0 .18-.1.35-.26.37-.62.1-.9-.06-1.34-.55l-1.24-1.37c-.1-.12-.21-.15-.32-.08ZM27.56 29.49c.03-.01.06-.03.08-.06a.17.17 0 0 0 .03-.1v-2.56a.28.28 0 0 0-.07-.19.23.23 0 0 0-.17-.08h-.69a.2.2 0 0 0-.12.05.23.23 0 0 0-.07.11l-.14.5c-.01.03-.03.05-.07.05h-.13c-.04 0-.06-.02-.06-.07 0-.39-.15-1.14.43-1.14h3.2c.56.01.5.7.48 1.12 0 .05-.02.07-.07.08l-.2.01c-.06 0-.08-.02-.08-.08.01-.25.04-.63-.3-.63h-.63a.3.3 0 0 0-.23.11.38.38 0 0 0-.1.25v2.46c0 .04.02.08.04.11s.06.05.1.06l.5.15c.12.04.16.13.13.25 0 .03-.02.06-.05.08a.12.12 0 0 1-.08.03h-2.17a.23.23 0 0 1-.17-.07.16.16 0 0 1-.04-.08v-.08c0-.03.02-.05.04-.07a.14.14 0 0 1 .06-.04l.55-.17ZM44.03 26.3l-.02-.02-.01-.02c-.02-.15.07-.26.2-.26h1.34c.1 0 .16.07.18.18v.03c.02.09-.02.14-.1.14-.25.02-.37.16-.37.44v2.82c0 .4-.33.4-.6.39-.32 0-.6-.15-.86-.43-.47-.54-.95-1.07-1.43-1.59a.19.19 0 0 0-.1-.05c-.04-.01-.08 0-.11.01a.2.2 0 0 0-.09.08.23.23 0 0 0-.03.12v1.23l.01.06.04.04c.17.12.36.2.57.25a.1.1 0 0 1 .05.03l.03.05a.13.13 0 0 1-.02.1.18.18 0 0 1-.16.1l-1.43-.01a.22.22 0 0 1-.17-.08.11.11 0 0 1-.02-.04.12.12 0 0 1 .02-.1.1.1 0 0 1 .04-.04c.15-.06.5-.15.5-.39V27c0-.26-.09-.44-.26-.55-.1-.05-.17-.04-.26-.07a.12.12 0 0 1-.07-.06.36.36 0 0 1-.04-.21c0-.03.02-.05.03-.07a.1.1 0 0 1 .07-.03h.98c.13 0 .24.06.33.16a76.99 76.99 0 0 0 2.2 2.46c.03.02.05.03.08.03s.06 0 .08-.02a.15.15 0 0 0 .06-.06 156.72 156.72 0 0 0 .02-1.73c0-.36-.42-.51-.68-.55ZM25.09 29.41c.45-.37.7-.88.7-1.41 0-.26-.06-.52-.18-.77-.12-.24-.3-.46-.52-.64a2.47 2.47 0 0 0-.78-.44 2.8 2.8 0 0 0-2.6.44c-.22.18-.4.4-.52.64-.12.25-.18.5-.18.77 0 .53.25 1.04.7 1.41.45.38 1.06.59 1.69.59.63 0 1.24-.21 1.69-.59Zm-.28-1.44c0 .74-.65 1.35-1.45 1.35-.8 0-1.44-.61-1.43-1.36 0-.75.64-1.35 1.44-1.35.8 0 1.44.61 1.44 1.36Z" fill="#F0F3FA"/><path fill-rule="evenodd" d="M34.68 29.32c-.2-.38-.43-.74-.68-1.06-.03-.05-.03-.07.02-.1.5-.18.89-.62.83-1.25-.06-.65-.7-.9-1.24-.9h-2.78c-.1 0-.17.05-.2.16v.05c.02.1.08.15.16.16.2.03.29.15.3.38v2.48c0 .24-.12.37-.34.38l-.05.01a.13.13 0 0 0-.04.04.15.15 0 0 0-.02.12v.02c.03.13.1.19.22.19h1.57c.02 0 .04 0 .05-.02.02 0 .04-.02.05-.04.06-.08.06-.2-.04-.24a2.76 2.76 0 0 0-.11-.05c-.19-.08-.32-.13-.31-.45v-.96c0-.04 0-.07.03-.1a.11.11 0 0 1 .08-.03h.08c.26-.03.56-.05.72.23.24.45.54.91.9 1.38.11.14.26.26.44.27a9.66 9.66 0 0 0 .78-.02.14.14 0 0 0 .05-.06c.04-.1.02-.17-.06-.22-.16-.1-.31-.2-.4-.37Zm-2.58-2.78a.15.15 0 0 0-.03.1V27.52l.03.04.04.03.05.01h1.15a.54.54 0 0 0 .37-.14.5.5 0 0 0 .15-.36v-.09a.5.5 0 0 0-.15-.36.53.53 0 0 0-.37-.15H32.2a.12.12 0 0 0-.1.04ZM38.69 28.85l.25.66c.02.05 0 .08-.04.1l-.48.12a.08.08 0 0 0-.04.03.1.1 0 0 0-.02.03.1.1 0 0 0 .01.09c.05.08.12.12.21.12a129.65 129.65 0 0 1 1.85-.02.12.12 0 0 0 .04-.05c.04-.08.03-.14-.03-.18a2.82 2.82 0 0 0-.39-.2c-.06-.03-.15-.1-.18-.16l-1.26-2.82c-.12-.27-.3-.57-.56-.57h-1.22a.3.3 0 0 0-.25.15.14.14 0 0 0 0 .16l.04.02c.08.05.16.07.24.07.24 0 .32.3.21.52a215.37 215.37 0 0 1-1.57 2.94c0 .02 0 .05.02.07 0 .02.02.04.04.05l.06.02h.92c.1 0 .16-.06.18-.17v-.04a.06.06 0 0 0-.03-.02l-.33-.16-.02-.02-.01-.02a.08.08 0 0 1 0-.06c.1-.27.33-.8.64-.8h1.52a.2.2 0 0 1 .12.04c.04.02.06.06.08.1Zm-.36-.86a6.9 6.9 0 0 1-.41-.9.2.2 0 0 0-.06-.1.17.17 0 0 0-.2-.01.2.2 0 0 0-.06.08l-.5.93a.2.2 0 0 0-.03.15c0 .02.01.03.03.04l.04.02h1.08c.02 0 .04 0 .06-.02a.14.14 0 0 0 .05-.05.16.16 0 0 0 0-.14Z" fill="#F0F3FA"/><path d="M18.46 31.42c.34 1 .78 2 1.3 2.94.02.04.01.08-.03.1-.96.42-1.77.94-2.43 1.55-.02.02-.04.02-.06 0a11.27 11.27 0 0 1-3.8-4.63l.01-.01H18.4a.08.08 0 0 1 .07.05ZM20.12 34.2a14.91 14.91 0 0 1-1.3-2.83H23.62a.05.05 0 0 1 .05.04c.06.56.17 1.13.33 1.71 0 .03 0 .05-.04.06-1.3.24-2.55.59-3.75 1.04-.04.02-.06 0-.08-.02ZM28.36 32.8a30.32 30.32 0 0 0-4.07.26l-.01-.01-.37-1.63c0-.03.01-.05.05-.05h4.42a.02.02 0 0 1 .02.02v1.37a.04.04 0 0 1-.01.03l-.01.01h-.02ZM33.06 31.42a10.52 10.52 0 0 1-.35 1.64h-.03a29.1 29.1 0 0 0-4.05-.25c-.03 0-.05-.02-.05-.05v-1.34c0-.03.02-.05.06-.05h4.38c.03 0 .05.01.04.05ZM36.1 33.96a22.82 22.82 0 0 0-3.1-.81v-.01l.41-1.72a.07.07 0 0 1 .07-.05h4.67c.03 0 .04 0 .03.03a8.57 8.57 0 0 1-1.36 2.83h-.05c-.22-.11-.45-.2-.67-.27ZM39.66 35.99a7.87 7.87 0 0 0-2.44-1.58v-.04a11.96 11.96 0 0 0 1.35-3h4.94c.04 0 .05.01.04.05a11.17 11.17 0 0 1-3.84 4.59.08.08 0 0 1-.05-.02ZM43.63 32.97c.32-.5.58-1.02.81-1.56a.06.06 0 0 1 .07-.04h4.04c.1 0 .1.01 0 .04l-4.87 1.63c-.08.02-.1 0-.05-.07ZM26.8 37.61c-1.23-1.03-1.97-2.71-2.42-4.31a.04.04 0 0 1 .01-.04h.02a29.3 29.3 0 0 1 3.98-.26l.01.02v4.5c0 .03-.02.05-.05.05a9.37 9.37 0 0 0-1.49.07.16.16 0 0 1-.05-.03ZM32.69 33.31c-.5 1.57-1.3 3.3-2.53 4.31a.11.11 0 0 1-.09.03 8.99 8.99 0 0 0-1.47-.1.05.05 0 0 1-.02-.03v-4.5c0-.02.02-.03.04-.03 1.34 0 2.68.09 4.03.26.04 0 .05.03.04.06Z" fill="#F0F3FA"/><path d="M24.11 33.38a9.35 9.35 0 0 0 2.35 4.32c.04.03.03.05-.02.06-.55.1-1.07.24-1.56.42a.12.12 0 0 1-.09 0 10.97 10.97 0 0 1-4.53-3.74.04.04 0 0 1 .03-.03c1.18-.45 2.44-.8 3.77-1.06.03 0 .04 0 .05.03ZM30.54 37.76a.03.03 0 0 1-.03-.02v-.02l.01-.01a9.37 9.37 0 0 0 2.47-4.33c.01-.01.03-.02.05-.01a20.88 20.88 0 0 1 3.67 1.06.05.05 0 0 1 0 .04 11.12 11.12 0 0 1-4.52 3.7h-.08a7.4 7.4 0 0 0-1.57-.41Z" fill="#F0F3FA"/><path d="M20 34.56a10.03 10.03 0 0 0 4.33 3.82v.02l-.02.02c-.2.13-.37.28-.53.46a.08.08 0 0 1-.09.02 18.43 18.43 0 0 1-6.2-2.77v-.02a7.74 7.74 0 0 1 2.48-1.57l.03.02ZM39.56 36.17a19.41 19.41 0 0 1-6.31 2.73l-.56-.5h-.01v-.02a.03.03 0 0 1 .01-.03c1.75-.82 3.2-2.08 4.39-3.79.01-.02.03-.03.06-.02a8.62 8.62 0 0 1 2.44 1.59v.02l-.02.02ZM30.35 37.9a5.98 5.98 0 0 1 2.68.98v.03l-.01.02H33c-.6.15-1.17.24-1.68.3-1.73.17-3.5.19-5.31.03a14.2 14.2 0 0 1-2.05-.35v-.01l.01-.02c.24-.2.5-.36.79-.47 1.72-.7 3.79-.8 5.59-.52Z" fill="#F0F3FA"/></svg>