<!-- by TradingView --><svg width="56" height="56" viewBox="0 0 56 56" xmlns="http://www.w3.org/2000/svg"><path fill="#F0F3FA" d="M0 0h56v56H0z"/><path fill-rule="evenodd" d="M12 41h28.29c.97-.39 2.71-1.95 2.71-5.13 0-3.2-1.3-4.42-2.55-5.6-1.17-1.1-2.3-2.15-2.3-4.73 0-3.97 3.9-4.49 5.85-4.25V15H22.69c-3.1.31-9.28 2.35-9.28 8 0 2.98 1.6 4.64 2.9 6 .9.92 1.65 1.7 1.65 2.67 0 1.66-1.4 2.93-2.98 2.93-1.26 0-2.51-1.51-2.98-2.27V41Zm19-25h-3v1.18c-1.8.54-5 2.3-5 6.23 0 2.05 1.13 3.35 2.32 4.7 1.3 1.5 2.68 3.07 2.68 5.8 0 3.1-3.37 5.35-5 6.09h4.57c.85-.4 2.43-2.01 2.43-5.33 0-2.3-1.07-3.76-2.1-5.16l-.37-.51h8.14c1.19 1.23 2.33 2.49 2.33 4.98 0 3.1-3.28 5.28-5 6.02h4.82A5.8 5.8 0 0 0 41 34.67c0-2.3-1.33-3.76-2.62-5.16-1.2-1.3-2.38-2.58-2.38-4.48 0-3.1 3.15-5.76 6-6.03h1v-3h-3v1c-1.26.05-7 1.62-7 6.41 0 1.58.4 2.69.97 3.59h-7.6a5.33 5.33 0 0 1-.37-1.97c0-3.1 3.19-5.34 4.98-6.03H31v-3Z" fill="#D11928"/></svg>