<!-- by TradingView --><svg width="56" height="56" viewBox="0 0 56 56" xmlns="http://www.w3.org/2000/svg"><path fill="#F0F3FA" d="M0 0h56v56H0z"/><path d="M49.13 31C47.35 31 46 29.85 46 28.02c0-1.77 1.3-3.02 3.05-3.02A2.8 2.8 0 0 1 52 27.94v.42h-5.29v-.93h3.83c0-.82-.68-1.43-1.47-1.43-.82 0-1.55.67-1.56 1.52v.8c0 .97.68 1.68 1.64 1.68.55 0 1.14-.27 1.37-.82l1.42.15c-.33 1.23-1.66 1.67-2.8 1.67ZM36.75 24.5a.73.73 0 0 1-.53-.22.72.72 0 0 1-.22-.53c0-.2.07-.38.22-.53a.72.72 0 0 1 .53-.22c.2 0 .38.07.53.22.15.15.22.32.22.53 0 .2-.07.38-.22.53a.72.72 0 0 1-.53.22ZM36 25v6h1.5v-6H36ZM30.5 27.88V31H29v-8h1.5v3.23c.32-.76 1.13-1.23 2.16-1.23 1.49 0 2.34 1.12 2.34 2.54V31h-1.5v-3.21c0-.91-.6-1.45-1.43-1.45-.9 0-1.57.68-1.57 1.54ZM40.5 27.88V31H39v-6h1.5v1.23c.32-.76 1.13-1.23 2.16-1.23 1.49 0 2.34 1.12 2.34 2.54V31h-1.5v-3.21c0-.91-.6-1.45-1.43-1.45-.9 0-1.57.68-1.57 1.54ZM22 34v-9h1.5v1.16A2.04 2.04 0 0 1 25.38 25c1.8 0 2.62 1.74 2.62 3.33 0 1.6-.8 3.35-2.62 3.35-.81 0-1.52-.42-1.88-1.13V34H22Zm1.5-5.67c0 1.26.51 2.1 1.46 2.1 1.11 0 1.51-1.15 1.51-2.1 0-.95-.39-2.08-1.5-2.08-.97 0-1.47.82-1.47 2.08ZM17.33 32c-1.24 0-2.33-.71-2.33-2.04 0-1.47 1.42-1.93 2.64-2.06.21-.02 1.86-.22 1.86-.62 0-.66-.56-1.06-1.32-1.06-.6 0-1.21.26-1.42.86l-1.53-.21c.38-1.3 1.67-1.87 2.94-1.87 1.41 0 2.83.74 2.83 2.33V32h-1.5v-1.07c-.4.76-1.36 1.07-2.17 1.07Zm.42-1.17c1.06 0 1.75-.48 1.75-1.4v-.68c-.24.07-.96.12-1.25.16l-.39.06c-.49.06-.89.2-1.11.46a.74.74 0 0 0-.17.5c0 .65.61.9 1.17.9ZM9.29 32H6v-9h3.36c2.7 0 4.64 1.75 4.64 4.5 0 2.78-1.99 4.5-4.71 4.5ZM8 30.59h1.2c1.94 0 2.8-1.18 2.8-3.1 0-1.88-.84-3.08-2.74-3.08H8v6.18Z" fill="#54585D"/></svg>