<!-- by TradingView --><svg width="56" height="56" viewBox="0 0 56 56" xmlns="http://www.w3.org/2000/svg"><path fill="#F0F3FA" d="M0 0h56v56H0z"/><path d="M28 12c2.12 0 4.16.4 6.12 1.22a15.82 15.82 0 0 1 8.66 8.66 15.83 15.83 0 0 1 0 12.24 15.82 15.82 0 0 1-8.66 8.66 15.83 15.83 0 0 1-12.24 0 15.82 15.82 0 0 1-8.66-8.66 15.83 15.83 0 0 1 0-12.24 15.82 15.82 0 0 1 8.66-8.66c1.96-.81 4-1.22 6.12-1.22Zm5.1 11.83a.2.2 0 0 0-.22.07.21.21 0 0 0-.04.22c.25.7.36 1.34.36 1.92 0 .1-.05.15-.15.15h-3.07a.4.4 0 0 1-.4-.27c-.34-.86-1.06-1.17-2.16-.94-.37.08-.62.26-.76.54-.14.29-.11.6.07.92.24.41.63.77 1.2 1.06.29.14.55.1.78-.13l.55-.55a.41.41 0 0 1 .3-.12h2.5c.16 0 .3.07.39.21.09.15.1.3.03.45a4.81 4.81 0 0 1-.97 1.41c-.18.18-.17.36.03.52a5.2 5.2 0 0 1 1.73 3.21c.23 1.26.2 2.5-.1 3.71a4.53 4.53 0 0 1-2.54 3.14c-1.28.61-2.64.69-4.09.23a8.3 8.3 0 0 1-4.74-3.81c-.04-.07-.1-.1-.18-.07-.07.02-.11.07-.11.15v2.22c0 .31-.16.47-.48.47h-1.8a.16.16 0 0 0-.16.1.16.16 0 0 0 .02.18c.16.19.36.36.59.5 5.61 3.6 11.2 3.57 16.73-.06.07-.04.09-.1.06-.18-.02-.07-.07-.08-.14-.08H34.8c-.18 0-.28-.12-.28-.3V24.75a.45.45 0 0 0-.15-.34c-.33-.3-.75-.5-1.28-.58Zm5.1-5.4c-.06.02-.2.07-.2.13.02.9.03 4.08 0 9.51v9.52c0 .06.03.11.09.14.06.02.11.01.16-.04 2.48-2.7 3.73-5.9 3.75-9.6.02-3.69-1.2-6.9-3.64-9.63-.05-.05-.1-.06-.16-.04Zm-20.29-.24c-.06-.03-.1-.02-.15.03A14.04 14.04 0 0 0 14 27.84a14.08 14.08 0 0 0 3.53 9.7c.04.06.09.07.15.04.06-.02.32-.07.32-.14V18.33c0-.07-.03-.12-.09-.14Zm4.2 6-.1.03c-.2.06-.3.2-.3.4v8.87c0 .12.06.18.18.18h3.07c.14 0 .24.06.3.2.32.6.6 1.03.86 1.27.35.33.8.51 1.35.54.96.05 1.43-.44 1.4-1.44 0-.1-.06-.17-.15-.21a.21.21 0 0 0-.25.05l-.68.68a.28.28 0 0 1-.25.09.29.29 0 0 1-.23-.16l-1.53-2.65c-.1-.17-.06-.3.1-.4.13-.07.32-.13.6-.16.1-.02.16-.08.18-.18 0-.1-.04-.18-.14-.22a10.4 10.4 0 0 1-2.83-1.73c-1.05-.87-1.46-2.5-1.23-4.88a.25.25 0 0 0-.1-.23.26.26 0 0 0-.26-.06ZM27.34 14c-2.85.1-5.48 1.06-7.9 2.9a.38.38 0 0 0-.16.24c-.02.15.04.22.2.21l1.76-.12a.8.8 0 0 1 .78.43l1.82 3.16c.09.14.1.29.06.45l-.22.84c-.03.1 0 .17.1.23.08.05.16.04.24-.03a5.33 5.33 0 0 1 4.47-1.53c.72.08 1.26.18 1.6.29.44.14.87.4 1.3.75.11.1.21.09.3-.05l2.46-4.27c.08-.13.2-.2.34-.2h2.13c.06 0 .1-.02.12-.08a.13.13 0 0 0-.02-.14 5.41 5.41 0 0 0-1.27-.93l-.43-.26a12.37 12.37 0 0 0-6.5-1.89c-.06 0-.1.03-.12.07-.03.05-.03.1 0 .14.42.55.47 1.02.15 1.4a.77.77 0 0 0-.16.68c.05.26.2.45.42.6 1 .6 1.63.02 1.9-1.74a.4.4 0 0 1 .24-.32.4.4 0 0 1 .4.02l.6.35c.27.16.32.37.15.63l-2 2.99c-.09.12-.21.19-.37.19h-1.87c-.06 0-.1.03-.1.09v.1c0 .14.07.2.2.2h1.58c.1 0 .19.05.24.15.04.09.04.18-.03.27a.83.83 0 0 1-.46.3c-2.16.6-3.55-.07-4.17-2.02l-.13-.53c-.13-.6-.42-.99-.88-1.18a.62.62 0 0 1-.38-.42c-.06-.2-.01-.36.13-.49.31-.29.67-.4 1.07-.33.13.03.24.1.3.22l.86 1.47c.07.13.19.2.33.22.16.02.28-.02.39-.13.5-.53.61-1.1.33-1.74a.42.42 0 0 1 .03-.44l.32-.47a.16.16 0 0 0 .01-.19.16.16 0 0 0-.16-.09Z" fill="#C0AC36"/></svg>