<!-- by TradingView --><svg width="56" height="56" viewBox="0 0 56 56" xmlns="http://www.w3.org/2000/svg"><path fill="#A51A31" d="M0 0h56v56H0z"/><path d="M8.9 26.54c-.21.27-.5.84-.9 1.7-.27.59-.87.8-1.22.18-.4-.66-.67-1.1-.84-1.33-.17-.23-.26-.2-.26.1v2.53a.3.3 0 0 1-.07.2.24.24 0 0 1-.18.08h-.19c-.16 0-.24-.1-.24-.27V25.2c0-.05.02-.1.05-.14a.17.17 0 0 1 .12-.06c.31-.03.53.05.66.23A37.45 37.45 0 0 1 7.4 27.7a.12.12 0 0 0 .13 0 .14.14 0 0 0 .04-.05l1.28-2.47c.05-.1.12-.18.22-.18h.8c.1 0 .14.1.14.2v4.57c0 .13-.06.23-.17.23h-.61c-.1 0-.22-.1-.22-.21V26.6c0-.2 0-.22-.1-.07ZM16 27.48a2.5 2.5 0 1 1-5 .03 2.5 2.5 0 0 1 5-.03Zm-2.5 2.05c.41 0 .81-.2 1.1-.59.3-.38.47-.9.48-1.43 0-.27-.04-.54-.12-.78-.08-.25-.2-.48-.34-.67a1.62 1.62 0 0 0-.5-.44c-.2-.1-.4-.16-.6-.16-.42 0-.83.21-1.12.6-.3.37-.47.89-.47 1.43 0 .27.04.53.12.78.07.25.19.47.33.66.15.2.32.34.51.45.2.1.4.15.6.15ZM18 27.74l.01.06a.1.1 0 0 0 .04.04h.06a.1.1 0 0 0 .05-.03c.65-.8 1.22-1.61 1.89-2.47.2-.26.48-.37.81-.33.16.02.18.1.07.22l-1.68 1.92c-.2.22-.2.45-.01.68l1.5 1.84c.17.22.13.33-.13.33h-.36a.78.78 0 0 1-.58-.28l-1.08-1.33c-.04-.05-.09-.06-.14-.02-.49.38-.43.73-.45 1.39 0 .14-.08.24-.2.24h-.61c-.13 0-.19-.1-.19-.24V25.3c0-.2.09-.31.26-.31h.54c.13 0 .2.09.2.24v2.5ZM33.86 29.63c-1.42.66-2.57.43-3.43-.68a2.4 2.4 0 0 1-.43-1.63c.07-1.34 1.31-2.24 2.43-2.31 1-.07 1.8.3 2.42 1.1.08.1.06.16-.07.16h-.19a.37.37 0 0 1-.24-.1c-.95-.84-2.55-1.03-3.18.34-.24.53-.22 1.8.14 2.33.71 1.05 2.44.82 2.77-.61a.26.26 0 0 0-.04-.2.22.22 0 0 0-.08-.08.2.2 0 0 0-.1-.02h-.62c-.1 0-.17-.06-.2-.17-.05-.24-.01-.36.12-.37.49-.02 1.04-.02 1.65 0 .05 0 .1.02.13.06.04.04.06.09.06.15v2.1c0 .1-.05.16-.14.18-.33.06-.6-.01-.8-.2-.05-.07-.12-.08-.2-.05ZM23 29.76a.24.24 0 0 1-.07.17.23.23 0 0 1-.16.07h-.53a.23.23 0 0 1-.16-.07.24.24 0 0 1-.07-.17L22 25.24a.24.24 0 0 1 .07-.17.23.23 0 0 1 .16-.07h.53a.23.23 0 0 1 .16.07.24.24 0 0 1 .07.17l.01 4.52ZM28.12 28.53c.16.23.24.2.24-.1V25.3l.02-.12a.31.31 0 0 1 .06-.1.26.26 0 0 1 .08-.06.22.22 0 0 1 .1-.02h.15c.06 0 .12.02.16.08a.3.3 0 0 1 .07.19v4.5c0 .11-.05.18-.15.19-.5.06-.78.1-1.14-.45l-1.8-2.78c-.18-.27-.27-.24-.27.11v2.89c0 .15-.06.23-.2.23h-.24c-.13 0-.2-.08-.2-.24v-4.52c0-.1.05-.17.14-.18.38-.06.6-.06.87.34 1.1 1.67 1.8 2.73 2.11 3.16ZM50.12 28.53c.16.23.24.2.24-.1V25.3l.02-.12a.31.31 0 0 1 .06-.1.26.26 0 0 1 .08-.06.22.22 0 0 1 .1-.02h.15c.06 0 .12.02.16.08a.3.3 0 0 1 .07.19v4.5c0 .11-.05.18-.15.19-.5.06-.78.1-1.14-.45l-1.8-2.78c-.18-.27-.27-.24-.27.11v2.89c0 .15-.06.23-.2.23h-.24c-.13 0-.2-.08-.2-.24v-4.52c0-.1.05-.17.14-.18.38-.06.6-.06.87.34 1.1 1.67 1.8 2.73 2.11 3.16ZM38.83 28.27l1.11 1.53c.1.13.07.2-.08.2h-.48a.52.52 0 0 1-.26-.07.62.62 0 0 1-.2-.18l-.84-1.2c-.37-.53-.4-.54-.93-.45-.1.01-.15.08-.15.2v1.58c0 .08-.03.12-.1.12h-.77c-.09 0-.13-.05-.13-.15v-4.62c0-.06.02-.11.06-.15a.18.18 0 0 1 .13-.07c1.25-.02 2.07-.01 2.49.01 1.57.1 1.74 2.5.2 3.03a.12.12 0 0 0-.05.04.14.14 0 0 0-.03.05v.07l.03.06ZM37 25.71v1.7c0 .02.02.04.03.05l.02.05.05.03.05.01h1.06c.24 0 .47-.13.63-.3a.98.98 0 0 0 .25-.68v-.1c0-.26-.1-.5-.26-.67a.85.85 0 0 0-.64-.24h-1.07l-.05.01a.13.13 0 0 0-.04.04.15.15 0 0 0-.03.04v.06ZM42.25 28.75l-.45 1.02a.36.36 0 0 1-.35.23h-.28c-.16 0-.2-.07-.14-.22L43 25.33a.55.55 0 0 1 1 0l1.97 4.48c.05.12.01.18-.12.18H45a.26.26 0 0 1-.25-.17l-.45-1.01a.3.3 0 0 0-.1-.13.29.29 0 0 0-.16-.05h-1.6a.2.2 0 0 0-.1.03.21.21 0 0 0-.08.1Zm.4-.86a.12.12 0 0 0 .05.16l.06.01h1.01a.12.12 0 0 0 .1-.06.12.12 0 0 0 .01-.11l-.51-1.16a.12.12 0 0 0-.1-.07.12.12 0 0 0-.12.07l-.5 1.16Z" fill="#fff"/></svg>