<!-- by TradingView --><svg width="56" height="56" viewBox="0 0 56 56" xmlns="http://www.w3.org/2000/svg"><path fill="#F0F3FA" d="M0 0h56v56H0z"/><path d="M34.66 28h3.98c0-1-.07-2-.21-3H34.4c.17.99.25 2 .25 3Z" fill="#EB0029"/><path d="M17.54 36.1a16.63 16.63 0 0 0 6.08 7.15c.43.27.87.52 1.33.75C17.76 43.76 12 36.7 12 28c0-8.83 5.96-16 13.32-16 6.21 0 11.43 5.09 12.9 12h-4.05c-1.24-4.98-4.73-8.58-8.85-8.58-5.16 0-9.43 4.98-9.54 12.58.02 2.8.62 5.55 1.76 8.1ZM29.38 39s7.31 1.82 9.1-9h-3.96c-.1 1.83-.61 7.28-5.14 9Z" fill="#EB0029"/><path d="M31.05 12c.46.23.9.48 1.33.75a16.67 16.67 0 0 1 6.07 7.17A17.83 17.83 0 0 1 40.12 28c-.12 7.6-4.29 12.58-9.45 12.58-4.11 0-7.61-3.6-8.85-8.59a18.3 18.3 0 0 1-.49-4.06v-.21c0-.63.03-1.25.1-1.88.1-1.83.77-7.18 5.3-8.9 0 0-7.43-1.62-9.22 8.9-.29 2.05-.2 4.13.27 6.14C19.25 38.9 24.47 44 30.68 44 38.03 44 44 36.84 44 28c0-8.7-5.76-15.76-12.95-16Z" fill="#C3002F"/></svg>