<!-- by TradingView --><svg width="56" height="56" viewBox="0 0 56 56" xmlns="http://www.w3.org/2000/svg"><path fill="#F0F3FA" d="M0 0h56v56H0z"/><path fill-rule="evenodd" d="M8.29 20 7 27h1.29l.86-4.22L10.56 27h1.08l1.42-4.22.86 4.22h1.29l-1.3-7h-1.2l-1.6 5.24L9.5 20H8.29Zm9.98 7c.55 0 1.05-.21 1.45-.57V27H21v-5h-1.02l-.23.6c-.4-.37-.91-.6-1.48-.6-1.25 0-2.27 1.12-2.27 2.5s1.02 2.5 2.27 2.5Zm.26-1.1c.7 0 1.27-.63 1.27-1.4 0-.77-.57-1.4-1.27-1.4-.7 0-1.27.63-1.27 1.4 0 .77.57 1.4 1.27 1.4Zm3.22-3.9h1.51l1.01 1.35 1-1.35h1.54l-1.77 2.38L26.99 27h-1.54l-1.18-1.6-1.19 1.6h-1.51l1.94-2.62L21.75 22Zm5.35 3.7 1.05-.85c.13.3.54.9 1.15.9.77 0 1.18-.72.47-1.26a23.6 23.6 0 0 0-.23-.17c-.78-.58-2.1-1.56-2.1-2.6 0-1.17.91-1.72 1.86-1.72.77 0 1.63.65 1.98 1.12l-1 .76c-.12-.2-.5-.66-.98-.66-.6 0-.81.58-.17 1.07.51.4 1.35 1.1 1.66 1.41.26.26.7.95.7 1.53 0 .74-.76 1.77-2.19 1.77-1.14 0-1.9-.89-2.2-1.3ZM32 22h1.32v5H32v-5Zm15-2h1.32v2H49v1h-.68v4H47v-4h-1v-1h1v-2Zm-13.47.84c0 .47-.38.85-.85.85a.85.85 0 0 1-.86-.85c0-.46.38-.84.86-.84.47 0 .85.38.85.84Zm4.85 5.59c-.4.36-.93.57-1.5.57a2.43 2.43 0 0 1-2.36-2.5c0-1.38 1.06-2.5 2.36-2.5.59 0 1.13.23 1.54.6l.23-.6h1.07v5h-.02c0 .16-.13 2-2.55 2-1.93 0-2.53-1.13-2.59-1.69h1.46c.11.33.48.44.66.46h1.15c.43 0 .54-.51.56-.77v-.57Zm.09-1.93c0 .77-.6 1.4-1.32 1.4-.73 0-1.32-.63-1.32-1.4 0-.77.6-1.4 1.32-1.4.73 0 1.32.63 1.32 1.4Zm3.85-4.5H41v7h1.32v-3.13c.23-.38.6-.78 1.08-.78.7 0 .92.71.94 1.07V27h1.22v-3.3c0-.47-.43-1.7-1.74-1.7-.81 0-1.26.36-1.5.64V20Zm-25.64 9H16v7h1.42v-2.81h.84c1.24 0 2.24-.94 2.24-2.1 0-1.15-1-2.09-2.24-2.09h-1.58Zm.74 1.45v1.35h.86c.38 0 .68-.28.68-.63v-.08c0-.35-.3-.64-.68-.64h-.86ZM21 29h1.27v2.64c.23-.28.67-.64 1.46-.64 1.26 0 1.68 1.23 1.68 1.7V36h-1.18v-2.84c-.03-.36-.24-1.06-.91-1.06-.47 0-.82.39-1.05.77V36H21v-7Zm11.5 0h1.27v2h1.25v1h-1.25v4H32.5v-4h-1v-1h1v-2ZM31 33.5a2.5 2.5 0 1 1-5 0 2.5 2.5 0 0 1 5 0Zm-1.22 0c0 .83-.57 1.5-1.26 1.5-.7 0-1.27-.67-1.27-1.5s.57-1.5 1.27-1.5c.7 0 1.26.67 1.26 1.5ZM37.5 36a2.5 2.5 0 1 0 0-5 2.5 2.5 0 0 0 0 5Zm0-1c.69 0 1.25-.67 1.25-1.5S38.19 32 37.5 32s-1.25.67-1.25 1.5.56 1.5 1.25 1.5Z" fill="#FE0000"/></svg>