<!-- by TradingView --><svg width="56" height="56" viewBox="0 0 56 56" xmlns="http://www.w3.org/2000/svg"><path fill="#6F4E25" d="M0 0h56v56H0z"/><path fill-rule="evenodd" d="M22.9 13a8.97 8.97 0 0 0-8.9 9.03c0 2.28.83 4.37 2.2 5.96a9.07 9.07 0 0 0-2.2 5.95 8.97 8.97 0 0 0 8.9 9.03H24v-.62h-1.1a8.35 8.35 0 0 1-8.28-8.4c0-2.11.76-4.03 2.01-5.5a9 9 0 0 0 .57.52 7.79 7.79 0 0 0-1.77 4.97 7.7 7.7 0 0 0 7.64 7.75H24v-.62h-.93a7.16 7.16 0 0 1-5.38-11.71c.24.17.5.34.75.49a6.26 6.26 0 0 0 4.6 10.37H24v-.62h-.96A5.63 5.63 0 0 1 19 30.16c.25.12.5.23.77.33a4.8 4.8 0 0 0 3.22 8.28H24v-.62h-1a4.18 4.18 0 0 1-2.54-7.43c.33.1.67.17 1.03.23A3.36 3.36 0 0 0 19.56 34a3.33 3.33 0 0 0 3.3 3.36H24v-.63h-1.13a2.71 2.71 0 0 1-2.7-2.73c0-1.5 1.21-2.73 2.7-2.73H24V30.44h-1.1c-.59 0-1.17-.06-1.73-.18a4.04 4.04 0 0 1 1.82-.44H24v-.66h-.93c-.76 0-1.5-.12-2.18-.35a5.45 5.45 0 0 1 2.15-.43H24V27.69h-.96c-.8 0-1.57-.18-2.26-.49a6.9 6.9 0 0 1 1.71-.36c.17.02.34.02.5.02H24v-.67h-.93c-.2 0-.38 0-.56.02a4.04 4.04 0 0 1-1.46-.47 8.2 8.2 0 0 1 1.86-.2H24v-.71h-1.13a2.71 2.71 0 0 1-2.7-2.74c0-1.5 1.21-2.73 2.7-2.73H24v-.62h-1.13a3.36 3.36 0 0 0-1.56 6.32c-.32.05-.63.13-.94.22A4.18 4.18 0 0 1 23 17.9H24v-.62h-1a4.8 4.8 0 0 0-3.3 8.22c-.26.1-.5.21-.76.34a5.63 5.63 0 0 1 4.1-9.38H24v-.63h-.96a6.26 6.26 0 0 0-4.65 10.31c-.24.15-.48.3-.7.47a7.16 7.16 0 0 1 5.38-11.71H24v-.63h-.93a7.7 7.7 0 0 0-7.64 7.75c0 1.9.66 3.63 1.77 4.97a9 9 0 0 0-.57.53 8.45 8.45 0 0 1-2.01-5.5c0-4.64 3.7-8.4 8.29-8.4H24V13h-1.1Zm-5.85 14.99c.18.18.37.35.57.52.17-.18.36-.36.55-.52-.19-.17-.38-.34-.55-.52-.2.16-.39.34-.57.52Zm1.06-.9c.18.17.37.35.57.5.24-.16.49-.32.75-.47a6.18 6.18 0 0 1-.6-.5c-.25.14-.49.3-.72.46Zm1.3-.78c.2.18.43.35.66.5.32-.14.66-.26 1.01-.36a4.7 4.7 0 0 1-.83-.48c-.29.1-.57.22-.84.34Zm.62 1.2c-.29.14-.56.3-.83.48.3.2.6.36.91.51.35-.19.72-.35 1.1-.47-.41-.13-.81-.3-1.18-.52Zm-.53 1.38a7.62 7.62 0 0 1-.82-.51c-.2.16-.4.33-.57.51.25.18.5.35.78.5.19-.18.4-.35.6-.5Zm-.02.8c.28.13.56.24.86.34.27-.19.56-.35.87-.48a7.5 7.5 0 0 1-1.06-.35c-.24.15-.46.31-.67.5Zm13.61-16.66c4.92 0 8.91 4.04 8.91 9.03 0 2.28-.83 4.36-2.2 5.95a9.07 9.07 0 0 1 2.2 5.96A8.97 8.97 0 0 1 33.1 43H32v-.62h1.1a8.35 8.35 0 0 0 8.28-8.41c0-2.1-.76-4.03-2.01-5.5a9 9 0 0 1-.57.53 7.79 7.79 0 0 1 1.77 4.97 7.7 7.7 0 0 1-7.64 7.75H32v-.63h.93a7.16 7.16 0 0 0 5.38-11.71c-.24.18-.5.34-.75.5a6.26 6.26 0 0 1-4.6 10.37H32v-.63h.96A5.63 5.63 0 0 0 37 30.18c-.25.12-.5.24-.77.34a4.8 4.8 0 0 1-3.22 8.28H32v-.63h1a4.18 4.18 0 0 0 2.54-7.43c-.33.1-.67.18-1.03.24a3.36 3.36 0 0 1 1.93 3.05 3.33 3.33 0 0 1-3.3 3.35H32v-.62h1.13c1.49 0 2.7-1.22 2.7-2.73s-1.21-2.73-2.7-2.73H32V30.47h1.1c.59 0 1.17-.07 1.73-.19a4.04 4.04 0 0 0-1.82-.43H32v-.66h.93c.76 0 1.5-.13 2.18-.35a5.45 5.45 0 0 0-2.15-.44H32V27.71h.96c.8 0 1.57-.17 2.26-.48a6.9 6.9 0 0 0-1.71-.37 4.7 4.7 0 0 1-.5.03H32v-.67h.93c.2 0 .38 0 .56.02a4.04 4.04 0 0 0 1.46-.47 8.2 8.2 0 0 0-1.86-.21H32v-.71h1.13c1.49 0 2.7-1.22 2.7-2.73 0-1.5-1.21-2.73-2.7-2.73H32v-.63h1.13c1.83 0 3.31 1.5 3.31 3.36 0 1.28-.7 2.4-1.75 2.96.32.06.63.13.94.22A4.18 4.18 0 0 0 33 17.94H32v-.62h1a4.8 4.8 0 0 1 3.29 8.22c.27.1.52.21.77.33a5.63 5.63 0 0 0-4.1-9.38H32v-.62h.96a6.26 6.26 0 0 1 4.65 10.31c.24.14.48.3.7.46a7.16 7.16 0 0 0-5.38-11.7H32v-.63h.93a7.7 7.7 0 0 1 7.64 7.75c0 1.89-.66 3.62-1.77 4.97.2.17.39.34.57.53a8.45 8.45 0 0 0 2.01-5.5c0-4.65-3.7-8.41-8.29-8.41H32v-.62h1.1ZM38.95 28c-.18.18-.37.36-.57.52a7.71 7.71 0 0 0-.55-.52c.19-.16.38-.34.55-.52.2.17.39.34.57.52Zm-1.06-.9a7.1 7.1 0 0 1-.57.51c-.24-.17-.49-.33-.75-.47.21-.16.41-.32.6-.5.25.14.49.3.72.46Zm-1.3-.77c-.2.18-.43.35-.66.5a7.5 7.5 0 0 0-1.01-.36c.3-.13.57-.3.83-.48.29.1.57.21.84.34Zm-.62 1.2a7 7 0 0 1 .83.47c-.3.2-.6.37-.91.52-.35-.2-.72-.35-1.1-.47.41-.13.81-.3 1.18-.52Zm.53 1.37c.29-.15.56-.32.82-.5.2.15.4.33.57.5-.25.19-.5.35-.78.5-.19-.18-.4-.34-.6-.5Zm.02.8c-.28.14-.56.25-.86.35a4.69 4.69 0 0 0-.87-.48c.37-.1.72-.21 1.06-.35.24.14.46.3.67.49ZM25 13v30h.62V13H25Zm1.34 30V13h.63v30h-.63Zm1.35-30v30h.62V13h-.62Zm1.34 30V13h.63v30h-.63Zm1.35-30v30H31V13h-.62Z" fill="#fff"/></svg>