<!-- by TradingView --><svg width="56" height="56" viewBox="0 0 56 56" xmlns="http://www.w3.org/2000/svg"><path fill="#F0F3FA" d="M0 0h56v56H0z"/><path d="M27.5 19 33 33H22l5.5-14Z" fill="#4B9D85"/><ellipse cx="27.5" cy="35" rx="5.5" ry="1" fill="url(#a)"/><path d="M5.5 23H4v7.2C4 31.75 5.3 33 6.92 33H9v-1.5H7.17c-.92 0-1.67-.72-1.67-1.6V23ZM14 23c.34 0 .68.03 1 .1v1.48a3.56 3.56 0 0 0-4.48 2.66H15v1.44h-4.5a3.56 3.56 0 0 0 4.5 2.74v1.48A5.02 5.02 0 0 1 9 28a5 5 0 0 1 5-5Z" fill="#201E1F"/><path fill-rule="evenodd" d="M47 33a5 5 0 1 0 0-10 5 5 0 0 0 0 10Zm0-1.54a3.46 3.46 0 1 0 0-6.92 3.46 3.46 0 0 0 0 6.92Z" fill="#201E1F"/><path d="M16 23h2.84A3.08 3.08 0 0 1 22 26a3.07 3.07 0 0 1-2.9 2.99L21.68 33h-2.03l-3.53-5.5H18.72c.96 0 1.74-.59 1.74-1.5s-.78-1.5-1.74-1.5H16V23ZM36 23h-3v7h1.5v-5.5H36a3.5 3.5 0 1 1 0 7h-1V33h1a5 5 0 0 0 0-10Z" fill="#201E1F"/><defs><linearGradient id="a" x1="22" y1="35" x2="33" y2="35" gradientUnits="userSpaceOnUse"><stop stop-color="#1D4237"/><stop offset="1" stop-color="#60A895"/></linearGradient></defs></svg>