<!-- by TradingView --><svg width="56" height="56" viewBox="0 0 56 56" xmlns="http://www.w3.org/2000/svg"><path fill="#F0F3FA" d="M0 0h56v56H0z"/><path d="M42 24.76c0-.9-.4-1.46-1-1.76h4c-.62.3-1 .87-1 1.76v6.83h3.48c1.85 0 3.52-.5 4.52-1.17-.31.81-.4 1.6-.73 2.58H41c.62-.32 1-.86 1-1.76v-6.48ZM32.48 23.63l-.68 1.91a7.58 7.58 0 0 0-3.62-.9c-1.57 0-3.18.32-3.18 1.06s1.14.95 3.18 1.22c2.05.26 4.82.95 4.82 3.17 0 2.22-3.09 2.91-5.13 2.91-1.63 0-3.5-.28-4.24-.42L23 30.4c1.62.63 3.61 1 4.87 1 1.26 0 3.13-.42 3.13-1.32 0-.9-1.56-1.27-3.13-1.43-1.57-.16-4.87-.9-4.87-2.75S25.57 23 28.18 23c2.1 0 3.74.42 4.3.63ZM9 31.2v.35A1.8 1.8 0 0 1 7.95 33h4.08A1.8 1.8 0 0 1 11 31.2v-6.77h.94c1.72 0 2.98.43 4.06.99a13.2 13.2 0 0 1-.5-2.42h-11a13.2 13.2 0 0 1-.5 2.42 8.48 8.48 0 0 1 4.06-1H9v6.78Z" fill="#344763"/></svg>