<!-- by TradingView --><svg width="56" height="56" viewBox="0 0 56 56" xmlns="http://www.w3.org/2000/svg"><path fill="#F0F3FA" d="M0 0h56v56H0z"/><path d="M20.24 25.22c.2.1.3.04.32-.17.02-.33.14-.63.35-.9.17-.2.29-.17.34.08a4.3 4.3 0 0 0 1.97 2.63 85.26 85.26 0 0 1 3.82 2.63c.9.67 1.19 1.49.88 2.45a.49.49 0 0 0-.03.1c-.3.98-.9 1.21-1.84.69L13.33 25.6a.59.59 0 0 1-.33-.55v-5.41c0-.3.13-.53.4-.68l14.37-7.9a.42.42 0 0 1 .43 0l14.58 8.02c.14.08.22.2.22.36v4.93c0 .12-.06.16-.17.1l-14.53-8a.44.44 0 0 0-.4-.02c-1.19.54-3.17 1.36-5.95 2.45a8.81 8.81 0 0 0-3.19 1.96c-1 1.05-1.06 2.08-.16 3.1.47.52 1.02.94 1.64 1.26Z" fill="#EE4123"/><path d="M36.74 40.16 42.76 37a.41.41 0 0 0 .24-.39v-5.83c0-.1-.04-.18-.13-.22l-12.9-7.28c-.95-.53-1.55-.28-1.8.75l-.04.13c-.33.99 0 1.81.98 2.47l4.1 2.76a3.84 3.84 0 0 1 1.54 2.23c.1.47.27.49.48.06.1-.18.16-.41.2-.7.03-.26.18-.33.43-.2a4.22 4.22 0 0 1 1.97 1.8c.45.87.32 1.67-.39 2.4a7.53 7.53 0 0 1-2.52 1.84c-1.74.68-3.99 1.61-6.74 2.78a.47.47 0 0 1-.43-.01l-2.25-1.23-12.12-6.66c-.25-.14-.38-.07-.38.2v4.6c0 .2.09.35.27.45l14.5 8a.4.4 0 0 0 .42 0l8.55-4.78Z" fill="#231F20"/></svg>