<!-- by TradingView --><svg width="56" height="56" viewBox="0 0 56 56" xmlns="http://www.w3.org/2000/svg"><path fill="#F0F3FA" d="M0 0h56v56H0z"/><path fill-rule="evenodd" d="M4 24v8h1.3v-3.05L8.54 32h1.48l-4.06-3.98L10.02 24H8.48L5.3 27.05V24H4Zm6.7 8v-8H12v8h-1.3Zm2.3-8v8h1.3v-5.82L17.7 32H19v-8h-1.3v5.69l-3.4-5.66V24H13Zm10.5 8a4 4 0 0 0 3.99-4.3h-4.5V29h2.92a2.7 2.7 0 1 1 0-2h1.46a4 4 0 1 0-3.87 5ZM43 28a4 4 0 1 1-8 0 4 4 0 0 1 8 0Zm-1.13 0a2.87 2.87 0 1 1-5.74 0 2.87 2.87 0 0 1 5.74 0ZM28 24c.06.12 0 8 0 8h2.73a3.83 3.83 0 0 0 3.77-3.89v-.22A3.83 3.83 0 0 0 30.73 24H28Zm1.3 1.3c.04.08 0 5.4 0 5.4h1.44c1.25 0 2.46-1.17 2.46-2.62v-.16c0-1.45-1.21-2.62-2.46-2.62H29.3ZM45.84 24H44v8h1.3v-5.64L47.5 32h1l2.2-5.64V32H52v-8h-1.84L48 29.94 45.84 24Z"/></svg>