<!-- by TradingView --><svg width="56" height="56" viewBox="0 0 56 56" xmlns="http://www.w3.org/2000/svg"><path fill="#F0F3FA" d="M0 0h56v56H0z"/><path fill-rule="evenodd" d="m5 23 2.51 8h1l1.99-6.23L12.48 31h1L16 23h-1.36l-1.76 5.6L11.1 23H9.9l-1.78 5.6L6.36 23H5Zm13 0h-1v1h1v-1Zm0 2h-1v6h1v-6Zm16-2h1v7h4v1h-5v-8Zm-14 2h-1v6h1v-3.6.15c.1-.55.5-1.65 1.48-1.65s1.5.64 1.52.97V31h1v-4.27c0-.88-.7-1.73-2.24-1.73-1.08 0-1.59.63-1.76 1.07V25Zm7.25 6c.46 0 .9-.19 1.25-.5v.2c0 .37 0 1.3-.56 1.3h-1.42c-.32 0-.39-.55-.43-1h-1.04c0 .63.31 2 1.52 2h1.22c.63.04 1.71-.36 1.71-2.3V25h-1v.5c-.36-.31-.79-.5-1.25-.5-1.24 0-2.25 1.34-2.25 3s1 3 2.25 3Zm0-1c.69 0 1.25-.9 1.25-2s-.56-2-1.25-2-1.25.9-1.25 2 .56 2 1.25 2Zm17.21-1.5c.03-.16.04-.33.04-.5 0-1.66-1.23-3-2.75-3S39 26.34 39 28s1.23 3 2.75 3c1.02 0 1.9-.6 2.38-1.5h-1.22c-.31.31-.72.5-1.16.5-.82 0-1.5-.64-1.7-1.5h4.41ZM41.75 26c-.82 0-1.5.64-1.7 1.5h3.4c-.2-.86-.88-1.5-1.7-1.5ZM51 28c0 .17-.01.34-.04.5H46.56c.19.86.87 1.5 1.69 1.5.44 0 .85-.19 1.16-.5h1.22c-.47.9-1.36 1.5-2.38 1.5-1.52 0-2.75-1.34-2.75-3s1.23-3 2.75-3S51 26.34 51 28Zm-4.44-.5c.19-.86.87-1.5 1.69-1.5s1.5.64 1.7 1.5h-3.4Z" fill="#363535"/></svg>