<!-- by TradingView --><svg width="56" height="56" viewBox="0 0 56 56" xmlns="http://www.w3.org/2000/svg"><path fill="url(#a)" d="M0 0h56v56H0z"/><path fill-rule="evenodd" d="M11 18.73V20c1.82-1.4 7.04-4.19 13.32-4.19s10.8 3.03 12.29 4.54c4.92-.5 8.31 1.56 9.39 2.65-2.09-4.58-6.96-4.96-9.14-4.57-1.7-1.81-6.58-5.43-12.54-5.43-5.96 0-11.36 3.82-13.32 5.73ZM12.5 36V25.56c0-.86.71-1.56 1.6-1.56H17v10.44c0 .86-.71 1.56-1.6 1.56h-2.9Zm1.5-1v-9.38c0-.34.28-.62.62-.62h.88v9.38c0 .34-.28.62-.62.62H14Zm16-9.44V36h2.9c.89 0 1.6-.7 1.6-1.56V24h-2.9c-.89 0-1.6.7-1.6 1.56Zm1.5.06V35h.88c.34 0 .62-.28.62-.62V25h-.88a.62.62 0 0 0-.62.62ZM38 24h3v-1h1.5v1H44v1h-1.5v1H41v-1h-3v1h-1.5v-1H35v-1h1.5v-1H38v1Zm-2 9h7v3.36c0 1.12-.72 1.64-2.05 1.64H36v-5Zm1 1h5v2.19c0 .62-.05.81-1.1.81H37v-3ZM24 23h-1.5v1H18v1h10v-1h-4v-1Zm-5.5 4v11H20V28h6v8.17c0 .23-.03.41-.25.41H24.6V38h1.38c.85 0 1.53-.73 1.53-1.63V27h-1.63c.16-.42.22-.8.23-1h-1.54c-.04.38-.11.71-.2 1h-2.97a5.55 5.55 0 0 1-.2-1h-1.54c.01.2.08.58.23 1H18.5Zm3.75 2h1.27v1h1.98v1h-1.98v1H25v2.37c0 .9-.62 1.63-1.38 1.63H21v-4h1.25v-1H20.5v-1h1.75v-1ZM22 33h2v1.26c0 .4-.34.74-.76.74H22v-2Zm13-2.92v1.12c.5-.17 1.23-.53 2-1.1v.9h5v-.9c.77.57 1.5.93 2 1.1v-1.12c-2.4-1.47-3.4-3.33-3.6-4.08H38.6c-.2.75-1.2 2.6-3.61 4.08Zm4.5-2.77A8.82 8.82 0 0 0 41.87 30h-4.74a8.82 8.82 0 0 0 2.37-2.7Z" fill="#fff"/><defs><linearGradient id="a" x1="0" y1="28" x2="56" y2="28" gradientUnits="userSpaceOnUse"><stop stop-color="#FE5501"/><stop offset="1" stop-color="#FE8800"/></linearGradient></defs></svg>