<!-- by TradingView --><svg width="56" height="56" viewBox="0 0 56 56" xmlns="http://www.w3.org/2000/svg"><path fill="#F0F3FA" d="M0 0h56v56H0z"/><path d="m39.3 15.46-3.66 2a3.16 3.16 0 0 0-1.4-1.39 5.7 5.7 0 0 0-3.23-.45c-3.13.41-6.1 1.8-8.83 3.57a.1.1 0 0 1-.07.01h-.01a34.57 34.57 0 0 1 6.54-3.7 16.4 16.4 0 0 1 6.4-1.5c1.62 0 3.04.27 4.26 1.46Z" fill="#00ACE4"/><path d="M40.4 17.84a.15.15 0 0 1-.1-.06 4.15 4.15 0 0 0-1-2.27 6.4 6.4 0 0 1 2.39-.48c1.1 0 1.95.39 2.54 1.18.47.63.72 1.5.76 2.6.04 1.1-.07 2.16-.34 3.18 0 .02-.02.02-.04.02h-.02c-.02 0-.02-.01-.02-.03.32-1.19.25-2.28-.21-3.28a2 2 0 0 0-1.7-1.2 4.44 4.44 0 0 0-2.26.34Z" fill="#93C500"/><path d="M39.3 15.5a4.15 4.15 0 0 1 1 2.28l.03.03.07.03-.02.1c-.2.02-.37.06-.53.14-1.5.74-2.87 1.69-4.11 2.85a5.7 5.7 0 0 0 .07-3.1.28.28 0 0 0-.13-.18l-.11-.06c.04-.02.06-.06.07-.12l3.66-2v.04Z" fill="#00A611"/><path d="m35.57 17.59.11.06c.07.04.1.1.13.19a5.7 5.7 0 0 1-.07 3.1 32.69 32.69 0 0 0-7.94 11.01.81.81 0 0 1-.25.36 44.95 44.95 0 0 1-3.81 2.9c-.06.05-.13.04-.21 0 .38-1.67.95-3.27 1.7-4.8a36.15 36.15 0 0 1 10.34-12.82Z" fill="#93C500"/><path d="M40.38 17.94c.04.95-.04 1.84-.23 2.68-.76 3.15-2.64 6.08-4.62 8.5a41.5 41.5 0 0 1-8.81 8.04c-.06-.01-.09-.04-.09-.07A12.2 12.2 0 0 1 27.88 32c3.04-2.7 5.74-5.83 7.46-9.72.14-.33.26-.78.35-1.33l.05-.03a16.86 16.86 0 0 1 4.11-2.85c.16-.08.33-.12.53-.14Z" fill="#00ACE4"/><path d="m27.8 31.94.08.07-.17.33a12.2 12.2 0 0 0-1.08 4.75.35.35 0 0 0-.06.08.24.24 0 0 1-.1.11l-3.14 1.88c-.17-1.22-.14-2.48.08-3.79l.12-.16c.08.04.15.05.2 0 1.32-.89 2.6-1.85 3.82-2.9.11-.1.2-.22.25-.37Z" fill="#00A611"/><path d="M23.32 39.23c.03-.03.03-.05.01-.07l3.15-1.88a.24.24 0 0 0 .1-.1.35.35 0 0 1 .05-.1c0 .04.03.07.09.08-.07 1.8.99 2.83 2.6 2.7a6.9 6.9 0 0 0 3.16-1.08 24.22 24.22 0 0 0 6.31-5.68h.05a27.68 27.68 0 0 1-8.47 7.7 8.17 8.17 0 0 1-3.63 1.12 3.12 3.12 0 0 1-2.13-.55 3.52 3.52 0 0 1-1.29-2.14Z" fill="#93C500"/><path d="m9.7 33.76-.02.1h-.01c0-.17 0-.23.03-.18v.08Z" fill="#00A611"/><path d="M23.4 35.37a12.65 12.65 0 0 0-.08 3.86c-1.77.95-3.59 1.7-5.47 2.24-2 .59-3.87.69-5.58.3-1.84-.43-2.93-1.69-3.27-3.78v-1.46l.6-2.49c.01-.06.02-.06.02 0-.02.8-.15 1.89.1 2.62.97 2.93 4.7 2.56 6.92 1.9 2.36-.69 4.61-1.75 6.77-3.19Z" fill="#00ACE4"/></svg>