<!-- by TradingView --><svg width="56" height="56" viewBox="0 0 56 56" xmlns="http://www.w3.org/2000/svg"><path fill="#F0F3FA" d="M0 0h56v56H0z"/><path d="M36.8 34.5c.43-.75.23-.97-.6-.66a14.56 14.56 0 0 0-4.16 2.39l-.68.13a.26.26 0 0 1-.32-.3c.01-.05.04-.1.09-.14 1.94-1.87 4.02-3.63 6.65-3.34.2.03.38-.04.52-.2.28-.36.6-.57.95-.62.35-.05.47.1.38.43l-.25.86a.6.6 0 0 0 .09.51c.96 1.36 1.42 2.27 1.38 2.74-.36 4.4-2.75 6.91-7.18 7.5-4.18.56-7.85-.06-11.02-1.85a.71.71 0 0 0-.64-.05c-1.6.65-6.61 1.07-8.24-.36-1.11-.97-1.37-1.92-.77-2.86 1.62-2.52 7.23.47 8.84 1.62.21.15.4.12.56-.07l1.86-2.26a.27.27 0 0 0 .05-.27.28.28 0 0 0-.21-.18c-5.03-.94-10.75-4.34-11.8-9.73-.71-3.74-.3-7.71 2.56-10.6 5.64-5.68 14.68-6.05 22.18-4.18.54.14 1.27.18 2.19.13a.28.28 0 0 1 .29.36l-1.27 4.45c-.06.22-.2.27-.39.16l-.24-.15a.49.49 0 0 1-.24-.48c.15-1.13-.07-1.85-.68-2.18-5.42-2.95-10.62-3.03-15.6-.23-2.83 1.58-4.6 5.03-4.9 8.33-.57 6.27 2.48 10.6 9.14 13a.24.24 0 0 0 .28-.08l3.08-4.46a.1.1 0 0 0 .01-.1.1.1 0 0 0-.08-.05 9.85 9.85 0 0 1-6.86-3.5 5.78 5.78 0 0 1 .37-8c1.27-1.28 3.06-1.96 5.35-2.04 3.42-.13 6.3.88 8.64 3.03.23.21.2.37-.1.48l-.23.08c-.37.13-.72.08-1.03-.17-3.92-3-11.4-3.7-12.54 2.8-.66 3.78 3.85 5.96 7.05 6.1.1 0 .2-.03.3-.08.1-.05.17-.12.23-.2C32 26.93 39.97 17.45 44.7 20.13c1.93 1.1 1.5 4.06.18 5.56-3 3.4-8.24 5.39-12.52 6.1a.78.78 0 0 0-.5.28l-3.79 4.6a.1.1 0 0 0-.01.1.1.1 0 0 0 .07.07c2.65.42 5.18-.07 7.6-1.48.59-.35.95-.64 1.09-.88Zm-3.44-4.13c3.15-.5 12-4.24 11.58-8a1.51 1.51 0 0 0-1.35-1.34c-3.73-.37-8.43 6.42-10.4 9.07a.17.17 0 0 0 .17.27Zm4.22 6.46a38.62 38.62 0 0 1-10.28 1.24c-.2 0-.37.05-.52.18l-3.03 2.46a.23.23 0 0 0 .04.38c4.3 2.4 8.52 2.34 12.64-.17 2.05-1.24 3.11-2.8 3.2-4.65 0-.22-.08-.54-.25-.9-.07-.15-.19-.3-.35-.44-.26-.22-.41-.17-.45.18-.08.52-.24.98-.5 1.37a.78.78 0 0 1-.5.35ZM13.86 39.7c-.14.86.83 1.35 2.94 1.47 2.39.14 3.61.03 3.67-.33.07-.35-1.05-.87-3.35-1.54-2.02-.6-3.1-.46-3.26.4Z" fill="#BE8F03"/></svg>