<!-- by TradingView --><svg width="56" height="56" viewBox="0 0 56 56" xmlns="http://www.w3.org/2000/svg"><path fill="#F0F3FA" d="M0 0h56v56H0z"/><path fill-rule="evenodd" d="M43.2 33a16 16 0 0 1-31.08-7H9c.22-1.13.6-2.5.77-3h3.03a16 16 0 0 1 31.08 7H47a8.35 8.35 0 0 1-.82 3H43.2ZM30 40.85A13 13 0 0 1 15.15 26H23v2.9l-3 1.33V33h3v3.28c.91.7 2.38 1.1 3 1.2V33h4v7.85Zm3-.85a13.05 13.05 0 0 0 7-7h-7v7Zm0-10h7.85A13 13 0 0 0 26 15.15V23h4v-4.61c1.47.15 2.61.91 3 1.27V23h3v2.89l-3 1.28V30Zm-3 0h-3.6l3.6-1.54V30Zm-4-2.44V26h3.53L26 27.56ZM23 23v-7a13.05 13.05 0 0 0-7 7h7Z" fill="#C17559"/></svg>