<!-- by TradingView --><svg width="56" height="56" viewBox="0 0 56 56" xmlns="http://www.w3.org/2000/svg"><path fill="#F0F3FA" d="M0 0h56v56H0z"/><path d="M34.8 20.65c-.54-.02-.92.28-1.3.6a.92.92 0 0 1-.43.23c-.75.1-1.27-.45-1-1.12.12-.3.62-.65.92-.84a3.27 3.27 0 0 1 3.46-.05c.5.28 1.59 1.14 1.55 1.76-.04.62-.6.88-1.2.72-.13-.03-.3-.17-.53-.44-.36-.42-.87-.84-1.47-.86ZM26.2 20.65c-.6.02-1.1.44-1.47.86-.23.27-.4.41-.52.44-.61.16-1.17-.1-1.2-.71-.05-.63 1.05-1.49 1.54-1.77a3.27 3.27 0 0 1 3.45.05c.31.18.8.54.93.84.27.67-.25 1.22-1 1.12a.93.93 0 0 1-.43-.24c-.38-.31-.76-.61-1.3-.59Z" fill="#FF1836"/><path fill-rule="evenodd" d="M42.77 29.64h.03c.73.35 1.49.47 2.29.39a4.13 4.13 0 0 0 3.44-2.44c.26-.51.99-2.71-.14-2.73-.33 0-.73.05-1.21.17-1.18.3-2.33.66-3.43 1.11l.02-.69.07-1.58a6.3 6.3 0 0 0-.12-1.62.13.13 0 0 0-.07-.04c-.56-.15-1.28.19-1.73.53a3.75 3.75 0 0 0-1.58 3.08c0 .15-.05.17-.15.06a1.1 1.1 0 0 0-.22-.2 14.05 14.05 0 0 0-4.96-2.07c-3.17-.66-6.3-.7-9.38-.1a15.48 15.48 0 0 0-5.3 2.06c-.17.1-.2.07-.1-.1a.78.78 0 0 0 .08-.26c.3-1.92 0-3.67-1.2-5.12a5.83 5.83 0 0 0-3.65-2.05c-.63-.1-1.28-.06-1.54.59-.09.22-.1.6-.06 1.14l.04.5c.13 1.58.27 3.18.6 4.75a70.54 70.54 0 0 0-5.04-1.92c-.76-.27-2.08-.66-2.34.55-.1.48-.14.94-.1 1.4a7.1 7.1 0 0 0 3.45 5.6 6.65 6.65 0 0 0 6.4.15c.04-.03.07 0 .07.05 0 1.16.27 2.18.8 3.06 1.63 2.73 4.95 4.07 7.88 4.64 3.3.63 6.56.6 9.76-.1 1.58-.36 3.03-1 4.37-1.92a6.97 6.97 0 0 0 3.07-4.85 7.05 7.05 0 0 0-.09-2c0-.01 0-.02.02-.03h.02Zm-10.2-.52c-.74-.08-1.6-.12-2.57-.12-.97 0-1.83.04-2.58.12-.24.03-.67.1-1.28.24-.5.1-.94.26-1.36.47-.94.49-.89 1.38-.58 2.25a5.54 5.54 0 0 0 4.78 3.87c.22.03.56.05 1.02.05.47 0 .8-.02 1.03-.05 2.4-.35 4-1.65 4.78-3.88.3-.87.35-1.76-.6-2.24a5.3 5.3 0 0 0-1.35-.48c-.61-.13-1.04-.2-1.28-.23Z" fill="#FF1836"/></svg>