<!-- by TradingView --><svg width="56" height="56" viewBox="0 0 56 56" xmlns="http://www.w3.org/2000/svg"><path fill="#F0F3FA" d="M0 0h56v56H0z"/><path d="M21.5 12.3c2.06-.86 4.27-1.3 6.5-1.3v5.68c-4.93 0-9.13 3.17-10.69 7.58h-5.88A17.08 17.08 0 0 1 21.49 12.3ZM11.32 24.7a17.1 17.1 0 0 0 10.16 19.1c1.48.61 3.04 1.01 4.62 1.19v-5.74a11.36 11.36 0 0 1-9.41-12.09 17.72 17.72 0 0 0-5.37-2.46ZM28 35.63V20.47a7.55 7.55 0 0 0-6.78 4.23c4.76 1.67 6.51 7.69 6.78 10.93Z" fill="#D18A00"/><path d="M34.5 12.3A16.95 16.95 0 0 0 28 11v5.68c6.26 0 11.33 5.1 11.33 11.37 0 5.64-4.08 10.31-9.44 11.21V45A16.95 16.95 0 0 0 43.7 34.58a17.1 17.1 0 0 0-9.2-22.28ZM28 35.63a7.57 7.57 0 0 0 4.01-14c.4.62.71 1.5.71 2.63 0 1.9-.84 2.95-1.68 4-.42.53-.84 1.06-1.15 1.69-.34.69-.66 1.82-.98 2.93-.3 1.08-.6 2.13-.91 2.75Z" fill="#C33A32"/></svg>