<!-- by TradingView --><svg width="56" height="56" viewBox="0 0 56 56" xmlns="http://www.w3.org/2000/svg"><path fill="#F0F3FA" d="M0 0h56v56H0z"/><path d="M12 16h32v24H12V16Z" fill="#CEE3DE"/><path fill="#7EB9B2" d="M12 26h5v14h-5zM23 26h5v14h-5z"/><path d="M18.37 17A6.37 6.37 0 0 0 12 23.37V26h5v-2a3 3 0 0 1 6 0v2h5v-2.63A6.37 6.37 0 0 0 21.63 17h-3.26ZM34.37 17A6.37 6.37 0 0 0 28 23.37V26h5v-2a3 3 0 1 1 6 0v2h5v-2.63A6.37 6.37 0 0 0 37.63 17h-3.26Z" fill="#FFFDFC"/><path d="M34.59 40A6.56 6.56 0 0 1 28 33.47V26h4.97v6.47c0 1.65 1.36 3 3.03 3a3.01 3.01 0 0 0 3.03-3V30H44v3.47c0 3.6-2.95 6.53-6.59 6.53H34.6Z" fill="#7EB9B2"/><path fill-rule="evenodd" d="M43.48 16.52H12.52v22.96h30.96V16.52ZM12 16v24h32V16H12Z" fill="#4F9F97"/></svg>