<!-- by TradingView --><svg width="56" height="56" viewBox="0 0 56 56" xmlns="http://www.w3.org/2000/svg"><path fill="#EE2722" d="M0 0h56v56H0z"/><path fill-rule="evenodd" d="M14 20.18c-2.46 1.9-4 4.86-4 8.32s1.54 6.43 4 8.32V20.18Zm.24-.18h12.9c-1.9-1.55-3.88-2-6.52-2-2.43 0-4.62.73-6.38 2Zm0 17c1.76 1.27 3.95 2 6.38 2 2.64 0 4.63-.46 6.52-2h-12.9ZM16 35h9.4l-6.19-6.5 6.2-6.5H16v13Zm12.77.52-6.65-7.02 7.9-8.34a12.64 12.64 0 0 0-9.4-4.16C13.65 16 8 21.6 8 28.5S13.65 41 20.62 41c3.66 0 6.95-1.54 9.26-4h6.92l1.75-3.49L40.3 37H49l-7.74-17h-5.41l-7.08 15.52ZM45.8 35l-5.98-13h-2.54l-5.95 13h4.03l3.2-5.86L41.77 35h4.02Z" fill="#fff"/></svg>