<!-- by TradingView --><svg width="56" height="56" viewBox="0 0 56 56" xmlns="http://www.w3.org/2000/svg"><path fill="#AC3129" d="M0 0h56v56H0z"/><path d="M42 27.4c0 1.46 0 1.6-2.1 1.6H38v-3h1.33c2.21 0 2.67 0 2.67 1.4Zm2-.34c-.09-1.7-1.28-3.05-3.83-3.05L36.54 24c-.3 0-.54.23-.54.52v7.96c0 .29.24.52.54.52h.92c.3 0 .54-.23.54-.52v-1.77h2.16c2.56 0 3.95-1.23 3.83-3.65ZM21.87 28.78c-.03-.26-.36-1.24-1.7-1.28-.86-.03-3.67 0-4 0-.18-.16-.16-.19-.17-.7-.01-.45-.08-.68.28-.8h5.25c.25 0 .47-.17.47-.53v-1.01a.47.47 0 0 0-.48-.46h-3.86c-2.4 0-3.58.24-3.65 2.47-.06 2.64.42 3.07 3.58 3.03h1.51c.52-.03.89-.01.9.5 0 .43.04.71-.11.86-.2.18-.75.14-1.84.14l-3.58-.01c-.27 0-.47.34-.47.61v.93c0 .27.22.47.47.47l.08-.01h3.75c1.22-.02 2.56-.06 3.18-.51.74-.54.5-2.94.4-3.7ZM11 26v3H7.87l1.31-2.63a.76.76 0 0 1 .53-.37H11Zm2 6.43v-7.85c0-.16-.05-.3-.17-.4a.52.52 0 0 0-.4-.18H9.3c-.9-.03-1.25.52-1.44.87-.23.3-3.76 7.26-3.86 7.81.03.23.18.3.37.32l1.34-.01c.23-.03.26-.14.35-.35l.96-1.99h3.97v.9l.01.99c.06.26.3.46.56.46h.85c.3 0 .59-.25.59-.57ZM52 25.5v-1c0-.28-.22-.5-.48-.5h-7.04a.49.49 0 0 0-.48.5v1c0 .28.22.5.48.5H46v6.5c0 .28.22.5.48.5h1.04c.26 0 .48-.22.48-.5V26h3.52c.26 0 .48-.22.48-.5ZM35 32.5v-5.37A3.1 3.1 0 0 0 31.94 24h-2.37c-.54-.01-.87.17-1.1.4a3 3 0 0 0-1.5-.4h-3.51a.5.5 0 0 0-.46.5v8c0 .27.22.49.48.49h1.04c.26 0 .48-.22.48-.5V26h2.04c.67 0 .96.44.96 1.13V32.51c0 .27.22.49.48.49h1.03c.27 0 .49-.22.49-.5v-5.37c0-.42-.08-.77-.23-1.13H32c.68 0 1 .44 1 1.13V32.51c0 .27.22.49.48.49h1c.3 0 .52-.22.52-.5Z" fill="#F0F3FA"/></svg>