<!-- by TradingView --><svg width="56" height="56" viewBox="0 0 56 56" xmlns="http://www.w3.org/2000/svg"><path fill="#F0F3FA" d="M0 0h56v56H0z"/><path d="M24 24.92c0 1.86-1.4 3.44-2 4.08 3.9 0 4.88-5 8.68-5 3.03 0 4.7 2.69 4.7 5.61 0 7.94-6.38 12.17-11.72 12.17-4.27 0-8.22-3.14-9.66-4.63C15.16 38.5 18.35 44 25.04 44c11.7 0 13.55-12.16 13.55-14.02 0-1.49-.5-3.32-.67-4.05.56.89 1.6 3.32 1.6 5.9C39.52 40.22 32.54 44.1 29 45c11.15-.87 13-10.27 13-14.06 0-3.04-1.18-6.63-1.85-8.05 1.1.96 3.3 3.71 3.3 7.09 0 3.37-.87 5.93-1.31 6.78.95-.83 2.86-3.6 2.86-8.1C45 23.03 41.1 16 33.52 16 25.95 16 24 22.58 24 24.92Z" fill="#F54343"/><path d="M32 31.08c0-1.86 1.4-3.44 2-4.08-3.9 0-4.88 5-8.68 5-3.03 0-4.7-2.69-4.7-5.61 0-7.94 6.38-12.17 11.72-12.17 4.27 0 8.22 3.14 9.66 4.63C40.84 17.5 37.65 12 30.96 12c-11.7 0-13.55 12.16-13.55 14.02 0 1.49.5 3.32.67 4.05-.56-.89-1.6-3.32-1.6-5.9C16.48 15.78 23.46 11.9 27 11c-11.15.87-13 10.27-13 14.06 0 3.04 1.18 6.63 1.85 8.05-1.1-.96-3.3-3.71-3.3-7.09s.87-5.93 1.31-6.78c-.95.83-2.86 3.6-2.86 8.1C11 32.97 14.9 40 22.48 40c7.57 0 9.52-6.58 9.52-8.92Z" fill="#F54343"/><path d="M28.24 26H31l-3.24 4H25l3.24-4Z" fill="#F54343"/></svg>