<!-- by TradingView --><svg width="56" height="56" viewBox="0 0 56 56" xmlns="http://www.w3.org/2000/svg"><path fill="#F0F3FA" d="M0 0h56v56H0z"/><path fill-rule="evenodd" d="M28 43a15 15 0 1 0 0-29.99 15 15 0 0 0 0 30Zm0-3.5a11.49 11.49 0 1 0 0-22.98 11.49 11.49 0 0 0 0 22.98Z" fill="url(#a)"/><path d="M38.34 21.05c-4.3-7.82-12.3-8.13-15.91-7.25l-.18-.36a15.62 15.62 0 0 0-.36 28.58c-4.29-2.77-7.38-6.5-7.38-11.35 0-11.85 8.87-14.63 13.3-14.67h.56c4.15 0 7.8 1.86 9.97 5.05Z" fill="url(#b)"/><path d="M34.34 37.6c7.82-4.3 8.13-12.3 7.25-15.9l.36-.18a15.62 15.62 0 0 0-28.58-.37c2.77-4.28 6.5-7.37 11.35-7.37 8.2 0 14.78 5.45 14.78 13.86 0 4.14-1.97 7.8-5.16 9.97Z" fill="url(#c)"/><path d="M36.5 40.5c-.97.35-3.94 1.08-6.1 1.08-2.7 0-7.4-1.86-7.4-10.4 0-5.52 1.83-8.73 3-9.68.44.64.97 2.55 1 5.5h-2a1 1 0 1 0 0 2h1.95a40.46 40.46 0 0 1-.43 4.04c-.13.82.78 1.6 1.58 1.6.6 0 1.1-.43 1.21-1.02.3-1.67.69-4.29.69-6.33 0-3.17-.4-7.95-3.4-9.29-1.3 0-6.6 3.84-6.6 13.19s5.4 11.48 10.04 11.79c3.73.24 6.03-1.57 6.46-2.48Z" fill="url(#d)"/><path d="M33.27 29.98c-.05.49.3.94.79 1.01.5.07.95-.27 1-.76l.06-1.08h.77c.61 0 1.11-.49 1.11-1.1 0-.6-.5-1.09-1.1-1.09h-.84c-.04-.5-.1-.93-.17-1.3-.09-.49-.59-.76-1.06-.63a1 1 0 0 0-.69 1.12c.04.24.08.51.1.81h-1.08c-.64 0-1.16.52-1.16 1.15 0 .58.47 1.04 1.05 1.04h1.27l-.05.83Z" fill="#E9331D"/><path fill-rule="evenodd" d="M28 45a17 17 0 1 0 0-34 17 17 0 0 0 0 34Zm0-2a15 15 0 1 0 0-30 15 15 0 0 0 0 30Z" fill="#E62125"/><defs><linearGradient id="a" x1="28" y1="13.01" x2="28" y2="43.01" gradientUnits="userSpaceOnUse"><stop stop-color="#DE322B"/><stop offset="1" stop-color="#FBB016"/></linearGradient><linearGradient id="b" x1="37.43" y1="18.21" x2="13.93" y2="33.86" gradientUnits="userSpaceOnUse"><stop stop-color="#FDB514"/><stop offset="1" stop-color="#E62125"/></linearGradient><linearGradient id="c" x1="24.34" y1="12.89" x2="36.22" y2="36.2" gradientUnits="userSpaceOnUse"><stop stop-color="#F6891E"/><stop offset="1" stop-color="#E64630"/></linearGradient><linearGradient id="d" x1="28.25" y1="18" x2="28.25" y2="43" gradientUnits="userSpaceOnUse"><stop stop-color="#F4831D"/><stop offset="1" stop-color="#E62125"/></linearGradient></defs></svg>