<!-- by TradingView --><svg width="56" height="56" viewBox="0 0 56 56" xmlns="http://www.w3.org/2000/svg"><path fill="#F0F3FA" d="M0 0h56v56H0z"/><path d="M6.5 26.98V24H4v9h2.5v-2.25l1.36-1.23L9.8 33H13l-3.16-5.62L13 24H9.44L6.5 26.98ZM25 24h2.5l4 5.09V24H34v9h-2.5l-4-5.09V33H25v-9Z" fill="#00104B"/><path fill-rule="evenodd" d="M39.47 24H35v9h4.47c2.36 0 3.53-2.01 3.53-4.5S41.83 24 39.47 24Zm-.82 2H37.5v5h1.15c1.36 0 1.85-1.12 1.85-2.5s-.49-2.5-1.85-2.5Z" fill="#00104B"/><path fill="#FF7023" d="M44 24h8v2h-8zM44 27.5h8v2h-8v-2ZM44 31h8v2h-8z"/><circle cx="18.5" cy="28.5" r="5.5" fill="#FF7023"/><circle cx="20" cy="29" r="4" fill="#FFA35E"/><circle cx="20.5" cy="29.5" r="2.5" fill="#FFE1C8"/></svg>