<!-- by TradingView --><svg width="56" height="56" viewBox="0 0 56 56" xmlns="http://www.w3.org/2000/svg"><path fill="#59C5B5" d="M0 0h56v56H0z"/><path d="M17.35 15.68c.19 0 .35-.16.35-.34a.34.34 0 0 0-.35-.34c-.2 0-.35.15-.35.34 0 .18.16.34.35.34ZM16.9 16.54c-.07.13-.15.39-.3.5-.23.16-.56-.07-.6-.33-.04-.37.28-.65.65-.7.39-.05.73.04 1.02.25.9.66 1.18 1.74 1.28 2.84.04.43.06.79.05 1.07-.02.3-.07.53-.15.67-.07.12-.16.18-.26.16a.2.2 0 0 1-.13-.1.25.25 0 0 1-.04-.15c.07-.72.07-1.48 0-2.26-.07-.67-.53-2.1-1.42-2.02-.04 0-.06.02-.1.07ZM15.68 18.46c-.11.15-.03.47-.27.64-.2.15-.4-.17-.4-.37-.04-.7.53-.85.97-.64.16.07.31.22.45.42.42.63.6 1.37.56 2.22 0 .16-.08.25-.23.27l-.06-.03a.26.26 0 0 1-.1-.11.34.34 0 0 1-.03-.15c0-.85-.13-1.53-.4-2.03-.1-.2-.23-.3-.4-.29-.03 0-.06.03-.09.07ZM21.65 15.68a.34.34 0 0 1-.35-.34c0-.19.16-.34.35-.34.2 0 .35.15.35.34 0 .18-.16.34-.35.34ZM19.5 14.68a.34.34 0 0 1-.35-.34c0-.19.16-.34.35-.34.2 0 .35.15.35.34 0 .18-.16.34-.35.34ZM22.1 16.54c.07.13.15.39.3.5.23.16.56-.07.6-.33.04-.37-.28-.65-.65-.7-.39-.05-.73.04-1.02.25-.9.66-1.18 1.74-1.28 2.84-.04.43-.06.79-.05 1.07.02.3.07.53.15.67.07.12.16.18.26.16a.2.2 0 0 0 .13-.1c.03-.04.05-.1.04-.15-.07-.72-.07-1.48 0-2.26.07-.67.53-2.1 1.42-2.02.04 0 .06.02.1.07ZM23.32 18.46c.11.15.03.47.27.64.2.15.4-.17.4-.37.04-.7-.53-.85-.97-.64-.16.07-.31.22-.45.42-.42.63-.6 1.37-.56 2.22 0 .16.08.25.23.27l.06-.03a.26.26 0 0 0 .1-.11l.03-.15c0-.85.13-1.53.4-2.03.1-.2.23-.3.4-.29.03 0 .06.03.09.07ZM31.38 31.91c-.3.27-.68.68-1.16 1.22-.32.36-.76.78-1.33 1.28-.33.29-.83.6-1.26.59-.29 0-.54-.14-.71-.5-.08-.15-.07-.43-.1-.6 0-.13-.06-.14-.14-.04-.41.52-1.18 1.14-1.88 1.14-.8 0-1.07-1.3-1.06-2.05 0-.03-.05-.06-.09-.04-.19.1-.5.47-.96.95-.4.4-1.15 1.14-1.82 1.14-.93 0-1.36-1.2-1.35-1.97 0-.18.01-.36.04-.54.06-.35.17-.87.35-1.57.12-.49.22-1-.02-1.4a.4.4 0 0 0-.36-.19h-.82c-.3-.02-.61-.15-.47-.5.13-.37.96-.2 1.3-.15a1.47 1.47 0 0 0 1.1-.25 3.74 3.74 0 0 0 1.63-2.68c.1-.77-.13-1.4-.71-1.9a.16.16 0 0 0-.22 0 16.47 16.47 0 0 0-2.31 3.35l-1.22 2.17c-.5.88-1.1 1.74-1.8 2.57-.67.82-1.46 1.52-2.37 2.1-.95.6-2.07.97-3.2.96-.61 0-1.14-.15-1.57-.44a1.27 1.27 0 0 1-.6-.93c-.05-.4.06-.73.3-.95a.83.83 0 0 1 .57-.22c.42 0 .81.32.78.84 0 .06-.06.3-.18.7-.02.1 0 .18.08.26.04.06.11.1.2.15 1.1.55 2.6-.23 3.4-1.03a21.44 21.44 0 0 0 3.24-4.67 28.2 28.2 0 0 1 2.1-3.07c.63-.73 1.37-1.4 2.22-2.04a.08.08 0 0 0 .03-.07.08.08 0 0 0-.05-.06 6.75 6.75 0 0 0-1.18-.32 9.51 9.51 0 0 0-3.37.02.08.08 0 0 0-.07.08l.02.04c.35.56.6 1.23.59 1.9-.02 2.68-2.45 5.42-5.25 5.42-1.17 0-2.11-.8-2.1-2.03.02-1.22.78-2.34 1.63-3.16a9.12 9.12 0 0 1 4.14-2.35c.05-.01.06-.03.01-.05a2.76 2.76 0 0 0-.85-.32 4.83 4.83 0 0 0-3.48.64 5.51 5.51 0 0 0-2.72 3.3c-.05.2-.05.41 0 .64.03.08.12.13.2.11l.31-.08c.4-.09.72.36.37.64-.36.3-.83.12-1.03-.24a1.45 1.45 0 0 1-.18-.74c0-.93.68-2.02 1.19-2.6a6.56 6.56 0 0 1 2.08-1.56 5.63 5.63 0 0 1 2.57-.56c.77 0 1.48.2 2.12.59.04.02.08.03.13.02a10.17 10.17 0 0 1 5.34.28c.1.04.2.01.32-.06.28-.18.67-.46.9-.31.04.02.04.05.02.08-.14.17-.34.34-.61.5a.07.07 0 0 0-.04.07c0 .02.02.05.05.06a2.56 2.56 0 0 1 1.53 2.5c-.12 1.22-1.16 2.18-2.25 2.68-.35.16-.72.3-1.13.4a.06.06 0 0 0-.03.1l.31.26a2 2 0 0 1 .77 1.61c0 .2-.02.4-.05.61a15.5 15.5 0 0 1-.4 1.85c-.07.22-.08.46-.03.72 0 .06.04.1.08.14.04.03.09.05.14.05.5 0 .95-.37 1.3-.72.48-.49 1.03-1.09 1.65-1.78.22-.25.6-.58 1.15-1 .65-.51 1.5-.93 2.34-.93.5 0 .82.26.95.76.01.03.03.04.06.05l.06-.03.23-.4a.42.42 0 0 1 .34-.21l1-.07c.13-.01.16.04.08.14-.95 1.4-1.73 2.59-2.31 3.53-.14.23-.22.46-.23.69-.01.08.05.16.14.16.37.05.96-.54 1.2-.77.5-.47.87-.83 1.11-1.1.66-.72 1.35-1.46 2.07-2.2.24-.25.41-.37.75-.4a10.36 10.36 0 0 1 .94-.04.09.09 0 0 1 .03.12l-2.03 3.07c-.27.4-.44.75-.52 1.02-.04.15.07.3.23.3.44 0 1.05-.5 1.38-.83l1.17-1.2c.39-.44.85-.94 1.4-1.51.56-.58 1-1.12 1.34-1.62l3.04-4.52c.15-.22.3-.35.45-.39.33-.08.67-.12 1-.1.04 0 .06.04.04.07l-.6.9-4.9 7.52c-.11.16-.32.5-.6.99-.1.15-.16.3-.18.44-.02.12.06.23.19.25.13.02.27 0 .4-.06.69-.3 1.31-.96 1.82-1.48 1.04-1.1 1.78-1.73 2.2-2.16.32-.32.96-.9 1.5-.89.23 0 .47.1.64.36.12.2.17.41.16.64a2.7 2.7 0 0 1-.49 1.3c-.34.53-1.32 1.48-1.19 2.22.02.1.12.16.22.13.26-.07.5-.19.69-.34.78-.59 1.52-1.53 2.24-2.5.5-.7.84-1.25 1-1.5a.55.55 0 0 1 .44-.26l.69-.05c.17-.01.2.05.12.2a75.93 75.93 0 0 0-2.47 4.28c-.01.04 0 .05.04.03a8.37 8.37 0 0 0 1.72-1.4c.33-.36.74-.87 1.22-1.52a7.8 7.8 0 0 0 1.2-2.54c.23-.77.48-1.88-.37-2.38-.07-.03-.13-.03-.19.02-.2.18-.48.47-.73.37-.43-.18-.5-.6-.13-.9.15-.1.3-.15.45-.16.29-.02.58.12.82.36.47.48.72 1.22.72 1.9 0 1.08-.42 2.18-1 3.09a11.24 11.24 0 0 1-2.4 2.75c-.28.23-.8.55-1.55.98-.14.08-.4.4-.49.56a12.52 12.52 0 0 1-3.5 3.96c-.33.22-.69.39-1.07.4-.54.02-.98-.3-.99-.87-.03-1.66 3.27-3.13 4.55-3.83.24-.12.43-.32.57-.6l.7-1.37c.1-.22.08-.24-.1-.06-.42.44-.85.99-1.3 1.31-.3.22-.7.43-1.07.42a.67.67 0 0 1-.54-.31 1.63 1.63 0 0 1-.12-1.47c.28-.7.82-1.3 1.23-1.92.17-.26.27-.53.31-.74a.11.11 0 0 0-.03-.1.12.12 0 0 0-.1-.04c-.73.12-1.34.92-1.83 1.43-1.09 1.16-1.88 1.85-2.38 2.32-.39.37-.95.83-1.51.83-.66 0-1.06-.71-.98-1.3a6.58 6.58 0 0 1 .85-1.78 75.21 75.21 0 0 0-1.3 1.35c-.46.5-.93.93-1.4 1.3-.28.23-.65.43-1 .43a.93.93 0 0 1-.75-.38 1.12 1.12 0 0 1-.2-1.08 7.4 7.4 0 0 1 .78-1.63Zm-19.9-1.84c2.43.08 4.7-3.02 4.71-5.27 0-.47-.1-.91-.3-1.33-.05-.1-.14-.14-.25-.1a9.24 9.24 0 0 0-4.29 2.41 3.96 3.96 0 0 0-1.3 2.75c0 .86.54 1.51 1.43 1.54Zm16.24 1.72c.12-.21.24-.56.25-.86 0-.32-.12-.57-.52-.56h-.1c-.27.04-.67.26-.9.47-.87.74-1.84 2-1.86 3.2 0 .13.07.51.26.5 1.27-.04 2.38-1.8 2.87-2.75Zm13.81 4a.02.02 0 0 0-.01-.03h-.01c-.13.05-.26.11-.4.2-1.05.6-2.74 1.52-3.38 2.56-.2.34-.3 1.26.42 1.1.37-.07.77-.38 1.01-.66.28-.31.5-.6.66-.85.67-1.06 1.37-1.67 1.71-2.32Z" fill="#191A1B"/><path d="M34.31 26.93c-.26.31-.25.73 0 .93.27.2.69.12.94-.18.26-.31.26-.73 0-.94-.26-.2-.68-.12-.94.2Z" fill="#191A1B"/></svg>