<!-- by TradingView --><svg width="56" height="56" viewBox="0 0 56 56" xmlns="http://www.w3.org/2000/svg"><path fill="#F0F3FA" d="M0 0h56v56H0z"/><path d="M28.37 11C39.27 11 44 18.77 45 22.66c-1.51-1.9-6.27-5.68-13.2-5.68-12.04 0-14.62 7.74-14.62 9.75 0 1.6.8 3.52 1.21 4.27-4.43-2.17-6.77-5.7-7.39-7.19C12.25 19.54 17.47 11 28.37 11ZM27.63 45C16.73 45 12 37.23 11 33.34c1.51 1.9 6.27 5.68 13.2 5.68 12.04 0 14.62-7.74 14.62-9.75 0-1.6-.8-3.52-1.21-4.27 4.43 2.17 6.77 5.7 7.39 7.19C43.75 36.46 38.53 45 27.63 45Z" fill="#521749"/><path d="M18 21h9v3h-1.6l-4.72 8H26v3h-8v-3l5.05-8H18v-3Z" fill="#521749"/><path d="M26.88 21H24l3 6.62V35h3.38v-1.14h-.1c-.77 0-1.28-.6-1.28-1.34v-5L32 21h-2.09l-1.33 3.41-1.7-3.41Z" fill="#521749"/><path d="M32.88 21H30l3 6.62V35h3.38v-1.14h-.1c-.77 0-1.28-.6-1.28-1.34v-5L38 21h-2.09l-1.33 3.41-1.7-3.41Z" fill="#521749"/></svg>