<!-- by TradingView --><svg width="56" height="56" viewBox="0 0 56 56" xmlns="http://www.w3.org/2000/svg"><path fill="#F0F3FA" d="M0 0h56v56H0z"/><path d="M28.86 15.2c-.67.38-1.5.36-2.16-.05-.9-.56-2.1-1.27-3.15-1.72a3 3 0 0 0-4.12 4.12 25.33 25.33 0 0 0 1.72 3.15c.41.65.43 1.49.05 2.16-.6 1.06-1.41 2.56-1.86 3.75a3 3 0 0 0 4.21 3.96 25.33 25.33 0 0 0 3.15-1.72 2.11 2.11 0 0 1 2.16-.05l.5.28c1.54.86 2.85 2.12 3.79 3.62a2.11 2.11 0 0 1-.05 2.34 10.72 10.72 0 0 1-4.24 4.16c-.67.38-1.5.36-2.16-.05C25.28 38.26 23.07 37 22 37a3 3 0 1 0 0 6c1.07 0 3.28-1.26 4.7-2.15a2.11 2.11 0 0 1 2.16-.05c1.06.6 2.56 1.41 3.75 1.86a3 3 0 0 0 4.05-4.05 29.66 29.66 0 0 0-1.86-3.75c-.38-.67-.36-1.5.05-2.16.56-.9 1.27-2.1 1.72-3.15a3 3 0 0 0-3.96-4.21 29.66 29.66 0 0 0-3.75 1.86c-.67.38-1.5.36-2.16-.05a10.53 10.53 0 0 1-3.9-4.29c-.38-.67-.36-1.5.05-2.16l.07-.11a11.46 11.46 0 0 1 3.67-3.67l.1-.07a2.11 2.11 0 0 1 2.17-.05c1.56.9 4.05 2.2 5.14 2.2a3 3 0 1 0 0-6c-1.1 0-3.58 1.3-5.14 2.2ZM19 22a3 3 0 1 1-6 0 3 3 0 0 1 6 0Zm24 12a3 3 0 1 1-6 0 3 3 0 0 1 6 0Zm-8.14-12.8c-.67.38-1.5.36-2.16-.05C31.28 20.26 29.07 19 28 19a3 3 0 1 0 0 6c1.07 0 3.28-1.26 4.7-2.15a2.11 2.11 0 0 1 2.16-.05c1.56.9 4.05 2.2 5.14 2.2a3 3 0 1 0 0-6c-1.1 0-3.58 1.3-5.14 2.2ZM20.7 33.15c.65.41 1.49.43 2.16.05 1.56-.9 4.05-2.2 5.14-2.2a3 3 0 1 1 0 6c-1.1 0-3.58-1.3-5.14-2.2a2.11 2.11 0 0 0-2.16.05C19.28 35.74 17.07 37 16 37a3 3 0 1 1 0-6c1.07 0 3.28 1.26 4.7 2.15Z" fill="#D70D19"/></svg>