<!-- by TradingView --><svg width="56" height="56" viewBox="0 0 56 56" xmlns="http://www.w3.org/2000/svg"><path fill="#F0F3FA" d="M0 0h56v56H0z"/><path d="M4 23h.5v4.5H10v.5H4.5v5H4V23Zm6 0h.5v10H10V23Zm32 0h.5v10H42V23Zm3 1.07V23l6.5 8.32V23h.5v10l-6.5-8.3V33H45v-8.93ZM26.5 23h.5v6.39c0 1.64 1.27 3.11 2.75 3.11s2.75-1.47 2.75-3.11V23h.5v6.63C33 31.5 31.64 33 29.97 33h-.44c-1.67 0-3.03-1.5-3.03-3.37V23Zm-6.5.5V33h.5v-5h3.97v-.5H20.5v-4H25V23h-5v.5Zm-4.5 4.42L12.28 23h.78l2.66 4.06L18.38 23h.78L16 27.82V33h-.5v-5.08Zm22.3-.53c-1.22-.36-2.3-.95-2.3-2.12 0-1.11 1.23-1.77 2.23-1.77.74 0 1.81.56 2.08 1.3l.47-.17c-.34-.93-1.6-1.63-2.55-1.63-1.27 0-2.73.87-2.73 2.27 0 1.5 1.37 2.22 2.66 2.6.9.27 2.34 1.15 2.34 2.24 0 .85-.56 2.39-2.27 2.39-1.19 0-2.15-1.09-2.56-2.11l-.47.19c.5 1.21 1.64 2.42 3.03 2.42 2.03 0 2.77-1.83 2.77-2.9 0-1.32-1.57-2.37-2.7-2.7Z" fill="#C7B784"/></svg>