<!-- by TradingView --><svg width="56" height="56" viewBox="0 0 56 56" xmlns="http://www.w3.org/2000/svg"><path fill="#181B1E" d="M0 0h56v56H0z"/><path d="M45.52 22H44v8a4 4 0 0 0 8 0v-8h-1.52v8.02a2.48 2.48 0 0 1-4.96 0V22ZM18.52 22H17v8a4 4 0 0 0 8 0v-8h-1.52v8.02a2.48 2.48 0 0 1-4.96 0V22ZM5.5 28.46V30a2.5 2.5 0 0 0 5 0v-.5H8V28h4v2a4 4 0 1 1-8 0v-4a4 4 0 0 1 7.65-1.65l-1.22 1.08A2.5 2.5 0 0 0 5.5 26v2.46Z" fill="#fff"/><path fill-rule="evenodd" d="M32.5 34v-5h1.03L37 34h1.94l-3.48-5h.03a3.5 3.5 0 1 0 0-7H31v12h1.5Zm3-10.5h-3v4h3a2 2 0 1 0 0-4Z" fill="#fff"/></svg>