<!-- by TradingView --><svg width="56" height="56" viewBox="0 0 56 56" xmlns="http://www.w3.org/2000/svg"><path fill="#F0F3FA" d="M0 0h56v56H0z"/><path d="M9 18.31 9.64 17h5.64c1 0 1.95.53 2.5 1.4l4 5.8c.32.5.86.8 1.44.8h.28l2.99-6.13a3.2 3.2 0 0 1 2.9-1.87H47l-2.4 4.76A2.13 2.13 0 0 1 42.66 23H32.31l-.91 2H43l-2.46 5.89c-.32.68-1 1.11-1.73 1.11H28.45l-1.06 2h11.57l-2.32 4.89c-.32.68-1 1.11-1.73 1.11H18.7c-.94 0-1.56-1-1.15-1.88L21 31h-1.3c-.5 0-.97-.26-1.24-.69l-8.18-11.5c-.2-.31-.53-.5-.9-.5H9Z" fill="url(#ag5modwjk)"/><defs><linearGradient id="ag5modwjk" x1="47" y1="17" x2="9" y2="17" gradientUnits="userSpaceOnUse"><stop stop-color="#F56804"/><stop offset="1" stop-color="#FA9B00"/></linearGradient></defs></svg>