<!-- by TradingView --><svg width="56" height="56" viewBox="0 0 56 56" xmlns="http://www.w3.org/2000/svg"><path fill="#F0F3FA" d="M0 0h56v56H0z"/><path d="m40.53 39.87-.25.09c-.1.03-.2.04-.34.04-.37 0-.88-.32-.94-.73-.4.46-.85.73-1.48.73-.69 0-1.52-.5-1.52-1.2 0-.98.94-1.33 1.8-1.46a4 4 0 0 0 .96-.24c.18-.08.24-.25.24-.5 0-.75-.4-1.17-1.1-1.17-.46 0-.97.25-1.13.7h-.1v-.57c.5-.37 1.02-.56 1.55-.56.98 0 1.78.59 1.78 1.67v2.68c0 .13.02.22.06.26.04.05.1.08.19.08s.19-.02.28-.05v.23ZM39 38.9V37.4l-1.29.3c-.46.18-.71.5-.71.94 0 .63.37.94.95.94.31 0 .7-.22 1.05-.67ZM35 40h-1v-2.83c0-1.1-.12-1.63-.9-1.63-1.16 0-1.1 1.15-1.1 2.08V40h-1v-5h1v1c.36-.64.7-1 1.42-1 1.07 0 1.58.6 1.58 1.96V40ZM30 33.5c0 .14-.05.25-.15.35-.1.1-.21.15-.35.15a.48.48 0 0 1-.35-.15.48.48 0 0 1-.15-.35c0-.14.05-.25.15-.35.1-.1.21-.15.35-.15.14 0 .25.05.35.15.1.1.15.21.15.35ZM29 35v5h1v-5h-1ZM28 40h-1v-2.66c0-.8.11-1.79-.9-1.79-.87 0-1.1.57-1.1 1.69V40h-1v-8h1v4.03c.37-.7.73-1.03 1.42-1.03 1.12 0 1.58.7 1.58 2.1V40ZM23 32.52a5.32 5.32 0 0 0-.21.86l-.07.02a2.55 2.55 0 0 0-1.94-.97c-1.92 0-2.78 1.87-2.78 3.56 0 1.67.8 3.57 2.72 3.57.8 0 1.7-.38 2.28-.91l-.05.7c-.58.43-1.4.65-2.34.65-2.35 0-3.61-1.82-3.61-4.04 0-2.25 1.56-3.96 3.85-3.96a5 5 0 0 1 2.15.52ZM45.5 28c0 .98.54 2.24 1.73 2.24.53 0 1-.18 1.41-.53l.14.1-.25.67c-.5.39-1.12.52-1.75.52-1.73 0-2.78-1.3-2.78-2.97 0-1.62.92-3.03 2.66-3.03 1.53 0 2.34 1.17 2.34 2.61 0 .13.01.26-.01.39H45.5Zm2-.53c-.01-.55-.06-1.94-.88-1.94-.84 0-1.1 1.37-1.12 1.94h2ZM20.5 28c0 .98.54 2.24 1.73 2.24.53 0 1-.18 1.41-.53l.14.1-.25.67c-.5.39-1.12.52-1.75.52-1.73 0-2.78-1.3-2.78-2.97 0-1.62.92-3.03 2.66-3.03 1.53 0 2.34 1.17 2.34 2.61 0 .13.01.26-.01.39H20.5Zm2-.53c-.01-.55-.06-1.94-.88-1.94-.84 0-1.1 1.37-1.12 1.94h2ZM40.83 29.34 42.12 25H43l-2.01 6h-1.15L38 25h1.63l1.2 4.34ZM34 25.44l-.03.29c0 .1 0 .18.03.27h-1.5v3.5c.05.5.33.86.88.86.22 0 .42-.01.62-.1v.46c-.45.2-.98.28-1.47.28-1.18 0-1.53-.65-1.53-1.72V26h-1c.04-.18.05-.33 0-.56h1v-.53c-.01-.2.02-.63 0-.91.82.62 1.77 1.3 3 1.44ZM27.5 29.03v-1.24c-.24.19-.56.26-.8.46-.3.23-.6.63-.6 1.05 0 .58.4.7.72.7.38 0 .68-.21.68-.97Zm-2.1-3.2c.47-.54 1.53-.83 2.1-.83.91 0 1.5.71 1.5 1.92v2.67c0 .5.06.81.5.81v.29c-.25.17-.71.31-1 .31-.43 0-.89-.32-1.03-.86-.26.5-.63.86-1.13.86-.72 0-1.34-.74-1.34-1.64 0-1.4 1.11-1.47 1.96-1.82.28-.12.54-.24.54-.64 0-.59-.42-1.02-.88-1.02-.37 0-.85.25-1.05.65h-.06l-.11-.7ZM16.53 26.63c.23-.56.3-.97.63-1.23a1.76 1.76 0 0 1 1.37-.38c-.13.53-.04 1.12 0 1.67l-.12.1c-.17-.1-.44-.17-.74-.17-.69 0-1.14.49-1.14 1.2L16.5 31H15v-5.98l1.53-.02v1.63ZM13.93 29.38l-.17.54c-.04.18-.07.35-.08.53-.62.35-1.41.55-2.38.55C8.86 31 7 29.28 7 26.8c0-2.79 1.77-4.8 4.62-4.8.78 0 1.73.18 2.38.62a4.16 4.16 0 0 0-.27 1.38h-.16c-.5-.68-1.15-1.22-2-1.22-1.94 0-3.07 2.26-3.07 3.84 0 1.68 1.28 3.6 3.17 3.6a3.03 3.03 0 0 0 2.1-.94l.16.1ZM35 25h1.5v6H35v-6Z" fill="#373332"/><path d="M38.94 16.43a3.92 3.92 0 0 0-2.3-.74 3.85 3.85 0 0 0-3.88 3.81 3.92 3.92 0 0 0 6.18 3.07A4.62 4.62 0 0 1 31 19.5a4.62 4.62 0 0 1 7.94-3.07Z" fill="#185591"/><path d="M34.47 16.77c.34-.14.72-.21 1.12-.21 1.66 0 3 1.31 3 2.94a2.97 2.97 0 0 1-3 2.94c-.4 0-.78-.07-1.13-.21.58.42 1.3.67 2.07.67A3.43 3.43 0 0 0 40 19.5a3.5 3.5 0 0 0-5.53-2.73Z" fill="#185591"/><path d="M37.53 17.5a2.18 2.18 0 0 0-3.02 2c0 1.2.98 2.16 2.2 2.16.29 0 .57-.06.82-.16-.42.31-.95.5-1.52.5a2.52 2.52 0 0 1-2.54-2.5c0-1.38 1.14-2.5 2.54-2.5.57 0 1.1.19 1.52.5Z" fill="#F04865"/><path d="M35.59 18.26c.16-.06.35-.1.54-.1.79 0 1.43.63 1.43 1.4 0 .79-.64 1.42-1.43 1.42-.2 0-.38-.04-.54-.1.28.2.62.31.99.31.91 0 1.66-.72 1.66-1.62a1.67 1.67 0 0 0-2.65-1.3Z" fill="#185591"/></svg>