<!-- by TradingView --><svg width="56" height="56" viewBox="0 0 56 56" fill="none" xmlns="http://www.w3.org/2000/svg"><path fill="#F0F3FA" d="M0 0h56v56H0z"/><path d="M37.08 27.49c0 .57.02.95.08 1.16.78 2.96 2.66 4.65 5.65 5.1.1 0 .19.06.19.15v5.85c0 .18-.14.26-.32.25a12.5 12.5 0 0 1-9.23-4.8c-.1-.13-.1-.26 0-.4a12.13 12.13 0 0 0 2.28-9.22 12.16 12.16 0 0 0-2.25-5.43c-.1-.13-.1-.26 0-.39A12.5 12.5 0 0 1 42.75 15c.17 0 .26.08.26.26v5.84c0 .1-.07.15-.16.16-3 .42-4.89 2.11-5.68 5.06-.05.21-.08.6-.08 1.17Z" fill="#543E8D"/><path d="M21.24 14.32c0 .2-.23.37-.54.4-.3.02-.57-.12-.58-.32-.02-.2.22-.38.53-.4.31-.02.57.12.59.32ZM17.46 14.52c-.04.15-.24.24-.45.19-.21-.05-.36-.21-.33-.37.04-.15.24-.24.45-.19.21.05.36.21.33.37ZM19 16.2c.3-.04.53-.24.5-.46-.03-.2-.3-.34-.6-.3-.32.04-.54.25-.51.46.02.21.3.35.6.3Z" fill="#1A9BD9"/><path d="M32.62 20.4a11.82 11.82 0 0 0-9.65-4.95 1.2 1.2 0 0 0-.87.27.56.56 0 0 0-.19.52c.03.21.14.36.33.45.22.1.39.2.49.26.4.25.36.37-.11.34-.82-.05-1.36.36-1.63 1.24a.26.26 0 0 1-.19.18c-.26.08-.46.1-.6.08a.22.22 0 0 1-.19-.15c-.24-.68-.61-1.02-1.12-1.01-.7 0-1.15.4-1.35 1.18-.02.09-.08.13-.17.12-.4-.05-.77 0-1.08.17-.32.17-.47.42-.46.75 0 .34.18.57.52.69 1.04.37 1.66.05 1.87-.98.02-.1.08-.15.18-.12.32.08.58.1.79.05.1-.03.16.02.16.14v.21c0 .17-.08.26-.23.3-.95.2-1.36.66-1.23 1.4.01.1-.03.13-.12.1-.49-.23-.98-.14-1.48.27-.25.2-.3.44-.17.74.3.62.82.81 1.56.57.45-.15.67-.5.64-1.04 0-.11.04-.15.15-.12.4.11.74.09 1-.06.18-.1.42-.34.72-.72.08-.1.29-.23.63-.38.5-.21.89-.6 1.13-1.13a.26.26 0 0 1 .26-.17h.69c.17 0 .24.1.19.26l-.04.15c-.05.16-.16.24-.34.24-.43 0-.79.2-1.08.56a.35.35 0 0 0-.08.29c.08.44.34.66.77.65 2.7-.05 4.68 1.04 5.95 3.29.65 1.36.84 2.68.58 3.96a5.94 5.94 0 0 1-4.46 4.78c-.68.2-1.42.3-2.22.32-.35 0-.55.18-.62.53-.06.33.08.6.42.82.26.15.57.25.96.3.1.01.17.07.2.17s.03.2 0 .3c-.03.1-.1.16-.2.18-.24.05-.52.03-.84-.08a.3.3 0 0 1-.2-.2c-.2-.64-.63-1-1.28-1.11a.3.3 0 0 1-.23-.16c-.38-.68-1.1-1.12-2.14-1.31.06-.5-.18-.8-.7-.92-.8-.18-1.29.1-1.48.82-.03.1-.02.2.03.28.33.55.88.74 1.65.57.14.9.6 1.38 1.39 1.46.1 0 .17.06.21.15.06.11.08.23.06.35-.02.1-.08.15-.18.15h-.8c-.1 0-.16-.04-.2-.14l-.14-.38c-.37-.65-.92-.85-1.65-.6a.83.83 0 0 0-.5.47.67.67 0 0 0 .1.76c.18.2.41.33.7.4l.66.09c.1 0 .16.06.2.16.21.77.74 1.1 1.57.98.35-.05.63-.34.83-.87.04-.1.11-.15.21-.15.66-.06 1 .17 1.03.67.01.2.1.38.25.52.16.14.35.21.56.22l.72.01c.56.01.59.16.09.44-.04.02-.14.04-.31.05-.38.04-.56.27-.56.68 0 .15.05.28.15.39.1.1.23.16.38.17 1.76.07 3.48-.27 5.15-1.01 5.63-2.52 8.65-9.23 6.8-15.29-.38-1.2-.99-2.39-1.84-3.57Z" fill="url(#a)"/><path d="M15.49 16.06c.2-.02.36-.15.35-.29-.02-.13-.2-.22-.4-.2-.22.03-.37.16-.36.3.02.13.2.22.4.2Z" fill="#1A9BD9"/><path d="M21.46 16.95c.05.41-.34.8-.87.87-.53.07-1-.21-1.05-.62-.05-.42.34-.8.87-.87.53-.07 1 .21 1.05.62Z" fill="url(#b)"/><path d="M17.17 17.59c.37-.04.65-.27.62-.52-.02-.24-.34-.4-.71-.37-.37.05-.65.28-.63.52.03.24.35.4.72.37ZM15.47 18.2c.07.2-.06.43-.29.52-.23.09-.47 0-.54-.2-.07-.19.06-.42.28-.5.23-.1.48 0 .55.19ZM13.52 20.11c.26-.07.43-.29.38-.48-.05-.2-.3-.29-.57-.22-.26.08-.43.3-.38.49.05.19.3.29.57.21Z" fill="#1A9BD9"/><path d="M15.07 21.96c.53-.02.95-.35.94-.73-.02-.39-.46-.69-.99-.67-.53.02-.95.35-.94.73.01.4.46.69.99.67Z" fill="url(#c)"/><path d="M12.19 21.18c0 .14-.18.27-.4.27-.23 0-.42-.1-.42-.25s.17-.27.4-.28c.23 0 .41.11.42.26Z" fill="url(#d)"/><path d="M20.9 23.36c.55-.07.95-.49.9-.93-.05-.44-.54-.75-1.1-.68-.55.07-.96.48-.9.93.05.44.54.74 1.1.68Z" fill="url(#e)"/><path d="M14.21 22.68c.01.35-.37.66-.85.67-.48.02-.88-.26-.9-.62 0-.36.38-.66.86-.67.48-.02.88.26.89.62Z" fill="url(#f)"/><path d="M19.01 24.55c.54-.01.97-.36.96-.79 0-.42-.45-.75-.99-.74-.54.01-.96.37-.96.79.01.42.46.75 1 .74Z" fill="url(#g)"/><path d="M16.26 23.86c0 .37-.44.67-.99.67-.54 0-.98-.3-.98-.68 0-.37.45-.67.99-.67s.98.3.98.68Z" fill="url(#h)"/><path d="M22.37 24.12c.27-.04.47-.22.44-.4-.02-.17-.27-.28-.54-.24-.27.05-.47.23-.45.4.03.18.27.28.55.24Z" fill="url(#i)"/><path d="M12.15 23.87c.04.25-.22.5-.58.58-.37.07-.7-.08-.75-.33-.05-.25.21-.5.58-.58.37-.07.7.08.75.33Z" fill="url(#j)"/><path d="M17.08 25.94c.52-.02.93-.36.91-.75 0-.4-.44-.71-.96-.7-.51.02-.92.36-.9.76 0 .4.44.71.95.7Z" fill="url(#k)"/><path d="M14.43 25.3c-.01.37-.4.66-.88.65-.47-.01-.85-.33-.84-.7.01-.37.4-.66.88-.65.47.01.85.33.84.7Z" fill="url(#l)"/><path d="M20.67 25.57c.28.02.5-.13.52-.33.01-.2-.2-.37-.47-.39-.27-.02-.5.13-.52.33 0 .2.2.37.47.39Z" fill="url(#m)"/><path d="m9.26 24.95.3-.03c.16-.02.3.1.31.26v.07a.3.3 0 0 1-.25.32l-.3.03a.29.29 0 0 1-.31-.26v-.07a.3.3 0 0 1 .25-.32Z" fill="url(#n)"/><path d="M15.37 27.23c.5-.01.88-.29.87-.62 0-.32-.4-.58-.9-.57-.48.02-.87.3-.86.62 0 .33.4.58.9.57Z" fill="url(#o)"/><path d="M12.42 26.58c.02.26-.27.5-.65.52-.38.03-.7-.16-.72-.42-.02-.26.27-.49.65-.52.38-.03.7.16.72.42Z" fill="url(#p)"/><path d="M19.23 26.33h-.37a.28.28 0 0 0-.28.28v.05c0 .16.12.28.28.28h.37c.15 0 .28-.12.28-.28v-.05a.28.28 0 0 0-.28-.28Z" fill="url(#q)"/><path d="M17.68 27.86c.01.29-.28.53-.65.55-.37 0-.68-.21-.7-.5 0-.29.3-.53.66-.54.37-.02.68.2.7.5Z" fill="url(#r)"/><path d="M9.67 28.37c.23 0 .42-.19.42-.42a.42.42 0 0 0-.42-.43c-.23 0-.42.2-.42.43 0 .23.19.42.42.42Z" fill="url(#s)"/><path d="M14.17 28.03c0 .27-.3.5-.66.5-.36 0-.65-.23-.65-.5 0-.28.3-.5.66-.5.36 0 .66.22.65.5Z" fill="url(#t)"/><path d="M20.7 28.25c.28-.02.5-.19.49-.39 0-.2-.24-.35-.52-.34-.28.01-.5.18-.48.38 0 .2.23.36.51.35Z" fill="url(#u)"/><path d="M16.26 29.28c-.01.33-.42.6-.92.58-.5-.01-.89-.3-.88-.63 0-.33.41-.6.91-.58.5.01.9.3.89.63Z" fill="url(#v)"/><path d="M11.66 29.72c.38.05.71-.13.74-.38.03-.25-.26-.5-.64-.54-.38-.04-.71.13-.74.39-.03.25.26.5.64.53Z" fill="url(#w)"/><path d="m18.83 29 .4-.01c.14 0 .26.11.27.26v.05c0 .15-.12.27-.26.28h-.4a.27.27 0 0 1-.27-.26v-.05c0-.15.12-.27.26-.28Z" fill="url(#x)"/><path d="M13.52 31.25c.47.03.87-.23.9-.6.02-.35-.34-.67-.81-.7-.47-.04-.87.23-.9.6-.02.35.34.67.81.7Z" fill="url(#y)"/><path d="M17.99 30.76c-.04.4-.49.68-1 .63-.52-.05-.91-.42-.87-.81.03-.4.48-.68 1-.63.52.05.9.41.87.81Z" fill="url(#z)"/><path d="M9.38 30.95c.24.06.47-.03.5-.2.05-.16-.12-.34-.36-.4s-.47.03-.51.2c-.04.16.13.34.37.4Z" fill="url(#A)"/><path d="m20.56 30.39.38.06c.14.02.23.15.21.3v.04a.26.26 0 0 1-.3.23l-.38-.06a.26.26 0 0 1-.21-.3v-.05a.26.26 0 0 1 .3-.22Z" fill="url(#B)"/><path d="M15.25 32.75c.55.01 1-.3 1.01-.68.01-.38-.43-.7-.98-.71-.55-.02-1 .28-1.01.67 0 .38.43.7.98.72Z" fill="url(#C)"/><path d="M19.94 32.15c-.02.4-.46.7-.99.66-.53-.03-.93-.38-.91-.77.02-.4.47-.7 1-.66.52.03.93.38.9.77Z" fill="url(#D)"/><path d="M11.37 32.3c.36.12.71.04.78-.18.07-.22-.16-.49-.53-.61-.36-.12-.7-.05-.78.17-.07.22.17.5.53.61Z" fill="url(#E)"/><path d="M22.83 32.17c-.03.18-.27.3-.54.26-.28-.04-.48-.22-.46-.4.03-.18.27-.3.54-.26.28.03.48.21.46.4Z" fill="url(#F)"/><path d="M21.75 33.41c-.05.42-.5.72-1.03.66-.52-.06-.9-.45-.86-.87.05-.42.5-.71 1.03-.65.52.05.9.44.86.86Z" fill="url(#G)"/><path d="M13.26 33.83c.49.06.92-.18.96-.53.04-.35-.33-.68-.82-.74-.49-.06-.92.18-.96.53-.04.35.33.68.82.74Z" fill="url(#H)"/><path d="M16.02 34.68c-.02.38-.47.67-1 .64-.54-.02-.97-.35-.95-.73.02-.38.46-.67 1-.64.54.02.97.35.95.73Z" fill="url(#I)"/><path d="M11.72 34.91c.2.06.4.01.43-.1.04-.13-.1-.27-.3-.33-.21-.05-.4 0-.44.11-.03.12.11.26.31.32Z" fill="url(#J)"/><path d="M13.34 36.4c.22.05.43-.03.47-.19.03-.15-.11-.32-.34-.38-.22-.05-.43.03-.46.19-.04.15.11.32.33.38Z" fill="url(#K)"/><path d="M15.42 37.75c-.08.13-.3.13-.5 0-.19-.12-.28-.33-.2-.46.08-.12.3-.12.5 0 .19.13.28.33.2.46Z" fill="url(#L)"/><path d="M20.37 39.58c.5.09.97-.17 1.04-.58.06-.41-.3-.82-.8-.9-.5-.1-.97.17-1.04.58-.06.41.3.81.8.9Z" fill="url(#M)"/><path d="M17.7 38.9c-.04.2-.35.29-.69.21-.34-.07-.59-.28-.55-.46.04-.2.35-.28.69-.21.34.07.59.28.55.47Z" fill="url(#N)"/><path d="M18.94 40.46c.3.02.55-.12.57-.31.02-.2-.22-.38-.52-.4-.3-.03-.55.11-.57.3-.02.2.22.38.52.4Z" fill="url(#O)"/><path d="M15.8 40.11c0 .13-.18.22-.38.21-.2-.01-.36-.12-.36-.25.01-.13.18-.22.38-.21.2.01.37.12.36.25Z" fill="url(#P)"/><path d="m17.32 41.23-.45-.04a.25.25 0 0 0-.27.23v.04c-.02.14.08.27.22.28l.45.05c.14 0 .26-.1.28-.24v-.04a.26.26 0 0 0-.23-.28Z" fill="url(#Q)"/><path d="M21.34 41.6c-.01.24-.31.42-.67.4-.35-.02-.63-.23-.62-.47.02-.24.31-.42.67-.4.35.02.63.23.62.47Z" fill="url(#R)"/><defs><linearGradient id="a" x1="14.54" y1="23" x2="31.29" y2="34.45" gradientUnits="userSpaceOnUse"><stop stop-color="#1A9BD9"/><stop offset="1" stop-color="#78B7E5"/></linearGradient><linearGradient id="b" x1="14.54" y1="23" x2="31.29" y2="34.45" gradientUnits="userSpaceOnUse"><stop stop-color="#1A9BD9"/><stop offset="1" stop-color="#78B7E5"/></linearGradient><linearGradient id="c" x1="14.54" y1="23" x2="31.29" y2="34.45" gradientUnits="userSpaceOnUse"><stop stop-color="#1A9BD9"/><stop offset="1" stop-color="#78B7E5"/></linearGradient><linearGradient id="d" x1="14.54" y1="23" x2="31.29" y2="34.45" gradientUnits="userSpaceOnUse"><stop stop-color="#1A9BD9"/><stop offset="1" stop-color="#78B7E5"/></linearGradient><linearGradient id="e" x1="14.54" y1="23" x2="31.29" y2="34.45" gradientUnits="userSpaceOnUse"><stop stop-color="#1A9BD9"/><stop offset="1" stop-color="#78B7E5"/></linearGradient><linearGradient id="f" x1="14.54" y1="23" x2="31.29" y2="34.45" gradientUnits="userSpaceOnUse"><stop stop-color="#1A9BD9"/><stop offset="1" stop-color="#78B7E5"/></linearGradient><linearGradient id="g" x1="14.54" y1="23" x2="31.29" y2="34.45" gradientUnits="userSpaceOnUse"><stop stop-color="#1A9BD9"/><stop offset="1" stop-color="#78B7E5"/></linearGradient><linearGradient id="h" x1="14.54" y1="23" x2="31.29" y2="34.45" gradientUnits="userSpaceOnUse"><stop stop-color="#1A9BD9"/><stop offset="1" stop-color="#78B7E5"/></linearGradient><linearGradient id="i" x1="14.54" y1="23" x2="31.29" y2="34.45" gradientUnits="userSpaceOnUse"><stop stop-color="#1A9BD9"/><stop offset="1" stop-color="#78B7E5"/></linearGradient><linearGradient id="j" x1="14.54" y1="23" x2="31.29" y2="34.45" gradientUnits="userSpaceOnUse"><stop stop-color="#1A9BD9"/><stop offset="1" stop-color="#78B7E5"/></linearGradient><linearGradient id="k" x1="14.54" y1="23" x2="31.29" y2="34.45" gradientUnits="userSpaceOnUse"><stop stop-color="#1A9BD9"/><stop offset="1" stop-color="#78B7E5"/></linearGradient><linearGradient id="l" x1="14.54" y1="23" x2="31.29" y2="34.45" gradientUnits="userSpaceOnUse"><stop stop-color="#1A9BD9"/><stop offset="1" stop-color="#78B7E5"/></linearGradient><linearGradient id="m" x1="14.54" y1="23" x2="31.29" y2="34.45" gradientUnits="userSpaceOnUse"><stop stop-color="#1A9BD9"/><stop offset="1" stop-color="#78B7E5"/></linearGradient><linearGradient id="n" x1="14.54" y1="23" x2="31.29" y2="34.45" gradientUnits="userSpaceOnUse"><stop stop-color="#1A9BD9"/><stop offset="1" stop-color="#78B7E5"/></linearGradient><linearGradient id="o" x1="14.54" y1="23" x2="31.29" y2="34.45" gradientUnits="userSpaceOnUse"><stop stop-color="#1A9BD9"/><stop offset="1" stop-color="#78B7E5"/></linearGradient><linearGradient id="p" x1="14.54" y1="23" x2="31.29" y2="34.45" gradientUnits="userSpaceOnUse"><stop stop-color="#1A9BD9"/><stop offset="1" stop-color="#78B7E5"/></linearGradient><linearGradient id="q" x1="14.54" y1="23" x2="31.29" y2="34.45" gradientUnits="userSpaceOnUse"><stop stop-color="#1A9BD9"/><stop offset="1" stop-color="#78B7E5"/></linearGradient><linearGradient id="r" x1="14.54" y1="23" x2="31.29" y2="34.45" gradientUnits="userSpaceOnUse"><stop stop-color="#1A9BD9"/><stop offset="1" stop-color="#78B7E5"/></linearGradient><linearGradient id="s" x1="14.54" y1="23" x2="31.29" y2="34.45" gradientUnits="userSpaceOnUse"><stop stop-color="#1A9BD9"/><stop offset="1" stop-color="#78B7E5"/></linearGradient><linearGradient id="t" x1="14.54" y1="23" x2="31.29" y2="34.45" gradientUnits="userSpaceOnUse"><stop stop-color="#1A9BD9"/><stop offset="1" stop-color="#78B7E5"/></linearGradient><linearGradient id="u" x1="14.54" y1="23" x2="31.29" y2="34.45" gradientUnits="userSpaceOnUse"><stop stop-color="#1A9BD9"/><stop offset="1" stop-color="#78B7E5"/></linearGradient><linearGradient id="v" x1="14.54" y1="23" x2="31.29" y2="34.45" gradientUnits="userSpaceOnUse"><stop stop-color="#1A9BD9"/><stop offset="1" stop-color="#78B7E5"/></linearGradient><linearGradient id="w" x1="14.54" y1="23" x2="31.29" y2="34.45" gradientUnits="userSpaceOnUse"><stop stop-color="#1A9BD9"/><stop offset="1" stop-color="#78B7E5"/></linearGradient><linearGradient id="x" x1="14.54" y1="23" x2="31.29" y2="34.45" gradientUnits="userSpaceOnUse"><stop stop-color="#1A9BD9"/><stop offset="1" stop-color="#78B7E5"/></linearGradient><linearGradient id="y" x1="14.54" y1="23" x2="31.29" y2="34.45" gradientUnits="userSpaceOnUse"><stop stop-color="#1A9BD9"/><stop offset="1" stop-color="#78B7E5"/></linearGradient><linearGradient id="z" x1="14.54" y1="23" x2="31.29" y2="34.45" gradientUnits="userSpaceOnUse"><stop stop-color="#1A9BD9"/><stop offset="1" stop-color="#78B7E5"/></linearGradient><linearGradient id="A" x1="14.54" y1="23" x2="31.29" y2="34.45" gradientUnits="userSpaceOnUse"><stop stop-color="#1A9BD9"/><stop offset="1" stop-color="#78B7E5"/></linearGradient><linearGradient id="B" x1="14.54" y1="23" x2="31.29" y2="34.45" gradientUnits="userSpaceOnUse"><stop stop-color="#1A9BD9"/><stop offset="1" stop-color="#78B7E5"/></linearGradient><linearGradient id="C" x1="14.54" y1="23" x2="31.29" y2="34.45" gradientUnits="userSpaceOnUse"><stop stop-color="#1A9BD9"/><stop offset="1" stop-color="#78B7E5"/></linearGradient><linearGradient id="D" x1="14.54" y1="23" x2="31.29" y2="34.45" gradientUnits="userSpaceOnUse"><stop stop-color="#1A9BD9"/><stop offset="1" stop-color="#78B7E5"/></linearGradient><linearGradient id="E" x1="14.54" y1="23" x2="31.29" y2="34.45" gradientUnits="userSpaceOnUse"><stop stop-color="#1A9BD9"/><stop offset="1" stop-color="#78B7E5"/></linearGradient><linearGradient id="F" x1="14.54" y1="23" x2="31.29" y2="34.45" gradientUnits="userSpaceOnUse"><stop stop-color="#1A9BD9"/><stop offset="1" stop-color="#78B7E5"/></linearGradient><linearGradient id="G" x1="14.54" y1="23" x2="31.29" y2="34.45" gradientUnits="userSpaceOnUse"><stop stop-color="#1A9BD9"/><stop offset="1" stop-color="#78B7E5"/></linearGradient><linearGradient id="H" x1="14.54" y1="23" x2="31.29" y2="34.45" gradientUnits="userSpaceOnUse"><stop stop-color="#1A9BD9"/><stop offset="1" stop-color="#78B7E5"/></linearGradient><linearGradient id="I" x1="14.54" y1="23" x2="31.29" y2="34.45" gradientUnits="userSpaceOnUse"><stop stop-color="#1A9BD9"/><stop offset="1" stop-color="#78B7E5"/></linearGradient><linearGradient id="J" x1="14.54" y1="23" x2="31.29" y2="34.45" gradientUnits="userSpaceOnUse"><stop stop-color="#1A9BD9"/><stop offset="1" stop-color="#78B7E5"/></linearGradient><linearGradient id="K" x1="14.54" y1="23" x2="31.29" y2="34.45" gradientUnits="userSpaceOnUse"><stop stop-color="#1A9BD9"/><stop offset="1" stop-color="#78B7E5"/></linearGradient><linearGradient id="L" x1="14.54" y1="23" x2="31.29" y2="34.45" gradientUnits="userSpaceOnUse"><stop stop-color="#1A9BD9"/><stop offset="1" stop-color="#78B7E5"/></linearGradient><linearGradient id="M" x1="14.54" y1="23" x2="31.29" y2="34.45" gradientUnits="userSpaceOnUse"><stop stop-color="#1A9BD9"/><stop offset="1" stop-color="#78B7E5"/></linearGradient><linearGradient id="N" x1="14.54" y1="23" x2="31.29" y2="34.45" gradientUnits="userSpaceOnUse"><stop stop-color="#1A9BD9"/><stop offset="1" stop-color="#78B7E5"/></linearGradient><linearGradient id="O" x1="14.54" y1="23" x2="31.29" y2="34.45" gradientUnits="userSpaceOnUse"><stop stop-color="#1A9BD9"/><stop offset="1" stop-color="#78B7E5"/></linearGradient><linearGradient id="P" x1="14.54" y1="23" x2="31.29" y2="34.45" gradientUnits="userSpaceOnUse"><stop stop-color="#1A9BD9"/><stop offset="1" stop-color="#78B7E5"/></linearGradient><linearGradient id="Q" x1="14.54" y1="23" x2="31.29" y2="34.45" gradientUnits="userSpaceOnUse"><stop stop-color="#1A9BD9"/><stop offset="1" stop-color="#78B7E5"/></linearGradient><linearGradient id="R" x1="14.54" y1="23" x2="31.29" y2="34.45" gradientUnits="userSpaceOnUse"><stop stop-color="#1A9BD9"/><stop offset="1" stop-color="#78B7E5"/></linearGradient></defs></svg>