<!-- by TradingView --><svg width="56" height="56" viewBox="0 0 56 56" xmlns="http://www.w3.org/2000/svg"><path fill="#F0F3FA" d="M0 0h56v56H0z"/><path d="M28.4 44c-6.12 0-10.43-3.2-11.82-4.81-.8-1.39-1.63-6.42-1.5-6.99.13-.57 1.03-7.35 1.32-8.12.29-.76 3.6-7.45 10.81-7.99 5.77-.43 8.67 1.64 9.4 2.73-6.11-1.08-13.23 2.98-13.23 11.13S31.43 40.1 34.33 40.1c2.31 0 5.3-1.25 6.5-1.87C39.24 40.15 34.53 44 28.4 44Z" fill="url(#a)"/><path d="M18.36 25.11c-3.47 6.01-2.52 12.07-1.6 14.36-.9-1.28-4.76-5.7-4.76-10.87 0-6 3.54-16.6 16.45-16.6C38.77 12 43.12 20.24 44 24.36c-7.26-9.8-21.29-6.75-25.64.75Z" fill="url(#b)"/><path d="M35.27 39.24a8.1 8.1 0 0 0 5.81-2.36c.39-.68.8-3.15.74-3.44-.07-.28-.5-3.61-.65-3.98-.14-.38-1.77-3.67-5.32-3.93-2.83-.21-4.25.8-4.61 1.34 3-.53 6.5 1.46 6.5 5.47 0 4-3.96 4.98-5.38 4.98-1.14 0-2.6-.6-3.2-.91.79.94 3.1 2.83 6.11 2.83Z" fill="url(#c)"/><path d="M40.2 29.96a8.65 8.65 0 0 1 .8 7.05c.44-.63 2.33-2.8 2.33-5.33 0-2.95-1.74-8.16-8.08-8.16-5.08 0-7.21 4.05-7.64 6.07 3.56-4.81 10.46-3.32 12.6.37Z" fill="url(#d)"/><defs><linearGradient id="a" x1="16.67" y1="22.57" x2="27.69" y2="44.13" gradientUnits="userSpaceOnUse"><stop offset=".26" stop-color="#D60E19"/><stop offset=".89" stop-color="#FFEA3C"/></linearGradient><linearGradient id="b" x1="41.76" y1="21.8" x2="23.98" y2="41.14" gradientUnits="userSpaceOnUse"><stop offset=".16" stop-color="#FFEA3C"/><stop offset="1" stop-color="#BA1C22"/></linearGradient><linearGradient id="c" x1="41.03" y1="28.71" x2="35.62" y2="39.31" gradientUnits="userSpaceOnUse"><stop offset=".26" stop-color="#D60E19"/><stop offset=".89" stop-color="#FFEA3C"/></linearGradient><linearGradient id="d" x1="28.71" y1="28.33" x2="37.44" y2="37.84" gradientUnits="userSpaceOnUse"><stop offset=".16" stop-color="#FFEA3C"/><stop offset="1" stop-color="#BA1C22"/></linearGradient></defs></svg>