<!-- by TradingView --><svg width="56" height="56" viewBox="0 0 56 56" xmlns="http://www.w3.org/2000/svg"><path fill="#F0F3FA" d="M0 0h56v56H0z"/><path d="M31.12 33a.12.12 0 0 0-.11.07c-.01.03-.02.05-.01.07 0 .03.01.05.03.07 1.26 1.45 2.81 2.05 4.69 2.68 2.22.75 4.53 1.27 6.93 1.57a.4.4 0 0 1 .34.3v.16a.73.73 0 0 1-.17.4c-.07.08-.19.14-.37.18a4.97 4.97 0 0 0-3.84 3.44.2.2 0 0 1-.14.06c-.03 0-.05 0-.08-.02-.98-.43-1.96-.95-2.92-1.57-2.82-1.8-4.75-3.98-5.82-7.15-.14-.44-.28-.44-.4 0-1.46 5-6.03 7.09-10.8 8.13-.82.18-2.04.38-3.66.6a.16.16 0 0 1-.17-.08l-.42-.73a.15.15 0 0 1 .1-.22 19.84 19.84 0 0 0 6.42-2.74c2.01-1.33 3.37-2.7 4.21-4.93a.21.21 0 0 0-.02-.2.21.21 0 0 0-.17-.09h-6.52c-1.39.01-2.34.1-2.86.27a.28.28 0 0 1-.3-.07l-.96-.97c-.16-.16-.13-.23.1-.23l10.88-.01a.29.29 0 0 0 .28-.26l.35-3.46a.24.24 0 0 0-.24-.27h-5.11c-1.41.01-2.34.1-2.78.37a.24.24 0 0 1-.29-.04l-1.15-1.12a.12.12 0 0 1 .08-.21h17.86c.57 0 .89.04 1.23-.41.2-.25.52-.72.98-1.27.2-.23.5-.34.88-.32.24.02.48.14.75.39.82.74 1.45 1.42 1.9 1.91a.42.42 0 0 1-.3.7H30.4c-.05 0-.1.02-.14.05a.22.22 0 0 0-.07.13l-.6 3.6a.19.19 0 0 0 .1.2l.08.02h7.1c.14 0 .28-.06.38-.15l1.87-1.9a.97.97 0 0 1 1.32-.05l2.13 1.85c.29.26.43.52.42.8 0 .12-.05.23-.13.3a.45.45 0 0 1-.3.15H31.12Z" fill="#1E1B1B"/><path fill-rule="evenodd" d="M32.82 23h-9.61c-.12 0-.22.1-.21.22.03.42-.02.83-.15 1.22l-.02.09c-.09.28-.18.6-.6.74a13.72 13.72 0 0 1-3.06.72.24.24 0 0 1-.15-.14.26.26 0 0 1-.02-.1v-12.7c0-.05.02-.06.07-.04l4 1.8c.28.12.58.19.89.19h8.09c.2 0 .39-.07.53-.2l.36-.35c.46-.46 1.04-1.04 1.5-1.14a1.99 1.99 0 0 1 1.6.27c.5.32 1.06.72 1.68 1.2a.72.72 0 0 1 .18.93l-.23.36c-.31.49-.58.9-.6 1.58-.04 1.85.03 3.53.22 5.04.03.2-.05.48-.23.82-.11.23-.32.4-.61.5-1.06.42-1.92.6-2.7.76l-.11.02a.53.53 0 0 1-.64-.52v-1.1c0-.11-.06-.17-.18-.17Zm-.01-7H23.2c-.1 0-.19.06-.19.14v1.72c0 .08.08.14.19.14h9.62c.1 0 .19-.06.19-.14v-1.72c0-.08-.08-.14-.19-.14Zm-9.67 4h9.72c.08 0 .14.05.14.11v1.78c0 .06-.06.11-.14.11h-9.72c-.08 0-.14-.05-.14-.11v-1.78c0-.06.06-.11.14-.11Z" fill="#1E1B1B"/></svg>