<!-- by TradingView --><svg width="56" height="56" viewBox="0 0 56 56" xmlns="http://www.w3.org/2000/svg"><path fill="#F0F3FA" d="M0 0h56v56H0z"/><path d="m10.75 22.4-.17-.02c-.05 0-.08.02-.1.07-.18.56-.54.97-1.07 1.23-.07.04-.39.08-.95.13a.9.9 0 0 1-.63-.14 2.52 2.52 0 0 1-.98-1.37c0-.03-.02-.05-.06-.05a.06.06 0 0 0-.06.04l-.05.12-.05-.05a.15.15 0 0 1-.02-.07c-.01-.8.24-1.41.75-1.85.44-.38 1.01-.51 1.73-.4 1.13.16 1.68.95 1.66 2.36Z" fill="#3D60AC"/><path d="M9.36 20.27c-.51.04-.9.11-1.15.22-.24.1-.42.25-.55.47-.13.2-.2.44-.2.7-.02.24.03.48.14.7.11.23.28.4.5.52.26.15.67.23 1.2.25.06 0 .1-.02.14-.07a.18.18 0 0 1 .11-.07c.05-.01.1-.04.13-.08.62-.67.68-1.43.2-2.27.22.1.37.28.43.52.03.15.05.4.03.75-.02.61-.27 1.05-.76 1.31-.48.26-1 .26-1.54 0a1.38 1.38 0 0 1-.82-1.1c-.08-.49.03-.95.32-1.4.2-.29.45-.47.79-.54a1.7 1.7 0 0 1 1.03.1Z" fill="#4F6CB4"/><path d="M9.36 20.27c.2.1.37.21.52.37.48.84.42 1.6-.2 2.27a.23.23 0 0 1-.13.08.17.17 0 0 0-.11.07.14.14 0 0 1-.13.07 2.8 2.8 0 0 1-1.21-.25c-.22-.12-.39-.3-.5-.52-.1-.22-.16-.46-.15-.7.01-.26.08-.5.2-.7.14-.22.32-.37.56-.47.25-.11.64-.18 1.15-.22Z" fill="#7786C2"/><path d="M9.84 20.93c.07.36.09.65.04.87a.94.94 0 0 1-.47.67.98.98 0 0 1-.73.09.97.97 0 0 1-.61-.43c-.16-.24-.2-.53-.1-.86.05-.22.19-.47.4-.72a.15.15 0 0 1 .14-.05c.43.02.8.09 1.12.2a.3.3 0 0 1 .2.23Z" fill="#9CA5D3"/><path d="M9.3 22.2c-.2.1-.4.1-.62.03-.1-.03-.26-.2-.5-.52a.16.16 0 0 1-.03-.14c.13-.56.48-.87 1.06-.92.1-.01.19.03.25.12.11.17.2.36.3.56.07.2.07.37-.03.5-.08.14-.23.26-.44.37Z" fill="#CFD3E9"/><path d="M28.24 20.75c.12.04.2.07.22.1.08.09.06.15-.07.16-.48.07-.95.15-1.42.24-.19.04-.92.3-2.2.77-1.1.41-1.82.67-2.18.79-.69.22-1.77.61-3.23 1.17-1.14.44-2 .76-2.58.96-1.44.5-2.36.83-2.76.98-.3.11-.61.21-.93.3a2.33 2.33 0 0 0-1.29-.68c5.89-2.2 9.79-3.62 11.7-4.27.2-.06.65-.12 1.37-.18l.23-.04c.2-.06.24-.13.14-.21l3-.09Z" fill="#4F6CB4"/><path d="M32.33 20.88c-.59.2-1.2.29-1.83.24-.27-.02-.5 0-.71.07a260.8 260.8 0 0 0-9.64 3.37l-2.44.9c-1.37.49-2.76.94-4.17 1.35l-.45-.58.93-.3c.4-.16 1.32-.48 2.76-.99.58-.2 1.44-.52 2.58-.96a71.3 71.3 0 0 1 3.23-1.17c.36-.12 1.09-.38 2.19-.79 1.27-.48 2-.73 2.2-.77.46-.1.93-.17 1.41-.24.13-.01.15-.07.07-.16a.67.67 0 0 0-.22-.1l4.09.13Z" fill="#5A73B5"/><path d="m9.22 20.8-.09-.02a.42.42 0 0 0-.5.3l-.02.1c-.06.22.08.44.3.5l.08.01c.22.06.45-.08.5-.3l.03-.09a.41.41 0 0 0-.3-.5Z" fill="#F0F3FA"/><path d="M25.24 20.84c.1.08.05.15-.14.2a1.1 1.1 0 0 1-.23.05c-.72.06-1.17.12-1.37.18-1.91.65-5.81 2.07-11.7 4.27-.42-.1-.84-.09-1.27.02l-.05-.17a.37.37 0 0 0 0-.2 13.5 13.5 0 0 0-.58-1.37c.03-.06.05-.07.04-.03.16-.04.31-.1.46-.17.22-.1.37-.18.45-.2a30.21 30.21 0 0 1 4-1.24c.1-.07.23-.1.4-.08.05 0 .1 0 .15-.04.1-.08.27-.11.49-.1.05 0 .1-.02.14-.05.08-.05.23-.08.45-.1l.15-.02a35.6 35.6 0 0 1 5.02-.72c.22-.05.53-.08.91-.1.31 0 .56-.03.74-.05.33-.05.65-.07.97-.08h.97Z" fill="#3D60AC"/><path d="m40.46 22-1.17.21a4.5 4.5 0 0 1-1.32-.07 9.7 9.7 0 0 0-2.43-.17l-2.3.1a24.07 24.07 0 0 0-10.27 3.1c-.64 0-1.04.02-1.21.04-1.1.16-1.63.83-1.61 2-.33.18-.62.42-.86.73a1.96 1.96 0 0 0-1.05-1.23.08.08 0 0 0-.07 0h-.04a.1.1 0 0 1-.1-.03.29.29 0 0 0-.2-.1c-.9-.05-1.54.3-1.94 1.06-.03.05-.01.08.04.1.09.03.17.02.24-.04l.24.03-.02.06-2.55-.03-.3-.95c1.41-.4 2.8-.86 4.17-1.36l2.44-.89c4.26-1.56 7.47-2.68 9.64-3.37.2-.07.44-.09.7-.07.64.05 1.25-.03 1.84-.24 2.73.17 5.44.55 8.13 1.13Z" fill="#687CBB"/><path d="M35.54 21.97c.91.2 1.6.42 2.05.64.28.14.79.47 1.53 1 .33.24.61.38.83.43.33.08.66.09.98.03.04-.01.06-.03.05-.07 0-.04-.02-.06-.06-.06h-.6a.12.12 0 0 1-.12-.06.76.76 0 0 0-.64-.35.12.12 0 0 1-.1-.07.12.12 0 0 1 0-.12.61.61 0 0 0 .1-.28c0-.05.03-.07.09-.05l1.29.46c.54.2 1.12.35 1.73.49.23.05.23.1 0 .13-.53.1-1.05.27-1.54.5-.05.01-.06.05-.05.1l.02.03c.01.04.04.06.09.07l2.75.48v2c-.2-.19-.4-.33-.64-.4a.21.21 0 0 1-.11-.09l-.4-.55a.88.88 0 0 1-.14-.3c-.08-.31-.2-.37-.33-.16-.01-.13-.1-.23-.27-.32-.16-.27-.56-.35-1.19-.23a.15.15 0 0 0-.1.08l-1 2.03c-.37-.2-.68-.44-.92-.73.04-.27 0-.45-.11-.56l.6-.93c.03-.05.03-.09-.01-.13-.32-.3-.68-.47-1.07-.5-.64-.03-1.02-.05-1.14-.07-.18-.01-.29-.06-.34-.13a4.13 4.13 0 0 0-.51-.68 1.54 1.54 0 0 0-.62-.35c-.32-.1-.65-.2-.97-.28a2.7 2.7 0 0 1-1.42-.9l2.3-.1Z" fill="#D2D3D6"/><path d="M39.3 22.21c.39.13.93.26 1.63.4.65.13 1.53.38 2.64.74.15.2.35.29.6.24.05 0 .09.01.12.05l.03.04c.02.02 0 .07-.04.13a.12.12 0 0 0-.03.06c0 .06.02.09.07.1.91.12 1.75.43 2.53.93a.36.36 0 0 0-.16 0c-.06.02-.07.05-.03.1.2.3.43.55.66.76.17.15.14.21-.09.18-.05 0-.11.02-.18.08a.2.2 0 0 1-.14.06 5.72 5.72 0 0 1-.57-.04.12.12 0 0 1-.03-.05c-.01-.04 0-.08.03-.1l.22-.16c.04-.06.03-.09-.03-.08a.63.63 0 0 0-.41.16.13.13 0 0 0-.04.14c.06.2.2.36.4.52.03.02.03.04 0 .07l-.12.1a.1.1 0 0 0-.04.12c.02.03.04.06.08.08.05.02.08 0 .1-.03l.08-.14c.03-.04.07-.06.12-.04.1.02.2.1.28.22.05.07.03.11-.05.13l-.18.03c-.06 0-.09.04-.1.1 0 .1.01.19.03.24.03.06.06.07.12.04a.84.84 0 0 1 .51-.1c.02 0 .02.02.01.03l-.13.23c-.01.03-.04.04-.08.03-.37-.1-.67-.03-.9.2-.04.04-.08.03-.12-.01l-.19-.24c-.03-.04-.03-.08.02-.11.05-.04.07-.14.07-.3a.1.1 0 0 1 .05-.1.1.1 0 0 1 .1 0l.16.07c.16.05.18 0 .08-.12-.1-.12-.23-.25-.4-.39a.11.11 0 0 0-.13-.01l-.34.16-.03-1.17c0-.05-.03-.08-.08-.08-.12 0-.17-.03-.16-.08 0-.08 0-.14-.03-.2.33-.04.62-.16.88-.36a.05.05 0 0 0 .02-.06.06.06 0 0 0-.04-.04 2.24 2.24 0 0 0-1.42.1.12.12 0 0 0-.09.11v.24c-.28-.03-.49 0-.62.08l-2.75-.48a.12.12 0 0 1-.1-.07.58.58 0 0 1 0-.03c-.02-.05-.01-.09.04-.1.5-.23 1-.4 1.54-.5.23-.04.23-.08 0-.13-.61-.14-1.2-.3-1.73-.5l-1.3-.45c-.05-.02-.08 0-.09.05 0 .11-.04.2-.09.28a.11.11 0 0 0 0 .12c.02.04.05.06.1.07.28.01.5.13.64.35.03.04.06.06.11.06h.61c.04 0 .06.02.06.06 0 .04 0 .06-.05.07-.32.06-.65.05-.98-.03a2.6 2.6 0 0 1-.83-.43 14.3 14.3 0 0 0-1.53-1 9.86 9.86 0 0 0-2.05-.64c.81-.05 1.62.01 2.43.17.44.09.88.11 1.32.07Z" fill="#BCBDBF"/><path d="M44.89 23.32a4.1 4.1 0 0 1-1.32.03c-1.1-.36-1.99-.6-2.64-.74-.7-.14-1.24-.27-1.64-.4l1.16-.2c1.5.31 2.97.75 4.44 1.31Z" fill="#9CA5D3"/><path d="M33.25 22.07c.38.46.86.76 1.42.9.32.08.65.18.97.28.25.08.46.2.62.35a4.13 4.13 0 0 1 .51.68c.05.07.16.12.34.13.12.02.5.04 1.14.08.4.02.75.19 1.07.5.04.03.04.07.01.12l-.6.93-.2-.23c-.3-.37-.68-.58-1.13-.61-.5-.04-1.57-.04-3.21 0-.05 0-.08.03-.08.08v3.09c-.1 0-.2.02-.32.07.23-.88.14-1.63-.28-2.25a2.1 2.1 0 0 0-1.53-1c-.4-.07-.9-.08-1.5-.04l.5-.05c.25-.02.28-.11.1-.27a1.52 1.52 0 0 0-.65-.32 46.5 46.5 0 0 0-2.23-.5c-.45-.1-.77-.34-.98-.75a24.07 24.07 0 0 1 6.03-1.19Z" fill="#E3E3E4"/><path d="M10.75 22.4a2.4 2.4 0 0 1-.73 1.19c-.05.04-.07.1-.08.2 0-.04 0-.03-.04.03l-.07.02c-.04-.06-.1-.06-.21-.01-.1.04-.14.12-.1.23l.64 1.49c.02.05.06.07.12.08.08.01.16-.01.25-.07a2.74 2.74 0 0 1 2.56.67l.45.58.3.95-.03.4c.92.14 1.82.21 2.7.21.23 0 .44-.04.65-.12.1.05.13.15.07.28a.54.54 0 0 1-.23.27l-.8.23c-.06.02-.07.05-.04.1.16.2.32.38.5.53.18.15.4.23.65.23.4.01.7-.02.88-.1.49-.2.79-.55.9-1.04.15-.69-.07-1.25-.66-1.68a1.35 1.35 0 0 0-1.15-.24c-.54.12-.91.4-1.11.87a.23.23 0 0 1-.24.04c-.05-.02-.07-.05-.04-.1.4-.76 1.04-1.11 1.93-1.06.1.01.16.04.2.1a.1.1 0 0 0 .11.03h.04c.03-.01.05-.01.07 0 .54.27.89.68 1.05 1.23.09.4.05.79-.12 1.14-.35.75-.96 1.1-1.83 1.06-.65-.03-1.15-.39-1.48-1.08a.13.13 0 0 0-.12-.07h-.46a3.6 3.6 0 0 1-.54-.06c-.28-.04-.6-.05-.96-.01-.06 0-.1.03-.12.08-.21.4-.47.74-.77 1-.08.05-.1.13-.06.22.18.41.35.7.5.85.14.1.17.19.1.28v.25c-.06.05-.11.11-.14.18-.02.03-.04.04-.07.03-.02 0-.03-.02-.03-.04l-.71-1.31a.14.14 0 0 0-.11-.08c-.18-.02-.28.03-.3.16-.04.1-.07.16-.12.17a.29.29 0 0 0-.07-.12.14.14 0 0 0-.14-.04c-.3.06-.6.07-.89.04-.05 0-.1.01-.12.06l-.76 1.43-.47.98c-.02.05-.02.1.02.14.2.2.3.44.34.69.02.17.05.29.09.35.03.05.02.1-.01.14a.52.52 0 0 0-.08.3c0 .1-.03.19-.07.27-.25.53-.63.85-1.17.99a1.6 1.6 0 0 1-1.53-.37 1.62 1.62 0 0 1-.59-1.46c.06-.55.34-1 .85-1.3l.1.2c-.59.32-.81.77-.68 1.34.15.61.55 1 1.19 1.17.11.03.39.04.82.02.2 0 .36-.07.48-.2.17-.2.28-.35.3-.45.14-.49.12-.96-.06-1.41a.15.15 0 0 0-.1-.1c-.14-.03-.23-.07-.28-.14.44-.84.9-1.67 1.34-2.48.05-.08.06-.14.03-.18-.02-.05-.08-.1-.17-.13l-.26-.13c-1.15-.62-1.6-1.63-1.33-3.03.03-.2.14-.4.3-.64.22-.28.4-.47.55-.55.13-.09.17-.2.12-.35l-.42-1.16c-.06-.16-.14-.18-.27-.06-.33.32-.62.42-.85.3.3-.21.58-.4.86-.54.05-.02.08-.05.09-.09v-.06c0-.06-.03-.08-.09-.08a2.08 2.08 0 0 1-2.34-1.65l.05-.12a.06.06 0 0 1 .06-.04c.04 0 .06.02.06.05.17.56.5 1.02.98 1.37a.9.9 0 0 0 .63.14c.56-.05.88-.1.95-.13.53-.26.9-.67 1.07-1.23.02-.05.05-.07.1-.07l.17.02Z" fill="#114EA4"/><path d="M44.89 23.32c1.35.5 2.4 1.03 3.13 1.6.4.32.78.66 1.14 1.01a.3.3 0 0 1 .08.15c0 .04 0 .06-.05.07-.06.01-.1.06-.12.13l-2.22-1.38a6.11 6.11 0 0 0-2.53-.93c-.05-.01-.08-.04-.07-.1 0-.02 0-.04.03-.06.05-.06.06-.1.04-.13l-.03-.04a.12.12 0 0 0-.12-.05.58.58 0 0 1-.6-.24c.43.06.87.05 1.32-.03Z" fill="#CFD3E9"/><path d="M9.83 23.84c.14.47.31.94.5 1.4a.3.3 0 0 0 .15.15l.05.17a.36.36 0 0 1-.25.07.14.14 0 0 1-.12-.08l-.63-1.5c-.05-.1-.02-.18.09-.22.1-.05.17-.05.2 0Z" fill="#E3E3E4"/><path d="M9.9 23.82c.21.44.4.9.57 1.37.02.06.03.13.01.2a.3.3 0 0 1-.14-.16c-.2-.45-.37-.92-.51-1.4l.07-.01Z" fill="#8893CB"/><path d="M9.04 26.65c-.67.3-1.34.56-2.03.8-.44.14-.75.52-.94 1.1a2.7 2.7 0 0 1 .16-1.73 4.81 4.81 0 0 1 1.93-1.98c.23.11.52 0 .85-.31.13-.12.22-.1.27.06l.42 1.16c.05.15.01.26-.12.35-.15.08-.33.27-.54.55Z" fill="#3D60AC"/><path d="M45.2 25.2h-.64v-.25c0-.05.03-.1.09-.11.46-.2.93-.22 1.42-.1.02 0 .03.02.04.04 0 .02 0 .04-.02.06-.26.2-.55.32-.88.35Z" fill="#A2A3A8"/><path d="m46.85 24.9 2.22 1.38c.13.1.27.2.42.28.12.08.2.16.25.24.2.35.28.75.25 1.22-.02.43-.14.82-.34 1.18-.26.47-.63.89-1.1 1.26-.62.5-1.3.96-2.02 1.39-.15.05-.39.05-.71.01.01-.12-.03-.22-.14-.32-.04-.04-.04-.08.02-.1l.09-.04a.13.13 0 0 0 .08-.12c.01-.09-.03-.15-.13-.19-.05-.02-.08-.05-.08-.11v-.62a.18.18 0 0 0-.08-.16.94.94 0 0 1-.37-.55l2.34.07c.1 0 .14-.04.14-.14v-.66c0-.05-.02-.08-.08-.09a.44.44 0 0 1-.2-.06c-.04-.04-.05-.08-.01-.11.02-.03.03-.06.02-.09a.07.07 0 0 0-.08-.05c-.51.03-1.04.03-1.57 0-.14 0-.23-.09-.28-.24l.02-1.55.34-.16a.11.11 0 0 1 .13.01c.17.14.3.27.4.4.1.12.08.16-.08.1-.03 0-.08-.02-.15-.06a.1.1 0 0 0-.11 0 .1.1 0 0 0-.05.1c0 .16-.02.26-.07.3-.05.03-.05.07-.02.11l.2.24c.03.04.07.05.11 0 .23-.22.53-.28.9-.19.04 0 .07 0 .08-.03l.13-.23c.01-.01 0-.02-.01-.02a.84.84 0 0 0-.51.1c-.06.02-.1 0-.12-.05a.56.56 0 0 1-.02-.23c0-.07.03-.1.1-.11l.17-.03c.08-.02.1-.06.05-.13a.49.49 0 0 0-.28-.22c-.05-.02-.1 0-.12.04l-.08.14c-.02.04-.05.05-.1.03a.14.14 0 0 1-.08-.08.1.1 0 0 1 .04-.12l.12-.1c.03-.03.03-.05 0-.07-.2-.16-.34-.33-.4-.52-.02-.06 0-.1.04-.14.1-.1.23-.15.4-.16.07-.01.08.02.04.08l-.22.16c-.03.02-.04.06-.03.1 0 .02.02.03.03.05a5.72 5.72 0 0 0 .57.04.2.2 0 0 0 .14-.06c.07-.06.13-.09.18-.08.23.03.26-.03.09-.18-.23-.2-.45-.46-.66-.76-.04-.05-.03-.08.03-.1h.16Z" fill="#8F9094"/><path d="m22.97 25.17 1.76.03c.06 0 .1.03.12.08a.2.2 0 0 1 0 .19c.02.18.02.37-.02.56-.01.06-.04.08-.1.08-.68-.02-1.38-.02-2.07-.01-.66 0-1.04.33-1.15.98-.09.54.02.95.34 1.23.18.15.35.23.5.23h1.11c.06 0 .09-.03.1-.08.03-.14.03-.3.01-.46.05-.2-.2-.26-.76-.2a.24.24 0 0 0-.2-.07c-.08 0-.12-.03-.12-.1v-.65c0-.07.04-.1.11-.1h2.13c.05 0 .1.02.11.07l.07.2-.06 2.2c0 .06-.03.1-.1.1l-2.96-.01c-.14 0-.42-.08-.84-.24-.6-.46-.87-1.12-.8-1.98-.02-1.18.52-1.85 1.61-2.01.17-.02.57-.04 1.21-.04ZM30.48 25.15c.6-.04 1.1-.03 1.5.04.7.12 1.2.45 1.53 1 .17.66.2 1.27.08 1.82-.08.43-.28.77-.58 1.02-.32.27-.7.42-1.16.47-.78.09-1.55 0-2.32-.26-.37-.3-.61-.6-.72-.91a3.08 3.08 0 0 1-.13-1.48c.08-.55.3-.97.68-1.27.23-.2.6-.34 1.12-.43ZM26.52 25.47c0 .8 0 1.6.02 2.41 0 .26.09.38.24.35.05.19.16.29.32.3.22.03.72.03 1.5 0 .05 0 .09.02.1.07.02.05.03.1.03.18l.04.48c.02.13-.04.2-.18.2l-1.77-.02c-.15 0-.3-.03-.45-.08l-.46-.12c-.41-.3-.62-.7-.64-1.22l.02-2.75c0-.05.02-.08.07-.08h1.03c.06 0 .09.03.1.09l.03.2ZM38.52 25.8c.2.65.05 1.14-.46 1.48-.05.03-.05.07-.01.1.04.06.11.09.21.1l.4.43c.08.65-.07 1.1-.44 1.34-.2.13-.6.2-1.2.2l-2.63-.02c-.03 0-.05.01-.07.04a.45.45 0 0 1-.15-.04.13.13 0 0 1-.07-.12v-.94l.01-3.09c0-.05.03-.08.08-.08 1.64-.04 2.71-.04 3.21 0 .45.03.83.24 1.12.6ZM42.05 25.45l1.87 3.83c.02.05.01.09-.02.13a.1.1 0 0 1-.12.04 1.72 1.72 0 0 0-.99.07l-.37-.6-.1-.13c0-.16-.07-.24-.2-.24a16 16 0 0 0-1.58.02c-.06 0-.1.04-.13.09l-.3.7c-.05.08-.12.12-.22.1-.52-.1-.8-.02-.85.2l-.24-.26a.1.1 0 0 1-.02-.12l.99-1.95.98-2.03a.15.15 0 0 1 .11-.08c.63-.12 1.03-.04 1.2.23ZM44.56 25.2h.65c.02.06.03.12.03.2v2.5c0 .23.09.35.25.38.05.15.14.24.28.24.53.03 1.06.03 1.57 0 .03 0 .06.02.08.05.01.03 0 .06-.02.09-.04.03-.03.07.01.1.05.2.06.39.04.59-.01.05-.04.08-.1.08-.9.06-1.78.02-2.64-.12-.3-.23-.47-.42-.54-.57a2.82 2.82 0 0 1-.2-1.26l-.03-.2v-2.01c.13-.09.34-.11.62-.08Z" fill="#00AD4A"/><path d="m45.5 26.73-.01 1.55c-.16-.03-.24-.15-.25-.38v-2.5c-.01.05.04.08.16.08.05 0 .08.03.08.08l.03 1.17ZM24.84 25.47l.15.01c.06.01.09.04.08.1v.71c0 .05-.04.07-.11.07h-1.92c-.41 0-.7.06-.88.18-.27.19-.4.48-.42.9 0 .3.03.59.1.87-.3-.28-.42-.69-.33-1.23.11-.65.5-.98 1.15-.98h2.08c.05.01.08-.01.09-.07.04-.19.04-.38.01-.56ZM26.78 28.23c-.15.03-.23-.1-.24-.35-.02-.8-.03-1.6-.02-2.4l.18-.02c.05 0 .08.02.08.08v2.7ZM42.32 25.77l.96 1.97.93 1.85c.03.06 0 .1-.06.11-.54.08-.99.02-1.36-.18.31-.12.65-.14 1-.07a.1.1 0 0 0 .11-.04.11.11 0 0 0 .02-.13l-1.87-3.83c.17.09.26.2.27.32Z" fill="#114EA4"/><path d="M11.81 25.8c-1.35.2-2.12.81-2.32 1.84-.12.62.07 1.19.57 1.7.45.46 1.01.65 1.68.56.68-.1 1.17-.43 1.49-1.02.1-.17.21-.48.35-.92.02.6-.18 1.12-.58 1.57a2.2 2.2 0 0 1-1.7.76c-.68 0-1.24-.24-1.7-.72a2.18 2.18 0 0 1-.6-1.72c.05-.7.36-1.26.93-1.68a2.2 2.2 0 0 1 1.88-.37Z" fill="#3D60AC"/><path d="m43.94 27.28.03.2c-.06.17-.08.35-.05.54 0 .03-.01.05-.04.05l-.06.01c-.05.01-.08 0-.08-.06l-.02-.35a.3.3 0 0 0-.04-.13c-.1-.17-.2-.24-.29-.2-.05.02-.06.06-.05.1.06.17.04.27-.06.3l-.96-1.97c.14-.2.25-.15.33.17.04.1.08.2.14.29l.4.55c.02.04.06.07.11.09.24.07.45.21.64.4Z" fill="#E3E3E4"/><path d="M11.81 25.8c.51.12.93.38 1.26.78.33.4.5.86.51 1.38-.14.44-.26.75-.35.92-.32.59-.81.93-1.49 1.02-.67.09-1.23-.1-1.68-.56a1.84 1.84 0 0 1-.57-1.7c.2-1.03.97-1.64 2.32-1.84Z" fill="#5A73B5"/><path d="M38.73 26.04c.11.1.15.3.11.56 0 .4-.2.69-.58.89a.38.38 0 0 1-.21-.1c-.04-.04-.04-.08.01-.11.51-.34.67-.83.46-1.47l.2.23ZM32.1 26.37c-.39-.1-.73-.11-1.02-.07a.92.92 0 0 0-.8.64c-.12.33-.11.77.02 1.32h-.08a.18.18 0 0 1-.1-.1 2.3 2.3 0 0 1-.14-1.2c.07-.52.35-.83.85-.91.5-.09.92.02 1.27.32ZM37.19 26.31H35.7c-.05 0-.08.03-.09.08l-.05.48c-.26.05-.33-.19-.22-.72 0-.05.04-.08.1-.08h1.47c.24.02.33.1.27.24Z" fill="#114EA4"/><path d="M13.26 27.87c0 .45-.17.84-.5 1.16a1.6 1.6 0 0 1-1.16.49 1.6 1.6 0 0 1-1.18-.49c-.32-.32-.48-.7-.48-1.16 0-.46.16-.84.48-1.16a1.6 1.6 0 0 1 1.18-.49c.45 0 .85.16 1.17.49.32.32.49.7.49 1.16Z" fill="#7786C2"/><path d="M33.5 26.2c.43.61.52 1.36.29 2.24-.19.6-.6 1-1.22 1.2a3.44 3.44 0 0 1-3.04-.4c.77.26 1.55.35 2.32.26.46-.05.84-.2 1.16-.47.3-.25.5-.6.58-1.02.11-.55.09-1.16-.08-1.82Z" fill="#114EA4"/><path d="M32.1 26.37c.24.37.32.84.22 1.41a.92.92 0 0 1-.64.78c-.3.1-.65.1-1.06 0-.14-.04-.24-.14-.32-.3a2.35 2.35 0 0 1-.01-1.32c.13-.37.4-.58.79-.64.3-.04.63-.02 1.02.07ZM37.19 26.31c.11.03.13.15.05.36a.24.24 0 0 1-.24.18l-1.43.02.05-.48c0-.05.04-.08.1-.08h1.47Z" fill="#F0F3FA"/><path d="M10.9 29a1.34 1.34 0 0 1-.58-.9c-.07-.39 0-.74.24-1.06.22-.33.53-.52.92-.6.38-.07.74 0 1.06.23.32.22.52.52.58.91.07.38 0 .74-.23 1.06-.23.32-.54.52-.92.6-.4.06-.75-.01-1.07-.23Z" fill="#8893CB"/><path d="M38.84 26.6c.24.3.55.54.93.73l-.99 1.95a.1.1 0 0 0 .02.12l.24.27c.92.15 1.4.02 1.47-.4.19.13.27.31.24.53-.01.06.02.1.08.1h.54c.06 0 .1-.03.14-.08.06-.11.15-.18.26-.21.05-.02.1 0 .12.05a.4.4 0 0 0 .4.21l-.07.2c-.02.06-.05.08-.1.08a3.6 3.6 0 0 1-1.58-.32c-.05-.03-.08-.01-.1.04l-.1.28c-.18.5-.23.82-.14.99.19.36.3.64.35.83-.38.2-.61.5-.7.9-.04.14-.04.47-.03 1l-.05-.08c0-.02 0-.02-.02 0l-.04.01c.03-.38.02-.7-.02-.94a.81.81 0 0 0-.3-.5c-.28-.34-.6-.5-.95-.5h-.88c.05-.26.08-.52.09-.76 0-.08-.02-.14-.05-.17a.32.32 0 0 0-.17-.08.41.41 0 0 0-.05-.15c-.02-.04-.06-.06-.13-.06l-.72.01c-.06 0-.09.03-.09.09l.01.1a4.38 4.38 0 0 0-.24-.62c-.05-.1-.1-.15-.15-.16-.08-.02-.16 0-.24.08a.12.12 0 0 1-.12.01c-.15-.05-.22-.14-.22-.25 0-.06-.03-.09-.09-.1l-.89-.04c-.04-.01-.06-.03-.08-.06 1-.01 1.98-.02 2.97 0 .42 0 .74-.06.97-.19.6-.34.7-.87.3-1.6l-.4-.42c.38-.2.57-.5.58-.89Z" fill="#BCBDBF"/><path d="M9.04 26.65c-.17.23-.28.45-.31.64-.26 1.4.18 2.41 1.33 3.03l-1.65 3.1c-.05.1-.08.09-.09-.02l-.03-.34a.29.29 0 0 0 0-.16c-.01-.04-.03-.06-.06-.06a.17.17 0 0 0-.1.05c-.24 0-.47.03-.68.12l-.1-.2c.23-.15.41-.22.56-.21l.48.01c.06 0 .1-.02.13-.06l.5-.87c.04-.06.02-.1-.04-.14a8.42 8.42 0 0 1-2.03-1.5 3.57 3.57 0 0 1-.88-1.48c.19-.6.5-.96.94-1.11.69-.24 1.36-.5 2.03-.8Z" fill="#5A73B5"/><path d="M11.33 26.74c.12-.09.25-.12.4-.1.26.06.5.15.73.28.27.15.42.4.46.75a1.06 1.06 0 0 1-1.09 1.23c-.38 0-.7-.17-.96-.53-.1-.15-.17-.49-.19-1.02 0-.05.02-.1.06-.13l.6-.48Z" fill="#9CA5D3"/><path d="M17 28.8c.32.32.7.5 1.14.54.06 0 .1-.02.14-.05.24-.21.4-.46.47-.74.06-.26.05-.5-.05-.73a.87.87 0 0 0-.5-.47c-.27-.1-.56-.09-.9.02-.3.1-.6.22-.9.36l-.23-.03c.2-.46.57-.75 1.1-.87.43-.1.81-.02 1.16.24.59.43.8.99.66 1.68-.11.49-.4.84-.9 1.04-.19.08-.48.11-.88.1-.25 0-.47-.08-.65-.23a2.9 2.9 0 0 1-.5-.53c-.03-.05-.02-.08.04-.1l.8-.23Z" fill="#5A73B5"/><path d="m41.5 27.08-.26.6c-.13.06-.22.06-.29 0-.04-.03-.05-.07-.02-.12.14-.22.25-.47.33-.73.01-.06.05-.07.1-.05.11.05.16.15.15.3Z" fill="#114EA4"/><path d="M11.54 28.6a1.2 1.2 0 0 1-.33-.88c.03-.33.23-.55.6-.68.13-.05.39-.01.76.1.05.02.08.05.1.1.08.25.14.47.17.67.02.11 0 .2-.05.27a2.62 2.62 0 0 1-1.18.45c-.03 0-.05-.01-.07-.04Z" fill="#CFD3E9"/><path d="m11.55 27.96-.03-.2a.35.35 0 0 1 0-.2c.15-.34.38-.47.7-.4.18.03.31.12.39.25.08.12.1.27.04.43-.1.33-.28.45-.54.37l-.5-.17a.1.1 0 0 1-.06-.08ZM41.5 27.08c.15.16.24.33.29.51.01.05-.01.08-.06.1-.16.02-.32.02-.5 0l.28-.61Z" fill="#F0F3FA"/><path d="M17 28.8c.1-.06.18-.15.23-.27.06-.13.04-.23-.07-.28l.04-.03c.07-.22-.07-.34-.4-.37a2.16 2.16 0 0 1-.4-.06v-.06c.3-.14.6-.26.9-.36.34-.11.63-.12.9-.02.22.09.4.25.5.47.1.23.11.47.05.73-.07.28-.23.53-.47.74a.18.18 0 0 1-.14.05A1.8 1.8 0 0 1 17 28.8Z" fill="#9CA5D3"/><path d="M24.91 27.15c.12 0 .18.03.17.08v2.4c0 .04-.01.06-.05.06H21.9c-.28 0-.6-.17-.95-.49.42.16.7.24.84.24h2.97c.06 0 .1-.03.1-.1l.05-2.19Z" fill="#114EA4"/><path d="M43.97 27.48c-.02.52.05.95.2 1.26.07.15.25.34.54.57.07.1.24.21.5.34.05.22.17.4.37.55.06.04.08.1.08.16v.62c0 .06.03.1.08.11.1.04.14.1.13.2 0 .05-.03.1-.08.11l-.09.04c-.06.02-.06.06-.02.1.11.1.15.2.14.32h-.68c.08-.28.12-.54.13-.78 0-.17-.04-.18-.14-.04a1.1 1.1 0 0 0-.17.84l-1.9-.02c-.08 0-.12.04-.12.12v1.26c-.13-.1-.22-.07-.25.06l-.18.03c-.04-.23-.18-.33-.43-.3-.28.02-.55 0-.83-.09.48-.11.96-.15 1.43-.1.06 0 .1-.01.1-.07.1-.4.02-.65-.26-.77 0-.12-.07-.17-.2-.14a.8.8 0 0 1-.21.03 6.36 6.36 0 0 0-1.56.08 4.12 4.12 0 0 0-.35-.83c-.09-.17-.04-.5.14-1l.1-.27c.02-.05.05-.07.1-.04a3.6 3.6 0 0 0 1.58.32c.05 0 .08-.02.1-.07l.07-.21.24-.33a.12.12 0 0 0 .01-.14c-.07-.15-.1-.3-.12-.47l.37.6c.37.2.82.25 1.36.17.07-.01.09-.05.06-.11l-.93-1.85c.1-.03.12-.13.06-.3-.01-.04 0-.08.05-.1.1-.04.2.03.29.2.03.04.04.09.04.13l.02.35c0 .05.03.07.08.06h.06c.03-.01.04-.03.04-.06-.03-.19-.01-.37.05-.54Z" fill="#A2A3A8"/><path d="M17.4 28.54c-.15-.34-.1-.63.18-.88.2-.17.37-.22.55-.15.25.1.42.26.5.47.13.3.01.57-.34.83a.13.13 0 0 1-.12.02l-.64-.18a.19.19 0 0 1-.13-.11Z" fill="#CFD3E9"/><path d="M18.08 28.52a.4.4 0 0 0 .4-.4.4.4 0 0 0-.4-.4.4.4 0 0 0-.4.4c0 .22.18.4.4.4Z" fill="#F0F3FA"/><path d="M37.28 28.04H35.7c-.05 0-.08.02-.08.07l-.06.5c-.26.02-.33-.22-.22-.73 0-.05.04-.08.1-.08a11.1 11.1 0 0 1 1.55-.02c.15.01.24.1.28.26ZM23.57 28c-.23.04-.46.04-.7.01-.06 0-.09-.04-.1-.1 0-.03 0-.07.04-.1.56-.07.81-.01.76.19ZM38.67 27.9c.4.74.3 1.27-.31 1.61-.23.13-.55.2-.97.19-.99-.02-1.98-.01-2.97 0-.06 0-.1-.07-.1-.23.02-.03.04-.05.07-.04l2.63.01c.6 0 1-.06 1.2-.19.37-.24.52-.69.45-1.34Z" fill="#114EA4"/><path d="M37.28 28.04c.1.29-.03.48-.4.56a5.2 5.2 0 0 1-1.31 0l.06-.49c0-.05.03-.08.08-.08l1.57.01Z" fill="#BCBDBF"/><path d="m17.2 28.22-.04.03c-.21.08-.42.13-.64.12-.9 0-1.8-.07-2.71-.2 1.11-.13 2.24-.1 3.4.05Z" fill="#5A73B5"/><path d="M42.31 28.8h-1.5c-.06 0-.1.02-.13.07l-.17.4c-.06.42-.55.55-1.47.4.05-.23.33-.3.85-.21.1.02.17-.02.21-.1l.31-.7a.15.15 0 0 1 .13-.1c.17-.02.7-.02 1.58 0 .13 0 .2.07.2.23ZM28.73 28.78c.27.03.36.3.3.82-.02.05-.05.08-.1.08a77 77 0 0 1-2.14.01c-.3 0-.6-.15-.88-.45l.46.12c.15.05.3.08.45.08l1.77.01c.14 0 .2-.06.18-.2l-.04-.47ZM45.2 29.65a1.35 1.35 0 0 1-.5-.34c.87.14 1.76.18 2.66.12.05 0 .08-.03.09-.08.02-.2.01-.4-.04-.58.05.03.12.05.2.06.06 0 .08.04.08.09v.66c0 .1-.05.14-.14.14l-2.34-.07Z" fill="#114EA4"/><path d="M17.34 30.14a12.6 12.6 0 0 0-2.01 3.53c-.02.05-.05.08-.1.08-.27.02-.44-.05-.5-.22l.2-.42.03-.15a2.55 2.55 0 0 1 0-.5.83.83 0 0 0-.11-.52 1.6 1.6 0 0 0-1.52-.87 2.95 2.95 0 0 1-.5-.85c-.04-.09-.02-.17.06-.23.3-.25.56-.58.77-.99a.15.15 0 0 1 .12-.08c.36-.04.68-.03.96.01a3.58 3.58 0 0 0 1 .06c.05 0 .1.02.12.07.33.7.83 1.05 1.48 1.08Z" fill="#8893CB"/><path d="M36.45 30.84v3.55l-.2.02c-.08-.15-.16-.2-.24-.13-.03-.16-.08-.24-.17-.24-.52 0-1.03-.01-1.53-.03-.15-.01-.3-.1-.48-.3l-.04-.73 1.07-.14c.06 0 .1-.04.1-.1l.03-.24c.04-.27-.05-.32-.26-.15a.74.74 0 0 1-.41.13c-.09.01-.1-.02-.05-.08l.5-.6h1.33c.06 0 .09-.03.1-.08l.03-.68c0-.07-.01-.11-.04-.13-.05-.03-.1-.02-.18.02a.56.56 0 0 0-.06-.22.13.13 0 0 0-.12-.07l-1.12-.01c.1-.18-.07-.3-.47-.37-.04 0-.06-.02-.06-.05 0-.04.01-.07.06-.08.22-.04.3-.17.26-.37l.9.05c.05 0 .08.03.08.09 0 .11.07.2.22.25.04.02.08.02.12-.01.08-.07.16-.1.24-.08.05 0 .1.06.15.16.1.2.18.41.24.62Z" fill="#D2D3D6"/><path d="M13.2 31.77c-.01.09-.03.14-.05.16-.04.03-.1.04-.16.03l-.48-.73-.45-.7c.03-.12.13-.17.3-.15.06 0 .1.03.12.08l.71 1.31Z" fill="#F0F3FA"/><path d="m9.12 33.24-.3.33a.05.05 0 0 0-.02.06c.02.02.03.03.06.03h.17c-.08.53-.34.84-.77.94-.17.03-.3-.01-.4-.14-.5-.62-.41-1.15.28-1.57a.17.17 0 0 1 .09-.05c.03 0 .05.02.06.06v.16c-.01-.06-.05-.1-.1-.1s-.1.02-.15.07c-.41.23-.52.53-.33.9.08.17.19.27.3.3.19.04.34.05.47.04.22-.03.31-.17.27-.43a1.46 1.46 0 0 0-.08-.28l1.65-3.1c.09.03.15.07.17.12.03.04.02.1-.03.18-.45.81-.9 1.64-1.34 2.48Z" fill="#9CA5D3"/><path d="M11.95 30.71c.07.23.2.48.4.75-.34.41-.5.87-.47 1.36l-1.91-.74.76-1.43a.11.11 0 0 1 .12-.06c.3.03.59.02.89-.04.05-.02.1 0 .14.04.03.03.05.07.07.12Z" fill="#8893CB"/><path d="m12.51 31.23.07 1.57c0 .04 0 .07.03.1a1 1 0 0 0 .58.4c.4.1.73.05.99-.15.25-.2.4-.52.48-.95.05.28.06.55.03.8a.46.46 0 0 1-.2.35c-.34.23-.69.33-1.04.31-.4-.02-.7-.2-.91-.53-.13-.2-.22-.5-.28-.9-.02-.15.05-.29.19-.42a.16.16 0 0 0 .05-.13.23.23 0 0 0-.15-.22 2.6 2.6 0 0 1-.4-.75c.05-.01.08-.07.11-.17l.45.7Z" fill="#5A73B5"/><path d="M24.02 31.24c.13.66 0 1.15-.41 1.47-.05.04-.05.08-.02.12.04.06.11.1.2.14l.26.32c.22 1.04-.13 1.6-1.04 1.64-.44.02-1.27.02-2.49 0-.07 0-.1.03-.1.08l-.19-.1a.13.13 0 0 1-.07-.13v-4.05c0-.06.03-.1.1-.1h2.37c.3 0 .55.04.75.14.26.1.47.26.64.47ZM34.7 30.63h1.13c.06 0 .1.03.12.08.03.06.05.13.06.22-.04.14-.04.3-.01.47 0 .05 0 .1-.04.14a.16.16 0 0 1-.13.05c-.5-.02-1-.02-1.51 0-.25.02-.43.1-.53.28-.38.67-.37 1.29.04 1.84.18.2.34.29.48.3.5.02 1.01.03 1.52.03.1 0 .15.08.18.24-.03.17-.04.34-.01.52.01.1-.03.15-.13.14h-1.63c-.16 0-.34-.03-.52-.07a8.28 8.28 0 0 1-.52-.13c-.2-.16-.38-.37-.54-.63l-.23-.52-.09-1c0-.02-.01-.04-.04-.04h-.04c-.05 0-.07.03-.07.08v.66c0 .03-.02.05-.05.05h-2.36c-.03 0-.05 0-.07.03l-.04.03c-.02-.06-.1-.08-.22-.08l-.1-.46.03-.57c0-.06.03-.09.08-.09h2.6c.07 0 .1.03.12.1l.02.1c.01.07.05.1.11.1.08-.01.12-.04.12-.1 0-.55.17-.98.49-1.3.31-.31.75-.47 1.3-.47h.49ZM37.43 30.85c-.12.5-.07.84.13 1.02h.88c.35-.01.67.15.96.49l.05 2.46c0 .06-.02.08-.07.08-.28.01-.5.08-.67.2.12-.06.07-.13-.14-.23-.1-.04-.11-.08-.05-.12l.01-1.82c-.06-.2-.33-.3-.82-.28h-.15c-.1 0-.14.04-.14.13v2.04c0 .07-.04.1-.1.1h-.7c-.15 0-.2-.18-.17-.53v-3.55a.33.33 0 0 1 0-.1c0-.06.02-.09.08-.09h.72c.07 0 .11.01.13.05l.05.15ZM25.55 31.08a.45.45 0 0 0-.02.35c.02.04.01.07-.01.1a.11.11 0 0 1-.1.05l-.57-.02-.23-.02c-.04 0-.06-.02-.06-.07v-.6c0-.05.02-.07.07-.07h.8c.06 0 .08.02.08.07-.02.1 0 .17.04.21Z" fill="#00AD4A"/><path d="M37.56 31.87c-.2-.18-.25-.52-.13-1.02.08.01.13.04.17.08.03.03.05.09.05.17-.01.24-.04.5-.09.77ZM34.78 31.8c-.67.01-1 .4-.99 1.18l.04.73c-.41-.55-.42-1.17-.04-1.84.1-.17.28-.26.53-.28.51-.02 1.01-.02 1.5 0 .06 0 .1-.01.14-.05a.15.15 0 0 0 .04-.14c-.03-.18-.03-.33.01-.47.08-.04.13-.05.18-.02.03.02.04.06.04.13 0 .22-.01.45-.04.68 0 .05-.03.08-.09.08h-1.32Z" fill="#114EA4"/><path d="M45.14 31.86a.4.4 0 0 0-.18.02c-.05-.33 0-.6.17-.84.1-.14.15-.13.14.04 0 .24-.05.5-.13.78Z" fill="#D2D3D6"/><path d="M14.73 33.53c-.15.1-.3.23-.43.38-.06.07-.22.14-.47.2-.17.06-.34.07-.5.05-.78-.1-1.26-.54-1.45-1.34-.02-.5.13-.95.47-1.36.1.03.15.11.15.22 0 .05-.01.1-.05.13-.14.13-.2.27-.19.42.06.4.15.7.28.9.21.34.52.51.91.53.35.02.7-.08 1.04-.31.12-.08.19-.2.2-.35.03-.25.02-.52-.03-.8-.18-.56-.59-.84-1.23-.85.07-.09.04-.18-.1-.28a1.6 1.6 0 0 1 1.52.87c.1.18.13.35.12.51-.02.17-.03.34-.01.51 0 .05 0 .1-.03.15l-.2.42Z" fill="#3D60AC"/><path d="m24.85 31.56.57.02c.04 0 .07-.01.1-.04a.11.11 0 0 0 .01-.11.45.45 0 0 1 .02-.35l.18.01c.05 0 .08.04.08.1v.48c0 .06-.03.1-.09.1-.33.08-.6.08-.82 0-.07-.03-.08-.1-.05-.21Z" fill="#114EA4"/><path d="m12.99 31.96.11.77c.01.05.04.1.08.12.53.32.95.24 1.25-.24a.17.17 0 0 0 .02-.12l-.09-.49a.14.14 0 0 0-.1-.11l-.83-.29v-.25c.64 0 1.05.3 1.23.85-.07.43-.23.75-.48.95-.26.2-.6.25-1 .15a1 1 0 0 1-.57-.4.18.18 0 0 1-.03-.1l-.07-1.57.48.73Z" fill="#8893CB"/><path d="M24.02 31.24c.48.62.4 1.2-.23 1.73a.47.47 0 0 1-.2-.14c-.03-.04-.03-.08.02-.12.4-.32.54-.81.4-1.47ZM22.9 31.77l-1.31.01c-.05 0-.09.03-.1.08-.04.14-.04.29 0 .46l-.07.07c-.05 0-.1 0-.15-.04a.17.17 0 0 1-.06-.14v-.6c.01-.07.05-.11.12-.11.35 0 .76.02 1.25.07.2.01.3.08.31.2Z" fill="#114EA4"/><path d="M12.99 31.96c.06.01.12 0 .16-.03.02-.02.04-.07.04-.16 0 .02.01.03.03.04.03 0 .05 0 .07-.03a.48.48 0 0 1 .14-.18l.83.29c.06.02.09.05.1.11l.1.49c0 .04 0 .08-.03.12-.3.48-.72.56-1.25.24a.16.16 0 0 1-.08-.12l-.11-.77Z" fill="#CFD3E9"/><path d="M29.22 32.75c-.05.06-.05.21 0 .46.08.5-.02.92-.31 1.26-.26.3-.62.47-1.06.5a2.7 2.7 0 0 1-1.31-.24c-.35-.25-.54-.66-.58-1.25-.03-.48.05-.84.24-1.09.25-.32.6-.51 1.06-.58.43-.07.84 0 1.22.19.33.16.57.41.74.75Z" fill="#00AD4A"/><path d="M22.9 31.77c.12.16.08.33-.14.5a.22.22 0 0 1-.14.05h-1.14a1.04 1.04 0 0 1 0-.46c.02-.05.06-.08.1-.08h1.31ZM14.04 31.87c.1-.01.16.04.16.13l.02.2c0 .1-.03.2-.1.27a.35.35 0 0 1-.25.13h-.06c-.1.01-.2-.02-.27-.1a.37.37 0 0 1-.12-.25l-.02-.2c0-.1.04-.14.14-.15l.5-.03Z" fill="#F0F3FA"/><path d="m25.52 32.04.02 2.76c0 .09-.04.13-.13.13h-.57c-.09.01-.16 0-.2-.01a.1.1 0 0 1-.07-.1v-2.86c0-.05.02-.07.07-.08.36-.06.66-.01.88.16ZM42.52 32c.04.18.04.36 0 .53 0 .06-.03.08-.09.08l-.16-.02a4.47 4.47 0 0 0-.79 0c-.29.03-.5.13-.63.3-.04.06-.03.1.05.1.15.03.27.01.35-.05.28.08.55.11.83.08.25-.02.4.08.43.3a.25.25 0 0 0-.05.23c.01.05 0 .1-.03.13a.14.14 0 0 1-.11.05h-1.38a.1.1 0 0 0-.08.05.1.1 0 0 0 0 .1c.05.09.12.14.2.15l.08.08c.04.04.08.06.14.06h1.13c.06 0 .1.03.12.09.02.04.02.1.01.18l.01.4c0 .06-.03.1-.1.1h-1.83c-.39-.26-.66-.62-.8-1.07-.01-.53 0-.86.03-1 .09-.4.32-.7.7-.9.5-.1 1.02-.12 1.56-.08a.8.8 0 0 0 .21-.03c.13-.03.2.02.2.14ZM44.96 31.88a.4.4 0 0 1 .18-.02h.68c.32.04.56.04.71-.01.38.13.66.33.82.6v2.4c0 .07-.03.1-.1.1h-.57a.5.5 0 0 1-.22-.07.15.15 0 0 1-.07-.12 31.54 31.54 0 0 1 0-1.83l-.02-.03a.14.14 0 0 0 .01-.1.1.1 0 0 0-.05-.06 1 1 0 0 0-.62-.08c-.06 0-.1.04-.1.1v2.1c0 .04-.02.07-.06.07a5.7 5.7 0 0 1-.58 0c-.05.02-.06.06-.04.1l-.2-.14a.14.14 0 0 1-.06-.12v-1.91c-.02-.2-.26-.27-.72-.2-.05.02-.08.05-.08.11v2.06c0 .05-.03.08-.08.08l-.6.08-.15-.1a.14.14 0 0 1-.07-.12l-.02-1.53v-1.26c0-.08.03-.12.12-.12l1.89.02Z" fill="#00AD4A"/><path d="M41.25 32.94c-.08.06-.2.08-.35.06-.08-.02-.1-.05-.05-.11.13-.17.34-.27.63-.3a4.48 4.48 0 0 1 .95.02c.06 0 .09-.02.1-.08.03-.17.03-.35 0-.53.27.12.36.38.25.77 0 .06-.04.08-.1.07a4.25 4.25 0 0 0-1.43.1ZM24.84 34.93h.57c.09 0 .13-.04.13-.13l-.02-2.76.23.12a.1.1 0 0 1 .06.11c-.04.74-.04 1.31-.01 1.72.02.34.02.7 0 1.1 0 .05-.03.08-.09.08h-.76c-.05 0-.08-.03-.1-.08a.35.35 0 0 1 0-.16ZM39.7 33.8l.01 1.26c0 .06-.03.09-.08.1-.28.04-.59.02-.92-.07.17-.12.4-.18.67-.19.05 0 .08-.02.07-.08l-.05-2.46c.15.12.25.29.29.5.04.24.05.56.02.94ZM46.68 34.96h.56c.08 0 .12-.04.12-.12v-2.39c.16.14.25.3.25.51.02.89.02 1.6.02 2.12 0 .05-.02.08-.08.08h-.74c-.06 0-.1-.02-.11-.08a.32.32 0 0 1-.02-.12ZM28.06 32.81c-.38-.1-.65 0-.8.3-.14.27-.16.58-.08.94-.16-.06-.25-.2-.25-.42-.03-.61.12-.96.43-1.05a.73.73 0 0 1 .66.1c.06.05.08.1.04.13ZM32.43 33.59h-2.19l-.45.02c-.05 0-.08-.02-.1-.07a.45.45 0 0 1-.02-.14l.04-.03a.11.11 0 0 1 .07-.03h2.36c.03 0 .05-.02.05-.05v-.66c0-.05.02-.08.07-.08h.04c.03 0 .04.02.04.04l.09 1ZM38.53 32.93h-.81c-.06-.01-.09.02-.09.07l.02 2.09c-.51.18-.86.13-1.04-.17h.7c.07 0 .1-.03.1-.1v-2.04c0-.09.05-.13.15-.13h.15c.49-.02.76.08.82.28ZM44.67 32.86l-.46.06c-.05.01-.07.04-.07.09v2.08c0 .05-.03.07-.07.07h-.76c-.06 0-.1-.03-.1-.09l-.02-.08.6-.08c.05 0 .08-.03.08-.08v-2.06c0-.06.02-.1.08-.1.46-.08.7-.01.72.19ZM46.37 32.9l-.4.02c-.07 0-.1.03-.1.09v2.09c0 .04-.02.07-.06.07h-.79c-.04 0-.07-.02-.08-.06a.3.3 0 0 1 0-.07c-.03-.05-.02-.09.03-.11a5.74 5.74 0 0 0 .58 0c.04 0 .07-.03.07-.07v-2.1c0-.06.03-.1.09-.1a1 1 0 0 1 .62.08.1.1 0 0 1 .05.07l-.01.09Z" fill="#114EA4"/><path d="m28.06 32.81.12.14c.03.03.05.08.05.14v.07c.03.47-.02.76-.16.88a.78.78 0 0 1-.5.2c-.18.01-.32-.05-.4-.19-.08-.36-.05-.67.09-.94.15-.3.42-.4.8-.3Z" fill="#E3E3E4"/><path d="M29.22 32.75c.02.06.06.1.13.11l.1.46c.11.8-.16 1.4-.81 1.78a3 3 0 0 1-1.34.1 1.4 1.4 0 0 1-.76-.47c.44.2.87.28 1.3.25.45-.04.8-.2 1.07-.51.3-.34.4-.77.3-1.26-.04-.25-.04-.4 0-.46Z" fill="#114EA4"/><path d="M8.14 32.89c-.7.42-.78.95-.28 1.57.1.13.23.17.4.14.43-.1.69-.41.77-.93.27.33.25.64-.04.94a1 1 0 0 1-.46.26.97.97 0 0 1-.55-.01.93.93 0 0 1-.68-.78c-.05-.34 0-.7.15-1.07.2-.09.44-.13.69-.12Z" fill="#8893CB"/><path d="m38.53 32.93-.01 1.82-.05-.43c0-.06-.03-.08-.08-.07l-.62.11c-.06.01-.09.05-.1.1l-.02.63-.02-2.09c0-.05.03-.08.09-.08l.81.01Z" fill="#D2D3D6"/><path d="M7.45 33c-.16.39-.2.74-.15 1.08.07.4.3.66.68.78.18.06.36.06.55.01a1 1 0 0 0 .46-.26c.3-.3.3-.61.04-.94h-.17a.06.06 0 0 1-.06-.04.05.05 0 0 1 .02-.06l.3-.33c.05.07.14.11.27.15.05.01.09.04.1.09.19.45.21.92.07 1.41-.02.1-.13.25-.3.45a.64.64 0 0 1-.48.2c-.43.02-.7.01-.82-.02a1.51 1.51 0 0 1-1.19-1.17c-.13-.57.1-1.02.68-1.34Z" fill="#5A73B5"/><path d="m8.04 33.03-.12.33c-.01.05 0 .1.02.15.2.4.45.42.73.05.04.1.06.2.08.28.04.26-.05.4-.27.43-.13.01-.28 0-.47-.04-.11-.03-.22-.13-.3-.3-.2-.37-.08-.67.33-.9Z" fill="#CFD3E9"/><path d="m22.93 33.42-1.36.05c-.06 0-.09.03-.09.08l-.03.49c-.25.02-.32-.22-.2-.73.01-.06.05-.1.12-.1.63-.08 1.15-.01 1.56.21ZM20.43 35c0-.04.02-.07.1-.07 1.2.02 2.04.02 2.48 0 .91-.05 1.26-.6 1.04-1.64.15.11.25.28.27.5.08.61-.08 1.02-.47 1.22-.2.1-.58.15-1.13.15h-2.16c-.07 0-.12-.02-.13-.06a.2.2 0 0 1 0-.1Z" fill="#114EA4"/><path d="M29.67 33.4c0 .05 0 .1.02.14.02.05.05.07.1.07l.45-.01a.24.24 0 0 1-.17.06c-.05 0-.07.02-.06.06 0 .03.03.04.06.05.24.06.52.07.84.03.26-.04.68.08 1.27.36.05.03.07.07.04.12l-.12.22c-.2.32-.13.39.2.2.03-.01.07-.1.1-.26.02-.06.05-.08.1-.08h.11c.05 0 .08-.03.07-.08l-.02-.17c.16.26.34.47.54.63.03.03.06.05.06.08-.1.07-.18.1-.25.1-1.44.08-2.9.14-4.37.18.65-.38.92-.97.8-1.78.13 0 .2.02.23.08Z" fill="#D2D3D6"/><path d="M42.69 33.3c.04.2.04.4 0 .58-.01.05-.05.08-.1.08h-1.51c-.02 0-.03 0-.03.03v.04c-.07-.01-.14-.06-.2-.15a.1.1 0 0 1 0-.1.1.1 0 0 1 .09-.05h1.38c.04 0 .08-.01.11-.05a.14.14 0 0 0 .03-.13.25.25 0 0 1 .05-.22l.18-.03Z" fill="#114EA4"/><path d="M22.93 33.42c.04.18.02.33-.05.43-.05.1-.17.15-.34.16l-1.1.03.04-.49c0-.05.03-.08.09-.08l1.36-.05ZM32.43 33.59l.23.52.02.17c0 .05-.02.08-.07.08h-.1c-.06 0-.1.02-.1.08-.04.16-.08.25-.11.27-.33.18-.4.1-.2-.2l.12-.23c.03-.05.01-.1-.04-.12-.59-.28-1.01-.4-1.27-.36-.32.04-.6.03-.84-.03-.03 0-.05-.02-.06-.05 0-.04.01-.06.06-.06.07 0 .13-.02.17-.06l2.19-.01Z" fill="#F0F3FA"/><path d="M36.26 34.4c-.06.24-.06.46-.03.68 0 .05-.01.08-.07.08h-2.17c-.18-.01-.42-.12-.73-.34 0-.03-.02-.05-.06-.08.18.05.35.1.52.13.18.04.36.06.52.06l1.63.01c.1 0 .14-.04.13-.14-.03-.18-.02-.35.01-.52.08-.06.16-.02.25.13ZM42.54 34.44c.09-.01.16 0 .21.03.04.03.07.06.07.11v.52c0 .04-.02.06-.06.06-.79.1-1.5.02-2.14-.22h1.83c.07 0 .1-.04.1-.1v-.4Z" fill="#114EA4"/></svg>