<!-- by TradingView --><svg width="56" height="56" viewBox="0 0 56 56" xmlns="http://www.w3.org/2000/svg"><path fill="#F0F3FA" d="M0 0h56v56H0z"/><path fill-rule="evenodd" d="M28.33 34.57c11.05 0 20-3.49 20-7.79S39.38 19 28.33 19c-11.04 0-20 3.49-20 7.79s8.96 7.78 20 7.78Zm0-.76c9.82 0 17.78-3.22 17.78-7.2 0-3.97-7.96-7.19-17.78-7.19s-17.78 3.22-17.78 7.2c0 3.97 7.96 7.2 17.78 7.2Z" fill="#0095D9"/><path fill-rule="evenodd" d="M28.16 31.94c8.29 0 15-2.86 15-6.38s-6.71-6.37-15-6.37c-8.28 0-15 2.85-15 6.37s6.72 6.38 15 6.38Zm0-.62c7.37 0 13.34-2.64 13.34-5.9 0-3.25-5.97-5.89-13.34-5.89-7.36 0-13.33 2.64-13.33 5.9 0 3.25 5.97 5.89 13.33 5.89Z" fill="#00A6E4"/><path fill-rule="evenodd" d="M27.94 29.6c6.08 0 11-2.2 11-4.9 0-2.71-4.92-4.9-11-4.9-6.07 0-11 2.19-11 4.9 0 2.7 4.93 4.9 11 4.9Zm0-.47c5.4 0 9.78-2.03 9.78-4.54 0-2.5-4.38-4.53-9.78-4.53-5.4 0-9.77 2.03-9.77 4.53 0 2.5 4.37 4.54 9.77 4.54Z" fill="#15C0F2"/><path fill-rule="evenodd" d="M28 27.44c4.42 0 8-1.57 8-3.5 0-1.94-3.58-3.5-8-3.5s-8 1.56-8 3.5c0 1.93 3.58 3.5 8 3.5Zm0-.34c3.93 0 7.11-1.45 7.11-3.24 0-1.79-3.18-3.23-7.11-3.23s-7.11 1.44-7.11 3.23S24.07 27.1 28 27.1Z" fill="#6BCFF6"/><path d="M22.16 30.01c0 1.34 2.6 3.2 3.9 3.96 2.72-.04 8.38-.25 9.23-.71-4.02-.33-7.75-2.56-7.75-4.2 0-1.65 4.48-3.74 4.48-6.07 0-1.51-2.99-3.16-4.48-3.8h-1.48c.89.46 3.69 2 3.69 3.67 0 1.66-3.22 3.29-3.89 3.6-.66.3-3.7 1.89-3.7 3.55Z" fill="#0095D9"/><path fill-rule="evenodd" d="M52 28c0 5.52-10.75 10-24 10-.93 0-1.85-.02-2.76-.07l.01.05-.4-.06a53.83 53.83 0 0 1-4.18-.4h-.07l-1.58-.24-.04-.01c-.97-.16-1.92-.36-2.83-.57l-.13-.02v-.01C8.84 34.94 4 31.7 4 28c0-5.52 10.75-10 24-10s24 4.48 24 10Zm-35.25 8.4 1.17-1.76-.53-.14-1.12 1.78c-.58-.15-1.14-.32-1.68-.5l1.45-1.62-.51-.2-.68.8-.7-.27.64-.73-.51-.2-1.39 1.63c-.47-.18-.92-.37-1.35-.57l.38-.21-.42-.3c-.1.09-.27.21-.42.29l-.48-.24c.03-.21.22-.44.45-.62.34-.25.76-.47.96-.36.2.11.13.42.06.46l.34.25c.1-.07.3-.3.3-.6 0-.38-.36-.81-1.32-.43-.7.27-1.1.65-1.28 1.03-2.9-1.63-4.64-3.67-4.64-5.89 0-5.35 10.09-9.7 22.53-9.7 12.44 0 22.53 4.35 22.53 9.7 0 2.19-1.69 4.2-4.53 5.83l-.86-.69a.48.48 0 0 0-.39-.06.58.58 0 0 0-.18-.41 5.84 5.84 0 0 0-.6-.44c-.09-.05-.31-.11-.49 0l-.92.57 2.05 1.75c-.44.2-.89.4-1.36.59l-.33-.35-1.01.42-.47-.5.94-.37-.4-.38-.84.38-.35-.38 1.02-.44-.37-.39-1.48.6 1.7 1.98c-.7.23-1.42.44-2.18.63l-1.08-1.69.63-.16-.3-.51-1.88.5.32.5.64-.17 1.12 1.67c-.62.15-1.26.28-1.92.4l-1.82-2.15-.62.09-.06 2.46c-.68.09-1.37.16-2.07.23l.08-2.5-.62.06v1.76l-.75-1.76-.63.1-.1 1.74-.65-1.75-.61.11 1 2.38a52.8 52.8 0 0 1-4.98-.03l-.47-2.43h-.82l-1.35 2.22-1.74-.22.84-2.1-.6-.14-.6 1.48-.28-1.6-.6-.13-.94 2.12c-.64-.13-1.27-.27-1.87-.42Zm2.42.52.74.13-.17-1.41-.57 1.28Zm4.11.56 1.16.1-.05-.33h-.98l-.13.23Zm7.62.13.72-.04-.65-1.64-.07 1.68Zm4.2-.4L36.4 37l-.32-.4-.96.17v.43Zm10.52-3.17a4.41 4.41 0 0 0-.6-.52.76.76 0 0 0-.45-.12l-.33.26.8.68.58-.3Zm-32.26 1.33.75.26.35-.41-.69-.32-.41.47Zm29.95-2.49.53.5.39-.3c.03-.04.09-.13 0-.26a.93.93 0 0 0-.28-.24c-.06-.03-.19-.04-.33.07l-.2.15-.1.08Zm-19 3.88h-.65l.5-.95.15.95Zm11.43-.57-.63.12v-.9l.63.78Z" fill="#7FA8BC"/></svg>