<!-- by TradingView --><svg width="56" height="56" viewBox="0 0 56 56" xmlns="http://www.w3.org/2000/svg"><path d="M42.61 21.22a16.05 16.05 0 0 0-29.07 0h29.07Z" fill="#4D4D4F"/><path d="M42.33 21.22a15.46 15.46 0 0 0-27.76 0h27.76Z" fill="#5B5C5E"/><path d="M42.12 21.22a15.03 15.03 0 0 0-26.79 0h26.8Z" fill="#636467"/><path d="M41.94 21.22a14.64 14.64 0 0 0-25.92 0h25.92Z" fill="#6B6C6F"/><path d="M41.8 21.22a14.39 14.39 0 0 0-25.35 0H41.8Z" fill="#6F7073"/><path d="M41.59 21.22a13.96 13.96 0 0 0-24.38 0H41.6Z" fill="#797B7D"/><path d="M41.36 21.22a13.5 13.5 0 0 0-23.32 0h23.32Z" fill="#808285"/><path d="M41.06 21.22a12.93 12.93 0 0 0-21.97 0h21.97Z" fill="#8B8D90"/><path d="M40.5 21.22a11.9 11.9 0 0 0-19.54 0H40.5Z" fill="#9FA1A4"/><path d="M39.95 21.22a10.98 10.98 0 0 0-17.25 0h17.25Z" fill="#B3B5B8"/><path d="M39.31 21.22a10 10 0 0 0-14.72 0h14.72Z" fill="#C9CBCC"/><path d="M38.78 21.22a9.3 9.3 0 0 0-12.75 0h12.75Z" fill="#D8D9DB"/><path d="M38.13 21.22a8.57 8.57 0 0 0-10.51 0h10.5Z" fill="#E6E7E8"/><path d="M37.45 21.22a7.95 7.95 0 0 0-8.4 0h8.4Z" fill="#F3F4F4"/><path d="M36.95 21.22a7.6 7.6 0 0 0-6.9 0h6.9Z" fill="#fff"/><path d="M43 34c-2.64 5.9-8.36 10-15 10-6.64 0-12.36-4.1-15-10h30Z" fill="#4D4D4F"/><path d="M42.79 34c-2.61 5.64-8.12 9.54-14.5 9.54-6.4 0-11.9-3.9-14.5-9.54h29Z" fill="#555658"/><path d="M42.71 34c-2.6 5.54-8.03 9.37-14.32 9.37-6.3 0-11.73-3.82-14.33-9.37h28.65Z" fill="#5B5C5E"/><path d="M42.5 34c-2.57 5.28-7.78 8.91-13.83 8.91-6.04 0-11.26-3.63-13.82-8.91H42.5Z" fill="#636467"/><path d="M42.28 34c-2.52 5.02-7.53 8.45-13.33 8.45-5.79 0-10.8-3.43-13.32-8.45h26.65Z" fill="#6B6C6F"/><path d="M42.16 34c-2.5 4.9-7.4 8.24-13.08 8.24-5.67 0-10.56-3.35-13.08-8.24h26.16Z" fill="#6F7073"/><path d="M41.95 34a14.32 14.32 0 0 1-12.58 7.78c-5.42 0-10.11-3.15-12.58-7.78h25.16Z" fill="#797B7D"/><path d="M41.71 34a13.83 13.83 0 0 1-12.03 7.27c-5.15 0-9.62-2.93-12.04-7.27h24.07Z" fill="#808285"/><path d="M41.4 34a13.22 13.22 0 0 1-11.34 6.65c-4.8 0-8.98-2.67-11.33-6.65H41.4Z" fill="#8B8D90"/><path d="M40.82 34a12.13 12.13 0 0 1-10.09 5.55c-4.18 0-7.85-2.2-10.08-5.55h20.17Z" fill="#9FA1A4"/><path d="M40.23 34a11.1 11.1 0 0 1-8.85 4.5 11.1 11.1 0 0 1-8.85-4.5h17.7Z" fill="#B3B5B8"/><path d="M39.65 34a10.19 10.19 0 0 1-7.7 3.58c-3.06 0-5.8-1.39-7.7-3.58h15.4Z" fill="#C6C8CA"/><path d="M39.6 34a10.1 10.1 0 0 1-7.6 3.5c-3 0-5.7-1.36-7.6-3.5h15.2Z" fill="#C9CBCC"/><path d="M39.04 34a9.35 9.35 0 0 1-6.58 2.74A9.35 9.35 0 0 1 25.88 34h13.16Z" fill="#D8D9DB"/><path d="M38.37 34a8.57 8.57 0 0 1-10.84 0h10.84Z" fill="#E6E7E8"/><path d="M37.68 34a7.92 7.92 0 0 1-4.34 1.32c-1.6 0-3.07-.5-4.34-1.32h8.68Z" fill="#F3F4F4"/><path fill="#F0F3FA" d="M11 21h33v14H11z"/><path d="m36.38 29.4-.11.5c-.39 1.72.86 3.1 2.52 3.1h6.98l.68-3h-3.87c-.72 0-1.05-.37-.94-.86.05-.22.08-.43.1-.65.04-.26.08-.56.17-.97.17-.75.83-1.52 1.55-1.52h3.85l.69-3h-6.6c-2 0-3.7.91-4.2 2.85-.23.94-.56 2.4-.82 3.55ZM13.3 23c-1.74 0-3.37.81-3.64 2.32 0 0-.15 1.02-.22 1.67-.11.97 1 1.56 1.71 1.73.72.16 3.82 1.28 3.82 1.28H8.72L8 32.97h8.4c1.72 0 3.6-.75 3.88-2 .07-.3.13-.62.19-.98l.2-1.06c.17-.8-.33-1.4-1.33-1.67L15.14 26h6.03l.72-3H13.3Zm13.57 10h-5.81l2.15-10h5.81l-2.15 10Zm1.54 0h5.81l2.16-10h-5.8L28.4 33Z" fill="#900028"/></svg>