<!-- by TradingView --><svg width="56" height="56" viewBox="0 0 56 56" xmlns="http://www.w3.org/2000/svg"><path fill="#F0F3FA" d="M0 0h56v56H0z"/><path d="M41.63 29c.22 0 .37.11.37.34 0 .22-.15.34-.37.34-1.21 0-1.89.7-1.89 2.13v1.81c0 .24-.14.38-.36.38-.24 0-.38-.14-.38-.38v-4.21c0-.25.14-.38.38-.38.22 0 .36.13.36.38v.55h.02c.36-.62 1-.96 1.87-.96ZM38 31.18c0 .27-.16.42-.44.42H33.7c.11.98.83 1.78 1.89 1.78.64 0 1.16-.25 1.47-.65a.35.35 0 0 1 .29-.14c.19 0 .32.13.32.32 0 .08-.02.14-.07.21a2.5 2.5 0 0 1-2.01.88c-1.56 0-2.6-1.01-2.6-2.5s1.04-2.5 2.54-2.5c1.42 0 2.46.85 2.46 2.18Zm-2.46-1.56c-.97 0-1.66.47-1.8 1.38h3.6c-.13-.91-.83-1.38-1.8-1.38ZM29.74 29.14c1.47 0 2.26.77 2.26 2.19v2.3c0 .23-.13.37-.37.37s-.38-.14-.38-.36v-2.26c0-1.07-.58-1.63-1.67-1.63-1.12 0-1.83.71-1.83 1.83v2.06c0 .22-.14.36-.37.36-.24 0-.38-.14-.38-.36v-6.28c0-.22.14-.36.38-.36.23 0 .37.14.37.36V30c.4-.53 1.1-.85 1.99-.85ZM26 32.91a.3.3 0 0 1-.07.19c-.48.58-1.25.9-2.17.9-1.63 0-2.76-1.02-2.76-2.5 0-1.49 1.13-2.5 2.76-2.5.83 0 1.53.25 2.06.76a.3.3 0 0 1 .1.22c0 .2-.15.33-.36.33a.42.42 0 0 1-.3-.13 2.13 2.13 0 0 0-1.5-.56c-1.18 0-2 .76-2 1.88 0 1.12.82 1.88 2 1.88.7 0 1.24-.24 1.63-.69.05-.06.15-.1.26-.1.2 0 .35.13.35.32ZM15.66 29c.22 0 .34.13.34.37v4.26c0 .23-.12.37-.34.37-.22 0-.35-.14-.35-.37v-.53h-.02c-.37.57-1.04.9-1.9.9-1.43 0-2.39-1-2.39-2.5s.96-2.5 2.4-2.5c.85 0 1.52.33 1.9.9h.01v-.53c0-.24.13-.37.35-.37Zm-2.15 4.38c1.06 0 1.8-.76 1.8-1.88 0-1.11-.74-1.88-1.8-1.88-1.08 0-1.81.76-1.81 1.88 0 1.12.73 1.88 1.8 1.88ZM9.6 27c.25 0 .4.15.4.41v6.18c0 .26-.15.41-.4.41-.23 0-.37-.15-.37-.41v-2.9H4.77v2.9c0 .26-.15.41-.39.41-.24 0-.38-.15-.38-.41V27.4c0-.26.14-.41.38-.41s.4.15.4.41V30h4.45v-2.59c0-.26.14-.41.38-.41ZM19.66 33.43c-.72 0-.94-.4-.94-1.14V30h.83c.22 0 .35-.1.35-.28 0-.19-.13-.28-.35-.28h-.83v-1.1c0-.21-.13-.34-.36-.34-.22 0-.36.13-.36.34v1.1h-.69c-.17 0-.31.13-.31.28 0 .15.14.28.31.28H18v2.28c0 1.07.49 1.72 1.62 1.72.48 0 .52-.57.04-.57Z" fill="#1A2127"/><path d="M46.94 17.9c.48.05.9-.12.92-.37.02-.25-.36-.49-.85-.52-.48-.04-.9.13-.92.38-.02.25.36.48.85.52Z" fill="#ED0041"/><path d="M44.03 17.8c.45-.19.75-.48.68-.66-.08-.18-.51-.19-.96 0-.46.18-.76.47-.68.65.07.18.5.19.96 0Z" fill="#5D3E77"/><path d="M45.44 19.4c.52-.12.86-.53.77-.9-.1-.36-.6-.56-1.12-.43-.52.12-.86.52-.77.9.1.36.6.56 1.12.43Z" fill="#ED0041"/><path d="M48.78 19.35c.49.2 1 .1 1.16-.24.14-.34-.13-.77-.62-.98-.5-.2-1.01-.1-1.16.24-.15.33.13.77.62.98Z" fill="#5D3E77"/><path d="M42.06 19.02c.38-.32.55-.73.38-.9-.16-.19-.6-.07-.97.25-.38.32-.55.73-.38.9.16.19.6.07.97-.25ZM43.63 20.77c.46-.42.57-1.07.26-1.45-.32-.38-.95-.34-1.41.08-.46.42-.58 1.07-.26 1.45.32.38.95.34 1.41-.08Z" fill="#ED0041"/><path d="M50.44 21.43c.36.4.9.51 1.22.25.31-.26.28-.8-.08-1.2-.36-.4-.9-.52-1.22-.25-.31.26-.28.8.08 1.2ZM39.21 20.68c-.23.42-.28.83-.1.93.18.1.51-.17.75-.58.24-.42.28-.83.1-.93-.18-.1-.51.17-.75.58Z" fill="#5D3E77"/><path d="M45.74 22.89c.43-.4.47-1.05.1-1.46a1 1 0 0 0-1.42-.03c-.43.39-.47 1.04-.1 1.45a1 1 0 0 0 1.42.04ZM40.24 21.6c-.31.42-.3.95.02 1.16.32.22.83.04 1.14-.39.3-.43.3-.95-.03-1.16-.32-.22-.83-.05-1.13.38Z" fill="#ED0041"/><path d="M48.4 22.8c.38.43 1.02.5 1.43.13.4-.36.43-1 .04-1.45-.38-.43-1.02-.5-1.43-.13-.4.36-.43 1.01-.05 1.45ZM42.04 24.18c-.01.57.44 1.04 1 1.05.56 0 1.02-.45 1.03-1.02a1.02 1.02 0 0 0-1-1.04c-.56 0-1.02.45-1.03 1.01Z" fill="#5D3E77"/><path d="M39 24.02c-.01.48.19.87.44.88.26 0 .48-.38.5-.86 0-.47-.2-.86-.45-.87-.26 0-.48.38-.49.85ZM47.1 25.23c.57 0 1.02-.46 1.02-1.03 0-.57-.45-1.03-1.01-1.03s-1.02.46-1.02 1.03c0 .57.46 1.03 1.02 1.03Z" fill="#ED0041"/><path d="M50.15 25.15c-.04.56.33 1.04.84 1.08.51.04.96-.39 1-.95.05-.56-.33-1.04-.84-1.08-.5-.04-.96.39-1 .95ZM40.06 26.47c.1.56.4.9.66.79.26-.12.38-.67.26-1.23-.1-.55-.4-.9-.66-.78s-.38.67-.26 1.22ZM42.36 28.64c.37.38.92.48 1.22.2.3-.27.25-.8-.12-1.2-.37-.38-.92-.47-1.22-.2-.3.27-.25.8.12 1.2Z" fill="#5D3E77"/></svg>