<!-- by TradingView --><svg width="56" height="56" viewBox="0 0 56 56" xmlns="http://www.w3.org/2000/svg"><path fill="#F0F3FA" d="M0 0h56v56H0z"/><path d="M36.3 36h5.72A4.27 4.27 0 0 0 46 31.5c0-2.43-1.79-4.2-2.68-4.77l-2.75-2.46c-.4-.36-.16-1.27.36-1.27h3.77a.3.3 0 0 0 .3-.3v-3.4a.3.3 0 0 0-.3-.3h-4.47c-1.4-.03-4.23.77-4.23 4.22a5.7 5.7 0 0 0 2.13 4.52l3.3 2.9c.4.36.17 1.36-.36 1.36H36.3a.3.3 0 0 0-.3.3v3.4c0 .17.13.3.3.3ZM20 19.15v3.68c0 .08-.06.14-.14.14l-4.32.03c-.8 0-1.54.63-1.54 1.44V26h3.13c.24 0 .44.18.44.4v2.2c0 .22-.2.4-.44.4H14v1.36c0 .81.74 1.64 1.54 1.64H22v-8.73A4.23 4.23 0 0 1 26.2 19h4.57A4.25 4.25 0 0 1 35 23.27v15.58c0 .08-.07.15-.15.15h-3.71c-.08 0-.14-.07-.14-.15V24.64c0-.9-.89-1.64-1.78-1.64h-1.41c-.89 0-1.81.74-1.81 1.64v5.58c0 .89.92 1.78 1.8 1.78h2.05c.08 0 .15.07.15.15v3.72c0 .08-.07.13-.15.13H14.09A4.09 4.09 0 0 1 10 31.9v-8.78A4.1 4.1 0 0 1 14.09 19h5.77c.08 0 .14.07.14.15Z" fill="#E90055"/></svg>