<!-- by TradingView --><svg width="56" height="56" viewBox="0 0 56 56" xmlns="http://www.w3.org/2000/svg"><path fill="#F0F3FA" d="M0 0h56v56H0z"/><path fill-rule="evenodd" d="m42.5 25 .5-.01v13.74A4.27 4.27 0 0 1 38.73 43H17.27A4.27 4.27 0 0 1 13 38.73V17.27A4.27 4.27 0 0 1 17.27 13h13.74l-.01.5A11.5 11.5 0 0 0 42.5 25ZM32 13.5l.01-.5H35a8 8 0 0 0 8 8v2.99l-.5.01C36.7 24 32 19.3 32 13.5Zm4-.5h2a5 5 0 0 0 5 5v2a7 7 0 0 1-7-7Zm3 0a4.27 4.27 0 0 1 4 4 4 4 0 0 1-4-4Zm2 19.43V30.7a5.38 5.38 0 0 0-2.64-.71A5.21 5.21 0 0 0 33 35.05c0 1.37.51 2.54 1.53 3.5A5.23 5.23 0 0 0 38.24 40c.96 0 1.88-.24 2.76-.7v-1.76a7.44 7.44 0 0 1-1.37.85c-.37.17-.83.25-1.37.25a3.65 3.65 0 0 1-2.64-1.04 3.42 3.42 0 0 1-1.08-2.56 3.5 3.5 0 0 1 1.08-2.6 3.59 3.59 0 0 1 2.63-1.07c.95 0 1.87.36 2.75 1.06Zm-9-1.01h-4.36V34H32v1.42h-4.36v3.16H32V40h-6V30h6v1.42Zm-14.18 6.3h4.4L23.3 40H25l-5-10-5 10h1.67l1.15-2.29Zm2.15-4.54 1.62 3.2h-3.13l1.51-3.2Z" fill="#008ECD"/></svg>