<!-- by TradingView --><svg width="56" height="56" viewBox="0 0 56 56" xmlns="http://www.w3.org/2000/svg"><path fill="#F0F3FA" d="M0 0h56v56H0z"/><path d="M39 31v-7h2.46c1.48 0 2.54.99 2.54 2.49 0 1.5-1.06 2.49-2.54 2.49H39.6l.39-.5V31h-1Zm1-2.38-.3-.62h1.8c1 0 1.5-.64 1.5-1.51 0-.89-.54-1.49-1.52-1.49h-1.8l.32-.43v4.05ZM36 31v-7h1v7h-1ZM30.25 31v-.86l2.56-2.6c.4-.4.74-.85.74-1.43 0-.64-.32-1.11-1.1-1.11a2.1 2.1 0 0 0-1.61.83l-.84-.69A2.94 2.94 0 0 1 32.45 24c1.2 0 2.3.68 2.3 1.98 0 .88-.47 1.57-1.07 2.18l-2.2 2.24-.25-.4H35v1h-4.75ZM17 31v-7h2.4c1.49 0 2.5 1 2.5 2.49 0 1.49-1.01 2.51-2.5 2.51h-1.8l.4-.63V31h-1Zm3.83 0-1.48-2.54h1.16L22 31h-1.17ZM18 28.51l-.4-.51h1.76c.96 0 1.44-.63 1.44-1.51 0-.89-.38-1.49-1.34-1.49H17.7l.3-.54v4.05ZM11.91 27H15v1h-3.1l.01-1Zm.08 3H15v1h-4v-7h4v1h-3v5ZM4 31v-.87l3.79-5.52.12.39H4.06v-1H9v.87l-3.9 5.52-.13-.39H9v1H4Z" fill="#65D3E3"/><path fill-rule="evenodd" d="M48.5 30a2.5 2.5 0 1 0 0-5 2.5 2.5 0 0 0 0 5Zm0 1a3.5 3.5 0 1 0 0-7 3.5 3.5 0 0 0 0 7ZM26.5 30a2.5 2.5 0 1 0 0-5 2.5 2.5 0 0 0 0 5Zm0 1a3.5 3.5 0 1 0 0-7 3.5 3.5 0 0 0 0 7Z" fill="#65D3E3"/></svg>