<!-- by TradingView --><svg width="56" height="56" viewBox="0 0 56 56" xmlns="http://www.w3.org/2000/svg"><path fill="#F0F3FA" d="M0 0h56v56H0z"/><path d="M28.83 37c11.2 0 17.2-5.13 18.79-7.56H48v.43C43.52 37.08 34.4 39 27.64 39S8 35.02 8 27.95 18.9 17 27.38 17C35.86 17 47 20.28 47 25.16c0 4.88-5.62 7.92-8.38 7.92-2.76 0-4.6-1.57-4.6-4.1 0-4.76 4.74-5.98 5.77-5.98.81 0 1.7.3 2.04.45h.79l.3-.38h.44l-.43 3.22a.8.8 0 0 1-.45-.2c.16-.8-.24-2.32-2.17-2.32S36 26.31 36 28.52c0 2.22 1.67 3.48 3.05 3.48 4.4 0 6.45-4.47 6.45-6 0-2.53-3.71-7-17.38-7C14.45 19 10 24.32 10 27.58S14.83 37 28.83 37Z" fill="#272D6C"/><path d="M34 23h-8.26l-.22.6h.81c.25 0 .28.28.27.43-.34 2.11-1.05 6.58-1.22 7.48-.17.91-1 1.07-1.38 1.03V33h8.67l1.02-2.76h-.6A3.29 3.29 0 0 1 30.5 32h-2.4l-.2-.3.6-3.7h2.7c.63 0 .71 1.1.68 1.54h.62L33 26h-.5c-.15 1.1-.9 1-1.28 1h-2.58l.53-3h2.78c.95 0 1.16.91 1.15 1.43h.5l.2-.65.2-1.78ZM14.48 23v.55c.38-.05 1.12.05 1.03.81-.1.77-.73 5.12-1.03 7.2-.06.3-.34.9-.92.9-.35 0-.56.16-.56.54h4.95c2.02-.03 6.05-1.16 6.05-5.48 0-3.95-3.05-4.52-4.48-4.52h-5.04ZM17 31.92l.94-6.97c.03-.32.2-.95.7-.95.6 0 3.36.05 3.36 3.4 0 2.76-1.95 4.6-3.83 4.6-.52 0-1-.05-1.17-.08Z" fill="#272D6C"/></svg>