<!-- by TradingView --><svg width="56" height="56" viewBox="0 0 56 56" xmlns="http://www.w3.org/2000/svg"><path fill="#F0F3FA" d="M0 0h56v56H0z"/><path fill-rule="evenodd" d="M37.24 30.8a10 10 0 0 0-9.27-13.84 10.04 10.04 0 0 0-10.02 10 10 10 0 0 0 10.02 10 10.04 10.04 0 0 0 9.27-6.17Zm-.78-.27a9.15 9.15 0 0 0-8.48-12.68 9.2 9.2 0 0 0-9.19 9.17 9.16 9.16 0 0 0 12.7 8.47 9.18 9.18 0 0 0 4.97-4.96Z" fill="#244F85"/><path d="M27.3 24.05c.07.26.28.42.35.62.04.1.01.13-.08.08-.3-.15-.8-.48-.69-.85.04-.13.1-.23.18-.3.07-.07.12-.05.15.05l.09.4Z" fill="#244F85"/><path d="M33.66 32.66a8 8 0 1 0-11.32-11.32 8 8 0 0 0 11.32 11.32Zm-5.35-8.79c0 .05.03.1.07.13.03.04.08.06.12.07.05.02.1.01.14 0a.27.27 0 0 0 .12-.08c.12-.14.23-.35.33-.62l.03-.04a.08.08 0 0 1 .09 0l.03.03c.23.4.3.77.2 1.09-.06.16-.27.39-.63.7-.34.28-.6.52-.77.73a.13.13 0 0 1-.18.02c-.5-.38-.87-.76-1.11-1.13-.23-.35-.17-.96.03-1.24l1.03-1.5c.1-.15.15-.46.16-.94 0-.1.04-.12.12-.08.62.34.4 1.21.22 1.92l-.06.25c-.04.17-.02.4.06.69Zm-.33 2.89c.05 0 .09-.01.1-.03.7-.74 1.43-.8 2.18-.21.65.5 1.25.9 1.82 1.2a.1.1 0 0 1 .06.1l.32 3.04c.01.14-.04.18-.16.13a6.65 6.65 0 0 0-2.76-.48c-.5.01-.81.27-.94.76a.25.25 0 0 1-.06.1.23.23 0 0 1-.1.06c-.04.02-.2.02-.47.02-.27 0-.42 0-.46-.02a.23.23 0 0 1-.1-.06.25.25 0 0 1-.06-.1c-.13-.5-.44-.75-.94-.76-.99-.03-1.9.13-2.76.48-.12.05-.17 0-.16-.14l.32-3.04a.1.1 0 0 1 .06-.1 11.1 11.1 0 0 0 1.82-1.2c.75-.59 1.48-.52 2.18.22.01.02.05.03.1.03Z" fill="#244F85"/><path d="M26.42 29.9c-.73-.09-1.53.03-2.37.35l-.04-.01-.07-.09c-.02-.03-.02-.06.01-.08 1.14-1.08 3.18-1.84 3.72.34.05.21-.01.25-.18.11-.36-.28-.71-.57-1.07-.62ZM29.3 29.9c-.35.05-.7.34-1.06.62-.17.14-.23.1-.18-.11.54-2.18 2.58-1.42 3.72-.34.03.02.03.05 0 .08l-.06.08a4.96 4.96 0 0 0-2.42-.33ZM17.75 35.64l.34-.16c.13-.05.16-.02.1.1-.15.27-.32.44-.52.5a.19.19 0 0 1-.14-.01.2.2 0 0 1-.1-.1c-.06-.17-.02-.27.14-.29a.6.6 0 0 0 .18-.04Z" fill="#244F85"/><path d="M44.05 24.81h.54A16.92 16.92 0 0 0 28 11a16.92 16.92 0 0 0-16.6 13.81h.55A16.4 16.4 0 0 1 28 11.53a16.4 16.4 0 0 1 16.05 13.28Zm-31.54 8.5h-.56A16.9 16.9 0 0 0 28 45a16.9 16.9 0 0 0 16.05-11.69h-.56A16.38 16.38 0 0 1 28 44.47c-7.19 0-13.3-4.67-15.5-11.16Zm30.42 0A15.85 15.85 0 0 1 28 43.94c-6.9 0-12.76-4.44-14.93-10.63h.56A15.32 15.32 0 0 0 28 43.41c6.6 0 12.22-4.2 14.37-10.1h.56Zm-30.45-8.5h.54A15.34 15.34 0 0 1 28 12.6c7.37 0 13.52 5.24 14.98 12.22h.54A15.87 15.87 0 0 0 28 12.06a15.87 15.87 0 0 0-15.52 12.75Z" fill="#244F85"/><path fill-rule="evenodd" d="M36.14 33.53a10.46 10.46 0 0 1-18.5-8.11.12.12 0 0 0-.08-.08h-.05l-8.36 1.57a.18.18 0 0 0-.15.2c0 .04.02.07.04.09l1.71 2.19a.29.29 0 0 1 .05.27l-1.04 2.96a.12.12 0 0 0 .08.16h.06l3.79-.85c.08-.02.13.01.16.09A15.02 15.02 0 0 0 28 41.92a15.02 15.02 0 0 0 14.15-9.89c.03-.08.08-.11.16-.1l3.78.86a.12.12 0 0 0 .15-.09v-.06l-1.04-2.97a.28.28 0 0 1 .05-.27l1.71-2.19a.18.18 0 0 0-.1-.28l-8.37-1.58a.12.12 0 0 0-.1.03.12.12 0 0 0-.04.1c.33 3.14-.4 5.83-2.21 8.05Zm-20.3-4.17c.08.14.12.3.14.5 0 .13-.05.16-.16.08l-.4-.32c-.1-.07-.18-.06-.25.02-.11.1-.22.2-.32.26-.16.1-.21.05-.15-.12l.15-.41c.04-.1.01-.16-.07-.2l-.4-.24c-.13-.07-.12-.11.02-.13l.54-.06c.1-.01.17-.07.18-.17.03-.18.09-.33.16-.44.1-.16.16-.14.17.04.03.48.26.68.68.59a.11.11 0 0 1 .13.11c0 .03 0 .05-.02.07a.95.95 0 0 1-.34.2c-.1.05-.12.12-.07.22Zm25.3-.22c-.1.05-.12.12-.06.21.08.14.13.31.14.5.01.13-.04.16-.15.08l-.41-.32c-.09-.07-.17-.06-.24.02-.11.11-.22.2-.32.27-.16.09-.2.05-.15-.12l.15-.41c.04-.1 0-.16-.08-.2l-.4-.24c-.12-.07-.1-.1.03-.12l.54-.07c.1-.01.16-.07.18-.17.03-.18.08-.33.15-.44.1-.16.16-.14.17.04.04.48.26.67.68.58a.11.11 0 0 1 .12.05.11.11 0 0 1 0 .13.97.97 0 0 1-.34.21Zm-23.02 6.07h-.3c-.06 0-.1-.03-.1-.09v-.07c-.04-.09-.07-.08-.1.03-.1.3-.3.43-.63.4-.07-.01-.13 0-.18.03-.11.07-.1.11.03.13.36.06.55.27.57.64a.2.2 0 0 0 .18.2c.03 0 .07 0 .1-.02.48-.16.7-.43.68-.83 0-.11.05-.17.15-.19.11-.02.18-.05.2-.1.05-.1.02-.14-.08-.16l-.12-.01c-.1-.02-.13-.06-.06-.14.26-.3.38-.62.36-.97-.01-.26-.07-.27-.19-.04-.02.05-.01.15.03.3.02.1 0 .15-.09.18-.32.13-.43.31-.34.55a.11.11 0 0 1-.01.11.12.12 0 0 1-.1.05Zm1.34-.58c.19-.08.34-.07.46.04a.2.2 0 0 1 .05.24c-.07.14-.25.22-.55.26-.11 0-.15-.04-.12-.14.05-.15.02-.3-.1-.48-.12-.16-.1-.18.04-.07l.08.1c.04.06.08.07.14.05Zm16.3 1.25a.6.6 0 0 0-.42.3c-.05.07-.1.09-.18.05-.08-.04-.14-.13-.17-.26a.16.16 0 0 0-.15-.12l-.07.01-.1.05c-.13.05-.15.13-.07.24l.76.95c.05.06.05.12 0 .19l-.14.18a.13.13 0 0 0-.02.12.13.13 0 0 0 .1.09c.08 0 .16-.04.25-.13.07-.08.16-.09.24-.03.28.2.37.39.28.59-.14.34-.04.4.3.2a2.2 2.2 0 0 0 .99-1.17c.05-.15.17-.22.36-.21.18 0 .3-.02.36-.05.13-.08.2-.23.22-.46 0-.13-.05-.17-.17-.12l-.55.24c-.13.06-.2.02-.2-.13v-.78c0-.1-.05-.15-.14-.17-.15-.02-.34.06-.58.27a.13.13 0 0 1-.1.03.13.13 0 0 1-.1-.07c-.14-.26-.33-.5-.59-.69-.07-.06-.15-.05-.21.02a.22.22 0 0 0-.07.13c0 .05.03.12.1.19.23.25.44.52.63.82.07.11.14.12.22.01l.18-.23c.1-.12.18-.1.24.03.06.12.09.29.08.5 0 .1-.06.15-.16.16-.29.01-.5-.07-.6-.23a.13.13 0 0 0-.1-.06.13.13 0 0 0-.1.03l-.11.1c-.06.04-.06.08.01.1l.95.39c.08.03.1.1.1.19-.02.3-.13.54-.34.72a.11.11 0 0 1-.09.03l-.05-.01a.12.12 0 0 1-.03-.03l-1.07-1.35c-.07-.08-.06-.16.02-.22l.35-.28c.16-.12.14-.17-.06-.13Zm-16.3-.03c.22-.08.48-.21.77-.4.13-.08.3-.02.5.2a.1.1 0 0 1-.07.16c-.35 0-.62.12-.82.35a.22.22 0 0 1-.23.06 1.73 1.73 0 0 0-.61-.06.16.16 0 0 1-.16-.23c.07-.13.15-.19.26-.19.05 0 .1.03.14.07.06.06.13.08.22.04Zm-1.17 1.03c.36-.34.49-.56.4-.66-.1-.1-.32.03-.67.37-.05.05-.08.1-.09.14 0 .06.01.12.06.16.04.05.1.07.16.06.05 0 .1-.03.14-.07Zm2.83.28c0 .05-.01.08-.04.11-.07.07-.12.06-.15-.04-.13-.42.03-.67.48-.73.34-.05.38.04.13.28-.04.04-.13.1-.27.17a.24.24 0 0 0-.15.21Zm-2.4.3.62-.48a.35.35 0 0 1 .2-.07c.12 0 .19-.07.21-.19.02-.1-.02-.17-.12-.2l-.38.09c-.17.04-.28.1-.32.15-.11.18-.24.32-.37.44a.2.2 0 0 0-.05.07.18.18 0 0 0-.01.1c0 .03.01.06.03.08.05.07.12.07.19.02Zm3.43-.23v.1c0 .08-.04.16-.11.21-.59.43-1.26.74-2.03.91-.05.02-.08 0-.1-.04l-.02-.07.03-.02c.88-.4 1.71-.93 2.48-1.61.09-.07.16-.07.23.02.06.06.11.16.15.3a.15.15 0 0 1-.06.17.16.16 0 0 1-.07.03c-.1 0-.2-.02-.32-.1s-.18-.05-.18.1Zm12.4.9c-.05-.01-.1 0-.13.03a.18.18 0 0 1-.23-.01.18.18 0 0 1-.04-.06l-.64-1.3a.11.11 0 0 0-.07-.06.12.12 0 0 0-.09 0l-.1.04c-.08.04-.1.1-.06.18l1.14 2.58c.04.07.08.09.13.05l.1-.09a.22.22 0 0 0 .07-.26l-.26-.6c-.05-.1-.03-.18.06-.24l.16-.13c.09-.07.08-.12-.04-.14Zm-1.74.84c-.3-.15-.36-.08-.2.2.28.48.41.77.4.85-.1.44-.23.45-.4.05-.05-.12-.1-.3-.14-.53-.01-.06-.04-.1-.07-.12a.1.1 0 0 0-.09-.02.1.1 0 0 0-.08.08.9.9 0 0 1-.1.27c-.07.1-.11.07-.13-.06l-.15-1.36c-.01-.11-.07-.17-.18-.18l-.17-.01c-.15-.02-.17-.08-.06-.19l.6-.58a.12.12 0 0 1 .13-.01l.18.1a.04.04 0 0 1 .02.04.04.04 0 0 1-.02.03c-.2.11-.28.24-.27.37.01.11.07.16.18.15.3-.02.7.06 1.18.26.08.03.14.11.17.22a.7.7 0 0 1-.01.36c0 .01-.03.02-.07.02-.03 0-.04-.02-.05-.05a.6.6 0 0 0 0-.09.18.18 0 0 0-.14-.15.53.53 0 0 1-.37-.31.19.19 0 0 0-.2-.12c-.17.03-.3.08-.4.14-.05.04-.06.09-.02.16.04.08.1.11.2.1.07-.02.14-.03.2-.02a.3.3 0 0 1 .19.09c.06.07.11.17.14.29.03.12 0 .16-.11.1l-.16-.08Zm-9.66-1.45c-.1.08-.14.22-.11.43a.3.3 0 0 1-.08.25l-.06.07c-.07.1-.05.18.07.21.1.03.2.04.26.03.12-.02.15-.08.1-.19-.12-.22-.07-.36.16-.4.15-.02.2-.1.14-.25a.52.52 0 0 0-.13-.14c-.12-.1-.23-.1-.35-.01Zm2.42 1.53.58-1.01a.2.2 0 0 1 .18-.1h.14c.06 0 .07.02.05.08-.14.33-.3.66-.5.98-.09.14-.12.26-.1.35.03.06.05.13.1.21.05.1.12.12.2.04.09-.08.15-.26.19-.53a.4.4 0 0 1 .13-.24c.12-.1.27-.16.44-.15.1 0 .13.04.07.13l-.72 1.26c-.07.1-.05.2.05.28l.38.3c.1.07.1.14 0 .21-.1.09-.22.1-.35.07-.15-.05-.22-.17-.28-.29l-.06-.1a.18.18 0 0 0-.1-.07.17.17 0 0 0-.11.01l-.65.28a.1.1 0 0 1-.08 0l-.1-.05v-.02l.7-.56c.07-.05.1-.11.09-.2-.03-.38-.22-.56-.56-.52a.29.29 0 0 0-.25.22 6.9 6.9 0 0 1-.29.82c-.06.16-.17.21-.34.18-.07-.02-.12-.04-.14-.07l-.07-.08c-.14-.16-.13-.24.02-.22.1 0 .19-.02.23-.07.06-.05.06-.1.01-.17-.07-.09-.22-.1-.45-.03-.1.03-.16 0-.16-.12a.4.4 0 0 1 .05-.2.2.2 0 0 1 .22-.09c.4.11.65 0 .76-.36.01-.04 0-.07-.02-.1a.09.09 0 0 0-.07-.03l-.04.02c-.16.18-.36.24-.63.2-.1-.03-.12-.08-.04-.15.07-.07.2-.12.4-.13.1 0 .14-.06.14-.16v-.78c0-.1.04-.19.12-.25l.12-.1a.12.12 0 0 1 .12 0 .12.12 0 0 1 .07.1v.48c0 .12.04.14.13.06.1-.1.22-.21.34-.36.04-.06.09-.1.13-.1l.09.01c.07.03.1.08.07.15-.15.39-.38.65-.7.78a.13.13 0 0 0-.07.15.13.13 0 0 0 .13.1h.32c.05 0 .08-.02.1-.06Zm-3.42-.12-.03.13c-.03.1-.09.13-.19.1a1.6 1.6 0 0 1-.5-.29.14.14 0 0 1 .02-.24c.17-.07.4-.14.7-.2.18-.04.21-.09.09-.16l-.12-.24c-.03-.09-.09-.1-.17-.05-.46.33-.77.52-.92.56-.6.16-.6.32 0 .5.16.05.46.18.9.39.1.04.15.11.16.21v.1a.17.17 0 0 0 .14.15.17.17 0 0 0 .18-.08c.13-.2.12-.5-.03-.9-.08-.23-.16-.22-.23.02Zm7.95-.42c-.03-.18.05-.33.24-.45.09-.07.17-.06.24.03.04.05.06.1.05.16 0 .05-.03.1-.07.14a3.06 3.06 0 0 1-.22.18.1.1 0 0 0-.02.03v.04l.02.03.08.08c.03.03.04.07.03.13-.05.39-.05.92 0 1.6.02.21-.07.37-.26.47a.17.17 0 0 1-.22-.06.16.16 0 0 1-.02-.08v-1.8c0-.08-.04-.1-.12-.08l-.65.23c-.08.02-.1.08-.07.16l.04.09c.05.1.02.13-.07.06-.15-.1-.27-.14-.38-.1-.1.02-.12.08-.08.17.22.43.29.93.21 1.48 0 .07-.04.1-.1.1h-.13a.18.18 0 0 1-.12-.05.18.18 0 0 1-.05-.13c-.01-.7-.13-1.25-.35-1.61-.06-.1-.04-.18.07-.23.14-.06.22-.17.25-.33.01-.1.07-.17.17-.2.23-.05.34-.18.34-.38a.17.17 0 0 1 .15-.18l.09.01c.18.08.3.18.36.32a.1.1 0 0 1-.04.13.11.11 0 0 1-.05.02c-.3.05-.48.2-.53.44-.04.16 0 .18.13.08.1-.09.24-.16.43-.23a.48.48 0 0 0 .21-.15c.1-.12.21-.14.34-.06.08.06.11.04.1-.06Z" fill="#244F85"/></svg>