<!-- by TradingView --><svg width="56" height="56" viewBox="0 0 56 56" xmlns="http://www.w3.org/2000/svg"><path fill="#F0F3FA" d="M0 0h56v56H0z"/><path d="m41.86 14.02-7.03 9.28c.05-2.74-.22-5.45-.82-8.11 0-.02 0-.04.03-.04 1.95-.51 3.92-.86 5.93-1.04.23-.02.55-.04.94-.05.3 0 .62-.02.95-.04Z" fill="#226FB4"/><path d="M32.73 14.13a.23.23 0 0 1 .11-.08v-.02c0-.02-.01-.03-.03-.03l-1.63.1a35.7 35.7 0 0 0-7.2 1.34 20.2 20.2 0 0 0-5.83 2.74c-.85.6-1.6 1.26-2.22 1.97a12 12 0 0 0-2.86 7.2c-.12 1.5-.08 3 .12 4.5A27.67 27.67 0 0 0 14.7 38l8.44-11.17a5417.11 5417.11 0 0 1 7.59-10.02c.67-.89 1.35-1.78 2.01-2.68Z" fill="url(#a)"/><path d="m32.84 14.05.51 2.22c.36 1.85.56 3.72.6 5.6.09 3.43-.46 6.34-1.63 8.73a10.82 10.82 0 0 1-3 3.72 15.14 15.14 0 0 1-4.99 2.56c-1.6.5-3.24.82-4.91.99-1.58.17-3.16.21-4.73.13l8.44-11.17a5416.96 5416.96 0 0 1 7.59-10.02c.67-.89 1.35-1.78 2.01-2.68a.23.23 0 0 1 .11-.08Z" fill="url(#b)"/><path d="M42.27 15.68c-.1-.56-.24-1.11-.41-1.66l-7.03 9.28c-.05 1.46-.23 2.9-.54 4.32-.3 1.26-.73 2.45-1.3 3.56a11.7 11.7 0 0 1-3.02 3.74 16.66 16.66 0 0 1-6.08 3c-.09.02-.09.04 0 .04a29.8 29.8 0 0 0 8.04-.72c2.14-.5 4-1.28 5.6-2.34 1.44-.95 2.59-2.16 3.43-3.61a14.7 14.7 0 0 0 1.8-5.44c.25-1.84.3-3.68.16-5.54-.1-1.55-.33-3.1-.65-4.63Z" fill="url(#c)"/><path d="M21 42c-2.11 0-4.24 0-6.36-.02-.51 0-.93-.23-1.24-.68a2.25 2.25 0 0 1-.4-1.27c0-.02 0-.03.02-.03H31.1c.37 0 .64.04.82.11.56.26.92.78 1.07 1.57v.27c0 .03 0 .05-.03.05H21Z" fill="url(#d)"/><defs><linearGradient id="a" x1="15.57" y1="21.13" x2="22.92" y2="28.01" gradientUnits="userSpaceOnUse"><stop stop-color="#51B4AF"/><stop offset="1" stop-color="#017F6C"/></linearGradient><linearGradient id="b" x1="24.33" y1="26.96" x2="30.84" y2="32.73" gradientUnits="userSpaceOnUse"><stop stop-color="#3CAD68"/><stop offset="1" stop-color="#017F6C"/></linearGradient><linearGradient id="c" x1="32.02" y1="29.49" x2="39.92" y2="34.7" gradientUnits="userSpaceOnUse"><stop stop-color="#2488AD"/><stop offset="1" stop-color="#2B3E77"/></linearGradient><linearGradient id="d" x1="13" y1="41" x2="33" y2="41" gradientUnits="userSpaceOnUse"><stop stop-color="#F0D040"/><stop offset="1" stop-color="#E2AC39"/></linearGradient></defs></svg>