<!-- by TradingView --><svg width="56" height="56" viewBox="0 0 56 56" xmlns="http://www.w3.org/2000/svg"><path fill="#F0F3FA" d="M0 0h56v56H0z"/><path d="M11.19 25.15c.29 3.38 2.8 9.23 11.04 9.23 8.7 0 12.32-2.05 13.05-3.08v2.42c.04 3.63-1.94 10.88-10.11 11.27a17.6 17.6 0 0 1-13.98-19.84Z" fill="url(#a)"/><path d="M44.81 31.03c-.29-3.39-2.79-9.23-11.04-9.23-8.7 0-12.05 2.05-12.77 3.07v-2.41c-.04-3.64 1.66-10.88 9.83-11.27a17.6 17.6 0 0 1 13.98 19.84Z" fill="url(#b)"/><path d="M25.05 44.81c3.38-.3 9.95-2.8 9.95-11.06 0-8.72-1.71-12.03-2.73-12.75h2.41c3.63-.04 9.78 1.62 10.17 9.8a17.58 17.58 0 0 1-19.8 14.01Z" fill="#D1D835"/><path d="M30.99 11.19c-3.38.3-9.99 3.84-9.99 11.31 0 8.72 1.77 11.78 2.8 12.5h-2.42c-3.63.04-9.8-1.62-10.2-9.8A17.58 17.58 0 0 1 31 11.19Z" fill="#E8E034"/><path d="M21 22.15c0-.63.52-1.15 1.15-1.15h11.7c.63 0 1.15.52 1.15 1.15v11.7c0 .63-.52 1.15-1.15 1.15h-11.7c-.63 0-1.15-.52-1.15-1.15v-11.7Z" fill="#fff"/><path fill-rule="evenodd" d="M23.03 22a.99.99 0 0 0-.99.99V33c0 .55.44.99.99.99h10c.55 0 1-.44 1-.99V23a.99.99 0 0 0-1-.99h-10Zm.8 1a.82.82 0 0 0-.83.82v8.36c0 .45.37.82.82.82h8.36c.45 0 .82-.37.82-.82v-8.36a.82.82 0 0 0-.82-.82h-8.36Z" fill="url(#c)"/><path d="M30 24h2v1.8h-1.12v1.24h1.09v1.8h-1.09v1.37H32V32h-2v-8ZM28.16 27.7h.34l.15-.01a.34.34 0 0 0 .17-.11c.06-.06.1-.15.15-.28.04-.14.06-.33.06-.56 0-.24-.02-.42-.06-.55a.68.68 0 0 0-.15-.28.3.3 0 0 0-.19-.1.72.72 0 0 0-.16-.02h-.3v1.9Zm-.8-3.7h1.07c.15 0 .28.01.39.04.1.03.2.07.28.12.08.05.14.11.2.19l.14.23c.13.26.23.58.3.96a6.7 6.7 0 0 1-.26 3.26 2.4 2.4 0 0 1-.17.3.95.95 0 0 1-.2.22.77.77 0 0 1-.25.13c-.1.03-.2.04-.33.04h-.37V32h-.8v-8ZM24 24h.78l1.38 5.03V29L26.14 24H27v8h-.79l-1.35-4.86h-.01l.02 4.86H24v-8Z" fill="#CA8E38"/><defs><linearGradient id="a" x1="11" y1="35.07" x2="35.28" y2="35.07" gradientUnits="userSpaceOnUse"><stop stop-color="#003C3B"/><stop offset="1" stop-color="#B3CD3A"/></linearGradient><linearGradient id="b" x1="45" y1="21.11" x2="20.72" y2="21.11" gradientUnits="userSpaceOnUse"><stop stop-color="#003C3B"/><stop offset="1" stop-color="#B3CD3A"/></linearGradient><linearGradient id="c" x1="22.41" y1="22" x2="33.68" y2="33.61" gradientUnits="userSpaceOnUse"><stop stop-color="#1F1B1B"/><stop offset=".51" stop-color="#0079BE"/><stop offset="1" stop-color="#1D2024"/></linearGradient></defs></svg>