<!-- by TradingView --><svg width="56" height="56" viewBox="0 0 56 56" xmlns="http://www.w3.org/2000/svg"><path fill="#F0F3FA" d="M0 0h56v56H0z"/><path d="M45.14 23.98c-1.18-.31-1.84-1.13-2-2.45-.16-1.39.3-2.37 1.38-2.93 1.67-.88 5.88-1.1 6.42 1.55.2.94-.1 2.39-.64 3.1a3.06 3.06 0 0 1-1.92 1.2c-.64.13-1.24.14-1.79.05a.61.61 0 0 0-.4.06c-.53.28-.96.47-1.3.58-.17.05-.2.01-.07-.12l.46-.5c.04-.03.07-.08.08-.14a.35.35 0 0 0-.08-.32.3.3 0 0 0-.14-.08ZM12.96 29.98c.56.12.98-.7 1.13-1.2.2-.68.33-1.14.37-1.38.3-1.6.65-3.06 1.05-4.37a7 7 0 0 1 .62-1.45c.18-.32.45-.5.8-.55 1.13-.17 1.92.29 2.38 1.37a7.34 7.34 0 0 1 .35 2.43 25.8 25.8 0 0 1-.78 5.86 11.95 11.95 0 0 1-1.67 3.85 5.4 5.4 0 0 1-2.56 2.08c-2.03.78-3.71.36-5.04-1.26a10.04 10.04 0 0 1-1.88-3.7A19.9 19.9 0 0 1 7 26.24c0-1.22.2-2.73 1.02-3.46.5-.45 1.16-.37 1.54.2.39.58.71 1.26.97 2.04l1.02 3.04c.25.71.7 1.78 1.41 1.93ZM32.23 26.5c-.51.18-1.69.88-1.6 1.55.17 1.3.28 2.62.34 3.97a13.5 13.5 0 0 1-.2 3c-.09.49-.32.9-.84.96a2.41 2.41 0 0 1-1.7-.38 2.7 2.7 0 0 1-1.1-1.93l-.4-2.68a7.6 7.6 0 0 0-.66-2.24c-.18-.36-.51-.58-.9-.64-1.71-.27-5.1-.73-4.85-3.35.18-2 1.83-2.39 3.46-2.55 2.4-.24 4.96-.27 7.7-.1.7.04 1.31.12 1.84.25.55.14 1.03.4 1.46.76.53.47.62 1.43.19 2.05-.42.6-.89.85-1.67 1.04-.4.09-.74.19-1.06.3ZM40.56 32.03c.1-.49-.56-.97-.89-1.13-.77-.38-1.94-.72-2.76-1.37-1.17-.92-1.3-2.35-.6-3.66.65-1.24 1.84-1.59 3.18-1.77a7.5 7.5 0 0 1 3.08.12c.85.25 1.38.85 1.6 1.8.09.4.03.75-.18 1.03-.27.36-.6.54-1.01.54-1.43.01-2.34-.05-2.75.1-.12.05-.2.15-.22.3-.04.28-.04.46 0 .53.65.94 1.64 1.21 2.52 1.56.55.2 1.02.84 1.2 1.46.25.84.24 1.68-.04 2.53-.46 1.42-1.85 1.78-3.13 1.9-1.2.09-2.32 0-3.35-.27-.77-.2-1.19-.73-1.26-1.58-.06-.77.23-1.71.95-2 .23-.1.57-.12 1.04-.06.56.07 1.12.15 1.67.27.21.04.43.03.67-.04.16-.04.25-.13.28-.26Z" fill="#D0DC56"/></svg>