<!-- by TradingView --><svg width="56" height="56" viewBox="0 0 56 56" xmlns="http://www.w3.org/2000/svg"><path fill="#F0F3FA" d="M0 0h56v56H0z"/><path d="M28.26 14c.5.08.9.27 1.22.56.2.18.42.54.68 1.08l4.06 8.37c.12.25.1.46-.03.63-.07.1-.24.2-.5.33-.29.14-.98.53-2.1 1.16-.2.12-.4.21-.6.27-.12.04-.21 0-.27-.12l-2.88-6.06c-.03-.06-.06-.06-.09 0a245.37 245.37 0 0 0-3.9 8.68c-.2.44-.5.85-.9 1.23-.28.25-.7.5-1.29.77a45.18 45.18 0 0 1-7.47 2.73 18.4 18.4 0 0 1-3.66.6 4.03 4.03 0 0 1-2.1-.32c-.48-.26-.56-.67-.23-1.23.2-.34.53-.72 1-1.13a37.95 37.95 0 0 1 4.66-3.33c.03-.01.04-.04.03-.07 0-.04-.03-.06-.06-.06l-.5-.08c-.3-.05-.3-.11-.03-.2.95-.32 1.55-.51 1.8-.57.06-.01.09.01.09.07v.03l-.88 1.74c-.08.16-.13.15-.14-.03l-.05-.69a.05.05 0 0 0-.03-.04h-.05a8.94 8.94 0 0 0-1.58 1.65.93.93 0 0 0-.2.57c0 .17.1.27.26.31.38.08.8.07 1.25-.03 1.51-.34 2.8-.73 3.89-1.17.23-.1.47-.26.7-.48a6.02 6.02 0 0 0 1.48-2.12 675.7 675.7 0 0 1 4.9-11.44A2.54 2.54 0 0 1 26.85 14h1.41Z" fill="#0C2B49"/><path d="M39.02 18.89c-.07.14-.03.18.12.12a14.7 14.7 0 0 1 3.73-.97c.93-.1 1.8 0 2.58.31 1.03.42.61 1.53-1.25 3.32a327.83 327.83 0 0 1-7.55 6.1c-.16.14-.2.3-.12.48 1.17 2.63 2.62 6.02 4.36 10 .06.13.14.75-.11.75h-4.16c-.25 0-.43-.2-.53-.42l-3.74-8.1c-.04-.08-.1-.1-.17-.06-4.7 2.64-9.17 5.04-13.41 7.23-1.05.54-1.95.95-2.7 1.23-.09.03-.28.07-.57.11-.25.04-.44-.03-.56-.2-.12-.15-.16-.35-.12-.6.16-1.03.45-1.99.89-2.87a2.14 2.14 0 0 1 .7-.65c.86-.49 1.63-.9 2.31-1.25l7.62-3.88c2.88-1.47 5.55-2.95 8.01-4.44a87.35 87.35 0 0 0 4.67-3.13c.6-.42 1.16-.87 1.67-1.33.2-.18.37-.4.5-.63.06-.14.04-.26-.08-.36a1.17 1.17 0 0 0-.56-.26 6.28 6.28 0 0 0-1.33-.12c-.19 0-.2.07-.05.18l.41.3c.18.14.17.19-.06.15l-1.84-.3c-.17-.02-.19-.08-.05-.2l1.38-1.04c.29-.22.35-.16.2.16l-.19.37Z" fill="#D51A22"/></svg>