<!-- by TradingView --><svg width="56" height="56" viewBox="0 0 56 56" xmlns="http://www.w3.org/2000/svg"><path fill="#F0F3FA" d="M0 0h56v56H0z"/><path fill="#412210" d="M15 15h26v26H15z"/><path d="m28 10 18 18-18 18-18-18 18-18Z" fill="#FCD23E"/><path fill-rule="evenodd" d="M31.1 32.24A4.91 4.91 0 0 1 27.44 34C25.18 34 22 32.24 22 28.71c0-3.52 2.32-6.21 5.5-6.21S31 24.12 31 25c0 .88-.36 3.27-3.55 3.71v1.86h1.37c1.36 0 2.27-1.42 1.36-2.74.46.15 1.82 1.17 1.82 2.2 0 .89-1.3 1.97-3.18 1.97H26v-7.7c-.9.3-3 1.6-3 4.41 0 3.53 3.1 4.29 4.45 4.29 1.37 0 3.19-.32 3.64-.76ZM29 25.5c0 1-.9 1.5-1.5 1.5v-3c.6 0 1.5.7 1.5 1.5Z" fill="#EF8120"/><path d="m28 36.18-.31-.06c-3.32-.77-10-6.52-5.6-13.12 3.58-5.37 11.41-4.57 15.45-3.46L28 10l-7.38 7.38a17.63 17.63 0 0 0-2.62 7.9c-.35 7.05 6.12 10.12 9.69 10.84.1.03.21.05.31.06Z"/><path d="m28 19.82.31.06c3.32.77 10 6.52 5.6 13.12-3.58 5.37-11.41 4.57-15.45 3.46L28 46l7.38-7.38a17.63 17.63 0 0 0 2.62-7.9c.35-7.05-6.12-10.12-9.69-10.84-.1-.03-.21-.05-.31-.06Z"/><path fill-rule="evenodd" d="M28 35.11a7.11 7.11 0 1 0 0-14.22 7.11 7.11 0 0 0 0 14.22Zm0 .89a8 8 0 1 0 0-16 8 8 0 0 0 0 16Z" fill="#412210"/></svg>