<!-- by TradingView --><svg width="56" height="56" viewBox="0 0 56 56" xmlns="http://www.w3.org/2000/svg"><path fill="#F0F3FA" d="M0 0h56v56H0z"/><path d="M22.5 21.5a1.75 1.75 0 1 0 0-3.5 1.75 1.75 0 0 0 0 3.5ZM9 35V19h3v14h7v2H9Zm12 0V23h3v12h-3Zm7-10v7.28c.1.9.93 2.72 3.55 2.72 1.7 0 3-.63 3.45-.95l-.93-1.56c-.14.17-.48.56-1.39.56-1.13 0-1.68-.95-1.68-1.85V25h3v-2h-3v-3l-3 1.25V23h-2v2h2Zm9 7.02V23h3v7.69c-.02.7.52 2.13 2.25 2.13 1.52 0 2.37-1.3 2.75-2.34V23h3v12h-3v-1.6c-.94.85-2.3 1.6-4.04 1.6-3.06 0-3.92-1.99-3.96-2.98Z" fill="#B6883F"/></svg>