<!-- by TradingView --><svg xmlns="http://www.w3.org/2000/svg" width="56" height="56"><path d="M0 28a28 28 0 1156 0 28 28 0 01-56 0z" fill="#F0F3FA"/><path d="M16 24.5V12c12.5.5 14 15.5 14 15.5s-4.5-.5-10-.5c-2.4 0-4-1.5-4-2.5z" fill="#F6AA00"/><path d="M31.5 28c0-3.5-.5-10-5.5-16h14v22.5C38.5 32 35.5 29 31.5 28z" fill="#FCCF00"/><path d="M16 30v-1c6 1.5 9.5 0 11.5 0 1.5 0 2.43.52 3.1 3.5.95 4.2 2.61 4.54 3.45 5.2 0 0-2.83 1.6-7.5-2-5.2-4-9.05-5.53-10.55-5.7z" fill="#C8291D"/><path d="M40 38c-1.5-3.5-4.4-7.6-8.4-8.1.94 5.16 3.4 9.1 8.4 8.1z" fill="#EF8200"/><path d="M16 44V32c5.5 1 8.8 6.58 14.5 7.65 4.07.76 7.79-.3 9.5-1.15V44H16z" fill="#A0141A"/></svg>