<!-- by TradingView --><svg width="56" height="56" viewBox="0 0 56 56" xmlns="http://www.w3.org/2000/svg"><path fill="#D10D23" d="M0 0h56v56H0z"/><path d="m10.9 25.13-1.08 1.62a.98.98 0 0 1-.23-.17 1 1 0 0 1 .14-.86c.21-.3.61-.5 1.16-.59Zm-1.88 1.23c.04.39.23.66.5.84L4 35.52l19.41-3.01L41.42 36 52 20l-25.74 4.9-12.18-4.57-2.8 4.21c-1.43.03-2.32.61-2.32 1.48 0 0 0 .13.02.18l.04.16" fill="#fff"/><path d="M9.58 26.58a.99.99 0 0 1 .14-.86c.3-.4.93-.64 1.81-.64h.23l-1.23 1.85h.23c1.33 0 2.1-.68 2.38-1l.56-.75c-.53-.2-1.3-.41-2.24-.41-1.3 0-2.1.52-2.1 1.25 0 .22.08.41.22.56Zm27.37-.65c0-.24-.17-.36-.36-.36-.33 0-.53.3-.53.56 0 .2.12.34.37.34.29 0 .52-.27.52-.54Zm-27.93.43c.17.5.74.81 1.7.81.8 0 1.44-.24 1.9-.51-.71 1-1.66 2.38-2 2.93-.18.28-.3.5-.3.7 0 .36.36.55.77.55.49 0 .88-.34 1.38-.96l.18-.23-.02.24c0 .52.32.96 1.34.96 1.38 0 2.67-.72 3.93-1.89l.26-.24c-.4.53-.56.9-.56 1.13 0 .29.2.46.53.46.5 0 1.05-.39 1.48-.82l.2-.2c-.13.24-.2.44-.2.6 0 .23.15.42.5.42.62 0 1.2-.54 1.7-1.06-.07.17-.14.38-.14.54 0 .32.22.52.58.52.46 0 .93-.25 1.46-.84l.27-.3c-.1.18-.2.42-.2.67 0 .29.17.46.52.46.76 0 1.44-.79 1.84-1.23-.2.32-.32.55-.32.77 0 .33.24.46.53.46.67 0 1.28-.58 1.74-1.15-.11.22-.23.44-.23.68 0 .3.21.47.57.47.33 0 .74-.12 1.2-.53.43-.37.75-.78 1.01-1.17.12.2.31.32.53.38-.1.21-.15.44-.15.63 0 .41.26.7.84.7.97 0 1.78-.83 2.28-1.35-.25.41-.33.66-.33.86 0 .3.2.48.56.48.64 0 1.3-.63 1.9-1.18.2-.2.67-.66 1.34-1.36l-.15.71c-.23 1.26-.58 1.65-1.01 1.65-.38 0-.29-.4-.57-.4a.2.2 0 0 0-.2.2c0 .21.26.4.71.4.87 0 1.48-.52 1.97-.95l.75-.66c-.16.28-.3.6-.3.93 0 .38.25.66.8.66 1.05 0 1.86-.95 2.3-1.5.6-.75 1.06-1.32 1.33-1.32.06 0 .1.04.1.1 0 .11-.09.25-.25.53-.5.87-1.24 1.93-1.36 2.13l.87-.04c.4-.64 1.5-2.04 2.05-2.5-.14.2-.22.42-.22.6 0 .31.2.5.62.5.21 0 .38-.04.55-.13l-.07-.16c-.1.06-.2.09-.31.09-.2 0-.25-.13-.25-.28 0-.33.32-.75.65-.85 0-.15-.16-.27-.4-.27-.32 0-.77.25-1.7 1.41.28-.5.42-.73.42-1.01 0-.22-.15-.39-.47-.39-.59 0-.97.52-1.75 1.5-.5.6-1.14 1.25-1.77 1.25-.23 0-.34-.1-.34-.3 0-.23.11-.5.2-.66.82-.08 1.98-.73 1.98-1.43 0-.3-.2-.41-.55-.41-.41 0-.93.2-1.48.7-.54.48-1.43 1.3-1.88 1.66.22-.31.27-.61.27-.97 0-.35-.04-.62-.04-.96 0-.04 0-.1.02-.14.18-.04.33-.16.33-.34 0-.14-.1-.25-.27-.25-.22 0-.4.16-.5.52l-1.07 1.1c-.92.92-1.55 1.47-1.9 1.47-.08 0-.14-.04-.14-.14 0-.19.27-.65.5-1.01l.97-1.5-.86.05-.35.48c-.6.77-1.72 2.13-2.63 2.13-.29 0-.38-.14-.38-.33 0-.2.1-.43.2-.62 1.14-.16 1.98-.9 1.98-1.44 0-.28-.17-.41-.54-.41-1.04 0-1.86 1-2.2 1.64a.72.72 0 0 1-.5-.4c.32-.52.5-.97.5-1.13 0-.08-.1-.14-.23-.14a.4.4 0 0 0-.34.17c-.14.2-.22.55-.21.95-.21.59-1.09 1.7-1.71 1.7-.12 0-.16-.06-.16-.15 0-.19.22-.6.62-1.25l.78-1.25-.85.04c-.2.3-.37.57-.6.87-.9 1.25-1.51 1.74-1.84 1.74-.1 0-.14-.05-.14-.13s.04-.18.13-.34c.28-.5.95-1.47 1.43-2.18l-.87.04c-.1.15-.38.54-.5.67-1.2 1.5-1.79 1.93-2.09 1.93-.1 0-.14-.06-.14-.15 0-.24.27-.7.81-1.59l2.09-3.35.22.27-.14.24 22.99-4.37-4.98 7.52.23.14.12.26c-.15.09-.4.21-.72.21h-.04l-4.04 6.11-17.66-3.42-17.97 2.78 4.73-7.13c-.6-.12-1.1-.44-1.17-1.1Zm5.03-1.64 1.03-.05-.47.63.56.28c.64-.8 1.23-1.15 2-1.15.84 0 1.15.46 1.15.94 0 .43-.26.92-.56 1.22-.41.4-.98.6-1.44.7.25.13.72.32.72 1.04 0 .6-.34 1.16-.73 1.59a10.9 10.9 0 0 0 2.34-2.03 14 14 0 0 0 .41-.54l.9-.06s-1.15 1.7-1.4 2.12c-.13.23-.17.33-.17.42 0 .05.03.1.13.1.35 0 1-.57 1.48-1.16.2-.27.98-1.42.98-1.42l.91-.05-.98 1.48c-.24.38-.44.71-.5.89a.45.45 0 0 0-.02.14c0 .08.05.13.14.13.53 0 1.48-1.23 1.78-1.6.55-.69 1.23-1.17 1.96-1.17.33 0 .54.13.64.34.3-.46.83-1.34 1.2-1.93l-11.32-4.25-.43-.16-.26.38-2 3.02c.7.07 1.27.24 1.74.41l.2-.27Zm.64 3.43v.22c-1.1.02-1.79.75-1.79 1.5 0 .4.22.69.82.69 1.39 0 2.34-1.45 2.34-2.4 0-.44-.16-.82-.86-.82h-.33l-.26.01.2-.3c.6 0 1.08 0 1.42-.16a2.05 2.05 0 0 0 1.14-1.6c0-.3-.11-.54-.5-.54-.58 0-1.1.55-1.44.98.29.17.5.31.64.43l-.14.17c-.19-.14-.4-.29-.64-.42-.37.47-1.2 1.74-1.78 2.56.38-.24.87-.32 1.18-.32Zm18.93-.63c0-.09-.05-.15-.15-.15-.4 0-.94.71-1.34 1.43.68-.1 1.5-.75 1.5-1.28h-.01Zm7.79 0c0-.09-.04-.15-.14-.15-.35 0-.84.53-1.35 1.43.68-.11 1.49-.8 1.49-1.28Zm-18.73 2.4c.17 0 .45-.12.86-.56.38-.41.81-.96 1.14-1.5a.33.33 0 0 0 .05-.17c0-.17-.12-.26-.31-.26-.34 0-.67.22-1.13.79-.4.49-.8 1.21-.8 1.53 0 .08.02.18.19.18Zm-11.26 0c.18-.3 2.85-4.14 3.06-4.43l.55.27c-.43.58-1.06 1.55-1.7 2.45-.7 1-1.2 1.72-1.61 2.06-.16.13-.27.2-.37.2-.09 0-.12-.05-.12-.11 0-.07.03-.18.19-.44" fill="#D10D23"/></svg>