<!-- by TradingView --><svg width="56" height="56" viewBox="0 0 56 56" xmlns="http://www.w3.org/2000/svg"><path fill="#F0F3FA" d="M0 0h56v56H0z"/><path d="M33.3 12H16v32h17.42c.2 0 .39 0 .58-.02V43h3.38a8.57 8.57 0 0 0 1.47-1H34v-1h5.85c.27-.31.52-.65.74-1H34v-1h7.14a9 9 0 0 0 .4-1H21v-1h20.8c.08-.33.13-.66.16-1H21v-1h21c0-.34-.03-.67-.07-1H21v-1h20.76a9.03 9.03 0 0 0-.3-1H21v-1h20.02a8.94 8.94 0 0 0-.59-1H32v-1h7.64c-.34-.36-.7-.7-1.1-1H32v-1h4.9c-.2-.1-.42-.18-.63-.26.45-.2.88-.45 1.28-.74H21v-1h17.67c.29-.31.55-.64.78-1H21v-1h19c.15-.32.28-.66.39-1H21v-1h19.62a8 8 0 0 0 .1-1H21v-1h19.7a7.93 7.93 0 0 0-.15-1H21v-1h19.26a7.78 7.78 0 0 0-.44-1H34v-1h5.18c-.26-.36-.56-.7-.89-1H34v-1h2.96a7.21 7.21 0 0 0-3.67-1Z" fill="#009B4E"/></svg>