<!-- by TradingView --><svg width="56" height="56" viewBox="0 0 56 56" xmlns="http://www.w3.org/2000/svg"><path fill="#F0F3FA" d="M0 0h56v56H0z"/><path d="M32 17.5a6.5 6.5 0 0 1-8.23 6.27 6.5 6.5 0 0 1-.07 3.7 3.37 3.37 0 0 0-1.67-2.09 4.53 4.53 0 1 0-1.58 3.56c.28.17.55.41.73.75.18.35.2.73.12 1.09a6.5 6.5 0 1 1-2.06-11.54 6.5 6.5 0 0 1 8.22-7.94 3.37 3.37 0 0 0-2.08 1.67 4.53 4.53 0 1 0 3.56 1.58c.17-.28.41-.55.75-.73.35-.18.73-.2 1.09-.12A6.47 6.47 0 0 1 32 17.5ZM25.5 45a6.5 6.5 0 0 0 5.28-10.3 1.54 1.54 0 0 0-1.09.12c-.34.18-.58.45-.75.73a4.53 4.53 0 1 1-3.56-1.58c.29-.58.91-1.3 2.08-1.67a6.5 6.5 0 0 0-3.7-.07 6.51 6.51 0 0 0-10.06-7c-.07.35-.06.73.12 1.08.19.34.45.58.73.75a4.53 4.53 0 1 1-1.58 3.56 3.37 3.37 0 0 1-1.67-2.08 6.5 6.5 0 0 0 7.93 8.23A6.5 6.5 0 0 0 25.5 45Zm5-13a6.5 6.5 0 0 0-5.28 10.3c.36.08.74.06 1.09-.12.34-.18.58-.45.75-.73a4.53 4.53 0 1 1 3.56 1.58c-.29.58-.91 1.3-2.08 1.67a6.5 6.5 0 0 0 8.23-7.93 6.5 6.5 0 1 0-2.07-11.55c-.08.36-.06.74.12 1.09.19.34.45.58.73.75a4.53 4.53 0 1 1-1.58 3.56 3.37 3.37 0 0 1-1.67-2.08 6.5 6.5 0 0 0-.07 3.7A6.5 6.5 0 0 0 30.5 32Zm0-21a6.5 6.5 0 0 0-5.28 10.3c.36.08.74.06 1.09-.12.34-.18.58-.45.75-.73a4.53 4.53 0 1 1 3.56 1.58c-.29.58-.91 1.3-2.08 1.67a6.5 6.5 0 0 0 3.7.07 6.5 6.5 0 0 0 10.06 7c.08-.35.06-.73-.12-1.08a1.97 1.97 0 0 0-.73-.75 4.53 4.53 0 1 1 1.58-3.56c.58.29 1.3.91 1.67 2.08a6.5 6.5 0 0 0-7.93-8.23A6.5 6.5 0 0 0 30.5 11Z" fill="#AC6E38"/></svg>