<!-- by TradingView --><svg width="56" height="56" viewBox="0 0 56 56" xmlns="http://www.w3.org/2000/svg"><path fill="#F0F3FA" d="M0 0h56v56H0z"/><path d="M13 35v-.5c-.67 0-2-.4-2-2V24c.17-.83.8-2.5 2-2.5V21c-1.67.17-5 1.4-5 5v3c0 2 1 6 5 6Zm5.5-14v5H18c0-2.8-3-4.5-4.5-5 .95 0 1.9.2 2.6.35.4.08.72.15.9.15.4 0 .83-.33 1-.5h.5Zm.5 7h-5.5v.5H15v5c0 .8-.67 1-1 1h-.5v.5c2.4 0 4-1.33 4.5-2v-4.5h1V28ZM42 35v-.5c-.67 0-2-.4-2-2V24c.17-.83.8-2.5 2-2.5V21c-1.67.17-5 1.4-5 5v3c0 2 1 6 5 6Zm5.5-14v5H47c0-2.8-3-4.5-4.5-5 .95 0 1.9.2 2.6.35.4.08.72.15.9.15.4 0 .83-.33 1-.5h.5Zm.5 7h-5.5v.5H44v5c0 .8-.67 1-1 1h-.5v.5c2.4 0 4-1.33 4.5-2v-4.5h1V28ZM22 21v.5h.75l6.5 13H27.5v.5H34v-.5h-.75l-6.5-13H28V21h-6Zm8 0h4v.5h-1.36l-3.14 4.4v-.7l2.64-3.7H30V21Zm-8 14v-.5h.86L26 30.1v.7l-2.64 3.7H26v.5h-4Z"/></svg>