<!-- by TradingView --><svg width="56" height="56" viewBox="0 0 56 56" xmlns="http://www.w3.org/2000/svg"><path fill="#F0F3FA" d="M0 0h56v56H0z"/><path d="M19.24 38.08c.79.25 1.64.44 2.56.57 3.85.53 8.15.45 11.9-.71h.01v.02c-.4.32-.73.69-1 1.1-.9 1.44.03 3.17 1.35 3.9a.02.02 0 0 1 0 .02V43H15.04l-.03-.01-.01-.03V13.04a.04.04 0 0 1 .04-.04h25.92c.03 0 .04.01.04.04v22.52c0 .03-.02.05-.05.05-1.9.16-3.71.62-5.46 1.38-.03.02-.04 0-.02-.02.18-.3.3-.5.22-.85-.14-.6-1.1-1.1-1.64-1.26h-.01v.02c.54.43.9.95.47 1.62-.4.64-1.68 1.06-2.38 1.26a27.25 27.25 0 0 1-12.89.28c-.22-.05-.22-.03 0 .04Zm-1.38-.92a.74.74 0 0 0-.73-.74.73.73 0 0 0-.74.74.74.74 0 0 0 .74.74.73.73 0 0 0 .73-.74Z" fill="#0D528B"/><path d="M17 38a1 1 0 1 0 0-2 1 1 0 0 0 0 2Z" fill="#F25C19"/><path d="M34.38 42.97c-.7-.7-1.06-1.83-.69-2.79.63-1.6 3.07-2.7 4.6-3.14.86-.25 1.73-.46 2.61-.62.03 0 .04 0 .04.03v6.51a.04.04 0 0 1-.04.04h-6.44a.1.1 0 0 1-.08-.03Z" fill="#0D528B"/></svg>