<!-- by TradingView --><svg width="56" height="56" viewBox="0 0 56 56" xmlns="http://www.w3.org/2000/svg"><path fill="#F0F3FA" d="M0 0h56v56H0z"/><path d="M33 43.49v-20.9l11 5.77v6.2c0 1.58-.85 3.05-2.23 3.84L33 43.5Z" fill="url(#a)"/><path d="M12 35.6v-3.75l4.99-4.04L39.22 39.9l-9.43 5.6a3.58 3.58 0 0 1-3.64.01L13.4 38.04A2.83 2.83 0 0 1 12 35.6Z" fill="url(#b)"/><path d="m28.03 10 10.73 6.07L12 31.96V21.3c0-1.43.77-2.74 2.02-3.44l14-7.87Z" fill="url(#c)"/><defs><linearGradient id="a" x1="40.49" y1="26.09" x2="37.02" y2="38.74" gradientUnits="userSpaceOnUse"><stop stop-color="#AEC92E"/><stop offset="1" stop-color="#208A2C"/></linearGradient><linearGradient id="b" x1="18" y1="28.52" x2="29.11" y2="45.07" gradientUnits="userSpaceOnUse"><stop stop-color="#F97425"/><stop offset=".24" stop-color="#FEB830"/><stop offset=".77" stop-color="#FDB333"/><stop offset="1" stop-color="#F26023"/></linearGradient><linearGradient id="c" x1="38.81" y1="16.42" x2="11.46" y2="32.04" gradientUnits="userSpaceOnUse"><stop stop-color="#90CDED"/><stop offset="1" stop-color="#0463AF"/></linearGradient></defs></svg>