<!-- by TradingView --><svg width="56" height="56" viewBox="0 0 56 56" xmlns="http://www.w3.org/2000/svg"><path fill="#F0F3FA" d="M0 0h56v56H0z"/><path fill="#B3132D" d="M27 24h2v8h-2zM43 24v2h-5v-2h5Zm-5 3h5v2h-3v3h-2v-5ZM30 24h2l3 4.55V24h2v8h-2l-3-4.2V32h-2v-8Z"/><path fill-rule="evenodd" d="M48 32a4 4 0 1 0 0-8 4 4 0 0 0 0 8Zm0-2a2 2 0 1 0 0-4 2 2 0 0 0 0 4Z" fill="#B3132D"/><path d="M20 24h3a3 3 0 1 1 0 6h-1v2h-2v-4h3a1 1 0 1 0 0-2h-3v-2ZM8 24a4 4 0 0 0 0 8h2v-2H8a2 2 0 1 1 0-4h2v-2H8ZM15.96 24H14l2.28 6h-2.37L15 27h-2.18L11 32h8l-3.04-8Z" fill="#B3132D"/></svg>