<!-- by TradingView --><svg width="56" height="56" viewBox="0 0 56 56" xmlns="http://www.w3.org/2000/svg"><path fill="#F0F3FA" d="M0 0h56v56H0z"/><path d="M19.45 36.37c-.03.02-.03.04 0 .07.01.03.03.03.06.01a39.53 39.53 0 0 0 13.04-12.37 18 18 0 0 0 2.57-5.73c.53-2.3.31-4.27-.65-5.91-.26-.45-.16-.55.3-.31 1.07.57 1.7 1.72 1.9 3.45.01.15.08.27.19.36l1.33 1.05c.18.15.23.34.14.56-1.17 3-2.86 5.9-5.06 8.71-5.56 7.1-11.36 11.9-17.4 14.4-1.03.42-2.28.79-3.75 1.1-.05.01-.1 0-.12-.05 0-.02.03-.04.1-.08l5.32-2.56c.12-.05.12-.14 0-.27a14.9 14.9 0 0 1-4.24-7.8c-.55-2.94-.31-5.76.72-8.43a14.64 14.64 0 0 1 5.16-6.67 15.15 15.15 0 0 1 9.44-2.85c1.21.02 2.15.3 2.82.83 1.78 1.4 2.29 3.43 1.54 6.08a17.57 17.57 0 0 1-3.23 5.94 69.78 69.78 0 0 1-10.18 10.47Zm8.1-18.7c1.13.75 1.61 1.93 1.43 3.54a9.49 9.49 0 0 1-1.26 4.14v.1c.01.07.05.06.12-.03a14.18 14.18 0 0 0 2.54-5.07c.26-.97.32-1.86.16-2.66a3 3 0 0 0-1.41-2.13 3.14 3.14 0 0 0-1.83-.39c-.63.03-1.23.17-1.8.42a14.26 14.26 0 0 0-5.7 4.5c-.12.16-.1.18.05.04a18.6 18.6 0 0 1 1.96-1.49 9.15 9.15 0 0 1 2.85-1.25c1.2-.28 2.16-.19 2.88.28Z" fill="#6EB92C"/><path d="M40.96 20.44a15.25 15.25 0 0 1 1.87 9.86 14.43 14.43 0 0 1-4.67 8.74 14.5 14.5 0 0 1-8.56 3.88c-3.2.33-6.3-.32-9.3-1.94-.15-.08-.16-.18 0-.28a81.77 81.77 0 0 0 9.58-7.62 41.58 41.58 0 0 0 9.07-11.84c.93-1.82 1.52-4 1.79-6.52.02-.26.08-.27.16-.02.32 1.01.41 2.04.27 3.08a41.9 41.9 0 0 0-.29 2.3c-.01.12.01.25.08.36Z" fill="#00438F"/></svg>