<!-- by TradingView --><svg width="56" height="56" viewBox="0 0 56 56" xmlns="http://www.w3.org/2000/svg"><path fill="#F0F3FA" d="M0 0h56v56H0z"/><path d="M39 14.94A21.31 21.31 0 0 0 28.06 12 21.5 21.5 0 0 0 17 14.98v1.78a22.54 22.54 0 0 1 11.06-2.77c4.1 0 7.9 1.01 10.94 2.7v-1.75Zm2 3.05c3.24 2.42 5.24 5.75 5.24 9.42 0 1.72-.44 3.36-1.24 4.87v2.88c1.28-2.15 2-4.58 2-7.16 0-4.6-2.3-8.76-6-11.68v1.67Zm2 19.84v-2.78c-3.28 3.5-8.75 5.78-14.94 5.78-6.27 0-11.8-2.34-15.06-5.9v2.86C16.5 41.57 21.96 44 28.06 44c6.07 0 11.47-2.41 14.94-6.17Zm-32-2.7v-3.07a10.33 10.33 0 0 1-1.12-4.65c0-3.63 1.95-6.92 5.12-9.33v-1.72C11.31 19.28 9 23.42 9 28c0 2.56.72 4.98 2 7.12Z" fill="#EB2924"/><path d="M36 17.06A16.11 16.11 0 0 0 28 15c-2.97 0-5.73.76-8 2.06v1.27c2.23-1.2 5-1.9 8-1.9s5.77.7 8 1.9v-1.27Zm1 1.86c2.72 1.76 4.43 4.32 4.43 7.16A7.5 7.5 0 0 1 40 30.42v2a9.97 9.97 0 0 0 2-5.92c0-3.54-1.94-6.7-5-8.8v1.22Zm2 14.7v-2c-2.43 2.48-6.45 4.1-11 4.1s-8.57-1.62-11-4.1v2C19.56 36.28 23.54 38 28 38s8.44-1.71 11-4.39Zm-23-1.2v-2a7.5 7.5 0 0 1-1.44-4.34c0-2.84 1.72-5.4 4.44-7.16v-1.23c-3.06 2.11-5 5.27-5 8.81 0 2.17.73 4.2 2 5.93Z" fill="#EB2924"/><path d="M34 19.48a12.26 12.26 0 0 0-6-1.5c-2.25 0-4.33.56-6 1.5v.82a13 13 0 0 1 6-1.38 13 13 0 0 1 6 1.38v-.82Zm1 1.43c1.61 1.12 2.6 2.64 2.6 4.3 0 .88-.28 1.71-.77 2.47V29A6.05 6.05 0 0 0 38 25.5c0-2.1-1.15-4-3-5.36v.78Zm1.03 9.06v-1.3C34.3 30.38 31.36 31.5 28 31.5c-3.36 0-6.31-1.13-8.03-2.84v1.3C21.8 31.81 24.71 33 28 33c3.29 0 6.2-1.2 8.03-3.03Zm-16.86-.96v-1.33a4.5 4.5 0 0 1-.77-2.46c0-1.67.99-3.19 2.6-4.31v-.78c-1.85 1.36-3 3.26-3 5.36 0 1.27.42 2.47 1.17 3.52Z" fill="#EB2924"/><path d="M21 23.41c0-.78.5-1.41 1.11-1.41h2.33c.31 0 .56.31.56.7 0 .4-.25.7-.56.7h-1.66v3.2h1.66c.31 0 .56.3.56.7 0 .39-.25.7-.56.7h-2.33c-.61 0-1.11-.63-1.11-1.41V23.4ZM26 23.41c0-.78.5-1.41 1.11-1.41h2.33c.31 0 .56.31.56.7 0 .4-.25.7-.56.7h-1.66v3.2h1.66c.31 0 .56.3.56.7 0 .39-.25.7-.56.7h-2.33c-.61 0-1.11-.63-1.11-1.41V23.4ZM36 22.66c0-.37-.27-.66-.6-.66h-3.8c-.33 0-.6.3-.6.66 0 .36.27.65.6.65h.7v4.13c0 .3.22.56.51.56h1.38c.29 0 .52-.25.52-.56V23.3h.69c.33 0 .6-.3.6-.65Z" fill="#002F78"/></svg>