<!-- by TradingView --><svg width="56" height="56" viewBox="0 0 56 56" xmlns="http://www.w3.org/2000/svg"><path fill="#F0F3FA" d="M0 0h56v56H0z"/><path d="M36.35 24.75c-.05 0-.07.04-.06.09l.02.09c.01.06.05.09.11.08.1-.01.2 0 .3.03.05.02.1.05.12.1.1.23.28.33.52.29l.37-.14a.66.66 0 0 1 .48-.01c.13.05.12.08-.01.11l-.63.14c-.06.01-.1.05-.1.12 0 .16-.07.24-.2.22a.34.34 0 0 1-.16-.05c-.34-.23-.67-.28-1-.15-.12.04-.12.1 0 .16l.5.27c.05.03.08.06.1.1.16.28.38.45.64.52.07.02.1.06.07.13-.05.11-.11.16-.18.15-1.4-.34-2.71-.95-3.96-1.84a21.3 21.3 0 0 1-5.18-5.23.11.11 0 0 0-.09-.05.1.1 0 0 0-.09.05 21.65 21.65 0 0 1-5.12 5.18c-1.27.9-2.58 1.53-3.95 1.86a.2.2 0 0 1-.14-.02l-.1-.05a.09.09 0 0 1-.04-.1c0-.03.03-.06.07-.07.28-.06.51-.25.69-.58a.2.2 0 0 1 .12-.1c.27-.09.45-.17.54-.26.05-.05.04-.09-.03-.11a1.14 1.14 0 0 0-1.1.16.2.2 0 0 1-.19.03.15.15 0 0 1-.1-.15v-.08c0-.06-.04-.1-.11-.1a.72.72 0 0 1-.4-.13.17.17 0 0 0-.16-.03l-.16.03c-.02 0-.03 0-.04-.02v-.05c-.02-.03 0-.04.02-.05.18-.09.35-.1.49-.02.2.1.42.15.62.16.06 0 .1-.02.14-.06l.35-.36c.05-.05.1-.06.16-.03l.08.04c.04.03.08.02.1-.03l.06-.12c.04-.07.02-.1-.05-.12-.59-.12-1.1-.05-1.53.21a.52.52 0 0 1-.49.05 2.71 2.71 0 0 0-1.19-.2.3.3 0 0 1-.15-.03c-.34-.2-.63-.29-.86-.29-.34 0-.65-.06-.94-.17v-.02l.02-.04c0-.02 0-.02.02-.02l1.04.12c.2.03.47 0 .8-.05.45-.1.72-.14.8-.13.07 0 .09-.03.06-.1-.03-.08-.1-.13-.22-.16-.5-.12-.8-.2-.88-.23-.15-.06-.36-.04-.63.05l-.03.01c-.06.02-.11.02-.15 0a.44.44 0 0 0-.09-.05l-.1.01a.8.8 0 0 1-.57-.03c-.02 0-.02-.02 0-.04l.03-.04h.02c.15.06.33.1.54.09.06 0 .1-.03.1-.09v-.1a.2.2 0 0 1 .1-.16c.14-.1.25-.23.34-.38.03-.06.01-.1-.05-.12a2.2 2.2 0 0 0-1-.14c-.06.01-.11 0-.16-.03l-1.8-.96c4.17.56 7.7-.62 10.59-3.54.41-.42.96-1.1 1.65-2.06.07-.1.19-.2.35-.3a4.88 4.88 0 0 1 4.94-.26c.44.21.84.56 1.2 1.04a11.94 11.94 0 0 0 12.1 5.08c-.2.04-.37.1-.53.2-.4.23-.9.51-1.5.82a.23.23 0 0 1-.15.02 1.9 1.9 0 0 0-1.05.14c-.07.03-.08.07-.02.12l.35.37c.04.04.07.09.08.14 0 .07.03.13.06.17.04.05.02.08-.05.09-.18 0-.34-.02-.49-.07a.28.28 0 0 0-.16-.02c-.54.13-.93.24-1.18.33-.27.1-.26.18.03.21l.4.07a4.44 4.44 0 0 0 1.88 0c.38-.05.4 0 .04.14-.22.09-.51.12-.87.1-.07 0-.29.09-.64.28a.3.3 0 0 1-.16.03c-.46-.01-.88.06-1.24.2a.45.45 0 0 1-.44-.04 2.06 2.06 0 0 0-1.54-.22Zm7.28-3.1-.05.01-.05.01.1-.02Zm0 0a15.2 15.2 0 0 0 .11-.01c0 .03 0 .04 0 0l-.11.01Zm-30.93.06a17.84 17.84 0 0 1-.1-.02l.01-.03.09.05Zm-.84.78c.03.02.08.02.16 0 .07 0 .12 0 .16.04.05.04.07.1.05.17-.02.11-.08.14-.18.1-.3-.17-.63-.22-1-.18-.02 0-.03 0-.03-.03l-.02-.06c-.01-.06.01-.1.08-.1.28-.06.54-.04.78.06Zm31.95.02c-.03 0-.04.02-.03.05l.02.17c0 .02.02.03.04.03h.03c.76-.11 1.14-.2 1.13-.24l-.01-.1c-.01-.05-.4-.02-1.15.09h-.03Zm-30.2 1.33-.2-.04c-.07-.02-.09-.06-.04-.13a.17.17 0 0 1 .04-.04c.01-.01.04-.01.07 0 .1.02.16.04.2.07.11.1.1.14-.06.14Zm27.88-.22c-.07 0-.14 0-.21.03-.1.02-.1.06 0 .09.05.02.12 0 .22-.07.04-.03.04-.04-.01-.05Zm-28.63.1h.17c.04 0 .06.01.08.04v.09c-.03.06-.08.08-.15.08-.12-.02-.16-.08-.13-.18 0-.02.02-.03.03-.03Zm30.29.03c.03.04 0 .1-.05.14-.05.04-.12.04-.14 0-.03-.04 0-.1.05-.14.05-.04.11-.04.14 0Zm-25.82 1.9.16.07c.05.03.05.05 0 .08a.5.5 0 0 1-.44.02c-.2-.08-.48-.2-.84-.33-.1-.04-.1-.05 0-.06.4 0 .77.07 1.12.21Zm22.46-.21a2.67 2.67 0 0 0-1.24.28c-.05.03-.05.05 0 .07.15.08.29.09.42.03l.83-.33c.1-.03.1-.05-.01-.05Zm-24.44.5c.22-.05.36-.07.43-.07.08 0 .15.03.2.08.11.08.1.1-.03.08-.28-.07-.49-.05-.63.06-.05.04-.1.03-.15 0-.04-.05-.07-.1-.07-.13 0-.04.02-.05.05-.04l.1.02h.1Zm25.52-.02-.1.03h-.1a2.22 2.22 0 0 0-.44-.08.36.36 0 0 0-.21.08c-.1.08-.1.1.03.08.29-.07.5-.04.65.07.05.04.1.03.15 0 .05-.05.07-.1.07-.14 0-.03-.02-.04-.05-.04Z" fill="#007CC3"/><path d="M41.07 34.56a32 32 0 0 0 1.27 1.23c.02.02.05.03.07.01a.06.06 0 0 0 .04-.06v-2.57c0-.1.04-.17.13-.17h.31c.07 0 .11.06.11.14v3.73c0 .07-.03.13-.1.13H42.22c-.16.01-.36-.1-.6-.32-.4-.39-.83-.8-1.26-1.24-.41-.42-.84-.83-1.27-1.23-.03-.02-.05-.02-.07-.01-.02 0-.02.02-.02.05V36.83c0 .1-.06.17-.15.17h-.31c-.08 0-.11-.06-.11-.14v-3.73c0-.07.03-.13.1-.13h.68c.16-.01.36.1.6.32.4.39.83.8 1.26 1.24Zm-16.5-.35c.39.4.76.8 1.12 1.23.38.44.75.85 1.11 1.24.2.22.38.33.52.32l.6-.02c.05 0 .08-.04.08-.1v-3.74c0-.08-.03-.12-.1-.12h-.27c-.07 0-.11.05-.11.15v2.57c0 .03-.01.05-.03.06h-.06c-.39-.4-.76-.82-1.12-1.24-.38-.44-.75-.85-1.11-1.24-.2-.22-.38-.33-.52-.32l-.6.02c-.05 0-.08.04-.08.1v3.74c0 .08.03.12.1.12h.27c.07 0 .11-.05.11-.15v-2.57c0-.03.01-.05.03-.06h.06Zm-9.55 2.19c-.49-.3-.74-.75-.74-1.38 0-.64.23-1.1.72-1.4.55-.35 1.16-.3 1.84.12.06.03.1.01.11-.06a.92.92 0 0 0 0-.4c-.01-.07-.05-.1-.1-.12a4.77 4.77 0 0 0-2.48 0c-.62.18-1.05.58-1.3 1.22-.05.12-.07.33-.07.65s.03.53.08.65c.26.63.7 1.03 1.32 1.18.83.2 1.65.19 2.48-.05.05-.01.09-.05.1-.11a.94.94 0 0 0 0-.4c-.02-.08-.06-.1-.12-.06-.67.44-1.28.5-1.84.16Zm17.2-3.23c.03 0 .04.03.03.06l-.14.43c-.01.05-.04.06-.07.04a2.08 2.08 0 0 0-.85-.3c-.36-.04-.65.02-.88.18-.16.11-.2.26-.1.45.1.2.3.32.57.4.66.16 1.12.34 1.4.54a.98.98 0 0 1 .1 1.42c-.34.38-.85.58-1.54.6a4.4 4.4 0 0 1-1.65-.25c-.09-.03-.11-.1-.07-.19l.14-.3c.04-.08.09-.1.15-.06a2.8 2.8 0 0 0 1.46.4c.3-.02.5-.2.6-.53a.22.22 0 0 0-.02-.18c-.1-.18-.26-.33-.5-.44a3.95 3.95 0 0 0-.85-.26 3.27 3.27 0 0 1-.53-.26c-.22-.12-.35-.27-.4-.45-.12-.46-.01-.81.34-1.06.62-.45 1.56-.53 2.8-.24Zm3.16 3.44c-.34-.04-.6-.15-.79-.33a.84.84 0 0 1-.24-.64V33.1c0-.06-.03-.09-.08-.09h-1.19c-.05 0-.07.03-.07.08-.02 1.6-.01 2.5 0 2.66.08.63.52 1.02 1.33 1.17.87.16 1.66.1 2.37-.17.54-.2.8-.6.8-1.21v-2.38c.01-.1-.03-.15-.12-.15h-.29c-.08 0-.1.05-.1.14v2.41c0 .51-.28.84-.78.99-.27.08-.55.1-.84.07ZM20.5 33c1.66 0 2.5.66 2.5 2 0 1.33-.83 2-2.5 2-1.66 0-2.5-.66-2.5-2 0-1.33.83-2 2.5-2Zm.19.37h-.36c-.59 0-1.07.57-1.07 1.27v.7c0 .72.47 1.3 1.06 1.3h.36c.59 0 1.07-.57 1.07-1.28v-.7c0-.71-.47-1.29-1.06-1.3Z" fill="#1A1513"/><path d="M28.6 28C17.69 28 8.33 30.67 5 32c4.8-.89 16.25-2.67 23.6-2.67 7.36 0 18 1.78 22.4 2.67-2.91-1.33-11.47-4-22.4-4Z" fill="#007CC3"/></svg>