<!-- by TradingView --><svg width="56" height="56" viewBox="0 0 56 56" xmlns="http://www.w3.org/2000/svg"><path fill="#F0F3FA" d="M0 0h56v56H0z"/><path d="M28.23 20.2c-.18-.2-.37-.2-.56 0l-5.18 5.18a.62.62 0 0 1-.6.18c-3.84-.85-6.53-1.38-10.3.43a.33.33 0 0 1-.46-.37C13.16 15.6 21.4 9.35 31.58 11.38c5.64 1.14 9.75 4.76 12.31 10.87.32.73-.13 1.1-.35 1.68-1.62 4.32-4.75 6.45-9.41 6.4a.2.2 0 0 1-.2-.25.2.2 0 0 1 .05-.1l1.63-1.63a.53.53 0 0 0 .16-.38.55.55 0 0 0-.16-.4l-7.38-7.38Z" fill="#1D208A"/><path d="M36.38 31.24a10.22 10.22 0 0 0 7.75-5.76c.47-1 .72-.94.76.16.07 2.21.33 4.38-.33 5.92a.79.79 0 0 1-.52.46 12.8 12.8 0 0 1-7.76-.08c-.97-.33-.93-.57.1-.7ZM11 29.98v-2.5a11.74 11.74 0 0 1 6.88-1.64c2.14.18 4.91.76 7.27 1.72 2.95 1.2 4.76 1.91 5.45 2.13.58.2 1.17.37 1.77.52.29.07.4.19.32.35a.27.27 0 0 0-.02.18v.05l-.03.02h-.02a72 72 0 0 1-6.18-.12c-3.04-.13-4.85.98-5.44 3.35-.97 3.88 2.01 8.02 4.88 10.73a.13.13 0 0 1-.03.22.13.13 0 0 1-.09 0c-5.05-.98-11.54-4.9-13.28-10.17a.76.76 0 0 1 .1-.7c2.66-3.73 6.61-4.57 10.97-4.77.1 0 .17-.07.17-.18v-.23c0-.12-.06-.18-.17-.2-4.72-.56-8.6.84-11.62 4.2a.27.27 0 0 1-.28.1.28.28 0 0 1-.2-.23L11 29.98Z" fill="#FBCE05"/><path d="M27.67 35.73c.09.09.2.13.32.13s.23-.04.31-.13l3.65-3.65c.17-.18.38-.21.61-.11a18.82 18.82 0 0 0 11.38 1.32.13.13 0 0 1 .08.17C41.51 40.2 35.67 44.82 28.39 45a1.1 1.1 0 0 1-.65-.2c-3.38-2.3-8.57-8.99-4.43-12.83.2-.2.4-.2.6.01l3.76 3.76Z" fill="#1D208A"/></svg>