<!-- by TradingView --><svg width="56" height="56" viewBox="0 0 56 56" xmlns="http://www.w3.org/2000/svg"><path fill="#F0F3FA" d="M0 0h56v56H0z"/><path d="M22.74 20.23c2.46 0 4.45-1.85 4.44-4.12 0-2.27-2-4.1-4.46-4.1s-4.45 1.84-4.45 4.12c0 2.27 2 4.1 4.47 4.1ZM34.13 21.22c1.2-.03 2.14-.94 2.12-2.05-.03-1.1-1.02-1.97-2.21-1.94-1.2.03-2.15.95-2.12 2.05.03 1.1 1.02 1.98 2.21 1.94Z" fill="#EC7A3E"/><path d="M42.65 26.3c.06-.06.1-.05.11.02.25.9.3 2.03.17 3.35A6.44 6.44 0 0 1 42.2 32a24.44 24.44 0 0 1-7.3 8.37c-.51.38-1 .66-1.45.84-.11.05-.2.06-.26.04-.14-.07-.17-.17-.1-.32.5-1.06.81-1.87.95-2.42.23-.92.22-1.78-.02-2.6a6.15 6.15 0 0 0-1.42-2.73c-.65-.62-1.41-1.01-2.29-1.16a4.86 4.86 0 0 0-5.07 2.52c-.56 1-.84 2.13-.83 3.39.01.85.22 1.83.64 2.94.34.92.78 1.84 1.33 2.75.08.13.05.23-.08.29a.79.79 0 0 1-.86-.08c-4.58-3.34-8.13-6.7-10.65-10.1a9.4 9.4 0 0 1-1.77-4.67c-.2-3 .95-5.33 3.47-6.98a10.46 10.46 0 0 1 3.07-1.17c2.71-.33 5 .44 6.86 2.31.33.34.81.93 1.44 1.77.56.74.97 1.27 1.26 1.58a8.86 8.86 0 0 0 12.92.4 8 8 0 0 1 .61-.68Z" fill="url(#a)"/><path d="M29.56 24.11a7.76 7.76 0 0 1 4.79-2.42c1.87-.25 3.6.11 5.21 1.07a6.69 6.69 0 0 1 2.14 1.99c.09.12.08.24-.02.36a7.99 7.99 0 0 1-3.91 2.6c-1.6.47-3.14.4-4.62-.2a7.82 7.82 0 0 1-3.6-3.26c-.03-.05-.03-.1.01-.14Z" fill="#FA9D3D"/><defs><linearGradient id="a" x1="25.54" y1="23.54" x2="28.17" y2="43.98" gradientUnits="userSpaceOnUse"><stop offset=".48" stop-color="#F98D39"/><stop offset="1" stop-color="#D1BC59"/></linearGradient></defs></svg>