<!-- by TradingView --><svg width="56" height="56" viewBox="0 0 56 56" xmlns="http://www.w3.org/2000/svg"><path fill="#F0F3FA" d="M0 0h56v56H0z"/><path d="M8.07 16h39.86c.02 0 .03 0 .05.02l.02.06v19.76c0 .7-.07 1.18-.21 1.45-.38.73-1.1.85-1.92.77-2.1-.21-4.15-.33-6.14-.37-5.83-.12-11.44.6-16.82 2.17l-3.03.93c-1.42.44-2.88.16-4.37-.57a21.75 21.75 0 0 0-5.67-1.94 2.99 2.99 0 0 1-1.3-.46c-.61-.53-.54-1.08-.54-2V16.07c0-.05.02-.07.07-.07Z" fill="#EB5F06"/><path d="M15.97 19.37a.03.03 0 0 0 .02.04h6.31c.1 0 .16.06.16.17v.94a.18.18 0 0 1-.05.12.18.18 0 0 1-.13.06H15.2l-.03.03-.63 1.23a.02.02 0 0 0 0 .02l.02.02h1.99c.06 0 .1-.04.1-.1v-.72c0-.12.05-.18.17-.18h1.6c.12 0 .18.06.18.17v.7c0 .08.04.13.12.13h3.62c.03 0 .06 0 .08.02.02.03.04.05.04.08v4.64c0 .48-.3.86-.9 1.14-.27.13-.85.15-1.73.08-.12-.01-.18-.07-.18-.19v-.76c0-.04.02-.08.05-.11a.16.16 0 0 1 .11-.05h.37c.09 0 .17-.03.23-.1.06-.05.1-.14.1-.22v-3.17c0-.03 0-.05-.03-.06a.09.09 0 0 0-.05-.03h-1.77l-.04.02a.05.05 0 0 0-.02.04v4.48c0 .04-.02.09-.05.12a.17.17 0 0 1-.11.04H16.8c-.11 0-.17-.05-.17-.17v-4.43a.1.1 0 0 0-.1-.1H15.1c-.07 0-.11.03-.11.1v4.46c0 .03-.01.06-.04.09a.14.14 0 0 1-.09.05c-.6.04-1.29.03-1.69-.5-.12-.16-.18-.45-.18-.86v-3.24a.1.1 0 0 0-.1-.1h-1c-.12 0-.15-.04-.09-.14l1.3-2.37.01-.03v-.02a.05.05 0 0 0-.05-.03h-.56c-.16 0-.24-.08-.24-.23v-.84c0-.13.07-.2.2-.2h1.34c.07 0 .12-.02.15-.08l.14-.23c.04-.07.1-.1.17-.1h1.76c.1 0 .13.05.08.14l-.14.23ZM43.5 20.28c-.02 0-.04.01-.05.03a1155.7 1155.7 0 0 1-.02 5.94c0 .53-.08.9-.21 1.12-.34.54-.84.62-1.49.62h-5c-.34 0-.55-.17-.63-.5l-.06-.3c-.08-.33.05-.49.37-.49h4.79c.07 0 .15-.03.2-.08a.3.3 0 0 0 .09-.21v-6.05c0-.02-.01-.04-.03-.05a.07.07 0 0 0-.05-.03h-7.23c-.12 0-.18-.06-.18-.17v-.93c0-.12.06-.18.18-.18h9.66c.04 0 .08.02.11.05.03.03.05.07.05.12v1c0 .03-.01.06-.03.08a.1.1 0 0 1-.08.03h-.39Z" fill="#fff"/><path fill-rule="evenodd" d="M40.95 21.05a.18.18 0 0 0-.12-.05h-6.22a.18.18 0 0 0-.12.05.15.15 0 0 0-.05.11v3.62c0 .32.14.63.4.86.24.23.59.36.94.36h3.87c.36 0 .7-.13.96-.36.25-.23.39-.54.39-.86v-3.62a.15.15 0 0 0-.05-.11Zm-1.97.98a.06.06 0 0 0-.05-.03h-2.4c-.02 0-.04 0-.05.02a.09.09 0 0 0-.02.06v2.5c0 .05 0 .1.02.16l.08.13.11.1a.3.3 0 0 0 .13.03h1.85c.09 0 .18-.04.24-.12.07-.08.1-.19.1-.3l.01-2.5c0-.02 0-.04-.02-.05ZM32.92 20.32a.3.3 0 0 0-.13-.03c-.17 0-.2-.06-.08-.2.23-.26.3-.58.24-.94a.19.19 0 0 0-.06-.1.16.16 0 0 0-.1-.05h-8.32c-.76 0-.97.4-1.3 1.1a1.7 1.7 0 0 0-.17.75v3.03c0 .08.04.12.12.12H32.94a.1.1 0 0 0 .03-.03l.02-.03a.1.1 0 0 0 .01-.04v-3.45c0-.06-.03-.1-.08-.13Zm-7.66-.29-.2.38a.07.07 0 0 0 0 .07l.02.02.03.01h5.69l.02-.03.2-.38.01-.03v-.04a.06.06 0 0 0-.03-.02l-.03-.01h-5.69l-.02.03Zm1.97.97H25.1c-.05 0-.09.05-.09.1v.5c0 .05.04.1.09.1h2.14c.05 0 .1-.05.1-.11v-.49c0-.06-.05-.1-.1-.1Zm1.5 0h2.17c.06 0 .1.05.1.11v.47c0 .06-.04.11-.1.11h-2.17c-.05 0-.1-.04-.1-.1v-.48c0-.06.05-.11.1-.11Zm2.19 1.55h-2.2c-.04 0-.08.04-.08.1v.46c0 .05.04.1.08.1h2.2c.04 0 .08-.05.08-.1v-.46c0-.06-.04-.1-.08-.1Zm-5.86 0h2.2c.03 0 .06.03.06.07v.5c0 .05-.03.08-.07.08h-2.19c-.03 0-.06-.03-.06-.07v-.5c0-.05.03-.08.06-.08Z" fill="#fff"/><path d="M24.92 26.66a.12.12 0 0 0-.08.03.1.1 0 0 0-.04.08v.14c0 .06.03.09.1.09h5.78c.09 0 .17-.03.23-.09a.3.3 0 0 0 .1-.21v-1.1c0-.14-.08-.21-.24-.21h-7.71c-.04 0-.05-.02-.05-.05v-.82c0-.04.02-.06.06-.06h9.8c.03 0 .06.01.09.04.02.02.03.05.03.08l.01 1.76c0 .52-.09.89-.28 1.12-.3.36-.72.54-1.26.54h-8.3a.17.17 0 0 1-.11-.05.15.15 0 0 1-.05-.1V26.1a.1.1 0 0 1 .03-.07.11.11 0 0 1 .08-.03h7.36c.08 0 .13.04.13.13v.41c0 .08-.04.12-.12.12h-5.56ZM18.44 33.83c0 .05.02.1.05.13.03.03.07.04.11.04h2.2c.14 0 .2.08.2.21v.61c0 .12-.05.18-.16.18h-1.78c-1.04 0-1.55-.38-1.56-1.51v-3.3c0-.13.07-.19.18-.19h.58c.12 0 .18.06.18.19v3.64ZM28.8 30h1.02l.03.02a.06.06 0 0 1 .03.06l-.01.03-1.83 2.27a.06.06 0 0 0 0 .08l1.95 2.44a.06.06 0 0 1-.02.09.06.06 0 0 1-.03.01h-1.02a.06.06 0 0 1-.04-.02L27.1 32.7a.06.06 0 0 0-.03-.02h-.04a.06.06 0 0 0-.02.02l-.02.04v2.17l-.01.05c-.02 0-.03.04-.05.04h-.88c-.02 0-.03-.03-.04-.04a.06.06 0 0 1-.02-.05v-4.85c0-.01 0-.03.02-.04a.06.06 0 0 1 .04-.02h.88c.02 0 .03 0 .04.02.02.01.02.03.02.04v2.03l.01.04.03.02a.06.06 0 0 0 .07-.02l1.64-2.1.02-.02.02-.01ZM31.14 32h2.42c.1 0 .15.08.15.18v.61c0 .1-.04.21-.14.21H31.1c-.08 0-.1-.03-.1.05v.76c0 .13.05.19.19.19h2.62c.12 0 .19.07.19.19v.62c0 .13-.07.19-.2.19h-2.15c-.49 0-.85-.07-1.07-.2-.39-.23-.58-.58-.58-1.06v-2.3c0-.89.44-1.42 1.35-1.43h2.51c.04 0 .07.01.1.04.03.02.04.06.04.1v.66c0 .1-.05.19-.15.19h-2.62c-.17 0-.23.04-.23.2v.58c0 .1.03.22.14.22ZM36.14 32h2.42c.1 0 .15.08.15.18v.61c0 .1-.04.21-.14.21H36.1c-.08 0-.1-.03-.1.05v.76c0 .13.05.19.19.19h2.62c.12 0 .19.07.19.19v.62c0 .13-.07.19-.2.19h-2.15c-.49 0-.85-.07-1.07-.2-.39-.23-.58-.58-.58-1.06v-2.3c0-.89.44-1.42 1.35-1.43h2.51c.04 0 .07.01.1.04.03.02.04.06.04.1v.66c0 .1-.05.19-.15.19h-2.62c-.17 0-.23.04-.23.2v.58c0 .1.03.22.14.22ZM41.25 31c-.13 0-.25.07-.25.2v.56c0 .13.12.23.25.23 1.01-.01 2.74-.23 2.74 1.3 0 .23.04.76-.1 1.01-.25.45-.61.67-1.07.69h-2.6c-.13 0-.22-.06-.22-.2v-.57c0-.14.1-.22.23-.22h2.58c.16 0 .19-.07.19-.23v-.6c0-.15-.03-.17-.19-.17-.58-.01-1.49.04-2.03-.18-.94-.37-1.04-1.94-.26-2.57.2-.17.55-.25 1.02-.25h2.07a.14.14 0 0 1 .14.15v.67c0 .03-.01.07-.04.1-.03.02-.06.08-.1.08h-2.36ZM24.66 34.63c.22-.22.34-.53.34-.86v-2.56a1.26 1.26 0 0 0-.35-.86 1.17 1.17 0 0 0-.83-.35h-1.66c-.3 0-.6.14-.82.37-.22.22-.34.53-.34.86v2.56a1.26 1.26 0 0 0 .35.86 1.17 1.17 0 0 0 .83.35h1.66c.3 0 .6-.14.82-.37ZM22.18 31h1.64c.1 0 .18.1.18.2v2.6c0 .11-.09.2-.19.2h-1.63c-.1 0-.18-.09-.18-.2v-2.6c0-.11.08-.2.18-.2Z" fill="#fff"/><path fill-rule="evenodd" d="M16.79 32.49c.16.22.23.61.2 1.15-.04 1.1-.6 1.33-1.53 1.34l-.32.01c-1.06.03-2.15.07-2.14-1.46V30.1a.1.1 0 0 1 .03-.07.1.1 0 0 1 .07-.03h2.29c.4 0 .72.08.94.25.5.4.64 1.13.42 1.85a.62.62 0 0 0-.04.2c0 .05.03.11.08.19ZM15.85 31h-1.7a.15.15 0 0 0-.15.15v.68c0 .09.06.16.14.16l1.7.01c.09 0 .16-.07.16-.16v-.68a.15.15 0 0 0-.15-.16Zm-1.72 2h1.74c.07 0 .13.06.13.14v.72c0 .08-.06.14-.14.14h-1.73a.14.14 0 0 1-.13-.15v-.72c0-.08.06-.14.13-.14Z" fill="#fff"/></svg>