<!-- by TradingView --><svg width="56" height="56" viewBox="0 0 56 56" xmlns="http://www.w3.org/2000/svg"><path fill="#F0F3FA" d="M0 0h56v56H0z"/><path d="M6.01 24H4l.66 7h2.01l1.6-3.27.3 3.27h2.02L14 24h-2.17l-1.61 3.1-.4-3.07-1.9-.03-1.62 3.1-.29-3.1ZM22.99 24H25l-.99 7H22l.99-7ZM49.99 24H52l-.99 7H49l.99-7ZM15.16 24H22l-.3 2h-4.5l-.5 3H21l-.3 2H14l1.16-7ZM26.02 24.56a.67.67 0 0 1 .65-.56H33l-.33 2h-4.4l-.49 3h4.33l-.39 2h-6.04a.67.67 0 0 1-.66-.78l1-5.66Z" fill="#231816"/><path d="M17.39 27h3.94l-.2 1h-3.96l.22-1Z" fill="#E70012"/><path d="M33.99 24H36l-.42 3h2.98l.43-3H41l-.99 7H38l.28-2H35.3L35 31H33l.99-7ZM45.1 24h-.78L41 31h2.16l2.18-4.58.44 4.58h2.16l-.67-7H45.1Z" fill="#231816"/></svg>