<!-- by TradingView --><svg width="56" height="56" viewBox="0 0 56 56" xmlns="http://www.w3.org/2000/svg"><path fill="#00387F" d="M0 0h56v56H0z"/><path d="M15.28 28H16v-3.03L19 21h-1.22l-2.26 2.97L13.3 21H12l3 3.97V28h.28ZM20 21v7h1v-3h3.5v-1H21v-2h4v-1h-5Z" fill="#fff"/><path d="M32 15H20l12 12V15Z" fill="#99999A"/><path fill-rule="evenodd" d="M13 38v-8h5v1h-4v2h3.5v1H14v4h-1Zm5-5h.7v5H18v-5Zm21.7 0H39v5h.7v-5Zm6.01 0H45v5h3v-.62h-2.29V33ZM20 38v-5h.75l2.54 3.8V33H24v5h-.71l-2.59-3.82V38H20Zm9-5v5h.7v-3.82L32.29 38H33v-5h-.7v3.8L29.75 33H29Zm-4.69 5 1.86-5h.66l1.86 5h-.64l-.53-1.41h-2.04l-.53 1.4h-.64Zm2.19-4.13.8 2.13h-1.6l.8-2.13ZM41.92 33l-1.86 5h.64l.53-1.41h2.04l.53 1.4h.64l-1.86-5h-.66Zm1.13 3-.8-2.13-.8 2.13h1.6Zm-6.98-3c.86 0 1.59.62 1.9 1.5h-.65c-.29-.58-.64-.8-1.25-.8-.9 0-1.37.7-1.37 1.8s.47 1.8 1.37 1.8c.63 0 1-.25 1.28-.87H38c-.3.92-1.05 1.57-1.93 1.57-1.14 0-2.07-1.12-2.07-2.5s.93-2.5 2.07-2.5Z" fill="#fff"/></svg>