<!-- by TradingView --><svg width="56" height="56" viewBox="0 0 56 56" xmlns="http://www.w3.org/2000/svg"><path fill="url(#a)" d="M0 0h56v56H0z"/><path d="M47 34v-8h1.5v1.03c.29-.63.61-1.03 1.31-1.03C51.4 26 52 27.63 52 28.96c0 1.12-.58 3.04-2 3.04-.7 0-1.26-.45-1.55-1.07V34H47Zm1.5-5c0 .78 0 1.83.97 1.83S50.5 29.79 50.5 29c0-.8-.06-1.89-1.03-1.89-.8 0-.97.77-.97 1.89ZM44.52 29.43V26H46v6h-1.44v-1.13h-.06c-.28.72-.83 1.13-1.6 1.13-1.25 0-1.9-1.06-1.9-2.23V26h1.5v3.56c0 .64.24 1.22.93 1.22.75 0 1.09-.65 1.09-1.35ZM37.5 32c-1.66 0-2.5-1.48-2.5-3 0-1.5.83-3 2.5-3 1.66 0 2.5 1.5 2.5 3 0 1.51-.84 3-2.5 3Zm0-1.1c.98 0 1-1.12 1-1.9 0-.78-.02-1.91-1-1.91s-1 1.11-1 1.91c0 .8.02 1.9 1 1.9ZM30 32v-5.99h1.45v1.06h.07c.26-.69 1.21-1.07 1.89-1.07a4.52 4.52 0 0 1 .59.04v1.28a3.62 3.62 0 0 0-.77-.08c-.64 0-1.73.5-1.73 1.28V32H30ZM27.48 26.6a1.86 1.86 0 0 0-1.85-1.33c-1.5 0-2.13 1.39-2.13 2.73 0 1.37.63 2.73 2.16 2.73 1.05 0 1.84-.87 1.84-1.98l.44.25H26v-1h3v.75c0 1.93-1.45 3.25-3.35 3.25-2.28 0-3.65-1.81-3.65-4 0-2.13 1.35-4 3.61-4 1.57 0 3.07.97 3.32 2.6h-1.45ZM17.53 26.24a1.04 1.04 0 0 0-.45-.77c-.26-.19-.6-.28-1.02-.28-.3 0-.55.05-.76.14-.21.08-.38.2-.49.36a.87.87 0 0 0-.06.94 1 1 0 0 0 .31.3 4.66 4.66 0 0 0 .9.35l.74.18c.3.07.58.16.85.28a3 3 0 0 1 .74.44c.22.17.4.39.52.64.13.25.19.54.19.88a2.1 2.1 0 0 1-1.37 2.01c-.44.2-.97.29-1.6.29-.6 0-1.13-.1-1.58-.28-.44-.19-.8-.46-1.05-.82-.24-.36-.38-.8-.4-1.31h1.4c.01.27.1.5.24.67.15.18.34.31.58.4.24.1.5.14.8.14.31 0 .58-.05.81-.14.24-.1.42-.22.55-.39.13-.16.2-.36.2-.58 0-.2-.06-.37-.18-.5a1.32 1.32 0 0 0-.49-.34c-.2-.09-.45-.17-.73-.24l-.89-.23a3.59 3.59 0 0 1-1.53-.75 1.72 1.72 0 0 1-.55-1.34 2 2 0 0 1 .37-1.2c.25-.34.6-.61 1.03-.8.43-.2.92-.29 1.47-.29.55 0 1.04.1 1.45.29.42.19.75.45 1 .8.23.33.36.72.36 1.15h-1.36ZM4 24h2l1.96 5.8h.08L10 24h2v8h-1.5v-5.5h-.07L8.5 32h-1l-1.93-5.5H5.5V32H4v-8Z" fill="#fff"/><defs><linearGradient id="a" x1="10.42" y1="9.71" x2="68.15" y2="76.02" gradientUnits="userSpaceOnUse"><stop stop-color="#1A1E21"/><stop offset="1" stop-color="#06060A"/></linearGradient></defs></svg>