<!-- by TradingView --><svg width="56" height="56" viewBox="0 0 56 56" xmlns="http://www.w3.org/2000/svg"><path fill="#F0F3FA" d="M0 0h56v56H0z"/><path d="M14 14.69a.7.7 0 0 1 .72-.69h4.2c.4 0 .72.3.72.69V21h1.72v-6.31a.7.7 0 0 1 .72-.69h4.2c.4 0 .72.3.72.69V26.3a.7.7 0 0 1-.72.69H14.72a.7.7 0 0 1-.72-.69V14.7ZM41.31 14a.7.7 0 0 1 .69.72v4.2c0 .4-.3.72-.69.72H35v1.72h6.31a.7.7 0 0 1 .69.72v4.2c0 .4-.3.72-.69.72H29.7a.7.7 0 0 1-.69-.72V14.72c0-.4.3-.72.69-.72H41.3ZM14 41.31c0 .38.32.69.72.69h4.2c.4 0 .72-.3.72-.69V35h1.72v6.31c0 .38.32.69.72.69h4.2c.4 0 .72-.3.72-.69V29.7a.7.7 0 0 0-.72-.69H14.72a.7.7 0 0 0-.72.69V41.3Z" fill="#1D4199"/><path d="M41.31 42a.7.7 0 0 0 .69-.72v-4.2a.7.7 0 0 0-.69-.72H35v-1.72h6.31a.7.7 0 0 0 .69-.72v-4.2a.7.7 0 0 0-.69-.72H29.7a.7.7 0 0 0-.69.72v11.56c0 .4.3.72.69.72H41.3Z" fill="#D0121C"/></svg>