<!-- by TradingView --><svg width="56" height="56" viewBox="0 0 56 56" xmlns="http://www.w3.org/2000/svg"><path fill="#F0F3FA" d="M0 0h56v56H0z"/><path fill-rule="evenodd" d="M24.89 12.73c.7-.33 1.16-.87 1.1-1.27H30c-.05.4.4.94 1.11 1.27.8.38 1.62.36 1.84-.05.21-.4-.26-1.03-1.06-1.41-.46-.22-.92-.3-1.27-.26h-5.24c-.35-.04-.81.04-1.27.26-.8.38-1.27 1-1.06 1.41.22.4 1.04.43 1.84.05ZM19.8 14.1c.33.3.24 1.17-.2 1.94-.45.78-1.07 1.16-1.4.86-.33-.3-.24-1.17.2-1.94.45-.78 1.07-1.16 1.4-.86Zm5.27 9a2.5 2.5 0 0 1-.06-.86l-4.16-.67a2.3 2.3 0 0 1-.8 1.01c-.94.68-2.17.52-2.75-.36-.27-.4-.35-.87-.27-1.34l-.24-.05c-.33.78-.94 1.29-1.37 1.15-.45-.15-.55-.93-.23-1.75.32-.81.95-1.35 1.4-1.2.38.12.5.71.33 1.4l.22.02c.16-.4.43-.76.8-1.03.95-.68 2.18-.52 2.76.36.23.34.32.75.3 1.15l4.28.42a2.5 2.5 0 0 1 1.72-1.3v-3.16c-.58-.28-1-1.01-1-1.88l-2.03.13c-.07.41-.27.82-.6 1.16-.8.84-2.07.94-2.83.22-.75-.71-.72-1.98.09-2.82.8-.84 2.07-.94 2.83-.22.3.28.47.65.52 1.05l2.09-.13c.19-.81.76-1.4 1.43-1.4.67 0 1.24.58 1.43 1.39l3.08.2c.04-.42.22-.81.53-1.11.76-.72 2.03-.62 2.83.22.8.84.84 2.1.09 2.82-.62.58-1.56.63-2.32.18l-3.8 4.11c.18.2.33.42.44.66.8-.07 2.6-.2 4.25-.3-.08-.48 0-.98.27-1.4.58-.87 1.81-1.03 2.75-.35.94.67 1.23 1.93.65 2.8-.15.22-.34.4-.55.53l.74 4.38.2.09 1.45-5.82c-.14-.18-.26-.4-.35-.63-.32-.82-.22-1.6.23-1.75.44-.14 1.07.4 1.4 1.21.31.82.21 1.6-.24 1.75-.2.06-.43-.01-.66-.18l-1.3 5.87a1.75 1.75 0 0 1 .38.99l1.4-.6c.14-.75.59-1.32 1.01-1.29.44.03.69.7.55 1.5-.13.8-.6 1.41-1.03 1.38-.36-.03-.6-.49-.59-1.1l-1.3.69-.08-.06A2.27 2.27 0 0 1 36.74 31l-2.13 2.18 1.94 3.26.11-.1c.7-.52 1.62-.44 2.09.2.46.63.27 1.58-.41 2.11-.7.53-1.62.45-2.09-.19a1.4 1.4 0 0 1-.04-.07l-7.17 1.23-.04-.02a1.5 1.5 0 0 1-1 1.31V43c.85 0 1.57.26 1.86.64 1.57-.49 4-1.23 4.24-1.29.18-.32.58-.68.97-.93.62-.38 1.62-.58 1.87-.26.25.32-.33 1.04-.95 1.43-.62.39-1.68.56-1.93.24a.26.26 0 0 1-.06-.13l-4.03 1.46c-.15.48-.98.84-1.97.84-.93 0-1.72-.32-1.94-.75l-4.08-1.49c0 .03-.02.05-.04.07-.25.32-1.3.15-1.93-.24-.62-.39-1.2-1.1-.95-1.43.25-.32 1.25-.12 1.87.26l.18.13 4.78-1.96-6.03-1.32a1.3 1.3 0 0 1-.11.2c-.47.63-1.4.71-2.09.18-.68-.53-.87-1.48-.4-2.11.46-.64 1.39-.72 2.08-.2.43.35.67.86.66 1.35l6.09 1-7.35-7.77c-.87.27-1.9-.14-2.43-1.01a2.14 2.14 0 0 1-.3-.98H16c-.02.6-.29 1.04-.7 1.07-.54.03-1.1-.6-1.26-1.44-.16-.82.14-1.52.67-1.56.51-.03 1.05.57 1.23 1.37l.1.03c.11-.5.42-.93.89-1.18a2.07 2.07 0 0 1 2.38.4l5.76-4.52Zm10.96 14.86c-.07-.35-.01-.73.17-1.07l-2.05-3.24-4.99 5.08 6.72-.78.15.01Zm-16.22-9.63c.17.36.22.75.17 1.1l5.3.91A2.5 2.5 0 0 1 27 29.05v-4.1a2.5 2.5 0 0 1-1.43-.86l-5.76 4.24Zm-.07 1.82c-.13.21-.3.4-.52.54l7.73 7.41.05-.01v-4.14a2.5 2.5 0 0 1-2-2.57l-5.26-1.23Zm16.92-7.2L37.1 27a2.17 2.17 0 0 0-1.4.63l-5.77-4.55a2.5 2.5 0 0 0 .07-.73l4.31-.45c.16.26.37.5.64.68.53.39 1.16.5 1.71.37Zm-7.13 1 5.72 4.27c-.34.64-.34 1.4.05 2 .18.27.41.47.68.6L34.2 32.5l-4.91-8.25c.09-.1.17-.19.24-.3ZM29 15l3.04.2a2.26 2.26 0 0 0 .66 1.16l-4.22 3.84a2.48 2.48 0 0 0-.48-.15v-3.16c.58-.28 1-1.02 1-1.89Zm-2 25.91v2.22c-.42.13-.74.32-.9.56-1.34-.41-3.44-1.06-4.17-1.27-.07-.16-.2-.33-.37-.5l4.72-1.55c.18.25.43.44.72.54Zm1.2-2.73a1.49 1.49 0 0 0-.2-.1v-4.13a2.5 2.5 0 0 0 0-4.9v-4.1c.19-.04.36-.1.53-.17l5.19 8.18-5.51 5.22Zm12.57-.97c.35-.53.3-1.07-.13-1.19-.42-.12-1.05.23-1.4.77-.36.53-.3 1.07.12 1.19.42.12 1.05-.23 1.4-.77Zm-25.41-1.19c-.43.12-.48.66-.13 1.2.36.53.99.88 1.41.76.43-.12.48-.66.13-1.2-.36-.53-.99-.88-1.41-.76ZM36.4 16.04c-.44-.77-.53-1.64-.2-1.94.33-.3.95.08 1.4.86.44.77.53 1.64.2 1.94-.33.3-.95-.08-1.4-.86Z" fill="#DC001C"/></svg>