<!-- by TradingView --><svg width="56" height="56" viewBox="0 0 56 56" xmlns="http://www.w3.org/2000/svg"><path fill="#AACE3A" d="M0 0h56v56H0z"/><path d="M4 26h5v1l-2.94 3H9v1H4v-1l3.05-3H4v-1ZM52 26v5h-1.5v-5H52Zm-3.5 2.21V31H47v-5h1.5l2 2.9V31l-2-2.79Z" fill="#3A3846"/><path fill-rule="evenodd" d="M11.71 26c-.94 0-1.71.78-1.71 1.74v1.52c0 .96.77 1.74 1.71 1.74h1.58c.94 0 1.71-.78 1.71-1.74v-1.52c0-.96-.77-1.74-1.71-1.74H11.7Zm.79 1c-.54 0-.97.47-.97 1.05v.9c0 .58.43 1.05.97 1.05s.97-.47.97-1.05v-.9c0-.58-.43-1.05-.97-1.05ZM18.71 26c-.94 0-1.71.78-1.71 1.74v1.52c0 .96.77 1.74 1.71 1.74h1.58c.94 0 1.71-.78 1.71-1.74v-1.52c0-.96-.77-1.74-1.71-1.74H18.7Zm.79 1c-.54 0-.97.47-.97 1.05v.9c0 .58.43 1.05.97 1.05s.97-.47.97-1.05v-.9c0-.58-.43-1.05-.97-1.05ZM42.71 26c-.94 0-1.71.78-1.71 1.74v1.52c0 .96.77 1.74 1.71 1.74h1.58c.94 0 1.71-.78 1.71-1.74v-1.52c0-.96-.77-1.74-1.71-1.74H42.7Zm.79 1c-.54 0-.97.47-.97 1.05v.9c0 .58.43 1.05.97 1.05s.97-.47.97-1.05v-.9c0-.58-.43-1.05-.97-1.05Z" fill="#3A3846"/><path d="M39.5 26H38v5h1.5v-5ZM32 26h1.5v4H36v1h-4v-5ZM25 26h-1v5h1.5v-3.33l1 3.33h1.52l.98-3.27V31h1.5v-5h-2.48l-.76 2.53L26.5 26H25Z" fill="#3A3846"/></svg>