<!-- by TradingView --><svg width="56" height="56" viewBox="0 0 56 56" xmlns="http://www.w3.org/2000/svg"><path fill="#F0F3FA" d="M0 0h56v56H0z"/><path d="M49 28v.03c0 .02 0 .03-.02.04L35.36 40.95a.2.2 0 0 1-.14.05.2.2 0 0 1-.14-.05c-2.3-2.21-4.62-4.41-6.97-6.6l-.11-.01-.11.01a639.44 639.44 0 0 0-7.04 6.63.2.2 0 0 1-.21-.04L7.02 28.07 7 28.02v-.05c0-.02 0-.03.02-.04l13.62-12.88a.2.2 0 0 1 .14-.05.2.2 0 0 1 .14.05c2.3 2.21 4.62 4.41 6.97 6.6l.1.01.12-.01A617.26 617.26 0 0 0 35.15 15a.2.2 0 0 1 .21.04l13.62 12.88.02.04V28Zm-12.73 0c.03 0 .05.08.08.1.02.01.04.03.05.06a.13.13 0 0 1-.03.15l-4.84 4.52a.23.23 0 0 0-.07.17c0 .06.02.12.07.17l3.54 3.31a.22.22 0 0 0 .3 0l8.91-8.34a.2.2 0 0 0 .06-.14.19.19 0 0 0-.06-.15l-8.92-8.34a.22.22 0 0 0-.14-.06c-.06 0-.11.02-.15.06a6288.63 6288.63 0 0 0-7.02 6.62.3.3 0 0 1-.1 0 6288.63 6288.63 0 0 0-7.02-6.62.22.22 0 0 0-.15-.06c-.05 0-.1.02-.14.06l-8.92 8.34a.2.2 0 0 0-.06.15.19.19 0 0 0 .06.14l8.91 8.34a.22.22 0 0 0 .3 0l3.54-3.31c.05-.05.07-.1.07-.17a.23.23 0 0 0-.07-.17l-4.84-4.52a.13.13 0 0 1-.03-.15.14.14 0 0 1 .05-.07c.03-.01.06-.09.09-.09h16.53Zm-6.13 1.88a.12.12 0 0 0 .02-.13.13.13 0 0 0-.05-.06.14.14 0 0 0-.07-.02l-4.05.01c-.03 0-.05.01-.07.03a.13.13 0 0 0-.05.05.12.12 0 0 0 .03.14l2.03 1.94.04.03a.14.14 0 0 0 .15-.03l2.02-1.96Z" fill="#E70112"/></svg>