<!-- by TradingView --><svg width="56" height="56" viewBox="0 0 56 56" xmlns="http://www.w3.org/2000/svg"><path fill="#F0F3FA" d="M0 0h56v56H0z"/><path d="M27.25 12.96c-2.13.13-3.88.9-5.24 2.3a7.16 7.16 0 0 0-2 5.24c0 .92 0 1.8-.02 2.64 0 .1-.03.17-.1.24a9.06 9.06 0 0 0-1.78 2.94c0 .03-.03.04-.06.04s-.04-.03-.04-.06L18 21.36c-.02-1.67.12-2.96.42-3.88a9.05 9.05 0 0 1 3.3-4.6 9.62 9.62 0 0 1 5.52-1.86c.05 0 .08.03.08.09v1.77c0 .06-.02.08-.07.08Z" fill="#595757"/><path d="M20.12 37.53c.06-.06.1-.05.12.03 1 3.17 3.2 4.99 6.6 5.45.4.06 1.02.07 1.84.02A8.19 8.19 0 0 0 32.36 42c1.11-.63 2-1.5 2.7-2.64.34-.58.6-1.22.77-1.94.11-.48.17-1.17.17-2.05V22.12c0-2.03-.12-3.42-.36-4.18A7.07 7.07 0 0 0 33 14.41a7.49 7.49 0 0 0-4.96-1.44c-.05 0-.08-.02-.08-.07v-1.82c0-.05.03-.08.09-.08 3.57-.04 6.32 1.27 8.27 3.93.64.88 1.1 1.83 1.38 2.86.18.7.28 1.73.28 3.1v14.45c.01 1.24-.1 2.24-.35 3.01-1.06 3.37-3.42 5.52-7.07 6.46-.65.17-1.8.23-3.46.17a9.5 9.5 0 0 1-8.64-6.27c-.02-.07 0-.12.07-.15a5.7 5.7 0 0 0 1.58-1.03Z" fill="#F8B500"/><path d="m18.17 37.65-.06-.43a9.45 9.45 0 0 1-.11-1.25l.01-6.76c0-1.43.51-2.9 1.52-4.42 1.71-2.6 3.97-4.01 7.28-4.24.12 0 .19.05.19.17v1.63c0 .12-.08.18-.2.19-1.5.06-2.6.53-3.82 1.43a7 7 0 0 0-2.5 3.3c-.37.99-.5 2.48-.48 4.48.02 1.62 0 4.72 0 4.72 0 .32-.1.57-.37.75l-.98.65c-.28.18-.44.11-.48-.22Z" fill="#595757"/></svg>