<!-- by TradingView --><svg width="56" height="56" viewBox="0 0 56 56" xmlns="http://www.w3.org/2000/svg"><path fill="#F0F3FA" d="M0 0h56v56H0z"/><path d="M33.32 44.13c.85.18 1.58.06 2.18-.35-1.32-3.18-1.78-2.15-2.13-3.63-1.9-1.3-3.7.52-5.98.45-.19 0-.39-.04-.6-.1l-2.4-.69a2.6 2.6 0 0 0-1.22-.1c-.47.1-.84.33-1.12.68l-.86.53a.48.48 0 0 1-.36.06 1.94 1.94 0 0 0-1.37.13.4.4 0 0 0-.22.32c-.1.73-.02 1.22.25 1.49.32.3.63.61.92.94.1.1.2.15.33.15h.34c.19.01.24.1.16.28-.09.18-.22.34-.39.48-.83.17-1.46-.05-1.9-.67a4.1 4.1 0 0 1-.86-2.38.64.64 0 0 0-.12-.37c-.3-.44-.85-1.02-1.04-1.63a3.29 3.29 0 0 1 .3-2.51c1.15-2.28.54-4.35.35-6.67-.03-.4-.19-1.01-.47-1.82a3.22 3.22 0 0 1-.1-2.02c.5-1.73.77-3.03.79-3.9.01-.38-.08-.98-.27-1.81-.14-.6-.2-1.17-.17-1.71 0-.14-.06-.24-.19-.3-1.45-.59-4.86.2-4.04-3.19.1-.42.39-.74.87-.95a9.39 9.39 0 0 1 1.75-.61c.48-.08.99-.28 1.52-.58 1.6-.9 3-.25 5.13.38.89.25 2.7-.48 4-.9.6-.2 1.6-.17 2.98.07.57.1 1.4.32 2.52.68.74.24 1.5.3 2.28.2 1.44-.2 2.85-.99 4.54-.25.94.42 1.92.8 2.93 1.17.91.32 1.36.95 1.35 1.89-.02 1.08-.6 1.7-1.73 1.86-.87.12-1.6.15-2.18.1a.49.49 0 0 0-.35.1c-.1.08-.16.2-.18.32-.1.63-.1 1.64-.35 2.37-.6 1.82.11 3.43.67 5.2a6.05 6.05 0 0 1-.23 2.13c-.4 1.39-1.24 3.63-1 5.21.13.8.4 2.12.82 3.97.22.95-.04 1.99-.78 3.11a1.2 1.2 0 0 0-.15.37c-.22.9-.53 1.7-.95 2.39-.33.55-.82.87-1.47.96-.74.1-1.34-.18-1.8-.85Z" fill="#D9302B"/><path d="M26.79 14.35c-.55.52-1.15.9-1.8 1.14a.24.24 0 0 1-.22-.03.38.38 0 0 1-.14-.2.24.24 0 0 1 .09-.26l.4-.29c.6-.25 1.15-.37 1.67-.36Z" fill="#F1C159"/><path d="M27.7 14.43c-.25.17-.36.36-.34.57.02.16.1.23.25.2.27-.03.45-.14.56-.31.08-.11.2-.19.33-.21.14-.02.3.01.42.1.67.45 1.29.71 1.84.79.41.05.5-.08.23-.4l-.13-.24c.83.48 1.79.6 2.86.38l2.45-.53c1.4-.3 2.04-.07 3.02.9.1.09.2.13.34.13.64-.02 1.07.04 1.27.18.86.6.77.86-.26.79a6.9 6.9 0 0 1-1.46-.38 1.83 1.83 0 0 0-1.89.34c-.1.1-.17.2-.18.35-.05.32.08.68.38 1.07.15.2.16.4.01.62-.08.11-.16.26-.22.45-.09.24-.13.4-.13.49.01 1-.08 2.38-.28 4.14-.02.14 0 .28.06.4.18.38.27.78.26 1.21 0 .14.02.27.07.39l.38 1.07c-.15-.12-.3-.29-.42-.49-.07-.53-.11-.91-.11-1.14 0-.99-.28-1.07-.82-.24-.04.05-.18.17-.42.35-.1.08-.2.07-.29-.03-.3-.34-.7-.53-1.2-.56l.76-.22a.12.12 0 0 0 .08-.1c.01-.05 0-.1 0-.14-.03-.07-.08-.11-.15-.12l-.49-.04 1.97.14c.04 0 .08 0 .1-.03a.15.15 0 0 0 .06-.1l.28-2.8a.11.11 0 0 0-.04-.09l-.08-.07c-.16-.13-.25-.12-.3.02l-.36 1.4c-.04.12-.12.19-.24.2l-2.45.18c.27-1.14.33-2.38.2-3.73a.39.39 0 0 0-.12-.24.36.36 0 0 0-.24-.1l-10.6-.21a.5.5 0 0 0-.36.15.53.53 0 0 0-.15.37l-.07 3.32c0 .11.03.22.08.32.15.26.34.5.59.72a.4.4 0 0 1 .14.31.41.41 0 0 1-.15.31c-.4.34-.59.79-.57 1.35.04 1.38 0 2.78-.13 4.2-.26.09-.56.01-.9-.23-.12-.08-.23-.06-.32.05-.34.41-.53.9-.57 1.46 0 .1.03.18.1.24.1.09.2.1.31.04a.16.16 0 0 0 .06-.06l.46-.9a.47.47 0 0 1 .14-.16.42.42 0 0 1 .2-.07l.5-.05c.29.13.5.32.66.58.07.13.08.26 0 .39-.2.34-.45.62-.5 1.04a10.1 10.1 0 0 0-.01 2.97c.17.65.55.85 1.15.62a3.12 3.12 0 0 1 1.7-.27l.32.5c.09.15.06.25-.1.3l-.17.05c-.58.18-1.03.46-1.33.86-.3.38-.21.5.26.38.24-.06.45.1.62.51.02.04.05.08.09.1.04.03.08.04.12.04l.85.02c.22 0 .39.1.5.3l.1.2c.13.23.07.37-.19.4-.71.1-1.24-.43-1.84-.47-.75-.06-1.38.3-2.06.27-.45-.01-1.1.13-1.96.42a.42.42 0 0 0-.27.25c-.26.59-.65.88-1.18.88-.16 0-.27-.08-.31-.25l-.43-1.45a.4.4 0 0 1 .04-.33c.51-.81.78-1.7.81-2.66 0-.15.04-.25.1-.31.04-.06.1-.1.16-.1.12-.02.2.02.25.14.05.1.15.15.3.15s.22-.07.2-.22a.22.22 0 0 0-.04-.12.15.15 0 0 0-.12-.06l-.48-.01c-.15 0-.24-.08-.27-.22-.1-.42-.06-.9.13-1.45a.25.25 0 0 0 .01-.1l-.26-3.5a.32.32 0 0 0-.16-.26.46.46 0 0 1-.2-.26 4.36 4.36 0 0 1-.08-.3c-.05-.21 0-.37.15-.48a.24.24 0 0 0 .1-.25c-.09-.47-.28-.69-.58-.66-.14 0-.18-.05-.13-.18l.96-2.3a.32.32 0 0 0 0-.26c-.3-.7-.15-1.5.46-2.36.29-.23.42-.4.39-.52a5.34 5.34 0 0 0-1.1-2.26l-.08-1.11c0-.14.04-.26.13-.35.26-.3.46-.62.6-.98a.95.95 0 0 1 .25-.37.9.9 0 0 1 .4-.2 6.26 6.26 0 0 1 4.7.7c.14.08.2.04.14-.13l-.1-.33a.33.33 0 0 0-.2-.23c-.71-.24-1.44-.46-2.19-.67-.15-.04-.37-.19-.65-.44-.14-.13-.22-.25-.23-.37a.5.5 0 0 1 .04-.28c.05-.13.15-.18.28-.14 1.17.37 2.28.28 3.35-.29l-.4.29a.24.24 0 0 0-.1.26c.03.08.08.15.15.2a.25.25 0 0 0 .22.03 5.26 5.26 0 0 0 1.8-1.14c.18.1.49.12.9.08Z" fill="#C2682D"/><path d="m30.86 14.93.13.24c.26.32.18.45-.23.4a4.45 4.45 0 0 1-1.84-.8.59.59 0 0 0-.42-.1.47.47 0 0 0-.33.22c-.1.17-.3.28-.56.32-.15.02-.23-.05-.25-.2-.02-.22.1-.41.34-.58a6.5 6.5 0 0 1 3.16.5Z" fill="#F1C159"/><path d="M33.42 23.05c-.45.44-.5.84-.15 1.2.1.1.21.14.34.12l.87-.17.49.04c.07.01.12.05.14.12.02.04.02.09.01.13 0 .06-.03.09-.08.1l-.76.23c-.42-.17-.64-.07-.64.3-.01 1.71-.04 3.3-.07 4.75 0 .14-.07.26-.18.35-.52.43-.55.88-.1 1.35.09.1.14.23.15.37.12 1.8.06 3.2-.19 4.2a.33.33 0 0 1-.25.25c-.21.06-.36-.02-.45-.23a.5.5 0 0 0-.26-.27l-1.23-.55a.29.29 0 0 0-.33.05l-.47.43a.43.43 0 0 1-.32.1l-3.02-.32a.58.58 0 0 0-.35.07c-.57.3-1.08.24-1.55-.2-.41-.1-.98 0-1.7.27-.6.23-.98.03-1.15-.62-.14-.5-.13-1.49.02-2.97.04-.42.3-.7.5-1.04a.37.37 0 0 0 0-.39 1.42 1.42 0 0 0-.67-.58l.02-.32c.13-1.42.17-2.82.13-4.2a1.6 1.6 0 0 1 .57-1.35.4.4 0 0 0 .15-.3.42.42 0 0 0-.14-.32 2.62 2.62 0 0 1-.59-.72.69.69 0 0 1-.08-.32l.07-3.32a.54.54 0 0 1 .15-.37.51.51 0 0 1 .36-.15l10.6.2c.09.01.17.05.24.1.07.07.1.16.12.25.13 1.35.07 2.59-.2 3.73Z" fill="#003D86"/><path d="M19.39 22.68c-.74-.64-.97-1.57-.71-2.78.53.62.9 1.38 1.1 2.26.03.12-.1.3-.4.52ZM34.48 24.2l-.87.17a.36.36 0 0 1-.34-.12c-.35-.36-.3-.76.15-1.2l2.45-.18c.12-.01.2-.08.24-.2l.37-1.4c.04-.14.13-.15.3-.02l.07.07a.11.11 0 0 1 .04.1l-.28 2.78a.15.15 0 0 1-.16.14l-1.97-.14Z" fill="#DA7931"/><path d="m37.12 26.44-.26.43c.08-.52-.1-.83-.53-.92-.26-.06-.54 0-.86.14-.35.17-.7.3-1.04.39a.25.25 0 0 0-.17.2v.13l.1.1.16.11a.4.4 0 0 0 .27.08l.9-.08c.16-.01.23.06.25.22l.14 1.9c.01.16-.06.26-.2.3-.17.06-.4-.04-.7-.3-.13-.1-.17-.07-.14.1.06.31.23.51.51.6.06.03.18.03.35.02.04 0 .04-.02 0-.05a.28.28 0 0 1-.05-.09l.01-.01.8-.64c.56-.45.7-.32.39.4-.08.18-.14.43-.16.73-.02.17-.1.4-.24.67a9.37 9.37 0 0 0-.6 2.1c-.03.15 0 .27.09.38.28.34.43.91.45 1.7 0 .14.04.27.11.39.23.37.26.73.08 1.08a.38.38 0 0 0 .01.39c.86 1.46.71 2.8-.43 4.04a.84.84 0 0 0-.2.75c.2.96-.02 1.65-.66 2.08-.6.41-1.33.53-2.18.35a2.3 2.3 0 0 1-.4-1.24c-.06-.85.31-1.84.45-2.74.52 1.04 1.37 1.04 2.54 0a.41.41 0 0 0 0-.61.38.38 0 0 0-.21-.1c-.1 0-.24.02-.41.05a.8.8 0 0 1-.4.01c-1.09-.3-1.89-.56-2.4-.77-.43-.19-.91-.2-1.36-.04-1.47.52-2.57.85-3.3.98-.5.1-.96 0-1.34-.32a.2.2 0 0 1-.02-.29.2.2 0 0 1 .09-.06 5.8 5.8 0 0 1 2.1-.26c.13 0 .25-.03.36-.11.33-.25.72-.39 1.16-.41.12-.01.24-.05.35-.11l1.13-.68c.15-.1.17-.2.07-.34-.3-.41-.59-.63-.86-.65a7.79 7.79 0 0 1-1.66-.27.35.35 0 0 0-.32.03l-1 .6a.2.2 0 0 0-.06.25c.02.05.03.1.01.16-.05.14 0 .21.15.2l.76-.06c.49-.04.53.09.15.4-.55.42-1.25.54-2.12.34a.28.28 0 0 1-.19-.15.3.3 0 0 1 0-.24l.14-.34a.29.29 0 0 1 .24-.18c.41-.04.61-.25.6-.61a.4.4 0 0 0-.06-.2.38.38 0 0 0-.15-.13.36.36 0 0 0-.37.02c-.47.3-.78.69-.92 1.17a.3.3 0 0 1-.26.23.47.47 0 0 1-.25-.04.35.35 0 0 1-.15-.11.38.38 0 0 1-.07-.18.8.8 0 0 1 .2-.65c.1-.13.09-.23-.05-.3a.76.76 0 0 0-.42-.06l.17-.05c.16-.05.19-.15.1-.3l-.32-.5c.47.44.98.5 1.55.2.1-.06.22-.09.35-.07l3.02.32a.42.42 0 0 0 .32-.1l.47-.43c.1-.09.2-.1.33-.05l1.23.55c.12.06.2.14.26.27.09.2.24.29.45.23a.33.33 0 0 0 .25-.25c.25-1 .31-2.4.19-4.2a.6.6 0 0 0-.16-.37c-.44-.47-.4-.92.11-1.35.11-.09.17-.2.18-.35.03-1.46.06-3.04.07-4.75 0-.37.22-.47.64-.3.5.03.9.22 1.2.56.09.1.18.1.29.03.24-.18.38-.3.42-.35.54-.83.81-.75.82.24 0 .23.04.61.11 1.14Z" fill="#DA7931"/><path d="M37.12 26.44c.13.2.27.37.42.48.19.69.09 1.06-.3 1.11a.47.47 0 0 1-.43-.17.51.51 0 0 1-.1-.48l.15-.51.26-.43Z" fill="#F1C159"/><path d="m22.04 29.82-.02.32-.5.05a.42.42 0 0 0-.2.07c-.05.05-.1.1-.14.17l-.46.9a.16.16 0 0 1-.06.05c-.1.06-.2.05-.3-.04a.27.27 0 0 1-.1-.24c.03-.56.22-1.05.56-1.46.1-.11.2-.13.31-.05.35.24.65.32.9.23Z" fill="#80472A"/><path d="M22.05 40.4c.72 1.51 1.04 4.12-1.2 4.37.17-.14.3-.3.39-.48.08-.18.03-.27-.16-.28h-.34a.45.45 0 0 1-.33-.15c-.3-.33-.6-.64-.92-.94-.27-.27-.36-.76-.25-1.5a.4.4 0 0 1 .22-.3c.4-.21.86-.26 1.37-.14.13.03.25 0 .36-.06l.86-.53Z" fill="#C2682D"/><path d="M27.15 15.78c.34.28.76.38 1.26.28a.26.26 0 0 1 .26.1.28.28 0 0 1 .04.28l-.55 1.3a.21.21 0 0 1-.06.09.2.2 0 0 1-.1.04.19.19 0 0 1-.18-.08c-.21-.3-.37-.7-.46-1.18a.72.72 0 0 0-.2-.33l-.4-.43c-.13-.14-.12-.23.04-.27a.5.5 0 0 1 .19 0 .1.1 0 0 1 .09.05l.01.05c.01.05.03.08.06.1Z" fill="#F1C159"/><path d="M22.77 36.58c.11.2.26.32.33.28.07-.05.03-.24-.08-.44s-.26-.32-.33-.28c-.07.04-.04.24.08.44Z" fill="#80472A"/><path d="M25.26 22.04c.39-.13.65-.4.6-.6-.07-.2-.43-.27-.82-.14-.38.12-.65.39-.59.59.06.2.43.27.81.15ZM25.95 23.12h-.1c-.07.01-.1.05-.11.13l-.05 2.66c0 .21-.1.33-.31.34l-.12.01a.29.29 0 0 1-.23-.08.3.3 0 0 1-.09-.23l.04-2.17c0-.18-.09-.26-.26-.25l-1.18.1a.16.16 0 0 1-.14-.07.16.16 0 0 1-.01-.16l.09-.21c.02-.05.05-.1.1-.13.03-.04.08-.06.14-.08l1.7-.38c.13-.02.25 0 .36.06.16.09.32.07.49-.05.13-.1.25-.1.35 0l.47.4a.1.1 0 0 0 .12.01c.02 0 .03-.02.04-.04a.13.13 0 0 0 .02-.07l.01-.25a.13.13 0 0 0-.05-.11c-.3-.2-.45-.43-.47-.67-.02-.27.07-.45.27-.53a.26.26 0 0 1 .18 0c.06.02.1.06.14.11.2.33.5.54.9.66.1.03.16.1.16.23l-.03 1.76c0 .13.03.25.09.36.08.15.13.3.15.46.03.2-.05.31-.25.33l-1.97.16a.25.25 0 0 1-.2-.08.27.27 0 0 1-.07-.21c.06-.61.42-.84 1.08-.7a.29.29 0 0 0 .3-.12.31.31 0 0 0 .02-.33l-.21-.38c-.08-.14-.18-.16-.32-.08-.3.2-.59.09-.86-.3a.2.2 0 0 0-.2-.1Z" fill="#F7D987"/><path d="m30.3 24.98-.11 1.1a.26.26 0 0 1-.1.18.24.24 0 0 1-.18.05c-.36-.03-.55-.27-.55-.69a37.28 37.28 0 0 0-.13-3.42c-.07-.52.15-.75.65-.7l1 .11c.24.02.46.13.63.3.17.16.28.38.32.62.18 1.07-.24 1.77-1.25 2.1a.4.4 0 0 0-.19.13.43.43 0 0 0-.09.22Z" fill="#F1C159"/><path d="M26.95 28.9c-.37-.22-.54-.39-.51-.49l1-.6a.3.3 0 0 1 .36.02c.4.29.83.64 1.39.67l1.55.04c.14 0 .24.06.32.18.2.28.27.62.18 1.01-.08.4-.2.41-.38.05-.3-.6-.78-.85-1.45-.73a.9.9 0 0 1-.4-.03 3.96 3.96 0 0 0-2.06-.11Z" fill="#F7D987"/><path d="M26.43 28.41c-.02.1.15.27.52.5-1.4.04-2.23.33-2.47.89-.19.41-.33.4-.42-.05-.1-.46-.04-.82.18-1.08a.47.47 0 0 1 .34-.17l1.86-.09Z" fill="#F1C159"/><path d="m27.36 30.66.85.09a.3.3 0 0 1 .23.15.3.3 0 0 1 .02.27c-.13.3-.16.52-.1.68.03.1.1.16.22.18l3.14.34c.17.01.23.11.2.29a.53.53 0 0 1-.17.28c-.1.09-.22.16-.34.2a.57.57 0 0 1-.31.02 15.17 15.17 0 0 0-7.1.03.2.2 0 0 1-.19-.05.23.23 0 0 1-.07-.2l.02-.24c.01-.08.05-.16.1-.21.06-.06.13-.1.21-.1l1.55-.13c.09 0 .17-.05.22-.12a.34.34 0 0 0 .08-.24l-.11-1.48a.33.33 0 0 1 .16-.33l1.35-.8a.45.45 0 0 1 .37-.05c.57.19 1.1.47 1.62.85.16.12.24.31.23.58 0 .15-.08.22-.23.2-.46-.06-.76-.3-.9-.71a.3.3 0 0 0-.12-.15.29.29 0 0 0-.17-.05c-.35.01-.63.16-.86.44-.12.15-.09.24.1.26Z" fill="#F7D987"/><path d="m35.5 28.4-.42.39c-.15.14-.28.12-.38-.07l-.15-.27a.23.23 0 0 1 .05-.3.2.2 0 0 1 .1-.03c.56-.1.84-.08.84.07l-.01.14c0 .03-.02.06-.03.07Z" fill="#80472A"/><path d="M30.17 22.32c0-.06.03-.11.07-.15a.2.2 0 0 1 .15-.05h.08a.9.9 0 0 1 .81.95v.11a.9.9 0 0 1-.31.61.87.87 0 0 1-.64.21h-.07a.2.2 0 0 1-.15-.08.22.22 0 0 1-.05-.16l.1-1.44ZM26.44 30.8l-.09.04a.39.39 0 0 0-.17.52l.2.42c.09.19.31.26.5.17l.08-.04c.18-.1.26-.33.17-.52l-.2-.41a.36.36 0 0 0-.5-.18Z" fill="#003D86"/></svg>