<!-- by TradingView --><svg width="56" height="56" viewBox="0 0 56 56" xmlns="http://www.w3.org/2000/svg"><path fill="#F0F3FA" d="M0 0h56v56H0z"/><path d="M25 20h-8.2C13.97 20 7 20 7 26.9V36h4v-6h14v-3H11v-.74c.02-1.17 1.63-3.26 5.8-3.26H25v-3Z" fill="#C6361A"/><path fill-rule="evenodd" d="M32.02 20C29.25 20 27 21.8 27 24s2.25 4 5.02 4C29.25 28 27 29.8 27 32s2.25 4 5.02 4h11.96c2.77 0 5.02-1.8 5.02-4s-2.25-4-5.02-4c2.77 0 5.02-1.8 5.02-4s-2.25-4-5.02-4H32.02ZM32 25c0-1.1.9-2 2-2h8a2 2 0 1 1 0 4h-8a2 2 0 0 1-2-2Zm2 4a2 2 0 1 0 0 4h8a2 2 0 1 0 0-4h-8Z" fill="#C6361A"/></svg>