<!-- by TradingView --><svg width="56" height="56" viewBox="0 0 56 56" xmlns="http://www.w3.org/2000/svg"><path fill="#F0F3FA" d="M0 0h56v56H0z"/><path d="M16.56 13.1a4.27 4.27 0 0 1 2.53.2c.16.07.4.17.7.32.53.27.95.43 1.24.5.5.1 1 .07 1.5-.11a15.72 15.72 0 0 1 8.56-.69c2.88.6 5.39 1.95 7.51 4.07a14.52 14.52 0 0 1 4.07 7.52c.58 2.82.35 5.67-.68 8.56-.18.5-.22 1-.1 1.5.06.3.22.7.48 1.24.16.3.27.54.33.7a4.43 4.43 0 0 1-1.02 4.77 4.43 4.43 0 0 1-4.77 1.02c-.16-.07-.4-.17-.7-.33a6.02 6.02 0 0 0-1.24-.49c-.5-.1-1-.07-1.5.11a15.71 15.71 0 0 1-8.56.68 14.5 14.5 0 0 1-7.51-4.06 14.5 14.5 0 0 1-4.07-7.51c-.57-2.83-.35-5.68.68-8.57.18-.5.22-1 .1-1.5-.06-.3-.22-.7-.48-1.24-.16-.3-.26-.54-.33-.7a4.44 4.44 0 0 1 3.26-5.99ZM28 22a6 6 0 1 0 0 12 6 6 0 0 0 0-12Z" fill="#E73640"/></svg>