<!-- by TradingView --><svg width="56" height="56" viewBox="0 0 56 56" xmlns="http://www.w3.org/2000/svg"><path fill="#F0F3FA" d="M0 0h56v56H0z"/><path fill-rule="evenodd" d="M14.38 16A2.39 2.39 0 0 0 12 18.4v19.2c0 1.32 1.06 2.4 2.38 2.4h27.24A2.39 2.39 0 0 0 44 37.6V18.4c0-1.32-1.06-2.4-2.38-2.4H14.38ZM16 21h24v3H25v6.75h-3V24h-6v-3Zm0 5v7.04c0 1.64 1.3 2.96 2.9 2.96h9.2c1.6 0 2.9-1.32 2.9-2.96V26h-3v5.67c0 .63-.84 1.33-1.45 1.33h-6.2c-.61 0-1.35-.7-1.35-1.33V26h-3Zm18 10V26h3v7h3v3h-6Z" fill="#E70012"/></svg>