<!-- by TradingView --><svg width="56" height="56" viewBox="0 0 56 56" xmlns="http://www.w3.org/2000/svg"><path fill="#F0F3FA" d="M0 0h56v56H0z"/><path d="m40.5 32.96.5-.11c-.57-.21-1.18-.67-1.28-1.3L38.98 28c.6-.04 1.32-.43 1.55-1H37v-2h1.63c.64 0 1.17-.4 1.4-1H37v-2h-1v2h-1v-1.36h-1V23h-5v1h2v3h-2v1h2v2.17c0 .5-.6.92-.9 1.24l-1.1.18.13.95 2.87-.42c.6-.07 1.22-.55 1.39-1.12l-2.06.23c.34-.32.67-.78.67-1.28V28h.1c.57 0 1.07-.36 1.3-.86V28h.6l-.71 3.5c-.14.65-.76 1.15-1.29 1.36l.37.1c.1.03.2.04.3.04.77 0 1.42-.58 1.6-1.46L35 28h1.03v4.44c0 .67-.33 1.24-.83 1.56h.53c.94 0 1.27-.82 1.27-1.81V28h1l.73 3.66c.15.82.68 1.33 1.4 1.34.11 0 .24-.01.37-.04ZM33.4 27H32v-3h.47c.56 0 1.3-.4 1.53-.9v1.28c0 .67-.57 1.24-1.07 1.56h.54c.7 0 1.26-.3 1.53-.94h1v2h-2.6ZM6.88 32.37 8 26H6.62L5.5 32.33c-.16.75-.86 1.3-1.5 1.5l.6.13c1.04.21 2.04-.5 2.28-1.59ZM11.12 32.37 10 26h1.38l1.12 6.33c.16.75.86 1.3 1.5 1.5l-.6.13c-1.04.21-2.04-.5-2.28-1.59ZM19.55 28.81c.4-.44.56-1.1.37-1.74l-.7-2.07.56-1H16v1h2.12l-2.06 3.95c-.23.44-.66.66-1.06.63l.33.22c.23.16.48.22.73.2.38-.04.75-.27.97-.65l.97-1.68V34c.6-.26 1-.93 1-1.7v-5.67l.55 2.18ZM12.93 25c.93 0 1.73-.3 2.07-1h-4.97l-.17-2H8.48l.18 2H4v1h8.93ZM20.01 22.44h-3.33v.93h2.08c.56 0 1.05-.4 1.25-.93Z" fill="#8E615F"/><path d="M27 32.36V28h-7v6h5.3c.95 0 1.7-.44 1.7-1.64ZM23 33h-2v-1.7h2V33Zm0-2.58h-2V29h2v1.42ZM26 33h-2v-1.7c.64 0 1.75-.37 1.96-.88H24V29h2v4ZM27 25.88V24h-5.04c-.33 0-.6.2-.8.46.07-.46.37-1.46 1.07-1.46h3.44c.6 0 1.1-.38 1.33-1h-5.04c-.53 0-.96.5-.96 1.11V27h5.04c.53.04.96-.46.96-1.12ZM26 26h-4v-1h4v1ZM51 31.32V28h-9v5h1.33c-.15.53-.54.65-1.04.83l.6.14.36.03c.66 0 1.32-.31 1.48-1h3.54c.18.81 1.08 1.08 1.83.98l.61-.15c-.5-.17-.9-.3-1.04-.83-.03 0 1.33-.3 1.33-1.68ZM50 32h-7v-.64h5.53c.46 0 .82-.28 1-.64H43V30h5.53c.46 0 .82-.13 1-.51H43V29h7v3ZM47.17 23l-.07-1h-1.37l.07 1H41v1.67h1.4V25h1.2v.52h-1.23v.81h1.23V27H42v.81h2.77c.58-.03 1.06-.25 1.23-.81h-1.4v-.7H46v-.78h-1.4V25H46v-.78h-3.56V24H47c-.07 1.11-.86 1.37-.86 1.37h.48s.51-.07 1-.37h.61v.52h-1.68v.81h1.68V27h-1.78c.2.48.65.85 1.16.85h2.47c.52 0 .96-.37 1.17-.85H49v-.67h2.1v-.81H49V25h1.5c.81-.04 1.5-.4 1.5-1.63V23h-4.83Zm3.4 1.22h-2.34l.07-.22h2.4c-.04.15-.07.11-.14.22Z" fill="#8E615F"/></svg>