<!-- by TradingView --><svg width="56" height="56" viewBox="0 0 56 56" xmlns="http://www.w3.org/2000/svg"><path fill="#F0F3FA" d="M0 0h56v56H0z"/><path fill-rule="evenodd" d="M18.42 21.34h.07c.7.2 1.21.93 1.54 1.57 2.5 4.8 4.4 8.45 5.68 10.96.5 1 1.18 1.59 2.34 1.6.8 0 .95-1.08.22-1.25l-.26-.03c-.24-.02-.52-.05-.73-.25-.1-.1-.2-.24-.3-.45-1.5-2.87-3.32-6.4-5.47-10.6-.4-.76-.8-1.38-1.2-1.84-.56-.63-1.1-.8-1.88-.96-.08 0-.12-.06-.12-.13-.02-2.11-.02-3.4.01-3.9.03-.37.23-.63.62-.79a.25.25 0 0 1 .2 0c.22.08.38.22.48.42 5.77 11.27 8.94 17.43 9.53 18.5.39.7.94 1.12 1.64 1.23.78.13 1.45-.03 2.01-.48.27-.22.62-.73 1.05-1.54 1.3-2.48 2.27-4.37 2.92-5.65a3.63 3.63 0 0 1 .79-1.05.1.1 0 0 1 .1.04l.01.05v14.56c0 .37.23.6.71.65h.03c.38-.13.59-.36.59-.68V16.33c0-1.43-1.19-2.78-2.76-2.19-.45.17-.77.43-.95.78a1260.28 1260.28 0 0 0-7.27 14.15.07.07 0 0 1-.1-.03c-2.72-5.34-5.1-9.98-7.14-13.92-.7-1.33-2.34-1.51-3.29-.3-.32.41-.5 1.02-.49 1.83V41.3c0 .42.23.65.7.7h.03c.38-.14.57-.35.57-.65V26.72l.04-.03a.08.08 0 0 1 .09.01c.3.29.54.6.72.95l3.3 6.36c.55 1 1.33 1.48 2.34 1.45.14 0 .27-.05.37-.13.11-.08.2-.2.23-.32a.67.67 0 0 0 .04-.15c-.02-.43-.23-.65-.62-.65-.81-.02-1.02-.42-1.35-1.08l-.13-.25c-1.6-3.04-2.57-4.94-2.94-5.69a4.02 4.02 0 0 0-2-1.94.16.16 0 0 1-.07-.06.15.15 0 0 1-.02-.09v-3.62a.14.14 0 0 1 .06-.12.15.15 0 0 1 .06-.02Zm17.2-.26c.38-.43.77-.7 1.17-.81l.77-.2c.07 0 .1-.04.1-.11l.03-3.4c0-.34-.08-.65-.23-.95a.7.7 0 0 0-.33-.27c-.35-.17-.62.06-.77.36-2.51 4.94-5.04 9.84-7.58 14.7a.3.3 0 0 0 0 .3l.73 1.44c.06.12.13.12.2 0l4.85-9.47c.31-.6.67-1.14 1.06-1.59Zm-.48 6.84-.16.3a803.92 803.92 0 0 1-2.76 5.34 1.11 1.11 0 0 1-1.21.61c-.54-.13-.7-.4-.48-.84 2.73-5.28 4.55-8.77 5.47-10.49.39-.73.77-1.28 1.51-1.48a.13.13 0 0 1 .06 0 .12.12 0 0 1 .09.06V25.08a.2.2 0 0 1-.03.12.2.2 0 0 1-.1.07c-1.24.4-1.8 1.48-2.39 2.65Zm5.37-10.66a4.13 4.13 0 0 0-.94-1.39c-.24-.28-.2-.53.14-.77l.02-.01c.06-.06.14-.1.22-.13a.68.68 0 0 1 .28-.01c.1 0 .19.04.28.09.09.05.17.1.24.18.82.86 1.25 1.7 1.25 2.53v21.51c0 .43-.22.63-.7.63h-.03c-.43-.04-.64-.26-.64-.68.02-10.2 0-17.37-.07-21.5 0-.15-.02-.3-.05-.45Zm-25 .02c-.03.14-.04.3-.05.44-.06 4.14-.09 11.31-.07 21.52 0 .42-.22.64-.65.68h-.03c-.47 0-.71-.2-.71-.63V17.76c0-.83.45-1.67 1.27-2.53a.94.94 0 0 1 .53-.27c.1-.01.19 0 .28.01.08.03.16.07.22.13l.02.01c.34.24.38.5.14.77a4.12 4.12 0 0 0-.95 1.4Zm-3.12 2.41c0-.66.2-1.21.62-1.64l.34-.36c.17-.17.25-.3.27-.4.04-.46-.24-.7-.73-.72-.37-.01-.7.33-.93.6-.64.71-.96 1.6-.96 2.63v17.6c0 .38.25.6.75.66l.16-.05a.69.69 0 0 0 .34-.22c.09-.1.13-.23.13-.36V19.7ZM43 18.05l-.34-.36c-.17-.16-.25-.29-.26-.4-.05-.45.23-.7.72-.71.36-.01.7.33.92.6.64.71.96 1.59.96 2.62v17.56c0 .38-.25.6-.75.65a.95.95 0 0 1-.16-.04.68.68 0 0 1-.34-.22.57.57 0 0 1-.13-.36v-17.7c0-.66-.2-1.2-.62-1.64Z" fill="#BF965C"/></svg>