<!-- by TradingView --><svg width="56" height="56" viewBox="0 0 56 56" xmlns="http://www.w3.org/2000/svg"><path fill="#F0F3FA" d="M0 0h56v56H0z"/><path d="m10 23.56 4.36 4.4-4.36 4.4v-8.8Z" fill="#027D78"/><path d="M17.62 16 10 23.56l4.36 4.4L26.13 16h-8.5Z" fill="#00A789"/><path d="M29.46 16 22 23.63v8.87l11.74-12.18 7.89 7.7L30 40h8.38L46 32.44v-8.88L37.97 16h-8.5Z" fill="#1757A6"/><path d="M35.32 21.3 21.84 35.53l4.36 4.4 13.54-14.16-4.42-4.47Z" fill="url(#a)"/><path d="M17.49 39.93 10 32.37l4.36-4.4 11.77 11.96h-8.64Z" fill="#00A789"/><path d="m17.49 39.93 4.35-4.4 4.36 4.4h-8.71Z" fill="#027D78"/><defs><linearGradient id="a" x1="37.43" y1="23.22" x2="24.01" y2="37.45" gradientUnits="userSpaceOnUse"><stop stop-color="#1756A6"/><stop offset="1" stop-color="#00A789"/></linearGradient></defs></svg>