<!-- by TradingView --><svg width="56" height="56" viewBox="0 0 56 56" xmlns="http://www.w3.org/2000/svg"><path fill="#F0F3FA" d="M0 0h56v56H0z"/><path d="M31 30v-4h1.55c.31 0 .58.06.8.17.21.12.37.27.48.47.11.2.17.43.17.68 0 .26-.06.49-.17.69-.1.2-.27.35-.49.47-.22.11-.49.17-.8.17H31.5v-.6h.93c.18 0 .33-.03.45-.1a.6.6 0 0 0 .26-.25.8.8 0 0 0 .09-.38.78.78 0 0 0-.09-.37.58.58 0 0 0-.26-.25 1 1 0 0 0-.46-.1h-.68V30H31ZM27 30v-4h.78v3.4H30v.6h-3ZM25.02 27.12c-.02-.16-.12-.3-.3-.39-.17-.09-.4-.13-.68-.13-.2 0-.37.02-.5.06a.77.77 0 0 0-.33.18.37.37 0 0 0-.12.26c0 .08.03.15.08.21s.12.11.2.16l.3.1.31.07.49.09c.2.03.38.08.57.14.18.06.34.13.49.22.14.09.26.2.34.32.09.12.13.27.13.44 0 .23-.08.43-.23.6-.16.17-.39.3-.68.4-.3.1-.65.15-1.07.15-.4 0-.75-.05-1.05-.14-.3-.1-.53-.23-.7-.41-.17-.18-.26-.4-.27-.66h.93c.01.14.07.25.17.34.1.09.22.16.38.2a2 2 0 0 0 .54.07c.2 0 .38-.02.53-.07a.92.92 0 0 0 .37-.2.4.4 0 0 0 .14-.29c0-.1-.05-.18-.12-.25a.93.93 0 0 0-.33-.16c-.14-.05-.3-.09-.49-.13l-.6-.1c-.42-.1-.76-.22-1.01-.38a.78.78 0 0 1-.37-.67c0-.23.08-.43.25-.6.16-.18.4-.31.68-.4.29-.1.62-.15.98-.15.37 0 .7.05.97.14.28.1.5.23.66.4.16.17.24.36.25.58h-.91Z" fill="#C41B20"/><path fill-rule="evenodd" d="M28 44a16 16 0 1 0 0-32 16 16 0 0 0 0 32Zm0-4a12 12 0 1 0 0-24 12 12 0 0 0 0 24Z" fill="#C41B20"/><path fill-rule="evenodd" d="M39 22H17v12h22V22Zm-3 3H20v6h16v-6Z" fill="#C41B20"/><path d="M42.84 34a16 16 0 0 1-29.68 0h4.45a12 12 0 0 0 20.78 0h4.45Z" fill="#172F6B"/></svg>