<!-- by TradingView --><svg width="56" height="56" viewBox="0 0 56 56" xmlns="http://www.w3.org/2000/svg"><path fill="#F0F3FA" d="M0 0h56v56H0z"/><path d="M11 32.68 8 30.8V21l4.65 2.38L11 24.9v7.78Z" fill="#CDC8BF"/><path fill="#B1AA9E" d="M11 25h6v11h-6z"/><path d="m20 23.44-3 1.55V36l3-1.83V23.44Z" fill="#DCD5CF"/><path d="M20 23.52v10.74L26 32V22s-3.89.97-6 1.52Z" fill="#CEC7BD"/><path d="M34.02 22H26v10h5v4h6V25h-6.06s2.05-1.84 3.08-3Z" fill="#B1AAA0"/><path d="m41 22-4 3v11l4-4V22Z" fill="#DBD8CD"/><path d="M41 22h6v10h-6V22Z" fill="#B1AAA0"/><path d="m48 21-1 .92V32l1-1.41V21Z" fill="#DBD8CD"/></svg>