<!-- by TradingView --><svg xmlns="http://www.w3.org/2000/svg" width="56" height="56"><path fill="#1D1163" d="M0 0h56v56H0z"/><circle cx="10.5" cy="22.5" r="2.5" fill="#078AFB"/><circle cx="5.5" cy="26.5" r="1.5" fill="#00CCFE"/><circle cx="10" cy="31" r="2" fill="#05C8C8"/><circle cx="14" cy="35" r="1" fill="#FA7CBB"/><path d="M17.48 24h1.6l-.45 2.73 2.4-2.73h1.9c.09 0 .08.07.06.1l-3.05 3.46 2.2 3.44h-1.75a.33.33 0 01-.3-.17l-1.74-2.66-.44 2.51c-.04.24-.2.31-.27.32H16a3555.28 3555.28 0 011.23-6.74c.04-.2.19-.26.25-.26zm6.12 0h1.43l-.14.73c-.04.2-.17.27-.23.27h-1.42l.14-.8c.02-.15.16-.2.22-.2z" fill="#fff"/><path d="M23.19 26h1.4l-.8 4.69c-.04.23-.17.3-.23.31h-1.43l.8-4.7c.06-.24.2-.3.26-.3zm3.3 0h-1.24l-.88 5h1.28c.2 0 .29-.18.3-.26l.42-2.28c.12-.55.36-1.12 1.06-1.12.57 0 .57.65.5.98l-.46 2.67c.36 0 1.11.02 1.27 0 .16-.01.26-.17.29-.25 0 0 .47-2.77.53-3.4.06-.63-.54-1.34-1.46-1.34a2.3 2.3 0 00-1.37.37c.01-.29-.15-.37-.24-.37z" fill="#fff"/><path fill-rule="evenodd" d="M35.31 26.2c-1.77-.36-5.36-.35-5.53 2.6-.07.82.45 2.44 3.07 2.2-.05.35-.45 1.06-1.69 1.14a6.9 6.9 0 01-1.18-.08c-.13-.04-.4-.05-.48.2l-.19 1.05a8.6 8.6 0 001.85.19c1.03-.01 2.86-.43 3.28-2.53l.87-4.76zm-1.76 1.15c-.7-.12-2.15 0-2.27 1.41-.05.53.3 1.4 1.8 1.07l.47-2.48zM41.4 24l-1.34 7h-2.21c-.84 0-2.54-.46-2.58-2.32-.04-1 .7-2.96 3.94-2.68l.34-1.68a.38.38 0 01.4-.32h1.45zm-2.39 3.17c-.72-.07-2.17.1-2.2 1.42-.01.45.3 1.33 1.7 1.24l.5-2.66zm7.27 1.34c.1-.81-.27-2.45-2.44-2.5a2.8 2.8 0 00-2.99 2.5c-.11.79.42 2.49 2.58 2.49.75 0 2.07-.32 2.63-1.6h-1.55a1.2 1.2 0 01-1.01.5c-.67-.02-1.1-.4-1.1-.9h3.62c.08-.01.25-.24.26-.49zM44.86 28a1.17 1.17 0 00-1.12-1c-.78-.03-1.22.65-1.35 1h2.47zm7.12.51c.1-.81-.26-2.45-2.44-2.5a2.8 2.8 0 00-2.99 2.5c-.11.79.43 2.49 2.59 2.49.74 0 2.06-.32 2.62-1.6h-1.55a1.2 1.2 0 01-1.01.5c-.66-.02-1.1-.4-1.1-.9h3.62c.08-.01.26-.24.26-.49zM50.56 28a1.18 1.18 0 00-1.12-1c-.77-.03-1.22.65-1.34 1h2.46z" fill="#fff"/></svg>