<!-- by TradingView --><svg width="56" height="56" viewBox="0 0 56 56" xmlns="http://www.w3.org/2000/svg"><path fill="#F0F3FA" d="M0 0h56v56H0z"/><path fill-rule="evenodd" d="m27.95 34.2-10.97 7.26c-2.1 1.37-4.98-.02-4.98-2.4V16.94c0-2.38 2.89-3.77 4.98-2.4l11.07 7.26 10.97-7.26c2.1-1.37 4.98.02 4.98 2.4v22.12c0 2.38-2.89 3.77-4.98 2.4L27.95 34.2ZM41 22.08v-5.22L15 33.92v5.22l26-17.06Zm0 3.56v13.5l-10.43-6.68L41 25.64Zm-15.57-2.1L15 16.86v13.5l10.43-6.82Z" fill="url(#a)"/><defs><linearGradient id="a" x1="42.34" y1="15.06" x2="14.04" y2="42.93" gradientUnits="userSpaceOnUse"><stop stop-color="#00F7DC"/><stop offset=".78" stop-color="#0479FB"/></linearGradient></defs></svg>