<!-- by TradingView --><svg width="56" height="56" viewBox="0 0 56 56" xmlns="http://www.w3.org/2000/svg"><path fill="#F0F3FA" d="M0 0h56v56H0z"/><path fill-rule="evenodd" d="M28 11a17 17 0 0 0 0 34v-2a15 15 0 1 1 0-30v-2Zm3 31.7a15 15 0 0 0 0-29.4v-2.04a17 17 0 0 1 0 33.48V42.7Zm-3-.7a14 14 0 1 0 0-28 14 14 0 0 0 0 28Zm0-1a13 13 0 1 0 0-26 13 13 0 0 0 0 26Zm-7-20h14.05v5.05L32 23l-5 5 5 5 3.05-3.05v5.1H21V21Z" fill="url(#a)"/><defs><linearGradient id="a" x1="28" y1="11" x2="28" y2="45" gradientUnits="userSpaceOnUse"><stop stop-color="#D74114"/><stop offset="1" stop-color="#9F3423"/></linearGradient></defs></svg>