<!-- by TradingView --><svg width="56" height="56" viewBox="0 0 56 56" xmlns="http://www.w3.org/2000/svg"><path fill="#181B1E" d="M0 0h56v56H0z"/><path fill-rule="evenodd" d="M28 44a16 16 0 1 0 0-32 16 16 0 0 0 0 32Zm0-3a13 13 0 1 0 0-26 13 13 0 0 0 0 26Z" fill="#fff"/><path d="M26.34 18.04c.12.7-.37 1.37-1.07 1.6a8.81 8.81 0 0 0-5.6 5.38c-.24.68-.91 1.16-1.63 1.03-.6-.1-1.03-.6-1.04-1.16 0-.1.01-.22.05-.33 1.1-3.62 4.1-6.46 7.78-7.51.7-.2 1.39.28 1.5.99Zm11.62 8c-.72.14-1.4-.34-1.63-1.02a8.81 8.81 0 0 0-5.6-5.39c-.7-.22-1.19-.88-1.07-1.59.12-.7.8-1.2 1.5-1a11.42 11.42 0 0 1 7.79 7.52c.03.1.05.2.05.3 0 .58-.43 1.08-1.04 1.19Zm-19.89 3.23c.73-.1 1.39.4 1.6 1.08A8.7 8.7 0 0 0 28 36.4a8.7 8.7 0 0 0 8.33-6.05c.21-.69.87-1.18 1.6-1.08.72.1 1.22.77 1.03 1.47A11.33 11.33 0 0 1 28 39c-5.24 0-9.65-3.5-10.96-8.26-.19-.7.31-1.36 1.04-1.47ZM28 24.39c-.97 0-1.86.39-2.5 1.01-.47.48-1.19.77-1.8.5-.63-.27-.92-1-.51-1.52A6 6 0 0 1 28 22a6 6 0 0 1 4.81 2.38c.4.53.12 1.25-.5 1.52s-1.34-.02-1.82-.5A3.53 3.53 0 0 0 28 24.4Z" fill="#fff"/><path d="M28 31.61c-.97 0-1.86-.39-2.5-1.01-.47-.48-1.19-.77-1.8-.5-.63.27-.92 1-.51 1.52A6 6 0 0 0 28 34a6 6 0 0 0 4.81-2.38c.4-.53.12-1.25-.5-1.52s-1.34.02-1.82.5A3.53 3.53 0 0 1 28 31.6Z" fill="#fff"/></svg>