<!-- by TradingView --><svg width="56" height="56" viewBox="0 0 56 56" xmlns="http://www.w3.org/2000/svg"><path fill="#F0F3FA" d="M0 0h56v56H0z"/><path d="M23.08 15.01c.09 1.31.01 2.55-.22 3.73-.42.47-.8.6-1.1.4a4.3 4.3 0 0 0-2.88 1.79c-.5.62-1.1 1.78-1.82 3.47l-.43 1c-.02.05-.05.07-.1.06h-.1c-.04 0-.05-.03-.04-.08l.71-3.24c.77-.8 1.22-1.5 1.33-2.09l.27-1.53c.1-.62.25-1.1.44-1.46.82-1.49 2.13-2.17 3.94-2.05Z" fill="#EEBF45"/><path d="M25.03 15.65a8.42 8.42 0 0 1-1.88 4.63c-.6.69-1.21 1.37-1.84 2.03a9.05 9.05 0 0 0-2.16 3.83c-.1.35-.19.7-.27 1.07-.1.39-.12.76-.09 1.1a5.1 5.1 0 0 0 2.4 3.89c-2.22-.68-3.36-2.13-3.44-4.37-.02-.95.15-1.93.54-2.95a9.14 9.14 0 0 1 2.5-3.64 11.2 11.2 0 0 0 2.07-2.5c.23-1.18.3-2.42.22-3.73l1.95.64Z" fill="#E7881C"/><path d="M40.33 23.1c1.23.83 2 1.39 2.31 1.65a3.23 3.23 0 0 1 1.28 3.08 3.81 3.81 0 0 1-1.87 2.78c-.7.45-1.45.8-2.26 1.06-1.13.53-2.46 1.63-4 3.28-.2.22-.53.46-1 .74l-.58.38a23.4 23.4 0 0 1 3.4-3.5c.93-.68 1.87-1.36 2.82-2.03a6.44 6.44 0 0 0 2.02-1.93c.33-.65.4-1.36.2-2.12s-.6-1.36-1.2-1.8a18.4 18.4 0 0 0-3.44-1.79.12.12 0 0 0-.14.02.13.13 0 0 0-.04.14c.3 1.48.46 2.64.47 3.47a6.86 6.86 0 0 1-.74 3.3c-.05.09-.1.11-.16.07l-.04-.06h-.01c-.16.34-.43.5-.8.47l.3-.66a5.35 5.35 0 0 0 .6-4.93c-.99-2.74-3.14-3.5-6.46-2.26-1.8-1.7-2.14-3.58-1.03-5.64.07 1.3.49 2.28 1.24 2.95.08.07.16.12.25.16.27.12.38.09.31-.1.15-.1.2-.24.13-.43.93.25 1.87.26 2.81.03.11-.03.17-.1.18-.21.06-.43.07-.86.05-1.3-.03-.38-.25-.75-.67-1.11-.38-.32-.78-.6-1.2-.86-.3-.05-.46-.14-.47-.27l-1.04-.31c2.56-.9 4.4-.15 5.5 2.26.1.22.18.67.26 1.35a4.93 4.93 0 0 0 3.02 4.1Z" fill="#E0522B"/><path d="m31.55 15.37 1.04.31c-1.08.32-1.7.9-1.86 1.71-.15.81.19 1.63 1.03 2.45.07.18-.04.2-.31.1a.92.92 0 0 1-.25-.17 4.08 4.08 0 0 1-1.24-2.95c.37-.57.9-1.05 1.59-1.45Z" fill="#E47147"/><path d="M32.59 15.68c0 .13.17.22.48.27l-.9.08c-.37.04-.63.15-.8.34-.28.31-.43.68-.47 1.1-.02.31.09.66.33 1.04.2.31.42.61.66.9.06.18.02.32-.13.43-.84-.82-1.18-1.64-1.03-2.45.16-.82.78-1.39 1.86-1.7Z" fill="#E9874B"/><path d="M19.15 26.14a9.05 9.05 0 0 1 2.16-3.83c.63-.66 1.24-1.34 1.84-2.03a8.42 8.42 0 0 0 1.88-4.63c2.32 2.9 2.12 5.22-.6 6.98-.31.2-.7.35-1.18.43a4.92 4.92 0 0 0-4.1 3.08Z" fill="#E16312"/><path d="M33.07 15.95c.41.25.81.54 1.19.86.42.36.64.73.67 1.12.02.43 0 .86-.05 1.29 0 .11-.07.18-.18.2-.94.24-1.88.23-2.8-.02a8.53 8.53 0 0 1-.67-.9 1.67 1.67 0 0 1-.32-1.03c.03-.42.19-.79.46-1.1.17-.19.43-.3.8-.34l.9-.08Z" fill="#EC905B"/><path d="M32.45 19.4v.04l-.07.04c-.03.03-.06.03-.09 0a4.86 4.86 0 0 1-1.27-2.29.38.38 0 0 1 .04-.3c.2-.32.43-.56.73-.72.25-.14.57-.14.97.01.73.28 1.35.74 1.85 1.37.06.08.09.12.08.14l-.01.02c-.01.01-.04-.01-.1-.07a4.36 4.36 0 0 0-2.2-1.3c-.32-.08-.55-.05-.68.07-.12.1-.25.25-.4.42a.34.34 0 0 0-.06.3c.17.87.57 1.63 1.2 2.28Z" fill="#E9874B"/><path d="M21.75 19.13a28.97 28.97 0 0 0-2.7 2.93 12.98 12.98 0 0 0-2.5 6.87c-.03.44-.25.7-.67.77-1.2.23-2.45.23-3.76 0l-1.2-.7c-.3-.18-.3-.24.02-.17l.62.14c.22.05.25-.01.08-.2L10 27.04c.54-2.1 1.8-3.3 3.82-3.6a9.1 9.1 0 0 0 1.73-.35 6.39 6.39 0 0 0 1.55-.94l-.71 3.24c-.01.05 0 .07.05.08h.1c.04 0 .07-.01.1-.05l.42-1a16.3 16.3 0 0 1 1.82-3.48 4.3 4.3 0 0 1 2.87-1.8Z" fill="#F1DA57"/><path d="M22.86 18.74a11.2 11.2 0 0 1-2.06 2.5 9.15 9.15 0 0 0-2.5 3.65c-.4 1.01-.58 2-.55 2.94.08 2.24 1.22 3.7 3.43 4.37.55.33 1.14.54 1.77.63.58.49.98.95 1.2 1.4.3.6.35 1.22.15 1.86-.21.64-.62 1.1-1.23 1.38a3.07 3.07 0 0 1-3.96-1.5c-.22-.44-.48-1.06-.78-1.86a4.29 4.29 0 0 0-3.44-2.85l-4.29-.78c-.3-.5-.5-1-.57-1.53l2.1.75c1.3.23 2.55.23 3.75 0 .42-.07.64-.33.67-.77.14-2.46.98-4.75 2.5-6.87.4-.56 1.3-1.54 2.7-2.93.32.21.69.08 1.1-.39Z" fill="#EBA427"/><path d="M36.85 29.65c.5-1.76.28-3.3-.69-4.6a5.07 5.07 0 0 0-2.17-1.57c-.91-.38-1.91-.72-3-1.02 3.32-1.23 5.47-.48 6.47 2.26a5.35 5.35 0 0 1-.6 4.93Z" fill="#DA3B19"/><path d="M37.6 32.58c.86-.9 1.8-1.69 2.83-2.37.86-.57 1.4-1.1 1.61-1.6.68-1.56.33-2.84-1.06-3.84a7 7 0 0 0-1.67-.88c-.5.06-.76.4-.77 1.04-.01 1.31-.04 2.59-.08 3.82-.57 2.16-1.8 3.5-3.68 4.03-.97.27-1.97.4-3.02.38.47-.15.95-.28 1.42-.39.63-.14 1.1-.3 1.38-.46a5.1 5.1 0 0 0 1.99-2c.37.03.64-.13.8-.47 0-.01 0-.01 0 0l.05.06c.06.04.11.02.16-.06.5-.97.75-2.08.74-3.3-.01-.84-.17-2-.47-3.48-.02-.06 0-.1.04-.14a.12.12 0 0 1 .14-.02l.24.1c1.5.66 2.57 1.23 3.2 1.7.6.43 1 1.03 1.2 1.79.2.76.13 1.47-.2 2.12a6.44 6.44 0 0 1-2.02 1.93c-.95.67-1.89 1.35-2.82 2.04Z" fill="#E15F2A"/><path d="M41.05 23.34c1.2.62 2.07 1.2 2.59 1.77.73.8 1.05 1.77.94 2.91-.07.9-.44 1.64-1.09 2.24-.4.36-1.11.81-2.16 1.35l-.74.39c-.89.48-1.54.89-1.96 1.23-.98.8-1.86 1.83-2.63 3.1a13.1 13.1 0 0 1-1.47 2.08c-.5.5-1.17.88-2 1.12-.57.16-1.19.34-1.86.55L29.9 39c2.03-.15 3.57-.9 4.6-2.23a31.29 31.29 0 0 1 2.44-2.83c.88-.89 1.84-1.64 2.85-2.27a9.7 9.7 0 0 0 2.26-1.06 3.81 3.81 0 0 0 1.87-2.78 3.23 3.23 0 0 0-1.28-3.08c-.32-.26-1.08-.82-2.3-1.66.25.04.49.13.7.25Z" fill="#DA3B19"/><path d="m30.67 40.08 1.86-.55c.83-.24 1.5-.61 2-1.12.34-.35.83-1.04 1.47-2.08.77-1.27 1.65-2.3 2.63-3.1.42-.34 1.07-.75 1.96-1.23l.74-.39c1.05-.54 1.77-.99 2.16-1.35a3.33 3.33 0 0 0 1.1-2.24 3.65 3.65 0 0 0-.95-2.91 9.23 9.23 0 0 0-2.59-1.77c2.04 0 3.48.76 4.32 2.26.63 1.13.79 2.34.47 3.62a4.27 4.27 0 0 1-2.6 3c-.24.11-.85.24-1.8.4a4.74 4.74 0 0 0-4.11 4.19 4.72 4.72 0 0 1-.53 1.98c-1.43 2.43-3.48 2.86-6.13 1.29Z" fill="#D3201A"/><path d="M39.31 23.89a14.07 14.07 0 0 0-.85 4.86c.04-1.23.07-2.5.08-3.82.01-.63.27-.98.77-1.04Z" fill="#E47147"/><path d="M39.31 23.89a7 7 0 0 1 1.67.88c1.39 1 1.74 2.28 1.06 3.84-.21.5-.75 1.03-1.6 1.6a16.39 16.39 0 0 0-2.83 2.37 23.4 23.4 0 0 0-3.4 3.5 5.55 5.55 0 0 1-4.88 1.19c-.05-1.94.76-3.31 2.43-4.11 1.05.02 2.05-.1 3.02-.38 1.88-.52 3.1-1.87 3.68-4.03.02-1.82.3-3.44.85-4.86Z" fill="#E9874B"/><path d="M17.01 25.27c-.06.15-.1.27-.08.28.02 0 .08-.1.14-.25.06-.14.1-.26.08-.27-.01 0-.08.1-.14.24Z" fill="#EEBF45"/><path d="m38.85 29.54.33-4.44a.38.38 0 0 1 .22-.34.36.36 0 0 1 .39.03c1.05.75 1.5 1.62 1.33 2.62-.15.88-.73 1.7-1.74 2.44a.3.3 0 0 1-.36.02.32.32 0 0 1-.17-.33Z" fill="#EC905B"/><path d="M16.17 26.4c-.07.26-.1.49-.05.5.04.01.13-.2.2-.46.08-.26.11-.49.07-.5-.05-.01-.14.2-.22.46Z" fill="#EEBF45"/><path d="M28.73 25.1c.5.94.5 1.68-.02 2.2a1.8 1.8 0 0 1-1.72.56c-.68-.13-1.16-.65-1.45-1.57.36-.5.83-.87 1.41-1.1a2.9 2.9 0 0 1 1.78-.1Z" fill="#EBA427"/><path d="M30.6 26.5a6.77 6.77 0 0 1-3.82 4.23 2.85 2.85 0 0 1-1.66-1.93c-.25-.9-.11-1.74.42-2.5.3.9.77 1.43 1.45 1.56a1.8 1.8 0 0 0 1.72-.55c.51-.53.52-1.27.02-2.22.82.2 1.44.68 1.86 1.42Z" fill="#E16312"/><path d="M30.6 26.5c.44.78.52 1.6.23 2.45a2.86 2.86 0 0 1-1.63 1.79c-.8.35-1.61.35-2.42-.01a6.77 6.77 0 0 0 3.81-4.22Z" fill="#DA3B19"/><path d="m12.12 29.7-2.09-.75-.03-1.92 1.64 1.75c.17.18.14.24-.08.2l-.62-.15c-.32-.07-.32-.01-.02.17l1.2.7Z" fill="#EEBF45"/><path d="M22.95 32.83c1.51.19 2.6.97 3.28 2.35-.4 1.73-1.23 2.92-2.5 3.58-1 .54-2.43.76-4.24.68-.4-.57-.62-1-.66-1.3-.1-.66-.17-1.13-.23-1.43a4.85 4.85 0 0 0-2.94-3.8 7.16 7.16 0 0 0-1.66-.33 4.6 4.6 0 0 1-3.4-2.1l4.3.78a4.29 4.29 0 0 1 3.43 2.85c.3.8.56 1.42.78 1.85.36.76.93 1.28 1.7 1.57.76.3 1.52.27 2.26-.06.6-.28 1.02-.74 1.22-1.38.21-.64.17-1.26-.14-1.87-.23-.44-.63-.9-1.2-1.39Z" fill="#E7881C"/><path d="M39.8 31.67a15.75 15.75 0 0 0-2.86 2.27c-.7.7-1.51 1.65-2.44 2.83-1.03 1.33-2.57 2.08-4.6 2.23-.3-.5-.49-1.07-.57-1.73 1.8.38 3.43-.01 4.88-1.2.13-.1.33-.22.59-.38.46-.28.79-.52.99-.74 1.54-1.65 2.87-2.75 4-3.28Z" fill="#E15F2A"/><path d="M21.08 36.97a.17.17 0 0 1-.1-.06 6.87 6.87 0 0 1-1.79-4.09c-.02-.17.06-.25.23-.23 1.41.2 2.5.6 3.24 1.23.98.84 1.1 1.9.34 3.21-.05.1-.13.13-.25.12l-1.67-.18Z" fill="#EEBF45"/><path d="M19.49 39.44c1.81.08 3.23-.14 4.25-.68 1.26-.66 2.09-1.85 2.5-3.58.67 2.34.2 4.04-1.4 5.1a3.92 3.92 0 0 1-5.35-.84Z" fill="#E16312"/></svg>