<!-- by TradingView --><svg width="56" height="56" viewBox="0 0 56 56" xmlns="http://www.w3.org/2000/svg"><path fill="#F0F3FA" d="M0 0h56v56H0z"/><path fill-rule="evenodd" d="M46.85 28.74c-.1-.15-.06-.2.1-.17.5.11 1.05.12 1.67.03.04 0 .09-.03.12-.06.11-.1.09-.3-.04-.37l-.49-.29a.4.4 0 0 1-.15-.18c-.05-.1-.04-.25-.03-.43l.02-.29c0-.51-.01-1.1-.03-1.62l-.02-1c0-.06.01-.11.05-.16a.21.21 0 0 1 .13-.07l.6-.08c.1 0 .15-.05.19-.14a.36.36 0 0 0 0-.27c-.02-.08-.1-.15-.25-.23-.29-.16-.5-.4-.63-.71a.31.31 0 0 0-.18-.18 2.6 2.6 0 0 0-1.21-.15c-.24.02-.35.15-.31.4.09.69-.18.96-.8.82-.2-.05-.3-.18-.26-.39l.04-.34c.01-.06 0-.13-.03-.18a.27.27 0 0 0-.15-.12 3.62 3.62 0 0 0-1.4-.18.33.33 0 0 0-.29.41c.07.22.07.45.02.7-.03.1-.09.15-.2.13l-.4-.06c-.13-.01-.2.04-.22.17l-.01.14c-.02.09.02.14.1.16.14.03.29 0 .44-.08.15-.08.33.04.32.2-.02.87-.02 1.69 0 2.46.02.55.1.86.24.93.23.1.64.12 1.22.05.06 0 .08.02.07.07l-.1.36a.2.2 0 0 1-.23.15c-.52-.1-1.05-.1-1.59-.02-.1.02-.14.08-.1.2l.01.02c.02.06.05.12.1.15a.2.2 0 0 0 .1.04h1.03c.07 0 .12.07.1.14-.23.6-.55 1.15-.95 1.62-.13.15-.21.13-.26-.07a3.21 3.21 0 0 0-.46-1.08.28.28 0 0 1-.04-.2l.52-3.7a.22.22 0 0 0-.06-.18l-.6-.61a.18.18 0 0 0-.25 0l-.58.59c-.06.07-.07.14-.03.22.07.15.13.27.12.43a9.47 9.47 0 0 1-.53 2.52c-.05.17-.2.19-.36.19-.14 0-.2-.08-.18-.22l.13-.67c.3-1.64.6-3.23 1.04-4.85.02-.08 0-.12-.09-.12h-1.51l-.03.01v.03L39 27.85a95.23 95.23 0 0 0 0-.77c-.04.09-.1.12-.2.1a2.8 2.8 0 0 0-1.43-.01c.2.16.4.4.59.75l.04.13c.01.15-.07.3-.2.34-.54.19-1.03.59-1.46 1.2-.06.09-.03.22.06.27.33.16.7.46 1.09.9.06.07.1.14.13.23.12.31 0 .59-.21.8-.31.3-.6.28-.85-.06a12.2 12.2 0 0 0-.73-.7c-.84-.78-2.07-1.92-1.79-1.95a.1.1 0 0 1 .07.01c.5.3.98.5 1.45.57.14.02.26-.04.33-.18.3-.54.47-1.03.53-1.48.02-.15-.1-.28-.24-.25-.26.05-.54.06-.85.03-.13 0-.13-.04 0-.09.33-.12.67-.13 1-.03.09.03.15 0 .2-.09l.2-.38c.03-.08.1-.14.18-.17a.3.3 0 0 1 .18-.01l.89-.92a.32.32 0 0 1 .42-.02c.22.17.54.44.62.72C39.08 23 39 17 39 17H18.08L18 26.46c0 .11-.05.17-.16.18-.5.04-.7-.33-.93-.73l-.12-.23a.17.17 0 0 0-.08-.07.16.16 0 0 0-.19.04.17.17 0 0 0-.04.1l-.13.9a.51.51 0 0 1-.37.45l-1.38.46a.21.21 0 0 1-.21-.05.22.22 0 0 1-.07-.21c.25-1.1.65-2.26 1.21-3.47a.38.38 0 0 0 .02-.26c-.17-.68-.6-1.1-1.3-1.27a.26.26 0 0 0-.12 0 .28.28 0 0 0-.1.06c-.43.34-.56.7-.67 1.06-.27.9-.37 1.82-.36 2.81v3.85c0 .25.04.44.12.57.26.42 1.05.86 1.48.94.28.04.46-.07.56-.34.13-.37.06-.62-.2-.77-.38-.22-.62-.36-.73-.41a.45.45 0 0 1-.23-.45l.08-.64c.02-.16.11-.21.26-.16.25.08.62.26 1.13.54.49.28.85-.02.9-.53l.03-.41a.78.78 0 0 1 .16-.4c.28-.37.6-.55.99-.56.27 0 .45.14.45.42V39h21V28.74s.22-.1.25-.1.46 0 .49.02l1.13.67c.07.04.1.1.08.19-.04.27-.16.7-.35.93-.46.53-.77.9-.92 1.1-.35.46-.27.56.24.32.58-.28 1.17-.7 1.76-1.25.07-.06.13-.1.19-.1.27.02.63.92.43 1.07-.4.3-.36.43.14.39.03 0 .1-.07.2-.2a.6.6 0 0 1 .22-.17 197.5 197.5 0 0 0 2.04-.91c.1 0 .17.09.17.19v1.05c0 .17.08.29.23.35.28.12.51.17.7.17.09 0 .17-.03.25-.06a.62.62 0 0 0 .33-.63 6.06 6.06 0 0 1-.06-1.05c.03-.54.17-.57.42-.1.19.37.48.73.86 1.1.1.1.29.07.36-.06l.72-1.28c.1-.16.05-.28-.12-.34-.77-.32-1.53-.7-1.91-1.3Zm-1.52-3.66c.02 0 .05.01.07 0l.85-.09a.18.18 0 0 0 .13-.07.19.19 0 0 0 .03-.14l-.02-.27a.63.63 0 0 0-.2-.4.47.47 0 0 0-.37-.12l-.21.02a.45.45 0 0 0-.19.07.51.51 0 0 0-.15.14.6.6 0 0 0-.09.2.67.67 0 0 0-.01.23l.03.27a.2.2 0 0 0 .07.13l.06.03Zm.85.49a.18.18 0 0 1 .13.06.2.2 0 0 1 .05.14v.03a3.55 3.55 0 0 1-.23.98.95.95 0 0 1-.2.29c-.06.06-.13.1-.2.09l-.06-.01c-.14-.01-.26-.17-.34-.44-.07-.27-.1-.63-.07-1v-.03c0-.05.03-.1.06-.13a.18.18 0 0 1 .14-.04l.72.06ZM34.23 36.64l.42.68h-.85l.4-.68h.03Zm-.97 1.2a.4.4 0 0 1-.26.09.38.38 0 0 1-.2-.05c-.05-.03-.07-.08-.07-.16v-1.44c0-.08.03-.14.09-.17a.5.5 0 0 1 .18-.03V36h-1v.08c.09 0 .15.01.18.03.05.03.08.09.08.17v1.44c0 .08-.03.14-.09.17a.43.43 0 0 1-.17.03V38h1.9v-.07l-.23-.02c-.08-.02-.12-.05-.12-.1l.05-.15.13-.23h.99l.11.18c.03.03.05.07.06.1l.03.1c0 .05-.02.08-.06.1l-.29.02V38H36v-.07c-.1 0-.18-.03-.23-.07a1.97 1.97 0 0 1-.25-.34L34.54 36h-.13l-.98 1.59c-.07.12-.13.2-.17.24Zm-4.02.05a.97.97 0 0 1-.24.03V38h1.4c.5 0 .91-.1 1.2-.31.27-.19.4-.42.4-.68 0-.3-.13-.54-.4-.72-.28-.2-.7-.29-1.24-.29H29v.08c.12 0 .2.01.25.03.08.03.12.08.12.16v1.46c0 .08-.04.13-.13.16Zm.9-.03c-.03-.03-.05-.07-.05-.13v-1.46c0-.06 0-.1.03-.12.04-.04.11-.05.23-.05.35 0 .6.12.74.36.1.15.14.33.14.54 0 .35-.09.59-.25.71-.17.13-.39.19-.65.19-.1 0-.16-.01-.2-.04ZM28.8 38h-4.27v-.08a.9.9 0 0 0 .3-.04c.06-.03.09-.08.09-.17v-1.45h-.03L23.82 38h-.12l-1.1-1.7h-.01v1.33c0 .1.02.17.08.22.05.05.17.07.36.07V38H22v-.08c.17 0 .28-.02.33-.05.05-.04.07-.1.07-.18v-1.4c0-.09-.03-.14-.08-.16a.95.95 0 0 0-.3-.05V36h1.1l.87 1.37h.04l.86-1.37h3.88v.6h-.12a.61.61 0 0 0-.31-.4c-.15-.07-.41-.1-.8-.1a.83.83 0 0 0-.28.03c-.04.02-.06.05-.06.11v.68c.27 0 .46-.02.56-.09.1-.06.17-.18.22-.34h.12v1h-.12c-.04-.17-.1-.29-.21-.36-.1-.07-.3-.1-.57-.1v.71c0 .07.03.11.08.13a2.15 2.15 0 0 0 1.07-.08c.2-.07.37-.2.52-.4H29l-.2.61ZM26 36.08a.8.8 0 0 0-.3.05c-.06.03-.09.1-.09.22v1.3c0 .11.03.18.08.22.06.03.16.05.31.05.14 0 .24-.01.3-.03.08-.03.13-.09.13-.17v-1.44c0-.08-.05-.14-.14-.17a1.14 1.14 0 0 0-.29-.03ZM34 19c0-.28.13-.52.4-.71.28-.2.63-.3 1.07-.3.17 0 .34.02.51.07l.32.06c.05 0 .08 0 .11-.03a.23.23 0 0 0 .07-.1h.11v.66h-.1a1.6 1.6 0 0 0-.31-.34c-.2-.15-.42-.22-.67-.22-.27 0-.46.07-.59.23-.12.16-.18.38-.18.67 0 .24.06.45.17.63.12.19.34.28.67.28.18 0 .3-.03.36-.08.03-.03.05-.07.05-.13v-.3c0-.08-.04-.14-.12-.16a1.24 1.24 0 0 0-.3-.03v-.07H37v.07c-.14 0-.24.02-.29.06-.04.03-.07.1-.07.2v.36a3.8 3.8 0 0 1-1.14.17c-.46 0-.83-.1-1.11-.3-.26-.18-.39-.41-.39-.7Zm-2.69.86c-.04.03-.15.05-.31.06-.18 0-.31-.02-.4-.05-.1-.02-.14-.08-.14-.16v-1.44c0-.08.06-.14.17-.17.07-.02.2-.03.37-.03V18h-3.48v.1c.15 0 .25.02.3.04.08.04.12.12.12.23v2.16c0 .1 0 .18-.03.23-.04.07-.13.1-.25.1a.22.22 0 0 1-.12-.02.1.1 0 0 1-.05-.09.4.4 0 0 1 .05-.1.34.34 0 0 0 .05-.18.26.26 0 0 0-.08-.19.28.28 0 0 0-.2-.08.32.32 0 0 0-.22.09.29.29 0 0 0-.09.22c0 .12.06.23.19.33s.3.16.5.16c.3 0 .52-.08.69-.23a.84.84 0 0 0 .24-.64v-1.68c0-.14.03-.24.08-.28.05-.04.15-.06.3-.07v-.02c.17 0 .3.01.36.03.1.03.16.09.16.17v1.44c0 .08-.06.14-.17.17-.07.02-.19.03-.35.03V20h3v-.07c-.19 0-.3-.04-.37-.1-.03-.04-.05-.1-.05-.19v-1.18h.03L33.53 20h.13v-1.7c0-.08.02-.14.06-.17a.87.87 0 0 1 .28-.06V18h-.94v.07c.16.01.27.04.32.08.06.04.08.11.08.2v.86h-.02L31.94 18H31v.07c.05 0 .1.02.13.04l.24.17v1.42c0 .07-.02.13-.07.17Zm-6.31.05c.16 0 .28 0 .35-.03.11-.03.17-.09.17-.17v-1.44c0-.08-.05-.14-.16-.17a1.71 1.71 0 0 0-.36-.03V18h2v.08c-.18 0-.3.01-.37.03-.11.03-.17.09-.17.17v1.44c0 .08.05.14.14.16.09.03.22.04.4.04V20h-2v-.08Zm-3 0V20h2.8l.2-.62h-.13c-.15.2-.33.34-.52.42a2.15 2.15 0 0 1-1.07.07c-.05-.02-.08-.06-.08-.13v-.71c.27 0 .46.03.57.1.1.07.17.19.2.36h.13v-1h-.12c-.05.16-.13.28-.22.34-.1.07-.29.1-.56.1v-.69c0-.06.02-.1.06-.11a.83.83 0 0 1 .28-.03c.39 0 .65.03.8.1.14.08.25.2.3.4h.13V18H22v.08c.14 0 .24.01.29.03.1.03.14.09.14.17v1.44c0 .08-.05.14-.14.17-.05.02-.15.03-.29.03Zm-3 0c.13 0 .23 0 .29-.03.1-.03.15-.09.15-.17v-1.44c0-.08-.05-.14-.14-.17a1.22 1.22 0 0 0-.3-.03V18h1.54c.3 0 .54.02.74.06.37.08.55.22.55.42 0 .12-.07.22-.22.29a1.5 1.5 0 0 1-.49.13v.03c.18.02.35.06.48.1.27.1.4.24.4.42 0 .16-.13.3-.38.4-.26.1-.6.15-1.02.15H19v-.08Zm1.23-1.02c.31 0 .52-.03.62-.1.1-.05.16-.16.16-.31a.4.4 0 0 0-.1-.28c-.07-.08-.2-.12-.4-.12-.1 0-.18.01-.22.03-.04.02-.06.06-.06.11v.67Zm0 .83c0 .05.02.09.04.11.04.04.12.06.23.06.24 0 .4-.03.5-.11a.4.4 0 0 0 .14-.32c0-.21-.1-.35-.31-.42a1.96 1.96 0 0 0-.6-.06v.74Zm3.2 10.78a.14.14 0 0 1 .1 0c.1.03.2.2.28.5.13.39.53.37.88.33.31-.04.42-.2.33-.48l-.46-1.32c-.18-.54.02-.8.62-.8.08 0 .2.01.34.04.51.12.77.43.78.93.02.9 0 1.5-.06 1.8-.26 1.28-1.4 1.06-2.26.55-.33-.2-.42-.12-.28.21l1.1 2.53a.36.36 0 0 0 .59.08 6.51 6.51 0 0 0 1.4-2.75c.2-1.05.26-2.1.17-3.17-.04-.48-.25-.8-.63-.95-.5-.2-1.36.07-1.86.23-.13.04-.28-.03-.31-.16a.2.2 0 0 1 0-.13c.2-.47 1.25-1.07 1.77-1.32a.43.43 0 0 0 .24-.4c-.01-.08-.05-.12-.14-.12H26c-.28.03-1.98.16-1.52-.37.45-.52.8-.85 1.03-1 .5-.33.44-.47-.17-.41-.25.02-.59.02-1-.01-.47-.04-.6-.22-.36-.55a.3.3 0 0 1 .17-.11l1.42-.4c.55-.2.85-1.07.42-1.47a.46.46 0 0 0-.55-.04.42.42 0 0 0-.13.13c-.2.33-.32.53-.38.6-.17.18-.33.21-.47.1a.27.27 0 0 1-.11-.23V21.3c0-.23-.28-.38-.5-.26-.22.14-.43.35-.62.66-.15.24-.16.46-.17.77l-.02.24a.6.6 0 0 1-.2.4.74.74 0 0 1-.46.19l-1.55.05c-.28.01-.31.09-.08.23l.89.57c.08.05.17.08.27.08h.55c.11 0 .17.05.16.16-.02.2-.15.34-.38.4-1 .3-1.75.54-2.24.73a.73.73 0 0 1-.27.05h-.5c-.12 0-.16.05-.11.16.28.7.83.95 1.63.75a.39.39 0 0 1 .26.03c.2.1.25.26.16.5a.5.5 0 0 1-.21.25c-.89.5-1.57.88-2.07 1.13-.16.09-.38.15-.64.2a.3.3 0 0 0-.25.24v.12c.1.4.29.74.55 1.01a.28.28 0 0 0 .37.03l.32-.24c.42-.32.78-.6 1.25-.78.57-.22 1.17-.5 1.8-.84a.26.26 0 0 1 .36.1c.02.04.03.08.02.13-.01.18-.07.36-.17.53-.48.82-.88 1.58-1.2 2.26-.1.21-.28.38-.44.54-.15.14-.28.27-.36.42a.26.26 0 0 0-.01.23c.12.28.24.72.36 1.3.06.28.2.46.45.55.09.03.18.04.27.03a.61.61 0 0 0 .45-.27.54.54 0 0 0 .08-.24c.06-.64.2-1.21.44-1.73.1-.24.25-.45.4-.67.15-.23.31-.47.43-.74a.13.13 0 0 1 .07-.06Zm8.47-4.13v5.49c0 .06-.12.13-.18.13h-1.14c-.15 0-.15-.06-.15-.18V28c0-.07-.05-.14-.1-.2a.35.35 0 0 0-.16-.13c-.18-.07-.22-.23-.1-.5.07-.15.3-.75.71-1.8.11-.28.2-.64.27-1.09.05-.34.14-.7.26-1.09a.26.26 0 0 1 .33-.17c.43.14.85.19 1.27.15.09 0 .11.03.07.1-.55 1-.96 2.04-1.08 3.12Zm5.34-1.86c-.4.34-.75.39-1.28.38-.1 0-.16-.04-.2-.14-.12-.42 0-.8.37-1.13a.14.14 0 0 0 .03-.06.12.12 0 0 0-.03-.13.15.15 0 0 0-.07-.04l-1.55-.4c-.1-.02-.15.02-.16.11-.05.83-.23 1.77-.54 2.8-.1.32-.23.6-.36.9-.16.36-.32.72-.42 1.15a.85.85 0 0 0 0 .43c.04.13.11.24.22.3l.38.25c.18.1.34.07.49-.11l.58-.74a.27.27 0 0 0 .05-.21c-.04-.34.15-.8.34-1.26.15-.38.3-.77.34-1.1a.49.49 0 0 1 .18-.32c.1-.08.23-.12.36-.12.67.03 1.35-.04 2.05-.23.34-.1.59-.02.81.2.07.08.13.07.16-.02a.22.22 0 0 0 0-.16c-.17-.36-.41-.61-.74-.78a.53.53 0 0 0-.54.05l-.47.38ZM8.69 27.8a.28.28 0 0 1-.12 0c-.14-.01-.46-.1-.95-.24a.91.91 0 0 0-.38-.07.28.28 0 0 0-.14.08.33.33 0 0 0-.08.14.43.43 0 0 0-.02.18l.06.18.13.21c.16.26.29.47.28.81l-.03 2.03c-.02.82 1.07.98 1.65.83a.4.4 0 0 0 .21-.13c.35-.43.77-.63 1.26-.6.68.03 1.13-.33 1.41-.84a.2.2 0 0 0 0-.21c-.22-.37-.37-.74-.52-1.13-.12-.3-.25-.62-.41-.95-.36-.72-.67-1.54-.95-2.46a.62.62 0 0 0-.52-.44L8.3 25c-.2-.03-.28.05-.21.25l.75 2.3v.1a.2.2 0 0 1-.06.08.25.25 0 0 1-.1.06Zm-.3 3.05c.03.01.06.02.09.01l.94-.02a.2.2 0 0 0 .2-.21v-.06a3.76 3.76 0 0 0-.23-1.15 1.1 1.1 0 0 0-.23-.35.37.37 0 0 0-.26-.12c-.19 0-.35.19-.47.5-.12.3-.18.73-.17 1.16v.05a.2.2 0 0 0 .07.15.2.2 0 0 0 .07.04Z" fill="#F41F29"/></svg>