<!-- by TradingView --><svg width="56" height="56" viewBox="0 0 56 56" xmlns="http://www.w3.org/2000/svg"><path fill="#F0F3FA" d="M0 0h56v56H0z"/><path d="M15 18h-4v17h8v-3h-4V18ZM20 23h4v12h-4z" fill="#003668"/><circle cx="22" cy="20" r="2" fill="#003668"/><path d="M25 26h2v16h4V26h2v-3h-2v-1c0-1.02 1.22-1 1.67-1H34v-3h-2.67c-3.2 0-4.33 2.22-4.33 3.5V23h-2v3Z" fill="#EF3425"/><path fill-rule="evenodd" d="M37.01 30h8L45 28.33A5.8 5.8 0 0 0 39 23c-4.27 0-6 4-6 6s1.07 6 5.33 6H49v-3H38.33c-.66 0-1.32-.4-1.32-2Zm0-2h4c0-1.5-.41-3-2.01-3-1.6 0-1.99 1.5-1.99 3Z" fill="#003668"/></svg>