<!-- by TradingView --><svg width="56" height="56" viewBox="0 0 56 56" xmlns="http://www.w3.org/2000/svg"><path fill="#F0F3FA" d="M0 0h56v56H0z"/><path d="M15 30.27c0 3.04-1.62 4.73-4.72 4.73C7.62 35 6 33.24 6 30.61V30h2v.6c0 1.36.96 2.45 2.48 2.45 1.63 0 2.52-1.23 2.52-2.65V21h2v9.27ZM17 21h2.28L25 31.5V21h2v14h-2.28L19 24.5V35h-2V21ZM31 27h3.57c1.12 0 1.77-1.01 1.77-2.08 0-1.17-.56-1.92-1.77-1.92H31v4Zm-2-6h5.87c2.13 0 3.59 1.31 3.59 3.47 0 1.4-.6 2.42-1.73 2.98v.04c1.65.4 2.27 2.06 2.27 3.6 0 2.6-2.01 3.91-4.45 3.91H29V21Zm2 12h3.85c1.31 0 2.15-.96 2.15-2.22 0-1.23-.87-1.78-2.15-1.78H31v4ZM44 29.51 39.5 21h2l3.5 6.5 3.5-6.5h2L46 29.51V35h-2v-5.49Z"/></svg>