<!-- by TradingView --><svg width="56" height="56" viewBox="0 0 56 56" xmlns="http://www.w3.org/2000/svg"><path fill="#F0F3FA" d="M0 0h56v56H0z"/><path d="M36.1 32.49a.27.27 0 0 1 .1-.03h5.34c.28 0 .48-.12.6-.36a.65.65 0 0 0-.12-.79c-2.36-1.9-3.74-3.03-4.13-3.38a5.67 5.67 0 0 1-1.5-2.22 5.68 5.68 0 0 1-.37-2.58 4.44 4.44 0 0 1 3.1-3.93c.43-.15 1.11-.21 2.06-.2h4.16c.23 0 .4.04.5.12.11.1.17.25.17.47v3.54c-.01.27-.2.4-.58.4h-3.92c-.38 0-.62.15-.72.45-.11.3-.01.57.3.81 1.45 1.16 2.72 2.2 3.8 3.11a6.05 6.05 0 0 1 2.05 3.75c.11.75.06 1.46-.13 2.14a4.4 4.4 0 0 1-2.98 3c-.56.16-1.34.22-2.35.2h-5.29c-.12 0-.18-.06-.18-.18v-4.2c0-.06.03-.1.08-.12ZM21 32.49c.02-.72.02-3.48 0-7.7 0-1.3.05-2.19.21-2.68a4.4 4.4 0 0 1 4.32-3.02c2.75.01 4.16-.04 4.4-.05.96-.03 1.67.04 2.12.2a4.45 4.45 0 0 1 2.75 2.82c.12.35.18.99.19 1.9a1169.58 1169.58 0 0 1 0 15.65c0 .25-.15.38-.46.38h-3.49c-.1 0-.2-.03-.27-.1a.38.38 0 0 1-.1-.27V25.89a3.5 3.5 0 0 0-.21-1.49c-.33-.6-.88-.91-1.66-.94-.43-.01-1.15-.02-1.86 0-.77.02-1.34.4-1.67 1-.14.26-.27.7-.27 1.32.02 2.14.01 3.77 0 4.33-.02.81.13 1.35.29 1.6.22.34.48.57.77.71.28.13.64.19 1.08.18.11 0 1-.06 2.26-.07.13 0 .2.07.2.21v4.02c0 .16-.08.24-.24.24h-15a8.2 8.2 0 0 1-2.4-.24 4.26 4.26 0 0 1-2.1-1.57A4.29 4.29 0 0 1 9 32.66v-9.12c0-1 .27-1.89.8-2.66a4.33 4.33 0 0 1 2.2-1.65c.38-.13.97-.2 1.77-.2 3.67.01 5.58.02 5.75.01.16 0 .47.24.47.4v3.6c0 .23-.3.42-.54.42H15.6a3.66 3.66 0 0 0-1.56.18 1.87 1.87 0 0 0-.98 1.38v.82c0 .14.07.16.2.16h2.98c.26 0 .42.22.45.52v2.74c0 .5-.31.74-.77.74H13.2c-.08 0-.12.03-.13.11-.16 1.41.33 2.17 1.48 2.43l6.34.05c.07 0 .12-.03.12-.1Z" fill="#E90055"/></svg>