<!-- by TradingView --><svg width="56" height="56" viewBox="0 0 56 56" xmlns="http://www.w3.org/2000/svg"><path fill="#F0F3FA" d="M0 0h56v56H0z"/><path d="M23.43 16h6.23a3645.6 3645.6 0 0 1-2.84 15.85c-.5 2.84-1.58 5.15-4.18 6.67a9.23 9.23 0 0 1-4.12 1.36c-.8.05-1.77.1-2.89.12H8v-.36l.73-3.54c.01-.07.05-.1.13-.1 2.32.06 4.38.01 6.18-.13a5.75 5.75 0 0 0 5.04-3.65 29.91 29.91 0 0 0 1.42-5.5L23.43 16Z" fill="#141EDB"/><path d="M36.94 16H47l-.9 4.9c0 .07-.05.1-.12.1h-5.73c-.9 0-1.5.07-1.83.2-.93.39-1.29 1.44-1.47 2.43l-1.35 7.3c-.16.85-1.01 1.07-1.88 1.07H29.3c-.07 0-.1-.06-.08-.12.57-3.17 1.15-6.34 1.74-9.5.2-1.04.4-2.16.85-3.05 1-2 2.7-3.11 5.14-3.33Z" fill="#DE2910"/><path d="M43.3 34.8c-1.06 2.52-3.3 4.14-5.94 4.8-.72.2-1.82.37-3.31.4H24.8c-.1 0-.1-.08-.02-.14 1.91-1.3 3.15-2.58 3.86-4.77 0-.03.02-.05.05-.07a.14.14 0 0 1 .08-.02h6.62c1.3-.06 2.15-1.25 2.39-2.54.48-2.57.92-4.91 1.37-7.48.14-.8.8-.97 1.57-.98h4.73c.07 0 .1.04.1.11-.44 2.57-.88 4.9-1.36 7.45a16.84 16.84 0 0 1-.9 3.24Z" fill="#FF7400"/></svg>