<!-- by TradingView --><svg width="56" height="56" viewBox="0 0 56 56" xmlns="http://www.w3.org/2000/svg"><path fill="#F0F3FA" d="M0 0h56v56H0z"/><path d="M37.93 26.82h1.67c.05 0 .06.02.03.06l-3.45 4.88c-.1.15-.08.18.07.1a81.8 81.8 0 0 0 9.43-6c.04-.03.05-.07.03-.11a11.51 11.51 0 0 0-4.38-5.83 19.19 19.19 0 0 0-6.62-3.05 26.3 26.3 0 0 0-14.03.17 18.79 18.79 0 0 0-5.2 2.34 14.58 14.58 0 0 0-4.14 4.01c-.05.08-.03.12.05.14 1.32.36 2.7.6 4.18.73.06 0 .1-.01.15-.06 1.2-1.3 2.68-2.38 4.46-3.22a28.4 28.4 0 0 1 7.15-2.29c2.24-.4 3.93-.3 5.08.3.34.17.6.4.78.66.2.31.26.64.16.97-.1.33-.36.65-.8.97-1.1.8-2.3 1.4-3.6 1.8-2.43.78-4.92 1.3-7.47 1.58-1.27.14-2.55.26-3.84.36-.06 0-.1.03-.12.09a4.22 4.22 0 0 0-.3 2.45c.16.98.56 1.68 1.2 2.1.7.46 1.52.68 2.48.66 2.37-.06 4.9-.91 7.59-2.57.17-.1.5-.33.95-.67.44-.33.77-.54.99-.64.8-.36 1.53-.31 2.16.15.94.68.66 1.7-.84 3.05-.22.2-.33.44-.35.73-.01.22.08.35.3.38.87.15 2.1-.47 3.7-1.86.84-.73 1.66-1.52 2.47-2.35a.08.08 0 0 1 .06-.03Zm-16.64-4.86a10.46 10.46 0 0 0-2.99 2.32c-.05.06-.04.1.04.1 2.45.02 4.85-.2 7.23-.63 1.35-.25 2.65-.6 3.88-1.02.76-.26 1.4-.57 1.94-.92.86-.55 1.22-1.1 1.07-1.65-.09-.34-.54-.57-1.35-.68a7.9 7.9 0 0 0-1.59-.05c-2.85.2-5.6 1.03-8.23 2.53Zm8.9 10.67c.22.15.58.18 1.1.08a9.58 9.58 0 0 0 3.85-2.02c.22-.17.25-.13.1.1L34 32.81a.27.27 0 0 1-.12.1c-.47.23-.89.39-1.25.48-1.63.43-2.88.81-3.75 1.14-.42.16-.86.4-1.32.75-.65.47-.88 1.05-.68 1.73.11.4.32.68.64.88.64.4 1.55.36 2.72-.1a6.34 6.34 0 0 0 2.45-1.57c.76-.85 1.67-2 2.72-3.43.09-.12.2-.21.34-.27a61.22 61.22 0 0 0 10.18-5.17c.04-.03.06-.01.07.04.1 2.1-.45 4-1.68 5.7a14.26 14.26 0 0 1-4.22 3.8 19.67 19.67 0 0 1-5.23 2.2 26.02 26.02 0 0 1-15.05-.42 18.43 18.43 0 0 1-4.7-2.3 13.09 13.09 0 0 1-3.7-3.7 8.44 8.44 0 0 1-.78-7.9c.02-.06.07-.08.14-.07 1.3.32 2.66.52 4.04.6.08 0 .1.05.06.12-.52 1-.76 1.96-.73 2.91.04 1.04.41 1.94 1.12 2.7.74.8 1.74 1.3 3 1.52a8.3 8.3 0 0 0 3.44-.16c3.02-.76 5.69-2.1 8-4.04.33-.27.7-.37 1.1-.3l.2.05c.35.12.4.33.18.61a6 6 0 0 1-.65.66c-.54.48-.88.86-1.03 1.15-.42.8-.2 1.51.69 2.11Zm2.96 1.49.39-.59c.07-.1.05-.14-.07-.1-1.25.44-2.4.95-3.47 1.55-1.82 1.03-2.42 1.87-1.8 2.54.11.1.28.16.5.17.3 0 .48-.01.54-.04a8.13 8.13 0 0 0 2.65-1.86c.3-.32.73-.88 1.26-1.67Z" fill="#00A850"/></svg>