<!-- by TradingView --><svg width="56" height="56" viewBox="0 0 56 56" xmlns="http://www.w3.org/2000/svg"><path fill="#F0F3FA" d="M0 0h56v56H0z"/><path d="M26.73 16c7.6 0 13.3 3.2 15.2 4.8-6.33-2.4-11.4-2.4-15.2-2.4-5.06 0-8.86 3.59-8.86 9.58 0 8.4 6.96 9.58 8.86 9.58 1.9 0 5.07-.6 5.07-4.79 0-3.35-3.38-5.39-5.07-5.99 1.9.2 6.46 1.32 9.5 4.2 3.04 2.87.85 5.98-.63 7.18 2.53-1.2 5.7-3.6 5.07-7.78-.51-3.36-6.97-5.4-10.14-6 10.14 0 16.47 1.2 16.47 6 0 4.79-6.97 8.98-19 9.58-12.03.6-19-5.4-19-11.98C9 21.39 17.23 16 26.73 16Z" fill="#F12426"/></svg>