<!-- by TradingView --><svg width="56" height="56" viewBox="0 0 56 56" xmlns="http://www.w3.org/2000/svg"><path fill="#F0F3FA" d="M0 0h56v56H0z"/><path d="M29.72 18h.49c1.97.03 3.91.26 5.84.7 1.12.26 2.2.58 3.23.98a18 18 0 0 1 1.73.79l-.27.53c-.87-.44-1.76-.8-2.68-1.1a27.61 27.61 0 0 0-9.26-1.27 27.58 27.58 0 0 0-7.42 1.26A18.74 18.74 0 0 0 18.7 21l-.27-.52v-.02a23.5 23.5 0 0 1 4.96-1.75 27.99 27.99 0 0 1 6.33-.7Z" fill="#002654"/><path d="M15.05 24.33a.66.66 0 0 0 0-1.33c-.36 0-.66.3-.66.67 0 .36.3.66.66.66Z" fill="#C40C24"/><path d="M17.44 32.69a2.8 2.8 0 0 1-.37-.94 4.11 4.11 0 0 1-.07-.8V23l-.01-.01h1.45v7.86c0 .3.04.57.13.8a1.44 1.44 0 0 0 .84.88c.14.06.29.1.44.14l.27.02h5.99l.36-.02a1.33 1.33 0 0 0 1.1-1.06l.02-.36a336.24 336.24 0 0 1-.03-1.23c-.06-.29-.2-.53-.42-.72a1.34 1.34 0 0 0-1.04-.33h-.26a962.9 962.9 0 0 1-1.16 0c-1.42-.13-2.68-1.3-2.68-2.76v-.71c.14-1.53 1.6-2.5 3.06-2.51h5.24c.57 0 1.06.06 1.48.19.5.15.92.4 1.28.78a3.58 3.58 0 0 1 .95 2.4 31726.32 31726.32 0 0 1-.01 7.63h-1.46l-.03-5h-1.94v-.04a1.07 1.07 0 0 0 .2-.8c-.02-.17-.1-.34-.2-.5-.01 0-.01 0 0 0h1.97v-1.32c-.01-1.3-.89-2.35-2.24-2.34h-5.23c-.78 0-1.5.52-1.49 1.37a118.58 118.58 0 0 1 .03 1.23c.12.63.7 1.06 1.33 1.06a353.67 353.67 0 0 1 1.57.01 2.74 2.74 0 0 1 2.49 2.7v.8A2.76 2.76 0 0 1 26.1 34a125651 125651 0 0 1-12.64 0 5.82 5.82 0 0 1-3.91-1.63 5.03 5.03 0 0 1-1.5-3.14 6.19 6.19 0 0 1 .08-2 5.15 5.15 0 0 1 1.9-3.03 5.76 5.76 0 0 1 3.6-1.2 389.35 389.35 0 0 1 .69 0 .96.96 0 0 0 .04 1.29v.01a124.87 124.87 0 0 1-1 .01 4.54 4.54 0 0 0-2.93 1.54c-.53.6-.83 1.3-.93 2.08-.07.56-.04 1.1.1 1.64.12.48.34.93.65 1.35a4.55 4.55 0 0 0 3.04 1.76l.36.02a2577 2577 0 0 0 3.79-.01Z" fill="#002654"/><path d="M29.65 29a.65.65 0 1 0 0-1.3.65.65 0 0 0 0 1.3ZM35.34 29v-1.18s0-.01 0 0c.15.02.3.02.47 0 .16-.03.3-.08.42-.16.2-.14.32-.35.36-.62.03-.24 0-.45-.1-.63a.72.72 0 0 0-.47-.36l-.25-.05a3.32 3.32 0 0 0-.77.07v2.92l.01.01h.32Zm0-2.67h.07c.3-.05.54-.01.68.12.08.07.13.16.15.27.03.1.03.22 0 .34a.52.52 0 0 1-.35.42.98.98 0 0 1-.54.02l-.01-.02v-1.15Zm8.08-.08c0 .14-.1.24-.2.24-.13 0-.22-.1-.22-.24 0-.13.1-.23.21-.23.12 0 .21.1.21.23Zm-6.11 1.15c0 .04 0 .04.02 0a.95.95 0 0 1 .04-.09c.06-.1.14-.19.23-.25.1-.05.21-.07.32-.05l.01.02v.32c-.23-.04-.4.05-.5.25a.94.94 0 0 0-.08.41 759.75 759.75 0 0 0 0 .99h-.33a216.65 216.65 0 0 0-.01-1.96h.28v.01l.02.35Zm1.15 1.02a.73.73 0 0 1-.08-.34l.01-.01h1.29v-.01a1.14 1.14 0 0 0-.08-.64.67.67 0 0 0-.47-.4.9.9 0 0 0-.54.05.85.85 0 0 0-.43.46c-.09.2-.12.4-.1.64a1 1 0 0 0 .18.49c.1.14.24.24.42.3a1.56 1.56 0 0 0 .92-.06v-.04l-.04-.22h-.01c-.1.04-.21.07-.33.08a.9.9 0 0 1-.5-.06.54.54 0 0 1-.24-.24Zm.91-.61h-.98c0-.1.03-.18.07-.27.05-.09.1-.16.17-.2.14-.1.29-.12.46-.06.1.04.16.1.22.21.04.1.06.2.06.32Zm.94-.46c0 .02 0 .02.02 0 .11-.2.27-.31.46-.34.15-.02.28 0 .39.06.11.07.2.17.25.31h.02l.03-.05c.12-.19.28-.3.48-.32.14-.02.26 0 .38.06.1.07.19.17.25.3.05.13.08.28.08.46v1.16h-.32l-.01-1.13c0-.17-.03-.3-.1-.4-.08-.13-.2-.18-.35-.16a.38.38 0 0 0-.23.11.5.5 0 0 0-.13.23A248.89 248.89 0 0 0 41.5 29h-.32l-.01-.01v-1.2a.7.7 0 0 0-.04-.22c-.06-.18-.18-.28-.34-.28-.1 0-.2.04-.28.12a.55.55 0 0 0-.16.26 554.2 554.2 0 0 0-.03 1.33h-.3l-.02-.01a639.08 639.08 0 0 1 0-1.95h.28v.01l.02.3Zm6.06 0c-.01.02-.02.02-.02 0l-.02-.3H46l.02.48a507.4 507.4 0 0 0 0 1.47h.36v-.01a534.24 534.24 0 0 1 .03-1.32c.03-.1.09-.2.17-.26.1-.08.2-.12.31-.12.2 0 .32.1.4.28.02.07.03.15.03.22a694.18 694.18 0 0 1 .02 1.2l.35.01a222.72 222.72 0 0 1 .03-1.36.5.5 0 0 1 .4-.34c.18-.02.3.03.4.15.07.1.1.24.1.41a593.13 593.13 0 0 1 .02 1.14h.35l.01-.01v-1.16c0-.18-.03-.33-.1-.46a.62.62 0 0 0-.28-.3.72.72 0 0 0-.42-.06.75.75 0 0 0-.58.37h-.01a.61.61 0 0 0-.29-.3.7.7 0 0 0-.43-.07.72.72 0 0 0-.52.34ZM43.33 27H43v2.1h.34V27Zm1.92 1.65c.01-.02.01-.02.02 0l.01.3H45.58a6.32 6.32 0 0 1-.01-.44V27l-.01-.01h-.32l-.01.01a174.52 174.52 0 0 0-.01 1.3.5.5 0 0 1-.15.26.44.44 0 0 1-.25.13.4.4 0 0 1-.28-.05.4.4 0 0 1-.16-.23c-.03-.1-.04-.21-.04-.36a575.64 575.64 0 0 1-.01-1.06H44v1.19c0 .18.03.34.09.48.08.15.2.25.34.3a.7.7 0 0 0 .81-.32Z" fill="#C40C24"/><path d="M29.72 37.39c.36 0 .66 0 .93-.02a27.58 27.58 0 0 0 7.4-1.26 18.74 18.74 0 0 0 2.7-1.1l.26.52v.02a23.48 23.48 0 0 1-4.96 1.75 27.97 27.97 0 0 1-6.81.7 27.98 27.98 0 0 1-5.84-.7c-1.13-.26-2.2-.58-3.24-.98a18.04 18.04 0 0 1-1.73-.79l.27-.53c.87.44 1.76.8 2.68 1.1a27.59 27.59 0 0 0 8.34 1.28Z" fill="#002654"/></svg>