<!-- by TradingView --><svg width="56" height="56" viewBox="0 0 56 56" xmlns="http://www.w3.org/2000/svg"><path fill="#F0F3FA" d="M0 0h56v56H0z"/><path fill-rule="evenodd" d="M41 15H15v26h26V15Zm-28-2v30h30V13H13Z" fill="#1B1F88"/><path d="M41 25a16 16 0 0 0-16 16h16V25Z" fill="#E9450A"/><path fill-rule="evenodd" d="M43 23v20H23v-2a18 18 0 0 1 18-18h2ZM25.13 39A16 16 0 0 1 41 25v16H25a16 16 0 0 1 .13-2Z" fill="#1B1F88"/><circle cx="28" cy="23" r="1" fill="#090A7E"/><path d="M18.07 19.17v.02c-.74 2.28 6.64 7.64 7.95 8.8A440.26 440.26 0 0 0 42 41.27l-.66.74a441.07 441.07 0 0 1-16.01-13.3c-1.18-1.04-10.2-8.1-7.98-10.21 2.2-2.1 8.26 3.18 9.54 4.22-.79-.64-7.33-4.95-8.82-3.54Z" fill="#1D2088"/></svg>