<!-- by TradingView --><svg width="56" height="56" viewBox="0 0 56 56" xmlns="http://www.w3.org/2000/svg"><path fill="#F0F3FA" d="M0 0h56v56H0z"/><path d="M35.91 20.33 30.5 24a62.32 62.32 0 0 1 14.4 5.2L49 23.73c-4.44-1.92-10.57-3.07-13.09-3.4ZM43.64 30.8c-3.54-2.08-10.92-4.71-14.2-5.8-1.84 1.5-4.2 4.2-5.12 5.4A88.7 88.7 0 0 1 38.1 38l5.55-7.2ZM28.69 23.6c1-.91 3.7-2.74 4.92-3.54-9.42-.37-16.6 1.05-18.95 1.87 5.44-.1 11.66 1.11 14.03 1.67ZM27.38 24.53a27.38 27.38 0 0 0-5.24 5.07C17.46 27.25 10.1 25.24 7 24.53c1.7-.7 5.28-1.85 6.85-2.33 8.68.8 12.63 1.88 13.53 2.33Z" fill="#1E5F3F"/></svg>