<!-- by TradingView --><svg width="56" height="56" viewBox="0 0 56 56" xmlns="http://www.w3.org/2000/svg"><path fill="#F0F3FA" d="M0 0h56v56H0z"/><path d="M15.86 21h3.16l2.62 6.82 2.7-6.82h2.96l-5.72 14H18.5l1.62-4.02L15.86 21Z" fill="#005076"/><path d="M25.65 34.7h1.6l.16-.62h-1.27l.07-.29h1.27l.14-.56h-.88l.05-.2c-.25.12-.52.23-.81.34a1.85 1.85 0 0 0-.1-.3 4.97 4.97 0 0 0 2.07-1.16h.43l-.1.09c.36.47.85.79 1.5.97-.08.08-.18.19-.28.33-.22-.09-.41-.19-.6-.3l-.05.23h-.93l-.13.56h1.27l-.07.29H27.7l-.15.63h1.62l-.08.29h-3.52l.07-.3Zm3.27-3.6h.29l-.1.4h.9l-.07.29h-.9l-.1.37h-.28l.09-.37H27.5l-.09.37h-.29l.1-.37h-.91l.07-.3h.9l.1-.4h.3l-.1.4h1.23l.1-.4Zm-.9 1.1c-.29.28-.64.53-1.06.75h1.85c-.33-.22-.6-.46-.78-.74ZM32.32 32.98c.53-.58.98-1.23 1.36-1.93l.28.09c-.2.36-.42.69-.63.99L32.6 35h-.3l.6-2.28c-.17.21-.35.4-.53.59a7.67 7.67 0 0 0-.04-.33Zm1.23.55h2.21L35.38 35h-.3l.07-.24h-1.62l-.06.24h-.3l.38-1.47Zm1.84.28h-1.6l-.19.68h1.62l.17-.68Zm-1.71-.92h2.3l-.08.27h-2.3l.08-.27Zm.12-1.3h1.27a8.05 8.05 0 0 0-.14-.41l.3-.14c.06.14.11.3.16.46l-.2.09h1.35l-.07.28h-2.74l.07-.28Zm.05.65h2.29l-.07.27h-2.3l.08-.27ZM38.41 34.68h1.8l.27-1.1H39.1l.08-.32h1.38l.24-1h-1.03a7.3 7.3 0 0 1-.82.94c-.03-.1-.07-.2-.13-.3.47-.45.9-1 1.26-1.65l.3.09-.37.6h.87l.22-.9h.33l-.22.9h1.49l-.08.33h-1.49l-.24.99h1.38l-.08.33H40.8l-.26 1.09h1.7l-.09.32h-3.83l.08-.32ZM45.1 33.45l.8-.27.25-.94h-.35c-.12.25-.24.48-.37.7a3.76 3.76 0 0 0-.2-.18c.23-.37.44-.8.61-1.32l.27.05-.2.48h.31l.24-.9h.29l-.24.9h.39l-.07.27h-.39l-.21.84.42-.15a4.4 4.4 0 0 0-.03.3l-.48.17-.41 1.6h-.3l.4-1.48-.76.27.03-.34Zm1.48-.83a10 10 0 0 0 1.11-1.59l.26.1-.37.59h1.68c-.33 1.07-.58 1.9-.77 2.47-.14.45-.4.67-.8.67h-.5l.03-.35c.22.03.4.04.53.04.2 0 .35-.12.44-.37.2-.56.42-1.3.69-2.18h-.3c-.24.68-.5 1.22-.74 1.61-.34.51-.8.95-1.4 1.31a1.47 1.47 0 0 0-.14-.24 4.17 4.17 0 0 0 2-2.68h-.35c-.2.51-.41.92-.63 1.23a4.7 4.7 0 0 1-.95.95 1.79 1.79 0 0 0-.14-.24c.36-.27.65-.54.87-.84.22-.3.4-.66.56-1.1h-.28c-.2.3-.4.56-.6.78l-.2-.16Z" fill="#040000"/><path d="m14.9 33-.02.01a7.15 7.15 0 0 0 1.93-5.16c0-4.33-2.87-6.85-6.4-6.85C6.86 21 4 23.52 4 27.85 4 32.2 6.87 35 10.4 35h6.74l.85-2h-3.08Zm-4.44-.18c-2.07 0-3.74-1.93-3.74-4.9 0-2.97 1.67-4.7 3.74-4.7 2.07 0 3.74 1.73 3.74 4.7s-1.67 4.9-3.74 4.9Z" fill="#005076"/><path d="M36.52 25.16c.26-.91 1.41-2.86 2.67-2.5.8.23.64 1.3.47 1.92-.1.37-2.06 6.42-2.06 6.42h8.64s1.18-.01 1.97-1.3c.68-1.13.9-2.32.36-3.57-.51-1.2-2.52-1.39-2.67-2.37-.15-.98.93-1.41 1.52-1.15.89.39.77 1.06.77 1.06H50c.02-2.06-1.53-2.63-2.84-2.67-1.8-.05-3.02.8-3.76 2.45-.74 1.66-.06 2.76.62 3.11.96.5 2.16.53 2.5 1.28.34.7-.63 1.15-1.02 1.16h-5s1.9-5.54 2.07-6.08c.23-.73-.36-1.62-2.07-1.8-1.71-.18-3.04 1.23-3.04 1.23l.46-1.35h-2.46s-1.38 4.1-1.76 5c-.54 1.28-1.26 3.61-2.62 3.68-1.2.05-1.6-1.19-1.27-2.1.43-1.2 2.46-6.58 2.46-6.58h-2.45l-2.79 7.4s-.89 2.52 2.1 2.6c2.54.06 3.28-1.34 3.28-1.34L32.03 31h2.54l1.95-5.84Z" fill="#81BB39"/></svg>