<!-- by TradingView --><svg width="56" height="56" viewBox="0 0 56 56" xmlns="http://www.w3.org/2000/svg"><path fill="#F0F3FA" d="M0 0h56v56H0z"/><path d="M36.69 29.72c.05 0 4.17 1.07 6.83 1.72.96-1 1.97-2.55 2.48-3.5-.45-.89-1.47-2.5-2.48-3.5-2.6.65-6.78 1.72-6.83 1.72-.06 0-.34.12-.4-.12-.11-.24.12-.36.23-.41.05 0 3.55-1.49 5.87-2.44a11.38 11.38 0 0 0-3.33-3.14c-3.28 1.95-9.65 5.81-9.93 6-.17.11-.46.23-.63 0-.16-.19 0-.48.17-.6.29-.24 5.65-4.28 8.64-6.53-1.36-.71-2.82-1.49-4.3-2.02l-9.36 9.14s-.28.3-.5.06c-.29-.3 0-.53 0-.53l8.46-9.26a34.04 34.04 0 0 0-4.8-1.13l-6.83 10.8s-.17.3-.45.12-.11-.47-.11-.47l1.52-2.32V15H14v26h7v-8.37l-1.52-2.31s-.17-.3.05-.48c.28-.18.45.12.45.12l6.83 10.86c1.75-.3 3.33-.65 4.8-1.13l-8.41-9.32s-.28-.23 0-.53c.28-.24.5.06.5.06l9.32 9.08a23.04 23.04 0 0 0 4.18-2.02c-3-2.25-8.36-6.35-8.64-6.53-.17-.11-.34-.41-.17-.59.17-.24.45-.12.62 0 .28.18 6.66 4.04 9.94 6 1.18-.78 2.48-1.9 3.33-3.15-2.26-.95-5.82-2.37-5.87-2.43-.12-.06-.34-.18-.23-.42.11-.18.4-.12.5-.12Z" fill="#5CB531"/></svg>