<!-- by TradingView --><svg width="56" height="56" viewBox="0 0 56 56" xmlns="http://www.w3.org/2000/svg"><path fill="#2E323F" d="M0 0h56v56H0z"/><path d="M7.32 28.58c.28.25.65.78 1.14 1.64.34.62.71 1.21 1.12 1.78H11v-.08a1.23 1.23 0 0 1-.66-.37c-.23-.23-.54-.7-.94-1.42-.25-.48-.53-.94-.84-1.37-.19-.24-.4-.46-.65-.63l-.14-.1.16-.05c1-.33 1.49-.96 1.49-1.93 0-.28-.05-.56-.17-.82a1.8 1.8 0 0 0-.48-.65A2.6 2.6 0 0 0 7 24H4v.07c.32.02.65.12.77.31.12.2.23.54.23 1.05v5.12c0 .5-.1.85-.23 1.06-.13.2-.45.3-.77.32V32h2.55v-.07a.75.75 0 0 1-.37-.08c-.11-.05-.1-.14-.18-.24-.14-.21-.2-.56-.2-1.06V28.2h.57c.35 0 .68.13.95.37Zm-1.53-4.44h.76c.52-.02 1.03.17 1.43.54a1.95 1.95 0 0 1 .55 1.4 2.1 2.1 0 0 1-.5 1.42c-.32.36-.78.54-1.35.54H5.8v-3.9ZM19.92 30.63c-.1.25-.25.5-.42.7a1.1 1.1 0 0 1-.53.34c-.35.07-.7.1-1.07.09h-1.4a.74.74 0 0 1-.52-.15.65.65 0 0 1-.16-.5v-3h2.08c.44 0 .53.05.67.15.14.1.24.4.34.74H19v-2h-.09a1.4 1.4 0 0 1-.26.69c-.13.13-.16.2-.5.2h-2.33v-3.67h2.4c.54 0 .89.07 1.06.21.17.14.28.38.37.76V24H14v.07c.34.02.57.12.7.31.15.2.3.56.3 1.08v5.1c0 .5-.15.84-.28 1.05-.14.2-.37.3-.72.32V32h5.67l.33-1.36-.08-.01ZM31.1 29.79c0-.41.08-.7.23-.87a.9.9 0 0 1 .67-.26v-.07h-2.78v.07h.2c.33 0 .56.11.69.32.13.22.18.55.18 1.05v.84c0 .6-.43.91-1.29.91-.42 0-.84-.1-1.21-.3-.38-.2-.71-.5-.97-.85a4.68 4.68 0 0 1-.86-2.89c0-1.05.25-1.92.75-2.59.23-.32.52-.58.86-.75.33-.18.7-.27 1.08-.26.59-.01 1.17.2 1.63.59.45.37.74.91.83 1.51h.06v-2.13h-.1a.49.49 0 0 1-.2.2.44.44 0 0 1-.26.05 2.52 2.52 0 0 1-.7-.14 4.15 4.15 0 0 0-1.26-.22c-.65 0-1.28.2-1.83.56-.56.36-1.03.89-1.34 1.51-.32.66-.49 1.4-.48 2.16a3.6 3.6 0 0 0 1.1 2.73A4.31 4.31 0 0 0 29.15 32a13.2 13.2 0 0 0 1.95-.18V29.8ZM40.11 31.03c.04.1.06.22.06.34 0 .24-.11.53-.64.56V32H42v-.07a1 1 0 0 1-.64-.2c-.14-.13-.3-.4-.42-.83L38.8 24h-.66l-2.04 6.6a2.7 2.7 0 0 1-.48 1.01c-.18.17-.4.28-.62.31V32h1.77v-.07c-.48-.04-.59-.35-.59-.6.02-.32.09-.63.2-.92l.52-1.67h2.5l.71 2.29Zm-3.12-2.63 1.15-3.77 1.16 3.77h-2.31ZM51.93 30.38c-.17.57-.35.93-.55 1.1-.2.19-.56.3-1.07.3h-1.56c-.37 0-.63-.07-.76-.2-.14-.12-.22-.34-.22-.68v-5.46c0-.5.08-.83.22-1.04.08-.1.18-.19.3-.25a.79.79 0 0 1 .37-.08V24H46v.07c.32.02.55.11.69.3.13.17.31.5.31.97v5.14c0 .51-.18.87-.32 1.1a.83.83 0 0 1-.68.35V32h5.56l.44-1.62h-.07Z" fill="#fff"/></svg>