<!-- by TradingView --><svg width="56" height="56" viewBox="0 0 56 56" xmlns="http://www.w3.org/2000/svg"><path fill="#F0F3FA" d="M0 0h56v56H0z"/><path d="M24 24h9.5a9.5 9.5 0 1 1-9.5 9.5V24Z" fill="url(#a)"/><path d="M22 22h-4.5a4.5 4.5 0 1 1 4.5-4.5V22Z" fill="url(#b)"/><path d="M24 22h14.54A4.48 4.48 0 0 0 43 17.5c0-2.49-2-4.5-4.47-4.5-.14 0-10.35 0-10.5.02A4.49 4.49 0 0 0 24 17.5V22Z" fill="url(#c)"/><path d="M13 32.2c0-4.53 3.69-8.2 8.24-8.2H22v19h-.76A8.22 8.22 0 0 1 13 34.8v-2.6Z" fill="url(#d)"/><defs><linearGradient id="a" x1="24" y1="24" x2="40.14" y2="40.46" gradientUnits="userSpaceOnUse"><stop offset=".12" stop-color="#E17536"/><stop offset="1" stop-color="#063A95"/></linearGradient><linearGradient id="b" x1="22" y1="17.5" x2="13" y2="17.5" gradientUnits="userSpaceOnUse"><stop offset=".12" stop-color="#E17536"/><stop offset="1" stop-color="#063A95"/></linearGradient><linearGradient id="c" x1="24" y1="17.5" x2="43" y2="17.5" gradientUnits="userSpaceOnUse"><stop offset=".12" stop-color="#E17536"/><stop offset="1" stop-color="#063A95"/></linearGradient><linearGradient id="d" x1="17.5" y1="24" x2="17.5" y2="43" gradientUnits="userSpaceOnUse"><stop offset=".18" stop-color="#E17536"/><stop offset="1" stop-color="#063A95"/></linearGradient></defs></svg>