<!-- by TradingView --><svg width="56" height="56" viewBox="0 0 56 56" xmlns="http://www.w3.org/2000/svg"><path fill="#F0F3FA" d="M0 0h56v56H0z"/><path d="M47.95 24.96c.07-.61-.12-1.35-1-1.29-.83.07-1.45.58-1.9 1.24a5.96 5.96 0 0 0-.87 2.6c-.2 1.44.34 3.4 2.26 3.49.53.02 1.02.02 1.59 0 .33-.01.68-.06.97-.17-.08.36-.14.5-.18.9-.07.57-.39 1.08-1.03 1.22-.16.03-.37.05-.63.05h-6.37c-.47 0-.78-.02-.92-.05-.37-.1-.63-.34-.8-.73-.18-.42.02-.86.08-1.28.2-1.65.41-3.27.63-4.88.02-.2.12-.44.29-.71l1.88-3.1c.1-.16.29-.25.54-.25h6.3c.53 0 .98.12 1.16.6.05.12.06.26.04.42l-.26 2.12c-.06.47-.18.83-.77.84H47.8c.08-.3.1-.66.15-1.02ZM14.95 24.96c.07-.61-.12-1.35-1-1.29-.83.07-1.45.58-1.9 1.24a5.96 5.96 0 0 0-.87 2.6c-.2 1.44.34 3.4 2.26 3.49.53.02 1.02.02 1.59 0 .33-.01.68-.06.97-.17-.08.36-.14.5-.18.9-.07.57-.39 1.08-1.03 1.22-.16.03-.37.05-.63.05H7.79c-.47 0-.78-.02-.92-.05-.37-.1-.63-.34-.8-.73-.18-.42.02-.86.08-1.28.2-1.65.41-3.27.63-4.88.02-.2.12-.44.29-.71l1.88-3.1c.1-.16.29-.25.54-.25h6.3c.53 0 .98.12 1.16.6.05.12.06.26.04.42l-.26 2.12c-.06.47-.18.83-.77.84H14.8c.08-.3.1-.66.15-1.02ZM29.21 33c-.42 0-.87-.15-1.06-.5-.16-.3-.17-.56-.13-.92.04-.1.09-.42.13-.73.4.16 1.03.15 1.45.15h2.93c.31 0 .53-.02.66-.07.54-.2.62-.66.58-1.34-.04-.51-.47-.6-.96-.59h-3.43c-.23 0-.4-.02-.53-.07-.38-.17-.4-.59-.36-.95l.25-1.86a2 2 0 0 1 .29-.76l1.89-3.09c.1-.16.28-.27.49-.27h6.35c.27 0 .49.03.64.09.45.16.64.54.6.96l-.3 2.3c-.07.42-.32.63-.78.63h-1.27c.15-.47.2-1.06.06-1.55-.16-.56-.74-.83-1.36-.74-1.27.17-1.93 1.48-1.98 2.5-.04.88.61 1.05 1.43 1.06h2.76c.42-.01.67.16.77.51.02.11.03.26 0 .46l-.47 3.41c-.04.32-.1.54-.17.68-.24.42-.69.7-1.22.69h-7.26ZM18.21 33c-.42 0-.87-.15-1.06-.5-.16-.3-.17-.56-.13-.92.04-.1.09-.42.13-.73.4.16 1.03.15 1.45.15h2.93c.31 0 .53-.02.66-.07.54-.2.62-.66.58-1.34-.04-.51-.47-.6-.96-.59h-3.43c-.23 0-.4-.02-.53-.07-.38-.17-.4-.59-.36-.95l.25-1.86a2 2 0 0 1 .29-.76l1.89-3.09c.1-.16.28-.27.49-.27h6.35c.27 0 .49.03.64.09.45.16.64.54.6.96l-.3 2.3c-.07.42-.32.63-.78.63h-1.27c.15-.47.2-1.06.06-1.55-.16-.56-.74-.83-1.36-.74-1.27.17-1.93 1.48-1.98 2.5-.04.88.61 1.05 1.43 1.06h2.76c.42-.01.67.16.77.51.02.11.03.26 0 .46l-.47 3.41c-.04.32-.1.54-.17.68-.24.42-.69.7-1.22.69h-7.26Z" fill="#00428D"/></svg>