<!-- by TradingView --><svg width="56" height="56" viewBox="0 0 56 56" xmlns="http://www.w3.org/2000/svg"><path fill="#F0F3FA" d="M0 0h56v56H0z"/><path d="M28 11c-9.35 0-17 7.65-17 17s7.65 17 17 17 17-7.65 17-17-7.65-17-17-17Zm1.57 1.96c4.64.46 8.7 3.08 11.12 6.8h-.07c-1.76 1.25-3.53 3.01-4.84 4.78l-.06.06c-.07.07-.13.2-.2.26a.6.6 0 0 1-.52.27h-.07c-.26 0-.45-.14-.72-.46l-.58-.98s-.6-.53-.79-.85l-.4-.98s-.32.2-.71.26c-.33.06-.52-.13-.72-.33a.74.74 0 0 1-.2-.52s-.06-.66-.06-1.44c0-.59-.07-.92-.85-1.9a5.4 5.4 0 0 1-.85-2.35c0-.85.2-1.77.52-2.62ZM31.73 35H22.05c0-.78-.26-1-.26-1h9.81c.65 0 .72 1 .13 1Zm-3.47-4c.53 0 .6 1 .07 1h-5.5c-.26-.26-.71-.6-1.17-1h6.6Zm-.85-7c.2 0 .4.22.4.41v.2c0 .2-.2.39-.4.39h-9.28c-.33-.4-.66-.74-1.05-1h10.33Zm-1.04 4c.26 0 .46.13.46.46 0 .26-.2.46-.46.52h-6.28c0-.26.1-.59-.09-.98h6.37Zm-5.88-13H27.43c.26 0 .45.17.45.43v.07c0 .26-.2.5-.45.5h-8.51l1.57-1Zm-3.8 3h10.4c.26 0 .45.2.45.45v.14c0 .26-.2.41-.45.41H15.9c.27-.4.53-.68.79-1Zm-2.16 3h13.21c.26 0 .46.24.46.5v.07c0 .26-.2.45-.46.45H14.08c.12-.32.26-.7.45-1.02Zm3.4 18.25a15 15 0 0 1-4.51-15.17 9.98 9.98 0 0 1 4.12 3.6c.65.98.26 1.43.59 1.96.32.52 2.55 2.35 2.55 2.35.33.26.26.92-.13 1.18-.33.2-1.25.65-1.25.65l.46 1.9.26.85c.27.78 0 1.9-1.37 2.42l-.72.26ZM34.67 42H21.4l-1.77-1h16.74c-.52.33-1.1.67-1.7 1ZM39 39H22.3c.2-.33.26-.67.2-1h17.4c-.33.33-.6.74-.92 1Zm-1.3-4c-.34 0-.6-.26-.8-.46a1 1 0 0 1-.19-.85l.85-3.86-1.05-.72c-.32-.26-.45-.72-.26-1.04l.79-1.64c.26-.59.59-1.1.91-1.63a13.82 13.82 0 0 1 3.2-3.27l.4-.26A15.46 15.46 0 0 1 43.1 28c0 2.42-.56 4.9-1.61 7h-3.82Z" fill="#2A4172"/></svg>