<!-- by TradingView --><svg width="56" height="56" viewBox="0 0 56 56" xmlns="http://www.w3.org/2000/svg"><path fill="#F0F3FA" d="M0 0h56v56H0z"/><path fill-rule="evenodd" d="m28.32 10 .47.2A27.92 27.92 0 0 1 45 34.6l.01.42-.25.35C41.92 39.2 35.9 43.99 28.32 44c-5.28 0-11.12-2.3-16.95-8.52l-.37-.4.04-.52a32.1 32.1 0 0 1 3.88-12.47c2.58-4.68 6.68-9.3 12.92-11.9l.48-.19ZM13.99 31.49a26.4 26.4 0 0 1 5.79-3.35c-.13-1.69-.03-3.32.24-4.87a21.3 21.3 0 0 1 2.56-6.94 25.68 25.68 0 0 0-5.5 6.94A31.15 31.15 0 0 0 14 31.49Zm14.25-18.44a19.94 19.94 0 0 0-5.79 10.65c-.2 1.13-.3 2.33-.25 3.58.88-.26 1.79-.47 2.72-.63 2.9-.48 6.04-.39 9.25.59.07-4.33-1.44-9.21-5.93-14.2Zm5.72 16.7a17.77 17.77 0 0 0-8.63-.68c-.99.17-1.94.4-2.85.7.63 3.46 2.38 7.25 5.88 11.22a21.96 21.96 0 0 0 5.6-11.25Zm-8.58 11.52c-2.92-3.65-4.55-7.23-5.24-10.6a23.76 23.76 0 0 0-6.13 4c4 4 7.86 5.93 11.37 6.6Zm6.03-.04c2.1-2.65 4.1-6.29 4.89-10.53 1.9.94 3.85 2.26 5.8 4.06a19.6 19.6 0 0 1-10.7 6.47Zm10.82-9.6a24.98 24.98 0 0 0-5.62-3.49c.22-3.76-.6-7.85-3.03-12a25.4 25.4 0 0 1 8.65 15.48Z" fill="url(#ai3d25ins)"/><defs><linearGradient id="ai3d25ins" x1="28" y1="10" x2="28" y2="44" gradientUnits="userSpaceOnUse"><stop stop-color="#0067B2"/><stop offset="1" stop-color="#00AE63"/></linearGradient></defs></svg>