<!-- by TradingView --><svg width="56" height="56" viewBox="0 0 56 56" xmlns="http://www.w3.org/2000/svg"><path fill="url(#a)" d="M0 0h56v56H0z"/><path fill-rule="evenodd" d="M36.5 32.8A9.43 9.43 0 0 0 42 24c0-7-5.5-9-9-9h-6l-2 4h3v21h4v-6l5 6h5l-6-7c.15-.05.32-.11.5-.2Zm4.41 6.7-5.77-6.74.7-.23A8.88 8.88 0 0 0 41.5 24c0-3.35-1.3-5.45-2.99-6.73A9.35 9.35 0 0 0 33 15.5h-5.7l-1.5 3h2.7v21h3v-6.88l5.73 6.88h3.68Zm-9.41-21h.5c1.06 0 2.66.26 4 1.07A4.92 4.92 0 0 1 38.5 24c0 2.66-1.07 4.31-2.46 5.28A7.25 7.25 0 0 1 32 30.5h-.5v-12Zm1 11.48L32 30V19c.16 0 .32 0 .5.02 2.1.15 5.5 1.3 5.5 4.98 0 4.61-3.4 5.82-5.5 5.98Z" fill="#F08C00"/><path d="m27.5 16-1 2H29v21h2v-6c6 .5 10-3.4 10-9 0-6-4.5-8-8-8h-5.5ZM31 31V18c2.67 0 8 1.18 8 5.9 0 5.92-5.33 7.1-8 7.1Z" fill="#fff"/><path fill-rule="evenodd" d="M31.2 33.02c5.89.4 9.8-3.48 9.8-9.02 0-6-4.5-8-8-8h-5.5l-1 2H29v21h2v-6l.2.02Zm-.4 5.78v-6.02l.22.02c2.95.25 5.4-.59 7.1-2.16A8.82 8.82 0 0 0 40.8 24c0-2.94-1.1-4.88-2.61-6.1A8.4 8.4 0 0 0 33 16.2h-5.38l-.8 1.6h2.38v21h1.6Zm0-21h.2c1.36 0 3.39.3 5.1 1.2 1.7.92 3.1 2.45 3.1 4.9 0 3.04-1.37 4.87-3.1 5.94A10.07 10.07 0 0 1 31 31.2h-.2V17.8Zm.4 13.2H31V18h.2c2.72.06 7.8 1.3 7.8 5.9 0 5.77-5.08 7.04-7.8 7.1Z" fill="#F08C00"/><path d="M13 30h1v-8c0-2.33 1.4-7 7-7 2.59 0 4.28 1 5.35 2.3l-.25.5c-.96-1.28-2.54-2.3-5.1-2.3-2.64 0-4.24 1.09-5.2 2.42-.97 1.35-1.3 3-1.3 4.08v8.5h-1.2l-1.5 3h2.7v6h3v-6h7v6h3V22c0-.93-.24-2.28-.93-3.5h.56c.64 1.24.87 2.56.87 3.5v18h-4v-6h-6v6h-4v-6h-3l2-4Z" fill="#F08C00"/><path d="M17.5 23v7.5h7v-7.52c0-.5 0-1.58-.42-2.55-.21-.5-.54-1-1.06-1.35A3.43 3.43 0 0 0 21 18.5c-1.43 0-2.33.81-2.84 1.76-.5.93-.66 2.02-.66 2.74Zm3.5-4c3 0 3 3 3 4v7h-6v-7c0-1.33.6-4 3-4Z" fill="#F08C00"/><defs><linearGradient id="a" x1="10.42" y1="9.71" x2="68.15" y2="76.02" gradientUnits="userSpaceOnUse"><stop stop-color="#1A1E21"/><stop offset="1" stop-color="#06060A"/></linearGradient></defs></svg>