<!-- by TradingView --><svg width="56" height="56" viewBox="0 0 56 56" xmlns="http://www.w3.org/2000/svg"><path fill="#F0F3FA" d="M0 0h56v56H0z"/><path d="M28.01 11c-3.5 0-7.49 1.5-10.49 4 9.6-2.8 15.99 2 18.49 8h8c-2.5-8.5-10-12-16-12Z" fill="url(#ay0cwwcwi)"/><path d="M45 27H33.01l-5 6h8c-.8 3.2-5.66 4.67-8 5 2 .8 4.17 1 5 1 8 0 11.32-8 11.99-12Z" fill="url(#by0cwwcwi)"/><path d="M23.02 16c5.2 0 8.16 2.67 9 4-.5-.33-2-1-4-1-2.5 0-10 2.5-10 10 0 7 8 11 14.99 11 4 0 7.66-2 9-3-.5 1.5-4 8-14 8C18.02 45 11 37.02 11 29c0-8 5.52-13 12.02-13Z" fill="url(#cy0cwwcwi)"/><defs><linearGradient id="ay0cwwcwi" x1="21.02" y1="13" x2="40.01" y2="22.99" gradientUnits="userSpaceOnUse"><stop stop-color="#F39D1D"/><stop offset="1" stop-color="#664C11"/></linearGradient><linearGradient id="by0cwwcwi" x1="43" y1="26" x2="31" y2="36.99" gradientUnits="userSpaceOnUse"><stop stop-color="#5D3F1B"/><stop offset="1" stop-color="#E4971F"/></linearGradient><linearGradient id="cy0cwwcwi" x1="26.5" y1="16" x2="26.5" y2="45" gradientUnits="userSpaceOnUse"><stop stop-color="#5E3F1E"/><stop offset="1" stop-color="#F8A51B"/></linearGradient></defs></svg>