<!-- by TradingView --><svg width="56" height="56" viewBox="0 0 56 56" xmlns="http://www.w3.org/2000/svg"><path fill="#F0F3FA" d="M0 0h56v56H0z"/><path fill-rule="evenodd" d="M13.08 36.06a4 4 0 0 0 .15 1.23c.03.08.04.17.01.25a9.9 9.9 0 0 1-.13.4c-.06.2-.1.39-.1.56 0 .66.04 1.57.1 2.74.04.57.17.97.42 1.19.3.28.73.44 1.25.48.66.05 1.7.06 3.1.03 1.2-.02 2.08-.02 2.64.02.95.05 2.08.05 3.39.01.97-.03 2.1-.05 3.39-.04l12.47.05c.46 0 1.11-.03 1.97-.09.22-.02.47-.09.74-.2.08-.04.13-.1.16-.19.2-.55.3-1.07.3-1.54-.01-.55 0-1.1.02-1.64.03-.78.04-1.32.04-1.64-.04-2.4-.05-7.9-.02-16.53.01-3.08 0-5.54-.06-7.37 0-.33-.17-.51-.49-.53a44.5 44.5 0 0 0-3.4-.16l-8.6-.08c-1.32 0-3 0-5.02.02-1.94.02-4.42.01-7.42-.03-.38 0-1.02.01-1.95.05l-1.94.03c-.52 0-.8.26-.85.77l-.02.17a9.1 9.1 0 0 0-.03 2.39c.04.18.04.47.02.85-.03.4-.02.71.01.93.04.24.05.5.02.76l-.1 1.11a695.24 695.24 0 0 1-.11 7.5c-.04.76-.05 1.33-.03 1.7.04 1.01.06 2.53.06 4.56v2.24Zm2.57-12.87c.07.02.13.02.2.01a.2.2 0 0 1 .22.1c.06.07.06.16.02.25l-.28.5c-.04.08-.02.14.05.19.2.13.26.37.15.7a.62.62 0 0 0-.03.26c.07.66.1 1.18.1 1.56l-.02 1.42c.08 4.15.09 7.47.04 9.97a11.48 11.48 0 0 0 .15 1.97c0 .11.07.17.18.17a215.21 215.21 0 0 0 9.17-.14c2.77-.08 5.32-.08 7.65-.01.17 0 .45 0 .84-.03.54-.04.93-.04 1.17-.02 1.12.1 2.29.09 3.52-.03.15-.01.42 0 .8.04l.34.03c.18.02.26-.07.25-.26-.02-.52-.03-1-.02-1.45.02-.66.03-1.14.02-1.44-.06-2.13-.08-4.35-.06-6.67v-3.56c-.01-1.1.03-2.28.1-3.56.06-.9.07-1.66.03-2.28l-.16-2.28a9.98 9.98 0 0 1 .07-2.48c.03-.23-.06-.35-.29-.35-1.01 0-2.09.02-3.22.08-.18 0-.47 0-.87-.03a19.97 19.97 0 0 0-19.54.1c-.1 0-.15.07-.14.18.16 1.21.15 2.42-.03 3.63-.06.39-.05.88.02 1.46l.07.57c.04.53-.12.87-.48 1.02-.1.04-.14.1-.14.21 0 .08.04.14.12.17Zm25.72-1.22c-.08.02-.17-.08-.2-.23-.02-.14.02-.27.11-.29.09-.01.18.09.2.23.03.15-.02.28-.1.3Zm-26.44 2.01c-.1.04-.21-.03-.27-.17-.05-.13-.01-.28.09-.32.1-.04.21.04.27.17.05.14.01.28-.09.32Zm-.07 1.63c.13-.1.19-.23.14-.3-.05-.09-.2-.07-.33.02-.13.1-.19.23-.14.31.05.08.2.07.33-.03Zm25.8.76c-.09-.05-.11-.22-.04-.4.07-.17.2-.28.3-.24.1.04.11.22.05.4-.07.17-.2.28-.3.24Zm-20.78-1.29-2.82.04c-.24 0-.37-.12-.37-.38v-.1c-.01-.3.13-.46.42-.46l2.46-.04c.23 0 .33-.13.3-.37 0-.09-.02-.23-.05-.42a5.36 5.36 0 0 1-.07-.99c.1-1.52.1-3.31.03-5.38-.02-.49.17-.68.55-.56h.02c.34-.05.52.11.53.5.05 1.05.04 1.92-.02 2.6-.05.62-.04 1.2.05 1.75.13.79.12 1.64-.03 2.57-.02.1.02.15.1.18l.66.18c.2.04.42.03.65-.04.67-.18 1.13-.23 1.4-.15.28.08.38.32.3.71-.05.26-.2.37-.45.33a6.16 6.16 0 0 0-2.39.1c-.1.02-.16.1-.16.21l.03 2.18c0 .09.04.12.12.12l2.29-.03c.12 0 .23.04.32.14.1.09.14.2.14.34l.1 7.76c0 .16-.07.24-.22.24l-2.62.04c-.17 0-.25-.08-.26-.26l-.04-3.4c0-.16-.08-.24-.24-.24h-.66c-.12.01-.17.07-.17.2l.07 5.91c0 .14.07.21.2.21l3.53-.05c.26 0 .42.13.47.4l.03.17c.05.32-.07.48-.38.48l-4.65.07c-.19 0-.28-.1-.28-.3l-.1-7.68c0-.2.09-.3.27-.3l2.63-.04c.15 0 .24.07.27.23.2 1.2.2 2.28-.01 3.26-.03.12.02.17.13.17l.78-.01c.11 0 .17-.06.17-.18l-.08-5.84c0-.16-.08-.24-.22-.23l-4.72.06c-.13 0-.19.07-.19.2l.14 10.47c0 .15-.06.22-.2.22h-.6c-.15.01-.22-.06-.22-.2l-.15-11.26c0-.13.04-.24.13-.33a.41.41 0 0 1 .3-.14l2.75-.04c.05 0 .08-.03.08-.09l-.03-2.5c0-.02 0-.03-.02-.03Zm16.92 2.6 2.39-.04c.2 0 .3.1.31.32v.19c0 .23-.1.36-.32.37l-2.5.15c-.06 0-.1.04-.1.1l.04 2.31c0 .15.07.22.22.2l1.81-.13c.38-.03.62.07.74.28.07.13.11.4.12.82v.2a35.8 35.8 0 0 1-.03 3.15c-.01.17-.1.25-.25.25l-.89.01c-.22 0-.33.13-.31.36l.1 1.98c.02.2.12.3.31.29l.82-.05c.16-.01.25.07.26.24l.02.45c.01.17-.07.26-.24.27l-1.88.02c-.16 0-.24-.08-.24-.24l-.06-3.8c0-.3.14-.46.43-.48l1-.06c.1 0 .15-.06.16-.15.06-.77 0-1.54-.2-2.33a.22.22 0 0 0-.18-.17 3.2 3.2 0 0 0-1.53.1c-.09.02-.13.08-.13.18 0 .24-.02.62-.07 1.14-.06.76-.07 1.32-.05 1.7.06 1.25.1 2.49.12 3.73 0 .33-.15.5-.46.52l-.36.02c-.22.01-.34-.1-.34-.34l-.09-6.67c0-.26-.12-.38-.36-.38l-1.43.02c-.18 0-.28.1-.27.3l.02 1.97c0 .17.08.25.24.24l.73-.05c.14 0 .25.04.35.13.1.1.15.22.15.36l.06 4.16c0 .13-.06.2-.18.2-.54.06-.95-.01-1.23-.21-.07-.05-.14-.04-.2.01-.14.12-.26.18-.36.18-2.32.07-5.02.08-8.1.02-.13 0-.2-.07-.23-.2v-.02c-.11-.48-.16-.84-.15-1.07.03-.96.02-1.93-.03-2.9-.01-.24.1-.36.32-.38l1.1-.06c.17-.01.26-.1.26-.29.01-.6 0-1.17-.05-1.71-.03-.4-.23-.6-.61-.62l-.6-.04c-.15 0-.22-.09-.22-.23v-.3c0-.19.08-.3.27-.32.32-.04.85-.07 1.6-.07.38 0 .58.2.6.59.07 1.2.09 2.44.07 3.7 0 .22-.1.32-.3.3l-1.07-.08c-.16-.01-.23.06-.22.23l.12 2.26c0 .13.07.19.2.19l1.58-.03c.2 0 .31-.11.31-.33l-.12-9.05c0-.26-.13-.39-.38-.38l-2.02.03c-.41 0-.62-.21-.63-.64-.02-.77-.03-1.44-.06-2a3 3 0 0 1 .03-.42c.06-.44.02-.77-.1-.98a.43.43 0 0 1 0-.44c.07-.15.19-.22.35-.22l.79-.01c.13 0 .24-.06.33-.16.08-.1.12-.22.12-.35l-.12-2.14c0-.08-.04-.12-.12-.12l-1.05.06c-.25.02-.38-.1-.4-.37l-.02-.4c-.02-.3.12-.42.4-.36.49.12 1.08.12 1.78.02.16-.02.24.05.25.21l.24 4.36c0 .1-.04.15-.14.16l-.89.05a.53.53 0 0 0-.37.19.58.58 0 0 0-.15.4l.03 1.98c0 .1.04.14.13.15l2.04.16c.16.01.23-.07.21-.23-.03-.3-.08-.55-.14-.73-.07-.22-.1-.48-.07-.8.05-.47.06-1.18.05-2.12l-.17-6.23c0-.18-.09-.26-.26-.26l-2.72.04c-.14 0-.22-.07-.24-.21l-.1-.53c-.02-.14.04-.22.18-.22l7.04-.1c.24 0 .36.12.36.37l.05 3.7c0 .18-.06.35-.19.48a.62.62 0 0 1-.46.22h-.82a.34.34 0 0 0-.29.16.39.39 0 0 0-.05.35c.23.8.31 1.6.26 2.4-.01.12.04.17.14.14l.82-.15c.27-.06.42.06.45.34l.02.11c.03.29-.08.43-.36.44l-1.55.02c-.21 0-.33-.11-.34-.34l-.22-4.04c-.02-.23.09-.35.31-.35l.89-.01c.27 0 .4-.15.39-.44l-.13-2.33c0-.07-.04-.1-.1-.1l-1.9.12c-.04 0-.07.03-.07.08.02 1.28.02 2.57.01 3.85 0 .22 0 .59.03 1.09.03.84.03 1.48.01 1.91a25.81 25.81 0 0 0 .09 3.1c0 .07.04.1.1.1l2.6-.03c.17 0 .25.08.25.25l.05 3.93c0 .21-.09.33-.28.37l-1.04.2c-.16.03-.23.13-.23.3l.02 1.97c0 .13.07.19.19.18l.79-.05c.28-.02.42.12.42.42v.13c.01.33-.14.47-.45.43-.49-.05-.91-.04-1.28.05-.36.1-.55-.05-.56-.43l-.14-3.75c-.01-.2.08-.29.26-.3h1.2c.08-.01.13-.06.13-.15l-.04-2.47c0-.14-.07-.2-.2-.18a3.6 3.6 0 0 1-1.81-.03c-.1-.04-.13 0-.1.1.15.4.22.67.21.81-.17 2.96-.21 5.9-.12 8.85 0 .09.04.13.13.14 1.98.04 3.25.05 3.81.02.33-.01.54.06.64.21.05.07.1.08.17 0 .21-.25.32-.5.32-.76v-2.06c0-.16-.07-.23-.22-.2l-.85.17a.3.3 0 0 1-.26-.07.34.34 0 0 1-.12-.26l-.05-3.97c0-.25.1-.38.34-.4l2.63-.15c.1-.01.14-.06.14-.16l-.03-2.29c0-.05-.03-.07-.08-.07l-2.64.18c-.25.01-.37-.13-.36-.42v-.02c-.01-.27.14-.42.45-.45l2.42-.2c.24-.03.36-.17.34-.43l-.09-1.72c-.01-.24-.13-.36-.36-.36l-2.39.04c-.23 0-.34-.12-.35-.36l-.05-3.94c0-.14.04-.26.13-.37.1-.1.21-.16.35-.17l.82-.05c.18-.01.27-.11.26-.3l-.02-2.1c0-.16-.08-.24-.24-.24l-.9.01c-.16 0-.26-.08-.3-.25l-.06-.37c-.04-.24.05-.36.28-.36l1.92-.03c.17 0 .26.1.26.28l.06 4.05c0 .24-.11.36-.34.36l-.75.01c-.22 0-.33.12-.32.35l.03 2c0 .25.11.36.34.36l1.15-.02c.23 0 .35-.12.35-.37l.03-6.78c0-.24.12-.36.35-.37h.4c.2 0 .31.1.3.33-.06 1.5-.01 2.8.14 3.88.06.46.07.98.02 1.57-.04.5-.04 1.01 0 1.54 0 .18.1.28.27.27l1.27-.02c.09 0 .15-.04.18-.13.3-.93.36-1.82.17-2.67-.04-.18-.14-.24-.3-.18-.25.1-.49.14-.72.14-.26 0-.39-.14-.39-.42l-.05-4c0-.1.03-.18.11-.24a.28.28 0 0 1 .26-.06c.51.14 1.13.15 1.85.04.19-.03.28.06.29.26v.7c0 .13-.06.2-.2.19l-.97-.08c-.17-.01-.26.07-.25.26.02.81-.04 1.47-.18 1.98-.08.28.03.41.3.4l.89-.06c.08 0 .13.03.17.1.17.36.25.74.24 1.15l-.06 3.37c0 .18-.1.28-.28.28l-.95.02c-.18 0-.28-.1-.3-.28-.01-.2-.07-.33-.16-.36-.34-.11-.41-.01-.23.31l.1.18c.06.1.03.14-.07.15l-.72.04c-.27.02-.4.16-.4.44l.03 1.86c0 .2.1.3.3.3ZM18.17 17.7l.02 1.74c0 .03 0 .06.02.08l.3.5c.03.04.03.1 0 .15a.14.14 0 0 1-.12.08l-1.49.02c-.1 0-.14.05-.14.16v.64c0 .1.06.15.15.15l2.22-.03c.1 0 .14-.05.14-.16l-.06-4.35c0-.1-.05-.15-.14-.15l-2.14.04c-.1 0-.14.05-.14.15v.7c.01.1.06.15.16.14l1.07-.01c.1 0 .14.05.15.15Zm4.3-.72c-.04 0-.07 0-.1.03v.02c.07.16.1.27.1.33v2.86c0 .1.06.14.16.13l.96-.13c.2-.03.3.06.31.29l.01.51c0 .18-.08.27-.25.27l-1.8.02c-.23 0-.35-.11-.35-.36l-.06-4.12c0-.14.07-.21.2-.21l2.05-.04c.14 0 .2.07.19.22l-.03.49c-.01.14-.09.21-.22.2l-.9-.07c-.13 0-.2-.08-.2-.2v-.15c0-.05-.02-.08-.07-.09Z" fill="#65040A"/></svg>