<!-- by TradingView --><svg width="56" height="56" viewBox="0 0 56 56" xmlns="http://www.w3.org/2000/svg"><path fill="#F0F3FA" d="M0 0h56v56H0z"/><path d="M28 45a17 17 0 0 0 16.74-20H32.62l2.66 3.05c.44.5.55 1.2.27 1.81L34.11 33 23.38 20.82a1.5 1.5 0 0 1-.24-1.63L25.61 14h12.04a17 17 0 0 0-26.38 17h12.11l-2.66-3.05c-.44-.5-.55-1.2-.27-1.81L21.89 23l10.73 12.18c.4.45.5 1.09.24 1.63L30.39 42H18.35c2.74 1.9 6.07 3 9.65 3Zm-12.04-5h14.1c.18 0 .33-.14.33-.32v-.27a.31.31 0 0 0-.08-.2L28.62 37H13.58c.68 1.09 1.48 2.1 2.38 3Zm-3.46-5H27l-2-2H11.75c.2.69.46 1.35.75 2Zm31.75-12H31l-2-2h14.5c.29.65.54 1.31.75 2Zm-1.83-4H27.38l-1.69-2.2a.31.31 0 0 1-.08-.21v-.27c0-.18.15-.32.33-.32h14.1c.9.9 1.7 1.91 2.38 3Z" fill="#182441"/></svg>