<!-- by TradingView --><svg xmlns="http://www.w3.org/2000/svg" width="56" height="56"><path fill="#F0F3FA" d="M0 0h56v56H0z"/><path fill-rule="evenodd" d="M21.39 14.7c-.08-2.23-1.8-2.73-2.64-2.7-2.57 0-3.15 2.39-3.11 3.58.12 4.37 2.39 9.06 3.42 10.56.2.3.62.78 1.04.76.42-.03.53-.34.46-.6-.27-1.02-.52-3.8 0-6.8l.5-2.71c.2-1.09.33-1.76.33-2.1zm17 5.16a2.22 2.22 0 012.28-2.24c2.07 0 2.36 1.7 2.33 2.67-.08 2.74-3 6.05-3.9 7.05l-.07.1c-.2.22-.47.54-.77.52-.34-.02-.43-.27-.37-.48.06-.21.16-.47.29-.76.36-.86.86-2.03.65-3.43l-.2-1.38a12.69 12.69 0 01-.23-2.05zM13 41.33c.03 2.14 2.15 2.67 3.2 2.67 3.36-.36 3.82-2.6 4.56-6.17l.04-.17c.6-2.94 1.92-6.09 2.5-7.3 4.54 2.29 9.5.96 11.42 0 0 1.52-.4 3.42-.7 4.82-.14.7-.26 1.28-.29 1.6-.09 1 .3 2.72 2.85 2.72 2.51 0 2.83-2.57 2.7-3.58-.34-4.35-2.7-13.13-9.73-13.13-8.76 0-16.58 16.13-16.55 18.54zm16.9-15.84a6.08 6.08 0 00-4.85 2.47c4.13 2.5 7.75.8 9.04-.35-.34-.7-1.64-2.09-4.18-2.12z" fill="#0D3F96"/><circle cx="30" cy="18" r="3" fill="#F29110"/></svg>