<!-- by TradingView --><svg width="56" height="56" viewBox="0 0 56 56" xmlns="http://www.w3.org/2000/svg"><path fill="#F0F3FA" d="M0 0h56v56H0z"/><path d="M13 17.83A4.82 4.82 0 0 1 17.8 13h20.4c2.65 0 4.8 2.16 4.8 4.83v20.34A4.82 4.82 0 0 1 38.2 43H17.8a4.82 4.82 0 0 1-4.8-4.83V17.83Z" fill="#9F8276"/><path d="M14 18.24A4.22 4.22 0 0 1 18.2 14h19.6c2.32 0 4.2 1.9 4.2 4.24v19.52A4.22 4.22 0 0 1 37.8 42H18.2c-2.32 0-4.2-1.9-4.2-4.24V18.24Z" fill="#E10006"/><path fill-rule="evenodd" d="M18.87 17v-1h-2v1H16v2h.87v21h2V19H21v21h18V28h-8v2h6v1.5h-6v2h6V35h-6v2h6v1H26v-8h2v7h2V17h-6v21h-1V17h-4.13ZM28 19h-2v9h2v-9Zm3-2h8v9h-8v-9Zm2 2h4v5h-4v-5Zm1 1.5h2v2h-2v-2Z" fill="#F0F3FA"/></svg>