<!-- by TradingView --><svg width="56" height="56" viewBox="0 0 56 56" xmlns="http://www.w3.org/2000/svg"><path fill="#F0F3FA" d="M0 0h56v56H0z"/><path d="M27.5 11a16.5 16.5 0 0 1 15.3 10.31h-4.61a12.17 12.17 0 0 0-10.35-5.69A12 12 0 0 0 15.7 27.5a12 12 0 0 0 13.85 11.76v4.61A16.5 16.5 0 1 1 27.5 11Z" fill="#C79217"/><path d="M27.5 14a13.5 13.5 0 0 1 12 7.31h-2.3A11.49 11.49 0 0 0 16 27.5a11.5 11.5 0 0 0 13.56 11.31v2.03A13.5 13.5 0 1 1 27.5 14Z" fill="#D3A514"/><path d="M27 26h5v18h-5V26Z" fill="url(#a)"/><path d="M33 26h5v18h-5V26Z" fill="url(#b)"/><path fill="url(#c)" d="M39 26h5v18h-5z"/><defs><linearGradient id="a" x1="26.11" y1="26.59" x2="36.43" y2="39.23" gradientUnits="userSpaceOnUse"><stop offset=".44" stop-color="#E5C320"/><stop offset="1" stop-color="#C48D18"/></linearGradient><linearGradient id="b" x1="32.11" y1="26.59" x2="40.68" y2="35.6" gradientUnits="userSpaceOnUse"><stop offset=".44" stop-color="#E5C320"/><stop offset="1" stop-color="#C48D18"/></linearGradient><linearGradient id="c" x1="38.11" y1="26.59" x2="45.21" y2="30.91" gradientUnits="userSpaceOnUse"><stop stop-color="#D5A916"/><stop offset="1" stop-color="#C48D18"/></linearGradient></defs></svg>