<!-- by TradingView --><svg width="56" height="56" viewBox="0 0 56 56" xmlns="http://www.w3.org/2000/svg"><path fill="#F0F3FA" d="M0 0h56v56H0z"/><path fill-rule="evenodd" d="M25.35 16H14l8.3 7.9-4.22 3.99 4.44 4.42L14.65 40h11.1L28 37.76 30.26 40h11.1l-7.88-7.7 4.44-4.41-4.22-4L42 16H30.65L28 18.5 25.35 16Zm1.69 3.41-2.06-1.91H18l5.57 5.2 3.47-3.29Zm-2.53 4.15L28 20.31l3.5 3.25-3.5 3.25-3.5-3.25Zm-1.3 1.2-3.21 3 3.6 3.5 3.18-3.1-3.56-3.4Zm.22 8.45L18 38.5h6.98l1.9-1.85-3.45-3.44ZM28 35.56l-3.5-3.4 3.5-3.4 3.5 3.4-3.5 3.4Zm1.12 1.09 1.9 1.85H38l-5.43-5.3-3.45 3.45Zm3.29-5.39 3.59-3.5-3.22-3-3.56 3.4 3.19 3.1Zm.02-8.57-3.47-3.28 2.06-1.91H38l-5.57 5.2Z" fill="#69C65C"/></svg>