<!-- by TradingView --><svg width="56" height="56" viewBox="0 0 56 56" xmlns="http://www.w3.org/2000/svg"><path fill="#F0F3FA" d="M0 0h56v56H0z"/><path d="M27.98 10 22 15.9v4.67l4.39-4.32v4.12L34 28v-4.92l-4.27-4.26v-2.45l4.27 4.2V15.9L27.98 10ZM28.02 46 34 40.1v-4.67l-4.39 4.32v-4.12L22 28v4.92l4.27 4.26v2.45L22 35.43v4.68L28.02 46Z" fill="#0B4DA2"/><path d="M10 28.02 15.9 34h4.67l-4.32-4.39h4.12L28 22h-4.92l-4.26 4.27h-2.45l4.2-4.27H15.9L10 28.02ZM46 27.98 40.1 22h-4.67l4.32 4.39h-4.12L28 34h4.92l4.26-4.27h2.45L35.43 34h4.68L46 27.98Z" fill="#0B4DA2"/><circle cx="28" cy="28" r="3" fill="#0AA559"/></svg>