<!-- by TradingView --><svg width="56" height="56" viewBox="0 0 56 56" xmlns="http://www.w3.org/2000/svg"><path fill="#F0F3FA" d="M0 0h56v56H0z"/><path fill-rule="evenodd" d="M24.24 31.48a3.25 3.25 0 0 0-2.47.07.24.24 0 0 0-.09.08c-.04.04-.08.1-.18.1h-1.65c-.19 0-.42-.11-.62-.2-.08-.05-.16-.08-.23-.11a.23.23 0 0 0-.17 0c-.86.37-1.53 1.59-2.03 2.48l-.05.1H9.09l.3-1c.06-.15.01-.2-.14-.15-.65.2-1.24.33-1.77.4-1.08.13-2.26-.2-2.94-1.07a2.48 2.48 0 0 1 .6-3.65c.6-.39 1.3-.38 2.12 0 .1.06.19.14.27.26.07.1.1.2.1.34 0 .49-.03.84-.07 1.07-.03.1-.05.17-.08.19-.08.05-.14.03-.17-.06-.13-.44-.31-.68-.54-.71-1.06-.15-1.4.97-.8 1.65.15.16.37.25.67.26.73.05 1.45-.16 2.16-.63.5-.33.84-.8 1-1.44.05-.16 0-.24-.17-.26-1.03-.1-1.54-.59-1.54-1.46 0-.44.07-.85.22-1.22.02-.05.08-.05.11-.01.21.35.54.54.97.58a3.7 3.7 0 0 0 2.78-.88c.18-.15.52-.49 1-1.01a6.14 6.14 0 0 1 3.52-1.85l.98-.17c.07 0 .1-.05.1-.12.02-.63.38-1.04 1.1-1.23.1-.02.15.01.15.11.07 1.51 1.24 2.3 2.66 2.36.75.03 1.24-.35 1.48-1.14a.72.72 0 0 0 0-.36c-.13-.53-.91-.72-1.26-.31-.24.27-.2.58.12.92.04.04.02.1-.04.12-.46.1-.9.07-1.32-.09-.37-.14-.63-.47-.76-.98-.02-.08.05-.13.12-.14.5-.09 1.06-.18.8-.88a.5.5 0 0 0-.4-.3c-.27-.05-.43.15-.6.35v.01a.2.2 0 0 1-.23.06c-.66-.28-1.38-1.12-.85-1.83.43-.58 1.01-.81 1.75-.7a6.53 6.53 0 0 1 1.82.49c.03 0 .06-.01.08-.03 1.27-.85 2.23.03 3.12.86l.18.16c.32.3.57.49.76.58.57.26 1.16.2 1.78-.17.32-.2.5-.3.51-.3.07-.04.11-.02.12.05.2.99-.85 1.55-1.63 1.98l-.17.09c-.6.33-1.02.9-.4 1.48.24.23.48.24.73.05a.32.32 0 0 0 .11-.25v-.95c0-.13.07-.19.2-.17.77.07 1.16.52 1.19 1.35v.03h.05c.55-.34.9-.54 1.06-.62a8 8 0 0 1 5.8-.65c1.26.32 2.6.92 4.04 1.81.33.2.6.31.82.31.5 0 1.15-.7.64-1.22a1.4 1.4 0 0 0-.94-.4c-.06 0-.08-.08-.04-.12.51-.44 1.04-.53 1.6-.3.24.11.42.25.56.42.08.1.2.21.35.32.4.28.42 1.13.3 1.54-.1.32-.3.61-.62.88a3.8 3.8 0 0 1-2.74.9 2.04 2.04 0 0 1-.74-.23l-.37-.15c-.62-.18-1.04.03-1.25.64-.19.51 0 .89.54 1.12.66.29 1.3.24 1.94-.14a71 71 0 0 1 1.78-1.06 2.84 2.84 0 0 1 2.1-.25.32.32 0 0 1 .23.3v.65c0 .08.02.14.07.2.22.26.45.54.67.86.16.22.25.51.27.8 0 .14.05.16.14.03.39-.6.88-1.11 1.46-1.51 1-.7 2.01-.71 3.16-.26 1.96.78 2.62 2.62 2 4.57-.96 3.05-3.27 4.28-6.4 4.28-2.23 0-3.92-1.6-4.88-3.52-.03-.06-.07-.07-.13-.04l-.32.26c-.83.7-1.98.68-2.73.05-.9-.75-1.11-1.9-.21-2.77.06-.07.05-.12-.03-.16a3.1 3.1 0 0 1-1.74-1.67c-.3-.69-.52-1.13-.63-1.33-.34-.6-.82-.86-1.44-.76a.94.94 0 0 0-.77.55c-.28.63-.13 1.5.63 1.73.25.08.74.2 1.49.4.78.2 1.13.72 1.05 1.58-.01.06-.04.1-.1.14A3.12 3.12 0 0 0 34 34h-5.97c-.04-.53.11-1.04.45-1.41a3.21 3.21 0 0 1 2.97-1c.54.08 1.03.36 1.47.85.02.02.06 0 .04-.03-.14-.44-.02-.84.34-1.19.22-.2.18-.27-.1-.22-2.01.39-3.1-1.6-2.97-3.32a.06.06 0 0 0-.1-.06 3.31 3.31 0 0 0-1.53 1.24c-.02.02-.05.02-.08 0a3.03 3.03 0 0 0-1.98-.5c-1.48.21-2.72.3-3.73.26-.1 0-.23.15-.17.25l.07.04c2.19.01 3.56.03 4.1.04 1.38.03 1.86.63 1.45 1.97a.2.2 0 0 1-.16.13c-.35.05-.7.17-1.02.36-.82.45-1.22 1.7-1.28 2.59h-5.42c-.06-.42.02-.83.22-1.1a2.99 2.99 0 0 1 3.36-1.15c.48.13.85.38 1.12.76.06.08.06-.17.05-.23v-.06l-.4-.6a.15.15 0 0 1 .02-.19l.54-.69c.13-.15.1-.2-.1-.16-.3.07-.55.34-.75.82-.04.08-.1.11-.19.08Zm-2.5-4.2v-.32l.05.01c1.3-.02 2.5-.51 3.6-1.47.06-.05.1-.04.16 0 .32.33.66.27 1.1.21l.12-.02c.12-.02.15.02.07.12-.2.25-.38.42-.53.52-.66.44-1.37.77-2.15 1a3.8 3.8 0 0 1-2.43-.04Zm-.45-1.73v-.04c0-.17.2-.22.33-.23h.03c.03-.04.02-.17-.05-.14-1.24.37-2.3.11-3.2-.77a.26.26 0 0 0-.13-.07c-.54-.11-1-.12-1.39-.03a4.4 4.4 0 0 0-3.28 3c-.08.24-.06.6.08 1.06.05.17.33.22.5.25h.02c.47.09.72-.1.74-.58.01-.46-.15-.74-.5-.86a.1.1 0 0 1-.04-.17c.36-.45.8-.46 1.3-.02.1.08.16.06.2-.06.24-1.02.88-1.6 1.93-1.75.46-.06.91.07 1.39.22l.51.14c.04.01.07.03.08.06a.4.4 0 0 1 .04 0h1.44Zm2.05-5.5a3.25 3.25 0 0 0-.34.77c0 .06.02.1.1.1l.8.08a.1.1 0 0 0 .05 0l.04-.04a.07.07 0 0 0 0-.08l-.52-.83c-.04-.06-.09-.07-.13 0ZM13.6 31.97a2.79 2.79 0 0 0-2.5-.54c-.18.05-.33.16-.47.26-.15.1-.3.2-.45.23-.11.03-.13 0-.06-.1a2 2 0 0 1 1.53-.74c.06 0 .11-.04.15-.08.26-.32.42-.67.48-1.05.02-.07.05-.09.12-.05.9.62 1.8.63 2.73.05.09-.06.33-.29.72-.7.05-.05.09-.04.12.02.73 1.37-.6 2.12-1.67 2.49a.22.22 0 0 0-.1.35c.1.11.18.29.25.52v.12a.1.1 0 0 1-.05.04c-.06.02-.1 0-.13-.03l-.27-.42a1.2 1.2 0 0 0-.39-.37h-.01Zm26.22-1.74c0-.09.03-.16.08-.22.48-.56 1.1-.76 1.88-.6 1.02.21 1.68.76 1.97 1.64.04.12.09.12.13 0l.08-.23a.43.43 0 0 0-.03-.36c-.8-1.47-2.28-1.72-3.8-1.26-.19.06-.43.25-.73.59-.37.41-.79.7-1.26.85a.18.18 0 0 0-.13.16c-.3 2.11 2.97 1.04 1.88-.35a.35.35 0 0 1-.07-.22Zm9.28 1.1c-.2.16-.47.25-.8.29a.4.4 0 0 1-.3-.09.47.47 0 0 1-.16-.29c-.21-1.23 1.52-1.74 1.98-.65a2 2 0 0 1 .12 1.25c-.53 2.28-3.04 2.4-4.86 1.93-.08-.02-.1-.07-.08-.16l.63-1.78c.03-.07.06-.07.09 0 .48 1.25 1.35 1.59 2.6 1.03.56-.25 1.02-.79.92-1.48-.02-.1-.06-.11-.14-.05ZM44 33.82a.05.05 0 0 0-.02-.03L41.19 32h-.02a.07.07 0 0 0-.06.01l-.07.07c-.04.05-.05.12-.02.2.03.1.1.2.2.32a5.14 5.14 0 0 0 .89.74l.08.05a5.48 5.48 0 0 0 1.09.52c.16.05.3.08.41.08.11 0 .19-.02.23-.07l.07-.07a.05.05 0 0 0 0-.04Z" fill="#CC994F"/></svg>