<!-- by TradingView --><svg width="56" height="56" viewBox="0 0 56 56" xmlns="http://www.w3.org/2000/svg"><path fill="#F0F3FA" d="M0 0h56v56H0z"/><path d="M17.15 15.48c-2.3-1.38-5.15.38-5.15 3.18v20.36c0 1.1.97 1.98 2 1.98s2-.89 2-1.98V19.87c0-.3.32-.5.57-.35L33 29.72V37H23v-7.27l3.74-2.42L23 25l-3.27 1.98c-.45.27-.73.78-.73 1.33v10.15c0 1.4 1.07 2.54 2.4 2.54h13.2c1.33 0 2.4-1.14 2.4-2.54V28.31c0-.55-.28-1.06-.73-1.33l-19.12-11.5Z" fill="#0087CF"/><path d="m39.43 19.52-6.69 4L29 21.2l9.85-5.72c2.3-1.38 5.15.38 5.15 3.18v20.36c0 1.1-.97 1.98-2 1.98s-2-.89-2-1.98V19.87c0-.3-.32-.5-.57-.35Z" fill="#0087CF"/></svg>