<!-- by TradingView --><svg width="56" height="56" viewBox="0 0 56 56" xmlns="http://www.w3.org/2000/svg"><path fill="#343A40" d="M0 0h56v56H0z"/><path d="M38.17 13.16c.02 0 .02 0 0 .01a20 20 0 0 0-6.2 1.87 18.75 18.75 0 0 0-4.62 3.32c-1.8 1.83-2.2 3.48-1.21 4.95.83 1.25 2.5 1.83 4.99 1.75a20.6 20.6 0 0 0 5.53-1c.02-.01.04 0 .05.01v.05l-10.28 15.8a.15.15 0 0 1-.14.08 25.5 25.5 0 0 1-5.4-.61 11.8 11.8 0 0 1-6.15-3.85 7.32 7.32 0 0 1-1.74-4.4v-1.42a13.6 13.6 0 0 1 3.36-7.93A25.6 25.6 0 0 1 34.48 13h2.13l1.56.16Zm1.12 9.26c.07 0 .09.03.05.09L27.99 39.97a.05.05 0 0 1-.04.02h-.25c-.06 0-.08-.03-.04-.09L39 22.45a.05.05 0 0 1 .04-.03h.24Zm1.96-1.17c.02 0 .04.01.05.03.01.03.01.05 0 .07l-3.65 5.61a.06.06 0 0 0 0 .07c0 .02.03.03.05.03 1.14.01 2.1.29 2.87.83A3.24 3.24 0 0 1 42 30.47c.05.76-.08 1.53-.39 2.3-.28.71-.7 1.37-1.24 1.98a15.6 15.6 0 0 1-5.2 3.9c-2.06.95-4.16 1.4-6.31 1.32-.06 0-.07-.03-.04-.08l12.06-18.55a.18.18 0 0 1 .16-.09h.22Z" fill="#fff"/></svg>