<!-- by TradingView --><svg width="56" height="56" viewBox="0 0 56 56" xmlns="http://www.w3.org/2000/svg"><path fill="#F0F3FA" d="M0 0h56v56H0z"/><path fill-rule="evenodd" d="M28 45a17 17 0 1 0 0-34 17 17 0 0 0 0 34Zm0-2a15 15 0 1 0 0-30 15 15 0 0 0 0 30Z" fill="#C50924"/><path d="M20.48 25c1 0 1.43.43 1.52.65-1.32.52-3.45 2.12-4.34 2.86.36-.11 1.17-.26 1.44 0 .35.32-.41 1.49-1.44 1.49-1.04 0-1.66-.52-1.66-1.5 0-.97 3.24-3.5 4.48-3.5ZM35.52 25c-1 0-1.43.43-1.52.65 1.32.52 3.45 2.12 4.34 2.86-.36-.11-1.17-.26-1.44 0-.35.32.41 1.49 1.44 1.49 1.04 0 1.66-.52 1.66-1.5 0-.97-3.24-3.5-4.48-3.5Z" fill="#C50924"/><path d="M23.94 33.99c-.45-1.08-.86-2.5-1-3.09-1 1.21-2 3.29-2.19 3.29-.19 0-.38-.34-.38-.74.7-3.55 4.63-7.38 4.63-7.85 0-.47-.19-.6-.5-.6-4.13.8-5.5 6.3-5.5 7.98 0 1.68.56 3.02 1.94 3.02 1.1 0 2.46-1.34 3-2.01ZM32.06 33.99c.45-1.08.86-2.5 1-3.09 1 1.21 2 3.29 2.19 3.29.19 0 .38-.34.38-.74-.7-3.55-4.63-7.38-4.63-7.85 0-.47.19-.6.5-.6 4.13.8 5.5 6.3 5.5 7.98 0 1.68-.56 3.02-1.94 3.02-1.1 0-2.46-1.34-3-2.01Z" fill="#C50924"/><path d="M27.76 40V25c-1.88 0-3.4 1.8-4.33 3.44a3.76 3.76 0 0 0-.07 3.36c.63 1.47 1.47 3.4 2.23 4.99 1.12 2.36 1.9 3.12 2.17 3.21ZM28.24 40V25c1.88 0 3.4 1.8 4.33 3.44.59 1.04.54 2.27.07 3.36-.63 1.47-1.47 3.4-2.23 4.99-1.12 2.36-1.9 3.12-2.17 3.21Z" fill="#C50924"/><path fill-rule="evenodd" d="m18.95 21.54-1.25-.47.11 1.38-.81 1.1 1.3.3.74 1.15.69-1.18 1.27-.4-.87-1.04.04-1.38-1.22.54Zm.21 2.22c.35 0 .63-.29.63-.65a.64.64 0 0 0-.63-.65c-.34 0-.62.29-.62.65 0 .36.28.65.62.65ZM37.05 21.54l1.25-.47-.11 1.38.81 1.1-1.3.3-.74 1.15-.69-1.18-1.27-.4.87-1.04-.04-1.38 1.22.54Zm-.21 2.22a.64.64 0 0 1-.63-.65c0-.36.28-.65.63-.65.34 0 .62.29.62.65 0 .36-.28.65-.62.65ZM24.6 17.59 22.87 16l-.76 2.2-2.1 1.13 1.92 1.39.46 2.28 1.95-1.35 2.37.29-.72-2.22L27 17.6l-2.4-.02Zm-1 3.33a1 1 0 1 0 .8-1.84 1 1 0 0 0-.8 1.84ZM31.4 17.59 33.13 16l.76 2.2 2.1 1.13-1.92 1.39-.46 2.28-1.95-1.35-2.37.29.72-2.22L29 17.6l2.4-.02Zm1 3.33a1 1 0 1 1-.8-1.84 1 1 0 0 1 .8 1.84Z" fill="#C50924"/></svg>