<!-- by TradingView --><svg width="56" height="56" viewBox="0 0 56 56" xmlns="http://www.w3.org/2000/svg"><path fill="#F0F3FA" d="M0 0h56v56H0z"/><path fill-rule="evenodd" d="M25.07 15.51a4.56 4.56 0 0 0-1.43-.21c-1.7 0-3.64 1.33-3.64 3.03 0 2 1.78 2.96 2.68 3.2a3.74 3.74 0 0 0-1.03 2.28c0 1.91 1.6 3.19 3.02 3.19 1.56 0 2.85-.99 3.33-1.51A4.89 4.89 0 0 0 31.33 27a3.17 3.17 0 0 0 3.02-3.2c0-.97-.68-1.92-1.03-2.28.9-.23 2.68-1.19 2.68-3.19 0-1.7-1.94-3.03-3.64-3.03-.69 0-1.24.14-1.43.21-.02-1.65-1.02-3.53-2.93-3.51-1.91-.02-2.9 1.86-2.93 3.51ZM28 21.26c.17 0 .31.13.31.3v3.2c0 .38.86 1.18 2.45 1.18 1.6 0 2.73-1.23 2.73-2.5 0-1.03-.64-1.56-.96-1.7l-3.16-1.02c-.17-.06-.27-.24-.2-.4a.34.34 0 0 1 .42-.18c.96.32 2.6.86 3.34 1 1.02 0 1.82-1.05 1.82-2.12a2.93 2.93 0 0 0-2.62-3.08c-.46 0-.84.1-.97.16l-2.13 2.89a.26.26 0 0 1-.35.05.22.22 0 0 1-.07-.31l1.87-2.8v-.31c0-1.27-1.17-2.23-2.48-2.23s-2.48.96-2.48 2.23v.32l1.87 2.79c.07.1.04.24-.07.31a.26.26 0 0 1-.35-.05l-2.13-2.9a2.91 2.91 0 0 0-.97-.15c-.57 0-2.62.63-2.62 3.08 0 1.07.8 2.13 1.82 2.13.74-.15 2.38-.69 3.34-1.01.17-.06.36.02.42.18.07.16-.03.34-.2.4l-3.16 1.01c-.32.15-.96.68-.96 1.7 0 1.28 1.13 2.5 2.73 2.5s2.45-.8 2.45-1.16v-3.2c0-.18.14-.31.31-.31ZM32.54 31.4c-.19.01-.72.09-1.32.34-1.49.62-2.68 2.52-2.04 4.04.74 1.78 2.66 1.99 3.53 1.87-.17.44-.4 1.54-.04 2.42.71 1.7 2.58 2.26 3.83 1.74a4.59 4.59 0 0 0 2.34-2.57c.61.3 2.1.7 3.47.14 1.24-.53 2.15-2.25 1.44-3.96A3.66 3.66 0 0 0 42 33.75c.69-.53 1.89-2.04 1.14-3.82-.64-1.52-2.83-2-4.32-1.38-.6.25-1.02.58-1.16.71-.64-1.46-2.21-2.77-3.87-2.06-1.68.69-1.84 2.72-1.25 4.2Zm4.71 4.06a.3.3 0 0 1 .39.16l1.2 2.86c.14.34 1.18.74 2.57.15a2.52 2.52 0 0 0 1.45-3.23c-.38-.91-1.14-1.16-1.48-1.16l-3.13.24a.3.3 0 0 1-.33-.28c0-.16.13-.3.3-.32.96-.06 2.6-.18 3.29-.31.9-.38 1.2-1.62.8-2.57a2.8 2.8 0 0 0-3.45-1.8c-.4.17-.69.4-.78.5l-.78 3.36a.24.24 0 0 1-.29.18.22.22 0 0 1-.17-.25l.58-3.18-.12-.29c-.47-1.12-1.85-1.56-3-1.08-1.14.48-1.8 1.77-1.32 2.9l.12.28 2.67 1.81c.1.07.13.2.06.3a.24.24 0 0 1-.32.08l-2.95-1.8c-.13 0-.5.05-.9.22a2.8 2.8 0 0 0-1.13 3.7c.4.96 1.49 1.62 2.38 1.24.59-.4 1.82-1.48 2.53-2.12a.32.32 0 0 1 .44 0 .3.3 0 0 1-.02.44l-2.38 2.06c-.23.24-.59.96-.2 1.87a2.52 2.52 0 0 0 3.31 1.23c1.4-.58 1.84-1.6 1.7-1.94l-1.2-2.86a.3.3 0 0 1 .16-.39ZM23.46 31.4c.19.01.72.09 1.32.34 1.49.62 2.68 2.52 2.04 4.04-.74 1.78-2.66 1.99-3.53 1.87.17.44.4 1.54.04 2.42-.71 1.7-2.58 2.26-3.83 1.74a4.59 4.59 0 0 1-2.34-2.57c-.61.3-2.1.7-3.47.14-1.24-.53-2.15-2.25-1.44-3.96A3.66 3.66 0 0 1 14 33.75c-.69-.53-1.89-2.04-1.14-3.82.64-1.52 2.83-2 4.32-1.38.6.25 1.02.58 1.16.71.64-1.46 2.21-2.77 3.87-2.06 1.68.69 1.84 2.72 1.25 4.2Zm-4.71 4.06a.3.3 0 0 0-.39.16l-1.2 2.86c-.14.34-1.18.74-2.57.15a2.52 2.52 0 0 1-1.45-3.23c.38-.91 1.14-1.16 1.48-1.16l3.13.24a.3.3 0 0 0 .33-.28c0-.16-.13-.3-.3-.32-.96-.06-2.6-.18-3.29-.31-.9-.38-1.2-1.62-.8-2.57a2.8 2.8 0 0 1 3.45-1.8c.4.17.69.4.78.5l.78 3.36c.03.13.16.2.29.18.12-.02.2-.14.17-.25l-.58-3.18.12-.29c.47-1.12 1.85-1.56 3-1.08 1.14.48 1.8 1.77 1.32 2.9l-.12.28-2.67 1.81c-.1.07-.13.2-.06.3.07.12.21.15.32.08l2.95-1.8c.13 0 .5.05.9.22a2.8 2.8 0 0 1 1.13 3.7c-.4.96-1.49 1.62-2.38 1.24-.59-.4-1.82-1.48-2.53-2.12a.32.32 0 0 0-.44 0 .3.3 0 0 0 .02.44l2.38 2.06c.23.24.59.96.2 1.87a2.52 2.52 0 0 1-3.31 1.23c-1.4-.58-1.84-1.6-1.7-1.94l1.2-2.86a.3.3 0 0 0-.16-.39Z" fill="#72B2CE"/></svg>