<!-- by TradingView --><svg width="56" height="56" viewBox="0 0 56 56" xmlns="http://www.w3.org/2000/svg"><path fill="#F0F3FA" d="M0 0h56v56H0z"/><path fill-rule="evenodd" d="M13.86 12c-1.03 0-1.86.86-1.86 1.91V42.1c0 1.05.83 1.91 1.86 1.91h28.28c1.03 0 1.86-.86 1.86-1.91V13.9c0-1.05-.83-1.91-1.86-1.91H13.86Zm20.85 4h-3.58c-.58 0-1.15-.14-1.13-.82v-.83c0-.2-.11-.32-.31-.35h-.3c-.39 0-.4.28-.39.5v1.38c.02.54.76 1.06 1.21 1.12h4.55c.06 0 .12.02.17.07.04.04.07.1.07.16v.53c0 .16-.08.24-.25.24h-5.39c-.18 0-.36.14-.36.33v.33c0 .2.1.34.32.34h5.51c.05 0 .1.02.14.05.03.04.05.09.05.14v.63c0 .12-.06.18-.18.18h-4.42c-.66.06-1.4 1.06-1.42 1.77v3.94c0 .2.13.3.34.29h.34a.34.34 0 0 0 .32-.34v-3.28c0-.83.47-1.37 1.39-1.38 3.47-.03 6.5-.03 8.96 0 .43 0 .65.34.65.75v.32c0 .38-.27.92-.68.93-1.89.03-3.7.04-5.44.03-.75-.01-2.5.04-2.78.88-.07.2-.1.33-.1.49 0 .16.04.34.11.62.25.89 1.49.98 2.27.98h7.24c.25 0 .38-.12.38-.36v-.3c0-.23-.12-.34-.35-.34h-7.98c-.48 0-.64 0-.67-.4-.05-.4.12-.59.52-.6h6.02c1.13.02 2.46-.72 2.46-2.06 0-.77-.35-1.84-1.24-1.94h-4.63c-.09 0-.13-.03-.13-.12v-.77c0-.07.04-.11.11-.11h5.51c.1 0 .2-.04.27-.1a.35.35 0 0 0 .11-.26v-.29c0-.23-.12-.35-.37-.35H36.1c-.07 0-.1-.03-.1-.1v-.78c0-.03.01-.06.04-.08a.13.13 0 0 1 .09-.04H39.65a4.12 4.12 0 0 0 1.64-.29c.74-.36.72-1.46.71-2.25v-.25c-.01-.14-.13-.21-.27-.21h-.5c-.15 0-.23.07-.23.22v.14c0 .47 0 1.07-.17 1.35-.18.29-.85.29-1.39.29H36.1c-.05 0-.1-.06-.1-.1v-1.52c0-.1-.05-.16-.14-.2-.33-.1-.68-.07-.86.11v1.44c0 .18-.12.27-.3.27ZM17 18.94v3.99c0 .28.18.39.47.3l.06-.01c.28-.09.47-.27.47-.55v-2.7c0-.27.09-.4.37-.4h.18c.26 0 .45.12.45.37v2.75c-.15.9-.85 1.4-1.84 1.53-.1.01-.16.07-.16.18v1.13c0 .32-.13.48-.46.47h-.07c-.3 0-.47-.29-.47-.56V24.4c0-.09-.04-.13-.13-.14-1.12-.04-1.76-.62-1.87-1.73v-2.5c0-.25.16-.39.43-.39h.21c.27 0 .36.14.36.4v2.52c0 .31.2.52.49.64l.09.04c.28.1.42.02.42-.27v-4.08a.1.1 0 0 0-.03-.07.1.1 0 0 0-.07-.03c-1.14-.06-1.77-.64-1.87-1.75a34.4 34.4 0 0 1-.02-2.68c0-.24.13-.36.38-.36h.22c.26 0 .39.13.39.38v2.78c0 .3.2.5.5.58l.1.03c.29.08.42-.02.4-.3v-2.12c.08-.8.6-1.27 1.41-1.35h1.29c.2.01.3.14.3.33v.24c0 .21-.1.43-.33.43h-1.1a.38.38 0 0 0-.22.07.36.36 0 0 0-.14.17c-.21.6-.21 1.22-.21 2.13v.09c0 .28.2.39.49.32h.02c.29-.07.49-.26.49-.57v-1.39c.01-.21.06-.32.28-.32h.34c.21 0 .38.1.38.31v.08c.01.93.02 1.66-.28 2.17-.28.45-.84.7-1.58.74-.1 0-.14.05-.14.14ZM24.55 22 23 22h-1.55c-.3 0-.45.15-.45.45v-1.3c0-.13.26-.25.37-.29.73-.22 1.12-.74 1.15-1.56.04-1.04.05-2.33.03-3.88 0-.15.07-.22.2-.22h.39c.14 0 .2.07.2.22-.01 1.8 0 2.97.03 3.48.05.9.35 1.95 1.41 2.08.06 0 .12.04.16.08.04.05.06.12.06.18v4.38c0 .28.32.4.57.38l.05-.01c.25-.02.38-.18.38-.46 0-5.46 0-8.5-.03-9.11a3.87 3.87 0 0 0-.16-1.2 1.34 1.34 0 0 0-1.19-.84l-1.06-.09a.28.28 0 0 1-.17-.07c-.32-.3-.65-.3-1 0a.31.31 0 0 1-.17.07l-.37.03c-.5.04-.95.08-1.32.38-.5.38-.53 1.61-.53 2.3v8.71c0 .2.09.29.26.29h.47c.18 0 .27-.1.27-.3v-.15c0 .1.01.2.03.29 0 .04.04.08.08.11s.1.05.16.05a313.06 313.06 0 0 0 3.46 0 .3.3 0 0 0 .16-.05.18.18 0 0 0 .08-.11c.05-.26.04-.54-.06-.74a.18.18 0 0 0-.16-.1h-1.22a.1.1 0 0 1-.1-.1v-1.8a.1.1 0 0 1 .1-.1h1.03c.3 0 .44-.15.44-.45v-.1c0-.3-.15-.45-.45-.44ZM21 25.54c0-.16.03-.31.09-.44a.18.18 0 0 1 .16-.1h1.22a.1.1 0 0 0 .1-.1v-1.8a.1.1 0 0 0-.1-.1h-1.03c-.29 0-.44-.15-.44-.44v2.98Zm0 5.3v2.77c0 .24-.13.37-.4.38h-.2c-.27.02-.4-.09-.4-.33v-4.25c0-.27.15-.41.46-.41h.15c.28 0 .4.12.36.37-.05.28.03.42.23.42h3.77c.42 0 .8.04 1.13.1.37.08.63.3.78.64.08.16.12.33.12.5 0 .28-.1.57-.3.88-.08.13-.2.22-.33.23l-2.91.16c-.25.01-.42.1-.46.33 0 .2.15.37.35.37h3.31c.23 0 .34.2.34.4v.28c0 .2-.12.32-.36.32H23.7c-.83-.02-1.71-.4-1.7-1.37 0-.9 1.02-1.22 1.76-1.21.75.01 1.33 0 1.97-.06.26-.02.27-.36.27-.36a.25.25 0 0 0-.1-.16.3.3 0 0 0-.19-.07h-4.63c-.02 0-.04 0-.06.02a.07.07 0 0 0-.02.05Zm13.92-.76a9.83 9.83 0 0 0-2.6-1.06c-.46-.05-.9 0-1.34.16-.56.2-1.1.41-1.63.62-.27.11-.39.31-.34.6l.03.19c.05.3.22.4.5.28 1.3-.55 1.98-.83 2.03-.84.3-.08.62-.04.98.12l1.74.8c.2.1.37.05.48-.15l.19-.32a.34.34 0 0 0-.04-.4ZM32.62 40h1.68c.39.02.67.24.7.53v.06c-.04.27-.26.41-.57.41h-5.1c-.22 0-.33-.1-.33-.29v-.37c0-.04 0-.07.02-.1.06-.12.15-.24.27-.24h.27c-.1 0-.22-.02-.36-.07l-.01-.02c-.22-.3-.25-.56-.1-.77.34-.48.54-.77.61-.9.35-.57.13-.89-.18-1.34l-.1-.15a.35.35 0 0 1-.05-.27c.03-.1.09-.17.17-.22l.3-.19c.2-.11.37-.09.52.07.74.78.84 1.62.3 2.53l-.7 1.12a.46.46 0 0 1-.4.21h1.91c.06 0 .11 0 .11-.04v-3.82c0-.1-.05-.15-.17-.15-.6.01-1.13-.09-1.6-.3-.35-.16-.56-.4-.65-.7-.1-.4-.17-.8-.16-1.16 0-.83.52-1.72 1.95-1.83h3.6c.29 0 .45.15.45.4v.25c0 .23-.13.35-.4.35l-4 .01c-.27 0-.44.05-.5.26l-.02.05c-.08.2 0 .29.24.29h4.3c.26 0 .38.1.38.32v.29c0 .22-.13.33-.38.33h-4.27c-.27 0-.36 0-.27.22l.03.08c.1.23.28.35.57.35h3.86c.25 0 .38.1.38.33v.12c0 .23-.13.35-.4.35h-1.83a.19.19 0 0 0-.12.04.14.14 0 0 0-.05.11v3.72c0 .08.01.13.1.13Zm3.38-.86V40h1.4c.05.01.08.05.08.11v.67c0 .15.07.23.21.23h.45c.13 0 .2-.07.2-.22v-.7c0-.05.03-.08.07-.08h1.32c.18 0 .27-.1.27-.29v-.4c0-.2-.1-.31-.29-.31h-1.23c-.1 0-.15-.05-.15-.16v-.07c0-.12.05-.17.15-.17h1.2l.12.01c.15.01.21.02.2-.2v-.03c-.02-.25-.15-.38-.39-.38l-1.14.01a.14.14 0 0 1-.1-.04c-.03-.03-.05-.3-.05-.34 0-.12.02-.28.17-.29 1.29-.06 1.32-1.16 1.35-2.16V34.97c.01-.3-.12-.45-.4-.45h-.04c-.27 0-.4.14-.4.43v1.2c0 .17-.1.31-.26.39-.16.08-.4.03-.4-.16v-1.95c0-.29-.14-.43-.4-.43h-.08c-.25 0-.37.14-.37.4v1.95c0 .17-.08.24-.23.2a.3.3 0 0 1-.15-.07c-.1-.1-.11-.22-.11-.36v-1.15c0-.28-.16-.42-.4-.42h-.04c-.26 0-.39.15-.39.42v.2c-.02 1.05-.03 2.19 1.13 2.17.14 0 .21.07.2.22v.04c0 .15-.06.4-.19.4h-1.08c-.15 0-.23.09-.23.26v.15c0 .12.06.19.17.19h1.16c.1 0 .17.06.17.18v.05c.01.11-.04.17-.14.17h-1.22c-.09 0-.13.05-.14.14Zm-10 .75c0-.05-.04-.1-.1-.08l-.5.07c-.14.01-.27.02-.42.05-.3.05-.65.07-1.07.07h-3.34c-.37 0-.56-.14-.57-.52a.5.5 0 0 1 0-.03c-.02-.37.16-.45.52-.45h5.03c.17 0 .32-.29.34-.46l.01-.08c.02-.2-.12-.46-.33-.46h-5.15c-.27 0-.4-.14-.4-.43v-.13c0-.29.13-.44.4-.44h1.04a663.22 663.22 0 0 0 2.55 0c.66 0 1.2 0 1.77.12.15.03.22-.03.22-.18v-.27a.51.51 0 0 0-.37-.49 5.03 5.03 0 0 0-1.28-.18H20.29c-.2 0-.29-.08-.29-.29v-.37c0-.19.1-.34.27-.34H24.2c.7 0 1.34.07 1.91.24.3.09.45.2.57.53a4.62 4.62 0 0 1 .3 2.12c-.06.44-.05.83 0 1.17.02.1.02.2.02.31 0 .23-.04.49-.09.78l-.1.71c0 .1-.05.14-.14.14h-.54c-.09 0-.13-.05-.13-.14v-.97Zm8.84 0c.2-.3.21-.57.06-.77-.34-.47-.55-.76-.62-.88-.36-.56-.16-.9.12-1.35l.09-.16a.36.36 0 0 0-.13-.5l-.3-.17c-.2-.1-.36-.07-.5.1-.68.8-.74 1.65-.19 2.54.35.55.58.92.71 1.1.16.22.4.26.74.11l.02-.01ZM21.99 19.32l.01-3.99a.3.3 0 0 0-.07-.19.35.35 0 0 0-.17-.11.38.38 0 0 0-.22 0 .35.35 0 0 0-.17.12l-.3.37a.3.3 0 0 0-.06.19L21 19.68c0 .06.02.13.07.19.04.05.1.1.17.11.07.03.15.03.22 0a.35.35 0 0 0 .17-.11l.3-.37a.3.3 0 0 0 .06-.2ZM24.55 15h-.1c-.25 0-.45.2-.45.47v4.06c0 .26.2.47.45.47h.1c.25 0 .45-.2.45-.47v-4.06c0-.26-.2-.47-.45-.47ZM18 36.23c0-.15-.08-.23-.25-.23h-2.61a.15.15 0 0 0-.1.04.12.12 0 0 0-.04.09v4.47c0 .27-.15.4-.44.4h-.13c-.29 0-.43-.13-.43-.4V32.1c.01-1.03.1-1.7.24-2.03.33-.7 1.1-1.05 2.29-1.06 1.65-.01 2.47.73 2.47 2.22l-.01 5.58c0 .63-.03 1.38-.53 1.78a.34.34 0 0 1-.22.07h-.92a.34.34 0 0 0-.23.09.28.28 0 0 0-.09.2v.76c0 .17.16.3.34.3h1.3c.22 0 .36.03.36.23v.43c0 .2-.14.3-.37.3l-.36.02c-.51.01-1.12.04-1.43-.17-.7-.34-.84-.81-.84-1.53v-.95c.1-.42.74-.48 1.3-.53l.32-.03c.1-.01.2-.06.27-.13.07-.08.11-.17.11-.27v-1.14ZM15.1 32a.1.1 0 0 1-.07-.02.08.08 0 0 1-.02-.06L15 30.83c0-.41.3-.83.74-.83h1.5c.44 0 .75.4.76.82v1.1l-.03.06a.1.1 0 0 1-.06.02H15.1Zm.03 1h2.73c.07 0 .14.05.14.11v1.77c0 .06-.06.12-.13.12h-2.73c-.07 0-.14-.05-.14-.11v-1.77c0-.06.06-.12.13-.12ZM38 31.85c0-.17-.08-.25-.24-.24h-.43a.35.35 0 0 0-.23.11.37.37 0 0 0-.1.25V33c0 .3-.14.45-.42.47h-.09c-.28.02-.46-.12-.49-.4 0-1.35.15-2.1.83-2.33.3-.1.5-.16.99-.17.05 0 .1-.02.13-.05a.2.2 0 0 0 .05-.14v-.18c0-.1-.05-.2-.16-.2h-1.49c-.23 0-.35-.08-.35-.32v-.3c0-.24.11-.38.34-.38h4c.2.02.47.18.8.39l.1.05c.27.17.4.4.4.73 0 .34-.1.65-.3.9-.2.28-.55.43-1.05.48-.45.04-.92.05-1.4.03-.07 0-.1.03-.1.1l.02.24c0 .12.07.19.18.2.4.03.82.04 1.28.03 1.16-.02 1.72 1.07 1.73 2.07v6.48c0 .18-.09.27-.25.28l-.36.02c-.18.01-.36-.08-.39-.26V34.54c0-.98-.72-1.4-1.5-1.4-.82-.03-1.52-.28-1.5-1.29Zm1-1.68c0-.08.03-.16.08-.16h.95c.29-.02.62-.03.89.17.05.05.08.09.08.13v.31c0 .1-.11.18-.31.25s-.47.11-.75.12l-.86.01c-.02 0-.04-.02-.06-.04a.23.23 0 0 1-.02-.1v-.69Z" fill="#FE0000"/></svg>