<!-- by TradingView --><svg width="56" height="56" viewBox="0 0 56 56" xmlns="http://www.w3.org/2000/svg"><path fill="#F0F3FA" d="M0 0h56v56H0z"/><path fill="#325678" d="M27.87 10h.58v13.35h-.58zM27.87 32.65h.58V46h-.58zM31.54 10.31l.57.12L29.4 23.5l-.57-.12zM26.93 32.5l.57.1-2.72 13.09-.56-.12zM24.79 10.31l-.57.12 2.72 13.08.57-.12zM29.4 32.5l-.57.1 2.72 13.09.57-.12zM21.07 11.43l-.53.24L26 23.87l.53-.23zM30.33 32.13l-.53.23 5.47 12.2.53-.23zM35.26 11.43l.53.24-5.46 12.2-.53-.23zM26 32.13l.53.23-5.47 12.2-.53-.23zM38.5 13.21l.48.34-7.85 10.85-.47-.34zM25.2 31.6l.47.34-7.85 10.85-.47-.34zM17.82 13.21l-.47.34L25.2 24.4l.47-.34zM31.13 31.6l-.47.34 7.85 10.85.48-.34zM14.93 15.7l-.4.42 9.97 8.97.4-.42zM31.83 30.9l-.4.43 9.98 8.97.39-.43zM41.4 15.7l.4.42-9.97 8.97-.4-.42zM24.5 30.9l.4.43-9.98 8.97-.39-.43zM12.63 18.72l-.3.5 11.64 6.7.3-.5zM32.36 30.08l-.3.5 11.65 6.7.3-.5zM11 22.18l-.18.55 12.8 4.11.18-.55zM23.62 29.15l.18.56L11 33.8l-.17-.54zM43.68 18.68l.3.5-11.63 6.73-.3-.5zM23.98 30.1l.3.5-11.63 6.72-.3-.5zM23.49 28.3l.07.57-13.34 1.68-.08-.58zM10.21 25.45l-.07.57 13.34 1.68.08-.57z"/><path fill="#60A1BF" d="M10 27.68h7.93v.58H10zM10.51 23.87l7.76 1.64-.13.57-7.75-1.64.12-.57ZM10.6 32.15l7.75-1.65-.13-.56-7.75 1.64.12.57ZM11.82 35.63l7.24-3.2-.24-.53-7.24 3.2.24.53ZM11.88 20.45l7.24 3.2-.23.53-7.25-3.2.24-.53ZM13.66 17.08l6.44 4.6-.34.46-6.44-4.59.34-.47ZM42.63 17.16l-6.44 4.6.34.46 6.44-4.59-.34-.47ZM42.44 38.87 36 34.27l.34-.46 6.44 4.59-.34.47ZM13.66 38.74l6.44-4.6-.34-.46-6.44 4.59.34.47ZM16.26 14.52l5.35 5.8-.43.4-5.36-5.81.44-.4ZM19.32 12.35l4.03 6.78-.5.3-4.04-6.79.5-.3ZM39.99 14.58l-5.36 5.8.43.4 5.36-5.8-.43-.4ZM16.26 41.62l5.35-5.8-.43-.4-5.36 5.81.44.4ZM39.9 41.37l-5.35-5.8.43-.4 5.36 5.8-.44.4ZM36.78 12.35l-4.03 6.78.5.3 4.03-6.79-.5-.3ZM22.77 10.77l2.55 7.46-.55.18-2.55-7.45.55-.19ZM26.43 10l1.01 7.8-.58.08-1.01-7.8.58-.08ZM26.43 45.75l1.01-7.8-.58-.08-1.01 7.8.58.08ZM33.43 10.71l-2.55 7.45.55.19 2.55-7.45-.55-.19ZM29.86 10l-1.01 7.8.58.08 1.01-7.8-.58-.08ZM36.78 43.6l-4.03-6.78.5-.3 4.03 6.79-.5.3ZM19.32 43.72l4.03-6.78-.5-.3-4.04 6.79.5.3ZM22.8 45.1l2.55-7.46-.55-.18-2.55 7.45.55.19ZM33.49 45.18l-2.55-7.46.56-.18 2.54 7.45-.55.19ZM29.86 45.81l-1.01-7.8.58-.08 1.01 7.8-.58.08Z"/></svg>