<!-- by TradingView --><svg width="56" height="56" viewBox="0 0 56 56" xmlns="http://www.w3.org/2000/svg"><path fill="#F0F3FA" d="M0 0h56v56H0z"/><path d="M49.7 31.27a1.77 1.77 0 0 0-.57-.85c-.13-.1-.29-.18-.46-.23a1.89 1.89 0 0 0-1.53.2c-.28.18-.5.45-.67.8-.16.36-.24.8-.24 1.3 0 .52.08.95.24 1.31.16.36.39.63.67.82.29.18.62.27 1 .27.34 0 .64-.06.89-.2.25-.13.45-.32.58-.56.14-.25.2-.54.2-.87l.29.05h-1.84v-.97H51v.82c0 .58-.12 1.09-.37 1.51-.24.43-.58.76-1.01.99-.43.23-.93.34-1.49.34-.62 0-1.17-.14-1.64-.42a2.92 2.92 0 0 1-1.1-1.21 4.12 4.12 0 0 1-.39-1.86c0-.55.08-1.04.23-1.48.16-.43.38-.8.65-1.1.28-.3.61-.53.99-.7.37-.15.78-.23 1.23-.23.37 0 .72.06 1.04.17a2.77 2.77 0 0 1 1.49 1.18c.16.28.27.58.32.92H49.7ZM44 29v7h-1.18l-3.44-4.77h-.06V36H38v-7h1.18l3.44 4.77h.06V29H44ZM37 29v7h-1.3v-7H37ZM29.69 36v-7h2.53c.52 0 .95.1 1.3.28.36.19.63.45.8.79.2.33.28.72.28 1.17 0 .45-.09.84-.27 1.17-.19.33-.46.58-.81.76-.36.18-.8.27-1.32.27h-1.8v-1.06h1.64c.3 0 .55-.04.74-.13a.9.9 0 0 0 .43-.38c.1-.17.15-.38.15-.63s-.05-.46-.15-.64a.92.92 0 0 0-.43-.4c-.2-.1-.44-.14-.75-.14H31V36h-1.31Zm3.49-3.17L34.85 36h-1.37l-1.64-3.17h1.34ZM24 36v-7h4.4v1.06h-3.18v1.9h2.95v1.07h-2.95v1.9h3.2V36H24ZM17.6 30v-1H23v1h-2v6h-1.3v-6h-2.1ZM11 31.4H9.76a1.55 1.55 0 0 0-.56-.96c-.14-.1-.3-.19-.48-.25a1.9 1.9 0 0 0-1.57.2c-.28.18-.5.45-.67.8-.16.36-.24.8-.24 1.31 0 .52.08.96.24 1.32.17.35.39.62.67.8a1.98 1.98 0 0 0 1.55.19 1.57 1.57 0 0 0 .85-.63c.1-.16.17-.34.2-.54l1.25.01a2.68 2.68 0 0 1-1.78 2.17c-.33.12-.7.18-1.1.18a2.9 2.9 0 0 1-2.71-1.62A4.06 4.06 0 0 1 5 32.5c0-.73.14-1.36.4-1.88A2.92 2.92 0 0 1 8.13 29c.38 0 .73.05 1.06.16.32.1.61.26.87.47a2.8 2.8 0 0 1 .95 1.76ZM12.87 36h-1.31l2.38-7h1.51l2.38 7h-1.3l-1.81-5.56h-.05L12.87 36Zm.04-2.74h3.56v1.01h-3.56v-1.01ZM11.24 22.22h.08L14 19h1.51l-2.64 3.14L15.52 26h-1.48L12 23l-.76.91V26H10v-7h1.24v3.22ZM18 26h-1.3v-7H18v7Zm5.62-2.23h.06V19H25v7h-1.18l-3.44-4.77h-.06V26H19v-7h1.18l3.44 4.77ZM29.09 19c.38 0 .73.06 1.05.17a2.77 2.77 0 0 1 1.48 1.18c.17.28.27.58.32.92H30.7a1.77 1.77 0 0 0-.57-.85c-.14-.1-.29-.18-.46-.23a1.88 1.88 0 0 0-1.53.2c-.28.18-.5.45-.67.8-.16.36-.24.8-.24 1.3 0 .52.08.95.24 1.31.16.36.38.63.67.82.29.18.62.27 1 .27.34 0 .64-.06.89-.2.25-.13.45-.32.58-.56.13-.24.2-.51.2-.82h-1.55v-.97H32v.82c0 .58-.12 1.09-.37 1.51-.25.43-.58.76-1.02.99-.43.23-.92.34-1.48.34-.62 0-1.17-.14-1.64-.42a2.91 2.91 0 0 1-1.1-1.21 4.12 4.12 0 0 1-.39-1.86c0-.55.08-1.04.23-1.48.16-.43.37-.8.65-1.1.28-.3.61-.53.99-.7a3.1 3.1 0 0 1 1.22-.23Zm9.16 0c.62 0 1.17.14 1.66.42.5.27.88.67 1.16 1.2.29.52.43 1.15.43 1.88s-.14 1.36-.43 1.89c-.28.52-.67.92-1.16 1.2a3.3 3.3 0 0 1-1.66.41c-.62 0-1.17-.14-1.66-.42a3.02 3.02 0 0 1-1.17-1.2A3.9 3.9 0 0 1 35 22.5c0-.73.14-1.36.42-1.88a3 3 0 0 1 1.16-1.2 3.32 3.32 0 0 1 1.67-.42Zm8.13 1.06h-3.14v1.9h2.84v1.07h-2.84V26H42v-7h4.38v1.06Zm-8.13.05c-.38 0-.72.09-1.02.27-.3.19-.53.46-.7.81-.16.36-.24.8-.24 1.31 0 .52.08.95.25 1.31.16.36.4.63.7.8.29.2.63.28 1.01.28s.72-.09 1.02-.27c.3-.19.52-.45.69-.8.17-.37.25-.8.25-1.32s-.08-.95-.25-1.3c-.17-.36-.4-.63-.7-.82-.29-.18-.63-.27-1.01-.27Z"/></svg>