<!-- by TradingView --><svg width="56" height="56" viewBox="0 0 56 56" xmlns="http://www.w3.org/2000/svg"><path fill="#F0F3FA" d="M0 0h56v56H0z"/><path d="M13.64 30.34c0-1.07-1.2-1.39-2.03-1.64-1.46-.45-3.3-1.22-3.3-3 0-1.9 1.98-2.7 3.6-2.7 1.76 0 3.6 1.05 3.6 3h-1.87c0-1.02-.8-1.57-1.76-1.57-.79 0-1.7.34-1.7 1.26 0 .18.04.34.13.49.39.62 1.28.84 1.92 1.04 1.54.45 3.3 1.26 3.3 3.1 0 1.94-1.91 2.68-3.57 2.68C10.08 33 8 32.11 8 30h1.88c0 1.21.98 1.58 2.08 1.58.78 0 1.68-.32 1.68-1.24ZM19 23v10h-2V23h2ZM27.56 27v1.53h-5.21V27h5.21ZM23 23v10h-2V23h2Zm6 0v10h-2V23h2ZM34.66 28.53h-2.54l-.01-1.3h2.17c.84 0 1.7-.35 1.7-1.32 0-1.02-.8-1.46-1.71-1.46H33V33h-2V23h3.27c1.72 0 3.58.76 3.58 2.77 0 1.48-1.28 2.22-2.62 2.29l-.57.47ZM34.57 33h-3l.78-1.44h2.22c.88 0 1.43-.61 1.43-1.56 0-.96-.4-1.47-1.34-1.47H32.7l.01-1.3 2.9.5c1.36.01 2.38.86 2.38 2.27 0 2.02-1.6 3-3.43 3ZM43.65 24.61 40.82 33h-1.98l3.7-10h1.27l-.16 1.61ZM46 33l-2.84-8.39L43 23h1.28L48 33h-1.99Zm-.13-4v1.5h-5.31V29h5.31Z"/></svg>