<!-- by TradingView --><svg width="56" height="56" viewBox="0 0 56 56" xmlns="http://www.w3.org/2000/svg"><path fill="#F0F3FA" d="M0 0h56v56H0z"/><path d="M39.56 13.88c-.03.03-.05.1-.05.22V30.3c0 .12 0 .43-.03.94a9.08 9.08 0 0 1-.87 3.31c-.37.74-.8 1.4-1.31 1.98-.7.8-1.49 1.52-2.37 2.17l-1.14.82a401.31 401.31 0 0 0-5.81 4.08 16.2 16.2 0 0 1-8.17-5.92c-.52-.46-.97-.94-1.37-1.45a9.5 9.5 0 0 1-1.17-1.9c-.3-.63-.5-1.28-.62-1.94-.1-.6-.16-1.2-.17-1.81V14.17c.01-.17-.02-.28-.08-.33a9.91 9.91 0 0 0-.33-.27.19.19 0 0 1-.07-.15v-.4c0-.01 0-.02.03-.02h23.94c.02 0 .03 0 .03.03v.4c0 .04-.03.09-.08.13a6.77 6.77 0 0 1-.36.32Z" fill="#A01D20"/><path d="M28.3 16.2a.1.1 0 0 1-.04 0l-.14-.01c-.01 0-.02 0-.02-.02v-.03a542.77 542.77 0 0 0 .46-.4.8.8 0 0 0 .17-.18.38.38 0 0 0 .06-.24c-.01-.18-.12-.29-.32-.31a.92.92 0 0 0-.48.07h-.01l-.05.3h.01c.13-.06.24-.1.34-.1.07 0 .12.03.14.1.03.07 0 .14-.1.22a93.89 93.89 0 0 1-.48.4c-.06.07-.1.17-.16.3a6.87 6.87 0 0 1-.04.15l.03.02h.86c.02 0 .03-.01.04-.04a20.07 20.07 0 0 0 0-.24h-.27Zm-3.24-1.18h-.6c-.02 0-.02.01-.03.02l-.33 1.39c0 .02 0 .03.02.03h.74c.02 0 .04-.01.04-.04l.05-.19c0-.03 0-.05-.03-.05h-.39c-.02 0-.03 0-.02-.03l.06-.26c0-.01.01-.02.03-.02h.34c.02 0 .04-.01.04-.04l.06-.22c0-.02 0-.03-.02-.03h-.34c-.01 0-.02 0-.02-.02l.06-.24c0-.02.02-.02.03-.02h.37c.01 0 .03-.01.03-.03l.06-.2c0-.03 0-.04-.02-.04a.3.3 0 0 0-.13-.01Zm.54.41c-.02.05 0 .09.04.11l.07.04c.16.08.25.15.28.2.05.09.06.17.05.27-.02.1-.06.2-.14.28-.09.1-.22.15-.41.16-.15.01-.3 0-.44-.05-.02 0-.03-.01-.02-.03l.08-.25c0-.02.02-.03.04-.02.08.04.15.06.23.07.1.01.18 0 .23-.05.06-.04.08-.08.06-.13 0-.05-.04-.08-.1-.12l-.06-.03a.62.62 0 0 1-.2-.14.38.38 0 0 1-.05-.35.5.5 0 0 1 .37-.35.8.8 0 0 1 .51.03c.03.01.04.04.03.06l-.04.2c-.01.03-.03.04-.05.03a.85.85 0 0 0-.27-.07c-.11 0-.18.04-.21.14Zm.72-.38-.06.22c0 .03 0 .05.04.05l.26-.01c.02 0 .04.01.03.04l-.26 1.08c0 .03 0 .04.03.04h.28c.02 0 .03 0 .03-.02l.27-1.12.03-.02h.28c.01 0 .02 0 .03-.02l.07-.22v-.03a.03.03 0 0 0-.03-.02h-.97c-.02 0-.03.01-.03.03Zm5.13.38a.72.72 0 0 0-.1.06c-.09.07-.17.1-.22.1-.02 0-.03-.02-.03-.04l.05-.15a.35.35 0 0 1 .12-.1l.26-.18c.07-.05.18-.08.33-.06.01 0 .02 0 .01.03l-.32 1.32c0 .04-.03.06-.07.06h-.21c-.04 0-.05-.02-.04-.06a9.58 9.58 0 0 0 .24-.9l.02-.04c.02-.05 0-.06-.04-.04Zm-2.57.2c.1-.4.31-.61.6-.62.24 0 .36.13.36.4 0 .15-.01.31-.06.46-.11.4-.31.62-.6.62-.24 0-.36-.12-.36-.39 0-.16.01-.31.06-.46Zm.3.08c-.06.26-.05.49.03.51.08.02.2-.17.26-.43.07-.26.05-.5-.03-.52-.08-.02-.2.17-.26.44Zm1.05.79c.3 0 .5-.2.63-.61.05-.15.07-.31.08-.48 0-.26-.12-.4-.36-.4-.3 0-.5.2-.63.61-.05.15-.07.31-.07.48 0 .26.11.4.35.4Zm.06-.28c-.08-.02-.1-.25-.03-.51.06-.26.18-.46.26-.43.08.02.1.25.04.51-.07.26-.19.46-.27.43Zm-12.8-.42h5.93c.01 0 .03.02.03.04v.12c0 .02-.02.04-.03.04h-5.94c-.02 0-.03-.02-.03-.04v-.12c0-.02.01-.04.03-.04Zm20.94 0H32.5c-.02 0-.03.02-.03.04v.12c0 .02.01.04.03.04h5.93c.02 0 .04-.02.04-.04v-.12c0-.02-.02-.04-.04-.04Zm-11.17.32a.17.17 0 0 0-.09.08.54.54 0 0 0-.06.18c0 .04 0 .07.04.08.04.02.09.03.15.02.12 0 .18-.07.19-.2 0-.1-.03-.16-.12-.17a.2.2 0 0 0-.11.01Z" fill="#F0F3FA"/><path fill-rule="evenodd" d="M24.93 18.2c0 .04 0 .04.03.02a.62.62 0 0 1 .24-.16c.32-.1.6-.08.83.06.23.13.3.39.2.76l-.27 1.1c0 .01 0 .02-.02.02h-.8c-.02 0-.03-.01-.02-.04l.26-.97.01-.04c.04-.12.05-.2.05-.26 0-.1-.04-.16-.11-.18a.68.68 0 0 0-.23-.02c-.11 0-.17.04-.2.1l-.36 1.36c-.01.03-.04.05-.07.05h-.74c-.02 0-.02 0-.03-.02v-.03l.52-1.93c0-.02.02-.02.04-.02h.76v.04l-.03.05a.65.65 0 0 0-.06.1Zm-2.14 1.33-.14.46-.01.01h-1.68l-.01-.02.58-1.97.01-.01h.82c.01 0 .02 0 .01.02l-.43 1.47c0 .01 0 .02.02.02h.81c.01 0 .02 0 .02.02Zm7-1.41-.09.07c-.02 0-.03 0-.03-.02l.03-.1v-.05c0-.01-.01-.02-.03-.02h-.69c-.04 0-.07.03-.08.08l-.48 1.87c-.01.03 0 .05.03.05h.75c.04 0 .06-.02.07-.05l.34-1.24c.03-.1.07-.17.1-.2.04-.02.1-.03.2-.03h.04c.11 0 .18.03.21.1.04.08.04.2 0 .35a88.74 88.74 0 0 1-.27 1.05l.02.02h.75c.02 0 .04-.01.05-.04l.09-.34a7.32 7.32 0 0 1 .2-.66.95.95 0 0 0 .05-.42c-.04-.27-.18-.44-.42-.5a1.33 1.33 0 0 0-.43-.04c-.19.01-.32.05-.4.12Zm4.77.03c0 .04 0 .05.04.03a.66.66 0 0 1 .28-.15c.07-.02.18-.03.34-.03.17 0 .32.03.45.1.16.08.25.21.27.38.02.1 0 .27-.07.5l-.25.99c0 .02-.02.03-.04.03h-.79l-.02-.01v-.03c.1-.36.21-.74.31-1.16.05-.2-.01-.3-.19-.33-.21-.03-.34.02-.37.14l-.37 1.36c0 .02-.02.03-.03.03h-.8c-.02 0-.03-.02-.02-.04l.5-1.92c0-.03.02-.04.04-.04h.72c.01 0 .02 0 .03.02v.03a.55.55 0 0 0-.03.1Zm-10.44-.12-.1.34-.02.01h-.8c-.02 0-.03 0-.02-.03l.1-.33c0-.01 0-.02.02-.02h.8c.02 0 .03.01.02.03Zm-.95.5h.75c.02 0 .02.01.03.02v.03l-.4 1.4-.03.02h-.76l-.03-.01v-.03l.4-1.4c.01-.02.02-.02.04-.02Zm4.3 1.26c.02-.01.02 0 .02.02-.05.16-.11.29-.18.4a.69.69 0 0 1-.31.21c-.15.06-.31.1-.48.1-.05-.01-.09.02-.1.07l-.01.02c-.02.05 0 .08.04.09.22.02.45.02.7 0 .24 0 .47-.07.7-.17a.8.8 0 0 0 .37-.36c.06-.1.12-.3.2-.58 0-.06.02-.1.03-.14l.35-1.38c0-.05 0-.07-.05-.07h-.68c-.01 0-.02 0-.03.02l-.06.1-.01.01a.7.7 0 0 0-.4-.13 1.28 1.28 0 0 0-1.3.9c-.05.18-.08.35-.08.5 0 .38.17.59.5.6.26.03.52-.04.78-.2Zm.2-.56a66.34 66.34 0 0 0 .2-.8h-.03a1 1 0 0 0-.76.53.57.57 0 0 0-.06.36c.03.15.13.23.3.22.17 0 .29-.11.34-.31Zm4.73.57c.04-.07.02-.09-.04-.04-.33.23-.7.3-1.1.19a.5.5 0 0 1-.25-.2.4.4 0 0 1-.08-.29c0-.1.04-.19.09-.26.04-.06.1-.13.19-.2a.83.83 0 0 1 .18-.1c.4-.18.83-.24 1.27-.2.02 0 .03 0 .03-.02.02-.14-.02-.22-.13-.24a.97.97 0 0 0-.2-.03c-.36 0-.7.08-1.01.22-.06.03-.08.01-.05-.06l.1-.25a.24.24 0 0 1 .14-.15c.4-.15.8-.2 1.21-.16.18.02.35.07.49.14.2.1.28.25.27.42l-.06.3a36.7 36.7 0 0 0-.32 1.13h-.74c-.03 0-.04-.01-.05-.03v-.04l.06-.13Zm.19-.75-.08.24a.4.4 0 0 1-.17.17.61.61 0 0 1-.46.09c-.1-.03-.14-.11-.1-.24.03-.07.08-.12.17-.17.18-.1.38-.14.6-.13.03 0 .04.01.04.04ZM23.21 21.27c0 .02.01.02.03.02h.35c.01 0 .02 0 .03.02v.03c-.11.22-.2.47-.25.75l-.1.39-.12.4c-.01.04-.03.05-.06.05l-.62.02-.04-.01c-.07-.05-.13-.03-.19.04l-.02.01-.25.01c-.02 0-.02 0-.02-.02a1031.2 1031.2 0 0 1 .44-1.64c.1 0 .19 0 .28-.03.1-.03.12 0 .04.08a.44.44 0 0 0-.1.18c-.08.35-.18.7-.29 1.04 0 .03 0 .05.03.05h.02c.03 0 .05-.02.06-.05l.43-1.58c.01-.02.03-.03.05-.03l.33.06.02.02v.02a.33.33 0 0 0-.05.17Zm.11.17v.01l-.29 1.07c-.03.1-.05.13-.07.13l-.04-.01c-.02-.01-.01-.06.01-.15l.3-1.07h.02l.07.02Zm5.24.06v-.04l-.44-.02c-.04 0-.05-.02-.03-.06l.05-.08c.02-.03.04-.04.07-.04h.16c.05 0 .08-.02.1-.07l.05-.16c0-.02.02-.03.04-.03h.41c.01 0 .02 0 .03.02v.03l-.09.13c-.04.06-.03.08.04.07.13-.01.27-.02.4 0 .03 0 .05 0 .06.02.02.02.02.04.02.06a.57.57 0 0 1-.12.25c-.02.02-.04.03-.06.01-.07-.05-.14-.07-.2-.06-.1.03-.1.06-.01.12l.15.07v.02l-.39.02c-.03 0-.05.02-.06.05v.02c0 .02 0 .03.03.03l.69-.02c.02 0 .03.01.02.04-.1.27-.26.5-.48.66a.28.28 0 0 1-.08.03.06.06 0 0 0-.04.05c0 .02 0 .03.02.03l.06.02c.02 0 .02.02.01.04a.4.4 0 0 1-.16.15h-.04a.49.49 0 0 0-.24.03l-.19.06c-.12.03-.23.05-.34.05-.01 0-.03 0-.03-.02l.01-.05.47-.37c.04-.06.05-.1.03-.11l-.05-.01a5.66 5.66 0 0 0-.64.05l.07-.24c0-.01 0-.02.02-.02l.85.03c.05 0 .1-.02.13-.07l.04-.07c.02-.02.02-.04-.02-.04l-.48.02c-.1 0-.18.02-.23.05a.05.05 0 0 1-.04.01l-.19-.03c-.02 0-.03-.02-.03-.04.01-.04.04-.08.1-.1a.22.22 0 0 0 .1-.07l.02-.06.04-.02h.2c.03 0 .04-.02.06-.04v-.02c.01-.04 0-.06-.04-.06a7.88 7.88 0 0 1-.25-.02c-.06-.01-.09-.05-.09-.1 0-.03.01-.04.03-.04l.47-.05.01-.01Zm1.05-.04-.11-.04a.05.05 0 0 1-.03-.03v-.04c0-.01.01-.02.03-.02h.05c.08 0 .14-.03.17-.09.04-.05.07-.12.1-.2.01-.03.03-.04.06-.04h.4c.02 0 .03 0 .04.02v.04l-.02.1c0 .02 0 .03.03.03h.74c.02 0 .03.02.03.04l-.02.09c-.02.05-.04.07-.09.07l-1.04.03-.02.01v.03l.13.34.04.03c.01 0 .03 0 .04-.02.09-.12.2-.22.32-.3.02-.02.06-.02.11-.02a3.01 3.01 0 0 0 .3.02v.03l-.56.67a.05.05 0 0 0 0 .06c.05.13.13.28.23.45.05.09.12.14.21.16.02 0 .03.01.04.03l.02.07c0 .01 0 .02-.02.02h-.57c-.04 0-.07-.02-.08-.05l-.18-.34c-.01-.02-.03-.03-.05 0a1.85 1.85 0 0 1-.46.32.69.69 0 0 1-.23.05h-.4c-.02 0-.02 0 0-.02.08-.07.18-.15.3-.22.18-.14.37-.3.56-.5.02-.02.03-.05.02-.08l-.13-.36c-.02-.04-.06-.08-.14-.12a.04.04 0 0 1-.02-.04c0-.03 0-.07.03-.12l.04-.02.13-.03v-.01Zm-5.19-.41c-.12.16-.25.32-.4.48a.48.48 0 0 1-.19.12 1.37 1.37 0 0 1-.29.07c-.01 0-.02 0-.02-.02a.5.5 0 0 1 .09-.2l.34-.46a.09.09 0 0 1 .07-.04h.38c.04 0 .05.02.02.05Zm.1.04a.48.48 0 0 0-.04-.06v-.02h.32c.04 0 .06 0 .07.04.04.19.12.34.22.47l.03.04c.02.08 0 .11-.06.11h-.04c-.17 0-.27-.02-.3-.05a.14.14 0 0 1-.05-.07c-.05-.2-.1-.35-.15-.46Zm-.05 1.7-.06-.04v-.04c.08-.12.17-.23.29-.33.02-.03.06-.11.11-.26a.2.2 0 0 1 .05-.08.3.3 0 0 1 .08-.04c.02 0 .02-.01 0-.02-.13-.1-.27-.18-.42-.22l-.02-.03.01-.02.07-.05.01-.04a.51.51 0 0 0-.04-.16c-.03-.07-.06-.1-.1-.11-.11-.02-.2.03-.25.14l-.11.25c-.03.06-.07.1-.14.09h-.07c-.2-.02-.31-.01-.36.02a.12.12 0 0 0-.06.08l-.05.19.01.02h.02c.04 0 .08-.03.15-.07.04-.02.09-.03.16-.03a17.62 17.62 0 0 0 .6.02v.03l-.19.28c-.02.03-.03.03-.05 0a.83.83 0 0 0-.19-.17c-.09-.06-.16-.08-.22-.06a.08.08 0 0 0-.04.02.52.52 0 0 1-.2.15.18.18 0 0 0-.13.14l-.02.07c-.02.07 0 .1.08.08a.77.77 0 0 0 .22-.14c.04-.03.07-.02.1 0l.24.23c.02.02.01.03 0 .05a.29.29 0 0 1-.1.05.08.08 0 0 0-.04.02.3.3 0 0 0-.05.15c-.01.03 0 .04.03.04.16 0 .29-.02.39-.03l.16-.05.1-.03.03-.03.01-.04-.01-.03Zm1.68-.64v.01a.35.35 0 0 0-.1.16h-.5v-.01a3.24 3.24 0 0 1 .19-.72l-.03-.02h-.46c-.03 0-.04.02-.04.04a20.38 20.38 0 0 0-.37 1.39h.5c.02 0 .02-.03.03-.04l.1-.43c0-.02.01-.02.03-.02h.5v.02l-.12.4c0 .02 0 .07.02.07h.48c.03 0 .05-.06.06-.1l.1-.38c0-.02.01-.03.03-.03a8.14 8.14 0 0 0 .52 0l-.08.21a.17.17 0 0 1-.1.1.46.46 0 0 1-.12.02h-.06c-.04 0-.06.02-.07.06l-.01.06c-.01.04 0 .06.04.06.48 0 .77-.08.85-.25l.08-.2.2-.65a.95.95 0 0 1 .1-.21l.02-.04v-.04l-.03-.02-.1.01c-.04 0-.07 0-.1-.02a.77.77 0 0 0-.52-.08c-.03 0-.05 0-.05-.03v-.03c0-.02.01-.04.04-.04h.73c.04 0 .06-.02.07-.05l.04-.12c0-.03 0-.05-.03-.05l-1.09.03-.02-.01v-.04l.09-.13v-.02l-.02-.01-.49.01c-.02 0-.04.01-.05.03a.08.08 0 0 0-.02.06v.08c0 .01 0 .02-.02.02h-1.1c-.03 0-.04 0-.05.03l-.05.16c0 .02 0 .03.02.03a46.6 46.6 0 0 1 1.13 0l.08.02.45-.02c.04 0 .05.01 0 .04h-.03a3.45 3.45 0 0 0-.8.02c-.04 0-.06.03-.07.07l-.08.3v.02l.03.02.88-.01c.02 0 .02 0 .01.03v.01c-.01.02-.03.04-.05.04h-.98c-.02 0-.04 0-.04.03l-.05.14.01.02h.47Zm.17-.53h.37c.02 0 .04.02.04.04 0 .03-.02.05-.04.05h-.37c-.02 0-.04-.03-.03-.05 0-.03.01-.04.03-.04Zm6.5 1.14.05-.07v-.02l-.01-.01H31.5c-.02 0-.03 0-.03.03l-.07.28c0 .02-.01.02-.03.02h-.45c-.02 0-.03 0-.02-.02l.05-.22.2-.75c.02-.05.04-.1.08-.12a.3.3 0 0 1 .14-.06c.39-.03.9-.05 1.55-.03.05 0 .07.02.06.07v.04c-.01.04-.04.05-.07.05h-1.12c-.02 0-.02 0-.03-.02v-.03c-.01-.02-.02-.03-.03-.01a.3.3 0 0 0-.09.15l.01.03.03.02h1.25c.03 0 .04-.02.05-.05l.03-.2c0-.01.01-.02.03-.02.04-.01.06-.04.06-.08 0-.02-.01-.03-.02-.03a.56.56 0 0 0-.28-.02h-.1a66.39 66.39 0 0 1-.96 0c-.04-.05-.09-.05-.15-.02a1.9 1.9 0 0 1-.43.18.26.26 0 0 1-.15 0 .03.03 0 0 1-.02-.03v-.03a.77.77 0 0 1 .23-.27c.06-.04.06-.06-.01-.06l-.04-.01a.04.04 0 0 1-.02-.04c0-.05.01-.1.04-.13 0-.02.02-.02.03-.02h.81c.07 0 .11-.02.13-.05a.33.33 0 0 0 .04-.16c0-.03.01-.05.05-.05h.44l.01.01c0 .11-.06.2-.14.24l-.01.04c.01.02.02.02.03.01l.12-.06h1.23c.01 0 .02.01.02.03l-.02.14c0 .02-.02.03-.04.03-.2.02-.37.01-.52-.02-.01 0-.02 0-.02.02s0 .03.02.05l.3.25v.05a.52.52 0 0 0-.1.19l-.17.66c-.06.2-.18.3-.37.33-.18.03-.37.04-.58.02-.03 0-.04-.01-.03-.04l.03-.14.03-.03c.13-.02.22-.02.28.01.03.01.04 0 .05-.03Zm-.98-1.29h.96c.02 0 .03.01.03.03v.02c0 .01-.01.02-.03.02h-.96a.03.03 0 0 1-.03-.02v-.02l.03-.03Zm1.04.95.04-.14c0-.02 0-.03-.03-.03h-1.28c-.01 0-.02 0-.02.02l-.04.14c0 .02 0 .03.03.03h1.27c.02 0 .03 0 .03-.02Z" fill="#F0F3FA"/><path d="M26.93 26.1a6 6 0 0 0 .21-.44c.06-.13.15-.27.28-.43.22-.28.5-.46.82-.55l.22-.07c.1-.05.2-.14.35-.28l.07-.07c.08-.07.11-.06.1.05 0 .2-.07.41-.18.61-.1.2-.25.36-.42.48-.06.04-.19.09-.36.14a2.86 2.86 0 0 0-1.1.6l-.01-.01v-.02h.02Z" fill="#F0F3FA"/><path d="M30.04 27.61c.02.32-.05.62-.23.9-.14.2-.25.35-.33.43A442 442 0 0 0 28.37 30a22.21 22.21 0 0 0-.78.8c-.08.08-.25.29-.5.6l-.3.43c0 .01 0 .01 0 0l.32-.42c.43-.51.8-.92 1.1-1.2.64-.6 1.06-1.01 1.28-1.23.1-.1.22-.25.35-.44.19-.28.27-.6.25-.92-.04-.27-.14-.5-.3-.7a1.82 1.82 0 0 0-1.14-.61 2.28 2.28 0 0 0-1.3.16c-.1.04-.25.12-.46.25l-.46.25c-.06.03-.1.01-.08-.06a3.09 3.09 0 0 1 .31-.26c.06-.04.15-.11.27-.23.12-.11.2-.2.27-.24a3.02 3.02 0 0 1 1.1-.52l.38-.08c.35-.05.67-.04.96.05a4.22 4.22 0 0 0 1.18.22c.03.02.03.03 0 .05-.34.15-.49.36-.45.6.01.05.07.18.18.39.08.16.14.32.2.5.04.17.06.34.06.52 0 .25-.06.51-.16.77-.07.16-.15.34-.27.52-.13.21-.33.48-.6.8a14.67 14.67 0 0 1-1.54 1.58l.16-.1a2.4 2.4 0 0 1 .46-.3 18.7 18.7 0 0 1 1.36-.73 19.07 19.07 0 0 1 1.55-.77 62.3 62.3 0 0 1 .82-.42l1.47-.82c.3-.17.72-.42 1.23-.77a12.28 12.28 0 0 0 1.52-1.22h.02v.01c-.38.44-.8.82-1.22 1.15-.78.6-1.6 1.12-2.45 1.58-.8.43-1.64.86-2.53 1.27a8.1 8.1 0 0 0-.67.39l.5-.25a26.92 26.92 0 0 0 4.35-2.36 11.33 11.33 0 0 0 2.54-2.28 7.4 7.4 0 0 0 .35-.46v.01c-.08.18-.14.31-.2.4-.34.54-.68 1.03-1.03 1.48-.2.27-.46.53-.78.77a15.97 15.97 0 0 1-2.9 1.9h.01l.17-.08c.64-.3 1.32-.7 2.04-1.2a9.92 9.92 0 0 0 2.66-2.65c.02-.03.03-.03.02.01a4.85 4.85 0 0 1-.86 1.43 8.7 8.7 0 0 1-.95.94 15.02 15.02 0 0 1-2.98 1.88c-.02.02-.02.02 0 0a14.71 14.71 0 0 0 1.92-1.03 9.65 9.65 0 0 0 2.1-1.78c-.18.3-.41.6-.7.89a9.8 9.8 0 0 1-1.29 1.13c-.61.44-1.24.81-1.89 1.12-.53.25-1.21.52-2.04.8a12 12 0 0 0-1.16.49l-1.05.48a1.87 1.87 0 0 0-.28.17h.01l.35-.17a114.53 114.53 0 0 0 1.64-.6 301.02 301.02 0 0 0 1.83-.63 20.3 20.3 0 0 0 1.79-.82 11.52 11.52 0 0 0 1.63-1.1v.01l-.69.6a12.98 12.98 0 0 1-3.86 1.92 159.9 159.9 0 0 0-2.2.71 20.13 20.13 0 0 0-.78.35 22.03 22.03 0 0 1 1.99-.7l1.58-.5a13.08 13.08 0 0 0 4.28-2.55 5.92 5.92 0 0 0 1.1-1.27l.01.01v.01c-.26.46-.56.9-.88 1.33A7.28 7.28 0 0 1 34.46 31a18.08 18.08 0 0 1-1.53.93c.03.05.03.05 0 0 .1-.03.2-.08.29-.12l.95-.54a9.45 9.45 0 0 0 2.96-2.78v.01a5.97 5.97 0 0 1-2.42 2.76c-.45.3-.84.53-1.16.72a8.78 8.78 0 0 1-.68.36v.02h.01l.74-.38c.67-.38 1.18-.7 1.56-.95a5.6 5.6 0 0 0 .93-.78 6.72 6.72 0 0 1-1.52 1.51c-.47.32-.76.52-.9.6-.25.16-.57.32-.97.49-.43.18-.87.34-1.3.47-.93.28-1.76.55-2.46.82a5.54 5.54 0 0 0-2.82 2.32 4.9 4.9 0 0 1 2.1-1.88l.8-.33c.6-.24 1.14-.42 1.61-.56.67-.19 1.26-.37 1.78-.55a10 10 0 0 0 1.63-.73 7.27 7.27 0 0 0 1.7-1.3l-.22.33c-.31.47-.72.87-1.22 1.21a7.9 7.9 0 0 1-1.85.93c-.62.21-1.26.4-1.9.54a6.1 6.1 0 0 0-.92.32h.02a5.56 5.56 0 0 1 .94-.27l.11-.03a87.13 87.13 0 0 0 1.8-.49c.42-.14.8-.28 1.17-.44a5.18 5.18 0 0 0 .73-.35v.02l-.01.02a5.35 5.35 0 0 1-1.45.93c-.19.1-.37.19-.55.26-.46.18-.93.33-1.4.45l-.8.22a7.93 7.93 0 0 0-1.6.57c-.61.27-1.12.65-1.53 1.13a2.5 2.5 0 0 0-.6 1.42c-.02.16 0 .3.03.43.06.18.12.33.19.44a9.01 9.01 0 0 1 .16.28 8.8 8.8 0 0 1-.19-.4c-.17-.4-.16-.8.01-1.19.14-.3.34-.55.6-.76a.32.32 0 0 1 .1-.05c.04-.02.05 0 .02.02a5.3 5.3 0 0 0-.74 1.08c0 .02 0 .02 0 0l.24-.33c.15-.22.36-.4.62-.55.27-.16.48-.27.63-.34.22-.1.43-.19.64-.24.35-.1.66-.16.93-.19.15-.02.3-.02.45-.01.1 0 .1.02 0 .03-.74.08-1.41.32-2.03.73-.26.17-.47.36-.65.57a1.27 1.27 0 0 0-.16.26c.17-.25.37-.46.62-.64a3.85 3.85 0 0 1 1.03-.54c.28-.12.63-.22 1.05-.3.2-.04.37-.04.54-.02a3.37 3.37 0 0 1 .85.24h-.02c-.3-.07-.6-.12-.88-.13a2.33 2.33 0 0 0-1.32.36c-.34.2-.66.43-.95.68a2.88 2.88 0 0 0-.98 2.1c.01.23.08.47.22.73.04.08.1.16.16.22l.14.15c.1.1.19.19.26.24a4.74 4.74 0 0 1 .2.18 12.36 12.36 0 0 0-.87-.33 3.8 3.8 0 0 1-1.75-1.12 5.4 5.4 0 0 1-.55-.75 3.34 3.34 0 0 1-.5-1.65 7.47 7.47 0 0 1 .1-2.1c.07-.35.08-.7.01-1.07a2.26 2.26 0 0 0-.77-1.28 4.08 4.08 0 0 0-.62-.45l-.89-.48c-.5-.26-1-.58-1.48-.97a7.12 7.12 0 0 0-.53-.36l-.05-.03v-.01h.04l1.16.6.48.24.8.31.04.02c.17.07.3.12.36.17.2.11.38.25.57.4.22.17.42.38.58.62a6.28 6.28 0 0 1 .46.79 3.63 3.63 0 0 0-.94-1.37c-.16-.13-.3-.25-.45-.35a30.24 30.24 0 0 0-1.26-.62 5.2 5.2 0 0 1-.51-.26 12.19 12.19 0 0 0-.5-.3h.01l.11.05.68.25 1.01.3c.11.04.23.1.35.2.04.03.05.02.03-.03-.08-.15-.2-.3-.36-.43a4.1 4.1 0 0 0-1.24-.72c-.39-.17-.67-.3-.85-.4a4.17 4.17 0 0 1-2.2-3.26l-.01-.16c0-.07 0-.07.02 0l.13.5c.18.56.43 1.08.76 1.59.25.34.55.6.9.81.33.19.7.36 1.14.53a6.51 6.51 0 0 1 .97.46 2.68 2.68 0 0 1 .96 1.03 13.68 13.68 0 0 0 .28.43c-.11-.23-.2-.38-.25-.46-.23-.4-.51-.72-.85-.95a4.2 4.2 0 0 0-.82-.47l-.84-.34c-.29-.11-.6-.3-.95-.56a2.6 2.6 0 0 1-.5-.51 6.64 6.64 0 0 1-.74-1.6 3.92 3.92 0 0 1-.1-1.39c0-.02 0-.03.03-.02h.01l.01.02c.05.6.23 1.15.55 1.66a6.53 6.53 0 0 0 1.49 1.66.8.8 0 0 0-.15-.18 6.28 6.28 0 0 1-1.5-2.12l.02.01a6 6 0 0 0 1.7 1.79c-.3-.23-.6-.49-.86-.77a4.52 4.52 0 0 1-.65-.84 2.6 2.6 0 0 1-.3-1.16h.04l.01.07.1.33c.12.26.26.51.42.76.17.28.4.52.66.73.3.22.61.4.95.53.21.08.54.2.98.34.81.28 1.4.5 1.78.65.54.23 1.01.5 1.4.82.34.26.63.57.87.93.1.15.19.32.25.5 0 .01 0 .02.02.02h.03c.11-.14.24-.28.4-.42a78.18 78.18 0 0 1 1.7-1.54l.5-.54c.2-.22.33-.41.44-.6a.9.9 0 0 0 .1-.54 1 1 0 0 0-.2-.49c-.29-.38-.69-.59-1.2-.63l-.02.01v.02h.01c.24.04.43.1.58.16a1.74 1.74 0 0 1 .66.6c.12.21.14.44.05.7-.02.07-.07.17-.15.3 0 .02-.01.02-.01 0 0-.04.01-.08.04-.1a.08.08 0 0 0 .02-.04v-.04c.04-.13.07-.23.07-.3a.82.82 0 0 0-.02-.32.9.9 0 0 0-.2-.35 1.69 1.69 0 0 0-.6-.43 4.63 4.63 0 0 0-.38-.13 1.2 1.2 0 0 0-.4-.06 2.19 2.19 0 0 0-.89.23v-.03l.3-.12c.19-.09.4-.13.6-.13a15.92 15.92 0 0 0 .52 0c.46.06.84.27 1.16.63.16.19.25.38.28.6Z" fill="#F0F3FA"/><path d="M29.86 27.62c.02.33-.06.64-.25.92 0-.02-.01-.03-.03-.03.17-.28.25-.58.23-.9l.03.03h.01l.01-.02Z" fill="#B8B9B3"/><path d="M19.64 28.43c.15.2.31.37.5.51.33.26.64.45.93.56l.81.34c.23.09.5.25.81.47.33.23.6.55.83.95a61.92 61.92 0 0 1 .25.45v.01c0 .01 0 .01 0 0a13.6 13.6 0 0 1-.28-.43 2.65 2.65 0 0 0-.93-1.02 4.79 4.79 0 0 0-.96-.47 7.41 7.41 0 0 1-1.11-.53c-.35-.2-.64-.47-.89-.81.01-.02.02-.03.04-.03ZM29.61 28.54c-.13.2-.24.34-.34.44-.21.22-.63.63-1.26 1.23-.3.28-.65.69-1.07 1.2l-.01-.01a10.4 10.4 0 0 1 1.24-1.4l1.09-1.06c.08-.08.19-.22.32-.43.02 0 .03.01.03.03Z" fill="#A01D20"/><path d="m26.93 31.4.01.01-.3.43h-.02v-.01l.3-.43ZM22.74 31.47c.04 0 .06 0 .05-.02.2.08.38.17.56.3.14.1.3.22.44.35a3.65 3.65 0 0 1 .91 1.38 6.3 6.3 0 0 0-.44-.8 2.76 2.76 0 0 0-.57-.62 5.6 5.6 0 0 0-.55-.4c-.07-.05-.19-.1-.36-.17l-.04-.02ZM30.15 34.5a13.2 13.2 0 0 1 .73-.16c.12-.03.3-.08.52-.16a8.21 8.21 0 0 1 1-.32 5.2 5.2 0 0 1 .18-.05v.01c-.17.07-.34.14-.52.19a32.22 32.22 0 0 0-1.11.35l-.13.04c-.12.03-.2.05-.28.05a2.77 2.77 0 0 0-.38.07h-.01v-.02ZM30.33 34.11c0 .03.01.04.04.04v.01l-.03.01a5.37 5.37 0 0 0-.9.27h-.01v-.02c.29-.12.59-.23.9-.3Z" fill="#A88049"/><path d="M27.93 44.2a286.95 286.95 0 0 1 7.14-5.03 14.96 14.96 0 0 0 4.07-4.27 2.41 2.41 0 0 0 .22-.4c-.2.71-.46 1.4-.79 2.07-.13.26-.27.51-.43.74-.54.8-1.15 1.5-1.85 2.15-.68.62-1.4 1.2-2.2 1.74-2.36 1.64-3.75 2.6-4.15 2.9a628.88 628.88 0 0 1-2.01 1.49l-.06-.03a12.1 12.1 0 0 1-11.35-11.08c.06.15.13.29.21.4a14.96 14.96 0 0 0 4.06 4.27l1.97 1.38a287.2 287.2 0 0 1 5.17 3.67Z" fill="#A88049"/><path d="M28.92 41a2.2 2.2 0 0 1-.98-.27 1.34 1.34 0 0 1-.63-.9c-.14-.67 0-1.3.42-1.85a3.13 3.13 0 0 1 .88-.77 3.1 3.1 0 0 1 1.91-.47 5.99 5.99 0 0 1 1.08.23v.01h-.01a6.5 6.5 0 0 0-.59-.05c-.48-.03-.94.07-1.39.3-.15.07-.33.18-.54.3-.27.18-.5.39-.7.63a2 2 0 0 0-.4.76c-.11.42-.08.85.08 1.27.13.33.43.58.88.77.07.03.07.04 0 .04Z" fill="#F0F3FA"/><path d="M17.8 38.47a2 2 0 0 0 .21.24l.22.23c.22.26.46.5.72.74.6.54 1.22 1.04 1.85 1.5l.15.11a34.52 34.52 0 0 0 1.6 1.15 172.49 172.49 0 0 0 2.42 1.7l2.96 2.12h.04a498.9 498.9 0 0 1 4.5-3.21 125.17 125.17 0 0 0 2.6-1.85 19.88 19.88 0 0 0 3.18-2.92 6.22 6.22 0 0 0 .5-.73l-.08.19a16.54 16.54 0 0 1-.63 1.07l-.19.26a5.3 5.3 0 0 1-.65.86c-.83.92-1.75 1.74-2.75 2.46A804.19 804.19 0 0 1 28 46.98c-.03.03-.07.03-.1 0a96.19 96.19 0 0 0-2.36-1.7 73.74 73.74 0 0 1-1.81-1.27l-2.23-1.59a25.27 25.27 0 0 1-2.22-1.86 10.3 10.3 0 0 1-1.94-2.6l.01-.03h.05a8.58 8.58 0 0 1 .4.53Z" fill="#B8B9B3"/><path d="M27.4 40.41a3.12 3.12 0 0 1-.49-.28 1.32 1.32 0 0 1-.4-.45c-.03-.06-.03-.06 0 0 .21.28.5.5.84.67l.05.05v.01ZM26.87 40.25a8.64 8.64 0 0 0 .75.35v.02c-.03 0-.06-.02-.1-.04-.3-.1-.52-.2-.68-.29a4.26 4.26 0 0 1-.66-.52h.01a8.67 8.67 0 0 0 .68.48Z" fill="#A88049"/></svg>