<!-- by TradingView --><svg width="56" height="56" viewBox="0 0 56 56" xmlns="http://www.w3.org/2000/svg"><path fill="#F0F3FA" d="M0 0h56v56H0z"/><path fill-rule="evenodd" d="M28 42a14 14 0 1 0 0-28 14 14 0 0 0 0 28Zm0 3a17 17 0 1 0 0-34 17 17 0 0 0 0 34Z" fill="#BB1928"/><path d="M19 19.5c0-.28.22-.5.5-.5h17c.28 0 .5.22.5.5v2a.5.5 0 0 1-.5.5h-14a.5.5 0 0 0-.5.5v6c0 .28.22.5.5.5h9c.28 0 .5.22.5.5v2a.5.5 0 0 1-.5.5h-12a.5.5 0 0 1-.5-.5v-12Z" fill="#BB1928"/><path d="M37 36.5a.5.5 0 0 1-.5.5h-17a.5.5 0 0 1-.5-.5v-2c0-.28.22-.5.5-.5h14a.5.5 0 0 0 .5-.5v-6a.5.5 0 0 0-.5-.5h-9a.5.5 0 0 1-.5-.5v-2c0-.28.22-.5.5-.5h12c.28 0 .5.22.5.5v12Z" fill="#BB1928"/></svg>