<!-- by TradingView --><svg width="56" height="56" viewBox="0 0 56 56" xmlns="http://www.w3.org/2000/svg"><path fill="#F0F3FA" d="M0 0h56v56H0z"/><path fill-rule="evenodd" d="M13.01 31.35A5.24 5.24 0 0 1 9.17 33 5.09 5.09 0 0 1 4 28c0-2.76 2.32-5 5.17-5 1.11 0 2.14.34 2.98.91l-1.3 1.73a3 3 0 1 0 .15 4.6V29H9v-2h4v4.34l.01.01ZM21 23h-7v10h7v-2h-5v-2h5v-2h-5v-2h5v-2Zm2 10h2v-6.1l4.42 6.1H31V23h-2v6.01L24.73 23H23v10Zm25.45-10H44v10h2v-3.5h1.36l2.32 3.5H52l-2.48-3.69a3.37 3.37 0 0 0 2.21-3.12A3.24 3.24 0 0 0 48.45 23Zm.23 2H46v2.5h2.68c.93 0 1.32-.56 1.32-1.25S49.6 25 48.68 25Z" fill="#686465"/><path d="M37.75 24.5a.75.75 0 1 0 0-1.5.75.75 0 0 0 0 1.5Zm3.25.25a.75.75 0 1 1-1.5 0 .75.75 0 0 1 1.5 0Zm-6 3a1.25 1.25 0 1 1-2.5 0 1.25 1.25 0 0 1 2.5 0Zm1 3.1a1.15 1.15 0 1 1-2.3 0 1.15 1.15 0 0 1 2.3 0ZM37.5 33a1 1 0 1 0 0-2 1 1 0 0 0 0 2Zm4-2.5a1 1 0 1 1-2 0 1 1 0 0 1 2 0Zm.3-1.9a.8.8 0 1 0 0-1.6.8.8 0 0 0 0 1.6Z" fill="#0074BC"/><circle cx="35" cy="24.5" r="1.5" fill="#686465"/></svg>