<!-- by TradingView --><svg width="56" height="56" viewBox="0 0 56 56" xmlns="http://www.w3.org/2000/svg"><path fill="#F0F3FA" d="M0 0h56v56H0z"/><path d="M46.06 20.47c-1.03-.19-2.55-.47-4.44-.47-5.01 0-9.61 2.62-10.47 7.13l-3.5-.1.11-.26 1.04-2.42c.65-1.57 1.1-2.36 1.37-2.76.33-.42.93-.55 1.46-.65l.3-.07c.18-.2-.07-.87-.07-.87h-4.82s-.28.65-.08.87l.55.15c.32.07.47.17.47.35 0 .27-.5 1.69-.67 2.11-.38.97-.88 2.25-1.4 3.53a171.71 171.71 0 0 0-4.57.01l-.05-.11s1.31-2.78 2.1-4.1c.86-1.5 1.04-1.6 1.88-1.77l.7-.15c.22-.17-.03-.89-.03-.89h-4.97s-.25.7-.08.87l.75.17c.4.1.5.35.5.35s-1.12 2.82-1.64 3.9l-1.67-3.97s.37-.3.67-.35l.42-.1c.18-.12-.1-.87-.1-.87h-6s-.31.67-.07.87l.25.02c.95.13 1.12.28 1.7 1.52l2.14 4.7c-1.34.06-2.6.12-3.79.19l-2.66-5.98s.18-.3.62-.38l.45-.07c.25-.15-.05-.87-.05-.87H6.17s-.3.62-.1.87l.62.12c.82.13 1.64 1.77 1.64 1.77l2.16 4.79c-2.02.16-3.57.33-4.49.45h37c-1.4-.18-4.15-.45-7.7-.66.4-4.2 3.36-6.28 6.1-6.28 2.6 0 4.3 1.3 5.03 3.58.18.22.9.13 1.01-.17a30.14 30.14 0 0 1-.32-3.83c-.25-.02-.6-.08-1.06-.17ZM26.8 29H43c-1.4.18-4.13.44-7.67.66.5 4.05 3.33 6.24 6.24 6.24 3.23 0 4.7-2.17 5.42-3.84.2-.2.85-.12 1.01.17-.19 1.82-.64 3.3-1.01 3.86l-.38.1c-1.39.36-3.14.81-5.04.81-5.04 0-9.81-2.42-10.49-7.13-1.5.05-3.07.1-4.7.12-1.08 2.49-2.17 5.09-2.82 6.81-.15.13-.5.2-.83.2-.27 0-.5-.07-.67-.2-.13-.28-.27-.65-.42-1.04-.17-.44-.35-.9-.52-1.27l-1.94-4.28s-2 4.41-3.06 6.6c-.13.12-.45.19-.82.19-.28 0-.65-.2-.65-.2l-3.27-7.28A100.3 100.3 0 0 1 6 29H26.8Zm-11.65.76 1.24 2.8 1.17-2.69-2.41-.1Zm7.5.23 1.1 2.49.99-2.48a151.54 151.54 0 0 1-2.08 0Z" fill="url(#a)"/><defs><linearGradient id="a" x1="26.95" y1="19.53" x2="26.95" y2="37.3" gradientUnits="userSpaceOnUse"><stop stop-color="#334798"/><stop offset="1" stop-color="#2D2F79"/></linearGradient></defs></svg>