<!-- by TradingView --><svg width="56" height="56" viewBox="0 0 56 56" xmlns="http://www.w3.org/2000/svg"><path fill="#F0F3FA" d="M0 0h56v56H0z"/><path d="M14.4 34H5.7a.57.57 0 0 1-.53-.35.6.6 0 0 1 .12-.61L13.12 25H5.55c-.32 0-.55-.2-.55-.5 0-.32.26-.5.55-.5h8.9c.22 0 .42.15.5.35a.6.6 0 0 1-.1.61L7 33h7.39c.32 0 .6.2.6.5s-.31.5-.6.5ZM33.11 34A5.07 5.07 0 0 1 28 29c0-2.76 2.27-5 5.11-5a5.4 5.4 0 0 1 4.84 3.2c.12.29 0 .6-.3.72-.29.12-.61 0-.73-.29A4.45 4.45 0 0 0 33.11 25 4.15 4.15 0 0 0 29 29c0 2.15 1.92 4 4.11 4a4.04 4.04 0 0 0 3.75-2.75c.09-.3.42-.47.71-.35.3.09.47.4.36.7A5.05 5.05 0 0 1 33.1 34ZM25.56 24a.56.56 0 0 0-.56.55v.88l-.3.09A5.34 5.34 0 0 0 20.96 24a5.05 5.05 0 0 0-4.93 3.82c-.09.3.12.61.41.67.3.06.62-.12.68-.4.44-1.76 2-3.09 3.81-3.09A4.14 4.14 0 0 1 25 29.01c0 2.16-1.9 3.99-4.08 3.99-1.82 0-3.4-1.3-3.81-3.05a.55.55 0 0 0-.68-.41c-.3.06-.5.38-.4.67A5.03 5.03 0 0 0 20.94 34c1.47 0 2.9-.61 3.82-1.6.08 0 .14.03.23.05v1c0 .32.2.55.5.55.32 0 .5-.23.5-.55v-8.9c0-.31-.12-.55-.44-.55Z" fill="#43ADDD"/><path d="M49 19.55c0-.32-.2-.55-.5-.55-.32 0-.5.26-.5.55v5.75a.99.99 0 0 1-.35.12A5.39 5.39 0 0 0 43.94 24a4.98 4.98 0 0 0-4.92 3.75c-.06.3.12.62.41.68.3.05.61-.12.67-.41A3.95 3.95 0 0 1 43.9 25a4.1 4.1 0 0 1 4.1 3.95A4.19 4.19 0 0 1 43.9 33a4.01 4.01 0 0 1-3.8-3.11c-.08-.3-.38-.5-.67-.41-.3.05-.5.38-.41.67A5.04 5.04 0 0 0 43.94 34c2.75 0 5-2.19 5.06-4.9v-9.55Z" fill="#5C0F8B"/></svg>