<!-- by TradingView --><svg width="56" height="56" viewBox="0 0 56 56" xmlns="http://www.w3.org/2000/svg"><path fill="#F0F3FA" d="M0 0h56v56H0z"/><path d="M25.39 34.12c.56.24 1.7 1.13 1.7 2.84 0 1.14-.22 1.78-.42 2.37-.17.52-.33 1-.33 1.74 0 1.1 1 1.55 1.64 1.56.64 0 1.64-.47 1.64-1.56 0-.74-.16-1.22-.33-1.74-.2-.6-.4-1.23-.4-2.37 0-1.7 1.12-2.6 1.69-2.84-.24.16-.7.95-.7 2.84 0 1.2.27 1.95.54 2.69.26.7.51 1.4.51 2.45 0 2.83-1.04 3.9-2.95 3.9-1.9 0-2.95-1.07-2.95-3.9 0-1.06.26-1.75.52-2.45.27-.74.54-1.49.54-2.7 0-1.88-.47-2.67-.7-2.83Z" fill="#B1895C"/><path d="M30.4 35.29c.21-.28.7-.85 1.62-.85 1.17 0 2.51 1.24 3.32 2.02l.21.2c.82.8 2.04 1.98 3.08 2.14a2.4 2.4 0 0 1-1.31.4c-.55 0-1.08-.56-1.74-1.24-.28-.29-.58-.6-.9-.9a39.1 39.1 0 0 1-.71-.66c-.53-.5-.96-.91-1.34-1.1-.11.17-.2.35-.28.52l-.2.36c-.25.4-.07 1.08.17 2.02l.22.88c.1.42.21.8.32 1.16.27.87.48 1.56.2 2-.32.51-.8.8-1 .89.38-.93-.04-2.47-.32-3.52l-.07-.26c-.27-1.03-.67-2.71-.08-3.66.13-.22.29-.39.45-.51l-.27-.02c-.42-.04-.9-.08-1.37.13ZM30.61 21.88a3.06 3.06 0 0 1-1.7-2.84c0-1.14.22-1.78.42-2.37.17-.52.33-1 .33-1.74 0-1.1-1-1.55-1.64-1.56-.64 0-1.64.47-1.64 1.56 0 .74.16 1.22.33 1.74.2.6.4 1.23.4 2.37 0 1.7-1.12 2.6-1.69 2.84.24-.16.7-.95.7-2.84 0-1.2-.27-1.95-.54-2.69-.26-.7-.51-1.4-.51-2.45 0-2.83 1.04-3.9 2.95-3.9 1.9 0 2.95 1.07 2.95 3.9 0 1.06-.26 1.75-.52 2.45-.27.74-.54 1.49-.54 2.7 0 1.88.47 2.67.7 2.83Z" fill="#B1895C"/><path d="M25.6 20.71c-.21.28-.7.85-1.62.85-1.17 0-2.51-1.24-3.32-2.02l-.21-.2c-.82-.8-2.04-1.98-3.08-2.14a2.4 2.4 0 0 1 1.31-.4c.55 0 1.08.56 1.74 1.24.28.29.58.6.9.9.26.23.5.45.71.66.53.5.96.91 1.34 1.1.11-.17.2-.35.28-.52l.2-.36c.25-.4.07-1.08-.17-2.02l-.22-.88c-.1-.42-.21-.8-.32-1.16-.27-.87-.48-1.56-.2-2 .32-.51.8-.8 1-.89-.38.93.04 2.47.32 3.52l.07.26c.27 1.03.67 2.71.08 3.66-.13.22-.29.39-.45.51l.27.02c.42.04.9.08 1.37-.13ZM31.97 33.33c.48-.37 1.82-.9 3.3-.05a6.59 6.59 0 0 1 1.84 1.54c.35.41.69.79 1.33 1.16.94.54 1.84-.1 2.16-.65.31-.56.42-1.66-.52-2.2a4.9 4.9 0 0 0-1.66-.59c-.62-.12-1.28-.26-2.26-.83a3.06 3.06 0 0 1-1.6-2.9c.02.3.47 1.1 2.1 2.04 1.04.6 1.82.74 2.59.87.74.13 1.46.25 2.37.78 2.44 1.42 2.84 2.86 1.89 4.52-.96 1.65-2.4 2.03-4.84.61a6.38 6.38 0 0 1-1.86-1.67c-.5-.6-1-1.22-2.04-1.82-1.63-.95-2.55-.93-2.8-.8Z" fill="#B1895C"/><path d="M35.48 29.56a1.97 1.97 0 0 1 .08-1.84c.58-1.02 2.33-1.56 3.4-1.88l.28-.08c1.1-.32 2.72-.78 3.38-1.6.03.21 0 .79-.31 1.33-.28.47-1.01.66-1.94.9-.38.1-.8.2-1.22.34l-.92.28c-.7.2-1.27.37-1.62.6.09.2.2.36.3.52l.21.35c.23.42.9.6 1.83.86l.87.25c.4.12.8.22 1.16.3.88.2 1.58.37 1.83.83.28.53.29 1.1.26 1.32-.6-.8-2.15-1.21-3.19-1.49l-.26-.07c-1.03-.28-2.68-.77-3.2-1.76a1.93 1.93 0 0 1-.21-.64l-.15.22c-.25.35-.52.74-.58 1.26ZM24.03 22.67c-.48.37-1.82.9-3.3.05-.97-.57-1.42-1.07-1.84-1.54-.35-.41-.69-.79-1.33-1.16-.94-.54-1.84.1-2.16.65-.31.56-.42 1.66.52 2.2a4.9 4.9 0 0 0 1.66.59c.62.12 1.28.26 2.26.83a3.06 3.06 0 0 1 1.6 2.9c-.02-.3-.47-1.1-2.1-2.04a6.91 6.91 0 0 0-2.59-.87 6.35 6.35 0 0 1-2.37-.78c-2.44-1.42-2.84-2.86-1.89-4.52.96-1.65 2.4-2.03 4.84-.61.91.53 1.38 1.1 1.86 1.67.5.6 1 1.22 2.04 1.82 1.63.95 2.55.93 2.8.8Z" fill="#B1895C"/><path d="M20.52 26.44c.13.33.38 1.03-.08 1.84-.58 1.02-2.33 1.56-3.4 1.88l-.28.08c-1.1.32-2.72.78-3.38 1.6-.03-.21 0-.79.31-1.33.28-.47 1.01-.66 1.94-.9.38-.1.8-.2 1.22-.34l.92-.28c.7-.2 1.27-.37 1.62-.6-.09-.2-.2-.36-.3-.52a4.75 4.75 0 0 1-.21-.35c-.23-.42-.9-.6-1.83-.86l-.87-.25c-.4-.12-.8-.22-1.16-.3-.88-.2-1.58-.37-1.83-.83a2.4 2.4 0 0 1-.26-1.32c.6.8 2.15 1.21 3.19 1.49l.26.07c1.03.28 2.68.77 3.2 1.76.12.22.19.44.21.64l.15-.22c.25-.35.52-.74.58-1.26ZM34.58 27.21a3.06 3.06 0 0 1 1.6-2.89c.98-.57 1.64-.7 2.25-.83.53-.11 1.03-.21 1.67-.58.94-.55.83-1.65.52-2.21-.32-.55-1.23-1.2-2.16-.65-.64.37-.98.75-1.34 1.16-.41.47-.86.97-1.84 1.54-1.47.85-2.8.32-3.3-.05.26.12 1.18.14 2.8-.8 1.04-.61 1.55-1.23 2.05-1.83.48-.58.95-1.14 1.86-1.67 2.44-1.42 3.88-1.04 4.83.62.96 1.65.56 3.1-1.88 4.51-.92.53-1.64.65-2.37.78-.77.13-1.56.27-2.6.87-1.62.94-2.07 1.75-2.09 2.03Z" fill="#B1895C"/><path d="M33.08 22.27a1.95 1.95 0 0 1-1.54-1c-.58-1-.19-2.8.08-3.89l.07-.28c.28-1.12.69-2.76.3-3.75.2.1.69.4 1 .94.27.48.06 1.22-.2 2.14-.1.38-.22.8-.31 1.23l-.22.94a6.69 6.69 0 0 0-.28 1.72h.58c.15-.02.29-.02.42-.02.47.02.96-.48 1.65-1.16l.65-.63c.31-.3.59-.59.84-.86.61-.66 1.1-1.2 1.63-1.17.6.02 1.09.3 1.26.43-.99.13-2.11 1.26-2.87 2.03l-.2.2c-.75.74-2 1.93-3.1 1.9a1.9 1.9 0 0 1-.67-.14l.11.24c.19.39.39.82.8 1.13ZM21.42 28.79c.08.6-.13 2.04-1.6 2.89-.98.57-1.64.7-2.25.83-.53.11-1.03.21-1.67.58-.94.55-.83 1.65-.52 2.21.32.55 1.23 1.2 2.17.65.63-.37.97-.75 1.33-1.16.41-.47.86-.97 1.84-1.54a3.03 3.03 0 0 1 3.3.05c-.26-.12-1.18-.14-2.8.8-1.04.61-1.55 1.23-2.05 1.83-.48.58-.95 1.14-1.86 1.67-2.44 1.42-3.88 1.04-4.83-.62-.96-1.65-.56-3.1 1.88-4.51a6.34 6.34 0 0 1 2.37-.78c.77-.13 1.56-.27 2.6-.87 1.62-.94 2.07-1.75 2.09-2.03Z" fill="#B1895C"/><path d="M22.92 33.73c.35.05 1.08.18 1.54 1 .58 1 .19 2.8-.08 3.89l-.07.28c-.28 1.12-.69 2.76-.3 3.75a2.4 2.4 0 0 1-1-.94c-.27-.48-.06-1.22.2-2.14.1-.38.22-.8.31-1.23l.22-.94c.17-.72.31-1.3.28-1.72h-.58c-.15.02-.29.02-.42.02-.47-.02-.96.48-1.65 1.16l-.65.63c-.31.3-.59.59-.84.86-.61.66-1.1 1.2-1.63 1.17-.6-.02-1.09-.3-1.26-.43.99-.13 2.11-1.26 2.87-2.03l.2-.2c.75-.74 2-1.93 3.1-1.9.26.01.48.07.67.14a9.1 9.1 0 0 1-.11-.24 2.7 2.7 0 0 0-.8-1.13Z" fill="#B1895C"/></svg>