<!-- by TradingView --><svg width="56" height="56" viewBox="0 0 56 56" xmlns="http://www.w3.org/2000/svg"><path fill="#F0F3FA" d="M0 0h56v56H0z"/><path d="m17.42 18 6.85 8.14c.95 1.13.97 2.74.07 3.9L20 35.53c-.49.61-1.43.62-1.93 0l-5.01-6.17a4.7 4.7 0 0 1-.02-5.91L17.42 18ZM38.58 38l-6.85-8.14a3.07 3.07 0 0 1-.07-3.9l4.34-5.5a1.24 1.24 0 0 1 1.93 0l5.01 6.17a4.7 4.7 0 0 1 .02 5.91L38.58 38ZM38 17.42l-8.14 6.85a3.07 3.07 0 0 1-3.9.07L20.47 20a1.24 1.24 0 0 1 0-1.93l6.17-5.01a4.7 4.7 0 0 1 5.91-.02L38 17.42ZM18 38.58l8.14-6.85a3.07 3.07 0 0 1 3.9-.07l5.5 4.34c.61.49.62 1.43 0 1.93l-6.17 5.01a4.7 4.7 0 0 1-5.91.02L18 38.58Z" fill="#E41D24"/></svg>