<!-- by TradingView --><svg width="56" height="56" viewBox="0 0 56 56" xmlns="http://www.w3.org/2000/svg"><path fill="#F0F3FA" d="M0 0h56v56H0z"/><path d="M33.83 26.23c0-.08-.03-.13-.1-.17-.04-.04-.14-.06-.27-.06h-3.19v1.47h2.15c.13 0 .23-.02.3-.06.07-.04.1-.14.1-.3H33v1.64h-.17c0-.16-.04-.26-.11-.3a.52.52 0 0 0-.3-.08h-2.15V30h3.23c.1 0 .17-.02.23-.07s.1-.12.1-.2H34V31h-5.17v-.19c.04 0 .08-.01.11-.04a.19.19 0 0 0 .06-.15v-5.24c0-.06-.02-.1-.06-.14a.15.15 0 0 0-.11-.05V25H34v1.23h-.17ZM51.83 26.23c0-.08-.03-.13-.1-.17-.04-.04-.14-.06-.27-.06h-3.19v1.47h2.15c.13 0 .23-.02.3-.06.07-.04.1-.14.1-.3H51v1.64h-.17c0-.16-.04-.26-.11-.3a.52.52 0 0 0-.3-.08h-2.15V30h3.23c.1 0 .17-.02.23-.07s.1-.12.1-.2H52V31h-5.17v-.19c.04 0 .08-.01.11-.04a.19.19 0 0 0 .06-.15v-5.24c0-.06-.02-.1-.06-.14a.15.15 0 0 0-.11-.05V25H52v1.23h-.17ZM40.72 31v-.2c.19 0 .28-.06.28-.2v-5.2c0-.14-.1-.2-.28-.2V25h1.55v.2c-.18 0-.27.06-.27.2V30h3.5c.1 0 .18-.03.23-.08.07-.05.1-.12.1-.2H46V31h-5.28ZM34.72 31v-.2c.19 0 .28-.06.28-.2v-5.2c0-.14-.1-.2-.28-.2V25h1.55v.2c-.18 0-.27.06-.27.2V30h3.5c.1 0 .18-.03.23-.08.07-.05.1-.12.1-.2H40V31h-5.28ZM22.63 29.12l.11.05c0 .07.02.13.05.18.05.1.15.18.3.27a3.96 3.96 0 0 0 1.77.45c.13 0 .3 0 .5-.02.21-.03.41-.07.61-.13s.37-.14.51-.24c.15-.1.22-.25.22-.42 0-.17-.07-.3-.2-.38-.14-.08-.31-.14-.53-.18a5.1 5.1 0 0 0-.74-.07l-.85-.05a8.08 8.08 0 0 1-.85-.11 2.55 2.55 0 0 1-.74-.26 1.6 1.6 0 0 1-.53-.5c-.13-.22-.2-.5-.2-.85 0-.23.06-.46.17-.68.11-.23.28-.42.51-.6.23-.17.52-.3.87-.41a5.37 5.37 0 0 1 3.05.11c.21.07.4.13.54.2.15.05.28.08.38.08.1 0 .18-.02.23-.07l.13.1-.78 1.4-.12-.05a.61.61 0 0 0-.09-.26.9.9 0 0 0-.3-.26 3.7 3.7 0 0 0-1.1-.4 3.3 3.3 0 0 0-1.68.1c-.14.05-.27.12-.36.21a.4.4 0 0 0-.14.32c0 .18.06.31.2.4.13.1.3.16.52.2.22.05.47.08.74.1.28 0 .57.03.85.05.3.02.57.06.85.12s.53.15.74.27A1.38 1.38 0 0 1 28 29.1c0 .4-.1.71-.32.96-.2.24-.46.44-.78.58a3.7 3.7 0 0 1-1.01.3 8.08 8.08 0 0 1-2.1 0 5.16 5.16 0 0 1-1.19-.38.66.66 0 0 0-.3-.09c-.05 0-.1.03-.14.1l-.16-.1.63-1.35ZM19.69 30.8c.2 0 .31-.07.31-.21V25.4c0-.14-.1-.2-.31-.2V25h1.62v.2c-.2 0-.31.07-.31.21v5.18c0 .14.1.2.31.2V31H19.7v-.2ZM14.5 26c-1.12 0-2.5.8-2.5 2.02 0 1.21 1.37 1.98 2.5 1.98 1.12 0 2.5-.77 2.5-1.98S15.62 26 14.5 26Zm0-1c1.74 0 3.5 1.15 3.5 3.02 0 1.9-1.76 2.98-3.5 2.98S11 29.91 11 28.02c0-1.87 1.76-3.02 3.5-3.02ZM4 30.8a.2.2 0 0 0 .13-.05c.03-.04.05-.1.05-.16v-5.2c0-.07-.02-.12-.05-.14a.2.2 0 0 0-.13-.04V25h1.7v.2a.2.2 0 0 0-.1.04c-.02.02-.04.06-.04.1a5.6 5.6 0 0 0 .12.34l1.36 2.97 1.45-2.93.09-.23a.44.44 0 0 0 .03-.16c0-.08-.04-.12-.12-.12V25h1.7v.2a.2.2 0 0 0-.14.05c-.03.02-.05.07-.05.14v5.2c0 .07.02.12.05.16a.2.2 0 0 0 .13.04V31H8.75v-.2c.17 0 .25-.07.25-.21V26.8h-.02L7 31l-1.98-4.2H5v3.79c0 .14.09.2.26.2V31H4v-.2Z"/></svg>