<!-- by TradingView --><svg width="56" height="56" viewBox="0 0 56 56" xmlns="http://www.w3.org/2000/svg"><path fill="#F0F3FA" d="M0 0h56v56H0z"/><path d="m11 21 12-7 12 7v5.24L22.74 19 15 23.52v9.05l12 7.1L23 42l-12-7V21Zm10 9.22v4.85L33.02 42 45 35.07v-2.2L23.51 20.5 21 21.7v2.03l17.5 9.77-5.48 3.72-12.02-7ZM25.42 27 21 29.32l12.5 7.08 1.5-1.02V32.5L25.42 27ZM29 16.6 45 26v-4.9L33.26 14 29 16.6Z" fill="url(#a)"/><defs><linearGradient id="a" x1="45" y1="28" x2="11" y2="28" gradientUnits="userSpaceOnUse"><stop stop-color="#D5BC60"/><stop offset=".22" stop-color="#A16B24"/><stop offset=".55" stop-color="#ECDE83"/><stop offset=".81" stop-color="#A67227"/><stop offset="1" stop-color="#C6A349"/></linearGradient></defs></svg>