<!-- by TradingView --><svg width="56" height="56" viewBox="0 0 56 56" xmlns="http://www.w3.org/2000/svg"><path fill="#F0F3FA" d="M0 0h56v56H0z"/><circle cx="24.5" cy="17.5" fill="#0072C1" r="2.5"/><circle cx="30.5" cy="32.5" fill="#05A283" r="2.5"/><path d="M13.01 17.6c-.33-4.17 7.21-6.6 11.19-7.5.19-.17.74-.14.9.2.27.6-.29.92-.6 1-2.17.77-6.65 2.97-6.78 5.83-.1 2.3 2.52 4.13 3.84 4.76.42.12 1.2.54.97 1.2-.24.67-.86.59-1.14.47-6.81-1.84-8.26-4.52-8.38-5.96Z" fill="url(#a1mb2bptj)"/><path d="M17.68 30.87c-.51-6.37 11.13-10.05 17.2-11.4.52-.12 1.47-.39 1.64 0 .41.89-.97 1.1-1.45 1.23-3.31 1.17-11.68 4.44-11.68 9.83 0 3.5 4.13 6.3 7.15 7.63.65.2 2.15 1.13 1.91 1.8-.24.66-1.48.39-1.9.2-10.41-2.8-12.7-7.08-12.87-9.29Z" fill="url(#b1mb2bptj)"/><path d="M42.98 34.4c.51 6.36-11.13 10.05-17.2 11.4-.52.12-1.47.38-1.64 0-.41-.9.97-1.1 1.45-1.24 3.32-1.17 11.68-4.44 11.68-9.83 0-3.5-4.12-6.3-7.15-7.63-.65-.19-2.15-1.13-1.9-1.79.23-.66 1.47-.4 1.9-.2 10.4 2.8 12.69 7.07 12.86 9.28Z" fill="url(#c1mb2bptj)"/><defs><linearGradient id="a1mb2bptj" x1="19.09" y1="10" x2="19.09" y2="23.64" gradientUnits="userSpaceOnUse"><stop stop-color="#5CA7DB"/><stop offset="1" stop-color="#0374C2"/></linearGradient><linearGradient id="b1mb2bptj" x1="27.02" y1="19.55" x2="27.02" y2="40.39" gradientUnits="userSpaceOnUse"><stop stop-color="#7DD8A9"/><stop offset="1" stop-color="#0BA585"/></linearGradient><linearGradient id="c1mb2bptj" x1="33.64" y1="45.72" x2="33.64" y2="24.88" gradientUnits="userSpaceOnUse"><stop stop-color="#54A3D9"/><stop offset="1" stop-color="#0273C2"/></linearGradient></defs></svg>