<!-- by TradingView --><svg xmlns="http://www.w3.org/2000/svg" width="56" height="56"><path fill="#F0F3FA" d="M0 0h56v56H0z"/><path d="M15.85 15.14c-.1 1.15.04 3.2.41 5.61.58 3.74 1.6 7.33 2.85 10.26a25.9 25.9 0 003.35 5.65c-1.83-1.32-3.16-3.41-4.14-5.43-2.05-4.21-2.8-9.22-3.2-13.76-.07-.7-.13-1.2-.2-1.54-.25-1.06-1.44-1.08-1.73 0-.07.26-.11.58-.11.96 0 1.55.81 5.73 1.78 9.13a27.83 27.83 0 002.7 6.57c1.1 2.02 2.66 3.6 4.4 5.05-6.1-3.34-8.07-10.64-9.33-17.08-.17-.88-.3-1.44-.44-1.8-.44-1.08-1.5-.4-1.57.5-.05.69.12 1.78.48 3.2 1.45 5.65 3.5 11.73 8.55 15.04.65.43 1.35.74 2 1.15-3.03-.55-5.5-2.8-7.26-5.27a26.41 26.41 0 01-3.33-6.97c-.26-.78-.46-1.34-.62-1.72-.42-1.02-1.04-1.06-1.3-.56-.47.93.35 2.63.67 3.5a24.63 24.63 0 004.93 8.04A15.04 15.04 0 0021 39.81c-3.37-.3-6.07-2.5-8.15-5.1-.44-.55-.78-1.18-1.3-1.66-.66-.68-1.16-.44-1.2.06-.06.63.4 1.22.76 1.7a20.52 20.52 0 007.19 5.9c2.76 1.26 5.33 1.38 7.7.34 1.5-.66 2.66-1.75 3.8-2.9 0 0-.82-.16-1.8-.66-1.6-.8-3.05-2.62-4.04-5.03-1.13-2.78-1.62-5.5-2.02-11.34a15.6 15.6 0 00-.11-1.15c-.12-.81-.3-1.11-.6-1.11-.56 0-.58.7-.6 1.1-.05 1.75.47 5.7 1.25 9.04a44.1 44.1 0 001.87 6.02c-1.96-3.13-2.8-6.73-3.4-10.34a43.5 43.5 0 01-.58-6.73c-.03-.94-.05-1.58-.09-2.03-.11-1.3-1.3-1.23-1.49 0a10.9 10.9 0 00-.03 1.88 44.7 44.7 0 002.6 13.2c.89 2.33 1.56 3.38 2.52 4.93-1.32-1.22-2.24-2.96-2.96-4.71a39.9 39.9 0 01-2.87-14.92l-.01-1.17c-.05-1.35-1.44-1.53-1.59 0z" fill="#01AF40"/><path d="M32.1 35.28c-2.01 4.65-5.32 6.3-6.72 6.54 6.91.64 16.23 0 20.94-9.2.46-.9-.67-1.9-1.54-.34-1.47 2.66-4.1 6.27-8.25 7.21 6.56-2.5 9.67-11.59 10.44-15.47.27-1.38-1.3-1.94-1.64-.16-2.3 12.08-9.18 14.47-9.62 14.58 8.03-4.66 8.96-16.41 9.24-19.63.03-.43-.1-.93-.44-1.16-.52-.37-1.35-.19-1.48 1.16-1.36 14.14-5.47 16.91-7.81 18.68 5.4-4.1 7-15.63 7-21.67 0-1.17-1.92-1.55-1.97 0 0 14.36-3.12 18.02-5.69 20.73 5.47-7.37 5.03-20.4 4.76-21.78-.22-1.11-1.73-1-1.64.22.98 14.24-2.7 19.01-3.78 20.73 3.72-7.42 3.45-14.12 3.23-19.55v-.02c-.22-1.44-1.59-1.1-1.59.22.6 13.42-1.36 16.2-2.4 18.63a38.14 38.14 0 001.84-14.86c-.17-1.34-1.4-1.4-1.24.34.3 2.99.37 10.14-1.64 14.8z" fill="#FFB717"/></svg>