<!-- by TradingView --><svg xmlns="http://www.w3.org/2000/svg" width="56" height="56"><path d="M0 28a28 28 0 1156 0 28 28 0 01-56 0z" fill="#EB048D"/><path d="M11.12 20.94c.21-.17.26-.5.1-.73a.45.45 0 00-.66-.11c-.9.72-2.05 2-2.4 3.5a3.6 3.6 0 00.27 2.4c.39.8 1.1 1.55 2.2 2.2.98.59 1.33 1.15 1.41 1.6.08.46-.07.97-.47 1.54a10.55 10.55 0 01-3.3 2.67.54.54 0 00-.21.7c.12.25.4.35.64.23.95-.53 2.67-1.63 3.62-2.97.47-.68.81-1.5.65-2.37-.16-.88-.8-1.65-1.9-2.3a4.39 4.39 0 01-1.8-1.78 2.49 2.49 0 01-.17-1.68 5.76 5.76 0 012.03-2.91zm2.43-.04c.2-.2.22-.52.04-.73a.46.46 0 00-.68-.04c-.68.66-1.23 1.24-1.66 1.74-.86 1.01-1.32 1.9-1.24 2.72.07.85.7 1.4 1.35 1.82l.02.01h.02c1.92 1.02 2.67 2.37 2.64 3.66-.02 1.31-.86 2.78-2.53 3.98a.54.54 0 00-.13.71c.15.24.45.3.67.14 1.8-1.3 2.91-3.03 2.95-4.81.03-1.81-1.04-3.46-3.17-4.59-.61-.39-.84-.7-.87-1.02-.03-.35.16-.94 1-1.92.4-.48.93-1.03 1.6-1.67zm18.35 2.27c.17.18.12.44-.1.57-.88.53-1.87 1.4-2.15 2.32-.14.45-.1.9.18 1.34.29.46.87.94 1.9 1.41 1.17.52 1.84 1.14 2 1.84.18.7-.18 1.34-.68 1.88-1 1.07-2.82 1.94-3.83 2.36-.24.1-.54.02-.67-.18-.12-.2-.02-.45.23-.56.99-.4 2.62-1.21 3.47-2.12.43-.45.6-.86.5-1.22-.08-.36-.45-.81-1.49-1.28a5.15 5.15 0 01-2.32-1.74 2.23 2.23 0 01-.26-1.93c.36-1.19 1.57-2.2 2.53-2.78.22-.13.53-.1.7.09zm2.13.55c.2-.15.23-.42.04-.58a.58.58 0 00-.7-.03c-.72.52-1.29.98-1.74 1.39-.9.8-1.38 1.51-1.3 2.17.08.68.72 1.12 1.42 1.46h.01l.02.01c2.01.81 2.8 1.9 2.76 2.92-.02 1.06-.9 2.22-2.64 3.19-.23.12-.29.38-.14.57.16.19.47.24.7.11 1.9-1.05 3.05-2.43 3.08-3.85.04-1.45-1.08-2.77-3.3-3.67-.64-.31-.89-.57-.91-.82-.04-.28.16-.75 1.04-1.54.42-.37.97-.82 1.66-1.33zM27 23c.28 0 .5.22.5.5v11a.5.5 0 01-1 0v-11c0-.28.22-.5.5-.5zm21 .54a.5.5 0 00-1 0v11a.5.5 0 101 0v-11zM16.95 25.2c1.96-2.67 5.61-2.87 8.05-1.04v-.66a.5.5 0 011 0v1.3a.7.7 0 01-.7.7.76.76 0 01-.5-.2c-2.04-1.9-5.35-1.81-7.05.5a6.22 6.22 0 00-.97 4.93c.38 1.64 1.46 2.96 3.3 3.28 1.73.3 2.94-.19 3.7-1.03a4.9 4.9 0 001.09-3.6 4.36 4.36 0 00-1.21-3 3.07 3.07 0 00-2.28-.85c-1.63.07-3.25 1.38-3.21 3.81.01 1.03.46 2 1.13 2.6.67.6 1.55.85 2.53.49.56-.2 1-.62 1.3-1.17a.5.5 0 11.88.48 3.46 3.46 0 01-5.37.95 4.6 4.6 0 01-1.47-3.33c-.05-2.98 2-4.73 4.16-4.83a4.08 4.08 0 013.02 1.12 5.35 5.35 0 011.52 3.67 5.9 5.9 0 01-1.35 4.34c-1.03 1.12-2.6 1.68-4.6 1.33a5.03 5.03 0 01-4.11-4.03 7.22 7.22 0 011.14-5.76zm28.42-1c-2.44-1.83-6.09-1.63-8.05 1.04a7.22 7.22 0 00-1.14 5.75 5.03 5.03 0 004.1 4.04c2.02.35 3.58-.2 4.61-1.34a5.9 5.9 0 001.35-4.33 5.35 5.35 0 00-1.52-3.68 4.08 4.08 0 00-3.02-1.12c-2.16.1-4.2 1.86-4.16 4.83A4.6 4.6 0 0039 32.73a3.46 3.46 0 005.38-.95.5.5 0 10-.89-.48c-.3.54-.74.96-1.3 1.17a2.4 2.4 0 01-2.53-.49 3.6 3.6 0 01-1.13-2.6c-.04-2.44 1.58-3.74 3.2-3.82.82-.03 1.65.24 2.29.85.64.6 1.12 1.58 1.2 3a4.9 4.9 0 01-1.08 3.6c-.76.85-1.97 1.33-3.7 1.03-1.84-.31-2.92-1.64-3.3-3.27a6.22 6.22 0 01.97-4.94c1.7-2.3 5.01-2.39 7.04-.5.14.13.32.2.51.2a.7.7 0 00.7-.7v-1.3a.5.5 0 00-1 0v.67z" fill="#fff"/></svg>