<!-- by TradingView --><svg width="56" height="56" viewBox="0 0 56 56" xmlns="http://www.w3.org/2000/svg"><path fill="#F0F3FA" d="M0 0h56v56H0z"/><path fill-rule="evenodd" d="M8 20h40v16H8V20Zm31 13.56c.86-.04 1-.62 1-1.37v-8.51c-.26-.5-.51-.82-.63-.97l-.05-.07a.48.48 0 0 0-.3-.2V22h2.17l3.31 7.28h.05v-5.14c0-.84-.1-1.57-1.05-1.7V22H46v.44c-.85.24-1 .5-1 1.38V34h-.28l-4.2-9.24h-.07v7.1c0 .65.02 1.64.86 1.7V34H39v-.44Zm-3.7-11.12V22H32v.44c.79.17 1 .9 1 1.58V29.85c0 1.6 0 4.15 2.08 4.15 2.13 0 2.23-3.1 2.23-4.59V23.9c0-.55.05-.9.13-1.06.1-.15.28-.29.56-.4V22h-1.85v.44c.34.05.56.2.67.43.12.23.18.65.18 1.27v5.27c0 1.09-.01 3.59-1.63 3.59-.87 0-.87-2.26-.87-3.21V23.85c0-.67-.01-1.36.8-1.41ZM28 29.8h.24c.14 1.26.36 2.18.66 2.75.3.57.65.86 1.04.86.88 0 1.06-1.16 1.06-1.83 0-.88-.32-1.46-.93-2.06l-.54-.55a5.12 5.12 0 0 1-1.14-1.6 5.05 5.05 0 0 1-.39-1.96c0-1.12.33-3.4 1.84-3.4.31 0 .6.1.9.29.28.18.45.28.49.28.09 0 .15-.06.19-.16.04-.11.06-.25.09-.43h.24v3.69h-.23c-.11-.86-.3-1.6-.59-2.21-.28-.62-.62-.93-1.03-.93-.74 0-.9 1.05-.9 1.6 0 1.08.5 1.67 1.23 2.4l.63.63A4.51 4.51 0 0 1 32 30.44c0 1.32-.4 3.56-2.1 3.56-.17 0-.34-.03-.52-.1a1.44 1.44 0 0 1-.35-.22c-.17-.13-.35-.27-.52-.27-.1 0-.15.06-.18.16-.04.1-.06.24-.09.43H28v-4.2Zm-3 2.5c0 .58-.31 1.2-1 1.24-.23.02-.42-.12-.54-.42-.13-.3-.32-.96-.58-1.99L20.58 22h-.28L18 31.53c-.18.75-.32 1.24-.41 1.46-.15.35-.35.54-.6.57v-.01a.95.95 0 0 1-.28-.09c-.06-.04-.12-.13-.18-.27l-2.9-6.7c.9-1.73 1.51-2.81 1.83-3.26.33-.44.73-.7 1.22-.78V22H14v.45c.31.04.48.08.58.15.11.06.17.2.17.43 0 .16-.02.3-.06.42l-.28.56-1.86 3.87v-3.86c0-.72 0-1.44.83-1.57V22H10v.45c.88.09 1 .6 1 1.26v8.6c0 .61-.12 1.2-1 1.24V34h3.37v-.45c-.69-.06-.82-.63-.82-1.25v-3.48l.24-.45 1.54 4.03c.09.2.15.37.18.49.04.12.05.21.05.29 0 .16-.05.26-.15.3a2 2 0 0 1-.6.07V34h5.29v-.44c-.24 0-.41-.04-.53-.1-.2-.12-.3-.3-.3-.55 0-.2.05-.53.14-.98l.08-.32.21-.92h2.31l.26.95.14.6c.05.27.08.48.08.61 0 .3-.05.49-.16.56-.1.08-.32.13-.66.15V34h6.83v-.45c-.72 0-1-.67-1-1.25v-8.6c0-.63.3-1.19 1-1.25V22H24v.45c.7.06 1 .64 1 1.26v8.6ZM20.86 30l-.99-4.13h-.08L18.86 30h2Z" fill="#C22C2D"/></svg>