<!-- by TradingView --><svg width="56" height="56" viewBox="0 0 56 56" xmlns="http://www.w3.org/2000/svg"><path fill="#F0F3FA" d="M0 0h56v56H0z"/><path d="M27.66 15.03v-.02l.03-.01H34.56a.04.04 0 0 1 .02.05l-1.76 12.12c0 .03-.02.05-.05.06a66.8 66.8 0 0 1-7.28 3.03.05.05 0 0 1-.04-.06l2.2-15.17ZM39.1 15h6.88a.04.04 0 0 1 .02.03v.02l-3.62 24.91a.04.04 0 0 1-.04.04h-6.8a.04.04 0 0 1-.03-.01.04.04 0 0 1-.01-.04l3.56-24.91a.04.04 0 0 1 .04-.04Z" fill="#F60"/><path d="M31.74 34.54a73.77 73.77 0 0 1-7.25 2.37c-1.98.54-4 .92-6.04 1.14-.42.04-1.04.07-1.87.1-2 .03-3.9-.31-5.69-1.04a5.71 5.71 0 0 1-1.71-1.06 3.42 3.42 0 0 1-1.17-2.35c-.06-.76.17-1.57.5-2.27.51-1.07 1.22-2.03 1.98-2.93a28.97 28.97 0 0 1 4.24-4.09 37.2 37.2 0 0 1 4.54-2.96A60.74 60.74 0 0 1 25 18.63v.02a47.39 47.39 0 0 0-3.63 2.22 32.47 32.47 0 0 0-6.64 5.95 7.3 7.3 0 0 0-1.3 2.18c-.3.84-.12 1.54.53 2.11a4.1 4.1 0 0 0 2.38.83c1.6.13 3.22-.11 4.86-.47a41.62 41.62 0 0 0 4.24-1.14l.05.02 6.25 4.2ZM31.76 34.47l1.04-7.17.03-.06a60.04 60.04 0 0 0 3.62-1.9l-1.08 7.46a.1.1 0 0 1-.06.08 40.88 40.88 0 0 1-3.53 1.62l-.01-.02v-.01Z" fill="#63666A"/><path d="m31.74 34.54-.78 5.44a.03.03 0 0 1-.02.02h-6.82a.05.05 0 0 1-.04-.03v-.02l.44-3.03c0-.02.01-.02.02-.03a73.78 73.78 0 0 0 7.2-2.35Z" fill="#F60"/></svg>