<!-- by TradingView --><svg width="56" height="56" viewBox="0 0 56 56" xmlns="http://www.w3.org/2000/svg"><path fill="#F0F3FA" d="M0 0h56v56H0z"/><path d="M28 11a17 17 0 1 1 0 34 17 17 0 0 1 0-34Zm-.5 1.67A15.34 15.34 0 0 0 14.62 35.5l-.02.07.07.02c1.24 2.17 3 4.02 5.11 5.36V41h.08a15.26 15.26 0 0 0 7.64 2.33v-1.95l-2.16-10.35-.98.2 2.31 11.1a14.3 14.3 0 0 1-5.89-1.88V29H27v-1h-6.21v-9h-1v9h-6.17c0-7.78 6.17-14.11 13.88-14.38v-.95Zm1.5.98c4.13.29 7.78 2.31 10.22 5.35H29v24.3a15.34 15.34 0 0 0 0-30.6v.95Zm9.24 24.45A14.34 14.34 0 0 1 30 42.25V29h6.34l1.9 9.1Zm-18.46 1.7a14.46 14.46 0 0 1-4.11-4.4l1.12-4.9-.98-.22-.86 3.77a14.3 14.3 0 0 1-1.3-5.05h6.14v10.8ZM42.35 29a14.32 14.32 0 0 1-3.28 8.19L37.36 29h5Zm-6.22-1H30v-8h4.46l1.67 8Zm3.83-8a14.32 14.32 0 0 1 2.42 8h-5.23l-1.67-8h4.48Z" fill="#B7042C"/></svg>