<!-- by TradingView --><svg width="56" height="56" viewBox="0 0 56 56" xmlns="http://www.w3.org/2000/svg"><path fill="#F0F3FA" d="M0 0h56v56H0z"/><path fill-rule="evenodd" d="M30.68 21.68a.78.78 0 0 0-.34-.58 1.3 1.3 0 0 0-.76-.2c-.22 0-.41.03-.57.1a.84.84 0 0 0-.36.26.66.66 0 0 0-.05.71c.06.09.14.17.23.23a3.5 3.5 0 0 0 .68.26l.55.13c.22.05.43.12.63.21.21.09.4.2.56.33a1.45 1.45 0 0 1 .53 1.14 1.58 1.58 0 0 1-1.03 1.51c-.32.15-.72.22-1.2.22-.45 0-.84-.07-1.17-.21-.34-.14-.6-.35-.79-.62-.18-.27-.28-.6-.3-.98h1.04c.02.2.08.37.2.5a1 1 0 0 0 .42.3c.18.07.38.1.6.1.23 0 .43-.03.6-.1a.98.98 0 0 0 .42-.29.7.7 0 0 0 .15-.43.56.56 0 0 0-.14-.38.98.98 0 0 0-.36-.25 3.56 3.56 0 0 0-.55-.18l-.67-.17a2.68 2.68 0 0 1-1.14-.57 1.3 1.3 0 0 1-.41-1c0-.34.09-.65.28-.9.18-.26.44-.46.76-.6.33-.15.7-.22 1.1-.22.42 0 .78.07 1.09.22.31.14.56.34.74.6.18.24.27.53.28.86h-1.02ZM43 20v6h3.5v-1H44v-5h-1Zm4 15h2.06c1.78 0 2.94-1.24 2.94-3 0-1.75-1.13-3-2.9-3H47v6Zm2-1h-1v-4h1.03c1.25 0 1.97.8 1.97 2 0 1.22-.73 2-2 2Zm-3-5v6h-.98l-2.87-4.09H42V35h-1v-6h.99l2.86 4.09H45V29h1Zm-10.79 6h1.12l.48-1.48h2.17l.48 1.48h1.12l-2.04-6h-1.3l-2.03 6Zm3.5-2.35-.8-2.42h-.04l-.78 2.42h1.61ZM31 35v-6h1v5h2.5v1H31Zm-1 0v-6h-1v4.09h-.15L25.99 29H25v6h1v-4.09h.15L29.02 35H30Zm-10 0v-6h3.76v.91H21v1.63h2.57v.91H21V34h2.78v1H20Zm-5-6v6h3.78v-1H16v-1.55h2.57v-.91H16V30h2.76v-1H15Zm-5 6v-6h2.17c1.16 0 2.04.72 2.04 1.92 0 .38-.08.72-.24 1a1.59 1.59 0 0 1-.8.7L14.42 35h-1.17l-1.14-2.2H11V35h-1Zm1-3.1h1.01c.26 0 .48-.04.64-.11a.77.77 0 0 0 .37-.33c.08-.15.12-.33.12-.54 0-.68-.49-.92-1.13-.92H11v1.9Zm-3.28-1.37c.09.12.15.26.2.41h1.03a2.22 2.22 0 0 0-1.5-1.8 2.6 2.6 0 0 0-2.71.66c-.24.26-.42.57-.55.94-.13.37-.19.8-.19 1.27 0 .61.1 1.14.33 1.6.22.44.52.78.91 1.03.4.24.85.36 1.37.36.46 0 .88-.1 1.24-.3.35-.2.64-.47.84-.84.2-.36.31-.8.31-1.3v-.7H6.72v.83h1.3c-.01.27-.07.5-.18.7-.11.21-.27.38-.48.49-.21.11-.46.17-.75.17-.31 0-.59-.08-.83-.24-.23-.16-.42-.39-.55-.7a2.8 2.8 0 0 1-.2-1.12c0-.43.06-.8.2-1.1a1.42 1.42 0 0 1 1.37-.93c.16-.01.32.01.46.06a1.26 1.26 0 0 1 .67.51ZM37.87 26h-1.13l2.06-6h1.3l2.07 6h-1.13l-.49-1.48h-2.2L37.88 26Zm1.6-4.77.8 2.42h-1.63l.79-2.42h.05ZM32 20v1h2v5h.98v-5H37v-1h-5Zm-10.72 6.08h1.13l.49-1.48h2.2l.48 1.48h1.13l-2.06-6h-1.3l-2.07 6Zm3.53-2.35L24 21.3h-.04l-.79 2.42h1.63ZM21 23c0 .63-.11 1.17-.33 1.62A2.34 2.34 0 0 1 18.5 26a2.35 2.35 0 0 1-2.17-1.39A3.66 3.66 0 0 1 16 23c0-.63.1-1.17.33-1.61A2.35 2.35 0 0 1 18.5 20a2.34 2.34 0 0 1 2.17 1.39c.22.44.33.98.33 1.6Zm-1 0c0-.44-.06-.82-.18-1.12-.13-.3-.3-.54-.54-.7a1.34 1.34 0 0 0-.78-.23c-.3 0-.56.08-.78.24-.23.15-.4.38-.54.69-.13.3-.19.68-.19 1.12 0 .44.06.82.2 1.12a1.35 1.35 0 0 0 1.32.93c.29 0 .55-.08.77-.23.23-.16.4-.4.54-.7.12-.3.19-.68.19-1.12Zm-6.04-.95H15a2.45 2.45 0 0 0-.27-.87 2.12 2.12 0 0 0-1.25-1.04 2.75 2.75 0 0 0-2.21.22c-.4.23-.7.58-.93 1.03-.23.44-.34.98-.34 1.6 0 .64.11 1.17.34 1.62A2.46 2.46 0 0 0 12.6 26c.34 0 .64-.05.92-.15A2.3 2.3 0 0 0 15 23.99l-1.04-.01a1.3 1.3 0 0 1-.47.8c-.12.08-.25.15-.4.2a1.6 1.6 0 0 1-1.3-.16 1.57 1.57 0 0 1-.55-.7 2.8 2.8 0 0 1-.2-1.12c0-.44.06-.81.2-1.12.13-.3.32-.53.55-.7.24-.15.52-.23.83-.23.17 0 .33.02.48.07a1.22 1.22 0 0 1 .7.56c.08.14.13.3.16.47Z"/></svg>