<!-- by TradingView --><svg width="56" height="56" viewBox="0 0 56 56" xmlns="http://www.w3.org/2000/svg"><path fill="#F0F3FA" d="M0 0h56v56H0z"/><path d="M44.17 19.1c-2.2-1.76-5.23-2.8-9.1-3.1h-1.69l-1.81 4.18c-.1.24-.03.35.24.33 2.64-.26 5-.01 7.07.74 3 1.1 4.4 3 4.2 5.7-.17 2.38-1.38 4.54-3.64 6.49a22.48 22.48 0 0 1-7.2 4.19c-.04.01-.08.08-.12.2l-.08.34c-.04.13.02.18.18.14a27.92 27.92 0 0 0 9.06-4.48c3.3-2.46 5.17-5.13 5.62-8 .42-2.7-.5-4.94-2.73-6.74ZM19.68 28h7.83c.3 0 .4.16.26.44L25.24 34a.7.7 0 0 1-.47.4 15.4 15.4 0 0 1-5.82.54c-2.12-.22-3.7-1-4.75-2.33-1.1-1.4-1.32-3.08-.63-5.03 1.39-4 4.53-7.03 9.43-9.09 1.58-.66 3.2-1.18 4.89-1.57.1-.03.16-.1.16-.2v-.23c0-.06-.03-.09-.08-.08a28.6 28.6 0 0 0-9.02 2.7 20.83 20.83 0 0 0-7.38 5.77c-2.4 3.08-3.12 6.05-2.16 8.9.96 2.88 3.33 4.74 7.1 5.6 3.9.88 7.96.82 12.17-.16a.7.7 0 0 0 .52-.42l6.96-15.23c.13-.28.04-.57-.28-.57h-13.9c-.13 0-.21.19-.26.3l-2.1 4.61c-.04.07-.01.09.06.09Z" fill="#D6000F"/></svg>