<!-- by TradingView --><svg xmlns="http://www.w3.org/2000/svg" width="56" height="56"><path fill="#009CE2" d="M0 0h56v56H0z"/><path d="M27 26v6h1.53v-6H27zm-2.64-3h-1.54c-.17 0-.14.14-.14.14.03.2.07.54.07 1.23 0 1.54-.18 4.1-1.83 6.2l-.11.15-1.01-7.56s0-.16-.14-.16H18.1c-.14 0-.14.16-.14.16-.04.8-.48 7.98-5.35 9.08a5.52 5.52 0 003.38-.9 5.56 5.56 0 002.55-3.56s.6 3.8.67 4.66v.06l-.04.03a9.42 9.42 0 01-4.46 1.14A9.46 9.46 0 016 27.82 9 9 0 0014.76 35c4.96 0 7.9-4.23 8.42-7.23 0 0 .67 4.09.68 4.23h2.03c-.03-.19-1.38-8.68-1.39-8.81 0 0 0-.19-.14-.19zM7.19 27.04c0-4.63 3.84-8.39 8.54-8.39a8.62 8.62 0 017.2 3.9A8.41 8.41 0 0014.96 17a8.33 8.33 0 00-8.42 8.22c0 1.24.3 2.46.86 3.57a7.96 7.96 0 01-.22-1.73v-.02zm35.62-.52a2.77 2.77 0 00-2.2-.97c-.92 0-1.7.3-2.33.9-.6.6-.92 1.4-.92 2.38 0 .97.3 1.75.9 2.33.6.58 1.46.84 2.54.84 2.1 0 2.55-1.45 2.72-1.92l-.54-.18c-.48.9-1.56.96-2.2.91a2.32 2.32 0 01-1.2-.42c-.32-.24-.54-.59-.64-1.12L38.9 29h4.71c-.03-1.17-.28-1.85-.8-2.47v-.01zM39.01 28c-.07 0-.07-.04-.07-.07.05-.37.2-.55.46-.8.29-.31.73-.48 1.2-.48.42 0 .76.13 1.06.37.24.22.4.4.5.83.01.04.04.15-.07.15H39zm8.52-2.53c-1.8 0-2.43 1.12-2.63 1.64l-.07.19.6.2s.38-1.13 1.9-1.06c1.53.06 1.26 1.36 1.26 1.56a4.22 4.22 0 00-2.77.12c-.99.47-1.15 1.4-1.1 2.07.04 1.01.92 1.75 2.06 1.81 1.02.06 1.39-.2 1.81-.61V32H50v-4.47c0-.78-.48-2.07-2.47-2.07v.01zm1.05 5.02c0 .1-.03.17-.11.22-.26.13-.72.3-1.38.25-.7-.06-.97-.57-1.01-.78-.01-.09-.17-1.03.72-1.32a2.92 2.92 0 011.64.05c.11.03.14.1.14.25v1.34-.01zM28.38 23H27.2c-.19 0-.2.19-.2.19v1.46h1.56v-1.48s-.01-.17-.17-.17zm7.49 0h-1.26c-.13 0-.13.22-.13.22v2.64l-.19-.1c-.2-.1-.4-.17-.6-.21a3.89 3.89 0 00-.76-.06c-1 0-1.8.29-2.4.88-.58.58-.9 1.42-.9 2.45 0 .9.26 1.68.76 2.28.5.6 1.22.9 2.17.9 1.37 0 1.9-.84 1.9-.84V32H36v-8.77s0-.23-.13-.23zm-1.48 7.22a2.17 2.17 0 01-1.4.46c-.5 0-.91-.17-1.2-.52-.3-.34-.45-.85-.45-1.53 0-.67.14-1.16.41-1.46.29-.32.71-.48 1.28-.48a2.27 2.27 0 011.36.43.3.3 0 01.09.22V30a.3.3 0 01-.09.22v.01z" fill="#fff"/></svg>