<!-- by TradingView --><svg width="56" height="56" viewBox="0 0 56 56" xmlns="http://www.w3.org/2000/svg"><path fill="#F0F3FA" d="M0 0h56v56H0z"/><path d="M19.6 17.36c.17-.36.64-1.09 1.08-1.09.54 0 1.63 1.1 1.63.55v-1.64c0-.54 1.08 0 1.62 0s1.09 0 1.63.55c.54.54 1.08.54 1.63 1.09h.54c.54 0 1.63-2.18 2.71-2.18 1.09 0 1.09.54 2.17 0 .87-.44 2.9-.55 3.8-.55-.73.18-2.06.55-1.63.55h1.63c.54 0 .54.54 1.08 0 .44-.44 2.71-1.28 3.8-1.64-1.09.9-3.69 2.73-5.43 2.73-2.17 0-4.88.54-4.88 1.09 0 .54-.54 0-1.08.54-.54.55-1.09 1.1-1.09 1.64 0 .55 4.88 1.64 4.34 4.36l-.54 2.19c.18-.91.33-2.84-.54-3.28.54 1.1.87 3.5-2.17 4.37-.36.18-1.2.54-1.63.54-.54 0-.54 0-2.71.55a18.4 18.4 0 0 0-4.2 1.96l-1.22.76c.3-.2.73-.47 1.22-.76l3.11-1.96a9.36 9.36 0 0 0-6.5 4.36c.36-.18.97-.44.54 0-.54.55-2.71 3.82-1.09 3.82 1.63 0 9.22-6 11.4-4.91 2.16 1.1-4.89 9.27-2.18 9.27 2.72 0 7.6-7.63 14.1-7.09 1.09 0 3.26.22 3.26 1.1 0 1.08 0 .54-.54 1.08-.54.55-1.09 1.64-2.71 2.19.54-.37 1.4-1.2.54-1.64-.67-.33-2 .37-3 1.05.32-.27.53-.5.29-.5-.44 0-2.35.72-3.26 1.09 1.27-.73 3.58-2.19 2.71-2.19-1.08 0-10.84 7.64-12.47 7.64-1.63 0-1.63-1.64-1.09-2.73.55-1.09 4.89-6.9 2.72-7.63-2.17-.73-8.14 6-10.3 6-2.18 0-3.26-1.64-3.26-2.73 0-1.1-.55-4.91 7.59-8.18 8.14-3.28 7.6-2.73 7.6-3.82 0-1.1-1.63-2.18-2.18-1.64-.54.55-.54 1.1-1.08 1.1s-.54-.55-1.09-.55c-.54 0-2.7 0-3.25.54-.54.55-.54 1.64-1.08 1.64-.55 0-1.63 0-1.63.55 0 .54-.54 2.18-2.17 2.18s-2.17-1.1-2.17-1.64c0-.54.54-1.64.54-2.18 0-.55 0-1.1.54-.55.55.55 1.63 1.1 1.63.55s-.54-.55-.54-1.1c0-.54 0-.54.54-.54s1.63 0 1.09.55c-.44.43-.18.54 0 .54s.65-.1 1.08-.54c.54-.55 1.09 0 1.63-.55.54-.54 1.08-.54 1.08-1.09 0-.54 0-.54-.54-.54s0 .54-.54.54-1.09-.54-2.17-.54c-1.09 0-1.09.54-1.63.54-.54 0-1.08-.54-1.63 0-.54.55-.54 1.1-1.08 1.1S12 21.17 12 20.63c0-.55 0-3.82 1.08-3.28 1.09.55 1.09 1.1 1.63 1.1h2.71c.18-.19.65-.55 1.09-.55.54 0 1.08.54 1.63.54.54 0 1.08 0 1.08-.54 0-.55.54-.55-1.63-.55Z" fill="#03447C"/></svg>