<!-- by TradingView --><svg width="56" height="56" viewBox="0 0 56 56" xmlns="http://www.w3.org/2000/svg"><path fill="#5C305E" d="M0 0h56v56H0z"/><path fill-rule="evenodd" d="M18.57 21.26c.05-.03.06-.02.06.04a4.9 4.9 0 0 1-1.04 2.32 10.59 10.59 0 0 1-2.77 2.36c-.37.22-.63.41-.8.58-.03.03-.03.05.02.06l1 .14c.26.03.62.1 1.08.2.25.07.45.11.6.14.7.15 1.28-.02 1.74-.51l.7-.77c.05-.07.1-.15.14-.24 0-.01.01-.02.03-.02a14.57 14.57 0 0 1 .7 1.22c.18.37.4.65.66.86.31.24.64.33.99.26.4-.08.7-.34.93-.76a.07.07 0 0 0 0-.07 2.18 2.18 0 0 0-1.6-1.27l-.68-.16c-.31-.07-.57-.2-.76-.39a67.05 67.05 0 0 1 .55-1.17c.13-.23.22-.44.28-.62.16-.46.34-1.13.54-1.99.06-.23.12-.59.19-1.05l.13-.8c.05-.27.11-.45.18-.51.36-.36.77-.62 1.23-.8.72-.3 1.46-.54 2.23-.74.32-.09.56-.21.72-.37.2-.2.24-.45.14-.75-.08-.25-.25-.5-.51-.77a4.04 4.04 0 0 0-1.24-.85c-.11-.03-.23-.01-.37.05l-.65.34c-.58.3-.98.48-1.23.56-.03 0-.04 0-.04-.03l.08-2.16c0-.14 0-.25-.03-.32a3.98 3.98 0 0 0-1.15-1.61 3.6 3.6 0 0 0-.98-.65c-.02-.02-.04 0-.05.01-.46.88-.68 1.71-.66 2.5v.91c0 .79-.08 1.5-.26 2.16-.07.3-.25.5-.5.63l-.4.2a340.57 340.57 0 0 1-2.64 1.56l-.48-.39a.04.04 0 0 0-.04 0l-.02.03c.06.99.28 1.75.65 2.29.36.51.86.9 1.48 1.16.28.12.56.1.83-.04.15-.08.26-.14.3-.19l.72-.58Zm3.08 1.33.67.76c.13.14.34.4.61.77l2.44 3.3c.12.17.24.29.37.37.39.24.77.38 1.14.4.45.02.8-.12 1.06-.45.4-.5.34-1.12-.18-1.85-.34-.49-.67-.9-.99-1.27-.42-.5-.96-.96-1.62-1.38a10.6 10.6 0 0 0-4.02-1.53c-.02 0-.03 0-.02.03.12.28.3.57.54.85Zm15.03 1.89v-.01l.04-.4c0-.1.06-.23.15-.37l.08-.13c.22-.34.34-.6.37-.8a.68.68 0 0 0-.28-.68 1.71 1.71 0 0 0-.75-.3c-.4-.08-.66-.1-.8-.07-.14.04-.25.07-.35.12-.26.1-.41.3-.46.57l.01.07c.26.37.58.65.96.83.08.03.08.07 0 .1a.32.32 0 0 0-.11.08.1.1 0 0 0-.03.07v.46c0 .02 0 .03-.03.02a.82.82 0 0 1-.44-.28c-.12-.17-.24-.4-.36-.7-.13-.35-.39-.58-.76-.7-.03 0-.05 0-.06.03-.18.29-.3.63-.37 1.03a9.57 9.57 0 0 0-.09 1.27c0 .26-.03.65-.07 1.15-.04.58-.04 1.16 0 1.74a909.63 909.63 0 0 1 .28 3.15l-.35.3h-.01c-.13-.64-.28-1.48-.43-2.54a6.62 6.62 0 0 1-.04-.81v-.1c0-.2-.02-.43-.07-.68-.09-.44-.13-.8-.13-1.07 0-.4.07-.74.22-1.02.21-.38.33-.68.37-.9.04-.33-.04-.64-.27-.92a1.6 1.6 0 0 0-1.13-.61.08.08 0 0 0-.09.04c-.13.23-.17.6-.13 1.14.12 1.33.2 2.44.23 3.32l.01.88a6 6 0 0 0 .05.86 294.47 294.47 0 0 1 .38 2.96h-.27c-.01 0-.02 0-.02-.02l-.28-1.67c-.07-.42-.13-.9-.17-1.43-.06-.62-.12-1.27-.2-1.94a5.23 5.23 0 0 1 .15-1.83c.03-.1-.01-.23-.12-.39-.32-.47-.71-.9-1.17-1.3a1.3 1.3 0 0 0-.28-.18c-.03-.02-.05 0-.06.02-.14.43-.2.89-.19 1.37 0 .39.04.79.09 1.2l.13 1.12.22 2.16c.05.49.11.91.2 1.27.15.66.28 1.28.37 1.85 0 .04 0 .07-.05.07-.86.14-1.68.3-2.46.5-.13.04-.34.1-.63.22-.12.05-.21.16-.27.35l.01.07c.39.64.8.97 1.25.98.23 0 .43-.02.6-.07.51-.14.93-.25 1.25-.32.05-.01.06 0 .02.04-.92.98-1.1 1.67-.55 2.09.22.16.42.26.6.3.24.06.48.03.74-.08a.6.6 0 0 0 .24-.23 19.2 19.2 0 0 1 1.53-2.01c0-.01 0-.02-.02-.02-.28.01-.57 0-.86-.03a1.06 1.06 0 0 1-.63-.27.04.04 0 0 1-.02-.04c0-.01.01-.03.03-.03.2-.1.44-.16.71-.2l1.1-.15 1.07-.17c1.56-.3 3.15-.46 4.78-.47.36 0 .72.01 1.07.05l1.08.1c.1 0 .23.03.37.08.25.09.46.13.62.13.2 0 .4-.08.57-.23.24-.2.3-.43.15-.72-.11-.24-.3-.43-.57-.58a2.79 2.79 0 0 0-1.5-.36c-.5.02-1.05.04-1.65.08-.04 0-.06 0-.06-.04-.02-.26-.02-.5.02-.68a196 196 0 0 0 .82-4.16c.04-.23.1-.42.17-.57l.02-.04c.23-.46.38-.82.46-1.07.12-.44.12-.81 0-1.13-.1-.28-.24-.5-.4-.65-.62-.58-1.28-.6-1.98-.08a4.94 4.94 0 0 0-1.57 2.01Zm1.75 1.72c0 .04-.03.05-.07.05a4.31 4.31 0 0 0-1.72.04l-.07.02c-.03 0-.04 0-.04-.03l.22-.79c.2-.63.58-1.1 1.16-1.4l.56-.26c.2-.09.32-.04.34.15.02.23 0 .47-.04.73l-.34 1.49Zm-3.07-.36c0 .04-.02.06-.07.04-.55-.17-.74-.56-.55-1.18 0-.03.03-.04.05-.03.22.1.38.26.47.48.07.18.1.4.1.69Zm-.1.94-.39.05c-.02 0-.02.01-.02.03v.99c0 .05.02.06.05.02.27-.29.4-.64.38-1.07l-.01-.02Zm2.2.53c-.35.53-.75.99-1.18 1.38-.05.04-.07.03-.07-.03l.09-1.4c0-.03.01-.04.04-.05.42-.05.78-.04 1.1.03.02 0 .03.01.03.03v.04Zm.6 1.35c0-.04 0-.05-.03-.02-.13.13-.4.32-.8.55l-.24.15c-.08.04-.17.13-.28.25-.02.02-.02.04 0 .06.1.1.22.2.36.28a4 4 0 0 0 .86.35c.02 0 .03 0 .04-.02l.1-1.6Zm-3.4 2.55c-.02 0-.03 0-.03-.02l.4-1.47c.01-.07.03-.07.04 0l.17 1.39c0 .02-.01.03-.04.03l-.55.07Zm1.53-.13.8-.04c.01 0 .02 0 .03-.02l-.01-.04-.89-.74a.03.03 0 0 0-.04 0s-.02.01-.01.03l.08.78c0 .02.02.03.04.03Zm-2.5 0 .09.22c.01.03 0 .05-.03.06l-.33.04c-.03 0-.04-.01-.02-.03l.25-.3c.02-.01.03-.01.04.01Zm4.93 3.46a5.17 5.17 0 0 0 1.19 1.85c.2.19.4.33.62.43.06.03.13.02.22-.02.22-.11.41-.32.57-.62.15-.3.21-.58.17-.8a3.11 3.11 0 0 0-.82-1.5c-.4-.41-.89-.63-1.46-.67-.1 0-.18.02-.25.07-.34.26-.42.68-.24 1.26Z" fill="#F9CB89"/><path fill-rule="evenodd" d="M19.19 32.04a5.63 5.63 0 0 0-.36-.02.6.6 0 0 0-.11-.02c-.06 0-.09.03-.1.08v.03c0 .05.02.07.07.08.05 0 .12.02.21.05.13.04.22.06.29.06l.5-.05c.05-.01.11-.05.2-.11.02-.02.03-.05.02-.08-.01-.02-.03-.04-.06-.05a1.5 1.5 0 0 0-.44 0l-.22.03Zm-2.8.65a.76.76 0 0 1 .01-.35c.01-.02.03-.03.05-.03a11.48 11.48 0 0 0 1.26 0c.05 0 .11 0 .18-.03h.08c.13.04.27.04.43.01.1-.01.14-.06.13-.15 0-.08-.05-.13-.15-.12l-2.25.02c-.05 0-.07.02-.08.06-.02.2-.04.38-.04.54 0 .03 0 .08.04.13l.01.02c.01.03.01.05 0 .07a.63.63 0 0 0 0 .45.1.1 0 0 1 0 .07.3.3 0 0 0 0 .19c0 .02 0 .04-.02.07a.48.48 0 0 0-.04.2l.01 1.25c0 .06.02.1.05.17.04.08.04.18 0 .3-.02.03-.02.05-.01.07 0 .04.02.08.05.12.01.02.02.04 0 .06a.76.76 0 0 0-.02.49c.02.05.01.12-.02.22a.52.52 0 0 0-.02.19c0 .1.06.18.15.22.07.02.17.04.3.03a10.13 10.13 0 0 1 .76-.01.35.35 0 0 1 .25-.05c.15.03.34.04.55 0 .02 0 .04-.01.05-.03a.06.06 0 0 0 0-.06c-.04-.08-.11-.12-.22-.13-.3-.02-.5-.01-.62.01a.64.64 0 0 1-.3 0 .7.7 0 0 0-.35 0 .13.13 0 0 1-.12-.02.11.11 0 0 1-.05-.11.87.87 0 0 0 0-.37.81.81 0 0 1-.05-.31 5 5 0 0 1 .04-.3c.02-.1.02-.2.01-.3a2.56 2.56 0 0 0-.04-.32.6.6 0 0 1-.01-.27c0-.05 0-.15-.02-.28-.01-.11 0-.24.01-.38.01-.05 0-.14-.02-.28a2.55 2.55 0 0 1 .04-.78.68.68 0 0 0 0-.28Zm5.13-.25c-.09-.02-.16-.08-.2-.18-.01-.03-.03-.04-.07-.02-.07.03-.13.03-.18 0a.1.1 0 0 0-.07 0 .57.57 0 0 1-.25 0c-.02 0-.05 0-.07.02a.44.44 0 0 1-.34.03 2.08 2.08 0 0 0-.28-.07c-.05-.01-.08-.04-.09-.09v-.02c0-.07.03-.1.1-.09.52.05.9.05 1.15.02.21-.03.4-.03.6.01.05.01.1.04.1.1l.03.08c.03.1.04.16.03.21v.37c0 .06 0 .14-.02.23l-.02.1.01.08c.04.08.06.15.05.2-.04.2-.05.4-.04.57 0 .09 0 .21-.03.37a3.5 3.5 0 0 0-.04.38.5.5 0 0 0 .03.2c.03.09.04.16.02.2a1.1 1.1 0 0 0-.03.6c0 .05 0 .12-.02.2a.44.44 0 0 0-.03.14 9.4 9.4 0 0 1 .02.71c.03.05.02.1-.02.13-.04.04-.1.05-.2.02a.18.18 0 0 0-.06-.01l-1.08.04-.08.01c-.1.04-.2.02-.3-.05a.08.08 0 0 0-.08 0c-.1.04-.17.03-.21-.01-.02-.02-.04-.02-.07 0l-.03.01a.22.22 0 0 1-.15.05 10.62 10.62 0 0 1-.52-.06c-.1.04-.2.04-.3 0a.14.14 0 0 0-.08 0 .82.82 0 0 1-.51-.05c-.05-.02-.07-.05-.06-.1 0-.04.03-.07.08-.08a.5.5 0 0 1 .21 0c.14.03.25.05.36.05a7.06 7.06 0 0 1 .98.02c.07 0 .14 0 .22-.02l.45-.01.2-.02c.13 0 .25 0 .36.03.14.04.29 0 .44-.1a.3.3 0 0 0 .11-.2c0-.05.03-.1.05-.2.01-.02 0-.04 0-.07-.1-.14-.08-.3.02-.47a.06.06 0 0 0 0-.06.85.85 0 0 1-.03-.57v-.06c-.05-.08-.07-.13-.06-.16a16.68 16.68 0 0 0 .07-1.45.28.28 0 0 0 .04-.1.1.1 0 0 0 0-.06.46.46 0 0 1 0-.41v-.08l-.07-.09a.11.11 0 0 1-.02-.07l.02-.1c0-.02 0-.04-.04-.05Zm-3.21 1a1.31 1.31 0 0 0-.32-.05c-.05 0-.08-.02-.07-.07.03-.22-.04-.35-.22-.4a.1.1 0 0 0-.09 0 .08.08 0 0 0-.04.08c0 .1-.02.2-.06.3 0 .02-.02.03-.05.04a.34.34 0 0 0-.15.08.47.47 0 0 1-.2.1l-.38.1c-.05.02-.07.06-.06.12v.02c.01.03.03.05.06.06.03.02.06.02.09 0l.6-.22c.07-.02.1 0 .13.05a.3.3 0 0 1 0 .26.06.06 0 0 1-.05.03.6.6 0 0 0-.3.09c-.06.04-.11.11-.16.23a.98.98 0 0 0-.08.3 4 4 0 0 1-.06.84c-.03.17-.12.38-.29.65-.03.05-.03.1.02.12.02.02.04.02.06.01l.16-.07a.26.26 0 0 0 .1-.1c.13-.25.2-.48.2-.69l.04-.37.05-.4c0-.13.01-.2.04-.25.05-.1.13-.15.24-.16.12 0 .33.01.63.06.02 0 .04.02.05.04.02.08.04.2.04.35 0 .12 0 .21.02.26l.03.2.01.2c.12.26.19.43.2.51.01.05.04.1.08.16l.08.12c.03.07.07.1.15.1l.1.02c.06-.02.08-.04.05-.09-.13-.2-.21-.37-.24-.51a1.41 1.41 0 0 0-.06-.21.42.42 0 0 1-.05-.21.84.84 0 0 0-.05-.3.83.83 0 0 1-.02-.3v-.13c-.03-.06-.04-.1-.02-.15a.1.1 0 0 0 0-.1.18.18 0 0 0-.1-.08l-.44-.15c-.06-.03-.1-.07-.1-.13v-.16c0-.06.04-.08.1-.05.03.02.12.04.26.04.12.01.25.05.38.12.06.03.13.05.23.07l.19.04c.03.01.05 0 .07-.02v-.02c.02-.02.01-.04 0-.05-.38-.19-.64-.3-.8-.33Zm2.7 1.29-.14-.25c-.05-.1-.05-.18.01-.25a.45.45 0 0 1 .1-.07c.06-.02.09-.05.1-.07 0-.02 0-.04-.02-.05l-.1-.06c-.11-.06-.1-.1.02-.13l.08-.01c.1-.02.1-.05.02-.1l-.12-.07c-.1-.05-.09-.1 0-.13.1-.04.16-.12.18-.23 0-.03.02-.05.05-.06a.09.09 0 0 1 .07 0h.03c.05.02.07.06.07.1 0 .2 0 .37.03.5.02.13 0 .22-.04.3-.05.1-.14.14-.27.13-.1 0-.11.03-.04.1.12.08.18.2.2.36.02.1.03.18.02.26a.78.78 0 0 0 0 .25l.02.3c0 .16 0 .28.02.36 0 .03 0 .05-.03.06l-.18.06h-.06l-.02-.05a.33.33 0 0 0-.01-.2.1.1 0 0 1 0-.07.75.75 0 0 0-.04-.48.06.06 0 0 0-.04-.03l-.5-.22c-.07-.04-.1-.1-.1-.18v-.05c0-.02.01-.03.03-.04h.05c.22.16.36.23.41.2.01 0 .02 0 .02-.02l-.01-.02a.84.84 0 0 1-.33-.34.05.05 0 0 1 0-.06.06.06 0 0 1 .05-.03h.03c.06.01.11.04.14.08.07.1.17.18.29.23.02.01.02 0 .01-.02Zm-1.45-.93c0-.02 0-.04.02-.06l.13-.1c.07-.05.06-.1-.03-.11-.07-.02-.11-.07-.12-.16 0-.06-.03-.09-.1-.09h-.11c-.05 0-.08.03-.07.07l.06.42c0 .02 0 .05-.02.07a.4.4 0 0 0 .04.38.1.1 0 0 0 .05.05.6.6 0 0 0 .2.02c.03 0 .05.02.04.04-.02.07-.08.14-.19.22a.8.8 0 0 0-.07.06c-.08.09-.1.17-.04.26.05.08.07.16.05.24l-.02.3c0 .14-.01.25-.04.32-.02.1-.02.17.02.23.05.06.12.1.22.1.05 0 .08-.03.08-.08l-.02-.3.01-.07a.5.5 0 0 0 .07-.3c0-.04.02-.06.06-.08.12-.03.22-.1.3-.2a.6.6 0 0 0 .1-.16c.03-.06.01-.11-.03-.16-.03-.03-.05-.03-.07 0l-.2.22a.05.05 0 0 1-.04.02h-.03c-.02 0-.02-.01-.02-.03.07-.11.16-.2.27-.27.06-.03.07-.07.03-.12l-.02-.02c-.04-.06-.08-.06-.13-.02l-.27.25c-.03.03-.06.03-.09-.01-.02-.04-.03-.08-.02-.1.01-.03.03-.04.06-.04.08 0 .14-.04.17-.12l.05-.2c0-.03 0-.04-.03-.05l-.16-.07c-.02-.02-.04-.04-.04-.06 0-.03.01-.05.04-.07l.08-.04c.03-.01.04-.03.04-.06 0-.04-.06-.07-.16-.08-.02 0-.04-.02-.05-.04Zm.5.4a.54.54 0 0 1 .17-.56.06.06 0 0 1 .07-.01l.24.1.03.04.01.23a.25.25 0 0 0-.1-.15c-.03-.02-.05-.02-.08 0l-.1.1c-.03.02-.05.02-.08.01l-.07-.03c-.03-.01-.05 0-.06.03-.01.09 0 .18.05.27.02.04.04.06.07.07h.1a.82.82 0 0 0 .17-.04.2.2 0 0 0 .09-.11.33.33 0 0 0 .01-.08l.01.15c0 .04.02.06.06.08h.04c.06-.02.1-.05.1-.1.03-.28.03-.54-.01-.79a.16.16 0 0 0-.07-.11.19.19 0 0 0-.14-.03l-.65.07c-.02 0-.03.01-.04.03-.06.27-.06.53 0 .8.02.05.05.08.1.09h.04c.03 0 .05-.02.04-.05Zm.07-.68c.16.04.28.03.38-.02.04-.03.04-.04-.01-.03a.33.33 0 0 1-.2-.07c-.03-.02-.05-.01-.08 0l-.1.1c-.01.01 0 .02.01.02Zm-2 1.03c0 .03-.02.05-.05.05l-.42.03c-.15 0-.22-.03-.21-.11 0-.09.08-.12.22-.1l.41.07c.03 0 .05.02.05.06Zm-.8.5c0 .03.02.05.06.04l.49-.1c.03 0 .05-.02.04-.05v-.02c-.01-.04-.04-.07-.1-.1a.27.27 0 0 0-.15 0l-.16.02a.27.27 0 0 0-.15.07c-.03.04-.05.08-.04.12v.02Z" fill="#E63C2E"/><path fill-rule="evenodd" d="M39.45 41.99c.34.01.65-.08.92-.29.03-.02.04-.01.04.02 0 .15.07.23.18.26.27.07.4-.06.41-.4v-.8c0-.23-.12-.35-.38-.35h-.79c-.16 0-.24.08-.25.24 0 .16.07.24.23.24h.56c.02 0 .03.01.02.03-.16.4-.46.59-.9.57-.5-.02-.78-.28-.87-.78-.05-.26-.01-.52.11-.76a.8.8 0 0 1 .6-.46c.3-.05.6 0 .86.17l.16.14a.9.9 0 0 0 .18.15c.1.05.2.06.28.03.1-.03.14-.1.15-.2.01-.15-.08-.3-.29-.46a1.44 1.44 0 0 0-.51-.26c-.4-.1-.76-.1-1.1-.02-.38.1-.66.3-.84.6-.19.32-.25.68-.2 1.07.1.8.58 1.23 1.43 1.26Zm-3.73-1.66.58.64c.05.05.07.05.07-.02v-1.68c0-.18.1-.27.3-.26h.02c.2 0 .31.1.31.28v2.4c0 .23-.1.33-.33.3a.43.43 0 0 1-.26-.1 295.04 295.04 0 0 1-1.7-1.86c-.05-.05-.08-.05-.08.02v1.68c0 .18-.1.27-.3.26h-.02c-.2 0-.3-.1-.3-.28v-2.4c0-.23.1-.33.32-.3.1 0 .19.04.26.1l1.13 1.22ZM23.32 39h-.08c-.13 0-.24.1-.24.24v2.52c0 .13.1.24.24.24h.08c.13 0 .23-.1.23-.24v-2.52c0-.13-.1-.24-.23-.24Zm6.18 1.2h.84c.03 0 .05-.02.05-.05v-.86c0-.19.1-.28.3-.27h.01c.2 0 .3.1.3.29v2.41c0 .18-.1.27-.3.28h-.01c-.2-.02-.3-.11-.3-.3v-.97c0-.03-.02-.04-.05-.04a34.08 34.08 0 0 0-1.67 0c-.04 0-.06.01-.05.04v.97c0 .19-.1.28-.31.3h-.01c-.2 0-.3-.1-.3-.28v-2.41c0-.2.1-.29.3-.3h.01c.2 0 .3.1.3.28v.86c0 .03.02.05.05.05h.84Zm2.73-1.2h.09c.13 0 .23.1.23.24v2.53c0 .13-.1.23-.24.23h-.08a.23.23 0 0 1-.23-.24v-2.52c0-.13.1-.24.23-.24ZM16 39.52c0-.02-.02-.03-.04-.03h-.87c-.16 0-.24-.08-.25-.23v-.02c0-.16.08-.24.24-.24h2.5c.15 0 .24.08.26.23v.03c-.02.15-.1.23-.24.23h-.95c-.02 0-.03.01-.03.03v2.18c0 .2-.1.3-.3.3h-.02c-.2 0-.3-.11-.3-.32v-2.16Zm4.18-.52c.14 0 .25.05.3.15l1.28 2.4c.09.18.05.3-.12.4l-.04.01c-.16.08-.28.04-.37-.12l-.25-.43a.05.05 0 0 0-.05-.03 94.18 94.18 0 0 0-1.51 0 .05.05 0 0 0-.05.03l-.24.43c-.1.16-.22.2-.38.12l-.04-.02c-.17-.08-.2-.21-.11-.39l1.27-2.4c.06-.1.16-.15.3-.15Zm-.55 1.85.53-1.05c0-.01 0-.02.02-.02l.02.02.52 1.06c.01.02 0 .03-.02.03h-1.05c-.03 0-.03-.01-.02-.04Z" fill="#A87DB2"/></svg>