<!-- by TradingView --><svg width="56" height="56" viewBox="0 0 56 56" xmlns="http://www.w3.org/2000/svg"><path fill="#F0F3FA" d="M0 0h56v56H0z"/><path d="M18.04 44a2.96 2.96 0 0 1-2.46-3.14c0-.14-.07-.27-.24-.41a.48.48 0 0 0-.3-.1h-.34c-.91-.06-1.43-.43-1.98-1.12-.27-.33-.45-.7-.54-1.09-.06-.22-.18-.6-.18-1.18V19.37c0-.47 0-.81.04-1.05.16-.96.63-1.67 1.41-2.14.44-.26.72-.4 1.25-.4.25 0 .42-.03.5-.08.2-.12.29-.28.29-.5a2.91 2.91 0 0 1 2.09-3.03 3.5 3.5 0 0 1 1.1-.17H37c.66 0 1.14.05 1.43.15a2.9 2.9 0 0 1 1.95 2.67c0 .24.01.4.04.47a.6.6 0 0 0 .28.32c.08.04.2.06.4.06.98 0 1.59.37 2.2 1.12.25.3.42.65.52 1.04.06.24.17.62.17 1.14v17.61a6 6 0 0 1-.15 1.67c-.2.63-.61 1.15-1.24 1.55a2.3 2.3 0 0 1-1.4.44.9.9 0 0 0-.45.1c-.22.14-.26.33-.26.6a2.9 2.9 0 0 1-2.07 2.89c-.24.07-.58.16-1.03.17H18.04Zm-.57-28.22 20.95-.11a.55.55 0 0 0 .55-.55v-.13a1.55 1.55 0 0 0-.48-1.1 1.61 1.61 0 0 0-1.14-.46l-18.83.1a1.64 1.64 0 0 0-1.14.46 1.57 1.57 0 0 0-.46 1.12v.12a.55.55 0 0 0 .55.55Zm22.94 1.88.07 20.79a.55.55 0 0 0 .56.55h.14c.41 0 .63-.18.92-.48.29-.3.45-.72.45-1.15l-.07-18.65a1.67 1.67 0 0 0-.46-1.14 1.55 1.55 0 0 0-.5-.35c-.19-.08-.21-.12-.41-.12h-.15a.55.55 0 0 0-.55.55Zm-9-.08a.59.59 0 0 0-.6-.58h-5.76c-.15 0-.3.1-.41.22a.59.59 0 0 0-.17.41l.02 2.14a.59.59 0 0 0 .59.59l5.76-.05a.58.58 0 0 0 .58-.59l-.01-2.14Zm7.59-.02c0-.15-.1-.3-.2-.4a.56.56 0 0 0-.41-.16h-4.87c-.15 0-.3.07-.4.17-.1.11-.12.26-.12.4v2.16c0 .15.03.3.13.4.11.11.25.17.4.17l4.87-.01c.15 0 .3-.06.4-.17.11-.11.2-.26.2-.4v-2.16Zm-16 .06c0-.3-.37-.62-.66-.62h-4.82c-.32 0-.52.35-.52.66v2.16c0 .23.11.44.32.53.07.03.15.04.22.04l4.82-.03c.32 0 .64-.27.64-.58v-2.16Zm-7.41 20.83-.1-20.7a.55.55 0 0 0-.56-.54h-.13c-.2 0-.2.05-.39.13a1.57 1.57 0 0 0-.84.87c-.08.2-.12.4-.12.6l.1 18.6c0 .2.04.42.12.61.23.55.63.98 1.24.98h.13a.54.54 0 0 0 .55-.55ZM36.5 23.89c.14-.23.28-.31.57-.32h.38c.18.05.33.14.43.3.07.12.1.28.1.48v1.1c0 .14.06.26.18.35.29.23.43.21.68-.05.1-.1.15-.23.15-.38v-2.69c0-.22-.07-.39-.16-.5-.12-.13-.3-.18-.54-.18h-4.62c-.22 0-.38.04-.48.11-.15.12-.2.29-.2.51v2.66c0 .23.04.41.18.54.1.1.26.18.49.18h2.17c.24 0 .42-.13.53-.34.04-.09.06-.23.06-.44v-1.05c0-.11.03-.2.08-.28Zm-8.52-.29c.3 0 .51.03.68.3.07.1.1.25.1.46v1.03c0 .23.08.4.25.5.1.06.26.1.5.11h1.14c.24 0 .42-.05.52-.11.17-.1.26-.28.26-.53l-.02-2.62c0-.22-.03-.38-.1-.48-.14-.17-.3-.26-.47-.26h-5.8c-.17 0-.33.11-.47.3-.07.09-.1.25-.1.47v2.62c0 .25.1.42.27.52.1.06.28.1.52.1l1.2-.01c.24 0 .4-.04.5-.1.17-.1.25-.27.25-.5l-.01-1.04c0-.2.03-.36.09-.46.17-.26.39-.3.69-.3ZM23 22.63c0-.33-.34-.63-.66-.63h-4.8c-.35 0-.54.34-.54.67v2.75c0 .33.25.58.57.58h4.8c.31 0 .63-.31.63-.62v-2.75Zm14.65 6.92c.29.14.35.41.35.73v8c0 .19.03.33.1.43.1.16.12.25.3.28.79.13.6-1.41.6-1.41v-9.39c0-.23-.05-.4-.11-.5-.1-.14-.27-.21-.54-.21h-4.66a.76.76 0 0 0-.57.2c-.08.09-.12.25-.12.48v10.1c0 .3.1.52.27.64.12.08.32.1.6.1h2.07c.14 0 .27-.07.36-.17.1-.1.13-.24.13-.38.02-2.73 0-5.44 0-8.16 0-.26.03-.43.1-.53.1-.16.27-.26.5-.29.24-.03.45 0 .62.08ZM17 38.28c0 .25.07.44.2.58.18.19.46.23.82.14.36-.1.47-.53.44-.84l-.04-.48v-5.9l-.03-.81a5.11 5.11 0 0 1 0-.82c.04-.33.21-.53.52-.6.2-.04.4-.04.56 0 .34.1.53.36.53.7v8.05c0 .28.06.47.27.59.18.1.38.13.6.11h1.44c.21 0 .36-.1.46-.17.16-.11.23-.3.23-.56v-10.1a.62.62 0 0 0-.33-.57.96.96 0 0 0-.47-.1h-3.13c-.07 0-.12.05-.21.05h-1.24c-.47 0-.62.34-.62.75v9.98Zm11-8.76c.2 0 .31-.03.46.06.21.13.32.33.32.6 0 2.78.01 5.64.04 8.16 0 .48.25.68.73.66h1.13c.77 0 .75-1.16.75-1.63-.02-3.17.04-6.17 0-9.34a.55.55 0 0 0-.54-.54 318.68 318.68 0 0 0-5.85.03.55.55 0 0 0-.54.55 2252.44 2252.44 0 0 1 .05 9.52l-.02.52c-.01.21 0 .4.06.56.07.23.23.32.5.33h1.47c.48.01.72-.17.72-.65 0-2.52-.02-5.38-.05-8.17 0-.27.1-.46.32-.6.14-.08.26-.06.45-.06Zm10.52 10.72-20.95.08a.54.54 0 0 0-.5.34.55.55 0 0 0-.05.2V41c0 .42.18.82.48 1.11.3.3.72.46 1.14.46l18.82-.06c.43 0 .84-.17 1.14-.47.3-.3.47-.7.47-1.12v-.12a.55.55 0 0 0-.55-.55Z" fill="#E60012"/></svg>