<!-- by TradingView --><svg width="56" height="56" viewBox="0 0 56 56" xmlns="http://www.w3.org/2000/svg"><path fill="#F0F3FA" d="M0 0h56v56H0z"/><path d="M8.57 21.61h2.84c.02 0 .04 0 .05-.02l.65-.8h.05l1.15.88.04.06v.08c0 .02-.03.04-.05.06a.13.13 0 0 1-.07.02H11.6c-.03 0-.04.02-.04.04v1.34c0 .02.01.04.04.04h1.45c.02 0 .04-.01.05-.03l.7-.9h.02a.05.05 0 0 1 .04 0h.01l1.26.98.04.05a.11.11 0 0 1-.05.13.12.12 0 0 1-.07.02H11.6l-.01.01-.01.02v3.1c0 .02 0 .03.03.03h1.76c.02 0 .04 0 .05-.03l.78-.97c.02-.02.04-.02.06 0l1.44 1.1c.02.01.02.03 0 .06-.05.08-.15.12-.29.12h-9c-.03 0-.04-.01-.05-.03l-.06-.22c-.01-.02 0-.03.02-.03h3.7L10 23.56H6.92c-.03 0-.05-.01-.06-.04l-.04-.18c0-.02 0-.03.03-.03H10v-1.42H8.56c-.02 0-.03 0-.04-.03l-.04-.17c-.01-.03-.03-.03-.06-.02a12.5 12.5 0 0 1-2.37 1.16.07.07 0 0 1-.04-.03.06.06 0 0 1 0-.05 12.46 12.46 0 0 0 3.14-3.14c.34-.5.61-1.02.8-1.59.01-.02.03-.02.05-.02l2.15.55c.02 0 .03.01.03.03-.06.18-.35.2-.5.23-.03 0-.04.01-.02.03.95 1.18 2.87 1.7 4.31 1.98.03 0 .04.02.03.04l-.02.1a.05.05 0 0 1-.04.05c-.62.2-1.02.81-1.15 1.4 0 .03-.02.04-.04.02-.26-.14-.6-.35-1.04-.64a5.94 5.94 0 0 1-2.25-2.82h-.01a9.97 9.97 0 0 1-2.89 2.64h.01ZM46.5 26.58c.04.23 0 .47-.13.72-.16.3-.47.38-.7.1a.07.07 0 0 1-.02-.05l.03-.77c0-.03-.02-.04-.04-.02l-1.58.9c-.02.02-.03.01-.04 0l-.31-.97a.03.03 0 0 0-.02-.02.04.04 0 0 0-.03 0 2 2 0 0 1-1.1.26c-.01 0-.02 0-.02-.03v-.68c0-.02-.01-.03-.04-.03h-.48c-.02 0-.04.01-.04.03v.79a.06.06 0 0 1-.02.05c-.33.21-.69.3-1.08.26-.02 0-.03-.02-.03-.04v-2.97c0-.04-.01-.04-.03 0l-.5.73a.1.1 0 0 1-.12.03.1.1 0 0 1-.04-.1c.5-1.71.87-3.45 1.1-5.2 0-.03 0-.04-.02-.04h-.98c-.02 0-.03-.01-.04-.03l-.06-.21c-.01-.04 0-.05.03-.05h2.42a.06.06 0 0 0 .05-.03l.6-.75c.02-.03.03-.03.06-.01l1.07.86a.08.08 0 0 1 0 .14.6.6 0 0 1-.3.07 1683.9 1683.9 0 0 1-1.46.02l-.01.02a13.2 13.2 0 0 1-.73 2.5c.16.08.34.1.53.07a.1.1 0 0 0 .06-.03l.46-.49H43l1.01.77c.04.03.03.05 0 .06l-.29.13-.01.02v.52a.03.03 0 0 0 .03.04h.02l.2-.1a3.35 3.35 0 0 0 .25-.5c.26-.69.44-1.4.55-2.12 0-.02 0-.03-.03-.03h-1.1c-.02 0-.03-.02-.04-.04l-.05-.22c0-.02 0-.04.02-.04h1.96a.02.02 0 0 0 .01-.03l-.02-.01a.61.61 0 0 1-.37-.14.1.1 0 0 1-.03-.06 4.32 4.32 0 0 0-.74-1.73.06.06 0 0 1 .07-.06c.67.08 1.75.45 1.87 1.21.05.34-.15.75-.54.79v.01a56.46 56.46 0 0 0 1.2 0 .07.07 0 0 0 .02-.04l.38-2.02c0-.02.02-.02.03-.02l1.73.48c.03 0 .04.03.03.05-.05.14-.22.15-.34.18a.11.11 0 0 0-.06.03l-1.45 1.34c-.02.02-.02.02 0 .02h.75c.02 0 .04 0 .06-.03l.64-.84a.03.03 0 0 1 .02 0 .03.03 0 0 1 .02 0l1.13.94a.13.13 0 0 1 .04.14.13.13 0 0 1-.12.08h-2.07v.03l1.25.45.01.02a.04.04 0 0 1 0 .05.33.33 0 0 1-.29.13c-.02 0-.04.01-.05.03-.44.77-.96 1.48-1.57 2.13-.02.02-.02.04.02.04l.84-.02c.03 0 .04-.01.05-.04.19-.5.33-1.03.44-1.56 0-.02.02-.03.04-.02l1.47.73a.03.03 0 0 1 .02.04v.01c-.1.1-.21.15-.35.13h-.02l-.02.02a15.27 15.27 0 0 1-1.22 2.1h.03l.06.02c.7.57 1.53 1.63 1.11 2.59-.17.38-.6.4-.87.12-.04-.04-.05-.1-.03-.16a1.8 1.8 0 0 0-.03-.65 34.7 34.7 0 0 1-1.38.65c-.14.07-.23.17-.35.26-.05.04-.08.03-.1-.03l-.3-.9c-.06-.18-.07-.18-.04.02Zm-.19-5.64a.3.3 0 0 1-.27.14c-.02 0-.03 0-.05.02l-.31.5v.04l1.28.64c.02 0 .03 0 .04-.02.2-.59.36-1.2.47-1.81 0-.04-.01-.06-.05-.06h-2.28c-.15 0-.15.03-.02.08l1.17.42h.02a.04.04 0 0 1 0 .04v.01Zm-1.04 2.22.4-1.45a.03.03 0 0 0-.02-.03h-.02l-.01.01c-.35.52-.74 1.02-1.17 1.48-.02.03-.02.04.02.04l.76-.01c.02 0 .03-.01.04-.04Zm-2.73-.71a.02.02 0 0 0-.02-.02H42a.02.02 0 0 0-.02.02v3.23l.01.02a.02.02 0 0 0 .01 0h.52a.02.02 0 0 0 .02-.02v-3.23Zm4.18.1-.32.63c0 .02 0 .03.02.03.23-.01.35-.37.46-.65.01-.02 0-.03-.02-.03H46.74l-.02.03Zm-2.52 1.87-.47-1.11h-.03v2.82c0 .02.01.03.03.03.14-.04.23-.08.26-.14a10.4 10.4 0 0 0 .92-2l-.45.23a.1.1 0 0 0-.04.03.58.58 0 0 1-.17.16c-.02.01-.04 0-.05-.02Zm2.64.08-.49-1.15a.02.02 0 0 0-.02 0l-.81 1.34a.01.01 0 0 0 0 .02h.03c.02-.02.04-.01.05 0 .37.4.64.87.81 1.39 0 .02.02.02.04.02.18-.02.31-.1.38-.2a10.66 10.66 0 0 0 .93-2.01l-.61.37a.13.13 0 0 0-.04.04.59.59 0 0 1-.21.2c-.03.02-.05.01-.06-.02Zm1.46.27c-.33.5-.7.96-1.1 1.4-.02.03-.02.04.02.04l1.37-.08c.02 0 .04-.01.03-.03a8.92 8.92 0 0 0-.31-1.33h-.01Zm-2.67 1.27c-.03-.39-.11-.78-.18-1.2l-.02-.02h-.01l-.02.02c-.3.47-.64.92-1 1.35-.02.03-.02.04.02.04l1.1-.07c.08 0 .12-.04.11-.12ZM31.85 18.06c.84-.14 2.86-.1 3.2.97.19.6-.37 1.11-.97.94a.46.46 0 0 1-.22-.15 7 7 0 0 0-2.05-1.67.06.06 0 0 1 0-.07l.04-.02ZM22.53 21.03c-.13 2.16-.77 4.03-2.55 5.36a9.6 9.6 0 0 1-2.4 1.3.1.1 0 0 1-.06-.1 10.12 10.12 0 0 0 3.41-6.56c0-.03-.01-.04-.03-.04h-2.86c-.02 0-.03 0-.04-.02l-.07-.23c0-.03 0-.04.03-.04h2.99c.02 0 .03 0 .03-.02v-2.6c0-.02.02-.03.03-.02l1.95.18a.04.04 0 0 1 .03.02.04.04 0 0 1 0 .03.37.37 0 0 1-.34.23c-.02 0-.03.02-.03.03l-.06 2.11c0 .03.01.04.04.04h1.98c.02 0 .05 0 .06-.02l.76-.76c.02-.02.04-.02.06 0l1.26 1.1a.04.04 0 0 1 0 .03v.02a.96.96 0 0 1-.43.19c-.02 0-.03.02-.03.04a35.48 35.48 0 0 1-.26 3.75 4.64 4.64 0 0 1-.53 1.76c-.44.66-1.22.83-1.98.81-.03 0-.04-.01-.04-.03.02-.44-.07-.9-.47-1.16a3.05 3.05 0 0 0-1.16-.43c-.02 0-.04-.01-.03-.04v-.04c0-.03.01-.04.04-.04.92.07 1.55.1 1.9.1.57 0 .69-.94.74-1.36.15-1.19.23-2.39.26-3.59 0-.02-.02-.04-.04-.04h-2.13c-.02 0-.03.02-.03.04Z" fill="#014099"/><path d="M34.44 21.58v4.25c0 .5-.03.84-.1 1-.26.69-1.1.84-1.76.88-.02 0-.03-.01-.04-.03l-.05-.4c-.1-.75-.58-.96-1.25-1.1-.02 0-.02-.02-.03-.04v-.05c0-.03.02-.05.05-.05l1.55.07a.18.18 0 0 0 .13-.04.18.18 0 0 0 .06-.13v-5.18h-2.37c-.02 0-.03 0-.03-.02l-.08-.23c0-.03 0-.04.03-.04h2.24c.02 0 .04 0 .06-.02l.6-.68h.05l1.27.98v.01a.03.03 0 0 1 0 .03.59.59 0 0 1-.3.17c-.02 0-.03.01-.03.04.14.58.35 1.14.65 1.66.02.03.03.03.05 0 .53-.71 1-1.47 1.38-2.28.02-.02.03-.02.05-.01l1.58 1.05c.02.01.03.03.01.04-.1.1-.2.14-.34.1a.09.09 0 0 0-.07.01c-.78.53-1.6.99-2.44 1.38-.02 0-.03.02-.01.04a5.87 5.87 0 0 0 3.27 2.27.06.06 0 0 1-.03.09c-.68.23-.99.7-1.2 1.37-.01.02-.02.02-.04.01-1.8-1.25-2.5-3.07-2.84-5.15h-.02Z" fill="#014099"/><path d="M30.86 22.46h-1.77c-.03 0-.04-.01-.05-.04l-.07-.22a.03.03 0 0 1 .02-.03h1.8l.04-.02.66-.67c.02-.02.04-.02.06 0l1.16.94c.01.01.02.03.01.05-.04.13-.21.14-.32.15a.06.06 0 0 0-.04.04 5.87 5.87 0 0 1-3.56 4.14.08.08 0 0 1-.06-.1l.03-.04a6.5 6.5 0 0 0 2.12-4.17c0-.02 0-.03-.03-.03ZM14.06 24.98a12.06 12.06 0 0 1-1.96 1.7.09.09 0 0 1-.08-.06v-.05l.58-2.46v-.01a.02.02 0 0 1 .03 0l1.84.64a.04.04 0 0 1 .02.03v.04a.4.4 0 0 1-.37.15c-.02 0-.04 0-.06.02ZM7.83 24.15c.66.21 1.63.74 1.72 1.52.1.88-.87 1.27-1.47.65a5.36 5.36 0 0 0-.34-2.12.07.07 0 0 1 .05-.05h.04Z" fill="#014099"/><path d="M34.92 35.07c-.25.5-.4.87-.46 1.1-.11.47.49.55.8.6.03 0 .04.01.04.04v.16c0 .02-.01.03-.04.03h-2.03c-.03 0-.04-.02-.04-.04v-.16c0-.02 0-.04.03-.04.4-.03.65-.37.8-.7.81-2.02 1.63-4 2.44-5.94a.2.2 0 0 1 .08-.09.2.2 0 0 1 .3.1l2.43 5.6c.15.34.5 1.1.93 1.04a.04.04 0 0 1 .03 0l.01.02v.2h-3.32c-.03 0-.04 0-.04-.03v-.17a.03.03 0 0 1 .01-.02l.02-.01h.01c.26.01.66-.02.8-.26a.1.1 0 0 0 0-.05 4.23 4.23 0 0 0-.47-1.38.04.04 0 0 0-.04-.03h-2.24c-.02 0-.04.01-.05.03Zm.14-.45v.02h.02l1.96-.02h.01a.02.02 0 0 0 0-.03l-1-2.38a.02.02 0 0 0-.02-.01h-.01l-.96 2.42ZM49.89 34.3c-.45-.07-.9.18-.89.66v1.53c-.29.14-.59.24-.9.3-2.3.5-4.93.23-5.53-2.42a3.86 3.86 0 0 1 .65-3.03c.58-.8 1.66-1.24 2.68-1.33.8-.07 1.6.22 2.33.49.23.08.44-.28.49-.45 0-.02.02-.03.04-.03h.21c.02 0 .03 0 .03.03v2.28c0 .03 0 .04-.03.04h-.18c-.02 0-.03 0-.04-.03-.42-.89-1.24-1.83-2.33-1.97-1.2-.17-1.8.8-1.98 1.84-.22 1.32-.33 4.38 1.77 4.52.52.03 1.21.03 1.2-.67v-1.18c.01-.58-.58-.63-1.02-.6-.02 0-.03 0-.03-.03v-.22c0-.02.02-.03.04-.03h3.48c.03 0 .04.01.04.04v.23c0 .02 0 .04-.03.03ZM9 30.89c0-.54-.58-.66-1-.63-.02 0-.03 0-.03-.03v-.2l.02-.02.03-.01h3.55c.03 0 .05.01.05.04v.17c0 .03-.02.04-.04.04-.6-.03-.9.28-.89.9v4.33c0 .57-.04.97-.1 1.19-.2.66-.69 1.07-1.44 1.25-.88.2-2.07.07-2.4-.94a.91.91 0 0 1-.05-.48.73.73 0 0 1 1.07-.48c.26.15.52.7.3.95-.11.14-.25.2-.2.4.04.13.14.21.29.24.77.14.84-.4.84-1.02v-5.7ZM16 36.24c0 .28.25.42.5.44.82.04 1.55-.03 2.19-.6a3 3 0 0 0 .85-1.42l.02-.01h.23c.03 0 .04.01.04.04l-.4 2.27c0 .03-.01.04-.03.04h-5.94c-.02 0-.04-.01-.04-.04v-.16c0-.02.01-.04.03-.04.46-.04.87-.14.87-.69v-4.9c0-.62-.28-.9-.87-.92-.02 0-.03 0-.03-.03v-.19a.03.03 0 0 1 .03-.03h3.56c.02 0 .03.01.03.04v.18a.03.03 0 0 1-.02.04h-.01c-.74-.03-1.02.13-1.01.9v5.08ZM26.79 34.8c.02.05.03.05.05 0l2.03-4.77.01-.02.03-.01h2.57a.04.04 0 0 1 .04.04v.18c0 .02 0 .03-.03.03-.14 0-.3 0-.44.04-.31.11-.47.34-.47.7v4.92c0 .59.34.84.9.82.03 0 .04 0 .04.03v.17c0 .03-.01.07-.04.07h-3.39c-.02 0-.03-.04-.03-.06v-.18c0-.02 0-.03.03-.03.5.03.91-.17.91-.71a3676.52 3676.52 0 0 0-.02-5.28h-.01l-.01.02-2.54 6.11a.2.2 0 0 1-.2.13.2.2 0 0 1-.18-.13l-2.52-5.9h-.02l-.01.01v4.76c0 .24.02.4.05.5.14.37.54.5.92.49.02 0 .04.01.04.03v.17c0 .03-.01.07-.04.07h-2.31c-.03 0-.04-.04-.04-.07v-.17c0-.02 0-.03.03-.03.3.01.68-.06.84-.34a.88.88 0 0 0 .07-.42V30.8c0-.12-.08-.24-.23-.34a1.07 1.07 0 0 0-.68-.2l-.02-.01a.06.06 0 0 1-.01-.04v-.18c0-.02 0-.03.03-.03H24.74l.02.03 2.03 4.78Z" fill="#14A83B"/></svg>