<!-- by TradingView --><svg width="56" height="56" viewBox="0 0 56 56" xmlns="http://www.w3.org/2000/svg"><path fill="#F0F3FA" d="M0 0h56v56H0z"/><path d="M36.28 16.75c-3.52-4.56-9.26-5.38-14.52-3.82-1.4.37-2.78.77-4.17 1.21-.97.3-1.85.41-2.65.32-1.55-.19-2.15-2.23-.75-3.06.58-.34.53-.46-.13-.37-4.2.56-4.1 6.76.45 6.8.97 0 1.62-.06 1.94-.18 2.31-.86 4.64-1.67 6.97-2.42 1.83-.51 4.46-.94 6.27-.3.4.15.4.2-.03.18a15.7 15.7 0 0 0-13.03 5.73c-5.86 7.08-4.22 17.86 3.37 23 1.47 1 3.08 1.72 4.84 2.16.03 0 .04 0 .05-.03.02-.05 0-.09-.04-.11a15.06 15.06 0 0 1-5.42-4.03 13.38 13.38 0 0 1 5.18-21.3 12.44 12.44 0 0 1 9.89.23c1 .44 3.1 1.2 4.25 1a.53.53 0 0 0 .31-.19l2.06-2.43a.2.2 0 0 0-.14-.33c-1.61-.13-3.67-.73-4.7-2.06Z" fill="url(#as0bxh02x)"/><path d="M21.54 24.92c-7.24 7.1-3.32 18.79 6.58 20.54 3.47.6 6.75-.09 9.82-2.1.65-.42.61-.49-.11-.2-4.34 1.73-8.23 1.56-11.69-.5-6.22-3.73-8.29-11.4-4.46-17.62.02-.04.02-.07 0-.1-.04-.06-.09-.07-.14-.02ZM30.76 33h9.25c.16 0 .23.06.22.2-.3 6.07-7.8 8.5-12.8 6.17a11.59 11.59 0 0 1-5.87-6.12c0-.01-.02-.02-.03-.01l-.12.03-.02.04c.83 4 3 6.8 6.5 8.4a12.42 12.42 0 0 0 9.7.08c5.4-2.34 7.12-7.27 6.15-12.64a.16.16 0 0 0-.06-.1.2.2 0 0 0-.1-.05H28.65c-.03 0-.06 0-.1.03a.19.19 0 0 0-.06.23l.55 1.07c.37.74.75 1.49 1.13 2.31.11.24.3.36.58.36Z" fill="url(#bs0bxh02x)"/><defs><linearGradient id="as0bxh02x" x1="36.81" y1="25.42" x2="12.6" y2="26.66" gradientUnits="userSpaceOnUse"><stop stop-color="#8F6C15"/><stop offset="1" stop-color="#D2AA53"/></linearGradient><linearGradient id="bs0bxh02x" x1="18.61" y1="35.28" x2="41.28" y2="35.28" gradientUnits="userSpaceOnUse"><stop stop-color="#057CB8"/><stop offset="1" stop-color="#1E4080"/></linearGradient></defs></svg>