<!-- by TradingView --><svg width="56" height="56" viewBox="0 0 56 56" xmlns="http://www.w3.org/2000/svg"><path fill="#F0F3FA" d="M0 0h56v56H0z"/><path fill-rule="evenodd" d="M28 45a17 17 0 1 0 0-34 17 17 0 0 0 0 34Zm0-1a16 16 0 1 0 0-32 16 16 0 0 0 0 32Z" fill="#481615"/><path d="M30.48 12.07 14.94 27.44l-2.4-2.55L25.9 11.5l.56.56L13.64 24.9l1.32 1.4 14.96-14.79.56.56Zm-16.67 18.6 18.54-18.43.56.57-18.54 18.43a.47.47 0 0 0 .65.66l19.42-19.15.56.56-19.42 19.15a1.26 1.26 0 0 1-1.77-1.78Zm9.33-17.87-10.6 10.5-.56-.55 10.6-10.5.56.55Zm8.07 5.74 4.8-4.99.53.5.22-.22.56.55-5.8 5.85c.06.17.15.33.3.46.44.43 1.15.42 1.58-.02l5.05-5.15.56.56-5.05 5.14a1.92 1.92 0 0 1-3.04-.4l-7.27 7.33 4.8 4.7-8.87 9.04-.56-.56 8.3-8.47-4.22-4.15-8.43 8.5-.56-.56 8.42-8.5-.46-.44-8.25 8.3-.56-.55 8.8-8.86 1.03 1 7.58-7.65c-.02-.5.16-1.01.54-1.4Z" fill="#481615"/><path d="m26.54 36.3 15.75-15.8.56.55-15.75 15.8a3.9 3.9 0 0 1-5.47.06l-1.18-1.14a3.1 3.1 0 0 0-4.32.01l-1.35 1.31-.55-.56 1.35-1.32a3.9 3.9 0 0 1 5.42 0l1.18 1.13a3.1 3.1 0 0 0 4.36-.04Z" fill="#481615"/><path d="M36.51 26.33a3.62 3.62 0 0 1 5.16 5.07l-12.7 13.14-.58-.55L41.1 30.85a2.83 2.83 0 0 0-4.03-3.96l-1.34 1.33-.55-.56 1.33-1.33Z" fill="#481615"/><path d="M36.68 31.54a.52.52 0 0 0-.72.01L23.59 43.81l-.56-.56L35.4 31a1.31 1.31 0 0 1 1.85 1.87L25.57 44.49l-.56-.56L36.7 32.3a.52.52 0 0 0-.02-.76Z" fill="#481615"/><path fill-rule="evenodd" d="m25.88 33.45 3.5-3.5a1.08 1.08 0 0 0-1.52-1.53l-3.5 3.5a1.08 1.08 0 0 0 1.52 1.53Zm3.98-5.5a1.76 1.76 0 0 0-2.48 0l-3.5 3.5a1.76 1.76 0 0 0 2.48 2.48l3.5-3.5c.69-.69.69-1.8 0-2.49ZM32.95 26.35l1.73-1.71a1.08 1.08 0 1 0-1.52-1.54l-1.73 1.71a1.08 1.08 0 0 0 1.52 1.54Zm2.21-3.72a1.76 1.76 0 0 0-2.47-.01l-1.74 1.7a1.76 1.76 0 1 0 2.47 2.51l1.74-1.71c.69-.69.7-1.8 0-2.5Z" fill="#481615"/><path d="m43.36 23.03.56.56-4.5 4.51a.41.41 0 0 0 .57.6l4-3.81.55.57-4 3.8a1.2 1.2 0 0 1-1.69-1.72l4.51-4.5ZM11.46 29.67l2.99-2.89.55.57-3 2.88-.54-.56Z" fill="#481615"/></svg>