<!-- by TradingView --><svg width="56" height="56" viewBox="0 0 56 56" xmlns="http://www.w3.org/2000/svg"><path fill="#F0F3FA" d="M0 0h56v56H0z"/><path fill-rule="evenodd" d="M18.77 28.27a2.4 2.4 0 0 0 .73-1.77c0-.7-.24-1.28-.73-1.77A2.4 2.4 0 0 0 17 24c-.7 0-1.28.24-1.77.73a2.4 2.4 0 0 0-.73 1.77c0 .7.24 1.28.73 1.77A2.4 2.4 0 0 0 17 29c.7 0 1.28-.24 1.77-.73Zm-.5-1.78c0-1.57-.42-2.36-1.26-2.36-.84 0-1.26.79-1.26 2.36 0 1.57.42 2.36 1.26 2.36.84 0 1.26-.79 1.26-2.36Zm-3.93 2.46-1.64-2.1c-.07-.1-.06-.16.03-.2.75-.39 1.04-.92.9-1.62a1.1 1.1 0 0 0-.46-.7c-.3-.2-.57-.3-.82-.3A93.7 93.7 0 0 1 9.62 24c-.16 0-.17.02-.02.09l.23.14c.09.1.17.2.17.34v.22c.01 1.71.02 2.99 0 3.72 0 .24-.22.37-.54.38l-.03.06c0 .03 0 .04.03.04h2.12c.05 0 .06 0 .04-.04-.01-.03-.03-.04-.04-.04-.36 0-.53-.26-.54-.7l-.01-3.46c-.01-.5.2-.69.66-.55l.12.04c.49.15.73.5.74 1.03 0 .84-.36 1.25-1.08 1.23-.15 0-.18.06-.09.19l1.45 2.05a.2.2 0 0 0 .14.08l1.35.18c.05 0 .05-.01.02-.05ZM8.1 24.32l.15-.16c.09-.09.13-.07.13.06v1.1c0 .39-.06.4-.18.05-.23-.73-.7-1.1-1.4-1.1-.7-.02-1.17.34-1.43 1.07a3.68 3.68 0 0 0-.07 2.1c.23 1.01.85 1.41 1.85 1.2.37-.08.74-.3 1.13-.68a.05.05 0 0 1 .06-.01c.03 0 .04.03.04.05v.14c0 .05-.02.09-.05.12-1.1.9-2.23.98-3.41.23-.7-.44-1-1.18-.9-2.21.07-.89.53-1.55 1.37-2 .76-.4 1.59-.37 2.48.08.09.04.16.03.23-.04Zm15.77.04c.08.04.16.03.22-.04l.16-.16c.08-.09.13-.07.13.06v1.1c0 .38-.06.4-.18.05-.23-.73-.7-1.1-1.4-1.1-.7-.01-1.17.34-1.44 1.07a3.7 3.7 0 0 0-.06 2.1c.23 1.01.85 1.41 1.84 1.2.37-.08.75-.3 1.14-.68.02-.02.04-.02.06-.01.02 0 .04.03.04.05v.14c0 .05-.02.09-.05.12-1.1.9-2.23.98-3.41.23-.7-.44-1-1.18-.9-2.21.07-.89.53-1.55 1.37-2 .76-.4 1.58-.37 2.48.08ZM30 26.5c0 .7-.24 1.28-.73 1.77a2.4 2.4 0 0 1-1.77.73 2.4 2.4 0 0 1-1.77-.73A2.4 2.4 0 0 1 25 26.5c0-.7.24-1.28.73-1.77A2.4 2.4 0 0 1 27.5 24c.7 0 1.28.24 1.77.73s.73 1.08.73 1.77Zm-3.8-.01c0 1.33.58 2.41 1.3 2.41.73 0 1.32-1.08 1.32-2.4 0-1.34-.58-2.42-1.3-2.42-.73 0-1.32 1.08-1.32 2.41Zm10.29-2.45a16.78 16.78 0 0 0 1.02-.02.65.65 0 0 0-.36.24.6.6 0 0 0-.15.36v3.98c0 .22.17.33.42.32a.3.3 0 0 1 .1.02c.08.03.08.05 0 .05a64.16 64.16 0 0 1-2.07 0c-.08 0-.09-.02 0-.05a.3.3 0 0 1 .1-.02c.25 0 .45-.1.45-.32v-3.98c0-.13-.09-.24-.16-.34l-.01-.02a.65.65 0 0 0-.37-.24c-.05-.02-.05-.02 0-.02.39.03.73.04 1.03.04Zm3.51.43c0-.27.17-.42.42-.45.06-.01.1-.02.11-.01V24c-.76.06-1.4.07-1.9 0-.06 0-.07.02-.02.05l.09.05c.17.12.3.28.3.5v3.9c0 .28-.23.41-.53.4-.02 0-.03.02-.03.05 0 .03 0 .04.03.04l3.61.01c.08 0 .12-.04.13-.12l.18-1.54c0-.04-.01-.05-.04-.03l-.09.05h-.01c-.17 1.2-.84 1.65-2.01 1.35-.13-.03-.24-.12-.24-.26v-3.98Zm4.24 2.11c-.07 0-.24.03-.24.1v1.84c0 .11.18.18.28.2 1.12.24 1.84-.16 2.17-1.2 0-.02.01-.03.03-.02l.04.05c.02.01.02.02.02.03-.12.5-.2.93-.21 1.27 0 .09-.05.13-.13.13l-3.71.02c-.06 0-.08-.02-.07-.06.02-.04.04-.06.07-.06.35 0 .53-.24.53-.7v-1.54L43 24.7c0-.39-.17-.62-.54-.7 1.03.02 2.25.03 3.65.03.1 0 .14.05.14.15v1.17c0 .02-.01.03-.03.04-.02 0-.04 0-.06-.02a.08.08 0 0 1-.03-.04 2.17 2.17 0 0 0-.2-.58c-.22-.43-.77-.61-1.65-.54-.1 0-.28.06-.28.18V26c0 .16.2.26.32.33.12.06.24.05.35-.05.3-.27.46-.6.48-1 0-.02.02-.04.05-.04.03 0 .04.01.04.02l-.01 2.36c0 .04-.02.05-.05.03-.04-.03-.05-.05-.05-.06-.02-.65-.32-1-.9-1.02ZM35 26.5c0 .67-.18 1.24-.56 1.7a2 2 0 0 1-1.45.75c-.44.03-1.27.05-2.49.06-.06 0-.06-.01 0-.03l.26-.1c.15-.07.23-.18.23-.35a301.92 301.92 0 0 0-.01-4.04c0-.17-.08-.29-.23-.34l-.26-.1c-.06-.03-.06-.04 0-.04 1.22 0 2.05.02 2.49.05.6.04 1.08.3 1.46.75.37.45.56 1.02.56 1.69ZM32 24.47c0-.18.1-.27.29-.27h.1c.44 0 .82.18 1.13.54.32.36.48.79.48 1.3v.94c0 .5-.15.94-.47 1.3-.31.36-.7.53-1.14.53h-.1c-.19 0-.28-.08-.28-.26L32 24.47Z"/><path d="M47.75 21.66c-.22-.15-.4-.33-.53-.53-.09-.13-.06-.16.08-.1.23.1.4.29.53.56.04.08.1.12.19.13.26.02.4.15.39.38 0 .1.04.16.13.2l.23.08c.04.02.06.05.07.1.01.04 0 .08-.03.1-.05.06-.15.11-.29.17-.1.05-.16.02-.2-.08a.67.67 0 0 1-.02-.33c.03-.18-.04-.26-.21-.27-.12 0-.2-.07-.22-.2a.3.3 0 0 0-.12-.2Zm1.17 1.16c.08.14.21.26.38.36.04.02.05.05 0 .09l-.24.2c-.08.08-.16.07-.23-.01-.19-.23-.17-.47.04-.72.04-.04.05-.03.05.02v.06Zm.4 1.44c.07-.07.27-.1.58-.11.04 0 .06-.03.03-.07a.96.96 0 0 0-.4-.4c-.18-.09-.3-.08-.37.03-.06.1-.06.26-.02.48 0 .04.03.07.07.09a.1.1 0 0 0 .1-.02Zm.53.72a.69.69 0 0 0-.1.1.1.1 0 0 1-.1.05.1.1 0 0 1-.1-.08c-.07-.22-.06-.4.02-.52.05-.08.13-.1.21-.07.26.1.42.26.5.49.02.08 0 .1-.08.07l-.17-.06a.18.18 0 0 0-.18.02Zm.17 1.01.05-.05c.07-.07.15-.1.24-.06l.32.12c.09.04.12 0 .09-.1-.12-.36-.34-.58-.67-.66-.09-.02-.15.01-.2.1a.65.65 0 0 0 0 .62c.04.1.1.1.17.03Zm.47.28c.22.03.36.17.41.4.05.2-.01.24-.17.1a.66.66 0 0 0-.3-.15.68.68 0 0 0-.33.05c-.2.08-.24.02-.13-.16.12-.2.3-.28.52-.24ZM50 27.5c.08-.07.15-.12.2-.14.07-.04.15-.04.24 0 .18.07.3.22.36.45.03.1.07.11.14.03.04-.04.05-.1.05-.18-.03-.55-.27-.79-.74-.72-.24.03-.4.21-.47.54 0 .02.02.04.07.05.06.02.1 0 .15-.03Zm.26.67c-.18-.08-.38-.07-.6.05-.09.06-.13.03-.12-.08.01-.06.04-.12.1-.17.43-.38.78-.36 1.07.05.16.21.14.47-.05.77-.01.01-.04 0-.1-.02a.17.17 0 0 1-.08-.14c0-.12-.02-.2-.04-.27-.03-.08-.08-.14-.18-.19Zm-.57 1.06c-.26-.33-.19-.43.2-.3.06.02.14.17.23.47a.16.16 0 0 0 .1.1c.08.02.13 0 .14-.1.05-.46-.11-.76-.5-.89a.48.48 0 0 0-.46.07c-.23.18-.3.38-.2.62.06.14.2.34.44.59l.17.19c.06.07.05.14-.02.2l-.08.06c-.1.1-.2.09-.3-.02-.15-.17-.28-.4-.37-.68a.29.29 0 0 0-.13-.15.34.34 0 0 0-.2-.05c-.09 0-.15.05-.16.15-.04.16.06.31.3.44.07.04.12.1.16.18a.6.6 0 0 1 .08.29c-.01.1-.06.16-.14.2l-.29.13a.2.2 0 0 0-.11.16l-.1.82a.26.26 0 0 1-.16.22l-.33.16a.27.27 0 0 0-.14.16.72.72 0 0 0 .08.66c.08.12.17.12.26 0 .2-.26.66-.82 1.36-1.66.6-.72.66-1.4.17-2.02Zm-1.54 1.79c.02.14.02.27 0 .37a.22.22 0 0 1-.15.18.81.81 0 0 1-.71-.13.35.35 0 0 1-.16-.32c0-.14.07-.25.19-.31.25-.14.53-.4.83-.8.07-.07.15-.1.24-.06.08.03.13.08.15.14.04.13.01.24-.07.34l-.26.34a.3.3 0 0 0-.06.25Zm-1.81.01c0-.02-.01-.03-.04-.03l-.91.11c-.02 0-.03.02-.03.04v.01c.01.13.07.24.18.32.1.08.22.1.35.1l.04-.01a.46.46 0 0 0 .31-.18c.08-.1.12-.22.1-.35Zm.44 1.59c.06.04.12.12.18.24.04.1.01.13-.09.12l-.54-.07c-.1-.01-.15-.07-.16-.17-.03-.53.13-1.03.47-1.5.05-.07.11-.09.19-.07.04.02.07.03.09.06v.12l-.25.96c-.04.13 0 .24.1.3Zm-1.55-1.08c-.02.17-.2.27-.4.24-.18-.03-.31-.2-.29-.36.03-.16.2-.27.4-.24.19.04.32.2.3.36Zm-1.72-.02c.33-.13.57-.11.72.04.16.16.23.3.22.4-.02.21-.13.33-.33.36-.5.07-.76-.12-.77-.56 0-.12.05-.2.16-.24Zm-.42 1.01c-.14.07-.34-.06-.43-.29-.1-.22-.07-.46.08-.52.14-.07.34.06.43.28.1.23.07.46-.08.53Zm-.76.24c-.36-.1-.52-.36-.48-.77 0-.08.04-.13.11-.17a.17.17 0 0 1 .2.03c.23.18.33.41.31.7 0 .1.02.18.08.25.19.26.4.73.65 1.42.04.1.02.18-.05.26-.13.13-.25.12-.36-.02-.24-.31-.43-.73-.56-1.26-.02-.1 0-.17.07-.23l.06-.05c.09-.07.08-.13-.03-.16Zm3.44.12c.05 0 .07-.02.08-.07l.05-.87c0-.05-.01-.07-.06-.07h-.04a1.7 1.7 0 0 0-.76.08c-.2.09-.32.2-.33.33v.02c0 .14.09.27.28.38.2.11.45.18.74.2h.04Zm2 .33c.02.03 0 .04-.02.05-.23.08-.38 0-.45-.23l-.24-.78c-.07-.23 0-.38.24-.45.02-.01.04 0 .05.02l.43 1.4Zm-6.1-.15c-.18.1-.45-.07-.62-.37-.16-.3-.16-.63 0-.73.18-.1.45.07.62.37.16.3.16.63 0 .73Zm-1.54-.28c.13.3.36.47.53.4.17-.08.2-.38.08-.68-.13-.29-.36-.47-.53-.39-.17.08-.2.38-.08.67Zm-1.3.8c.08.1.17.1.26 0l.73-.72c.08-.09.09-.18 0-.27l-.03-.03a.64.64 0 0 0-.46-.2.61.61 0 0 0-.46.18l-.06.06a.64.64 0 0 0-.2.47c0 .19.06.35.19.48l.03.03Zm4.84-.26c-.09.01-.16.09-.22.24-.04.1-.09.1-.15.02a1.73 1.73 0 0 1-.28-.58c-.02-.1 0-.17.07-.23.2-.17.46-.27.77-.3.34-.02.58.08.7.3.2.31.18.7-.03 1.16-.03.07-.09.09-.16.05-.2-.1-.35-.29-.47-.53-.05-.1-.12-.14-.23-.13Zm-7.42.86.02-.08c.01-.05 0-.08-.05-.1l-3.82-1.43a.55.55 0 0 1-.37-.46l-.03-.19c-.04-.25.05-.32.28-.2.76.36 1.6.56 2.54.6.25.02.5-.07.78-.26.1-.06.2-.08.31-.07l2.2.28c.12.02.21.08.27.2.05.11.05.22-.02.33-.23.42-.2.76.09 1.02.28.26.62.26 1 .02a.31.31 0 0 0 .15-.2c.05-.19.12-.33.2-.41.08-.07.15-.07.21.01.29.36.63.4 1.02.11.07-.06.13-.04.18.04.18.36.29.67.3.95 0 .11-.03.2-.12.26a.26.26 0 0 1-.27.02 5.26 5.26 0 0 1-.55-.28c-.48-.3-.99-.25-1.53.13a.27.27 0 0 0-.12.21c-.01.18.1.33.35.44.1.05.1.1 0 .15-.25.16-.54.2-.87.12-1.9-.42-3.72-.97-5.48-1.65-.03-.01-.05-.04-.04-.08l.01-.1c0-.08.05-.1.12-.09l3.04.83c.1.03.17 0 .2-.12Zm.18-1.43c-.07.08-.15.08-.24.01l-.2-.13c-.04-.04-.07-.03-.08.02l-.01.08c0 .06.02.1.09.13.47.14.9.15 1.3.02.1-.04.1-.09.03-.15-.33-.3-.62-.3-.89.02Zm-1.92-.13c-.1-.11-.19-.14-.3-.08-.05.03-.07.08-.03.13.05.08.15.1.3.07.07-.02.08-.05.03-.12Zm9.88 1.8c.08.05.16.05.25.02.08-.04.13-.1.16-.2l.2-.79a.42.42 0 0 1 .24-.28.4.4 0 0 1 .36 0c.31.17.46.42.43.75 0 .1-.05.14-.14.16-.36.06-.8.38-1.3.97l-.19.2a.42.42 0 0 1-.21.13 14 14 0 0 0-1.4.44c-.19.07-.45.11-.79.11-.18 0-.33 0-.43.02-.09 0-.13-.03-.13-.13v-.83c0-.1.04-.17.13-.2.1-.03.17-.01.24.06.47.58.88.75 1.24.52.14-.09.24-.28.3-.58a22 22 0 0 0 .14-.7.19.19 0 0 1 .14-.16c.08-.03.15 0 .2.05.18.2.36.34.56.45Zm-1.6.66c.03-.01.03-.03.02-.05l-1-1.82c0-.02-.02-.03-.04-.02l-.03.02c-.1.06-.14.17-.14.35 0 .18.06.37.16.57l.26.47c.1.2.23.34.38.44.15.1.27.11.37.05l.03-.01Zm4.46-1.3c-.08-.06-.27-.05-.58.02a.44.44 0 0 1-.34-.06.24.24 0 0 1-.12-.17c-.01-.12.03-.2.14-.22.78-.21 1.35.04 1.69.75.06.14.06.27-.02.4a.35.35 0 0 1-.33.17c-.76-.02-1.3.32-1.63 1.02-.05.11-.12.13-.21.04l-.57-.59a.26.26 0 0 1-.06-.27c.03-.11.1-.17.2-.2.48-.1.87-.28 1.18-.54a.32.32 0 0 1 .22-.08.7.7 0 0 0 .44-.14c.07-.05.06-.1 0-.14Zm-6.88 1.19c.07.04.08.08.01.13a.7.7 0 0 1-.44.14.32.32 0 0 0-.22.08c-.3.27-.7.45-1.18.55a.25.25 0 0 0-.2.2c-.03.1-.01.2.06.27l.57.58c.09.1.16.08.21-.04.33-.7.87-1.04 1.63-1.01.14 0 .25-.06.33-.18a.38.38 0 0 0 .02-.4c-.35-.7-.9-.96-1.69-.75-.1.03-.15.1-.14.22.01.08.05.13.12.18.1.06.22.08.34.06.3-.07.5-.08.58-.03Z" fill="#AF7103"/></svg>