<!-- by TradingView --><svg width="56" height="56" viewBox="0 0 56 56" xmlns="http://www.w3.org/2000/svg"><path fill="#F0F3FA" d="M0 0h56v56H0z"/><path d="M27.32 32.1H26.1c-.07 0-.1-.05-.1-.12v-.64c0-.08.04-.12.11-.12h3.38c.07 0 .1.04.1.11v1.82c0 .08-.03.13-.09.17a6.78 6.78 0 0 1-5.18.74 3.06 3.06 0 0 1-1.95-1.27 2.3 2.3 0 0 1 .89-3.32c1.6-.9 5.14-1.06 6.26.75.04.07.03.12-.06.13-.62.09-1.23.11-1.83.2a.67.67 0 0 1-.7-.34.26.26 0 0 0-.14-.11c-1-.29-2.01-.05-2.47.7-.28.44-.32.88-.14 1.32.44 1.03 1.7.83 2.59.87.53.02.9-.16.68-.8-.02-.07-.06-.1-.13-.1ZM11 30.67v-1.6c0-.01 0-.03.02-.05a.07.07 0 0 1 .05-.02h1.86c.02 0 .04 0 .05.02l.02.05v4.86c0 .02 0 .03-.02.05a.07.07 0 0 1-.05.02h-1.86c-.02 0-.04 0-.05-.02a.07.07 0 0 1-.02-.05v-1.86c0-.02 0-.04-.02-.05-.02-.02-.03-.02-.05-.02H8.08c-.02 0-.04 0-.05.02-.02.01-.03.03-.03.05v1.86c0 .02 0 .03-.02.05a.07.07 0 0 1-.04.02H6.07c-.02 0-.04 0-.05-.02a.07.07 0 0 1-.02-.05v-4.86c0-.01 0-.03.02-.05a.07.07 0 0 1 .05-.02h1.87c.03 0 .06.03.06.07v1.6c0 .02.01.03.03.05l.05.02h2.85c.02 0 .04 0 .05-.02a.07.07 0 0 0 .02-.05ZM18.04 30.46l1.38-1.44a.06.06 0 0 1 .04-.02h2.3l.03.01.03.03v.04l-.02.04-2.78 2.7a.07.07 0 0 0-.02.05v2.06l-.02.05a.06.06 0 0 1-.05.02h-1.87c-.01 0-.03 0-.04-.02a.07.07 0 0 1-.02-.05v-2.06a.07.07 0 0 0-.02-.05l-2.8-2.7-.01-.04a.07.07 0 0 1 .03-.07l.03-.01h2.31c.02 0 .03 0 .04.02l1.37 1.44a.06.06 0 0 0 .04.02.06.06 0 0 0 .05-.02ZM33.07 30.86h3.46c.02 0 .04 0 .05.02l.02.05v1c0 .02 0 .04-.02.05a.07.07 0 0 1-.05.02h-3.46l-.05.02a.08.08 0 0 0-.02.06v.64c0 .02 0 .04.02.05l.05.02h3.88l.03.02a.07.07 0 0 1 .02.05v1.07c0 .02-.01.03-.03.05a.07.07 0 0 1-.04.02h-5.86c-.02 0-.04 0-.05-.02a.08.08 0 0 1-.02-.05v-4.86c0-.02 0-.03.02-.05a.07.07 0 0 1 .05-.02h5.85l.05.02c.02.02.02.04.02.06l.01 1c0 .01 0 .03-.02.04a.07.07 0 0 1-.05.03h-3.86c-.02 0-.04 0-.05.02a.08.08 0 0 0-.02.05v.56c0 .02 0 .04.02.06l.05.02ZM40.95 29h-1.9c-.03 0-.05.02-.05.05v4.9c0 .03.02.05.05.05h1.9c.03 0 .05-.02.05-.05v-4.9c0-.03-.02-.05-.05-.05ZM47.29 33.14h-2.42l-.04.01a.07.07 0 0 0-.03.03l-.37.77a.07.07 0 0 1-.06.05H42a.07.07 0 0 1-.06-.04.07.07 0 0 1 0-.07l2.85-4.85a.07.07 0 0 1 .06-.04h2.43a.07.07 0 0 1 .07.04l2.63 4.85a.07.07 0 0 1-.03.1.07.07 0 0 1-.03 0h-2.2a.07.07 0 0 1-.02-.03l-.36-.78a.07.07 0 0 0-.03-.03.07.07 0 0 0-.03 0Zm-2-1.2c-.01.05.02.06.07.06h1.43c.04 0 .09-.01.07-.05l-.72-1.7a.07.07 0 0 0-.06-.03h-.04a.07.07 0 0 0-.02.04l-.73 1.69Z" fill="#57585A"/><path fill-rule="evenodd" d="M24.43 22.65c-.46-.25-.8-.6-1.02-1.08a.13.13 0 0 0-.07-.06.12.12 0 0 0-.08 0c-1.38.42-3.31.33-4.24-.85a.2.2 0 0 0-.17-.07 4.22 4.22 0 0 1-3.44-1.34c-.2-.22-.33-.5-.35-.85 0-.06.02-.1.09-.1 2.1-.22 4.08-.84 5.94-1.86.26-.15.52-.3.78-.47 1.02-.63 2.07-1.27 3.31-1.03.68.13.69.82.7 1.5 0 .55.01 1.1.36 1.38a.2.2 0 0 0 .2.03l.4-.17c.08-.02.11-.08.11-.15v-2.54c0-.08-.03-.12-.1-.14l-.27-.08a.13.13 0 0 1-.09-.07.14.14 0 0 1 0-.11l.17-.6a.25.25 0 0 0 0-.17c-.99-2.55 3.67-2.34 2.44.12-.03.06-.02.1.05.12.24.09.36.27.35.54 0 .04-.02.08-.04.1a.17.17 0 0 1-.09.07l-.22.06c-.07.02-.11.07-.11.15v2.48a.46.46 0 0 0 .3.43c.06.02.12.02.18.02.4-.04.44-.5.48-1.04.04-.59.1-1.27.63-1.6.85-.52 1.56-.35 2.46.14 1.07.6 2.16 1.16 3.26 1.7 1.47.71 2.82 1.01 4.37 1.14a.24.24 0 0 1 .2.13.25.25 0 0 1 0 .24c-.88 1.54-2.4 2-4.05 2a.2.2 0 0 0-.16.07c-.96 1.17-2.58 1.15-3.98.84-.07-.02-.13 0-.17.07-.32.56-.79.94-1.4 1.14a.12.12 0 0 0-.09.13c0 .03.02.05.04.07.02.02.05.03.08.03.79.03 1.39.45 1.69 1.21.47 1.16.13 2.1-1.02 2.83-.26.16-.88.4-1.85.71a.17.17 0 0 1-.17-.03c-.46-.37-.85-.57-1.17-.6-.87-.07-4.78-.81-4.66-1.86.06-.6.77-.73 1.24-.62a.04.04 0 0 0 .04 0 .04.04 0 0 0 .01-.05.84.84 0 0 1-.02-.05c0-.02-.02-.02-.03-.03a.98.98 0 0 1-.56-.28.12.12 0 0 1 .06-.2c.03 0 .06 0 .08.02.43.25.89.4 1.38.44a.18.18 0 0 0 .15-.07.18.18 0 0 0 .04-.16c-.14-.56-.61-.84-1.13-1.05-1.53-.6-3.02 1.73-1.9 2.93a4.85 4.85 0 0 0 3.77 1.62.03.03 0 0 1-.01.03c-1.23.36-2.16-.02-3.32-.83-1-.7-1.56-1.62-.97-2.83.31-.64.84-1.08 1.58-1.32.1-.03.1-.08 0-.13Zm-1.36-4.24a18.44 18.44 0 0 1-3.57 2.17.12.12 0 0 0-.02.1l.03.05c1.03 1 2.78.92 4.02.46a6.14 6.14 0 0 0 1.63-1.45.2.2 0 0 0 .05.03c.02 0 .03.01.01.03l-1.56 1.67a.1.1 0 0 0-.03.06l.01.06c.89 1.43 2.13 1.32 3.62 1.02.07-.01.1.02.1.1v3.83c0 .09.04.14.13.15l1.01.16a.1.1 0 0 0 .09-.02.11.11 0 0 0 .04-.09v-4.08c0-.08.03-.1.1-.09 1.25.28 2.76.15 3.59-.97.03-.06.03-.1-.01-.15l-1.92-2.04c-.02-.02-.01-.02 0-.03.02 0 .04-.02.04-.04.01-.02.02-.02.03 0 .13.12.27.28.43.45.55.6 1.26 1.39 1.86 1.54 1.16.3 2.98.37 3.76-.75a.1.1 0 0 0 0-.13.1.1 0 0 0-.04-.03l-2.95-1.47a.03.03 0 0 1-.02-.04c0-.04.03-.06.05-.04.9.47 1.82.92 2.75 1.34.28.13.56.18.84.14.9-.1 3.28-.7 3.5-1.7 0-.07-.02-.11-.1-.12-2.2-.3-4.24-1.05-6.14-2.24l-.04-.02c-1.42-.9-2.75-1.73-3.98-.54a.3.3 0 0 0-.09.17c-.02.16-.02.37-.02.6 0 .65.01 1.46-.61 1.57-.47.08-.8-.32-.81-.8-.02-.83-.02-1.66 0-2.5 0-.09.04-.13.13-.13l.26-.02a.12.12 0 0 0 .1-.09.12.12 0 0 0-.05-.13l-.47-.28c-.03-.02-.04-.05-.01-.09.22-.3.3-.64.2-1-.42-1.84-2.94-.58-2.15.68.03.05.08.1.13.14l.12.12a.12.12 0 0 1 0 .14c0 .02-.01.03-.03.04l-.31.22a.1.1 0 0 0-.02.14.1.1 0 0 0 .04.04l.26.1a.14.14 0 0 1 .1.13v2.72a.24.24 0 0 1-.09.19c-.3.26-.9.49-1.2.09-.16-.24-.16-.7-.15-1.1v-.3c-.08-2.47-2.68-.94-4.16-.06-.3.17-.55.32-.73.4-1.7.81-3.33 1.55-5.22 1.75-.08 0-.1.05-.08.12.34 1.09 1.93 1.58 2.94 1.6.54.02 1.14-.11 1.82-.4.95-.41 1.87-.9 2.75-1.44h.05v.06Zm2.41 6.44c-.1 0-.22 0-.33-.02-.37-.04-.75-.09-.92.36a.34.34 0 0 0 .16.43 11.57 11.57 0 0 0 2.7 1 .1.1 0 0 0 .08-.11l-.2-3.58c0-.08-.05-.12-.14-.1l-1.1.17a.1.1 0 0 0-.05.03.11.11 0 0 0 .04.18c.4.15.7.4.94.77a.4.4 0 0 1-.15.58 1.4 1.4 0 0 1-.75.15c-.02 0-.04 0-.06.02l-.04.05a.24.24 0 0 1-.18.07Zm5.04-.17h.07l.78.27a.36.36 0 0 1 .23.29.37.37 0 0 1-.13.34 4.65 4.65 0 0 1-2.59 1.03.1.1 0 0 1-.07-.1v-3.43c0-.08.04-.12.12-.12h1.17c.15 0 .16.04.04.12-.42.27-.77.63-1.03 1.06a.22.22 0 0 0-.02.19c.07.2.23.3.46.3.37-.03.69 0 .97.05Zm.16-.07c.3.02.87.24.99.44.63 1.06-2.26 1.7-2.8 1.74a.11.11 0 0 0-.01.23c.36.06.68.2.97.4.06.04.12.05.2.04a5.16 5.16 0 0 0 1.78-.81c2.98-2-.88-5.28-2.44-2.48a.11.11 0 0 0 .03.15c.47.33 1.1.03 1.56-.26a.1.1 0 0 1 .11 0l.08.06.03.03v.04a.07.07 0 0 1-.06.06.5.5 0 0 0-.44.36Zm-10.26-7.32a.81.81 0 0 0-.15.07.03.03 0 0 1-.03 0v-.03a.13.13 0 0 1 .06-.01l.04-.01.39-.21c1.07-.6 3.18-1.77 3.92-1.28.39.26.42.83.44 1.34.02.27.03.52.1.72.27.87 1.12.68 1.86.43.07-.03.1 0 .1.08-.02.13-.07.2-.16.23-1.95.63-2.05-.82-2.14-2.16v-.08a.27.27 0 0 0-.1-.19c-.48-.4-.97-.32-1.54-.03-.9.46-1.83.83-2.8 1.13Zm11.88-1.5c-.69-.25-1.16-.12-1.42.4-.15.32-.2.7-.23 1.06-.08.83-.16 1.56-1.67 1.13-.37-.1-.4-.05-.06.14.82.49 1.46.22 1.9-.8.06-.14.06-.38.07-.63 0-.53.02-1.15.59-1.24a2 2 0 0 1 1.19.27 23.62 23.62 0 0 0 3.13 1.32l.01-.02c.01-.02 0-.03-.03-.05a36.01 36.01 0 0 0-3.48-1.58ZM26.37 41.8l1.05-2.14a.14.14 0 0 0-.04-.17.13.13 0 0 0-.17.03 4.1 4.1 0 0 0-.95 2.12c0 .06.02.1.07.14a.6.6 0 0 0 .04.02Zm0 0c-.03.1-.1.15-.24.13a.23.23 0 0 1-.2-.18v-.1c.15-.9.52-1.7 1.1-2.38.05-.05.05-.1 0-.15-.67-.6-1.13-1.62-.32-2.32.06-.05.06-.1 0-.15a1.82 1.82 0 0 1-.82-1.6c0-.12.04-.2.1-.25.09-.06.13-.04.12.06-.04.94.33 1.55 1.2 1.9l.08.02c.69.27 1.98.77 1.15 1.7-.11.14-.16.32-.09.45.04.07.1.08.16.03.61-.5.76-1.11.45-1.85a.24.24 0 0 0-.11-.12c-.17-.1-.34-.17-.5-.25-.63-.3-1.2-.55-1.43-1.37a.34.34 0 0 1 .25-.43l.15-.03c.12-.03.18.02.18.14v.71a.11.11 0 0 0 .04.09l.42.33c.08.06.12.05.12-.05v-1.11c0-.08.05-.12.13-.1l.41.07c.03 0 .06.02.08.05.01.02.03.05.03.08 0 .24-.1.42-.3.56a.22.22 0 0 0-.09.16l-.02.4a.31.31 0 0 0 .16.29.3.3 0 0 0 .33-.03c.5-.4.76-.9.76-1.5 0-.05.01-.1.03-.12a.15.15 0 0 1 .08-.04c.05-.01.08 0 .08.06.06.75-.19 1.34-.76 1.77-.06.05-.07.1-.02.17.64.86.52 1.61-.35 2.26-.06.04-.06.1-.01.15a5.22 5.22 0 0 1 1.15 2.4.24.24 0 0 1-.12.15.23.23 0 0 1-.1.03c-.51.04-.75-.52-.95-1a4.35 4.35 0 0 0-.18-.4c-.05-.1-.08-.09-.08.03v.19c.01.5.03 1.34-.55 1.34a.31.31 0 0 1-.3-.2.32.32 0 0 1-.02-.12v-1.27l-.03-.09a.14.14 0 0 0-.22.01l-.95 1.48Zm2.76-.78c.18.3.33.56.39.58a.09.09 0 0 0 .09-.02.09.09 0 0 0 .02-.1 4.9 4.9 0 0 0-1.94-2.66c-.66-.45-1.12-1.06-.27-1.66.06-.04.06-.09.02-.14-.16-.17-.31-.2-.5-.05-1.18.85.03 1.82.93 2.55.28.22.53.42.67.59.18.21.4.58.59.9Zm-1.47-2.4.4.15c.08.03.13 0 .13-.1l.02-.2c.04-.5.1-1.23-.52-1.19-.08 0-.12.05-.12.13v1.08c0 .03.01.06.03.08.01.02.03.04.06.05Zm-.4-.43a.07.07 0 0 0 .09.03.07.07 0 0 0 .05-.07v-.59a.07.07 0 0 0-.04-.06.07.07 0 0 0-.08.02c-.17.22-.17.45-.01.67Zm1.26-.04c.04 0 .07-.02.09-.07.02-.04.04-.1.04-.16l-.01-.09a.3.3 0 0 0-.03-.07.15.15 0 0 0-.03-.05.07.07 0 0 0-.05-.02c-.03 0-.06.02-.09.06a.42.42 0 0 0-.03.25l.03.08.04.05.04.02Zm-.73 1.63-.01 1.88a.15.15 0 0 0 .06.12.14.14 0 0 0 .13.02l.08-.03a.17.17 0 0 0 .12-.17c.02-.47.03-.94.03-1.42 0-.24-.1-.4-.3-.48-.08-.03-.11 0-.11.08Zm2.56-16.16c.05-.03.1.01.15.1a.08.08 0 0 1 0 .08l-.04.03H30.35c-.02.01-.05 0-.06-.01a.09.09 0 0 1-.03-.06c0-.03 0-.06.02-.09a.15.15 0 0 1 .07-.05Zm-5.04.2-.04-.02a.06.06 0 0 1 0-.1.27.27 0 0 1 .2-.07.08.08 0 0 1 .08.08c0 .03 0 .05-.02.07a.09.09 0 0 1-.07.02l-.15.01Z" fill="#E38539"/></svg>