<!-- by TradingView --><svg width="56" height="56" viewBox="0 0 56 56" xmlns="http://www.w3.org/2000/svg"><path fill="#F0F3FA" d="M0 0h56v56H0z"/><path d="M27.9 45a17.04 17.04 0 0 1-12.88-5.95c.77-3.6 2.48-8.57 3.54-11.39 1.28.2 4.3.93 6.47 3.26-.52 2.36-.64 8.43 2.87 14.08ZM28.1 45a17.04 17.04 0 0 0 12.88-5.95 92.4 92.4 0 0 0-3.54-11.39c-1.28.2-4.3.93-6.47 3.26.52 2.36.65 8.43-2.87 14.08Z" fill="#0D6DBD"/><path d="M27.32 44.99A16.9 16.9 0 0 1 11 28.49c1.27-.65 4-1.45 7.4-.72-.6 3.64.54 11.99 8.92 17.22ZM28.68 44.99A16.9 16.9 0 0 0 45 28.49a11.59 11.59 0 0 0-7.4-.71c.59 3.63-.54 11.98-8.92 17.2Z" fill="#1FA0EA"/><path d="M28.1 45a14.02 14.02 0 0 1-.3 0c-2.06-2.43-5.1-8.14-2.77-14.1.53.46 1.88 1.87 3.06 3.79V45Z" fill="#055097"/><path d="M27.9 45a13.92 13.92 0 0 0 .3 0c2.06-2.43 5.1-8.14 2.77-14.1-.53.46-1.88 1.87-3.06 3.79V45Z" fill="#055097"/><path d="M11 28.64A16.75 16.75 0 0 1 14.49 18c2.45.17 9.36 1.16 13.64 6.77-.58.81-2.02 3.2-3.1 6.2L11 28.64Z" fill="#C4D602"/><path d="M45 28.64A16.75 16.75 0 0 0 41.51 18c-2.45.17-9.36 1.16-13.64 6.77.59.81 2.02 3.2 3.1 6.2L45 28.64Z" fill="#C4D602"/><path d="M21.85 19.87c2.2 1 4.47 2.55 6.27 4.9-.58.82-2.02 3.2-3.1 6.2l-6.75-1.12a18.82 18.82 0 0 1 3.58-9.98Z" fill="#6FBA2B"/><path d="M34.15 19.87c-2.2 1-4.47 2.55-6.27 4.9.59.82 2.02 3.2 3.1 6.2l6.75-1.12a18.82 18.82 0 0 0-3.58-9.98Z" fill="#6FBA2B"/><path d="M13.99 18.68c1.69-2.43 4.01-4.4 6.73-5.68 3.5.12 9.6 1.54 13.54 6.74a16.8 16.8 0 0 0-6.31 5.32l-11.4-5.32L14 18.68Z" fill="#FFE900"/><path d="M42.01 18.68A17.02 17.02 0 0 0 35.28 13c-3.5.12-9.6 1.54-13.54 6.74a16.8 16.8 0 0 1 6.31 5.32l11.4-5.32L42 18.68Z" fill="#FFE900"/><path d="m33.84 19.94-.21-.46-4.46-4.13c-.42-.23-.83-.44-1.25-.63-1.95.99-5.47 3.42-7.29 6.92l7.32 3.42a17.06 17.06 0 0 1 5.89-5.12Z" fill="#F9BD00"/><path d="m22.1 19.9.07-.17 4.69-4.4c.4-.21.81-.42 1.22-.6 1.95.98 5.47 3.41 7.29 6.91l-7.32 3.42a17.04 17.04 0 0 0-5.95-5.15Z" fill="#F9BD00"/><path d="M30.99 30.98a15.2 15.2 0 0 0-3-6.03 24.23 24.23 0 0 0-3.01 6.03A18.45 18.45 0 0 1 28 34.63c.74-1.48 2.32-3 2.98-3.65Z" fill="#218742"/></svg>