<!-- by TradingView --><svg width="56" height="56" viewBox="0 0 56 56" xmlns="http://www.w3.org/2000/svg"><path fill="#F0F3FA" d="M0 0h56v56H0z"/><path d="M23.32 19.4c-.02.06-.03.1-.01.13a3087.5 3087.5 0 0 1 7.03 12.71.1.1 0 0 0 .13-.03l2.11-4.09a.34.34 0 0 0 0-.33L25.44 15h4.54c.09 0 .18.04.25.08a.5.5 0 0 1 .19.2c3.04 5.66 6.3 11.1 9.48 16.73a.1.1 0 0 0 .05.04.1.1 0 0 0 .05.01c.06 0 .1-.04.13-.1 1.2-2.4 1.84-3.62 1.95-3.84a.47.47 0 0 0 .05-.16c0-.05 0-.1-.02-.13l-4.8-8.27a.24.24 0 0 1-.03-.1c0-.03 0-.05.02-.08l2.68-4.3 6.96 12.64a.47.47 0 0 1 0 .45c-1.86 3.42-4.07 7.5-6.6 12.23-.12.22-.26.42-.43.6.02-.1.02-.18-.02-.24a1323.77 1323.77 0 0 1-4.56-8.1.1.1 0 0 0-.13.03 498.3 498.3 0 0 0-2.34 4 .89.89 0 0 0-.1.33.2.2 0 0 0-.13.1 67.36 67.36 0 0 1-2.08 3.58.66.66 0 0 1-.18.18c-.42-.72-.82-1.45-1.22-2.18-5.42-9.81-9.09-16.43-11-19.86a194 194 0 0 1-1.84-3.37.74.74 0 0 1-.07-.22c-.02-.1-.06-.23-.1-.25h4.48a.38.38 0 0 1 .33.19c.78 1.37 1.55 2.77 2.3 4.2 0 .02.03.03.07.02Z" fill="#EA993F"/><path d="m39.98 15.1-2.66 4.3a.13.13 0 0 0-.02.08c0 .04.02.07.04.1l4.77 8.25.02.13c0 .05-.02.1-.05.16l-1.96 3.98c-.03.06-.07.09-.13.1a.1.1 0 0 1-.05-.01.1.1 0 0 1-.05-.04l-7.15-12.62-.17-.33c.75-1.24 1.58-2.59 2.35-3.81.16-.27.37-.4.61-.39h4.38c.05 0 .07.08.07.1ZM16.13 15c.05.02.09.08.1.19l.09.21c.6 1.14 1.2 2.27 1.83 3.39 1.91 3.44 5.58 10.07 11 19.9.4.74.81 1.47 1.24 2.2-.04.07-.1.11-.14.11H25.6c-.04 0-.08-.02-.12-.04a.22.22 0 0 1-.08-.09l-2.16-3.93-7.14-13.02a.07.07 0 0 0-.06-.04.08.08 0 0 0-.07.04l-2.13 4.2a.23.23 0 0 0 0 .21l4.55 8.52a.32.32 0 0 1-.01.31L16.07 41 9.03 28.05a.26.26 0 0 1 0-.25l6.88-12.58c.06-.1.13-.17.22-.22ZM25.45 15l7.13 12.79c.06.1.06.22 0 .33l-2.1 4.09a.1.1 0 0 1-.1.05.1.1 0 0 1-.07-.05c-2.4-4.38-4.74-8.6-7-12.68-.02-.03-.01-.07.01-.12L25.45 15Z" fill="#7B7A2F"/><path d="m23.26 36.95-2.2 3.93a.23.23 0 0 1-.2.12h-4.8l2.3-3.84a.31.31 0 0 0 0-.3l-4.59-8.54a.22.22 0 0 1 0-.21L16 23.8a.08.08 0 0 1 .13 0l7.14 13.14Z" fill="#EA993F"/><path d="M39.91 41h-4.64a.44.44 0 0 1-.21-.07.42.42 0 0 1-.16-.16l-2.13-3.75a.88.88 0 0 1 .1-.32 495.32 495.32 0 0 1 2.36-4.04.1.1 0 0 1 .1 0 1326.14 1326.14 0 0 0 4.57 8.1c.03.06.03.14.01.24Z" fill="#7B7A2F"/></svg>