<!-- by TradingView --><svg width="56" height="56" viewBox="0 0 56 56" xmlns="http://www.w3.org/2000/svg"><path fill="#F0F3FA" d="M0 0h56v56H0z"/><path d="m14.72 23.54-2.63-4.6 14.16-3.28 17.25 3.29-1.72 3.96-1.1 13.32-11.92 6.34-12.86-6.03-1.18-13Z" fill="url(#a)"/><path d="M45.77 17.88 28 14.04v1.07l15.55 4.11-1.78 4.16h1.57l2.43-4.32a1 1 0 0 0 .23-.61c0-.28-.16-.5-.23-.57Z" fill="url(#b)"/><path d="M27.96 15.06v-.53L11.3 18.26l-.68-.54-.61.54v.47l1.29.35 2.92 4.3h.43l-2.36-3.47v-1l15.68-3.85Z" fill="url(#c)"/><path d="m11.42 18.4-.82-.67L28 14v.63l-16.58 3.78Z" fill="url(#d)"/><path d="m11.28 18.98-1.24-.23 2.65 4.75h1.62l-3.03-4.52Z" fill="#53524E"/><path d="m13.83 19.77-1.6-.62v.73l2.43 3.62h1.28l-2.11-3.73Z" fill="url(#e)"/><path d="m28 15.06-15.69 3.81-.07.38 1.54.57L28 16.97v-1.9Z" fill="url(#f)"/><path d="m13.04 32.98-.31-9.48H16v9c0 2.8 1.7 4.26 2.59 4.65l9.43 3.95V44l-9.43-3.8c-1.07-.5-3.44-1.8-4.32-3.05-.88-1.24-1.19-3.3-1.23-4.17Z" fill="url(#g)"/><path d="m13.2 31.58-.33-8.08h1.35c.14 3.39.53 10.45.94 11.8.42 1.36 1.8 2.2 2.45 2.45l10.4 4.4v1.57c-3.4-1.39-10.47-4.3-11.46-4.9a6.07 6.07 0 0 1-2.62-3 18.97 18.97 0 0 1-.73-4.24Z" fill="url(#h)"/><path d="m42.87 32.98.31-9.6H40v9.11c0 2.8-1.74 4.27-2.63 4.66l-9.35 3.95V44l9.35-3.8c1.07-.5 3.4-1.8 4.28-3.05.87-1.24 1.18-3.3 1.22-4.17Z" fill="url(#i)"/><path d="m42.85 31.58.44-8.25h-1.35c-.14 3.39-.64 10.62-1.05 11.97-.42 1.36-1.8 2.2-2.45 2.45l-10.4 4.4v1.57c3.4-1.39 10.47-4.3 11.45-4.9a6.07 6.07 0 0 0 2.63-3c.4-1.04.66-3.26.73-4.24Z" fill="url(#j)"/><path d="M43.42 18.9 28 14.93v2.05l14.17 2.83-1.99 3.58h1.73c.57-1.03 1.56-3.2 1.8-3.58.23-.4-.1-.76-.3-.93Z" fill="url(#k)"/><path d="m43.79 19.27-1.72.57-1.97 3.6h1.85l1.76-3.4c.15-.3.12-.64.08-.77Z" fill="url(#l)"/><path d="M28 23H16.36L15 20.12 28 18v5Z" fill="url(#m)"/><path d="M28 23h11.64L41 20.12 28 18v5Z" fill="url(#n)"/><path fill-rule="evenodd" d="M18 20v2h2v-.57h-1.3V20H18Zm3 0v1.7c0 .17.16.3.35.3h2.3c.2 0 .35-.13.35-.3V20h-.76v1.46H21.8V20H21Zm7 1.7V20h.79v1.46h1.45V20H31v1.7c0 .17-.16.3-.35.3h-2.3c-.2 0-.35-.13-.35-.3ZM24.33 20l1.06 1.1v.9h.9v-.93l1.1-1.07h-.97l-.53.65-.5-.65h-1.06Zm9.34 1.98h.86l-.96-1.95h-1.15l-.96 1.95h.86l.12-.33h1.11l.12.33Zm-.3-.82-.27-.72h-.2l-.27.72h.74ZM35 22v-1.96h1.32l.84 1.43v-1.43H38v1.96h-1.29l-.96-1.41v1.4H35Z" fill="#FEFEFE"/><path fill-rule="evenodd" d="M25.5 23.5H21V28h-4.5l.35 5H21v4.5h4.5v1.86l2.62 1.14 2.38-1.14V37.5H35V33h4.15l.35-5H35v-4.5h-4.5V28h-5v-4.5Zm0 9.5H21v-5h4.5v5Zm5 0v-5H35v5h-4.5Zm0 0h-5v4.5h5V33Z" fill="url(#o)"/><defs><linearGradient id="a" x1="15.61" y1="27.84" x2="39.9" y2="27.84" gradientUnits="userSpaceOnUse"><stop stop-color="#221713"/><stop offset=".47" stop-color="#221715"/><stop offset=".6" stop-color="#1A100E"/><stop offset="1" stop-color="#231814"/></linearGradient><linearGradient id="b" x1="28.77" y1="14.93" x2="42.56" y2="22.84" gradientUnits="userSpaceOnUse"><stop stop-color="#92918F"/><stop offset="1" stop-color="#5D5D5D"/></linearGradient><linearGradient id="c" x1="20" y1="17.33" x2="19.23" y2="24.01" gradientUnits="userSpaceOnUse"><stop stop-color="#F7F7F7"/><stop offset=".31" stop-color="#BDBBBC"/><stop offset=".73" stop-color="#979596"/><stop offset=".94" stop-color="#DDDBDC"/></linearGradient><linearGradient id="d" x1="27.33" y1="14.3" x2="8.62" y2="18.93" gradientUnits="userSpaceOnUse"><stop stop-color="#F7F7F7"/><stop offset=".81" stop-color="#5D5C5A"/></linearGradient><linearGradient id="e" x1="13.96" y1="19.15" x2="13.96" y2="23.37" gradientUnits="userSpaceOnUse"><stop offset=".14" stop-color="#777978"/><stop offset="1" stop-color="#FFFFFB"/></linearGradient><linearGradient id="f" x1="27.8" y1="17.01" x2="20.35" y2="17.01" gradientUnits="userSpaceOnUse"><stop stop-color="#959595"/><stop offset="1" stop-color="#fff"/></linearGradient><linearGradient id="g" x1="13.22" y1="25.43" x2="30.07" y2="37.66" gradientUnits="userSpaceOnUse"><stop stop-color="#605E5F"/><stop offset=".23" stop-color="#898989"/><stop offset=".47" stop-color="#5D5D5D"/><stop offset="1" stop-color="#A9A6A3"/></linearGradient><linearGradient id="h" x1="28.02" y1="32.94" x2="23.64" y2="41.49" gradientUnits="userSpaceOnUse"><stop stop-color="#BFBBB8"/><stop offset=".22" stop-color="#7E7D7B"/><stop offset=".61" stop-color="#BFBFBF"/><stop offset="1" stop-color="#E4E4E4"/></linearGradient><linearGradient id="i" x1="42.69" y1="25.43" x2="29.55" y2="42.83" gradientUnits="userSpaceOnUse"><stop stop-color="#FDFFFE"/><stop offset=".31" stop-color="#8E8D8D"/><stop offset=".47" stop-color="#FFFEFF"/><stop offset=".67" stop-color="#6E6A67"/><stop offset="1" stop-color="#FDFDFD"/></linearGradient><linearGradient id="j" x1="48.7" y1="39.74" x2="29.15" y2="43.63" gradientUnits="userSpaceOnUse"><stop offset=".13" stop-color="#4E4A49"/><stop offset=".31" stop-color="#888"/><stop offset=".55" stop-color="#E3E3E3"/><stop offset=".72" stop-color="#C7C3C2"/><stop offset=".86" stop-color="#FBFBFB"/><stop offset=".97" stop-color="#C3C2C0"/></linearGradient><linearGradient id="k" x1="28.19" y1="15.95" x2="40.97" y2="20.59" gradientUnits="userSpaceOnUse"><stop stop-color="#E3E2E0"/><stop offset="1" stop-color="#B5B1B0"/></linearGradient><linearGradient id="l" x1="41.96" y1="19.27" x2="41.96" y2="23.44" gradientUnits="userSpaceOnUse"><stop stop-color="#EDEDED"/><stop offset="1" stop-color="#C3C9C9"/></linearGradient><linearGradient id="m" x1="15.94" y1="21.18" x2="27.56" y2="21.18" gradientUnits="userSpaceOnUse"><stop stop-color="#058C40"/><stop offset="1" stop-color="#018E40"/></linearGradient><linearGradient id="n" x1="40.06" y1="21.18" x2="28.44" y2="21.18" gradientUnits="userSpaceOnUse"><stop stop-color="#058C40"/><stop offset="1" stop-color="#017E3C"/></linearGradient><linearGradient id="o" x1="27.13" y1="38.29" x2="30.24" y2="38.29" gradientUnits="userSpaceOnUse"><stop offset=".19" stop-color="#fff"/><stop offset=".43" stop-color="#C2BDB9"/><stop offset=".91" stop-color="#F6F8F7"/></linearGradient></defs></svg>