<!-- by TradingView --><svg width="56" height="56" viewBox="0 0 56 56" xmlns="http://www.w3.org/2000/svg"><path fill="#F0F3FA" d="M0 0h56v56H0z"/><path d="M36 39h3v-3h-3v-3h-3v3h-2.95v3H33v3h3v-3Zm5-3.72a8.12 8.12 0 0 0 4-6.8c0-3.96-3.39-7.48-7.34-7.48a7.19 7.19 0 0 0-4.21 1.37A7.11 7.11 0 0 0 26.3 15a7.5 7.5 0 0 0-5.94 11.82h-.02A5.15 5.15 0 0 0 16.4 25C13.4 25 11 26.99 11 30s2.4 6 5.4 6H28v3H16.18C11.66 39 8 34.7 8 30.18A8.18 8.18 0 0 1 16.18 22a10 10 0 0 1 10-10c4.24 0 7.86 2.5 9.32 6.23.7-.15 1.42-.23 2.16-.23C43.37 18 48 22.77 48 28.48c0 4.54-2.93 8.62-7 10.06v-3.26ZM16.18 39c-.04 0-.02 0 0 0Z" fill="#33B0DB"/></svg>