<!-- by TradingView --><svg width="56" height="56" viewBox="0 0 56 56" xmlns="http://www.w3.org/2000/svg"><path fill="#F0F3FA" d="M0 0h56v56H0z"/><path d="M28 18.17s.02 0 .03-.02a7.1 7.1 0 0 1 1.22-1.43c1.99-1.78 4.27-2.18 6.86-1.2a8.1 8.1 0 0 1 1.65.82c2.18 1.47 2.81 3.88 2.34 6.4a12.75 12.75 0 0 1-1.52 4.15 20.82 20.82 0 0 1-4.44 5.03A203.68 203.68 0 0 1 28 36.97h-.04a203.97 203.97 0 0 1-6.11-5.05 20.8 20.8 0 0 1-4.44-5.03 12.76 12.76 0 0 1-1.52-4.15c-.47-2.52.17-4.93 2.35-6.4.46-.3 1-.58 1.64-.82 2.59-.98 4.88-.58 6.86 1.2A7.07 7.07 0 0 1 28 18.17Z" fill="#E32A35"/><path d="M14 23.69c0-.31 0-.58.03-.8.04-.28.2-.4.48-.38.11.01.27.11.48.3.48.45.78 1.18.91 1.8.06.29.1.73.1 1.31v3.04c0 .06-.02.06-.06.02L14.1 26.9c-.02-.03-.1-.05-.1-.08V23.7ZM42 23.68c-.03 1.52.01 2.57 0 3.14 0 .03-.07.05-.1.07l-1.84 2.09c-.04.04-.06.03-.06-.02v-3.04c0-.59.03-1.02.1-1.31.13-.62.42-1.36.91-1.8.2-.2.37-.3.48-.3.28-.03.44.1.48.38.02.22.03.49.03.8Z" fill="#F7BF32"/><path d="M9 25.81v-.3c.1-.33.35-.5.7-.53.9-.08 1.9.14 2.62.72.16.13.39.38.68.75 1.28 1.6 2.51 3.17 3.71 4.7.2.24.47.52.81.82.56.5 1.12.8 1.67.9.63.13 1.18.24 1.64.35a4.1 4.1 0 0 1 1.62.73c.16.14.38.37.65.71 1.32 1.66 2.83 3.59 4.54 5.8.02.02.02.04-.01.06L23.69 43h-.06l-.91-1.15a1.83 1.83 0 0 0-.56-.53 7.4 7.4 0 0 0-.78-.4c-1.85-.76-4.11-1.72-6.79-2.87-.58-.25-1.14-.4-1.7-.64a2.46 2.46 0 0 1-1.39-1.3 3.62 3.62 0 0 1-.15-.9 190.02 190.02 0 0 1-.25-5.64c0-.05.02-.06.06-.01 1.44 1.7 2.63 3.12 3.56 4.3.13.14.28.27.48.36h.04l.04-.01c.06-.06.1-.12.1-.2 0-.04-.02-.1-.07-.17-2.17-2.73-4.23-5.3-6.19-7.73a1.01 1.01 0 0 1-.12-.29ZM40.81 34.2c.18-.08.34-.22.5-.41 1.08-1.34 2.24-2.74 3.5-4.23.05-.05.07-.04.07.03a128.96 128.96 0 0 1-.27 5.97c-.12 1.32-1.27 1.8-2.35 2.15l-.65.25c-1.67.7-3.71 1.6-5.63 2.38-.77.31-1.34.55-1.7.71-.1.05-.28.15-.54.32-.15.1-.3.24-.44.43-.26.34-.57.73-.94 1.17-.02.03-.04.03-.07.01l-3.93-2.46a.05.05 0 0 1 0-.07c1.7-2.2 3.22-4.14 4.58-5.84.24-.3.43-.51.58-.64.77-.64 1.8-.8 2.82-1 .52-.1.9-.21 1.12-.32a6.06 6.06 0 0 0 2.05-1.8l3.8-4.8c.1-.11.24-.25.45-.41a3.7 3.7 0 0 1 2.25-.68c.35 0 .6.06.76.2.19.16.26.37.22.63a1.3 1.3 0 0 1-.3.54c-1.3 1.6-3.3 4.1-6 7.5-.06.07-.1.14-.08.2.01.07.05.13.11.17.03.01.06.02.1 0Z" fill="#F7BF32"/></svg>