<!-- by TradingView --><svg width="56" height="56" viewBox="0 0 56 56" xmlns="http://www.w3.org/2000/svg"><path fill="#F0F3FA" d="M0 0h56v56H0z"/><path d="M23.91 13H13v30h10.22c-1-1.68-2.41-4.14-2.72-6-.38-2.25.03-5.75.5-7-3.75-3.38-3.13-8.47-2.5-10.5l1.06 2.4c0-1.5.84-3.8 1.3-4.9h-.93a12.45 12.45 0 0 1 3.98-4Zm9.92 30H43V20.39c-2.86.84-7.79 2.9-12.19 6.67-4.35 3.73-3.63 9.22-2.28 12.68-.49-1.56-.6-3.41-.06-4.24-.35 2 1.4 4.84 2.34 6.1-.06-.13-.18-.3-.32-.52C29.95 40.25 29 38.81 29 37c0-2 1.9-5.72 3-7.13-.31 1.25-.5 4.5-.5 7.13 0 2.1 1.27 4.5 2.33 6ZM43 17v-4H31.13A8.86 8.86 0 0 1 34 15c-11.62.75-12.25 8.31-11 12.06C24.13 22.2 36 17 40 17h3Z" fill="#942335"/></svg>