<!-- by TradingView --><svg width="56" height="56" viewBox="0 0 56 56" xmlns="http://www.w3.org/2000/svg"><path fill="#F0F3FA" d="M0 0h56v56H0z"/><path d="M30.15 22c.54.2 1.63.68 1.6.95 0 .1-.05.2-.11.32-.15.3-.39.75-.34 1.87.38-.14 1.15-.3 1.17.2.02.49-.77.61-1.17.61v1.6c.35-.45 1.07-1.28 1.17-.96.1.32-.74 1.33-1.17 1.8v4.4c.11.31.3 1 .17 1.16-.17.2-1-.33-2.03-3.03.03.09.82.83 1.21 1.19v-2.94l-1.21 1.03c-.34.17-1.1.4-1.49 0l2.7-2.1v-1.75c-.62.2-1.92.47-2.13 0 .1-.13 1.46-.6 2.13-.81v-2.59c-.2-.24-.59-.76-.5-.95Zm-12.98 3.33c-.1-.13-.2-.4.21-.55.41-.15 1.57-.85 2.1-1.18l-.55-.24c.35-.15 1.13-.35 1.53 0 .47.43.03.62-1.22 1.14l-.14.07c.25.2.67.82.37 1.6.53-.12 1.56-.22 1.5.3-.05.53-1.02.4-1.5.27v.81c.54.24 1.52.86 1.2 1.36-.32.5-1.04-.35-1.36-.84v4.56c.33.4.85 1.23.3 1.33-.54.1-1.16-1.05-1.4-1.65l.35-.36.16-3.5c-.67 1.04-2.2 3.2-3.05 3.5.96-1.34 2.89-4.15 2.89-4.74l-1.4.73-1.02-.6 2.58-1c.06-.45.12-1.4-.16-1.56l-1.4.55Zm4.98 2.01c-1.05-.48-.9-2.05-.7-2.77.42 2.06.9 1.96 1.53 1.82l.23-.04c.6-.1 1.1-1.32 1.27-1.91-.3.04-1.04.17-1.6.34a1.26 1.26 0 0 1-1.22-.34c.79-.28 2.33-.68 3-.84l.95.97-1.13 1.38c.15-.04.46-.02.54.4.07.42-1.58.54-2.42.55.07.44-.27.48-.45.44Zm2.33.21-3.8.73c.27.76 1.3.54 1.78.34.56.44.51 1.02.42 1.26-.95.25-1.74.1-2.02 0 .45.67 1.53.75 2.02.7v1.37c-1.09 0-2.73.35-3.4.52.24.24.97.64 1.97.37s2.9-.46 3.73-.53c.5.25 1.55.65 1.74.32.16-.28-.1-.4-.5-.57-.2-.09-.43-.18-.65-.32-.54-.34-.96-.14-1.1 0h-1.01v-1.15c.56-.13 1.65-.5 1.52-.9-.13-.4-1.07-.16-1.52 0 .13-.7-.25-1.13-.45-1.25.69 0 2.08-.1 2.14-.5.05-.4-.56-.42-.87-.39Zm9.9-2.97c-.2-.29-.54-.79-.84-.98-.01-.11.1-.27.62 0s1.08.76 1.3.97c.73-.35 2.3-.56 2.68 1.38l-2.05.4c-.31.49-.74 1.44 0 1.33.73-.1 1.24-.3 1.4-.4.31.08.8.31.27.66-.42.28-1.04.5-1.55.7-.31.11-.58.21-.75.3l.42-.56c-.36.04-.99-.16-.67-1.26v-.04c0-.22 0-.63-.5-1.33.32.14 1.08.37 1.48.2.4-.16.77-.6.9-.8h-1.36c-.04.28-.25.71-.71.18-.36.15-1.15.42-1.48.33-.42-.12-.7.6-.5.93.18.32.35 1.39 0 .96-.36-.43-.68-.97-.34-1.6a2.7 2.7 0 0 1 1.84-1.16l-.16-.21ZM34 26.19l.85.93c-.63.79-2 2.4-2.38 2.58.5-.99 1.53-3.07 1.53-3.5Zm-.97 3.38c.35.03 1.33 0 2.43-.4 1.38-.49 1.78.1 1.48.4-.23.24-1.25.52-1.73.63.17.16.45.7.25 1.54 0-.03 1-.14 1.48-.2.24-.07.87-.1 1.49.43.77.66.77 1.14-.08.81-.15-.05-.28-.1-.4-.16-.63-.25-1.1-.44-2.07-.3-.94.13-2.66.6-3.41.81l-1-.5c.58-.22 2.05-.66 3.24-.66V30.2c-.6.06-1.76.02-1.68-.63Zm7.2 4.17c.44-.68 1.38-2.47 1.57-4.17.23-2.12.25-3.85-.26-4.43-.5-.57.88-.67 1.07 0v1.47c.4-.17 1.19-.53 1.17-.66v-1.7l-.88.32-1.1-.54c.48-.01 1.5-.09 1.71-.33.27-.3 1.1-.19 1.17.56.03.4-.04.49-.13.6-.07.08-.15.19-.16.52-.02.56 0 1.5 0 1.9l.48-.67.3.33-.78 1 .3 5.3c.79-.41 2.4-1.41 2.54-2.06 0-.19-.85-1.3-1.27-1.82-.25 0-.79-.08-.92-.42h1.36l1.25 1.68c.21-.48.63-1.53.63-1.98-.68.13-2.12.31-2.47 0 .12 0 1.8-.64 2.64-.96l.92.7c-.28.75-.93 2.35-1.28 2.8.2.3.79.96 1.61 1.13.82.17 1.87.87 2.3 1.2-.94-.04-2.93-.22-3.37-.73-.43-.5-.83-.9-.98-1.04-.62.67-2.18 1.97-3.45 1.77-.53-.57-1.59-1.91-1.59-2.75l1.32 1.55-.15-3.37c-.2.37-.77 1.07-1.42.96 0 .14-.33 2.93-2.13 3.84Zm2.26-6.64v2.17L43.82 28v-1.47l-1 1.1v-.54h-.33Zm3-3.59Zm.16.19c.3.36.98 1.06 1.25 1.28.02.91-.42 2.91-2.32 3.66 0-.07.12-.23.3-.46.47-.57 1.3-1.6 1.3-2.8a5.22 5.22 0 0 0-.53-1.68Zm2.63-.56c-.29.24-1.51.7-2.1.89.68.4 1.4.17 1.68 0v2.16c.17 1.06 1.17 1.44 1.65 1.5h1.67c-.06-1.01-1.24-2.3-1.81-2.83l.77 2.08c-1.1.26-1.59-.4-1.7-.75v-1.72l.65-.77-.81-.56Zm-37.03-.26v-.81l.98.8-2.3 2.16 1.68-.18c.55-.4 1.02-.3 1.18-.2.67.28 1.93.95 1.64 1.31-.26.33-.84.04-1.34-.22-.18-.1-.36-.18-.5-.23-.42-.14-2.24.06-3.1.18.8.12-.22.96-.83 1.36l1.57-.33c1.54.61 1.32 1.15 1.02 1.34v5.1c-.11 1.15-.55.88-.75.6l-1-1.14H8.3c.43 1.03-.07.9-.37.7l-.75-1.16c.18-.2.29-.92.32-1.26v-1.77c0-.83-.21-1.38-.32-1.55.56-.46 1.64-1.43 1.48-1.62-.2-.2-1.62.33-2.6.69l-.2.07c-.76.29-1.56-.11-1.86-.35l4.66-1.14c.72-.34 2.03-1.71 2.59-2.35ZM7.5 25.23c-.82-.28-.18-1.69.25-2.35v1.14c1.56-.83 2.63-.96 2.98-.92-.56.33-1.78 1.05-2.23 1.27-.46.22-.86.67-1 .86Zm1.52 2.5c-.43.2-1.18-.08-1.5-.25.8.52.63 1.04.54 1.3l-.04.14c.46-.03.87-.22 1.21-.39.42-.19.74-.34.95-.14.3.3-.81 1.02-1.4 1.34v-.45h-.76v1.21l.41-.14c.72-.25 1.43-.5 1.75-.26.3.22-.81.87-1.4 1.16v-.48h-.76v1.34c.5.03.67-.08.86-.2.19-.1.39-.23.91-.25.86-.04.5.57.2.88l.6.33v-5.13c-.14-.75-.77-.42-1.3-.14l-.27.14Z" fill="#10355B"/></svg>