<!-- by TradingView --><svg width="56" height="56" viewBox="0 0 56 56" xmlns="http://www.w3.org/2000/svg"><path fill="#F0F3FA" d="M0 0h56v56H0z"/><path d="M25.37 26.28c-.08-.03-2.56 2.7-2.72 2.87a17 17 0 0 1-3.95 3.52c-.41.28-.76.38-1.05.3-.37-.1-.73-.28-1.1-.55-.07-.06-.11-.19-.11-.38 0-.06-.11-.47-.33-1.23a8.74 8.74 0 0 1-.01-2.77 2.7 2.7 0 0 1 .67-1.54c.45-.52 1.05-1.09 1.4-1.82 1.19-2.48 3.72-4 4.94-6.45l1.64-3.32a6.7 6.7 0 0 0 .64-2.2l.23-2.34A.4.4 0 0 1 26 10a.4.4 0 0 1 .19.03c.68.3 1.12.63 1.35 1.44.45 1.66.54 3.23.76 4.93.1.7-.23 1.5-.32 2.1-.13.8.13.95.77.45.74-.58 1.46-1.03 2.17-1.37l1.75-.95c2.36-1.3 5.29-.57 7.18 1.3a.5.5 0 0 1 .03.67c-.47.55-.65 1.2-1.3 1.63-.9.6-1.67 1.48-2.7 1.8-.45.14-.82.5-1.13 1.1a.4.4 0 0 1-.28.22c-1.34.27-2.1 1.24-3.51 1.53a.25.25 0 0 1-.3-.16.25.25 0 0 1 0-.12l.12-.7c.02-.13-.03-.18-.17-.14-.32.09-.57.2-.73.36-2.25 2.19-2.27.87-4.5 2.16Z"/><path d="M28.35 29.03c-.11-.04-.15-.12-.11-.23.05-.15-.03-.32-.24-.5l1-.07c.15 0 .2-.09.17-.24-.03-.17-.17-.64.18-.59.7.11 1.33-.1 1.9-.63.1-.1.14-.2.1-.34a1.05 1.05 0 0 0-.3-.48.44.44 0 0 1-.12-.38.44.44 0 0 1 .24-.33c.45-.2.86-.28 1.23-.22a.8.8 0 0 1 .44.24c.7.72 1.86 1.19 2.26 2.14.6 1.42.9 2.65.9 3.68 0 .45-.33.84-.77.91a.87.87 0 0 1-.42-.04l-1.57-.54a.44.44 0 0 0-.29 0c-.42.13-.8.18-1.17.13a.49.49 0 0 1-.35-.2 7.24 7.24 0 0 0-3.08-2.3Z" fill="#FF0025"/><path d="M27.75 28.05c.2.18.28.33.23.48-.03.11 0 .19.11.23l.85.32c.27.11.4.29.4.54a14 14 0 0 0-1.93 0c-.5.03-.82.27-.96.7-.22.68-.37 1.44-.45 2.28-.05.56-.28.91-.67 1.08a.33.33 0 0 0-.22.33v2.3c0 .16.08.21.23.16.1-.04.21-.04.35 0l.14.08c.34.25.72.62 1.16 1.1.4.43.84.52 1.31.27a6.15 6.15 0 0 0 2.42-2.11.5.5 0 0 1 .14-.15c.45-.3 1.09-.34 1.58-.66.12-.08.25-.1.38-.07.52.12 1.1.14 1.71.07.52-.06 1.1 0 1.73.17.48.14 1.16.4 2.03.8.53.24.91.54 1.13.89.56.88 1 2.37-.11 3.05-.63.38-1.2-.21-1.8-.35l-3.86-.87a2.89 2.89 0 0 0-1.68.1c-.58.21-1.33.43-2.26.63-1.53.33-2.8 0-3.81-1-.18-.2-.23-.16-.15.08.19.53.53 1.1 1.05 1.7.08.11.2.17.33.2.7.1 4.65-.13 4.57-.11l-4.79 1c-.22.05-.22.1 0 .16.59.16 1.17.11 1.74-.15.28-.14.47-.15.6-.04.12.12.1.19-.08.2-.32.04-.58.1-.79.21-.32.16-.55.26-.7.29-.58.1-1.2.14-1.84.1-.06 0-.1.03-.1.09v.1c0 .02.01.03.02.03.26.06 2.95.29 2.5-.15-.1-.1-.08-.15.07-.14.81.08 1.3.09 1.43.03.5-.22 1.04-.37 1.62-.45.18-.02.21.03.1.17-.09.11-.25.2-.5.27-.17.05-.28.18-.3.37a.38.38 0 0 1-.2.3c-1.7.88-4.23 1.72-6.1 1.11a4.54 4.54 0 0 1-2.98-2.92c-.1-.26-.22-.9-.38-1.94-.1-.66.15-1.82.76-3.49.84-2.29 1.55-4.1 2.15-5.44a2.54 2.54 0 0 1 2.13-1.61c.14-.02.26.01.37.09.3.2.57.24.8.14.18-.08.17-.16-.01-.24l-.25-.1c-.24-.1-.23-.19.01-.24.24-.06.5-.05.77.01Z"/></svg>