<!-- by TradingView --><svg width="56" height="56" viewBox="0 0 56 56" xmlns="http://www.w3.org/2000/svg"><path fill="#F0F3FA" d="M0 0h56v56H0z"/><path d="M44 28a16 16 0 1 1-32 0 16 16 0 0 1 32 0Zm-26.41.19c.14-1.8 1.02-4.3 3.08-4.58 2.21-.3 4.3 2.14 4.78 4.05.44 1.78.06 3.31-1.16 4.6-3.03 3.24-7.33 2.6-10-.63a.04.04 0 0 0-.05-.01l-.01.02v.03a13.6 13.6 0 0 0 5.24 6.12c2.12 1.35 5.24 2.87 7.9 2.33 1.75-.36 3.56-1.73 3.81-3.63.53-3.94-5.66-3.63-5.26-.66.16 1.15 1.34 2.02 2.35 2.51v.03a.02.02 0 0 1-.01.02c-2.28-.11-5.78-1.64-4.42-4.63 1-2.2 3.53-3.72 5.95-3.3 1.75.3 3.15 1.65 3.94 3.18 1.5 2.88.34 6.06-2.07 8.04v.03a.04.04 0 0 0 .02.04h.03c3.76-1.63 6.37-4.84 7.86-8.7 1.1-2.84.91-7.06-2.62-8.13-2.67-.8-4.38 2.2-2.85 4.3 1.56 2.14 3.5.02 4.25-1.44a.04.04 0 0 1 .04-.02.03.03 0 0 1 .03.03c-.2 2.64-2 6.07-5.26 4.03-3.8-2.36-3.67-7.42.38-9.5 3-1.54 6.22-.4 8.23 2.13l.02.01a.04.04 0 0 0 .05-.06 14.37 14.37 0 0 0-7.28-7.27c-2.8-1.28-5.84-2.32-8.41.04-1.29 1.18-2.04 3.4-.44 4.71.99.82 2.45.8 3.48.06 2.08-1.48.25-3.42-1.24-4.16-.19-.1-.18-.14.03-.13.97.04 1.9.32 2.79.82 5.06 2.84-2.69 10.39-7.25 5.6-2.91-3.06-2.34-7.22.83-9.74a.05.05 0 0 0 .02-.06.05.05 0 0 0-.07-.02c-4.3 1.93-7.07 5.68-8.3 10.27-.57 2.1-.03 4.47 1.7 5.85 3.19 2.5 6.45-1.24 3.95-3.92-1.5-1.6-3.35.47-3.98 1.76a.05.05 0 0 1-.05.03.05.05 0 0 1-.03-.05Z" fill="#064F9F"/></svg>