<!-- by TradingView --><svg width="56" height="56" viewBox="0 0 56 56" xmlns="http://www.w3.org/2000/svg"><path fill="#F0F3FA" d="M0 0h56v56H0z"/><path d="M27.36 12.4c-.51.12-.84.18-.98.2-.07 0-.07 0 0-.03.5-.2.85-.3 1.02-.34.5-.08.88-.15 1.15-.21.4-.09.84-.07 1.33.04.43.1 1 .26 1.7.49l.78.2c.32.08.79.26 1.4.54l.73.33c.6.24.98.4 1.13.49.6.34 1.23.69 1.91 1.05.08.05.12.02.12-.07a.41.41 0 0 0-.1-.22 5.44 5.44 0 0 0-1.76-1.53c-.39-.21-1-.49-1.86-.83a5.3 5.3 0 0 1-.45-.21 6.63 6.63 0 0 0-.92-.4l-1.1-.35-.85-.3c-.34-.13-.71-.2-1.1-.21l-.58-.03c-.21-.02-.4-.01-.6 0-1.25.14-2.5.5-3.74 1.1a14.8 14.8 0 0 0-3.28 2.13c-.96.82-1.88 1.7-2.74 2.64a16.75 16.75 0 0 0-1.51 1.9c-.52.7-.9 1.23-1.12 1.58-.36.55-.65 1.1-.88 1.62-.07.16-.17.33-.28.5-.06.07-.12.2-.19.37a19.5 19.5 0 0 0-.94 3.28c-.01.14-.03.25-.05.32-.04.12-.06.26-.07.44l-.08 1.55a6.2 6.2 0 0 0 .06 1.52c.24 1.08.46 2.25.65 3.52.1.6.29 1.21.58 1.86.18.4.5 1 .95 1.78a12 12 0 0 0 1.72 2.34c.1.1.21.14.33.1.03-.02.06-.01.09.01.04.04.2.2.46.5.57.59 1.23 1.01 1.98 1.28.48.17.96.35 1.43.55.02.01.02.02 0 .03l-.07.02h-.04a14.5 14.5 0 0 1-2.76-.98.07.07 0 0 0-.08 0c-.03.03-.03.05-.02.08a.1.1 0 0 1 0 .05c-.01.04-.04.06-.08.03a7.07 7.07 0 0 1-1.58-1.08c-.44-.4-.82-.69-1.16-.87a.59.59 0 0 1-.17-.15c-.5-.63-.85-1.1-1.07-1.4-.21-.3-.43-.68-.65-1.12a17.4 17.4 0 0 0-.64-1.13 4 4 0 0 1-.46-.96l-.03-.13c-.11-.42-.2-.72-.28-.92-.13-.33-.29-.6-.48-.8a.06.06 0 0 0-.07-.03.06.06 0 0 0-.05.06c-.03.25 0 .52.1.8a81.33 81.33 0 0 1 .87 2.88c.03.1.08.21.15.33.5.92 1.07 1.83 1.68 2.74.16.24.31.45.47.62l.47.6a8.6 8.6 0 0 0 4.4 2.84c.27.06.55.1.84.13a10 10 0 0 1 1.2.14c.99.16 1.73.26 2.22.28 1.54.09 3.1.03 4.69-.18a7.31 7.31 0 0 1 1.58-.28c.52-.05.89-.1 1.12-.16.95-.23 1.85-.6 2.69-1.12a17.56 17.56 0 0 0 4.67-4.16c.2-.26.45-.54.75-.85a11.82 11.82 0 0 0 1.7-2.61 21.09 21.09 0 0 0 .85-2.18l.01.03a48.1 48.1 0 0 1-.61 2.09 7.7 7.7 0 0 1-.97 2.03c-1.4 2.06-3 3.86-4.79 5.4-.09.08-.08.1.03.05.48-.2.87-.45 1.17-.76.19-.2.37-.35.54-.48.29-.23.47-.39.54-.47.25-.29.74-.86 1.5-1.7.83-.95 1.46-1.97 1.88-3.06.26-.66.41-1.09.47-1.28.1-.32.31-1.11.64-2.38.09-.36.13-.87.13-1.54a.07.07 0 0 0-.04-.06.09.09 0 0 0-.03-.01c-.04 0-.07.01-.08.05-.35.89-.82 1.74-1.41 2.57-.44.6-.86 1.12-1.28 1.57a65.16 65.16 0 0 1-2.77 2.78c-.29.22-.5.41-.67.57-.42.4-.9.78-1.46 1.13-1.56 1-3.04 1.55-4.43 1.68-.88.08-1.9.1-3.06.05-.48-.02-1 0-1.53.05-.41.04-.82.02-1.2-.06l-.77-.15a17.3 17.3 0 0 1-2.53-.62 5.74 5.74 0 0 1-1.95-1.03c-.2-.17-.41-.42-.64-.76a10.56 10.56 0 0 1-2.01-6.54l-.08-.82c-.05-.52-.02-.91.08-1.17.36-.9.69-2.32 1-4.23.06-.34.16-.7.3-1.05.18-.42.44-1.09.78-2 .11-.3.42-.84.93-1.64l.28-.51c.08-.17.2-.33.34-.49a7.62 7.62 0 0 1 2.09-1.69c.83-.47 1.54-.9 2.12-1.28.46-.3.95-.54 1.48-.73.1-.03.12-.01.05.07-.22.23-.49.45-.8.66-.61.38-1.03.67-1.25.86a.38.38 0 0 0-.14.3v.08c0 .12.05.15.14.09a21.21 21.21 0 0 1 3.73-1.9c.13-.07.27-.12.4-.16l.45-.12h.11c.13.06.25.06.38 0a.16.16 0 0 1 .12 0c.05 0 .13.04.22.1.13.06.24.1.33.11.9.1 1.68.22 2.35.33a8.37 8.37 0 0 1 6.02 4.49c.24.48.46 1.01.66 1.6.46 1.28.52 2.6.2 3.96-.04.14-.03.29.04.46.02.03.04.04.07 0 .15-.16.26-.37.34-.6a7.83 7.83 0 0 0 .23-3.77c-.3-1.59-.9-3.06-1.84-4.41-.46-.67-.97-1.3-1.53-1.86-.78-.8-1.94-1.56-3.47-2.26a64.6 64.6 0 0 0-3.08-1.32 4.7 4.7 0 0 0-2.83-.27ZM14.53 30.08a27.52 27.52 0 0 0 .74 5.1 3.3 3.3 0 0 1-.32-1 31.39 31.39 0 0 1-.5-2.96 12.72 12.72 0 0 1-.06-3.85c.1-.61.44-1.63 1-3.06.02-.03.04-.04.08-.04.03.01.05.03.05.07V24.51a14.94 14.94 0 0 0-.99 5.57Zm28.04 1.86c.02-.04.02-.04.01 0Zm-15.9 5.15a3 3 0 0 0 1.95.1c-.43.17-.85.25-1.25.27a3.9 3.9 0 0 1-1.14-.23l-.32-.1c-.3-.07-.6-.18-.94-.32a17.5 17.5 0 0 1-1.95-.96c-.2-.12-.24-.08-.11.11.17.27.41.5.71.69.19.11.48.26.88.43a6.32 6.32 0 0 0 1.37.55l.48.16c.28.11.57.17.86.19.36.02.66 0 .88-.04a7.17 7.17 0 0 0 3.31-1.63 13.65 13.65 0 0 0 3.4-4.23 7.8 7.8 0 0 0 .77-3.42c0-.34-.05-.77-.16-1.29l-.22-1.28a4.04 4.04 0 0 0-.37-1.07 8.12 8.12 0 0 0-1.33-2 .16.16 0 0 0-.1-.05c-.1-.01-.16-.04-.2-.08a2.78 2.78 0 0 0-.9-.75 396.11 396.11 0 0 0-.98-.39c0-.01 0-.02.02-.01.43.09.83.23 1.21.42.12.06.22.08.27.06a.13.13 0 0 1 .11 0c.2.08.43.25.72.49l.3.25c.3.21.5.39.6.53a6.75 6.75 0 0 1 .87 1.35 4.1 4.1 0 0 1 .45.94c.1.4.23.68.38.86 0 .02.02.02.04.02s.03-.02.03-.04c.01-.09 0-.19-.02-.29L36 25.29c-.1-.4-.23-.73-.36-.97-.57-1-1.12-1.76-1.65-2.28a4.06 4.06 0 0 0-2.36-1.16l-.86-.11a10.27 10.27 0 0 0-3.52-.01c-.3.07-.53.1-.7.12-.8.06-1.6.35-2.37.88a9.86 9.86 0 0 0-1.87 1.66c-.45.52-.76.88-.93 1.1-.33.44-.62 1-.88 1.7-.05.12-.06.11-.03-.01a5 5 0 0 1 .68-1.67 15.27 15.27 0 0 1 2.5-2.83c.05-.06.04-.07-.03-.04-.16.06-.3.14-.4.23l-.53.45a5.87 5.87 0 0 0-.54.56c-.37.41-.63.72-.8.94-.26.36-.47.7-.61 1.05-.32.76-.55 1.57-.68 2.41-.03.2.03.23.2.12l.08-.13c.33-.59.7-1.1 1.08-1.52a22.5 22.5 0 0 1 1.87-1.86c.34-.3.63-.52.89-.67a5.05 5.05 0 0 1 2.64-.86c.33 0 .93 0 1.8-.03.48 0 .91.03 1.3.11.48.1.92.21 1.33.34.53.18.93.43 1.18.76.33.43.6.9.8 1.4.22.56.34 1.1.37 1.62.01.4.04.81.07 1.25.01.1 0 .18-.03.27-.23.65-.4 1.37-.52 2.15-.04.28-.12.57-.25.87l-.33.85c-.06.16-.19.4-.39.72l-.17.3c-.13.24-.27.43-.43.59-.32.3-.5.45-.55.49a88.6 88.6 0 0 1-2.14 1.23c-.2.08-.21.05-.04-.08.17-.14.44-.32.79-.54.13-.09.21-.18.24-.26.05-.15 0-.18-.13-.1-.64.38-1.33.72-2.07 1.02-.2.08-.42.1-.65.04l-.4-.09-.96-.13a4.39 4.39 0 0 1-3.46-2.78 4.4 4.4 0 0 1-.38-1.71 5.53 5.53 0 0 1 .17-1.12c.02-.11-.01-.14-.1-.06-.02 0-.03.04-.06.1-.4.87-.45 1.84-.14 2.9.28.95.77 1.8 1.48 2.57.43.46.94.83 1.52 1.12.58.29 1.25.59 2 .9Zm8.03-11.41a6.32 6.32 0 0 1 .2.83l.13.83a5.77 5.77 0 0 1-.52 3.6h-.03c-.01 0-.02 0-.01-.01.4-1.04.57-2.07.52-3.09-.04-.73-.13-1.46-.3-2.16Z" fill="#00AEEF"/></svg>