<!-- by TradingView --><svg width="56" height="56" viewBox="0 0 56 56" xmlns="http://www.w3.org/2000/svg"><path fill="#F0F3FA" d="M0 0h56v56H0z"/><path d="M40.65 24h1.7L45 31h-1.67l-1.83-4.84L39.67 31H38l2.65-7ZM50.06 24H52l-2.53 3.5L52 31h-1.94l-1.56-2.16L46.94 31H45l2.53-3.5L45 24h1.94l1.56 2.16L50.06 24ZM10.97 29.82A4.24 4.24 0 0 1 7.99 31C5.79 31 4 29.43 4 27.5S5.79 24 7.99 24c1.2 0 2.28.47 3.01 1.2l-1 1.06a2.8 2.8 0 0 0-2.01-.78c-1.4 0-2.54.9-2.54 2.02s1.14 2.02 2.54 2.02c.8 0 1.5-.29 1.97-.75l1 1.05ZM28.97 29.82A4.24 4.24 0 0 1 25.99 31c-2.2 0-3.99-1.57-3.99-3.5s1.79-3.5 3.99-3.5c1.2 0 2.28.47 3.01 1.2l-1 1.06a2.8 2.8 0 0 0-2.01-.78c-1.4 0-2.54.9-2.54 2.02s1.14 2.02 2.54 2.02c.8 0 1.5-.29 1.97-.75l1 1.05ZM19 24h1.5v7H19v-7ZM31.53 24H30v7h1.5v-4.38l2.5 3.06 2.5-3.06V31H38v-7h-1.53L34 27.06 31.53 24ZM12 24h1.5v2.77h3V24H18v7h-1.5v-2.77h-3V31H12v-7Z" fill="#C0001E"/></svg>