<!-- by TradingView --><svg width="56" height="56" viewBox="0 0 56 56" xmlns="http://www.w3.org/2000/svg"><path fill="#F0F3FA" d="M0 0h56v56H0z"/><path d="M48.13 22H52L40.87 34H37l11.13-12Z" fill="#00305F"/><path d="M42.28 22H37l9.72 12H52l-9.72-12Z" fill="#00305F"/><path d="M22 22h5v7.6c0 1.56.96 2.82 2.45 2.82h.13c1.49 0 2.42-1.26 2.42-2.81v-6.39c0-.67.54-1.22 1.2-1.22H38v1h-1v6.29C37 33.5 33.64 34 29.5 34c-4.14 0-7.5-.5-7.5-4.71V22ZM9.8 22.63c.2-.39.59-.63 1-.63h4.39c.42 0 .8.24 1 .63L22 34h-4.91l-1.03-2H8.43l-1.02 2H4l5.8-11.37ZM9.96 29h4.57l-2.28-4.48L9.96 29Z" fill="#00305F"/></svg>