<!-- by TradingView --><svg width="56" height="56" viewBox="0 0 56 56" xmlns="http://www.w3.org/2000/svg"><path fill="#F0F3FA" d="M0 0h56v56H0z"/><path d="M27 14h-9.58l-2.57 9.41L16 25h-1.81L11 33.2l7.7 5.9 2.3-.6v1.95L27.68 46 35 40.13v-1.66l1.5.53 8.5-5.8-3.06-8.2H40l1.15-1.59-3.2-9.41H29l-1 2.13L27 14Z" fill="url(#a0kjt3rgs)"/><path d="m28 16-2.02 9h-9.82l8.02 4.8L21 38.5l7-6.5 7 6.5-2.64-8.7L40 25H30l-2-9Z" fill="#E22634"/><path fill-rule="evenodd" d="M26.14 25.2h-9.26l7.55 4.51-2.96 8.08L28 31.73l6.6 6.12-2.47-8.14 7.18-4.51h-9.47L28 16.92l-1.86 8.28Zm-.16-.2h-9.82l8.02 4.8L21 38.5l7-6.5 7 6.5-2.64-8.7L40 25H30l-2-9-2.02 9Z" fill="#F0F3FA"/><path d="M26.94 26.27c0-.43-.53 0-.53-.54 0-1.06 1.06.54 1.06 1.07s0 .53.53.53 0 .54-.53.54c-.43 0-.18 1.42 0 2.13 0 .18-.1.43-.53 0-.53-.53 0 .53-1.06.53-1.07 0 1.06-1.6 1.06-2.13 0-.53-.53 0-1.06-.53-.54-.54 1.06-1.07 1.06-1.6ZM28.53 25.73c.43-.42.53.18.53.54.18-.18.53-.43.53 0 0 .53-.53 1.06-1.06 1.06s-.53-1.06 0-1.6Z" fill="#F0F3FA"/><path d="M28 31.07v-3.2a4.96 4.96 0 0 1 1.6-.54c.53 0-1.6 1.07-1.07 1.6.53.54 1.06-1.6 1.6-1.06.53.53-.54.53-.54 1.06 0 .54.54.54 1.07.54s.53.53 0 .53-1.07-.53-1.6 0L28 31.07Z" fill="#F0F3FA"/><defs><linearGradient id="a0kjt3rgs" x1="28" y1="14" x2="28" y2="46" gradientUnits="userSpaceOnUse"><stop stop-color="#F44144"/><stop offset=".4" stop-color="#F49E8D"/><stop offset="1" stop-color="#EF403D"/></linearGradient></defs></svg>