<!-- by TradingView --><svg width="56" height="56" viewBox="0 0 56 56" xmlns="http://www.w3.org/2000/svg"><path fill="#F0F3FA" d="M0 0h56v56H0z"/><path d="M28 12a16 16 0 0 1 5.51 31.02L36.91 30h3.59l1-5h-15l-.97 5h4.97c.83 0 2.5.51 2.5 3 0 1.99-1.45 2.72-2 3l-2.67 8H28a16 16 0 0 1-14.38-23.03H20l-1.37 13.26C17.97 38.2 21 41 23 41h4.5l2.14-5H25.5c-1.33 0-1.9-1.77-1.9-2.6l1.66-12.43h4.97c1.99 0 2.05 1.93 1.77 3.03h5v-3.03C37 17 32.44 16 30.23 16H17.42c2.82-2.49 6.52-4 10.58-4Z" fill="#003CA3"/></svg>