<!-- by TradingView --><svg width="56" height="56" viewBox="0 0 56 56" xmlns="http://www.w3.org/2000/svg"><path fill="#CB6661" d="M0 0h56v56H0z"/><path d="M50.8 26.47h-.23a7.18 7.18 0 0 0-.23-.8l-.14-.28a3.8 3.8 0 0 0-.18-.27c-.32-.43-.7-.64-1.12-.64-.28 0-.5.1-.68.28-.17.2-.25.45-.25.77s.1.62.3.9c.21.28.55.58 1.02.91.6.42 1.04.83 1.3 1.23a2.38 2.38 0 0 1-.13 2.82 1.78 1.78 0 0 1-1.31.61c-.19 0-.37-.02-.55-.06-.18-.04-.35-.1-.52-.2a1.68 1.68 0 0 0-.43-.14c-.07 0-.13.04-.18.12a.55.55 0 0 0-.07.27h-.2l-.27-2.46h.2c.23.71.49 1.23.78 1.57.3.32.64.48 1.06.48a1 1 0 0 0 .8-.35c.2-.24.3-.55.3-.94a1.78 1.78 0 0 0-.13-.69c-.1-.22-.27-.44-.5-.67-.23-.23-.5-.46-.83-.7a4.98 4.98 0 0 1-.65-.5 2.19 2.19 0 0 1-.77-1.74c0-.64.17-1.14.52-1.5a1.57 1.57 0 0 1 1.03-.49 2.6 2.6 0 0 1 .98.25c.08.05.16.09.22.1.07.03.13.04.18.04.15 0 .24-.13.28-.39h.2l.2 2.47ZM46.53 29.9l-.44 2.1h-4.83v-.22c.16-.02.3-.04.4-.08.4-.13.34-.65.34-1v-5.38c0-.35.06-.86-.35-1-.1-.04-.23-.06-.4-.08V24h2.54v.24c-.18.02-.33.04-.44.08-.42.1-.35.66-.35 1v5.72c0 .28.03.44.33.48l.4.01h.6c.38 0 .7-.06.95-.18.26-.12.47-.3.64-.55a10.04 10.04 0 0 0 .39-.9h.22ZM39 25.32c0-.37.06-.9-.4-1.01a3 3 0 0 0-.46-.07V24h2.71v.24c-.19.01-.34.03-.46.07-.45.1-.39.64-.39 1.01v5.38c0 .39-.05.89.4 1.02.11.03.27.05.45.06V32h-2.7v-.22c.74-.03.85-.37.85-1.08v-5.38ZM34.76 24c.43 0 .84.12 1.22.35.4.23.73.54 1 .95.22.35.4.75.51 1.21a5.79 5.79 0 0 1-.04 3.11c-.14.49-.34.9-.6 1.26a2.8 2.8 0 0 1-.95.83c-.36.2-.75.29-1.19.29-.44 0-.84-.1-1.2-.3a2.8 2.8 0 0 1-.94-.82 4.12 4.12 0 0 1-.6-1.28 5.88 5.88 0 0 1 0-3.24c.15-.49.36-.9.62-1.25.27-.35.58-.63.95-.82.37-.2.78-.29 1.22-.29Zm-.08.4c-.25 0-.48.08-.71.23-.23.14-.43.34-.6.6-.09.14-.17.3-.24.5a6.22 6.22 0 0 0-.3 1.44 8.39 8.39 0 0 0 .17 2.67c.14.55.34.95.6 1.22.31.35.69.52 1.12.52.23 0 .44-.05.64-.16.21-.1.4-.26.54-.46.5-.61.74-1.62.74-3.03 0-.67-.07-1.26-.22-1.79a2.92 2.92 0 0 0-.6-1.2 1.53 1.53 0 0 0-1.14-.53ZM30.81 26.61a6.17 6.17 0 0 0-.26-.86 2.75 2.75 0 0 0-.34-.58 1.76 1.76 0 0 0-.62-.53 1.52 1.52 0 0 0-.73-.18c-.33 0-.63.08-.9.24-.26.16-.49.4-.68.7-.18.3-.33.66-.43 1.1a6.6 6.6 0 0 0 .06 3.2c.15.5.35.9.62 1.18.4.4.87.61 1.42.61.37 0 .72-.09 1.04-.27.32-.19.64-.48.98-.9l.16.2c-.27.47-.62.84-1.05 1.1-.43.25-.9.38-1.42.38a2.66 2.66 0 0 1-2.18-1.08 3.91 3.91 0 0 1-.62-1.24 5.63 5.63 0 0 1-.21-1.6c0-.67.09-1.28.27-1.81.18-.55.44-1 .79-1.37.27-.28.58-.5.93-.66.34-.16.69-.24 1.04-.24.45 0 .9.1 1.33.28.15.07.27.1.36.1a.3.3 0 0 0 .23-.1.55.55 0 0 0 .14-.28h.2l.08 2.61h-.2ZM24.98 28v1h-2.23v-1h2.23ZM21.75 26.61a6.17 6.17 0 0 0-.27-.86 2.77 2.77 0 0 0-.34-.58 1.76 1.76 0 0 0-1.35-.71c-.33 0-.62.08-.9.24-.26.16-.49.4-.68.7-.18.3-.33.66-.43 1.1a6.6 6.6 0 0 0 .06 3.2c.15.5.35.9.62 1.18.4.4.87.61 1.42.61.38 0 .72-.09 1.04-.27.32-.19.65-.48.99-.9l.15.2c-.27.47-.62.84-1.05 1.1-.43.25-.9.38-1.42.38a2.66 2.66 0 0 1-2.18-1.08 3.91 3.91 0 0 1-.62-1.24 5.63 5.63 0 0 1-.21-1.6c0-.67.09-1.28.27-1.81.18-.55.44-1 .8-1.37.27-.28.58-.5.92-.66.34-.16.7-.24 1.04-.24.45 0 .9.1 1.33.28.15.07.27.1.36.1a.3.3 0 0 0 .23-.1.55.55 0 0 0 .14-.28h.2l.08 2.61h-.2ZM15.8 32h-4.9v-.22c.17-.02.3-.04.4-.08.11-.03.2-.09.24-.17a.7.7 0 0 0 .12-.31c.02-.14.03-.31.03-.52v-5.38c0-.2 0-.38-.03-.52a.65.65 0 0 0-.1-.31.5.5 0 0 0-.25-.17c-.1-.04-.24-.06-.4-.08V24h4.81l.02 1.74h-.22c-.04-.28-.09-.5-.14-.66a.87.87 0 0 0-.23-.4.72.72 0 0 0-.4-.17 3.67 3.67 0 0 0-.61-.04h-1.22c-.12 0-.2.02-.25.07-.04.05-.05.16-.05.34v2.68H14c.18 0 .33-.02.45-.05.11-.03.2-.08.28-.16.07-.08.13-.2.16-.34.04-.15.07-.35.1-.6h.22v2.8h-.21a5.32 5.32 0 0 0-.1-.6.8.8 0 0 0-.17-.35.5.5 0 0 0-.27-.16c-.12-.03-.27-.1-.46-.1h-1.4v3.04l.02.26c.01.06.03.1.06.13.04.03.14.07.3.1.16.02.36.03.58.03h.25c.33 0 .6-.03.81-.07.22-.04.41-.12.57-.24.15-.12.3-.28.4-.49.13-.2.24-.47.35-.8h.26L15.8 32ZM10.17 26.61a6.17 6.17 0 0 0-.26-.86l-.15-.3a2.75 2.75 0 0 0-.2-.28 1.76 1.76 0 0 0-1.34-.71c-.33 0-.63.08-.9.24-.27.16-.5.4-.68.7-.19.3-.33.66-.43 1.1a6.6 6.6 0 0 0 .06 3.2c.14.5.35.9.61 1.18.4.4.87.61 1.42.61.38 0 .73-.09 1.04-.27.32-.19.65-.48.99-.9l.16.2c-.28.47-.63.84-1.06 1.1-.42.25-.9.38-1.41.38a2.66 2.66 0 0 1-2.19-1.08 3.91 3.91 0 0 1-.62-1.24 5.63 5.63 0 0 1-.21-1.6c0-.67.09-1.28.27-1.81.18-.55.44-1 .8-1.37.27-.28.58-.5.92-.66.35-.16.7-.24 1.04-.24.45 0 .9.1 1.34.28.15.07.26.1.35.1a.3.3 0 0 0 .23-.1.55.55 0 0 0 .15-.28h.19l.09 2.61h-.21Z" fill="#FBEB59"/></svg>