<!-- by TradingView --><svg width="56" height="56" viewBox="0 0 56 56" xmlns="http://www.w3.org/2000/svg"><path fill="#F0F3FA" d="M0 0h56v56H0z"/><path fill-rule="evenodd" d="M41.3 23a1 1 0 1 1-2 0 1 1 0 0 1 2 0ZM6.5 23H5v8h1.5v-3.93h4V31H12v-8h-1.5v3h-4v-3Zm29 0H34v8h5v-1h-3.5v-7Zm5.5 2h-1.5v6H41v-6Zm-25.5 6a3 3 0 1 0 0-6 3 3 0 0 0 0 6Zm0-1c.83 0 1.5-.9 1.5-2s-.67-2-1.5-2-1.5.9-1.5 2 .67 2 1.5 2Zm3.5-5h1.5v.6c.42-.38.94-.6 1.5-.6 1.38 0 2.5 1.34 2.5 3s-1.12 3-2.5 3c-.56 0-1.08-.22-1.5-.6V33H19v-8Zm2.75 1c-.67 0-1.2.82-1.25 1.87v.26c.04 1.05.58 1.87 1.25 1.87.69 0 1.25-.9 1.25-2s-.56-2-1.25-2ZM31 28h-4.5c0 1.1.67 2 1.5 2 .54 0 1-.37 1.27-.94l1.25.57A3 3 0 1 1 31 28Zm-3-2c.56 0 1.04.4 1.3 1h-2.6c.26-.6.74-1 1.3-1Zm21.5 2H51a3 3 0 1 0-.48 1.63l-1.25-.57c-.26.57-.73.94-1.27.94-.83 0-1.5-.9-1.5-2h3Zm-.2-1c-.26-.6-.74-1-1.3-1s-1.04.4-1.3 1h2.6Zm-6.8-2.29V25h-1v1h1v5H44v-5h1.5v-1h-1.49c.05-.5.22-1 .74-1H46v-1h-1.7c-1.01 0-1.8.77-1.8 1.71Z" fill="#545454"/></svg>