<!-- by TradingView --><svg width="56" height="56" viewBox="0 0 56 56" xmlns="http://www.w3.org/2000/svg"><path fill="#F0F3FA" d="M0 0h56v56H0z"/><circle cx="28" cy="28" r="17" fill="#2B4181"/><path d="M11 28.18c1.3-.46 3.93-1.18 6.34-1.18 3.3 0 8.93 1.33 10.66 11.29C29.73 28.33 35.36 27 38.66 27c2.41 0 5.04.72 6.34 1.18-.02 1.4-.2 2.77-.54 4.07A19.56 19.56 0 0 0 38.03 31c-6.74 0-9.06 6.7-9.38 9.96 2.43-4.53 5.08-6.36 8.18-6.36 2.29 0 4.62 1.37 5.71 2.21-1.2 1.98-2.8 3.7-4.68 5.04-1.12-.87-2.78-1.85-4.46-1.85-2.77 0-4.74 3.35-5.4 5-.66-1.65-2.63-5-5.4-5-1.68 0-3.34.98-4.46 1.85a17.09 17.09 0 0 1-4.68-5.04c1.1-.84 3.42-2.2 5.71-2.2 3.1 0 5.75 1.82 8.18 6.35-.32-3.25-2.64-9.96-9.38-9.96-2.45 0-4.82.66-6.43 1.25-.34-1.3-.52-2.66-.54-4.07ZM26 19h-6v1h2v5h2v-5h2v-1ZM31.03 23.57 29.68 19H28l2.11 6h1.71L33 20.35 34.18 25h1.7L38 19h-1.68l-1.35 4.57L33.84 19h-1.68l-1.13 4.57Z" fill="#F7F00C"/></svg>