<!-- by TradingView --><svg xmlns="http://www.w3.org/2000/svg" width="56" height="56"><path fill="#F0F3FA" d="M0 0h56v56H0z"/><path d="M36.51 20.18l-3.08-6.47c-.3-.52-1-1.05-2.28-.42-1.28.62-2.96 1.46-3.64 1.8l2.74.3.9-.46c.18-.1.55-.2.68.16.12.35 1 2.35 1.42 3.31l3.26 1.78zM23.56 13.6l8.06 3.93H28l-4.43-2.18c-.4-.15-.6-.04-.7.14l-.28.6-2.8.92 1.55-3c.68-.87 1.77-.64 2.23-.4zm-9.48 3.76h11.6L22.37 19H16.3c-.62-.05-.55.2-.43.39l.43.58-1.78 2.08c-.2-.35-.78-1.4-1.54-2.87-.75-1.46.41-1.83 1.09-1.83zm6.5 2.23l-11.75 5.7c-.63.35-1.5 1.42 0 2.02l5.96 1.85-.5-2.62-1.31-.47c-.31-.12-.6-.33.09-.65l6.07-3.18 1.45-2.65zM12.7 35.5l5.47-11.6 1.5 2.97-2.5 6.07c-.26.78.38.74.73.63l1.76-.49 3.36 1.83c-1.61.48-5.44 1.64-7.82 2.44-2.37.8-2.89-.95-2.5-1.85zm7.84-6.83l7.26 12.32A2 2 0 0029.65 42c.95 0 1.45-.5 1.8-1.01l3.72-6.7-4.1.6L30 36.5c-.15.17-.54.42-.92 0-.37-.41-2.82-4.24-4-6.1l-4.53-1.74zm22.4 7.07l-15.46-4.57 4.7-1.22 8.06 2.26c.7.2.68-.24.59-.48l-.59-1.5 1.91-2.33L45 33.68c.14.35.44 1.25 0 1.75-.55.62-1.5.44-2.05.3zm-8.07-6.3l12.56-3.82c.57-.17.93-1.11 0-1.64l-6.29-3.15.67 2.19 1.63.96c.17.13.21.33-.25.45l-6.14 1.82-2.18 3.18zm6-13.05h-5.52l2.34 1.46h1.22c.46 0 .38.27.29.4l-2.23 3.5 1.16 3.1 4-7c.53-1.18-.43-1.46-1.26-1.46z" fill="url(#alhsl2in0)"/><defs><linearGradient id="alhsl2in0" x1="28" y1="13" x2="28" y2="42" gradientUnits="userSpaceOnUse"><stop stop-color="#01A6D2"/><stop offset=".87" stop-color="#043E80"/></linearGradient></defs></svg>