<!-- by TradingView --><svg xmlns="http://www.w3.org/2000/svg" width="56" height="56"><path d="M0 28a28 28 0 1156 0 28 28 0 01-56 0z" fill="#F0F3FA"/><path d="M20.13 36.97c-1.8.54-2.96 0-1.62-1.39 1.19-1.23 2.33-2.4 3.4-3.74.46-.57.9-1.17 1.29-1.78-2.46 2.6-6.6 6.27-9.5 6.01-2.04-.18-1.93-1.9-.89-3.63 1.05-1.73 7.2-7.32 5.2-8.32-.57-.29-1.77-.1-3.86 1 3.04-.8 2.43.7 1.34 2.14-.9 1.19-2.02 2.18-3.03 3.28-1.49 1.64-2.22 2.78-2.55 3.26-.34-.11-.62.21-.79.9-.35 1.55.05 3.4 1.34 4.45 3.72 2.99 12.9-2.6 17.54-6.17-3.52 2.33-6.06 3.44-7.87 4z" fill="#1785A3"/><path d="M17.32 22.92c-1 .1-1.84.4-2.4.78.65-.89 1.81-1.24 2.84-1.48.99-.23 2.17-.5 2.68-1.52.16 2.45-1.95 2.1-3.12 2.22z" fill="#DC5411"/><path d="M43.34 16.13c.4.09.65.22.72.27-4.68.26-9.75 3.13-13.98 6.63 2.12-1.47 4.25-3.05 6.8-3.69 5.7-1.43 5.19 4.55-4.13 11.22-8.47 6.06-15.93 8.77-18.6 9.36 2.57-.13 7.18-1.83 11.92-4.13 7.1-3.46 15.38-8.46 19.67-14.48 1.56-2 2.78-6.08-2.4-5.18z" fill="#DE5E0C"/><path d="M21.81 32.28l-.37.56c.03-.07.16-.27.37-.56 2.39-3.63 5.4-8 12.4-11.92 7.96-3.73 6.63 1.56 5.62 3.23-4.24 7.02-16.1 12.54-19.4 14.1 3.25-2.09 13.3-7.26 15.45-12.82.36-.9.6-2.09-.62-2.48-1.16-.37-3.59.23-8.41 4.38a37.48 37.48 0 00-5.04 5.5z" fill="#EBAE17"/><path d="M25.45 28.94c-.58.54-2.91 2.83-4 3.9.4-.58 3.28-5.18 9.07-8.97 1.4-1.11 6.97-3.56 5.35 1.17-1.78 4.24-8.36 8.49-11.42 10.2 1.28-.72 10.36-7.52 8.23-9.47-.86-.72-2.77.6-3.5 1.04-1.25.8-2.26 1.7-2.72 2.19.89-1.79-.28-.73-1-.06z" fill="#F5E628"/></svg>