<!-- by TradingView --><svg width="56" height="56" viewBox="0 0 56 56" xmlns="http://www.w3.org/2000/svg"><path fill="#AAADB1" d="M0 0h56v56H0z"/><path fill-rule="evenodd" d="M43 35.5c-1.3 2.69-3.72 4.5-6.5 4.5-4.14 0-7.5-4.03-7.5-9s3.36-9 7.5-9c2.78 0 5.2 1.81 6.5 4.5V22h5v18h-5v-4.5ZM40 31c0 2.2-1.57 4-3.5 4S33 33.2 33 31s1.57-4 3.5-4 3.5 1.8 3.5 4Z" fill="#6175AF"/><path d="M28 16H14v2h-2v2h-2v2H8v6h11.12v-2.15h1.94V23.9H26V20h2v-4Z" fill="#6175AF"/><path d="M42 23.38V22h-1.8c.66.37 1.26.83 1.8 1.38ZM32.8 22h-9.6a9.1 9.1 0 0 0-9.2 9c0 4.97 4.12 9 9.2 9h9.6c-2.85-1.62-4.8-5.04-4.8-9 0-.68.06-1.35.17-2h-3.3L21 33h5v3h-2.39c-2.54 0-4.6-2.51-4.6-5s2.06-5 4.6-5h5.53a9.28 9.28 0 0 1 3.65-4Zm7.41 18H42v-1.38c-.54.55-1.14 1.01-1.8 1.38Z" fill="#CD2837"/></svg>