<!-- by TradingView --><svg width="56" height="56" viewBox="0 0 56 56" xmlns="http://www.w3.org/2000/svg"><path fill="#F0F3FA" d="M0 0h56v56H0z"/><path d="M48.03 27.15a2.51 2.51 0 0 0 1.4-2.03c.03-.27-.04-.58-.2-.93a4.52 4.52 0 0 0-2.62-2.5 2.2 2.2 0 0 0-1.11-.18 2.1 2.1 0 0 0-1.72 2.54c.19.85.4 1.28.73 1.94.02.04.02.1 0 .14-.12.37-.36.6-.71.7a.16.16 0 0 1-.13 0 2.5 2.5 0 0 1-.68-.59 4.4 4.4 0 0 1-.96-3.36 3.01 3.01 0 0 1 2.57-2.8 4.2 4.2 0 0 1 2.5.27c2.02.95 4.12 3.1 3.88 5.66-.13 1.44-.85 2.38-2.14 2.84-.04.02-.34.06-.9.13-.24.03-.51.02-.8-.02-.37-.06-.8-.06-1.2-.28-.36-.2-.42-.67-.2-.97.28-.37 1-.28 1.67-.33.1-.01.3-.09.62-.23ZM7.88 29.88c.07.02.12-.13.12-.13v-1.33s-.03-.1-.07-.1c-.51-.02-.85.52-1.23.75-.13.09-.26.08-.38-.02-.39-.3-.42-.66-.1-1.07.48-.63 1.01-1 1.73-1.14.04-.01.05-.09.05-.09v-4.68c0-.53.43-1.1 1-1.07.71.04 1 .69 1 1.27v4.55c0 .06.02.13.06.18.03.05.08.08.14.1.68.2 1.19.5 1.72.92a.2.2 0 0 0 .27-.02c1.38-1.53 2.59-3.4 3.54-5.25.17-.32.32-.53.46-.62a.7.7 0 0 1 .39-.13c.36 0 .73.27.88.64.03.06.04.12.04.19a1 1 0 0 1-.1.41 20.98 20.98 0 0 1-3.75 5.81.15.15 0 0 0 .01.12l.04.04a24.63 24.63 0 0 1 4 4c.65.8.14 1.8-.59 1.79-.24 0-.5-.11-.75-.37-1.64-1.69-3.02-3.2-4.13-4.28-.04-.04-.09-.04-.13 0-.66.54-1.27.75-2.01 1.03a.13.13 0 0 0-.07.05.14.14 0 0 0-.02.08v3.78a.5.5 0 0 1-.1.3c-.2.27-.63.41-.95.41a.96.96 0 0 1-.83-.48 1.45 1.45 0 0 1-.12-.68v-3.4c0-.04-.01-.09-.04-.13a.2.2 0 0 0-.11-.08 5.9 5.9 0 0 1-1.44-.67c-.34-.2-.31-.74-.06-1.01.21-.23.62-.12.92.05.26.14.4.24.6.28Zm2.23-1.15c-.05-.02-.11.01-.11.07v.79c0 .1.12.18.21.13l.73-.35a.14.14 0 0 0 .06-.11c0-.05-.02-.1-.06-.12l-.83-.4ZM30.87 30.1c-.05-.02-.11 0-.13.06-.83 1.75-3.17 3.82-4.94 2.33a4.38 4.38 0 0 1-.9-1.14c-.9-1.52-1.37-3.3-1.85-5.1-.17-.62.09-1.25.75-1.25.43.2.64.5.77 1.04.31 1.33 1.26 4.87 2.74 5.25.56.14 1.23-.4 1.5-.88.47-.87.85-1.5 1.13-1.9.36-.52.82-.65 1.36-.37.98.5 1.72 1.37 2.46 2.26.18.21.26.49.24.83a.8.8 0 0 1-.4.68c-.52.31-1 .01-1.39-.42l-1.13-1.26a.42.42 0 0 0-.21-.13Z" fill="#003343"/><path d="M37.44 29.01a.1.1 0 0 0 .09.02.1.1 0 0 0 .04-.01l.03-.04c.2-.52.57-.95 1.07-1.28.32-.21.65-.28 1-.18.62.17.92.93 1.62.83.21-.03.54-.16.99-.37.45-.22.95-.49 1.5-.8.51-.3.83-.63 1.3-1.04.35-.32.76-.04.9.28a.1.1 0 0 1 0 .12 9.02 9.02 0 0 1-1.7 1.7 9.02 9.02 0 0 1-2.98 1.68c-.2.06-.38.08-.55.08-.56-.01-.98-.31-1.34-.76-.1-.13-.23-.22-.37-.22-.05 0-.1 0-.15.03-.14.05-.38.65-.6 1.11-.21.47-.6 1.07-1.24.75-.1-.06-.35-.32-.74-.79a.25.25 0 0 0-.1-.08c-.3-.1-.88-.14-1.13-.43-.27-.3.2-.88.45-1.1.38-.34 1.03-.36 1.38 0l.53.5ZM20.7 32.58a.1.1 0 0 0-.04-.13.1.1 0 0 0-.04-.01.74.74 0 0 1-.61-.49c-.02-.04 0-.08.03-.1l.55-.33a.17.17 0 0 0 .09-.16l-.08-.71a.25.25 0 0 1 .11-.24.24.24 0 0 1 .26 0l.32.18a.18.18 0 0 0 .25-.07l.22-.4a.23.23 0 0 1 .13-.1c.57-.18.52.92 1.2.42.05-.04.1-.05.16-.02.11.05.21.13.31.25.06.06.07.12.05.18-.05.12-.1.18-.12.19a.22.22 0 0 0-.1.08.25.25 0 0 0-.05.13c0 .05 0 .1.03.15.02.05.05.09.1.11.1.08.23.14.37.18a.18.18 0 0 1 .12.1c.06.16.05.32-.04.48-.04.07-.1.1-.17.1h-.21a.2.2 0 0 0-.18.1.2.2 0 0 0 0 .2l.2.36a.25.25 0 0 1-.08.33.23.23 0 0 1-.12.04h-.65a.27.27 0 0 0-.18.06c-.12.1-.22.25-.3.46a.13.13 0 0 1-.13.08c-.2 0-.38-.18-.56-.51a.15.15 0 0 0-.14-.09h-.62a.23.23 0 0 1-.17-.07.24.24 0 0 1-.06-.17c0-.2.05-.39.14-.58Zm2.13-.28a.79.79 0 0 0 0-.62.88.88 0 0 0-1.1-.49.79.79 0 0 0-.44.42.79.79 0 0 0 0 .62.88.88 0 0 0 1.09.49.79.79 0 0 0 .45-.42Z" fill="#003343"/></svg>