<!-- by TradingView --><svg width="56" height="56" viewBox="0 0 56 56" xmlns="http://www.w3.org/2000/svg"><path fill="#F0F3FA" d="M0 0h56v56H0z"/><path fill-rule="evenodd" d="m12.5 24-1 3.5H4v1h11v-1h-1.5l1-3.5h-2ZM5 24h1.5l1 3H6l-1-3Zm2.5 0h2l1 3H9l-1.5-3Zm-1 5H8l-1.5 3h-2l2-3Zm6.5 0h-2l2.5 3H15l-2-3Zm3.5-5h2l.5 6h-1l-1.5-6Zm4.5 0h-1v7h-3v1h10v-1h-3v-7h-1v7h-2v-7Zm4.5 0h2L26 30h-1l.5-6Zm3 3.5L29 24h1v.5h1V24h1v.5h1V24h5c.8 0 1 1 1 1.5V31c0 .8-.33 1-.5 1H37v-1h1v-6h-3.5l-.5 1h1.5L34 32h-1l1-5h-1.5l.5-2h-1v4h.5v1H32v2h-1v-2h-2v-1h2v-4h-1l-.5 2.5h-1ZM36 26h1.5l-1 6H35l1-6Zm4.5-2h5v1H45v5h.5v1H45v1h-1v-1h-3.5v-1h.5v-5h-.5v-1Zm6.5 0h1l1 1.5 1-1.5h1l-.5 1H52v1h-2v1h2v1h-2v.5l2 3.5h-1.5L49 29l-1.5 3H46l2-3.5V28h-2v-1h2v-1h-2v-1h1v-1Zm-3 2h-2v-1h2v1Zm0 2h-2v-1h2v1Zm-2 1v1h2v-1h-2Z" fill="#E77126"/></svg>