<!-- by TradingView --><svg width="56" height="56" viewBox="0 0 56 56" xmlns="http://www.w3.org/2000/svg"><path fill="#F0F3FA" d="M0 0h56v56H0z"/><path d="m30.5 12.41-.28.37-1.3 1.76a.1.1 0 0 1-.18-.01c-.3-.55-.12-1.3.11-1.85l.26-.5c.53-.77.98-1.32 1.35-1.67a8.2 8.2 0 0 0 1.18-1.27c.09-.14.18-.22.27-.23.54-.1.56.94.5 1.2-.05.18-.23.43-.56.75-.48.46-.93.94-1.35 1.45ZM24.62 12.06l.41.63.28 1c.02.06.04.1.09.14.1.08.15.15.15.2a.28.28 0 0 1-.38.28c-.72-.3-1.23-.81-1.52-1.54l-.2-.53-.6-1.3c-.06-.1-.02-.15.1-.14.84.03 1.4.45 1.67 1.26Z" fill="#005350"/><path d="m29.11 12.17-.26.5-3.82.02-.4-.63c1.46-.12 2.96-.08 4.48.11ZM23.46 12.24l.2.53c-2.24.25-4.02.5-5.35.78a21.97 21.97 0 0 0-9.24 4.33c-.03.02-.05.02-.06 0v-.06c.72-.67 1.49-1.25 2.32-1.76 3.56-2.18 7.77-3.37 11.93-3.84l.2.02ZM30.5 12.41c1.45.27 4.6 1.28 4.66 3.15.08 2.2-2.56 3.82-4.24 4.6-1.57.74-3.2 1.46-4.9 2.17l.03-.89c1.48-.63 2.94-1.29 4.39-1.96a14.7 14.7 0 0 0 3.01-1.88c1.47-1.19 1.94-3.02-.15-3.94-.94-.41-1.97-.7-3.08-.88l.28-.37Z" fill="#E5003D"/><path d="m26.05 21.44-.03.9c-.1 1.36-.19 2.77-.25 4.22 0 .29-.11.44-.3.46a.33.33 0 0 1-.33-.17.32.32 0 0 1-.04-.13l-.2-3.89.07-.9.45-2.07a.09.09 0 0 0-.07-.1h-.05c-.46.15-.94.34-1.44.56-.44.2-.75.24-1.03-.19-.3-.44-.55-.94-.78-1.5-.1-.24-.05-.27.14-.1.2.2.4.48.63.86.29.48 1.45.02 1.88-.15.97-.38 2.25-.51 3.08-.96.15-.08.31-.2.48-.4.27-.29.82-.85 1.66-1.68.3-.3.33-1.05-.3-1.03-.63.02-1.36.1-2.2.24a42.93 42.93 0 0 0-8.07 2.25 6.5 6.5 0 0 1-1.7.37c-.21.02-.25-.04-.1-.18.06-.05.15-.1.28-.16a74.92 74.92 0 0 1 4.76-1.8c1.12-.35 2.4-.62 3.82-.8 1.36-.17 2.32-.3 3.5-.23.83.04 1.74.69 1.39 1.65-.2.52-.53.75-1.08 1.14-.17.11-.2.23-.18.41a.18.18 0 0 1-.14.2c-.21.05-.44.08-.64.17-.98.45-2 .8-3.07 1.02-.05.02-.08.05-.08.11l-.06 1.88Z" fill="#005350"/><path d="M25.94 17.5c-.98.21-1.9.33-2.75.33-.17 0-.18-.02 0-.06 1.5-.39 2.39-.61 2.66-.67.27-.06 1.17-.24 2.7-.52.17-.04.18-.01.02.06-.77.35-1.65.64-2.63.86Z" fill="#005350"/><path d="m24.97 21.93-.06.9c-1.15.5-2.27 1.02-3.38 1.55-.94.45-1.68.92-2.2 1.4-.25.23-.73.87-.35 1.15.2.15.44.24.71.27 1.12.13 2.1.28 2.93.44.35.07.96.25 1.13.65.3.7-.21 1.23-.63 1.74-.27.1-.55.17-.84.23-.1.02-.18 0-.24-.05-.05-.04-.11-.1-.18-.19l1.37-1.48a.25.25 0 0 0-.11-.4c-1.36-.45-2.85-.68-3.83-.88-1.4-.29-.86-1.7-.06-2.29a26.52 26.52 0 0 1 5.74-3.04Z" fill="#E5003D"/><path d="m19.78 37.93-.65.4c-.06.05-.1.05-.1.03l-2.43 1.17h-.03l-.02-.05h.02c.91-.38 1.73-.84 2.45-1.4l.7-.54a8.1 8.1 0 0 0 1.97-2.3 4.7 4.7 0 0 0 .3-3.87l-.04.02.02-.1c0-.07-.02-.1-.1-.07l-1.41.48c-1.77.63-3.36 1.37-5.28 1.22-.12-.01-.14-.06-.07-.16a.1.1 0 0 1 .05-.04c.64-.17 1.35-.32 2.04-.57a89.69 89.69 0 0 0 4.26-1.65.07.07 0 0 0 0-.06c-.48-.8-1.41-1.09-2.32-1.25a.02.02 0 0 1-.01-.01v-.01h.02a4.9 4.9 0 0 1 2.71.85l.18.2c.06.04.14.06.24.04.29-.06.57-.14.84-.23l3.29-.9c.05-.02.1-.05.13-.1a22.06 22.06 0 0 1 9.33-7.06c.02-.01.04 0 .06.02l.02.04-.01.01a20.4 20.4 0 0 0-5.31 3.63c-1 .94-1.68 1.58-2.02 1.93a9.77 9.77 0 0 0-2.5 4.34c-.63 2.3.62 4.52 2.5 5.85 1.6 1.14 3.75 1.13 5.61.8l.01.04h-.01c-4.08.97-7.71-.41-9.05-4.56-.5-1.5.29-3.38 1.15-4.66.11-.17.07-.22-.12-.14l-3.52 1.5c-.06.02-.08.07-.06.14.67 1.71.93 3.96-.62 5.33-.7.62-1.44 1.18-2.22 1.7Z" fill="#005350"/><path d="M31.84 31.54c-.14-.29-.3-.53-.45-.74a5.87 5.87 0 0 1-.87-2.81.16.16 0 0 1 .22-.08c.32.16.54.4.66.7.03.1.04.39.01.86-.03.72.13 1.39.5 2 .02.03.01.04-.01.06l-.04.02a.01.01 0 0 1-.01 0Z" fill="#005350"/><path d="M21.95 31.39c-.43.54-.93 1.27-1.51 2.2a5.17 5.17 0 0 0-.72 3.95l-.7.54a5.88 5.88 0 0 1-.4-1.82c.01-1.26.37-2.42 1.07-3.46.24-.37.5-.73.77-1.1l1.41-.48c.08-.03.1 0 .1.07l-.02.1Z" fill="#E5003D"/><path d="M31.87 32.2c-.67.14-1.48.6-2.16.97-.89.46-1.43 1.14-1.94 1.6-.18.16-.6.23-.66-.1-.02-.1-.01-.18.02-.24a.12.12 0 0 1 .13-.07c.22.01.36 0 .41-.06a7.63 7.63 0 0 1 3.43-2.15c.62-.2 1.03-.33 1.6-.3a.3.3 0 0 1 .27.32c-.08 1.2-1.27 1.97-1.87 2.86a.24.24 0 0 0 .05.33l.1.05c.52.1 1.1-.1 1.68-.28.17-.05.18-.03.03.07a3 3 0 0 1-1.94.5c-.98-.07-1.04-.73-.5-1.41.37-.47 1.09-1.24 1.41-2.02a.05.05 0 0 0 0-.05.05.05 0 0 0-.06-.02ZM33.03 37.24c-.54.01-.96-.54-.86-1.06a.1.1 0 0 1 .05-.07.1.1 0 0 1 .08 0c.56.12.88.42.95.88a.22.22 0 0 1-.22.25Z" fill="#005350"/><path d="M19.78 37.93a11.23 11.23 0 0 0 3.73 4.96v.07c0 .01 0 .02-.02.01a14.87 14.87 0 0 1-3.83-3.43 4.75 4.75 0 0 1-.56-1.1.18.18 0 0 0 .03-.1l.65-.4Z" fill="#E5003D"/><path d="M29.93 41.2h1.12c.04 0 .05.02.03.06l-.22.42a.1.1 0 0 1-.1.06H29.7c-.06 0-.1.02-.13.07l-.28.54c-.04.07-.01.1.07.1l1.7-.03v.01l-.25.5a.05.05 0 0 1-.05.03h-2.29a.04.04 0 0 1-.03-.04v-.02l1.44-2.74a.12.12 0 0 1 .11-.07l2.25-.04c.03 0 .03 0 .02.03l-.25.48c-.01.02-.02.03-.04.03h-1.7a.08.08 0 0 0-.08.04l-.28.53c-.01.03 0 .04.03.04ZM42.65 42.03c0-.03 0-.06-.02-.1a.24.24 0 0 0-.06-.08.28.28 0 0 0-.1-.06.31.31 0 0 0-.11-.01c-.43.01-.8-.03-1.14-.14a.15.15 0 0 1-.1-.12c-.05-.38.08-.7.4-.96.74-.63 1.56-.71 2.45-.24.03.01.04.03.01.06l-.5.5c-.03.03-.04.02-.06 0-.21-.33-.57-.43-1.08-.3-.32.07-.52.22-.6.43-.03.08 0 .12.08.12l1.2.11a.33.33 0 0 1 .3.25v.14c-.23 1.17-1.52 1.54-2.57 1.3-.06-.02-.2-.09-.4-.22-.07-.04-.08-.09-.02-.14l.52-.52c.07-.07.1-.05.08.04 0 .08 0 .15.02.2.02.06.06.09.11.1.53.19 1 .12 1.42-.19.11-.07.17-.13.17-.17ZM25.72 41.13v.04H27.1c.03 0 .05 0 .06-.03l.54-1.03a.06.06 0 0 1 .05-.04h.52v.02l-1.49 2.84-.03.02h-.52a.01.01 0 0 1 0-.02l.6-1.16a.03.03 0 0 0 0-.03l-.01-.01H25.43a.04.04 0 0 0-.03.01l-.62 1.18c0 .02-.03.03-.05.03h-.5c-.01 0-.02 0 0-.02l1.47-2.83c.01-.02.03-.02.05-.02h.52v.01l-.55 1.04ZM34 41.72h-.46l-.07.02a.14.14 0 0 0-.05.06l-.59 1.12a.05.05 0 0 1-.05.03h-.5c-.02 0-.02 0-.01-.02l1.46-2.78a.13.13 0 0 1 .11-.07h1.73a.39.39 0 0 1 .38.29v.16c-.12.61-.5 1.02-1.14 1.22-.06.01-.08.05-.08.11l.12 1.03c0 .04-.02.07-.06.07h-.58c-.05 0-.07-.03-.07-.08v-1.03c0-.08-.05-.13-.14-.13Zm-.23-.48c.16.03.32.03.48.01h.15c.44.05.75-.1.92-.44a.17.17 0 0 0-.14-.24l-1.02-.01c-.06 0-.1.03-.13.08l-.26.47c-.06.08-.06.12 0 .13ZM39.26 41.55c.1.2.09.41-.05.65-.28.48-.68.73-1.2.76-.17 0-.72 0-1.65-.03-.04 0-.06-.02-.04-.06l1.42-2.7a.13.13 0 0 1 .12-.08c.5-.02 1.03-.03 1.59-.01.27 0 .42.08.47.22.14.38-.31.9-.63 1.11-.05.04-.06.08-.03.14Zm-1.47-.44a.04.04 0 0 0 .04.06h1.04c.15 0 .27-.07.34-.2l.11-.21c.06-.12.03-.18-.1-.18h-1.1a.07.07 0 0 0-.07.05l-.26.48Zm-.61 1.33c.17.02.34.03.5 0h.17c.46.05.78-.1.97-.47a.18.18 0 0 0-.08-.24.18.18 0 0 0-.08-.02h-1.07a.15.15 0 0 0-.14.08l-.27.5c-.07.09-.07.14 0 .15Z" fill="#005350"/></svg>