<!-- by TradingView --><svg width="56" height="56" viewBox="0 0 56 56" xmlns="http://www.w3.org/2000/svg"><path fill="#EF7123" d="M0 0h56v56H0z"/><path d="M26.43 17.26c.34.16.67.06 1-.3a48.1 48.1 0 0 1 1.78-1.87c.3-.3.7-.63 1.22-1a6.8 6.8 0 0 1 1.62-.68 7.02 7.02 0 0 1 1.8-.16c.52.02.98.12 1.4.32.6.3 1.1.59 1.48.88.11.1.1.13-.05.11a10.8 10.8 0 0 0-1.93-.05 2.9 2.9 0 0 0-1.93.55c-.4.24-.76.56-1.1.96a.22.22 0 0 0 .04.32c.26.2.72.09 1.05-.05l.63-.25a17.6 17.6 0 0 1 4.49-.7 5.44 5.44 0 0 1 3 .76c.04.03.04.06-.02.07l-1.5.27c-.74.19-1.5.32-2.28.38a.06.06 0 0 0-.05.06c0 .03.02.05.05.06l.67.18c1.26.38 2.36.92 3.29 1.62 1.7 1.3 2.8 3 3.3 5.1.3 1.24.34 2.5.15 3.8a27.18 27.18 0 0 1-1.99 6.38c-.28.67-.6 1.36-.97 2.07A86.62 86.62 0 0 1 39 40.8c-.09.15-.1.14-.06-.02l1.1-3.53.19-.47c.02-.06 0-.06-.03-.01-.54.66-1.12 1.26-1.73 1.8-.9.77-1.82 1.45-2.77 2.05a65.8 65.8 0 0 1-5.08 2.96c-.02 0-.03 0-.05-.02a.16.16 0 0 0-.02-.03c.06 0 .12-.04.18-.11.53-.66 1.08-1.42 1.66-2.28.3-.46.59-1 .84-1.6.05-.12.01-.15-.1-.09l-1.23.67-1.9 1a33.03 33.03 0 0 1-6.88 2.72c-.13.04-.15.01-.04-.08a27.33 27.33 0 0 0 3.09-2.8c.19-.2.35-.42.48-.63.04-.07.03-.1-.05-.05l-1.26.6-3.17 1.34A87.85 87.85 0 0 1 11.64 45l1.72-.74c1.26-.53 2.5-1.1 3.71-1.68 1.58-.7 3.37-1.57 5.38-2.6a45.06 45.06 0 0 0 6.22-3.78L32 33.73c3.03-2.32 6.57-5.67 6.62-9.85a4.04 4.04 0 0 0-2.53-3.82 8.73 8.73 0 0 0-3-.71c-1.46-.08-2.87 0-4.24.24-.9.17-1.8.47-2.67.9-.97.43-1.92 1.02-2.86 1.77a22.9 22.9 0 0 0-2.38 2.16c-.03.02-.06.03-.09 0-.38-.3-.76-.62-1.22-.78l-.78-.3a.67.67 0 0 1-.38-.33c-.2-.42-.14-.79.17-1.1.3-.3.84-.74 1.6-1.3a7.18 7.18 0 0 0 2.12-2.5l-.4 1.2-1.03 1.38c-.32.23-.6.5-.87.83a.86.86 0 0 0-.15.62c.45.03.84-.12 1.18-.45.08-.08.32-.4.73-.97l1.79-2.51c.52-.75.94-1.28 1.25-1.59.5-.5 1.03-.91 1.6-1.24.93-.54 1.65-.99 2.17-1.35a8 8 0 0 0 1.4-1.28c.1-.11.13-.1.1.05-.04.28-.17.54-.39.79-.56.65-1.25 1.27-2.07 1.86a6.8 6.8 0 0 1-.62.33c-.33.16-.59.39-.78.67-.17.27-.12.53.17.8ZM14.75 24.6c-.4-.22-.64-.55-.72-1-.06-.3-.03-.58.07-.84.4-1 1.23-1.78 2.17-2.29l.52-.28c.35-.2.69-.44 1.03-.7l1.74-1.37a3.86 3.86 0 0 0 .62-.6 18.42 18.42 0 0 0 2.8-3.58c.02.01.02.02.02.04a13.78 13.78 0 0 1-3.93 5.52 44 44 0 0 1-2.52 1.94 8.21 8.21 0 0 0-1.07.94c0 .02 0 .05.02.06.18.21.4.37.65.49a.27.27 0 0 1 .16.22c.04.48-.14.87-.52 1.18-.32.24-.66.33-1.04.27Z" fill="#9F4A23"/><path d="M20.13 27.41c-.16.5-.4.93-.73 1.27-.23.24-.62.42-.87.69-.14.14-.12.27.06.37l.74.43.01.03c-.03.14-.08.2-.16.2a7.4 7.4 0 0 1-1.43-.1c-.22-.04-.32-.22-.3-.53.12-.44.28-.77.5-.99.6-.63 1.1-1.13 1.04-1.96-.03-.42-.21-.7-.56-.87-.22-.1-.52-.12-.9-.04a6.56 6.56 0 0 0-2.45 1.39c-.46.4-.93.85-1.4 1.34-.45.46-.94.89-1.46 1.28-.3.22-.57.4-.8.5-.17.08-.35.1-.54.09a.87.87 0 0 1-.5-.35 3.48 3.48 0 0 1-.38-.76c.16-.37.5-.55 1.03-.53.43.02.72.01.86-.02.47-.07.82-.2 1.05-.39.59-.5 1.74-1.54 3.46-3.13a2.9 2.9 0 0 1 1.83-.66c1.09 0 2.04.68 2.05 1.86 0 .27-.05.57-.15.88ZM30.56 28.66a23.22 23.22 0 0 1-4.77 1.6c-.53.12-1.07.18-1.62.18-.72 0-1.4-.19-2.03-.58-.6-.37-1-1.17-1.14-1.92 0-.05 0-.06.04-.04.85.4 1.71.65 2.6.76 1.54.2 3.07.16 4.62-.13a24.88 24.88 0 0 0 7.73-2.92 54.23 54.23 0 0 1-5.43 3.05Z" fill="#9F4A23"/><path d="M13.62 32.51c-.17-.02-.29.07-.35.26-.38.43-.74.92-1.33.57-.23-.44-.15-.93.23-1.47.02-.02.04-.02.04.01l.12.7a.09.09 0 0 0 .05.07.09.09 0 0 0 .08 0c.2-.12.32-.29.38-.5.1-.21.18-.38.2-.62 0-.16.03-.32.06-.48.1-.49.35-.84.76-1.06l.36-.13c-.02.07-.05.12-.08.14-.44.35-.69 1.06-.16 1.46.15.09.3.09.46 0a.72.72 0 0 0 .29-.32c.3-.6.42-1.25.38-1.94-.01-.12 0-.24.02-.35.02-.1.09-.2.2-.3.34-.3.58-.48.71-.54.39-.18.43-.11.14.2l-.42.52c-.19.26-.26.46-.29.8a9.37 9.37 0 0 1-.23 1.54c-.16.63-.26 1.1-.87 1.3-.25.08-.5.13-.75.14Z" fill="#9F4A23"/><ellipse cx="29.5" cy="24.13" rx="2.5" ry="2.43" fill="#9F4A23"/><path d="M27.77 16.58c.34.16.67.06 1-.3.58-.64 1.17-1.26 1.78-1.86.3-.3.71-.64 1.23-1.01a6.8 6.8 0 0 1 1.62-.68 7.03 7.03 0 0 1 1.8-.15c.51 0 .97.11 1.39.31.61.3 1.1.59 1.48.88.12.1.1.13-.05.12a10.8 10.8 0 0 0-1.92-.06 2.9 2.9 0 0 0-1.94.55c-.4.24-.76.56-1.1.96a.22.22 0 0 0 .04.32c.27.2.73.1 1.06-.04l.62-.25a17.6 17.6 0 0 1 4.49-.71 5.44 5.44 0 0 1 3 .77c.05.03.04.05-.02.06l-1.5.27c-.73.2-1.5.32-2.27.38a.06.06 0 0 0-.05.06c0 .03.01.05.04.06l.68.18c1.26.38 2.35.92 3.28 1.63 1.71 1.29 2.81 2.99 3.3 5.09.3 1.24.35 2.5.16 3.8a27.18 27.18 0 0 1-2 6.38c-.27.67-.6 1.36-.96 2.07a86.65 86.65 0 0 1-2.59 4.71c-.08.15-.1.14-.05-.02l1.1-3.53.18-.47c.02-.05.01-.06-.03-.01-.54.66-1.11 1.26-1.72 1.8-.9.77-1.82 1.45-2.77 2.05a65.83 65.83 0 0 1-5.08 2.96c-.02 0-.04 0-.05-.02a.16.16 0 0 0-.02-.03c.06 0 .12-.04.17-.1.53-.67 1.09-1.43 1.66-2.29.31-.46.6-1 .84-1.6.05-.12.02-.15-.1-.09l-1.22.67-1.9 1a33.04 33.04 0 0 1-6.89 2.72c-.13.04-.14.01-.04-.07a27.33 27.33 0 0 0 3.1-2.8c.18-.21.34-.42.47-.63.05-.08.03-.1-.05-.06l-1.25.6-3.17 1.34a87.85 87.85 0 0 1-10.53 2.78l1.71-.74c1.26-.53 2.5-1.09 3.71-1.68 1.58-.7 3.38-1.56 5.39-2.6A45.05 45.05 0 0 0 30 35.51l3.33-2.47c3.02-2.32 6.57-5.67 6.61-9.85a4.04 4.04 0 0 0-2.53-3.82 8.73 8.73 0 0 0-3-.7c-1.46-.1-2.87-.01-4.24.24-.9.16-1.8.46-2.67.9-.96.43-1.91 1.01-2.86 1.76a22.9 22.9 0 0 0-2.38 2.16c-.03.03-.05.03-.09 0-.38-.29-.75-.61-1.21-.78l-.79-.3a.66.66 0 0 1-.38-.33c-.2-.42-.14-.78.17-1.1.31-.3.85-.74 1.6-1.3a7.18 7.18 0 0 0 2.12-2.5l-.4 1.2L22.27 20c-.32.23-.6.5-.86.83a.86.86 0 0 0-.15.62c.44.03.84-.12 1.18-.45.08-.08.32-.4.72-.96l1.79-2.52c.53-.75.95-1.27 1.25-1.58.5-.5 1.03-.92 1.6-1.25.93-.54 1.65-.98 2.17-1.34.56-.41 1.03-.84 1.4-1.28.1-.12.14-.1.11.05-.04.27-.18.53-.4.78-.56.66-1.25 1.27-2.07 1.86a6.8 6.8 0 0 1-.62.33c-.33.17-.58.39-.77.67-.18.27-.12.54.16.8ZM15.75 24.6c-.4-.22-.64-.55-.72-1-.06-.3-.03-.58.07-.84.4-1 1.23-1.78 2.17-2.29l.52-.28c.35-.2.69-.44 1.03-.7l1.74-1.37a3.86 3.86 0 0 0 .62-.6 18.42 18.42 0 0 0 2.8-3.58c.02.01.02.02.02.04a13.78 13.78 0 0 1-3.93 5.52 44 44 0 0 1-2.52 1.94 8.2 8.2 0 0 0-1.07.94c0 .02 0 .05.02.06.18.21.4.37.65.49a.27.27 0 0 1 .16.22c.04.48-.14.87-.52 1.18-.32.24-.66.33-1.04.27Z" fill="#FEFEFE"/><path d="M21.48 26.74c-.16.5-.4.92-.74 1.27-.22.23-.61.41-.86.68-.14.15-.13.27.05.37l.74.44c.01 0 .02.01.01.03-.02.13-.08.2-.15.2a7.4 7.4 0 0 1-1.43-.1c-.23-.05-.33-.22-.3-.54.11-.43.27-.76.49-.98.6-.64 1.1-1.13 1.05-1.96-.03-.42-.22-.71-.56-.87-.23-.1-.53-.12-.9-.05a6.56 6.56 0 0 0-2.45 1.39c-.47.4-.93.85-1.4 1.34-.46.46-.94.89-1.46 1.28-.3.23-.57.4-.8.5-.18.08-.36.11-.55.1a.87.87 0 0 1-.5-.36 3.48 3.48 0 0 1-.38-.76c.16-.37.5-.54 1.04-.52.42.01.71 0 .86-.03.47-.07.81-.2 1.04-.39.6-.49 1.75-1.53 3.47-3.12a2.9 2.9 0 0 1 1.83-.67c1.08 0 2.03.68 2.04 1.86 0 .27-.04.57-.14.89ZM31.56 28.05c-1.56.57-3.15 1-4.77 1.28-.53.09-1.07.14-1.62.14-.72 0-1.4-.15-2.03-.47-.6-.3-1-.93-1.14-1.53 0-.04 0-.05.04-.04.85.32 1.71.53 2.6.62 1.54.16 3.07.12 4.62-.1A28.96 28.96 0 0 0 37 25.6h-.01c-1.77.91-3.58 1.73-5.43 2.45Z" fill="#FEFEFE"/><path d="M14.96 31.83c-.17-.02-.28.07-.35.26-.37.43-.74.92-1.32.58-.23-.45-.16-.94.23-1.47.02-.03.03-.03.04 0l.12.7a.09.09 0 0 0 .08.08l.04-.01c.2-.12.33-.28.38-.5.1-.2.18-.38.2-.62l.06-.48c.1-.49.35-.84.77-1.06l.36-.12c-.02.07-.05.11-.09.14-.44.35-.68 1.05-.16 1.45.15.1.3.09.47 0a.72.72 0 0 0 .28-.32c.3-.6.43-1.25.38-1.93-.01-.13 0-.25.02-.36.03-.1.1-.2.2-.29.34-.3.58-.48.72-.55.38-.17.43-.1.14.2-.08.09-.22.26-.42.53-.2.25-.27.46-.3.8a9.36 9.36 0 0 1-.23 1.53c-.15.64-.26 1.1-.87 1.3-.24.08-.5.13-.75.14Z" fill="#FEFEFE"/><ellipse cx="31.5" cy="23.16" rx="2.5" ry="2.43" fill="#FEFEFE"/></svg>