<!-- by TradingView --><svg width="56" height="56" viewBox="0 0 56 56" xmlns="http://www.w3.org/2000/svg"><path fill="#00AC92" d="M0 0h56v56H0z"/><path d="M30.58 26H29v9h1.58v-9ZM40.4 26l-2.84 7.18-2.9-7.18H33l3.8 9h1.47L42 26h-1.6ZM19.4 22c4 .43 5.56 2 5.4 3.5-1.7 1.03-3.81 1.7-5.8 2.5-.8-4.17-2.64-8.9-7.64-9-3.68-.08-5.97 3.23-6.32 6.48A5.86 5.86 0 0 0 10.58 32a2.7 2.7 0 0 0 2.37-1c-.59.25-1.23.43-2.07.43-2.93 0-5.2-2.68-5.32-5.78C5.44 22.7 7.62 20 10.7 20c2.95 0 4.66 1.94 5.47 4.23.49 1.37.8 2.2 1.18 4.44-1.6.8-3.19 1.63-3.63 3.43-.18.73.25 1.63 1.27 1.9-.2-.32-.36-.73-.43-1.14-.35-2.04 1.22-2.83 2.86-3.62.24 2.17.2 4.29.17 5.76 2.33-3.16 7.46-5.63 8.35-9.62C27.2 24.3 28.36 23.22 29 21h-8.72l-.88 1Zm-.1 10.45c.05-1.59-.06-2.79-.21-3.89 1.86-.69 3.74-1.2 5.44-2.19-1.08 2.35-3.38 4.32-5.23 6.08ZM27.9 22c-.54 2.21-1.96 2.66-1.96 2.73-.1-1.38-1.04-2.14-2.3-2.73h4.27Z" fill="#fff"/><path fill-rule="evenodd" d="m47.61 33 .8 2H50l-3.73-9h-1.48L41 35h1.67l.8-2h4.14Zm-.53-1.33-1.52-3.85L44 31.67h3.07Z" fill="#fff"/></svg>