<!-- by TradingView --><svg width="56" height="56" viewBox="0 0 56 56" xmlns="http://www.w3.org/2000/svg"><path fill="#F0F3FA" d="M0 0h56v56H0z"/><path d="M21.75 27.17 19 30.12l.33.28 1-1.1L22.4 31 27 25.97V23.7c0-2.4-1.8-4.71-3.97-4.71-2.18 0-3.7 1.8-3.7 3.6s2.42 2.35 2.42 2.77c0 .96-1.2 1.2-1.8 1.2 1.6.23 2.8-.5 2.8-2.4s-2.42-2.3-2.42-3.1c0-.78.56-.87 1.42-.87 1.55 0 2.3 1.97 2.25 2.95v5.73l-2.25-1.71Z" fill="#CAA973"/><path d="m27.53 27.17-2.75 2.95.34.28.99-1.1L28.2 31 32 25.97V22.6c0-2.4-1.01-3.6-3.19-3.6-2.18 0-3.7 1.8-3.7 3.6 0 3.39 1 2.9 1-1.52 0-.79.57-.88 1.42-.88 1.28 0 1.47 1.8 1.47 2.95v5.73l-1.47-1.71Z" fill="#CAA973"/><path d="M30.8 20.63c.3-.54 1.24-1.63 2.6-1.63 1.7 0 2.6 1.3 2.6 1.77v1.86l.03.1c.07.2.14.44.5.32-.16.14-.53.4-.88.45v.85c-.19.01-.65.16-.65.6v2.89c0 .38.25 1.16.89 1.16.51 0 .66-.14.78-.25a.8.8 0 0 1 .1-.08L37 29l-2.48 2C34 30.64 33 29.84 33 29.47v-3.63c0-.64.39-1.91 1.94-1.91.04 0 .3-.18.37-.47a.8.8 0 0 1-.3-.27c-.07-.1-.14-.19-.24-.19h-.9c-.25-.1-.87-.4-.87-1.07v-1.72c.03-.14.09-.42-.4-.42-.62 0-1.43.23-1.8.84Z" fill="#CAA973"/><path fill-rule="evenodd" d="M28 46a18 18 0 1 0 0-36 18 18 0 0 0 0 36Zm0-1a17 17 0 1 0 0-34 17 17 0 0 0 0 34Z" fill="#CAA973"/><path fill-rule="evenodd" d="M28 41a13 13 0 1 0 0-26 13 13 0 0 0 0 26Zm0-1a12 12 0 1 0 0-24 12 12 0 0 0 0 24Z" fill="#CAA973"/><path d="M31.45 13.32c0 .65.77 1.93 1.15 2.5-.48 0-1.52-.81-1.91-1.78-.15.75-.81 1.1-1.57 1.1-.65 0-1.25-.9-1.46-1.5-.07-.2.06-.4.25-.45.2-.06.73.08.75.3l.02.21c.02.39.04.87.44.87.56 0 1.05-.2 1.05-.87 0-.98-.8-1.63-1.7-1.63-1.17 0-2.42 1.06-3.24 1.85l-.37-.43c.93-.89 2.3-2 3.62-2 .93 0 1.76.55 2.1 1.4.17-1.08.94-2.04 1.42-1.87.31.1.1.57-.15 1.1-.19.4-.4.85-.4 1.2Zm1.74 1.97a3.2 3.2 0 0 1-.68-2.02c.04-1.15.13-1.34.68-1.24.55.1.55.43.5.62 0 .04-.05.05-.1.08-.26.1-.8.32-.4 2.56Zm.66-.86c-.1.65.32 1.07.55 1.2-.3-1.04.01-1.35.33-1.66.2-.2.41-.41.45-.83.02-.24-.55-.39-.78-.34-.23.05-.41.82-.55 1.63Zm2.37 2.1c-.22-.2-.6-.74-.46-1.2.07-.22.22-.43.36-.61.21-.29.38-.52.1-.63-.46-.2-.97-.05-1.01.43-.05.48-.05 1.82 1 2.01ZM31.02 42.65c-.23-.6-1.4-1.5-1.94-1.88.44-.18 1.7.17 2.4.91-.13-.75.36-1.33 1.07-1.63.6-.24 1.48.35 1.88.83.13.16.1.4-.07.52-.17.14-.7.21-.8.01l-.1-.19c-.15-.35-.34-.78-.7-.63-.53.22-.92.6-.68 1.2.34.93 1.3 1.22 2.15.87 1.09-.46 1.88-1.92 2.37-2.97l.5.25c-.56 1.19-1.44 2.74-2.67 3.25-.87.36-1.83.18-2.44-.48.22 1.07-.16 2.26-.67 2.29-.33.02-.29-.5-.25-1.08.04-.45.07-.94-.05-1.27ZM28.71 41.5c.33.17 1.06.73 1.35 1.6.36 1.09.34 1.3-.2 1.42-.55.13-.66-.19-.69-.38 0-.04.03-.07.08-.12.2-.19.63-.6-.54-2.53ZM28.4 42.54a1.12 1.12 0 0 0-.93-.9c.64.85.46 1.26.28 1.67-.12.27-.24.54-.13.95.06.23.65.14.84 0 .2-.13.1-.9-.06-1.72ZM25.46 41.5c.27.11.82.45.85.94.01.23-.06.49-.12.7-.1.36-.17.63.13.63.5 0 .91-.32.79-.79-.13-.46-.6-1.7-1.65-1.48ZM41.5 34.82c-.61-.16-1.99.3-2.6.55.12-.49 1.12-1.35 2.11-1.5-.65-.34-.81-1.1-.63-1.87.16-.65 1.14-1.05 1.75-1.1.2-.02.36.15.36.36 0 .22-.25.72-.46.69l-.2-.04c-.36-.08-.82-.17-.91.23-.14.58-.08 1.12.53 1.29.92.24 1.71-.4 1.93-1.32.3-1.19-.38-2.72-.9-3.75l.49-.27c.59 1.17 1.27 2.82.95 4.16-.24.95-.94 1.66-1.81 1.78.96.45 1.65 1.47 1.38 1.92-.18.29-.55-.05-.98-.43-.33-.29-.69-.61-1.02-.7ZM39.24 36.1c.33-.18 1.2-.46 2.04-.2 1.05.33 1.2.47.98 1-.23.54-.54.46-.7.36-.03-.02-.04-.06-.05-.13-.03-.28-.1-.89-2.27-1.03ZM39.87 36.98a1.07 1.07 0 0 0-1.25.26c1.04-.05 1.25.34 1.46.74.14.26.28.52.66.67.21.08.49-.47.5-.71.01-.25-.65-.62-1.37-.96ZM37.34 38.86c.25-.17.83-.44 1.22-.17.2.12.35.33.48.51.22.3.39.52.56.26.3-.42.29-.96-.15-1.13-.43-.16-1.67-.5-2.11.53ZM41.45 21.27c-.54.34-1.19 1.68-1.45 2.31-.25-.42-.13-1.77.46-2.62-.69.25-1.32-.16-1.7-.84-.34-.58.08-1.59.46-2.08.13-.16.36-.16.5-.02.16.16.32.7.15.84l-.17.12c-.3.21-.68.49-.48.84.3.5.71.84 1.25.5.81-.51.92-1.55.46-2.36-.6-1.05-2.12-1.63-3.19-1.96l.16-.55c1.21.37 2.82 1.03 3.5 2.21.48.84.47 1.86-.06 2.6.98-.4 2.16-.2 2.27.31.08.34-.41.38-.97.43-.43.04-.9.09-1.2.27ZM40.74 23.84a3.1 3.1 0 0 1 1.29-1.65c.97-.55 1.17-.57 1.37-.03.21.54-.06.72-.24.77-.04.02-.08-.01-.13-.06-.2-.17-.67-.55-2.3.97ZM41.78 24c-.6.23-.71.83-.7 1.1.7-.8 1.1-.68 1.53-.56.27.08.55.16.91-.02.2-.1.03-.7-.13-.88-.15-.18-.88.06-1.61.35ZM41.28 27.2c.06-.3.3-.93.74-1.03.22-.05.47-.02.7 0 .34.04.6.08.56-.24-.08-.5-.46-.88-.87-.68-.42.21-1.52.9-1.13 1.95ZM19.29 16.18c.5.39 1.94.51 2.6.53-.3.4-1.53.79-2.5.54.48.58.35 1.34-.1 1.97-.39.55-1.44.52-2.02.33-.2-.06-.28-.29-.2-.48.08-.2.5-.56.68-.45l.17.12c.3.2.69.47.93.14.33-.47.47-1-.03-1.4-.76-.6-1.73-.3-2.27.45-.7.98-.64 2.66-.53 3.82l-.55.06c-.12-1.31-.15-3.12.64-4.23a2.18 2.18 0 0 1 2.32-.92c-.72-.8-1-2.02-.57-2.32.27-.2.49.26.74.78.2.4.42.84.69 1.06ZM21.83 15.9a2.88 2.88 0 0 1-1.95-.63c-.85-.73-.94-.92-.54-1.33.4-.4.66-.2.78-.05.02.03 0 .08-.01.15-.07.27-.23.85 1.72 1.85ZM21.58 14.83c.43.48 1 .37 1.24.26-.98-.37-1.03-.82-1.08-1.27-.03-.3-.06-.6-.36-.88-.17-.16-.62.23-.72.45-.1.23.37.84.92 1.44ZM24.6 14.1c-.29.06-.93.07-1.2-.33-.12-.2-.19-.45-.25-.67-.1-.35-.17-.62-.42-.46-.43.27-.62.78-.28 1.1.34.33 1.37 1.13 2.15.36ZM13.26 27.79c.62-.1 1.72-1.07 2.2-1.55.06.5-.55 1.7-1.4 2.24.72.05 1.15.68 1.26 1.47.09.66-.67 1.42-1.21 1.72-.18.1-.39 0-.47-.2-.08-.2-.03-.76.18-.81l.2-.05c.36-.07.81-.17.75-.58-.08-.59-.34-1.06-.96-.97-.94.14-1.43 1.06-1.3 1.99.17 1.22 1.35 2.36 2.2 3.1l-.34.45c-.98-.84-2.22-2.1-2.4-3.47-.14-.96.25-1.9 1.01-2.37-1.05-.02-2.07-.68-1.97-1.21.05-.34.52-.18 1.05 0 .41.14.86.29 1.2.24ZM14.87 25.7c-.24.3-.93.91-1.8 1-1.1.12-1.3.06-1.28-.53 0-.58.33-.63.51-.6.04 0 .06.04.1.1.13.24.4.78 2.47.03ZM13.97 25.14c.63.03.96-.48 1.05-.74-.94.47-1.28.19-1.62-.1-.22-.18-.45-.37-.85-.35-.23.02-.28.63-.2.86.08.23.83.3 1.62.33ZM15.61 22.4c-.16.25-.6.73-1.06.64a2.09 2.09 0 0 1-.64-.28c-.3-.18-.54-.32-.6-.01-.12.5.08 1 .54.98.46-.02 1.73-.22 1.76-1.34ZM18.81 39.73c.3-.58.19-2.09.1-2.77.43.24.99 1.46.9 2.5.47-.59 1.2-.57 1.88-.2.57.31.7 1.4.62 2.04a.34.34 0 0 1-.42.28c-.21-.05-.61-.43-.53-.64l.08-.2c.15-.34.34-.78 0-.97-.5-.28-1.03-.34-1.32.24-.45.88-.03 1.83.77 2.27 1.03.58 2.61.26 3.7-.03l.13.55c-1.22.33-2.92.64-4.1 0a2.35 2.35 0 0 1-1.22-2.26c-.64.87-1.75 1.34-2.1.95-.23-.25.17-.55.62-.9.35-.26.73-.55.89-.86ZM18.15 37.14c.09.37.15 1.32-.3 2.11-.55 1-.71 1.12-1.15.77-.45-.36-.3-.65-.17-.8.02-.03.07-.02.13-.01.27.03.85.1 1.5-2.07ZM17.19 37.57c.39-.52.2-1.1.05-1.33-.2 1.07-.61 1.19-1.03 1.31-.28.08-.56.16-.77.51-.13.2.31.61.53.68.23.07.73-.52 1.22-1.17ZM16.04 34.56c.1.28.2.94-.13 1.28-.17.16-.4.27-.6.37-.31.15-.56.27-.37.5.32.4.83.52 1.09.12.25-.4.85-1.59 0-2.27Z" fill="#CAA973"/><path fill="#CAA973" fill-opacity=".5" d="M20 32h16v3H20zM22 35h12v3H22z"/></svg>