<!-- by TradingView --><svg width="56" height="56" viewBox="0 0 56 56" xmlns="http://www.w3.org/2000/svg"><path fill="#F0F3FA" d="M0 0h56v56H0z"/><path d="M13 17.7a3.7 3.7 0 0 1 3.7-3.7h22.6a3.7 3.7 0 0 1 3.7 3.7v20.6a3.7 3.7 0 0 1-3.7 3.7H17.33C15.28 42 13 40.35 13 38.3V17.7Z" fill="url(#a)"/><path d="M34.42 27.31a8.06 8.06 0 0 0-3.98-1.17c-3.81-.17-7.46.24-10.94 1.24-.54-.04-.89-.27-1.05-.68a.32.32 0 0 1 .03-.3c.54-.92 1.81-1.65 3.82-2.2a56.4 56.4 0 0 1 3.37-.83c.35-.07.7-.07 1.07 0 .52.1.87.14 1.06.13.52-.03.88-.13 1.09-.3.25-.2.38-.52.4-.93.05-.98-.09-1.73-.4-2.24-.13-.2-.36-.34-.7-.42-.71-.19-1.28-.13-1.7.17-.2.14-.4.44-.62.9a7.7 7.7 0 0 1-.18.34.99.99 0 0 1-.52.44L22.1 22.6a.74.74 0 0 1-.83-.17c-.62-.6-.55-1.19.22-1.78a9.69 9.69 0 0 1 2.38-1.16 5.13 5.13 0 0 0 3.24-4c.11-.46.2-.8.28-1.02.26-.14.47-.13.63.03.1.1.18.28.24.53.23 1 .5 1.79.82 2.33.4.7.98 1.23 1.72 1.59l3.43 1.58c.1.04.22.15.4.33.17.2.2.4.06.6a1.4 1.4 0 0 1-.52.48c-.47.3-.8.55-.98.73-.3.3-.47.62-.5.96 0 .12.03.22.12.3.24.24.57.42.98.54 1.24.37 2.14.76 2.7 1.18.58.42.7.98.38 1.67a.22.22 0 0 1-.23.13l-2.23-.13Z" fill="#05B2ED"/><path d="M27 21.7c-.06.57.23 1.06.64 1.1.4.03.77-.4.82-.97.05-.56-.24-1.05-.65-1.08-.4-.04-.77.4-.82.96ZM13.4 36.6c-.09-.12-.11-.23-.07-.3.03-.07.1-.1.23-.1 1.65-.07 3.28-.15 4.88-.24.14-.01.21-.09.21-.23a94.13 94.13 0 0 1 0-2.58c0-.28.06-.47.15-.57a.56.56 0 0 1 .52-.2c.21.03.37.14.47.32.23.4.31 1.15.26 2.24l-.04.94c0 .26.12.41.36.46.05.01.09 0 .13-.01.2-.1.3-.2.3-.3l-.04-5.14c0-.1-.04-.18-.13-.23a.25.25 0 0 0-.26 0l-.19.1c-1.43.8-2.34.97-2.74.52-.35-.4-.2-.79.46-1.15.65-.36 1.32-.69 2-1 1.36-.55 2.8-.91 4.32-1.1.12 0 .23.03.32.13.08.1.11.2.08.32-.06.28-.36.5-.9.66l-.18.06c-.75.25-.74.46.04.62.3.06.7.1 1.23.09 1.7-.02 3.4-.02 5.12 0 .15 0 .17.06.07.16l-.28.28a.42.42 0 0 1-.3.13l-5.67.27c-.38.01-1-.04-1.88-.17-.19-.03-.28.05-.28.24v5.15c0 .17.08.23.25.17l.25-.1c.28-.1.42-.3.4-.6a20.47 20.47 0 0 1 0-2.55c.07-.69.33-.76.77-.21.27.35.45.94.51 1.76.06.68.04 1.3-.06 1.85a.43.43 0 0 1-.33.36c-.44.12-.88.17-1.32.17-2.17 0-3.83.02-4.97.06-.65.03-1.87-.07-3.69-.28Z" fill="#05B2ED"/><path d="m30.5 40.4 4.9.1c.1 0 .2.03.28.1.5.44.55.9.15 1.39-6 .02-12.64.01-18.61 0-2.6-.02-4.22-.7-4.22-3.83l10.83-.48c.12 0 .2.04.26.15.06.1.05.2-.02.3-.44.6-1.03 1.1-1.76 1.5a.3.3 0 0 1-.28 0 2.56 2.56 0 0 1-.77-.58.54.54 0 0 0-.62-.15l-1.33.49a.18.18 0 0 0-.1.09c-.19.39-.22.8-.1 1.22.05.18.17.26.36.25l4.41-.22a.2.2 0 0 0 .18-.12.19.19 0 0 0-.02-.21c-.33-.44-.3-.86.1-1.26.7-.7 1-1.6.88-2.7-.05-.54-.12-1.06-.22-1.57a4.62 4.62 0 0 1 .38-2.81.35.35 0 0 1 .32-.23c.34-.01.52.17.52.56 0 .2.1.54.1 1v3.9c.1.93.06 1.84-.13 2.72-.06.33.07.49.4.47l.85-.04c.3-.02.45-.18.44-.48-.03-.85-.11-1.72-.24-2.6-.04-.27.02-.46.17-.58.1-.08.18-.06.23.06.42.99.55 2.07.38 3.24-.01.11.04.18.15.18l2.13.14Z" fill="#05B2ED"/><path d="M34.87 28.02c.67-.03 1.34-.02 2.01.02.51.04.89.18 1.12.43.23.24.5.56.78.98.06.09.15.12.25.1.28-.05.52-.17.72-.36.09-.09.2-.12.32-.09l.15.05c.03 0 .03.02.02.05l-1.58 2.45a.57.57 0 0 1-.46.27l-2.78.18c-.54.03-.61-.1-.2-.43.05-.04.23-.08.53-.14.1-.02.16-.09.15-.2-.05-.5-.28-.85-.7-1.06-.1-.05-.19-.03-.26.05-.18.2-.62.84-1.3 1.89-.25.36-.6.36-1.05-.02l-1.61-.84c-.19-.1-.24-.24-.16-.42.33-.77.77-1.49 1.3-2.15.44-.58 1.36-.83 2.75-.76Zm4.28 7.68-1.18-1.97c-.19-.33-.11-.57.23-.74l1.9-.91c.36-.17.62-.08.79.28.07.16.32.57.75 1.23a2.2 2.2 0 0 1 0 2.6 40.17 40.17 0 0 1-1.54 2.21c-.27.34-1.06.56-2.36.66l-.14.01c-.14.01-.2.08-.2.21v.56c0 .36-.1.39-.3.08a89.37 89.37 0 0 0-1.19-1.85c-.17-.24-.24-.46-.2-.66a2.3 2.3 0 0 1 .35-.76c.4-.7.85-1.37 1.32-1.98.11-.14.17-.12.17.05v.78c0 .29.15.44.45.44h1c.07 0 .11-.03.15-.08a.14.14 0 0 0 0-.16Zm-5.9-.99-1.33-2.09c-.14-.2-.28-.29-.42-.28-1.08.05-2.17.06-3.26 0a.14.14 0 0 0-.1.05l-.09.07c-.08.08-.07.14.04.17l.91.3c.13.05.18.13.14.26-.05.18-.15.42-.3.72a3 3 0 0 0-.32.76c-.05.3 0 .61.16.95.6 1.27 1.4 2.34 2.39 3.23 1.2.2 2.38.22 3.51.1.11-.02.17-.08.17-.19V36.5c0-.27-.14-.4-.42-.4H31.7c-.22 0-.27-.1-.16-.28l.46-.79c.13-.2.3-.26.52-.14l.7.38c.2.1.28.05.22-.18-.02-.08-.09-.2-.2-.38Z" fill="#F0F3FA"/><path d="M15.43 39.35c-.04-.28.08-.42.37-.42h.6c.27 0 .4.13.4.4v.75c0 .34-.16.46-.5.37-.48-.13-.78-.5-.87-1.1Z" fill="#173E93"/><defs><linearGradient id="a" x1="14.49" y1="27.11" x2="41.41" y2="27.74" gradientUnits="userSpaceOnUse"><stop stop-color="#173E93"/><stop offset="1" stop-color="#2591CE"/></linearGradient></defs></svg>