<!-- by TradingView --><svg width="56" height="56" viewBox="0 0 56 56" xmlns="http://www.w3.org/2000/svg"><path fill="#F0F3FA" d="M0 0h56v56H0z"/><path d="m13 35.27 3.81-1.08a3.93 3.93 0 0 0 3.9 3.63c2.16 0 4.29-1.77 4.29-3.95V13h5v12.05h3.34c.95 0 1.66.78 1.66 1.74s-.71 1.71-1.66 1.71H30V37h11v4H25.95v-1.81A8.08 8.08 0 0 1 20.84 41c-4.27 0-6.96-2.4-7.84-5.73Z" fill="url(#a)"/><defs><linearGradient id="a" x1="33.09" y1="32.82" x2="18.4" y2="40.88" gradientUnits="userSpaceOnUse"><stop offset=".14" stop-color="#D1202A"/><stop offset=".54" stop-color="#F96B6A"/><stop offset="1" stop-color="#E3292A"/></linearGradient></defs></svg>