<!-- by TradingView --><svg width="56" height="56" viewBox="0 0 56 56" xmlns="http://www.w3.org/2000/svg"><path fill="#F0F3FA" d="M0 0h56v56H0z"/><path d="M23.76 14c8.35 1.12 16.92 5.7 21.68 12.87a12.2 12.2 0 0 1 1.55 3.77c.02.05 0 .09-.03.1-.04.02-.05.03-.06.02-2.13-5.4-7.5-9.38-12.81-11.79a22.83 22.83 0 0 0-8.74-2.13c-4.3-.14-8.04 2.3-6.14 7.17 1.88 4.83 7.02 8.75 11.58 10.96.04.02.04.03 0 .03a.6.6 0 0 1-.12 0c-5.72-2.28-11.6-6.36-14.65-11.93-1.85-3.36-1.34-7.48 2.84-8.61.67-.19 1.38-.34 2.1-.46h2.8Z" fill="#00A296"/><path d="M9.16 25.28c.55 1.5 1.17 2.65 1.84 3.47a28.8 28.8 0 0 0 17.39 10.2c2.92.55 7.34.2 8.61-3.06.95-2.43-.8-5.76-2.37-7.65a27.07 27.07 0 0 0-9.09-7.16v-.02l.01-.03c.03-.03.06-.04.1-.02 5.14 2.1 10.8 5.94 13.74 10.83 1.07 1.77 1.6 3.38 1.61 4.83.02 5-5.87 5.76-9.77 5.15-7.76-1.2-16.32-5.92-20.73-12.77A12.47 12.47 0 0 1 9 25.42c0-.04 0-.08.05-.1l.1-.04h.01Z" fill="#F6A458"/></svg>