<!-- by TradingView --><svg width="56" height="56" viewBox="0 0 56 56" xmlns="http://www.w3.org/2000/svg"><path fill="#F0F3FA" d="M0 0h56v56H0z"/><path d="M28 39.6V16.47l10.72 6.36v9.73L28 39.61Z" fill="#52C3F1"/><path d="M18.98 17.02 28 16v.53L18.65 23c-.43.3-.65.76-.65 1.27v7.49c0 .5.22.97.64 1.26L28 39.5V40l-9.02-.95c-.24-.02-.48-.1-.69-.23l-9.7-5.91A1.2 1.2 0 0 1 8 31.89v-7.75c0-.42.22-.8.6-1.03l9.7-5.86c.2-.12.43-.2.68-.23Z" fill="#004E97"/><path d="M37.02 16.99 28 16v.53l9.35 6.44c.43.3.65.77.65 1.27v7.5c0 .5-.22.97-.64 1.26L28 39.5v.5l9.02-.96c.24-.02.48-.1.69-.23l9.7-5.92c.37-.22.59-.6.59-1.02v-7.76c0-.42-.22-.8-.6-1.03l-9.7-5.86c-.2-.13-.44-.2-.68-.23Z" fill="#0080CC"/></svg>