<!-- by TradingView --><svg width="56" height="56" viewBox="0 0 56 56" xmlns="http://www.w3.org/2000/svg"><path fill="#F0F3FA" d="M0 0h56v56H0z"/><path d="M46.85 30h-.76l.98-3h.94l1 3h-.77l-.69-2.24h-.02L46.85 30Zm-.1-1.18h1.58v.55h-1.59v-.55ZM46 27v3h-.7v-3h.7ZM43 30v-3h.73v2.41H45V30h-2ZM40.79 30h-.76l.98-3h.94l.99 3h-.76l-.69-2.24h-.02L40.8 30Zm-.1-1.18h1.58v.55h-1.59v-.55ZM37.86 27.59V27h2.47v.59h-.88V30h-.7v-2.41h-.89ZM37.7 27v3H37v-3h.7ZM36.01 28.5c0 .32-.06.6-.18.82-.13.22-.3.39-.5.5-.22.12-.45.18-.71.18-.27 0-.5-.06-.71-.18a1.28 1.28 0 0 1-.5-.5c-.13-.23-.19-.5-.19-.82 0-.32.06-.6.18-.82.13-.22.3-.39.5-.5.22-.12.45-.18.72-.18.26 0 .5.06.7.17.22.12.38.29.5.51.13.23.2.5.2.82Zm-.72 0c0-.19-.03-.35-.08-.48a.63.63 0 0 0-.23-.3.63.63 0 0 0-.36-.1.63.63 0 0 0-.37.1.64.64 0 0 0-.23.3c-.05.13-.08.29-.08.48s.03.35.08.48c.06.13.13.23.23.3.1.07.23.1.37.1.14 0 .26-.03.36-.1.1-.07.18-.17.23-.3.05-.13.08-.29.08-.48ZM30.73 27.59V27h2.47v.59h-.89V30h-.7v-2.41h-.88ZM29.77 27h.7v1.91c0 .22-.05.41-.15.58-.1.16-.25.29-.44.38-.18.09-.4.13-.64.13a1.5 1.5 0 0 1-.65-.13 1.03 1.03 0 0 1-.44-.38c-.1-.17-.15-.36-.15-.58V27h.7v1.85c0 .1.03.2.07.27.05.08.11.14.19.19.08.05.17.07.28.07.1 0 .2-.02.28-.07.08-.05.14-.1.18-.19a.55.55 0 0 0 .07-.27V27ZM25.76 30H25l.99-3h.94l.98 3h-.76l-.68-2.24h-.02L25.76 30Zm-.1-1.18h1.59v.55h-1.6v-.55ZM20 33.1v5.82a.08.08 0 0 1-.02.06.07.07 0 0 1-.05.02H9.63a.07.07 0 0 1-.06-.03.08.08 0 0 1 0-.07l1.92-5.4v-.05a.07.07 0 0 0-.04-.04L5.04 30.3a.07.07 0 0 1-.03-.04.08.08 0 0 1 0-.08.07.07 0 0 1 .05-.02l8.2-1.7a.07.07 0 0 0 .06-.04l6.53-18.36.04-.04h.05c.01 0 .03 0 .04.02l.02.05v19.84l-.02.05-.06.03H7.05a.07.07 0 0 0-.04.05v.03l.02.13c0 .01 0 .03.02.04l.04.02 12.85 2.76c.02 0 .03 0 .04.02l.02.05ZM25 38.88v-4.7a.11.11 0 0 1 .14-.12l7.81 1.44a.11.11 0 0 1 .1.09.12.12 0 0 1-.04.11l-3.56 3.27a.11.11 0 0 1-.07.03H25.1a.11.11 0 0 1-.11-.12Z" fill="#EE3A42"/></svg>