<!-- by TradingView --><svg width="56" height="56" viewBox="0 0 56 56" xmlns="http://www.w3.org/2000/svg"><path fill="#F0F3FA" d="M0 0h56v56H0z"/><path d="M13 17.24C13 14.9 14.9 13 17.24 13h21.52C41.1 13 43 14.9 43 17.24v21.52C43 41.1 41.1 43 38.76 43H17.24A4.24 4.24 0 0 1 13 38.76V17.24Z"/><path d="M25.1 40h-7.36c-.96 0-1.74-.78-1.74-1.74V30.9l9.1 9.1ZM40 38.26c0 .96-.78 1.74-1.74 1.74H30.9l9.1-9.1v7.36Zm-9-8.76v6.57l-3 3-3-3V29.5h6Zm8.07-1.5L34 33.07V22.93L39.07 28ZM22 33.06 16.93 28 22 22.93v10.13Zm9-13.13v6.57h-6v-6.57l3-3 3 3ZM16 25.1v-7.36c0-.96.78-1.74 1.74-1.74h7.36L16 25.1ZM38.26 16c.96 0 1.74.78 1.74 1.74v7.36L30.9 16h7.36Z" fill="red"/></svg>