<!-- by TradingView --><svg width="56" height="56" viewBox="0 0 56 56" xmlns="http://www.w3.org/2000/svg"><path fill="#F0F3FA" d="M0 0h56v56H0z"/><path d="M46 34V20h2v14h-2ZM43 34V20h2v14h-2ZM38.02 34C36.83 34 36 32.87 36 31.74c0-1.64 1-2.69 2.43-3.33A34.2 34.2 0 0 1 40 27.8v-.7c0-.75-.06-1.74-1.04-1.74-.8 0-.96.52-.96 1.23l.02.42h-1.97c.04-1.92 1.05-3 3.03-3 1.91 0 2.92 1.27 2.92 3.08V34h-2v-1.57c-.28.93-1 1.57-1.98 1.57Zm.73-1.55c.48 0 1.01-.4 1.25-.8v-2.77c-.29.16-.6.32-.85.47-.68.42-1.29.99-1.29 1.84 0 .78.3 1.26.89 1.26ZM25 34V24h2v1.1c.67-.74 1.23-1.1 2.09-1.1.81 0 1.56.46 1.77 1.24.73-.87 1.45-1.24 2.37-1.24C34.5 24 35 25.17 35 26.28V34h-2v-7.6c0-.6.02-1.2-.57-1.2-.6 0-1.04.37-1.43.79V34h-2v-7.6c0-.6-.02-1.2-.71-1.2-.5 0-.79.28-1.29.79V34h-2ZM20.68 34c-2.36 0-3.55-1.8-3.68-4l1.71-.46c.09 1.24.41 2.95 1.97 2.95 1.03 0 1.32-.6 1.32-1.6 0-1.16-.69-1.93-1.5-2.65l-2.13-2.04a3.81 3.81 0 0 1-1.34-3.03c0-1.94 1.35-3.17 3.26-3.17 2.2 0 3.29 1.45 3.49 3.54l-1.65.44c-.09-1.18-.42-2.5-1.84-2.5-.93 0-1.29.58-1.29 1.5 0 .8.32 1.35.9 1.87l2.11 2.03A5.13 5.13 0 0 1 24 30.73c0 1.93-1.4 3.27-3.32 3.27ZM11.62 34C8.9 34 8 31.85 8 29.44V24.6c0-2.47.82-4.59 3.62-4.59 2.4 0 3.38 1.72 3.38 3.95V25h-2v-.93c0-1.24.18-2.58-1.37-2.58C10 21.5 10 23 10 24.31v5.44c0 1.29.04 2.74 1.63 2.74 1.58 0 1.37-1.5 1.37-2.73V29h2v.76c0 2.29-.83 4.24-3.38 4.24Z" fill="#B5191D"/></svg>