<!-- by TradingView --><svg width="56" height="56" viewBox="0 0 56 56" xmlns="http://www.w3.org/2000/svg"><path fill="#F0F3FA" d="M0 0h56v56H0z"/><path fill-rule="evenodd" d="M46 16H10v17.01h36V16Zm-2.78 4.25c-.73-.68-2.3-1.25-4.3-1.25-1.87 0-3.55.55-4.75 1.52a5.53 5.53 0 0 0-2.17 4.6c0 3.52 2.6 5.88 6.54 5.88 1.77 0 3.16-.43 4.3-1.3.77-.58 1.16-1.21 1.16-1.64 0-.46-.32-.74-.81-.74-.38 0-.66.25-1.03.58l-.36.32c-.8.66-1.5 1.03-2.46 1.03-2.03 0-3.34-1.62-3.34-4.42 0-2.73 1.32-4.4 3.24-4.4.64 0 1.17.2 1.57.56.4.37.64.77.85 1.15l.14.23c.28.47.49.72 1.08.72.56 0 .76-.26.76-.9 0-1-.08-1.6-.42-1.94Zm-14.75 8.3v.22c0 .34.02.58.29.82l.14.11c.18.14.37.28.37.62 0 .56-.43.68-1.48.68h-3.1c-.64 0-.96-.23-.96-.68 0-.36.21-.5.46-.68l.19-.14c.15-.11.16-.43.16-.98v-8.04h-.15l-.14-.02c-.64 0-1.05.17-1.37.57-.1.13-.18.27-.26.4-.21.37-.4.68-.9.68-.42 0-.72-.28-.72-.67 0-1.06.3-1.92.47-2.14.2-.28.5-.3 1.01-.3h7.89c.55 0 .86 0 1.06.17.25.23.57 1.11.57 2.27 0 .39-.28.67-.7.67-.51 0-.7-.31-.9-.68a3.68 3.68 0 0 0-.26-.4c-.32-.4-.74-.57-1.37-.57l-.15.01h-.15v8.09Zm-9.47.07v-7.36c0-.38.02-.63.15-.76.09-.1.21-.17.34-.24.24-.15.5-.3.5-.58 0-.46-.29-.68-1.14-.68H15.6c-.93 0-1.61.13-1.61.68 0 .3.25.46.5.62.14.1.28.18.36.3.15.2.15.53.15 1v6.92c0 .55-.03.87-.16.98-.1.08-.2.14-.32.2-.25.16-.52.3-.52.62 0 .45.55.68 1.13.68h3.26c.92 0 1.61-.12 1.61-.68 0-.33-.27-.5-.52-.65-.14-.09-.27-.17-.35-.27-.12-.18-.13-.43-.13-.78Z" fill="#3F8BBF"/><path d="m43.58 37.43.38.1c.23.07.51.17.7.33.21.2.34.48.34.78 0 .4-.18.77-.47 1-.3.26-.67.36-1.06.36-.3 0-.62-.06-.9-.2-.24-.13-.57-.4-.57-.72 0-.15.1-.3.23-.3s.2.1.27.2c.1.17.17.3.32.42.18.12.4.19.61.19.33 0 .73-.2.73-.61a.44.44 0 0 0-.23-.41 2.67 2.67 0 0 0-.61-.2 2.05 2.05 0 0 1-.77-.29c-.26-.19-.42-.49-.42-.84 0-.37.18-.73.45-.95.28-.22.63-.29.96-.29.35 0 .74.1 1.05.27.06.04.11.08.13.16.03.12.03.34.03.47 0 .12-.05.21-.17.21-.26 0-.22-.74-1-.74-.27 0-.6.17-.6.5 0 .38.33.49.6.56ZM40.13 38.05V39c0 .56.05.6.7.6.3 0 .48-.01.69-.27.07-.1.18-.26.3-.26.1 0 .18.08.18.18 0 .15-.06.36-.1.5-.07.23-.1.25-.32.25h-2.35c-.1 0-.23-.04-.23-.19 0-.1.05-.13.12-.17l.05-.03c.1-.06.08-.19.08-.3v-2.62c0-.11.02-.24-.08-.3l-.05-.03c-.07-.04-.12-.08-.12-.17 0-.15.13-.19.23-.19h2.24c.08 0 .2-.01.27.07.06.08.08.4.08.52s-.05.23-.17.23c-.11 0-.16-.08-.23-.16a.53.53 0 0 0-.3-.23 2.25 2.25 0 0 0-.87 0c-.08.04-.12.1-.12.17v1.01h.72c.34 0 .29-.2.45-.2.17 0 .17.24.17.38s.02.46-.17.46c-.16 0-.12-.2-.45-.2h-.72ZM37.29 39.3v-2.6c0-.12.02-.25-.1-.3l-.06-.04c-.07-.04-.13-.08-.13-.17 0-.15.15-.19.27-.19h1.04c.12 0 .27.04.27.19 0 .1-.06.13-.13.17l-.06.03c-.13.06-.1.19-.1.3v2.62c0 .11-.03.24.1.3l.06.03c.07.04.13.08.13.17 0 .15-.15.19-.27.19h-1.04c-.12 0-.27-.04-.27-.19 0-.1.06-.13.13-.17l.06-.03c.12-.06.1-.19.1-.3Z" fill="#3F8BBF"/><path d="M34.45 39.3v-2.6c0-.2.02-.3-.24-.3-.69 0-.7.46-.98.46-.15 0-.23-.08-.23-.2 0-.07.02-.13.03-.18.02-.1.06-.38.15-.45.06-.04.2-.03.27-.03h3.1c.07 0 .21 0 .27.03.09.07.13.35.15.45.01.05.03.11.03.17 0 .13-.08.2-.23.2-.28 0-.29-.45-.98-.45-.26 0-.24.1-.24.3v2.6c0 .12-.02.25.1.3l.08.04c.07.04.14.08.14.17 0 .15-.16.19-.3.19h-1.14c-.14 0-.3-.04-.3-.19 0-.1.07-.13.14-.17l.07-.03c.13-.06.11-.19.11-.3ZM30.3 38.33v.98c0 .11-.02.24.1.3l.07.03c.07.04.13.08.13.17 0 .15-.15.19-.27.19h-1.06c-.12 0-.27-.04-.27-.19 0-.1.06-.13.13-.17l.06-.03c.13-.06.1-.19.1-.3V36.7c0-.12.03-.24-.1-.3l-.06-.03c-.07-.05-.13-.08-.13-.18 0-.15.15-.18.27-.18l1.97-.01c.3 0 .65.01.92.15a.9.9 0 0 1 .51.8c0 .51-.4.86-.84 1.06.36.38.58.85.77 1.33.07.17.1.25.27.34.07.04.13.06.13.16 0 .15-.18.16-.29.16h-1.08c-.13 0-.33 0-.33-.18 0-.16.23-.15.23-.3 0-.28-.46-1.03-.68-1.27l-.54.08Zm0-1.47v1.05c.52 0 1.3-.21 1.3-.85 0-.48-.37-.67-.8-.67-.12 0-.33.02-.42.1-.08.09-.08.25-.08.37ZM27.13 38.05V39c0 .56.05.6.7.6.3 0 .48-.01.69-.27.07-.1.18-.26.3-.26.1 0 .18.08.18.18 0 .15-.06.36-.1.5-.07.23-.1.25-.32.25h-2.35c-.1 0-.23-.04-.23-.19 0-.1.05-.13.11-.17l.06-.03c.1-.06.08-.19.08-.3v-2.62c0-.11.02-.24-.08-.3l-.06-.03c-.06-.04-.11-.08-.11-.17 0-.15.13-.19.23-.19h2.24c.08 0 .2-.01.27.07.06.08.08.4.08.52s-.05.23-.17.23c-.11 0-.16-.08-.23-.16a.53.53 0 0 0-.3-.23 2.25 2.25 0 0 0-.87 0c-.08.04-.12.1-.12.17v1.01h.72c.34 0 .29-.2.45-.2.17 0 .17.24.17.38s.02.46-.17.46c-.16 0-.12-.2-.45-.2h-.72Z" fill="#3F8BBF"/><path d="M23.44 38.5v.82c0 .06.02.13.04.18.04.1.13.12.23.15.1.04.15.08.15.18 0 .19-.27.17-.41.17H22.3c-.13 0-.3-.04-.3-.19 0-.1.07-.13.15-.17l.06-.03c.14-.06.12-.19.12-.3v-2.62c0-.11.02-.24-.12-.3l-.06-.03c-.08-.04-.15-.08-.15-.17 0-.15.17-.19.3-.19h1.9c.39 0 .8.03 1.16.2.4.17.64.48.64.89 0 .52-.42.9-.9 1.1-.5.23-1.1.28-1.66.3Zm0-1.7v1.27c.6-.07 1.36-.3 1.36-.95 0-.47-.37-.74-.88-.74-.12 0-.3.01-.39.1-.1.08-.09.2-.09.32Z" fill="#3F8BBF"/><path d="M19.97 40c-.5 0-1.03-.2-1.4-.57A2 2 0 0 1 18 38c0-1.17.89-1.99 1.98-1.99 1.11 0 2.02.8 2.02 1.99A2 2 0 0 1 19.97 40Zm.02-.4c.8 0 1.03-.91 1.03-1.59 0-.67-.22-1.61-1.02-1.61-.38 0-.65.25-.82.58-.15.31-.2.65-.2 1 0 .64.22 1.62 1.01 1.62ZM15.3 38.33v.98c0 .11-.02.24.1.3l.07.03c.07.04.13.08.13.17 0 .15-.15.19-.27.19h-1.06c-.12 0-.27-.04-.27-.19 0-.1.06-.13.13-.17l.06-.03c.13-.06.1-.19.1-.3V36.7c0-.12.03-.24-.1-.3l-.06-.03c-.07-.05-.13-.08-.13-.18 0-.15.15-.18.27-.18l1.97-.01c.3 0 .65.01.92.15a.9.9 0 0 1 .51.8c0 .51-.4.86-.84 1.06.36.38.58.85.77 1.33.07.17.1.25.27.34.07.04.13.06.13.16 0 .15-.18.16-.29.16h-1.08c-.13 0-.33 0-.33-.18 0-.16.23-.15.23-.3 0-.28-.46-1.03-.68-1.27l-.54.08Zm0-1.47v1.05c.52 0 1.3-.21 1.3-.85 0-.48-.37-.67-.8-.67-.12 0-.33.02-.42.1-.08.09-.08.25-.08.37ZM11.44 38.5v.82c0 .06.02.13.04.18.04.1.13.12.23.15.1.04.15.08.15.18 0 .19-.27.17-.41.17H10.3c-.13 0-.3-.04-.3-.19 0-.1.07-.13.15-.17l.06-.03c.14-.06.12-.19.12-.3v-2.62c0-.11.02-.24-.12-.3l-.06-.03c-.08-.04-.15-.08-.15-.17 0-.15.17-.19.3-.19h1.9c.39 0 .8.03 1.16.2.4.17.64.48.64.89 0 .52-.42.9-.9 1.1-.5.23-1.1.28-1.66.3Zm0-1.7v1.27c.6-.07 1.36-.3 1.36-.95 0-.47-.37-.74-.88-.74-.12 0-.3.01-.39.1-.1.08-.09.2-.09.32Z" fill="#3F8BBF"/></svg>