<!-- by TradingView --><svg width="56" height="56" viewBox="0 0 56 56" xmlns="http://www.w3.org/2000/svg"><path fill="#F0F3FA" d="M0 0h56v56H0z"/><path d="M43.5 35a17 17 0 0 1-31 0h3.37a14 14 0 0 0 24.26 0h3.37Zm1.43-5.5a17.22 17.22 0 0 0 0-3H40v3h4.93Zm-.2 1.5a16.87 16.87 0 0 1-.82 3H35V22h8.91c.36.96.64 1.96.83 3H38v6h6.74ZM34 22v3h-9v6h6v-1.5h-4v-3h7V34H22V22h12Zm-13 0v3h-6.16c-.15.4-.46 1.56-.46 3.04 0 1.5.31 2.6.46 2.96H21v3h-8.92a16.96 16.96 0 0 1 0-12H21Zm-5.13-1a14 14 0 0 1 24.26 0h3.37a17 17 0 0 0-31 0h3.37Z" fill="#C40F2F"/></svg>