<!-- by TradingView --><svg width="56" height="56" viewBox="0 0 56 56" xmlns="http://www.w3.org/2000/svg"><path fill="#F0F3FA" d="M0 0h56v56H0z"/><path d="M28.07 40.46c3.67 0 7.1-1.5 8.36-2.25l3.01 2.25A20.96 20.96 0 0 1 28.07 44c-5.26 0-9.87-2.36-11.51-3.54l2.8-2.25a20.4 20.4 0 0 0 8.71 2.25Zm0-24.92c3.67 0 7.1 1.5 8.36 2.25l3.01-2.25A20.96 20.96 0 0 0 28.07 12c-5.26 0-9.87 2.36-11.51 3.54l2.8 2.25a20.4 20.4 0 0 1 8.71-2.25Zm12.4 12.53c0 3.67-1.5 7.1-2.26 8.36l2.25 3.01c1.18-1.6 3.54-6.1 3.54-11.37 0-5.26-2.36-9.87-3.54-11.51l-2.25 2.8a20.4 20.4 0 0 1 2.25 8.71Zm-24.93 0c0 3.67 1.5 7.1 2.25 8.36l-2.25 3.01A20.96 20.96 0 0 1 12 28.07c0-5.26 2.36-9.87 3.54-11.51l2.25 2.8a20.4 20.4 0 0 0-2.25 8.71ZM18 34.7v-3.16c3.56 3.4 6.43 2.14 6.43.6 0-1.53-1.78-2.56-2.68-2.98-.91-.42-3.6-1.2-3.6-4.03S20.96 21 23.05 21c1.66 0 2.96.66 3.4 1v2.83c-3.44-2.23-5.67-1.06-5.67 0 0 1.05 1.06 1.53 2.63 2.22 1.57.7 3.59 2.47 3.59 4.5A4.45 4.45 0 0 1 22.4 36c-2.45 0-3.96-.86-4.4-1.3ZM29 21.99V36h3V24.05c.14-.17.64-.5 2.35-.5 1.72 0 3.15.83 3.65 1.25v-2.81c-.38-.33-1.7-.99-3.9-.99s-4.32.66-5.1.99Z"/><circle cx="34.75" cy="28.75" r="1.75" fill="#D73D3D"/></svg>