<!-- by TradingView --><svg width="56" height="56" viewBox="0 0 56 56" xmlns="http://www.w3.org/2000/svg"><path fill="#F0F3FA" d="M0 0h56v56H0z"/><path d="M45.93 26.6c-.16-.07-.27-.29-.33-.65a13.43 13.43 0 0 0-1.3-3.81 11.15 11.15 0 0 0-4.37-4.58 8.6 8.6 0 0 0-3.37-1.14 3.82 3.82 0 0 0-1.26-.14c-1.1.06-2.13.3-3.08.7a11.6 11.6 0 0 0-3.94 2.9.2.2 0 0 1-.13.07c-.03 0-.05 0-.08.02a9.59 9.59 0 0 1 5.46-3.69 8.7 8.7 0 0 1 5.22.27c1.67.6 3.12 1.66 4.36 3.16a12.46 12.46 0 0 1 2.82 6.9Z" fill="#EB2B55"/><path d="M19.68 16.02c-.12.16-.27.29-.44.39a9.13 9.13 0 0 0-3.9 1.6l-.83.62c-.95.7-1.86 1.82-2.73 3.36-.2.37-.38.74-.55 1.11-.16.34-.3.73-.43 1.18l-.28.99c-.04.14-.09.42-.13.84-.04.34-.15.6-.34.8a12.31 12.31 0 0 1 3.67-8.12 9.65 9.65 0 0 1 5.96-2.77Z" fill="#DD3328"/><path d="m28.07 19.97.08-.02a.2.2 0 0 0 .13-.06 11.6 11.6 0 0 1 3.94-2.91c.94-.4 1.97-.64 3.08-.7.42-.02.84.02 1.26.14l-2.69.31a9.78 9.78 0 0 0-5.79 3.77c-.05.07-.11.07-.17 0a10.7 10.7 0 0 0-2.6-2.45 7.96 7.96 0 0 0-1.91-.92c-.82-.28-1.5-.45-2.07-.52a9.9 9.9 0 0 0-1.4.02c-.07-.1-.3-.18-.69-.22.17-.1.32-.23.44-.39a9.48 9.48 0 0 1 8.25 3.93c.03.04.07.04.14.02Z" fill="#BD0D51"/><path d="M19.24 16.4c.4.05.62.13.68.23a9.88 9.88 0 0 0-6.77 3.77l-.4.62c-.26.21-.4.46-.44.73a.22.22 0 0 1-.12.18c-.16.08-.26.26-.29.53.02.08-.01.14-.1.18-.08.03-.12 0-.1-.1l.08-.55a10.76 10.76 0 0 1 3.56-3.97 9.13 9.13 0 0 1 3.9-1.61ZM36.56 16.42a8.6 8.6 0 0 1 3.37 1.14c1.9 1.1 3.35 2.63 4.36 4.58.63 1.2 1.07 2.47 1.31 3.8l-.13 3.04c.05-1.58-.15-3.11-.58-4.6-.02-.06-.06-.08-.11-.07l-.03-.2c.05-.18 0-.34-.17-.46l-.06-.15a.56.56 0 0 0-.03-.22c-.04-.09-.1-.12-.18-.1l-.9.28-.05-.26c.13.05.2.03.2-.07-.01-.13-.11-.18-.3-.15.13-.17.31-.31.55-.41.16-.08.24-.16.25-.24.01-.12-.07-.25-.23-.4l-.38-.61-.32-.57c-.08-.15-.18-.16-.29-.04l-.5.52c-.05.06-.05.11.01.16.15.12.17.26.05.43l-.05.07c-.03.03-.06.03-.09 0l-.54-.74.25.02c.08 0 .15-.02.21-.1.17-.19.36-.34.56-.43a.17.17 0 0 0 .1-.13.18.18 0 0 0-.04-.16l-1-1.09a1.33 1.33 0 0 0-.49-.34c-.15-.05-.16-.03-.04.08.1.07.18.17.24.28.04.07.04.13-.02.19l-.7.74-.58-.38c.07-.63.34-.98.82-1.05.12-.02.13-.06.03-.14a9.44 9.44 0 0 0-5.53-2.02c-.13 0-.18.06-.14.19.07.23.08.45.04.67-.03.09 0 .16.06.22.02.14.01.24-.02.3s-.07.08-.14.08c-.06-.01-.1-.05-.12-.11a.48.48 0 0 0-.43-.36.18.18 0 0 1-.16-.14c-.07-.2-.1-.31-.09-.35.06-.35.16-.37.3-.04 0 .02.04.04.12.08.08.03.15 0 .18-.09l.1-.22a.16.16 0 0 0-.02-.17.15.15 0 0 0-.15-.07l-1.19.12 2.7-.3Z" fill="#611B3B"/><path d="m33.87 16.73 1.2-.12c.05 0 .1.02.14.07.04.06.04.11.02.17l-.1.22c-.03.1-.1.12-.19.09l-.12-.08c-.13-.33-.23-.31-.29.04 0 .04.02.15.09.35.02.08.08.13.16.14.22.02.36.14.43.36.02.06.06.1.12.1.07.01.11-.01.14-.07.03-.06.04-.16.02-.3a.27.27 0 0 0-.06-.22 1.5 1.5 0 0 0-.04-.67c-.04-.13 0-.2.14-.19 2.08.1 3.92.77 5.53 2.02.1.08.09.12-.03.14-.48.07-.75.42-.82 1.05a5.84 5.84 0 0 0-3.79-1.58c-.21-.1-.45-.11-.72-.06-.26.06-.5.09-.69.09-.39 0-.74.1-1.05.28-.24-.02-.46.02-.66.12-.1.06-.27.12-.49.18l-.33.12-1.56.92a9.54 9.54 0 0 0-1.99 2.03.37.37 0 0 1-.2.13c-.24.05-.58.08-1.02.09-.27 0-.55-.16-.85-.49l-.98-1.13c-.07-.08-.05-.14.03-.19.35-.2.6-.47.76-.82.06-.13.02-.17-.1-.1-.34.15-.61.46-.83.91-.02.05-.05.06-.09.02a1.9 1.9 0 0 0-.66-.46 5.44 5.44 0 0 0-1.53-.98c-.07-.07-.18-.08-.32-.02-.28-.26-.53-.4-.74-.42a29.5 29.5 0 0 1-1.38-.19 5.09 5.09 0 0 0-1.38-.07 7.76 7.76 0 0 0-3.57 1.38c-.06.04-.13.04-.2-.01a2.9 2.9 0 0 1-.67-.78h-.02l-.06.02c-.05.01-.06.05-.03.1.07.1.1.19.12.27.01.1-.03.15-.13.13a.72.72 0 0 1-.33-.17c-.05-.04-.1-.04-.15 0l-.06.05c-.06.05-.07.11-.02.17l.6.78c.1.12.08.2-.06.23l-.15.01a.33.33 0 0 1-.26-.1l-.52-.56c-.1-.1-.17-.08-.24.04l-.2.37c-.05.1-.04.18.06.25.07.05.14.13.2.23.04.04.08.06.12.06.05 0 .09-.02.11-.07.1-.17.21-.24.33-.22.1.02.1.07.03.13a.54.54 0 0 1-.21.12c-.07.02-.1.06-.1.13-.02.07 0 .12.06.15l.16.1c.06.04.06.07-.02.09a.52.52 0 0 1-.5-.13c-.12-.11-.17-.1-.16.01 0 .06.02.1.06.14.08.07.08.15 0 .21-.14.12-.3.09-.5-.07-.1-.08-.12-.18-.05-.28.07-.1.2-.14.41-.12.07.02.1-.02.1-.1-.01-.04-.04-.07-.09-.1a.57.57 0 0 0-.29-.09c-.2-.01-.3-.07-.26-.18a9.88 9.88 0 0 1 6.77-3.77 9.9 9.9 0 0 1 1.41-.02c.56.07 1.25.24 2.07.52.68.22 1.32.53 1.9.92 1 .66 1.87 1.48 2.6 2.45.07.07.12.07.18 0a9.78 9.78 0 0 1 5.8-3.77Z" fill="#FFF500"/><path d="M21.16 16.67c.42.45.47.9.16 1.35a.32.32 0 0 1-.25.14.3.3 0 0 1-.26-.1c-.2-.23-.34-.44-.4-.63a.27.27 0 0 1 .02-.26c.14-.2.3-.38.52-.52.08-.06.15-.05.21.02ZM22.85 17.67c0 .03-.02.05-.03.07l-.38.46a.3.3 0 0 1-.28.1.31.31 0 0 1-.25-.15 9.1 9.1 0 0 1-.3-.6l.04-.1.37-.44a.3.3 0 0 1 .27-.1c.11 0 .2.06.25.15a6.6 6.6 0 0 1 .3.61Z" fill="#930E4F"/><path d="M34.08 17.67c-.18 0-.24-.26-.19-.76.34 0 .4.26.19.76Z" fill="#741353"/><path d="M33.9 16.91c-.06.5 0 .75.17.76-.1.04-.16.1-.17.15-.02.1.02.12.1.08.23-.1.44-.17.63-.19.1 0 .16.04.17.14l.02.12c.01.1-.02.14-.11.12-.16-.03-.43.04-.82.2-.14.06-.22.02-.23-.14l-.02-.11c0-.1-.06-.14-.15-.1-.11.05-.23.23-.37.56 0 .02-.02.03-.04.03a1.2 1.2 0 0 0-1 .45c-.05.07-.11.07-.17 0a.5.5 0 0 0-.25-.2c-.1-.03-.16 0-.21.08-.05.09-.05.2 0 .34a.2.2 0 0 1-.03.21c-.1.11-.24.14-.42.1a1.3 1.3 0 0 0-.48-.06c-.15-.16-.28-.19-.38-.1l-.13-.07.13-.05c.06.03.12.05.17.05.1-.01.13-.06.13-.15-.02-.56.23-.85.74-.88.07 0 .12-.04.15-.1l.08-.14c.07-.13.14-.13.21 0l.27.49c.05.1.13.12.23.06l.3-.18c.11-.07.12-.16.03-.26-.08-.1-.13-.25-.15-.46a.2.2 0 0 1 .1-.2l.37-.23c.16-.1.29-.06.38.12.12.23.25.36.38.38.04 0 .06-.01.07-.05v-.07l-.01-.02a.38.38 0 0 1-.15-.06.13.13 0 0 1-.06-.1c-.01-.16.16-.34.51-.52Z" fill="#930E4F"/><path d="M20.77 17.25c-.1.15-.1.33-.01.4.09.06.24 0 .34-.16.1-.15.1-.33.02-.4-.1-.06-.25 0-.35.16Z" fill="#FFF500"/><path d="M24.77 18.32c-.2.17-.14.47.18.88.13.07.24.18.33.32.05.07.12.09.2.04.16-.1.3-.29.44-.58.04-.1.1-.11.17-.03l.07.07c.03.03.04.06.03.1-.07.3-.28.54-.62.7a.21.21 0 0 1-.2 0c-.45-.24-.73-.5-.8-.78-.04-.11-.1-.15-.21-.11-.3.1-.53.03-.66-.24-.04-.08-.1-.1-.18-.08-.23.09-.47-.01-.73-.3-.05-.05-.06-.11-.03-.18l.4-.83c.07-.14.12-.13.15.01.04.18 0 .37-.13.59a.23.23 0 0 0 0 .25c.08.13.2.22.39.28.08.03.13 0 .16-.08.09-.28.23-.5.44-.68.06-.05.13-.05.2 0 .23.2.36.42.4.65Z" fill="#930E4F"/><path d="M22.3 17.86c.17-.07.26-.24.2-.37-.05-.13-.22-.18-.38-.1-.17.06-.26.23-.2.36.05.13.22.18.38.1Z" fill="#FFF500"/><path d="M35.49 17.7c-.07-.06-.09-.13-.06-.22.05.07.07.14.06.22Z" fill="#DD3328"/><path d="M32.77 18.08c.14.13.32.15.4.06.08-.1.03-.29-.11-.42-.14-.12-.32-.15-.4-.05-.09.1-.04.28.1.41ZM24.46 18.17c.1.14.08.24-.07.33-.26.14-.4.18-.46.12-.05-.07.03-.21.22-.45.1-.13.21-.13.31 0Z" fill="#FFF500"/><path d="M23.14 18.89c.1.04.2.05.32.02.6.27 1.11.6 1.53.98.18.37.45.73.8 1.08a7.2 7.2 0 0 0-4.65-2.27 7.4 7.4 0 0 0-6.16 2.5 10.14 10.14 0 0 0-2.63 6.5 4.24 4.24 0 0 1 .41-3.23l-.01-.07c-.02-.07-.05-.08-.1-.02l-.15.25-.09-.06c.17-.16.24-.34.22-.53.16.04.21-.11.15-.46.06.07.1.1.14.07.21-.17.32-.4.32-.71l.03-.09c.04 0 .09-.02.13-.04a.26.26 0 0 0 .1-.1c.24-.41.52-.8.82-1.19.03-.04.02-.07-.02-.1l-.07-.03c-.03 0-.05 0-.07.02l-.9 1.32-.88-.62c-.03-.02-.04-.05-.02-.09l.03-.07c.01-.03.03-.04.06-.02.25.14.4.25.45.32.04.05.08.06.13.02l.6-.46c.08-.07.07-.12-.01-.15-.35-.14-.6-.32-.74-.54.1-.28.28-.46.53-.54.1 0 .2.04.3.09.04.03.06.06.07.1.01.08-.02.12-.1.1-.2-.02-.33.01-.4.12-.07.1-.06.2.04.28.2.16.37.19.5.07.09-.06.1-.14.01-.2a.21.21 0 0 1-.06-.15c-.01-.12.04-.12.16-.01.15.13.31.17.5.13.08-.02.08-.05.01-.1l-.15-.09a.15.15 0 0 1-.07-.15c0-.07.04-.11.1-.13a.54.54 0 0 0 .22-.12c.07-.06.06-.1-.03-.13-.12-.02-.23.05-.33.22a.13.13 0 0 1-.1.07.13.13 0 0 1-.12-.06.88.88 0 0 0-.21-.23c-.1-.07-.11-.15-.06-.25l.2-.37c.07-.12.15-.13.24-.04l.52.55c.07.08.16.11.26.11l.15-.01c.14-.03.16-.1.07-.23l-.61-.78c-.05-.06-.04-.12.02-.17l.06-.05c.05-.04.1-.04.15 0 .12.1.23.15.33.17.1.02.14-.03.13-.13a.68.68 0 0 0-.12-.28c-.03-.04-.02-.08.03-.1l.06-.01h.02c.19.3.4.57.67.78.07.05.14.05.2 0a7.76 7.76 0 0 1 3.57-1.37c.34-.05.8-.02 1.38.07l1.38.2c.21.02.46.15.74.4Z" fill="#930E4F"/><path d="m36.42 18.25 3.23 1.42c.19.08.4.25.62.5.12.13.4.4.86.77.41.35.89 1.02 1.43 2.01l.7 1.34c.02.02.03.04.06.05a.5.5 0 0 0 .1.04l.01.13c.03.09.08.1.16.04l.37-.3c.13-.02.2.1.19.33a.85.85 0 0 0-.4.23.27.27 0 0 0-.06.23l.37 2.32c-.14.75-.24 1.5-.31 2.24-.03.33-.18.72-.45 1.2.58-2.37.4-4.66-.56-6.9a8.86 8.86 0 0 0-2.97-3.75 7.15 7.15 0 0 0-5.96-1.27c.12-.13.17-.23.15-.32.31-.18.66-.27 1.05-.28.2 0 .43-.03.69-.09.27-.05.5-.03.72.06Z" fill="#741353"/><path d="M24.98 18.98c-.2-.1-.2-.28-.02-.54l.26-.18c.09-.06.15-.04.2.05.06.14.17.24.31.3.03.01.05.04.05.08 0 .03 0 .06-.03.08a.62.62 0 0 0-.26.4c-.03.1-.07.1-.13.03a1.26 1.26 0 0 0-.38-.22Z" fill="#930E4F"/><path d="m40.21 19.83.58.38c.05.14.16.24.31.3.2.29.39.46.58.52.03 0 .05.05.04.12l.54.73c.03.04.06.04.1 0l.04-.06v.12l-.05.05c-.02.02-.02.04 0 .07l.44.64c0 .09.02.18.1.29l.34.66c.07.14.12.13.15-.02l.03-.17v.16c-.01.1.04.15.13.16.3 0 .63-.1.98-.28l.06.15a.7.7 0 0 0-.3.53c-.01.08.02.11.1.08l.37-.15.03.2-.63.27c0-.23-.06-.35-.2-.33.1-.15.08-.25-.04-.28-.26-.09-.43.05-.48.4a.5.5 0 0 1-.1-.03.13.13 0 0 1-.06-.05l-.71-1.34a7.28 7.28 0 0 0-1.43-2.01c-.45-.38-.74-.64-.86-.78a1.96 1.96 0 0 0-.62-.5l-3.23-1.41c1.45.06 2.71.59 3.8 1.58Z" fill="#EB2B55"/><path d="M24.77 18.32c.05.06.11.1.2.12-.2.26-.2.44.01.54-.03.07-.04.15-.03.22-.32-.41-.38-.7-.18-.88Z" fill="#DD3328"/><path d="M25.23 18.6a.07.07 0 0 1 .07-.03c.03 0 .05.02.06.06.02.07 0 .14-.07.2-.03.03-.05.03-.08.02a.07.07 0 0 1-.05-.07.3.3 0 0 1 .07-.19ZM30.9 19.12c.18.07.35.02.4-.12.06-.13-.03-.3-.2-.38-.16-.07-.34-.02-.4.12-.05.13.04.3.2.38Z" fill="#FFF500"/><path d="M33.96 18.56c.02.09-.03.2-.14.32a8.15 8.15 0 0 0-4.84 3.65.22.22 0 0 1-.2.11h-1.52a.26.26 0 0 1-.21-.1l-1.26-1.57c-.35-.35-.62-.7-.8-1.08.26.11.48.27.66.46.04.04.07.03.1-.02.2-.45.48-.76.82-.92.13-.06.16-.02.1.11-.15.35-.4.63-.76.82-.08.05-.1.11-.03.19l.98 1.13c.3.33.58.49.86.49.43-.01.77-.04 1-.1a.37.37 0 0 0 .22-.12 9.54 9.54 0 0 1 1.99-2.03l1.55-.92.33-.12c.22-.06.39-.12.5-.18.2-.1.41-.14.65-.12Z" fill="#A31A97"/><path d="m25.79 20.97 1.25 1.57c.06.07.13.1.22.1h1.52c.09 0 .15-.03.2-.1a8.15 8.15 0 0 1 4.84-3.66 7.15 7.15 0 0 1 5.96 1.27c1.31.96 2.3 2.2 2.96 3.75.96 2.24 1.15 4.53.56 6.9a8.93 8.93 0 0 1-3.17 4.94 6.89 6.89 0 0 1-5.4 1.48 7.3 7.3 0 0 1-3.18-1.27 9.23 9.23 0 0 1-2.52-2.65.42.42 0 0 0-.37-.2h-1.29c-.2 0-.35.08-.46.26a8.82 8.82 0 0 1-2.4 2.54c-1 .7-2.05 1.14-3.17 1.3a6.87 6.87 0 0 1-5.62-1.55c-2.33-1.93-3.45-4.58-3.37-7.96.15-2.6 1.03-4.76 2.63-6.49a7.4 7.4 0 0 1 6.16-2.5 7.2 7.2 0 0 1 4.64 2.27Z" fill="#FFF500"/><path d="m30.14 19.23-.13.05c-.26 0-.35.08-.3.23.1.22.22.32.38.29.08-.02.12-.07.1-.15l-.05-.3c.1-.09.23-.06.38.1.1.28.02.5-.25.65-.18.1-.32.13-.42.06-.27-.17-.4-.38-.35-.64.03-.24.17-.44.43-.62.08-.06.14-.04.2.04.03.07.04.16 0 .29Z" fill="#A31A97"/><path d="M41.71 21.15c.02-.07 0-.11-.04-.12.34-.2.58-.44.72-.74a.18.18 0 0 0-.03-.22 1.62 1.62 0 0 0-.44-.34c-.08-.04-.15-.03-.22.03a2.6 2.6 0 0 0-.6.74.47.47 0 0 1-.31-.3l.7-.73c.06-.06.06-.12.02-.19-.06-.11-.14-.2-.24-.28-.13-.1-.11-.13.04-.08.15.06.32.17.49.34a51 51 0 0 1 1 1.09c.04.04.05.1.04.16a.17.17 0 0 1-.1.13c-.2.1-.39.24-.56.44a.25.25 0 0 1-.22.1l-.25-.03Z" fill="#FFF500"/><path d="M40.66 19.27c-.1.14-.12.31-.03.4.1.08.26.03.37-.11.1-.14.12-.32.03-.4-.1-.08-.26-.03-.37.1ZM15.29 19.99c.16.12.34.15.4.07.05-.09-.03-.25-.2-.38-.15-.12-.33-.15-.39-.07-.06.09.03.26.19.38Z" fill="#FFF500"/><path d="M41.68 21.03c-.2-.06-.38-.23-.58-.53.15-.28.35-.53.6-.74.07-.06.14-.07.22-.03.16.08.3.2.44.34.06.06.07.14.03.22-.14.3-.38.55-.71.74Z" fill="#741353"/><path d="M41.82 20.63a.3.3 0 0 0 .28-.3.3.3 0 0 0-.28-.3.3.3 0 0 0-.29.3c0 .16.13.3.29.3Z" fill="#FFF500"/><path d="M13.98 20.22c.02-.11.06-.13.14-.05.04.04.05.1.03.18-.02.06-.06.08-.11.06-.06-.02-.08-.09-.06-.2ZM13.15 20.4c-.04.1.05.17.26.18-.25.08-.42.26-.53.54a.28.28 0 0 0-.13-.1l.4-.62Z" fill="#DD3328"/><path d="M43.45 21.32c-.28.18-.55.38-.8.6a.18.18 0 0 1-.12.05l-.13-.03v-.12c.11-.17.1-.31-.05-.43-.06-.05-.06-.1 0-.16l.49-.52c.11-.12.21-.1.3.04l.31.57ZM12.76 21.02c.05.03.1.06.12.1.14.22.39.4.74.54.09.03.09.08.01.15l-.6.46c-.05.04-.09.03-.13-.02a1.6 1.6 0 0 0-.45-.32c-.03-.02-.04-.01-.06.02l-.03.07c-.01.04 0 .07.03.09l.87.62v.12l-.02.09-.11.08c-.08-.1-.15-.2-.23-.28a.13.13 0 0 0-.08-.05h-.1c-.05.04-.07.09-.05.16.03.1.03.17.02.23-.05.13-.13.21-.26.23-.13.03-.22-.02-.28-.13a.35.35 0 0 1 0-.38.2.2 0 0 1 .23-.1h.15c.13-.02.15-.08.05-.17-.14-.13-.36-.16-.68-.07.03-.27.13-.45.3-.53.06-.04.1-.1.11-.18.04-.27.18-.52.45-.73Z" fill="#FFF500"/><path d="M18.98 21.3c-.08.5.08.82.5.97.2.2.4.4.62.58.26.22.5.42.69.6.67.64 1.37 1.25 2.09 1.84.43.35.98.66 1.65.95l2.02.89c-.29.3-.65.54-1.1.72a.35.35 0 0 1-.23.01l-.11-.03a1.7 1.7 0 0 1-.62-.25 5.34 5.34 0 0 0-.77-.5 3.63 3.63 0 0 1-.68-.63c-.32-.35-.69-.61-1.1-.77-.08-.3-.26-.52-.54-.66a.64.64 0 0 1-.2-.16 1.57 1.57 0 0 0-.56-.42.6.6 0 0 1-.2-.14l-.85-.88c-.05-.23-.16-.38-.31-.43-.03-.16-.15-.22-.36-.17-.2.05-.37.2-.52.44-.42.7-.85 1.29-1.28 1.77-.16.17-.31.4-.46.7l-.37.76c-.13.29-.36.6-.7.95l-.83.85c-.2-.02-.32-.11-.36-.28-.02-.1 0-.16.09-.2.44-.18.77-.43 1-.75a68.45 68.45 0 0 0 2.6-4.15c.18-.34.26-.84.24-1.5 0-.1.04-.15.12-.18a.73.73 0 0 1 .53.07Z" fill="#DD3328"/><path d="M19.48 22.27c-.42-.15-.58-.47-.5-.97.34.2.51.52.5.97Z" fill="#E8AE75"/><path d="m43.83 21.94-.48.6a.31.31 0 0 1-.2.11l-.36.05-.44-.64c-.02-.03-.02-.05 0-.07l.05-.05.13.03c.04 0 .08-.02.12-.05.25-.22.52-.42.8-.6l.38.62Z" fill="#930E4F"/><path d="M13.27 22.85v-.12l.9-1.32c.01-.02.03-.03.06-.02l.07.04c.04.02.05.05.02.1-.3.37-.58.77-.82 1.18a.26.26 0 0 1-.1.1.43.43 0 0 1-.13.04Z" fill="#DD3328"/><path d="m43.04 21.88.2-.02c.15 0 .2.07.15.22-.07.22-.17.31-.31.26-.34-.1-.35-.26-.04-.46Z" fill="#FFF500"/><path d="M43.83 21.94c.16.14.24.27.23.39 0 .09-.1.16-.25.24-.24.1-.42.24-.56.41l-.36.01c-.08-.1-.1-.2-.1-.29l.35-.05a.31.31 0 0 0 .2-.12l.49-.6Z" fill="#FFF500"/><path d="m11.78 21.99-.08.55c-.02.1.02.13.1.1.09-.04.12-.1.1-.18.32-.09.54-.06.68.07.1.09.08.15-.05.17a.33.33 0 0 1-.15 0 .2.2 0 0 0-.22.1.35.35 0 0 0-.01.38c.06.11.15.16.28.13.13-.02.21-.1.26-.23a.42.42 0 0 0-.02-.23c-.02-.07 0-.12.06-.15a.17.17 0 0 1 .1-.01c.02 0 .05.02.07.05.08.08.15.17.23.28-.03.18-.15.36-.35.56a.6.6 0 0 0-.4 0 .15.15 0 0 1-.17-.05l-.42-.45a.16.16 0 0 0-.15-.05.16.16 0 0 0-.13.1l-.12.3c-.04.1 0 .16.1.14.43-.05.81.1 1.14.47.02.19-.05.37-.21.53-.42.24-.76.14-1.03-.3-.11-.2-.2-.18-.27.04-.7 2.24-.8 4.55-.27 6.93 0 .03.03.05.07.04l1.23-.41c.04-.02.06-.05.05-.1a10.7 10.7 0 0 1-.02-5.3c.07-.29.18-.57.32-.84l.16-.25c.04-.06.07-.05.09.02l.01.07a4.24 4.24 0 0 0-.42 3.22c-.07 3.38 1.05 6.03 3.38 7.96a6.87 6.87 0 0 0 5.62 1.55 7.24 7.24 0 0 0 3.17-1.3 8.82 8.82 0 0 0 2.4-2.54.52.52 0 0 1 .46-.26h1.3c.15 0 .28.07.36.2a9.23 9.23 0 0 0 2.52 2.65 7.3 7.3 0 0 0 3.17 1.26c1.98.29 3.78-.2 5.41-1.47a8.93 8.93 0 0 0 3.17-4.94c.27-.48.42-.87.45-1.2.07-.74.17-1.49.3-2.24a7.4 7.4 0 0 1-.16 3.09l-.7 1.96a.48.48 0 0 0-.13.22l-.65 1.28a.47.47 0 0 1-.15.18.94.94 0 0 0-.23.23 7.4 7.4 0 0 1-10.13 2.24 10.12 10.12 0 0 1-3-2.85.35.35 0 0 0-.2-.14 2.44 2.44 0 0 0-1.43.03.39.39 0 0 0-.2.14c-.5.67-.93 1.18-1.29 1.52a8.42 8.42 0 0 1-3.84 2.2c-1.48.37-2.92.3-4.31-.23a7.56 7.56 0 0 1-3.1-2.13c-.26-.31-.43-.5-.51-.57-.12-.1-.18-.2-.19-.27-.02-.18-.1-.3-.22-.37a.39.39 0 0 1-.17-.17l-.52-.95c-.05-.09-.12-.12-.21-.08-.08.02-.16.1-.22.23-.05.1-.03.16.08.18l.12.03c.17.04.3.09.37.15.11.1.17.22.17.38 0 .08-.02.13-.07.16l-.77.48a.18.18 0 0 1-.2 0 .17.17 0 0 1-.1-.16c.01-.06-.04-.17-.14-.34a.24.24 0 0 1-.03-.23c.08-.18.2-.34.4-.48.03-.02.02-.04 0-.06l-.1-.03h-.03c-.22.2-.46.24-.7.12l-.67-.36a13.75 13.75 0 0 1-.77-5.85c.19-.2.3-.46.34-.8.04-.42.09-.7.13-.84l.28-1c.13-.44.27-.83.43-1.17.17-.37.36-.74.55-1.11Z" fill="#BD0D51"/><path d="M38.22 25.73c-.35-.18-.55-.38-.62-.62l1.06-.94c.27-.05.45-.19.57-.43.03-.07.02-.14-.04-.19a.95.95 0 0 1-.22-.29.27.27 0 0 0-.23-.16c-.07 0-.13 0-.18.03-.13.06-.13.11-.01.16a3.05 3.05 0 0 0-1.23.32c-1.03.44-1.87 1-2.52 1.66a8.07 8.07 0 0 0-2.3 3.95c-.2.83.04 1.47.74 1.9.83.52 1.66.48 2.48-.13.24.03.48-.12.72-.45a.27.27 0 0 1 .12-.1l.16-.05a.3.3 0 0 0 .19-.11c.67-.83.98-1.83.94-2.98l1.28-.64a.41.41 0 0 1 .4 0c.36.2.5.6.43 1.23-.06.55-.43 2.07-1.09 4.57-.1.4-.24.63-.39.68l-.04-.43c.04-.08.05-.15 0-.2-.05-.1-.12-.1-.2-.06-.06.03-.08.1-.07.2l-.18.06c-.13-.08-.22-.1-.25-.08a.72.72 0 0 1-.13-.49c0-.14-.02-.24-.06-.3-.07-.07-.18-.1-.31-.1-.92.55-1.54.9-1.86 1.03-1 .4-2.04.56-3.13.46a4.3 4.3 0 0 1-1.27-.76c-.17-.16-.35-.4-.55-.74a9.8 9.8 0 0 0-.5-.78 3.7 3.7 0 0 1 .11-1.96c1.3-4 3.97-6.29 8.03-6.87 1.37-.2 2.21.03 2.53.68.2.43.02.9-.55 1.44-.6.56-1.2 1.05-1.83 1.49Z" fill="#DD3328"/><path d="M19.28 22.99c-.38.03-.66.21-.85.55-.28.5-.59.94-.9 1.32-.26.3-.44.54-.56.76l-.45.83c-.35.8-.92 1.42-1.7 1.87.05.04.03.03-.06-.03l.83-.85c.34-.35.57-.66.7-.95l.37-.76c.15-.3.3-.53.46-.7.43-.48.86-1.07 1.28-1.77.15-.24.32-.39.52-.44.2-.05.33 0 .36.17Z" fill="#E8AE75"/><path d="M13.24 22.94c0 .3-.1.54-.32.7-.03.03-.07.01-.13-.06.2-.2.3-.38.34-.56l.1-.08Z" fill="#DD3328"/><path d="M12.79 23.58c.05.35 0 .5-.16.46-.33-.36-.7-.52-1.13-.47-.12.02-.15-.03-.1-.14l.11-.3c.03-.05.07-.08.13-.1.05 0 .1.01.15.05l.42.45c.05.05.1.06.16.05a.6.6 0 0 1 .42 0Z" fill="#FFF500"/><path d="M19.28 22.99c.15.05.26.2.31.44a1.03 1.03 0 0 0-.48 0 .31.31 0 0 0-.2.15c-.36.65-.76 1.22-1.2 1.72-.18.2-.36.46-.54.8-.22.4-.38.68-.46.86-.13.26-.34.54-.63.84-.36.36-.62.6-.78.72-.14.1-.3.04-.48-.2a3.98 3.98 0 0 0 1.7-1.87l.45-.83c.12-.22.3-.47.55-.76.33-.38.63-.82.91-1.32.2-.34.48-.52.85-.55Z" fill="#330417"/><path d="m42.88 22.99.37-.01.11.22.05.26-.03.17c-.03.15-.08.16-.15.02l-.35-.66Z" fill="#741353"/><path d="m43.36 23.2-.1-.22c.19-.03.29.02.3.15 0 .1-.07.12-.2.07Z" fill="#DD3328"/><path d="M38.66 24.17a.41.41 0 0 0 .02-.21c.13.12.25.01.36-.3.06-.2-.04-.31-.32-.36a.33.33 0 0 1-.17-.01c-.12-.05-.12-.1.01-.16.05-.03.11-.04.18-.03.1 0 .18.06.23.16.06.11.13.2.22.3.06.04.07.1.04.18a.73.73 0 0 1-.57.43Z" fill="#E8AE75"/><path d="M44.52 23.5c-.35.19-.68.28-.98.28-.1 0-.14-.06-.13-.16v-.16l.9-.27c.09-.03.14 0 .18.09.02.06.03.13.03.22Z" fill="#FFF500"/><path d="M38.72 23.3c.28.05.38.17.32.36-.11.31-.23.42-.36.3-.11-.44-.51-.5-1.2-.19-.5.23-1.4.73-2.68 1.5a7.86 7.86 0 0 1 2.52-1.67c.52-.23.99-.33 1.4-.3Z" fill="#4E444C"/><path d="M44.58 23.65c.16.12.22.28.17.46l-.37.15c-.08.03-.11 0-.1-.08a.7.7 0 0 1 .3-.53ZM11.96 24l.18.14c.04.03.05.07.05.12-.01.05-.04.09-.08.1-.14.06-.26.05-.36-.03-.1-.07-.16-.18-.17-.33 0-.05.02-.1.06-.12a.11.11 0 0 1 .12 0l.2.12ZM43.96 24.25l-.37.3c-.08.06-.13.05-.16-.05a.3.3 0 0 1 0-.12c.05-.36.22-.5.48-.41.12.03.13.13.05.28Z" fill="#FFF500"/><path d="m12.41 24.57.09.06c-.14.27-.25.55-.32.85a10.7 10.7 0 0 0 .02 5.3c0 .04 0 .07-.05.09l-1.23.4c-.04.02-.06 0-.07-.03-.53-2.38-.44-4.7.27-6.93.06-.22.16-.23.27-.04.27.44.6.54 1.02.3ZM44.78 24.3c.05 0 .09.02.1.08.44 1.49.64 3.02.6 4.6l-.34 2.32a.1.1 0 0 1-.08.1c-.05 0-.08-.01-.11-.05-.36-.46-.76-.5-1.19-.12-.17.15-.16.38.01.7.07.13.04.21-.08.27l-.5.2.7-1.95c.25-.7.3-1.74.17-3.1l-.37-2.31a.27.27 0 0 1 .07-.23c.08-.1.21-.17.39-.23l.63-.27Z" fill="#FFF500"/><path d="M37.6 25.11c.07.24.27.44.62.62-.38.18-.67.14-.87-.15a.26.26 0 0 1-.04-.24c.04-.13.13-.2.29-.23Z" fill="#330417"/><path d="m20.52 26.04-.1.1c0-.11-.05-.14-.13-.09-.42.26-.56.65-.43 1.18.02.08.01.16-.04.22l-.7 1.05a.43.43 0 0 0-.07.23c0 .32 0 .62.04.9.04.29.2.52.47.7.08.06.12.04.13-.06a.3.3 0 0 0-.03-.13l.07-.08c.03.03.07.04.12.04.07-.02.11-.06.11-.14v-.8c0-.12.05-.21.16-.28.1-.06.2-.07.31 0l.94.53c-.06.1-.13.19-.21.27.02-.03 0-.05-.03-.08-.05-.03-.09-.02-.12.02-.44.5-.73 1.1-.88 1.78 0 .04 0 .08.04.1l.06.03.13.07a.19.19 0 0 0-.04.06c-.02.05 0 .08.04.08l1.3.17c.1.26.27.45.48.6a.52.52 0 0 1-.15.44c-.14.15-.24.3-.3.47-.9-.11-1.57-.17-1.97-.17-.07 0-.17.02-.31.06-.17.05-.3.07-.4.07-.4 0-.8.07-1.23.21-.57.2-1.07.06-1.5-.4-.08-.1-.1-.22-.02-.35.07-.13.19-.2.34-.21.49-.04.9-.11 1.23-.22.43-.14.59-.47.47-1-.02-.08-.07-.13-.15-.14a6.04 6.04 0 0 0-.75-.05c-.4 0-.7-.16-.9-.46a.35.35 0 0 1 0-.42c.08-.14.2-.19.36-.15.27.07.52.16.75.27.21.1.41.13.6.06.2-.07.33-.22.4-.45.07-.18 0-.32-.2-.42-.04-.16-.16-.23-.36-.23-.16-.1-.29-.1-.38-.03-.05.04-.06.08-.05.12.02.05.07.07.16.07-.13-.01-.2.04-.2.16-.1 0-.19-.01-.24-.03-.08-.04-.1-.1-.05-.18l.56-1.03c.08-.14.05-.24-.08-.33l-.6-.4c-.55-.36-.5-.6.12-.7.6-.11 1.02-.59 1.28-1.43a.48.48 0 0 1 .3-.33c.16-.06.31-.04.45.06a2 2 0 0 0 .67.33c.2.06.38.17.53.34Z" fill="#DD3328"/><path d="M26.55 27.13c.12.05.18.14.2.25.02.1-.02.17-.1.2l-1.03.48c-.26.13-.57.09-.92-.13-.4-.26-.82-.5-1.23-.75a9.38 9.38 0 0 1-1.52-1.5c.4.16.77.42 1.1.77.31.35.54.56.67.63.33.19.59.35.77.5.12.1.32.18.62.25l.1.03c.09.03.17.02.24-.01.45-.18.81-.42 1.1-.72Z" fill="#4E444C"/><path d="m19.73 30.06-.07.08a.72.72 0 0 1-.4-.57 6.86 6.86 0 0 1-.01-.59c0-.26.13-.56.4-.92.31-.43.44-.82.38-1.18a.4.4 0 0 1 .04-.25c.09-.19.2-.35.35-.5l.1-.1c.13-.02.18.07.14.27a.45.45 0 0 1-.13.24.8.8 0 0 0-.2.82c.02.1.01.18-.03.26-.09.19-.24.41-.47.68-.16.2-.25.43-.27.7-.03.37.02.73.17 1.06Z" fill="#330417"/><path d="M45.93 26.6c.29 2.99-.3 5.71-1.74 8.18l-1.66 1.66 1.58-2.34c.05-.08.03-.13-.05-.16-.26-.1-.48-.24-.67-.43-.07-.08-.14-.07-.2.02-.05.07-.14.15-.28.24-.08.04-.14.03-.2-.03l-.05-.05c-.03-.03-.03-.06 0-.09l.6-.52c.06-.05.08-.12.06-.2-.02-.12-.11-.2-.26-.25.02-.1.07-.17.12-.22l.5-.21c.13-.06.16-.14.1-.26-.18-.33-.19-.56-.02-.7.43-.39.83-.35 1.19.11.03.04.07.05.11.04a.1.1 0 0 0 .08-.1l.33-2.31.13-3.03c.06.36.17.58.33.65Z" fill="#930E4F"/><path d="M20.42 26.14c-.14.14-.26.3-.35.49a.4.4 0 0 0-.04.25c.06.36-.07.75-.39 1.18-.26.36-.4.66-.4.92l.03.6c.04.26.17.45.4.56l.02.13c0 .1-.05.12-.12.07a.97.97 0 0 1-.48-.7 6.2 6.2 0 0 1-.03-.91c0-.09.02-.16.07-.23l.7-1.05a.25.25 0 0 0 .03-.22c-.13-.53 0-.92.43-1.18.08-.05.13-.02.13.09Z" fill="#E8AE75"/><path d="M37.7 27.3c0 1.15-.3 2.04-.87 2.65.35-.78.55-1.6.57-2.43.01-.15.11-.22.3-.22Z" fill="#330417"/><path d="M37.86 27.3a4.35 4.35 0 0 1-.95 2.98.3.3 0 0 1-.2.11l-.15.05a.27.27 0 0 0-.12.1c-.23.33-.48.48-.72.45l1.1-1.04c.59-.61.88-1.5.89-2.65.03.03.08.03.15 0ZM18.05 29.42a.46.46 0 0 1-.27.16c-.09 0-.14-.02-.16-.07-.01-.04 0-.08.05-.12.1-.08.22-.06.38.03Z" fill="#EB2B55"/><path d="M18.42 29.65c-.15.05-.28.12-.4.21-.1.07-.18.1-.24.08-.08-.02-.15-.09-.2-.2 0-.12.07-.17.2-.16.12-.03.2-.08.27-.16.2 0 .32.07.37.23Z" fill="#611B3B"/><path d="m20.36 31.6-.13-.07a6.38 6.38 0 0 1 1.14-2.12c.07 0 .12 0 .15.03.1.08.11.18.02.28a3.82 3.82 0 0 0-.96 1.73.25.25 0 0 1-.06.13c-.05.04-.1.05-.16.02Z" fill="#330417"/><path d="M21.16 29.68c-.4.54-.7 1.16-.93 1.85a1.47 1.47 0 0 1-.06-.03c-.03-.02-.05-.06-.04-.1.15-.68.45-1.28.88-1.78.03-.04.07-.05.12-.02.04.03.05.05.03.08Z" fill="#E8AE75"/><path d="M32.25 33.23c-1.24-.14-2.02-.9-2.33-2.28.19.26.36.52.51.78.2.34.38.58.55.74.37.32.8.57 1.27.76Z" fill="#4E444C"/><path d="M12.21 31.1c.08-.08.13-.07.16.05.05.25-.06.42-.33.5-.14.04-.18 0-.13-.15.05-.13.15-.27.3-.4ZM44.25 31.68c.17.15.36.21.42.14.06-.08-.03-.27-.2-.42-.17-.15-.36-.22-.42-.14-.06.07.03.26.2.42ZM11.48 31.61a.86.86 0 0 1-.3.34c-.09.05-.16.03-.2-.08a.54.54 0 0 1-.02-.11c-.02-.1.02-.17.1-.2.13-.07.24-.1.33-.11a.1.1 0 0 1 .09.05.1.1 0 0 1 0 .11ZM12.39 31.86c0 .08.06.15.12.15.07 0 .12-.08.12-.17 0-.09-.06-.15-.13-.15s-.12.08-.11.17Z" fill="#FFF500"/><path d="M37.74 32.63c-.05.18-.17.22-.35.12a.21.21 0 0 1-.12-.19l-.03-.83c.13 0 .24.04.3.12.05.05.07.15.06.29 0 .2.04.36.14.49Z" fill="#330417"/><path d="M12.13 32.43c.09-.18.05-.23-.12-.16l-.54.23c-.09.04-.16.02-.2-.07l-.05-.08c-.05-.09-.02-.15.08-.18l.88-.3c.11-.03.15 0 .11.13a.3.3 0 0 1-.04.08c-.04.05-.04.1 0 .16.1.12.14.22.15.29 0 .1-.04.14-.1.15-.04 0-.07 0-.1-.02a.12.12 0 0 1-.04-.06c-.04-.1-.05-.15-.03-.17Z" fill="#FFF500"/><path d="M22.14 32.5a1.33 1.33 0 0 1-.49-.6c.35.04.51.24.5.6Z" fill="#4E444C"/><path d="m44.56 32.14.2-.1c.1-.04.15 0 .13.14-.02.13-.08.27-.17.41-.06.12-.14.12-.22.01l-.33-.45c-.09-.12-.06-.16.07-.12l.14.08c.07.04.13.05.18.03ZM44.23 32.9a.56.56 0 0 1-.45.13.7.7 0 0 1-.15-.3c-.05-.2 0-.34.15-.4.08-.03.15 0 .2.06.12.15.2.32.25.51Z" fill="#FFF500"/><path d="m38.44 32.7-.27-.06c-.01-.1.01-.16.07-.19.08-.05.15-.03.21.05.04.06.03.13-.01.2Z" fill="#E8AE75"/><path d="M21.7 33.42c.05-.16.15-.32.3-.47a.52.52 0 0 0 .14-.45c.24.1.3.27.17.49-.19.33-.4.47-.61.43Z" fill="#4E444C"/><path d="m38.17 32.64.27.07.04.43c-.36.15-.52 0-.49-.43l.18-.07Z" fill="#330417"/><path d="m42.53 36.44-.42.27a.4.4 0 0 0-.16.18.5.5 0 0 1-.3.3c-.1.02-.16 0-.2-.1l-.31-.7c-.03-.06-.12-.14-.28-.23a.38.38 0 0 0-.17-.06c-.12-.01-.15.04-.1.15.22.45.49.77.82.99.08.05.08.1 0 .16a9.29 9.29 0 0 1-4.99 2.07 8.5 8.5 0 0 1-4.58-.88 9.98 9.98 0 0 1-3.76-3.21c-.05-.08-.1-.08-.16 0a10.33 10.33 0 0 1-3.93 3.3c-1.51.7-3.1.96-4.74.75-2.44-.31-4.58-1.57-6.4-3.76-.2-.25-.19-.4.06-.47.2-.05.46-.27.8-.64.07-.06.07-.13.03-.2l-.3-.45c-.05-.08-.11-.09-.18 0l-.04.06c-.05.06-.05.12 0 .17.24.22.25.38.05.47-.26.1-.46.27-.6.5-.05.08-.1.07-.14 0l-1.04-1.99c.24.12.48.08.7-.12h.04l.08.03c.04.02.04.04 0 .06-.18.14-.31.3-.38.48a.24.24 0 0 0 .02.23c.1.17.15.28.15.34 0 .07.02.13.09.17.07.04.14.03.2 0l.77-.49c.05-.03.08-.08.07-.16a.5.5 0 0 0-.17-.38.86.86 0 0 0-.37-.15l-.12-.03c-.1-.02-.13-.09-.08-.18.07-.13.14-.2.22-.23.09-.04.16 0 .21.08l.52.95c.04.08.1.13.17.17.12.06.2.19.22.37.01.08.08.17.19.27.08.07.25.26.52.57a7.55 7.55 0 0 0 3.09 2.13c1.39.52 2.83.6 4.32.22a8.42 8.42 0 0 0 3.83-2.19c.36-.34.79-.85 1.3-1.52a.39.39 0 0 1 .2-.14c.48-.15.95-.16 1.42-.03.08.03.14.07.2.14a10.12 10.12 0 0 0 3 2.86 7.4 7.4 0 0 0 10.13-2.24c.06-.1.14-.18.23-.24.06-.05.11-.11.15-.18l.65-1.28c.15.05.24.13.26.24.02.09 0 .16-.06.21l-.6.52c-.02.03-.03.06 0 .09l.05.05c.06.06.12.07.2.03.14-.1.23-.17.28-.24.06-.1.13-.1.2-.02.19.19.4.33.67.43.08.03.1.08.05.16l-1.58 2.34Z" fill="#FFF500"/><path d="m11.49 33.12 1.04 1.98c.04.08.09.09.14.01.14-.23.34-.4.6-.5.2-.09.19-.25-.05-.47-.05-.05-.05-.1 0-.17l.04-.06c.06-.09.13-.08.18 0l.3.45c.04.07.04.14-.02.2-.35.37-.62.59-.81.64-.25.07-.27.22-.06.47 1.82 2.2 3.96 3.45 6.4 3.76 1.65.2 3.23-.04 4.74-.76a10.32 10.32 0 0 0 3.93-3.3c.05-.07.1-.07.16 0a9.98 9.98 0 0 0 3.76 3.22 8.5 8.5 0 0 0 4.58.88 9.29 9.29 0 0 0 5-2.07c.07-.06.07-.11-.01-.16-.33-.22-.6-.54-.82-.99-.05-.11-.02-.16.1-.15.06 0 .12.02.17.06.16.1.25.17.28.24l.31.7c.04.08.1.11.2.09a.5.5 0 0 0 .3-.3.4.4 0 0 1 .16-.18l.42-.27 1.66-1.66a9.99 9.99 0 0 1-6.6 5.02c-1.66.38-3.4.22-5.22-.47a10.52 10.52 0 0 1-4.3-3.25c-.05-.07-.1-.07-.16 0-1.83 2.23-4 3.5-6.51 3.82a8.94 8.94 0 0 1-7.25-2.26 11.71 11.71 0 0 1-3.33-4.88l.67.36Z" fill="#D00D42"/><path d="M11.73 32.74c.06-.06.1-.06.14-.03.01.02.02.04.01.06l-.02.07c-.03.06-.07.06-.13.02l-.03-.06a.1.1 0 0 1 .03-.06Z" fill="#E8AE75"/><path d="M44.37 33.11c-.1.12-.3.16-.6.12.02-.03.03-.1 0-.2.16.03.3-.01.46-.13l.14.21Z" fill="#EB2B55"/><path d="M43.77 33.23c.3.04.5 0 .6-.12a.2.2 0 0 1 .07 0c.05 0 .08.03.07.09a.85.85 0 0 1-.25.47c-.06.06-.13.06-.2.02a.57.57 0 0 1-.3-.46ZM12.65 33.8c.17-.13.26-.3.2-.4-.06-.09-.25-.07-.42.05-.17.12-.26.3-.2.39.06.1.25.07.42-.05Z" fill="#FFF500"/><path d="m42.47 34.23.07-.14c.04-.09.1-.11.2-.07.43.2.7.4.81.58.05.08.04.15-.02.22-.24.26-.43.4-.57.42-.08.02-.12.07-.12.16.02.24-.11.5-.39.76-.06.06-.11.06-.16 0-.25-.34-.5-.58-.78-.72-.08-.05-.1-.11-.03-.19.18-.23.4-.39.64-.48.08-.03.13-.09.13-.18v-.34c0-.08.03-.1.1-.08.03.01.06.03.08.06.02.02.03.02.04 0Z" fill="#930E4F"/><path d="M42.94 34.5c.07.07.13.13.17.2.04.1.02.15-.07.19a.32.32 0 0 1-.35-.05.36.36 0 0 1-.13-.35c0-.1.06-.13.15-.1.08.02.16.06.23.12Z" fill="#FFF500"/><path d="M14.44 35.24c.05.14.03.29-.05.44A.73.73 0 0 1 14 36a.67.67 0 0 1-.5.02.48.48 0 0 1-.3-.3.52.52 0 0 1 .05-.45.73.73 0 0 1 .38-.32.68.68 0 0 1 .49-.02c.16.06.26.16.31.3Z" fill="#BD0D51"/><path d="M14 35.67c.14-.14.19-.34.1-.45-.1-.11-.3-.09-.44.05-.15.14-.2.34-.1.45.09.11.28.09.43-.05ZM42.18 35.75a1.71 1.71 0 0 1-.3-.4c-.02-.08.01-.13.1-.15.08-.02.14.02.18.1.08.16.13.3.14.4 0 .03 0 .05-.04.07-.03.01-.06 0-.08-.02Z" fill="#FFF500"/><path d="m30.03 36.13-.55.27c-.02 0-.04 0-.06-.02a.22.22 0 0 1-.03-.08.09.09 0 0 1 .02-.1l.6-.62c.02-.03.06-.03.1-.02a.1.1 0 0 1 .05.1v.26c0 .1-.04.17-.13.21Z" fill="#A31A97"/><path d="M25.67 36c-.03.1 0 .26.07.47.03.08 0 .13-.08.13-.12.01-.24-.04-.36-.16-.07-.07-.08-.14-.02-.22.2-.25.37-.42.5-.5a.23.23 0 0 1 .25 0c.25.13.41.32.47.54.03.09.01.17-.04.24a1.5 1.5 0 0 1-.54.47c-.05.02-.08 0-.08-.05v-.1c0-.02.02-.04.04-.06.2-.1.32-.22.36-.38.04-.11 0-.2-.1-.26l-.3-.19c-.09-.05-.14-.03-.17.07Z" fill="#BD0D51"/><path d="M42 36.55c.02.02.02.04 0 .06l-.02.02c-.15.14-.36.05-.61-.25l-.04-.05c-.25-.3-.3-.53-.15-.67l.02-.01c.02-.02.03-.02.05 0l.75.9Z" fill="#741353"/><path d="M14.36 36.13c.1-.34.32-.41.67-.23.14.07.23.18.27.33.04.15.03.3-.05.43-.15.28-.43.39-.85.32-.12-.02-.23-.16-.32-.42-.03-.08-.01-.15.06-.2l.13-.1a.27.27 0 0 0 .09-.13Z" fill="#930E4F"/><path d="M30.65 36.3c-.24.11-.43.3-.57.54-.03.05-.08.06-.13.03l-.07-.04c-.04-.02-.05-.06-.03-.1a.92.92 0 0 1 .82-.62c.09-.01.12.05.1.17h-.06c-.02 0-.04 0-.06.02Z" fill="#A31A97"/><path d="M14.87 36.67c.12-.12.16-.3.07-.4-.08-.1-.25-.07-.38.05-.13.12-.16.3-.08.4.09.1.26.08.39-.05Z" fill="#FFF500"/><path d="M31.32 37.05c-.14.27-.26.45-.36.54-.04.04-.09.06-.13.06-.02 0-.05 0-.07-.02-.05-.03-.06-.07-.03-.12l.41-.75c.03-.04.02-.08-.02-.11a.4.4 0 0 0-.17-.08c-.06-.02-.08-.05-.05-.11l.04-.07c.01-.02.03-.03.05 0l.5.36c.09.06.09.13.01.19a.16.16 0 0 1-.07.03.15.15 0 0 0-.11.08ZM22.31 38.21a.08.08 0 0 0-.05-.04c-.05-.02-.08 0-.09.05-.06.21-.17.32-.36.32.1-.23.12-.4.07-.53-.04-.08-.1-.1-.18-.07-.24.11-.42.25-.56.41-.07.08-.06.15 0 .22.16.14.16.34 0 .6-.03.04-.05.05-.1.05a.1.1 0 0 1-.07-.06c-.07-.18-.17-.3-.3-.35-.1-.03-.14 0-.15.1-.02.24-.05.37-.08.39-.1.05-.17.01-.17-.1a7.31 7.31 0 0 1-.04-.96c.04-.26.14-.29.3-.08.08.1.18.19.3.25.08.04.11.02.11-.07v-.24c0-.1.05-.15.14-.15.36 0 .63-.05.81-.16.08-.04.16-.03.22.04l.1.1c.05.06.1.05.15 0 .24-.32.54-.5.88-.53.07-.01.14-.04.2-.1.2-.18.44-.28.71-.3.09 0 .15-.04.2-.11a.95.95 0 0 1 .33-.37c.15-.09.3-.08.43.01.19.13.31.31.37.55.02.08 0 .16-.06.22-.34.4-.63.48-.85.25a.74.74 0 0 1-.2-.42c0-.03-.02-.04-.05-.03l-.12.06c-.03.02-.04.04-.02.08l.37.68c.06.1.03.15-.08.15h-.12c-.02 0-.03 0-.04-.02l-.36-.64c-.03-.07-.09-.1-.16-.08-.14.04-.3.12-.5.25-.1.08-.11.17-.02.26l.26.28c.09.09.08.17 0 .25-.51.45-.92.4-1.22-.16Z" fill="#BD0D51"/><path d="M30.78 36.66c.06-.04.08-.02.06.05-.03.14-.07.22-.12.27-.13.12-.18.1-.14-.06.01-.08.08-.16.2-.26Z" fill="#EB2B55"/><path d="M24.64 37.21c.1.18.3.25.44.16s.16-.3.06-.48c-.11-.18-.3-.25-.44-.16-.14.1-.16.3-.06.48Z" fill="#FFF500"/><path d="m32.39 37.59-.18.45c-.1.2-.23.25-.42.14l-.27-.17a.34.34 0 0 1-.17-.26c-.02-.19.05-.4.22-.62.1-.14.22-.17.36-.1l1.36.61c.1.05.14.13.1.24l-.32.76c-.02.06-.07.08-.12.08-.06 0-.1-.04-.13-.1a.2.2 0 0 1 .01-.15l.2-.5a.24.24 0 0 0-.04-.26.98.98 0 0 0-.39-.22c-.1-.03-.17 0-.21.1Z" fill="#BD0D51"/><path d="M30.4 37.2c.05-.06.09-.08.11-.08.06.02.1.07.1.13 0 .07-.02.11-.08.14-.03.02-.07 0-.13-.05-.05-.04-.05-.1 0-.15Z" fill="#D00D42"/><path d="M31.67 37.46c-.12.19-.12.4 0 .48.1.07.29-.02.4-.22.12-.19.12-.4 0-.48-.1-.07-.29.02-.4.22Z" fill="#FFF500"/><path d="M34.85 38.6c.02-.08 0-.13-.07-.17l-.08-.03c-.07-.03-.11-.01-.13.06-.1.33-.21.52-.34.56a.59.59 0 0 1-.55-.1.66.66 0 0 1-.27-.51c-.01-.32.15-.55.48-.69.1-.04.18-.02.25.06l.34.36c.05.05.12.07.19.05l.27-.11c.26-.13.5-.08.75.16.17.17.22.35.15.53a.76.76 0 0 1-.45.42.44.44 0 0 1-.44-.04c-.14-.1-.18-.21-.14-.37l.04-.17Z" fill="#BD0D51"/><path d="M23.14 38.5c-.08.04-.21-.04-.4-.25-.17-.2-.17-.36 0-.47.17-.1.3-.03.39.24.08.26.09.42 0 .47ZM33.7 38.36c-.02.21.07.4.21.42.15.02.3-.13.32-.34.03-.2-.06-.4-.2-.42-.15-.02-.3.13-.32.34Z" fill="#FFF500"/><path d="M22.31 38.21c-.06 0-.09.04-.08.12 0 .08.04.14.1.16-.22.21-.39.3-.52.25-.04-.1-.04-.16 0-.2.19 0 .3-.1.36-.32.01-.05.04-.07.1-.05l.04.04Z" fill="#E8AE75"/><path d="M35.52 38.68c-.02.11-.1.22-.25.32-.11.08-.19.04-.22-.1a.86.86 0 0 1 .03-.32.92.92 0 0 1 .1-.3c.08-.12.16-.12.24 0 .1.15.13.28.1.4Z" fill="#FFF500"/><path d="M22.32 38.49a.5.5 0 0 1 .05.3c-.02.08-.08.12-.16.13-.16 0-.33.1-.52.26-.03.03-.04.02-.03-.01l.15-.43c.13.05.3-.04.51-.25Z" fill="#BD0D51"/></svg>