<!-- by TradingView --><svg width="56" height="56" viewBox="0 0 56 56" xmlns="http://www.w3.org/2000/svg"><path fill="#F0F3FA" d="M0 0h56v56H0z"/><path d="M13.5 34H7l5 6h9l-7.5-6Z" fill="#E3E5EB"/><path fill-rule="evenodd" d="M28 42c10.34 0 17-6 17-14.5S36.84 14 28 14s-16 6-16 14c0 8.5 6.26 14 16 14Zm.5-6c2.76 0 5-3.36 5-7.5 0-4.14-2.24-7.5-5-7.5s-5 3.36-5 7.5c0 4.14 2.24 7.5 5 7.5Z" fill="#F15734"/><path d="M27.5 34H13.25c2 4 5.75 8 13.75 8 5.5 0 11-5 11-7 0-1.6-2-1.67-3-1.5.5.67 1.2 2.1 0 2.5-1.2.4-5.83-1.17-7.5-2Z" fill="url(#a0neduxg5)"/><path d="M33.5 34h-5.96c1.5 1 5.46 2.5 7.46 2 1.94-.49.5-2 0-2.5 0 .4-1 .5-1.5.5Z" fill="url(#b0neduxg5)"/><path d="M35 33.5c.4-1.2-.5-2.17-1-2.5 3.6 0 4.17 2.67 4 4-.8-1.2-2.33-1.5-3-1.5Z" fill="url(#c0neduxg5)"/><path d="M17.5 25c1.2 4.8 4.83 6 6.5 6h10c3.6 0 4.17 2.67 4 4-.77 3.57-8.33 6.67-11 7 6.45 0 15-2 15-9 0-5.6-4.67-7-7-7H24c-1.6 0-2.67-1-3-1.5-2-.8-3.17 0-3.5.5Z" fill="url(#d0neduxg5)"/><path d="M21 24.5c-1.6-.4-3 .17-3.5.5-1.2-3.6 2.17-8.17 4-9.5a8.41 8.41 0 0 0-.5 9Z" fill="url(#e0neduxg5)"/><path d="m20 22 3.5 2.5c0-1 1-2 1.5-2.5h18.7C40.45 15.71 33 14 28 14c-4 0-6 1-6.5 1.5-1.6 1.2-1.67 5.17-1.5 6.5Z" fill="#DCDDE1"/><path d="M23.5 24.5 20 22c.5 4 2.77 4.03 4.77 4.03-1.2-.4-1.27-1.2-1.27-1.53Z" fill="#363D4D"/><defs><linearGradient id="a0neduxg5" x1="37" y1="35" x2="16.5" y2="36.5" gradientUnits="userSpaceOnUse"><stop stop-color="#C2C4CC"/><stop offset="1" stop-color="#D7DADF"/></linearGradient><linearGradient id="b0neduxg5" x1="31.91" y1="33.5" x2="34.5" y2="36" gradientUnits="userSpaceOnUse"><stop stop-color="#726972"/><stop offset="1" stop-color="#292C36"/></linearGradient><linearGradient id="c0neduxg5" x1="36.01" y1="31" x2="36.01" y2="35" gradientUnits="userSpaceOnUse"><stop stop-color="#6E6B76"/><stop offset="1" stop-color="#292C36"/></linearGradient><linearGradient id="d0neduxg5" x1="21" y1="24.5" x2="28" y2="42.5" gradientUnits="userSpaceOnUse"><stop stop-color="#9999A3"/><stop offset=".2" stop-color="#C9CBD1"/><stop offset=".52" stop-color="#EAEAEC"/><stop offset=".72" stop-color="#E8EAEC"/><stop offset=".81" stop-color="#C8CBCF"/><stop offset=".92" stop-color="#878995"/><stop offset="1" stop-color="#111016"/></linearGradient><linearGradient id="e0neduxg5" x1="20.5" y1="16.5" x2="18" y2="25" gradientUnits="userSpaceOnUse"><stop stop-color="#5F170D"/><stop offset=".67" stop-color="#641F16"/><stop offset="1" stop-color="#86747D"/></linearGradient></defs></svg>