<!-- by TradingView --><svg width="56" height="56" viewBox="0 0 56 56" xmlns="http://www.w3.org/2000/svg"><path fill="#E23034" d="M0 0h56v56H0z"/><path d="M36 10.05v6.06c0 .33-.2.53-.5.61-2.34.63-4.17 2.06-4.92 4.31-.09.26-.12.53-.08.8a3 3 0 0 0 1.3 2.03c.46.34 1.31.78 2.56 1.32l1.05.46c2.56 1.16 4.25 2.77 5.07 4.82.84 2.1.67 4.49-.52 7.14-1.32 2.96-3.85 4.9-7.6 5.85-3.4.86-6.7.7-9.9-.46a12.12 12.12 0 0 1-5.93-4.63 14.49 14.49 0 0 1-2.45-6.96 15.5 15.5 0 0 1 1.04-7.39c1-2.47 2.53-4.44 4.58-5.9a31.3 31.3 0 0 1 7.8-3.94c.23-.08.5 0 .5.24v10.97c0 1.21-.33 2.03-.7 2.47-.16.19-.36.34-.58.46-2.16 1.12-3.65 2.49-4.47 4.1-.93 1.81-.92 3.79.04 5.93a7.2 7.2 0 0 0 7.14 4.27 7.17 7.17 0 0 0 3.92-1.44 6.71 6.71 0 0 0 2.47-3.67c.61-2.18.39-4.07-.67-5.68-.76-1.15-2.2-2.42-4.32-3.81-.93-.62-1.83-1.5-1.83-2.63V14.21c0-.12.12-.22.23-.3l6.67-3.9c.04-.02.1-.01.1.04Z" fill="#fff"/></svg>