<!-- by TradingView --><svg width="56" height="56" viewBox="0 0 56 56" xmlns="http://www.w3.org/2000/svg"><path fill="#A71E23" d="M0 0h56v56H0z"/><path fill-rule="evenodd" d="M22.8 41.55c.61.4 1 .66 1.17.79.55.41.5.54-.16.36a27.13 27.13 0 0 1-5.83-2.3.47.47 0 0 0-.42-.02l-3.3 1.5c-.65.3-.62.5.09.6.83.1 3.16.45 6.98 1.02 4.86.72 9.45.66 13.77-.18 1.6-.31 3.1-.78 4.53-1.4 1.5-.66 3.39-2.2 3.37-4.02a2.08 2.08 0 0 0-.95-1.83c-.42-.28-1.2-.41-2.35-.4-2 .02-4 .03-5.98.02a.18.18 0 0 1-.16-.1.19.19 0 0 1 0-.18c.4-.68.64-1.33.74-1.97.04-.18.13-.23.3-.16l3.45 1.62a.9.9 0 0 0 .73 0l2.97-1.35c.67-.3.64-.5-.09-.61l-6.94-1.02c-.12-.02-.19-.08-.2-.2-.04-.2 0-.5.11-.88a.66.66 0 0 0 0-.38 5.8 5.8 0 0 1-.11-2.63c.21-1.22.39-2.53.52-3.91.02-.16-.06-.59-.24-1.29a.35.35 0 0 1 .1-.34c.06-.05.13-.1.22-.13.16-.08.27-.18.3-.3.05-.1.05-.2.03-.3-.04-.14-.13-.2-.27-.2h-1.02a.47.47 0 0 1-.32-.14 3.2 3.2 0 0 0-1.51-.76.25.25 0 0 1-.15-.1.29.29 0 0 1 0-.33c.04-.06.13-.12.27-.16l.68-.23c.16-.08.2-.2.13-.37l-.46-1.09c-.09-.2-.21-.23-.37-.07l-.51.53c-.1.1-.2.12-.33.07-.13-.05-.23-.16-.3-.33a.45.45 0 0 0-.3-.26c-1.15-.34-1.43.15-1.95 1.06l-.01.01c-.08.15-.18.22-.28.22-.4.02-.74-.06-1.01-.23a.53.53 0 0 1-.22-.26c-.18-.45-.38-.72-.6-.82-.7-.31-1.26-.16-1.67.46-.07.1-.16.13-.27.07l-.39-.18c-.15-.06-.26-.02-.33.13l-.44 1.02c-.07.16-.02.26.14.29.32.06.5.16.55.3.05.14 0 .22-.13.25-.43.1-.76.3-.99.6a.55.55 0 0 1-.8.1.58.58 0 0 1-.17-.23c-.22-.56-.18-1.03.13-1.42.04-.05.1-.09.16-.11a.35.35 0 0 1 .2-.01.8.8 0 0 0 .31.02c.14-.03.21-.11.22-.26 0-.41.09-.81.23-1.18.38-1 .3-2.16.12-3.08a1.06 1.06 0 0 0-.32-.57 1 1 0 0 0-.6-.27c-.47-.04-.74-.06-1.09-.39l-.4-.4c-.46-.47-.95-.97-1.45-1.08a8.1 8.1 0 0 0-1.36-.16.28.28 0 0 0-.24.13.3.3 0 0 0-.03.28l.34.8c.05.1.03.2-.05.28a.36.36 0 0 1-.22.11.35.35 0 0 0-.29.23c-.14.33-.11.57.09.72.52.38.86.62 1 .74a.89.89 0 0 1 .25 1.04c-.54 1.2-.94 2.19-1.2 2.97-.59 1.76-.58 4.34.93 5.6a10.81 10.81 0 0 1 3.11 4.14c.02.05.05.09.1.12a.27.27 0 0 0 .39-.1 8.9 8.9 0 0 0 .6-1.35c.23-.83.44-.8.63.07l.72 3.34c.08.33-.05.5-.4.52-3.12.18-5.96.9-8.5 2.15-1.33.66-3.08 2.38-2.76 4.1.12.68.5 1.2 1.12 1.55.62.35 1.48.32 2.41.28l.56-.02c.6-.01 1.1.1 1.54.31.87.45 1.82.78 2.85 1.01.47.1.9.28 1.28.53ZM19.94 13.7c0 .25-.2.45-.43.45a.43.43 0 0 1-.43-.45c0-.24.2-.44.43-.44.24 0 .43.2.43.44Zm6.71 13.2v2.66c0 .13-.03.25-.1.36-.2.37-.31.74-.32 1.13 0 .08.03.16.08.22.06.06.13.1.21.1l6.15.27a.24.24 0 0 0 .2-.1.25.25 0 0 0 .04-.23l-1.6-4.66c-.05-.1-.12-.16-.24-.14-.21.03-.59.12-1.13.28a4.89 4.89 0 0 1-3.13-.07.19.19 0 0 0-.16.19Zm-.55 7.2.15-1.52c0-.07.04-.14.1-.2a.3.3 0 0 1 .19-.08c1.93-.1 3.95.06 6.06.48.13.02.2.1.19.24-.04.69-.15 1.12-.34 1.3-.47.43-.9.84-1.3 1.23-.1.09-.2.14-.34.14h-5.13c-.14 0-.2-.08-.16-.22.02-.08.12-.31.31-.68.17-.33.26-.56.27-.68Zm-2.9 1.23c.16-.18.31-.36.52-.45.3-.13.54-.28.7-.45.1-.08.16-.2.18-.32l.3-1.36a.16.16 0 0 0-.03-.13.14.14 0 0 0-.13-.05 17.1 17.1 0 0 0-6.7 2.57c-.55.37-.5.55.16.55h4.49c.13 0 .24-.05.33-.14l.19-.22Zm-2.12 4.33a.41.41 0 0 1 .32.2l.31.47a.15.15 0 0 1-.06.22 10.7 10.7 0 0 1-1.96-.58c-.74-.33-.71-.47.1-.4l1.29.09Zm15.09-.04-1.27.1a.4.4 0 0 0-.32.2l-.3.46a.15.15 0 0 0 0 .16c.02.03.04.04.06.05.03.01.05.02.08 0 .8-.18 1.41-.37 1.85-.57.73-.33.7-.46-.1-.4Zm-6.52.09c.04 0 .07.01.1.04s.04.07.04.1v.26c0 .16-.02.31-.05.46-.04.14-.1.27-.16.38a.82.82 0 0 1-.24.25.47.47 0 0 1-.27.1l-2.17-.02c-.19 0-.37-.13-.5-.36-.13-.22-.2-.53-.2-.84v-.25a.16.16 0 0 1 .05-.11.15.15 0 0 1 .1-.05l3.3.04Zm.52 1.24c-.03.15.04.21.18.2l2.59-.23c.39-.03.68-.22.88-.57l.15-.28c.14-.25.07-.38-.2-.38H30.7c-.24 0-.38.13-.41.38l-.12.88Zm1.82 1.47 1.25-.85c.41-.28.86-.46 1.37-.55 1.21-.23 2.38-.69 3.5-1.37a.28.28 0 0 1 .3 0c.16.12.15.24-.03.36a16.83 16.83 0 0 1-6.44 2.83c-.33.07-.38-.02-.15-.27l.2-.15Zm-8.92-1.5 2.57.22c.14.02.2-.05.18-.2l-.12-.87c-.03-.25-.17-.37-.41-.37h-3.04c-.27 0-.34.12-.2.36l.15.28c.2.35.48.54.87.58Zm2.96.9a.5.5 0 0 1 .37.26l.34.6a.18.18 0 0 1-.01.2.17.17 0 0 1-.08.06.16.16 0 0 1-.1 0c-.96-.3-1.7-.6-2.22-.87-.87-.46-.82-.62.15-.48l1.55.23Zm5.6-.27-1.6.23a.52.52 0 0 0-.37.26l-.35.62a.18.18 0 0 0 .01.2c.02.04.05.06.09.07h.1c.99-.3 1.74-.6 2.27-.89.9-.47.84-.64-.15-.5Zm-2.58.15.04.02.02.04v.02a1.2 1.2 0 0 1-.31.82 1.09 1.09 0 0 1-.78.34H28c-.29 0-.56-.11-.77-.33-.2-.21-.32-.5-.33-.8v-.03a.06.06 0 0 1 .04-.06h.02l2.1-.02Z" fill="#fff"/></svg>