<!-- by TradingView --><svg width="56" height="56" viewBox="0 0 56 56" xmlns="http://www.w3.org/2000/svg"><path fill="#F0F3FA" d="M0 0h56v56H0z"/><path fill-rule="evenodd" d="M15 11a3 3 0 0 0-3 3v28a3 3 0 0 0 3 3h26a3 3 0 0 0 3-3V14a3 3 0 0 0-3-3H15Zm10 2a2 2 0 0 0-2 2v27c0 1.1.9 2 2 2h16a2 2 0 0 0 2-2V15a2 2 0 0 0-2-2H25Z" fill="#0070BC"/><path d="M15 17.44v-2.95s0-.49-.5-.49-.5.5-.5.5v6.87s0 .98 1 .5c.7-.35.5-.99.5-.99l-.5-2.46h4v2.95s0 .5.5.5.5-.5.5-.5V14.5s0-.49-.5-.49-.5.5-.5.5v2.94h-4ZM15.62 29l.53-4s.27-1-.53-1c-.81 0-1.08 1-1.08 1L14 29c0 1 .54 3 3.77 3A3 3 0 0 0 21 29v-4s0-.5-.54-.5-.54.5-.54.5v4a2 2 0 0 1-2.15 2 2 2 0 0 1-2.15-2Z" fill="#fff"/><path fill-rule="evenodd" d="m14.29 41.82.16.08a.5.5 0 0 0 .7-.24c.24-.54.55-1.21.85-1.93.77.27 2.08.54 3.03.7l.39 1.2c.09.28.38.44.65.34l.58-.2c.27-.1.41-.4.32-.68l-1.9-6c-.18-.37-.73-1.09-1.56-1.09-.79 0-2.56 4.51-3.48 7.15-.09.26.02.54.26.67Zm4.24-2.97-1.02-3.22c-.18.75-.56 1.8-.99 2.85.6.14 1.39.3 2.01.37Z" fill="#fff"/><path d="M29.7 15H31v5h-1.3a.2.2 0 0 1-.2-.2v-.1c0-.11.09-.2.2-.2h.3v-1a.5.5 0 0 0-.5-.5H28a.5.5 0 0 0-.5.5v1h.3c.11 0 .2.09.2.2v.1a.2.2 0 0 1-.2.2h-1.3v-5h1.3c.11 0 .2.09.2.2v.1a.2.2 0 0 1-.2.2h-.3v1c0 .28.22.5.5.5h1.5a.5.5 0 0 0 .5-.5v-1h-.3a.2.2 0 0 1-.2-.2v-.1c0-.11.09-.2.2-.2ZM35.5 15H35v2.92c0 .41-.5.66-.5 1.08 0 .42.04 1 .57 1 .54 0 .4-2.5.93-2.5.54 0 .69 2.5 1.22 2.5.54 0 .74-2.5 1.28-2.5.43 0 .5 1.67.5 2.5 1.29 0 1.09-.28.9-.42-.42-1.33-.17-3.6 0-4.58-1.28 0-2.32 2.03-2.68 3a4.93 4.93 0 0 0-1.72-3ZM33.81 21.02a3.4 3.4 0 0 1 1.35.13.5.5 0 1 1-.32.95 2.4 2.4 0 0 0-.93-.1c-.3.04-.61.13-.88.32.1.67.22 1.47.33 2.34l2.64-2.2c1.4 1.17 3.37 2.67 3.97 4.48a.5.5 0 0 1-.95.31c-.45-1.36-1.99-2.58-3.02-3.48l-2.5 2.06c.08.6.15 1.21.21 1.83.56-.63 1.37-1.56 2.29-1.56h.14l.12.07a9.69 9.69 0 0 1 3.69 3.7.5.5 0 0 1-.23.66.5.5 0 0 1-.67-.22 8.71 8.71 0 0 0-3.16-3.19c-.07.02-.17.07-.3.15a7.23 7.23 0 0 0-1.74 1.8l.05.52H37a.5.5 0 1 1 0 1h-3.02c.05.7.09 1.36.1 1.98h3.42a.5.5 0 1 1 0 1h-3.4c0 .62-.04 1.15-.1 1.57-.46 2.71-2.2 4.74-3.94 6.74-.2.23-.6.1-.62-.2 0-.1.03-.19.09-.26 1.5-1.77 3.09-4.13 3.48-6.44.06-.35.09-.83.09-1.41h-4.6a.5.5 0 1 1 0-1h4.58c-.01-.61-.05-1.28-.1-1.99H28.5a.5.5 0 1 1 0-1h4.4l-.04-.42a10.23 10.23 0 0 0-3.25-2l-3.78 3.3a.5.5 0 0 1-.7-.05.5.5 0 0 1 .04-.7l4.21-3.67c1.2.37 2.33.95 3.33 1.7-.06-.64-.14-1.27-.21-1.88l-3.07-2.18c-1.4.69-2.57 2.08-3.55 3.24a.5.5 0 0 1-.7.06.5.5 0 0 1-.06-.7c1.18-1.4 2.65-3.11 4.46-3.72l2.75 1.96c-.11-.88-.23-1.68-.32-2.32l-.04-.25.18-.18c.5-.5 1.12-.7 1.66-.75Z" fill="#E61D15"/></svg>