<!-- by TradingView --><svg width="56" height="56" viewBox="0 0 56 56" xmlns="http://www.w3.org/2000/svg"><path fill="#F0F3FA" d="M0 0h56v56H0z"/><path d="M17 23H4v2h4v7h2.8l1.2-1.84V25h3.83L17 23ZM33 24.85V32h2.8l1.2-1.85V23h-2.8L33 24.85ZM17 24.82V29h8l2.17 3H32l-2.17-3h-.2c.76 0 1.37-.68 1.37-1.5v-3c0-.82-.61-1.5-1.37-1.5H18.14L17 24.82ZM25.89 27H21v-2h4.89c.61 0 1.11.32 1.11 1 0 .68-.5 1-1.11 1Z" fill="#74777A"/><path fill="#F87C23" d="M17 30h4v2h-4z"/><path fill-rule="evenodd" d="M40.38 23C39.07 23 38 24.2 38 25.67v3.66c0 1.48 1.07 2.67 2.38 2.67h9.24c1.31 0 2.38-1.2 2.38-2.67v-3.66c0-1.48-1.07-2.67-2.38-2.67h-9.24Zm3.23 2c-.89 0-1.61.65-1.61 1.44v2.12c0 .8.72 1.44 1.61 1.44h2.78c.89 0 1.61-.65 1.61-1.44v-2.12c0-.8-.72-1.44-1.61-1.44H43.6Z" fill="#74777A"/></svg>