<!-- by TradingView --><svg width="56" height="56" viewBox="0 0 56 56" xmlns="http://www.w3.org/2000/svg"><path fill="#F0F3FA" d="M0 0h56v56H0z"/><path d="M18.08 27H12c.02-.88.25-1.58.66-2 3.76-3.8 7.51-7.58 11.28-11.36a6.1 6.1 0 0 1 1.92-1.49c.7-.22 1.4-.2 2.11.06.4.15.92.55 1.57 1.2l6.49 6.52c.05.05.05.1 0 .16l-7.6 7.66c-.39.38-.7.62-.95.73-.4.16-.78.18-1.15.05a2.9 2.9 0 0 1-1-.69l-.8-.8c-.5-.56-.66-1.14-.47-1.76.1-.35.43-.79.97-1.32l4.02-4.05c.05-.05.05-.1 0-.15-.68-.7-1.1-1.13-1.29-1.27-.41-.31-.8-.42-1.18-.32-.3.08-.65.33-1.06.74l-7.05 7.1c-.22.22-.36.6-.4.99Z" fill="#E94417"/><path d="M12 27h6.08c.07.5.19.76.34.9 3.09 2.97 6.17 5.98 9.26 9.02.07.06.13.06.2 0l16.01-16.1c.07-.08.16-.1.26-.08l.76.18c.1.03.12.08.04.15L38.06 28a.2.2 0 0 0-.05.2l1.09 3.9c.03.14 0 .26-.09.36L27.95 43.93c-.08.1-.17.1-.25 0A6258.12 6258.12 0 0 1 12.9 29.22c-.67-.67-.97-1.37-.9-2.21Z" fill="#002D57"/><path d="m39.11 29.5-.24-.88c0-.03 0-.05.02-.07l3.61-3.63a.07.07 0 0 1 .07-.02l.9.21c.08.02.1.06.03.12l-4.27 4.3c-.05.06-.1.05-.12-.03Z" fill="#E94417"/><path d="m41.81 28.35.9.22c.09.02.1.06.04.12l-2.91 2.93c-.06.06-.1.05-.12-.03l-.25-.88c0-.03 0-.06.02-.08l2.25-2.26a.07.07 0 0 1 .07-.02Z" fill="#002D57"/></svg>