<!-- by TradingView --><svg width="56" height="56" viewBox="0 0 56 56" xmlns="http://www.w3.org/2000/svg"><path fill="#F0F3FA" d="M0 0h56v56H0z"/><path d="M28.06 13c.66 0 1.23.06 1.68.19 4.36 1.19 6.73 4.07 7.1 8.64a.3.3 0 0 1-.06.21.28.28 0 0 1-.2.1 9.82 9.82 0 0 0-7.3 4.18c-.27.38-.5.78-.67 1.18-.17.42-.31.86-.43 1.3-.02.08-.06.12-.12.12s-.1-.04-.12-.11c-.12-.45-.26-.89-.44-1.3-.16-.41-.39-.8-.67-1.2a9.82 9.82 0 0 0-7.3-4.16.28.28 0 0 1-.2-.1.3.3 0 0 1-.06-.21c.37-4.58 2.74-7.46 7.1-8.65a6.48 6.48 0 0 1 1.69-.19Z" fill="#6AAF55"/><path d="M20.85 35.83c-.9 1.33-1.47 2.49-1.68 3.47-.2.93-.4.93-.61 0a8.49 8.49 0 0 0-3.85-5.41 8.45 8.45 0 0 0-4.52-1.4c-.13 0-.2-.08-.19-.22.22-3.57 1.73-6.16 4.54-7.77 2.77-1.6 5.69-1.57 8.75.08.3.16.83.6 1.61 1.32.54.5.96 1 1.27 1.52a9.2 9.2 0 0 1 1.38 4.9c0 .12-.05.17-.16.19-2.44.24-5.09 1.16-6.54 3.32ZM39.3 35.82a10.51 10.51 0 0 0-1.67 3.46c-.2.94-.4.94-.61.01a8.47 8.47 0 0 0-3.85-5.4 8.45 8.45 0 0 0-4.51-1.4c-.14 0-.2-.08-.2-.22.22-3.56 1.73-6.15 4.53-7.77 2.77-1.6 5.69-1.57 8.75.08a10.77 10.77 0 0 1 2.88 2.83 9.2 9.2 0 0 1 1.38 4.9c0 .11-.05.17-.16.18-2.44.25-5.08 1.17-6.54 3.33Z" fill="#3A8450"/></svg>