<!-- by TradingView --><svg width="56" height="56" viewBox="0 0 56 56" xmlns="http://www.w3.org/2000/svg"><path fill="#F0F3FA" d="M0 0h56v56H0z"/><path d="M16.32 19.62H9V17h7.32c5.66 0 10.25 4.77 10.25 10.67v.66c0 5.9-4.59 10.67-10.25 10.67H9v-2.62h7.32c4.27 0 7.74-3.6 7.74-8.05v-.66c0-4.45-3.47-8.05-7.74-8.05Z" fill="#457AD5"/><path d="M15.7 23H9v-2.53h6.7c4.11 0 7.44 3.42 7.44 7.65a7.39 7.39 0 0 1-7.43 7.47H9V33h6.7a4.84 4.84 0 0 0 4.93-4.88c0-2.8-2.2-5.12-4.92-5.12ZM26 17h7.8l2.74 11.21L39.1 17H47v22h-2.5V19.62h-3.67l-4.3 15.26-4.28-15.26h-3.76V39H26V17Z" fill="#457AD5"/><path d="M29.49 21h2.6l4.44 16.8L40.92 21h2.6v18H42V24.43L38.35 39h-3.46L31 24.43V39h-1.51V21Z" fill="#457AD5"/><path fill="#457AD5" fill-opacity=".5" d="M9 23h6v10H9z"/><rect x="24.39" y="26.61" width="3.65" height="2.01" rx="1.01" fill="#fff"/></svg>