<!-- by TradingView --><svg width="56" height="56" viewBox="0 0 56 56" xmlns="http://www.w3.org/2000/svg"><path fill="#F0F3FA" d="M0 0h56v56H0z"/><path d="M31 30 17.5 16 4 30h3.38L17.5 19.5 27.63 30H31Z" fill="#372B46"/><path d="M31 35 17.5 21 4 35h3.38L17.5 24.5 27.63 35H31Z" fill="#372B46"/><path d="M25.25 35 14.9 24.58l-1.71 1.75L21.82 35h3.43ZM28 33h22l2 2H28v-2ZM32 25h5v1.5h-3.5V28H36v1.5h-2.5V32H32v-7Z" fill="#372B46"/><path d="M46 25h1.5v3h3v-3H52v9l-1.5-1.64v-2.77h-3V32H46v-7Z" fill="#372B46"/><path fill-rule="evenodd" d="M41.46 25H38v7h3.46A3.52 3.52 0 0 0 45 28.5c0-1.93-1.59-3.5-3.54-3.5Zm.23 1.5H39.5v4h2.19c1 0 1.81-.9 1.81-2s-.81-2-1.81-2Z" fill="#372B46"/></svg>