<!-- by TradingView --><svg width="56" height="56" viewBox="0 0 56 56" xmlns="http://www.w3.org/2000/svg"><path fill="#F0F3FA" d="M0 0h56v56H0z"/><path d="M34.84 12.12c-.18.13-.32.3-.42.5a10.8 10.8 0 0 0-1.56-.36c-.2-.03-.2 0-.03.1.66.32 1.3.74 1.93 1.24l-.57 2.2a14.62 14.62 0 0 0-9.27-1.19c-.05.01-.08.04-.08.1l.06 3.11c-.94.27-1.87.65-2.79 1.14-.1.05-.14.13-.12.24l.48 2.69a9.12 9.12 0 0 0-2.07 2.73c-.31.62-.51 1.29-.6 1.98a9.6 9.6 0 0 0-.03 2.43c.03.6.1 1.05.2 1.33.05.16.02.18-.1.05a5.78 5.78 0 0 1-1.09-1.7 18.5 18.5 0 0 1-1.2-3.68c-.23-1.35-.22-2.64.02-3.85.44-2.3 1.49-4.37 3.14-6.21a11.4 11.4 0 0 1 7.96-3.94c2.08-.14 4.12.22 6.14 1.09Z" fill="#E5721D"/><path d="M38.7 21.9a7.06 7.06 0 0 0-1.15-3.22 8.89 8.89 0 0 0-3.36-2.88l.57-2.2A11.17 11.17 0 0 1 38 17.42c.15.28.37.35.68.2.4-.2.6-.5.6-.87 0-.23-.1-.52-.33-.87a7.89 7.89 0 0 0-4.54-3.26c.1-.2.24-.37.42-.5 1 .37 1.86.84 2.59 1.4.8.6 1.45 1.4 1.96 2.39.68 1.33.8 2.68.33 4.06a7.8 7.8 0 0 1-1.03 1.93Z" fill="url(#a)"/><path d="M34.42 12.62c2 .6 3.52 1.68 4.54 3.26.23.35.34.64.34.87 0 .38-.2.66-.61.87-.3.15-.53.08-.68-.2-.8-1.52-1.88-2.8-3.25-3.82-.63-.5-1.27-.92-1.93-1.25-.18-.09-.17-.12.03-.09.5.07 1.02.2 1.56.36Z" fill="#F8EBCD"/><path d="m28.58 17.82.33-3.45a12.68 12.68 0 0 0-3.99.24c-.05.01-.08.04-.08.1l.06 3.11a9 9 0 0 1 3.68 0Zm8.98.86a8.89 8.89 0 0 0-3.37-2.88 14.62 14.62 0 0 0-5.28-1.43l-.33 3.45c.8.23 1.57.54 2.3.94.21.12.65.5 1.3 1.15.4.42.8 1.07 1.19 1.96.34.68.87 1.2 1.59 1.55.26.12.53.16.8.1l.7-.14a4.31 4.31 0 0 0 2.24-1.49 7.06 7.06 0 0 0-1.14-3.2Z" fill="url(#b)"/><path d="M28.58 17.82c.8.23 1.57.54 2.3.94.21.12.64.5 1.3 1.15.4.42.8 1.07 1.19 1.96-.39-.1-.73-.28-1.03-.56a3 3 0 0 0-.6-.46c-.37-.19-.67-.36-.93-.52-.17-.1-.5-.21-1-.35-.4-.11-.75-.18-1.05-.2a8 8 0 0 0-5.37 1.43c-.3.22-.62.44-.92.68l-.48-2.69c-.02-.1.02-.2.12-.24.91-.5 1.84-.87 2.79-1.14a9 9 0 0 1 3.68 0Z" fill="url(#c)"/><path d="M28.75 33.98c-.2 0-.34.08-.42.25a.1.1 0 0 1-.1.07c-.15 0-.25-.08-.29-.24a4.54 4.54 0 0 0-.26-.84 2.56 2.56 0 0 1-.24-.84 11.94 11.94 0 0 1 .04-3.26 9 9 0 0 1 .2-1.16c.12-.5.2-1 .23-1.46 0-.17-.07-.28-.24-.31a7.9 7.9 0 0 0-1.01-.14 4.7 4.7 0 0 0-1.02.05l-1.26.14a3.3 3.3 0 0 1-2.18-.5 85.1 85.1 0 0 1 5.19-1.92c.7-.23 1.54-.46 2.53-.68a3.12 3.12 0 0 1 2.21.3c.33.18.6.5.83.95.18.37.31.78.39 1.23.03.2.1.82.2 1.9 0 .03 0 .06-.03.08a.08.08 0 0 1-.1 0c-.47-.18-.96-.26-1.46-.23-.35.02-.9.12-1.68.3-.25.07-.41.19-.5.37a12.98 12.98 0 0 0-1.03 5.94Z" fill="#E14F1F"/><path d="M22.2 25.73c.68.43 1.41.6 2.18.51l1.26-.14c.4-.05.74-.07 1.02-.05.43.04.77.08 1.01.14.17.03.25.14.24.31-.03.47-.1.95-.22 1.46-.11.48-.18.87-.2 1.16l-.13 1.18c-.04.43-.02 1.13.08 2.08.02.27.1.55.24.84.1.2.18.48.26.84.04.16.14.24.28.24a.1.1 0 0 0 .11-.07c.08-.17.22-.26.42-.25l.14.57c.01.04 0 .07-.02.1a.1.1 0 0 1-.1.05c-.1-.01-.14-.08-.14-.2 0-.1-.05-.13-.13-.1-.13.02-.2.13-.2.3 0 .03-.03.07-.08.12a.06.06 0 0 1-.06.01c-.03 0-.04-.02-.04-.04s-.02-.03-.04-.04c-.05-.02-.07 0-.07.04 0 .1 0 .16.04.18a.1.1 0 0 1 .04.1v.4c0 .03 0 .05-.03.06l-.06.03c-.03.01-.05 0-.05-.03v-.1a.2.2 0 0 0-.06-.15 1.27 1.27 0 0 1-.32-.45c-.02-.05-.06-.06-.1-.04l-.06.02c-.03.02-.04.04-.02.08l.33.65.04.02.04.02c.02.04.02.07 0 .1a.1.1 0 0 1-.1.05c-.15 0-.25-.07-.3-.18a1.03 1.03 0 0 1-.06-.35.8.8 0 0 0-.04-.3c-.26-.52-.5-.96-.71-1.35-.3-.53-.5-.99-.6-1.39-.2-.8-.29-1.57-.27-2.32 0-.82.05-1.55.12-2.2 0-.05-.02-.07-.07-.06-.14.03-.68.09-1.6.18-.52.05-1.17.19-1.95.4-.14.04-.3.07-.47.08a.06.06 0 0 1-.07-.04.07.07 0 0 1 .01-.08l.15-.14c.12-.1.16-.22.11-.37-.01-.06-.05-.08-.1-.05l-.38.17a.13.13 0 0 1-.14 0 .14.14 0 0 1-.07-.13v-.04c0-.08.04-.12.1-.15.31-.11.52-.2.61-.28.09-.06.08-.08-.02-.05a8.8 8.8 0 0 0-1.29.42c-.42.18-.47.1-.17-.24.07-.07.22-.15.46-.25.46-.19.9-.43 1.3-.74.07-.04.07-.05 0-.02l-2.13.95c-.05.02-.08.01-.1-.04l-.04-.07c-.01-.04 0-.06.03-.08.8-.3 1.53-.73 2.2-1.28Z" fill="#EEB549"/><path d="M18.58 43.15a6.62 6.62 0 0 1-3-3.03c-.48-1-.66-2-.55-3.02a6.05 6.05 0 0 1 1.23-2.96c.18 1.4.65 2.59 1.4 3.55a9.24 9.24 0 0 0 3.29 2.6l1.41.6c1.54.53 3.14.8 4.8.78 2.38.08 4.64-.53 6.78-1.82a.24.24 0 0 0 .12-.21l.08-3.46c-.02-.3-.05-.54-.1-.75-.12-.57-.32-1.35-.58-2.34.45-.55.83-1.16 1.15-1.8.3-.63.5-1.3.58-2.04.13-1.14.1-2.3-.12-3.5-.04-.23.01-.25.15-.07a12.6 12.6 0 0 1 1.82 3.88 11 11 0 0 1-.3 7.43 13.4 13.4 0 0 1-4.87 6.08 11.67 11.67 0 0 1-8.32 1.79 14.38 14.38 0 0 1-4.97-1.71Zm1.8-.62a11.02 11.02 0 0 1-2.87-3.05c-.23-.35-.4-.65-.54-.88-.17-.3-.4-.37-.7-.23-.38.18-.58.45-.6.8 0 .31.11.64.35 1a7.77 7.77 0 0 0 3.01 2.64c.97.45 1.95.75 2.94.93.35.06.37 0 .05-.16-.51-.27-1.06-.62-1.65-1.05Z" fill="url(#d)"/><path d="M34.05 35.43c-.13-.57-.32-1.35-.59-2.34a8.95 8.95 0 0 1-5.91 3.2c-.3-.04-.75-.07-1.36-.1a5 5 0 0 1-1.6-.34c-.78-.3-1.75-.84-2.88-1.63.22.76.6 1.4 1.15 1.93.83.9 1.81 1.52 2.95 1.85.45.13 1.02.24 1.7.34l.54.01c.45.04.92.02 1.39-.07.82-.15 1.63-.38 2.4-.7.37-.14.76-.36 1.18-.64l1.12-.76c-.02-.3-.05-.54-.1-.75Z" fill="url(#e)"/><path d="M21.7 34.22c.23.76.62 1.4 1.16 1.93l-.5 4.74-1.41-.6a9.24 9.24 0 0 1-3.29-2.6 7.18 7.18 0 0 1-1.4-3.55c.37-.48.84-.88 1.41-1.23.24-.14.47-.23.71-.27l.25-.05c.44-.1.78-.14 1-.13.1 0 .24.07.44.18.72.41 1.27.94 1.64 1.58Zm1.16 1.93c.83.9 1.81 1.52 2.95 1.85.45.13 1.02.24 1.7.34l.54.01c.45.04.92.02 1.39-.07.82-.15 1.63-.38 2.4-.7.37-.14.76-.36 1.18-.64l1.12-.76-.08 3.46c0 .1-.04.16-.12.21-2.14 1.3-4.4 1.9-6.79 1.82-1.65.01-3.25-.25-4.79-.78l.5-4.74Z" fill="url(#f)"/><path d="M20.37 42.53c.59.43 1.14.78 1.65 1.05.32.17.3.22-.05.16-1-.18-1.97-.49-2.94-.93a7.77 7.77 0 0 1-3-2.64 1.7 1.7 0 0 1-.35-1c.01-.35.21-.62.6-.8.29-.14.52-.06.69.23l.54.88c.75 1.2 1.71 2.21 2.86 3.05Z" fill="#F8EBCD"/><defs><linearGradient id="a" x1="39.63" y1="20.07" x2="33.16" y2="17.76" gradientUnits="userSpaceOnUse"><stop stop-color="#EB921C"/><stop offset="1" stop-color="#E5721D"/></linearGradient><linearGradient id="b" x1="34.55" y1="20.52" x2="25.41" y2="20.52" gradientUnits="userSpaceOnUse"><stop stop-color="#F4C685"/><stop offset="1" stop-color="#E5721D"/></linearGradient><linearGradient id="c" x1="30.49" y1="19.76" x2="23.18" y2="22.89" gradientUnits="userSpaceOnUse"><stop stop-color="#F1B784"/><stop offset="1" stop-color="#E5721D"/></linearGradient><linearGradient id="d" x1="15.79" y1="37.88" x2="34.96" y2="37.96" gradientUnits="userSpaceOnUse"><stop stop-color="#EB921C"/><stop offset="1" stop-color="#E5721D"/></linearGradient><linearGradient id="e" x1="23.8" y1="36.08" x2="33.19" y2="35.37" gradientUnits="userSpaceOnUse"><stop stop-color="#F6D1AB"/><stop offset="1" stop-color="#E5721D"/></linearGradient><linearGradient id="f" x1="18.65" y1="37.07" x2="33.4" y2="39.64" gradientUnits="userSpaceOnUse"><stop stop-color="#F4C685"/><stop offset="1" stop-color="#E5721D"/></linearGradient></defs></svg>