<!-- by TradingView --><svg width="56" height="56" viewBox="0 0 56 56" xmlns="http://www.w3.org/2000/svg"><path fill="#F0F3FA" d="M0 0h56v56H0z"/><path d="M38 31h1.13l1.34 2.65h.06L41.87 31H43l-2 3.76V37h-1v-2.24L38 31ZM8 27v-6h1v2.54h3V21h1v6h-1v-2.55H9V27H8ZM18 21h1v3.86c0 1.39-1.22 2.14-2.5 2.14s-2.5-.75-2.5-2.14V21h1v3.77c0 .79.75 1.27 1.5 1.27s1.5-.48 1.5-1.27V21ZM20.98 27H20l1.9-6h1.2l1.9 6h-.9l-1.6-5-1.52 5Zm.1-2h2.84v1h-2.84v-1ZM26 27v-6h1.96c1.14 0 2.04.8 2.04 1.92 0 1.15-.84 2.08-2.05 2.08h-1.4v-1h1.27c.63 0 1.18-.45 1.18-1.08 0-.64-.55-.92-1.18-.92H27v5h-1Zm2.7-2.72L30 27h-1.06l-1.27-2.72h1.03ZM28 37v-6h1.96c1.14 0 2.04.8 2.04 1.92 0 1.15-.84 2.08-2.05 2.08h-1.4v-1h1.27c.63 0 1.18-.45 1.18-1.08 0-.64-.55-.92-1.18-.92H29v5h-1Zm2.7-2.72L32 37h-1.06l-1.27-2.72h1.03ZM36 24c0 1.5-.85 3-2.5 3S31 25.5 31 24s.84-3 2.5-3c1.65 0 2.5 1.5 2.5 3Zm-1 0c0-.94-.4-2-1.5-2S32 23.06 32 24s.4 2 1.5 2 1.5-1.06 1.5-2ZM42 21v6h-.98L38 22.74V27h-1v-6h.99L41 25.28V21h1ZM22 31v6h-.98L18 32.74V37h-1v-6h.99L21 35.28V31h1ZM46.96 23a1.4 1.4 0 0 0-1.37-1C44.5 22 44 23.03 44 24c0 .98.48 2 1.61 2 .83 0 1.4-.39 1.4-1.21l.23.04h-1.52V24H48v.7c0 1.4-.98 2.3-2.4 2.3-1.68 0-2.6-1.42-2.6-3 0-1.5.91-3 2.58-3 1.16 0 2.25.82 2.42 2h-1.04ZM36.96 33a1.4 1.4 0 0 0-1.37-1C34.5 32 34 33.03 34 34c0 .98.48 2 1.61 2 .83 0 1.4-.39 1.4-1.21l.23.04h-1.52V34H38v.7c0 1.4-.98 2.3-2.4 2.3-1.68 0-2.6-1.42-2.6-3 0-1.5.91-3 2.58-3 1.16 0 2.25.82 2.42 2h-1.04ZM12 37v-6h4v1h-3v1.5h2.5v1H13V36h3v1h-4ZM23 37v-6h4v1h-3v1.5h2.5v1H24V36h3v1h-4Z"/></svg>