<!-- by TradingView --><svg width="56" height="56" viewBox="0 0 56 56" xmlns="http://www.w3.org/2000/svg"><path fill="#F0F3FA" d="M0 0h56v56H0z"/><path d="M12 20H8v16h4v-6h5v6h4V20h-4v6h-5v-6ZM39 20h-4v16h4v-6h5v6h4V20h-4v6h-5v-6ZM28.25 34H31v2h-6v-2h2.75v-1H27v-3h.75v-2H27v-3h.75v-2.5H27V22h-3.35L26 30c0 .67-.5 2-2.5 2S21 30.67 21 30l2.35-8H23v-.5h.5c.5 0 1-.25 1.5-.5s1-.5 1.5-.5c.59 0 .83.17 1.03.31.07.06.14.1.22.14V20h.5v.95c.08-.04.15-.08.22-.14.2-.14.44-.31 1.03-.31.8 0 2.33.67 3 1h.5v.5h-.35l2.33 8H35c0 .67-.5 2-2.5 2S30 30.67 30 30l2.35-8H29v.5h-.75V25H29v3h-.75v2H29v3h-.75v1Zm2.27-4h1.73v-6.76L30.52 30Zm2.23 0h1.71l-1.71-6.76V30Zm-11.23 0h1.73v-6.36L21.52 30Zm2.23 0h1.73l-1.73-6.36V30Z" fill="#3099DD"/></svg>