<!-- by TradingView --><svg width="56" height="56" viewBox="0 0 56 56" xmlns="http://www.w3.org/2000/svg"><path fill="#F0F3FA" d="M0 0h56v56H0z"/><path fill-rule="evenodd" d="m45.27 28-3.3 10.08-8.63 6.23H22.66l-8.63-6.23L10.73 28l3.3-10.08 8.63-6.23h10.68l8.63 6.23L45.27 28Zm-2.7-10.5L46 28l-3.44 10.5-9 6.5H22.44l-9-6.5L10 28l3.44-10.5 9-6.5h11.12l9 6.5Z" fill="#E5D208"/><path fill-rule="evenodd" d="m44.27 28-3.1 9.46-8.14 5.85H22.97l-8.13-5.85-3.1-9.46 3.1-9.46 8.13-5.85h10.06l8.13 5.85 3.1 9.46Zm-2.52-9.89L45 28l-3.25 9.89-8.5 6.11h-10.5l-8.5-6.11L11 28l3.25-9.89 8.5-6.11h10.5l8.5 6.11Z" fill="#E5D208"/><path fill-rule="evenodd" d="m43.26 28-2.91 8.84-7.63 5.47h-9.44l-7.63-5.47L12.74 28l2.91-8.84 7.63-5.47h9.44l7.63 5.47L43.26 28Zm-2.32-9.27L44 28l-3.06 9.27-8 5.73h-9.88l-8-5.73L12 28l3.06-9.27 8-5.73h9.88l8 5.73Z" fill="#E5D208"/><path d="M35.1 19.7c-.16.1-.37.21-.62.21a1.1 1.1 0 0 1-.59-.18 3.52 3.52 0 0 1-.4-.31c-.26-.2-.45-.33-.69-.33-.19 0-.25.06-.45.24l-.07.07c-.12.11-.28.25-.5.35-.23.1-.5.16-.85.16-.34 0-.61-.06-.84-.16-.23-.1-.39-.24-.51-.35l-.1-.09c-.18-.17-.23-.22-.39-.22-.23 0-.46.13-.8.35l-.03.02c-.14.1-.31.2-.49.29-.19.09-.4.16-.65.16-.5 0-.78-.32-.94-.5l-.03-.04c-.18-.2-.27-.28-.44-.28-.23 0-.43.13-.78.35-.32.2-.74.47-1.3.47-.57 0-.98-.27-1.27-.49l-.15-.11a3.14 3.14 0 0 0-.31-.21l-.03-.01-.04.01a3.8 3.8 0 0 0-.48.32c-.27.2-.66.5-1.14.5-.39 0-.73-.2-.98-.4-.18-.13-.34-.3-.45-.43h-2.91v-.74h3.28l.11.15c.08.11.24.3.43.44.2.15.38.23.52.23.2 0 .4-.12.68-.34l.08-.05.34-.25c.14-.09.34-.18.56-.18a1 1 0 0 1 .54.19 4.76 4.76 0 0 1 .4.3c.26.19.5.33.82.33.32 0 .57-.15.9-.35l.06-.04c.28-.19.66-.43 1.12-.43.53 0 .82.32 1 .53.2.23.27.29.41.29.09 0 .2-.03.33-.1.13-.06.26-.14.43-.25l.03-.02c.3-.19.7-.45 1.18-.45s.75.27.93.44l.07.07c.1.09.19.16.3.21.12.06.29.1.54.1.26 0 .42-.04.54-.1.11-.05.2-.12.3-.21l.06-.06c.2-.19.47-.45.97-.45.53 0 .9.28 1.16.5l.06.05.27.2c.09.05.15.07.19.07.03 0 .1-.02.2-.1.1-.05.2-.13.31-.23l.1-.08c.3-.24.72-.57 1.28-.57.6 0 .94.36 1.16.61a23.47 23.47 0 0 1 .29.3c.07.06.11.07.15.07h2.96v.74h-2.96a.98.98 0 0 1-.62-.23c-.13-.1-.24-.23-.33-.33a8.97 8.97 0 0 0-.05-.05c-.21-.25-.36-.37-.6-.37-.26 0-.5.16-.8.4l-.08.07-.39.3ZM25.9 17.31c-.3.24-.7.56-1.34.56-.3 0-.54-.06-.75-.16-.18-.1-.33-.21-.45-.3 0-.01 0-.02-.02-.02-.12-.1-.21-.17-.33-.23-.1-.05-.24-.09-.45-.09-.4 0-.65.15-.95.34l-.05.03c-.3.19-.66.43-1.21.43-.5 0-.9-.25-1.17-.51a2.72 2.72 0 0 1-.59-.8l.68-.3c.07.14.22.37.42.56.2.19.42.3.66.3.32 0 .53-.13.85-.33.32-.2.73-.46 1.36-.46a1.78 1.78 0 0 1 1.25.48c.13.1.22.18.33.23.1.05.23.09.42.09.35 0 .58-.16.88-.4l.05-.04c.28-.22.65-.52 1.18-.52.59 0 .92.36 1.13.6a26.18 26.18 0 0 1 .27.3c.06.04.1.06.14.06.04 0 .07-.01.13-.06l.14-.15.13-.15c.12-.13.28-.29.5-.4.24-.13.52-.2.86-.2.34 0 .6.06.83.16.22.1.37.23.5.33l.05.05c.1.09.15.14.22.18a.6.6 0 0 0 .32.08c.32 0 .57-.14.9-.35h.02c.32-.2.74-.45 1.3-.45.58 0 .95.27 1.23.47.29.21.44.33.69.33.22 0 .45-.08.65-.2.2-.1.36-.24.43-.32l.55.5c-.12.14-.34.32-.61.47-.28.16-.63.29-1.02.29-.5 0-.84-.25-1.09-.44-.02 0-.03-.02-.05-.03-.26-.2-.46-.33-.78-.33-.34 0-.6.15-.93.35l-.03.02c-.31.19-.71.43-1.26.43-.28 0-.5-.07-.69-.17-.15-.09-.27-.2-.36-.29-.02 0-.03-.02-.05-.03-.1-.1-.19-.16-.3-.21-.11-.05-.27-.1-.52-.1-.24 0-.4.05-.5.11-.12.06-.21.14-.31.25l-.07.08c-.08.09-.17.2-.26.28a.9.9 0 0 1-.62.24.96.96 0 0 1-.62-.24c-.12-.1-.23-.22-.31-.32l-.04-.05c-.2-.23-.34-.35-.57-.35-.26 0-.44.14-.76.4ZM24.28 15.91a5.19 5.19 0 0 0-2.42-1.15l.12-.73c.5.08 1.64.4 2.56 1.13.16-.12.36-.26.57-.37.34-.19.77-.37 1.18-.37.57 0 .9.32 1.1.55l.06.06.19.19c.05.04.09.05.12.05s.11-.02.28-.12l.35-.23.2-.13c.4-.27.95-.6 1.6-.6.65 0 1.12.34 1.48.6.4.3.66.48 1 .48.3 0 .67-.12 1.03-.28.35-.17.65-.37.82-.5l.45.6c-.2.15-.55.38-.96.57-.4.18-.88.35-1.34.35-.6 0-1.05-.33-1.39-.58a6.9 6.9 0 0 0-.05-.03c-.37-.28-.66-.47-1.04-.47-.4 0-.78.2-1.19.48l-.17.1-.41.28c-.18.1-.41.22-.66.22a.93.93 0 0 1-.58-.21l-.3-.28-.04-.05c-.18-.2-.31-.3-.55-.3-.22 0-.51.1-.82.27-.29.16-.55.35-.69.48l-.25.22-.25-.23ZM20.4 36.3c-.98 0-1.74.45-1.97.65l-.2.19-.24-.15c-1.27-.81-2.2-.58-2.41-.45l-.38-.64c.48-.28 1.6-.45 2.96.32.44-.3 1.25-.66 2.24-.66.37 0 .66.05.89.14a1.49 1.49 0 0 1 .59.43c.05.06.08.08.13.11.04.03.1.06.26.06.35 0 .62-.09.94-.2h.01c.32-.12.69-.25 1.18-.25.55 0 1 .27 1.33.48.37.23.6.37.83.37.2 0 .34-.1.64-.34h.02a2.01 2.01 0 0 1 2.66-.02l.02.02a2.29 2.29 0 0 0 .2.13 8.17 8.17 0 0 0 .73-.29c.37-.16.84-.35 1.33-.35a2 2 0 0 1 1.02.27c.21.11.35.18.6.18.13 0 .27-.03.45-.1.15-.05.3-.1.47-.18l.15-.06c.45-.19 1-.4 1.63-.4.66 0 1.02.23 1.3.45l.08.06c.21.17.29.23.46.23h2.24v.74h-2.24c-.45 0-.73-.23-.93-.4a4.33 4.33 0 0 0-.07-.05c-.2-.15-.4-.29-.84-.29a3.51 3.51 0 0 0-1.47.4c-.18.07-.36.15-.53.2-.22.08-.45.14-.7.14-.44 0-.71-.14-.93-.25l-.02-.01c-.2-.1-.36-.19-.67-.19-.31 0-.66.13-1.03.29l-.17.07c-.11.06-.23.11-.34.15-.15.06-.33.13-.51.13a.9.9 0 0 1-.49-.16 2.94 2.94 0 0 1-.32-.23 1.29 1.29 0 0 0-.8-.25c-.34 0-.57.15-.83.35a8.1 8.1 0 0 0-.06.05c-.24.19-.58.45-1.05.45-.46 0-.86-.25-1.16-.44l-.07-.04c-.35-.22-.62-.37-.93-.37-.36 0-.62.1-.94.2l-.01.01c-.32.11-.7.24-1.18.24a1.18 1.18 0 0 1-.97-.43l-.04-.04a.74.74 0 0 0-.26-.18c-.11-.05-.3-.09-.6-.09ZM32.75 38.9c-.26.23-.6.53-1.15.53-.29 0-.5-.07-.7-.2l-.3-.27-.05-.06a.92.92 0 0 0-.32-.21 2 2 0 0 0-.74-.1c-.69 0-1.18.22-1.59.47l-.28.18h-.01l-.29.19c-.17.1-.4.21-.65.21s-.45-.09-.6-.19c-.14-.08-.26-.19-.36-.27l-.06-.05c-.25-.2-.44-.34-.69-.34-.26 0-.43.13-.72.35l-.02.01c-.27.2-.64.5-1.18.5-.53 0-.89-.33-1.15-.56a7.67 7.67 0 0 0-.08-.07c-.3-.25-.56-.44-1.01-.44-.39 0-.85.15-1.3.36-.44.21-.82.46-1.03.63l-.46-.6c.25-.18.68-.46 1.17-.7a3.95 3.95 0 0 1 1.62-.43 2.17 2.17 0 0 1 1.54.66c.32.27.47.4.7.4.27 0 .46-.13.74-.35l.03-.02c.26-.2.62-.48 1.15-.48.55 0 .92.3 1.17.51l.07.06c.1.09.18.15.27.2.09.06.15.08.2.08.04 0 .11-.02.27-.11l.26-.16.01-.01.3-.2c.47-.28 1.1-.58 1.98-.58.43 0 .75.06 1.01.16s.43.24.57.37l.12.12.14.13c.05.03.12.07.27.07.25 0 .39-.12.68-.36l.08-.07c.35-.29.8-.6 1.59-.6.35 0 .6.02.8.07.2.05.32.11.43.18l.05.03.13.07c.05.02.16.04.37.04h2.96v.74h-2.96c-.26 0-.45-.02-.62-.08a1.37 1.37 0 0 1-.3-.15l-.03-.02a.65.65 0 0 0-.21-.1c-.12-.02-.3-.04-.62-.04-.55 0-.83.2-1.1.43l-.1.07ZM22.65 41.2c-.15.06-.35.14-.54.14h-.99v-.74h.99l.06-.02.18-.07.28-.13.25-.12c.4-.19.92-.4 1.47-.4.56 0 .9.32 1.14.55l.08.08c.13.12.25.22.4.3.16.07.36.13.64.13.56 0 .83-.2 1.1-.44l.09-.08c.26-.23.61-.55 1.19-.55.59 0 .94.25 1.2.45l.03.02c.25.19.37.28.58.28.12 0 .28-.04.48-.1l.6-.22.05-.03c.45-.18 1-.4 1.51-.4h2.59v.75h-2.59c-.34 0-.75.15-1.23.34l-.06.03-.64.24c-.23.07-.47.13-.71.13-.47 0-.78-.24-1-.4l-.05-.05c-.23-.17-.42-.3-.76-.3-.28 0-.42.13-.71.38l-.08.07c-.33.29-.78.62-1.59.62-.39 0-.7-.08-.96-.2a2.38 2.38 0 0 1-.67-.5c-.27-.25-.38-.36-.63-.36-.37 0-.76.15-1.15.33l-.22.1-.33.16ZM23 25.5V24h-6v8h6v-1.5h-4.3v-2h3.83V27H18.7v-1.5H23ZM39 24v1.5h-4.3V27H38v1.5h-3.3V32H33v-8h6Z" fill="#E5D208"/><path fill-rule="evenodd" d="M26.64 24H25v8h1.64v-3h1.86a2.5 2.5 0 0 0 0-5h-1.86Zm0 3.65h1.74a1.15 1.15 0 1 0 0-2.3h-1.74v2.3Z" fill="#E5D208"/></svg>