<!-- by TradingView --><svg xmlns="http://www.w3.org/2000/svg" width="56" height="56"><path fill="#F0F3FA" d="M0 0h56v56H0z"/><path fill-rule="evenodd" d="M13 13h30v20H13V13zm11.14 4.64c1.15-.04 1 1.17.77 1.78-.34-.3-.74-.3-.89-.28-1.74.43-3.06 2.45-3.5 3.4a15.5 15.5 0 011.78-.48c.6-.11.4.17.23.33l-2.35 1.08c-.18.05-.5.22-.46.32.05.13.33.05.46 0l4.2-1.73c-.76.11-1.1.05-1.16 0 .3-.57 1.54-.6 2.13-.53a2.13 2.13 0 011.34-.33c.39.4.29.92.2 1.19-1.18.53-1.38 3.28-1.33 4.58.02.68-.08 2.02-.65 1.92-.56-.09-.58-2.12-.52-3.12a5.76 5.76 0 01-3.6 1.6c-1.57 0-2.27-1.07-2.43-1.6-1.42.74-2.26.67-2.22-.14.04-.65 1.57-1.77 2.34-2.25.98-4.1 4.21-5.7 5.66-5.74zm-5.83 6.62l-1 .74c.33-.08 1.02-.26 1.1-.38.06-.12-.04-.29-.1-.36zm3.04.16c1.03-.4 2.26-.9 3.25-1.3.1.3.17 1.1-.71 1.7l-.6.42c-.78.56-1.46 1.05-2.3.9-.84-.14-1.2-.8-1.26-1.07l1.62-.65zm7.85-3.87c-1.25.1-1.5 1.3-1.4 1.9l.6.66c.16-.37.77-1.09.96-1 .32.15-.24 1.2-.36 1.39-.2.3-.74.94-.92.8-.19-.13-.03-.78.16-1.01l-.57-.68c-.34.07-.77.42-.72 1.56.06 1.34.73 1.78 1.13 1.78.73 0 2.47-1.96 2.27-3.78-.16-1.46-.8-1.65-1.15-1.62zm1.08 3.83c-.09.81.53 1.13.87 1.2.29 0 .31-.34.36-.88 0-.13.02-.28.04-.43a5.2 5.2 0 01.58-1.49l.1-.18c-.1 2.2.31 2.67.87 2.83.45.13.78-.81.89-1.3.2.87.7 1.13.92 1.14.2.06.7-.03 1.05-.9.43-1.07.16-1.65-.18-1.65-.26 0-.44.5-.5.74-.21-.09-.33-.85-.37-1.22 0-.8-.16-2.35-.75-2.2-.58.16-.88 1.98-.95 2.87V20.4c0-.73-.3-.98-.46-1.02-.2-.02-.52.15-.77.67l-.3.73c-.1.28-.21.56-.3.75-.34.61-1.02 2.04-1.1 2.86zm8.67-4.65c0-.2-.09-.57-.48-.54-.23.02-.36.12-.58.28-.26.2-.65.49-1.5.88-.3.18-.68.54-.28 1.04.28.34.84.07.97-.14a4.37 4.37 0 00-.43 2.31c.12 1.39 1.64 1.23 1.82 1.19.17-.05 1.62-.8 1.34-1.82-.08-.12-.35-.29-.86 0-.29.3-.9.78-1.1.39-.2-.42.3-.64.62-.77l.15-.07h.01c.27-.14 1.06-.54.75-1.02-.25-.4-.95.02-1.27.27.04-.3.16-.97.36-1.28.16-.06.48-.3.48-.72zM17 34a2 2 0 00-2 2v8h10a2 2 0 002-2v-8H17zm0 2a1 1 0 011-1h7v7a1 1 0 01-1 1h-7v-7zm7.55 0H17.6v1H20v1.5h-2v1h2V41h-2.4v1h6l.8-.9-.8-.81h-1.25l.64.7H22V39.5h1.11l1-1H22V37h1.69l.86-1zM29 35v1h5v.5h-4v1h4v.5h-5v1h10.58l.86-1H36v-.5h3.4l.82-1H36V36h3.95l.99-1h-3.16l.83-1h-2.37l-.8 1h-.9l-.92-1h-2.19l.87 1H29zm0 5v1h5c-.82 1.63-1.86 2-5 2v1h1.77c2.5 0 3.89-1.51 4.23-2.1a6.07 6.07 0 004.27 2.1h1.6l-1-1c-2.73 0-3.49-1.33-3.83-1.94L36 41h4.03l.97-1h-5v-.5h-2v.5h-5z" fill="#EC0912"/></svg>