<!-- by TradingView --><svg width="56" height="56" viewBox="0 0 56 56" xmlns="http://www.w3.org/2000/svg"><path fill="#F0F3FA" d="M0 0h56v56H0z"/><path fill-rule="evenodd" d="M15.5 33a4.5 4.5 0 1 0 0-9 4.5 4.5 0 0 0 0 9Zm0-1.45a3.05 3.05 0 1 0 0-6.1 3.05 3.05 0 0 0 0 6.1ZM47.5 33a4.5 4.5 0 1 0 0-9 4.5 4.5 0 0 0 0 9Zm0-1.45a3.05 3.05 0 1 0 0-6.1 3.05 3.05 0 0 0 0 6.1Z" fill="#1C3B7C"/><path d="M42.42 31.49a4.6 4.6 0 0 1-8-2.99 4.6 4.6 0 0 1 7.52-3.45l-.87 1.17a3.12 3.12 0 0 0-2.07-.77c-1.71 0-3 1.36-3 3.05a2.99 2.99 0 0 0 3 3.05c.74 0 1.47-.25 2-.67V29h-2v-1h3.42v3.49ZM7 29h2v4H7z" fill="#1C3B7C"/><path d="M4 24h1.73l3.13 5.59H7.14L4 24Z" fill="#1C3B7C"/><path d="M12 24h-1.73l-3.13 5.59h1.72L12 24Z" fill="#1C3B7C"/><path d="M21 24h1.5v4H21v-4Z" fill="#E06E34"/><path d="M21 28.6h1.5v.88c0 1.03.98 1.86 2 1.86s2-.83 2-1.86V24H28l4.5 6.5V24H34v9h-1.5L28 26.5v3.3a3.2 3.2 0 0 1-3.2 3.2h-.6a3.2 3.2 0 0 1-3.2-3.2v-1.2Z" fill="#1C3B7C"/></svg>