<!-- by TradingView --><svg width="56" height="56" viewBox="0 0 56 56" xmlns="http://www.w3.org/2000/svg"><path fill="#F0F3FA" d="M0 0h56v56H0z"/><circle cx="28" cy="28" r="17" fill="#00382E"/><circle cx="28" cy="28" r="15.94" fill="#FCEBB6"/><circle cx="31.5" cy="18.5" r="3.5" fill="#00382E"/><circle cx="24.5" cy="26.5" r="2.5" fill="#00382E"/><path d="M23.14 15h5.17l-.16.24c-.14.2-.31.46-.48.76h-5.74c.42-.51.89-.84 1.21-1Zm-1.82 2h5.87c-.12.31-.21.65-.27 1h-5.88c.05-.37.15-.7.28-1ZM21 19h5.88c.02.37.08.7.17 1h-5.79c-.13-.3-.22-.63-.26-1Zm.97 2c.44.44.99.76 1.5 1h4.94a4.38 4.38 0 0 1-.9-1h-5.54Zm4.74 2h3.26l.44.23c.49.25.95.5 1.35.77h-3.59a3.38 3.38 0 0 0-1.46-1Zm1.97 2h4.06c.16.29.25.61.26 1h-4.2c0-.38-.04-.7-.12-1Zm0 2h4.21c-.22.98-.73 1.7-1.01 2h-4.15c.27-.35.73-1.12.95-2ZM16 22l11 15H16V22ZM40 22 29 37h11V22Z" fill="#00382E"/></svg>