<!-- by TradingView --><svg width="56" height="56" viewBox="0 0 56 56" xmlns="http://www.w3.org/2000/svg"><path fill="#F0F3FA" d="M0 0h56v56H0z"/><path d="M5.5 31H4l1-7h1.5L8 28l1.5-4H11l1 7h-1.5l-.5-4-1.5 4h-1L6 27l-.5 4ZM50.13 31c-.4 0-.76-.07-1.08-.22a1.87 1.87 0 0 1-.74-.59 1.64 1.64 0 0 1-.31-.85h1.4c.02.16.1.3.22.4.14.11.3.16.5.16.17 0 .3-.03.4-.1.1-.08.15-.17.15-.29 0-.14-.07-.24-.21-.3a3.7 3.7 0 0 0-.67-.23c-.33-.08-.6-.17-.83-.25-.22-.1-.41-.24-.57-.43-.16-.2-.24-.46-.24-.8 0-.27.07-.52.21-.75.15-.23.37-.42.65-.55.29-.13.63-.2 1.02-.2.58 0 1.03.15 1.37.45.33.3.53.7.58 1.2h-1.31a.6.6 0 0 0-.22-.4.7.7 0 0 0-.46-.14.6.6 0 0 0-.38.1.31.31 0 0 0-.14.27c0 .14.07.24.21.31.14.07.37.14.66.21.35.1.62.19.84.28.22.09.4.23.56.44.17.2.25.46.26.8 0 .28-.08.54-.23.77-.15.22-.37.4-.66.52-.28.13-.6.19-.98.19ZM45.08 31l-1.53-2.21V31H42v-7h1.55v3.87L45.08 26H47l-2.1 2.37L47 31h-1.92ZM39.06 26c.6 0 1.06.19 1.4.57.36.37.54.88.54 1.54V31h-1.53v-2.69c0-.33-.09-.58-.26-.77a.92.92 0 0 0-.7-.27c-.3 0-.53.09-.7.27-.18.19-.27.44-.27.77V31H36v-5h1.54v.7c.16-.2.37-.38.63-.5a2 2 0 0 1 .9-.2ZM30 28.5a3 3 0 0 1 .27-1.32c.19-.38.44-.67.76-.88.31-.2.67-.3 1.06-.3.33 0 .62.07.87.2.26.15.45.33.59.56V26H35v5h-1.45v-.76c-.14.23-.34.41-.6.55-.24.14-.54.21-.87.21-.38 0-.74-.1-1.05-.3-.32-.21-.57-.5-.76-.88a3.07 3.07 0 0 1-.27-1.33Zm3.55 0c0-.37-.1-.66-.3-.88a.95.95 0 0 0-.74-.32c-.29 0-.53.1-.74.32-.2.2-.3.5-.3.87s.1.67.3.89c.2.21.45.32.74.32.3 0 .53-.1.73-.32.2-.22.3-.5.3-.88Z"/><path d="M19 28.69c0-.46.09-.86.27-1.21a2.01 2.01 0 0 1 1.82-1.08c.3 0 .6.06.85.18.26.12.46.29.6.5V24H24v7h-1.45v-.7c-.14.2-.33.38-.59.5-.25.14-.54.2-.87.2-.4 0-.75-.1-1.06-.28-.32-.2-.57-.46-.76-.81a2.63 2.63 0 0 1-.27-1.22Zm3.55 0c0-.33-.1-.6-.3-.8a1 1 0 0 0-.74-.3c-.29 0-.53.1-.74.3-.2.19-.3.46-.3.8s.1.61.3.82c.2.2.45.3.74.3a1 1 0 0 0 .73-.3c.2-.2.3-.47.3-.81Z" fill="#171C61"/><path d="M29 28.69c0-.46-.09-.86-.27-1.21a2.01 2.01 0 0 0-1.82-1.08c-.3 0-.6.06-.85.18-.26.12-.46.29-.6.5V24H24v7h1.45v-.7c.14.2.33.38.59.5.25.14.54.2.87.2.4 0 .75-.1 1.06-.28.32-.2.57-.46.76-.81.18-.35.27-.76.27-1.22Zm-3.55 0c0-.33.1-.6.3-.8a1 1 0 0 1 .74-.3c.29 0 .53.1.74.3.2.19.3.46.3.8s-.1.61-.3.82c-.2.2-.45.3-.74.3a1 1 0 0 1-.73-.3c-.2-.2-.3-.47-.3-.81Z" fill="#EA5514"/><path d="M18 28.42c0 .14 0 .29-.03.44h-3.45c.02.3.12.53.3.7.17.15.39.23.64.23.39 0 .65-.16.8-.47h1.62a2.21 2.21 0 0 1-1.27 1.46c-.32.15-.69.22-1.1.22-.48 0-.91-.1-1.3-.3a2.2 2.2 0 0 1-.89-.88A2.64 2.64 0 0 1 13 28.5c0-.5.1-.95.31-1.32.22-.38.51-.67.9-.88.38-.2.81-.3 1.3-.3s.92.1 1.3.3c.37.2.66.48.87.84.21.37.32.8.32 1.28Zm-1.56-.39a.76.76 0 0 0-.27-.61 1 1 0 0 0-.67-.23 1 1 0 0 0-.65.22.97.97 0 0 0-.32.62h1.9Z"/></svg>