<!-- by TradingView --><svg width="56" height="56" viewBox="0 0 56 56" xmlns="http://www.w3.org/2000/svg"><path fill="#F0F3FA" d="M0 0h56v56H0z"/><path d="m27.01 14-1.75 6h-4.61c.2-1.05.46-2.07.8-3.04a4.14 4.14 0 0 1 3.8-2.96H27Z" fill="#26AAE1"/><path d="m40.9 36-2.5-7.29 4.28-13.62c.1-.31.3-.6.56-.79.26-.2.57-.3.9-.3h3.29c.5 0 .67.25.51.74L40.91 36Z" fill="#FFF200"/><path d="m25.26 20-.62 2.7c-.05.2-.17.3-.37.3h-7.95a2.27 2.27 0 0 0-2.21 1.8l-1.43 6.8a1.17 1.17 0 0 0 .65 1.3c.16.08.33.1.5.1h9.52c1.18 0 1.84-.48 1.98-1.47.25-1.85.78-3.92 1.15-5.76.4-1.96.85-3.27 1.37-3.93.88-1.15 2.3-1.74 4.24-1.79 1.03-.02 1.9.07 2.6.27.75.21 1.26.74 1.51 1.6.65 2.1 1.4 4.36 2.28 6.74l2.43 7.2c-2.64.54-4.5-.43-5.59-2.92a79.4 79.4 0 0 1-3.26-8.77c-.23-.78-.43-.77-.58.02-.48 2.6-1.1 5.51-1.83 8.74a3.15 3.15 0 0 1-1.4 1.98 5.5 5.5 0 0 1-2.18.76c-1.95.3-3.11.33-5.94.33h-7.58a5.86 5.86 0 0 1-2.91-.66c-1.86-1.14-1.83-2.95-1.4-5.02.48-2.32.8-3.84.97-4.58a8.1 8.1 0 0 1 1.28-3.23 6.2 6.2 0 0 1 2.99-2.1c.7-.22 1.88-.41 3.56-.41h8.22Z" fill="#C92434"/><path d="M20.13 36a27.12 27.12 0 0 1-.79 2.98 4.18 4.18 0 0 1-3.7 3.02H13.7l1.87-6h4.56Z" fill="#009449"/></svg>