<!-- by TradingView --><svg width="56" height="56" viewBox="0 0 56 56" xmlns="http://www.w3.org/2000/svg"><path fill="#F0F3FA" d="M0 0h56v56H0z"/><path d="m10.3 18.16-2.26 4.1c-.05.09-.05.2 0 .3l9.18 16.8c.12.2.42.2.53-.01l4.7-8.95c.1-.2-.04-.4-.26-.4h-4.53c-.1 0-.2-.11-.26-.21l-6.58-11.63a.3.3 0 0 0-.52 0Z" fill="#022F3B"/><path d="m20.7 18.16-2.26 4.1c-.05.09-.05.2 0 .3l9.2 17.28c.11.2.4.21.52.01l2.67-4.57a.32.32 0 0 0 0-.31l-9.6-16.82a.3.3 0 0 0-.53 0ZM31.96 18.17l-2.26 4.09c-.05.09-.05.2 0 .3l8.78 17.26c.1.22.4.23.52.02l2.67-4.56a.32.32 0 0 0 0-.3L32.5 18.16a.3.3 0 0 0-.53 0ZM44.08 29.44l-2.24-4.07a.32.32 0 0 1-.01-.28l3.16-6.88a.3.3 0 0 1 .53-.03l2.44 4.08c.05.09.05.2 0 .3l-3.35 6.87a.3.3 0 0 1-.53.01Z" fill="#022F3B"/></svg>