<!-- by TradingView --><svg width="56" height="56" viewBox="0 0 56 56" xmlns="http://www.w3.org/2000/svg"><path fill="#E70012" d="M0 0h56v56H0z"/><path fill-rule="evenodd" d="M8 23.25a1.25 1.25 0 1 1-2.5 0 1.25 1.25 0 0 1 2.5 0ZM5 26.5V25h3v6.5h.5V33h-2v-6.5H5ZM15 22h-2v.5H9V24h4v.5H9V26h8v2h2v-3.5h-4V24h4v-1.5h-4V22Zm-6 4.5h3.5v1H9v-1Zm3.5 1.5H9v1h3.5v-1ZM9 33v-1.39c1.31 0 2.3-.27 3.01-.61H9v-1.5h5v-3h2v3h3V31h-1.93c.67.3 1.44.5 1.93.61V33h-.6c-1.6 0-3.05-1.23-3.71-2h-.3c-.94 1.17-2.83 1.82-3.7 2H9Zm17-10.88h-2v.85h-2v1.5h2v2.03h-2V28h2v4.91h2V28h6v1.28c0 .96-.4 2.1-1.64 2.1-1 0-1.44-.43-1.54-.64l-1.32 1.03c.3.38 1.29 1.14 2.86 1.14a3.52 3.52 0 0 0 3.64-3.2V26.5h-3.73c.55-.44.71-1.46.73-2.03v-1.5h-5v-.85Zm0 2.35v2.03h2.4c.37-.21.9-.8.93-2.03H26Zm6.75.53a1.25 1.25 0 1 0 0-2.5 1.25 1.25 0 0 0 0 2.5Zm8.4 7.28c.63 0 1.15-.51 1.15-1.14 0-.63-.52-1.14-1.15-1.14-.64 0-1.15.51-1.15 1.14 0 .63.51 1.14 1.15 1.14ZM38.47 22h1.62v1h2.41v6.04H38v2.48h1.9V33H36V23h2.47v-1ZM38 24.5h3v3h-3v-.39h2.5V25.5H38v-1Zm7 8.5h-2V22h6.92v.86l-2.11 2.3c.97.28 3.19 1.27 3.19 3.72 0 3.25-2.68 4.1-4.02 4.12H45.3l.4-1.59c1.15.01 3.42-.43 3.42-2.28 0-1.65-1.53-2.41-2.54-2.65L45 28.19V33Zm0-9.56v2.69l2.47-2.7H45Z" fill="#fff"/></svg>