<!-- by TradingView --><svg width="56" height="56" xmlns="http://www.w3.org/2000/svg"><path fill="#F0F3FA" d="M0 0h56v56H0z"/><path d="M12.712 35.086c4.05 1.672 11.854 3.254 15.345 3.814 6.01-.867 12.46-2.71 15.242-3.777 3.822-1.74 4.043-3.856 4.171-5.075l.004-.035s.41-4.325.522-7.068c.111-2.743-2.125-2.922-4.076-2.922l-15.863-.926c-4.512.244-14.246.783-17.085.98-2.84.195-3.082 2.022-2.942 3.292l.48 6.251c.195 3.247 2.369 4.71 4.202 5.466z" fill="url(#paint0_linear)" stroke="#080300" stroke-width=".2"/><path d="M28.04 29.598L10.267 27.92c0 .257.037 1.097.183 2.4s1.627 2.335 2.349 2.688c2.51 1.482 11.207 3.161 15.24 3.816 4.452-.497 11.929-2.388 15.023-3.667 2.142-1.006 2.675-2.782 2.674-3.544l.123-1.69-17.82 1.675z" fill="url(#paint1_linear)"/><path d="M23.633 31.266l-.743-.715.087 4.34.707-.403-.051-3.222z" fill="#4F4F4F"/><path d="M22.898 30.578l-.688-.699v5.453l.778-.445-.09-4.309zm10.282-.023l.64-.689v5.482l-.695-.485.055-4.308z" fill="#252525"/><path d="M23.605 31.281l-.738-.75 5.162.61v.68l-4.424-.54z" fill="#6A6868"/><path d="M32.496 31.262l.68-.71-5.148.585v.695l4.468-.57z" fill="#3F3A39"/><path d="M28.057 38.9c-3.491-.56-11.296-2.142-15.345-3.814-1.833-.757-4.007-2.219-4.202-5.466l-.13-3.086v-.031.03c.017.348.228 3.577 2.36 5.874.52.56 1.36 1.238 3.004 1.862 4.634 1.759 13.28 3.45 14.313 3.382 2.887-.195 15.778-2.786 17.259-5.244 0 0 1.74-1.74 2.37-5.89l-.212 3.496-.004.035c-.128 1.22-.35 3.335-4.17 5.076-2.782 1.065-9.232 2.91-15.243 3.776z" fill="url(#paint2_linear)"/><path d="M9.462 23.822c-.012-1.05.654-1.492.989-1.583-.43.407-.504 1-.487 1.246.121 2.028.387 6.209.487 6.71.109.547.073 1.712 3.26 3.265 2.55 1.243 10.641 2.773 14.367 3.383 2.65-.195 13.112-2.541 15.405-3.909 1.921-1.145 2.228-2.601 2.25-3.297l.394-6.098c0-.832-.35-1.213-.524-1.3a1.493 1.493 0 011.049 1.583c-.052 1.401-.229 4.665-.525 6.51-.296 1.847-1.584 2.855-2.19 3.128-4.344 2.288-12.383 3.742-15.859 4.182-8.564-1.166-14.198-3.274-15.944-4.182-1.652-.91-2.095-2.464-2.11-3.127-.182-1.733-.55-5.462-.562-6.511z" fill="url(#paint3_linear)" stroke="#F0DEB2" stroke-width=".2"/><path d="M11.095 21.788c-1.502.034-1.708 1.13-1.623 1.674.233-1.15.894-1.282 1.971-1.532.862-.2 11.464-.652 16.658-.853 5.015.228 16.256.914 16.738.992 1.354.22 1.77.946 1.809 1.298.093-1.33-1.167-1.624-1.81-1.604-4.797-.32-14.862-.958-16.737-.94-1.876.017-12.119.65-17.006.965z" fill="url(#paint4_linear)"/><path d="M10.598 26.473l-.457.386-.173-3.247c.042-1.321.4-1.555 1.803-1.74 1.403-.185 14.037-.826 16.26-.915 1.779-.072 12.109.709 17.052 1.108 1.012.065 1.117 1.218 1.044 1.787l-.211 3.008-.416-.415.19-2.785c-.091-.738-.094-1.171-1.07-1.4-.844-.196-6.07-.446-8.577-.592-.185-.037-.593-.156-.762-.156-.168 0-.69.064-.937.064-3.304-.355-9.8-.242-12.547-.03-.155-.02-.57-.02-1.012.032-.442.052-.787.062-.9.117-1.43.065-7.082.359-8.366.555-1.026.157-1.164.925-1.104 1.29l.183 2.933z" fill="#412C13"/><path d="M10.98 22.776l-.178-.247c-.358.199-.436.7-.389 1.092l.177 2.868.448-.545-.059-3.168zm34.133.029l.207-.266c.359.2.418.833.39 1.094l-.205 2.877-.448-.545.056-3.16z" fill="#232222"/><path d="M12.216 22.14c-.754.085-1.199.195-1.414.394l.183.27 8.175-.448.716-.547.071-.201c-2.263.142-6.977.447-7.73.532z" fill="#1C1B1B"/><path d="M43.879 22.148c.754.086 1.012.137 1.45.395l-.216.281-8.172-.445-.723-.549-.07-.2c2.262.141 6.977.433 7.73.518z" fill="#292B2B"/><path d="M19.633 27.012l.255-5.227-.73.557-.189 4.065.664.605z" fill="#232222"/><path d="M36.442 27.02l-.236-5.213.74.525.18 4.096-.684.593z" fill="#292B2B"/><path d="M19.652 27.01l-9.05-.545.436-.557 7.931.498.683.604z" fill="#1C1B1B"/><path d="M36.43 27.012l9.063-.525-.436-.557-7.931.497-.696.585z" fill="#393331"/><path d="M11.403 23.112l-.436-.344.064 3.185.453-.55-.081-2.291zm33.288.021l.436-.343-.068 3.19-.485-.578.117-2.269z" fill="#4F4F4F"/><path d="M19.18 22.348l-8.211.445.434.33 6.977-.272.8-.503zm17.769.016l8.188.429-.446.352-6.976-.272-.766-.51z" fill="#575656"/><path d="M18.977 26.426l.18-4.072-.777.486-.142 2.95-6.752-.39-.455.53 7.946.496z" fill="#141313"/><path d="M18.39 22.84l-7 .265.087 2.305 6.77.39.144-2.96z" fill="url(#paint5_linear)"/><path d="M37.738 22.873l6.953.272-.106 2.275-6.705.38-.142-2.927z" fill="url(#paint6_linear)"/><path d="M17.66 23.218l-6.068.13.094 1.458 5.88.273.095-1.86z" fill="url(#paint7_linear)"/><path d="M38.434 23.24l6.069.13-.094 1.458-5.881.272-.094-1.86z" fill="url(#paint8_linear)"/><path d="M37.762 22.87l-.828-.527.18 4.099.77-.653-.122-2.919z" fill="#141313"/><path d="M44.593 25.413l-6.718.368-.77.66 7.933-.508-.445-.52z" fill="#252525"/><path d="M20.053 21.627l-.174.049L19.634 27l.26.33.159-5.703z" fill="#453C1E"/><path d="M20.777 21.456c-.045 0-.515.132-.734.196l-.137 5.678.871.205c.02-2.026.046-6.079 0-6.079z" fill="url(#paint9_linear)"/><path d="M21.683 21.49h-.894v6.045l1.2-.136-.306-5.909z" fill="url(#paint10_linear)"/><path d="M21.853 21.593l-.181-.105.316 5.922.352-.228-.487-5.59z" fill="#453C1E"/><path d="M34.398 21.508l-.175.07-.473 5.598.383.226.265-5.894z" fill="#685C4E"/><path d="M35.33 21.473l-.942.044-.253 5.886 1.196.122v-6.052z" fill="url(#paint11_linear)"/><path d="M36.046 21.605l-.733-.128.026 6.057.855-.175-.148-5.755z" fill="url(#paint12_linear)"/><path d="M36.219 21.719c.007-.063-.134-.094-.184-.117l.16 5.765.258-.37-.234-5.278z" fill="#685C4E"/><path d="M28.018 21.15l-6.284.374.12.081v.13l6.21-.25 6.168.265.03-.164.104-.062-6.348-.374z" fill="#050200"/><path d="M28.06 21.471l-6.197.263.684.465 5.513-.195v-.533z" fill="#01327A"/><path d="M28.04 21.473l6.204.263-.672.445-5.533-.185v-.523zm-5.49.716l-.685-.455.467 5.453.645-.644-.426-4.354z" fill="#00479D"/><path d="M33.558 22.184l.657-.44-.45 5.46-.652-.65.445-4.37z" fill="#00479D"/><path d="M23.317 22.648l-.771-.464.434 4.382.616-.656-.279-3.262z" fill="#0086D1"/><path d="M32.792 22.643l.771-.464-.43 4.4-.637-.653.296-3.283z" fill="#023894"/><path d="M28.043 21.99l-5.52.194.782.458 4.738-.161v-.492z" fill="#006EBC"/><path d="M28.027 21.984l5.575.188-.801.492-4.774-.18v-.5z" fill="#005BAC"/><path d="M28.046 22.477l-4.735.166.292 3.262 4.443.23v-3.658z" fill="url(#paint13_linear)"/><path d="M28.043 22.477l4.766.171-.286 3.27-4.48.217v-3.658z" fill="#1092D4"/><path d="M28.046 26.136l-4.44-.237-.622.65 5.062.253v-.666z" fill="#023894"/><path d="M28.043 26.136l4.45-.237.624.65-5.074.253v-.666z" fill="#00327B"/><path d="M28.046 27.496l-5.73-.312.668-.647 5.062.26v.7z" fill="url(#paint14_linear)"/><path d="M28.043 27.504l5.746-.32-.674-.647-5.072.26v.707z" fill="url(#paint15_linear)"/><path d="M10.608 26.444l-.466.407.085.678c.246-.611.83-.645 1.154-.616l9.372.616-.859-.222-.233-.296-9.053-.567z" fill="#665132"/><path d="M45.53 26.446l.38.401-.045.687c-.24-.679-.806-.659-1.15-.634l-9.376.634.863-.176.224-.346 9.104-.566z" fill="#51412A"/><path d="M21.985 27.4l-1.205.14 7.255.502 7.304-.509-1.204-.131-.375-.237-5.725.319-5.698-.307-.352.223z" fill="#56452D"/><path d="M11.414 26.916c-1.135-.014-1.244.661-1.157 1l17.797 1.7 17.822-1.693c.068-1.058-.819-1.08-1.36-1.015l-16.462 1.139c-5.074-.371-15.506-1.117-16.64-1.13z" fill="url(#paint16_linear)"/><path d="M19.782 29.582l-9.133-1.09.64.574 8.02 1.016.473-.5z" fill="#004E82"/><path d="M36.234 29.57l9.166-1.11-.625.557-8.021 1.042-.519-.49z" fill="#003153"/><path d="M12.688 32.39c-1.792-1.014-2.106-3.022-2.04-3.898l.614.545c.176 1.35.415 2.218 2.265 3.19 1.48.777 4.72 1.743 6.16 2.118l.52.415v.142l-.049-.013c-2.62-.709-5.854-1.584-7.47-2.499zm30.672-.03c1.791-1.014 2.106-3.022 2.039-3.899l-.613.545c-.177 1.351-.4 2.24-2.25 3.212-1.481.777-4.735 1.722-6.176 2.097l-.519.415v.142l.049-.013c2.62-.709 5.853-1.584 7.47-2.5z" fill="#0054A7"/><path d="M13.626 32.29c1.53.78 4.696 1.71 6.078 2.068l-.888-.893c-3.3-.814-4.818-1.438-5.362-1.767-1.276-.73-1.62-1.685-1.632-2.072l-.56-.59c.147 1.393.45 2.28 2.364 3.254zm28.834-.014c-1.53.78-4.718 1.698-6.1 2.056l.882-.871c3.3-.814 4.808-1.464 5.352-1.793 1.276-.73 1.62-1.686 1.631-2.072l.568-.588c-.147 1.394-.42 2.293-2.333 3.268z" fill="#00327B"/><path d="M19.684 34.363l-.391-4.28.477-.513.43 5.187-.516-.394zm16.703-.063l.368-4.248-.479-.456-.429 5.131.54-.426z" fill="#062C87"/><path d="M19.28 30.07l-8.018-1.03.548.586 6.71 1.085.76-.64zm17.445-.023l8.072-1.04-.56.589-6.682 1.106-.83-.655z" fill="#005BAC"/><path d="M19.695 34.348l-.406-4.305-.781.656.27 2.775.917.874zm16.676-.032l.371-4.264.798.617-.27 2.775-.899.872z" fill="#00479D"/><path d="M14.517 32.205c-2.13-.752-2.692-2.065-2.708-2.592l6.699 1.078.294 2.784c-1.073-.252-2.058-.484-4.285-1.27z" fill="url(#paint17_linear)"/><path d="M41.552 32.191c2.08-.76 2.68-2.08 2.696-2.605l-6.708 1.108-.29 2.787c1.073-.252 2.084-.48 4.302-1.29z" fill="url(#paint18_linear)"/><path d="M19.953 29.527l-.195.055.44 5.277.18.247-.425-5.579z" fill="#352E17"/><path d="M20.785 29.527h-.832l.416 5.57.756.361-.34-5.93z" fill="url(#paint19_linear)"/><path d="M21.881 29.708l-1.106-.18.35 5.93h.88l-.124-5.75z" fill="url(#paint20_linear)"/><path d="M22.212 29.86l-.34-.15.12 5.747.25-.133-.03-5.464z" fill="#352E17"/><path d="M36.056 29.524l.25.08-.458 5.267-.185.254.393-5.601zm-1.886.174l-.35.153v5.493l.208.143.141-5.789z" fill="#40372E"/><path d="M35.275 29.527l-1.096.181-.151 5.788h.87l.377-5.969z" fill="url(#paint21_linear)"/><path d="M36.07 29.527h-.785l-.388 5.988.766-.39.406-5.598z" fill="url(#paint22_linear)"/><path d="M28.032 30.457l-5.845-.594.68.711 5.165.578v-.695z" fill="url(#paint23_linear)"/><path d="M28.032 30.457l5.819-.59-.628.692-5.19.593v-.695z" fill="url(#paint24_linear)"/><path d="M33.19 30.535l-.703.717-.059 3.236.713.396.05-4.349z" fill="#000"/><path d="M28.056 36.326l-5.86-1.002.788-.453 5.072.797v.658z" fill="#3F3A39"/><path d="M28.04 36.317l5.786-.97-.676-.482-5.11.795v.657z" fill="#000"/><path d="M23.677 34.468l-.723.413 5.082.804v-.544l-4.36-.672z" fill="#252525"/><path d="M32.438 34.48l-4.411.66v.545l5.13-.814-.72-.39z" fill="#252525"/><path d="M28.019 31.801l-4.415-.537.062 3.204 4.353.69 4.422-.678.055-3.238-4.477.56z" fill="url(#paint25_linear)"/><path d="M28.021 32.28l-3.774-.393.043 2.286 3.731.536V32.28z" fill="#8E959C"/><path d="M28.021 32.28l3.774-.393-.043 2.286-3.73.536V32.28z" fill="#5A5858"/><defs><linearGradient id="paint0_linear" x1="28" y1="19.097" x2="28" y2="35.773" gradientUnits="userSpaceOnUse"><stop stop-color="#FEF8EC"/><stop offset="1" stop-color="#916E58"/></linearGradient><linearGradient id="paint1_linear" x1="31.771" y1="29.447" x2="25.266" y2="36.12" gradientUnits="userSpaceOnUse"><stop stop-color="#51422C"/><stop offset="1" stop-color="#7C644A"/></linearGradient><linearGradient id="paint2_linear" x1="8.523" y1="30.034" x2="47.398" y2="30.782" gradientUnits="userSpaceOnUse"><stop stop-color="#553F1C"/><stop offset="1" stop-color="#120903"/></linearGradient><linearGradient id="paint3_linear" x1="28.061" y1="22.239" x2="28.061" y2="37.642" gradientUnits="userSpaceOnUse"><stop stop-color="#E6C892"/><stop offset=".63" stop-color="#937959"/><stop offset="1" stop-color="#F2E3CA"/></linearGradient><linearGradient id="paint4_linear" x1="46.653" y1="22.142" x2="9.456" y2="22.48" gradientUnits="userSpaceOnUse"><stop stop-color="#987D5B"/><stop offset=".496" stop-color="#2A160E"/><stop offset="1" stop-color="#A38962"/></linearGradient><linearGradient id="paint5_linear" x1="11.596" y1="23.412" x2="18.105" y2="25.755" gradientUnits="userSpaceOnUse"><stop stop-color="#869399"/><stop offset="1" stop-color="#6D6F77"/></linearGradient><linearGradient id="paint6_linear" x1="37.738" y1="23.068" x2="44.698" y2="25.142" gradientUnits="userSpaceOnUse"><stop stop-color="#858F96"/><stop offset="1" stop-color="#6C6E77"/></linearGradient><linearGradient id="paint7_linear" x1="11.788" y1="23.605" x2="17.665" y2="25.064" gradientUnits="userSpaceOnUse"><stop stop-color="#9AA9B0"/><stop offset="1" stop-color="#737A7E"/></linearGradient><linearGradient id="paint8_linear" x1="38.434" y1="23.487" x2="44.505" y2="24.69" gradientUnits="userSpaceOnUse"><stop stop-color="#98A4AA"/><stop offset="1" stop-color="#71767B"/></linearGradient><linearGradient id="paint9_linear" x1="20.354" y1="21.456" x2="20.354" y2="27.535" gradientUnits="userSpaceOnUse"><stop stop-color="#6B594B"/><stop offset=".532" stop-color="#FBEDD1"/><stop offset="1" stop-color="#E3CDAE"/></linearGradient><linearGradient id="paint10_linear" x1="21.389" y1="21.491" x2="21.389" y2="27.535" gradientUnits="userSpaceOnUse"><stop stop-color="#352A24"/><stop offset=".504" stop-color="#C6A77D"/><stop offset="1" stop-color="#BEA281"/></linearGradient><linearGradient id="paint11_linear" x1="34.733" y1="21.473" x2="34.733" y2="27.525" gradientUnits="userSpaceOnUse"><stop stop-color="#625244"/><stop offset=".5" stop-color="#F8EACD"/><stop offset="1" stop-color="#E3CDAE"/></linearGradient><linearGradient id="paint12_linear" x1="35.767" y1="21.473" x2="35.767" y2="27.534" gradientUnits="userSpaceOnUse"><stop stop-color="#3E322B"/><stop offset=".499" stop-color="#CBAC7F"/><stop offset="1" stop-color="#BBA081"/></linearGradient><linearGradient id="paint13_linear" x1="23.52" y1="24.306" x2="28.046" y2="24.306" gradientUnits="userSpaceOnUse"><stop stop-color="#ABD6F2"/><stop offset="1" stop-color="#6FC3EE"/></linearGradient><linearGradient id="paint14_linear" x1="25.195" y1="26.537" x2="25.195" y2="27.474" gradientUnits="userSpaceOnUse"><stop stop-color="#005BAC"/><stop offset="1" stop-color="#00213E"/></linearGradient><linearGradient id="paint15_linear" x1="30.9" y1="26.537" x2="30.9" y2="27.474" gradientUnits="userSpaceOnUse"><stop stop-color="#00479D"/><stop offset="1" stop-color="#001D40"/></linearGradient><linearGradient id="paint16_linear" x1="28.057" y1="27.902" x2="28.057" y2="29.615" gradientUnits="userSpaceOnUse"><stop stop-color="#FDE6BE"/><stop offset=".524" stop-color="#FCFBF9"/><stop offset="1" stop-color="#CBB89B"/></linearGradient><linearGradient id="paint17_linear" x1="12.344" y1="30.083" x2="18.561" y2="33.154" gradientUnits="userSpaceOnUse"><stop stop-color="#99D2F3"/><stop offset="1" stop-color="#0099DF"/></linearGradient><linearGradient id="paint18_linear" x1="37.592" y1="30.704" x2="42.57" y2="31.524" gradientUnits="userSpaceOnUse"><stop stop-color="#99D2F3"/><stop offset="1" stop-color="#11ADE6"/></linearGradient><linearGradient id="paint19_linear" x1="20.539" y1="29.527" x2="20.539" y2="35.458" gradientUnits="userSpaceOnUse"><stop stop-color="#524439"/><stop offset=".498" stop-color="#F9EACF"/><stop offset="1" stop-color="#E3CDAE"/></linearGradient><linearGradient id="paint20_linear" x1="21.39" y1="29.527" x2="21.39" y2="35.458" gradientUnits="userSpaceOnUse"><stop stop-color="#322822"/><stop offset=".476" stop-color="#C5A67D"/><stop offset="1" stop-color="#BBA081"/></linearGradient><linearGradient id="paint21_linear" x1="34.651" y1="29.527" x2="34.651" y2="35.496" gradientUnits="userSpaceOnUse"><stop stop-color="#615144"/><stop offset=".445" stop-color="#FCEED2"/><stop offset="1" stop-color="#E3CDAE"/></linearGradient><linearGradient id="paint22_linear" x1="35.483" y1="29.527" x2="35.483" y2="35.515" gradientUnits="userSpaceOnUse"><stop stop-color="#2B221D"/><stop offset=".488" stop-color="#C6A77E"/><stop offset="1" stop-color="#BBA081"/></linearGradient><linearGradient id="paint23_linear" x1="25.123" y1="29.866" x2="25.123" y2="31.152" gradientUnits="userSpaceOnUse"><stop stop-color="#1A1107"/><stop offset="1" stop-color="#403D3C"/></linearGradient><linearGradient id="paint24_linear" x1="30.942" y1="29.866" x2="30.942" y2="31.152" gradientUnits="userSpaceOnUse"><stop stop-color="#090605"/><stop offset="1" stop-color="#2F2725"/></linearGradient><linearGradient id="paint25_linear" x1="23.604" y1="32.919" x2="32.478" y2="33.208" gradientUnits="userSpaceOnUse"><stop stop-color="#939CA3"/><stop offset="1" stop-color="#545151"/></linearGradient></defs></svg>