<!-- by TradingView --><svg width="56" height="56" viewBox="0 0 56 56" xmlns="http://www.w3.org/2000/svg"><path fill="#F0F3FA" d="M0 0h56v56H0z"/><path d="M39.5 13c1.57.33 2.62 1.13 3.16 2.41.21.51.33 1.3.34 2.34v9.74a28.36 28.36 0 0 1-7.7 6.47A49 49 0 0 1 29.13 37a40.65 40.65 0 0 1-9.62 2.63c-.6.09-1.24.15-1.93.2-1.7.09-2.86.06-4.58-.21v-13.3c.86-.72 1.6-1.17 2.58-1.82l2.24-1.47c.24-.16.27-.13.09.09-.3.36-.69.75-1.17 1.17-.03.03-.03.05 0 .08l.08.07c.03.02.06.02.08 0l1.16-1.14a.16.16 0 0 1 .13-.05.16.16 0 0 1 .12.07c.16.24.37.37.64.37.15.14.18.34.07.62 4.89 5.66 5.4 5.36 5.4 7.65 1.46 1.72 3.2 2.9 5.92 2.03C35.1 32.47 33 23.12 25.8 22.96c-1.14.35-2.3.95-3.52 1.8a.15.15 0 0 1-.17 0l-.34-.25-.88-.98a.23.23 0 0 1 0-.3c.26-.28.38-.62.37-1.01l.02-.06 1.95-.08c.02 0 .04-.01.05-.03a.12.12 0 0 0 .03-.05c0-.05-.01-.08-.07-.08l-2.03-.08a.53.53 0 0 0-.04-.03c-.07-.37-.3-.7-.67-.97.16-.12.26-.24.32-.36.04-.09.02-.1-.07-.05l-.48.32a.88.88 0 0 0-.9-.07l-.09-1.32a7.6 7.6 0 0 0-.02-2.02c-.04-.27-.09-.27-.14 0-.12.62-.14 1.3-.06 2.02l-.02 1.1a.52.52 0 0 1-.32.47.54.54 0 0 1-.57-.1l-1.79-1.57a13.65 13.65 0 0 0 1.65 1.67c.24.21.22.5-.08.85l-2.59.19c-.02 0-.03.01-.03.04l-.01.05 2.25.13c.38.02.41.14.09.34L13 25.5v-8.35c0-2.24.98-3.63 3.3-4.16h23.2Z" fill="#005CA2"/><path d="M19.29 19.36a.42.42 0 0 1-.23 0c-.08-.72-.06-1.4.06-2.02.06-.27.1-.27.14 0 .1.63.1 1.3.02 2.02Z" fill="#348AC2"/><path d="m37.93 17.73-.05.84c0 .08-.05.12-.13.12l-.86.08c-.1-.32-.11-.65-.03-1 .02-.07.07-.1.15-.1l.92.06Z" fill="#E8020A"/><path d="m36.9 18.77.85-.08c.08 0 .12-.04.13-.12l.05-.84c.1.29.12.6.04.93a.2.2 0 0 1-.15.15 1.5 1.5 0 0 1-.93-.04Z" fill="#348AC2"/><path d="M19.06 19.37c.06.02.14.02.22 0l.08 1.31c.01.19.05.35.11.48a.18.18 0 0 0 .13.1.18.18 0 0 0 .16-.04l.51-.47.48-.32c.09-.06.1-.04.07.05a1.1 1.1 0 0 1-.32.36l-.56.66a.15.15 0 0 0-.04.13.14.14 0 0 0 .1.1c.36.14.75.16 1.17.08l.04.03c.1.07.12.18.07.32l-.02.06c-.43-.1-.84-.1-1.23 0-.07.02-.1.07-.09.15.04.2.16.38.36.53.03.02.03.04.02.07l-.03.1a.06.06 0 0 1-.05.05h-.04a.07.07 0 0 1-.03-.02c-.16-.18-.33-.3-.52-.37-.1-.04-.15 0-.17.09l-.2.85c-.03.1.01.16.12.17l.53.03c1.07 2.56 2.15 5.51 3.23 8.06.14.33.28.52.76.58.07.01.12.05.14.12.03.13 0 .19-.14.37H20.8c-.07 0-.12-.05-.15-.12a.58.58 0 0 1-.01-.26.14.14 0 0 1 .15-.12c.17.02.34 0 .5-.03.33-.06.45-.24.34-.53l-.67-1.8c-.03-.09-.1-.13-.19-.13H17.7c-.11 0-.19.05-.23.15l-.64 1.73a.4.4 0 0 0 0 .3c.05.1.13.18.22.22.18.08.38.1.62.1.13 0 .2.05.2.18v.1c0 .13-.07.21-.21.21h-2.6c-.15 0-.22-.08-.22-.23v-.09c0-.05.01-.1.05-.13a.2.2 0 0 1 .12-.06c.6-.05.98-.26 1.13-.63.65-1.62 1.61-4.4 2.88-7.55.1-.28.08-.48-.07-.62.09-.25.05-.44-.13-.59a.28.28 0 0 0-.18-.07h-.46c-.06 0-.08-.02-.06-.07.1-.32.04-.56-.17-.73a.2.2 0 0 1-.06-.08.18.18 0 0 1-.01-.1l.05-.27c.3-.36.32-.64.08-.85a13.66 13.66 0 0 1-1.65-1.67l1.8 1.58a.54.54 0 0 0 .8-.1.52.52 0 0 0 .08-.29l.02-1.08Z" fill="#fff"/><path d="M36.52 19.2H35a.13.13 0 0 0-.14.14v1.49c0 .07.07.13.14.13h1.52c.07 0 .13-.06.13-.13v-1.5a.13.13 0 0 0-.13-.13Z" fill="#0BA95E"/><path d="m20.27 20.75-.51.47a.18.18 0 0 1-.16.04.19.19 0 0 1-.13-.1 1.3 1.3 0 0 1-.1-.48c.3-.15.6-.12.9.07ZM20.5 20.84c.38.27.6.6.67.97-.42.08-.81.06-1.17-.08a.15.15 0 0 1-.1-.1.14.14 0 0 1 .04-.13l.56-.66Z" fill="#6D9BC5"/><path d="M32.8 26.06c-.19-.12-.27-.04-.25.24 0 .09.03.15.08.18a.4.4 0 0 0 .22.06c.41 2.65.8 6.4-2.5 7.45-2.72.87-4.81.44-6.27-1.29.13-.18.18-.34.15-.47-.02-.07-.06-.11-.14-.12-.48-.06-.79-.25-.93-.58-1.08-2.55-2.1-4.67-3.23-7.66l.65-.28a.16.16 0 0 1 .19.02l1 .9.34.25a.15.15 0 0 0 .17 0c1.21-.85 2.38-1.45 3.52-1.8 2.1-.65 4.39-.38 5.81 1.28.37.43.76 1.04 1.2 1.82Z" fill="#005CA2"/><path d="M38.5 21.58h-1.58a.1.1 0 0 0-.1.1v1.55c0 .06.04.1.1.1h1.57a.1.1 0 0 0 .1-.1V21.7a.1.1 0 0 0-.1-.1Z" fill="#FFE101"/><path d="m17.93 21.78-.05.27v.1a.2.2 0 0 0 .07.08c.21.17.27.41.17.73-.02.05 0 .07.06.07h.46c.06 0 .12.03.18.07.18.15.22.34.13.59a.75.75 0 0 1-.64-.37.15.15 0 0 0-.12-.07.16.16 0 0 0-.13.05l-1.16 1.13c-.02.03-.05.03-.08 0l-.08-.06c-.03-.03-.03-.05 0-.08.48-.42.87-.81 1.17-1.17.18-.22.15-.25-.09-.1l-2.24 1.48a30.4 30.4 0 0 0-2.76 2.05 18.65 18.65 0 0 0-4.56 4.9c-2.55 4.33.16 7.5 4.57 8.17 1.72.27 3.06.3 4.75.2.69-.04 1.33-.1 1.93-.19A40.66 40.66 0 0 0 29.13 37l2.6 1.09a43.47 43.47 0 0 1-11.1 2.84c-2.2.26-3.75.35-4.65.26l-2.67-.28c-1.56-.26-3-.75-4.3-1.49A5.78 5.78 0 0 1 6 35.26v-1.32c.64-3.58 3.83-6.31 6.82-8.43l4.82-2.98c.32-.2.3-.32-.1-.34l-2.24-.13v-.05c0-.03.02-.04.04-.04l2.59-.19Z" fill="#6D9BC5"/><path d="M21.28 22.16c.05-.14.02-.25-.07-.32l2.04.08c.05 0 .07.03.06.07l-.03.06a.06.06 0 0 1-.05.03l-1.95.08Z" fill="#348AC2"/><path d="M21.26 22.22c0 .39-.11.73-.36 1a.23.23 0 0 0 0 .31l.87.98-1-.9a.16.16 0 0 0-.2-.02l-.64.28-.53-.03c-.1 0-.15-.06-.13-.17l.2-.85c.03-.1.09-.13.18-.1.19.07.36.2.52.38a.07.07 0 0 0 .1 0l.02-.02.03-.1c.01-.04 0-.06-.02-.08a.9.9 0 0 1-.36-.53c-.01-.08.02-.13.1-.14.38-.1.8-.1 1.22-.01Z" fill="#6D9BC5"/><path d="M33.12 26.3a.4.4 0 0 1-.22-.07c-.05-.04-.08-.1-.09-.2-.02-.29.07-.37.26-.25.87-.57 1.31-1.45 1.34-2.65 0-.09.04-.13.12-.13h.35c.08 0 .12.04.12.13v2.37c0 .07.04.11.11.11h1.53c.1 0 .15.05.14.16l-.02.36c0 .08-.05.13-.13.13h-1.5c-.09 0-.13.04-.13.13v4.67c0 .13.06.32.18.57.4.9 1.13.3 1.55-.15a.23.23 0 0 1 .25-.06c.21.07.27.2.16.38-.63 1.04-1.5 1.4-2.63 1.1-.82-.23-.96-1.99-.93-2.69l.02-3.8c0-.1-.04-.14-.12-.15a.95.95 0 0 0-.36.03Z" fill="#fff"/><path fill-rule="evenodd" d="m27.54 28.76 2-.08c.81-.1 1.38-.5 1.7-1.16.45-.97.35-2.62-.82-3.1a4.54 4.54 0 0 0-1.6-.37c-1.5-.05-2.83-.06-3.97-.03-.09 0-.13.04-.14.13a.5.5 0 0 0 .02.23c.02.05.07.09.17.1l.29.06c.44.07.8.13.81.79v6.36c0 .68-.53.75-1.04.82l-.15.02c-.09 0-.13.06-.12.15l.01.17c.01.1.06.15.16.15h3.6a.16.16 0 0 0 .17-.17v-.13c0-.12-.06-.18-.17-.2-.76-.07-1.2-.21-1.13-1.1l.02-2.45c0-.05.02-.1.05-.13a.2.2 0 0 1 .14-.06Zm-.16-4.27a.2.2 0 0 0-.06.13v3.45a.2.2 0 0 0 .2.2h.83a1.68 1.68 0 0 0 1.67-1.68v-.49a1.67 1.67 0 0 0-1.67-1.67h-.84a.2.2 0 0 0-.13.06Z" fill="#fff"/><path d="m19.18 25.45.03.01.01.02a104 104 0 0 0 1.36 3.43l-.01.04a.1.1 0 0 1-.03.03l-.05.02h-2.6a.1.1 0 0 1-.08-.04.09.09 0 0 1 0-.08 105.27 105.27 0 0 0 1.34-3.42l.03-.01ZM43 31.58v6.8c-.01.97-.1 1.69-.3 2.13a4.02 4.02 0 0 1-2.21 2.2c-.45.2-1.26.29-2.44.29h-20.3a7 7 0 0 1-2.5-.32 4.02 4.02 0 0 1-1.94-1.77c.92.1 1.81.2 2.67.28.9.09 2.45 0 4.65-.26 3.8-.45 7.5-1.4 11.1-2.84A41.5 41.5 0 0 0 43 31.58Z" fill="#005CA2"/></svg>