<!-- by TradingView --><svg width="56" height="56" viewBox="0 0 56 56" xmlns="http://www.w3.org/2000/svg"><path fill="#F0F3FA" d="M0 0h56v56H0z"/><path fill-rule="evenodd" d="M6 21h2.04l.44 1.57.81-1.57h1.97l-1.97 3.23L8.87 27H7l.39-2.77L6 21Zm5.36 0-.97 6h1.78l.83-6h-1.64Zm1.99 6 .79-6h1.96l1.24 3 .4-3h1.7l-.77 6h-2l-1.25-3.5-.4 3.5h-1.67Zm6.3-1.74-.19 1.5c.17.08.75.24 1.73.24 1.22 0 2.4-.53 2.4-1.74 0-.76-.7-1.34-1.23-1.77-.3-.25-.56-.45-.56-.6 0-.43.79-.85 1.79-.34v-1.2c-.04-.11-.38-.35-1.48-.35-1.38 0-2.07.77-2.07 1.88 0 .89.6 1.23 1.03 1.48l.28.17c.36.28.5.72.35.93-.15.21-1.44.34-2.05-.2ZM24 27l.8-6h1.58l-.24 2.15h1.59l.29-2.15h1.58l-.7 6h-1.69l.3-2.25h-1.56L25.7 27H24Zm6.68-6-.8 6h4.42l.1-1.27h-2.69l.14-1.19h2.4l.1-1.18h-2.37l.13-1.09h2.8l.11-1.27h-4.34Zm6.14 6h-1.66l.68-6h2.14l1.23 3.1.34-3.1h1.6l-.63 6h-1.96l-1.38-3.68-.36 3.68Zm10.06-3.73h-2.72l-.16.86c-.04.58.23.73.38.74h.7l-.08.67c-.51.5-1.78.28-1.78-1.36 0-1.3.9-1.83 1.35-1.93h2.23L47 21h-2.62c-2.4 0-2.9 2.18-2.84 3.27 0 2.22 1.56 2.75 2.34 2.73h2.5l.5-3.73Zm-26.84 7.36v-1.4c-3.24-.82-5.12.58-5.12 3.13 0 2.54 1.78 2.64 2.9 2.64.88 0 1.5-.22 1.69-.32l.48-3.07h-2.17c-.14 0-.26.13-.26.29v.88h.77c-.06.28-.18.87-.18.94-.57.08-1.56-.07-1.56-1.36 0-1.3.53-1.99 1.82-1.99 1.03 0 1.52.17 1.63.26ZM12.94 29l-.98 6h1.79l.83-6h-1.65Zm8.15 0-.98 6h1.8l.82-6h-1.64Zm2 6 .81-6H28.2l-.18 1.31h-2.7l-.11 1.03h2.37l-.18 1.31h-2.34L24.79 35h-1.7ZM6 35l.81-6h2.91c.75 0 2.26.54 2.26 2.77 0 2.64-1.93 3.25-2.89 3.23H6Zm1.8-1.44.52-3.12h.96c.3 0 .9.28.9 1.44 0 1.37-1 1.7-1.38 1.68h-1ZM30.02 29l-2.75 6h1.74l.43-1h2.1l.21 1h1.77l-1.5-6h-2Zm1.23 3.63h-1.22l.82-1.9.4 1.9ZM36.51 35l2.52-6h-1.6l-1.67 4.28-.84-4.28H33.3l1.38 6h1.83Zm5.02 0c-2.42 0-3-1.89-2.99-2.83 0-1.07.42-3.17 3.19-3.17 2.76 0 2.9 2.07 2.9 2.63 0 .55-.07 3.37-3.1 3.37Zm1.43-3.18c0 1.48-1.02 1.81-1.52 1.8-.86 0-1.13-.84-1.13-1.32 0-.48.13-1.94 1.4-1.94 1 0 1.25.98 1.25 1.46ZM45.71 29l-.85 6h1.8l.33-2.28c.2-.03.64.05.78.63.14.59.24 1.35.27 1.65h1.83l-.54-2.14a1.53 1.53 0 0 0-.27-.58c.31-.22.94-.9.94-1.78 0-1.1-.55-1.5-1.21-1.5H45.7Zm1.44 1.34-.14 1.1h.64c.2-.06.62-.28.62-.68 0-.23-.17-.42-.37-.42h-.75Z" fill="#1F4D96"/></svg>