<!-- by TradingView --><svg width="56" height="56" viewBox="0 0 56 56" xmlns="http://www.w3.org/2000/svg"><path fill="#F0F3FA" d="M0 0h56v56H0z"/><path d="M38.64 26.92c-.14.6-.17 1.25-.07 1.97.13 1 1.05 1.55 1.98 1.3.52-.14.98-.58 1.14-1.32.02-.09.07-.12.16-.1l1.54.54c.09.03.12.09.1.19-.47 2.11-2 2.62-3.82 2.48-1.55-.13-2.53-.94-2.95-2.45-.59-2.12-.05-4.87 2.31-5.4 1.87-.4 3.79.06 4.4 2.12a.14.14 0 0 1-.01.11l-.04.04a.12.12 0 0 1-.05.03l-1.54.39-.1-.01a.16.16 0 0 1-.06-.08c-.65-1.29-2.65-1.2-2.99.2ZM10 30.1v1.81c0 .03-.01.05-.03.06a.08.08 0 0 1-.06.03H4.08c-.02 0-.04 0-.06-.03a.09.09 0 0 1-.02-.06V24.1c0-.03 0-.05.02-.06a.08.08 0 0 1 .06-.03h1.83c.02 0 .04 0 .06.03.02.01.03.03.03.06v5.83c0 .02 0 .04.02.06l.06.02H9.9c.03 0 .05.01.06.03l.03.06ZM22.5 32c-1.3 0-2.43-.25-3.09-1.49a5.32 5.32 0 0 1-.41-2.4c0-2.11.01-3.45.02-4.03 0-.05.03-.08.08-.08h1.82c.03 0 .05.01.06.03.02.01.02.04.02.06v4.33c-.02.99.45 1.78 1.5 1.78 1.04 0 1.52-.79 1.5-1.78V24.1c0-.03 0-.05.02-.07a.08.08 0 0 1 .06-.03h1.83c.05 0 .08.04.08.1l.01 4.02c0 1.08-.14 1.89-.41 2.4-.66 1.24-1.8 1.48-3.1 1.48ZM32.9 28.3c.07.11.1.1.1-.03v-4.18c0-.06.03-.09.09-.09h1.83c.05 0 .08.03.08.08v7.81c0 .07-.03.11-.1.11h-1.85a.23.23 0 0 1-.2-.1c-.91-1.39-1.83-2.83-2.74-4.2-.07-.11-.1-.1-.1.03v4.18c0 .06-.03.09-.09.09h-1.84c-.05 0-.08-.03-.08-.08V24.1c0-.07.03-.11.1-.11h1.85c.09 0 .16.04.2.1.92 1.39 1.84 2.83 2.75 4.2ZM47.13 29c-.09.01-.13.06-.13.12v2.76c0 .08-.03.12-.1.12h-1.78c-.08 0-.12-.05-.12-.14V24.1c0-.06.03-.09.09-.09h1.84c.05 0 .07.03.07.08v2.77c0 .08.04.15.12.15h2.77c.08 0 .11-.07.11-.15v-2.77c0-.05.03-.08.07-.08h1.84c.06 0 .09.03.09.1v7.77c0 .09-.05.13-.13.13h-1.76c-.07 0-.1-.04-.1-.12L50 29.12c0-.06-.04-.1-.13-.12h-2.74Z" fill="#E52128"/><path fill-rule="evenodd" d="M15.58 24a136.6 136.6 0 0 0-2.3 0 .18.18 0 0 0-.1.04.19.19 0 0 0-.06.08l-2.7 7.6c-.05.18 0 .28.18.28h1.84c.19 0 .3-.1.35-.29l.23-.92c.02-.07.09-.12.2-.13h2.4c.12.02.19.06.2.13l.24.93c.04.19.16.28.35.28h1.83c.18 0 .24-.09.18-.26l-2.68-7.61a.19.19 0 0 0-.06-.09.18.18 0 0 0-.1-.03Zm-1.25 2.22-.75 2.68a.08.08 0 0 0 0 .07.07.07 0 0 0 .07.03h1.52l.03-.01.03-.03.01-.03v-.04l-.77-2.67a.08.08 0 0 0-.03-.04.07.07 0 0 0-.08 0 .08.08 0 0 0-.03.04Z" fill="#E52128"/></svg>