<!-- by TradingView --><svg width="56" height="56" viewBox="0 0 56 56" xmlns="http://www.w3.org/2000/svg"><path fill="#F0F3FA" d="M0 0h56v56H0z"/><path d="M27.83 38c3.33 0 7.95-7.49 10.13-10.58C39.59 37.04 29.94 45 28.05 45c-4.2 0-5.84-4.7-8.16-7.13-1.72-1.8-3.09-2.58-6.1-5.25-2.4-2.13-2.83-3.98-2.74-4.64.23.52 1.13 1.69 3.47 4.16 2.92 3.1 9.98 5.86 13.3 5.86Z" fill="url(#a)"/><path d="M28.18 18c-3.33 0-8 7.49-10.18 10.58C16.5 18.5 26.08 11 27.97 11c4.2 0 5.83 4.7 8.15 7.13 1.72 1.8 3.1 2.58 6.1 5.25 2.4 2.13 2.83 3.98 2.75 4.64-.23-.52-1.14-1.69-3.48-4.16C38.57 20.76 32 18 28.2 18Z" fill="url(#b)"/><path d="M38 29.05c0-3.34-6.9-8.87-10-11.05 9 0 17 8.04 17 9.93 0 4.21-4.7 5.85-7.13 8.17-1.8 1.72-2.57 3.1-5.23 6.1-2.13 2.4-3.98 2.84-4.64 2.75.52-.23 2.16-1.27 4.64-3.6C35.73 38.41 38 33 38 29.04Z" fill="url(#c)"/><path d="M18 26.91c0 3.34 6.9 8.91 10 11.09-8.5 0-17-8.08-17-9.97 0-4.21 4.7-5.85 7.13-8.17 1.8-1.72 2.57-3.1 5.23-6.1 2.13-2.4 3.98-2.84 4.64-2.75-.52.23-2.16 1.27-4.64 3.61A18.13 18.13 0 0 0 18 26.92Z" fill="url(#d)"/><defs><linearGradient id="a" x1="29.72" y1="44.88" x2="18.66" y2="34.26" gradientUnits="userSpaceOnUse"><stop stop-color="#DEE7EE"/><stop offset=".38" stop-color="#CCD8DB"/><stop offset="1" stop-color="#567B98"/></linearGradient><linearGradient id="b" x1="26.3" y1="11.12" x2="37.36" y2="21.73" gradientUnits="userSpaceOnUse"><stop stop-color="#DEE7EE"/><stop offset=".38" stop-color="#CCD8DB"/><stop offset="1" stop-color="#567B98"/></linearGradient><linearGradient id="c" x1="44.89" y1="26.62" x2="34.45" y2="37.32" gradientUnits="userSpaceOnUse"><stop stop-color="#8DC0DF"/><stop offset=".38" stop-color="#66A6CA"/><stop offset="1" stop-color="#164453"/></linearGradient><linearGradient id="d" x1="11.11" y1="29.34" x2="21.55" y2="18.65" gradientUnits="userSpaceOnUse"><stop stop-color="#8DC0DF"/><stop offset=".38" stop-color="#66A6CA"/><stop offset="1" stop-color="#164453"/></linearGradient></defs></svg>