<!-- by TradingView --><svg width="56" height="56" viewBox="0 0 56 56" xmlns="http://www.w3.org/2000/svg"><path fill="#F0F3FA" d="M0 0h56v56H0z"/><path d="M51.1 23.03a.66.66 0 0 1 .53.06.71.71 0 0 1 .29.96l-2.16 4.08v4.14c0 .2-.07.37-.22.52a.7.7 0 0 1-.51.21.72.72 0 0 1-.52-.2.74.74 0 0 1-.2-.53v-4.13l-2.23-4.08a.68.68 0 0 1-.05-.54c.06-.2.17-.34.33-.43.17-.1.35-.12.54-.06a.7.7 0 0 1 .42.35l1.7 3.13 1.66-3.13a.66.66 0 0 1 .41-.35ZM43.96 32.03a.8.8 0 0 1 .03.38.7.7 0 0 1-.13.33.61.61 0 0 1-.28.2.68.68 0 0 1-.65-.05.73.73 0 0 1-.25-.34L42.02 31h-4.04l-.65 1.55a.65.65 0 0 1-.25.34.68.68 0 0 1-.64.06.69.69 0 0 1-.38-.38.69.69 0 0 1 0-.54l3.29-8.58a.64.64 0 0 1 .26-.33.62.62 0 0 1 .4-.12c.14 0 .28.03.4.12.12.07.2.18.26.33l3.29 8.58Zm-2.48-2.53L40 25.57l-1.47 3.93h2.95ZM18.96 32.03a.8.8 0 0 1 .03.38.7.7 0 0 1-.13.33.61.61 0 0 1-.28.2.68.68 0 0 1-.65-.05.73.73 0 0 1-.25-.34L17.02 31h-4.04l-.65 1.55a.65.65 0 0 1-.25.34.68.68 0 0 1-.64.06.69.69 0 0 1-.38-.38.69.69 0 0 1 0-.54l3.29-8.58a.64.64 0 0 1 .26-.33.62.62 0 0 1 .4-.12c.14 0 .28.03.4.12.12.07.2.18.26.33l3.29 8.58Zm-2.48-2.53L15 25.57l-1.47 3.93h2.95ZM33.18 23c.22 0 .41.07.58.22.16.14.24.31.24.52v8.53c0 .44-.41.73-.82.73s-.68-.3-.68-.73V28.5h-4v3.77c0 .44-.27.73-.69.73-.41 0-.81-.3-.81-.73v-8.53c0-.44.4-.74.82-.74.42 0 .68.3.68.74V27h4v-3.26c0-.44.26-.74.68-.74ZM24.3 23c.4 0 .7.33.7.71 0 .38-.3.79-.7.79h-1.58v7.77c0 .4-.32.73-.72.73a.73.73 0 0 1-.72-.73V24.5h-1.59c-.38 0-.69-.41-.69-.79 0-.38.3-.71.7-.71h4.6ZM6.36 23C5.06 23 4 24.12 4 25.5v5C4 31.88 5.05 33 6.36 33h2.07c.31 0 .57-.4.57-.73 0-.34-.26-.77-.57-.77H6.88c-.76 0-1.38-.66-1.38-1.46v-4.08c0-.8.62-1.46 1.38-1.46h1.55c.31 0 .57-.44.57-.78S8.74 23 8.43 23H6.36Z" fill="#DE5832"/></svg>