<!-- by TradingView --><svg width="56" height="56" viewBox="0 0 56 56" xmlns="http://www.w3.org/2000/svg"><path fill="#F0F3FA" d="M0 0h56v56H0z"/><path d="M29.76 23H27.2l-.7 2v.03c-1.46.1-2.73.43-3.81.92l-.36-.63a.68.68 0 0 0-.6-.32H19l1.37 2.41A10.28 10.28 0 0 0 17 33h1.38c1.15-5.83 5.63-7.54 8.04-7.7l-.17.48c-4.99.58-6.79 4.8-7.25 7.22h1.38c.27-1.42.68-2.56 1.19-3.47l.09.15c.1.2.34.32.6.32H25l-1.53-2.7c.87-.65 1.8-1 2.66-1.16l-1.1 3.17c-.12.34.14.69.5.69h4.15l.32-1h-1.9a.34.34 0 0 1-.32-.44L28.7 26h3.18l.13-.29h-3.2l.14-.43h2.93L32 25h-2.95l.7-2ZM5.83 25h5.56c.42 0 .71.37.58.74L10.4 30H8.5c-.35 0-.6-.31-.48-.62l1.26-3.44c.05-.14-.07-.3-.23-.3H8.2L6.61 30H4l1.83-5Zm40.84 0h4.77c.38 0 .65.37.53.74l-.53 1.7h-1.56a.47.47 0 0 1-.44-.61l.25-.89a.22.22 0 0 0-.21-.3h-.65L47.38 30H45l1.67-5ZM13.7 25c-.61 0-1.16.35-1.35.87l-1.32 3.51c-.12.3.14.62.5.62h4.9a1.3 1.3 0 0 0 1.23-.8l.27-.72h-2.68l-.11.3-.1.25a.6.6 0 0 1-.56.37h-.43c-.17 0-.29-.15-.23-.3l.48-1.1h2.81c.64 0 1.2-.53 1.4-1.06l.46-1.2c.13-.37-.17-.74-.6-.74H13.7Zm1.54 2.21h-.71l.45-1.2a.6.6 0 0 1 .57-.36h.42c.17 0 .3.15.24.3l-.33.85a.68.68 0 0 1-.64.41Zm24.1-1.34c.2-.52.75-.87 1.36-.87h4.67c.43 0 .73.37.6.74l-.45 1.2c-.2.53-.77 1.06-1.4 1.06H41.3l-.48 1.1c-.06.15.06.3.23.3h.43a.6.6 0 0 0 .56-.37l.1-.25.11-.3h2.68l-.27.73c-.18.47-.67.79-1.23.79h-4.9c-.36 0-.62-.31-.5-.62l1.32-3.51Zm2.19 1.34h.71c.3 0 .55-.17.64-.41l.33-.86c.05-.14-.07-.3-.24-.3h-.42a.6.6 0 0 0-.57.37l-.45 1.2ZM33.7 25c-.61 0-1.16.35-1.35.87l-1.32 3.51c-.12.3.14.62.5.62h4.9a1.3 1.3 0 0 0 1.23-.8l.27-.72h-2.68l-.11.3-.1.25a.6.6 0 0 1-.56.37h-.43c-.17 0-.29-.15-.23-.3l.48-1.1h2.81c.64 0 1.2-.53 1.4-1.06l.46-1.2c.13-.37-.17-.74-.6-.74H33.7Zm1.54 2.21h-.71l.45-1.2a.6.6 0 0 1 .57-.36h.42c.17 0 .3.15.24.3l-.33.85a.68.68 0 0 1-.64.41Z" fill="#E51837"/></svg>