<!-- by TradingView --><svg width="56" height="56" xmlns="http://www.w3.org/2000/svg"><path fill="#15436C" d="M0 0h56v56H0z"/><path d="M48 33.65v-.647h-1.66c-.317 0-.574.288-.576.644v4.466c0 .178-.044.24-.198.24h-.238V39h.392c.62 0 .62-.574.62-.79v-3.057h.812V39h.576v-3.847H48v-.647h-1.66v-.563c0-.184.087-.292.23-.292H48zm-4.066 0h1.428v-.646h-1.66c-.316 0-.573.287-.575.643v4.465c0 .179-.045.24-.198.24h-.238V39h.391c.621 0 .621-.573.621-.79v.001-1.418h1.584v-2.287h-1.584v-.563c0-.184.087-.292.23-.292zm.78 2.495h-1.01v-.992h1.01v.992zM28.81 33.69l-.326-.686h-.575l.325.685h-2.397v.624h5.381v-.624H28.81zm1.736 2.435h.672v-.61h-.443c-.143 0-.275-.074-.615-.443l-.363-.404h-.791l.692.758-1.17 1.112-1.171-1.112.692-.758h-.79l-.364.404c-.34.369-.473.443-.615.443h-.444v.61h.673c.109 0 .213-.044.408-.23l1.148 1.083-1.2 1.139c-.185.174-.34.256-.708.256h-.32V39h.51c.389 0 .488-.014.781-.265l1.4-1.32 1.398 1.32c.294.251.393.264.782.264h.51v-.626h-.32c-.369 0-.523-.082-.71-.256l-1.198-1.14 1.148-1.083c.195.187.299.231.408.231zM37 22v-2h-7v10h7v-2h-5v-2h5v-2h-5v-2h5zm-22-2v4h-5v-4H8v10h2v-4h5v4h2V20h-2zm13 9.999l-3.849-5.562c.17-.141.41-.342.549-.462 1.82-1.573 2-3.406 2.01-3.975h-1.993c-.006.27-.073 1.486-1.328 2.571-.59.51-1.612 1.29-2.389 1.91V20h-2v10h2v-3.101c.054-.042.83-.582 1.651-1.24L25.614 30H28z" fill="#fff"/><path d="M39.004 20v2A2.992 2.992 0 0142 25.001 2.99 2.99 0 0139.004 28v2a5 5 0 000-10z" fill="#E72742"/><path d="M48 20v2a2.996 2.996 0 00-3 3.001A2.993 2.993 0 0048 28v2a5 5 0 010-10zm-8.39 15.86v-2.067c0-.215-.02-.79-.64-.79h-4.114v2.858h.854c-.018.036-.286.54-.305.573-.159.265-.197.328-.485.328h-.499v.644h.499c.433 0 .646-.157.822-.4h.343c-.087.184-.502.988-.522 1.02-.159.266-.197.33-.485.33h-.499v.643h.499c.551 0 .746-.254.96-.613.034-.056.683-1.354.695-1.38h1.072a49.63 49.63 0 01-.522 1.02c-.16.266-.197.33-.485.33h-.499v.643h.499c.55 0 .745-.254.96-.613.033-.056.683-1.353.694-1.38h.582v1.029c0 .213-.085.32-.29.32h-.43V39h.675c.621 0 .621-.573.621-.79v-1.85h-3.497c.063-.12.193-.373.256-.5h3.241zm-4.18-2.209h3.33c.204 0 .277.111.277.27v.242H35.43v-.512zm0 1.068h3.607v.51H35.43v-.51zm-17.494 3.517v-1.72h-.576v1.683c0 .138-.081.175-.197.175h-.24V39h.393c.62 0 .62-.555.62-.764zm-.959-3.491l.326.948.06.172h.575l-.386-1.12h-.575zm0-1.475l.326.95.06.17h.575l-.386-1.12h-.575zm3.967 4.552c.164 0 .554-.001.67-.412l.002-.007a.716.716 0 00.024-.125l.002-.016c.004-.04.007-.08.007-.126v-.69c.11.048.221.07.345.07h.387v-.652l-.422-.001c-.084-.005-.19-.045-.462-.36l-.073-.09h.741v-.626h-.717v-.475h.717v-.623h-.717v-.685h-.576v.685h-1.264v-.685h-.551v.685h-.719v.623h.719v.475h-.719v.626h.74l-.072.09c-.31.36-.405.36-.497.36h-.387v.653h.387a.864.864 0 00.27-.042v1.762c0 .209 0 .764.62.764h2.063c.192 0 .703 0 .703-.675v-.458h-.576v.277c0 .156-.075.23-.214.23H19.47c-.032 0-.115 0-.115-.111v-.44h1.59zm.127-.856c0 .156-.075.23-.213.23h-1.503v-.487h1.716v.257zm-1.463-2.654h1.264v.475h-1.264v-.475zm.292 1.101l.704-.002c.054.064.528.62.583.676h-1.87c.054-.057.528-.61.583-.674zm-7.025.065c-.133 0-.245-.021-.57-.306a44.636 44.636 0 01-.186-.163h1.255v-.624h-2.4v-.453l1.764-.299v-.627l-1.999.339c-.005 0-.512.083-.991.083H8.626v.62h1.122c.23 0 .462-.017.652-.036v.372H8v.624h1.254l-.186.164c-.325.285-.436.306-.57.306H8v.652h.499c.322 0 .56-.114.946-.45l.764-.672h.19v1.307H8.627v1.928c0 .208 0 .757.62.757h3.495v-2.685h-1.767v-1.306h.19l.765.67c.384.337.623.45.946.45h.498v-.651h-.498zm-.7 2.896H9.396c-.14 0-.194-.09-.194-.264v-.178h2.972v.442zm0-.98H9.201v-.449h2.973v.449z" fill="#fff"/></svg>