<!-- by TradingView --><svg width="56" height="56" viewBox="0 0 56 56" xmlns="http://www.w3.org/2000/svg"><path fill="#F0F3FA" d="M0 0h56v56H0z"/><path d="M21.91 42.81A15.38 15.38 0 0 1 16 38.6a15.83 15.83 0 0 1-3.97-9.72 15.98 15.98 0 0 1 7.72-14.62c2.84-1.7 6-2.44 9.47-2.22.12 0 .12.03 0 .07a13.7 13.7 0 0 0-7.6 6.73 12.55 12.55 0 0 0-1.24 3.8c-.56 3.54.14 6.77 2.09 9.7a13.17 13.17 0 0 0 8.98 5.79c.51.05 1.07.22 1.58.22 2.23 0 4.33-.47 6.29-1.43.91-.45 1.74-1 2.47-1.64.23-.2.27-.16.13.1a16.1 16.1 0 0 1-7 6.95c-1.2.62-2.46 1.06-3.75 1.33a16 16 0 0 1-9.25-.83v-.02Z" fill="#007A48"/><path d="m39.63 32.76-.3-.07a4.58 4.58 0 0 1-2.76-2.76 4.89 4.89 0 0 0-.26-.61c-.12-.23-.2-.44-.25-.63-.25-1-.36-2.1-.35-3.27a.28.28 0 0 0-.19-.29.1.1 0 0 0-.06 0c-.11.04-.16.09-.16.13a13.53 13.53 0 0 1-.13 2.21 5.73 5.73 0 0 0-.22 1.1c-.03.07-.07.21-.12.44-.06.24-.14.43-.23.57-.08.14-.14.27-.16.4a4.85 4.85 0 0 1-3.81 3 1.5 1.5 0 0 1-1.28-.36c-.22-.2-.32-.47-.3-.82.02-.34.12-.64.3-.9.16-.22.1-.3-.16-.25l-.83.17c-1.14.2-1.49-.7-1.32-1.63.05-.26.1-.5.17-.72.07-.22.17-.45.3-.67a6.1 6.1 0 0 1 1.88-1.94c.22-.15.47-.26.74-.32.15-.03.32-.1.51-.22.16-.08.33-.15.51-.2 1.08-.31 2.25-.44 3.5-.4.1 0 .17-.06.23-.19.01-.02.01-.04 0-.07-.04-.1-.09-.16-.14-.16-1.56.1-2.96-.1-4.2-.55a5.86 5.86 0 0 1-2.27-1.5 4.22 4.22 0 0 1-1.2-2.99c0-.32.07-.56.2-.71.18-.21.43-.34.73-.38.38-.05.78.03 1.2.26a.1.1 0 0 0 .14-.12c-.1-.34-.15-.79-.13-1.34 0-.27.08-.47.24-.61.2-.2.54-.38.86-.36 1.3.1 2.38.66 3.26 1.7a6.8 6.8 0 0 1 1.56 3.52c.1.78.17 1.64.17 2.6 0 .03.05.08.16.13l.08-.02c.13-.05.19-.14.18-.28-.04-1.34.12-2.6.48-3.76A5.9 5.9 0 0 1 38 17.1c.7-.6 1.49-.95 2.37-1.06.75-.09 1.39.16 1.46.97.04.43 0 .79-.09 1.07-.1.3-.01.38.27.23.04-.01.1-.02.21-.01.07 0 .13-.02.19-.05.31-.16.64-.14.97.07.43.27.6.69.55 1.25-.02.18-.06.45-.13.81-.06.31-.15.57-.27.77a5.64 5.64 0 0 1-2.62 2.4 9.51 9.51 0 0 1-4.63.76.15.15 0 0 0-.05.04c-.12.15-.06.26.17.34l.1.02c1.2-.01 2.26.1 3.19.35.4.12.8.37 1.25.5a5.01 5.01 0 0 1 3 3.5c.09.44.08.8-.03 1.09-.4 1-1.31.63-2.13.5-.22-.02-.26.05-.14.24.18.28.28.56.31.83.04.3-.04.57-.2.78-.54.66-1.4.53-2.17.31-.02 0-.02 0 0-.01a.4.4 0 0 0 .05-.02c.02 0 .02-.01 0-.02Z" fill="#007A48"/></svg>