<!-- by TradingView --><svg width="56" height="56" viewBox="0 0 56 56" xmlns="http://www.w3.org/2000/svg"><path fill="#F0F3FA" d="M0 0h56v56H0z"/><path d="m31.5 14.92.01.05c.02.47.27.76.74.87.2.05.39-.01.6-.1.04 0 .07-.02.1-.03.19-.06.37-.1.54-.09.17 0 .95 0 2.34-.04.16 0 .24-.04.37-.1a.11.11 0 0 1 .12.02c.32.22.6.4.88.54.15.09.3.1.45.03a.16.16 0 0 0 .1-.1.15.15 0 0 0-.04-.14 3.63 3.63 0 0 1-.89-1.64l-.15-.47a4.89 4.89 0 0 0-1.38-2.1c-.8-.57-1.73-1.12-2.46-1.76l-.6-.53c-.85-.78-2.25-1.03-3.52-1.23a8.05 8.05 0 0 0-1.87-.08c-.31.03-.58.08-.79.17-1.37.58-2.49 1.43-3.82 1.99l-.3.13c-.84.37-1.7 1.83-2.07 2.61a8.6 8.6 0 0 0-.76 2.4c-.03.23-.18.52-.3.66a5.4 5.4 0 0 0-1.15 1.88c-.03.08 0 .13.09.15.3.06.6.08.92.07 1.14-.05 1.22-1.71 1.48-2.46.08-.21.06-.49-.05-.82-.13-.39-.14-.5.01-.87.18-.42.49-.28.81-.14.18.08.36.16.52.16 1.51-.08.84.97 2.3 1.12.48.05.97.07 1.46.06.11 0 .23-.04.35-.08a5.58 5.58 0 0 1 2.28-.1h.03c.09.02.17.01.26 0 .26-.01.5-.03.59.4.03.19-.05.3-.24.35-.9.24-1.75.4-2.62.37a.32.32 0 0 0-.2.06c-.05.04-.1.1-.11.17l-.25.84a.21.21 0 0 0 .11.25 61.22 61.22 0 0 1 1.46.11c.26.02.94-.26 1.14.05l.05.1c.14.88-1.15.88-1.82.87a13.05 13.05 0 0 0-.13 0h-.04c-.17 0-.29.09-.35.25l-.09.25c-.06.16 0 .23.17.21.3-.03.6.05.94.24.03.02.07.04.1.04l.53.06a.21.21 0 0 1 .15.1.2.2 0 0 1 .02.18c-.06.16-.19.35-.38.56-.2.23-1 .23-1.22.2a1.25 1.25 0 0 0-.58.02c-.37.12-1.01.2-1.46.18a.13.13 0 0 1-.08-.03 1.6 1.6 0 0 1-.14-.15c-.22-.24-.47-.5-.8-.13-.33.4-.79.48-1.27.57h-.04l-.06.02-.11.02a.35.35 0 0 0-.29.25c-.21.65-.68.95-1.38.9a7.76 7.76 0 0 0-1.43.02.92.92 0 0 1-.58-.15.16.16 0 0 1-.07-.1c-.12-.36.15-.8.42-1.04a.15.15 0 0 1 .11-.04c.57.04 1.02.04 1.55-.22a15.22 15.22 0 0 0 2.23-1.3l.12-.07c.26-.13.52-.26.61-.55a.2.2 0 0 0 0-.14.2.2 0 0 0-.12-.1c-.42-.14-1.11-.2-1.42.18-.34.43-.64.77-1.22.8-.21.01-.67 0-1.37-.06-.09-.01-.32-.15-.68-.42a.24.24 0 0 0-.1-.04c-.45-.07-.75.08-.92.44-.38.8-.93 2.27-.83 3.17.03.23.11.44.24.63.49.7-.14 1.17-.14 1.9 0 .18.04.37.1.58.02.04.02.08 0 .12-.16.7.56 1.16.37 1.86-.16.52-.26 1.06-.03 1.58.25.58.64 1.02 1.16 1.3.08.05.13.11.17.2.12.3.25.55.36.74a.2.2 0 0 1 .03.12c-.03.41.24.57.56.74l.02.01c.13.08.24.1.33.09.48-.13.94-.1 1.38.07.2.08.44.12.61.1a32.53 32.53 0 0 1 2.32-.35.17.17 0 0 0 .08-.12v-.08c-.11-.26-.43-.34-.75-.4l-.05-.02h-.03a.18.18 0 0 1-.1-.07.93.93 0 0 1-.24-.62c.01-.6-.5-.58-.07-1.07a.15.15 0 0 1 .1-.05c.48-.06 1.05.08 1.46.2.36.12.72.03 1.02-.06.45-.15.59.46.55.75 0 .04-.01.07-.04.1l-.29.33a.2.2 0 0 0-.05.1c-.06.57.14.91.6 1.04.93.26 2.2.07 3.1.04.83-.03 1.78-.3 2.56-.57.4-.14.54-.31.56-.71v-.24c0-.27-.01-.46.35-.66.45-.24.78-.47 1-.69a.25.25 0 0 0 .06-.2.25.25 0 0 0-.12-.19c-.28-.17-1.61.14-1.95.17a1.9 1.9 0 0 1-.65-.11c-1.25-.57-2.57.1-3.83-.4a1.4 1.4 0 0 0-.6-.1c-.63.03-1.07.08-1.32.14-2.33.57-.67-1.07-2.23.09l-.15.14c-.14.17-.29.34-.56.15-.29-.21-.51-.52-.67-.94-.35-.92 1.47-1.85.75-2.97l-.1-.15c-.2-.29-.36-.53-.3-.86.17-1.13.2-1.13.65-2.07.15-.33.35-.58.7-.42.3.13.5.2.6.18l.62-.11c.86-.16 1.78-.12 2.63-.3.8-.2 2.25-.2 3.09-.21.16 0 .32.05.46.1l.2.06c.54.11 1.44-.12 1.96-.28.25-.08.58.03.84.11l.25.08a.23.23 0 0 1 .17.18l.02.09c.05.23.08.39.32.58.24.19.42.4.53.62.1.23-.61 2.98-.73 3.36-.08.27-.16.52.02.84.08.13.25.18.44.23.19.05.38.14.34.37l-.21 1.14v.1c.03.11.12.2.23.2.3.03.58.02.83-.03.2-.04.34-.03.43 0 1.26.58-.57 1.73-1.05 1.95a.23.23 0 0 0-.13.15.22.22 0 0 0 .04.18c.31.42.88.5 1.59.62a130.2 130.2 0 0 1 .22.03c.6.1.98-.13 1.18-.66l.16-.46c.12-.37.24-.73.44-1.09l.03-.05c.23-.39 1.33-2.77 1.2-3.56l-.04-.19c-.05-.3-.1-.52.01-.79l.01-.03.03-.07c.19-.5.46-1.22.28-1.65-.32-.72-.32-1.23-.32-2.05v-.5c0-.36-.14-.58-.35-.9-.15-.24-.18-.55-.22-.88l-.02-.26a2.33 2.33 0 0 0-.59-1.26c-.05-.05-.1-.05-.15 0a.9.9 0 0 0-.3.82c.04.33.1.62.17.85.1.3-.08.56-.4.6-.92.1-1.4.72-2.3.06l-.04-.02-.02-.02h-.01a.2.2 0 0 0-.13-.05l-.63.03c-.04 0-.08 0-.12-.02-.45-.16-1.06-.02-1.5.15-.08.03-.23 0-.45-.07-.44-.17-.83-.02-1.23.12-.23.08-.46.16-.7.2-.48.04-1.24.1-1.2-.57 0-.18 0-.3-.03-.35a3.11 3.11 0 0 1-.08-2.18l.09-.25c.13-.38.23-.69.15-.96a1.9 1.9 0 0 1-.07-.34.28.28 0 0 1 .15-.29 5.33 5.33 0 0 1 1.8-.5.13.13 0 0 1 .06.06Z" fill="#D80C18"/><path d="M23.7 17.35c-.05-.42.06-.52.34-.84a.15.15 0 0 0 .03-.13.13.13 0 0 0 0-.03.15.15 0 0 0-.05-.05c-.27-.22-1.1-.23-1.44-.22a.16.16 0 0 0-.11.05c-.32.32-.48.7-.5 1.14 0 .04.02.08.05.1.07.1.18.14.34.14a64 64 0 0 0 1.25-.01.15.15 0 0 0 .08-.09v-.06ZM35.4 16.8c.2.05.33.01.51-.04a7.45 7.45 0 0 1 .13-.03c.04-.02.08 0 .11.02l.5.42a.1.1 0 0 1 .03.08c-.02.86.58.6-.42 1.22a.35.35 0 0 0-.1.08c-.26.35-.62.26-1.03.16l-.16-.03c-.76-.17-1.6.13-2.38.04a2.2 2.2 0 0 0-.85.09.2.2 0 0 1-.2-.07c-.23-.28-.16-.87-.06-1.18.03-.1.03-.21.03-.33 0-.1 0-.21.03-.28a.15.15 0 0 1 .08-.09c.62-.23 3.4-.16 3.79-.06ZM31.97 23.13c-1.13-.8-2.38-.45-3.68-.45-.27 0-.53 0-.75.02-.18 0-.32-.03-.46-.07-.18-.04-.36-.09-.62-.03-.47.1-1.04.2-1.72.31-.3.04-.52.17-.69.36-.11.14-.16.36-.13.67.05.53.23 1.01.05 1.52-.04.12-.08.24-.1.36-.08.68.12 1.36.8 1.64.17.07.4.03.6 0l.14-.02c.32-.04.6.02.9.08l.26.05c1.22.21 2.54-.4 3.71-.24.46.06.88.07 1.26.02.56-.07.67-.38.66-.88v-.16c0-.6.38-2.74-.23-3.18Zm-5.68.78a2.33 2.33 0 0 1 1.63.07.3.3 0 0 0 .21 0c.66-.22 1.32-.3 1.98-.23.5.06.74 1.03.77 1.46.03.31-.12.54-.45.67a.2.2 0 0 1-.12 0 7.98 7.98 0 0 1-.17-.04h-.04a1.54 1.54 0 0 0-.72-.08l-.43.11c-.4.11-.83.23-1.23.12-.43-.12-.9-.14-1.44-.06a.3.3 0 0 1-.2-.04c-.34-.2-.02-1.9.21-1.98ZM36.63 32.74c.15-.03.28-.06.4-.07.16-.03.24.04.26.2l.13 1.16a.2.2 0 0 1-.13.21.22.22 0 0 1-.09.02c-.35 0-.73 0-1.13.03-1.42.1-3.11-.44-4.51.08-.26.1-.52.2-.83.18a.23.23 0 0 1-.18-.09.23.23 0 0 1-.03-.2l.14-.49a.17.17 0 0 1 .07-.1c.58-.36.98-.57 1.21-.62 1.55-.37 3.17 0 4.7-.31ZM27.54 33.64c-.42-.38-3.3-.42-4.04-.24-.73.17-1.23.26-1.52.25-.91-.02-1.81-.05-2.7-.1a.9.9 0 0 0-.34.04.15.15 0 0 0-.09.07c-.21.45.13.95.53 1.11.45.18 1.24.05 1.7-.05.7-.16 1.55-.29 2.22-.13.3.07.58 0 .84-.07.64-.16 1.12.28 1.71.17.51-.1 1.27.1 1.66-.37.1-.12.09-.3.08-.47v-.11a.14.14 0 0 0-.05-.1ZM35.79 35.26c.06.03.15.02.25-.02.34-.13.86-.11 1.22-.07.06 0 .09.04.09.1a3.86 3.86 0 0 1-.27 1.3.14.14 0 0 1-.05.03c-.24.11-.42.18-.7.08-.24-.1-.51-.18-.81-.24-1.07-.21-2.5-.02-3.63-.14a2.07 2.07 0 0 1-1.09-.42.18.18 0 0 1-.06-.22.3.3 0 0 1 .23-.19c.37-.08.74-.12 1.11-.14.07 0 .3.02.67.07.95.12 2.08-.51 3.04-.14ZM26.37 35.7a7.5 7.5 0 0 1-.28.06c-.19.03-.38.02-.59-.03a4.3 4.3 0 0 0-.86-.15c-.75-.03-1.65 0-2.69.1-.13 0-.3 0-.46-.02a2.52 2.52 0 0 0-.77.02c-.47.11-.96.28-.88.83 0 .06.04.1.1.11.15.04.28.11.4.22.03.03.06.05.1.05.85.12 4.8.06 5.89-.21.24-.06.4-.1.48-.1.17 0 .27-.09.4-.2l.06-.05c.16-.12.15-.22.13-.4v-.07a.12.12 0 0 0-.03-.07l-.03-.03c-.35-.2-.61-.14-.97-.06ZM31.21 38.44l-.2.03c-.26.06-.54.1-.82.03a.14.14 0 0 1-.1-.07c-.07-.15-.08-.27-.02-.36.32-.5.79-.7 1.39-.65l.48.05a6.24 6.24 0 0 0 1.48.05h.05c.26-.03.57-.06.84-.02.73.12 1.44.1 2.11-.05.07-.01.14 0 .23.01l.05.01h.04c.19.03.26.14.23.34-.08.49-.4.82-.96.83-.2.01-.5.05-.91.14-1.3.26-2.74-.52-3.89-.34ZM22.43 39.27c.25.04.55.03.91-.03.05 0 .1 0 .14.03a.2.2 0 0 1 .09.12 1 1 0 0 1 .03.38c0 .04-.03.08-.06.1-.58.4-1.93.58-2.64.64a.22.22 0 0 0-.2.15.2.2 0 0 0 0 .08c.04.4.7 1.1 1 1.34a.28.28 0 0 0 .29.04c.4-.17.85-.44 1.1-.84l.07-.11c.58-.96 1.62-.53 2.24-1.14.38-.38.83-1.04.78-1.66 0-.05-.02-.1-.04-.13a.26.26 0 0 0-.12-.09c-.14-.05-.33-.09-.55-.1-.45-.01-.88 0-1.3.03-1.05.1-2.07-.09-3.13.06-.05 0-.1 0-.13-.02l-.35-.17c-.14-.07-.24-.03-.3.11a2.1 2.1 0 0 0-.17 1.07c0 .05.02.1.06.14.03.04.08.07.13.08a2.53 2.53 0 0 0 1.33-.01c.3-.06.52-.1.82-.07ZM29.18 39.43c.2 0 1.9 1.44 2.01 1.68.11.23.22.46.42.53l.1.04c.33.1.56.18.77.52.42.65.98 1.23 1.37 1.88.12.19.22.36.58.4a.14.14 0 0 1 .03 0 .12.12 0 0 1 .08.1l-.01.05-.5 1.09a.1.1 0 0 1-.06.05c-.9.35-1.9.7-2.73 1.32-.7.54-1.28.4-2.1.18l-.3-.07a.87.87 0 0 0-.53.08c-.35.2-.7.3-1.08.33a.16.16 0 0 0-.1.05c-.35.4-.65.36-1.13.3h-.04a.63.63 0 0 1-.33-.13c-.57-.45-1.58-1.64-1.57-2.3 0-.05-.01-.1-.04-.15a.25.25 0 0 0-.13-.09c-.35-.11-.6-.29-.75-.53-.1-.17-.22-.29-.33-.4-.22-.24-.4-.44-.39-.92l.03-.06a.1.1 0 0 1 .05-.03c.93-.17 1.74-.58 2.67-.79.21-.04.39-.13.51-.33.22-.37.56-.89 1-.98 1.08-.23 1.43-1.81 2.5-1.82ZM34.51 41.49c.08.02.16.03.21.06.04.01.07.04.08.08.07.2.2.41.4.61a.14.14 0 0 0 .15.03c.02 0 .05-.02.06-.04a10.9 10.9 0 0 1 .13-.79c.03-.16.12-.25.25-.39l.07-.07c.25-.28.4-.63.46-.96a.1.1 0 0 0-.03-.1.1.1 0 0 0-.1-.01c-.72.25-1.4.39-2.14.26l-.04-.01c-.39-.07-.94-.17-1.28-.02a.15.15 0 0 0-.07.06.18.18 0 0 0-.02.1c0 .03.01.07.03.1l.08.1c.09.06.18.1.29.12.36.08.62.3.87.53l.21.19c.09.07.25.11.4.15Z" fill="#D80C18"/></svg>