<!-- by TradingView --><svg width="56" height="56" viewBox="0 0 56 56" xmlns="http://www.w3.org/2000/svg"><path fill="#F0F3FA" d="M0 0h56v56H0z"/><path d="M41.67 21C39.09 21 37 22.97 37 25.4v5.2c0 2.43 2.09 4.4 4.67 4.4H47v-2h-5.5c-1.38 0-2.5-1.06-2.5-2.36v-5.28c0-1.3 1.12-2.36 2.5-2.36h4.83l.67-2h-5.33Z" fill="#BABCBE"/><path fill="#009B7B" d="M44 26h3v3h-3zM27 22.57c0-.87.7-1.57 1.58-1.57H35v2h-5.21a.79.79 0 0 0-.79.79v2.58c0 .35.28.63.63.63H36v2h-6.37a.63.63 0 0 0-.63.63v2.58c0 .44.35.79.79.79H35v2h-6.42c-.87 0-1.58-.7-1.58-1.57V22.57Z"/><path d="M8 35V23c0-1.31 1.15-2.04 2.26-2 .8.03 1.4.63 1.74 1.5l4 9.5 4-9.5a2.27 2.27 0 0 1 2-1.5c1.02-.02 2 .76 2 2v12h-2V23.5l-4.69 10.62c-.5 1.18-2.28 1.17-2.76 0L10 23.5V35H8Z" fill="#BABCBE"/></svg>