<!-- by TradingView --><svg width="56" height="56" viewBox="0 0 56 56" xmlns="http://www.w3.org/2000/svg"><path fill="#F0F3FA" d="M0 0h56v56H0z"/><path d="M14 14v5.5l21.3-.63 6.7-2.56V14H14ZM14 42v-3h21.43L42 36v6H14ZM14 36V23h5a4.4 4.4 0 0 0-1.19 3.02c0 1.53.8 2.6 1.19 2.94v.76c-.4.45-1.19 1.7-1.19 3.1 0 1.4.8 2.7 1.19 3.18h-5ZM22 25.5c0-1.38 1.2-2.5 2.68-2.5H35v5H24.68C23.2 28 22 26.88 22 25.5ZM22 33.5c0-1.38 1.2-2.5 2.68-2.5H35v5H24.68C23.2 36 22 34.88 22 33.5Z" fill="#D5271C"/><path d="M42 24.88 35 28v-4.97L42 20v4.88ZM42 32.88 35 36v-4.97L42 28v4.88Z" fill="#9F2C2A"/></svg>