<!-- by TradingView --><svg width="56" height="56" viewBox="0 0 56 56" xmlns="http://www.w3.org/2000/svg"><path fill="#F0F3FA" d="M0 0h56v56H0z"/><path d="M12 24.45c0-.25.2-.45.45-.45h1.1c.25 0 .45.2.45.45v2.21c0 .19.15.34.34.34h2.32c.19 0 .34-.15.34-.34v-2.2c0-.26.2-.46.45-.46h1.1c.25 0 .45.2.45.45v7.1c0 .25-.2.45-.45.45h-1.1a.45.45 0 0 1-.45-.45v-2.21a.34.34 0 0 0-.34-.34h-2.32a.34.34 0 0 0-.34.34v2.2c0 .26-.2.46-.45.46h-1.1a.45.45 0 0 1-.45-.45v-7.1ZM22 24.34a.34.34 0 0 0-.33-.34h-1.34a.34.34 0 0 0-.33.34v4.11A3.52 3.52 0 0 0 23.5 32c1.93 0 3.5-1.59 3.5-3.55v-4.11a.34.34 0 0 0-.33-.34h-1.34a.34.34 0 0 0-.33.34v3.91c0 .97-.55 1.75-1.5 1.75s-1.5-.78-1.5-1.75v-3.91Z" fill="#006CB5"/><path fill-rule="evenodd" d="M32 24a4 4 0 1 0 0 8 4 4 0 0 0 0-8Zm0 1.46c-1.09 0-2 1.17-2 2.26v.67c0 1.1.91 2.15 2 2.15 1.09 0 2-1.06 2-2.15v-.67c0-1.1-.91-2.26-2-2.26ZM48 24a4 4 0 1 0 0 8 4 4 0 0 0 0-8Zm0 1.46c-1.09 0-2 1.17-2 2.26v.67c0 1.1.91 2.15 2 2.15 1.09 0 2-1.06 2-2.15v-.67c0-1.1-.91-2.26-2-2.26Z" fill="#006CB5"/><path d="M38.78 24 36 32h1.97L40 26.17 42.03 32H44l-2.6-7.46a.81.81 0 0 0-.77-.54h-1.85ZM10.34 25.87l-.98.54a.4.4 0 0 1-.48-.08c-.48-.5-.98-.75-1.4-.75-.47 0-1.18.16-1.18.7 0 .55.53.82 1.77 1.04 1.25.22 2.55 1.09 2.55 2.23S9.85 32 7.36 32c-2.04 0-3.01-.96-3.33-1.6-.07-.15 0-.3.15-.37l1-.5a.42.42 0 0 1 .48.1c.36.4.97.85 1.7.85.9 0 1.19-.44 1.19-.82 0-.38-.65-.76-1.48-.93-2.73-.54-2.78-1.57-2.78-2.34 0-.76.59-2.39 3.2-2.39 1.83 0 2.7.9 2.99 1.51.06.14-.01.28-.14.36Z" fill="#006CB5"/></svg>