<!-- by TradingView --><svg width="56" height="56" viewBox="0 0 56 56" xmlns="http://www.w3.org/2000/svg"><path fill="#F0F3FA" d="M0 0h56v56H0z"/><path d="m40 29-4 4c-8.98.92-15 2.5-15 5.06 0 2.05 2.7 3.09 4 3.4V42c-5.42-1.1-8-3.85-8-5.31.15-5.42 15.4-7.38 23-7.69ZM47 16.01 43 20c-26.3.85-31 8.26-31 9.45 0 1.19 1.64 2.21 1.64 2.55-3.57-1.5-4.58-3.34-4.64-4.08 0-2.8 4.36-5.64 10.83-7.82A86.7 86.7 0 0 1 47 16Z" fill="#007DC6"/><path d="m43 23-4 4c-19.65.48-22.99 5.54-22.99 6.5 0 .77 1.26 1.48 1.73 1.7v.8C13.7 34.07 13 32.47 13 31.99c1.12-6.8 20.47-8.83 30-8.99Z" fill="#007DC6"/></svg>