<!-- by TradingView --><svg width="56" height="56" viewBox="0 0 56 56" xmlns="http://www.w3.org/2000/svg"><path fill="#181B1E" d="M0 0h56v56H0z"/><path d="M7 30.43h5.22c.16 0 .28-.03.35-.1a.62.62 0 0 0 .19-.34H13v2.45h-.24c-.05-.16-.12-.28-.2-.34-.07-.07-.19-.1-.34-.1H4.5v-.23c.18-.05.33-.1.4-.17.07-.08.1-.2.1-.33v-6.54c0-.15-.03-.26-.1-.33s-.22-.13-.4-.18V24h2.97v.23c-.18.04-.3.1-.36.17-.08.08-.11.2-.11.34v5.7ZM26.11 28.36l-1.11.92v1.98c0 .15.03.26.1.34.07.08.18.14.35.2v.2h-2.9v-.2c.16-.05.28-.1.35-.19.07-.08.1-.2.1-.34v-6.53c0-.15-.03-.26-.1-.34a.8.8 0 0 0-.35-.2V24h2.9v.2a.8.8 0 0 0-.35.19c-.07.08-.1.2-.1.34v2.62l2.95-2.4c.22-.17.33-.33.33-.46 0-.14-.13-.23-.4-.29V24h3.51v.2c-.18.04-.32.09-.44.17-.12.08-.4.33-.88.75l-2.63 2.15 2.9 3.4c.36.44.63.73.8.86.15.13.34.22.54.27v.2h-3.42v-.2c.26-.07.38-.16.38-.3 0-.04-.02-.08-.05-.12a14 14 0 0 0-.32-.4l-2.16-2.62ZM34 26.73v4.53c0 .15.03.27.1.34.07.08.17.14.34.2v.2H32v-.2c.16-.05.27-.1.34-.19.07-.08.1-.2.1-.34v-6.53c0-.15-.03-.26-.1-.34a.78.78 0 0 0-.34-.2V24h2.84v.2c-.2.06-.3.15-.3.28 0 .11.06.25.21.4L39 29.13v-4.4c0-.15-.03-.26-.1-.34a.61.61 0 0 0-.34-.19V24H41v.2a.77.77 0 0 0-.34.19c-.07.08-.1.2-.1.34v6.52c0 .15.03.26.1.34.06.08.17.14.34.2v.2h-2.64v-.2c.2-.05.3-.14.3-.27a.39.39 0 0 0-.08-.2c-.06-.08-.17-.22-.37-.42L34 26.73ZM48.62 30H45l-.4.86c-.1.2-.16.37-.16.5 0 .22.15.36.46.44v.2H42v-.2c.18-.04.31-.09.4-.17.08-.08.19-.23.3-.48l2.87-5.9c.11-.23.16-.42.16-.59 0-.19-.13-.34-.39-.46V24h3.07v.2c-.26.1-.39.27-.39.49 0 .15.06.34.18.57l2.98 5.73c.16.3.3.5.39.6.09.1.23.15.43.2v.2h-3.22v-.2c.3-.06.46-.2.46-.43 0-.15-.07-.33-.18-.55l-.44-.81Zm-.57-1-1.29-2.69L45.53 29h2.52Z" fill="#fff"/><path d="M15.37 28.9a.55.55 0 0 0-.22.46c0 .18.07.33.2.45s.33.18.58.18c.3 0 .54-.07.75-.21.22-.14.36-.32.43-.53.04-.13.06-.4.06-.8-.2.09-.6.18-1.22.27-.27.04-.47.1-.58.19ZM18.94 26.93c-.32 0-.57.1-.78.3-.2.2-.31.48-.34.83h2.2c-.03-.4-.14-.68-.33-.86a1.02 1.02 0 0 0-.75-.27Z" fill="#DB7C00"/><path d="M17.33 29.9c-.22.2-.44.34-.67.44a2.1 2.1 0 0 1-.86.18c-.43 0-.77-.1-1.01-.33a1.04 1.04 0 0 1-.36-.8c0-.22.06-.41.19-.6.12-.2.3-.33.52-.43.22-.1.58-.18 1.06-.24.38-.05.7-.1.96-.18v-.14c0-.32-.07-.54-.2-.66-.14-.13-.37-.19-.7-.19-.22 0-.4.03-.55.08a.69.69 0 0 0-.33.22c-.07.1-.13.25-.18.46l-.66-.08c.07-.29.17-.53.3-.7.13-.16.32-.3.57-.4.25-.1.53-.14.86-.14.42 0 .77.06 1.02.19 0 0 .02 0 .03.02V24c-1.43.1-2.81.87-3.63 2.19a4.45 4.45 0 0 0 1.4 6.18c.7.41 1.46.62 2.23.63v-3.1ZM19.9 24.62a4.33 4.33 0 0 0-2.06-.62v2.76c.12-.1.24-.18.37-.24.2-.1.45-.14.74-.14.41 0 .75.1 1.02.3.27.2.46.45.58.77.12.32.18.63.18.94l-.01.23h-2.9c.02.36.06.61.14.78.08.16.22.3.4.4.18.12.4.17.61.17a1 1 0 0 0 .67-.22c.18-.15.3-.36.37-.62l.71.1c-.13.41-.34.73-.64.95-.3.23-.68.34-1.13.34a1.59 1.59 0 0 1-1.11-.36v2.82a4.63 4.63 0 0 0 3.47-2.18c1.32-2.14.7-4.9-1.41-6.18Z" fill="#DB7C00"/></svg>