<!-- by TradingView --><svg width="56" height="56" viewBox="0 0 56 56" xmlns="http://www.w3.org/2000/svg"><path fill="#F0F3FA" d="M0 0h56v56H0z"/><path d="M45.27 30c-3.08 0-4.17-1.8-4.17-3.5 0-2.2 1.64-3.5 4.4-3.5 2.9 0 4.5 1.22 4.5 3.43 0 2.3-1.47 3.48-4.5 3.57h-.23Zm.22-5.61c-1.58 0-1.92 1.1-1.92 2.04 0 1.39.65 2.04 2.01 2.04 1.36 0 2-.68 2-2.06 0-1.53-.49-2.02-2.09-2.02ZM36.26 30c-3.14-.18-3.8-2-3.81-3.5 0-1.02.28-1.83.85-2.42.69-.72 1.77-1.08 3.22-1.08H40v1.43h-3.1c-.63 0-1.17.16-1.46.48-.29.32-.46.82-.44 1.5v.06c0 .6.02 1.9 1.9 2.04H40V30h-3.74ZM24.49 30v-1.43h3.47c.43 0 1.02-.18.97-.7 0-.48-.28-.7-.86-.7h-1.5c-1.34-.04-2.3-.68-2.3-2.09 0-1.42.78-2.08 2.48-2.08H31v1.43h-3.7c-.37 0-.78.22-.74.66-.07.57.48.64.93.64h1.09c1.3 0 2.83.68 2.83 2.15.07 1.4-1.04 2.11-2.31 2.11h-4.61V30ZM18.68 30c-3.07 0-4.17-1.8-4.17-3.5 0-2.2 1.65-3.5 4.4-3.5 2.9 0 4.51 1.22 4.51 3.43 0 2.3-1.47 3.48-4.5 3.57h-.24Zm.23-5.61c-1.59 0-1.91 1.1-1.91 2.04 0 1.39.63 2.04 2 2.04 1.36 0 2-.68 2-2.06 0-1.53-.5-2.02-2.1-2.02ZM9.8 30C6.68 29.82 6 28 6 26.5c0-1.02.28-1.83.85-2.42.69-.72 1.77-1.08 3.22-1.08h3.49v1.43h-3.2c-.62 0-1.08.16-1.37.48-.4.43-.39 1.1-.38 1.45v.22c-.03.56-.09 1.77 1.85 1.92h3.1v1.49L9.81 30ZM21 35v-4h-1v4h1ZM36 35v-4h-1v4h1ZM23 35v-4h2.38c1.34.1 1.62.73 1.62 1.25 0 .73-.68 1.24-1.65 1.24H24V35L23 35Zm2.35-2.16c.43 0 .65-.21.65-.59 0-.34-.26-.6-.65-.6H24v1.2h1.35ZM29 35v-4h2.38c1.34.1 1.62.73 1.62 1.25 0 .73-.68 1.24-1.65 1.24H30V35L29 35Zm2.35-2.16c.42 0 .65-.21.65-.59 0-.34-.26-.6-.65-.6H30v1.2h1.35ZM45.71 35a1.91 1.91 0 0 1-2.04-2c0-1.3.73-2 2.14-2H48v.8H45.7c-.63 0-.93.67-.93 1.2 0 .58.28 1.26.93 1.26H47V33h1v2H45.7ZM39 35h-1v-4h1.07L41 33.47V31h1v4h-1.04L39 32.6V35ZM15 33.43V35h-1v-4h1v1.53h2V31h1v4h-1v-1.57h-2ZM8 34.99v-.84h2.45c.56-.02.55-.26.55-.38 0-.23-.2-.37-.55-.39H9.29c-.48 0-.82-.12-1.02-.35-.1-.11-.17-.25-.22-.39A1.2 1.2 0 0 1 8 32.2c0-.8.46-1.19 1.4-1.19h2.28v.85H9.53c-.21-.03-.55.1-.53.36 0 .3.3.35.55.35h1.27c.32 0 .64.12.88.36a1.28 1.28 0 0 1 .3.88 1.24 1.24 0 0 1-.28.84c-.29.26-.66.4-1.03.36h-.5L8 34.99Z" fill="#154B83"/><path d="M44.88 20.82A15.2 15.2 0 0 0 32.03 14c-5.44 0-10.45 2.6-13.04 6.83l-.11.17h1.88l.03-.06c2.37-3.92 6.38-6.08 11.31-6.08 4.44 0 8.94 2.5 10.95 6.07l.04.07H45l-.12-.18Z" fill="#BD1D21"/><path d="M12.9 21H11l.13-.21c.23-.36.47-.72.72-1.05 2.73-3.59 7.33-5.74 12.3-5.74 5.18 0 9.52 2.27 12.88 6.76l.15.24h-2.01l-.05-.08c-1.66-2.92-6.1-6.01-11.05-6.01-2.27 0-4.49.56-6.44 1.61a12.33 12.33 0 0 0-4.68 4.42l-.05.06Z" fill="#154B83"/><path d="M44.88 36.19A15.2 15.2 0 0 1 32.03 43c-5.44 0-10.45-2.6-13.04-6.82l-.11-.18h1.88l.03.07c2.37 3.92 6.38 6.07 11.31 6.07 4.44 0 8.94-2.5 10.95-6.07l.04-.06H45l-.12.18Z" fill="#BD1D21"/><path d="M12.9 36H11l.13.21c.23.37.47.72.72 1.06 2.73 3.58 7.33 5.73 12.3 5.73 5.18 0 9.52-2.27 12.88-6.76l.15-.23h-2.01l-.05.08c-1.66 2.9-6.1 6-11.05 6-2.27 0-4.49-.55-6.44-1.61a12.33 12.33 0 0 1-4.68-4.41L12.9 36Z" fill="#154B83"/></svg>