<!-- by TradingView --><svg width="56" height="56" viewBox="0 0 56 56" xmlns="http://www.w3.org/2000/svg"><path fill="#F0F3FA" d="M0 0h56v56H0z"/><path d="M6 41c7.08-1.45 14.43-2 22.05-2 7.55 0 14.93.54 21.95 1.97A62.38 62.38 0 0 0 28.05 37 62.38 62.38 0 0 0 6 41Z" fill="#ED1D2C"/><path d="m28 12 10.6 4.48 4.4 10.8L39.05 37a43.77 43.77 0 0 0-8.94-1.36L42 28l-10.37 3.55L38 18l-8.49 11.16L28 13l-1.51 16.16L18 18l6.37 13.55L14 28l11.9 7.64c-3.08.15-6.07.61-8.95 1.36L13 27.28l4.4-10.8L28 12Z" fill="url(#a)"/><defs><linearGradient id="a" x1="43" y1="24.5" x2="13" y2="24.5" gradientUnits="userSpaceOnUse"><stop offset=".33" stop-color="#F77B2E"/><stop offset=".5" stop-color="#FFD132"/><stop offset=".69" stop-color="#F77B2E"/></linearGradient></defs></svg>