<!-- by TradingView --><svg width="56" height="56" viewBox="0 0 56 56" xmlns="http://www.w3.org/2000/svg"><path fill="#F0F3FA" d="M0 0h56v56H0z"/><path d="M32.39 12c1.54.44 2.98 1.1 4.33 2 .04.02.06.05.08.09.1.16.08.33-.05.53a10.61 10.61 0 0 1-3.97 3.57 10.33 10.33 0 0 1-9.67-.09 10.85 10.85 0 0 1-3.94-3.6.35.35 0 0 1-.05-.26c.01-.1.06-.18.15-.23 1.28-.86 2.7-1.53 4.25-2 .12-.03.22 0 .31.1a5.73 5.73 0 0 0 2.34 1.64c.9.33 1.83.4 2.8.22A5.65 5.65 0 0 0 32.3 12h.1ZM12 25.76v-.3c.4-2.49 1.27-4.76 2.62-6.81.05-.07.12-.1.2-.08.08.02.13.07.14.15.24 1.45.71 2.84 1.4 4.18.1.17.06.32-.1.44a20.54 20.54 0 0 0-3.3 3.18.3.3 0 0 1-.27.12.31.31 0 0 1-.25-.16l-.44-.72ZM41.05 18.69c.02-.08.06-.12.13-.14.07-.01.13.01.17.07a16.78 16.78 0 0 1 2.64 6.95c.01.09 0 .17-.04.24a18.6 18.6 0 0 1-4.87 5.7 17.99 17.99 0 0 1-20.42 1.2c-.17-.1-.24-.22-.23-.35a.9.9 0 0 1 .21-.4 12.23 12.23 0 0 1 3.4-3c.15-.1.26-.15.32-.16.08 0 .2.02.36.1a12.99 12.99 0 0 0 15.25-3.55 13.9 13.9 0 0 0 3.08-6.66Z" fill="#17A9A4"/><path d="M12 30.58v-.3a18.8 18.8 0 0 1 4.9-5.73 18.12 18.12 0 0 1 13.52-3.7 17.7 17.7 0 0 1 6.98 2.51c.08.06.14.13.16.24.01.1 0 .19-.07.27a11.99 11.99 0 0 1-3.66 3.27.5.5 0 0 1-.48.03 12.48 12.48 0 0 0-7.84-.92c-2.71.54-5.03 1.82-6.96 3.84-1.9 1.99-3.1 4.4-3.6 7.23-.01.08-.06.13-.14.14-.07.02-.14 0-.18-.07A17.4 17.4 0 0 1 12 30.58ZM41.04 37.32a14.04 14.04 0 0 0-1.42-4.22c-.08-.16-.05-.3.09-.4a20.92 20.92 0 0 0 3.33-3.22.3.3 0 0 1 .27-.12c.11.01.2.07.25.17l.4.7a.3.3 0 0 1 .04.2 16.78 16.78 0 0 1-2.64 6.96c-.05.06-.11.09-.19.07-.08-.01-.12-.06-.13-.14ZM28 36.68c1.78 0 3.44.42 4.99 1.28 1.53.84 2.8 2.03 3.83 3.55.03.05.04.1.05.15.01.18-.07.33-.26.44-1.24.8-2.55 1.4-3.9 1.83a.97.97 0 0 1-.36.07c-.1-.02-.2-.08-.3-.2A5.26 5.26 0 0 0 28 41.95c-1.6 0-2.95.62-4.06 1.85-.1.12-.2.18-.3.2a.92.92 0 0 1-.36-.07 16.63 16.63 0 0 1-3.9-1.83c-.18-.11-.27-.26-.26-.44 0-.05.02-.1.05-.15 1.03-1.52 2.3-2.7 3.83-3.55a10.16 10.16 0 0 1 5-1.28Z" fill="#083768"/></svg>