<!-- by TradingView --><svg xmlns="http://www.w3.org/2000/svg" width="56" height="56"><path fill="#E60012" d="M0 0h56v56H0z"/><path d="M22 26.71c1.23-.06 3.91-2.93 5.14-13.93.05-.6.53-1.82 2.1-1.78 1.95.05 2.7 2.06 2.65 3.56-.04 1.2-.32 4.36-.45 5.79-.11.62.12 1.79 1.95 1.42l1.5-.3c1.2-.25 2.18-.45 2.62-.47.76-.12 2.33.3 2.49 2 0 .31-.1 1.1-.37 1.72-.28.63 0 1.59.16 1.99.17.45.38 1.61-.16 2.62a3.3 3.3 0 00-.23 2.5c.12.42.22 1.5-.33 2.46-.13.22-.38.91-.28 1.85.12 1.18-.48 2.46-2.28 2.69L22 41.22v-14.5zm-4.42.8A2 2 0 0016 29.46V40a2 2 0 002.45 1.95L20 41.6V27l-2.42.5z" fill="#fff"/></svg>