<!-- by TradingView --><svg width="56" height="56" viewBox="0 0 56 56" xmlns="http://www.w3.org/2000/svg"><path fill="#BC271A" d="M0 0h56v56H0z"/><path d="M35 39.3c0 .04.02.07.04.1v.01a.22.22 0 0 0 .32.08c6.43-4.2 7.94-12.6 3.61-18.95-2.23-3.29-5.5-5.26-9.79-5.92-.12-.02-.18-.1-.18-.22v-3.14a.26.26 0 0 1 .29-.26 17.18 17.18 0 0 1 14.68 11.23 16.9 16.9 0 0 1-2.9 16.66c-2.63 3.14-5.67 5.24-9.87 6.1h-.09c-.1-.02-.11-.1-.11-.2V36.25c0-.07 0-.14.02-.2a.7.7 0 0 1 .16-.23l3.39-3.38c.3-.31.43-.25.43.19v6.67ZM21 16.86c0-.03-.02-.06-.04-.08a.39.39 0 0 1-.02-.03.22.22 0 0 0-.31-.07c-6.41 4.2-7.93 12.49-3.6 18.83 2.24 3.27 5.5 5.23 9.79 5.88.12.02.18.09.18.21v3.14a.26.26 0 0 1-.18.25 17.15 17.15 0 0 1-14.78-11.16c-2.08-5.7-1-12.01 2.86-16.64a16.72 16.72 0 0 1 9.95-6.02.21.21 0 0 1 .15.11V19.83c0 .1 0 .19-.04.27a.7.7 0 0 1-.15.23l-3.38 3.38c-.3.3-.43.25-.43-.19v-6.66Zm14 6.92v-2.72a.15.15 0 0 0-.04-.1l-3.71-3.82a.14.14 0 0 0-.23.03.15.15 0 0 0-.02.08v2.71a.15.15 0 0 0 .04.11l3.71 3.82a.14.14 0 0 0 .16.03.15.15 0 0 0 .07-.06.15.15 0 0 0 .02-.08Zm-.24 1.93-4.5-4.6a3.18 3.18 0 0 0-3.48-.7c-.4.16-.74.4-1.04.7l-4.5 4.6a3.28 3.28 0 0 0 0 4.59l4.5 4.6a3.16 3.16 0 0 0 4.52 0l4.5-4.6a3.26 3.26 0 0 0 .7-3.54c-.17-.4-.4-.75-.7-1.05Zm-11.09 1.31 3.4-3.44a1.31 1.31 0 0 1 1.89 0l3.38 3.47c.52.54.52 1.4 0 1.92l-3.41 3.45c-.52.52-1.36.52-1.88-.01l-3.39-3.47a1.37 1.37 0 0 1 .01-1.92ZM25 38.55v-2.58a.2.2 0 0 0-.05-.14l-3.62-3.66a.2.2 0 0 0-.21-.05.2.2 0 0 0-.12.18v2.58c0 .05.02.1.05.14l3.62 3.66a.2.2 0 0 0 .33-.13Z" fill="#F6C96E"/></svg>