<!-- by TradingView --><svg width="56" height="56" viewBox="0 0 56 56" xmlns="http://www.w3.org/2000/svg"><path fill="#F0F3FA" d="M0 0h56v56H0z"/><path d="M13.12 13h11.2c.46 0 .71.08 1.12.28a9.46 9.46 0 0 1 4.53 4.82c.45 1.03.74 2.1.88 3.22a33.4 33.4 0 0 1 .13 1.55.07.07 0 0 1-.05.02c-1.48.1-2.83.26-4.05.47-1.9.33-3.16 2.03-3.47 3.92a50.46 50.46 0 0 0-.48 3.52c0 .04-.02.07-.04.1a.13.13 0 0 1-.1.03c-1.34-.08-2.61-.3-3.8-.7a9.81 9.81 0 0 1-5.64-4.7c-.23-.4-.35-.79-.35-1.17V13.1a.11.11 0 0 1 .12-.11Z" fill="#D96529"/><path d="M42.94 13.03c.02.02.06.04.06.08v12.25c0 .56.04.83-.35 1.15a.2.2 0 0 1-.26 0 12.06 12.06 0 0 0-4.6-2.77c-1.49-.5-3.04-.77-4.64-.82l-.04-.03-.03-.04c-.05-1.6-.33-3.15-.84-4.64a12.03 12.03 0 0 0-2.78-4.58.2.2 0 0 1-.01-.26c.32-.39.59-.37 1.15-.37h12.27a.1.1 0 0 1 .07.03ZM30.87 25.1a29.87 29.87 0 0 1-.26 2.74c-.09.61-.14 1.2-.46 1.62-.26.34-.55.59-.89.74-.37.16-.77.28-1.21.35-.92.15-1.84.26-2.77.34-.13.01-.21 0-.24-.03-.03-.04-.04-.12-.03-.25.09-.92.2-1.84.37-2.75.07-.44.2-.85.37-1.21.15-.34.4-.63.74-.88.43-.31 1.02-.36 1.63-.45a29.89 29.89 0 0 1 2.75-.23Z" fill="#BF2C2D"/><path d="M29.06 32.54A4.4 4.4 0 0 0 32.62 29a34.63 34.63 0 0 0 .46-3.9 13.06 13.06 0 0 1 5.88 1.5 9.5 9.5 0 0 1 3.9 4.24c.08.15.14.4.14.77v11.25a.13.13 0 0 1-.13.13H31.83c-.44 0-.8-.07-1.1-.18a9.7 9.7 0 0 1-4.94-5.55c-.48-1.34-.74-2.7-.78-4.08 0-.07.03-.1.1-.1 1.35-.09 2.67-.27 3.95-.55Z" fill="#D96529"/><path d="M25.71 41.34c.24.31.52.58.83.92.07.08.05.2-.05.37a.93.93 0 0 1-.27.3c-.07.04-.2.07-.38.07H13.1a.09.09 0 0 1-.06-.03.1.1 0 0 1-.03-.06V30.18c0-.43.09-.63.42-.85a.13.13 0 0 1 .08-.03c.03 0 .06.02.08.04 2.47 2.42 5.74 3.52 9.17 3.65a.15.15 0 0 1 .15.15c0 .3.03.6.06.87l.1.75c.3 2.48 1.18 4.68 2.65 6.58Z" fill="#BF2C2D"/></svg>