<!-- by TradingView --><svg width="56" height="56" viewBox="0 0 56 56" xmlns="http://www.w3.org/2000/svg"><path fill="#F0F3FA" d="M0 0h56v56H0z"/><path d="M26.9 12h2.3c7.18 1.06 12.13 4.65 14.4 11.68a.64.64 0 0 1-.15.66c-3.03 3-6.1 6.02-9.25 9.07a8.36 8.36 0 0 1-11.59.25.37.37 0 0 0-.5.02l-2.52 2.48c-.11.11-.1.22 0 .33 4.84 4.53 12.56 4.86 17.39.12l6.64-6.55c.3-.3.42-.24.37.18C42.97 38 36.39 43.59 28.4 44h-.87c-7.1-.4-13-4.9-15.05-11.68a.67.67 0 0 1 .16-.65c2.84-2.94 5.74-5.83 8.7-8.68 3.65-3.49 8.06-3.96 12.1-.73.21.18.42.17.62-.03l2.36-2.34a.34.34 0 0 0 .1-.25.33.33 0 0 0-.1-.23 12.6 12.6 0 0 0-16.8-.52 41.5 41.5 0 0 0-3.27 3.2A59.23 59.23 0 0 1 12 26.16v-.46A16.3 16.3 0 0 1 26.9 12Zm5.42 16.99a1.42 1.42 0 0 0 .3-1.55 1.42 1.42 0 0 0-.3-.46l-3.28-3.22a1.44 1.44 0 0 0-2.03 0L23.75 27a1.42 1.42 0 0 0 0 2.01l3.27 3.22a1.43 1.43 0 0 0 1.57.31c.17-.07.33-.18.46-.3l3.27-3.25Z" fill="#C1272D"/></svg>