<!-- by TradingView --><svg width="56" height="56" viewBox="0 0 56 56" xmlns="http://www.w3.org/2000/svg"><path fill="#F0F3FA" d="M0 0h56v56H0z"/><path d="M47.88 29v.2c-.24-.01-.42 0-.54.05-.12.05-.18.14-.18.3 0 .04 0 .1.03.16.02.07.06.16.13.27l1.46 2.35 1.54-2.39a.99.99 0 0 0 .15-.4c0-.14-.08-.24-.24-.3-.1-.02-.25-.04-.48-.04V29H52v.2c-.2 0-.4.07-.56.19-.25.18-.54.52-.86 1.02L49 32.79v2.06c0 .78.39.92 1.12.96V36h-3.15v-.2c.81-.04 1.03-.24 1.03-1.06V32.9l-1.34-2.04a12 12 0 0 0-.98-1.34.98.98 0 0 0-.68-.32V29h2.88ZM37 35.8c.9-.1 1-.5 1-1.35v-4.3c0-.39-.05-.63-.16-.75-.1-.11-.44-.18-.82-.2V29h1.86l2.17 5.34L42.91 29H45v.2c-.73.05-1 .18-1 .95v4.7c0 .79.26.89 1 .96V36h-2.63v-.2c.6-.05.63-.54.63-1.07v-4.75L40.81 36h-.12l-2.28-5.78v4.23c0 .66.05 1.27.8 1.36V36H37v-.2ZM31 32.5c0 1.24.4 3.13 2 3.13s2-1.89 2-3.13c0-1.23-.4-3.13-2-3.13s-2 1.9-2 3.13Zm-1 0c0-1.76 1.09-3.5 3-3.5s3 1.74 3 3.5-1.1 3.5-3 3.5-3-1.74-3-3.5ZM18 32.5c0 1.24.4 3.13 2 3.13s2-1.89 2-3.13c0-1.23-.4-3.13-2-3.13s-2 1.9-2 3.13Zm-1 0c0-1.76 1.09-3.5 3-3.5s3 1.74 3 3.5-1.1 3.5-3 3.5-3-1.74-3-3.5ZM13.4 29c.6 0 1.16.33 1.74.33.09 0 .18-.03.26-.08a.41.41 0 0 0 .18-.25h.2l.1 2.28h-.23c-.13-.45-.3-.82-.52-1.1-.4-.52-.95-.78-1.63-.78-1.7 0-2.5 1.72-2.5 3.16 0 1.46.96 2.98 2.59 2.98.89 0 1.61-.42 2.23-1.02l.18.19c-.62.8-1.6 1.29-2.61 1.29A3.33 3.33 0 0 1 10 32.54C10 30.6 11.42 29 13.4 29ZM4 35.8c.67-.06 1-.25 1-.95v-4.7c0-.68-.33-.9-1-.95V29h5.44l.04 1.52H9.2c-.08-.47-.21-.77-.39-.91-.17-.14-.55-.2-1.16-.2H6.33c-.15 0-.24.02-.28.07-.03.05-.05.14-.05.28V32h1.63c.44 0 .72-.07.84-.2.12-.14.22-.4.29-.82H9v2.45h-.24c-.08-.4-.17-.68-.3-.81-.12-.13-.4-.2-.83-.2H6v2.74c0 .2.06.33.19.37.13.04.46.06 1.1.06.7 0 1.2-.08 1.53-.24.33-.15.63-.53.9-1.14H10L9.54 36H4v-.2ZM37 26.81c.95-.12 1-.56 1-1.46v-4.58l-.12-.17c-.12-.18-.4-.29-.48-.33a1 1 0 0 0-.4-.08V20h1.48l3.14 5v-3.47c0-.7-.05-1.25-.82-1.34V20H43v.2c-.78.09-1 .64-1 1.33V27h-.15l-3.47-5.7v4.05c0 .72 0 1.36.8 1.46V27H37v-.19ZM24 35.81c.95-.12 1-.56 1-1.46v-4.58l-.12-.17c-.12-.18-.4-.29-.48-.33a1 1 0 0 0-.4-.08V29h1.48l3.14 5v-3.47c0-.7-.05-1.25-.82-1.34V29H30v.2c-.78.09-1 .64-1 1.33V36h-.15l-3.47-5.7v4.05c0 .72 0 1.36.8 1.46V36H24v-.19ZM25.25 26.8c.63-.07.75-.33.75-.95v-4.7c0-.6-.13-.9-.75-.95V20h4.71l.03 1.52h-.21c-.14-.85-.48-1.12-1.35-1.12h-1.16c-.12 0-.2.03-.23.08a.63.63 0 0 0-.04.28v2.36h1.31c.37 0 .6-.07.7-.2.1-.14.18-.4.24-.82h.2v2.45h-.2a2 2 0 0 0-.25-.81c-.1-.13-.33-.2-.69-.2H27v2.62c0 .2.05.33.16.37.1.04.43.06.96.06.58 0 .63-.08.9-.24.28-.15.52-.53.74-1.14H30L29.61 27h-4.36v-.2ZM31.25 26.8c.63-.07.75-.33.75-.95v-4.7c0-.6-.13-.9-.75-.95V20h4.71l.03 1.52h-.22c-.13-.85-.47-1.12-1.34-1.12h-1.16c-.12 0-.2.03-.23.08a.63.63 0 0 0-.04.28v2.36h1.31c.37 0 .6-.07.7-.2.1-.14.18-.4.24-.82h.2v2.45h-.2a2 2 0 0 0-.25-.81c-.1-.13-.33-.2-.69-.2H33v2.62c0 .2.05.33.16.37.1.04.43.06.96.06.58 0 .63-.08.9-.24.28-.15.52-.53.74-1.14H36L35.61 27h-4.36v-.2ZM20 23.38c1.04-.04 2-.27 2-1.54 0-.99-.57-1.44-1.48-1.44-.26 0-.37.03-.43.07-.06.04-.09.14-.09.3v2.6Zm-2 3.43c.71-.08 1-.4 1-1.08v-4.58c0-.62-.37-.9-1-.95V20h2.78c1.18 0 2.22.49 2.22 1.85 0 1.03-.58 1.6-1.54 1.77l1.93 2.68c.11.17.23.29.35.36.12.08.27.13.46.15V27h-1.5l-2.23-3.25-.47.02v2.08c0 .67.13.9.8.96V27H18v-.2ZM13.57 20c.63 0 1.12.33 1.73.33.15 0 .25-.03.31-.09a.65.65 0 0 0 .16-.24H16v2.14h-.24c-.2-.5-.35-.86-.57-1.1-.4-.43-.83-.64-1.48-.64-1.78 0-2.71 1.64-2.71 3.2 0 1.54 1.15 2.98 2.82 2.98.4 0 .78-.06 1.09-.35.06-.06.09-.14.09-.25V24.1c0-.69-.24-.87-.9-.91V23H17v.19c-.51.03-1 .25-1 .78v2.25c0 .57-1.94.78-2.31.78-2 0-3.69-1.38-3.69-3.45 0-2 1.56-3.55 3.57-3.55Z"/></svg>