<!-- by TradingView --><svg width="56" height="56" viewBox="0 0 56 56" xmlns="http://www.w3.org/2000/svg"><path fill="#F0F3FA" d="M0 0h56v56H0z"/><path d="M6.15 27.45c.13.1.33.16.61.14.56-.04.99-.34 1.3-.9a.07.07 0 0 1 .06-.04h1.75v.03a4.05 4.05 0 0 1-4.48 2.24c-1.28-.27-1.6-1.43-1.26-2.55a4.57 4.57 0 0 1 3.76-3.34c.8-.1 2.04 0 2.42.88.18.42.2.87.04 1.35a.1.1 0 0 1-.1.07H8.67c-.05 0-.08-.03-.08-.09 0-.15.02-.32-.04-.47-.1-.24-.3-.36-.62-.35-1.26.03-1.92 1.5-2 2.54-.01.18.06.34.23.49ZM17.94 27.45c.12.11.33.16.6.14.56-.04 1-.34 1.3-.9a.07.07 0 0 1 .06-.04h1.74a.02.02 0 0 1 .02.02v.01a4.05 4.05 0 0 1-4.48 2.24c-1.28-.27-1.61-1.43-1.26-2.55a4.57 4.57 0 0 1 3.75-3.34c.81-.1 2.05 0 2.43.88.18.42.2.87.04 1.35a.1.1 0 0 1-.1.07h-1.6c-.05 0-.08-.03-.08-.09 0-.15.02-.32-.04-.47-.1-.24-.3-.36-.62-.35-1.25.03-1.92 1.5-2 2.55 0 .17.07.33.24.48Z" fill="#2A4A83"/><path d="M24.83 23h-.05c-.09 0-.16.03-.16.07v12.86c0 .04.07.07.16.07h.05c.1 0 .17-.03.17-.07V23.07c0-.04-.08-.07-.17-.07ZM39.5 27.66h.03l.02-.02a1464.65 1464.65 0 0 0 2.47-4.61.16.16 0 0 1 .08-.03h1.6c.05 0 .06.02.04.06l-4.19 7.92c0 .01-.02.02-.05.02-.02 0-.04 0-.05-.02l-4.18-7.92c-.02-.04 0-.06.04-.06h1.6a.16.16 0 0 1 .14.09 1531.16 1531.16 0 0 0 2.43 4.57h.02ZM48.5 29.47c.92 0 1.75-.7 1.91-1.6.02-.1.03-.49.03-1.17v-3.62c0-.05.03-.08.09-.08h1.38c.06 0 .09.03.09.09 0 .9 0 2.39-.02 4.43a3.32 3.32 0 0 1-1.5 2.88c-.58.4-1.24.6-1.98.6s-1.4-.2-1.98-.6a3.32 3.32 0 0 1-1.5-2.87C45 25.48 45 24 45 23.09c0-.06.03-.09.1-.09h1.37c.06 0 .09.03.09.08v3.62c0 .68.01 1.08.03 1.17.16.9.99 1.6 1.91 1.6Z" fill="#0E0F0E"/><path d="m15.3 25.34-.43 1.22c0 .01 0 .02-.02.03l-.03.01h-2.39l-.03.01-.02.03-.3.83a.06.06 0 0 0 0 .05l.03.02H15l.03.01a.06.06 0 0 1 .03.05v.03l-.48 1.33-.02.03-.03.01H9.76l-.02-.02a.06.06 0 0 1 0-.06l2.08-5.88.02-.03.03-.01h4.66l.02.02v.06l-.45 1.27c0 .01 0 .02-.02.03H13.21c-.01 0-.02 0-.03.02l-.02.02-.27.76v.06a.06.06 0 0 0 .05.02h2.34l.02.03a.06.06 0 0 1 0 .05Z" fill="#2A4A83"/><path d="M33.52 29.83A4 4 0 0 0 30.7 23a3.97 3.97 0 0 0-3.98 4 4 4 0 0 0 3.98 4c1.06 0 2.07-.42 2.82-1.17ZM33.19 27a2.5 2.5 0 1 1-4.98 0 2.5 2.5 0 0 1 4.98 0Z" fill="#0E0F0E"/><path d="M21.5 31.45h-3.1c-.1 0-.1-.03-.05-.1l.21-.24a.3.3 0 0 1 .23-.11h2.87c.18 0 .32.12.4.35.18.46.08.82-.3 1.06a.1.1 0 0 1-.11 0 .13.13 0 0 1-.05-.05.15.15 0 0 1-.01-.06v-.74c0-.07-.03-.1-.1-.1Z" fill="#2A4A83"/><path fill-rule="evenodd" d="M15.65 32.9c0-.03.02-.04.04-.04h.7c.06 0 .1-.02.13-.06l.22-.26c.07-.07.05-.1-.04-.1H15.7c-.02 0-.03-.02-.03-.05v-.66c0-.04.02-.07.05-.07h1.09c.05 0 .08.04.08.1v2.12c0 .22.08.26.23.14l.11-.1a.56.56 0 0 0 .16-.2.65.65 0 0 0 .05-.27v-1.62a.69.69 0 0 0-.04-.23.62.62 0 0 0-.11-.2.53.53 0 0 0-.17-.12.46.46 0 0 0-.2-.05h-1a.24.24 0 0 1-.16-.05c-.22-.17-.5-.29-.7-.03a.17.17 0 0 1-.05.05 36.22 36.22 0 0 1-1.03.03c-.53-.02-.66.32-.66.87v1.25c.01.52.27.77.79.74.49-.03.8-.04.91-.02.06 0 .08.04.08.1-.04.62.21.82.72.82l1.07.01c.07 0 .13-.03.18-.09l.29-.33c.04-.05.03-.07-.03-.07h-1.58c-.06 0-.09-.04-.09-.1v-.25c0-.06.03-.09.08-.09h.48a.3.3 0 0 0 .22-.1l.17-.2c.08-.09.06-.13-.04-.13h-.85c-.04 0-.06-.02-.06-.07v-.67Zm-.56.67v-.65c0-.02 0-.03-.02-.04a.05.05 0 0 0-.03-.02h-1l-.03-.01-.02-.03v-.04l.01-.03.26-.3.02-.01h.75c.02 0 .03-.01.04-.03a.07.07 0 0 0 .02-.04v-.64c0-.02 0-.03-.02-.05a.05.05 0 0 0-.04-.01h-1.1l-.04.01a.07.07 0 0 0-.01.05v1.84a.07.07 0 0 0 .01.05l.02.01H15.06l.01-.01a.07.07 0 0 0 .02-.05Z" fill="#2A4A83"/><path d="M7.29 34.02h-.85c-.05 0-.08-.03-.08-.09v-2.02c0-.05.03-.08.08-.08h1.07c.04 0 .06.02.06.07v2.43c0 .18.07.22.2.11l.12-.1a.56.56 0 0 0 .16-.2.61.61 0 0 0 .06-.25v-1.77c-.01-.55-.15-.73-.67-.74h-.98c-.07 0-.1-.04-.1-.1v-.18c0-.07-.03-.1-.1-.1h-.41c-.06 0-.09.03-.09.1v.17c0 .06-.03.1-.09.1-.12.01-.42 0-.92-.01-.5-.02-.75.2-.75.68v1.87c.01.15.07.3.17.41.1.11.24.17.38.17h1.12c.06 0 .09.04.09.1v.31c0 .03 0 .05.03.07.01.02.03.03.06.03h.41c.07 0 .1-.04.1-.1v-.33c0-.07.03-.1.1-.08.38.1.67-.04.86-.41.02-.04 0-.06-.03-.06Zm-2.67-2.2h1.07c.04.01.07.04.07.09v2.04c0 .04-.03.07-.07.07H4.61c-.04 0-.07-.03-.07-.07V31.9c0-.04.04-.07.08-.07ZM9.27 34.43V31.6c0-.08.03-.12.1-.12h2.77l.02.02a.07.07 0 0 1 .01.05v3.26c0 .21.08.26.22.13l.1-.1a.68.68 0 0 0 .23-.53V31.8c0-.53-.22-.79-.66-.79H9.28c-.15 0-.29.07-.4.2-.1.12-.16.29-.16.46v2.7c0 .09.02.17.04.24.03.08.07.14.11.2.05.06.11.1.17.13.07.03.13.05.2.05h2.32l.07-.01a.17.17 0 0 0 .05-.05l.25-.3c.05-.05.04-.08-.03-.08H9.36c-.06 0-.1-.04-.1-.1Zm2.1-.84v.18c0 .05-.02.07-.06.07h-.27c-.01 0-.03 0-.04-.02a.08.08 0 0 1-.02-.05v-.58c0-.05.03-.07.07-.07h.38c.1 0 .18-.05.25-.13l.1-.12c.08-.09.06-.13-.04-.13h-.68c-.05 0-.08-.03-.08-.09v-.41l.02-.06a.07.07 0 0 1 .05-.03h.43c.03 0 .06 0 .1-.02a.25.25 0 0 0 .07-.07l.16-.19.02-.02v-.03l-.02-.02-.03-.01H9.91c-.07 0-.13.03-.17.1l-.12.18c-.03.05-.02.08.04.08h.74c.02 0 .03 0 .04.02v.53c0 .02 0 .04-.03.04h-.43a.27.27 0 0 0-.22.1l-.15.2-.02.02v.03l.02.03h.78l.04.03.02.05v.57c0 .05-.02.07-.07.07h-.44c-.03 0-.06.01-.08.03a.22.22 0 0 0-.08.05l-.17.21c-.05.06-.04.09.03.09h1.7c.15 0 .28-.05.37-.15.14-.15.21-.3.21-.46 0-.08-.03-.11-.1-.11h-.37c-.02 0-.04 0-.06.02a.1.1 0 0 0-.02.07ZM20.86 32.48c-.03-.01-.04 0-.04.04v.39c0 .03.01.05.04.05h1.23l.04.01.02.03v.04c0 .01 0 .03-.02.04l-.16.19a.31.31 0 0 1-.25.12h-.82c-.05 0-.07.03-.08.08-.03.39.1 1.02-.17 1.34-.1.12-.26.18-.48.18a411.65 411.65 0 0 1-1.57 0l-.02-.02a.07.07 0 0 1 0-.07l.28-.32c.04-.04.1-.07.15-.07h1.16c.01 0 .03 0 .04-.02a.07.07 0 0 0 .02-.04v-1c0-.04-.02-.06-.06-.06h-2c-.08 0-.1-.04-.03-.1l.2-.23c.05-.07.11-.1.19-.1h1.6c.06 0 .1-.04.09-.1a.81.81 0 0 1 .35-.71c.2-.17.45-.07.71-.1.07-.02.09.02.05.08-.14.28-.3.4-.47.35Z" fill="#2A4A83"/></svg>