<!-- by TradingView --><svg width="56" height="56" viewBox="0 0 56 56" xmlns="http://www.w3.org/2000/svg"><path fill="#F0F3FA" d="M0 0h56v56H0z"/><path d="M43 31.83c-1.33 4.18-4.77 7.57-9.22 9.17H43v-9.17ZM22.16 41c-4.39-1.58-7.8-4.9-9.16-9v9h9.16Zm14.92-18h5.49a14.92 14.92 0 0 0-8.79-8H43v12H24.05v5h13.2A10.2 10.2 0 0 1 32 36.2V33h-8v3.2c-3.84-1.38-6.54-4.7-6.54-8.58s2.7-7.2 6.54-8.58v7.09h8v-7.07c2.14.78 3.93 2.18 5.08 3.93Zm-14.92-8H13v9c1.36-4.1 4.77-7.42 9.16-9Zm5.81 3.37h.01-.02.01Z" fill="#003D81"/></svg>