<!-- by TradingView --><svg width="56" height="56" viewBox="0 0 56 56" xmlns="http://www.w3.org/2000/svg"><path fill="#F0F3FA" d="M0 0h56v56H0z"/><path d="M28 45c2.28 0 4.46-.45 6.44-1.26.65-.27.83-1.18.3-1.65-.45-.4-.84-.34-1.4-1.05-.26-.32.23-1 .47-1.18.65-.52 1.99-1.56 2.67-2.06.53-.39 1.31-.81 1.85-.22.46.5.45.98.46 1.59.01.74 1.15.95 1.66.4A17 17 0 1 0 28 45Zm11.78-7.28a3.23 3.23 0 0 0-.63-1.05c-.95-1.05-2.3-.67-3.31.07-.7.51-2.18 1.66-2.82 2.17-.85.66-1.6 2-.86 2.94.16.2.53.5.72.62a15.27 15.27 0 1 1 6.9-4.76Z" fill="#243F78"/><rect x="32" y="15" width="4" height="22" rx="2" fill="#243F78"/><rect x="27" y="21" width="4" height="16" rx="2" fill="#243F78"/><rect x="22" y="25" width="4" height="12" rx="2" fill="#243F78"/><rect x="17" y="29" width="4" height="8" rx="2" fill="#243F78"/></svg>