<!-- by TradingView --><svg width="56" height="56" viewBox="0 0 56 56" xmlns="http://www.w3.org/2000/svg"><path fill="#F0F3FA" d="M0 0h56v56H0z"/><path d="M32.89 13.37c0-.76.63-1.37 1.4-1.37 4.3 0 8.71 3.66 8.71 8.09a8.23 8.23 0 0 1-4.04 7.33c2.3 1.43 4.04 4.17 4.04 6.91 0 5.03-3.67 8.67-8.7 8.67-5.21 0-8.3-3.67-8.3-8.67v-6.2A5.9 5.9 0 0 0 20.04 22c-3.25 0-6 1.77-6.04 5.1v8.33c0 .75-.82 1.36-1.6 1.36-.77 0-1.4-.61-1.4-1.36v-8.35c.05-4.7 4.49-8.08 9.04-8.08 4.69 0 8.96 4.26 8.96 9.12v6.21c0 3.65 1.41 5.67 5.3 5.67C38 40 40 38 40 34.33a5.52 5.52 0 0 0-5.69-5.43 1.4 1.4 0 0 1-1.41-1.24 1.37 1.37 0 0 1 1.17-1.47c3.48-.56 5.93-2.33 5.93-6.1 0-2.93-2.82-5.36-5.7-5.36-.78 0-1.41-.6-1.41-1.36Z" fill="#699816"/></svg>