<!-- by TradingView --><svg width="56" height="56" viewBox="0 0 56 56" xmlns="http://www.w3.org/2000/svg"><path fill="#F0F3FA" d="M0 0h56v56H0z"/><path fill-rule="evenodd" d="M28 45a17 17 0 1 0 0-34 17 17 0 0 0 0 34Zm-.25-30c-.69 0-1.25.66-1.25 1.48v14.04c0 .82.56 1.48 1.25 1.48S29 31.34 29 30.52V16.48c0-.82-.56-1.48-1.25-1.48ZM23 18.43c0-.79.56-1.43 1.25-1.43s1.25.64 1.25 1.43v12.14c0 .79-.56 1.43-1.25 1.43S23 31.36 23 30.57V18.43Zm7 0c0-.79.56-1.43 1.25-1.43s1.25.64 1.25 1.43v12.14c0 .79-.56 1.43-1.25 1.43S30 31.36 30 30.57V18.43ZM19 33.09v-8.03c0-.78.6-1.41 1.34-1.41.74 0 1.16.63 1.16 1.4v8.13a6.09 6.09 0 0 0 5.97 6.07c3.2 0 6.03-2.72 6.03-6.07V21.44c0-.8.37-1.44 1.13-1.44.76 0 1.37.64 1.37 1.44v11.64c0 4.93-3.8 8.92-8.5 8.92S19 38 19 33.08Z" fill="#F48221"/></svg>