<!-- by TradingView --><svg width="56" height="56" viewBox="0 0 56 56" xmlns="http://www.w3.org/2000/svg"><path fill="#F0F3FA" d="M0 0h56v56H0z"/><path fill-rule="evenodd" d="M8 21.06v13.9c.28 1.2.86 2.02 1.76 2.47.71.37 1.8.55 3.28.55 10.13.03 20.26.03 30.4 0 1.96-.01 3.3-.57 4-1.7.36-.59.55-1.55.55-2.88V22.56c0-1.32-.2-2.3-.59-2.93-.64-1.04-1.65-1.57-3.02-1.58-4.8-.05-15.4-.07-31.81-.03-2.54 0-4.06 1.02-4.57 3.04Zm9.46.83.62-1.04a.77.77 0 0 1 .62-.38.8.8 0 0 1 .75.3c.58.58 1.1.91 1.55.98.79.12 2.34.24 4.65.35.23.02.4.12.52.32.11.2.11.39 0 .58l-.1.17c-.1.16-.26.24-.47.21-3.5-.38-6.58-.38-9.23 0-2.22.32-3.69.44-4.39.38-.38-.04-.48-.22-.29-.55l.32-.52c.16-.27.4-.4.73-.4h4c.32 0 .56-.13.72-.4Zm16.28-.65-2.75-.42a.59.59 0 0 0-.68.47l-.01.06c-.05.3.17.6.49.65l2.75.42c.32.05.63-.16.68-.47l.01-.06a.57.57 0 0 0-.5-.65Zm4.2 8.82c.3 2.04-.75 3.7-3.14 4.98-.33.18-.6.15-.79-.1l-.1-.1c-.22-.3-.19-.54.1-.73a5.76 5.76 0 0 0 2.75-3.75c.05-.23-.05-.36-.3-.39a1.18 1.18 0 0 1-.7-.37.65.65 0 0 0-.55-.21c-.82.05-1.48 0-1.98-.16-.29-.1-.44 0-.44.3v5.07c0 .42-.22.65-.66.67l-.24.02a.72.72 0 0 1-.63-.25.9.9 0 0 1-.22-.7l.37-4.7a.27.27 0 0 0-.15-.27.3.3 0 0 0-.32 0c-.86.5-1.42.68-1.67.56-1.26-.63-1.23-1.16.1-1.57 1.3-.4 2.44-1.41 3.43-3.02.12-.2.1-.39-.04-.57a.5.5 0 0 0-.56-.2l-2.3.55c-.27.06-.46-.03-.57-.28a.54.54 0 0 1-.07-.23c.01-.42.21-.7.6-.85a7.32 7.32 0 0 1 3.87-.27c.34.06.6.23.8.5.2.27.28.56.22.9-.1.61-.48 1.35-1.16 2.2-.18.23-.17.42.03.58l1.41 1.1c.09.07.13.04.13-.1l.29-7c0-.22.12-.32.34-.31.65.02 1.83-.04 3.54-.17 1.5-.12 2.64.3 3.43 1.29.1.13.16.27.16.43v5.07c0 .2-.06.4-.18.57-.37.54-.94.94-1.72 1.2-.18.07-.29.2-.31.36l-.52 3.15c-.04.26.06.44.29.54.7.32 1.46.43 2.28.32.32-.03.48-.2.48-.5v-1.38c0-.22.1-.36.32-.42a.87.87 0 0 1 .6.08c.25.11.4.25.46.43.3.92.32 1.8.07 2.64a.5.5 0 0 1-.42.36c-1.8.28-3.53.12-5.17-.49a.67.67 0 0 1-.43-.43c-.36-.98-.16-2.41.6-4.3.1-.24.02-.36-.26-.36h-.78c-.22 0-.32.1-.29.3Zm-.84-3.52c0-.22.11-.32.34-.32h3.3c.21 0 .31-.1.3-.3 0-.2 0-.49.05-.88.07-.74.02-1.26-.17-1.56-.54-.86-1.44-1.08-2.69-.66-1 .34-1.54.76-1.6 1.26-.14 1.4-.15 2.7 0 3.92.04.3.21.46.52.5 1.17.16 2.28.11 3.33-.15.23-.05.4-.22.5-.5l.1-.27c.09-.21.01-.31-.23-.31h-3.39c-.24 0-.36-.12-.36-.35v-.39Zm.52-2.21 2.6-.16c.31-.02.58.2.6.5v.04c.02.3-.21.55-.52.57l-2.6.16a.55.55 0 0 1-.59-.5v-.05a.54.54 0 0 1 .51-.56Zm-22.92.13c-.56.03-.83.31-.8.85l.1 1.96c.03.54.33.8.89.76l7.32-.35a2.6 2.6 0 0 0 1.57-.58c.43-.36.63-.77.6-1.24l-.01-.16c-.03-.47-.27-.86-.73-1.17-.46-.31-1-.45-1.62-.42l-7.32.35Zm.61 2.06c0 .05.02.07.07.07l7.22-.2c.05 0 .07-.02.07-.06v-.04c-.01-.31-.2-.58-.57-.8-.37-.21-.8-.31-1.32-.3l-3.65.1c-.52.01-.95.14-1.3.37-.36.23-.53.5-.52.83v.03Zm-2.35 8.5.37-3.32a.7.7 0 0 1 .27-.5 7 7 0 0 1 4.35-1.54l.68-.03a20.2 20.2 0 0 1 3.9.09c1.54.25 2.35.85 2.42 1.8.05.54.02 1.7-.07 3.46-.01.36.16.53.53.53h.42c.43 0 .64-.2.64-.62-.08-2.78-.33-4.5-.75-5.13a2.02 2.02 0 0 0-1.52-.95 27.97 27.97 0 0 0-7.86.06c-1.12.2-2.19.2-3.2.01-.34-.06-.56.07-.68.38a13.9 13.9 0 0 0-.68 5.94c.01.16.1.24.27.24h.42c.3 0 .46-.14.49-.42Zm2-1.18c0 .56.28.83.86.83l6.6-.02c.57 0 .86-.28.86-.83v-.96c0-.62-.27-1.15-.8-1.59a2.88 2.88 0 0 0-1.9-.65l-2.96.01c-.74 0-1.37.23-1.9.67a2 2 0 0 0-.77 1.58v.96Zm2.25-2.03 3.76-.14c.42-.01.76.3.78.7v.07c.02.4-.3.73-.72.74l-3.77.13a.74.74 0 0 1-.77-.69v-.07c-.02-.4.3-.73.72-.74Z" fill="#E00821"/></svg>