<!-- by TradingView --><svg width="56" height="56" viewBox="0 0 56 56" xmlns="http://www.w3.org/2000/svg"><path fill="#181B1E" d="M0 0h56v56H0z"/><path d="m17 20.21 1-.21v2h-1v-1.79ZM20 21h1v1h-1v-1ZM25 21h2v1h-2v-1ZM31 21h1v1h-1v-1ZM36 21h1v1h-1v-1ZM39 20H17c1.45-.67 6.19-2 11.24-2s9.28 1.33 10.76 2ZM23 20h1v2h-1zM28 20h1v2h-1zM34 20h1v2h-1zM39 20l1 .14V22h-1v-2ZM38 24h5v2h-2v1.5h1.68v1.72H41V31h2v2h-5v-9ZM37 29.82c0 .97-.03 1.65-.1 2.05C36.64 33.6 34.43 34 33 34c-1.4 0-3.62-.4-3.9-2.1-.07-.4-.1-1.1-.1-2.08v-1.64c0-.97.03-1.65.09-2.05C29.37 24.4 31.57 24 33 24c1.4 0 3.62.4 3.9 2.1.07.4.1 1.1.1 2.08v1.64Zm-3.46-3.15c0-.45-.03-.73-.1-.86-.07-.12-.21-.19-.42-.19-.18 0-.32.06-.42.16-.1.1-.14.4-.14.89v4.48c0 .56.03.9.09 1.03s.21.2.44.2c.24 0 .39-.08.45-.23.07-.15.1-.5.1-1.07v-4.41ZM20 28h-3v-1.29c0-.48 0-.78-.06-.9s-.2-.19-.42-.19c-.24 0-.4.08-.46.22-.07.15-.06.47-.06.95v4.46c0 .47 0 .77.06.91.07.14.21.22.44.22.22 0 .37-.08.43-.22.07-.14.07-.47.07-1V30h3v.33c0 2.32-.98 3.67-3.46 3.67-2.5 0-3.54-1.2-3.54-3.61v-2.8C13 25.3 14 24 16.45 24c2.4 0 3.55 1.14 3.55 3.47V28ZM28 28h-3v-1.29c0-.48 0-.78-.06-.9s-.2-.19-.42-.19c-.24 0-.4.08-.46.22-.07.15-.06.47-.06.95v4.46c0 .47 0 .77.06.91.07.14.21.22.44.22.22 0 .37-.08.43-.22.07-.14.07-.47.07-1V30h3v.33c0 2.32-.98 3.67-3.46 3.67-2.5 0-3.54-1.2-3.54-3.61v-2.8C21 25.3 22 24 24.45 24c2.4 0 3.55 1.14 3.55 3.47V28Z" fill="#989898"/><path d="M48 28c0 5.52-8.95 10-20 10S8 33.52 8 28s8.95-10 20-10c4.7 0 9.01.8 12.43 2.16a1.94 1.94 0 0 0-.08 1A33.58 33.58 0 0 0 28 19c-10.5 0-19 4.03-19 9s8.5 9 19 9 19-4.03 19-9c0-2.04-1.43-3.92-3.85-5.43.3-.15.56-.37.75-.63C46.47 23.62 48 25.72 48 28Z" fill="#989898"/><path fill-rule="evenodd" d="M42.5 23a2.5 2.5 0 1 0 0-5 2.5 2.5 0 0 0 0 5Zm0-.56a1.94 1.94 0 1 0 0-3.88 1.94 1.94 0 0 0 0 3.88Z" fill="#989898"/></svg>