<!-- by TradingView --><svg width="56" height="56" viewBox="0 0 56 56" xmlns="http://www.w3.org/2000/svg"><path fill="#F0F3FA" d="M0 0h56v56H0z"/><path d="M35.58 19.1a8.7 8.7 0 0 1 4.27 4.2c.12.24.07.52-.13.81a445.48 445.48 0 0 0-3.46 5.19h-.03l-.02-.02-.01-.03c-.3-4.18-1.95-7.87-5.52-10.05l-1.66-.99c-.08-.04-.07-.07.02-.09 2.28-.32 4.46 0 6.54.98Z" fill="#01B9EE"/><path d="M15.68 35.32c2.63-.1 5.12-.81 7.48-2.17 3.36-1.93 6.14-6.45 2.19-9.64-4.05-3.28-10.81-2.33-15.03.05-1.9 1.08-3.78 2.97-4.15 5.22-.1.63-.16.63-.17-.01-.05-5.83 7.77-10.76 12.9-10.75 2.06.01 4.48-.15 6.31.3 4.98 1.24 9.34 5.69 7.04 11.4-1.16 2.86-3.72 5.08-6.37 6.37a18.46 18.46 0 0 1-11.18 1.67.78.78 0 0 0-.5.12c-.05.04-.12.12-.18.12H8.95l-.06-.03a.13.13 0 0 1-.07-.1l.01-.07 7.62-15.61c.03-.07.11-.19.2-.19h5.1c.1 0 .17.18.12.27l-6.29 12.9c-.05.1-.02.16.1.15ZM29.72 37.97c-.78-.06-.79-.13 0-.23 1.25-.15 3.3-2 4.18-2.9.52-.55 1.08-1.3 1.66-2.3 2.66-4.47 5.32-8.92 7.99-13.35a.4.4 0 0 1 .14-.14.38.38 0 0 1 .2-.05h6.03l.04.01.03.04a.09.09 0 0 1 0 .08l-9.01 13.28a10.3 10.3 0 0 1-1.64 1.95c-2.64 2.33-5.99 3.87-9.62 3.61Z" fill="#054283"/></svg>