<!-- by TradingView --><svg width="56" height="56" viewBox="0 0 56 56" xmlns="http://www.w3.org/2000/svg"><path fill="#FFEECE" d="M0 0h56v56H0z"/><path d="M47 27.95c0-1.36.65-2.95 2.21-2.95.6 0 1.04.21 1.37.64l.06-.64H52v5.58C52 32.1 50.82 33 49.37 33c-.73 0-1.59-.29-2.04-.89l.65-.92c.36.42.8.63 1.33.63.76 0 1.19-.36 1.19-1.1v-.31c-.34.4-.75.59-1.3.59-1.55 0-2.2-1.7-2.2-3.05Zm1.46 0c0 .7.25 1.82 1.12 1.82.44 0 .73-.17.92-.51v-2.51a.95.95 0 0 0-.91-.52c-.7 0-1.13.54-1.13 1.72ZM41 28.06c0-1.53.94-3.06 2.57-3.06 1.65 0 2.43 1.36 2.43 2.87v.63h-3.5c.08.71.6 1.25 1.33 1.25.57 0 1.01-.21 1.33-.64l.72.85A2.55 2.55 0 0 1 43.73 31C42.1 31 41 29.67 41 28.06Zm1.5-.61h2.05c0-.64-.27-1.2-.98-1.2-.59 0-.96.43-1.06 1.2ZM37.86 23c1.52 0 2.64.77 2.64 2.42 0 1.08-.24 1.8-1.17 2.23L41 30.92V31h-1.7l-1.45-3H36.5v3H35v-8h2.86Zm-1.36 3.74h1.25c.8 0 1.25-.45 1.25-1.2 0-.74-.4-1.2-1.26-1.2H36.5v2.4ZM29 31v-6h1.4l.06.79a2.1 2.1 0 0 1 1.7-.79c1.24 0 1.83.73 1.84 2.2V31h-1.5v-3.77c0-.67-.31-.95-.97-.95-.44 0-.81.19-1.03.57V31H29ZM26 23.77c0-.22.07-.4.2-.55a.76.76 0 0 1 .58-.22c.23 0 .42.07.56.22.14.14.21.33.21.55 0 .23-.07.42-.21.56a.74.74 0 0 1-.56.22.76.76 0 0 1-.57-.22.77.77 0 0 1-.21-.56ZM26 25v6h1.5v-6H26ZM20 31v-8h5v1.5h-3.42V26h2.92v1.5h-2.92V31H20Z" fill="#FF9532"/><path d="m17.24 29.04 1.5.34c-.27.61-.63 1.03-1.06 1.27-.44.23-.89.35-1.35.35-.69 0-1.25-.2-1.68-.61a2.1 2.1 0 0 1-.65-1.6c0-.73.26-1.38.77-1.94.51-.57 1.19-.85 2.03-.85.62 0 1.14.18 1.56.53.43.34.64.8.64 1.34l-1.68.19c0-.51-.19-.77-.55-.77-.31 0-.53.21-.66.63-.13.41-.2.78-.2 1.09 0 .46.18.69.55.69.36 0 .62-.22.78-.66ZM11.71 24l-.35 2.43c.23-.32.43-.53.62-.63.18-.1.38-.15.6-.15.43 0 .78.17 1.03.52.26.35.39.86.39 1.54 0 .84-.2 1.6-.61 2.27-.4.68-.97 1.02-1.7 1.02-.68 0-1.16-.32-1.43-.97l-.5.97H9l1-7h1.71Zm-.74 5.1c0 .19 0 .32.03.39s.08.13.16.2c.07.06.17.1.29.1a.5.5 0 0 0 .38-.17c.11-.12.21-.37.3-.75.1-.39.16-.8.16-1.24 0-.5-.16-.76-.47-.76-.3 0-.51.26-.64.78l-.21 1.45ZM8.6 31H6.88a4.86 4.86 0 0 1 .01-.9c-.35.6-.83.9-1.46.9a1.4 1.4 0 0 1-1.03-.4c-.26-.25-.39-.58-.39-.97a1.56 1.56 0 0 1 .81-1.39c.26-.14.52-.24.8-.28.27-.05.8-.11 1.58-.19.04-.11.06-.2.06-.27 0-.26-.18-.4-.52-.4-.33 0-.58.18-.74.54l-1.45-.32C4.91 26.44 5.72 26 6.97 26c.63 0 1.13.12 1.49.35.36.24.54.58.54 1.04 0 .2-.1.92-.32 2.16a6.9 6.9 0 0 0-.12.92c0 .12.02.37.05.53Zm-1.56-2.37c-.81.07-1.21.34-1.21.83 0 .27.13.4.39.4.17 0 .33-.08.5-.24.17-.16.27-.5.32-1Z" fill="#E12C2B"/></svg>