<!-- by TradingView --><svg width="56" height="56" viewBox="0 0 56 56" xmlns="http://www.w3.org/2000/svg"><path fill="#F0F3FA" d="M0 0h56v56H0z"/><path d="M29.55 12c.58 6.2-1 11.6-4.76 16.18-2.53 3.08-5.97 5.67-10.34 7.77-.1.05-.2.02-.26-.1l-.53-1.03c-.06-.12-.03-.22.08-.29 3.4-2 6.13-4.7 8.19-8.07A31.95 31.95 0 0 0 26.52 12h3.03Z" fill="#0C33A9"/><path d="M12.16 29.3v-2.22c4.87-3.43 8.16-8 9.87-13.73.07-.21.2-.35.4-.41l1.8-.57c.25-.08.36.02.33.28-.47 4.7-1.9 9-4.3 12.87-1.86 2.99-4.18 5.36-6.98 7.1-.27.17-.43.1-.5-.21l-.62-3.1Z" fill="#1C77BC"/><path d="M15.92 37.34a29.26 29.26 0 0 0 5.24-3.18c7.23-5.35 10.7-12.5 10.4-21.44 0-.35.15-.47.45-.35l.58.2a.77.77 0 0 1 .5.61c1.1 8.37-.9 15.79-6 22.25A17.88 17.88 0 0 1 19.65 41c-.5.2-.95.12-1.34-.27l-2.54-2.55c-.36-.36-.3-.64.15-.84Z" fill="#28348B"/><path d="M36.98 27.16a8.87 8.87 0 0 1-2.59-2.32c.93-3.63 1.15-7.25.68-10.85-.03-.25.06-.31.27-.19l2.3 1.33c.33.19.52.48.57.86.5 3.68.08 7.4-1.23 11.17Z" fill="#535C89"/><path d="M15.27 18.78c-1.8 2.51-2.93 4.8-2.5 5.1.41.3 2.21-1.48 4.02-4 1.8-2.51 2.93-4.8 2.5-5.1-.41-.3-2.22 1.48-4.02 4Z" fill="#4DBAE7"/><path d="M28.16 44a27 27 0 0 1-4.73-.8c-.24-.05-.25-.13-.02-.24a38.72 38.72 0 0 0 7.02-4.3c6.74-5.19 10.03-12.07 9.89-20.64-.01-.36.1-.39.3-.1.39.52.76 1.06 1.12 1.6.23.37.35.96.37 1.78.2 8.08-2.42 15.02-7.84 20.83-.43.47-.83.8-1.18 1-1.44.78-3.3.87-4.93.87Z" fill="#091770"/><path d="M34.4 24.84c.68.92 1.54 1.7 2.58 2.32A24.38 24.38 0 0 1 26.2 39.25c-.15.08-.17.05-.07-.08.06-.1.15-.17.25-.23a.75.75 0 0 0 .18-.12 29.25 29.25 0 0 0 7.82-13.98Z" fill="#03104B"/><path d="M44 27.5v2.32c-.35 1.57-.6 2.6-.75 3.11a14.82 14.82 0 0 1-4.18 6.66c-.58.53-.65.47-.21-.19a29.48 29.48 0 0 0 4.8-12.6c.06-.45.13-.45.2-.01l.14.7Z" fill="#4DBAE7"/></svg>