<!-- by TradingView --><svg width="56" height="56" viewBox="0 0 56 56" xmlns="http://www.w3.org/2000/svg"><path fill="#F0F3FA" d="M0 0h56v56H0z"/><path d="M4 33.5v.5h48v-.5H4ZM4 32v-8h6v.5H7v2h3v.5H7v5H4Z" fill="#FE0036"/><path fill-rule="evenodd" d="M16.5 28c0 1-.3 1.9-.78 2.53-.47.63-1.08.97-1.72.97v-7c.64 0 1.25.34 1.72.97.47.63.78 1.52.78 2.53ZM14 24c1.66 0 3 1.8 3 4s-1.34 4-3 4-3-1.8-3-4 1.34-4 3-4Z" fill="#FE0036"/><path d="M21 24h-3v6c0 1.5 1.5 2 3.5 2 1.45 0 2.5-1.33 2.5-2v-6h-.5v6c0 1-1.5 1.5-2 1.5-.4 0-.5-.33-.5-.5v-7Z" fill="#FE0036"/><path fill-rule="evenodd" d="M27.5 24H25v8h3v-.8l2 .8h1l-2.5-1c1 0 3.5-.7 3.5-3.5S29.5 24 28.5 24h-1Zm.5.5v6h.5c.83 0 3-.6 3-3s-2.17-3-3-3H28Z" fill="#FE0036"/><path d="M32.5 32H32l3.5-8 4 8h-3l-.5-1h-3l-.5 1Zm.75-1.5h2.5L34.5 28l-1.25 2.5ZM47 24h5v.5h-2v2h2v.5h-2v4.5h2v.5h-5v-8ZM44.28 31c-.39.33-.83.5-1.28.5v-7c.64 0 1.25.34 1.72.97.12.16.23.34.33.53h.55c-.52-1.2-1.49-2-2.6-2-1.66 0-3 1.8-3 4s1.34 4 3 4c.76 0 1.46-.38 1.98-1h-.7Z" fill="#FE0036"/></svg>