<!-- by TradingView --><svg width="56" height="56" viewBox="0 0 56 56" xmlns="http://www.w3.org/2000/svg"><path fill="#F0F3FA" d="M0 0h56v56H0z"/><path d="m20.74 39.32-4.47-7.64a1.36 1.36 0 0 1 0-1.36l4.47-7.64c.24-.42.69-.68 1.17-.68h8.94c.48 0 .93.26 1.17.68l3.74 6.38L38 25.17l-3.01-5.22A3.88 3.88 0 0 0 31.63 18h-10.5c-1.39 0-2.67.74-3.36 1.95l-5.25 9.1a3.9 3.9 0 0 0 0 3.9l5.25 9.1A3.88 3.88 0 0 0 21.13 44h12.7l2.28-4h-14.2c-.48 0-.93-.26-1.17-.68Z" fill="#EC292D"/><path d="m35.26 16.68 4.47 7.64c.24.42.24.94 0 1.36l-4.47 7.64c-.24.42-.69.68-1.17.68h-8.94c-.48 0-.93-.26-1.17-.68l-3.74-6.38L18 30.83l3.01 5.22A3.88 3.88 0 0 0 24.37 38h10.5c1.39 0 2.67-.74 3.36-1.95l5.25-9.1c.7-1.2.7-2.7 0-3.9l-5.25-9.1A3.88 3.88 0 0 0 34.87 12h-12.7l-2.28 4h14.2c.48 0 .93.26 1.17.68Z" fill="#EC292D"/></svg>