<!-- by TradingView --><svg width="56" height="56" viewBox="0 0 56 56" xmlns="http://www.w3.org/2000/svg"><path fill="#F0F3FA" d="M0 0h56v56H0z"/><path d="M40.35 27.64a.52.52 0 0 1 0 .72l-2.48 2.5a.52.52 0 0 1-.56.1.5.5 0 0 1-.31-.47v-4.98c0-.2.12-.4.31-.47.2-.08.41-.04.56.1l2.48 2.5Z" fill="#EE7623"/><path d="M24.97 22.2c-.12.32-.26.8-.42 1.41l-.13.5-1.54 6.3-1.79-8.07c-.15-.77-.57-1.34-1.6-1.34H8.52c-.5 0-.52.65-.52.66v13.06s0 .27.27.27h1.02c.73 0 1.71-.49 1.71-1.84V29.3h3.8c1.46 0 1.82-1.09 1.82-1.7v-.24c0-.22-.08-.36-.33-.36H11v-3.41h7.5l2.28 9.12.46 1.71c.16.5.14.58.56.58h.92c1.13 0 1.52-.73 1.72-1.24.1-.28.18-.4.34-1.02l2-7.86 2.13 7.82.44 1.72c.15.5.14.58.55.58h.92c1.14 0 1.53-.73 1.73-1.24.1-.28.2-.55.36-1.17l2.09-9h6.46c.56 0 1 .06 1.4.18.53.17 1 .57 1.38 1.2.37.63.59 1.72.6 3.08 0 1.53-.45 2.88-1.26 3.62-.18.17-.4.3-.65.4-.26.1-.5.16-.74.18-.26.03-.6.08-1.04.09H37.7c-.44 0-.45.26-.45.38v.54c0 .8.63 1.71 1.9 1.71h2.5c.63 0 1.2-.05 1.7-.14A5.31 5.31 0 0 0 46 33.5c.47-.46.85-.98 1.15-1.56a9.11 9.11 0 0 0 .85-3.9c-.02-2.6-.76-4.43-2.22-5.71a4.5 4.5 0 0 0-1.89-1.03 8.95 8.95 0 0 0-2.28-.31h-7.83c-.43 0-1.08.3-1.32 1.34l-1.7 8.01-1.8-6.28-.13-.46a18.6 18.6 0 0 0-.42-1.44c-.1-.29-.29-.55-.56-.8a1.62 1.62 0 0 0-1.13-.37c-.49 0-.86.12-1.14.35-.29.24-.49.52-.61.85Z" fill="#183028"/></svg>