<!-- by TradingView --><svg width="56" height="56" viewBox="0 0 56 56" xmlns="http://www.w3.org/2000/svg"><path fill="#F0F3FA" d="M0 0h56v56H0z"/><path d="M28 10c.1 0 .19.03.24.08a80.9 80.9 0 0 0 4.12 4.07c.11.1.14.24.09.39-.06.15-.17.22-.33.22h-.8c-.53 0-.98-.19-1.35-.57a61.8 61.8 0 0 0-1.8-1.82c0-.01-.06-.02-.15-.02-.1 0-.16.01-.17.02-.5.5-1.1 1.1-1.79 1.82-.37.39-.82.58-1.35.58h-.8a.33.33 0 0 1-.33-.22.33.33 0 0 1 .1-.4 79.82 79.82 0 0 0 4.1-4.07c.05-.05.12-.08.22-.08Z" fill="#AAA"/><path d="M36.03 17c0 .07.03.11.1.13.07.01.12 0 .15-.07.57-1.02 1.1-1.23 1.59-.62.09.1.2.62.36 1.52.1.5 0 .9-.26 1.17-.12.13-.12.24.02.36l.15.05c.1.04.14.1.14.21v3.07c0 .19-.07.35-.2.48l-.49.49a.38.38 0 0 0-.09.43l.66 1.8c.05.13 0 .2-.14.2h-3.88a.19.19 0 0 1-.19-.13c-.04-.09-.02-.16.04-.23l.3-.3c.14-.13.14-.28 0-.42l-.14-.15c-.09-.08-.15-.07-.2.04-.13.3-.19.58-.16.83.02.27-.1.4-.37.4H28.4c-.18 0-.27-.1-.27-.27V17.5c0-.28.14-.44.41-.48.43-.06.55-.33.36-.82-.08-.2-.01-.3.2-.3h1.52c.2 0 .29.1.26.31l-.07.4c-.03.25.07.39.3.42l.68.1c.2.04.31-.05.35-.24.1-.6.49-.82 1.17-.68.17.03.26.14.28.31.03.25 0 .5-.07.77l.01.03.24.17c.1.08.17.05.2-.07.1-.34.14-.74.12-1.19-.01-.2.09-.3.29-.3h1.28c.24 0 .37.12.37.37v.68ZM22.66 16.07l4.45-.01c.16 0 .24.07.24.24v1.2c0 .15-.07.22-.22.22h-3.1c-.15 0-.23.08-.23.22v1.16c0 .16.08.24.24.24h3.36c.19 0 .29.1.29.29v1.07c0 .2-.1.3-.3.3h-3.02c-.2 0-.24.08-.13.25l3.3 4.67a.2.2 0 0 1 0 .23.2.2 0 0 1-.18.12h-1.8a.82.82 0 0 1-.72-.4 159.1 159.1 0 0 0-2.07-3c-.01-.02-.04-.03-.1-.03-.06 0-.1.01-.1.03-.83 1.18-1.52 2.19-2.06 3a.82.82 0 0 1-.73.4l-1.8.01a.2.2 0 0 1-.18-.12.2.2 0 0 1 .01-.23l3.28-4.68c.1-.16.07-.24-.13-.24h-3.02c-.2 0-.3-.1-.3-.3v-1.07c0-.19.09-.28.28-.28l3.36-.01c.16 0 .24-.08.24-.24v-1.16c0-.15-.08-.22-.23-.22h-3.1c-.15 0-.23-.07-.23-.22v-1.2c0-.16.08-.24.24-.24h4.46Z" fill="#013F97"/><path d="M28.84 18.57h-.02a.15.15 0 0 0-.14.16l.16 6.31c0 .08.07.15.15.14h.02c.09 0 .15-.07.15-.15l-.17-6.31a.15.15 0 0 0-.15-.15ZM32.18 18.94c.03-.2-.05-.38-.2-.4-.14-.03-.28.11-.31.32-.04.2.05.38.2.4.13.03.27-.11.3-.32ZM31.03 18.64H31a.13.13 0 0 0-.14.14l.1 6.8c0 .07.06.13.13.13h.02c.08 0 .14-.07.14-.14l-.1-6.8a.13.13 0 0 0-.13-.13ZM33.89 18.76c.07-.1.13-.08.16.03.1.32.1.55-.04.69-.21.22-.35.16-.42-.18-.02-.08.08-.26.3-.54ZM36.44 18.75c.06.08.06.16-.03.25a.37.37 0 0 1-.31.11c-.07 0-.1-.07-.11-.18-.01-.14.05-.2.18-.21.15-.01.24 0 .27.03Z" fill="#F0F3FA"/><path d="M12.23 28c0 .1.02.17.05.2a95.64 95.64 0 0 0 3.74 3.67c.29.27.44.6.44 1l.01 1.27c0 .1-.05.16-.14.2-.1.03-.18 0-.24-.08-.1-.15-2.11-2.17-6.01-6.04a.23.23 0 0 1-.06-.1.34.34 0 0 1 0-.2.23.23 0 0 1 .06-.1c3.9-3.88 5.9-5.9 6-6.05.06-.08.14-.11.24-.08.1.03.14.1.14.2l-.01 1.27c0 .4-.15.73-.43 1-.86.77-2.1 2-3.74 3.67-.03.04-.05.1-.05.17ZM32.15 21.91c0 .09-.04.14-.12.16-.03 0-.06 0-.09-.03-.1-.1-.15-.2-.14-.25.03-.1.09-.13.2-.1.1.04.15.1.15.22ZM33.98 22.22l-.8-.3c-.08-.03-.08-.06.01-.08.4-.1.7-.03.91.18.05.05.05.1.02.15-.03.06-.08.07-.14.05ZM37.68 21.82c.05 0 .08.02.09.07 0 .06-.01.09-.06.1a.37.37 0 0 1-.18.04c-.04 0-.06-.03-.06-.07 0-.04.01-.07.05-.1a.5.5 0 0 1 .16-.04ZM46 27.97l-.01.1a.23.23 0 0 1-.06.1c-3.8 3.8-5.74 5.78-5.84 5.94-.06.08-.14.1-.23.07-.1-.03-.15-.1-.15-.2v-1.24c0-.38.15-.7.43-.97.84-.77 2.05-1.97 3.63-3.61.03-.04.05-.1.05-.2 0-.08-.02-.13-.05-.16a91.61 91.61 0 0 0-3.67-3.58 1.29 1.29 0 0 1-.44-.96l-.02-1.25c0-.1.05-.16.14-.2.1-.03.18 0 .23.08.11.15 2.08 2.1 5.92 5.87.03.03.05.07.06.1v.11ZM34.55 22.62c.06.07.14.27.25.6.02.04 0 .08-.04.1-.05.02-.08.01-.11-.03a2.1 2.1 0 0 1-.23-.6c0-.04 0-.07.04-.1.04 0 .06 0 .09.03Z" fill="#AAA"/><path d="m17.92 36.7.38-2.48a.42.42 0 0 0-.17-.43c-.78-.57-.8-1.26-.02-2.07a.5.5 0 0 0 .13-.36v-1.5a.38.38 0 0 0-.2-.35c-.3-.17-.45-.45-.46-.85-.01-.4.14-.71.44-.93.18-.12.25-.3.22-.53-.04-.34.11-.51.46-.51H20c.12 0 .2.06.23.19l.36 1.74c.03.15.01.29-.05.42-.44.95-.38 1.75.17 2.4.14.17.17.35.08.55l-.32.68c-.07.14-.11.28-.12.43l-.24 3.53c0 .2-.11.3-.3.3h-1.68c-.16 0-.23-.08-.2-.24Z" fill="#013F97"/><path d="M27.28 32.07a5.44 5.44 0 0 0-2.39-.02c-.25.03-.38-.08-.38-.33v-1.63c0-.1-.05-.14-.15-.11l-.13.05c-.04.02-.07.05-.07.1v1.6c0 .19-.09.28-.27.28h-2.36a.33.33 0 0 1-.33-.22.33.33 0 0 1 .07-.39l.98-.97c.1-.1.13-.23.07-.37a.31.31 0 0 0-.31-.21h-.75c-.24 0-.37-.12-.4-.36-.1-.73-.07-1.41.07-2.06.05-.25.2-.36.45-.35.1 0 .24 0 .42.02a2.8 2.8 0 0 0 1.72-.33c.47-.28.98-.28 1.53.02a4.34 4.34 0 0 0 2.32.3c.23-.02.34.09.34.31v2.14c0 .2-.1.3-.3.3h-.71a.24.24 0 0 0-.21.11c-.12.19-.11.33.02.42.02.02.05.03.08.03h.87c.25 0 .35.12.3.36-.14.79-.15 1.6-.02 2.45.04.25-.06.38-.32.38h-1.88c-.13 0-.2.06-.2.2v1.3c0 .22.11.32.33.32h1.7c.23 0 .35.12.35.37v.93c0 .14-.07.21-.2.21H21.2c-.16 0-.24-.08-.24-.24v-.99c0-.19.1-.28.29-.28h1.82c.18 0 .27-.1.27-.27v-1.35c0-.14-.07-.2-.2-.2H21.4c-.33 0-.5-.17-.5-.5v-.49c0-.3.15-.44.45-.44h5.91c.18 0 .18-.03.02-.1ZM32.2 31.65c0 .05.02.06.06.04l.2-.15a.16.16 0 0 0 .09-.13l.22-4.26c.01-.3.17-.45.47-.45h4c.28 0 .43.14.43.43v1.73c0 .12.03.23.1.33.25.36.38.8.38 1.32 0 .34-.17.5-.5.5h-1.67c-.24 0-.37-.11-.37-.36v-2.13c0-.23-.1-.34-.34-.34h-.15c-.2 0-.3.1-.3.3v1.79c0 .4-.2.6-.6.65l-1.22.11c-.07.01-.1.05-.1.12.02.05.05.07.1.07l4.84.04c.18 0 .27.1.27.28v1.68c0 .16-.05.3-.17.41L36.6 35c-.07.07-.07.15 0 .23l1.48 1.48c.1.09.08.14-.05.16-1.24.2-2.12.1-2.64-.32-.12-.1-.24-.1-.35.02-.35.37-1.1.48-2.26.35-.07-.01-.12-.05-.14-.12a.15.15 0 0 1 .03-.16l1.16-1.15c.14-.15.13-.28-.04-.4a3.87 3.87 0 0 1-1.35-1.38c-.03-.06-.07-.08-.13-.07-.07.02-.1.05-.1.12v2.98c0 .14-.06.2-.2.2h-1.17c-.21 0-.32-.1-.32-.31v-3.09c0-.14-.07-.21-.21-.21h-.15c-.05 0-.09.02-.09.08l-.29 3.22c-.02.21-.13.32-.34.32h-1.1c-.18 0-.27-.1-.24-.28.3-2.14.36-5.3.2-9.5 0-.3.15-.46.45-.46h3.1c.24 0 .36.12.36.36v4.6Z" fill="#013F97"/><path d="M30.5 28.96c-.04.1-.1.16-.16.15-.23-.02-.36-.14-.39-.37a.52.52 0 0 1 .24-.55c.06-.04.11-.03.16.02.19.23.24.48.14.75Z" fill="#F0F3FA"/><path d="M24.4 28.57c.77 0 1.15.06 1.15.17 0 .11-.38.17-1.14.17-.77 0-1.15-.07-1.15-.18 0-.11.38-.17 1.15-.16Z" fill="#AAA"/><path d="M30.36 30.6c.2.28.23.64.1 1.06-.03.1-.1.16-.2.16-.1.01-.18-.03-.22-.12-.1-.18-.09-.52.02-1.04a.15.15 0 0 1 .13-.14c.07-.01.13.01.17.08ZM32.37 31.91c.17.5.25.81.23.97-.02.16-.1.22-.23.19-.06-.02-.1-.07-.1-.13v-1.01c0-.18.03-.18.1-.02ZM33.41 32.78c.28-.15 1.18-.14 2.7.01.11.01.18.07.2.17.03.1 0 .18-.09.24l-1.03.73c-.13.1-.25.08-.35-.05-.43-.6-.89-.89-1.35-.86-.08 0-.12-.03-.14-.1-.02-.06 0-.11.06-.14Z" fill="#F0F3FA"/><path d="M18.52 39.15c0 .13.06.2.19.23.12.02.2-.03.25-.15.12-.33.17-.79.15-1.37 0-.2.1-.31.3-.32.27-.01.53.04.76.15.1.05.2.06.3.04l.92-.2c.29-.06.43.06.43.36v1.94c0 .19-.09.28-.28.28h-.27c-.24 0-.36-.12-.36-.36v-.62c0-.24-.12-.38-.36-.42-.24-.05-.4.04-.48.27l-.23.6a.64.64 0 0 1-.34.36c-.8.37-1.35.27-1.65-.3a2.92 2.92 0 0 1-.19-1.79c.04-.23.17-.35.4-.35h.2c.17 0 .26.1.26.27v1.38ZM24.7 38.33c-.09.58-.07 1.16.06 1.72-.4.12-.73-.13-.97-.74-.03-.07-.09-.1-.17-.1-.08 0-.13.04-.15.12l-.12.52c-.06.24-.21.35-.46.32-.25-.03-.38-.17-.39-.42l-.02-1.83c0-.27.13-.41.4-.45.25-.03.41.08.47.33l.01.32c0 .19.1.3.3.33.18.02.3-.06.36-.24.01-.04 0-.18-.05-.4-.03-.17.04-.26.22-.26h.28c.14 0 .2.07.21.2l.03.58ZM25.03 40.05 25 38.32l.02-.57c0-.14.08-.21.23-.21h1.8c.17 0 .25.08.25.25v1.96c0 .2-.1.31-.3.31l-1.97-.01ZM32.18 38.02c-.23.51-.24 1.03-.04 1.55.05.13.03.25-.04.36a.36.36 0 0 1-.32.17H27.8c-.2 0-.29-.1-.25-.3.1-.53.09-1.12-.04-1.77-.07-.33.06-.5.4-.5h.26c.31 0 .45.16.4.48l-.11.85c-.02.26.1.46.36.58.25.13.51.12.79-.02.29-.15.48-.4.58-.76.04-.18-.03-.31-.2-.38a.47.47 0 0 1-.14-.06.38.38 0 0 1-.1-.45c.08-.18.2-.26.4-.25l4 .1a.2.2 0 0 1 .03.01c.32.16.75.12 1.28-.1a.31.31 0 0 1 .35.06c.11.1.14.22.1.36a2.8 2.8 0 0 0-.03 1.76c.08.25-.02.38-.28.4l-.34.02c-.25.02-.36-.1-.36-.34.01-.26-.02-.53-.09-.81-.03-.15-.13-.22-.3-.2-.15.01-.23.1-.23.26v.84c0 .14-.07.21-.2.21l-1.55-.04c-.28 0-.37-.14-.26-.4a51.55 51.55 0 0 1 .12-.28l-.1-1.33c0-.17-.04-.18-.11-.02ZM38.31 39.8c0 .2-.1.3-.3.3l-1.6.03c-.2 0-.31-.1-.32-.31l-.02-1.95c0-.2.1-.3.3-.31l1.6-.02c.21 0 .32.1.32.3l.02 1.95Z" fill="#013F97"/><path d="M33.66 38.91c-.01-.48-.1-.88-.2-.88s-.17.4-.16.9c.01.48.1.88.2.88s.17-.4.16-.9Z" fill="#AAA"/><path d="M37.7 39.08c-.16.17-.3.29-.42.34-.2.08-.32.02-.37-.19-.12-.45-.12-.74 0-.86.1-.13.39-.16.85-.1.2.03.28.15.23.35-.04.13-.14.28-.3.46ZM25.96 39.23a1.6 1.6 0 0 1-.02-.68.28.28 0 0 1 .21-.25.27.27 0 0 1 .31.09c.16.19.2.46.13.8-.03.17-.13.26-.3.26-.17.01-.28-.06-.33-.22ZM31.25 38.8c-.03-.33-.21-.59-.41-.57-.2.01-.35.3-.32.63.03.34.21.6.41.58.2-.02.35-.3.32-.64Z" fill="#F0F3FA"/><path d="M28.03 43.68c.1 0 .14 0 .16-.02.5-.48 1.08-1.08 1.76-1.8.36-.37.8-.56 1.33-.56h.78c.16 0 .27.07.33.22.05.15.03.28-.09.38a78.78 78.78 0 0 0-4.05 4.02c-.05.05-.12.08-.23.08-.1 0-.17-.03-.22-.08a79.88 79.88 0 0 0-4.05-4 .34.34 0 0 1-.1-.4.32.32 0 0 1 .33-.21h.78c.53 0 .97.19 1.34.56.67.71 1.26 1.3 1.76 1.8l.17.01Z" fill="#AAA"/></svg>