<!-- by TradingView --><svg width="56" height="56" viewBox="0 0 56 56" xmlns="http://www.w3.org/2000/svg"><path fill="#F0F3FA" d="M0 0h56v56H0z"/><path d="M20.44 20c2.1-.94 7.59-3 12.78-3C39.7 17 46 19.68 46 24.98c0 4.18-4.77 8.1-7.28 9.63a8.54 8.54 0 0 0 3.8-6.54l.07-.07h-5.03a4.5 4.5 0 0 0 2.33-3h-2.1a2.5 2.5 0 1 1 0-2h2.1a4.5 4.5 0 1 0-6.45 5H30v1h7.85a7.5 7.5 0 1 1-5.6-8.8c.07-.07.16-.13.25-.2H20.44ZM38.6 34.68Z" fill="#008C52"/><path d="M10 31c0-4.88 5.22-8.6 7.83-10-1.45 1.21-4.07 4.65-2.88 8.69 1.18 4.03 5.22 6 7.1 6.31h14.53c-5.19 2.22-9.87 3-13.81 3C14.9 39 10 35.07 10 31Z" fill="#09429C"/></svg>