<!-- by TradingView --><svg width="56" height="56" viewBox="0 0 56 56" xmlns="http://www.w3.org/2000/svg"><path fill="#F0F3FA" d="M0 0h56v56H0z"/><path d="m41.44 23.47-4.56 4.56 4.56 4.57L46 28.03l-4.56-4.56Z" fill="#005CAB"/><path fill-rule="evenodd" d="M23.42 14.57 27.98 10l4.56 4.57-4.56 4.56-4.56-4.56Zm.32 0 4.24-4.25 4.24 4.25-4.24 4.24-4.24-4.24ZM28.36 19.5l4.56-4.57 8.15 8.16-4.57 4.57-8.14-8.16Zm.32.07 4.25-4.25 7.69 7.7-4.25 4.24-7.69-7.69ZM14.94 32.92l4.57-4.57 8.14 8.16-4.56 4.57-8.15-8.16Zm.42-.16 4.12-4.12 7.82 7.83-4.12 4.12-7.82-7.83ZM28.36 36.5l8.14-8.15 4.57 4.57-8.15 8.16-4.56-4.57Zm.32-.06 7.69-7.7L40.62 33l-7.7 7.7-4.24-4.26ZM14.95 23.08l8.14-8.15 4.57 4.57-8.15 8.15-4.56-4.57Zm.32-.07 7.69-7.7 4.25 4.26-7.7 7.7L15.28 23ZM23.4 41.43l4.57-4.56 4.56 4.57L27.97 46l-4.56-4.57Zm.37 0 4.2-4.2 4.2 4.2-4.2 4.2-4.2-4.2Z" fill="#005CAB"/><path d="M14.56 23.42 10 27.98l4.56 4.57 4.56-4.57-4.56-4.56Z" fill="#005CAB"/></svg>