<!-- by TradingView --><svg width="56" height="56" viewBox="0 0 56 56" xmlns="http://www.w3.org/2000/svg"><path fill="#243869" d="M0 0h56v56H0z"/><path d="M44 33V23h2v8h4v2h-6ZM25 23h2v4h4v-4h2v10h-2v-4h-4v4h-2V23ZM19.87 33C16.99 33 15 30.77 15 28c0-2.78 2-5 4.96-5 1.86 0 3.16.9 3.92 2.14l-1.67 1.2A2.78 2.78 0 0 0 19.92 25 2.82 2.82 0 0 0 17 28c0 2 1.35 3 2.83 3 .95 0 1.68-.32 2.17-.97V28h2v2.67A4.68 4.68 0 0 1 19.87 33ZM10.55 31c.64 0 1.45-.4 1.45-.86 0-.64-1.02-.75-2.34-1.34-1.33-.6-2.16-1.26-2.16-2.81 0-1.77 1.23-2.99 3.13-2.99 1.42 0 2.55.69 3.17 1.8L12.13 26c-.37-.62-.89-1-1.53-1-.52 0-1.07.45-1.07.99 0 .51.82.67 1.71 1.06 1.55.68 2.76 1.3 2.76 3.02 0 1.57-1.3 2.93-3.45 2.93A4 4 0 0 1 7 31.03l1.6-1.25C9 30.42 9.69 31 10.55 31ZM41.59 26.49a3 3 0 1 0 0 3.01L43 30.58A4.7 4.7 0 0 1 38.88 33 4.84 4.84 0 0 1 34 28c0-2.78 1.97-5 4.95-5 1.73 0 3.23.83 4.02 2.4l-1.38 1.09Z" fill="#fff"/></svg>