<!-- by TradingView --><svg width="56" height="56" viewBox="0 0 56 56" xmlns="http://www.w3.org/2000/svg"><path fill="#F0F3FA" d="M0 0h56v56H0z"/><path d="M35 21h2.06L42 32.62 46.94 21H49v14h-2V25l-4.22 10h-1.56L37 25v10h-2V21ZM22 35V21h5.03c2.27 0 4.4 1.23 4.4 3.72 0 1.5-.9 2.55-2.32 2.92v.14c1.78.11 2.89 1.84 2.89 3.5 0 2.7-2.44 3.72-4.8 3.72H22Zm2-1.5h3.2c1.42 0 3.14-.5 3.14-2.22 0-1.66-1.53-2.8-3.06-2.8H24v5.02Zm0-6.5h2.97c1.42 0 2.81-.75 2.81-2.28 0-1.55-1.38-2.22-2.75-2.22H24V27ZM19 25.44h-2c-.4-1.86-1.9-2.9-3.72-2.9C10.23 22.54 9 25.22 9 28s1.23 5.46 4.28 5.46c1.82 0 3.32-1.04 3.72-2.9h2c-.52 2.77-2.99 4.44-5.72 4.44C9.34 35 7 31.71 7 28s2.34-7 6.28-7c2.73 0 5.2 1.67 5.72 4.44Z" fill="#0064AC"/></svg>