<!-- by TradingView --><svg width="56" height="56" viewBox="0 0 56 56" xmlns="http://www.w3.org/2000/svg"><path fill="#75A7EC" d="M0 0h56v56H0z"/><path d="m40.82 15.8.06 21.49c-.01.7.02 1.41.1 2.15.15 1.4-.43 2.4-1.74 3-1.08.5-2.3.63-3.68.4l-1.82-.8a3.05 3.05 0 0 0-2.6.05c-1.01.47-1.53.71-1.56.71-1.75.18-2.88.15-3.38-.09-.83-.4-1.6-.73-2.3-.97a1.05 1.05 0 0 0-.68-.01c-.25.08-.94.38-2.07.88a5.3 5.3 0 0 1-4.1-.05c-1.34-.47-2-1.1-2-1.89.02-8.08 0-16.17-.05-24.27.66-2.28 2.25-3.41 4.78-3.39 8.74.08 14.27.08 16.6 0 2.08-.08 3.56.85 4.44 2.8Z" fill="#fff"/><path d="M23 14.39v13.94c0 1.78-.88 2.67-2.63 2.67h-1.7c-1.81 0-2.7-.91-2.67-2.74l.08-9.94c0-1.21.16-2.07.44-2.57.52-.89 1.39-1.44 2.61-1.65a15.72 15.72 0 0 1 3.6-.01c.18.01.27.11.27.3ZM24.5 14H27c.33 0 .5.14.5.43v16.13c0 .17-.09.3-.26.38a.53.53 0 0 1-.5 0l-2.5-1.23c-.16-.09-.24-.21-.24-.38v-14.9c0-.29.17-.43.5-.43ZM29 14h2.5c.33 0 .5.14.5.43v14.9c0 .17-.08.29-.25.37l-2.5 1.24a.52.52 0 0 1-.5 0c-.17-.08-.25-.2-.25-.37V14.43c0-.29.17-.43.5-.43ZM33.05 14.38c0-.19.1-.29.27-.3l.23-.01a15.5 15.5 0 0 1 3.37.04c1.23.21 2.1.76 2.6 1.64.29.5.43 1.35.44 2.55l.04 9.87c.02 1.8-.87 2.71-2.67 2.7h-1.71c-1.75 0-2.62-.89-2.62-2.66l.05-13.83ZM27.89 34.65c-.76 0-1.28-.08-1.55-.25a6.17 6.17 0 0 0-3.42-1.08c-.23.01-.44.08-.62.2a5.76 5.76 0 0 1-5.14.73c-1.26-.42-1.7-1.26-1.33-2.51.08-.28.23-.33.46-.16 1.47 1.14 2.98 1.3 4.53.47a5.13 5.13 0 0 1 2.38-.75c1.21 0 2.36.36 3.46 1.06.21.14.62.2 1.23.21.6 0 1.02-.07 1.24-.2a6.35 6.35 0 0 1 3.46-1.05c.64 0 1.43.25 2.37.76 1.55.84 3.07.69 4.54-.45.23-.17.38-.12.46.16.36 1.25-.08 2.08-1.34 2.5a5.76 5.76 0 0 1-5.13-.75c-.2-.12-.4-.19-.63-.2a6.18 6.18 0 0 0-3.42 1.07 3.3 3.3 0 0 1-1.55.24ZM27.9 36.35c.62 0 1.03-.07 1.25-.2a6.36 6.36 0 0 1 3.45-1.06c.64 0 1.44.24 2.38.75 1.55.84 3.06.69 4.54-.45.22-.17.37-.12.45.16.37 1.25-.07 2.08-1.33 2.5a5.75 5.75 0 0 1-5.13-.74c-.2-.12-.4-.19-.63-.2a6.23 6.23 0 0 0-3.42 1.07c-.27.17-.79.26-1.55.26a3.3 3.3 0 0 1-1.55-.26 6.28 6.28 0 0 0-3.42-1.08c-.23.01-.44.08-.62.2a5.73 5.73 0 0 1-5.13.74c-1.26-.42-1.7-1.26-1.34-2.5.08-.29.23-.34.46-.16 1.47 1.14 2.98 1.3 4.53.46a5.21 5.21 0 0 1 2.38-.76c1.21 0 2.36.36 3.46 1.06.21.14.62.2 1.23.2ZM27.9 42.04a3.3 3.3 0 0 1-1.54-.25 6.22 6.22 0 0 0-3.43-1.07c-.23 0-.44.07-.63.2a5.75 5.75 0 0 1-5.13.73c-1.26-.42-1.7-1.26-1.34-2.5.08-.29.23-.34.46-.16 1.47 1.13 2.98 1.29 4.54.45a5.21 5.21 0 0 1 2.38-.76c1.21 0 2.37.36 3.46 1.06.22.14.63.21 1.24.21.6 0 1.02-.07 1.24-.2a6.33 6.33 0 0 1 3.45-1.07c.64 0 1.44.25 2.39.76 1.55.84 3.06.69 4.54-.45.23-.18.38-.13.46.15.37 1.25-.08 2.1-1.34 2.52a5.76 5.76 0 0 1-5.14-.75c-.19-.12-.4-.19-.63-.2a6.2 6.2 0 0 0-3.42 1.08 3.3 3.3 0 0 1-1.55.25Z" fill="#00599A"/></svg>