<!-- by TradingView --><svg width="56" height="56" viewBox="0 0 56 56" xmlns="http://www.w3.org/2000/svg"><path fill="#F0F3FA" d="M0 0h56v56H0z"/><path d="M44.11 22c.02 0 .04.01.05.03l4.83 11.9c.02.05 0 .07-.04.07H33.92c-.04 0-.06-.02-.04-.07l2.2-5.52c.01-.02.03-.03.05-.03h3.39c.04 0 .06.02.04.06l-.86 2.46c-.01.05 0 .1.05.1H44c.05 0 .06-.05.05-.1l-2-5.47a.05.05 0 0 0-.05-.03h-1.28c-.03 0-.04.01-.05.03l-.75 2.15c0 .03-.02.04-.05.04h-3.4c-.05 0-.06-.03-.05-.07l2.2-5.52c.01-.02.03-.03.05-.03h5.44Zm-28.93 0a6.5 6.5 0 0 1 4.03 1.75 5.62 5.62 0 0 1 1.77 3.9c0 .06-.03.1-.1.1h-2.9a.26.26 0 0 1-.2-.08l-2.8-2.72c-.14-.14-.28-.2-.42-.17a.89.89 0 0 0-.41.26l-2.78 2.7c-.16.16-.22.32-.17.48.03.11.14.26.33.44l2.7 2.61c.24.23.48.24.73.01.24-.21 1.18-1.13 2.83-2.73.04-.04.1-.07.16-.07h3c.03 0 .05.02.05.05v5.4c0 .05-.02.07-.06.07l-6.72-.01a7 7 0 0 1-2.43-.43 5.87 5.87 0 0 1-1.94-1.18 5.5 5.5 0 0 1-1.31-1.81 6.18 6.18 0 0 1-.15-4.66 5.8 5.8 0 0 1 1.23-1.9 7.15 7.15 0 0 1 4.2-2.02h1.36Zm7.86 0h5.58c1.27 0 2.33.27 3.18.82a3.12 3.12 0 0 1 1.5 2.84c0 .38-.07.74-.21 1.08-.15.35-.36.65-.62.9-.03.01-.02.03 0 .05a2.7 2.7 0 0 1 1.49 2.08 3.7 3.7 0 0 1-.55 2.55c-.68 1.05-2.03 1.6-4.05 1.67h-6.3c-.04 0-.06-.02-.06-.06V22.04c0-.03.01-.04.04-.04Zm3 2.53c-.02 0-.04.01-.04.04v6.55c0 .07.03.1.1.1h3c.36 0 .62-.13.77-.4.15-.25.17-.55.06-.89-.12-.36-.4-.55-.85-.55H26.8c-.04 0-.07-.02-.07-.06v-2.97c0-.04.02-.06.06-.06h2.23c.27 0 .46-.08.58-.23.1-.14.17-.3.2-.48.03-.17.02-.34-.03-.5-.12-.37-.38-.56-.77-.55h-2.96Z" fill="url(#a)"/><defs><linearGradient id="a" x1="25.38" y1="23.03" x2="25.38" y2="33.21" gradientUnits="userSpaceOnUse"><stop stop-color="#236096"/><stop offset=".33" stop-color="#253D61"/><stop offset="1" stop-color="#171529"/></linearGradient></defs></svg>