<!-- by TradingView --><svg width="56" height="56" viewBox="0 0 56 56" xmlns="http://www.w3.org/2000/svg"><path fill="#A13155" d="M0 0h56v56H0z"/><path d="M50 23v10h-2v-4h-4v4h-2V23h2v4h4v-4h2ZM35 27h5v6h-4.41C32.52 33 31 31.02 31 27.94c0-3.07 1.58-4.94 4.68-4.94H40v2h-4.07c-1.88 0-2.93.75-2.93 2.94 0 1.96.9 3.06 3 3.06h2v-2h-3v-2ZM27 33V23h2v10h-2ZM20.02 23c3.2 0 4.98 1.91 4.98 5.04 0 3.22-1.8 4.96-4.98 4.96-3.14 0-5.02-1.83-5.02-4.96C15 24.8 16.83 23 20.02 23Zm0 2C18 25 17 26.28 17 28.04c0 2.3 1.2 2.96 3.02 2.96 1.8 0 2.98-.64 2.98-2.96 0-2.28-1.16-3.04-2.98-3.04ZM14 31v2h-3.4C7.54 33 6 31.07 6 28c0-3.07 1.69-5 4.7-5H14v2h-3.06C9.02 25 8 26.22 8 28c0 1.94.95 3 3.02 3H14Z" fill="#fff"/></svg>