<!-- by TradingView --><svg width="56" height="56" viewBox="0 0 56 56" xmlns="http://www.w3.org/2000/svg"><path fill="#F0F3FA" d="M0 0h56v56H0z"/><path d="M44.93 29.49v.2a17.15 17.15 0 0 1-8.46 13.21A16.49 16.49 0 0 1 25.4 45c-.06 0-.1.02-.1.08-.01.05 0 .12.03.2 0 0-.03.02-.04.06l-.26-.9a.3.3 0 0 1 .07-.08c0 .04.03.07.06.07a16.41 16.41 0 0 0 16.96-7.89 16.48 16.48 0 0 0-.6-17.81 16.38 16.38 0 0 0-7.6-6.05 15.64 15.64 0 0 0-8.99-.85 16.19 16.19 0 0 0-7.88 4.01c-.03.06-.01.1.04.12a.2.2 0 0 0 .08 0c0 .27.05.53.14.8.15.87.36 1.72.62 2.55.05.13.11.4.2.83.07.28.17.55.3.82-.03.2 0 .42.09.62-.17.18-.26.31-.26.4-.12.17-.22.34-.3.52-.02.04-.04.07-.07.09a.14.14 0 0 1-.1.01.13.13 0 0 1-.1-.1v-.15c.02-.07 0-.1-.08-.11l-.31-.03a.1.1 0 0 0-.11.07l-.34.82a.1.1 0 0 0 .03.12l.2.2c.04.04.07.04.09 0 .07-.15.15-.18.25-.12.06.03.07.07.05.13l-.29.7a.1.1 0 0 1-.1.06.1.1 0 0 1-.1-.1l-.03-.16a.3.3 0 0 0-.08-.17l-1.86-1.87c-.04-.04-.08-.04-.11.01-.06.09-.14.1-.22.06a.12.12 0 0 1-.05-.15l.24-.55c.02-.05.06-.08.11-.07a1738.6 1738.6 0 0 1 3.13.35c.05-.02.05-.05.03-.1.1.01.16 0 .17-.01a.31.31 0 0 0 .02-.3c-.13-.3-.25-.59-.35-.87a9.79 9.79 0 0 1-.14-.66 1.39 1.39 0 0 0-.3-.63c-.1-.18-.2-.35-.35-.5-.04-.04-.09-.05-.14-.02a.48.48 0 0 1-.1.05c-.06.01-.1 0-.15-.04-.03-.04-.04-.08-.03-.14a.2.2 0 0 1 .07-.1 4.28 4.28 0 0 0 .36-.36.2.2 0 0 0 .01-.08c0-.2-.04-.37-.1-.52-.03-.2-.08-.39-.17-.57.01-.27-.1-.4-.36-.4-.06 0-.1.03-.14.07a16.58 16.58 0 0 0 7.29 27.75l.31.06.24.57c-.16-.02-.26-.01-.3.01a.3.3 0 0 0-.12-.06 17.15 17.15 0 0 1-9.93-7.06 17.38 17.38 0 0 1-2.94-9.9c0-.18.02-.34.05-.5.05-.2.02-.4.04-.66a16.8 16.8 0 0 1 3.43-8.77 16.72 16.72 0 0 1 19.44-5.68 16.87 16.87 0 0 1 7.57 5.72 16.87 16.87 0 0 1 3.4 11.65Z" fill="#00113B"/><path d="M24.95 44.43c-.07-.2-.17-.53-.15-.7 3.36.6 6.76.3 9.75-1.06a16.02 16.02 0 0 0 4.67-25.85 15.59 15.59 0 0 0-7.77-4.3 15.55 15.55 0 0 0-13.56 3.28c-.19-.26-.3-.3-.36-.12l-.3.01a16.19 16.19 0 0 1 7.71-3.86c3.03-.6 6.03-.32 8.98.85a16.38 16.38 0 0 1 7.6 6.05 16.48 16.48 0 0 1 .61 17.81 16.41 16.41 0 0 1-16.96 7.9c-.03-.01-.21.03-.22 0Z" fill="#FFF000"/><path d="M24.67 43.27c-.13-.46-.46-1.02-.62-1.63-.05-.17-.63-1.92-.43-2.32l.6.47.3.9c.04 0 .07-.02.09-.07l.5-1.47c.03-.07 0-.11-.07-.14l-1-.34c-.05-.02-.1 0-.12.06l-.11.34c-.13-.27-.22-.6-.25-.97a10.8 10.8 0 0 0 8.43.19c1.2-.47 2.33-1.19 3.36-2.17.28.01.6.04.98.1.25.03.4.1.44.2l1.07.78c.04.04.08.03.12-.01l.49-.69c.1-.05.18-.05.25.02l.86.64c.09.06.16.05.22-.04l.08-.1c.05-.08.04-.15-.03-.2l-.3-.22c.02-.06.05-.09.11-.1l.6.03c.08 0 .1-.02.07-.1l-.04-.08a.28.28 0 0 0 .03-.2 20.4 20.4 0 0 0-1.12-3.29.36.36 0 0 0 .16-.07c.04-.04.04-.08 0-.12-.18-.23-.24-.47-.15-.72a10.64 10.64 0 0 0 .5-2.64.08.08 0 0 1 .06-.03h2.35c.06 0 .1.03.13.09.06.12.15.18.28.17a.1.1 0 0 0 .09-.1v-.98a.15.15 0 0 0-.1-.14.14.14 0 0 0-.16.06l-.1.13a.13.13 0 0 1-.1.05h-2.35c-.05 0-.08-.02-.08-.08v-.23c0-.02 0-.04-.02-.05a.07.07 0 0 0-.05-.02h-.19c-.08 0-.13.04-.13.12a19.1 19.1 0 0 1-.48 3.68c-.1-.2-.2-.4-.26-.64-.07-.2-.07-.42-.02-.65.67-2.95.25-5.7-1.28-8.24a10.91 10.91 0 0 0-7.5-5.13c-2.96-.46-5.68.19-8.16 1.96a.17.17 0 0 1-.15.02c-.21-.05-.4-.16-.58-.33l.35-.3a.1.1 0 0 0 .03-.11c-.02-.04-.05-.07-.1-.08h-.08l-.12.05c-.06.02-.1 0-.14-.04l-1.61-1.9a.13.13 0 0 1-.03-.07v-.07l.04-.1a.12.12 0 0 0-.04-.14.52.52 0 0 0-.04-.02.13.13 0 0 0-.14.02l-.4.34a.25.25 0 0 0-.07.25l.22.9-.56-.27-.24-1 .94-.73a15.12 15.12 0 0 1 14.92-1.87 15.15 15.15 0 0 1 7.65 6.88 15.55 15.55 0 0 1-7.3 21.56 15.53 15.53 0 0 1-9.5 1Z" fill="#FFF000"/><path d="M29.95 15.19c.13.53.33 1.03.62 1.48.05.08.03.11-.06.1l-.58-.04a.22.22 0 0 1-.2-.17l-.44-1.36a.12.12 0 0 0-.11-.09l-.3-.02c-.07 0-.1.02-.11.1l-.08.91c0 .06.01.1.07.13.07.04.12.1.15.15a.14.14 0 0 1-.14.21l-.91-.08a.12.12 0 0 1-.1-.1v-.04c.01-.1.08-.15.2-.16.04 0 .07-.04.08-.09l.22-2.57c0-.06-.02-.1-.08-.12-.13-.05-.17-.13-.14-.26.01-.06.05-.08.1-.07l1.06.08c.46.03.8.11 1 .26.38.25.48.67.3 1.25-.04.15-.2.28-.5.4-.04.01-.06.05-.05.1ZM26.42 16.83c-.36.02-.73-.14-1.01-.45a2.09 2.09 0 0 1-.5-1.23c-.02-.23 0-.47.05-.69.05-.22.14-.42.25-.6.12-.18.26-.32.42-.42.16-.1.33-.16.51-.18.37-.03.73.13 1.01.45.29.31.47.75.5 1.22.02.24 0 .47-.05.7a1.9 1.9 0 0 1-.25.6c-.11.17-.25.32-.41.42-.16.1-.34.16-.52.18Z" fill="#00113B"/><path d="M28.88 13.52a.05.05 0 0 1 .03-.04h.02l.34.02c.16.01.31.08.42.19.1.11.16.25.15.4v.06a.52.52 0 0 1-.2.37.65.65 0 0 1-.45.13l-.33-.02a.05.05 0 0 1-.05-.05l.07-1.06Z" fill="#FFF000"/><path d="m24.34 17.3-.51.16a.11.11 0 0 1-.14-.07l-.03-.1c-.02-.08 0-.13.08-.16l.08-.02c.06-.02.08-.07.06-.13l-.78-2.43a.16.16 0 0 0-.2-.1.16.16 0 0 0-.08.06l-.36.52a.05.05 0 0 1-.1-.02l-.17-.55c-.01-.04.01-.08.08-.11a105.43 105.43 0 0 1 2.03-.66c.08-.02.12 0 .13.04l.18.55a.05.05 0 0 1 0 .05.05.05 0 0 1-.06.02l-.6-.2a.16.16 0 0 0-.2.19l.77 2.43c.03.07.07.09.13.07l.08-.03c.08-.02.13 0 .15.08l.03.1v.08a.11.11 0 0 1-.06.06l-.5.17Z" fill="#00113B"/><path d="M25.65 15.1c.08.77.42 1.37.76 1.34.35-.04.57-.69.5-1.46-.07-.77-.41-1.37-.76-1.34-.35.04-.57.69-.5 1.46Z" fill="#FFF000"/><path d="M32.99 14.3c-.08-.04-.11-.11-.1-.22a.11.11 0 0 1 .05-.08.11.11 0 0 1 .1-.01l1.2.5c.36.16.75.42.79.83.04.4-.11.71-.46.94-.04.03-.06.07-.05.12.04.21.07.37.07.47 0 .84-.67 1.17-1.4.9-.58-.23-1.04-.42-1.37-.58-.12-.06-.14-.15-.07-.27.03-.05.07-.07.13-.05l.05.01c.06.02.1 0 .12-.06l.98-2.38v-.07a.1.1 0 0 0-.04-.04Z" fill="#00113B"/><path d="M33.68 14.7a.1.1 0 0 1 .12-.04l.23.09c.13.05.24.16.3.29.06.13.07.27.02.4l-.02.05a.5.5 0 0 1-.29.29.55.55 0 0 1-.42 0l-.22-.1a.1.1 0 0 1-.06-.11l.34-.86Z" fill="#FFF000"/><path d="M22.33 18.1c-.32.18-.7.2-1.09.03a2.03 2.03 0 0 1-.95-.9c-.22-.4-.31-.86-.25-1.28.07-.41.28-.74.6-.92.31-.17.7-.18 1.09-.02.38.17.72.49.94.9.23.4.32.87.25 1.28-.06.41-.28.74-.6.92Z" fill="#00113B"/><path d="M20.93 16.88c.4.66.96 1.05 1.26.87.3-.18.21-.87-.19-1.53s-.96-1.05-1.26-.87c-.3.18-.21.86.19 1.53Z" fill="#FFF000"/><path d="M37.21 16.83a.46.46 0 0 1-.07-.18.12.12 0 0 1 .06-.12.12.12 0 0 1 .13.02l.63.52a.1.1 0 0 1 .04.05.1.1 0 0 1 0 .07l-.05.06a.12.12 0 0 1-.13.03.4.4 0 0 0-.15-.02c-.06 0-.1.03-.13.07-.74.94-1.2 1.5-1.37 1.67-.45.46-1.07.28-1.44-.18-.58-.7-.04-1.28.47-2a40.96 40.96 0 0 1 .67-.95.1.1 0 0 0-.02-.06c-.1-.1-.14-.19-.12-.27a.12.12 0 0 1 .13-.08l.05.02.88.63a.09.09 0 0 1 .02.14c-.07.07-.17.09-.29.06a.1.1 0 0 0-.06 0 .1.1 0 0 0-.05.04l-1.24 1.76c-.17.24-.15.45.08.62l.04.03c.08.06.18.08.28.06.1-.02.2-.08.27-.17l1.36-1.67c.04-.05.04-.1.01-.15Z" fill="#00113B"/><path d="M17.89 15.8c-.13.14-.1.35.07.64l.24.99c.02.02.02.05 0 .07l-.12.09-.55-1.91c.05-.17.17-.14.36.12Z" fill="#884E33"/><path d="m17.23 15.69.3-.01.55 1.9.42 1.52c.02.18.05.34.12.5l.31 1.17.43 1.6 2.89 11.24.5 1.99c.1-.05.13.03.1.24-.05.03-.1.04-.13.02a.08.08 0 0 1-.05-.04.08.08 0 0 1 0-.07c.04-.1.02-.17-.06-.2a.18.18 0 0 1-.12-.13L17.5 16c-.01-.05-.04-.07-.1-.06l-.22.03a.2.2 0 0 1-.08-.01c-.05-.02-.07-.06-.04-.12a.36.36 0 0 1 .17-.15Z" fill="#FAB7A3"/><path d="m22.85 35.84.02.17c-.08 0-.13 0-.16.04-.03.02-.03.07 0 .14.18.6.34 1.2.45 1.77.1.44.2.88.34 1.3a8.1 8.1 0 0 1 .31 1.34.04.04 0 0 0 .07-.01l.04-.08.36 1.73c.04.15-.02.24-.18.67A43.1 43.1 0 0 1 23 38.7c-.09-.43-.2-.86-.31-1.28a16.4 16.4 0 0 1-.3-1.3.12.12 0 0 0-.11-.1l-.17-.03c.18 0 .32-.03.44-.12.05-.04.05-.07-.01-.09a.65.65 0 0 0-.32-.01c.08-.06.1-.13.06-.2a1.19 1.19 0 0 1-.08-.17l-.67-2.65a1.8 1.8 0 0 0-.12-.3c-.04-.1-.08-.2-.1-.3l-.06-.43a477.6 477.6 0 0 1-2.13-8.34c-.03-.14-.1-.28-.18-.4l-.4-1.4c-.09-.2-.12-.4-.1-.61a31.78 31.78 0 0 0-.71-3.18c-.1-.34-.23-.69-.4-1.02-.1-.27-.14-.53-.14-.8l.23-.02c.05 0 .08.01.1.06l4.98 19.42c0 .03.02.06.04.08l.07.05c.1.03.11.1.07.2a.08.08 0 0 0 0 .07.09.09 0 0 0 .05.04c.03.02.08 0 .13-.02Z" fill="#C98768"/><path d="M33.13 16.14a.12.12 0 0 1 .1-.07h.05l.22.1a.71.71 0 0 1 .36.32c.04.07.06.15.07.22 0 .08-.01.15-.04.22v.03a.52.52 0 0 1-.13.18.57.57 0 0 1-.2.13.7.7 0 0 1-.48-.01l-.22-.1a.12.12 0 0 1-.07-.06.12.12 0 0 1 0-.09l.34-.87Z" fill="#FFF000"/><path d="M20.89 18.97a.2.2 0 0 0-.07.04 2.04 2.04 0 0 0-.68-.33l-.42-.4a.25.25 0 0 0-.22-.16 1.09 1.09 0 0 1-.25-.06 4.15 4.15 0 0 1-.4-.22l-.1-.13-.21-.91a.25.25 0 0 1 .08-.25l.39-.34a.13.13 0 0 1 .14-.02l.04.02a.12.12 0 0 1 .04.14l-.03.1c-.01.03-.01.05 0 .07 0 .03 0 .05.02.06l1.6 1.91c.05.05.1.06.15.04l.12-.05c.02 0 .05-.01.07 0 .06.01.1.04.11.08a.1.1 0 0 1-.03.12l-.35.3Z" fill="#00113B"/><path d="M16.95 16.69a15.95 15.95 0 0 0-2.4 19.87c2.12 3.37 5.71 5.85 9.63 7.08.16.17.16.35.08.6a16.35 16.35 0 0 1-11.67-10.37 16.58 16.58 0 0 1 3.86-17.51.18.18 0 0 1 .14-.06c.25 0 .37.12.36.39Z" fill="#FFF000"/><path d="M18.44 20.96a3.5 3.5 0 0 1-.3-.82c-.09-.42-.15-.7-.2-.83-.26-.83-.47-1.68-.62-2.55.17.33.3.68.4 1.02.29 1.03.53 2.1.72 3.18Z" fill="#884E33"/><path d="m38.84 31.98.34.88c.48 1.13.86 2.22 1.12 3.3.01.06 0 .12-.03.19l-1.21-.1c-.1 0-.16-.03-.18-.06a.23.23 0 0 1-.04-.12c0-.04.01-.08.04-.11l.41-.58c.08-.1.07-.2-.04-.27l-.93-.67c-.12-.08-.22-.06-.3.05l-.45.64a.07.07 0 0 1-.04.03.07.07 0 0 1-.05-.01l-.31-.22c-.07-.06-.14-.04-.19.03l-.08.12c-.06.09-.05.16.03.21l.28.2c.05.04.06.08.03.13l-.29.43-2.52-.34-1.33-.2c-.01 0-.01 0 0 0v-.01h.07c.04-.01.04-.02 0-.03-.49-.06-.96-.14-1.42-.24-2-.41-4.38-.93-7.12-1.56-.72-.16-1.44-.3-2.15-.42-.1-.01-.14-.07-.15-.17-.06-1.57-.14-3.03-.25-4.38-.19-2.55-.76-5-1.72-7.35l-.83-1.84c.1-.02.19.03.29.15.03.03.05.03.08.01a.05.05 0 0 0 .02-.05l-.32-1.25v-.03a.1.1 0 0 1 .12-.05l.42.39c.18.19.24.33.2.44-.15.33-.09.38.18.14l.3-.25a.2.2 0 0 1 .07-.04c.17.17.37.28.58.33.06.02.1 0 .15-.02a10.68 10.68 0 0 1 8.15-1.96c3.1.5 5.92 2.47 7.51 5.13a10.82 10.82 0 0 1 1.28 8.24c-.05.23-.05.45.02.65.07.23.16.44.26.64Z" fill="#fff"/><path d="m17.54 18.97.6 2.48c.03.04.03.07-.02.1A1715.52 1715.52 0 0 0 15 21.2c-.05-.02-.1 0-.11.06l-.23.55a.12.12 0 0 0 0 .08c0 .03.02.05.04.07.08.05.15.03.22-.06.03-.05.07-.05.11 0l1.86 1.86c.05.05.07.1.08.17l.03.17a.1.1 0 0 0 .09.09.1.1 0 0 0 .11-.07l.29-.7c.02-.05 0-.1-.05-.12-.1-.06-.18-.03-.25.11-.02.05-.05.05-.1.02l-.2-.2a.1.1 0 0 1-.02-.13l.34-.82a.1.1 0 0 1 .1-.07l.32.03c.07 0 .1.04.08.1a.37.37 0 0 0 0 .15.13.13 0 0 0 .1.11c.03.01.07 0 .1-.01.03-.02.05-.05.07-.1.08-.17.18-.34.3-.52l.22.88a10.82 10.82 0 0 0-1.17 7.31c.55 2.82 2.01 5.1 4.39 6.83.02.02.98.73 1.03.7.08.19-.07.56-.08.7 0 0-1.44-1.09-1.65-.7a2.9 2.9 0 0 0-.29 1.96.04.04 0 0 0 .07 0c.17-.2.28-.44.3-.7l.08-.56c.06-.18.13-.35.23-.5a.2.2 0 0 1 .17-.09.2.2 0 0 1 .16.09c.05.09.23.04.36.12 0 0 .51.09.57.38l-1.44 2.96c-.04.11 0 .19.11.23l.15.05h.1a.13.13 0 0 0 .06-.08l.19-.54c0-.02.02-.04.04-.05a.09.09 0 0 1 .06 0c.46.13.85.03 1.17-.29.05.13.06.26.05.38-.07.38-.2.67-.37.87a.13.13 0 0 0-.03.14c.01.04.04.08.08.11s.09.04.14.02l.46-.16c.08.18.12.42.1.71 0 .03.46.26.43.33a16.7 16.7 0 0 1-9.51-7.72 15.52 15.52 0 0 1 2.66-18.09c.07.15.1.33.11.52a.2.2 0 0 1-.05.14l-.32.3a.2.2 0 0 0-.07.1c-.01.06 0 .1.03.14.04.04.1.05.15.04l.1-.05c.05-.03.1-.02.14.02.14.15.26.32.34.5Z" fill="#FFF000"/><path d="m18.2 17.5.63.9.59.96c0 .06 0 .1-.04.13-.04.04-.08.04-.13 0-.13-.1-.27-.18-.44-.23-.06-.08-.16-.13-.3-.16l-.43-1.51.12-.09ZM36.14 19.9a.1.1 0 0 1-.05-.01.05.05 0 0 1-.02-.03v-.03l.3-.74c.04-.09.1-.12.19-.08l.08.03c.06.03.08.07.05.13-.13.33-.1.64.1.93.2.3.7.3.77-.11a.87.87 0 0 0 0-.4c-.2-.65-.42-1.36.21-1.79.47-.3.9-.23 1.28.2.13.15.25.54.48.7.05.02.06.06.04.11l-.4.7a.13.13 0 0 1-.07.06c-.07.03-.13 0-.17-.08a.16.16 0 0 1-.02-.1c.12-.5.17-.9-.36-1.19a.24.24 0 0 0-.16-.02c-.25.05-.33.24-.23.57.22.82.6 1.87-.45 2.14-.39.1-.71.03-.98-.21-.17-.17-.3-.5-.47-.69a.4.4 0 0 0-.07-.06.11.11 0 0 0-.05-.03ZM25.76 21.12a29.32 29.32 0 0 1-3.64-1.47.08.08 0 0 1 0-.09l.02-.03a10.18 10.18 0 0 1 6.98-1.77A10.42 10.42 0 0 1 38.2 29.9c-.03.23-.09.24-.17.02a69.11 69.11 0 0 1-1.76-5.67.18.18 0 0 0-.07-.1c-.11-.08-.23-.14-.36-.2-.76-.31-1.55-.58-2.37-.8L28.67 22c-.64-.16-1.6-.45-2.91-.87Z" fill="#00113B"/><path d="M19.72 18.29a.1.1 0 0 0-.11.05v.03l.31 1.25a.05.05 0 0 1-.02.05c-.03.02-.05.02-.08-.01-.1-.12-.2-.17-.29-.15-.05-.03-.08-.07-.11-.15l-.59-.96c.11-.03.12-.22.01-.56l.41.22c.04.02.12.04.25.06.11 0 .18.07.22.17ZM20.81 19.01l-.29.25c-.27.24-.33.2-.18-.14.04-.1-.02-.25-.2-.44.23.06.46.17.67.33Z" fill="#8893AC"/><path d="m18.15 21.45-.6-2.48c.15.18.25.4.3.63.08.4.12.62.14.66.1.28.22.57.35.87a.31.31 0 0 1-.02.3c0 .01-.07.02-.17.02Z" fill="#515B63"/><path d="M19.42 19.36c.03.08.06.12.11.15l.83 1.84c-.21.01-.35.08-.4.22l-.24-.44-.37-.7.17-.2c.04-.04.05-.07.06-.1a.2.2 0 0 0-.02-.1c-.03-.05-.06-.07-.12-.06-.25.03-.74-.15-.86-.37-.12-.21.02-.39-.2-.66.17.05.75.45.87.55.05.04.09.04.13 0 .03-.03.05-.07.04-.13Z" fill="#463E51"/><path d="M18.88 19.7c.12.21.3.3.56.27.06 0 .1.01.12.07a.2.2 0 0 1 .02.1c0 .02-.02.05-.06.09a1.4 1.4 0 0 0-.17.2.88.88 0 0 0-.31.28l-.1.06-.32-1.18c0-.09.09-.05.26.1Z" fill="#00113B"/><path d="m19.35 20.43.37.7c-.18.12-.32.3-.43.5l-.25-.92c.08-.12.18-.21.3-.28Z" fill="#FFF000"/><path d="m19.04 20.7.25.94.17.61-.1.13-.43-1.6.1-.07Z" fill="#884E33"/><path d="m19.72 21.13.24.44-.5.68-.17-.61c.1-.22.25-.39.43-.51Z" fill="#fff"/><path d="M20.36 21.35c.95 2.35 1.53 4.8 1.72 7.35a127 127 0 0 1 .25 4.38c0 .1.05.16.15.17.71.12 1.43.26 2.15.42a383 383 0 0 0 7.12 1.56 19.62 19.62 0 0 0 1.37.26h-.02v.02l1.33.2c.23.13.33.23.29.31a10.15 10.15 0 0 1-6.86 2.5 10 10 0 0 1-4.55-1.14c.02.03-.01.03-.09 0L22.87 36l-.02-.17c.03-.2 0-.29-.1-.24l-.5-1.99-2.89-11.23.1-.13.5-.68c.05-.14.19-.21.4-.22Z" fill="#00113B"/><path d="M18.93 22.97v.44a.43.43 0 0 0-.05-.18c-.04-.05-.06-.02-.07.08 0 .12-.05.22-.13.29a1.47 1.47 0 0 0-.2-.75l-.2-.88c0-.08.08-.21.25-.4l.4 1.4Z" fill="#463E51"/><path d="M41.64 23a.2.2 0 0 1 .12.15.1.1 0 0 1-.01.07.1.1 0 0 1-.06.03l-.7.23a.08.08 0 0 1-.09-.03.09.09 0 0 1-.01-.03c-.03-.1.02-.19.13-.26a.24.24 0 0 0 .09-.1c.33-.77-.57-.92-1.08-.74-.61.23-1 .54-1.18.93-.17.41-.06.72.34.92a.07.07 0 0 1 .03.04.07.07 0 0 1-.01.06l-.03.05a.17.17 0 0 1-.2.06.8.8 0 0 1-.46-.36c-.72-1.36 1.2-2.62 2.37-2.14.43.18.65.5.66.97 0 .06.03.11.09.14Z" fill="#00113B"/><path d="m16.54 22.86-.76-.73a.05.05 0 0 1-.02-.06.05.05 0 0 1 .06-.03l1.04.13a.05.05 0 0 1 .04.08l-.28.6a.05.05 0 0 1-.03.02.05.05 0 0 1-.05-.01Z" fill="#FFF000"/><path d="m27.84 24.2.5.1c.13.02.3.06.5.12.28.08.62.14 1 .18.13.01.31.06.56.14a5 5 0 0 0 .55.14c.7.14 1.36.38 1.97.71.05.03.08.06.1.11.34 1.32.67 2.55 1 3.72.36 1.23.74 2.3 1.14 3.23.13.28.23.49.33.63.07.1.04.15-.1.13-3.19-.5-6.6-1.32-10.2-2.44a.11.11 0 0 1-.09-.11 31.4 31.4 0 0 0-1.6-8.25h.03c.93.45 1.93.86 3 1.24.14.04.33.08.57.11.13.02.25.05.37.11.14.07.26.11.37.13Z" fill="#EF001D"/><path d="M14.71 25.1c-.1.03-.09.06 0 .08l1.6.43c.04 0 .07 0 .1-.04.08-.14.17-.18.26-.12l.04.05v.06l-.15.66a.1.1 0 0 1-.1.07c-.13-.02-.19-.08-.19-.2 0-.07-.03-.1-.1-.12l-2.38-.59c-.05-.01-.08 0-.1.06l-.05.14c-.01.03-.04.05-.07.04h-.07c-.05 0-.08-.04-.07-.1l.06-.69.03-.09a.16.16 0 0 1 .08-.05l1.61-.53c.1-.03.1-.06 0-.1l-.94-.32c-.06-.02-.1 0-.12.05a.24.24 0 0 1-.1.13.11.11 0 0 1-.13 0 .12.12 0 0 1-.04-.13l.16-.68c.02-.06.05-.1.11-.12h.13a.1.1 0 0 1 .06.12v.14c-.01.05 0 .08.05.1l2.53.88c.1.03.1.07 0 .1l-2.21.77Z" fill="#00113B"/><path d="M22.21 35.76h-.08l-3.2-12.35v-.44c.09.12.15.26.19.4.63 2.6 1.34 5.38 2.12 8.34l.07.43c.01.1.05.2.1.3.05.13.1.23.1.3l.68 2.65.08.16c.04.08.02.15-.06.2Z" fill="#884E33"/><path d="m18.93 23.41 3.2 12.35c1.18-.3.1.45.14.53l.08.34c0 .03.06.11.06.13 0 .07-.45-.25-.51-.27a.91.91 0 0 1-.26-.15l-.91-.88a9.72 9.72 0 0 1-2.53-4.04c-.86-2.61-.7-5.22.48-7.82a.37.37 0 0 0 .13-.29c0-.1.03-.13.07-.08.02.03.04.1.05.18ZM42.3 24.85c.05.17.05.34.02.52-.04.18-.12.36-.24.52a1.8 1.8 0 0 1-.44.44c-.18.12-.39.22-.6.28-.43.13-.89.12-1.27-.02a1.2 1.2 0 0 1-.74-.76 1.08 1.08 0 0 1-.02-.52c.04-.18.11-.36.23-.52.12-.17.27-.32.45-.44s.38-.22.6-.28c.43-.13.88-.12 1.26.02.38.15.65.42.75.76Z" fill="#00113B"/><path d="M40.84 25.92c.7-.23 1.2-.67 1.09-1-.1-.31-.76-.39-1.46-.16-.7.24-1.2.68-1.09 1 .1.32.76.4 1.46.16Z" fill="#FFF000"/><path d="M31.37 26.57c.04.29-.02.5-.2.63a.1.1 0 0 0 .01.16c.63.33.37 1.15-.26 1.28-.03 0-.04.02-.03.05l.35.93.03.02h.04c.36-.06.68 0 .96.2.08.05.1.12.06.2l-.03.1c-.04.08-.1.1-.18.04-.18-.13-.4-.2-.65-.19a.1.1 0 0 0-.07.04.1.1 0 0 0-.02.08c.12.36.24.64.38.85.1.13.23.2.41.2.22 0 .32-.1.3-.32l.01-.25c.06-.33.18-.36.36-.08.2.32.18.65-.07 1-.42.22-.8.18-1.16-.11a2.7 2.7 0 0 1-.55-1.17.1.1 0 0 0-.1-.03.46.46 0 0 0-.31.31.1.1 0 0 1-.08.07.1.1 0 0 1-.1-.04l-.69-.82a.11.11 0 0 0-.2.05l-.17.73a.08.08 0 0 1-.07.06l-.04-.01a.08.08 0 0 1-.04-.03l-.52-.92a.16.16 0 0 0-.12-.07.15.15 0 0 0-.14.06c-.19.24-.24.49-.15.73.1.24.36.32.63.43a.13.13 0 0 1 .08.1l.01.16c0 .06-.02.09-.08.08-.4-.07-.7-.22-.9-.45-.17-.2-.23-.46-.16-.78.06-.28.24-.5.54-.67a.11.11 0 0 0 .05-.05.1.1 0 0 0 0-.07l-.25-.8c-.03-.08-.08-.12-.15-.11l-.47.03c-.07 0-.1.04-.1.1.05.68.05 1.2.02 1.59-.01.2-.1.4-.26.57-.85.21-1.26-.06-1.22-.8 0-.22.1-.33.29-.3a.14.14 0 0 1 .1.06.14.14 0 0 1 .01.13c-.1.25-.05.45.14.6.05.04.1.06.15.05.28-.04.43-.24.44-.58.03-.59.01-1.07-.04-1.46-.6-.1-1.03-.36-1.31-.77-.46-.97-.12-1.98.93-2.25.21-.06.54-.04.98.06.88.19 1.72.35 2.52.49.54.09.9.38 1.1.89Z" fill="#fff"/><path d="M26.89 27.2c.15 0 .25.13.3.36a.19.19 0 0 1-.05.17.18.18 0 0 1-.18.05c-.68-.2-.99-.63-.92-1.32.04-.32.15-.58.35-.77.23-.22.52-.3.88-.28.2.02.34.09.42.2.03.05.07.08.11.1.38.2.54.52.5.94a.33.33 0 0 1-.21.3c-.05.02-.09 0-.11-.04l-.59-1.02a.14.14 0 0 0-.12-.08c-.28-.01-.47.06-.6.22-.26.35-.24.72.09 1.1.03.05.08.07.13.07Z" fill="#EF001D"/><path d="M28.5 27.08c.39-.35.08-.98-.18-1.33-.06-.08-.04-.11.06-.09l.54.14c.04 0 .07.03.07.08l.1 1.45a.14.14 0 0 1-.1.14l-.61.2a.1.1 0 0 1-.07 0 .09.09 0 0 1-.04-.05l-.07-.21c-.01-.05 0-.09.04-.12l.25-.2ZM30.65 27.13a.35.35 0 0 1-.2.06c-.07 0-.11-.03-.13-.1l-.1-.35c-.04-.13-.09-.13-.15 0-.03.05-.07.18-.12.37a.13.13 0 0 1-.09.1c-.15.05-.28.05-.37 0l.02-1.1c0-.05.03-.08.08-.1.21-.03.4 0 .57.1l.14.04c.22.03.37.08.43.16.26.31.23.58-.08.82ZM27.18 26.93l-.01.02h-.03a.3.3 0 0 1-.24-.11.47.47 0 0 1-.1-.3v-.05l.03-.16c.02-.05.04-.1.07-.13a.34.34 0 0 1 .11-.1.27.27 0 0 1 .13-.02h.03v.85Z" fill="#EF001D"/><path d="M16.41 27.08c0 .14-.02.3-.04.48 0 .05-.03.08-.09.09-.03 0-.07 0-.1-.03a.14.14 0 0 1-.07-.1v-.05c-.02-.06-.05-.09-.1-.1a135.86 135.86 0 0 1-2.44-.2.1.1 0 0 0-.04.04l-.07.17c-.02.05-.06.07-.11.06a.13.13 0 0 1-.08-.06c-.05-.06 0-.35.02-.6.02-.24.03-.53.09-.58a.14.14 0 0 1 .08-.04c.06 0 .1.03.1.09l.05.17a.1.1 0 0 0 .08.07c.93.08 1.72.16 2.37.23.06 0 .1-.02.12-.08l.02-.04a.14.14 0 0 1 .08-.09c.04-.02.08-.02.1 0 .06 0 .08.05.08.1l-.05.47Z" fill="#00113B"/><path d="M27.48 26.6c.05-.01.13.11.23.37.02.08 0 .13-.1.15-.09.02-.14 0-.15-.08-.05-.28-.04-.42.02-.44Z" fill="#515B63"/><path d="M39.7 27.32c.16.06.22.16.2.3a.3.3 0 0 1-.17.23c-.25.14-.5-.04-.63-.27-.03-.06-.02-.08.05-.08.15.02.25-.04.3-.17a.1.1 0 0 0-.04-.11l-.04-.04a.27.27 0 0 1 .04-.44.31.31 0 0 1 .35.03.27.27 0 0 1 .11.21.25.25 0 0 1-.1.21l-.07.04c-.05.03-.05.06 0 .09Z" fill="#00113B"/><path d="M27.84 27.47c.07.06.1.14.1.24 0 .06-.03.1-.08.1-.07.03-.17.02-.27.02h-.05l-.02-.06c-.01-.1-.03-.2-.02-.27 0-.05.03-.08.09-.1a.3.3 0 0 1 .25.07ZM30.55 27.65a.07.07 0 0 1 0-.05.07.07 0 0 1 .04-.03l.05-.02a.36.36 0 0 1 .28.01.38.38 0 0 1 .2.21v.03c.04.1.03.2 0 .3a.36.36 0 0 1-.21.19l-.05.02a.07.07 0 0 1-.1-.05l-.21-.6Z" fill="#EF001D"/><path d="M29.79 27.63a.04.04 0 0 1 .03.05v.02c-.02.17-.06.34-.1.46-.04.12-.09.19-.12.18h-.03c-.04 0-.06-.08-.06-.21s0-.3.03-.47v-.04a.04.04 0 0 1 .03-.02h.01l.2.03ZM30.16 27.62c.06 0 .14.21.22.65.01.05-.01.09-.06.1a.48.48 0 0 1-.26 0c-.06 0-.08-.04-.07-.1.05-.43.1-.64.17-.65Z" fill="#884E33"/><path d="M29.32 28.72h.1c.06 0 .1.02.1.09 0 .1-.02.16-.03.2a.14.14 0 0 1-.12.08.81.81 0 0 1-.4-.02.22.22 0 0 1-.14-.14l-.28-.87V28a.08.08 0 0 1 .05-.04l.46-.15c.04-.01.07 0 .07.05l.05.74a.13.13 0 0 0 .14.12Z" fill="#EF001D"/><path d="m14.57 29.2.02.26c.02.06.06.09.12.08l1.35-.09c.03 0 .05-.01.07-.03a.12.12 0 0 0 .04-.06c.03-.12.1-.17.2-.17.06 0 .1.04.1.1l.04.86c.02.21-.06.25-.23.1a.3.3 0 0 1-.05-.07.13.13 0 0 0-.13-.07l-2.29.16c-.06 0-.1.03-.14.09-.05.1-.11.16-.17.17-.07.01-.1-.02-.1-.08l-.07-.96c0-.06.03-.09.08-.1a6.5 6.5 0 0 1 .13 0l.03.05.02.07c.02.07.07.1.13.1l.5-.04c.05 0 .07-.03.07-.08a3.86 3.86 0 0 0-.04-.55c0-.05-.03-.07-.08-.07l-.5.03c-.06 0-.1.04-.11.11l-.01.08c0 .02-.02.03-.03.04a.08.08 0 0 1-.05.02h-.07c-.06 0-.1-.02-.1-.08l-.06-.96c0-.06.03-.1.1-.1.05 0 .12.05.19.15.04.05.09.08.15.07l2.29-.15c.05 0 .1-.04.11-.09a.32.32 0 0 1 .04-.08c.15-.17.23-.14.25.08l.07.85c0 .06-.02.1-.09.11-.1.02-.17-.02-.22-.14a.12.12 0 0 0-.12-.07l-1.35.1c-.06 0-.1.03-.1.09v.26ZM39.18 32.86l-.34-.88c.28-1.23.44-2.45.48-3.68 0-.08.05-.12.13-.12h.19a.07.07 0 0 1 .07.07v.23c0 .06.03.09.08.09h2.34c.05 0 .09-.02.12-.06l.09-.13a.14.14 0 0 1 .16-.06.14.14 0 0 1 .1.14v.99a.1.1 0 0 1-.09.1c-.13 0-.22-.06-.28-.18a.13.13 0 0 0-.13-.09h-2.35a.08.08 0 0 0-.08.08c-.06.89-.22 1.75-.48 2.6-.09.24-.03.48.16.71.03.04.03.08-.01.12a.36.36 0 0 1-.16.07Z" fill="#00113B"/><path d="m29.75 29.24.1-.4c0-.05.05-.09.1-.09l.47-.03a.13.13 0 0 1 .14.09l.25.77c.06.2 0 .34-.2.43-.05.03-.09.02-.12-.03a2.76 2.76 0 0 0-.74-.7v-.04Z" fill="#EF001D"/><path d="M29.07 29.56a.07.07 0 0 1 .02-.1c.12-.08.21-.05.27.09.03.06.02.12-.02.19-.04.05-.08.05-.13.01a.65.65 0 0 1-.14-.2Z" fill="#8893AC"/><path d="M41.92 30.54a230.63 230.63 0 0 1-.1.65.12.12 0 0 1-.05.04 1.3 1.3 0 0 1-.36.08c-.14.01-.16-.04-.06-.14l.24-.25a.09.09 0 0 0 .02-.09.09.09 0 0 0-.07-.05l-1.1-.1c-.05 0-.1.02-.12.06a.28.28 0 0 1-.1.1.12.12 0 0 1-.17-.06 11 11 0 0 1 .11-.93.12.12 0 0 1 .18 0c.03.02.05.06.07.1.02.06.05.09.1.1l1.1.16a.08.08 0 0 0 .08-.04.09.09 0 0 0 0-.09l-.18-.3c-.07-.12-.04-.16.1-.12.12.04.23.1.33.16a.12.12 0 0 1 .06.12l-.08.6ZM13.63 31.27a.15.15 0 0 0-.05-.16.2.2 0 0 1-.08-.19.1.1 0 0 1 .03-.05.1.1 0 0 1 .06-.03l.74-.03a.08.08 0 0 1 .09.09c-.01.1-.08.17-.2.21a.24.24 0 0 0-.11.08c-.53.65.3 1.04.84 1 .65-.06 1.11-.25 1.38-.59.28-.35.26-.67-.07-.97a.07.07 0 0 1-.03-.05.07.07 0 0 1 .03-.06l.04-.03a.17.17 0 0 1 .21 0c.2.13.3.29.35.46.33 1.5-1.84 2.21-2.85 1.43a.98.98 0 0 1-.38-1.1ZM41.3 31.59c.12-.08.2-.1.28-.05.05.03.07.07.06.13-.1.47-.14.98-.5 1.15-.22.1-.46.13-.73.08-.57-.1-.8-.43-.69-.98a6.4 6.4 0 0 1 .23-.75.14.14 0 0 1 .17 0c.02.01.04.04.05.07v.04c.03.06.08.1.15.12l.83.2c.06.02.1.01.15-.01Z" fill="#00113B"/><path d="M41.17 32.03a.04.04 0 0 1 .03.06v.02a.4.4 0 0 1-.2.27.5.5 0 0 1-.36.04l-.23-.05a.51.51 0 0 1-.3-.2.43.43 0 0 1-.06-.15.39.39 0 0 1 0-.16v-.03l.01-.02h.01a.04.04 0 0 1 .04-.01l1.06.23Z" fill="#FFF000"/><path d="M39.75 33.3c.1 0 .2-.09.2-.2a.2.2 0 0 0-.2-.19.2.2 0 0 0-.19.2c0 .1.09.19.2.19Z" fill="#00113B"/><path d="m39.06 36.26-1.1-.1a.3.3 0 0 0-.2-.27c-.07-.03-.14-.03-.2 0a.4.4 0 0 0-.13.2l-.48-.04.29-.43c.03-.05.02-.1-.03-.12l-.28-.2c-.08-.06-.1-.13-.03-.22l.08-.12c.05-.07.12-.09.19-.03l.3.22a.07.07 0 0 0 .06 0 .07.07 0 0 0 .04-.02l.45-.64c.08-.11.18-.13.3-.05l.93.67c.1.07.12.16.04.27l-.41.58a.19.19 0 0 0-.04.1c0 .05.02.1.04.13s.08.06.18.07Z" fill="#FAB7A3"/><path d="M19.41 36.12a.06.06 0 0 0 .02-.08l-1-1.32c-.04-.06-.03-.12.03-.16l.14-.11c.07-.05.12-.04.17.02L20 36.1a.06.06 0 0 1-.02.08l-2.61 1.99a.27.27 0 0 1-.3.02c-.17-.09-.3-.23-.42-.41-.05-.08-.04-.15.04-.2l.05-.05a.16.16 0 0 1 .24.06c.04.07.09.13.15.18.03.03.07.03.11 0l2.18-1.65Z" fill="#EF001D"/><path d="m17.9 34.9-.19.15a.08.08 0 0 0-.01.12l.8 1.01c.02.04.07.04.1.02l.2-.16a.08.08 0 0 0 .02-.12l-.8-1a.08.08 0 0 0-.11-.02Z" fill="#EF001D"/><path d="M38.69 35.29a.08.08 0 0 1 .03.08l-.01.03-.17.23a.2.2 0 0 1-.13.08c-.04.01-.1 0-.13-.03l-.21-.15a.18.18 0 0 1-.07-.12c0-.05 0-.1.04-.14l.16-.24a.08.08 0 0 1 .05-.03.08.08 0 0 1 .06.01l.38.28Z" fill="#fff"/><path d="M18.14 36.51a.08.08 0 0 1-.01.1l-.97.75a.07.07 0 0 1-.1-.01l-.84-1.1a.08.08 0 0 1 .01-.11l.97-.75a.07.07 0 0 1 .1.01l.84 1.11Z" fill="#EF001D"/><path d="m36.95 36.05.48.03c.15.09.33.11.52.07l1.1.1 1.22.1.04.09c.03.07.01.1-.06.1l-.6-.04a.43.43 0 0 0-.24 0 1.79 1.79 0 0 0-.71.02c-.07-.07-.16-.08-.25-.02-.12-.02-.27-.13-.37-.13-.08 0-.12.02-.12.08-.16-.13-.31-.15-.47-.05-.37-.12-.61-.11-.72.02-.04-.1-.2-.17-.44-.2-.38-.06-.7-.09-.98-.1l-.63-.1c.04-.08-.06-.18-.29-.31l2.52.34Z" fill="#463E51"/><path d="M37.95 36.15a.75.75 0 0 1-.52-.07.4.4 0 0 1 .14-.18c.05-.04.12-.04.2 0a.3.3 0 0 1 .18.25Z" fill="#fff"/><path d="m17.12 35.95-.32.24a.08.08 0 0 0-.01.1l.36.49c.02.03.07.04.1.01l.32-.24a.08.08 0 0 0 .02-.1l-.36-.49a.08.08 0 0 0-.1-.01Z" fill="#FFF000"/><path d="m22.1 35.98.17.03c.06 0 .09.04.1.1.09.44.19.87.31 1.3.12.42.22.85.31 1.28.2.98.48 1.96.83 2.94l.23 1.16c.4 1.6.81 3.17 1.23 4.75.09.32.27.39.56.2l-.06-.72.19.71a.15.15 0 0 1-.06.16.14.14 0 0 1-.06.02l-.54.09a.14.14 0 0 1-.1-.03.14.14 0 0 1-.06-.1.3.3 0 0 0-.13-.2c.04-.1.05-.2.01-.34-.23-.88-.48-1.74-.74-2.59l-.24-.57a.18.18 0 0 0 .1-.11.19.19 0 0 0 0-.14c-.15-.3-.26-.6-.34-.93a.14.14 0 0 0-.1-.1.38.38 0 0 1-.19-.15c.03-.3 0-.53-.1-.7l-.27-1a.87.87 0 0 0-.05-.37c-.03-.22-.03-.44-.12-.65-.1-.23-.18-.47-.26-.7.03-.27-.02-.4-.13-.44l-.3-.43.03-.3c0-.05.03-.08.08-.07l.18.01c.07 0 .1-.02.07-.1l-.46-1.45c.02-.13 0-.23-.03-.29-.04-.05-.1-.07-.2-.05a.4.4 0 0 1-.03-.14l.17-.08Z" fill="#573333"/><path d="m22.87 36.01.35 1.37.5 1.92.06.16.14 1.05-.04.08a.04.04 0 0 1-.08-.01 8.09 8.09 0 0 0-.3-1.31c-.14-.43-.25-.87-.34-1.3-.11-.58-.27-1.17-.46-1.78-.02-.07-.02-.12 0-.14.04-.03.09-.05.17-.04Z" fill="#FAB7A3"/><path d="M37.49 36.4c.08.07.16.12.26.17.08.05.15 0 .2-.12 0-.06.05-.09.13-.09.1 0 .25.12.37.14l-.5.69c-.03.04-.07.05-.11.01l-1.07-.78c.11-.13.35-.14.72-.02Z" fill="#EF001D"/><path d="M37.95 36.45c-.05.13-.12.17-.2.12-.1-.05-.18-.1-.26-.17.15-.1.31-.08.46.05Z" fill="#FFF000"/><path d="M20.48 37.2c.1-.19.02-.32-.25-.39-.12-.02-.14-.09-.07-.18l.1-.14c.05-.08.12-.1.2-.05.26.13.43.29.53.48.02.05.03.1.01.15-.08.34-.3.6-.66.8-.49.27-.95.4-1.38.4-.06 0-.08-.03-.04-.08.17-.23.34-.37.5-.4a2.7 2.7 0 0 0 1-.51.2.2 0 0 0 .06-.07ZM37.2 39.87a.32.32 0 0 1-.13.08h-.1l-.1-.13c-.06-.06-.1-.06-.16-.02l-.3.26a.14.14 0 0 1-.1.03.14.14 0 0 1-.1-.06.37.37 0 0 0-.04-.03.13.13 0 0 1 .01-.2l.32-.27c.06-.05.06-.1.01-.17l-.11-.13c-.05-.06-.1-.06-.15-.02l-.76.65c-.07.06-.13.05-.18-.02l-.07-.09a.13.13 0 0 1 .02-.18l.1-.09a.1.1 0 0 0 .04-.06.1.1 0 0 0-.02-.07l-.16-.2c-.04-.04-.08-.04-.13 0l-.11.1c-.05.03-.1.03-.15-.01a.43.43 0 0 1-.12-.16.12.12 0 0 1 0-.08l.03-.06.12-.1c.04-.03.04-.07 0-.11l-.13-.16c-.06-.07-.11-.07-.18-.02l-.1.08c-.04.05-.09.04-.13-.01l-.08-.12a.1.1 0 0 1 .01-.14l.43-.36a.1.1 0 0 0 .03-.07.1.1 0 0 0-.02-.07l-.04-.04a.13.13 0 0 0-.18-.02c-.12.1-.22.1-.28.02-.04-.05-.04-.1 0-.14.09-.1.14-.2.15-.32.01-.06.04-.1.1-.1l.41-.07c.05 0 .1.02.11.07.03.07 0 .14-.08.2-.04.02-.06.06-.05.12.02.05.05.1.1.11.04.02.08 0 .14-.03l.2-.15c.1-.08.16-.14.18-.17.05-.04.07-.09.06-.13-.01-.05-.04-.09-.1-.12-.05-.02-.09-.01-.13.03-.07.07-.14.09-.2.04-.05-.03-.06-.07-.04-.12l.14-.4c.02-.05.06-.08.12-.07.12 0 .23-.02.33-.09.06-.03.1-.02.14.02.07.08.04.17-.07.28a.13.13 0 0 0-.01.18l.03.05a.1.1 0 0 0 .07.03.1.1 0 0 0 .07-.02l.43-.35a.1.1 0 0 1 .14.01l.1.1c.04.06.04.1-.02.15l-.1.08c-.06.05-.06.1-.01.17l.13.17c.04.04.07.04.12.01l.11-.1a.12.12 0 0 1 .07-.02c.02 0 .05 0 .07.02.05.04.1.09.13.15.04.05.03.1-.02.15l-.12.09c-.04.04-.05.08-.01.13l.15.2a.1.1 0 0 0 .07.03.1.1 0 0 0 .06-.02l.11-.09a.13.13 0 0 1 .18.02l.08.08c.06.06.05.13-.02.18l-.78.63c-.05.04-.06.09-.01.15l.11.14c.05.06.1.07.17.02l.33-.27a.12.12 0 0 1 .1-.02.13.13 0 0 1 .08.05.3.3 0 0 0 .03.05.14.14 0 0 1 .02.16c0 .02-.02.03-.03.04l-.3.25c-.06.04-.07.1-.03.15l.1.14c.02.01.01.04 0 .1a.35.35 0 0 1-.1.1ZM39.41 36.5l.12.1.3.22c.07.05.08.12.03.2l-.08.1c-.06.09-.13.1-.22.04l-.86-.64c.23-.06.47-.07.71-.02Z" fill="#EF001D"/><path d="M39.64 36.5c-.06.01-.1.04-.1.1a.33.33 0 0 1-.13-.1.43.43 0 0 1 .23 0Z" fill="#C98768"/><path d="m21.91 37.46.2.35c.04.05.04.1.02.15a.42.42 0 0 1-.13.18.9.9 0 0 1-.27-.25.2.2 0 0 0-.16-.09.2.2 0 0 0-.17.09c-.1.15-.17.32-.23.5l-.07.55c-.03.27-.14.5-.31.7a.04.04 0 0 1-.05.02.05.05 0 0 1-.03-.04 2.9 2.9 0 0 1 .3-1.93c.2-.39.5-.47.9-.23Z" fill="#EF001D"/><path d="m23.31 37.38.25.72c.03.37.12.7.25.97a.63.63 0 0 0-.1.23l-.49-1.92c.08.03.1.03.1 0Z" fill="#884E33"/><path d="m35.94 37.41-.2.18a.1.1 0 0 0-.02.14l.15.18c.04.04.1.05.14.01l.21-.18a.1.1 0 0 0 .01-.13l-.15-.19a.1.1 0 0 0-.14-.01ZM35.2 38l-.11.1a.17.17 0 0 0-.04.24l.06.08c.06.08.17.1.24.04l.12-.09c.08-.06.1-.17.04-.24l-.06-.09a.17.17 0 0 0-.24-.03ZM36.47 38.03l-.22.17a.1.1 0 0 0-.01.14l.14.19c.03.04.1.05.13.01l.22-.16a.1.1 0 0 0 .02-.14l-.14-.19a.1.1 0 0 0-.14-.02Z" fill="#FFF000"/><path d="m32.82 38.47.54-.32c.1-.05.17-.03.22.06l.04.06c.05.1.03.17-.06.22l-.88.52a.15.15 0 0 0-.08.11l-.12.93c-.02.13-.07.14-.15.03l-.11-.16a.3.3 0 0 1-.05-.17v-1.07a.15.15 0 0 1 .05-.12.42.42 0 0 1 .44-.08c.05.03.1.02.16 0ZM18.41 38.95l1.55-.58a.31.31 0 0 1 .4.17c.02.05.03.1.03.16l-.15 1.66a.32.32 0 0 1-.19.26.31.31 0 0 1-.32-.04l-1.4-1.08a.32.32 0 0 1-.06-.45.32.32 0 0 1 .14-.1ZM22.3 38.45l.3.43c-.1.1-.14.18-.14.27 0 .07.02.11.08.14.05.02.1.03.18.02l.26.71c.09.21.09.43.12.65a1.1 1.1 0 0 1-1.17.29h-.06a.09.09 0 0 0-.04.05l-.19.54a.13.13 0 0 1-.06.07.13.13 0 0 1-.1.01l-.15-.05c-.11-.04-.15-.12-.1-.23l1.01-2.86c-.02-.02 0-.03.05-.04Z" fill="#EF001D"/><path d="m35.72 38.64-.13.1a.16.16 0 0 0-.03.22l.08.1c.05.07.15.09.22.03l.13-.1a.16.16 0 0 0 .03-.22l-.08-.1a.16.16 0 0 0-.22-.03Z" fill="#FFF000"/><path d="M24.34 40.67a.46.46 0 0 0-.03-.02.59.59 0 0 1-.1-.47c.16.05.21-.02.18-.21a.12.12 0 0 0-.08-.1.46.46 0 0 0-.18-.03.68.68 0 0 1-.35-.38l-.06-.16a.63.63 0 0 1 .09-.23l.11-.34c.02-.06.07-.08.13-.06l1 .34c.06.03.09.07.06.14l-.5 1.47c-.02.05-.05.07-.1.06l-.17-.01ZM33.54 38.77l-.57.3a.14.14 0 0 0-.06.2l.05.1c.04.06.12.09.19.05l.57-.3c.06-.04.09-.12.05-.19l-.05-.1a.14.14 0 0 0-.18-.06Z" fill="#EF001D"/><path d="M22.72 39.31c-.07 0-.13 0-.18-.02-.06-.03-.09-.08-.08-.14 0-.09.05-.18.13-.27.11.03.16.17.13.43Z" fill="#FFF000"/><path d="m31.76 39.2-.28-.26a.14.14 0 0 0-.2.01l-.06.08a.14.14 0 0 0 0 .2l.29.25c.06.05.14.05.2-.01l.06-.07a.14.14 0 0 0 0-.2Z" fill="#EF001D"/><path d="m18.9 39.29.9-.35a.05.05 0 0 1 .07.05l-.05.97a.05.05 0 0 1-.08.04l-.85-.63a.05.05 0 0 1 0-.07l.01-.01ZM24.55 39.24l-.22-.1a.13.13 0 0 0-.17.07l-.03.05c-.03.07 0 .15.07.18l.21.1c.07.03.15 0 .18-.07l.02-.06a.13.13 0 0 0-.06-.17Z" fill="#FFF000"/><path d="m26.4 40.37 1.23.05c.04 0 .06.03.06.07v2.14c0 .08-.03.14-.1.19l-.36.28c-.05.03-.1.03-.15 0l-.34-.24c-.08-.06-.07-.1.02-.13.1-.03.22-.04.39-.01.07.01.1-.02.1-.1V40.9c0-.05-.03-.08-.08-.08h-1.14c-.08 0-.11.04-.11.11v.27c0 .05.03.08.08.08h.74c.08 0 .12.04.12.12v.18c0 .08-.04.12-.11.12h-.78c-.05 0-.08.03-.08.09v.07c0 .1.05.16.15.16h.64c.09 0 .13.04.13.13v.16c0 .08-.04.12-.12.12h-.74a.12.12 0 0 0-.1.07c-.1.16-.2.3-.31.4-.04.04-.09.04-.13.01a.32.32 0 0 1-.1-.13c-.03-.08-.03-.15.02-.2.05-.08.1-.2.1-.28l.06-1.25c0-.06-.02-.09-.07-.1h-.08c-.05.03-.08.01-.08-.05v-.27c0-.06.03-.1.08-.12a1.67 1.67 0 0 0 .7-.52.06.06 0 0 0-.03-.06h-.6a.12.12 0 0 1-.12-.08.13.13 0 0 1 0-.05v-.15c0-.1.04-.13.12-.13h.7a.09.09 0 0 0 .1-.1v-.05c0-.05.02-.08.08-.1a.5.5 0 0 1 .26.03c.06.02.1.07.1.13v.05c0 .06.04.1.1.1l.9.04c.09 0 .13.05.13.14v.13a.13.13 0 0 1-.13.13h-1a.18.18 0 0 0-.16.08l-.13.18c-.04.06-.03.09.04.09ZM30.07 43l-.12.01c-.05 0-.09-.02-.1-.08l-.03-.16c0-.05-.04-.08-.1-.07l-.82.15a.14.14 0 0 1-.16-.12l-.02-.12c-.02-.09.02-.14.11-.16l.85-.15c.06 0 .08-.04.07-.1v-.05c-.02-.1-.08-.13-.17-.12l-.82.15c-.06.01-.1-.02-.1-.08l-.27-1.47.01-.04.04-.02.86-.15c.09-.02.13-.07.12-.16v-.08c-.01-.12-.07-.16-.19-.15l-.78.14c-.08.02-.14-.02-.15-.1l-.03-.16a.12.12 0 0 1 .1-.14l.82-.15c.05 0 .07-.03.08-.07.02-.14.09-.22.2-.24.12-.02.2.03.27.16.02.04.05.05.1.05l.82-.13a.12.12 0 0 1 .14.1l.02.16c.02.08-.02.13-.1.15l-.8.12c-.1.02-.15.08-.12.2l.02.07c.02.09.08.13.17.11l.86-.13a.05.05 0 0 1 .04 0 .05.05 0 0 1 .02.04l.23 1.48c0 .06-.02.1-.08.1l-.82.13c-.1.02-.13.07-.12.17v.05c.02.05.05.08.1.07l.86-.13c.09-.02.14.02.16.11l.02.12a.14.14 0 0 1-.07.15.14.14 0 0 1-.05.01l-.83.13c-.05.01-.08.05-.07.1l.03.16c0 .06-.02.1-.08.11l-.12.03ZM33.87 39.98l.05.08c.04.06.02.1-.04.12-.2.08-.31.17-.34.26-.13.42 0 .7.35.83.3.1.51.01.66-.29.03-.05.03-.1.02-.13l-.05-.14c-.1-.27-.04-.3.18-.12.06.05.1.13.12.26.06.36-.22.68-.53.82-.2.1-.43.1-.66 0-.48-.2-.67-.63-.56-1.27 0-.05-.02-.08-.07-.07h-.05a.12.12 0 0 1-.12-.04.45.45 0 0 1-.09-.18.1.1 0 0 1 0-.05l.05-.05 1.17-.68c.07-.04.13-.03.18.05l.1.17c.05.1.02.16-.08.19l-.22.07c-.1.03-.11.08-.07.17Z" fill="#EF001D"/><path d="M22.26 39.77a.06.06 0 0 1 .03-.04.06.06 0 0 1 .05 0l.05.01c.14.05.26.13.33.24.08.1.1.2.07.3l-.02.05c-.03.1-.12.16-.24.2a.72.72 0 0 1-.4-.04l-.05-.01a.06.06 0 0 1-.04-.08l.22-.63ZM24.13 39.84c.06 0 .12 0 .18.02.05.02.08.05.08.1.03.2-.03.27-.17.22-.1-.15-.13-.27-.1-.34Z" fill="#FFF000"/><path d="m31.97 40.17-.12.07a.1.1 0 0 0-.04.15l.3.5c.02.04.1.06.14.03l.12-.07a.1.1 0 0 0 .04-.15l-.3-.5a.1.1 0 0 0-.14-.03Z" fill="#EF001D"/><path d="m30.6 41.05.05.28c0 .06-.01.1-.06.11-.06.02-.2.05-.41.08-.06.01-.1 0-.14-.05a.37.37 0 0 1-.03-.06c-.02-.06 0-.1.06-.1.21-.05.31-.12.3-.22-.02-.1-.14-.14-.35-.12-.06.01-.1-.02-.09-.08l.01-.07c.02-.05.05-.08.11-.09.22-.04.36-.05.42-.05.05 0 .08.03.09.09l.04.28Z" fill="#FFF000"/><path d="m32.94 42.06-.3-.1c-.07-.03-.1-.07-.1-.14l.05-.84c.01-.24.06-.25.15-.03a6.3 6.3 0 0 1 .27 1.07.06.06 0 0 1-.07.04Z" fill="#EF001D"/><path d="M29.19 41.28c0 .02 0 .05.02.07a.1.1 0 0 0 .13.04c.12-.03.21-.01.28.08a.1.1 0 0 1 .02.1.11.11 0 0 1-.09.07l-.46.07a.09.09 0 0 1-.1-.07l-.09-.6c0-.04.01-.07.05-.09.17-.06.33-.09.5-.09.07 0 .1.03.1.1l-.03.07a.14.14 0 0 1-.08.04.88.88 0 0 0-.18.08c-.05.03-.08.08-.07.13Z" fill="#FFF000"/><path d="m23.15 41.05.28.98-.46.16c-.05.02-.1.01-.14-.02a.23.23 0 0 1-.08-.11c-.02-.05 0-.1.03-.14.18-.2.3-.5.37-.87Z" fill="#EF001D"/><path d="m24.29 41.65.75 2.78.26.9.4 1.6.06-.03c.02.05.03.09.02.12l.06.72-.15-.02a.11.11 0 0 1-.1-.1l-1.4-5.67c-.03-.2 0-.3.1-.3Z" fill="#FAB7A3"/><path d="M25.84 47.74c-.29.19-.47.12-.56-.2-.42-1.58-.83-3.16-1.23-4.75l.15-.84 1.39 5.68c.01.05.05.08.1.09l.15.02Z" fill="#C98768"/></svg>