<!-- by TradingView --><svg width="56" height="56" viewBox="0 0 56 56" xmlns="http://www.w3.org/2000/svg"><path fill="#F0F3FA" d="M0 0h56v56H0z"/><path d="m28 41.9-10.63-6.42v-5.4L28 36.18v5.72Z" fill="#005199"/><path d="m28.04 21.66-10.05-6.08-.98 5.26L23 24.36v3.95l5.04-3.55v-3.1Z" fill="#4979B4"/><path d="M13 18.77v19.8l5 2.99v-26l-5 3.2Z" fill="#005199"/><path d="M28 13v17.08l5-2.72 5 3.18v5.74l5-2.87V19.1l-5-2.69v8.34l-5-2.87v-5.9L28 13Z" fill="#6CB328"/><path d="M28.04 30.2v-5.93L18 30.5l4.73 2.73 5.32-3.03Z" fill="#B6C2E2"/><path d="M28 29.9v6.3l5-3.04v-5.97l-5 2.7Z" fill="#A8D176"/><path d="m38 36.22-5-3.2V27.2l5 3.31v5.72Z" fill="#CEE3B1"/><path d="M38 42v-6.02L43 33v5.9L38 42Z" fill="#A8D176"/></svg>