<!-- by TradingView --><svg width="56" height="56" viewBox="0 0 56 56" xmlns="http://www.w3.org/2000/svg"><path fill="#F0F3FA" d="M0 0h56v56H0z"/><path d="M14 39h25v1H14v-1ZM13 37h19.5l.5 1H13v-1ZM12 35h18.5l.5 1H12v-1Z" fill="#AE514C"/><path d="M44 17h-5a11 11 0 0 0 0 22h5v1h-5a12 12 0 0 1 0-24h5v1Z" fill="#F37069"/><path d="M44 19h-4.99a9 9 0 1 0 0 18H44v1h-4.98a10 10 0 0 1 0-20H44v1Z" fill="#F37069"/><path d="M44 21h-5a7 7 0 0 0 0 14h5v1h-5a8 8 0 0 1 0-16h5v1ZM26 16 15 39.5l-1-.5 11-23h1ZM24 16 14 37.5l-1-.5 10-21h1ZM22 16l-9 19.5-1-.49L21 16h1Z" fill="#F37069"/></svg>