<!-- by TradingView --><svg width="56" height="56" viewBox="0 0 56 56" xmlns="http://www.w3.org/2000/svg"><path fill="#F0F3FA" d="M0 0h56v56H0z"/><path d="M18.67 38.95 15 31.1v-.04l4.26-6.66a.04.04 0 0 0 0-.04l-3.28-7.08v-.04l4.63-7.22a.04.04 0 0 1 .03-.02h8.31l.02.02 3.66 7.64v.04l-4.25 6.64v.04l3.2 6.6a.04.04 0 0 0 .04.02h7.67a.04.04 0 0 1 .04.02l3.67 7.7v.05l-4.62 7.21a.04.04 0 0 1-.04.02h-8.52l-3.24-6.98a.04.04 0 0 0-.04-.02h-7.83l-.02-.03-.02-.02Zm.42-24.81a3163 3163 0 0 1-2 3.13.06.06 0 0 0 0 .06l3.02 6.62a.08.08 0 0 0 .07.05l7.3-.05a.08.08 0 0 0 .08-.04l2-3.1a2230.27 2230.27 0 0 1 2-3.15v-.04l-3.2-6.5a.08.08 0 0 0-.08-.05l-7.12-.03-.06.01c-.22.34-.9 1.35-2 3.09Zm9.45 20.49 2-3.13a.06.06 0 0 0 0-.06l-3.01-6.4c-.01-.03-.04-.04-.08-.04h-7.31a.08.08 0 0 0-.08.04c-.44.7-1.1 1.55-1.98 2.92a1848.95 1848.95 0 0 1-2 3.15v.04l3.18 6.8.03.04.05.01h7.15c.02 0 .04-.01.05-.03.22-.34.89-1.6 2-3.34Zm.91.58c-1.11 1.74-1.78 3-2 3.34a.06.06 0 0 0 0 .07l3 6.26.03.03.05.02 7.31.03a.08.08 0 0 0 .08-.03c.44-.7 1.12-1.67 2-3.05a1416.6 1416.6 0 0 1 2-3.15v-.04l-3.18-6.6a.08.08 0 0 0-.08-.04h-7.15a.06.06 0 0 0-.06.03l-2 3.13Z" fill="#5D6367"/><path d="m19.1 14.14 1.97-3.1a.06.06 0 0 1 .05-.04h7.18a.08.08 0 0 1 .08.05l3.18 6.57a.08.08 0 0 1 0 .08l-2 3.11c-.88 1.38-1.53 2.46-1.98 3.16-.02.03-.04.03-.07.03h-7.33c-.04 0-.06 0-.08-.03l-3.01-6.64a.06.06 0 0 1 0-.06l2-3.13Zm8.27-1.52a.03.03 0 0 0 0 .03l2.31 4.69a.03.03 0 0 1 0 .02l-3.74 5.84a.03.03 0 0 0 0 .03.03.03 0 0 0 .03.02l1 .01.02-.01 3.73-5.83a.03.03 0 0 0 0-.03L28 11.72a.03.03 0 0 0-.03-.01.03.03 0 0 0-.02.01l-.58.9Z" fill="#B1161D"/><path d="M18.02 31.35a.07.07 0 0 0 0 .08l2.4 4.55c0 .02.01.02.03.02h6.12l-.52.92-.03.02L26 37h-6.15c-.03 0-.05-.03-.07-.05l-2.84-5.52a.07.07 0 0 1 0-.07l3.7-5.82a.08.08 0 0 1 .07-.04h.98c.03 0 .04.02.02.05l-3.68 5.8Z" fill="#5D6367"/><path d="M39.92 41.88c-.88 1.38-1.54 2.39-1.98 3.1l-.04.02h-7.42a.08.08 0 0 1-.03-.04l-3.03-6.36a.06.06 0 0 1 0-.06c.22-.35.92-1.59 2.03-3.33 1.12-1.75 1.8-2.84 2.03-3.18a.06.06 0 0 1 .05-.03h7.15a.08.08 0 0 1 .08.05l3.16 6.64a.08.08 0 0 1 0 .08l-2 3.11ZM37.62 34 40 38.48a.03.03 0 0 1 0 .02l-3.7 5.77a.03.03 0 0 0 0 .03.03.03 0 0 0 .03.02h1.01a.03.03 0 0 0 .03-.02l3.72-5.8v-.03L38.22 33h-6.25l-.55.95v.02a.03.03 0 0 0 .02.03h6.18Z" fill="#B1161D"/></svg>