<!-- by TradingView --><svg width="56" height="56" viewBox="0 0 56 56" xmlns="http://www.w3.org/2000/svg"><path d="M0 28a28 28 0 1 1 56 0 28 28 0 0 1-56 0Z" fill="#F0F3FA"/><path d="M37 35s3.17 1.86 4 3c1.27-1.37 2.8-2.35 3-7V20c0-3.35-2.78-6-6.19-6H18.2A6.15 6.15 0 0 0 12 20.08V29c0 2.6 0 13 16.5 13 5 0 5.7.96 7 3h5.3c.13 0 .2-.13.2-.36C41 43.1 38.5 37 29 37c-2.43 0-12 .5-12-8v-8c0-1.3.67-2 2-2h18c1.33 0 2 .7 2 2v10a5.7 5.7 0 0 1-2 4Z" fill="url(#a0sodsxkb)"/><defs><linearGradient id="a0sodsxkb" x1="13" y1="14.5" x2="43" y2="45" gradientUnits="userSpaceOnUse"><stop offset=".09" stop-color="#05F7FF"/><stop offset=".41" stop-color="#655CFF"/><stop offset=".58" stop-color="#9A02FD"/></linearGradient></defs></svg>