<!-- by TradingView --><svg width="56" height="56" viewBox="0 0 56 56" xmlns="http://www.w3.org/2000/svg"><path fill="#A7D500" d="M0 0h56v56H0z"/><path d="M21.65 15.02c0 .02 0 .04.03.06.64.65 1.4 1.62 2.26 2.16.5.3 1.06.48 1.68.54l.63.04c.26.02.77.15.75.51 0 .17-.05.31-.13.42-.3.43-.54.85-.7 1.28-.16.38-.43.5-.82.36a7.49 7.49 0 0 1-.95-.43c-1.93-1.03-3.38-2.93-4.33-4.92a.07.07 0 0 0-.02-.03A.06.06 0 0 0 20 15h-.6a.07.07 0 0 0-.07.04c-.3.48-.6 1.32-.93 1.77-.53.75-1.14 1.53-1.82 2.13-.02.01-.03.03-.01.05a.03.03 0 0 0 .02.01h2.45c.25 0 .35-.19.62-.41.15-.13.28-.24.38-.35.28-.3.6-.36.94-.2.37.2.73.42 1.08.67.48.34.1 1.29-.4 1.29h-6.15c-.46 0-1.37.44-1.77.66-.4.2-1.22.49-1.65.25a.21.21 0 0 1-.1-.24.3.3 0 0 1 .16-.17c.45-.27.8-.5 1.05-.7 1.49-1.18 2.64-3.01 3.45-4.75 0-.02-.01-.05-.04-.05h-3.47a.8.8 0 0 1-.34-.05c-.28-.14-.28-.75-.02-.9.07-.03.2-.05.37-.05a631.8 631.8 0 0 1 3.87-.01l.02-.03c.22-.56.39-.59.5-1.16.07-.3.13-.5.18-.57.29-.43.98-.15 1.36.02l1.18.54a.9.9 0 0 1 .27.18c.77.86-.45.65-.63.98-.01.02 0 .05.02.05h2.96c.1 0 .2-.05.33-.15.32-.25.64-.37.97-.67.22-.21.42-.2.69-.05.26.15.63.36 1.11.66.17.1.3.2.4.33.17.22.12.55-.1.73a.72.72 0 0 1-.48.15 897.55 897.55 0 0 1-4.16.02ZM40.95 16.45c.01.01.03 0 .03-.01l.38-1.38c0-.03-.02-.06-.05-.06h-3.65c-.03 0-.04.01-.04.04v4.55c0 .25-.04.43-.15.63-.01.02 0 .06.03.06h1.57c.14 0 .24-.03.31-.07.12-.07.28.05.49-.13.24-.2.4-.33.48-.37.32-.17.66-.18 1-.01.15.08.33.25.53.52l.93 1.14c.1.12.13.27.1.46-.02.08-.1.2-.24.36-.25.28-.38.57-.59.86a.46.46 0 0 0-.08.3v2.24c0 .17-.02.3-.06.4-.17.39-.73.66-1.07.87a.99.99 0 0 1-.72.13c-.4-.07-.6-.52-.6-.92a.06.06 0 0 0-.06-.06h-8.22c-.24 0-.27-.3-.27-.5s.04-.5.27-.5h8.22c.03 0 .05-.02.05-.04v-.92a.04.04 0 0 0-.04-.04h-8.23c-.23 0-.27 0-.27-.49v-.01c0-.23.03-.5.27-.5h8.22c.03 0 .05-.02.05-.05v-1.92a.03.03 0 0 0-.03-.03l-8.14.01c-.24 0-.36-.11-.37-.35v-.01c0-.24.12-.36.34-.36l4.02-.02c.02 0 .04-.02.03-.03-.1-.2-.13-.39-.13-.63a2318.41 2318.41 0 0 1-.02-4.6H31.75c-.03 0-.04 0-.04.03.09.8.02 1.88-.21 2.62-.05.13-.16.33-.35.58-.5.64-1.3.57-1.86.07-.73-.65.08-1.71.55-2.26.2-.25.35-.73.42-.87.2-.36.3-.46.3-.88 0-.16 0-.27.03-.32.1-.17.3-.17.46-.04.18.15.3.04.37.28a.08.08 0 0 0 .08.05h3.71c.03 0 .04-.01.04-.04v-.47a.04.04 0 0 0-.03-.04h-3.89c-.22 0-.33-.12-.33-.36v-.01c0-.23.12-.35.36-.35h8.14c.5-.02.78-.46 1.15-.83.23-.22.49-.23.78-.02.37.25.7.62 1 .85.02.02.05.06.06.1.11.42-.23.63-.61.63h-4.23a.03.03 0 0 0-.03.02v.5c0 .01.01.03.03.03h3.66c.43 0 .38-.25.88-.55.43-.27.78.01 1.05.36l.6.87c.15.2.2.44.14.71a.98.98 0 0 1-.52.66c-.65.38-1.39.77-2.2 1.15-.16.08-.3.04-.38-.1a.13.13 0 0 0-.04-.05 3550.19 3550.19 0 0 1-2.36-.01c-.11 0-.2-.03-.26-.07-.13-.1-.14-.23-.03-.36a.74.74 0 0 1 .28-.17c.49-.2.75-.3.79-.33.24-.19.4-.3.48-.34.22-.13.4-.1.64.04l.57.36Z" fill="#fff"/><path d="m32.97 16.35.36-.19c.3-.16.47-.23.8-.06.32.15.57.29.78.4.09.05.11.13.07.24-.08.22-.32.26-.61.26h-2.09c-.21 0-.39-.18-.2-.32.08-.06.14-.1.2-.12.33-.08.56-.16.69-.21ZM32.29 19.35l.48-.19c.41-.16.63-.23 1.08-.06l1.03.4c.12.04.15.13.1.24-.11.22-.44.26-.82.26h-2.78c-.29 0-.53-.18-.27-.32.1-.06.19-.1.26-.12.44-.08.75-.16.92-.21ZM38.97 19.35l.36-.19c.3-.16.47-.23.8-.06.32.15.57.29.78.4.09.04.11.13.07.24-.08.22-.32.26-.61.26h-2.09c-.21 0-.39-.18-.2-.32.08-.06.14-.1.2-.12.33-.08.56-.16.69-.21ZM21.03 21.7c-.02 0-.03 0-.03.02v4.18c0 .52-.02.85-.05.97-.17.64-1.02.92-1.6 1.08-.4.11-.74.04-1.02-.21-.23-.21-.31-.47-.48-.87-.2-.48-.62-.78-.98-1.15a1.29 1.29 0 0 1-.32-.52.2.2 0 0 1 .07-.22.19.19 0 0 1 .07-.04.75.75 0 0 1 .38.02c.56.17 1.24.4 1.26-.53a511.67 511.67 0 0 0-.01-2.73l-.03-.01h-4.96c-.22 0-.33-.12-.32-.34v-.01a.22.22 0 0 1 0-.12.27.27 0 0 1 .07-.11.35.35 0 0 1 .12-.08.4.4 0 0 1 .14-.03h8.57c.46 0 .88-.13 1.26-.3.26-.12.54-.37.8-.55.29-.21.6-.2.9.05.32.26.62.56.88.83.1.1.17.21.23.35a.18.18 0 0 1-.05.23c-.09.06-.2.09-.31.08h-4.6Z" fill="#fff"/><path d="M16.05 24.12a15.2 15.2 0 0 1-2.9 2.46c-.23.15-.45.27-.65.36-.12.05-.2.07-.27.05-.26-.06-.3-.38-.13-.58l.55-.7c.7-.92 1.27-1.9 1.7-2.95a2 2 0 0 1 .32-.6c.17-.16.4-.2.7-.12.3.1.7.23 1.2.42.18.07.31.19.39.37.18.44-.26.7-.56.95-.12.1-.24.22-.35.34ZM23.66 25.2a9.4 9.4 0 0 0-1.48-2.55c-.11-.13-.17-.23-.18-.3a.3.3 0 0 1 .1-.27c.17-.14.63-.06.84-.02.76.15 1.43.53 2.03 1.12.44.43.81.85.96 1.4.19.67-.02 1.36-.39 1.9-.35.53-.86.75-1.31.2-.34-.4-.37-.96-.57-1.47ZM35.01 30.05c-.02.42.08.61-.25.98-.35.39-.8.69-1.28.9a.64.64 0 0 1-.45.03c-.3-.11-.45-.36-.44-.76a40.31 40.31 0 0 0 0-1.17.07.07 0 0 0-.05-.03h-3.19c-.23 0-.34-.35-.35-.6v-.03c.01-.25.13-.37.36-.37h3.19c.02 0 .03-.01.04-.04.05-.32-.06-.58-.16-.91-.03-.09 0-.2.07-.32.17-.27.42-.39.77-.36.48.03.97.16 1.46.36.16.07.35.2.42.33.12.22.02.36-.12.52a.1.1 0 0 0-.03.07v.3c0 .03.02.05.05.05h2.86c.02 0 .03 0 .04-.02l.01-.04c0-.23 0-.44-.05-.6-.09-.39.02-.79.37-.94.1-.05.25-.05.46-.01.59.1 1.09.24 1.5.4.15.05.42.29.38.5 0 .03-.05.1-.14.22a.5.5 0 0 0-.07.45c.01.03.03.04.05.04.47-.02 1.13-.2 1.47-.57.15-.17.57-.43.62-.43.08 0 .18.09.32.18.25.18.57.42.94.73.09.07.17.14.18.25.03.21-.03.6-.17.72-.17.14-.35.12-.63.12a2113.85 2113.85 0 0 1-2.78.02v.02l-.01 1c0 .3-.18.57-.43.76-.26.2-.54.36-.83.48a.97.97 0 0 1-.36.08c-.25 0-.56-.04-.71-.26-.05-.06-.07-.18-.07-.35a388.17 388.17 0 0 0-.02-1.74h-2.92c-.03 0-.05.01-.05.04ZM19.7 32.17c.26.15.4.32.53.63.22.54.35 1.01.37 1.42.01.28-.1.53-.35.76l-.62.6c-.16.16-.34.39-.54.68l-1.6 2.33-.53.72c-.45.6-.88 1.1-1.58 1.1-1.2 0-2.22-1.03-2.35-2.34-.08-.85 0-1.65.28-2.38a7.55 7.55 0 0 1 2.06-3.04c.36-.33.77-.61 1.23-.85 2.23-1.16 4.86-1.13 6.8.58.3.25.57.6.84 1.02a5.7 5.7 0 0 1 .55 4.4c-.62 2.28-2.46 3.95-4.37 4.87-.36.17-.87.4-1.25.31-.18-.03-.31-.22-.15-.4a.96.96 0 0 1 .17-.16 9.37 9.37 0 0 0 2.38-1.93c.5-.55.9-1.16 1.2-1.83.55-1.2.68-2.44.38-3.73a3.83 3.83 0 0 0-1.1-1.96 3.23 3.23 0 0 0-2.34-.84c-.05 0-.05.02 0 .04Zm-.46.03c0-.02 0-.04-.03-.04-1.19.22-2.2.81-3.03 1.78a7.14 7.14 0 0 0-1.12 1.77c-.35.8-.5 1.64-.44 2.52.02.22.08.48.19.66.42.68 1.42-.92 1.61-1.24.36-.58.75-1.16 1.17-1.76.5-.69.82-1.19 1.14-1.87.21-.44.36-.98.44-1.6 0-.06.03-.13.07-.22Z" fill="#fff"/><path d="M41.78 37.47c-.14-.07-.16-.04-.06.08.09.1.17.24.16.4-.03.25-.18.38-.47.38a1497.85 1497.85 0 0 1-3.9.02l-.02.02v3.87c0 .37-.06.64-.3.93-.2.26-.45.48-.72.67-.28.19-.7.21-1.03.07-.38-.17-.44-.45-.44-.87l-.01-4.65a.05.05 0 0 0-.05-.05H31c-.22 0-.33-.12-.34-.34 0-.23.1-.34.32-.34h3.99l.03-.03v-1.89c-.02-.46.58-.48.9-.42.38.06.78.15 1.19.27.35.1.56.23.59.64.01.18-.15.37-.17.54a8.2 8.2 0 0 0 0 .87l.03.01c.56.01.9.01 1.02-.01.33-.06.7-.25 1.12-.57.18-.14.33-.25.53-.3.11-.02.12-.05.01-.1-.7-.33-1.38-.72-2.03-1.17-.71-.5-1.3-1.1-1.75-1.8 0-.01-.03-.02-.04 0a10.5 10.5 0 0 1-3.02 2.47 16.52 16.52 0 0 1-3.42 1.4c-.3.09-.6.15-.88.18-.08 0-.14 0-.21-.02-.27-.06-.17-.31-.01-.42 1.28-.84 2.57-1.7 3.7-2.68a9.9 9.9 0 0 0 1.49-1.64c.27-.38.45-.76.68-1.23.19-.4.59-.37.97-.25l1.36.47c.28.1.5.3.3.63a.9.9 0 0 1-.31.32.03.03 0 0 0 0 .05c1.41 1 3.13 1.68 4.78 2.02.3.06.81.15 1.54.26.08.02.2.06.35.13.25.1.33.38.25.61a1 1 0 0 1-.19.3c-.35.41-.68.83-.99 1.26-.04.06-.12.11-.25.15-.18.05-.51-.13-.76-.24Z" fill="#fff"/><path d="M31.8 39.91c.09-.13.16-.3.22-.45a.73.73 0 0 1 .1-.18c.2-.22.48-.31.84-.27.6.07 1.16.23 1.7.48.34.17.48.48.17.73-.23.19-.65.34-.88.51l-.6.45c-.98.68-2.11 1.26-3.4 1.73-.29.1-.55.12-.8.05-.1-.03-.16-.09-.15-.18 0-.06.06-.13.17-.2.6-.43 1.12-.89 1.58-1.4.41-.46.76-.88 1.04-1.27ZM39.71 40.83c-.42-.4-.9-.78-1.43-1.11a.9.9 0 0 1-.14-.14c-.43-.47.22-.58.58-.58 1.14 0 2.2.31 3.19.91.2.13.39.28.54.44.4.42.59 1.15.54 1.66-.03.43-.27.74-.7.92-.66.28-1.37-.37-1.64-.85-.27-.49-.58-.9-.94-1.25Z" fill="#fff"/></svg>