<!-- by TradingView --><svg width="56" height="56" viewBox="0 0 56 56" xmlns="http://www.w3.org/2000/svg"><path fill="#F0F3FA" d="M0 0h56v56H0z"/><path d="M11.71 32.81c.95.46 2.44.86 4.59.86 4.67 0 7.29-2.03 11.53-6.86 4.25-4.83 7.36-5.95 10.97-5.95 2 0 3.98.59 5.36 1.15C41.73 15.58 35.46 11 28.11 11a17.16 17.16 0 0 0-14.28 7.59 7.8 7.8 0 0 0-.5 2.27c0 1.12 1.06 1.68 2.33 1.68 1 0 2.47-1.84 4.31-4.14.52-.65 1.06-1.33 1.63-2.01 1.99-2.24 5.74-2.73 6.94-1.54-1.25.02-4.45 1.06-7.22 5.03-2.55 3.71-3.75 4.76-5.87 4.76A5.48 5.48 0 0 1 11.73 23a16.69 16.69 0 0 0-.69 3.58c1.11.7 2.7 1.36 4.62 1.36 3.9 0 5.24-.56 9.2-6.37a8.26 8.26 0 0 1 9.9-3.35c-4.17.49-6.57 1.6-9.62 5.73-3.04 4.13-4.6 5.88-8.91 5.88a9.69 9.69 0 0 1-5.23-1.3c.05 1.49.3 2.93.71 4.3Z" fill="#727171"/><path d="M17.23 29.78c.26 1.33.76 2.57 1.43 3.68 3.31-.62 5.7-2.7 9.17-6.65 3.9-4.43 6.84-5.73 10.08-5.92a11.49 11.49 0 0 0-13.85-4c-.9.73-1.84 1.71-2.74 3-1.63 2.36-2.7 3.65-3.83 4.27a11.5 11.5 0 0 0-.48 3.73c2.92-.18 4.38-1.24 7.85-6.33a8.26 8.26 0 0 1 9.9-3.35c-4.17.49-6.57 1.6-9.62 5.73-2.8 3.8-4.33 5.58-7.91 5.84Z" fill="#A8A9A9"/><path d="M23 26.68c.05 1.4.61 2.66 1.5 3.6 1.04-.94 2.12-2.09 3.33-3.47a22.2 22.2 0 0 1 4.61-4.15 5.48 5.48 0 0 0-4.76-1.6 19 19 0 0 0-2.54 2.88A44.26 44.26 0 0 1 23 26.68Z" fill="#CBCBCC"/><path d="M44.29 23.19c-.95-.46-2.44-.86-4.59-.86-4.67 0-7.29 2.03-11.53 6.86-4.25 4.83-7.36 5.95-10.97 5.95-2 0-3.98-.59-5.36-1.15C14.27 40.42 20.54 45 27.89 45c5.96 0 11.21-3.01 14.28-7.59.23-.65.5-1.6.5-2.27 0-1.12-1.06-1.68-2.33-1.68-1 0-2.47 1.84-4.31 4.14-.52.65-1.06 1.33-1.63 2.01-1.99 2.24-5.74 2.73-6.94 1.54 1.25-.02 4.45-1.06 7.22-5.03 2.55-3.71 3.75-4.76 5.87-4.76 1.52 0 2.97.86 3.72 1.65.35-1.14.59-2.34.69-3.58a8.61 8.61 0 0 0-4.62-1.36c-3.9 0-5.24.56-9.2 6.37a8.26 8.26 0 0 1-9.9 3.35c4.17-.49 6.58-1.6 9.62-5.73 3.04-4.13 4.6-5.88 8.91-5.88 2.55 0 4.28.69 5.23 1.3-.05-1.49-.3-2.93-.71-4.3Z" fill="#003F7F"/><path d="M39.77 26.18c-.28-1.36-.8-2.63-1.52-3.77-3.8.4-6.3 2.47-10.08 6.78-3.52 4-6.26 5.45-9.14 5.83.72 1.05 1.6 1.97 2.63 2.72 3.91-.52 6.26-1.7 9.2-5.68 3.04-4.13 4.6-5.88 8.9-5.88Zm-17.62 11.9a11.45 11.45 0 0 0 9.02 1.6 14 14 0 0 0 3.5-3.56c2.16-3.14 3.35-4.37 4.95-4.68a11.52 11.52 0 0 0 .37-3.37c-3.63.04-5 .74-8.85 6.37a8.28 8.28 0 0 1-9 3.65Z" fill="#0070AC"/><path d="M33.89 28.38A5.5 5.5 0 0 0 32 25.27a39.33 39.33 0 0 0-3.84 3.92 23.93 23.93 0 0 1-3.98 3.72A5.49 5.49 0 0 0 28.26 35a18.8 18.8 0 0 0 2.6-2.93 29.36 29.36 0 0 1 3.03-3.68Zm-.05 2.46a5.51 5.51 0 0 1-2.58 3.42c1-1.45 1.83-2.57 2.58-3.42Z" fill="#1EAADE"/></svg>