<!-- by TradingView --><svg width="56" height="56" viewBox="0 0 56 56" xmlns="http://www.w3.org/2000/svg"><path fill="#F0F3FA" d="M0 0h56v56H0z"/><path d="M40 25.56c.15-.02.52-.06 1.03-.06.96 0 1.54.42 1.54 1.24 0 .78-.62 1.26-1.67 1.26H40v-2.44Zm0 3.93h.71c.85 0 1.25.31 1.5 1.43.27 1.1.5 1.81.65 2.08H45c-.18-.35-.47-1.51-.76-2.52-.23-.82-.59-1.42-1.23-1.67v-.04a2.38 2.38 0 0 0 1.63-2.2c0-2.12-2.11-2.57-3.85-2.57-1.11 0-2.12.08-2.79.19V33h2v-3.51ZM50 33h-2v-7h-2v-2h6v2h-2v7ZM31.68 30.71h2.51l.68 2.29H37l-2.72-9h-2.6L29 33h2.06l.62-2.29ZM34 29h-2l.43-1.47c.2-.65.4-1.3.57-2L34 29ZM24.98 29.58l.02.02V24h2v9h-2.3L21 26.75V33h-2v-9h2.55l3.43 5.58ZM6 26.46c0 .55.6.8 1.73 1.23 1.54.56 2.27 1.37 2.27 2.6C10 31.74 8.87 33 6.48 33c-1 0-1.99-.27-2.48-.54l.4-1.63c.53.27 1.35.54 2.2.54.9 0 1.4-.37 1.4-.94 0-.55-.44-.86-1.49-1.23C5.06 28.7 4 27.9 4 26.62 4 25.14 5.36 24 7.42 24c.99 0 1.71.2 2.23.44l-.44 1.59a4.16 4.16 0 0 0-1.83-.41c-.85 0-1.38.38-1.38.84ZM14.5 31.4c1 0 1.5-.74 1.5-2.3V24h2v4.97C18 31.7 16.67 33 14.43 33 12.27 33 11 31.76 11 28.94V24h2v5.1c0 1.52.5 2.3 1.5 2.3Z" fill="#E52328"/></svg>