<!-- by TradingView --><svg width="56" height="56" viewBox="0 0 56 56" xmlns="http://www.w3.org/2000/svg"><path fill="#F0F3FA" d="M0 0h56v56H0z"/><path d="m28 28-5.4 6.18c-5.04 0-6.9-3.53-7.2-5.3 0-5.63 8.4-7.63 12.6-7.92-1.8.58-5.4 2.29-5.4 4.4 0 2.12 3.6 2.93 5.4 2.64Z" fill="url(#a)"/><path d="M18.1 26.24c-2.16 2.12-.3 5.59.9 7.06-7.2 0-9-4.7-9-7.06.72-11.28 21.9-13.5 32.4-13.22l-9 8.82c-7.2 0-12.6 1.76-15.3 4.4Z" fill="url(#b)"/><path d="m28 28 5.4-6.18c5.04 0 6.9 3.53 7.2 5.3 0 5.63-8.4 7.63-12.6 7.92 1.8-.58 5.4-2.29 5.4-4.4C33.4 28.52 30 28 28 28Z" fill="url(#c)"/><path d="M37.9 29.76c2.16-2.12.3-5.59-.9-7.06 7.2 0 9 4.7 9 7.06-.72 11.28-21.9 13.5-32.4 13.22l9-8.82c7.2 0 12.6-1.76 15.3-4.4Z" fill="url(#d)"/><defs><linearGradient id="a" x1="23.5" y1="24.48" x2="18.27" y2="33.39" gradientUnits="userSpaceOnUse"><stop stop-color="#E99C07"/><stop offset="1" stop-color="#F9CE08"/></linearGradient><linearGradient id="b" x1="35.2" y1="16.55" x2="13" y2="31.97" gradientUnits="userSpaceOnUse"><stop stop-color="#FAD308"/><stop offset=".47" stop-color="#F5C508"/><stop offset="1" stop-color="#DC680F"/></linearGradient><linearGradient id="c" x1="32.5" y1="31.52" x2="38.65" y2="24.34" gradientUnits="userSpaceOnUse"><stop stop-color="#999691"/><stop offset="1" stop-color="#DCDDDC"/></linearGradient><linearGradient id="d" x1="20.8" y1="39.45" x2="43" y2="24.03" gradientUnits="userSpaceOnUse"><stop stop-color="#DFDFDF"/><stop offset=".47" stop-color="#C3C0BF"/><stop offset="1" stop-color="#84827D"/></linearGradient></defs></svg>