<!-- by TradingView --><svg width="56" height="56" viewBox="0 0 56 56" xmlns="http://www.w3.org/2000/svg"><path fill="#F0F3FA" d="M0 0h56v56H0z"/><path d="M48 27.98c0 8.29-8.94 14.97-20 14.97S8 36.27 8 27.98C8 19.68 16.94 13 28 13c11.01 0 20 6.73 20 14.98Z" fill="#FFF362"/><path d="M9.3 25.1c.05.14.1.29.2.44.27.63.68 1.31 1.2 2.1-.1-.69-.1-1.32-.1-1.96 0-.78.05-1.5.15-2.24-.57.58-1.04 1.12-1.45 1.66Zm3.8 6.44c-.48-.5-.94-.98-1.3-1.42a16.6 16.6 0 0 0 3.47 6.4c1.15.43 2.34.87 3.7 1.26-.68-.93-1.3-1.9-1.83-2.93a22.86 22.86 0 0 1-4.05-3.31ZM8.46 24.8l-.31 1.27c.15-.24.3-.48.52-.73-.1-.2-.16-.39-.21-.54Zm2.34-1.95a19 19 0 0 1 .93-3.56 14.47 14.47 0 0 0-2.96 4.54c.1.24.2.54.31.93.52-.64 1.04-1.27 1.72-1.9Zm9.66 16.88c-.42-.44-.78-.93-1.2-1.46-1.3-.4-2.5-.78-3.58-1.17a28.34 28.34 0 0 0 6.23 5.17l1.35.3a32.1 32.1 0 0 1-2.8-2.84Zm.15-24.3a21.5 21.5 0 0 0-2.13 2.5c3.59-1.47 8.16-2.44 14.08-2.44 2.24 0 4.62.14 7.27.44A24.43 24.43 0 0 0 28 13c-1.71 0-3.43.15-5.04.49-.73.49-1.5 1.17-2.34 1.95ZM26.3 39.5a44.02 44.02 0 0 1-8.06-3.86c.52.88 1.1 1.71 1.72 2.5 1.92.53 4 .97 6.34 1.36Zm14.33-23.12c-2.9-.4-5.6-.54-8.05-.54-6.13 0-10.86 1.07-14.44 2.63a15.2 15.2 0 0 0-2.44 8.4c0 2.82.78 5.4 1.92 7.65 2.96 2 6.8 3.95 11.95 5.47 2.28.24 4.67.39 7.32.39.83 0 1.72 0 2.65-.05 5.1-2.78 8.47-7.27 8.47-12.34 0-4.69-2.86-8.88-7.38-11.61Zm-20.3 22.2a28.94 28.94 0 0 0 4.2 4.19c1.14.14 2.29.24 3.48.24 2.55 0 5.04-.34 7.27-1.02a71.75 71.75 0 0 1-7.22-1.86 58.98 58.98 0 0 1-7.74-1.56Zm11.1 1.84c1.57.4 3.28.79 5.05 1.13.78-.3 1.56-.59 2.28-.93h-1.87c-1.92.05-3.74-.05-5.45-.2Zm-16.77-3.75a57.8 57.8 0 0 1-4.73-2.25c2.13 3.32 5.82 5.96 10.34 7.37a26.1 26.1 0 0 1-5.61-5.12Zm-.47-.54a18.86 18.86 0 0 1-3.27-7.02 19.68 19.68 0 0 1-2.08-3.37c-.31.49-.57.88-.78 1.27-.05.3-.05.63-.05.98 0 2.1.57 4.04 1.56 5.85 1.09.63 2.5 1.37 4.2 2.15.16 0 .32.1.42.14ZM11.9 21.88a25.36 25.36 0 0 1 5.55-3.51 19.12 19.12 0 0 1 2.7-3.37c.47-.44.89-.83 1.36-1.17-3.48.88-6.5 2.49-8.83 4.54l-.16.39a22 22 0 0 0-1.04 3.46c.16-.15.26-.24.42-.34Zm5.24-2.98c-1.66.83-3.11 1.71-4.26 2.64-.52.44-1.04.83-1.45 1.26-.2.88-.31 1.86-.31 2.88 0 .98.1 1.95.26 3.03a24.97 24.97 0 0 0 5.1 4.98 17.44 17.44 0 0 1-1.52-6.89c.1-3.12.94-5.75 2.18-7.9Z" fill="#009FE8"/><path d="M43.58 18H22v5h5.48L23.9 37h13.2c3.06 0 6.17-.98 7.32-2.83 1.14-1.85.72-3.22-.84-4.44-1.92-1.51-4.93-3.7-4.93-4.3 0-.58.72-.43 1.29-.43h7.73c-.62-2.39-2-5.15-4.09-7Zm-4.52 13.63c.42.35.89.69.78 1.08-.1.39-1.4.29-1.03.29h-8.68l2.29-10h2.44c.57 0 .36.3 0 .49-.37.2-1.4.83-1.61 1.9-.21 1.12.52 1.9 1.04 2.34.46.49 4.3 3.51 4.77 3.9Z" fill="#fff"/></svg>