<!-- by TradingView --><svg width="56" height="56" viewBox="0 0 56 56" xmlns="http://www.w3.org/2000/svg"><path fill="#F0F3FA" d="M0 0h56v56H0z"/><path d="M8.57 34.98c2.16 4.56 9.86 5.36 17.19 1.78.49-.24.97-.5 1.43-.76H25l3.2-6h-4.5l-3.24 6H15l7.54-14H28l-2.15 4h4.5l2.13-4h2.63c-2.17-4.55-9.86-5.34-17.18-1.76-7.33 3.58-11.52 10.18-9.36 14.74Z" fill="#225483"/><path d="M33.77 23h4.15l-2.68 4.75 8.6-4.75H48l-7.13 3.94L43.23 35H37.5l-1.46-5.4-2.66 1.45.02-.03L31.15 35H27l6.77-12Z" fill="#225483"/></svg>