<!-- by TradingView --><svg width="56" height="56" viewBox="0 0 56 56" xmlns="http://www.w3.org/2000/svg"><path fill="#F0F3FA" d="M0 0h56v56H0z"/><path d="M27.32 25.2c-.08.07-.2.1-.4.1v.7h2.58v-.8a5.95 5.95 0 0 0-.5.02v-4.24h-.63l-.01.02a.75.75 0 0 1-.24.16c-.12.05-.28.1-.5.13a4.7 4.7 0 0 1-.76.05v.81l.31-.01.38-.02a10.88 10.88 0 0 0-.04.92v1.32c0 .19-.01.35-.04.5a.56.56 0 0 1-.15.33Zm.29-5.71c.14.17.32.25.55.25.22 0 .4-.08.53-.25.13-.17.2-.38.2-.62a.92.92 0 0 0-.22-.62.64.64 0 0 0-.52-.25c-.2 0-.38.09-.53.25a.9.9 0 0 0-.23.62c0 .24.07.45.22.62Zm11.21 6.27.02.24h1.86v-.86a6.22 6.22 0 0 0-.7.02V22.8c0-.63-.05-1.09-.37-1.37a1.9 1.9 0 0 0-1.34-.43c-.38 0-.73.05-1.04.16-.32.1-.57.24-.76.43a.88.88 0 0 0-.27.65c0 .17.05.32.15.44.1.13.26.2.46.2.22 0 .4-.06.5-.19.1-.14.15-.27.15-.4 0-.04 0-.1-.02-.16a.38.38 0 0 0-.1-.19.88.88 0 0 1 .31-.19c.12-.04.24-.07.36-.07.19-.01.33.02.43.1.1.08.17.18.21.31.05.13.07.28.07.44v.5a5.29 5.29 0 0 0-1.87.43c-.26.13-.47.3-.63.52-.16.21-.24.47-.24.77 0 .36.12.65.35.9.24.23.57.35.99.35a1.98 1.98 0 0 0 1.46-.58l.01.21.01.12Zm-.6-1.98.51-.1V24.75c-.1.1-.22.18-.35.25a.97.97 0 0 1-.42.09.67.67 0 0 1-.39-.11c-.1-.08-.17-.2-.17-.38 0-.13.03-.25.1-.36.07-.1.16-.2.28-.27.12-.07.27-.13.43-.18ZM10.48 35c-.64 0-1.18-.12-1.63-.35-.44-.23-.8-.54-1.07-.93-.27-.4-.47-.83-.6-1.3a4.8 4.8 0 0 1 .67-4.1A3.2 3.2 0 0 1 10.51 27c.61-.01 1.14.11 1.58.35.44.24.8.56 1.08.96a4.8 4.8 0 0 1 .61 4.05c-.14.47-.36.9-.65 1.3A3.2 3.2 0 0 1 10.49 35Zm.1-.8c.35 0 .64-.09.88-.27.23-.2.42-.43.56-.73.14-.3.24-.63.3-.98s.09-.7.09-1.03c0-.5-.04-.97-.12-1.38-.08-.42-.2-.77-.37-1.07-.17-.3-.38-.54-.64-.7a1.54 1.54 0 0 0-.9-.24c-.35 0-.63.1-.87.3-.23.2-.42.44-.56.75-.14.3-.24.62-.3.98a6.25 6.25 0 0 0 .01 2.13c.08.39.19.75.34 1.1.16.34.36.61.62.83.26.2.58.31.97.31Zm8.86.1c.19 0 .32-.03.4-.1a.55.55 0 0 0 .15-.34c.02-.1.01-.2 0-.32v-1.49l.02-.21.03-.23c0-.17.01-.33.03-.49a21.1 21.1 0 0 1-.7.03v-.8c.3 0 .56-.02.78-.06.2-.03.37-.07.5-.12a.83.83 0 0 0 .25-.17h.54v3.29a12.75 12.75 0 0 1-.04.93l.34-.02h.3v.8h-2.6v-.7Zm1.24-5.56a.7.7 0 0 1-.55-.25.92.92 0 0 1-.22-.62.9.9 0 0 1 .23-.62.7.7 0 0 1 .53-.25c.21 0 .39.09.53.25.14.18.22.38.22.62s-.07.45-.2.62a.64.64 0 0 1-.54.25ZM45.87 35a1.72 1.72 0 0 1-1.64-1.1 3.08 3.08 0 0 1-.23-1.25c0-.5.1-.94.29-1.33.19-.4.46-.7.8-.92a2.18 2.18 0 0 1 1.66-.28l.38.11v-.61a93.96 93.96 0 0 1 .03-1.7 21.17 21.17 0 0 1-.66.03v-.7a4.67 4.67 0 0 0 1.2-.16l.11-.04c.06-.02.1-.03.12-.05h.5v6.36a10.54 10.54 0 0 1-.03.81l.33-.01.27-.01V35h-1.76l-.01-.1v-.01a3.43 3.43 0 0 0-.05-.47c-.2.22-.41.36-.63.45a1.8 1.8 0 0 1-.68.13Zm.49-.84c.16 0 .3-.04.44-.12.14-.1.25-.2.33-.33V30.93a.73.73 0 0 0-.28-.12 1.32 1.32 0 0 0-.38-.06.9.9 0 0 0-.67.27c-.16.17-.28.4-.34.66a3.68 3.68 0 0 0 0 1.6c.06.26.17.47.31.63.15.17.34.25.59.25ZM41 35c-.48 0-.9-.1-1.28-.3-.37-.2-.66-.5-.86-.87-.2-.37-.31-.81-.31-1.32a2.56 2.56 0 0 1 1.17-2.15 2.4 2.4 0 0 1 1.31-.36c.28 0 .55.04.81.11a1.83 1.83 0 0 1 1.23 1.08c.14.3.2.68.2 1.13l-3.26.06a3 3 0 0 0 .13.9c.09.28.24.5.44.65.2.16.48.23.83.23a2.01 2.01 0 0 0 1.46-.7l.44.4c-.24.31-.49.56-.76.73-.27.16-.54.27-.81.33-.27.05-.51.08-.74.08Zm-.93-3.28h1.82c0-.26-.04-.47-.12-.62a.68.68 0 0 0-.27-.34.82.82 0 0 0-.42-.1c-.3 0-.52.1-.68.3-.17.2-.28.45-.33.76Zm-4.62 3.2a2.2 2.2 0 0 0 .86.06 2.16 2.16 0 0 0 1.01-.47c.19-.16.37-.38.55-.66l-.47-.48c-.19.28-.36.46-.53.53a1 1 0 0 1-.38.1c-.5 0-.5-.55-.5-.96V30.8l1-.03V30h-1v-2h-.8l-.04.18a3.9 3.9 0 0 1-.24 1c-.14.23-.3.41-.49.56-.2.14-.39.21-.6.22v.89h.68l-.02 2.1c0 .45.04.8.13 1.08.08.27.2.48.35.62.14.13.3.23.5.28ZM28 35v-.63c.19 0 .35-.04.43-.1a.49.49 0 0 0 .15-.3c.03-.14.04-.3.04-.46v-1.63a8.3 8.3 0 0 1 .04-.82 23.14 23.14 0 0 1-.66.03v-.74a4.76 4.76 0 0 0 1.24-.17c.1-.03.17-.1.22-.15l.03-.03h.5l.01.24v.12l.04.18a2.8 2.8 0 0 1 1.43-.54c1.3 0 1.53.98 1.53 2.14V33.55l.01.28c0 .16-.02.31-.03.46l.36-.02a6 6 0 0 1 .28 0V35h-2.47v-.63c.19 0 .32-.04.4-.1a.46.46 0 0 0 .16-.3c.02-.14.04-.3.04-.46l-.01-1.38c0-.42-.07-.73-.2-.93-.11-.2-.32-.3-.6-.3-.17 0-.34.03-.5.1-.16.07-.33.15-.44.25V34.29l.34-.02h.3V35H28Zm-4.23-.3c.37.2.8.3 1.28.3.22 0 .47-.03.73-.08a2.62 2.62 0 0 0 1.58-1.07l-.45-.4a2.04 2.04 0 0 1-1 .65c-.17.04-.32.06-.45.06-.35 0-.62-.07-.83-.23-.2-.16-.35-.37-.44-.64a3 3 0 0 1-.13-.91l3.25-.06c0-.45-.06-.83-.19-1.13a1.77 1.77 0 0 0-1.23-1.08 2.96 2.96 0 0 0-.81-.11 2.4 2.4 0 0 0-2.17 1.28c-.2.38-.31.8-.31 1.23 0 .5.1.95.3 1.32.21.37.5.66.87.87Zm2.17-2.98h-1.82c.05-.31.16-.57.32-.76.17-.2.4-.3.69-.3.16 0 .3.03.41.1.12.07.22.18.28.34.08.15.12.36.12.62Zm-10.86 2.54c-.08.07-.21.11-.4.11V35h2.6v-.74a6.62 6.62 0 0 0-.64.03 9.76 9.76 0 0 0 .04-.85v-1.58c.04-.12.1-.25.2-.4.11-.15.23-.27.36-.37a.62.62 0 0 1 .4-.17c.02.22.1.37.24.45.14.07.27.11.4.11.18 0 .31-.03.41-.1.1-.08.17-.16.22-.27a.8.8 0 0 0 .07-.3c0-.29-.09-.5-.26-.62a.98.98 0 0 0-.6-.19c-.16 0-.32.03-.48.1-.15.05-.3.15-.46.28-.16.13-.33.3-.51.51a12.25 12.25 0 0 0-.04-.89h-.49c-.06.06-.2.19-.42.25-.22.07-.45.1-.7.1h-.4v.74l.31-.01.38-.02a9.07 9.07 0 0 0-.04.82v1.63c0 .17-.01.32-.04.45a.49.49 0 0 1-.15.3ZM30 26v-.63c.19 0 .32-.04.4-.1a.49.49 0 0 0 .14-.3c.03-.14.04-.3.04-.46v-1.63a8.42 8.42 0 0 1 .04-.82 22.73 22.73 0 0 1-.69.03v-.74a5.14 5.14 0 0 0 1.26-.17c.1-.03.18-.1.22-.15l.04-.03h.48l.02.24v.12l.04.18A2.75 2.75 0 0 1 33.4 21c.6 0 1.02.17 1.27.51.26.34.32.88.32 1.63V24.83l.01.22.02.24.35-.02h.28V26H33.1v-.63c.18 0 .31-.04.4-.1a.47.47 0 0 0 .15-.3c.03-.14.04-.3.04-.46l-.01-1.38c0-.42-.06-.73-.19-.93-.12-.2-.32-.3-.6-.3-.17 0-.33.03-.5.1a1.5 1.5 0 0 0-.38.25v2.19l-.01.16-.02.23c0 .16-.02.31-.03.46l.34-.02h.3V26H30Zm-6.25-.69c.19 0 .32-.04.4-.12a.53.53 0 0 0 .15-.32c.03-.15.04-.32.04-.5V23.3c-.01-.46-.08-.8-.2-1.02a.63.63 0 0 0-.6-.34c-.17 0-.33.04-.5.12-.15.08-.29.17-.4.28v1.95a12.9 12.9 0 0 1-.04.94c.11-.02.23-.02.36-.02l.28-.02V26h-2.57v-.69c.18 0 .31-.04.4-.12a.53.53 0 0 0 .15-.32c.02-.15.03-.32.03-.5V20a11 11 0 0 1 .04-.92 20.8 20.8 0 0 1-.7.03v-.8c.32 0 .57-.02.78-.06.2-.03.37-.07.49-.12.12-.05.2-.1.25-.14h.53v3.56a2.54 2.54 0 0 1 .97-.5c.18-.06.33-.06.45-.06h.02c.6 0 1.03.16 1.28.53s.38.96.38 1.78v.98a12.9 12.9 0 0 1-.04.94c.1-.02.22-.02.34-.02l.3-.02V26h-2.59v-.69Zm-5.08-6.05c.28.3.46.76.55 1.36h.64v-2.54h-.76l.04.46c-.27-.18-.56-.31-.87-.4a3.04 3.04 0 0 0-3.42 1.17 5.19 5.19 0 0 0-.62 4.33A3.37 3.37 0 0 0 16 25.7a3.16 3.16 0 0 0 2.28.16c.35-.09.7-.26 1.05-.5.35-.26.69-.63 1-1.12l-.46-.48a3.1 3.1 0 0 1-1.02 1c-.41.23-.82.34-1.23.34-.44 0-.82-.13-1.12-.41-.31-.28-.55-.66-.71-1.14a5.45 5.45 0 0 1 .25-3.81c.17-.3.39-.53.64-.7.26-.18.56-.26.9-.26.46 0 .82.16 1.1.47Z"/></svg>