<!-- by TradingView --><svg width="56" height="56" viewBox="0 0 56 56" xmlns="http://www.w3.org/2000/svg"><path fill="#F0F3FA" d="M0 0h56v56H0z"/><path d="M35.07 25a8.5 8.5 0 0 0-1.13-2H31v2h4.07ZM31 26v1.54h4.6a5.41 5.41 0 0 0-.24-1.54H31Zm-6-1v-2h-2.94c-.46.6-.84 1.28-1.13 2H25Zm-4.36 1c-.18.62-.2.86-.24 1.54H25V26h-4.36ZM31 36v1h4.95c-2.12 1.87-4.9 3-7.95 3-.98 0-2.1-.12-3-.34V36h-5.85A11.67 11.67 0 0 1 16 28.36h24A11.66 11.66 0 0 1 36.85 36H31Zm0-5h3.81c.14-.26.27-.53.43-1H31v1Zm0 3h1.65c.4-.32.74-.62 1.02-1H31v1Zm-6-1h-2.67c.28.38.57.63 1 1H25v-1Zm0-3h-4.24c.15.46.29.73.42 1H25v-1Zm-3.55-8a9.76 9.76 0 0 0-2.11 5.54H16A11.83 11.83 0 0 1 19.1 20H26v-1h-6.04A11.9 11.9 0 0 1 28 16c3.1 0 5.91 1.08 8.04 3H30v1h6.91A11.84 11.84 0 0 1 40 27.54h-3.31c-.1-2.15-.96-4-2.14-5.54H30v5.54h-3.98V22h-4.57Z" fill="#E10019"/><path fill-rule="evenodd" d="m28.99 7-.42 7.55h.53l.12-2.15h1.4l2.12 3.06.42-.3-1.99-2.83 3.3-1.32-.17-.45-3.53 1.38-1.55-.07L29.5 7H29Zm-6.78 4.12c1.08-.35 3.65-1.06 5.3-1.03l.25 4.1.1 1.2c-.81.04-2.69.25-3.72.83l-.25-.56c.57-.24 2.03-.74 3.3-.8v-.58a12 12 0 0 0-3.59.82l-1.39-3.98Zm.77.36c.82-.28 2.8-.84 4.07-.83l.1 3.02c-.73.06-2.4.29-3.2.7l-.97-2.89Zm-2.24.32a18.56 18.56 0 0 0-4.7 3.26l2.93 3.37c.1-.13.23-.27.38-.4l-2.58-2.95c.66-.58 2.59-2.05 3.76-2.54l1.7 3.47c.17-.1.33-.2.46-.26l-1.95-3.95Zm15.31.06c1 .54 3.3 1.92 4.42 3.14l-2.95 3.25c-.72-.65-2.43-2.05-3.52-2.42l2.05-3.97Zm.28.8c.77.41 2.54 1.46 3.42 2.39l-2.28 2.46c-.56-.5-1.88-1.56-2.73-1.84l1.59-3Zm-21.56 3.62c-1.15 1.2-2.4 3.57-2.88 4.6l4.03 1.88c.31-1.12 1.6-2.91 2.22-3.66l-3.37-2.82Zm.08.73c-.87.92-1.82 2.76-2.18 3.56l3.05 1.45a10.7 10.7 0 0 1 1.68-2.84l-2.55-2.17Zm-3.51 5.1a16.7 16.7 0 0 0-.86 5.36H8V28h6.72v-.53h-3.69c-.12-1.87.38-3.89.64-4.67l3.61 1.17.15-.51-4.1-1.36Zm30.24-5.93c.93 1.05 2.51 3.3 3.08 4.87l-3.98 1.83-.23-.48 3.48-1.6c-.44-1.2-1.83-3.2-2.39-3.87l-3 2.51c-.13-.16-.26-.3-.38-.4l3.42-2.86ZM45.98 28c.13-1.66-.4-4.3-.69-5.4l-4.03 1.15c.4.88.55 2.55.6 3.65l-.66-.05c.02-1.29-.38-2.8-.59-3.38l-.57.22c.51 1.07.6 3 .59 3.81h5.34Zm-.53-.6c.09-1.27-.33-3.2-.56-4.06l-2.99.8c.37.82.49 2.52.5 3.27h3.05Zm-30.08 4.67c.38.93 1.32 3.05 2.08 4.02a8.7 8.7 0 0 1-1.96 1.45c-.6-.9-1.88-3.03-2.14-4.22l-1.41.5c.43 1.1 1.51 3.58 2.45 4.61l-.46.37c-.74-1.13-2.31-3.78-2.64-5.32l4.08-1.41Zm-1.52 1.12 1.24-.45c.2.59.8 2.07 1.64 3.28-.14.16-.55.54-1.03.78a14.37 14.37 0 0 1-1.85-3.61Zm9.66 7.48a20.99 20.99 0 0 1-3.93-2.21l-2.64 3.44c1.11 1.11 3.87 2.45 5.1 2.98l.19-.56c-1.35-.34-3.6-1.8-4.56-2.5l.91-1.2c.87.86 3.08 1.92 4.08 2.35.5-.92.78-1.92.85-2.3Zm-3.8-1.5-.79 1.07c1.23 1 2.85 1.75 3.51 2 .28-.47.41-1.02.44-1.24a14.46 14.46 0 0 1-3.15-1.83Zm-.28-2.94.4.42-4.19 4.06-.4-.42 4.2-4.06Zm19 .47-.39.43 3.34 3.04.38-.43-3.33-3.04Zm-13.4 4.43c1 .28 2.4.34 2.97.34v.56c-1.06.06-2.16-.12-2.58-.22l-.8 3.2c1.58.5 3.6.45 4.42.37l.1.6c-2.22.11-4.39-.28-5.2-.49l1.08-4.36Zm15.82-8.82c-.2.55-1.17 2.72-1.78 3.57l3.68 2.53c.48-.69 1.6-2.6 2.26-4.74l-.6-.12c-.2.8-.86 2.74-1.88 4.06l-2.68-1.87c.23-.36 1.2-2.2 1.52-3.24l-.52-.19Zm-10.43 9.03c-.45.09-1 .13-1.2.15v.57a9.6 9.6 0 0 0 1.3-.18l.75 3.84c.75-.12 2.2-.54 2.82-.74l-.17-.56c-.36.2-1.6.53-2.16.66l-.68-3.28c.6-.12 1.37-.35 1.68-.46l-.19-.55c-.41.21-1.23.39-1.58.45l-.27-1.3-.54.11.24 1.3Zm5.09 3.04-1.79-3.98c.84-.47 2.74-1.64 3.59-2.54l1.71 1.76-.4.37-1.31-1.39c-.52.44-1.81 1.46-2.9 2l1.6 3.5-.5.28Z" fill="#E10019"/></svg>