<!-- by TradingView --><svg width="56" height="56" viewBox="0 0 56 56" xmlns="http://www.w3.org/2000/svg"><path fill="#F0F3FA" d="M0 0h56v56H0z"/><path d="m26.16 33.2-5.03 4.52c-.03.03-.07.03-.1 0-1.2-1.06-3.35-2.99-6.45-5.78a8.47 8.47 0 0 1-1.55-1.67c-.53-.9-.7-1.85-.52-2.84a4.44 4.44 0 0 1 3.41-3.55c.05-.01.07-.04.05-.08a6.48 6.48 0 0 1-.49-2.2.09.09 0 0 0-.1-.05 6.8 6.8 0 0 0-5.32 5.7 6.61 6.61 0 0 0 2.25 5.92c2.84 2.55 5.74 5.16 8.7 7.8a.1.1 0 0 0 .13 0l15.72-14.1a12.1 12.1 0 0 0 1.44-1.45 6.2 6.2 0 0 0 .96-1.81 6.24 6.24 0 0 0-.37-5 6.77 6.77 0 0 0-7.72-3.39c-1.18.29-2.21.86-3.09 1.73a.09.09 0 0 1-.06.03l-.06-.03a6.8 6.8 0 0 0-3.92-1.9 6.7 6.7 0 0 0-7.47 5.17 6.33 6.33 0 0 0 1.4 5.49c.22.26.53.56.92.91a11583.24 11583.24 0 0 1 7.28 6.56v.02Zm8.77-9.11c.1 1.02-.7 1.76-1.73 1.83-.05 0-.07.03-.06.09l.09.5c.04.26-.07.42-.33.5a.73.73 0 0 1-.07 0c-.29 0-.46-.12-.51-.37a4.43 4.43 0 0 0-2.53-3.26 4.35 4.35 0 0 0-4.89 1c-.4.43-.43 1.02.1 1.33.16.1.33.12.5.08a.19.19 0 0 0 .11-.07 8 8 0 0 1 .45-.61c.82-.83 2-1.1 3.08-.63 1.63.7 2.14 2.74.94 4.11a.18.18 0 0 0-.05.12c0 .29-.1.95-.43 1.05-.33.11-.72-.17-.6-.53.2-.65.05-1.15-.45-1.49-.2-.13-.47-.16-.7-.18a.41.41 0 0 1-.25-.1.4.4 0 0 1-.13-.23c-.04-.26.05-.44.28-.53.13-.05.3-.05.52 0 .52.1.9.3 1.14.6.25.3.38.25.38-.14v-.33c0-.37-.13-.74-.38-1.02-.38-.46-.98-.71-1.59-.63-.83.12-1.34.62-1.53 1.5-.05.23-.2.35-.44.36-.18 0-.27-.08-.38-.2a3.98 3.98 0 0 0-.06-.04.24.24 0 0 0-.13-.06 1.74 1.74 0 0 1-1.41-.9c-.39-.71-.23-1.44.33-2.03a5.27 5.27 0 0 1 8.29.7c.15.24.3.39.45.43.28.1.51.07.7-.07.52-.36.38-.86.06-1.3a6.97 6.97 0 0 0-11.77.73c-.12.21-.3.28-.55.22l-.05-.03c-.28-.18-.34-.4-.18-.69a7.75 7.75 0 0 1 5.15-3.84c1.23-.3 2.5-.27 3.77.07a7.57 7.57 0 0 1 4.41 3.07c.27.4.42.72.45.99ZM42 31.4l-7.02 6.3c-.04.04-.08.04-.12 0l-4.54-4.07c-.04-.04-.09-.04-.13 0l-1.69 1.52c-.04.03-.04.07 0 .11l6.35 5.7a.1.1 0 0 0 .14 0l8.03-7.2c.93-.84 1.55-1.5 1.86-1.96a6.6 6.6 0 0 0 .89-5.42 6.74 6.74 0 0 0-5.14-4.84c-.05-.01-.08 0-.08.06-.04.74-.2 1.46-.48 2.16-.03.07 0 .11.07.13a4.48 4.48 0 0 1 3.21 2.98 4 4 0 0 1-.47 3.5A5 5 0 0 1 42 31.4Z" fill="#D0171E"/></svg>