<!-- by TradingView --><svg width="56" height="56" viewBox="0 0 56 56" xmlns="http://www.w3.org/2000/svg"><path fill="#3B2C25" d="M0 0h56v56H0z"/><path d="M9 32H6v-.5h1.5v-9H6V22h3.5l2.5 7 2.5-7H17v.5h-1v9h1v.5h-3.5v-.5h1V23l-3 9L8 23v8.5h1v.5ZM21 26h-2v.5h.5v5H19v.5h2.5v-.5H21V26ZM31 26h-2v.5h.5v5H29v.5h2.5v-.5H31V26Z" fill="#ECEAEA"/><circle cx="20" cy="23" r="1" fill="#ECEAEA"/><circle cx="30" cy="23" r="1" fill="#ECEAEA"/><path d="M23 26h2v.39c.26-.22.6-.39 1-.39.8 0 1 .67 1 1 0 .17-.1.5-.5.5s-.5-.33-.5-.5c0-.17-.1-.5-.5-.5-.17 0-.34.06-.5.14v4.86h.5v.5H23v-.5h.5v-5H23V26ZM46 26h2v.39c.26-.22.6-.39 1-.39.8 0 1 .67 1 1 0 .17-.1.5-.5.5s-.5-.33-.5-.5c0-.17-.1-.5-.5-.5-.17 0-.34.06-.5.14v4.86h.5v.5H46v-.5h.5v-5H46V26Z" fill="#ECEAEA"/><path fill-rule="evenodd" d="M42 32a3 3 0 1 0 0-6 3 3 0 0 0 0 6Zm0-.5c.83 0 1.5-1.12 1.5-2.5s-.67-2.5-1.5-2.5-1.5 1.12-1.5 2.5.67 2.5 1.5 2.5Z" fill="#ECEAEA"/><path d="M32 29c0-2.4 2-3 3-3s2 .5 2 1 0 1-.5 1-1 0-1-.5 1-1-.5-1-1.5 2-1.5 2.5 0 2.5 1.5 2.5c1.2 0 1.83-1 2-1.5l.5.5C37 32 35.5 32 35 32s-3 0-3-3Z" fill="#ECEAEA"/></svg>