<!-- by TradingView --><svg width="56" height="56" viewBox="0 0 56 56" xmlns="http://www.w3.org/2000/svg"><path fill="#F0F3FA" d="M0 0h56v56H0z"/><path d="M22.08 33.4a7.39 7.39 0 0 1 7.8-3.02.23.23 0 0 1 .17.15 7.3 7.3 0 0 0 5.04 4.92c.04 0 .07.03.1.05l.05.1a7.38 7.38 0 0 1-4.52 8.86c-.5.2-1.22.38-2.14.54h-.87a10.04 10.04 0 0 1-2.78-.81 7.4 7.4 0 0 1-2.85-10.8Zm3.02 1.54-.03.01a.06.06 0 0 0-.01.06c.26.92.48 1.77.48 2.75a9.69 9.69 0 0 1-.5 2.78.06.06 0 0 0 .05.05h.03a15.77 15.77 0 0 1 2.9-.34 12.98 12.98 0 0 1 2.92.35l.03-.02a.06.06 0 0 0 .01-.06 9.7 9.7 0 0 1-.48-2.75 9.76 9.76 0 0 1 .49-2.78c0-.01 0-.02-.02-.03a.06.06 0 0 0-.06-.02 15.74 15.74 0 0 1-2.89.35 12.73 12.73 0 0 1-2.89-.36h-.03ZM18.7 20.79c1.89.06 3.52.76 4.88 2.1a7.27 7.27 0 0 1 1.93 7.12 7.32 7.32 0 0 0-5.04 5.2 7.39 7.39 0 0 1-7.71-2.37A8.5 8.5 0 0 1 11 28.4v-.46c.1-.8.26-1.52.48-2.19 1.05-3.1 4-5.07 7.23-4.96Zm16.91.06c3.55-.84 7.02.66 8.62 4.01.38.8.56 1.67.71 2.5.16.9-.1 1.9-.38 2.84a7.33 7.33 0 0 1-14.32-1.78 7.9 7.9 0 0 1 .21-2.28.16.16 0 0 1 .07-.05c2.6-.94 4.26-2.64 4.94-5.1a.2.2 0 0 1 .15-.14Zm-.68 4.21-.02.02v.02a11.5 11.5 0 0 1 .02 5.92l.02.01h.02c.5-.1.9-.2 1.2-.25a8.19 8.19 0 0 1 4.38.28c.02 0 .03 0 .04-.02l.02-.03v-.04a12.29 12.29 0 0 1-.02-5.83.08.08 0 0 0-.02-.03.08.08 0 0 0-.04-.02h-.04a7.26 7.26 0 0 1-5.56-.03Zm-19.53-.02-.02.03v.03a12.3 12.3 0 0 1 0 5.86c.01.04.04.05.08.04A7.97 7.97 0 0 1 21 31h.03a.06.06 0 0 0 .02-.07c-.48-1.9-.47-3.86.03-5.89a8.44 8.44 0 0 1-5.64-.01l-.03.01ZM28.14 11c2.07.34 3.73.95 5.17 2.53l.19.22c3.82 4.63.77 11.77-5.3 12.04-.69.03-1.37-.02-2.04-.15a.3.3 0 0 1-.24-.2 7.78 7.78 0 0 0-2.2-3.4 7.82 7.82 0 0 0-2.79-1.48.32.32 0 0 1-.22-.23 7.4 7.4 0 0 1 4.8-8.88c.46-.16 1.14-.3 2.05-.45h.58Zm1.75 4.58-.67.1a11.6 11.6 0 0 1-4.23-.27l-.01.02v.01c.42 1.84.43 3.71.02 5.62a12 12 0 0 1 5.85.04l.03-.02.02-.03V21a8.84 8.84 0 0 1-.22-4.58l.24-1.03-1.03.18Z" fill="url(#a)"/><defs><linearGradient id="a" x1="21.34" y1="21.82" x2="35.69" y2="35.89" gradientUnits="userSpaceOnUse"><stop stop-color="#E71E28"/><stop offset="1" stop-color="#6F2C35"/></linearGradient></defs></svg>