<!-- by TradingView --><svg width="56" height="56" viewBox="0 0 56 56" xmlns="http://www.w3.org/2000/svg"><path fill="#F0F3FA" d="M0 0h56v56H0z"/><path d="M25.93 27.69c8.76-3.3 16.79-3.6 17.93-.67 1.15 2.93-5.03 7.99-13.79 11.3-8.76 3.3-16.79 3.6-17.93.66-1.15-2.93 5.03-7.99 13.79-11.3Zm13.47 0c-.86-2.29-6.88-2.05-13.45.52-6.57 2.57-11.2 6.5-10.34 8.78.86 2.28 6.88 2.05 13.45-.52 6.57-2.57 11.2-6.5 10.34-8.79Z" fill="#00529B"/><path d="M26.37 20.3c6.31-5.71 13.06-8.7 15.06-6.66 2 2.04-1.48 8.33-7.8 14.05-6.31 5.72-13.06 8.7-15.06 6.67-2-2.04 1.48-8.33 7.8-14.05Zm11.5-4.59c-1.54-1.6-6.6.65-11.3 5.02-4.7 4.36-7.27 9.2-5.74 10.8 1.53 1.6 6.59-.65 11.29-5.02 4.7-4.37 7.27-9.2 5.74-10.8Z" fill="#82C0E9"/></svg>