<!-- by TradingView --><svg width="56" height="56" viewBox="0 0 56 56" xmlns="http://www.w3.org/2000/svg"><path fill="#F0F3FA" d="M0 0h56v56H0z"/><path d="M15.86 21.07a6.92 6.92 0 0 1-1.82-1.76.96.96 0 0 0-.72-.4.16.16 0 0 1-.15-.12l-.12-.46c.28-.29.7-.6 1.27-.94a6409 6409 0 0 0 8.9-5.4c1.8-1.09 3.02-1.7 3.67-1.84a7.96 7.96 0 0 1 4.3.37.9.9 0 0 1 .52.52.38.38 0 0 1-.15.48l-15.7 9.55Z" fill="#565226"/><path d="M32.42 18.04c.21.62-.14 1.28-.13 1.64.04.97.03 2.44-.04 4.4l.02-.25a.4.4 0 0 0-.18-.36.4.4 0 0 0-.4-.02c-2.54 1.33-4.85 3.05-7.37 4.4-.2.12-.29.38-.32.68a89.32 89.32 0 0 0-2.23-2.46 1.5 1.5 0 0 1-.26-.38l-.2-.41c.38-.4.7-.7.98-.85 1.55-.93 3.01-1.89 4.75-2.86a.2.2 0 0 0 .1-.15.2.2 0 0 0-.06-.17l-3.4-3.37c-.24-.25-.22-.47.07-.67a3.99 3.99 0 0 1 3.45-.68c.41.1.96.44 1.63 1 .68.56 1.23 1.05 1.67 1.47a.5.5 0 0 0 .63.05l1.29-1Z" fill="#E7CF53"/><path d="M43 37.15s-2.82-2.22-3-2.28v-6.08c-.05-.39-.33-.8-.71-1.24l-4.05-3.5a.14.14 0 0 0-.22.02.14.14 0 0 0-.02.08v5.81c-.38.1-.54-.1-.95-.62-.6-.77-1.43-1.3-2.05-2.05v-9.17l.33-.84a.49.49 0 0 1 .14-.19c.28-.23.53-.21.73.06L36.33 20c.18.16.3.26.4.32.15.1.27 0 .27-.2v-4.33c.22-.1.17-.14.36-.12a.3.3 0 0 1 .2.12l1.52 1.67c.7.57.92 1.22.92 1.99v3.25c0 .68.23 1.27.78 1.76.9.8 1.32 1.18 1.72 1.64.17.2.28.46.33.8.09.63.16 1.24.17 1.82v8.43Z" fill="#90813B"/><path d="M37 15.77v4.4a.2.2 0 0 1-.09.21.2.2 0 0 1-.22 0c-.1-.06-.23-.16-.4-.32l-2.78-2.62L37 15.77Z" fill="#E7CF53"/><path d="m13 18.33 3 2.74v5.23c0 .45.13.87.32 1.27.12.26.4.58.83.94.06.05 1.27 1.02 3.27 2.9.24.23.44.19.57-.13l.01-.32v-4.58c-.01-.4.02-.76.3-1.1l.2.41c.07.14.16.27.27.38A89.2 89.2 0 0 1 24 28.51v4.42s-4.1 2.19-5.88 3.18c-.47.27-1.33.53-1.9 1.02-.07.06-.13.05-.18-.02-.04-.07-.03-.17-.04-.31v-3.87c0-.55-.06-.88-.47-1.23-.9-.8-1.4-1.4-2.16-2.06a.96.96 0 0 1-.37-.7V18.33Z" fill="#90813B"/><path d="m32 27.24 3 2.69c-.09.34-.18.72-.75 1.08-.62.4-1.26.77-1.9 1.13-1.21.68-1.97 1.37-3.1 2.12a.35.35 0 0 0-.15.36c.01.05.03.1.06.13.28.4.66.79 1.13 1.18 1.28 1.07 1.9 1.53 2.34 2.19a.2.2 0 0 1 .03.15.2.2 0 0 1-.1.13c-.7.4-1.7.98-2.5.96-.69 0-1.3-.2-1.85-.58l-2.63-1.81c-.34-.23-.72-.2-1.14.08a76.4 76.4 0 0 1-4.46 2.73c-.6.35-1.1.32-1.54-.08-.66-.6-1.8-2.01-2.45-2.65L32 27.25Z" fill="#E7CF53"/><path d="m40 34.78 3 2.31c-3.57 2.16-7.72 5.12-11.97 7.77a6.81 6.81 0 0 1-2.8 1.12 5.48 5.48 0 0 1-4.06-1.37.23.23 0 0 1 .01-.21.24.24 0 0 1 .08-.08L40 34.78Z" fill="#565226"/></svg>