<!-- by TradingView --><svg width="56" height="56" viewBox="0 0 56 56" xmlns="http://www.w3.org/2000/svg"><path fill="#F0F3FA" d="M0 0h56v56H0z"/><path d="M24 43h-9c1.8-.44 2-1.67 2-2.22V13h5v27.78c0 1.78 1.25 2.22 2 2.22Z" fill="url(#a)"/><path d="M41 13h-9c1.8.44 2 1.67 2 2.22V43h5V15.22c0-1.78 1.25-2.22 2-2.22Z" fill="url(#b)"/><path d="M34 38.56 22 13v4.44L34 43v-4.44Z" fill="url(#c)"/><defs><linearGradient id="a" x1="19.5" y1="12.83" x2="19.5" y2="43" gradientUnits="userSpaceOnUse"><stop stop-color="#F9B657"/><stop offset="1" stop-color="#A93251"/></linearGradient><linearGradient id="b" x1="35.94" y1="14.11" x2="35.94" y2="43" gradientUnits="userSpaceOnUse"><stop stop-color="#F9B657"/><stop offset="1" stop-color="#A93251"/></linearGradient><linearGradient id="c" x1="21.5" y1="16.89" x2="36.63" y2="39.93" gradientUnits="userSpaceOnUse"><stop stop-color="#B24854"/><stop offset="1" stop-color="#F4AE56"/></linearGradient></defs></svg>