<!-- by TradingView --><svg width="56" height="56" viewBox="0 0 56 56" xmlns="http://www.w3.org/2000/svg"><path fill="#F0F3FA" d="M0 0h56v56H0z"/><path d="m47.9 32.34-1 .12c-.11-.4-.47-.6-.87-.6-.33 0-.96.14-.96.55-.01 1.07 2.92.4 2.93 2.05C48 35.5 46.93 36 46 36c-1.14 0-1.87-.53-2-1.42l1.07-.1c.1.43.42.66.93.66.35 0 .9-.15.9-.58 0-1.2-2.91-.32-2.9-2.1 0-1 1.13-1.46 2.02-1.46 1.1 0 1.73.52 1.88 1.34ZM40.64 36c-1.48 0-2.64-.97-2.64-2.5 0-1.5 1.16-2.5 2.63-2.5 1.08 0 2.27.54 2.37 1.74h-1c-.11-.53-.83-.74-1.35-.74-.88 0-1.65.67-1.65 1.48 0 .82.76 1.52 1.65 1.52.52 0 1.23-.22 1.35-.75h1c-.1 1.2-1.27 1.75-2.36 1.75ZM36.5 30a.49.49 0 0 1-.35-.14.48.48 0 0 1-.15-.36c0-.14.05-.26.15-.35.1-.1.21-.15.35-.15.14 0 .26.05.35.15.1.1.15.21.15.35 0 .14-.05.26-.15.36-.1.1-.21.14-.35.14ZM36 31v5h1v-5h-1ZM35 31v1h-3v-1h3Zm-2-1h1v4.5c0 .35.1.55.45.55a1.23 1.23 0 0 0 .35-.05l.2.89a2.8 2.8 0 0 1-.7.1c-.83.03-1.3-.4-1.3-1.3V30ZM17.5 36a2.4 2.4 0 0 1-2.5-2.5 2.4 2.4 0 0 1 2.5-2.5 2.4 2.4 0 0 1 2.5 2.5 2.4 2.4 0 0 1-2.5 2.5Zm0-1c.88 0 1.5-.73 1.5-1.5s-.62-1.5-1.5-1.5a1.5 1.5 0 1 0 0 3ZM28.5 36a2.4 2.4 0 0 1-2.5-2.5 2.4 2.4 0 0 1 2.5-2.5 2.4 2.4 0 0 1 2.5 2.5 2.4 2.4 0 0 1-2.5 2.5Zm0-1c.88 0 1.5-.73 1.5-1.5s-.62-1.5-1.5-1.5a1.5 1.5 0 1 0 0 3ZM9 36v-7h2.2c1.34 0 2.3.87 2.3 2.24 0 1.38-.98 2.2-2.32 2.2H9.69v-1.06h1.42c.73 0 1.27-.36 1.27-1.14 0-.78-.53-1.24-1.28-1.24H10v6H9Zm3.38-3.17L14 36h-1.32l-1.6-3.17h1.3ZM38 26v-5h1v.9c.2-.58.96-.9 1.55-.9.14 0 .34.01.45.03v1.07c-.75-.24-2 .12-2 1V26h-1ZM34.61 26c-1.49 0-2.61-.96-2.61-2.49A2.45 2.45 0 0 1 34.54 21C36 21 37 21.97 37 23.42V24h-4.4v-1H36c0-.68-.78-1.11-1.44-1.11-.68 0-1.55.47-1.56 1.18v.67c0 .8.83 1.37 1.63 1.37.46 0 .95-.17 1.13-.62l1.19.12C36.68 25.63 35.56 26 34.6 26ZM27 28v-7h1v.9c.25-.59.72-.9 1.25-.9 1.16 0 1.75 1.28 1.75 2.6 0 1.3-.59 2.4-1.75 2.4-.72 0-1.09-.52-1.25-.88V28h-1Zm1-4.41c0 .98.34 1.43.98 1.43.71 0 1.02-.65 1.02-1.43 0-.79-.31-1.61-1.02-1.61-.64 0-.98.63-.98 1.6ZM21 29v7h1v-.9c.25.59.72.9 1.25.9 1.16 0 1.75-1.28 1.75-2.6 0-1.3-.59-2.4-1.75-2.4-.72 0-1.09.52-1.25.88V29h-1Zm1 4.41c0-.98.34-1.43.98-1.43.71 0 1.02.65 1.02 1.43 0 .79-.31 1.61-1.02 1.61-.64 0-.98-.63-.98-1.6ZM19.86 21c-.05-.57-.61-.96-1.31-.96-.54 0-1.17.26-1.18.89 0 .81 1.1.94 1.72 1.1.24.06.48.14.7.24.72.32 1.21.92 1.21 1.72 0 1.37-1.24 2.01-2.47 2.01-1.32 0-2.48-.6-2.53-2.02h1.16c.05.72.7.97 1.36.97.59 0 1.3-.29 1.3-.97 0-.36-.21-.58-.56-.73a3.84 3.84 0 0 0-.61-.22c-1.1-.3-2.48-.63-2.48-2.02 0-1.3 1.21-2.01 2.4-2.01 1.16 0 2.4.74 2.43 2h-1.14ZM25 23.86V21h1v5h-1v-.94c-.25.66-.92.94-1.47.94-.89 0-1.53-.74-1.53-1.86V21h1v2.96c0 .63.46 1.02.94 1.02.48 0 1.06-.38 1.06-1.12Z"/></svg>