<!-- by TradingView --><svg width="56" height="56" viewBox="0 0 56 56" xmlns="http://www.w3.org/2000/svg"><path fill="#F0F3FA" d="M0 0h56v56H0z"/><path d="M27.9 12c3.3 1.82 8.6 6.2 8.6 12.5 0 4.86-1.79 7.68-3.23 10.16-1.15 1.96-2.27 3.71-2.27 6.1 0 1.35.8 2.4 1.85 3.24h2.76A8.4 8.4 0 0 0 44 35.6V20.4a8.4 8.4 0 0 0-8.4-8.4h-7.7Z" fill="#2D9C70"/><path d="M19.36 12c5.48.23 8.99 2.52 11.3 5.26.21.25.33.57.34.88 0 .17-.03.34-.09.5-2.3 5.8-12.8 8.56-18.91 9.34V20.4A8.46 8.46 0 0 1 19.36 12ZM12 30.6v5a8.4 8.4 0 0 0 8.4 8.4h7.78c-.09-.73-.18-1.9-.18-3.23 0-2.29 1.14-4.5 2.5-6.9 1.6-2.77 3.5-5.61 3.5-9.21v-.4c-.05-.82-.73-1.28-1.48-1.26-.34 0-.7.12-1.02.35A40.94 40.94 0 0 1 12 30.6Z" fill="#2D9C70"/></svg>