<!-- by TradingView --><svg width="56" height="56" viewBox="0 0 56 56" xmlns="http://www.w3.org/2000/svg"><path fill="#F0F3FA" d="M0 0h56v56H0z"/><path fill-rule="evenodd" d="M45 28a16.84 16.84 0 0 1-4.98 12.03A16.84 16.84 0 0 1 28 45a16.84 16.84 0 0 1-12.02-4.97A16.84 16.84 0 0 1 12.3 21.5c.87-2.08 2.1-3.92 3.7-5.52a16.84 16.84 0 0 1 18.53-3.69c2.07.87 3.91 2.1 5.5 3.7A16.84 16.84 0 0 1 45 28Zm-.45 0a16.39 16.39 0 0 1-4.85 11.7A16.41 16.41 0 0 1 28 44.55a16.39 16.39 0 0 1-11.7-4.85A16.41 16.41 0 0 1 11.46 28a16.39 16.39 0 0 1 4.84-11.7A16.41 16.41 0 0 1 28 11.47a16.39 16.39 0 0 1 11.7 4.85A16.41 16.41 0 0 1 44.55 28ZM27.2 13.46c.15.04.26.08.3.12.06.05.06.12.03.23-.03.1-.14.13-.33.12l-.03-.01-.23-.17c-.04-.02-.07-.02-.1.01l-.18.24c-.05.06-.04.11.02.15.3.22.62.27.95.15a.6.6 0 0 0 .37-.35.8.8 0 0 0 0-.52c-.05-.2-.27-.33-.65-.39a.2.2 0 0 1-.15-.1.16.16 0 0 1 0-.15c.06-.12.23-.12.52 0 .05.03.08.01.1-.04l.06-.27c0-.04 0-.06-.04-.08-.22-.1-.44-.13-.65-.1a.57.57 0 0 0-.47.4.56.56 0 0 0 .12.6c.05.07.17.12.36.16Zm-3.9.56.04.1c.01.07-.01.11-.08.14l-.38.15c-.08.03-.1.09-.07.17l.02.06c.04.09.1.12.2.08l.42-.17c.05-.02.08 0 .1.04l.1.26c.02.06 0 .1-.05.11l-1 .37c-.03.01-.06-.01-.08-.08a351.65 351.65 0 0 0-.61-1.63c-.03-.07-.02-.11.01-.12l1-.38c.05-.02.08 0 .1.05l.1.26c.01.05 0 .08-.05.1l-.44.15c-.09.04-.12.1-.09.2l.02.05c.03.08.09.1.17.08l.39-.14c.06-.02.11 0 .14.06a.6.6 0 0 1 .05.09Zm8.6-.23a.25.25 0 1 1-.5 0 .25.25 0 0 1 .5 0Zm4.12 1.66.24.15c.06.03.1.02.13-.04l.3-.5c.02-.06.07-.07.12-.03l.3.2c.05.03.06.07.02.14a94.8 94.8 0 0 1-.94 1.47c-.05.06-.09.07-.13.04l-.32-.2c-.05-.03-.06-.07-.02-.12l.34-.48c.03-.05.03-.1-.02-.13a3.27 3.27 0 0 0-.49-.3c-.05-.04-.1-.02-.12.03l-.3.5c-.03.06-.07.07-.12.03l-.31-.2c-.04-.03-.05-.07-.01-.14a92.28 92.28 0 0 1 .94-1.47c.04-.06.09-.07.13-.04l.32.2c.05.03.06.07.02.12l-.34.48c-.03.05-.03.1.02.13l.24.16Zm-16.99 1.48c-.2.08-.4.01-.58-.2-.17-.23-.2-.43-.08-.61.12-.18.31-.27.58-.27.03 0 .04-.01.01-.04l-.3-.37c-.02-.02-.04-.03-.07-.02-.38.13-.62.35-.74.68-.13.33-.07.65.18.96.25.31.56.44.9.4.35-.06.62-.25.83-.6v-.06l-.3-.38c-.03-.03-.04-.03-.05 0-.06.27-.18.43-.38.5Zm20.97 16.05a12.87 12.87 0 0 0 0-9.94 12.9 12.9 0 0 0-7.04-7.04 12.87 12.87 0 0 0-9.95 0A12.9 12.9 0 0 0 16 23.03a12.87 12.87 0 0 0 0 9.94 12.9 12.9 0 0 0 7.03 7.04 12.87 12.87 0 0 0 9.95 0 12.9 12.9 0 0 0 7.04-7.04Zm-.85-.35a11.97 11.97 0 0 0 0-9.24 11.97 11.97 0 0 0-6.53-6.54 11.97 11.97 0 0 0-9.25 0 11.97 11.97 0 0 0-6.53 6.54 11.97 11.97 0 0 0 0 9.24 11.97 11.97 0 0 0 6.53 6.54 11.97 11.97 0 0 0 9.25 0 11.97 11.97 0 0 0 6.53-6.54ZM40.9 19.3a1 1 0 0 1-.3.73 1 1 0 0 1-.74.3 1 1 0 0 1-.73-.3 1 1 0 0 1-.3-.73 1 1 0 0 1 .3-.74 1 1 0 0 1 .73-.3 1 1 0 0 1 .74.3c.2.2.3.45.3.74Zm-.77.44c.28-.17.38-.5.23-.75-.15-.24-.5-.3-.77-.14-.27.17-.38.5-.23.75s.5.3.77.14Zm-24.1 1.07c-.17-.08-.3-.17-.42-.28-.05-.04-.04-.06.02-.06h.64c.09 0 .15-.04.2-.11l.15-.27c.03-.05.02-.08-.04-.08h-.75c-.05 0-.08-.03-.07-.08.04-.25-.04-.44-.22-.55-.37-.24-.7-.13-.98.3l-.34.51c-.04.06-.03.1.04.14l1.56.9c.04.03.07.02.1-.02l.15-.27c.04-.06.02-.1-.04-.13Zm-1.18-.85c-.02.03-.02.06.01.08l.32.26c.03.02.05.02.08-.01l.01-.02a.4.4 0 0 0 .1-.23c0-.08-.02-.14-.07-.18l-.04-.02c-.05-.05-.11-.06-.19-.03a.4.4 0 0 0-.2.14l-.02.01Zm26.97 4.59-.15-.54c-.02-.06 0-.1.06-.11l1.22-.36c.09-.03.12-.08.1-.16l-.08-.25c-.03-.08-.08-.12-.17-.09l-1.6.47c-.1.03-.13.1-.1.2l.28.98c.01.03.03.04.06.02.11-.07.23-.1.35-.12.03 0 .04-.01.03-.04Zm-27.36.56c-.06.3-.18.5-.34.6-.16.1-.39.12-.7.05l-1-.21c-.04 0-.06-.03-.06-.07v-.37c0-.08.04-.1.11-.09.4.1.78.18 1.13.25.23.05.38-.04.42-.26.05-.22-.04-.35-.28-.4-.34-.09-.71-.17-1.12-.26-.08-.02-.1-.06-.06-.12l.15-.34c.02-.04.05-.05.08-.04.35.07.68.15 1 .23.31.07.51.19.62.34.1.16.12.39.05.69Zm29.26 2.7c.04.01.05.03.05.07l-.02.76c0 .26-.1.47-.27.65a.83.83 0 0 1-.64.25h-.17a.83.83 0 0 1-.61-.29.93.93 0 0 1-.25-.66l.02-.77c0-.03.02-.05.06-.05l1.83.05Zm-.45.53c.05 0 .08.04.07.09v.1a.5.5 0 0 1-.19.37.5.5 0 0 1-.38.13h-.05a.51.51 0 0 1-.36-.19.5.5 0 0 1-.13-.38v-.1c0-.06.04-.09.1-.08l.94.06ZM24.22 26.9v-8.27c0-.08.04-.13.12-.15.71-.2 1.44-.36 2.18-.47.24-.04.27.03.09.18a1.7 1.7 0 0 0-.52.74 3.1 3.1 0 0 0-.09.94v6.65c0 .04-.05.06-.09.07l-1.63.35c-.04.01-.06 0-.06-.04Zm5.86-.24c.07-.02.1-.06.1-.13l.01-6.79c0-.67-.23-1.17-.67-1.5-.16-.13-.14-.18.06-.15.76.09 1.55.25 2.36.5.04.01.06.04.06.08v9.04c0 .04-.02.15-.07.16l-5.83 1.4c-.04.01-.1.04-.1.07V37.98c0 .02 0 .02-.02.02l-1.63-.4c-.08-.01-.12-.06-.12-.14v-9.3c0-.06.03-.1.09-.1l5.76-1.4Zm-6.64 1.65-1.64.35c-.03.01-.05 0-.05-.04v-8.54c0-.07-.02-.08-.08-.04-.59.4-1.11.88-1.56 1.42-.07.1-.11.24-.11.46v12.5c0 .1.02.16.06.2l1.55 1.44c.1.09.14.07.14-.06v-5.63c0-.06.03-.1.1-.1l1.6-.36c.02 0 .03-.02.03-.04v-1.53c0-.03-.01-.04-.04-.03Zm10.79-.7c0-.07-.04-.1-.11-.08l-1.46.31c-.1.03-.16-.01-.16-.12v-1.36c0-.06.03-.1.1-.1l1.52-.34c.07-.01.1-.06.1-.12v-5.76c0-.05.03-.07.08-.03.58.42 1.1.89 1.57 1.4.09.1.13.21.13.34v12.58c0 .14-.05.26-.15.35l-1.49 1.42a.08.08 0 0 1-.09.02c-.03-.01-.04-.04-.04-.07v-8.44Zm-2.33 1.64-1.54.34c-.04.01-.06.04-.06.08v8.2c0 .08.03.1.1.09l1.54-.35c.04 0 .06-.03.06-.08v-8.2c0-.07-.03-.1-.1-.08Zm-17.61 1a1 1 0 0 1-.3.73 1 1 0 0 1-.74.3 1 1 0 0 1-.74-.3 1 1 0 0 1-.3-.73 1 1 0 0 1 .3-.74 1 1 0 0 1 .74-.3 1 1 0 0 1 .73.3c.2.2.3.45.3.74Zm-1 .52c.33-.03.57-.28.55-.57-.02-.28-.3-.5-.63-.47-.33.03-.57.28-.55.57.03.28.3.5.63.47Zm29.53 2.47-1.68-.6a.09.09 0 0 0-.11.05l-.12.33c-.02.05 0 .1.05.12l1.68.6c.05.02.1 0 .12-.05l.12-.33c.01-.05-.01-.1-.06-.12ZM15 34.82c.01-.06.08-.1.2-.12.09-.02.17.06.24.25v.03l-.04.28c0 .04.01.07.05.08l.3.06c.07.01.11-.02.13-.1a.98.98 0 0 0-.3-.9.6.6 0 0 0-.47-.18.78.78 0 0 0-.47.22c-.15.14-.17.4-.05.76a.2.2 0 0 1-.03.18.16.16 0 0 1-.14.07c-.13 0-.2-.16-.22-.46 0-.06-.03-.08-.08-.07l-.27.06c-.04 0-.06.03-.06.07.01.24.08.45.2.62.14.2.33.28.57.25.24-.02.4-.15.49-.37.03-.08.02-.21-.02-.4a.8.8 0 0 1-.03-.33Zm24.53 2.76c-.12 0-.23-.02-.33-.05-.15-.05-.17-.03-.04.07l.84.67c.03.03.04.06 0 .09l-.23.3c-.03.04-.06.04-.1.01l-1.42-1.13c-.04-.03-.05-.07-.01-.11l.21-.28a.15.15 0 0 1 .13-.06c.4 0 .73.01 1 .03.12 0 .23.03.34.06.15.04.16.02.04-.08l-.85-.67c-.03-.02-.03-.05 0-.09l.23-.3c.03-.03.06-.04.1 0l1.42 1.12c.05.03.05.07.02.11l-.22.28a.15.15 0 0 1-.13.06c-.4 0-.72 0-1-.03Zm-22.06 2.27a522.75 522.75 0 0 0 1.21-1.27c.05-.05.07-.09.04-.11l-.77-.74c-.04-.04-.08-.04-.12 0l-.19.2c-.03.04-.03.08 0 .11l.35.32c.07.06.07.13 0 .2l-.04.05c-.06.07-.12.07-.18.01l-.3-.28c-.06-.05-.1-.05-.16-.01a.74.74 0 0 0-.15.15c-.04.06-.03.11.02.16l.3.3c.05.05.05.11 0 .18l-.05.04c-.07.07-.14.07-.21 0l-.33-.33c-.04-.03-.07-.03-.1 0l-.2.2c-.05.04-.05.08 0 .12l.77.74c.02.02.06 0 .11-.04Zm17.4 1.05c.1.03.2-.02.33-.17.05-.06.1-.06.14.01l.13.23c.03.05.02.1-.03.12l-.76.44c-.05.03-.08.02-.11-.03-.2-.33-.25-.64-.14-.93.1-.29.33-.5.7-.62.36-.13.69-.06.98.2a1.03 1.03 0 0 1 .21 1.29c-.08.14-.21.26-.4.37-.18.1-.36.17-.53.19-.06 0-.18-.03-.36-.1-.07-.03-.09-.07-.04-.13l.2-.26a.11.11 0 0 1 .13-.04c.18.04.35 0 .5-.13.11-.1.16-.24.13-.41a.79.79 0 0 0-.2-.43c-.16-.17-.35-.22-.55-.16a.6.6 0 0 0-.4.42c-.02.07 0 .11.07.14Zm-13.05.34c0 .07.03.07.07.02.09-.12.16-.27.21-.45.02-.07.07-.09.13-.06l.29.12c.04.02.06.05.04.1l-.7 1.65c-.03.07-.08.09-.14.06l-.54-.27c-.47-.23-.62-.54-.43-.94.09-.2.26-.29.52-.28.06 0 .08-.03.07-.09l-.1-.74c0-.05.02-.07.08-.05l.29.12c.08.04.12.1.13.18l.08.63Zm-.62.68c-.05-.03-.05-.07-.03-.11l.09-.13c.1-.15.2-.2.3-.13l.06.03c.1.07.1.18 0 .34l-.08.12c-.03.05-.07.05-.11.03l-.23-.15Zm9.21.31c-.02.12 0 .19.06.23.05.03.16.06.32.07.19.02.32.06.38.1.18.16.25.36.2.6a.57.57 0 0 1-.41.45c-.21.06-.43.06-.66 0-.04-.02-.05-.04-.05-.08l.03-.28c0-.05.04-.07.09-.06.3.09.47.07.51-.06a.16.16 0 0 0-.03-.16.2.2 0 0 0-.15-.07c-.39 0-.62-.1-.7-.3a.78.78 0 0 1-.07-.51.6.6 0 0 1 .32-.4c.3-.16.62-.15.96.02.06.03.08.08.04.15l-.15.26c-.02.03-.05.04-.1.02l-.24-.13h-.03c-.2 0-.3.06-.32.15Zm-4.34.55a.25.25 0 1 1-.5 0 .25.25 0 0 1 .5 0Z" fill="#BA0A10"/></svg>