<!-- by TradingView --><svg width="56" height="56" viewBox="0 0 56 56" xmlns="http://www.w3.org/2000/svg"><path fill="#F0F3FA" d="M0 0h56v56H0z"/><path d="M24 14.22c0-1.23 1-2.22 2.22-2.22h13.56c1.23 0 2.22 1 2.22 2.22v13.56c0 1.23-1 2.22-2.22 2.22H26.22C24.99 30 24 29 24 27.78V14.22Z" fill="#B7DA9A"/><path d="M21 28.22c0-1.23 1-2.22 2.22-2.22h13.56c1.23 0 2.22 1 2.22 2.22v13.56c0 1.23-1 2.22-2.22 2.22H23.22C21.99 44 21 43 21 41.78V28.22Z" fill="#D1E7C0"/><path d="M39 30H26.22C24.99 30 24 29 24 27.78V26h12.78c1.23 0 2.22 1 2.22 2.22V30Z" fill="#A0CF80"/><path d="M13 21.22c0-1.23 1-2.22 2.22-2.22h13.56c1.23 0 2.22 1 2.22 2.22v13.56c0 1.23-1 2.22-2.22 2.22H15.22C13.99 37 13 36 13 34.78V21.22Z" fill="#70BE44"/></svg>