<!-- by TradingView --><svg width="56" height="56" viewBox="0 0 56 56" xmlns="http://www.w3.org/2000/svg"><path fill="#F0F3FA" d="M0 0h56v56H0z"/><path d="M39.87 25H16.54l.09-.91c0-.02 0-.02-.02-.02l-6.6-1.83-.01-.01.02-.07h.01l6.6 1.82h.02a7.33 7.33 0 0 1 .7-2.05l-3.97-2.26v-.02l.02-.05h.02l3.97 2.26.02-.01a7 7 0 0 1 1.63-1.97v-.01l-5.42-4.69v-.01l.04-.05h.02l5.43 4.7h.01a11.6 11.6 0 0 1 2.11-1.37v-.01l-2.32-3.2v-.01l.05-.04h.02l2.33 3.21h.01a13.62 13.62 0 0 1 1.93-.78l-2.88-6.93v-.02l.06-.02h.02l2.88 6.95a15.66 15.66 0 0 1 2.25-.53l-1-4.01v-.02l.06-.01h.02l1 4.03.01.01a16.62 16.62 0 0 1 2.03-.19v-6.87l.01-.01h.26v6.88l.02.02a16.79 16.79 0 0 1 2.12.12l1.35-3.46H31.53c.01.01.02.02.01.03l-1.34 3.44v.01a14.6 14.6 0 0 1 2.98.71l3.9-5.91h.01l.05.02v.02l-3.87 5.9v.01a11.77 11.77 0 0 1 2.07.97l1.67-2.84h.02l.05.03v.01l-1.67 2.85v.02a9.77 9.77 0 0 1 1.88 1.46l5.15-4.78h.02l.04.05v.02l-5.16 4.77v.01a9.86 9.86 0 0 1 1.37 1.76l3.87-2h.01l.03.06v.01l-3.86 2a12.01 12.01 0 0 1 .76 1.54l6.44-2.5.02.01.02.06-.01.02-6.44 2.48v.02l.32 1.18Z" fill="#F60"/><path d="m14.89 24.72-.07.01v.03c.29.92.7 1.8 1.22 2.64a11.88 11.88 0 0 0 3.87 3.93l1.58 1.07c.6.4 1.15.83 1.67 1.29.87.76 1.6 1.3 2.2 2.31-.02 0 0 .01 0 0h5.99c.33-.65.72-.9 1.16-1.49a7.64 7.64 0 0 1 2.2-1.96c.28-.19.8-.5 1.55-.93a11.35 11.35 0 0 0 2.31-1.76 13.5 13.5 0 0 0 1.85-2.42c.5-.83.94-1.7 1.32-2.58l.4-.2c.28-.12.57-.17.87-.11.43.08.84.26 1.02.69.1.25.1.56.05.83-.03.2-.08.4-.14.6l-.35 1.24a16.8 16.8 0 0 1-2.46 5.12c-1.46 1.99-2.82 3.38-5.13 4.18-.01 0 0-.01 0 0V44H20v-6.77c-1.16-.74-1.81-1.48-2.87-2.37-1.11-.94-2.17-2-3.08-3.16a11.67 11.67 0 0 1-1.75-3.04 6.3 6.3 0 0 1-.32-1.2 3.85 3.85 0 0 1-.02-1.07c.04-.35.15-.67.33-.96.28-.45.76-.74 1.27-.83.24-.05.5-.05.76-.01.19.03.38.07.57.13Z" fill="#F60"/><path d="M14.82 25h26.92s.01 0 0 0c-.38.9-.82 1.61-1.32 2.44a13.5 13.5 0 0 1-2.26 2.82c-.57.52-1.24.97-1.9 1.36-.75.43-1.27.74-1.56.93a7.64 7.64 0 0 0-2.19 1.97c-.44.58-.83.83-1.16 1.48h-6c-.01 0 0 .01 0 0-.6-1.02-1.32-1.55-2.2-2.31-.51-.46-1.07-.9-1.66-1.3l-1.58-1.06a11.88 11.88 0 0 1-3.87-3.94c-.52-.83-.93-1.71-1.23-2.63V25c.02-.01-.03-.25 0-.24V25Z" fill="#0CF"/><path d="M23.54 26.7a.48.48 0 0 0-.38.04c-.61.39-1.3.87-2.05.73a1.7 1.7 0 0 1-.87-.46c-.07-.06-.19-.2-.29-.26-.2-.1-.4-.1-.6.02a1.57 1.57 0 0 0-.69 1.04h-.03v-.02c.03-.21.12-.41.23-.6.23-.38.7-.75 1.14-.47l.24.22c.45.44 1.02.61 1.62.43.27-.08.53-.2.8-.38l.51-.31c.17-.1.41-.04.59.02l.47.22.74.38c.23.12.45.22.65.28.17.06.4.1.58.04a.82.82 0 0 0 .22-.14l.45-.34a2.04 2.04 0 0 1 1.54-.38c.16.05.33.12.51.2l.81.35c.3.1.64.18.95.15a4.62 4.62 0 0 0 .86-.25l.91-.38c.13-.05.23-.08.3-.09.07 0 .14 0 .23.02.4.1.74.37 1.1.63.12.09.26.17.41.25.41.2.9.1 1.31-.06.21-.08.47-.2.78-.36a2.49 2.49 0 0 1 .5-.17h.16l.17.03a2.26 2.26 0 0 1 1.4.92h-.01c-.01.02-.02.02-.03 0a2.9 2.9 0 0 0-.7-.62 1.68 1.68 0 0 0-.85-.27.4.4 0 0 0-.13 0c-.14.01-.27.05-.39.11l-.6.3c-.26.11-.5.2-.76.25a1.4 1.4 0 0 1-1.16-.25l-.6-.42c-.2-.13-.4-.23-.62-.29-.17-.05-.3 0-.5.07-.43.17-.94.43-1.43.57-.19.05-.4.08-.6.07-.63-.05-1.22-.39-1.77-.62l-.3-.1a1.97 1.97 0 0 0-1.37.3l-.63.5c-.16.12-.38.12-.56.08a3.28 3.28 0 0 1-.82-.32l-.89-.45c-.2-.1-.38-.18-.55-.21ZM20.49 29.5h.01c.26-.24.55-.4.88-.49.34-.09.68-.14 1.04-.15.36 0 .7.04 1 .13l.52.17c.32.1.64.1.97 0 .44-.12.81-.33 1.24-.58.2-.11.39-.2.58-.23a.5.5 0 0 1 .24 0l.2.12c.25.2.55.33.9.41.77.17 1.53.17 2.3 0 .22-.06.44-.15.63-.28l.26-.16a.59.59 0 0 1 .57.05 6 6 0 0 1 .46.32 2.62 2.62 0 0 0 2.1.48c.44-.08.9-.22 1.32-.4a.84.84 0 0 1 .3-.08c.12 0 .23 0 .3.04.22.07.42.19.62.34a7.5 7.5 0 0 1 .5.45v.02h-.01a.01.01 0 0 1-.02 0 3.86 3.86 0 0 0-1.04-.74.83.83 0 0 0-.35-.06.9.9 0 0 0-.29.08 5.13 5.13 0 0 1-1.59.43 2.56 2.56 0 0 1-1.8-.46c-.18-.14-.36-.29-.57-.4a.53.53 0 0 0-.48-.03l-.25.17c-.18.12-.38.2-.59.26-.6.15-1.24.18-1.87.11a2.8 2.8 0 0 1-1.5-.57c-.07-.05-.2-.07-.3-.06-.14.02-.28.07-.42.14l-.58.32a4.3 4.3 0 0 1-.75.34c-.3.1-.62.14-.91.07-.14-.03-.3-.09-.52-.16a3.72 3.72 0 0 0-2.12-.06 2.02 2.02 0 0 0-.97.52l-1-.54-.01-.01v-.03l.01-.01h.02l.97.52ZM25.82 35.03c.08.05.16.1.26.13.12.03.23.01.33-.07l.2-.15a3 3 0 0 1 .94-.47c.32-.1.64-.1.97.01.12.04.3.1.57.17.42.12.83.14 1.24.06a3.29 3.29 0 0 1 1.01-.04v.02H31c-.15 0-.31 0-.5.04l-.3.05c-.4.05-.8.02-1.18-.1-.31-.1-.52-.15-.64-.18a1.45 1.45 0 0 0-.78.01c-.3.09-.55.2-.78.35-.14.08-.28.2-.4.3a.4.4 0 0 1-.43.02 2.18 2.18 0 0 1-.34-.19 11.27 11.27 0 0 1-.59-.44v-.01l.01-.01a.02.02 0 0 1 .03 0c.25.19.5.36.72.5ZM28.01 41.5c-.14.16-.26.27-.35.36-.38.36-.82.72-1.32.85-.25.07-.49.05-.73-.06a2.48 2.48 0 0 1-.41-.23c-.13-.08-.25-.22-.2-.4a.5.5 0 0 1 .11-.19c.27-.31.5-.55.71-.71a10.85 10.85 0 0 0 .56-.45l-.03.3c-.02.2-.03.4-.02.6 0 .14.02.3.08.41.1.2.3 0 .37-.11.19-.27.3-.58.33-.92.02-.25 0-.48-.1-.72-.1-.2-.21-.39-.15-.65.05-.26.18-.5.33-.72a52.23 52.23 0 0 0 .9-1.46c.25.43.54.92.87 1.45.08.13.12.25.14.37.04.24-.14.41-.34.53a.28.28 0 0 1-.16.04c-.14-.01-.24-.12-.33-.23l-.22-.28c-.07-.07-.15-.12-.2 0-.08.16-.11.4-.13.6a1.32 1.32 0 0 0 .28.9h.02c.12-.02.23-.02.34 0 .1 0 .17.11.21.23a8.17 8.17 0 0 0 .19.43l.86-.33-.31-1.34c.6.63 1.12 1.15 1.62 1.76.11.14.26.33.32.5.06.17.07.35.03.52-.07.3-.42.37-.67.33-.2-.04-.36-.3-.44-.47a24.37 24.37 0 0 1-.27-.6c-.09-.16-.22-.2-.4-.12-.1.04-.22.12-.37.23a.6.6 0 0 0-.16.18c-.06.11-.12.26-.2.37-.16.22-.35.15-.55.04a.47.47 0 0 1-.23-.32 1.22 1.22 0 0 1 0-.5 2.54 2.54 0 0 0 .02-.18Z" fill="#fff"/></svg>