<!-- by TradingView --><svg width="56" height="56" viewBox="0 0 56 56" xmlns="http://www.w3.org/2000/svg"><path fill="#F0F3FA" d="M0 0h56v56H0z"/><path d="M5 19v-1h.96c.03 0 .04.02.04.04v.92l-.01.03-.04.01H5Z" fill="#1440DD"/><path d="M8.1 19c-.05 0-.1 0-.1.04V25h-.94c-.04 0-.06-.02-.06-.06v-6.93l.02-.01h2.97v.02l.01.91c0 .02 0 .03-.02.04 0 .01-.02.03-.04.03H8.1ZM15.96 18h-.92c-.02 0-.04.02-.04.04v.92c0 .02.02.04.04.04h.92c.02 0 .04-.02.04-.04v-.92c0-.02-.02-.04-.04-.04ZM30.96 18h-.92c-.02 0-.04.02-.04.04v.92c0 .02.02.04.04.04h.92c.02 0 .04-.02.04-.04v-.92c0-.02-.02-.04-.04-.04ZM14.06 24.88c0 .07-.04.12-.11.12h-.73c-.08 0-.12-.05-.13-.11l-.08-.4c0-.04-.03-.05-.07-.02-.5.4-1.03.58-1.6.52-1.36-.16-2.28-1.14-2.28-2.5 0-1.34.92-2.32 2.29-2.48.56-.06 1.1.11 1.6.52.03.03.05.02.06-.02l.08-.4c.01-.06.06-.11.13-.11h.73c.07 0 .11.05.1.12v4.76Zm-2.47-.78c.86 0 1.53-.76 1.53-1.6 0-.84-.67-1.6-1.53-1.6S10 21.67 10 22.5c0 .62.43 1.22 1 1.47.2.08.4.13.6.13ZM20.78 20.79a.04.04 0 0 0 .07 0c.24-.37.56-.6.94-.72.81-.23 1.74.1 2.06.93.1.26.15.67.15 1.23a804.99 804.99 0 0 0-.02 2.75.06.06 0 0 1-.05.02h-.9c-.04 0-.03-.02-.03-.06v-3.08c0-.52-.25-.82-.72-.9-.32-.06-.62.04-.9.3-.41.38-.38.75-.38 1.4v2.28c0 .04 0 .06-.04.06h-.92c-.04 0-.04-.02-.04-.06V21.8c0-1.22-1.56-1.03-1.9-.12-.05.14-.1.35-.1.65v2.61c0 .04 0 .06-.03.06h-.93l-.03-.01-.01-.03V20.1c0-.07.03-.09.1-.09h.74c.06 0 .1.02.11.08l.07.42c0 .02 0 .03.02.03a.06.06 0 0 0 .05.02l.03-.02c.66-.83 2.14-.64 2.66.26ZM25.73 22.82c.08.75.49 1.17 1.22 1.25.6.07 1.05-.15 1.32-.67 0-.02.02-.02.04-.02l.79.39a.03.03 0 0 1 .01.03 2.3 2.3 0 0 1-1.64 1.17c-1.89.3-3.12-1.46-2.65-3.22.15-.59.47-1.05.96-1.37a2.22 2.22 0 0 1 2.96.44c.4.52.58 1.13.51 1.83a.13.13 0 0 1-.12.1h-3.34c-.04 0-.06.03-.06.07Zm.12-.96h2.34v-.02a.73.73 0 0 0-.09-.35.93.93 0 0 0-.25-.3 1.48 1.48 0 0 0-.83-.26h-.01c-.31 0-.6.1-.83.27a.82.82 0 0 0-.34.64v.02h.01ZM15.95 20h-.9a.05.05 0 0 0-.05.05v4.9c0 .03.02.05.05.05h.9c.03 0 .05-.02.05-.05v-4.9a.05.05 0 0 0-.05-.05ZM30.96 20h-.92a.04.04 0 0 0-.04.04v4.92c0 .02.02.04.04.04h.92c.02 0 .04-.02.04-.04v-4.92a.04.04 0 0 0-.04-.04Z"/><path d="M5 28v-1h.94c.04 0 .06.02.06.05v.9c0 .03-.02.05-.05.05H5Z" fill="#1440DD"/><path d="M7.97 34h-.93L7 33.99 7 33.96v-6.92l.01-.03.03-.01h2.92l.03.01.01.03v.93l-.01.02-.03.01H8.04l-.02.02-.02.03v5.94l-.03.01ZM20 29.52c0 .07 0 .07.04.02.8-1 2.37-.57 2.81.58.1.26.15.7.15 1.31v2.52c0 .03-.02.05-.05.05h-.88c-.03 0-.07-.02-.07-.05v-2.58c0-.5.04-1.1-.48-1.34-.75-.33-1.5.2-1.52 1.08v2.85l-.04.03-.02.01h-.9l-.03-.01-.01-.03v-6.9c0-.04.02-.06.05-.06h.88c.03 0 .07.02.07.05v2.47ZM36.06 34h-.9c-.04 0-.06-.02-.06-.06-.07-.54-.1-.86-.1-.98v-5.91c0-.03.02-.05.05-.05h.93c.02 0 .02.01.02.04v5.8c0 .37.07.75.1 1.1 0 .04 0 .06-.04.06Z"/><path d="M9.79 31.76c-.05 0-.07.02-.06.06.08.75.48 1.17 1.21 1.25.61.07 1.05-.15 1.32-.67.01-.02.02-.02.04-.01l.8.38a.03.03 0 0 1 0 .02v.02a2.3 2.3 0 0 1-1.64 1.16c-1.89.3-3.11-1.46-2.65-3.22.16-.59.48-1.05.96-1.37a2.22 2.22 0 0 1 2.96.44c.41.53.59 1.14.52 1.83a.13.13 0 0 1-.13.11H9.8Zm.05-.9h2.34a.01.01 0 0 0 0-.01.75.75 0 0 0-.08-.36.93.93 0 0 0-.26-.3 1.44 1.44 0 0 0-.83-.26H11c-.3 0-.6.1-.82.27a.83.83 0 0 0-.34.65v.02h.01ZM14.73 31.5c0 .74.39 1.4 1.14 1.54.68.14 1.2-.1 1.57-.73h.03l.73.42c.03.02.04.04.02.08-1.26 2.14-4.48 1.2-4.48-1.3 0-2.52 3.2-3.46 4.48-1.32.01.03 0 .06-.03.08l-.72.42h-.03c-.38-.63-.9-.87-1.57-.73-.76.15-1.14.8-1.14 1.54ZM25.03 29.55a1.5 1.5 0 0 1 1.68-.46c.85.26 1.28.9 1.29 1.91a401.16 401.16 0 0 1-.01 2.99h-.93c-.04 0-.06-.01-.06-.05v-2.97c0-.23-.06-.45-.17-.64-.25-.42-.85-.46-1.22-.28-.53.26-.61.72-.61 1.36a27501.19 27501.19 0 0 0-.01 2.58l-.03.01h-.9c-.04 0-.06-.02-.06-.06V29.1c0-.07.03-.11.1-.11h.68c.07 0 .11.04.13.11l.07.43c0 .04.02.04.05.01ZM34 31.5a2.5 2.5 0 1 1-5 0 2.5 2.5 0 0 1 5 0Zm-1-.23c0-.7-.67-1.27-1.38-1.27h-.25c-.72 0-1.37.55-1.37 1.27v.47c0 .72.66 1.26 1.38 1.26h.25c.72 0 1.37-.55 1.37-1.27v-.46ZM42 31.5a2.5 2.5 0 1 1-5 0 2.5 2.5 0 0 1 5 0Zm-1-.23c0-.7-.67-1.27-1.38-1.27h-.25c-.72 0-1.37.55-1.37 1.27v.47c0 .72.66 1.26 1.38 1.26h.25c.72 0 1.37-.55 1.37-1.27v-.46ZM43.6 32.68a1.87 1.87 0 0 1-.88-1.55c0-.49.14-.92.42-1.29.64-.85 2.16-1.22 2.94-.31h.02a.03.03 0 0 0 .03 0v-.01l.15-.36c0-.04.04-.06.08-.06h.54c.07 0 .1.04.1.1v1.81c0 .72-.3 1.28-.89 1.67-.03.02-.03.04 0 .06.72.41 1 1.04.84 1.87-.09.45-.5.9-.95 1.12-.71.34-1.44.36-2.18.05-.57-.24-1-.75-1.08-1.36-.09-.72.2-1.28.86-1.68.03-.02.03-.04 0-.06Zm1.26-.42a1.14 1.14 0 0 0 .81-.34 1.17 1.17 0 0 0 .26-1.28 1.17 1.17 0 0 0-.63-.64 1.14 1.14 0 0 0-1.5.64 1.19 1.19 0 0 0 .62 1.53c.14.06.29.09.44.09Zm1.16 1.91c0-.25-.13-.5-.34-.68a1.28 1.28 0 0 0-.82-.28c-.3 0-.6.1-.82.28a.89.89 0 0 0-.34.68c0 .26.13.5.34.68.22.18.51.28.82.28.3 0 .6-.1.82-.28a.89.89 0 0 0 .34-.68ZM51 29h.98a.03.03 0 0 1 .02.03v.01l-2.56 6.94a.03.03 0 0 1-.03.02h-.98a.03.03 0 0 1-.02-.03v-.01l1-2.69v-.02l-1.62-4.2a.03.03 0 0 1 .02-.05h.96a.03.03 0 0 1 .03.02l1.08 2.81.01.02a.03.03 0 0 0 .04 0v-.02l1.04-2.8A.03.03 0 0 1 51 29Z"/></svg>