<!-- by TradingView --><svg width="56" height="56" viewBox="0 0 56 56" xmlns="http://www.w3.org/2000/svg"><path fill="#F0F3FA" d="M0 0h56v56H0z"/><path d="M25.51 43C20.68 42.56 11 38.86 11 27.65 11 18.54 18.26 13 25.51 13c6.03 0 11.35 5.13 12.98 11H33.8c-1.62-4.15-5.89-6-8.7-6-3.52 0-9.72 2.64-9.72 9.65 0 7 4.07 11.63 10.12 15.35Zm8.58-12c-.81 3.47-2.73 5.72-3.85 6.53 3.2-.11 7.09-1.86 8.35-6.53h-4.5Z" fill="url(#a)"/><path d="M44.72 31c-1.28 7.52-7.95 12-14.63 12C22.67 43 16 35 16 28.35c0-7.22 5.31-9.74 9.26-9.88-1.48 1.05-4.63 4.5-4.63 9.88 0 6.73 6.26 9.65 9.87 9.65 3.11 0 8.25-1.96 9.6-7h4.62Zm-.34-7c-2.16-7.85-10.04-10.62-14.29-11 4.82 2.89 8.4 6.32 9.76 11h4.53Z" fill="url(#b)"/><path fill="#086FB7" d="M34 25h11v1H34zM34 27h11v1H34zM34 29h11v1H34z"/><defs><linearGradient id="a" x1="37.31" y1="20.78" x2="10.99" y2="33.09" gradientUnits="userSpaceOnUse"><stop stop-color="#08315E"/><stop offset="1" stop-color="#089DD6"/></linearGradient><linearGradient id="b" x1="43.03" y1="20.15" x2="18.64" y2="37.7" gradientUnits="userSpaceOnUse"><stop stop-color="#83CFE7"/><stop offset="1" stop-color="#08B7EA"/></linearGradient></defs></svg>