<!-- by TradingView --><svg width="56" height="56" viewBox="0 0 56 56" xmlns="http://www.w3.org/2000/svg"><path fill="#F0F3FA" d="M0 0h56v56H0z"/><path d="m28.18 20.29.53 1.58c-2.1-.2-3.8.38-5.12 1.77a8.06 8.06 0 0 0-1.28 2c-.4-.68-.73-1.08-1-1.2.2.02.25-.06.16-.25l-3.67-8.01c-1.07-2.34 1.21-4.84 3.66-4.02.55.18 1.12.67 1.7 1.44a148.6 148.6 0 0 1 4.54 6.47c.08.12.24.2.48.22Z" fill="#E8B444"/><path d="m28.7 21.87-.52-1.58a477.2 477.2 0 0 1 4.67-6.62c.32-.46.73-.85 1.21-1.19 1.24-.86 2.8-.5 3.72.59.77.9.93 1.9.5 3.02-.23.58-1.12 2.55-2.67 5.93-.18.4-.5.57-.93.53l-5.97-.68Z" fill="#85B043"/><path d="M37.02 43.57c-.97.57-1.95.57-2.94.02-.94-.53-1.73-1.98-2.23-2.65a98.9 98.9 0 0 1-3.56-5.09.33.33 0 0 0-.43-.11.33.33 0 0 0-.12.1c-.95 1.39-2.34 3.36-4.17 5.92a6.94 6.94 0 0 1-1.63 1.84c-2.31 1.3-5.4-1.06-4.23-3.65 2.1-4.64 4.19-9.25 6.24-13.85a4.3 4.3 0 0 1 1.75-2.06c.75-.42 1.63-.59 2.65-.48 5.02.52 10.07 1.02 15.15 1.5 2.84.28 3.35 4.13 1.07 5.48-.36.21-1.16.38-2.41.5-3.14.3-5.55.52-7.23.65a.33.33 0 0 0-.26.48c.72 1.39 1.6 3.26 2.64 5.62.34.76 1.2 2.17 1.19 3.25 0 1.13-.5 1.97-1.48 2.53Z" fill="#D25A35"/><path d="M21.3 24.44c.28.12.62.52 1.01 1.2l-2.4 5.52a.75.75 0 0 1-.8.46c-2.26-.28-4.34-.48-6.21-.62-3-.22-4.05-4.07-1.33-5.55.4-.22 1.07-.36 1.99-.43 1.89-.15 4.21-.38 6.96-.68.12-.01.39.02.78.1Z" fill="#4895D0"/></svg>