<!-- by TradingView --><svg width="56" height="56" viewBox="0 0 56 56" xmlns="http://www.w3.org/2000/svg"><path fill="#F0F3FA" d="M0 0h56v56H0z"/><path d="M34.06 10.14a3.05 3.05 0 0 1 3.8 2.16c.1.4.14.98.14 1.76v7.4c0 .89-.1 1.55-.3 2-.33.7-.88 1.22-1.66 1.54-.74.3-2.1.83-4.08 1.58.02-1.32.03-2.6.02-3.84-.01-.8-.34-1.36-.99-1.66l-5.98-2.38a95.8 95.8 0 0 0-1.93-.76c-1.21-.46-1.98-.9-1.57-2.24.03-.1.14-.25.32-.46.12-.15.23-.3.3-.47l7.78-3.03c2.12-.85 3.5-1.38 4.15-1.6Z" fill="url(#a)"/><path d="M22.13 14.77c-.07.17-.18.32-.3.47-.18.21-.29.36-.32.46-.41 1.34.36 1.78 1.57 2.24l1.93.76 5.98 2.38c.65.3.98.86.99 1.66 0 1.23 0 2.5-.02 3.81l-6.76 2.68-.29.1c-.91.32-1.81.68-2.69 1.08-.75.34-1.01.93-.78 1.77.1.33.3.58.6.75.05.04.07.08.05.15-.02.06-.06.1-.12.1-1.02-.33-1.66-.59-1.93-.75A4.06 4.06 0 0 1 18 28.79V18.7c-.01-2.7 2.06-3.2 4.12-3.94Z" fill="url(#b)"/><path d="M32 26.55v8c0 1.26-1 2.08-2.2 1.63-1.56-.57-3.11-1.16-4.64-1.77l-3.19-1.23c.06 0 .1-.04.12-.1.02-.07 0-.11-.05-.15a1.2 1.2 0 0 1-.6-.75c-.23-.84.03-1.43.78-1.77.88-.4 1.78-.76 2.69-1.09l.29-.1 6.8-2.67Z" fill="url(#c)"/><path d="M18.45 34.5c.46-.49 1.02-.62 1.7-.4l1.46.53.48.18 3.5 1.32c1.57.6 3.15 1.19 4.72 1.8.98.37 1.7.66 1.68 1.87l.01 3.98c.01 1.13-.23 2.03-1.4 2.2-.37.05-.77-.01-1.2-.19l-3.19-1.3-4-1.55c-1.8-.68-3.26-1.06-3.99-2.99a5.67 5.67 0 0 1-.22-2.04v-2.08c0-.57.15-1.02.45-1.33Z" fill="url(#d)"/><defs><linearGradient id="a" x1="37.28" y1="15.38" x2="24.68" y2="18.19" gradientUnits="userSpaceOnUse"><stop stop-color="#54A278"/><stop offset="1" stop-color="#4FA491"/></linearGradient><linearGradient id="b" x1="18.09" y1="24.92" x2="29.73" y2="23.98" gradientUnits="userSpaceOnUse"><stop stop-color="#42356A"/><stop offset="1" stop-color="#30648B"/></linearGradient><linearGradient id="c" x1="22.49" y1="31.59" x2="31.31" y2="33.77" gradientUnits="userSpaceOnUse"><stop stop-color="#496491"/><stop offset="1" stop-color="#5AA4BF"/></linearGradient><linearGradient id="d" x1="19.35" y1="37.66" x2="29.45" y2="42.99" gradientUnits="userSpaceOnUse"><stop stop-color="#495386"/><stop offset="1" stop-color="#5893B3"/></linearGradient></defs></svg>