<!-- by TradingView --><svg xmlns="http://www.w3.org/2000/svg" width="56" height="56"><path fill="#F0F3FA" d="M0 0h56v56H0z"/><path d="M38 20a2 2 0 114 0 2 2 0 01-4 0z" fill="#D3222A"/><path d="M21.4 21.49C27.97 15.89 35.64 12 40.83 12c5.2 0 6.45 3.9 3.84 9.49 1.24-4.24-.76-7.12-5.79-7.12-5.02 0-11.76 2.88-17.5 7.12zm-4.3 20.14c-5.02 0-7.02-2.88-5.78-7.11C8.71 40.1 9.97 44 15.15 44c5.2 0 13.44-3 20.03-8.6-5.74 4.25-13.05 6.23-18.07 6.23z" fill="#A3AEAC"/><path d="M31.42 26l-1.92 7.58c-.06.23-.28.42-.5.42h-4c-.22 0-.35-.2-.3-.42L26.63 26h-4.77l-1.94 7.58c-.06.23-.28.42-.5.42h-4.06c-.21 0-.34-.19-.28-.42L17 26h-3.7c-.22 0-.34-.19-.29-.42l.53-2.16c.06-.23.28-.42.5-.42h21.82c.22 0 .35.19.29.42l-.53 2.16c-.05.23-.28.42-.5.42h-3.7zm9.28-3h-3.33c-.22 0-.44.19-.5.42l-2.52 10.16c-.06.23.07.42.29.42h3.33c.22 0 .44-.2.5-.42l2.52-10.16c.05-.23-.07-.42-.29-.42z" fill="#475254"/></svg>