<!-- by TradingView --><svg width="56" height="56" viewBox="0 0 56 56" xmlns="http://www.w3.org/2000/svg"><path fill="#F0F3FA" d="M0 0h56v56H0z"/><path d="M28.13 13.77A14.28 14.28 0 0 0 13.8 28c0 7.86 6.42 14.23 14.34 14.23 6.88 0 12.64-4.81 14.02-11.23H45a17.1 17.1 0 0 1-16.87 14A17.07 17.07 0 0 1 11 28c0-9.39 7.67-17 17.13-17A17.1 17.1 0 0 1 45 25h-2.85a14.32 14.32 0 0 0-14.02-11.23ZM19.36 37.9l-3.39-5.64L24.4 18.3l4.19 6.66 3.92-6.66 7.67 13-4.35 6.6-6.17-10.33L26.87 32h4.24l-3.22 5.9-6.33-10.33L18.7 32h3.81l-3.16 5.9Z" fill="#9D7B4B"/></svg>