<!-- by TradingView --><svg width="56" height="56" viewBox="0 0 56 56" xmlns="http://www.w3.org/2000/svg"><path fill="#F0F3FA" d="M0 0h56v56H0z"/><path d="M41 12v5h-.52a4.88 4.88 0 0 0-1.87-2.98A4.61 4.61 0 0 0 35.52 13c-1.19 0-2.52.45-2.52 1.88 0 1.82 2.61 2.7 3.91 3.27 2.24.98 5.09 2.33 5.09 5.17 0 3.12-3.28 4.68-6 4.68l-.5-.79c1.43 0 3.5-.47 3.5-2.29 0-1.77-2.22-2.63-3.52-3.2a20.74 20.74 0 0 1-3.36-1.75C30.76 19.01 30 17.83 30 16.4c0-2.8 2.76-4.4 5.3-4.4a7.5 7.5 0 0 1 3.05.69c.57.24.97.36 1.2.36.73 0 .91-.4 1.07-1.05H41ZM17 33v4.2c0 1.8.62 2.36 2.48 2.36V40H11v-.44c1.85 0 2-.56 2-2.37V26.81c0-1.81-.15-2.37-2-2.37V24h7.28c2.78 0 6.72.77 6.72 4.3 0 4.14-4.93 4.7-8 4.7Zm0-8v7h.78c2.13 0 3.22-1.64 3.22-3.65 0-2.08-1.1-3.35-3.25-3.35H17Z" fill="#1AA037"/><path d="M28 33v4.2c0 1.8.62 2.36 2.48 2.36V40H22v-.44c1.85 0 2-.56 2-2.37V26.81c0-1.81-.15-2.37-2-2.37V24h7.28c2.78 0 6.72.77 6.72 4.3 0 4.14-4.93 4.7-8 4.7Zm0-8v7h.78c2.13 0 3.22-1.64 3.22-3.65 0-2.08-1.1-3.35-3.25-3.35H28Z" fill="#005B30"/><path d="M34.56 33h-1.12v.34H31v1.58h.78v-.57h4.44v.57H37v-1.58h-2.44V33ZM31 35h6v1h-2.44v1H37v1h-.33v1H37v1h-6v-1h2.44v-1H31v-1h2.44v-1H31v-1Zm5 4v-1h-1.44v1H36Z" fill="#005B30"/><path fill-rule="evenodd" d="M41 34v-1h-3v1h.3v5H38v1h3v-6Zm-1 0h-1v1h1v-1Zm0 2h-1v1h1v-1Zm0 2h-1v1h1v-1Z" fill="#005B30"/><path d="M42.5 33v1H42v1h1.48v1H42v1h1.48v.58L42 39.95h1.16l.84-1.5.84 1.5H46l-1.54-2.47V37H46v-1h-1.54v-1H46v-1h-.55v-1h-.99v1h-.98v-1h-.99Z" fill="#005B30"/><path d="m32 27.54-.8-.25a3.84 3.84 0 0 0-1.16-.24c-.26 0-.53.08-.8.24-.3.15-.52.39-.7.71H28v-6h.54a6.6 6.6 0 0 0 3.04 4.23c.18.11.42 1.31.42 1.31Z" fill="#1AA037"/></svg>