<!-- by TradingView --><svg width="56" height="56" viewBox="0 0 56 56" xmlns="http://www.w3.org/2000/svg"><path fill="#F0F3FA" d="M0 0h56v56H0z"/><circle cx="28" cy="28" r="16" fill="#367F2F"/><path d="M42.5 24.04a15.15 15.15 0 0 1-10.64 18.43 14.85 14.85 0 0 1-18.35-10.5 15.15 15.15 0 0 1 10.64-18.43 14.85 14.85 0 0 1 18.35 10.5Z" fill="#539243"/><path d="M41.05 27.96a13.2 13.2 0 0 1-3.8 9.28 12.89 12.89 0 0 1-18.33 0 13.2 13.2 0 0 1 0-18.56 12.89 12.89 0 0 1 21.15 4.26c.65 1.59.98 3.3.98 5.02Z" fill="#689A4F"/><path d="M39.78 27.97a11.96 11.96 0 0 1-3.42 8.36 11.68 11.68 0 0 1-8.27 3.47c-3.1 0-6.07-1.25-8.26-3.47a11.9 11.9 0 0 1 0-16.73 11.62 11.62 0 0 1 19.06 3.84c.59 1.44.89 2.97.89 4.53Z" fill="#7FA45C"/><path d="M26.06 38.04a10.01 10.01 0 0 1-6.4-4.44 10.37 10.37 0 0 1-1.43-7.74 10.41 10.41 0 0 1 4.38-6.51 10.05 10.05 0 0 1 7.61-1.47 10.02 10.02 0 0 1 6.4 4.43 10.37 10.37 0 0 1 1.43 7.74 10.41 10.41 0 0 1-4.37 6.52 10.05 10.05 0 0 1-7.62 1.47Z" fill="#96AE69"/><path d="M35.9 27.91c0 2.1-.83 4.12-2.3 5.6a7.77 7.77 0 0 1-11.06 0 7.97 7.97 0 0 1 0-11.2 7.77 7.77 0 0 1 11.06 0 7.97 7.97 0 0 1 2.3 5.6Z" fill="#B5C28D"/><path d="M34.44 27.9a6.4 6.4 0 0 1-1.84 4.5 6.24 6.24 0 0 1-8.88 0 6.4 6.4 0 0 1 0-8.99 6.24 6.24 0 0 1 8.88 0 6.4 6.4 0 0 1 1.84 4.5Z" fill="#C7D1A9"/><path d="M26.88 23.06c1.04.05 1.93.23 2.7.52 2.22.85 3.28 3.01 3 5.32-.5 3.97-5.48 4.87-7.8 2.12a4.94 4.94 0 0 1-.17-5.94c.32-.47.8-1.03 1.42-1.69a1.1 1.1 0 0 1 .85-.33Z" fill="#E1E5D0"/><path d="M28.32 26.32c.47.08.88.36 1.23.85.3.4.36.83.2 1.27-.32.8-.91 1.25-1.77 1.37l-.8.11c-.28.01-.54-.07-.78-.24-.89-.62-1.06-1.39-.53-2.31.52-.9 1.34-1.24 2.45-1.05Z" fill="#FDFDFB"/></svg>