<!-- by TradingView --><svg width="56" height="56" viewBox="0 0 56 56" xmlns="http://www.w3.org/2000/svg"><path fill="#F8F4A1" d="M0 0h56v56H0z"/><path d="M37 22.84c-.12.08-.12.16 0 .23a9.78 9.78 0 0 1 4.92 7.57c.06.41.07 1.18.04 2.29a11.58 11.58 0 0 1-3.92 8.42 15.25 15.25 0 0 1-11.4 3.61 13.51 13.51 0 0 1-8.2-3.18c-1.65-1.39-2.99-3-4-4.82a.48.48 0 0 1-.05-.34c.03-.11.1-.21.19-.28l4.29-2.92a.3.3 0 0 0 .1-.11.32.32 0 0 0-.12-.41 9.5 9.5 0 0 1-4.29-5.4 12.1 12.1 0 0 1 1.78-10.75c.56-.77 1.38-1.67 2.45-2.7a8.17 8.17 0 0 1 1.69-1.28 13.82 13.82 0 0 1 6.28-1.75c1.9-.06 4.05-.02 5.89.5 4.06 1.14 7.16 3.67 9.31 7.6.04.06.05.14.03.21a.3.3 0 0 1-.12.19L37 22.84Z" fill="#9C833F"/><path fill-rule="evenodd" d="M34.5 34.36A8.97 8.97 0 0 0 28.1 19c-2.4 0-4.71.95-6.41 2.64A8.97 8.97 0 0 0 28.09 37c2.4 0 4.71-.95 6.4-2.64ZM30.86 27h-5.72c-.07 0-.14 0-.14-.11v-6.06c0-.04 0-.08-.02-.11a.25.25 0 0 0-.17-.14h-.11c-2.6.59-4.37 3.74-4.67 6.15-.43 3.59 1.1 7.3 4.53 8.8a.32.32 0 0 0 .44-.3v-6.08c0-.04.02-.08.05-.1.03-.04.07-.04.11-.05h5.66c.1 0 .18.04.18.13v6.2c0 .19.15.31.32.24 3.6-1.54 5.18-5.07 4.79-8.88-.27-2.59-2.23-5.56-4.95-6.09-.1-.02-.16.06-.16.16v6.17c0 .07-.06.07-.14.07Z" fill="#F8F4A1"/></svg>