<!-- by TradingView --><svg width="56" height="56" viewBox="0 0 56 56" xmlns="http://www.w3.org/2000/svg"><path fill="#F0F3FA" d="M0 0h56v56H0z"/><path d="M50.54 29h-2.09l-.34 1H47l1.89-5h1.22L52 30h-1.11l-.35-1Zm-.28-.75-.76-2.1-.76 2.1h1.52ZM44.36 29.15H47V30h-4v-.77l2.62-3.38H43V25h4v.77l-2.64 3.38ZM39.86 29.15h2.64V30h-4v-.77l2.62-3.38H38.5V25h4v.77l-2.64 3.38ZM36 30a2.53 2.53 0 0 1-2.16-1.21 2.51 2.51 0 0 1-.34-1.3A2.46 2.46 0 0 1 36 25c.47 0 .88.1 1.26.32s.69.51.9.9c.23.37.34.8.34 1.28s-.11.9-.34 1.29c-.21.38-.52.67-.9.89-.38.21-.8.32-1.26.32Zm0-.87a1.39 1.39 0 0 0 1.3-.77c.13-.25.2-.54.2-.86 0-.33-.07-.61-.2-.86-.12-.24-.3-.43-.52-.56-.22-.13-.48-.2-.78-.2-.29 0-.55.07-.78.2-.22.13-.4.32-.52.56-.13.25-.2.53-.2.86 0 .32.07.61.2.86.12.24.3.43.52.57.23.13.49.2.78.2ZM31.98 27.44c.3.05.54.19.73.42.2.23.29.49.29.79 0 .26-.07.5-.21.7-.14.2-.33.36-.6.48a2.3 2.3 0 0 1-.92.17H29v-5h2.17c.36 0 .66.05.92.16s.46.27.59.46c.13.2.2.42.2.67 0 .3-.08.53-.25.73-.16.2-.38.33-.65.42ZM30 27.06h1.02c.25 0 .44-.05.58-.15.13-.11.2-.27.2-.47 0-.2-.07-.36-.2-.47a.9.9 0 0 0-.58-.16H30v1.25Zm1.12 2.12c.25 0 .45-.05.6-.17a.58.58 0 0 0 .21-.49.6.6 0 0 0-.23-.5.93.93 0 0 0-.6-.18H30v1.34h1.12ZM25.54 29h-2.09l-.34 1H22l1.89-5h1.22L27 30h-1.11l-.35-1Zm-.28-.75-.76-2.1-.76 2.1h1.52ZM21 30h-1l-2-3.43V30h-1v-5h1l2 3.43V25h1v5ZM16 25v5h-1v-5h1ZM14 25v5h-1v-2h-2v2h-1v-5h1v2.06h2V25h1ZM4 27.5a2.38 2.38 0 0 1 1.27-2.18c.4-.21.84-.32 1.33-.32.57 0 1.07.14 1.5.42.43.28.73.67.9 1.16H7.82c-.12-.23-.28-.4-.5-.52a1.48 1.48 0 0 0-.73-.18c-.3 0-.57.07-.8.2a1.4 1.4 0 0 0-.54.57c-.13.24-.2.53-.2.85 0 .33.07.61.2.86.13.24.3.43.54.57.23.13.5.2.8.2.28 0 .52-.06.73-.18.22-.12.38-.3.5-.53H9c-.17.5-.47.89-.9 1.17a2.7 2.7 0 0 1-1.5.41c-.5 0-.94-.1-1.33-.32-.4-.21-.7-.5-.93-.89C4.1 28.42 4 28 4 27.5Z"/></svg>