<!-- by TradingView --><svg width="56" height="56" viewBox="0 0 56 56" xmlns="http://www.w3.org/2000/svg"><path fill="#F0F3FA" d="M0 0h56v56H0z"/><path d="M36.6 30H36v-5h.6v5ZM4 25h4v.57H6.36V30h-.71v-4.43H4V25Zm10 0h.7l2.6 3.93V25h.7v5h-.7l-2.6-3.94V30H14v-5Zm-2 5H9v-.57h.01V25h.67v4.43H12V30Zm12-3.5v2.82c0 .35.3.63.66.63h.64l-.1-.47h-.22a.39.39 0 0 1-.4-.38v-2.6h.62V26h-.62v-.95l-.58.4V26h-.54v.5H24Zm-2.88.03c-.71 0-1 .5-1.04.74l-.53-.2c.12-.35.6-1.07 1.57-1.07 1.17 0 1.49.73 1.5 1.1v2.17c0 .38.17.65.25.73h-.68a.56.56 0 0 1-.14-.28v-.31c-.16.2-.63.59-1.3.59-1.02 0-1.3-.74-1.32-1.11 0-1.17 1.63-1.24 2.1-1.25h.04c.41-.02.48-.3.48-.41 0-.12-.04-.7-.93-.7Zm.91 2.16v-.68c-.18.08-.47.16-.69.18-.3.03-1.28.14-1.28.73 0 .47.52.59.78.59.75 0 1.1-.55 1.2-.82Zm10.43-1.42c.05-.25.33-.74 1.04-.74.9 0 .93.58.93.7s-.07.39-.48.4h-.04c-.47.02-2.1.09-2.1 1.26.01.37.3 1.11 1.33 1.11.66 0 1.13-.4 1.29-.59v.31c0 .06.05.2.14.28h.68a1.1 1.1 0 0 1-.25-.73V27.1c0-.37-.33-1.1-1.5-1.1-.97 0-1.45.72-1.57 1.08l.53.2Zm1.96.74v.68c-.09.27-.45.82-1.2.82-.26 0-.78-.12-.78-.6 0-.58.99-.69 1.28-.72.23-.02.5-.1.7-.18Zm12.1-1.48c-.71 0-1 .5-1.04.74l-.53-.2c.12-.35.6-1.07 1.57-1.07 1.17 0 1.47.73 1.48 1.1v2.17c0 .38.19.65.27.73h-.68a.56.56 0 0 1-.14-.28v-.31c-.16.2-.63.59-1.3.59-1.02 0-1.3-.74-1.32-1.11 0-1.17 1.63-1.24 2.1-1.25h.04c.41-.02.48-.3.48-.41 0-.12-.04-.7-.93-.7Zm.91 2.16v-.68c-.18.08-.46.16-.69.18-.3.03-1.28.14-1.28.73 0 .47.52.59.78.59.75 0 1.11-.55 1.2-.82ZM26 26v2.53c0 .81.64 1.47 1.43 1.47.23 0 .66-.1.95-.39V30H29v-4h-.62v2.9c-.19.31-.48.57-.9.57-.5 0-.9-.42-.9-.93V26H26Zm4 0h.62v.46c.16-.22.42-.46.74-.46.34 0 .58.13.66.2l-.25.49c-.03-.05-.15-.13-.41-.13-.29 0-.57.21-.74.68V30H30v-4Zm12 1.99v-.59h2v1.93c-.2.22-.9.67-2.07.67-1.48 0-2.53-1-2.53-2.47A2.48 2.48 0 0 1 42 25c1.2 0 1.8.9 1.95 1.35l-.55.2c-.23-.49-.63-1.02-1.4-1.02-.79 0-2 .46-2 1.9 0 1.43 1.04 2 1.93 2 .7 0 1.28-.3 1.47-.44v-1H42Zm7.6.66c.07.27.35.81.92.81.72 0 .9-.41.9-.57 0-.16-.15-.47-.82-.6-.67-.15-1.51-.4-1.51-1.2 0-.78.7-1.09 1.47-1.09s1.21.62 1.29 1.06l-.55.13c-.04-.22-.28-.65-.89-.65-.76 0-.77.5-.77.52 0 .04.02.4.82.56.81.16 1.54.54 1.54 1.15 0 .6-.63 1.23-1.54 1.23-.9 0-1.43-.8-1.46-1.24l.6-.1Z" fill="#666"/></svg>