<!-- by TradingView --><svg width="56" height="56" viewBox="0 0 56 56" xmlns="http://www.w3.org/2000/svg"><path fill="#F0F3FA" d="M0 0h56v56H0z"/><path d="M6.1 23c1.26-1.24 3-2 4.9-2h34c1.9 0 3.64.76 4.9 2h-4.32l.92-1h-4l-.88 1H39v-1h-3v1h-3v-1h-9v1h-5.25a3.67 3.67 0 0 0-.88-.57 5.36 5.36 0 0 0-2.25-.43c-.85 0-1.6.14-2.27.43-.35.16-.67.35-.94.57h-6.3Zm-.85 1c-.42.6-.75 1.28-.96 2h7.03a3.32 3.32 0 0 1 .27-2H5.25Zm14.27 0c.22.44.33.94.33 1.5h-2.79a1.13 1.13 0 0 0-.39-.82c-.23-.2-.58-.3-1.05-.3-.3 0-.55.05-.74.12a.89.89 0 0 0-.42.29.71.71 0 0 0-.15.42c0 .12.02.24.07.35.06.1.15.2.27.27.08.06.19.12.31.17H24v-2h-4.48ZM33 24v1h-6v1h9v-2h-3Zm6 0v2l1.75-2H39Zm5.67 0-1.84 2h8.88a6.97 6.97 0 0 0-.96-2h-6.08Zm7.26 3H41.92L41 28l1.1 1h9.83a7.06 7.06 0 0 0 0-2Zm-.22 3H43.2l1.1 1h7.03c.15-.32.28-.65.38-1Zm-.96 2H45.4l1.1 1h3.4c.31-.3.6-.64.85-1Zm-2.14 2H7.39c1.06.63 2.29 1 3.61 1h34c1.32 0 2.55-.37 3.6-1ZM6.1 33H24v-1h-4.98c-.3.25-.64.46-1.05.62-.65.25-1.42.38-2.33.38a6.6 6.6 0 0 1-2.45-.41 3.65 3.65 0 0 1-1-.59H5.25c.26.36.54.7.85 1Zm-1.44-2h6.73c-.15-.3-.26-.63-.32-1H4.29c.1.35.23.68.38 1Zm-.6-2h12.4a5.36 5.36 0 0 0-1.07-.34l-1.06-.23c-.96-.2-1.7-.55-2.25-1.03a2.37 2.37 0 0 1-.36-.4H4.07a7.06 7.06 0 0 0 0 2Zm14.26-2c.35.19.64.4.88.65a2.6 2.6 0 0 1 .71 1.35H24v-2h-5.67ZM32 27v2h4v-2h-4Zm4 3h-9v1h9v-1Zm0 2h-9v1h9v-1Zm3 1v-1h2.5l1 1H39Zm1.5-2H39v-1h.5l1 1ZM24 31v-1h-4.01c-.03.36-.1.7-.24 1H24Zm-7.04-1h-2.9c.15.19.34.34.57.44.27.11.6.17.96.17.32 0 .58-.04.79-.11.2-.08.36-.19.47-.32a.78.78 0 0 0 .11-.18Z" fill="#B52C46"/></svg>