<!-- by TradingView --><svg width="56" height="56" viewBox="0 0 56 56" xmlns="http://www.w3.org/2000/svg"><path fill="#F0F3FA" d="M0 0h56v56H0z"/><path d="M16.42 27.2v-1.32l3.23-.78h.03l1.7.57h.02l1.58-.57H23V24h.99l.02-.02v-.59l.01-.02.48-.22c.01 0 .02-.01.02-.03v-1.1h.01l3.37-.9h.03l2.48.9h.01v1.34c0 .01 0 .02.02.02l1.26.34.01.02v.23c0 .01 0 .02.02.02h.6V16.68l.02-.03.66-.68v-2.65l.15-.15.08-.08.53-.42.01-.03v-.9s0-.02.02-.02l.8-.71h.02l1.03.7v.02l.01.01v.9l.01.03.33.4.01.03v2.85l.01.02.68.68.02.03V22.5l.29.64V27h2v1H16v-.8H16.42Zm20.05-3.64-.47-.57v-6.25l-.44-.46v-2.86L35 13v-1.26H35v-.01h-.35a.01.01 0 0 0 0 .01v1.44l.5.42V16.42l.34.44v6.3h.01l.5.53V27h.46v-3.44ZM28 27a.01.01 0 0 0 .01 0h.98v-3.97H29V23l.77.2h.01v-.64a.01.01 0 0 0 0-.01l-1.77-.53H28V27Zm3 0v-2.81L30 23.9l-.01.01V27h1Zm14 .72v.6A16.95 16.95 0 0 1 28.4 45a17.07 17.07 0 0 1-13.02-5.6A16.9 16.9 0 0 1 11 28.35v-.59a16.82 16.82 0 0 1 5.28-11.99A16.94 16.94 0 0 1 32.9 11.8l.1.03v.88l-.1-.02a16.29 16.29 0 0 0-9.2-.18 16.12 16.12 0 0 0 .58 31.2 16.23 16.23 0 0 0 14.31-3.52 16.18 16.18 0 0 0 5.55-12.17 16.08 16.08 0 0 0-7.5-13.6v-.97h.02l.13.07a17.1 17.1 0 0 1 5.92 6.01A16.9 16.9 0 0 1 45 27.71Zm-17 9.48V29h9v-.58a.02.02 0 0 0-.02-.02H16.05l-.02.01-.03.01v3.37l-3.04.65 14.48 9.16h.02l15.1-9.15h.01v-.01L39 31.72V28.41h-.01v-.01H38v2.65l-7 2.04v2.79l-3 1.3Zm11-3.7v-.95l1.34.3v.02l-12.87 7.8h-.02l-12.34-7.8v-.01l.89-.23v.52l11.46 5.48a.02.02 0 0 0 .01 0l11.51-5.13H39Z" fill="#F80003"/></svg>