<!-- by TradingView --><svg width="56" height="56" viewBox="0 0 56 56" xmlns="http://www.w3.org/2000/svg"><path fill="#F0F3FA" d="M0 0h56v56H0z"/><path d="M22.07 17.72c-1.12.58-2.13 1.31-3.01 2.18a11.98 11.98 0 0 0 0 17.24 12.6 12.6 0 0 0 8.83 3.55c3.45 0 6.57-1.34 8.83-3.55a12.01 12.01 0 0 0 3.67-8.62c0-.22 0-.33-.03-.52h4.42c.03.19.03.3.03.52 0 4.55-1.9 8.67-4.97 11.66A17.04 17.04 0 0 1 27.9 45c-4.66 0-8.88-1.83-11.95-4.82a16.2 16.2 0 0 1 0-23.32c2.2-2.15 5-3.72 8.14-4.42v1.02l-2.01 4.26Zm20.56 4.04a2.34 2.34 0 0 0-2.38 2.32 2.36 2.36 0 0 0 2.38 2.31A2.35 2.35 0 0 0 45 24.08c0-1.3-1.05-2.32-2.37-2.32Z" fill="url(#a)"/><path d="m26.9 16.27-3 7.11c-.48.78-.48 1.63-.02 2.19.7.85 2.3.98 1.77 2.9L22.5 36H18l3.26-6.76c.82-1.75.6-3-1.46-3.17-1.85-.16-.62-2.6-.14-3.8l1.8-4.61 2.42-5.18c1.26-.27 2.1-.48 3.62-.48h1.21l-.45 1.16-1.35 3.11ZM42 12l-4.75 11.38c-1.71 3.33 1.38 1.76 2.11 2.64.53.67-.37 2.5-.68 3.25L35.85 36h-4.47l3.23-6.76c2.05-4.36-3.82-1.8-2.08-5.7L37 12h5Zm-7.14 0h-5l-4.47 11.54c-1.74 3.9 4.13 1.34 2.08 5.7L24.21 36h4.5l2.83-6.73c.31-.74 1.21-2.58.68-3.25-.76-.87-3.82.7-2.1-2.63L34.85 12Z" fill="#E60012"/><defs><linearGradient id="a" x1="19.9" y1="25.29" x2="50.42" y2="44.83" gradientUnits="userSpaceOnUse"><stop stop-color="#E60012"/><stop offset="1" stop-color="#FFF100"/></linearGradient></defs></svg>