<!-- by TradingView --><svg width="56" height="56" viewBox="0 0 56 56" xmlns="http://www.w3.org/2000/svg"><path fill="#F0F3FA" d="M0 0h56v56H0z"/><path d="M30.08 21.54H16V21h14.08v.54ZM16.3 42v-.54H27V42H16.3ZM29.38 28.54H16V28h13.38v.54ZM42.08 35H28v-.54h14.08V35Z" fill="#ACAEB2"/><path d="M16 36.42v-8.19h.54v8.2H16ZM23 28v-8h.54v8H23ZM43.46 31.05v-8.19H44v8.2h-.54ZM29.46 37v-8.19H30V37h-.54Z" fill="#ACAEB2"/><path d="M9 21h7v7H9v-7Z" fill="#EF3E42"/><path d="M30 21h7v7h-7v-7Z" fill="#F8991D"/><path d="M37 21h7v7h-7v-7Z" fill="#FDB845"/><path d="M37 14h7v7h-7v-7Z" fill="#EF3E42"/><path d="M30 28h7v7h-7v-7Z" fill="#00ADA8"/><path d="M23 28h7v7h-7v-7Z" fill="#004990"/><path d="M16 35h7v7h-7v-7Z" fill="#4D90CD"/></svg>