<!-- by TradingView --><svg width="56" height="56" viewBox="0 0 56 56" xmlns="http://www.w3.org/2000/svg"><path fill="#F0F3FA" d="M0 0h56v56H0z"/><path d="M29.86 37.08c1.07 0 1.94.85 1.94 1.89s-.87 1.88-1.94 1.88a1.92 1.92 0 0 1-1.95-1.88c0-1.04.87-1.89 1.95-1.89Zm1.64-23.07a3.74 3.74 0 0 1 2.91.61c.19.13.24.31.17.52-.08.22-.23.32-.46.32h-1.37c-.26 0-.42.13-.47.37-.05.25.04.43.28.53.8.35 1.28.95 1.45 1.8.03.2.12.37.25.52l.59.68c1.11 1.26 1.74 2.34 1.9 3.24.03.22.14.4.33.54a3.9 3.9 0 0 1 1.72 2.87.5.5 0 0 0 .35.46l1.71.65c.12.05.23.04.35-.02 1.14-.55 2-.2 2.57 1.06.25.56.29 1.08.1 1.54-.16.43-.45.71-.87.87a1.4 1.4 0 0 1-1.22-.1c-.45-.24-.77-.68-.96-1.32a3.81 3.81 0 0 0-.64-1.41c-.2-.23-.6-.46-1.19-.71-.18-.08-.33-.04-.43.13-.8 1.3-2.03 1.7-3.67 1.18a.54.54 0 0 0-.51.08 9.28 9.28 0 0 1-4.72 1.98c-.42.05-.75.23-1 .56-1.2 1.6-2.49 2.18-3.84 1.76-.3-.1-.51 0-.63.28l-.77 1.9a.39.39 0 0 0 .08.45 4 4 0 0 1 .88 1.13 2.2 2.2 0 0 1-.21 1.67c-.26.45-.65.78-1.16.99-.52.2-1.02.22-1.51.07a2.12 2.12 0 0 1-1.25-1.11 1.99 1.99 0 0 1-.08-1.82c.27-.58.75-.97 1.45-1.15.44-.12.75-.22.94-.3a.57.57 0 0 0 .31-.32l.72-1.75c.08-.2.03-.35-.15-.48a3.22 3.22 0 0 1-1.33-1.68 7.3 7.3 0 0 1-.15-2.4.6.6 0 0 0-.2-.45 5.72 5.72 0 0 1-1.76-4.28.62.62 0 0 0-.21-.47c-.74-.67-1.04-1.34-.91-2 .08-.42-.08-.72-.48-.91-.4-.2-.79-.14-1.15.14-.42.34-.93.66-1.52.97a.7.7 0 0 1-.8-.06.66.66 0 0 1-.26-.74c.22-.8.92-1.44 2.1-1.94.27-.1.48-.05.63.19.43.67 1.05 1 1.85 1 .16 0 .31-.06.44-.17a4.05 4.05 0 0 1 2.64-1.03c.6 0 1.14-.15 1.6-.46a6.89 6.89 0 0 1 2.24-.77c1.1-.23 1.9-.5 2.37-.8.8-.52 1.77-.68 2.9-.48.14.02.27-.03.36-.15.08-.12.09-.24.01-.37l-.55-.93a.3.3 0 0 1-.02-.3c.05-.1.14-.17.25-.18Zm8.06 19.06c.85 0 1.54.75 1.53 1.66 0 .91-.7 1.65-1.56 1.64-.85 0-1.54-.75-1.53-1.66 0-.91.7-1.65 1.56-1.64Zm-5.88-2.11c1.52 0 2.75 1.2 2.75 2.67a2.72 2.72 0 0 1-2.75 2.68 2.72 2.72 0 0 1-2.76-2.68 2.72 2.72 0 0 1 2.76-2.67Zm-17.61.59c.85.02 1.53.82 1.5 1.8-.02.96-.73 1.74-1.58 1.72-.85-.02-1.53-.82-1.5-1.79.01-.97.72-1.75 1.58-1.73Zm-.72-5.28c.81-1.14 2.3-1.5 3.35-.82 1.04.69 1.23 2.17.42 3.31-.8 1.15-2.3 1.52-3.34.83-1.04-.69-1.23-2.17-.43-3.32Zm12.54-8.42c-.12-.23-.3-.31-.56-.25l-3.1.77a.38.38 0 0 0-.31.29c-.04.15 0 .29.12.4.78.7.92 1.47.42 2.33a3.5 3.5 0 0 1-3.25 1.86.56.56 0 0 0-.44.2.53.53 0 0 0-.12.46c.29 1.35.8 2.45 1.51 3.3.14.15.28.17.45.04l.37-.32c.32-.3.55-.48.7-.55 1.2-.63 2.39-.61 3.59.04a3.14 3.14 0 0 1 1.78 3c0 .3.14.42.45.36 1.53-.28 2.9-.79 4.08-1.53a.4.4 0 0 0 .2-.32.38.38 0 0 0-.15-.34 3.8 3.8 0 0 1-1.24-1.7c-.2-.6-.22-1.18-.02-1.72.45-1.26 1.55-1.79 3.3-1.58.1 0 .2-.03.26-.12a.25.25 0 0 0 .03-.27 8.8 8.8 0 0 0-2.13-2.94c-.18-.15-.37-.15-.55 0-.84.7-1.85.86-3.02.5a3.84 3.84 0 0 1-2.37-1.91ZM12.9 24.22c.77-.55 1.65-.64 1.99-.2.33.43-.02 1.23-.78 1.78-.76.54-1.65.63-1.98.2-.33-.44.01-1.23.77-1.78Zm28.65-2.15c.41-.36 1.22-.13 1.8.5.59.65.73 1.45.31 1.8-.41.36-1.22.14-1.8-.5-.59-.64-.73-1.45-.31-1.8ZM28.42 20.8c1.26 0 2.29.8 2.3 1.82 0 1-1.01 1.83-2.28 1.84-1.26 0-2.29-.8-2.3-1.81 0-1.01 1.02-1.84 2.28-1.85Zm7.82-2.17c.48-.62 1.76-.48 2.87.32 1.1.8 1.61 1.96 1.13 2.58-.48.63-1.77.48-2.87-.32-1.11-.8-1.62-1.96-1.13-2.58Zm.42-2.19c.16-.32.86-.31 1.58.02.71.33 1.16.85 1 1.17-.15.32-.86.31-1.57-.01-.72-.33-1.17-.86-1.01-1.18Zm-12.5-1.65c1.22-.27 2.33 0 2.47.6.14.6-.74 1.3-1.96 1.57s-2.33 0-2.47-.6c-.14-.6.74-1.3 1.96-1.57Zm-4.44.68c.7-.34 1.4-.35 1.59 0 .17.33-.25.89-.95 1.23-.7.35-1.4.36-1.58.02-.18-.34.24-.9.94-1.25Zm7.7-2.48c.66.03 1.18.38 1.16.77-.02.4-.57.68-1.23.65-.66-.03-1.18-.38-1.16-.77.02-.39.57-.68 1.23-.65Z" fill="#C01F2D"/><path d="M29.85 42.98c5.27 0 9.53-.18 9.53-.39 0-.2-4.26-.36-9.53-.36-5.26.01-9.53.19-9.53.4 0 .2 4.27.36 9.53.35Z" fill="#AEAFB1"/></svg>