<!-- by TradingView --><svg width="56" height="56" viewBox="0 0 56 56" xmlns="http://www.w3.org/2000/svg"><path fill="#F0F3FA" d="M0 0h56v56H0z"/><path d="M28 36c12.7 0 23-3.58 23-8s-10.3-8-23-8-23 3.58-23 8 10.3 8 23 8Zm0-.53c11.87 0 21.49-3.34 21.49-7.47S39.87 20.53 28 20.53 6.51 23.87 6.51 28s9.62 7.47 21.49 7.47Z" fill="url(#a)"/><path d="M51 28.02C50.97 32.42 40.68 36 28 36c-12.7 0-23-3.58-23-8 .45.14.96.28 1.55.43.64 3.93 10 7.04 21.45 7.04 11.32 0 20.6-3.04 21.43-6.9.56-.18 1.08-.37 1.57-.55Z" fill="url(#b)"/><ellipse cx="28" cy="28" rx="21.49" ry="7.47" fill="url(#c)"/><ellipse cx="28" cy="28" rx="20" ry="7" fill="url(#d)"/><ellipse cx="28" cy="28" rx="14.79" ry="5.04" fill="url(#e)"/><ellipse cx="28" cy="26.88" rx="11.5" ry="3.92" fill="#909133"/><ellipse cx="28.27" cy="26.47" rx="9.25" ry="3.15" fill="#9B9C34"/><path d="M27.5 21.5c-8.03 0-13.5 1.91-15.23 2.87-.3 0-1.23.96-.45 1.33.79.37 1.94.6 4.12-.17h.02c2.19-.77 6.87-2.4 14.68-2.4 6.26 0 12.33 1.34 14.58 2-1.49-1.32-7.68-3.64-17.72-3.64Z" fill="url(#f)"/><path fill-rule="evenodd" d="M11.3 29.18a.93.93 0 0 0 .25.94c.35.31.59.36.66.35.06-.2.15-.7 0-1.11a2.88 2.88 0 0 0-.32-.7l1.38-.58c.36-.15 1.25-.29 1.65-.34l.88-1.18.04-.05c.13-.15.37-.45.6-.56.27-.13.65-.23 1.8-.28.9-.04 1.52.02 1.7.06l.11 1.8c-.17.18-.52.6-.58 1l-.22 1.25a7.9 7.9 0 0 1-1.45.47c-.41.06-.85.09-1.02.1.12-.2.46-.66.9-.92a2.81 2.81 0 0 1 1.27-.32 1.7 1.7 0 0 0-1.58.11c-.65.4-1 1.14-1.09 1.46.32.05 1.14.1 1.87-.1.91-.24 1.26-.38 1.32-.8.06-.42.37-1.26.48-1.48l.05-.12c.14-.3.42-.9.61-1.09.19-.18.54-.47.69-.6l1 .6a1.91 1.91 0 0 0-.45-.6 2.07 2.07 0 0 0-.49-.3 2.49 2.49 0 0 0-.88-.8 8.63 8.63 0 0 0-4.03.28c-.11.04-.41.22-.76.57-.35.35-.76.87-.92 1.09-.28.06-1.04.23-1.83.5-.8.27-1.22.63-1.32.78.07.23.22.73.27.82.04.1.01.42 0 .58-.17-.1-.52-.42-.6-.83Zm8.99-3.39.12 1.18c.23-.2.7-.58.65-.64-.05-.07-.3-.3-.77-.54Zm-2.72 1.33c-.88 0-1.82.3-2.18.44.84-.13 3.06-.15 4.07-.15-.26-.1-1.01-.29-1.9-.29Zm-5.1 1.86c0 .21.23.63 1.22.63 1 0 1.93-.38 2.27-.56-.4.08-1.38.26-2.04.26-.65 0-1.24-.22-1.45-.33Z" fill="#F9FADA"/><path fill-rule="evenodd" d="M22 30h.96l.53-1.3h1.3l.35 1.3h.95l-1.31-4h-.92L22 30Zm2.6-2-.33-1.2-.5 1.2h.83Zm1.4.55V26h1v2.43c0 .5.32.9.8.9.48 0 .7-.4.7-.9V26h.98v2.55c0 .8-.64 1.45-1.42 1.45h-.64c-.79 0-1.42-.65-1.42-1.45ZM30 26h3v.69h-1v3.36h-1V26.7h-1V26Zm11 0h-1v.69h1V30h1v-3.31h1V26h-2Zm-3.75 2.99v.74c.12.1.5.27 1.08.27.72 0 1.42-.36 1.42-1.01 0-.61-.29-.82-.65-1.1l-.08-.05a6.05 6.05 0 0 0-.22-.16c-.28-.2-.47-.32-.47-.67 0-.43 1-.33 1.33-.16v-.68c-.04-.06-.3-.17-1.05-.17-.93 0-1.28.45-1.28 1.1 0 .56.55.92.88 1.13l.12.07c.28.2.6.43.6.69 0 .26-.47.3-.76.3a3 3 0 0 1-.92-.3Zm-2.25.99c1.1 0 2-.88 2-1.97 0-1.08-.9-1.96-2-1.96s-2 .88-2 1.96c0 1.09.9 1.97 2 1.97Zm0-.56c.55 0 1-.63 1-1.4 0-.78-.45-1.4-1-1.4s-1 .62-1 1.4c0 .77.45 1.4 1 1.4Zm9-.42h-1v1h1v-1Z" fill="url(#g)"/><defs><linearGradient id="a" x1="28" y1="20" x2="28" y2="36" gradientUnits="userSpaceOnUse"><stop stop-color="#D9D9D9"/><stop offset=".61" stop-color="#B9BEC2"/></linearGradient><linearGradient id="b" x1="5" y1="32" x2="51" y2="32" gradientUnits="userSpaceOnUse"><stop stop-color="#848C97"/><stop offset=".13" stop-color="#B7BDC0"/><stop offset=".4" stop-color="#576069"/><stop offset="1" stop-color="#535C6B"/></linearGradient><linearGradient id="c" x1="28" y1="20.53" x2="28" y2="35.47" gradientUnits="userSpaceOnUse"><stop stop-color="#747C7F"/><stop offset=".74" stop-color="#E3E3E4"/><stop offset="1" stop-color="#FFFFF3"/></linearGradient><linearGradient id="d" x1="28" y1="21.74" x2="28" y2="35" gradientUnits="userSpaceOnUse"><stop stop-color="#959533"/><stop offset="1" stop-color="#62632A"/></linearGradient><linearGradient id="e" x1="28" y1="22.96" x2="28" y2="35.01" gradientUnits="userSpaceOnUse"><stop offset=".53" stop-color="#818530"/><stop offset="1" stop-color="#67682B"/></linearGradient><linearGradient id="f" x1="26.64" y1="22.53" x2="38.9" y2="31.25" gradientUnits="userSpaceOnUse"><stop stop-color="#BDBF8D"/><stop offset="1" stop-color="#585942" stop-opacity="0"/></linearGradient><linearGradient id="g" x1="30.89" y1="26.14" x2="30.89" y2="29.66" gradientUnits="userSpaceOnUse"><stop offset=".36" stop-color="#FFFFFB"/><stop offset=".63" stop-color="#D3D5CA"/></linearGradient></defs></svg>