<!-- by TradingView --><svg width="56" height="56" viewBox="0 0 56 56" xmlns="http://www.w3.org/2000/svg"><path fill="#F0F3FA" d="M0 0h56v56H0z"/><path d="m37.88 29.7.2-.04a.14.14 0 0 1 .13.07.14.14 0 0 1 0 .15c-.18.3-.43.56-.76.8-.13.1-.24.08-.35-.03-.23-.25-.4-.55-.53-.9a.16.16 0 0 1 .1-.2h.09l.9.18c.05.01.12 0 .22-.02Z" fill="#1D1A1A"/><path fill-rule="evenodd" d="m43.1 32.66.02-.02c.91-.36 1.85-.86 1.88-1.9 0-.26-.1-.46-.32-.6-.23-.14-.51-.2-.84-.17-.75.06-1.3.37-1.68.92-.3.43-.23.9-.17 1.33l.01.12a.25.25 0 0 1-.1.23c-.66.43-1.32.81-1.98 1.15-.28.13-.55.23-.81.3-.05 0-.1 0-.14-.03-.42-.33-.65-.53-.71-.6-.23-.24-.48-.28-.76-.13a12.67 12.67 0 0 1-1.17.56.2.2 0 0 1-.15-.07.2.2 0 0 1-.04-.06l-.1-.32a.15.15 0 0 0-.2-.1l-1.16.4a.32.32 0 0 1-.4-.2l-.1-.24a.16.16 0 0 0-.16-.11 3.72 3.72 0 0 1-.96.37c-.22.05-.28-.02-.18-.22.07-.12.1-.2.1-.23.01-.23-.11-.32-.37-.26l-.88.2a.18.18 0 0 1-.18-.06.17.17 0 0 1-.03-.18l.97-1.96c.41-.84.82-1.21 1.57-1.81a18.64 18.64 0 0 0 4.87-6.06c.18-.35.4-.98.09-1.26-.92-.83-3 1.77-3.5 2.4a27.3 27.3 0 0 0-2.54 4.33l-.12.23-.15.34c-.16.37-.36.83-.67 1.12-.65.6-1.6 1.37-2.88 2.3l-1.53 1.13c-.08.06-.2.08-.36.08-.06 0-.09-.03-.08-.1.03-.25-.03-.4-.18-.45l-.04-.01c-.1-.02-.21 0-.35.07-.87.4-1.68.76-2.44 1.08-.22.09-.33.01-.33-.22v-.44a.24.24 0 0 0-.21-.24 8.25 8.25 0 0 0-1.6.74c-.06.04-.26.07-.61.09-.09 0-.1-.03-.07-.1l.5-.87a.23.23 0 0 0-.2-.34 1 1 0 0 0-.46.15l-1.01.55c-.16.08-.27.12-.32.11-.55-.06-.93.17-1.36.42l-.22.13c-.08.04-.15.05-.21.01-.05-.03-.06-.06-.02-.11l.5-.67a.24.24 0 0 0 .02-.23.22.22 0 0 0-.18-.14l-.56-.04c-.28-.03-.3-.12-.09-.27.02-.02.06-.1.11-.23.53-1.38.13-2.73-.68-3.87-.47-.66-1.02-1.31-1.65-1.96-.95-.99-1.74-1.8-2.37-2.42a9.09 9.09 0 0 1-1.23-1.38 2.64 2.64 0 0 1-.05-2.82c.31-.56.65-1.02 1.02-1.38a17.4 17.4 0 0 1 5.4-3.58c1.08-.46 2.5-.85 3.68-.47.24.07.44.2.6.35.89.94.1 2.26-.57 3.1-.76.93-1.56 1.7-2.4 2.33-.14.1-.31.21-.51.31l-.52.28c-.25.13-.28.3-.07.5l.24.22c.08.08.2.14.31.16.12.02.24 0 .34-.04.27-.13.57-.34.89-.65 1.3-1.24 4.16-4.41 3.05-6.21-.67-1.08-2.12-1.06-3.27-.78a16.1 16.1 0 0 0-6.89 3.55c-1.18 1.03-2.84 3.15-1.9 4.83.24.44.54.85.89 1.23.15.15.27.3.4.42.27.3.5.56.83.88.73.7 1.51 1.47 2.33 2.33.56.58.97 1.08 1.23 1.48.66 1.03.8 2.14.4 3.33a2.62 2.62 0 0 1-1.5 1.5c-.45.2-.94.43-1.44.7-.7.37-1.3.83-1.35 1.61a.2.2 0 0 0 .17.22c.27.04.5.03.71-.03.43-.14.88-.36 1.33-.67a8.9 8.9 0 0 0 1.8-1.52c.14-.17.21-.14.22.07 0 .03-.03.13-.1.3a.22.22 0 0 0 .02.19.23.23 0 0 0 .15.1c.2.06.4.05.62-.03.2-.07.48-.22.83-.47a.21.21 0 0 1 .32.1l.05.13a.17.17 0 0 0 .13.12.18.18 0 0 0 .17-.06c.17-.22.38-.38.61-.48a.11.11 0 0 1 .16.07l.13.48a.24.24 0 0 0 .25.17c.29 0 .52-.04.67-.1a60.96 60.96 0 0 1 1.57-.55.1.1 0 0 1 .08.09.1.1 0 0 1 0 .06 1.7 1.7 0 0 0-.09.6.27.27 0 0 0 .18.26l.1.02c.22-.01.47-.07.74-.18.73-.3 1.4-.6 2.01-.9.29-.13.37-.05.25.24a5.01 5.01 0 0 0-.14.51.14.14 0 0 0 .16.12c.22-.02.44-.1.66-.23a20.5 20.5 0 0 0 2.4-1.63c1.11-.89 1.84-1.47 2.17-1.75.15-.12.18-.1.1.08l-1.06 2.37a.12.12 0 0 0 .03.14l.04.03c.14.04.28.02.43-.07a4.55 4.55 0 0 1 1.1-.5.07.07 0 0 1 .06.07l-.08 1.26a.15.15 0 0 0 .11.15c.03 0 .05.01.07 0a.67.67 0 0 0 .36-.23c.26-.34.6-.6 1-.76.09-.03.14 0 .17.07l.08.24c.02.05.05.1.1.12.05.02.1.03.15.02l1.31-.36a.11.11 0 0 1 .13.06l.01.04v.47a.25.25 0 0 0 .29.24c.2-.03.4-.12.63-.27.2-.13.43-.24.67-.35l.22-.11c.29-.14.45-.08.65.1.27.27.6.52.98.45.53-.08.91-.2 1.15-.36.63-.4 1.21-.74 1.75-1.03.1-.05.17-.12.24-.18l.1-.1c.04-.01.07 0 .11.03l.56.47c.04.04.04.07 0 .1l-.06.06a.9.9 0 0 0-.2.2c-1.28 1.97-1.96 4.49-1.38 6.8v.07a.1.1 0 0 1-.06.05c-.03.02-.08-.01-.15-.07-.21-.2-.41-.35-.59-.45-.24-.12-.27-.08-.09.12.3.33.65.84 1.05 1.52.16.27.32.31.5.13a.22.22 0 0 0 .06-.17c-.04-.6-.1-1.07-.17-1.41-.21-1-.22-2.11-.1-2.92.08-.52.22-1.01.42-1.47a12.14 12.14 0 0 1 1.62-2.73.13.13 0 0 0-.06-.14l-.53-.3a.06.06 0 0 1-.02-.09Zm-4.75-10.69c-.8.04-1.34.64-1.93 1.34-.6.71-1.1 1.4-1.51 2.05-.44.72-.98 1.75-1.61 3.1-.09.18-.13.32-.13.4.01.23.1.27.29.12a19.34 19.34 0 0 0 5.11-6.35c.07-.14.1-.28.06-.43a.28.28 0 0 0-.28-.23Zm4.4 9.77v-.67c0-.32.16-.53.47-.64l.73-.25a.38.38 0 0 1 .42.12c.03.04.06.09.07.13.1.35 0 .64-.3.88-.26.2-.6.41-1 .65-.26.14-.38.07-.38-.22Zm-26.88 2.52c.09.14-.3.55-.87.92-.57.37-1.1.56-1.19.43-.09-.14.3-.55.87-.92.57-.37 1.1-.56 1.19-.43Z" fill="#1D1A1A"/></svg>