<!-- by TradingView --><svg width="56" height="56" viewBox="0 0 56 56" xmlns="http://www.w3.org/2000/svg"><path fill="url(#a)" d="M0 0h56v56H0z"/><path d="M28.4 17C15.05 17 9.24 23.32 8 26.5c5.88-5.8 13.73-7.5 20.4-7.5 6.67 0 17.1 2.64 17.1 7.54 0 3.92-9.77 5.9-14.5 6.46V21h-2v14c12.84-.58 19-5.12 19-8.46C48 23.21 42.5 17 28.4 17Z" fill="#FFF8F8"/><path d="M27.6 39c13.35 0 19.16-6.32 20.4-9.5-5.88 5.8-13.73 7.5-20.4 7.5-6.67 0-17.1-2.64-17.1-7.54 0-3.92 9.77-5.9 14.5-6.46v10.9l2 .71V21c-12.84.58-19 5.12-19 8.46C8 32.79 13.5 39 27.6 39Z" fill="#FFF8F8"/><defs><linearGradient id="a" x1="28" y1="0" x2="28" y2="56" gradientUnits="userSpaceOnUse"><stop stop-color="#FF5350"/><stop offset=".3" stop-color="#FFA4A5"/><stop offset=".65" stop-color="#FF4440"/><stop offset="1" stop-color="#FF9385"/></linearGradient></defs></svg>