<!-- by TradingView --><svg width="56" height="56" viewBox="0 0 56 56" xmlns="http://www.w3.org/2000/svg"><path fill="#F0F3FA" d="M0 0h56v56H0z"/><path d="m41.42 18.35-11.8-6.92a3.33 3.33 0 0 0-3.25 0l-11.8 6.92A3.3 3.3 0 0 0 13 21.08V34.8c0 1.14.56 2.27 1.57 2.84l11.8 6.92c1 .57 2.24.57 3.25 0l11.8-6.92a3.24 3.24 0 0 0 1.57-2.84V21.08c.11-1.14-.56-2.16-1.57-2.73Zm-17.97 8.51v8.3L21.2 33.9a3.24 3.24 0 0 1-1.57-2.83v-6.14c0-1.13.56-2.27 1.57-2.83l5.17-3.07a3.33 3.33 0 0 1 3.25 0l2.25 1.25-7.19 4.31a2.5 2.5 0 0 0-1.23 2.27Zm13.02 4.2c0 1.14-.56 2.28-1.57 2.84l-5.17 3.07a3.33 3.33 0 0 1-3.25 0l-2.25-1.36 7.19-4.2a2.62 2.62 0 0 0 1.23-2.27v-8.3l2.25 1.37a3.24 3.24 0 0 1 1.57 2.84v6.02Z" fill="#084DBC"/></svg>