<!-- by TradingView --><svg width="56" height="56" viewBox="0 0 56 56" xmlns="http://www.w3.org/2000/svg"><path fill="#003289" d="M0 0h56v56H0z"/><path d="m47.8 27.89-2.26.15a1.32 1.32 0 0 0-.76-.98 1.6 1.6 0 0 0-.73-.16c-.38 0-.7.09-.97.27a.8.8 0 0 0-.4.69c0 .23.1.43.26.59.17.16.46.28.88.38l1.6.35c.87.2 1.52.5 1.94.94.43.43.64.99.64 1.69 0 .63-.17 1.2-.52 1.67-.34.48-.8.85-1.4 1.12-.59.27-1.27.4-2.04.4a4.52 4.52 0 0 1-2.82-.8A3.17 3.17 0 0 1 40 32l2.43-.13c.07.39.25.68.53.9.28.2.64.3 1.08.3.44 0 .78-.1 1.05-.28.26-.18.4-.42.4-.71 0-.24-.1-.44-.28-.6a1.95 1.95 0 0 0-.86-.37l-1.54-.33a3.57 3.57 0 0 1-1.94-.98 2.56 2.56 0 0 1-.63-1.79c0-.62.15-1.16.46-1.6.31-.46.75-.8 1.32-1.05A5.02 5.02 0 0 1 44 25c1.12 0 2 .26 2.65.77a3.06 3.06 0 0 1 1.14 2.12ZM35 35V25h2.5v10H35Zm1.22-11.16a1.4 1.4 0 0 1-1.42-1.37c0-.38.14-.7.42-.97.28-.27.61-.4 1-.4.4 0 .73.13 1 .4.28.27.42.6.42.97 0 .38-.14.7-.42.97-.27.27-.6.4-1 .4ZM32.5 22v13H30V22h2.5ZM23.5 35c-.92 0-1.72-.2-2.4-.62-.67-.42-1.19-1-1.55-1.76a5.93 5.93 0 0 1-.55-2.61c0-1 .18-1.88.55-2.63A4.13 4.13 0 0 1 23.5 25a4.12 4.12 0 0 1 3.95 2.38c.37.75.55 1.63.55 2.63 0 .99-.18 1.86-.55 2.61A4.17 4.17 0 0 1 23.5 35Zm.01-2.08c.42 0 .77-.13 1.06-.38.28-.26.49-.6.63-1.05.15-.44.22-.94.22-1.5 0-.57-.07-1.07-.22-1.5a2.36 2.36 0 0 0-.63-1.06 1.5 1.5 0 0 0-1.06-.38c-.42 0-.78.13-1.07.38-.29.26-.5.6-.65 1.05-.14.44-.21.94-.21 1.5 0 .57.07 1.07.21 1.51.15.45.36.8.65 1.05.29.25.65.38 1.07.38ZM15.27 25.1a1.72 1.72 0 0 0-.64-1.25c-.37-.3-.88-.44-1.52-.44-.44 0-.8.06-1.1.2-.3.13-.54.3-.7.54-.16.23-.23.49-.23.78-.01.24.03.46.14.64.1.18.25.34.44.47.18.13.4.24.64.34.24.1.5.17.78.24l1.13.3c.55.13 1.06.3 1.52.52.46.23.86.5 1.2.82.34.33.6.7.78 1.15.2.44.29.94.3 1.5-.01.84-.2 1.56-.6 2.17-.39.61-.95 1.08-1.68 1.42-.73.33-1.6.5-2.64.5a6.52 6.52 0 0 1-2.66-.5A3.97 3.97 0 0 1 8.66 33 4.73 4.73 0 0 1 8 30.53h2.59c.03.46.15.84.36 1.14.22.3.51.53.87.69.37.15.78.23 1.24.23a3 3 0 0 0 1.18-.22c.34-.14.6-.34.79-.59.18-.25.28-.54.28-.87 0-.3-.09-.56-.26-.77-.16-.21-.4-.39-.73-.53-.31-.15-.7-.28-1.16-.4l-1.38-.38a5.62 5.62 0 0 1-2.53-1.3c-.61-.6-.92-1.4-.92-2.4 0-.83.2-1.55.61-2.17.42-.61 1-1.1 1.72-1.44a5.66 5.66 0 0 1 2.47-.52c.93 0 1.75.17 2.45.52.7.34 1.25.83 1.65 1.44.39.62.59 1.33.6 2.14h-2.56Z" fill="#fff"/></svg>