<!-- by TradingView --><svg width="56" height="56" viewBox="0 0 56 56" xmlns="http://www.w3.org/2000/svg"><path fill="#F0F3FA" d="M0 0h56v56H0z"/><path d="M29 12a63.8 63.8 0 0 0 7.09 6.44 57.97 57.97 0 0 1 7.85 7.7A16.16 16.16 0 0 0 29 12ZM44 28.27a16.01 16.01 0 1 1-31.77-3.03c.93-1.93 2.8-3.24 6.24-3.24 3.53 0 7.91 1.89 9.67 3.03l-.8-1.99c1.32.66 4.48 2.48 6.54 4.47.95 0 2.54.74 2.58 1.04.04.24.02.83 0 1.09 1.04.93 3.32 3.25 4.11 5.11.6 0 .45-.6.23-1.1-.18-.39-2-4.04-2.83-5.65.52.23 1.99 1.5 3.15 3.34.49.78.99 1.38 1.18 1.59-.47-1.47-2.41-5.23-6.37-8.56 0-.8.71-.69.88-.57l.15.14c.43.4 1.59 1.48 2.18 1.09.56-.37.5-1.2.4-1.56 1.07.9 3.15 2.9 4.46 4.8Z" fill="#008CC8"/></svg>