<!-- by TradingView --><svg width="56" height="56" viewBox="0 0 56 56" xmlns="http://www.w3.org/2000/svg"><path fill="#F0F3FA" d="M0 0h56v56H0z"/><path d="M33.37 37.57a13.23 13.23 0 0 0 3.47-4.64 12.77 12.77 0 0 0 .7-9.06 12.45 12.45 0 0 0-14.71-8.7c-.27.06-.5.08-.69.09-.08 0-.09-.03-.03-.09.98-1.02 2.17-1.9 3.58-2.66 4.35-2.33 9.53-2.1 13.02 1.65 3.76 4.04 3.88 10.36 1.8 15.3a17.05 17.05 0 0 1-7 8.17.06.06 0 0 1-.06 0l-.07-.03c-.02 0-.02-.01 0-.03Z" fill="#1A68B2"/><path d="M33.23 18.34c0 .02 0 .03-.03.02-1.8-.72-3.64-1-5.54-.83a11.3 11.3 0 0 0-7.76 3.91c-4.39 4.97-4.04 12.69.25 17.75.18.21.32.4.42.58.03.07.02.1-.06.08a13.82 13.82 0 0 1-3.97-1.93c-4.09-2.8-6.5-7.63-5.18-12.69 1.42-5.45 6.54-8.72 11.63-9.3a15.7 15.7 0 0 1 10.2 2.28l.02.05.02.08Z" fill="#4EA4DA"/><path d="M17.55 28.1a13.72 13.72 0 0 0 2.11 5.5 11.53 11.53 0 0 0 7.1 5.13c6.27 1.53 12.44-2.65 14.46-9.1.08-.27.17-.5.27-.67.04-.07.07-.07.08 0 .35 1.41.49 2.95.4 4.6-.25 5.14-3.01 9.76-7.83 11.09-5.19 1.42-10.44-1.62-13.45-5.98a17.96 17.96 0 0 1-3.23-10.46c0-.03.01-.05.03-.06l.06-.05Z" fill="#04348C"/></svg>