<!-- by TradingView --><svg width="56" height="56" viewBox="0 0 56 56" xmlns="http://www.w3.org/2000/svg"><path fill="#F0F3FA" d="M0 0h56v56H0z"/><path d="M16.4 39.27a4.77 4.77 0 0 1-.01-6.74l6.14-6.17 4 4-5.55 5.55 4.7 4.7L21.15 44l-4.75-4.73Z" fill="#FF2D1D"/><path d="M22.77 13.55a4.88 4.88 0 0 1 6.87 0l5.27 5.43c.83.83.71 1.97-.12 2.8l-4.95 5.13-3.93-3.9 3.13-3.14-6.27-6.32Z" fill="#00D829"/><path d="m40 25 4 4-4 4-4-4 4-4Z" fill="#0091FA"/><path d="M31.74 33.39 21.15 43.98h8.35l6.24-6.6-4-3.99Z" fill="#6942F9"/><path d="m26.47 22.4 3.99 4-4 3.99-3.99-4 4-3.99Z" fill="#FFD131"/><path d="M29.3 13.41a4.82 4.82 0 0 0-6.82 0l-2.5 2.5.01.02-2.37 2.48a2.12 2.12 0 0 0 0 3.01l4.89 5 3.99-3.98-3.2-3.21 6-5.82Z" fill="#FF8E27"/><path d="M30.4 26.33 42 38l-4 4-11.6-11.68 4-3.99Z" fill="#00B9FB"/></svg>