<!-- by TradingView --><svg width="56" height="56" viewBox="0 0 56 56" xmlns="http://www.w3.org/2000/svg"><path fill="#F0F3FA" d="M0 0h56v56H0z"/><path d="M47 28h1.13l1.34 2.21h.06L50.87 28H52l-2 3.13V33h-1v-1.87L47 28ZM44.04 33H43l1.9-5h1.2l1.9 5h-1.04l-1.44-3.97L44.04 33Zm.04-2h2.84v1h-2.84v-1ZM37.48 33 36 28h1.02l.95 3.67h.05L39.03 28h.94l1.01 3.68h.05l.95-3.68H43l-1.48 5h-.95l-1.05-3.5h-.04L38.43 33h-.95ZM30.02 29.4c-.05-.41-.42-.65-.98-.65-.4 0-.94.15-.95.63 0 .45.54.59.89.67.83.2 2.02.44 2.02 1.51 0 1.06-1.09 1.44-1.98 1.44-.96 0-1.97-.42-2.02-1.5h.93c.04.55.6.75 1.09.75.42 0 1-.16 1-.69 0-.45-.55-.6-.9-.68-.8-.2-1.98-.4-1.98-1.45 0-1 1.05-1.43 1.91-1.43.85 0 1.86.43 1.88 1.4h-.91ZM34.52 29.4c-.05-.41-.42-.65-.98-.65-.4 0-.94.15-.95.63 0 .45.54.59.89.67.83.2 2.02.44 2.02 1.51 0 1.06-1.09 1.44-1.98 1.44-.96 0-1.97-.42-2.02-1.5h.93c.04.55.6.75 1.09.75.42 0 1-.16 1-.69 0-.45-.55-.6-.9-.68-.8-.2-1.98-.4-1.98-1.45 0-1 1.05-1.43 1.91-1.43.85 0 1.86.43 1.88 1.4h-.91ZM18 33v-5h1.96c.99 0 1.85.69 1.85 1.75 0 1.07-.88 1.75-1.86 1.75h-1.4v-1h1.27c.54 0 1.02-.15 1.02-.75s-.48-.75-1.02-.75H19v4h-1Zm2.7-2.27L22 33h-1.06l-1.27-2.27h1.03ZM13 33v-5h2.06c1 0 1.94.66 1.94 1.75 0 1.1-.94 1.75-1.95 1.75h-1.37v-.93h1.23c.57 0 1.08-.2 1.08-.82 0-.62-.51-.75-1.08-.75H14v4h-1ZM8.71 28l1.26 1.83h.05L11.29 28h1.18l-1.76 2.5L12.5 33h-1.2l-1.28-1.82h-.05L8.7 33H7.5l1.81-2.5L7.52 28h1.2ZM4 33v-5h3v1H5v1h2v1H5v1h2v1H4ZM23 33v-5h3v1h-2v1h2v1h-2v1h2v1h-3ZM39 21h1v3.22c0 1.12-.94 1.78-2 1.78s-2-.66-2-1.78V21h1v3c0 .63.38 1 1 1s1-.36 1-1v-3ZM30.5 21h1.13l1.34 2.21h.06L34.37 21h1.13l-2 3.13V26h-1v-1.87l-2-3.13ZM27.04 26H26l1.9-5h1.2l1.9 5h-1.04l-1.44-3.97h-.04L27.04 26Zm.04-1.96h2.84V25h-2.84v-.96ZM24 21h1v3.22c0 1.12-.94 1.78-2 1.78s-2-.66-2-1.78V21h1v3c0 .63.38 1 1 1s1-.36 1-1v-3ZM16 26v-5h1v2h2v-2h1v5h-1v-2h-2v2h-1Z"/></svg>