<!-- by TradingView --><svg width="56" height="56" viewBox="0 0 56 56" xmlns="http://www.w3.org/2000/svg"><path fill="#F0F3FA" d="M0 0h56v56H0z"/><path d="M24 29c.55.2 2.13.63 4 .63s3.45-.42 4-.63c-.62.64-2.93.93-4 1-1.07-.07-3.38-.36-4-1Z" fill="#272C50"/><path d="M27.99 12c-4.42 0-9.86 2.77-10.75 3.6.65 1.62 0 4.43-.42 5.63L28 15.6l11.16 5.63c-.41-1.2-1.07-4-.42-5.63-.89-.83-6.33-3.6-10.75-3.6Z" fill="#982328"/><path d="M11.76 31.92a.6.6 0 0 1-.12-.3c-.07-.59 0-1.2.21-1.8.1-.3.17-.52.24-.8.16-.64-.22-.94-.65-1.34-.46-.42-.56-.94-.3-1.55.14-.34.27-.62.4-.86a.98.98 0 0 0 .08-.34c0-.33.11-.63.26-.93a1 1 0 0 0 0 .59c.09.22.15.36.19.42l.84 1.3c.18.3.32.62.42.97.3 1.07-.34 1.96-.96 2.72-.09.1-.16.22-.2.34-.2.5-.32 1.02-.36 1.56 0 .05-.02.06-.05.02ZM15.41 32.21c-.31-.44-.75-.3-1 .1s-.37.84-.34 1.3c.03.55.16 1.07.4 1.55.18.37.44.64.8 1.08.17.19.14.23-.08.12a9.32 9.32 0 0 1-1.2-.7 4.02 4.02 0 0 1-1.77-3.08c-.05-.62.1-1.37.51-1.8.6-.62 1.66-.55 2.3-.1.32.21.54.55.68 1 .1.34.08.69-.05 1.03a.53.53 0 0 1-.1.2c-.13.1-.17.08-.13-.09.05-.2.1-.43-.02-.6Z" fill="#272C50"/><path d="M13.62 37.4c.15-.1.14-.14-.04-.13a1.9 1.9 0 0 1-1.08-.31c-.25-.16-.2-.37-.2-.64a.08.08 0 0 0-.04-.07 1.2 1.2 0 0 1-.5-.77c-.23-.95-.38-1.9-.43-2.84 0-.17 0-.3.02-.37.06-.18.12-.18.18 0 .04.12.07.24.09.37.01.1.05.22.1.37a6.69 6.69 0 0 0 2.36 3.07c.82.6 1.8 1.1 2.9 1.5 1.1.4 1.88.64 2.36.72 1.46.26 2.36.4 3.58.7.66.17 1.21.36 1.65.57.86.42 1.63.96 2.3 1.63.3.28.56.62.79 1.02.12.22.2.43.26.65 0 .02 0 .04-.02.04h-.05a6.56 6.56 0 0 0-1.78-1.97c-.14-.11-.32-.21-.56-.32l-1.54-.7a7.32 7.32 0 0 0-1.43-.4c-1.3-.27-2.63-.38-3.98-.33-.67.02-1.4.17-2.04.22a4.76 4.76 0 0 1-2.03-.24c-.1-.04-.23-.1-.37-.19-.15-.09-.22-.3-.33-.37-.31-.2-.58-.44-.8-.72a.89.89 0 0 1-.15-.26c-.02-.05.02-.1.06-.1.33 0 .57-.05.72-.14Z" fill="#272C50"/><path d="M16.51 35.95c-.13-.27-.15-.27-.09-.01.13.46.36.86.7 1.22.07.08.06.1-.05.06a6.76 6.76 0 0 1-.5-.2 2.02 2.02 0 0 1-1.18-1.45c-.17-.73-.04-1.4.39-2.03.07-.1.18-.33.34-.7.06-.13.01-.28.02-.38.01-.05.03-.07.06-.07.27-.02.36.63.37.85 0 .08.03.14.1.17l.48.24c.37.19.57.49.6.9 0 .1-.02.23-.08.41a1.2 1.2 0 0 0-.02.68c.02.08.03.08.05 0 .06-.36 0-.58.34-.82.1-.07.13-.04.1.08-.03.16-.05.27.06.4.09.1.24.26.3.42.1.24.13.52.08.83a4.17 4.17 0 0 0-.08 1.08.04.04 0 0 1-.04 0c-.31-.12-.6-.27-.89-.45-.47-.3-.82-.74-1.06-1.23ZM20.49 37.33c0-.06 0-.14-.03-.22a.84.84 0 0 1-.04-.2c0-.4.29-.71.67-.76.36-.05.64.1.84.45.01.02-.01.06-.04.05l-.4-.04a.1.1 0 0 0-.09.03.87.87 0 0 0-.17.21c-.15.26.24.52.45.56.8.15 1.68.56 2.08 1.34l.01.03c0 .05-.07.05-.1.04a.13.13 0 0 1-.06-.03c-.37-.29-.77-.45-1.2-.48l-.82-.04c-.38-.02-.75-.1-1.1-.23a1.61 1.61 0 0 1-1.1-1.42l-.06-.95a1.3 1.3 0 0 0-.52-1.03c-.08-.06-.07-.1.02-.11l.07.02c.52.22.88.42 1.08.6a1 1 0 0 1 .35.9c-.04.35-.06.62-.06.8 0 .18.06.34.19.49.02.02.03.02.03-.02ZM27.05 41.01l-.79-.71c-.1-.1-.3-.25-.56-.45-.42-.31-.87-.49-1.36-.72-.35-.17-.42-.49-.6-.87-.23-.48-.6-.67-1.04-.92-.1-.06.05-.1.1-.09a5 5 0 0 1 1.92 1.02c.96.8 1.79 1.71 2.5 2.71.06.1.04.13-.07.1a.42.42 0 0 1-.1-.07ZM25.1 40.95c-.21-.13-.47-.14-.75-.15a2.8 2.8 0 0 0-1.57.37c-.5.3-1.04.67-1.69.72-.56.05-1 .03-1.34-.06a2.4 2.4 0 0 1-1.63-1.4c0-.17.38.06.43.08.35.17.9.12 1.28.02l1.24-.32a4.86 4.86 0 0 1 3.1.03c.5.16.84.38 1.06.65.15.19.32.2.53.3.04.02.07.05.07.1 0 .02-.02.04-.05.04-.35 0-.62 0-.8.04-.35.07-.66.19-.94.36-.17.1-.36.27-.57.52-.27.3-.43.5-.5.59-.32.41-1.01.38-1.4.17-.2-.1-.37-.2-.53-.32-.19-.13-.17-.2.05-.23.48-.06.87-.22 1.28-.5.24-.18.58-.4 1.02-.68.49-.3 1.09-.3 1.67-.23.15.01.16-.02.03-.1Z" fill="#272C50"/><path d="M25.77 42.74c-.16.02-.3.15-.4.37-.11.2-.2.51-.35.67-.19.2-.43.26-.72.19a.85.85 0 0 1-.66-.7c-.14-.62.04-1.09.53-1.4.15-.1.39-.18.7-.24a2.45 2.45 0 0 1 2.54 1c.25.34.43.66.53.97.1.29.08.33-.07.12-.02-.04-.1-.12-.21-.25-.56-.61-1.19-.85-1.89-.73ZM44.24 31.92a.6.6 0 0 0 .12-.3c.07-.59 0-1.2-.21-1.8-.1-.3-.17-.52-.24-.8-.16-.64.22-.94.65-1.34.46-.42.56-.94.3-1.55-.14-.34-.27-.62-.4-.86a.98.98 0 0 1-.08-.34c0-.33-.11-.63-.26-.93a1 1 0 0 1 0 .59c-.09.22-.15.36-.19.42l-.84 1.3c-.18.3-.32.62-.42.97-.3 1.07.34 1.96.96 2.72.09.1.16.22.2.34.2.5.32 1.02.36 1.56 0 .05.02.06.05.02ZM40.59 32.21c.31-.44.75-.3 1 .1s.37.84.34 1.3a3.95 3.95 0 0 1-.4 1.55c-.18.37-.44.64-.8 1.08-.17.19-.14.23.09.12.44-.22.83-.45 1.19-.7a4.02 4.02 0 0 0 1.77-3.08c.05-.62-.1-1.37-.51-1.8-.6-.62-1.66-.55-2.3-.1-.32.21-.54.55-.68 1-.1.34-.08.69.05 1.03.03.1.07.16.1.2.13.1.17.08.13-.09-.05-.2-.1-.43.02-.6Z" fill="#272C50"/><path d="M42.38 37.4c-.15-.1-.14-.14.04-.13.38 0 .74-.1 1.08-.31.25-.16.2-.37.2-.64 0-.03.02-.06.04-.07.25-.16.42-.42.5-.77.24-.95.38-1.9.43-2.84 0-.17 0-.3-.02-.37-.06-.18-.12-.18-.18 0-.04.12-.07.24-.09.37-.01.1-.05.22-.1.37a6.69 6.69 0 0 1-2.36 3.07c-.82.6-1.8 1.1-2.9 1.5-1.1.4-1.88.64-2.36.72-1.46.26-2.36.4-3.58.7-.66.17-1.21.36-1.65.57-.86.42-1.63.96-2.3 1.63-.3.28-.56.62-.79 1.02-.12.22-.2.43-.26.65 0 .02 0 .04.02.04h.05a6.57 6.57 0 0 1 1.78-1.97c.14-.11.32-.21.56-.32l1.54-.7c.26-.13.74-.26 1.43-.4 1.3-.27 2.63-.38 3.98-.33.67.02 1.4.17 2.04.22.73.07 1.4-.02 2.03-.24.1-.04.23-.1.37-.19.15-.09.22-.3.33-.37.31-.2.58-.44.8-.72a.89.89 0 0 0 .15-.26c.02-.05-.02-.1-.06-.1a1.5 1.5 0 0 1-.72-.14Z" fill="#272C50"/><path d="M39.49 35.95c.13-.27.15-.27.09-.01-.13.46-.36.86-.7 1.22-.07.08-.06.1.05.06l.5-.2c.63-.3 1.03-.78 1.18-1.45.17-.73.04-1.4-.39-2.03-.07-.1-.18-.33-.34-.7-.06-.13-.01-.28-.02-.38-.01-.05-.03-.07-.06-.07-.27-.02-.36.63-.37.85 0 .08-.03.14-.1.17l-.48.24c-.37.19-.57.49-.6.9 0 .1.02.23.08.41.07.24.08.46.02.68-.02.08-.03.08-.05 0-.06-.36 0-.58-.34-.82-.1-.07-.13-.04-.1.08.03.16.05.27-.06.4-.09.1-.24.26-.3.42-.1.24-.13.52-.08.83a4.17 4.17 0 0 1 .08 1.08l.02.01h.02c.31-.13.6-.28.89-.46.47-.3.82-.74 1.06-1.23ZM35.51 37.33c0-.06 0-.14.03-.22l.04-.2c0-.4-.29-.71-.67-.76-.36-.05-.64.1-.84.45-.01.02.01.06.04.05l.4-.04a.1.1 0 0 1 .09.03c.07.06.12.13.17.21.15.26-.24.52-.45.56-.8.15-1.68.56-2.08 1.34l-.01.03c0 .05.07.05.1.04l.06-.03c.37-.29.77-.45 1.2-.48l.82-.04c.38-.02.75-.1 1.1-.23a1.61 1.61 0 0 0 1.1-1.42l.06-.95c.02-.44.2-.78.52-1.03.08-.06.07-.1-.02-.11l-.07.02c-.52.22-.88.42-1.08.6a1 1 0 0 0-.35.9c.04.35.06.62.06.8 0 .18-.06.34-.19.49-.02.02-.03.02-.03-.02ZM28.95 41.01l.79-.71c.1-.1.3-.25.56-.45.42-.31.87-.49 1.36-.72.35-.17.42-.49.6-.87.23-.48.6-.67 1.04-.92.1-.06-.05-.1-.1-.09a5 5 0 0 0-1.92 1.02c-.96.8-1.79 1.71-2.5 2.71-.06.1-.04.13.07.1.02 0 .05-.02.1-.07ZM30.9 40.95c.21-.13.47-.14.75-.15a2.8 2.8 0 0 1 1.57.37c.5.3 1.04.67 1.69.72.56.05 1 .03 1.34-.06a2.4 2.4 0 0 0 1.63-1.4c0-.17-.38.06-.43.08-.35.17-.9.12-1.28.02l-1.24-.32a4.86 4.86 0 0 0-3.1.03c-.5.16-.84.38-1.06.65-.15.19-.32.2-.53.3-.04.02-.07.05-.07.1 0 .02.02.04.05.04a2.84 2.84 0 0 1 1.74.4c.17.1.36.27.57.52.27.3.43.5.5.59.32.41 1.01.38 1.4.17.2-.1.37-.2.53-.32.2-.13.17-.2-.05-.23a2.67 2.67 0 0 1-1.28-.5c-.24-.18-.58-.4-1.02-.68-.49-.3-1.09-.3-1.67-.23-.15.01-.16-.02-.03-.1Z" fill="#272C50"/><path d="M30.23 42.74c.16.02.3.15.4.37.11.2.2.51.35.67.19.2.43.26.72.19.36-.1.58-.33.66-.7.14-.62-.04-1.09-.53-1.4-.15-.1-.39-.18-.7-.24a2.45 2.45 0 0 0-2.54 1c-.25.34-.43.66-.53.97-.1.29-.08.33.07.12.02-.04.1-.12.21-.25.56-.61 1.19-.85 1.89-.73Z" fill="#272C50"/><path d="m28 19 .7 1.53H31l-1.85.94.7 1.53-1.85-.94-1.85.94.7-1.53-1.85-.94h2.3L28 19Z" fill="#982328"/><path d="m27.23 26.82-10.3-5.4h-.13c-.42 1.2-1.25 4.16-1.25 6.3 0 2.7 1.85 5.74 5.86 7.46 2 .86 5.7 4.52 6.6 5.97.9-1.45 4.6-5.1 6.6-5.97 4.01-1.72 5.86-4.76 5.86-7.45 0-2.13-.82-5.04-1.24-6.27L34.7 23.8l-5.05-2.05L34 24v2.82a.58.58 0 0 1 0 1.12v2.56h-.41v-2.6a.58.58 0 0 1 0-1.03V24.4l-.59.3V29c-.2.64-1.55 1.5-5 1.5s-4.7-.86-5-1.5v-3.79l4.23 1.6Z" fill="#272C50"/></svg>