<!-- by TradingView --><svg width="56" height="56" viewBox="0 0 56 56" xmlns="http://www.w3.org/2000/svg"><path fill="#F0F3FA" d="M0 0h56v56H0z"/><path d="M19.39 33.83h.02l.01-.02a.04.04 0 0 0 0-.04c-.46-.4-.8-.68-1.03-.86-.05-.04-.17-.02-.36.05a.1.1 0 0 1-.11-.03l-.08-.1c-.22-.29-.5-.65-.66-.98a7.6 7.6 0 0 1-.8-4.34c.22-2 .65-4.14 1.3-6.44.05-.2.01-.3-.08-.48a440.62 440.62 0 0 0-1.05-2.02l-.12-.08a.07.07 0 0 0-.08.01.07.07 0 0 0-.02.08l.63 1.6.01.03a.09.09 0 0 1-.05.08l-.05.02h-.04a7.76 7.76 0 0 1-.8-1.6c-.23-1.03 0-1.8.7-2.33.65-.48 1.53-.5 2.2-.1.6.37 1.1.9 1.5 1.58.7 1.23.7 2.85.22 4.18a.26.26 0 0 0 0 .17c.01.06.05.1.1.13.85.55 1.73.97 2.63 1.26l.5.16c.54.16.88.27 1.17.49.04.02.06.06.06.1.02.2.02.41.01.67 0 .3-.3.55-.5.67-.76.41-1.65.84-2.67 1.29-.2.08-.4.1-.6.11-.18.01-.36.03-.54.1l-.93.3c-.25.07-.31.16-.43.34l-.04.07a.23.23 0 0 1-.11.08.58.58 0 0 0-.4.5c-.2 1.57.34 2.74 1.64 3.5a7.54 7.54 0 0 0 4.32 1.16c.25-.01.45.02.63.1.56.26 1.05.84 1.36 1.37.18.32.27.68.27 1.08s-.05.91-.16 1.5c-.06.33-.24.42-.52.57l-.01.01c-.61.33-1.07.3-1.65-.11a5.18 5.18 0 0 0-.88-.56 49.43 49.43 0 0 0-6.4-1.84c-.83-.17-.82-.3.01-.37a6 6 0 0 1 1.48-.1h.46c.38-.02.39-.1.03-.24-.52-.2-.92-.63-1.19-1.29-.02-.06 0-.1.06-.1.1-.01.18.02.25.1.34.33.6.52.79.57Zm-2.44-15.31.86 1.54c0 .02.02.03.04.04a.1.1 0 0 0 .11 0 .12.12 0 0 0 .04-.04c.1-.18.1-.38.03-.6-.14-.42-.33-.89-.56-1.4-.1-.21-.23-.24-.4-.07l-.06.07a.4.4 0 0 0-.06.46Zm3.48 5.42c-.1-.06-.17-.03-.22.08-.22.45-.42.9-.6 1.35-.17.41-.21.83-.14 1.25.01.08.05.1.12.07a5.56 5.56 0 0 0 1.97-1.6.38.38 0 0 0 .05-.3.38.38 0 0 0-.17-.24l-1-.6Zm-3.33 2.2h.05c.02 0 .04-.02.05-.04a.25.25 0 0 0 .04-.06.35.35 0 0 0 .02-.23c-.01-.04-.04-.07-.07-.08h-.05a.14.14 0 0 0-.05.04.25.25 0 0 0-.04.06.35.35 0 0 0-.02.23c.02.05.04.08.07.08Zm-.06.84c.06-.05.14-.07.25-.06.1 0 .15-.04.16-.15l.02-.18c0-.04 0-.08-.03-.1a.14.14 0 0 0-.1-.06l-.28-.03c-.06 0-.09.02-.1.07l-.16 1.7v.03l.03.02a.05.05 0 0 0 .06 0l.42-.33a.1.1 0 0 0 .04-.05.1.1 0 0 0 0-.05l-.04-.37c0-.05-.03-.1-.09-.1a.3.3 0 0 1-.21-.2.13.13 0 0 1 .03-.14Zm1.15 3.97-.34-1.48a.02.02 0 0 0-.03-.02c-.05.02-.08.1-.08.25s.02.34.07.54v.05a2.9 2.9 0 0 0 .18.5c.03.07.06.12.1.15.02.03.05.05.07.04h.02a.02.02 0 0 0 0-.02Zm-.49.23c-.14-.5-.31-1.02-.54-1.54-.06-.15-.1-.14-.14.02-.03.1-.02.22.02.37.2.68.48 1.34.85 1.98.04.08.09.08.15.03a55.63 55.63 0 0 1-.2-.48c-.05-.08-.1-.2-.14-.38Zm18.85-7.4c.15-.22.1-.28-.13-.15-.71.4-1.49.74-2.33 1.05-.32.11-.65.06-.99-.15a6.5 6.5 0 0 1-2.35-2.62 2.55 2.55 0 0 1-.27-.82c0-.06.01-.1.05-.13.14-.12.32-.14.55-.07l.26.08c.52.17.95.3 1.42.26a5.46 5.46 0 0 0 1.8-.48c.87-.4 1.62-.71 2.25-.94l3.83-1.24a5 5 0 0 1 1.45-.28c.58 0 1.07.02 1.48.08.88.12 1.65.45 2.31.98.47.38.53 1.23.37 1.75-.16.54-.84 1.05-1.38 1.35-.24.13-.55.2-.93.21-.11 0-.44.03-.98.1-.4.03-.83 0-1.3-.13-.22-.05-.28.03-.19.25.04.1.11.21.2.34.15.21.35.32.6.34.5.04.9.08 1.21.14.5.1.64.42.85.92l.02.05.06.06.94.57a.2.2 0 0 1 .09.1c.01.03.02.08.01.12l-.03.19c-.1.67-.2 1.3-.57 1.76l-.59.7c-.3.36-.3.67.02.94.07.07.12.17.13.27.02.1 0 .21-.07.3-.1.16-.3.44-.6.83a.77.77 0 0 1-.6.32c-.14.01-.62-.09-1.41-.28-.15-.04-.23.02-.24.17l-.03.26c0 .07.01.15.06.2.04.06.1.1.18.12.4.06 1.2.21 2.44.44 1.08.2 1.87.4 2.38.62.74.3 1.49.67 2.24 1.12.26.16.53.4.68.7.37.77.56 1.53.56 2.3 0 .25-.07.43-.22.56a1.7 1.7 0 0 1-1.51.36 4.74 4.74 0 0 1-1-.36l-.92-.55a3.26 3.26 0 0 0-1.95-.5c-.84.06-1.75.08-2.72.05-.54 0-.56-.11-.05-.3l.04-.02a3.04 3.04 0 0 0 1.36-.82.08.08 0 0 0-.03-.1c-.9-.49-2.07-.58-3.08-.52-.38.02-.96.09-1.71.19a10.26 10.26 0 0 0-6.27 3.28 1.1 1.1 0 0 1-.22.06c-.93.19-1.6-.16-2-1.04l-.58-1.22c-.16-.35-.23-.63-.19-.83.1-.5.5-1.28 1.03-1.4l.38-.06c.17-.03.35-.06.53-.11 1.27-.34 2.48-.7 3.66-1.05.22-.07.36-.14.43-.2.13-.12.19-.3.17-.51l-.01-.04a.08.08 0 0 0-.04-.03.07.07 0 0 0-.07.02c-.37.34-.78.6-1.25.78-.26.1-.43.08-.52-.05a2.3 2.3 0 0 1-.16-.46 1.8 1.8 0 0 1 .07-1.35 13.36 13.36 0 0 1 .72-1.3c0-.03 0-.06-.02-.08a.12.12 0 0 0-.05-.04.11.11 0 0 0-.07-.01.92.92 0 0 1-.64-.17c-.16-.11-.25-.3-.27-.55-.04-.8.3-1.33 1-1.63l1.5-.61c.34-.14.53-.43.64-.83.13-.43.32-.85.57-1.25Zm6.16 2.76a.05.05 0 0 0 0-.04.05.05 0 0 0-.02-.03.26.26 0 0 0-.2 0c-.43.18-.95.44-1.56.78-.41.24-.76.17-1.05-.21a.79.79 0 0 1-.17-.53c.04-.69.06-1.37.04-2.07a1 1 0 0 1 .26-.75l.38-.43c.06-.16.08-.26.06-.31-.05-.13-.14-.17-.26-.13-1.17.4-2.54 1.47-2.68 2.85-.02.19-.08.33-.13.45-.1.22-.18.4.02.71.03.04.03.1.02.14-.11.35-.3.6-.58.74-.37.18-.88.36-1.52.52a.24.24 0 0 0-.18.23c0 .04.01.08.03.11.22.52.57.75 1.06.69.25-.03.44-.01.55.05.24.14.31.38.22.74a37.58 37.58 0 0 0-.34 1.47l.02.05a.13.13 0 0 0 .11.05c.76-.05 1.42-.14 1.98-.27.48-.1.84-.39 1.09-.84.18-.33.29-.53.32-.61a.2.2 0 0 0 .02-.15.96.96 0 0 0-.27-.44.37.37 0 0 1-.03-.5c.27-.33.61-.6 1.02-.8l.69-.36c.44-.3.8-.67 1.1-1.1Zm-5.86 5.72a.1.1 0 0 1 .05-.06.1.1 0 0 1 .08 0c.14.06.28.07.41.02l.01-.01.01-.02a.04.04 0 0 0 0-.03l-.08-.06a.09.09 0 0 0-.07-.02l-.64.08c-.05 0-.08.04-.07.1v.05c.01.04.03.07.07.08.12.02.2-.02.23-.13Zm-2.42.35c-.39.08-.87.24-1.44.48a.76.76 0 0 1-.17.05c-.09.01-.15.02-.19.04-.18.06-.18.11.01.15a.71.71 0 0 0 .3-.03c.7-.3 1.34-.49 1.95-.57.05-.01.07-.04.07-.09-.02-.12-.04-.19-.08-.22a.12.12 0 0 0-.07-.01.1.1 0 0 0-.06.02c-.1.1-.2.16-.32.18Zm3.68 1.3a12.12 12.12 0 0 1 .6-.05v-.06l-.03-.01-.07-.02c-.17-.05-.4-.11-.53-.1-.14.03-.36.16-.51.26l-.05.03-.02.02v.03l.02.03h.03l.56-.14Zm-23.2-4.06a43.34 43.34 0 0 1 .06-5.05c0-.06.02-.13.06-.18.04-.06.1-.1.16-.12.37-.15.72-.38 1.03-.7a.38.38 0 0 0 .07-.4 2.5 2.5 0 0 1-.2-1.04.33.33 0 0 0-.1-.23 5.67 5.67 0 0 0-2.2-1.45c-.94-.33-1.64-.58-2.1-.76-.27-.1-.55-.06-.84.11-.54.31-.47 1.04-.14 1.48.03.04.08.07.13.08a.2.2 0 0 0 .16-.04c.22-.16.43-.26.63-.3.07-.01.14 0 .2.03.06.04.11.1.13.17.17.47.25.98.25 1.53 0 .45 0 .74-.04.87-.08.31-.3.54-.64.67-1.3.51-2.6.96-3.92 1.35-.48.15-.85.14-1.4.12a.2.2 0 0 0-.15.06.22.22 0 0 0-.06.17c.02.24.13.54.32.88l.81 1.37c.4.65.98.92 1.72.8a.4.4 0 0 0 .25-.15c.06-.08.1-.18.09-.28a.82.82 0 0 1 .27-.62c.5-.5 1-.93 1.51-1.3.22-.15.6-.3 1.14-.46.06-.01.1.01.1.06.04.1.07.21.08.33 0 .07-.05.18-.16.33l-1.43 1.77a.23.23 0 0 1-.3.06l-.66-.4a.1.1 0 0 0-.08-.01.1.1 0 0 0-.05.04.09.09 0 0 0-.01.1c.04.1.14.22.29.37.26.27.33.6.23.98l-.35.5a.78.78 0 0 1-.17.14c-.1.06-.12.14-.1.24.02.06.06.08.11.07.16-.02.25-.12.26-.28 0-.05.02-.1.07-.13l.65-.48c.04-.04.1-.04.15-.03.36.11.56.31.6.6v1.26c0 .32-.09.65-.31.82-.5.39-1.06.74-1.7 1.06a.18.18 0 0 1-.25-.1.19.19 0 0 1 0-.11l.5-2.07c.07-.25 0-.3-.18-.14l-.12.15A16.23 16.23 0 0 0 7.54 35l.02.08c.36.71.86 1.26 1.5 1.63.18.1.35.13.53.08a8.42 8.42 0 0 0 1.6-.57c.27-.13.47-.31.6-.55.36-.64.62-1.07.8-1.28a124.9 124.9 0 0 0 3.58-4.72.27.27 0 0 0 .02-.28.13.13 0 0 0-.08-.07.12.12 0 0 0-.1.01l-.93.57a.12.12 0 0 1-.17-.05Zm-3.41-.51.61-.38h.01a.03.03 0 0 1 .02 0h.01l.01.02c.05.09.06.2.04.3a.38.38 0 0 1-.17.23l-.03.02a.36.36 0 0 1-.5-.14h-.01v-.02a.03.03 0 0 1 0-.02v-.01Z" fill="url(#a)"/><defs><linearGradient id="a" x1="6.67" y1="28.11" x2="48.82" y2="28.46" gradientUnits="userSpaceOnUse"><stop stop-color="#AF8B44"/><stop offset=".52" stop-color="#EEDF9D"/><stop offset="1" stop-color="#C6A05C"/></linearGradient></defs></svg>