<!-- by TradingView --><svg width="56" height="56" viewBox="0 0 56 56" xmlns="http://www.w3.org/2000/svg"><path fill="#F0F3FA" d="M0 0h56v56H0z"/><path d="M32.87 26.9c.02.03.36.26 1 .7a10 10 0 0 1 4.24 8.07c.03 7.56-8.03 12.36-15.3 9.48-5.98-2.36-7.87-8.85-6.26-14.52a13.38 13.38 0 0 1 6.54-8.25c.09-.05.1-.1.04-.18a4.4 4.4 0 0 0-.5-.46c-2.2-1.81-3.09-4.3-2.35-6.87 1.78-6.18 10.83-6.55 13.39-.7.29.65.02 1.03-.49 1.4a.94.94 0 0 1-.7.18.96.96 0 0 1-.61-.36c-1.26-1.7-2.66-2.88-4.95-2.33-3.67.87-4.32 5.3-1.17 7.16.73.44 1.95.53 2.8.8.15.05.27.15.34.28.3.55.28 1-.05 1.36-.17.17-.54.36-1.12.58-4.54 1.68-7.07 4.9-7.59 9.66a9.64 9.64 0 0 0 .92 5.73 7.04 7.04 0 0 0 9.9 2.47 6.2 6.2 0 0 0 3.08-5.71c-.21-2.85-1.87-4.83-4.98-5.94a.62.62 0 0 0-.37-.01.58.58 0 0 0-.31.2 5.04 5.04 0 0 0-1.17 2.4 20.01 20.01 0 0 0-.2 2.54c0 .4-.23.75-.7 1.03-1.98 1.2-3.17-.98-3.07-2.54.19-2.82 1.56-5.04 4.13-6.66a22.55 22.55 0 0 1 5.06-2.14 9.51 9.51 0 0 0 2.95-1.54c.8-.62 1.16-1.4 1.04-2.35-.12-1-.95-1.65-1.85-2.31a.49.49 0 0 1-.2-.4c.02-.43.34-.65.98-.65 1.88-.02 3.98.87 4.5 2.68.78 2.8-1.38 4.64-3.85 5.65l-3.07 1.26c-.15.08-.16.18-.05.3Z" fill="#442447"/></svg>