<!-- by TradingView --><svg width="56" height="56" viewBox="0 0 56 56" xmlns="http://www.w3.org/2000/svg"><path fill="#F0F3FA" d="M0 0h56v56H0z"/><path d="M6 27H5l-1 3h4.5L7 25H6l1 4H5.5l.5-2ZM9 25v5h1v-4h1.5c.4 0 .5.33.5.5V30h1v-4c0-.8-.67-1-1-1H9Z" fill="#5CBE88"/><path d="M44 25v5h1v-4h1.5c.4 0 .5.33.5.5V30h1v-4c0-.8-.67-1-1-1h-3Z" fill="#3C86A8"/><path d="M16.5 25a2.5 2.5 0 0 0 0 5v-1a1.5 1.5 0 0 1 0-3v-1ZM19 30h-1v-5h1v2h1v1h-1v2Z" fill="#5CBE88"/><path fill-rule="evenodd" d="M23.5 29a1.5 1.5 0 1 0 0-3 1.5 1.5 0 0 0 0 3Zm0 1a2.5 2.5 0 1 0 0-5 2.5 2.5 0 0 0 0 5Z" fill="#5CBE88"/><path fill-rule="evenodd" d="M40.5 29a1.5 1.5 0 1 0 0-3 1.5 1.5 0 0 0 0 3Zm0 1a2.5 2.5 0 1 0 0-5 2.5 2.5 0 0 0 0 5Z" fill="#3C86A8"/><path d="M28.5 26H27v-1h1.5c.25 0 .6.07.92.3.33.24.58.64.58 1.2 0 .5-.19.86-.46 1.11.1.09.19.2.26.3.1.15.2.35.2.59V30h-1v-1.48l-.02-.04-.18-.19c-.13-.11-.3-.22-.42-.29H27v-1h1.5c.09 0 .23-.03.33-.1.08-.06.17-.16.17-.4 0-.24-.09-.34-.17-.4a.62.62 0 0 0-.33-.1Z" fill="#5CBE88"/><path fill="#3C86A8" d="M35 25h3v1h-3zM35 28.5V27h1v1.5c0 .09.03.23.1.33.06.08.16.17.4.17h1v1h-1c-.56 0-.96-.25-1.2-.58-.23-.31-.3-.67-.3-.92ZM31.26 25c-.15.29-.26.62-.26 1 0 .7.58 1.08 1.1 1.4.42.26.9.55.9 1.1 0 .3-.2.5-.5.5H31v1h1.5c.84 0 1.5-.66 1.5-1.5 0-1.04-.73-1.54-1.23-1.86-.24-.15-.77-.34-.77-.64 0-.37.21-.7.52-1h-1.26ZM49 25h3v1h-3zM49 27h3v1h-2v1h2v1h-3v-3Z"/></svg>