<!-- by TradingView --><svg width="56" height="56" viewBox="0 0 56 56" xmlns="http://www.w3.org/2000/svg"><path fill="#F0F3FA" d="M0 0h56v56H0z"/><path d="M32.78 16.24c0-2.6-4.05-5.24-6.07-6.24-.5 1.8-2.26 6.29-5.31 9.72-3.82 4.3-6.4 8.43-6.4 12.72a12.4 12.4 0 0 0 2.9 7.54c-.9-2.76-.4-7.94 5.66-12.8 6.06-4.87 9.22-7.7 9.22-10.94Z" fill="#0047BB"/><path d="M39.34 24.42c0-2.92-3.32-6.08-4.99-7.29 0 4.54-2.16 6.8-7.72 10.94-5.57 4.13-7.73 6.96-7.73 10.37 0 4.08 4.43 6.07 6.65 6.56-.42-.49-1.25-1.72-1.25-2.75 0-2.76 2.66-6.24 6.48-8.92 3.82-2.67 8.56-5.26 8.56-8.9Z" fill="#0047BB"/><path d="M41 30.74c0-2.72-.72-4.27-1.08-4.7 0 4.13-2.99 6.16-7.97 10.05-4.99 3.89-6.23 6.07-6.23 7.05 0 .97 1.08 1.86 2.4 1.86C32.7 45 41 36.98 41 30.74Z" fill="#0047BB"/></svg>