<!-- by TradingView --><svg width="56" height="56" viewBox="0 0 56 56" xmlns="http://www.w3.org/2000/svg"><path fill="#F0F3FA" d="M0 0h56v56H0z"/><path d="M5 33a14.99 14.99 0 0 0 5.92-4.33c1.97-2.47 4.09-5.38 4.9-6.54a4.9 4.9 0 0 1 4.1-2.13c-.28.15-1.02.6-1.75 1.17-.6.46-1.8 2.3-2.82 3.86-.55.84-1.06 1.61-1.39 2.05C13.02 28.3 9.46 33 5 33Zm3-11h7.41l-1.06 1.5H8V22Zm8.5 11H8.2c.76-.47 1.53-1.2 1.82-1.5h6.48V33ZM19 23h-1v10h1V23Zm1 0h3.52c1.42 0 2.48 1.18 2.48 2.63 0 .84-.35 1.59-.92 2.07.9.4 1.42 1.4 1.42 2.56 0 1.51-.87 2.74-2.35 2.74H20V23Zm3.45 1H21v8h2.67a1.8 1.8 0 0 0 1.83-1.75 1.8 1.8 0 0 0-1.83-1.75H22v-1h1.45c.93 0 1.68-.78 1.68-1.75S24.38 24 23.45 24ZM27 23v6.57c0 1.9 1.22 3.43 3.06 3.43h.83c1.84 0 3.11-1.54 3.11-3.43V23h-1v6.53A2.54 2.54 0 0 1 30.54 32C29.26 32 28 30.85 28 29.53V23h-1Zm16 6.57V23h1v6.53c0 1.32 1.37 2.47 2.56 2.47 1.2 0 2.44-1.15 2.44-2.47V23h1v6.57c0 1.9-1.4 3.43-3.11 3.43h-.78C44.4 33 43 31.46 43 29.57Zm-8.29-6.52L38 28.91v3.82h1V28.9l3.5-5.86h-1.4l-2.61 4.75-2.26-4.75H34.7Z" fill="#24345A"/></svg>