<!-- by TradingView --><svg width="56" height="56" viewBox="0 0 56 56" xmlns="http://www.w3.org/2000/svg"><path fill="#F0F3FA" d="M0 0h56v56H0z"/><path d="m15.14 38.8 23.32-22.35A16.27 16.27 0 0 0 27.24 12C18.27 12 11 19.2 11 28.08c0 4.12 1.56 7.87 4.14 10.72Z" fill="#C7010B"/><path d="M23.09 43H12.38l26.67-25.73L23.1 43ZM34.8 43H24.15l15.22-24.8L34.8 43Z" fill="#043477"/><path d="m38.12 37.85.53 1.62h1.71l-1.39 1 .53 1.6-1.38-.99-1.39 1 .53-1.62-1.39-1h1.72l.53-1.6ZM41.05 34.72l.53 1.61h1.72l-1.4 1 .54 1.61-1.39-1-1.38 1 .53-1.61-1.4-1h1.72l.53-1.61Z" fill="#C7010B"/><path d="m42.84 30.93.53 1.62h1.7l-1.38 1 .53 1.6-1.38-1-1.4 1 .54-1.6-1.39-1h1.72l.53-1.62Z" fill="#C7010B"/><path d="m43.64 26.86.53 1.61h1.71l-1.38 1 .53 1.61-1.39-1-1.39 1 .53-1.61-1.38-1h1.71l.53-1.61Z" fill="#C7010B"/><path d="m43.41 22.76.53 1.61h1.71l-1.38 1 .53 1.61-1.39-1-1.39 1 .53-1.61-1.38-1h1.71l.53-1.61ZM41.73 18.74l.53 1.62h1.71l-1.39 1 .53 1.6-1.38-1-1.39 1 .53-1.6-1.39-1h1.72l.53-1.62Z" fill="#C7010B"/></svg>