<!-- by TradingView --><svg width="56" height="56" viewBox="0 0 56 56" xmlns="http://www.w3.org/2000/svg"><path fill="#F0F3FA" d="M0 0h56v56H0z"/><path d="M4 33V23h10v10h-3v-1h1v-1h-1.2l-.4-1.5L10 31H8l-.4-1.5-.4 1.5H6v2H4Zm2-2.75h.4L8 25h2l.4 1.88.4-1.88H12v-1H6v1h1.2l-.4 2.25v-1.5H6v4.5Zm6-4.5h-.8L10.8 28l.4 2.25h.8v-4.5Zm-2.8-.38h-.4L8 28l.8 2.63h.4L10 28l-.8-2.63ZM15 32v1h10v-1h-4v-5h4v-1h-4v-3h-3v9h-3Z" fill="#0074FF"/><path fill-rule="evenodd" d="M27 23.71c0-.94.75-1.71 1.67-1.71h21.66c.92 0 1.67.77 1.67 1.71v8.58A1.7 1.7 0 0 1 50.33 34H28.67A1.7 1.7 0 0 1 27 32.29V23.7ZM43 23v1h-4v1h4v1h-3v6h2v-5h1v6h3v-6h1v4h-.5v1H49v-6h-3v-1h4v-1h-4v-1h-3Zm-9.56 2 .4-1H38v1h-4.56ZM33 26v2h-1v1h1v1h-4v1h4v2h3v-2h3v-1h-3v-1h3v-1h-3v-2h-3Zm-2.5-3H33l-1.82 6h-2.73l1.37-4.29H28l.45-.85h1.82l.23-.86Z" fill="#0074FF"/></svg>