<!-- by TradingView --><svg width="56" height="56" viewBox="0 0 56 56" xmlns="http://www.w3.org/2000/svg"><path fill="#F0F3FA" d="M0 0h56v56H0z"/><path fill-rule="evenodd" d="M8 27v-7h2v3.34l2.21-3.28h2.56l-2.06 2.5L15 26.91h-2.17l-1.4-2.8L10 25.83V27H8Zm8-7v7h2v-2.32h2.5V23H18v-1.32h3V20h-5Zm6 0v7h2v-4.15l.8 4.09-.02.06h1.44l-.01-.06.79-4.1V27h2v-7h-2.53l-.97 4-.97-4H22ZM8 35v-7h2v2.81L11.07 28h1.98l-1.19 2.95L13.18 35h-2.25l-.5-1.6-.43.5V35H8Zm6-7v7h2v-7h-2Zm3 7v-7h2v.19l1 2.43V28h2v7h-2v-.1l-1-2V35h-2Zm6-.9v-4.9c.07-.4.54-1.2 1.81-1.2h1.52c.56.05 1.67.36 1.67 1.2v1.44h-2v-1.1c0-.19-.17-.35-.35-.35h-.23c-.18 0-.42.16-.42.36v4.2c0 .2.24.35.42.35h.23c.18 0 .35-.16.35-.35v-1.48h-.45V31H28v4h-1.43l-.24-.53c-.1.18-.43.53-1.04.53h-.76c-.5-.03-1.53-.25-1.53-.9ZM33.02 28H29v7h4.02c.54 0 .98-.5.98-1.11V29.1c0-.61-.44-1.11-.98-1.11Zm-1.56 1H31v5h.46c.3 0 .54-.27.54-.6v-3.8c0-.33-.24-.6-.54-.6ZM42 28v7h2v-3.59l.86 3.59h1.28l.86-3.59V35h2v-7h-2.75l-.75 3.9-.75-3.9H42Z" fill="url(#a)"/><path fill-rule="evenodd" d="M38 35a3.5 3.5 0 1 0 0-7 3.5 3.5 0 0 0 0 7Zm2.18-3.02a4.34 4.34 0 0 0 .01-.77v.02c-.02.16-.28 0-.56-.16a7.52 7.52 0 0 1-.02 1.08c.21-.05.4-.11.57-.17Zm-.06-1.3c.02.06.03.11.03.17a1.2 1.2 0 0 0-.1-.13v-.01l.07-.03Zm-.6-1.43c.14.2.27.43.38.68a1.47 1.47 0 0 1-.57-.48 4.72 4.72 0 0 0-.04-.11l.22-.09Zm-.36-.23a3.17 3.17 0 0 0-.14-.26c.09.06.18.14.26.22l-.12.04Zm-.93-.57c.2.08.38.26.54.53-.1.04-.2.1-.24.18l-.3.03v-.74Zm0 1.08.36-.03a18.3 18.3 0 0 1 .38 1 6.7 6.7 0 0 1-.74.06v-1.03Zm1.76-.4c.19.27.35.58.47.9l.2-.11c-.18-.3-.4-.57-.67-.79Zm.6 1.35c.1-.05.2-.1.27-.16.15.35.23.74.23 1.14l-.12.1c-.07.06-.16.12-.28.19a4.59 4.59 0 0 0-.1-1.27Zm-.03 2.6-.17.05-.12.28c.18-.11.3-.21.36-.29l.04-.05-.1.02Zm-2.79-3.9v-.73c-.23.1-.44.32-.62.65.19.04.4.07.62.08Zm-.76.24c.22.05.48.1.76.1v1.04c-.14 0-.27-.02-.4-.03.04-.1.05-.23.05-.38 0-.19-.05-.22-.12-.28a1.05 1.05 0 0 1-.3-.38l-.01-.01a4 4 0 0 1 .02-.06Zm1.22 2.6v-1c.4-.02.76-.06 1.08-.12a7.1 7.1 0 0 1 0 1.31c-.27.05-.55.08-.86.1a.32.32 0 0 0-.08-.12c-.05-.05-.1-.1-.14-.17Zm-.46.05v-1.06a6.9 6.9 0 0 1-1.08-.12 7.08 7.08 0 0 0-.03.7l.13-.12c.21-.18.24-.14.33-.02.06.08.14.19.3.3.2.15.26.28.28.38l.07-.06Zm-.7.68c.03.04.07.08.13.1.04.02.08.01.13-.02a10.11 10.11 0 0 0 .44.11v.97a5.3 5.3 0 0 1-.64-.07c-.16-.31-.28-.7-.37-1.15a7.37 7.37 0 0 0 .32.06Zm-.78-.62a5.2 5.2 0 0 1-.46-.14 4.35 4.35 0 0 1-.01-.94l.23-.06.33-.09a7.45 7.45 0 0 0 0 1.03.46.46 0 0 0-.09.2Zm1.94 1.3v.49c.22 0 .44-.02.63-.05.16-.32.3-.73.38-1.19-.22.04-.46.06-.72.08 0 .23-.03.46-.15.59-.07.08-.11.1-.14.09Zm1.86-.94c-.11.47-.3.9-.56 1.23l-.3.08c.15-.34.25-.74.32-1.18l.54-.13Zm-2.32 1.85a5.9 5.9 0 0 1-.32-.02c.1.1.21.18.32.23v-.2Zm-2.29-1.24c.04.05.1.1.2.17-.15-.3-.25-.62-.31-.97a3.8 3.8 0 0 1-.4-.2c.07.4.23.76.44 1.09l.07-.09Zm.94.56.33.1a5.4 5.4 0 0 1-.3-1.13l-.54-.13c.11.44.29.83.51 1.16Zm2.12.67a6 6 0 0 1-.31.02v.2c.1-.04.2-.12.3-.22Zm-3.23-3.12a4.57 4.57 0 0 0 0 .56c-.18-.1-.32-.18-.4-.25v-.22c.09 0 .23-.04.4-.1Z" fill="url(#b)"/><defs><linearGradient id="a" x1="12.28" y1="35.25" x2="32.94" y2="18.23" gradientUnits="userSpaceOnUse"><stop stop-color="#8D7639"/><stop offset=".76" stop-color="#EDCC68"/><stop offset="1" stop-color="#A3893D"/></linearGradient><linearGradient id="b" x1="38" y1="28" x2="38" y2="35" gradientUnits="userSpaceOnUse"><stop stop-color="#7A7A7A"/><stop offset=".17" stop-color="#D0CFCF"/><stop offset=".4" stop-color="#949493"/><stop offset="1" stop-color="#B2B2B3"/></linearGradient></defs></svg>