<!-- by TradingView --><svg width="56" height="56" viewBox="0 0 56 56" xmlns="http://www.w3.org/2000/svg"><path fill="#F0F3FA" d="M0 0h56v56H0z"/><path d="M28.28 25.4 31 22.68c2.01-2 4.4-2.81 7.16-2.42a7.5 7.5 0 0 1 6 4.34 7.8 7.8 0 0 1 .55 5.65c-.35 1.3-1.36 2.77-3.04 4.41l-7.89 7.78a8.1 8.1 0 0 1-7.8 2.34 6.76 6.76 0 0 1-2.88-1.6l-6.28-6.05c-.18-.17-.14-.23.1-.19 1.85.3 3.37.3 4.55-.02.18-.05.34 0 .46.13 2.28 2.51 3.7 3.85 4.26 4 2.77.78 4.75 0 5.96-2.34.48-.93.55-1.96.23-3.09a4.3 4.3 0 0 0-1.14-1.91l-8.7-8.62c-1.31-1.3-2.04-2.59-2.19-3.86a.35.35 0 0 0-.26-.31.36.36 0 0 0-.4.1 78.2 78.2 0 0 1-2.72 2.85 9.52 9.52 0 0 0-2.05 2.6 4.14 4.14 0 0 0 .12 3.51c.76 1.59 1.99 2.44 3.69 2.55 1.66.1 3.06-.51 4.2-1.85.44-.53.98-1.06 1.6-1.59.11-.1.25-.07.41.08l2.24 2.14c.03.03 0 .08-.07.16l-2.12 2.08a8.21 8.21 0 0 1-9.08 1.77 8 8 0 0 1-4.59-5.17c-.87-2.76.08-5.7 2.16-7.76 4.05-4 6.76-6.7 8.13-8.06a12.78 12.78 0 0 1 4.12-2.87c2.86-1.16 5.84-.13 8.91 3.1 1.51 1.57 4 3.77 5.72 5.17.2.15.16.23-.08.23l-.28-.09a10.2 10.2 0 0 0-5.14-.24 1 1 0 0 1-.77-.34c-1.86-2.05-3.2-3.62-3.84-3.93-2.13-1.03-3.86-.85-5.2.53-2.2 2.29-2.19 4.52.05 6.72.12.11 1 1.04 2.66 2.78.17.18.34.18.52 0Zm7.1 8.3c.05.1.11.3.19.57.1.38.21.66.3.83.15.24.3.25.49.04.42-.5 1.72-1.85 3.9-4.05.8-.8 1.23-1.7 1.32-2.7.08-.9-.14-1.76-.65-2.57a4.78 4.78 0 0 0-5.03-2.1c-.91.19-1.86.78-2.84 1.77l-2.39 2.45c-.18.19-.16.36.04.52 2.26 1.74 3.82 3.48 4.67 5.23Z" fill="#0076BD"/></svg>