<!-- by TradingView --><svg width="56" height="56" viewBox="0 0 56 56" xmlns="http://www.w3.org/2000/svg"><path fill="#F0F3FA" d="M0 0h56v56H0z"/><path d="m20.59 16 7.16 4.14c.17.1.35.1.52 0L35.4 16h.38l9.87 5.7c.23.14.35.35.35.62v11.36c0 .27-.12.47-.35.61L35.9 40h-.49l-7.27-4.25a.27.27 0 0 0-.27 0L20.63 40h-.38L10 34.07V21.95L20.24 16h.35Zm5.8 5.9a.27.27 0 0 0-.14.24c0 .11.05.2.14.25l9.07 5.25c.1.06.19.06.28 0l9.06-5.24c.1-.06.15-.14.15-.25 0-.1-.05-.19-.15-.25l-9.07-5.25a.25.25 0 0 0-.27 0l-9.07 5.25Zm-1.49 3.04a.2.2 0 0 0 .1-.17v-2.58c0-.07.06-.13.12-.17l2.03-1.2c.2-.12.2-.23 0-.35l-6.65-3.84a.17.17 0 0 0-.19 0l-9.25 5.35c-.2.11-.2.23 0 .34l9.19 5.32c.06.04.13.04.2 0l4.45-2.7Zm20.61-2.05c0-.21-.1-.27-.28-.16l-9.07 5.3c-.06.04-.16.16-.16.23v10.69c0 .22-.04.27.14.16l9.27-5.36c.07-.04.1-.1.1-.16v-10.7ZM27.15 35.52c.2-.12.2-.23 0-.35L25.1 34a.2.2 0 0 1-.1-.17v-8.01c0-.23-.1-.29-.3-.17l-3.96 2.42a.2.2 0 0 0-.1.17v10.7c0 .23.1.28.3.17l6.21-3.6Z" fill="#EE1C29"/></svg>