<!-- by TradingView --><svg width="56" height="56" viewBox="0 0 56 56" xmlns="http://www.w3.org/2000/svg"><path fill="#F0F3FA" d="M0 0h56v56H0z"/><path d="M8 24.5v1c-.17-.17-.7-.5-1.5-.5-1 0-1 .5-1 1S6 27 7 27.5s1 1 1 1.5c0 1.5-1.5 2-2.5 2-.8 0-1.33-.33-1.5-.5V29c0 .33.3 1 1.5 1s1-.67 1-1c0-.17-.2-.6-1-1-1-.5-1.5-.5-1.5-2s1.5-2 2.5-2c.8 0 1.33.33 1.5.5ZM10.5 24H9v7h1.5v-7ZM14 24h-1.5L11 27l1.5 4H14l-1.5-4 1.5-3ZM16.5 24H15l2 4v3h1.5v-3l2-4H19l-1.25 2.5L16.5 24ZM22.5 24H21l1.5 7H24l1-4.5 1 4.5h1.5l1.5-7h-1.5l-1 4-1-4h-1l-1 4-1-4Z" fill="#0864B1"/><path fill-rule="evenodd" d="M32 30c1 0 1.5-1.17 1.5-2.5S33 25 32 25s-1.5 1.17-1.5 2.5S31 30 32 30Zm0 1c1.66 0 3-1.57 3-3.5S33.66 24 32 24s-3 1.57-3 3.5 1.34 3.5 3 3.5Z" fill="#0864B1"/><path d="M36 24v7h1.5v-6h.5c.33 0 1 .2 1 1s-.67 1.67-1 2l1.5 3H41l-1.5-3c.33 0 1-1 1-2 0-1.6-1.33-2-2-2H36ZM46 24h-4.5v1H43v6h1.5v-6H46v-1ZM48.5 24H47v7h1.5v-3h2v3H52v-7h-1.5v3h-2v-3Z" fill="#0864B1"/></svg>