<!-- by TradingView --><svg xmlns="http://www.w3.org/2000/svg" width="56" height="56" viewBox="0 0 56 56"><path fill="#F0F3FA" d="M0 0h56v56H0z"/><path d="M12.28 33.01 22.3 23 33 33.7 22.99 43.72a.98.98 0 0 1-1.38 0l-9.33-9.33a.98.98 0 0 1 0-1.38Z" fill="#006491"/><path d="m23 22.36 10.06-10.08a.97.97 0 0 1 1.37 0l9.29 9.3c.37.38.37 1 0 1.38L33.74 33 23 22.36Z" fill="#E31837"/><circle cx="18.5" cy="33.5" r="2.5" fill="#F0F3FA"/><circle cx="26.5" cy="33.5" r="2.5" fill="#F0F3FA"/><circle cx="33.5" cy="22.5" r="2.5" fill="#F0F3FA"/></svg>