<!-- by TradingView --><svg width="56" height="56" viewBox="0 0 56 56" xmlns="http://www.w3.org/2000/svg"><path fill="#0065B3" d="M0 0h56v56H0z"/><path d="M26 19.47c-3.2.18-4.15 1.06-4.29 1.53-.45-.12-1.71-.4-1.71-.99 0-.74 1.35-2.67 3.03-3.33 3.83-1.8 4.47-3.07 4.47-3.7 0-.62-.5-.58-.5-1.12 0-.55.34-.86 1.02-.86.68 0 .98.39.98.86 0 .46-.5.38-.5 1.12 0 .74 1.24 2.14 2.23 2.76 3 1.37 5.27 3.34 5.27 4.27 0 .75-1.97 1.4-2.83 1.63 1.61.72 4.83 2.28 4.83 2.84s-1.33 1.33-2 1.52c-.44-.57-2.65-2-7.98-2s-7.76 1.35-8.3 2c-.48-.23-1.5-.86-1.72-1.52 0-1.49 5.72-2.87 8.58-3.38.12.18.58.9 1.44.9C29.1 22 30 20.79 30 20.01S29.14 17 28.02 17 26.5 19 26 19.47Z" fill="#01BDF1"/><circle cx="28" cy="20" r="1" fill="#01BDF1"/><path d="M28 29c-4.9 0-8.74 1.36-9.89 2-.7-.28-2.11-.95-2.11-1.44 0-.6 4.5-3.56 12-3.56s12 3.07 12 3.56c0 .5-1.08 1.21-2.16 1.44-1.99-1.14-3.7-2-9.84-2ZM20 36.76V37h-8v-2h6.52v-2.25c0-.81.67-1.47 1.48-1.47v5.48Z" fill="#01BDF1"/><path d="M24 32v3.63l-1 .32V37h3v-7a2 2 0 0 0-2 2ZM12 38h32c0 1.1-.72 2-1.62 2H13.62c-.9 0-1.62-.9-1.62-2ZM31 30h1v7h-1z" fill="#01BDF1"/><path d="M42.28 31c-2.26 0-3.54-2-5.54-2-1.59 0-1.92 2-3.92 2a4.8 4.8 0 0 1-3.75-1.83c-.15-.2-.04-.47.22-.57.25-.1.56 0 .72.19A3.6 3.6 0 0 0 32.82 30c1.88 0 2.1-2 4.06-2 2.16 0 3.2 2 5.4 2 1.26 0 2.24-.68 2.68-1.62a.6.6 0 0 1 .66-.31c.28.05.45.29.35.51A4.03 4.03 0 0 1 42.28 31ZM42.15 34c-2.33 0-3.4-2-5.46-2-1.64 0-2.25 2-4.32 2-1.3 0-3.37-.8-4.28-1.77-.18-.19-.07-.45.2-.55a.8.8 0 0 1 .78.17c.76.69 2.4 1.15 3.3 1.15 1.94 0 2.23-2 4.2-2 2.23 0 3.17 2 5.45 2 1.3 0 2.45-.68 2.9-1.62.11-.22.4-.37.69-.31.28.05.46.29.36.51A4.18 4.18 0 0 1 42.15 34Z" fill="#FFFEFF"/><path d="M42.15 37c-2.33 0-3.4-2-5.46-2-1.64 0-2.25 2-4.32 2-1.3 0-3.37-.8-4.28-1.77-.18-.19-.07-.45.2-.55a.8.8 0 0 1 .78.17c.76.69 2.4 1.15 3.3 1.15 1.94 0 2.23-2 4.2-2 2.23 0 3.3 2 5.58 2 1.3 0 2.32-.68 2.78-1.62.1-.22.39-.37.68-.31.28.05.46.29.36.51A4.18 4.18 0 0 1 42.15 37Z" fill="#FFFEFF"/></svg>