<!-- by TradingView --><svg width="56" height="56" viewBox="0 0 56 56" xmlns="http://www.w3.org/2000/svg"><path fill="#F0F3FA" d="M0 0h56v56H0z"/><path d="M8 27.3h-.7V30H8v-2.7ZM13.1 26.3c-.23-.2-.51-.3-.82-.3H8.5v4h3.8c.33 0 .6-.1.85-.3a1 1 0 0 0 .35-.8v-1.83c-.02-.29-.13-.54-.4-.76Zm-.38 2.6c0 .25-.15.37-.43.37H9.28v-2.54h3.01c.1 0 .2.03.28.1.1.08.13.17.13.26v1.82h.02ZM18.65 26.3c-.22-.2-.52-.3-.85-.3H14v3.98h.78v-3.26h3.02c.27 0 .42.13.42.37v.21c0 .22-.15.33-.42.33h-2.6v.74h2.6c.1 0 .2.04.3.1.09.05.12.14.12.23V30H19v-1.3a1 1 0 0 0-.3-.7c.2-.2.3-.44.3-.71v-.22a1.1 1.1 0 0 0-.35-.76ZM23.63 26.3c-.23-.2-.49-.3-.78-.3h-2.3c-.3 0-.57.1-.78.3a.98.98 0 0 0-.33.78v1.84c0 .31.12.57.35.77.23.22.49.31.79.31H24v-.73h-3.44c-.1 0-.2-.04-.28-.11a.32.32 0 0 1-.12-.26v-1.8c0-.24.14-.37.4-.37h2.29c.26 0 .4.13.4.37v.2c0 .09-.04.18-.12.25a.4.4 0 0 1-.27.11h-2.3v.73h2.29c.3 0 .55-.1.78-.3.23-.23.37-.48.37-.77v-.2a1.2 1.2 0 0 0-.37-.83ZM29.07 26.3c-.23-.2-.5-.3-.82-.3H24.7v.73h3.54c.1 0 .2.03.29.1.09.08.13.17.13.26v1.84c0 .23-.15.36-.42.36h-2.37c-.27 0-.42-.13-.42-.36v-.2c0-.11.04-.18.13-.26.09-.07.18-.1.29-.1h2.37v-.73h-2.37c-.31 0-.58.1-.82.3-.24.22-.36.48-.36.77v.2c0 .33.1.58.34.78.24.2.51.31.82.31h2.37c.33 0 .6-.1.84-.3.21-.2.34-.46.34-.8v-1.83c.04-.29-.09-.54-.33-.76ZM35.61 26.3c-.23-.2-.5-.3-.82-.3h-3.61c-.34 0-.61.1-.83.3a.95.95 0 0 0-.35.79V30h.77v-2.9c0-.23.15-.36.42-.36h1.43V30h.76v-3.26h1.42c.28 0 .43.13.43.36V30H36v-2.91c-.04-.31-.15-.58-.39-.78ZM36.87 26.33c-.24.22-.37.47-.37.76v.2c0 .31.11.58.35.78.24.2.51.3.82.3h2.38c.28 0 .42.1.42.34v.2c0 .09-.03.18-.12.25-.1.08-.19.11-.28.11H36.5V30h3.57c.31 0 .57-.1.82-.3a1 1 0 0 0 .37-.77v-.2c0-.31-.11-.58-.35-.78-.22-.2-.5-.3-.82-.3h-2.38c-.28 0-.42-.12-.42-.36v-.2c0-.09.03-.18.12-.25.1-.08.19-.11.3-.11h3.53V26h-3.57c-.3.02-.57.1-.8.33ZM46 26.58c0 .32-.16.57-.36.75-.2.19-.47.28-.78.28H43v.75h1.86c.3 0 .56.09.78.29.22.18.36.44.36.73V30h.73v-.47c0-.32-.05-.6-.18-.88a1.33 1.33 0 0 0-.6-.66c.24-.09.44-.33.6-.67.13-.32.18-.6.18-.92V26H46v.58ZM42.76 26H42v4h.76v-4ZM51.27 26v1.61H48.4c-.27 0-.39-.13-.39-.36V26h-.79v1.27c0 .32.11.58.35.78.23.2.5.28.82.28h2.87v.58c0 .24-.14.37-.42.37H47.2V30h3.64c.33 0 .6-.1.82-.3.24-.2.35-.46.35-.79V26h-.73ZM4 27h.85c0-1.73 1.4-3.13 3.15-3.13V23a4 4 0 0 0-4 4Zm1.2 0h.9c0-1.05.84-1.9 1.9-1.9v-.88A2.79 2.79 0 0 0 5.2 27ZM8 27H6.54c0-.81.66-1.47 1.46-1.46V27Z" fill="#2470BC"/></svg>