<!-- by TradingView --><svg width="56" height="56" viewBox="0 0 56 56" xmlns="http://www.w3.org/2000/svg"><path fill="#71C5BD" d="M0 0h56v56H0z"/><path d="M24.62 12h-.43c.26.47.78 1.8.78 3.32 0 5.36-3.97 5.2-3.97 7.18 0 1.97 3.1 1.82 3.1 5.13 0 3.32-2.24 7.26-2.24 9.87 0 2.08.55 3.87.78 4.5h.43c-.2-.24-.6-1.52-.6-4.74 0-4.02 3.53-6.87 3.53-9.4 0-1.97-2.5-2.75-2.5-5.12s2.07-4.82 2.07-7.42c0-2.09-.66-3.08-.95-3.32Z" fill="#626366"/><path d="M23 17.3c0-.96-.48-1.27-.72-1.3-.88 0-1.28.7-1.28 1.8s.56 2.2.8 2.2 1.2-1.5 1.2-2.7ZM45.5 25.46l-1.19 3.19h2.37l-1.18-3.2ZM42 31.85h.95l2.9-7.85h.26l2.93 7.85H50V32h-3.32v-.15h1.2l-1.13-3.05h-2.5l-1.13 3.05h1.2V32H42v-.15ZM36 27.61h1.5c1.06 0 1.46-.73 1.46-1.72 0-1.37-.96-1.72-2.96-1.72v3.44Zm-2 4.23h1v-7.67h-1V24h3.31c.46 0 .86.03 1.2.08.9.11 1.72.87 1.72 1.8 0 1.08-1.07 1.64-2.04 1.75v.03a5.91 5.91 0 0 1 1.15.28c.93.4 1.1 1.17 1.14 2.09l.04.57c.01.19.04.34.07.47.09.37.27.75.7.75.2 0 .44-.07.6-.23l.11.12-.14.1c-.25.16-.59.19-.88.19-.7 0-1.32-.24-1.54-.96-.05-.22-.1-.47-.11-.75-.07-.76.02-1.88-.76-2.32-.16-.1-.33-.15-.5-.17a3.82 3.82 0 0 0-.47-.03H36v4.07h1.73V32H34v-.16ZM28 27.63h1.71c1.07 0 1.54-.75 1.54-1.73 0-.75-.32-1.56-1.2-1.7a9.6 9.6 0 0 0-2.05-.03v3.46Zm0 4.17c.2.02.83.04 1.42.04 1.51 0 2.17-.72 2.17-2.14 0-1.19-.56-1.92-1.65-1.92H28v4.02Zm-2 0h1v-7.63h-1V24h3.64c1.24 0 2.96.45 2.96 1.88 0 1.07-1.18 1.69-2.17 1.8v.01c.29.03.59.09.89.18.88.26 1.68.92 1.68 1.85 0 1.72-1.85 2.28-3.37 2.28H26v-.2ZM17 31.8a8.66 8.66 0 0 0 1.63.01c.22-.03.43-.08.63-.17 1.24-.54 1.6-2.24 1.6-3.6 0-2.2-.86-3.88-2.93-3.88-.33 0-.67.01-.93.03v7.61Zm-2 0h1v-7.61h-1V24h2.95C20.1 24 22 25.4 22 28c0 1.8-.94 3.37-2.5 3.84a4.41 4.41 0 0 1-.92.14c-.17.02-.37.02-.6.02H15v-.2ZM8 28c0 1.87.55 3.85 2.5 3.85s2.5-1.98 2.5-3.84c0-1.83-.65-3.86-2.5-3.86-1.92 0-2.5 2.04-2.5 3.86Zm-1 0c0-2.08 1.66-4 3.5-4 1.86 0 3.5 1.88 3.5 4s-1.65 4-3.5 4C8.6 32 7 30.18 7 28Z" fill="#626366"/></svg>