<!-- by TradingView --><svg width="56" height="56" viewBox="0 0 56 56" xmlns="http://www.w3.org/2000/svg"><path fill="#E50017" d="M0 0h56v56H0z"/><path d="M8.8 30.11 11.48 23h2.08L9.61 33H7.95L4 23h2.1l2.7 7.11Zm10.78-6.95c-.4-.12-.79-.16-1.36-.16-1.36 0-2.73.41-3.56.82l.3 1.76a7.45 7.45 0 0 1 2.69-.9c1.14-.12 1.93.04 2.24.78.09.24.11.61.11 1.06-2.29 0-6 .3-6 3.61 0 1.03.62 2.87 3.2 2.87.76 0 2-.2 2.8-1.07V33h2v-6.31c-.04-1.89-.84-3.08-2.42-3.53Zm.42 5.09v1.27c0 .86-1.3 1.88-2.62 1.88-.87 0-1.38-.33-1.38-1.27 0-1.6 1.82-1.84 3.89-1.88H20Zm31 .44v-.94c0-2.92-1.6-4.75-4.14-4.75-2.6 0-4.36 2.03-4.36 5 0 2.32 1.2 5 4.66 5h.04a6.1 6.1 0 0 0 3.33-.9l-.3-1.5a7.24 7.24 0 0 1-2.94.73c-1.75 0-2.56-1.02-2.78-2.64H51ZM44.51 27c.18-1.18 1.01-2.3 2.4-2.3 1.41 0 1.92 1.2 2.09 2.3h-4.49ZM26 23.95c.43-.5 1.2-.95 2.28-.95 2.34 0 3.72 1.16 3.72 3.61V33h-2v-6.1c0-1.95-1.07-2.2-1.72-2.2-2.07 0-2.28 1.83-2.28 2.74V33h-2V23h2v.95ZM42 23h-2.5L36 26.8V23h-2v10h2v-4.27L39.5 33H42l-4.25-5.25L42 23Z" fill="#fff"/></svg>