<!-- by TradingView --><svg width="56" height="56" viewBox="0 0 56 56" xmlns="http://www.w3.org/2000/svg"><path fill="#F0F3FA" d="M0 0h56v56H0z"/><path fill-rule="evenodd" d="M5 30.96v-6.64c.52-.1 2-.32 3.83-.32 2.28 0 4.67.45 4.67 2.4 0 1.97-3.04 2.37-4.3 2.37A8.1 8.1 0 0 1 7 28.5v2.47H5Zm2-5.64v1.94c.2.1.89.3 2.04.3 1.44 0 1.96-.46 1.96-1.23s-1-1.22-2.2-1.22c-.96 0-1.6.14-1.8.2ZM12.14 31h1.63l.85-1.5h4.47l.84 1.5h2.59l-3.9-7h-2.54l-3.94 7Zm6.11-3-1.38-2.47-1.4 2.47h2.78Zm25 3h-1.63l3.95-7h2.52L52 31h-2.58l-.77-1.5h-4.56l-.84 1.5Zm3.22-5.77L47.9 28h-2.96l1.54-2.77ZM23 24v7h2v-4.7l4.38 4.7h2.12v-7h-2v4.7L25.17 24H23Zm10 7v-6.7c1.01-.18 2.68-.27 3.38-.29 1.87-.09 5.62.16 5.62 3.36 0 3.2-3.08 3.63-4.62 3.63H33Zm2-1v-4.78c.5-.14 1.34-.2 1.7-.2.93-.07 2.8.1 2.8 2.39 0 2.28-1.54 2.59-2.31 2.59H35Z" fill="#0377C2"/></svg>