<!-- by TradingView --><svg width="56" height="56" viewBox="0 0 56 56" xmlns="http://www.w3.org/2000/svg"><path fill="#F0F3FA" d="M0 0h56v56H0z"/><path d="M17 21.12c0-4.87 4.75-7.9 7-8.81-1.61 1.34-5 4.99-5 8.8 0 3.83 2.07 6.88 3 7.89-1.55-.87-5-3.54-5-7.88Z" fill="url(#a)"/><path d="M18.81 41.1a15.98 15.98 0 0 1-2.02-24.52c-.62 1.24-1.2 2.9-1.2 4.78 0 3.73 2.06 6.48 3.86 8.9 1.4 1.87 2.55 3.54 2.55 5.3 0 3.29-1.54 4.84-3.19 5.54Z" fill="#212C7C"/><path d="M20.69 42.23c1.41-.98 3.59-3.3 3.59-6.6 0-2.58-1.6-5.17-2.28-6.14 1.3.8 4 3.39 4 6.71a8.82 8.82 0 0 1-3.08 6.98 15.9 15.9 0 0 1-2.23-.95Z" fill="#0080C7"/><path d="M27.7 12c-2.81.91-6.7 3.28-6.7 8 0 3.74 2.08 6.17 3.93 8.44 1.64 2.03 3.07 3.94 3.07 6.57 0 3.86-2.35 6.95-4.09 8.46A16.02 16.02 0 0 0 44 28a16 16 0 0 0-16.3-16Z" fill="#5BB531"/><defs><linearGradient id="a" x1="20.59" y1="12.31" x2="20.59" y2="28.93" gradientUnits="userSpaceOnUse"><stop stop-color="#57B5EA"/><stop offset="1" stop-color="#279EDA"/></linearGradient></defs></svg>