<!-- by TradingView --><svg width="56" height="56" viewBox="0 0 56 56" xmlns="http://www.w3.org/2000/svg"><path fill="#F0F3FA" d="M0 0h56v56H0z"/><path fill-rule="evenodd" d="M26.53 11.88 12.26 36.17a1.87 1.87 0 0 0 .62 2.53c.27.16.58.25.89.25l28.45.05a1.8 1.8 0 0 0 1.55-.93 1.87 1.87 0 0 0-.02-1.84L29.56 11.89a1.8 1.8 0 0 0-.64-.65 1.73 1.73 0 0 0-2.4.64Zm.63.63L13.15 36.34a1.08 1.08 0 0 0 .36 1.46 1 1 0 0 0 .51.15l27.95.05a1 1 0 0 0 .52-.14 1.09 1.09 0 0 0 .36-1.46L28.92 12.5c-.1-.15-.22-.28-.38-.37a1 1 0 0 0-1.38.37Z" fill="#6F6F6F"/><path fill-rule="evenodd" d="M30.69 29.57c.04-.03.05-.02.04.03a5.22 5.22 0 0 1-.66 1.57c-.07.12-.05.2.08.26l.07.03c.06.03.1.02.13-.04l.84-1.52a.92.92 0 0 1 .67-.48l.3-.05c.34-.06.42.06.25.36l-.84 1.54c-.06.1-.04.16.08.16h.21c.05 0 .1-.02.15-.05a.28.28 0 0 0 .1-.14c.24-.69.6-1.32 1.09-1.88a.08.08 0 0 1 .08-.03c.03 0 .06.02.09.04.04.03.05.08.02.13l-.74 1.74a.14.14 0 0 0 .02.15l.05.03.07.03c.04.02.1.03.13.01a.16.16 0 0 0 .1-.08l.87-1.82c.02-.05.06-.07.1-.06l.18.01c.05.01.07.04.05.1-.25.58-.37.97-.39 1.15-.05.86.32 1.25 1.1 1.17.76-.09 1.1-.5 1.02-1.25-.03-.32-.1-.53-.21-.63-.27-.24-.33-.2-.2.11.2.5.12.93-.26 1.3-.27.27-.54.3-.8.1a.72.72 0 0 1-.2-.83l.6-1.42a.4.4 0 0 0-.1-.44.35.35 0 0 0-.44 0l-.24.18a.12.12 0 0 1-.14 0c-.04-.02-.07-.05-.08-.08a.38.38 0 0 0-.12-.16.21.21 0 0 0-.15-.05c-.1.01-.22.1-.34.27-.05.07-.11.08-.19.04a.11.11 0 0 1-.06-.1c0-.16-.05-.2-.17-.12l-.3.22a.2.2 0 0 1-.22 0c-.06-.02-.1-.08-.1-.15-.03-.18-.1-.21-.24-.1l-.38.3c-.15.13-.2.1-.16-.1l.05-.16c.05-.2 0-.24-.16-.11l-.61.5a.14.14 0 0 1-.11.02.14.14 0 0 1-.1-.06.93.93 0 0 0-.78-.46c-.3 0-.48.17-.66.34-.22.22-.44.44-.9.34-.17-.03-.2-.12-.12-.27l1.42-2.57c.05-.1.13-.14.23-.14 1.41.02 2.76-.08 3.56-1.4.2-.35.2-.68-.02-1.01a.33.33 0 0 0-.23-.15 2.38 2.38 0 0 0-1.35.08c-.84.37-1.59.98-2.25 1.83-.1.13-.28.2-.43.17-.13-.03-.17-.1-.12-.24l.41-.94c.05-.1.12-.15.23-.13.36.06.72-.14 1.07-.6.32-.43.55-1.05.68-1.88a.47.47 0 0 0-.02-.23.44.44 0 0 0-.13-.2.4.4 0 0 0-.42-.06l-.2.1c-.13.05-.19 0-.17-.15a.3.3 0 0 0-.01-.11c-.04-.16-.1-.17-.2-.05l-.75.91a.14.14 0 0 1-.2.01.15.15 0 0 1-.05-.06c-.16-.53-.5-.65-.99-.43-.68.3-1.38 1.35-1.12 2.24.06.2.21.34.45.4.7.2 1.27-.32 1.73-1.58.03-.07.07-.09.14-.04l.07.05a.1.1 0 0 1 .04.05.1.1 0 0 1 0 .06l-.98 2.77a.16.16 0 0 1-.05.08.14.14 0 0 1-.09.02h-3c-.04 0-.05-.01-.04-.05l2.5-5.8a.62.62 0 0 1 .26-.3c.12-.06.25-.08.38-.06.46.07.94.07 1.45 0 .68-.1 1.01-.47 1.02-1.08a.65.65 0 0 0-.14-.4.6.6 0 0 0-.35-.23c-.74-.15-1.41.1-2 .75l-.4.48a.28.28 0 0 1-.26.11c-1.33-.13-2.7-.15-3.38 1.18-.34.65-.1 1.62.77 1.41.33-.07.56-.19.7-.34.28-.27.25-.34-.09-.2l-.39.15a.52.52 0 0 1-.5-.06.58.58 0 0 1-.22-.48c.06-1.4 1.82-1.35 2.8-1.27.12 0 .15.07.08.18-.45.74-.82 1.46-1.1 2.17a64.77 64.77 0 0 1-1.55 3.64.3.3 0 0 1-.23.17 3.5 3.5 0 0 0-2.97 2.78c-.05.18-.15.23-.32.17l-.12-.05c-.24-.09-.32-.26-.27-.51.06-.26.2-.54.42-.84a.15.15 0 0 0 .02-.08.23.23 0 0 0-.02-.09c-.03-.05-.06-.06-.1-.02-.31.25-.54.54-.68.86-.2.46-.08 1.1.48 1.1l.34.01c.1.01.19.06.25.15 1.2 1.98 3.33.6 4.48-.74v-.03c-.01-.07-.07-.1-.17-.06h-.01l-1.72 1.1c-.39.25-.8.3-1.24.14a15 15 0 0 1-.39-.15c-.42-.22-.45-.42-.06-.6a5.05 5.05 0 0 0 2.48-2.62.11.11 0 0 1 .06-.02h3c.05 0 .06.02.04.07a9 9 0 0 1-2.08 3.2c-.1.1-.08.14.05.12.06 0 .1-.02.14-.05 1.11-.84 1.62-1.8 2.3-3.08l.16-.28c.02-.04.05-.05.09-.03l.08.03c.08.04.1.1.05.17a235 235 0 0 1-1.17 2.28c-.2.4-.5.53-.87.7-.04 0-.08.03-.11.04a.06.06 0 0 0-.04.05l-.02.14v.03l.03.02.02.01h.03a.74.74 0 0 1 .36-.03c.12.03.14.09.08.2l-1.25 1.93c-.04.06-.1.11-.16.13a.3.3 0 0 1-.2 0c-.96-.34-1.7-.58-2.26-.7-1.9-.46-5.07.14-5.34 2.68-.03.28.03.55.18.79.8 1.25 2.57 1.34 3.91.94a7.06 7.06 0 0 0 3.73-2.89c.06-.08.14-.1.24-.07 3.16 1.33 5.2 2.17 6.09 2.51.84.33 1.62.52 2.37.58 1.56.13 2.72-.54 3.47-2l-.01-.02-.1-.07a.05.05 0 0 0-.03 0 .06.06 0 0 0-.04.02c-.96 1.42-2.26 1.91-3.87 1.47a49.24 49.24 0 0 1-7.54-2.93c-.11-.05-.13-.12-.07-.22l1.42-2.21a.3.3 0 0 1 .31-.15l.11.01c.22.03.29.15.22.36-.18.56-.13.98.17 1.26.11.1.26.17.42.17.16 0 .33-.05.46-.16.58-.44.94-1.01 1.07-1.72.01-.03.03-.06.06-.08l.1-.08Zm-.7-11.2c-.59-.05-1.1.24-1.53.85a.1.1 0 0 0 0 .1c0 .02.01.03.03.04l.05.02h1.57c.07 0 .15-.03.21-.08.07-.05.11-.12.13-.2.13-.46-.03-.7-.46-.73Zm-2.46 5.85c-.27-.15-.27-.71 0-1.26.28-.55.72-.88.99-.73.27.14.27.7 0 1.26-.28.54-.72.87-.99.73Zm2.28-1.14c-.28.55-.35 1.09-.16 1.2.19.1.57-.27.85-.82.28-.55.35-1.09.16-1.2-.19-.1-.57.27-.85.82Zm1.96 2.77c.93-.4 1.3-.83 1.11-1.29-.2-.46-.75-.46-1.67-.01a4.55 4.55 0 0 0-1.3 1.34l.02.02.01.03.04.02a4.3 4.3 0 0 0 1.79-.11Zm-8.12 2.13c.64-.67 1-1.4.78-1.62-.22-.23-.92.13-1.56.8-.65.68-1 1.41-.79 1.64.22.22.92-.14 1.57-.82Zm5.25 3.2c-.26-.14-.26-.7 0-1.24.28-.55.71-.87.98-.73.26.14.26.7 0 1.25-.28.54-.71.86-.98.72Zm-9.47 1.2c1.43-1.1 4.3-.58 5.84.1.12.04.14.12.07.23-1.2 1.86-2.79 2.82-4.74 2.88-.44.02-.9-.15-1.39-.5-1.17-.82-.7-2 .22-2.71Z" fill="#6F6F6F"/><path d="M35.26 32.62c.12.32.17.49.17.5l-.05.07a.13.13 0 0 1-.08.02.19.19 0 0 1-.09-.04.23.23 0 0 1-.07-.07c-.12-.22-.15-.38-.09-.5a.11.11 0 0 1 .2.02ZM34.7 33.43a.74.74 0 0 0-.27-.2.17.17 0 0 1-.08-.08.18.18 0 0 1 .02-.2.17.17 0 0 1 .1-.06c.12-.03.24.05.33.23.2.42.11.75-.28.98-.04.02-.08.01-.1-.03l-.05-.1a.13.13 0 0 1-.02-.1.13.13 0 0 1 .06-.07l.25-.15c.1-.06.11-.13.04-.22ZM35.73 33.33c-.1.06-.11.13-.04.22a.8.8 0 0 0 .27.21c.03.02.05.04.07.08a.18.18 0 0 1-.03.2.17.17 0 0 1-.09.06c-.13.03-.24-.06-.33-.25-.2-.42-.1-.75.31-.97.04-.03.08-.02.1.03l.05.1a.13.13 0 0 1-.05.17l-.26.15ZM35.04 33.91l-.03-.07c-.02-.05 0-.07.04-.07.1 0 .18.05.22.12.12.2.12.39-.01.57a.12.12 0 0 1-.06.04.11.11 0 0 1-.12-.04.11.11 0 0 1-.03-.07v-.42l-.01-.06Z" fill="#6F6F6F"/></svg>