<!-- by TradingView --><svg xmlns="http://www.w3.org/2000/svg" width="56" height="56"><path fill="#F0F3FA" d="M0 0h56v56H0z"/><path d="M12 28a16 16 0 1132 0 16 16 0 01-32 0z" fill="#133A66"/><path d="M43 28a15 15 0 11-30 0 15 15 0 0130 0z" fill="#67C3F0"/><path d="M28 42.98C37.27 37 29.48 23.52 28 22c-1.48 1.52-9.27 15 0 20.98z" fill="#133A66"/><path d="M28 42.07c5.1-4 3.73-11.98 0-18.07-3.72 6.1-5.1 14.07 0 18.07z" fill="#fff"/><path d="M28 42.07c3.36-5.03-.25-11.47 0-11.07.25-.4-3.36 6.04 0 11.07z" fill="#133A66"/></svg>