<!-- by TradingView --><svg width="56" height="56" viewBox="0 0 56 56" xmlns="http://www.w3.org/2000/svg"><path fill="#F0F3FA" d="M0 0h56v56H0z"/><path fill-rule="evenodd" d="M10.9 27.57c.3-.38.9-1.56.91-3.34v-5.62h3.63V18H17v.61h3.29v.88c0 .68-.55 1.22-1.23 1.22h-.31v-1.05H17v2.16h3.07v1.67A7.56 7.56 0 0 1 18 25.9c1.16.66 2 .85 2.29.86v1.15c-.83-.04-2.7-.32-3.5-1.15-.6.64-2.53 1.03-3.42 1.15v-1.15c.5-.02 1.63-.2 2.07-.7a4.52 4.52 0 0 1-1.6-2.58h1.73c.05.33.36 1.17 1.21 1.8a4.7 4.7 0 0 0 1.44-2.51h-4.94c.1 1.3.05 4.1-.9 4.79H10.9Zm0-7.91V18.6H8l.68 1.05h2.22Zm0 1.41v.75H9.4l-.73-.75h2.22Zm-1.16 6.5c.76-.8.89-3.22.86-4.33H9.28c.05 2.88-.68 4.08-1.11 4.33h1.57Zm13.1-8.23v-.73H33.9v7.53c0 .42-.07.84-.21 1.23l-.07.2h-1.78l.17-.32c.2-.36.3-.77.3-1.18v-6.73h-9.47Zm0 1.13h8.23l-.32.48c-.23.33-.61.54-1.02.54h-6.89v-1.02Zm0 6.84v-4.53h7.99v3.3c0 .68-.55 1.23-1.23 1.23h-6.76Zm13.17-9.11h5.47c.09.64.08 2.07-.7 2.61h2.56c-.33-.24-.94-1.1-.76-2.61H48l-.2.35c-.22.4-.63.63-1.07.63h-2.32c-.05.16-.07.59.31.96h3.04l-.26.28c-.23.25-.55.4-.9.4h-1.04c.14.41.77 1.23 2.2 1.13v1.17h-.93v1.72c0 .34-.27.61-.61.61h-8.74v-2.33h-1.14v-1.1c.63.04 1.9-.11 2.02-1.05h-.82c-.43 0-.83-.22-1.05-.59l-.15-.24h3.02c.13-.06.38-.35.46-.96h-1.3l-1.26.01c-.47 0-.9-.26-1.1-.69l-.15-.3Zm2.35 8.57c0-.32-.2-.43-.3-.44h1.54c.17.14.21.35.21.44 1 .02 2.87.01 3.74 0h.43c0-.27.14-.4.24-.45H46a.45.45 0 0 0-.3.5h1.92V28H36.34v-1.23h2.02Zm-25.12-4.72v-2.33h2.24v2.33h-2.24Zm15.92 1.56H24.3v2.9h4.26c.34 0 .61-.27.61-.6v-2.3Zm9.67-.9c.26-.17.83-.58 1-.89h4.27c.16.22.8.7 1.05.9h-6.32Zm6.32.89h-6.32v1.23h6.32V23.6ZM10.3 32H8v5h2.53c.93 0 1.77-.77 1.77-1.54a1.08 1.08 0 0 0-.23-.66 1.8 1.8 0 0 0-.74-.5c.44-.27.64-.61.64-1 0-.85-.97-1.3-1.68-1.3Zm-.13 2h-1.2v-1.2h1.3c.27 0 .48.04.61.15.13.1.2.23.2.4 0 .08-.02.17-.07.25a.63.63 0 0 1-.18.2c-.09.06-.18.1-.3.15-.1.03-.23.05-.36.05Zm.13 2.15H8.96v-1.48h1.12a2 2 0 0 1 .52.06c.15.04.29.1.4.17.1.07.18.15.24.25.06.09.09.19.09.3 0 .12-.04.23-.1.32a.72.72 0 0 1-.24.22c-.1.06-.2.1-.33.12-.13.03-.25.04-.37.04Zm7.84-.68c.11-.3.17-.63.17-1s-.06-.7-.17-1c-.12-.3-.29-.57-.51-.78-.23-.22-.5-.4-.83-.51-.32-.12-.7-.18-1.11-.18-.42 0-.79.06-1.11.18a2.15 2.15 0 0 0-1.32 1.28 2.9 2.9 0 0 0 0 2.01 2.21 2.21 0 0 0 1.32 1.3c.32.13.69.23 1.1.23.42 0 .8-.1 1.12-.23.33-.12.6-.29.83-.5.22-.23.39-.5.5-.8Zm-.92-1.77c.08.22.13.48.13.76 0 .29-.05.54-.13.77-.09.22-.2.41-.36.57-.14.16-.32.28-.52.36-.2.08-.42.12-.65.12a1.53 1.53 0 0 1-1.52-1.06 2.19 2.19 0 0 1-.13-.76c0-.28.04-.54.12-.76.09-.22.2-.41.35-.56.15-.16.32-.27.52-.35.2-.08.42-.12.66-.12.23 0 .45.04.65.12a1.58 1.58 0 0 1 .88.91Zm2.83 1.49c0 .16.05.3.11.44a1.17 1.17 0 0 0 .65.58c.15.05.3.07.48.07.16 0 .3-.01.44-.04.14-.02.27-.07.38-.13.1-.06.19-.14.26-.23.06-.1.1-.22.1-.36a.43.43 0 0 0-.15-.33c-.1-.09-.21-.16-.36-.23a3.74 3.74 0 0 0-.52-.17l-.6-.17c-.2-.05-.4-.12-.59-.19-.2-.07-.37-.16-.52-.26-.15-.1-.27-.23-.37-.37a.95.95 0 0 1-.13-.52c0-.21.04-.4.14-.55.1-.16.24-.3.41-.4.18-.11.39-.2.63-.25a3.55 3.55 0 0 1 1.5-.01c.2.04.37.1.52.17a1.44 1.44 0 0 1 .78.95l.06.36h-.97a.97.97 0 0 0-.12-.4.86.86 0 0 0-.24-.27.94.94 0 0 0-.33-.16 1.42 1.42 0 0 0-.4-.05c-.12 0-.25 0-.37.03a1.2 1.2 0 0 0-.33.1.64.64 0 0 0-.23.2.45.45 0 0 0-.1.28c0 .13.05.24.14.33.1.09.22.16.37.23s.33.13.52.18a25.05 25.05 0 0 1 1.19.36c.2.07.36.16.52.26.15.1.27.22.36.36.1.15.14.32.14.52 0 .23-.05.44-.16.62-.1.18-.25.33-.44.45s-.42.21-.68.28l-.06.01c-.24.06-.5.12-.79.12-.27 0-.54-.08-.8-.16h-.01a2.4 2.4 0 0 1-.7-.35 1.9 1.9 0 0 1-.5-.56c-.14-.22-.2-.47-.21-.74h.98ZM25.45 37v-5h-.96v5h.96Zm1.43-5h2.2c.95 0 1.97.66 2.32 1.56a2.42 2.42 0 0 1 0 1.86A2.75 2.75 0 0 1 29.08 37h-2.2v-5Zm.95 4.15h1.01c.26 0 .5-.03.71-.1.22-.08.41-.19.57-.33.16-.14.28-.32.37-.53.1-.2.14-.44.14-.71 0-.3-.05-.55-.14-.76a1.4 1.4 0 0 0-.94-.83c-.22-.06-.45-.1-.7-.1h-1.02v3.36Zm8.86-3.36V32H32.7v5h4.12v-.85h-3.16v-1.4h2.84V34h-2.84v-1.2h3.03Zm2.42-.79 2.43 3.7V32h.95v5h-1.07L39 33.21V37h-1v-5h1.1Zm6.66.72c-1.15 0-2 .84-2 1.78 0 .94 1.04 1.79 2.18 1.79.48 0 1.18-.3 1.34-.57v-.86H46v-.72h2v1.89c-.37.54-1.23.97-2.05.97-1.68 0-2.86-1.08-2.86-2.5s1.24-2.5 2.68-2.5c.92 0 1.74.44 2.23 1.12l-.55.43a2.06 2.06 0 0 0-1.68-.83Z" fill="#D1994D"/></svg>