<!-- by TradingView --><svg width="56" height="56" viewBox="0 0 56 56" xmlns="http://www.w3.org/2000/svg"><path fill="#0F38A7" d="M0 0h56v56H0z"/><path d="M31.02 32.02c-4.12-.38-9.56-2.84-11.52-4.02l.5 2.49L28.44 38H33l.43-.37c1.03-1.71 1.71-5.23-2.4-5.6Z" fill="#8096D2"/><path d="M25.18 33.29A65.45 65.45 0 0 1 19.5 28c-.54.1-1.5.88-1.5 3.14 0 2.83 1.95 6.5 5.72 9.74 3 2.6 4.58 5.16 4.98 6.12.77-.45 2.3-2.2 2.3-5.55 0-4.19-3.76-6.6-5.82-8.16ZM34.05 21.24 20.27 9l-1.2 2.35a9.8 9.8 0 0 0 1.66 11.28c3.05 3.03 6.5 6.29 8.58 7.82 4.24 3.13 4.03 7.38 3.69 7.55 2.95-1.4 5-4.74 5-9.16 0-3.54-2.63-6.54-3.95-7.6Z" fill="#fff"/></svg>