<!-- by TradingView --><svg width="56" height="56" viewBox="0 0 56 56" xmlns="http://www.w3.org/2000/svg"><path fill="#F0F3FA" d="M0 0h56v56H0z"/><path d="M19.75 15.47h6.55l-3.43 7.06h-6.55l3.43-7.06Zm-3.98 8.48h6.55l-3.43 7.06h-6.55l3.43-7.06Zm14.68 0H23.9l-3.43 7.06h6.55l3.43-7.06Zm2.08 0h6.55l-3.43 7.06H29.1l3.43-7.06Zm10.7-8.48H36.7l-3.43 7.06h6.55l3.43-7.06ZM28.66 32h6.55l-3.44 7h-6.55l3.44-7ZM45 16.18 33.7 39H45V16.18ZM19.8 32h7.18l-3.44 7H19.8v-7Zm-1.35 0H11.9l-3.44 7h6.55l3.44-7Z" fill="#2D2D2D"/><path d="M19.29 15h6.54l-3.43 7h-6.55l3.44-7Zm-3.98 8.48h6.55l-3.43 7.06h-6.55l3.43-7.06Zm14.68 0h-6.55l-3.43 7.06h6.55l3.43-7.06Zm2.08 0h6.55l-3.43 7.06h-6.55l3.43-7.06ZM42.77 15h-6.55l-3.43 7h6.55l3.43-7ZM28.18 31.47h6.55l-3.43 7.06h-6.55l3.43-7.06Zm16.36-15.76-11.3 22.82h11.3V15.71ZM19.33 31.47h7.18l-3.43 7.06h-3.75v-7.06Zm-1.35 0h-6.55L8 38.53h6.55l3.43-7.06Z" fill="#E60012"/></svg>