<!-- by TradingView --><svg width="56" height="56" viewBox="0 0 56 56" xmlns="http://www.w3.org/2000/svg"><path fill="#F0F3FA" d="M0 0h56v56H0z"/><path d="M49 20H36v3h3.05c1.08 0 1.95.9 1.95 2v11h3V25c0-1.1.87-2 1.95-2H49v-3ZM21 20v3h9.48c.84 0 1.52.7 1.52 1.5s-.68 1.5-1.52 1.5H24.8c-2.1 0-3.8 1.63-3.8 3.64V36h3v-5c0-1.3.64-2 2-2h4.48A4.3 4.3 0 0 0 35 24.5a4.3 4.3 0 0 0-4.52-4.5H21ZM19 20h-7.28A4.8 4.8 0 0 0 7 24.87c0 2.7 2.11 4.63 4.72 4.63h3.86c.78 0 1.42.9 1.42 1.72 0 .81-.64 1.78-1.42 1.78H8v3h7.37A4.7 4.7 0 0 0 20 31.22a4.65 4.65 0 0 0-4.63-4.72h-3.86c-.83 0-1.51-.76-1.51-1.63 0-.86.68-1.87 1.51-1.87H19v-3Z" fill="#004EA1"/></svg>