<!-- by TradingView --><svg width="56" height="56" viewBox="0 0 56 56" xmlns="http://www.w3.org/2000/svg"><path fill="#F0F3FA" d="M0 0h56v56H0z"/><path d="M26.2 12.99 22.15 12l4.07 18.18L28 33.7 26.2 13Z" fill="url(#a)"/><path d="M14 37.65 22.14 12l4.07 18.18L14 37.65Z" fill="url(#b)"/><path d="m28 33.7-1.8-3.52L14 37.65l.34.35h.97L28 33.7Z" fill="url(#c)"/><path d="m29.8 12.99 4.06-.99-4.07 18.18L28 33.7 29.8 13Z" fill="url(#d)"/><path d="M42 37.65 33.86 12 29.8 30.18 42 37.65Z" fill="url(#e)"/><path d="m28 33.7 1.8-3.52L42 37.65l-.34.35h-.97L28 33.7Z" fill="url(#f)"/><path d="M36.43 39H37v5h-.57v-5Z" fill="#1C2083"/><path fill-rule="evenodd" d="M21.02 39c-.56 0-1.02.5-1.02 1.13v2.74c0 .62.46 1.13 1.02 1.13h3.96c.56 0 1.02-.5 1.02-1.13v-2.74c0-.62-.46-1.13-1.02-1.13h-3.96Zm.15.65c-.32 0-.58.28-.58.64v2.42c0 .36.26.64.58.64h3.66c.32 0 .58-.28.58-.64v-2.42c0-.36-.26-.64-.58-.64h-3.66Z" fill="#1C2083"/><path fill="#1C2083" d="M41 39h.57v5H41z"/><path fill="#1C2083" d="M42 41v.65h-5.54V41zM14 39h.98l3.27 4.35h.26V39H19v5h-.98l-3.27-4.35h-.26V44H14v-5ZM36 39.65V39h-5.5v.65H33V44h.6v-4.35H36ZM27.52 39c-.29 0-.52.29-.52.65V44h.52v-4.35H30V39h-2.48Z"/><defs><linearGradient id="a" x1="22.62" y1="12" x2="28.22" y2="33.64" gradientUnits="userSpaceOnUse"><stop stop-color="#1C277A"/><stop offset="1" stop-color="#00BCED"/></linearGradient><linearGradient id="b" x1="18.07" y1="24.33" x2="25.84" y2="29.88" gradientUnits="userSpaceOnUse"><stop stop-color="#0170BE"/><stop offset="1" stop-color="#00ADEA"/></linearGradient><linearGradient id="c" x1="27.17" y1="32.72" x2="13.86" y2="37.88" gradientUnits="userSpaceOnUse"><stop stop-color="#0396E6"/><stop offset="1" stop-color="#045BAB"/></linearGradient><linearGradient id="d" x1="30.93" y1="12" x2="30.93" y2="33.7" gradientUnits="userSpaceOnUse"><stop stop-color="#AC011C"/><stop offset="1" stop-color="#E20030"/></linearGradient><linearGradient id="e" x1="30.48" y1="22.57" x2="40.46" y2="33.97" gradientUnits="userSpaceOnUse"><stop stop-color="#B90020"/><stop offset="1" stop-color="#EA0000"/></linearGradient><linearGradient id="f" x1="28.83" y1="32.72" x2="42.14" y2="37.88" gradientUnits="userSpaceOnUse"><stop stop-color="#A30119"/><stop offset="1" stop-color="#EA0101"/></linearGradient></defs></svg>