<!-- by TradingView --><svg width="56" height="56" viewBox="0 0 56 56" xmlns="http://www.w3.org/2000/svg"><path fill="#F0F3FA" d="M0 0h56v56H0z"/><path d="M12.15 24H7.8l1.21.82v6.32L7.79 32h4.36L11 31.14v-6.32l1.15-.82Z" fill="#0251A0"/><path fill-rule="evenodd" d="M52 21H4v14h48V21Zm-36 1H5v12h11V22Zm3.42 2c-.78 0-1.42.78-1.42 1.74v4.52c0 .96.64 1.74 1.42 1.74h5.8l.78-1.5h-6.5v-5h5.72L26 24h-6.58Zm14.92 0H27.9c-.69 0-1.4.67-1.4 1.49v1.5c0 .82.71 1.51 1.4 1.51h4.6v2h-5.28l-.85 1.5h6.36c.7 0 1.27-.67 1.27-1.49v-2.04c0-.82-.58-1.47-1.27-1.47H28v-1.5h5.52l.82-1.5Zm9.57 0h6.43l-.82 1.5H44V27h4.73c.7 0 1.27.65 1.27 1.47v2.04c0 .82-.58 1.49-1.27 1.49h-6.36l.85-1.5h5.28v-2h-4.6c-.69 0-1.4-.7-1.4-1.52v-1.5c0-.81.71-1.48 1.4-1.48Zm-3.1 1.75L40.33 27h-1c-.37 0-.15-1.04 0-1.5H38l1.82 2.5h2.26l-1.26 1.88L42.07 32h-1.91l-.57-.83a2.9 2.9 0 0 1-2.4.82c-1.27-.05-2.36-.1-2.5-2.32a2.99 2.99 0 0 1 1.91-3.07l-.34-.9c-.3-.8.18-1.7.89-1.7h2.8c.73 0 1.2.95.86 1.75Zm-4.18 4.65c-1.38-.32.1-1.8 1.02-2.5 1.55 1.94.98 2.48.5 2.5h-1.52Z" fill="#0251A0"/></svg>