<!-- by TradingView --><svg width="56" height="56" viewBox="0 0 56 56" xmlns="http://www.w3.org/2000/svg"><path fill="#F0F3FA" d="M0 0h56v56H0z"/><path d="M11 20H8v16h3V20ZM29.65 20h-3.3c-2.4 0-4.35 2-4.35 4.45v6.48A4.94 4.94 0 0 0 26.92 36h2.16A4.94 4.94 0 0 0 34 30.93v-6.48A4.4 4.4 0 0 0 29.66 20ZM25 24.18c0-.8.59-1.18 1.34-1.18h3.31c.77 0 1.35.37 1.35 1.18v7.06c0 1.11-.85 1.76-1.92 1.76h-2.17c-1.07 0-1.91-.65-1.91-1.76v-7.06ZM48 25v-.76c0-1.06-.5-2.09-1.24-2.91A4.2 4.2 0 0 0 43.94 20h-3.73a4.38 4.38 0 0 0-4.2 4.4v1.24c-.01 1.1.55 1.99.78 2.28a3.41 3.41 0 0 0 2.83 1.58h4.02c.45 0 .77.01 1 .26.34.38.4.76.39 1.33v.49a1.4 1.4 0 0 1-.9 1.31c-.19.07-.34.11-.63.11h-3.22c-.77 0-1.28-.75-1.28-1.36V31h-3v.76c0 1.06.5 2.09 1.23 2.91A4.2 4.2 0 0 0 40.05 36h3.74a4.38 4.38 0 0 0 4.2-4.4v-1.24c0-.96-.36-1.7-.7-2.23a3.65 3.65 0 0 0-3-1.63h-3.96c-.43 0-.77-.07-1-.32-.33-.38-.36-.7-.36-1.27v-.5c0-.61.38-1.12.9-1.32.2-.06.34-.09.63-.09h3.21c.78 0 1.29.74 1.29 1.34V25h3ZM15.1 28.1c-1.83-2.18-1.64-2.5-1.62-3.1l-1.01 1.17c-.83.99-1.21 1.93-.3 3.17l1.35 1.58c.05.09.12.17.18.25L17.78 36h3.96L15.1 28.1Z" fill="#2F3132"/><path d="M18.03 19.83 20.36 17v2.43l-2.33.4Z" fill="#FFD268"/><path d="m15.64 22.57 2.39-2.74v4.79" fill="#F58220"/><path d="m18.03 24.62-3.8.56c.26 1 1.4 2.17 1.4 2.17l2.4-2.73Z" fill="#ED1B2F"/><path d="M14.22 25.18c-.16-.79.21-1.19.32-1.32l1.1-1.3 2.4 2.06-3.82.56Z" fill="#F3715C"/><path d="M20.36 21.88v-2.45l-2.33.4 2.33 2.05Z" fill="#FFC20E"/><path d="m18.03 24.62 2.33-2.74-2.33-2.05v4.79Z" fill="#F9A45E"/></svg>