<!-- by TradingView --><svg width="56" height="56" viewBox="0 0 56 56" xmlns="http://www.w3.org/2000/svg"><path fill="#F0F3FA" d="M0 0h56v56H0z"/><path fill-rule="evenodd" d="M42 12.58C31.88 11.1 14 11.1 14 29.27v4.65L19.84 26c.67-.97 2.53-2.56 4.52-1.15l3 2.97L28.6 26l-3.83-3.68a2.52 2.52 0 0 1 0-2.94l12.2 11.26c-.38.45-1.51 1.13-3.02.2l-3.62-3.28-1.24 1.61 3.07 3.09c.6.63 1.5 2.38.26 4.38-1.57 2.5-3.45 4.64-5.45 3.09l-2.46-2.24c-.5-.41-1.77-.93-2.72.27l-.01.02c-1.12 1.41-2.41 3.04-1.86 6.19 15.43-.25 21.71-2.4 22.08-20.65V12.58Zm-11.3 2.9c-1.2-.96-2.65-.53-3.16 0l12.12 11.26c.95-1.6-.08-3.2-.71-3.8l-8.25-7.47Zm-5.39 2.81 1.52-1.77 12.12 11.33-1.39 1.67-12.25-11.23Z" fill="#2D66C4"/><path d="M17.89 43.99c-.24-1.77-.18-5.01 1.53-7.17 2.37-3 4.14-3.03 5.7-1.74.4.33.77.7 1.12 1.05 1.04 1.03 1.92 1.9 2.85 1.16l1.45-1.8c.28-.36.56-1.34-.67-2.38l-6.54-5.9c-.3-.26-1.03-.62-1.54 0L14 37.81V44l3.89-.01Z" fill="#2D66C4"/></svg>