<!-- by TradingView --><svg width="56" height="56" viewBox="0 0 56 56" xmlns="http://www.w3.org/2000/svg"><path fill="#F0F3FA" d="M0 0h56v56H0z"/><path fill-rule="evenodd" d="M40 11H16v34h24V11Zm-1 1H17v32h22V12Z" fill="#002A5F"/><path d="M34 28.95v9.25l-5 3.66v-9.32l5-3.59Z" fill="#002A5F"/><path d="m21 28.78 7.6 3.4 5.4-4-7.67-3.41L21 28.78ZM26 15.1v9.24L21 28v-9.32l5-3.59Z" fill="#AC1723"/><path d="M28.5 42 21 39.17 26.47 36l2.03.75V42ZM26.5 15l7.5 2.83L28.53 21l-2.03-.75V15Z" fill="#002A5F"/></svg>