<!-- by TradingView --><svg width="56" height="56" viewBox="0 0 56 56" xmlns="http://www.w3.org/2000/svg"><path fill="#F0F3FA" d="M0 0h56v56H0z"/><circle cx="28" cy="21" r="6" fill="#68624D"/><circle cx="28" cy="21" r="5.55" fill="#FCEB3D"/><path d="M16.47 19H8c2.94.97 4.8 4.77 5.38 6.55l2.02 8.07A4.4 4.4 0 0 0 19.63 37h2.69c1.53 0 3.76-.18 4.68-.28-.88-.05-2.01-.9-2.92-1.77a6.86 6.86 0 0 1-1.76-3.05l-3.3-10.97A2.67 2.67 0 0 0 16.46 19ZM39.53 19H48c-2.94.97-4.8 4.77-5.38 6.55l-2.02 8.07A4.4 4.4 0 0 1 36.37 37h-2.69a57.1 57.1 0 0 1-4.68-.28c1.04-.06 2.45-1.25 3.41-2.25.5-.53.85-1.2 1.07-1.9l3.5-11.64A2.67 2.67 0 0 1 39.54 19Z" fill="#00924A"/><path d="m31 35-3 3v3h3v-3.9l2 1.28 2-1.28V41h3v-6h-3l-2 1.29L31 35Z" fill="#E9232D"/><path d="M28.66 35H30l-3 2.81V41h-2v-3.19L23 36h1.34l1.59 1.45L28.66 35Z" fill="#E9232D"/><ellipse cx="19" cy="39.5" rx="2" ry="1.5" fill="#E9232D"/><path d="M24 34.5V34h-5v3.17c2.03 0 3.14 1.27 3.14 2.44s-1.1 1.89-1.22 1.95c-.1.04.3.31.52.44l1.56-.94v-3.9l-3-2v-.66h4Z" fill="#E9232D"/></svg>