<!-- by TradingView --><svg width="56" height="56" viewBox="0 0 56 56" xmlns="http://www.w3.org/2000/svg"><path fill="#F0F3FA" d="M0 0h56v56H0z"/><path d="M41 38v-8h3.1c.63 0 1.16.11 1.59.34.43.23.76.55.98.95.22.4.33.85.33 1.36 0 1.64-1.4 2.54-2.93 2.54h-2.05V34h1.85c.82 0 1.6-.45 1.6-1.35 0-.29-.05-.54-.17-.75a1.16 1.16 0 0 0-.52-.5 1.98 1.98 0 0 0-.92-.19H42.5V38H41ZM38 30h1.45v5.15c0 .56-.14 1.06-.4 1.49-.27.43-.65.76-1.13 1-.49.24-1.05.36-1.7.36a3.8 3.8 0 0 1-1.7-.36 2.72 2.72 0 0 1-1.12-1c-.27-.43-.4-.93-.4-1.5V30h1.44v5.03c0 .33.07.62.22.88.14.25.35.45.62.6.26.14.58.22.94.22.37 0 .68-.08.95-.22.27-.15.48-.35.62-.6.14-.26.21-.55.21-.88V30ZM31.37 34a4.4 4.4 0 0 1-.5 2.16c-.33.6-.78 1.05-1.34 1.36-.57.32-1.21.48-1.93.48a3.9 3.9 0 0 1-1.93-.48 3.48 3.48 0 0 1-1.34-1.37c-.33-.6-.5-1.31-.5-2.15 0-.84.17-1.56.5-2.15.33-.6.78-1.06 1.34-1.37A3.9 3.9 0 0 1 27.6 30c.72 0 1.36.16 1.93.48a3.4 3.4 0 0 1 1.34 1.37c.33.6.5 1.31.5 2.15Zm-1.5 0c0-.6-.1-1.09-.29-1.5a2.09 2.09 0 0 0-1.98-1.23c-.44 0-.84.1-1.18.31-.34.21-.6.52-.8.93-.2.4-.3.9-.3 1.49 0 .6.1 1.09.3 1.5.2.4.46.71.8.92.34.21.74.31 1.18.31.45 0 .84-.1 1.18-.3.34-.22.61-.53.8-.93.2-.41.3-.9.3-1.5ZM17 38v-8h3.07c.63 0 1.16.1 1.59.32.43.21.75.51.97.9.22.38.33.83.33 1.34 0 1.74-1.25 2.64-2.9 2.64h-2.2V34h2c.95 0 1.59-.44 1.59-1.44 0-.29-.06-.53-.17-.73-.12-.2-.3-.35-.53-.46a2.2 2.2 0 0 0-.9-.16h-1.37V38H17Zm4.23-3.5 2.03 3.5h-1.65l-2-3.5h1.62ZM13.7 32.6a1.97 1.97 0 0 0-.7-.98c-.15-.12-.34-.2-.55-.26a2.42 2.42 0 0 0-1.85.22c-.35.21-.62.52-.82.93-.19.4-.29.9-.29 1.48 0 .59.1 1.09.3 1.5.19.4.46.72.8.93.35.2.76.31 1.22.31.41 0 .77-.07 1.08-.22.3-.16.54-.37.7-.65.17-.28.25-.61.25-.99l.34.05h-2.23v-1.1h3.33v.93a3 3 0 0 1-1.68 2.86c-.52.26-1.12.39-1.8.39-.76 0-1.42-.16-2-.48a3.41 3.41 0 0 1-1.32-1.38C8.16 35.54 8 34.83 8 34c0-.63.1-1.2.28-1.69.19-.5.45-.91.8-1.26.33-.34.73-.6 1.19-.79a4.1 4.1 0 0 1 2.76-.08c.38.12.73.3 1.04.53.3.23.56.5.75.82.2.32.33.67.4 1.05H13.7ZM45.14 22a4.4 4.4 0 0 1-.5 2.16c-.32.6-.77 1.05-1.34 1.36-.56.32-1.2.48-1.92.48a3.9 3.9 0 0 1-1.93-.48 3.48 3.48 0 0 1-1.35-1.37c-.32-.6-.49-1.31-.49-2.15 0-.84.17-1.56.5-2.15.32-.6.77-1.06 1.34-1.37a3.9 3.9 0 0 1 1.93-.48c.71 0 1.36.16 1.92.48a3.4 3.4 0 0 1 1.35 1.37c.33.6.5 1.31.5 2.15Zm-1.49 0c0-.6-.1-1.09-.3-1.5a2.09 2.09 0 0 0-1.97-1.23c-.45 0-.84.1-1.18.31-.34.21-.61.52-.8.93-.2.4-.3.9-.3 1.49 0 .6.1 1.09.3 1.5.19.4.46.71.8.92.34.21.73.31 1.18.31.44 0 .84-.1 1.18-.3.34-.22.6-.53.8-.93.2-.41.29-.9.29-1.5ZM31.46 19v-1H38v1h-2.53v7H34v-7h-2.54ZM30.42 18v8h-1.26l-3.68-5.45h-.06V26H24v-8h1.27l3.67 5.45H29V18h1.42ZM23 18v8H21.5v-8h1.48ZM12.25 26l-2.3-8h1.59L13 23.88h.08L14.67 18h1.45l1.58 5.88h.07L19.25 18h1.6l-2.32 8h-1.46l-1.64-5.61h-.07L13.72 26h-1.47Z"/></svg>