<!-- by TradingView --><svg width="56" height="56" xmlns="http://www.w3.org/2000/svg"><path fill="#FED02F" d="M0 0h56v56H0z"/><path d="M15.21 30c.63.031.79-.072.79-.5s-.372-.505-.802-.5H9.985c-.493.002-.984-.152-.985-.675v-.579c0-.625.48-.76 1.116-.746h5.082c.547.008.802-.1.802-.5s-.155-.505-.624-.5H10.07C9.744 25.999 9 26 9 25.485v-.891c0-.312.156-.594.848-.594h5.436c.48.005.729-.136.716-.5-.013-.364-.28-.506-.802-.5-1.966.023-3.529-.028-5.494 0-.54.008-.76-.288-.704-.83.023-.23.011-.464 0-.695-.018-.362.361-.488.704-.475h1.025c.459.03.66-.597.64-1.092-.013-.34.055-.837.634-.908h.85c.425.048.501.269.584.66.158.742.55 1.359 1.249 1.34 1.875-.051 5.627 0 5.627 0 .61.012.966-.582 1.102-1.249.052-.25.178-.751.58-.751h.916c.415 0 .612.584.588.8 0 .56.184 1.268.736 1.2h.643c1.099-.002 1.122.25 1.122 1.298 0 .452-.318.702-.623.702-1.944.006-3.676.013-5.62 0-.449-.003-.74.098-.757.5-.017.402.192.51.758.5h5.468c.577-.01.774.228.774.59v.708c0 .589-.206.708-.722.702h-5.54c-.564-.01-.738.1-.738.5s.224.506.692.5h5.302c.8 0 1.008.097 1.006 1.11-.001.715-.203.89-1.006.89-1.831.001-3.472.021-5.302 0-.48-.006-.692.143-.692.5s.151.508.702.5h5.44c.715-.015.849.392.858 1 .01.637-.167 1.02-.858 1h-5.19c-.169 0-.304.057-.374.277-.061.198.24.426.373.54 1.546 1.327 3.167 1.946 5.15 2.11.284.023.691-.066.754.3.092.536.17 1.112-.06 1.635-.089.2-.37.127-.567.115-2.825-.176-5.356-1.071-7.33-3.25-.387-.427-.578-.38-.942.02C14.979 35.93 12.44 36.812 9.619 37c-.492.033-.615-.18-.615-.653 0-1.297-.149-1.247 1.112-1.42 1.777-.244 3.483-.923 4.888-2.11.154-.13.356-.315.28-.54-.081-.238-.237-.276-.427-.277-1.718-.006-3.436-.03-5.153 0-.52.01-.721-.427-.704-1 0-.897.221-1 1.286-1h4.925zm15.91-9C29 21 29 21.113 29 22.11c-.018.769.36.89 1.09.89h2.904c1.302.002 1.43.16 1.173 1.356-.67 3.12-1.767 7.72-3.164 10.616-.966 2.002-.77 2.028.148 2.028 1.189.053 1.728-.4 2.133-1.358 1.362-3.224 2.634-8.081 3.169-11.532.127-.822.421-1.099 1.352-1.11h2.668c1.215 0 1.58.19 1.527 1.356 0 0 .196 8.236-.56 11.6-.08.354-.14.866.428.99 1.238.206 1.614-.095 1.84-2.409-.005.035.002-.037 0 0 .292-2.997.284-7.303.292-10.181.002-.893.923-1.486 2.015-1.356.985 0 .985-.261.985-1 0-.55 0-1-.834-1-.99 0-2.295-.007-2.166-1.013 0-.78-.064-.987-.609-.987h-.59c-.721 0-.833.039-.801 1.461.062.373-.939.57-1.822.539H31.12z" fill="#000"/></svg>