<!-- by TradingView --><svg width="56" height="56" viewBox="0 0 56 56" xmlns="http://www.w3.org/2000/svg"><path fill="#F0F3FA" d="M0 0h56v56H0z"/><path d="M8 36V20.05h14.15c-.58.43-1.97 1.65-2.95 3.45h-6.7V27h5.9c-.14.19-.44.75-.44 1.45s.3 1.33.45 1.55H12.5v6H8Z" fill="#143374"/><path d="M27.12 35.99H33v-5.5a5.05 5.05 0 0 1-3.63 2.01h-.4a4.5 4.5 0 0 1 0-9H33V20h-4.66c-.9 0-8.34.84-8.34 7.95 0 5.7 4.75 7.73 7.12 8.04ZM42.12 36H48v-5.5a4.8 4.8 0 0 1-3.63 1.87h-.4A4.39 4.39 0 0 1 39.5 28a4.5 4.5 0 0 1 4.47-4.5H48V20h-4.66c-.9 0-8.34.84-8.34 7.96 0 5.7 4.75 7.73 7.12 8.04Z" fill="#143374"/><path fill="#5BB53C" d="M29 27h4v3h-4zM44 27h4v3h-4z"/></svg>