<!-- by TradingView --><svg width="56" height="56" viewBox="0 0 56 56" xmlns="http://www.w3.org/2000/svg"><path fill="#F0F3FA" d="M0 0h56v56H0z"/><path d="m37.46 14-3.28 9.08c.15.03.3.08.43.14L40.08 14h-2.62Zm-.99 0-2.75 8.5.26-8.5h2.5ZM33 14v8.99h-.03L30.42 14H33Zm-3.56 0 2.95 9.1c-.18.06-.36.13-.53.22L26.95 14h2.5Zm-3.64 0 5.66 9.55-.21.15-9.1-9.7h3.65Zm-5.2 0 10.19 10.15a3.5 3.5 0 0 0 2.56 5.78c.78 0 1.5-.27 2.08-.72L44 38.24V42H12V14h.32l9.47 6.04 6.74 3.1L13.94 14h6.65ZM44 37.17v-3.72l-7.97-4.85-.11.14L44 37.17Zm0-4.53v-2.41l-7.47-2.51-.14.3L44 32.64Zm0-3.32V27h-7.28l-.02.09 7.3 2.23ZM44 26v-1.84l-7.27 1.82V26H44Zm0-2.75v-2.37l-7.53 4.17c.07.16.13.33.18.5 2.62-.83 5.93-1.88 7.35-2.3Zm0-3.33v-3.27l-8.06 7.54.2.26L44 19.92Zm0-4.47V14h-2.86l-5.97 9.5.3.22L44 15.45Z" fill="#F3B931"/><path d="M12 42V17.02c19.4.94 29.42 17.04 32 24.98H12Z" fill="url(#a)"/><path d="M12 42c2.96-15.98 15.71-17.08 21.72-15.63C21.64 26.87 18.9 37 19.03 42H12Z" fill="url(#b)"/><defs><linearGradient id="a" x1="26.68" y1="25.78" x2="12.56" y2="41.74" gradientUnits="userSpaceOnUse"><stop offset=".07" stop-color="#005171"/><stop offset="1" stop-color="#809DB2"/></linearGradient><linearGradient id="b" x1="33.06" y1="25.9" x2="12.16" y2="41.99" gradientUnits="userSpaceOnUse"><stop stop-color="#EDB533"/><stop offset=".42" stop-color="#FBE7B9"/><stop offset="1" stop-color="#F3B932"/></linearGradient></defs></svg>