<!-- by TradingView --><svg width="56" height="56" viewBox="0 0 56 56" xmlns="http://www.w3.org/2000/svg"><path fill="#F0F3FA" d="M0 0h56v56H0z"/><path fill-rule="evenodd" d="M29.92 11a485.68 485.68 0 0 0-3.9.02.13.13 0 0 0-.07.13l.2 1.95c0 .09-.03.14-.12.15l-1.18.21c-.1.02-.16-.02-.18-.11l-.46-1.92a.14.14 0 0 0-.07-.09.14.14 0 0 0-.11 0l-3.64 1.32a.1.1 0 0 0-.07.1.1.1 0 0 0 0 .03l.84 1.87a.14.14 0 0 1-.06.18l-1 .58a.15.15 0 0 1-.2-.05l-1.08-1.62a.16.16 0 0 0-.18-.06.16.16 0 0 0-.06.03l-2.93 2.48a.14.14 0 0 0-.05.1.14.14 0 0 0 .04.1l1.38 1.4c.03.02.04.06.04.1 0 .04 0 .07-.03.1l-.74.89c-.06.08-.14.09-.23.02l-1.53-1.14a.16.16 0 0 0-.19 0 .16.16 0 0 0-.04.05l-1.9 3.33a.17.17 0 0 0 .07.24l1.77.8c.08.02.1.08.08.16l-.4 1.12a.11.11 0 0 1-.06.07.1.1 0 0 1-.08 0l-1.99-.48a.1.1 0 0 0-.08.01.1.1 0 0 0-.04.07L11 26.96a.1.1 0 0 0 .05.11.1.1 0 0 0 .04.02l2.02.21c.07 0 .11.05.11.13v1.18c0 .06-.03.1-.1.1l-2 .21a.13.13 0 0 0-.09.05.13.13 0 0 0-.02.1l.66 3.8a.11.11 0 0 0 .04.07.1.1 0 0 0 .09.01l1.97-.48a.13.13 0 0 1 .16.08l.4 1.11c.02.08 0 .14-.08.17l-1.79.8a.16.16 0 0 0-.07.23l1.9 3.31a.14.14 0 0 0 .15.07c.02 0 .04 0 .05-.02l1.65-1.13a.11.11 0 0 1 .15.02l.73.89a.18.18 0 0 1 0 .23l-1.36 1.37a.16.16 0 0 0 .01.23l2.9 2.45a.13.13 0 0 0 .1.03.13.13 0 0 0 .1-.05l1.17-1.6c.06-.08.12-.1.2-.05l.97.56a.13.13 0 0 1 .05.17l-.8 1.84a.13.13 0 0 0 .07.17l3.59 1.31a.15.15 0 0 0 .12 0 .15.15 0 0 0 .08-.1l.45-1.9c.02-.1.08-.13.17-.12l1.22.22c.05.01.07.04.07.1l-.15 2.01a.12.12 0 0 0 .03.1.13.13 0 0 0 .1.03H28a416.8 416.8 0 0 0 1.94-.01c.02 0 .03-.02.04-.03a.12.12 0 0 0 .03-.09l-.15-2.02c0-.05.02-.08.08-.09l1.21-.22c.1-.01.15.02.17.12l.46 1.9a.16.16 0 0 0 .07.1.15.15 0 0 0 .13 0l3.59-1.3a.13.13 0 0 0 .08-.13l-.01-.05-.8-1.84a.13.13 0 0 1 .05-.17l.96-.56c.08-.05.15-.03.2.04l1.18 1.6a.13.13 0 0 0 .09.06.13.13 0 0 0 .1-.03l2.9-2.45a.16.16 0 0 0 .04-.18.16.16 0 0 0-.03-.06l-1.35-1.36a.18.18 0 0 1-.01-.24l.73-.88a.11.11 0 0 1 .15-.02l1.65 1.13a.14.14 0 0 0 .2-.05l1.9-3.32a.16.16 0 0 0-.02-.18.15.15 0 0 0-.05-.04l-1.79-.8c-.07-.04-.1-.1-.07-.17l.4-1.11a.13.13 0 0 1 .15-.08l1.97.48a.1.1 0 0 0 .12-.04l.01-.05.66-3.79a.13.13 0 0 0-.06-.14.13.13 0 0 0-.05-.01l-2-.2c-.07-.01-.1-.05-.1-.12v-1.17c0-.08.04-.12.11-.13l2.02-.22a.1.1 0 0 0 .09-.12l-.67-3.83a.1.1 0 0 0-.05-.06.1.1 0 0 0-.07-.02l-2 .5a.1.1 0 0 1-.07-.02.11.11 0 0 1-.06-.06l-.4-1.12c-.03-.08 0-.14.08-.17l1.77-.8a.17.17 0 0 0 .1-.17.17.17 0 0 0-.03-.06l-1.9-3.33a.16.16 0 0 0-.17-.08.16.16 0 0 0-.07.03l-1.53 1.14c-.08.06-.16.05-.23-.03l-.73-.88a.16.16 0 0 1-.04-.1c0-.04.02-.08.05-.1l1.38-1.4a.14.14 0 0 0 0-.2l-2.94-2.48a.16.16 0 0 0-.2-.02.16.16 0 0 0-.04.05l-1.09 1.62a.15.15 0 0 1-.2.04l-1-.58a.14.14 0 0 1-.06-.17l.84-1.87a.1.1 0 0 0 0-.08.1.1 0 0 0-.06-.05l-3.64-1.33a.14.14 0 0 0-.16.05.14.14 0 0 0-.02.05l-.47 1.92c-.02.1-.08.13-.17.11l-1.19-.2c-.08-.02-.12-.07-.1-.16l.18-1.95a.13.13 0 0 0-.07-.14.13.13 0 0 0-.05 0Zm-.45.45a490.53 490.53 0 0 1-2.95 0c-.07 0-.1.04-.1.12l.2 1.89a.18.18 0 0 1-.15.19l-1.92.34a.18.18 0 0 1-.21-.14l-.42-1.75a.18.18 0 0 0-.1-.12.18.18 0 0 0-.14-.01l-2.65.96a.1.1 0 0 0-.06.1v.04l.78 1.75c.02.04.02.1 0 .13a.18.18 0 0 1-.07.1l-1.64.96a.25.25 0 0 1-.33-.08l-1.02-1.52a.11.11 0 0 0-.07-.04.1.1 0 0 0-.09.02l-2.18 1.84a.13.13 0 0 0-.05.1.13.13 0 0 0 .04.1l1.35 1.36c.02.02.04.06.04.1l-.03.09-1.29 1.54a.2.2 0 0 1-.26.03l-1.48-1.1a.15.15 0 0 0-.12-.04.15.15 0 0 0-.1.08l-1.43 2.5a.12.12 0 0 0-.01.1.12.12 0 0 0 .06.06l1.69.76c.05.02.09.06.1.1.03.06.03.12.01.17L14.22 24a.15.15 0 0 1-.06.08.14.14 0 0 1-.1.01l-1.94-.48a.06.06 0 0 0-.05.01.06.06 0 0 0-.03.05l-.5 2.84c-.02.1.02.16.12.17l1.89.2a.15.15 0 0 1 .13.15v1.9c0 .12-.06.2-.2.2l-1.87.2a.09.09 0 0 0-.07.06.1.1 0 0 0 0 .04l.5 2.85c0 .09.06.12.15.1l1.81-.44a.2.2 0 0 1 .24.12l.64 1.78a.2.2 0 0 1 0 .15.2.2 0 0 1-.1.1l-1.7.76a.13.13 0 0 0-.07.08.12.12 0 0 0 .01.1l1.41 2.47a.14.14 0 0 0 .1.07.14.14 0 0 0 .1-.02l1.55-1.06a.2.2 0 0 1 .13-.03c.05 0 .1.03.13.07l1.22 1.48c.03.03.04.07.04.11 0 .04-.02.08-.05.11l-1.33 1.34a.14.14 0 0 0-.04.1.14.14 0 0 0 .05.1l2.17 1.85a.11.11 0 0 0 .13 0l.04-.02 1.08-1.49a.25.25 0 0 1 .34-.07l1.56.91a.2.2 0 0 1 .08.25l-.77 1.76c-.03.06-.01.1.04.12l2.67.97a.18.18 0 0 0 .2-.06.19.19 0 0 0 .04-.07l.42-1.73c.03-.13.1-.18.23-.16l1.99.36c.02 0 .04.01.05.03.02.02.02.04.02.06l-.2 1.97a.12.12 0 0 0 .06.12h.05a94.4 94.4 0 0 1 2.98 0 .12.12 0 0 0 .07-.12l-.2-1.97.01-.06a.08.08 0 0 1 .05-.03l2-.36c.12-.02.2.03.23.16l.41 1.73a.19.19 0 0 0 .17.14l.08-.01 2.66-.97c.06-.02.07-.06.05-.12l-.77-1.76a.2.2 0 0 1 .08-.25l1.56-.9a.25.25 0 0 1 .33.06l1.09 1.49a.11.11 0 0 0 .16.02l2.17-1.84a.14.14 0 0 0 .05-.1.14.14 0 0 0-.04-.1l-1.33-1.35a.16.16 0 0 1-.05-.1c0-.05.02-.09.04-.12l1.23-1.48a.2.2 0 0 1 .12-.07c.05 0 .1 0 .14.03l1.54 1.06a.14.14 0 0 0 .16 0 .14.14 0 0 0 .04-.05l1.42-2.47a.12.12 0 0 0 0-.1.13.13 0 0 0-.06-.08l-1.7-.76a.2.2 0 0 1-.1-.1.2.2 0 0 1 0-.14l.63-1.78a.2.2 0 0 1 .24-.13l1.81.44c.1.02.15-.01.17-.1l.5-2.85a.1.1 0 0 0-.05-.1h-.04l-1.87-.2c-.13 0-.2-.07-.2-.2v-1.9a.15.15 0 0 1 .14-.15l1.88-.2c.1-.01.14-.07.13-.16l-.5-2.85a.06.06 0 0 0-.03-.05.06.06 0 0 0-.05 0l-1.94.47-.1-.01a.15.15 0 0 1-.07-.08l-.65-1.82a.23.23 0 0 1 0-.16c.03-.05.07-.09.12-.11l1.68-.75a.12.12 0 0 0 .07-.13l-.01-.04-1.43-2.5a.15.15 0 0 0-.22-.05l-1.48 1.11a.2.2 0 0 1-.27-.03l-1.28-1.54a.14.14 0 0 1-.03-.1c0-.03.01-.07.04-.09l1.34-1.36a.13.13 0 0 0 .04-.1.13.13 0 0 0-.04-.1l-2.19-1.84a.1.1 0 0 0-.08-.02.1.1 0 0 0-.08.04l-1.01 1.52a.25.25 0 0 1-.34.08l-1.63-.95a.18.18 0 0 1-.08-.1.19.19 0 0 1 0-.14l.78-1.75a.1.1 0 0 0-.06-.14l-2.64-.96a.18.18 0 0 0-.2.06.18.18 0 0 0-.04.07l-.42 1.75a.18.18 0 0 1-.2.14l-1.93-.34a.18.18 0 0 1-.14-.2l.18-1.88c.01-.08-.02-.12-.1-.12Z" fill="#AB8821"/><path d="M27.95 21.68a.06.06 0 0 1 .04-.03h.03l.02.02a.4.4 0 0 1 .06.25.06.06 0 0 1-.07.06c-.01 0-.02 0-.03-.02-.08-.06-.1-.16-.05-.28ZM24.17 25.89l-.04.08c-.05.09-.09.08-.11-.01l-.07-.3a.25.25 0 0 0-.11-.16l-.42-.27a1.2 1.2 0 0 1-.35-.33c-.16-.24-.3-.53-.4-.87a.49.49 0 0 0-.26-.32c-.07-.03-.12-.01-.15.06a.1.1 0 0 1-.04.04c-.05.03-.08.01-.1-.04l-.03-.17a.22.22 0 0 0-.11-.14c-.05-.03-.08-.07-.08-.1 0-.06.02-.07.06-.04.13.1.26.17.39.2a.56.56 0 0 1 .4.4c.2.76.66 1.27 1.38 1.52.06.03.1.07.13.12.03.07.1.17.22.31.02.03.03.05.02.07l-.01.05c-.02.03-.03.03-.05.01l-.13-.13c-.05-.05-.1-.05-.14.02Z" fill="#AB8821"/><path fill-rule="evenodd" d="M17.25 21.95a1.57 1.57 0 0 0-.51.64l-.02.02h-.03c-.01 0-.02 0-.03-.02a.2.2 0 0 1-.04-.04.2.2 0 0 0-.18-.1c-.21 0-.4-.02-.56-.06-.29-.07-.34.01-.16.24l.48.61c.03.04.04.09.01.14l-.42.95a.11.11 0 0 0 .08.16h.06l.84-.31a.14.14 0 0 1 .15.04l.76.76a.09.09 0 0 0 .14-.02l.01-.05-.1-.98a.18.18 0 0 1 .08-.17c.32-.2.58-.32.76-.4.26-.1.25-.2 0-.3l-.7-.24a.24.24 0 0 1-.16-.18l-.12-.5a.32.32 0 0 1 0-.18.27.27 0 0 0 0-.16.17.17 0 0 0-.09-.11c-.09-.05-.14 0-.16.11a.22.22 0 0 1-.09.15Zm-.28.97c0-.05-.02-.11-.08-.18-.03-.05-.03-.09 0-.13l.3-.36c.1-.12.14-.1.12.05-.04.3-.12.56-.24.78a.17.17 0 0 1-.17.08 5.55 5.55 0 0 1-.6-.37c-.31-.25-.28-.32.11-.22.12.03.28.16.48.38.05.05.08.04.08-.03Zm.4.36v-.02c-.01-.07.03-.14.1-.2a.48.48 0 0 1 .27-.1h.04c.1 0 .2.03.28.08.08.04.12.11.13.18v.02h-.01l-.8.04Zm-1.08.74.08-.08a.7.7 0 0 1 .15-.1c.13-.09.2-.17.22-.24.02-.07 0-.11-.08-.12-.28-.02-.44.14-.47.5 0 .1.03.12.1.04Zm1.05.03c.06.2.16.36.23.34.06-.02.07-.2 0-.41-.06-.2-.16-.36-.23-.34-.06.02-.07.2 0 .41Z" fill="#AB8821"/><path d="M38.58 23.97a.29.29 0 0 1 .12-.05.1.1 0 0 1 .1.05.1.1 0 0 1 0 .1c-.11.33-.28.62-.5.87-.05.06-.05.11 0 .17l.05.06a.05.05 0 0 0 .03.02h.02l.02-.02.65-.65a.19.19 0 0 1 .21-.05l.79.28c.2.08.26.01.17-.19l-.38-.87a.15.15 0 0 1 0-.15l.45-.67a.13.13 0 0 0 .02-.1.18.18 0 0 0-.05-.1c-.03-.03-.09-.02-.17 0-.2.08-.45.1-.75.1a.2.2 0 0 1-.15-.08l-.51-.62a.14.14 0 0 0-.13-.05.13.13 0 0 0-.1.09c-.1.25-.15.53-.14.83 0 .07-.03.11-.1.13l-.41.1h-.02v.03a.04.04 0 0 0 0 .03l.06.05.03.02c.24-.05.48-.05.7.02.04.01.06 0 .07-.05 0-.02-.01-.04-.03-.05a.2.2 0 0 1-.12-.17c-.01-.24 0-.41.02-.51.05-.19.1-.19.14-.01l.17.63a.31.31 0 0 1-.14.35.32.32 0 0 1-.13.04 1.7 1.7 0 0 1-.93-.23.2.2 0 0 0-.23.03l-.09.07a.11.11 0 0 0-.03.1.11.11 0 0 0 .06.08l.8.36c.08.04.12.1.1.2l-.1.56.01.01.06.03c.02 0 .04 0 .04-.03.02-.25.1-.47.23-.68a.28.28 0 0 1 .1-.08Zm.62-.53h-.01a.02.02 0 0 1-.02 0v-.01a.2.2 0 0 1-.04-.1l.02-.11a.4.4 0 0 1 .07-.11.5.5 0 0 1 .1-.1l.06-.03a.44.44 0 0 1 .25-.08c.08 0 .15.04.19.1v.03l-.63.4Zm.07.43v-.03l.01-.01a.2.2 0 0 1 .08-.06.26.26 0 0 1 .11-.02l.13.03.11.08.04.03c.07.06.13.14.15.22.02.08 0 .15-.04.2v.01a.02.02 0 0 1-.03.01h-.01l-.55-.46ZM22.42 24.78c.02-.04 0-.06-.04-.06h-.07l-.02.01c-.13.42 0 .69.4.81a.2.2 0 0 0 .17-.02c.13-.08.27-.1.44-.04.07.02.06.05-.01.1l-.4.06c-.08 0-.08.03-.02.08.08.05.24.09.5.12.04 0 .07-.02.08-.06l.02-.1c.01-.05.04-.06.08-.03.1.06.13.13.12.22-.04.22.03.33.2.33.07 0 .1.04.1.12v.66a.07.07 0 0 1-.05.02l-.07.02c-.06 0-.1-.02-.1-.09.02-.18 0-.35-.06-.5a.28.28 0 0 0-.12-.13l-1.1-.65c-.22-.12-.36-.4-.4-.84 0-.07.03-.13.1-.17.12-.07.14-.2.06-.4v-.04l.01-.03.05-.05a.03.03 0 0 1 .03 0h.01v.01c.07.18.1.34.09.47 0 .06.02.11.07.15.13.1.19.22.19.39 0 .05-.03.07-.08.06l-.08-.02a.13.13 0 0 1-.1-.08.43.43 0 0 1 0-.32ZM16.88 27.7l.05.02c.06.01.08.05.06.1l-.03.04a.1.1 0 0 1-.06.03c-.22.03-.37.06-.45.11-.06.05-.1.1-.1.16 0 .08.03.12.1.12.2.02.4-.04.57-.18a.23.23 0 0 1 .36.15c.05.49 0 .88-.14 1.17-.13.26-.24.25-.31-.04 0-.02-.04-.05-.1-.08a.15.15 0 0 0-.15-.02l-.27.13a.2.2 0 0 1-.26-.08 7.86 7.86 0 0 1-.21-.36c-.1-.19-.13-.33-.1-.42.09-.17.2-.32.34-.43.06-.04.07-.09.05-.16l-.21-.47a.14.14 0 0 1 .02-.16c.16-.18.19-.37.07-.55a.09.09 0 0 1 0-.09.08.08 0 0 1 .07-.04c.2-.01.4-.09.57-.23.05-.04.1-.04.16 0 .05.05.09.14.11.28a.2.2 0 0 1-.06.17.2.2 0 0 1-.17.05c-.11-.02-.2.01-.3.1a.17.17 0 0 0-.03.19l.03.07c.03.06.06.06.1.01.1-.1.2-.16.33-.15.07 0 .11.04.13.11.01.12-.04.23-.16.35-.03.03-.03.06 0 .1ZM15.58 27.16c-.34.2-.66-.16-.71-.45-.02-.08.02-.12.1-.12.24 0 .46.09.64.25a.2.2 0 0 1-.03.32ZM40.13 26.83a.6.6 0 0 1 .3-.16.2.2 0 0 1 .17.06c.24.24.24.48-.01.72a.2.2 0 0 0-.06.17c.03.25-.1.41-.36.47-.05.01-.07.04-.06.09v.04l.02.01c.26.03.54 0 .84-.1a.18.18 0 0 1 .21.1c.06.09.06.17 0 .24-.04.05-.1.07-.2.07l-1.04-.04a.29.29 0 0 0-.29.2.3.3 0 0 0-.01.12l.02.2c0 .02 0 .03.02.05.07.08.15.08.24 0 .06-.04.07-.1.04-.16l-.03-.06c-.02-.07 0-.12.05-.16.13-.1.27-.05.43.14.15.18.11.32-.1.4l-.13.04c-.08.03-.1.08-.04.15.03.04.1.07.17.08l.32.02c.1 0 .19.03.23.09.08.1.09.2.04.32a.25.25 0 0 1-.23.14.24.24 0 0 1-.22-.14l-.09-.2c-.02-.05-.05-.07-.1-.06a.13.13 0 0 0-.06.03.08.08 0 0 0-.03.04l-.12.53-.05.07a.13.13 0 0 1-.08.02c-.11 0-.18-.07-.2-.2a.18.18 0 0 0-.14-.15c-.15-.04-.3.02-.46.16a.26.26 0 0 1-.11.06.24.24 0 0 1-.13 0 .2.2 0 0 1-.14-.19c-.01-.09.05-.14.17-.17.06 0 .1-.04.12-.1a.21.21 0 0 1 .34-.1l.17.14a.17.17 0 0 0 .25-.04c.06-.09.06-.16 0-.23-.02-.03-.08-.06-.18-.08-.23-.05-.37-.2-.43-.44-.02-.06 0-.11.06-.15.1-.05.15-.1.15-.14 0-.06-.03-.1-.1-.08a.76.76 0 0 0-.39.2.13.13 0 0 1-.15.03l-.25-.11c-.1-.05-.1-.09 0-.13.36-.14.7-.24 1.02-.28.22-.03.23-.1.03-.2-.08-.04-.2-.15-.37-.32a.32.32 0 0 1-.1-.25c.01-.14.03-.23.07-.28a.25.25 0 0 1 .26-.09c.05.01.1.04.13.08.04.03.06.08.07.13.03.11.04.22.03.32-.01.07.01.13.08.16.07.04.15.05.23.02a.09.09 0 0 0 .05-.05.08.08 0 0 0-.01-.07.16.16 0 0 0-.05-.06.25.25 0 0 1-.05-.04.2.2 0 0 1-.04-.05.11.11 0 0 1-.01-.05l.01-.04.16-.18c.04-.05.04-.1 0-.14-.03-.04-.11-.08-.24-.11-.07-.02-.1-.06-.06-.12.04-.1.12-.15.25-.14.06 0 .12-.01.17-.05ZM21.6 28.34c-.07-.07-.09-.15-.04-.24.16-.3.23-.61.2-.92 0-.04-.03-.07-.07-.08l-.06-.01a.07.07 0 0 0-.05 0 .07.07 0 0 0-.03.05l-.07.26c-.01.07-.06.1-.13.1h-.13a.1.1 0 0 1-.09-.07.1.1 0 0 1 .05-.1.76.76 0 0 0 .26-.29c.03-.06.08-.1.15-.12.11-.03.2 0 .27.06.03.04.05.1.05.22l-.01.26c-.07.3 0 .34.2.1.17-.19.38-.37.63-.53a.6.6 0 0 1 .4-.1c.14.02.26.09.34.2.02.02.1 0 .23-.03a.1.1 0 0 1 .11.1.2.2 0 0 1-.02.07.16.16 0 0 1-.25.04c-.2-.18-.4-.25-.62-.21a.63.63 0 0 0-.37.23l-.32.33c-.03.04-.15.12-.34.25-.2.13-.23.3-.1.53.04.06.03.11-.01.16l-.1.11c-.06.06-.09.05-.1-.05l.06-.2c.01-.04 0-.09-.04-.13Z" fill="#AB8821"/><path d="M22.37 28.1c-.14.13-.23.2-.26.2-.33.01-.34-.05-.05-.2.22-.11.4-.33.57-.65l.04-.02.07-.02c.03 0 .04.01.03.04l-.19.41a.29.29 0 0 0-.02.17c.06.28.23.43.51.46l.18-.03a.42.42 0 0 1 .3-.03c.1.03.1.06 0 .09l-1.56.57a.14.14 0 0 0-.08.06c-.05.08-.13.11-.26.09-.08-.02-.12.01-.11.1l.05.09c.05.05.1.05.16.01l.45-.33a.25.25 0 0 1 .19-.05l.53.06a.1.1 0 0 1 .05.02.1.1 0 0 1 .03.04.3.3 0 0 1 .02.06c0 .05-.03.09-.1.1a.15.15 0 0 0-.06.04.08.08 0 0 0-.03.04c-.03.08-.02.14.02.18.07.06.12.05.17-.02l.06-.08c.03-.05.05-.05.08 0a.58.58 0 0 0 .03.04v.01c-.23.18-.35.36-.37.54 0 .05 0 .1.03.15.02.04.06.08.11.1.3.12.45 0 .45-.37a.04.04 0 0 1 .04-.03h.02l.06.06c.04.05.05.1 0 .15-.25.3-.23.56.07.78.03.02.05.03.07.02.03 0 .04-.01.05-.03.01-.02 0-.05 0-.07l-.1-.11-.01-.02a.05.05 0 0 1 .02-.05.25.25 0 0 1 .05-.03h.03l.02.01.19.2c.05.06.05.1-.02.14a.32.32 0 0 0-.11.12.4.4 0 0 0-.06.15c-.02.23-.06.45-.14.65a.18.18 0 0 0 .04.2l.42.43.03.02h.04c.12-.01.2.03.25.13.09.2.22.37.41.52.05.04.09.1.1.16.04.13.1.26.2.37.23.25.27.84.25 1.16 0 .07.01.12.05.18.05.08.12.15.21.21a.16.16 0 0 1 .07.16c-.05.26.05.44.28.52a.12.12 0 0 0 .12-.02.13.13 0 0 0 .04-.12.82.82 0 0 0-.25-.42.07.07 0 0 1-.01-.08l.03-.07a.04.04 0 0 1 .03-.02h.04c.2.15.3.35.33.6.01.18-.06.27-.24.26a.72.72 0 0 1-.47-.18.18.18 0 0 1-.06-.17c.05-.25-.03-.43-.23-.54a.16.16 0 0 1-.08-.15v-.9a.2.2 0 0 0-.05-.13c-.13-.14-.22-.3-.3-.48-.04-.1-.17-.24-.4-.4-.3-.23-.53-.46-.7-.7a.2.2 0 0 0-.14-.1.28.28 0 0 1-.23-.14.22.22 0 0 1-.02-.19c.11-.35.01-.6-.3-.75a.38.38 0 0 1-.13-.12c-.2-.27-.37-.44-.55-.53a.16.16 0 0 1-.08-.15c0-.07.01-.13.04-.18.04-.08.08-.08.13 0 .25.46.57.8.95 1.01.04.02.07.01.1-.02a.22.22 0 0 0 .03-.07c0-.01 0-.03-.02-.04l-.8-.82a.2.2 0 0 1-.06-.14v-.9a.1.1 0 0 0-.03-.08.1.1 0 0 0-.08-.03h-.06c-.05 0-.08.03-.07.08l.03.82v.01l-.01.02c-.04.05-.08.05-.12-.01-.02-.03-.05-.04-.08-.03-.07.02-.12.08-.16.17-.02.05-.03.12-.02.19.03.25-.07.41-.3.49-.27.08-.34.27-.2.54.02.06 0 .1-.05.14a.21.21 0 0 1-.05.02c-.07.02-.11 0-.12-.08-.02-.4.12-.7.44-.87a.2.2 0 0 0 .1-.14c.04-.26.12-.47.26-.63a.52.52 0 0 0 .1-.18.4.4 0 0 0 .02-.19l-.02-.12c-.02-.13-.08-.15-.17-.06-.14.13-.3.2-.45.2a.19.19 0 0 1-.17-.08l-.3-.41a.2.2 0 0 1-.03-.2c.08-.24.06-.41-.05-.53-.03-.03-.04-.07-.02-.11l.08-.19a.13.13 0 0 0 0-.1.13.13 0 0 0-.05-.06l-.05-.03c-.07-.03-.09-.08-.05-.15a.09.09 0 0 1 .04-.05c.04 0 .06 0 .07.04.02.05.07.1.16.17.05.04.07.09.06.15l-.03.8c0 .11.03.23.11.36.05.07.1.07.14 0 .05-.08.14-.12.26-.1a.12.12 0 0 0 .14-.08c.03-.1.09-.13.17-.11.05 0 .1 0 .14-.03l.35-.26c.04-.03.04-.07 0-.1a.42.42 0 0 1-.12-.36c0-.1-.02-.12-.1-.05ZM15.53 28.08c.13.03.14.15.02.36a.26.26 0 0 0-.02.18c.06.28.1.56.08.83 0 .08-.03.13-.07.16-.03.02-.07.02-.13 0a.17.17 0 0 1-.13-.13l-.06-.27c-.01-.03-.03-.05-.06-.06a.1.1 0 0 0-.06 0l-.01.02c0 .2-.1.29-.26.25a.26.26 0 0 1-.14-.4l.21-.32a.18.18 0 0 0-.02-.23c-.18-.19-.25-.32-.2-.42.03-.07.09-.1.16-.12.13-.02.22-.1.28-.27a.22.22 0 0 1 .13-.13c.16-.05.26-.04.33.05.04.06.04.13 0 .19l-.11.17c-.06.08-.04.13.06.14Z" fill="#AB8821"/><path d="M20.1 29.22c.03 0 .13-.04.28-.13.18-.11.27-.4.4-.55.15-.2.18-.18.08.05-.07.17-.17.35-.3.54a.26.26 0 0 1-.13.1l-.97.34a.15.15 0 0 1-.15-.03.15.15 0 0 1-.04-.15c.1-.38.36-.6.77-.66.06-.01.1-.04.15-.08l.7-.76h.03c.06.02.07.04.04.07l-.94 1.07c-.12.14-.1.2.07.2ZM25.01 30.65c-.05.2.01.25.19.13.29-.2.61-.28.96-.26l.04.02c.02.01.03.02.03.04v.05c0 .02-.01.03-.03.03-.57.07-1.02.34-1.35.82h-.03l-.05-.12a.08.08 0 0 1 0-.06c.16-.34.16-.66.01-.97a.27.27 0 0 0-.13-.13c-.21-.1-.4-.2-.56-.33-.2-.15-.18-.23.05-.25.04 0 .1.06.17.2l.12.14c.06.04.12.06.2.06a.2.2 0 0 1 .15.08c.2.22.27.4.23.55ZM23.22 30.01c0 .14-.04.22-.11.25a.08.08 0 0 1-.1-.06v-.04c.06-.14.11-.2.18-.2l.02.02v.03Z" fill="#AB8821"/><path d="M24.3 30.45c-.27-.1-.3-.05-.1.16.05.04.13.15.22.32.03.06.08.08.14.07.07-.02.12 0 .14.05.02.07 0 .1-.07.1h-.1c-.04 0-.07.02-.07.06v.13c0 .04 0 .07-.04.1l-.46.46c-.02.03-.05.03-.08.01l-.08-.05c-.02-.02-.03-.04 0-.06l.33-.34a.2.2 0 0 0 .06-.16c-.04-.26-.11-.5-.22-.74a.31.31 0 0 1-.03-.13c0-.05.01-.1.03-.13a.18.18 0 0 1 .09-.08.15.15 0 0 1 .1 0c.19.05.34.19.44.41.02.03.01.05-.02.06l-.07.02a.07.07 0 0 1-.07-.04c-.06-.14-.1-.21-.13-.22Z" fill="#AB8821"/><path fill-rule="evenodd" d="M38 28a10 10 0 1 1-20 0 10 10 0 0 1 20 0Zm-5.91 3.77.2-.03c.05 0 .1.02.12.06l.2.28c.04.05.06.1.07.17 0 .42.1.83.26 1.21.15.36.33.71.52 1.06.03.04.05.04.07 0l.05-.1v-.03a8.18 8.18 0 0 1-.6-1.2c-.1-.22-.15-.5-.17-.86a2.5 2.5 0 0 0-.26-.86.22.22 0 0 1 0-.19.54.54 0 0 1 .24-.28.14.14 0 0 1 .16.01.13.13 0 0 1 .03.16l-.14.31a.12.12 0 0 0 0 .08c0 .03.02.05.05.07.04.02.1.03.18.02a.12.12 0 0 0 .08-.07.11.11 0 0 0 0-.1.5.5 0 0 1-.04-.25.09.09 0 0 1 .12-.08c.1.05.2.04.3-.03a.16.16 0 0 1 .16 0l.11.06c.06.04.12.03.17 0l1.02-.76c.07-.05.07-.1 0-.14l-.18-.12c-.12-.08-.26-.08-.44-.02a2.4 2.4 0 0 1-1.07.1c-.03-.01-.05-.03-.05-.07v-.05a.08.08 0 0 1 .1-.07l.6.06h.02l.02-.02a.03.03 0 0 0-.02-.03c-.16-.12-.36-.2-.58-.26-.07-.01-.12 0-.16.07l-.25.36a.1.1 0 0 1-.04.03.09.09 0 0 1-.04 0h-.14l-.03-.01-.01-.03v-.05c.2-.27.34-.57.41-.9.05-.2 0-.24-.17-.1a.99.99 0 0 0-.2.28.19.19 0 0 1-.15.1c-.18.03-.35 0-.52-.01-.35-.04-.68-.08-1.06.3-.06.07-.1.06-.13-.03-.06-.2-.03-.42.07-.67.03-.07.08-.1.15-.07.07.02.19 0 .25-.02.23-.13.46-.17.7-.14.07.01.13 0 .19-.03.1-.07.28-.14.52-.21.07-.03.1-.07.06-.15a.11.11 0 0 0-.16-.05c-.25.15-.49.23-.71.22-.1 0-.12-.04-.05-.11.2-.19.36-.25.5-.2.07.04.1.02.1-.06a.2.2 0 0 0 0-.08c-.03-.05-.07-.07-.13-.07a.92.92 0 0 0-.67.4c-.03.05-.07.05-.1.01a.42.42 0 0 1-.11-.18.06.06 0 0 0-.05-.04.05.05 0 0 0-.06.03c-.02.08-.01.13.04.16.16.1.15.2-.03.28l-.36.16c-.05.03-.1.02-.13-.02l-.1-.1a.13.13 0 0 1-.03-.15c0-.02.02-.03.03-.04a.3.3 0 0 1 .1-.06c.07-.02.11-.07.12-.14.05-.3.2-.5.44-.6a5.56 5.56 0 0 0 .84-.41c.05-.03.1-.08.11-.14a.9.9 0 0 1 .47-.51c.07-.03.11-.02.14.05.13.29.19.47.17.55-.03.22.02.43.16.62.05.06.07.05.09-.03a.73.73 0 0 0-.07-.27.3.3 0 0 1 0-.18c.05-.19.04-.35-.04-.48-.05-.08-.03-.1.06-.07.08.02.19.12.34.29a.4.4 0 0 0 .06.06c.19.13.23.33.13.6-.02.05-.05.1-.1.16-.06.1-.13.19-.12.3a.09.09 0 0 1-.07.1l-.08.02c-.04 0-.06.03-.05.07a.14.14 0 0 0 .1.09h.03c.1-.03.16 0 .18.07 0 .05-.01.07-.06.08a.07.07 0 0 0-.06.03c-.03.04-.02.08 0 .12.07.08.12.17.15.27.02.07-.01.12-.08.14a.63.63 0 0 1-.25.02.13.13 0 0 0-.1.03.12.12 0 0 0-.04.08v.1c-.02.08.02.11.1.08.3-.1.58-.1.8.01.28.14.52.2.7.19.05 0 .1.01.14.04l.35.24c.08.05.1.03.1-.06a.5.5 0 0 0-.09-.18c-.03-.04-.08-.07-.15-.08-.24-.04-.6-.12-1.05-.26-.22-.06-.32-.2-.3-.43.04-.3.05-.5.05-.59-.02-.19 0-.38.04-.59.09-.4-.06-.74-.45-1.01a.76.76 0 0 1-.3-.77c.08-.42.15-1.12-.39-1.28a.14.14 0 0 1-.1-.13l-.06-.51c-.01-.11-.06-.13-.14-.06-.17.15-.21.36-.12.62.02.06 0 .1-.06.1-.16.03-.29-.03-.37-.19a.13.13 0 0 0-.12-.07c-.24 0-.36-.13-.36-.37 0-.53-.08-.91-.25-1.16-.12-.2-.4-.4-.84-.65-.2-.1-.4-.17-.58-.18a1.43 1.43 0 0 1-.57-.13c-.38-.19-.55-.44-.51-.77a.77.77 0 0 1 .45-.62c.47-.24.93-.25 1.37-.06.23.1.4.28.51.53.08.17.2.4.39.68.3.46.6.61 1.2.67a2.33 2.33 0 0 1 .89.23.04.04 0 0 0 .03-.04v-.02a1.05 1.05 0 0 0-.3-.37.2.2 0 0 0-.08-.03l-.59-.14a.16.16 0 0 1-.12-.12.87.87 0 0 0-.3-.42c-.04-.03-.04-.05 0-.06.03-.01.05 0 .07 0a.1.1 0 0 1 .05.05c.05.1.11.19.19.26.03.04.08.05.13.05h.8c.03 0 .05-.02.05-.05v-.08c-.01-.04-.03-.05-.07-.05-.38 0-.67-.07-.88-.18a.38.38 0 0 1-.13-.14c-.19-.3-.35-.5-.5-.63-.07-.05-.1-.03-.1.08l.25.6c.03.06 0 .08-.06.06-.18-.07-.27-.23-.36-.37-.05-.1-.1-.18-.16-.22a.27.27 0 0 1-.1-.16c-.06-.24-.14-.38-.24-.42a8.77 8.77 0 0 1-.57-.24c-.04-.02-.06 0-.06.05v.05c0 .03 0 .05.03.07l.53.3c.04.02.04.04.01.07l-.03.04h-.01c-.9-.56-1.71-.5-2.42.2a.46.46 0 0 0-.09.1c-.06.12-.05.2.03.24a.08.08 0 0 1 0 .14.29.29 0 0 0-.15.24c0 .08.03.13.09.18l1 .68c.05.03.1.03.14 0l.04-.03c.04-.04.09-.05.14-.04.7.13 1.18.47 1.42 1.04.03.07.07.33.11.78.05.46.32.75.83.87a.39.39 0 0 1 .3.37c0 .03-.04.09-.13.16a.08.08 0 0 1-.08.02.08.08 0 0 1-.05-.06l-.07-.28a.17.17 0 0 0-.12-.12l-.42-.1c-.08-.03-.14 0-.18.07l-.03.05c-.03.05-.06.05-.1.02-.28-.23-.47-.5-.56-.82-.08-.3-.17-.54-.29-.73-.16-.26-.3-.52-.44-.78a.26.26 0 0 0-.15-.13c-.31-.1-.61-.17-.9-.2-.18-.03-.3-.1-.37-.23a.31.31 0 0 0-.15-.13l-.63-.28a.22.22 0 0 1-.12-.14.57.57 0 0 1 .1-.54c.03-.04.06-.05.1-.01l.07.03c.03 0 .05-.01.05-.05v-.38a.3.3 0 0 1 .07-.2l.44-.51c.37-.47.85-.72 1.46-.74.29-.01.59.07.9.24.42.24.68.43.78.56.21.27.39.47.53.6.15.12.18.18.24.3l.04.07c.04.06.09.1.16.1.2.02.37-.02.49-.11.06-.05.06-.1-.02-.13a.32.32 0 0 0-.25 0 .16.16 0 0 1-.18-.04l-1.1-1.1c-.06-.07-.07-.13-.02-.2l.17-.26a.05.05 0 0 0-.05-.08c-.07 0-.16.06-.26.16-.05.05-.1.06-.16.01-.4-.33-.68-.49-.81-.48-.84.02-1.45.15-1.82.37-.1.05-.25.21-.47.5-.13.16-.23.36-.3.59l-.29.88c-.13.4-.02.65.31.78.18.07.18.13 0 .2-.39.13-.71.43-.97.89-.01.01-.03.02-.04.01l-.1-.03c-.04-.02-.05-.04-.02-.08.17-.2.22-.42.14-.67a.3.3 0 0 0-.17-.19.26.26 0 0 0-.24.02l-.43.27a.9.9 0 0 0-.1.07 16.75 16.75 0 0 0-.29.59c-.17.42-.54.7-1.09.84-.02 0-.03.02-.03.05v.06c.01.04.03.06.07.05.59-.16 1.01-.49 1.27-.97.04-.06.05-.13.07-.2.01-.08.03-.16.07-.23.03-.07.08-.08.13-.02.08.09.16.14.23.15.07.02.1-.01.09-.08-.03-.22 0-.4.07-.5.05-.08.1-.07.13.01.06.16.07.28.05.35-.11.35-.17.6-.18.74 0 .2-.06.38-.16.55-.08.14-.15.33-.21.57-.01.02 0 .03.02.04h.07c.02 0 .04 0 .04-.02.25-.6.57-1.13.97-1.62.33-.4.76-.58 1.26-.52a.2.2 0 0 1 .15.08l.06.08c.04.05.1.08.16.08.72.03 1.16.36 1.34 1 .07.25.15.43.23.54.07.1.17.28.29.52.06.14.17.26.27.38.15.16.3.33.38.57a.1.1 0 0 1-.14.14l-.39-.14c-.08-.03-.14 0-.15.09l.01.1c.01.03.04.05.08.08.28.15.32.4.12.73-.17.3-.42.41-.74.34a.27.27 0 0 0-.17.02l-.68.3c-.07.03-.1 0-.09-.06.05-.37.27-.55.67-.56.03 0 .05-.02.06-.05v-.06c0-.02 0-.02-.02-.02a.21.21 0 0 1-.21-.13c-.04-.08-.01-.12.07-.13.14-.02.22-.09.24-.22.02-.09-.01-.12-.1-.09-.46.18-.72.28-.8.33a.64.64 0 0 0-.14.14c-.04.05-.08.05-.13 0-.35-.4-.19-.66.18-.94a.05.05 0 0 0 .01-.05l-.01-.07c-.02-.06-.05-.07-.1-.04l-.35.26a.04.04 0 0 1-.06-.02l-.02-.07a.11.11 0 0 1 .02-.12l.32-.32a.1.1 0 0 0 .03-.06c0-.02 0-.04-.02-.06l-.07-.1c-.04-.05-.08-.05-.1 0l-.19.32c-.05.1-.13.12-.22.07a.88.88 0 0 0-.5-.1h-.04a.05.05 0 0 1-.02-.06l.01-.02.58-.57c.05-.05.1-.08.18-.08.27-.01.52.05.75.19a.2.2 0 0 0 .18.01c.24-.09.43-.24.58-.47a.06.06 0 0 0 0-.07l-.04-.05a.06.06 0 0 0-.08-.01c-.01 0-.02 0-.03.02a.93.93 0 0 1-.4.34.13.13 0 0 1-.08.01l-.96-.24a.18.18 0 0 1-.15-.14c-.08-.33-.24-.55-.5-.66-.06-.03-.09-.08-.07-.15.02-.13.1-.22.25-.27a.07.07 0 0 0 .05-.06c0-.08-.06-.12-.18-.12a.18.18 0 0 0-.17.1l-.35.77a.16.16 0 0 1-.16.1c-.07 0-.13.01-.17.05a.31.31 0 0 0-.1.11c-.09.3-.2.52-.33.65a.11.11 0 0 0-.03.1.1.1 0 0 0 .06.08l.15.07c.06.02.1 0 .1-.06 0-.26.08-.5.23-.75a.18.18 0 0 1 .16-.1c.16 0 .26-.1.3-.31a.14.14 0 0 1 .24-.07c.17.17.3.4.4.69.03.06.01.1-.04.14-.25.17-.47.4-.67.7-.05.07-.04.12.06.14l.05.01c.1.03.1.06.01.11a20 20 0 0 1-.54.29c-.18.08-.32.12-.44.1-.19-.05-.34-.1-.46-.2a.2.2 0 0 1-.07-.07.19.19 0 0 1-.02-.1l.02-.06c.02-.03.04-.04.07-.02l.59.26c.02 0 .04.01.07 0 .02 0 .05-.01.06-.03l.14-.15a.1.1 0 0 0 .02-.12.1.1 0 0 0-.06-.05c-.06-.01-.09 0-.1.06 0 .09-.04.15-.09.18-.05.04-.1.04-.16-.01a4.32 4.32 0 0 1-.32-.35c-.04-.04-.07-.07-.1-.07l-.08.02a.09.09 0 0 1-.1-.02c-.17-.17-.2-.37-.13-.6.06-.16.07-.28.04-.36a.17.17 0 0 1 .01-.17l.26-.39c.02-.03.02-.05-.02-.07l-.05-.03c-.02-.01-.04 0-.05.01l-1.12 1.2a.18.18 0 0 1-.19.04.28.28 0 0 1-.1-.05c-.06-.05-.1-.04-.13.03-.04.1-.12.13-.25.12a.16.16 0 0 1-.1-.05.2.2 0 0 1-.05-.1c-.02-.09-.07-.1-.14-.04a.8.8 0 0 1-.35.18c-.07.01-.07.03 0 .05.2.05.38.06.56.01a.3.3 0 0 1 .18.02c.23.09.41.07.56-.04a5.74 5.74 0 0 0 .75-.73h.05a.09.09 0 0 1 .05.07c.02.18 0 .35-.07.53a.17.17 0 0 0 .02.17c.17.25.24.46.19.63a.26.26 0 0 0 0 .13c0 .04.02.08.05.12a.4.4 0 0 0 .12.1c.04.03.1.05.15.06.48.09.86.02 1.13-.22a.1.1 0 0 1 .1-.02.1.1 0 0 1 .06.09c0 .13-.1.28-.34.44a.14.14 0 0 0-.06.14c0 .02.01.03.03.05l.5.69a.2.2 0 0 1 .03.2l-.3.86a.17.17 0 0 1-.13.1c-.34.11-.5.38-.5.81.01.08.04.1.1.05.09-.07.1-.16.06-.29a.15.15 0 0 1 .04-.16l.25-.25c.06-.06.1-.05.12.03.05.2.06.34.02.44a.24.24 0 0 1-.1.11.87.87 0 0 0-.34.37c0 .02 0 .04.03.05a.2.2 0 0 0 .04.01c.02 0 .04 0 .05-.02l1.12-1.09a.24.24 0 0 0 .07-.14c.04-.33.04-.55 0-.69-.02-.1-.06-.1-.1 0a.73.73 0 0 0-.03.52c.02.07 0 .13-.03.18a2.1 2.1 0 0 1-.54.5.07.07 0 0 1-.07-.08c0-.1.05-.17.11-.24a.9.9 0 0 0 .3-.84c-.02-.13 0-.21.1-.26a.16.16 0 0 0 .07-.15c0-.2.06-.41.17-.65a.27.27 0 0 0 .01-.18.92.92 0 0 1-.02-.4.06.06 0 0 1 .08-.04l.08.04a.17.17 0 0 1 .1.15c.01.5.2.93.56 1.3.02.01.02.03.01.05l-.03.07c-.03.06-.06.06-.1.01l-.53-.72c-.06-.09-.1-.08-.1.03-.01.16.03.3.13.42.17.22.26.45.24.68l-.03.5.06.9c0 .06-.02.11-.07.16-.19.2-.23.42-.12.7.02.05.02.11 0 .17l-.48 1.33a.54.54 0 0 0 .27.67c.2.1.45.11.72.03.14-.04.29-.18.45-.43a5.7 5.7 0 0 1 1.12-1.22c.07-.05.12-.04.16.03.3.53.74 1.16 1.3 1.89.2.26.34.55.42.85.06.25.11.58.15.97 0 .07.04.13.08.18.05.04.11.07.18.08.04.01.08.04.12.08.04.05.05.1.04.16l-.1.4c-.02.07 0 .12.05.17a1 1 0 0 0 .47.26c.16.03.17.1.04.19a9.8 9.8 0 0 1-15.16-6.1 8.86 8.86 0 0 1 .3-4.94 9.75 9.75 0 0 1 13.1-5.94 9.8 9.8 0 0 1 5.96 9.04A9.57 9.57 0 0 1 37.3 31a10.45 10.45 0 0 1-3.14 4.57.07.07 0 0 1-.06-.02l-.02-.03c-.1-.3-.28-.56-.55-.78-.01-.02-.03-.01-.03 0l-.03.07v.06c.1.12.13.23.08.32 0 .02-.02.04-.04.04-.02.01-.05.01-.07 0l-.08-.02c-.06-.03-.08-.07-.08-.12v-.25c0-.06-.03-.1-.1-.12-.2-.06-.33-.2-.38-.44a9.66 9.66 0 0 1-.07-.36c-.06-.37-.12-.72-.32-1.08l-.71-1.3a.37.37 0 0 0-.1-.12.34.34 0 0 1-.12-.28.08.08 0 0 0-.04-.07.08.08 0 0 0-.07 0l-.06.02c-.06.03-.1.01-.12-.05a3.67 3.67 0 0 1-.18-.63c-.02-.2.14-.4.5-.57a.1.1 0 0 1 .1.01l.02.04v.05l-.01.06a.3.3 0 0 1-.12.18.56.56 0 0 0-.19.21.1.1 0 0 0 .03.12.1.1 0 0 0 .04.02c.16.05.27.04.32-.02.13-.14.2-.11.19.08-.01.18.05.38.16.6.07.13.06.29-.04.47-.04.07-.01.1.07.1Zm-.37-4.7c-.04.21-.1.33-.2.34-.04.01-.07 0-.06-.06 0-.03.02-.05.04-.08.05-.07.03-.11-.06-.12-.03 0-.07 0-.11.04-.12.09-.25.22-.38.41a.13.13 0 0 1-.16.05l-.06-.03a.13.13 0 0 0-.15.02c-.17.16-.38.25-.6.29l-.1-.05-.15-.13c-.05-.04-.06-.08-.03-.11.05-.05.1-.07.17-.06l.22.06c.05.01.1 0 .15-.02a3.16 3.16 0 0 0 1.36-1.16c.07-.11.1-.23.1-.35 0-.14-.02-.28-.06-.42-.02-.05 0-.07.06-.05l.12.02c.03.01.04.03.05.06.04.28.04.47-.12.73-.11.2-.18.32-.18.4 0 .03 0 .06.03.08l.04.02h.04l.02-.02c.18-.22.3-.48.39-.78a.23.23 0 0 1 .11-.14.36.36 0 0 1 .18-.04c.06 0 .12-.03.16-.07.15-.14.16-.32.05-.55-.13-.27-.09-.3.13-.08.2.2.2.52 0 .95-.05.13-.13.15-.24.07-.06-.04-.11-.03-.15.04-.03.06-.1.19-.18.39-.08.17-.19.26-.32.26-.06 0-.1.03-.11.1Zm-2.3-.23c.12-.1.18-.2.15-.25-.04-.04-.16 0-.27.1-.12.1-.18.2-.15.25.04.04.16 0 .27-.1Zm-.46 1.8c-.06.01-.14-.13-.16-.3-.03-.18 0-.34.08-.35.07 0 .14.13.16.31.03.18 0 .33-.08.34Zm.83.87.01.08v.08c0 .02-.02.04-.04.05a.81.81 0 0 1-.35.15c-.1.02-.13-.02-.1-.11l.12-.53c.01-.06.05-.1.1-.13.22-.09.35-.18.4-.28.15-.3.34-.53.57-.7h.04l.04.04a.03.03 0 0 1 0 .03v.01c-.34.34-.6.73-.77 1.17a.28.28 0 0 0-.02.14Zm-.41-.93c.1-.15.16-.23.2-.25h.06c.07 0 .07 0 0-.01-.2-.04-.32.03-.35.23-.02.14.01.15.09.03Zm-.81 3.16c-.03.08 0 .12.08.12h.13a.11.11 0 0 0 .12-.12c0-.09.04-.17.13-.25.07-.05.11-.04.12.04.02.12-.03.27-.17.46-.11.17-.25.25-.41.22a.43.43 0 0 1-.32-.24.46.46 0 0 1 .01-.4c.13-.26.2-.5.23-.71a7 7 0 0 1 .62-1.72c.02-.04.05-.05.1-.05l.1.03c.06 0 .07.03.05.08l-.1.3a.2.2 0 0 1-.09.11c-.1.06-.1.15-.04.26.03.05.03.1.02.15l-.35.97a.07.07 0 0 0 .02.08l.03.01.09.02c.04 0 .06-.01.07-.05.03-.28.12-.52.27-.74.03-.04.2-.19.53-.45.26-.21.4-.5.42-.87a.1.1 0 0 1 .07-.09.1.1 0 0 1 .1.02l.13.13c.04.05.05.1.02.16-.12.27-.14.54-.06.81a.3.3 0 0 1 0 .19c-.13.4-.41.68-.85.82a.1.1 0 0 1-.12-.04.1.1 0 0 1-.01-.04c-.05-.35.1-.59.44-.7h.02v-.02l.05-.11a.04.04 0 0 0-.02-.04.04.04 0 0 0-.04 0l-.48.27a.18.18 0 0 0-.1.14l-.06.52c0 .05-.03.08-.08.09h-.05c-.03-.01-.05 0-.06.02a.54.54 0 0 1-.41.27c-.08 0-.11.04-.11.12 0 .07-.01.15-.04.23Zm3.65-1.59.2-.2c.06-.06.05-.1-.03-.1h-.4a.08.08 0 0 0-.07.04.08.08 0 0 0 0 .07l.04.13a.16.16 0 0 0 .11.1.16.16 0 0 0 .15-.04Zm-.24.62a.3.3 0 0 1-.06-.16c0-.08.03-.12.1-.1.11 0 .2-.03.29-.06.07-.03.14-.05.22-.06a38.54 38.54 0 0 0 1.81-.02v.03l-.41.35a.2.2 0 0 1-.13.05c-.38 0-.78-.02-1.18-.05-.23-.01-.31.1-.38.3l-.04.05a.1.1 0 0 1-.04.03h-.07c-.04-.01-.06-.03-.06-.07v-.13a.26.26 0 0 0-.05-.16Z" fill="#AB8821"/><path d="M33.7 31.29c.35-.27.83-.59 1.45-.95.04-.02.06-.02.08.02l.02.06v.03a39.08 39.08 0 0 0-1.4.88 1.33 1.33 0 0 1-.73.22l-.01-.01a.05.05 0 0 1-.02-.03v-.07c0-.03.02-.04.04-.04.2-.02.43 0 .57-.11ZM26.6 30.51l.07-.05.03-.01.03.01.02.03v.04a.6.6 0 0 1-.15.22.09.09 0 0 1-.13-.03.09.09 0 0 1-.02-.05.1.1 0 0 1 .04-.07.66.66 0 0 1 .1-.09ZM21.81 31.38a.49.49 0 0 1-.11.1c-.08.06-.1.03-.08-.08l.08-.17c.02-.05.06-.09.13-.13.14-.08.3-.2.46-.31.04-.04.07-.03.08.02l.02.07c0 .02 0 .04-.02.05l-.44.33a.6.6 0 0 0-.12.12ZM25.67 34.47a.42.42 0 0 1-.14-.3c0-.11.02-.12.07-.02.2.37.3.6.32.68.02.09 0 .17-.06.22-.08.08-.12.06-.12-.05v-.37a.21.21 0 0 0-.07-.16Z" fill="#AB8821"/><path fill-rule="evenodd" d="m27.52 30.85.15-.02c-.02-.12-.07-.2-.13-.22-.07-.03-.12 0-.15.06a.17.17 0 0 1-.07.1c-.05.02-.09 0-.12-.04-.03-.05-.01-.14.06-.26a.15.15 0 0 0 0-.16l-.22-.38c-.06-.09-.04-.1.05-.06a.87.87 0 0 1 .4.53.03.03 0 0 0 .02.01h.01l.07-.02c.04-.02.04-.04.02-.07a2.81 2.81 0 0 1-.32-.62c-.01-.05-.04-.07-.09-.07a.19.19 0 0 1-.13-.04 4.58 4.58 0 0 0-.74-.58 2.33 2.33 0 0 0-1.11-.12c-.06 0-.1.02-.13.04l-.1.1c-.04.05-.1.05-.15.01a.53.53 0 0 1-.24-.56c.09-.52-.02-.9-.32-1.1-.07-.06-.07-.11 0-.17.39-.27.49-.65.3-1.13a.07.07 0 0 0-.05-.05.07.07 0 0 0-.07.03l-.1.17a.17.17 0 0 0-.03.13c.02.1.08.15.18.18a.12.12 0 0 1 .08.14c0 .02-.01.03-.03.05l-.73.89c-.04.04-.04.1 0 .14.15.22.2.48.12.76a.54.54 0 0 0 .1.48l.39.5c.09.13.19.15.29.05.04-.04.09-.05.13 0l.09.06a.15.15 0 0 0 .16.03c.77-.36 1.31.05 1.82.63.1.12.1.25.08.39v.04c-.02.08-.06.12-.14.1l-.11-.02c-.08-.01-.11.02-.11.1 0 .22.04.37.09.46.03.05.03.1 0 .17-.06.15-.05.29.05.4.04.05.05.1.04.17a.7.7 0 0 1-.28.4.25.25 0 0 0-.1.15.4.4 0 0 1-.13.24.2.2 0 0 1-.17.03.66.66 0 0 0-.33 0 .14.14 0 0 1-.16-.07.15.15 0 0 1 0-.16l.18-.27c.04-.06.09-.06.14 0l.09.1c.04.06.09.06.13 0l.26-.39a.15.15 0 0 0 0-.17c-.13-.22-.11-.43.07-.64.03-.05.03-.1 0-.14l-.15-.2c-.03-.04-.06-.05-.09-.01-.05.06-.1.1-.15.09a.9.9 0 0 0-.93.46 2.43 2.43 0 0 1-.47.55h-.03a.03.03 0 0 1 0-.05c.06-.16.1-.28.08-.36a.06.06 0 0 0-.05-.06.06.06 0 0 0-.06.03 1.88 1.88 0 0 1-.66.6l.01.05c.03.03.05.04.08.03a1 1 0 0 1 .45.02c.06.01.1.05.13.11a3 3 0 0 0 .54.87c.13.15.14.24.14.38l.01.1c0 .04.03.06.06.06h.06v-.04l-.04-.39a.26.26 0 0 0-.09-.16 2.08 2.08 0 0 1-.55-.86.07.07 0 0 1 .09-.06c.21.06.42.05.61 0 .05-.02.08 0 .1.04l.04.05c0 .01-.02.06-.07.13-.06.08-.1.2-.1.34a.15.15 0 0 0 .11.15c.08.03.16.1.23.2.04.05.08.06.13.03l.47-.28a.19.19 0 0 0 .1-.13.3.3 0 0 1 .03-.1c.04-.08.08-.08.12 0 .16.28.33.56.52.83.08.11.13.33.15.64 0 .07.03.12.09.16l.12.08c.05.03.08.08.1.13.12.28.32.4.6.35.03 0 .06-.02.08-.04a.15.15 0 0 0 .04-.07c.04-.17 0-.3-.11-.38a.37.37 0 0 1-.11-.12l-1.18-2.2c-.03-.06-.01-.1.05-.15.4-.23.62-.62.64-1.15-.07.2-.15.3-.23.3l-.07-.01a.1.1 0 0 1-.02-.06c-.02-.1.04-.17.17-.2Zm-3-1.93c.12.12.2.24.2.35.01.11-.03.13-.12.06a1.29 1.29 0 0 1-.5-.87l.02-.33a.74.74 0 0 0-.11-.4.15.15 0 0 1 .04-.19.16.16 0 0 1 .17 0c.18.1.27.28.25.52l-.03.7c0 .06.03.12.08.16Zm1.65.37h-.86a.06.06 0 0 1-.04-.09l.06-.1c0-.02.02-.02.03-.02.37 0 .75.07 1.13.2.07.01.13.07.18.15l.07.1c.03.09 0 .11-.08.09a.62.62 0 0 1-.35-.25.15.15 0 0 0-.14-.08Zm.92 1.9.04.02c.06.1.03.12-.08.08a.38.38 0 0 1-.21-.19c-.04-.07 0-.1.09-.1.03 0 .06.04.1.12l.06.06Zm-.9 1.04.09-1.05h-.02c-.1-.01-.2.03-.27.12a.59.59 0 0 0-.14.34v.07l.01.19.07.17.11.11c.05.03.1.05.14.05h.01Zm-.79-.25c.03.08.03.16-.02.22-.05.09-.11.1-.18.03l-.06-.04c-.07-.06-.08-.13-.04-.22.1-.23.25-.41.44-.55.07-.04.1-.02.06.07 0 .03-.07.14-.18.32a.18.18 0 0 0-.02.17Zm1.43.35a.27.27 0 0 0-.07.26l.48.76a3 3 0 0 1 .25.72c.02.06.05.11.1.15l.15.09c.32.13.38.05.18-.22a10.22 10.22 0 0 1-.98-1.76.09.09 0 0 0-.08-.02.09.09 0 0 0-.03.02Zm1.22 2.5c.12.02.23-.01.25-.08.02-.07-.06-.16-.18-.19-.11-.03-.22 0-.24.08-.02.07.06.15.17.18Z" fill="#AB8821"/><path d="M33.3 35.45c.18.07.36.06.39-.03.03-.09-.09-.22-.27-.29-.19-.07-.36-.06-.4.02-.03.09.09.22.27.3Z" fill="#fff"/></svg>