<!-- by TradingView --><svg width="56" height="56" viewBox="0 0 56 56" xmlns="http://www.w3.org/2000/svg"><path fill="#F0F3FA" d="M0 0h56v56H0z"/><path d="M28 46c7.18 0 13-5.95 13-13.29 0-4.89-3.58-11.27-6.98-16.24a.5.5 0 0 0-.86.03l-7.58 12.56c-.24.35-1.4 3.1.96 4.41 2.33 1.28 3.72-.5 3.92-.75l.01-.01 2.32-3.65c.2-.43.97-1.27 1.38-.35.62 1.4.83 2.82.83 4 0 3.98-3.1 7.29-7 7.29s-7-3.3-7-7.3c0-4.79 6.58-13.52 6.58-13.52l3.22-4.69c.52-.76.5-1.77-.06-2.5a88.86 88.86 0 0 0-2.23-2.75.65.65 0 0 0-1 0C25.1 12.14 15 24.93 15 32.71 15 40.05 20.82 46 28 46Z" fill="#0A933D"/></svg>