<!-- by TradingView --><svg width="56" height="56" viewBox="0 0 56 56" xmlns="http://www.w3.org/2000/svg"><path fill="#F0F3FA" d="M0 0h56v56H0z"/><path d="M14 28a14 14 0 1 1 28 0 14 14 0 0 1-28 0Z" fill="#8ECCAC"/><path d="M29.67 38h-.38v-4.08l.38.08v4Zm-.87 0h-.37v-4.28l.37.08V38Zm-.86 0h-.44v-4.49l.44.1V38Zm-.2-4.73V20.79l.42-.23v12.8l-.43-.1Zm-2.74.65V22.29l.33-.18v11.67l-.33.14Zm.84-.36V21.82l.41-.22V33.4l-.4.17Zm.93-.4V21.33l.4-.22V33l-.4.17Zm-1.18-11.52V19.4c0-.08.03-.27.16-.38l.13-.1v2.55l-.29.17Zm.6-.35v-3.04c.01-.09.04-.27.19-.37l.12-.1v3.33l-.3.18Zm0-2.98v-.06a.5.5 0 0 0 0 .06Zm.7 2.57V17.51c0-.09.02-.27.16-.38l.17-.13v3.68l-.33.2Zm.75-.44V17.84c0-.1.04-.27.18-.37l.18-.1v2.88l-.36.19Zm0-2.53v-.07.07ZM30 20.74l.72.67c.3.33.28.87.28.87v11.73l-2.31-.52V19.82l-.31.18v-2.08s.15-.03.25.04c.32.22.8.7 1.06 1 .14.14.28.3.31.44v1.34ZM23.4 38v-3.09l.3-.12V38h-.3Zm.67 0v-3.38l.33-.13V38h-.33Zm.76 0v-3.7l.36-.16V38h-.36Zm.8 0v-4.04l.37-.17V38h-.37Zm.9 0v-4.41l.47-.19V38h-.47Zm6.19-2.43V38H30v-3.86l2 .4.2.03c.52.23.5 1 .5 1h.02Zm-.49-.99-.24-.05.24.05ZM29.73 11.09l-.1.86h-.01a16.26 16.26 0 0 0-3.22 0h-.02l-.09-.86a16.76 16.76 0 0 1 3.44 0Zm6.33 1.94-.41.77h-.02c-.94-.52-1.93-.93-2.97-1.25h-.02l.25-.84c1.1.34 2.17.78 3.17 1.32Zm5.11 4.22-.68.56-.02-.01c-.68-.83-1.44-1.6-2.27-2.28l-.02-.02.56-.68c.89.73 1.7 1.55 2.43 2.43Zm3.12 5.86-.86.26v-.02a16.05 16.05 0 0 0-1.23-2.98l-.02-.01.79-.43c.54 1 .98 2.07 1.32 3.18Zm.63 6.6-.9-.08v-.03a15.63 15.63 0 0 0 0-3.2v-.03l.9-.1a17.23 17.23 0 0 1 0 3.45Zm-1.95 6.36-.8-.44v-.01c.51-.94.93-1.94 1.24-2.97v-.03l.88.27a16.94 16.94 0 0 1-1.32 3.18Zm-4.24 5.12-.58-.71.02-.02a16.2 16.2 0 0 0 2.28-2.27l.01-.02.71.58c-.73.9-1.55 1.7-2.44 2.44Zm-5.87 3.1-.27-.87h.03c1.04-.32 2.03-.73 2.97-1.24h.02l.43.8c-1 .54-2.07.98-3.18 1.32Zm-6.62.62.1-.9h.02a15.7 15.7 0 0 0 3.21 0h.03l.1.9a16.96 16.96 0 0 1-3.46 0Zm-6.34-1.96.43-.8.02.02c.94.5 1.93.91 2.97 1.23h.02l-.26.88a17.05 17.05 0 0 1-3.18-1.33Zm-5.1-4.24.69-.57.01.02c.68.83 1.44 1.6 2.27 2.27l.02.02-.57.7c-.89-.73-1.7-1.55-2.42-2.44Zm-3.1-5.87.85-.26v.03c.31 1.04.73 2.03 1.23 2.97l.01.02-.78.42c-.54-1-.98-2.07-1.31-3.18Zm-.6-6.6.86.08v.03a15.6 15.6 0 0 0 0 3.21v.03l-.88.08a15.95 15.95 0 0 1 .01-3.43Zm1.95-6.33.76.4v.03c-.51.93-.93 1.93-1.24 2.97l-.01.02-.84-.25c.34-1.11.78-2.17 1.33-3.17Zm4.23-5.1.55.67-.02.01c-.84.68-1.6 1.44-2.28 2.27l-.02.02-.67-.55a17.2 17.2 0 0 1 2.44-2.42Zm5.85-3.1.25.82-.02.01c-1.04.31-2.03.73-2.97 1.23l-.03.01-.4-.76c1-.54 2.06-.98 3.17-1.31Z" fill="#00402A"/><path d="M23.27 12.52h.02c1.02-.32 2.07-.53 3.16-.63h.03l.06.7c-1.05.1-2.08.31-3.07.6l-.2-.67Zm6.27-.63h.02c1.1.11 2.15.32 3.17.63l.02.01-.2.69c-1-.31-2.02-.52-3.08-.62l.07-.7Zm6.04 1.82.02.01c.95.51 1.85 1.12 2.68 1.8l.01.01-.45.55a15.7 15.7 0 0 0-2.6-1.74l.34-.63Zm4.88 4 .02.01a16.2 16.2 0 0 1 1.78 2.68l.02.03-.63.33c-.5-.93-1.08-1.8-1.74-2.6l.55-.46Zm2.99 5.54v.03c.31 1.02.52 2.07.62 3.16v.03l-.7.07c-.1-1.06-.3-2.1-.6-3.08l.68-.2Zm.62 6.28v.02c-.1 1.1-.32 2.15-.63 3.16v.03l-.68-.2c.3-1 .51-2.02.61-3.08l.7.07Zm-1.81 6.04-.01.02c-.52.95-1.12 1.85-1.8 2.68l-.02.01-.54-.44c.67-.8 1.26-1.67 1.75-2.6l.62.33Zm-4 4.88-.01.02c-.83.68-1.73 1.28-2.69 1.78l-.02.02-.32-.61c.92-.5 1.8-1.08 2.6-1.75l.44.54Zm-5.55 2.98-.02.02c-1.02.3-2.08.51-3.17.62h-.02l-.07-.7c1.06-.09 2.1-.3 3.08-.6l.2.66Zm-6.28.63h-.02c-1.09-.1-2.15-.32-3.16-.63l-.03-.01.2-.66c1 .31 2.02.52 3.08.62l-.07.68Zm-6.03-1.82h-.03a16.27 16.27 0 0 1-2.67-1.8l-.02-.02.43-.53c.81.67 1.68 1.25 2.6 1.75l-.31.6Zm-4.88-3.99-.02-.01a16.7 16.7 0 0 1-1.79-2.69l-.01-.02.6-.32c.5.93 1.08 1.8 1.75 2.6l-.53.44Zm-2.99-5.55v-.02a16.1 16.1 0 0 1-.63-3.16v-.03l.69-.07c.1 1.06.3 2.1.6 3.08l-.66.2Zm-.63-6.28v-.02a16 16 0 0 1 .64-3.16v-.03l.67.2c-.3 1-.51 2.02-.62 3.08l-.69-.07Zm1.82-6.03.01-.03c.51-.95 1.11-1.85 1.8-2.67l.01-.02.55.45c-.67.8-1.26 1.67-1.75 2.6l-.62-.33Zm4-4.88.01-.02c.83-.68 1.73-1.28 2.68-1.79l.02-.01.34.62c-.93.5-1.8 1.08-2.6 1.74l-.46-.54ZM22.93 29.53c.1.05.12.23.12.23.01.28-.1.52-.38.52-.47.08-1.64-.04-1.64-.04-.56 0-1.23.07-1.65.08-.42.01-.7-.02-.84-.08-.13-.11-.12-.34-.05-.5.12-.2.3-.28.54-.3.24-.03.58.02.8.04.5.12 1.12.12 1.75.12.67-.03 1.14-.19 1.35-.07ZM18.6 28.37c.02.1 0 .16-.03.26s-.08.15-.13.15c-.07 0-.19-.01-.23-.09a.6.6 0 0 1-.08-.27c-.04-.29.01-.64-.02-.86a11.6 11.6 0 0 1-.01-1.59c.04-.13.28-.13.3.05l.2 2.35ZM17.6 30.41c-.04.22-.42.18-.42-.04.02-1.62-.12-2.72-.21-4.24 0-.22 0-.45.03-.63s.12-.26.2-.28c.26-.03.35 0 .4.22 0 .14.03.32.05.41.01.09.02.24 0 .4 0 0 .13 2.82-.04 4.16ZM16.43 26.08c.06.07.1.15.14.22.03.46.05 1.2.03 1.83a5.85 5.85 0 0 1-.14 1.03c-.02.05-.04.06-.05.06-.08-.01-.15-.01-.17-.12-.03-.11-.01-.32-.04-.42-.07-.37-.07-.76-.07-1.16 0-.4-.01-.78-.09-1.14-.02-.18.03-.33.18-.36.08-.03.14 0 .2.06ZM19.83 28.28c0 .04.02.07.04.1l.06.08.03.02c.29.07 1 .17 1.36-.13l.02-.03a.22.22 0 0 0 .06-.07c.03-.07.02-.17-.09-.25-.2-.15-.84-.12-1.3.03-.13.09-.19.16-.18.25Zm-.06-1.04.02.03c.11.17.23.22.47.24.2 0 .45.02.66 0 .2 0 .43-.06.46-.26.03-.28-.24-.36-.5-.37-.25-.02-.58.02-.79.04-.16.05-.3.13-.32.32Zm.26 1.86c-.11 0-.23-.02-.34-.04-.2-.05-.37-.15-.43-.38l-.21-1.14a4.1 4.1 0 0 1-.09-.76c.02-.25.28-.33.59-.4.28-.06 1.63-.03 1.63-.03.4-.04.84.02 1.1.2.24.33.04 1.45-.22 2.06-.05.43-.3.38-.57.43-.14.04-.43.05-.59.05l-.52.02-.35-.01ZM19.1 25.56c-.04-.27.1-.37.36-.4.12-.03.27-.03.42-.02l.44.02h.01c.74-.13 1.84-.04 1.92.18.06.21-.1.31-.28.4a5.4 5.4 0 0 1-1.96.05c-.38.02-.75.02-.92-.23ZM37.56 29.07l-.01-.05c-.1-.28-.23-.48-.37-.55a1.57 1.57 0 0 0-.59-.08c-.21 0-.41 0-.5.08l-.1.11-.05.07c-.04.05-.05.1-.09.12l-.06.12a.65.65 0 0 0-.05.13c-.03.1 0 .2.14.25.26.1.4-.04.5-.18l.06-.1.07-.08c.04-.05.05-.06.13-.06.14 0 .16.03.2.12l.02.08.05.1c.04.05.1.08.19.1.1.04.47-.06.46-.18Zm-1.6-1.25c.13.14.35.15.55.15h.3l.2-.04c.14-.05.18-.16.14-.33a.21.21 0 0 0-.15-.12.74.74 0 0 0-.2-.04l-.51.01c-.2.04-.39.12-.32.37Zm.22-.71c.16.02.39.05.58.03a.6.6 0 0 0 .26-.06c.08-.04.13-.1.13-.2 0-.17-.12-.23-.26-.25a1.23 1.23 0 0 0-.24-.02h-.27l-.14.03a.5.5 0 0 0-.13.06c-.08.05-.14.14-.1.27.03.09.07.13.13.14h.04Zm-.14-.95c-.04.22.14.27.55.26.3 0 .56 0 .55-.23-.01-.19-.3-.25-.57-.23-.28 0-.52.07-.53.2Zm2.8 2.86c.16.09.33.15.5.24.34.19.69.32.9.57.03.08-.07.22-.22.37-.14.15-.34.28-.5.34-.3.08-.55-.08-.81-.34a6.65 6.65 0 0 1-.38-.4 3.27 3.27 0 0 0-.34-.35c-.1-.04-.22-.06-.28-.02-.03.02-.09.03-.1.06-.03.02-.06.05-.07.08a.34.34 0 0 1-.11.11.48.48 0 0 1-.26.04l-.05.04a.62.62 0 0 0-.04.23v.27c.01.05.05.09.09.11.04.02.37.02.42.02h.34c.23 0 .4.06.36.34 0 .08-.04.14-.15.18-.1.05-.25.07-.42.09H35.33c-.21-.02-.33-.07-.35-.21-.03-.18.02-.34.16-.39h.22l.5.04c.1 0 .18 0 .24-.03.08-.04.11-.1.1-.2 0-.07.01-.12.03-.19l.01-.1v-.12c0-.03-.02-.06-.06-.05-.26.04-.35-.01-.43-.1l-.08-.1-.16-.1c-.07-.04-.12-.05-.24-.03-.2.08-.33.21-.5.37-.16.15-.31.32-.48.46-.31.25-.65.35-1.05 0 0 0-.17-.15-.1-.18l.1-.08c.3-.19.6-.34.9-.5.3-.18.6-.38.86-.66.08-.35-.16-.42-.4-.44-.26 0-.58.04-.84.03-.14 0-.2-.03-.23-.08l-.06-.08c-.02-.03-.02-.1-.04-.13.03-.19.13-.24.5-.25h.4l.38.03c.23-.01.42-.05.45-.36v-.8c0-.26-.03-.54-.2-.77a.1.1 0 0 0-.04-.03c-.1 0-.25 0-.4-.03-.12-.02-.2-.02-.26-.11 0-.18-.01-.32.12-.4a.22.22 0 0 1 .1-.02l.18.02.2.02c.06 0 .12 0 .18-.02.02-.01.04-.04.04-.06 0-.63.7-.56.68.09 0 .04.03.06.07.05.1-.02.22-.03.34-.02.12 0 .24 0 .37.02.25.01.5.03.7-.03.08 0 .16-.01.17-.12l-.02-.26c0-.14.16-.26.35-.24.16.03.35.17.34.55l.03.06c.05.03.12.03.18.03h.3c.13 0 .2.01.2.1.01.2 0 .24-.03.26a.54.54 0 0 1-.15.04l-.26.01a.36.36 0 0 0-.3.1c-.05.07-.05.16-.08.22v.46l-.03.43c0 .28.02.56.25.77l.03.02c.16 0 .35-.02.54-.04.18 0 .35 0 .47.04.13.15.16.3.05.48-.03.04-.09.06-.17.07l-.29-.01c-.09 0-.2 0-.28.02-.09.03-.15.1-.16.23 0 0 0 .04.02.05.13.11.28.21.44.3Z" fill="#00402A"/></svg>