<!-- by TradingView --><svg width="56" height="56" viewBox="0 0 56 56" xmlns="http://www.w3.org/2000/svg"><path fill="#F0F3FA" d="M0 0h56v56H0z"/><path d="M28.42 13.25a2 2 0 0 0 1.44.94c.08.02.14.06.18.14a15.56 15.56 0 0 0 8.07 6.96c1.11.41 3.57.94 3.96-.81a.06.06 0 0 1 .05-.05.05.05 0 0 1 .05.03c.49.65.86 1.51.8 2.33-.2 2.67-3.25 2.28-5.1 1.74-3.1-.93-6.03-3.08-8.23-5.53a16.2 16.2 0 0 1-2.97-4.64.26.26 0 0 1 .12-.32c.27-.16.52-.33.77-.53.2-.15.18-.34.17-.56-.02-.31-.5-.57-.75-.67-.3-.1-.6-.18-.9-.22-.02 0-.03 0-.03-.03 0-.02.02-.03.04-.03h3.4c.03 0 .04.01.04.03 0 .02-.01.04-.04.04-.47.06-1.49.5-1.07 1.18Z" fill="#26569E"/><path d="M18.8 14.53c1.4-1 2.89-1.7 4.48-2.06.13-.03.14 0 .03.08-.5.38-.87.67-1.2 1.24-.43.74.32 1.06.9 1.01.11 0 .17.04.2.14a10.4 10.4 0 0 0 2.24 4.34c2.69 3.3 5.8 5.9 9.35 7.8.64.34 1.33.63 2.08.87.63.2 1.36.3 2.18.32 1.03.02 1.83-.01 2.4-.11.75-.13 1.5-.53 2.26-1.2.05-.04.08-.03.1.04a5.89 5.89 0 0 1 0 2.97c-.46 1.46-1.85 1.84-3.23 1.86-2.71.04-4.9-.84-7.24-2.11-4.91-2.65-9.3-6.29-12.03-11.06a11.1 11.1 0 0 1-.85-1.87.24.24 0 0 1 .03-.23c.27-.38.5-.81.69-1.32.15-.4-.07-.8-.5-.85a3.96 3.96 0 0 0-1.76.18.25.25 0 0 1-.11 0c-.1-.01-.13-.02-.12 0v-.01c-.01 0 0 0 0 0 .04 0 .07 0 .1-.03ZM33.84 12.82a19.85 19.85 0 0 1 6.81 4.91c.24.25.31.54.24.89a.17.17 0 0 1-.1.12 2 2 0 0 1-1.56-.03 15.42 15.42 0 0 1-5.47-3.8c-.1-.1-.18-.22-.26-.34-.03-.05-.02-.07.03-.08a.9.9 0 0 0 .69-.46c.1-.19.1-.4-.03-.64a1.39 1.39 0 0 0-.73-.66l.01-.03c.02-.03.04-.04.07-.02l.3.14Z" fill="#26569E"/><path d="M16.57 18.37c.4.19.8.2 1.23.03.05-.02.08 0 .07.06-.02.1 0 .2.02.3.7 2.51 2.38 4.85 4.26 6.79a38.63 38.63 0 0 0 6.87 5.58 24.55 24.55 0 0 0 7.92 3.36c1.55.33 3.17.29 4.62-.27.4-.16.76-.39 1.05-.7.1-.1.15-.09.12.06a4.82 4.82 0 0 1-1.21 2.54 4.33 4.33 0 0 1-3.47 1.42c-.93 0-1.8-.07-2.57-.2-3.85-.6-7.54-2.56-10.67-5.03a38.74 38.74 0 0 1-6.14-6.01 27 27 0 0 1-2.79-4.16c-.02-.04-.03-.09-.02-.13.12-.77.12-1.4.01-1.92-.15-.7-.82-.84-1.39-.51-.21.12-.41.25-.6.39-.05.03-.06.03-.03-.02.77-1.23 1.6-2.36 2.51-3.4a.62.62 0 0 1 .18-.16c.13-.07.17-.03.1.11-.18.4-.63 1.6-.07 1.87Z" fill="#26569E"/><path d="M12.03 29.28a21.12 21.12 0 0 1 .65-6.54.1.1 0 0 1 .06-.07h.02c.02.01.03.03.03.05-.04.57.01 1.11.15 1.64.2.76.75.72 1.38.57.08-.02.13 0 .15.08a16.9 16.9 0 0 0 1.81 3.42 24.29 24.29 0 0 0 4.43 4.95 36.4 36.4 0 0 0 5.23 3.66c3.77 2.18 8.69 3.91 12.96 2.35h.01v.02c-.86.65-1.68 1.28-2.46 1.9-.76.61-1.8.73-2.71.76-3.47.14-6.75-1.03-9.89-2.73-2-1.09-3.87-2.43-5.63-4.02a18.63 18.63 0 0 1-3.26-3.83 1.58 1.58 0 0 1-.22-.82c0-.96-.03-1.94-.73-2.67-.59-.61-1.42.35-1.64.83l-.21.47c-.08.16-.12.15-.13-.02ZM20.64 42.03a14.94 14.94 0 0 1-7.69-8.56c-.03-.1 0-.11.07-.05.26.2.53.26.81.19.07-.02.13 0 .18.06a34.45 34.45 0 0 0 6.37 6.28 18.2 18.2 0 0 0 7.71 3.3c.85.14 1.68.2 2.47.19.16 0 .17.04.04.12-.6.4-1.9.45-2.66.44-2.55-.05-4.89-.84-7.3-1.97Z" fill="#26569E"/></svg>