<!-- by TradingView --><svg width="56" height="56" viewBox="0 0 56 56" xmlns="http://www.w3.org/2000/svg"><path fill="#F0F3FA" d="M0 0h56v56H0z"/><path d="M18.96 22H8.32c-1.66 0-3.24.73-4.32 2h7.57c.68 0 1.13.7.87 1.32L10 31h3.4l3.1-7h1.41l1.05-2Z" fill="url(#axsndltsx)"/><path d="m16.8 31 3.05-6.78A3.77 3.77 0 0 1 23.29 22h12.84l-1.4 2.85a7.68 7.68 0 0 1-5.21 4.1L31.98 24h-7.73c-.72 0-1.38.42-1.7 1.07L20.66 29h7.78l1.08 4-3.64-2h-9.09Z" fill="url(#bxsndltsx)"/><path d="m52 22-1.11 2h-9.6c-.68 0-1.32.38-1.65.98L37.44 29H49l-1.11 2H33.7l3.39-6.89A3.77 3.77 0 0 1 40.49 22H52Z" fill="url(#cxsndltsx)"/><path d="M36.04 33H40L28.12 43 16 33h4.02l8.1 4.86L36.04 33Z" fill="url(#dxsndltsx)"/><path d="M28.1 16.93c-10.68 0-17.63 4.03-18.1 4.32a54.99 54.99 0 0 1 18.1-2.74c8.03.18 13.3 1.1 17.9 2.74-1.65-1.09-7.95-4.32-17.9-4.32Z" fill="#53B4E0"/><defs><linearGradient id="axsndltsx" x1="47.51" y1="21.65" x2="9.09" y2="46.38" gradientUnits="userSpaceOnUse"><stop offset=".53" stop-color="#97B0C4"/><stop offset=".76" stop-color="#1C6B9B"/><stop offset=".78" stop-color="#4A91BE"/><stop offset=".81" stop-color="#90ACC2"/></linearGradient><linearGradient id="bxsndltsx" x1="47.51" y1="21.65" x2="9.09" y2="46.38" gradientUnits="userSpaceOnUse"><stop stop-color="#6C99B9"/><stop offset=".23" stop-color="#126597"/><stop offset=".23" stop-color="#97B0C4"/><stop offset=".53" stop-color="#28719F"/><stop offset=".53" stop-color="#97B0C4"/><stop offset=".76" stop-color="#1C6B9B"/></linearGradient><linearGradient id="cxsndltsx" x1="47.51" y1="21.65" x2="9.09" y2="46.38" gradientUnits="userSpaceOnUse"><stop stop-color="#6C99B9"/><stop offset=".23" stop-color="#126597"/><stop offset=".23" stop-color="#97B0C4"/><stop offset=".53" stop-color="#28719F"/></linearGradient><linearGradient id="dxsndltsx" x1="36.27" y1="36.28" x2="19.33" y2="33.6" gradientUnits="userSpaceOnUse"><stop offset=".18" stop-color="#377EA8"/><stop offset=".76" stop-color="#4296C7"/></linearGradient></defs></svg>