<!-- by TradingView --><svg width="56" height="56" viewBox="0 0 56 56" xmlns="http://www.w3.org/2000/svg"><path fill="#F0F3FA" d="M0 0h56v56H0z"/><path d="M19 26h3v4h-3v3h-4v-3h-3v-4h3v-3h4v3Z" fill="#F39801"/><path d="M37 25.09 38.32 23h3.4l-3.02 4.77L42 33h-3.4L37 30.46 35.4 33H32l3.3-5.23L32.3 23h3.4L37 25.09ZM26 26h2v-3h4v10h-4v-4h-2v4h-4V23h4v3ZM48.5 23a3.5 3.5 0 0 1 0 7H47v3h-4V23h5.5ZM47 28h.5a1.5 1.5 0 0 0 0-3H47v3Z" fill="#1BB5B4"/><path fill="#F39801" d="M8 26h2v2H8zM12 24h1v1h-1z"/><path fill="#A2C657" d="M7 24h1v1H7z"/><path fill="#F39801" d="M4 23h1v1H4z"/><path fill="#A2C657" d="M7 29h1v1H7z"/><path fill="#1BB5B4" d="M10 30h1v1h-1zM5 31h2v2H5zM9 23h2v2H9z"/></svg>