<!-- by TradingView --><svg xmlns="http://www.w3.org/2000/svg" width="56" height="56"><path fill="#F0F3FA" d="M0 0h56v56H0z"/><path d="M12.1 36v1.5l.01.52c.02.2.06.43.18.61.2.33.55.51.98.5.3-.02.63-.18.98-.43v.3h.5v-3h-.5v2.22c-.42.31-.76.4-1 .4-.26.02-.43-.08-.54-.25a.85.85 0 01-.1-.4 5.48 5.48 0 01-.01-.61V36h-.5zm7.05 3v-1.5l-.01-.52c-.02-.2-.06-.43-.18-.61-.2-.33-.55-.51-.98-.5-.3.02-.63.18-.98.43V36h-.5v3h.5v-2.22c.42-.31.76-.4 1-.4.26-.02.43.08.54.25.05.1.09.21.1.4a5.48 5.48 0 01.01.61V39h.5zm26.35 0v-1.5l-.01-.52c-.02-.2-.06-.43-.18-.61-.2-.33-.55-.51-.98-.5-.3.02-.63.18-.98.43V36h-.5v3h.5v-2.22c.42-.31.76-.4 1-.4.26-.02.43.08.54.25.05.1.09.21.1.4V39h.5z" fill="#0090E6"/><path d="M24 37.84l-.2-.2c-.8 1.17-2.8 2.44-2.1-.46 1.28-.43 2.67-1.2 2.85-2.19.14-.79-.72-1.1-1.35-.95-.54.13-1.05.5-1.47 1-.55.64-.94 1.5-1.03 2.26-.22 1.8 1.12 2.42 2.43 1.42.27-.2.56-.5.87-.88zm-.39-2.3c-.37.43-.96.9-1.76 1.3.13-.4.34-1 .6-1.52.12-.23.24-.45.38-.62.7-.87 1.58-.09.78.84z" fill="#F6AB00"/><path d="M25.53 36l1.2 3h.54l1.2-3h-.54L27 38.33 26.07 36h-.54zm4.42 3v-3h.5v3h-.5zm6.1 0v-3h.5v3h-.5zM8.98 35.88c.4-.07.88-.03 1.42.13v.5a2.92 2.92 0 00-1.33-.15c-.33.06-.45.2-.47.32-.04.17 0 .24.03.29.05.05.14.1.29.15l.43.1.09.01c.18.04.39.08.56.16.33.14.55.38.6.67a.83.83 0 01-.32.76c-.43.36-1.2.47-2.13.1v-.54c.93.44 1.55.29 1.8.08.13-.11.17-.23.15-.32-.01-.1-.08-.21-.3-.31a2.19 2.19 0 00-.46-.12l-.08-.02c-.15-.02-.33-.06-.49-.1a1.07 1.07 0 01-.53-.32c-.15-.18-.19-.41-.14-.68.09-.41.45-.63.88-.7zm24.02 0c.39-.07.88-.03 1.42.13v.5a2.92 2.92 0 00-1.33-.15c-.33.06-.45.2-.48.32-.03.17 0 .24.04.29.05.05.13.1.29.15l.43.1.09.01c.18.04.39.08.56.16.33.14.55.38.6.67a.83.83 0 01-.33.76c-.42.36-1.19.47-2.12.1v-.54c.93.44 1.54.29 1.8.08.13-.11.16-.23.15-.32-.02-.1-.09-.21-.3-.31a2.19 2.19 0 00-.46-.12l-.08-.02c-.16-.02-.33-.06-.5-.1a1.07 1.07 0 01-.52-.32c-.15-.18-.2-.41-.14-.68.08-.41.45-.63.88-.7z" fill="#0090E6"/><path fill-rule="evenodd" d="M39.76 38.73c.48 0 1-.49 1-1.25 0-.77-.52-1.25-1-1.25s-1 .48-1 1.25c0 .76.52 1.25 1 1.25zm0 .5c.83 0 1.5-.79 1.5-1.75 0-.97-.67-1.75-1.5-1.75s-1.5.78-1.5 1.75c0 .96.67 1.75 1.5 1.75z" fill="#0090E6"/><path d="M45.96 28l1.56-1.56L49.08 28l-1.56 1.56L45.96 28z" fill="#F6AB00"/><path d="M38 14h6c-.5 9-11.5 9.45-11.5 9.45S33.5 19 38 14zm-3.67 0H25v20h4.52c-2.08-2.18-2.52-5.29-1.82-8.37.55-2.4 1.9-6.85 6.63-11.63z" fill="#0090E6"/><path d="M40.89 34H46V19.93c-5.54 4.62-13.34 4.87-13.8 4.87-2.7 12.7 9.3 8.2 13.8 2.7V30a27.34 27.34 0 01-5.11 4z" fill="#0090E6"/></svg>