<!-- by TradingView --><svg width="56" height="56" viewBox="0 0 56 56" xmlns="http://www.w3.org/2000/svg"><path fill="#F0F3FA" d="M0 0h56v56H0z"/><path d="M31.17 11.33A43.22 43.22 0 0 0 20.24 10c-.81 0-1.43 0-2.24.02v4.88c0 1.86.95 2.82 2.76 3.06.61.08 1.25.11 1.91.1h.23a90.97 90.97 0 0 0 1.8-.04 32.21 32.21 0 0 1 8-1.92h.01v2.85c.9.28 1.78.63 2.62 1.05a18.65 18.65 0 0 1 4.38 3.18A5.12 5.12 0 0 0 42 20.3c0-.25-.03-.48-.07-.7l-.03-.23c-.24-1.73-1.44-3.22-2.73-4.28a17.65 17.65 0 0 0-4.69-2.68 28.65 28.65 0 0 0-3.3-1.08ZM27.62 17Zm3.58-5.65Z" fill="url(#aqvyk2t1n)"/><path d="M16.25 32.81a16.91 16.91 0 0 0 7 4.23 6613.61 6613.61 0 0 1 .03 2.84 29.4 29.4 0 0 0 7.92-1.9 80 80 0 0 1 2.5-.06c.26 0 .57.01.9.04 2.14.17 3.4 1.04 3.4 3.3v4.69c-4.38.18-8.57-.14-12.82-1.18a28.8 28.8 0 0 1-3.81-1.25c-.96-.38-1.88-.84-2.77-1.36-2.2-1.3-4.65-3.48-4.57-6.36a.8.8 0 0 0-.03-.13s.01 0 0 0a5.09 5.09 0 0 1 2.25-2.86Z" fill="url(#bqvyk2t1n)"/><path d="M42 20.3v8.03c0 1.04-.39 2.1-.93 2.92-.67 1-1.53 1.87-2.46 2.63a27.45 27.45 0 0 1-7.41 4.1 32.84 32.84 0 0 1-8.2 1.97v-8.7s.28-2.43 2.41-4.36c1.72-1.55 7.3-2.1 7.3-2.1a42.9 42.9 0 0 0 4.87-.81 6.33 6.33 0 0 0 2.13-.8 5.04 5.04 0 0 0 2.2-2.78c0-.03.06-.08.09-.1Z" fill="url(#cqvyk2t1n)"/><path d="M33 24.8v-8.82a31.5 31.5 0 0 0-5.37 1.08A32.21 32.21 0 0 0 18.86 21c-.7.47-1.34.96-1.92 1.46-1.3 1.14-2.6 2.64-2.91 4.42l-.02.2-.01.13v8.5s.01 0 0 0a5.16 5.16 0 0 1 3.37-3.43c1.82-.5 3.7-.8 5.89-1.1l.04-.01c1.25-.17 2.35-.33 3.53-.57 2.7-.56 6.03-1.67 6.16-5.04l.01-.76Z" fill="url(#dqvyk2t1n)"/><path d="M32.93 24.81c-8.8.48-10.25 4.55-9.88 6.52.68 0 2.85-.13 6.32-1.28 3.46-1.15 3.83-4.03 3.56-5.24Z" fill="url(#eqvyk2t1n)"/><defs><linearGradient id="aqvyk2t1n" x1="18" y1="11.01" x2="40.51" y2="20.92" gradientUnits="userSpaceOnUse"><stop stop-color="#6DC248"/><stop offset=".39" stop-color="#448C3F"/><stop offset="1" stop-color="#1E4732"/></linearGradient><linearGradient id="bqvyk2t1n" x1="15.34" y1="35.38" x2="37.59" y2="42.34" gradientUnits="userSpaceOnUse"><stop stop-color="#A6180E"/><stop offset=".71" stop-color="#FA2D17"/><stop offset="1" stop-color="#FF8425"/></linearGradient><linearGradient id="cqvyk2t1n" x1="43.13" y1="25.04" x2="23.64" y2="33.84" gradientUnits="userSpaceOnUse"><stop stop-color="#B3D453"/><stop offset=".91" stop-color="#298D42"/></linearGradient><linearGradient id="dqvyk2t1n" x1="30.89" y1="21.75" x2="13.81" y2="30.96" gradientUnits="userSpaceOnUse"><stop stop-color="#A6180E"/><stop offset=".6" stop-color="#FF3017"/><stop offset="1" stop-color="#FF8425"/></linearGradient><linearGradient id="eqvyk2t1n" x1="33" y1="26.68" x2="23.56" y2="30.49" gradientUnits="userSpaceOnUse"><stop stop-color="#B01C0F"/><stop offset=".49" stop-color="#CE2313"/><stop offset="1" stop-color="#E52914"/></linearGradient></defs></svg>