<!-- by TradingView --><svg width="56" height="56" viewBox="0 0 56 56" xmlns="http://www.w3.org/2000/svg"><path fill="#F0F3FA" d="M0 0h56v56H0z"/><path d="M28 11c3.26 0 6.3.92 8.89 2.5a.71.71 0 0 0-.36-.05c-2.73.3-5.34 2.07-7.58 3.75a69.26 69.26 0 0 0-6.9 5.93.13.13 0 0 1-.16-.07A5.12 5.12 0 0 0 17.65 20c-1.05-.02-1.66.74-1.65 1.56a1.82 1.82 0 0 0 1.27 1.66c1.28.27 2.05.75 2.7 1.98.02.04.03.09.03.14 0 .04-.02.09-.05.13-1.7 2.42-4.38 4.48-4.36 7.73.02 1.37 1.03 2.84 2.52 2.8 3.6-.1 4.61-5.24 4.6-8.08 0-.85-.07-1.72-.2-2.6a.4.4 0 0 1 .11-.33 44 44 0 0 1 7.9-6.48c.8-.54 2.56-1.52 3.88-1.51.86 0 1.61.6 1.6 1.51-.02 1.13-1.8 2.6-2.58 3.3-.77.7-1.25 1.12-1.45 1.28-.6.46-.97 1.03-.97 1.65 0 .32.1.65.33.99.25.37 1 .65 1.38.6 2.06-.26 3.79-.16 5.08.33a4.8 4.8 0 0 1 3.21 4.4c.04 4.5-6.04 6.21-9.71 6.36-1.74.07-3.19.32-3.93 1.64-.26.44-.37.87-.36 1.27.02 1.18 1.02 2.1 2.27 2.45 1.12.31 2.42.52 2.96.62a.3.3 0 0 1 .06.59l-2.28.85a.08.08 0 0 0-.05.04 17 17 0 0 1-17.25-9.44 138.42 138.42 0 0 0 1.57-11.78 1.2 1.2 0 0 0-1.26-1.29h-.05a1.42 1.42 0 0 0-1.33 1.5c.18 3.28.14 6.1-.1 8.43A17.02 17.02 0 0 1 28 11Zm11.67 4.64a17 17 0 0 1-3.83 27.44l.02-.03a.38.38 0 0 0 0-.26c-.08-.2-.13-.56-.35-.66a8.28 8.28 0 0 0-2.61-.57c-.57-.04-2.9-.06-2.9-1.05 0-.5.53-.78.97-.84 1.1-.14 2.82-.3 3.5-.48C39 37.99 44 34.27 44 29.16c0-1.72-.87-3.17-2.53-4.14a9.34 9.34 0 0 0-3-1.14l-3.49-.28a.11.11 0 0 1-.1-.08.11.11 0 0 1 .05-.12c2.4-1.71 5.2-3.99 5.02-7.3a.5.5 0 0 0-.13-.3l-.15-.16ZM20.71 27.37c.06.02.12.2.16.55.08.63.13 1.1.13 1.58 0 .44-.02.89-.08 1.48-.11 1.08-.87 3-2.12 3.02-.12 0-.24-.02-.37-.06-1.48-.45-.9-2.77-.33-3.81.59-1.09 1.35-1.47 2.17-2.4.23-.26.38-.38.44-.36Z" fill="#1E4E85"/></svg>