<!-- by TradingView --><svg width="56" height="56" viewBox="0 0 56 56" xmlns="http://www.w3.org/2000/svg"><path fill="#F0F3FA" d="M0 0h56v56H0z"/><path d="M24.12 17.7c-1.18 0-1.9 1.02-2.12 1.53 1.3 0 .6-.44 1.42-.44.66 0 1.12.93 1.27 1.4-.2.17-.57.78-.57 1.73 0 1.19 1.87 3.34 2.11 3.83.25.49-.02 2.25.5 2.25.53 0 .48-1.5.6-2.74C27.46 24 29 20.93 29 19.6c0-1.32-.77-2.25-1.27-2.61-1.22 1.11-2.14.7-3.61.7Z" fill="#4B1B58"/><path fill-rule="evenodd" d="M28 44a16 16 0 1 0 0-32 16 16 0 0 0 0 32Zm0-1a15 15 0 1 0 0-30 15 15 0 0 0 0 30Z" fill="#4B1B58"/><path fill-rule="evenodd" d="M28 42a14 14 0 1 0 0-28 14 14 0 0 0 0 28Zm0-.6a13.4 13.4 0 1 0 0-26.8 13.4 13.4 0 0 0 0 26.8Z" fill="#4B1B58"/><path d="M16.15 26.06c-.27.29-.11 1.2 0 1.64.43 0 .8-1.03 2.5-1.03 1.71 0 1.01.55 2.6.55 1.6 0 1.6-.78 2.27-.78.67 0 .81.48 1.08.95.26.48.77.63 1.23.6.45-.02-.1-.85-.46-1.32-.36-.48-1.1-1.2-1.2-2.11-.1-.9-2.15-1.56-3.78-1.56-1.64 0-2.1 1.23-2.48 1.86-.39.63-1.42.85-1.76 1.2ZM27.1 30.48c.56.26.83.74.9.94-.46-.13-1.48-.18-1.86.63-.47 1-.92 1.33-1.66 1.33-.74 0-1.14 1.18-2.16 1.18-1.01 0-1.63.44-2.23.44-.6 0-1.09-.4-1.09-.82 0-.42.35-.5.35-1.31 0-.82-.35-.45-.35-1.45s1.69-2.16 1.69-2.62c0-.47 1.21-.8 2.65-.8s3.07.59 3.07 1.26c0 .68 0 .9.7 1.22ZM29.89 31.1a4.2 4.2 0 0 0-1.59-1.08c-.2-.1-.57.2 0 .6.58.41.58.7.58 1.33 0 .63-.22.73-.22 1.14 0 .41.22.41.22.73 0 .31-.22.6-.22 1.52 0 1.24 2.09 3.66 2.72 3.66.64 0 1-.39 1.32-.92.66-.68 1.3-1.82 1.3-2.35s-.4-.85-.4-2.64-.92-1.84-1.76-1.5c-.83.34-1.45.2-1.95-.48ZM37.37 25.14h2.01c.78.25.7 1.74.42 1.74-.29 0-.45-.44-.97-.44-.94 0-.39 1-1.17 1.84a3.68 3.68 0 0 1-2.69 1.3c-.96 0-1.1.42-1.74.42-.66 0-1.15-.25-1.7-.25s-1.33.23-1.54.25c-.2.02-.99-.5-.99-.8 4.4.36 5.19-3.47 5.4-3.74.2-.28.13-.46.86-.46s1.54.14 2.11.14Z" fill="#4B1B58"/><path d="M31.3 21c.06.22.17.71.13.97-.03.16-.14.34-.24.51-.1.17-.19.32-.19.44 0 .1.17.1.37.04.13.63.3 1.7.11 2.24-.2.57-.6 1.14-1.34 1.55.3-.65.22-2.08-.4-3.01a.75.75 0 0 0 .25-.56v-.26c.02-.57.03-.92-.7-.92.07.22.18.71.14.97-.03.16-.14.34-.24.51-.1.17-.19.32-.19.44 0 .1.23.1.47 0 .53 1.08.6 2.46.19 3.09-.27.4-.64.74-1.04 1-.55.36-1.15.6-1.61.7l.07.29a5.63 5.63 0 0 0 1.66-.71c.22.04.7.1 1.27.1 1.79 0 3.36-1.77 3.49-3.49.24-.12.5-.36.5-.72v-.26c.01-.57.02-.92-.7-.92.06.22.17.71.13.97-.03.16-.14.34-.24.51-.1.17-.19.32-.19.44 0 .06.08.09.18.08-.17 1.53-1.58 3.1-3.17 3.1-.37 0-.7-.02-.93-.05.3-.24.58-.52.8-.84a3.21 3.21 0 0 0 1.89-1.92c.22-.62.02-1.83-.12-2.48a.78.78 0 0 0 .34-.63v-.26c.02-.57.03-.92-.7-.92Zm-2.8 5.01c.09-.25.12-.78.12-1.01.5.17.41.53.28 1.1l-.06.26c-.16.72-.89.74-.84.5.03-.11.12-.24.23-.39.1-.14.22-.3.27-.46ZM32.3 21c.06.22.17.71.13.97-.03.16-.14.34-.24.51-.1.17-.19.32-.19.44 0 .23 1-.03 1-.74v-.26c.01-.57.02-.92-.7-.92Z" fill="#4B1B58"/></svg>