<!-- by TradingView --><svg width="56" height="56" viewBox="0 0 56 56" xmlns="http://www.w3.org/2000/svg"><path fill="#F0F3FA" d="M0 0h56v56H0z"/><path d="M26 14h4v2h12v3H14v-3h12v-2Zm16 23H14v3h12v2h4v-2h12v-3ZM14 24.87c0-2.14 1.86-3.87 4.15-3.87H26v3h-6.76c-.69 0-1.24.53-1.24 1.18v5.64c0 .65.55 1.18 1.24 1.18H26v3h-7.85c-2.3 0-4.15-1.73-4.15-3.87v-6.26ZM21.55 26c-.3 0-.55.29-.55.64v2.72c0 .35.25.64.55.64H26v-4h-4.45Zm16.3 9c2.3 0 4.15-1.73 4.15-3.87v-6.26c0-2.14-1.86-3.87-4.15-3.87H30v3h6.76c.69 0 1.24.53 1.24 1.18v5.64c0 .65-.55 1.18-1.24 1.18H30v3h7.85ZM35 29.36c0 .35-.25.64-.55.64H30v-4h4.45c.3 0 .55.29.55.64v2.72Z" fill="#C80015"/></svg>