<!-- by TradingView --><svg width="56" height="56" viewBox="0 0 56 56" xmlns="http://www.w3.org/2000/svg"><path fill="#F0F3FA" d="M0 0h56v56H0z"/><path d="M32.8 23.17c.14.32.12.7-.07 1.14l-.02.04v-.05a2.21 2.21 0 0 0-.42-1.46v.06c.08.38.13.96.15 1.73 0 .56-.09.97-.28 1.22-.65.8-1.7 1.17-2.74 1.42-.2.05-.35.15-.5.26-.12.08-.23.16-.36.2-.13.04-.24-.01-.35-.06-.1-.05-.2-.1-.32-.06-.52.15-1.03.3-1.54.43-1.87.52-3.65 1-5.23 2.2a.35.35 0 0 1-.18.08c-.45.04-.84.24-1.16.58-.05.06-.15-.03-.1-.08.95-.91 1.94-1.35 3-1.82.47-.2.96-.42 1.47-.69l.01-.01v-.02c-.03-.05-.08-.12-.15-.08-.5.23-.88.38-1.12.45-.74.2-1.46.6-2.16 1-.35.2-.7.4-1.05.56-.42.2-.99.73-1.3 1.06-.48.51-.95 1.1-1.4 1.75-.04.05.04.1.08.07l.2-.21c.06-.08.11-.07.14.03.03.07.02.14-.01.2l-.65 1.2c-.41.77-.5 1.53-.24 2.28.18.55 1.3.24 1.64.07a7.7 7.7 0 0 0 1.57-1.06 20.14 20.14 0 0 1 2.93-2.16 9.61 9.61 0 0 1 1.8-.94c1.02-.37 1.6-.57 1.73-.6 1.22-.31 3.66-.14 3.13 1.76 0 .03-.02.04-.04.04-.03 0-.04-.02-.03-.05a1.41 1.41 0 0 0-.93-1.56c-.1-.03-.12-.01-.04.06a19.86 19.86 0 0 1 .38.3c.4.35.47.96.37 1.43-.03.13 0 .22.04.32.02.06.05.13.05.22 0 .08-.03.16-.07.24-.52.82-1.1 1.6-1.73 2.32a7.4 7.4 0 0 0-1.44 2.35c-.08.22-.04.41.13.57.02.03.08-.01.05-.05l-.05-.08a.28.28 0 0 1-.02-.26c.15-.4.32-.74.5-1.03.13-.2.14-.18.05.03l-.39.95a.17.17 0 0 0 0 .1l.05.24a.3.3 0 0 1 0 .19c-.14.37-.11.74.07 1.1.15.3.52.34.77.24.6-.26 1.21-.62 1.85-1.08l3.7-2.72a45.63 45.63 0 0 1 3.79-2.55c.3-.17.78-.4 1.45-.67a5.79 5.79 0 0 1 2.54-.5c.36.06.74.06 1.13.02.45-.05.82-.04 1.11.04.88.24 1.58.5 2.12.77.06.03.1.08.14.14.24.49.2.85-.15 1.08-.27.19-.45.33-.54.44-.3.36-.62.7-.98 1.01-.48.42-1.11.7-1.9.83-.02 0-.04-.02-.05-.05l.02-.03.68-.24a.19.19 0 0 0 .08-.06l.4-.5a.18.18 0 0 0-.13-.28l-.64-.1c-.22-.03-.42 0-.62.09-.18.08-.34.13-.48.18-.3.1-.56.18-.85.44-.32.27-.77.44-1.35.49-.18.01-.19-.01-.01-.08l.17-.07c.28-.1.6-.2.8-.5.04-.07.02-.1-.06-.1-.46.02-.74.05-.83.09-.84.37-1.65.8-2.43 1.29-.05.03-.17-.04-.15-.1l.02-.01c.28-.26.48-.42.59-.47.9-.48 1.75-.96 2.55-1.45.14-.09.1-.31-.07-.33l-.45-.06c-.21-.04-.09-.28.07-.3a4.7 4.7 0 0 1 1.12 0l.01-.03v-.02l-.01-.02a3.1 3.1 0 0 0-2.47.43c-.59.37-1.3.79-2.16 1.27-.03.01-.1.15-.04.15H35l2.23-1.2a.9.9 0 0 0 .17-.1.92.92 0 0 1 .6-.22c.12 0 .13.03.02.08L36 37.38c-.21.1-.34.18-.4.24-.19.2-.4.3-.63.39-.19.08-.38.16-.55.3-.24.2-.44.34-.62.44-.3.16-.53.35-.76.53-.26.2-.52.4-.85.58-.25.12-.5.3-.74.52-.15.13-.33.22-.5.31l-.35.22a.33.33 0 0 0-.1.16l-.02.05-.1.32c-.02.1-.05.15-.1.18a.2.2 0 0 1-.17.02c-.08-.03-.1-.07-.05-.14a.88.88 0 0 0 .1-.18c.07-.26.02-.29-.16-.1-.47.5-1.1.94-1.9 1.3-.06.03-.08.01-.06-.05.03-.1.13-.21.28-.33l.6-.35v-.02l-.01-.02a.18.18 0 0 0-.04-.05h-.04l-2.44 1.39c-.12.07-.11.09.02.06.46-.1.89-.3 1.28-.6.06-.05.1-.03.11.06l.02.1c0 .04-.01.07-.04.1l-.02.01c-.14.12-.3.26-.52.3-.2.03-.57.15-1.09.36a.67.67 0 0 1-.61-.02.32.32 0 0 0-.34 0l-.15.08c-.12.07-.11.13.02.17l.5.18c.1.04.1.07.03.09a.6.6 0 0 1-.62-.17.6.6 0 0 0-.16-.12c-.34-.16-.54-.32-.58-.47a2.16 2.16 0 0 0-.09-.2l-.06-.15c-.13-.28-.27-.58-.23-.82.18-1.1.71-2.41 1.4-3.3a25.4 25.4 0 0 0 1.83-2.8c.27-.47.4-.85.4-1.16 0-.5-.4-1.35-1.05-1.41a.28.28 0 0 0-.19.05c-.33.24-.67.43-1.01.62-.45.24-.9.49-1.35.86-.07.06-.37.2-.9.4-.31.12-.59.29-.81.49l-1.27 1.17c-.54.5-1.3 1.08-1.94 1.45a.35.35 0 0 0-.14.14c-.07.16-.14.25-.21.29l-1.34.7c-1.44.73-2.73.26-3.8-.8-.55-.52-1.01-1.4-.83-2.17a56 56 0 0 1 .44-1.74c.19-.67.63-1.41 1.32-2.22.6-.7 1.37-1.35 2.27-1.92a42.32 42.32 0 0 1 5.1-2.76c.6-.28 1.17-.49 1.75-.7.5-.18 1.01-.36 1.56-.6.51-.22 1.18-.43 2-.64.86-.21 1.35-.77 1.48-1.68.01-.07 0-.13-.05-.19-.6-.8-1.38-1.29-2.44-1.15-.1.01-.15.1-.2.21-.04.1-.09.22-.2.26-.2.07-.4-.04-.6-.14-.2-.12-.43-.24-.65-.11l-.13.09c-.18.13-.44.3-.6.21a1.24 1.24 0 0 0-1.17-.03c-.14.06-.37.1-.6.16-.45.1-.96.2-1.12.42a5.53 5.53 0 0 1-1.88 1.48c-.3.17-.62.35-.95.57-.36.24-.47.61-.58.98-.15.48-.3.95-.94 1.2-.55.2-1.12.3-1.7.3-.48-.02-.63-.3-.79-.6a1.64 1.64 0 0 0-.26-.39c-.18-.18-.44-.46-.49-.7-.23-1 .37-2.56 1.29-3.08.08-.05.14-.03.2.05l.18.32c.04.07.1.1.17.12.29.03.54.04.76.03.2-.02.22-.08.04-.17-.57-.3-.73-.75-.46-1.33.16-.36.44-.4.83-.46l.18-.03c.05 0 .1 0 .15.04l.5.4c.05.03.09.08.1.14a1 1 0 0 1-.2.88c-.06.08-.04.1.05.08l.9-.22a7.6 7.6 0 0 0 1.32-.79c.15-.1.4-.2.78-.3a2.93 2.93 0 0 0 1.46-1.03.12.12 0 0 0 0-.06c-.03-.09-.43-.57-.58-.55a.2.2 0 0 0-.1.04c-.3.21-.5.46-.65.73a.27.27 0 0 1-.38.1c-.44-.28-.9-.48-1.39-.58a1.56 1.56 0 0 0-.9.13c-.57.23-.97.36-1.2.36l-1.68.06c-.2.01-.37.17-.54.34-.23.22-.47.46-.87.34a1.58 1.58 0 0 0-.43-.04c-.23 0-.47 0-.6-.11-.9-.81-1-1.31-1.13-2.51-.1-.93.56-1.8 1.49-1.83a.4.4 0 0 1 .24.07c.14.1.25.2.36.3.23.23.43.43.86.36a8.12 8.12 0 0 1 1.76 0 17.73 17.73 0 0 0 .84.04c.02 0 .03 0 .04-.02a.16.16 0 0 0 .06-.07c.2-.46.6-.68 1.2-.64.39.03.95.18 1.68.46.59.23 1 .16 1.42-.28a.23.23 0 0 0-.01-.33c-.37-.33-1.37-.6-1.62 0-.06.13-.38 0-.33-.13.26-.73.76-1.08 1.5-1.05.37.02.74.07 1.09.17.16.05.32-.06.34-.22l.11-.8a.42.42 0 0 1 .5-.36c.43.08.84.1 1.22.07.94-.07 2.32.68 3.03 1.35a.32.32 0 0 0 .17.08 1.6 1.6 0 0 0 1.56-.58l.08-.1c.56-.7 1.15-1.43 2.01-1.3.5.06.92.05 1.27-.05l2.23-.62a4.9 4.9 0 0 1 2.12-.12c.12.02.13.04 0 .07-.19.06-.4.08-.63.07-.26 0-.4.07-.41.23a.2.2 0 0 1-.2.18c-.4.02-.75.1-1.01.27-.03.02-.04.04-.02.08a.1.1 0 0 0 .04.03 7.22 7.22 0 0 1 3.07-.24c.31.05.6.01.86-.1l.9-.4c.44-.24.85-.45 1.21-.62a17.09 17.09 0 0 0 1.47-.76c.4.02.42.13.08.33l-2.25 1.3c-.43.24-.8.4-1.2.56l-.52.2c-.42.19-.8.28-1.18.3l-.8.09c-.3.03-.56.09-.79.18-.37.14-.85.25-1.36.37a6.9 6.9 0 0 0-2.47.9c-.37.3-.62.43-.84.55-.36.2-.62.34-1.22 1.1-.06.08-.09.19-.11.3-.04.15-.07.31-.19.46-.06.08-.04.12.05.14 1.17.2 2.31.73 3.44 1.56.48.36.62.5.76 1.07.07.24.18.49.3.73.11.24.22.47.27.68.15.69-.08 1.26-.7 1.72-.23.17-.26.14-.1-.08.43-.58.7-1.7.15-2.3-.05-.06-.06-.05-.03.01Z" fill="#06407F"/></svg>