<!-- by TradingView --><svg width="56" height="56" viewBox="0 0 56 56" xmlns="http://www.w3.org/2000/svg"><path fill="#F0F3FA" d="M0 0h56v56H0z"/><path d="M30.84 40a14.5 14.5 0 1 1 6.58-8.44h-1.04a13.5 13.5 0 1 0-6.1 7.61l.56.84Z" fill="#004933"/><path d="m34 20.5-9.62 5.6c-.7.79-2.06 2.68-1.97 3.92a7.6 7.6 0 0 0 .53 2.45c-.49.53-1.47 1.93-1.47 3.32 0 1.2 2.02 3.04 3.43 4.13A12.47 12.47 0 0 1 11 27.5C11 20.6 16.56 15 23.45 15c4.32 0 8.32 2.14 10.55 5.5Z" fill="#1E8729"/><path d="M18.16 19c-2.1 0-3.65.6-4.16.9a7.48 7.48 0 0 1 4.78 3.44 6.58 6.58 0 0 0 4.53 3.22c-.51.56-1.54 2-1.54 3.3 0 1.29.49 2.33.73 2.69-.5.4-1.5 1.64-1.5 3.33 0 2.69 2.85 4.12 3.44 4.12.47 0 1.26-.17 1.6-.25-.69-.04-3.86-2.26-3.86-3.87a4 4 0 0 1 1.13-2.69c.28.3 1.22.81 2.73.81A4.63 4.63 0 0 0 30 32a3.9 3.9 0 0 0-3.12-1.6c-1.6 0-2.86.8-3.28 1.21-.18-.13-.6-.63-.6-1.57 0-1.52 1.54-3.14 2.28-3.77.41.23 1.5.73 2.55.73 3.65.14 5.63-4.36 6.17-6.5-6.07.03-8.8 3.41-9.42 4.99A6.57 6.57 0 0 0 18.16 19Z" fill="#004933"/><path d="M28.6 31.97c-.65-.45-2.43-.97-4.31.5.8.43 2.8.92 4.31-.5Z" fill="#1E8729"/><path d="M48 38h-1.4c-.36-.66-.64-1.09-.89-1.48l-.16.17v.7c0 .26.16.35.4.37V38H44v-.24c.24-.02.55-.06.55-.35v-3.6c0-.34-.24-.47-.55-.49v-.24l1.55-.08v3.38c.27-.26.97-.75 1.03-1.12l.01-.07c0-.04-.03-.07-.1-.1a1.29 1.29 0 0 0-.27-.06v-.23h1.51v.22c-.2.06-.35.12-.45.17-.32.16-.6.39-.85.63l1.06 1.68c.07.1.14.17.23.2.1.03.19.06.28.06V38Z" fill="#004933"/><path d="M44 37.23c-.3.48-.82.77-1.38.77-.9 0-1.62-.57-1.62-1.52 0-.8.63-1.48 1.55-1.48.75 0 1.45.4 1.45 1.21v.19h-2c0 .61.26 1.19.95 1.19.35 0 .64-.22.84-.52l.21.16Zm-1.08-1.08c0-.3.01-.92-.42-.92-.29 0-.48.28-.5.93l.92-.01ZM41 35.14h-.22a2.4 2.4 0 0 0-.3-.55c-.13-.2-.25-.3-.36-.31a4.66 4.66 0 0 0-.47-.03h-.13v3.14c0 .34.37.36.63.39V38h-2.3v-.22c.26-.03.63 0 .63-.36v-3.17c-.2 0-.4 0-.6.03-.11.01-.23.12-.37.31-.13.2-.23.38-.29.55H37V34h4v1.14ZM37 37h-2v-1h2v1ZM34 36.48c0 .89-.64 1.52-1.53 1.52-.86 0-1.47-.64-1.47-1.5 0-.87.62-1.5 1.5-1.5.87 0 1.5.6 1.5 1.48Zm-1 0c0-.38 0-1.25-.5-1.25s-.5.85-.5 1.23c0 .4 0 1.3.5 1.3s.5-.9.5-1.28ZM29.65 38c-.92 0-1.65-.55-1.65-1.51 0-.92.85-1.49 1.7-1.49.73 0 1.18.28 1.18.73 0 .28-.13.46-.5.46-.3 0-.52-.15-.52-.37 0-.19.09-.4.1-.49-.04-.07-.1-.1-.24-.1-.57 0-.72.79-.72 1.23 0 .49.33 1.12.91 1.12.44 0 .67-.2.87-.54l.22.15c-.27.5-.79.81-1.35.81Z" fill="#004933"/></svg>