<!-- by TradingView --><svg width="56" height="56" viewBox="0 0 56 56" xmlns="http://www.w3.org/2000/svg"><path fill="url(#a)" d="M0 0h56v56H0z"/><path d="M5 29.38c.01.42.15.57.39.62.23.05.58-.11.61-.5a2.1 2.1 0 0 0-.02-.45s0-.02.02-.02a.07.07 0 0 1 .05-.03h.9l.04.01v.03c.02.54-.08 1.12-.43 1.5-.38.42-.83.5-1.37.44-.49-.06-.93-.47-1.12-.96A2.08 2.08 0 0 1 4 29.4a505 505 0 0 1 0-2.78c0-.3.03-.51.07-.63.19-.49.63-.9 1.13-.96.53-.07.98.02 1.36.44.35.38.45.96.44 1.5l-.01.03-.03.01h-.91a.07.07 0 0 1-.05-.03.07.07 0 0 1-.02-.05c.02-.15.03-.27.02-.37-.03-.38-.24-.62-.61-.55-.35.07-.39.4-.39.62v2.76ZM15 26.47c-.06.31.27.7.51.9.08.06.28.25.76.63.23.19.48.5.6.8.22.55.16 1.07-.16 1.55s-.77.7-1.35.64c-.24-.02-.4-.06-.52-.13-.63-.37-.9-1.02-.83-1.84 0-.01 0-.02.02-.02h.95c.02 0 .03 0 .02.03-.05.58.1.86.43.95.26.07.5-.05.59-.34.18-.62-.55-1.02-.91-1.33l-.5-.41a2.08 2.08 0 0 1-.56-1.43c0-.32.12-.64.36-.94.26-.33.6-.5 1.03-.52.37-.02.7.08.95.3.33.25.59.67.61 1.12v.52l-.03.03-.03.02h-.88l-.03-.01-.01-.02-.02-.02v-.02c0-.2.02-.5-.07-.67-.22-.41-.82-.32-.93.21ZM18.5 26.47c-.06.31.27.7.51.9.08.06.28.25.76.63.23.19.48.5.6.8.22.55.16 1.07-.16 1.55s-.77.7-1.35.64c-.24-.02-.4-.06-.52-.13-.63-.37-.9-1.02-.83-1.84 0-.01 0-.02.02-.02h.95c.02 0 .03 0 .02.03-.05.58.1.86.43.95.26.07.5-.05.59-.34.18-.62-.55-1.02-.91-1.33l-.5-.41a2.08 2.08 0 0 1-.56-1.43c0-.32.12-.64.36-.94.26-.33.6-.5 1.03-.52.37-.02.7.08.95.3.33.25.59.67.61 1.12v.52l-.03.03-.03.02h-.88l-.03-.01-.01-.02-.02-.02v-.02c0-.2.02-.5-.07-.67-.22-.41-.82-.32-.93.21ZM36.45 29h-.55l-.04-.01a.08.08 0 0 1-.02-.03.09.09 0 0 1-.02-.07l.14-.8c0-.02.02-.04.04-.06a.12.12 0 0 1 .08-.03h1.38c.02 0 .04.01.04.03v1.26c0 .13-.02.27-.04.39-.03.15-.06.34-.14.48-.33.64-.87.92-1.6.82-.74-.1-1.22-.82-1.22-1.6v-2.85c0-.43.16-.8.48-1.12.37-.37.75-.45 1.25-.4.64.07 1.24.77 1.22 1.47v.38c0 .1-.04.14-.09.14h-.71c-.08 0-.13-.05-.13-.14 0-.1 0-.42-.04-.54-.1-.23-.25-.38-.52-.33-.27.04-.46.36-.46.69v2.7c0 .47.4.78.84.57.24-.22.2-.58.16-.9 0-.02 0-.03-.02-.04a.05.05 0 0 0-.03-.01ZM10 30.05v.9l-.01.04-.03.01H7.54l-.03-.01-.01-.03v-5.92l.01-.03.03-.01h.95l.02.01.01.03v4.92l.01.03.03.01h1.4c.01 0 .02 0 .03.02l.01.03ZM21.95 25h-.9a.05.05 0 0 0-.05.05v5.9c0 .03.02.05.05.05h.9c.03 0 .05-.02.05-.05v-5.9a.05.05 0 0 0-.05-.05ZM25.31 27.53v.87l-.01.04-.03.02h-1.22l-.04.01-.01.04v2.44c0 .01 0 .02-.02.03l-.03.02h-.9c-.02 0-.03 0-.04-.02a.06.06 0 0 1-.01-.03v-5.9l.01-.03.04-.02h2.46c.01 0 .02 0 .03.02l.02.03v.9l-.02.03-.03.02h-1.47s-.02 0-.03.02l-.01.03v1.37l.01.04.03.01h1.23l.03.02.01.04ZM26.95 25h-.9c-.03 0-.05.02-.05.04v5.92c0 .02.02.04.05.04h.9c.03 0 .05-.02.05-.04v-5.92c0-.02-.02-.04-.05-.04ZM29.04 27.49h1.24l.02.01.01.03v.97l-.03.01h-1.24l-.03.01V30l.03.01h1.48l.02.01.01.03V30.99l-.03.01h-2.49l-.02-.01-.01-.03v-5.92l.01-.03.02-.01h2.49l.02.01.01.03V26h-1.51l-.03.02v1.46h.03ZM46.5 29.99c.38 0 .5-.31.5-.7v-4.24c0-.03.01-.05.05-.05h.9c.03 0 .05.02.05.05v4.15c0 .39-.04.68-.12.87-.17.4-.46.7-.89.87-.1.04-.26.06-.5.06-.22 0-.39-.02-.48-.06a1.55 1.55 0 0 1-.9-.87c-.07-.2-.11-.49-.11-.87v-4.15c0-.03.02-.05.05-.05h.9c.04 0 .05.02.05.05v4.25c0 .38.12.69.5.69Z" fill="#FBF8F8"/><path fill-rule="evenodd" d="M12.04 25h-.08c-.4 0-.73.14-1.02.45-.28.3-.42.67-.43 1.1v4.4c0 .03.01.05.04.05h.9c.04 0 .06-.02.06-.06v-1.85c0-.07.03-.1.09-.1h.8c.07 0 .1.03.1.1v1.85c0 .04.02.06.06.06h.89c.03 0 .04-.02.04-.05v-4.4c0-.43-.14-.8-.43-1.1a1.3 1.3 0 0 0-1.02-.45Zm-.55 2.98.03.02h.94c.02 0 .04 0 .05-.03v-1.36a.74.74 0 0 0-.03-.23.64.64 0 0 0-.1-.2.5.5 0 0 0-.17-.13.41.41 0 0 0-.19-.05h-.04a.45.45 0 0 0-.35.18.7.7 0 0 0-.15.43v1.33l.01.04ZM31.01 25.02l-.01.03v5.9a.05.05 0 0 0 .02.04.04.04 0 0 0 .03.01h1.46a1.4 1.4 0 0 0 1.05-.48A1.62 1.62 0 0 0 34 29.4V26.6c0-.43-.16-.84-.44-1.14-.28-.3-.66-.47-1.06-.47h-1.46s-.02 0-.03.02Zm1 1-.01.02v3.94l.01.01h.01l.01.01h.47a.4.4 0 0 0 .2-.05.52.52 0 0 0 .16-.14.7.7 0 0 0 .1-.22.84.84 0 0 0 .04-.25v-2.69a.77.77 0 0 0-.15-.46.45.45 0 0 0-.35-.19h-.47l-.02.01ZM39 28.69c0-.03.01-.04.04-.04h.14c.04 0 .06.01.08.05l.72 2.22.04.06a.1.1 0 0 0 .06.02h.9l.01-.02.01-.02v-.02l-.87-2.63v-.05c0-.02.02-.03.03-.04.46-.27.82-.69.84-1.27v-.45c0-.62-.45-1.15-.96-1.4-.16-.07-.4-.1-.7-.1h-1.3c-.02 0-.04.02-.04.05V31l.03.01h.93l.03-.01.01-.04V28.7Zm0-2.67v1.58l.01.02.01.01.02.01h.41a.5.5 0 0 0 .21-.05.55.55 0 0 0 .18-.13c.05-.06.1-.13.12-.2a.67.67 0 0 0 .04-.24v-.42a.64.64 0 0 0-.17-.43.52.52 0 0 0-.39-.17h-.4c-.02 0-.03 0-.03.02Z" fill="#FBF8F8"/><path d="M44.07 30.56c.27-.28.42-.66.42-1.06l.01-2.99a1.59 1.59 0 0 0-.41-1.07 1.41 1.41 0 0 0-1-.44h-.16c-.37 0-.73.16-1 .44s-.42.66-.42 1.06v2.99a1.59 1.59 0 0 0 .4 1.07 1.41 1.41 0 0 0 1 .44h.16c.38 0 .74-.16 1-.44ZM42.98 26h.04c.26 0 .48.27.48.6v2.8c0 .33-.2.6-.48.6H43c-.27 0-.48-.27-.48-.6v-2.8c-.01-.33.2-.6.47-.6Z" fill="#FBF8F8"/><path fill-rule="evenodd" d="M50 30.95v-1.9c0-.04.02-.05.05-.05h.17c.2 0 .4 0 .59-.03a1.52 1.52 0 0 0 1.17-1.44c.03-.31.02-.7 0-1.16-.03-.7-.6-1.32-1.23-1.35-.3-.02-.86-.02-1.7-.01-.04 0-.05.01-.05.04v5.9c0 .03.01.05.04.05h.91l.04-.01.01-.04Zm.02-4.93-.01.04-.01 1.88a.07.07 0 0 0 .01.04l.02.01h.02l.41.01c.14 0 .28-.07.38-.2a.8.8 0 0 0 .16-.48v-.63a.86.86 0 0 0-.04-.26.73.73 0 0 0-.12-.23.55.55 0 0 0-.17-.15.44.44 0 0 0-.2-.05h-.42s-.02 0-.03.02Z" fill="#FBF8F8"/><defs><linearGradient id="a" x1="10.42" y1="9.71" x2="68.15" y2="76.02" gradientUnits="userSpaceOnUse"><stop stop-color="#1A1E21"/><stop offset="1" stop-color="#06060A"/></linearGradient></defs></svg>