<!-- by TradingView --><svg width="56" height="56" viewBox="0 0 56 56" xmlns="http://www.w3.org/2000/svg"><path fill="#F0F3FA" d="M0 0h56v56H0z"/><path d="M27.71 11h.41a5.83 5.83 0 0 1 1.83 2.87c.77 2.39.81 4.78.12 7.15-.26.92-.92 1.52-1.96 1.8-.53.15-.88-.14-1.4 0a.45.45 0 0 1-.28 0c-1.48-.54-2-1.57-2.05-2.96-.03-1.06.03-2.1.2-3.16A8.8 8.8 0 0 1 27.7 11Z" fill="#A70C34"/><path d="M43.52 26.81c-1.6 2.1-4.62 4.54-7.51 3.88-1.5-.34-2.92-.57-4.26-.7a.4.4 0 0 1-.27-.12l-.67-.73a.4.4 0 0 1-.1-.3c.08-1.27.04-2.55-.11-3.83a4.2 4.2 0 0 1 .8-3.07 11.1 11.1 0 0 1 5.8-4.13c1.07-.33 2.38-.59 3.91-.78 1.53-.19 3 .02 4.42.62l.1.07.05.1c.39 1.36.42 2.63.11 3.82a15.4 15.4 0 0 1-2.27 5.17Z" fill="#F08200"/><path d="M14.73 17.1c2.1.03 4.23.3 5.85 1.52.8.6 1.58 1.25 2.3 1.92 1.27 1.16.77 2.74.1 4.02a.5.5 0 0 1-.21.2c-1.35.7-2.76 1.4-4.17.33a19.91 19.91 0 0 1-2.8-2.52c-1.08-1.2-1.56-3.32-1.7-4.81a.56.56 0 0 1 .16-.46.67.67 0 0 1 .47-.2Z" fill="#4B4948"/><path d="M20.66 26.98a4.75 4.75 0 0 1 4.1.91c.2.16.25.37.12.61-.69 1.34-1.53 2.25-2.99 2.62-1.24.31-2.45.63-3.63.94-1.23.32-2.26-.38-3.05-1.27a.39.39 0 0 1-.1-.32c.17-1.25.74-2.3 2.11-2.63 1.14-.27 2.3-.55 3.44-.86Z" fill="#F08200"/><path d="M34.68 32.16c1.86.67 3.96 2.28 4.45 4.24.34 1.4.4 2.72.19 3.94-.06.33-.38.6-.73.7-2.26.62-4.68.86-6.66-.42-1.56-1.01-2.88-2.35-3.23-4.14a11.8 11.8 0 0 1-.14-3.2c.04-.48.29-.87.8-.99 1.75-.4 3.65-.74 5.32-.13Z" fill="#A70C34"/><path d="M20.5 45h-.42l-1.12-.16c-.95-.14-1.81-.51-2.72-.73a1.06 1.06 0 0 1-.74-.58c-.35-.71-.7-1.45-1.04-2.2-.26-.6-.35-1.28-.46-1.92v-.57c.12-.55.2-1.09.49-1.58 1.81-3.11 5.19-4.45 8.86-4.15.63.05 1.24.12 1.84.2.32.04.55.34.63.62 1.1 3.7.9 7.21-2.33 9.9A5.08 5.08 0 0 1 20.5 45Z" fill="#4B4948"/></svg>