<!-- by TradingView --><svg width="56" height="56" viewBox="0 0 56 56" xmlns="http://www.w3.org/2000/svg"><path fill="#F0F3FA" d="M0 0h56v56H0z"/><path d="M15.04 32.13c1.54 5.8 5.2 9.51 10.97 11.14.64.18 1.63.35 2.96.5.04 0 .05.02.04.05l-.04.12c-.01.03-.04.05-.08.05-3.85.08-7.24-.92-10.18-2.99-2.97-2.09-5-4.94-6.08-8.56-.58-1.93-.76-3.99-.54-6.16.4-4.12 2.17-7.56 5.3-10.3A15.52 15.52 0 0 1 28.24 12c2.95.05 5.62.8 8.02 2.27a15.75 15.75 0 0 1 6 6.5 15.52 15.52 0 0 1 1.5 9.72 16.54 16.54 0 0 1-4.52 8.87c-.04.04-.07.05-.08.04a.1.1 0 0 1-.02-.03c-.02-.04-.03-.07-.02-.1 1.52-2.36 2.45-4.49 2.78-6.39 1.04-5.93-.49-11.02-4.58-15.28a.46.46 0 0 0-.49-.13c-1.82.52-3.42 1.41-4.78 2.68a3.98 3.98 0 0 0-1.31 2.2 8.81 8.81 0 0 0 2.17 7.97 17.96 17.96 0 0 1 1.96 2.4c1.27 2.09 1.63 4.05 1.08 5.9a7.98 7.98 0 0 1-3.51 4.6c-.41.26-.45.21-.13-.14a7.96 7.96 0 0 0 1.5-2.46c.2-.5.13-.97-.2-1.38-.55-.7-1.38-.96-2.5-.79-1.49.24-2.34.36-2.54.37-.62.04-1.13-.1-1.5-.41-.41-.34-.55-.8-.42-1.4l.17-.7a.5.5 0 0 0-.08-.41c-.25-.37-.25-.72-.02-1.07.09-.12.07-.23-.05-.31l-.34-.23c-.14-.1-.19-.23-.13-.4l.3-.87a.3.3 0 0 0-.07-.33l-.8-.81c-.3-.29-.3-.57 0-.85l.78-.71a8.6 8.6 0 0 0 1.5-1.58c.4-.64.59-1.41.55-2.3l-.02-.77c.1-2.02.9-3.58 2.4-4.67.1-.07.09-.14-.02-.2a20.28 20.28 0 0 0-11.06-2.7c-.15 0-.24.08-.27.22-.6 3.62-.21 7.16 1.14 10.62.06.15.01.24-.14.28a20.47 20.47 0 0 0-5.33 2.56c-.13.08-.17.2-.13.35Z" fill="#A58B5B"/></svg>