<!-- by TradingView --><svg width="56" height="56" viewBox="0 0 56 56" xmlns="http://www.w3.org/2000/svg"><path fill="#F0F3FA" d="M0 0h56v56H0z"/><path d="M33.56 35H32v2h1.59v-.43h-1.03v-.37h.9v-.41h-.9v-.36h1V35Zm2.33 0h-.49v2h.56v-1.14l.88 1.14h.48v-2h-.55v1.17L35.89 35Zm3.02 0h1.57v.43h-1v.36h.9v.41h-.9v.37h1.02V37h-1.6v-2Zm5.14.65c0-.4-.3-.65-.87-.65h-.88v2h.55v-.67H43l.18-.01.38.68h.6l-.46-.8c.23-.1.35-.3.35-.55Zm-1.2.3v-.51h.3c.21 0 .32.07.32.24 0 .18-.12.27-.35.27h-.28Zm3.93-.05h.86v.8c-.27.24-.62.3-.93.3-.8 0-1.06-.46-1.06-.99 0-.58.33-1 1.06-1 .64 0 .9.28.93.67h-.58c-.02-.14-.1-.25-.34-.25-.3 0-.48.2-.48.57 0 .36.16.59.53.59.13 0 .24-.02.34-.08v-.25h-.33v-.36Zm2.13-.9.75 1.23V37h.54v-.77L51 35h-.62l-.44.74-.43-.74h-.6Z" fill="#93D500"/><path opacity=".8" d="M36.38 23h2.96l4.48-4.4-1.48-1.46L36.38 23Z" fill="#93D500"/><path d="M40.15 15 32 23h2.96l6.68-6.54L40.15 15Z" fill="#93D500"/><path opacity=".6" d="M44.52 19.3 40.75 23h2.95l2.3-2.26-1.48-1.44Z" fill="#93D500"/><path d="M22 33.29V22.71c0-.4-.26-.71-.58-.71h-.84c-.31 0-.58.32-.58.71v10.58c0 .39.27.71.58.71h.84c.31 0 .58-.32.58-.71ZM18.48 25h-.8c-.3 0-.67.23-.68.53v5.87c0 .38-.6.61-1.06.61-.43 0-.93-.3-.93-1.18l-.01-5.3c0-.3-.33-.53-.62-.53h-.86c-.29 0-.52.23-.52.53v5.29c0 2.12.83 3.18 2.14 3.18.72 0 1.31-.22 1.78-.74l.02.3c.05.25.27.44.53.44h1c.3 0 .53-.23.53-.53v-7.94c0-.3-.23-.53-.52-.53Zm8.2 2h-.3c-.23 0-.38.22-.38.47v6.07c0 .25-.25.46-.49.46h-1.08c-.24 0-.42-.21-.42-.46v-6.17c0-.2-.5-.36-.69-.36-.19 0-.32-.16-.32-.36V25.5c0-.24 0-.5.41-.5h.6v-.03c0-1.73.2-2.8 2.31-2.97.25-.02.46.18.47.42l.06.92c.01.24-.14.46-.36.5-.5.08-.5.32-.5.87l.01.24V25h.66c.24 0 .34.24.34.5v1.02c.02.29-.08.49-.32.49ZM30 36.39v-1.85c0-.39.47-.7.9-.6.2.05.76.07 1 .07 1.5 0 2.1-1.54 2.1-3.45v-2.58c0-1.98-.6-2.97-1.99-2.97-.77 0-1.55.07-2.01.54-.04-.3-.18-.54-.54-.54h-.76c-.4 0-.7.28-.7.62v10.76c0 .35.32.62.7.62h.66c.39 0 .64-.28.64-.62ZM31.15 32c-.37 0-1.15-.14-1.15-.55v-3.93c0-.42.81-.52 1.18-.52.47 0 .82.15.82 1.04v2.52c0 .9-.36 1.44-.85 1.44Zm9.85-.99c0 1.65-1.06 2.99-3 2.99-1.95 0-3-1.33-3-2.99V28c0-1.62 1.05-2.99 3-2.99 1.96 0 3 1.33 3 2.99V31Zm-4-.09c0 .9.54 1.08 1 1.08.48 0 1-.16 1-1.08v-2.84c0-.9-.52-1.08-1-1.08s-1 .16-1 1.08v2.84Zm8.4-3.58c.25.03.58-.21.6-.5V25.6c.02-.26-.13-.5-.36-.55a1.29 1.29 0 0 0-1.38.53c-.14.2-.43-.06-.45-.31-.01-.14-.13-.26-.26-.26h-1.08c-.25 0-.47.23-.47.52v7.96c0 .29.22.52.47.52h1.17c.26 0 .36-.23.36-.52v-4.45c.14-1.21.62-1.7 1.28-1.7h.13Zm5.15-.34h-.36c-.2 0-.2.21-.2.43l.01.1v3.76c0 .51 0 .71.44.71h.06c.22-.01.41.31.43.56l.07.7c.02.2-.07.4-.25.48-.32.14-.7.26-1.1.26-1.43 0-1.65-.93-1.65-2.78v-3.8c0-.19-.44-.36-.6-.42l-.15-.06c-.17-.07-.25-.25-.25-.43v-1.06c0-.24.14-.44.36-.45h.15c.17-.01.3-.15.36-.32l.35-1.35c.06-.18.22-.33.4-.33h.94c.23 0 .44.23.44.47v1.1c0 .22-.01.43.18.43h.36c.23 0 .46.21.46.45v1.08a.46.46 0 0 1-.45.47Zm-41-1.76C9.32 24.47 8.9 24 8.44 24c-.8 0-1.42.68-1.43 1.97v4.16C7 31.27 7.8 32 8.5 32a2.8 2.8 0 0 0 1.45-.67.3.3 0 0 0 .05-.14v-.89c0-.12-.1-.3-.23-.3h-.54c-.12 0-.23-.03-.23-.16v-1.6c0-.13.1-.24.23-.24h2.57c.11 0 .2.1.2.23v5.54c0 .12-.07.23-.2.23H10v-.52c-.46.42-1.54.52-2.21.52C6.15 34 5 32.84 5 30.17v-4.5c0-2.21 1.87-4 3.97-3.62 1.26.22 2.16 1.12 2.44 2.61a.23.23 0 0 1-.15.27l-1.42.47a.23.23 0 0 1-.28-.16Z" fill="#002856"/></svg>