<!-- by TradingView --><svg width="56" height="56" viewBox="0 0 56 56" xmlns="http://www.w3.org/2000/svg"><path fill="#F0F3FA" d="M0 0h56v56H0z"/><path d="m27 37.34 1.02-.34c-.1 3.7.52 6.76.95 8.17.08.27 0 .6-.2.75-.21.16-.5.07-.6-.22-.96-2.66-1.18-6.68-1.17-8.36ZM26.89 36.64c-.14-3.69.97-7.98 1.53-9.67.83 1.25 2.47 3.82 2.47 4.05 0 .28.11 2.2 0 2.42-.1.22-3.51 3.2-4 3.2Z" fill="#294EFF"/><path d="M35.25 19a5.1 5.1 0 0 0-3.25.96c2.6 2.29 3.4 5.65 3.48 7.04a6.66 6.66 0 0 1 5.88-4.72c1.4 0 3.03.79 3.93 1.33.2.13.46.08.6-.1a.46.46 0 0 0-.03-.62 7.8 7.8 0 0 0-4.67-1.8c-.78 0-1.62.24-1.94.36-.6-.82-1.71-2.45-4-2.45Z" fill="url(#a)"/><path d="M35 28.29c0 7.92-10.55 9.76-16.3 9.7a.52.52 0 0 1-.5-.52c0-.29.23-.53.52-.53C25.67 36.87 29 35.46 29 31.38c0-7.29-12.12-12.71-18.73-14.65a.37.37 0 0 1 .1-.73C23.8 16.02 35 18.15 35 28.29Z" fill="url(#b)"/><defs><linearGradient id="a" x1="39" y1="19" x2="39" y2="27" gradientUnits="userSpaceOnUse"><stop stop-color="#D345DD"/><stop offset="1" stop-color="#4660FE"/></linearGradient><linearGradient id="b" x1="35" y1="27" x2="13.87" y2="32.4" gradientUnits="userSpaceOnUse"><stop offset=".09" stop-color="#414AFC"/><stop offset="1" stop-color="#F26AFC"/></linearGradient></defs></svg>