<!-- by TradingView --><svg width="56" height="56" viewBox="0 0 56 56" xmlns="http://www.w3.org/2000/svg"><path fill="url(#a2arjwcti)" d="M0 0h56v56H0z"/><path d="M39.3 19.26c.45-.46.7-1.06.7-1.65 0-.6-.16-1.38-.65-1.8A15.99 15.99 0 1 0 28.99 44c3.96 0 7.5-1.47 10.3-3.85.47-.4.7-.96.71-1.53a2.8 2.8 0 0 0-.7-1.89 2.4 2.4 0 0 0-1.8-.73c-.69 0-1.4.25-1.97.67A11.11 11.11 0 0 1 29 39a11 11 0 0 1 0-22c2.43 0 4.6 1 6.43 2.33.59.43 1.3.67 2 .67.69 0 1.35-.23 1.86-.74Z" fill="#F0F3FA"/><defs><linearGradient id="a2arjwcti" x1="7.5" y1="8.5" x2="50" y2="45.5" gradientUnits="userSpaceOnUse"><stop offset=".2" stop-color="#1859AB"/><stop offset=".59" stop-color="#00ADB8"/></linearGradient></defs></svg>