<!-- by TradingView --><svg width="56" height="56" viewBox="0 0 56 56" xmlns="http://www.w3.org/2000/svg"><path fill="#243746" d="M0 0h56v56H0z"/><path d="m48.05 31-.05-.34c.36-.07.5-.13.5-.53v-4.26c0-.4-.14-.46-.5-.53l.05-.34h1.94l.03.34c-.21.04-.52.03-.52.33v4.89l.58-.01c.59-.01.93-.03 1.03-.06.09-.03.23-.47.45-1.33l.43.04.01.6c0 .3-.03.7-.09 1.2h-3.86ZM43.55 31l-.05-.34c.36-.07.5-.13.5-.53v-4.26c0-.4-.14-.46-.5-.53l.05-.34h1.94l.03.34c-.21.04-.52.03-.52.33v4.89l.58-.01c.59-.01.93-.03 1.03-.06.09-.03.23-.47.45-1.33l.43.04.01.6c0 .3-.03.7-.09 1.2h-3.86ZM40.5 31v-.34c.36-.07.5-.13.5-.53v-4.26c0-.4-.14-.46-.5-.53V25h2v.34c-.21.04-.5.03-.5.33v4.66c0 .3.29.29.5.33V31h-2ZM34 31v-.34c.37-.06.5-.1.5-.53v-4.26c0-.42-.13-.47-.5-.53V25h2.23v.34c-.21.04-.73.02-.73.33v1.98h3v-1.78c0-.42-.36-.47-.73-.53V25H40v.34c-.22.04-.5.02-.5.33v4.66c0 .31.28.3.5.33V31h-2.23v-.34c.37-.06.73-.1.73-.53v-1.96h-3v2.16c0 .31.52.3.73.33V31H34ZM9.5 31v-.34c.37-.06.5-.1.5-.53v-4.26c0-.42-.13-.47-.5-.53V25h2.23v.34c-.21.04-.73.02-.73.33v1.98h3v-1.78c0-.42-.36-.47-.73-.53V25h2.23v.34c-.22.04-.5.02-.5.33v4.66c0 .31.28.3.5.33V31h-2.23v-.34c.37-.06.73-.1.73-.53v-1.96h-3v2.16c0 .31.52.3.73.33V31H9.5ZM28 28.13c0-.64.14-1.21.42-1.71.33-.6.82-1 1.47-1.23.36-.13.74-.19 1.13-.19a7.37 7.37 0 0 1 1.85.24c.03.2.05.42.05.65 0 .23 0 .48-.02.76l-.5.07c-.14-.65-.25-1.01-.35-1.08a3.28 3.28 0 0 0-1.08-.2c-.66 0-1.15.24-1.48.7-.33.45-.5 1.05-.5 1.79 0 .88.21 1.53.63 1.96.42.42.95.64 1.57.64a2.53 2.53 0 0 0 1.03-.22c.06-.05.16-.4.29-1.07l.49.01c0 .43-.03.89-.1 1.37a5.4 5.4 0 0 1-1.97.38c-.97 0-1.7-.27-2.19-.81a2.94 2.94 0 0 1-.74-2.06ZM23 31v-.34c.37-.06.5-.11.5-.53v-4.26c0-.42-.13-.47-.5-.53V25h2.43c1.22 0 1.89.55 1.89 1.41 0 .86-.57 1.54-1.42 1.83v.04c.06.02.12.08.2.2l1.2 1.83c.08.12.17.21.25.26.08.04.23.07.45.1V31h-1.27l-1.7-2.63h-.53v1.96c0 .3.42.29.62.33l-.03.34H23Zm1.5-3.07h.45c.91 0 1.37-.49 1.37-1.4 0-.71-.38-1.07-1.15-1.07h-.5c-.11 0-.17.07-.17.2v2.27ZM21.2 26.03c0-.26-.06-.42-.16-.5-.09-.1-.32-.16-.69-.2V25h2.15v.33l-.54.1c-.1.03-.16.07-.17.13v3.17c0 1.42-.96 2.27-2.36 2.27-1.5 0-2.43-.73-2.43-2.2v-2.94c0-.42-.13-.47-.5-.53V25h2.24v.33c-.22.04-.74.02-.74.33v3c0 1.17.48 1.77 1.58 1.77.96 0 1.61-.67 1.61-1.64v-2.76ZM4 28.13c0-.64.14-1.21.42-1.71.33-.6.82-1 1.47-1.23.36-.13.74-.19 1.13-.19a7.37 7.37 0 0 1 1.85.24c.03.2.05.42.05.65 0 .23 0 .48-.02.76l-.5.07c-.14-.65-.25-1.01-.35-1.08a3.28 3.28 0 0 0-1.08-.2c-.66 0-1.15.24-1.48.7-.33.45-.5 1.05-.5 1.79 0 .88.21 1.53.63 1.96.42.42.95.64 1.57.64a2.53 2.53 0 0 0 1.03-.22c.06-.05.16-.4.29-1.07l.49.01c0 .43-.03.89-.1 1.37a5.4 5.4 0 0 1-1.97.38c-.97 0-1.7-.27-2.19-.81A2.94 2.94 0 0 1 4 28.13Z" fill="#FDFEFE"/></svg>