<!-- by TradingView --><svg width="56" height="56" xmlns="http://www.w3.org/2000/svg"><path fill="#F0F3FA" d="M0 0h56v56H0z"/><path d="M8.933 35h3.815V23.594h3.953V21H5v2.594h3.933V35z" fill="#575759"/><path d="M14 35h3v-4.788c0-1.983 1.864-3.147 3.634-3.147H23v-2.842c-.393-.076-1.016-.095-1.409-.095-1.966 0-3.332.706-4.591 2.27v-2.003h-3V35z" fill="#575759"/><path d="M33.245 31.567c-.492.877-1.475 1.335-2.871 1.335-2.36 0-3.383-1.488-3.383-2.46v-.039H37.14v-.305c0-3.853-2.203-6.084-6.765-6.084-4.17 0-6.962 1.64-6.962 5.493 0 3.853 2.793 5.493 6.962 5.493 3.166 0 5.565-1.01 6.568-3.433h-3.697zm-6.254-3.147v-.039c0-.247.57-2.27 3.304-2.27 2.537 0 3.265 1.717 3.265 2.27v.039H26.99z" fill="#575759"/><path d="M43.202 26.722l-.59-.763h-4.149l.686.763h4.053zM43.792 27.485h-3.957l.686.763h5.876v.763h-5.19l.275.305 2.255 1.984h4.235l-.696-.763H41.48v-.763h5.099l-.418-.458-2.37-1.831zM45.055 32.826l-.613-.763h4.226l.696.763h-4.309zM45.669 33.951l.828 1.03H51l-.94-1.03h-4.392zM41.403 24.395l.62.801h-4.246l-.72-.8h4.346z" fill="#575759"/><path d="M50.724 24.338h-4.72l-3.835 4.196L36.662 35h4.72l4.13-4.94 5.212-5.722z" fill="#575759"/></svg>