<!-- by TradingView --><svg xmlns="http://www.w3.org/2000/svg" width="56" height="56" viewBox="0 0 56 56"><path fill="#F0F3FA" d="M0 0h56v56H0z"/><path d="m28 9 1.65 2.97a2.1 2.1 0 0 1 0 1.97l-9.83 17.64 4.65 8.32A4.07 4.07 0 0 0 28 42c1.45 0 2.8-.8 3.53-2.1l4.65-8.32-1.22-2.26-5.28 9.45a1.86 1.86 0 0 1-3.3 0l-4.05-7.2 9.13-16.36 1.65 2.96a2.1 2.1 0 0 1 0 1.98l-6.36 11.43L28 33.83l6.93-12.42 4.55 8.15c.7 1.26.7 2.8 0 4.06l-4.62 8.29A7.96 7.96 0 0 1 28 46c-3.96 0-6.14-2.83-6.86-4.1l-4.62-8.28c-.7-1.26-.7-2.8 0-4.06L28 9Z" fill="#E81C1C"/></svg>