<!-- by TradingView --><svg width="56" height="56" fill="none" xmlns="http://www.w3.org/2000/svg"><path fill="#F0F3FA" d="M0 0h56v56H0z"/><path d="M27.5 29.94c0 2.446-2.194 4.06-5.375 4.06-1.37 0-2.948-.25-4.125-.967l.648-1.765c1.18.57 2.532.732 3.83.732 1.65 0 3.022-.695 3.022-1.776 0-1.025-.622-1.754-3.214-2.665C19.87 26.706 19 25.5 19 23.733s1.095-3.734 4.303-3.733c1.293 0 2.665.198 3.771.91l-.59 1.79c-.977-.472-2.104-.7-3.18-.7-1.97-.012-2.304 1-2.304 1.733 0 .732.123 1.483 2.303 2.223 3.005 1.024 4.197 2.048 4.197 3.983zM33 27v2h3v2.419c-.943.455-1.822.581-2.764.581-2.652 0-3.795-1.586-3.736-5 0-3.358 1.263-5 3.738-5 1.324 0 2.553.18 3.735.75l.648-1.859c-1.239-.672-2.917-.891-4.36-.891-3.771 0-5.761 2.504-5.761 7 0 4.495 1.552 7 5.5 7a9.21 9.21 0 004.882-1.443L38 32.5V27h-5zM22.544 15.628l-1.421-1.168L19.288 13c-1.658 1.051-3.197 2.336-4.44 3.854l1.243 1.985a16.602 16.602 0 00-1.776 3.154h1.835c.237-.584.592-1.11.888-1.635 1.362-1.927 3.256-3.62 5.506-4.73z" fill="#868686"/><path d="M22.78 39.92a15.125 15.125 0 01-1.657-.935c-2.072-1.343-3.73-3.153-4.854-5.372l-1.184 1.401-1.48 1.81c1.065 1.636 2.368 3.154 3.907 4.38l2.012-1.226c1.007.7 2.072 1.285 3.197 1.752l.06-1.81z" fill="#589D53"/><path d="M15.203 30.577c-.178-.935-.296-1.869-.296-2.862 0-1.518.237-2.978.71-4.38l-1.835.176-2.308.234c-.296 1.284-.474 2.569-.474 3.912 0 .642.06 1.285.118 1.927l2.31.526a14.044 14.044 0 001.005 3.503l1.303-1.285a9.885 9.885 0 01-.533-1.751z" fill="#3A66A9"/><path d="M33.2 40.387c-.593.175-1.185.35-1.836.467-.947.175-1.894.292-2.9.292-1.54 0-3.02-.234-4.44-.7l.177 1.81.237 2.277c1.302.292 2.605.467 3.966.467.651 0 1.302-.059 1.954-.117l.532-2.277a14.542 14.542 0 003.552-.993L33.2 40.387z" fill="#E69022"/><path d="M41.158 33.114c-.83 1.473-1.835 2.925-3.045 4.12a13.352 13.352 0 01-3.67 2.569l1.42 1.167 1.835 1.46c1.698-1.057 3.126-2.373 4.44-3.854l-1.243-1.985c.71-.993 1.631-2.367 2.105-3.477h-1.842z" fill="#868686"/></svg>