<!-- by TradingView --><svg width="56" height="56" viewBox="0 0 56 56" xmlns="http://www.w3.org/2000/svg"><path fill="#F0F3FA" d="M0 0h56v56H0z"/><path d="M17 13a4 4 0 0 0-4 4v22a4 4 0 0 0 4 4h22a4 4 0 0 0 4-4V17a4 4 0 0 0-4-4H17Zm21.7 3.04c.19.09.3.26.3.46V22h.8c.11 0 .2.09.2.2v2.6a.2.2 0 0 1-.2.2H39v4h.8c.11 0 .2.09.2.2v2.6a.2.2 0 0 1-.2.2H39v4h.8c.11 0 .2.09.2.2v2.6a.2.2 0 0 1-.2.2h-2.6a.2.2 0 0 1-.2-.2v-1.95L31.45 32H29.2a.2.2 0 0 1-.2-.2v-2.1l-2-2-2 2v2.1a.2.2 0 0 1-.2.2h-2.1l-5 5H22v-.8c0-.11.09-.2.2-.2h2.6c.11 0 .2.09.2.2v.8h4v-.8c0-.11.09-.2.2-.2h2.6c.11 0 .2.09.2.2v2.6a.2.2 0 0 1-.2.2h-2.6a.2.2 0 0 1-.2-.2V38h-4v.8a.2.2 0 0 1-.2.2h-2.6a.2.2 0 0 1-.2-.2V38h-5.5a.5.5 0 0 1-.35-.85L22 31.29V29.2c0-.11.09-.2.2-.2h2.1l2-2-2-2h-2.1a.2.2 0 0 1-.2-.2v-2.6c0-.11.09-.2.2-.2h2.6c.11 0 .2.09.2.2v2.1l2 2 2-2v-2.1c0-.11.09-.2.2-.2h2.25l6.72-5.88a.5.5 0 0 1 .54-.08ZM38 32v4h-.45L32 31.15V29.2a.2.2 0 0 0-.2-.2h-2.1l-2-2 2-2h2.1a.2.2 0 0 0 .2-.2v-1.95l6-5.25V22h-.8a.2.2 0 0 0-.2.2v2.6c0 .11.09.2.2.2h.8v4h-.8a.2.2 0 0 0-.2.2v2.6c0 .11.09.2.2.2h.8Z" fill="url(#ao5uxa1op)"/><defs><linearGradient id="ao5uxa1op" x1="14" y1="14.5" x2="41" y2="42" gradientUnits="userSpaceOnUse"><stop stop-color="#2279BC"/><stop offset="1" stop-color="#27335B"/></linearGradient></defs></svg>