<!-- by TradingView --><svg width="56" height="56" viewBox="0 0 56 56" xmlns="http://www.w3.org/2000/svg"><path fill="#F0F3FA" d="M0 0h56v56H0z"/><path fill-rule="evenodd" d="M4 23v.15c.3 0 .41.11.43.17v3.38c0 .15-.29.19-.43.19V27h1.4v-.11c-.26 0-.35-.13-.4-.2v-3.3h.01a.4.4 0 0 1 .34-.16c.54 0 1.03.27 1.03 1s-.35.98-.66.98c-.24 0-.37-.04-.41-.06.04.12.16.21.41.21.26 0 1.28-.25 1.28-1.27 0-.81-.86-1.07-1.24-1.09H4Zm3.56.11V23H10v.58h-.06c0-.12-.07-.34-.3-.34H8.5v1.53h.98c.07-.03.2-.15.2-.37h.14v.94h-.14c0-.12-.05-.34-.2-.34H8.5v1.54c.03.06.13.18.28.18h.88a.5.5 0 0 0 .32-.31h.18L9.8 27H7.56v-.18h.13c.2 0 .31-.15.31-.34v-3.03c0-.19-.11-.34-.3-.34h-.14Zm3.46.03V23h1.75c.35 0 1.05.21 1.05.98 0 .57-.38.9-.74 1.08.37.45 1.07 1.29 1.28 1.49.21.2.32.28.35.29h.31V27h-.66c-.2 0-.46-.21-.56-.32l-1.2-1.46a.55.55 0 0 1-.08.01H12v1.41c.03.07.11.22.36.22V27h-1.31v-.14c.14-.02.43-.1.43-.22v-3.3c0-.06-.1-.2-.46-.2Zm.98 1.91V23.4c.02-.05.1-.16.34-.16.29 0 1 .1 1 .93 0 .84-.73.95-.96.95-.18 0-.33-.04-.38-.06ZM16.37 27h-1.1v-.11c.22 0 .36-.14.4-.2l.49-3.69 1.68 3.1 1.72-3.1c.12 1.1.38 3.37.43 3.6.06.23.27.29.37.29V27h-1.24v-.11c.19 0 .3-.2.33-.29l-.26-2.3-1.45 2.7h-.09l-1.4-2.7c-.08.71-.25 2.2-.25 2.39 0 .18.25.2.37.2V27Zm4.64 0v-.18h.15c.2 0 .36-.15.36-.34V23.5c0-.19-.16-.34-.36-.34h-.15V23h1.47v.16h-.09c-.2 0-.39.15-.39.34v2.98c0 .19.2.34.39.34h.09V27H21Zm23.97-.18V27h1.47v-.18h-.08c-.2 0-.36-.15-.36-.34L46 23.5c0-.19.17-.34.37-.34h.08V23h-1.47v.16h.16c.2 0 .35.15.35.34v2.98c0 .19-.16.34-.35.34h-.16ZM23.84 27h-1.02v-.15c.3 0 .41-.19.43-.28l1.6-3.57 1.6 3.46c.16.37.3.41.35.39h.21V27h-1.4v-.15c.34 0 .36-.19.33-.28l-.44-.95H24l-.42.95c-.08.16-.03.25 0 .28h.26V27Zm.9-3.04.68 1.49h-1.34l.66-1.49ZM37.49 27h1.02v-.15h-.27c-.03-.03-.07-.12 0-.28l.43-.95h1.5l.43.95c.04.1.02.28-.32.28V27h1.4v-.15h-.21c-.05.02-.2-.02-.36-.39L39.51 23l-1.59 3.57c-.02.1-.13.28-.43.28V27Zm2.6-1.55-.68-1.49-.67 1.49h1.35ZM27.35 27v-.18h.14c.13 0 .24-.1.24-.2V23L31 26v-2.65c0-.12-.1-.21-.23-.21h-.15V23h1.07v.14h-.14c-.13 0-.23.1-.23.2V27L28 23.91v2.7c0 .12.08.21.2.21h.23V27h-1.08Zm19.58-.18V27h1.12v-.18h-.24c-.13 0-.24-.1-.24-.2V23.9L51 27v-3.65c0-.12.11-.21.24-.21h.15V23h-1.1v.14h.15c.13 0 .24.1.24.2V26L47.32 23v3.61c0 .12-.1.21-.24.21h-.15ZM34.59 23v.16c.23 0 .41.18.41.4v2.9c0 .22-.18.4-.41.4V27h1.76c.09 0 1.18-.02 1.18-.95 0-.75-.69-1.06-1.04-1.12.2-.08.61-.38.61-.93 0-.82-.74-1-1.11-1h-1.4Zm.96 1.86v-1.61h.33c.25.04.75.3.75.97 0 .85-.93.8-1.08.64Zm-.03.2v1.5c.02.1.14.33.5.33.47 0 1-.2 1-.83 0-.64-.58-1.09-1.5-1Zm6.36 1.77v-.73h.15c0 .6.4.7.85.7.46 0 .83-.18.83-.63 0-.46-.33-.69-.68-.91a2.94 2.94 0 0 0-.24-.14c-.39-.2-.91-.46-.91-1.12 0-.81.85-1 1.23-1 .3 0 .5.07.56.11H44v.68h-.15c-.07-.45-.53-.58-.75-.59-.27 0-.82.13-.82.6 0 .45.55.77.82.88.35.13 1.06.55 1.06 1.18 0 .82-.73 1.14-1.29 1.14a3.2 3.2 0 0 1-1-.17Zm-18.28 2.6h.1l.1-.2H25v3.45c-.03.08-.06.19-.17.19h-.26V33h1.55v-.13h-.33c-.08-.02-.25-.11-.25-.29v-3.36h1.19l.1.21h.1v-.56l-.2.13h-2.84l-.09-.13-.2.56ZM37.05 29v.14c.37 0 .47.14.47.2v3.3c0 .12-.3.2-.44.22V33h1.32v-.14c-.25 0-.37-.15-.4-.22v-1.4h.55l.1-.02 1.18 1.46c.1.1.36.32.56.32h.66v-.16h-.3c-.03-.01-.15-.08-.36-.3-.2-.2-.9-1.03-1.28-1.48.36-.18.74-.5.74-1.08 0-.77-.7-.97-1.05-.98h-1.75Zm.95.4v1.65c.05.02.2.06.38.06.23 0 .95-.1.95-.95 0-.83-.7-.93-1-.93-.22 0-.31.1-.33.16ZM4 29v.14c.37 0 .52.14.52.2v3.3c0 .12-.38.2-.52.22V33h1.4v-.14c-.25 0-.37-.15-.4-.22v-1.4h.55l.1-.02 1.18 1.46c.1.1.36.32.56.32h.67v-.16h-.31a1.4 1.4 0 0 1-.36-.3c-.2-.2-.9-1.03-1.28-1.48.36-.18.75-.5.75-1.08 0-.77-.7-.97-1.06-.98H4Zm1 .4v1.65c.06.02.2.06.39.06.22 0 .95-.1.95-.95 0-.83-.7-.93-1-.93-.23 0-.32.1-.33.16ZM17.62 33H16.6v-.15c.3 0 .41-.19.43-.28l1.6-3.57 1.6 3.46c.16.37.3.41.35.39h.21V33h-1.4v-.15c.34 0 .36-.19.32-.28l-.43-.95h-1.5l-.43.95c-.07.16-.02.25 0 .28h.27V33Zm.9-3.04.68 1.49h-1.34l.66-1.49Zm27.61 2.87v-.73h.15c0 .6.4.7.85.7.46 0 .83-.18.83-.63 0-.46-.32-.69-.67-.91a2.97 2.97 0 0 0-.25-.14c-.39-.2-.9-.46-.9-1.12 0-.81.85-1 1.22-1 .3 0 .5.07.56.11h.35v.68h-.16c-.07-.45-.53-.58-.75-.59-.27 0-.81.13-.81.6 0 .45.54.77.81.88.36.13 1.06.55 1.06 1.18 0 .82-.73 1.14-1.29 1.14a3.2 3.2 0 0 1-1-.17ZM12 31a2 2 0 1 1-4 0 2 2 0 0 1 4 0Zm-.56-.15c.12.99-.44 1.86-1.24 1.95-.8.08-1.53-.66-1.64-1.65-.12-.99.44-1.86 1.24-1.95.8-.08 1.53.66 1.64 1.65Zm2.1-1.85h-1.25v.16c.33 0 .44.1.46.15l1.25 1.9v1.42c0 .17-.25.21-.4.2V33h1.47v-.16c-.34 0-.49-.14-.52-.2V31.2l1.11-1.77a.73.73 0 0 1 .32-.28h.32V29h-.98v.16h.16l-.07.19-.97 1.54a77.9 77.9 0 0 1-1.02-1.45c-.13-.2-.11-.27-.1-.28h.22V29Zm13.7 0h1.25v.16h-.21c-.02 0-.03.08.1.28.12.2.72 1.05 1 1.45l.98-1.54.08-.2h-.17V29h.98v.16h-.31a.73.73 0 0 0-.33.28l-1.1 1.77v1.42c.02.07.17.2.5.2V33h-1.47v-.16c.16 0 .46-.04.46-.2V31.2l-1.3-1.9c-.01-.05-.13-.15-.46-.15V29Zm-6.15 0v.2h.04c.2 0 .36.16.36.35v2.98c0 .2-.16.35-.36.35h-.21V33h2.38l.24-.58h-.17l-.28.38h-.77c-.33 0-.39-.25-.38-.38v-2.89c0-.11.06-.21.15-.27.1-.06.2-.15.2-.26h-1.2Zm12.08.43h-.11l.2-.56.1.13h2.83l.2-.13v.56h-.1l-.1-.21H35v3.34c0 .18.17.26.25.29h.33v.13h-1.54v-.13h.26c.11 0 .19-.14.2-.21v-3.42h-1.24l-.1.21Zm15.37 0h.1l.1-.21H50v3.42c-.02.07-.1.2-.22.2h-.26v.14h1.54v-.13h-.33c-.08-.03-.25-.11-.25-.29v-3.34h1.33l.1.21H52v-.56l-.2.13h-2.96l-.1-.13-.2.56ZM42.38 29H41.1v.18h.08c.2 0 .35.15.35.34v2.3c0 .16.13 1.18 1.71 1.18 1.26 0 1.76-.95 1.77-1.43v-2.05c0-.19.14-.34.34-.34h.1V29h-1.06v.18h.01c.2 0 .36.15.36.34v2.09c0 .26-.42 1.22-1.52 1.22-.88 0-1.19-.67-1.23-1v-2.31c0-.19.16-.34.36-.34h.02V29Z" fill="#6A6A6A"/></svg>