<!-- by TradingView --><svg xmlns="http://www.w3.org/2000/svg" width="56" height="56" viewBox="0 0 56 56"><path fill="#F0F3FA" d="M0 0h56v56H0z"/><path d="M11.17 25c1.24 0 2.33.52 2.33 1.98 0 .68-.55 1.61-1.25 1.75.48.04.93.26 1.25.62.33.35.5.87.5 1.35 0 1.75-1.53 2.3-3.06 2.3H8v-8h3.17ZM9.4 28.22h1.37c.97 0 1.23-.4 1.23-1.01 0-.5-.26-.91-1.4-.91H9.4v1.92Zm0 3.48h1.37c.74 0 1.83-.13 1.83-1.2 0-.85-.64-1.04-1.77-1.04H9.4v2.24ZM20 25v1.3h-3.6v1.9H20v1.3h-3.6v2.2H20V33h-5v-8h5ZM41 25v1.3h-3.6v1.9H41v1.3h-3.6v2.2H41V33h-5v-8h5ZM23.92 25h1.21l3.37 8h-1.6l-.72-1.7h-3.42l-.72 1.7H20.5l3.42-8Zm1.77 5-1.22-3.32L23.26 30h2.43ZM29 31.71l4.3-5.42H29V25h6v1.29l-4.3 5.42H35V33h-6v-1.29ZM42 25h2.78c1.5 0 2.92.63 2.92 2.42 0 1-.6 2.13-1.81 2.4L48 33h-1.72l-1.84-3H43.4v3H42v-8Zm2.56 3.7c.77 0 1.74-.22 1.74-1.28 0-.95-.91-1.12-1.63-1.12H43.4v2.4h1.16Z" fill="#A6192E"/><path d="M16 35h.6v2h2.8v-2h.6v5h-.6v-2.4h-2.8V40H16v-5ZM26.7 35h.88l1.62 3.84L30.82 35h.88v5h-.6v-4.2L29.37 40h-.33l-1.74-4.2V40h-.6v-5ZM33 35h3v.6h-2.4v1.56H36v.6h-2.4v1.64H36v.6h-3v-5ZM39.56 36c-.16-.3-.58-.46-.93-.46-.5 0-.93.23-.93.76s.63.7.93.84c.77.36 1.37.58 1.37 1.46 0 .82-.78 1.4-1.53 1.4-.49 0-1-.08-1.47-.7l.47-.38c.2.34.61.53 1 .49.49.01.92-.3.93-.8.01-.52-.52-.66-1.09-.94-.56-.28-1.2-.6-1.2-1.37.01-.87.69-1.3 1.52-1.3.51 0 .98.13 1.32.54l-.39.46Z" fill="#6D6E71"/><path d="M21.91 20c2.26-2.5 5.12-4 7.49-4 2.76 0 5.24 1.86 6.6 5.82 0 .12-.47.36-.7.41-1.84.53-3.48.77-4.92.77-3.87 0-6.29-1.58-7.01-1.88-.24-.12-1.88 1.23-2.65 1.7-.2.13-.43.18-.68.18-.71 0-1.53-.37-1.96-.59-.05-.03-.08-.06-.08-.1 0-.4.97-.81 1.34-.81.39 0 .38.5.8.5.23 0 .41-.07.58-.21 2.96-2.42 5.42-2.82 7.29-2.79 2.59.05 3.92 1.3 3.99 1.47a11.3 11.3 0 0 0-4-.87c-2.3-.01-3.52.87-3.52.87 2.52.97 5.2 1.53 7.88 1.53 1.04 0 2.08-.24 3.11-.41-2.22-3.07-4.44-4.07-6.43-4.09-2.2-.02-4.42 1.38-6.18 2.5-.24.12-.89.59-1 .53-.05-.02-.07-.08-.07-.16 0-.11.05-.26.12-.37Z" fill="#8DC63F"/><path d="M36 11.54c-.55-.38-2.08-.54-2.97-.54-5.15 0-6.98 4.34-7.03 5.6a6.4 6.4 0 0 1 1.48-.6v-.07c-.06-.53 2.17-3.93 6.2-3.93.45 0 .83-.08 1.32 0-.73 1.01-3.32 3.04-4.18 3.63.49.06.96.19 1.4.37 1.34-.6 3.78-3.5 3.78-4.46Z" fill="#C4DF9B"/><path d="M32.4 12.92c-.52.06-3.48 1.69-3.74 2.35v.12c.45-.07.9-.1 1.35-.12a23.4 23.4 0 0 0 2.38-2.35ZM22 22.88c0 .12.21.12 1 .12h.8c.2 0 .02-.4.2-.88-.36-.18-.65-.3-.83-.42-.58.88-1.17 1.02-1.17 1.18Z" fill="#C4DF9B"/><path d="M26 37.5a2.5 2.5 0 1 1-5 0 2.5 2.5 0 0 1 5 0Zm-2.5 1.9a1.9 1.9 0 1 0 0-3.8 1.9 1.9 0 1 0 0 3.8Z" fill="#6D6E71"/></svg>