<!-- by TradingView --><svg width="56" height="56" xmlns="http://www.w3.org/2000/svg"><path fill="url(#paint0_linear)" d="M0 0h56v56H0z"/><path d="M52 24H4v1h48v-1zM23.68 22.237c-.48 0-.873-.378-.873-.829 0-.45.393-.829.873-.829s.873.378.873.83c0 .45-.393.828-.873.828zM8.713 33.088C5.847 33.088 4 31.838 4 29.903c0-1.891 1.95-3.2 4.742-3.2 2.24 0 4.843.8 4.843 3.069 0 1.978-1.963 3.316-4.872 3.316zm.145-5.745c-2.05 0-3.33 1.018-3.33 2.676 0 1.804 1.73 2.444 3.214 2.444 1.513 0 2.342-.626 2.763-1.15.451-.538.568-1.12.539-1.44V29.845c0-.654-.117-1.207-.713-1.73-.567-.48-1.498-.771-2.473-.771zM17.512 33.088c-.567 0-1.629-.16-2.109-.523l-.116-.088.073-.145c.116-.233.174-.48.218-.713l.029-.145h.32l.044.058c.523.582 1.076.829 1.89.829.873 0 1.557-.466 1.557-1.062 0-.61-.815-.83-1.673-1.062-1.033-.276-2.196-.596-2.196-1.73 0-1.092 1.149-1.804 2.909-1.804.553 0 1.324.116 1.847.422l.16.101-.102.16c-.116.175-.189.364-.276.553l-.087.218h-.32l-.044-.087c-.233-.422-.742-.655-1.396-.655-.8 0-1.397.35-1.397.815 0 .61.83.843 1.717 1.076 1.018.277 2.181.582 2.181 1.659-.014 1.25-1.338 2.123-3.229 2.123zM24 27h-1.018v5.972H24V27zM28.96 33.088c-.568 0-1.63-.16-2.11-.523l-.116-.088.073-.145c.116-.233.174-.48.218-.713l.029-.145h.32l.044.058c.523.582 1.076.829 1.89.829.873 0 1.557-.466 1.557-1.062 0-.61-.815-.83-1.673-1.062-1.033-.276-2.196-.596-2.196-1.73 0-1.092 1.149-1.804 2.909-1.804.552 0 1.323.116 1.847.422l.16.101-.102.16a2.41 2.41 0 00-.262.553l-.087.218h-.32l-.043-.087c-.233-.422-.742-.655-1.397-.655-.8 0-1.396.35-1.396.815 0 .61.829.843 1.716 1.076 1.018.277 2.182.582 2.182 1.659-.03 1.25-1.353 2.123-3.244 2.123zM35 27h1v2.307L39.65 27h1.6l-3.302 2-.843.583c.392.32.8.625 1.207.93.523.408 1.076.83 1.614 1.252l1.062.901v.306h-1.6l-.044-.044c-.32-.32-.567-.553-.843-.756L36 30.048v2.938h-1V27zM47.127 33.088c-2.865 0-4.713-1.25-4.713-3.17 0-1.892 1.95-3.2 4.742-3.2 2.24 0 4.844.8 4.844 3.068 0 1.964-1.964 3.302-4.873 3.302zm.146-5.745c-2.051 0-3.331 1.018-3.331 2.676 0 1.804 1.73 2.444 3.214 2.444 1.513 0 2.342-.626 2.764-1.15.45-.538.567-1.12.538-1.44V29.845c0-.654-.116-1.207-.727-1.73-.553-.48-1.47-.771-2.458-.771z" fill="#FCBD57"/><defs><linearGradient id="paint0_linear" x1="10.418" y1="9.712" x2="68.147" y2="76.017" gradientUnits="userSpaceOnUse"><stop stop-color="#1A1E21"/><stop offset="1" stop-color="#06060A"/></linearGradient></defs></svg>