<!-- by TradingView --><svg xmlns="http://www.w3.org/2000/svg" width="56" height="56" viewBox="0 0 56 56"><path fill="#2D4266" d="M0 0h56v56H0z"/><path d="M40.86 19h-7.48a.7.7 0 0 0-.66.56l-1.45 7.52-.63 3.32-1.48 8.04c-.05.3.15.56.45.56h2.25a.7.7 0 0 0 .66-.56L34.1 30H39c2.69 0 5.1-1.66 5.6-4.42l.32-1.55c.5-2.76-1.36-5.03-4.06-5.03Zm.73 4.69-.38 1.66c-.15.9-1.26 1.65-2.15 1.65h-3.93c-.3 0-.5-.25-.45-.55l.8-3.9a.7.7 0 0 1 .65-.55h4.39c.88 0 1.23.78 1.07 1.69ZM27.99 19.56 25.2 34.12c-.5 2.6-3 4.88-5.59 4.88h-3.48c-2.68 0-4.53-2.3-4.05-5l2.75-14.44a.7.7 0 0 1 .66-.56h2.28c.3 0 .5.25.45.56l-2.8 14.78c-.15.88.04 1.66.94 1.66h5.15l3.1-16.44a.7.7 0 0 1 .65-.56h2.28c.3 0 .5.25.45.56Z" fill="#fff"/></svg>