<!-- by TradingView --><svg width="56" height="56" viewBox="0 0 56 56" xmlns="http://www.w3.org/2000/svg"><path fill="url(#arq55gs2a)" d="M0 0h56v56H0z"/><path d="m50.17 27.06-.59-.34c-1.17-.69-1.35-1.11-1.36-1.74-.02-.77.62-1.31 1.56-1.3 1.03 0 1.48.6 1.66.83 0-.43.1-1.01.13-1.13l-.52-.19a4.39 4.39 0 0 0-1.22-.19c-1.7-.04-2.67 1.03-2.64 2.23.02.8.37 1.54 1.7 2.32l.62.36c1.1.65 1.38 1.1 1.4 1.81.02.86-.53 1.54-1.71 1.57a2.76 2.76 0 0 1-2.13-.88c.02.33-.04.92-.07 1.09.4.25 1.29.52 2.09.5a3.62 3.62 0 0 0 1.87-.53A2.35 2.35 0 0 0 52 29.49c-.02-.86-.33-1.55-1.83-2.43ZM46.1 27.52c-.13.03-.31.04-.63.04l-.54-.01c.06.25.07 1.05.07 1.66v1.45c0 .25-.02.33-.05.35-.32.19-.93.28-1.46.28-.8 0-2.05-.24-2.95-1.23a3.98 3.98 0 0 1-1.04-2.85c0-1.2.49-2.14 1.1-2.7a3.6 3.6 0 0 1 2.44-.83c1.77 0 2.63.52 2.89.83 0-.4.08-.95.12-1.13-.27-.05-1.28-.38-2.66-.38-.77 0-2.08.03-3.25.87a4.16 4.16 0 0 0-1.75 3.57c0 1.33.5 2.4 1.13 3.1a4.9 4.9 0 0 0 3.7 1.46c.97 0 2.03-.16 2.78-.5v-2.02c0-.77.07-1.67.1-1.96ZM36 23.01v6.51c-.9-.83-4.35-5.06-5.42-6.2-.23-.23-.32-.32-.36-.32-.07 0-.22.06-.22.68V32h1s.02-4.6 0-7.06c1.25 1.35 4.1 5.25 5.03 6.2.62.65.83.86.9.86.07 0 .07-.1.07-1.08V23l-1 .01ZM28 26.45c0-1.69.11-3 .15-3.45a6.2 6.2 0 0 1-.7.04c-.14 0-.38 0-.49-.02.08.3.04 1.73.04 3.42v2.1c0 1.56.03 3.06-.02 3.46a8.05 8.05 0 0 1 1.19-.01c-.07-.35-.17-1.93-.17-3.44v-2.1ZM22.14 27.45c-.15.1-.34.14-.68.14-.61 0-1.2-.03-1.43-.08-.02-.01-.03-.04-.03-.1v-3.65c0-.05 0-.08.04-.09.17-.03.5-.04.85-.04 1.34 0 2.13.76 2.13 2.01a2.2 2.2 0 0 1-.88 1.81Zm2.86 3.5c-.8-.88-1.65-2.07-2.4-3.07.94-.66 1.42-1.5 1.42-2.52 0-.85-.43-1.55-1.03-1.93-.5-.32-1.2-.43-1.99-.43h-2.12c.12.39.12 1.75.12 3.44V32h1V28.28c0-.05 0-.07.03-.07.51 0 1.35.02 1.6 0 .05 0 .1.03.15.1.53.72 1.61 2.35 2.25 3 .48.5.77.69 1.3.69.28 0 .59-.04.74-.1a3.9 3.9 0 0 1-1.07-.95ZM14.82 28.33H12.3c-.02 0-.03-.01-.02-.16l1.23-3.4 1.33 3.4c.01.15 0 .16-.02.16Zm-.92-4.85c-.15-.39-.21-.48-.27-.48-.06 0-.12.14-.26.48l-2.23 5.74A69.75 69.75 0 0 1 9.97 32l1.05-.01c.14-.55.66-1.93 1-2.95.02-.02.03-.04.06-.04h2.98c.03 0 .03.02.04.04.39.95 1 2.42 1.19 2.96l1.25-.01c-.29-.46-.92-1.98-1.43-3.23l-2.2-5.28ZM6.38 31.35c-.66 0-1.22-.11-1.34-.23-.03-.05-.04-.56-.04-2.6v-1.01c0-.03.1-.04.14-.05.1-.01.65-.01 1.02.01.48.03.97.1 1.38.44.65.5.76 1.05.76 1.58 0 1.28-.94 1.86-1.92 1.86ZM5 23.75c0-.03.1-.05.12-.06.09-.03.35-.05.74-.05 1.17 0 1.77.67 1.77 1.67a1.7 1.7 0 0 1-.7 1.4c-.15.1-.24.11-.45.11-.18 0-1.12 0-1.34-.02-.04-.01-.14-.04-.14-.06v-2.98Zm2.44 3.23c.5-.29 1.12-.91 1.12-1.9 0-.87-.49-2.08-2.46-2.08-.58 0-1.15.06-1.58.06a7.4 7.4 0 0 1-.52-.02v5.48c0 1.53.03 3.43.03 3.43.18-.02.5-.04.68-.03.26 0 .82.08 1.62.08 2.05 0 3.02-1.3 3.02-2.65 0-1.35-.93-2.08-1.9-2.37Z" fill="#fff"/><path d="M52 35 4 36l1.12-1H52Z" fill="#00953B"/><path d="M52 34 4 33l1.12 1H52Z" fill="#276092"/><defs><linearGradient id="arq55gs2a" x1="28" y1="0" x2="28" y2="56" gradientUnits="userSpaceOnUse"><stop stop-color="#002653"/><stop offset="1" stop-color="#011935"/></linearGradient></defs></svg>