<!-- by TradingView --><svg width="56" height="56" viewBox="0 0 56 56" xmlns="http://www.w3.org/2000/svg"><path fill="#F0F3FA" d="M0 0h56v56H0z"/><path d="M28.51 18.9c0 .09.03.13.11.13l.78-.01c.08 0 .13-.04.14-.12l.03-.2c.35-2.96.8-5.16 1.35-6.62a.12.12 0 0 1 .12-.08c.13 0 .26 0 .38.04A16.87 16.87 0 0 1 45 28.9c0 .3-.04.3-.11.02a7.7 7.7 0 0 0-.68-1.76c-1.69-3.17-4.5-4.98-8.47-5.44a17.2 17.2 0 0 0-10.82 2.14c-.04.03-.08.02-.1-.01-.28-.34-.57-.65-.89-.96a48.6 48.6 0 0 1-2.24-2.33c-1.39-1.55-1.55-3.26-.48-5.13a5.43 5.43 0 0 1 4.87-2.56c.87.06 1.54.4 2.01 1.01.44.57.65 1.3.63 2.17-.03.93-.1 1.88-.2 2.85Z" fill="#F79621"/><path d="m21.2 13.08.03.01.02.04a8.02 8.02 0 0 0-3.44 4.57c-.26.87-.23 1.82.08 2.84A6 6 0 0 0 19.3 23c.94.97 1.87 1.91 2.8 2.81.08.07.08.14 0 .21a13.02 13.02 0 0 0-3.22 5.07 11.5 11.5 0 0 0-.58 3.32c-.02.44.04.89.16 1.33.02.09-.02.14-.1.15a4.53 4.53 0 0 1-2.76-.33 3.09 3.09 0 0 1-1.7-2.06 48.5 48.5 0 0 0-.44-1.52c-.15-.47-.43-.8-.85-.98a1.2 1.2 0 0 0-1.27.13c-.1.06-.15.04-.16-.08-.68-5.14.61-9.64 3.9-13.5a17.27 17.27 0 0 1 6.11-4.47Z" fill="#F79621"/><path d="M33.08 24.56c-1.67.4-3.25.68-4.74.8-.04.01-.07.03-.07.07l-.17.72c-.01.03 0 .04.03.03 1-.18 1.39.2 1.17 1.13-.76 3.16-1.65 6.67-2.69 10.52-.43 1.61-.96 3.08-1.6 4.41a1.9 1.9 0 0 1-1.63 1.13l-1.36.12c-.16 0-.24.09-.24.24a.3.3 0 0 1-.1.23.12.12 0 0 1-.13.03 17.06 17.06 0 0 1-8.6-7.66c-.06-.12-.03-.15.1-.08 1.56.88 3.47 1.15 5.7.8.08-.02.13.01.16.08.71 1.53 1.54 2.38 2.47 2.54.65.1 1.1-.14 1.33-.74.25-.6.06-1.07-.55-1.4a7.9 7.9 0 0 1-1.33-.88c-.07-.06-.06-.1.02-.13 3.47-1.25 5.55-3.34 6.24-6.27a5.91 5.91 0 0 0-1.44-5.4c-.04-.04-.03-.08.02-.12a13.62 13.62 0 0 1 6.8-1.86c3.6-.03 6.23 1.37 7.9 4.2a10.21 10.21 0 0 1 1.24 5.71c-.11 2.62-.91 4.88-2.4 6.78a10.05 10.05 0 0 1-6.15 3.74c-1.82.36-3.66.35-5.52-.04-.07-.01-.09-.05-.05-.11a32.51 32.51 0 0 0 2.9-8.06c.53-2.27 1.06-4.44 1.56-6.51.29-1.18.7-2.5 1.21-3.93.03-.08 0-.1-.08-.09Z" fill="#79A141"/><path d="M23.68 27.94c.77 1.5.75 2.97-.07 4.45a7.2 7.2 0 0 1-3.46 3.04c-.12.05-.2.02-.23-.1a6.5 6.5 0 0 1 .36-4.54c.57-1.41 1.44-2.71 2.6-3.9.05-.07.1-.06.16 0 .24.33.45.68.64 1.05Z" fill="#79A141"/></svg>