<!-- by TradingView --><svg xmlns="http://www.w3.org/2000/svg" width="56" height="56" viewBox="0 0 56 56"><path fill="#F0F3FA" d="M0 0h56v56H0z"/><path fill-rule="evenodd" d="M5.92 24l-1.81 5h1.88l.73-2h2.4l.42-1H7.09l.37-1h3.06l.4-1h-5zm19.23 5h-1.4l1.26-4h3.23c.53 0 .92.55.78 1.1l-.01.06c-.05.2-.29.67-.8.83.1.25.25 1-.05 2.01h-1.62c.13-.37.35-1.11.17-1.15a7.92 7.92 0 0 0-1.13 0L25.15 29zm.7-2.33l.27-.67h1.02c.24 0 .4.28.28.5a.3.3 0 0 1-.28.17h-1.3zm2.8 2.33h3.89l.34-1h-2.57l.23-.65h2l.26-.84h-1.97L31 26h2.34l.32-1h-3.59l-1.43 4zm14.96 0h3.9l.34-1h-2.57l.22-.65h2l.27-.84h-1.98L46 26h2.34l.3-1h-3.6l-1.42 4zm-10.25 0l1.82-5h5l-.45 1h-3.06l-.36 1h2.48l-.42 1h-2.42l-.7 2h-1.89zM10.8 25l-.8 2.61c-.22.69.27 1.39.95 1.39h1.38c.87 0 1.63-.57 1.92-1.42L15.1 25h-1.34l-.83 2.42a.81.81 0 0 1-.77.56h-.15c-.41 0-.7-.42-.58-.83l.68-2.15H10.8zm8.11 2.61l.81-2.61h1.32l-.67 2.15c-.13.41.16.83.57.83h.16c.34 0 .64-.22.76-.56l.83-2.42h1.34l-.86 2.58A2.04 2.04 0 0 1 21.25 29h-1.38c-.7 0-1.18-.7-.97-1.39zM40.05 25l-.82 2.61c-.2.69.28 1.39.97 1.39h1.38c.86 0 1.63-.57 1.91-1.42l.87-2.58h-1.34l-.84 2.42a.81.81 0 0 1-.76.56h-.15c-.42 0-.71-.42-.58-.83l.68-2.15h-1.32zm-24.87 1l.43-1h3.85l-.39 1h-1.2l-1 2.72h-1.43L16.6 26h-1.42zm35.63-1h-1.3l-1.25 4h3.47c.12-.35.38-1 .38-1h-2.26l.96-3z"/><path d="M15 30h37v.5H15z"/><ellipse cx="5.75" cy="30.74" rx=".75" ry=".74" fill="#B1B5B6"/><ellipse cx="5.64" cy="30.6" rx=".35" ry=".34" fill="#fff"/><ellipse cx="6.85" cy="31.54" rx=".75" ry=".74" fill="#914746"/><ellipse cx="6.5" cy="33.48" rx=".75" ry=".74" fill="#969696"/><ellipse cx="7.82" cy="34.69" rx=".75" ry=".74" fill="#968E99"/><ellipse cx="7.48" cy="36.36" rx=".75" ry=".74" fill="#AFB7B5"/><ellipse cx="8.46" cy="31.62" rx=".75" ry=".74" fill="#ACB3BB"/><ellipse cx="7.82" cy="32.59" rx=".75" ry=".74" fill="#040000"/><ellipse cx="9.71" cy="37.26" rx=".75" ry=".74" fill="#B3A9AA"/><ellipse cx="10.18" cy="36.52" rx=".75" ry=".74" fill="#B26167"/><ellipse cx="11.21" cy="32.74" rx=".75" ry=".74" fill="#AD4343"/><ellipse cx="12.25" cy="33.48" rx=".75" ry=".74" fill="#9AA39E"/><path d="M7.62 32.42c.14-.18.41-.2.6-.06l1.18.95c.18.14.21.4.07.58a.43.43 0 0 1-.6.07L7.68 33a.41.41 0 0 1-.06-.59z" fill="#ACB3BB"/><ellipse cx="9.52" cy="33.86" rx=".75" ry=".74" fill="#080D10"/><ellipse cx="10.27" cy="34.63" rx=".75" ry=".74" fill="#9FACAA"/><path d="M9.58 33.75c.2.1.3.36.19.56l-.68 1.35c-.1.21-.36.3-.57.2a.42.42 0 0 1-.2-.57l.69-1.35c.1-.2.36-.29.57-.19z" fill="#ACB3BB"/><ellipse cx="8.77" cy="35.43" rx=".75" ry=".74" fill="#0E1315"/><ellipse cx="6.72" cy="31.39" rx=".35" ry=".34" fill="#fff"/><ellipse cx="8.35" cy="31.39" rx=".35" ry=".34" fill="#fff"/><ellipse cx="6.45" cy="33.29" rx=".35" ry=".34" fill="#fff"/><ellipse cx="11.15" cy="32.59" rx=".35" ry=".34" fill="#fff"/><ellipse cx="12.13" cy="33.27" rx=".35" ry=".34" fill="#fff"/><ellipse cx="7.67" cy="34.46" rx=".35" ry=".34" fill="#fff"/><ellipse cx="8.58" cy="35.15" rx=".35" ry=".34" fill="#fff"/><ellipse cx="10.27" cy="34.39" rx=".35" ry=".34" fill="#fff"/><ellipse cx="10.02" cy="36.27" rx=".35" ry=".34" fill="#fff"/><ellipse cx="7.32" cy="36.12" rx=".35" ry=".34" fill="#fff"/></svg>