<!-- by TradingView --><svg xmlns="http://www.w3.org/2000/svg" width="56" height="56"><path fill="#F0F3FA" d="M0 0h56v56H0z"/><path fill-rule="evenodd" d="M29 34.58c3.06-.29 4.35-2.56 5-3.71l.12-.2-1.5-.89-.11.18c-.64 1.11-1.5 2.59-3.51 2.85V28h-2.85l3.04-10.7C31.99 18.33 38 21.67 38 27c0 6.63-4.17 11-9 11v-3.42zm0 0a8.77 8.77 0 01-7.17-2.6l1.33-1.14A7.07 7.07 0 0029 32.81v1.77zm-5.35-18.11l3.4-5.47 3.24 5.47 6-3.55-.74 6.76 7.68-.73-4.4 6.26L46 28.25l-8.03 3 5.26 6.93-8.6-1.58 1.32 7.27-7.33-4.85L25.79 45l-2.14-6.43-5.6 3.22 1.44-6.38-6.53.68 4.5-5.47L11 28.25l5.72-3.04-3.76-4.85h6.53l-1.44-5.92 5.6 2.03zM26 23a1 1 0 11-2 0 1 1 0 012 0zm5 1a1 1 0 100-2 1 1 0 000 2z"/></svg>