<!-- by TradingView --><svg xmlns="http://www.w3.org/2000/svg" width="56" height="56" viewBox="0 0 56 56"><path fill="#F0F3FA" d="M0 0h56v56H0z"/><path d="M43.58 19.45l.65.86c.07.05.28.14.56.11.35-.03.85-.13 1.7-.63.68-.4 1.1-.87 1.22-1.06V18h-.75c-.19.23-.7.75-1.24 1-.68.33-1.35.64-2.14.45zM41 18.4v1.14c1.04-.66 1.82-.5 2.08-.34-.24-.5-.65-.91-1.07-.94-.33-.02-.81.09-1.01.14zm0 3.6v-1.15c.5-.49 1.47-.96 2.13-.96.65 0 1.06.7 1.19 1.05-.2-.14-.77-.36-1.44-.15-.66.22-1.53.9-1.88 1.2zm0 3v-1.5l.23-.23c.69-.7 1.75-1.8 2.88-1.7 0 0 .6-.03 1.23.95-.32-.18-1.2-.3-2.2.35A8.27 8.27 0 0 0 41 25zm4.36-2.96l-.65-.87c.78.2 1.46-.11 2.14-.44a4.22 4.22 0 0 0 1.24-1h.75v.73c-.12.18-.54.66-1.22 1.06-.86.5-1.35.6-1.7.63a.88.88 0 0 1-.56-.11zm.5.83l.66.87c.07.05.28.14.56.1.35-.03.85-.13 1.7-.63.68-.4 1.1-.87 1.22-1.05v-.73h-.75c-.19.22-.7.75-1.24 1-.68.33-1.35.64-2.14.44z" fill="#2DAD6E"/><path fill-rule="evenodd" d="M31 26v-.93c0-1.16.97-2.1 2.16-2.1h.24c.2.01.7.06 1.1.23l-.14 1.44a2.97 2.97 0 0 0-.81-.16c-.36 0-.79.32-.79 1.45V26H34v1.5h-1.24v3.48H31V27.5h-1V26h1zm-4-3h-1v8h1v-8zm-4.38 7.98a2.3 2.3 0 0 1-1.62-.67V33h-.75v-7H21v.67c.42-.41 1-.67 1.63-.67A2.43 2.43 0 0 1 25 28.5c0 1.37-1.06 2.48-2.38 2.48zm0-.67c-.9 0-1.62-.78-1.62-1.76 0-.97.72-1.75 1.62-1.75.89 0 1.61.78 1.61 1.75 0 .98-.72 1.76-1.61 1.76zM8.5 31c.82 0 1.54-.4 2-1v1h.5v-5h-.5v1a2.5 2.5 0 1 0-2 4zm0-.5a2 2 0 1 0 0-4 2 2 0 0 0 0 4zm4-4.5H12v5h.5v-3.03c.1-.83.63-1.48 1.46-1.48.78 0 1.15.67 1.27 1.09V31h.52v-3.27c.31-.82.8-1.24 1.53-1.24.81 0 1.12.74 1.2 1.17V31H19v-3.38c-.04-.61-.42-1.62-1.72-1.62-.51 0-1.49.35-1.67 1.05-.12-.36-.53-1.05-1.65-1.05-.74 0-1.2.5-1.46 1v-1zM28 31v-5h1.5v5H28zm.75-6.5a.75.75 0 1 0 0-1.5.75.75 0 0 0 0 1.5zM34.5 26l2 4.47L35.2 33h2.13l3.17-7h-2.21l-.7 2.33-.85-2.33H34.5zM8.34 33.13V33c0-.55-.42-1-.95-1a.98.98 0 0 0-.96 1c0 .55.5 1 1.03 1 .34 0 .78-.04.85-.4l-.35-.05c-.05.18-.27.18-.44.18h-.06c-.33 0-.67-.24-.72-.6h1.6zm-.95-.9c.32 0 .59.27.65.62h-1.3c.06-.35.33-.62.65-.62zm5.44.77v.13h-1.6c.04.36.39.6.72.6H12c.18 0 .4 0 .45-.18l.35.05c-.07.36-.52.4-.85.4-.53 0-1.03-.45-1.03-1s.43-1 .95-1c.53 0 .96.45.96 1zm-.3-.15c-.07-.35-.33-.62-.66-.62-.32 0-.59.27-.65.62h1.3zm-3.43-.11c.08-.2.26-.47.6-.47.4 0 .51.33.52.49v1.2h.25v-1.38c-.01-.19-.18-.58-.78-.58h-.02a.77.77 0 0 0-.57.36v-.34h-.32V34h.32v-1.26zm5.14-.74c.08 0 .15 0 .21.02v.29a.6.6 0 0 0-.2-.04c-.34 0-.52.26-.6.47V34h-.32v-1.98h.32v.34a.77.77 0 0 1 .57-.36h.02zm1.38 2.06c.3 0 .56-.13.74-.34v.53c0 .18-.16.55-.76.55-.15 0-.48-.05-.62-.18l-.1.24c.12.05.4.14.73.14.41 0 1.01-.26 1.01-.78V32h-.26v.33a.99.99 0 0 0-.74-.33c-.55 0-1 .46-1 1.03 0 .57.45 1.03 1 1.03zm.04-.25c.39 0 .7-.35.7-.78 0-.43-.31-.78-.7-.78-.4 0-.71.35-.71.78 0 .43.31.78.7.78zM17.14 32h.32l.7 1.49.67-1.49h.33l-1.36 3h-.34l.5-1.17-.82-1.83z" fill="#273C4E"/></svg>