<!-- by TradingView --><svg width="56" height="56" viewBox="0 0 56 56" xmlns="http://www.w3.org/2000/svg"><path fill="#F0F3FA" d="M0 0h56v56H0z"/><path d="M46.77 33v-.4l.24-.03c1.04-.17.99-.79.99-1.73v-.9l-1.72-3.46c-.22-.46-.44-.9-.98-1.01l-.3-.07V25h3.29v.4l-.4.03c-.5.05-.75.45-.54.9l1.53 2.95 1.37-3.06c.05-.1.08-.21.08-.32 0-.31-.34-.45-.6-.47l-.35-.03v-.38H52v.38l-.33.03c-.52.05-.81.4-1.06.94L49 29.64v1.2c0 .96.26 1.57 1.33 1.73l.25.03v.4h-3.81ZM38 33v-.4l.23-.03c.77-.07.77-.75.77-1.72v-3.7c0-.93 0-1.65-.75-1.72L38 25.4V25H44v2h-.3c-.28-1.03-1-1.51-2.08-1.51h-1.61v3.19h1.47c.6 0 .6-1 .62-1.39h.3v3.33h-.3c0-.44.02-1.62-.67-1.62h-1.42v2.6c0 .62.6.91 1.22.91h.95c.38 0 .66-.08.84-.24.49-.4.67-1.18.78-1.77h.2V33h-6ZM31 33v-.4l.23-.03c.77-.07.77-.81.77-1.72v-3.7c0-.87 0-1.65-.77-1.72L31 25.4V25h3.27v.4l-.23.03c-1.02.13-1.04.85-1.04 1.72v3.73c0 .7 0 1.63.91 1.63h.8c.56 0 1.23-.2 1.48-.6.26-.42.42-1.13.48-1.91H37v3h-6ZM18.02 33A4.05 4.05 0 0 1 14 29.02c0-2.2 1.82-4.02 4.02-4.02 2.21 0 3.98 1.83 3.98 4.02A4.1 4.1 0 0 1 18.02 33Zm0-.5c1.95 0 2.98-1.76 2.98-3.48 0-1.78-.97-3.52-2.98-3.52-1.98 0-3.02 1.71-3.02 3.52 0 1.71 1.1 3.48 3.02 3.48ZM9.02 33A4.81 4.81 0 0 1 4 28.02 5.06 5.06 0 0 1 9.11 23c.62 0 1.13.06 1.53.2a7.65 7.65 0 0 1 1.29.45c.11.04.19.06.23.06.11 0 .2-.04.27-.11.08-.08.1-.41.13-.6H13v3.37h-.43a3.59 3.59 0 0 0-1.1-2.19 3.35 3.35 0 0 0-2.31-.77C6.52 23.4 5 25.7 5 28.02c0 2.42 1.44 4.57 4.16 4.57a3.29 3.29 0 0 0 2.9-1.5c.31-.45.5-.95.56-1.5h.36L13 33h-.41v-.3c-.04-.12-.1-.23-.16-.33-.05-.1-.14-.16-.27-.16a.8.8 0 0 0-.26.06l-.32.13c-.27.12-.62.25-1.04.4-.43.13-.94.2-1.52.2ZM26.86 25c1.3 0 2.73.62 2.73 2.13 0 1.68-1.62 2.29-3.09 2.29l-1 .01v-.41l1-.02c1.14 0 2-.7 2-1.87 0-1.16-.66-1.66-1.64-1.66l-1.86.02v5.38c0 1.04.18 1.54 1.25 1.7l.34.03v.4H22.5v-.4l.34-.03c1.07-.16 1.16-.7 1.16-1.72v-3.7c0-1-.07-1.6-1.14-1.72l-.36-.03V25h4.36Z" fill="#324E2E"/></svg>