<!-- by TradingView --><svg xmlns="http://www.w3.org/2000/svg" width="56" height="56"><path fill="#F0F3FA" d="M0 0h56v56H0z"/><path fill-rule="evenodd" d="M39.77 19.3c-.5 0-.9.4-.9.9v.9c0 .5.4.9.9.9h1.8c.5 0 .9-.4.9-.9v-.9c0-.5-.4-.9-.9-.9h-1.8zm.31.7a.4.4 0 00-.4.4v.5c0 .22.18.4.4.4h1.18a.4.4 0 00.4-.4v-.5a.4.4 0 00-.4-.4h-1.18zm8.02-.7h-2.66V22h2.66c.5 0 .9-.4.9-.9v-.9c0-.5-.4-.9-.9-.9zm-.3.7h-1.56v1.3h1.56a.4.4 0 00.4-.4v-.5a.4.4 0 00-.4-.4z" fill="#9FB489"/><path d="M6 20.4c0-.5.4-.9.9-.9h1.24c.5 0 .9.4.9.9h-.37v-.08a.5.5 0 00-.5-.5h-1.3a.5.5 0 00-.5.5v.86c0 .27.23.5.5.5h1.3a.5.5 0 00.5-.5v-.11h.37v.03c0 .5-.4.9-.9.9H6.9a.9.9 0 01-.9-.9v-.7z" fill="#474F28"/><path d="M43.56 19.3h-.72V22H45v-.7h-1.44v-2zm-7.66 0c-.5 0-.9.4-.9.9v.9c0 .5.4.9.9.9h1.59c.5 0 .9-.4.9-.9v-.63H36.6V21h1.03a.4.4 0 01-.38.3h-1.03a.4.4 0 01-.4-.4v-.5c0-.22.18-.4.4-.4h1.03a.4.4 0 01.35.2h.79c0-.5-.4-.9-.9-.9H35.9z" fill="#9FB489"/><path d="M10.58 19.5c-.5 0-.9.4-.9.9v.7c0 .5.4.9.9.9h1.35a.9.9 0 00.9-.8h-.39a.5.5 0 01-.5.48h-1.37a.5.5 0 01-.5-.5v-.86c0-.27.22-.5.5-.5h1.37c.28 0 .5.23.5.5v.16h-2.37v.36h2.76v-.44c0-.5-.4-.9-.9-.9h-1.35z" fill="#474F28"/><path fill-rule="evenodd" d="M21.9 19.5c-.5 0-.9.4-.9.9v.7c0 .5.4.9.9.9h1.35a.9.9 0 00.9-.8h-.4a.5.5 0 01-.5.48H21.9a.5.5 0 01-.5-.5v-.34h2.75v-.44c0-.5-.4-.9-.9-.9H21.9zm1.86.98v-.16a.5.5 0 00-.5-.5h-1.37a.5.5 0 00-.5.5v.16h2.37z" fill="#474F28"/><path d="M14 19.85a.9.9 0 01.71-.35h1.02c.5 0 .9.4.9.9V22h-.37v-1.68a.5.5 0 00-.5-.5H14.5a.5.5 0 00-.5.5V22h-.37v-2.46H14v.31zm6 1.55v-.54h-.34v.41a.4.4 0 01-.4.4h-.53a.4.4 0 01-.4-.4v-1.35h1.6v-.35h-1.6V19h-.46v.57h-.5v.35h.5v1.48c0 .33.27.6.6.6h.93a.6.6 0 00.6-.6zm5.39-1.08V22H25v-2.46h.39v.3a.9.9 0 01.7-.34h.64c.5 0 .9.4.9.9v.3h-.4v-.38a.5.5 0 00-.5-.5h-.84a.5.5 0 00-.5.5zm3.44 0V22h-.39v-2.46h.39v.3a.9.9 0 01.7-.34h.65c.5 0 .9.4.9.9v.3h-.41v-.38a.5.5 0 00-.5-.5h-.84a.5.5 0 00-.5.5zm4.72-.82c.44 0 .8.36.8.8V22h-.43v-.2a.7.7 0 01-.49.2h-1.2a.7.7 0 01-.69-.7v-.16c0-.39.31-.7.7-.7h1.19a.7.7 0 01.49.2v-.32a.5.5 0 00-.5-.5h-.96a.5.5 0 00-.5.5h-.42v-.02c0-.44.35-.8.8-.8h1.2zm.37 1.63a.4.4 0 00-.4-.32h-1.2a.4.4 0 00-.4.4v.01c0 .22.17.4.4.4h1.2a.4.4 0 00.4-.32v-.17z" fill="#474F28"/><path d="M8.96 25h2.88l1.39 2.43H16l1.44 2.5L16 32.41h-2.88L11.73 30H8.96l-1.44-2.49L8.96 25zm17.84 0h2.86l1.43 2.5-1.43 2.5H26.8l-1.43-2.5L26.8 25zm-10.78 9h2.88l1.44 2.52L18.9 39h-2.88l-1.44-2.48L16.02 34zm17.12-2h-2.88l-1.44 2.5 1.44 2.5h2.88l1.44-2.5-1.44-2.5zm10.62-4.52l-1.38 2.38 1.38 2.39-1.43 2.47H39.5l-1.37-2.38h-2.77l-1.42-2.47 1.42-2.47h2.75l1.38-2.4h2.85l1.43 2.48zM45.75 36h-2.89l-1.44 2.5 1.44 2.5h2.89l1.44-2.5-1.44-2.5z" fill="#9FB489"/></svg>