<!-- by TradingView --><svg width="56" height="56" viewBox="0 0 56 56" xmlns="http://www.w3.org/2000/svg"><path fill="#F0F3FA" d="M0 0h56v56H0z"/><path d="M20.04 40C12.94 40 7 34.58 7 28s5.94-12 13.04-12c5.17 0 9.64 2.92 11.69 7H33c-2.11-4.7-7.12-8-12.96-8C12.29 15 6 20.82 6 28s6.29 13 14.04 13c5.84 0 10.85-3.3 12.96-8h-1.27c-2.05 4.08-6.52 7-11.7 7Z"/><path d="m14.38 27.45-.9-.13c-.4-.07-.7-.2-.88-.39a.86.86 0 0 1-.27-.61c0-.38.14-.67.4-.86.25-.18.57-.27.95-.27.73.01 1.4.21 2 .6l.69-.98a4.65 4.65 0 0 0-2.63-.81 2.8 2.8 0 0 0-1.93.64c-.47.42-.7.97-.7 1.66 0 .57.18 1.06.55 1.46.36.39.9.64 1.6.75l1.06.15c.71.12 1.07.47 1.06 1.06-.02.71-.55 1.08-1.6 1.1-.9-.01-1.66-.28-2.3-.8l-.8.9c.85.72 1.88 1.08 3.08 1.08 1.86-.02 2.84-.99 2.84-2.3a2.2 2.2 0 0 0-.54-1.46c-.36-.43-.92-.7-1.68-.8ZM21.29 26.42a3.5 3.5 0 0 0-1.87-.42c-.93-.01-1.63.27-2.1.85l.98.71c.26-.4.74-.56 1.18-.56.86-.01 1.28.34 1.27.86v.62h-1.73c-.66 0-1.16.18-1.5.5-.35.33-.52.74-.52 1.23 0 1.2 1.13 1.78 2.2 1.79.85 0 1.3-.19 1.53-.59h.02V32H22v-4.07c0-.71-.25-1.22-.71-1.51Zm-.53 3.45c0 .92-.6 1.14-1.4 1.13-.46 0-1.18-.25-1.18-.84-.01-.46.35-.7 1.08-.71h1.5v.42ZM23.82 24.36c-.3.25-.46.65-.46 1.2V26h-.58v1h.58v5h1.16v-5h1.16v-1h-1.16v-.45c-.02-.33.15-.49.5-.48h.66V24h-.75c-.45 0-.82.12-1.11.36ZM28.58 26C26.85 26 26 27.53 26 29.02c0 1.57.95 2.98 2.77 2.98.87 0 1.62-.3 2.26-.95l-.91-.73c-.4.39-.86.68-1.37.68-.9 0-1.5-.72-1.5-1.55h3.9v-1.22c-.12-1.3-1.2-2.21-2.57-2.23Zm-1.32 2.48c.04-.75.47-1.48 1.32-1.48.85 0 1.3.73 1.32 1.48h-2.64ZM34.9 26.23a2.1 2.1 0 0 0-1.62.68h-.02V24H32v8h1.26v-3.4c0-.4.12-.7.35-.9.24-.22.54-.32.9-.32s.65.1.88.31c.24.21.35.52.35.92V32H37v-3.79a1.85 1.85 0 0 0-.67-1.48c-.43-.33-.9-.5-1.42-.5ZM41.78 27c-.16-.18-.4-.35-.69-.5a2.92 2.92 0 0 0-1.56-.19 2.28 2.28 0 0 0-1.48.68c-.22.22-.4.48-.5.78-.1.31-.16.76-.16 1.34 0 .58.05 1.02.16 1.33.1.3.28.57.5.8.17.16.41.32.71.46.22.1.47.18.77.21a2.7 2.7 0 0 0 1.95-.44c.12-.08.22-.16.3-.24.24-.22.41-.49.51-.8.1-.3.15-.74.15-1.32 0-.58-.05-1.03-.15-1.34-.1-.3-.27-.56-.52-.77Zm-.63 2.95c-.04.18-.12.34-.24.48-.1.1-.23.2-.4.28a1.48 1.48 0 0 1-1.17 0 1.5 1.5 0 0 1-.42-.28c-.1-.14-.18-.3-.23-.48a3.59 3.59 0 0 1-.07-.84c0-.39.02-.67.07-.85.05-.18.12-.33.23-.46.1-.13.24-.22.42-.3a1.7 1.7 0 0 1 .57-.1c.23 0 .43.03.6.1a.9.9 0 0 1 .4.3c.12.13.2.28.24.45.04.19.06.47.06.87a4 4 0 0 1-.06.83ZM44.38 30.53 44.33 24H43v6.62c0 .5.14.86.43 1.07.28.2.63.31 1.05.31H45v-1h-.21c-.3 0-.4-.2-.4-.46ZM48.74 24v2.88c-.23-.2-.47-.36-.73-.49a2.2 2.2 0 0 0-.89-.18c-.76.02-1.32.27-1.67.74-.18.18-.3.41-.35.7-.07.3-.1.77-.1 1.45 0 .68.03 1.15.1 1.44.06.3.17.55.35.73a2.23 2.23 0 0 0 1.68.73c.66-.01 1.2-.23 1.61-.65V32H50v-8h-1.26Zm-1.23 7c-1.03 0-1.25-1.06-1.25-1.9 0-.84.2-1.85 1.25-1.85 1.02 0 1.23.96 1.23 1.86 0 .83-.19 1.89-1.23 1.89Z"/></svg>