<!-- by TradingView --><svg width="56" height="56" viewBox="0 0 56 56" xmlns="http://www.w3.org/2000/svg"><path fill="#F0F3FA" d="M0 0h56v56H0z"/><path d="M9 26h5.9c5.3-2.3 7.95-3.57 13.6-3.57 5.7 0 8.51 1.27 13.61 3.57H48c-7.3-2.8-12.19-4-19.5-4-7.31 0-12.22 1.2-19.5 4Z" fill="#54B948"/><path d="M49.5 28.57c0-.58.21-.87.7-.87.43 0 .8.2.8.56V30h1v-1.79c0-.74-.57-1.21-1.29-1.21-.53 0-.87.2-1.21.57V26h-1v4h1v-1.43ZM48.2 28c-.05-.35-.21-.54-.52-.72-.3-.18-.7-.28-1.24-.28a2.2 2.2 0 0 0-1.42.4c-.34.28-.5.66-.5 1.15 0 .47.16.83.49 1.08.32.24.79.37 1.4.37.6 0 1.05-.1 1.35-.3.3-.18.46-.3.48-.7h-1.17c0 .26-.46.35-.65.35a.72.72 0 0 1-.55-.21.9.9 0 0 1-.19-.61c0-.3.07-.52.2-.68a.66.66 0 0 1 .54-.24c.25 0 .6.1.64.39h1.13ZM43.26 28.7c0 .2-.07.37-.2.5a.89.89 0 0 1-.57.16.86.86 0 0 1-.42-.08.26.26 0 0 1-.15-.23c0-.15.1-.26.28-.32.18-.07.5-.1.97-.1h.09v.07Zm.03.85c0 .07 0 .13.02.2 0 .06.02.2.05.25h1.05l-.04-.25-.01-.2v-1.46c0-.37-.13-.64-.4-.83-.26-.18-.66-.26-1.23-.26-.58 0-1.01.07-1.3.23-.3.14-.45.46-.5.77h1.15c.02-.12.08-.3.18-.35a1 1 0 0 1 .46-.08c.18 0 .32.04.42.12.1.08.14.2.14.36v.08h-.55c-.46 0-.8.02-1.01.04-.22.03-.38.08-.5.16a.9.9 0 0 0-.46.8c0 .27.1.49.3.64.2.15.5.23.86.23.32 0 .6-.05.84-.13s.41-.2.54-.36v.04h-.01ZM39.58 29.04a.37.37 0 0 1-.2.28.78.78 0 0 1-.42.1.84.84 0 0 1-.56-.18.68.68 0 0 1-.22-.49h2.55v-.1c0-.54-.15-.96-.44-1.23-.3-.28-.73-.42-1.32-.42a2.2 2.2 0 0 0-1.42.4c-.34.28-.5.66-.5 1.15 0 .47.16.83.49 1.08.32.24.78.37 1.38.37.54 0 .97-.08 1.27-.25.3-.16.46-.4.48-.72h-1.1Zm-1.39-.86a.58.58 0 0 1 .22-.43c.13-.1.3-.15.52-.15.21 0 .38.05.5.15.13.1.2.25.2.42H38.2M34.89 28.3c.38 0 .64.03.76.1.11.06.18.17.18.34s-.07.3-.2.36c-.12.07-.37.1-.74.1H34v-.9h.89Zm-.08-1.56c.35 0 .57.04.67.1.11.05.17.16.17.3 0 .17-.06.29-.18.34-.11.07-.33.1-.66.1H34v-.84h.81Zm.23 3.26c.45 0 .78-.04 1-.09.22-.04.4-.11.55-.22.13-.1.24-.22.3-.35.07-.14.11-.3.11-.48 0-.3-.09-.53-.27-.69a1.2 1.2 0 0 0-.77-.28c.31-.06.53-.17.67-.3a.74.74 0 0 0 .2-.56 1 1 0 0 0-.16-.55.84.84 0 0 0-.44-.35 1.75 1.75 0 0 0-.44-.1 7.53 7.53 0 0 0-.76-.03H33v4h2.04ZM29 30v-1.48c0-.28.07-.5.2-.64s.43-.21.7-.21c.2 0 .36.05.46.15.1.1.16.25.16.44V30h1.14v-1.8c0-.37-.12-.66-.34-.87a1.3 1.3 0 0 0-.94-.33 2.05 2.05 0 0 0-1.37.54L29 27.3l-.02-.31h-1.04l.03.38c.01.1.03.23.03.38V30h1ZM25.66 30a2.6 2.6 0 0 0 1.53-.37c.34-.25.51-.62.51-1.12 0-.5-.17-.86-.51-1.12-.34-.25-.84-.39-1.5-.39-.64 0-1.13.13-1.47.38-.34.26-.52.63-.52 1.11 0 .5.17.86.5 1.12.34.26.82.39 1.46.39Zm.05-.64c-.27 0-.46-.07-.6-.22-.14-.16-.21-.38-.21-.67 0-.28.07-.5.22-.66a.78.78 0 0 1 .6-.24c.25 0 .44.08.6.25.14.16.22.38.22.65 0 .28-.08.5-.22.65a.83.83 0 0 1-.6.24Z"/><path d="m23 26-.29.13c-.08.04-.16.06-.23.08l-.48.19v.6h-.8v.7h.8v1.38c0 .31-.02.54.19.69.2.15.53.22.98.22.13 0 .25 0 .37-.02.12 0 .24-.03.36-.05v-.71l-.28.01-.18.01c-.17 0-.3-.02-.36-.08-.07-.06-.08-.17-.08-.31V27.7h.9V27H23v-1ZM21 30v-4h-1v4h1ZM18.44 30h1.13v-3h-1.13v3Zm-.04-3.37h1.22V26H18.4v.63ZM13.37 29.97V28.5c0-.29.05-.5.18-.64.12-.14.3-.2.54-.2.18 0 .31.04.42.14.1.1.15.23.15.4V30h1.1v-1.5c0-.29.06-.5.17-.64.12-.14.3-.2.54-.2.18 0 .32.04.42.14.1.1.11.23.11.41V30h1.05v-1.75c0-.4 0-.71-.22-.92a1.34 1.34 0 0 0-.96-.33c-.25 0-.49.05-.7.15-.2.1-.37.25-.5.46a.88.88 0 0 0-.4-.46c-.17-.1-.4-.15-.67-.15-.24 0-.46.05-.67.14-.2.1-.38.22-.55.4l-.03-.23-.03-.31h-1.1l.02.38.01.38V30h1.12v-.03ZM10.83 28.7c0 .2-.06.37-.2.5a.89.89 0 0 1-.57.16.86.86 0 0 1-.42-.08.26.26 0 0 1-.14-.23c0-.15.1-.26.27-.31.19-.07.5-.1.98-.1h.08v.06Zm.04.85c0 .14.02.34.07.45h1.1a1.6 1.6 0 0 1-.04-.45v-1.46c0-.37-.2-.64-.45-.83-.27-.18-.67-.26-1.24-.26-.58 0-1.01.07-1.3.23-.3.14-.45.46-.49.77h1.15c.02-.12.07-.3.17-.35a1 1 0 0 1 .47-.08c.17 0 .31.04.4.12.1.08.15.2.15.36v.08h-.55c-.46 0-.8.02-1.01.04-.22.03-.38.08-.5.16a.9.9 0 0 0-.46.8c0 .27.1.49.3.64.2.16.5.23.87.23.32 0 .6-.05.83-.13.24-.08.42-.2.54-.36v.04h-.01ZM4 26h1v1.53h2V26h1v4H7v-1.65H5V30H4v-4Z"/></svg>