<!-- by TradingView --><svg xmlns="http://www.w3.org/2000/svg" width="56" height="56" viewBox="0 0 56 56"><path fill="#F0F3FA" d="M0 0h56v56H0z"/><path d="M9 27.61A6.21 6.21 0 0 1 15 21v15H9V27.6z" fill="#01402B"/><path d="M10.17 21H9v1.23c.24-.43.88-1 1.17-1.23zM10.9 21h1.73A6.84 6.84 0 0 0 9 24.86v-1.8A6.72 6.72 0 0 1 10.9 21z" fill="#F34D47"/><path fill="#01402B" d="M17 21h6v15h-6zM26 21h6v15h-6z"/><path fill="#01402B" d="M21.55 26.5H28v4h-6.45zM38.5 21a4.5 4.5 0 1 0 0 9H47v-.95l-2.82-1.66a2.77 2.77 0 0 0-1.4-.39H41a1 1 0 1 1 0-2h6v-4h-8.5z"/><path d="M41 32a1 1 0 1 0 0-2h-1.81c-.68 0-1.32-.24-1.83-.67L34.63 27h8.87a4.5 4.5 0 1 1 0 9H34v-4h7z" fill="#01402B"/></svg>