<!-- by TradingView --><svg width="56" height="56" viewBox="0 0 56 56" xmlns="http://www.w3.org/2000/svg"><path fill="#F0F3FA" d="M0 0h56v56H0z"/><path d="M36.68 26c-.78 0-1.67-.61-2.35-1-2.52-1.4-4.04-2.96-7.09-3-5.43-.07-7.98 4.23-10.67 8.22a20.63 20.63 0 0 1-3.51 4.02c-.4.3-1.04.76-1.6.76-.42 0-.8-.02-1.16-.28-.76-.54-.02-.95-.6-2.18-.45-.98-1.46-2.45-2.6-2.52L6.67 30c-.33 0-.67.07-.67.4 0 .45.86.3 1.47.87.57.54.77 1.16.8 1.73.03.82-.27 1.56-.27 1.88 0 .59.06 1.06.37 1.53a3.37 3.37 0 0 0 3.1 1.59c4.48 0 7.6-5 9.22-5 .31 0 .31.14.31.5 0 .1-.17 1.34-.28 1.86a14.1 14.1 0 0 0-.34 2.42c0 .25 1.12.22 1.48.22.64 0 1.57-.01 2.37-.08 0-.71-.21-1.1-.23-1.71-.01-.34.03-.76.23-1.34.15-.45.4-.87.93-.87.34 0 .69.76.69 1.15 0 .3-.06.53-.04.8.05.58.19 1.15.4 1.68.04.13.03.23.17.27.39.12 2.23.02 2.8.02.23 0 .22-.02.35-.1-.02-.2-.18-.47-.24-.63a5.82 5.82 0 0 1-.29-1.82c-.02-.56-.1-1.38.63-1.37.9 0 .84 1.46.87 1.99.06.94 0 2.01 1.06 2.01h1.18c.53 0 1.12.06.72-.61l-.2-.43a3.02 3.02 0 0 1-.26-1.18c0-.39.12-.78.48-.78.42 0 .57 1 .68 1.31.13.38.51 1.3.77 1.57.1.1.76.12 1.45.12H38c0-.24-.12-.36-.26-.52a11.35 11.35 0 0 1-1.45-2.28c-.2-.4-.3-.86-.29-1.3.01-.43.13-.85.37-1.2.41-.62 1-.96 1.6-1.37 1.4-.98 2.55-2.83 3.47-4.22 1.27-2.15 1.81-4.39 2.49-6.74.17-.59.62-2.05 1.32-2.05.5 0 .56.25.9.45.07.04.52.19.96.18.45-.02.89-.2.89-.88C48 16.9 46.78 16 45.65 16c-.61 0-1.22.22-1.75.61-2.7 2-3.85 9.39-7.22 9.39Z" fill="#00833D"/></svg>