<!-- by TradingView --><svg width="56" height="56" viewBox="0 0 56 56" xmlns="http://www.w3.org/2000/svg"><path fill="#F0F3FA" d="M0 0h56v56H0z"/><path d="M11 19.5 9 21v12l2 1.5v-15ZM20 11l-4 3v25.5l4 3.5V11Z" fill="#215A8F"/><path fill="#215A8F" d="M8 28h40v1H8zM22 21v3.8c0 .9.38 1.22 1.17 1.22.8 0 1.33-.32 1.33-1.2V21h1v3.8c0 1.28-1.04 2.2-2.33 2.2-1.3 0-2.17-.92-2.17-2.2V21h1ZM28.38 21a3.06 3.06 0 0 1 3.12 3 3 3 0 0 1-3.12 3H26.5v-6h1.88Zm0 5.02c1.31 0 2.12-.67 2.12-2.02 0-1.25-.83-1.97-2.12-1.97L27.5 22v4l.88.02ZM34.1 27c-1 0-1.98-.6-1.98-1.68l.98-.17c.04.5.4.87 1 .87.63 0 .93-.2.93-.7 0-.67-.66-.84-1.18-.98-.9-.25-1.71-.6-1.71-1.67 0-1.08.91-1.67 1.92-1.67.97 0 1.82.58 1.9 1.6h-1.01c-.04-.51-.49-.6-.95-.6-.53 0-.93.1-.93.64 0 .63.72.8 1.21.93.9.26 1.75.64 1.75 1.7 0 1.07-.94 1.73-1.93 1.73ZM39.5 27c-1.66 0-3-1.39-3-3 0-1.6 1.35-3 3-3a3 3 0 0 1 3 2.97 3.05 3.05 0 0 1-3 3.03Zm0-1c1.21 0 2-.89 2-2.03 0-1.13-.8-2-2-2-1.21 0-2 .9-2 2.03 0 1.14.78 2 2 2ZM48 27h-1l-3-4.44V27h-1v-6h1l3 4.44V21h1v6Z"/><path d="M24.02 32.22c0 .83-.81 1.16-1.53 1.16h-.78V35H21v-4h1.5c.7 0 1.52.43 1.52 1.22Zm-1.53.63c.54 0 .8-.23.8-.63 0-.43-.27-.65-.8-.65h-.78v1.28h.78ZM27.92 34.17H26.1l-.31.83h-.74l1.55-4h.82l1.54 4h-.74l-.31-.83Zm-.2-.53-.7-1.82-.71 1.82h1.4ZM30.03 33c0-.38.1-.73.3-1.03.2-.3.46-.54.8-.71.33-.17.7-.26 1.1-.26.46 0 .87.1 1.23.31.36.2.62.5.78.87h-.85c-.11-.2-.27-.36-.47-.46a1.5 1.5 0 0 0-.69-.16c-.28 0-.54.06-.76.18-.22.11-.4.28-.53.5a1.5 1.5 0 0 0-.18.76c0 .29.06.54.18.76.13.22.3.39.53.5.22.12.48.18.76.18.27 0 .5-.05.7-.15.2-.1.35-.26.46-.46h.85c-.16.37-.42.66-.78.87-.36.2-.77.3-1.23.3-.4 0-.77-.08-1.1-.25-.34-.18-.6-.41-.8-.72-.2-.3-.3-.65-.3-1.03ZM36.7 31v4H36v-4h.7ZM40.54 31v.57h-1.83v1.16h1.43v.52H38.7V35H38v-4h2.54ZM42.7 31v4H42v-4h.7ZM43.79 33c0-.38.1-.73.3-1.03.19-.3.46-.54.8-.71.33-.17.7-.26 1.1-.26.46 0 .87.1 1.23.31.36.2.62.5.78.87h-.85c-.11-.2-.27-.36-.47-.46a1.5 1.5 0 0 0-.69-.16c-.28 0-.54.06-.76.18-.22.11-.4.28-.53.5a1.5 1.5 0 0 0-.18.76c0 .29.06.54.18.76.13.22.3.39.53.5.22.12.48.18.76.18.26 0 .5-.05.7-.15.2-.1.35-.26.46-.46H48c-.16.37-.42.66-.78.87-.36.2-.77.3-1.23.3-.4 0-.77-.08-1.1-.25-.34-.18-.61-.41-.8-.72-.2-.3-.3-.65-.3-1.03ZM23.35 37.91c0 .64-.65.87-1.19.87h-.6V40H21v-3h1.16c.54 0 1.19.28 1.19.91Zm-1.19.48c.42 0 .62-.18.62-.48 0-.32-.2-.48-.62-.48h-.6v.96h.6ZM25.75 40l-.78-1.2h-.42V40H24v-3h1.16c.54 0 1.19.28 1.19.92 0 .37-.24.72-.78.84L26.4 40h-.65Zm-1.2-1.59h.61c.42 0 .62-.2.62-.5s-.2-.48-.62-.48h-.6v.98ZM28.46 40c-.3 0-.6-.06-.86-.19a1.6 1.6 0 0 1-.63-.54 1.38 1.38 0 0 1-.22-.77c0-.29.07-.55.23-.77.15-.23.36-.4.62-.54.26-.13.55-.19.86-.19.32 0 .6.06.87.2.26.12.47.3.62.53.16.22.23.48.23.77 0 .28-.07.54-.23.77-.15.23-.36.41-.62.54-.26.13-.55.19-.87.19Zm0-.42c.23 0 .43-.04.6-.13.17-.09.3-.22.4-.38.1-.16.16-.36.16-.57 0-.22-.05-.4-.15-.57a.96.96 0 0 0-.41-.38 1.31 1.31 0 0 0-.6-.13c-.22 0-.42.05-.59.13a1 1 0 0 0-.56.95 1.02 1.02 0 0 0 .56.95c.17.09.37.13.6.13ZM33 37.91c0 .64-.65.87-1.19.87h-.6V40h-.56v-3h1.16c.54 0 1.19.28 1.19.91Zm-1.19.48c.42 0 .62-.18.62-.48 0-.32-.2-.48-.62-.48h-.6v.96h.6ZM34 37.43v.86h1.21v.39H34v.9h1.36V40H33.5v-3h1.86v.43H34ZM37.75 40l-.78-1.2h-.42V40H36v-3h1.16c.54 0 1.19.28 1.19.92 0 .37-.24.72-.78.84L38.4 40h-.65Zm-1.2-1.59h.61c.42 0 .62-.2.62-.5s-.2-.48-.62-.48h-.6v.98ZM41.36 37v.43h-.9V40h-.54v-2.57h-.9V37h2.34ZM42.55 37v3H42v-3h.55ZM43.7 37.43v.86h1.15v.39H43.7v.9H45V40h-1.86v-3H45v.43h-1.3ZM46.84 40c-.23 0-.43-.03-.61-.1a1 1 0 0 1-.43-.3.68.68 0 0 1-.15-.44h.59c.01.13.07.23.17.31.1.08.25.12.43.12.19 0 .34-.03.44-.11.11-.08.16-.19.16-.32 0-.1-.03-.17-.1-.24a.65.65 0 0 0-.24-.14c-.1-.03-.24-.07-.41-.1l-.54-.16a.9.9 0 0 1-.35-.25.64.64 0 0 1-.14-.43.7.7 0 0 1 .14-.45c.1-.12.24-.22.41-.29.17-.07.38-.1.6-.1.33 0 .6.07.8.22.21.14.33.33.35.58h-.6c-.02-.1-.08-.2-.18-.28a.7.7 0 0 0-.42-.11.66.66 0 0 0-.39.1.35.35 0 0 0-.15.3c0 .1.03.17.1.23.06.06.14.1.23.14.1.03.23.07.4.1.22.06.4.11.54.17.14.05.26.13.36.25.1.1.15.25.15.44 0 .15-.05.29-.14.42a.95.95 0 0 1-.4.32 1.5 1.5 0 0 1-.62.12Z" fill="#4C94C4"/></svg>