<!-- by TradingView --><svg width="56" height="56" viewBox="0 0 56 56" xmlns="http://www.w3.org/2000/svg"><path fill="#F0F3FA" d="M0 0h56v56H0z"/><path d="M14.17 18.02a17.2 17.2 0 0 0-1.84 16.59c.86 1.99 1.86 3.52 3.35 5.1a16.65 16.65 0 0 0 9.93 5.17c1.54.23 4.23.14 5.75-.19a16.93 16.93 0 0 0 9.83-5.95 17.22 17.22 0 0 0 2.93-16.22 16.99 16.99 0 0 0-15.8-11.51 17.06 17.06 0 0 0-14.15 7Zm15.28-4.64c.32.5.87 1.26 1.22 1.69.36.43.63.8.6.82a14.6 14.6 0 0 1-2.86-1.25 19.16 19.16 0 0 1-2.84-1.98c.08-.08 1.22-.17 2.25-.18l1.05-.01.58.9Zm2.82-.31c.44.13 1.1.35 1.46.5l.66.25.02.51.17 1.67c.08.64.13 1.18.1 1.2-.06.06-1.48-1.19-2.01-1.77-.64-.7-1.38-1.62-1.85-2.28l-.33-.47.49.08c.27.04.85.18 1.29.3Zm-7.57.5.59.57h-4.23l.46-.25c.56-.3 2.13-.87 2.4-.87.11 0 .45.24.78.56Zm12 1.6c1.16.79 1.29.93 1.42 1.57.2.97-.18 2.84-.76 3.7l-.23.35-.19-.45c-.42-1-.84-2.68-1.08-4.28-.16-1.08-.17-1.45-.05-1.45.05 0 .45.25.9.56Zm-10.67.33c.16.05.23.47.13.74l-.09.24h-8.4l.22-.24c.33-.35.93-.69 1.37-.77.38-.06 6.58-.04 6.77.03Zm4.64 1.36c3 .62 5.01 2.33 5.57 4.73.3 1.3.05 3.02-.62 4.21a2.3 2.3 0 0 0-.26.62c0 .22.86.82 1.51 1.06.32.12.94.27 1.37.33.43.06.83.14.89.18.07.04-.04.21-.32.5-.36.4-.42.5-.42.84 0 .21.08.55.16.75l.16.36 1.8-2 2.1-2.35c.18-.19.34-.35.38-.35.12 0 .38.73.38 1.06 0 .18-.05.42-.1.54-.07.13-1.07 1.2-2.24 2.4l-2.12 2.16-.07.99a6.82 6.82 0 0 1-.64 2.65c-.27.57-.27.6-.27 2.27 0 2.08-.03 2.16-.89 2.75l-.63.43-.02-1.45a5.1 5.1 0 0 0-.12-1.45c-.14 0-.75.42-.96.65-.16.18-.19.38-.23 1.55-.04 1.3-.06 1.36-.28 1.59-.25.25-1.06.55-1.14.43-.02-.04-.05-.63-.06-1.31a3.86 3.86 0 0 0-.12-1.3c-.15-.1-.72-.02-.95.13-.2.12-.2.2-.23 1.55l-.02 1.43-.26.12c-.14.07-.48.15-.76.18l-.5.05-.02-1.43-.03-1.44-.5-.03c-.55-.03-.74.1-.74.51 0 .28-.22.42-1.35.81a12 12 0 0 1-5.73.62l-.69-.13.55-.07c1.86-.26 3.42-.75 4.4-1.38.53-.35.7-.69.7-1.4 0-1.05.1-1-1.9-1.07-2.87-.1-4.66-.5-6.69-1.5-2.03-1-3.55-2.3-4.57-3.86-.6-.9-.58-1.11.02-.58a16.27 16.27 0 0 0 2.43 1.92c.77.49 2.24 1.2 2.32 1.12.02-.02-.11-.28-.29-.58a6.75 6.75 0 0 1-.88-4.1c.05-.6.21-3.03.21-5.65 0-5.32-.2-4.86.87-4.74.52.05.6.09.68.3.04.12.08 1.57.08 3.21 0 3.27 0 3.23.52 2.96.15-.08.37-.25.5-.4l.23-.24.01-2.82c.02-3.3-.06-3.1 1.04-3 1.47.11 4.41.39 5.07 2.02v-5.66l1.55.05c.65.04 1.6.15 2.12.26Zm-4.58 1c.09.1.17 1.4.1 1.69-.06.27-.37.27-.88 0a6.7 6.7 0 0 0-1.21-.38c-.75-.17-1.23-.2-4.72-.23l-3.88-.04.24-.36c.29-.45.58-.65 1.06-.73.5-.09 9.2-.03 9.29.06Zm-9.67 2.37c.17.1.18.26.18 6.17 0 5.06-.02 6.08-.13 6.08-.23 0-1-.78-1.18-1.21-.18-.41-.29-.62-.29-5.64 0-4.1.13-5.24.22-5.36.13-.16.92-.2 1.2-.04Zm25.23 1.48c.03.05-.08.35-.25.68a6.36 6.36 0 0 1-2.44 2.4c-.81.43-1.76.8-1.84.72-.09-.09.48-1.18.93-1.79a5.18 5.18 0 0 1 2.73-1.92c.58-.19.8-.21.87-.09Zm-27.65 4v3.63l-.53-.56c-.84-1.79-.83-3.87 0-6.16.11-.29.5-.53.53-.53.02 0 0 1.64 0 3.63Zm28.8-2.28c.28.65.2.82-1.13 2.2-.66.67-1.27 1.25-1.36 1.28-.08.03-.4-.03-.71-.14-.31-.1-.7-.19-.86-.19h-.3l.46-.3c2.22-1.44 2.76-1.88 3.33-2.76.18-.27.34-.49.36-.49.02 0 .12.18.21.4Zm.54 6.4a12.57 12.57 0 0 1-1.1 3.96l-.26.51-.02-.89c-.03-1.34.02-2.53.12-2.87.06-.2.31-.5.69-.82.33-.29.6-.52.62-.52.01 0 0 .29-.05.63Zm-2.67 4.59c-.03 2.87 0 2.76-.9 3.67l-.77.54v-5.26l.84-.72c.34-.4.67-.72.74-.73.1 0 .12.47.1 2.5Zm-24.24 2.4c1 .66 2.26 1.28 3.43 1.68l.9.31-.51.16a5.2 5.2 0 0 1-2.94.13c-.45-.18-1.87-1.96-2.56-3.21l-.3-.56.59.48c.33.26.95.71 1.39 1Zm9 2.67.41.06-.57.3c-.87.45-2.05.77-3.11.83-.96.06-2.53-.04-2.53-.15 0-.03.3-.14.67-.24.37-.1 1.1-.35 1.63-.58l.97-.4 1.06.06c.58.03 1.24.08 1.47.12Zm4.07 3.33c.03.18.03.39 0 .46-.06.18-1.05.27-2.02.19l-.8-.07 1.28-.44c.7-.25 1.33-.45 1.38-.46.06 0 .13.13.16.32Z" fill="#435263"/><path fill-rule="evenodd" d="M22.29 22.5V22.06c0-.29 0-.51.28-.49 1.77.12 4.75 1.02 4.75 3.95v1.12c0 .3.24.55.55.55h.22c.3 0 .55-.24.55-.55v-8.11c0-.31.25-.56.56-.54 2.35.17 6.18 1.34 6.18 5.08 0 2.1-1.5 3.62-2.25 4.12 1.6.22 4.82 1.53 4.82 5.07 0 4.26-3.92 6.57-8.75 6.73a.54.54 0 0 1-.56-.54v-9.38c0-.3-.25-.55-.55-.55h-.22c-.3 0-.55.25-.55.55v7.38c0 .29-.22.53-.5.54-2.9.11-7.82-.86-7.82-5.68 0-4.15 3.77-4.43 6.28-4.19.33.03.73-.22.72-.56.13-1.88-.7-3.4-3.43-3.46-.29 0-.29-.26-.29-.54v-.08ZM30 20.14v6c0 .25.22.46.5.42 1.45-.18 3.5-1.18 3.5-3.7 0-1.97-2.05-2.86-3.45-3.15a.45.45 0 0 0-.55.43Zm0 8.7v8.06c0 .2.16.36.34.34 2.25-.17 6.16-1.4 6.16-5.18 0-2.78-3.1-3.54-4.06-3.57h-2.1a.34.34 0 0 0-.34.35Zm-4-.04v6.29c0 .15-.13.28-.3.27-1.9-.14-5.2-1.1-5.2-4.05 0-2.17 1.64-2.76 2.45-2.79h2.77c.15 0 .28.13.28.28Z" fill="#383936"/></svg>