<!-- by TradingView --><svg width="56" height="56" viewBox="0 0 56 56" xmlns="http://www.w3.org/2000/svg"><path fill="url(#ak3l3d4ae)" d="M0 0h56v56H0z"/><path d="M12.82 20c-.07.67-.1 1.34-.04 2.02h-.21c-.1-.9-.37-1.8-1.42-1.8h-.5c-.56 0-.65.22-.65.75v5.06c0 .53.1.74.64.74h.53c1.15 0 1.46-1 1.58-1.98H13V27H8v-.2c.59-.04 1-.27 1-.85v-4.9c0-.56-.4-.83-1-.85V20h4.82Zm-1.49 3.38v.2H9.7v-.2h1.64Zm.27-1.3a14.23 14.23 0 0 0-.02 1.94c0 .2.02.49.05.86h-.21a3.37 3.37 0 0 0-.15-.63.98.98 0 0 0-.3-.48c-.14-.13-.34-.2-.6-.2v-.19c.2 0 .35-.04.47-.13.12-.08.22-.2.3-.32.06-.14.12-.28.16-.43l.09-.42h.21ZM15 20v6.17c0 .42.37.64.8.64V27h-2.3v-.19c.43 0 .53-.22.53-.64v-5.1c0-.54-.07-.78-.53-.78v-.2c.5.06.95.05 1.5-.09ZM18 20v6.17c0 .42.37.64.8.64V27h-2.3v-.19c.43 0 .5-.22.5-.64v-5.1c0-.54-.14-.78-.5-.78v-.2c.47.06.95.05 1.5-.09ZM21 21.99v4.15c0 .38.1.66.52.66v.19h-2v-.2c.38 0 .48-.15.48-.65v-3.06c0-.27 0-.48-.08-.6-.07-.14-.2-.2-.4-.2v-.2a4.29 4.29 0 0 0 1.48-.1ZM20.5 20a.5.5 0 0 1 .36.14c.1.09.14.2.14.36 0 .15-.05.27-.14.36a.5.5 0 0 1-.36.14.5.5 0 0 1-.36-.14.48.48 0 0 1-.14-.36c0-.15.05-.27.14-.36a.5.5 0 0 1 .36-.14ZM25.65 22c.99 0 1.35.72 1.35 1.6v2.52c0 .43.05.68.5.68v.2h-2.21v-.2c.42 0 .71-.3.71-.68v-2.85c0-.42-.3-.9-.8-.9-.51 0-1.2.78-1.2 1.3v2.45c0 .38.3.68.71.68v.2H22.5v-.2c.44 0 .5-.25.5-.68v-2.96c0-.42.06-.83-.5-.83v-.2c.57.06.95.02 1.5-.13v1.02c.25-.62.99-1.02 1.65-1.02ZM29.97 29c-.37 0-.7-.04-1-.1-.3-.08-.53-.18-.7-.32a.63.63 0 0 1-.27-.52c0-.2.09-.39.26-.55.18-.16.43-.28.77-.36l.06.15a.7.7 0 0 0-.27.29.83.83 0 0 0-.1.38c0 .28.13.49.37.64a2.5 2.5 0 0 0 1.77.12c.24-.09.43-.2.57-.36a.86.86 0 0 0 .21-.6c0-.58-.57-.77-1.04-.77h-.62c-.45 0-.86-.02-1.08-.26a.66.66 0 0 1-.17-.48c0-.25.1-.47.3-.67.2-.2.5-.4.93-.6l.1.1a3 3 0 0 0-.42.26.45.45 0 0 0-.17.37c0 .2.13.28.4.28h1.06c.8 0 1.7.32 1.7 1.25 0 .31-.1.6-.3.86-.19.27-.48.48-.87.64-.39.17-.88.25-1.49.25Zm.09-3.85a2.6 2.6 0 0 1-.92-.15 1.4 1.4 0 0 1-.64-.5 1.53 1.53 0 0 1-.23-.88c0-.35.08-.64.23-.86.16-.23.37-.4.64-.5.27-.11.58-.16.92-.16.34 0 .64.05.91.16.27.1.48.27.64.5.15.22.23.51.23.86s-.08.65-.23.88a1.4 1.4 0 0 1-.64.5c-.27.1-.57.15-.91.15Zm0-.17c.18 0 .33-.1.44-.3.1-.19.16-.55.16-1.06 0-.5-.05-.86-.16-1.05-.11-.2-.26-.3-.44-.3-.2 0-.34.1-.45.3-.1.19-.16.54-.16 1.05s.05.87.16 1.07c.11.2.26.29.45.29Zm1.4-2.07-.17-.07c.1-.23.25-.43.46-.59.2-.17.43-.25.67-.25.18 0 .32.05.42.15.1.1.16.25.16.44s-.05.33-.15.42c-.1.09-.2.13-.33.13-.1 0-.2-.03-.29-.1-.08-.08-.13-.2-.15-.35 0-.16.04-.36.15-.6l.1.04c-.25.1-.43.2-.54.32-.12.12-.23.27-.32.46ZM36 20v1.8h1v.2h-1v3.87c0 .49.16.67.43.67.26 0 .47-.23.64-.77l.15.08c-.15.58-.47 1.15-1.13 1.15-1.03 0-1.09-.93-1.09-1.74V22h-1v-.2h1v-1.54c.35-.01.7-.09 1-.26ZM40 22c1.46 0 2 1.15 2 2.5 0 1.36-.54 2.5-2 2.5-1.47 0-2-1.13-2-2.5 0-1.36.53-2.5 2-2.5Zm0 .16c-.97 0-1 1.74-1 2.34 0 .61.03 2.33 1 2.33.96 0 1-1.72 1-2.33 0-.6-.04-2.34-1-2.34ZM45.73 22c.97 0 1.27.67 1.27 1.55v2.6c0 .43.55.66 1 .66V27h-2.65v-.2c.42 0 .65-.27.65-.65v-2.91c0-.43-.23-.87-.74-.87-.67 0-1.26.66-1.26 1.26v2.52c0 .38.34.66.77.66V27H42.5v-.2c.44 0 .5-.23.5-.65v-3.02c0-.56-.04-.8-.5-.8v-.2c.58.05.94.04 1.5-.1v.91c.26-.61 1.06-.94 1.73-.94Z" fill="#FBFBFB"/><path d="M13 30v2.2h-.26c-.14-1-.42-1.97-1.59-1.97h-.4c-.56 0-.75.2-.75.74v4.94c0 .73.3.87 1 .88V37H8v-.2c.6-.04 1-.21 1-.8v-4.9c0-.58-.4-.88-1-.9V30h5Zm-1.44 3.44v.2H9.7v-.2h1.85Zm.22-1.3a13.73 13.73 0 0 0-.02 1.94l.04.86h-.21a2.85 2.85 0 0 0-.15-.63c-.07-.2-.18-.37-.32-.48-.14-.13-.35-.2-.62-.2v-.19c.2 0 .36-.04.5-.13a.9.9 0 0 0 .29-.32 3.08 3.08 0 0 0 .27-.85h.22ZM15.4 32v4.16c0 .37.18.65.6.65V37h-2v-.19c.38 0 .52-.15.52-.65V33.1c0-.56-.13-.81-.52-.81v-.19c.5.05.92.04 1.4-.1ZM15 30a.5.5 0 0 1 .36.14c.1.09.14.2.14.36 0 .15-.05.27-.14.36A.5.5 0 0 1 15 31a.5.5 0 0 1-.36-.14.48.48 0 0 1-.14-.36c0-.15.05-.27.14-.36A.5.5 0 0 1 15 30ZM19.82 32c.98 0 1.18.67 1.18 1.57v2.6c0 .44.3.64.76.64V37h-2.33v-.2c.42 0 .57-.28.57-.67v-2.91c0-.43-.15-.85-.66-.85-.68 0-.84.65-.84 1.26v2.52c0 .39-.1.66.33.66V37H16.5v-.2c.44 0 1-.24 1-.67V33.1c0-.55-.52-.79-1-.79v-.2c.6.06 1.42.02 2-.12v.95c.28-.63.64-.95 1.32-.95ZM23.5 37c-.68 0-1-.47-1-1.18 0-1.01 1.11-1.26 1.89-1.5.19-.08.34-.15.47-.24.12-.08.14-.2.14-.34v-.67c0-.49-.22-.86-.73-.86-.26 0-.58.06-.76.27.16.04.28.12.37.24.09.11.14.25.14.42 0 .19-.07.34-.2.45a.7.7 0 0 1-.47.15c-.2 0-.36-.06-.46-.19a.69.69 0 0 1-.16-.45c0-.17.04-.31.13-.42.09-.12.2-.22.36-.31.3-.21.81-.37 1.38-.37 1.07.08 1.42.6 1.42 1.68v2.51c0 .3.25.45.42.45.12 0 .22-.06.36-.17l.1.15c-.27.21-.46.38-.88.38-.52 0-1-.27-1.02-.8-.3.48-.9.8-1.5.8Zm1.19-.67c.13-.08.2-.2.31-.36v-1.85c-.06.1-.11.17-.23.25l-.36.22a2.5 2.5 0 0 0-.37.25c-.21.18-.4.44-.4.88 0 .23.06.42.18.55.23.23.6.23.87.06ZM30.66 32c.98 0 1.34.65 1.34 1.55v2.6c0 .44.15.66.6.66V37h-2.33v-.2c.43 0 .73-.28.73-.67v-2.91c0-.43-.3-.85-.82-.85-.68 0-1.18.65-1.18 1.26v2.52c0 .39.24.66.67.66V37h-2.33v-.2c.44 0 .66-.22.66-.65v-3.02c0-.55-.18-.8-.66-.8v-.2c.6.05 1.08.01 1.66-.13v.95c.28-.63.98-.95 1.66-.95ZM35.33 32a2.26 2.26 0 0 1 1.13.3c.15.09.27.2.36.34.08.14.12.29.12.45 0 .2-.06.37-.18.49a.63.63 0 0 1-.46.18.68.68 0 0 1-.47-.16.58.58 0 0 1-.18-.44c0-.18.05-.33.16-.44.1-.12.23-.2.38-.23a.57.57 0 0 0-.26-.2.9.9 0 0 0-.39-.08.88.88 0 0 0-.5.15c-.64.4-.72 1.37-.72 2.04 0 1 .27 1.55.65 1.8.19.1.4.17.6.17.55 0 1-.36 1.25-.82l.18.06A1.9 1.9 0 0 1 35.2 37c-1.4 0-2.1-1.17-2.1-2.46 0-1.34.8-2.54 2.23-2.54ZM39 32v4.13c0 .38.08.66.5.66V37h-2v-.21c.38 0 .5-.16.5-.66V33.1c0-.56-.11-.81-.5-.81v-.19c.49.05 1.02.04 1.5-.1ZM38.5 30a.5.5 0 0 1 .36.14c.1.09.14.2.14.36 0 .15-.05.27-.14.36a.5.5 0 0 1-.36.14.5.5 0 0 1-.36-.14.48.48 0 0 1-.14-.36c0-.15.05-.27.14-.36a.5.5 0 0 1 .36-.14ZM41.77 37c-.24 0-.44-.05-.61-.15a1 1 0 0 1-.38-.42 1.39 1.39 0 0 1-.12-.6 1.15 1.15 0 0 1 .6-1.05c.17-.1.36-.2.56-.26.35-.14 1.18-.28 1.18-.78v-.68c0-.45-.23-.87-.74-.87-.12 0-.24.01-.37.05a.62.62 0 0 0-.32.22.6.6 0 0 1 .34.24c.08.11.12.26.12.42a.6.6 0 0 1-.17.46.6.6 0 0 1-.43.16c-.19 0-.33-.07-.42-.2a.75.75 0 0 1-.14-.45c0-.18.04-.32.11-.43a1.63 1.63 0 0 1 .87-.57c.22-.06.46-.09.71-.09 1.1 0 1.44.69 1.44 1.7v2.55c0 .3.08.42.24.42.1 0 .2-.06.32-.17l.1.16c-.13.1-.26.19-.4.25-.13.06-.29.09-.48.09-.5 0-.76-.28-.78-.78-.13.25-.32.44-.52.58-.2.13-.43.2-.7.2Zm.5-.52c.14 0 .27-.04.38-.12.12-.08.26-.2.35-.36v-1.88c-.2.33-.66.48-.94.73-.1.1-.19.21-.26.36-.07.13-.1.3-.1.53 0 .24.05.42.16.55.1.13.24.19.42.19ZM46.5 30v6.17c0 .38.09.64.5.64V37h-2v-.19c.38 0 .5-.15.5-.64v-5.1c0-.54-.1-.78-.5-.78v-.2c.5.06 1.02.05 1.5-.09Z" fill="#959595"/><defs><linearGradient id="ak3l3d4ae" x1="10.42" y1="9.71" x2="68.15" y2="76.02" gradientUnits="userSpaceOnUse"><stop stop-color="#1A1E21"/><stop offset="1" stop-color="#06060A"/></linearGradient></defs></svg>