<!-- by TradingView --><svg width="56" height="56" viewBox="0 0 56 56" xmlns="http://www.w3.org/2000/svg"><path fill="#033B4C" d="M0 0h56v56H0z"/><path fill-rule="evenodd" d="M11.28 33c2.21 0 4.02-.84 5.05-1.54.45-.3.67-.82.67-1.36V27h-5v1.03h1.19c.68 0 1.01.3 1.14.54.05.1.06.22.06.34v1.43c0 .37-.54 1.6-2.57 1.6-2.04 0-4.32-2.3-4.32-4.9 0-2.58 1.98-4.99 4.47-4.99 1.06 0 3.03.5 3.03 1.85v.67h1v-2.52A7.8 7.8 0 0 0 12.12 21C7.46 21 5 24.07 5 27.05 5 30.02 7.76 33 11.28 33Zm9.22-9H18v9h2.5v-5.75c.4-1.45.68-1.78.78-1.75.12.43.57 1.27 1.41 1.27s1.21-.84 1.3-1.27c.1-.54-.5-1.5-1.48-1.5-.86 0-1.54.66-2.01 1.37V24ZM33 28.5a4.5 4.5 0 1 1-9 0 4.5 4.5 0 0 1 9 0Zm-2.5 0c0 1.93-.54 3.5-2 3.5s-2-1.57-2-3.5.53-3.5 2-3.5c1.39 0 2 1.57 2 3.5ZM36 24h-2.6l4.27 9h.83l3.85-9h-1.17l-2.44 5.92L36.01 24Zm15 4.63-6.77.5c.16.76.96 2.29 2.88 2.29a4.3 4.3 0 0 0 3.52-1.75H51c0 1.1-.87 3.33-4.35 3.33-3.49 0-4.55-2.91-4.64-4.37 0-1.54.94-4.63 4.64-4.63 3.7 0 4.44 3.09 4.35 4.63Zm-3.13-.73-3.6.2c0-2 1.29-3.1 2.48-3.1 1.2 0 1.93 1.1 1.93 1.86 0 .6-.54.94-.81 1.04Z" fill="#fff"/></svg>