<!-- by TradingView --><svg width="56" height="56" viewBox="0 0 56 56" xmlns="http://www.w3.org/2000/svg"><path fill="#F0F3FA" d="M0 0h56v56H0z"/><path d="M17.25 17.43a65.3 65.3 0 0 1 12.59-.23c3.4.27 6.8.81 10.1 1.76 2 .58 3.97 1.3 5.8 2.32 1.18.65 2.3 1.42 3.27 2.39a6.9 6.9 0 0 1 1.81 3c.26.92.24 1.93-.05 2.85a7.1 7.1 0 0 1-1.79 2.84c-1 1.01-2.19 1.8-3.43 2.47a26.74 26.74 0 0 1-4.18 1.76 43.45 43.45 0 0 1-6.54 1.6c-3.05.52-6.15.76-9.24.81h-1.78a57.1 57.1 0 0 1-13.28-1.66A33.8 33.8 0 0 1 6 35.84c1.53.46 3.07.85 4.64 1.16a65.59 65.59 0 0 0 19.88.63 49.7 49.7 0 0 0 8.18-1.68 29.6 29.6 0 0 0 4.9-1.92 14.77 14.77 0 0 0 3.56-2.45c.8-.78 1.5-1.73 1.79-2.85.2-.78.16-1.62-.1-2.38a5.93 5.93 0 0 0-1.13-1.94 12.5 12.5 0 0 0-3.33-2.61 29.52 29.52 0 0 0-6.56-2.6 54.2 54.2 0 0 0-10.33-1.72c-4-.29-8-.23-12 .2.59-.12 1.17-.18 1.75-.25Z" fill="#1176BF"/><path d="M7.16 22h2.67l3.76 6.8L17.1 22H28c1.58-.02 2 1.15 2 2.53v2.03c-.01 1.31-.48 2.38-1.87 2.44H23v4h-2v-6h6.06c.81-.07.93-.45.94-1.27v-.91c-.02-.4-.1-.8-.5-.82h-8.89c-1.68 2.91-3.35 6.04-5.03 8.96L7.16 22Zm31.37 0c1.13.08 2.23.38 3.29.76-.3.63-.46 1.15-.75 1.77-.78-.3-1.71-.42-2.53-.51-2.11-.25-5.45.68-5.54 3.11-.07 2.25 1.88 3.87 4.76 3.87.93 0 1.62-.18 2.24-.35V27h2v5.13c-1.16.5-2.24.8-3.5.86-3.37.16-7.55-1.63-7.5-5.5-.06-3.97 4.08-5.71 7.53-5.49Z" fill="#1176BF"/></svg>