<!-- by TradingView --><svg width="56" height="56" viewBox="0 0 56 56" xmlns="http://www.w3.org/2000/svg"><path fill="#F0F3FA" d="M0 0h56v56H0z"/><path d="M6.5 31C5.1 31 4 29.9 4 28.5S5.11 26 6.5 26C7.9 26 9 27.1 9 28.5 9 29.89 7.9 31 6.5 31Zm0-1c.81 0 1-.74 1-1.5s-.19-1.5-1-1.5-1 .72-1 1.5.19 1.5 1 1.5ZM14 26v1h-2.5v1l1.5.02V29h-1.5v2H10v-5h4ZM17.5 27.6c-.18-.32-.47-.6-.94-.6-.8 0-1.06.72-1.06 1.5 0 .85.14 1.5 1 1.5.71 0 1-.5 1-1h-1.17v-1H19v1c0 .5-.85 2-2.5 2a2.41 2.41 0 0 1-2.5-2.5c0-1.45 1.13-2.5 2.56-2.5 1.06 0 2.15.54 2.44 1.6h-1.5Z" fill="#F5821F"/><path d="M22.92 28.47c.6.1 1.08.65 1.08 1.25 0 .95-1 1.28-1.82 1.28H20v-5h2.08c.8 0 1.92.38 1.92 1.3 0 .6-.51.99-1.08 1.17ZM21 28.14h1c.6 0 1-.27 1-.73 0-.46-.4-.73-1-.73h-1v1.46Zm1.1 2.26c.61 0 .9-.41.9-.9 0-.5-.32-.68-.93-.68H21v1.58h1.1ZM28 30.4c-.32.45-1 .59-1.53.59-.7 0-1.47-.35-1.47-1.14 0-.95.94-1.2 1.74-1.2H28a.97.97 0 0 0-1.01-.96c-.53 0-.9.28-1 .78h-.88c.14-.97.96-1.47 1.89-1.47 1 0 2 .66 2 1.7V31h-1v-.6Zm-1.34-.07c.41 0 .85-.17 1.1-.48.14-.17.24-.3.24-.53h-1.26c-.55 0-.82.14-.82.47 0 .33.28.54.74.54ZM32.18 27c1.03 0 1.82.68 1.82 1.72V31h-1v-2.16c0-.72-.35-1.12-1.01-1.12s-.99.4-.99 1.12V31h-1v-4h1v.53c.3-.34.68-.53 1.18-.53ZM35 28.96c0-1.22.8-1.97 2-1.97 1.05 0 1.76.48 2 1.34h-.97c-.16-.4-.5-.64-1.03-.64-.79 0-1 .54-1 1.27 0 .59.2 1.34 1 1.34.52 0 .86-.21 1.03-.64H39c-.28.9-1.1 1.34-2 1.34-1.2 0-2-.82-2-2.04ZM41.75 31.02c-1.2 0-2.25-.8-2.25-2.02 0-1.24 1.05-2 2.25-2s2.25.76 2.25 2c0 1.25-1.05 2.02-2.25 2.02Zm0-.72c.77 0 1.25-.54 1.25-1.3s-.48-1.27-1.25-1.27c-.78 0-1.25.52-1.25 1.27s.46 1.3 1.25 1.3ZM46 27.64c.13-.2.24-.36.46-.48.22-.11.74-.16 1.04-.16v.85H47c-.34 0-.61.08-.8.25-.17.17-.2.45-.2.86V31h-1v-4h1v.64ZM49 27.65s.44-.66 1-.66c1.42 0 2 .86 2 2.01 0 1.16-.82 2-2 2-.66 0-1-.63-1-.63V33h-1v-6h1v.65ZM51 29c0-.74-.63-1.31-1-1.29-.76 0-1 .55-1 1.29s.23 1.3 1 1.3c.45 0 1-.55 1-1.3Z" fill="#54565A"/></svg>