<!-- by TradingView --><svg xmlns="http://www.w3.org/2000/svg" width="56" height="56"><path fill="#009AC8" d="M0 0h56v56H0z"/><path fill-rule="evenodd" d="M41.16 20.49c3.38.88 6.83 2 9.39 4.47 1.06 1.1 1.85 2.7 1.23 4.32-1.02 2.35-3.3 3.53-5.5 4.6-7.9 3.28-17.77 3.7-26.7 2.53-4.48-.66-8.87-1.71-12.6-4.11-1.64-1.13-3.44-2.88-2.87-5.24.86-2.86 4.02-4.25 6.6-5.37l.38-.14 1.07-.37c5.44-1.73 11.33-2.37 17.65-2.13 3.93.09 7.72.6 11.35 1.44zM51 28c0 4.42-10.3 8-23 8S5 32.42 5 28s10.3-8 23-8 23 3.58 23 8zm-25.5-4h1.7l1.3 2.66V24H30v6h-1.65L27 27.39v2.6h-1.5v-6zM13 25.36v5.34h30v-5.34h-1.49l.5-1.36h3.5l.49 1.36h-1.5V32h-33v-6.64H10l.47-1.36h3.48l.46 1.36H13zM15 24h4.2l.01 1.5H16.5v.84h2.71v1.32H16.5v.84h2.71V30H15v-6zm6.69 0h-1.7v6h1.51v-2.6l1.34 2.6h1.66v-6H23v2.66L21.69 24zm16.5 0H36.5v6H38v-2.61l1.35 2.6H41v-6h-1.5v2.67L38.2 24zm-2.42 6h-1.62l-.15-.73h-1.36l-.15.73h-1.72l1.4-6h2.3l1.3 6zm-2.86-2h.82l-.4-2-.42 2z" fill="#fff"/></svg>