<!-- by TradingView --><svg width="56" height="56" viewBox="0 0 56 56" xmlns="http://www.w3.org/2000/svg"><path fill="#F0F3FA" d="M0 0h56v56H0z"/><path d="M4.56 31.5h.7c.23 0 .46-.03.68-.1.2-.05.39-.15.55-.28A1.35 1.35 0 0 0 7.01 30c0-.15-.02-.3-.06-.44a1.37 1.37 0 0 0-.23-.5c-.13-.16-.3-.3-.5-.39a1.78 1.78 0 0 0-.81-.16h-.85v2.99ZM4 28h1.44c.26 0 .52.03.77.1.2.05.39.14.56.25.15.1.29.23.4.37a2.08 2.08 0 0 1 .3 2.03 2.1 2.1 0 0 1-1.14 1.08c-.32.12-.65.18-.98.17H4v-4ZM9.28 28h-.56v4h.56v-4ZM14.18 29.78v1.87a3.9 3.9 0 0 1-1.56.35c-.32 0-.64-.05-.94-.16-.26-.1-.49-.24-.68-.42a2 2 0 0 1 .7-3.26 2.8 2.8 0 0 1 1.8-.02c.2.07.42.2.59.35l-.4.4a1.52 1.52 0 0 0-.54-.31 2 2 0 0 0-1.22.02 1.5 1.5 0 0 0-.82.81 1.56 1.56 0 0 0 .34 1.67 1.7 1.7 0 0 0 1.14.44c.2 0 .38-.02.57-.05.16-.03.32-.08.46-.15v-1.07h-.8v-.47h1.36ZM16 28h-.57v4H16v-4ZM17.11 28v.51h1.33V32H19v-3.49h1.33V28H17.1ZM22.68 28.7l.77 1.83H21.9l.78-1.83Zm-.23-.7-1.81 4h.65l.41-.99h1.96l.42.99h.65l-1.77-4h-.51ZM25.78 28v4h2.45v-.5h-1.89V28h-.56ZM30 31.4h.7l.3-.01c.1-.02.2-.04.3-.09.08-.03.16-.1.22-.17.07-.1.1-.2.1-.32a.46.46 0 0 0-.22-.45c-.2-.1-.44-.14-.66-.12H30v1.16Zm0-1.77h.69c.2.01.39-.03.55-.14a.45.45 0 0 0 .18-.36.44.44 0 0 0-.19-.39c-.18-.1-.4-.14-.6-.13H30v1.02ZM29.29 28h1.61a2 2 0 0 1 .46.05c.15.04.28.1.4.18.13.08.22.19.3.32.07.14.11.3.1.46.01.2-.06.4-.2.56a1.1 1.1 0 0 1-.51.32 1.08 1.08 0 0 1 .64.31c.16.18.25.42.25.66 0 .19-.04.38-.13.54-.1.15-.21.26-.36.35-.15.1-.32.16-.5.2-.19.03-.38.05-.57.05H29.3v-4ZM34.57 29.7c.1 0 .2 0 .31-.02.1 0 .2-.03.29-.07a.48.48 0 0 0 .21-.16.5.5 0 0 0 .09-.3c0-.1-.03-.2-.08-.3a.46.46 0 0 0-.2-.15.92.92 0 0 0-.27-.07 2.6 2.6 0 0 0-.29-.02H34v1.09h.57Zm-1.3-1.7h1.43c.19 0 .38.02.57.05.17.04.34.1.5.19.14.09.25.2.34.35a1.24 1.24 0 0 1-.12 1.29c-.18.2-.44.33-.71.35l1.1 1.77h-.89l-.95-1.7H34V32h-.73v-4ZM38.35 28h-.73v4h.73v-4ZM41 31.35c.22 0 .44-.03.65-.08.2-.04.37-.13.53-.24.15-.1.28-.25.36-.41.1-.2.14-.41.13-.63 0-.2-.04-.42-.12-.62-.07-.16-.18-.3-.32-.42a1.4 1.4 0 0 0-.49-.23c-.2-.05-.41-.08-.62-.08h-.66v2.7H41ZM39.72 28h1.62c.27 0 .54.04.79.12a1.82 1.82 0 0 1 1.13 1c.13.28.19.58.18.89a1.8 1.8 0 0 1-.72 1.5c-.21.16-.45.29-.7.37-.25.08-.51.12-.77.12h-1.54v-4ZM48 31.63c-.53.25-1.06.38-1.66.37-.3 0-.6-.04-.87-.14a1.97 1.97 0 0 1-1.16-1.03 1.98 1.98 0 0 1-.16-.81c0-.29.05-.57.16-.83.1-.24.26-.46.46-.64s.44-.32.7-.4c.28-.1.57-.15.87-.15.3 0 .6.03.89.1.27.07.53.2.74.38l-.54.5c-.14-.12-.3-.21-.48-.27a1.85 1.85 0 0 0-1.18 0 1.34 1.34 0 0 0-.74.72c-.06.17-.1.35-.1.54 0 .19.03.38.1.56.07.16.17.32.3.45a1.35 1.35 0 0 0 1.02.4c.18.01.35 0 .53-.04.15-.03.3-.08.43-.15v-.9h-.73v-.61H48v1.95ZM49 28v4h3v-.64h-2.22v-1.09h1.76v-.64h-1.76v-.99H52V28h-3ZM30.09 25.03l-1.09.4V26h1.09v-.97ZM31.76 24.4l-.98.37V26h.98v-1.6Z" fill="#01354E"/><path d="m33.35 23.81-.89.33V26h.89v-2.19ZM34.92 23.22l-.8.3V26h.8v-2.78Z" fill="#0F5369"/><path d="m36.51 22.63-.71.26V26h.71v-3.37ZM38.11 22.02l-.63.24v1.95l.63-.24v-1.95Z" fill="#59AB94"/><path d="m39.85 21.37-.56.22v1.94l.56-.2v-1.96ZM41.5 20.76l-.5.18v1.95l.5-.19v-1.94Z" fill="#009963"/><path d="M42.72 20.3v1.95l.43-.16v-1.95l-.43.16Z" fill="#21D182"/><path d="m38.57 25.03-1.1.4V26h1.1v-.97ZM40.27 24.4l-.98.36V26h.98v-1.6Z" fill="#01354E"/><path d="m41.9 23.79-.89.33V26h.88v-2.21ZM43.51 23.18l-.8.3V26h.8v-2.82Z" fill="#0F5369"/><path d="m45.18 22.56-.72.26V26h.72v-3.44ZM46.85 21.93l-.64.24V26h.64v-4.07Z" fill="#59AB94"/><path d="m48.57 21.29-.57.2V26h.57v-4.71ZM50.27 20.65l-.5.19V26h.5v-5.35Z" fill="#009963"/><path d="m52 20-.43.16V26H52v-6Z" fill="#21D182"/></svg>