<!-- by TradingView --><svg width="56" height="56" viewBox="0 0 56 56" xmlns="http://www.w3.org/2000/svg"><path fill="#EDE9E5" d="M0 0h56v56H0z"/><path d="M10 19.71H7.37V18h7.2v1.71H12V27h-2"/><path d="M18 23.58c-.33.2-.67.25-1.02.28l-1.02.11c-.61.06-.96.27-.96.85 0 .59.49.92 1.14.92.89 0 1.86-.53 1.86-1.62v-.54Zm-4.5-1.34c.21-2 1.73-2.24 3.16-2.24 2.5 0 3.34 1 3.34 2.21V27h-1.85c-.06-.23-.1-.7-.12-.94-.6.73-1.7.94-2.5.94-1.39 0-2.53-.6-2.53-2.11 0-1.58 1.31-1.92 2.38-2.01l1.86-.16c.53-.05.76-.16.76-.68s-.4-.78-1.42-.78c-.75 0-1.13.08-1.38.98M26 23.13c0-.94-.42-1.4-1.31-1.4-.93 0-1.69.52-1.69 1.97V27h-2v-7h2v1.17A2.88 2.88 0 0 1 25.4 20c1.03 0 2.6.45 2.6 2.46V27h-2M32.53 25.2c.78 0 1.47-.3 1.47-1.82 0-1.53-.69-1.83-1.47-1.83s-1.53.3-1.53 1.83.75 1.83 1.53 1.83ZM34 20h2v6.31c0 2.3-1.2 3.19-3.46 3.19-1.33 0-3.14-.19-3.32-2.2h2.05c.11.54.68.7 1.32.7.65 0 1.41-.16 1.41-1.77v-.54c-.5.7-1.03.98-1.93.98-2.11 0-3.07-1.61-3.07-3.33 0-1.82.96-3.33 3.21-3.33.79 0 1.6.3 1.79.98M41.56 22.8c0-.35-.21-1.46-1.52-1.46-1.4 0-1.44 1.28-1.44 1.44v.03h2.96Zm1.9 2.01C42.94 26.36 41.7 27 40.08 27c-2.13 0-3.57-1.05-3.57-3.5 0-2.46 1.44-3.5 3.57-3.5 2.35 0 3.48 1.42 3.48 3.88V24H38.6c0 .62.27 1.66 1.48 1.66.72 0 1.14-.29 1.4-.85M44 20h2v1.51c.71-1.04 1.18-1.51 2.29-1.51.22 0 .49.01.71.06v2.1a3.47 3.47 0 0 0-1.08-.16c-1.33 0-1.92.74-1.92 2.06V27h-2"/><path d="M11.26 37.46c2.42 0 3.75-2.17 3.75-4.46 0-2.3-1.33-4.46-3.75-4.46-2.41 0-3.74 2.17-3.74 4.46 0 2.3 1.33 4.46 3.74 4.46Zm0-9.46c3.27 0 4.27 3.12 4.27 5s-1 5-4.27 5C8 38 7 34.88 7 33s1-5 4.26-5ZM22.54 38h-.52v-1.56H22A2.5 2.5 0 0 1 19.6 38C17 38 17 36.01 17 35.19V31h.51v4.16c0 1.38.43 2.31 2.1 2.31 1.68 0 2.39-1.25 2.39-2.5V31h.54M25 29h.53v2h1.68v.52h-1.68v4.99c0 .83.4.97 1.03.97.23 0 .48-.06.7-.08v.53c-.26.06-.58.07-.86.07-1.18 0-1.4-.52-1.4-1.82v-4.66h-1.27V31H25M39 29h.53v2h1.69v.52h-1.69v4.99c0 .83.4.97 1.03.97.23 0 .48-.06.71-.08v.53c-.27.06-.59.07-.86.07-1.2 0-1.4-.52-1.4-1.82v-4.66h-1.28V31H39M29 38h.51v-9H29v9ZM36.7 34c-.2-1.8-1.27-2.49-2.58-2.49-1.47 0-2.37.92-2.59 2.49h5.18Zm-5.17.63c.04 1.65.98 2.86 2.69 2.86 1.76 0 2.22-1.3 2.42-1.88h.5c-.47 1.66-1.47 2.39-2.98 2.39-1.94 0-3.16-1.36-3.16-3.55 0-1.38.75-3.45 3.17-3.45 1.98 0 3.1 1.52 3.13 3.63M47.29 33c-.08-1.1-.68-1.49-2.15-1.49-1.4 0-1.86.64-1.86 1.32 0 .72.47 1.01 1.15 1.12l1.8.28c1.07.17 1.79.62 1.79 1.8 0 1.79-1.75 1.97-2.72 1.97-1.56 0-2.7-.62-2.77-2.26h.5c.08.68.2 1.75 2.4 1.75 1.5 0 2.08-.52 2.08-1.46 0-.76-.48-1.1-1.14-1.2l-2-.3c-.7-.1-1.6-.5-1.6-1.66 0-.75.46-1.87 2.39-1.87 2.1 0 2.57.97 2.64 2" fill="#B61F26"/></svg>