<!-- by TradingView --><svg width="56" height="56" viewBox="0 0 56 56" xmlns="http://www.w3.org/2000/svg"><path fill="#F0F3FA" d="M0 0h56v56H0z"/><path d="M51 27.87c0 .21-.01.4-.04.57h-4.41c.03.42.19.75.45.99.27.23.6.35 1 .35.56 0 .96-.23 1.2-.7h1.65c-.18.56-.51 1.02-1 1.39-.5.35-1.1.53-1.82.53-.58 0-1.1-.12-1.57-.37-.46-.25-.82-.6-1.08-1.06A3.17 3.17 0 0 1 45 28c0-.6.13-1.13.38-1.58.26-.46.61-.8 1.07-1.05a3.3 3.3 0 0 1 1.58-.37c.57 0 1.08.12 1.53.36.46.23.81.57 1.06 1.01.25.44.38.94.38 1.5Zm-1.58-.42c0-.37-.15-.67-.42-.9a1.53 1.53 0 0 0-1.02-.34c-.37 0-.7.1-.95.33-.26.22-.41.52-.47.91h2.86ZM38.5 28c0-.6.13-1.13.4-1.57.25-.46.62-.8 1.08-1.05.46-.25 1-.38 1.6-.38.76 0 1.4.18 1.9.55.5.35.85.8 1.02 1.45h-1.7a1 1 0 0 0-.45-.53c-.21-.15-.47-.22-.79-.22-.45 0-.8.15-1.06.46-.27.3-.4.73-.4 1.29 0 .55.13.98.4 1.29.26.3.61.45 1.06.45.64 0 1.05-.2 1.25-.74h1.69a2.54 2.54 0 0 1-1.02 1.44c-.5.37-1.14.56-1.9.56-.6 0-1.14-.12-1.6-.37-.46-.25-.83-.6-1.09-1.05-.26-.45-.39-.98-.39-1.58ZM35.49 25A2.41 2.41 0 0 1 38 27.53V31h-1.5v-3.27c0-.83-.68-1.46-1.49-1.46-.82 0-1.51.62-1.51 1.46V31H32v-6h1.5v.82a2.7 2.7 0 0 1 1.99-.82ZM25 27.98c0-.59.11-1.1.34-1.56A2.53 2.53 0 0 1 27.63 25a2.3 2.3 0 0 1 1.9.92V25H31v6h-1.47v-.94c-.18.27-.44.5-.78.68-.32.17-.7.26-1.13.26-.48 0-.93-.13-1.33-.38a2.7 2.7 0 0 1-.95-1.06 3.52 3.52 0 0 1-.34-1.58Zm4.53.02c0-.36-.07-.66-.2-.91a1.43 1.43 0 0 0-.57-.59 1.46 1.46 0 0 0-.75-.21 1.46 1.46 0 0 0-1.32.79c-.13.25-.2.55-.2.9s.07.66.2.92c.15.26.34.46.57.6a1.52 1.52 0 0 0 1.5.01c.24-.14.43-.34.57-.59.13-.26.2-.56.2-.92ZM24 25v6h-1.5v-6H24ZM21.5 23v8H20v-8h1.5ZM19.5 23v8H18v-8h1.5ZM14.96 29.67h-2.93L11.55 31H10l2.64-7h1.72L17 31h-1.56l-.48-1.33Zm-.4-1.12-1.07-2.93-1.06 2.93h2.13Z" fill="#162A55"/><path d="M12 23H8.5L5 33h.78c2.72 0 2.85-1.28 3.1-1.92L12 23Z" fill="#A8A7AA"/><path d="M24 22.75a.75.75 0 1 1-1.5 0 .75.75 0 0 1 1.5 0Z" fill="#162A55"/></svg>