<!-- by TradingView --><svg width="56" height="56" viewBox="0 0 56 56" xmlns="http://www.w3.org/2000/svg"><path d="M0 28a28 28 0 1 1 56 0 28 28 0 1 1-56 0Z" fill="#F0F3FA"/><path d="m42.09 24.4-.1.09h-.36l-.26.3h.27l.05.17-.09.15.1.41s.07.06.09 0c0-.05.06-.22.06-.22h.1l.08-.18h.32l.05-.22.08-.03.3-.38-.13-.04-.2.15-.06-.2h-.3Zm5.53 1.16h-.14l.1.23.03.22-.2-.22-.03-.23h-.17l-.07.1-.2-.05-.04.2.16.07.12.33-.08.35.08.14-.05.14-.1-.05v-.19l-.2-.07v.13l.1.05-.01.22.13.4-.42.43.13.18-.08.2-.17-.24-.32-.23-.07-.24-.1.09-.08.29-.12.04-.1.33-.44-.88-.38-.13-.15-.19.06.31.19-.01.13.26-.3.32-.25.04-.1-.45-.2-.41-.05.03.1.46.27.53.23-.1.06.09-.05.21-.33.38.02.65-.23.22.03.27-.29.49-.27.05-.34-1.03.1-.34-.14-.62-.72-.09-.21-.4-.1-.42.21-.11.04-.24h.1l.17-.27.6-.14.26.32.1-.07.35.06.04-.22-.19-.1.08-.12.29-.14-.12-.18-.25-.04-.05.2-.17.1-.13-.2-.52.15-.22.27-.1-.07.03-.29.21-.03-.1-.18.3-.2.02-.16h.22l.17.01v-.2l-.06-.25-.09.3-.28.01v-.14l.26-.44.46.06.04.1-.17.06.21.1.1-.23h.42V25h.24l.31-.25.42.1.82-.03.1.16.6.08c.2.16.32.28.54.5Zm-1.5 4.72.06-.45.3-.3.26-.21.13.03.06-.12.14.05.06.3.18-.28.13.55-.07.37-.37.37-.17-.01v-.24l-.55.04-.16-.1Zm1.03-1.89-.14-.17-.1.06.2.27.03.25.35.34.17-.1.32.17-.14-.46-.27-.14-.21-.3-.14-.07-.07.15Zm-5.88-2.43h-.29v.12l.26.11-.31.27h-.19l-.28.43.04.33h-.1l-.1-.23-.27-.08-.16.2.47.65v.22l.46-.04.48.18.16.36.27.08.32.34-.24.33-.35.95-.19.03-.28.6.12.14-.13.25-.11-.03-.1-.52-.02-1.18-.37-.29-.09-.43.27-.47-.22-.16-.71-.65-.44-.67.02-.77.11-.24-.08-.3c.2-.18.35-.33.57-.5.13.03.8.12.8.12l.13-.13.13.14-.35.37v.17l.18.02.06.2.28-.52.27.13.17.28-.19.2Z" fill="#4DA92C"/><path d="M43.5 24c-2.95 0-5.5 1.64-5.5 4 0 2.36 2.55 4 5.5 4s5.5-1.64 5.5-4c0-2.36-2.55-4-5.5-4Zm7.5 4c0 3.31-3.36 6-7.5 6-4.14 0-7.5-2.69-7.5-6s3.36-6 7.5-6c4.14 0 7.5 2.69 7.5 6ZM19 27v1c0 3.31-3.36 6-7.5 6C7.36 34 4 31.31 4 28s3.36-6 7.5-6a8.1 8.1 0 0 1 6.3 2.74l-2.15 1.05A5.15 5.15 0 0 0 11.5 24C8.71 24 7 25.95 7 28s1.75 4 4.5 4c2.76 0 3.88-1.47 4.46-3H9v-2h10ZM35 29v-1c0-3.31-3.36-6-7.5-6-4.14 0-7.5 2.69-7.5 6s3.36 6 7.5 6a8.1 8.1 0 0 0 6.3-2.74l-2.15-1.05A5.15 5.15 0 0 1 27.5 32c-2.79 0-4.5-1.95-4.5-4s1.75-4 4.5-4c2.76 0 3.88 1.47 4.46 3H25v2h10Z" fill="#0051A0"/></svg>