<!-- by TradingView --><svg width="56" height="56" viewBox="0 0 56 56" xmlns="http://www.w3.org/2000/svg"><path fill="#F0F3FA" d="M0 0h56v56H0z"/><path d="M34.28 16h-1.25c-.2 0-.37.12-.44.3l-7.7 22.1-7.31-21.33A1.62 1.62 0 0 0 16.04 16h-5.42c-1.1 0-1.88 1.03-1.54 2.03l7.82 23.05c.19.55.72.92 1.32.92h6.8c.6 0 1.14-.37 1.33-.92l8.37-24.5c.1-.29-.12-.58-.44-.58Z" fill="#09B5E7"/><path d="M46.54 16h-1.25c-.2 0-.38.12-.44.3l-7.7 22.1-7.32-21.33A1.62 1.62 0 0 0 28.3 16h-5.41c-1.1 0-1.89 1.03-1.55 2.03l7.83 23.05c.18.55.71.92 1.32.92h6.8c.6 0 1.13-.37 1.32-.92l8.38-24.5c.1-.29-.13-.58-.44-.58Z" fill="#3A5896"/></svg>