<!-- by TradingView --><svg xmlns="http://www.w3.org/2000/svg" width="56" height="56" viewBox="0 0 56 56"><path fill="#4A4F55" d="M0 0h56v56H0z"/><path d="M30 15h-3v26h3V15Z" fill="#00A0E3"/><path d="M12 20v16h3v-6h3.01C21 30 23 28.95 23 25c0-3.2-2.04-5-4.99-5H12Zm6.01 6.97H15V23h3.01c1.56 0 1.99 1.03 1.99 2s-.47 1.97-1.99 1.97Zm21.1.03c-1.52-.38-3.15-.8-3.15-2.63 0-2.89 3.28-3 5.51-2.43.67.17 1.32.39 1.95.66v-1.75a10.4 10.4 0 0 0-4.18-.85c-3 0-5.22 1.53-5.22 4.5 0 1.94 1.11 3.2 2.96 3.77.36.11.77.2 1.2.3 1.77.41 3.87.9 3.87 2.88 0 2.32-1.96 2.87-3.94 2.87A10.59 10.59 0 0 1 34 33.4v1.72c.97.6 2.97.88 4.1.88 3.18 0 5.9-1.26 5.9-4.6 0-1.27-.39-2.37-1.49-3.14a9.56 9.56 0 0 0-3.18-1.2l-.06-.02c-.05 0-.1-.02-.16-.04Z" fill="#FEFEFE"/></svg>