<!-- by TradingView --><svg width="56" height="56" viewBox="0 0 56 56" xmlns="http://www.w3.org/2000/svg"><path fill="#F0F3FA" d="M0 0h56v56H0z"/><path d="m22.72 10.08 3.1 4.35.03.07.7 4.27c.04.24-.3.41-.44.22l-3.2-4.45a.18.18 0 0 1-.03-.08l-.6-4.16c-.05-.24.3-.4.44-.22Zm7.48 4.98-1.68-4.38c-.07-.2-.45-.11-.48.1l-.63 3.73.01.07 1.75 4.5c.08.18.45.1.47-.1l.57-3.85v-.07Zm4.01-2.23.24 3.83-.01.06-2.04 3.3c-.09.17-.47.12-.48-.06l-.17-4.05c0-.02 0-.04.02-.06l1.96-3.09c.1-.17.48-.11.48.07Zm3.83 6.72.96-3.43c.05-.16-.3-.34-.43-.23l-2.8 2.03a.1.1 0 0 0-.04.04l-1.1 3.6c-.04.17.3.35.44.24L38 19.6a.1.1 0 0 0 .04-.05Zm-28.11-.22 5.85 1.26c.04 0 .07.02.1.04l4.88 3.22c.24.16.09.53-.2.48l-5.54-1.1a.26.26 0 0 1-.1-.03l-5.2-3.4c-.24-.15-.08-.53.2-.47Zm-.7 5.86 5.61-.35c.03 0 .06 0 .1.02l5.2 1.8c.26.08.22.49-.05.51l-5.28.43-.1-.01-5.54-1.88c-.26-.09-.21-.5.06-.52Zm6.37 4.23-4.71 2.05c-.23.1-.13.53.13.54l5.43.2h.09l4.4-2.04c.23-.1.12-.53-.13-.54l-5.13-.22-.08.01Zm-1.03 7.86 3.33-3.4a.15.15 0 0 1 .07-.04l4.62-1.38c.23-.06.49.3.33.47l-3.07 3.28a.15.15 0 0 1-.07.04l-4.88 1.5c-.23.06-.5-.3-.33-.47Zm6.75.46L19.74 42c-.08.2.32.44.5.3l3.72-2.88a.14.14 0 0 0 .05-.06l1.5-4.27c.08-.2-.32-.44-.5-.3l-3.64 2.9a.14.14 0 0 0-.05.06Zm4.53 7.14-.17-4.72c0-.02 0-.04.02-.07l2.07-3.66c.11-.2.57-.14.59.07l.23 4.57c0 .02 0 .05-.02.07l-2.14 3.8c-.1.2-.57.15-.58-.06Zm4.41-3.42 1.59 4.43c.08.2.5.1.53-.12l.66-4.23-.01-.08-1.69-4.36c-.08-.2-.5-.1-.53.11l-.56 4.18.01.07Zm7.05 3.68-2.76-3.8a.15.15 0 0 1-.03-.07l-.72-4.15c-.04-.22.32-.41.45-.25l2.73 3.71c.02.02.03.05.03.07l.76 4.25c.04.22-.33.42-.46.24Zm1-5.07 3.54 2.83c.17.14.45-.11.34-.31l-2.18-4.2a.17.17 0 0 0-.04-.06l-3.4-2.53c-.17-.13-.43.12-.33.31l2.02 3.9c0 .03.02.05.04.06Zm6.7-.62-4.06-1.87a.17.17 0 0 1-.06-.04l-2.94-3.32c-.14-.16.05-.45.25-.36l3.87 1.69c.02 0 .04.02.06.04l3.14 3.5c.14.16-.05.45-.25.36Zm-2.54-5.1 4.12.72c.2.03.32-.3.15-.41l-3.63-2.54a.15.15 0 0 0-.06-.02l-3.9-.6c-.2-.03-.32.3-.15.42l3.4 2.4c.02.02.05.03.07.03Zm4.38-4.05-3.59.5h-.06l-4.02-1.49c-.18-.07-.16-.42.02-.44l3.68-.5h.06l3.93 1.48c.19.07.17.43-.02.45Zm-4.3-3.38 3.06-1.55c.17-.07.07-.44-.12-.45l-3.84-.43h-.06l-3.25 1.65c-.16.08-.06.44.12.46l4.03.33h.06Zm.43-6.41-2.18 2.55a.1.1 0 0 1-.05.03l-3.67.98c-.17.05-.41-.26-.3-.39l2.33-2.72a.1.1 0 0 1 .05-.03l3.51-.8c.18-.06.42.25.3.38ZM21.6 15.17l-4.3-3.77c-.2-.17-.51.09-.39.32l2.33 4.62.06.07 4.22 3.55c.2.16.5-.09.37-.32l-2.24-4.4a.22.22 0 0 0-.05-.07Zm-8.79-.58 5.39 2.75c.03 0 .05.03.07.05l3.46 3.97c.18.2-.05.52-.3.4L16.5 19.3a.25.25 0 0 1-.08-.06L12.52 15c-.19-.2.05-.52.3-.4Z" fill="#DC6F1E"/></svg>