<!-- by TradingView --><svg width="56" height="56" viewBox="0 0 56 56" xmlns="http://www.w3.org/2000/svg"><path fill="#F0F3FA" d="M0 0h56v56H0z"/><path d="M35.24 13.73A33.59 33.59 0 0 1 32.8 22H13.16a16 16 0 0 1 22.08-8.27Zm3.6 2.5A38.35 38.35 0 0 1 37.13 22h5.72c-.9-2.2-2.27-4.17-4-5.76ZM43.89 26h-8.56a38.94 38.94 0 0 1-10.17 12.48c1.22-.3 2.47-.61 3.72-.97 5.45-1.53 10.9-3.6 14.78-6.16a16.07 16.07 0 0 0 .23-5.35Zm-2.92 11.39a73.13 73.13 0 0 1-11 3.97c-2.49.7-4.94 1.29-7.2 1.76a15.98 15.98 0 0 0 18.2-5.73Zm-24.3 1.89c6.7-3.51 11.18-8.4 14.09-13.28H12.12a15.95 15.95 0 0 0 4.53 13.28Z" fill="#D51E3D"/></svg>