<!-- by TradingView --><svg width="56" height="56" viewBox="0 0 56 56" xmlns="http://www.w3.org/2000/svg"><path fill="#F0F3FA" d="M0 0h56v56H0z"/><path d="M17 21v3h-3.45C11.59 24 10 25.84 10 28c0 2.14 1.58 4 3.53 4 1.63 0 3.06-1.24 3.42-3h-2.92v-3.01h4.22C19 23.1 21.41 21 24.28 21H27v3h-2.6c-1.97 0-3.4 1.87-3.4 4.03S22.43 32 24.4 32H27v3h-2.72a6.18 6.18 0 0 1-5.34-3.27A6.53 6.53 0 0 1 13.4 35C9.9 35 7 31.87 7 28s2.84-7 6.35-7H17Zm11 0h11v3h-4v2h-3v-2h-4v-3Zm7 8h-3v5.92h3V29Z" fill="url(#a)"/><path fill="#F58220" d="M28 27h24v1H28z"/><defs><linearGradient id="a" x1="23.33" y1="21" x2="23.33" y2="35" gradientUnits="userSpaceOnUse"><stop stop-color="#0085CD"/><stop offset="1" stop-color="#32327F"/></linearGradient></defs></svg>