<!-- by TradingView --><svg xmlns="http://www.w3.org/2000/svg" width="56" height="56" viewBox="0 0 56 56"><path fill="#ECB1C9" d="M0 0h56v56H0z"/><path d="M32.85 18.15h-.4c-.66-3.95-3.78-4.65-5.6-4a2.52 2.52 0 0 0-1.79 2.32c0 2.77 5.11 5.7 7.55 7.42a13.8 13.8 0 0 1 5.75 10.5c0 10.1-8.97 10.75-11.18 10.6-2.95-.22-9.34-2.72-9.34-9.01 0-6.3 4.96-8.24 7.47-8.24 2.01 0 3.69.74 4.27 1.1v3.94h-.5c-.03-2.22-2.78-4.03-3.77-4.03-4.75 0-5.22 3.9-5.22 6.96 0 3.05 4.1 8.3 7.89 8.3s7.83-2.17 7.83-7.48c0-5.3-4.15-8.8-5.73-10.07-1.6-1.28-6.92-4.53-6.92-8.31 0-3.79 3.2-5.15 5.5-5.15 1.85 0 3.57.77 4.2 1.15v4z" fill="url(#aatbs0bxm)"/><path d="M32.54 18.15c-.03-1.07-.26-2.92-1-3.65-1.02-1-4.75-1.81-6.39.27-1.64 2.08-.77 4.24.35 5.6.26.3 1 .88 1.98 1.64 3.27 2.5 9.24 7.1 9.41 11.34.22 5.52-1.02 11.16-8.84 11.16s-9.26-8.17-9.26-8.95c0-.78.29-7.32 6.64-7.32 1.33-.1 3.9.6 3.63 4.23-.27-2.08-2.8-3.72-3.75-3.72-4.75 0-5.22 3.9-5.22 6.96 0 3.05 4.1 8.3 7.89 8.3s7.83-2.17 7.83-7.48c0-5.3-4.15-8.8-5.73-10.07-.24-.2-.55-.42-.92-.69-2.12-1.56-6-4.4-6-7.62 0-3.79 3.2-5.15 5.5-5.15 1.85 0 3.57.77 4.2 1.15v4h-.32z" fill="url(#batbs0bxm)"/><path d="M21.7 15.04H14v.4c1.78 0 2.98 1.94 3.36 2.9L27.78 42.4h.33c3.2-7.35 9.8-22.54 10.68-24.5.88-1.97 2.5-2.46 3.21-2.46v-.4h-7.03v.4c1.9 0 2.11 1.47 1.98 2.2l-7.77 20.07c-2.57-6-7.85-18.4-8.46-20.06-.6-1.66.4-2.16.99-2.2v-.41z" fill="#fff"/><path d="M42 15.33c-1.49-.04-3.27 1.1-4 1.7l-9.45 23c-2.9-6.7-8.9-20.58-9.79-22.37-.84-1.67-3.38-2.21-4.76-2.3v.08c1.78 0 2.98 1.94 3.36 2.9L27.78 42.4h.33c3.2-7.35 9.8-22.54 10.68-24.5.88-1.97 2.5-2.46 3.21-2.46v-.1z" fill="#E3E3E3"/><defs><linearGradient id="aatbs0bxm" x1="28.1" y1="13" x2="28.1" y2="45" gradientUnits="userSpaceOnUse"><stop stop-color="#DBDCDC"/><stop offset=".67" stop-color="#F6F8F9"/><stop offset="1" stop-color="#F3F5F6"/></linearGradient><linearGradient id="batbs0bxm" x1="27.85" y1="13" x2="27.85" y2="44.51" gradientUnits="userSpaceOnUse"><stop stop-color="#F2F4F5"/><stop offset=".7" stop-color="#EBECED"/><stop offset="1" stop-color="#F7FAFB"/></linearGradient></defs></svg>