<!-- by TradingView --><svg xmlns="http://www.w3.org/2000/svg" width="56" height="56" viewBox="0 0 56 56"><path fill="#F0F3FA" d="M0 0h56v56H0z"/><path d="M44 26h-1v6h1v-6ZM47.18 29.7l-1.4 2.3h-1.02l1.9-3.14L45 26h1.04l1.68 2.86M48.05 28.86l.53.84 1.38 2.3H51l-1.9-3.14L50.78 26h-1.04l-1.69 2.86ZM17.25 26.77c-.3-.27-.66-.47-1.03-.59a4.54 4.54 0 0 0-1.45-.18H13.5v3.58h1V27h.33c1.33 0 2.37.48 2.37 2 0 .86-.53 1.63-1.35 1.88-.27.08-.61.12-1.02.12h-.37v1h.3a4.6 4.6 0 0 0 1.43-.17A2.9 2.9 0 0 0 18.2 29a2.9 2.9 0 0 0-.95-2.23ZM21.43 32l2.52-6h-1l-1.7 4.18L19.56 26h-1l2.45 6h.4ZM25.75 26l-2.5 6h1l1.7-4.2 1.68 4.2h1l-2.45-6h-.43ZM29.38 26v6h1v-4.17L35 32.45V26h-1v4.22L29.76 26h-.38Z" fill="#7D868C"/><path d="M9.87 30.5a.75.75 0 1 1-1.5 0 .75.75 0 0 1 1.5 0ZM44.25 24a.75.75 0 1 1-1.5 0 .75.75 0 0 1 1.5 0Z" fill="#004987"/><path d="M36 29.58c.14.75.47 1.34.96 1.76.53.43 1.2.66 2.02.66.85 0 1.57-.26 2.16-.78.57-.5.86-1.16.86-1.94 0-.58-.18-1.08-.53-1.47-.34-.4-.92-.75-1.68-1.03l-.97-.36c-.76-.28-1.14-.67-1.14-1.16 0-.79.85-1.26 1.55-1.26.64 0 1.15.36 1.5.88l.97-.53A2.8 2.8 0 0 0 39.23 23c-1.3 0-2.81.77-2.81 2.24 0 .95.63 1.65 1.92 2.15l.94.35c.25.1.47.21.66.32.19.1.33.24.45.36a1.42 1.42 0 0 1 .36.95c0 .46-.17.84-.5 1.15-.32.3-.76.48-1.25.48-.62 0-1.08-.24-1.4-.65-.17-.2-.3-.54-.36-1.02l-1.24.25ZM8.8 23 5 32h1.3l2.74-6.67 2.7 6.67h1.31l-3.73-9H8.8Z" fill="#7D868C"/></svg>