<!-- by TradingView --><svg width="56" height="56" viewBox="0 0 56 56" xmlns="http://www.w3.org/2000/svg"><path fill="#F0F3FA" d="M0 0h56v56H0z"/><path d="M20.04 13.33c1.77.33 4.27.8 7.96.8 3.35 0 5.32-.39 6.96-.7 1.15-.24 2.14-.43 3.33-.43 2.85 0 5.71 3.4 5.71 6.8v9.77C44 32.4 40 46 28 46S12 31.83 12 29.57V19.8c0-3.01 2.07-6.8 5.71-6.8.61 0 1.36.14 2.33.33ZM23.36 18c-2.18.46-3.81 4.05-4.36 5.79 6.1-2.78 13.1 1.54 15.82 4.05-1.13 1.6-5.2 3.76-7.1 4.63-3.32-1.27-6.84-5.16-8.17-6.94-1.31 2.78 1.27 6.56 2.72 8.1A7.5 7.5 0 0 1 19 31.9a6.42 6.42 0 0 0 3.82 5.22C31.55 36.53 37 30.16 37 27.84c0-1.85-2.9-4.63-4.36-5.79a5.8 5.8 0 0 1 3.81 1.74C36.02 21 33.36 18.77 32.1 18c-.87 0-3.27.77-4.36 1.16-.88-.93-3.28-1.16-4.37-1.16Zm4.37 7.53c-.88 0-3.28 1.54-4.37 2.31.88.93 3.28 1.93 4.37 2.32.87 0 3.27-1.55 4.36-2.32-.44-.46-3.09-1.73-4.36-2.31ZM23.9 37.68 27.73 40l3.82-2.32c-1.1-.19-3.39-.7-3.82-1.15-.91.38-2.95 1.15-3.82 1.15Z" fill="#143129"/></svg>