<!-- by TradingView --><svg width="56" height="56" viewBox="0 0 56 56" xmlns="http://www.w3.org/2000/svg"><path fill="#036" d="M0 0h56v56H0z"/><path d="M25 43h-3l.97-17.03a.53.53 0 0 1 1.06 0L25 43Z" fill="url(#a5oc3f3k3)"/><path d="M29 43h-3l.98-26.31a.52.52 0 0 1 1.04 0L29 43Z" fill="url(#b5oc3f3k3)"/><path d="M34 43h-4l1.48-32.5a.52.52 0 0 1 1.04 0L34 43Z" fill="url(#c5oc3f3k3)"/><defs><linearGradient id="a5oc3f3k3" x1="23.5" y1="25.47" x2="23.5" y2="43" gradientUnits="userSpaceOnUse"><stop stop-color="#846DB0"/><stop offset=".59" stop-color="#8A77B1"/><stop offset="1" stop-color="#AFACD0"/></linearGradient><linearGradient id="b5oc3f3k3" x1="27.5" y1="16.19" x2="27.5" y2="43" gradientUnits="userSpaceOnUse"><stop stop-color="#138CCC"/><stop offset=".54" stop-color="#33A4D1"/><stop offset=".96" stop-color="#73C5D9"/></linearGradient><linearGradient id="c5oc3f3k3" x1="32" y1="10" x2="32" y2="43" gradientUnits="userSpaceOnUse"><stop stop-color="#069BAE"/><stop offset=".53" stop-color="#54ADAC"/><stop offset="1" stop-color="#7CCBD0"/></linearGradient></defs></svg>