<!-- by TradingView --><svg width="56" height="56" viewBox="0 0 56 56" xmlns="http://www.w3.org/2000/svg"><path fill="#F60" d="M0 0h56v56H0z"/><path d="M12 21h1.52c.73 0 1.48-.08 1.48-.96 0-.9-.84-1.04-1.57-1.04H12v2Zm-2-4h3.04c1.99 0 3.96.63 3.96 3.04 0 2.19-1.72 2.96-3.7 2.96H12v3h-2v-9ZM24 26h-2v-.94c-.3.66-.81.94-1.52.94-1.66 0-2.48-1.4-2.48-2.94V19h2v3.64c0 .72.17 1.36.97 1.36.79 0 1.03-.7 1.03-1.38V19h2v7ZM27 22.47c0 .9.5 1.53 1.44 1.53.92 0 1.56-.62 1.56-1.52 0-.89-.61-1.48-1.52-1.48-.92 0-1.48.58-1.48 1.47ZM25 17h2v2.75c.68-.76 1.54-.75 1.82-.75 1.91 0 3.18 1.62 3.18 3.44 0 1.9-1.28 3.56-3.27 3.56-.68 0-1.39-.3-1.73-.95V26h-2v-9ZM34 33.47c0 .9-.5 1.53-1.44 1.53-.92 0-1.56-.62-1.56-1.52 0-.89.61-1.48 1.52-1.48.92 0 1.48.58 1.48 1.47ZM36 30h-2v.75c-.68-.76-1.53-.75-1.81-.75-1.92 0-3.19 1.62-3.19 3.44 0 1.9 1.28 3.56 3.27 3.56.68 0 1.39-.3 1.73-.95V37h2v-7ZM33 17h2v9h-2v-9ZM38 19h-2v-2h2v2ZM36 26h2v-6h-2v6ZM7.86 30.7c-.1-.46-.3-.7-.84-.7-.55 0-1.02.28-1.02.68 0 1.69 4 .65 4 3.66C10 36.04 8.67 37 7.05 37 5.25 37 4 35.87 4 34h2.15c0 .54.25 1 .88 1 .62 0 .97-.54.97-1 0-.53-4-1.04-4-3.45C4 29.01 5.63 28 7.09 28c1.65 0 2.81 1.1 2.91 2.7H7.86ZM46 23c0 1.5-1.84 3-3.46 3A3.53 3.53 0 0 1 39 22.49c0-1.9 1.57-3.49 3.49-3.49 1.66 0 3.5 1.5 3.5 3h-2c0-.5-.78-1-1.43-1-.95-.03-1.56.6-1.56 1.5s.62 1.5 1.56 1.5c.63 0 1.44-.5 1.43-1H46ZM14 30h1v2h-1v5h-2v-5h-1v-2h1v-2h2v2Z" fill="#F0F3FA"/><path fill-rule="evenodd" d="M19.5 30a3.47 3.47 0 0 0-3.5 3.5c0 1.96 1.55 3.5 3.5 3.5s3.5-1.54 3.5-3.5-1.55-3.5-3.5-3.5Zm0 2a1.5 1.5 0 1 0 0 3 1.5 1.5 0 0 0 0-3Z" fill="#F0F3FA"/><path d="M24 30h2v.97c.25-.6.84-.97 1.5-.97v2.04c-.82.03-1.5.36-1.5 1.24V37h-2v-7ZM40.48 35c.94 0 1.52-.47 1.52-1.37 0-.9-.53-1.63-1.5-1.63-1.04 0-1.51.7-1.5 1.5.01.8.51 1.5 1.48 1.5ZM44 36.17c0 2.26-1.4 3.83-3.66 3.83-1.46 0-3.14-.8-3.34-2.38h2.35c.2.46.66.67 1.13.67 1.04 0 1.52-1.1 1.52-2.08V36c-.3.65-1.06 1-1.74 1A3.23 3.23 0 0 1 37 33.65c0-1.87 1.27-3.65 3.26-3.65.7 0 1.37.24 1.74.85V30h2v6.17ZM50 33c-.18-.7-.78-1-1.5-1s-1.32.3-1.5 1h3Zm1.77 1.53A3.48 3.48 0 0 1 48.52 37 3.54 3.54 0 0 1 45 33.52c0-1.9 1.58-3.52 3.49-3.52A3.6 3.6 0 0 1 52 33.5c0 .2 0 .3-.05.5H47c.13.77.76 1 1.52 1 .5 0 .9-.08 1.21-.47h2.04Z" fill="#F0F3FA"/></svg>