<!-- by TradingView --><svg width="56" height="56" viewBox="0 0 56 56" fill="none" xmlns="http://www.w3.org/2000/svg">
<rect width="56" height="56" fill="#F0F3FA"/>
<path d="M30.56 12V12.4142L31.6182 12.8285C31.8913 12.932 32.062 13.1046 31.9254 13.5534L29.4676 21.0097C29.2969 21.562 28.9897 22.356 28.9556 22.9428H28.8873C28.8532 22.356 28.6142 21.7001 28.4435 21.0442L26.2588 13.5189C26.1222 13.0701 26.2929 12.8975 26.566 12.794L27.6242 12.3797V12H21.6503V12.3797L22.2307 12.7594C22.4696 12.932 22.6062 13.1046 22.7427 13.5189L26.1564 25H30.0479L33.7688 13.5189C33.9395 13.1046 34.0419 12.932 34.2809 12.7594L34.8612 12.3797V12H30.56ZM33.9395 43.206C33.7005 43.0334 33.564 42.8608 33.4275 42.4466L30.0138 31H26.1222L22.4014 42.4466C22.2307 42.8608 22.1283 43.0334 21.8893 43.206L21.309 43.5858V44H25.5419V43.5858L24.4837 43.1715C24.2106 43.068 24.0399 42.8954 24.1765 42.4466L26.6343 34.9903C26.805 34.438 27.1122 33.644 27.1463 33.0572H27.2146C27.2487 33.644 27.4877 34.2999 27.6584 34.9558L29.8431 42.4811C29.9797 42.9299 29.809 43.1025 29.5359 43.206L28.4777 43.6203V44H34.5198V43.6203L33.9395 43.206ZM18.5439 15.8317C18.2708 15.4865 18.1684 15.2794 18.1343 15.0032L18.1001 14.3128L17.7588 14.1402L15.6423 17.8684L15.9837 18.041L16.8712 17.3161C17.1102 17.109 17.315 17.0399 17.6222 17.4196L22.7769 23.3225C23.1524 23.7713 23.6985 24.4272 24.1765 24.7379L24.1423 24.8069C23.6303 24.5653 22.9475 24.4272 22.2989 24.2546L14.7548 22.425C14.2769 22.3215 14.2427 22.1143 14.2769 21.8037L14.4475 20.6645L14.1062 20.4919L11.1363 25.7044L11.4777 25.877L12.0921 25.5663C12.3311 25.4283 12.57 25.3937 13.0138 25.4973L24.6546 28.1495L26.4494 25.1582L18.5439 15.8317Z" fill="#686866"/>
<path d="M44.6245 30.1575L44.01 30.4682C43.7711 30.6063 43.5321 30.6408 43.0884 30.5372L31.3388 28.0518L29.709 30.9964L37.5924 40.1338C37.8655 40.479 37.9679 40.6861 38.002 40.9622L38.0361 41.6526L38.3775 41.8252L40.494 38.0971L40.1526 37.9245L39.2651 38.6494C39.0261 38.8565 38.8213 38.9256 38.5141 38.5458L33.3594 32.712C32.9839 32.2632 32.4377 31.6073 31.9598 31.2966L31.994 31.2276C32.506 31.4692 33.1888 31.6073 33.8373 31.7799L41.3815 33.6095C41.8594 33.713 41.8936 33.9202 41.8594 34.2308L41.6888 35.37L42.0301 35.5426L45 30.3301L44.6245 30.1575ZM12.8775 30.261C12.4337 30.3301 12.2289 30.3301 11.9558 30.192L11.3414 29.8813L11 30.0539L13.1165 33.7821L13.4578 33.6095L13.2872 32.4703C13.2189 32.1942 13.2871 31.9525 13.7651 31.849L21.4116 30.261C21.992 30.123 22.8112 29.9849 23.3233 29.7433L23.3574 29.8123C22.8795 30.123 22.4357 30.6408 21.9578 31.1586L16.6325 36.8544C16.3253 37.1996 16.0863 37.1305 15.8815 36.9579L14.994 36.233L14.6526 36.4056L17.6225 41.6181L17.9639 41.4455L17.998 40.7551C18.0321 40.479 18.1004 40.2718 18.4076 39.9266L26.532 30.9964L24.6959 28.0518L12.8775 30.261ZM42.8494 21.9763L42.508 22.1489L42.6787 23.288C42.747 23.5642 42.6787 23.8058 42.2008 23.9094L34.5542 25.4973C33.9739 25.6354 33.1546 25.7735 32.6426 26.0151L32.6084 25.9461C33.0863 25.6354 33.5301 25.1176 34.008 24.5998L39.3333 18.9385C39.6406 18.5933 39.8795 18.6623 40.0843 18.8349L40.9719 19.5599L41.3133 19.3873L38.3434 14.1748L38.002 14.3474L37.9679 15.0378C37.9337 15.3139 37.8655 15.521 37.5582 15.8662L29.5852 24.9519L31.3388 28.0518L43.0542 25.4628C43.498 25.3937 43.7028 25.3937 43.9759 25.5318L44.5904 25.8425L44.9317 25.6699L42.8494 21.9763Z" fill="#686866"/>
<path d="M29.778 25H26.2962L24.5858 28.0152L26.2962 31H29.778L31.5189 28.0152L29.778 25Z" fill="black"/>
</svg>
