<!-- by TradingView --><svg width="56" height="56" viewBox="0 0 56 56" xmlns="http://www.w3.org/2000/svg"><path fill="#F0F3FA" d="M0 0h56v56H0z"/><path d="M28.1 15.5 9.06 18.28a3 3 0 0 0-2.57 2.96v13.85a3 3 0 0 0 2.62 2.97l18.97 2.44 18.8-2.43a3 3 0 0 0 2.61-2.97V21.24a3 3 0 0 0-2.56-2.97L28.09 15.5Z"/><path d="M28.1 15 47 17.78a3.5 3.5 0 0 1 3 3.46V35.1a3.5 3.5 0 0 1-3.05 3.46L28.09 41 9.06 38.56A3.5 3.5 0 0 1 6 35.09V21.24a3.5 3.5 0 0 1 3-3.46L28.1 15Zm0 1L9.13 18.78A2.5 2.5 0 0 0 7 21.24v13.85a2.5 2.5 0 0 0 2.18 2.48l18.91 2.42 18.73-2.42A2.5 2.5 0 0 0 49 35.1V21.24a2.5 2.5 0 0 0-2.14-2.47L28.1 16Z" fill="#FECC0C"/><path d="m28.03 32.83.61 1.5 1.6.13-1.22 1.05.38 1.57-1.37-.84-1.38.84.38-1.57-1.23-1.05 1.6-.13.63-1.5Z" fill="#FECC0C"/><path fill-rule="evenodd" d="M11 31.16v-7.67l2.7-.18c.59-.05 1.75.25 1.71 1.81-.04 1.82-.55 1.8-.92 1.8h-.08c.33.09 1 .45 1 1.16v2.74l-1.84.15v-2.9c0-.17-.12-.52-.57-.49v3.39l-2 .19Zm2-4.83v-1.7c.2-.04.57.07.57.8 0 .72-.36.9-.57.9ZM40.45 30.93v-7.67l2.77.1c.65.12 1.81.32 1.78 1.9-.03 1.56-.77 1.89-1.13 1.89.34.1 1.13.4 1.13 1.1v2.97l-2-.16v-3.21c0-.18-.09-.53-.53-.5v3.71l-2.02-.13Zm2.02-4.73v-1.47c.13-.03.58.12.58.74 0 .63-.45.73-.58.73Z" fill="#FECC0C"/><path d="m16.86 30.8.98-7.65 2.83-.15 1.16 7.59-2.03.1-.1-1.32h-.75l-.12 1.32-1.97.11Zm2.21-2.83h.51l-.24-3.02-.27 3.02ZM23 23v7.74h2v-3.33l1.1 3.33H28V23h-2v3.28L24.87 23H23ZM33.6 24.93V26h-1.93v-1.32c0-.2-.16-.37-.36-.37-.2 0-.31.17-.31.37v4.58c0 .2.1.37.3.37.21 0 .38-.17.38-.37v-1.41h-.4V26.7h2.31v4.21h-1.18l-.27-.66c0 .37-.3.66-.66.66h-.91c-.87 0-1.57-.7-1.57-1.56v-4.43c0-1.07.87-1.93 1.94-1.93h.72c1.07 0 1.93.86 1.93 1.93ZM35.06 23.01l3.94.2v1.62l-2-.12v1.32l2 .16v1.54l-2-.14v1.56l2 .14v1.62l-3.94-.24v-7.66Z" fill="#FECC0C"/></svg>