<!-- by TradingView --><svg width="56" height="56" viewBox="0 0 56 56" xmlns="http://www.w3.org/2000/svg"><path fill="#F0F3FA" d="M0 0h56v56H0z"/><path d="M7 35H4c0-2 .52-6.7 3.84-9.57A10.38 10.38 0 0 1 17 23.3c-3.83 0-5.43 1.73-7.35 4.12C8.12 29.34 7.11 33.5 7 35Z" fill="#ED1D24"/><path d="m15 24 .2.02c.52.03.9-.18 2.82.24 2.16.48 3.45 2.23 4.1 3.43.54.99.97 3.27.86 4.31H21c0-1.04-.14-2.86-1-4.5a7.05 7.05 0 0 0-5-3.5Z" fill="#971B1E"/><path d="M25.5 25.21H25V27h-1v-5h1.5c.59 0 1.01.2 1.36.5.34.3.51.67.51 1.14 0 .46-.17.85-.52 1.14-.34.29-.8.43-1.34.43Zm-.07-2.54H25v1.93h.45c.37 0 .65-.09.84-.26a.9.9 0 0 0 .3-.7.9.9 0 0 0-.3-.71c-.2-.18-.48-.26-.86-.26ZM43 26.7c-.31.2-.75.3-1.3.3a2.7 2.7 0 0 1-1.9-.67 2.42 2.42 0 0 1-.8-1.83c0-.73.3-1.34.8-1.8.48-.46 1.13-.7 1.88-.7.55 0 .98.09 1.31.27V23c-.22-.12-.42-.2-.6-.24-.18-.05-.4-.07-.69-.07-.5 0-.93.16-1.28.5-.37.33-.54.77-.54 1.31 0 .56.17 1 .54 1.32.34.33.79.5 1.34.5.5 0 .9-.13 1.24-.37v.75ZM44.5 27H44v-4h.5v4ZM48 23.5h-1V27h-.5v-3.5h-1V23H48v.5ZM50.66 27H50v-1.65L48.73 23h.69l.28.55a42.06 42.06 0 0 1 .62 1.26l.04.07c.03-.11.26-.55.67-1.33l.28-.55H52l-1.34 2.35V27ZM28.34 25.36l-.07.19h1.26l-.07-.19a121.78 121.78 0 0 1-.52-1.62l-.03-.1-.57 1.72ZM27.8 27h-.64l1.34-4h1l1.14 4H30l-.3-1H28.1l-.31 1ZM32.1 23.48h-.5v1.36h.53c.25 0 .44-.06.57-.18.12-.13.19-.3.19-.5 0-.46-.26-.68-.79-.68ZM31.6 27H31v-4h1.09c.45 0 .8.1 1.04.32.24.2.36.49.36.84 0 .27-.07.5-.2.68-.14.18-.33.3-.57.39L33.74 27h-.71l-.92-1.68h-.52V27ZM37 27h-.76l-1.57-1.85 1.6-2.15H37l-1.61 2.15L37 27Zm-2.4 0H34v-4h.6v4Z"/><path d="M52 32H21v-.5h31v.5Z" fill="#971B1E"/><path d="M27 29.56v1.12a2.09 2.09 0 0 1-1.2.32 2.4 2.4 0 0 1-.74-.1 1.74 1.74 0 0 1-.57-.32A1.36 1.36 0 0 1 24 29.5a1.35 1.35 0 0 1 .47-1.09c.16-.13.34-.23.56-.3.21-.07.46-.11.72-.11a2.1 2.1 0 0 1 1.25.42c-.05.07-.11.2-.21.23-.07.01-.14-.04-.24-.1a1.6 1.6 0 0 0-.8-.2c-.2 0-.38.02-.53.08-.16.05-.3.13-.4.23a1 1 0 0 0-.26.36c-.06.14-.09.3-.09.48 0 .19.03.35.1.5a1.06 1.06 0 0 0 .68.6c.16.05.34.08.54.08a1.8 1.8 0 0 0 .8-.18v-.64h-.54c-.03 0-.06 0-.08-.02a.07.07 0 0 1-.02-.06v-.22H27ZM31.75 29.45c.1 0 .2-.01.28-.04a.5.5 0 0 0 .33-.31.67.67 0 0 0 .04-.24c0-.18-.05-.31-.16-.4-.1-.1-.26-.14-.48-.14h-.4v1.13h.39ZM33 31h-.32a.16.16 0 0 1-.15-.09l-.7-1.07a.2.2 0 0 0-.07-.07.22.22 0 0 0-.12-.02h-.28V31H31v-3h.76c.18 0 .32.02.45.06.12.04.23.1.3.16.09.08.15.16.19.27.04.1.06.21.06.34 0 .1-.02.2-.05.3a.8.8 0 0 1-.34.43.96.96 0 0 1-.28.12c.05.03.09.07.12.13L33 31ZM40 29.5c0 .22-.04.42-.1.6a1.38 1.38 0 0 1-.79.8c-.18.06-.39.1-.61.1-.22 0-.43-.04-.61-.1a1.38 1.38 0 0 1-.78-.8c-.07-.18-.11-.38-.11-.6 0-.22.04-.42.1-.6a1.38 1.38 0 0 1 .79-.79c.18-.07.39-.11.6-.11.23 0 .44.04.62.11a1.37 1.37 0 0 1 .78.79c.07.18.11.38.11.6Zm-.42 0c0-.18-.03-.34-.08-.48a.94.94 0 0 0-.56-.6 1.19 1.19 0 0 0-.44-.08c-.16 0-.31.03-.44.08a.96.96 0 0 0-.56.6c-.05.14-.08.3-.08.48s.03.34.08.49c.05.14.12.26.21.36.1.1.21.17.35.23.13.05.28.08.44.08.16 0 .31-.03.44-.08a.95.95 0 0 0 .56-.6c.05-.14.08-.3.08-.48ZM45 30.65c.1 0 .2-.02.28-.07.08-.04.15-.1.2-.17.06-.07.1-.16.14-.27.03-.1.04-.21.04-.34V28H46v1.8c0 .17-.02.33-.07.48-.05.14-.11.27-.2.38A.91.91 0 0 1 45 31a.94.94 0 0 1-.73-.34c-.09-.1-.15-.24-.2-.38a1.6 1.6 0 0 1-.07-.48V28h.34v1.8c0 .12.01.24.04.34.03.1.08.2.13.27.06.07.13.13.21.17.08.05.18.07.28.07ZM50.88 29.56c.12 0 .22-.02.3-.05a.64.64 0 0 0 .23-.13c.06-.05.11-.12.14-.2a.68.68 0 0 0 .05-.25c0-.2-.06-.34-.18-.45-.12-.1-.3-.16-.54-.16h-.48v1.24h.48Zm0-1.56c.2 0 .36.02.5.07.14.04.25.1.35.18.09.08.16.18.2.3.05.11.07.24.07.38s-.02.27-.07.38a.82.82 0 0 1-.22.3 1 1 0 0 1-.35.2c-.14.04-.3.07-.48.07h-.48V31H50v-3h.88Z"/></svg>