<!-- by TradingView --><svg xmlns="http://www.w3.org/2000/svg" width="56" height="56"><path fill="#EF2729" d="M0 0h56v56H0z"/><path fill-rule="evenodd" d="M15.5 19.5c0-.28.22-.5.5-.5h2c.28 0 .5.22.5.5v.5h7c.28 0 .5.22.5.5v1a.5.5 0 01-.5.5h-17a.5.5 0 01-.5-.5v-1c0-.28.22-.5.5-.5h7v-.5zm-4 3.5a.5.5 0 00-.5.5v3c0 .28.22.5.5.5h11a.5.5 0 00.5-.5v-3a.5.5 0 00-.5-.5h-11zm1.7 1.5a.2.2 0 00-.2.2v.6c0 .11.09.2.2.2h7.6a.2.2 0 00.2-.2v-.6a.2.2 0 00-.2-.2h-7.6zm18.3-.5h-2a.5.5 0 00-.5.5v1c0 .28.22.5.5.5h1.2c.17 0 .3.13.3.3V36a1 1 0 001 1h15.5a.5.5 0 00.5-.5v-1a.5.5 0 00-.5-.5H33.3a.3.3 0 01-.3-.3V24.5a.5.5 0 00-.5-.5h-1zm4.5.5c0-.28.22-.5.5-.5h9c.28 0 .5.22.5.5v1a.5.5 0 01-.5.5H42v1h4.5c.28 0 .5.22.5.5v1a.5.5 0 01-.5.5H42v4a1 1 0 01-1 1h-2.5a.5.5 0 01-.5-.5v-1c0-.28.22-.5.5-.5h1.2a.3.3 0 00.3-.3V29h-4.5a.5.5 0 01-.5-.5v-1c0-.28.22-.5.5-.5H40v-1h-3.5a.5.5 0 01-.5-.5v-1zM9.5 28a.5.5 0 00-.5.5v8c0 .28.22.5.5.5h1a.5.5 0 00.5-.5V30c0-.28.22-.5.5-.5h11c.28 0 .5.22.5.5v6.5c0 .28.22.5.5.5h1a.5.5 0 00.5-.5v-8a.5.5 0 00-.5-.5h-15zm2.5 3.5c0-.28.22-.5.5-.5h9c.28 0 .5.22.5.5v3a.5.5 0 01-.5.5h-9a.5.5 0 01-.5-.5v-3zm2 1.1c0-.11.09-.2.2-.2h5.6c.11 0 .2.09.2.2v.8a.2.2 0 01-.2.2h-5.6a.2.2 0 01-.2-.2v-.8zm16.66-12.36a.5.5 0 01.43-.5l1.35-.16c.3-.04.56.2.56.5v2.28a.5.5 0 01-.45.5l-1.34.14a.5.5 0 01-.55-.5v-2.26zm5.1 9.76a.5.5 0 00-.5.41l-.53 3a.5.5 0 00.49.59h1.1a.5.5 0 00.5-.41l.55-3a.5.5 0 00-.5-.59h-1.12zm10.09.41a.5.5 0 00-.5-.41h-1.12a.5.5 0 00-.5.59l.56 3a.5.5 0 00.49.41h1.1a.5.5 0 00.5-.59l-.53-3zm-11.65-8.8l5.52-2.31c.23-.1.8-.3 1.3-.3s1.09.2 1.31.3l5.26 2.21c.18.06.5.27.39.65l-.48 1.07c-.05.1-.25.24-.62.08l-4.6-1.94c-.21-.1-.77-.29-1.26-.28-.48.01-1.07.19-1.3.28l-4.56 1.96c-.28.12-.52.08-.62-.15l-.46-1c-.08-.14-.17-.44.12-.56z" fill="#fff"/></svg>