<!-- by TradingView --><svg width="56" height="56" viewBox="0 0 56 56" xmlns="http://www.w3.org/2000/svg"><path fill="#F0F3FA" d="M0 0h56v56H0z"/><path fill-rule="evenodd" d="M13.67 28.3c.1-.38.02-.42-.2-.1-.32.42-.7 1.06-1.15 1.92-.1.17-.15.16-.18-.04a13.3 13.3 0 0 1 1.3-8.06 12.87 12.87 0 0 1 21.64-2.03c4.43 5.74 3.36 14-2.43 18.4a12.78 12.78 0 0 1-16.74-1.1c-1.42-1.37-2.3-2.54-2.2-4.44.02-.46.03-.65.45-.88.59-.33 1-.59 1.27-.77.12-.09.1-.14-.04-.17l-1.86-.37a.2.2 0 0 1-.12-.08.21.21 0 0 1-.04-.14c.04-.8.14-1.5.3-2.14Zm17.3-5.76a.17.17 0 0 0-.19.02l-2.28 1.72c-.2.15-.28.1-.23-.14l.42-2.1a.26.26 0 0 0-.11-.27l-.93-.58c-.82-.52-1.47-.93-1.53-1.08a.11.11 0 0 1 .04-.13.12.12 0 0 1 .05-.02l2.75-.5c.05 0 .09-.02.12-.05a.23.23 0 0 0 .06-.12l.49-2.47c.04-.23.12-.24.23-.04l1.26 2.28a.17.17 0 0 0 .16.1l2.33-.14a.11.11 0 0 1 .1.05.11.11 0 0 1 0 .12l-1.05 1.83a.23.23 0 0 0 0 .22l1.18 2.51c.07.14.03.18-.1.11l-2.77-1.32ZM19 22.95l2.1-1.07a.09.09 0 0 0 .06-.07l.22-2.53a.09.09 0 0 1 .07-.08.09.09 0 0 1 .1.04l1.3 1.76c.01.02.03.03.05.03h.05l2.16-.72a.09.09 0 0 1 .1.02.09.09 0 0 1 0 .1l-.94 2.02a.09.09 0 0 0 0 .07l1.15 2.3a.09.09 0 0 1-.06.13h-.05l-2.23-.83a.09.09 0 0 0-.09.02l-1.9 1.91a.09.09 0 0 1-.14-.07l.18-2.01a.09.09 0 0 0-.06-.1l-2.06-.75a.09.09 0 0 1-.06-.08.09.09 0 0 1 .05-.09Zm-.88 2.55.17-1.9v-.05a.08.08 0 0 0-.08-.05l-.04.02-1.3 1a.08.08 0 0 1-.1 0l-1.53-.9a.08.08 0 0 0-.11.04v.04l.33 1.92v.03l-.02.03L14.44 27a.08.08 0 0 0-.01.08.08.08 0 0 0 .06.04l1.52.14.04.02.03.04.28 1.59a.08.08 0 0 0 .06.06.08.08 0 0 0 .08-.04l1.06-1.85a.08.08 0 0 1 .06-.04l2.05-.12a.08.08 0 0 0 .07-.05.08.08 0 0 0-.02-.09l-1.56-1.21a.08.08 0 0 1-.03-.07Zm.1 9.8 1.3.26c.11.02.12.06 0 .12-.39.2-.8.36-1.25.45a.19.19 0 0 0-.15.2l.12 1.5c.02.29-.05.32-.23.08L16.9 36.4a.21.21 0 0 0-.19-.1l-1.01.04c-.46.02-.5-.12-.16-.43a.86.86 0 0 0 .27-.45.26.26 0 0 0-.03-.2l-.8-1.25c-.1-.16-.07-.19.1-.1l1.34.79a.35.35 0 0 0 .45-.1l.7-.9c.15-.19.24-.17.29.07l.24 1.4c0 .03.02.06.04.08l.09.05Zm3.97-.85-.37 1.01c-.04.1-.11.16-.23.15l-.84-.08c-.35-.03-.39.06-.11.28l.08.07c.38.3.8.64.5 1.2-.13.25-.22.48-.25.69-.02.1.02.13.12.08.14-.07.28-.16.42-.26.4-.28.8-.56 1.26-.3.28.17.6.36.96.6.08.05.1.03.07-.06l-.39-1.17a.26.26 0 0 1 .05-.24l.66-.86c.1-.13.07-.18-.1-.15l-.75.13a.35.35 0 0 1-.38-.2l-.42-.9c-.1-.23-.2-.22-.28.01Zm23.72-15.5-3.57-.03a.08.08 0 0 1-.07-.05l-1.22-3.38a.08.08 0 0 0-.07-.05.07.07 0 0 0-.07.05l-1.14 3.41a.08.08 0 0 1-.07.05l-3.56.13a.07.07 0 0 0-.07.05.08.08 0 0 0 .03.09l2.86 2.14a.08.08 0 0 1 .03.08l-.98 3.46a.08.08 0 0 0 .02.08.07.07 0 0 0 .1 0l2.9-2.08a.07.07 0 0 1 .09 0l2.95 2a.07.07 0 0 0 .12-.03v-.05l-1.07-3.43a.08.08 0 0 1 .03-.08l2.8-2.22c.02 0 .03-.02.04-.03a.08.08 0 0 0-.08-.1Z" fill="#D51516"/></svg>