<!-- by TradingView --><svg width="56" height="56" viewBox="0 0 56 56" xmlns="http://www.w3.org/2000/svg"><path fill="#F0F3FA" d="M0 0h56v56H0z"/><path d="M12 16v-1.4l2.6-2.6H16v1.4L13.4 16H12ZM40 44v-1.4l2.6-2.6H44v1.4L41.4 44H40ZM12 22v-1.46L20.54 12H22v1.46L13.46 22H12ZM23 22v-1.46L31.54 12H33v1.46L24.46 22H23ZM34 33v-1.48L42.52 23H44v1.48L35.48 33H34ZM34 38v-1.48L42.52 28H44v1.48L35.48 38H34ZM34 44v-1.48L42.52 34H44v1.48L35.48 44H34ZM17 22v-1.49L25.51 12H27v1.49L18.49 22H17ZM13 37v-1.42L36.58 12H38v1.42L14.42 37H13ZM12 44v-1.45L42.55 12H44v1.45L13.45 44H12ZM21 41v-1.42L42.58 18H44v1.42L22.42 41H21Z" fill="#004C97"/><path d="M18 15h1.46l2.04 2.04v1.46h-1.46L18 16.46V15ZM23 20.47h1.53L27 22.93v1.54h-1.53L23 22v-1.53ZM18 31h1.53L22 33.47V35h-1.53L18 32.53V31ZM23 32h1.53L27 34.47V36h-1.53L23 33.53V32ZM26 29h1.53L30 31.47V33h-1.53L26 30.53V29ZM34 21h1.53L38 23.47V25h-1.53L34 22.53V21ZM37 34h1.53L41 36.47V38h-1.53L37 35.53V34ZM31.44 12.02h1.44l11.06 11.1v1.45h-1.43l-11.06-11.1v-1.45ZM40 15h1.53L44 17.47V19h-1.53L40 16.53V15ZM29 20.64h1.43l2.31 2.32v1.44h-1.43L29 22.08v-1.44ZM35 26h1.52L44 33.48V35h-1.52L35 27.52V26Z" fill="#004C97"/><path d="M37 12h1.53L41 14.47V16h-1.53L37 13.53V12ZM28.5 15.5h1.53L32 17.47V19h-1.53l-1.97-1.97V15.5ZM20.39 12h1.43l5.24 5.26v1.44h-1.44l-5.23-5.26V12Z" fill="#004C97"/></svg>