<!-- by TradingView --><svg xmlns="http://www.w3.org/2000/svg" width="56" height="56" viewBox="0 0 56 56"><path fill="#F0F3FA" d="M0 0h56v56H0z"/><path d="M9.52 26.8l.01.03.49-.27a3.34 3.34 0 0 0-.6-.75A3.38 3.38 0 0 0 7.2 25a3.3 3.3 0 0 0-2.54 1.13C4.05 26.87 4 27.63 4 28c0 .98.43 1.86 1.2 2.43.36.26.95.58 2 .58 1.07 0 1.7-.38 2.07-.64.51-.39.74-.78.88-1.01l.01-.02-.49-.24a2.7 2.7 0 0 1-2.45 1.4 2.43 2.43 0 0 1-2.62-2.47c0-.29.06-1.1.69-1.75.69-.7 1.61-.76 1.93-.76.28 0 1.21.04 1.87.71.22.22.37.48.43.58zm4.45 3.26a6.93 6.93 0 0 0-.1-.2L11.73 25H11v6h.51v-5.35l.08.26.04.1.04.1L13.85 31h.56l2.15-4.94.15-.35.02-.05V31h.5v-6h-.7l-2.4 5.5-.05-.16a6.96 6.96 0 0 0-.08-.2l-.03-.08zM23.36 25v.5H21V31h-.54v-5.5H18V25h5.36zm5.7 1.41c.13.15.18.23.27.4l.53-.31-.02-.03c-.1-.16-.3-.48-.67-.77a3.71 3.71 0 0 0-2.2-.7c-1.4 0-2.18.65-2.54 1.07-.64.75-.7 1.61-.7 1.95a2.89 2.89 0 0 0 2.23 2.85c.46.12.79.13.98.13 1.1 0 1.82-.47 2.12-.75.1-.1.28-.27.44-.57V31h.5v-3h-3.51v.5h3.01c0 .1-.02.24-.12.53a2.35 2.35 0 0 1-1.56 1.35c-.37.1-.69.12-.83.12-1.16 0-1.81-.53-2.12-.89a2.5 2.5 0 0 1-.55-1.6c0-1.04.57-1.93 1.56-2.31.45-.18.86-.19 1.04-.19.8 0 1.63.25 2.15.9z" fill="#162C53"/><path d="M45.15 24.12c.16.07.31.2.41.33a1.01 1.01 0 0 1-.08 1.22c-.13.14-.42.33-.9.33-.05 0-.16 0-.3-.02a1.02 1.02 0 0 1-.73-.45.98.98 0 0 1-.13-.51.99.99 0 0 1 .21-.63c.03-.03.06-.07.12-.11.13-.11.39-.28.82-.28.08 0 .34 0 .58.12zm-1.26.35a.64.64 0 0 0-.16.26.88.88 0 0 0-.04.28c0 .07 0 .27.13.45.03.03.07.08.15.14.11.08.3.16.62.16.05 0 .17 0 .32-.03a.7.7 0 0 0 .52-.52c.01-.04.03-.12.03-.21a.78.78 0 0 0-.07-.34c-.2-.44-.75-.43-.86-.43-.08 0-.42.02-.64.24zm-8.01.06l.05.08.29-.06a1.02 1.02 0 0 0-.16-.22c-.08-.08-.16-.13-.2-.16a1.48 1.48 0 0 0-.71-.17c-.07 0-.38 0-.62.13-.08.04-.16.09-.22.15a.73.73 0 0 0-.14.15.95.95 0 0 0-.17.56.93.93 0 0 0 .42.82c.14.08.36.19.73.19.12 0 .67 0 .98-.36l.13-.2-.29-.07a.66.66 0 0 1-.1.15c-.22.24-.59.24-.68.24l-.22-.01a.85.85 0 0 1-.53-.29.79.79 0 0 1-.15-.47.69.69 0 0 1 .26-.58l.02-.02c.23-.15.52-.16.59-.16.27 0 .46.09.55.14.06.04.13.1.17.16zm1.05 1.23V24h-.27v2h1.53v-.24h-1.26zM39.71 24l.97 2h-.31l-.23-.5h-1.17l-.23.5h-.3l.98-2h.29zm-.63 1.28h.94l-.4-.85a.84.84 0 0 1-.06-.18v.02l-.08.17-.4.84zm3.52-1.25a1.02 1.02 0 0 0-.3-.03H41v2h.27v-.8h.92l.64.8h.36l-.7-.85c.1-.01.15-.03.2-.05.29-.12.3-.4.3-.51 0-.28-.14-.49-.4-.56zm-.4.93h-.93v-.72h1.04c.15 0 .28.01.36.16a.4.4 0 0 1 .05.2c0 .11-.05.18-.07.21-.1.15-.29.15-.44.15zm5.5-.48l.25-.1-.01-.02c-.02-.03-.06-.08-.11-.11a.68.68 0 0 0-.09-.07A1.33 1.33 0 0 0 47 24c-.3 0-.51.07-.63.12a.48.48 0 0 0-.26.44c0 .06 0 .2.13.32.14.12.32.14.69.17h.01c.16.02.47.04.6.1.1.04.17.12.17.23 0 .05-.02.17-.13.26-.18.13-.44.13-.51.13h-.01c-.06 0-.32 0-.54-.1a.8.8 0 0 1-.3-.2l-.25.1v.01c.04.04.08.11.18.18.03.03.1.07.2.12l.2.06a2.3 2.3 0 0 0 .76.04c.08 0 .4-.04.57-.28.03-.05.1-.16.1-.32 0-.06-.01-.18-.1-.3-.1-.11-.23-.2-.53-.22l-.3-.03-.33-.04h-.01c-.11-.01-.24-.03-.3-.13a.24.24 0 0 1-.03-.12c0-.08.04-.2.2-.25.08-.03.23-.07.42-.07.3 0 .48.09.59.16.05.03.09.08.1.1zM34.9 28.3l-.55-1.3H34v2h.24v-1.25-.18-.12l-.02-.2.06.17.12.28.56 1.3h.23l.61-1.41.07-.17.01-.04.06-.14c-.02.18-.03.27-.03.6V29h.24v-2h-.34l-.57 1.3-.04.1a5 5 0 0 0-.12.35l-.02-.06-.06-.14a5.93 5.93 0 0 0-.1-.25zm3.69-.84a1 1 0 0 0-.38-.33 1.3 1.3 0 0 0-.56-.13c-.4 0-.65.17-.77.28-.06.05-.09.09-.11.12l-.02.02c-.12.17-.18.38-.18.6 0 .09.01.3.13.51.21.36.57.43.7.45.12.02.22.02.27.02.45 0 .72-.19.84-.32a1.07 1.07 0 0 0 .07-1.22zm-1.72.27a.68.68 0 0 1 .14-.25.9.9 0 0 1 .6-.25c.11 0 .62 0 .81.44.03.05.07.17.07.33a1 1 0 0 1-.03.21.67.67 0 0 1-.49.52c-.13.04-.25.04-.3.04a.91.91 0 0 1-.57-.17.61.61 0 0 1-.15-.14.8.8 0 0 1-.13-.45c0-.09.02-.19.05-.28zm3.5-.73a1 1 0 0 1 .3.03c.24.07.39.28.39.56 0 .1-.02.39-.3.51a.77.77 0 0 1-.2.06l.68.84h-.34l-.63-.8h-.88v.8h-.27v-2h1.26zm-.99.97h.91c.15 0 .32-.01.43-.15.02-.04.06-.1.06-.22a.4.4 0 0 0-.04-.2c-.08-.14-.2-.16-.35-.16h-1v.73zm3.68-.73V27h-1.72v.24h.73V29h.26v-1.76h.73zm1.9.35v-.02c-.02-.02-.04-.06-.09-.1a.82.82 0 0 0-.58-.23c-.05 0-.2 0-.34.06a.7.7 0 0 0-.47.69c0 .17.05.36.16.5.2.27.55.29.64.29.25 0 .53-.12.66-.35a.63.63 0 0 0 .08-.25h-.8v-.23h1v1.01h-.21v-.26a.87.87 0 0 1-.12.1c-.1.08-.34.2-.66.2a.99.99 0 0 1-1.02-1c0-.1 0-.32.14-.53a.8.8 0 0 1 .12-.15c.12-.12.38-.32.8-.32.1 0 .35.01.6.15a.78.78 0 0 1 .35.36l-.25.08zM47.66 29l-.92-2h-.27l-.92 2h.28l.22-.5h1.1l.22.5h.29zm-.62-.72h-.88l.37-.84.07-.17v-.02l.06.18.38.85zm2.49-.7h-.01c-.02-.03-.04-.07-.09-.12a.82.82 0 0 0-.58-.22c-.05 0-.2 0-.34.06a.7.7 0 0 0-.47.69c0 .17.05.36.16.5.2.27.55.29.64.29.25 0 .53-.12.66-.35a.61.61 0 0 0 .07-.25h-.78v-.23h1v1.01h-.22v-.26a.96.96 0 0 1-.12.1c-.1.08-.34.2-.66.2a1 1 0 0 1-1.02-1c0-.1 0-.32.14-.53a.8.8 0 0 1 .12-.15c.12-.12.38-.32.8-.32.1 0 .35.01.6.15a.78.78 0 0 1 .35.36l-.25.08zm2.48-.33V27h-1.71v2H52v-.25h-1.46v-.67h1.36v-.24h-1.36v-.6H52zM35.83 30v.24h-.78V32h-.27v-1.76H34V30h1.83zM37.48 30c.17 0 .23 0 .3.03.26.07.4.28.4.56 0 .1-.01.38-.3.5a.81.81 0 0 1-.2.06l.7.85h-.36l-.64-.8h-.92v.8h-.27v-2h1.3zm-1.02.96h.94c.15 0 .33 0 .44-.14.03-.04.07-.1.07-.22a.4.4 0 0 0-.05-.2c-.08-.15-.2-.16-.36-.16h-1.04v.72zM38.94 31.16v.18c.04.18.12.25.2.29.09.06.24.13.5.13.04 0 .37 0 .55-.14.06-.05.1-.12.11-.14.04-.1.04-.18.04-.28V30h.28v1.18c0 .13 0 .24-.06.36-.15.37-.57.46-.91.46-.1 0-.44 0-.71-.2a.6.6 0 0 1-.2-.2.91.91 0 0 1-.08-.45V30h.28v1.16zM42.71 30.48l-.11-.1a.97.97 0 0 0-.59-.16c-.2 0-.34.04-.41.07-.17.06-.21.17-.21.25 0 .04 0 .09.03.12.07.1.2.12.31.13l.63.06c.3.04.43.12.52.23.1.12.1.24.1.3 0 .16-.06.26-.1.31-.16.24-.49.28-.56.29a2.23 2.23 0 0 1-.76-.04l-.2-.07a.86.86 0 0 1-.2-.11c-.1-.08-.15-.15-.18-.2l.25-.1.04.05a.8.8 0 0 0 .26.16c.22.1.48.1.54.1.05 0 .33 0 .52-.13.11-.1.13-.2.13-.26 0-.11-.07-.2-.17-.23a2.48 2.48 0 0 0-.62-.1c-.36-.03-.54-.05-.68-.18a.4.4 0 0 1-.13-.31c0-.27.18-.39.26-.44.12-.05.32-.12.63-.12.38 0 .6.1.74.18l.09.07c.06.05.1.11.12.13l-.25.1zM45.05 30v.24h-.78V32H44v-1.76h-.78V30h1.83zM32.3 23H32v10h.3V23z" fill="#5D8AA3"/></svg>