<!-- by TradingView --><svg width="56" height="56" viewBox="0 0 56 56" xmlns="http://www.w3.org/2000/svg"><path fill="#F0F3FA" d="M0 0h56v56H0z"/><path d="M36.29 17.47a2.52 2.52 0 1 0 3.18-3.91 2.52 2.52 0 0 0-3.18 3.9ZM39.9 22.18a2.36 2.36 0 1 0 2.98-3.65 2.36 2.36 0 0 0-2.98 3.65ZM41.42 27.69a2.2 2.2 0 1 0 2.77-3.39 2.2 2.2 0 0 0-2.77 3.39ZM40.83 33.31a2.03 2.03 0 1 0 2.56-3.16 2.03 2.03 0 0 0-2.56 3.16ZM38.08 38.4c.8.67 1.98.54 2.63-.26.66-.8.54-1.98-.26-2.63a1.86 1.86 0 0 0-2.64.26c-.65.8-.53 1.99.27 2.64ZM33.5 42.07a1.7 1.7 0 1 0-.24-2.4 1.7 1.7 0 0 0 .25 2.4ZM28.06 43.65a1.55 1.55 0 1 0-.22-2.18c-.54.67-.44 1.64.22 2.19M22.39 43.11a1.4 1.4 0 1 0 1.76-2.15 1.4 1.4 0 0 0-1.76 2.15ZM17.17 40.43a1.23 1.23 0 1 0 1.56-1.91 1.23 1.23 0 0 0-1.56 1.91ZM13.22 35.82a1.07 1.07 0 1 0 1.35-1.66 1.07 1.07 0 0 0-1.35 1.66ZM11.33 30.22a.9.9 0 1 0 1.15-1.4.9.9 0 0 0-1.15 1.4ZM11.56 24.3a.75.75 0 1 0 .94-1.15.75.75 0 0 0-.94 1.15ZM13.93 18.75c.25.2.61.16.82-.08a.59.59 0 0 0-.09-.82.59.59 0 0 0-.82.08c-.2.25-.16.62.09.82Z" fill="#0E2D52"/><path d="M19.83 35.27c.91.36 1.94-.09 2.3-1a1.79 1.79 0 0 0-1-2.3 1.79 1.79 0 0 0-2.3 1c-.36.9.1 1.93 1 2.3ZM17.82 31.94a1.66 1.66 0 1 0 1.21-3.1 1.66 1.66 0 0 0-1.21 3.1ZM17.24 28.08c.8.32 1.69-.07 2-.87a1.54 1.54 0 1 0-2 .87ZM18.22 24.2a1.43 1.43 0 1 0 1.05-2.65 1.43 1.43 0 1 0-1.05 2.66ZM20.57 21.1a1.31 1.31 0 1 0 .97-2.44 1.31 1.31 0 0 0-.97 2.44ZM23.87 19.13a1.2 1.2 0 1 0 .88-2.23 1.2 1.2 0 0 0-.88 2.23ZM27.71 18.57a1.08 1.08 0 1 0 .8-2.02 1.08 1.08 0 0 0-.8 2.02ZM31.49 19.61a.97.97 0 0 0 1.26-.54.97.97 0 0 0-.55-1.26.97.97 0 0 0-1.26.54c-.2.5.05 1.07.55 1.26ZM34.4 21.96a.85.85 0 1 0 .62-1.58.85.85 0 0 0-.63 1.58ZM36.13 25.2c.38.15.82-.03.96-.4a.74.74 0 1 0-1.37-.55c-.15.38.03.81.41.96ZM36.42 28.94c.31.13.68-.04.8-.35a.63.63 0 0 0-.34-.82.63.63 0 0 0-.81.35c-.12.32.03.69.35.82ZM35.13 32.48a.5.5 0 1 0 .37-.94.5.5 0 0 0-.37.94Z" fill="#6CBE4C"/></svg>