<!-- by TradingView --><svg width="56" height="56" viewBox="0 0 56 56" xmlns="http://www.w3.org/2000/svg"><path fill="#F0F3FA" d="M0 0h56v56H0z"/><path d="M24.19 12.26v6.16h7.42v4.05c.44.18 1.53.68 2.38 1.33.85.65 1.5 2.27 1.7 3V12.27H24.2Z" fill="#5C8CB3"/><path d="M19.11 28.88c-.4.93.06 2.3.34 2.87-.1-.75.46-1.25.76-1.4l3.54-1.64c1.71-.2 5.75-.45 8.2.3 3.07.92 3.34 3.16 3.34 3.25l.19-1.65 1.38 1-.12-1.14c-.88-3.38-5.23-4.6-7.3-4.78l-1.8.44-4.39 1.09-1.6-1.05c-.68.52-2.14 1.78-2.54 2.7Z" fill="url(#acq1a54jd)"/><path d="m26.26 44.41.6.59H17V18h6v-7h14v18.92l-.01-.03a5.23 5.23 0 0 0-.58-1.41c-.34-.52-1.91-2.3-2.66-3.12.5.24 1.55.78 1.83 1.07.28.3.72 1.04.9 1.38V11.5H23.5V18h8.37v4.44a7.2 7.2 0 0 1 2.94 2.15c-.44-.08-1.63-.23-2.81-.23.28-.13.97-.39 1.46-.35l-3.05-2 .85.08V18.5H17.61v25.91h8.65Zm-5.99-14.1c1-.87 3.77-2.45 6.76-1.93l-1.62.56 1.22 1.24-1.76-.52a2.6 2.6 0 0 1-.35 1.89l-.33-1.02c-.1.23-.41.83-.85 1.32-.21.57-.69 1.82-.93 2.29-.23.47-.37 1.6-.4 2.1l1.33-2.03c-.2.9-.53 2.91-.4 3.7l.07.48c.13.98.33 2.44 1.57 4.61-1.19-1.16-3.56-4.12-3.56-6.65a5.35 5.35 0 0 1 2.2-4.5c.08-.29.23-.96.18-1.32a1.35 1.35 0 0 0-.48-.79 7.9 7.9 0 0 1-2.65.56Zm3.37-7.22a3.3 3.3 0 0 0-1.72 2.89c.23-.2.89-.84 1.66-1.74.77-.89 2.96-2.1 3.96-2.6-.71.18-2.48.72-3.9 1.45Zm-.06 3.4c-.32.18-.44.72-.45.96.11-.08.45-.27.88-.36a7.1 7.1 0 0 1 1.53 0c.08.2.39.56 1.02.51.64-.04.83-.76.84-1.11l2.24-.83c-.52-.09-1.8-.22-2.81-.11a11 11 0 0 0-3.25.94Zm2.1.35.21-.26.1.13c-.02.13.02.39.4.39.37 0 .34-.36.27-.54a.45.45 0 0 1 .21-.06c.1.01.26.08.22.3-.03.23-.13.6-.7.6a.73.73 0 0 1-.71-.56Zm5.12 5.92-3.99 4.81c2.43-1.42 3.67-3.1 3.99-3.76l.6 2.1c.31-.32 1.2-1.17 2.19-2.1a4.6 4.6 0 0 0 1.25-3.09l-2.81 3.98-1.23-1.94Zm5.27-1.44C37.7 32.64 41 35.25 41 35.21c0-.05-.93-1.54-2.26-2.55a8.26 8.26 0 0 0-2.67-1.34Z" fill="#0F4472"/><defs><linearGradient id="acq1a54jd" x1="24.35" y1="27.81" x2="37.64" y2="29.52" gradientUnits="userSpaceOnUse"><stop stop-color="#5C8CB3"/><stop offset="1" stop-color="#5C8CB3" stop-opacity="0"/></linearGradient></defs></svg>