<!-- by TradingView --><svg width="56" height="56" viewBox="0 0 56 56" xmlns="http://www.w3.org/2000/svg"><path fill="#274B63" d="M0 0h56v56H0z"/><path d="m29.96 21.8-.03.03c-.2.12-.3-.58-.25-.68.1-.02.24.22.28.41v.01c.03.08.03.16 0 .23Zm0-1.35v-.01c-.16.24-.29.28-.4.12a.95.95 0 0 1-.1-.25 1.42 1.42 0 0 1 0-.42c0-.13-.02-.25-.04-.38a.16.16 0 0 1 .15-.03v.01c.15.04.28.27.34.39l.05.12a.44.44 0 0 1 0 .45Zm0-1.27a.18.18 0 0 1-.08.06.25.25 0 0 1-.17.03.27.27 0 0 1-.14-.08c-.26-.27-.21-1.11 0-1.27h.02c.12-.05.28.21.37.5.1.28.12.6 0 .76Zm0-1.29v-.02a.2.2 0 0 1-.07-.1.2.2 0 0 1 0-.12l.07-.14.06-.09.07-.1a.87.87 0 0 0 .07-.37c.2-.26.35.06.37.3.03.18 0 .36-.08.52a.43.43 0 0 1-.23.15.4.4 0 0 1-.26-.03Zm0-.75a.47.47 0 0 0 .02-.17c0-.06 0-.12-.02-.19-.03-.16-.09-.32-.24-.16-.07.16-.12.32-.15.48v.01c-.03.06-.13.37 0 .42h.02c.07 0 .22-.13.26-.18a.8.8 0 0 0 .11-.22v.01Zm0-.78v-.01a.26.26 0 0 1-.09-.14c.02-.11.05-.21.1-.31v.02a.24.24 0 0 1 .06-.1c.28-.16.3.3.26.46-.02.17-.06.21-.2.17a.42.42 0 0 1-.13-.08Zm0-1.73v-.01a.84.84 0 0 1-.04-.16 2.5 2.5 0 0 0 .06-.12c.04-.1.08-.21.19-.15l.1.12a.41.41 0 0 1-.05.46c-.1.09-.14.05-.19-.02 0-.02-.02-.04-.04-.05a.33.33 0 0 1-.03-.07Zm0-.82c.14.01.1-.33 0-.48a.2.2 0 0 0-.04-.05.23.23 0 0 0-.15-.02.24.24 0 0 0-.14.08l-.04.06-.02.02v-.02c-.05.06-.1.13-.08.17l.03.02h.05c.1 0 .17.06.24.12l.1.08.05.02Zm.04 7.3c.07-.14.27-.29.36-.1l.04.07c.04.07.07.13.05.23 0 .03-.2.4-.28.3a.29.29 0 0 1-.07-.1.3.3 0 0 1-.02-.13c0-.1-.03-.19-.08-.27Zm.2-1.12c.32-.37.6.43.37.65-.14.14-.3.15-.37-.06a.7.7 0 0 1-.05-.29l.04-.3Zm-.07-.38c.03.06.31.1.35.1.18-.03.24-.08.27-.28.05-.3.02-.77-.23-1-.18-.15-.33-.08-.24.17.1.28-.04.68-.13.95l-.02.06ZM30 15.29c.02.1.08.2.16.26.1.07.15.07.22.02.08-.06.16-.4.08-.51a.2.2 0 0 0-.06-.06.18.18 0 0 0-.23.04.75.75 0 0 0-.17.25Zm-.42 1.45a.24.24 0 0 0 .06-.1.3.3 0 0 0-.06-.22v-.02a.2.2 0 0 0-.1-.07.2.2 0 0 0-.13 0 .53.53 0 0 0-.23.14v.33l.02.03.04.05a.14.14 0 0 0 .11.03c.02 0 .04 0 .06-.02a.64.64 0 0 0 .23-.15Zm0-.84-.07-.02a.32.32 0 0 1-.1-.1.35.35 0 0 1-.05-.13c-.01-.12.06-.15.17-.2l.05-.01v.01a.2.2 0 0 1 .14.03l.03.02c.05.05.15.13.13.2a.35.35 0 0 1-.17.15.36.36 0 0 1-.13.05Zm0-1.01v-.07.01a.3.3 0 0 1 .1-.13c.07-.02.24.12.2.2a.27.27 0 0 1-.1.14c-.1.09-.18-.04-.21-.13v-.02Zm0-.94c.06-.03.13-.05.16.03.04.04.06.1.07.15 0 .04-.06.08-.08.09a.14.14 0 0 1-.15-.04.24.24 0 0 1-.04-.22l.04-.02Zm0-1.32c.05.05.09.12.12.2.02.04-.07.09-.12.1h-.03a.5.5 0 0 1-.25-.16c-.02-.02-.1-.18-.07-.19.13-.06.2-.09.32.02l.03.03Zm-.46 3.75.06-.25a.11.11 0 0 0-.06-.07v-.01a.98.98 0 0 0-.22-.08.28.28 0 0 0-.23.04.34.34 0 0 0-.14.2.9.9 0 0 1-.06.2c-.02.06-.05.12-.06.2.14.06.3.08.45.04.1-.06.2-.15.26-.27Zm0 0v-.31.3Zm0-.75c.04 0 .08-.02.12-.04a.28.28 0 0 0 .09-.1c.04-.1-.07-.22-.21-.3-.16-.08-.36-.1-.42.04a.63.63 0 0 1-.06.1c-.03.05-.06.1-.07.16.05.12.13.12.22.13l.12.01c.07.02.14.02.21 0Zm0-.63.1.05c.1.05.13.03.22-.04l.01-.01c.21-.16-.04-.51-.33-.57a.33.33 0 0 0-.18 0 .35.35 0 0 0-.16.1c-.07.05-.03.32.07.35.1.02.19.06.27.11V15Zm0-.8c-.15 0-.31-.3-.2-.41a.41.41 0 0 1 .2-.03v.01c.08.01.15.05.2.12.16.2-.01.34-.2.33v-.01Zm-.2-.41Zm.05-.03a.14.14 0 0 0-.04.03l.04-.03Zm.15-.27c.09.02.18 0 .26-.03.16-.07-.06-.5-.26-.35a.18.18 0 0 0-.03.03.13.13 0 0 1-.05.04c-.02.01-.04.03-.04.08s0 .1.03.15c0 .02.02.04.03.05l.06.03Zm.03-1.46a.22.22 0 0 1 .27.04l.05.08c.02.07-.02.1-.08.13-.1.04-.2.06-.24-.06-.03-.08-.02-.1-.01-.13l.01-.06Zm-1.59 4.5.05-.16c.06-.18.1-.35.3-.43a.55.55 0 0 1 .42 0c.12.11-.08.69-.2.74-.12.04-.62.07-.58-.1v-.04h.01Zm1.56-.06v.33a.26.26 0 0 1-.06-.16c0-.07.02-.12.06-.17Zm-1.13-3.66c.06-.02.1.03.14.08.04.05.08.11.15.1a.15.15 0 0 0 .1-.08.17.17 0 0 0 .02-.12c0-.04-.02-.15-.06-.18a.23.23 0 0 0-.22 0c-.03.02-.03.05-.04.09 0 .04-.01.08-.06.1h-.03v.01Zm.65.33c.13-.04.23.19.24.3.04.3-.4.21-.47.04-.07-.15.04-.23.14-.3l.07-.05h.03Zm-.56 1.93c.14-.06.41 0 .37.22-.05.32-.42.34-.69.32-.17-.02 0-.3.05-.37.08-.1.19-.17.3-.2l-.03.02Zm-1.34 1.58c.05-.22.17-.42.32-.58.1-.1.35-.15.41 0 .03.08-.04.27-.08.39l-.02.05-.03.1c-.02.09-.04.2-.06.22-.1.06-.21.11-.33.16-.09.04-.26-.27-.2-.33l-.01-.01Zm1.84-4.58a.18.18 0 0 1 .2.03.2.2 0 0 1 .05.06c.03.07-.03.09-.09.11-.07.03-.25.08-.3 0-.06-.07.07-.19.14-.2Zm.02.52.05-.02c.11-.05.23-.1.32.02l.02.02c.04.06.1.15.08.22-.03.07-.1.1-.16.12l-.02.01c-.15.07-.43-.31-.29-.38Zm-.7.48c.2 0 .26.07.33.25.06.18-.42.19-.5.1-.13-.14.07-.28.17-.35Zm.2.64a2.2 2.2 0 0 0-.07.22c-.01.1.09.13.16.13l.15.01c.1.02.2.04.29-.01.15-.08.03-.2-.04-.27a.46.46 0 0 0-.48-.09v.01Zm-.6.22.01-.02c.07-.08.14-.18.25-.15.23.05 0 .37-.1.43-.12.06-.16.08-.21-.06-.03-.07-.01-.1.02-.16l.02-.04Zm.31.56a.2.2 0 0 1-.02.12c-.02.06-.04.11.02.2.05.05.18.04.26.03a.9.9 0 0 1 .06 0c.03 0 .06 0 .1.02.05.01.1.03.14.02.1-.01.14-.08.18-.16a.8.8 0 0 1 .04-.06c.1-.14-.02-.32-.16-.36a.64.64 0 0 0-.33.01c-.1.03-.2.1-.28.18Zm-.73.56.02.04.05.06H27.26a.2.2 0 0 0 .15-.04l.05-.03c.1-.15.15-.32.17-.5-.04-.12-.11-.16-.23-.12-.14.18-.26.37-.34.59h.01Zm-.05.39a.47.47 0 0 1-.08.13.37.37 0 0 0-.06.16c-.04.14.1.15.17.14.2 0 .55-.22.4-.44-.08-.1-.34-.03-.43.01Zm.25 2.36c.05-.02.07-.14.08-.23v-.08l.06-.14a.72.72 0 0 0 .07-.2c.03-.23-.37-.02-.46.05-.08.05.01.18.07.26l.04.06c.03.1.08.2.14.28Zm2.28 10.55c.2-.27.32-.75.37-1.33 1.08-1.9 2.08-6.7.87-10.2.45 2.63.14 4.85-1.06 6.3l-.17-1.25-.06-.46c-.2-1-.23-1.96-.26-2.75a8.14 8.14 0 0 0-.16-1.63c-.24.7-.49 1.33-.72 1.92l-.4 1.05c-.7-2.45-1.66-4.19-3.06-4.76 1.3 1.52 1.36 3.66 1.43 5.79.08 2.24.15 4.46 1.66 5.88.16.4.35.82.58 1.26a5.1 5.1 0 0 0-.03 1.63c.24.3.57.25.97-.19-.03-.42-.02-.84.04-1.26ZM18.8 23.97a18.07 18.07 0 0 1 9.14 5.94l-.98.41a24.12 24.12 0 0 0-8.16-5.55A38.17 38.17 0 0 0 13.55 23c1.78.15 3.54.48 5.26.97Zm5.27 7.99a27.27 27.27 0 0 0-5.27-3.45c-3.39-1.67-7.48-2.62-12.81-2.2 5.26.35 9.2 1.65 12.81 3.58 1.51.81 2.98 1.71 4.4 2.7.29-.22.57-.43.87-.63Zm-5.27-6.1v.02a32.28 32.28 0 0 0-10.24-2.21c3.96.84 7.3 1.92 10.24 3.37a29.04 29.04 0 0 1 6.36 4.23c.31-.19.63-.36.96-.54a21.5 21.5 0 0 0-7.32-4.86ZM18.3 41.7c4.33-8.12 11.17-13.22 23.05-12.37-10.22 1-16.59 4.34-23.05 12.37Zm1.2.78c5.33-7.94 13.54-12.77 27.46-11.46-12.04.6-19.61 3.69-27.46 11.46Zm1.93.53C27.7 35.9 36.65 32.07 50 34.89c-12.1-.53-19.83 1.54-28.58 8.11Zm7-24.64c.07-.18-.15-.25-.3-.25v.82c-.03 0-.06 0-.09-.02a.17.17 0 0 1-.06-.08.27.27 0 0 1-.04-.2v-.12c-.02-.1 0-.22.05-.31l.06-.08h.09v.81c.14-.01.3-.22.26-.34l.03-.23Zm-.3-.78v.22c-.05-.05-.03-.13 0-.22Zm0-.01V17.78l.09.03.07.02c.07.03.14.05.2 0 .14-.07.18-.24.21-.4l.04-.14a.24.24 0 0 0-.03-.18.21.21 0 0 0-.07-.06.2.2 0 0 0-.08-.03c-.21-.03-.28.16-.33.3l-.01.04-.05.13-.04.08Zm.04-.4c0 .05-.01.1-.04.15V17c.03.05.04.1.04.15Zm-.04-.16V17a.2.2 0 0 0-.08-.06.2.2 0 0 0-.1 0c-.17.02-.28.23-.31.36l-.02.07c-.06.24-.1.42-.02.54.21.03.29-.11.36-.24l.05-.1c.05-.08.1-.16.12-.25V17Zm-.62 1.38a.52.52 0 0 1-.03-.2.15.15 0 0 1 .08 0 .1.1 0 0 0 .04 0h.15c.1 0 .12 0 .14.13a.21.21 0 0 1-.05.16c-.03.04-.18.15-.21.1a.9.9 0 0 1-.05-.1.33.33 0 0 0-.04-.04.19.19 0 0 1-.03-.05Z" fill="#FCCC20"/></svg>