<!-- by TradingView --><svg xmlns="http://www.w3.org/2000/svg" width="56" height="56" viewBox="0 0 56 56"><path fill="url(#ajidhxhz2)" d="M0 0h56v56H0z"/><path d="M32.59 37.76a27.66 27.66 0 0 0 7.38 5.17.74.74 0 0 0 .94-.3.7.7 0 0 0 .09-.33v-5.54c0-1.1-.34-2.17-.98-3.08a5.53 5.53 0 0 0-2.59-1.99L35.47 31c-5.23 1.54-3.04 6.44-2.88 6.76z" fill="url(#bjidhxhz2)"/><path d="M39.6 28.52c2.16-.52 4.4-1.36 4.4-4.83v-7.33a1.38 1.38 0 0 0-.61-1.14 1.34 1.34 0 0 0-1.28-.1C38.1 16.9 29 21.79 29 29.38c0 3.48 1.7 6.37 3.8 8.61-4.72-6.8 3.63-8.71 6.8-9.48z" fill="url(#cjidhxhz2)"/><path d="M23.41 37.76a27.66 27.66 0 0 1-7.38 5.17.74.74 0 0 1-.94-.3.7.7 0 0 1-.09-.33v-5.54c0-1.1.35-2.17.98-3.08.64-.9 1.54-1.6 2.6-1.99l1.95-.69c5.23 1.54 3.03 6.44 2.88 6.76z" fill="url(#djidhxhz2)"/><path d="M16.4 28.52C14.23 28 12 27.16 12 23.69v-7.33a1.38 1.38 0 0 1 .61-1.14 1.34 1.34 0 0 1 1.28-.1C17.9 16.9 27 21.79 27 29.38c0 3.48-1.7 6.37-3.81 8.61 4.73-6.8-3.62-8.71-6.8-9.48z" fill="url(#ejidhxhz2)"/><defs><linearGradient id="ajidhxhz2" x1="-5.61" y1="-2.1" x2="45.79" y2="49.64" gradientUnits="userSpaceOnUse"><stop stop-color="#2B302A"/><stop offset="1" stop-color="#181B1E"/></linearGradient><linearGradient id="bjidhxhz2" x1="36.5" y1="31" x2="36.5" y2="43" gradientUnits="userSpaceOnUse"><stop stop-color="#63A6FC"/><stop offset="1" stop-color="#2C75FF"/></linearGradient><linearGradient id="cjidhxhz2" x1="36.5" y1="15" x2="36.5" y2="38" gradientUnits="userSpaceOnUse"><stop stop-color="#63A6FC"/><stop offset="1" stop-color="#2C75FF"/></linearGradient><linearGradient id="djidhxhz2" x1="19.5" y1="31" x2="19.5" y2="43" gradientUnits="userSpaceOnUse"><stop stop-color="#63A6FC"/><stop offset="1" stop-color="#2C75FF"/></linearGradient><linearGradient id="ejidhxhz2" x1="19.5" y1="15" x2="19.5" y2="38" gradientUnits="userSpaceOnUse"><stop stop-color="#63A6FC"/><stop offset="1" stop-color="#2C75FF"/></linearGradient></defs></svg>