<!-- by TradingView --><svg width="56" height="56" viewBox="0 0 56 56" xmlns="http://www.w3.org/2000/svg"><path fill="#3E4D33" d="M0 0h56v56H0z"/><path d="M37.5 25c.21 0 .39.01.51.03C39.38 25.25 40 26.58 40 28c0 1.42-.62 2.75-1.98 2.97a3.44 3.44 0 0 1-1.03 0C35.62 30.75 35 29.42 35 28c0-1.42.62-2.75 1.98-2.97.13-.02.3-.03.52-.03ZM36 28c0 1.1.2 2.82 1.5 2.82S39 29.1 39 28c0-1.1-.2-2.82-1.5-2.82S36 26.9 36 28ZM45.68 26.43h-.17a.05.05 0 0 1-.05-.03 1.55 1.55 0 0 0-1.08-1.17c-.68-.19-1.6.16-1.64 1.02-.03.67.54.93 1.07 1.1 1.01.3 2.16.6 2.19 1.95.03 1.28-1.07 1.74-2.14 1.7a2.34 2.34 0 0 1-1.3-.39l-.04.01-.23.17c-.1.08-.18.07-.27-.02a.06.06 0 0 1-.02-.04v-1.15h.24l.02.03c.24.8.79 1.2 1.64 1.2.68 0 1.37-.37 1.38-1.17 0-1.63-2.98-.78-3.24-2.69-.16-1.13.55-1.9 1.63-1.95h.51a2.12 2.12 0 0 1 1.02.38h.02l.27-.22a.05.05 0 0 1 .04 0c.06 0 .12.02.16.05a.06.06 0 0 1 .03.05v1.13l-.01.03-.03.01ZM29 30.73v-5.46c0-.01.02-.03-.02-.03h-.45l-.02-.01-.01-.02V25H31.13c.73 0 1.48.26 1.76 1.01.42 1.16-.4 2.18-1.57 2.18h-.02a.02.02 0 0 0 0 .03c.2.14.42.23.64.28a.1.1 0 0 1 .04.01.1.1 0 0 1 .03.04l1.14 2.18.01.02H33.57s.02 0 .03.02l.01.03v.14l-.01.04-.04.01H32.3a.04.04 0 0 1-.04-.02l-1.42-2.72a.04.04 0 0 0-.04-.02H30v2.52h.48l.02.01.01.03v.17a.03.03 0 0 1 0 .02h-.02V31h-1.95l-.03-.01-.01-.03v-.16l.01-.03h.47c.03 0 .02-.02.02-.04Zm1-5.47V28h.02l.84.01c.15 0 .3-.03.43-.1.58-.26.7-.85.7-1.42 0-.33-.12-.65-.33-.88-.21-.24-.5-.37-.8-.37h-.85l-.01.03ZM4 31v-.25H4.47v-5.48a.03.03 0 0 0 0-.02.02.02 0 0 0-.01-.01H4V25h1.58v.03l1.67 4.65.02.01h.01v-.01l1.55-4.66V25H10.47V25.21a.03.03 0 0 1 0 .02h-.44l-.02.01v5.48a.04.04 0 0 0 0 .02h.01l.01.01h.43l.02.01v.22l-.03.02H8.57l-.02-.02-.02-.02v-.2H8.98l.01-.01.01-.01.01-.01V25.49c-.03-.01-.05 0-.06.03-.08.2-.62 1.93-1.78 5.2l-.08.23c-.04.06-.11.06-.21.03l-.01-.01-.01-.01-2.03-5.45c0-.02-.02-.03-.04-.03l-.02.04a3507.42 3507.42 0 0 1 .02 5.23h.45V30.99L5.2 31H4ZM17 30.73v-5.46l-.02-.03H16.54l-.03-.02v-.21l.03-.01h1.95a.04.04 0 0 1 .02.01v.01l.01.02v.15a.04.04 0 0 1 0 .03.04.04 0 0 1-.04.01h-.44a.04.04 0 0 0-.03.01v5.5a.04.04 0 0 0 .02.02H20.32l.01-.02.43-1h.02l.02-.01h.19l.01.03v1.2l-.01.03-.03.01h-4.42l-.03-.01-.01-.03v-.16l.01-.02.03-.02H16.98l.02-.03ZM23 30.73v-5.46l-.02-.03H22.54l-.03-.02v-.21l.03-.01h1.95a.04.04 0 0 1 .02.01v.01l.01.02v.15a.04.04 0 0 1 0 .03.04.04 0 0 1-.04.01h-.44a.04.04 0 0 0-.03.01v5.5a.04.04 0 0 0 .02.02H26.32l.01-.02.43-1h.02l.02-.01h.19l.01.03v1.2l-.01.03-.03.01h-4.42l-.03-.01-.01-.03v-.16l.01-.02.03-.02H22.98l.02-.03ZM52 29.72V31h-4.46s-.02 0-.03-.02l-.01-.03v-.15l.01-.02.02-.02h.44a.05.05 0 0 0 .04-.01v-.02l-.01-.02V25.3c0-.02.02-.03 0-.04l-.03-.01h-.44l-.02-.01V25l.02-.01H52l.01.03v1.22l-.01.03h-.21l-.02-.03-.42-.97a.07.07 0 0 0-.03-.03.06.06 0 0 0-.03-.01H49.02l-.02.03v2.49l.01.01h1.67a.03.03 0 0 0 .03-.01l.32-.72.01-.02h.2v1.76h-.2l-.02-.02-.3-.72-.02-.02-.02-.02h-1.64l-.01.01-.01.01-.01.01-.01.01v2.7l.02.02h2.27a.05.05 0 0 0 .05-.03l.43-.97.01-.02.03-.01H52ZM14 30.74l.01.02h.43l.02.01.01.03v.19l-.03.01h-1.9a.04.04 0 0 1-.04-.03v-.19l.03-.01h.43s.02 0 .03-.02l.01-.03v-5.44l-.01-.03-.03-.02h-.45l-.01-.03v-.16l.01-.03.03-.01h1.9l.02.01.01.03v.19H14.03l-.03.01-.01.02c-.02 1.83-.02 3.65 0 5.48Z" fill="#fff"/></svg>