<!-- by TradingView --><svg xmlns="http://www.w3.org/2000/svg" width="56" height="56" viewBox="0 0 56 56"><path fill="url(#alb5bfxj1)" d="M0 0h56v56H0z"/><path d="M40.24 17h-2.48c-.42 0-.76.45-.76.86v9.52l-.23-.3a7.32 7.32 0 0 0-6.26-3.08C26.28 24 22 27.12 22 33.38v.08c0 6.2 4.39 9.54 8.51 9.54 2.57 0 4.61-1.13 6.25-3.44l.24-.33v3c0 .2.07.4.22.55.14.14.33.22.54.22h2.48a.76.76 0 0 0 .76-.77V17.87c0-.41-.36-.87-.76-.87zM37 33.46c0 3.41-2.37 6.54-5.46 6.54C28.4 40 26 36.93 26 33.46v-.07c0-3.54 2.35-6.39 5.54-6.39 3.15 0 5.46 2.91 5.46 6.39v.07zM28.6 18.8c.06-.06.04-.3-.07-.42a.46.46 0 0 0-.31-.13c-1.34-.16-2.7-.08-4.01.22a9.7 9.7 0 0 0-4.44 2.33 9.98 9.98 0 0 0-2.62 4.12 11 11 0 0 0-.45 4.15c0 .12.05.24.13.33.1.12.36.14.43.08.08-.09.12-.2.13-.32.29-2.2 1.8-4.72 3.93-6.72 2.3-2.17 4.7-3.38 6.95-3.52a.6.6 0 0 0 .33-.12zm-11.4-1.1c3.07-2.9 6.28-4.51 9.26-4.7.16 0 .31-.06.44-.15.08-.08.06-.42-.09-.57a.6.6 0 0 0-.42-.17c-1.78-.21-3.6-.11-5.34.3a12.88 12.88 0 0 0-5.9 3.1 13.36 13.36 0 0 0-3.5 5.49c-.68 2.37-.72 4.1-.6 5.52 0 .16.07.32.17.45.14.15.49.18.58.1.1-.12.16-.27.17-.43.39-2.92 2.4-6.28 5.23-8.95z" fill="#fff"/><defs><linearGradient id="alb5bfxj1" x1="8.28" y1="8.5" x2="45.69" y2="49.09" gradientUnits="userSpaceOnUse"><stop stop-color="#17A4F4"/><stop offset="1" stop-color="#1B7EF5"/></linearGradient></defs></svg>