<!-- by TradingView --><svg width="56" height="56" viewBox="0 0 56 56" xmlns="http://www.w3.org/2000/svg"><path fill="#F0F3FA" d="M0 0h56v56H0z"/><path d="m12.5 37.84-2 2.16H9l2.7-3-2.67-3h1.47l2 2.15 2-2.15h1.43l-2.74 3L16 40h-1.5l-2-2.16ZM19 34h5v1h-4v1h2v1h-2v2h4v1h-5v-6ZM28 36v4h-1v-6h.7l3.3 4v-4h1v6h-.7L28 36ZM36 34h1v6h-1v-6ZM42.5 37.5h2l-1-2-1 2Zm2.5 1h-3l-.74 1.5H40l3.02-6h.93L47 40h-1.23L45 38.5ZM29.47 31 22 22l7.47-9H30l-7.47 9L30 31h-.53Z" fill="#646A6E"/><path d="M31.47 31 24 22l7.47-9H32l-7.47 9L32 31h-.53Z" fill="#646A6E"/><path d="M33.47 31 26 22l7.47-9H34l-7.47 9L34 31h-.53Z" fill="#646A6E"/><path d="M35.47 31 28 22l7.47-9H36l-7.47 9L36 31h-.53Z" fill="#646A6E"/><path d="M37.47 31 30 22l7.47-9H38l-7.47 9L38 31h-.53Z" fill="#646A6E"/><path d="M39.47 31 32 22l7.47-9H40l-7.47 9L40 31h-.53Z" fill="#646A6E"/><path d="M26.53 31H26l7.47-9L26 13h.53L34 22l-7.47 9Z" fill="#E6764B"/><path d="M24.53 31H24l7.47-9L24 13h.53L32 22l-7.47 9Z" fill="#E6764B"/><path d="M22.55 31h-.53l7.45-9L22 13h.55L30 22l-7.45 9Z" fill="#E6764B"/><path d="M20.53 31H20l7.47-9L20 13h.53L28 22l-7.47 9Z" fill="#E6764B"/><path d="M18.54 31h-.52l7.45-9L18 13h.54L26 22l-7.46 9Z" fill="#E6764B"/><path d="M16.54 31h-.52l7.45-9L16 13h.54L24 22l-7.46 9Z" fill="#E6764B"/></svg>