<!-- by TradingView --><svg width="56" height="56" viewBox="0 0 56 56" xmlns="http://www.w3.org/2000/svg"><path fill="#000441" d="M0 0h56v56H0z"/><path d="M40.2 19.7c-.33 0-.64.04-.86.1-2.74-.14-4.05.47-5.16.47-.66 0-3.17-1.2-5.15-2 0 0 2.5-.65 4.89-.65 2.38 0 4.72 1.37 5.41 2.18-1.5-3.65-6.51-5.8-9.4-5.8-6.1 0-9.46 3.09-13.9 3.16h-1.95c0 2.76 1.02 4.37 1.47 4.81-1.1.65-5.55 6.33-5.55 8.98l.2.5 3.57.46-.7 3.74.2.49 3.52.47-1.27 4.43.19.5s1.22.46 2.95.46c1.55 0 8.25.19 9.26-8.56l.02-.1c1.18 4.71 4.28 5.58 10.66 5.58 1.8 0 1.05-2.43 1.25-3.23.2-.12.35-.46.24-.86.11-.1.27-.35.27-.56 0-.47-.25-1.1-.25-2.12.54-.15 1.5-.35 1.5-1.1 0-.44-.98-2.91-1.6-4.54-.09-.25-.3-.45-.56-.45-.41 0-.59.56-1.72.56-2.09 0-1.32-2.02-7.62-1.6-.77.04-.99.27-1.08 1.02-.23 1.83-.19 6.76.87 9.73-1.33-1.47-1.76-4.27-1.96-6.45-.42 4.03-.65 9.55-5.66 11.37-2.15.76-4.53.61-6.75.35a26.2 26.2 0 0 0 4.01-.2 9.03 9.03 0 0 0 2.54-.7c5.8-2.48 4-10.43 5.4-14.32-2.58 2.63-3.08 9.75-9.4 10.1-1.68.1-3.34-.03-5-.28 1.66.04 3.32.02 4.95-.2 5.67-.8 5.76-7.02 8.42-10.16-1.09.24-2.15.6-3.12 1.14-1.44.76-2.47 1.97-3.67 3.11-1.55 1.47-3.27 1.92-5.35 1.78a57.09 57.09 0 0 1-4.3-.37l2.46-.06c1.57-.08 3.26.02 4.72-.64a8.16 8.16 0 0 0 2.69-2.26 10.84 10.84 0 0 1 5.29-3.54c1.61-.5 6.87-1.05 10.14-.92 1.92.07 5.88.56 8.41 1.6l-.12-.03a6.11 6.11 0 0 0-3.36.32c1.07.03 2.24.1 3.14.34.8.2 2.37.55 2.57 1.44.01-.06.05-.28.05-.83 0-3.45-2.82-6.67-5.8-6.67Z" fill="#fff"/></svg>