<!-- by TradingView --><svg width="56" height="56" viewBox="0 0 56 56" xmlns="http://www.w3.org/2000/svg"><path fill="#F0F3FA" d="M0 0h56v56H0z"/><path d="M12 14.29c-.35.2-.7.53-1.03 1.04A4.6 4.6 0 0 0 10 17.7V38.72c0 1.84 1.35 3.28 3.1 3.28h29.8c1.75 0 3.1-1.44 3.1-3.28V17.69a4.93 4.93 0 0 0-2-3.34v11.88a.5.5 0 0 1-1 0V14h-2v15.05a.5.5 0 0 1-1 0V14h-2v17.93a.5.5 0 0 1-1 0V14h-2v20.63a.5.5 0 0 1-1 0V14h-2v23.39a.5.5 0 0 1-1 0V14h-2v24.23a1 1 0 1 1-2 0V14h-2v23.39a.5.5 0 0 1-1 0V14h-2v20.63a.5.5 0 0 1-1 0V14h-2v17.93a.5.5 0 0 1-1 0V14h-2v15.05a.5.5 0 0 1-1 0V14h-2v12.23a.5.5 0 0 1-1 0V14.29Z" fill="#1A4723"/><path d="M45.76 40a3.06 3.06 0 0 1-2.86 2H13.1c-1.31 0-2.4-.81-2.87-2h35.53Z" fill="#86754E"/></svg>