<!-- by TradingView --><svg width="56" height="56" viewBox="0 0 56 56" xmlns="http://www.w3.org/2000/svg"><path fill="#F0F3FA" d="M0 0h56v56H0z"/><path d="M20.32 15.63a.84.84 0 0 0-.17-.21 1.48 1.48 0 0 0-1.08-.42h-5.42c-.91 0-1.65.73-1.65 1.6v23a1.4 1.4 0 0 0 .95 1.33c.51.16 1.08.04 1.47-.32l4.86-4.63a1.5 1.5 0 0 1 1.65-.25l6.04 2.88c.6.28 1.34.13 1.76-.37l3.08-3.65-11.49-18.96Z" fill="#1AC9AA"/><path d="m31.8 34.6 3.2-3.87a1.47 1.47 0 0 1 2.11-.1l4.44 4.22c.2.2.47.33.76.4.76.14 1.5-.33 1.66-1.06l.03-.27V16.55A1.6 1.6 0 0 0 42.37 15h-5.44c-.58 0-1.12.3-1.4.78-1.97 3.27-5.13 8.77-7.16 11.92a.44.44 0 0 1-.59.15.4.4 0 0 1-.12-.1l4.15 6.84Z" fill="#0AABC5"/></svg>