<!-- by TradingView --><svg xmlns="http://www.w3.org/2000/svg" width="56" height="56" viewBox="0 0 56 56"><path fill="#F0F3FA" d="M0 0h56v56H0z"/><ellipse cx="37.5" cy="27" rx="2.5" ry="2" fill="#4D4E4E"/><path d="m43.75 30.23-.22.39-.53-.3 1.1-2.05.54.29-.22.36c.25.16 1.4.58 2.68.58.87 0 1.9 0 1.9-.88 0-.67-.77-.72-1.86-.77-1.55-.07-3.74-.4-3.74-2.5 0-1.55 1.68-2.35 3.7-2.35 1.1 0 2.32.41 3.21.86l.16-.3.53.3-1.1 2.06-.54-.29.25-.46a4.6 4.6 0 0 0-2.36-.67c-.87 0-1.95.24-1.95.85s.47.68 1.84.84c1.37.15 3.86.13 3.86 2.21 0 1.68-1.6 2.6-3.9 2.6a8.09 8.09 0 0 1-3.35-.77ZM13 22.5V25h-.6v-.5H10v5.9h.5v.6h-3v-.6H8v-5.9H5.62v.5H5v-2.5h.62v.5H12.4v-.5h.6ZM20 23.6h-.57l3.36 6.8h.71v.6H20v-.6h.65l-.67-1.4h-3.3L16 30.4h.49v.6h-3v-.6h.66l3.32-6.8H17V23h3v.6Zm-2.74 3.9h2.11l-1.06-2.13-1.05 2.13ZM27.5 23.6H27v5.9h4.4V29h.6v2.5h-.6V31h-6.9v-.6h.5v-6.8h-.5V23h3v.6Z" fill="#8E7860"/><path d="M5 32.5h27v1H5v-1Z" fill="url(#as23gribx)"/><path d="M33 32h1.2v.42h-.7v.35h.7v.41h-.7v.41h.7V34H33v-2ZM39 32h1.2v.42h-.7v.35h.7v.41h-.7v.41h.7V34H39v-2ZM35.81 32h.5l.69 1.26V32h.5v2H37l-.7-1.26V34h-.49v-2ZM42 32h.57c.65 0 .93.26.93.65 0 .45-.27.55-.41.62l.47.73h-.6l-.46-.7v.7H42v-2Zm.5 1.01h.08c.08 0 .42-.02.42-.3 0-.3-.34-.3-.42-.3h-.08v.6ZM47 33c0 .46-.28 1-1 1-.68 0-1-.53-1-1a1 1 0 0 1 1-1 1 1 0 0 1 1 .68h-.55c-.11-.28-.36-.28-.45-.28-.3 0-.5.3-.5.6 0 .32.2.6.5.6.17 0 .37-.06.47-.3h-.7V33H47ZM48.88 33.26 48.2 32h.5l.42.8.38-.8h.5l-.62 1.26V34h-.5v-.74Z" fill="#4D4E4E"/><path d="M42 27c0 2.5-2.01 4-4.5 4S33 29.44 33 27s2.01-4 4.5-4 4.5 1.5 4.5 4Zm-4.5 2.5c1.7 0 3-.9 3-2.5s-1.3-2.5-3-2.5-3 .97-3 2.5 1.3 2.5 3 2.5Z" fill="#8E7860"/><defs><linearGradient id="as23gribx" x1="30.07" y1="34.54" x2="3.04" y2="34.96" gradientUnits="userSpaceOnUse"><stop stop-color="#8C7862"/><stop offset=".95" stop-color="#8C7761" stop-opacity="0"/></linearGradient></defs></svg>