<!-- by TradingView --><svg xmlns="http://www.w3.org/2000/svg" width="56" height="56" viewBox="0 0 56 56"><path fill="#F0F3FA" d="M0 0h56v56H0z"/><path d="M33.07 17.88c6.56 0 13.69 2.05 15.93 3.1C46.59 19.52 40.5 17 28.2 17S6 22.45 6 28.92 17.35 39 28.53 39c8.94 0 12.96-.89 13.89-1.4-11.45 2.59-34.09-.77-34.37-8.68-.3-8.78 16.82-11.04 25.02-11.04z" fill="url(#avl4xoyux)"/><path d="M23.23 29c-.86 1.17-3.2 2-5.94 2-3.48 0-6.3-1.34-6.3-3h2.28c0 1.09 1.8 1.97 4.02 1.97 1.48 0 2.77-.39 3.47-.97h2.47zm-12.15-1.5c.5-1.42 3.1-2.5 6.21-2.5 2.74 0 5.08.83 5.94 2h-2.47a5.66 5.66 0 0 0-3.47-.97c-1.87 0-3.44.62-3.89 1.47h-2.32zM24 25h2.33l1.71 2.5H25.9L24 25zm2.27 3l2.26 3h1.92l2.27-3h-2.09l-1.14 1.62-1.1-1.62h-2.12zm4.71-.5h2.12L35 25h-2.26l-1.76 2.5zM37 25v2.5h2v-1.48c1.89-.07 3.5 0 3.5.88 0 .25-.17.45-.45.6h2.65c.1-.18.16-.38.17-.6.13-1.69-2.63-1.88-3.94-1.9H37zm0 6v-3h7.3a4.2 4.2 0 0 1-2.47.78L45 31h-2.74L39 28.78V31h-2z" fill="#00704A"/><defs><linearGradient id="avl4xoyux" x1="6.85" y1="30.83" x2="39.71" y2="21.39" gradientUnits="userSpaceOnUse"><stop stop-color="#FFD203"/><stop offset="1" stop-color="#00704A"/></linearGradient></defs></svg>