<!-- by TradingView --><svg xmlns="http://www.w3.org/2000/svg" width="56" height="56" viewBox="0 0 56 56"><path fill="#420A51" d="M0 0h56v56H0z"/><path d="M13.42 36 11 39h34l-2.59-3h-29ZM24.29 16.23V35h.86V15.2l-.86 1.02ZM27.91 12l-.34.5V35h.86V12.5l-.52-.5ZM33.95 35h.87V20.12l-.87-1.02V35ZM30.68 35h.86V16.4l-.86-1.02V35ZM16.52 25.87V35h.87V24.85l-.87 1.02ZM14.8 27.73V35h.86V26.7l-.86 1.02ZM18.08 23.84V35h.86V22.82l-.86 1.02ZM21.18 20.12V35h.87V19.1l-.87 1.02ZM40.17 35h.86v-7.27l-.86-1.02V35ZM42.07 35h.51v-5.58l-.51-.85V35ZM13.24 29.25V35h.52v-6.43l-.52.68ZM38.61 35h.87v-9.13l-.87-1.02V35ZM37.06 35h.86V24l-.86-1v12Z" fill="#fff"/></svg>