<!-- by TradingView --><svg xmlns="http://www.w3.org/2000/svg" width="56" height="56" viewBox="0 0 56 56"><path fill="#005699" d="M0 0h56v56H0z"/><path d="M8.72 23.96v-.02c.66-.17.96-.73.96-1.32 0-.88-.46-1.62-1.54-1.62H5v6h3.07c.85 0 1.82-.24 1.82-1.54.01-.78-.43-1.37-1.17-1.5zm-3.15-2.32h2.46c.62 0 1.08.24 1.08 1 0 .82-.5 1.1-1.27 1.1H5.57v-2.1zm2.42 4.76H5.57v-2.07H8.1c.67 0 1.17.25 1.17 1.15 0 .85-.56.92-1.3.92zm6.32-.45v-2.58c0-.86-.5-1.37-1.85-1.37-1.38 0-1.83.81-1.92 1.75l.53-.2c.04-.72.47-1 1.38-1 .94 0 1.33.25 1.33.89 0 .44-.15.73-1.4.8-.88.04-2 .19-2 1.4 0 1.01.87 1.36 1.56 1.36 1.32 0 1.7-.6 1.87-.9h.02c.01.36.04.8.62.8.19 0 .37-.04.49-.06v-.43c-.1.02-.2.02-.3.02-.24.01-.33-.12-.33-.48zm-.53-.79c0 .93-.9 1.4-1.67 1.4-.63 0-1.17-.21-1.17-.92 0-.54.39-.77 1.05-.83 1.16-.13 1.54-.16 1.8-.34v.7zm2.5-4.16h-.56v1.4h-.88v.47h.88v2.98c0 .74.2 1.12 1.08 1.12.18 0 .41-.02.62-.05v-.54c-.11.03-.28.05-.56.05-.47 0-.57-.18-.57-.58v-2.98h1.13v-.48H16.3V21zm4.19 1.25c-.9 0-1.5.54-1.67 1.02h-.01V21h-.57v6h.57v-2.54c0-1.03.51-1.67 1.63-1.67.73 0 1.21.32 1.21 1.2V27h.57v-2.9c0-1.07-.4-1.85-1.73-1.85zm8.18 1.92h-.52c-.03.25-.13.78-.3 1.04l-1.7-1.4c.58-.27 1.16-.7 1.16-1.5 0-.57-.34-1.31-1.35-1.31-.81 0-1.35.58-1.35 1.33 0 .57.3.94.7 1.36-1.07.51-1.53.9-1.53 1.77 0 1.06.69 1.54 2.1 1.54.87 0 1.64-.35 2.04-.91l1.08.91h.78l-1.53-1.4c.28-.49.42-1.1.42-1.43zm-3.52-1.86c0-.45.38-.72.77-.72.62 0 .86.35.86.75 0 .45-.3.8-.96 1.14-.61-.69-.67-.91-.67-1.17zm.75 4.15c-1.08 0-1.55-.31-1.55-.97 0-.68.41-1.05 1.28-1.42l1.9 1.63c-.48.58-.97.76-1.63.76zm8.97-2.5v-.02c.66-.17.95-.73.95-1.32 0-.88-.45-1.62-1.53-1.62H31v6h3.19c.85 0 1.82-.24 1.82-1.54 0-.78-.44-1.37-1.17-1.5zm-3.15-2.32h2.46c.62 0 1.08.24 1.08 1 0 .82-.5 1.1-1.27 1.1H31.7v-2.1zm2.4 4.78h-2.4v-2.1h2.54c.67 0 1.17.26 1.17 1.16-.02.85-.57.94-1.31.94zm4.69-3.82c-1.55 0-2.29.92-2.29 2.18 0 1.26.74 2.22 2.29 2.22s2.29-.96 2.29-2.22c0-1.26-.74-2.18-2.3-2.18zm0 3.86c-1.08 0-1.7-.6-1.7-1.68 0-1.09.62-1.64 1.7-1.64s1.7.55 1.7 1.64c.02 1.07-.6 1.68-1.7 1.68zm6.67-3.02c-.27-.58-.81-.84-1.57-.84-1.5 0-2.19 1.14-2.19 2.4 0 1.1.54 2 2.2 2 .68 0 1.3-.14 1.56-.6v.6h.65v-6h-.65v2.44zm-1.57 3.02c-1.16 0-1.62-.56-1.62-1.46 0-1.15.71-1.86 1.62-1.86 1.17 0 1.7.93 1.7 1.86-.02 1.17-.76 1.46-1.7 1.46zm4.96.03l-1.63-3.76h-.63l1.96 4.54-.27.63c-.18.44-.38.56-.8.56l-.4-.02v.54c.17.02.37.02.55.02.64 0 .88-.2 1.18-.91L51 22.73h-.63l-1.52 3.76zM23.87 30.05l-1.58 5h-.01L20.6 30h-.73l-1.66 5.05h-.02L16.65 30H16l1.87 6h.68l1.67-5.1h.01l1.7 5.1h.68l1.9-6h-.64v.05zm2.91 1.45c-1.58 0-2.33 1.06-2.33 2.25S25.2 36 26.78 36s2.34-1.06 2.34-2.25-.76-2.25-2.34-2.25zm0 3.99c-1.1 0-1.74-.72-1.74-1.74s.64-1.74 1.74-1.74 1.74.72 1.74 1.74c0 1-.64 1.74-1.74 1.74zm3.77-2.9h-.01v-.97H30V36h.54v-2.3c0-1.2.76-1.6 1.39-1.6.19 0 .35.02.53.05v-.62a1.88 1.88 0 0 0-.34-.03c-.98 0-1.37.59-1.57 1.1zm6.33-.97h-.87l-2.5 2.05V30H33v6h.5v-1.65l.93-.72L36.26 36h.77l-2.16-2.76 2.01-1.62zm2.35 1.8c-1.24-.16-1.52-.26-1.52-.7 0-.59.57-.72 1.19-.72.85 0 1.26.19 1.4.88h.54c-.07-.89-.6-1.38-1.94-1.38-1.19 0-1.77.52-1.77 1.26 0 .75.45 1.07 1.73 1.19 1.27.13 1.56.31 1.56.73 0 .63-.55.81-1.36.81-1.05 0-1.44-.24-1.54-.95H37c0 1.02.76 1.46 2.07 1.46 1.29 0 1.94-.51 1.94-1.35 0-.82-.52-1.05-1.77-1.23z" fill="#fff"/></svg>