<!-- by TradingView --><svg xmlns="http://www.w3.org/2000/svg" width="56" height="56" viewBox="0 0 56 56"><path fill="#F0F3FA" d="M0 0h56v56H0z"/><path d="M33.63 29.75c-.54 1.96-.88 3.31-2.28 3.25 0 0 3-11.27 3.51-13h-3.9l-3.5 13h-1.47l2-8h-3.41c-.53 0-.62.52-.76 1.03L21 36c2.65-.02 5.57.02 8.29 0 3.42-.02 6.32.59 7.53-3.76l2.57-9.26A14.62 14.62 0 0 1 20.15 41.9 15.98 15.98 0 0 0 44 28c0-5.19-2.54-9.86-6.36-12.78l-4.01 14.52z" fill="#DD1D25"/><path d="M22.37 26.33c.54-1.96.58-2.33 2.04-2.33h3.9l1.32-4H26.7c-3.41 0-6.35-.47-7.56 3.88l-2.52 9.18a14.62 14.62 0 0 1 19.24-18.97A15.98 15.98 0 0 0 12 28c-.01 5.1 2.34 9.72 6.37 12.8l4-14.46z" fill="#100F0D"/></svg>