<!-- by TradingView --><svg xmlns="http://www.w3.org/2000/svg" width="56" height="56" viewBox="0 0 56 56"><path fill="#F0F3FA" d="M0 0h56v56H0z"/><path d="M43.1 21.45l-3.28-.01c-1.57-.15-2.54-1.42-2.32-3.02l.8-3.28c.5-2.05-.74-3.71-2.78-3.71h-6.15a5.03 5.03 0 0 0-4.6 3.71l-.8 3.25a4.66 4.66 0 0 1-3.74 3.07l-3.28-.02a5.03 5.03 0 0 0-4.61 3.7l-1.52 6.17c-.5 2.04.75 3.69 2.8 3.69h3.23c1.57.15 2.54 1.43 2.32 3.03l-.8 3.26c-.51 2.05.73 3.71 2.77 3.71h6.15c2.04 0 4.1-1.66 4.61-3.71l.8-3.26a4.67 4.67 0 0 1 3.8-3.02l3.25-.01a5.02 5.02 0 0 0 4.62-3.68l1.52-6.16c.5-2.05-.74-3.7-2.8-3.7zM25.7 37.7c-5.15 0-8.3-4.18-7.02-9.34C19.95 23.2 25.15 19 30.3 19c5.15 0 8.3 4.19 7.03 9.35-1.27 5.16-6.48 9.34-11.63 9.34z"/><path d="M42.38 21H39.1c-1.57-.14-2.54-1.55-2.31-3.13l.8-3.22c.5-2.02-.74-3.65-2.78-3.65h-6.16a5.02 5.02 0 0 0-4.6 3.65l-.8 3.2A4.8 4.8 0 0 1 19.51 21h-3.27a4.86 4.86 0 0 0-4.61 3.48l-1.52 6.06c-.5 2 .75 3.46 2.8 3.46h3.24c1.57.14 2.54 1.57 2.3 3.15l-.8 3.2c-.5 2.02.75 3.65 2.79 3.65h6.15c2.04 0 4.1-1.63 4.6-3.65l.8-3.2c.57-1.58 2.16-3 3.8-3.15h3.25a4.85 4.85 0 0 0 4.62-3.45l1.52-6.06c.5-2-.75-3.49-2.8-3.49zm-17.4 15.83c-5.14 0-8.29-4.11-7.02-9.19 1.27-5.07 6.47-9.18 11.62-9.18 5.15 0 8.3 4.1 7.03 9.18-1.27 5.07-6.47 9.19-11.62 9.19z" fill="#004D96"/></svg>