<!-- by TradingView --><svg width="56" height="56" viewBox="0 0 56 56" xmlns="http://www.w3.org/2000/svg"><path fill="#F0F3FA" d="M0 0h56v56H0z"/><path d="m12.6 22.09 22.13-1.15-.2 1.15H12.6ZM12.3 22.35l30.02 1.6-.54 1.37-29.49-2.97Z" fill="#57A1D1"/><path fill-rule="evenodd" d="M10.8 18.58a.33.33 0 0 0 .1-.24c0-.19-.15-.34-.35-.34-.2 0-.36.15-.36.34 0 .1.04.18.1.24v.2L8.8 19.94l.32.27L9.1 22a18.63 18.63 0 0 1-.3 0v.13h-.67v1.1l.56.78-.13 1.87c.24.38.55.72.9 1.02.43.35.8.52 1.19.7.35.17.71.34 1.12.65.28.22.69.59 1.07 1.19l-.44-5.53.23-.32.23-.32v-1.08h-.44V22h-.32V20.18l.17-.16-1.48-1.23v-.2ZM10.46 22l-.01-1.78H9.42v1.05c0 .02.1.46.54.73h.5Zm1.3 0v-1.77h-1.02V22h1.01Zm-.81 2h-.54v.56h.54V24Zm-.56 2h.54v.56h-.54V26Zm-2.1-3.8v1.02h.43V22.2h-.44Zm4.07 1.06v-1.02h.45v1.02h-.45Zm-4 3.78c.03.07.03.14.03.22 0 .31-.02.77 2.3 2.15 2.37 1.4 2.17 1.76 2.17 1.76l.62 6.64c-.08-.54-.5-2.1-2.78-3.4-2.8-1.59-3.1-3.02-2.34-7.37ZM13.5 38l-.02-.2.02.2Z" fill="#1A4276"/><path d="M17.46 30v-2.82h-.26c-.11 0-.22 0-.33.03a.52.52 0 0 0-.19.09.33.33 0 0 0-.1.14l-.05.17-.05.24h-.08l.03-.85h2.53l.04.85h-.1l-.03-.24a.56.56 0 0 0-.05-.19.34.34 0 0 0-.12-.13.64.64 0 0 0-.2-.09 1.5 1.5 0 0 0-.33-.02H18V30h-.54Zm2.16-2.41-.08-.23a.55.55 0 0 0-.08-.16.28.28 0 0 0-.14-.08.7.7 0 0 0-.2-.03V27h.8a94.73 94.73 0 0 1 .63 2.35h.01l.9-2.35h.24l.93 2.35h.01a350.52 350.52 0 0 0 .6-2.35h.3a17.01 17.01 0 0 1-.22.85 416 416 0 0 0-.55 2.15h-.32l-.95-2.35-.9 2.35h-.33l-.65-2.41Zm5.08 2.3c.18.07.4.11.66.11.27 0 .48-.04.66-.12.17-.07.3-.18.41-.31.11-.15.19-.3.23-.48a2.53 2.53 0 0 0 0-1.18 1.24 1.24 0 0 0-.23-.48c-.1-.14-.24-.25-.41-.32-.18-.07-.4-.11-.66-.11s-.48.04-.66.11c-.16.07-.3.18-.41.32-.11.14-.19.3-.22.48a2.56 2.56 0 0 0 0 1.18c.03.17.11.33.22.48.1.13.25.24.41.31Zm-.15-.9a4.95 4.95 0 0 1 0-.98c.01-.15.05-.3.12-.43a.75.75 0 0 1 .25-.3.79.79 0 0 1 .45-.1c.2 0 .34.03.45.1.11.08.2.19.25.3.06.14.1.28.1.43a5.1 5.1 0 0 1 0 .98 1.3 1.3 0 0 1-.1.43.73.73 0 0 1-.26.3.79.79 0 0 1-.45.1.79.79 0 0 1-.45-.1.73.73 0 0 1-.25-.3 1.3 1.3 0 0 1-.11-.43ZM35.49 27.26c.02.06.03.13.03.2V30H36v-1.52h.2L37.26 30h.53a4.71 4.71 0 0 1-.25-.36l-.13-.19-.7-1 .3-.05c.12-.03.22-.07.3-.13.1-.06.18-.13.24-.22.06-.1.09-.22.09-.36a.54.54 0 0 0-.1-.35.73.73 0 0 0-.28-.2 1.34 1.34 0 0 0-.38-.11 3.1 3.1 0 0 0-.42-.03h-1.4v.09l.2.01c.05 0 .1.02.14.05.04.03.07.06.09.1Zm.94 1.03-.43.01v-.83c0-.13 0-.26.15-.28.06-.01.12-.02.18-.01.1 0 .2 0 .3.02.1.02.19.05.27.1.07.03.13.08.17.15a.4.4 0 0 1 .07.24c0 .14-.03.25-.1.33a.6.6 0 0 1-.25.19c-.11.04-.24.07-.36.08Zm-7.94-.83c0-.07 0-.14-.03-.2a.24.24 0 0 0-.1-.11.4.4 0 0 0-.16-.05l-.2-.01V27h1v1.36h1.5V27h.5v3h-.5v-1.46H29V30h-.5l-.01-2.54Zm4.8-.46 1.33 3h-.5l-.25-.59-.18-.42h-1.32c-.28.63-.42 1.01-.42 1.01h-.32c.28-.55.53-1.13.78-1.7.16-.36.3-.71.47-1.05a.02.02 0 0 1 0-.01.08.08 0 0 0 0-.07.1.1 0 0 0-.05-.05.75.75 0 0 0-.29-.03V27h.74Zm-.85 1.82h1.18l-.59-1.33-.59 1.33Zm6.1-1.36c0-.07 0-.14-.03-.2a.23.23 0 0 0-.09-.11.36.36 0 0 0-.15-.05l-.19-.01V27h1.3l.37.01c.14 0 .28.03.42.08.13.04.25.12.34.21.1.1.14.24.14.42a.6.6 0 0 1-.22.48.78.78 0 0 1-.2.12l-.2.08.28.07c.1.03.18.08.26.14a.7.7 0 0 1 .26.58c0 .19-.05.34-.14.44-.1.1-.21.2-.35.24-.14.06-.29.1-.44.1l-.44.03h-.92v-2.54Zm.46.87h.25l.27-.01c.1 0 .2-.03.3-.06.1-.04.18-.1.24-.17a.5.5 0 0 0 .1-.34c0-.11-.03-.2-.07-.28a.47.47 0 0 0-.16-.17.72.72 0 0 0-.25-.1 1.6 1.6 0 0 0-.5-.01.2.2 0 0 0-.11.05.2.2 0 0 0-.05.11v.05l-.02.15v.78Zm0 1.12.01.15v.05c0 .04.03.08.06.11s.07.05.13.05a2.2 2.2 0 0 0 .58-.02.9.9 0 0 0 .28-.1.57.57 0 0 0 .2-.2.55.55 0 0 0 .07-.3.61.61 0 0 0-.1-.38.66.66 0 0 0-.27-.2 1.1 1.1 0 0 0-.35-.09 4.35 4.35 0 0 0-.36-.01H39v.94Zm2.5-.95c0 .87.44 1.5 1.36 1.5.26 0 .48-.04.66-.12.16-.07.3-.18.41-.31.11-.15.19-.3.23-.48a2.52 2.52 0 0 0 0-1.18 1.24 1.24 0 0 0-.23-.48c-.1-.14-.24-.24-.41-.32-.18-.07-.4-.1-.66-.1s-.48.03-.66.1c-.55.24-.7.84-.7 1.39Zm1.36 1.33c-.75 0-.86-.74-.86-1.33 0-.42.04-.95.42-1.21a.79.79 0 0 1 .45-.12c.2 0 .34.04.45.11.11.08.2.19.25.3.06.14.1.28.1.43a4.84 4.84 0 0 1 0 .98 1.3 1.3 0 0 1-.1.43.73.73 0 0 1-.26.3.79.79 0 0 1-.45.1ZM45 27.45c0-.18-.02-.33-.2-.35l-.2-.01V27H46c.14 0 .28 0 .43.03.13.01.25.05.37.1.11.05.2.12.27.2.07.09.11.2.11.34s-.03.25-.1.35a.73.73 0 0 1-.22.22 1 1 0 0 1-.3.12c-.1.02-.2.04-.3.04l.45.69c.2.31.4.63.62.91h-.53l-1.05-1.57h-.22V30H45v-2.55Zm.53.81.44-.01c.13 0 .25-.03.37-.08a.6.6 0 0 0 .25-.18.5.5 0 0 0 .1-.32.39.39 0 0 0-.07-.24.52.52 0 0 0-.18-.15.86.86 0 0 0-.26-.08 1.74 1.74 0 0 0-.5-.02.2.2 0 0 0-.1.05.14.14 0 0 0-.04.08l-.01.15v.8Zm4.19-.59.03.23h.1l-.04-.82a6.99 6.99 0 0 0-.78-.08c-.15 0-.3.02-.44.04-.13.03-.25.07-.36.13a.62.62 0 0 0-.33.57c0 .14.02.25.08.34.06.1.15.18.24.25.13.08.27.15.4.2l.43.2c.12.06.24.13.34.22a.4.4 0 0 1 .1.14c.03.05.04.1.04.16a.55.55 0 0 1-.2.39.71.71 0 0 1-.23.12 1.19 1.19 0 0 1-.65 0 .83.83 0 0 1-.25-.12.55.55 0 0 1-.22-.34l-.03-.22h-.1l.04.84c.03 0 .08 0 .14.02a4.24 4.24 0 0 0 1.21.01c.14-.03.27-.08.4-.15a.8.8 0 0 0 .26-.25c.07-.12.1-.24.1-.37a.7.7 0 0 0-.05-.27.67.67 0 0 0-.13-.2 1.1 1.1 0 0 0-.21-.17 3 3 0 0 0-.62-.3c-.11-.05-.23-.1-.33-.16-.1-.05-.18-.11-.26-.18a.37.37 0 0 1-.05-.44c.04-.07.09-.12.14-.16a.61.61 0 0 1 .2-.1 1.1 1.1 0 0 1 .58.01c.09.03.17.07.24.13a.54.54 0 0 1 .2.33Z" fill="#1A4276"/><path opacity=".3" d="M41 32H27v2h14v-2Zm9 0h-8v2h8v-2Z" fill="#2695CF"/></svg>