<!-- by TradingView --><svg width="56" height="56" viewBox="0 0 56 56" xmlns="http://www.w3.org/2000/svg"><path fill="url(#ayku3nric)" d="M0 0h56v56H0z"/><path d="M51.77 23h-1.05a.23.23 0 0 0-.15.08.31.31 0 0 0-.07.19v9.46c0 .07.03.14.07.19.04.05.1.08.16.08h1.04c.06 0 .12-.03.16-.08a.31.31 0 0 0 .07-.19v-9.46a.3.3 0 0 0-.01-.1.26.26 0 0 0-.05-.1.21.21 0 0 0-.08-.05.19.19 0 0 0-.09-.02Z" fill="#49378F"/><path d="m9.94 22.83-.77-.77a.29.29 0 0 0-.34 0l-.77.77a.29.29 0 0 0 0 .34l.77.77a.29.29 0 0 0 .34 0l.77-.77a.29.29 0 0 0 0-.34Z" fill="#8DBA38"/><path d="M34.73 31.5h-5.41c-.48.01-.82-.47-.81-.95v-1.02c-.01-.48.33-.94.8-.93h4.46c.06 0 .11-.03.16-.08a.3.3 0 0 0 .07-.19v-1.06a.3.3 0 0 0-.07-.18.25.25 0 0 0-.16-.09h-4.45c-.48.01-.82-.45-.81-.92v-.6c-.01-.47.33-1 .8-.98h5.46c.14-.01.22-.04.23-.2v-1.03a.3.3 0 0 0-.07-.19.24.24 0 0 0-.16-.08h-7.54a.24.24 0 0 0-.16.08.3.3 0 0 0-.07.19v9.46c0 .07.03.14.07.19.05.05.1.08.16.08h7.54c.06 0 .11-.03.16-.08a.3.3 0 0 0 .07-.19v-.98a.34.34 0 0 0-.1-.19c-.04-.05-.1-.06-.17-.06Z" fill="#7C248F"/><path d="M24.01 24.06A3.26 3.26 0 0 0 21.67 23h-6.42a.26.26 0 0 0-.17.08.3.3 0 0 0-.08.19v1.06c0 .07.03.13.08.18.04.05.1.08.17.08h.37a.8.8 0 0 1 .61.27.92.92 0 0 1 .25.66v7.21c0 .07.03.14.08.19.04.05.1.08.17.08h1.01c.07 0 .13-.03.17-.08a.3.3 0 0 0 .09-.19v-1.72a1.01 1.01 0 0 1 .26-.72.87.87 0 0 1 .67-.29h2.74a3.15 3.15 0 0 0 2.35-1.07c.62-.67.97-1.4.98-2.35a3.77 3.77 0 0 0-.99-2.52Zm-2.47 4.44h-2.68a.86.86 0 0 1-.86-.9v-2.08a.97.97 0 0 1 .25-.66.8.8 0 0 1 .62-.27h2.67a1.73 1.73 0 0 1 1.32.58 2 2 0 0 1 .54 1.41c-.01.53-.2.99-.55 1.36-.35.37-.82.55-1.3.56Z" fill="#9A2970"/><path d="m13.94 31.73-3.6-3.58a.26.26 0 0 1 0-.34l3.6-3.58a.26.26 0 0 0 0-.35l-.83-.82a.26.26 0 0 0-.34 0l-3.3 3.28a.68.68 0 0 1-.95 0l-3.29-3.28a.33.33 0 0 0-.39 0l-.78.82a.26.26 0 0 0 0 .35l3.6 3.58a.26.26 0 0 1 0 .34l-3.6 3.58a.26.26 0 0 0 0 .34l.78.87a.26.26 0 0 0 .35 0l3.29-3.28a.68.68 0 0 1 .95 0l3.3 3.28a.26.26 0 0 0 .34 0l.82-.82a.27.27 0 0 0 .05-.4Z" fill="#B51A65"/><path d="M47.8 32.73a.18.18 0 0 0-.03-.13l-2.07-2.65-.12-.14a.17.17 0 0 1-.04-.06v-.07c0-.04 0-.09.03-.13a.23.23 0 0 1 .09-.09c.27-.14.52-.34.73-.58a3.66 3.66 0 0 0 .74-3.75A3.33 3.33 0 0 0 44.2 23h-6.46a.25.25 0 0 0-.16.08.3.3 0 0 0-.08.19v1.06c0 .07.03.13.08.18.04.05.1.08.16.08.58 0 1.28.19 1.26.93l-.04 7.21c0 .07.03.14.08.19.04.05.1.08.16.08h1.14c.06 0 .12-.03.17-.08a.3.3 0 0 0 .07-.19v-1.85a.84.84 0 0 1 .86-.88h1.9c.2 0 .38.04.5.21l1.61 2.08.37.49c.12.13.28.21.45.22h1.34c.12-.09.2-.18.2-.27Zm-3.77-4.23h-2.6c-.1 0-.22-.05-.32-.1a.83.83 0 0 1-.28-.2.98.98 0 0 1-.24-.66v-2.1c-.02-.48.35-.95.85-.94h2.6c.45 0 .88.2 1.2.55.32.35.5.82.5 1.31 0 .5-.18 1.18-.5 1.54-.32.35-.75.59-1.2.6Z" fill="#552B9A"/><defs><linearGradient id="ayku3nric" x1="10.42" y1="9.71" x2="68.15" y2="76.02" gradientUnits="userSpaceOnUse"><stop stop-color="#1A1E21"/><stop offset="1" stop-color="#06060A"/></linearGradient></defs></svg>