<!-- by TradingView --><svg width="56" height="56" fill="none" xmlns="http://www.w3.org/2000/svg"><path fill="url(#a)" d="M0 0h56v56H0z"/><path fill-rule="evenodd" clip-rule="evenodd" d="M19.004 20.5c.02-.023 1.133-.818 2.473-1.77 1.34-.954 2.457-1.723 2.489-1.715.108.034 3.152 2.24 3.121 2.266-.015.015-.229.165-.47.334l-.438.307-.998-.72c-.435-.316-.843-.61-1.023-.74l-.091-.067-.117-.086-1.495 1.07c-.823.588-1.514 1.091-1.541 1.113-.039.042.9.724 2.838 2.06l.198.135 4.038-2.847c2.217-1.568 4.045-2.844 4.061-2.84.078.03 4.958 3.504 4.954 3.526-.008.03-4.869 3.44-4.942 3.47-.047.015-3.16-2.153-3.16-2.205 0-.038.81-.605.892-.623.031-.008.548.33 1.146.754.598.42 1.106.754 1.13.739.023-.012.718-.495 1.54-1.073 1.406-.983 1.496-1.054 1.433-1.11-.031-.034-.6-.444-1.304-.95l-.233-.168-1.475-1.055-.117.09c-.838.612-7.955 5.613-7.982 5.605-.02-.008-1.146-.788-2.5-1.737-1.624-1.137-2.45-1.737-2.427-1.763Zm10.993 10.983c.013-2.031 1.883-3.221 3.74-3.455.447-.06 1.538-.019 1.982.07 1.352.273 2.805 1.166 3.202 2.557.101.36.101 1.362 0 1.712-.425 1.452-1.793 2.26-3.198 2.546-.53.107-1.804.118-2.337.019-1.06-.2-1.85-.575-2.49-1.186-.655-.619-.9-1.383-.9-2.263ZM34.564 34c1.485.012 3.446-.803 3.436-2.517-.01-1.636-2.01-2.468-3.436-2.483-1.472-.016-3.594.85-3.564 2.555.03 1.752 2.094 2.433 3.564 2.445ZM9.537 28.02c-.99.12-1.404.27-1.774.65-.4.411-.575.957-.487 1.53.054.354.172.598.392.805.418.396 1.14.561 3.243.738.293.026.543.046.758.063.73.058 1.055.084 1.299.197.627.286.73.986.209 1.423-.352.298-1.053.52-1.801.566-1.202.072-2.224-.167-3.342-.746l-.44-.226-.304.406c-.168.226-.3.433-.29.46.052.139.84.568 1.393.756.748.256 1.463.358 2.496.358 1.338 0 2.203-.21 2.87-.7.565-.414.836-1.137.711-1.88-.157-.922-.934-1.422-2.496-1.614-.253-.03-.835-.083-1.3-.117-1.595-.11-2.13-.207-2.306-.561-.245-.497.123-.838.995-1.03.447-.095 1.577-.137 2.086-.032a7.837 7.837 0 0 1 1.566.497l.37.17.338-.37c.186-.203.337-.376.34-.387 0-.038-.615-.377-.934-.512a6.966 6.966 0 0 0-1.554-.407c-.374-.056-1.694-.075-2.038-.037ZM16 35v-7h1v7h-1Zm3.003 0H20v-5.685l3.5 4.505 3.5-4.478V35h1.003v-7h-1.262l-3.223 4.127L20.255 28h-1.252v7ZM42 35h-1.002v-7h1.154L48 33.62V28h.998v7h-1.101L42 29.373V35Z" fill="#fff"/><defs><linearGradient id="a" x1="10.418" y1="9.712" x2="68.147" y2="76.017" gradientUnits="userSpaceOnUse"><stop stop-color="#1A1E21"/><stop offset="1" stop-color="#06060A"/></linearGradient></defs></svg>