<!-- by TradingView --><svg xmlns="http://www.w3.org/2000/svg" width="56" height="56" viewBox="0 0 56 56"><path fill="#F0F3FA" d="M0 0h56v56H0z"/><path d="M38.55 17.79A13.52 13.52 0 0 0 34.48 15a13.47 13.47 0 0 0-5.17-1.21c-2.74-.12-5.35.54-7.6 1.88a14.15 14.15 0 0 1 7.9-1.15 14.48 14.48 0 0 1 12.84 14.97v.48c.12-.6.18-1.21.18-1.82.18-4-1.4-7.7-4.08-10.36z" fill="#F2DF00"/><path d="M26.2 40.27c.31 0 .61.06.98 0 1.88 0 3.7-.48 5.35-1.4-1.4.62-2.92.92-4.5.92a11.82 11.82 0 0 1-11.86-14 10.8 10.8 0 0 0-.49 3.45c0 2.06.61 3.94 1.58 5.64.5.73 1.04 1.45 1.65 2.06 2 1.76 4.5 3.03 7.3 3.33z" fill="#FF5000"/><path d="M44.88 27.79v-.49.13c0 4.36-1.7 8.48-4.8 11.57a16.88 16.88 0 0 1-4.14 3.03 16.8 16.8 0 0 1-4.5 1.7c-1.16.24-2.31.36-3.47.36-1.22 0-2.43-.12-3.59-.42-1.52-.37-2.98-.91-4.38-1.64a15.98 15.98 0 0 1-8.51-14c0-2.9.79-5.7 2.3-8.12a13.23 13.23 0 0 1 3.11-3.76 16.42 16.42 0 0 1 16.54-3.94 16.57 16.57 0 0 0-9.67-.36c1.52-.42 3.04-.73 4.69-.73 1.76 0 3.4.25 4.98.8-1.7-.62-3.58-.92-5.53-.92a16.37 16.37 0 0 0-11.98 4.91A16.95 16.95 0 0 0 11 27.85v.3C11 37.5 18.66 45 27.97 45c4.56 0 8.82-1.76 11.98-4.97a16.95 16.95 0 0 0 4.93-11.94v-.12-.18z" fill="#6EC4E9"/><path d="M16.96 15.79l-.06.06c-.37.36-.67.73-.97 1.1l.36-.37a16 16 0 0 1 11.38-4.73c3.28 0 6.32.97 8.88 2.67a15.27 15.27 0 0 1 7.11 10.78 15.82 15.82 0 0 1-4.44 14.12 14.72 14.72 0 0 1-4.38 3.1l1.22-.55a16.88 16.88 0 0 0 4.13-3.03c3.1-3.1 4.81-7.21 4.81-11.58v-.12A16.32 16.32 0 0 0 33.5 11.8a17.16 17.16 0 0 0-4.98-.79 16.74 16.74 0 0 0-11.56 4.79z" fill="#A03123"/><path d="M28.27 43.36c4.2-.3 8.1-2.24 10.95-5.45.3-.36.61-.73.85-1.1-.12.13-.24.31-.36.43a15.47 15.47 0 0 1-8.52 5.03c-.06 0-.12.06-.18.06a14.3 14.3 0 0 1-17.76-12.18 16.43 16.43 0 0 1 2.8-12.36c-.12.18-.24.3-.37.48a16.48 16.48 0 0 0-3.4 10.25v.3c.18 3.7 1.58 7.03 3.83 9.63a15.09 15.09 0 0 0 12.16 4.91z" fill="#F2DF00"/><path d="M42.2 32.33a14.85 14.85 0 0 1-5.53 7.03A14.77 14.77 0 0 1 13.3 29.3a14.68 14.68 0 0 1 4.2-12.73c.97-.96 2.13-1.81 3.28-2.48-.24.12-.42.24-.67.37.19-.13.43-.25.61-.37a16.25 16.25 0 0 0-5.05 4.24 15 15 0 0 0-3.16 9.28c0 .85.06 1.7.24 2.48a15.35 15.35 0 0 0 15.15 12.73h.85c.43 0 .85-.06 1.28-.12a15.13 15.13 0 0 0 8.7-4.37c.12-.12.24-.24.36-.42a13.63 13.63 0 0 0 3.1-5.58c0 .06-.06.13-.06.19 0-.06.06-.13.06-.19z" fill="#003594"/><path d="M28.27 38.03a10.43 10.43 0 0 1-10.46-10.36c0-2.79 1.1-5.4 3.04-7.34a10.9 10.9 0 0 1 3.29-2.24c-1.4.55-2.62 1.34-3.71 2.43-2 2-3.04 4.6-3.04 7.39 0 5.82 4.74 10.48 10.58 10.48A10.56 10.56 0 0 0 36 34.7l-.3.31c-2.01 1.94-4.63 3.03-7.43 3.03z" fill="#FF5000"/><path d="M20 20.03a11.19 11.19 0 0 0-3.22 7.82 11.17 11.17 0 0 0 19.04 7.82c.36-.37.66-.73.97-1.15.18-.25.36-.55.55-.8a11.6 11.6 0 0 0 1.4-5.5c0-6.19-5-11.22-11.14-11.46-1.09 0-2.12.18-3.1.48-1.64.61-3.22 1.52-4.5 2.8zm7.9-2.67A10.52 10.52 0 0 1 36 34.7c-.18.18-.37.42-.55.6-2 2-4.62 3.1-7.48 3.1A10.52 10.52 0 0 1 17.39 27.9a10.43 10.43 0 0 1 6.75-9.82 9.72 9.72 0 0 1 3.77-.73z" fill="#FFC627"/><path d="M39.1 39.49a15.82 15.82 0 0 0 4.44-14.13c-.24-1.45-.73-2.9-1.4-4.18l-.91-1.63a15.9 15.9 0 0 0-9.19-6.8 15.81 15.81 0 0 0-19.95 15.4 15.86 15.86 0 0 0 12.3 15.52 16 16 0 0 0 7.06.06c1.14-.25 2.24-.67 3.27-1.15 1.58-.8 3.1-1.82 4.38-3.1zm-11.13 4.24c-4.8 0-9.18-2.24-11.98-5.7a15.94 15.94 0 0 1-3.53-9.21v-.6c0-4.19 1.64-8.13 4.56-11.1a15.05 15.05 0 0 1 6.2-3.75c1.53-.49 3.05-.73 4.69-.73A15.6 15.6 0 0 1 38.86 39.3a15.55 15.55 0 0 1-10.89 4.43z" fill="#FF5000"/><path d="M28.76 14.15h-.24a13.46 13.46 0 0 0-12.47 8.24l.24-.42a13.3 13.3 0 0 1 11.74-7.09c2.25.06 4.32.55 6.14 1.52a12.55 12.55 0 0 1 5.48 5.33 13.15 13.15 0 0 1 1.64 6.3 13.2 13.2 0 0 1-3.4 8.85c-.07.06-.07.12-.13.18.12-.12.3-.24.43-.42a13.22 13.22 0 0 0 3.7-7.03 9 9 0 0 0 .13-1.28c0-7.51-5.84-13.63-13.26-14.18z" fill="#FF5000"/><path d="M39.65 21.73a13.24 13.24 0 0 0-11.62-6.85 13.23 13.23 0 0 0-11.74 7.1 13.2 13.2 0 0 1 9.49-6.3A12.72 12.72 0 0 1 40.5 25.79a13.12 13.12 0 0 1-2.62 11.03 13.09 13.09 0 0 0 3.41-8.86c0-2.18-.6-4.36-1.64-6.24z" fill="#003594"/></svg>