<!-- by TradingView --><svg width="56" height="56" viewBox="0 0 56 56" xmlns="http://www.w3.org/2000/svg"><path fill="#F0F3FA" d="M0 0h56v56H0z"/><path d="M34.1 11.79c-3.12.02-11.6 1.51-20.57 7.25 2.43-3.7 9.95-10.32 20.56-7.25Zm-23 18.26c.1.56.37 1.93.63 2.95 5.93-2.42 20-7.91 28.8-10.53a4.47 4.47 0 0 0-1.1-1.91c-5 .88-17.66 4-28.33 9.5Zm5.02 10.45a11.63 11.63 0 0 1-1.73-2c15.45-4.59 26.69-10.79 30.37-13.31.13.89.21 1.8.24 2.15-9.3 8.17-23.12 12.18-28.88 13.16Zm27.47-6.86c.31-.51.65-1.75.78-2.31-9.89 8.93-24.4 12.08-24.48 12.04l1.57.88c11.93-2.87 19.72-8.27 22.13-10.61Zm-8.64-17.07-1.4-.88c-3.28.14-12.2 1.74-21.75 7.1 0-.24-.54 1.68-.62 2.55 3.42-2.15 12.98-6.92 23.77-8.77Z" fill="url(#a)"/><path d="m33.62 13.14 1.57.88c-10.74.7-19.85 5.56-23.07 7.9.12-.52.57-1.39.78-1.76 7.47-5.1 16.93-6.8 20.72-7.02ZM13.45 37l-1.17-2.31c9.6-3.51 23.98-9.7 29.97-12.37a8.3 8.3 0 0 1 .47 2.08c-8.79 6.57-23.17 11.14-29.27 12.6Zm5.1 5.66-1.25-.95c13.75-3.77 22.83-10.08 25.66-12.77v1.2c-6.34 7.27-18.91 11.38-24.4 12.52Zm25.74-7.81c-2.04 4.22-9.27 12.09-21.9 9.73 4.25-.67 14.56-3.54 21.9-9.73ZM41.86 18a7.35 7.35 0 0 0-1.57-1.84c-5.44.64-18.91 3.78-29.27 11.25-.03.26-.05 1.16.08 2.63 4.34-2.68 16.57-8.85 30.76-12.04Z" fill="url(#b)"/><defs><linearGradient id="a" x1="43.43" y1="22.55" x2="12.38" y2="34.26" gradientUnits="userSpaceOnUse"><stop stop-color="#CDDC77"/><stop offset=".41" stop-color="#7ABA28"/><stop offset=".76" stop-color="#76B729"/><stop offset="1" stop-color="#B4CF61"/></linearGradient><linearGradient id="b" x1="44.29" y1="22.07" x2="12.77" y2="34.41" gradientUnits="userSpaceOnUse"><stop stop-color="#1E7BC1"/><stop offset=".32" stop-color="#1B2D73"/><stop offset=".6" stop-color="#033E84"/><stop offset="1" stop-color="#4191CE"/></linearGradient></defs></svg>