<!-- by TradingView --><svg width="56" height="56" viewBox="0 0 56 56" xmlns="http://www.w3.org/2000/svg"><path fill="#F0F3FA" d="M0 0h56v56H0z"/><path d="M29 34V23h8v1.67h-6v2.99h5.54v1.67H31v3h6V34h-8ZM24.83 26.57c-.38-1.18-1.43-1.83-2.65-1.83-2.1 0-3.18 1.83-3.18 3.74 0 1.95 1.1 3.78 3.23 3.78 1.54 0 2.8-1.2 2.8-2.81l.46.07H23V28h4v1.29A4.68 4.68 0 0 1 22.22 34C19.04 34 17 31.6 17 28.51c0-3.03 2.02-5.51 5.16-5.51 2.18 0 4.38 1.28 4.75 3.57h-2.08ZM45.83 26.57c-.38-1.18-1.43-1.83-2.65-1.83-2.1 0-3.18 1.83-3.18 3.74 0 1.95 1.1 3.78 3.23 3.78 1.54 0 2.8-1.2 2.8-2.81l.46.07H44V28h4v1.29A4.68 4.68 0 0 1 43.22 34C40.04 34 38 31.6 38 28.51c0-3.03 2.02-5.51 5.16-5.51 2.18 0 4.38 1.28 4.75 3.57h-2.08ZM8 24.67V23h8v1.67h-3V34h-2v-9.33H8Z"/></svg>