<!-- by TradingView --><svg width="56" height="56" viewBox="0 0 56 56" xmlns="http://www.w3.org/2000/svg"><path fill="#FAD000" d="M0 0h56v56H0z"/><path d="M10.57 21A4.5 4.5 0 0 0 6 25.42v5.16A4.5 4.5 0 0 0 10.57 35h.86A4.5 4.5 0 0 0 16 30.58V29h-3v1.43c0 .87-.9 1.57-2 1.57s-2-.7-2-1.57v-4.86c0-.87.9-1.57 2-1.57s2 .7 2 1.57V27h3v-1.58A4.5 4.5 0 0 0 11.43 21h-.86Zm9.3 0-3.42 14h3.8l.54-3h3.18l.53 3h3.95l-3.38-14h-5.2Zm3.74 9h-2.46l1.03-5.72h.42L23.61 30ZM38 35l3.42-14h5.2L50 35h-3.95l-.53-3h-3.18l-.54 3H38Zm4.7-5h2.46l-1-5.72h-.43L42.7 30ZM27 21l3.42 14h5.2L39 21h-3.95l-1.9 10.72h-.42L30.8 21H27Z" fill="#fff"/></svg>