<!-- by TradingView --><svg xmlns="http://www.w3.org/2000/svg" width="56" height="56"><path fill="#FFE900" d="M0 0h56v56H0z"/><path d="M41 33v1.02L34.21 39H8v-1.52L14.9 33H41zm7-16v1.52L41.1 23H15v-1.17L21.79 17H48zm-27.39 7H15v8h5.8v-1.37h-4.32v-2.26H20V27h-3.52v-1.59h4.13V24zm.45 5.41c0 .97.48 2.59 3.31 2.59.69 0 3.08-.2 3.08-2.53 0-1.4-.97-1.83-2.03-2.08l-1.9-.47c-.32-.08-.82-.23-.82-.65 0-.7.74-.93 1.35-.93 1.42 0 1.55.82 1.6 1.17h1.55c0-.95-.65-2.51-3.03-2.51-2.52 0-2.99 1.53-2.99 2.4 0 1.7 1.22 1.82 2.47 2.1l.83.2c.83.2 1.41.36 1.41.96 0 .83-.85 1.01-1.62 1.01-1.42 0-1.63-.82-1.65-1.26h-1.56zm8.4.8L28.92 32h-1.7l2.76-8h1.87l2.74 8h-1.76l-.5-1.8h-2.87zm1.43-4.46l-1 3.11h1.99l-.97-3.1h-.02zM35 32h3.29c1.6 0 2.01-.27 2.46-.7.41-.4.67-1 .67-1.6 0-.77-.25-1.73-1.2-2.08.32-.16 1.01-.5 1.01-1.62 0-.8-.55-2-2.45-2H35v8zm1.56-3.61h2.07c.58 0 1.17.45 1.17 1.13 0 .79-.46 1.14-1.25 1.14h-2v-2.27zm0-3.05h1.86c.74 0 1.25.2 1.25.84 0 .62-.57.9-1.2.9h-1.91v-1.74z" fill="#1F1A17"/></svg>