<!-- by TradingView --><svg xmlns="http://www.w3.org/2000/svg" width="56" height="56" viewBox="0 0 56 56"><path fill="#ED7526" d="M0 0h56v56H0z"/><path d="M9.93 26.98c0-.57-.08-1.07-.28-1.48a1.86 1.86 0 0 0-.77-.93c-.35-.2-.73-.33-1.16-.33-.3 0-.6.06-.86.17-.26.11-.5.29-.69.52-.2.22-.34.53-.45.87-.09.35-.15.74-.15 1.18 0 .43.06.85.17 1.2.1.34.26.65.47.89.2.23.43.4.7.52a2.17 2.17 0 0 0 1.95-.13c.32-.2.6-.5.8-.94.16-.41.27-.93.27-1.54zM7.73 23a4 4 0 0 1 2.05.48 3.1 3.1 0 0 1 1.29 1.39c.3.6.43 1.3.43 2.1 0 .62-.09 1.16-.24 1.64-.15.5-.4.91-.73 1.28-.32.37-.7.63-1.18.83-.47.2-1 .28-1.61.28-.6 0-1.14-.09-1.61-.28a3.23 3.23 0 0 1-1.9-2.1A4.98 4.98 0 0 1 4 26.97c0-.59.09-1.13.26-1.63s.4-.92.73-1.26c.32-.35.7-.61 1.16-.8.47-.2.99-.29 1.59-.29zm35.16 5.07c0 .4.06.72.17 1a1.27 1.27 0 0 0 1.17.85c.25 0 .47-.07.68-.2.21-.13.36-.32.5-.6.12-.29.18-.61.18-1.03 0-.39-.06-.84-.19-1.12-.13-.28-.3-.48-.49-.63a1.16 1.16 0 0 0-.68-.22c-.26 0-.5.07-.7.22-.22.15-.37.37-.47.65-.11.26-.17.59-.17 1.08zm2.79 2.1v-.15c-.2.22-.39.42-.56.55-.19.13-.38.23-.6.32-.2.07-.44.11-.7.11a2.08 2.08 0 0 1-1.68-.85 2.65 2.65 0 0 1-.47-.95c-.1-.37-.17-.76-.17-1.2 0-.88.21-1.73.64-2.22.43-.5 1-.78 1.7-.78.41 0 .75.08 1.03.23.28.16.55.37.8.65v-2c0-.3.07-.51.18-.66.1-.15.28-.22.49-.22.21 0 .38.07.49.22.1.13.17.34.17.6v6.33c0 .43-.22.85-.68.85-.45 0-.64-.43-.64-.82zm-7.32-1.9l-.84.2c-.16.04-.3.13-.44.24a.66.66 0 0 0-.22.51c0 .22.1.42.24.58.18.16.4.24.66.24.28 0 .54-.06.78-.2.24-.13.41-.28.52-.48.13-.23.2-.6.2-1.12v-.22l-.9.25zm1 1.89c-.34.26-.7.48-1.02.62-.32.13-.7.22-1.08.22a2 2 0 0 1-.98-.24 1.55 1.55 0 0 1-.87-1.42c0-.4.13-.76.37-1.03.24-.29.58-.47 1.02-.58l.14-.03.53-.12.53-.12a7.04 7.04 0 0 1 .6-.13c.2-.05.43-.1.66-.17-.03-.38-.1-.67-.24-.87-.13-.18-.42-.27-.85-.27-.37 0-.65.05-.83.16-.2.1-.35.26-.48.46l-.1.18c-.08.11-.13.2-.18.25-.06.06-.17.09-.35.09a.57.57 0 0 1-.58-.56c0-.27.08-.51.26-.76.17-.24.45-.44.85-.6.37-.15.84-.24 1.4-.24.64 0 1.14.07 1.5.22.38.16.62.4.77.74.15.33.22.77.22 1.3v1.7c0 .26.04.55.13.86.08.31.13.5.13.58 0 .16-.07.29-.22.42a.65.65 0 0 1-.48.18.56.56 0 0 1-.43-.22c-.05-.1-.13-.2-.21-.33l-.2-.3zm-5.65-4.8c.39.23.71.57.94 1 .23.44.35.96.35 1.55 0 1.52-1.05 3.09-2.63 3.09-.4 0-.87-.02-1.18-.31a.45.45 0 0 1-.2-.4c0-.25.23-.47.5-.47 1.19 0 1.96-.71 1.96-1.94 0-.37-.07-.69-.18-.97-.12-.28-.3-.48-.5-.63a1.2 1.2 0 0 0-.72-.22c-.42 0-.77.18-1.07.48l-.13.2c-.02 0-.02.02-.03.03 0 0 0 .02-.02.03-.02 0-.02.02-.02.02-.33.52-.33 1.1-.33 1.1v4.13c0 .62-.25.95-.73.95-.3 0-.49-.06-.58-.24-.1-.17-.14-.41-.14-.71V25.8c0-.26.05-.47.18-.6.14-.13.3-.2.54-.2.2 0 .39.09.53.22.13.15.2.34.2.6V26c.3-.33.6-.59.9-.74.33-.15.67-.24 1.07-.24.46 0 .9.11 1.29.35zm-7.3 3.53v1.22c0 .29-.06.53-.19.67a.62.62 0 0 1-.51.22.65.65 0 0 1-.52-.22c-.13-.16-.19-.38-.19-.67V26c0-.67.24-1 .69-1 .23 0 .4.07.51.22.1.16.17.38.17.7.17-.32.34-.54.52-.7.17-.15.4-.22.7-.22.45 0 1.12.33 1.12.84 0 .18-.07.34-.17.45-.13.11-.26.18-.39.18s-.25-.05-.37-.1c-.12-.04-.23-.08-.36-.08a.76.76 0 0 0-.51.18c-.13.1-.24.29-.3.5-.07.23-.13.5-.15.8-.05.3-.05.67-.05 1.12zm-4.24-2.5c.22.25.35.62.4 1.13h-2.61c.04-.48.17-.86.4-1.13.25-.24.53-.37.9-.37s.67.13.91.37zm-2.24 1.98h2.83c.4 0 .67-.07.94-.2.2-.11.3-.34.3-.71 0-.4-.1-.8-.3-1.18-.22-.37-.5-.68-.92-.93a3.27 3.27 0 0 0-2.63-.13 2.6 2.6 0 0 0-1.45 1.57c-.13.38-.2.78-.2 1.22 0 .93.24 1.66.76 2.2.5.52 1.22.79 2.15.79a3.18 3.18 0 0 0 1.85-.55c.2-.16.35-.34.46-.51a.9.9 0 0 0 .15-.47.47.47 0 0 0-.13-.35.54.54 0 0 0-.37-.13c-.15 0-.26.02-.33.08l-.07.07-.36.33a2.38 2.38 0 0 1-.78.49c-.16.04-.3.07-.48.07-.24 0-.48-.07-.7-.2-.22-.14-.39-.34-.52-.58-.13-.26-.2-.55-.2-.88zM13.86 23c-.47 0-.83.07-1.11.17-.28.14-.45.31-.58.6-.1.25-.17.63-.17 1.06v5.3c0 .28.06.5.2.65.12.15.3.22.49.22.21 0 .38-.07.51-.22s.2-.37.2-.65V26.3h.34c.25 0 .45-.02.6-.08.15-.07.21-.22.21-.46 0-.33-.28-.5-.81-.5h-.35v-.35c0-.29.05-.5.11-.66.06-.15.24-.24.5-.24.08 0 .2 0 .34.03.12.02.23.02.27.02.13 0 .22-.05.3-.15a.5.5 0 0 0 .13-.35c.07-.35-.34-.57-1.18-.57zm2.54.17c.27-.1.64-.17 1.1-.17.84 0 1.25.22 1.19.57a.5.5 0 0 1-.13.35c-.09.1-.17.15-.3.15-.04 0-.15 0-.28-.02-.13-.03-.26-.03-.34-.03-.26 0-.43.1-.5.24-.06.16-.14.37-.14.66v.35h.38c.54 0 .81.17.81.5 0 .24-.06.4-.21.46s-.34.08-.6.08H17v3.82c0 .28-.03.5-.16.65a.63.63 0 0 1-.5.22.62.62 0 0 1-.5-.22.99.99 0 0 1-.2-.65v-5.3c0-.43.07-.8.18-1.07.13-.28.3-.45.58-.59zM50 27c.15 0 .3.05.42.17l1.33 1.34c.15.17.25.37.25.59v1.3a.6.6 0 0 1-.6.6h-2.8a.6.6 0 0 1-.6-.6v-1.3c0-.22.1-.45.25-.6l1.33-1.33A.58.58 0 0 1 50 27z" fill="#fff"/></svg>