<!-- by TradingView --><svg width="56" height="56" viewBox="0 0 56 56" xmlns="http://www.w3.org/2000/svg"><path fill="#F0F3FA" d="M0 0h56v56H0z"/><path d="M15.86 12.03c0 .01.41.38.92.82 3.14 2.71 6.95 7.28 10.41 12.5l.88 1.31.69-1.05a79.7 79.7 0 0 1 6.15-8.23 46.53 46.53 0 0 1 5.2-5.18l.22-.2h-5.55l-.49.52a58 58 0 0 0-5.59 6.94l-.63.94-.65-.94a54.6 54.6 0 0 0-5.4-6.72l-.7-.74H18.6c-1.5 0-2.73.01-2.73.03Zm-.8 5.37-.25 1.89-.2 1.6-.03.46.36.38c.55.58 2.27 2.6 3.33 3.93a84.58 84.58 0 0 1 9.3 14.3l.5 1 .53-1.1c1.8-3.67 4.75-8.31 7.93-12.49a92.95 92.95 0 0 1 3.5-4.34c.33-.38.81-.92 1.08-1.2l.49-.51-.13-.98-.28-2.06c-.08-.6-.14-1.21-.14-1.36 0-.14-.03-.26-.07-.26-.03 0-.45.4-.92.9-4.62 4.87-8.71 10.2-11.34 14.76-.33.58-.62 1.05-.65 1.05a8 8 0 0 1-.59-.94 77.92 77.92 0 0 0-8.84-12.07c-1-1.11-3.41-3.7-3.45-3.7-.03 0-.09.33-.14.74Zm-1.22 9.38a768.56 768.56 0 0 1-.46 3.59l-.1.78.46.6a93.46 93.46 0 0 1 5.72 8.95l.15.3h4.42l-.2-.36a88.86 88.86 0 0 0-7.07-11.13 49.79 49.79 0 0 0-2.6-3.19l-.23-.21-.09.67Zm27.53.24a73.65 73.65 0 0 0-6.8 9.6 91.35 91.35 0 0 0-2.44 4.33c0 .03.97.05 2.16.05h2.17l.22-.36.66-1.13a87.14 87.14 0 0 1 5.46-8.34c.03-.05.02-.34-.02-.65l-.12-.97-.15-1.14-.2-1.5a3.69 3.69 0 0 0-.13-.8c-.03 0-.39.41-.8.9Zm1.1 10.8c-.56.78-1.46 2.17-1.83 2.82l-.2.36h1.31l2.25-.05-.57-4.46-.95 1.32ZM12 41h2.36c.7 0 1.28-.02 1.28-.05 0-.19-2.17-3.49-2.87-4.39L12 41Z" fill="#F57D4B"/></svg>