<!-- by TradingView --><svg width="56" height="56" viewBox="0 0 56 56" xmlns="http://www.w3.org/2000/svg"><path fill="#F0F3FA" d="M0 0h56v56H0z"/><path d="M28 10c-3.04 1.88-10.25 5.87-14.72 6.76-.12.75-.22 1.6-.28 2.54l15 5.72V10Zm0 19.83-14.91-5.79c.17 1.88.53 3.88 1.12 5.9L28 35.03v-5.2Zm0 9.97-11.56-4.45c2.3 4.2 5.94 8.1 11.56 10.65v-6.2Z" fill="#EB2226"/><path d="M28 10c3.04 1.88 10.25 5.87 14.72 6.76.12.75.22 1.6.28 2.54l-15 5.72V10Zm0 19.83 14.91-5.79a31.33 31.33 0 0 1-1.12 5.9L28 35.03v-5.2Zm0 9.97 11.56-4.45A24.34 24.34 0 0 1 28 46v-6.2Z" fill="#AF0009"/></svg>