<!-- by TradingView --><svg xmlns="http://www.w3.org/2000/svg" width="56" height="56" viewBox="0 0 56 56"><path fill="#F0F3FA" d="M0 0h56v56H0z"/><path fill-rule="evenodd" d="M24.1 36H28v-5.72h2.88c2.71 0 6.12-1.1 6.12-5.47 0-4.82-5-5.67-5-5.67h-7.95l2.27 1.95v13.08L24.1 36ZM28 22.89v3.97h5.66v-3.97H28Z" fill="url(#ag3yl31co)"/><path d="m26.26 21.14-2.08-1.93v16.63l1.96-1.4.12-13.3Z" fill="#DCDCDC"/><path fill-rule="evenodd" d="M31.67 19H24v17h3.94v-5.5h2.6c1.37 0 3-.35 4.28-1.2 1.3-.85 2.18-2.26 2.18-4.5 0-2.47-1.3-3.93-2.64-4.76a8.18 8.18 0 0 0-2.7-1.04Zm-6.2 15.96-.87.74h3.04v-5.57h2.9c1.33 0 2.9-.28 4.11-1.08 1.22-.79 2.1-2.11 2.1-4.24a5.08 5.08 0 0 0-2.55-4.52 7.88 7.88 0 0 0-2.56-1v.01h-7.19l2.02 1.92V34.1l-.2.17v.11l-.8.58Zm.53-.85-1.7 1.6V19.56l1.7 1.66v12.9Z"/><path d="M26.38 28.5h5.46S35 28 35 24.87c0-.93-.38-1.73-.77-2.26l-1.42 1.17c.16.25.19.45.19.99 0 1.4-1.17 1.73-2.05 1.73h-2.98l-1.6 2Z" fill="url(#bg3yl31co)"/><path d="M26.23 28.69V21h5.61s1.51.35 2.41 1.6L32.94 24c-.41-.77-1.08-1-1.74-1H28v3.36l-1.77 2.33Z"/><path d="m43 24.48-2 1.92v-3l4-3.4-2 4.48Z" fill="url(#cg3yl31co)"/><path d="M45 34.16 43 36h4V19l-2 1v14.16Z" fill="#2C171C"/><path d="M45 34.26 43 36V24.46L45 20v14.26Z" fill="url(#dg3yl31co)"/><path d="M43.03 19 38 23.92l3 2.48v-2.67L45 20l-1.97-1Z" fill="url(#eg3yl31co)"/><path d="M47 19h-4l2 1 2-1Z" fill="url(#fg3yl31co)"/><path d="m16 22.7 2.37-3.29a5.87 5.87 0 0 0-1.75-.25h-4.86c-1.8 0-3.28 1.08-4.26 2.32-.9 1.15-1.25 3.07-1.25 3.07v5.64c0 1.52.93 3.08 2.07 4.12l1.65-1.5-.88-8.26 3.57-2.33 3.33.49Z" fill="url(#gg3yl31co)"/><path d="M21.86 25h-4.3v-2.08L16 22.71l2.38-3.3c.78.24 1.49.66 2.12 1.28 1.17 1.13 1.37 4.31 1.37 4.31Z" fill="url(#hg3yl31co)"/><path d="M20.6 20.58a5.4 5.4 0 0 0-2.18-1.31l-.23.25c.71.24 1.6.7 2.2 1.28.55.53.8 1.75 1.02 2.57.16.57.16 1.06.2 1.31H17.6l.12-1.89-1.46-.2-.54.23 1.58.52V25H22c0-.97-.4-3.44-1.4-4.42Z"/><path d="M12.35 36a6.73 6.73 0 0 1-4.07-1.53l2.23-2.16 7.06.8 1.65-4.55L22 26v5.17a5.3 5.3 0 0 1-1.68 3.32C19.26 35.4 17.42 36 16 36h-3.64Z" fill="url(#ig3yl31co)"/><path d="M19.83 27.95 22 26l-7.84.13 1.88 1.82h3.8Z" fill="url(#jg3yl31co)"/><path d="M14.16 29.84v-3.86L16 27.86l-1.85 1.98Z" fill="#E1DFE2"/><path d="M15.53 32h-3.65l-1.83 1.08s1.48.92 2.83.92h3.67c.95 0 1.88-.37 2.37-.77.5-.4 1.08-1.37 1.08-2.19V27.5l-2 1.86v1.17c0 .41 0 .86-.21 1.07-.3.28-.8.4-1.32.4h-.94Z" fill="url(#kg3yl31co)"/><path fill-rule="evenodd" d="M11.76 19a5.92 5.92 0 0 0-5.46 4.4 6.1 6.1 0 0 0-.3 1.37v5.42c0 1.58 1.06 3.18 2.22 4.23l.1.1 2.35-2.29-.3-.12-2.06 2c-1.06-1.03-2-2.5-2-3.92v-5.63c.06-.36.16-.72.27-1.07.2-.62.5-1.36.94-1.91a5.62 5.62 0 0 1 4.24-2.28h4.86c.53 0 1.04.07 1.5.2l.3.1.2-.27-.2-.06a6.02 6.02 0 0 0-1.8-.27h-4.86Zm4.3 9.08h3.99L22 26h-8v4l2.06-1.92Zm-1.76-1.47v2.7l1.53-1.37-1.53-1.33Zm1.87 1.17-1.69-1.48h6.83l-1.54 1.48h-3.6Z"/><path d="M18 30h-4l1.94-2h4.12L18 30Z"/><path d="M14.86 23c.59 0 1.26.09 1.55.22l1.3-1.8a4.67 4.67 0 0 0-1.87-.42H12.8c-1.12 0-2.77.8-3.52 1.57-.73.76-1.28 1.6-1.28 2.62v1.53c0 1.35 0 2.6.32 3.92.39 1.33 1.66 2.45 1.66 2.45L11.91 32s-.7-.38-1.1-.72c-.9-.75-.81-1.66-.81-3v-2.8c0-.5.25-1.09.72-1.67.47-.58 1.1-.81 1.88-.81h2.26Z" fill="#010101"/><path d="m19.2 23.73-1.9 1.29c0-.93-.53-1.63-.9-1.81l1.3-1.77c.85.4 1.3 1.45 1.5 2.3Z" fill="url(#lg3yl31co)"/><defs><linearGradient id="ag3yl31co" x1="29.25" y1="17.25" x2="41.3" y2="28.93" gradientUnits="userSpaceOnUse"><stop offset=".08" stop-color="#F0F3FA"/><stop offset=".33"/><stop offset=".49" stop-color="#010101"/></linearGradient><linearGradient id="bg3yl31co" x1="30.64" y1="30.92" x2="35.2" y2="22.09" gradientUnits="userSpaceOnUse"><stop offset=".21" stop-color="#F0F3FA"/><stop offset=".37" stop-color="#C4C4C4"/><stop offset=".71" stop-color="#3D3C3C"/></linearGradient><linearGradient id="cg3yl31co" x1="44.59" y1="19.56" x2="40.01" y2="25.1" gradientUnits="userSpaceOnUse"><stop stop-color="#C12725"/><stop offset=".37" stop-color="#38071C"/><stop offset=".74" stop-color="#1D1D1B"/></linearGradient><linearGradient id="dg3yl31co" x1="45.19" y1="27.09" x2="41.58" y2="27.09" gradientUnits="userSpaceOnUse"><stop stop-color="#DC3237"/><stop offset=".52" stop-color="#B02626"/></linearGradient><linearGradient id="eg3yl31co" x1="41.66" y1="19.27" x2="41.66" y2="26.06" gradientUnits="userSpaceOnUse"><stop stop-color="#DE3137"/><stop offset=".75" stop-color="#C33833"/></linearGradient><linearGradient id="fg3yl31co" x1="45.12" y1="19.03" x2="45.12" y2="19.93" gradientUnits="userSpaceOnUse"><stop stop-color="#9F4745"/><stop offset="1" stop-color="#DC3237"/></linearGradient><linearGradient id="gg3yl31co" x1="12.31" y1="19.16" x2="20.67" y2="24.86" gradientUnits="userSpaceOnUse"><stop stop-color="#F0F3FA"/><stop offset=".32" stop-color="#9D9D9D"/><stop offset=".52" stop-color="#3D3D3D"/></linearGradient><linearGradient id="hg3yl31co" x1="16.75" y1="20.75" x2="20.25" y2="24.64" gradientUnits="userSpaceOnUse"><stop stop-color="#464646"/><stop offset=".56" stop-color="#171717"/></linearGradient><linearGradient id="ig3yl31co" x1="22" y1="26.71" x2="8.85" y2="35.85" gradientUnits="userSpaceOnUse"><stop offset=".15"/><stop offset=".4" stop-color="#272727"/><stop offset=".85"/></linearGradient><linearGradient id="jg3yl31co" x1="14.16" y1="27.04" x2="22" y2="27.04" gradientUnits="userSpaceOnUse"><stop offset=".07" stop-color="#E1DFE2"/><stop offset=".7" stop-color="#484647"/></linearGradient><linearGradient id="kg3yl31co" x1="17.5" y1="27.5" x2="9.72" y2="31.57" gradientUnits="userSpaceOnUse"><stop offset=".23" stop-color="#504E4F"/><stop offset=".54" stop-color="#F0F3FA"/><stop offset=".72" stop-color="#AEACAD"/><stop offset=".94" stop-color="#363435"/></linearGradient><linearGradient id="lg3yl31co" x1="17.24" y1="22.22" x2="18.56" y2="25.37" gradientUnits="userSpaceOnUse"><stop stop-color="#403C3D"/><stop offset=".81" stop-color="#828284"/></linearGradient></defs></svg>