<!-- by TradingView --><svg width="56" height="56" viewBox="0 0 56 56" xmlns="http://www.w3.org/2000/svg"><path fill="#F0F3FA" d="M0 0h56v56H0z"/><path d="M9.5 20h.5c-2.46 3.42-3.4 9.54-3.4 11.19 0 1.32.1 2.42.16 2.81h-.61c-.8-6.7 1.9-12.13 3.35-14Z" fill="url(#a)"/><path d="M46.5 36H46c2.46-3.42 3.4-9.54 3.4-11.19 0-1.32-.1-2.42-.16-2.81h.61c.8 6.7-1.9 12.13-3.35 14Z" fill="url(#b)"/><path d="M14.31 19H17a17.38 17.38 0 0 0-6.15 13.3c0 2.48.44 4.17.66 4.7H9.36c-.12-.44-.36-1.88-.36-4.16 0-7.5 3.54-12.35 5.31-13.84Z" fill="#2F2D79"/><path d="M9.99 20H12c-1.13 1.56-3.4 5.66-3.4 9.6 0 3.93.92 6.57 1.39 7.4h-1.4C8.07 36.03 7 33.23 7 29.77c0-4.4 2-8.35 2.99-9.77Z" fill="url(#c)"/><path d="M35.66 33c-1.26 0-2.64-.21-3.66-.64v-2.05h.12c1.09.46 2.51.69 3.79.69.56 0 1.59-.21 1.59-.96 0-.37-.43-.66-1.32-.85-1.8-.42-4.18-.79-4.18-3.13 0-2.29 2.37-3.06 4.3-3.06 1.18 0 2.23.2 3.15.62v2.06h-.14a7.57 7.57 0 0 0-3.27-.68c-.55 0-1.54.22-1.54.95 0 .93 2.14 1.07 2.79 1.22 1.4.31 2.71 1.19 2.71 2.75 0 2.3-2.4 3.08-4.34 3.08ZM23 33V23h4.43c1.68 0 3.29.77 3.29 2.64 0 .99-.45 1.7-1.34 2.16 1.08.42 1.62 1.23 1.62 2.42 0 1.97-1.72 2.78-3.48 2.78H23Zm2.5-6h1.79c.81 0 1.22-.37 1.22-1.01 0-.66-.41-.99-1.22-.99H25.5v2Zm0 4h1.9c.92 0 1.38-.26 1.38-.97 0-.72-.68-1.03-1.32-1.03H25.5v2ZM17.36 33c-2.43 0-2.94-.56-3.36-.66v-1.98c.3.1 1.22.64 3.22.64.8 0 1.28-.36 1.28-1.14V23H21v6.83c0 2.08-1.57 3.17-3.64 3.17ZM41.69 37H39a17.38 17.38 0 0 0 6.15-13.3c0-2.48-.44-4.17-.66-4.7h2.15c.12.44.36 1.88.36 4.16 0 7.5-3.54 12.35-5.31 13.84Z" fill="#2F2D79"/><path d="M46.01 36H44c1.13-1.56 3.4-5.66 3.4-9.6 0-3.93-.92-6.57-1.39-7.4h1.4c.53.97 1.59 3.77 1.59 7.23 0 4.4-2 8.35-2.99 9.77Z" fill="url(#d)"/><defs><linearGradient id="a" x1="8" y1="20" x2="8" y2="34" gradientUnits="userSpaceOnUse"><stop stop-color="#A8CE36"/><stop offset="1" stop-color="#A8CE36" stop-opacity="0"/></linearGradient><linearGradient id="b" x1="48" y1="36" x2="48" y2="22" gradientUnits="userSpaceOnUse"><stop stop-color="#A8CE36"/><stop offset="1" stop-color="#A8CE36" stop-opacity="0"/></linearGradient><linearGradient id="c" x1="9.5" y1="20" x2="9.5" y2="37" gradientUnits="userSpaceOnUse"><stop stop-color="#4CC7EE"/><stop offset="1" stop-color="#285DAA"/></linearGradient><linearGradient id="d" x1="46.5" y1="36" x2="46.5" y2="19" gradientUnits="userSpaceOnUse"><stop stop-color="#4CC7EE"/><stop offset="1" stop-color="#285DAA"/></linearGradient></defs></svg>