<!-- by TradingView --><svg width="56" height="56" viewBox="0 0 56 56" xmlns="http://www.w3.org/2000/svg"><path fill="#F0F3FA" d="M0 0h56v56H0z"/><path d="M4.99 28.67v1.01l.44.06V30H4v-.26l.45-.06v-2.36L4 27.26V27h3v.72h-.43l-.06-.4H4.99v1.03h1.46v.32H4.99ZM10.14 28.6l.6 1.1.26.03V30h-.6l-.73-1.35-.67.01v1.02l.3.06V30H8v-.26l.45-.06v-2.36L8 27.26V27h1.62c.54 0 1.28.17 1.28.84 0 .4-.31.66-.76.76ZM9 27.32v1.02h.57c.55 0 .78-.18.78-.5 0-.33-.23-.52-.73-.52H9ZM12.87 29.15l-.2.55.23.04V30H12v-.26l.23-.03 1.1-2.71h.36l1.08 2.7.23.04V30h-.9v-.26l.24-.04-.21-.55h-1.26Zm.67-1.56-.03-.07-.03.07L13 28.8h1l-.47-1.22ZM17 27.65v2.03l.47.06V30H16v-.26l.45-.06v-2.36l-.45-.06V27h1.02L19 29.34v-2.02l-.47-.06V27H20v.26l-.45.06V30h-.51L17 27.65ZM23.88 27.26l-.3.05-1 1 1.12 1.38.3.05V30h-1.08v-.26l.26-.03-.87-1.12-.41.51v.58l.27.06V30H21v-.26l.35-.06v-2.36l-.35-.06V27h1.17v.26l-.27.06v1.29l1.18-1.3v-.02l-.24-.03V27h1.04v.26ZM27.5 29.69l.07-.48H28V30h-3v-.26l.45-.06v-2.36l-.45-.06V27h1.5v.26l-.5.06v2.37h1.5ZM30 27.32v2.36l.5.06V30H29v-.26l.45-.06v-2.36l-.45-.06V27h1.5v.26l-.5.06ZM33 27.65v2.03l.47.06V30H32v-.26l.45-.06v-2.36l-.45-.06V27h1l2 2.34v-2.02l-.47-.06V27H36v.26l-.45.06V30H35l-2-2.35ZM42.77 30H41v-.26l.45-.06v-2.36l-.45-.06V27h1.6c.79 0 1.3.27 1.3.81 0 .27-.28.5-.62.6.38.06.72.33.72.74 0 .55-.48.85-1.23.85Zm-.16-2.68H42v.96h.74c.36 0 .61-.19.61-.48 0-.32-.27-.48-.74-.48Zm.23 1.27H42v1.1h.77c.46 0 .68-.2.68-.53 0-.39-.25-.57-.6-.57ZM46.47 30c-.53 0-1.02-.1-1.47-.32v-.62h.46l.1.46c.26.1.56.17.91.17.32 0 .98-.06.98-.49s-.76-.5-1.05-.55c-.47-.07-1.4-.23-1.4-.85 0-.66.97-.8 1.45-.8.61 0 1.09.14 1.39.32v.58h-.46l-.1-.42c-.18-.1-.44-.16-.83-.16-.3 0-.9.07-.9.47 0 .41.78.47 1.05.52.93.15 1.4.45 1.4.89 0 .69-1.04.8-1.53.8ZM50 29.68l.35.06V30H49v-.26l.45-.06v-2.36l-.45-.06V27h1.73c.56 0 1.27.22 1.27.9 0 .67-.7.9-1.27.9H50v.88Zm.73-2.36H50v1.16h.73c.51 0 .72-.25.72-.58 0-.33-.2-.58-.72-.58Z" fill="#002438"/><path fill-rule="evenodd" d="M38.2 19.4V19H38v.4h-.5v.58l-.5 1v.54l.53 1.68h1.14l.53-1.68v-.54l-.5-1v-.58h-.5Zm-.5.6v.02l-.49.98H38v-1h-.3Zm-.03 3-.47-1.5h.8V23h-.33Zm.53 0v-1.5h.8l-.47 1.5h-.33Zm.3-2.98.49.98h-.79v-1h.3v.02Z" fill="#002438"/><path d="M37.6 23.5h1l-.48.48-.02.02.5 6.5c.17 0 .5.1.5.5 0 .5-.5.5-.5 1s.5 0 .5.5-.5 0-.5.5c0 .4.33.5.5.5v.5h-2v-.5c.17 0 .5-.1.5-.5 0-.5-.5 0-.5-.5s.5 0 .5-.5-.5-.5-.5-1c0-.4.33-.5.5-.5l.5-6.5.02-.02-.52-.48Z" fill="#002438"/></svg>