<!-- by TradingView --><svg width="56" height="56" viewBox="0 0 56 56" xmlns="http://www.w3.org/2000/svg"><path fill="#0B253E" d="M0 0h56v56H0z"/><path d="M27 12c-8.4.64-15 7.56-15 16 0 8.44 6.6 15.36 15 16v-4.78a11.4 11.4 0 0 1-10.23-11.28A11.4 11.4 0 0 1 27 16.67V12Z" fill="url(#audwdbfik)"/><path d="M24.63 38.7A11.26 11.26 0 0 1 17 27.94c0-5.05 3.2-9.32 7.75-10.8-6.45.68-11.43 5.25-11.43 10.79 0 5.5 4.92 10.04 11.31 10.77Z" fill="url(#budwdbfik)"/><path d="M29 12c8.4.64 15 7.56 15 16 0 8.44-6.6 15.36-15 16v-4.78a11.4 11.4 0 0 0 10.23-11.28A11.4 11.4 0 0 0 29 16.67V12Z" fill="url(#cudwdbfik)"/><path d="M31.37 38.7c4.5-1.51 7.63-5.76 7.63-10.76 0-5.05-3.2-9.32-7.75-10.8 6.45.68 11.43 5.25 11.43 10.79 0 5.5-4.92 10.04-11.31 10.77Z" fill="url(#dudwdbfik)"/><defs><linearGradient id="audwdbfik" x1="12" y1="28" x2="27" y2="28" gradientUnits="userSpaceOnUse"><stop stop-color="#CBB569"/><stop offset=".34" stop-color="#DFC789"/><stop offset=".56" stop-color="#FDE9C3"/><stop offset="1" stop-color="#CCB56A"/></linearGradient><linearGradient id="budwdbfik" x1="19.04" y1="17.14" x2="19.04" y2="38.7" gradientUnits="userSpaceOnUse"><stop offset=".09" stop-color="#806416"/><stop offset=".51" stop-color="#EBD8AE"/><stop offset=".9" stop-color="#846721"/></linearGradient><linearGradient id="cudwdbfik" x1="44" y1="28" x2="29" y2="28" gradientUnits="userSpaceOnUse"><stop stop-color="#CBB569"/><stop offset=".34" stop-color="#DFC789"/><stop offset=".56" stop-color="#FDE9C3"/><stop offset="1" stop-color="#CCB56A"/></linearGradient><linearGradient id="dudwdbfik" x1="36.96" y1="17.14" x2="36.96" y2="38.7" gradientUnits="userSpaceOnUse"><stop offset=".09" stop-color="#806416"/><stop offset=".51" stop-color="#EBD8AE"/><stop offset=".9" stop-color="#846721"/></linearGradient></defs></svg>