<!-- by TradingView --><svg width="56" height="56" viewBox="0 0 56 56" xmlns="http://www.w3.org/2000/svg"><path fill="#181B1E" d="M0 0h56v56H0z"/><path d="M48 21.63c-2.3 1.6-5.11 2.84-9.36 3.42a15.5 15.5 0 0 0-7.9 3.62A13.31 13.31 0 0 0 26.35 37h2.57c.5-3.2 1.84-5.43 3.64-7.02 2.25-2.01 5.2-2.67 7.43-2.67v3.19c-1.64 0-3.8.49-5.35 1.87-1.5 1.34-2.78 3.66-2.78 7.63H23c0-6.43 2.45-10.89 5.65-13.73a18.64 18.64 0 0 1 9.57-4.38c3.78-.52 6.13-1.59 7.99-2.89L48 21.63ZM9.82 19c1.9 1.3 4.28 2.37 8.13 2.89 3.43.45 6.19 2.12 9.05 3.72-1.14 1.06-3.59 4.03-4.23 7.39-.48-.2-.83-.31-1.19-.63-1.58-1.39-3.9-1.9-5.58-1.9v-3.2c1.58 0 3.74.34 5.5 1.22.26-.49.7-1.23 1.09-1.83a16.08 16.08 0 0 0-5.07-1.61c-4.32-.58-7.19-1.82-9.52-3.42L9.82 19Z" fill="#fff"/></svg>