<!-- by TradingView --><svg width="56" height="56" viewBox="0 0 56 56" xmlns="http://www.w3.org/2000/svg"><path fill="#F0F3FA" d="M0 0h56v56H0z"/><path d="M27.94 12c6.92 0 12.8 4.4 15.03 10.55a7.4 7.4 0 0 1-7.1 4.45c-3.7 0-6.44-1.79-7.16-7.25a9.75 9.75 0 0 0-4.69-7.26 16 16 0 0 1 3.92-.49Z" fill="#01B5D8"/><path d="M28.06 44c-6.92 0-12.8-4.4-15.03-10.55a7.4 7.4 0 0 1 7.1-4.45c3.7 0 6.44 1.79 7.16 7.25a9.75 9.75 0 0 0 4.69 7.26 16 16 0 0 1-3.92.49Z" fill="#058DF1"/><path d="M12 28.06c0-6.92 4.4-12.8 10.55-15.03a7.4 7.4 0 0 1 4.45 7.1c0 3.7-1.79 6.44-7.25 7.16a9.75 9.75 0 0 0-7.26 4.69 16 16 0 0 1-.49-3.92Z" fill="#2F54A5"/><path d="M44 27.94c0 6.92-4.4 12.8-10.55 15.03a7.4 7.4 0 0 1-4.45-7.1c0-3.7 1.79-6.44 7.25-7.16a9.75 9.75 0 0 0 7.26-4.69 16 16 0 0 1 .49 3.92Z" fill="#C9D422"/></svg>