<!-- by TradingView --><svg width="56" height="56" viewBox="0 0 56 56" xmlns="http://www.w3.org/2000/svg"><path fill="#007CBA" d="M0 0h56v56H0z"/><path d="m28.74 21-.52-4h1.55l-.52 4h-.51ZM26.8 22 24 20.1l1.1-1.02 2.06 2.58-.36.34ZM31.2 22l2.8-1.9-1.1-1.02-2.06 2.58.36.34Z" fill="#80BC00"/><path d="M8.56 31a2.9 2.9 0 0 1-1.81-.57A2.02 2.02 0 0 1 6 28.8c0-.16.07-.3.17-.41.1-.12.27-.2.45-.2.16 0 .3.05.4.14.1.08.14.19.18.29.06.2.07.43.11.55.1.27.27.45.48.56.22.12.48.17.8.17.29 0 .58-.11.8-.3a.94.94 0 0 0 .35-.7c0-.23-.1-.38-.26-.53a2.6 2.6 0 0 0-.72-.38c-.59-.24-1.32-.45-1.84-.9-.34-.29-.58-.7-.58-1.25 0-.54.25-1 .65-1.33.4-.33.93-.52 1.5-.52.45 0 .92.08 1.32.28a1.75 1.75 0 0 1 1.01 1.48c0 .16-.07.3-.19.4a.68.68 0 0 1-.43.12.55.55 0 0 1-.4-.16c-.1-.1-.15-.2-.2-.32-.12-.22-.22-.45-.43-.6a1.1 1.1 0 0 0-.63-.16c-.23 0-.47.09-.66.23-.18.15-.3.34-.3.55 0 .23.1.39.27.53.17.15.42.27.72.38.59.23 1.33.42 1.85.87.34.29.59.7.58 1.27 0 .63-.27 1.17-.72 1.54-.44.38-1.06.59-1.72.59ZM17.97 31a.57.57 0 0 1-.56-.58v-2.11c0-.36-.06-.67-.2-.89-.13-.2-.33-.34-.7-.34-.38 0-.58.13-.73.34-.14.21-.2.53-.2.89v2.11c0 .32-.26.58-.56.58a.58.58 0 0 1-.57-.58v-2.11c0-.35-.05-.67-.18-.89-.13-.2-.32-.34-.68-.34-.38 0-.6.12-.74.33-.15.2-.22.51-.22.88v2.12c0 .32-.26.58-.56.58a.58.58 0 0 1-.57-.58v-3.87c0-.3.25-.54.54-.54.24 0 .46.18.52.42A1.6 1.6 0 0 1 13.7 26c.5 0 1.07.2 1.39.64.36-.45.88-.65 1.45-.64.62 0 1.12.2 1.46.58.33.37.5.9.5 1.5v2.34a.53.53 0 0 1-.53.58ZM29.96 27h-.78v3.37c0 .34-.26.63-.58.63-.33 0-.59-.3-.6-.63v-5.73c0-.35.27-.63.6-.64.17 0 .32.07.42.2.1.1.16.27.16.44V26h.78c.32 0 .56.21.56.54 0 .31-.24.46-.56.46ZM33.07 31a2.9 2.9 0 0 1-1.82-.57 2.02 2.02 0 0 1-.75-1.62c0-.16.07-.3.17-.41.1-.12.27-.2.45-.2.17 0 .3.05.4.14.1.08.14.19.18.29.06.2.07.43.12.55.1.27.26.45.47.56.22.12.49.17.8.17.29 0 .58-.11.8-.3a.94.94 0 0 0 .35-.7c0-.23-.09-.38-.26-.53a2.61 2.61 0 0 0-.72-.38c-.59-.24-1.32-.45-1.84-.9-.34-.29-.58-.7-.58-1.25 0-.54.26-1 .65-1.33.4-.33.93-.52 1.51-.52.45 0 .92.08 1.32.28.39.2.72.5.9.94.06.17.11.35.11.54a.5.5 0 0 1-.19.4.68.68 0 0 1-.43.12.55.55 0 0 1-.4-.16c-.1-.1-.15-.2-.21-.32-.11-.22-.22-.45-.43-.6a1.1 1.1 0 0 0-.63-.16c-.23 0-.47.09-.66.23-.18.15-.29.34-.29.55 0 .23.1.39.26.53.17.15.43.27.72.38.6.23 1.33.42 1.85.87.34.29.59.7.58 1.27 0 .63-.27 1.17-.72 1.54-.45.38-1.05.59-1.71.59ZM38.7 27H38v3.37c0 .34-.34.63-.66.63-.33 0-.59-.3-.6-.63V27h-.47c-.31 0-.57-.17-.57-.5 0-.34.26-.5.57-.5h.47v-1.36c0-.35.27-.63.6-.64.16 0 .31.07.42.2.1.1.24.27.24.44V26h.7c.32 0 .56.17.56.5 0 .33-.25.5-.56.5ZM42 31a2.51 2.51 0 0 1-2.5-2.53c0-1.4 1.16-2.46 2.5-2.47a2.44 2.44 0 0 1 2.5 2.49A2.5 2.5 0 0 1 42 31Zm0-3.94c-.78 0-1.39.64-1.39 1.44 0 .8.61 1.45 1.4 1.45.77 0 1.4-.66 1.4-1.45 0-.81-.62-1.44-1.4-1.44ZM47.52 31c-.5 0-.97.01-1.38-.27v1.69c0 .32-.26.58-.57.58a.58.58 0 0 1-.57-.58v-3.85c0-.72.28-1.36.73-1.82a2.5 2.5 0 0 1 1.78-.75c.7 0 1.3.28 1.76.75.45.46.73 1.1.73 1.82 0 1.44-1.1 2.43-2.48 2.43Zm0-3.9c-.79 0-1.38.68-1.38 1.48 0 .8.6 1.5 1.38 1.5.78 0 1.38-.7 1.38-1.5s-.6-1.48-1.38-1.48ZM21.5 31a2.5 2.5 0 1 1 0-5c.69 0 1.31.27 1.77.73.46.44.73 1.07.73 1.77v1.85c0 .3-.25.56-.57.56a.57.57 0 0 1-.52-.35c-.41.3-.9.44-1.42.44Zm0-1.06a1.4 1.4 0 0 0 1.37-1.44c0-.78-.6-1.45-1.38-1.45a1.4 1.4 0 0 0-1.37 1.45c0 .78.59 1.44 1.37 1.44ZM24.5 30.42v-2.05c0-.66.13-1.25.46-1.68.33-.43.85-.69 1.57-.69h.97v1h-.88c-.4 0-.62.22-.76.44a1.7 1.7 0 0 0-.21.93v2.05c0 .32-.26.58-.58.58a.58.58 0 0 1-.57-.58Z" fill="#fff"/></svg>