<!-- by TradingView --><svg width="56" height="56" viewBox="0 0 56 56" xmlns="http://www.w3.org/2000/svg"><path fill="#F0F3FA" d="M0 0h56v56H0z"/><path fill-rule="evenodd" d="M52 22H5v7h47v-7Zm-41.81 3.27a.41.41 0 0 0-.14-.3c-.09-.07-.21-.1-.38-.1-.11 0-.2.01-.27.04a.32.32 0 0 0-.15.1.26.26 0 0 0-.05.16c0 .04 0 .09.02.12a.3.3 0 0 0 .1.1l.16.08.24.07.32.07c.21.04.4.1.55.18.15.07.27.16.37.26.1.1.17.22.22.34a1.2 1.2 0 0 1-.12 1.07c-.13.17-.31.3-.55.4-.23.1-.5.14-.84.14-.33 0-.63-.05-.88-.15-.25-.1-.44-.26-.58-.46-.14-.21-.2-.48-.21-.8h1c0 .11.04.21.09.3a.5.5 0 0 0 .22.18c.1.04.21.06.35.06.11 0 .2-.01.28-.04a.38.38 0 0 0 .17-.12c.04-.05.06-.1.06-.17a.24.24 0 0 0-.06-.15.45.45 0 0 0-.18-.12c-.08-.04-.2-.08-.34-.1l-.39-.1c-.34-.07-.61-.2-.8-.37a.92.92 0 0 1-.3-.72c0-.25.06-.46.2-.65.13-.18.31-.33.55-.43.24-.1.5-.16.82-.16.3 0 .58.05.8.16.24.1.41.25.53.44.13.2.2.42.2.67h-1.01Zm32.52 0a.41.41 0 0 0-.14-.3c-.09-.07-.21-.1-.38-.1-.11 0-.2.01-.27.04a.32.32 0 0 0-.15.1.26.26 0 0 0-.05.16c0 .04 0 .09.02.12a.3.3 0 0 0 .1.1l.16.08.24.07.32.07c.21.04.4.1.55.18.15.07.28.16.37.26.1.1.17.22.22.34a1.2 1.2 0 0 1-.12 1.07c-.13.17-.3.3-.54.4-.24.1-.52.14-.85.14-.33 0-.63-.05-.88-.15-.25-.1-.44-.26-.58-.46-.14-.21-.2-.48-.2-.8h.99c0 .11.04.21.09.3a.5.5 0 0 0 .22.18c.1.04.22.06.35.06.11 0 .2-.01.28-.04a.38.38 0 0 0 .17-.12c.04-.05.06-.1.06-.17a.24.24 0 0 0-.06-.15.45.45 0 0 0-.18-.12c-.08-.04-.2-.08-.34-.1l-.39-.1c-.34-.07-.6-.2-.8-.37a.92.92 0 0 1-.3-.72c0-.25.06-.46.2-.65.13-.18.31-.33.55-.43.24-.1.51-.16.82-.16.3 0 .58.05.8.16.24.1.41.25.54.44.12.2.18.42.19.67H42.7ZM34 24v4h1.8c.27 0 .51-.05.71-.15a1.06 1.06 0 0 0 .63-.99.98.98 0 0 0-.12-.48.92.92 0 0 0-.77-.46v-.04a1 1 0 0 0 .39-.17.85.85 0 0 0 .35-.71c0-.2-.05-.38-.15-.53a.97.97 0 0 0-.45-.35c-.2-.08-.44-.12-.74-.12H34Zm1.52 3.13H35v-.84h.54c.1 0 .2.02.27.05a.39.39 0 0 1 .23.39c0 .13-.04.23-.13.3-.09.07-.22.1-.39.1Zm-.06-1.51H35v-.77h.48a.5.5 0 0 1 .32.1c.08.07.12.16.12.28 0 .09-.02.16-.06.21-.04.06-.09.1-.16.13a.6.6 0 0 1-.24.05ZM24 24h1v2.53c0 .3-.06.56-.19.78-.13.22-.3.4-.53.51-.22.12-.48.18-.78.18-.3 0-.56-.06-.79-.18a1.3 1.3 0 0 1-.52-.5 1.56 1.56 0 0 1-.19-.79V24h1v2.44c0 .33.15.56.5.56.34 0 .5-.2.5-.56V24Zm-12.96 4h1.01l.2-.77h1.15l.2.77h1.01l-1.14-4h-1.29l-1.14 4Zm2.14-1.58-.34-1.32h-.03l-.34 1.32h.71ZM26.02 28H25l1.15-4h1.28l1.15 4h-1.02l-.2-.77h-1.14l-.2.77Zm.78-2.9.35 1.32h-.72l.35-1.32h.02ZM37 28h1.02l.2-.77h1.14l.2.77h1.02l-1.15-4h-1.28L37 28Zm2.15-1.58-.35-1.32h-.02l-.35 1.32h.72ZM15 24v4h1v-2.21L17.07 28H18v-4h-1v1.92L16.08 24H15Zm31 4v-4h1.08l.92 1.66V24h1v4h-.93L47 25.94V28h-1Zm-17-4v4h1v-2.21L31.1 28h.9v-4h-1v1.92L30.1 24H29Zm-9 0v2.8c-.01.08-.15.26-.5.26-.36 0-.5-.07-.5-.1v.92c.07.04.34.12.7.12.44 0 1.3-.15 1.3-1.1V24h-1Zm24 0h1v4h-1v-4Z" fill="#005356"/><path fill-rule="evenodd" d="M44 29H5v7h39v-7ZM8.61 30v4h.79v-1.32h.27l.51 1.32h.86l-.59-1.5a1 1 0 0 0 .36-.42c.09-.2.14-.43.14-.72 0-.28-.05-.53-.14-.73-.09-.2-.21-.36-.38-.47a1 1 0 0 0-.56-.16H8.6Zm.79 1.84h.28c.1 0 .17-.02.24-.05a.33.33 0 0 0 .15-.16.6.6 0 0 0 .05-.27c0-.12-.02-.2-.05-.28a.34.34 0 0 0-.15-.16.5.5 0 0 0-.24-.05H9.4v.97Zm4.31.16c0 .43-.06.8-.18 1.1-.12.3-.28.52-.48.67a1.1 1.1 0 0 1-1.36 0c-.2-.15-.36-.38-.47-.68-.12-.3-.18-.66-.18-1.09 0-.43.06-.8.18-1.1.11-.3.28-.52.48-.67.2-.15.43-.23.68-.23.24 0 .47.08.67.23.2.15.36.38.48.67.12.3.18.67.18 1.1Zm-.77 0c0-.23-.02-.43-.06-.59a.78.78 0 0 0-.2-.36.42.42 0 0 0-.3-.13.43.43 0 0 0-.32.13.8.8 0 0 0-.19.36 2.3 2.3 0 0 0-.06.59c0 .23.02.43.06.6.04.15.1.27.2.36.08.08.18.12.3.12.13 0 .23-.04.32-.12.08-.09.15-.2.19-.37.04-.16.06-.36.06-.59Zm.55-2h.88l.57 1.33h.02l.57-1.33h.88l-1.07 2.24V34h-.78v-1.76L13.49 30ZM19 34h2.13v-.88h-1.27V30H19v4Zm1.44-3.13V30h3.03l.57 1.33h.02l.57-1.33h.88l-1.07 2.24V34h-.78v-1.76l-.82-1.72v.36H22V34h-.74v-3.13h-.83Zm15.1.38a.45.45 0 0 0-.11-.29c-.07-.07-.16-.1-.3-.1a.48.48 0 0 0-.2.04.26.26 0 0 0-.13.1.3.3 0 0 0-.04.15c0 .05 0 .09.02.13l.08.1c.03.02.07.05.13.07l.18.07.25.07c.17.04.31.1.43.17a1 1 0 0 1 .46.6 1.46 1.46 0 0 1-.09 1.05c-.1.17-.24.3-.42.4-.19.09-.4.13-.66.13-.27 0-.5-.05-.7-.14-.19-.1-.34-.26-.45-.46-.1-.2-.16-.47-.16-.8h.78c0 .12.03.22.07.3.04.08.1.14.17.19.08.04.17.06.28.06.08 0 .16-.02.22-.04a.3.3 0 0 0 .13-.12c.03-.05.05-.1.05-.17a.28.28 0 0 0-.05-.15.37.37 0 0 0-.14-.12 1.3 1.3 0 0 0-.27-.1l-.3-.08c-.27-.08-.48-.2-.64-.37a1.03 1.03 0 0 1-.23-.72c0-.24.05-.45.16-.64.1-.18.25-.32.43-.43.19-.1.4-.15.64-.15.25 0 .46.05.64.16.18.1.31.25.41.44.1.18.15.4.15.65h-.79ZM26.21 30v.88H27V34h.78v-3.13h.58V34h.79v-1.32h.27l.51 1.32h.86l-.6-1.5a1 1 0 0 0 .36-.42c.1-.2.14-.43.14-.72 0-.28-.04-.53-.13-.73-.1-.2-.22-.36-.38-.47a1 1 0 0 0-.57-.16h-3.4Zm2.94.87v.97h.27c.1 0 .18-.02.24-.05a.33.33 0 0 0 .15-.16.6.6 0 0 0 .06-.27c0-.12-.02-.2-.06-.28a.34.34 0 0 0-.15-.16.5.5 0 0 0-.24-.05h-.27Zm7.33 0V30h2.4v.86H38V34h-.69v-3.14h-.83ZM33.72 30H33v2.44c0 .26-.27.63-.55.63a.4.4 0 0 1-.24-.08.54.54 0 0 1-.16-.22.85.85 0 0 1-.05-.33V30h-.8v2.53c0 .3.05.56.15.78.1.22.25.4.44.51.2.12.41.18.66.18.25 0 .47-.06.66-.18.2-.12.34-.29.45-.5.1-.23.16-.49.16-.79V30Zm-17.24 4h-.83l.93-4h1.06l.94 4h-.84l-.16-.77h-.94l-.16.77Zm.64-2.9.29 1.32h-.6l.3-1.32h.01Z" fill="#009C9A"/></svg>