<!-- by TradingView --><svg xmlns="http://www.w3.org/2000/svg" width="56" height="56" viewBox="0 0 56 56"><path fill="#F0F3FA" d="M0 0h56v56H0z"/><path d="M4 27.56A7.54 7.54 0 0 1 11.53 20h32.94A7.54 7.54 0 0 1 52 27.56v.88A7.54 7.54 0 0 1 44.47 36H11.53A7.54 7.54 0 0 1 4 28.44v-.88Z" fill="#28ACE3"/><path d="M7.63 21.1c-.47.28-.91.62-1.3 1h43.35c-.4-.38-.84-.72-1.3-1H7.62Z" fill="url(#a550vv4li)"/><path d="M5.32 23.27c.25-.36.53-.7.83-1h43.7c.3.3.58.64.83 1H5.32Z" fill="url(#b550vv4li)"/><path d="M5.21 23.44c-.2.32-.39.66-.55 1h46.68a7.54 7.54 0 0 0-.55-1H5.2Z" fill="url(#c550vv4li)"/><path d="M4.25 25.62c.09-.34.2-.68.34-1h46.82c.14.32.25.66.34 1H4.25Z" fill="url(#d550vv4li)"/><path d="M4.2 25.8c-.07.32-.13.66-.16 1h47.92c-.03-.34-.09-.68-.17-1H4.21Z" fill="url(#e550vv4li)"/><path d="M4 27.56c0-.2 0-.4.02-.6h47.96l.02.6v.41H4v-.41Z" fill="url(#f550vv4li)"/><path d="M4 28.14v.3c0 .24.01.48.03.71h47.94c.02-.23.03-.47.03-.7v-.3H4Z" fill="url(#g550vv4li)"/><path d="M4.24 30.33a7.55 7.55 0 0 1-.19-1.01h47.9c-.04.34-.1.68-.19 1H4.24Z" fill="url(#h550vv4li)"/><path d="M4.28 30.5c.1.34.22.68.36 1h46.72c.14-.32.26-.66.36-1H4.28Z" fill="url(#i550vv4li)"/><path d="M5.29 32.68c-.22-.32-.4-.66-.57-1.01h46.56c-.16.35-.35.69-.57 1H5.29Z" fill="url(#j550vv4li)"/><path d="M5.4 32.84c.26.36.55.7.87 1.01h43.46c.32-.3.6-.65.86-1H5.41Z" fill="url(#k550vv4li)"/><path d="M7.83 35.03c-.5-.29-.96-.63-1.38-1.01h43.1c-.42.38-.88.72-1.38 1H7.83Z" fill="url(#l550vv4li)"/><path d="M8.14 35.2c1.02.51 2.17.8 3.39.8h32.94c1.22 0 2.37-.29 3.39-.8H8.14Z" fill="url(#m550vv4li)"/><path d="M7.92 20.92h40.16a7.47 7.47 0 0 0-3.6-.92H11.52c-1.3 0-2.54.33-3.61.92Z" fill="url(#n550vv4li)"/><path d="m39.44 22.22-.39-.01v.08l-.01.13c-.01.04-.02.04-.35-.05a3.26 3.26 0 0 0-.43-.07c-1.6-.16-2.33 1.67-2.37 3-.06 1.97.79 3.39 2.14 3.6.38.05.76.04 1.15-.07l.03.11h.3l.51-2.33H39.6l-.01.08c-.2.8-.6 1.36-.97 1.36-.28 0-.64-.38-.9-.95-.15-.33-.25-.7-.31-1.2-.04-.26-.03-1.01 0-1.26.09-.56.22-.95.41-1.23.14-.2.28-.29.47-.3.22 0 .4.1.57.26.23.23.4.58.5 1.05l.05.17h.4l-.37-2.37ZM14.65 25.9c0-.01-.08-.83-.2-1.83l-.2-1.82h-.46c-.02.1-.04.38-.16.38-.02 0-.15-.04-.28-.1a2.5 2.5 0 0 0-1.3-.18c-2.14.3-2.74 3.36-2.68 5.19a6.01 6.01 0 0 0 1.4 3.84c.75.83 1.67 1.3 2.73.95l.2-.04c.17-.02.19 0 .27.12l.06.1h.16c.14 0 .17-.01.17-.04l.74-3.43.01-.05h-.52l-.08.3c-.33 1.36-.69 2-1.18 2.17-1.42.45-2.14-3.68-2.11-4.84.04-1.54.35-2.74.82-3.2.25-.25.53-.28.88-.1.75.4 1.04 1.56 1.21 2.34l.05.22h.23l.24.01ZM27.2 22.37a129.56 129.56 0 0 1 .15 2.08v.08h-.37l-.03-.13c-.16-.7-.43-1.14-.77-1.26-.37-.13-.83 0-.93.27a.72.72 0 0 0 .04.46c.1.18.28.32.85.62.5.26.74.44 1.03.76.31.33.5.69.58 1.12.04.2.04.67 0 .9-.15.88-.69 1.45-1.54 1.61-.1.02-.24.03-.44.03-.33 0-.47-.02-.86-.15a2.02 2.02 0 0 0-.26-.07c-.04 0-.1.08-.11.16l-.01.05h-.33l-.01-.16a161.2 161.2 0 0 1-.12-2.5l-.01-.17.4.01.01.2c.06.57.17 1 .33 1.27.22.38.6.58 1.09.58.36 0 .6-.12.71-.35a.42.42 0 0 0 .05-.23c0-.27-.09-.48-.3-.7-.13-.13-.2-.18-.39-.3a4.47 4.47 0 0 1-1.13-.81 2.1 2.1 0 0 1-.65-1.77c.04-.48.19-.85.48-1.17.26-.28.57-.45.92-.5.23-.04.63.02.97.13l.17.04c.04 0 .06-.04.08-.13v-.08h.39v.11ZM19.33 25.66c-.01.59-.09 1.13-.24 1.6-.25.8-.8 1.49-1.63 1.63-1.73.31-2.4-1.84-2.43-3.27-.03-1.43.45-3.23 1.94-3.44 1.8-.25 2.4 2 2.36 3.48ZM17.03 23c-.2.1-.4.6-.47 1.24-.05.47-.06 1.54 0 2.13.03.27.21 1.92.77 1.7.5-.2.5-1.21.5-1.7 0-.72.02-1.56-.12-2.26-.13-.68-.45-1.21-.67-1.11Z" fill="#020E16"/><path d="M28.1 22.26h-.3l-.15 1.1-.16 1.15h.4v-.07l.06-.27c.1-.41.29-.7.54-.84a.61.61 0 0 1 .15-.06c.03 0 .03.04.05 2.32 0 2.01-.01 2.3-.03 2.41-.06.27-.12.34-.3.36h-.1v.4h2.27v-.4h-.08c-.17 0-.26-.08-.31-.3-.03-.1-.03-.27-.04-2.44 0-1.28-.02-2.35-.02-2.35l.13.05c.07.04.14.1.22.18.14.15.27.41.36.74l.06.27h.39l-.15-1.15-.15-1.1h-.29a.92.92 0 0 1-.07.14l-1.24.01h-1.2l-.04-.15ZM33.79 22.25c-1.85-.22-2.46 2.1-2.37 3.6.1 1.8.75 2.9 1.9 3.05 1.73.23 2.39-1.87 2.4-3.3 0-1.33-.4-3.17-1.93-3.35Zm-.61 1.1c.11-.24.3-.42.51-.17.26.31.44.93.5 1.8.06.6.01 1.6-.05 2.07-.1.66-.35 1.1-.6 1.02-.14-.05-.3-.32-.42-.68a7.73 7.73 0 0 1-.22-2.19c0-.9.08-1.4.28-1.84ZM42.55 22.68h-.1c-.44.06-.38 1.21-.39 1.51-.02.56-.02 1.6 0 1.6.01 0 .24-.37.85-1.41.52-.89.58-1.2.58-1.28 0-.24-.33-.4-.53-.41l-.1-.01v-.47h2.67v.47h-.1c-.23.03-.41.15-.7.45-.35.36-.77 1.19-1.11 1.84l-.09.17.15.32a24.45 24.45 0 0 1 1.74 5.43c.1.4.23.7.4.88.13.14.28.15.46.15v.5h-2.96v-.47c.21-.03.37-.11.47-.33.08-.2.01-.71-.22-1.64a16.25 16.25 0 0 0-1.1-3.08l-.22.34-.2.34v1.36c0 1.82.01 2.22.11 2.6.07.26.18.38.44.38v.51h-2.61v-.5h.1c.3 0 .32-.48.35-.7.03-.25.03-7.55 0-7.81-.02-.23-.04-.72-.34-.72h-.11v-.49h2.56v.47ZM21.38 22.66v-.36h-2.12v.4h.07c.21 0 .2.58.21.73a91.62 91.62 0 0 1 0 4.44c-.02.23 0 .5-.28.48v.41h1.49v-.4c-.27 0-.3-.25-.31-.49-.02-.26-.02-.71-.02-1.62V24.6l.46 1.5.43 1.47.05-.16.86-2.82a75.23 75.23 0 0 1 0 3.13c0 .26.02.61-.3.63v.4h2.02v-.4c-.33 0-.28-.37-.28-.64a194.97 194.97 0 0 1-.01-4.29c0-.17 0-.73.22-.73h.07v-.4h-2.09v.36c.05.05.1.25.06.4-.04.16-.3 1.22-.32 1.23 0 0-.02-.18-.12-.5l-.02-.07c-.22-.73-.2-.93-.07-1.06ZM34.04 29.5a57.55 57.55 0 0 1 .22 1.44l.01.06-.28-.01-.01-.07c-.1-.48-.33-.8-.6-.85-.12-.02-.2 0-.3.1-.29.28-.42 1.09-.3 1.82.08.52.34 1 .6 1.14.25.13.54-.16.7-.71l.04-.16h.14c.1 0 .14 0 .14.02l-.31 1.46c-.01.04-.02.04-.1.03-.06 0-.1-.01-.1-.02-.03-.07-.03-.07-.23-.04a2 2 0 0 1-.66-.01c-.99-.25-1.28-1.45-1.23-2.39.03-.36.1-.67.2-.93.18-.41.47-.69.86-.82.18-.06.47-.05.72.01a3 3 0 0 0 .2.05l.01-.08v-.08h.14c.12 0 .13 0 .14.04ZM23.35 30.23l-.06-.73h-.26v.06c0 .08-.02.08-.23.02a1.31 1.31 0 0 0-.62-.04c-.21.05-.43.2-.57.37-.3.4-.34 1.04-.1 1.47.17.3.4.5.83.76.17.1.33.22.38.27.2.2.27.47.16.63-.14.21-.53.25-.86.08-.26-.13-.38-.4-.44-.92l-.02-.2h-.28v.08l.06.87.03.8h.23l.02-.08.05-.07.16.05c.23.07.38.1.56.1.75-.01 1.23-.48 1.28-1.25.03-.49-.15-.9-.52-1.24a2.65 2.65 0 0 0-.58-.38c-.44-.23-.53-.33-.51-.55 0-.09.01-.1.06-.16.07-.08.18-.11.34-.11.1 0 .15 0 .22.04.1.05.22.18.29.32.05.1.14.37.16.49l.01.05h.26l-.05-.73ZM39.04 29.57l.1 1.34v.05h-.25l-.05-.2a1.38 1.38 0 0 0-.25-.53c-.11-.13-.19-.16-.36-.17-.18-.01-.29.02-.37.1-.28.32.25.62.45.72.32.17.52.3.68.48.31.32.45.68.42 1.13 0 .24-.04.38-.14.59-.19.42-.6.66-1.14.66a1.7 1.7 0 0 1-.55-.1 1.29 1.29 0 0 0-.16-.04c-.02 0-.04.03-.05.07l-.03.07h-.22l.03-1.54h.17c.07.66.27.93.72 1.01.25.05.64-.02.63-.35 0-.28-.14-.44-.59-.72-.16-.1-.35-.22-.42-.28a1.5 1.5 0 0 1-.5-1.54c.1-.4.4-.7.76-.78.16-.04.37-.02.63.05.2.05.22.05.22-.03 0-.06 0-.06.14-.06h.12l.01.07ZM20.9 30.25l-.1-.74h-.25v.1H18.69v.34h.06c.08 0 .1.03.12.2.02.16.02 2.79 0 2.96-.02.17-.04.21-.12.2l-.06-.01v.35h1.92l.02.09h.23l.16-.88.16-.86h-.28l-.07.2c-.14.44-.32.71-.53.82a.4.4 0 0 1-.22.05c-.12 0-.14 0-.18-.04-.07-.08-.08-.15-.08-.71v-.53h.1c.21-.01.34.1.41.37l.02.1h.13c.07 0 .13 0 .13-.02l-.14-1.43v-.07h-.27v.14c0 .2-.05.28-.13.31a.53.53 0 0 1-.16.02l-.1-.01.01-.42c0-.58.01-.6.28-.58a.5.5 0 0 1 .38.17c.1.1.16.25.22.55H21l-.1-.67ZM25.46 29.56c.51.14.85.62 1 1.4.04.29.06.89.02 1.18-.12.85-.45 1.37-1.03 1.55-.16.05-.44.06-.6.01-.2-.05-.38-.16-.52-.3a2.05 2.05 0 0 1-.52-1.18c-.06-.3-.06-.91 0-1.21.08-.47.24-.84.48-1.1.18-.2.39-.32.62-.37.14-.03.4-.02.55.02Zm-.48.56c-.11.13-.2.42-.23.78-.03.27-.02 1.03.02 1.3.07.56.22.93.39.98.14.03.29-.23.35-.64.06-.4.04-1.18-.03-1.64a1.57 1.57 0 0 0-.28-.78c-.1-.09-.15-.09-.22 0ZM36.72 30.9l-.1-.72-.09-.67h-.13c-.12 0-.13 0-.13.05 0 .03 0 .04-.05.05h-1.79v.34h.06c.05 0 .06 0 .09.07.03.06.03.19.03 1.6v.24c0 1.22 0 1.42-.07 1.45h-.11v.34h1.92l.03.1h.21l.3-1.69.02-.06-.28.01-.05.15c-.1.35-.26.63-.4.75a.54.54 0 0 1-.38.16c-.14 0-.16-.01-.21-.1-.02-.05-.03-.13-.03-.62v-.57h.13c.1.01.14.03.18.05.08.06.15.18.18.28l.03.12c0 .02.05.03.13.03h.13v-.06l-.07-.76-.07-.7h-.26v.14c-.02.26-.08.33-.29.33h-.1v-.44c.01-.48.02-.52.1-.56a.7.7 0 0 1 .4.03c.17.08.3.3.36.58l.04.14h.28v-.05ZM17.6 29.62c.19.02.33.1.41.2.25.34.16.94-.2 1.35l-.12.15.12.23c.24.42.4.82.52 1.3.03.15.08.31.1.36.04.1.05.1.11.1h.07v.34h-1.4v-.16c0-.18.01-.19.1-.19.03 0 .04 0 .04-.04 0-.2-.03-.41-.15-.75a5.8 5.8 0 0 0-.27-.68h-.06l-.04.02v.56c0 .78.02.9.14.9h.06v.34h-1.32v-.34h.08l.05-.02c.06-.03.06-.21.07-1.41v-.14c0-1.7 0-1.77-.14-1.79h-.06v-.35h.88c.5 0 .93 0 1.01.02Zm-.7.4a.22.22 0 0 0-.05.04c-.06.05-.06.17-.06.72l.01.64c.04 0 .25-.16.31-.23.08-.09.17-.25.2-.38.1-.3.05-.66-.1-.77-.07-.04-.22-.05-.3-.01Z" fill="#020E16"/><path d="M31.55 29.91c-.09-.17-.22-.26-.46-.3H29.2v.34h.05c.15 0 .15.06.14 1.78v.18c0 1.17 0 1.35-.07 1.38l-.04.01h-.08v.35h1.32v-.35h-.06c-.04 0-.07 0-.08-.03a2.81 2.81 0 0 1-.06-.88c0-.51 0-.53.03-.55.06-.03.07-.02.13.12.19.42.32.84.36 1.13.02.16 0 .21-.05.21h-.09v.35h1.4v-.35h-.13c-.04 0-.09-.14-.14-.37a5.1 5.1 0 0 0-.66-1.61c0-.01.04-.06.1-.11.35-.37.47-.92.28-1.3Zm-1.16.12c.09-.04.23-.03.3.01.24.17.2.79-.07 1.12-.08.09-.3.26-.33.26-.02 0-.02-.1-.02-.64 0-.55 0-.67.06-.72l.06-.03ZM27.84 29.62v.31l-.06.02a.22.22 0 0 0-.1.05c-.06.08-.06.16-.06 1.4 0 1.19 0 1.2.03 1.32.1.32.34.43.57.25.09-.06.15-.2.18-.38.03-.2.04-2.33.01-2.48-.02-.1-.06-.14-.15-.16h-.06v-.33h.93v.18c0 .08 0 .1-.02.13 0 .01-.03.02-.07.02h-.02l-.03.02c-.06.03-.06.18-.06 1.3v.04c0 1.32 0 1.4-.1 1.66-.05.2-.13.31-.27.46a.98.98 0 0 1-.79.32c-.22 0-.38-.04-.56-.13-.22-.11-.41-.38-.5-.7a7.86 7.86 0 0 1-.04-1.51v-1.37l-.05-.04a.2.2 0 0 0-.1-.06h-.05v-.32h1.37Z" fill="#020E16"/><path d="M39.14 22h-.4V22.21c-.01.04-.02.04-.35-.05a3.26 3.26 0 0 0-.43-.07c-1.61-.16-2.33 1.67-2.37 3-.06 1.97.78 3.39 2.14 3.6.38.05.76.04 1.15-.07l.03.11h.3l.51-2.33H39.3l-.01.08c-.2.8-.6 1.36-.97 1.36-.28 0-.64-.38-.9-.95-.15-.33-.25-.7-.31-1.2-.04-.26-.03-1.01 0-1.26.09-.56.22-.95.41-1.23.14-.2.28-.29.47-.29.21 0 .4.08.57.25.23.23.4.58.5 1.05l.05.17h.4L39.13 22ZM14.35 25.64l-.2-1.82-.2-1.82h-.45s-.05.38-.17.38l-.28-.1a2.5 2.5 0 0 0-1.3-.19c-2.15.3-2.81 3.34-2.75 5.16a6.26 6.26 0 0 0 1.47 3.92c.75.83 1.67 1.3 2.73.95l.2-.04c.17-.02.19 0 .27.12l.05.1h.17c.14 0 .16-.01.17-.04l.74-3.43.01-.05h-.53l-.07.3c-.33 1.36-.69 2-1.18 2.17-1.42.45-2.14-3.68-2.11-4.84.04-1.54.35-2.79.82-3.25.25-.24.53-.27.87-.1.76.4 1.05 1.57 1.22 2.35l.05.21.23.01h.24ZM26.9 22.16a134.8 134.8 0 0 1 .15 2.08v.08l-.37-.05-.03-.14c-.16-.7-.43-1.14-.77-1.26-.38-.12-.83 0-.93.27a.72.72 0 0 0 .03.47c.1.18.3.31.86.61.5.27.74.5 1.03.82.3.33.5.69.58 1.12.04.2.04.67 0 .9-.15.89-.69 1.45-1.54 1.61-.1.02-.24.03-.44.03-.33 0-.47-.02-.86-.15a2.02 2.02 0 0 0-.26-.07c-.04 0-.1.08-.12.16v.05h-.33l-.01-.16a163.76 163.76 0 0 1-.12-2.5l-.01-.17.4.01.01.2c.06.57.17 1 .33 1.27.22.38.6.58 1.09.58.36 0 .6-.11.71-.35a.42.42 0 0 0 .05-.23c0-.27-.09-.48-.3-.7-.13-.13-.2-.18-.39-.3a4.47 4.47 0 0 1-1.13-.81 2.22 2.22 0 0 1-.65-1.82c.04-.49.19-.86.48-1.18.26-.28.57-.45.92-.5.23-.03.63.02.97.13l.17.05c.04 0 .06-.04.08-.14V22h.38l.01.16ZM19.02 25.5a5.5 5.5 0 0 1-.23 1.55c-.25.8-.8 1.49-1.63 1.63-1.73.31-2.41-1.79-2.44-3.22-.04-1.43.45-3.23 1.94-3.44l.28-.02c1.58 0 2.11 2.1 2.08 3.5Zm-2.3-2.67c-.2.1-.4.6-.47 1.24-.06.47-.05 1.5.01 2.08.03.27.21 1.92.76 1.7.5-.2.5-1.21.5-1.7.01-.71.02-1.5-.12-2.21-.13-.68-.46-1.21-.68-1.11ZM27.82 22h-.3l-.15 1.1-.16 1.14h.4v-.06a6 6 0 0 1 .06-.27c.1-.42.29-.63.54-.76a.61.61 0 0 1 .15-.07c.03 0 .03.05.03 2.3 0 2.01-.01 2.3-.03 2.41-.06.27-.12.34-.3.36h-.1v.4h2.27v-.4h-.08c-.17 0-.26-.08-.31-.3-.03-.1-.03-.27-.04-2.44v-2.4l.13.05c.08.04.15.1.22.17.15.16.27.42.36.74l.07.28h.39l-.16-1.16-.14-1.1-.3.01-.06.13c-.02.01-.58.02-1.24.02h-1.21l-.04-.15ZM33.45 22.01l-.28-.01c-1.63.04-2.17 2.2-2.09 3.62.1 1.79.8 2.92 1.94 3.07 1.73.23 2.35-1.9 2.36-3.32 0-1.33-.4-3.18-1.93-3.36Zm-.6 1.11c.1-.25.3-.43.5-.17.27.3.44.92.51 1.8.05.6.04 1.63-.02 2.09-.1.66-.35 1.1-.6 1.02-.14-.05-.3-.31-.42-.68a7.75 7.75 0 0 1-.25-2.21c0-.91.07-1.4.27-1.85Z" fill="#AA8C54"/><path d="M42.25 22.48h-.1c-.45.06-.38 1.02-.39 1.32-.02.56-.02 1.78 0 1.78.01 0 .24-.56.85-1.6.52-.88.57-1 .58-1.08 0-.24-.33-.4-.53-.41l-.1-.01V22h2.66v.48h-.1c-.22.03-.4.15-.7.45-.34.36-.77 1-1.1 1.65l-.09.17.15.32c.41.92.75 1.99 1.06 2.96.23.76.34 1.17.68 2.65.1.4.23.7.4.88.13.14.27.15.46.15v.5h-2.96v-.47c.21-.03.37-.11.47-.33.08-.2.01-.71-.23-1.64a16.27 16.27 0 0 0-1.08-3.08l-.23.34-.2.34v1.36c0 1.82.01 2.22.11 2.6.07.26.18.38.44.38v.51h-2.61v-.5h.1c.3 0 .32-.48.35-.7.03-.25.03-7.54 0-7.8-.03-.23-.04-.72-.34-.72h-.11V22h2.56v.48ZM21.07 22.36l.02-.36H19v.4h.08c.2 0 .16.58.16.73l.02 2.01c0 1.26 0 2.15-.03 2.52-.01.23 0 .5-.27.48v.41h1.49v-.4c-.27 0-.3-.25-.31-.49-.02-.25-.02-.71-.02-1.62v-1.87c.01 0 .21.91.45 1.72l.44 1.48.05-.16c.46-1.53.85-3.04.86-3.05a56.85 56.85 0 0 1 0 3.35c-.01.27.01.62-.3.64v.4h2.02v-.4c-.33 0-.28-.37-.29-.64a258.88 258.88 0 0 1 0-4.38c0-.17 0-.72.22-.72h.07V22h-2.09v.36c.05.06.1.25.06.4-.04.16-.3 1.08-.32 1.09l-.12-.36-.02-.07c-.22-.72-.2-.93-.08-1.06ZM33.74 29.3a56.5 56.5 0 0 1 .22 1.43v.06l-.27-.01-.01-.07c-.1-.48-.33-.8-.6-.85-.13-.02-.2 0-.3.1-.3.28-.42 1.09-.3 1.82.08.52.33 1 .6 1.14.25.13.54-.16.7-.71l.04-.16h.14c.1 0 .14 0 .14.02l-.31 1.46c-.01.04-.02.04-.1.03-.06 0-.1-.01-.1-.02-.03-.07-.03-.07-.23-.04a2 2 0 0 1-.66 0c-.99-.26-1.29-1.46-1.23-2.4.02-.36.1-.67.2-.93.18-.41.47-.69.86-.82.18-.06.47-.05.72.01l.2.05.01-.08v-.08h.14c.12 0 .13 0 .14.04ZM23.05 30.02l-.06-.73h-.26v.06c0 .08-.03.08-.23.02a1.31 1.31 0 0 0-.62-.04c-.21.05-.43.2-.57.37-.3.4-.34 1.04-.1 1.47.17.3.4.5.83.76.16.1.33.22.38.27.2.2.27.47.16.63-.14.21-.53.25-.86.08-.26-.13-.38-.4-.44-.92l-.02-.2h-.28v.08l.05.87.04.8h.22l.03-.08.05-.07.16.05c.23.07.38.1.56.1.75 0 1.23-.48 1.28-1.25.03-.49-.15-.9-.52-1.24a2.65 2.65 0 0 0-.58-.38c-.44-.23-.53-.33-.52-.55.01-.09.02-.1.07-.16.07-.08.17-.11.34-.11.1 0 .15 0 .22.04.1.05.22.18.29.32.05.1.14.37.16.49l.01.05h.26l-.05-.73ZM38.74 29.36l.1 1.34v.05h-.25l-.06-.2a1.38 1.38 0 0 0-.24-.53c-.11-.13-.19-.16-.36-.17-.18-.01-.29.02-.37.1-.28.32.25.62.45.72.32.17.51.3.68.48.3.32.44.68.42 1.13-.01.24-.04.38-.14.59-.2.42-.6.66-1.14.66a1.7 1.7 0 0 1-.55-.1 1.3 1.3 0 0 0-.17-.04l-.05.07-.02.07h-.22l.03-1.54h.17c.07.66.26.93.72 1.01.25.05.64-.02.63-.35 0-.28-.14-.44-.59-.72a4.4 4.4 0 0 1-.42-.28 1.5 1.5 0 0 1-.5-1.54c.1-.4.4-.7.76-.78.16-.04.37-.02.63.05.2.05.21.05.21-.03 0-.06.02-.06.15-.06h.12l.01.07ZM20.6 30.04l-.1-.74h-.25v.1H18.39v.34h.06c.08 0 .1.03.12.2.02.16.02 2.79 0 2.96-.02.17-.05.21-.12.2h-.06v.34h1.92l.02.09h.23l.16-.88.15-.86h-.27l-.07.2c-.14.45-.32.71-.53.82a.4.4 0 0 1-.22.05c-.12 0-.14 0-.18-.04-.07-.08-.08-.15-.08-.71v-.53h.1c.21-.01.34.1.4.38l.03.09h.13c.07 0 .13 0 .13-.02l-.14-1.43-.01-.07h-.26v.14c0 .2-.05.28-.13.31a.53.53 0 0 1-.16.02l-.1-.01.01-.42c0-.58.01-.6.28-.58a.5.5 0 0 1 .37.17c.1.11.17.25.23.55h.29l-.1-.67ZM25.16 29.35c.51.14.85.62 1 1.4.04.29.06.89.02 1.18-.12.85-.46 1.37-1.03 1.55-.16.05-.44.06-.6.01-.2-.05-.38-.16-.53-.3A2.05 2.05 0 0 1 23.5 32c-.05-.3-.05-.91 0-1.21.09-.47.25-.84.5-1.1.17-.2.37-.32.61-.37.14-.03.4-.02.55.02Zm-.48.56c-.11.13-.2.42-.24.78-.02.27 0 1.03.03 1.3.07.56.22.93.39.98.14.03.29-.23.35-.64.06-.4.04-1.18-.03-1.64a1.57 1.57 0 0 0-.28-.78c-.1-.09-.15-.09-.22 0ZM36.42 30.7l-.1-.73-.09-.67h-.13c-.12 0-.13 0-.13.05 0 .03 0 .04-.05.05h-1.79v.34h.06c.05 0 .06 0 .09.07.03.06.03.19.03 1.6v.24c0 1.22 0 1.42-.07 1.45h-.11v.34h1.92l.03.1h.21l.3-1.69.02-.06-.28.01-.05.15c-.11.35-.26.63-.4.75a.54.54 0 0 1-.38.16c-.14 0-.16-.01-.21-.1-.03-.05-.03-.13-.03-.62l-.01-.57h.14c.1.01.14.03.18.05.07.06.15.18.18.28l.03.13c0 .01.05.02.13.02h.13v-.06l-.07-.76-.07-.7h-.26v.14c-.02.26-.08.33-.29.33h-.1v-.44c.01-.48.02-.52.1-.56a.7.7 0 0 1 .39.03c.18.09.31.3.37.58l.03.14h.29l-.01-.05ZM17.3 29.4c.19.03.33.1.41.21.25.34.16.94-.2 1.35a1.5 1.5 0 0 0-.13.15l.13.23c.24.42.4.82.52 1.31l.1.35c.04.1.05.1.1.1h.07v.34h-1.38v-.16c0-.18 0-.18.09-.18.03 0 .04-.01.04-.05 0-.2-.03-.4-.15-.75a5.8 5.8 0 0 0-.27-.68h-.06l-.04.02v.56c0 .78.02.9.14.9h.06v.34h-1.32v-.34h.08l.04-.02c.07-.03.07-.21.08-1.41v-.14c0-1.7 0-1.77-.14-1.79h-.06v-.35h.87c.5 0 .94 0 1.02.02Zm-.7.42a.22.22 0 0 0-.05.03c-.06.05-.06.17-.07.72 0 .54 0 .64.02.64.03 0 .24-.16.31-.23.08-.09.17-.25.2-.38.1-.3.04-.66-.11-.77-.07-.04-.21-.05-.3-.01Z" fill="#AA8C54"/><path d="M31.25 29.7c-.09-.17-.22-.26-.46-.29-.09-.01-.5-.02-1.02-.02h-.87v.35h.05c.14 0 .15.06.14 1.78v.18c0 1.17 0 1.35-.07 1.38l-.04.01h-.08v.35h1.32v-.34h-.06c-.04 0-.07-.02-.08-.04a2.81 2.81 0 0 1-.06-.88c0-.51 0-.53.03-.55.06-.03.07-.02.13.12.18.42.32.84.35 1.13.03.16.01.22-.04.22h-.09v.34h1.39v-.34h-.12c-.04 0-.09-.15-.14-.38a5.1 5.1 0 0 0-.66-1.61c0-.01.04-.06.1-.11.35-.37.47-.92.28-1.3Zm-1.16.12c.08-.04.23-.03.3.01.24.17.2.79-.07 1.12-.08.09-.3.26-.33.26-.02 0-.03-.1-.02-.64 0-.55 0-.67.06-.72l.06-.03ZM27.54 29.4v.32l-.06.02a.22.22 0 0 0-.1.05c-.06.08-.07.16-.07 1.4 0 1.19 0 1.2.04 1.32.1.32.34.43.57.25.09-.06.15-.2.18-.38.03-.2.04-2.33 0-2.48-.01-.1-.05-.14-.14-.16h-.06l-.01-.33h.94v.18c0 .08 0 .1-.02.13 0 .01-.03.02-.07.02h-.02l-.03.02c-.06.03-.06.18-.06 1.3v.04c0 1.32 0 1.4-.1 1.66-.06.2-.13.31-.27.46a.98.98 0 0 1-.79.32c-.22 0-.38-.04-.56-.13-.23-.11-.41-.38-.5-.7a7.86 7.86 0 0 1-.04-1.51l-.01-1.37-.04-.04a.2.2 0 0 0-.1-.06h-.05v-.32h1.37Z" fill="#AA8C54"/><defs><linearGradient id="a550vv4li" x1="28" y1="20" x2="28" y2="36" gradientUnits="userSpaceOnUse"><stop stop-color="#154072"/><stop offset="1" stop-color="#127EC2"/></linearGradient><linearGradient id="b550vv4li" x1="28" y1="20" x2="28" y2="36" gradientUnits="userSpaceOnUse"><stop stop-color="#154072"/><stop offset="1" stop-color="#127EC2"/></linearGradient><linearGradient id="c550vv4li" x1="28" y1="20" x2="28" y2="36" gradientUnits="userSpaceOnUse"><stop stop-color="#154072"/><stop offset="1" stop-color="#127EC2"/></linearGradient><linearGradient id="d550vv4li" x1="28" y1="20" x2="28" y2="36" gradientUnits="userSpaceOnUse"><stop stop-color="#154072"/><stop offset="1" stop-color="#127EC2"/></linearGradient><linearGradient id="e550vv4li" x1="28" y1="20" x2="28" y2="36" gradientUnits="userSpaceOnUse"><stop stop-color="#154072"/><stop offset="1" stop-color="#127EC2"/></linearGradient><linearGradient id="f550vv4li" x1="28" y1="20" x2="28" y2="36" gradientUnits="userSpaceOnUse"><stop stop-color="#154072"/><stop offset="1" stop-color="#127EC2"/></linearGradient><linearGradient id="g550vv4li" x1="28" y1="20" x2="28" y2="36" gradientUnits="userSpaceOnUse"><stop stop-color="#154072"/><stop offset="1" stop-color="#127EC2"/></linearGradient><linearGradient id="h550vv4li" x1="28" y1="20" x2="28" y2="36" gradientUnits="userSpaceOnUse"><stop stop-color="#154072"/><stop offset="1" stop-color="#127EC2"/></linearGradient><linearGradient id="i550vv4li" x1="28" y1="20" x2="28" y2="36" gradientUnits="userSpaceOnUse"><stop stop-color="#154072"/><stop offset="1" stop-color="#127EC2"/></linearGradient><linearGradient id="j550vv4li" x1="28" y1="20" x2="28" y2="36" gradientUnits="userSpaceOnUse"><stop stop-color="#154072"/><stop offset="1" stop-color="#127EC2"/></linearGradient><linearGradient id="k550vv4li" x1="28" y1="20" x2="28" y2="36" gradientUnits="userSpaceOnUse"><stop stop-color="#154072"/><stop offset="1" stop-color="#127EC2"/></linearGradient><linearGradient id="l550vv4li" x1="28" y1="20" x2="28" y2="36" gradientUnits="userSpaceOnUse"><stop stop-color="#154072"/><stop offset="1" stop-color="#127EC2"/></linearGradient><linearGradient id="m550vv4li" x1="28" y1="20" x2="28" y2="36" gradientUnits="userSpaceOnUse"><stop stop-color="#154072"/><stop offset="1" stop-color="#127EC2"/></linearGradient><linearGradient id="n550vv4li" x1="28" y1="20" x2="28" y2="36" gradientUnits="userSpaceOnUse"><stop stop-color="#154072"/><stop offset="1" stop-color="#127EC2"/></linearGradient></defs></svg>