<!-- by TradingView --><svg width="56" height="56" viewBox="0 0 56 56" xmlns="http://www.w3.org/2000/svg"><path fill="#F0F3FA" d="M0 0h56v56H0z"/><path d="M42.28 29.72a4.08 4.08 0 0 1-6.63-1.26A7.9 7.9 0 0 1 28 34a7.95 7.95 0 0 1-8-7.93 3.5 3.5 0 0 0-6.97-.01H13c0 3.95 1.58 7.74 4.39 10.54C20.4 39.6 27.9 47 27.9 47s7.85-7.56 10.7-10.4c2-2 3.4-4.54 4.01-7.3-.1.15-.2.29-.33.42Z" fill="#00A8E2"/><path d="M42.99 25.87A14.97 14.97 0 0 0 28 11c-3.84 0-7.68 1.46-10.6 4.4a14.96 14.96 0 0 0-4.08 7.5 4.07 4.07 0 0 1 7.04.75A8.11 8.11 0 0 1 28 18c4.3 0 7.95 3.57 8.03 7.87v.32a3.49 3.49 0 0 0 6.96.04v-.15a.57.57 0 0 0 0-.21Z" fill="#00A8E2"/></svg>