<!-- by TradingView --><svg width="56" height="56" viewBox="0 0 56 56" xmlns="http://www.w3.org/2000/svg"><path fill="url(#ahfy4wq5d)" d="M0 0h56v56H0z"/><path d="M8 33c-1.98 0-3.87-.8-4-3h3c.06.68.42 1 1 1 .43 0 .97-.36.97-.85 0-.79-1.22-1.01-1.79-1.19C5.66 28.48 4 27.86 4 26c0-2.09 2.17-3 4-3 1.9 0 3.9.87 4 3H9c-.02-.58-.43-1-1-1-.43 0-.93.4-.93.84 0 .75 1.24 1 1.77 1.18 1.43.47 3.16 1.16 3.16 2.92C12 32.01 9.83 33 8 33ZM29.15 27.87a2.45 2.45 0 0 1 1.85 2.4c0 1.86-1.53 2.73-3.23 2.73H23V23h4.62c1.62 0 3.38.71 3.38 2.5 0 1.05-.81 2.07-1.85 2.37ZM26 27h1.03c.68 0 .97-.42.97-1 0-.6-.3-1-.97-1H26v2Zm1.03 4c.68 0 .97-.41.97-1 0-.6-.3-1-.97-1h-1.02L26 31h1.03ZM35 23v10h-3V23h3ZM45 33h-3l-3-5.5V33h-3V23h3l3 5.5V23h3v10ZM49 25v2h3v2h-3v2h3v2h-6V23h6v2h-3ZM23.4 38h.6l-5.46-15h-.6l5.46 15Zm-5.98-15h-1.94L12 33h2.79l.63-2h3.32l2.46 7h1.67l-5.45-15Zm.62 6h-2l.95-3 1.05 3Z" fill="#C86C18"/><defs><linearGradient id="ahfy4wq5d" x1="10.42" y1="9.71" x2="68.15" y2="76.02" gradientUnits="userSpaceOnUse"><stop stop-color="#1A1E21"/><stop offset="1" stop-color="#06060A"/></linearGradient></defs></svg>