<!-- by TradingView --><svg width="56" height="56" viewBox="0 0 56 56" xmlns="http://www.w3.org/2000/svg"><path fill="#F0F3FA" d="M0 0h56v56H0z"/><path d="M27.21 18.32c-.02.11-2.13 9.89 5.52 13.5 0 0 4.54-.61 2.96-14.5-3.16-10.48-15.58-6.1-17.95 0 0 0-1.19 6.15 8.46 12.82-4.85-.93-6.05-.3-8.6 1.02l-.65.33C13.8 33.09 12 37.33 12 38.74c0 1.4 0 4.83 6.53 5.23 6.53.4 13.61-3.82 14.6-4.83.5-.46.9-1 1.18-1.61 5.08-1 6.9-1.61 8.48-2.34 1.58-.73 1.98-2.3 2.17-3.7.2-1.41-.39-4.5-2.82-4.84-2.43-.32-4.87.4-5.07 4.84 5.33-1.41 4.74 0 4.74 0a9.9 9.9 0 0 0-4.24 1.16 9.48 9.48 0 0 0-3.26 2.87c-1.97-.53-3.55-1.41-7.43-5.24l-.13-.03c-3.54-9.27.38-11.87.46-11.93Z" fill="#A8B776"/></svg>