<!-- by TradingView --><svg xmlns="http://www.w3.org/2000/svg" width="56" height="56"><path fill="url(#ali5wvbuj)" d="M0 0h56v56H0z"/><path d="M17 45l8-6.94V33h-8v12z" fill="#50BF34"/><path d="M40.08 16.47c-1.33-1.62-3.33-2.47-6-2.47H17l7.99 7h6.8c.82 0 1.48.1 1.78.33.37.3.43.84.43 1.7v.92c0 .85-.06 1.39-.43 1.7-.37.3-.96.35-1.78.35H25l-8 7h17.09c2.66 0 4.66-.88 5.99-2.5C41.4 28.96 42 26.8 42 23.95v-.93c0-2.85-.6-5.09-1.92-6.55z" fill="url(#bli5wvbuj)"/><path d="M25 34.74V33h-8l8 1.74z" fill="#087538"/><defs><linearGradient id="ali5wvbuj" x1="10.42" y1="9.71" x2="68.15" y2="76.02" gradientUnits="userSpaceOnUse"><stop stop-color="#1A1E21"/><stop offset="1" stop-color="#06060A"/></linearGradient><linearGradient id="bli5wvbuj" x1="32.88" y1="34.67" x2="22.53" y2="11.87" gradientUnits="userSpaceOnUse"><stop offset=".22" stop-color="#00AEE6"/><stop offset=".38" stop-color="#00A9E6"/><stop offset=".55" stop-color="#009DE6"/><stop offset=".71" stop-color="#0089E6"/><stop offset=".87" stop-color="#016DE6"/><stop offset="1" stop-color="#0251E6"/></linearGradient></defs></svg>