<!-- by TradingView --><svg width="56" height="56" viewBox="0 0 56 56" xmlns="http://www.w3.org/2000/svg"><path fill="#1F2123" d="M0 0h56v56H0z"/><path d="M20.75 38.2A9.7 9.7 0 0 0 25 35.27c1.43-1.8 1.97-4.19 1.6-7.1-.25-1.94-.16-3.72.27-5.33a10.5 10.5 0 0 1 1.94-3.9 11.82 11.82 0 0 1 4.26-3.29.47.47 0 0 0 .04-.84l-4.69-2.7a.84.84 0 0 0-.82 0L14.4 19.7a.83.83 0 0 0-.41.71V35.6c0 .29.16.57.41.71l3.9 2.25c.26.14.57.19.86.12.43-.1.98-.24 1.58-.47Z" fill="#fff"/><path d="M37.69 17.45a1.22 1.22 0 0 0-.86-.12c-.43.1-.98.24-1.58.47A9.7 9.7 0 0 0 31 20.73c-1.43 1.8-1.97 4.19-1.6 7.1.25 1.94.16 3.72-.27 5.33a10.5 10.5 0 0 1-1.94 3.9 11.82 11.82 0 0 1-4.26 3.29.47.47 0 0 0-.04.84l4.69 2.7c.25.15.57.15.82 0L41.6 36.3a.83.83 0 0 0 .4-.71V20.4c0-.29-.15-.57-.4-.71l-3.9-2.25Z" fill="#D9A343"/></svg>