<!-- by TradingView --><svg width="56" height="56" viewBox="0 0 56 56" xmlns="http://www.w3.org/2000/svg"><path fill="#F0F3FA" d="M0 0h56v56H0z"/><path d="M49 24v-2h-7v12h7v-2h-4v-3h4v-2h-4v-3h4ZM7 22h3v5.13L13.75 22h3.82l-4.65 5.62L18 33.98h-3.82L10 28.69V34H7V22ZM31 22h5.5a3.5 3.5 0 0 1 .58 6.95L41 33.98h-3.88L34 29.93V34h-3V22Zm3 5h1.5a1.5 1.5 0 0 0 0-3H34v3Z" fill="#74838A"/><path fill-rule="evenodd" d="M23.5 34a6.5 6.5 0 1 0 0-13 6.5 6.5 0 0 0 0 13Zm0-3a3.5 3.5 0 1 0 0-7 3.5 3.5 0 0 0 0 7Z" fill="#F58220"/><path d="M27.39 32.71a6.5 6.5 0 0 1-8.02-10.23 3.72 3.72 0 0 0-.54 1.85 8.3 8.3 0 0 0 1.43 4.49c.24.6.66 1.13 1.18 1.51 1.48 1.56 3.38 2.6 4.75 2.6.4 0 .81-.08 1.2-.22Z" fill="#EE2939"/></svg>