<!-- by TradingView --><svg width="56" height="56" viewBox="0 0 56 56" xmlns="http://www.w3.org/2000/svg"><path fill="#1F4886" d="M0 0h56v56H0z"/><path d="m13.27 13 .8.77c.56.55 2.9 2.23 6.43 2.23 3.5 0 6.28-2.01 7.22-2.77L28 13l.31.19C30.44 14.48 32.98 16 35.5 16c2.73 0 5.36-1.36 6.32-1.83l.63-.3.1.67c.68 4.79.79 12.15-1.13 18.67-1.91 6.53-5.75 12.34-13.3 13.77L28 47l-.12-.03c-6.5-1.77-10.55-5.82-12.69-11.53-2.12-5.68-2.5-13-1.99-21.35l.07-1.09ZM28 14.17c-1.27.91-4 2.81-7.5 2.81-2.88 0-5.17-1.2-6.34-1.91-.42 7.93 0 14.76 1.98 20.04a16.81 16.81 0 0 0 11.9 10.88C35 44.63 38.6 39.27 40.45 32.95c1.78-6.08 1.77-12.93 1.19-17.62-1.33.53-3.68 1.65-6.14 1.65-2.62 0-5.25-1.53-7.5-2.8Z" fill="#F7F7F7"/><path d="M27 21.12v8.5c0 1.67-.37 5.38-4.5 5.38-1.03 0-3.5-1.3-3.5-4.5 0-4 4.39-8.38 8-9.38Z" fill="#F7F7F7"/><path fill-rule="evenodd" d="M20 18a15.1 15.1 0 0 1-5-1c-.46 19.7 6.13 23.76 11.21 26.91.6.37 1.25.72 1.79 1.09l1-.5V35l2.5 1.5V43c8-2 10.19-20 9.5-26-.52.33-2.45 1-5.34 1-2.89 0-6.28-1.83-7.66-2.5-1.03.5-5.42 2.5-8 2.5Zm8.95.5c-.95 0-1.35 1.1-1.55 1.5-6.7 1.5-9.4 7.96-9.4 11 0 3 2 5 5 5 2.89 0 5.14-1.17 6-2l2.53 1.5L35 34l-1.5-2h-1.45C30.5 32 30 25 30 23.5c0-1.2.83-1.83 1-2v-2c0-.5-1.22-1-2.05-1Z" fill="#F7F7F7"/></svg>