<!-- by TradingView --><svg width="56" height="56" viewBox="0 0 56 56" xmlns="http://www.w3.org/2000/svg"><path fill="url(#a)" d="M0 0h56v56H0z"/><circle cx="34" cy="28" r="9" fill="#A5CF4E"/><path d="M33 28a8 8 0 1 0-8 8v4a12 12 0 1 1 0-24 12 12 0 0 1 0 24v-4a8 8 0 0 0 8-8Z" fill="#44A8C6"/><path d="M33 19.06a11.97 11.97 0 0 1 0 17.88 8.95 8.95 0 0 1-4.44-1.77 8 8 0 0 0 0-14.34A8.95 8.95 0 0 1 33 19.06Z" fill="#128990"/><defs><linearGradient id="a" x1="10.42" y1="9.71" x2="68.15" y2="76.02" gradientUnits="userSpaceOnUse"><stop stop-color="#1A1E21"/><stop offset="1" stop-color="#06060A"/></linearGradient></defs></svg>