<!-- by TradingView --><svg width="56" height="56" xmlns="http://www.w3.org/2000/svg"><path fill="#A29062" d="M0 0h56v56H0z"/><path d="M6 24.11c0-.11.02-.177.152-.177h.313v-.387H4v.387h.6c.324 0 .385.429.385 1.887v5.173c0 .11-.02.177-.152.177h-.6v.375H6.7v-.375h-.313c-.325 0-.386-.254-.386-2.071v-4.99zM11.42 28.425l.609 2.48c.07.22.04.265-.152.265h-.457v.375h2.556v-.375h-.243c-.345 0-.426-.353-.73-1.608-.558-1.667-1.694-5.088-1.694-5.474 0-.221.203-.243.203-.376 0-.066-.03-.143-.102-.143-.152 0-.639.132-.811.177-1.035 2.65-2.09 6.01-2.515 7.225-.051.144-.112.199-.264.199h-.325v.375h2.06v-.375h-.579c-.172 0-.284-.033-.284-.243 0-.331.355-1.895.568-2.502h2.16zm-.162-.43H9.422c.315-.873.63-1.756 1.005-2.628l.831 2.628zM16.613 23.546h-1.937v.387h.274c.568 0 .618.904.618 1.864v5.23c0 .143-.05.143-.314.143h-.284v.375h1.896v-.375h-.405c-.274 0-.345-.022-.396-.365-.07-.53-.07-1.894-.07-2.501v-3.125h.02l2.22 6.101c.02.055.051.188.122.188.071 0 .102-.133.122-.188l2.492-6.3h.02v6.013c0 .11-.02.177-.152.177h-.456v.375h2.453v-.375h-.456c-.325 0-.386-.254-.386-2.071v-4.99c0-.11.02-.176.153-.176h.456v-.387h-1.757l-2.073 5.42-2.16-5.42zM27.99 28.546h.547c.325 0 .463.187.463 1.575v.883c-.335.177-1.033.254-1.418.254-1.714 0-2.475-2.577-2.475-4.145 0-2.98 1.998-3.432 2.475-3.432 1.085 0 1.633.497 1.633.718 0 .154.03.243.152.243.101 0 .152-.144.263-1.016-.557-.287-1.277-.398-1.896-.398-2.12 0-3.804 1.555-3.804 4.05 0 2.21 1.258 4.433 3.276 4.433.518 0 .923-.078 1.36-.188 1.389-.342 1.565-.508 1.565-.607 0-.155-.142-.067-.142-.596v-1.61c-.01-.165.05-.165.162-.165h.384v-.425H27.99v.425zM34.838 31.71c2.079 0 3.56-1.97 3.56-4.526 0-2.142-1.289-3.956-3.266-3.956-2.08 0-3.469 2.123-3.469 4.32 0 2.502 1.197 4.163 3.175 4.163zm.294-.397c-.933 0-2.292-1.152-2.292-4.36 0-2.828 1.683-3.327 1.998-3.327.933 0 2.383 1.305 2.383 4.154 0 3.186-1.775 3.533-2.09 3.533zM40.963 24.11c-.01-.11.01-.177.142-.177h.873v-.364h-2.86v.364h.456c.325 0 .386.429.386 1.887v5.173c0 .11-.02.177-.152.177h-.457v.364h5.01c.213-.784.264-.95.264-1.049 0-.077-.041-.304-.112-.304-.091 0-.112.238-.152.315-.315.608-1.694.608-2.241.608h-.772c-.344 0-.385-.034-.385-2.955v-4.04zM45.371 31.534h3.13c2.728 0 3.499-2.767 3.499-4.235 0-1.722-1.096-3.73-3.398-3.73h-3.464v.364h.456c.325 0 .386.044.386 1.502v5.558c0 .11-.02.177-.152.177h-.457v.364zm5.361-3.771c0 2.358-1.72 3.363-3.363 3.34-.345 0-.386-.033-.386-2.782v-4.167c0-.154.575-.154 1.051-.154 1.44 0 2.698 1.543 2.698 3.763z" fill="#fff"/></svg>