<!-- by TradingView --><svg xmlns="http://www.w3.org/2000/svg" width="56" height="56"><path fill="#2F3F48" d="M0 0h56v56H0z"/><path d="M30 28.95c0 .56.07 1.32.73 1.32.54 0 .78-.13 1.18-.52l.59 1.39c-.59.54-1.28.86-2.08.86-1.59 0-2.42-1.22-2.42-2.72V25.5h-1V24h1v-2h2v2h2v1.5h-2v3.45zM17 22h-2v10h2V22zm7 6.33c0 1.02-.61 2.02-1.7 2.02-.9 0-1.3-.68-1.3-1.54V24h-2v4.81c0 .96.25 1.75.73 2.32.47.57 1.2.87 2.15.87a3.17 3.17 0 001.43-.33c.19-.1.35-.21.47-.33l.35-.33.06.99H26v-8h-2v4.33zm12.73 1.94c-.66 0-.73-.76-.73-1.32V25.5h2V24h-2v-2h-2v2h-1v1.5h1v3.78c0 1.5.83 2.72 2.42 2.72.8 0 1.49-.32 2.08-.86l-.59-1.4c-.4.4-.64.53-1.18.53zm7.45-5.89c.44.26.8.59 1.06 1a4.61 4.61 0 01.76 2.87v.35h-5c0 .87.7 1.63 1.7 1.63.83 0 1.66-.3 2.24-.88l.97 1.27-.04.05-.2.22a3.72 3.72 0 01-1.56.9c-.4.15-.85.21-1.4.21a3.46 3.46 0 01-3.44-2.43 4.98 4.98 0 010-3.23 3.45 3.45 0 011.85-2.05c.44-.2.9-.29 1.44-.29.65 0 1.18.12 1.62.38zm-1.62 1.3c-.91 0-1.56.57-1.56 1.54h3.04c0-.89-.58-1.55-1.48-1.55zm9-1.65c-.16-.03-.31-.03-.47-.03-.32 0-.57.03-.82.12l-.63.27a3.08 3.08 0 00-.78.73L48.79 24H47v8h2v-4.27c0-.77.33-1.5 1.05-1.8.22-.08.47-.11.72-.11.3 0 .58.02.85.15l.38-1.85-.44-.09zM6 22h8v2H6v-2zm0 4h6v2H6v-2zm2 4H6v2h2v-2z" fill="#fff"/></svg>