<!-- by TradingView --><svg width="56" height="56" viewBox="0 0 56 56" xmlns="http://www.w3.org/2000/svg"><path fill="#F0F3FA" d="M0 0h56v56H0z"/><path d="M45 27.81C45 18.55 37.33 11 27.9 11c-4.52 0-8.74 1.73-11.87 4.72-.07.07.01.18.1.13A14.23 14.23 0 0 1 23.35 14C31.02 14 38 20.13 38 27.82 38 33.04 33.22 37 27.9 37c-1.4 0-2.75-.3-4-.86-.08-.04-.16.07-.1.13 2.31 2.17 5.4 3.73 8.64 3.73A12.5 12.5 0 0 0 45 27.81" fill="#231F20"/><path d="M11 28.18C11 37.45 18.67 45 28.1 45a17.2 17.2 0 0 0 11.87-4.72c.07-.07-.01-.18-.1-.13A14.24 14.24 0 0 1 32.63 42c-7.68 0-14.36-5.8-14.62-13.34l-.01-.3c-.1-5.43 4.99-9.43 10.21-9.36a9.8 9.8 0 0 1 3.88.86c.09.04.16-.07.1-.14-2.31-2.17-5.4-3.72-8.64-3.72A12.5 12.5 0 0 0 11 28.2" fill="#C8202F"/></svg>