<!-- by TradingView --><svg xmlns="http://www.w3.org/2000/svg" width="56" height="56" viewBox="0 0 56 56"><path fill="#FFD137" d="M0 0h56v56H0z"/><path d="M13.02 25c.12 0 .23-.05.3-.15l.1-.12h.67l-.59 1.33a.8.8 0 0 1-.72.5h-1.31l-1.9 4.47c-.13.3.07.62.36.62h.15l-.16.35H4.8c-.3 0-.49-.33-.36-.62l1.99-4.83H5a.4.4 0 0 0-.36.24v.02h-.65l.58-1.32A.8.8 0 0 1 5.3 25h7.73ZM14.91 25l-.33.8c-.13.3.07.64.36.64h3.78l.33-.8c.13-.3-.07-.64-.36-.64h-3.78ZM12.64 32c-.3 0-.49-.34-.36-.64l1.73-4.2h3.87c.3 0 .49.34.36.63l-1.54 3.6c-.05.11.03.25.14.25h.48l-.16.36h-4.52ZM18.53 32c-.28 0-.48-.32-.37-.6l2.35-5.82c.04-.1-.03-.24-.15-.24H20V25h4.5c.28 0 .47.32.36.6l-1.93 4.8h2.4c.2 0 .4-.14.48-.35h.54l-.55 1.37a.88.88 0 0 1-.81.58h-6.46ZM26.88 32c-.29 0-.48-.32-.37-.6l2.19-5.81c.04-.12-.04-.24-.15-.24h-.36V25h4.49c.29 0 .48.32.37.6l-1.77 4.8h2.4c.2 0 .4-.14.48-.35h.54l-.55 1.37a.88.88 0 0 1-.81.58h-6.46ZM33.96 25h3.87c.15 0 .28.1.35.24l.93 1.97 1.46-1.54c.1-.11.04-.31-.1-.31h-.23l.2-.36h3.52c.22 0 .33.3.17.46l-3.78 3.99-.66 1.82c-.07.18.05.37.22.37h.37l-.16.36h-4.31c-.29 0-.48-.33-.37-.63l.75-1.94-1.8-3.83a.4.4 0 0 0-.35-.24h-.28l.2-.36ZM52 25h-5.57c-.86 0-1.63.6-1.94 1.5l-.36 1.04c-.15.41.04.88.41 1.04l2.66 1.07c.08.04.11.14.08.22a.72.72 0 0 1-.65.46h-2.72c-.17 0-.3-.17-.27-.36h-.44l-.45 1.14c-.17.41.1.89.51.89h5.05a2.66 2.66 0 0 0 1.65-.55c.45-.35.72-.94.99-1.48.17-.34.38-.76.32-1.1-.09-.52-.57-.75-1.07-.95l-1.97-.78c-.12-.04-.18-.2-.14-.32a.4.4 0 0 1 .38-.3h2.33c.34 0 .65-.22.8-.56L52 25Z" fill="#04060C"/></svg>