<!-- by TradingView --><svg width="56" height="56" viewBox="0 0 56 56" xmlns="http://www.w3.org/2000/svg"><path fill="#F0F3FA" d="M0 0h56v56H0z"/><path d="M21 21.24a9.11 9.11 0 0 0-14.1 7.63 9.11 9.11 0 0 0 8.55 9.11l-.55.02a9.48 9.48 0 0 1-9.45-9.5c0-5.25 4.23-9.5 9.45-9.5 2.33 0 4.45.84 6.1 2.24Z" fill="#005AA8"/><path d="M16 21.96a6.93 6.93 0 0 0-6.19 6.9c0 3.6 2.71 6.54 6.18 6.91a6.92 6.92 0 0 1-7.63-6.9 6.92 6.92 0 0 1 7.63-6.9Z" fill="#005AA8"/><path d="M15 24.5a9.45 9.45 0 0 1-7-4.04v1.46c1.82 2.2 4.46 3.31 7 3.68v-1.1Z" fill="url(#ac345ovjq)"/><path d="M15 27.4c-5.17-.27-9.18-3.28-10.27-5.11v1.83C7.27 27.4 11.37 28.5 15 28.5v-1.1Z" fill="url(#bc345ovjq)"/><path d="M14 31.4c-5.17-.27-8.9-3.27-10-5.1v1.83c2.54 3.3 6.37 4.37 10 4.37v-1.1Z" fill="url(#cc345ovjq)"/><path d="M25 27h-3c0-.55-.44-1-.67-1h-2.66c-.34 0-.67.08-.67.77 0 .55.44.73.67.73h5c1 0 1.33.65 1.33 1.35v2.77C25 33 24.11 33 23.67 33h-7.34c-1.06 0-1.33-.92-1.33-1.38V30h3c0 .55.33 1 .67 1h2.66c.34 0 .67-.08.67-.77a.7.7 0 0 0-.67-.73h-5c-1.06 0-1.33-.88-1.33-1.35v-2.77c0-1.1.89-1.38 1.33-1.38h7.34c1.06 0 1.33.92 1.33 1.38V27ZM30.5 24H26v9h3v-6.23L32 33h3l3-6.23V33h3v-9h-4.5l-3 6.23-3-6.23Z"/><path fill-rule="evenodd" d="M44 24h-2v9h3v-3h5c1.6 0 2-.89 2-1.33v-3.34c0-.66-.33-1.33-2-1.33h-6Zm1 2v2h3c.67 0 1-.47 1-1 0-.67-.33-1-1-1h-3Z"/><defs><linearGradient id="ac345ovjq" x1="8" y1="21.19" x2="14.56" y2="24.82" gradientUnits="userSpaceOnUse"><stop stop-color="#1D64A9"/><stop offset="1" stop-color="#9AAADB"/></linearGradient><linearGradient id="bc345ovjq" x1="5.45" y1="24.79" x2="12.47" y2="30.53" gradientUnits="userSpaceOnUse"><stop stop-color="#1D64A9"/><stop offset="1" stop-color="#9AAADB"/></linearGradient><linearGradient id="cc345ovjq" x1="4.73" y1="28.81" x2="11.74" y2="34.55" gradientUnits="userSpaceOnUse"><stop stop-color="#1D64A9"/><stop offset="1" stop-color="#9AAADB"/></linearGradient></defs></svg>