<!-- by TradingView --><svg xmlns="http://www.w3.org/2000/svg" width="56" height="56" viewBox="0 0 56 56"><path fill="#F0F3FA" d="M0 0h56v56H0z"/><path d="M39.52 42.73c-2.32 1.52-6.92 1.93-11.2-.17-5.02-2.57-9.73-1.93-12 1.63l-.32.59.48-.35c2.7-1.99 5.18-2.57 10.3-.06.53.29 3.33 1.63 6.45 1.63 2.22 0 4.66-.7 6.4-3.1l.37-.52-.48.35z" fill="#90C715"/><path d="M32.54 19.67c0 .1.05.16.05.27a13.94 13.94 0 0 0 .97 2.15c.64 1.18 1.4 2.3 2.14 3.38C42.73 35.2 37.1 41 32 41s-10.73-5.86-3.7-15.53a24.62 24.62 0 0 0 2.36-3.76c.21-.43.43-.86.59-1.3.05-.15.16-.37.21-.58.06-.27.11-.6.38-.75.1-.06.21-.11.32-.06.05 0 .1.06.1.06.17.21.22.43.28.59z" fill="#00A0DF"/><path d="M28.02 37.17c.41.44.83.73 1.19.83.24-.05.41-.1.6-.25.23-.24.23-.49.11-.78-2.08-1.67-2.5-3.78-1.37-6.97-1.37 1.91-2.38 4.71-.6 7.02 0 .05.07.15.07.15z" fill="#F0F3FA"/><path d="M23.4 36s-8.38-8.07-2.01-16.4C27.27 12 25.37 9 25.37 9s8.77 7.75 2.18 14.92C21.93 30 23.4 36 23.4 36z" fill="#8DC6E8"/></svg>