<!-- by TradingView --><svg width="56" height="56" viewBox="0 0 56 56" xmlns="http://www.w3.org/2000/svg"><path fill="#245580" d="M0 0h56v56H0z"/><path d="M48 18h-5.95a29.51 29.51 0 0 0-10 12c0 .09-.66-1.97-2.4-4.43 1.99-2.39 4.47-5.27 7.53-7.57h-6.04c-1.48.99-3.05 2.71-4.46 4.2a19.86 19.86 0 0 0-7.02-4.2s2.48 1.23 5.45 5.92a25.58 25.58 0 0 0-3.96 6.17c-.09.08-2.57-8.39-12.15-11.93 1.49 1 8.26 6.42 12.48 24.84 0 .08.66-6.74 6.03-14.56A67.64 67.64 0 0 1 32.38 43c.09 0 1.4-14.23 15.62-25Z" fill="#fff"/></svg>