<!-- by TradingView --><svg width="56" height="56" viewBox="0 0 56 56" xmlns="http://www.w3.org/2000/svg"><path fill="#181B1E" d="M0 0h56v56H0z"/><path d="M38 33.81c-.28.11-.57.17-.9.17-1.09 0-1.8-.57-1.86-2.32A3.48 3.48 0 0 1 31.9 34c-1.78 0-2.9-.93-2.9-2.64 0-1.73.98-2.55 3.4-2.93 1.55-.27 2.6-.3 2.6-1.39 0-.91-.52-1.88-2.06-1.88-1.45 0-2.25.84-2.45 2.2l-1.25-.1c.26-2.18 1.7-3.26 3.7-3.26 2.37 0 3.44 1.39 3.44 3.23v4.07c0 1.27.51 1.52 1 1.52.22 0 .41-.04.62-.11v1.1Zm-7.67-2.55c0 1.05.7 1.6 1.83 1.6 1.97 0 2.84-1.54 2.84-3.54v-.83c-.52.47-1.25.62-2.27.81-1.7.29-2.4.86-2.4 1.96ZM25 34V24h1.5v10H25ZM25 22v-2h1.47v2H25ZM8 34V24h1.51v2.07A3.64 3.64 0 0 1 12.75 24c1.65 0 2.83.8 3.3 2.38a3.66 3.66 0 0 1 3.4-2.38c2.17 0 3.55 1.36 3.55 4.03V34h-1.53v-5.68c0-1.96-.83-2.98-2.42-2.98-1.63 0-2.8 1.33-2.8 3.35V34h-1.5v-5.68c0-1.96-.86-2.98-2.45-2.98-1.63 0-2.79 1.33-2.79 3.35V34H8ZM39 24h1.74L48 34h-1.74L39 24Z" fill="#fff"/><path d="M48 24h-1.81l-1.75 2.49h1.81L48 24Z" fill="#F94E2B"/><path d="M46.25 26.48h-1.81L42.62 29h1.82l1.8-2.52Z" fill="#0B8128"/><path d="M44.44 29h-1.8l-1.83 2.52h1.81L44.44 29Z" fill="#0061EA"/><path d="M42.66 31.46h-1.8L39 34h1.81l1.85-2.54Z" fill="#009092"/></svg>