<!-- by TradingView --><svg xmlns="http://www.w3.org/2000/svg" width="56" height="56" viewBox="0 0 56 56"><path fill="#F0F3FA" d="M0 0h56v56H0z"/><path d="M23.65 8.97c0 .07-.05.2-.25.32s-.5.21-.85.21-.65-.09-.85-.21c-.2-.13-.25-.25-.25-.32s.05-.2.25-.32c.2-.13.5-.22.85-.22s.65.1.85.22c.2.12.25.25.25.32zm-.53.9c.57-.14.98-.5.98-.9 0-.54-.7-.97-1.55-.97-.86 0-1.55.43-1.55.97 0 .4.4.76.98.9V49h1.14V9.87zm-.7.08h.25v38.62h-.24V9.95zm1.6 2.01h-.9v-.43h.9v.43zm-.9 6.62h.9v-.43h-.9v.43zm.9 5.91h-.9v-.43h.9v.43zm-.9 6.62h.9v-.44h-.9v.44zm.9 5.9h-.9v-.44h.9v.44zm-.9 6.3h.9v-.43h-.9v.44z"/><path fill="#2E2E6E" d="M24 11h11v8H24z"/><path d="M35 18.65l-5-3.57 5-3.48V11h-.31l-5.27 3.67L24.27 11H24v.63l4.84 3.45L24 18.45V19h.37l5.04-3.51L34.34 19H35v-.35z" fill="#fff"/><path d="M23.5 10.5h12v9h-12v-9zm.5.5v8h11v-8H24z" fill="#231F20"/><path fill="#F5EC42" d="M24 24h11v8H24z"/><path d="M23.5 23.5h12v9h-12v-9zm.5.5v8h11v-8H24z" fill="#231F20"/><circle cx="29.5" cy="28" r="2.5" fill="#231F20"/><path fill="#fff" d="M24 36h11v8H24z"/><path d="M23.5 35.5h12v9h-12v-9zm.5.5v8h11v-8H24z" fill="#231F20"/><path d="M35 40.35v-.7L29.93 36h-.72L24 39.68v.64L28.66 44h1.8L35 40.35z" fill="#C82F29"/></svg>