<!-- by TradingView --><svg width="56" height="56" viewBox="0 0 56 56" xmlns="http://www.w3.org/2000/svg"><path fill="#0056FE" d="M0 0h56v56H0z"/><path d="M17 19h1.5v5.25c1.22 2.08 4.45 6.72 8.2 9.83l-.91 1.03a41.57 41.57 0 0 1-7.29-8.28v4.37c0 .97-.26 3.34-1.5 5.12l-1.16-.75C16.85 34.1 17 32.04 17 31.2V19Zm24 1.5h-6V22h13v-1.5h-5.29V19H41v1.5Zm-8.5 1.21L30 20.36v-1.33l2.5 1.33v1.35Zm-5.87 1.24c-1.66 1.08-3.94 2.7-4.88 3.37l-.84-1.08c.94-.68 3.25-2.32 4.95-3.41l.77 1.12Zm10.94 1.55H35V37h1.5V26h9.4c.4 0 .7.04.7.46V37H48V26.46c0-1.17-.88-1.96-2-1.96h-1.6l1.07-1.5H43.8l-1.08 1.5h-3.46L38.18 23h-1.69l1.08 1.5Zm-23.96-.08H8L8.7 23h4.93c1.78 0 2.49 1.33 2.07 2.94a14.88 14.88 0 0 1-1.56 4.07c-.83 1.43-2.11 3-4.24 5.06l-1-.96c2.09-2 3.27-3.48 4.01-4.77a13.6 13.6 0 0 0 1.43-3.73c.2-.82.14-1.19-.73-1.19Zm18.89.68L30 23.74v-1.32l2.5 1.32v1.36ZM31 31.2V27h1.5v4.2c0 1.94-.33 4.16-1.46 5.8l-1.17-.75c.98-1.41 1.13-3.38 1.13-5.05Zm10-2.7V27h1.5v1.5H45v1.51L42.5 30v1H45v3.59c0 1.14-.73 2.41-1.91 2.41H38v-6h3v-1h-3.53l.7-1.5H41Zm-1.5 4v3h3.59c.42 0 .41-.5.41-.91V32.5h-4Z" fill="#F0F3FA"/></svg>