<!-- by TradingView --><svg xmlns="http://www.w3.org/2000/svg" width="56" height="56"><path fill="url(#ahemn5kkz)" d="M0 0h56v56H0z"/><path d="M17.5 21H15v-1h6v1h-2.5v7h-1v-7zM13 20H8v8h5v-1H9v-2.5h4v-1H9V21h4v-1zm19 10v8h5v-1h-4v-2.5h4v-1h-4V31h4v-1h-5zm-8-10h-1v8h1v-3.5h4V28h1v-8h-1v3.5h-4V20zm10.5 0h1l3.5 8h-.99l-.91-2h-4.18l-.91 2H31l3.5-8zm.5 1l-1.7 4h3.46L35 21zm-22.5 9h-1L8 38h1l.92-2h4.18l.91 2H16l-3.5-8zm-2.2 5l1.7-4 1.76 4h-3.47zM41 20h1l5 6.34V20h1v8h-1l-5-6.3V28h-1v-8zm-1 10h-1v8h1v-6.3l5 6.3h1v-8h-1v6.34L40 30zm-22 0h1v7h4v1h-5v-8zm8 0h-1v8h5v-1h-4v-7z" fill="#fff"/><defs><linearGradient id="ahemn5kkz" x1="10.42" y1="9.71" x2="68.15" y2="76.02" gradientUnits="userSpaceOnUse"><stop stop-color="#1A1E21"/><stop offset="1" stop-color="#06060A"/></linearGradient></defs></svg>