<!-- by TradingView --><svg width="56" height="56" viewBox="0 0 56 56" xmlns="http://www.w3.org/2000/svg"><path d="M0 28a28 28 0 1 1 56 0 28 28 0 1 1-56 0Z" fill="#000078"/><path fill-rule="evenodd" d="M8.97 33 4 24.02 5.61 23l3.9 7.02 2.42-4.38 1.56 1.12-2.9 5.27-1.62.97Zm38.06-10L52 31.98 50.39 33l-3.9-7.02-2.42 4.38-1.56-1.12 2.9-5.27 1.62-.97Zm-23.18 5.82c.08-.43.15-.99.15-1.3A4.4 4.4 0 0 0 19.6 23c-2.7 0-4.6 2.24-4.6 5s2.06 5 4.6 5a5.4 5.4 0 0 0 3.84-1.4l-1.11-1.5c-1 .8-2.14.91-2.59.9A2.79 2.79 0 0 1 17 29h6.82l.03-.18ZM19.65 25A2.71 2.71 0 0 0 17 27h5c-.07-.68-.63-2-2.36-2Zm9.76-2c1.66.01 3.09.96 3.59 1.44l-1.2 1.46c-1.87-1.32-3.53-.93-3.86-.46-.24.34-.28 1.12 1.47 1.49 2.2.46 3.59 1.37 3.59 3.16 0 1.8-1.37 2.86-3.73 2.9a5.92 5.92 0 0 1-3.9-1.4l1.2-1.5.08.06c.78.47 1.43.87 2.62.85 1.23-.02 1.75-.56 1.73-.9-.02-.35-.28-.81-1.92-1.2-1.65-.37-3.33-1.26-3.33-3 0-1.73 1.58-2.92 3.66-2.9ZM34 23h8v2h-3v8h-2v-8h-3v-2Z" fill="#fff"/></svg>