<!-- by TradingView --><svg width="56" height="56" xmlns="http://www.w3.org/2000/svg"><path fill="url(#paint0_linear)" d="M0 0h56v56H0z"/><path d="M13 24v2h-3v1.5h2v2h-2V33H8v-9h5zM13.635 30h1.81c0 .361.091.814.276 1.063.218.273.507.409.867.409s.65-.108.867-.325c.218-.224.327-.51.327-.854 0-.385-.235-.726-.704-1.023-.226-.144-.637-.329-1.232-.553-1.315-.506-1.973-1.276-1.973-2.31 0-.763.285-1.364.855-1.805.52-.401 1.186-.602 1.998-.602.821 0 1.475.225 1.96.674.486.441.755 1.221.755 2h-1.747c0-.781-.42-1.17-1.03-1.17-.68 0-1.019.293-1.019.878 0 .466.373.855 1.119 1.167.687.281 1.194.522 1.52.722.579.345.964.722 1.157 1.131.108.25.163.538.163.867 0 .85-.276 1.52-.83 2.01-.544.48-1.265.721-2.161.721-.913 0-1.638-.257-2.174-.77s-.804-1.356-.804-2.23zM32 24l-3 4.476L32 33h-2l-3-4.223V33h-2v-9h2v4.26L30 24h2zM40.004 24L37 28.476 40.004 33h-2.008L35 28.777V33h-2v-9h2v4.26L37.996 24h2.008zM48 33h-2.316L43 29.306V33h-2v-9h3.607C46.3 24 48 25.003 48 26.785c0 1.583-1.158 2.521-2.616 2.521L48 33zm-2-6c0-1.289-.769-1.5-3-1.5v2.976c2.25 0 3-.187 3-1.476z" fill="#fff"/><path stroke="#7E7E7E" d="M22.509 36V21"/><defs><linearGradient id="paint0_linear" x1="10.418" y1="9.712" x2="68.147" y2="76.017" gradientUnits="userSpaceOnUse"><stop stop-color="#1A1E21"/><stop offset="1" stop-color="#06060A"/></linearGradient></defs></svg>