<!-- by TradingView --><svg width="56" height="56" viewBox="0 0 56 56" xmlns="http://www.w3.org/2000/svg"><path fill="#F0F3FA" d="M0 0h56v56H0z"/><path d="M33 24 23 13l1-1 10 11-1 1Z" fill="#6F3243"/><path d="m26 15 3-3 1 1-3 3-1-1ZM28 18l5-5 1 1-5 5-1-1ZM31 20l6-6 1 1-6 6-1-1ZM33 23l6-6 1 1-6 6-1-1ZM19 41l23-21 1 1-23 21-1-1ZM23 42.5 43 24l1 1-20 18.5-1-1ZM28.5 43.5 43 30l1 1-14.5 13.5-1-1ZM26 22l-7-8 1-1 7 8-1 1ZM22 24l-6-7 1-1 6 7-1 1Z" fill="#6F3243"/><path d="M27 35 14 20l1-1 13 15-1 1ZM24 37 12 24l1-1 12 13-1 1ZM21 40l-9-10 1-1 9 10-1 1Z" fill="#6F3243"/><path fill-rule="evenodd" d="M28 45a17 17 0 1 0 0-34 17 17 0 0 0 0 34Zm0-2c8.48 0 15-6.52 15-15s-6.52-15-15-15-15 6.52-15 15 6.52 15 15 15Z" fill="#6F3243"/><path d="M21.29 26.63c.95-2.4 3.54-4.12 6.59-4.12 3.2 0 5.9 1.9 6.72 4.49l1.4-1.09C34.75 23.04 31.58 21 27.88 21c-3.49 0-6.5 1.8-7.88 4.41l1.29 1.22Z" fill="#6F3243"/></svg>