<!-- by TradingView --><svg width="56" height="56" viewBox="0 0 56 56" xmlns="http://www.w3.org/2000/svg"><path fill="#F0F3FA" d="M0 0h56v56H0z"/><path d="M10 35.72V21.28c0-.16.13-.28.28-.28h8.44c.15 0 .28.12.28.28v1.94c0 .15-.13.28-.28.28h-6.17v3.67h6.17c.15 0 .28.12.28.28v1.94c0 .15-.13.27-.28.27h-6.17v3.82h6.17c.15 0 .28.12.28.27v1.97c0 .16-.13.28-.28.28h-8.44a.28.28 0 0 1-.28-.28Zm16.7.27c.14.04.3-.06.3-.2v-2.36c0-.09-.1-.16-.17-.2a5.14 5.14 0 0 1-3.22-4.6 4.93 4.93 0 0 1 4.89-4.97c2.7 0 4.89 2.22 4.89 4.97a4.86 4.86 0 0 1-2.8 4.56c-.07.03-.09.1-.09.2v2.37c0 .14.1.24.22.2A7.5 7.5 0 0 0 36 28.63 7.57 7.57 0 0 0 28.5 21a7.57 7.57 0 0 0-7.5 7.63 7.78 7.78 0 0 0 5.7 7.36ZM27.79 28a.28.28 0 0 0-.28.28v10.44c0 .15.12.28.28.28h1.94c.16 0 .28-.13.28-.28V28.28a.28.28 0 0 0-.28-.28h-1.94Zm8.24-6.62 5.76 14.43a.3.3 0 0 0 .27.19.3.3 0 0 0 .28-.2l5.65-14.42a.28.28 0 0 0-.25-.38h-1.98a.34.34 0 0 0-.31.22l-3.4 8.46-3.47-8.47a.34.34 0 0 0-.32-.21h-1.98c-.2 0-.32.2-.25.38Z" fill="#141E2D"/></svg>