<!-- by TradingView --><svg xmlns="http://www.w3.org/2000/svg" width="56" height="56" viewBox="0 0 56 56"><path fill="#07192D" d="M0 0h56v56H0z"/><path fill-rule="evenodd" d="M22 17h5v6h-5a8.98 8.98 0 0 0-6.71 3A7 7 0 0 1 22 17Zm7 6v-6h5a7 7 0 0 1 6.71 9A8.98 8.98 0 0 0 34 23h-5Zm-15.06 5A9 9 0 0 1 22 15h12a9 9 0 0 1 8.06 13A9 9 0 0 1 34 41H22a9 9 0 0 1-8.06-13Zm26.77 2A7 7 0 0 1 34 39h-5v-6h5a8.98 8.98 0 0 0 6.71-3ZM27 33h-5a8.98 8.98 0 0 1-6.71-3A7 7 0 0 0 22 39h5v-6Zm12.75-5A7 7 0 0 1 34 31H22a7 7 0 0 1-5.75-3A7 7 0 0 1 22 25h12a7 7 0 0 1 5.75 3Z" fill="#009DFF"/></svg>