<!-- by TradingView --><svg width="56" height="56" viewBox="0 0 56 56" xmlns="http://www.w3.org/2000/svg"><path fill="#F0F3FA" d="M0 0h56v56H0z"/><path d="M42.21 35.35a16 16 0 1 1-.02-14.75l-.86.5a15.01 15.01 0 1 0 0 13.77l.88.48Z" fill="#E30012"/><path d="M22 23v1h-2v.64h1.5v.87H20V27h-1v-4h3ZM24 24v1.63c0 .35.24.53.57.53.18 0 .27-.05.43-.13V24h1v3h-1v-.16c-.21.1-.44.16-.67.16-.8 0-1.33-.53-1.33-1.34V24h1ZM39 24v1.63c0 .35.24.53.57.53.18 0 .27-.05.43-.13V24h1v3h-1v-.16c-.21.1-.44.16-.67.16-.8 0-1.33-.53-1.33-1.34V24h1ZM36 33v-1.63c0-.35-.24-.53-.57-.53-.18 0-.27.05-.43.13V33h-1v-3h1v.16c.21-.1.44-.16.67-.16.8 0 1.33.53 1.33 1.34V33h-1ZM27.9 27H27v-3.5l1-.5v4h-.1ZM29.87 27H29v-3.5l1-.5v4h-.13ZM34 23v1h-1v3h-1v-3h-1v-1h3ZM36 24.16c.14-.13.42-.16.6-.16.13 0 .26.03.4.03v.86h-.47c-.19 0-.36.02-.53.1V27h-1v-3h1v.16ZM43.6 24c.33 0 .64.1.93.24v.84a1.8 1.8 0 0 0-.9-.3c-.39 0-.63.29-.63.69 0 .4.25.69.63.69.3 0 .59-.13.87-.24v.84c-.28.14-.61.24-.93.24-.82 0-1.57-.62-1.57-1.47 0-.9.74-1.53 1.6-1.53ZM39.6 30c.33 0 .64.1.93.24v.84a1.8 1.8 0 0 0-.9-.3c-.39 0-.63.29-.63.69 0 .4.25.69.63.69.3 0 .62-.13.9-.24v.84a2.3 2.3 0 0 1-.96.24c-.82 0-1.57-.62-1.57-1.47 0-.9.74-1.53 1.6-1.53ZM45 23.5l1-.5v2.1h.09L47 24h1l-1.26 1.53L48 27h-1l-.91-1.1H46V27h-1v-3.5ZM20.74 29h.58L23 33h-.9l-.33-.81h-1.54l-.33.81H19l1.68-4h.06Zm.67 2.34-.43-1.03-.42 1.03h.85ZM24.86 33H24v-3.6l1-.4v4h-.14ZM26.86 33H26v-3.58l1-.42v4h-.14ZM28 32.9V30h1v3h-1v-.1ZM41 31.5c0-.82.68-1.5 1.5-1.5.9 0 1.5.73 1.5 1.6v.24h-2c0 .28.5.33.7.33.37 0 .7-.11 1.04-.24v.83a2.6 2.6 0 0 1-1.08.24c-.9 0-1.66-.52-1.66-1.5Zm1-.37h1c0-.21-.23-.33-.5-.33-.34 0-.5.2-.5.33ZM33 33v-1.97S33.04 30 31.59 30c-1.27 0-1.41.47-1.41.47l.46.4s.35-.18.72-.19c.24 0 .64.04.64.41 0 0-2 .16-2 .95 0 .59.32.96 1.02.96.5 0 .98-.33.98-.33V33h1Zm-1-1.13s-.06.6-.62.57c-.53 0-.7-.4-.43-.56.29-.2.87-.38 1.05 0Z" fill="#2B2A29"/><circle cx="28.5" cy="29.5" r=".5" fill="url(#a54myskyc)"/><defs><linearGradient id="a54myskyc" x1="28.5" y1="29" x2="28.5" y2="30"><stop offset="1" stop-color="#181B1E"/></linearGradient></defs></svg>