<!-- by TradingView --><svg xmlns="http://www.w3.org/2000/svg" width="56" height="56" viewBox="0 0 56 56"><path fill="#267A75" d="M0 0h56v56H0z"/><circle cx="5" cy="32" r="1" fill="#fff"/><circle cx="8" cy="32" r="1" fill="#D5E4E3"/><circle cx="8" cy="29.5" r="1" fill="#fff"/><circle cx="11" cy="32" r="1" fill="#AACAC8"/><circle cx="11" cy="29.5" r="1" fill="#D5E4E3"/><circle cx="11" cy="27" r="1" fill="#fff"/><circle cx="14" cy="32" r="1" fill="#80AFAC"/><circle cx="14" cy="29.5" r="1" fill="#AACAC8"/><circle cx="14" cy="27" r="1" fill="#D5E4E3"/><circle cx="14" cy="24" r="1" fill="#fff"/><path fill-rule="evenodd" d="M16 23h-1v1h1v8h-1v1h4.77a2.75 2.75 0 1 0 .95-5.33A2.5 2.5 0 0 0 19.48 23H16zm2.99 1H17.5v3h1.49a1.5 1.5 0 0 0 1.51-1.5c0-.83-.68-1.5-1.51-1.5zm.25 4.5H17.5V32h1.74c.97 0 1.76-.78 1.76-1.75s-.79-1.75-1.76-1.75zM23 33h4v-1h-1.5v-7.32L30 33h1.5v-9.02h1V23h-3.51v.98H30v6.67L26.17 23H23v.98h1V32h-1v1zm11-9v-1h8v3h-1.5v-2h-4v3H40v1.53h-3.5V32h4v-2H42v3h-8v-1h1v-8h-1zm10-1h-1v1h1v8h-1v1h4.59c2.44 0 4.41-2.09 4.41-4.67v-.66A4.54 4.54 0 0 0 47.6 23H44zm1.5 1h2.25c1.52 0 2.75 1.67 2.75 3.73v.54c0 2.06-1.23 3.73-2.75 3.73H45.5v-8z" fill="#fff"/></svg>