<!-- by TradingView --><svg width="56" height="56" viewBox="0 0 56 56" xmlns="http://www.w3.org/2000/svg"><path fill="#9DE3CD" d="M0 0h56v56H0z"/><path d="M33.9 31.98c-1.2 0-2.33-.33-3.3-.9l-2.24 2.25a.6.6 0 0 1-.85 0l-2.23-2.22a6.5 6.5 0 0 1-7.89-1.06 6.57 6.57 0 0 1 8.16-10.16 6.56 6.56 0 0 1 2.41 2.75 6.56 6.56 0 1 1 5.93 9.34Zm10.02-3.64a.38.38 0 0 1 .07-.07L44 28c0-3.84-1.37-7.53-3.87-10.44l1.12-2.22a.6.6 0 0 0-.3-.81.59.59 0 0 0-.31-.04l-3.42.43A15.88 15.88 0 0 0 28 12c-3.33 0-6.51 1.02-9.22 2.93l-3.42-.44a.6.6 0 0 0-.6.87l1.1 2.21c-2.49 2.9-3.86 6.6-3.86 10.44l.02.37v.03l1.17 1a47.11 47.11 0 0 0 5.57 4.52c4.07 2.87 4.01 5.47 3.44 7.73l-.46 1.02h.02v.04h.02a15.92 15.92 0 0 0 12.37.03l-.48-1.1c-.57-2.24-.64-4.85 3.43-7.71a47.12 47.12 0 0 0 5.57-4.54l1.25-1.07" fill="#fff"/><path d="m43.78 30.1-1.42 1.21a50.72 50.72 0 0 1-4.57 3.6c-3.33 2.34-3.46 4.3-3.01 6.23 0 0 .18.5.47 1.08l-.01.01.02.02.05-.03v.02-.01a16.02 16.02 0 0 0 8.54-12.13c0-.04-.06-.04-.07 0ZM21.1 41.14c.44-1.93.31-3.89-3.02-6.23a50.43 50.43 0 0 1-4.56-3.6l-1.35-1.01a16.03 16.03 0 0 0 8.43 11.89c.2-.34.36-.69.5-1.05Zm6.83-9.07-1.65-1.66a6.58 6.58 0 0 0 1.68-2.21c.4.83.96 1.58 1.66 2.18l-1.69 1.69Zm-3.18-5.48a4.31 4.31 0 0 1-5.44 0 .6.6 0 0 0-.75.94 5.5 5.5 0 0 0 6.93 0 .6.6 0 0 0-.74-.94Zm-8.05-1.18a5.37 5.37 0 1 1 10.75.02 5.37 5.37 0 0 1-10.75-.02Zm16.97 16.25Zm-13.09.56Zm15.94-15.63a4.32 4.32 0 0 1-5.44 0 .6.6 0 0 0-.75.94 5.5 5.5 0 0 0 6.94 0 .6.6 0 0 0-.75-.94Zm-2.59-6.54a5.37 5.37 0 1 1-5.33 5.91c-.02-.28-.05-.7 0-1.1a5.37 5.37 0 0 1 5.33-4.81Z" fill="#fff"/></svg>