<!-- by TradingView --><svg width="56" height="56" viewBox="0 0 56 56" xmlns="http://www.w3.org/2000/svg"><path fill="#181B1E" d="M0 0h56v56H0z"/><path d="M7 23h6v1h-2.19v4H9.19v-4H7v-1Z" fill="#F0F3FA"/><path fill-rule="evenodd" d="M14 23v5h1.5v-2h1.78l1.19 2H20l-1.35-1.93s1.05-.23 1.05-1.45c0-1.43-1.4-1.62-1.4-1.62H14Zm1.5 1v1h2.41s.4-.13.4-.54c0-.41-.42-.46-.42-.46H15.5ZM38 29v5h1.5v-2h1.78l1.19 2H44l-1.35-1.93s1.05-.23 1.05-1.45c0-1.19-1.4-1.62-1.4-1.62H38Zm1.5 1v1h2.41s.4-.13.4-.54c0-.41-.42-.46-.42-.46H39.5ZM22 28h-1.4l2.58-5h1.15L27 28h-1.48L25 27h-2.5l-.5 1Zm2.58-2H23l.75-1.53.83 1.53Z" fill="#F0F3FA"/><path d="m27 23 2.5 5h1.07L33 23h-1.5L30 26l-1.5-3H27ZM34 23h5v1h-3.5v1H38v1h-2.5v1H39v1h-5v-5ZM14 29h5v1h-3.5v1H18v1h-2.5v1H19v1h-5v-5ZM8 29h1.5v4H13v1H8v-5ZM45 29h5v1h-3.5v1H49v1h-2.5v1H50v1h-5v-5ZM46 26v-1h1.44v-1.5h1.06V25H50v1h-1.5v1.5h-1.06V26H46ZM40 23h1.5v4H45v1h-5v-5ZM22.5 29H21v5h1.5v-5ZM29 30.5l.72-.98s-1.33-.52-2.8-.52c-1.46 0-2.4.68-2.54 1.36-.14.66.27 1.35 1.06 1.51.8.17 2.56.13 2.56.62 0 .24-.18.6-1.03.51-.83-.08-2.24-.52-2.24-.52l-.73.9s1.96.62 3.05.62c1.09 0 2.95-.24 2.95-1.5 0-1-1.2-1.48-1.43-1.5-.24-.02-2.57-.14-2.57-.5 0-.38.35-.5.83-.5.47 0 1.04.06 2.17.5ZM31 29h1.5v2.76S32.4 33 34 33s1.5-1.36 1.5-1.36V29H37v3.2s-.14 1.8-3 1.8-3-1.37-3-1.96V29Z" fill="#F0F3FA"/></svg>