<!-- by TradingView --><svg width="56" height="56" viewBox="0 0 56 56" xmlns="http://www.w3.org/2000/svg"><path fill="#3E474E" d="M0 0h56v56H0z"/><path d="m5 31.68.67-7.4c.02-.18.12-.28.3-.28h.49c.17 0 .27.07.35.24l2.7 6.15 2.7-6.15c.06-.17.18-.24.33-.24h.5c.17 0 .27.1.29.28l.67 7.4c.01.2-.1.32-.29.32h-.36c-.19 0-.3-.1-.32-.28l-.45-5.96-2.65 6c-.06.16-.17.24-.33.24h-.2c-.16 0-.27-.08-.35-.24l-2.59-6-.5 5.96c-.02.18-.12.28-.31.28h-.36c-.2 0-.3-.11-.29-.32ZM15 28a4 4 0 1 1 4 4c-2.2 0-4-1.8-4-4Zm7 0c0-1.8-1.28-3-3-3-1.7 0-3 1.2-3 3 0 1.81 1.3 3 3 3 1.72 0 3-1.19 3-3Zm2 3.68V24.3c0-.2.13-.31.33-.31h2.34C29.3 24 31 25.8 31 28s-1.71 4-4.33 4h-2.34c-.22-.01-.33-.13-.33-.32Zm2.67-.68C28.7 31 30 29.78 30 28c0-1.8-1.31-3-3.33-3H25v6h1.67Zm6.33.7v-7.4c0-.19.13-.3.34-.3h.32c.22 0 .34.11.34.3v7.4c0 .19-.13.3-.34.3h-.32c-.2 0-.34-.11-.34-.3Zm5.9.05-2.88-7.4c-.07-.22.03-.35.27-.35h.4c.2 0 .32.08.38.25l2.44 6.36 2.4-6.36c.04-.17.19-.25.38-.25h.41c.23 0 .35.14.28.35l-2.87 7.4c-.06.18-.2.25-.38.25h-.44c-.2 0-.34-.07-.4-.25Z" fill="#fff"/><path d="M43.5 31c-.27 0-.5-.14-.5-.31v-2.38c0-.17.21-.31.5-.31.27 0 .5.14.5.31v2.38c0 .17-.23.31-.5.31Z" fill="#4295B7"/><path d="M45.5 31c-.27 0-.5-.16-.5-.37v-5.26c0-.2.21-.37.5-.37.27 0 .5.16.5.37v5.26c-.02.2-.23.37-.5.37Z" fill="#F47422"/><path d="M47.5 32c-.27 0-.5-.15-.5-.35v-10.3c0-.2.21-.35.5-.35.27 0 .5.15.5.35v10.3c-.02.2-.23.35-.5.35Z" fill="#7ACBF2"/><path d="M49.5 28c-.27 0-.5-.16-.5-.37v-8.26c0-.2.21-.37.5-.37.27 0 .5.16.5.37v8.26c0 .2-.21.37-.5.37Z" fill="#B6B7AC"/><path d="M51.5 26c-.27 0-.5-.14-.5-.32v-3.36c0-.18.21-.32.5-.32.27 0 .5.14.5.32v3.36c0 .18-.21.32-.5.32Z" fill="#5591B2"/></svg>