<!-- by TradingView --><svg width="56" height="56" viewBox="0 0 56 56" xmlns="http://www.w3.org/2000/svg"><path fill="#F0F3FA" d="M0 0h56v56H0z"/><path d="M29 47.81s3.64-1.48 5.97-3.8C37.29 41.67 40.37 40 41 40c-2.07 2.39-2.95 2.78-4.08 4.39-1.39 1.8-4.78 4.32-7.92 3.42Z" fill="#0B2C73"/><path d="M22 47.08s2.15.92 4.05.92 5.44-2.1 8.73-5.04c3.23-2.95 5.9-3.93 7.22-3.74-2.34-.33-2.85-.2-4.05-.2-1.84 0-4.62 1.64-7.47 4.46a11.99 11.99 0 0 1-8.48 3.6Z" fill="#0B2C73"/><path d="M19 43.9s1.53 2.1 4.22 2.1c2.68 0 9.4-5.67 9.78-5.86-.45-.13-2.5-.66-6.9 1.84-4.42 2.57-7.1 1.91-7.1 1.91ZM21 38h2v2h-2v-2ZM23 20h2v2h-2v-2Z" fill="#0B2C73"/><path d="m19 44 4-28h7l3 24.11-.38.06L29.68 16h-6.36l-4 28.06L19 44Z" fill="#0B2C73"/><path fill-rule="evenodd" d="M21.66 25.22c.89-.25 2.28-.63 4.18-.63 1.97 0 3.93.31 5.07.5l1.27 9s-5.45-.95-11.72 0l1.2-8.87ZM28 30h2v2h-2v-2Z" fill="#0B2C73"/><path d="M23 12h7v1h1l-1 3h-7l-1-3h1v-1ZM23.5 11h6l-2.77-2V8h-.5v1l-2.73 2Z" fill="#0B2C73"/></svg>