<!-- by TradingView --><svg width="56" height="56" viewBox="0 0 56 56" xmlns="http://www.w3.org/2000/svg"><path fill="#F0F3FA" d="M0 0h56v56H0z"/><path d="m40.76 26.23-1.33-1.35 2.12 4.75h.66l-1.45-3.4ZM30.43 27.52l-.88 2.05h.71l.17-.18v-1.87ZM25.48 29.54v-2c0 .06.45 1 .68 1.48v.52h-.68ZM27.76 27 27 25l.76.84.24.54-.24.62Z" fill="#8A0E04"/><path d="M19.81 29.67h-.65v-.72l2.33-2.8h.8V25h4.18l1.63 3.28L29.68 25H34v1h-1.47v4h4.2v1H30v-1h.77v-3.93L28.57 31h-1.22L25 26.07V30h1.01L26 31h-3.6l.02-1H24v-4h-1v1h-1.2l-1.99 2.21v.46Z" fill="#8A0E04"/><path d="M28.78 31.26H27.6l.91.65h.75l.3-.65v-1.7l-.77 1.7ZM12.99 29.39c0-.2-.46-.64-.69-.83.74-.42 1.42-1 1.42-2.05 0-1.06-1-1.99-1.27-2.17.21.16.67.8.67 1.65 0 1.45-1.27 1.92-1.45 2 .21.08.37.57.45.94.07.3.22.43.28.46H13ZM8.34 31.37V30l.66.5V32H4.75L4 31.37h4.34ZM20.34 31.37V30l.66.5V32h-4.25l-.75-.63h4.34ZM37.26 31.32V30l.74.55V32h-7.16l-.84-.68h7.26ZM13.39 31.39V30l.61.58V32h-1.92c-.45 0-.81-.43-1.08-.75.09.1.31.13.41.14h1.98Z" fill="#8A0E04"/><path fill-rule="evenodd" d="M9.94 24H4v1h1v5H4v1h4v-1H7v-2h1.74c.6 0 .95.96 1.25 1.75l.15.4c.26.65.65.84.81.85H13v-1h-.65c-.32 0-.52-.58-.68-1.21-.13-.51-.37-.75-.47-.79h-.35v-.24c1.83-.06 1.9-1.58 1.9-1.9 0-1.52-1.57-1.87-2.8-1.86ZM7 27h3a1 1 0 1 0 0-2H7v2Z" fill="#8A0E04"/><path d="M7.47 25.5v1.1h.68v-.35h2.1c0-.58-.42-.74-.63-.75H7.47ZM7.48 28.28v1.11h.5V29h1.38c-.24-.64-.56-.73-.69-.72H7.48ZM46.26 31.32V30l.74.55V32h-7.16l-.84-.68h7.26ZM26.37 31.37V30l.63.5V32h-3.29l-.71-.63h3.37ZM44.6 29.6v-2.1l.72 1.03v1.07h-.71ZM17.89 26.23l.52.64-.36.35-.9-1h.53v-1.36l.76.65v.72h-.55Z" fill="#8A0E04"/><path d="M17 25h-4l.26 1H14l3 3v1h-1v1h4v-1h-1v-1.41L21.26 26H22v-1h-3v1h.6l-1.43 1.7-1.75-1.7H17v-1ZM34.15 26.26V25l.66 1.13V27h-1.2v2.57H33v-3.31h1.15ZM37.87 27.29l-.43-.88-.47 1.25h.8l.1-.37Z" fill="#8A0E04"/><path d="M36.06 25h2.88L41 30h-1.89l-.45-1.09h-2.6L35.63 30H34l2.06-5Zm.35 3.08h1.9l-.94-2.31-.96 2.3Z" fill="#8A0E04"/><path d="M36.32 29h2.3l.13.52h-2.58l.15-.52ZM52 27.06h-.99V32h-2.28l-.73-.67h2.37v-5.01h1V25l.63.72v1.34Z" fill="#8A0E04"/><path d="M45 25h-3v1h1v4h-4v1h7v-1h-2v-3.7l3.6 4.7H50v-5h1v-1h-4v1h1v2.39L45.4 25H45Z" fill="#8A0E04"/></svg>