<!-- by TradingView --><svg width="56" height="56" viewBox="0 0 56 56" xmlns="http://www.w3.org/2000/svg"><path fill="#480C7A" d="M0 0h56v56H0z"/><path d="M50 22.6c0 .26-.26.4-.48.4-.1 0-.16-.03-.22-.06l-3.15-2.12c-.06-.06-.15-.06-.24-.06a.6.6 0 0 0-.24.06l-4.97 3.12a.6.6 0 0 1-.22.06c-.21 0-.48-.15-.48-.4v-3.2c0-.23.2-.4.42-.4h9.13c.2 0 .45.17.45.4v2.2Z" fill="#FF8204"/><path d="M39.67 26.02c-.89 0-1.65.4-2.17 1.02V23.2c0-.09-.1-.19-.18-.19h-1.14c-.08 0-.18.1-.18.19v9.62c0 .09.1.19.18.19h1.14c.08 0 .18-.1.18-.19v-.86A2.74 2.74 0 0 0 39.67 33 3.36 3.36 0 0 0 43 29.51a3.31 3.31 0 0 0-3.33-3.49Zm-.15 5.48c-1.2 0-2.02-.78-2.02-1.99 0-1.2.82-2.01 2.02-2.01 1.16 0 1.98.78 1.98 2.01 0 1.24-.82 1.99-1.98 1.99ZM21.5 27c.44-.63 1.01-1 1.87-1C25 26 26 27.19 26 29.03v3.78c0 .09-.1.19-.18.19h-1.14c-.09 0-.18-.1-.18-.19v-3.69c0-1.09-.42-1.87-1.46-1.87-.94 0-1.54.81-1.54 2v3.56c0 .09-.1.19-.18.19h-1.14c-.09 0-.18-.1-.18-.19V23.2c0-.09.1-.19.18-.19h1.14c.09 0 .18.1.18.19V27ZM33.85 26H32.7c-.08 0-.18.1-.18.19v.83A2.76 2.76 0 0 0 30.36 26 3.38 3.38 0 0 0 27 29.5c0 2.14 1.62 3.5 3.33 3.5.89 0 1.65-.4 2.17-1.05v.86c0 .09.1.19.18.19h1.14c.08 0 .18-.1.18-.19V26.2c0-.1-.06-.19-.15-.19Zm-3.33 5.5c-1.17 0-2.02-.76-2.02-2s.85-2 2.02-2c1.19 0 1.98.8 1.98 2s-.8 2-1.98 2ZM4 29.53A3.46 3.46 0 0 1 7.48 26 3.52 3.52 0 0 1 11 29.53v.28c0 .09-.1.19-.19.19H5.4c.18 1.05.98 1.73 2.19 1.73.86 0 1.5-.4 1.88-1.05.08-.09.16-.12.28-.07l.86.47c.04 0 .1.09.1.12a.2.2 0 0 1-.04.13A3.39 3.39 0 0 1 7.61 33 3.38 3.38 0 0 1 4 29.53ZM5.45 29h4.04c-.22-.96-.96-1.73-2-1.73-.95 0-1.8.8-2.04 1.73ZM46.24 26h-.98c-.09 0-.13.03-.17.06-.05.04-.09.07-.09.13v6.62c0 .03.04.1.09.13.04.03.08.06.17.06h.98c.05 0 .13-.03.17-.06.05-.04.09-.07.09-.13v-6.62c0-.03-.04-.1-.09-.13-.04-.03-.08-.06-.17-.06ZM52 32.81v-.99c0-.08-.1-.18-.2-.18-.63 0-1.27-.19-1.3-1.24v-2.96h1.3c.1 0 .2-.1.2-.19V26.2c0-.1-.1-.19-.2-.19h-1.3v-1.81c0-.1-.1-.19-.2-.19-.02 0-.05 0-.09.03l-1.08.68A.37.37 0 0 0 49 25V26h-.8c-.1 0-.2.1-.2.19v1.12c0 .1.1.19.2.19h.8v3.09c0 1.6.94 2.41 2.33 2.41h.48c.09 0 .19-.1.19-.19ZM13.5 27c.45-.62 1.02-1 1.89-1 1.66 0 2.64 1.14 2.6 3v3.84c0 .11-.03.16-.14.16h-1.17c-.09 0-.18-.1-.18-.19V29.1c0-1.1-.4-1.83-1.44-1.83-.95 0-1.56.76-1.56 1.96v3.6c0 .02-.03.09-.06.12s-.06.06-.12.06h-1.14c-.03 0-.1-.03-.12-.06-.03-.03-.06-.07-.06-.13V26.2c0-.03.03-.1.06-.13s.06-.06.12-.06h1.14c.03 0 .1.03.12.06.03.03.06.07.06.13V27ZM46.5 24.25a.75.75 0 1 1-1.5 0 .75.75 0 0 1 1.5 0Z" fill="#fff"/></svg>