<!-- by TradingView --><svg xmlns="http://www.w3.org/2000/svg" width="56" height="56" viewBox="0 0 56 56"><path fill="#003497" d="M0 0h56v56H0z"/><path fill-rule="evenodd" d="M9.33 21 4 34h3.54l.9-2.43h4.92l.91 2.43h3.59l-5.31-13H9.33Zm1.64 4.15L9.33 29h3.2l-1.56-3.85ZM22 21h-3v13h3V21Zm21 3h3v1.33A3.3 3.3 0 0 1 48.86 24c2.45.05 3.12 2.4 3.14 3.56V34h-3v-5.19c0-1.63-.94-1.84-1.34-1.81-1.02 0-1.51.86-1.66 1.6V34h-3V24Zm-1 5a5 5 0 1 1-10 0 5 5 0 0 1 10 0Zm-3 0a2 2 0 1 1-4 0 2 2 0 0 1 4 0Zm-7.38 3.42a5 5 0 1 1 .02-6.82l-2.02 2.23a2 2 0 1 0-.01 2.36l2 2.23Z" fill="#fff"/></svg>