<!-- by TradingView --><svg width="56" height="56" xmlns="http://www.w3.org/2000/svg"><path fill="#EF3230" d="M0 0h56v56H0z"/><path d="M4 35h3l4-10 .991 10H15l7.036-10 .032.053S20.539 31.71 20 35h3l3-14h-6l-5 8v-8l-2.214.004L9 21 4 35zm23-9c0 1.184.009 2.392 1.284 3.248.492.15.554.346 2.851.353 1.188 0 2.318-.01 2.365 0 .656.131.716 2.384-.358 2.384l-3.975.018H26L25 35h4.31c5.822 0 7.62.452 7.78-4.3.033-.939.198-2.915-.688-3.608-.91-.924-2.182-.75-3.402-.752 0 0-1.979.074-2.616-.146-.576-.199-.388-2.194.264-2.194H38l1-3-4 .004C30.384 21 27 20.428 27 26zm16.743-5c-.427.062-.91.294-1.268.546a3.407 3.407 0 00-1.084 1.346c-.187.43-.146.283-.642 2.239-.268 1.065-.246.969-.273 1.09-.011.05-.064.262-.116.467a79.894 79.894 0 01-.356 1.417c-.1.387-.207.804-.234.929a11 11 0 01-.091.358c-.02.071-.05.187-.067.255-.019.069-.069.271-.115.452-.047.18-.091.355-.097.39a2.568 2.568 0 01-.038.14c-.023.065-.05.174-.072.295-.006.016-.053.212-.108.436-.116.461-.182.86-.182 1.075 0 .243.08.682.166.915.08.215.262.577.309.614a.9.9 0 01.085.112c.102.156.455.44.753.604.151.084.3.16.33.166.028.006.108.028.177.05.356.108.681.118 3.696.102h3.77c1.9 0 2.608-4.464 2.714-4.995h-2.997c0 .157-.1 1.102-.745 1.957l-.18.043-2.37-.003c-1.495-.003-1.973.05-2.059.003-.275-.152-.058-.792.223-1.873.116-.445.218-.835.223-.866a627.864 627.864 0 01.87-3.432c.244-.96.297-1.399.408-1.564a.99.99 0 01.22-.227l.119-.04h1.812c.901-.007 2.406-.01 2.472 0 .08.015.132.027.184.086.108.122-.113 1.398-.113 1.398s-.07.503-.07.515c0 .016.728 0 .728 0h1.895l.102-.384c.217-.838.278-1.105.278-1.606 0-.589-.074-.938-.298-1.38a1.56 1.56 0 01-.099-.224.042.042 0 00-.022-.038 1.26 1.26 0 01-.124-.168 3.15 3.15 0 00-.59-.638 1.426 1.426 0 01-.146-.125c-.022-.034-.326-.184-.535-.262-.456-.171-.409-.178-3.45-.175h-2.992z" fill="#fff"/></svg>