<!-- by TradingView --><svg width="56" height="56" viewBox="0 0 56 56" xmlns="http://www.w3.org/2000/svg"><path fill="#F0F3FA" d="M0 0h56v56H0z"/><path d="M15 29h26v2H15zM22 34l6 2 6-2h7v-2h-7l-6 1.26L22 32h-7v2h7Z"/><path d="m22 37 6 3 6-3h7v-2h-7l-6 2.44L22 35h-7v2h7Z"/><path d="m22 40 6 6 6-6h7v-2h-7l-6 4.53L22 38h-7v2h7ZM15 27h26v-2H15zM22 22l6-2 6 2h7v2h-7l-6-1.26L22 24h-7v-2h7Z"/><path d="m22 19 6-3 6 3h7v2h-7l-6-2.44L22 21h-7v-2h7Z"/><path d="m22 16 6-6 6 6h7v2h-7l-6-4.53L22 18h-7v-2h7Z"/></svg>