<!-- by TradingView --><svg width="56" height="56" viewBox="0 0 56 56" xmlns="http://www.w3.org/2000/svg"><path fill="#FEF200" d="M0 0h56v56H0z"/><path d="M38.79 9c.69 0 1.25.53 1.25 1.18v35.64c0 .65-.56 1.18-1.25 1.18h-22.5c-.69 0-1.25-.53-1.25-1.18V10.18c0-.65.56-1.18 1.26-1.18h22.49Z" fill="#fff"/><path d="M15.16 14.25h24.88v31.47c0 .26-.04.42-.24.6-.2.19-.39.2-.72.2H15.9a.72.72 0 0 1-.48-.16.65.65 0 0 1-.26-.53V14.25Z" fill="#FFF200"/><path d="M40 13H15.12v2H40v-2Z" fill="#ED1C24"/><path d="M15.85 9.44H39c.37 0 .71.3.71.6V11H15.16V10.1c0-.34.3-.62.69-.65Z" fill="#009A4E"/><path d="M38.74 9c.7 0 1.26.53 1.26 1.18v35.64c0 .65-.56 1.18-1.26 1.18H16.26c-.7 0-1.26-.53-1.26-1.18V10.18c0-.65.56-1.18 1.26-1.18h22.48Zm0 .47H16.26c-.42 0-.76.32-.76.7v35.65c0 .4.34.7.76.7h22.48c.42 0 .76-.3.76-.7V10.18c0-.4-.34-.71-.76-.71Z"/><path d="M27.1 16.28s-.02.14-.05.22c-.03.07-.12.12-.11.17 0 .05.06.11.14.15.09.04.12.08.2.1.09.02.19.07.22 0 .03-.06-.02-.14-.07-.21-.08-.13-.12-.16-.25-.34-.02-.04-.04-.08-.08-.09Z"/><path d="M26.47 30.42c0-.02.2.1.31.15.22.13.31.2.5.34.16.1.23.16.39.29.18.15.28.28.33.25.08-.08-.11-.33-.29-.46-.16-.13-.33-.23-.46-.31l-.44-.3c-.28-.17-.51-.39-.51-.39l-.27-.2-.42-.33-.46-.4-.35-.37-.31-.38-.28-.42-.3-.4c-.1-.1-.32-.06-.58-.2-.32-.19-.4-.35-.4-.35l-.02-.04-.04-.03-.16-.1-.1-.07-.16-.09-.3-.15-.36-.22-.2-.15-.13-.08-.08-.03h-.09s-.07-.02-.14.06-.05.03.06.48c.05.18.04.8.1 1 .06.24.24.55.26.59l.03.17v.18c.06.32.55.11.66.55.11.44-.06.87-.06.87s-.1.22-.26.25c-.15.04-.38-.28-.55-.54-.17-.25-.3-.58-.35-.68-.04-.1-.07-.13-.12-.2-.07-.12-.13-.1-.22-.28-.08-.18 0-.25-.04-.4l-.07-.22c-.03-.13-.07-.52-.07-.52l-.05-.36-.04-.27c-.09-.36-.12-.72-.12-.72l-.01-.14v-.3a.54.54 0 0 1 .06-.13l.1-.16c0-.03.16-.2.16-.2s.09-.07.22-.14c.14-.08.26-.08.26-.08l.28.03c.24.03.73.15.86.18.12.03.27.08.36.13.28.14.36.08.14-.08-.15-.1-.19-.16-.3-.26l-.26-.22a7.28 7.28 0 0 1-.29-.38l-.13-.19-.08-.08-.05-.03-.18-.02c-.1-.01-.13.1-.13.1s-.2.36-.4.57c-.33.35-.56.59-.68.77-.17.26-.13.54-.22.67-.05.07-.08.09-.1.15-.09.2.22.31.15.54-.11.35-1 .7-1.1.64-.13-.06-.03-.54.01-.69.04-.16.17-.39.18-.4a.3.3 0 0 0 .05-.1c0-.05 0-.16.02-.22l.03-.15.08-.17c.07-.16.36-.54.56-.9.14-.22.2-.36.33-.6.12-.21.34-.54.34-.54l.13-.22.22-.3c.08-.12.1-.21.21-.3.1-.09.16-.13.28-.17.17-.05.3-.02.48.02.19.05.32.14.44.23.12.1.21.2.21.2l.06.1.04.01.12.07.26.17.66.42.16.11c.03.01.2-.16.52-.37.37-.25.5-.23.63-.3.12-.06.17-.11.27-.2.15-.14.15-.22.31-.4.17-.2.33-.31.33-.31l.32-.34c.3-.32.42-.56.42-.56l.17-.3s.23-.49.3-.68c.09-.19.09-.25.09-.25s0-.05-.05-.15c-.06-.1-.12-.05-.23-.03-.22.05-.35 0-.57-.04-.2-.03-.3-.1-.5-.12-.2-.04-.33-.07-.53-.05l-.12.03c-.12.03-.15.04-.24.09a.63.63 0 0 1-.27.06c-.07 0-.12 0-.2-.02a.32.32 0 0 1-.16-.13l.01-.05c.02-.03.05-.04.05-.04l.1-.02.14-.03.19-.06.11-.05s.04-.05.03-.08c-.02-.03-.1-.04-.1-.04l-.11.04-.18.06-.23.05-.25.03-.04-.01s-.05-.03-.06-.07a.99.99 0 0 1-.02-.08c-.02-.12-.05-.2-.02-.32a.73.73 0 0 1 .1-.22l.09-.13.15-.2a.6.6 0 0 1 .15-.12c.1-.05.16-.06.28-.08.12 0 .13 0 .3-.04.17-.04.29-.1.29-.1s.4-.14.65-.26c.26-.12.37-.25.63-.34l.3-.1.03-.03c0-.04-.06-.06-.1-.05-.04 0-.14.04-.16 0-.01-.04.09-.06.09-.06s.05-.02.05-.04c0-.04-.07-.01-.1-.02-.16-.01-.17-.04-.28-.07-.13-.03-.2-.06-.33-.07-.12 0-.23.02-.3.04-.07.01-.07-.05-.05-.07.21-.09.21-.1.36-.1l.2.02c.01 0 .17 0 .21-.04.04-.04-.13-.04-.2-.07-.08-.03-.2-.04-.2-.08 0-.05.06-.02.1-.03l.13-.02.24-.03c.13-.01.32.04.32.04l.3.13c.1.05.22.07.22.07s.14.02.25-.05c.1-.06.04-.1 0-.16-.03-.05-.08-.13 0-.28.05-.13.08-.28.1-.3.02-.01.1.1.16.15.2.18.46.26.7.63.03.03.12-.02.4.02.29.04.54.33.6.4.07.07.15.07.15.07l.14.01.5.01s.22-.04.35.01c.1.03.4.23.26.3-.1.05-.2-.06-.28-.07-.1 0-.15.01-.24.04-.2.04-.6.16-.46.2l.04.02h.07l.3.09c.16.06.24.13.39.21.09.05.13.1.22.13.09.02.15 0 .24.01.11.02.18.04.29.1.16.07.22.15.36.25.07.05.13.06.19.13l.02.04c.02.06-.1.02-.17.01s-.1-.04-.17-.07c-.1-.05-.14-.1-.25-.12h-.21l-.2.02c-.13 0-.2 0-.34-.03-.15-.03-.22-.09-.37-.12-.16-.03-.45-.16-.43-.03.02.06.17.12.17.12l.21.1c.1.04.16.1.16.1l.07.05s.07.1.17.2c.09.1.25.1.25.1s.1 0 .31.04c.22.04.44.17.44.17s.16.1.26.21c.1.11.04.17.03.18h-.03l-.13-.13-.08-.07s-.08-.05-.2-.08c-.1-.04-.14-.02-.14-.02s-.22.07-.42.06c-.2 0-.3-.08-.3-.08l-.13-.08s-.19-.17-.2-.09a7.04 7.04 0 0 0 .18.2l.2.19c.09.07.14.07.14.07a2.7 2.7 0 0 0 .12.03l.17.06c.13.06.28.17.28.17l.03.01.07.03.13.01c.08.01.05.06.05.06l-.01.02-.07.04-.14.02a.44.44 0 0 1-.14-.02l-.18-.07-.22-.05a8.16 8.16 0 0 1-.35-.08l-.15-.07c-.1-.04-.14-.1-.26-.13s-.2-.04-.28.02c-.16.1.23.12.43.2.28.14.44.24.51.38.07.15.14.2.14.2s.2.1.29.2c.05.05.05.1.1.15.11.12.33.11.37.22.04.1-.17.05-.28.04-.2-.02-.25-.2-.44-.26-.1-.04-.17-.04-.28-.08-.2-.06-.29-.14-.49-.2-.11-.03-.33-.18-.3-.06l.03.06c0 .02.06.08.06.08s.06.08.1.1c.02.03.15.12.33.21.18.1.34.27.34.27l.08.13c.02.06 0 .07.05.15.04.08.06.1.11.15.13.12.27.1.44.16.05.02.05.02.1.07s-.01.07-.01.07-.19.05-.3.04c-.17-.01-.24-.06-.39-.13-.16-.07-.24-.2-.25-.2l-.08-.07-.17-.06-.18-.04-.23-.07c-.05-.02-.15-.03-.22 0-.15.09.23.14.34.26l.14.16c.05.05.06.09.12.12a4.05 4.05 0 0 0 .32.16c.13.07.29.27.29.27l.09.13.05.08.02.03.02.05s.07.08.12.1c.04.04.04.06.04.06l-.04.04c-.04.02-.06 0-.1-.01-.06-.02-.09-.06-.13-.1-.05-.03-.1-.11-.17-.16-.07-.04-.17-.05-.2-.06l-.16-.08a4.95 4.95 0 0 1-.12-.05s-.18-.1-.28-.12c-.1-.03-.03.03-.03.03s.09.13.17.18c.1.06.26.12.2.18-.03.03-.07.02-.12.02-.08-.01-.18-.1-.18-.1s-.04-.03-.22-.08c-.18-.06-.11.03-.07.09l.1.07.12.05.05.02s.05 0 .22.05c.16.03.25.1.25.1l.2.17c.13.08.25.1.32.11.07.01.06.06.06.06v.05c0 .02 0 .03-.02.03l-.04.01a.58.58 0 0 1-.09.02s-.18 0-.32-.04c-.15-.03-.27-.13-.29-.13 0 0-.14-.08-.23-.1a.64.64 0 0 0-.25-.01c-.01 0-.06 0-.15.03-.08.02.02.05.02.05l.07.01.14.01s.15.02.28.06c.13.05.2.13.3.21.08.08.17.14.17.14l.07.04.03.02.01.02v.03l-.03.02h-.05l-.18-.08c-.07-.03-.11-.06-.19-.08a.6.6 0 0 0-.18-.01 2.94 2.94 0 0 1-.63.02c-.2-.02-.45-.16-.48-.12-.07.08.14.1.24.16.13.07.36.14.36.14s.18.04.28.08c.21.1.28.24.46.4.1.07.17.11.3.13.11.01.11 0 .29-.03s.29-.2.34-.14v.04l-.02.05-.05.06c-.03.03-.15.09-.22.12-.06.02-.22.06-.42.06-.2 0-.47-.15-.47-.15l-.2-.08-.16-.07c-.16-.06-.27-.05-.44-.1l-.27-.07c-.1-.02-.04.02-.03.03.04.06.1.08.18.11.1.05.17.04.27.08.12.05.22.1.28.15.07.04.11.08.18.14l.2.17s.06.04.06.06c0 .01.03.05.02.12-.01.07-.07.02-.07.02l-.05-.03-.06-.05-.09-.07s-.08-.07-.2-.13c-.14-.07-.3-.08-.3-.08s-.13-.02-.13.02.04.05.15.07c.11.03.18.08.18.08s.12.08.2.17c.08.09.1.17.1.17s.04.08.15.17c.1.1.16.07.15.11 0 .05-.05.06-.05.06h-.04l-.06-.03a1.5 1.5 0 0 1-.14-.08l-.2-.15-.18-.13-.16-.09a.83.83 0 0 0-.37-.1l-.19-.04c-.1-.05-.24-.16-.25-.16a.7.7 0 0 0-.14-.04c-.02 0-.07.19-.08.3-.05.44.08.74.27 1.15.29.6 1.07 1.34 1.07 1.34s.2.1.28.17c.24.17.63.42.97.75.3.27.69.77.69.77s.22.3.33.51a4.25 4.25 0 0 1 .25.74l.04.03h.14s.17 0 .27-.03c.1-.02.34-.13.5-.2.16-.09.36-.24.36-.24l.22-.23c.19-.2.31-.5.36-.6.04-.12.08-.33.1-.7.03-.37-.02-.75-.02-.75s-.07-.55-.11-.73c-.04-.18-.15-.48-.15-.48l-.1-.44a4.5 4.5 0 0 1-.02-.44s0-.17.06-.48c.06-.3.26-.62.26-.62s.05-.1.27-.35c.22-.25.3-.29.51-.44.17-.12.4-.3.47-.26.08.05-.08.14-.13.2-.14.12-.4.34-.6.68-.18.3-.25.5-.3.69-.04.19-.02.4-.01.47 0 .07.05.05.05.05s.43-.34.67-.59c.26-.27.49-.76.58-.76.06 0 .09.13.07.19-.05.25-.07.28-.16.45-.1.19-.2.27-.33.45-.14.19-.21.26-.33.5-.17.35-.07.63-.07.63s.02.16.1.16c.13 0 .42-.35.61-.63.14-.21.19-.45.28-.57.08-.12.16.18.12.35-.04.2-.15.39-.38.68-.23.28-.22.55-.22.55s-.03.12-.05.4c-.02.26.07.66.07.66s.07.34.08.6c.02.26 0 .84-.25 1.3-.1.18-.32.44-.32.44s-.16.16-.3.26c-.14.09-.47.24-.47.24l-.26.08c-.03 0-.05.03-.05.03l.03.06.07.17s.07.2.1.38c.02.16 0 .2-.03.33-.03.12-.08.06-.1.3-.01.22.09.32.07.56 0 .1-.13-.13-.2-.23-.12-.22-.09-.55-.1-.63a1.04 1.04 0 0 0-.2-.6c-.07-.09-.14-.14-.16-.13-.02.01-.03.05-.03.08l.06.11.1.17a1.5 1.5 0 0 0 0 .82s-.1.3-.2.48c-.1.2-.34.46-.34.46s-.18.15-.3.4c-.13.24-.02.35-.07.38-.05.03-.15-.14-.18-.26-.02-.1-.01-.16.04-.28.04-.12.14-.29.14-.29l.16-.24s.18-.34.24-.58c.06-.25 0-.52 0-.52s-.02-.09-.08-.08c-.06 0-.11.05-.14.12-.05.13.03.1-.06.33-.06.18-.08.15-.11.26a1.1 1.1 0 0 0-.06.33c0 .08-.04.04-.04.04s-.08-.14-.08-.3c0-.1 0-.15.02-.25.01-.15.08-.38.08-.38s.07-.22.05-.43c-.01-.2-.09-.25-.09-.25s-.02-.03-.1-.02c-.09 0-.08.15-.08.15l-.06.33c-.1.35-.22.54-.44.84-.2.26-.47.5-.6.61l-.56.4-.49.3s-.19.19-.28.4a.8.8 0 0 0-.03.57c.05.2.13.29.16.34.04.06.12.15.14.26.02.07 0 .11.01.18 0 .07.02.1.01.16 0 .1.02.17-.04.25-.04.06-.16.11-.16.11l-.21.1c-.83.48-1.12.79-1.6 1.31-.14.17-.03.16-.19.36-.1.12-.32.12-.4.26-.1.2.25.39-.17.56-.54.22-1.47.06-1.49 0-.05-.2.19-.41.27-.5.38-.4.72-.4.84-.73.03-.07.02-.13.32-.34.21-.14 1.06-.75 1.43-1.15.12-.14.23-.23.29-.38.05-.15-.06-.24-.06-.24l-.15-.24-.3-.5-.18-.4a7.6 7.6 0 0 1-.2-.56s-.09-.37-.1-.6c-.03-.43.03-.68.15-1.1.15-.54.5-.76.64-1.3.04-.15.05-.42-.03-.4-.08 0-.09.22-.15.36-.22.53-.52.76-.68 1.31-.11.37-.16.6-.16.98 0 .22 0 .18.06.56.02.14.06.21.1.35l.11.28s.12.24.16.41c.01.06.03.1.02.15 0 .1.02.13-.04.22-.06.11-.02.18-.23.22-.18.04-.55-.08-.55-.08s-1.53-.44-2.5-.31c-.2.02-.3.1-.5.09-.17 0-.26-.13-.44-.08-.03 0-.05.03-.08.05-.26.17-.06.45-.74.3-.42-.08-.92-.33-.84-.48.12-.2.28-.23.61-.36.35-.14.88-.1.99-.1.12-.02.3-.1.54-.1.39-.01.46.03.46.03l.67.06 1.28.01s.23-.01.32-.03c.1-.02.17-.19.22-.27.05-.08 0-.2 0-.2l-.04-.06-.13-.18-.22-.36-.25-.47-.25-.55c-.09-.21-.14-.34-.2-.56a2.8 2.8 0 0 1-.1-.6c-.01-.26-.03-.46.05-.68Z"/><path d="M34.79 29.98c.27-.33.3-.63.3-1.06.02-.31-.1-.8-.1-.8l-.02-.03s-.05-.06-.08.02c0 .07.02.12.02.12l.01.62s-.02.31-.13.63c-.19.55-.7.79-.76.98-.13.33.43-.08.76-.48ZM31.96 30.98s-.11.03-.11.13l.02.32c0 .16-.15.34-.06.4.17.1.32-.61.27-.72-.05-.1-.1-.13-.12-.13ZM30.06 35.97s-.03-.02-.1 0c-.06.03-.05.09-.05.09s-.01.06.04.07c.04 0 .13-.1.13-.12l-.02-.04ZM28.27 37.17s-.02.02 0 .03c.01.02.04 0 .04 0l.49-.39c.19-.17.47-.47.47-.47s.02-.02 0-.04c-.03-.02-.08.01-.12.03l-.1.06-.11.11-.24.22-.15.14-.15.13-.06.07-.02.03-.02.02-.02.03v.02l-.01.01ZM27.73 37.5s-.03-.02-.08 0c-.06.03-.11.1-.12.1 0 .02-.03.05-.01.09.02.03.09-.02.1-.02l.1-.07s.04-.03.01-.1ZM26.71 38.49s-.04-.08-.1-.05c-.06.03-.09.05-.14.11l-.08.1c0 .02-.07.12.05.13.2.01.07-.1.14-.16.05-.03.15-.02.16-.06 0-.04-.03-.07-.03-.07ZM23.2 34.57s-.11.03-.12.06c-.01.04.07.08.08.08.01 0 .04.04.12-.01.08-.05.07-.1.07-.1s.05-.05-.14-.03ZM26.96 34.56h-.64l-.6-.07s-.05-.01-.07.01c-.01.03.05.1.1.1.3.1.32.08.53.09l.29-.02c.14-.01.2.01.36-.03.04 0 .08-.08.03-.08ZM27.98 34.27s-.03-.03-.1 0c-.06.02-.1.09-.1.09s-.02.04.04.04c.06-.01.12-.04.13-.05.02 0 .06-.04.03-.08ZM27.09 22.6s.43-.39.74-.9c.19-.3.27-1 .1-.83-.06.08-.15.45-.29.72-.2.38-.61.93-.61.93s-.09.18.06.08ZM25.36 23.57s-.05.04-.03.1c.02.05.11 0 .11 0s.2-.07.41-.07c.21-.01.5.05.5.05l.17.04.1.05c.02 0 .1.04.13 0 .04-.03-.25-.28-.55-.32-.5-.07-.83.14-.83.14l-.01.01ZM23.3 25.24c.03.03.2-.27.34-.46l.29-.38s.08-.1-.06-.04a.83.83 0 0 0-.33.35c-.1.18-.28.5-.24.53ZM22.15 23.93s-.04.12.1.26c.15.15.18.27.28.18.02-.02-.1-.22-.15-.27l-.1-.1-.04-.03-.05-.03h-.04ZM21.68 22.81s-.16.03-.2.1c-.04.08.18.03.18.03s.15.01.15-.04c0-.06-.02-.06-.13-.09ZM19.2 26.7c-.08-.01-.1.14-.1.18-.02.05.03.15.05.15.02 0 .08-.1.08-.14 0-.05.04-.16-.03-.18ZM21.77 29.6s-.14-.1-.16-.05c-.02.04.12.23.12.23s.04.06.1.03c.07-.03.05-.1.05-.1s-.05-.09-.1-.1ZM20.7 26.47s-.04 0-.05.04c-.02.04-.01.1-.02.19-.01.06.01.23.01.23s.02.14.05.22l.1.21s.04.06.08.06.03-.05.03-.05l-.13-.49-.01-.33v-.03s0-.05-.06-.05ZM20.88 25.1s-.06 0-.12.11c-.06.12-.05.17-.05.18 0 0 .06 0 .13-.11.08-.11.06-.16.06-.16s0-.02-.02-.02ZM22.7 26.34s.07.12-.08.09c-.15-.03-.47-.26-.6-.33-.13-.06-.34-.08-.25-.16l.04-.03a16.47 16.47 0 0 0 .36.13l.22.1.24.15.06.05ZM26.9 29.78c.05.12-.47-.26-.75-.46-.74-.54-1.65-1.65-1.54-1.75.1-.08.47.43 1.01.99.58.6 1.26 1.15 1.28 1.22ZM29.08 29.25c-.16.16-.22.37-.13.53.1.15.12-.22.22-.33.1-.1.15-.08.29-.18.24-.16-.18-.23-.38-.02ZM28.15 25.76c-.1-.02-.1.14-.09.26.08.5.32.9.64 1.26.2.23.73.63.8.56.01-.02-.52-.41-.86-.91a2.1 2.1 0 0 1-.4-.95c0-.04 0-.2-.09-.22ZM26.08 18.24c-.24.12-.66.23-.66.23s-.02.04.03.04c.36-.03.5-.07.7-.15.18-.08.32-.3.32-.3s.08-.13-.07-.02l-.32.2ZM29 17.37s-.09-.02-.14.01c-.06.03-.04.06-.04.06s.08.06.14.07c.06.01.2.07.19.02 0-.04-.08-.12-.1-.14l-.06-.02ZM27.62 19.75c.02.03.26-.04.35-.09.08-.04.1-.17.1-.17s.03-.13 0-.08c-.14.22-.46.31-.45.34ZM27.61 19.15c.1-.18-.27.2-.46.29l-.3.13s-.05.06.02.05c.07 0 .25.05.39-.05.03-.02.18-.23.18-.23s.13-.1.17-.19ZM20.89 23.52s-.06-.02-.14.09c-.08.11-.43.61-.37.69.08.08.38-.45.47-.55.1-.1.06-.2.06-.2s0-.03-.02-.03ZM28.5 32.58c-.04.17 0 .51.07.58.15.17.05-.27.08-.42a.86.86 0 0 1 .1-.34c.14-.27-.17-.17-.25.18ZM27.23 18.06s-.12 0-.2.05c-.1.04-.12.11-.12.11s-.02.05 0 .07c.02.06.14-.02.23 0 .07.03.1.05.16.1.04.06.13.14.18.1.05-.05.03-.16.03-.16s-.06-.17-.14-.22c-.08-.06-.14-.05-.14-.05ZM24.38 18.91s-.07 0-.12.09l-.08.16s-.02.11.02.14c.04.04.09-.07.14-.1l.1-.06c.05-.04.13 0 .12-.1 0-.09-.11-.13-.18-.13ZM27.4 17.88s-.16-.02-.16.04c.01.05.09.02.14.04.05.02.09.03.13.07.03.02.02.07.06.07.05 0 .04-.02.04-.02s-.05-.13-.1-.16c-.07-.04-.11-.04-.11-.04ZM29.17 18.49c-.02.08-.04.1-.04.1s-.04.17.14.11c.17-.06.08-.03.21-.1.13-.05.12-.02.22-.01l.1-.01c.04 0 .02-.05-.07-.08-.1-.02-.22-.01-.35-.02-.08 0-.19-.07-.21 0ZM29.25 17.87s-.08-.02-.14.02c-.05.03-.04.06-.04.06s.09.06.15.07c.06 0 .2.06.19.02-.01-.04-.08-.12-.1-.14l-.06-.03ZM29.56 19.03s-.09-.02-.15.01c-.05.03-.04.06-.04.06s.1.06.16.07c.06 0 .2.06.2.02 0-.04-.09-.12-.11-.14l-.06-.02ZM29.59 19.45s-.1-.02-.16.01c-.06.04-.04.07-.04.07s.1.07.16.08c.07 0 .22.06.21.02 0-.05-.08-.13-.11-.15a.14.14 0 0 0-.06-.03ZM29.63 19.86s-.1-.03-.17.01-.05.08-.05.08.1.07.18.09c.08 0 .24.07.23.02 0-.05-.1-.14-.13-.17a.15.15 0 0 0-.06-.03ZM29.62 20.36s-.1-.02-.17.02-.05.07-.05.07.1.08.18.1c.08 0 .24.07.23.02 0-.05-.1-.15-.13-.17a.18.18 0 0 0-.06-.04ZM29.55 21.35s-.1-.02-.17.02-.05.07-.05.07.1.08.18.09c.07 0 .24.07.23.02 0-.05-.1-.14-.13-.17s-.06-.03-.06-.03ZM29.61 20.85s-.11-.02-.2.03c-.07.04-.04.08-.04.08s.12.09.2.1c.09.01.27.09.27.03-.01-.06-.12-.17-.15-.2l-.08-.04ZM29.5 21.8s-.09-.03-.14 0c-.06.04-.04.07-.04.07s.09.06.15.07c.06 0 .19.06.19.02-.01-.04-.08-.12-.11-.14l-.05-.03ZM29.42 22.22s-.07-.02-.12.01c-.04.03-.03.05-.03.05s.07.05.12.06c.06 0 .17.05.16.02 0-.04-.07-.1-.09-.12a.12.12 0 0 0-.04-.02ZM29.32 22.6s-.06 0-.1.02c-.04.02-.03.04-.03.04s.06.05.11.06c.05 0 .15.05.14.01 0-.03-.06-.09-.08-.1l-.04-.02ZM29.23 22.93s-.07-.02-.1 0c-.05.03-.04.05-.04.05s.07.05.11.06c.05 0 .15.05.14.01 0-.03-.05-.09-.07-.1l-.04-.02ZM28.97 23.64l-.07.01c-.03.02-.02.03-.02.03s.04.04.07.04c.03 0 .1.03.1.01 0-.02-.04-.06-.05-.07a.08.08 0 0 0-.03-.02ZM28.82 23.97l-.07.01c-.03.02-.02.03-.02.03s.04.04.08.04c.03 0 .1.03.1.01 0-.02-.05-.06-.06-.07a.08.08 0 0 0-.03-.02ZM19.42 25.65s-.07.13-.04.2c.04.08.14-.11.14-.11s.1-.2.06-.23c-.04-.03-.07.07-.16.14Z" fill="#fff"/><path d="M29.64 43v-.3c0-.6.32-.7 1.23-.71.85 0 1.13.1 1.13.6v1.96h.32V45h-2.05c-.44 0-.72-.29-.72-.63v-.4c0-.34.18-.64.83-.64h.8v-.6c0-.3-.02-.35-.35-.35-.4 0-.42.05-.42.35V43h-.77Zm.96.65c-.16 0-.26.13-.26.28v.38c0 .15.07.27.26.27h.29c.16 0 .29-.04.29-.27v-.66H30.6ZM36.84 44.55v-2.5h-1.17v.4h.32v2.1h-.32v.44h1.48v-.44h-.31ZM24.85 42.69V42H23.7v.41h.3v2.15h-.3V45h1.44v-.44h-.3v-1.17c0-.1.57-.92.57-.82v1.12h.8v-1.26c0-.3-.2-.48-.57-.48-.43 0-.6.52-.8.74ZM27.85 42.69V42H26.7v.41h.3v2.15h-.3V45h1.44v-.44h-.29v-1.17c0-.1.56-.92.56-.82v1.12h.8v-1.26c0-.3-.2-.48-.56-.48-.43 0-.61.52-.8.74ZM23.02 44h-.8v.25c0 .3-.06.31-.45.32-.46 0-.43-.05-.43-.32v-.53h1.68v-1.14c0-.4-.33-.58-1.2-.59h-.12c-.94 0-1.19.21-1.19.72v1.67c0 .56.35.66 1.2.68h.1c.93-.02 1.21-.08 1.21-.6V44Zm-1.67-1.37c0-.16.05-.24.24-.24h.35c.15 0 .23.06.23.17v.86h-.82v-.8ZM36.84 40.46v.62h-.86v-.62h.86ZM33.85 42.72V42H32.7v.45h.3v2.1h-.3V45h1.44v-.45h-.3v-1.13c0-.1.68-.91.68-.82v1.12h.8v-1.26c0-.29-.2-.47-.56-.47-.43 0-.72.51-.91.73Z"/><path d="M19.48 43.76v-.43H19v1.32h.68v.45h-2.27v-.45h.6V41h-.47v-.54h17.7V41H19v1.85h.48v-.53H20v1.44h-.52Z"/></svg>