<!-- by TradingView --><svg width="56" height="56" viewBox="0 0 56 56" xmlns="http://www.w3.org/2000/svg"><path fill="url(#a)" d="M0 0h56v56H0z"/><path d="M17 32.64v-1.1c.17-2.8 1.05-4.79 2.32-7.6a8.88 8.88 0 0 0 .54-6.29.11.11 0 0 1 .07-.08l.05-.01c2.14.12 4.13 1.7 4.07 4.06 0 .03 0 .05.02.08l.06.05a.14.14 0 0 0 .15-.02c3.24-2.8 3.2-8.8 2.25-12.56a.14.14 0 0 1 .06-.15.13.13 0 0 1 .16.02c4.53 4.43 6.56 9.87 6.1 16.33 0 .02 0 .03.02.04a.06.06 0 0 0 .07.02l.02-.03c.73-1.62 1.52-3.65 3.54-3.84a.12.12 0 0 1 .1.04.13.13 0 0 1 .03.12 5.27 5.27 0 0 0 .39 4.08c.5.94.86 1.66 1.07 2.16.62 1.42.92 3 .91 4.74a10.56 10.56 0 0 1-2.73 7.2.07.07 0 0 0 .02.07l.04.03h1.46c.11 0 .21.09.21.2v2.58c0 .06-.02.12-.06.16a.2.2 0 0 1-.15.06h-5.8l-.01-.02a.04.04 0 0 1 0-.04c.9-1.2 1.5-2.61 1.77-4.23a7.8 7.8 0 0 0-2.22-7.2.12.12 0 0 0-.15.08 18.52 18.52 0 0 1-3 4.98.12.12 0 0 1-.09 0 .11.11 0 0 1-.04-.03c-2.12-2.56-2.3-5.42-1.7-8.65 0-.02 0-.05-.02-.08a.13.13 0 0 0-.05-.06.13.13 0 0 0-.15 0c-1.19.9-2.17 2.01-2.94 3.33-2.17 3.7-2.05 8.7 1.1 11.82l.01.03v.03a.06.06 0 0 1-.06.04H18.2a.2.2 0 0 1-.14-.06.2.2 0 0 1-.06-.15v-2.62c0-.05.02-.1.05-.13.03-.03.08-.04.13-.04h1.51c.06 0 .08-.08.05-.12A11.68 11.68 0 0 1 17 32.64Z" fill="#F26B33"/><defs><linearGradient id="a" x1="10.42" y1="9.71" x2="68.15" y2="76.02" gradientUnits="userSpaceOnUse"><stop stop-color="#1A1E21"/><stop offset="1" stop-color="#06060A"/></linearGradient></defs></svg>