<!-- by TradingView --><svg width="56" height="56" viewBox="0 0 56 56" xmlns="http://www.w3.org/2000/svg"><path fill="#F0F3FA" d="M0 0h56v56H0z"/><path d="M19.57 22c3.65 0 5.48 1.24 5.48 3.72 0 1.67-1.23 2.78-2.76 3.18v.04c1.26.4 1.85 1.56 2.34 2.7L26 35h-4.4l-1.05-2.8c-.43-1.11-1.14-1.71-2.37-1.71H17V35h-4V22h6.57ZM17 28h1.9c1.4 0 2.1-.54 2.1-1.6 0-1.22-1.19-1.4-2.2-1.4H17v3Z"/><path d="M42.2 22c.54 0 .8.22.8.66v11.69c0 .43-.26.65-.8.65-.53 0-.7-.22-.7-.65V29h-8v5.35c0 .43-.18.65-.7.65-.54 0-.8-.22-.8-.65V22.66c0-.44.26-.66.8-.66.52 0 .7.22.7.66V28h8v-5.34c0-.44.17-.66.7-.66ZM28 9h1v38h-1z" fill="#989897"/></svg>