<!-- by TradingView --><svg xmlns="http://www.w3.org/2000/svg" width="56" height="56" viewBox="0 0 56 56"><path fill="url(#atpahyrtf)" d="M0 0h56v56H0z"/><path d="M8.3 22.41a5.38 5.38 0 0 0-2.9 2.92c-.27.67-.4 1.39-.4 2.18a5.5 5.5 0 0 0 1.58 3.91A5.38 5.38 0 0 0 10.5 33a5.5 5.5 0 0 0 3.92-1.58A5.35 5.35 0 0 0 16 27.51a5.56 5.56 0 0 0-1.58-3.93A5.38 5.38 0 0 0 10.49 22c-.77 0-1.5.13-2.18.41Zm5.45 5.09c0 1.93-1.46 3.5-3.25 3.5-1.8 0-3.25-1.57-3.25-3.5S8.71 24 10.5 24c1.8 0 3.25 1.57 3.25 3.5ZM40 22h-7v11h2v-4h4v-2h-4v-3h5v-2Zm3 4h-2v7h2v-7Zm-15.99 4.88v-1.93c0-.88.45-1.63 1.42-1.63.98 0 1.57.9 1.57 1.84 0 1.04-.74 2-1.82 2a1.9 1.9 0 0 1-1.17-.28Zm0-4.54-.08-.79H25V36h2v-3.27c.46.15.87.27 1.37.27 2.2 0 3.63-1.89 3.63-4 0-1.85-1.02-3.59-3.05-3.59-.8.03-1.45.31-1.94.93Zm-8 2.61v1.93c.3.19.62.28 1.17.27 1.08 0 1.82-.95 1.82-2 0-.93-.6-1.83-1.57-1.83-.97 0-1.42.75-1.42 1.63Zm-.08-3.4.08.8c.5-.63 1.15-.91 1.94-.94 2.03 0 3.05 1.74 3.05 3.59 0 2.11-1.42 4-3.63 4-.5 0-.9-.12-1.37-.27V36h-2V25.55h1.93Zm22.54-3.14c.65-.3 1.38-.01 1.69.66a1.27 1.27 0 0 1-2.32 1.03c-.28-.66-.02-1.4.63-1.7Zm5.87.66a1.25 1.25 0 0 0-1.68-.66c-.66.3-.93 1.03-.63 1.7a1.27 1.27 0 0 0 2.31-1.04Zm1.96-.61a1.18 1.18 0 0 1 1.6.63 1.2 1.2 0 0 1-2.2.98 1.2 1.2 0 0 1 .6-1.61Z" fill="#fff"/><defs><linearGradient id="atpahyrtf" x1="56" y1="28" x2="0" y2="28" gradientUnits="userSpaceOnUse"><stop stop-color="#006DFF"/><stop offset="1" stop-color="#052A9B"/></linearGradient></defs></svg>