<!-- by TradingView --><svg width="56" height="56" viewBox="0 0 56 56" xmlns="http://www.w3.org/2000/svg"><path fill="#F0F3FA" d="M0 0h56v56H0z"/><path d="M44 26.2V32l-7.5-.5h-11L14 34v-7.8c0-.11.09-.2.2-.2h2.6c.11 0 .2.09.2.2v4.6c0 .11.09.2.2.2h.6a.2.2 0 0 0 .2-.2v-6.2a.2.2 0 0 1 .08-.16l1.6-1.2a.2.2 0 0 1 .32.16v1.5c0 .06.03.12.09.16l1.32.88c.06.04.09.1.09.17v3.69c0 .11.09.2.2.2h.1a.2.2 0 0 0 .2-.2v-5.6c0-.11.09-.2.2-.2h.6a.2.2 0 0 0 .2-.2v-.6c0-.11.09-.2.2-.2h.6c.11 0 .2.09.2.2v3.6c0 .11.09.2.2.2h.6a.2.2 0 0 0 .2-.2v-6.6c0-.11.09-.2.2-.2h.6c.11 0 .2.09.2.2v4.1c0 .11.09.2.2.2h.6a.2.2 0 0 0 .2-.2v-.1c0-.11.09-.2.2-.2h.6c.11 0 .2.09.2.2V30h1V16.2c0-.11.09-.2.2-.2h1.6c.11 0 .2.09.2.2V30h.5v-8.93a.2.2 0 0 1 .04-.12l1.4-1.87a.2.2 0 0 1 .16-.08h.7c.11 0 .2.09.2.2V30h1v-5.8c0-.11.09-.2.2-.2h1.6c.11 0 .2.09.2.2V30h.5v-7.8c0-.11.09-.2.2-.2h1.1c.11 0 .2.09.2.2v5.6c0 .11.09.2.2.2h.1a.2.2 0 0 0 .2-.2v-1.6c0-.11.09-.2.2-.2h.1a.2.2 0 0 0 .2-.2v-1.6c0-.11.09-.2.2-.2h1.6c.11 0 .2.09.2.2V31h1v-4.8c0-.11.09-.2.2-.2h.6c.11 0 .2.09.2.2Z" fill="#00498F"/><path d="M36 29c-12 0-26.33 5.17-32 8 7.83-1.67 21-4 32-4 8 0 14.17 1.67 16 3-3.5-3-6.5-7-16-7Z" fill="#00843E"/></svg>