<!-- by TradingView --><svg xmlns="http://www.w3.org/2000/svg" width="56" height="56" viewBox="0 0 56 56"><path fill="#EBE2D9" d="M0 0h56v56H0z"/><path d="M40.53 31.14c0-.6.36-1 1.07-1 .82 0 1.06.3 1.35 1.51.1.42.34.67.99.67.87 0 1.35-.48 1.35-1.2 0-.63-.63-1.14-1.85-1.93-1.34-.84-2.07-1.64-2.07-2.82 0-1.82 1.98-2.91 3.8-2.91 2.05 0 2.83.89 2.83 1.73 0 .56-.36.86-.97.86-.78 0-1.02-.31-1.27-1.26-.12-.47-.36-.66-.83-.66-.73 0-1.23.38-1.23 1.08 0 .67.65 1.08 2.07 2 1.34.8 1.93 1.68 1.93 2.71 0 1.7-1.8 3.08-4.04 3.08-2.23-.03-3.13-.96-3.13-1.86z" fill-opacity=".88"/><path d="M9 21.4c-.06-.34-.27-.36-.78-.5-.18-.04-.22-.17-.22-.3 0-.2.02-.21.57-.32 1.07-.26 2.15-.63 3.02-1.15.18-.13.22-.13.26-.13.15 0 .15.17.15.4v5.16c0 .4.03.28.28.05a4.1 4.1 0 0 1 2.8-1.13c.83 0 1.59.26 2.15.88.5.53.77 1.3.77 2.17v5c0 .62.3.83.92.83.33 0 .46-.05.46-.05.6-.18.62-.34.62-1.31-.01-1.63.08-3.42 0-5-.06-.33-.25-.47-.76-.6-.18-.04-.22-.17-.22-.31 0-.18.02-.2.57-.32a9.42 9.42 0 0 0 2.84-1.14c.17-.13.21-.13.25-.13.15 0 .32.17.32.4v7.18c0 .88-.1 1.04.53 1.21-.07.03.58.06.75 0 .73-.18.72-.39.72-1.29v-4.78c-.02-.68-.09-.69-.96-.84-.22-.04-.24-.15-.24-.3 0-.22.1-.24.42-.3.77-.18 1.96-.5 3-1.11.34-.2.55-.2.6-.2.13 0 .18.15.18.26v.8c0 .28.12.16.32-.04a3.9 3.9 0 0 1 2.83-1.04c.92 0 1.65.3 2.19 1.04.27.38.3.4.36.4.04 0 .07 0 .41-.32a4.82 4.82 0 0 1 3.06-1.14c2.35 0 2.83 2.47 2.83 4.31v3.73c0 .31-.04.62.54.77.22.06.35.1.35.35 0 .18-.04.39-.3.41H36.53c-.17 0-.4-.14-.4-.46 0-.18.1-.22.3-.28.37-.11.57-.17.57-1.08v-5.04c-.02-.31-.1-1.42-1.34-1.42-.37 0-1.66.29-1.66 1.33v5.37c0 .55.01.68.6.82.2.06.32.1.32.3 0 .32-.16.46-.65.46h-3.7c-.25 0-.45-.12-.45-.42 0-.18.07-.22.26-.28.66-.2.62-.46.62-1.3 0-.89.09-4.53 0-5.13-.13-.77-.82-1.01-1.3-1.01-.63 0-1.52.44-1.7.92v5.8c.04.5.33.62.72.71.18.06.27.07.27.3 0 .3-.23.41-.5.41H14.18c-.15-.02-.2-.26-.2-.4 0-.18.09-.24.25-.28.68-.17.75-.87.78-1.5.02-1.83 0-1.87 0-3.93 0-.8-.11-2.1-1.49-2.1-.63 0-1.08.38-1.23.53-.35.34-.28.47-.28 1.17v4.97c0 .47.13.74.48.82.17.04.34.07.34.26 0 .34-.23.46-.56.46H8.49c-.33 0-.48-.1-.48-.4 0-.19.1-.23.3-.29.61-.22.69-.46.69-1.39V21.4z" fill-opacity=".88"/><path d="M21.42 19.69c-.9 0-1.58.79-1.58 1.63 0 1.03.8 1.57 1.52 1.57.83 0 1.58-.69 1.58-1.65 0-.82-.64-1.55-1.52-1.55z" fill-opacity=".88"/></svg>