<!-- by TradingView --><svg xmlns="http://www.w3.org/2000/svg" width="56" height="56" viewBox="0 0 56 56"><path d="M56 0H0v56h56V0Z" fill="#F0F3FA"/><path d="M21 30V20h-5v8c-.41-1.22 0 0-3-8H8c0 3.64.04 6.28 0 10h5v-2l.5 2H21Z" fill="#3A4774"/><path d="M43 25c0-1.5 0-2-2-2h6.7c.2.62.3 1.3.3 2h-5Zm-2 0v-2h-5l.01 2H41Zm-4.98 2H47.64a4.3 4.3 0 0 1-1.5 2H36.03v-2Zm-2.3-2c.1-.62.09-1.33-.06-2H22v2h5v-2c1.5 0 2 .17 2 1.5 0 .19-.01.35-.03.5h4.75ZM22 27h10.58c-.17.13-.33.22-.46.3-.15.09-.26.15-.3.22.04.03.13.08.23.12.08.04.17.08.22.12.4.27.81.57 1.04 1l.12.24H22v-2Zm-8.18 4h7.2v2H14.5l-.68-2ZM8 31h5v2H8v-2Zm0 4v.96H13V35H8.01Zm7.17 0 .34 1H21v-1h-5.84ZM22 35v1h5v-1h-5Zm7.14 0c.2.62.47 1.02.86 1h3.98c-.13-.13-.21-.5-.27-1h-4.57Zm4.47-2h-4.84c-.08-.69-.12-1.4-.16-2h5v2Zm2.4 2L36 36h5v-1h-5ZM41 33v-2h-4.98v2H41Zm-14-2v2h-5v-2h5Zm-5-10h10.48c-.81-.61-1.38-.7-2.1-.8l-.66-.11c-.56-.1-3.46-.08-5.73-.06l-1.99.01V21Zm14 0h10.32l-.3-.18c-1.3-.66-3.28-.8-4.72-.79l-2.84-.01L36 20v1Z" fill="#BF0B26"/><path d="m10 21 .23.68H11l-.62.56.24.76-.62-.47-.62.47.24-.76-.62-.57h.77L10 21Zm0 3 .23.68H11l-.62.56.24.76-.62-.47-.62.47.24-.76-.62-.57h.77L10 24Zm.23 3.68L10 27l-.23.68H9l.62.56-.24.76.62-.47.62.47-.24-.76.62-.57h-.77ZM13 24l.23.68H14l-.62.56.24.76-.62-.47-.62.47.24-.76-.62-.57h.77L13 24Zm6.23-2.32L19 21l-.23.68H18l.62.56-.24.76.62-.47.62.47-.24-.76.62-.57h-.77ZM19 24l.23.68H20l-.62.56.24.76-.62-.47-.62.47.24-.76-.62-.57h.77L19 24Zm.23 3.68L19 27l-.23.68H18l.62.56-.24.76.62-.47.62.47-.24-.76.62-.57h-.77Z" fill="#F0F3FA"/></svg>