<!-- by TradingView --><svg xmlns="http://www.w3.org/2000/svg" width="56" height="56" viewBox="0 0 56 56"><path fill="#FF462D" d="M0 0h56v56H0z"/><path d="M49 21v11h-1V21h1zm-24.9 4a1.95 1.95 0 0 0-2.07 1.75H22V25h-1v7h1v-4.2c0-1.17.6-1.71 1.65-1.71 1.2 0 1.85.6 1.85 1.78V32h1v-4.3c0-1.66-.82-2.7-2.4-2.7zm-7.54 6.98h-.04L14.4 25H13.1l2.26 7h1.13l-1.15 4h1.23l3.39-11h-1.28l-2.13 6.98zm27.03 0h-.04L41.41 25h-1.27l2.26 7h1.13l-1.15 4h1.23L47 25h-1.28l-2.13 6.98zM9.56 28.66L12.6 25h-1.5l-2.83 3.54H8V22H7v10h1v-3.27h1.4L11.77 32h1.43l-2.46-3.34H9.56zM37 26.76V25h-1v7h1v-4.2c0-1.18.78-1.78 1.93-1.78.25 0 .51.03.76.08v-1.02a1.8 1.8 0 0 0-.58-.08c-.49-.01-.96.17-1.32.5-.31.28-.57.72-.79 1.25zM33 22h1v10h-1v-1.42h-.07c-.11.98-.86 1.75-2.28 1.75-1.74 0-2.97-1.38-2.97-3.67 0-2.28 1.23-3.66 2.97-3.66 1.42 0 2.17.77 2.28 1.75H33V22zm0 5.74c0-1.18-.9-1.65-2-1.65-1.16 0-2.03.72-2.03 2.57 0 1.86.87 2.58 2.03 2.58 1.1 0 2-.47 2-1.65v-1.85z" fill="#fff"/></svg>