<!-- by TradingView --><svg width="56" height="56" viewBox="0 0 56 56" xmlns="http://www.w3.org/2000/svg"><path d="M0 28a28 28 0 1 1 56 0 28 28 0 1 1-56 0Z" fill="#F0F3FA"/><path fill-rule="evenodd" d="M18 16h28v24H10V29.92l4.6-1.72 4.08 5.44-.3-6.96 7.25-2.56L18 22.44V16Zm-.5 0H10v3.93l4.2 1.55L17.5 16ZM10 22.7v5.11l1.9-2.65L10 22.7Zm4.99 12.54c.44 0 .44.05.44.4v2.49c0 .36 0 .53-.14.6-.1.04-.2.05-.29.06-.12.02-.2.03-.2.12 0 .08.05.09.18.09h1.57c.1 0 .14-.01.14-.09 0-.11-.1-.12-.23-.13-.08-.01-.19-.02-.3-.06-.13-.05-.16-.14-.16-.36v-2.63c0-.4.03-.49.19-.49.57 0 .87.06 1.01.26.04.06.05.13.06.2.02.1.03.19.11.19.06 0 .1-.05.1-.12l.02-.79v-.02c0-.1-.03-.16-.09-.16-.04 0-.07.03-.09.06-.02.03-.04.06-.07.07-.07.08-.14.08-.25.07H14.69c-.16 0-.22 0-.28-.14v-.02c-.03-.06-.05-.1-.1-.1s-.08.04-.1.12l-.31.88-.01.08c0 .07.02.1.07.1.07 0 .11-.06.17-.15l.09-.12c.2-.27.4-.4.77-.4ZM11.46 38c-.02-.14-.03-.2-.1-.2-.12 0-.12.2-.12.66v.05c0 .17 0 .22.12.28.26.15.56.22.91.22.86 0 1.35-.43 1.35-1.18 0-.58-.39-.89-1.16-1.26l-.07-.04c-.4-.2-.67-.33-.67-.73 0-.34.26-.57.68-.57.3 0 .54.13.69.39.03.06.05.13.06.2.02.1.04.17.11.17.05 0 .08-.05.08-.13 0-.4-.03-.63-.05-.66-.05-.08-.36-.19-.81-.19-.69 0-1.16.42-1.16 1 0 .53.35.89 1.06 1.23.54.27.82.5.82.89 0 .41-.3.66-.79.66-.48 0-.85-.32-.92-.65l-.03-.14Zm7.14-1.94.21-.5.17-.42c.03-.08.05-.13.12-.13.04 0 .08.05.11.14l.92 2.62c.19.53.33.84.41.94.08.08.2.1.28.12.08.02.14.03.14.1 0 .05-.04.08-.12.08h-1.33c-.1 0-.17-.03-.17-.1s.06-.08.17-.1c.04 0 .08 0 .12-.02.15-.03.2-.06.2-.16l-.03-.12a2.77 2.77 0 0 1-.03-.1l-.26-.89v-.03c-.04-.11-.05-.16-.14-.16H18.46c-.1 0-.1.01-.14.13-.3.69-.38 1.12-.38 1.14 0 .1.05.16.18.18.19.04.3.07.3.14 0 .06-.02.09-.07.09h-1.3c-.07 0-.1-.02-.1-.06 0-.07.07-.08.16-.1.1-.02.2-.04.28-.12.1-.1.2-.3.3-.59l.15-.35.76-1.73Zm-.14.95c0 .05.05.07.1.07h.67c.07 0 .08 0 .08-.06 0-.03-.06-.28-.23-.73l-.07-.2c-.04-.12-.06-.19-.1-.19-.03 0-.05.07-.1.22l-.06.13-.23.6-.03.08a.26.26 0 0 0-.03.08Zm3.18-1.75c.14.04.15.08.15.26l-.01 2.59v.4c0 .16-.05.22-.23.26l-.17.04c-.13.02-.2.03-.2.1s.03.1.1.1h1.56c.1 0 .15-.02.15-.1s-.08-.1-.2-.12l-.07-.02c-.3-.07-.4-.13-.4-.44v-1.27h.06c.32 0 .46.06.6.31l.8 1.48c.05.12.12.16.26.16h.86s.1-.06.1-.1c0-.08-.07-.09-.18-.11-.09-.02-.2-.05-.32-.1a.77.77 0 0 1-.36-.37l-.72-1.23c-.04-.06-.05-.09-.05-.11 0-.05.06-.08.14-.14.07-.04.16-.1.25-.2a.9.9 0 0 0 .26-.63c0-.61-.42-1.01-1.12-1.01h-1.46c-.16 0-.24.05-.24.12 0 .07.06.07.17.08.07 0 .16.02.27.05Zm1.86.82c0 .48-.29.78-.75.78H22.33V35.6c0-.33.02-.4.24-.4.62 0 .93.28.93.86Zm8.34-.68c.36-.25.77-.39 1.2-.39 1.32 0 2.13.8 2.13 1.95 0 1.24-.87 2.05-2.1 2.05-.5 0-.99-.17-1.34-.45a2.03 2.03 0 0 1-.73-1.57c0-.63.3-1.21.84-1.59Zm-.2 1.6c0 1.07.7 1.8 1.46 1.8.86 0 1.4-.68 1.4-1.94 0-.62-.18-1.06-.62-1.4a1.15 1.15 0 0 0-.72-.26c-.95 0-1.52.72-1.52 1.8ZM37.87 35c-.43 0-.83.14-1.2.4a1.9 1.9 0 0 0-.84 1.58c0 .61.27 1.19.73 1.57.35.28.84.45 1.34.45 1.23 0 2.1-.8 2.1-2.05 0-1.15-.8-1.95-2.13-1.95Zm.06 3.79c-.77 0-1.46-.73-1.46-1.8 0-1.08.57-1.8 1.52-1.8.26 0 .49.08.72.26.44.34.63.78.63 1.4 0 1.26-.55 1.94-1.41 1.94ZM41 35.44c0-.13-.09-.19-.2-.19a.97.97 0 0 0-.2.02l-.15.02c-.05 0-.08-.01-.08-.05 0-.21.53-.24 1.65-.24.76 0 1.32.1 1.8.48.48.4.76.98.76 1.6 0 1.15-.84 1.92-2.21 1.92h-1.72c-.09 0-.15-.02-.15-.06 0-.12.13-.15.25-.18a.8.8 0 0 0 .13-.04c.1-.04.12-.11.12-.3v-2.98Zm1.33 3.37A1.7 1.7 0 0 0 44 37.16c0-1.11-.88-1.99-2-1.99-.3 0-.44.06-.44.19v2.74c0 .44.28.7.77.7ZM25 35.1c.41 0 .47.19.59.68l.75 3.21h.38l1.05-3.14 1.1 3.14h.38l.7-3.13c.1-.5.18-.75.65-.75V35h-1.35v.12c.3 0 .43.06.43.27 0 .1-.04.27-.07.4v.02l-.5 2.33h-.02L28.01 35h-.28l-1.05 3.14-.56-2.38c-.03-.1-.05-.23-.05-.32 0-.27.17-.32.42-.32V35H25v.12Z" fill="#0078C2"/></svg>