<!-- by TradingView --><svg xmlns="http://www.w3.org/2000/svg" width="56" height="56" viewBox="0 0 56 56"><path fill="#0B3450" d="M0 0h56v56H0z"/><path d="M33 38V18h8.1a6.87 6.87 0 0 1 6.85 6.89 7.21 7.21 0 0 1-4.65 6.72L48 38h-5.52l-4.45-6H38v6h-5zM8 18v20h5v-6h3.12c3.8 0 6.88-3.3 6.88-7.1 0-3.81-3.08-6.9-6.88-6.9H8z" fill="#DDE159"/><path d="M13 23h2.83c1.2 0 2.17 1.12 2.17 2.5s-.97 2.5-2.17 2.5H13v-5zM38 23h2.83c1.2 0 2.17 1.12 2.17 2.5s-.97 2.5-2.17 2.5H38v-5z" fill="#0B3450"/><path d="M14 38l13.15-20H32v20h-5v-3h-6.06l-1.96 3H14zm9.56-7H27v-5.27L23.56 31z" fill="#DDE159"/></svg>