<!-- by TradingView --><svg width="56" height="56" viewBox="0 0 56 56" xmlns="http://www.w3.org/2000/svg"><path fill="#F0F3FA" d="M0 0h56v56H0z"/><path d="M37.35 25.5c.08 0 .15-.07.15-.15v-1.2c0-.08-.07-.15-.15-.15h-3.2a.14.14 0 0 0-.15.14v1.22c0 .07.07.14.15.14h.7c.08 0 .15.07.15.14v5.22c0 .07.07.14.15.14h1.2c.08 0 .15-.07.15-.14v-5.22c0-.08.07-.15.15-.15h.7ZM29.85 31c.08 0 .15-.07.15-.14v-6.72a.15.15 0 0 0-.15-.14h-1.2a.15.15 0 0 0-.15.14v2.99l-1-3a.23.23 0 0 0-.2-.13h-1.15a.15.15 0 0 0-.15.14v6.72c0 .07.07.14.15.14h1.2c.08 0 .15-.07.15-.14v-3.17l1.2 3.17c.03.07.12.13.2.13h.95V31ZM23.5 28.1c0-.08.02-.1.09-.1h.64c.07 0 .13-.07.13-.14v-1.02c0-.07-.06-.14-.13-.14h-.64c-.07 0-.09-.02-.09-.1v-1.2c0-.07.02-.08.09-.08h1.28c.07 0 .13-.06.13-.13v-1.05c0-.07-.06-.14-.13-.14h-2.74c-.07 0-.13.07-.13.14v6.72c0 .07.06.14.13.14h2.74c.07 0 .13-.07.13-.14v-1.04c0-.08-.06-.14-.13-.14h-1.28c-.07 0-.09-.02-.09-.1V28.1ZM18.5 28.21l1.02 2.66c.03.07.11.13.2.13h1.17c.08 0 .13-.06.1-.13l-1.4-3.4a.38.38 0 0 1 .01-.25l1.26-3.09c.03-.07-.02-.13-.1-.13h-1.18a.24.24 0 0 0-.2.13l-.88 2.46v-2.45c0-.07-.07-.14-.15-.14h-1.2c-.08 0-.15.07-.15.14v6.72c0 .07.07.14.15.14h1.2c.08 0 .15-.07.15-.14V28.2ZM49.5 28.21l1.02 2.66c.03.07.11.13.2.13h1.17c.08 0 .13-.06.1-.13l-1.4-3.4a.38.38 0 0 1 .01-.25l1.26-3.09c.03-.07-.02-.13-.1-.13h-1.18a.24.24 0 0 0-.2.13l-.88 2.46v-2.45c0-.07-.07-.14-.15-.14h-1.2c-.08 0-.15.07-.15.14v6.72c0 .07.07.14.15.14h1.2c.08 0 .15-.07.15-.14V28.2ZM10.5 24.14c0-.07-.05-.14-.1-.14H9.1c-.05 0-.1.07-.1.14v6.72c0 .07.05.14.1.14h1.3c.05 0 .1-.07.1-.14v-6.72ZM32.5 26.03c0-.27.2-.53.45-.53h.44c.07 0 .13-.07.13-.14v-1.21c0-.08-.06-.15-.13-.15h-.88c-.98 0-1.52.75-1.5 1.8 0 1.34 1.49 2.27 1.49 3.07 0 .4-.21.62-.56.63h-.81c-.07 0-.13.07-.13.14v1.22c0 .07.06.14.13.14h1.41c1.07.02 1.46-.96 1.46-1.97.02-1.36-1.5-2.04-1.5-3ZM7.45 27.37c-.07-.04-.05-.1 0-.15.36-.34.45-.67.45-1.01v-.8c0-1-.39-1.41-1.62-1.41H4.16c-.09 0-.16.07-.16.14v6.72c0 .07.07.14.16.14H6.4C7.55 31 8 30.27 8 29.24v-.57c0-.68-.12-1.02-.55-1.3Zm-1.97-2.03c0-.08.02-.1.11-.1h.37c.33 0 .47.23.47.8 0 .63-.2.74-.47.74h-.37c-.09 0-.1-.02-.1-.1v-1.34Zm.58 4.41H5.6c-.09 0-.1-.01-.1-.09V28.1c0-.08.01-.1.1-.1h.46c.36 0 .46.35.46.89.01.7-.12.86-.46.86ZM15.99 30.87l-1.18-2.77h.01l.12-.04c.36-.17.73-.55.73-1.27v-1.3c0-1.25-.76-1.49-1.7-1.49h-1.82a.15.15 0 0 0-.15.14v6.72c0 .07.07.14.15.14h1.2c.08 0 .14-.07.14-.14v-2.64l1.03 2.65c.03.07.12.13.2.13h1.18c.08 0 .12-.05.09-.13Zm-1.66-4.81c0 .7-.11.87-.42.87h-.31c-.08 0-.1-.02-.1-.1v-1.49c0-.08.02-.1.1-.1h.3c.34 0 .43.29.43.82ZM46.38 31C44.26 31 44 29.52 44 27.48c0-2.05.27-3.49 2.38-3.49h.47c.08 0 .15.06.15.14v1.22c0 .07-.07.14-.15.14h-.48c-.37 0-.87.2-.87 2s.5 2 .87 2h.48c.08 0 .15.07.15.14v1.22c0 .07-.07.14-.15.14h-.47ZM40.5 24c2.34 0 2.5 1.44 2.5 3.49 0 2.04-.16 3.51-2.5 3.51S38 29.53 38 27.49c0-2.05.16-3.49 2.5-3.49Zm0 5.68c.92 0 1-.39 1-2.2 0-1.8-.08-2.24-1-2.24s-1 .44-1 2.25c0 1.8.08 2.2 1 2.2Z" fill="#101415"/></svg>