<!-- by TradingView --><svg width="56" height="56" viewBox="0 0 56 56" xmlns="http://www.w3.org/2000/svg"><path fill="#181B1E" d="M0 0h56v56H0z"/><path d="M35.89 28.69 37 24.75l1.1 3.94H35.9Zm.5-4.69L34 32h.92l.72-2.41h2.7l.74 2.41H40l-2.38-8h-1.24ZM44 24h-1v8h1v-8ZM49.8 28H48v-3h1.8c.9 0 1.2.19 1.2.98v1.05c0 .78-.3.97-1.2.97m.93.88c.84-.27 1.27-.91 1.27-1.86v-1.05c0-1.22-.66-1.97-2.22-1.97H47v8h1v-3h1.93l1.2 3H52l-1.27-3.12ZM7.45 27.37l-.42-.08c-.93-.17-1.43-.39-1.43-.99 0-.75.68-.86 1.33-.86h2.44V24H6.32C4.9 24.04 4 24.9 4 26.26c0 1.65 1.2 2.1 2.55 2.37.14.04.28.06.42.08.93.17 1.43.38 1.43.97 0 .77-.66.88-1.33.88H4.4V32h3.28c1.43-.04 2.32-.9 2.32-2.26 0-1.68-1.2-2.09-2.55-2.37ZM16.5 29.49c0 .55-.27 1.07-1.5 1.07-.73 0-1.5-.13-1.5-1.07V24H12v5.54C12 31.1 13.1 32 15 32s3-.9 3-2.46V24h-1.5v5.49ZM26 27.19v-1.06c0-1.41-1.06-2.13-2.75-2.13H20v8h1.5v-2.5h1.68l1.19 2.5H26l-1.33-2.91c.75-.32 1.33-.96 1.33-1.9Zm-1.5-1.06v1.07c0 .52-.17.8-1.2.8h-1.8v-2.71h2.01c.63 0 .99.14.99.84ZM32.5 25.5 33 24h-5v8h1.5v-2.55h1.7l.5-1.45h-2.2v-2.5h3Z" fill="#fff"/></svg>