<!-- by TradingView --><svg width="56" height="56" viewBox="0 0 56 56" xmlns="http://www.w3.org/2000/svg"><path fill="#181B1E" d="M0 0h56v56H0z"/><path fill-rule="evenodd" d="M17 28a3 3 0 1 0-6 0 3 3 0 0 0 6 0Zm-3 2a2 2 0 1 0 0-4 2 2 0 0 0 0 4Z" fill="#F0F3FA"/><path d="M4 25h1.4l2.1 4 2.1-4H11l-3.5 7L4 25ZM22 25.02s1.61.48 1.61 1.98c0 1.47-1.41 2-1.41 2l1.68 2h-1.44L20 28h1.74s.76-.2.76-1-.82-1-.82-1H19v5h-1v-6l4 .02ZM25 31h1v-4.5l3.8 4.5H31v-6h-1v4.5L26.2 25H25v6ZM32 31h1l.58-1h3.84l.58 1h1l-3-6h-1l-3 6Zm3.5-4.8 1.33 2.8h-2.66l1.33-2.8Z" fill="#F0F3FA"/><path fill-rule="evenodd" d="M40 25v6h2.78S45 30.74 45 28s-2.35-3-2.35-3H40Zm1 1v4h1.78S44 29.6 44 28s-1.35-2-1.35-2H41ZM52 28a3 3 0 1 0-6 0 3 3 0 0 0 6 0Zm-3 2a2 2 0 1 0 0-4 2 2 0 0 0 0 4Z" fill="#F0F3FA"/></svg>