<!-- by TradingView --><svg width="56" height="56" viewBox="0 0 56 56" xmlns="http://www.w3.org/2000/svg"><path fill="url(#a3yhb2352)" d="M0 0h56v56H0z"/><path fill-rule="evenodd" d="M44 28a16 16 0 1 1-32 0 16 16 0 0 1 32 0Zm-1.11.18c0 8.34-6.79 15.1-15.16 15.1a15.13 15.13 0 0 1-15.15-15.1c0-8.35 6.78-15.11 15.15-15.11 8.37 0 15.16 6.76 15.16 15.1Zm-1.68 0c0 1.84-.34 3.61-.97 5.24-.36.18-.73.35-1.11.5a.51.51 0 0 0-.13-.26c-.19-.2-.52-.2-.89-.05a19.02 19.02 0 0 0-4.82-10.84 1.5 1.5 0 0 0-.33-1.45c.62-1 1.33-2 2.12-3-.84.61-1.8 1.5-2.75 2.6a1.42 1.42 0 0 0-.93.04 14.65 14.65 0 0 0-3.58-2.23 24.8 24.8 0 0 1 3.06 2.57 1.48 1.48 0 0 0-.18 1.84 18.12 18.12 0 0 0-2.78 11.82c-.24.11-.47.31-.63.58a42.31 42.31 0 0 1-8.17-9.79c.09-.1.17-.21.23-.34.26-.5.22-1.08-.07-1.45 1.53-6.02 7.73-8.45 10.72-8.92-7.47.6-10.64 5.7-11.43 8.56-.18 0-.36.04-.53.13-.7-1.47-1.29-3-1.68-4.57A13.88 13.88 0 0 1 27.2 13.9c7.73 0 14 6.39 14 14.26Zm-2.08 6.03c.4-.22.75-.45 1.06-.66a14.31 14.31 0 0 1-1.96 3.42c.02-.48.02-.96.01-1.42l.26-.23c.35-.35.58-.76.63-1.1ZM27.2 42.43c4.34 0 8.21-2 10.78-5.16 0-.45-.02-.96-.08-1.5-.43.22-.84.25-1.06.02-.1-.12-.15-.29-.13-.48a22.88 22.88 0 0 1-7.52 1.3 1.6 1.6 0 0 1-.23.38 40.15 40.15 0 0 0 4.34 3.15 33.35 33.35 0 0 1-4.44-2.61c.15 1.5.45 2.74.79 3.62-.58-1.29-1-2.54-1.3-3.75a.98.98 0 0 1-.77-.05c-.29-.15-.47-.45-.52-.79-2.28-.15-4.78-.6-7.47-1.47 1.67.26 4.13.52 6.86.58-3.6-3.04-6.1-6.49-7.76-9.6-.3.15-.64.17-.93.02-.54-.29-.7-1.05-.37-1.7.08-.16.17-.29.28-.4a23.76 23.76 0 0 1-1.53-4.57 14.36 14.36 0 0 0-2.95 8.75c0 7.88 6.27 14.26 14 14.26Zm10.43-8.54a2.72 2.72 0 0 0-.7.77 34.1 34.1 0 0 1-7.63 1 1.03 1.03 0 0 0-.55-.71c.06-3.17.78-7.06 2.83-11.18a1.43 1.43 0 0 0 1.24-.3 24.36 24.36 0 0 1 4.8 10.42Z" fill="#fff"/><defs><linearGradient id="a3yhb2352" x1="28" y1="0" x2="28" y2="56" gradientUnits="userSpaceOnUse"><stop stop-color="#3389D9"/><stop offset="1" stop-color="#0156A7"/></linearGradient></defs></svg>