<!-- by TradingView --><svg width="56" height="56" viewBox="0 0 56 56" xmlns="http://www.w3.org/2000/svg"><path fill="#F0F3FA" d="M0 0h56v56H0z"/><circle cx="28" cy="28" r="17"/><path d="M22 20h4l2 16h-3l-.5-3h-1l-.5 3h-3l2-16Zm2 4-.5 7h1l-.5-7Z" fill="url(#a4m223h3l)"/><path fill-rule="evenodd" d="M28 43.94a15.94 15.94 0 1 0 0-31.88 15.94 15.94 0 0 0 0 31.88ZM28 45a17 17 0 1 0 0-34 17 17 0 0 0 0 34Z" fill="#B82B31"/><path fill-rule="evenodd" d="M28 41.5a13.5 13.5 0 1 0 0-27 13.5 13.5 0 0 0 0 27Zm0 .5a14 14 0 1 0 0-28 14 14 0 0 0 0 28Z" fill="url(#b4m223h3l)"/><path d="M35 20h-7v16h7v-3h-4v-4h3v-3h-3v-3h4v-3Z" fill="url(#c4m223h3l)"/><defs><linearGradient id="a4m223h3l" x1="24" y1="20" x2="24" y2="36" gradientUnits="userSpaceOnUse"><stop stop-color="#EBEBEB"/><stop offset=".17" stop-color="#AAA8A9"/><stop offset=".51" stop-color="#FDFDFD"/><stop offset=".75" stop-color="#BBB7B8"/><stop offset="1" stop-color="#676161"/></linearGradient><linearGradient id="b4m223h3l" x1="28" y1="14" x2="28" y2="42" gradientUnits="userSpaceOnUse"><stop stop-color="#9A3231"/><stop offset=".16" stop-color="#EEEAED"/><stop offset=".4" stop-color="#773134"/><stop offset=".62" stop-color="#742E2D"/><stop offset=".84" stop-color="#F4DFE6"/><stop offset="1" stop-color="#993137"/></linearGradient><linearGradient id="c4m223h3l" x1="31.5" y1="20" x2="31.5" y2="36" gradientUnits="userSpaceOnUse"><stop stop-color="#EEE"/><stop offset=".14" stop-color="#AFADAE"/><stop offset=".22" stop-color="#B7B5B6"/><stop offset=".46" stop-color="#F2F2F2"/><stop offset=".63" stop-color="#F2F2F2"/><stop offset=".78" stop-color="#B6B0B0"/><stop offset="1" stop-color="#625C5C"/></linearGradient></defs></svg>