<!-- by TradingView --><svg width="56" height="56" viewBox="0 0 56 56" xmlns="http://www.w3.org/2000/svg"><path fill="#F0F3FA" d="M0 0h56v56H0z"/><path d="M37.57 25a3 3 0 0 0-2.81 1.53s0 .03-.03.03a2.99 2.99 0 0 0-2.6-1.55c-1.1-.02-1.73.46-2.13 1.55V25h-2a1359843.12 1359843.12 0 0 0 .01 8.99.04.04 0 0 0 .03.01h1.92l.03-.01.01-.03V29c.04-1 .75-2 1.75-2s1.75 1 1.75 2v4.96a.04.04 0 0 0 .03.04h1.93l.03-.01.01-.03V29c0-1 .75-2 1.75-2S39 28 39 29v4.96l.01.03.03.01h1.91l.04-.01.01-.04v-5.28c0-2.23-1.3-3.66-3.43-3.66Z" fill="#231F20"/><path fill-rule="evenodd" d="M22.5 32a2.5 2.5 0 1 0 0-5 2.5 2.5 0 0 0 0 5Zm0 2a4.5 4.5 0 1 0 0-9 4.5 4.5 0 0 0 0 9Z" fill="#231F20"/><path d="M49 29.5a2.5 2.5 0 1 1-5 0 2.5 2.5 0 0 1 5 0Zm0-3.74a4.5 4.5 0 1 0 0 7.48V34h2v-9h-2v.76Z" fill="#231F20"/><path fill-rule="evenodd" d="M11 32a4 4 0 1 0 0-8 4 4 0 0 0 0 8Zm0 2a6 6 0 1 0 0-12 6 6 0 0 0 0 12Z" fill="#231F20"/></svg>