<!-- by TradingView --><svg width="56" height="56" viewBox="0 0 56 56" xmlns="http://www.w3.org/2000/svg"><path fill="#F0F3FA" d="M0 0h56v56H0z"/><path d="M10 27h31.7l.63 1-.62 1H10v-2Z" fill="#C9945E"/><path d="m50 27.81-9.99 3.69 2.33-3.49-.62-1.2-1.7-2.26L50 27.8Z" fill="#DFC063"/><path d="M42.2 28.09 40 24.5l1.42 1.62 5.23 1.65-4.72 1.87L40 31.5l2.2-3.41Z" fill="#C7935E"/><path d="m42.73 27.92-.9-1.31 3.56 1.17-3.44 1.3.78-1.16Z" fill="#fff"/><path d="M37.07 24.15A3.91 3.91 0 0 0 32.55 28a3.91 3.91 0 0 0 4.52 3.85A14.07 14.07 0 0 1 23.54 42C17.1 42 11.67 37.7 10 31.82A3.91 3.91 0 0 0 14.71 28 3.91 3.91 0 0 0 10 24.18 14.07 14.07 0 0 1 23.54 14c6.43 0 11.85 4.29 13.53 10.15Z" fill="#E0C167"/><path fill-rule="evenodd" d="m37.07 24.15-.15-.48A14.07 14.07 0 0 0 23.54 14 14.07 14.07 0 0 0 10 24.18a3.98 3.98 0 0 1 .78-.08 3.91 3.91 0 0 1 3.93 3.9A3.91 3.91 0 0 1 10 31.82l.15.49A14.07 14.07 0 0 0 23.54 42a14.07 14.07 0 0 0 13.53-10.15 3.97 3.97 0 0 1-.59.05 3.91 3.91 0 0 1-3.93-3.9 3.91 3.91 0 0 1 4.52-3.85Zm-.64-.5a13.61 13.61 0 0 0-12.9-9.2 13.61 13.61 0 0 0-12.88 9.2h.13c2.43 0 4.4 1.95 4.4 4.35a4.37 4.37 0 0 1-4.53 4.35c1.82 5.35 6.9 9.2 12.89 9.2 5.98 0 11.07-3.85 12.9-9.2A4.37 4.37 0 0 1 32.08 28a4.37 4.37 0 0 1 4.34-4.35Z" fill="#C38D5A"/><path d="M34.16 23.52c.64-.33 1.06-1.07.71-1.7a12.93 12.93 0 0 0-11.33-6.68c-4.85 0-9.08 2.66-11.3 6.6-.35.64.09 1.4.75 1.73a5.03 5.03 0 0 1 0 9.06c-.66.32-1.1 1.09-.74 1.73a12.93 12.93 0 0 0 11.29 6.6c4.88 0 9.13-2.7 11.33-6.68.35-.63-.07-1.37-.71-1.7a5.03 5.03 0 0 1 0-8.96Z" fill="#EBD59B"/><path d="M31.3 20.44a10.84 10.84 0 0 0-15.45-.07l-.29.3c-.62.66-.37 1.68.28 2.32a7.03 7.03 0 0 1 0 10.02c-.65.64-.9 1.66-.28 2.32l.29.3a10.84 10.84 0 0 0 15.45-.07l.32-.34c.6-.66.36-1.65-.27-2.28a7.03 7.03 0 0 1 0-9.88c.63-.63.86-1.62.27-2.28l-.32-.34Z" fill="#F7EFD8"/><path fill-rule="evenodd" d="M21.9 16.9a.73.73 0 0 1-1.46 0c0-.4.33-.72.74-.72.4 0 .73.32.73.72Zm-5.93 3.85c0 .4-.33.72-.73.72a.73.73 0 0 1-.73-.72c0-.4.33-.72.73-.72.4 0 .73.32.73.72Zm-.73 14.1a.73.73 0 1 1 0 1.45.73.73 0 0 1-.73-.72c0-.4.33-.72.73-.72Zm6.67 4.58c0-.4-.33-.73-.73-.73a.73.73 0 1 0 0 1.45c.4 0 .73-.32.73-.72Zm3.98-22.53c0 .4.33.73.73.73a.73.73 0 1 0 0-1.45c-.4 0-.73.32-.73.72Zm5.94 3.85c0 .4.33.72.73.72.4 0 .73-.32.73-.72 0-.4-.33-.72-.73-.72-.4 0-.73.32-.73.72Zm.73 14.1a.73.73 0 1 0 0 1.45c.4 0 .73-.32.73-.72 0-.4-.33-.72-.73-.72Zm-6.67 4.58c0-.4.33-.73.73-.73a.73.73 0 1 1 0 1.45.73.73 0 0 1-.73-.72ZM25 28a1.5 1.5 0 1 1-3 0 1.5 1.5 0 0 1 3 0Zm1.26 0a2.76 2.76 0 1 1-5.52 0 2.76 2.76 0 0 1 5.52 0Zm.24 0a3 3 0 1 1-6 0 3 3 0 0 1 6 0Zm-3.39-11.79v8.49h-.23v-8.49h.23Zm.5 8.49v-8.49h.24v8.49h-.23Zm.92-8.49v8.49h-.23v-8.49h.23ZM23.1 39.8V31.3h-.23v8.49h.23Zm.5-8.49v8.49h.24V31.3h-.23Zm.92 8.49V31.3h-.23v8.49h.23Zm.35-8.6 4.29 7.35-.2.11-4.29-7.35.2-.11Zm4.72 7.1-4.28-7.35.2-.12 4.28 7.35-.2.12Zm-3.5-7.8 4.3 7.35-.2.1-4.29-7.34.2-.11Zm-7.7 8.27 3.91-7.55.2.1-3.9 7.55-.2-.1Zm3.46-7.78-3.9 7.55-.21-.1 3.9-7.56.21.1Zm-4.72 7.14 3.91-7.55.2.1-3.9 7.55-.2-.1Zm7.74-13.39 4.29-7.35-.2-.11-4.29 7.35.2.11Zm4.72-7.1-4.28 7.35.2.12 4.28-7.35-.2-.12Zm-3.5 7.8 4.3-7.35-.2-.1-4.29 7.34.2.11Zm-7.7-8.27 3.91 7.55.2-.1-3.9-7.55-.2.1Zm3.46 7.78-3.9-7.55-.21.1 3.9 7.56.21-.1Zm-4.72-7.14 3.91 7.55.2-.1-3.9-7.55-.2.1Zm3.76 8.23c-.1-.03-3.68-1.51-5.46-2.25l.09-.21a8504.67 8504.67 0 0 0 4.81 2l.46.18.13.05.03.02h.01l-.07.21Zm5.42 0 5.46-2.25-.1-.21a8504.67 8504.67 0 0 1-4.8 2l-.46.18-.13.05h-.02l-.02.02h-.01l.08.21Zm.34.5 4.86-1.97-.09-.21-4.86 1.97.09.2Zm4.5-1.2-4.2 1.68-.09-.2 4.21-1.69.09.22Zm-15.46-.77 4.86 1.97.08-.21-4.86-1.97-.08.2ZM20.26 27l-4.21-1.67.09-.22 4.2 1.68-.08.21Zm-4.82 5.36 5.46-2.26.08.21-.02.01-.03.02-.13.05a223.24 223.24 0 0 0-1.9.79l-3.37 1.39-.1-.21Zm16.34 0-5.46-2.26-.08.21.01.01h.02l.02.02.13.05a223.24 223.24 0 0 1 1.9.79l3.37 1.39.09-.21Zm-.26-.78-4.86-1.97-.09.2 4.86 1.98.09-.21Zm-4.56-2.46 4.2 1.68-.08.21-4.2-1.68.08-.2Zm-6.4.49-4.86 1.97.08.2 4.86-1.96-.08-.21Zm-4.51 1.19 4.2-1.68.1.21-4.21 1.68-.1-.21Z" fill="#CB9965"/></svg>