<!-- by TradingView --><svg width="56" height="56" viewBox="0 0 56 56" xmlns="http://www.w3.org/2000/svg"><path fill="#F0F3FA" d="M0 0h56v56H0z"/><path fill-rule="evenodd" d="M8.5 19H6v9h2.5a4.5 4.5 0 1 0 0-9Zm0 2H8v5h.5a2.5 2.5 0 0 0 0-5ZM16.75 28c1.8 0 3.25-1.38 3.25-3.09 0-1.7-1.46-3.08-3.25-3.08a3.17 3.17 0 0 0-3.25 3.08c0 1.7 1.46 3.09 3.25 3.09Zm0-1.77c.69 0 1.25-.59 1.25-1.32 0-.72-.56-1.31-1.25-1.31s-1.25.59-1.25 1.31c0 .73.56 1.32 1.25 1.32Z" fill="#004E88"/><path d="M23 22h-2v3.74c0 1.25.99 2.26 2.2 2.26h1.6c1.21 0 2.2-1.01 2.2-2.26V22h-2v3.37a1 1 0 1 1-2 0V22ZM35 19h2v9h-2v-9Z" fill="#004E88"/><path fill-rule="evenodd" d="M32.33 27.13c-.51.54-1.2.87-1.97.87-1.56 0-2.82-1.38-2.82-3.09 0-1.7 1.26-3.08 2.82-3.08.76 0 1.46.33 1.97.87V22h2.04v5.56c.05 1.15-.32 3.44-3.16 3.44-1.2 0-3.2-.46-3.51-2.31H30c.1.22.46.66 1.2.62.74-.03 1.05-.76 1.12-1.12v-1.06Zm-.01-2.27c0 .7-.58 1.27-1.3 1.27-.72 0-1.3-.57-1.3-1.27 0-.7.58-1.27 1.3-1.27.72 0 1.3.57 1.3 1.27ZM42 27.21c-.49.5-1.13.79-1.83.79-1.52 0-2.75-1.38-2.75-3.09 0-1.7 1.23-3.08 2.75-3.08.7 0 1.34.3 1.83.79V22h2v6h-2v-.79Zm0-2.19a1.28 1.28 0 0 1-1.26 1.21c-.7 0-1.26-.58-1.26-1.3 0-.7.57-1.29 1.26-1.29.67 0 1.22.54 1.26 1.21v.17Z" fill="#004E88"/><path d="M47.98 22a4.7 4.7 0 0 1 1.87.39l-.7 1.23c-.84-.44-1.7-.27-1.72.1 0 .3.36.43.55.46.35.06 2 .21 2.02 1.76.03 1.55-1.22 2.02-2.65 2.06a4.04 4.04 0 0 1-2.35-.65l.71-1.4c1.4.8 2.27.58 2.27.2 0-.32-.48-.5-.71-.54-1.63-.33-1.86-1.09-1.86-1.63 0-1.6 1.58-1.95 2.57-1.98ZM7.01 29H6v9h5v-2H8v-1.5h3v-2H8V31h3v-2H7.01ZM14 32h-2v6h2v-3.39a1 1 0 1 1 2 0V38h2v-3.47a1 1 0 0 1 2 .08V38h2v-3.87a2.13 2.13 0 0 0-4.13-.75 2.1 2.1 0 0 0-3.87-.16V32ZM25 32h-2v6h2v-3.39a1 1 0 1 1 2 0V38h2v-3.47a1 1 0 0 1 2 .08V38h2v-3.87a2.13 2.13 0 0 0-4.13-.75 2.1 2.1 0 0 0-3.87-.16V32Z" fill="#004E88"/><path fill-rule="evenodd" d="M37.29 38c1.4 0 2.6-.82 3.07-1.98h-2.04c-.25.32-.6.53-.99.53-.64 0-1.17-.55-1.31-1.3h4.54l.02-.35c0-1.71-1.47-3.1-3.3-3.1-1.8 0-3.28 1.39-3.28 3.1 0 1.71 1.47 3.1 3.29 3.1Zm1.23-3.92c-.23-.53-.67-.89-1.19-.89-.52 0-.96.36-1.2.89h2.4Z" fill="#004E88"/><path d="M44 30h-2v2h-1v2h1v4h2v-4h1v-2h-1v-2ZM49 30h-2v2h-1v2h1v4h2v-4h1v-2h-1v-2Z" fill="#004E88"/></svg>