<!-- by TradingView --><svg width="56" height="56" viewBox="0 0 56 56" xmlns="http://www.w3.org/2000/svg"><path fill="#00AD66" d="M0 0h56v56H0z"/><path d="M6 27.3V33H4V23h1.99v1.87C6.45 23.64 7.36 23 8.63 23c2.13 0 3.37 1.7 3.37 3.71V33h-2v-5.8c0-1.06-.88-2.2-2-2.2-1.08 0-1.99 1-2 2.3ZM26 33V23h2v1.86c.33-1.12.83-1.86 2.14-1.86.27 0 .62.04.86.1v2.42a4.12 4.12 0 0 0-1.16-.15c-1.17 0-1.84.87-1.84 2.05V33h-2ZM36.16 33C33.24 33 32 30.37 32 28.04c0-2.35 1.25-5.04 4.16-5.04 1.29 0 2.31.64 2.84 1.74V20h2v13h-2v-1.7a3.04 3.04 0 0 1-2.84 1.7Zm.34-2c1.48 0 2.5-1.48 2.5-3.1 0-1.63-1.04-2.9-2.5-2.9-1.6 0-2.5 1.74-2.5 3s.87 3 2.5 3ZM45.23 35c-.62 0-1.2-.1-1.55-.25l.5-1.84c.3.1.6.08.84.09.67.02.93-.42 1.17-1.02L43 23h2.02l2.42 7h.09L50 23h2l-3.46 9.67A3.32 3.32 0 0 1 45.23 35ZM24 27.55a5 5 0 1 0-.31 2.24l-1.26-.52A4.06 4.06 0 0 1 19.4 31a3.26 3.26 0 0 1-2.76-1.33l5.16-1.47 2.19-.65Zm-5.9-2.47a3.2 3.2 0 0 1 3.17 1.14L16 27.85c-.04-1.31.8-2.47 2.1-2.77Z" fill="#FEFEFE"/></svg>