<!-- by TradingView --><svg width="56" height="56" viewBox="0 0 56 56" xmlns="http://www.w3.org/2000/svg"><path fill="#582C83" d="M0 0h56v56H0z"/><path d="M35 31h4.27c-.23 1.58-1.9 3-3.85 3-3.24 0-4.42-3.07-4.42-5.9 0-2.96 1.05-6.1 4.42-6.1 2.28 0 3.62 1.79 3.62 3h6.73c-.76-4-2.78-7.25-6.8-8.47a12.06 12.06 0 0 0-3.56-.53c-1.8 0-3.46.32-4.92.94a10.68 10.68 0 0 0-6.04 6.47c-.21.6-.57 1.77-.7 2.42.15-.17.54-.23.61-.23 1.38 0 2.01.5 2.12 1.77h-1.56c-.04-.47-.32-.75-.71-.75-.37 0-.66.24-.66.63 0 .4.33.71 1 1.32l1.14 1.08.74-1.16h1.7l-1.33 2.1-.04.06L28.32 32h-2.14l-.44-.3c-.42.27-.9.44-1.44.51l.17.5a10.74 10.74 0 0 0 6.03 6.37c1.47.61 3.12.92 4.93.92a9.3 9.3 0 0 0 3.55-.71 6.75 6.75 0 0 0 1.64-.94l.24 1.65H46V26H35v5Z" fill="#fff"/><path d="M22.66 30.36c0 .46.47.85 1.1.85.27 0 .58-.07.87-.21l-1.1-1.02-.38-.36c-.3.17-.5.43-.5.74ZM30.84 16H11v24h7v-8h4.72c-1.78-.5-1.91-2.71-.47-3.38-.54-.99-.35-2.16.9-2.62H18v-3h5.94a13.58 13.58 0 0 1 2.14-3.8 10.93 10.93 0 0 1 4.76-3.2Z" fill="#FFC20E"/></svg>