<!-- by TradingView --><svg width="56" height="56" viewBox="0 0 56 56" xmlns="http://www.w3.org/2000/svg"><path fill="#F0F3FA" d="M0 0h56v56H0z"/><path fill-rule="evenodd" d="M43 13H13v30h30V13Zm-20.91 5-6.63 15h1.63l2.39-6h4.89l2.78 6.8c1.63 3.6 4.8 4.13 7.65 4.2 2.28.05 4.35-.61 5.2-.95V31h-2v5.48c-.46.23-1.44.52-2.97.52-1.93 0-6.41-.7-6.38-5.91.03-5.2 2.98-7.06 6.15-7.09 2.54-.03 4.18 1.23 4.68 1.92h.32l.41-1.58a11.25 11.25 0 0 0-5.4-1.34c-5.67.18-7.66 3.48-7.95 5.06L22.56 18h-.47Zm1.87 8h-4.08l2.01-5.07L23.96 26Z" fill="#005596"/></svg>