<!-- by TradingView --><svg width="56" height="56" viewBox="0 0 56 56" xmlns="http://www.w3.org/2000/svg"><path fill="#172E4C" d="M0 0h56v56H0z"/><path d="M35.73 21h.12l.72-1h-1.98c.5.36.88.72 1.14 1Zm-2.85-2a8.7 8.7 0 0 0-3.62-.82c-1.18 0-2.18.31-3.01.82h-7.76l.6-1H38l-.71 1h-4.4Zm5.83-2 .27-.38c-.13-.17-.31-.38-.54-.62H20.65c-.3.32-.57.65-.84 1h18.9Zm-17.04-2H37.4c-.4-.33-.84-.67-1.35-1H22.96c-.44.3-.87.63-1.29 1Zm3.07-2h9.43c-1.37-.59-3-1-4.91-1-1.55 0-3.08.34-4.52 1Zm-6.77 7h7.05c-.3.3-.56.64-.8 1h-6.69l.44-1Zm5.67 2h-6.48c-.11.33-.22.66-.31 1h6.35c.13-.34.28-.67.44-1Zm-.78 2h-6.27l-.2 1h6.21c.07-.33.16-.66.26-1Zm-.44 2h-6.2l-.11 1h6.2c.02-.3.06-.65.11-1Zm.04 1c.24-.3.62-.65 1.13-1h11.95c.52.29 1 .62 1.45 1H22.46ZM38 28H16.04L16 29h22.72a8.11 8.11 0 0 0-.73-1Zm1.25 2h-7.51a6 6 0 0 1 1.18 1h6.7a8.5 8.5 0 0 0-.37-1Zm.6 2h-6.2c.18.32.33.65.45 1h5.88c-.03-.34-.07-.68-.13-1Zm.16 2h-5.68a5.46 5.46 0 0 1 .04 1h5.6c.02-.33.04-.66.04-1Zm-.16 2h-5.62c-.09.35-.2.68-.35 1h5.78c.08-.33.14-.66.2-1Zm-.47 2h-6.1c-.26.37-.58.7-.93 1h6.64c.14-.32.27-.66.39-1Zm-.9 2h-7.8a6.35 6.35 0 0 1-4.72 0h-7.41c.23.35.47.69.72 1h18.52c.25-.32.48-.65.68-1Zm-1.58 2H20.18c.38.37.8.7 1.22 1h14.26c.44-.3.85-.64 1.23-1Zm-3.06 2H23.2c1.55.67 3.3 1 5.22 1 2.06 0 3.86-.35 5.4-1Zm-15.87-5h6.32c-.36-.3-.67-.63-.94-1h-5.85c.15.35.3.68.47 1Zm-.85-2h5.63a5.46 5.46 0 0 1-.34-1h-5.6l.3 1Zm-.56-2h5.7a5.45 5.45 0 0 1 .05-1h-5.94c.06.34.12.67.2 1Zm-.34-2h6.32c.11-.35.26-.68.45-1H16.1l.1 1Zm-.17-2h7.67a6 6 0 0 1 1.17-1h-8.87c0 .34.01.67.03 1Zm17.12-6h-7.52c.99-.33 2.19-.55 3.62-.55 1.3 0 2.64.18 3.9.55Z" fill="#fff"/></svg>