<!-- by TradingView --><svg width="56" height="56" viewBox="0 0 56 56" xmlns="http://www.w3.org/2000/svg"><path fill="#00828F" d="M0 0h56v56H0z"/><path d="M12.44 30.99c-.27.8-.6 1.03-.9 1.41-.39.47-.95.6-1.98.6-.7 0-.86-.02-1.15-.2-.33-.2-.41-.64-.41-1.5V28h.88c1.17 0 1.35.1 1.56 1.42H11v-3.84h-.56c-.2 1.3-.1 1.42-1.56 1.42H8v-3.38c0-.57.05-.62.62-.62h.58c1.05 0 1.5.13 1.77.49.26.38.46.63.62 1.34l.41-.09c-.06-1.07.02-2.34 0-2.74H4v.6c1.24.13 2 .2 2 1.83v7.17c0 1.55-.51 1.67-2 1.82V34h8.41c.13-.56.48-2.27.59-3.01h-.56ZM38.44 30.99c-.27.8-.6 1.03-.9 1.41-.39.47-.95.6-1.98.6-.7 0-.86-.02-1.15-.2-.33-.2-.41-.64-.41-1.5V28h.88c1.17 0 1.35.1 1.56 1.42H37v-3.84h-.56c-.2 1.3-.1 1.42-1.56 1.42H34v-3.38c0-.57.05-.62.62-.62h.58c1.05 0 1.5.13 1.77.49.26.38.46.63.62 1.34l.41-.09c-.06-1.07.02-2.34 0-2.74h-8v.6c1.24.13 2 .2 2 1.83v7.17c0 1.55-.51 1.67-2 1.82V34h8.41c.13-.56.48-2.27.59-3.01h-.56ZM20.5 24.95l-.3-2.52a6.82 6.82 0 0 0-2.25-.43C15.68 22 14 23.48 14 25.33c0 1.81 1.68 2.73 3.13 3.53 1.28.7 1.87 1.34 1.87 2.48 0 1.2-.48 1.66-1.6 1.66-1.67 0-2.57-1.6-2.86-2.72l-.54.18c.1.97.33 2.5.47 2.91.81.4 1.7.63 2.6.63 2.36 0 3.93-1.53 3.93-3.5 0-1.83-1.35-2.75-2.94-3.57C16.64 26.2 16 25.6 16 24.5c0-.99.6-1.5 1.69-1.5 1.38 0 1.96.96 2.27 2.07l.53-.12ZM28.5 24.95l-.3-2.52a6.82 6.82 0 0 0-2.25-.43C23.68 22 22 23.48 22 25.33c0 1.81 1.68 2.73 3.13 3.53 1.28.7 1.87 1.34 1.87 2.48 0 1.2-.48 1.66-1.6 1.66-1.67 0-2.57-1.6-2.86-2.72l-.54.18c.1.97.33 2.5.47 2.91.81.4 1.7.63 2.6.63 2.36 0 3.93-1.53 3.93-3.5 0-1.83-1.35-2.75-2.94-3.57C24.64 26.2 24 25.6 24 24.5c0-.99.6-1.5 1.69-1.5 1.38 0 1.96.96 2.27 2.07l.53-.12ZM52 34v-.58c-1.23-.15-1.62-.38-2.4-1.62-.97-1.52-1.86-3.05-2.88-4.72 1-1.5 1.67-2.5 2.19-3.14.76-.98 1.2-1.18 2.4-1.32V22H47v.62c1.16.18 1.34.36.96 1.1-.45.84-1.04 1.8-1.68 2.75a68.55 68.55 0 0 1-1.77-3.04c-.25-.45-.26-.63.77-.81V22h-4.97v.62c1.24.12 1.64.4 2.25 1.41.8 1.31 1.6 2.64 2.46 4.12a63.67 63.67 0 0 1-2.91 4.23c-.52.62-1.1.91-2.11 1.04V34h4.3v-.58c-1.2-.22-1.31-.36-.88-1.14a38.3 38.3 0 0 1 2.05-3.45l2.1 3.57c.3.58.3.8-.84 1.02V34H52Z" fill="#F9F2F0"/></svg>