<!-- by TradingView --><svg xmlns="http://www.w3.org/2000/svg" width="56" height="56" viewBox="0 0 56 56"><path fill="#F0F3FA" d="M0 0h56v56H0z"/><path fill-rule="evenodd" d="M8 23h40v10H8V23zm38 3.66v.4h-.06l-.01-.03c0-.02-.02-.03-.03-.03h-1.6v-.04h.04l.02-.03V25.1s0-.02-.02-.02h-.05V25h1.56v-.04h.07v.4h-.06l-.01-.03-.03-.02h-1.05v.49h.9l.02-.02.01-.04h.06v.4h-.06v-.03l-.03-.02h-.9v.62h1.13c.01 0 .02 0 .03-.02v-.03H46zm-28.5.27l.08.02V27h-.64v-.05l.05-.01c.01-.01.02-.02.01-.03l-.17-.36h-1.04l-.17.36.01.03a.1.1 0 0 0 .05.01V27h-.63v-.05c.05 0 .07 0 .08-.02l.88-1.8.01-.03c0-.02 0-.03-.02-.03a.15.15 0 0 0-.06-.01V25h.74v.06h-.05c-.02.01-.03.02-.03.04l.01.03.9 1.8zm-1.2-1.53l-.36.86h.74l-.37-.86zM11.25 27c-.23 0-.44-.04-.63-.13-.19-.08-.34-.2-.45-.35a.92.92 0 0 1 0-1.05c.11-.15.26-.26.45-.34.18-.09.39-.13.61-.13a1.4 1.4 0 0 1 .96.34h.02a.2.2 0 0 0 .06-.01l.04.03-.44.28-.03-.04.02-.02v-.03a.96.96 0 0 0-.63-.21.91.91 0 0 0-.39.08.7.7 0 0 0-.28.24c-.07.1-.11.2-.11.33 0 .12.04.25.11.35.08.1.17.17.3.23.12.05.25.08.39.08.13 0 .24-.02.34-.05a.9.9 0 0 0 .26-.17l-.01-.04a.07.07 0 0 0-.03-.02l.04-.04.47.32-.03.04a.22.22 0 0 0-.05-.03h-.04c-.13.12-.27.2-.42.26-.14.05-.32.08-.53.08zm11.16-.05c-.05 0-.08 0-.08-.02l-.58-.86a.79.79 0 0 0 .39-.18c.1-.09.15-.2.15-.35a.45.45 0 0 0-.21-.39c-.15-.1-.36-.15-.63-.15h-.97v.05h.04l.03.03v1.84c0 .01-.01.02-.03.02l-.04.01V27h.57v-.05h-.05l-.03-.03v-.83h.33l.53.82v.03l-.06.01V27h.64v-.05zm-1.44-1.16v-.5h.53c.11 0 .2.03.27.08.08.04.12.1.12.17s-.04.13-.1.17a.5.5 0 0 1-.3.08h-.52zm6.2 1.14c.02.02.04.02.1.02V27h-.65v-.05l.06-.01v-.03l-.53-.82h-.33v.83c0 .01.01.02.03.02l.05.01V27h-.57v-.05h.04l.03-.03v-1.84c0-.01 0-.02-.03-.02l-.04-.01V25h.97c.28 0 .49.05.63.15.14.1.21.23.21.39 0 .14-.05.26-.15.35a.79.79 0 0 1-.39.18l.58.86zm-1.35-1.64v.5h.52a.5.5 0 0 0 .3-.08c.06-.04.1-.1.1-.17s-.04-.13-.11-.17a.48.48 0 0 0-.28-.08h-.53zm4.4-.23c.03 0 .03 0 .03.02v1.84c0 .01 0 .02-.02.02l-.05.01V27h.58v-.05h-.05l-.03-.03v-1.84c0-.01.01-.02.03-.02l.05-.01V25h-.58v.05h.05zm5.88 1.87c0 .01.03.02.07.02V27h-.64v-.05l.06-.01v-.03l-.17-.36h-1.04l-.17.36.01.03a.1.1 0 0 0 .05.01V27h-.62v-.05c.04 0 .06 0 .07-.02l.88-1.81.01-.03c0-.02 0-.03-.02-.03a.14.14 0 0 0-.06-.01V25h.74v.05h-.05c-.02.01-.03.02-.03.04l.01.03.9 1.8zm-1.2-1.54l-.37.87h.74l-.37-.87zm6.25 1.4l.24-.12-.04-.04a.2.2 0 0 1-.08.02h-.03v-.71s.01-.02.03-.02h.04v-.06h-1.05l-.02-.01a.07.07 0 0 1-.01-.04h-.06v.4h.06v-.03l.03-.02h.57v.37c-.18.1-.4.14-.64.14a.84.84 0 0 1-.4-.09.68.68 0 0 1-.26-.24.62.62 0 0 1-.1-.33c0-.14.04-.28.12-.38.07-.1.18-.18.3-.23.13-.05.27-.08.41-.08.2 0 .37.06.54.18v.03l-.03.03.05.03.42-.33-.04-.04-.04.03a.1.1 0 0 1-.04 0h-.01a1.84 1.84 0 0 0-.4-.18 1.61 1.61 0 0 0-1.09.06c-.19.08-.34.2-.46.34a.89.89 0 0 0-.17.54c0 .18.06.35.16.5.1.15.24.27.43.36.18.09.38.13.6.13.35 0 .67-.07.97-.21zM19.7 31.04v-.25h-.04v.02l-.02.01h-.67v-.38h.54l.01.03h.04v-.25h-.04v.02l-.02.01h-.53v-.28h.62l.02.02V30h.04v-.25h-.04v.02h-.92v.04h.02l.02.02v1.12l-.02.01h-.02V31h.95l.01.02.01.02h.04zm-4.36-.1c.1.04.2.06.3.06.1 0 .2-.02.27-.05a.4.4 0 0 0 .18-.13.3.3 0 0 0 .06-.18.27.27 0 0 0-.05-.16.33.33 0 0 0-.13-.1 1.19 1.19 0 0 0-.2-.08l-.22-.07a.27.27 0 0 1-.1-.04c-.02-.02-.03-.05-.03-.08 0-.04.02-.07.06-.1a.27.27 0 0 1 .15-.03c.08 0 .16.03.24.08v.03l.02.02.23-.19-.02-.02-.02.01-.03.01a.88.88 0 0 0-.2-.1.6.6 0 0 0-.21-.04c-.1 0-.18.01-.25.04a.36.36 0 0 0-.16.12.29.29 0 0 0-.06.18c0 .07.03.13.08.18.05.04.12.08.22.11l.23.07c.13.04.2.1.2.16l-.04.07a.24.24 0 0 1-.1.06.33.33 0 0 1-.12.03.52.52 0 0 1-.38-.19v-.02l.03-.02-.03-.02-.26.2.02.03.04-.02h.01c.09.08.18.13.27.18zm7.96.02l.05.01V31h-.38v-.03H23v-.02l-.31-.48h-.2v.48l.02.02a.1.1 0 0 0 .03 0V31h-.34v-.03h.03l.02-.02v-1.11l-.02-.01h-.03v-.04h.58c.16 0 .29.03.37.1.08.06.13.14.13.24 0 .09-.03.16-.1.22a.45.45 0 0 1-.22.1l.34.5zm-.8-.99v.31h.3c.08 0 .14-.01.18-.04a.14.14 0 0 0 .06-.11c0-.05-.03-.08-.07-.11a.28.28 0 0 0-.16-.05h-.31zm4.67-.14h.04v-.04h-.38v.03l.04.01c.01 0 .02.01.01.02l-.38.84-.4-.84v-.02h.03v-.04h-.37v.03l.05.01.54 1.1v.02l-.01.02h-.02V31h.34v-.03h-.02l-.01-.02v-.02l.54-1.1zm2.59 0h-.02a.1.1 0 0 0-.03 0v-.04h.35v.03a.1.1 0 0 0-.03 0c-.02 0-.03.01-.03.02v1.11l.02.01a.1.1 0 0 0 .04.01V31h-.35v-.03a.1.1 0 0 0 .03 0l.02-.02v-1.11zm2.8.54c0 .35.33.63.73.63.21 0 .41-.08.57-.22h.02l.03.01.02-.02-.28-.2-.03.02.02.02.01.02a.53.53 0 0 1-.16.1.54.54 0 0 1-.2.04.53.53 0 0 1-.23-.05.45.45 0 0 1-.17-.15.34.34 0 0 1-.07-.2c0-.07.02-.14.06-.2.04-.07.1-.12.17-.15a.52.52 0 0 1 .23-.05.55.55 0 0 1 .38.13v.01l-.02.02.02.02.26-.17-.02-.02a.1.1 0 0 1-.04.01h-.01a.8.8 0 0 0-.57-.21.85.85 0 0 0-.36.07.63.63 0 0 0-.26.22c-.07.1-.1.2-.1.32zm4.86.41v.25h-.04v-.02l-.02-.01h-.96v-.03h.03l.02-.02v-1.11l-.02-.02h-.03v-.03h.91l.02-.01v-.02h.04V30h-.04v-.02l-.02-.02h-.62v.28h.53l.01-.01v-.02h.05v.25h-.04v-.02l-.02-.01h-.53v.37h.68l.01-.03h.04zm2.77.16c.1.04.2.06.3.06.1 0 .2-.02.28-.05a.4.4 0 0 0 .17-.13.3.3 0 0 0 .06-.18.27.27 0 0 0-.05-.16.33.33 0 0 0-.12-.1 1.18 1.18 0 0 0-.2-.08l-.23-.07a.27.27 0 0 1-.1-.04l-.02-.08c0-.04.02-.07.05-.1a.27.27 0 0 1 .16-.03c.08 0 .16.03.24.08v.02l-.01.01.02.02.23-.19-.02-.02-.02.01-.02.01a.88.88 0 0 0-.2-.1.6.6 0 0 0-.22-.04c-.1 0-.17.01-.24.04a.36.36 0 0 0-.17.12.29.29 0 0 0-.05.18c0 .07.02.13.07.18.06.04.13.08.22.11l.23.07c.13.04.2.1.2.16l-.04.07a.23.23 0 0 1-.09.06.33.33 0 0 1-.12.03.52.52 0 0 1-.39-.19v-.02l.03-.02-.03-.02-.26.2.03.03c.01-.02.02-.02.04-.02.1.08.18.13.27.18z" fill="#27432A"/><path fill-rule="evenodd" d="M49 22H7v12h42V22zM6 21v14h44V21H6z" fill="#9E5425"/></svg>