<!-- by TradingView --><svg width="56" height="56" viewBox="0 0 56 56" xmlns="http://www.w3.org/2000/svg"><path fill="#F0F3FA" d="M0 0h56v56H0z"/><path d="M36 26.07v-3.83c0-.06.02-.12.07-.16.04-.04.1-.08.16-.08h2.54a.23.23 0 0 1 .23.23v4.1l-.03.1a.23.23 0 0 1-.23.12l-2.51-.26a.23.23 0 0 1-.15-.07c-.03-.04-.08-.1-.08-.15ZM45 25.77v-3.65c0-.03.02-.06.04-.08a.13.13 0 0 1 .09-.04h2.75c.03 0 .06.02.08.04.03.02.04.06.04.09v2.97c0 .03-.04.06-.05.08a.12.12 0 0 1-.07.04l-2.72.67a.13.13 0 0 1-.15-.06.12.12 0 0 1-.01-.06ZM24 28.68v5.09c0 .13-.02.23-.15.23H21.2c-.09 0-.19-.15-.19-.23V22.13c0-.05.03-.13.08-.13h2.85c.02 0 .07.1.07.13v5.1c0 .23.08.25.23.1l4.65-4.92c.26-.28.58-.41.96-.41h2.8c.38 0 .44.18.18.45l-5.16 5.45a.16.16 0 0 0-.04.1c0 .05.02.09.04.12l5.2 5.47c.23.26.18.4-.17.41h-2.84c-.4 0-.73-.14-1-.42l-4.68-4.96c-.1-.1-.17-.09-.17.06ZM13.77 24.34l-7.65.02c-.07 0-.12-.03-.12-.1v-2.19c0-.05.04-.07.1-.07h11.64c.05 0 .1.02.15.06.04.04.06.1.06.15.02.7.21 2-.36 2.53-2.6 2.39-5.02 4.6-7.25 6.6-.2.19-.16.28.11.28h7.36c.04 0 .08.01.11.04s.08.07.08.1v2.01c0 .15-.11.23-.27.23H6.16a.15.15 0 0 1-.1-.05.14.14 0 0 1-.05-.1c.03-.47.02-.95 0-1.47-.05-.8.5-1.28 1.04-1.77 2.3-2.04 4.55-4.08 6.77-6.12.1-.1.09-.15-.05-.15Z" fill="#E62C35"/><path d="M39 29.58v4.24c0 .11-.07.18-.18.18H36.1c-.08 0-.1-.1-.1-.18v-4.96c0-.12-.11-.23-.22-.3-.68-.38-2.36-1.2-2.71-1.87-.17-.32-.07-.43.27-.3 2.52.86 5.03 1.12 7.71.9a38.01 38.01 0 0 0 10.81-2.55.1.1 0 0 1 .09.04l.01.04.02.1c.03.16-.03.29-.17.38l-3.68 2.12a.28.28 0 0 0-.14.24v6.18c0 .1-.04.16-.15.16h-2.67c-.12 0-.18-.06-.18-.17v-5c0-.13-.14-.18-.28-.14-1.8.51-3.68.75-5.53.7-.13 0-.2.07-.2.19Z" fill="#E62C35"/></svg>