<!-- by TradingView --><svg width="56" height="56" viewBox="0 0 56 56" xmlns="http://www.w3.org/2000/svg"><path fill="#F0F3FA" d="M0 0h56v56H0z"/><path fill-rule="evenodd" d="M5.7 20v.22c.79 0 1.19.82 1.3 1.23v11.16c0 1.22-1.33 2.55-2 3.05V36h4.7v-.34c-.95-.25-1.39-1.89-1.65-2.85a40.6 40.6 0 0 0-.05-.2V21.83l6.01 13.93c.07.15.22.24.38.24s.3-.1.37-.25L21 21.83V33.6c0 1.34-1.11 1.93-1.65 2.06V36h12.11v-.29c-1.1 0-1.33-1.35-1.45-2.06L30 33.6V28h2.95c1.9.4 2.69 1.44 2.84 2H36v-5h-.2c-.5 1.33-2.1 1.83-2.85 2H30v-6h4.25a6.34 6.34 0 0 1 5.02 2.48h.21L38.38 20H25.5v.18c.77 0 1.37.96 1.5 1.45V33.6c0 1.11-.91 1.8-1.4 2.06h-.46c-.8 0-1.01-1.2-1.13-1.85l-.01-.07V21.83c0-1.06.68-1.52 1.14-1.61V20h-4.17l-5.32 12.16L9.92 20H5.7Zm28.9 16H33v-.17c1.17-.61 2.23-2.2 2.62-2.92l6.55-12.8a.2.2 0 0 1 .34 0 784.07 784.07 0 0 0 7.67 14.28 4.18 4.18 0 0 0 1.7 1.61H47.4L44 29h-5.66v-.13L34.6 36Zm6.65-12.7 2.28 4.7h-4.74l2.46-4.7Z" fill="#8C734B"/></svg>