<!-- by TradingView --><svg width="56" height="56" viewBox="0 0 56 56" xmlns="http://www.w3.org/2000/svg"><path fill="#F0F3FA" d="M0 0h56v56H0z"/><path d="M14.53 14.62c0-.76.63-1.38 1.41-1.38h24.12c.78 0 1.41.62 1.41 1.38v26.5a1.4 1.4 0 0 1-1.41 1.37H15.94a1.4 1.4 0 0 1-1.41-1.38V14.62Z" fill="#FFCF08"/><path fill-rule="evenodd" d="m29 27 4-2.6v4.56l4-2.39v-7.25L30.59 16l-4.47 2.43 4.06 1.9v.43L18 27.55v8.17L25.64 40l7.08-4.06c.18-.1.28-.29.28-.5v-5.83c0-.03 0-.06-.02-.07L29 27Zm0 0v-.01l-6 3.56v2.58l3 1.46 3-1.46V27Z"/><path fill-rule="evenodd" d="M16.88 12A3.85 3.85 0 0 0 13 15.82v24.36A3.85 3.85 0 0 0 16.88 44h22.24A3.85 3.85 0 0 0 43 40.18V15.82A3.85 3.85 0 0 0 39.12 12H16.88Zm-.52 2c-.75 0-1.36.6-1.36 1.32v25.36c0 .73.61 1.32 1.36 1.32h23.28c.75 0 1.36-.6 1.36-1.32V15.32c0-.73-.61-1.32-1.36-1.32H16.36Z"/></svg>