<!-- by TradingView --><svg width="56" height="56" viewBox="0 0 56 56" xmlns="http://www.w3.org/2000/svg"><path fill="#F0F3FA" d="M0 0h56v56H0z"/><path d="M44.98 36.1C44.72 35.22 38.18 15 28 15c-10.19 0-16.77 20.2-16.98 21.1a.72.72 0 0 0 1.09.79A29.83 29.83 0 0 1 28 32.35a29.93 29.93 0 0 1 15.9 4.52c.32.22.76.13.97-.2a.69.69 0 0 0 .1-.58Zm-28.23-9.9c2.76-4.95 6.72-9.8 11.25-9.8s8.5 4.85 11.25 9.8l.02.08c0 .1-.07.17-.18.17-.03 0-.08 0-.1-.04-3.5-4.14-7.26-6.42-10.99-6.42-3.73 0-7.5 2.28-10.98 6.42a.18.18 0 0 1-.24 0c-.03-.04-.05-.08-.05-.11l.02-.1ZM15.3 30.6c2.76-4.2 7.47-9.2 12.71-9.2 5.24 0 9.94 5.01 12.7 9.2.02.03.03.06.03.1a.2.2 0 0 1-.19.19.16.16 0 0 1-.12-.05l-.24-.23c-3.84-3.4-8.04-5.26-12.18-5.26-4.14 0-8.34 1.85-12.16 5.25l-.24.23a.16.16 0 0 1-.13.05.2.2 0 0 1-.19-.2l.01-.08Zm25.96 3.18h-.08a32.07 32.07 0 0 0-26.34 0h-.08c-.1.02-.19-.07-.2-.17v-.02a.3.3 0 0 1 .08-.13c2.7-2.9 7.53-6.7 13.36-6.7 5.83 0 10.65 3.8 13.36 6.7a.3.3 0 0 1 .07.13c0 .12-.08.2-.17.2Z" fill="#39B54A"/></svg>