<!-- by TradingView --><svg width="56" height="56" viewBox="0 0 56 56" xmlns="http://www.w3.org/2000/svg"><path fill="#F0F3FA" d="M0 0h56v56H0z"/><path d="M6 22.5v2.7h1.13c.15 0 .26-.06.33-.2.06-.14.11-.3.15-.5.02-.1.1-.14.2-.14l.19.03v2.08a.76.76 0 0 1-.17.02c-.12 0-.2-.05-.22-.14-.04-.2-.09-.36-.15-.5a.33.33 0 0 0-.33-.2H6v2.5c0 .14.1.24.3.29.21.05.55.07 1.03.07h.62c.8 0 1.28-.5 1.64-1.16.02-.05.08-.08.17-.08.08 0 .16.06.24.1-.07.13-.13.3-.18.48a117.47 117.47 0 0 1-.28.97c-.05.12-.12.18-.2.18H4.03a.85.85 0 0 1-.02-.17c0-.1.04-.15.11-.17.3-.05.58-.1.7-.16a.3.3 0 0 0 .19-.3v-5.38c0-.15-.06-.24-.17-.3-.1-.05-.4-.1-.72-.16-.07-.01-.11-.07-.11-.18a.6.6 0 0 1 0-.09l.02-.09H9.1c.1 0 .16.06.2.17.06.24.1.57.16.94.03.19.09.34.17.47a.35.35 0 0 1-.2.06c-.1 0-.17-.03-.2-.1-.32-.65-.75-1.04-1.53-1.04H6ZM13.13 26.81h-1.65l-.44 1.45a.58.58 0 0 0-.04.18c0 .13.13.22.43.27.03 0 .05.02.07.05l.01.1-.01.14H10a.71.71 0 0 1-.01-.14c0-.05 0-.08.02-.11.01-.03.04-.05.08-.06.15-.03.26-.06.34-.1a.39.39 0 0 0 .17-.22l1.78-5.22c.03-.1.08-.15.14-.15.02 0 .05 0 .08.02l1.8 5.38c.02.08.09.15.2.2.1.04.2.08.3.1.02 0 .05.02.06.04.02.02.03.06.03.12l-.01.14h-1.85a.94.94 0 0 1-.02-.14c0-.06.01-.1.03-.12.02-.02.03-.03.05-.03.13-.03.23-.06.3-.1.09-.04.13-.1.13-.18a.41.41 0 0 0-.03-.13l-.47-1.49Zm-.12-.36-.68-2.2-.72 2.2h1.4ZM18.8 24.5a.77.77 0 0 1-.13.02c-.08 0-.14-.02-.18-.05a.31.31 0 0 1-.08-.1c-.29-.62-.75-.97-1.45-.97-.5 0-.96.29-.96.86 0 1.6 3 1.1 3 3 0 1.17-.91 1.74-2 1.74-.75 0-1.37-.17-1.8-.42a8.86 8.86 0 0 0-.2-1.42.4.4 0 0 1 .15-.02c.08 0 .13.01.17.05a.4.4 0 0 1 .1.15c.27.76.75 1.25 1.59 1.25.6 0 .99-.36.99-1 0-1.64-3-1.1-3-3 0-.98 1.05-1.59 1.97-1.59.59 0 1.15.14 1.7.35.02.35.06.8.13 1.15ZM22 23.43v4.84c0 .14.05.24.15.3.1.06.27.1.5.13.06 0 .09.05.09.15 0 .04 0 .09-.02.15h-2.45a.93.93 0 0 1-.01-.15c0-.09.02-.14.07-.15.24-.04.4-.08.51-.14.1-.05.16-.15.16-.29v-4.84h-.8c-.4 0-.58.14-.75.5a6.28 6.28 0 0 0-.23.46.15.15 0 0 1-.07.02.22.22 0 0 1-.15-.06 7.26 7.26 0 0 0 .19-1l.06-.26c.03-.06.07-.09.12-.09h4.26c.05 0 .1.03.12.1l.06.26.07.43c.02.17.06.36.12.56l-.07.04a.17.17 0 0 1-.15 0 .1.1 0 0 1-.06-.06 4.41 4.41 0 0 0-.17-.4c-.18-.36-.35-.5-.74-.5H22ZM28.7 28.82c-.63.13-.9.18-1.54.18-2.03 0-3.16-1.58-3.16-3.5 0-1.8 1.21-3.5 3.12-3.5.6 0 1.1.15 1.67.31.03.49.1 1.02.21 1.52l-.07.03a.53.53 0 0 1-.1 0c-.1 0-.16-.04-.19-.13-.21-.89-.38-1.3-1.28-1.3-1.61 0-2.36 1.4-2.36 2.86 0 1.47.64 3.27 2.34 3.27.36 0 .41-.06.66-.14v-1.5c0-.4-.18-.5-.53-.56a.12.12 0 0 1-.1-.07.3.3 0 0 1-.03-.12c0-.06 0-.11.02-.17h2.27l.01.17c0 .07 0 .11-.03.14a.15.15 0 0 1-.08.04c-.4.06-.53.17-.53.45v1.76c0 .07-.02.12-.05.16-.03.04-.12.08-.26.1ZM32.73 26.37H32v1.93c0 .27.33.33.88.4.08 0 .12.06.12.15 0 .04 0 .09-.02.15h-2.96a.72.72 0 0 1-.02-.14c0-.09.04-.14.1-.15.5-.07.9-.15.9-.39V23.7c0-.12-.05-.2-.14-.26-.1-.06-.5-.1-.77-.13-.07 0-.1-.06-.1-.16 0-.03 0-.08.02-.14h2.82c1.02 0 1.86.48 1.86 1.64 0 .72-.6 1.3-1.25 1.5l1.64 2.1c.2.28.5.4.83.47.06.01.09.05.09.13 0 .05 0 .1-.02.16h-1.15c-.14 0-.28-.1-.42-.2-.14-.12-.27-.26-.4-.42l-1.28-2Zm-.2-.37c.8 0 1.14-.41 1.14-1.29 0-.87-.36-1.3-1.18-1.3H32V26h.52ZM36 26c0-1.54 1.27-3 2.86-3 1.76 0 3.14 1.24 3.14 3 0 1.77-1.35 3-3.07 3C37.2 29 36 27.68 36 26Zm3.14 2.57c1.18 0 1.86-1 1.86-2.13 0-1.38-.54-3.01-2.17-3.01-1.15 0-1.83.97-1.83 2.06 0 1.35.53 3.08 2.14 3.08ZM47.42 26.7c0 1.46-.82 2.3-2.28 2.3-1.49 0-2.14-.77-2.14-2.26v-3.06c0-.12-.04-.2-.12-.26-.09-.05-.24-.1-.47-.12-.06 0-.09-.06-.09-.16l.02-.14h2.35l.02.14c0 .1-.03.15-.09.16-.22.03-.38.07-.48.12-.1.06-.14.14-.14.26v2.86c0 1.07.04 1.94 1.21 1.94 1.27 0 1.79-.74 1.79-1.96v-2.84c0-.12-.04-.2-.13-.26-.09-.05-.25-.1-.48-.12-.06 0-.1-.06-.1-.16l.03-.14h1.66l.02.14a.2.2 0 0 1-.03.1c-.01.03-.04.05-.07.06-.21.02-.27.06-.35.12-.09.06-.13.14-.13.26v3.03Z" fill="#016A6E"/><path d="M49 26.37v1.88c0 .14.06.24.18.3.13.06.31.1.56.14.06.01.1.06.1.16 0 .04 0 .09-.02.15h-2.45a.84.84 0 0 1-.01-.15c0-.08.02-.13.08-.14.22-.05.37-.1.45-.14.07-.05.11-.13.11-.25v-4.63c0-.12-.04-.2-.13-.26s-.24-.1-.46-.13c-.06-.01-.09-.07-.09-.16 0-.05 0-.1.02-.14h2.85c1.01 0 1.81.67 1.81 1.7 0 .97-.88 1.67-1.8 1.67H49Zm.9-.37c.8 0 1.1-.44 1.1-1.22 0-.74-.27-1.36-1.1-1.36H49V26h.9ZM4 31h48v3H4z" fill="#016A6E"/></svg>