<!-- by TradingView --><svg width="56" height="56" viewBox="0 0 56 56" xmlns="http://www.w3.org/2000/svg"><path fill="#F0F3FA" d="M0 0h56v56H0z"/><path d="M16.52 34h-2.4l-1.03-2.96H8.42L7.4 34H5l4.37-12h2.77l4.38 12Zm9.93-10.18h-6.1v3.26h5.66v1.82h-5.66v3.28h6.15V34H18V22h8.45v1.82Zm6.9 2.57h.1L36.2 22h2.56l-3.82 6 3.88 6h-2.6l-2.77-4.37h-.1L30.6 34H28l3.92-6-3.87-6h2.57l2.74 4.4ZM51 34h-2.4l-1.02-2.96h-4.66L41.9 34h-2.4l4.36-12h2.77L51 34ZM9.03 29.3h3.45l-1.68-4.84h-.1L9.04 29.3Zm34.5 0h3.44l-1.68-4.84h-.1l-1.67 4.83Z"/></svg>