<!-- by TradingView --><svg width="56" height="56" viewBox="0 0 56 56" xmlns="http://www.w3.org/2000/svg"><path fill="url(#ayfhwaz3q)" d="M0 0h56v56H0z"/><path fill-rule="evenodd" d="m13.28 16.08 2-1.96a.4.4 0 0 1 .34-.11c2.55.37 8.24 1.07 12.19 1.07 3.96 0 9.68-.7 12.2-1.08a.4.4 0 0 1 .31.09l2.53 1.98c.1.07.15.18.15.3-.02 5.06-.7 16.59-3.34 24a.38.38 0 0 1-.12.18C37.24 42.4 31.81 46 27.81 46c-4.02 0-9.1-3.62-11.2-5.47a.36.36 0 0 1-.09-.12c-1.5-3-4.22-11.87-3.36-24.07.01-.1.05-.19.12-.26ZM17 31.7c0-1.72 1.69-2.69 2.81-2.69 5.07 0 6.19 1.62 6.19 3.23A4.13 4.13 0 0 1 22.06 36C19.81 36 17 33.85 17 31.7Zm22 0c0-1.72-1.69-2.69-2.81-2.69-5.06 0-6.19 1.62-6.19 3.23A4.13 4.13 0 0 0 33.94 36c2.25 0 5.06-2.15 5.06-4.3Z" fill="#FC0"/><defs><linearGradient id="ayfhwaz3q" x1="10.42" y1="9.71" x2="68.15" y2="76.02" gradientUnits="userSpaceOnUse"><stop stop-color="#1A1E21"/><stop offset="1" stop-color="#06060A"/></linearGradient></defs></svg>