<!-- by TradingView --><svg xmlns="http://www.w3.org/2000/svg" width="56" height="56" viewBox="0 0 56 56"><path fill="#041A54" d="M0 0h56v56H0z"/><path d="M22.4 14a1.3 1.3 0 0 0 .98.23 1.36 1.36 0 0 0 .56-2.45 1.32 1.32 0 0 0-1.88.26c-.45.6-.33 1.44.25 1.9l.08.05ZM32.07 14.1a1.28 1.28 0 0 0 1.02.07 1.37 1.37 0 0 0 .84-1.74 1.34 1.34 0 0 0-2.48-.17 1.4 1.4 0 0 0 .62 1.84ZM41.05 17.35a1.35 1.35 0 0 0-1.7.9c-.21.72.18 1.5.9 1.72a1.38 1.38 0 0 0 1.03-.1c.45-.24.71-.71.72-1.2a1.37 1.37 0 0 0-.95-1.32ZM44.73 27.16a1.34 1.34 0 0 0-1.9-.27c-.6.45-.72 1.3-.27 1.92.45.6 1.3.74 1.9.28a1.38 1.38 0 0 0 .27-1.93ZM40.65 35.93h-.02a1.4 1.4 0 0 0-1.33 1.48 1.4 1.4 0 0 0 1.35 1.35h.03A1.4 1.4 0 0 0 42 37.28a1.4 1.4 0 0 0-1.34-1.35h-.01ZM33.61 42c-.6-.43-1.45-.29-1.88.33a1.4 1.4 0 0 0 .31 1.92c.61.44 1.46.29 1.89-.33a1.38 1.38 0 0 0-.32-1.91ZM22.73 41.85a1.35 1.35 0 0 0 .42 2.62c.14 0 .28-.03.42-.07.7-.2 1.12-.95.92-1.66a1.32 1.32 0 0 0-1.64-.93l-.12.04ZM15.74 36.04a1.35 1.35 0 0 0-1.7.9c-.22.72.18 1.5.9 1.72a1.36 1.36 0 0 0 1.75-1.32c0-.6-.4-1.12-.95-1.3ZM11.54 26.87c-.6.45-.72 1.32-.28 1.92.45.6 1.3.74 1.9.29.59-.45.71-1.32.27-1.92a1.34 1.34 0 0 0-1.89-.29ZM15.34 20.03h.02a1.37 1.37 0 0 0 1.28-1.43c-.02-.71-.6-1.29-1.3-1.31h-.01c-.75.03-1.33.67-1.3 1.44.04.7.6 1.28 1.3 1.3ZM19.69 18.66a1.33 1.33 0 0 0 1 .23 1.38 1.38 0 0 0 1.11-1.58 1.36 1.36 0 0 0-1.56-1.13c-.35.06-.66.27-.87.56a1.4 1.4 0 0 0 .32 1.92ZM27.37 16.2a1.25 1.25 0 0 0 1.02.07 1.37 1.37 0 0 0 .85-1.73c-.23-.72-1-1.1-1.7-.87a1.37 1.37 0 0 0-.86 1.73v.01c.12.34.37.63.69.8ZM34.98 18.79a1.37 1.37 0 0 0 1.76-1.31c0-.77-.6-1.37-1.35-1.38-.75 0-1.34.61-1.35 1.37-.01.6.37 1.14.94 1.32ZM39.85 25.29l.2.02c.75 0 1.35-.62 1.35-1.37 0-.76-.6-1.37-1.35-1.37-.75 0-1.35.62-1.35 1.37 0 .66.5 1.24 1.15 1.35ZM40.07 33.4a1.36 1.36 0 0 0 1.29-1.44c-.03-.71-.6-1.29-1.3-1.31h-.03c-.75.03-1.33.68-1.29 1.44.03.71.6 1.29 1.31 1.3h.02ZM36.16 37.41c-.6-.44-1.45-.3-1.88.32a1.4 1.4 0 0 0 .31 1.92c.61.44 1.46.3 1.9-.32.42-.63.28-1.49-.33-1.92ZM27.57 39.67a1.39 1.39 0 0 0-.85 1.76c.18.56.7.93 1.28.94.15 0 .29-.03.43-.07a1.4 1.4 0 0 0 .77-1.8 1.36 1.36 0 0 0-1.64-.82v-.01ZM21.77 37.95a1.35 1.35 0 0 0-.78-.68 1.35 1.35 0 0 0-1.7.9c-.22.73.17 1.5.89 1.72a1.35 1.35 0 0 0 1.7-.91c.1-.33.06-.71-.1-1.03ZM16.14 30.69a1.35 1.35 0 0 0-1.55 1.1c-.12.73.36 1.43 1.08 1.57h.08l.2.03A1.37 1.37 0 0 0 17 31.22c-.2-.29-.52-.48-.87-.53ZM15.93 22.55h-.02c-.75.03-1.32.68-1.29 1.44.03.71.6 1.29 1.31 1.3h.02a1.38 1.38 0 0 0-.02-2.75ZM23.94 17.79a1.4 1.4 0 0 0 .33 1.91c.6.45 1.45.29 1.88-.33a1.4 1.4 0 0 0-.32-1.91c-.3-.21-.66-.3-1-.24-.37.07-.69.26-.89.57ZM29.59 19.03c.2.58.72.97 1.33.97a1.42 1.42 0 0 0 1.33-1.87 1.4 1.4 0 0 0-1.83-.77c-.66.27-1 .99-.83 1.67ZM36.94 22.67a1.37 1.37 0 0 0-.89-1.72 1.35 1.35 0 0 0-1.7.9 1.38 1.38 0 0 0 1.3 1.8c.59-.02 1.1-.4 1.29-.98ZM36.79 26.9a1.36 1.36 0 0 0 .6 2.44l.2.02c.3 0 .57-.1.8-.26.6-.43.76-1.28.33-1.9a1.32 1.32 0 0 0-1.85-.33c-.03 0-.05.02-.08.03ZM34.73 32.8c-.54.56-.53 1.46.02 2 .26.27.61.4.97.4h.02a1.4 1.4 0 0 0 1.29-1.5 1.4 1.4 0 0 0-1.3-1.32h-.02c-.37 0-.72.16-.98.42ZM32.02 38.2a1.4 1.4 0 0 0-.31-1.93c-.6-.44-1.46-.29-1.89.33a1.38 1.38 0 0 0 1.1 2.17l.24-.02c.34-.06.66-.26.86-.56ZM26.33 36.91c-.24-.72-1-1.1-1.72-.86a1.37 1.37 0 0 0-.84 1.74 1.36 1.36 0 0 0 1.7.87 1.4 1.4 0 0 0 .86-1.75ZM20.7 32.47a1.3 1.3 0 0 0-1.03.1 1.39 1.39 0 0 0 .22 2.53 1.37 1.37 0 0 0 1.76-1.3c0-.62-.39-1.15-.95-1.33ZM19.75 28.18c.1-.76-.4-1.45-1.14-1.56-.74-.1-1.43.41-1.53 1.16-.05.37.04.73.25 1.02.44.6 1.29.74 1.88.29.3-.22.5-.55.54-.91ZM20.32 20.76h-.02c-.75 0-1.35.63-1.35 1.38 0 .75.62 1.37 1.36 1.37h.02a1.37 1.37 0 0 0 1.29-1.43 1.35 1.35 0 0 0-1.3-1.32Z" fill="#fff"/></svg>