<!-- by TradingView --><svg width="56" height="56" xmlns="http://www.w3.org/2000/svg"><path fill="#003865" d="M0 0h56v56H0z"/><path d="M11.964 27.54c1.245-6.453 3.096-9.86 3.866-10.756 3.814 0 11.058 3.354 11.256 3.434.197.08.272.189.272.33 0 .056-.115.107-.202.15l-14.497 7.121c-.292.15-.445.104-.577.079-.132-.025-.134-.249-.118-.357zM20.555 14.634c6.333-2.347 10.299-2.6 11.49-2.432 1.987 3.149 2.81 10.884 2.843 11.089.032.205-.025.324-.149.397-.05.03-.155-.04-.238-.088l-13.83-8.247c-.284-.162-.322-.313-.369-.435-.046-.122.15-.24.253-.284zM35.936 14.893c5.456 4.043 7.779 7.204 8.258 8.279-1.778 3.281-8.293 7.972-8.46 8.105-.166.133-.303.147-.435.083-.053-.026-.105-.15-.105-.244l-.01-15.754c-.005-.32.279-.43.364-.532.084-.102.294 0 .388.063zM44.072 28.193c-1.035 6.488-2.775 9.95-3.516 10.869-3.811.116-11.161-3.016-11.36-3.09-.2-.074-.28-.18-.284-.321-.002-.057.112-.111.198-.157l14.259-7.558c.286-.16.441-.117.574-.096.132.02.141.244.13.353zM35.811 41.551c-6.38 2.227-10.352 2.405-11.54 2.215-1.928-3.183-2.601-10.928-2.63-11.134-.028-.205.03-.323.157-.394.05-.029.154.042.236.093l13.674 8.499c.281.168.317.32.361.442.045.123-.153.237-.258.28zM20.086 41.078c-5.467-4.026-7.796-7.178-8.277-8.251 1.778-3.284 8.296-7.987 8.464-8.12.167-.134.304-.149.436-.084.053.026.046.149.046.243l-.004 15.741c.005.32-.191.43-.276.532-.085.102-.295.002-.39-.061z" fill="#fff"/><path d="M17.915 20.887c-.774.49-4.202 4.874-5.82 7.006 0 0 .224.078.476-.033l14.622-7.18c.2-.073.166-.155.166-.155-2.826-.083-8.671-.126-9.444.363zM29.52 16.063c-.835-.383-6.49-.923-9.212-1.146 0 0 .048.226.277.377l13.96 8.317c.17.126.225.056.225.056-1.403-2.375-4.416-7.221-5.25-7.604zM39.371 23.078c-.095-.889-2.596-5.848-3.835-8.217 0 0-.345.157-.36.424V31.15c-.024.205.116.214.116.214 1.4-2.391 4.175-7.396 4.08-8.286zM38.339 35.023c.757-.511 4.041-4.999 5.59-7.178 0 0-.227-.071-.476.047l-14.381 7.62c-.197.08-.162.16-.162.16 2.828-.002 8.671-.137 9.429-.648zM26.874 39.95c.827.4 6.47 1.043 9.187 1.315 0 0-.044-.226-.27-.38L22 32.31c-.167-.13-.224-.06-.224-.06 1.356 2.4 4.273 7.302 5.1 7.7zM16.631 32.909c.097.889 2.607 5.843 3.85 8.21 0 0 .257-.158.27-.425V24.829c.025-.205-.051-.214-.051-.214-1.397 2.394-4.166 7.405-4.069 8.294z" fill="#BFBFBF"/></svg>