<!-- by TradingView --><svg width="56" height="56" viewBox="0 0 56 56" xmlns="http://www.w3.org/2000/svg"><path fill="#F93822" d="M0 0h56v56H0z"/><path d="M24 25.3h1V25h-3v.3h1v2.4h-3v-2.4h1V25h-3v.3h1v5.4h-1v.3h3v-.3h-1V28h3v2.7h-1v.3h3v-.3h-1v-5.4ZM28.47 28.16c0-.97-.6-1.16-1.25-1.16s-1.1.25-1.56.52c-.3.18-.5.38-.5.64 0 .22.19.36.5.36a.7.7 0 0 0 .41-.13c-.15-.94.43-1.1.92-1.1.4 0 .5.14.5.68.02.5-.55.75-.93.9-.84.37-1.4.47-1.4 1.13 0 .58.51 1 1.2 1 .52 0 1-.35 1.13-.81l.04.81H29v-.3h-.55l.02-2.54Zm-1 1.52c0 .5-.31.69-.63.69-.39 0-.7-.12-.7-.62 0-.54.57-.62 1.03-.93.12-.07.22-.16.32-.25l-.02 1.1ZM31 28.32l.43-.47h1.1l.5-.85H32l-1 1v-1l-1.62.61v.03L30 28v2.71h-.61V31h2.48v-.29H31v-2.4ZM50 28.32l.43-.47h1.1l.5-.85H51l-1 1v-1l-1.62.61v.03L49 28v2.71h-.61V31h2.48v-.29H50v-2.4ZM41 27c-1.2 0-2 .87-2 1.97A1.98 1.98 0 0 0 41 31c1.18 0 2-.87 2-1.97A1.98 1.98 0 0 0 41 27Zm.25 3.66c-.57 0-.92-.44-1.16-1.31-.1-.35-.15-.72-.16-1.08 0-.67.43-.96.81-.96.57 0 .93.46 1.16 1.33.1.35.16.71.17 1.08 0 .68-.43.94-.82.94ZM47.5 27h-1.7v.3h.65v2.23c0 .79-.44 1.13-.97 1.13-.46 0-.48-.31-.48-1.13V27h-1.7v.3h.7v2.26c0 1.03.5 1.44 1.29 1.44.68 0 1-.14 1.16-.69V31H48v-.3h-.5V27Z" fill="#fff"/><path d="M18 27h-1.42v.3h.53L16 29.7l-1-2.41h.63V27h-3.24L11 28.61V25H9.43v.3H10V31h1v-2.17l1.77 2.18h1.17l-1.96-2.3h-.62l.79-.94h.88l.66-.47h.2l1.59 3.55L15 32h-1.63l.66 1h1.83l-.66-.78 2.2-4.92h.6V27ZM6.93 27.49l-.82-.18c-.6-.15-1.12-.53-1.12-1.19 0-.78.76-.83 1.4-.83.35 0 .58.06.69.2L8.63 27h.1l-.45-1.77A6.87 6.87 0 0 0 6.55 25c-1.3 0-2.47.62-2.47 1.66 0 .88.78 1.43 1.76 1.66l.8.18c.72.16 1.36.5 1.36 1.2 0 .83-.87 1.04-1.63 1.04-.4 0-.66-.07-.8-.26L4.1 28.5H4l.41 2.28c.62.15 1.27.23 1.91.22C7.97 31 9 30.26 9 29.23c0-.98-.95-1.5-2.07-1.74ZM36.34 27c-.28 0-.55.07-.8.2-.23.13-.42.31-.54.53V25h-1.7v.3h.7v5.4h-.7v.3H35v-.64c.12.2.3.36.53.48.22.1.48.17.73.16 1.03 0 1.74-.79 1.74-2.05 0-1.35-.72-1.95-1.66-1.95Zm-1.33 2.89v-1.8c.11-.31.45-.53.8-.54.71 0 1.2.33 1.2 1.45 0 .96-1.26 2.19-2 .89Z" fill="#fff"/></svg>