<!-- by TradingView --><svg width="56" height="56" viewBox="0 0 56 56" xmlns="http://www.w3.org/2000/svg"><path fill="#F0F3FA" d="M0 0h56v56H0z"/><path d="M17 21.37c-1.18.13-2 .2-2 2.47V34h-.32L7 23.41v7.54c0 1.99.63 2.63 2 2.68V34H4v-.37c1.42-.1 2-.6 2-2.68v-8.52c-.77-.97-1.25-1.06-2-1.06V21h3.2l6.8 9.3v-6.46c0-2.22-.73-2.38-2-2.47V21h5v.37Z" fill="#006942"/><path d="M16 33.7c1-.2 1-.17 1-1.7v-4.53c0-1.16-.32-1.18-.6-1.18-.23 0-.45.04-.67.08v-.3c.88-.33 2.08-.7 2.95-1.07l.32.05V32c0 1.3 0 1.5 1 1.7v.3h-4v-.3ZM17.98 22A1 1 0 0 1 19 23c0 .57-.43 1-1.02 1-.7 0-.98-.63-.98-1s.3-1 .98-1ZM27 31c-.98 2.18-2.15 3-3.62 3-1.45 0-3.38-1.24-3.38-4.27 0-3.14 2.1-4.73 4.05-4.73.65 0 1.47.29 1.92.6.54.4.78.99.78 1.33 0 .44-.3.8-.84.85-.47.03-.77-.46-.88-.88l-.11-.43c-.15-.57-.24-.91-1.2-.91-.66 0-2.22.63-2.22 3.44 0 2.2 1.03 3.5 2.55 3.5 1.3 0 2.08-.7 2.7-1.68l.25.17Z" fill="#006942"/><path d="M31.4 25a4.3 4.3 0 0 0-4.4 4.44A4.37 4.37 0 0 0 31.47 34c3.1 0 4.53-2.66 4.53-4.56 0-2.77-1.92-4.44-4.6-4.44Zm.36 8.46c-2.45 0-2.76-3.54-2.76-4.96 0-2 .96-2.96 2.25-2.96 1.87 0 2.75 2.09 2.75 4.46 0 2.74-1.2 3.46-2.24 3.46ZM36.03 33.72c.97-.22.97-.27.97-1.32v-9.08c0-.85 0-1.22-.43-1.22-.22 0-.37.02-.57.04v-.3c.89-.25 1.78-.52 2.67-.84l.33.04V32.4c0 1.1.08 1.32 1 1.32V34h-3.97v-.28ZM46.72 30.67c-.4.7-1.16 1.83-2.72 1.83-1.16 0-2.57-.61-2.78-4h5.45c-.2-2.5-1.44-3.5-3.1-3.5-1.4 0-3.57 1.17-3.57 4.71 0 2.72 1.33 4.29 3.28 4.29 2.53 0 3.54-2.6 3.72-3.2l-.28-.13ZM41.26 28c.28-1.68.97-2.31 1.93-2.31 1.39 0 1.56 1.4 1.69 2.31h-3.62ZM51.55 26H50v5.35c0 .58 0 1.68.6 1.68.61 0 .95-.41 1.16-.65l.24.2c-.45.8-1.33 1.42-2.2 1.42-.96 0-1.8-.5-1.8-2.37V26h-.93c-.03-.02-.07-.08-.07-.13 0-.23.41-.34.83-.75.9-.9 1.17-1.13 2.04-2.13.13 0 .13.1.13.24v2.26h1.55v.5Z" fill="#006942"/></svg>