<!-- by TradingView --><svg width="56" height="56" viewBox="0 0 56 56" xmlns="http://www.w3.org/2000/svg"><path fill="#F0F3FA" d="M0 0h56v56H0z"/><path fill-rule="evenodd" d="M11.68 20h15.68c-2.23 1.26-3.12 2.86-3.25 4.45l-.01.55h-5.5c-.54-2.03-1.6-3.42-2.84-3.42-1.77 0-3.2 2.85-3.2 6.37 0 3.51 1.43 6.36 3.2 6.36 1.59 0 2.9-2.3 3.16-5.31H16v-2h8.45a5.92 5.92 0 0 0 1.79 2.74 8.9 8.9 0 0 1 1.98 3.1c-1.3 0-2.48-.6-2.9-.89l-.4.32c.85.73 2.56 1.1 3.3 1.18l-.18.76a6.9 6.9 0 0 1-4.2-1.56l-.55.2c.98 1.28 3.36 1.86 4.43 1.99l-.6.68a10.02 10.02 0 0 1-5.29-2.45h-.52c.88 1.51 3.48 2.58 4.67 2.93h-14.3c-4.1-.67-5.5-4.56-5.68-6.42V26.8c.43-4.89 3.97-6.58 5.68-6.81Zm11.49 10.12.39.64.32-.17-.32-.62-.39.15Zm-3.1.92-.25-.72h.38l.32.72h-.46Zm.75 1.41-.47-.75h.47l.5.75h-.5Zm.79-2.03.34.7.45-.08-.35-.62h-.44Zm1.14 1.94-.47-.66.54-.1.43.6-.5.16Zm1.62-.56-.49-.52.42-.16.43.48-.36.2Zm5.12-4.1c0 .93-.78 1.69-1.74 1.69-.97 0-1.75-.76-1.75-1.7 0-.93.78-1.69 1.75-1.69.96 0 1.74.76 1.74 1.7ZM28.18 36H37v-6h3.37c.62.08 1.51.55 1.63 2.1V36h8a2.04 2.04 0 0 1-.93-1.59V31.5a4.1 4.1 0 0 0-3.23-3.46c1.07-.3 3.23-1.5 3.23-3.86 0-2.95-2.45-4-4.57-4.18H29.93c1 .33 3.3 1.42 4.48 3.2h-.6a8.3 8.3 0 0 0-5.14-2.72l-.65.86c.76-.05 2.7.29 4.38 2.09l-.52.18a6.57 6.57 0 0 0-4.05-1.7l-.15.93c.71.04 2.33.37 3.1 1.3l-.4.23a5.14 5.14 0 0 0-2.55-.94c.2.56.9 1.95 2.1 3.03a6.1 6.1 0 0 1 1.82 4.27A5.55 5.55 0 0 1 28.18 36Zm6.2-12.1h.54l.43.88h-.43l-.53-.88Zm-1.41.1-.54.12.54.73.48-.07-.48-.78Zm-2.03.78.41-.25.46.6-.34.26-.53-.61Zm.87 1.07.35-.17.27.61-.27.13-.35-.57Zm1.5-.46h.48l.24.64h-.42l-.3-.64Zm2.35 0h-.44l.3.82h.43l-.3-.82ZM37 22h2.5a2.5 2.5 0 0 1 0 5H37v-5Z" fill="#015FA9"/></svg>