<!-- by TradingView --><svg width="56" height="56" viewBox="0 0 56 56" xmlns="http://www.w3.org/2000/svg"><path fill="#F0F3FA" d="M0 0h56v56H0z"/><path d="M39.05 25.34c1-.27 1.69-1 1.69-2.1v-.05c0-.57-.21-1.1-.58-1.51a2.97 2.97 0 0 0-2-.68H35v7h1.4v-2.46h1.24L39.38 28H41l-1.95-2.66Zm-2.65-.84V22H38c.95 0 1.47.57 1.47 1.3 0 .73-.58 1.2-1.42 1.2H36.4ZM33 28v-1h-.27v-1.06h-.22v-.66h-.16V22h-.06v-.49h-.1v-.35l-.5-.55h-.05v-.5l-.11-.1v-.66s0-.05-.06-.05v-.25s0-.05-.05-.05v.3c-.06 0-.06.05-.06.05v.66l-.1.1v.5h-.06l-.38.55v.35h-.11V22h-.06v3.28h-.16v.66h-.22V27H30v1h3ZM26.06 21H23v7h1.4v-2.32h1.48c1.74 0 3.12-.76 3.12-2.28v-.05C29 21.9 27.9 21 26.06 21Zm1.56 2.35c0 .73-.64 1.25-1.68 1.25H24.4V22h1.54c1.04 0 1.68.51 1.68 1.35ZM13.6 21v7H15v-3.1l2.3 3.1 2.3-3.1V28H21v-7l-3.76 4.98L13.6 21ZM12 21v1H7.4v2H11v1H7.4v2H12v1H6v-7h6ZM49 21v1h-4.6v2H48v1h-3.6v2H49v1h-6v-7h6ZM44 31v1h-4.6v2H43v1h-3.6v2H44v1h-6v-7h6ZM26.94 31l-3.52 7h1.38l.77-1.47h2.86L29.2 38h1.38l-3.64-7Zm-.82 4.41.82-1.67.83 1.67h-1.65ZM20 38h1.43v-6h2.3v-1H17.7v1H20v6ZM32.57 38H34v-6h2.3v-1h-6.02v1h2.29v6ZM11 36.94c.92.7 2.02 1.06 3.23 1.06 1.62 0 2.77-.76 2.77-2.01v-.05c0-1.11-.87-1.62-2.48-1.97-1.5-.3-1.85-.55-1.85-1.06v-.05c0-.45.46-.8 1.27-.8.7 0 1.39.25 2.08.7l.75-.9a4.72 4.72 0 0 0-2.83-.86c-1.5 0-2.6.8-2.6 1.96v.05c0 1.26.93 1.67 2.54 2.02 1.45.25 1.74.55 1.74 1v.06c0 .5-.52.85-1.39.85-.92 0-1.73-.35-2.42-.9l-.81.9Z" fill="#6B9937"/></svg>