<!-- by TradingView --><svg width="56" height="56" viewBox="0 0 56 56" xmlns="http://www.w3.org/2000/svg"><path fill="#F0F3FA" d="M0 0h56v56H0z"/><path d="M11 23a5 5 0 0 0 0 10h6v-3h-6a2 2 0 1 1 0-4h6v-3h-6Zm13 0a5 5 0 0 0 0 10h6v-3h-6a2 2 0 1 1 0-4h6v-3h-6Z" fill="#204C8C"/><path fill="#1BA2A6" d="M32 30h3v3h-3z"/><path d="M48 24.14V33h-3v-6.82l-4.13 4.42a1.12 1.12 0 0 1-1.73-.01l-3.53-4.18a1.12 1.12 0 0 0-.87-.41H32v-3h3.17c.7 0 1.36.33 1.79.89l2.69 3.43a.45.45 0 0 0 .7 0l2.8-3.46a2.25 2.25 0 0 1 1.77-.86h1.95c.63 0 1.13.5 1.13 1.14Z" fill="#204C8C"/></svg>