<!-- by TradingView --><svg width="56" height="56" viewBox="0 0 56 56" xmlns="http://www.w3.org/2000/svg"><path fill="url(#atggucp15)" d="M0 0h56v56H0z"/><path d="M27.02 16h2.42c.66.04 1.33.1 1.99.17 4.49.48 8.02 2.3 10.6 5.47.1.12.08.13-.04.04a21.72 21.72 0 0 0-8.17-3.9 19.68 19.68 0 0 0-12.28 1.17c-1.4.59-2.62 1.4-3.66 2.41a5.06 5.06 0 0 0-1.63 3.05 3.87 3.87 0 0 0 1.16 3.23c1.3 1.37 3.12 2.14 5.47 2.31.97.07 2.42.08 4.36.02 2.04-.07 3.58-.06 4.61.03 2.28.2 3.93.82 4.95 1.87.99 1 1.37 2.26 1.16 3.78a9.46 9.46 0 0 1-2.5 5.02 13.47 13.47 0 0 1-4.54 3.31c-.07.03-.07.02-.02-.03 2.9-2.81 4.1-5.56 3.57-8.24-.44-2.25-2.85-3.25-7.22-3-1.3.07-2.62.18-3.93.31-1.09.12-2.1.13-3 .03-3.94-.42-6.5-1.73-7.66-3.94a5.61 5.61 0 0 1-.64-3.09c.26-3.62 2.6-6.33 7.04-8.12l.6-.25c1.17-.48 2.07-.8 2.69-.97 1-.27 1.83-.43 2.5-.5.73-.05 1.44-.12 2.17-.18Z" fill="#DE4096"/><path d="M39.5 23.62c-2.57-1.63-6.2-2.21-10.86-1.74-.95.1-1.89.3-2.8.63-1.44.5-1.86 1.09-1.28 1.75a.4.4 0 0 0 .26.13c.52.06 1 .07 1.44 0 .93-.14 1.8-.24 2.6-.32 1.34-.13 2.9-.07 4.66.17 1.8.25 3.37.75 4.72 1.52 1.91 1.08 3.08 2.47 3.52 4.19.48 1.87-.2 3.85-2.03 5.94-.05.06-.06.05-.04-.02.18-.73.27-1.46.26-2.2-.03-3.02-2.13-5.02-6.29-6a9.63 9.63 0 0 0-2.33-.25l-1.49.02c-1.98.04-3.45.05-4.43.03-4.2-.08-6.02-1.25-5.47-3.5.58-2.34 2.8-3.82 6.66-4.45 3.23-.52 6.42-.27 9.56.76 2.24.74 4.04 1.84 5.4 3.3A8.85 8.85 0 0 1 44 29.35c0 .29-.03.3-.11.02a10.2 10.2 0 0 0-4.38-5.75Z" fill="#32B0E5"/><path d="M25.47 35.38c1.47-.13 2.84-.08 4.1.15 2.01.35 2.85 1.12 2.52 2.3-.45 1.58-2.34 2.3-5.66 2.14a23.15 23.15 0 0 1-5.18-.82c-4.34-1.23-7.29-3.84-8.83-7.83-.05-.14-.03-.16.08-.05 3.02 3.21 7.34 4.58 12.97 4.1Z" fill="#F68E31"/><defs><linearGradient id="atggucp15" x1="10.42" y1="9.71" x2="68.15" y2="76.02" gradientUnits="userSpaceOnUse"><stop stop-color="#1A1E21"/><stop offset="1" stop-color="#06060A"/></linearGradient></defs></svg>