<!-- by TradingView --><svg width="56" height="56" viewBox="0 0 56 56" xmlns="http://www.w3.org/2000/svg"><path fill="#E47F47" d="M0 0h56v56H0z"/><path d="M17.63 14.25a.33.33 0 0 1 .4-.24l16.11 3.7c.33.08.38.52.08.67l-20.2 10.53c9.3 2.9 14.53 8.87 16.02 11.6.08.17.02.37-.14.45a.34.34 0 0 1-.45-.13c-.49-.9-1.42-2.2-2.8-3.61H12V18h20.54l-14.67-3.36a.33.33 0 0 1-.24-.4Zm9.55 0a.33.33 0 0 1 .41-.24l16.12 4.06c.23.06.32.3.25.48a.1.1 0 0 1 .04.08v18.62l.5.46c1.2 1.1 2.06 2.07 2.46 2.8.09.17.03.37-.14.45a.34.34 0 0 1-.45-.13 12.06 12.06 0 0 0-2.32-2.65 46.77 46.77 0 0 0-17.47-9.77.36.36 0 0 1-.08-.65l16.33-9.24-15.4-3.88a.33.33 0 0 1-.25-.4Z" fill="#fff"/></svg>