<!-- by TradingView --><svg xmlns="http://www.w3.org/2000/svg" width="56" height="56"><path fill="#007FA3" d="M0 0h56v56H0z"/><path d="M36.49 14.06c6.95 3.85 8.57 12.5 3.73 21.23-4.25 7.68-13.53 10.96-20.44 7.05-6.92-3.9-8.27-14.82-5.3-21.1 4.32-9.12 14.33-11.44 22-7.18z" fill="#fff"/><path d="M36.24 20.69A6.63 6.63 0 0137.77 26c-.27 2-1.5 3.87-3.56 5.1-1.63.97-3.77 1.36-5.88 1.38-.02.33-.08 1.46-.12 1.64-.05.26-.14.4-.25.55-.23.3-.62.48-1.01.59a3.32 3.32 0 01-.95.12 1.06 1.06 0 01-.64-.3c-.15-.18-.24-.4-.26-.65l-.02-.22c-.05-.2-.13-9.94-.08-9.76.04-1.17 1.79-1.37 2.83-1.17 1.04.2.78 1.45.75 2.99 0 0-.05 2-.15 4.14a8.1 8.1 0 003.37-.9c2-.98 3.05-2.47 3.05-4.67 0-2.19-2.17-4.65-6.18-4.65-4 0-5.73 1-7.67 2.58-.44.35-.77.71-1.1.95-.31.23-1.16.27-1.38-.28-.28-.67.23-1.41.53-1.77a10.6 10.6 0 012.93-2.36 12.77 12.77 0 015.79-1.64c2.27-.05 5.86.13 8.45 3l.02.02zm-8.7 16.65a1.65 1.65 0 00-.92-.34c-.45 0-.89.24-1.17.65-.24.33-.34.74-.28 1.13.04.25.14.46.28.63.16.18.4.32.7.4a2 2 0 00.52.07c.39 0 .74-.11 1-.32.32-.26.5-.61.49-1.01 0-.47-.23-.92-.61-1.21z" fill="#007FA3"/></svg>