<!-- by TradingView --><svg width="56" height="56" viewBox="0 0 56 56" fill="none" xmlns="http://www.w3.org/2000/svg">
<rect width="56" height="56" fill="#F0F3FA"/>
<path d="M46.0671 23C44.756 23 43.5661 23.4128 42.7188 24.3753C42.1942 23.5698 41.2866 23 39.7736 23C38.807 23 38.0277 23.2779 37.4663 23.6838V26.1046C37.807 25.7054 38.294 25.5142 38.8054 25.5142C39.955 25.5142 40.5 26.3394 40.5 27.3021V34H43.5V27.5967C43.5 26.1628 44.3529 25.5142 45.3007 25.5142C46.4499 25.5142 47 26.3394 47 27.3021V34H50.0002V26.5946C50.0002 24.4931 48.588 23 46.0671 23Z" fill="#0DB6CF"/>
<path d="M37 24.033C37 24.0337 36.9993 24.034 36.999 24.0347V23H34V34H37V24.033Z" fill="#0DB6CF"/>
<path fill-rule="evenodd" clip-rule="evenodd" d="M28 25.3511V23C31.3386 23.0931 33.2341 25.4332 33.2341 28.7813V29H25.5694C25.5694 30.1041 26.0784 31.4085 27.5206 31.5594V33.997C24.1588 33.8603 22.3218 31.6132 22.3218 28.5092C22.3218 25.2967 24.4753 23.1387 27.5206 23.0025V25.3677C26.5302 25.4976 25.67 26.1989 25.67 27H29.8655C29.8655 26.0607 28.8979 25.4136 28 25.3511ZM28 34V31.5714C29.4622 31.4939 29.9283 30.3354 29.967 30H33.0329C33.0329 31.4219 31.6828 33.9217 28 34Z" fill="#0DB6CF"/>
<path d="M22.4864 25.367V23H20V20H17V30.3972C17 30.9637 17.4812 33.9201 22 34V31.5174C21.0911 31.4468 20.0594 31.3238 20 30.3972V25.367H22.4864Z" fill="#0DB6CF"/>
<path fill-rule="evenodd" clip-rule="evenodd" d="M10.7061 25.1755C9.98862 25.2115 9.28045 25.4623 9.28045 26.1413C9.28045 26.771 10.2595 26.9086 11.4702 27.0788C13.4313 27.3545 16.0001 27.7156 16.0001 30.3919C16.0001 31.9972 15.0572 33.8964 11.2135 33.9971V31.806C12.1264 31.7761 12.8983 31.4598 12.8983 30.7219C12.8983 30.0616 12.1033 29.8872 11.2484 29.7707L10.6519 29.6932C8.28622 29.3824 6.21884 28.8585 6.21884 26.3547C6.21884 24.2058 8.18801 23.064 10.7061 23V25.1755ZM11.2132 25.1853C12.0871 25.2621 12.6599 25.6563 12.6599 26.3158H15.6621C15.6621 25.4998 15.243 23.108 11.2132 23.0007V25.1853ZM10.7061 31.7946C9.81006 31.7258 9.08126 31.3773 9.08126 30.4691H6C6 31.0244 6.25186 33.9217 10.7061 34V31.7946Z" fill="#0DB6CF"/>
</svg>
