<!-- by TradingView --><svg width="56" height="56" viewBox="0 0 56 56" xmlns="http://www.w3.org/2000/svg"><path fill="#EBDD2A" d="M0 0h56v56H0z"/><path d="M14 23H4v1.52h2.3L4.43 34h1.6l1.17-6h4.96c.13 2.21-.34 4.9-.6 6h1.53c.5-1.72.57-5.8.54-7.62H7.46l.34-1.86H14V23ZM19.56 25v-2H18v2h-.46v-1.55h-1.2L16 27h1.54v-.62H18v2.82l-2 1.39v1.7l2-1.22V34h1.56v-7.62H20V25h-.44ZM22.61 23h-1.45c0 1.32-.1 2.42-.16 3h1.45v-.5h1.7c-.64 1.04-2.37 2.49-3.15 3.09v1.84a26.35 26.35 0 0 0 4.63-4.57v1.5c-1.1 1.75-3.55 3.68-4.63 4.43v1.7c1.54-.84 3.73-2.84 4.63-3.74.06 1.47-.3 3.45-.48 4.25h1.37c.28-1.3.44-3.13.48-3.88V24h-4.55l.16-1ZM33 23h2v1.64h-2.07a1 1 0 0 0-.92-.62H32a1 1 0 0 0-.93.62H29V23h2a1 1 0 0 1 1-1 1 1 0 0 1 1 1ZM35 27h-6v-1.66h2.07a1 1 0 0 0 1.86 0H35V27ZM31.29 27.22h1.42V34h-1.42z" fill="#333C38"/><path d="M29 29v-1.41h6V29h-6ZM29.17 30l-.33 4h1.42l.36-4h-1.45ZM34.45 30l.33 4h-1.42L33 30h1.45ZM40 23h-4.51v11H37v-6.65h1V34h1.4v-6.65h.6V26h-3v-1.46h3V23ZM48 23h-1.55v1.48h-2.73V23h-1.5l-.1 1.48H42V26h4.45v2.48H42V30h4.45v2.48H42V34h10v-1.52h-4V30h4v-1.52h-4V26h4v-1.52h-4V23Z" fill="#333C38"/></svg>