<!-- by TradingView --><svg width="56" height="56" viewBox="0 0 56 56" xmlns="http://www.w3.org/2000/svg"><path fill="#F0F3FA" d="M0 0h56v56H0z"/><path d="M11.6 24.39a1.32 1.32 0 0 0-1.87 0L4 30.14 5.85 32l4.81-4.83c1.39-1.31 3.53-.18 3.53-.18l-2.6-2.6Z" fill="#255FAA"/><path d="M14.19 27s-2.14-1.14-3.53.17L15.47 32l1.85-1.86L14.2 27Z" fill="url(#ach5tzptz)"/><path d="M36.51 24.39a1.32 1.32 0 0 0-1.86 0l-5.73 5.75L30.77 32l4.81-4.83c1.39-1.31 3.53-.18 3.53-.18l-2.6-2.6Z" fill="#255FAA"/><path d="M39.1 27s-2.13-1.14-3.52.17L40.39 32l1.85-1.86L39.11 27Z" fill="url(#bch5tzptz)"/><path d="M43.46 30.7c0 .72.6 1.3 1.32 1.3H52v-2.59h-5.92c-1.9-.05-2.62-2.34-2.62-2.34v3.63Z" fill="#255FAA"/><path d="M43.46 27.07s.64 2.29 2.54 2.34V24h-2.54v3.07Z" fill="url(#cch5tzptz)"/><path d="M22.37 31.61c.51.52 1.35.52 1.87 0L30 25.86 28.14 24l-4.84 4.83c-1.39 1.31-3.54.18-3.54.18l2.6 2.6Z" fill="#D22417"/><path d="M19.76 29s2.15 1.14 3.54-.17L18.47 24l-1.86 1.86L19.76 29Z" fill="url(#dch5tzptz)"/><defs><linearGradient id="ach5tzptz" x1="11.44" y1="26.35" x2="16.19" y2="30.97" gradientUnits="userSpaceOnUse"><stop offset=".41" stop-color="#1C3A63"/><stop offset=".72" stop-color="#245BA3"/><stop offset="1" stop-color="#255FAA"/></linearGradient><linearGradient id="bch5tzptz" x1="36.36" y1="26.35" x2="41.11" y2="30.97" gradientUnits="userSpaceOnUse"><stop offset=".41" stop-color="#1C3A63"/><stop offset=".72" stop-color="#245BA3"/><stop offset="1" stop-color="#255FAA"/></linearGradient><linearGradient id="cch5tzptz" x1="44.95" y1="29.44" x2="44.88" y2="22.9" gradientUnits="userSpaceOnUse"><stop offset=".41" stop-color="#1C3A63"/><stop offset=".72" stop-color="#245BA3"/><stop offset="1" stop-color="#255FAA"/></linearGradient><linearGradient id="dch5tzptz" x1="22.52" y1="29.65" x2="17.77" y2="25.01" gradientUnits="userSpaceOnUse"><stop offset=".37" stop-color="#9C1D2B"/><stop offset=".72" stop-color="#CE2318"/><stop offset="1" stop-color="#D22417"/></linearGradient></defs></svg>