<!-- by TradingView --><svg width="56" height="56" viewBox="0 0 56 56" xmlns="http://www.w3.org/2000/svg"><path fill="#F0F3FA" d="M0 0h56v56H0z"/><path d="m20.32 25.72-5.1 5.25c-.67.68-1.3 1.4-2.02 2.03H4c.37-.45.76-.88 1.19-1.29l4.73-4.87c.68-.7 1.34-1.4 2.04-2.08a5.96 5.96 0 0 1 3.79-1.7c.59-.04 1.18-.05 1.77-.06h7.32c.17 0 .34.01.5.07-.25 0-.75.06-1 .1.04 0-.05 0 0 0a6.37 6.37 0 0 0-3.65 2.14l-.37.4ZM35.02 30.78l.97-.9c.8-.8 1.58-1.62 2.37-2.43l3.96-4.09.38-.36H52l-3.26 3.33c-1.48 1.52-2.96 3.03-4.42 4.56a6.33 6.33 0 0 1-4.6 2.1h-8.17a.88.88 0 0 1-.36-.03c0 .01 0-.02 0 0l.62-.15a6.02 6.02 0 0 0 1.89-.78c.5-.35 1.06-.68 1.32-1.25Z" fill="#64B8E4"/><path d="m34.11 29.88-.16-.2c-1.24-1.28-2.47-2.57-3.73-3.84-.52-.53-.98-1.13-1.62-1.57a3.5 3.5 0 0 0-1.22-.73 5.27 5.27 0 0 0-2.04-.54l-.76.04c-.04.02-.09.01-.12.03-.05 0-.08.03-.12.03a6.36 6.36 0 0 0-3.65 2.16l-.15.16c.67.72 1.42 1.5 2.14 2.19.3.36.62.7.97 1 .02.04.04.08.07.1.84.88 1.65 1.76 2.52 2.6a5.7 5.7 0 0 0 4.22 1.65 1.87 1.87 0 0 0 .73.01c.2-.04.42-.09.62-.15a6 6 0 0 0 1.89-.78c.5-.35 1.06-.68 1.32-1.25-.31-.3-.56-.64-.91-.9Z" fill="url(#ao4auu4id)"/><defs><linearGradient id="ao4auu4id" x1="33.09" y1="31.99" x2="24.08" y2="23.97" gradientUnits="userSpaceOnUse"><stop stop-color="#458BC5"/><stop offset=".5" stop-color="#4E95CD"/><stop offset="1" stop-color="#458BC5"/></linearGradient></defs></svg>