<!-- by TradingView --><svg xmlns="http://www.w3.org/2000/svg" width="56" height="56" viewBox="0 0 56 56"><path fill="#F0F3FA" d="M0 0h56v56H0z"/><path d="M25.58 17.13 11 25.12l1.56 2.6s8.26-4.48 13.3-7.42c2.23-1.3 1.56-3.17 2.85-4.61.57-.64 3.75-2.33 5.26-3.1L32.41 10c-1.28.62-3.91 2.32-4.2 4.1-.28 1.79-1.87 2.76-2.63 3.03Z" fill="#3256A4"/><path d="m14.84 31.38-1.63-2.59 13.94-7.7a3.3 3.3 0 0 0 1.19-1.59c.37-.96.68-1.86 1.37-2.66.45-.53.97-.95 1.56-1.32 1.33-.82 3.42-1.85 3.42-1.85l1.56 2.6s-4.84 2.44-6.48 3.6c-.7.5-1.24 1-1.48 1.5-.21.46-.15.97-.31 1.45a5.31 5.31 0 0 1-2.54 2.66l-10.6 5.9Z" fill="#3256A4"/><path d="m16.97 35.06-1.56-2.6 10.74-5.9c1.25-.8 1.92-1 2.35-2.09a6.35 6.35 0 0 1 2.99-4.15c1.75-1.04 5.33-3.05 5.33-3.05l1.56 2.6s-6.7 3.57-8.18 4.6c-1.47 1.04-1.84 2.07-1.84 2.45 0 1.56-1.83 2.81-3.35 3.67l-8.04 4.47Z" fill="#3256A4"/><path d="m19.18 38.73-1.64-2.6s6.87-3.73 9.1-5a6.52 6.52 0 0 0 1.64-1.17c.58-.62.69-1.43 1.04-2.18a6.32 6.32 0 0 1 2.45-2.8l7.26-4.04 1.56 2.6s-7.72 4.23-9.6 5.32c-1.88 1.1-2.35 2.33-2.35 2.81-.06 1.85-2.49 3.24-3.77 3.89l-5.69 3.17Z" fill="#98C13D"/><path d="m21.31 42.33-1.56-2.52c1.48-.8 4.52-2.45 6.4-3.49 1.24-.68 2.7-1.2 3.13-3 .46-1.94 2-3.16 2.85-3.66l9.1-4.97 1.57 2.52-11.6 6.4c-.79.5-1.32 1-1.66 1.45-.45.58-.46 1.13-.64 1.8-.4 1.51-1.95 2.4-2.75 2.8l-4.84 2.67Z" fill="#98C13D"/><path d="m23.59 46-1.56-2.52c1.23-.67 4.08-2.23 5.61-3.1a4.63 4.63 0 0 0 1.6-1.44c.42-.63.48-1.34.79-2.01a5.44 5.44 0 0 1 2.45-2.58l10.96-6.06L45 30.88l-12.4 6.84c-.68.38-1.4.72-2 1.22-.62.52-1.29 1.28-1.32 2.1-.06 1.49-1.64 2.68-2.42 3.09L23.6 46Z" fill="#98C13D"/></svg>