<!-- by TradingView --><svg xmlns="http://www.w3.org/2000/svg" width="56" height="56" viewBox="0 0 56 56"><path fill="url(#ao1rqunkf)" d="M0 0h56v56H0z"/><path fill-rule="evenodd" d="M8 32H6V22h3.59c1.03 0 3.41.19 3.41 3 0 2.38-1.8 2.88-1.8 2.88s2 3.65 2.3 4.12h-2.2l-2.14-4H8v4Zm1.5-8.4c.58 0 1.5.18 1.5 1.4 0 1.17-.94 1.4-1.5 1.4H8v-2.8h1.5ZM46 32h-2V22h2v5.23L48.5 25h2.3l-2.78 2.64C48.97 29.11 51 32 51 32h-2.19l-2.15-3.1-.66.68V32Zm-15-7v1c.31-.53 1.06-1 1.91-1 2.05 0 3.09 1.56 3.09 3.44 0 2.08-1.5 3.56-3.52 3.56-.59 0-1.12-.19-1.48-.5V35h-2V25h2Zm0 2.34c.33-.61.85-.94 1.41-.94 1.2 0 1.6 1.04 1.59 2.04 0 1.18-.53 2.16-1.8 2.16-.48 0-.98-.32-1.2-.74v-2.52ZM23 25v.9a3.1 3.1 0 0 1 2.1-.9c.83 0 1.78.21 2.34.9.56.67.56 1.66.56 3.66V32h-2v-3.03c0-1.14 0-2.57-1.38-2.57-1.37 0-1.6 1.24-1.6 1.94V32H21v-7h2Zm-8.22 1.94-.78-1.2s1.11-.74 2.74-.74c1.09 0 2.46.32 2.98 1.45.25.53.28 1.02.28 3.34V32h-2v-.86c-.42.46-1.06.86-2.03.86-1.37 0-2.37-.81-2.37-2.2 0-1.94 2.4-2.18 3.1-2.18H18s.1-1.22-1.51-1.22c-.69 0-1.37.32-1.7.54Zm2.16 1.9c.45-.02 1.06-.01 1.06 0v.46c0 .75-.63 1.3-1.63 1.3-.4 0-.97-.13-.97-.8 0-.83.94-.95 1.54-.97ZM37 25.73l.78 1.2a3.48 3.48 0 0 1 1.7-.54c1.62 0 1.52 1.23 1.52 1.23h-1.3c-.7 0-3.1.23-3.1 2.16 0 1.4 1 2.21 2.37 2.21.97 0 1.6-.4 2.03-.86V32h2v-2.2c0-2.33-.03-2.82-.28-3.35-.52-1.13-1.9-1.46-2.98-1.45-1.63 0-2.74.73-2.74.73Zm4 3.1c0-.01-.6-.02-1.06 0-.6 0-1.54.13-1.54.95 0 .68.57.81.98.81 1 0 1.62-.55 1.62-1.3v-.47Z" fill="#fff"/><defs><linearGradient id="ao1rqunkf" x1="10.42" y1="9.71" x2="68.15" y2="76.02" gradientUnits="userSpaceOnUse"><stop stop-color="#1A1E21"/><stop offset="1" stop-color="#06060A"/></linearGradient></defs></svg>