<!-- by TradingView --><svg width="56" height="56" viewBox="0 0 56 56" xmlns="http://www.w3.org/2000/svg"><path fill="#1E346E" d="M0 0h56v56H0z"/><path d="M6 20h2l2 14H8.4l-.43-3H6.03l-.43 3H4l2-14Zm.17 10h1.66L7 24.2 6.17 30ZM12.03 34h-.44L10 23h1.38l1.12 7.75L13.62 23H15l-1.59 11h-1.38ZM22 21h1.5v13H22V21ZM47 23h1.61l.89 6 .89-6H52c-.6 3.85-1.2 7.69-1.85 11.51-.2 1.13-1 1.46-1.38 1.49H47v-1.49c1.05 0 1.61-.47 1.61-.78 0-.25-.1-1-.16-1.33L47 23Z" fill="#FDFDFC"/><path fill-rule="evenodd" d="M26.5 23c-1.38 0-2.5.97-2.5 2.17v6.66c0 1.2 1.12 2.17 2.5 2.17s2.5-.97 2.5-2.17v-6.66c0-1.2-1.12-2.17-2.5-2.17Zm0 1.5c-.53 0-1 .35-1 .79v6.42c0 .44.47.79 1 .79s1-.35 1-.79V25.3c0-.44-.47-.79-1-.79ZM16 24.63V26h1.5v-.96c0-.4.5-.74 1-.74s1 .33 1 .74v1.77c-.17.22-.46.5-.94.75l-.35.19c-1 .53-2.21 1.17-2.21 2.26v2.52c.03.5.9 1.47 2 1.47.6 0 .93-.15 1.5-.78.04.3.17.66.24.78h1.58a2.16 2.16 0 0 1-.32-1.14v-8.23c0-.9-.72-1.63-1.61-1.63h-1.87c-.9 0-1.52.73-1.52 1.63Zm3.5 3.75-1.44.9c-.16.16-.56.56-.56 1.05v1.39c0 .78.55.98 1 .98.56 0 1-.66 1-.98v-3.34ZM41 24.63V26h1.5v-.96c0-.4.5-.74 1-.74s1 .33 1 .74v1.77c-.17.22-.46.5-.94.75l-.35.19c-1 .53-2.21 1.17-2.21 2.26v2.52c.03.5.9 1.47 2 1.47.6 0 .93-.15 1.5-.78.04.3.17.66.24.78h1.58a2.16 2.16 0 0 1-.32-1.14v-8.23c0-.9-.72-1.63-1.61-1.63h-1.87c-.9 0-1.52.73-1.52 1.63Zm3.5 3.75-1.44.9c-.16.16-.56.56-.56 1.05v1.39c0 .78.55.98 1 .98.56 0 1-.66 1-.98v-3.34Z" fill="#FDFDFC"/><path d="M31.5 24c.27-.35.64-1 1.19-1 .83 0 1.31 1.17 1.31 1.58V34h-1.5v-8.42c0-.2 0-.58-.5-.58-.3 0-.38.23-.5.47V34H30V23h1.5v1Z" fill="#FDFDFC"/><path fill-rule="evenodd" d="M35 20h3.36c.9 0 1.64.66 1.64 1.47v3.9c0 .65-.46 1.2-1.1 1.39.64.21 1.1.8 1.1 1.48v4.19A1.6 1.6 0 0 1 38.36 34H35V20Zm1.5 1.5h.9c.61 0 1.1.44 1.1.98v2.54c0 .54-.49.98-1.1.98h-.9v-4.5Zm0 11h.9c.61 0 1.1-.47 1.1-1.05v-2.4c0-.58-.49-1.05-1.1-1.05h-.9v4.5Z" fill="#FDFDFC"/></svg>