<!-- by TradingView --><svg width="56" height="56" viewBox="0 0 56 56" xmlns="http://www.w3.org/2000/svg"><path fill="url(#a4qq2yfxm)" d="M0 0h56v56H0z"/><path fill-rule="evenodd" d="M11 29h11v11h23V28H34V16H11v13Zm22 10V29H23v10h10Zm1 0h10V29H34v10Zm-1-11V17H23v11h10Zm-11 0V17H12v11h10Zm-4.59-6.52.07.03c.79.3 1.55.67 1.52 1.81 0 1.01-.76 1.68-1.94 1.68a2.4 2.4 0 0 1-2.03-1.2l-.03-.07.86-.77.06.13s.41.77 1.14.77c.32 0 .76-.2.76-.54 0-.33-.22-.5-.88-.73-.8-.3-1.72-.77-1.72-1.88 0-.84.7-1.71 1.84-1.71.7 0 1.37.37 1.81.94l.07.07-.8.8-.06-.1c-.22-.34-.6-.54-.99-.57-.38 0-.7.23-.7.54 0 .4.3.53 1.02.8ZM28 19h-1v6h1v-6Zm-2.5 13v-1h4v1H28v5h-1v-5h-1.5ZM38 34.5V36h3v1h-4v-6h4v1h-3v1.5h2.5v1H38Z" fill="#fff"/><defs><linearGradient id="a4qq2yfxm" x1="10.42" y1="9.71" x2="68.15" y2="76.02" gradientUnits="userSpaceOnUse"><stop stop-color="#1A1E21"/><stop offset="1" stop-color="#06060A"/></linearGradient></defs></svg>