<!-- by TradingView --><svg width="56" height="56" viewBox="0 0 56 56" xmlns="http://www.w3.org/2000/svg"><path fill="#0F3657" d="M0 0h56v56H0z"/><path d="M4 24h3.48c1.06 0 2.19.54 2.19 1.74 0 .77-.44 1.27-1.26 1.42v.02c.89.09 1.59.81 1.59 1.73C10 30.52 8.58 31 7.15 31H4v-7Zm1.5 3h1.83c.56 0 1.17-.34 1.17-1 0-.54-.36-1-1.17-1H5.5v2Zm0 3h1.7c.66 0 1.35-.22 1.35-1 0-.8-.65-1-1.36-1H5.5v2ZM11 26h1.52v.8c.16-.3.19-.5.47-.62.29-.12.62-.18 1.01-.18v1.2c-.9 0-1.5.46-1.5 1.44V31H11v-5Z" fill="#FDFCFA"/><path fill-rule="evenodd" d="M19 28.5c0-1.45-1.05-2.5-2.5-2.5a2.41 2.41 0 0 0-2.5 2.5 2.4 2.4 0 0 0 2.5 2.5c1.45 0 2.5-1.04 2.5-2.5Zm-1.5 0c0-.87-.42-1.5-1-1.5-.58 0-1 .63-1 1.5 0 .88.41 1.5 1 1.5.58 0 1-.63 1-1.5ZM25 28.5c0-1.45-1.05-2.5-2.5-2.5a2.41 2.41 0 0 0-2.5 2.5 2.4 2.4 0 0 0 2.5 2.5c1.45 0 2.5-1.04 2.5-2.5Zm-1.5 0c0-.87-.42-1.5-1-1.5-.58 0-1 .63-1 1.5 0 .88.41 1.5 1 1.5.58 0 1-.63 1-1.5Z" fill="#FDFCFA"/><path d="M26 24h1.5v3.9l1.7-1.87h1.6L29 28.12 31 31h-1.52l-1.39-2-.59.57V31H26v-7ZM32 27h-1v-1h1v-.76c0-.9.65-1.24 1.47-1.24.26 0 .76.01 1.03.03v1a2.64 2.64 0 0 0-.4-.03c-.47 0-.6.23-.6.67V26h1.07v1H33.5v4H32v-4ZM36 26h1.5v5H36v-5ZM37.5 24H36v1h1.5v-1ZM42.5 28c0-.55-.46-1-.95-1-.6 0-.9.4-1.05 1h2Zm-2 .77c.03.69.39 1.23 1.05 1.23.6 0 1.05-.3 1.44-.74l1.01.57c-.54.82-1.5 1.17-2.45 1.17A2.46 2.46 0 0 1 39 28.5c0-1.43 1.1-2.5 2.55-2.5C43.2 26 44 27.25 44 28.77h-3.5ZM45 24h1.5v7H45v-7ZM50.48 30.41c-.39.43-.65.59-1.22.59-1.38 0-2.26-1.26-2.26-2.56S47.88 26 49.26 26c.63 0 .86.2 1.24.53V24H52v7h-1.5l-.02-.59ZM49.55 27c-.85 0-1.05.67-1.05 1.44 0 .77.2 1.56 1.05 1.56.86 0 1-.8 1-1.56 0-.74-.17-1.44-1-1.44Z" fill="#FDFCFA"/></svg>