<!-- by TradingView --><svg width="56" height="56" viewBox="0 0 56 56" xmlns="http://www.w3.org/2000/svg"><path fill="url(#ahdhxnvrh)" d="M0 0h56v56H0z"/><path d="M7 26v-4h1.78c1.18 0 2.22.75 2.22 2s-1.04 2-2.22 2H7Zm1-1h.74c.82 0 1.26-.15 1.26-1s-.44-1-1.26-1H8v2ZM16 26c-1 0-1.5-.5-1.5-1.3V23h1v1.6c0 .53 0 .9.5.9.52 0 .5-.42.5-1V23h1v3h-1v-.84l.44.25c-.21.38-.46.59-.94.59ZM19.5 26c-.9 0-1.5-.8-1.5-1.5 0-1.02.82-1.5 1.5-1.5a1.5 1.5 0 0 1 0 3ZM18 26v-4h1v4h-1Zm1.5-.57c.4 0 .5-.58.5-.93 0-.35-.09-.83-.5-.83-.5 0-.5.59-.5.83s0 .93.5.93ZM21.5 26v-4h1v4h-1ZM30 26v-3h1v3h-1ZM24.62 26c-.88 0-1.62-.59-1.62-1.5 0-.86.66-1.5 1.52-1.5a1.46 1.46 0 0 1 1.47 1.61v.1h-2.45v-.45h2.09l-.63.24c.01-.48 0-.95-.48-.95-.5 0-.52.46-.52.95 0 .53.07.92.64.92.33 0 .59-.1.8-.32l.36.42c-.26.3-.66.48-1.18.48ZM36.62 26c-.88 0-1.62-.59-1.62-1.5 0-.86.66-1.5 1.52-1.5a1.46 1.46 0 0 1 1.47 1.61v.1h-2.45v-.45h2.09l-.63.24c.01-.48 0-.95-.48-.95-.5 0-.52.46-.52.95 0 .53.07.92.64.92.33 0 .59-.1.8-.32l.36.42c-.26.3-.66.48-1.18.48Z" fill="#E04738"/><path fill-rule="evenodd" d="M11.22 24.51c0 .85.66 1.49 1.5 1.49.85 0 1.5-.64 1.5-1.49S13.57 23 12.72 23c-.84 0-1.5.67-1.5 1.51Zm1.5 1c.5 0 .5-.72.5-1 0-.27 0-1-.5-1s-.5.73-.5 1c0 .28 0 1 .5 1Z" fill="#E04738"/><path d="M27 26v-4h1v3.5h1.5v.5H27ZM30 22h1v.5h-1V22ZM33.23 23c.78 0 1.27.53 1.27 1.3V26h-1v-1.5c0-.52.02-.9-.44-.9-.5 0-.56.29-.56.9V26h-1v-3h1v.83l-.44-.24c.21-.38.64-.59 1.17-.59Z" fill="#E04738"/><path fill="#0081CC" d="M42 20h8v8h-8zM6 31h33v6H6z"/><path d="M41 37V20h1v17h-1ZM39 37V20h1v17h-1Z" fill="#F9FDFD"/><path d="M50 31H6v-1h44v1ZM50 29H6v-1h44v1Z" fill="#F9FDFD"/><path d="M12.28 33.97h1.54v.18h-1.54v-.18ZM12.3 35H12v-2h2v.18h-1.7V35ZM18 35c-.3 0-.55-.07-.73-.22-.18-.14-.27-.36-.27-.64V33h.26v1.13c0 .23.06.4.2.52.12.1.3.16.54.16.24 0 .42-.05.55-.16.13-.12.2-.29.2-.52V33H19v1.14c0 .28-.09.5-.27.64-.17.15-.42.22-.73.22ZM22 35v-2h.2l1.66 1.74h-.11V33H24v2h-.2l-1.66-1.74h.11V35H22ZM27 35v-2h.86c.23 0 .43.04.6.13.17.08.3.2.4.35.1.15.14.32.14.52a.95.95 0 0 1-.54.87c-.17.09-.37.13-.6.13H27Zm.22-.18h.63c.19 0 .35-.04.49-.1a.8.8 0 0 0 .32-.3.8.8 0 0 0 .12-.42.78.78 0 0 0-.44-.71c-.14-.07-.3-.1-.49-.1h-.63v1.63ZM33 35c-.2 0-.4-.02-.58-.07a1.24 1.24 0 0 1-.42-.19l.11-.16c.1.07.22.13.38.18a1.88 1.88 0 0 0 .92.02c.1-.03.18-.08.23-.13a.24.24 0 0 0 .08-.17.22.22 0 0 0-.1-.19.64.64 0 0 0-.23-.1c-.1-.04-.2-.06-.32-.08l-.35-.07a1.97 1.97 0 0 1-.33-.1.68.68 0 0 1-.24-.15.37.37 0 0 1-.08-.25c0-.1.03-.19.1-.27a.73.73 0 0 1 .33-.2 2.13 2.13 0 0 1 1.4.1l-.1.17a1.86 1.86 0 0 0-1.14-.12.53.53 0 0 0-.24.13.26.26 0 0 0-.07.18c0 .08.02.14.08.19.07.05.14.08.24.1l.33.08a10.03 10.03 0 0 1 .67.16c.1.04.18.09.24.15.06.07.09.15.09.25a.4.4 0 0 1-.1.27.76.76 0 0 1-.34.2c-.14.05-.33.07-.56.07Z" fill="#F5F5F5"/><defs><linearGradient id="ahdhxnvrh" x1="10.42" y1="9.71" x2="68.15" y2="76.02" gradientUnits="userSpaceOnUse"><stop stop-color="#1A1E21"/><stop offset="1" stop-color="#06060A"/></linearGradient></defs></svg>