<!-- by TradingView --><svg xmlns="http://www.w3.org/2000/svg" width="56" height="56" viewBox="0 0 56 56"><path fill="url(#a3t1bjz52)" d="M0 0h56v56H0z"/><path d="M49 20v16H7V20h42zm-1 1H8v14h40V21zm-33 5a3.1 3.1 0 0 0-2 .77V24h-1v8h1v-.76c.44.41 1.22.76 2 .76 1.65 0 3-1.31 3-2.95A3 3 0 0 0 15 26zm0 5a2 2 0 0 1 0-4 2 2 0 1 1 0 4zm16-5h1c0 1.02-.58 2.11-1.35 2.5.77.4 1.35 1.36 1.35 2.5v1h-1v-.96c0-1.14-.85-2.02-1.92-2.04H28v3h-1v-8h1v4h1.07c1.08 0 1.93-.9 1.93-2zm7 0h1c0 1.02-.58 2.11-1.35 2.5.77.4 1.35 1.36 1.35 2.5v1h-1v-.96c0-1.14-.85-2.02-1.92-2.04H35v3h-1v-8h1v4h1.07c1.08 0 1.93-.9 1.93-2zm-14 .76a3 3 0 1 0 0 4.48V32h1v-6h-1v.76zM22 31a2 2 0 1 1 0-4 2 2 0 0 1 2 2c0 1.06-.84 2-2 2zm20.34-7v.58c0 .49-.08 1.08-.43 1.42H44v1h-2v2.68c0 .78.56 1.32 1.3 1.32h.7v1h-.73c-1.44 0-2.27-.84-2.27-2.28V27h-1v-1c1 0 1.34-.66 1.34-1.5V24h1z"/><defs><linearGradient id="a3t1bjz52" x1="19.28" y1="18.24" x2="43.23" y2="52.33" gradientUnits="userSpaceOnUse"><stop stop-color="#6FD5A7"/><stop offset="1" stop-color="#8D8AA2"/></linearGradient></defs></svg>