<!-- by TradingView --><svg width="56" height="56" viewBox="0 0 56 56" xmlns="http://www.w3.org/2000/svg"><path fill="#DC3D73" d="M0 0h56v56H0z"/><path d="M6.7 28H5v4H4v-9h2.66C8.68 23 9 24.6 9 25.36v.26C9 26.4 8.68 28 6.7 28ZM8 25.39C8 24.12 7.16 24 6.63 24H5v3h1.66C7.18 27 8 26.87 8 25.6v-.21ZM11 32v-9h5v1h-4v3h4v1h-4v3h4v1h-5ZM22.76 32l-2-4H19v4h-1v-9h3.25c2.3 0 2.75 1.6 2.75 2.37v.23c0 .67-.34 1.92-2.08 2.31L24 32h-1.24Zm.24-6.59c0-1.27-1.18-1.41-1.78-1.41H19v3h2.25c.6 0 1.75-.15 1.75-1.41v-.18ZM27 24v3h3v1h-3v4h-1v-9h5v1h-4ZM33 32v-9h5v1h-4v3h3v1h-3v3h4v1h-5ZM42.5 32c-1.95 0-2.5-1.6-2.5-2.37v-4.3c0-.76.5-2.33 2.5-2.33 1.94 0 2.5 1.64 2.5 2.41h-.95C44.05 24.19 43 24 42.5 24 42 24 41 24.19 41 25.42v4.15C41 30.8 42 31 42.5 31s1.5-.19 1.5-1.42h1c0 .78-.52 2.42-2.5 2.42ZM50 24v8h-1v-8h-2v-1h5v1h-2Z" fill="#F0F3FA"/></svg>