<!-- by TradingView --><svg width="56" height="56" viewBox="0 0 56 56" xmlns="http://www.w3.org/2000/svg"><path fill="#F0F3FA" d="M0 0h56v56H0z"/><path d="M20.58 15h5.4c.78-1.05 2.53-3.8 3.28-6h1.21c-3.44 8.36-10.51 12.3-13.08 13.57a.19.19 0 0 0-.09.24c.04.09.14.14.23.11 1.76-.58 6.9-3.9 9.57-7.19a.9.9 0 0 1 .19.76l-1.64 5.1C25.23 22.89 24 24 22.64 24H17.4c-1.03 0-1.75-1.23-1.42-2.2l1.6-4.77a3.06 3.06 0 0 1 3-2.03Zm5.68 27.95L21.9 39.8c-1.24.4-4.22 1.5-6.12 2.85l-.99-.72c7.73-4.74 15.77-3.79 18.6-3.32.1.02.19-.04.21-.14a.18.18 0 0 0-.11-.21c-1.77-.57-7.9-.88-12 .2a.9.9 0 0 1 .3-.72l4.34-3.16c1.11-.8 2.61-.81 3.72 0l4.24 3.06c.83.6.83 1.84-.01 2.43l-4.12 2.91c-1.1.79-2.6.78-3.69-.02Zm11.25-5.34 4.37-3.16c1.1-.8 1.56-2.2 1.16-3.49l-1.51-4.8a1.5 1.5 0 0 0-2.32-.76l-4.24 3.06A3.14 3.14 0 0 0 33.83 32l1.68 5.09a.9.9 0 0 0 .6.5c.22-4.22 2.41-9.92 3.5-11.42.06-.07.16-.1.24-.04.09.05.12.16.07.24-1.32 2.54-4.71 9.86-2.57 18.64l.99-.71c-.7-2.22-.84-5.38-.83-6.68Zm-24.35-6.49 1.56-5.15A25.6 25.6 0 0 0 10 21.15l.35-1.16c7.05 5.7 8.8 13.57 9.29 16.38.02.1.1.17.2.16.1-.01.17-.09.17-.18-.04-1.85-1.77-7.71-4.16-11.2a.9.9 0 0 1 .79.04l4.43 3.03a3.14 3.14 0 0 1 1.23 3.5l-1.5 5a1.5 1.5 0 0 1-2.31.78l-4.13-2.91a3.14 3.14 0 0 1-1.2-3.47Zm26.82-9.07-1.68-5.1c-.42-1.3-1.61-1.94-2.97-1.95h-5.05c-1.03 0-1.76.72-1.45 1.7l1.63 4.95c.43 1.3 1.65 2.36 3.02 2.35h5.38c.14 0 .47-.31.66-.63-3.95-1.5-8.73-5.33-9.83-6.82a.18.18 0 0 1 .03-.25.19.19 0 0 1 .26.01c2.01 2.04 7.97 7.5 17.02 8.16l-.38-1.15c-2.33-.02-5.4-.86-6.64-1.27Z" fill="#365B42"/></svg>