<!-- by TradingView --><svg width="56" height="56" viewBox="0 0 56 56" xmlns="http://www.w3.org/2000/svg"><path fill="#ED1D24" d="M0 0h56v56H0z"/><path d="M23 26h7.92c1.36-.01 4.08-.86 4.08-4.14 0-2.06-1.72-3.07-2.57-3.32a3.58 3.58 0 0 0 1.82-3.08c0-2.15-1.87-3.46-4.14-3.46H23v14Zm3-12h3.87c.91 0 1.65.78 1.65 1.75s-.74 1.75-1.65 1.75H26V14Zm0 6h4.09c1.05 0 1.91.9 1.91 2s-.86 2-1.91 2H26v-4ZM15 42h7.92c1.36-.01 4.08-.86 4.08-4.14 0-2.06-1.72-3.07-2.57-3.32a3.58 3.58 0 0 0 1.82-3.08c0-2.15-1.87-3.46-4.14-3.46H15v14Zm3-12h3.65c.86 0 1.55.78 1.55 1.75s-.7 1.75-1.55 1.75H18V30Zm0 6h4.09c1.05 0 1.91.9 1.91 2s-.86 2-1.91 2H18v-4Zm19.92 6H30V28h7.1c2.28 0 4.15 1.31 4.15 3.46a3.58 3.58 0 0 1-1.82 3.08c.85.25 2.57 1.26 2.57 3.32 0 3.28-2.72 4.13-4.08 4.14Zm-1.27-12H33v3.5h3.65c.86 0 1.55-.78 1.55-1.75S37.5 30 36.65 30Zm.44 6H33v4h4.09c1.05 0 1.91-.9 1.91-2s-.86-2-1.91-2Z" fill="#fff"/></svg>