<!-- by TradingView --><svg width="56" height="56" viewBox="0 0 56 56" xmlns="http://www.w3.org/2000/svg"><path fill="#F0F3FA" d="M0 0h56v56H0z"/><path d="M30.48 23H31v-3h-8v.5h1v8h-1v.5h8v-3h-.52c0 1.38-1.15 2.5-2.57 2.5H27v-3.78c.81.07 1.44.6 1.44 1.24V26H29v-3h-.56v.04c0 .65-.63 1.17-1.44 1.24V20.5h.91A2.53 2.53 0 0 1 30.48 23ZM38 28.74a4.5 4.5 0 1 0-1.86.25.47.47 0 0 0-.14.33c0 .82.7 1.68 2.38 1.68 1.67 0 2.35-.6 2.62-3l-.25.17c-.6.43-1.16.83-1.91.83-.48 0-.67-.13-.84-.26Zm-3-6.83a1.5 1.5 0 1 1 3 0v5.18a1.5 1.5 0 1 1-3 0v-5.18Z" fill="#2B5E96"/><path d="M25.27 12c6.83 0 12.67 5.04 14.73 7.5h-.7c-1.88-1.68-6.72-5.1-10.8-5.1-8.72 0-10.5 6.2-10.5 9.38 0 11.05 12.8 16.5 19 15.5-.67.23-2.13.8-3.82.71C19.52 39.27 14 27.62 14 21.95 14 18.18 16.73 12 25.27 12Z" fill="#2B5E96"/><path d="M33.18 42.55c-15.74 0-23.1-15.46-21.85-21.55-2.47 11.95 9.24 23 20.88 23C43.84 44 45 36.86 45 36c-1.6 4.49-5.87 6.55-11.82 6.55Z" fill="#999"/></svg>