<!-- by TradingView --><svg width="56" height="56" viewBox="0 0 56 56" xmlns="http://www.w3.org/2000/svg"><path fill="#F0F3FA" d="M0 0h56v56H0z"/><path d="M43.94 26.82c0-.43-.43-.65-.86-.43-.42.43-.85.64-1.27 1.07-4.47 4.51-3.84 10.1-7.46 14.82-.2.22 0 .65.43.43 1.7-.86 3.2-1.93 4.47-3.22a15.55 15.55 0 0 0 4.69-12.67ZM26.26 36.48a24.45 24.45 0 0 1-6.8 4.73c-.22.21-.22.43 0 .64 1.48.86 2.97 1.72 4.46 2.15.43 0 .64 0 1.07-.21a22.1 22.1 0 0 0 4.9-3.66c4.9-5.15 3.61-10.95 8.72-16.1a17.77 17.77 0 0 1 3.41-2.58c.43-.22.43-.64.21-1.07a8.18 8.18 0 0 0-1.91-2.8c-.22-.21-.64-.43-1.07-.21-1.49.64-2.98 1.5-4.47 3-4.9 5.16-3.62 10.96-8.52 16.11ZM19.24 29.4a19 19 0 0 1-5.75 4.08c-.43.21-.43.64-.43.86a19.7 19.7 0 0 0 1.5 3c.2.43.63.43 1.06.22a20.07 20.07 0 0 0 7.03-4.73c4.9-5.15 3.61-10.95 8.72-16.1 1.28-1.3 2.35-1.94 3.62-2.8.22-.21.22-.43 0-.64-1.7-.65-3.19-1.08-4.9-1.29-.42 0-.84 0-1.27.43-.21.21-.64.43-1.07.86-4.9 4.94-3.61 10.95-8.51 16.1ZM12 27.9c0 .42.43.64.85.42.85-.64 1.92-1.5 2.98-2.57 3.62-3.66 4.05-7.74 5.75-11.82.21-.21-.21-.64-.43-.43a19.2 19.2 0 0 0-4.25 3.01c-3.2 3.22-4.9 7.3-4.9 11.38Z" fill="#156DB7"/></svg>