<!-- by TradingView --><svg width="56" height="56" viewBox="0 0 56 56" xmlns="http://www.w3.org/2000/svg"><path fill="#BB271A" d="M0 0h56v56H0z"/><path fill-rule="evenodd" d="M12.11 21H7l5.11 6.56L7 35h5.11l2.41-4.29L16.86 35H22l-5.02-7.44L22 21h-5.02l-2.46 3.93-2.4-3.93ZM23 35V21h7.6c2.43 0 4.4 1.99 4.4 4.44v.83c0 2.45-1.97 4.73-4.4 4.73H27v4h-4Zm6.31-11H27v4h2.31c.93 0 1.69-.86 1.69-1.93v-.14c0-1.07-.76-1.93-1.69-1.93ZM49 28c0 3.87-2.01 7-6.87 7S35 31.87 35 28s2.46-7 7.13-7S49 24.13 49 28Zm-4 0c0 2.2-.86 4-2.94 4-2.09 0-3.06-1.8-3.06-4s1.06-4 3.06-4S45 25.8 45 28Z" fill="#fff"/></svg>