<!-- by TradingView --><svg xmlns="http://www.w3.org/2000/svg" width="56" height="56"><path fill="#F0F3FA" d="M0 0h56v56H0z"/><path d="M42.18 28A14.18 14.18 0 1128 13.82v1.71A12.47 12.47 0 1040.47 28c0-.32.02-.55 0-.86h1.7c.03.31 0 .54 0 .86z" fill="#1CA7DD"/><path d="M44 28a16 16 0 11-10.85-15.15l-.1-.02-.67 1.68A14.17 14.17 0 0013.82 28a14.18 14.18 0 1028.36 0c0-.33-.04-.67-.06-1h1.85c.02.33.03.68.03 1z" fill="#1580C0"/><path d="M42.6 34.54a16.06 16.06 0 01-5.77 6.8l-1.02-1.5c2.22-1.47 4-3.55 5.1-6l1.7.7z" fill="#FEC940"/><path d="M40.47 28c0 6.89-5.6 12.47-12.5 12.47S15.47 34.89 15.47 28a12.48 12.48 0 0119.1-10.59l-1.16 1.88a10.29 10.29 0 104.85 8.74c0-.37-.03-.56-.07-.91l.03.02h2.2c.02.34.05.52.05.86z" fill="#1C2845"/><path d="M17.76 37.87a14.18 14.18 0 0120.16-19.94c-.34.32-1.16 1.19-1.65 1.71l-2.18-1.74.28-.41a11.9 11.9 0 00-6.43-1.96c-6.88 0-12.16 5.64-12.16 12.52 0 3.37 1.2 6.23 3.36 8.47l-1.38 1.35z" fill="#FEC942"/><path d="M40.47 28c0 6.89-5.57 12.47-12.47 12.47v-2.15c5.68 0 10.26-4.61 10.26-10.3 0-.36.04-.5 0-.85h2.2c.03.34 0 .49 0 .83zm-12.5-12.47c2.43 0 4.7.69 6.6 1.88l-1.16 1.88a10.3 10.3 0 00-15.5 6.56l-2.15-.53a12.5 12.5 0 0112.21-9.79z" fill="#E52045"/><path fill-rule="evenodd" d="M28 38.37c5.73 0 10.37-4.63 10.37-10.34 0-5.72-4.64-10.35-10.37-10.35a10.36 10.36 0 00-10.37 10.35c0 5.71 4.64 10.34 10.37 10.34zm0-1.27a9.13 9.13 0 009.16-9.1c0-5.03-4.1-9.1-9.16-9.1a9.13 9.13 0 00-9.16 9.1c0 5.03 4.1 9.1 9.16 9.1z" fill="#1C2845"/><path d="M17.63 28.03a10.36 10.36 0 0015.8 8.8l-.69-1.04c-1.38.83-3 1.31-4.74 1.31a9.13 9.13 0 01-7.97-13.6l-1-.66c-.9 1.53-1.4 3.3-1.4 5.19z" fill="#1CA6DF"/><path d="M28 37.16c5.06 0 9.35-4.08 9.35-9.13 0-.34-.1-.7-.14-1.02h-2.28A7 7 0 0128 34.95v2.2zm0-18.32a9.2 9.2 0 00-9.21 9.08l2.37.1c0-3.74 3.12-6.8 6.85-6.91v-2.27zM21.88 31.1a6.95 6.95 0 003.72 3.4l-.77 2.05a9.32 9.32 0 01-5.05-4.52l2.1-.93z" fill="#1874AD"/><path d="M33 29v-2h10.92c.13.34.08 1.42.02 2H33.01z" fill="#1580C0"/></svg>