<!-- by TradingView --><svg width="56" height="56" viewBox="0 0 56 56" xmlns="http://www.w3.org/2000/svg"><path fill="#F0F3FA" d="M0 0h56v56H0z"/><path d="M11.5 31.42c-.44.78.3 1.58 1.13 1.58H24.7c.3.02.58.19.84.34h.02c.26.16.49.38.65.64l1.52 2.66a2 2 0 0 1 0 1.78l-1.52 2.67c-.16.26-.39.47-.65.63-.26.15-.56.26-.86.28h-8.09c-.3 0-.6-.13-.86-.28a1.96 1.96 0 0 1-.66-.63l-3.79-6.67a3 3 0 0 1 0-2.67l.2-.33ZM23.54 37a1.1 1.1 0 1 0 1.81 1.22A1.1 1.1 0 0 0 23.54 37Z" fill="#943BBA"/><path d="M39.44 40.9c0-.18-.05-.37-.15-.54l-4.1-7.1-2.03-3.5a1.94 1.94 0 0 1 0-1.76l1.52-2.62a1.94 1.94 0 0 1 1.52-.88h3.03a1.95 1.95 0 0 1 1.52.88l4.04 7a1.94 1.94 0 0 1 0 1.75L41 40.69A2.91 2.91 0 0 1 38.73 42h-.39a1.1 1.1 0 0 0 1.1-1.1Zm-2.42-11.98a1.1 1.1 0 1 0 .14-2.19 1.1 1.1 0 0 0-.14 2.19Z" fill="#7EAF00"/><path d="M12.45 33c-.19 0-.38-.07-.55-.16-.16-.1-.3-.23-.4-.39a1.03 1.03 0 0 1 0-1.05l3.56-5.96a1.13 1.13 0 0 1 1.5-.39l5.68 3.18a1.03 1.03 0 0 1 .4 1.44L20.66 33h-8.2Z" fill="#4E1B54"/><path d="M39.3 40.31a1.15 1.15 0 0 1-.4 1.54c-.18.1-.36.15-.56.15h-7.11c-.6 0-1.23-.53-1.23-1.12v-6.76c0-.6.62-1.12 1.23-1.12h3.96l4.1 7.31Z" fill="#41631C"/><path d="M32.45 13.23c-.16.1-.3.23-.4.4l-4.1 7.04-2.03 3.46a1.93 1.93 0 0 1-1.51.87h-3.04a1.96 1.96 0 0 1-1.51-.87l-1.52-2.6a1.9 1.9 0 0 1 0-1.73l4.04-6.93A1.94 1.94 0 0 1 23.9 12h7.58a2.94 2.94 0 0 1 2.28 1.3l.19.33a1.09 1.09 0 0 0-.95-.54c-.19 0-.38.05-.55.14Zm-9.2 8.01a1.09 1.09 0 0 0-1.27-.57 1.1 1.1 0 0 0-.81 1.12 1.08 1.08 0 0 0 .74.95 1.1 1.1 0 0 0 1.17-.3 1.08 1.08 0 0 0 .16-1.2Z" fill="#0091D9"/><path d="M32.05 13.63a1.09 1.09 0 0 1 .95-.54 1.1 1.1 0 0 1 .95.54l3.56 6.1a1.08 1.08 0 0 1-.4 1.48l-5.69 3.24a1.11 1.11 0 0 1-1.5-.4l-1.97-3.38 4.1-7.04Z" fill="#003A76"/></svg>