<!-- by TradingView --><svg xmlns="http://www.w3.org/2000/svg" width="56" height="56"><path fill="#F0F3FA" d="M0 0h56v56H0z"/><path d="M11 27.67a14.64 14.64 0 012.4-8.33c-2.68 8.19.83 13.01 2.93 14.4-1.8-3.1-2.3-6.93-2.33-8.45C14.3 13.6 23.1 10.9 27.45 11c-9.81 2.7-10.98 9.97-11.12 13.14a9.77 9.77 0 001.92 6.24 21 21 0 01-.51-4.46c.1-7.38 5.9-14 13.53-13.79 6.1.17 9.77 4.41 10.85 6.51-3.63-3.69-7.74-4.54-9.34-4.5-8.38.04-11.7 7.06-12.01 11.78-.24 3.77 1.98 5.63 3.13 6.1 1.13.46 3.8.67 5.5-2.16 1.7-2.83 3.63-2.95 4.4-2.66-1.23.52-1.35 1.49-1.52 2.95-.05.4-.1.85-.18 1.34-.5 2.9-3.05 8.64-9.32 8.39-7.83-.31-11.72-7.14-11.78-12.21zm34 .66a14.64 14.64 0 01-2.4 8.33c2.68-8.19-.83-13.01-2.93-14.4 1.8 3.1 2.3 6.93 2.33 8.45C41.7 42.4 32.9 45.1 28.55 45c9.81-2.7 10.98-9.97 11.12-13.14a9.77 9.77 0 00-1.92-6.24 21 21 0 01.51 4.46c-.1 7.38-5.9 14-13.53 13.79-6.1-.17-9.77-4.41-10.85-6.51 3.63 3.69 7.74 4.54 9.34 4.5 8.38-.04 11.7-7.06 12.01-11.78.24-3.77-1.98-5.63-3.13-6.1-1.13-.46-3.8-.67-5.5 2.16-1.7 2.83-3.63 2.95-4.4 2.66 1.23-.52 1.35-1.49 1.52-2.95.05-.4.1-.85.18-1.34.5-2.9 3.05-8.64 9.32-8.39 7.83.31 11.72 7.14 11.78 12.21zm-19.7.74c.34-.09 1.2-.54 1.98-1.62a2.66 2.66 0 013.36-.84 5 5 0 00-1.87 1.79c-.9 1.42-2.76 1.35-3.47.67z" fill="#F54343"/></svg>