<!-- by TradingView --><svg xmlns="http://www.w3.org/2000/svg" width="56" height="56" viewBox="0 0 56 56"><path fill="#F0F3FA" d="M0 0h56v56H0z"/><path d="M19.2 22.98a15.94 15.94 0 0 0 7.07 7.54l7.28-6.22c-1.98-1.9-4.88-2.8-7.57-2.8a20 20 0 0 0-6.87 1.3l.09.18Zm-.3-.64A20.5 20.5 0 0 1 25.98 21c2.84 0 5.88.97 7.96 2.98l1.65-1.42c-2.81-2.71-5.68-3.53-8.93-4.46-1.7-.49-3.49-1-5.44-1.83C19.18 15.4 16 14 16 14c.77 3.29 1.88 6 2.9 8.31v.03Zm15.03 2.35-7.26 6.18A9 9 0 0 0 31 32c1.95 0 3.54-.78 4.18-2.23.24-.55.32-1.11.32-1.68 0-.8-.27-1.6-.76-2.36-.24-.37-.51-.72-.8-1.04Zm-7.67 6.52A9.37 9.37 0 0 0 31 32.55c2.08-.01 3.89-.89 4.63-2.57.28-.62.37-1.26.37-1.89 0-.9-.3-1.79-.84-2.63-.26-.39-.54-.76-.85-1.1l1.71-1.45c.66.89 1.2 1.9 1.55 2.95.29.87.43 1.76.43 2.62 0 1.33-.28 2.59-1.04 3.62-1.19 1.6-3.17 2.4-5.4 2.4-2.18 0-4.6-.7-6.78-2.03l1.48-1.26Zm-1.1 4.88c.56.27 1.6.7 2.17.91A33 33 0 0 0 13 43v-.73l9.46-7.83c.8.62 1.73 1.18 2.7 1.65Zm12.59-1.56C35.97 36.17 33.87 37 30.59 37c-1.84 0-3.59-.62-5.22-1.42-.87-.42-1.77-.95-2.5-1.49l1.5-1.27a14 14 0 0 0 7.2 2.18c2.36 0 4.49-.85 5.79-2.6 1.4-1.89 1.34-4.7.68-6.7-.37-1.1-.93-2.17-1.64-3.11l.9-.76A7.04 7.04 0 0 1 41.76 20c1.06 0 2.24.47 2.24.47l3 .03c-4.09 1.2-5.69 3.61-6.56 7.63l-.17.8c-.4 1.97-.82 4.04-2.52 5.6Z" fill="#0158A7"/></svg>