<!-- by TradingView --><svg width="56" height="56" viewBox="0 0 56 56" xmlns="http://www.w3.org/2000/svg"><path fill="#064E80" d="M0 0h56v56H0z"/><path fill-rule="evenodd" d="M15 18h15a5 5 0 0 1 2.05 9.56 5.25 5.25 0 0 1-.8 10.44H15V18Zm3 3h11.5a2.5 2.5 0 0 1 0 5H18v-5Zm0 8h12a3 3 0 1 1 0 6H18v-6Z" fill="#fff"/><path d="M39 8c2.42 4.07 7.64 22.5 0 39a68.73 68.73 0 0 0 3-18.5C42 17.37 39 8 39 8Z" fill="url(#a)"/><defs><linearGradient id="a" x1="38.76" y1="8.83" x2="38.76" y2="20.85" gradientUnits="userSpaceOnUse"><stop offset=".23" stop-color="#FCC347"/><stop offset=".51" stop-color="#FBB315"/><stop offset=".74" stop-color="#FCC03D" stop-opacity=".83"/></linearGradient></defs></svg>