<!-- by TradingView --><svg width="56" height="56" viewBox="0 0 56 56" xmlns="http://www.w3.org/2000/svg"><path fill="#F0F3FA" d="M0 0h56v56H0z"/><path d="M9.8 39H14v-1h3v-2h3.68l.26-.1c.66-.24 1.66-.61 1.83-1.9h1.04c0-1 1.59-3 4-3 2.4 0 3.88 2.19 3.88 3h1.33c.27.7 1.12 1.57 2.37 2H39v2h3v1h4.22L32.55 12H22.3L9.8 39Zm16.1-12 1.96-4.5 2.15 4.5h-4.12Z" fill="#00583A"/><path d="M25.44 35.12c.04-.35.21-.9.59-1.34.36-.44.91-.8 1.77-.8V32c-1.16 0-1.97.5-2.5 1.14-.38.46-.61.98-.73 1.43h-1.1l-.1.36a2.72 2.72 0 0 1-1.07 1.43c-.48.35-1 .54-1.33.64H18v1.63h-3V40H9.48L9 41h7v-1.39h3V38h2.1c.43-.12 1.15-.4 1.75-.84a3.87 3.87 0 0 0 1.33-1.6h1.2l.06-.44Zm4.73 0c-.04-.35-.22-.9-.6-1.34a2.19 2.19 0 0 0-1.77-.8V32c1.17 0 1.98.5 2.5 1.14.4.46.62.98.74 1.43h1.1l.1.36c.15.58.57 1.06 1.07 1.43.48.35 1 .54 1.33.64H38v1.63h3v1.39h5.43L47 41h-7v-1.39h-3V38H34.45a5.57 5.57 0 0 1-1.7-.84 3.87 3.87 0 0 1-1.32-1.6h-1.2l-.06-.44Z"/></svg>