<!-- by TradingView --><svg width="56" height="56" viewBox="0 0 56 56" xmlns="http://www.w3.org/2000/svg"><path fill="#F0F3FA" d="M0 0h56v56H0z"/><path d="M13 13h30v30H13V13Zm1 29h28.06V14H14v28Z" fill="#162739"/><path d="M21 19.5a1.5 1.5 0 1 1-3 0 1.5 1.5 0 0 1 3 0Z" fill="#9E7726"/><path d="M26.75 19.32a1.75 1.75 0 1 1-3.5 0 1.75 1.75 0 0 1 3.5 0Z" fill="#AF8124"/><path d="M33 19.5a2 2 0 1 1-4 0 2 2 0 0 1 4 0Z" fill="#B78623"/><path d="M39 19.25a2.25 2.25 0 1 1-4.5 0 2.25 2.25 0 0 1 4.5 0Z" fill="#C08B22"/><path d="M21 25.5a1.5 1.5 0 1 1-3 0 1.5 1.5 0 0 1 3 0Z" fill="#856829"/><path d="M27 25.25a1.75 1.75 0 1 1-3.5 0 1.75 1.75 0 0 1 3.5 0Z" fill="#9E7726"/><path d="M20.57 30.17a1.17 1.17 0 1 1-2.34 0 1.17 1.17 0 0 1 2.34 0ZM26 36.25a1.25 1.25 0 1 1-2.5 0 1.25 1.25 0 0 1 2.5 0Z" fill="#735E2B"/><path d="M26.5 30.5a1.5 1.5 0 0 1-3 0 1.5 1.5 0 0 1 3 0Z" fill="#8D6D28"/><path d="M38.5 25a2 2 0 1 1-2-2 2 2 0 0 1 2 2Z" fill="#B78623"/><path d="M32.5 25a1.75 1.75 0 1 1-3.5 0 1.75 1.75 0 0 1 3.5 0Z" fill="#AF8124"/><path d="M32 30.5a1.5 1.5 0 1 1-3 0 1.5 1.5 0 0 1 3 0Z" fill="#9E7726"/><path d="M38.25 30.75a1.75 1.75 0 1 1-3.5 0 1.75 1.75 0 0 1 3.5 0Z" fill="#AF8124"/><path d="M32 36.5a1.5 1.5 0 0 1-3 0 1.5 1.5 0 0 1 3 0Z" fill="#856829"/><path d="M38 36.5a1.5 1.5 0 0 1-3 0 1.5 1.5 0 0 1 3 0Z" fill="#9E7726"/></svg>