<!-- by TradingView --><svg width="56" height="56" viewBox="0 0 56 56" xmlns="http://www.w3.org/2000/svg"><path fill="#F0F3FA" d="M0 0h56v56H0z"/><path d="M31 30.27V23h4.3c1.49 0 2.7-1.34 2.7-3s-1.21-3-2.7-3H31v-5.3c0-1.49-1.34-2.7-3-2.7s-3 1.21-3 2.7V17h-4.3c-1.49 0-2.7 1.34-2.7 3s1.21 3 2.7 3H25v7.28a15.88 15.88 0 0 0-11.73 9.87c-.67 1.72.5 3.88 2.38 3.85 1.36-.02 2.7-1.14 3.37-2.42 1.61-3.1 4.85-5.71 8.52-5.71a9.55 9.55 0 0 1 8.52 5.32c.93 1.86 3 3.31 4.97 2.64 1.46-.5 2.24-2.4 1.7-3.85A15.17 15.17 0 0 0 31 30.27Z" fill="#3D5567"/></svg>