<!-- by TradingView --><svg width="56" height="56" viewBox="0 0 56 56" xmlns="http://www.w3.org/2000/svg"><path fill="#007855" d="M0 0h56v56H0z"/><path d="M38.95 35.33h1.35c.36 0 .72-.14.72-.51V21.39c0-.45-.5-.72-1.02-.72-1.98 0-3.02 3.9-3.27 5.33H36v-6h14v6h-.73c-.25-1.4-1.3-5.33-3.25-5.33-.51 0-1.02.27-1.02.72v13.43c0 .37.37.5.73.5h1.32V36h-8.1v-.67Z" fill="#F8FCFC"/><path d="M28.64 36c-2 0-4.64-.78-4.64-3.2 0-3.53 1.69-4.09 2.87-4.81l.52-.32-.25-.34A4.88 4.88 0 0 1 26 24.3c0-2.09 2.8-3.3 4.74-3.3 1.43 0 3.26 1.5 3.26 3 0 1.63-1.22 2.86-2.46 3.67l3.73 4.59c.46-.49.83-1 1.12-1.57.28-.57.43-1.05.43-1.42 0-.48-.4-.8-.87-.8H35v-.48h5v.48h-.29c-.82 0-1.49.48-2 1.44a13.15 13.15 0 0 1-2 2.89c.36.53 1.79 2.7 4.29 2.7 2.94 0 .55.5-2.1.5-1.59 0-3.04-.27-4.04-1.58A9.3 9.3 0 0 1 28.64 36Zm2.19-9.63C31.5 26 32 24.58 32 24c0-.95-.29-2.36-1.24-2.36-1.66 0-1.64 1.61-1.05 2.94.17.37.54.96 1.12 1.79ZM33 34l-4.75-4.73c-1.78 1.43-1.31 4.23.83 5.17 1.45.62 2.67.52 3.92-.44ZM8 23.87v9.43c0 1.32 1.29 2 2.51 2v.7H5v-.7c1.21 0 2-.6 2-1.91V21.32c0-.37-.13-.61-.5-.61H5V20h5l4.38 10.87L18.5 20H24v.7h-1.56c-.37 0-.44.17-.44.54v13.52c0 .37.08.53.44.53H24V36h-8.47v-.7h1.56c.37 0 .91-.16.91-.54V23l-4.24 13h-.87L8 23.87Z" fill="#F8FCFC"/></svg>