<!-- by TradingView --><svg width="56" height="56" viewBox="0 0 56 56" xmlns="http://www.w3.org/2000/svg"><path fill="#006A92" d="M0 0h56v56H0z"/><path d="m29.76 36.26 13.6-12.7a16.08 16.08 0 0 0-3.64-6.49L29.47 27.91l.3 8.35ZM29.86 40.17l.08 3.65a15.9 15.9 0 0 0 11.46-7.3l-8.6.45-2.94 3.2Z" fill="#80B5C7"/><path d="M31.19 12.36a16.3 16.3 0 0 0-2.23-.36l.1 2.31 2.13-1.95Z" fill="#85A0A9"/><path d="m26.74 19.5-5.59-5.9a14.98 14.98 0 0 0-5.95 4.8l11.28 10.75.26-9.66ZM12.1 29.15c.3 3.9 2 7.57 4.78 10.32l4.54-.36-9.33-9.96Z" fill="#80B5C7"/><path d="m43.7 25.32-9.14 9.78 7.48.35a15.27 15.27 0 0 0 1.96-7.5c-.01-.88-.11-1.76-.3-2.63ZM29.4 25.32l6.14-5.78.17-5.5a17.92 17.92 0 0 0-3.82-1.5l-2.83 3.01.35 9.77ZM26.39 31.73l-6.9-7.24-7.05-.23c-.17.9-.35 1.78-.44 2.67l14.04 13.24.35-8.44ZM26.98 12c-1.84.1-3.64.52-5.33 1.24l5.15 4.9.18-6.14Z" fill="#BFDAE5"/><path d="M38.92 16.35a11.36 11.36 0 0 0-2.67-1.95l.18 4.35 2.49-2.4ZM18.13 40.61a15.47 15.47 0 0 0 7.64 3.2l-2.75-2.92-4.89-.28ZM14.58 19.28a15.35 15.35 0 0 0-1.96 4.45l5.95-.18-4-4.27Z" fill="#fff"/></svg>