<!-- by TradingView --><svg width="56" height="56" viewBox="0 0 56 56" xmlns="http://www.w3.org/2000/svg"><path fill="url(#ayi5twaye)" d="M0 0h56v56H0z"/><path fill-rule="evenodd" d="M30 22h.5v11H30V22ZM5.86 27.92H4C4 29.22 5.09 30 6.68 30s2.76-.77 2.76-2.08c0-1.3-1.73-1.7-2.5-1.85-.75-.15-.52-.86.26-.86.63 0 .78.42.77.63h1.7C9.75 24.92 9.25 24 7.4 24c-1.85 0-2.73.71-2.73 1.84 0 1.11.81 1.37 2.07 1.77l.05.01c1.29.41.74 1.11-.1 1.11-.68 0-.83-.54-.82-.8ZM9.34 30l1.26-6h1.69l-.6 2.7c.3-.29.87-.7 1.58-.7 1.04 0 1.47.54 1.3 1.57-.14.83-.46 1.96-.6 2.43h-1.75l.6-2.27c.01-.18-.05-.55-.48-.55-.42 0-.77.45-.9.7L10.97 30H9.34Zm8.26-4c-1.8 0-2.37.88-2.43 1.32h1.61c.1-.24.36-.46.65-.46.3 0 .54.1.54.37 0 .26-.29.48-1.48.48s-1.92.66-1.92 1.24c0 .59.44 1.05 1.4 1.05.77 0 1.3-.27 1.46-.4v.4h1.75l-.14-.5c.07-.2.26-.8.44-1.53.23-.9.38-1.97-1.88-1.97Zm-.75 3.23c.62 0 .86-.62.9-.93-.1.05-.38.15-.7.15-.41 0-.77.12-.77.47 0 .27.38.32.57.3Zm5.17-2.6.14-.63h-1.7l-.86 4h1.63l.5-2.16c.5-.67 1.42-.59 1.87-.44l.33-1.33a1.95 1.95 0 0 0-1.91.55ZM23.29 30l1.26-6h1.7l-.73 3.27L26.8 26h2.1L27 27.57l.97 2.43h-1.75l-.54-1.34-.57.47-.19.87H23.3ZM32 31.31l1-.28v-4.74l3 4.26.85-.13v-6.57l-1.16-.25v4.08l-2.75-4.46L32 23v8.31Zm4.08-.6.12.16 1-.17v-6.65l-.2-.08v6.55l-.92.18Zm2.92-.59-1.01.17v-6.32l1.01.15v6Zm-.93.33v.22l1.18-.22v-6.27l-.14-.02v6.04l-1.04.25Zm1.93-.43v-5.83l.88.1 2.12 3.3v-3.15l1 .15v5.15h-.73L41 26.47v3.4l-1 .15Zm.13.35v-.22l1.03-.22v-2.87l.22.2v2.83l-1.25.28Zm3.26-.21-.07-.28h.81v-5.25l.29.1v5.36l-1.03.07ZM45 24.6v4.48c-.07.76-.23 2.51-.72 3.53l1.44-1.05c.14-.36.28-1.46.28-3v-3.87l-1-.09Zm1.12.19h.21v3.78c0 1.24-.17 2.64-.32 3.19L44.49 33l-.19-.19 1.59-1.25c.18-.65.2-1.7.22-2.42v-4.35Zm.61 4.9h1.17l.39-.9h1.81l.28.9h1.13L49.75 25h-1.14l-1.88 4.69Zm1.79-1.87h1.28l-.49-1.63h-.22l-.57 1.63Zm-1.76 2.02V30h1.37l.42-1.07h-.2l-.36.9h-1.23Zm1.94-2.1.48-1.34.11.32-.35 1.02h-.24ZM50.2 25h-.24l1.76 4.84h-1.23l.07.16H52l-1.8-5Zm-17.07 6.16-1.05.32v.2l1.3-.33v-4.3l-.25-.32v4.43Z" fill="#fff"/><defs><linearGradient id="ayi5twaye" x1="10.42" y1="9.71" x2="68.15" y2="76.02" gradientUnits="userSpaceOnUse"><stop stop-color="#1A1E21"/><stop offset="1" stop-color="#06060A"/></linearGradient></defs></svg>