<!-- by TradingView --><svg xmlns="http://www.w3.org/2000/svg" width="56" height="56" viewBox="0 0 56 56"><path fill="#00A7D4" d="M0 0h56v56H0z"/><path d="M34.02 37.83c-2.15-1.23-6.05-4.3-1.56-12.08 2.04-3.53 5.97-10.8-3.97-13.75 12.84 1.24 7.08 13.13 6.14 15.06l-.1.19c-.5 1.1-1.68 3.88.96 5.4 2.64 1.5 4.42.34 5.47-1.46.84-1.44.55-4.47.3-5.81 1.56 1.8 3.92 6.02 2.05 9.24-2.35 4.03-7.15 4.44-9.3 3.2zm-10.73-12c9.03-.03 9.76-4.9 9.76-7.37 0-2.45-2.75-6.38-7.44-6.38-3.75 0-6.26 4.15-7.05 6.38 1.04-.88 3.54-2.64 5.22-2.64 2.1 0 4 .94 4 3.97 0 3.02-3 3.4-4.23 3.51l-.2.02c-2.17.16-15.43 1.15-10.1 12.8-2.4-10 5.93-10.27 10.04-10.28zm-9.99 1.11c.62-1.17 3-3.95 5.9-4.53l1.3-.25c2.9-.54 4.81-.9 4.76-3.06-.05-1.95-5.26-2.1-8.02 1a19.13 19.13 0 0 0-3.94 6.84zm23.18-10.31c.72 1.11 1.95 4.55 1.01 7.33l-.43 1.23c-.98 2.78-1.62 4.59.3 5.63 1.72.93 4.46-3.47 3.14-7.39a19.15 19.15 0 0 0-4.02-6.8zm-19.8 12.32c2.18-1.15 6.85-2.81 11.2 4.8 1.97 3.46 6.16 10.37 13.89 3.66-7.78 9.96-14.98-.78-16.15-2.53l-.12-.17c-.68-.98-2.45-3.35-5.13-1.93-2.68 1.41-2.61 3.46-1.61 5.23.8 1.42 3.55 2.71 4.83 3.18-2.35.38-7.23.2-9.01-2.97-2.24-3.96-.07-8.12 2.1-9.27zm16.93 12.71c-1.33.03-4.93-.68-6.83-2.86l-.83-.98c-1.87-2.2-3.1-3.64-4.99-2.59-1.7.95.65 5.43 4.7 6.31 3.6.78 6.68.39 7.95.12z" fill="#fff"/></svg>