<!-- by TradingView --><svg width="56" height="56" viewBox="0 0 56 56" xmlns="http://www.w3.org/2000/svg"><path fill="#F0F3FA" d="M0 0h56v56H0z"/><path d="m41.6 34.74.84-.81a.84.84 0 0 1 .6-.26.68.68 0 0 1 .54.19.65.65 0 0 1 .15.75.9.9 0 0 1 .6.1l.78.26-.5.49-.52-.18a1.57 1.57 0 0 0-.52-.14.32.32 0 0 0-.26.1l-.13.13.77.74-.47.45-1.88-1.82Zm.8-.1.44.4.24-.23a.44.44 0 0 0 .14-.25.3.3 0 0 0 0-.2c-.14-.15-.3-.15-.49 0l-.33.27ZM46.38 33.09l.33.33-1.38 1.33-1.87-1.8 1.36-1.32.35.34-.9.86.4.38.86-.82.34.33-.87.8.46.45.92-.88ZM45.69 30.81l-.47.45 1.88 1.8.46-.44-1.87-1.8ZM45.98 30.51l.35.33.67-.65 1.55 1.48.45-.46-1.53-1.47.68-.65-.35-.33-1.82 1.75Z" fill="#263B80"/><path d="M33.93 15 20.86 28l13.07 12.99 13.07-13L33.93 15Z" fill="#002E87"/><path d="M20.07 15 7 28l13.07 13 1.15-1.16L9.32 28l11.9-11.86L20.07 15Z" fill="#6AC3E9"/><path d="M24.7 15 11.63 28 24.7 41l1.15-1.16L13.94 28l11.9-11.86L24.7 15Z" fill="#6EA9DB"/><path d="M29.3 15 16.24 28l13.08 13 1.16-1.16L18.55 28l11.92-11.86L29.31 15Z" fill="#2D6FB7"/><path d="M43 30.4v-1.3l-.04.09c-.41.21-.85.4-1.3.53-.3.09-.62.14-.93.13a2.33 2.33 0 0 1-1.56-.51 1.74 1.74 0 0 1-.61-1.3 1.67 1.67 0 0 1 .61-1.3 2.53 2.53 0 0 1 1.6-.5c.75.02 1.59.23 2.23.6v-1.32a4.9 4.9 0 0 0-2.33-.52 3.9 3.9 0 0 0-2.68.9 2.93 2.93 0 0 0-.99 2.15 2.83 2.83 0 0 0 .99 2.16c.73.57 1.66.85 2.6.78.84 0 1.67-.2 2.41-.59ZM32 30v1h-5v-6h1.5v5H32Zm5-5v1h-2v5h-1.5v-5h-2v-1H37Z" fill="#F0F3FA"/></svg>