<!-- by TradingView --><svg width="56" height="56" viewBox="0 0 56 56" xmlns="http://www.w3.org/2000/svg"><path fill="url(#af31wfgtu)" d="M0 0h56v56H0z"/><path d="M37.92 28H30.7a.46.46 0 0 1-.35-.16.6.6 0 0 1-.14-.4c0-.29.23-.44.49-.44h6.85l1.18-5h-3.2c-.27 0-.5-.15-.5-.45a.6.6 0 0 1 .15-.39c.09-.1.21-.16.34-.16h3.85c.08 0 .15.02.22.06.07.04.13.1.17.16a.62.62 0 0 1 .08.48l-1.45 5.9a.56.56 0 0 1-.18.29.45.45 0 0 1-.3.11ZM35.1 35h-3.3a.5.5 0 0 1-.35-.13.47.47 0 0 1-.15-.34.46.46 0 0 1 .15-.35.5.5 0 0 1 .16-.1c.07-.02.13-.08.2-.08h2.91l1.18-4h-8.56c-.12 0-.24-.1-.33-.2a.47.47 0 0 1 0-.66.5.5 0 0 1 .33-.14h9.2a.5.5 0 0 1 .4.19.47.47 0 0 1 .08.41l-1.46 5.05a.47.47 0 0 1-.17.25.5.5 0 0 1-.3.1Z" fill="#FFFFFE"/><path d="M37.55 10c2.22 0 3.28 1.04 3.29 1.05 1.5 1.52 1.55 4.51.12 8-2.47 6.02-8.9 12.43-15.93 12.43l-.39-.01a.14.14 0 0 1-.13-.11.15.15 0 0 1 .07-.16l1.15-.63c8.43-4.28 13.28-12.1 13.91-16.05.17-1.04.05-1.8-.33-2.19-.08-.08-.44-.29-1.1-.29-1.36 0-4.96 1.03-10.7 9.7h-5.78l.27-.34C29.34 11.98 34.51 10 37.55 10Zm-19 17a38.4 38.4 0 0 0-1.07 2.38h5.57c.38-.75.8-1.54 1.27-2.38h-5.77Zm2.2 7.63H15.8c-.62 2.73-.75 5.3-.18 7.29.5 1.75 1.5 2.91 2.97 3.44.05.02 1.23.64 3.12.64 3.8 0 9.38-2.42 14.38-13.94a.15.15 0 0 0-.05-.18.14.14 0 0 0-.19.02c-.54.56-1.11 1.17-1.7 1.82l-.03.02c-3.13 3.38-7.01 7.59-12.16 7.59h-.38c-.02-.01-.78-.07-1.24-.96-.49-.92-.63-2.62.43-5.74Z" fill="#F6BE5A"/><path d="M29.92 28h-13.9a.44.44 0 0 1-.22-.06.5.5 0 0 1-.17-.16.62.62 0 0 1-.08-.48l1.76-5.9c.03-.11.1-.22.18-.29a.45.45 0 0 1 .3-.11H35.6v1H18.15l-1.48 5H31.1l-1.2 1ZM31.93 35H13.5a.5.5 0 0 1-.4-.19.47.47 0 0 1-.07-.41l1.74-5.05c.03-.1.09-.2.17-.25a.5.5 0 0 1 .3-.1h13.4l-1.6 1H15.6l-1.47 4h17.8v1Z" fill="#FFFFFE"/><defs><linearGradient id="af31wfgtu" x1="10.42" y1="9.71" x2="68.15" y2="76.02" gradientUnits="userSpaceOnUse"><stop stop-color="#1A1E21"/><stop offset="1" stop-color="#06060A"/></linearGradient></defs></svg>