<!-- by TradingView --><svg width="56" height="56" viewBox="0 0 56 56" xmlns="http://www.w3.org/2000/svg"><path fill="#222020" d="M0 0h56v56H0z"/><path d="M43 13H13v30h30V13ZM13.53 42.46V13.54h28.94v28.92H13.53Zm14.48-16.53c.05-.29.13-.43.24-.43.12 0 .19.09.19.27v.41c-.01.55-.02 1.47-.01 2.26 0 .68.08 1.28.08 1.28 0 .16-.05.24-.15.24-.1 0-.2-.1-.27-.27-.17-.4-.36-.68-.57-.68-.11 0-.32.12-.6.28l-.18.1a4.36 4.36 0 0 1-2.38.6 6.09 6.09 0 0 1-4.55-1.85A6.43 6.43 0 0 1 18 23.45c0-1.9.55-3.44 1.66-4.65A5.54 5.54 0 0 1 24.3 17c.47.02.85.07 1.16.15.38.1 1.04.34 1.6.66.28.15.45.21.59.21.1 0 .28-.08.38-.27l.12-.26c.06-.15.1-.2.15-.23.1-.04.24.03.24.13l-.06.75c-.1.86-.07 1.93-.06 2.55v.5a.18.18 0 0 1-.2.15c-.13-.02-.17-.11-.2-.34a5.78 5.78 0 0 0-.86-2.16 3.47 3.47 0 0 0-3.08-1.48c-1 0-1.8.33-2.4.98-1.05 1.17-1.58 2.9-1.58 5.15 0 2.02.43 3.58 1.3 4.7a3.67 3.67 0 0 0 3.04 1.45h.12a3.5 3.5 0 0 0 1.66-.47c.53-.3.8-.7 1.1-1.22.32-.62.55-1.3.69-2.02Zm-9.44-2.48c0 1.76.54 3.17 1.65 4.31.17.17.34.32.52.47a8.31 8.31 0 0 1-1.22-4.74c0-2.08.45-3.76 1.32-5-.27.2-.53.43-.75.68a6.1 6.1 0 0 0-1.52 4.28Zm19.12 6.19h.11c.13.02.2.08.2.18 0 .1-.08.14-.21.17a5.2 5.2 0 0 1-.73 0 2.63 2.63 0 0 1-2.26-1.17 2.74 2.74 0 0 1-.46-.98c-.06-.31-.17-1.11-.3-2.4-.08-.77-.34-1.31-.77-1.63-.4-.3-1.27-.42-1.94-.42h-.91a.2.2 0 0 1-.2-.2c0-.04.02-.1.06-.13a.2.2 0 0 1 .14-.06h.9a4 4 0 0 0 2.4-.72c.55-.42.8-1.14.8-2.12 0-1.73-.77-2.8-2.32-2.8h-2.5c-.28 0-.32-.1-.32-.2s.1-.16.32-.16h3.04a4.6 4.6 0 0 1 2.77.94c.67.5 1.01 1.19 1.01 2.03 0 .85-.35 1.55-1.04 2.1-.7.55-1.57.93-2.73 1.06h-.06c-.16.03-.25.04-.25.06 0 .02.09.04.21.06 1.36.22 2.2.58 2.68 1.25.5.67.83 1.89.99 3.65.08.88.44 1.36.9 1.44.23.04.36.04.47.05Zm-2.53-11.26c-.2-.14-.4-.26-.65-.35.48.66.58 1.5.58 2.13 0 .68-.12 1.26-.35 1.73.13-.08.26-.16.37-.25.57-.45.84-.98.84-1.66 0-.69-.26-1.2-.8-1.6Zm-.26 9.35c.06.24.18.5.38.78s.42.5.69.65c-.14-.33-.2-.68-.22-.96-.2-2.06-.59-2.97-.88-3.38-.13-.17-.3-.33-.51-.47.12.3.2.65.25 1.05.13 1.26.23 2.04.3 2.33Z" fill="#B0725D"/><path d="M38 34H18.06v.11H38V34Z" fill="#AD725A"/><path opacity=".5" fill="#B0725D" d="M18 36h20v2H18z"/></svg>