<!-- by TradingView --><svg width="56" height="56" viewBox="0 0 56 56" xmlns="http://www.w3.org/2000/svg"><path fill="#F0F3FA" d="M0 0h56v56H0z"/><path d="M25.85 11H26v6.83c-.96 1.68-1.79 2.66-2.8 4.3-.97-1.42-1.9-2.9-2.9-4.3-1.55 2.26-3.02 4.58-4.56 6.86-.23.38-.53.74-.63 1.18.58-.66 1.03-1.42 1.52-2.16.9-1.4 1.84-2.8 2.78-4.2 1.28 1.88 2.52 3.8 3.76 5.7.16.2.26.48.5.59.52.07 1.04.16 1.57.16h7.2l-.07.79-1.2.1-.12.3c.33.2.7.36 1 .61.19.15.12.4.13.6-1.53.09-3.07.12-4.6.22-.3-.04-.5.17-.65.38.82.4 1.72.6 2.55.97l-.07.5c-1.5.38-3 .77-4.5 1.13-.53.14-1.08.24-1.57.5.23.25.55.41.87.54 1.43.51 2.89.98 4.32 1.52.24.07.3.37.4.55-1.23.33-2.55.16-3.81.39-.12.03-.17.14-.23.23.15.27.47.34.72.47.77.32 1.54.62 2.29.97 0 .12.03.35.04.47-.85.19-1.72.25-2.58.34-1.8.19-3.62.32-5.42.55-.4.05-.82.38-.83.82 0 .25.2.44.37.61.48.44 1.06.77 1.65 1.05 1.34.62 2.75 1.18 4.24 1.2 1.5.09 3.07-.28 4.29-1.2.78-.62 1.13-1.6 1.81-2.3.26-.23.55-.44.89-.53 1.3-.4 2.67-.31 4-.5.27.03.43-.18.58-.36-.93-.52-1.96-.82-2.91-1.28-.22-.1-.28-.42-.09-.57 1.28-.32 2.65-.02 3.9-.45-.16-.21-.36-.4-.64-.47-1.64-.63-3.34-1.12-4.96-1.81.1-.24.24-.53.56-.54 1.72-.46 3.46-.84 5.18-1.3a.75.75 0 0 0 .44-.3.84.84 0 0 0-.42-.33c-.69-.27-1.4-.46-2.07-.75l.06-.5c1.57-.17 3.16-.13 4.73-.26.23.04.37-.15.43-.33-.4-.4-1.06-.51-1.28-1.1l.94-.24c-.04-.5.15-1.07-.19-1.5-.61-1-1.29-1.93-1.92-2.9-.99-1.47-1.91-2.98-2.95-4.42-.97 1.42-1.91 2.87-2.87 4.3-1-1.52-1.65-3.04-2.64-4.58-.27-.35-.2-.81-.24-1.21V11h.2c2.72.36 5.02 1.26 7.28 2.83 3.59 2.39 6.2 6.2 7.11 10.42A17.05 17.05 0 0 1 29.68 45H26.3a17.28 17.28 0 0 1-7.98-2.96 16.93 16.93 0 0 1-7.07-10.98c-.08-.5-.17-1.01-.24-1.53v-3.07c.32-2.82 1.2-5.6 2.82-7.94a16.67 16.67 0 0 1 4.94-4.88 16.26 16.26 0 0 1 7.1-2.64Zm-1.44 1.22-.14.25.26.23.26-.22-.14-.26h-.24Zm-2.37.8c.05.15.1.3.2.43.17 0 .34-.14.3-.32-.13-.13-.33-.1-.5-.1Zm9.62-.03v.45h.36V13h-.36Zm3.08 1.39-.15.28.28.23c.1-.11.2-.23.28-.35l-.4-.16Zm-12.77.35v.25l.25.14.22-.26-.22-.27-.25.14Zm3.15.36c.2.04.41.04.62 0l-.31-.41-.3.4Zm11.6.14c.01.15.05.29.09.43l.42-.2c-.13-.17-.3-.37-.52-.23Zm-17.43.12c-.03.13-.06.26-.06.39.1.14.3 0 .45 0l-.1-.3-.29-.09Zm12.67.6c.14-.02.28-.06.42-.1l-.2-.42c-.17.13-.36.3-.22.52Zm6.1.7.13.26h.25l.14-.25-.26-.22-.26.22Zm-4.4.22c-.33.09-.05.57.19.4.22-.16.09-.56-.2-.4Zm-15.46.09c-.03.13-.06.25-.06.39.1.13.3 0 .45 0l-.1-.3-.29-.1Zm4.42.04c-.13.1 0 .3 0 .45l.3-.1.09-.29c-.13-.03-.26-.06-.39-.06Zm15.24 1.5-.23.37c.13.03.26.08.4.08.06-.08.1-.18.15-.27l-.32-.17Zm-14.48.35.14.28.41-.17-.27-.35-.28.24Zm8.77.16.45.14c-.02-.17 0-.36-.13-.5-.22-.06-.32.18-.32.36Zm-8.85 3.3c1.26-1.93 2.56-3.84 3.82-5.77 1.52 2.17 2.93 4.4 4.4 6.61.15.22.3.45.48.66.99-1.41 1.87-2.9 2.88-4.3 1.22 1.83 2.38 3.7 3.64 5.48.3-.43.58-.88.92-1.28.44.6.82 1.24 1.22 1.87-5.07.02-10.15 0-15.22 0-.69-1.1-1.43-2.17-2.14-3.27Z" fill="#0B395B"/></svg>