<!-- by TradingView --><svg width="56" height="56" viewBox="0 0 56 56" xmlns="http://www.w3.org/2000/svg"><path fill="#91BA44" d="M0 0h56v56H0z"/><path d="M28.3 11.38c-1.1.5-2.48.92-3.36 1.03-1.2.15-1.45.39-1.9 1.79-.22.66-.37.92-.58 1.04-.45.24-.88.88-1.33 1.97l-.42 1-.58.12-1.08.18c-.85.12-1.64.39-1.84.62-.16.18-.22.55-.29 1.88-.1 1.77-.17 2.05-.81 2.88-.48.63-.93.86-2.2 1.12-1.32.28-1.44.32-1.85.61-.42.3-.66.81-1.13 2.43-.36 1.23-.45 1.42-.95 1.96a3.44 3.44 0 0 0-.97 2.12l-.01.43 1.49.5 1.49.51.78-.36c.43-.2.8-.36.82-.36.02 0 .18.3.35.68l.32.67 1 .25c1.47.38 1.96.4 2.78.19a5.13 5.13 0 0 0 2.34-1.27l.58-.53.74.23c.98.31 1.5.3 2.7-.05.53-.16 1-.27 1.02-.25.1.1-.22 2.72-.43 3.6-.12.5-.4 1.27-.63 1.7l-.4.78-.62-.07a33.05 33.05 0 0 0-4.96-.16c-1.02.12-1.87.44-2.25.86l-.26.28.34.5.33.48 2.13.07c9.06.31 13.4.25 16.22-.24l3.25-.56c1.08-.2 2.45-.39 3.03-.44.98-.08 1.03-.1.56-.17-.27-.05-2.12-.12-4.1-.15-1.97-.04-4.15-.1-4.83-.14l-1.25-.06-.68-1.06a6.43 6.43 0 0 1-1.26-2.97c-.13-.95 0-1.68.34-1.97.13-.1.58-.3.99-.43.41-.13 1.17-.4 1.69-.6l.94-.37.27.34 1.01 1.19c.6.69.78.83.98.77 1.43-.46 1.39-.46 2.71 0 1.64.58 2.26.59 3.92 0l1.22-.42.84.18c1.05.22 1.4.22 1.87 0 .4-.2.62-.58.62-1.1 0-.43-.2-.85-.84-1.7a5.52 5.52 0 0 1-1.18-2.84 7.77 7.77 0 0 0-.41-1.53c-.1-.15-.66-.6-1.27-1-1.28-.86-1.5-1.11-1.74-2-.39-1.4-.68-2.12-1.02-2.47a5.6 5.6 0 0 0-1.5-.88 8.5 8.5 0 0 1-1.5-.8 5.96 5.96 0 0 1-.94-1.6 12.9 12.9 0 0 0-1.32-2.25c-1.28-1.68-1.5-1.88-2.5-2.3-.85-.35-.95-.42-1.62-1.3l-.72-.91-.62-.03c-.49-.02-.8.06-1.51.38Zm.28 16.35v.82l-.8.48c-.98.58-1.02.53-.6-.82.25-.76.4-1.03.77-1.39.46-.44.47-.44.54-.17.04.15.08.64.09 1.08Zm4.33-.46c.9.13.93.17.37.87-.27.34-.63.69-.8.77-.3.16-2.31.42-2.4.32-.07-.07.34-.64 1.08-1.54.45-.55.54-.6.85-.55.19.03.6.1.9.13Zm-8.2 1.38c.3 1.3.3 1.32.16 1.32-.15 0-2.15-.49-2.22-.54-.03-.02.35-.44.84-.93.49-.49.92-.84.96-.77.04.06.15.47.26.92Z" fill="#fff"/></svg>