<!-- by TradingView --><svg width="56" height="56" viewBox="0 0 56 56" xmlns="http://www.w3.org/2000/svg"><path fill="#F0F3FA" d="M0 0h56v56H0z"/><path d="M26.37 45.24v.17c0 .34.27.6.6.59C33.37 45.6 44 39.24 44 28.3 44 17 34.66 12 27.81 12 20.97 12 12 17.99 12 26.64s7.03 14 12.69 14c4.2 0 7.06-2.04 8.18-3.27a.45.45 0 0 0 .03-.56.53.53 0 0 0-.7-.15 9.18 9.18 0 0 1-4.39 1.08c-7.54 0-9.64-6.3-9.74-9.44-.07-3.44 1.79-10.31 9.74-10.31 7.96 0 10.52 7.69 10.8 11.53 0 9.22-7.6 13.82-11.8 15.13a.62.62 0 0 0-.44.6Z" fill="#3D5FA9"/><path d="M39.42 29.3v.02a15.3 15.3 0 0 1-3.05 9.34c-.78 1.05 0 2.49 1 1.63 3.32-2.9 5.83-7.01 5.83-12.2 0-5.39-2.22-9.24-5.24-11.75a16.32 16.32 0 0 0-10.15-3.73c-3.21 0-6.99 1.41-9.96 3.89-2.96 2.46-5.05 5.91-5.05 9.93 0 8.18 6.65 13.19 11.89 13.19 1.03 0 .76-1.43-.22-1.73a9.69 9.69 0 0 1-4.96-3.4 11.68 11.68 0 0 1-2.25-6.37c-.03-1.85.44-4.6 2-6.93 1.6-2.36 4.3-4.22 8.55-4.22 4.28 0 7.14 2.1 8.94 4.67a16.1 16.1 0 0 1 2.66 7.62v.03Z" fill="url(#arg5e4xik)"/><path opacity=".7" d="M40.62 29.45v.07c0 .96 1.16 1.41 1.28.46.06-.55.1-1.1.1-1.68 0-5.01-2.05-8.53-4.8-10.82a15.12 15.12 0 0 0-9.39-3.45c-2.9 0-6.41 1.29-9.2 3.6-2.76 2.3-4.6 5.43-4.6 9 0 1.8.34 3.41.94 4.84.37.9 1.55-.1 1.35-1.06-.14-.68-.22-1.36-.24-2.04v-.03c-.04-2.03.47-5.05 2.21-7.63 1.82-2.69 4.89-4.75 9.54-4.75 4.74 0 7.94 2.34 9.92 5.19a17.32 17.32 0 0 1 2.89 8.22v.08Z" fill="url(#brg5e4xik)"/><defs><linearGradient id="arg5e4xik" x1="28" y1="12.61" x2="28" y2="48.31" gradientUnits="userSpaceOnUse"><stop stop-color="#3A9AC8"/><stop offset="1" stop-color="#3A9AC8" stop-opacity="0"/></linearGradient><linearGradient id="brg5e4xik" x1="40.83" y1="25.44" x2="14.01" y2="25.66" gradientUnits="userSpaceOnUse"><stop stop-color="#2DB2DF"/><stop offset=".46" stop-color="#A8D0D2"/><stop offset="1" stop-color="#4EBADE"/></linearGradient></defs></svg>