<!-- by TradingView --><svg xmlns="http://www.w3.org/2000/svg" width="56" height="56" viewBox="0 0 56 56"><path d="M56 0H0v56h56V0Z" fill="#F0F3FA"/><path d="M25.53 38.31c1.11-.65 2.4.69 2.93 1.51l-1.92 2.06c-1.02-.74-2.67-2.6-1.01-3.57Zm8.19-1.71c.6-.71 1.88-.6 3.28-.6v3c-.9 0-2.48.13-3.09-.34-.63-.5-.7-1.46-.2-2.06ZM21 35c.9-.63 1.61-1.54 2.09-1.87.2.19 1.7 1.7 1.91 1.87h2v2h-6v-2Zm-4-.2c0-2.17 3-1.91 3-.23V37h-3v-2.2Zm12.49 3.95L28 37v-2h3.43l1.03-1.39 1.17 1.17-1.55 1.43-2.6 2.54Zm10.05-7.29c-1.53 0-2.24-1.31-.94-2.65.36-.38.65-.76 1.06-1.05l1.97 2c-.36.54-1.41 1.7-2.09 1.7ZM19 28h1.5v3c1.2.96 0 0 1.44 1.18L21 33l-3.63-3.45L19 28Zm18 3.94v2.63h-1.57a14.21 14.21 0 0 0-2.06-2.03A12.2 12.2 0 0 1 35 30.58V28h2.5c-1 1.5-1 2.5-.5 3.94Zm-22.71-5.5c1.4-2.2 3.71-2.15 3.71.06 0 .63-1.3 1.65-1.77 1.98l-1.94-2.03Zm19.54-3.34.91-.71L38.5 27H35v-3c-.21-.15-.33-.15-.57-.33-.25-.2-.44-.3-.6-.57ZM20.5 25.73v.96H19V21h2l1.5 1.99c-.24.31-2 2.31-2 2.74ZM24.34 23l1.26-1.44.4.48h1.5v1.47l1.5.5v-2h2c0 .83 0 .27.01.7.19.26-.05 0 .65.64L31 24v1.5l1.8-1.32c.32.22.53.39.87.65.3.23.56.47.84.66-.45.52-.51.51-.51 1.51h-1.5c-.43.67-.16.16-1 1.6H34v1.9l-.74-.11-.8 1.07c-.2-.14-.94-.95-1.03-.95C30 31 31.5 30.5 30 31l1.43 1.54-1.37 1.55c-.16-.24-.21-.33-.35-.6L28 34v-2c-.42-.3 0 0-1.03-.54C27 33 27 32.95 27 34h-2v-1c-.35-.32-.68-.65-1-1l1.03-.78L24.5 30c-.45.41-1.04 1.1-1.5 1.5l-1.5-1 .5-1V28h1.43l.57-1h-2v-2h.5l1-.5.5.5 1.6-.45-1.26-1.56ZM36 21.07V19h3c0 1.3.32 3.63-1.5 3.63-.61 0-1.5-.56-1.5-1.56Zm-12.79.96-.6-.8 4.02-3.86.91.84V21h-3.52c-.8 1.03-.02-.05-.8 1.03ZM29 21c0-.57 0-1.54.03-2H35v1.11c-.56.4-1.9 1.5-2.5 1.92L31 21h-2Zm-7.86-1H19v-3c1.64 0 3.63-.22 3.63 1.69 0 .75-.73 1.31-1.49 1.31Zm8.46-5.61c1.4 1.11 1.83 1.63 1.83 2.27a1.4 1.4 0 0 1-1.83 1.32c-.78-.22-1.29-1.1-1.94-1.56a18.3 18.3 0 0 1 1.94-2.03ZM24 17.85c-.1-1.33-1.65-1.9-3.2-1.9H18v7.51c-1.25-.63-2.45-.26-3.44.53l-2.33 2.34c.36.57 1.99 2.01 2.71 2.77.74.77 2.45 2.33 2.77 2.84-1 .09-1.71 1.47-1.71 2.63v3.46l8-.03c-.5 1-1.18 2.22.09 3.52.77.8 1.54 1.74 2.42 2.36 5.49-5.5.03 0 5.49-5.5.09 1.09 1.4 1.62 2.63 1.62h3.43v-7.34c1.42.78 2.77.16 3.8-.93l1.91-2.06-3.18-3.12c-.81-.78 0-.09-2.42-2.49 1.03-.09 1.83-1.4 1.83-2.63V18h-7.43c.74-1.46-.07-3-.98-3.9l-2-1.74c-.53.37-5 5.08-5.59 5.5Z" fill="#404E8E"/><path d="M20.29 14.15c1.3 0 1.89 0 2.4.18.41.14.78.4 1.45.87l.2.14L27.66 12c-1.65 0-3.78.34-5.1.88l-.19.08c-.7.28-1.98.8-2.26 1.19h.18ZM26 27v2l.5.5v-.01l.5.51h2l1-1v-.54a25.56 25.56 0 0 0 0-.92V27l-1-1h-2l-1 1Zm-2.82 15.84a4.56 4.56 0 0 1-1.47-3.38h-4.8c.07.27.09.28.2.34l.23.17c.77.66 1.65 1.4 2.54 1.88l.2.1c.87.47 2.67 1.43 3.58 1.45-.12-.17-.28-.35-.48-.56Zm-8.83-9.56c-.18.53-.18 1.12-.18 2.46v.14c-.15-.06-.2-.04-.2-.03l-.01-.01-.14-.31A15.12 15.12 0 0 1 12 28.36l2.49 2.41.2.22c.2.22.38.42.62.6l-.16.25a6.78 6.78 0 0 0-.8 1.44ZM44 27.76l-3.31-3.34a9 9 0 0 1 .62-1.06c.42-.62.52-.77.52-3.12.15.06.2.04.2.03l.01.01.14.3.56 1.21c.23.52.44 1.13.62 1.75.33 1.16.64 2.93.64 4.22Zm-31.43-3.94c.2-.14.4-.35.63-.59.65-.68 1.5-1.56 3.14-1.56v-4.66c-1.04.73-2.56 3.54-3.12 4.74a7.8 7.8 0 0 0-.65 2.07Zm26.4-7.4H34.4c0-1.6-.88-2.52-1.53-3.2-.22-.23-.4-.43-.53-.62 1.53.13 5.89 2.65 6.63 3.82Zm2.73 19.84.06-.1a15 15 0 0 0 1.55-3.62c-.29.08-.51.31-.77.59-.46.47-1.04 1.08-2.34 1.29l-.25.03c-.15.02-.25.03-.32.08-.1.1-.1.33-.1.96l.01.87v2.63c.76-.53 1.59-1.84 2.16-2.73Zm-6.04 5.71c-.73 1.04-5.38 2.03-7.09 2.03.16-.25.35-.43.55-.64.07-.07.15-.14.22-.23l.65-.6a9.67 9.67 0 0 0 1.67-1.75l.32.24c.15.12.3.24.48.35.99.6 2 .6 3.2.6Z" fill="#00BCD3"/></svg>