<!-- by TradingView --><svg width="56" height="56" viewBox="0 0 56 56" xmlns="http://www.w3.org/2000/svg"><path fill="#F0F3FA" d="M0 0h56v56H0z"/><path d="M12.93 19.12a11.06 11.06 0 0 1 6.14-1.06c1.96.19 3.93.92 5.37 2.32A8.02 8.02 0 0 1 26.75 25H20.9a3.27 3.27 0 0 0-1.1-1.69 3.44 3.44 0 0 0-2.84-.56C14.7 23.25 14 26.03 14 28c0 2.69 1.13 5.6 4.45 5.31a3.5 3.5 0 0 0 2.8-2.31H19v-4h8v11h-4c-.07-.6-.14-1.63-.23-2.22-.11-.02-.17.14-.26.2a6.62 6.62 0 0 1-4.25 1.96 9.52 9.52 0 0 1-7.02-1.9 8.92 8.92 0 0 1-3.06-5.58c-.36-2.31-.2-4.76.71-6.93a8.72 8.72 0 0 1 4.04-4.41ZM29 18h9c3.76.07 8.01.65 8 5.35.03 2.1-.7 4.14-2.83 4.7.76.31 1.58.58 2.16 1.19.83.86.67 3.73.67 4.87 0 .91-.03 1.83.41 2.74.03.3.27.57.58.57L47 38h-6.32c-.34-1.35-.68-2.1-.68-4.14-.1-1.41-.25-3.86-1.77-3.86H35v8h-6V18Zm6 4v4h2.76c1.2 0 3.25-.48 3.24-2 0-1.32-1.64-1.98-2.83-2-.99-.02-2.18 0-3.17 0Z" fill="#004834"/></svg>