<!-- by TradingView --><svg width="56" height="56" xmlns="http://www.w3.org/2000/svg"><path fill="#49166D" d="M0 0h56v56H0z"/><path d="M48.694 18.041l-17.231 4.01v1.405l.058-.016c12.043-3.235 17.172-5.18 17.222-5.194a.11.11 0 00.083-.128c-.01-.051-.06-.095-.132-.077z" fill="#F6F8FD"/><path d="M37.42 18.256v-.002.002zm.623-1.254c-.886.056-2.527 1.507-3.428 2.368-3.586 3.428-6.253 6.58-8.192 9.88-4.043 2.393-9.198 4.853-14.315 6.773l-.123.046L11 39l.562-.24c3.256-1.371 8.69-3.945 13.615-6.807-.278.817-.418 1.569-.418 2.254 0 .51.078.986.232 1.418a3.2 3.2 0 001.767 1.886c1.26.556 2.98.566 4.942-.09 5.013-1.68 10.959-6.833 12.253-7.858l.05-.04a.115.115 0 00.033-.142c-.028-.048-.088-.06-.137-.027l-.064.042c-1.39.922-8.14 5.35-12.528 6.65-2.235.662-3.938.301-4.58-.692-.224-.34-.331-.769-.331-1.27 0-.976.416-2.22 1.218-3.603a54.377 54.377 0 002.049-1.35c4.28-2.657 9.213-7.826 9.423-10.98l.001-.07c0-.273-.107-.553-.294-.76a.9.9 0 00-.75-.319zm-.477 1.504c.28-.2.362-.075.28.152-.134.362-.752 2.541-5.342 6.704-1.197 1.084-2.05 1.692-3.774 2.82 2.824-4.372 6.947-8.32 8.836-9.676z" fill="#6C0"/><path d="M31.403 22.066l-17.18 4.555-.74 2.204 17.98-5.368 1.703-.474 1.6-1.694-3.363.777z" fill="#F6F8FD"/></svg>