<!-- by TradingView --><svg width="56" height="56" viewBox="0 0 56 56" xmlns="http://www.w3.org/2000/svg"><path fill="#F0F3FA" d="M0 0h56v56H0z"/><path d="M6.9 20 6 32h1.45l.74-10.07L11.66 32h1.21l3.83-10.07.55 10.07h1.56L18 20h-2.07l-3.55 9.68L8.89 20h-2ZM21.8 20H21v12h7v-1h-5.4v-4.48H28v-1h-5.4V21H28v-1h-6.2ZM34.28 20c.97-.03 2.25.44 2.77.67l-.43 1.2a7.85 7.85 0 0 0-2.34-.6c-2.77 0-3.36 2.77-.86 3.63 2.5.86 4.22 1.87 4.14 3.88-.08 2.02-2.1 3.18-4.14 3.22a7.94 7.94 0 0 1-3.6-.82l.67-1.16c3.75 1.6 5.4.11 5.4-1.24 0-1.07-.94-1.84-1.61-2.01-3.55-.94-4.13-2.56-4.14-3.48.2-2.84 2.93-3.25 4.14-3.29ZM38.73 32l4.3-12h2l4.29 12h-1.8l-1.36-4h-4.39l-1.36 4h-1.68Zm3.38-5h3.71l-1.85-5.47L42.1 27ZM6 37v-3h.82a.8.8 0 0 1 .44.16c.11.07.2.18.26.32s.09.3.09.47c0 .18-.03.34-.1.47a.68.68 0 0 1-.26.32.8.8 0 0 1-.44.11H6.2v-.38h.58c.11 0 .2-.02.27-.06.08-.04.13-.1.16-.18a.72.72 0 0 0 .05-.28c0-.1-.02-.2-.05-.28a.37.37 0 0 0-.16-.19.51.51 0 0 0-.27-.06h-.43V37H6Zm1.13-1.36L7.69 37H7.3l-.55-1.36h.38ZM11.6 35.5c0 .3-.05.57-.14.8-.1.22-.21.4-.37.51a.84.84 0 0 1-.53.18.85.85 0 0 1-.53-.18 1.2 1.2 0 0 1-.36-.51 2.16 2.16 0 0 1-.13-.8c0-.32.04-.58.13-.8.09-.23.21-.4.36-.52a.84.84 0 0 1 .53-.18c.2 0 .38.06.53.18.16.12.28.3.37.52.09.22.13.48.13.8Zm-.35 0c0-.24-.03-.44-.09-.6a.82.82 0 0 0-.25-.37.54.54 0 0 0-.35-.13.54.54 0 0 0-.35.13c-.1.08-.18.2-.24.37-.06.16-.1.36-.1.6 0 .23.04.43.1.6.06.16.14.28.24.37.1.08.22.12.35.12.13 0 .25-.04.35-.12.1-.09.2-.21.25-.37.06-.17.09-.37.09-.6ZM13.31 34h.4l.59 1.36h.02l.6-1.36h.4l-.84 1.8V37h-.34v-1.2l-.83-1.8ZM17.18 37h-.36l.82-3h.4l.82 3h-.37l-.64-2.43h-.02L17.18 37Zm.06-1.19h1.19v.37h-1.19v-.37ZM20.77 37v-3h.35v2.57h1.03V37h-1.38ZM23.72 34.42V34h1.76v.42h-.7V37h-.35v-2.58h-.71ZM27.28 34h.4l.59 1.36h.02l.6-1.36h.4l-.84 1.8V37h-.34v-1.2l-.83-1.8ZM33.5 34.42V34h1.76v.42h-.71V37h-.34v-2.58h-.72ZM37.24 37v-3h.8a.8.8 0 0 1 .45.16c.12.07.2.18.26.32s.09.3.09.47c0 .18-.03.34-.09.47a.68.68 0 0 1-.26.32.8.8 0 0 1-.44.11h-.62v-.38h.59c.1 0 .2-.02.27-.06.07-.04.12-.1.15-.18a.72.72 0 0 0 .05-.28c0-.1-.01-.2-.05-.28a.37.37 0 0 0-.15-.19.51.51 0 0 0-.28-.06h-.43V37h-.34Zm1.12-1.36.57 1.36h-.4l-.55-1.36h.38ZM42.31 34h.35v1.95c0 .2-.04.39-.12.55a.85.85 0 0 1-.8.5.85.85 0 0 1-.78-.5 1.24 1.24 0 0 1-.12-.55V34h.35v1.92c0 .13.02.25.07.35.04.1.1.18.2.24.07.06.17.09.29.09a.52.52 0 0 0 .5-.33c.04-.1.06-.22.06-.35V34ZM45.99 34.8a.44.44 0 0 0-.15-.3.48.48 0 0 0-.33-.12.5.5 0 0 0-.24.06.4.4 0 0 0-.16.15.43.43 0 0 0-.05.22c0 .07 0 .13.03.18.03.05.06.1.1.13a.7.7 0 0 0 .14.08l.14.05.22.08c.08.02.15.05.23.09.07.04.15.09.21.15.07.07.12.15.16.24.04.1.06.2.06.34 0 .16-.03.3-.1.44a.74.74 0 0 1-.29.3.88.88 0 0 1-.45.11.9.9 0 0 1-.45-.1.74.74 0 0 1-.3-.3 1.02 1.02 0 0 1-.1-.45H45c0 .1.03.19.08.26.04.07.1.12.18.15a.6.6 0 0 0 .24.05c.1 0 .19-.01.26-.05a.46.46 0 0 0 .25-.41.36.36 0 0 0-.06-.22.44.44 0 0 0-.15-.14 1.3 1.3 0 0 0-.22-.1l-.27-.08a1 1 0 0 1-.44-.28.72.72 0 0 1-.16-.5c0-.16.04-.3.11-.43a.76.76 0 0 1 .29-.3c.12-.06.26-.1.41-.1a.75.75 0 0 1 .69.39c.07.12.1.26.1.41H46ZM48.23 34.42V34H50v.42h-.71V37h-.35v-2.58h-.7Z"/></svg>