<!-- by TradingView --><svg width="56" height="56" viewBox="0 0 56 56" xmlns="http://www.w3.org/2000/svg"><path fill="#F0F3FA" d="M0 0h56v56H0z"/><path fill-rule="evenodd" d="M13 32.16c-.71.53-1.57.84-2.5.84C8.01 33 6 30.76 6 28s2.01-5 4.5-5c.93 0 1.79.31 2.5.84V23h3v10h-3v-.84ZM13 28c0 1.37-.9 2.49-2 2.49S9 29.37 9 28s.9-2.49 2-2.49 2 1.12 2 2.49Zm34 4.16c-.72.53-1.57.84-2.5.84-2.49 0-4.5-2.24-4.5-5s2.01-5 4.5-5c.93 0 1.78.31 2.5.84V23h3v10h-3v-.84ZM47 28c0 1.37-.9 2.49-2 2.49s-2-1.12-2-2.49.9-2.49 2-2.49 2 1.12 2 2.49Z" fill="#00B6CC"/><path d="M24 23h3v2.1c0 1.05-.65 1.9-1.46 1.9H24v-4Z" fill="#BFD630"/><path d="M21 23h-3v7c0 .98 1 3 3.5 3 1.55 0 2.25-.82 2.5-1.22V33h3v-2.23c0-.98-.65-1.77-1.46-1.77H24v.01c0 1-.96 1.4-1.52 1.4C21 30.4 21 29.2 21 29v-6Z" fill="#00B6CC"/><path d="M32 33h-3v-2.1c0-1.05.65-1.9 1.46-1.9H32v4Z" fill="#BFD630"/><path d="M35 33h3v-7c0-.98-1-3-3.5-3-1.55 0-2.25.82-2.5 1.22V23h-3v2.23c0 .98.65 1.77 1.46 1.77H32v-.01c0-1 .96-1.4 1.52-1.4C35 25.6 35 26.8 35 27v6Z" fill="#00B6CC"/></svg>