<!-- by TradingView --><svg xmlns="http://www.w3.org/2000/svg" width="56" height="56" viewBox="0 0 56 56"><path fill="#F0F3FA" d="M0 0h56v56H0z"/><path d="M28 45a17 17 0 0 0 16.18-22.22l-9.39 3.56c.13.71.2 1.48.18 2.28-.06 3.75-1.6 6-2.35 6.65-.9.9-1.14.13-1.15-.36l-.27-6.02-3.2 1-3.23-1.06-.27 6.03c0 .49-.25 1.25-1.15.36-.76-.65-2.3-2.9-2.36-6.65-.01-.9.08-1.76.24-2.54l-9.32-3.54A17 17 0 0 0 28 45Z" fill="#EE3A43"/><path d="m31.19 27.7-3.18 1-3.24-1.32-.27-5.57c-.07-1.37-.67-1.05-.97-.73-.54.6-1.43 1.92-2 3.75l-9.13-3.6a17 17 0 0 1 31.32.3l-9.2 3.6a10.43 10.43 0 0 0-2.09-4c-.3-.32-.9-.64-.96.73l-.28 5.84Z" fill="#02548E"/></svg>