<!-- by TradingView --><svg width="56" height="56" viewBox="0 0 56 56" xmlns="http://www.w3.org/2000/svg"><path fill="#F0F3FA" d="M0 0h56v56H0z"/><path d="M20 21v.7c-1.22.07-1.73.44-1.83 1.25-.09.6-.17 1.45-.17 3.1v2.01c0 3.6-1.55 6.94-5.58 6.94C8.64 35 7 32.53 7 28.93V23.9c0-1.95-.34-2.05-2-2.2V21h7v.7c-1.62.13-2 .25-2 2.2v4.62c0 3.27.58 5.48 3.09 5.48 2.82 0 3.91-2.5 3.91-6.02v-1.93c0-1.65-.08-2.5-.19-3.14-.13-.77-.63-1.12-2.13-1.2V21H20ZM37 21v.72c-1.58.13-2 .25-2 2.08v8.43c0 1.8.46 1.92 2 2.1V35h-7v-.68c1.64-.17 2-.3 2-2.1V28h-6v4.23c0 1.8.47 1.92 2 2.1V35h-7v-.68c1.5-.17 2-.3 2-2.1V23.8c0-1.83-.44-1.95-2-2.08V21h7v.72c-1.47.13-2 .25-2 2.08V27h6v-3.2c0-1.83-.47-1.95-2-2.08V21h7ZM51 25h-.68a4.9 4.9 0 0 0-.99-2.1c-.36-.41-.78-.55-2.17-.55H46v9.96c0 1.71.11 1.87 2 2.04V35h-7v-.65c1.79-.17 2-.33 2-2.04v-9.96h-.94c-1.73 0-2.13.22-2.4.59A5.4 5.4 0 0 0 38.7 25H38c.1-1.43.38-2.9.42-4h.47c.3.47.58.51 1.16.51h8.94c.56 0 .78-.12 1.14-.51h.47c0 .92.28 2.73.4 4Z" fill="#083857"/></svg>