<!-- by TradingView --><svg width="56" height="56" viewBox="0 0 56 56" xmlns="http://www.w3.org/2000/svg"><path fill="#F0F3FA" d="M0 0h56v56H0z"/><path d="M49 33H4v-.5h45v.5Z" fill="#E32725"/><path d="M9.72 31.43a23.48 23.48 0 0 1-1.22.35 10.47 10.47 0 0 1-1.9.22 3 3 0 0 1-1.6-.38 1.43 1.43 0 0 1-.67-1.17c-.05-.54.14-1.19.56-1.96.27-.5.62-1 1.04-1.47.43-.48.9-.87 1.4-1.15a6.95 6.95 0 0 1 2.18-.8 7.03 7.03 0 0 1 2.28.07c.31.09.65.2 1 .35l-.87 1.62c-.19-.18-.4-.34-.67-.46a2.66 2.66 0 0 0-1.1-.18c-.55 0-1.06.11-1.51.34a3.98 3.98 0 0 0-1.81 1.7c-.19.35-.28.67-.29.96 0 .29.1.52.3.7.21.17.53.26.96.26.24 0 .52-.03.84-.1l.43-.8H8.2L8.94 28h2.54l-1.76 3.43ZM15.43 32h-4.84l3.68-7h1.92l-2.8 5.32h2.92L15.43 32ZM22.51 28.5c.14-.26.23-.5.28-.7a.99.99 0 0 0-.03-.55.68.68 0 0 0-.32-.37 1.34 1.34 0 0 0-.64-.13c-.52 0-1 .16-1.47.48-.47.32-.85.75-1.13 1.27-.28.52-.36.94-.24 1.26.13.33.44.49.95.49.35 0 .7-.08 1.02-.22a3.71 3.71 0 0 0 1.58-1.53Zm1.96 0a7.01 7.01 0 0 1-3.27 3.03c-.7.31-1.45.47-2.23.47-.79 0-1.37-.16-1.73-.5a1.55 1.55 0 0 1-.52-1.29c.02-.53.2-1.1.53-1.71a7.08 7.08 0 0 1 3.23-3.01 5.44 5.44 0 0 1 2.26-.49c.59 0 1.06.1 1.42.28.36.19.6.44.73.76s.15.7.07 1.12c-.07.42-.24.87-.49 1.34ZM29.64 27.02c.17-.34.2-.57.05-.68-.15-.1-.43-.16-.86-.16h-.4l-.89 1.67h.42c.44 0 .78-.05 1.03-.16.26-.11.47-.34.65-.67Zm-1.22 2.9c.31-.59.08-.92-.71-.92h-.78l-.95 1.82h.79c.79 0 1.34-.3 1.65-.9Zm1.88.1c-.31.6-.75 1.08-1.32 1.44-.56.36-1.18.54-1.85.54h-3.68l3.67-7h3.08c.4 0 .72.04.97.13.25.08.43.2.54.34.1.15.14.32.13.52-.02.2-.09.42-.21.65a3.66 3.66 0 0 1-1.13 1.25c-.21.14-.4.23-.57.3.34.18.54.42.62.7.08.3 0 .67-.25 1.13ZM36.05 29.36l.4-2.55-2.28 2.55h1.88ZM37.59 32h-1.97l.23-1.42h-2.77L31.81 32h-1.97l6.5-7h2.12l-.87 7ZM43.46 32h-4.84l3.67-7h1.92l-2.8 5.32h2.93L43.46 32Z" fill="#1B4588"/><path d="M9.98 23.6c2.23-1.33 17.65-6.67 35.7-1.15 7.2 2.2 6.47 5.93 6.11 6.76-.92 2.1-2.5 2.79-2.5 2.79h-3.17s8.4-4.32-5.03-8.56c-6.23-1.97-17.01-4.13-31.11.16Z" fill="#E32725"/></svg>