<!-- by TradingView --><svg xmlns="http://www.w3.org/2000/svg" width="56" height="56" viewBox="0 0 56 56"><path fill="#F0F3FA" d="M0 0h56v56H0z"/><path d="M15 22.27C15 14.95 20.83 9 28 9s13 5.95 13 13.27v11.46C41 41.05 35.17 47 28 47s-13-5.95-13-13.27V22.27zm3.5 14.66c.3 0 .5-.26.5-.57v-.75c0-.32-.2-.56-.5-.56s-.5.24-.5.56v.75c0 .31.2.57.5.57zm-.01-3.4c.3 0 .51-.24.51-.55v-.75c0-.32-.2-.55-.51-.55-.3 0-.49.23-.49.55v.75c0 .31.18.56.49.56zm3 8.46c.32 0 .51-.25.51-.56v-.75c0-.32-.2-.57-.5-.57s-.5.25-.5.57v.75c0 .31.2.56.5.56zm.02-3.38c.3 0 .49-.25.49-.56v-.75c0-.32-.19-.57-.5-.57-.3 0-.5.25-.5.57v.75c0 .31.2.56.5.56zm3 5.07c.3 0 .49-.25.49-.56v-.75c0-.32-.2-.57-.5-.57s-.5.25-.5.57v.75c0 .31.2.56.5.56zm0-3.38c.3 0 .49-.25.49-.56v-.75c0-.32-.2-.57-.5-.57s-.5.25-.5.57v.75c0 .31.2.56.5.56zm3.48 1.7c.3 0 .51-.26.51-.57v-.75c0-.32-.2-.57-.51-.57-.3 0-.49.25-.49.57v.75c0 .31.18.56.49.56zm0-3.39c.31 0 .51-.25.51-.56v-.75c0-.32-.2-.57-.5-.57-.31 0-.5.25-.5.57v.75c0 .31.19.56.5.56zm3.52 5.07c.3 0 .49-.25.49-.56v-.75c0-.32-.18-.57-.49-.57-.3 0-.51.25-.51.57v.75c0 .31.2.56.51.56zm0-3.38c.3 0 .49-.25.49-.56v-.75c0-.32-.18-.57-.49-.57-.3 0-.51.25-.51.57v.75c0 .31.2.56.51.56zM34.5 42c.3 0 .5-.26.5-.57v-.75c0-.32-.2-.57-.5-.57s-.5.25-.5.57v.75c0 .31.2.56.5.56zm0-3.39c.32 0 .5-.25.5-.56v-.75c0-.32-.18-.57-.5-.57-.3 0-.5.25-.5.57v.75c0 .31.2.56.5.56zm3-1.69c.3 0 .5-.25.5-.56v-.75c0-.32-.2-.57-.5-.57-.31 0-.5.25-.5.57v.75c0 .31.19.56.5.56zm0-3.38c.3 0 .5-.25.5-.56v-.75c0-.32-.2-.57-.5-.57-.31 0-.5.25-.5.57v.75c0 .31.19.56.5.56zm-9.5.94c.12 0 .3 0 .43-.06 6.25-1.5 10.63-6.7 10.57-12.65 0-5.45-3.83-10.02-8.42-10.02-.8 0-1.66.2-2.46.44-.06.07-.18.07-.3 0a6.77 6.77 0 0 0-2.46-.44c-4.6 0-8.36 4.57-8.36 10.02 0 5.95 4.32 11.14 10.57 12.65.12.06.3.06.43.06zm.49-21.29a6.67 6.67 0 0 1 2.13-.37c3.97 0 7.38 4.07 7.38 8.95 0 5.45-4.02 10.2-9.82 11.65h-.36C22.02 31.98 18 27.16 18 21.77c0-4.82 3.35-8.95 7.38-8.95.73 0 1.4.12 2.13.37.3.13.67.13.98 0zm5.3 9.77a3.29 3.29 0 0 0 1.47-1.69c.58-1.44-.6-2.82-1.96-2.94a3.14 3.14 0 0 0-2.56.94c-.97.94-1.34 2.5-1.46 3.19-.03.23-.3 1.35-.61 2.73-.3 1.27-.65 2.76-.91 3.97-.55-2.5-1.4-6.26-1.53-6.7l-.08-.3a6.51 6.51 0 0 0-1.38-2.9c-.67-.68-1.59-1-2.56-.93-1.44.15-2.21 1.65-1.71 2.94.37.69.85 1.25 1.46 1.7.61.3 1.22.55 1.9.55.3 0 .54-.18.54-.5 0-.31-.18-.56-.49-.56a3.4 3.4 0 0 1-1.34-.44c-.42-.31-.79-.75-1.03-1.25-.13-.31-.13-.63.06-.94.18-.31.49-.5.79-.5.73-.06 1.34.19 1.77.63.73.75 1.04 2.12 1.16 2.69.03.25.4 1.84.81 3.6.3 1.25.6 2.59.83 3.6l.19.81c.12.31.36.56.73.56.36 0 .67-.25.73-.56.49-2.19 1.7-7.51 1.83-8.01.12-.57.43-1.94 1.16-2.7a2.22 2.22 0 0 1 1.77-.62c.69.14 1.12.75.85 1.44-.4.92-1.33 1.69-2.38 1.69-.24 0-.49.25-.49.56 0 .25.25.5.55.5.67 0 1.34-.18 1.9-.56z" fill="#002640"/></svg>