<!-- by TradingView --><svg xmlns="http://www.w3.org/2000/svg" width="56" height="56" viewBox="0 0 56 56"><path fill="#F0F3FA" d="M0 0h56v56H0z"/><path d="M41 22.71v1.76l8.1.2.9-2.17-9 .21ZM41 28.8l6.26.15.92-2.19-7.18.18v1.85ZM7.5 23.62l6.5.24v-.48l-6.5.24ZM5.54 27.9l8.46.27v-.56l-8.46.3ZM4 32.34l10 .32V32l-10 .34Z" fill="#D90127"/><path d="M14 27c.1-1.08.36-2.13.76-3.13H14V27ZM17.77 19.5c2-1.8 4.45-3 7.09-3.5H14v7.38h.97a12 12 0 0 1 2.8-3.88ZM14 28.96V32h.69c-.37-.97-.62-2-.69-3.04ZM18.1 36.64a11.82 11.82 0 0 1-3.15-3.96H14V40h12.53a15.35 15.35 0 0 1-8.42-3.36ZM28.26 21.6a7.2 7.2 0 0 0-4.67 1.54l9.15-.22a8.02 8.02 0 0 0-4.48-1.33ZM41 16H30.87c1.12.22 2.08.54 3.13.96v5.93l7-.18V16ZM41 24.47l-18.26-.43a6.2 6.2 0 0 0-1.33 3.4l19.59-.5v-2.47ZM34 33.11v5.84c-1.56.5-3.03.86-4.65 1.05H41v-6.72l-7-.17ZM41 28.84l-19.6-.5c.05 1.27.5 2.5 1.29 3.5l18.31-.5v-2.5ZM28.35 34.22a8.25 8.25 0 0 0 4.15-1.17l-8.68-.2a7.66 7.66 0 0 0 4.53 1.37Z"/><path d="m41 33.28 4.36.1.92-2.18-5.28.13v1.95Z" fill="#D90127"/></svg>