<!-- by TradingView --><svg xmlns="http://www.w3.org/2000/svg" width="56" height="56" viewBox="0 0 56 56"><path fill="#005596" d="M0 0h56v56H0z"/><path d="M14.03 19.56c-2.58 5.83-4.33 8.34-4.99 8.97-.05.05-.06.14 0 .18.83.55 2-.66 2.1-.8.12-.15.39-.27.92-1.16.42-.72 1.96-4.36 2.68-6.09.17-.4.38-.38.53-.27l.8.7c.47.42.33 1.04.2 1.3-.35.87-.5 1.94-.2 2.03.23.07 1.47-1.46 2.06-2.24a526.7 526.7 0 0 0 3.85-4.74c.33-.42.63-.91 1.02-1.29.77-.76 1.4.13 1.85.55a46.58 46.58 0 0 1 4.66 5.07c.12.14 1.56 1.9 3.13 3.93 1.25 1.63 1.62 1.85 1.65 1.76.14-1.28-.39-2.98-.62-3.7a6.98 6.98 0 0 1-.3-1.4c0-.38.65-.71.83-.92l.88-.93c.1-.1.1-.07.14.06 1.26 3.75 3.42 5.93 3.63 6.14.18.19 1.4 1.59 3.63 3.53 1.8 1.55 2.42 1.58 2.5 1.4.16-1.37-1.14-2.68-1.35-2.92a69.8 69.8 0 0 0-2.8-2.78 41.87 41.87 0 0 1-3.48-3.93c-.4-.53-.83-2.25-1-3.05a3.8 3.8 0 0 0-.3-.8c-.12-.24-.44-.28-.62-.09l-3.41 3.37c-1.56-2.3-5.26-6-7.81-8.17a1.13 1.13 0 0 0-1.66.22l-4.6 6.5c-.21.3-.4.46-.63.14-.1-.14-.2-.3-.28-.36l-1.74-1.42a.53.53 0 0 0-.81.2l-.46 1.01Z" fill="#fff"/><path d="M22.85 20.05c-.77.89-4.28 4.47-6.02 6.22.04.13.42.38 1.6.33a7.88 7.88 0 0 1 1.53 0c-.56 1.04-2.65 2.18-3.57 2.74-.3.18-.56.36-.78.51-.3.21-.15.63.22.63h2.86c.3.02.33.12.24.18l-4.48 2.8c-.86.62.33.58.73.55 1.8-.15 5.32-.63 5.91-.99.04-.02.02-.07-.02-.07l-3.62.03 3.5-2.5c.08-.05.1-.15.05-.23-.5-.76-1.7-.93-2.25-.9.07-.07.43-.33 1.1-.78.94-.66 1.58-1 2.16-2.15.24-.48-.13-1.01-.66-1.01h-1.63l3.13-3.37 3.18 3.57c-.12.04-.5.16-1.09.3-.59.15-.52.4-.41.51.31.37 1.1 1.26 1.77 1.88.66.62.9.93.94 1.01-.7.14-1.57.16-2.21.5-.27.14-.41.36-.15.67a9.27 9.27 0 0 0 2 1.49c.46.24.33.37.18.39-.68.07-2.13.09-2.77.09-.47-.03-.8.32-1.06.5.09-.45.33-1.01.24-1.22l-1.15-.03c-.65 0-.65.3-.68.48-.14.84-.19 1.71-.24 2.56-.02.43-.1 1.3-.14 1.67-.08.56.33.9.76 1.05.53.2 1.36.15 1.65-.4.2-.35.02-.66-.07-1a2.5 2.5 0 0 1-.07-.63c0-.55.1-1.4.14-1.76l2.66-.1c.5-.01 1-.04 1.5-.1 1.3-.14 1.93-.4 2.2-.67.32-.3.12-.69-.17-.92a6.1 6.1 0 0 0-1.17-.68c-.44-.2-.9-.35-1.3-.6-.21-.14-.26-.24 0-.35.25-.11.61-.06 1.15-.1.7-.06.7-.48.41-1.16-.3-.7-.94-1.2-1.47-1.59-.43-.3-.24-.52-.1-.6.6-.27 1-.5 1.23-.67.16-.1.14-.3-.01-.42-1.67-1.22-4.8-4.67-4.99-4.93-.13-.18-.4-.5-.58-.72a.12.12 0 0 0-.18 0Z" fill="#fff"/><path d="M34.02 30.36c.18-.06.36-.1.54-.14.6-.12.78.27.25.56-.55.3-1.21.6-1.5.86-.56.57 1.3 1.2 1.71 1.4.42.21 2.63 1.13 3.4 1.82.76.69-.3 1.22-2.48 1.73-1.75.4-8.02 1.06-10.94 1.34-.4.02-.67 0-.82-.04-.34-.08-.2-.22.02-.27 1.18-.23 5.32-.99 7.37-1.36.33-.09 3.16-.45 3.45-.77.24-.27-.2-.7-.47-.87-.92-.56-1.95-.93-2.86-1.49-.96-.6-.64-1.22.12-1.76.7-.5 1.56-.81 2.21-1.01Z" fill="#fff"/><path d="M36.32 31.1c1-.6 2.2-.8 2.95-.85.11 0 .15.12.04.17-.29.13-.63.23-.9.32-.28.1-1.17.37-.73.81.26.26 1.52.95 2.12 1.25 1.5.84 2.86 1.47 4.27 2.55.25.2.44.43.5.76.06.36-.06.73-.27 1.06a4.04 4.04 0 0 1-2.08 1.44c-2.57.94-5.36 1.36-8.05 1.75-1.7.25-3.4.53-5.1.62-.24.02-.44.02-.62.02-.33 0-.9-.21-.3-.43.36-.13.92-.2 1.04-.22l2.92-.54c1.6-.24 4.87-1.01 6.3-1.37 1.67-.41 2.84-.84 3.54-1.2.96-.5.8-1.02-.03-1.69-.66-.54-1.45-.91-2.2-1.28-.95-.47-1.92-.85-2.87-1.29-.74-.34-1.06-.67-1.17-.95-.19-.48.3-.73.64-.93Z" fill="#fff"/></svg>