<!-- by TradingView --><svg width="56" height="56" viewBox="0 0 56 56" xmlns="http://www.w3.org/2000/svg"><path fill="#F0F3FA" d="M0 0h56v56H0z"/><path d="m16 16-8 8h16v-8h-8Z" fill="#10A89E"/><path d="M16 31.98V24H8l8 7.98Z" fill="#09486C"/><path d="M40 32h8l-8-8v8Z" fill="#F7941D"/><path d="M24 48v-8h8l-8 8Z" fill="#09486C"/><path d="M40 32h-8v8h8l8-8h-8ZM40 16l-8-8v16h8v-8Z" fill="#10A89E"/><path d="M24 16h8V8l-8 8Z" fill="#09486C"/><path d="M16 32v8.01h.06H16L24 48V32h-8Z" fill="#10A89E"/></svg>