<!-- by TradingView --><svg width="56" height="56" viewBox="0 0 56 56" xmlns="http://www.w3.org/2000/svg"><path fill="#F0F3FA" d="M0 0h56v56H0z"/><path d="m18.3 39.88 2.26-3.75a.07.07 0 0 0-.02-.1L20.5 36h-3c-.01 0-.03.02-.04.01a.07.07 0 0 1-.03-.1l2.83-4.82a.18.18 0 0 1 .16-.09h3.04a.22.22 0 0 0 .19-.1c2.05-3.58 4.96-8.71 9.38-16.22.8-1.36 2-1.9 3.59-1.6 1.21.22 1.81.97 2.47 2.09 3.3 5.67 6.08 10.06 8.32 13.89 1.46 2.5.06 5.67-2.55 6.65-.56.21-1.51.32-2.85.29H29.82l-.03-.02a.06.06 0 0 1-.02-.07c1.02-2.8 3.35-4.91 6.5-4.91h6.39a.08.08 0 0 0 .08-.08l-.01-.04-6.77-11.2a.06.06 0 0 0-.05-.02.06.06 0 0 0-.05.03l-11.82 20.2a.2.2 0 0 1-.18.11h-5.5l-.04-.01a.08.08 0 0 1-.04-.07l.01-.04Z" fill="#E71D2D"/><path d="M10.2 36H7.07a.07.07 0 0 1-.06-.1l2.8-4.87a.07.07 0 0 1 .06-.03H13a.07.07 0 0 1 .07.07l-.01.03-2.8 4.87a.07.07 0 0 1-.06.03Z" fill="#FDB813"/><path d="M14.95 31h3.11a.08.08 0 0 1 .07.11l-2.8 4.85a.07.07 0 0 1-.06.04h-3.11a.08.08 0 0 1-.07-.11l2.8-4.85a.07.07 0 0 1 .06-.04Z" fill="#F47721"/></svg>