<!-- by TradingView --><svg width="56" height="56" viewBox="0 0 56 56" xmlns="http://www.w3.org/2000/svg"><path fill="#F0F3FA" d="M0 0h56v56H0z"/><path d="M44.51 34.27c-.35.09-.74.17-1.07.1-2.07-.41-3.13-.86-5.16-1.37-.26-.06-.46-.58-.52-.93-.04-.12.36-.35.58-.5.1-.09.29-.09.39-.17 1.1-1.03 2.32-1.97 2.99-3.39.16-.35.33-.7.58-.98.83-.97.84-.99-.01-2.02.25-.07.45-.15.67-.2 1.1-.24 1.22-.4 1.1-1.54-.03-.33-.03-.7-.2-.97-.15-.25-.53-.58-.75-.53-1.3.26-2.1-.95-3.27-.97-.07 0-.14-.17-.2-.25-.68-.87-1.57-.9-2.34-.17-.47.45-1 .87-1.6 1.14-1.18.55-2.41 1-3.64 1.45-.2.07-.63-.07-.73-.25-.44-.79-.8-1.62-1.18-2.42 1.2-.69 1.61-.57 2.38.57l-.08-1.07 1.36-.55-.08-.24c-.32-.1-.62-.2-1.1-.33l1.4-.5c-.37-.29-.59-.59-.86-.64-1.24-.21-2.48-.35-3.72-.53-.17-.02-.32-.18-.46-.3-.18-.17-.32-.39-.5-.55-.92-.84-2.57-1-3.51-.35-.86.58-1.02 1.55-.5 2.95l.55 1.54a6.73 6.73 0 0 0-.29-1.92c-.47-1.57.53-2.69 2.05-2.22-1.94.93-2.08 1.8-.62 4.76-.2-.92-.38-1.69-.52-2.48-.12-.71.2-1.25.9-1.51.68-.25 1.3-.19 1.82.4-.65.93-.6 1.82-.23 2.85.23.67.16 1.59-.1 2.24-.4.93-.84 1-1.57.6a35.5 35.5 0 0 0-2.75-1.4c-2.97-1.42-5.87-1.46-8.63.51-.89.66-1.78.5-2.62.05-.87-.46-1.04-1.33-.94-2.23.15-1.24.93-2 2.07-2.39 1.27-.42 2.53-.17 3.78.25.87.3 1.74.62 2.63.8a2.3 2.3 0 0 0 2.57-1.42c.6-1.47-.35-4.15-1.85-4.5-.79-.17-1.56-.44-2.43-.69.02.28 0 .47.03.63.05.2.14.39.22.59l.1-.22 2.07.94-.1.36h-2l-.02.34c.6.08 1.2.2 1.81.27.5.05 1.13 0 1.23.61a2.7 2.7 0 0 1-.25 1.54c-.29.55-.88.62-1.48.4-.47-.18-.94-.38-1.43-.5-1.44-.32-2.87-.77-4.33-.82-1.91-.1-3.8 1.62-4.1 3.4-.26 1.7.4 3.78 2.67 4.43.07.02.12.1.24.2a5.9 5.9 0 0 0 0 5.66c.12.25.17.65.03.89-.74 1.35-1.14 2.89-2.33 3.97-.34.3-.54.6-.25 1.09.47.81.9 1.65 1.3 2.5.54 1.14 1.07 1.4 2.32 1.04.6-.17 1.18-.47 1.82-.57.45-.07.87-.97.58-1.12-.57-.28-1.04-.95-1.88-.5-.52.28-1.1.25-1.5-.27-.34-.43-.33-1.62.03-1.97 1.54-1.59 3.1-3.17 4.7-4.8 1.04.81 1.34 1.76 1.07 2.95-.32 1.4-.1 1.63 1.36 1.73.64.05 1.33.1 1.85.4.96.54 1.83 1.27 2.77 1.94.33-.13.84-.22 1.24-.48.32-.22.72-.62.72-.95 0-.34-.37-.86-.69-.99-.63-.27-1.36-.28-2.03-.47-.85-.23-1.7-.5-2.53-.82-.5-.2-.69-.63-.52-1.16.32-.99.67-1.96 1.04-3 .13.14.27.24.33.37a9.4 9.4 0 0 0 6.25 4.55c.2.05.3.43.47.65.2.25.39.58.64.68.8.3 1.7.39 2.45.77 1.8.92 3.66 1.49 5.69 1.49.23 0 .54.03.69.18 1.06 1.02 1.4 1.39 2.74 1.8.24.07.44.19.67.27.44-.73 1.14-.35 1.68-.48l1.16-.52-.76-1.89c.12-.02.22-.02.34-.02.6.02 1.3.36 1.71-.41.12-.22.32-.55.47-.55.62 0 .37-.39.29-.62-.47-1.34-.93-1.55-2.37-1.24Zm-5.62 2.09c1.19-.55 1.93-.42 2.28.48-.76-.16-1.51-.33-2.28-.48Z"/></svg>