<!-- by TradingView --><svg xmlns="http://www.w3.org/2000/svg" width="56" height="56" viewBox="0 0 56 56"><path fill="#F0F3FA" d="M0 0h56v56H0z"/><path d="M8 16h40v24H29v-2a60.04 60.04 0 0 0 15.61-2.45A1.95 1.95 0 0 0 46 33.67V22.4c0-.87-.56-1.64-1.42-1.9A62.7 62.7 0 0 0 29 18.01V16h-2v2.01a63.41 63.41 0 0 0-15.58 2.48A1.97 1.97 0 0 0 10 22.4v11.28c0 .85.54 1.62 1.4 1.88A60.7 60.7 0 0 0 27 37.99V40H8V16zm4 16v-8h2v3h4v-3h2v8h-2v-3h-4v3h-2zm16-8v2h-5v1h5v2h-5v1h5v2h-5.89c-.61 0-1.11-.45-1.11-1.01V25c0-.56.5-1.01 1.11-1.01H28zm8 2v-2h-5.97c-.57 0-1.03.45-1.03 1v2.98c0 .55.46 1.02 1.03 1.02H34v1h-5v2h5.97c.57 0 1.03-.45 1.03-1v-3c0-.55-.46-1-1.03-1h-3.95v-1H36zm8-2v2h-4.98v1h3.95c.57 0 1.03.45 1.03 1v3c0 .55-.46 1-1.03 1H37v-2h5v-1h-3.97c-.57 0-1.03-.47-1.03-1.02V25c0-.56.46-1.01 1.03-1.01H44z" fill="#0B6F43"/></svg>