<!-- by TradingView --><svg xmlns="http://www.w3.org/2000/svg" width="56" height="56" viewBox="0 0 56 56"><path fill="#199BD5" d="M0 0h56v56H0z"/><path d="M43.48 20.11c-2.41-1.84-7.1-3.72-16.28-4.1a.4.4 0 0 0-.14 0L20.28 18h-.01a.33.33 0 0 0-.06.04l-.02.01-.04.02-.03.03v.01l-.02.02a.3.3 0 0 0-.05.07v.02l-.02.02-.01.04-.01.05-.01.07v2.82c-5.93 1.87-9.49 4.75-9.98 8.4v.02a1.9 1.9 0 0 0-.02.2v6.76c.03.23.6 3.6 4.88 5.37l.03.01.01.02h.12l.13-.02a.2.2 0 0 0 .03-.01l10.54-4.04a.41.41 0 0 0 .26-.39v-6.3a.42.42 0 0 0-.17-.35l-.01-.01a.45.45 0 0 0-.35-.06 15.47 15.47 0 0 1-3.35-.49c.48-.36 1.32-1 2.77-1.62 2.09-.89 5.74-1.93 11.21-1.82a.4.4 0 0 0 .09-.01c1.2 1.53 1.57 3.13 1.73 3.83l.08.3v1.9l7.72-2.92a.42.42 0 0 0 .28-.39v-5.63c0-.2-.1-2-2.52-3.86zM25.56 31.25l.05-.02v-.02c-.01 0 0 0 0 0v.02l-.05.02zm-3.64-13.08v.02h-.05l.05-.02zM38 28.43c-.1-.18-.2-.36-.32-.54v-.02c-.27-.6-.53-1.18-1.14-1.9v-2.8c.8.85 1.03 1.43 1.34 2.24l.12.33v2.69zm.64-2.24h-.01.01zm0 6.01h-.01.01zM23.16 18.05l3.84-1.2v1.58c-1.4-.2-2.77-.32-3.84-.38zm13.19 3.73a16.06 16.06 0 0 0-4.49-2.2c3.84.76 7.9 2.17 10.68 4.75l.03.03-3.56 1.22a.38.38 0 0 0-.02-.1 7.66 7.66 0 0 0-2.63-3.7h-.01zM28 18.43v-1.57c9.1.42 12.9 2.37 14.93 3.92a5.69 5.69 0 0 1 2.1 2.71l-1.8.64a9.09 9.09 0 0 0-.25-.23c-4.06-3.78-10.11-5.01-14.98-5.47zm-6.8 2.61h.02-.02zm.54-.22h.03v-.01h-.03zm-.74-2c.67 0 2.08.02 4 .22l-4 1.62v-1.85zm7.07.67c-1.21.16-2.68.4-4.37.76l2.48-1.06c.61.08 1.25.18 1.9.3zm-4.54 1.45l-.05.01h.05v-.01zm6.48 1.27a27.37 27.37 0 0 0-5.26-1.3c3-.6 5.36-.8 5.84-.83v2.06a35 35 0 0 0-.58.07zm-7.11-.9c1.4.12 3.48.4 5.8 1.11l-.25.05c-1.66.3-3.11.66-4.36 1.1-7.9 1.9-11.41 5.5-12.91 7.86a3.6 3.6 0 0 1-.31-1.1v-.08l-.01-.08v-.31-.11c.32-2.34 1.96-4.13 4.22-5.5s5.18-2.31 7.82-2.94zM11.53 32.04c1.1-1.86 3.65-4.82 9.33-6.87a5.13 5.13 0 0 0-1.84 2.3c-.03.07-.27.69-.02 1.44v4.17l-3.95 1.4c-1.91-.7-2.95-1.62-3.52-2.44zm11.94-.56l-3.48 1.25a8.3 8.3 0 0 1 1.3-1.79c.61.24 1.34.42 2.18.54zm-3.83-1.55c.28.28.63.53 1.05.75-.45.5-.8.98-1.05 1.4v-2.15zm11.57-7.87v-1.8c1.37.42 2.56.92 3.56 1.5-.88.04-2.14.13-3.56.3zm4.48.5v2.82a17.16 17.16 0 0 0-4.07-2.52c1.84-.2 3.36-.28 4.07-.3zm-5.3.45c1.8.7 3.58 1.68 5.1 3.03-9.65-.05-13.62 3.34-14.27 3.95-.65-.3-1-.64-1.2-.93-.43-.65-.21-1.26-.2-1.28.56-1.41 2.05-2.46 4.07-3.24 2-.76 4.38-1.23 6.5-1.53zM45 24.36v2.06c-.3-.54-.56-.96-1.14-1.62l1.14-.44zm-6 7.3v-5.19l4.23-1.44c1.2 1.32 1.57 2.51 1.75 3.1l.02.06v1.12l-6 2.34zm-23.5 3.56l3.5-1.24v.94h.02c0 .05 0 .09.02.11.51 1.26 1.67 2.15 3.44 2.61.33.09.65.15.94.2l-7.92 3.12v-5.74zm4.5-.35v-1.26l5-1.74v5.35l-.08.13a11.6 11.6 0 0 1-2.86-.48 3.2 3.2 0 0 1-2.06-2zm-8.97-1.67c0-.1 0-.22.07-.34a7.63 7.63 0 0 0 3.4 2.35v5.71a6.86 6.86 0 0 1-2.94-2.68 3.67 3.67 0 0 1-.55-1.6l-.01-.08V33.4c.02-.06.03-.13.03-.2z" fill="#fff"/></svg>