<!-- by TradingView --><svg width="56" height="56" viewBox="0 0 56 56" xmlns="http://www.w3.org/2000/svg"><path fill="#FEFD00" d="M0 0h56v56H0z"/><path d="M28.23 28.68c0 .78-.32 1.96-1.2 1.96-.82 0-.82-.66-.82-1.02v-1.84c0-.24 0-1.03.79-1.03.87 0 1.23 1.1 1.23 1.93Zm-4.5-1.95c.4.11.53.32.51 1.2l.01 3.7v1.26c0 .33-.05.57-.49.64a.22.22 0 0 0-.18.22v.03a.21.21 0 0 0 .07.15.23.23 0 0 0 .16.06l1.12-.02a84.8 84.8 0 0 1 1.85.01.23.23 0 0 0 .13-.11.21.21 0 0 0-.03-.22.23.23 0 0 0-.14-.09c-.49-.08-.51-.42-.51-.86v-1.44c0-.04 0-.07.03-.1a.23.23 0 0 1 .3-.08c.23.1.56.22 1.02.22 1.48 0 2.75-1.2 2.75-2.93 0-1.26-.89-2.45-2.32-2.45-.59 0-1.05.15-1.51.44a.23.23 0 0 1-.3-.06.22.22 0 0 1-.05-.1 4.76 4.76 0 0 0-.07-.28.22.22 0 0 0-.16-.09h-.09c-.41.12-1.26.33-2.06.41a.21.21 0 0 0-.15.07.21.21 0 0 0-.06.15v.06c0 .05.02.1.05.13a.2.2 0 0 0 .12.08Zm10.76 4.47a27.46 27.46 0 0 1 2.17.02.28.28 0 0 0 .16-.15.25.25 0 0 0 .02-.1.26.26 0 0 0-.07-.18.27.27 0 0 0-.16-.08c-.25-.03-.4-.1-.5-.21-.15-.18-.16-.25-.19-1.46v-3.71c0-1.52 0-1.72.7-1.81.07 0 .13-.04.18-.1a.25.25 0 0 0-.03-.36.28.28 0 0 0-.2-.06 40.25 40.25 0 0 1-3.47 0 .27.27 0 0 0-.21.44c.04.05.1.08.16.1.36.05.5.1.6.3.08.16.09.42.1 1.3v3.8c0 1.45-.03 1.68-.7 1.77a.27.27 0 0 0-.16.1.25.25 0 0 0 .04.36c.05.04.12.07.19.06.4-.02.68-.03 1.37-.03Zm2.64-.45a.23.23 0 0 0-.2.23V31a.22.22 0 0 0 .07.17.24.24 0 0 0 .19.06 31.08 31.08 0 0 1 2.78 0 .24.24 0 0 0 .14-.13.23.23 0 0 0 .02-.1v-.03c0-.1-.07-.2-.17-.22-.3-.07-.39-.22-.39-.74l-.01-2.72a.23.23 0 0 1 .1-.2c.23-.17.48-.28.8-.28.78 0 .8.63.81 1.18l.03 1.79c0 .7-.04.85-.38.95a.23.23 0 0 0-.18.22V31a.22.22 0 0 0 .08.17.24.24 0 0 0 .18.06 27.54 27.54 0 0 1 2.75-.01.24.24 0 0 0 .14-.13.23.23 0 0 0 .02-.09.3.3 0 0 0-.05-.15.24.24 0 0 0-.14-.08c-.4-.07-.48-.24-.48-.53l.02-.67v-1.6c-.04-.63-.14-1.22-.72-1.6a2.25 2.25 0 0 0-1.27-.37c-.62 0-1.05.18-1.5.43a.25.25 0 0 1-.3-.04.23.23 0 0 1-.05-.1l-.03-.08a.23.23 0 0 0-.12-.14.25.25 0 0 0-.19 0c-.47.15-1.36.4-1.95.5a.23.23 0 0 0-.2.22v.03c0 .05.01.1.04.14.03.04.08.07.13.08.28.08.48.24.48.81v.73l.01.73c0 .17 0 .86-.03 1.12-.04.22-.25.3-.43.32Zm12.19-.32a.28.28 0 0 0-.04-.44.3.3 0 0 0-.38.02c-.32.27-.69.47-1.13.47-.83 0-1.59-.87-1.59-2.17 0-.56.2-1.7.88-1.7.37 0 .6.4.71.61l.03.06c.2.44.23.5.33.58a.75.75 0 0 0 1.27-.52c0-.82-1.1-1.3-2.27-1.3-1.77 0-3.22 1.05-3.22 2.68 0 1.56 1.25 2.7 2.95 2.7.92-.01 1.8-.37 2.46-1ZM52 30.4c0-.6-.5-1.05-1.08-1.05-.49 0-1.06.36-1.06 1.07a1 1 0 0 0 .32.72c.2.19.47.29.75.29.57 0 1.07-.45 1.07-1.03ZM4 28.94a25.81 25.81 0 0 1 .16 2.33.27.27 0 0 0 .17.15h.13a.29.29 0 0 0 .22-.12l.1-.17a.27.27 0 0 1 .18-.12.29.29 0 0 1 .2.03 3.7 3.7 0 0 0 1.99.53c1.95 0 3.19-1.25 3.19-2.74 0-1.51-1.18-2-2.03-2.33l-.55-.2c-.35-.12-.7-.25-1.03-.4-.25-.12-.82-.38-.82-1 0-.54.5-1.2 1.34-1.2.66 0 1.18.35 1.57.87a3.38 3.38 0 0 1 .43.9.27.27 0 0 0 .2.12.3.3 0 0 0 .22-.05.27.27 0 0 0 .1-.2c0-.04 0-.08-.02-.11-.1-.65-.17-1.3-.22-1.95a.27.27 0 0 0-.1-.18.29.29 0 0 0-.42.05l-.1.15a.28.28 0 0 1-.34.1 3.84 3.84 0 0 0-1.54-.31c-1.65 0-2.95.92-2.95 2.47 0 1.4 1.1 1.9 1.58 2.12h.01c.22.1.44.18.66.26l.39.15c1.16.43 1.76.71 1.76 1.42 0 .77-.66 1.38-1.55 1.38-1.22 0-1.8-.87-1.97-1.12-.18-.29-.32-.6-.4-.92a.27.27 0 0 0-.12-.16.29.29 0 0 0-.2-.04.28.28 0 0 0-.18.1.26.26 0 0 0-.06.2Zm6.8 1.81a.23.23 0 0 0-.2.23V31a.22.22 0 0 0 .08.17.24.24 0 0 0 .18.06 31.09 31.09 0 0 1 2.78 0 .24.24 0 0 0 .15-.13.23.23 0 0 0 .02-.1v-.03c0-.1-.07-.2-.18-.22-.29-.07-.38-.22-.38-.74 0-.51 0-2.14-.02-2.72a.23.23 0 0 1 .1-.2c.24-.17.49-.28.8-.28.78 0 .8.63.82 1.18l.02 1.79c.01.7-.03.85-.38.95a.23.23 0 0 0-.18.22V31a.23.23 0 0 0 .08.17.24.24 0 0 0 .19.06 27.56 27.56 0 0 1 2.75-.01.24.24 0 0 0 .13-.13.22.22 0 0 0 .02-.09c0-.05-.01-.1-.05-.15a.24.24 0 0 0-.14-.08c-.39-.07-.47-.24-.47-.53l.01-.67.01-.6v-1c-.05-.63-.14-1.22-.72-1.6a2.25 2.25 0 0 0-1.27-.37c-.63 0-1.05.18-1.5.43a.25.25 0 0 1-.3-.04.23.23 0 0 1-.06-.1l-.03-.08a.23.23 0 0 0-.12-.14.25.25 0 0 0-.18 0 16 16 0 0 1-1.96.5.24.24 0 0 0-.2.22v.03a.24.24 0 0 0 .17.22c.28.08.48.24.48.81l.01.73v.73c0 .17 0 .86-.03 1.12-.03.22-.25.3-.43.32Zm10.12-1.78.03.1v1c0 .05-.01.08-.03.12a.23.23 0 0 1-.08.08.86.86 0 0 1-.51.16c-.45 0-.62-.34-.62-.65 0-.6.53-.83.93-.93a.25.25 0 0 1 .21.04l.07.08Zm2.83 1.5a.24.24 0 0 0-.36-.08.37.37 0 0 1-.21.1c-.31 0-.3-.45-.29-.64l.03-2.56c0-.95-.75-1.27-1.77-1.27-1.48 0-3.1.69-3.1 1.54 0 .42.34.65.71.65.3 0 .63-.15.72-.54l.04-.23c0-.08.02-.15.04-.23.07-.25.28-.48.67-.48.06 0 .54 0 .68.4.05.14.05.56.05.92a.2.2 0 0 1-.06.14.24.24 0 0 1-.14.08c-.94.17-3.03.71-3.03 2.02 0 .43.26 1.14 1.35 1.14.75 0 1.43-.37 1.75-.57a.24.24 0 0 1 .32.05c.07.08.14.16.22.22.26.18.57.28.9.29.3 0 .87-.12 1.44-.68a.23.23 0 0 0 .07-.17.23.23 0 0 0-.03-.1Z" fill="#221F20"/></svg>