<!-- by TradingView --><svg width="56" height="56" viewBox="0 0 56 56" xmlns="http://www.w3.org/2000/svg"><path fill="#003057" d="M0 0h56v56H0z"/><path fill-rule="evenodd" d="M41 13H21.86A27 27 0 0 0 14 25.7v2.15c1.1-5.63 4-10.61 8.06-14.35h1.07a1 1 0 0 0 1.74 0h1.3a36.89 36.89 0 0 0-11.09 29H14v.5h27V13Zm-.7 24.87.2.12v4.38l-22.31-5.95c.08-.83.2-1.66.35-2.48l21.75 3.93Zm.16-.47.04.01v-1.96l-3.52-2.5-2.75-.26c-.16.2-.33.45-.5.72l6.73 4Zm-8.66-5.53h-.01L23 31.5V31h10.5l1.5 1-3.2-.13Zm-.33.56L27 32c0 .17-.1.5-.5.5s-.5-.33-.5-.5h-2c-.17.33-.6 1-1 1s-1-.5-1-1v-4c0-.5.5-1 1-1 .4 0 .83.67 1 1h2c0-.17.1-.5.5-.5s.5.33.5.5h3l-7.33-5.21a33.78 33.78 0 0 0-4.04 10.66l11.7 2.12c.32-1.36.78-2.46 1.14-3.14Zm-.64 3.23 1.43.26a7.86 7.86 0 0 1 1.39-3.29L32 32.48c-.34.6-.85 1.74-1.18 3.18Zm1.94.35 3.66.66-3.39-1.81c-.14.4-.23.75-.27 1.15Zm5.25.95-4.8-2.57c.08-.2.17-.37.26-.54l5.6 3.3-1.06-.19Zm-4.96 5.54h6.06l-6.36-1.69a7.89 7.89 0 0 0 .3 1.69Zm-.8-1.82-2-.53c0 .32.02.79.09 1.27.05.38.12.76.22 1.08h1.97a6.46 6.46 0 0 1-.29-1.82Zm-2.21 1.82a12.09 12.09 0 0 1-.3-2.49l-11.61-3.08a34.44 34.44 0 0 0-.05 5.57h11.96Zm10.45-12v4.36l-17.57-12.5a34 34 0 0 1 1.12-1.73L40.5 30.5ZM24.45 20.07a34.2 34.2 0 0 1 6.25-6.57h5.53l4.27 6.65V28h-3l-13.05-7.93ZM40.5 18.7l-3.2-5.19h3.2v5.19Z" fill="#fff"/><path d="M22 17a1 1 0 1 1-2 0 1 1 0 0 1 2 0ZM14.38 37.08A1 1 0 0 0 14 37v2a1 1 0 0 0 .38-1.92ZM14 40a1 1 0 0 1 0 2v-2Z" fill="#fff"/></svg>