<!-- by TradingView --><svg width="56" height="56" viewBox="0 0 56 56" xmlns="http://www.w3.org/2000/svg"><path fill="#F0F3FA" d="M0 0h56v56H0z"/><path d="M40.95 37.6c.12-.17.07-.65-.65-.6H25.5c-1.11 0-1.2-.44-1.34-.57l-3.98-6.66c-.14-.23-.2-.46-.21-.66-.03-.63.46-1.1 1.22-1.11h5.64c.58.03.88-.22.98-.36l3.08-5.89c.48-.87-.55-.74-.6-.74H23.7c-.06 0-.99-.07-1.29.47l-7.1 12.48c-.07.15-.55.62-.18 1.37l4.48 7.89c.32.47.78.76 1.7.78h15.32c.24-.03.92-.04 1.33-.67l2.98-5.73Z" fill="#214194"/><path d="M30.58 12.01a.35.35 0 0 0-.37.36c0 .13.05.3.18.5l7.32 12.37c.26.43.33.73.33.94 0 .25-.12.38-.14.49l-4.09 7.67c-.26.44-.63.66-1 .66-.39 0-.78-.23-1.04-.66l-2.86-4.68c-.27-.5-.64-.64-.8-.66h-6.55c-.44 0-.56.17-.56.35 0 .23.2.5.22.53l3.33 5.24c.03.05.44.88 1.06.87l14.4.01c.49 0 .99 0 1.27-.52l4.55-7.68c.24-.51.26-1.05-.19-1.84L37.89 12.8c-.15-.19-.5-.77-1.26-.81h-6.05v.01Z" fill="#214194"/><path d="M13.17 33.81c.08.2.51.4.84-.28l7.32-12.62c.55-1 .97-.86 1.17-.91h8.28c.8 0 1.25.5 1.22 1.13-.01.22-.08.45-.2.69l-2.56 4.7c-.17.29-.23.53-.24.72 0 .15.02.27.06.35l3.32 6.05c.15.27.3.36.43.36.29 0 .5-.49.52-.53l3.33-6.43c.03-.06.56-.85.24-1.4l-7.31-12.78c-.1-.13-.26-.81-1.09-.86h-8.96c-.58.05-1.06.31-1.54 1.13l-7.76 13.78c-.1.23-.43.84-.09 1.54l3.02 5.36Z" fill="#214194"/></svg>