<!-- by TradingView --><svg xmlns="http://www.w3.org/2000/svg" width="56" height="56" viewBox="0 0 56 56"><path fill="#F0F3FA" d="M0 0h56v56H0z"/><path d="M8.97 33.85V32h.29v4h-.29v-1.9H6.3V36H6v-4h.29v1.85h2.68zm6.9.13c0 1.18-.54 1.76-1.62 1.76-1.11 0-1.66-.58-1.66-1.76 0-1.15.55-1.74 1.66-1.74 1.08 0 1.63.57 1.63 1.74zM14.26 32c-1.32 0-1.98.67-1.98 2s.66 2 1.98 2c1.29 0 1.94-.66 1.94-2 0-1.33-.65-2-1.94-2zm5.1 0v4h2.56v-.26h-2.28V32h-.28zm8.63 1.88c0 1.25-.53 1.86-1.56 1.86h-1.28v-3.5h1.28c1.03 0 1.56.55 1.56 1.64zM24.85 32v4h1.6c1.23 0 1.84-.7 1.84-2.1 0-1.27-.61-1.9-1.84-1.9h-1.6zm6.86 0h-.29v4h.29v-4zm6.03 3.47V32H38v4h-.24L35 32.33V36h-.26v-4h.37l2.63 3.47zm6.26.35c-.34.12-.68.18-1.06.18-1.4 0-2.1-.68-2.1-2.05 0-1.3.68-1.95 2.06-1.95.38 0 .75.05 1.1.17v.24a3.6 3.6 0 0 0-1.05-.17c-1.21 0-1.82.57-1.82 1.7 0 1.2.6 1.82 1.77 1.82.25 0 .51-.04.81-.12v-1.45H44v1.63zm3-.27v.28c.41.1 1.01.17 1.5.17 1 0 1.5-.4 1.5-1.21 0-.62-.36-.94-1.1-.94h-.85c-.54 0-.81-.23-.81-.69 0-.6.43-.9 1.3-.9.44 0 1.04.04 1.46.15v-.24a5.82 5.82 0 0 0-1.45-.17c-1.06 0-1.58.38-1.58 1.15 0 .63.36.96 1.09.96h.86c.55 0 .8.23.8.67 0 .65-.4.97-1.2.97-.5 0-1.11-.07-1.52-.2zM6 29h8v-2.3l-2-.59V27H8v-2.36l-2-.58V29z" fill="#003A5D"/><path d="M6 20v2.28l2 .6V22h4v1.62l2 .6V20H6z" fill="#00A0DF"/><path d="M38.89 24.26H37V22h1.88c.78 0 1.12.3 1.12 1.05v.08c0 .87-.35 1.13-1.11 1.13zm1.8 4.74H43l-2.08-3.19c.65-.32 1.08-1.33 1.08-2.3v-.94A2.44 2.44 0 0 0 39.55 20H35v9h2v-3h1.8l1.88 3zm-19.52-4h-2.25l1.14-3.43 1.1 3.43zm.6 2l.7 2h2.07l-2.92-9h-3.16l-2.92 9h2.08l.69-2h3.46zM31 23.15v2.7c0 .72-.31 1.15-1.14 1.15H28v-5h1.85c.84 0 1.15.4 1.15 1.15zM30.37 20H26v9h4.37c1.62 0 2.6-1.14 2.63-2.88v-3.2c0-1.9-1-2.92-2.63-2.92zM44 27.09V20h4.78L50 22h-4v1.5h4v2h-4V27h4v2h-4.73L44 27.09z" fill="#003A5D"/></svg>