<!-- by TradingView --><svg xmlns="http://www.w3.org/2000/svg" width="56" height="56" viewBox="0 0 56 56"><path fill="url(#aouzmcjfz)" d="M0 0h56v56H0z"/><path d="M23 27.03c0-3.34 2.35-5.03 5.46-5.03.87 0 1.72.15 2.54.42v2.26h-.4l-.17-.77c-.14-.67-.84-1.26-2.08-1.26-2.24 0-2.85 2.4-2.85 4.18 0 2.12.91 4.45 3.22 4.45 1.09 0 1.81-.44 2.13-1.13l.33-.72.37.08-.43 2.06c-.88.3-1.8.44-2.73.43-3.1 0-5.39-1.64-5.39-4.97ZM32.5 27.03a5.04 5.04 0 0 1 1.44-3.61A4.8 4.8 0 0 1 37.49 22c2.79 0 5.01 1.5 5.01 5.03 0 2.92-2.2 4.97-5 4.97-3.03 0-5-1.66-5-4.97ZM40 27c0-3.25-1.21-4.39-2.5-4.39-1.22 0-2.5 1.09-2.5 4.4 0 3.24 1.21 4.38 2.5 4.38 1.22 0 2.5-1.08 2.5-4.39ZM23 42.7l.4-.12c.55-.16.6-.3.6-1.5v-6.17c0-1.2-.05-1.33-.6-1.5l-.4-.11V33h5.14c2.97 0 5.07 1.24 5.07 4.76 0 3.12-2.25 5.24-5.41 5.24H23v-.3Zm4.61-.41c1.5 0 2.9-1.24 2.9-4.38 0-2.52-.77-4.23-2.72-4.23H26.5v7.08c0 1.4 0 1.53.63 1.53h.48ZM35.45 42.7l.41-.11c.58-.17.64-.3.64-1.5v-6.18c0-1.2-.06-1.33-.64-1.5l-.41-.11V33H40v.3l-.34.11c-.58.17-.66.3-.66 1.5v6.18c0 1.2.08 1.33.66 1.5l.34.11v.3h-4.55v-.3Z" fill="#DDB676"/><path d="M21 43h-7V15h29v6h-1.5v-4.5h-26v25H21V43Z" fill="#fff"/><path d="M45 17.34h-1.5V14.5h-2.9V13H45v4.34Z" fill="#DDB676"/><defs><linearGradient id="aouzmcjfz" x1="10.42" y1="9.71" x2="68.15" y2="76.02" gradientUnits="userSpaceOnUse"><stop stop-color="#1A1E21"/><stop offset="1" stop-color="#06060A"/></linearGradient></defs></svg>