<!-- by TradingView --><svg width="56" height="56" viewBox="0 0 56 56" xmlns="http://www.w3.org/2000/svg"><path fill="#F0F3FA" d="M0 0h56v56H0z"/><path d="M36.94 41.28a15.84 15.84 0 0 1-9.8 2.7L14.6 31.93l22.33 9.34ZM15.17 29.8l22 11.32c2.7-1.9 4.79-4.6 5.91-7.77l-27.9-3.55Zm27.99 3.33a16.05 16.05 0 0 0 0-10.26L17.5 28l25.66 5.13Zm-6.22-18.41a15.84 15.84 0 0 0-9.8-2.7L14.6 24.07l22.33-9.34Zm6.14 7.93a16.04 16.04 0 0 0-5.9-7.77l-22 11.32 27.9-3.55ZM13 33.3a15.97 15.97 0 0 0 13.55 10.63L13 33.3Zm13.55-21.22c-6.3.59-11.53 4.85-13.55 10.62l13.55-10.62Z" fill="url(#ai22yydt3)"/><defs><linearGradient id="ai22yydt3" x1="14.83" y1="36.95" x2="45.25" y2="16.49" gradientUnits="userSpaceOnUse"><stop stop-color="#36C3DE"/><stop offset=".13" stop-color="#38C3D8"/><stop offset=".3" stop-color="#40C3C8"/><stop offset=".48" stop-color="#4DC3AD"/><stop offset=".69" stop-color="#5EC388"/><stop offset=".9" stop-color="#75C359"/></linearGradient></defs></svg>