<!-- by TradingView --><svg width="56" height="56" viewBox="0 0 56 56" xmlns="http://www.w3.org/2000/svg"><path fill="#4C5258" d="M0 0h56v56H0z"/><path d="M32.88 12.5v2.78c-1.34-.79-3.26-1-4.51-1.87.09-.52.73-.48 1.14-.68-.27-.08-.83 0-1-.37 1.45-.34 3.02.07 4.37.14ZM9.03 28.33c.05 0 .08 0 .1.04.1 1.13.4 2.24.87 3.27.14.34.21.74.37 1.05.15.3.54.52.54.9.69.73 1.14 1.69 2.05 2.19a.8.8 0 0 1-.73.18c-.29-.07-1.03-.95-1.3-1.4a11.1 11.1 0 0 1-1.9-4.97 6.4 6.4 0 0 1 0-1.26Z" fill="#D8D9DA"/><path d="M23.7 38.96v1.09c-4.04.06-7.7-1-10.1-2.87.18-.6.34-1.39-.51-1.36-.05-.25.36-.03.37-.23-.9-.51-1.36-1.47-2.06-2.18a.81.81 0 0 0-.44-.77c.06-.44-.17-.56-.31-.78-.2-1.06-.6-2.3-.37-3.49.24.28.13.59.18.96.25 1.54.86 3 1.78 4.27.28.37.6.7.92 1.1.45.5.97.93 1.54 1.3.57.41 1.15.8 1.75 1.14A17.99 17.99 0 0 0 23.11 39c.3.03.45.01.58-.04Zm-7.64-1.47c-.34-.05-.44-.33-.78-.36-.27-.37-.83-.44-1.05-.88h-.13c-.06.1-.16.15-.19.27.47.74 1.57.84 2.14 1.46.7-.1.8.58 1.37.44-.11-.61-1.12-.39-1.37-.93ZM25.95 39.64v-.6c.5.07 1.1-.09 1.64 0-.28.46-1.17.32-1.64.6ZM33.07 33.66v2a14.82 14.82 0 0 1-6.16 2.3c-.08-.26.27-.12.36-.22-.4-.1-.8-.14-1.21-.15-.13.07.04.23-.1.27l-.22-.27a4.7 4.7 0 0 0 0-1.44l-.06-.84c.07-.72-.06-1.22-.13-1.95l-.12-1.09c.14-.43.36-1.32.5-1.77.18.44.71 1.22 1.06 1.55-.28.18-.69.4-.99.54v.6c.24 0 .4-.1.64-.1s-.08.15-.05.27c.38-.04 1.65-.32 1.78-.59.03-.04-.2-.12-.18-.18.52.06 1.1-.06 1.6-.23s.97-.44 1.34-.8c-.03.1-.23.27-.11.4.94-.57 1.66-1.81 2.05-2.93-.02.32-.01.64.04.96-1.29 2.7-3.88 4.65-7.1 5.42.02.22-.06.55.04.68.78-.13 1.61-.43 2.37-.43.05.13-.3.23-.05.27 2.16-.1 3.46-1.28 4.7-2.27ZM35.3 13.23V10c.1.96 0 2.1.05 3.14 3.85 1.4 7.16 4.2 8.3 8.31.33 1.19.52 3.02.14 4.28a.92.92 0 0 1-.27-1.05c-.44-.54-.53-1.4-1.05-1.86 0-.22.16-.33.23-.5-.14-.03-.13.08-.27.05-.04-.14.12-.1.08-.23-.03-.14-.11-.1-.22-.1-.12-.69-.18-1.27-.6-1.74-.03-.19.07-.23.05-.4a1.6 1.6 0 0 0-.44-.37c.05-.65-.51-.7-.77-1.05-.05-.2.15-.15.13-.32-.54-.64-1.3-1.09-2-1.68-.4-.35-.7-.78-1.19-.95-.16.15.2.16.14.36-.44.22-.7.04-1-.18-.05-.2.15-.15.13-.32-.02-.16-.25 0-.36-.05v-.22c-.27.12-.58-.21-.64.18-.1-.08-.15-.2-.32-.23-.17-.01 0 .26-.04.37a.6.6 0 0 0 .5.04c.73.74 1.67 1.27 2.46 1.96.38.5.8.95 1.27 1.36.66 1.38 1.45 2.62 1.5 4.6a14.03 14.03 0 0 0-5.68-6.82c-.1 1 0 2.18-.04 3.27h-.05v-3.3a2.7 2.7 0 0 0 0-1.1v-.43c.06-.6.05-1.2-.04-1.8ZM36.35 26.14c-.25.28-.5.54-.73.82.05-.67-.2-1.05-.23-1.63a9.4 9.4 0 0 0 0 2.04c0 .03-.07.06-.04.1-.26-.44.09-1.67-.05-2.28.05-.63.07-1.27.05-1.9.5.88.84 1.85 1 2.85ZM23.59 35.04c-3.4-.08-6.43-1.56-7.72-4.18 0-.48-.26-.76-.32-1.13-.53-3.27 1.72-5.24 3.37-6.63-.1-.24 0-.32.14-.44-.06-.13-.16.05-.28 0 1.85-2.62 7.7-2.76 10.43-1.04-.43-.04-.87.01-1.27.16.13-.34-.72-.24-.28.09-.07.08-.2.1-.27.18-.05-.27-.38-.26-.41-.54-.2 0-.15.21-.28.27-.26 0-.4-.54-.63-.18.15.4.78.33 1.14.54-.25.23-.5.48-.72.73-.32-.2-.7-.3-1.09-.27h-.04c-.09-.3-.21-.57-.38-.82-.14-.1-.47 0-.69-.05-.79-.02-1.4 0-2.18.05-.1.12 0 .33-.06.53.5.05.83.02 1.33 0-.32.33-1.16.07-1.27.65-.05.2.27.06.22.27-.3.27-.65.46-1.04.54-.22.06-.4.28-.64.37-.47.2-.93.42-1.36.7-.54.3-.77.95-1.46.4a4.54 4.54 0 0 0-1.87 3.63c.02.93.33 1.83.88 2.59a5.82 5.82 0 0 0 1.82 1.81c.13.07.3.03.43.1.5.27 1.02.49 1.56.63.14 0 .14-.1.28-.1.13.01.28.27.5.15.06-.07.03-.24.04-.37a.71.71 0 0 0-.5-.09c-1.01-.67-2.49-.87-2.91-2.13-.22-.11-.48-.34-.41-.6.63.05.77.7 1.13 1.05.13.12.41.16.64.32.23.16.44.49.64.59.2.1.35.03.5.1.15.06.22.17.37.22.54.16 1.11.23 1.68.23.07.06 0 .25.09.31h.77c-.1-.32-.03-.32 0-.68-.23-.13-.79.06-.72-.36.18-.12.36.15.5-.05-.04-.23-.5-.2-.69-.13-1.52-.5-3.03-1-3.6-2.45.1-.25-.14-.41-.18-.6 0-.22.02-.45.05-.67a3.1 3.1 0 0 1 .14-1.1l.22-.5c.18-.32.58-.6.69-.9.16-.46-.11-.99.18-1.4.47-.33 1.1-.96 1.73-.83-.19.17-.54.17-.64.41.73-.24 1.28-.65 2.32-.58l-.09-1.53h.14l.07 1.53a8.2 8.2 0 0 0 0 1.9v1.13a5.28 5.28 0 0 0 0 1.53v.34a38.47 38.47 0 0 0 0 4.26l.05.68c-.05.45-.08.91-.05 1.36Zm-.12-9.22c-.24-.06-.73-.06-.77.23 0 .14.26.04.32.13.06.37-.5.12-.5.41.3.14.62.21.95.23v-1Zm-3.37 1.59a2.18 2.18 0 0 0-.68 2.18 2.93 2.93 0 0 0 1.55 1.68c.27.08.52-.04.77.14l.19-.19a1 1 0 0 0-.37-.5c-.2-.02-.2.18-.4.14-.21-.2-.4-.4-.55-.64.07-.05.1-.13.18-.18-.05-.3-.35-.35-.44-.59.09-.47-.02-1.2.23-1.72-.1-.16-.27.15-.37 0 0-.13.17-.2.05-.32h-.16Zm.64 2c.38.33 1.02.4 1.14 1 .03 0 .1 0 .1.04.28 0 .43-.12.72-.1.07-.16.1-.35.09-.54-1.1.06-1.22-1.07-.88-1.86-.25-.14-.22.23-.5.19-.09-.2.27-.33.05-.36-.71.13-.76 1.1-.72 1.63ZM38.53 25.59c-.3 0-.63-.11-.9 0a2.9 2.9 0 0 0-.55-1.82.38.38 0 0 1 .09-.27c-.14-.18-.3-.33-.5-.44.06-.66-.54-.67-.78-1.04 0-.13.16-.14.14-.32-.2-.23-.43-.43-.69-.6v2.1h-.04v-2.18c.05-.36.07-.73.05-1.1a9.12 9.12 0 0 1 2.95 5.63c.07.02.24-.06.23.04Z" fill="#D8D9DA"/><path d="M33.16 18.22v1a.21.21 0 0 0-.13-.05c0 .15.04.29.13.18v1.1h-.04v-.88c-.22-.04-.3.06-.44.1-.04-.2-.28-.21-.36-.37 0-.15.2-.2.09-.32h-.38c-.03-.08.05-.27-.05-.27-.55.37-1.44-.56-1.83-.13.26.26.85.73 1.33.63.44.53 1.14.8 1.64 1.27v1.14c-2.37-2.16-7.5-3.77-11.41-2.4-.14 0-.22-.1-.32 0 .04.4-.4.33-.44.65.12.13.38-.2.44.04-.8.68-2 1.1-3 1.68-.83.47-1.6.96-2.38 1.41-.1-.16-.34-.22-.14-.46a7.57 7.57 0 0 0-3.28 6.14c0 1.6.66 2.9 1.31 4.1.77.72 1.32 1.67 2.28 2.22 1.24.74 2.58 1.28 3.98 1.62.37-.28.65.34.82-.14-.03-.17-.33-.07-.5-.1-.03-.14-.16-.2-.27-.27-.52.06-.6-.3-1.1-.27-1.15-.68-2.51-1.23-3.42-2.18-.32-.3-.57-.68-.73-1.09.26.12.5.3.68.5 1.05.88 1.91 1.83 3.47 2.32.36.11.69.35 1.1.44.4.08.8.2 1.22.27.68.12 1.37.18 2.06.18v-1.19h.04l.16 1.19c-.07.43-.07.91 0 1.35l-.09.87c-.1-.16-.07-.55-.11-.78-.27-.2-.53-.07-.82-.1-2.58-.13-5.06-1-7.16-2.5-.31-.27-.6-.56-.88-.86a7.82 7.82 0 0 1-1.82-2.62c-1.62-4.29.56-8.14 3.19-10.32.93-.78 2.15-1.31 2.78-2.41.06-.23-.14-.2-.14-.36 3.29-2.5 10.64-2.5 14.38-.38.04.03.09.05.14.05Zm-4.38-.27c-.03.31.19.26.4.22.18.23.5.54.83.46-.15-.53-.64-.7-1.23-.68Z" fill="#D8D9DA"/><path d="M28.11 27.1c-.25.18-.59-.06-.62-.32.23-.15.45.2.62.32Z" fill="#D8D9DA"/><path d="M27.29 31.78c-.5-.44-.9-.99-1.15-1.6.17.1.22-.25.33-.44.03-.06.16-.11.18-.2.04-.22.16-.56.18-.71.01-.18 0-.37-.02-.55 0-.09-.08-.19-.1-.27 0-.09.05-.17.03-.25-.04-.23-.27-.35-.36-.5-.1-.31-.3-.57-.58-.74v-.6c0-.18.02-.34.05-.5v.2c.25.31.82.53 1.05.98.05.1.06.22.11.32.1.17.29.28.35.43.02.06 0 .15.02.23.11.35.19.7.23 1.07 0 .1-.06.19-.07.3 0 .1.03.35 0 .5-.07.23-.13.47-.17.7-.09.08-.25.27-.14.4.1 0 .2-.18.27-.28.14-.22.22-.57.5-.68.08.28-.26.53-.33.82.47-.04.55-.88.82-1.16a.68.68 0 0 1 .09-.44.66.66 0 0 1 .04-.41.53.53 0 0 1-.02-.41l-.11-.27c.14-.32-.13-.44-.23-.66.14-.44-.33-.65-.8-.64-.28-.31-.59-.6-.92-.85-.15-.11-.31-.15-.39-.34-.12 0-.19-.15-.27-.11.05-.29.13-.57.23-.85v.13c.59.16.92.57 1.42.82l.11.2c.23.17.45.36.64.58.27.49.48 1 .64 1.54v.21c0 .13.09.25.1.37.1 1.65-.86 2.82-1.73 3.66Zm-.07-6.26c-.15-.12-.34-.38-.55-.36 0 .05-.02.05 0 .1.08.12.18.24.3.33.18.2.34.42.64.37 0-.2-.24-.3-.39-.44ZM35.52 28.33a4.65 4.65 0 0 1 .88-1.43c.07 1.84-.35 3.65-1.22 5.27 0-.3.05-.54.03-.87-.03-.33.04-.48.02-.76a3.8 3.8 0 0 0 .01-.7 4.88 4.88 0 0 0 .3-1.54l-.02.03ZM37.78 26.07c.2-.06.43-.06.64 0 .1 3.63-1.4 5.86-3.1 7.8a3.79 3.79 0 0 1-.11-.88c.03 0 0 .04.02.07.47-.32.87-.73 1.2-1.2.1-.05.16-.14.25-.2a9 9 0 0 0 1.18-4.68c0-.1.1-.12.08-.24-.14-.16 0-.5-.16-.67ZM26.9 23.09c.23-.28.52-.51.84-.68.56.5 1.31.8 1.87 1.31.22.22.54.54.74.79v1.24s-.28-.3-.32-.48c-.93-.8-1.7-1.77-3.06-2.18h-.07ZM28.12 22.28a.95.95 0 0 1 .37-.09h.02c.05.1.2.1.16.25-.02.05-.07.06-.11.07-.19-.04-.21-.24-.44-.23Z" fill="#D8D9DA"/><path d="M35.57 10v16.8a2.97 2.97 0 0 1 3.37-1.1c2.3.76 3.85 3.87 3.33 6.87a5.89 5.89 0 0 1-1.43 2.82 3.71 3.71 0 0 1-2.9 1.31c-1.17-.06-1.81-.8-2.62-1.3-.8.3-1.58.74-2.32.99V11h-1v-1h3.57Zm.04 19.2c-.04.44 0 .92-.04 1.4-.1 1.58-.12 5.8 2.46 5.63C39.64 36.1 40 34.3 40 32.24c0-1.29.49-6.44-2.11-6.16-1.43.12-2.18 1.88-2.28 3.13Z" fill="#F8C858"/><path d="M26 30.75V46.3c.52.04.96.05 1.48.03V47h-3.93c0-8.21-.06-16.38-.03-24.61H22v-.64c1.01-.02 1.9-.05 2.94-.03.34.66.65 1.34.9 2.05.72-1.02 1.36-2.19 2.98-2.22 1.31-.04 2.3.94 2.87 1.71a6.54 6.54 0 0 1 .28 7.38c-.74 1.1-1.95 2.21-3.64 2.05-1.28-.11-1.82-.94-2.33-1.94Zm1.21-8.03c-1.02.88-1.4 2.36-1.31 4.3.04 1-.04 2.03.2 2.82a3.52 3.52 0 0 0 1.8 2.22c1.08.48 1.98-.13 2.29-1.14.11-.64.15-1.3.1-1.95V26.9c0-2.22.39-5.07-1.86-4.74-.45.08-.87.28-1.22.57Z" fill="#fff"/></svg>