<!-- by TradingView --><svg width="56" height="56" viewBox="0 0 56 56" xmlns="http://www.w3.org/2000/svg"><path fill="#F0F3FA" d="M0 0h56v56H0z"/><path d="m42.63 33 .86-3.6c.12-.4.36-1.3.36-1.74 0-.55-.26-2.66-2.85-2.66-2.58 0-3.8.93-4.28 2.48h2.59c.17-.28.67-.82 1.28-.82.76 0 .79.43.79.72 0 .28-.12.54-2 .78-1.88.23-3.64 1.01-3.64 2.79 0 1.77 1.62 2.05 2.12 2.05h.02c.5 0 1.22 0 2.35-.95l-.1.73-.03.22h2.53Zm-1.82-3.51c-.1.6-.62 1.8-1.78 1.8-.58 0-.77-.43-.77-.77 0-.33.34-.8 1.22-.94l.71-.15c.2-.05.36-.1.47-.1.1 0 .15.05.15.16ZM6.94 33H4l5.9-10h3L14 33h-2.89l-.53-6.72L8.7 30h2.04l-3.8 3ZM32.47 23H29.7L27 33h2.77l.22-.81c.41.47.99.81 1.79.81 2.55 0 4.1-3.05 4.1-4.88 0-1.82-1.02-3.12-2.45-3.12-.6 0-1.19.26-1.66.57l.7-2.57Zm-1.96 7.26.75-2.78c.26-.23.58-.38.95-.38.33.01 1 .3 1 1.36 0 1.33-.84 2.42-1.82 2.42-.47 0-.73-.27-.88-.62ZM20.98 25c-1.04 0-1.97.7-2.54 1.3l.47-1.3h-2.95L14 33h2.95l.12-.54c.4-1.42 1.02-3.64 1.04-3.76.03-.17.4-1.3 1.31-1.3.74 0 .75.67.67 1L18.8 33h3.02c.38-1.34 1.14-4.16 1.16-4.3.03-.17.4-1.3 1.31-1.3.74 0 .75.67.67 1L23.67 33h2.97l1.22-4.3c.63-2.45-.94-3.7-2.32-3.7-1.04 0-1.96.69-2.53 1.3-.14-.47-.7-1.3-2.03-1.3ZM52 28h-2.68c.1-.4-.21-1-.8-1-1.07 0-1.52 1.78-1.52 2.63 0 .85.15 1.25.66 1.25.8 0 1.16-.52 1.24-.88h2.7c-.76 2.48-2.93 3-4.47 3-1.54 0-3.13-1.08-3.13-3.37 0-2.3 1.76-4.63 4.9-4.63 2.52 0 3.12 1.97 3.1 3Z" fill="#1D59AF"/></svg>