<!-- by TradingView --><svg width="56" height="56" viewBox="0 0 56 56" xmlns="http://www.w3.org/2000/svg"><path fill="#F0F3FA" d="M0 0h56v56H0z"/><path d="M4 22.41V35h46.66L52 34H5V21l-1 1.41Z" fill="#E31D19"/><path fill-rule="evenodd" d="M7 22h3.5c1.55 0 3.06.78 3.06 2.5 0 1.1-.73 1.87-1.74 2.2v.03C13.1 26.81 14 28 14 29.22c0 1.9-1.86 2.78-3.54 2.78H7V22Zm3.4 8.5H8.5v-3h1.91c1.35 0 2.09.26 2.09 1.37 0 1.22-.84 1.63-2.1 1.63ZM8.5 26H10c1 0 2-.43 2-1.51 0-.94-.76-1.49-1.7-1.49H8.5v3Z"/><path d="M27 26.52h1V32h1.5v-5.48H31V25h-1.49v-.62c0-.8.14-1.38 1.03-1.38.26 0 .52.03.77.12l.15-1.03c-.38-.09-.71-.09-1.01-.09-1.6 0-2.45.85-2.45 2.45V25h-1v1.52ZM32 28.5c0-1.91 1.57-3.5 3.5-3.5s3.5 1.59 3.5 3.5c0 1.92-1.57 3.5-3.5 3.5a3.51 3.51 0 0 1-3.5-3.5Zm3.5-2.06a2 2 0 0 0-2.06 2.06 2 2 0 0 0 2.06 2.06 2 2 0 0 0 2.06-2.06 2 2 0 0 0-2.06-2.06ZM51 32h-1.5v-1.13h-.03A2.3 2.3 0 0 1 47.4 32c-2 0-3.39-1.59-3.39-3.51 0-1.93 1.38-3.51 3.39-3.51.96 0 1.58.35 2.08 1.13L49.5 22H51v10Zm-3.53-1.4c.31 0 .59-.05.83-.16a1.85 1.85 0 0 0 1.03-1.1c.1-.25.14-.53.14-.84 0-.3-.05-.59-.14-.85a1.85 1.85 0 0 0-1.02-1.1 2.1 2.1 0 0 0-.84-.15c-1.22 0-2 .95-2 2.1 0 1.15.78 2.1 2 2.1ZM23.5 25H22v7h1.5v-3.43c0-1.5.51-2.19 1.8-2.19.22 0 .43.05.64.1l.06-1.4a1.86 1.86 0 0 0-.58-.08c-.83 0-1.55.5-1.92 1.25V25ZM41.5 25H40v7h1.5v-3.43c0-1.5.51-2.19 1.8-2.19.22 0 .43.05.64.1l.06-1.4a1.86 1.86 0 0 0-.58-.08c-.83 0-1.55.5-1.92 1.25V25ZM19.5 32H21v-7h-1.5v3.01c0 1.31-.33 2.49-1.68 2.49-1 0-1.32-1.02-1.32-1.97V25H15v4.4c0 1.46.92 2.6 2.44 2.6h.02c.87 0 1.63-.37 2.01-1.22L19.5 32Z"/></svg>