<!-- by TradingView --><svg width="56" height="56" viewBox="0 0 56 56" xmlns="http://www.w3.org/2000/svg"><path fill="#F0F3FA" d="M0 0h56v56H0z"/><path d="M24.4 26.6a2 2 0 0 1 0 2.86L14.65 39c-.4-.52-1.3-1.69-1.65-2.23.07-.9 5.16-6.18 7.76-8.77-2.61-2.6-7.7-7.88-7.77-8.78.35-.54 1.23-1.7 1.63-2.22l9.77 9.6Z" fill="#00B73F"/><path d="M26.6 24.4a2 2 0 0 0 2.86 0L39 14.65c-.52-.4-1.69-1.3-2.23-1.65-.9.07-6.18 5.16-8.77 7.76-2.6-2.61-7.88-7.7-8.78-7.77-.54.35-1.7 1.23-2.22 1.63l9.6 9.77Z" fill="#0081E5"/><path d="M11.86 22c.34.73 1.57 2.7 3.76 4.72L17 28l-1.38 1.28c-2.19 2.03-3.42 4-3.76 4.72-.27-.7-.8-2.22-.86-2.73-.05-.5 1.35-2.38 2.08-3.27-.73-.9-2.13-2.76-2.08-3.27.05-.51.6-2.03.86-2.73Z" fill="#00B73F"/><path d="M22 11.86c.73.34 2.7 1.57 4.72 3.76L28 17l1.28-1.38c2.03-2.19 4-3.42 4.72-3.76-.7-.27-2.22-.8-2.73-.86-.5-.05-2.38 1.35-3.27 2.08-.9-.73-2.76-2.13-3.27-2.08-.51.05-2.03.6-2.73.86ZM29.4 31.6a2 2 0 0 0-2.86 0L17 41.35c.52.4 1.69 1.3 2.23 1.65.9-.07 6.18-5.16 8.77-7.76 2.6 2.61 7.88 7.7 8.78 7.77.54-.35 1.7-1.23 2.22-1.63l-9.6-9.77ZM31.6 29.4a2 2 0 0 1 0-2.86L41.35 17c.4.52 1.3 1.69 1.65 2.23-.07.9-5.16 6.18-7.76 8.77 2.61 2.6 7.7 7.88 7.77 8.78-.35.54-1.23 1.7-1.63 2.22l-9.77-9.6Z" fill="#0081E5"/><path d="M34 44.14c-.73-.34-2.7-1.57-4.72-3.76L28 39l-1.28 1.38c-2.03 2.19-4 3.42-4.72 3.76.7.27 2.22.8 2.73.86.5.05 2.38-1.35 3.27-2.08.9.73 2.76 2.13 3.27 2.08.51-.05 2.03-.6 2.73-.86ZM44.14 34c-.34-.73-1.57-2.7-3.76-4.72L39 28l1.38-1.28c2.19-2.03 3.42-4 3.76-4.72.27.7.8 2.22.86 2.73.05.5-1.35 2.38-2.08 3.27.73.9 2.13 2.76 2.08 3.27-.05.51-.6 2.03-.86 2.73Z" fill="#0081E5"/></svg>