<!-- by TradingView --><svg xmlns="http://www.w3.org/2000/svg" width="56" height="56" viewBox="0 0 56 56"><path fill="#F26733" d="M0 0h56v56H0z"/><path d="M6.3 27H5v-4h1.3c1.58 0 2.7.33 2.7 1.98C9 26.74 7.88 27 6.3 27Zm3.7-2.07C10 22.55 8.4 22 6.04 22H4v10h1v-4h1.05c2.46 0 3.95-.7 3.95-3.07Zm2.5 1.37V22h-1v10h1V28.21c0-.73 0-2.21 1.78-2.21C15.9 26 16 27.16 16 28.47V32h1v-4.05c0-1.73-.64-2.98-2.55-2.98-1.32 0-1.78.51-1.95 1.33Zm10-.26s-.3-.04-.69-.04C20 26 20 27.24 20 28v4h-1v-7h.82l.18 1.35c.29-1.1 1.1-1.35 2.21-1.35h.29v1.04Zm3.34-.22c1.2 0 1.7.61 1.7 2.18h-3.57c.12-1.52.62-2.18 1.87-2.18Zm.4 6.18c1.11 0 1.76-.26 1.76-.26v-.93s-.81.36-1.76.36c-1.61 0-2.24-1.23-2.24-2.4h4.49v-.05c0-.72 0-1.83-.41-2.57C27.65 25.4 26.9 25 25.9 25c-1.8 0-2.91 1.28-2.91 3.52 0 1.14.3 2.07.85 2.65.49.52 1.25.83 2.39.83Zm8.3-4c0-1.57-.5-2.18-1.7-2.18-1.25 0-1.75.66-1.87 2.18h3.57Zm.46 3.74s-.65.26-1.76.26c-1.14 0-1.9-.3-2.39-.83-.55-.58-.85-1.5-.85-2.65 0-2.24 1.11-3.52 2.91-3.52 1 0 1.75.4 2.17 1.15.4.74.4 1.85.4 2.57v.06H31c0 1.16.63 2.39 2.24 2.39.95 0 1.76-.36 1.76-.36v.93Zm6.61-5.68h.1v-.8s-.73-.26-1.67-.26c-1.56 0-2.47.7-2.47 1.77 0 1.1.94 1.51 1.83 1.9.82.35 1.6.69 1.6 1.52 0 .74-.5 1.04-1.51 1.04-.97 0-1.88-.41-1.88-.41h-.11v.82s.74.36 1.87.36c1.4 0 2.63-.56 2.63-1.88 0-1.22-1-1.66-1.93-2.07-.77-.34-1.5-.65-1.5-1.4 0-.63.42-.89 1.39-.89.86 0 1.65.3 1.65.3ZM44 32h1v-7h-1v7Zm0-9h1v-1h-1v1Zm7 5.85c0 1.08-.27 2.38-1.97 2.38-.99 0-1.51-.32-1.51-1.12 0-1.5 1.88-1.45 3.07-1.42l.41.01v.15ZM49.26 25c-1.22 0-2.13.3-2.13.3v.78h.1s.85-.35 1.92-.35c1.67 0 1.85.8 1.85 2.27a8.9 8.9 0 0 0-3.2.38c-.94.34-1.3 1-1.3 1.73 0 1.19.99 1.89 2.42 1.89s2.05-.7 2.22-1.35l.23 1.35H52v-4.08c0-.85 0-1.6-.45-2.16-.46-.56-1.3-.76-2.3-.76Z" fill="#fff"/></svg>