<!-- by TradingView --><svg width="56" height="56" viewBox="0 0 56 56" xmlns="http://www.w3.org/2000/svg"><path fill="#ED0217" d="M0 0h56v56H0z"/><path d="M42.03 31c.84.03 1.87-.3 2.47-.93V28H42v1h1.5v.59c-.37.3-.96.43-1.5.41-1.1-.05-2-.7-2-1.82 0-1.21.82-2.14 2-2.17.93-.03 1.25.18 1.7.52l.47-.62A2.55 2.55 0 0 0 42 25a3.26 3.26 0 0 0-3 3.18c-.01 1.55 1.49 2.76 3.03 2.82Zm-21.27-.01L22 31s-1.22-1.46-1.63-2.29a.81.81 0 0 1 .12-.08c.96-.48 1.31-1.08 1.2-2.03-.11-.84-.66-1.45-1.66-1.55-.69-.07-1.39-.05-2.1-.04l-.93.02v5.96h1V29h1.28l1.48 1.99ZM18.2 28H18v-2h.36c1.01-.03 2.4-.06 2.4.87 0 1.15-1.6 1.14-2.57 1.13ZM46 25h4v1h-3v1.56h2.6v.93H47V30h3v1h-4v-6Zm-34 2.55V26h2.98c.02-.29.02-.71 0-1H11v6h4v-1h-3v-1.54h2.64v-.91H12ZM38.16 31h-.94l-.54-1h-3.1l-.5 1h-.92l2.62-6h.78l1.48 3.42L38.16 31Zm-3-4.72L33.96 29h2.33l-1.13-2.72ZM6.48 29.25l-.48.76c.33.37.73.65 1.17.82.44.16.9.21 1.37.14A1.65 1.65 0 0 0 10 29.29c0-.8-.44-1.29-1.4-1.6a7.15 7.15 0 0 0-.37-.1c-.29-.08-.59-.16-.85-.33a.59.59 0 0 1-.26-.26.7.7 0 0 1-.06-.39c.04-.61.75-.68 1.27-.56.31.05.58.23.84.42l.28.18.44-.82A3.25 3.25 0 0 0 7.96 25c-1.02 0-1.9.47-1.96 1.65-.04.73.48 1.26 1.19 1.56.14.06.32.11.52.17.63.18 1.38.39 1.29 1.12-.09.72-1.19.53-1.66.35a2.26 2.26 0 0 1-.86-.6ZM32 25v1h-2v5h-1v-5h-2v-1h5Zm-8 5.15-.5.06V31h1.96v-.53l-.01-.26-.45-.06v-4.3l.48-.08V25h-2l.02.46v.32l.5.09v4.28Z" fill="#fff"/></svg>