<!-- by TradingView --><svg width="56" height="56" viewBox="0 0 56 56" xmlns="http://www.w3.org/2000/svg"><path fill="#F0F3FA" d="M0 0h56v56H0z"/><path fill-rule="evenodd" d="M28.37 43a15.5 15.5 0 0 1-.64 0V25.65h-2.08c.53.5.47 2 .38 2.7l-1.79 14.19A14.88 14.88 0 0 1 13 28c0-8.37 6.63-15 15-15 8.37 0 15 6.63 15 15 0 7.03-4.69 12.84-11.15 14.51l-1.78-14.16c-.1-.7-.15-2.2.38-2.7h-2.08V43ZM44 28a16 16 0 1 1-32 0 16 16 0 0 1 32 0ZM28.73 17.46l-.63-.28v-.05l-.05.02-.05-.02v.05l-.63.28v.67c-.38.2-1.15.8-1.15 1.68a6.6 6.6 0 0 1 1.83-.4 6.6 6.6 0 0 1 1.83.4c0-.88-.77-1.49-1.15-1.68v-.67ZM26 20.66v-.73l-9.66-1.25L26 20.66Zm0 .87v-.62l-8.03 2.77L26 21.53Zm-.35.43c.53-.49 1.79-.59 2.4-.58.6 0 1.87.1 2.4.58v.62c-.12-.19-.76-.6-2.4-.77-1.65.17-2.29.58-2.4.77v-.62ZM26 24.4c.3-.05 1.28-.15 2.05-.15.76 0 1.66.1 1.95.15v-1.83a4.32 4.32 0 0 0-1.95-.3 4.7 4.7 0 0 0-2.05.3v1.83Zm-2 1.24v-.62c.54-.13 2.14-.4 4-.47h.1c1.85.07 3.36.34 3.9.47v.62a14.57 14.57 0 0 0-3.95-.61c-.93.03-3 .19-4.05.6Zm.4.28c.7.36 1 2.15 1.07 3 .42-1.82-.07-2.94-.37-3.28l-.7.28Zm5.6-5.27v-.73l9.75-1.25L30 20.66Zm0 .87v-.62l8.13 2.77L30 21.53Zm1.7 4.4c-.7.36-1 2.15-1.07 3-.42-1.82.07-2.94.37-3.28l.7.28Z" fill="url(#a04hbput0)"/><defs><linearGradient id="a04hbput0" x1="28" y1="12" x2="28" y2="44" gradientUnits="userSpaceOnUse"><stop stop-color="#538DBF"/><stop offset=".48" stop-color="#3D6996"/><stop offset="1" stop-color="#1D3257"/></linearGradient></defs></svg>