<!-- by TradingView --><svg width="56" height="56" viewBox="0 0 56 56" xmlns="http://www.w3.org/2000/svg"><path fill="#F0F3FA" d="M0 0h56v56H0z"/><path fill-rule="evenodd" d="M13 26v1h2v9h-2v1h6c1 0 3-.7 3-3.5 0-.83-.5-2-2-2.5.33-.33 1-1.3 1-2.5 0-1.5-1-2.5-2.5-2.5H13Zm3 1v3.5h2.5c.5 0 1.5-.5 1.5-2 0-1.2-1-1.5-1.5-1.5H16Zm0 4.5V36h3c1 0 2-.5 2-2.5 0-1.5-1.67-2-2.5-2H16Z" fill="#232020"/><path d="M27.5 12.5V11L23 13.5l1 1 3.5-2Z" fill="#008BBF"/><path fill-rule="evenodd" d="m24 15 3.5-2v11.5H24V15Zm2.5-.5-.5.5v2l.5-.5v-2Zm-2 1.5v2l.5-.5v-2l-.5.5Zm.5 2.5-.5.5v2l.5-.5v-2Zm1.5-1-.5.5v2l.5-.5v-2Zm-2 6.5v-2l.5-.5v2l-.5.5Zm2-3.5-.5.5v2l.5-.5v-2Z" fill="#008BBF"/><path d="M28 12.5V11l4.5 2.5-1 1-3.5-2Z" fill="#005E8D"/><path fill-rule="evenodd" d="M31.5 15 28 13v11.5h3.5V15Zm-2.5-.5.5.5v2l-.5-.5v-2Zm2 1.5v2l-.5-.5v-2l.5.5Zm-.5 2.5.5.5v2l-.5-.5v-2Zm-1.5-1 .5.5v2l-.5-.5v-2Zm2 6.5v-2l-.5-.5v2l.5.5Zm-2-3.5.5.5v2l-.5-.5v-2Z" fill="#005E8D"/><path d="M13 25v-.5h29.81l.19.5H13Z" fill="#005E8D"/><path d="M21.5 16v-1l2 1v1l-2-1Z" fill="#005D8C"/><path fill-rule="evenodd" d="m21.5 17 2 1v6.5h-2V17Zm.5 1v1.5l1 .5v-1.5l-1-.5Zm0 3 1 .5V23l-1-.5V21Z" fill="#005D8C"/><path d="m21 15-5 3 1 .5 4-2V15Z" fill="#0E93C4"/><path fill-rule="evenodd" d="m17 19 4-2v7.5h-4V19Zm2.5 1v-1.5l.5-.5v1.5l-.5.5ZM18 19l.5-.5V20l-.5.5V19Zm0 3.5.5-.5v1.5l-.5.5v-1.5Zm1.5-.5v1.5l.5-.5v-1.5l-.5.5Z" fill="#008BBF"/><path d="M34.5 16v-1l-2 1v1l2-1Z" fill="#008BBF"/><path fill-rule="evenodd" d="m34.5 17-2 1v6.5h2V17Zm-.5 1v1.5l-1 .5v-1.5l1-.5Zm0 3-1 .5V23l1-.5V21Z" fill="#008BBF"/><path d="m35 15 5 3-1 .5-4-2V15Z" fill="#176891"/><path fill-rule="evenodd" d="m39 19-4-2v7.5h4V19Zm-2.5 1v-1.5L36 18v1.5l.5.5Zm1.5-1-.5-.5V20l.5.5V19Zm0 3.5-.5-.5v1.5l.5.5v-1.5Zm-1.5-.5v1.5L36 23v-1.5l.5.5Z" fill="#005E8D"/><path fill-rule="evenodd" d="M24 26v1h1v9h-1v1h3v-1h-1v-4h2.5l2 4c.4.8 1.17 1 1.5 1h1v-1h-1c-.4 0-2-2.67-2.5-4 .67 0 2.5-.6 2.5-3s-2-3-3-3h-5Zm2 1v4h3c.67 0 2-.4 2-2s-1.33-2-2-2h-3Z" fill="#232020"/><path d="M34 28v-2h9v2h-1v-1h-3v9h1v1h-3v-1h1v-9h-3v1h-1Z" fill="#232020"/><path fill-rule="evenodd" d="M43 38H13v4h30v-4Zm-15.18 1v.28h-.7V41h-.42v-1.72H26V39h1.82Zm-7.92 1.19c.36 0 .93-.12.93-.58 0-.46-.57-.61-.93-.61H19v2h.43v-.81h.47Zm.49-.58c0 .2-.16.32-.49.32h-.47v-.64h.47c.33 0 .49.1.49.32Zm-3.75.97h1.09l.19.42h.45l-.94-2h-.5L16 41h.45l.19-.42Zm.54-1.17.43.9h-.85l.42-.9Zm5.4 1.17H21.5l-.19.42h-.45l.94-2h.5l.93 2h-.45l-.19-.42Zm-.12-.26-.42-.9-.43.9h.85Zm1.93-.12.6.8h.51l-.65-.83c.42-.08.6-.3.6-.56 0-.46-.55-.61-.92-.61h-.96v2H24v-.8h.39Zm.14-.26H24v-.65h.53c.33 0 .49.12.49.32s-.16.33-.49.33ZM31 41v-2h-.46l-.91 1.56L28.7 39h-.46v2h.43v-1.36l.8 1.36h.3l.8-1.36V41H31Zm1-1.72v.58h.89v.26H32v.6h1V41h-1.44v-2H33v.28h-1ZM35.13 41h.42v-2h-.42v1.48L33.83 39h-.42v2h.43v-1.48L35.13 41Zm2.7-2v.29h-.7V41h-.43v-1.71H36V39h1.82Zm.8 1.93a1.55 1.55 0 0 0 .95 0 .73.73 0 0 0 .31-.22c.07-.1.11-.18.11-.28a.39.39 0 0 0-.12-.3.68.68 0 0 0-.27-.17c-.11-.03-.25-.07-.43-.1a3.63 3.63 0 0 1-.3-.08.6.6 0 0 1-.2-.09.19.19 0 0 1-.06-.14c0-.1.04-.16.11-.2a.57.57 0 0 1 .3-.08c.14 0 .25.03.33.08.08.05.13.11.14.18h.47a.5.5 0 0 0-.27-.39 1.2 1.2 0 0 0-.62-.14c-.18 0-.34.02-.47.07a.71.71 0 0 0-.32.2.43.43 0 0 0-.1.29c0 .12.03.22.1.29a.7.7 0 0 0 .27.16c.11.04.25.07.42.1l.32.08c.08.02.14.05.19.1.05.03.08.09.08.15 0 .09-.04.16-.13.21a.64.64 0 0 1-.34.08.59.59 0 0 1-.34-.08.29.29 0 0 1-.13-.21h-.46c0 .11.04.21.12.3a.8.8 0 0 0 .33.2Z" fill="#ED1B35"/></svg>