<!-- by TradingView --><svg width="56" height="56" viewBox="0 0 56 56" xmlns="http://www.w3.org/2000/svg"><path fill="#F0F3FA" d="M0 0h56v56H0z"/><path fill-rule="evenodd" d="M28.7 11.41v.05l4.2 1.15c.03-.29.28-.51.57-.51.32 0 .58.26.58.58a.6.6 0 0 1-.1.33l3.7 1.69a.4.4 0 0 1 .35-.23c.23 0 .4.18.4.41 0 .12-.04.22-.12.3l5.23 7.86a.4.4 0 0 1 .49.4c0 .18-.1.33-.26.39l-.16 4.25c.24.07.42.3.42.57 0 .29-.21.53-.49.58l-.34 4.6c.15.06.25.2.25.38a.4.4 0 0 1-.4.41.4.4 0 0 1-.2-.05l-5.54 7.11a.4.4 0 0 1-.35.62.4.4 0 0 1-.34-.2l-3.73 1.16c.02.08.03.16.03.25 0 .46-.37.84-.82.84a.83.83 0 0 1-.8-.6L27.2 45l-9.08-3.66a.4.4 0 0 1-.3.14.4.4 0 0 1-.4-.41c0-.07.01-.13.04-.18l-2.5-3.45a.58.58 0 0 1-.76-.56.6.6 0 0 1 .1-.34l-2.76-3.81a.4.4 0 0 1-.14.03.4.4 0 0 1-.4-.42c0-.21.16-.4.37-.4l.88-9.3a.41.41 0 0 1-.25-.38.4.4 0 0 1 .4-.41c.06 0 .1 0 .15.02l2.5-3.61a.42.42 0 0 1 .3-.7.4.4 0 0 1 .2.07l3.02-3.28a.42.42 0 0 1-.04-.19.4.4 0 0 1 .75-.21l3.6-.88v-.1c0-.33.26-.6.58-.6.24 0 .46.17.54.4l3.9-1.33a.4.4 0 0 1 .4-.44c.23 0 .4.18.4.41ZM12.48 22.67c.19-.03.34-.2.34-.41a.42.42 0 0 0-.13-.3l2.43-3.53-2.35 8.37-.3-4.13Zm.74 4.6c0 .09-.03.18-.08.25l5.84 5.45a.4.4 0 0 1 .23-.12l.5-11a.57.57 0 0 1-.28-.11L13.12 27c.06.07.1.16.1.26Zm6.38 5.75a.4.4 0 0 0-.24-.16l.5-11.02c.1-.02.2-.07.28-.14l6.83 5.51a.85.85 0 0 0-.04.9L19.59 33Zm7.41-4.8-7.34 4.94a.42.42 0 0 1-.02.24l10.11 3.8a.58.58 0 0 1 .33-.29l-2.27-8.4a.81.81 0 0 1-.8-.28Zm.96.25 2.27 8.41h.02c.14 0 .26.05.35.12l6.45-7.97a.85.85 0 0 1-.28-.64v-.02l-8.31-.55a.84.84 0 0 1-.5.65Zm.5-.8 8.33.55a.84.84 0 0 1 .37-.55l-5.9-9.17a.4.4 0 0 1-.22.03l-3.02 8.41c.26.14.44.4.45.72Zm-.58-.79 3.02-8.4a.41.41 0 0 1-.16-.17l-10.41 2.94a.6.6 0 0 1-.1.33l6.83 5.52a.82.82 0 0 1 .82-.22Zm-8.44 6.75a.4.4 0 0 0 .12-.1l10.14 3.8a.6.6 0 0 0 .04.4l-6.93 4.24a.4.4 0 0 0-.52-.17l-2.85-8.17Zm-.4-.03a.4.4 0 0 0 .25.07l2.87 8.22a.41.41 0 0 0-.07.12l-6.8-4.88a.6.6 0 0 0-.05-.6l3.8-2.93Zm-.15-.5a.42.42 0 0 0 .04.4l-3.8 2.92a.57.57 0 0 0-.42-.12l-1.83-8.63a.4.4 0 0 0 .13-.05l5.88 5.48Zm-6.16-5.44h-.04l-1.1 4.32c.13.07.22.2.22.36 0 .13-.05.23-.14.31l2.74 3.78c.04-.04.1-.07.15-.1l-1.83-8.67Zm-.33-.4c0-.15.09-.29.21-.36l-.26-3.7-.78 8.24.98-3.86a.41.41 0 0 1-.15-.32Zm2.88-8.88-2.38 8.48a.4.4 0 0 1 .1.04l6.3-5.27a.6.6 0 0 1-.07-.62l-3.65-2.7a.4.4 0 0 1-.3.07Zm4.03 2.5-3.63-2.68a.42.42 0 0 0 .02-.42l.5-.33 2.21-1.34c1.5-.9 3.28-1.93 4.65-2.72.07.07.15.12.24.14L20 20.72a.57.57 0 0 0-.68.16Zm-.64-6.4c.07.06.16.1.26.1a.4.4 0 0 0 .4-.48l3.6-.88.03.05a371.24 371.24 0 0 0-6.83 4.05l-.2.13 2.74-2.97Zm9.63-2.66a.4.4 0 0 1-.36-.23l-3.8 1.29 8.6-.15-4.08-1.12a.4.4 0 0 1-.36.21Zm9.3 3.02-3.76-1.7a.57.57 0 0 1-.04.03l6.35 5.78-2.02-3.68a.4.4 0 0 1-.53-.43Zm5.74 8.28-2.68-3.41 2.75 8.35h.02l.16-4.2a.41.41 0 0 1-.24-.73Zm-.32 10.68.34-4.57-.08-.01-3.4 7.74.06.06 2.72-2.61a.42.42 0 0 1-.05-.2.4.4 0 0 1 .4-.41Zm-6.09 7.68c.1 0 .18.03.25.08l5.18-6.65-2.35 2.25c.02.04.03.09.03.13a.4.4 0 0 1-.4.42.4.4 0 0 1-.18-.04L32.73 43l.07.1 3.73-1.15v-.07a.4.4 0 0 1 .4-.41Zm2.4-3.9-6.7 5.31a.82.82 0 0 0-.66-.22l-1.43-4.69a.59.59 0 0 0 .29-.42h8.5v.01Zm-.09-.17h-8.4a.6.6 0 0 0-.13-.3l6.47-8a.81.81 0 0 0 .61.1l1.6 7.76a.41.41 0 0 0-.15.44Zm.5-.51a.4.4 0 0 0-.22 0l-1.58-7.74a.84.84 0 0 0 .48-.7l4.43.14v.05c0 .22.11.4.29.5l-3.4 7.75Zm-21.52 4.17v.07l3.79 1-6.8-4.88a.59.59 0 0 1-.11.11l2.45 3.39a.4.4 0 0 1 .27-.1c.22 0 .4.18.4.4Zm4.62 1.22a.42.42 0 0 0 .02-.17l6.97-4.25a.57.57 0 0 0 .57.17l1.42 4.66a.84.84 0 0 0-.54.54l-8.44-.95Zm-.76.03a.4.4 0 0 0 .55.22l3.33 1.8-7.1-2.87 3.22.85Zm10.85-29.44-8.9.16a.6.6 0 0 1-.02.09l6.8 4.7a.4.4 0 0 1 .38-.1l1.88-4.62a.6.6 0 0 1-.14-.23Zm-8.98.39 6.78 4.69a.42.42 0 0 0-.04.2L20.31 21.1a.59.59 0 0 0-.2-.3l3.35-7.25c.2 0 .39-.11.49-.28ZM37.3 27.6l-5.92-9.19c.05-.04.08-.1.1-.16l8.42 1.08c0 .2.15.38.35.4l-2.4 7.86a.81.81 0 0 0-.55.01Zm2.63-8.42L31.5 18.1a.41.41 0 0 0-.17-.32l1.86-4.58a.57.57 0 0 0 .47.04l6.36 5.8a.41.41 0 0 0-.1.14Zm-1.94 8.47 2.42-7.92a.4.4 0 0 0 .08-.04l2.77 8.4a.58.58 0 0 0-.38.36l-4.46-.15a.84.84 0 0 0-.43-.65Zm4.56-5.78-1.87-2.38c.02-.05.03-.1.03-.16a.4.4 0 0 0-.4-.42L39 16.53l3.56 5.34ZM31.24 43.51v-.12l-8.47-.95 4.44 2.4 4.03-1.25v-.08Z"/></svg>