<!-- by TradingView --><svg width="56" height="56" viewBox="0 0 56 56" xmlns="http://www.w3.org/2000/svg"><path fill="#F0F3FA" d="M0 0h56v56H0z"/><path d="M51.5 27c.19 0 .33.02.5.07v1.37a2.86 2.86 0 0 0-.67-.07c-.43 0-.58.22-.83.54V32H49v-5h1.32l.18.76c.3-.42.45-.76 1-.76ZM48 29.2c0 .3-.01.46-.04.63h-3.42c.12.8.66 1.17 1.36 1.17.67 0 1.04-.13 1.43-.4l.62.8c-.47.36-1.24.6-2.3.6-1.6 0-2.65-.76-2.65-2.42 0-1.5 1.02-2.58 2.66-2.58 1.46 0 2.34.77 2.34 2.2ZM45.62 28c-.55 0-.94.38-1.07 1h2.03c-.05-.6-.4-1-.96-1ZM41.73 27H43l-1.48 5H40.3l-.8-3.22-.84 3.22h-1.24L36 27h1.4l.69 3.36.84-3.36h1.22l.8 3.36.78-3.36ZM27.9 27c1.18 0 2.1.9 2.1 2.44 0 1.8-1.06 2.56-2.38 2.56a2 2 0 0 1-1.12-.29V34H25v-7h1.26l.24.73c.31-.43.65-.73 1.4-.73Zm.6 2.6c.01-.93-.4-1.6-1.04-1.6-.45 0-.8.24-.96.73v1.98c.26.2.5.29.84.29.74 0 1.16-.64 1.16-1.4ZM23.18 32c-.75 0-1.18-.37-1.18-1.12V25h1.5v5.51c0 .18.03.27.2.27.1 0 .25-.01.3-.03v1.09c-.23.1-.45.16-.82.16ZM19.5 27H21v5h-1.32l-.06-.68c-.37.36-.91.68-1.74.68-1.27 0-1.88-.62-1.88-1.87V27h1.5v3.08c0 .56.28.92.93.92.47 0 .81-.18 1.07-.38V27ZM12.47 32c-1.5 0-2.47-.96-2.47-2.5 0-1.52 1-2.5 2.52-2.5 1.5 0 2.48.98 2.48 2.5 0 1.54-.98 2.5-2.53 2.5Zm.06-1c.67 0 .97-.64.97-1.5s-.29-1.5-1.02-1.5c-.67 0-.98.66-.98 1.5 0 .85.3 1.5 1.03 1.5ZM33.47 32c-1.5 0-2.47-.96-2.47-2.5 0-1.52 1-2.5 2.52-2.5 1.5 0 2.48.98 2.48 2.5 0 1.54-.98 2.5-2.53 2.5Zm.06-1c.67 0 .97-.64.97-1.5s-.29-1.5-1.02-1.5c-.67 0-.98.66-.98 1.5 0 .85.3 1.5 1.03 1.5ZM6.35 32c-.95 0-1.69-.16-2.35-.62l.6-1.13c.47.37 1.02.52 1.72.52.76 0 1.26-.23 1.26-.78 0-.46-.27-.67-1.4-.96-1.15-.29-1.97-.75-1.97-2 0-1.27.95-2.03 2.46-2.03.8 0 1.51.14 2.16.57l-.54 1.09a2.8 2.8 0 0 0-1.56-.43c-.75 0-1.1.23-1.1.64 0 .43.31.6 1.4.89 1.33.37 1.97.9 1.97 2.07C9 31.25 7.94 32 6.35 32Z" fill="#0E57F0"/></svg>