<!-- by TradingView --><svg width="56" height="56" viewBox="0 0 56 56" xmlns="http://www.w3.org/2000/svg"><path fill="#F0F3FA" d="M0 0h56v56H0z"/><path d="M40.92 16.52c.1-.23.1-.49.02-.77-.24-.77-.97-.76-1.73-.75h-.15l-19.68.01c-.8 0-1.34.53-1.37 1.37-.05 1.3.04 2.38.71 3.44.95 1.47 2.4 2.2 4.4 2.18 3.68-.03 8.35-.03 14-.01 1.14 0 1.7-.54 2.14-1.6.28-.69.84-1.98 1.66-3.87Zm-5.04 12a1.9 1.9 0 0 0-.72-2.24c-.28-.18-.84-.27-1.67-.27h-6.83c-2.08-.05-3.49.05-4.21.32a6.6 6.6 0 0 0-3.34 2.62 7.34 7.34 0 0 0-1.1 4.33v6.06c-.01 1.51.3 2.61 1.87 2.65h3.73c1.76 0 2.4-.76 2.39-2.6v-3.62c-.01-1.5.22-2.76 1.75-2.77h4.53c1.17.02 1.73.02 2.2-1.1l1.4-3.38Z" fill="#013567"/></svg>