<!-- by TradingView --><svg width="56" height="56" viewBox="0 0 56 56" xmlns="http://www.w3.org/2000/svg"><path fill="#151C36" d="M0 0h56v56H0z"/><path d="M45 21.31v2.87c0 .16.13.3.29.3a.4.4 0 0 0 .15-.05L47.88 23c.13-.09.2-.27.1-.4a.27.27 0 0 0-.1-.11l-2.46-1.44c-.13-.09-.31-.02-.4.11-.02.07-.02.12-.02.16Zm4 0v2.87c0 .24.22.35.41.25L51.85 23c.13-.09.2-.27.11-.4a.27.27 0 0 0-.11-.11l-2.46-1.44c-.17-.11-.5.06-.39.27Zm-2 3.52v2.88c0 .16.13.29.28.29a.4.4 0 0 0 .16-.04l2.43-1.44c.14-.1.2-.27.11-.4a.27.27 0 0 0-.1-.12l-2.44-1.43c-.13-.1-.31-.05-.4.09-.04.06-.06.1-.04.17ZM44.67 30.75a.26.26 0 0 0-.3-.17h-.02c-.23.1-.46.17-.7.17-.42 0-.65-.22-.65-.88v-2.61c0-.15.07-.26.21-.26h1.58c.13 0 .21-.07.21-.22v-.57c0-.14-.08-.21-.21-.21H43.2c-.14 0-.21-.12-.21-.26v-1.5c0-.15-.1-.24-.25-.24h-.86c-.14 0-.23.1-.23.24v1.5c0 .14-.09.26-.22.26h-.25c-.14 0-.19.07-.19.21v.57c0 .15.05.22.19.22h.25c.13 0 .22.11.22.26v2.87c0 1.33.8 1.87 1.73 1.87.48 0 .93-.14 1.34-.38.12-.05.16-.19.12-.3l-.18-.57ZM38.33 25.07a.79.79 0 0 1 .7-.87h.14c.23 0 .46.07.64.17.11.07.25 0 .32-.12l.3-.61c.04-.12.01-.24-.1-.31-.36-.21-.8-.33-1.23-.33-1.07 0-2.1.7-2.1 2.2v.57c0 .14-.1.23-.24.23h-.52c-.14 0-.24.1-.24.24v.59c0 .14.1.17.24.17h.52c.13 0 .24.16.24.3v4.46c0 .15.08.24.21.24h.87c.13 0 .23-.1.23-.24v-4.44c0-.14.09-.32.22-.32h1.16c.14 0 .31-.07.31-.21v-.5c0-.15-.17-.29-.3-.29h-1.17c-.13 0-.22-.05-.22-.19l.02-.74ZM35.93 29.01c0-1.79-1.26-3.01-3.06-3.01s-3.08 1.2-3.08 2.99c0 1.79 1.26 3.01 3.08 3.01 1.83 0 3.06-1.22 3.06-2.99ZM31.07 29c0-1.14.74-1.92 1.8-1.92 1.07 0 1.8.78 1.8 1.92 0 1.13-.75 1.92-1.8 1.92-1.04 0-1.8-.76-1.8-1.92ZM19 31.76c0 .14.1.24.23.24h.86c.14 0 .23-.1.23-.24v-8.52c0-.14-.1-.24-.23-.24h-.86c-.14 0-.23.1-.23.24v8.52ZM22 31.76c0 .14.1.24.23.24h.86c.14 0 .23-.1.23-.24v-8.52c0-.14-.1-.24-.23-.24h-.86c-.14 0-.23.1-.23.24v8.52ZM17.41 23.8c0-.45-.34-.8-.77-.8a.78.78 0 0 0-.78.8c0 .45.34.8.78.8.43 0 .77-.35.77-.8ZM16 31.76c0 .15.07.24.2.24h.87c.13 0 .23-.1.23-.23v-5.55c0-.14-.1-.22-.23-.22h-.87c-.13 0-.2.08-.2.22v5.55ZM11.34 30.29c0-.08.03-.12.07-.17l.77-.86c.1-.1.23-.1.32-.02l.05.05 1.6 2.6c.04.06.1.11.17.11h1.05c.14 0 .23-.1.23-.24 0-.05-.03-.1-.05-.14l-2.14-3.43c-.07-.1-.04-.21.03-.3l1.54-1.47c.1-.1.1-.24 0-.33a.27.27 0 0 0-.18-.09h-1.06c-.07 0-.12.04-.16.09l-1.94 1.8a.17.17 0 0 1-.25 0 .19.19 0 0 1-.05-.11v-4.54c0-.14-.09-.24-.23-.24h-.88c-.14 0-.23.1-.23.24v8.52c0 .14.1.24.23.24h.86c.14 0 .23-.1.23-.24l.02-1.47ZM9.43 26.78l-.25.5c-.08.18-.21.22-.32.15-.47-.23-1-.39-1.52-.4-.5 0-.88.16-.88.58 0 1.08 3.16.5 3.16 2.63 0 1.21-1.07 1.76-2.28 1.76-.81 0-1.6-.24-2.26-.72-.09-.07-.1-.17-.04-.26l.26-.5c.05-.1.18-.15.29-.1l.02.01c.53.35 1.14.57 1.8.57.55 0 .96-.2.96-.63 0-1.22-3.13-.55-3.11-2.65 0-1.2 1.05-1.72 2.2-1.72.67 0 1.33.17 1.9.5.09.06.13.17.07.28ZM28.95 26.78l-.25.5c-.09.18-.22.22-.34.15a3.9 3.9 0 0 0-1.57-.4c-.52 0-.9.17-.9.58 0 1.09 3.27.5 3.27 2.63 0 1.22-1.12 1.76-2.37 1.76-.84 0-1.66-.24-2.34-.72-.1-.06-.12-.17-.05-.26l.28-.5c.04-.1.18-.15.3-.1l.01.01c.55.35 1.19.57 1.87.57.57 0 1-.2 1-.63 0-1.22-3.25-.54-3.23-2.65 0-1.2 1.1-1.72 2.28-1.72.7 0 1.38.17 1.98.5.09.07.13.17.06.28Z" fill="#fff"/></svg>