<!-- by TradingView --><svg width="56" height="56" viewBox="0 0 56 56" xmlns="http://www.w3.org/2000/svg"><path fill="#F0F3FA" d="M0 0h56v56H0z"/><path d="M33.82 31H22.7l-4.54 11H13l13.58-31h2.88c3.82 8.1 7.64 15.85 11.48 24h-5.17c-.63-1.45-1.3-2.51-1.95-4Zm-5.8-13.07L24.37 27h7.59L28 17.93Z" fill="#686868"/><path d="m37.55 42.5-.18.23c.1.13.25.22.4.25a.7.7 0 0 0 .46-.05c.1-.03.2-.11.26-.22a.62.62 0 0 0 .07-.38.57.57 0 0 0-.12-.34.4.4 0 0 0-.3-.15.63.63 0 0 1-.35-.12.28.28 0 0 1 0-.28c.15-.16.3-.1.45-.04l.1.04a.55.55 0 0 1 .06-.06c.05-.05.1-.09.1-.17a.7.7 0 0 0-.29-.18.6.6 0 0 0-.32-.02.44.44 0 0 0-.32.18.64.64 0 0 0-.13.4c0 .32.13.5.43.56.11 0 .23.04.33.12a.3.3 0 0 1-.02.3c-.21.16-.42.05-.63-.07Zm-1.76-1.46v1.37a.33.33 0 0 1-.06.12.27.27 0 0 1-.1.08.22.22 0 0 1-.1.02c-.2 0-.28-.14-.28-.35v-.5c0-.25 0-.5-.02-.75a.39.39 0 0 0-.3.02v1.34c.01.16.07.31.18.42.1.11.23.17.36.17.31.02.6-.18.62-.5.02-.34.02-.67.01-1.01v-.43a.51.51 0 0 0-.3 0Zm-2.14 1.93h-.37l-.3-.72a.18.18 0 0 0-.2-.01c-.04.12-.04.25-.03.38 0 .11 0 .23-.02.34h-.3v-1.94c.27-.02.53-.01.79.03.09.02.17.08.23.16.07.07.11.18.12.29.03.13.01.26-.04.38a.53.53 0 0 1-.23.27l.35.82Zm-.9-1.6c-.02.16-.02.33.01.5h.11c.13.02.26.03.36-.12a.23.23 0 0 0 .04-.13c0-.05-.02-.1-.04-.13-.09-.14-.2-.13-.32-.11h-.16Zm-2.36-.02H30A.45.45 0 0 1 30 41h1.12c.02.1.03.22 0 .33l-.4.03v1.59a.35.35 0 0 1-.33.02v-1.62Zm9.8 1.65h.32v-1.62a.42.42 0 0 1 .2-.03c.08 0 .14 0 .2-.04.03-.1.05-.22-.01-.31h-1.12a.6.6 0 0 0 .01.32c.06.03.12.03.18.03.07 0 .15 0 .23.05V43ZM29.74 39.99h.33l-.31-.86c.1-.05.17-.16.22-.29a.76.76 0 0 0-.11-.68.37.37 0 0 0-.23-.14 2.36 2.36 0 0 0-.68 0v1.95c.1.03.2.03.29-.02v-.7a.19.19 0 0 1 .1-.04c.04 0 .07.01.1.03l.3.75Zm-.47-1.1a1.71 1.71 0 0 1 0-.5l.12-.01c.11-.01.22-.03.3.11.02.04.04.08.04.13s-.02.09-.04.13c-.08.15-.18.14-.28.13h-.14Zm2.3-.1c-.02-.15-.01-.3.02-.44h.63a.57.57 0 0 0 0-.35h-.93v2h.95a.91.91 0 0 0-.03-.37h-.63v-.44a.78.78 0 0 1 .26-.02c.1 0 .2 0 .3-.04v-.1c.01-.06.01-.13-.01-.2-.1-.02-.18-.02-.27-.02a.6.6 0 0 1-.29-.03Zm2.02.23.26-.98a.27.27 0 0 1 .25 0l.53 1.92a.5.5 0 0 1-.27.03c-.04-.05-.06-.11-.07-.18l-.06-.15h-.5l-.1.3c-.1.05-.2.05-.3.01l.26-.95Zm.21.28c.11.03.23.03.35 0-.04-.23-.1-.44-.17-.65l-.18.65Zm6.54-.55-.27-.74h-.11c-.07 0-.13 0-.19.06l.14.36c.2.49.4.96.27 1.57h.22l.06-.01.06-.01c-.12-.58.07-1.05.26-1.53l.16-.41a.52.52 0 0 0-.31 0l-.12.3c-.04.15-.09.29-.17.41ZM38.6 38a.7.7 0 0 1 0 .34l-.35.02v1.58a.29.29 0 0 1-.31.02v-1.6h-.35a.48.48 0 0 1-.02-.35h1.03Zm-2.38 0h-.28v2h.94a.68.68 0 0 0-.02-.35h-.64V38Z" fill="#97CA4A"/><path d="M41 37v.5H22.05c-.11-.16-.07-.31-.03-.5H41Z" fill="#686868"/></svg>