<!-- by TradingView --><svg width="56" height="56" viewBox="0 0 56 56" xmlns="http://www.w3.org/2000/svg"><path fill="#F0F3FA" d="M0 0h56v56H0z"/><path d="M31.92 20s1.15-2.42-3.3-6c-4.14-3.41.98-7 .98-7s-.41 2.96 1.99 5.74c2.97 3.4.33 7.26.33 7.26Z" fill="#BDCC31"/><path d="M34.49 21.07c3.88.18 7.12 3.03 8.5 6.93-2.4-3.46-5.73-5.6-8.5-6.93ZM28 45a6.15 6.15 0 0 1-4.1-2.78 3.8 3.8 0 0 0-4.07-1.68c-2.77.53-4.92-1.57-6.3-4.58A60.45 60.45 0 0 1 28 45Z" fill="#D92231"/><path d="M31.63 21.52c.55-.18 1.1-.27 1.66-.36 5.54 3.55 9.51 7.45 10.71 10.46 0 .44 0 .94-.1 1.38C39.85 24.4 23 19 23 19c9.6 3.9 20.45 11.5 20.08 16.65v.08c0 .1-.1.18-.1.27C39.75 26.96 22 21 22 21c9.42 3.9 19.88 11.6 19.7 16.73-.1.1-.1.18-.2.27C38.1 28.96 20 24 20 24c9.05 3.72 19.63 10.42 20.37 15.56-.1.17-.28.26-.37.44-3.88-8.68-22-14-22-14 8.5 3.54 18.9 10.5 20.65 15.56-.19.17-.37.35-.65.44-4.62-8.15-21-14-21-14 7.94 3.28 17.25 9.6 19.83 14.56-.28.17-.55.35-.83.44-5.36-7.53-20-12-20-12 7.3 3.01 15.07 8.15 18.49 12.85-.37.18-.74.26-1.02.44C27.37 37.47 15 33 15 33a52.54 52.54 0 0 1 17 11.73c-.55.1-1.11.18-1.67.27-5.54-4.87-14.31-8.24-16.9-9.13-1.75-3.9-2.03-9.3-.09-13.29 3.88-7.89 14.96-9.22 18.29-1.06Z" fill="#DB2233"/></svg>