<!-- by TradingView --><svg width="56" height="56" viewBox="0 0 56 56" xmlns="http://www.w3.org/2000/svg"><path fill="#181B1E" d="M0 0h56v56H0z"/><path d="M12 23h7v1h-7v-1ZM14.6 25 12 31h1.86l.35-1h2.58l.35 1H19l-2.58-6H14.6Zm1.8 4h-1.78l.57-1.65.29-.92.91 2.57ZM32.6 25 30 31h1.86l.35-1h2.58l.35 1H37l-2.58-6H32.6Zm1.8 4h-1.78l.57-1.65.29-.92.91 2.57ZM4 31h1.5v-1.76l1-.96L8.2 31H10l-2.44-3.77L9.82 25H7.9l-2.4 2.45V25H4v6ZM22 31h3c1.9-.02 3-1.1 3-3.05 0-2.28-1.54-2.93-3.5-2.95H22v6Zm2.53-4.5c1.17 0 1.97.28 1.97 1.5 0 1.73-1.23 1.48-2.13 1.5h-.87v-3h1.03ZM40 31h1.54l-.04-3.77c.65 1.28 1.24 2.53 1.97 3.77H45v-6h-1.5l.07 3.85c-.68-1.29-1.31-2.56-2-3.85H40v6ZM47.5 26.5H49V31h1.5v-4.5H52V25h-4.5v1.5Z" fill="#fff"/></svg>