<!-- by TradingView --><svg width="56" height="56" viewBox="0 0 56 56" xmlns="http://www.w3.org/2000/svg"><path fill="#3E4F47" d="M0 0h56v56H0z"/><path fill-rule="evenodd" d="M28 45a17 17 0 1 0 0-34 17 17 0 0 0 0 34Zm0-1a16 16 0 1 0 0-32 16 16 0 0 0 0 32Z" fill="#DDCEAC"/><path d="M22.63 19h-3.32L17 32h3.7l1.77-10h3.23c.54 0 1.3.13 1.3 1.06 0 .94-.76.94-1.33.93l-.3.01h-1.65c-1.22.1-1.68 2.11-1.72 3h3.02c1.73 0 4.98-1.27 4.98-4.52 0-2.6-2.17-3.4-3.25-3.48h-4.12Z" fill="#DDCEAC"/><path d="m25 36 1.5-8.4a5.24 5.24 0 0 0 4.52-4.5l.05-.1h4.43c1.17.08 3.5.88 3.5 3.48 0 2.7-2.43 4.04-4.32 4.41L37 36h-1.83a3 3 0 0 1-2.74-1.78L31 31h-1c.04-.89.44-2.9 1.75-3h2.82c.6 0 1.43 0 1.43-.94 0-.93-.82-1.06-1.4-1.06h-4.13l-1.78 10H25Z" fill="#DDCEAC"/></svg>