<!-- by TradingView --><svg width="56" height="56" viewBox="0 0 56 56" xmlns="http://www.w3.org/2000/svg"><path fill="#F0F3FA" d="M0 0h56v56H0z"/><path d="M18.54 16.9c-6.42 0-11.63 5.2-11.63 11.6 0 6.4 5.2 11.6 11.63 11.6 5.97 0 10.9-4.48 11.56-10.25l.9.1A12.53 12.53 0 0 1 18.54 41C11.62 41 6 35.4 6 28.5S11.62 16 18.54 16c3.37 0 6.43 1.32 8.68 3.48l-.63.65c-2.09-2-4.92-3.23-8.05-3.23Z" fill="#1D5FAB"/><path d="M18 29v-3h.93c.55 0 .91.47.91.98 0 .18-.03.34-.1.49a.78.78 0 0 1-.3.33.95.95 0 0 1-.5.13h-.65v-.37h.6a.6.6 0 0 0 .32-.08.45.45 0 0 0 .18-.2.73.73 0 0 0 .05-.3c0-.1-.02-.2-.05-.29a.43.43 0 0 0-.18-.2.61.61 0 0 0-.32-.07h-.5V29H18ZM20.36 29v-3h.93c.54 0 .9.44.9.95 0 .18-.03.34-.1.47a.72.72 0 0 1-.3.32c-.13.07-.3.11-.5.11h-.7v-.38h.66c.13 0 .24-.02.32-.06.08-.04.14-.1.17-.18a.64.64 0 0 0 .06-.28c0-.1-.02-.2-.06-.28a.4.4 0 0 0-.18-.19.66.66 0 0 0-.31-.06h-.5V29h-.4Zm1.29-1.36L22.3 29h-.45l-.64-1.36h.44ZM25 27.5c0 .3-.04.57-.15.8-.1.22-.24.4-.42.51-.18.12-.38.18-.6.18-.23 0-.43-.06-.61-.18s-.32-.29-.42-.51c-.1-.23-.15-.5-.15-.8 0-.32.05-.58.15-.8.1-.23.24-.4.42-.52s.38-.18.6-.18c.23 0 .43.06.61.18s.32.3.42.52c.1.22.16.48.16.8Zm-.39 0c0-.24-.03-.44-.1-.6a.82.82 0 0 0-.28-.37.68.68 0 0 0-.4-.13.68.68 0 0 0-.4.13.83.83 0 0 0-.29.37c-.07.16-.1.36-.1.6 0 .23.03.43.1.6.07.16.16.28.28.37.12.08.26.12.4.12.16 0 .3-.04.41-.12.12-.09.21-.21.28-.37.07-.17.1-.37.1-.6ZM25.61 29v-3h.88c.2 0 .37.08.5.16.14.09.24.2.3.34.07.14.1.3.1.48s-.03.34-.1.49a.78.78 0 0 1-.3.33.95.95 0 0 1-.5.13h-.59v-.37h.55a.6.6 0 0 0 .31-.08.45.45 0 0 0 .18-.2.73.73 0 0 0 .06-.3c0-.1-.02-.2-.06-.29a.43.43 0 0 0-.18-.2.6.6 0 0 0-.32-.07H26V29h-.39ZM28 29v-3h1.55v.38H28.4v.93h1.07v.37H28.4v.94h1.17V29H28ZM30 29v-3h1.07c.54 0 .9.44.9.95 0 .18-.03.34-.1.47a.72.72 0 0 1-.3.32c-.13.07-.3.11-.5.11h-.83v-.38h.79c.13 0 .23-.02.31-.06.08-.04.14-.1.18-.18a.64.64 0 0 0 .06-.28c0-.1-.02-.2-.06-.28a.4.4 0 0 0-.18-.19.66.66 0 0 0-.32-.06h-.6V29H30Zm1.43-1.36.64 1.36h-.45L31 27.64h.44ZM32.38 26.42V26h2.03v.42h-.82V29h-.4v-2.58h-.81ZM35.4 26v3H35v-3h.4ZM36 29v-3h1.57v.42h-1.16v.89h1.08v.37H36.4v.9h1.18V29H36ZM39.58 26.8a.43.43 0 0 0-.17-.3.6.6 0 0 0-.37-.12c-.1 0-.2.02-.28.06a.44.44 0 0 0-.18.15.4.4 0 0 0-.06.22.35.35 0 0 0 .16.3c.04.04.1.07.15.09l.16.05.26.08c.08.02.17.05.25.09a1 1 0 0 1 .25.15.72.72 0 0 1 .25.58c0 .16-.04.3-.12.44a.8.8 0 0 1-.33.3c-.14.07-.31.11-.52.11-.2 0-.36-.03-.5-.1a.8.8 0 0 1-.34-.3.92.92 0 0 1-.14-.45h.4c0 .1.04.19.09.26a.5.5 0 0 0 .2.15c.1.04.19.05.29.05.11 0 .2-.01.3-.05a.5.5 0 0 0 .2-.17.42.42 0 0 0 .08-.25.33.33 0 0 0-.07-.2.5.5 0 0 0-.18-.15 1.61 1.61 0 0 0-.25-.1l-.3-.08a1.17 1.17 0 0 1-.5-.28.66.66 0 0 1-.19-.5.78.78 0 0 1 .46-.72c.14-.07.3-.11.47-.11.18 0 .33.03.47.1.14.07.24.17.32.29.08.12.12.26.12.41h-.38ZM20.2 21h.8v2.58c0 .85-.51 1.42-1.45 1.42-.93 0-1.55-.57-1.55-1.42V21h.8v2.51c0 .45.3.77.75.77.47 0 .65-.33.65-.77V21ZM21.79 25v-4h1.48c.75 0 1.34.58 1.34 1.32 0 .52-.22.9-.63 1.1-.2.1-.44.15-.73.15h-1v-.67h.87c.15 0 .28-.02.38-.06.1-.04.17-.1.22-.2.05-.08.08-.19.08-.32a.66.66 0 0 0-.08-.32.47.47 0 0 0-.23-.2.9.9 0 0 0-.37-.07h-.54V25h-.8Zm2.02-1.83.8 1.25V25h-.63l-1.02-1.83h.85ZM25.47 25v-4h1.5c.6 0 1.25.5 1.25 1.1 0 .45-.28.75-.68.84v.04c.43.02.83.37.83.94 0 .62-.45 1.08-1.3 1.08h-1.6Zm.8-.68h.64c.22 0 .38-.04.48-.13.1-.09.16-.2.16-.35 0-.1-.03-.2-.08-.29a.52.52 0 0 0-.21-.19.71.71 0 0 0-.33-.07h-.66v1.03Zm0-1.59h.58c.11 0 .2-.02.3-.06.08-.04.14-.1.2-.17a.46.46 0 0 0 .07-.26.43.43 0 0 0-.15-.34.59.59 0 0 0-.4-.13h-.6v.96ZM29.62 25H29v-.58L30.12 21h1.02l1.13 3.42V25h-.64l-.99-3.06h-.02l-1 3.06Zm0-1.58h2V24h-2v-.58ZM36 21v4h-.68l-1.5-2.45h-.03V25H33v-4h.69l1.5 2.55h.03V21H36ZM37.55 25v-4H40v.73h-1.65v.93H40v.68h-1.65v.93H40V25h-2.45ZM42.07 25h-1.33v-4h1.34c1.13 0 1.82.95 1.82 2 0 1.06-.72 2-1.83 2Zm-.54-.76h.5c.24 0 .44-.04.6-.13a.82.82 0 0 0 .36-.4c.08-.19.12-.42.12-.71 0-.3-.04-.53-.12-.71a.81.81 0 0 0-.36-.4 1.24 1.24 0 0 0-.6-.13h-.5v2.48ZM47 22.31a.87.87 0 0 0-.1-.24.72.72 0 0 0-.4-.3.93.93 0 0 0-.28-.04c-.2 0-.36.05-.5.15a.97.97 0 0 0-.34.43c-.09.18-.13.41-.13.69 0 .27.04.5.12.69.08.19.2.33.34.43.15.1.32.15.51.15.38 0 .84-.22.84-.66h-.79V23h1.57v2h-.55l-.09-.29-.14.09c-.24.13-.52.2-.84.2-.35 0-.66-.08-.93-.24-.26-.17-.47-.4-.62-.7-.15-.3-.22-.65-.22-1.06 0-.31.04-.6.13-.84.1-.25.22-.46.38-.63.16-.17.34-.3.55-.4.22-.08.45-.13.7-.13a1.77 1.77 0 0 1 1.08.37 1.45 1.45 0 0 1 .52.94H47ZM48.47 25v-4H51v.73h-1.74v.93H51v.68h-1.74v.93H51V25h-2.53Z" fill="#231F20"/></svg>