<!-- by TradingView --><svg width="56" height="56" viewBox="0 0 56 56" xmlns="http://www.w3.org/2000/svg"><path fill="#F0F3FA" d="M0 0h56v56H0z"/><path d="M15.39 13.06c.42-.19.8.12 1.17.29a33.93 33.93 0 0 1 9.26 6.99c.62.72 1.23 1.47 1.71 2.28.2.29.1.64-.07.9-.35.25-.9.3-1.16-.11-.55-.8-1.1-1.6-1.8-2.3a32.56 32.56 0 0 0-8.42-6.34 41.17 41.17 0 0 0-2.44 9.7c-.32 2.93-.24 6.04 1.17 8.7 1.95 3.98 5.45 7.35 9.8 8.66.73.21.54 1.4-.22 1.4-.82-.1-1.58-.46-2.33-.78a18.51 18.51 0 0 1-9.22-10.07c-.96-2.68-.97-5.59-.65-8.38a42 42 0 0 1 2.64-10.13c.13-.3.21-.68.56-.81Zm23.3.1c.3-.22.78-.23 1.03.08.44.49.8 1.05 1.14 1.6a23.14 23.14 0 0 1 3 14.24 15.9 15.9 0 0 1-8.45 12.77c-.34.18-.76.42-1.14.21-.52-.24-.51-1.09.03-1.3a14.14 14.14 0 0 0 5.67-4.94 15.24 15.24 0 0 0 2.47-7.38c.39-4.77-.74-9.7-3.44-13.71a33.94 33.94 0 0 0-6.67 5.97c-1.28 1.43-2.41 3-3.36 4.67a17.6 17.6 0 0 0-2.2 9.44 22.9 22.9 0 0 0 1.35 6.82c.28.8.6 1.58.92 2.35.23.44-.13 1.02-.63 1.01-.36.06-.67-.22-.78-.54a33.5 33.5 0 0 1-1.28-3.44 22.33 22.33 0 0 1-.76-10.57A19.54 19.54 0 0 1 28 24.1a33.35 33.35 0 0 1 4.57-5.9 33.72 33.72 0 0 1 6.12-5.03Z" fill="#58585A"/><path d="M32.33 20.7a28.25 28.25 0 0 1 6.36-3.2 20.95 20.95 0 0 1 2.6 7.62c.36 2.72.07 5.56-1.1 8.07a14.81 14.81 0 0 1-4.68 5.48c-1.91 1.4-4.05 2.5-6.3 3.24 1.17-2.7 1.99-5.6 1.98-8.56.06-2.8-.64-5.64-2.22-7.98a27.25 27.25 0 0 1 3.36-4.67Z" fill="#A7A8D4"/><path d="M15.63 28.29c.08-3.44.9-6.83 2.15-10.04 2.38.58 4.66 1.56 6.72 2.87.7.68 1.25 1.49 1.8 2.29.25.4.8.36 1.16.12.19.18.37.37.54.57a19.54 19.54 0 0 0-2.4 6.34c-.68 3.52-.28 7.16.75 10.57-2.85-1.12-5.63-2.62-7.78-4.82-.94-1-1.76-2.14-2.23-3.42a13.1 13.1 0 0 1-.7-4.48Z" fill="#6FCACB"/><path d="M26.76 34.8c.08.75.19 1.49.42 2.2.5 1.68 1.16 3.31 1.87 4.91l-.93-.28a22.9 22.9 0 0 1-1.36-6.82Z" fill="#6FCACB"/><path d="M26.76 34.8a17.6 17.6 0 0 1 2.21-9.43 13.85 13.85 0 0 1 2.22 7.97c0 2.96-.81 5.86-1.98 8.57a.14.14 0 0 1-.16 0A40.15 40.15 0 0 1 27.18 37c-.23-.71-.34-1.45-.42-2.2Z" fill="#5594AE"/></svg>