<!-- by TradingView --><svg width="56" height="56" viewBox="0 0 56 56" xmlns="http://www.w3.org/2000/svg"><path fill="#E21A23" d="M0 0h56v56H0z"/><path d="m19 24-1 1.5c-1-.5-1.5-.5-2-.5s-3 0-3 3 2.5 3 3 3c.58 0 .83-.33 1-.5v-1h-1.5V28H19v4c-.5.33-1.8 1-3 1-2 0-5-1-5-5s3.5-5 5-5 2.5.67 3 1ZM23 26v1.3a4.03 4.03 0 0 1 3-1.3l-.5 2c-.63 0-1.8.17-2.5.78V33h-2v-7h2ZM30 25c1.5 0 3 .5 3 3v5h-2v-.32c-.3.2-.65.32-1 .32-.5 0-3 0-3-2.5 0-2 2-2.5 3-2.5h1c0-.33-.2-1-1-1s-1.67.33-2 .5L27 26c.5-.33 1.8-1 3-1Zm0 4.5c-.33 0-1 .2-1 1s.5 1 1 1c.36 0 .7-.2 1-.46V29.5h-1ZM36 25h-2l2 8h2l1-4 1 4h2l2-8h-2l-1 5-1-5h-2l-1 5-1-5ZM13 21h-2l1.5-9h2l2.5 6.5 2.5-6.5h2l1.5 9h-2l-1-6-2 6h-2l-2-6-1 6ZM27.51 14c.98 0 1.85.4 2.49 1.03l-1.42 1.4a1.5 1.5 0 0 0-2.57 1.07 1.5 1.5 0 0 0 2.57 1.06L30 19.97a3.51 3.51 0 0 1-6-2.47 3.5 3.5 0 0 1 3.51-3.5ZM30 35h2v9h-2zM26 35h2v9h-2zM22 38h2v6h-2zM14 38.5h4V35h2v9h-2v-3.5h-4V44h-2v-9h2v3.5Z" fill="#fff"/><circle cx="23" cy="36" r="1" fill="#fff"/></svg>