<!-- by TradingView --><svg width="56" height="56" viewBox="0 0 56 56" xmlns="http://www.w3.org/2000/svg"><path fill="#F0F3FA" d="M0 0h56v56H0z"/><path d="M5 25H4v7h1v-5.5L9 32h1v-7H9v5.5L5 25ZM41 25h-1v7h1v-5.5l4 5.5h1v-7h-1v5.5L41 25Z" fill="#040707"/><path d="M52 25h-5v1h2v6h1v-6h2v-1Z"/><path d="M16 25h-5v7h5v-1h-4v-2h3v-1h-3v-2h4v-1ZM24 25h3c1.14 0 2 1.03 2 2.1s-.86 1.9-2 1.9h-2v3h-1v-7Zm1 3h2c.5 0 1-.38 1-1 0-.63-.5-1-1-1h-2v2ZM38 25h1v7h-1z" fill="#040707"/><path fill-rule="evenodd" d="M33.5 31a2.5 2.5 0 1 0 0-5 2.5 2.5 0 0 0 0 5Zm0 1a3.5 3.5 0 1 0 0-7 3.5 3.5 0 0 0 0 7Z" fill="#040707"/><path d="M23 25h-1.25l-2.24 3.5L21.8 32H23l-2.27-3.5L23 25Z" fill="#646060"/><path d="M17.13 25h1.25l2.35 3.47L18.2 32H17l2.5-3.5-2.37-3.5Z"/></svg>