<!-- by TradingView --><svg width="56" height="56" viewBox="0 0 56 56" xmlns="http://www.w3.org/2000/svg"><path fill="#F0F3FA" d="M0 0h56v56H0z"/><path d="M6.18 25c.03 0 .04.02.04.05v4.7c0 .03.01.04.03.04h2.72c.02 0 .03.01.03.03v1.13c0 .03-.02.05-.05.05H5v-6h1.18Zm5 0s.02.01.02.03v5.95l-.02.02h-1.16l-.02-.02v-5.95c0-.02.01-.03.02-.03h1.16Zm4.02 0a3 3 0 0 1 .05 6h-.54a3.11 3.11 0 0 1-1.8-.85 3.05 3.05 0 0 1-.5-3.66A3 3 0 0 1 14.78 25h.42Zm4.94.01 2.6 3.63h.02c.01 0 .02 0 .02-.02v-3.6c0-.01.01-.02.03-.02h1.16c.02 0 .03 0 .03.03v5.94c0 .02 0 .03-.03.03h-1l-.03-.01-2.67-3.75h-.03c-.01 0-.02 0-.02.02v3.71c0 .02 0 .03-.03.03h-1.16c-.02 0-.03-.01-.03-.03v-5.94c0-.02 0-.03.03-.03h1.1l.01.01Zm7.37-.01c.6.06 1.17.2 1.72.43.03.01.05.04.05.07v1.12c0 .02-.01.03-.04.02a4.45 4.45 0 0 0-1.75-.56c-.27-.02-.5 0-.72.08-.28.09-.43.25-.44.48 0 .13.05.25.18.37.1.1.22.17.36.21l.4.14c.64.2 1.1.39 1.37.55.45.27.72.61.82 1.03.1.44.03.84-.2 1.19-.22.32-.55.56-.98.7-.19.07-.43.12-.73.17h-.77a5.87 5.87 0 0 1-1.57-.42.07.07 0 0 1-.05-.07v-1.13a4.78 4.78 0 0 0 1.35.48c.54.12 1 .09 1.37-.08.09-.04.17-.12.25-.24a.19.19 0 0 0 .03-.09c.03-.2-.06-.38-.25-.52-.12-.09-.31-.18-.57-.26l-.83-.28c-1.03-.37-1.53-.95-1.5-1.74 0-.43.17-.79.5-1.08.3-.27.67-.43 1.1-.5l.45-.07h.45Zm5.85 0c1.04.1 1.84.56 2.41 1.4.02.03.02.05-.01.07l-.93.52c-.02.01-.04.01-.06-.01a1.94 1.94 0 0 0-1.75-.84 1.87 1.87 0 0 0-1.78 1.53c-.07.35-.04.67.08.97.3.75.86 1.16 1.67 1.23.4.04.76-.03 1.07-.2.34-.17.56-.44.67-.8 0-.03 0-.05-.04-.05h-1.6c-.02 0-.04-.02-.04-.05v-1.02c0-.03.02-.04.05-.04h2.85c.03 0 .04.01.04.04v.78c-.08.7-.34 1.26-.8 1.7-.44.41-1.02.67-1.74.77h-.65c-.3-.05-.5-.08-.59-.11a2.96 2.96 0 0 1-1.9-4.17A3.12 3.12 0 0 1 32.93 25h.42Zm6.21 0c.02 0 .03.01.04.03l2.38 5.92c.02.03 0 .05-.03.05h-1.18c-.02 0-.04-.01-.06-.04l-.44-1.1c-.01-.04-.04-.06-.07-.06a151.09 151.09 0 0 0-2.42 0c-.03 0-.05.02-.07.05l-.45 1.1c0 .03-.03.05-.05.05h-1.18c-.04 0-.05-.02-.03-.06l2.39-5.91c0-.02.02-.03.04-.03a78.92 78.92 0 0 1 1.13 0Zm6.4 0c.02 0 .03 0 .03.03v1.13c0 .03-.02.04-.04.04h-1.72c-.03 0-.04.02-.04.05v4.7c0 .02-.02.04-.05.05a13.66 13.66 0 0 1-1.1 0c-.04 0-.05-.03-.05-.06v-4.69c0-.03-.02-.04-.04-.05h-1.71c-.03 0-.04-.01-.04-.04v-1.13c0-.02 0-.03.02-.03a440.56 440.56 0 0 0 4.74 0Zm4.94 0c.03 0 .04.01.03.04l-.37 1.1c0 .02-.01.03-.02.03h-2.38c-.02 0-.02 0-.02.03v1.17c0 .01 0 .02.02.02h2.2c.01 0 .02.01.02.03v1.1c0 .02 0 .03-.02.03h-2.2c-.02 0-.03.01-.03.03v1.21c0 .02.01.03.03.03h2.38c.01 0 .02 0 .03.02l.42 1.12c0 .03 0 .04-.03.04h-3.95c-.01 0-.02-.01-.02-.03v-5.94c0-.02 0-.03.02-.03h3.9Zm-35.74 1.18c-1-.09-1.88.66-1.97 1.66-.1 1.01.64 1.9 1.63 2 1 .08 1.88-.66 1.97-1.67.1-1-.64-1.9-1.64-1.99Zm23.82.39-.03.01-.8 2.1c-.02.01 0 .03.01.03h1.63c.03 0 .04-.02.03-.04L39 26.58l-.02-.01Z"/></svg>