<!-- by TradingView --><svg width="56" height="56" viewBox="0 0 56 56" xmlns="http://www.w3.org/2000/svg"><path fill="#016FD1" d="M0 0h56v56H0z"/><path d="M35 28v4h-1.5v-.72a3.2 3.2 0 0 1-2 .72c-1.93 0-3.5-1.8-3.5-4s1.57-4 3.5-4c1.63 0 3 1.27 3.39 3h-2c-.18-.92-.65-1.57-1.39-1.57-1 0-1.5 1.18-1.5 2.63s.5 2.63 1.5 2.63c.63 0 1.07-.48 1.3-1.19H32V28h3v-.02.02Z" fill="#FEFEFF"/><path fill-rule="evenodd" d="M36 24h3.5a2 2 0 0 1 .86 3.8 2.13 2.13 0 0 1-.48 4.2H36v-8Zm1.5 1.5H39a1 1 0 1 1 0 2h-1.5v-2Zm0 3h2a1 1 0 1 1 0 2h-2v-2Z" fill="#FEFEFF"/><path d="M48 24h-6v1.5h2V32h2v-6.5h2V24ZM18 23v5h2l-2-5ZM23 23v5h-2l2-5ZM25 0h1v57h-1zM10.72 20H12l-3.72 8H7l3.72-8ZM14.19 20H13l3 7v-2.44L14.19 20Z" fill="#FEFEFF"/><path fill="#FEFEFF" d="M11 20h3v1h-3zM15 20h4v1h-4zM22 20h3v1h-3zM8 27h17v1H8zM12.5 22l1.18 3h-2.36l1.18-3ZM19 31.5 16 34v-5l3 2.5ZM26 36l-4-4.5 4-4.5v1.96l-2.56 2.54L26 34.04V36ZM20 31l-2.5-3h5L20 31ZM17.45 36 20 32.5l2.55 3.5h-1.52L20 34.5 18.97 36h-1.52Z"/><path d="m11.04 26-.6 1.5h4.2l-.6-1.5h-3ZM15 20h1v5l-1-.65V20ZM19.75 20H18.5l2 5 2-5h-1.25l-.75 1.91-.75-1.91ZM10 28h1v8h-1zM19 35l-1.01 1H11v-1h8ZM25 35v1h-2.95L21 35h4ZM13 30h4v1h-4zM13 32h4v1h-4z" fill="#FEFEFF"/></svg>