<!-- by TradingView --><svg xmlns="http://www.w3.org/2000/svg" width="56" height="56" viewBox="0 0 56 56"><path d="M56 0H0v56h56V0Z" fill="#F0F3FA"/><path d="M41.45 19.23a15.46 15.46 0 0 0-7.1-6 11.9 11.9 0 0 0-3.73-.73A5.66 5.66 0 0 0 25 18.18a5.2 5.2 0 0 0 1.38 3.74c.9 1.07 2.16 2.17 3.8 3.43C33.74 28.07 37 31.25 37 36c0 1.72-.26 3.5-.9 4.78 0 0-.28.5-.1.65.09.08.28.13.62-.07 1.8-1.16 2.73-1.95 4.38-4.36a16.76 16.76 0 0 0 3-9c.05-3.15-.84-6.12-2.55-8.77Z" fill="#F4732A"/><path d="m29.46 30.57-2.52-2.02c-4.65-3.3-8.63-8.23-6.03-14.06 0 0 .38-.76-.44-.39a16.01 16.01 0 0 0-5.97 5.43 15.37 15.37 0 0 0 .28 17.22c.8 1.08 1.78 2.04 2.9 2.82h-.01c5.57 3.97 10.35 1.88 10.35 1.88a6.47 6.47 0 0 0 2.9-2.34 6.17 6.17 0 0 0 1.08-3.5 6.16 6.16 0 0 0-2.54-5.04Z" fill="#092540"/></svg>