<!-- by TradingView --><svg width="56" height="56" viewBox="0 0 56 56" xmlns="http://www.w3.org/2000/svg"><path fill="#F0F3FA" d="M0 0h56v56H0z"/><path d="M22.23 13H24l-2.58 8h-1.88L17 13h1.77c.57 1.95 0 .07 1.77 6 1.7-6 1.14-4.11 1.7-6ZM32 17c0 2.2-1.13 4-3.5 4-2.36 0-3.5-1.8-3.5-4 0-2.24 1.15-4 3.54-4 2.4 0 3.46 1.79 3.46 4Zm-5.5 0c0 1.2.58 2.67 2.04 2.67 1.47 0 1.96-1.46 1.96-2.67s-.53-2.67-2-2.67-2 1.45-2 2.67ZM36.74 14.33c-1.43 0-2.24 1.44-2.24 2.67 0 1.28.68 2.63 2.17 2.63.64 0 1.24-.14 2.01-.42v1.4c-.68.28-1.42.39-2.15.39-2.38 0-3.53-1.77-3.53-4s1.39-4 3.7-4c.81 0 1.56.23 2.3.53l-.53 1.33a4.18 4.18 0 0 0-1.73-.53ZM15 31h-5v-8h5v1.5h-3.5V26H15v1.43h-3.5v2.07H15V31ZM19.5 31v-3.47c0-.54-.23-1.28-.92-1.28-.99 0-1.08 1.24-1.08 1.98V31H16v-6h1.2l.2.87h.11c.28-.6 1-.87 1.61-.87 1.28 0 1.88.96 1.88 2.15V31h-1.5ZM27.5 36v3.47c0 .54.23 1.28.92 1.28.99 0 1.08-1.24 1.08-1.98V36H31v6h-1.2l-.2-.87h-.11c-.28.6-1 .87-1.61.87-1.28 0-1.88-.96-1.88-2.15V36h1.5ZM24.57 26c-.67 0-1 .73-1 1.32h1.98c0-.58-.33-1.32-.98-1.32Zm.2 5C23.03 31 22 29.8 22 28.07c0-1.57.85-3.07 2.57-3.07C26.1 25 27 26.14 27 27.63v.78h-3.42c0 .8.49 1.43 1.31 1.43a3.9 3.9 0 0 0 1.81-.48v1.23a4.1 4.1 0 0 1-1.94.41ZM32 25v1.57c-.45 0-.81-.09-1.3 0-.92.23-1.2.74-1.2 1.4V31H28v-6h1.04l.27.98h.08c.3-.55 1.11-.98 2.61-.98ZM25 36v1.57c-.45 0-.81-.09-1.3 0-.92.23-1.2.74-1.2 1.4V42H21v-6h1.04l.27.98h.08c.3-.55 1.11-.98 2.61-.98ZM39 25v.87l-.93.26c.16.2.19.5.19.74 0 .3-.04.55-.15.78-.42.84-1.45 1.1-2.33 1.1-.18 0-.35-.04-.52-.04-.13.11-.26.2-.26.39 0 .33.61.32.85.32h1c.3 0 .6.03.82.1.7.17 1.26.73 1.26 1.45 0 1.7-2.06 2.03-3.37 2.03-1.01 0-2.56-.19-2.56-1.52 0-.76.73-1.2 1.4-1.32-.07-.03-.14-.06-.21-.13-.2-.17-.45-.38-.45-.68 0-.49.4-.68.78-.9a1.7 1.7 0 0 1-1.08-1.58c0-.29.04-.55.15-.8.42-.85 1.35-1.07 2.22-1.07H39Zm-4.52 6.32c0 .53.8.68 1.19.68.5 0 1.77-.13 1.77-.87 0-.55-.72-.52-1.1-.52h-.78c-.42 0-1.08.2-1.08.71Zm.52-4.48c0 .49.24.93.78.93.55 0 .78-.43.78-.93s-.23-.97-.78-.97c-.52.03-.78.32-.78.97ZM40 25h1.5c.62 1.94 1.45 4 1.5 4 1.5-4 1.1-2.7 1.5-4H46l-2.38 6.27A2.45 2.45 0 0 1 41.24 33c-.28 0-.58-.02-.85-.1v-1.2c.16.07.46.06.64.06.73 0 1.02-.59 1.24-1.2L40 25ZM17.5 42H16v-6.5h-2V34h5.5v1.5h-2V42ZM37 40.21c0 1.25-1.12 1.79-2.26 1.79-.6 0-1.2-.09-1.74-.37v-1.28l.42.2c.39.16.87.27 1.29.27.31 0 .78-.14.79-.47.02-.54-.76-.7-1.11-.91-.8-.36-1.39-.9-1.39-1.82 0-.27.06-.5.16-.71.48-1 1.91-1.02 2.84-.8.29.06.61.2.9.36l-.45 1.11a4.02 4.02 0 0 0-.7-.3c-.23-.07-.46-.13-.69-.13-.28 0-.56.08-.56.42 0 .44.61.6.92.76.8.35 1.58.93 1.58 1.88ZM41.1 40.76c.32 0 .61-.1.9-.2v1.17c-.42.2-.82.27-1.29.27-1.18 0-1.71-.69-1.71-1.88V37h-1v-.64l1-.36.6-1h.9v1H42v1h-1.5v3.1c0 .35.22.66.6.66Z" fill="#4FA609"/></svg>