<!-- by TradingView --><svg width="56" height="56" viewBox="0 0 56 56" xmlns="http://www.w3.org/2000/svg"><path fill="#F0F3FA" d="M0 0h56v56H0z"/><path fill="#0B2E82" d="M16 9h24v32H16z"/><path fill="#F9EB30" d="M17 10h22v22H17z"/><path fill="#108F34" d="M18 11h20v20H18z"/><path d="M31.71 20.8A3.56 3.56 0 0 0 28.5 19c-1.45 0-2.7.76-3.23 1.84L18 17.93l7.08.85-6.03-6.4 7.74 5.35-.33-6.73 2.23 6.34L33.28 11l-2.62 6.53 7.14-3.72-6.1 5.36 6.3-.4-6.29 2.04Z" fill="url(#amnc3ay0k)"/><path d="m32.27 22.87-.58-.24a1.6 1.6 0 0 0-.3-.4c-.1-.8-.9-1.7-1.83-1.7-.94 0-1.74.92-1.83 1.7-.1.1-.18.2-.25.32-.49.2-.97.43-1.5.54a.88.88 0 0 1-.11.02c-.32 0-.84-.09-1.53-.26-.67-.17-1.37-.39-2.02-.58l-.03-.01-1.08-.33a7.97 7.97 0 0 0-.47-.11 3.09 3.09 0 0 0-3.03.99c-.04.11-.12.36-.07.66.1.6.68 1.06 1.35 1.06 1.55 0 3.69 1.12 4.84 1.9.57.4 1.4.91 2.14 1.35-.06.19-.1.4-.1.63 0 .97.73 1.64 1.35 2 .67.37 1.5.59 2.34.59 2.35 0 3.69-1.2 3.69-2.4 0-.32-.12-.63-.27-.92l.16-.17c.64-.01 1.21-.38 1.54-.87.5-.1 1.01-.26 1.47-.45.92-.38 1.85-1.04 1.85-2.04 0-.76-.44-1.3-.92-1.6a2.79 2.79 0 0 0-1.3-.4H34.3a3.39 3.39 0 0 0-2.04.72Z" fill="#F9EB30"/><path d="M29.2 22.7c0 .15.12.26.27.34-.4.06-.7.25-.7.48 0 .05 0 .1.03.14-.24.08-.5.18-.75.29-.73.28-1.51.59-2.01.59-1.01 0-2.7-.5-4-.9h-.01c-.81-.24-1.47-.43-1.72-.43a4 4 0 0 0-1.3.25c-.02.06-.03.2.08.2 1.29 0 4.51 1.32 5.66 2.09.92.6 2.58 1.56 3.3 1.96a.88.88 0 0 0-.72.9c0 .76 1.22 1.39 2.43 1.39 1.94 0 2.44-.89 2.44-1.2 0-.32-.5-1.02-.72-1.28.75-.15 1.17-.82 1.3-1.14.06.06.28.2.57.2.35 0 .71-.52.57-.7 1.15-.13 3.08-.7 3.08-1.47 0-.6-.67-.8-1-.82h-1.44c-.8 0-1.52.63-1.79.95-.5-.22-1.36-.58-2.08-.82a.3.3 0 0 0 .08-.2c0-.23-.3-.42-.71-.48.14-.08.28-.2.28-.34 0-.32-.5-.7-.58-.7-.07 0-.57.38-.57.7Zm4.07 2.8c.24-.43.9-1.28 1.65-1.28.93 0 1.22.13 1.22.26 0 .12-2.44 1.14-2.87 1.01Z" fill="#0B2E82"/><path d="M23.96 24.93A12.09 12.09 0 0 0 20 23.5c0-.08.12-.21.6-.15.47.06 3.13 1.09 4.4 1.6-.22.04-.75.11-1.04 0ZM29.99 29c-.8 0-1.66-.51-1.99-.77l3.58-.23c-.2.33-.8 1-1.6 1ZM30.15 30c-.95 0-1.83-.48-2.15-.73.4.12 1.36.37 2.07.37.72 0 1.58-.43 1.93-.64-.22.33-.9 1-1.85 1ZM29.9 28c-.62 0-1.26-.19-1.5-.28 1.03.06 2.25-.02 2.73-.07-.15.12-.6.35-1.22.35ZM34 24c-.3.17-.75.73-.94 1-.02.01-.06 0-.06-.22 0-.28.81-.78 1-.78ZM35.38 25.1l-1.43.58-.06-.12 1.43-.57.06.12ZM30.09 26c-1.55 0-3.37-.38-4.09-.57.49.1 1.89.28 3.6.28 2.15 0 2.7-.71 3.05-.71.35 0 .35.14.35.33 0 .2-.97.67-2.91.67Z" fill="#425196"/><path d="M20.25 37v.25l.6.07c.44.06.46.05.46.6v.91c0 .22 0 .34-.09.42-.22.2-.73.4-1.03.4-1.4 0-2.19-1.22-2.19-3.16 0-1.99.77-3.18 2.2-3.18 1.03 0 1.34.63 1.55 1.69H22v-1.44a3.18 3.18 0 0 0-1.74-.56C18.41 33 17 34.5 17 36.63c0 1.95 1.26 3.37 3.15 3.37.57 0 1.46-.38 1.72-.6.1-.07.13-.22.13-.46v-.98c0-.6 0-.6.42-.67l.27-.04V37H20.26ZM26.83 39.06c-.41.29-.76.44-1.2.44-1.07 0-1.88-.77-1.88-1.73v-.25l1.58-.02 1.66.03.01-.13c0-.83-.78-1.4-1.83-1.4-1.24 0-2.17.9-2.17 2 0 1.17.91 2 2.18 2 .7 0 1.3-.25 1.82-.75l-.17-.19Zm-3.05-1.79c.1-.6.7-1.02 1.37-1.02.57 0 .97.32.97.7 0 .37-.62.25-2.34.32ZM27.25 40h2.1v-.24h-.16c-.46 0-.52-.13-.52-.74l.02-1.93c.32-.28.86-.42 1.33-.42.97 0 .98.57.98 1.76V39c0 .66-.05.76-.71.76h-.08V40h2.16v-.24c-.65 0-.69-.07-.69-.43v-1.2c0-1.2-.08-1.9-1.4-1.9-.69 0-1.1.22-1.63.6V36h-.23c-.26.32-.56.5-1 .57v.2c.51.02.58.13.58.67v1.58c0 .6-.07.74-.62.74h-.13V40Z" fill="#F9EB30"/><path d="M21.41 46h1.65v-.18h-.13c-.36 0-.4-.1-.4-.55l.01-1.62c.25-.2.67-.32 1.04-.32.76 0 .89.43.89 1.5v.42c0 .5-.04.57-.56.57h-.06V46h1.68v-.18c-.5 0-.53-.05-.53-.32v-1.06c0-.9-.18-1.44-1.22-1.44a2 2 0 0 0-1.27.45V43h-.18c-.2.24-.44.37-.78.43v.15c.4.01.45.1.45.5v1.19c0 .45-.05.55-.49.55h-.1V46Z" fill="#108F34"/><path d="M34 37.6v1.33c0 .8 0 .83-.71.83V40h2v-.24h-.13c-.5 0-.53-.1-.53-.7v-1.54c0-.4.02-.9.07-1.52h-.22c-.23.36-.55.51-1.09.53v.2c.6.03.61.11.61.55v.32ZM35 34.4c0 .31-.28.6-.57.6-.25 0-.43-.18-.43-.41 0-.28.26-.59.56-.59.23 0 .44.19.44.4Z" fill="#F9EB30"/><path d="M38.83 39.06c-.41.29-.76.44-1.2.44-1.07 0-1.88-.77-1.88-1.73v-.25l1.58-.02 1.66.03.01-.13c0-.83-.78-1.4-1.83-1.4-1.24 0-2.17.9-2.17 2 0 1.17.91 2 2.18 2 .7 0 1.3-.25 1.82-.75l-.17-.19Zm-3.05-1.79c.1-.6.7-1.02 1.37-1.02.57 0 .97.32.97.7 0 .37-.62.25-2.34.32Z" fill="#F9EB30"/><path d="M16 46h4.7l.3-1.22-.27-.05c-.34.8-.49.96-1.31.96h-1.17c-.51 0-.55 0-.55-.37v-1.78h.71c.66 0 1.12 0 1.2.06.1.08.11.08.13.4H20v-1.35h-.25v.1c0 .5-.16.55-.81.55h-.48c-.18 0-.44 0-.76-.02v-1.12c0-.5.03-.77.08-.82.06-.05.26-.07.62-.07h.86c.79 0 .92-.06 1.04.73h.26l.01-1H16v.21l.53.06c.36.05.45.07.47.23v3.96c-.02.18-.13.19-.47.23l-.53.06V46ZM28.88 45.3c-.32.21-.58.32-.91.32-.8 0-1.41-.57-1.41-1.3V44h2.41c0-.03.03-.05.03-.07 0-.63-.58-.93-1.38-.93-.92 0-1.62.67-1.62 1.5 0 .88.68 1.5 1.63 1.5.53 0 .98-.19 1.37-.56l-.12-.14Zm-2.3-1.47c.08-.46.53-.64 1.03-.64.43 0 .73.1.73.4 0 .27-.47.18-1.76.24ZM29.54 46h1.48v-.18c-.56 0-.6-.03-.6-.44v-1.56c.21-.21.4-.29.46-.29.16 0 .23.3.41.3.16 0 .25-.07.25-.17 0-.29-.17-.5-.38-.5-.18 0-.44.16-.76.46V43h-.14a.97.97 0 0 1-.62.43v.15c.32.01.36.1.36.5v1.19c0 .45-.04.55-.38.55h-.08V46ZM33.13 45.29c-.66.26-1 .4-1 .64 0 .21.3.45.84.5-.65.25-.97.52-.97.83 0 .42.57.74 1.56.74 1.41 0 2.44-.6 2.44-1.29 0-.49-.5-.71-1.23-.71h-1.22c-.49 0-.73-.07-.73-.23 0-.12.19-.22.55-.4.15.05.3.06.45.06.94 0 1.62-.56 1.62-1.25a1 1 0 0 0-.27-.66l.83.1v-.38l-1 .07c-.28-.2-.66-.31-1.08-.31-.9 0-1.54.53-1.54 1.22 0 .47.3.9.75 1.07Zm.91-.09c-.53 0-1.04-.54-1.04-1.25 0-.43.37-.76.8-.76.53 0 .98.59.98 1.3 0 .45-.3.71-.74.71Zm.08 1.24c.87 0 1.3.08 1.3.5 0 .4-.64.81-1.52.81-.76 0-1.25-.33-1.25-.67 0-.38.47-.64 1.47-.64ZM37 43.2h.01c.26 0 .35.23.52.66.6 1.58.89 2.42.89 2.52 0 .04-.08.3-.27.65-.15.27-.26.4-.36.4-.11 0-.39-.1-.5-.1-.15 0-.29.24-.29.46 0 .16.07.21.23.21.71 0 1.15-.87 1.84-2.78.48-1.35.55-2.02.9-2.02H40V43h-1.13v.18c.35.04.46.05.46.25 0 .24-.19 1.02-.66 2.3-.47-1.34-.75-2.1-.75-2.36 0-.14.12-.18.42-.2V43c-.34 0-.9.02-1.34 0v.2Z" fill="#108F34"/><defs><linearGradient id="amnc3ay0k" x1="38.07" y1="18.71" x2="18" y2="18.71" gradientUnits="userSpaceOnUse"><stop stop-color="#108F34"/><stop offset=".48" stop-color="#FFE933"/><stop offset="1" stop-color="#119035"/></linearGradient></defs></svg>