<!-- by TradingView --><svg width="56" height="56" viewBox="0 0 56 56" xmlns="http://www.w3.org/2000/svg"><path fill="#F0F3FA" d="M0 0h56v56H0z"/><path fill-rule="evenodd" d="M4 29.04v2.76h.32c-.02-.21-.01-.65.2-.65.09 0 .22.1.4.2.39.26.98.65 1.8.65 1.22 0 2.7-.46 2.7-2.07 0-1.48-2.43-2.75-3.4-3.26l-.2-.1c-.6-.33-.74-.88-.74-1.11.01-.35.33-1.04 1.44-1.04 1.65 0 2.15 1.34 2.19 2.01h.3v-2.25h-.3v.45c0 .2-.2.16-.3.11A3 3 0 0 0 6.52 24C4.55 24 4 25.07 4 25.7c0 .64.17.98.85 1.6a17.1 17.1 0 0 0 2.43 1.56c.37.22 1.1.82 1.1 1.48 0 .94-1.1 1.19-1.65 1.2-1.8 0-2.33-1.67-2.37-2.5H4Zm6.02-4.76V24h5.57l.2 1.7h-.26c-.04-.4-.26-1.21-.79-1.21H12v3.1h1.93c.3 0 .53-.23.53-.5v-.7h.32v2.77h-.32v-.65a.53.53 0 0 0-.53-.51H12v3.48h2.74c.16 0 .5-.11.64-.44l.35-.83.27.06-.47 1.73h-5.51v-.29h.47a.5.5 0 0 0 .51-.5v-6.42a.5.5 0 0 0-.51-.5h-.47Zm5.63 7.43V32h2.3v-.29h-.54c-.23 0-.4-.22-.34-.43l.6-1.87h2.61l.62 1.86c.07.22-.1.44-.34.44h-.53V32h6.28v-.33h-.6c-.29 0-.71-.22-.71-.5v-2.58h1.77c1.27 0 2.23-.98 2.23-2.19v-.21c0-1.21-.96-2.19-2.23-2.19h-3.8v.28h.47c.3 0 .56.23.56.5v6.39c0 .28-.26.5-.56.5h-.46v.04h-.22a.53.53 0 0 1-.51-.35L19.74 24h-.7c-.7 2.2-2.02 6.16-2.41 7.36a.53.53 0 0 1-.51.35h-.47Zm4.5-2.71H17.8l1.07-3.38h.17l1.1 3.38ZM25 24.43v3.76h1c1.1 0 2-.75 2-1.68v-.4c0-.93-.9-1.68-2-1.68h-1ZM38 28a4 4 0 1 1-8 0 4 4 0 0 1 8 0Zm-.65 0a3.35 3.35 0 1 1-6.7 0 3.35 3.35 0 0 1 6.7 0Zm3.88 4H37.9v-.33h.46c.3 0 .64-.22.64-.5v-6.38c0-.28-.35-.51-.64-.51h-.46V24h3.79c1.27 0 2.3.72 2.3 1.93v.22c0 1.15-.94 1.8-2.13 1.85.32.18.6.48.73.64l1.2 2.3c.26.56.63.73.78.74h.53V32h-1.34c-.61 0-.96-.44-1.06-.66L40.95 28H40v3.17c0 .28.34.5.64.5h.6V32ZM40 27.5v-3.07h.96c.98 0 1.78.61 1.78 1.37v.33c0 .75-.8 1.37-1.78 1.37H40Zm5.22-1.58h-.25l.19-1.92h6.67l.17 1.92h-.33l-.12-.7a.97.97 0 0 0-.83-.73H49v6.6c0 .33.42.6.78.6h.48V32h-3.53v-.31h.48c.36 0 .79-.27.79-.6v-6.6h-1.72c-.45 0-.72.35-.8.53l-.26.9Z"/></svg>