<!-- by TradingView --><svg width="56" height="56" viewBox="0 0 56 56" xmlns="http://www.w3.org/2000/svg"><path fill="url(#ak2m50rb0)" d="M0 0h56v56H0z"/><path fill="url(#bk2m50rb0)" d="M0 0h56v56H0z"/><path fill-rule="evenodd" d="M6 23v10h1.5v-6.59L16 33v-2L6 23Zm16 10a5 5 0 1 0 0-10 5 5 0 0 0 0 10Zm0-1.5a3.5 3.5 0 1 0 0-7 3.5 3.5 0 0 0 0 7ZM33.8 23H36l-5.69 5.02L36 33h-2.2L28 28.02 33.8 23Zm3.7 0H39v10h-1.5V23Zm11.85 10-1.09-2h-5.45l-1.19 2H40l1.95-3.5h5.5l-2.8-5.1.9-1.4L51 33h-1.65Z" fill="#fff"/><defs><linearGradient id="ak2m50rb0" x1="0" y1="28" x2="56" y2="28" gradientUnits="userSpaceOnUse"><stop stop-color="#013FF5"/><stop offset="1" stop-color="#00EF18"/></linearGradient><linearGradient id="bk2m50rb0" x1="28" y1="0" x2="28" y2="56" gradientUnits="userSpaceOnUse"><stop stop-color="#07FCFA"/><stop offset=".55" stop-color="#07FCFA" stop-opacity="0"/></linearGradient></defs></svg>