<!-- by TradingView --><svg xmlns="http://www.w3.org/2000/svg" width="56" height="56" viewBox="0 0 56 56"><path fill="#00483C" d="M0 0h56v56H0z"/><path d="M36.63 30c-2.8 0-5-1.67-5-4.57 0-3 2.16-4.43 5-4.43s4.86 1.43 4.86 4.43c0 2.9-2.06 4.57-4.85 4.57h-.01zm-4.15 5h-3.9c.87 4 4.3 6 8.93 6 4.6 0 7.7-2.1 7.7-5.29 0-2.5-1.85-3.64-4.65-4.41a5.91 5.91 0 0 0 4.48-5.97c0-1.6-.55-3.02-1.52-4.17A6.23 6.23 0 0 1 46 21.1V18a5.05 5.05 0 0 0-4.15 1.68c-1.56-1-3.39-1.7-5.26-1.69-4.9 0-8.59 3.14-8.59 7.33 0 5.53 4.88 6.83 9.37 7.86 3.52.8 4.12 1.56 4.12 2.73 0 1.31-.88 2.08-4.07 2.08-2.72 0-4.28-.99-4.94-3zM18.7 36c4.47 0 7.57-2.16 7.57-5.22 0-6.6-12.27-4.28-12.27-8.05C14 21.5 15.37 21 17.57 21c2.68 0 4.36.92 5.04 3h3.47c-.78-3.78-3.86-6-8.47-6-4.54 0-7.35 2.08-7.35 5.1 0 6.44 12.46 4.03 12.46 8.05 0 1.06-1.23 1.85-4.03 1.85-2.8 0-4.89-1.41-5.18-3H10c.77 4.16 4 6 8.7 6z" fill="#E9F960"/></svg>