<!-- by TradingView --><svg width="56" height="56" viewBox="0 0 56 56" xmlns="http://www.w3.org/2000/svg"><path fill="#F0F3FA" d="M0 0h56v56H0z"/><path d="M44.94 16.2c-.29.58-1.3 1.59-3.02 3.03-4.4 3.69-9.95 7.24-16.62 10.66a.46.46 0 0 1-.66-.53l2.5-9.39a.5.5 0 0 1 .43-.36c4.49-.31 8.8-.98 12.95-2 1.93-.48 3.33-1.01 4.22-1.59a.15.15 0 0 1 .2.18Z" fill="#00B49D"/><path d="M45.78 16.8a.13.13 0 0 1 .2.15l-9.77 16.9a.66.66 0 0 1-.75.32l-9.53-2.53a.55.55 0 0 1-.12-1c4-2.19 7.41-4.18 10.25-5.98a58.17 58.17 0 0 0 9.72-7.87Z" fill="#094E8F"/><path d="M18.91 21.28a13.66 13.66 0 0 1 6.95-1.47.35.35 0 0 1 .28.15.37.37 0 0 1 .05.32l-2.43 8.71a.57.57 0 0 1-.47.42.56.56 0 0 1-.56-.29l-4.04-7.11a.53.53 0 0 1 .22-.73ZM13.8 27.82c.69-2.1 1.9-3.94 3.62-5.51a.33.33 0 0 1 .28-.08.35.35 0 0 1 .24.16l4.13 7.35a.52.52 0 0 1-.6.75l-7.34-2.04a.49.49 0 0 1-.33-.63ZM14.11 29.4l7.28 1.97a.45.45 0 0 1 .1.82l-8.75 5.04a.38.38 0 0 1-.55-.22c-.66-2.02.56-5.63 1.2-7.27a.59.59 0 0 1 .3-.3.6.6 0 0 1 .42-.05Z" fill="#00B49D"/><path d="m29.3 40.41-4.06-7.03a.56.56 0 0 1 .63-.82l8.69 2.3a.37.37 0 0 1 .24.21.36.36 0 0 1-.01.32 13.58 13.58 0 0 1-4.75 5.2.52.52 0 0 1-.73-.18ZM20 41.18c-1.74-.26-5.48-1.01-6.9-2.6a.38.38 0 0 1 .08-.58l8.76-5.05a.45.45 0 0 1 .67.5l-1.94 7.3a.6.6 0 0 1-.25.35.59.59 0 0 1-.42.08ZM21.92 41.74a.48.48 0 0 1-.37-.6l1.85-7.28a.52.52 0 0 1 .95-.13l4.28 7.13a.34.34 0 0 1-.19.5c-2.2.7-4.37.83-6.52.38Z" fill="#094E8F"/></svg>