<!-- by TradingView --><svg width="56" height="56" viewBox="0 0 56 56" xmlns="http://www.w3.org/2000/svg"><path d="M0 28a28 28 0 1 1 56 0 28 28 0 1 1-56 0Z" fill="#F0F3FA"/><path d="M34.17 13 13 13.48l3 3.34 27-1.36L34.17 13Z" fill="#B12326"/><path d="M13 35.25V13.47l3 3.34v26.16l-3-7.72Z" fill="#8C1C21"/><path d="m16 16.8 27-1.35v25.7L16 43V16.8Zm5.5 4.2a1.5 1.5 0 1 0 0-3 1.5 1.5 0 0 0 0 3Zm0 1c-.83 0-1.5.67-1.5 1.5v12a1.5 1.5 0 0 0 3 0v-12c0-.83-.67-1.5-1.5-1.5ZM39 27.35c0-1.82-.59-5.23-4.48-5.35A4.94 4.94 0 0 0 30 24.3v-.8a1.5 1.5 0 1 0-3 0v12a1.5 1.5 0 0 0 3 0v-5.66.02V28.93c.1-1.63.82-3.78 3.18-3.93 1.22 0 2.78.34 2.82 3.44v7.06a1.5 1.5 0 0 0 3 0v-8.15Z" fill="#C72128"/></svg>