<!-- by TradingView --><svg width="56" height="56" viewBox="0 0 56 56" xmlns="http://www.w3.org/2000/svg"><path fill="#92C528" d="M0 0h56v56H0z"/><path d="M17.3 30c-.76 0-1.62-.18-2.3-.53l.15-1.4c.7.35 1.49.66 2.3.66.68 0 .97-.27.97-.84 0-.78-.8-.96-1.42-1.18-1.05-.38-2-1-2-2.17 0-1.36 1.19-2.06 2.53-2.06.76 0 1.52.17 2.2.46l-.13 1.35a4.94 4.94 0 0 0-2.14-.55c-.75 0-.96.1-.96.62 0 .7.93.75 1.5.94 1.5.47 2 1.28 2 2.6 0 1.47-1.25 2.1-2.7 2.1Z" fill="#202F0A"/><path d="M17.3 29.52c-.76 0-1.62-.18-2.3-.52l.15-1.4c.7.35 1.49.65 2.3.65.68 0 .97-.27.97-.83 0-.78-.8-.96-1.42-1.19-1.05-.38-2-1-2-2.16C15 22.7 16.19 22 17.53 22c.76 0 1.52.18 2.2.47l-.13 1.35a4.94 4.94 0 0 0-2.14-.56c-.75 0-.96.11-.96.62 0 .7.93.75 1.5.94 1.5.47 2 1.28 2 2.6 0 1.47-1.25 2.1-2.7 2.1Z" fill="#FAFAFE"/><path d="M27.46 30c-.8 0-1.46-.7-1.46-1.64 0-1.3 1.18-1.6 2.07-1.76.22-.03.47-.06.63-.06-.02-.6-.3-.87-.84-.87-.38 0-.71.13-1.18.4l-.1-1.06a3 3 0 0 1 1.57-.46c1.14 0 2.05 1 2.05 2.11v1.42c0 .37-.07.85.36.85h.14L30.6 30h-.38c-.4 0-1.34-.2-1.52-.61-.3.42-.76.61-1.24.61Zm.45-1c.19 0 .57-.12.79-.38v-1.2c-.2.01-.46.05-.66.12-.4.14-.58.41-.58.82 0 .43.05.64.45.64Z" fill="#202F0A"/><path d="M27.46 29.45c-.8 0-1.46-.7-1.46-1.63 0-1.3 1.18-1.6 2.07-1.76.22-.04.47-.06.63-.07-.02-.6-.3-.86-.84-.86-.38 0-.71.12-1.18.4l-.1-1.07a3 3 0 0 1 1.57-.46c1.14 0 2.05 1 2.05 2.12v1.42c0 .36-.07.84.36.84h.14l-.1 1.07h-.38c-.4 0-1.34-.2-1.52-.6-.3.42-.75.6-1.24.6Zm.45-1c.19 0 .57-.12.79-.37v-1.2c-.2 0-.46.05-.66.12-.4.14-.58.4-.58.82 0 .42.05.63.45.63Z" fill="#FAFAFE"/><path d="M21 32v-7.47h1.5v1.07l-.78-.29c.37-.47.84-.78 1.43-.78 1.29 0 1.85 1.38 1.85 2.58 0 1.2-.71 2.76-2 2.76-.57 0-1-.25-1.4-.69l.9-.38V32H21Zm2-3.2c.64 0 .64-1.04.64-1.69 0-.64 0-1.51-.64-1.51-.5 0-.5.8-.5 1.51 0 .7 0 1.69.5 1.69Z" fill="#202F0A"/><path d="M21 31.47V24h1.5v1.07l-.78-.3c.37-.46.84-.77 1.43-.77 1.29 0 1.85 1.38 1.85 2.58 0 1.2-.71 2.75-2 2.75-.57 0-1-.24-1.4-.68l.9-.38v3.2H21Zm2-3.2c.64 0 .64-1.05.64-1.7 0-.64 0-1.5-.64-1.5-.5 0-.5.8-.5 1.5 0 .71 0 1.7.5 1.7Z" fill="#FAFAFE"/><path d="M33 30c-1.5 0-2-1.43-2-2.73 0-1.33.63-2.72 2-2.72.6 0 1.25.14 1.49.33l-.08 1.05c-.23-.17-.6-.3-.91-.3-.82 0-1 .89-1 1.65 0 .74.21 1.63 1 1.63.3 0 .65-.11.92-.33l.08 1.1c-.26.2-1.1.32-1.5.32Z" fill="#202F0A"/><path d="M33 29.45c-1.5 0-2-1.42-2-2.72 0-1.33.63-2.73 2-2.73.6 0 1.25.15 1.49.34l-.08 1.04c-.23-.16-.6-.29-.91-.29-.82 0-1 .88-1 1.65 0 .74.21 1.62 1 1.62.3 0 .65-.1.92-.32l.08 1.1c-.26.19-1.1.31-1.5.31Z" fill="#FAFAFE"/><path d="M37.36 30C35.9 30 35 28.76 35 27.23c0-1.37.77-2.68 2.12-2.68 1.2 0 1.88 1.05 1.88 2.28v.99h-2.5c0 .54.5 1.09.95 1.1.5 0 .94-.17 1.3-.43l.06 1.11c-.33.21-.83.4-1.45.4Zm-.86-3.27h1c0-.52-.05-1.1-.5-1.1s-.5.55-.5 1.1Z" fill="#202F0A"/><path d="M37.36 29.45c-1.46 0-2.36-1.23-2.36-2.76 0-1.37.77-2.69 2.12-2.69 1.2 0 1.88 1.06 1.88 2.29v.98h-2.5c0 .55.5 1.1.95 1.11.5 0 .94-.17 1.3-.43l.06 1.1c-.33.21-.83.4-1.45.4Zm-.86-3.27h1c0-.52-.05-1.09-.5-1.09s-.5.55-.5 1.1Z" fill="#FAFAFE"/><path d="M13.3 39c-.77 0-1.6-.14-2.3-.43l.14-1.04a5.9 5.9 0 0 0 2.34.56c.8 0 1.52-.3 1.52-.88 0-.8-1.28-.97-1.93-1.16-1-.29-2.05-.73-2.05-1.85 0-1.26 1.35-1.73 2.51-1.73.75 0 1.52.14 2.2.41l-.1 1.03a4.74 4.74 0 0 0-2.15-.53c-.56 0-1.48.18-1.48.82 0 .71 1.1.86 1.68 1.02 1.08.3 2.32.78 2.32 2 0 1.37-1.47 1.78-2.7 1.78Z" fill="#202F0A"/><path d="M13.3 38.53c-.77 0-1.6-.13-2.3-.42l.14-1.04a5.9 5.9 0 0 0 2.34.55c.8 0 1.52-.3 1.52-.87 0-.8-1.28-.98-1.93-1.16-1-.3-2.05-.74-2.05-1.85 0-1.27 1.35-1.74 2.51-1.74.75 0 1.52.15 2.2.42l-.1 1.02a4.74 4.74 0 0 0-2.15-.53c-.56 0-1.48.18-1.48.83 0 .7 1.1.85 1.68 1.02 1.08.29 2.32.77 2.32 1.99 0 1.37-1.47 1.78-2.7 1.78Z" fill="#FAFAFE"/><path d="M19.06 39c-.7 0-1.06-.4-1.06-1.08v-2.6h-1l.08-.94h.9l.02-.82 1-.1v.92h.99l.01.93h-1v2.15c0 .67-.01.8.7.8H20l-.1.74h-.83Z" fill="#202F0A"/><path d="M19.06 38.54c-.7 0-1.06-.4-1.06-1.08v-2.61h-1l.1-.85h.9v-.9l1-.1v1h1v.85h-1v2.14c0 .68-.01.8.7.8H20l-.1.75h-.83Z" fill="#FAFAFE"/><path d="M23 39c-1.15 0-2-.96-2-2.27 0-1.3.85-2.27 2-2.27s2 .97 2 2.27c0 1.31-.85 2.27-2 2.27Zm0-.9c.75 0 1-.56 1-1.37 0-.8-.24-1.36-1-1.36s-1 .56-1 1.36.25 1.36 1 1.36Z" fill="#202F0A"/><path d="M22.97 38.54c-1.15 0-2-.96-2-2.26 0-1.31.84-2.28 2-2.28 1.15 0 2 .97 2 2.28 0 1.3-.86 2.26-2 2.26Zm0-.9c.75 0 1.03-.56 1.03-1.36S23.76 35 23 35s-1 .48-1 1.28.21 1.35.97 1.35Z" fill="#FAFAFE"/><path d="M26 39v-4.52h1v.69c.23-.22.62-.4.88-.52a1.93 1.93 0 0 1 1.12-.17l-.1.98a2.14 2.14 0 0 0-1.17.1c-.23.1-.63.21-.73.34V39h-1Z" fill="#202F0A"/><path d="M26 38.55V34h1v.71c0-.21.62-.39.88-.52a1.93 1.93 0 0 1 1.12-.17l-.1.98a2.14 2.14 0 0 0-1.17.11c-.23.1-.63.21-.73.33v3.1h-1Z" fill="#FAFAFE"/><path d="M31.77 39.01c-.75 0-1.77-.46-1.77-1.28 0-1.06 1.28-1.4 2.12-1.5.25-.04.8-.12 1.03-.12 0-.64-.7-.82-1.3-.82-.39 0-.78.08-1.3.37l-.12-.75a3.59 3.59 0 0 1 1.7-.43c1.22 0 1.87.62 1.87 1.8v1.02c0 .4.05 1 .36.97h.12l-.13.74h-.22c-.5 0-.62-.18-.86-.64-.35.35-.88.64-1.5.64Zm0-.72c.4 0 1.12-.24 1.38-.53v-1.02c-.36.01-1 .11-1.26.18-.52.12-.82.37-.82.77 0 .42.26.6.7.6Z" fill="#202F0A"/><path d="M31.77 38.53c-.75 0-1.77-.47-1.77-1.28 0-1.06 1.28-1.4 2.12-1.5.25-.04.8-.12 1.03-.12 0-.64-.7-.82-1.3-.82-.39 0-.78.08-1.3.36l-.12-.75a3.59 3.59 0 0 1 1.7-.42c1.22 0 1.87.62 1.87 1.8v1.01c0 .42.05 1 .36.98h.12l-.13.74h-.22c-.5 0-.62-.18-.86-.64-.35.35-.88.64-1.5.64Zm0-.72c.4 0 1.12-.24 1.38-.53v-1.03c-.36.02-1 .12-1.26.19-.52.12-.82.37-.82.76 0 .42.26.6.7.6Z" fill="#FAFAFE"/><path d="M37.45 41c-.48 0-.9-.05-1.27-.15a2.1 2.1 0 0 1-.87-.43.88.88 0 0 1-.31-.67c0-.23.08-.43.23-.6.16-.16.37-.3.65-.4a1.1 1.1 0 0 1-.36-.26.49.49 0 0 1-.13-.32c0-.13.05-.25.14-.35.1-.1.25-.2.44-.26a1.57 1.57 0 0 1-.62-2.26c.17-.26.41-.46.73-.6.32-.16.7-.23 1.16-.23a2.6 2.6 0 0 1 1.23.3 3.27 3.27 0 0 1 1.22-.23h.2l-.11.58h-.34a3.83 3.83 0 0 0-.47.04 1.45 1.45 0 0 1 .4.99c0 .32-.09.6-.25.86-.17.26-.41.46-.73.62a3.15 3.15 0 0 1-1.79.16c-.13.03-.19.1-.19.18 0 .07.05.13.15.17a2 2 0 0 0 .49.11l1.18.15c.56.06 1 .2 1.3.4.31.19.47.47.47.83a1 1 0 0 1-.31.74c-.2.2-.5.36-.88.47-.38.1-.84.16-1.36.16Zm.07-.74a3 3 0 0 0 1.07-.15c.25-.1.37-.24.37-.43 0-.17-.08-.29-.24-.37-.17-.09-.4-.15-.73-.2l-1.34-.17c-.18.06-.34.15-.47.26a.5.5 0 0 0-.2.4c0 .22.14.39.41.5.28.1.66.16 1.13.16Zm-.28-3.1c.36 0 .64-.1.82-.28a.98.98 0 0 0 .29-.73c0-.3-.1-.53-.29-.71-.18-.19-.46-.28-.82-.28-.37 0-.65.1-.83.28a.95.95 0 0 0-.28.71c0 .3.09.54.28.73.18.19.46.28.83.28Z" fill="#202F0A"/><path d="M37.45 40.53c-.48 0-.9-.05-1.27-.14a2.1 2.1 0 0 1-.87-.43.88.88 0 0 1-.31-.68c0-.23.08-.42.23-.59.16-.16.37-.3.65-.42a1.1 1.1 0 0 1-.36-.24.49.49 0 0 1-.13-.33c0-.13.05-.25.14-.35.1-.1.25-.19.44-.26a1.57 1.57 0 0 1-.62-2.26c.17-.25.41-.46.73-.6.32-.15.7-.23 1.16-.23a2.6 2.6 0 0 1 1.23.3 3.27 3.27 0 0 1 1.22-.23h.2l-.11.59h-.34a3.79 3.79 0 0 0-.47.04 1.45 1.45 0 0 1 .4.98c0 .32-.09.6-.25.86-.17.26-.41.47-.73.62a3.15 3.15 0 0 1-1.79.16c-.13.03-.19.1-.19.18 0 .07.05.13.15.18a2 2 0 0 0 .49.1l1.18.15c.56.07 1 .2 1.3.4.31.2.47.47.47.84a1 1 0 0 1-.31.74c-.2.2-.5.36-.88.46-.38.11-.84.16-1.36.16Zm.07-.74a3 3 0 0 0 1.07-.15c.25-.1.37-.24.37-.43 0-.16-.08-.28-.24-.37-.17-.08-.4-.15-.73-.2l-1.34-.17c-.18.07-.34.15-.47.26a.5.5 0 0 0-.2.4c0 .22.14.4.41.5.28.1.66.16 1.13.16Zm-.28-3.1c.36 0 .64-.1.82-.28a.98.98 0 0 0 .29-.73c0-.3-.1-.53-.29-.71-.18-.19-.46-.28-.82-.28-.37 0-.65.1-.83.28a.95.95 0 0 0-.28.71c0 .3.09.55.28.73.18.19.46.28.83.28Z" fill="#FAFAFE"/><path d="M43.38 39c-1.2 0-2.33-.8-2.33-2.3 0-1.37.97-2.25 2.1-2.25.98 0 1.85.67 1.85 1.88a2.28 2.28 0 0 1-.05.5H42c.1.92.7 1.38 1.48 1.38.44 0 .88-.1 1.26-.3l.08.75c-.33.16-.81.34-1.43.34Zm-1.34-2.73h2.03c0-.62-.42-1.02-.93-1.02-.63 0-.97.44-1.1 1.02Z" fill="#202F0A"/><path d="M43.33 38.55c-1.2 0-2.33-.81-2.33-2.31 0-1.36.97-2.24 2.1-2.24.98 0 1.85.67 1.85 1.87a2.28 2.28 0 0 1-.05.5h-2.96c.1.93.7 1.38 1.48 1.38.44 0 .88-.1 1.26-.3l.08.76c-.33.16-.81.34-1.43.34Zm-1.34-2.73h2.03c0-.62-.42-1.03-.93-1.03-.63 0-.97.45-1.1 1.03Z" fill="#FAFAFE"/><path d="M17 21v-7.47h4V15h-2.5v1.47H20V18h-1.5v1.4H21V21h-4Z" fill="#202F0A"/><path d="M17 20.47V13h4v1.5h-2.5V16H20v1.53h-1.5V19H21v1.47h-4Z" fill="#FAFAFE"/><path d="m22 21 1.26-2.73L22 15.55h1.5l.5 1.09.5-1.1H26l-1.26 2.63L26 21h-1.5l-.5-1.1-.5 1.1H22Z" fill="#202F0A"/><path d="m22 20.45 1.26-2.72L22 15h1.5l.5 1.1.5-1.1H26l-1.26 2.63L26 20.45h-1.5l-.5-1.09-.5 1.1H22Z" fill="#FAFAFE"/><path d="M29.16 21c-.63 0-1.16-.52-1.16-1.34V17h-.94l.37-1.38h.43v-.95l1.3-.13v1.08H30V17h-.84v2.14c0 .67.03.82.55.82H30L29.9 21h-.74Z" fill="#202F0A"/><path d="M29.16 20.46c-.63 0-1.16-.52-1.16-1.34V16.7h-1l.43-1.7h.43v-.86l1.3-.13v1H30v1.7h-.6v1.9c0 .67 0 .82.31.82H30l-.1 1.04h-.74Z" fill="#FAFAFE"/><path d="M31 21v-5.45h1.5v.54c.38-.4.73-.54 1.26-.54.08 0 .17 0 .24.02l-.1 1.3a.98.98 0 0 0-1.4.48V21H31Z" fill="#202F0A"/><path d="M31 20.45V15h1.5v.55c.38-.4.73-.55 1.26-.55.08 0 .17 0 .24.02l-.1 1.3a.98.98 0 0 0-1.4.48v3.65H31Z" fill="#FAFAFE"/><path d="M36.46 21c-.8 0-1.46-.69-1.46-1.61 0-1.28 1.18-1.58 2.07-1.74.22-.04.47-.06.63-.07-.02-.6-.3-.85-.84-.85-.38 0-.71.12-1.18.4l-.1-1.05c.53-.31 1.04-.46 1.57-.46a2.1 2.1 0 0 1 2.05 2.09v1.4c0 .36-.07.83.36.83h.14L39.6 21h-.38c-.4 0-1.34-.2-1.52-.6-.3.41-.76.6-1.24.6Zm.45-.99c.19 0 .57-.12.79-.37v-1.19c-.2.02-.46.06-.66.12-.4.14-.58.4-.58.82 0 .41.05.62.45.62Z" fill="#202F0A"/><path d="M36.46 20.38c-.8 0-1.46-.69-1.46-1.61 0-1.28 1.18-1.58 2.07-1.74.22-.04.47-.06.63-.07-.02-.6-.3-.85-.84-.85-.38 0-.71.12-1.18.4l-.1-1.05c.53-.3 1.04-.46 1.57-.46a2.1 2.1 0 0 1 2.05 2.09v1.4c0 .36-.07.83.36.83h.14l-.1 1.06h-.38c-.4 0-1.34-.2-1.52-.6-.3.42-.76.6-1.24.6Zm.45-.99c.19 0 .57-.11.79-.37v-1.18c-.2 0-.46.05-.66.12-.4.13-.58.4-.58.8 0 .43.05.63.45.63Z" fill="#FAFAFE"/></svg>