<!-- by TradingView --><svg xmlns="http://www.w3.org/2000/svg" width="56" height="56" viewBox="0 0 56 56"><path fill="#F0F3FA" d="M0 0h56v56H0z"/><path d="M5 31h1v-2.1c0-.28.3-.5.58-.5h.82l.23.44L8.73 31H10s-.32-.67-.7-1.4l-.72-1.37c0-.02.12-.1.26-.19.33-.19.57-.44.74-.79.15-.3.24-.62.24-1 0-.5-.14-1-.42-1.35-.23-.3-.56-.59-.99-.74-.33-.12-.46-.16-2-.16H5v7Zm3.81-4.75c0 1.04-1 1.13-1.78 1.15H6V25h1.03c.97 0 1.78.21 1.78 1.25ZM24 31h-1v-7h4v1h-3v2h2v1h-1.47c-.27 0-.53.22-.53.5V31ZM15.8 24h1.35l2.35 7h-1.19l-.53-1.65a.5.5 0 0 0-.47-.35h-1.5l.27-1h1.31l-.89-2.7-1.88 5.7H13.5l2.3-7ZM31.8 24h1.35l2.35 7h-1.19l-.53-1.65a.5.5 0 0 0-.47-.35h-1.5l.27-1h1.31l-.89-2.7-1.88 5.7H29.5l2.3-7Z" fill="#2E384A"/><path d="M40 30h3v1h-4v-4.5l1-.5v1h2v1h-1.48a.51.51 0 0 0-.52.5V30Z" fill="#7A46CE"/><path d="M39 25.5V24h4v1h-2.8l-1.2.5ZM47 24h1v5.5c0 .28.22.5.5.5H51v1h-4v-7Z" fill="#2E384A"/></svg>