<!-- by TradingView --><svg xmlns="http://www.w3.org/2000/svg" width="56" height="56" viewBox="0 0 56 56"><path fill="#F0F3FA" d="M0 0h56v56H0z"/><path d="M17.5 23h4.2c.8 0 1.4.1 1.8.28.41.18.73.44.94.8.23.34.34.74.34 1.2a2.26 2.26 0 0 1-1.25 2.11c-.4.2-.93.3-1.6.31l2.15 2.9c.17.25.29.4.34.45.14.13.28.24.43.3.15.07.32.1.5.1h.15V32h-1.85l-2.99-4.3h-1.04v2.78c0 .3 0 .5.03.58.04.14.1.25.2.3.1.07.28.1.56.1h.2V32H17.5v-.54h.28c.21 0 .35-.02.42-.05a.45.45 0 0 0 .2-.15.7.7 0 0 0 .11-.3c.01-.04.02-.26.02-.64v-5.9c0-.26-.02-.44-.07-.56a.46.46 0 0 0-.2-.23c-.08-.06-.22-.08-.43-.08h-.33V23Zm2.12.7v3.39h1.67c.57 0 .97-.04 1.2-.12.32-.1.58-.29.77-.56.19-.28.28-.63.28-1.06 0-.36-.07-.66-.2-.9a1.3 1.3 0 0 0-.56-.56 2.3 2.3 0 0 0-1.05-.19h-2.11ZM32.5 23.15h.44l.8 2.9-.59.16a10 10 0 0 0-.7-1.35c-.27-.37-.6-.66-1-.87a2.82 2.82 0 0 0-2.86.13c-.48.3-.86.74-1.16 1.32-.29.58-.43 1.24-.43 1.96 0 .75.15 1.42.44 2 .3.6.7 1.04 1.21 1.36.5.31 1.05.47 1.64.47.55 0 1.12-.16 1.7-.47a4.65 4.65 0 0 0 1.5-1.33l.5.34a5.12 5.12 0 0 1-2.31 1.92c-.52.2-1.08.31-1.69.31a4.1 4.1 0 0 1-3.3-1.5 4.47 4.47 0 0 1-1.04-2.97c0-.85.2-1.6.58-2.3a4.36 4.36 0 0 1 4.97-2.06c.36.12.72.3 1.1.55l.2-.57ZM34.46 23h3.42v.54h-.23c-.28 0-.48.03-.6.08a.42.42 0 0 0-.2.22c-.05.1-.08.3-.08.6v3.99c0 .71.09 1.24.26 1.58.17.34.45.63.85.86a2.7 2.7 0 0 0 2.69-.03c.43-.24.73-.54.9-.88.18-.34.27-.89.27-1.63V24.5c0-.28-.03-.48-.08-.6a.55.55 0 0 0-.26-.27 1.15 1.15 0 0 0-.52-.1h-.25V23h2.97v.54h-.2c-.34 0-.57.06-.7.19-.12.13-.18.37-.18.72v4.07c0 .75-.14 1.37-.42 1.87-.28.5-.69.89-1.22 1.18-.53.29-1.15.43-1.86.43-.66 0-1.28-.15-1.83-.44-.55-.3-.96-.67-1.22-1.1-.26-.45-.39-1-.39-1.68v-4.33c0-.28-.03-.48-.08-.59a.5.5 0 0 0-.22-.24 1.2 1.2 0 0 0-.5-.08h-.32V23ZM49.72 23.14h.45l.67 2.68-.58.17a4.6 4.6 0 0 0-1.46-1.77 2.76 2.76 0 0 0-2.64-.35c-.3.13-.51.3-.66.5-.14.22-.22.43-.22.65 0 .2.06.38.17.56.12.19.29.35.51.49.23.14.6.28 1.13.44l1.63.48c.2.05.48.17.86.33.38.17.68.35.9.53a2.08 2.08 0 0 1 .68 1.55c0 .69-.31 1.3-.92 1.81-.6.52-1.38.78-2.34.78-.5 0-.94-.07-1.33-.21-.4-.15-.81-.4-1.27-.77l-.28.83h-.44L44 28.7l.58-.11c.21.57.5 1.06.84 1.47.36.4.74.7 1.17.91a3 3 0 0 0 1.3.31c.6 0 1.12-.18 1.57-.54.38-.3.56-.66.56-1.08 0-.37-.13-.68-.4-.93a4.07 4.07 0 0 0-1.47-.67l-1.56-.45a3.97 3.97 0 0 1-1.85-.97 1.97 1.97 0 0 1-.18-2.46c.23-.35.59-.63 1.07-.86a3.89 3.89 0 0 1 2.97-.1c.3.12.6.3.86.5l.26-.6Z" fill="#282C6C"/><path d="M6.2 36.43h1.68C8.36 29.4 13.87 28 17 28.21V28l-.03-.08-2.87.18-1.58.39-3.7 2.49-2.18 3.2-.44 2.25Z" fill="#F8B041"/><path d="M5.25 35.75 10.75 21h1.33l2.29 6.67c.98-.18 1.87-.19 2.63-.19V28c-.82-.02-1.63.06-2.43.22l1 2.53c.15.4.54.68.97.68h.2V32h-3.88v-.57h.66c.36 0 .6-.36.48-.7l-.84-2.1c-2.61.93-6.3 3.92-6.46 7.01-.02.41.08.79.54.79h.64V37H4v-.57h.27c.44 0 .83-.27.98-.68Zm2.82-4.45a11.76 11.76 0 0 1 4.87-3.27l-1.84-5.44-3.03 8.71Z" fill="#282C6C"/></svg>