<!-- by TradingView --><svg width="56" height="56" viewBox="0 0 56 56" xmlns="http://www.w3.org/2000/svg"><path fill="url(#acv2sbqcp)" d="M0 0h56v56H0z"/><path d="M36 36v-.03c.1-.07 1.17-.02 1.98.03H38V20.45h1.67c.94 0 4.22.55 4.22 4.07 0 2.82-2.55 3.66-3.89 3.73v.4c1.56 0 4.68 4.9 6.12 7.35H50v-.42c-1.61 0-3.36-2.94-4.27-4.6a9.62 9.62 0 0 0-2.34-2.73 4.56 4.56 0 0 0 2.97-3.73c0-3.66-3.3-4.54-4.95-4.52H34v.45h.44c.98 0 1.53.94 1.56 1.42v6.46c0-6.37-5.64-8.2-8.46-8.33H20v.51c1.32 0 2 .92 2 1.39v11.19c-.45.65-2.34 1.94-5.3 1.94-2.97 0-4.45-2.12-4.7-3.18v-11.8H8v.48h.72c.98 0 1.3.73 1.28 1.1v9.07c0 4.08 3.6 5.3 6.33 5.3 2.2 0 4.78-1.46 5.67-2.19V36h2V22.35c0-.61.46-1.84 2.09-1.84 2.03 0 6.91.32 6.91 7.82 0 6-3.9 7.33-5.95 7.25V36h.08c1.19 0 8.87.07 8.87-7.67V36Z" fill="#fff"/><defs><linearGradient id="acv2sbqcp" x1="0" y1="28" x2="56" y2="28" gradientUnits="userSpaceOnUse"><stop offset=".22" stop-color="#017E3C"/><stop offset="1" stop-color="#8DC041"/></linearGradient></defs></svg>