<!-- by TradingView --><svg xmlns="http://www.w3.org/2000/svg" width="56" height="56" viewBox="0 0 56 56"><path fill="url(#ajrv22ftl)" d="M0 0h56v56H0z"/><path d="M26.57 16h7.28l-8.57 22H18l8.57-22Z" fill="#008DCD"/><path d="M15.57 16h7.28l-8.57 22H7l8.57-22ZM51 25l-1.21 3.13V30h-1.44v-1.87l-1.13-2.57h-.91V30h-1.53v-4.44h-1.23V25h4.96l1 2.4.92-2.4H51Zm-9.32 2.36h-.29V25.7h.3c.54 0 .81.27.81.83 0 .55-.27.83-.82.83Zm2-.87c.01-.38-.16-.82-.44-1.07-.25-.22-.6-.42-1.15-.42H40v5h1.4v-2.11L42.5 30h1.56l-1.27-2.3c.71-.4.88-.75.9-1.21Zm-5.81 2.82h1.9V30h-3.34v-5h3.22v.7h-1.78v1.46h1.5v.61h-1.5v1.54Zm-3.56-2.13h1.86v2.49s-.08.01-.23.06c-.15.05-.17.06-.36.1 0 0-.67.17-1.11.17-.74 0-1.3-.21-1.72-.64-.4-.43-.6-1.04-.6-1.82 0-.75.21-1.37.64-1.84.43-.46 1-.68 1.69-.7.83-.02 1.62.28 1.65 1.46l-.65.01-.02-.22c-.09-.5-.32-.77-.81-.75-.4.01-.62.14-.74.39-.15.3-.2.87-.2 1.69a5 5 0 0 0 .16 1.57c.1.28.31.41.62.41.35 0 .53-.19.53-.58V27.8h-.71v-.61Zm-5.08 1.2.66-2.14.61 2.14h-1.27ZM29.5 25 28 29.64V25h-1.39v2.15h-1.17V25H24v5h1.44v-2.23h1.17V30h2.14l.33-1.13h1.57l.3 1.13h1.52l-1.45-5H29.5Z" fill="#fff"/><defs><linearGradient id="ajrv22ftl" x1="10.42" y1="9.71" x2="68.15" y2="76.02" gradientUnits="userSpaceOnUse"><stop stop-color="#1A1E21"/><stop offset="1" stop-color="#06060A"/></linearGradient></defs></svg>