<!-- by TradingView --><svg xmlns="http://www.w3.org/2000/svg" width="56" height="56" viewBox="0 0 56 56"><path fill="url(#awujlp2bo)" d="M0 0h56v56H0z"/><path d="M24 18.83s-3 4.43-6.58 5.13c-3.59.7-3.72-1.67-3.2-2.91.52-1.24 2.08-3.68 3.66-4.32 1.58-.64 5.73-.8 5.73-.8l.39 2.9ZM38 29.13s-1.74-5.08-.63-8.62c.6-1.94 1.42-2.51 2.16-2.5.6-.01 1.08.49 1.41.96.73 1.04 2.27 3.77 2.04 5.51-.24 1.74-2.04 5.52-2.04 5.52l-2.95-.88ZM22 36s5.42.78 7.8 3.75c.87 1.08 1.22 1.48 1.22 2.13 0 1.58-.83 1.85-1.64 1.95-1.28.16-4.49.46-5.84-.68C22.2 42 20 38.22 20 38.22L22 36Z" fill="#909FB6"/><path d="M28.38 12c-3.05 0-6.03.9-8.58 2.54-2.56 1.63-4.99 4.26-5.8 7.16 0 0 3.65-4.65 6.69-4.65C26 17.05 27.33 25 33.75 25A5.12 5.12 0 0 0 39 19.94c0-5.3-5.85-7.94-10.62-7.94Z" fill="#FDFFFF"/><path d="M44 29.06c0-3.63-.92-7.13-3-10.06 0 0 1.06 2.87 1.06 5.19 0 6.94-11.05 3.8-14.31 10a7.93 7.93 0 0 0-.75 3.37c0 3.28 3.13 5.44 5.19 5.44C38.56 43 44 36.5 44 29.06Z" fill="#FDFFFF"/><path d="M27.19 44c.81 0 1.45 0 2.81-.28-2.81 0-8-1.16-8-5.9 0-4.13 2-6.09 2-9.58C24 25 21.2 22 17.84 22 14.38 22 12 25.25 12 28.68 12 36.94 19.85 44 27.19 44Z" fill="#FDFFFF"/><defs><linearGradient id="awujlp2bo" x1="28" y1="0" x2="20" y2="63" gradientUnits="userSpaceOnUse"><stop stop-color="#2D516E"/><stop offset=".37" stop-color="#2C5074"/><stop offset=".81" stop-color="#1E3853"/></linearGradient></defs></svg>