<!-- by TradingView --><svg width="56" height="56" viewBox="0 0 56 56" xmlns="http://www.w3.org/2000/svg"><path fill="#F0F3FA" d="M0 0h56v56H0z"/><path d="m17 18 5.5-7 5.5 7h-3v4h-5v-4h-3ZM17 29l5.5-7 5.5 7h-3v4h-5v-4h-3ZM28 18l5.5-7 5.5 7h-3v4h-5v-4h-3ZM28 29l5.5-7 5.5 7h-3v4h-5v-4h-3ZM11 37h-1v5h3v-1h-2v-4ZM17 37h-1v3c0 .67.4 2 2 2s2-1.33 2-2v-3h-1v3c0 .33-.2 1-1 1s-1-.67-1-1v-3ZM24 37h-1.25l1.75 2.5-1.75 2.5H24l1-1.5 1 1.5h1.25l-1.75-2.5 1.75-2.5H26l-1 1.5-1-1.5ZM33 37h-3v5h1v-2h2v-1h-2v-1h2v-1ZM39 37h-3v5h3v-1h-2v-1h2v-1h-2v-1h2v-1Z" fill="#0E3267"/><path fill-rule="evenodd" d="M43 37h-1v5h1v-2h.5l1 2h1l-1-2c.17 0 1-.3 1-1.5S44.5 37 44 37h-1Zm0 2h1c.17 0 .5-.1.5-.5s-.33-.5-.5-.5h-1v1Z" fill="#0E3267"/></svg>