<!-- by TradingView --><svg width="56" height="56" viewBox="0 0 56 56" xmlns="http://www.w3.org/2000/svg"><path fill="#F0F3FA" d="M0 0h56v56H0z"/><path d="M15 18h4v8.64c-1.65.2-3.22.65-4 .92V18Zm0 12.79V38h14v-3H19v-4.78a17 17 0 0 0-4 .57Z"/><path d="M35.78 18H26v16h4V21h5.36c1.44 0 2.61 1.3 2.61 2.8a2.7 2.7 0 0 1-1.88 2.61l3.52.56a5.47 5.47 0 0 0 1.39-3.6A5.32 5.32 0 0 0 35.78 18Zm6.02 12.72-3.43-.45c.39.53.63 1.17.63 1.8 0 1.5-1.37 2.93-2.8 2.93H30v3h6.49A5.63 5.63 0 0 0 42 32.26c0-.54-.07-1.05-.2-1.54Z"/><path d="M25 26.6a57.49 57.49 0 0 0-21 5.1c6.8-1.37 13.82-2.17 21-2.35V26.6Zm6 2.75c7.18.18 14.2.98 21 2.35a57.49 57.49 0 0 0-21-5.1v2.75Z"/></svg>