<!-- by TradingView --><svg width="56" height="56" viewBox="0 0 56 56" xmlns="http://www.w3.org/2000/svg"><path fill="url(#axpqw1eyd)" d="M0 0h56v56H0z"/><path d="M48.95 30c.02 0 .05-.01.05-.04 0-.02-.01-.04-.04-.05a2.66 2.66 0 0 1-1.52-1.05l-7.1-10.15a1.66 1.66 0 0 0-1.36-.71h-5.93a.05.05 0 0 0-.05.05c0 .02.01.04.03.05.32.11.6.33.8.61l7.12 10.17A2.7 2.7 0 0 0 42.83 30h-6.22c-.85 0-1.67-.42-2.18-1.15l-7.09-10.14a1.67 1.67 0 0 0-1.36-.71h-5.93a.05.05 0 0 0-.05.05c0 .02.01.04.03.05.32.11.6.33.8.61l7.12 10.17c.5.71 1.3 1.12 2.18 1.12h6.2c-.76.08-1.45.5-1.9 1.14l-5.7 7.15-14.4-19.58c-.3-.44-.81-.71-1.35-.71H7.05c-.03 0-.05.02-.05.05 0 .02.01.04.03.05.32.11.6.33.8.61L23.63 40.3c.31.44.82.71 1.36.71h7.5c.54 0 1.04-.27 1.36-.71l7.09-9.13A2.68 2.68 0 0 1 43.1 30h5.84Z" fill="#fff"/><defs><linearGradient id="axpqw1eyd" x1="10.42" y1="9.71" x2="68.15" y2="76.02" gradientUnits="userSpaceOnUse"><stop stop-color="#1A1E21"/><stop offset="1" stop-color="#06060A"/></linearGradient></defs></svg>