<!-- by TradingView --><svg xmlns="http://www.w3.org/2000/svg" width="56" height="56" viewBox="0 0 56 56"><path fill="#F0F3FA" d="M0 0h56v56H0z"/><path d="M14.78 41c1.65-.04 3.3.05 4.94-.16.81-.15 1.6-.36 2.38-.63a1.41 1.41 0 0 0 .8-.5l1.48-1.46.84-.03.82-1.05c0-1.11-.07-2.07-.14-2.8-.1-1-.32-1.97-.65-2.9-.13-.4-.37-.75-.7-1.02a2.9 2.9 0 0 0-.6-.33 5.5 5.5 0 0 0-1.56-.51c-.37-.12-.77-.1-1.13.04-.16.09-.31.24-.56.7a6.05 6.05 0 0 0-.65 3.62c.14.48.29.9.41 1.23.12.38.3.74.52 1.07.11.16.14.16.24.32.18.28.33.59.43.9.05.2.13.4.24.57l.19.23.9.82-.48.04a5.44 5.44 0 0 1-.77-.4l-.44.5.79.71a1.16 1.16 0 0 1-1.18-.43l-.46.1-.19.03.58.61c-.13.04-.27.05-.4.03-.26-.04-.5-.16-.7-.34l-.17-.16-.46.03.55.58c-.15 0-.3-.02-.44-.06a3.84 3.84 0 0 1-1.7-1.2c-.87-.82-.82-.6-1.2-1.02a5.09 5.09 0 0 1-1.1-2.5c-.1-.89-.1-1.78-.02-2.67l.1-1.72c.1-.6.15-1.2.15-1.8 0-.13-.07-.57-.19-1.47a7.92 7.92 0 0 1-.08-2.4c.08-.67.17-.8.25-1.32.08-.66.1-1.33.03-1.99-.05-1.1-.12-1.01-.1-1.57 0-.7.15-1.38.44-2.01.27-.5.62-.96 1.03-1.36a46.04 46.04 0 0 1 1.63-1.78c1.05-1.05 2.4-2.4 4.03-4a2.32 2.32 0 0 1 1.65-.53c.33.03.65.13.94.3 2.28 1.25 3.3 1.95 3.3 1.95l1.08.78a3.05 3.05 0 0 0-1.6 1.03c-.15.15-.28.3-.4.47a6.4 6.4 0 0 0-1.63-.15 8.36 8.36 0 0 0-2.75.6c-.33-.48-.79-.88-1.33-1.14a1.82 1.82 0 0 0-1.46-.23c-.35.18-.63.48-.77.84a3.05 3.05 0 0 0 .24 2.96c-.1-.71-.06-1.44.12-2.14.05-.22.17-.43.33-.6a1.18 1.18 0 0 1 .92-.33c.25.04.43.19.77.48.22.18.42.39.6.6-.3.1-.58.23-.84.39a4.3 4.3 0 0 0-1.61 1.99 5.13 5.13 0 0 0-.26 3.93c.1.25.22.49.36.71a5.09 5.09 0 0 1 .06-3.66 4.8 4.8 0 0 1 1.26-1.69 6.04 6.04 0 0 1 2.22-1.27l-1.12 1.18-1.07 1.12a2.54 2.54 0 0 0-.45 1.81 1.37 1.37 0 0 0 .53 1.02 1.29 1.29 0 0 0 1.07.12 3.72 3.72 0 0 1 .79-.24c.27.48.66.88 1.14 1.17a1.3 1.3 0 0 1-.34-1.42c.14-.22.35-.39.6-.47a1.91 1.91 0 0 1 1.6.14c.08.05.75.42.7.83a.68.68 0 0 1-.25.38c-.27.27-.5.28-.73.58-.05.06-.1.13-.13.2.3-.04.6.02.86.16a1.56 1.56 0 0 1 .73 1.15 1.08 1.08 0 0 0-1.14-.18.84.84 0 0 0-.32.33 1.3 1.3 0 0 0-.09.82l.05.26c.57.05.79.22.88.38.05.1.1.2.18.28.14.16.36.28.41.24.05-.04-.03-.22-.09-.33-.1-.2-.15-.2-.18-.33-.03-.14 0-.3.08-.42.1-.14.24-.26.4-.33.2-.1.38-.18.59-.24-.26.1-.47.3-.58.54-.03.06-.1.25-.03.32.04.03.11.02.15 0 .11-.02.21-.1.29-.19.15-.15.35-.25.56-.3.29-.08.6-.05.87.09.07.04.14.1.2.15.02-.1 0-.2-.04-.3a.64.64 0 0 0-.27-.26 1.15 1.15 0 0 0-.21-.1.64.64 0 0 1 .4 0c.16.06.29.18.36.34.08.17.11.36.07.54l.05-.13c.13-.49.14-1 .01-1.48-.1-.33-.22-.65-.38-.96a3.3 3.3 0 0 1-.54-1.46.75.75 0 0 0 .87.2.77.77 0 0 0 .35-.57.79.79 0 0 0-.04-.35c-.02.05-.26.58-.68.61a.45.45 0 0 1-.38-.12.36.36 0 0 1-.05-.3 2.54 2.54 0 0 1 .85-.76c.2-.1.3-.14.39-.1.11.06.13.23.15.42.01.16 0 .33-.02.5a5.77 5.77 0 0 0 .21 2.18c.62-.88.96-1.9.98-2.96a2.8 2.8 0 0 0-.55-1.92c-.18-.2-.39-.36-.61-.5-.39-.37-.9-.59-1.43-.6-.28.02-.54.15-.73.35-.16.21-.25.46-.25.72.01.63.06 1.26.14 1.88 0 .28-.04.55-.1.81a3.46 3.46 0 0 0-1.16-2.42 2.97 2.97 0 0 0-1.4-1.04 4.1 4.1 0 0 0-1.4-.03c-.26.02-.48.06-.64.08.34-.32.75-.55 1.2-.68a4.54 4.54 0 0 1 1.73-.06c.3.02.6.06.9.12.27-.22.59-.37.92-.45a2.7 2.7 0 0 1 1.3.06c.24.05.46.13.68.24a2.8 2.8 0 0 0-1.7-1.1 2.35 2.35 0 0 0-.4-.04c.1-.18.83-1.41 1.61-1.58a.75.75 0 0 1 .61.06c.11.1.18.24.22.39.06.17.1.35.12.53.08.67.2 1.33.36 1.98.17.71.46 1.4.85 2.03l.92 1.43c.3.4.53.86.66 1.35.05.31.07.63.07.95.12.75.17 1.51.15 2.27-.04.31-.12.61-.22.9-.22.64-.42.75-.67 1.34-.23.56-.06.47-.36 1.41a4.58 4.58 0 0 0-.43 2 8.69 8.69 0 0 0 1.31-2.5c.04-.26.15-.5.3-.7.12-.13.25-.24.4-.32.2-.2.36-.4.52-.63a4.4 4.4 0 0 0 .82-2.51l-.24-5.02c.21.17.4.38.58.6.46.68.72 1.48.75 2.3.1.95-.07.95 0 2.15.05.64.13 1.28.25 1.91.21.85.33 1.7.36 2.57 0 .27-.02.54-.06.81.5-.54.8-1.22.88-1.94.03-.5 0-1-.08-1.5-.1-.8-.15-.82-.19-1.28 0-.64.06-1.28.19-1.91a9.7 9.7 0 0 0 .15-1.97 5.76 5.76 0 0 0-.25-1.29 10.15 10.15 0 0 0-1.82-3.26 19.81 19.81 0 0 0-5.36-4.87c3.82 2.04 6.35 4.55 7.12 6.37.4.84.67 1.73.83 2.65-.01.82.1 1.64.32 2.43.2.57.3.6.49 1.2.22.78.3 1.6.24 2.42-.04.51-.1 1.02-.2 1.52-.1.55-.14.55-.17.8.02.6.14 1.22.37 1.79.02.68 0 1.36-.05 2.04l-.1 2.06c0 .96.03.9.04 1.85 0 .24.02.48.06.72l.06.3 2.95 2.24L44 43H13l1.78-2Zm21.03-3.83c-.07-.5-.21-1-.42-1.46a3.53 3.53 0 0 0-.61-.96c-.14-.14-.15-.12-.43-.38a4.62 4.62 0 0 1-1.4-1.7 1.9 1.9 0 0 0-.55-.4l-.28-.12a37.8 37.8 0 0 0-1.39 5.5 5.16 5.16 0 0 0 1.14-.24c1.04-.22 2.1-.31 3.16-.26l.5.02h.28Z" fill="#101849"/></svg>