<!-- by TradingView --><svg xmlns="http://www.w3.org/2000/svg" width="56" height="56" viewBox="0 0 56 56"><path fill="#F0F3FA" d="M0 0h56v56H0z"/><path d="M8 18h19l-9.64 21L8 18z" fill="#CDD6EA"/><path d="M13.75 31h7.34l-3.73 8-3.6-8z" fill="#809DCF"/><path d="M8 18h7.45l2.05 5-3.75 8L8 18z" fill="#0760A4"/><path d="M13.75 31h7.34l-3.59-8-3.75 8z" fill="#1CA14A"/><path d="M15.45 18l2.05 5 2.25-5h-4.3z" fill="#DC2429"/><path d="M20 24h1.36l2.15 5.76 2.1-5.76H27l-2.53 7H22.6L20 24zM28.82 30.12a1 1 0 0 0 .8-.42c.2-.28.26-.6.26-1h-.5c-.5 0-1.29.09-1.29.82 0 .42.3.6.73.6zm-1.34-3.76A3.95 3.95 0 0 1 29 26c1.35 0 1.99.58 1.99 2 0 .66.06 2 0 2v1h-1c-.06-.24-.06-.67-.06-.82h-.03c-.28.55-.84.82-1.37.82-.78 0-1.54-.52-1.54-1.42 0-.73.3-1.16.76-1.37.44-.24 1-.21 1.48-.21h.64c0-.79-.3-1-1-1-.5 0-.98.12-1.38.42l-.02-1.06zM33 23.16h-1v8h1v-8zM37.3 28c-.04-.6-.31-1-1.03-1-.7 0-1.06.37-1.12 1h2.14zm.84 2.6c-.46.25-.97.4-1.63.4-1.57 0-2.51-.9-2.51-2.47 0-1.39.72-2.53 2.23-2.53 1.79 0 2.27 1.31 2.27 3h-3.32c.06.78.6 1 1.36 1 .6 0 1.11-.11 1.6-.39v1zM39 26h1v.77c.32-.48.86-.77 1.52-.77 1.04 0 1.48.8 1.48 1.91V31h-1.15v-2.62c0-.59 0-1.42-.74-1.42-.82 0-1.11.98-1.11 1.63V31h-1v-5zM47.62 27.11c-.45-.12-.77-.2-1.29-.2-.38 0-.83.11-.83.54 0 .75 2.5.27 2.5 1.98 0 1.12-1.15 1.57-2.3 1.57-.55 0-1.1-.09-1.63-.21l.07-1.02c.45.18.9.3 1.43.3.34 0 .93-.12.93-.58 0-.93-2.5-.3-2.5-2.01 0-1.03 1.04-1.48 2.16-1.48.66 0 1.11.09 1.56.18l-.1.93z"/></svg>