<!-- by TradingView --><svg width="56" height="56" viewBox="0 0 56 56" xmlns="http://www.w3.org/2000/svg"><path fill="#181B1E" d="M0 0h56v56H0z"/><path d="m8.38 27.87-1.17-.33c-.6-.17-1.71-.39-1.71-1.17C5.5 25.31 6.73 25 7.51 25c1.36 0 1.91.75 2.07 1.05.2.29.08.65.52.65.42 0 .55-.17.55-.55 0-1.57-1.87-2.15-3.1-2.15-1.97 0-3.15.94-3.15 2.51 0 1.4 1.17 1.77 2.32 2.1l.97.25c.79.22 2.31.6 2.31 1.63C10 31.52 8.54 32 7.7 32c-1.1 0-2.24-.44-2.56-1.51l-.02-.08c-.04-.14-.05-.41-.52-.41-.3 0-.6.15-.6.66C4 32.45 6.14 33 7.58 33 10.1 33 11 31.65 11 30.39c0-1.9-1.67-2.26-2.62-2.52ZM23.38 27.87l-1.17-.33c-.6-.17-1.71-.39-1.71-1.17 0-1.06 1.23-1.37 2.01-1.37 1.36 0 1.91.75 2.07 1.05.2.29.08.65.52.65.42 0 .55-.17.55-.55 0-1.57-1.87-2.15-3.1-2.15-1.97 0-3.15.94-3.15 2.51 0 1.4 1.17 1.77 2.32 2.1l.97.25c.79.22 2.31.6 2.31 1.63 0 1.03-1.46 1.51-2.3 1.51-1.1 0-2.24-.44-2.56-1.51l-.02-.08c-.04-.14-.05-.41-.52-.41-.3 0-.6.15-.6.66 0 1.79 2.14 2.34 3.58 2.34C25.1 33 26 31.65 26 30.39c0-1.9-1.67-2.26-2.62-2.52ZM18 24.64c0-.36-.12-.64-.45-.64a.63.63 0 0 0-.53.3c-.75 1.22-2.52 3.7-2.52 3.7s-1.67-2.45-2.44-3.68a.62.62 0 0 0-.57-.32c-.27 0-.49.22-.49.62 0 .16.05.27.11.39L14 29.36v3c.02.38.13.64.5.64.49 0 .5-.34.5-.64v-2.99l2.87-4.36c.1-.13.13-.24.13-.37ZM32.69 24.06a.7.7 0 0 0-.3-.06H26.6c-.3 0-.61.05-.61.5 0 .57.48.5.61.5H29v7.34c0 .2-.12.66.5.66.67 0 .48-.5.5-.66V25h2.38c.3 0 .62-.05.62-.5.01-.38-.23-.4-.31-.44ZM39.44 32H35v-3h4.04c.28 0 .56-.06.56-.5 0-.31-.2-.5-.56-.5H35v-3h4.4c.4 0 .6-.1.6-.5s-.22-.5-.6-.5h-4.76c-.53 0-.62.36-.64.67v7.66c0 .18.03.67.64.67h4.8c.13 0 .56.08.56-.5.02-.39-.2-.5-.56-.5ZM45.42 27.03l-1.75-2.76a.5.5 0 0 0-.26-.2 1.44 1.44 0 0 0-.51-.07c-.52 0-.68.15-.73.21a.65.65 0 0 0-.17.47v7.74c0 .37.12.58.5.58.4 0 .5-.22.5-.6v-7.15l2.9 4.62c.14.15.33.17.5.17.37 0 .39-.24.6-.5l-1.58-2.51Z" fill="#fff"/><path d="M51.41 32H50v-7.33c0-.28.06-.67-.73-.67-.23 0-.48.02-.67.2-.08.07-1.03 1.53-1.88 2.88l.74 1.2 1.54-2.4V32h-1.12c-.29 0-.61.06-.61.5 0 .56.48.5.61.5h3.53c.3 0 .59-.06.59-.5 0-.28-.14-.5-.59-.5Z" fill="#49A4DB"/></svg>