<!-- by TradingView --><svg xmlns="http://www.w3.org/2000/svg" width="56" height="56" viewBox="0 0 56 56"><path fill="#1D0E53" d="M0 0h56v56H0z"/><path d="M32.5 15a1.5 1.5 0 1 0-1.25-.68l-.84.51c-.17.1-.37.26-.58.43-.44.35-.93.74-1.38.74-.2 0-.45-.22-.45-.48v-.1a1.5 1.5 0 1 0-.41-.23c-.05.27-.17.88-.36 1.18-.22.36-.5.63-.94.63-.21 0-.49-.08-.74-.53l-.3-.67a1.5 1.5 0 1 0-.42.16l.4 2.04s-1.66.65-2.2 1.6c-.34.6-.7 1.32-1 2.07a.53.53 0 0 1-.5.33c-.23 0-.47-.13-.53-.4l-.3-1.2a1.5 1.5 0 0 0 .15-1.55 1.5 1.5 0 1 0-.85-1.32c-.16-.43-.67-.76-1-.93v-.1a1.5 1.5 0 1 0-.09.51c.23.24.56.64.63 1L19.5 18a1.5 1.5 0 1 0 .44 2.93c.04.69.06 1.37.06 2.07l-4-.44v-.06a1.5 1.5 0 0 0-2.9-.53A1.5 1.5 0 0 0 10.5 23a1.5 1.5 0 0 0 2.9.53 1.5 1.5 0 0 0 2.4-.29c.33.01 4.09.13 4.6 1.25.46.98.6 1.63.6 2.04 0 .23-.06.38-.17.47-.19.15-.6.28-1.12.4.18-.26.29-.57.29-.9a1.5 1.5 0 1 0-2.38 1.21l-.3.03a1.5 1.5 0 0 0-1.86.17c-.75.06-1.34.1-1.54.1a1.5 1.5 0 0 0-2.07-.86 1.5 1.5 0 1 0-.7.7 1.5 1.5 0 1 0 2.84.86l1.06-.1a1.5 1.5 0 1 0 2.78-.3l3.25-.3h.03l.28-.01c1.05 0 1.63.53 2.25 1.1.3.28.6.56.96.8.89.55 2.4 1.73 2.4 2.73v4.74c0 1.15-.33 2.58-.6 3.22-.48 1.17-1.4 2.13-1.4 2.13V43h7v-.28s-2-1.84-2-3.84v-5.09c.02-1.16 1.95-4.2 3.95-5.7.54-.4 1.48-1.09 2.43-1.09.21 0 .42 0 .64.08a1.5 1.5 0 1 0 1.9.95c.58.29 1.17.53 1.87.64.24.04.5.05.73.06a1.5 1.5 0 0 0 2.98-.14 1.5 1.5 0 0 0 2.5-1.1A1.5 1.5 0 0 0 45.5 26c-.8 0-1.44.61-1.5 1.39a1.5 1.5 0 0 0-2.47.81c-.37-.03-.78-.09-1.1-.2-.85-.33-1.68-1.26-1.68-1.6 0-.34.33-.71.7-1.07.2-.2.5-.41.73-.57A1.5 1.5 0 0 0 42 24.6a1.5 1.5 0 1 0 .5-1.22 1.5 1.5 0 0 0-.97-1.3 1.5 1.5 0 0 0-1.03-2.59 1.5 1.5 0 0 0-.53 2.9 1.5 1.5 0 0 0-.24 1.9c-.27.16-.64.39-.87.56-.53.4-1.31 1.45-1.31 1.45s-.26-.21-.64-.37a1.5 1.5 0 1 0-1.1-.1c-.25.07-.5.22-.75.36l-.08.05a1.5 1.5 0 0 0-1.48-1.75 1.5 1.5 0 0 0-.51 2.91l-.79.46-1.66 1.03c-.06.04-.2.1-.26.1-.15 0-.28-.11-.28-.26 0-.05 0-.1.02-.14l3.14-7.76s.44.16 1.18.16c.36 0 .89-.17 1.25-.3a1.5 1.5 0 1 0-.42-.5c-.2.1-.48.2-.83.2-.42 0-.86-.28-.86-.28L33.5 19a1.5 1.5 0 1 0-.64-.14l-.49 1.23-.41 1.06a1.5 1.5 0 1 0-.66 1.62c-.19.45-.38.9-.59 1.35a1.5 1.5 0 1 0-1.21 2.38c-.68 1.2-1.41 2.12-2.13 2.45A.86.86 0 0 1 27 29c-.44 0-1.05-.22-1.64-.5A1.5 1.5 0 0 0 27 27a1.5 1.5 0 1 0-2.72.87 5.24 5.24 0 0 1-.68-.52c-.7-.67-1.6-1.62-1.6-2.68 0-.68.5-1.63.5-1.63l.04-.17a1.5 1.5 0 1 0 .56-1.57 6 6 0 0 1 .76-1.35c.38-.47.8-.77 1.25-1.02A1.5 1.5 0 0 0 26.5 21a1.5 1.5 0 0 0 .34-2.96l.2-.1c.8-.41 1.43-.73 2.27-1.38l.73-.6c.52-.44 1.04-.88 1.66-1.2.23.15.5.24.8.24Z" fill="#1DCC7D"/></svg>