<!-- by TradingView --><svg width="56" height="56" viewBox="0 0 56 56" xmlns="http://www.w3.org/2000/svg"><path fill="#F0F3FA" d="M0 0h56v56H0z"/><path d="M43.83 19.57 34.47 40l-5.04-11.02c2.74-3.07 8.45-8.14 14.4-9.41Zm.14-.32L45 17H23.95l3.99 8.72c5.67-4.15 12.05-6 16.03-6.47Z" fill="url(#aemicsggc)"/><path d="M11 40c2.07-10.78 10.03-20.5 13.76-24C19.26 24.38 19 30.34 19 31c16.67-14.8 26.47-11.88 25.98-11.88C32.3 20.7 21.9 33.7 18.28 40H11Z" fill="url(#bemicsggc)"/><defs><linearGradient id="aemicsggc" x1="45" y1="17" x2="23.95" y2="17" gradientUnits="userSpaceOnUse"><stop stop-color="#194C8A"/><stop offset=".76" stop-color="#146AB4"/></linearGradient><linearGradient id="bemicsggc" x1="44.98" y1="19.12" x2="11" y2="19.12" gradientUnits="userSpaceOnUse"><stop stop-color="#E2EB24"/><stop offset=".89" stop-color="#81B641"/></linearGradient></defs></svg>