<!-- by TradingView --><svg width="56" height="56" viewBox="0 0 56 56" xmlns="http://www.w3.org/2000/svg"><path fill="#535353" d="M0 0h56v56H0z"/><path d="M4 30.1c0-.06.04-.1.1-.1h2.8c.06 0 .1.04.1.1v3.8a.1.1 0 0 1-.1.1H4.1a.1.1 0 0 1-.1-.1v-2.37c0-.06.04-.1.1-.1h2.3a.1.1 0 0 0 .1-.1v-.73a.1.1 0 0 0-.1-.1H4.78a.1.1 0 0 0-.1.1v.3a.1.1 0 0 1-.1.1H4.1a.1.1 0 0 1-.1-.1v-.8Zm2.5 2a.1.1 0 0 0-.1-.1H4.6a.1.1 0 0 0-.1.1v1.3c0 .06.04.1.1.1h1.8a.1.1 0 0 0 .1-.1v-1.3Zm3-2c0-.06.04-.1.1-.1h5.3c.06 0 .1.04.1.1v3.8a.1.1 0 0 1-.1.1h-.3a.1.1 0 0 1-.1-.1v-3.3a.1.1 0 0 0-.1-.1h-1.8a.1.1 0 0 0-.1.1v3.3a.1.1 0 0 1-.1.1h-.3a.1.1 0 0 1-.1-.1v-3.3a.1.1 0 0 0-.1-.1h-1.8a.1.1 0 0 0-.1.1v3.3a.1.1 0 0 1-.1.1h-.3a.1.1 0 0 1-.1-.1v-3.8Zm8 0c0-.06.04-.1.1-.1h3.3c.06 0 .1.04.1.1v2.09a.1.1 0 0 1-.1.1h-2.8a.1.1 0 0 0-.1.1v1.01c0 .06.04.1.1.1h2.3a.1.1 0 0 0 .1-.1v-.3c0-.06.04-.1.1-.1h.3c.06 0 .1.04.1.1v.8a.1.1 0 0 1-.1.1h-3.3a.1.1 0 0 1-.1-.1v-3.8Zm.5 1.51c0 .06.04.1.1.1h2.3a.1.1 0 0 0 .1-.1V30.6a.1.1 0 0 0-.1-.1h-2.3a.1.1 0 0 0-.1.1v1.01Zm5.53-1.51c0-.06.04-.1.1-.1h2.8c.05 0 .1.04.1.1v.8a.1.1 0 0 1-.1.1h-.3a.1.1 0 0 1-.1-.1v-.3a.1.1 0 0 0-.1-.1H24.1a.1.1 0 0 0-.1.1v3.3a.1.1 0 0 1-.1.1h-.27a.1.1 0 0 1-.1-.1v-3.8Zm8.97 0c0-.06.04-.1.1-.1h2.3c.06 0 .1.04.1.1v.8a.1.1 0 0 1-.1.1h-.3a.1.1 0 0 1-.1-.1v-.37a.1.1 0 0 0-.1-.1h-1.3a.1.1 0 0 0-.1.1v2.87c0 .06.04.1.1.1h1.3a.1.1 0 0 0 .1-.1v-.3c0-.06.04-.1.1-.1h.3c.06 0 .1.04.1.1v.8a.1.1 0 0 1-.1.1h-2.3a.1.1 0 0 1-.1-.1v-3.8Zm5.5 0c0-.06.04-.1.1-.1h2.8c.06 0 .1.04.1.1v3.8a.1.1 0 0 1-.1.1h-2.8a.1.1 0 0 1-.1-.1v-3.8Zm.6.4a.1.1 0 0 0-.1.1v2.8c0 .06.04.1.1.1h1.8a.1.1 0 0 0 .1-.1v-2.8a.1.1 0 0 0-.1-.1h-1.8Zm10.4-.4c0-.06.04-.1.1-.1h1.89c.5 0 1.01.46 1.01 1v2c0 .54-.52 1-1.01 1H49.1a.1.1 0 0 1-.1-.1v-3.8Zm.6.4a.1.1 0 0 0-.1.1v2.8c0 .06.04.1.1.1H51c.18 0 .5-.3.5-.5v-2c0-.2-.33-.5-.5-.5h-1.4ZM29.1 34a.1.1 0 0 1-.1-.1v-3.8c0-.06.04-.1.1-.1h.3c.06 0 .1.04.1.1v3.8a.1.1 0 0 1-.1.1h-.3Zm14.4-3.9c0-.06.04-.1.1-.1h.3c.06 0 .1.04.1.1v3.3c0 .06.04.1.1.1h1.8a.1.1 0 0 0 .1-.1v-.3c0-.06.04-.1.1-.1h.3c.06 0 .1.04.1.1v.8a.1.1 0 0 1-.1.1h-2.8a.1.1 0 0 1-.1-.1v-3.8ZM47.89 28.67C29.79 19.6 12 23.1 5.37 26c12.62-9.6 27.66-7.11 33.6-4.67-6.03-2.13-15.77-.89-19.88 0 15.9-.53 25.82 4.67 28.8 7.34Z" fill="#fff"/><ellipse cx="25.26" cy="22.67" rx="4.8" ry="4.67" fill="#535353"/><path fill-rule="evenodd" d="M25.26 26.67c2.27 0 4.11-1.8 4.11-4 0-2.21-1.84-4-4.11-4a4.06 4.06 0 0 0-4.12 4c0 2.2 1.84 4 4.12 4Zm0 .66c2.65 0 4.8-2.09 4.8-4.66a4.73 4.73 0 0 0-4.8-4.67 4.73 4.73 0 0 0-4.8 4.67 4.73 4.73 0 0 0 4.8 4.66Z" fill="#fff"/><path d="M23.5 22.88c-.68-.67 0-2 0-3.34 0-1.06.7-1.33.7-1.33.45 0 1.36.13 1.36.66 0 .67.69 1.34.69 2 0 .67-.69.67-1.37 1.34-.69.66-.69 1.33-1.38.66ZM24.88 24.67c-.55-.54.22-1.11.68-1.34.69 0 2.06.27 2.06 1.34 0 1.33-1.37 2-2.06 2-.68 0 0 0 0-.67s0-.67-.68-1.33Z" fill="#fff"/><path d="M30.86 20.59c.08.18.08.43-.07.76-.14.3-.38.63-.73.98v.68c1.07-.92 1.59-1.87 1.28-2.6-.57-1.36-3.75-1.44-7.11-.19-3.36 1.25-5.62 3.37-5.06 4.72.3.7 1.34 1.04 2.66 1.06l-.38-.48a3.8 3.8 0 0 1-1.2-.25c-.34-.14-.52-.32-.6-.5-.07-.2-.07-.44.08-.77.15-.33.43-.71.86-1.11.86-.8 2.2-1.6 3.83-2.22 1.63-.6 3.2-.88 4.4-.85.6.02 1.09.11 1.44.26.34.14.52.32.6.5Z" fill="#FBFBFB"/><path d="M30.86 21.92c.26.62-.8 1.41-1.49 1.41v.69c1.49-.27 2.28-1.55 1.97-2.28-.57-1.35-3.75-1.44-7.11-.19-3.36 1.25-5.62 3.37-5.06 4.73.3.68 2.66 1.05 4.16.48l-.38-.48c-1.12.39-3.04.42-3.3-.18-.76-1.84 3.78-3.72 4.77-4.1 1.03-.38 5.67-1.92 6.44-.08Z" fill="#FBFBFB"/></svg>