<!-- by TradingView --><svg xmlns="http://www.w3.org/2000/svg" width="56" height="56" viewBox="0 0 56 56"><path fill="#009DA6" d="M0 0h56v56H0z"/><path fill-rule="evenodd" d="M43 28a15 15 0 1 1-30 0 15 15 0 0 1 30 0Zm2 0a17 17 0 1 1-34 0 17 17 0 0 1 34 0Zm-22.94-7.95H22v15.84c0 .7.28 1.36.77 1.85s1.04.76 1.73.76v-6.84c.5.83 2.05 2.34 4.82 2.34C33.5 34 36 30.47 36 27.13 36 23.6 33.64 20 29.15 20a5.43 5.43 0 0 0-4.65 2.38c0-.62-.34-1.2-.78-1.65a2.34 2.34 0 0 0-1.66-.68Zm2.44 6.87c0-2.43 1.88-4.67 4.48-4.67 2.7 0 4.52 2.36 4.52 4.72a4.65 4.65 0 0 1-4.47 4.74 4.64 4.64 0 0 1-4.53-4.79Z" fill="#fff"/></svg>