<!-- by TradingView --><svg width="56" height="56" viewBox="0 0 56 56" xmlns="http://www.w3.org/2000/svg"><path fill="#F0F3FA" d="M0 0h56v56H0z"/><path d="M38.12 33H38c1.49 1.92 3.6 3 5.81 3 1.14 0 2.22-.29 3.19-.79h-4.09A6.38 6.38 0 0 1 38.12 33ZM47 20.79a6.94 6.94 0 0 0-3.2-.79 7.37 7.37 0 0 0-5.8 3h.12a6.47 6.47 0 0 1 4.78-2.21H47Z" fill="#59AC40"/><path d="M47.96 34.89c.38-.22.73-.46 1.06-.74l-4.48.35-.13.09 3.55.3ZM45.7 33.5l3.7.32c.24-.24.48-.48.7-.74l-4.34.33a.3.3 0 0 1-.07.09ZM50.41 32.73c.18-.23.35-.47.5-.74l-4.36.31c-.02.02-.02.04-.04.09l3.9.34ZM51.14 31.58c.13-.24.24-.5.35-.76l-4.41.3-.02.1 4.08.36ZM47.39 29.97l4.26.4c.08-.25.15-.5.2-.77l-4.44.28-.02.09ZM47.57 28.7l4.36.4c.05-.26.07-.55.07-.8l-4.43.32v.09ZM52 27.73c0-.28-.02-.55-.07-.8l-4.36.38v.1l4.43.32ZM51.85 26.42a4.33 4.33 0 0 0-.2-.76l-4.26.4.02.08 4.43.28ZM51.5 25.2c-.12-.26-.23-.52-.36-.76l-4.1.4.02.08 4.43.28ZM50.92 24.03c-.16-.26-.33-.5-.5-.74l-3.91.37.04.08 4.37.29ZM50.1 22.92c-.22-.26-.46-.5-.7-.74l-3.7.32.06.09 4.34.33ZM49.02 21.85a6.9 6.9 0 0 0-1.06-.72l-3.55.28.13.1 4.48.34Z" fill="#59AC40"/><path d="M10.66 23S6.28 27.06 6 27.35V23H5v10h1v-4.6c.27.32 4.7 4.6 4.7 4.6H12l-5.21-5.1L12 23h-1.34Z" fill="#01617A"/><path d="M12 28.47c0-1.3 1.17-2.48 2.48-2.47 1.24.01 2.52 1.03 2.52 2.47A2.49 2.49 0 0 1 14.52 31 2.52 2.52 0 0 1 12 28.47Zm-1 0c0 2.01 1.5 3.53 3.48 3.53A3.5 3.5 0 1 0 11 28.47ZM21.5 26c1.11 0 1.5.22 1.5 1 0 .73-.39 1-1.45 1H20v-2h1.5ZM19 25v7h1v-3h1.5c1.36 0 2.5-.3 2.5-1.92C24 25.4 22.74 25 21.38 25H19ZM27.5 26c1.11 0 1.5.22 1.5 1 0 .73-.39 1-1.45 1H26v-2h1.5ZM25 25v7h1v-3h1.5c1.36 0 2.5-.3 2.5-1.92C30 25.4 28.74 25 27.38 25H25ZM31 25v7h4v-1h-3v-2h3v-1h-3v-2h3v-1h-4ZM36 25v7h1v-6h1c.88 0 2 .25 2 1.32 0 .64-.86 1.08-1.6 1.08h-1.04l2.32 3.6H41s-1.68-2.6-1.77-2.76c.95-.22 1.77-1 1.77-1.94 0-1.59-1.53-2.3-2.93-2.3H36ZM42 26.85c0 1 .93 1.52 1.74 1.95.6.34 1.26.64 1.26 1.12 0 .68-.52 1.08-1.29 1.08-.5 0-.93-.1-1.3-.33l-.28-.17-.1 1.13.14.07c.32.13.82.3 1.52.3 1.15 0 2.31-.62 2.31-2 0-1.13-.95-1.65-1.78-2.08-.61-.32-1.22-.68-1.22-1.15 0-.82.99-.77 1.26-.77.43 0 .83.05 1.06.18l.26.13.19-1.03-.17-.06c-.55-.22-1.17-.22-1.34-.22-1.35-.02-2.26.75-2.26 1.85Z" fill="#01617A"/></svg>