<!-- by TradingView --><svg width="56" height="56" viewBox="0 0 56 56" xmlns="http://www.w3.org/2000/svg"><path fill="#F0F3FA" d="M0 0h56v56H0z"/><path d="m38 12 3 4v14h-3l-4-4-1-3.5V36h2l4 4v4h-5.98c.31.46.48.84.48 1.61 0 1.61-1.25 2.39-2.86 2.39-.8 0-1.51-.32-2.03-.83-.51-.52-2.98-2.42-3.61-3.17h-3l-4-3v-5h6V26l-1 4h-3l-4-3.94V12h22Z" fill="#15428A"/><path d="M37 13v13h-2l-3-10h-3v21h5v3h-6.26c.86.32 1.26 1 1.26 2 0 1.5-1 2-1.97 2C26 44 25 43.5 25 42c0-1 .43-1.68 1.31-2H19v-3h6V16h-3l-3 10h-2V13h20Zm-9.97 30c.52 0 .97-.42.97-1 0-.58-.45-1-1-1a1 1 0 0 0-1 1c0 .58.5 1 1.03 1Z" fill="#EC7624"/></svg>