<!-- by TradingView --><svg width="56" height="56" viewBox="0 0 56 56" xmlns="http://www.w3.org/2000/svg"><path fill="#F0F3FA" d="M0 0h56v56H0z"/><path d="M28 17.9c-.5 0-1.57.28-1.95.38L8.72 23.14A5.08 5.08 0 0 0 4.94 28a5.1 5.1 0 0 0 3.78 4.86l17.33 4.84c.38.1 1.45.38 1.95.38s1.57-.28 1.95-.38l17.33-4.84A5.08 5.08 0 0 0 51.06 28a5.1 5.1 0 0 0-3.78-4.86L29.95 18.3a8.62 8.62 0 0 0-1.95-.4Z" fill="#002F6C"/><path d="M28 39c-.73 0-2.08-.39-2.22-.43L8.45 33.73A6 6 0 0 1 4 28c0-2.64 1.83-5 4.45-5.73l17.33-4.84c.14-.04 1.46-.43 2.22-.43.73 0 2.08.39 2.22.43l17.33 4.84A6 6 0 0 1 52 28c0 2.64-1.83 5-4.45 5.73l-17.33 4.84c-.14.04-1.46.43-2.22.43Zm0-21.1c-.5 0-1.57.28-1.95.38L8.72 23.14A5.08 5.08 0 0 0 4.94 28a5.1 5.1 0 0 0 3.78 4.86l17.33 4.84c.38.1 1.45.38 1.95.38s1.57-.28 1.95-.38l17.33-4.84A5.08 5.08 0 0 0 51.06 28a5.1 5.1 0 0 0-3.78-4.86L29.95 18.3a8.62 8.62 0 0 0-1.95-.4Z" fill="#FFD100"/><path d="M12 31v-6h1.5l2.96 3.5V25H18v6h-1.5l-3-3.5V31H12ZM27.96 26c.57 0 1.5 0 1.5.66 0 .76-.87.84-1.4.84h-.56V26h.46ZM26 31h2.1c1.22 0 2.9-.16 2.9-1.73 0-.74-.49-1.25-1.17-1.45.5-.25.87-.72.87-1.3 0-1.35-1.37-1.52-2.4-1.52H26v6Zm2.26-2.5c.6 0 1.24.06 1.24.7 0 .74-.52.8-1.1.8h-.9v-1.5h.76ZM32 31v-6h1.5v5H37v1h-5ZM38 31v-6h5v1h-3.5v1.5H43v1h-3.5V30H43v.98h-5V31Z" fill="#FFD100"/><path fill-rule="evenodd" d="M22 30.57a2.57 2.57 0 1 0 0-5.14 2.57 2.57 0 0 0 0 5.14Zm0 .43a3 3 0 1 0 0-6 3 3 0 0 0 0 6Z" fill="#FFD100"/><path d="M24.8 26.92c0 .12-.02.23-.04.33l-.43.86-.43-.43s0-.86-.42-.86c-.16 0-.2 0-.21.02v.04c0 .05 0 .16-.22.37l-.02.02.06.1c.1.14.2.31.39.31.21 0 .21.1.21.21 0 .11 0 .22.21.22.27 0 .2.16.12.39-.05.14-.12.3-.12.47 0 .42-.42.85-.85.85-.27 0-.2-.16-.12-.39.05-.14.12-.3.12-.46 0-.43-.43-.43-.86-.43-.15 0-.2 0-.2-.02l-.01-.04c0-.05 0-.16-.22-.37-.34-.34.14-.43.43-.43l.43-.43c.09-.09.15-.12.21-.12 0-.15-.03-.3-.21-.3-.22 0-.32.1-.38.15-.02.02-.03.04-.04.03l-.01-.19c0-.21.1-.32.21-.43.11-.1.22-.21.22-.42 0-.22.1-.11.21 0 .11.1.22.21.22 0v-.78a3 3 0 0 1 1.75 1.73Zm-5.4-.43a3 3 0 0 1 1.87-1.4l.06.02c.15 0 .43.08.43.43 0 .16.06.39.12.58.08.31.15.54-.12.27-.34-.34-.71-.14-.86 0-.14-.28-.42-.77-.42-.42 0 .34-.29.42-.43.42-.15.15-.35.43 0 .43.43 0 .85.43.43.43-.43 0-.86 0-.86.43 0 .21-.1.1-.22 0-.1-.1-.21-.21-.21 0 0 .43 0 .86.43.86h.43c.21 0 .32.1.43.21.1.1.21.22.42.22.43 0 .43.42.43.42-.14 0-.43.09-.43.43v.86l.01.12c-.12-.05-.25-.11-.36-.18-.06-.3-.07-.6-.07-.8-.29 0-.86-.08-.86-.43 0-.21-.1-.32-.22-.42-.1-.11-.21-.22-.21-.43 0-.15-.05-.29-.1-.43-.03-.11-.07-.22-.08-.33 0-.11.02-.23.04-.34a.69.69 0 0 1 .14-.19c.21-.21.21-.43.21-.7v-.06Z" fill="#FFD100"/></svg>