<!-- by TradingView --><svg width="56" height="56" viewBox="0 0 56 56" xmlns="http://www.w3.org/2000/svg"><path fill="#F0F3FA" d="M0 0h56v56H0z"/><path d="M26.57 12.02c-2.7.21-5.02.99-7.14 2.4a16.1 16.1 0 0 0-4 3.82c-.37.47-1 1.4-.98 1.43.02.02.74-.17 1.94-.5l1.48-.42c1.55-.38 3.16-.56 4.74-.51 2.48.08 4.68.53 7.58 1.58 4.4 1.59 7.78 1.94 11.53 1.2.33-.06.63-.13.65-.14.06-.04-.28-.62-.85-1.48a16.7 16.7 0 0 0-5.22-5.2c-.47-.28-1.6-.85-2.1-1.05-1.46-.57-2.8-.9-4.44-1.08-.62-.06-2.6-.1-3.19-.05Zm15.82 10.31c-.1.04-.5.2-.86.37a24.1 24.1 0 0 1-6.25 1.92c-1.18.17-2.67.23-3.7.15a17.33 17.33 0 0 1-5.01-1.14 16.95 16.95 0 0 0-4-.84 25.7 25.7 0 0 0-2.8 0c-.96.08-1.99.26-2.91.49a16.55 16.55 0 0 0-4.8 1.8c-.07.05-.08.53-.01.5l3.83-1.07.38-.1 2.04-.01c2.9-.01 4.17.09 5.96.47 1.26.26 2 .5 3.46 1.07 2.24.89 4.17 1.33 6.63 1.52 1.46.12 4.27 0 5.52-.21l.15-.03-.12.16a3.8 3.8 0 0 1-1.17.75 18.68 18.68 0 0 1-6.56 2.08c-.68.09-2.64.1-3.28.02a18 18 0 0 1-3.54-.77c-3.4-1.1-6.54-1.45-9.26-1.05a19.6 19.6 0 0 0-2.66.6c-.53.14-.9.31-1.13.53-.27.25-.3.32-.3.74v.36l.1.02c.24.07.7.03 1.23-.1 2.75-.71 5.6-.73 8.6-.05 1.06.24 2.3.61 3.43 1.04A25.23 25.23 0 0 0 34 33.2c1.37.03 1.71 0 2.77-.27.73-.19.86-.21 1.31-.23l.5-.02-.05.1c-.02.04-.23.27-.46.5-.34.33-.51.46-.96.74a19.68 19.68 0 0 1-3.71 1.74c-.86.28-2.03.54-3.02.67-.75.1-2.44.14-3.24.08-1.3-.1-2.4-.3-3.84-.7-3.53-.95-5.17-1.25-7.07-1.31-.85-.03-1.89.03-2.24.12-.53.14-.52.4.03 1.33a16.08 16.08 0 0 0 11.3 7.86c1.03.17 1.33.19 2.64.19.8 0 1.4-.02 1.67-.05 2-.24 3.79-.76 5.47-1.61a16.52 16.52 0 0 0 7.58-7.84c.66-1.5 1-2.77 1.24-4.55.08-.63.1-2.85.02-3.48-.14-1.16-.31-2.06-.57-3.03-.2-.74-.26-.9-.39-1.05-.09-.1-.12-.13-.26-.13-.08 0-.24.04-.34.07Z" fill="#EE3124"/></svg>