<!-- by TradingView --><svg width="56" height="56" viewBox="0 0 56 56" xmlns="http://www.w3.org/2000/svg"><path fill="#F0F3FA" d="M0 0h56v56H0z"/><path d="M17.34 22s4.49-6.68 6.66-10v10h12l-12 6.74V40l-6.79-6.48L6 40l7.07-10.84L6 22h11.34Z" fill="#95999C"/><path d="M13.06 29.15 6 22l2 1 6.3 6.37-1.24-.22Z" fill="url(#acwovwqky)"/><path d="m36 22-12 6.74v10.6l-.36-.92v-9.97l9.9-5.45L36 22Z" fill="url(#bcwovwqky)"/><path d="M23.95 22H36h-.01l-2.49 1H23l.95-1Z" fill="url(#ccwovwqky)"/><path d="M24 22V12l-.25.39-.75 2.1V23l1-1Z" fill="url(#dcwovwqky)"/><path d="m6 22 2 1h10.1l5.16-8.5L24 12c-2.17 3.32-6.66 10-6.66 10H6Z" fill="#FEFEFE"/><path d="m6 40 7.06-10.83 1.2.24-6.53 8.85L6 40Z" fill="#DCDDE0"/><path d="M17.19 33.53 6 40l1.7-1.66 9.72-5.7-.23.9Z" fill="#53585E"/><path d="m24 40-.36-1.58-6.22-5.73-.22.84.01-.01L24 40Z" fill="url(#ecwovwqky)"/><path d="M36.29 26.44c0-.87 3.05-1.44 4.57-1.61-.3.35-.89 1.05-.7 1.09.21.04 2-.96 2.3-1.1.31-.12.45-.73.54-1.08.08-.35-1.07-.56-1.96-.56-.89 0-1.55.08-3.69.65-2.13.56-2.44 2.17-2.44 2.78 0 .6.71 1.22 2.53 1.44 2.58.34 2.8.73 2.89 1.08 0 .83-4.04 1.18-4.7 1.18-.54 0-.8-.06-.85-.1.01-.06.08-.25.22-.43-1.07.05-1.87.83-1.87 1.44 0 .6.98.78 2 .78 5.47 0 6.58-2.13 6.58-2.87 0-.74-.85-1.3-1.47-1.43-3.9-.87-3.95-1.09-3.95-1.26Z"/><path d="M36.15 26.26c0-.87 3.05-1.43 4.58-1.6-.31.34-.89 1.04-.71 1.08.22.04 2-.96 2.3-1.09.32-.13.45-.74.54-1.08.09-.35-1.06-.57-1.95-.57-.9 0-1.56.09-3.69.65-2.13.57-2.44 2.18-2.44 2.78 0 .61.7 1.22 2.53 1.44 2.57.35 2.8.74 2.89 1.08 0 .83-4.05 1.18-4.71 1.18-.54 0-.79-.06-.85-.09.02-.07.08-.26.23-.43-1.07.04-1.87.82-1.87 1.43 0 .6.98.78 2 .78 5.46 0 6.57-2.13 6.57-2.87 0-.73-.84-1.3-1.46-1.43-3.91-.87-3.96-1.09-3.96-1.26Z" fill="#E2211C"/><path d="m40.64 29.08-.22-.3c0 .04-.01.15-.05.22-.09.35-1.33.91-1.77 1.17 1.31-.31 1.9-.85 2.04-1.09Z" fill="url(#fcwovwqky)"/><path d="M26.26 30.25c.75-2.94 3.77-4.56 5.19-5-.2.24-.6.74-.6.9 0 .07.03.1.08.1.15 0 .5-.22 1.26-.75 1.06-.73 1.3-.98 1.3-1.3 0-.91-.7-1.03-.94-1.03-6.6 1.35-7.43 6.22-7.43 6.63 0 .41.2 1.93 1.33 1.93 1.14 0 3-1.8 3.38-2.21-.43 1.3-1.88 2.58-1.88 2.74 0 .17.55.74.67.74.11 0 .2-.04.27-.12a27.58 27.58 0 0 0 3.42-5.08c1.14-.13 1.69-.95 1.69-1.15 0-.2-.4-.33-1.22-.33-3.38 0-4.12 1.23-4.12 1.6 0 .37.94.25 1.1.33-1.58 1.55-2.95 2.46-3.19 2.46-.23 0-.31-.3-.31-.46Z"/><path d="M26.14 30.09c.75-2.95 3.77-4.56 5.19-5-.2.23-.6.74-.6.9 0 .06.03.1.09.09.14 0 .5-.22 1.25-.74 1.06-.74 1.3-.99 1.3-1.32 0-.9-.7-1.02-.94-1.02-6.6 1.35-7.43 6.23-7.43 6.64 0 .4.2 1.92 1.34 1.92 1.14 0 2.98-1.8 3.38-2.21-.44 1.31-1.9 2.58-1.9 2.75 0 .16.56.73.68.73s.2-.04.27-.12a27.59 27.59 0 0 0 3.42-5.08c1.14-.12 1.7-.94 1.7-1.15 0-.2-.4-.33-1.23-.33-3.38 0-4.12 1.23-4.12 1.6 0 .37.94.25 1.1.33-1.57 1.56-2.95 2.46-3.19 2.46-.23 0-.31-.29-.31-.45Z" fill="#E2211C"/><path d="M32.15 23.7v-.25c-2.9.08-4.56 2.09-5.81 3.98 1.95-2.89 4.69-3.7 5.81-3.73Z" fill="url(#gcwovwqky)"/><path d="M43.26 30.25c.75-2.94 3.77-4.56 5.19-5-.2.24-.6.74-.6.9 0 .07.03.1.08.1.15 0 .5-.22 1.26-.75 1.06-.73 1.3-.98 1.3-1.3 0-.91-.7-1.03-.94-1.03-6.6 1.35-7.43 6.22-7.43 6.63 0 .41.2 1.93 1.33 1.93 1.14 0 3-1.8 3.38-2.21-.43 1.3-1.88 2.58-1.88 2.74 0 .17.55.74.67.74.11 0 .2-.04.27-.12a27.58 27.58 0 0 0 3.42-5.08c1.14-.13 1.69-.95 1.69-1.15 0-.2-.4-.33-1.22-.33-3.38 0-4.12 1.23-4.12 1.6 0 .37.94.25 1.1.33-1.58 1.55-2.95 2.46-3.19 2.46-.23 0-.31-.3-.31-.46Z"/><path d="M43.14 30.09c.75-2.95 3.77-4.56 5.19-5-.2.23-.6.74-.6.9 0 .06.03.1.09.09.14 0 .5-.22 1.25-.74 1.06-.74 1.3-.99 1.3-1.32 0-.9-.7-1.02-.94-1.02-6.6 1.35-7.43 6.23-7.43 6.64 0 .4.2 1.92 1.34 1.92 1.14 0 2.98-1.8 3.38-2.21-.44 1.31-1.9 2.58-1.9 2.75 0 .16.56.73.68.73s.2-.04.27-.12a27.59 27.59 0 0 0 3.42-5.08c1.14-.12 1.7-.94 1.7-1.15 0-.2-.4-.33-1.23-.33-3.38 0-4.12 1.23-4.12 1.6 0 .37.94.25 1.1.33-1.57 1.56-2.95 2.46-3.19 2.46-.23 0-.31-.29-.31-.45Z" fill="#E2211C"/><path d="M49.15 23.7v-.25c-2.9.08-4.56 2.09-5.81 3.98 1.95-2.89 4.69-3.7 5.81-3.73Z" fill="url(#hcwovwqky)"/><path d="M16.88 27.62c.17 0-.01.43-.13.64 1.39-1.62 4.19-4.89 4.32-5.01.17-.16.73-.08 1.24.15.52.24.52.52.47.76-.04.24-1.24 4.3-1.24 4.9a35.78 35.78 0 0 1 5.56-5.81c.13 0 .9.51.9.91s-2.4 2.35-2.52 2.35c-.1 0-.22-.1-.26-.16a73.16 73.16 0 0 0-3.8 4.7c-.3.6-.65.95-.9.95-.2 0-.91-.19-1.24-.28l.98-5.85c-1.32 2.02-4.1 6.05-4.57 6.05-.6 0-.56-1.07-.56-1.03 0-1.95 1.54-3.27 1.75-3.27Z"/><path d="M16.75 27.46c.17 0-.01.42-.12.64a475.8 475.8 0 0 1 4.31-5.02c.18-.16.73-.08 1.24.16.52.24.52.52.47.76-.04.24-1.24 4.3-1.24 4.9a35.78 35.78 0 0 1 5.56-5.82c.13 0 .9.52.9.92s-2.4 2.35-2.52 2.35c-.1 0-.22-.11-.26-.16a73.16 73.16 0 0 0-3.8 4.7c-.3.59-.65.95-.9.95-.2 0-.91-.19-1.24-.28l.98-5.85c-1.32 2.02-4.1 6.05-4.57 6.05-.6 0-.56-1.08-.56-1.04 0-1.95 1.54-3.26 1.75-3.26Z" fill="#E2211C"/><path d="M15.86 28.7c-.13.43-.4 1.45-.43 2.02-.09-.12-.13-1.5.43-2.03Z" fill="url(#icwovwqky)"/><path d="m21.33 23.44-2.35 2.35c.6-.72 1.87-2.23 2.18-2.55.44 0 .78.13.9.2h-.73Z" fill="url(#jcwovwqky)"/><path d="m27.02 23.24.38.28-.34-.04-2.44 2.11 2.4-2.35Z" fill="url(#kcwovwqky)"/><path d="m35.62 25.05 2.66-1.12c-.09-.01-.5.06-.8.17-1.03.37-1.52.7-1.86.95Z" fill="url(#lcwovwqky)"/><defs><linearGradient id="acwovwqky" x1="6" y1="22.01" x2="14.15" y2="29.97" gradientUnits="userSpaceOnUse"><stop stop-color="#777C80"/><stop offset="1" stop-color="#909497"/></linearGradient><linearGradient id="bcwovwqky" x1="35.87" y1="22.09" x2="24.42" y2="40.52" gradientUnits="userSpaceOnUse"><stop stop-color="#585E62"/><stop offset="1" stop-color="#95999C"/></linearGradient><linearGradient id="ccwovwqky" x1="23.26" y1="22.84" x2="36.04" y2="22.84" gradientUnits="userSpaceOnUse"><stop stop-color="#B3B4B8"/><stop offset="1" stop-color="#DCDDDF"/></linearGradient><linearGradient id="dcwovwqky" x1="23.69" y1="12" x2="23.69" y2="23" gradientUnits="userSpaceOnUse"><stop stop-color="#1A1718"/><stop offset=".52" stop-color="#616365"/></linearGradient><linearGradient id="ecwovwqky" x1="17.17" y1="32.98" x2="24.15" y2="39.93" gradientUnits="userSpaceOnUse"><stop stop-color="#8D9295"/><stop offset="1" stop-color="#72787C"/></linearGradient><linearGradient id="fcwovwqky" x1="39.62" y1="28.78" x2="39.62" y2="30.17" gradientUnits="userSpaceOnUse"><stop stop-color="#FBD7C7"/><stop offset="1" stop-color="#EC563E"/></linearGradient><linearGradient id="gcwovwqky" x1="29.24" y1="23.45" x2="29.24" y2="27.43" gradientUnits="userSpaceOnUse"><stop stop-color="#FBD7C7"/><stop offset="1" stop-color="#EC563E"/></linearGradient><linearGradient id="hcwovwqky" x1="46.24" y1="23.45" x2="46.24" y2="27.43" gradientUnits="userSpaceOnUse"><stop stop-color="#FBD7C7"/><stop offset="1" stop-color="#EC563E"/></linearGradient><linearGradient id="icwovwqky" x1="15.62" y1="28.69" x2="15.62" y2="30.72" gradientUnits="userSpaceOnUse"><stop stop-color="#FBD7C7"/><stop offset="1" stop-color="#EC563E"/></linearGradient><linearGradient id="jcwovwqky" x1="20.52" y1="23.24" x2="20.52" y2="25.79" gradientUnits="userSpaceOnUse"><stop stop-color="#FBD7C7"/><stop offset="1" stop-color="#EC563E"/></linearGradient><linearGradient id="kcwovwqky" x1="26.01" y1="23.24" x2="26.01" y2="25.59" gradientUnits="userSpaceOnUse"><stop stop-color="#FBD7C7"/><stop offset="1" stop-color="#EC563E"/></linearGradient><linearGradient id="lcwovwqky" x1="36.95" y1="23.93" x2="36.95" y2="25.05" gradientUnits="userSpaceOnUse"><stop stop-color="#FBD7C7"/><stop offset="1" stop-color="#EC563E"/></linearGradient></defs></svg>