<!-- by TradingView --><svg width="56" height="56" viewBox="0 0 56 56" xmlns="http://www.w3.org/2000/svg"><path fill="#005B52" d="M0 0h56v56H0z"/><path fill-rule="evenodd" d="M28 10 10 28h8.18a10.23 10.23 0 0 1 19.64 0H46L28 10Zm7 24H22.12c-.23 1.68-.03 6.35 4.6 7.74 4.7 1.25 7.47-2.13 8.26-3.97-1.54 6.94-7.46 6.26-8.24 6.17h-.06a6.5 6.5 0 0 1-1.12-.22l-.21-.05c-5-2.16-5.32-6.8-5.35-8.65-.03-1.86 1.65-9.02 7.93-9.02 5.02 0 6.81 5.47 7.07 8Zm-2.74-1h-10.1c0-1.6 1.35-5 5.45-5 3.28 0 4.44 3.1 4.65 5Z" fill="#E2DDCC"/></svg>