<!-- by TradingView --><svg width="56" height="56" viewBox="0 0 56 56" xmlns="http://www.w3.org/2000/svg"><path fill="#F0F3FA" d="M0 0h56v56H0z"/><path d="M11 23.35v4.18c.57-.04.75-.31.75-2.03 0-1.72-.2-2.11-.75-2.15Zm1.87 9.29h.2V33h-.92c-.27 0-.4-.28-.4-.6v-3.42c0-.89-.15-1.2-.75-1.22v4.88h.35V33H9.63v-.36H10v-9.3h-.37V23h1.19c1.28 0 1.9 1.41 1.9 2.52 0 1.17-.55 1.89-1.28 2.14.5.13.87.41 1.04.83.11.32.16.66.16 1.35v2.52c0 .22.06.28.23.28Zm26.4-.64c-.47 0-1.2.2-1.2.52 0 .43.94.48 1.2.48s1.2-.05 1.2-.48c0-.44-.91-.52-1.2-.52Zm5.95-9v.34h.03c.46.1.54.29.54 1.26v4.47L44.5 23h-1.15v.35h.46v7.53c0 1.52-.1 1.67-.57 1.76h-.04V33h1.39v-.35l-.03-.01c-.4-.06-.52-.27-.52-.93l-.04-.84v-5.88L45.8 33h.2v-7.9c0-1.47.16-1.7.6-1.76V23h-1.38Zm-6.41 3.98.01 1.92c.01 1 .05 1.38.14 1.56.06.13.17.2.31.2.16 0 .3-.13.34-.32.06-.22.07-.43.08-1.01l.01-.63.02-.57.01-1.16-.01-1.14a39.23 39.23 0 0 0-.05-1.82c-.04-.64-.25-.7-.4-.7-.17 0-.31.12-.36.32-.05.2-.06.42-.07 1-.02.56-.03 1.72-.03 2.35Zm1.64-2.44c.15.67.25 1.7.25 2.44a9.7 9.7 0 0 1-.45 3.08c-.21.57-.55.94-.98.94-.3 0-.58-.22-.77-.5a3.1 3.1 0 0 1-.42-1.08c-.15-.72-.25-1.66-.25-2.44 0-1.15.17-2.3.45-3.07.19-.56.55-.91.99-.91.3 0 .57.19.76.47.17.27.3.58.42 1.07ZM32 23v3h.3c.03-.67.13-1.36.27-1.83.13-.44.22-.69.43-.78v9.25h-.38V33h1.76v-.36H34v-9.26c.41.16.63 1.15.72 2.62H35v-3h-3Zm-3.45 4.45c-.85-1.8-1.06-2.4-1.06-3.14 0-.35.08-.64.23-.8a.4.4 0 0 1 .3-.15c.49 0 .86.95 1.06 2.67v.04h.2V23h-.2v.24c-.02.5-.05.58-.11.58-.03 0-.06 0-.1-.1l-.11-.16c-.24-.35-.47-.56-.75-.56-.62 0-1.06.85-1.06 2 0 .84.22 1.61.82 2.95.44.98.58 1.33.76 1.86.26.72.37 1.26.37 1.74 0 .7-.2 1.06-.55 1.06-.32 0-.58-.35-.82-1.16a11.3 11.3 0 0 1-.36-2v-.05H27v3.47h.17v-.05c.03-.63.08-.73.18-.73.06 0 .08 0 .23.25.28.45.5.66.8.66.2 0 .4-.16.57-.35.33-.37.53-1.07.53-1.89a8.5 8.5 0 0 0-.94-3.31ZM23.28 23v.34h.03c.37.1.5.26.5.6 0 .16-.04.46-.1.75l-.5 2.63-.74-3.97h.38V23h-1.58v.35h.36l.87 4.55v4.73h-.47V33h1.75v-.37h-.45V27.9l.6-3.2c.17-.91.35-1.24.74-1.36h.03V23h-1.42ZM49 23v.35h.53v9.28H49V33h3v-3.4h-.22v.03a6.55 6.55 0 0 1-.4 2.33c-.18.44-.41.63-.87.67V27.7c.38.02.53.34.62 1.89v.25h.2v-4.3h-.2v.04c-.07 1.54-.27 1.87-.63 1.89v-4.11c.53.03.7.14.9.53.17.37.31 1 .4 2.12h.2v-3h-3Zm-33.25 0v.35H16v9.28h-.25V33h2.8v-3.4h-.22v.03a6.62 6.62 0 0 1-.4 2.33c-.18.44-.47.63-.93.67V27.7c.37.02.59.34.67 1.89l.02.2v.05h.2v-4.3h-.2v.04c-.08 1.54-.34 1.87-.69 1.89v-4.11c.52.03.75.14.95.53.17.37.3.84.4 1.97v.04h.2V23h-2.8ZM6.9 28.41v.23h-.37c0 1.59-.08 3.47-.66 4.12a.64.64 0 0 1-.5.24c-.33 0-.61-.3-.83-.93-.33-.88-.55-2.54-.55-4.13 0-1.8.26-3.49.66-4.32.21-.43.43-.62.71-.62.24 0 .37.14.53.57.04.12.07.12.1.12.07 0 .1-.07.13-.53v-.04h.2v2.94h-.2v-.04c-.11-.94-.27-1.79-.45-2.38-.08-.26-.19-.42-.28-.42-.18 0-.27.2-.34.67C5 24.73 5 26.47 5 27.72c0 2.25 0 3.61.05 4.31.04.45.17.72.35.72.23 0 .34-.42.34-1.25v-2.86h-.46v-.23H6.9Z" fill="#3C4D4F"/></svg>