<!-- by TradingView --><svg xmlns="http://www.w3.org/2000/svg" width="56" height="56" viewBox="0 0 56 56"><path fill="#FFF200" d="M0 0h56v56H0z"/><path d="M17.5 30.15V20H15v10.2c-.02.54.06 1.1.23 1.6.17.51.44.97.78 1.35.58.56 1.3.86 2.06.85H19v-2.5c-1.53 0-1.56-.93-1.5-1.35zM6.46 28.98c0 1.64 1.06 2.77 2.58 2.77 1.49 0 2.54-1.17 2.54-2.77s-1.05-2.77-2.54-2.77a2.54 2.54 0 0 0-1.87.82 2.65 2.65 0 0 0-.71 1.95zm-2.46 0C4 26.08 6.12 24 9 24c2.92 0 5 2.08 5 4.98V34h-2.42v-1.04A4.68 4.68 0 0 1 8.62 34C5.95 34 4 31.88 4 28.98zM21.77 20c-.4 0-.8.17-1.08.48-.29.3-.45.73-.45 1.16.06.38.25.73.52.98.28.24.62.38.98.38s.7-.14.98-.38c.28-.25.46-.6.52-.98 0-.42-.15-.84-.43-1.14-.27-.3-.65-.49-1.04-.5zM23 34h-2.5V24H23v10zm6-10c-2.8 0-4.87 1.82-5 4.5h2.5c.02-.66.3-1.15.78-1.6a2.5 2.5 0 0 1 1.76-.69c.66 0 1.28.25 1.76.7.47.45.75.94.78 1.59H34c-.13-2.68-2.2-4.5-5-4.5zm-.2 7.52c1.11.1 2.26-.46 2.66-1.52H34v5c0 1.44-1.67 4-5 4-2.67 0-4.62-1.54-4.96-4h2.5c.13.56.44.86.88 1.23a2.54 2.54 0 0 0 4.08-1.4c.06-.33.09-.67.08-1.01v-1.07a4.82 4.82 0 0 1-2.96 1.02c-1.12.01-2.2-.39-3.04-1.12A4.08 4.08 0 0 1 24.04 30h2.54c.3.84 1.38 1.45 2.22 1.52zm11.24-8.05c-.88 0-1.83.28-2.54.82V20H35v14h2.5v-6.07a2.05 2.05 0 0 1 2.1-2.1c1.13 0 1.9.99 1.9 2.1V34H44v-6.2c0-.1-.01-.2-.03-.29l-.02-.21c-.13-1.05-.37-2.02-1.14-2.72a4.17 4.17 0 0 0-2.77-1.11zm7.46 6.48V26h2v-2.5h-2V21H45v8.95a4.38 4.38 0 0 0 1.3 3.3c.73.61 1.67.78 2.64.75H50v-2.38l-.5.05c-1.01.14-2.11-.63-2-1.72z"/></svg>