<!-- by TradingView --><svg width="56" height="56" viewBox="0 0 56 56" xmlns="http://www.w3.org/2000/svg"><path fill="#F0F3FA" d="M0 0h56v56H0z"/><path d="m8.35 34.27-.76 2.6c-.04.13.08.25.2.2l3.51-1.55a.56.56 0 0 1 .27-.05L46.71 38c.32.02.6-.24.63-.59L49 18.71c.03-.4-.27-.73-.64-.7l-40.8 2.91c-.34.03-.6.36-.56.73L8.38 34a.7.7 0 0 1-.03.27Z" fill="#5E29BA"/><path d="M17 29.33v-.12c0-.68-.46-1.18-1.2-1.4l-2.21-.67c-.28-.09-.48-.26-.48-.42v-.13c0-.48.44-.57 1.32-.59h.08c.89 0 1.34.07 1.4.5v.07h.95v-.07c-.05-1-.84-1.5-2.35-1.5h-.1c-1.48.02-2.23.55-2.23 1.59v.13c0 .58.4 1.03 1.13 1.24l2.2.67c.37.11.49.3.49.58v.12c0 .72-1 .67-1.5.67-.53 0-1.5.05-1.5-.67v-.09h-1v.1c0 1.28 1.44 1.66 2.5 1.66 1.04 0 2.5-.37 2.5-1.67ZM35 31h-1v-2.63h-3V31h-1v-6h1v2.5h3V25h1v6ZM24 29.15V27h-1v1.91c0 .55 0 1.09-.48 1.09-.49 0-.52-.55-.52-1.09V27h-1v2.15c0 1.02.42 1.83 1.52 1.85 1.09-.04 1.48-.86 1.48-1.85ZM39 29.15V27h-1v1.91c0 .55 0 1.09-.48 1.09-.49 0-.52-.55-.52-1.09V27h-1v2.15c0 1.02.42 1.83 1.52 1.85 1.09-.04 1.48-.86 1.48-1.85ZM20 27h-1v1.86c0 .63.39 1.05 1 1.14v1c-1.09-.1-2-.82-2-1.97V25h1v1h1v1ZM26 27.42c.27-.28.53-.42 1-.42 1.32 0 2 .68 2 2.02l-.01.21c-.1 1.06-.9 1.77-2 1.77-1.16 0-1.99-.82-1.99-1.98V25h1v2.42Zm1 .58a1 1 0 1 0 0 2 1 1 0 0 0 0-2ZM41 27.42c.27-.28.53-.42 1-.42 1.32 0 2 .68 2 2.02l-.01.21c-.1 1.06-.9 1.77-2 1.77-1.16 0-1.99-.82-1.99-1.98V25h1v2.42Zm1 .58a1 1 0 1 0 0 2 1 1 0 0 0 0-2Z" fill="#fff"/></svg>