<!-- by TradingView --><svg width="56" height="56" viewBox="0 0 56 56" xmlns="http://www.w3.org/2000/svg"><path fill="#F0F3FA" d="M0 0h56v56H0z"/><path d="m6.21 33.25-1.78.73c-.26.1-.52-.17-.4-.43l4.62-10.36a.31.31 0 0 1 .57 0l3.75 8.6c.08.18-.02.4-.2.44l-1.61.41a.3.3 0 0 1-.24-.04l-2.31-1.4a.1.1 0 0 1 .02-.2l1.35-.46-1.04-2.67-2.56 5.23a.32.32 0 0 1-.17.15ZM16.77 30.46l-1.4.37a.3.3 0 0 1-.37-.3V21.3c0-.27.31-.41.5-.23l5.5 5.2v-4.97c0-.17.13-.3.3-.3h1.4c.17 0 .3.13.3.3v9.38c0 .28-.32.41-.51.22L17 25.25v4.91a.3.3 0 0 1-.23.3ZM33.7 24.5h-3.4a.3.3 0 0 0-.3.3v1.4c0 .17.13.3.3.3H32v1c-.4.4-1.17.5-1.5.5-1.5 0-2.5-1-2.5-2.5s1-2.5 2.5-2.5c.82 0 1.37.15 1.7.3.16.08.4.05.5-.1l.63-.95a.28.28 0 0 0-.09-.4A6.04 6.04 0 0 0 30.5 21C29 21 26 22 26 25.5s2.5 4.5 4.5 4.5c1.6 0 3-.67 3.5-1v-4.2a.3.3 0 0 0-.3-.3ZM42.72 21.48l-5.4-.45a.3.3 0 0 0-.32.3v8.49c0 .14.1.27.25.3l5.4.9a.3.3 0 0 0 .35-.3v-1.39a.3.3 0 0 0-.26-.3L39 28.56v-2.02l2.65.45a.3.3 0 0 0 .35-.3v-1.4a.3.3 0 0 0-.25-.3L39 24.53v-1.51l3.66.46a.3.3 0 0 0 .34-.3v-1.4a.3.3 0 0 0-.28-.3ZM47.77 23.35l-1.4-.34a.3.3 0 0 0-.37.28v8.11c0 .14.1.25.23.28l5.4 1.31a.3.3 0 0 0 .37-.28v-1.34a.3.3 0 0 0-.23-.28L48 30.18v-6.55a.3.3 0 0 0-.23-.28Z"/></svg>