<!-- by TradingView --><svg width="56" height="56" viewBox="0 0 56 56" xmlns="http://www.w3.org/2000/svg"><path fill="#F0F3FA" d="M0 0h56v56H0z"/><path d="m28 47 18-30H10l18 30Z" fill="#005838"/><path fill-rule="evenodd" d="M32.24 17c0 .6-.48 1.07-1.06 1.07-.59 0-1.06-.48-1.06-1.07h2.12Zm10.56 5.33c-1.08-.6-2.14-1.34-3.13-2.02-1.72-1.19-3.24-2.24-4.32-2.24-1.35 0-2.75 1.66-3.62 3v-1.93h-1.08v1.97c-.87-1.35-2.29-3.04-3.64-3.04-1.09 0-2.6 1.05-4.33 2.24-1.64 1.13-3.46 2.4-5.27 3 .57.26 2 .62 3.6.46l.35.12c.51.19.74.26 1.6.1.53.13 2 .33 3 .45a2.34 2.34 0 0 0 1.2 4.35h.2a2.41 2.41 0 0 0 .81 4.63 2.47 2.47 0 0 0 1.14 4.6A2.3 2.3 0 0 0 28 40.1c0 1.24 1.25 2.69 2.5 2.75l1.23-2.07v-1.79c.33.09.61.25.8.46l.78-1.3a2.3 2.3 0 0 0-.25-.13c.12 0 .24-.02.35-.04l1.9-3.15c-.2-.6-.6-1.1-1.13-1.41a2.41 2.41 0 0 0 .81-4.63h.2a2.34 2.34 0 0 0 1.2-4.35c1-.12 2.48-.32 3.01-.46.86.17 1.08.1 1.6-.09l.34-.12.57.04.9-1.48ZM29.56 40.1c0-.51.46-.95 1.09-1.11v2.22c-.63-.16-1.09-.6-1.09-1.11Zm1.09-5.9c-.92.17-1.6.8-1.6 1.55s.68 1.38 1.6 1.56v-3.12Zm1.08 3.1c.9-.18 1.56-.8 1.56-1.55 0-.74-.66-1.37-1.56-1.55v3.1ZM28 30.4c0-.8 1.15-1.46 2.65-1.6v3.18c-1.5-.13-2.65-.8-2.65-1.59Zm3.73-1.59v3.17c1.5-.14 2.62-.8 2.62-1.59s-1.13-1.45-2.62-1.58Zm-1.08-3.78c-.26.56-1 .6-1.41.6-1.56 0-2.3.5-2.3.91 0 .85 2.18 1.12 3.7 1.17v-2.68Zm1.08 2.68c1.52-.05 3.68-.32 3.68-1.17 0-.4-.79-.92-2.35-.92-.37 0-1.02-.03-1.33-.46v2.55Z" fill="#8BADA2"/><path d="M20 19H22.64l1.41 6.8 1.43-6.8H27v10h-1.41v-8.5l-1.8 8.5h-.42l-1.92-8.7v8.26h.87V29H20v-.44h1.03v-9.12H20V19Z" fill="#F0F3FA"/><path d="M31.2 19c1 0 1.8 1.04 1.8 2.33v.9c0 1.28-.8 2.77-1.8 2.77H30v3.56h1V29h-6.25v-.44h3.75v-9.12h-2.28V19h4.98ZM30 24.56c.85 0 1.46-1.2 1.46-2.12v-1.33c0-.92-.61-1.67-1.46-1.67v5.12ZM36.6 19h2.05v3.33h-.52v-.92c0-1.03-.6-1.85-1.37-1.85h-.17v9h.81V29h-3.37v-.44h1.02v-9h-.17c-.75 0-1.37.82-1.37 1.85v.92H33V19h3.59Z" fill="#F0F3FA"/></svg>