<!-- by TradingView --><svg width="56" height="56" viewBox="0 0 56 56" xmlns="http://www.w3.org/2000/svg"><path fill="#F0F3FA" d="M0 0h56v56H0z"/><path d="M20 24.48 23 26V14.1a2.6 2.6 0 0 0-1.53-2.44L18 10l.96.8c.46.4 1.04 1 1.04 1.64v12.04Z" fill="#E80000"/><path d="M31.52 20 30 23h11.9a2.6 2.6 0 0 0 2.44-1.53L46 18l-.8.96c-.4.46-1 1.04-1.64 1.04H31.52ZM24.48 36 26 33H14.1a2.6 2.6 0 0 0-2.44 1.53L10 38l.8-.96c.4-.46 1-1.04 1.64-1.04h12.04Z" fill="#0065A4"/><path d="M36 31.52 33 30v11.9c0 1.09.6 2.06 1.53 2.44L38 46l-.96-.8c-.46-.4-1.04-1-1.04-1.64V31.52ZM29.55 25 28 28h11.84c1.1 0 2.08-.64 2.47-1.6L44 23l-.82 1c-.4.5-1.01 1-1.66 1H29.55Z" fill="#E80000"/><path d="M25 26.45 28 28V16.16c0-1.1-.64-2.08-1.6-2.47L23 12l1 .82c.5.4 1 1.01 1 1.66v11.97Z" fill="#0065A4"/><path d="M26.45 31 28 28H16.16c-1.1 0-2.08.64-2.47 1.6L12 33l.82-1c.4-.5 1.01-1 1.66-1h11.97Z" fill="#E80000"/><path d="M31 29.55 28 28v11.84c0 1.1.64 2.08 1.6 2.47L33 44l-1-.82c-.5-.4-1-1.01-1-1.66V29.55Z" fill="#0065A4"/></svg>