<!-- by TradingView --><svg width="56" height="56" viewBox="0 0 56 56" xmlns="http://www.w3.org/2000/svg"><path fill="#FF2E00" d="M0 0h56v56H0z"/><path d="M10 22a1 1 0 0 1 1 1v1h3a1 1 0 1 1 0 2h-3v3c0 .34.11.87.41 1.3.27.36.72.7 1.59.7h1a1 1 0 1 1 0 2h-1a3.78 3.78 0 0 1-3.21-1.54C9.19 30.63 9 29.66 9 29v-3H8a1 1 0 1 1 0-2h1v-1a1 1 0 0 1 1-1Z" fill="#fff"/><path d="M17 24a1 1 0 0 1 1 1v4c0 .37.1.9.38 1.3.24.35.68.7 1.62.7.94 0 1.38-.35 1.62-.7.28-.4.38-.93.38-1.3v-4a1 1 0 1 1 2 0v4c0 .63-.15 1.6-.74 2.45-.64.9-1.7 1.55-3.26 1.55a3.77 3.77 0 0 1-3.26-1.55A4.38 4.38 0 0 1 16 29v-4a1 1 0 0 1 1-1ZM27 25a1 1 0 1 0-2 0v4c0 .63.15 1.6.74 2.45.64.9 1.7 1.55 3.26 1.55.75 0 1.39-.15 1.92-.4-.09.27-.24.52-.46.72-.39.34-1.12.68-2.46.68a1 1 0 1 0 0 2c1.66 0 2.93-.41 3.8-1.2A3.7 3.7 0 0 0 33 32v-7a1 1 0 1 0-2 0v4c0 .37-.1.9-.38 1.3-.24.35-.68.7-1.62.7-.94 0-1.38-.35-1.62-.7-.28-.4-.38-.93-.38-1.3v-4ZM38.5 31c.52 0 1 .46 1 .98v.16c0 .49-.37.87-.85.86h-.15a4.5 4.5 0 1 1 0-9c2.05 0 4.5 1.77 4.5 4v4a1 1 0 0 1-2 0v-3.5a2.5 2.5 0 1 0-2.5 2.5ZM41.16 20.2a1.02 1.02 0 0 1-1.15-.9c-.08-.58.3-1.12.86-1.2 3.87-.58 7.55 1.5 8.12 5.69.08.58-.3 1.12-.86 1.2a1.02 1.02 0 0 1-1.15-.9c-.42-3.04-3.05-4.3-5.82-3.89Zm-.14 1.6c0-.58.45-1.06 1.01-1.06 1.76 0 3.59 1.07 4.04 2.94.13.57-.2 1.15-.74 1.29-.55.14-1.1-.2-1.24-.78-.21-.9-1.24-1.32-2.06-1.32-.56 0-1.01-.47-1.01-1.06Z" fill="snow"/></svg>