<!-- by TradingView --><svg xmlns="http://www.w3.org/2000/svg" width="56" height="56" viewBox="0 0 56 56"><path fill="#F0F3FA" d="M0 0h56v56H0z"/><path d="M20.7 13H34l-8.89 9a5.78 5.78 0 0 1-4.4 2A5.6 5.6 0 0 1 15 18.5a5.6 5.6 0 0 1 5.4-5.5h.3Z" fill="#00B2D7"/><path d="M35.3 43H22l8.89-9a5.78 5.78 0 0 1 4.4-2A5.6 5.6 0 0 1 41 37.5a5.6 5.6 0 0 1-5.4 5.5h-.3Z" fill="#6ABF4A"/><path d="M38.95 22.77C40 21.5 41 20.24 41 18.53c0-2.7-1.99-5.08-4.6-5.53L16.37 33.81A6 6 0 0 0 15 37.63 5.5 5.5 0 0 0 19.53 43l19.42-20.23Z" fill="#646569"/></svg>