<!-- by TradingView --><svg width="56" height="56" viewBox="0 0 56 56" xmlns="http://www.w3.org/2000/svg"><path fill="#0AC0DD" d="M0 0h56v56H0z"/><path d="M44.19 15h.02c-.12.85-.32 1.7-.59 2.51a11.12 11.12 0 0 1-1.6 3.23 6.25 6.25 0 0 1-2.03 1.78 7.8 7.8 0 0 1-3.78.9c.53-1.5 1.23-2.95 2.2-4.22a7.02 7.02 0 0 1 2.24-2c-.27.1-.52.23-.76.37-.76.47-1.4 1.11-1.96 1.81-.74.92-1.34 1.95-1.84 3.03.06-.77.21-1.53.48-2.25.33-.9.86-1.74 1.55-2.41a9.06 9.06 0 0 1 2.62-1.72c1.1-.5 2.26-.83 3.45-1.03ZM31.57 15.56c1.01.4 1.97.95 2.83 1.63a5.99 5.99 0 0 1 1.97 2.48c.02.06.07.12.04.19a9.3 9.3 0 0 0-.5 1.99 16.13 16.13 0 0 0-1.61-2.97c-.3-.4-.62-.8-1.02-1.1a25.76 25.76 0 0 1 2 3.26c.23.5.46 1.01.56 1.56.02.24 0 .48 0 .72a5.71 5.71 0 0 1-2.87-1.92 7.07 7.07 0 0 1-1.22-3c-.17-.93-.23-1.89-.18-2.84ZM6.8 23.02l6.02-.02a3.1 3.1 0 0 1 1.78.48c.35.25.58.66.6 1.08.04.58-.05 1.22-.46 1.65-2.03 2.5-4.4 5.29-6.43 7.79h6.45c.2.76.4 1.2.6 1.96l-4.6.01c-.36.02-.72 0-1.08.01-.45.02-.9 0-1.33.02-.26 0-.5.01-.76-.03a1.83 1.83 0 0 1-1.22-.58c-.35-.4-.43-.99-.33-1.5.1-.57.61-1.06.95-1.52.48-.63.99-1.24 1.49-1.86 1.41-1.74 3.13-3.76 4.54-5.51H8.48c-.52-.24-.9-.41-1.18-.89-.2-.34-.38-.7-.5-1.09ZM41.33 24.78a5.84 5.84 0 0 1 6.67.59v-1.21c.72.15 1.43.47 1.96 1L50 36c-.52-.07-.96-.4-1.33-.76a5.6 5.6 0 0 1-.64-.7 5.81 5.81 0 0 1-9.55-3.83c-.13-1.19.05-2.41.57-3.48a5.72 5.72 0 0 1 2.28-2.45Zm2.33 1.27c-.58.09-1.14.32-1.61.68a3.77 3.77 0 0 0-1.38 2.33 4.67 4.67 0 0 0 .43 3.02c.4.74 1.06 1.33 1.84 1.61 1.14.42 2.49.27 3.47-.46.51-.37.9-.9 1.15-1.48a4.68 4.68 0 0 0-.22-4.02 3.48 3.48 0 0 0-1.32-1.28 3.77 3.77 0 0 0-2.36-.4Z" fill="#fff"/><path d="M17.27 24.95c1-.66 2.21-.99 3.4-.95a5.31 5.31 0 0 1 4.47 2.37c.28.4.5.82.68 1.26l-7.63 4.35c-.15-.8-.05-1.72.48-2.37L23 27.14c-.31-.37-.69-.7-1.14-.88a3.54 3.54 0 0 0-1.41-.24 3.6 3.6 0 0 0-3.6 3.2 4.8 4.8 0 0 0 .27 2.52 3.53 3.53 0 0 0 2.76 2.2c.6.08 1.21.04 1.8-.1a3 3 0 0 0 1.65-1.07c.54-.69.8-1.55.96-2.4A2.45 2.45 0 0 1 25.92 32a5.07 5.07 0 0 1-1.61 2.5 5.9 5.9 0 0 1-3.33 1.48 5.89 5.89 0 0 1-5.8-3.33 6.4 6.4 0 0 1-.05-5.18 5.77 5.77 0 0 1 2.14-2.52ZM31.3 24.01 35 24c.25 0 .46.2.6.4.1.17.19.37.12.57l-3.4 9.34c-.12.3-.21.62-.36.91-.14.28-.35.53-.64.65-.33.14-.7.14-1.04.12a1.27 1.27 0 0 1-.88-.36c-.32-.33-.46-.8-.62-1.23l-3.83-10.36c.61 0 1.23.1 1.79.37.35.16.67.41.87.75.1.15.14.31.2.47l2.74 7.47c.84-2.42 1.68-4.68 2.52-7.1h-.43c-.7-.33-1.15-1.23-1.34-1.99ZM36 24c.74.05 1.53.4 2 1v11a2.38 2.38 0 0 1-.97-.33 2.12 2.12 0 0 1-.95-.96c-.07-.15-.07-.32-.08-.47V24Z" fill="#fff"/></svg>