<!-- by TradingView --><svg width="56" height="56" viewBox="0 0 56 56" xmlns="http://www.w3.org/2000/svg"><path fill="#F0F3FA" d="M0 0h56v56H0z"/><path d="M13.12 31.66c.9.58.65 1.17.65 1.39-.22.79-.65 2.55-.65 3.27 0 .91 1.18 1.53 2 1.99.66.36 3.33 1.93 4.58 2.67 1.42 1.42 5.15 3.96 8.68 2.66 4.4-1.61 6.14-.48 8.33-1.08 2.19-.6 1.99-3.06 3.9-5.64 1.9-2.58 3.63-4.8 3.63-5.75 0-.96-.39-1.45.1-3.2.48-1.74.66-3.45.66-4.3 0-.68-.77-2.5-1.15-3.33-.64-1.04-2.35-3.25-4.13-3.82a20.03 20.03 0 0 1-5.96-3.4c-1.31-1.1-4.24-1.12-6.57-1.12-2.34 0-3.75.47-4.34 1.25a15.2 15.2 0 0 1-2.18 2.22c-.96.86-5.41 2.15-7.9 3.66-2.5 1.5-2.77 4.7-2.77 7.87s2.22 4.07 3.12 4.66Z" fill="#8F6A25"/><path d="M14.6 31.25c-.18-.35-1.75-.6-1.37-2.96.39-2.37.5-3.8.56-4.57.07-.77-.56-.77 0-1.64.56-.87.49-1.25 1.71-1.95s3.63-2.2 3.88-2.44c.24-.24 2.06-2.26 4.5-2.96 2.45-.7 4.06-.98 4.93-.94.87.03 5.2 1.64 5.87 2.23.47.42.8 1.1 1.03 1.44.18.15.26.23.23.23-.06 0-.14-.09-.23-.23-.78-.62-3.37-2.35-4.73-2.52-1.68-.21-3.08-.7-4.37-.21-1.3.49-3.21 1.04-3.67 1.29-.45.24-3.46 2.3-4.08 3.1-.63.8-2.94 4.46-3.6 7.63-.67 3.18 1.08 6.56.66 6.2-.42-.34 2.59 4.02 2.94 4.57.34.56.62 2.1-.56 1.05-1.2-1.05-1.96-1.15-2.38-2.37-.42-1.22-.67-4.45-1.33-4.95Z" fill="#CBA34C"/><path d="M41.1 23.36c-.36-1.22-3.28-4.7-4.7-6.3-.92-.93-3.16-2.85-4.78-3.08-2.02-.29-.74-1.1.62-.74 1.36.37 7 3.5 8.53 4.36 1.53.87 2.68 3.37 3.22 4.28.53.9.33 3.25.24 4.56-.08 1.32-.45 3.38-.24 4.2.2.82-.25 1.15-.91 2.14-.66.99-2.93 4.32-3.34 5.02-.41.7-1.85 3.25-2.64 3.99-.78.74-2.3 0-3.46 0-1.15 0-5.6.9-7.05.82-1.44-.08-6.84-2.39-7.04-2.8-.21-.41 1.36-.2 1.77.41.41.62 4.66 1.44 5.85 1.57 1.2.12 4.86-.62 5.98-.74 1.1-.13 3.25-1.24 3.95-1.44.7-.21 4-5.02 4.37-5.93.37-.9.62-3.58.74-4.4.13-.82-.66-4.4-1.1-5.92Z" fill="#BE9441"/><path d="M32.2 12.8c-1.5-.39-.8.53-.7.74.6.37 1.97 1.15 2.67 1.31.88.2 3.8 2.03 4.94 2.8 1.13.77 4.22 3.75 4.79 3.98.56.23-.08-.67-.18-1-.1-.34-1.73-2.47-2.22-2.98-.49-.52-2.54-1.18-3.08-1.39-.54-.2-3.14-1.67-3.66-2.2-.51-.55-1.08-.88-2.57-1.26Z" fill="#FFF797"/><path d="M20.16 38.1c-4.25-2.91-4.55-7.24-4.4-7.46-.58 0-.15 2.88 0 3.79.15.9 1.52 2.76 2.73 3.66 1.22.91 3.31 2.37 4.62 2.97 1.3.6 2.88-.09 2.97-.27.1-.18-1.67.21-5.92-2.7Z" fill="#FBF193"/><ellipse cx="28.24" cy="28.25" rx="12.65" ry="12.63" fill="#98702A"/><path fill-rule="evenodd" d="M28.5 41a12.5 12.5 0 1 0 0-25 12.5 12.5 0 0 0 0 25Zm0-1a11.5 11.5 0 1 0 0-23 11.5 11.5 0 0 0 0 23Z" fill="url(#asmeingat)"/><path fill-rule="evenodd" d="M18.76 24h5.18c1.6-.06 5.06.72 5.06 4.39 0 4.58-4.45 4.61-5.83 4.61h-4.4v-.24h.67c.24 0 .47-.49.56-.73v-6.88c0-.38-.49-.8-.74-.96h-.5V24Zm.95.17h2.58c-.28.13-.79.45-.79.7v7.34l.02.02c.14.17.4.5.7.6h-2.38c.2-.1.66-.36.66-.62v-7.35a2.66 2.66 0 0 0-.79-.7Zm2.29.93v6.85c.12.27.49.8.97.8h.22c.65.01 1.7.03 2.12-.36A6.17 6.17 0 0 0 27 28.15c0-2.22-2.11-3.91-2.92-3.91h-1.25c-.28.07-.83.34-.83.86Zm5.6 3.45c0-2.28-1.6-3.74-2.4-4.18 1.08.3 3.25 1.5 3.25 3.82 0 3.06-1.97 4.12-2.96 4.27.7-.35 2.1-1.62 2.1-3.9Z" fill="#EAC27D"/><path d="M29 24v.31c.47 0 .8.46.97.72l.03.04v7.02c0 .32-.42.58-.61.67H29V33h4.17v-.24h-.65c-.4 0-.8-.45-.94-.67v-3.85h1.8c.46.18 1.38.73 1.38 1.45V30H35v-3.45h-.24v2.18c-.32-.26-1.03-.73-1.38-.73h-1.8v-2.6c0-.6.53-1.09 1.19-1.09h1.7c.99 0 1.83 1.47 2.12 2.2h.24L36.59 24H29Zm.6.24h2.32c-.22.15-.67.52-.67.84v7.07c.1.18.32.54.52.54h-1.71c.07-.11.23-.37.23-.54v-7.07a2.74 2.74 0 0 0-.69-.84Zm5.65.02h1l.22 1.25a6.01 6.01 0 0 0-1.22-1.25Z" fill="#EAC27D"/><defs><linearGradient id="asmeingat" x1="16.16" y1="32.36" x2="39.07" y2="21.44" gradientUnits="userSpaceOnUse"><stop stop-color="#754E13"/><stop offset="1" stop-color="#E6CA76"/></linearGradient></defs></svg>