<!-- by TradingView --><svg width="56" height="56" viewBox="0 0 56 56" xmlns="http://www.w3.org/2000/svg"><path fill="#F0F3FA" d="M0 0h56v56H0z"/><path d="M11 31.97v-7.94c0-.02.01-.03.03-.03h4.94c.02 0 .03.03.03.04v1.57c0 .02-.01.03-.03.03l-3.44-.01c-.02 0-.03.01-.03.03v1.45c0 .02.01.03.03.03h3.44c.02 0 .03.01.03.03v1.49c0 .02-.01.03-.03.03h-3.44c-.02 0-.03.01-.03.03v1.6c0 .02.01.03.03.03h3.44c.02 0 .03.01.03.03v1.59c0 .02-.01.03-.03.03h-4.94c-.02 0-.03-.01-.03-.03ZM23.72 31.8h-1.61c-.02 0-.04-.01-.04-.04l-.91-4.73h-.03l-.93 4.73c0 .03-.02.05-.04.05h-1.51c-.02 0-.04-.02-.04-.05L17 24.07c-.02-.03 0-.07.03-.07h1.57c.02 0 .03.02.04.04l.78 4.14h.02l.76-4.14c0-.02.02-.04.04-.04h1.73c.02 0 .03.02.04.04l.86 4.14h.03l.84-4.14c0-.02.02-.04.04-.04h1.54c.03 0 .05.04.04.07l-1.6 7.7c-.01.02-.03.04-.05.04ZM29.06 26.11c-.03.03-.07.03-.1 0a1.5 1.5 0 0 0-.49-.42 1.36 1.36 0 0 0-.96-.14.77.77 0 0 0-.51.36.7.7 0 0 0-.1.37c0 .13.03.24.08.32.04.09.11.16.2.23l.33.18.42.16.7.29c.24.1.46.24.66.41.2.17.37.39.5.64a2.8 2.8 0 0 1-.01 2.09 2.22 2.22 0 0 1-1.39 1.25 3 3 0 0 1-.94.15c-.47 0-.93-.1-1.37-.28a2.9 2.9 0 0 1-1.06-.76.08.08 0 0 1 0-.11l.95-1.11c.03-.04.07-.03.1 0 .15.2.35.37.59.51.26.16.53.23.79.23.12 0 .23-.01.35-.04a.8.8 0 0 0 .29-.14.68.68 0 0 0 .2-.26c.05-.1.08-.23.08-.38a.68.68 0 0 0-.1-.37.97.97 0 0 0-.26-.27 2.04 2.04 0 0 0-.43-.23l-.59-.22a5.14 5.14 0 0 1-.62-.28 1.93 1.93 0 0 1-.93-1.03c-.1-.24-.14-.53-.14-.87a2.16 2.16 0 0 1 .81-1.83c.25-.2.52-.34.83-.43a3.04 3.04 0 0 1 3.04.75c.03.03.03.08 0 .11l-.92 1.12ZM36.53 32c-.02 0-.04-.03-.04-.06v-5.18h-.03l-1.3 5.2c0 .02-.02.04-.03.04h-1.2l-.04-.04-1.35-5.2h-.03v5.18c0 .03-.02.06-.04.06h-1.43c-.02 0-.04-.03-.04-.06v-7.88c0-.03.02-.06.04-.06h2.24c.02 0 .03.02.04.04l1.18 4.82h.03l1.12-4.82c0-.02.02-.04.04-.04h2.27c.02 0 .04.03.04.06v7.88c0 .03-.02.06-.04.06h-1.43Z" fill="#334D9F"/><path d="m41.55 26.44-.73 2.23c-.01.06.02.11.07.11h1.43c.04 0 .08-.05.06-.1l-.7-2.24c-.03-.07-.11-.07-.13 0Zm1.65 5.5-.46-1.46c-.01-.03-.04-.05-.06-.05h-2.4c-.04 0-.06.02-.07.05l-.44 1.47c-.01.03-.04.05-.06.05h-1.64c-.05 0-.08-.06-.06-.11l2.65-7.84c0-.03.03-.05.06-.05h1.6c.02 0 .05.02.06.05L45 31.89c.02.05-.01.11-.06.11h-1.67c-.03 0-.06-.02-.07-.05Z" fill="#334D9F"/><path d="m50 31.96-1.5-2.43c-.03-.06-.1-.06-.13 0l-1.39 2.43a.08.08 0 0 1-.07.04h-1.83c-.06 0-.1-.08-.07-.14l2.36-4.04a.1.1 0 0 0 0-.1l-2.16-3.58c-.03-.06 0-.14.07-.14h1.85c.03 0 .05.02.07.04l1.25 2.06c.03.06.1.06.14 0l1.16-2.06a.08.08 0 0 1 .07-.04h1.79c.06 0 .1.08.06.14l-2.11 3.58a.1.1 0 0 0 0 .1l2.43 4.04c.03.06 0 .14-.07.14h-1.85a.08.08 0 0 1-.07-.04ZM9.97 24H8.49c-.01 0-.03.02-.03.04v5.13h-.02l-2.55-5.15-.03-.02H4.03c-.02 0-.03.02-.03.04v2.74l1.53 3.03v-2.99h.03l2.59 5.16c0 .01.01.02.03.02h1.79c.02 0 .03-.02.03-.04v-7.92c0-.02-.01-.04-.03-.04Z" fill="#334D9F"/><path d="M5.53 31.98v-1.33L4 27.63v4.33c0 .02.02.04.03.04h1.48c.02 0 .02-.02.02-.02Z" fill="#E41C2D"/></svg>