<!-- by TradingView --><svg width="56" height="56" xmlns="http://www.w3.org/2000/svg"><path fill="#F0F3FA" d="M0 0h56v56H0z"/><path d="M13.948 41.245c-.64-7.66-2.395-14.865-5.771-22.02L8 18.85l.415-.103c1.752-.437 3.12-.747 4.78-.747 1.374 0 2.921.217 4.866.682.753.18 1.425.364 2.075.541C21.77 19.67 23.34 20 25 20c.744 0 1.346-.019 2.17-.174a14.369 14.369 0 012.675-.263c1.53 0 2.937.132 4.155.437 1.486.371 2.174.966 2.976 1.437.568.334 1.157.68 2.064 1.022 1.358.512 4.213 1.541 5.959 1.541H46l-.578.603c-.801.825-2.269 1.206-2.997 1.542-.107.05-.204.094-.289.135-.461.22-.866.395-1.259.564-.574.247-1.087.468-1.667.784.637.32 1.607.681 2.84.937.219.046.44.094.666.144 1.078.238 2.285.342 3.763.342.24 0 .484-.007.725-.021L48 29l-.484.584c-1.393 1.776-5.232 4.239-8.747 4.827-.898.151-1.682.168-2.44.184-1.504.033-2.926.063-5.047 1.181C28.137 37.434 26.915 38 24 38c-.446 0-.897.01-1.348.003a11.152 11.152 0 00-.216-.002c-2.85 0-5.09.743-7.868 3.458l-.568.545-.052-.76z" fill="#006B30"/><path d="M27.364 35L38 27.474 24.012 21 13 28.607 27.364 35z" fill="#F0F3FA"/><path d="M17.569 26h1.569l.03 1.72h.035c.03-.168.123-.315.206-.462L20 26h1.816l-1.235 1.89L21.999 30h-1.65l-.835-1.227c-.1-.151-.247-.296-.289-.46h-.035L19.289 30h-1.72v-4zM22.416 27h1.379v3h-1.379v-3zM25.632 28.315l.092-.003c.217-.006.432-.04.423-.258-.01-.226-.208-.248-.435-.242h-.08v.503zM24.29 27h1.582c.82-.022 1.534.24 1.565.982.019.446-.185.64-.672.786l.002.023c.069.041.153.086.228.17L27.807 30h-1.486l-.636-.99V30H24.29v-2.999zM29.178 29.242h.214c.217-.006.53-.02.52-.267-.01-.252-.348-.238-.56-.233h-.174v.5zm.138-1.135c.193-.005.41-.027.4-.235-.008-.224-.253-.2-.446-.195l-.092.002v.428h.138zm-1.268-1.104H29.5c.703-.02 1.389.04 1.418.735a.608.608 0 01-.453.621l.001.024c.4.105.66.338.675.698.026.619-.667.901-1.303.919h-1.79v-2.997zM32.636 27.023l.438.765.038-.001c.034-.096.064-.191.109-.284L33.46 27h1.466l-1.159 1.683V30h-1.234v-1.317L31.137 27l1.5.023z" fill="#004C89"/></svg>