<!-- by TradingView --><svg width="56" height="56" viewBox="0 0 56 56" xmlns="http://www.w3.org/2000/svg"><path fill="#00D8C9" d="M0 0h56v56H0z"/><path d="M12 34.1v-2.17s-.2-2.54 3.5-5.75c2.27-1.98 2.5-2.58 2.5-3.53 0-.96-.75-3.65-3.2-3.65s-3.41 2.08-3.47 3.42c-.05 1.35-.74 7.02-1.14 7.4 0 0-.75-.83-1.47-4.17S6.59 22.42 6 22.42c-.59 0-2 .73-2 2.27 0 1.55 1.36 2.2 3.04 4.27 1.68 2.07 1.6 4.43 1.6 4.63 0 .2-.13 2.41 1.52 2.41S12 35 12 34.1Z" fill="#F0F3FA"/><path d="M22.33 25c-1.46 0-8.85 2.15-8.85 6.23 0 4.06 7.7 4.77 8.88 4.77.71 0 1.4-.27 1.97-.49.38-.15.7-.27.93-.28.29-.01.45.16.63.34.2.2.41.43.81.43.76 0 1.3-.43 1.3-1.13 0-.37-.2-.58-.37-.77-.16-.16-.3-.31-.28-.55.02-.17.1-.39.2-.65.19-.54.45-1.28.45-2.23 0-1.4-1.04-5.67-5.67-5.67Zm3.12 3.62a3.5 3.5 0 0 1-5.07 4.67 8.25 8.25 0 0 0 5.07-4.67Zm-.52-.64-.2.25s-1.14 2.82-4.95 4.47a3.5 3.5 0 0 1 5.15-4.73ZM28.03 20.8s.76 3.13.62 7.38c-.13 4.24.3 6.45 3.8 7.76.11.04.22.06.32.06.69 0 1.25-.8 1.23-1.62-.02-.98-.63-1.9-1.36-1.9-1.43 0-2.24-1.54-2.24-3.45 0-1.92.6-7.53.6-8.46C31 20 30.43 19 29.4 19c-1.02 0-1.53 1.23-1.37 1.8Z" fill="#F0F3FA"/><path d="M33.03 20.8s.76 3.13.62 7.38c-.13 4.24.3 6.45 3.8 7.76.11.04.22.06.32.06.69 0 1.25-.8 1.23-1.62-.02-.98-.63-1.9-1.36-1.9-1.43 0-2.24-1.54-2.24-3.45 0-1.92.6-7.53.6-8.46C36 20 35.43 19 34.4 19c-1.02 0-1.53 1.23-1.37 1.8Z" fill="#F0F3FA"/><path d="M46.73 25S38 25.27 38 28.52c0 3.26 4.8 7.48 8.21 7.48 1.7 0 2.24-.38 2.59-.62.18-.13.31-.22.52-.19.29.04.48.23.66.42.2.2.4.39.71.39.6 0 1.31-.4 1.31-1.13 0-.4-.18-.61-.35-.82-.16-.19-.3-.37-.3-.65 0-.25.1-.55.22-.9.2-.54.43-1.2.43-2 0-1.34-1.4-5.38-5.27-5.5Zm2.72 3.63a3.5 3.5 0 0 1-5.09 4.67 8.24 8.24 0 0 0 5.09-4.67Zm-.47-.59c-.18.37-1.65 3.12-5.21 4.67a3.5 3.5 0 0 1 5.21-4.67Z" fill="#F0F3FA"/></svg>