<!-- by TradingView --><svg width="56" height="56" viewBox="0 0 56 56" xmlns="http://www.w3.org/2000/svg"><rect width="56" height="56" rx="28" fill="#027954"/><path d="M27.5 47V14.2h1V47h-1Z" fill="#F0F3FA"/><path d="m24 12 4 2.2-.5.8-2.5-1.37V41l-1-.5V12ZM32 12l-4 2.2.5.8 2.5-1.37V41l1-.5V12Z" fill="#F0F3FA"/><path d="m21 15 7 3.72-.35.8L22 16.61V39h-1V15ZM35 15l-7 3.72.35.8L34 16.61V39h1V15Z" fill="#F0F3FA"/><path d="m17 18 11 5.49-.38.78L18 19.5V37h-1V18ZM39 18l-11 5.49.38.78L38 19.5V37h1V18Z" fill="#F0F3FA"/><path d="m14 25.37 14 7.13-.37.78L15 27v8l12.87 6.83-.37.78L14 35.58v-10.2ZM42 25.37 28 32.5l.37.78L41 27v8l-12.87 6.83.37.78L42 35.58v-10.2Z" fill="#F0F3FA"/><path d="M27.62 38 14 30.81l.38-.81L28 37.19l-.38.81ZM28.38 38 42 30.81l-.38-.81L28 37.19l.38.81ZM27.6 29 17 23.79l.4-.79L28 28.21l-.4.79ZM28.4 29 39 23.79l-.4-.79L28 28.21l.4.79ZM28 11l-3 1.6-1-.6 4-2v1ZM28 11l3 1.6 1-.6-4-2v1Z" fill="#F0F3FA"/></svg>