<!-- by TradingView --><svg width="56" height="56" viewBox="0 0 56 56" xmlns="http://www.w3.org/2000/svg"><path fill="url(#acdntfxsz)" d="M0 0h56v56H0z"/><path d="M12.66 32.17c0 .77-.23 1.43-.7 1.92-.56.6-1.43.91-2.52.91H6V25h3.33c.95 0 1.7.23 2.24.69.47.4.72.94.72 1.6 0 .6-.25 1.14-.72 1.62-.48.49-1.01.75-1.6.75.67.08 1.26.28 1.74.63.61.45.95 1.11.95 1.88Zm-1.85-4.71c0-.55-.17-.95-.53-1.23a2.42 2.42 0 0 0-1.54-.43H7.51v3.51h1c.8 0 1.4-.17 1.77-.54.34-.31.53-.74.53-1.31Zm.3 4.57c.01-.57-.19-1.03-.6-1.37a2.8 2.8 0 0 0-1.8-.52H7.48v4.03H9c.7 0 1.26-.23 1.63-.68.33-.4.5-.89.5-1.46ZM13.54 25l.11 2.11v5.72L13.54 35H15V25h-1.46ZM22.23 35h-1.48s-.09-.36-.09-.44v-.33c-.33.25-.61.44-.84.55-.25.11-.45.17-.59.2-.16 0-.25.02-.3.02h-.17c-.67 0-1.2-.16-1.6-.52a1.8 1.8 0 0 1-.58-1.4c0-.57.28-1.06.84-1.5a8.24 8.24 0 0 1 2.65-1.2l.65-.2c0-.32-.06-.57-.14-.73-.25-.5-.76-.74-1.51-.74-.23 0-.45.03-.7.08-.23.06-.53.17-.87.28l-.5.16V28.2c.64-.14 1.42-.19 1.96-.19 1 0 1.79.2 2.32.57.47.36.72.8.72 1.37v3.45c0 .57.09 1.17.23 1.61Zm-1.54-1.37V30.8l-1.34.52c-.5.22-.87.5-1.1.76-.25.3-.36.6-.36.9 0 .36.14.66.4.88.25.22.55.36.94.36.28 0 .54-.09.82-.2.25-.08.5-.21.67-.4M28.4 35h-1.38v-.7c-.22.2-.5.36-.84.5-.33.14-.64.2-.95.2-.7 0-1.28-.34-1.76-.99a3.82 3.82 0 0 1-.73-2.4c0-.99.25-1.86.79-2.63.58-.82 1.28-1.21 2.15-1.21.5 0 .93.17 1.32.54V25h1.3v7.8l.1 2.2ZM27 33.42v-4.27c-.3-.4-.68-.6-1.12-.6-.45 0-.9.3-1.26.86-.37.56-.62 1.3-.62 2.2 0 .85.22 1.5.53 1.95.31.45.7.68 1.18.68.28 0 .5-.06.72-.17.2-.12.35-.31.57-.65ZM35.03 33.94c-.62.75-1.58.98-2.51 1.06-.93 0-1.68-.3-2.27-.9a3.48 3.48 0 0 1-.92-2.56c0-1.09.33-1.93.98-2.61.58-.6 1.28-.93 2.1-.93.67 0 1.25.27 1.76.82.5.54.75 1.11.75 1.71l-4.11 1.64c.08.54.34 1 .73 1.44.39.44.84.63 1.31.63.34 0 .62-.06.84-.14.28-.1.62-.35.95-.68l.42.52h-.03Zm-1.5-3.95c0-.25-.12-.52-.4-.82-.28-.33-.59-.49-.9-.49-.41 0-.8.2-1.11.6-.37.44-.53.98-.53 1.6 0 .2 0 .42.08.69l2.55-1.04c.2-.08.3-.24.3-.51M41.19 35h-1.57l-1.54-2.81L36.35 35h-1.1l1.46-2.22c.28-.42.59-.84.93-1.32L35.59 28h1.49l1.37 2.36L39.99 28h1c-.44.62-.78 1.15-1.06 1.55a34.2 34.2 0 0 0-.98 1.51l.59 1.02L41.19 35Z" fill="#fff"/><path d="M34.84 22.08S62.94 7.78 45.04 35c0 0 0-16-10.2-12.92Z" fill="#60A610"/><path d="M34 17.91s19.48-9.84 11.03 6.65c0 0-3.55-9.07-11.03-6.65Z" fill="#F4B223"/><path d="M41.37 19.43a19.15 19.15 0 0 1 5.79-1.09c-.06 1.46-.7 3.48-2.1 6.25 0 0-1.2-3.08-3.7-5.16Z" fill="#002D74"/><defs><linearGradient id="acdntfxsz" x1="28" y1="0" x2="28" y2="56" gradientUnits="userSpaceOnUse"><stop stop-color="#022052"/><stop offset=".72" stop-color="#2966F4"/></linearGradient></defs></svg>