<!-- by TradingView --><svg width="56" height="56" xmlns="http://www.w3.org/2000/svg"><path fill="#2E81B4" d="M0 0h56v56H0z"/><path d="M17.2 26.109c.199-.25.26-.549.306-.857.093-.69-.084-1.313-.353-1.92-.138-.3-.292-.59-.476-.865-.023-.033-.047-.083-.085-.1-.008.008-.015.017-.015.025-.131.407-.33.773-.515 1.148-.185.374-.346.748-.392 1.172-.054.515 0 1.006.246 1.463.007.009.007.025.023.05a1.384 1.384 0 01-.415-.191c-.653-.466-.907-1.13-.8-1.954.07-.557.285-1.056.538-1.538.223-.433.462-.857.646-1.314.2-.507.377-1.015.438-1.563 0-.175.015-.333.008-.491.03-.008.03.017.038.033.377.782.761 1.563 1.1 2.37.268.632.514 1.272.652 1.954.162.807 0 1.539-.46 2.187a1.062 1.062 0 01-.485.39zM14.171 24.447c-.13-.291-.253-.582-.384-.873-.53-1.206-1.068-2.404-1.606-3.61-.008-.024-.023-.05-.03-.074-.108-.308-.339-.424-.63-.457-.131-.017-.17-.084-.162-.225.008-.125.054-.174.177-.166.753.041 1.506.041 2.267 0 .076-.009.107.025.123.091.015.059.023.108.015.167-.008.066-.039.108-.108.116-.084.008-.161.033-.245.058-.116.033-.139.083-.093.208.146.416.323.823.484 1.222l.692 1.672c.023.05.023.091-.008.15-.246.473-.422.964-.468 1.504-.008.067-.008.142-.016.208.008.009 0 .009-.008.009zM18.706 24.189a4.178 4.178 0 00-.115-.757c-.023-.091-.039-.183-.077-.266-.046-.092-.038-.175 0-.266.338-.89.676-1.78.991-2.686.062-.175.1-.35.154-.524.023-.083 0-.141-.084-.166-.07-.017-.131-.05-.2-.058-.085-.017-.123-.075-.139-.158a.41.41 0 01.023-.216c.023-.067.07-.092.139-.092.591.042 1.175.05 1.767 0 .046 0 .085.008.116.05.061.083.061.274.007.357-.015.025-.038.034-.069.042-.123.033-.238.058-.354.091a.524.524 0 00-.322.267c-.215.399-.377.831-.546 1.247-.384.948-.776 1.887-1.16 2.827a3.405 3.405 0 00-.13.308zM23.76 24.016c.023 0-.154-.01-.53-.016h-1.694c-.264.007-.382.006-.354.006-.05 0-.075.02-.075.058 0 .332.11.567.328.82.18.209.422.313.725.313.365 0 .744-.186 1.137-.557.045-.052.079-.052.101 0 .067.157.194.371.38.645.039.058.039.107 0 .146a2.16 2.16 0 01-.675.478 2.44 2.44 0 01-1.036.235c-.607 0-1.095-.222-1.466-.664-.365-.443-.547-1.045-.547-1.806 0-.807.252-1.461.758-1.962.337-.332.758-.498 1.264-.498.572 0 1.024.24 1.356.723.337.474.505 1.164.505 1.952 0 .084-.059.127-.177.127zm-.994-.86c.04 0 .06-.019.06-.058 0-.156-.051-.338-.152-.547-.158-.312-.385-.468-.683-.468-.297 0-.53.153-.699.459-.118.214-.177.4-.177.556 0 .04.017.059.05.059h.279a15.272 15.272 0 001.045 0h.277zM26.62 23.323c.392.182.665.393.816.634.124.195.186.42.186.674 0 .481-.169.862-.506 1.142-.303.247-.67.37-1.103.37-.63 0-1.149-.126-1.559-.38-.011-.007-.011-.026 0-.059a7.15 7.15 0 00.312-.917c.006-.013.022-.01.05.01.382.266.798.4 1.247.4.146 0 .27-.043.37-.127a.413.413 0 00.16-.342.453.453 0 00-.184-.37c-.068-.053-.236-.14-.506-.264l-.354-.166c-.297-.137-.516-.28-.657-.43-.23-.24-.345-.55-.345-.927 0-.378.123-.69.37-.937.287-.287.697-.43 1.23-.43.512 0 .93.108 1.256.322.017.014.02.036.008.069-.084.228-.185.52-.303.878-.011.026-.031.03-.06.01-.359-.24-.712-.361-1.06-.361-.304 0-.456.12-.456.361 0 .221.208.43.624.625l.463.215zM29.648 24.328c0 .267.025.449.076.547.067.123.19.185.37.185.101 0 .236-.023.405-.068.033-.007.05.013.05.058.017.209.065.505.143.889.006.039-.02.068-.075.087a2.251 2.251 0 01-.691.127c-.421 0-.744-.13-.969-.39-.224-.26-.343-.677-.354-1.25-.005-.123-.003-.358.009-.702.005-.456.008-.938.008-1.445 0-.04-.017-.059-.05-.059l-.573.03c-.028 0-.042-.017-.042-.05l.008-.194a7.26 7.26 0 00.008-.283c0-.059-.002-.14-.008-.244l-.008-.176c0-.026.017-.04.05-.04l.565.02c.033 0 .05-.02.05-.058v-.098c0-.143-.008-.397-.025-.761l-.017-.527c0-.026.02-.046.059-.059a28.1 28.1 0 00.497-.098c.387-.084.564-.126.53-.126.029 0 .043.022.043.068a40.472 40.472 0 00-.042 1.494v.097c0 .046.02.068.059.068l.85-.02c.04 0 .06.017.06.05l-.009.166c-.006.11-.008.198-.008.263s.002.16.008.283l.009.186c0 .032-.015.048-.043.048l-.884-.029c-.034 0-.05.016-.05.049 0 .351-.003 1.005-.01 1.962zM34.866 24.02c.023 0-.154-.013-.53-.02h-1.694l-.353.01c-.051 0-.076.02-.076.058 0 .332.11.563.328.816.18.209.422.313.725.313.365 0 .744-.186 1.137-.557.045-.052.079-.052.101 0 .068.157.194.371.38.645.038.058.038.107 0 .146a2.159 2.159 0 01-.675.478 2.44 2.44 0 01-1.036.235c-.606 0-1.095-.222-1.466-.664-.365-.443-.547-1.045-.547-1.806 0-.807.253-1.461.758-1.962.337-.332.758-.498 1.264-.498.572 0 1.024.24 1.356.723.337.474.505 1.168.505 1.956 0 .084-.059.127-.177.127zm-.994-.863c.04 0 .06-.02.06-.059 0-.156-.051-.338-.152-.547-.158-.312-.385-.468-.683-.468-.297 0-.53.153-.699.459-.118.214-.177.4-.177.556 0 .04.017.059.05.059h.279a15.262 15.262 0 001.045 0h.277zM38.576 21.448c-.034.085-.132.4-.295.947-.011.046-.04.056-.084.03a.68.68 0 00-.345-.098c-.37 0-.826.565-.826.898 0 0-.03 1.57-.008 2.284.01.384.017.537.017.459 0 .026-.015.039-.043.039-.028 0-.11-.003-.244-.01a7.222 7.222 0 00-.261-.01 7.04 7.04 0 00-.27.01c-.134.007-.219.01-.252.01-.023 0-.034-.013-.034-.04 0 .079.006-.061.017-.419.011-.364.052-.771.052-1.22V22.96c0-.37-.055-.735-.094-1.093-.04-.358-.06-.51-.06-.459 0-.032.02-.049.06-.049.477-.019.789-.038.935-.058.033 0 .053.03.059.088.039.195.067.393.084.595 0 .033.008.05.025.05.023 0 .042-.017.06-.05.156-.267.297-.452.42-.556a.83.83 0 01.565-.215c.157 0 .323.049.497.146.033.02.042.05.025.088zM40.065 21.858c.37-.43.791-.644 1.263-.644.32 0 .593.108.817.322.287.267.43.654.43 1.162V23.8c0 .462.003.878.008 1.25a96.405 96.405 0 00.026.907c0 .033-.014.049-.042.049-.029 0-.11-.003-.245-.01a7.225 7.225 0 00-.26-.01c-.04 0-.13.004-.27.01a8.27 8.27 0 01-.262.01c-.022 0-.033-.016-.033-.049l.008-.234c.006-.176.011-.39.017-.644.006-.365.008-.781.008-1.25v-.742c0-.598-.157-.898-.471-.898-.304 0-.624.215-.96.644-.034.046-.092.108-.092.186v.869c0 .494.005.986.016 1.474.012.488.058.69.058.605 0 .026-.01.039-.033.039-.028 0-.113-.003-.253-.01a7.214 7.214 0 00-.261-.01 7.69 7.69 0 00-.278.01c-.135.007-.22.01-.253.01-.022 0-.034-.013-.034-.04a55.117 55.117 0 00.034-1.923V23.04c0-.403-.022-.79-.067-1.161-.045-.371-.068-.53-.068-.478 0-.026.02-.04.06-.04.258-.012.564-.042.918-.087.028 0 .047.029.059.087.039.202.064.368.075.498 0 .033.009.05.026.05.01 0 .03-.017.059-.05zM15.627 30.562c0-.05-.006.15-.017.6-.011.449-.017.867-.017 1.254v.702c0 .356.006.764.017 1.226.011.456.017.662.017.6 0 .03-.014.046-.042.046a8.29 8.29 0 01-.229-.01 6.13 6.13 0 00-.295-.008c-.068 0-.164.003-.288.009a6.12 6.12 0 01-.22.01c-.028 0-.042-.02-.042-.057 0 .063.006-.14.017-.59.011-.455.017-.87.017-1.245v-.674a50.357 50.357 0 00-.034-1.853c0-.038.017-.057.05-.057l.187.01c.124.006.22.01.287.01.073 0 .18-.004.321-.01l.22-.01c.034 0 .05.016.05.047zm-.017-1.956l-.008.243c-.006.15-.009.256-.009.318 0 .063.003.166.008.31l.009.233c0 .038-.017.056-.05.056l-.229-.009c-.13-.006-.22-.01-.27-.01-.051 0-.139.004-.262.01l-.212.01c-.04 0-.059-.022-.059-.066l.009-.244c.005-.143.008-.243.008-.3 0-.068-.003-.174-.008-.317a33.096 33.096 0 01-.009-.225c0-.037.017-.056.05-.056.018 0 .088.003.212.01.13.005.22.009.27.009.051 0 .141-.004.271-.01l.22-.01c.04 0 .059.016.059.048zM18.032 31.014c.372-.412.795-.618 1.268-.618.321 0 .594.103.82.309.287.256.43.627.43 1.114v1.058c0 .443.003.842.01 1.198.005.269.015.537.016.806 0 .06-.051.106-.11.101a6.578 6.578 0 00-.88.003.101.101 0 01-.108-.101c0-.26.01-.52.016-.78.006-.35.009-.75.009-1.199v-.712c0-.574-.158-.86-.474-.86-.304 0-.625.205-.963.617a.289.289 0 00-.066.178c0 .92.001 1.838 0 2.757 0 .06-.054.108-.114.102a4.265 4.265 0 00-.777-.008.104.104 0 01-.114-.102c0-.91.005-1.82.005-2.73 0-.387-.01-.759-.056-1.114-.045-.356-.067-.509-.067-.46 0-.024.02-.037.059-.037.259-.012.521-.04.877-.084.028 0 .047.028.059.084.04.194.064.353.076.478 0 .031.008.047.025.047.011 0 .031-.016.06-.047zM24 30.44v-2.325c0-.06.052-.106.111-.1.256.025.413.024.78-.006a.1.1 0 01.11.1l.003 1.563c-.006.568-.004 1.148-.004 1.741v2.032c0 .418.055.905.15 1.46.007.05-.013.075-.058.075-.248.013-.526.01-.87.029-.056 0-.09-.025-.101-.075l-.068-.309c-.006-.037-.017-.056-.034-.056-.011 0-.03.016-.059.047-.31.33-.682.496-1.116.496-.5 0-.915-.206-1.242-.618-.35-.443-.524-1.036-.524-1.779 0-.699.22-1.28.66-1.74a1.83 1.83 0 011.385-.59c.327 0 .607.052.793.159.056.03.084-.004.084-.104zm0 1.377a.275.275 0 00-.064-.169c-.18-.237-.466-.356-.821-.356-.304 0-.54.135-.71.403-.169.262-.254.58-.254.955 0 .462.085.83.254 1.105.17.268.386.402.65.402.324 0 .907-.307.94-.683L24 31.817zM28.396 32.406c.394.175.667.378.82.609.123.187.185.402.185.646 0 .462-.169.827-.507 1.095-.304.237-.673.356-1.107.356-.63 0-1.152-.122-1.563-.365-.012-.006-.012-.025 0-.056.084-.175.188-.468.312-.88.006-.013.023-.01.051.009.383.256.8.384 1.25.384.147 0 .271-.04.373-.122a.39.39 0 00.16-.328.428.428 0 00-.186-.355c-.067-.05-.236-.134-.507-.253l-.355-.16c-.298-.13-.518-.267-.659-.411-.231-.231-.346-.527-.346-.89 0-.361.123-.661.371-.898.288-.275.7-.412 1.234-.412.513 0 .933.103 1.26.309.017.012.02.034.008.065-.085.219-.186.5-.304.843-.011.025-.031.028-.06.01-.36-.232-.715-.347-1.064-.347-.305 0-.457.115-.457.346 0 .213.209.412.626.6l.465.205zM31.434 33.37c0 .257.025.431.076.525.068.118.192.178.372.178.101 0 .237-.022.406-.066.033-.006.05.013.05.056.017.2.065.484.144.852.006.038-.02.066-.076.085-.26.08-.49.121-.693.121-.423 0-.747-.125-.972-.374-.225-.25-.344-.65-.355-1.198-.005-.119-.003-.344.009-.675.005-.436.008-.898.008-1.385 0-.037-.017-.056-.05-.056l-.575.028c-.029 0-.043-.016-.043-.047l.009-.187c.005-.125.008-.215.008-.272a4.45 4.45 0 00-.008-.234 11.455 11.455 0 01-.009-.168c0-.025.017-.038.051-.038l.566.02c.034 0 .051-.02.051-.057v-.094c0-.137-.008-.38-.025-.73l-.017-.505c0-.025.02-.044.059-.057.14-.024.307-.056.498-.093.39-.081.567-.122.533-.122.028 0 .042.022.042.066l-.025.599c-.011.412-.017.69-.017.833v.094c0 .043.02.065.06.065l.853-.019c.04 0 .059.016.059.047l-.009.16c-.005.105-.008.19-.008.252 0 .063.003.153.008.272l.009.178c0 .03-.014.046-.042.046l-.888-.028c-.034 0-.05.016-.05.047 0 .337-.003.964-.009 1.882zM35.943 30.609c-.034.081-.133.384-.296.908-.011.044-.04.053-.085.028a.707.707 0 00-.346-.093c-.197 0-.42.184-.668.552a1.145 1.145 0 00-.16.309 2.53 2.53 0 00-.026.44v.515a40.987 40.987 0 00.03 1.61.101.101 0 01-.117.103c-.29-.043-.434-.055-.865.002a.102.102 0 01-.116-.104l.012-.333c.011-.35.017-.745.017-1.175v-1.31c0-.357-.02-.706-.06-1.05-.039-.343-.059-.49-.059-.44 0-.03.02-.046.06-.046a13.8 13.8 0 00.938-.056c.033 0 .053.028.059.084a4.8 4.8 0 01.084.57c0 .032.009.048.026.048.022 0 .042-.016.059-.047.158-.256.298-.434.422-.534a.854.854 0 01.567-.206c.157 0 .324.047.498.14.034.02.042.048.026.085zM39.839 33.015a82.134 82.134 0 00-1.496-.019h-.736c-.264.006-.383.01-.354.01-.051 0-.077.018-.077.056 0 .318.11.599.33.842.18.2.423.3.727.3.366 0 .747-.178 1.14-.534.046-.05.08-.05.102 0 .068.15.195.356.38.618.04.056.04.103 0 .14-.174.181-.4.335-.675.46-.339.15-.685.224-1.04.224-.608 0-1.099-.212-1.47-.637-.367-.424-.55-1.001-.55-1.732 0-.773.254-1.4.76-1.881.339-.318.761-.478 1.268-.478.575 0 1.029.231 1.361.693.338.456.507 1.061.507 1.816 0 .081-.059.122-.177.122zm-.998-.768c.04 0 .06-.018.06-.056 0-.15-.051-.324-.153-.524-.157-.3-.386-.45-.684-.45-.299 0-.532.147-.702.44-.118.206-.177.384-.177.534 0 .038.017.056.05.056h.28a16.115 16.115 0 001.048 0h.278zM43.003 32.865c0-.062-.012-.087-.034-.075l-.888.234c-.326.094-.49.294-.49.6 0 .38.195.57.583.57.231 0 .454-.115.668-.346.107-.112.16-.206.16-.28v-.703zm.997-.842v.842c-.006.443-.009.752-.009.927 0 .2.051.3.153.3.022 0 .059-.007.11-.02.039-.005.061.026.067.094.034.306.073.55.118.73.012.057.003.094-.025.113-.101.056-.245.084-.431.084a.825.825 0 01-.389-.103.773.773 0 01-.363-.374.516.516 0 00-.068-.122l-.143.16c-.282.305-.66.458-1.133.458-.417 0-.746-.137-.989-.412-.236-.275-.355-.615-.355-1.02 0-.337.093-.621.28-.852.19-.237.498-.41.92-.515.237-.056.558-.138.964-.244.191-.056.287-.118.287-.187 0-.2-.079-.359-.236-.477a.869.869 0 00-.516-.15c-.304 0-.631.156-.98.468-.034.044-.065.05-.093.019a29.953 29.953 0 00-.423-.59c-.023-.031-.02-.062.008-.094.418-.449.947-.674 1.59-.674.456 0 .828.113 1.115.337.36.281.54.715.54 1.302zM47.622 30.394c.507 0 .85.23 1.031.692.017.044.031.066.042.066l.06-.066c.4-.468.847-.702 1.343-.702.31 0 .57.1.778.3.265.25.397.624.397 1.123v1.058c0 .443.003.843.008 1.198a88.623 88.623 0 00.026.871c0 .031-.014.047-.043.047-.028 0-.107-.003-.236-.01a6.888 6.888 0 00-.254-.009c-.04 0-.13.003-.27.01-.141.006-.228.009-.262.009-.028 0-.042-.016-.042-.047l.008-.225c.006-.168.011-.374.017-.617.006-.35.008-.75.008-1.199v-.74c0-.255-.02-.44-.059-.552a.369.369 0 00-.38-.271c-.26 0-.555.203-.887.608a.372.372 0 00-.085.244c0 .574.003 1.098.008 1.572a201.716 201.716 0 00.026 1.19c0 .03-.014.046-.042.046-.029 0-.11-.003-.245-.01a7.405 7.405 0 00-.263-.008c-.039 0-.126.003-.261.009-.136.006-.22.01-.254.01-.028 0-.042-.016-.042-.048l.008-.224c.006-.169.011-.375.017-.618.006-.35.008-.749.008-1.198v-.787c0-.243-.016-.415-.05-.515-.056-.174-.175-.262-.355-.262-.299 0-.609.197-.93.59-.05.062-.076.165-.076.309v.702a60.272 60.272 0 00.034 2.003c0 .025-.011.038-.034.038-.028 0-.11-.003-.245-.01a6.888 6.888 0 00-.253-.009c-.046 0-.139.003-.28.01a8.44 8.44 0 01-.261.009c-.023 0-.034-.013-.034-.038 0 .07.005-.115.017-.552.011-.443.017-.874.017-1.292v-1.095c0-.368-.023-.712-.068-1.03-.045-.324-.068-.462-.068-.412 0-.025.02-.037.06-.037.191 0 .501-.028.93-.084.033 0 .056.024.067.074.011.05.034.213.067.487 0 .031.009.047.026.047.011 0 .03-.016.059-.047.344-.405.75-.608 1.217-.608zM6.015 28.59c-.12-.148-.206-.267-.396-.267-.025 0-.038-.013-.038-.04v-.217c0-.007.001-.015.005-.025.003-.01.014-.015.033-.015h1.564c.035.007.064.02.086.04a.26.26 0 01.062.07c.02.029 2.513 5.797 2.513 5.797-.075.166-.683 1.37-.684 1.367-.001-.003-2.738-6.205-3.145-6.71z" fill="#fff"/><path d="M9.526 32.155l.551 1.255 1.422-3.182c.013-.03.026-.045.039-.045.012 0 .02.017.024.05l.22 4.041c0 .409-.293.43-.573.43-.025 0-.038.014-.038.04v.218c0 .026.013.04.038.04h2.865c.016 0 .026-.006.029-.016a.049.049 0 00.01-.024v-.218a.049.049 0 00-.01-.025c-.003-.01-.013-.014-.029-.014h-.076c-.045-.004-.1-.01-.168-.02a4.452 4.452 0 01-.21-.05.883.883 0 01-.211-.099.632.632 0 01-.172-.163.45.45 0 01-.072-.242l-.278-5.269c0-.319.125-.539.409-.539.016 0 .025-.005.028-.015a.05.05 0 00.01-.024v-.218a.084.084 0 00-.005-.025c-.003-.01-.014-.015-.033-.015L11.449 28c-.032 0-.064.018-.096.054a.598.598 0 00-.096.144l-1.73 3.957zM6.588 30.68l-.001.017c-.02.408-.05.816-.08 1.225-.054.729-.107 1.459-.107 2.188v.203c.069.336.273.39.535.39.016 0 .024.005.024.015.003.01.004.018.004.025v.218c0 .026-.01.04-.028.04H4.732c-.026 0-.039-.014-.039-.04v-.218c0-.007.002-.015.005-.025.007-.01.018-.014.034-.014.21 0 .373-.025.488-.075a.555.555 0 00.258-.212.754.754 0 00.106-.327c.128-1.26.357-3.62.456-4.636l.548 1.226z" fill="#fff"/></svg>