<!-- by TradingView --><svg width="56" height="56" viewBox="0 0 56 56" xmlns="http://www.w3.org/2000/svg"><path fill="#F0F3FA" d="M0 0h56v56H0z"/><path d="M30 9v5.55c8.25-.73 8.03 4.25 7.99 5.41-.01.17-.02.26.01.24a2.25 2.25 0 0 1-2.23 1.9c-1.21 0-2.22-.99-2.22-2.18 0-1.2.97-2.2 2.22-2.2.33 0 .65.08.93.2-.77-1.51-2.33-3.18-6.7-2.47V36.6c-.03.83-.06 1.72.91 1.85.2.04.37.04.57.04H33V39H23v-.5c.18 0 .36 0 .55.02.53.02 1.08.04 1.57-.12.89-.23.88-1.19.88-1.99V16.53a6.96 6.96 0 0 0-4 5.98v9.68c0 1.3.58 2.28 1.95 2.28H25v.51H15v-.51c.73 0 1.2-.03 1.92-.14.94-.26 1.08-1.24 1.08-2.06V18.92c0-1.2-.93-1.91-1.5-1.92H15v-.49c.76-.02 1.48-.02 2.18-.01a19 19 0 0 0 4.82-.37v2.79a7.46 7.46 0 0 1 4-3.63v-3.38c0-1.25-.93-1.95-2.1-1.95h-1.45c-.04-.08-.04-.16-.04-.24v-.24c.08-.04.16-.04.24-.04h1.9c1.58 0 3.92-.06 5.45-.44Zm8 15.08v.23c0 6.8 0 8.8-.04 15.59 0 2.79-1.22 6.29-4.28 6.96-1.44.31-2.8.12-4.08-.67a3.34 3.34 0 0 1-1.52-3.54c.3-1.14 1.5-1.65 2.6-1.41.76.15 1.28.7 1.36 1.45.07.67-.29 1.12-.63 1.54-.29.36-.57.71-.57 1.17 0 1.14 1.26 1.3 2.2 1.02.99-.3.97-2.14.96-3.49V27c0-1.13-.16-2-1.36-2h-1.56c-.03-.11-.02-.22 0-.32v-.16c.08-.04.12-.04.2-.04h1.4a28.76 28.76 0 0 0 4.52-.35l.6-.12h.2v.08Z"/></svg>