<!-- by TradingView --><svg width="56" height="56" viewBox="0 0 56 56" xmlns="http://www.w3.org/2000/svg"><path fill="#F0F3FA" d="M0 0h56v56H0z"/><path d="m29.66 16.62-2.26 4.33c-2.18 4.17-4.06 7.89-6.07 11.91-1.21 2.45-3.3 6.74-3.3 6.8 0 .04.04.02.24-.1 1.07-.62 2.15-1.1 2.9-1.26.36-.09.53-.1.84-.1.41.02.68.12.9.32.06.05.1.09.12.09l.03-.51c.01-.53.04-.96.11-1.5.5-3.9 2.5-10.07 6.18-19.05l.4-1.02c.03-.08-.03-.03-.1.1Zm-1.83 22.51c-1.87.07-4.32.5-7.49 1.34l-1.57.43c-.03.03.04.04.45.05 3.54.16 5.95.77 7.28 1.84.14.12.5.48.5.51 0 .03.09.02.36-.03 1.59-.33 2.82-1.3 3.77-2.96.15-.27.3-.56.3-.59 0-.02-.3-.16-.52-.24a6.94 6.94 0 0 0-2.13-.35 20.45 20.45 0 0 0-.95 0Z" fill="#959595"/><path d="m30.22 8 .06.37a29.91 29.91 0 0 1 .24 6.67c-.43 6.04-2.4 13.51-6 22.7l-.34.86c0 .02.08 0 .4-.17a9.59 9.59 0 0 1 3.47-1.06 6.65 6.65 0 0 1 4.48 1.24l.22-.28a15.1 15.1 0 0 0 2.55-6.18c.4-2.18.41-4.67.05-7.4-.55-4.2-2.01-9.16-4.51-15.34a14.32 14.32 0 0 0-.62-1.4Zm3.95 33.68a8.44 8.44 0 0 0-5.56 2.26c-.07.07-.03.08.08.01a26.77 26.77 0 0 1 5.49-.63c.81 0 1.4.04 3.18.2 1.32.11 1.77.14 2.56.17 1.36.05 2.67-.06 3.78-.3.28-.06.3-.07.3-.1h-.3a13.81 13.81 0 0 1-5.19-.87 12.97 12.97 0 0 0-2.61-.68c-.48-.06-1.2-.09-1.73-.06Zm-14.42.2c-1.3.04-2.92.31-4.68.77a74.84 74.84 0 0 0-3.56 1 10.47 10.47 0 0 0-.5.17l1.44-.13a76.3 76.3 0 0 1 6.88-.5 22.39 22.39 0 0 1 6.4.76c.04 0 .02-.04-.04-.07l-.22-.19a6.7 6.7 0 0 0-2.37-1.37 8.95 8.95 0 0 0-3.35-.44Z" fill="#082342"/></svg>