<!-- by TradingView --><svg width="56" height="56" viewBox="0 0 56 56" xmlns="http://www.w3.org/2000/svg"><path fill="#F0F3FA" d="M0 0h56v56H0z"/><path d="M13.75 31v2h-.36v-.87h-1.03V33H12v-2h.36v.86h1.03V31h.36ZM16 31.28v.58h.75v.26H16v.6h.84V33h-1.2v-2h1.2v.28H16ZM20.01 32.58h-.91l-.16.42h-.37l.78-2h.41l.79 2h-.38l-.16-.42Zm-.1-.26-.35-.9-.36.9h.71ZM22.66 32.72h.74V33h-1.1v-2h.36v1.72ZM26.58 31v.29H26V33h-.36v-1.71H25V31h1.58ZM30 31v2h-.36v-.87h-1.03V33h-.36v-2h.36v.86h1.03V31H30ZM31.82 32c0-.2.05-.36.15-.52.1-.15.23-.27.4-.35.17-.09.36-.13.56-.13.24 0 .44.05.62.15.19.1.32.25.4.44h-.43a.54.54 0 0 0-.24-.23.77.77 0 0 0-.35-.08.83.83 0 0 0-.38.09.65.65 0 0 0-.27.25c-.06.1-.1.24-.1.38s.04.27.1.38c.06.1.15.2.27.25.11.06.24.1.38.1s.25-.03.35-.08c.1-.06.18-.13.24-.24h.43a.9.9 0 0 1-.4.44c-.18.1-.38.15-.62.15-.2 0-.39-.04-.56-.13-.17-.08-.3-.2-.4-.35a.93.93 0 0 1-.15-.52ZM37.1 32.58h-.91l-.16.42h-.38l.79-2h.41l.79 2h-.38l-.16-.42Zm-.1-.26-.35-.9-.36.9H37ZM40.53 33l-.5-.8h-.28v.8h-.36v-2h.76c.35 0 .77.21.77.61 0 .25-.16.49-.5.56l.53.83h-.42Zm-.78-1h.4c.27 0 .4-.19.4-.39s-.13-.32-.4-.32h-.4V32ZM43.15 31.28v.58h.76v.26h-.76v.6H44V33h-1.2v-2H44v.28h-.85Z" fill="#49494A"/><path d="M8.35 29c-.51 0-.95-.1-1.3-.31a2 2 0 0 1-.79-.88A3.13 3.13 0 0 1 6 26.5c0-.49.1-.92.28-1.3.18-.37.46-.66.82-.87.36-.21.81-.32 1.34-.32.36 0 .65.03.87.1.24.07.4.16.52.28.11.12.17.24.17.39 0 .15-.07.27-.2.37-.14.1-.3.14-.52.14 0-.14-.03-.29-.08-.42a.77.77 0 0 0-.27-.34.84.84 0 0 0-.5-.14c-.37 0-.65.08-.87.25-.22.16-.37.4-.47.72a4.01 4.01 0 0 0 .01 2.22c.1.3.27.54.5.7.22.17.52.25.89.25a1.55 1.55 0 0 0 1.36-.6.31.31 0 0 1 .13.28.5.5 0 0 1-.1.28.92.92 0 0 1-.28.25c-.13.08-.3.15-.5.2-.21.05-.46.07-.75.07ZM13 29c-.45 0-.82-.1-1.12-.31-.3-.21-.52-.5-.66-.88a3.65 3.65 0 0 1-.22-1.32c0-.5.07-.94.22-1.31.14-.38.37-.66.66-.87.3-.2.68-.31 1.13-.31.42 0 .79.1 1.08.31.3.2.53.5.68.87.15.38.23.81.23 1.32 0 .5-.08.94-.24 1.32-.15.37-.38.66-.68.87-.3.2-.65.31-1.08.31Zm0-.39c.22 0 .41-.05.56-.14.15-.1.28-.23.37-.42.1-.18.17-.4.21-.66a5.24 5.24 0 0 0-.2-2.44.95.95 0 0 0-.93-.56c-.22 0-.41.05-.57.14a1 1 0 0 0-.37.42c-.1.18-.17.4-.22.66a5.12 5.12 0 0 0 .22 2.44c.1.19.22.32.37.42.16.1.34.14.56.14ZM16 29v-.32h.12a.7.7 0 0 0 .2-.02.3.3 0 0 0 .16-.14.55.55 0 0 0 .06-.29v-3.45a.57.57 0 0 0-.06-.3.26.26 0 0 0-.15-.13.58.58 0 0 0-.21-.03H16V24h1.4l1.12 3.83L19.63 24H21v.32c-.37 0-.36.11-.36.49v3.38c0 .38-.01.5.36.5V29h-1.61v-.32h.03c.31 0 .57-.09.58-.42v-3.69L18.55 29h-.34l-1.3-4.42v3.61c0 .14.02.25.05.32.04.07.09.12.15.14.06.02.14.03.22.03h.02V29H16ZM22 29v-.32h.12a.7.7 0 0 0 .2-.02.3.3 0 0 0 .16-.14.55.55 0 0 0 .06-.29v-3.45a.57.57 0 0 0-.06-.3.26.26 0 0 0-.15-.13.58.58 0 0 0-.21-.03H22V24h1.4l1.12 3.83L25.63 24H27v.32h-.12c-.3 0-.24.2-.24.49v3.38c0 .4.01.5.36.5V29h-1.61v-.32h.03c.28 0 .57-.15.58-.42v-3.69L24.55 29h-.34l-1.3-4.42v3.61c0 .14.02.25.05.32.04.07.09.12.15.14.06.02.14.03.22.03h.02V29H22ZM30.04 29c-.31 0-.58-.05-.8-.15a1.1 1.1 0 0 1-.51-.5 2 2 0 0 1-.18-.92v-2.66a.55.55 0 0 0-.07-.3.26.26 0 0 0-.15-.12.57.57 0 0 0-.2-.04H28V24h1.76v.31h-.12a.64.64 0 0 0-.21.04.29.29 0 0 0-.16.13.7.7 0 0 0-.05.31v2.7c0 .25.04.46.12.63.08.15.19.27.33.34s.3.1.48.1c.21 0 .38-.04.52-.13a.77.77 0 0 0 .3-.36c.07-.16.1-.35.1-.57v-2.73a.6.6 0 0 0-.05-.3.26.26 0 0 0-.15-.12.59.59 0 0 0-.21-.04h-.12V24H32v.31h-.12a.64.64 0 0 0-.21.04.29.29 0 0 0-.16.13.63.63 0 0 0-.06.31v2.73c0 .3-.05.57-.16.79-.1.22-.26.4-.47.51-.2.12-.47.18-.78.18ZM33 29v-.32h.12c.08 0 .15 0 .2-.03a.28.28 0 0 0 .16-.14.69.69 0 0 0 .06-.32v-3.41a.57.57 0 0 0-.07-.3.26.26 0 0 0-.15-.13.56.56 0 0 0-.2-.03H33V24h1.1l2 3.77v-3a.58.58 0 0 0-.06-.3.26.26 0 0 0-.15-.12.56.56 0 0 0-.2-.03h-.12V24H37v.32h-.12a.6.6 0 0 0-.2.03.28.28 0 0 0-.16.14.66.66 0 0 0-.06.32V29h-.42l-2.14-3.98v3.17c0 .14.02.25.05.32.04.07.09.12.15.14a.6.6 0 0 0 .21.03h.12V29H33ZM38 29v-.32h.14c.09 0 .17 0 .24-.03a.32.32 0 0 0 .18-.14.6.6 0 0 0 .06-.32v-3.38a.58.58 0 0 0-.06-.32.32.32 0 0 0-.18-.14.76.76 0 0 0-.24-.03H38V24h2v.32h-.14a.8.8 0 0 0-.24.03.32.32 0 0 0-.18.14.64.64 0 0 0-.05.32v3.38c0 .14.02.25.05.32.05.07.1.12.18.14a.8.8 0 0 0 .24.03H40V29h-2ZM41.9 29v-.32h.2c.09 0 .17 0 .25-.02a.33.33 0 0 0 .18-.14.56.56 0 0 0 .07-.3v-3.85h-.62a.55.55 0 0 0-.32.08.42.42 0 0 0-.17.2c-.03.08-.06.17-.07.27l-.04.34H41l.03-1.26h3.94l.03 1.26h-.38l-.04-.34a.8.8 0 0 0-.07-.28.42.42 0 0 0-.17-.2.57.57 0 0 0-.32-.07h-.63v3.82c0 .14.02.25.06.32.05.07.11.12.19.14.07.02.16.03.25.03h.19V29H41.9ZM47 29v-.32h.2c.08 0 .15 0 .22-.02a.28.28 0 0 0 .17-.13.56.56 0 0 0 .07-.3V27l-1.14-2.31a1.03 1.03 0 0 0-.13-.21.32.32 0 0 0-.13-.12.37.37 0 0 0-.18-.04H46V24h1.8v.32h-.2c-.11 0-.19.02-.23.07a.25.25 0 0 0-.07.18c0 .06.01.12.04.2l.07.17.45.96a2.42 2.42 0 0 1 .18.42 5.9 5.9 0 0 1 .13.36 5.11 5.11 0 0 1 .35-.81l.38-.82a.9.9 0 0 0 .11-.42c0-.1-.03-.19-.1-.24a.45.45 0 0 0-.28-.07h-.16V24H50v.32h-.09a.3.3 0 0 0-.16.04.6.6 0 0 0-.16.17l-.17.33L48.38 27v1.2c0 .14.02.25.06.32.04.07.1.11.16.14.08.02.15.02.24.02h.18V29h-2.01Z" fill="#135FAA"/></svg>