<!-- by TradingView --><svg width="56" height="56" viewBox="0 0 56 56" xmlns="http://www.w3.org/2000/svg"><path fill="#F0F3FA" d="M0 0h56v56H0z"/><path d="M27.98 12c8.86 0 16.06 7.2 16.06 16.04a16.07 16.07 0 0 1-32.13 0c0-8.84 7.2-16.04 16.07-16.04Z" fill="#fff"/><path d="M28 45c-9.37 0-17-7.63-17-17 0-9.37 7.63-17 17-17 9.37 0 17 7.63 17 17 0 9.37-7.63 17-17 17Zm0-33c-8.82 0-16 7.18-16 16s7.18 16 16 16 16-7.18 16-16-7.18-16-16-16Z" fill="#334851"/><path d="M28 13c-8.27 0-15 6.73-15 15s6.73 15 15 15 15-6.73 15-15-6.73-15-15-15Z" fill="#334851"/><path d="M21.7 36.57c.04.09.06.18.05.27a.45.45 0 0 1-.12.25.55.55 0 0 1-.55.16.87.87 0 0 1-.31-.15l-.2-.14-.33.37-.24-.19L21.03 36l.44.32c.1.08.18.16.22.25Zm-.52.42c.08 0 .14-.03.2-.09a.2.2 0 0 0 .05-.19.35.35 0 0 0-.14-.19l-.2-.14-.34.39.19.14c.08.06.16.09.24.08ZM22.71 38.52l-.64-.32-.23.18-.3-.15 1.37-1 .27.13-.22 1.59-.29-.15.04-.28Zm.04-.25.1-.66-.57.43.47.23ZM24.7 39.53l-.08-.55-.07-.02-.24-.07-.17.47-.3-.09.5-1.4.54.16c.2.06.35.15.43.26.08.12.1.24.05.39a.48.48 0 0 1-.43.32l.1.62-.33-.1Zm-.07-.8c.11.03.2.04.27.01a.24.24 0 0 0 .15-.15.2.2 0 0 0-.03-.2c-.04-.05-.11-.1-.22-.13l-.25-.07-.16.47.24.07ZM27.5 38.76l-.52-.06-.16 1.21-.32-.03.17-1.21-.52-.06.04-.26 1.35.16-.04.25ZM29.75 38.42l.13 1.48-.36.02-.88-1.02.1 1.08-.32.02-.13-1.47.36-.03.88 1.02-.1-1.07.32-.03ZM30.91 38.46l.1.31.8-.2.07.22-.8.21.12.38.89-.23.07.25-1.18.3-.45-1.41 1.19-.31.08.25-.89.23ZM33.96 38.68l-.49-.34-.06.03-.23.1.24.45-.28.13-.73-1.32.51-.23c.2-.1.37-.12.51-.09.15.03.26.11.33.25.05.08.07.17.06.26 0 .08-.04.16-.1.24l.54.38-.3.14Zm-.67-.52c.1-.05.17-.1.2-.17a.21.21 0 0 0-.02-.2.23.23 0 0 0-.16-.12.44.44 0 0 0-.26.05l-.23.1.24.44.23-.1ZM35.15 37.9a.47.47 0 0 1-.37-.19l.24-.17c.05.06.12.1.2.09.08 0 .17-.05.28-.12a.46.46 0 0 0 .17-.19c.03-.06.02-.12-.02-.17a.15.15 0 0 0-.11-.05c-.05 0-.1 0-.14.02l-.2.1-.3.12a.53.53 0 0 1-.26.03.4.4 0 0 1-.24-.15c-.1-.12-.13-.24-.09-.36.04-.12.15-.24.32-.36.12-.08.23-.14.34-.17.1-.02.2-.02.29 0 .09.03.16.08.22.15l-.25.17c-.04-.05-.1-.08-.18-.07a.57.57 0 0 0-.26.11.47.47 0 0 0-.17.18.15.15 0 0 0 .03.17c.03.03.07.05.11.06l.15-.03.2-.1.3-.12a.55.55 0 0 1 .26-.02c.08.01.16.06.23.14.1.1.12.22.08.35-.03.13-.14.26-.32.38-.2.14-.36.2-.51.2M21.42 18.6l.2.32.68-.49.14.24-.69.49.24.4.76-.55.15.26-1.02.73-.88-1.48 1.02-.73.16.26-.76.54ZM24.59 16.56l.56 1.65-.33.13-1.15-.9.41 1.2-.29.12-.56-1.65.33-.13 1.14.9-.4-1.2.29-.12ZM26.4 16.44l.04.4.82-.11.03.27-.81.11.05.47.9-.12.03.3-1.2.17-.2-1.75 1.2-.16.04.3-.9.12ZM29.55 17.85l-.21-.62h-.08l-.25-.03-.05.59-.31-.03.16-1.76.56.06c.22.03.37.1.48.21.1.12.15.26.13.44a.62.62 0 0 1-.1.3.47.47 0 0 1-.24.18l.24.7-.33-.04Zm-.26-.9c.11 0 .2-.01.26-.06.07-.05.1-.12.11-.21a.27.27 0 0 0-.07-.22.38.38 0 0 0-.24-.1l-.26-.03-.05.58.25.03ZM32.59 17.75l-.28.9-.26-.1.07-.2c-.17.11-.37.13-.6.04a.8.8 0 0 1-.54-.66c-.02-.15 0-.32.05-.5a1 1 0 0 1 .23-.42c.1-.1.22-.16.36-.19.14-.03.29 0 .45.05.2.07.36.2.45.35.1.15.14.34.11.55l-.32-.12a.46.46 0 0 0-.08-.3.55.55 0 0 0-.26-.17.43.43 0 0 0-.38.02.59.59 0 0 0-.25.35.7.7 0 0 0 0 .46c.05.13.14.23.29.28.12.05.23.05.33.01s.18-.11.23-.23l-.43-.16.07-.24.76.28ZM33.95 18.97l-.27.5-.27-.18.27-.5.05-1.34.3.19-.05.93.72-.5.3.2-1.05.7Z" fill="#B99660"/><path d="M16 26h2v5h1v-5h2v-1h-5v1Z" fill="#fff"/><path fill-rule="evenodd" d="M34 28a3 3 0 1 1 6 0 3 3 0 0 1-6 0Zm1 0a2 2 0 1 1 4 0 2 2 0 0 1-4 0Z" fill="#fff"/><path d="m33 34-4.45-6.05L33 22h-1.1L28 27.2 24.1 22H23l4.45 5.96L23 34h1.1l3.9-5.3 3.9 5.3H33Z" fill="#fff"/></svg>