<!-- by TradingView --><svg width="56" height="56" viewBox="0 0 56 56" xmlns="http://www.w3.org/2000/svg"><path fill="#1779B6" d="M0 0h56v56H0z"/><path fill-rule="evenodd" d="M44.85 24.03c-.02.03-.04.03-.05 0-.24-.76-.82-1.3-1.74-1.63-.56-.2-1.4-.35-2.5-.44a1.4 1.4 0 0 1-.61-.21 4.08 4.08 0 0 1-.6-.48.94.94 0 0 0-.69-.27c-.26.02-.43.18-.5.48-.11.44-.07.92.12 1.42a5.34 5.34 0 0 0 2.95 3.08c.28.13.45.32.52.58a.9.9 0 0 1-.15.75c-.3.44-.77.73-1.44.88-.58.12-1.16.11-1.75-.02a10.6 10.6 0 0 1-1.59-.5 35.11 35.11 0 0 1-4.48-2.21c-.51-.3-1.03-.56-1.54-.77a23.7 23.7 0 0 0-5.93-1.6 26.36 26.36 0 0 0-6.18-.12c-.53.05-.98-.04-1.35-.27a4.63 4.63 0 0 0-2.88-.6c-.9.07-1.6.3-2.13.68a6.21 6.21 0 0 1-1.81.8c-.99.34-1.9.83-2.71 1.45a6 6 0 0 0-.69.66c-.33.36-.6.6-.8.74-.3.2-.57.42-.8.64-.3.28-.47.57-.51.88-.05.35.11.64.48.85l.12.09c.03.02.05.04.06.08l.08.72c0 .03-.01.06-.04.07-.35.21-.43.5-.25.85a3.5 3.5 0 0 0 1.4 1.46c.58.34 1.25.58 1.99.71 1.54.28 3.15.26 4.82-.05.57-.11 1.06-.2 1.47-.24a10.6 10.6 0 0 1 3.7.19c2.09.47 3.9.62 5.43.45.04 0 .08 0 .11.03.6.5 1.27.65 2.04.44a.26.26 0 0 1 .13 0c.9.24 1.97.36 3.2.4 3.63.07 6.9-.39 9.78-1.38 1.17-.4 2.23-.92 3.18-1.52a6.86 6.86 0 0 0 2.58-2.66c.13-.26.32-.45.59-.56l1.84-.75c2.34-.95 3.43-2.51 3.26-4.69a2.43 2.43 0 0 0-.18-.77c-.07-.18-.2-.26-.37-.24a.6.6 0 0 0-.4.24c-.4.48-.81.87-1.25 1.17-.56.39-1.1.57-1.6.53a4.9 4.9 0 0 0-1.27.03c-.42.09-.77.3-1.06.63Zm-31.8 7.93c0 .03 0 .04-.03.05-2.9.5-5.14.17-6.74-.98-.1-.07-.1-.06-.03.03a4.5 4.5 0 0 0 2.89 1.33c1.55.2 3.16.12 4.8-.25 1.11-.25 2.38-.3 3.82-.18.22.02.85.14 1.9.38a20.84 20.84 0 0 0 4.19.44l-.01-.03a3.62 3.62 0 0 0-1.34-.7 6.91 6.91 0 0 1-.98-.3 1.51 1.51 0 0 1-.75-.6c-.02-.04-.01-.08.03-.1.04-.03.08-.02.12 0 .3.23.61.4.95.52l.16.05c.55.18.97.28 1.25.3.44.01.88.11 1.32.3.37.16.74.24 1.14.26.02 0 .04 0 .05.03l-.01.06a.14.14 0 0 1-.1.04c-.25.03-.53.01-.83-.05a8.27 8.27 0 0 1-1.05-.31c-.15-.05-.16-.03-.04.07l1.04.79c.21.15.44.25.68.28.2.04.45.02.73-.03.46-.08.93-.23 1.41-.44.36-.15.8-.37 1.33-.67a.87.87 0 0 0 .3-.28c.08-.1.07-.2-.03-.29-.14-.12-.32-.2-.55-.27a5.12 5.12 0 0 0-.61-.13 3.99 3.99 0 0 1-2-.95 2.26 2.26 0 0 0-1.36-.55 5.4 5.4 0 0 0-1.51.2.88.88 0 0 1-.54-.02 4.1 4.1 0 0 0-.98-.21c-.05 0-.07-.03-.06-.08.01-.05.04-.08.1-.09.37-.05.73-.02 1.08.1a.2.2 0 0 0 .1 0 7.43 7.43 0 0 1 1.43-.23c.51-.02.98.06 1.4.24.17.07.34.12.52.14.83.12 1.68.31 2.55.58.02 0 .03.02.02.04v.04c-.02.03-.04.05-.08.04a36.2 36.2 0 0 0-2.15-.38c-.12-.02-.13 0-.04.08a4 4 0 0 0 1.9.82c.94.15 1.38.42 1.31.8a.6.6 0 0 1-.28.4 11 11 0 0 1-2.02 1.03c-.1.04-.09.06 0 .07 2 .2 3.95.2 5.89.02 2.03-.19 3.96-.57 5.76-1.15 2.43-.8 4.21-1.93 5.34-3.41a3 3 0 0 0 .34-.56c.2-.42.58-.73 1.14-.95.63-.25 1.26-.5 1.89-.78a4.18 4.18 0 0 0 2.48-2.37c.02-.05.01-.06-.03-.02-.4.37-.87.64-1.39.83-.77.29-1.45.6-2.05.95-.08.04-.1.02-.1-.06 0-.04.02-.07.05-.1.33-.27.92-.6 1.75-.97l.39-.18c.31-.15.64-.37.99-.68.43-.39.64-.71.62-.98 0-.08-.03-.08-.07-.01a3.7 3.7 0 0 1-1.4 1.37 7.2 7.2 0 0 1-1.9.8c-.52.15-.96.43-1.32.84-.02.02-.04.02-.06 0l-.02-.02c-.04-.03-.04-.06-.02-.1.2-.32.46-.58.77-.76a5.92 5.92 0 0 1 1.32-.55 5.32 5.32 0 0 0 1.63-.94c.55-.48.87-.98.96-1.51.03-.15 0-.17-.1-.05l-.33.41a4 4 0 0 1-1.42 1.16c-.6.3-1.21.38-1.82.27a1.82 1.82 0 0 0-1.8.68.86.86 0 0 0-.18.4c-.04.23-.14.48-.3.73a.12.12 0 0 1-.09.05c-.05 0-.06-.01-.05-.05.1-.3.16-.6.16-.95 0-.38-.06-.69-.2-.92-.27-.45-.8-.78-1.61-1-.46-.12-1.13-.22-2.01-.3l-.13-.02c-.45-.04-.84-.2-1.15-.49a5.6 5.6 0 0 0-.59-.46.07.07 0 0 0-.07 0 .07.07 0 0 0-.04.04c-.05.18-.06.36-.04.56.02.22.08.4.18.52.3.4.67.72 1.1 1 .36.22.81.44 1.36.64.03.01.04.03.03.06v.03c-.02.06-.06.09-.13.07a6.08 6.08 0 0 1-1.93-.88c-.1-.07-.1-.05-.05.04a4.87 4.87 0 0 0 2.1 1.85c.55.24.86.59.93 1.03.06.44-.06.85-.37 1.23-.28.35-.66.6-1.13.75-1.6.51-3.54.36-5.79-.45a16.3 16.3 0 0 1-2.4-1.07c-.02-.02-.03-.04-.02-.08v-.02c.02-.02.03-.03.06-.02a24.05 24.05 0 0 0 4.5 1.41l-.01-.03a36.68 36.68 0 0 1-4.76-2.18c-.67-.36-1.26-.66-1.77-.87a23.41 23.41 0 0 0-5.83-1.6c-2-.3-4.01-.36-6.06-.18a2.29 2.29 0 0 1-1.54-.34 3.22 3.22 0 0 0-1.86-.52c-1.24 0-2.28.3-3.14.94-.1.07-.09.1.04.1.94-.05 1.94-.11 3.01-.21.03 0 .04 0 .04.04v.03c0 .04-.03.07-.08.07a27.5 27.5 0 0 1-3.28.33c-.4.01-.93.16-1.6.44-.14.05-.14.07 0 .05l.72-.05a50.1 50.1 0 0 0 4.4-.35c.04 0 .05.01.05.05v.03c-.02.04-.04.07-.1.08-1.3.26-2.61.41-3.92.45-.75.03-1.44.11-2.08.26-.25.05-.48.16-.67.33-.05.04-.04.06.02.05a8.6 8.6 0 0 1 1.25-.13c1.3-.05 2.6-.15 3.9-.3.03-.01.04 0 .04.03v.03a.17.17 0 0 1-.1.1c-1.31.24-2.62.38-3.92.42-.46.01-1.02.1-1.69.25-.19.04-.38.19-.57.44-.04.05-.03.07.04.05.4-.08.77-.12 1.14-.13 1.24-.03 2.48-.1 3.71-.23.03 0 .04 0 .05.03v.03c.02.05 0 .07-.04.08-1.02.18-2.21.3-3.57.37-.46.02-.97.1-1.53.22a1 1 0 0 0-.42.2c-.27.21-.52.4-.77.57-.06.04-.05.06.02.04a7.7 7.7 0 0 1 2.93-.1c.03 0 .04.02.04.04v.04c0 .05-.03.07-.08.07-1.49-.13-2.61.03-3.37.48a.43.43 0 0 0-.22.41c0 .2.1.33.25.41.05.03.1.03.14 0a.4.4 0 0 1 .12-.05c.04 0 .07.01.07.05.09.64.33 1.21.73 1.72.03.03.02.06-.02.07-.37.13-.64.14-.83.04-.1-.06-.12-.04-.07.06.07.16.27.23.6.22.23 0 .46-.05.7-.12a3 3 0 0 1 1.34-.11 12.94 12.94 0 0 0 6.3-.2c.35-.09.74-.15 1.17-.18a20.22 20.22 0 0 1 1.66-.04.7.7 0 0 0 .5-.2c.04-.04.08-.03.11.03.02.04.03.08.02.13a.3.3 0 0 1-.14.18c-.17.1-.37.16-.6.16-1.07 0-2.16.15-3.28.44-1.58.42-3.4.45-5.47.1-.39-.06-.7-.1-.93-.1a3.06 3.06 0 0 0-.88.15v.02c.48.29 1 .5 1.56.63 1.36.33 2.85.43 4.46.3.02 0 .04 0 .04.03v.06Zm30.28-5.3c.22-.64.15-1.2-.2-1.7a2.82 2.82 0 0 0-1.5-1.01c-1.45-.47-2.36-1.1-2.73-1.87v-.05a.05.05 0 0 1 .05-.02.1.1 0 0 1 .07.03 4.98 4.98 0 0 0 2.52 1.56c.6.2 1.04.38 1.3.55.42.27.68.65.78 1.13.1.44.05.9-.13 1.4-.01.04-.04.05-.08.04h-.04c-.04-.01-.05-.03-.04-.07Zm-19.37-2.4a14.9 14.9 0 0 0-3.53-.01c-.04 0-.06.03-.06.07v.03c0 .02.01.04.04.04a28.67 28.67 0 0 1 7.64.97l.02-.04c.03-.03.02-.06-.03-.08a17.52 17.52 0 0 0-4.08-.98Zm17.42 4.4c.42-.18.74-.48.96-.9.2-.38.3-.8.28-1.27 0-.03.01-.05.05-.06.04-.01.06 0 .07.04.14.56.1 1.04-.13 1.45-.23.42-.62.7-1.18.84-.03.01-.05 0-.06-.02l-.01-.04c-.01-.02 0-.04.02-.05Zm-26.13-.96c.38.05.75.07 1.11.05.05 0 .06.02.05.06l-.05.2a.09.09 0 0 1-.09.07l-1.37.11c-.02 0-.02 0 0 0 .45.07.92.1 1.41.08.04 0 .07.02.08.05.15.36.45.54.9.52a7.72 7.72 0 0 0 1.14-.11v-.03h-.01l-.76.02c-.08 0-.1-.02-.04-.07l.16-.15a.2.2 0 0 1 .14-.06 4.93 4.93 0 0 0 .84-.1c0-.03-.01-.03-.03-.03-.25.01-.52.02-.8.01a.06.06 0 0 1-.06-.02.06.06 0 0 1 0-.06.3.3 0 0 0 .01-.08c0-.03 0-.03-.01 0a.7.7 0 0 1-.37.37.6.6 0 0 1-.53-.03c-.26-.13-.37-.33-.32-.6.04-.25.2-.42.48-.51.05-.02.04-.03 0-.03-.14-.02-.33.04-.55.2a.2.2 0 0 1-.1.04 212.87 212.87 0 0 1-1.26.08l.03.02Zm-7.88.22a3.5 3.5 0 0 0-1.52.47c-.04.02-.07.01-.09-.02-.04-.08-.02-.14.06-.2.48-.3 1.02-.49 1.62-.56a9.74 9.74 0 0 1 3.22.16c.87.19 1.9.5 3.08.97.77.3 1.6.48 2.47.55.06 0 .08.03.07.08v.02c-.01.06-.05.1-.11.1a7.1 7.1 0 0 1-2.65-.46 32.33 32.33 0 0 0-3.02-.89 9.9 9.9 0 0 0-3.13-.22Zm10.33.01c0 .2-.17.37-.39.37a.38.38 0 0 1-.38-.37c0-.2.17-.37.38-.37.22 0 .4.16.4.37Zm9.8.9a22.6 22.6 0 0 0-4.41-.55c-.03 0-.04 0-.04-.03l.01-.03c0-.04.03-.06.07-.07a9.48 9.48 0 0 1 4.38.56c.04.01.05.03.04.07l-.01.03c0 .02-.02.03-.05.03ZM9.21 30.32c.06.01.08 0 .03-.06a3.4 3.4 0 0 1-.82-1.97c0-.02 0-.03-.02-.03l-.34-.01c-.02 0-.03 0-.03.02.07.7.3 1.32.71 1.88a.2.2 0 0 0 .12.09l.35.08ZM7.84 28.3c.07.67.3 1.3.69 1.86l-.01.02-.4-.03c-.02 0-.03 0-.04-.02a4.04 4.04 0 0 1-.66-1.8c0-.04.01-.05.04-.06l.34-.01c.03 0 .04 0 .04.04Zm2.15 2.1a3.5 3.5 0 0 1-.91-2.07c0-.02-.01-.03-.03-.03l-.38-.03c-.02 0-.03 0-.02.02.08.8.38 1.49.9 2.05.02.03.05.05.1.05l.32.05c.01 0 .02 0 .03-.02v-.03Zm-2.12-.25-.38.03c-.01 0-.03 0-.04-.02a4.24 4.24 0 0 1-.64-1.76c0-.02.01-.04.03-.04l.33-.05c.03 0 .04.01.04.04a4.05 4.05 0 0 0 .67 1.8Zm2.79.34c.05 0 .05-.01.02-.04a3.35 3.35 0 0 1-.97-2.02c0-.02-.01-.03-.03-.03l-.39-.07c-.01 0-.02 0-.02.02.08.84.44 1.54 1.06 2.1.03.02.07.04.11.04h.22Zm-4.03-2.06c.1.67.3 1.25.62 1.73.02.03 0 .05-.03.06l-.24.06c-.05.01-.09 0-.12-.05a4.31 4.31 0 0 1-.64-1.68c0-.02.01-.04.04-.04l.33-.1c.02 0 .03 0 .04.02Zm4.69 2.01a3.02 3.02 0 0 1-.98-1.85c0-.04-.02-.06-.06-.07l-.32-.07c-.05-.01-.07 0-.06.05.11.8.48 1.45 1.1 1.95.04.04.1.05.15.06h.14c.07 0 .08-.02.03-.07Zm-.7-1.83.28.08a.1.1 0 0 1 .08.08 3.38 3.38 0 0 0 .97 1.7l-.26.02c-.03 0-.05 0-.07-.02a2.73 2.73 0 0 1-1.05-1.81c0-.04.02-.06.06-.05Zm.98.28-.33-.1c-.01 0-.02 0-.02.02.1.65.4 1.17.9 1.57.05.04.1.05.16.05l.13-.02c.07 0 .08-.03.03-.08a2.86 2.86 0 0 1-.83-1.4.05.05 0 0 0-.04-.04Zm1.22 1.45c-.05 0-.09 0-.12-.03-.42-.36-.7-.8-.83-1.32 0-.01 0-.02.02-.01l.37.1c.02.01.04.02.04.04.14.42.37.8.7 1.13v.04c0 .02-.01.03-.03.03l-.15.02Zm-.3-1.17c.14.4.37.74.68 1.02.04.04.08.05.14.04l.13-.02c.06-.01.07-.04.03-.08-.23-.26-.4-.54-.53-.84a11.87 11.87 0 0 0-.46-.13Zm4.05.55c-.94.1-1.86.24-2.76.41-.03 0-.06 0-.08-.02-.22-.22-.4-.46-.53-.74v-.03c.01-.01.02-.02.04-.01a10.1 10.1 0 0 0 3.36.33v.02c0 .02 0 .04-.03.04Zm14.95 3.14c2.05-.05 4.16-.38 6.3-.98.72-.2 1.42-.46 2.12-.76.03-.01.04-.03.03-.06l-.01-.02c-.01-.04-.04-.06-.08-.04a46.47 46.47 0 0 1-8.38 1.74c-.03 0-.04.02-.04.05v.03c0 .03.02.04.06.04Z" fill="#fff"/></svg>