<!-- by TradingView --><svg width="56" height="56" viewBox="0 0 56 56" xmlns="http://www.w3.org/2000/svg"><path fill="#F0F3FA" d="M0 0h56v56H0z"/><path fill-rule="evenodd" d="M28 45a17 17 0 1 0 0-34 17 17 0 0 0 0 34Zm0-2a15 15 0 1 0 0-30 15 15 0 0 0 0 30Zm0-1a14 14 0 1 0 0-28 14 14 0 0 0 0 28Zm-1-25.96a12 12 0 0 0 0 23.92V16.04Zm2 23.92A12 12 0 0 0 39.96 29h-2.6A9.42 9.42 0 0 1 32 36.53V29h3v-3h-3v-6.53A9.44 9.44 0 0 1 37.2 26h2.63A12 12 0 0 0 29 16.04v23.92ZM18.58 28A9.42 9.42 0 0 1 24 19.47v17.06A9.42 9.42 0 0 1 18.58 28Z" fill="#1B98AC"/></svg>