<!-- by TradingView --><svg width="56" height="56" viewBox="0 0 56 56" xmlns="http://www.w3.org/2000/svg"><path fill="#F0F3FA" d="M0 0h56v56H0z"/><path fill-rule="evenodd" d="M48 27.97V28h-.02l-4.86 1.07c-.19.04-.36.14-.5.27l-5.98 5.99a.18.18 0 0 0-.04.2l1.58 2.98a.04.04 0 0 1 0 .04.04.04 0 0 1-.05 0L35.15 37a.17.17 0 0 0-.2.03l-5.7 5.7c-.13.14-.23.32-.27.5l-1.04 4.75-.01.02a.04.04 0 0 1-.05 0l-.01-.02-1.14-5.2a.3.3 0 0 0-.08-.14L20.9 36.9a.2.2 0 0 0-.23-.04l-3.22 1.7a.05.05 0 0 1-.06 0 .05.05 0 0 1-.01-.06l1.69-3.22a.2.2 0 0 0-.04-.24l-5.62-5.62a.96.96 0 0 0-.47-.26l-4.92-1.08c-.01 0-.02-.02-.02-.05 0-.03 0-.05.02-.05l4.92-1.1a.96.96 0 0 0 .46-.25l5.62-5.64a.2.2 0 0 0 .04-.24l-1.7-3.2a.05.05 0 0 1 0-.07l.04-.01h.03l3.22 1.7a.2.2 0 0 0 .23-.03l5.74-5.76a.3.3 0 0 0 .08-.14l1.13-5.2c0-.01 0-.02.02-.02a.04.04 0 0 1 .05.02l1.05 4.74c.04.19.14.37.28.5l5.71 5.7a.17.17 0 0 0 .2.02l2.97-1.57a.04.04 0 0 1 .04.01.04.04 0 0 1 .01.04l-1.57 2.98a.18.18 0 0 0 .03.2l6 5.98c.14.13.31.23.5.27l4.86 1.06H48Zm-17.25-6.3 2.92-1.53a8.79 8.79 0 0 0-2.32-1.24 89.7 89.7 0 0 1-1.37-.4.22.22 0 0 1-.13-.16L27.89 9.5a.06.06 0 0 0-.1-.03.06.06 0 0 0-.02.04l-.02.75.04 12.17a5.52 5.52 0 0 1 3.12.8l-.25-1.4a.17.17 0 0 1 .09-.17Zm6.62 4.24c.06-.03.08-.07.06-.11a9.76 9.76 0 0 0-1.85-3.84.21.21 0 0 1-.03-.23l1.83-3.47a.03.03 0 0 0 0-.04.03.03 0 0 0-.04 0l-.6.36c.01.13-.02.23-.1.3-1.63 1.64-3.28 3.28-4.94 4.92a6 6 0 0 1 1.53 2.24l.54-.8a.17.17 0 0 1 .18-.07l3.38.74h.04Zm-11.52-7.37-.73 3.17a.18.18 0 0 0 .09.2l1.3.7a5.4 5.4 0 0 0-2.55 1.52c-1.75-1.74-3.5-3.49-5.24-5.25-.05-.05-.13-.05-.25 0l-.3-.58v-.02l.01-.02.02-.01h.03l3.76 1.98a.2.2 0 0 0 .22-.02c1.07-.79 2.29-1.34 3.64-1.67Zm-3.46 9.52c.01-1.13.32-2.17.91-3.12l-1.34.29a.24.24 0 0 1-.27-.13l-1.44-2.72a.06.06 0 0 0-.03-.03l-.08-.03a9.36 9.36 0 0 0-1.58 3.5.23.23 0 0 1-.17.17l-8 1.78c0 .13.13.2.37.2 5.2.02 9.08.05 11.63.09Zm22.77-.29 1.35.18h.02a.03.03 0 0 1-.02.05l-8.9 1.95a.23.23 0 0 0-.1.07.23.23 0 0 0-.07.11 9.92 9.92 0 0 1-1.9 3.96l-1.67-3.16a.16.16 0 0 0-.08-.08.17.17 0 0 0-.11 0c-.34.1-.65.13-.93.1.58-1 .85-2.01.8-3.07 3.76.04 7.5.03 11.23 0a.8.8 0 0 0 .38-.1Zm-21.13 4.19a5.77 5.77 0 0 1-1.46-2.61l-.74 1.3a.16.16 0 0 1-.18.08l-3.11-.66a9.15 9.15 0 0 0 1.59 3.58.27.27 0 0 1 .02.29l-1.99 3.77a.03.03 0 0 0 .03.05h.02c.18-.14.35-.24.53-.3-.01-.15.02-.27.1-.35l5.2-5.15Zm7.8.11 5.07 5.07.1.05.06.01c.16.14.27.3.34.46a.06.06 0 0 1-.05.08h-.03l-3.48-1.83a.27.27 0 0 0-.3.02 8.8 8.8 0 0 1-3.58 1.53l.7-2.96a.3.3 0 0 0-.18-.34 3.96 3.96 0 0 1-1.17-.72 5.95 5.95 0 0 0 2.52-1.37Zm-3.87 1.51a5.97 5.97 0 0 1-3.08-.91L25.1 34a.23.23 0 0 1-.12.24l-2.8 1.52c1.08.78 2.27 1.34 3.58 1.66a.2.2 0 0 1 .15.16l1.98 8.97c0 .01 0 .02.02.03l.03.01c.02 0 .03 0 .04-.02a.09.09 0 0 0 .02-.04l.07-.75a6.4 6.4 0 0 1-.13-1 957 957 0 0 0 0-11.2Zm-2.9-7.1c.02 0 .03.01.03.02l2.1 4.43a.13.13 0 0 0 .1.07.13.13 0 0 0 .12-.05l.01-.1-.01-5.42a.2.2 0 0 1 .2-.2h.21a.3.3 0 0 1 .3.3v4.87c0 .04 0 .07-.04.1a.14.14 0 0 1-.1.04h-.3a.09.09 0 0 0-.08.12l.03.06.01.01h.02l.3.02c1.7.06 3.76.14 4.02-1.8a1.88 1.88 0 0 0-.96-1.97 26 26 0 0 1-.5-.3.09.09 0 0 1 0-.08l.03-.03c.43-.26.52-.92.18-1.24-.2-.18-.44-.28-.73-.3a47.32 47.32 0 0 0-3.39.01.1.1 0 0 0 .05.17c.31.05.34.23.34.57a6505.67 6505.67 0 0 1-.01 3.68.05.05 0 0 1-.09 0l-2-4.33a.22.22 0 0 0-.2-.12h-.6a.1.1 0 0 0-.07.02.1.1 0 0 0 .06.16c.57.09.56.42.55.87v4.63a.1.1 0 0 1-.03.07.1.1 0 0 1-.07.03h-.3a.07.07 0 0 0-.05.02l-.02.02v.09a.08.08 0 0 0 .05.07l.03.01h1.3l.02-.02c.04-.04.04-.09.02-.13a.11.11 0 0 0-.1-.06c-.51-.03-.5-.34-.5-.72l.01-.2a293.91 293.91 0 0 1 0-3.38.05.05 0 0 1 .07 0Zm3.95-1.07a.2.2 0 0 0-.01.08v1.05a.2.2 0 0 0 .2.19h.52c.25-.01.5-.08.67-.21.18-.13.28-.3.28-.47v-.1a.5.5 0 0 0-.08-.26.71.71 0 0 0-.2-.21 1.32 1.32 0 0 0-.68-.19h-.52a.2.2 0 0 0-.18.12Zm.02 1.63.04-.07h.01a.11.11 0 0 1 .08-.04h.67a1.98 1.98 0 0 1 1.35.55 1.82 1.82 0 0 1 .55 1.29v.08c0 .48-.21.94-.57 1.28-.36.34-.85.53-1.35.53h-.67a.12.12 0 0 1-.08-.04.11.11 0 0 1-.03-.04l-.01-.02-.02-.02.03-3.5Z" fill="#184164"/><path d="m27.8 22.43-1.29.19-1.3-.71a.18.18 0 0 1-.1-.2l.74-3.17 1.9-8.28.05 12.17ZM36.74 18.58c.01.13-.02.23-.1.3-1.63 1.64-3.28 3.28-4.94 4.92l-.79-.58-.25-1.38a.17.17 0 0 1 .09-.18l2.92-1.52 3.07-1.56ZM23.96 24.13l-.66.81-1.34.29a.24.24 0 0 1-.27-.13l-1.44-2.72a.06.06 0 0 0-.03-.03l-.08-.03-1.67-3.43c.12-.06.2-.06.25 0l5.24 5.24ZM37.43 25.8c.06.12.16.19.28.22l7.14 1.58c.12.03.22.09.3.18a.8.8 0 0 1-.37.1c-3.73.03-7.47.04-11.22 0l-.33-1.84.54-.8a.17.17 0 0 1 .18-.07l3.38.74h.04c.06-.03.08-.07.06-.11ZM10.4 27.77c0 .13.12.2.36.2 5.2.02 9.08.05 11.63.09l.18 1.29-.74 1.3a.16.16 0 0 1-.18.08l-3.11-.66-9-1.99a.04.04 0 0 1-.02-.08c.26-.14.55-.22.87-.23ZM35.54 34.1l1.52 3.1-.06-.01a.18.18 0 0 1-.1-.05l-5.07-5.07.92-1.12c.28.03.6 0 .93-.1a.17.17 0 0 1 .19.08l1.67 3.16ZM24.88 32.67 25.1 34a.23.23 0 0 1-.12.24l-2.8 1.52a1 1 0 0 0-.08 0 .2.2 0 0 0-.09.02l-3.28 1.67c-.01-.15.02-.27.1-.35l5.2-5.15.84.7ZM29.3 33.44c.35.3.74.54 1.18.72a.3.3 0 0 1 .17.34l-.69 2.96-1.88 8.33a6.4 6.4 0 0 1-.13-1c.03-3.72.03-7.45 0-11.2l1.36-.15Z" fill="#CBAA78"/></svg>