<!-- by TradingView --><svg xmlns="http://www.w3.org/2000/svg" width="56" height="56" viewBox="0 0 56 56"><path fill="#F0F3FA" d="M0 0h56v56H0z"/><path d="M29 23.84V18H9v20h20v-5.84h-1V37H10V19h18v4.85h1Z" fill="#BCD85F"/><path d="M15 22h2v9h6l-.33 2H15V22ZM37 22h5.94c2.06 0 3.36 1.28 3.36 2.83 0 .94-.46 1.86-1.3 2.17 1.03.33 2 1.33 2 2.72C47 31.8 45.46 33 42.83 33H37V22Zm5.39 4c1.16 0 1.61-.33 1.61-1 0-.83-.7-1-1.6-1H39v2h3.39ZM39 31h3.5c1 0 2-.4 2-1.5 0-.88-.82-1.5-1.96-1.5H39v3Z" fill="#02508D"/><path d="M30.62 35.75h.5V38h-.5v-2.25ZM33 35.75V38h-.43l-.48-1.22V38h-.42v-2.25h.42l.48 1.23v-1.23H33ZM34.83 36.34v1.07a.6.6 0 0 1-.63.6h-.64v-2.26h.64a.6.6 0 0 1 .63.6Zm-.5-.02c0-.07-.03-.13-.1-.13h-.17v1.37h.17c.07 0 .1-.05.1-.13v-1.1ZM35.37 37.42v-1.67h.5v1.7c0 .03.01.06.03.08a.13.13 0 0 0 .19 0 .12.12 0 0 0 .03-.09v-1.7h.5v1.68a.6.6 0 0 1-.2.42.63.63 0 0 1-.86 0 .6.6 0 0 1-.19-.42ZM37.16 37.32v-.1h.5v.16c0 .16.08.2.16.2.09 0 .16-.06.16-.19 0-.39-.78-.38-.78-1.05 0-.39.25-.64.63-.64a.58.58 0 0 1 .45.16.56.56 0 0 1 .17.43v.15h-.5v-.19a.11.11 0 0 0-.03-.08.12.12 0 0 0-.1-.03c-.06 0-.12.05-.12.17 0 .31.77.3.77 1.03 0 .4-.25.66-.65.66s-.66-.26-.66-.68ZM40.2 36.2h-.39V38h-.5v-1.8h-.38v-.45h1.27v.44ZM41.52 38l-.2-.8h-.14v.8h-.5v-2.25h.64a.6.6 0 0 1 .63.6v.25a.59.59 0 0 1-.17.42l.26.98h-.52Zm-.35-1.25h.17c.07 0 .11-.06.11-.13v-.3c0-.08-.04-.13-.1-.13h-.18v.56ZM42.56 35.75h.5V38h-.5v-2.25ZM44.12 36.2v.48h.38v.45h-.37v.43h.5V38h-1v-2.25h1v.44h-.5ZM45.13 37.32v-.1h.5v.16c0 .16.07.2.16.2.08 0 .15-.06.15-.19 0-.39-.77-.38-.77-1.05 0-.39.24-.64.62-.64a.58.58 0 0 1 .45.16.55.55 0 0 1 .17.43v.15h-.5v-.19a.11.11 0 0 0-.03-.08.12.12 0 0 0-.09-.03c-.07 0-.13.05-.13.17 0 .31.78.3.78 1.03 0 .4-.26.66-.66.66s-.65-.26-.65-.68Z" fill="#606060"/><path d="M26.99 30c.4.7 1.21 1.14 2.85 1.14 1.8 0 2.3-.52 2.3-1.2 0-.73-.52-1.2-2.95-1.57-4-.63-4.64-1.87-4.64-3.18 0-2.12 2.13-3.19 4.86-3.19 3.4 0 4.81 1.77 4.99 3h-2.67c-.18-.51-.63-1.14-2.42-1.14-1.33 0-2.31.44-2.31 1.14 0 .6.8 1 2.95 1.35 3.7.6 4.55 2.3 4.55 3.33 0 1.83-1.07 3.32-4.93 3.32-3.35 0-4.98-1.28-5.48-3h2.9Z" fill="#02508D"/></svg>