<!-- by TradingView --><svg width="56" height="56" viewBox="0 0 56 56" xmlns="http://www.w3.org/2000/svg"><path fill="#F0F3FA" d="M0 0h56v56H0z"/><path d="M26.63 11.02a18.63 18.63 0 0 0-8.2 2.56 15.76 15.76 0 0 0-5.16 4.65 15.22 15.22 0 0 0-2.11 4.54l-.07.33c-.04.16-.07.34-.07.4 0 .18.08.34.22.43.13.1.27.15.29.12l.11-.34c.8-2.61 2.49-5.07 4.83-7.03a17.09 17.09 0 0 1 11.8-3.96c2.06.15 3.9.66 5.88 1.62a15.72 15.72 0 0 1 8.25 9.6c.44 1.45.7 3.33.57 3.95-.1.43-.35.67-.85.8-.1.02-.37.06-.61.08a13 13 0 0 0-2.96.58 2.76 2.76 0 0 1-2.21-.12c-.67-.32-1.47-.9-2.74-1.98a13.22 13.22 0 0 0-1.42-1.16c-.02.02-.02.1-.08 1.34-.02.56-.06 1.2-.08 1.41-.31 3.52-1.57 4.55-5.02 4.1-.66-.1-1.21-.2-1.91-.39-.78-.2-.97-.28-1.18-.48-.25-.24-.39-.54-.5-1.12a20.2 20.2 0 0 1-.33-2.79 58.65 58.65 0 0 0-.18-1.98c-.01-.02-.12.08-.3.27-.4.42-1.33 1.3-1.67 1.58a8.31 8.31 0 0 1-4.09 2c-.62.1-1.14.1-2.05.04a20.8 20.8 0 0 1 6.46 2.78 13.87 13.87 0 0 0 4.92 2.06c.67.13 1.01.16 1.86.16.63 0 .86-.01 1.12-.04a11.1 11.1 0 0 0 2.68-.68c.47-.18 1.4-.63 1.86-.9 1.38-.81 1.67-.97 2.37-1.32a16.84 16.84 0 0 1 5.2-1.67c.59-.08.83-.1 1.72-.11.77-.02.9-.03 1.05-.07.6-.15.84-.46.94-1.2.03-.22.03-.46.03-1.53a11.38 11.38 0 0 0-.17-2.43 16.2 16.2 0 0 0-3.56-7.73 17.86 17.86 0 0 0-14.64-6.37Z" fill="#0E3A5F"/><path d="M11.35 32.29a.7.7 0 0 0-.35.52c-.01.15.05.4.17.68l.26.62c1.53 3.58 3.61 6.11 6.62 8.04a18 18 0 0 0 7.63 2.75c.79.09 1.01.1 2.07.1a16.45 16.45 0 0 0 11.42-4.48l.7-.63a10.51 10.51 0 0 0 3.39-5.64c-.03-.02-.81.89-1.55 1.8a51.08 51.08 0 0 1-1.97 2.4c-.42.46-.65.68-.72.7-.21.05-.41.16-.62.33a14.6 14.6 0 0 1-6.13 3.09 17.6 17.6 0 0 1-13.36-2.1 14.55 14.55 0 0 1-4.8-4.86 8.72 8.72 0 0 1-.65-1.38c.03-.02 1.36.37 2.12.62 1.82.62 3.06 1.14 5.61 2.38.88.43 1.76.84 1.96.92 1.5.62 2.83.95 4.25 1.06.44.03 1.48.01 1.9-.04 2-.23 3.83-.97 5.65-2.29.3-.21.38-.26.58-.33.72-.26 1.4-.7 1.88-1.24l.17-.2.34-.1a2.65 2.65 0 0 0 1.58-1.18s-.1 0-.2.03l-.94.14c-.86.13-1.19.2-1.58.32-.37.12-.7.28-.98.48-.4.29-.7.42-1.45.62-.77.21-.92.27-1.5.57a10.24 10.24 0 0 1-8.6.29l-1.41-.56c-4.66-1.87-7.18-2.67-10.04-3.2a7 7 0 0 1-.67-.16c-.34-.1-.65-.14-.78-.07Z" fill="#67B3E1"/><path d="M26.77 17.73c.26-.42.38-.57.53-.66.16-.09.27-.1.42-.02.16.08.32.26.58.7A18.1 18.1 0 0 1 30.62 31c-.05 0-.44-1.04-.91-2.4-.6-1.74-.77-2.14-1.55-3.74-.1-.2-.33-.43-.47-.47-.3-.08-.55.04-.77.38l-.18.4-.5 1.19a36.08 36.08 0 0 0-1.3 3.27c-.1.34-.18.43-.44.42-.21 0-.36-.1-.41-.3-.06-.21-.09-.89-.09-2.02a18.68 18.68 0 0 1 2.77-10Z" fill="#0E3A5F"/></svg>