<!-- by TradingView --><svg width="56" height="56" viewBox="0 0 56 56" xmlns="http://www.w3.org/2000/svg"><path fill="#144631" d="M0 0h56v56H0z"/><path fill-rule="evenodd" d="M12.17 41.42h-.93c-.13 0-.24.1-.24.24 0 .13.1.34.24.34h6.43c.13 0 .24-.2.24-.34 0-.13-.11-.24-.24-.24h-.52c-1.27 0-1.19-1.12-1-1.69l.52-1.69c3.21 3.67 7.34 4.83 9 4.96l-.3-.68A13.44 13.44 0 0 1 17.33 36l.99-3.01h7.17c.78 2.13 1.5 4.05 1.96 5.25 1.25 3.24 3.85 3.78 5 3.65 5.83 0 10.52-7.95 10.52-13.4.37-5.97-4.93-15.5-14.65-15.5C17 13 12.87 22.53 12.87 27.87c0 4.27 1.74 7.5 2.6 8.57-.25.54-.86 1.92-1.22 3.12-.36 1.19-1.54 1.74-2.08 1.86ZM25.13 32l-3.3-9.15h-.15L18.66 32h6.47Zm-10.41-4.08c0 3.05 1 5.48 1.5 6.31l5.69-15.8a.39.39 0 0 1 .72 0l7.08 18.31c.16.98.97 2.94 2.97 2.94 3.4 0 6.24-3.38 7.23-5.06.67-1.05 2.01-4 2.01-7.38 0-4.22-3.34-12.4-13.85-12.4-10.52 0-13.35 9.27-13.35 13.08Z" fill="#fff"/></svg>