<!-- by TradingView --><svg width="56" height="56" viewBox="0 0 56 56" xmlns="http://www.w3.org/2000/svg"><path fill="url(#a)" d="M0 0h56v56H0z"/><path d="m25.58 14.7 11.95-2.4 2.43 11.76-9.7 1.95a2.28 2.28 0 0 1-2.7-1.76l-1.98-9.55Z" fill="#6B6E70"/><path d="M31.06 41.16 43 38.76 40.57 27l-9.7 1.95a2.25 2.25 0 0 0-1.79 2.65l1.98 9.55Z" fill="#5CA8DC"/><path d="M28.82 41.6 16.87 44l-2.43-11.76 9.7-1.95a2.28 2.28 0 0 1 2.7 1.76l1.98 9.55Z" fill="#003D7A"/><path d="M12.63 27.25 11 30.63l11.94-2.4c2.4-.47 2.58-2.55 2.38-3.53L22.28 10l-2.23 4.27 2.28 11.03-9.7 1.95Z" fill="#3F3F3F"/><defs><linearGradient id="a" x1="10.42" y1="9.71" x2="68.15" y2="76.02" gradientUnits="userSpaceOnUse"><stop stop-color="#1A1E21"/><stop offset="1" stop-color="#06060A"/></linearGradient></defs></svg>