<!-- by TradingView --><svg width="56" height="56" viewBox="0 0 56 56" xmlns="http://www.w3.org/2000/svg"><path fill="#C8102E" d="M0 0h56v56H0z"/><path fill-rule="evenodd" d="M28.19 11.14c-.03-.08-.1-.14-.19-.14-.1 0-.16.06-.19.14-.2.66-.45 1.26-.73 1.79a4.84 4.84 0 0 1-1.61 1.87c-.75.47-1.56.6-2.45.38a4.01 4.01 0 0 1-.83-.3c-.08-.04-.14-.05-.17-.05-.14.02-.17.12-.16.25a55385.53 55385.53 0 0 0 .69 10.35l-2.76-3.64c-.06-.07-.1-.1-.19-.1-.1.01-.15.08-.18.18-.17.48-.4.9-.7 1.26a3.14 3.14 0 0 1-2.38 1.12 7.62 7.62 0 0 1-3.56-1.03c-.13-.06-.27.05-.27.18a10.05 10.05 0 0 1 .88 2.29 3.86 3.86 0 0 1-.35 3.06 3.63 3.63 0 0 1-1.91 1.4c-.15.05-.17.25-.05.34a12544.82 12544.82 0 0 1 9.54 7.28v.01l-2.55 2.53c-.06.06-.1.13-.06.2.04.1.12.13.22.13H22.76V42.53c0 .07.01.12.03.15.04.07.12.09.2.07l.4-.06a5.1 5.1 0 0 1 4.04.89c.13.1.27.23.43.38.03.03.08.05.14.05.06 0 .1-.02.14-.05a5.1 5.1 0 0 1 4.48-1.27l.38.06c.09.02.17 0 .21-.07a.32.32 0 0 0 .03-.15 576.16 576.16 0 0 0 0-1.88h4.53c.1 0 .19-.02.22-.12.03-.08 0-.15-.05-.2l-2.56-2.54v-.01l9.54-7.28c.12-.1.1-.29-.05-.34a3.63 3.63 0 0 1-1.91-1.4c-.6-.9-.6-2.05-.35-3.06a10.04 10.04 0 0 1 .88-2.29c0-.13-.14-.24-.27-.18a7.62 7.62 0 0 1-3.56 1.03 3.13 3.13 0 0 1-2.38-1.12c-.3-.36-.53-.78-.7-1.26-.03-.1-.08-.17-.18-.18-.09 0-.13.03-.19.1l-2.76 3.64a77940.1 77940.1 0 0 0 .69-10.35c.01-.13-.02-.23-.16-.25-.03 0-.1.01-.17.05a4 4 0 0 1-.83.3c-.89.21-1.7.09-2.45-.38a4.84 4.84 0 0 1-1.61-1.87c-.28-.53-.53-1.13-.73-1.79ZM22.12 28.3c.02 0 .03 0 .02.03l-.2.77a226.58 226.58 0 0 0-.8 3.34c-.31 1.43-.5 2.32-.8 3.54-.04.17-.05.28-.04.33.01.13.09.23.23.29.2.08.47.18.8.28.28.1.46-.02.52-.31a2119.94 2119.94 0 0 1 1.88-8.71c.15-.05.29-.1.41-.12l.27-.07.08-.03.1-.03.35-.1.22-.04a68.51 68.51 0 0 0 .63-.18l.07-.01.68-.2.08-.01.07-.01a68.02 68.02 0 0 0 .74-.2l.75-.18c.2-.05.36-.2.21-.42a8.74 8.74 0 0 0-.32-.43c-.1-.14-.26-.14-.43-.1l-1.77.4c-2.48.6-5.01 1.3-7.59 2.07a.67.67 0 0 0-.19.1c-.17.11-.1.29-.02.43a5.94 5.94 0 0 0 .4.56c.1.08.26.06.39.02l.87-.28.07-.02.08-.02a10.17 10.17 0 0 1 .68-.21c.09-.02.18-.06.29-.1a3.94 3.94 0 0 1 .57-.17 115.9 115.9 0 0 1 .55-.17c.05 0 .1-.02.15-.04Zm3.09 1.72c-.4-.2-.57-.72-.35-1.17.22-.45.72-.65 1.13-.45.41.2.57.72.35 1.17-.21.45-.72.65-1.13.45Zm1.84 3.47a5.62 5.62 0 0 0-.16.35c-.35.7-.72 1.39-1.27 1.88-.18.16-.4.27-.65.34-.3.1-.64.07-.89-.13-.28-.23-.34-.62-.35-.95 0-.2.01-.48.04-.69.13-1.05.37-2.09.64-3.15.09-.31.21-.46.56-.33l.57.23c.2.1.23.27.17.49a60.4 60.4 0 0 0-.6 2.77c-.03.17-.1.75.24.7l.17-.08c.1-.06.19-.16.28-.28a7.25 7.25 0 0 0 .68-1.19 11.15 11.15 0 0 0 .4-.89l.02-.05a5 5 0 0 0 .22-.5 20 20 0 0 1 .19-.5l.02-.06c0-.03 0-.04.02-.07.1-.24.15-.4.17-.47.05-.15.1-.3.17-.44.08-.17.24-.19.4-.13.18.06.37.14.58.23.1.05.21.12.23.24l-.01.21a115 115 0 0 0-.5 2.48 23.47 23.47 0 0 1 1.17-1.89l.1-.17c.05-.05.08-.1.11-.15l.13-.2a.2.2 0 0 0 .03-.05c0-.01 0-.03.02-.04l.12-.17.11-.16.28-.4a.38.38 0 0 1 .29-.17.8.8 0 0 1 .3.07l.43.18c.07.03.12.07.15.11.06.09.04.26.01.36a32.5 32.5 0 0 0-.4 2.23 3 3 0 0 1 .2-.36 55.02 55.02 0 0 1 .6-.98l.06-.1a1.94 1.94 0 0 1 .2-.33 14.66 14.66 0 0 0 .62-.92l.01-.02.01-.02.25-.33c.18-.21.39-.17.63-.07l.46.22c.18.1.13.36.08.53-.26.8-.43 1.62-.5 2.45 0 .08 0 .16.03.26s.09.17.17.22c.1.05.25-.09.3-.16.12-.14.22-.3.32-.5a7.74 7.74 0 0 1 .28-.52.5.5 0 0 1 .04-.1c.08-.13.14-.23.16-.3l.1-.23c.08-.1.12-.2.15-.29l.03-.06c.02-.02.03-.04.03-.07l.03-.05a14.36 14.36 0 0 1 .65-1.15 5.8 5.8 0 0 0 .25-.41 13 13 0 0 0 .47-.66c.12-.16.24-.3.36-.43l.17-.12c.07-.04.15-.04.23 0 .06.02.17.1.34.22.07.04.1.08.12.13.03.1 0 .16-.07.24l-.06.08c-.19.22-.3.37-.4.61-.09.27-.01.5.15.72l.03.03c.16.2.41.53.58.83.09.17.15.33.18.48.11.56 0 1.14-.41 1.54a2 2 0 0 1-.96.47c-.52.12-1.17.1-1.47-.4a.53.53 0 0 1 0-.55c.06-.14.14-.24.22-.32.09-.09.17-.1.25-.05.03.03.07.08.1.16l.02.05c.04.1.08.2.14.28.16.22.37.28.63.18a.5.5 0 0 0 .34-.43c.03-.37-.2-.66-.43-.94l-.12-.15a2.5 2.5 0 0 1-.4-.83l-.02-.07a42.98 42.98 0 0 0-.18.3l-.27.52-.02.03v.03a21.82 21.82 0 0 0-.46.91c0 .02 0 .04-.02.06l-.08.15a2.94 2.94 0 0 1-.71 1.11c-.29.32-.76.6-1.21.6-.61.02-.89-.44-.9-.99a7 7 0 0 1 .17-1.67v-.06a.2.2 0 0 1 .02-.07.53.53 0 0 0 .03-.12v-.01h-.01a83.86 83.86 0 0 1-.3.45l-.02.03a11.87 11.87 0 0 0-.16.26l-.18.33c-.38.66-.73 1.3-1.05 1.92-.07.15-.18.23-.32.24a.8.8 0 0 1-.3-.07l-.32-.13c-.24-.1-.32-.22-.3-.49.06-.72.17-1.52.33-2.4 0-.04 0-.04-.03 0a3.2 3.2 0 0 1-.13.17l-.1.17a1.2 1.2 0 0 1-.12.17l-.02.05a47.39 47.39 0 0 0-1.72 3 .36.36 0 0 1-.11.1c-.1.08-.26.07-.38.03a7.45 7.45 0 0 1-.45-.18c-.23-.11-.2-.37-.18-.6v-.01a20.86 20.86 0 0 1 .16-1.17Z" fill="#fff"/></svg>