<!-- by TradingView --><svg width="56" height="56" viewBox="0 0 56 56" xmlns="http://www.w3.org/2000/svg"><path fill="#F0F3FA" d="M0 0h56v56H0z"/><path d="M41.01 32.18a2.86 2.86 0 0 0-3.2.27l-1.44-.8-2.53-1.42v1.11l-.98.56 3.97 2.24a2.76 2.76 0 0 0 1.39 2.85c1.35.76 3.07.3 3.84-1.03s.3-3.02-1.05-3.78Zm-.34 3c-.33.57-1.08.77-1.66.44a1.18 1.18 0 0 1-.45-1.63 1.23 1.23 0 0 1 1.66-.44c.58.33.78 1.05.45 1.63Z" fill="url(#a)"/><path d="m23.2 31.92-1.2-.58v-1.06l-3.79 2.3a2.86 2.86 0 0 0-3.23-.28 2.74 2.74 0 0 0-1.02 3.78 2.84 2.84 0 0 0 3.85 1 2.75 2.75 0 0 0 1.37-2.82l4.03-2.34Zm-6.2 3.8c-.57.33-1.32.14-1.65-.43-.34-.57-.14-1.3.43-1.63a1.23 1.23 0 0 1 1.66.43c.34.57.15 1.3-.43 1.63Z" fill="url(#b)"/><path d="M21 17a1 1 0 1 0 0-2 1 1 0 0 0 0 2Z" fill="url(#c)"/><path d="M35.5 16.86a1 1 0 1 0-1-1.72 1 1 0 0 0 1 1.72Z" fill="url(#d)"/><path d="M34.8 23.08 30 20.32v2.18l4 2.23v4.05l2 1.1v-5.13l1.92-1.23c.89.69 2.14.8 3.17.22a2.74 2.74 0 0 0 1.01-3.79 2.85 2.85 0 0 0-3.85-1 2.75 2.75 0 0 0-1.35 2.92l-2.1 1.2Zm4.26-2.76a1.22 1.22 0 0 1 1.66.43c.33.57.14 1.3-.44 1.63-.58.33-1.32.14-1.66-.43-.34-.57-.14-1.3.44-1.63Z" fill="url(#e)"/><path d="M14.82 23.83c1.05.6 2.32.44 3.2-.27L20 24.8v5.13l2-1.1v-4.1l4-2.28V20.3l-4.77 2.83L19 21.88a2.76 2.76 0 0 0-1.39-2.86 2.84 2.84 0 0 0-3.84 1.03 2.74 2.74 0 0 0 1.05 3.78Zm.34-3a1.23 1.23 0 0 1 1.66-.44c.58.33.78 1.06.45 1.63-.34.57-1.08.77-1.66.44a1.18 1.18 0 0 1-.45-1.62Z" fill="url(#f)"/><path d="M27 17.37v4.62l1.01-.56.99.55v-4.62a2.74 2.74 0 0 0 1.77-2.94 2.8 2.8 0 0 0-2.48-2.4 2.8 2.8 0 0 0-3.13 2.76c0 1.19.77 2.2 1.84 2.59Zm.97-3.8c.67 0 1.22.54 1.22 1.2 0 .65-.54 1.19-1.2 1.2a1.2 1.2 0 0 1-1.23-1.2c0-.65.54-1.2 1.21-1.2Z" fill="url(#g)"/><path d="M35 39a1 1 0 1 0 0 2 1 1 0 0 0 0-2Z" fill="url(#h)"/><path d="M42.5 27.13a1 1 0 1 0-1 1.74 1 1 0 0 0 1-1.74Z" fill="url(#i)"/><path d="M14.87 28.5a1 1 0 1 0-1.73-1 1 1 0 0 0 1.73 1Z" fill="url(#j)"/><path d="m31.58 32.64-3.52 2.01-.03-.01-.02.01-3.5-1.99-1.96 1.12 4.53 2.55.01 2.3a2.77 2.77 0 0 0-1.84 2.61A2.8 2.8 0 0 0 28.08 44a2.8 2.8 0 0 0 2.8-2.78c0-1.18-.76-2.19-1.83-2.58v-2.32l4.5-2.58-1.97-1.1Zm-2.3 8.59c0 .65-.54 1.2-1.21 1.2a1.2 1.2 0 0 1-1.22-1.2c0-.65.54-1.19 1.21-1.2.67 0 1.22.54 1.22 1.2Z" fill="url(#k)"/><path d="M20.5 39.14a1 1 0 1 0 1 1.72 1 1 0 0 0-1-1.72Z" fill="url(#l)"/><defs><linearGradient id="a" x1="12.69" y1="47.36" x2="52.54" y2="24.42" gradientUnits="userSpaceOnUse"><stop offset=".5" stop-color="#5AB9BC"/><stop offset="1" stop-color="#3D539E"/></linearGradient><linearGradient id="b" x1="8.06" y1="39.32" x2="47.91" y2="16.38" gradientUnits="userSpaceOnUse"><stop stop-color="#3D539E"/><stop offset=".5" stop-color="#5AB9BC"/></linearGradient><linearGradient id="c" x1="4.6" y1="25.28" x2="37.72" y2="6.54" gradientUnits="userSpaceOnUse"><stop stop-color="#3D539E"/><stop offset=".5" stop-color="#5AB9BC"/><stop offset="1" stop-color="#3D539E"/></linearGradient><linearGradient id="d" x1="9.98" y1="30.16" x2="43.09" y2="11.42" gradientUnits="userSpaceOnUse"><stop offset=".5" stop-color="#5AB9BC"/><stop offset="1" stop-color="#3D539E"/></linearGradient><linearGradient id="e" x1="7.96" y1="39.15" x2="47.81" y2="16.21" gradientUnits="userSpaceOnUse"><stop offset=".5" stop-color="#5AB9BC"/><stop offset="1" stop-color="#3D539E"/></linearGradient><linearGradient id="f" x1="3.89" y1="32.07" x2="43.73" y2="9.13" gradientUnits="userSpaceOnUse"><stop stop-color="#3D539E"/><stop offset=".5" stop-color="#5AB9BC"/><stop offset="1" stop-color="#3D539E"/></linearGradient><linearGradient id="g" x1="3.19" y1="30.85" x2="43.03" y2="7.91" gradientUnits="userSpaceOnUse"><stop offset=".5" stop-color="#5AB9BC"/><stop offset="1" stop-color="#3D539E"/></linearGradient><linearGradient id="h" x1="18.35" y1="49.42" x2="51.46" y2="30.68" gradientUnits="userSpaceOnUse"><stop stop-color="#3D539E"/><stop offset=".5" stop-color="#5AB9BC"/><stop offset="1" stop-color="#3D539E"/></linearGradient><linearGradient id="i" x1="16.85" y1="42.23" x2="49.96" y2="23.49" gradientUnits="userSpaceOnUse"><stop offset=".5" stop-color="#5AB9BC"/><stop offset="1" stop-color="#3D539E"/></linearGradient><linearGradient id="j" x1="6.1" y1="32.47" x2="39.22" y2="13.74" gradientUnits="userSpaceOnUse"><stop stop-color="#3D539E"/><stop offset=".5" stop-color="#5AB9BC"/></linearGradient><linearGradient id="k" x1="12.14" y1="46.4" x2="51.99" y2="23.46" gradientUnits="userSpaceOnUse"><stop stop-color="#3D539E"/><stop offset=".5" stop-color="#5AB9BC"/><stop offset="1" stop-color="#3D539E"/></linearGradient><linearGradient id="l" x1="12.97" y1="44.54" x2="46.09" y2="25.8" gradientUnits="userSpaceOnUse"><stop stop-color="#3D539E"/><stop offset=".5" stop-color="#5AB9BC"/></linearGradient></defs></svg>