<!-- by TradingView --><svg width="56" height="56" viewBox="0 0 56 56" xmlns="http://www.w3.org/2000/svg"><path fill="#F0F3FA" d="M0 0h56v56H0z"/><path d="M22 19h2v15h-2V19ZM15.98 20 15 22.22 19 34h2l-5.02-14Z" fill="#D23446"/><path d="M15.07 19H13L8 34h2l1.35-4h5.6l-.68-2h-4.24l3.04-9Z" fill="#D23446"/><path fill-rule="evenodd" d="M41.58 22A4.67 4.67 0 0 0 37 26.76v2.48A4.67 4.67 0 0 0 41.58 34h1.84A4.67 4.67 0 0 0 48 29.24v-2.48A4.67 4.67 0 0 0 43.42 22h-1.84Zm.92 2a3.5 3.5 0 0 0-3.5 3.5v1a3.5 3.5 0 1 0 7 0v-1a3.5 3.5 0 0 0-3.5-3.5Z" fill="#D23446"/><path d="M25 26.76A4.67 4.67 0 0 1 29.58 22h1.84c.96 0 1.85.3 2.58.83V22h2v14.14A2.93 2.93 0 0 1 33.01 39H29A2.93 2.93 0 0 1 26 36.14v-.7h2v.2c0 .87.73 1.36 1.64 1.36h2.72c.9 0 1.64-.7 1.64-1.57v-2.26c-.73.53-1.62.83-2.58.83h-1.84A4.67 4.67 0 0 1 25 29.24v-2.48Zm9 1.65v-.82A3.55 3.55 0 0 0 30.5 24c-1.93 0-3.5 1.6-3.5 3.6v.8c0 2 1.57 3.6 3.5 3.6s3.5-1.6 3.5-3.59Z" fill="#D23446"/></svg>