<!-- by TradingView --><svg width="56" height="56" viewBox="0 0 56 56" xmlns="http://www.w3.org/2000/svg"><path fill="#F0F3FA" d="M0 0h56v56H0z"/><path d="M24.29 27c-.07-.12-.2-.18-.3-.12-.1.06-.13.2-.06.33.06.12.2.18.3.12.1-.06.13-.2.06-.33ZM43.18 27.25c-.12-.08-.27-.05-.33.05s-.01.25.1.32c.13.08.28.06.34-.04s.01-.25-.11-.33Z" fill="#040404"/><path d="M11.7 21.04c.16-.07.3-.05.4.08.34.37-.01 1.62-.18 2.16a87.32 87.32 0 0 1-2.41 6.8c0 .02.02.03.03.04l.05.02h.02a15.93 15.93 0 0 1 2.71-3.67c.5-.5 1-.88 1.5-1.11.3-.15.72-.08.76.34.04.42-.02.84-.16 1.26l-1.22 3.7c-.1.35-.15.67-.14.98a.3.3 0 0 0 .13.23.29.29 0 0 0 .27.03c.34-.15.67-.34.99-.57 1.5-1.1 2.82-2.2 3.93-3.26.45-.43 1.45-.22 1.22.54a.36.36 0 0 0 .03.28c.77 1.31 2.63.88 3.58.08.06-.05.1-.11.14-.19l.34-.9a.2.2 0 0 1 .1-.11.18.18 0 0 1 .16.01l.08.05c.05.03.08.07.1.13.02.05.02.1 0 .16l-.74 1.93v.03a.07.07 0 0 0 .05.06h.04c1.04-.44 2.14-.85 3.3-1.23.28-.1.46-.18.55-.25.35-.34.66-.77 1.2-.82a.6.6 0 0 1 .36.08c.1.07.18.16.2.27.21.84-.55 1.18-1.24 1.03h-.04a.09.09 0 0 0-.04.02.1.1 0 0 0-.03.08c.2 1.6 4.14-.2 4.89-.58a.21.21 0 0 0 .1-.1.22.22 0 0 0 .02-.12c-.04-.48.34-.89 1.15-1.24a.16.16 0 0 1 .15.01.17.17 0 0 1 .08.13v.1c0 .05 0 .1-.03.14a.26.26 0 0 1-.1.1l-.64.4a.27.27 0 0 0-.13.23.27.27 0 0 0 .13.22l.64.38c.07.04.12.1.15.18l.14.42.06.08.1.02c1.12-.14 2.16-.42 3.1-.84a.46.46 0 0 0 .25-.26l1.64-4.33.01-.05c0-.02 0-.04-.02-.05a.1.1 0 0 0-.1-.04l-4.1.26-.06-.01a.12.12 0 0 1-.05-.04.13.13 0 0 1-.02-.11l.02-.1a.22.22 0 0 1 .2-.17c1.83-.13 3.15-.21 3.95-.24.3-.01.49-.18.54-.52.02-.11.13-.25.24-.26l.07.01c.03.01.05.03.06.05.02.03.03.05.03.08v.08c-.06.14-.07.23-.05.3l.06.07c.03.02.06.03.1.03l4-.01c.03 0 .07.01.1.04s.04.07.04.11v.1a.16.16 0 0 1-.04.1.15.15 0 0 1-.05.03 92.02 92.02 0 0 0-4.02.03c-.23.02-.42.19-.55.52-.63 1.6-1.22 3.2-1.78 4.8-.18.5-.26.97-.25 1.4a.57.57 0 0 0 .45.53c.28.06.55.05.81-.04a6.34 6.34 0 0 0 3.49-2.78c.06-.1.15-.16.26-.16.02 0 .05 0 .07.02.03 0 .05.03.06.05l.03.08c0 .03 0 .06-.02.09l-.3.7a.36.36 0 0 0 .03.33.35.35 0 0 0 .28.16c1.62.03 3-.5 4.12-1.59.33-.33 1.24-.58 1.6-.05.02.03.03.07.03.1a.17.17 0 0 1-.13.16c-.04 0-.08 0-.1-.02-.87-.53-1.48.38-1.87 1.05a.51.51 0 0 0-.06.34.5.5 0 0 0 .17.3c1 .84 4.2-.34 5.07-1.4a.11.11 0 0 1 .1-.04c.03 0 .05.02.06.03l.04.05.02.07a.3.3 0 0 1-.05.29c-.78.89-2.17 1.3-3.25 1.53-.84.17-2.7.3-2.64-1.07l-.01-.03a.07.07 0 0 0-.02-.02.06.06 0 0 0-.06-.01c-.9.41-3.02 1.23-3.73.26a.12.12 0 0 0-.14-.04.12.12 0 0 0-.04.03c-.91 1-2.46 2.12-3.82 2.1-1.2-.02-.92-1.6-.64-2.3a.1.1 0 0 0-.02-.11.09.09 0 0 0-.1-.02c-1 .44-2.1.6-3.14.82a.26.26 0 0 0-.1.04.26.26 0 0 0-.07.08c-.33.6-.78 1.3-1.5 1.45a.25.25 0 0 1-.24-.08.27.27 0 0 1-.06-.26c.19-.63.73-.98 1.36-1.38a.34.34 0 0 0 .16-.3.34.34 0 0 0-.16-.29l-.53-.31a.41.41 0 0 0-.44 0c-1.07.67-3.98 1.9-5.11.94a.81.81 0 0 1-.3-.8v-.03a.06.06 0 0 0-.03-.03l-.02-.01h-.03l-3.72 1.4a.59.59 0 0 0-.35.38c-.47 1.53-1.02 2.96-2.36 3.77-.4.24-.82.36-1.25.35-.53-.01-.56-.7-.44-1.08.25-.86.82-1.6 1.69-2.25a10.74 10.74 0 0 1 1.98-1.23l.02-.03.35-.91v-.03h-.03c-.99.58-2.96.99-3.74-.13a.13.13 0 0 0-.08-.05c-.03-.01-.07 0-.1.01-.37.23-.89.7-1.32.74-.06.01-.11 0-.17-.02a.34.34 0 0 1-.13-.1.38.38 0 0 1-.06-.33.3.3 0 0 0 .01-.09v-.02l-.02-.02h-.05a312.86 312.86 0 0 1-2.44 1.85c-.5.38-1.49 1.1-1.92.95a.55.55 0 0 1-.27-.22.7.7 0 0 1-.11-.35 4 4 0 0 1 .21-1.44c.71-2.16 1.25-3.48 1.27-4.35a.21.21 0 0 0-.1-.18.2.2 0 0 0-.2 0c-.54.3-1.04.69-1.5 1.17A24.81 24.81 0 0 0 9 31.8a.16.16 0 0 1-.25.04.17.17 0 0 1-.05-.08.94.94 0 0 1 .04-.53c.56-1.63 1.16-3.31 1.8-5.04.57-1.5.99-2.8 1.26-3.89.08-.3.12-.53.1-.68a.2.2 0 0 0-.03-.1.2.2 0 0 0-.19-.09.2.2 0 0 0-.1.04 18.86 18.86 0 0 0-3.53 3.87c-.38.5-.65 1.05-.84 1.65-.39 1.27-.92 2.76-1.6 4.47-.2.54-.69 1.76-1.42 1.48a.2.2 0 0 1-.08-.06.23.23 0 0 1-.05-.09c-.07-.28-.07-.55.02-.82.64-2.03 1.77-3.83 2.98-5.78.1-.17.18-.34.23-.53l1.07-4.05c0-.03.03-.06.05-.08a.14.14 0 0 1 .1-.03h.03a.16.16 0 0 1 .12.07.17.17 0 0 1 .02.14l-.8 3.12v.04a.06.06 0 0 0 .07.03s.02 0 .03-.02a24.51 24.51 0 0 1 2.38-2.86c.4-.42.86-.74 1.36-.99Zm10.8 10c-1.02.57-2.85 1.95-2.93 3.16 0 .05 0 .1.03.15a.3.3 0 0 0 .22.18c.05 0 .1 0 .14-.02a3.27 3.27 0 0 0 1.9-1.6 6.88 6.88 0 0 0 .76-1.82.08.08 0 0 0-.07-.05h-.05ZM6.54 27.77c-.03-.02-.1.07-.21.26-.11.2-.27.48-.45.84a50.2 50.2 0 0 0-1.32 2.82l-.27.62v.04l.37.17h.03l.02-.01.27-.62c.47-1.07.9-2.1 1.2-2.87.3-.76.44-1.21.39-1.24l-.03-.01Zm12.34.46a.34.34 0 0 0-.13.07c-.47.4-.76.79-.87 1.15a.1.1 0 0 0 0 .06c0 .02.01.04.03.05a.1.1 0 0 0 .12 0l1.21-.71a.24.24 0 0 0 .12-.25.25.25 0 0 0-.03-.09l-.07-.11a.34.34 0 0 0-.38-.16Zm9.9.17c-.06-.12-.28-.12-.5 0-.22.11-.35.3-.29.42s.29.12.5 0c.22-.11.35-.3.3-.42Z" fill="#040404"/></svg>