<!-- by TradingView --><svg width="56" height="56" viewBox="0 0 56 56" xmlns="http://www.w3.org/2000/svg"><path fill="#1137A6" d="M0 0h56v56H0z"/><path d="M13 23v-3h4.2c2.24 0 2.8 1.7 2.8 2.55V34h-3V23h-4ZM28.6 20c2.93 0 5.4 1.92 5.4 5a4.9 4.9 0 0 1-3.13 4.6L35 34h-3.5L28 30h-2v4h-3V20h5.6ZM26 27h2.6c1.52 0 2.4-.5 2.4-2s-.98-2-2.5-2H26v4ZM35 23v-3h10v3h-3.5v11h-3V23H35Z" fill="#EFEDFA"/><path d="M13 26.74c-2.06 1.3-3 2.3-3 4.6C10 38 23.7 39 28 39c4.3 0 18-1 18-7.67 0-.55-1-3.67-2-4.59V26c2.51 1.56 4 3.9 4 6 0 5.15-8.95 10-20 10S8 37.5 8 32.34c0-2.45 1.7-4.67 5-6.34v.74Z" fill="#D2B22B"/></svg>