<!-- by TradingView --><svg width="56" height="56" viewBox="0 0 56 56" xmlns="http://www.w3.org/2000/svg"><path fill="#F0F3FA" d="M0 0h56v56H0z"/><path d="M19 29v1c.75-.06 2.5-.07 2.5 1.16v.33c.02 1.57.05 3.96-4 3.96-4.36 0-5.5-3.64-5.5-8.26 0-4.61 3-6.7 5.76-6.7 2.77 0 4.68 2.05 5.29 4.7H24v-5.66h-1.12l-.44 1.48A7.94 7.94 0 0 0 17.08 19C13.68 19 8 21.42 8 28.21c0 6.8 5.64 8.79 8.81 8.79 1.56 0 2.76-.27 3.98-.54 1.25-.27 2.52-.56 4.21-.56v-4.55c0-.86.85-1.35 1.72-1.35H27v-1h-8Zm21.02-10c-3.2 0-6.68.16-8.02.24V20h.9c.89 0 1.6 1.2 1.6 2.06v12.16c0 .87-.71 1.78-1.6 1.78H32v1h8.96v-1H40c-.89 0-1.99-.9-1.99-1.78v-5.26c6.75.32 10-1.36 10-5.14 0-3.8-3.96-4.82-7.98-4.82ZM38 27.57v-7.01h1.53c4.04 0 4.47 1.9 4.47 3.08 0 1.2-.07 2.14-.99 3.08-.74.75-2.5.88-3.3.85H38Z" fill="#010F3C"/><path d="M30.7 30h2.59v.23c-.22.06-.73.27-1 .64-.14.18-.29.5-.45.83-.23.51-.5 1.08-.8 1.36.3.47 1.07 1.4 1.78 1.4.55 0 .84-.29.92-.46H34c-.09.35-.49 1-1.4 1a2.57 2.57 0 0 1-2.1-1.14c-.32.38-1.21 1.14-2.2 1.14-1.24 0-2.3-.97-2.3-2.31 0-1.07 1.33-2.04 2-2.39a2.68 2.68 0 0 1-.74-1.62c0-.86.54-1.68 1.77-1.68s1.6.93 1.6 1.37c0 .43-.5 1.2-1.71 1.69l2 2.71c.26-.36.76-1.21.76-1.75 0-.53-.65-.7-.97-.72V30Zm-2.68-1.75c0 .62.5 1.34.76 1.62.4-.2 1.17-.77 1.17-1.42 0-.8-.52-1.17-.94-1.17-.42 0-.99.2-.99.97Zm2.31 5.35-2.17-3.1c-.71.54-1.3 1.17-1.3 2.1 0 .92 1.08 1.82 1.98 1.82.72 0 1.3-.55 1.49-.82Z" fill="#EDB531"/></svg>