<!-- by TradingView --><svg width="56" height="56" viewBox="0 0 56 56" xmlns="http://www.w3.org/2000/svg"><path fill="#F0F3FA" d="M0 0h56v56H0z"/><path d="M21 23v.68h-1V27h-1v-3.32h-1V23h3ZM22.5 23v4h-1v-4h1ZM25.9 26.22h-1.71l-.29.78H23l1.54-4h1l1.55 4h-.91l-.28-.78Zm-.24-.63-.62-1.64-.62 1.64h1.24ZM31.5 27h-1l-2-2.72V27h-1v-4h1l2 2.74V23h1v4ZM32 25c0-1.2 1.03-2 2.18-2 .86 0 1.71.42 2.02 1.27h-1c-.19-.37-.56-.56-1.03-.56-.75 0-1.17.55-1.17 1.3 0 .74.42 1.29 1.17 1.29.48 0 .84-.2 1.03-.57h1c-.31.85-1.16 1.27-2.02 1.27-1.15 0-2.18-.8-2.18-2ZM38 23v4h-1v-4h1ZM5 29v4H4v-4h1ZM9.5 33h-1l-2-2.72V33h-1v-4h1l2 2.74V29h1v4ZM13 29v.69h-1V33h-1v-3.31h-1V29h3ZM14.55 29.69v.98H16v.62h-1.45v1.03H16V33h-2.5v-4H16v.69h-1.45ZM19.25 33l-.96-1.56H18V33h-1v-4h1.64c.73 0 1.57.4 1.57 1.25 0 .6-.45 1-.99 1.13L20.26 33h-1ZM18 30.85h.6c.49 0 .61-.22.61-.58s-.13-.57-.6-.57H18v1.15ZM25 33h-1l-2-2.7V33h-1v-4h1l2 2.75V29h1v4ZM28.79 32.22h-1.74l-.29.78h-.92l1.57-4h1.02L30 33h-.93l-.28-.78Zm-.24-.63-.63-1.63-.63 1.63h1.26ZM33 29v.69h-1V33h-1v-3.31h-1V29h3ZM35 29v4h-1v-4h1ZM37.73 33c-1.14 0-2.24-.8-2.24-2 0-1.21 1.1-2 2.24-2 1.14 0 2.23.79 2.23 2 0 1.2-1.09 2-2.23 2Zm0-.7c.76 0 1.33-.53 1.33-1.3s-.57-1.3-1.33-1.3c-.76 0-1.34.52-1.34 1.3 0 .77.58 1.3 1.34 1.3ZM44 33h-1l-1.5-2.5V33h-1v-4h1l1.5 2.5V29h1v4ZM47.79 32.22h-1.74l-.29.78h-.92l1.57-4h1.02L49 33h-.93l-.28-.78Zm-.24-.63-.63-1.63-.63 1.63h1.26ZM50.5 32.34H52V33h-2.5v-4h1v3.34Z"/></svg>