<!-- by TradingView --><svg width="56" height="56" viewBox="0 0 56 56" xmlns="http://www.w3.org/2000/svg"><path fill="#F0F3FA" d="M0 0h56v56H0z"/><path d="m25.24 35.36-3.23-.3a27.41 27.41 0 0 1-8.92-2.37.73.73 0 0 1-.39-.43 16.74 16.74 0 0 1-.69-3.88.1.1 0 0 1 .05-.04.1.1 0 0 1 .11.01 28.93 28.93 0 0 0 11.25 5.87c.01-.01.03-.02.03-.04v-.04a.06.06 0 0 0-.03-.03c-5.03-2.5-8.35-6.92-10.06-12.03-.09-.26-.07-.54.05-.8 2.57-5.33 8.05-9.23 14.27-9.28l.06.01a.1.1 0 0 1 .05.08.1.1 0 0 1 0 .05c-1.95 4.93-1.32 10.3 1.21 14.9 1.78 3.22 4.66 5.22 8.59 4.63.71-.1 1.67-.2 2.23-.61.3-.23.33-.47.08-.72-.32-.31-.59-.69-.98-1.07l-.02-.02v-.03l.03-.01h.02l5 1.5c.02 0 .03.01.04.03a.06.06 0 0 1 0 .07 25.15 25.15 0 0 0-4.43 1.46c-1.18.5-2.03 1.16-2.28 2.3-.31 1.5 3.06 2.32 4.13 2.52a.14.14 0 0 1 .1.08.13.13 0 0 1-.02.13 16.54 16.54 0 0 1-5.99 4.67.3.3 0 0 1-.38-.1c-.9-1.37-1.97-2.6-3.21-3.69-1.26-1.1-2.35-1.28-3.95-.77a43.93 43.93 0 0 0-8.02 3.64.37.37 0 0 1-.37-.01 16.44 16.44 0 0 1-3.22-2.62.07.07 0 0 1 .03-.06l.03-.02a42.1 42.1 0 0 0 10.84-2.06v-.01a.04.04 0 0 0-.02-.03h-.04c-3.71.89-7.57 1.27-11.55 1.14a.5.5 0 0 1-.2-.06.47.47 0 0 1-.17-.13 16.28 16.28 0 0 1-2-3.4s0-.02.02-.02a.06.06 0 0 1 .06-.02 25.87 25.87 0 0 0 11.9 1.62Z" fill="#D5061B"/></svg>