<!-- by TradingView --><svg width="56" height="56" viewBox="0 0 56 56" xmlns="http://www.w3.org/2000/svg"><path d="M11.43 30.43c0 2.35.5 4.58 1.42 6.57A15.84 15.84 0 0 1 11 29.54C11 20.96 17.75 14 26.08 14c7.6 0 13.88 5.8 14.92 13.33a15.35 15.35 0 0 0-8.3-10.85c-.65-.12-1.48-.12-1.98.33 1.13.79 2.34 1.82 3.42 3.14.76-.07 1.54-.1 2.35-.08-.7.12-1.4.26-2.07.42a15.7 15.7 0 0 1 2.17 3.7c.17-.1.32-.26.45-.46.8-1.23.34-2.94 0-3.64.64.79 1.6 2.8.31 4.54-.13.17-.27.32-.43.43.5 1.46.81 3.08.86 4.89-.26-1.75-.69-3.3-1.24-4.67-1.98.91-5.52-1.04-6.48-3.21l-.07-.16c-1.95.8-3.75 1.76-5.37 2.8.4 1.28.95 2.44 1.44 3.3-.56-.8-1.2-1.89-1.71-3.12-5.02 3.3-8.35 7.4-9.76 9.86 1.23-3 4.32-7.76 9.3-11.05-.9-2.71-1.07-5.81 1.17-7.88l-.73.12c-4.95.9-6.08 3.44-6.74 5.05-.65 1.61-1.18 3.83-.05 8.24-1.05-2.43-2.22-7.59.3-11.24a15.52 15.52 0 0 0-6.41 12.64Zm16.92-14.97c.6.27 1.28.63 2 1.1.27-.16.6-.29.99-.38-.03 0-.1-.02-.23-.08-.38-.16-1.24-.53-2.76-.64Zm1.4 1.63a10.54 10.54 0 0 0-3.11-1.18c-2.79 1.48-3 4.53-2.36 7.35 1.6-1.01 3.38-1.86 5.36-2.46-.5-1.45-.61-2.82.1-3.71Zm6.4 7.1a16.5 16.5 0 0 0-2.36-3.74c-.93.24-1.83.52-2.7.84.21.3.47.6.77.9 1.38 1.33 3.12 2.31 4.3 2Zm-2.73-4.17c-1-1.1-2.07-1.95-3.1-2.6-.32.84-.27 1.97.3 3.1.9-.22 1.83-.4 2.8-.5Z" fill="#A3804A"/><path d="M22.73 34h.97l.17-1.56a7.75 7.75 0 0 0-2.3-.44c-1.1 0-3.57.37-3.57 3.69 0 2.65 2.22 3.31 3.33 3.31.43 0 1.68-.09 2.67-.44V36h.49v-.55h-2.93V36h.88v1.95c-.12.12-.52.37-1.11.37-.74 0-1.71-.4-1.71-2.87s1.07-2.77 1.94-2.77c.88 0 1.17.3 1.17 1.32ZM27 32v.7h1v5.67h-1V39h3.08c1.39 0 2.92-.42 2.92-1.95a1.9 1.9 0 0 0-1.42-1.86 1.84 1.84 0 0 0 1-1.6c0-1.2-1.06-1.56-1.59-1.59H27Zm2.5 3v-2.15c.01-.11.08-.34.27-.34.23 0 1.23.03 1.23 1.37 0 .83-.5 1.08-.76 1.11h-.74Zm0 3.35v-2.21c.01-.12.1-.35.36-.35.31 0 1.64.02 1.64 1.41a1.1 1.1 0 0 1-1.01 1.15h-.99ZM35 32v.68h1v5.62h-1v.7h5.56l.44-2.5h-.95l-.64 1.8H37.5v-5.62h.9V32H35Zm7.5.67V32H46v.67h-1v5.72h1V39h-3.5v-.6h1v-5.73h-1Z" fill="#1F1D1E"/></svg>