<!-- by TradingView --><svg width="56" height="56" viewBox="0 0 56 56" xmlns="http://www.w3.org/2000/svg"><path fill="#F0F3FA" d="M0 0h56v56H0z"/><path d="M43 13v30H13V13h30ZM16 40h24V16H16v24Z"/><path d="M30 26H18v3h4v7h3v-7h5c1 0 2 .5 2 2 0 1.2-.5 2-1.5 2H26v3h5c3 0 4-3 4-5s-1.33-3.17-2-3.5c1.6 0 2-2 2-3 0-3.6-3.33-4.5-5-4.5h-8v5h3v-2h5c.5 0 2 0 2 1.5 0 1.2-1.33 1.5-2 1.5Z"/><path d="M27 29h-2v7h-3v-7h-4v-3h9v3Z" fill="url(#a)"/><defs><linearGradient id="a" x1="26.5" y1="27.5" x2="21" y2="34" gradientUnits="userSpaceOnUse"><stop stop-color="#020200"/><stop offset=".62" stop-color="#FBDA15"/><stop offset="1" stop-color="#FFDD15"/></linearGradient></defs></svg>