<!-- by TradingView --><svg width="56" height="56" viewBox="0 0 56 56" xmlns="http://www.w3.org/2000/svg"><path fill="#F0F3FA" d="M0 0h56v56H0z"/><path d="M42.97 34.86c-.25-.07-.4-.16-.45-.27A27.25 27.25 0 0 0 27.2 20.86a.78.78 0 0 1-.17-.11c-.1-.08-.18-.12-.22-.1-.07 0-.12.04-.16.11 0-.46 0-.92-.03-1.38-.03-.38-.16-.63-.4-.75a2.5 2.5 0 0 0-.9-.12h-.19c-.26-.01-.74 0-1.44.02-.69.03-1.01.39-.96 1.07-.86-.1-1.7-.21-2.55-.33-.95-.13-2.86-.17-5.75-.12.3-.24.62-.46.96-.65l11.16-6.11a2.74 2.74 0 0 1 1.9-.34c.43.09 1.06.36 1.9.83 3.98 2.19 7.48 4.1 10.5 5.72.77.4 1.3.79 1.6 1.15.37.46.56 1.04.55 1.76v12.7c0 .24-.01.46-.03.65Z" fill="#C49A68"/><path d="M14.43 19.15c2.89-.05 4.8-.01 5.75.12.84.12 1.7.23 2.55.33v10.21A30.34 30.34 0 0 0 13 27.83v-5.8c0-.79.08-1.36.22-1.7.24-.6.64-1 1.2-1.18ZM25.4 31.19l-.04-.16c-.02-.07-.06-.08-.12-.03-.04.03-.08.04-.12.02l-.16-.06c-.3-.26-.6-.42-.96-.49v-10.7c0-.04-.01-.06.03-.06h1.32c.03 0 .05.02.05.05V31.2ZM42.97 34.86c-.1.95-.58 1.66-1.46 2.14l-5.96 3.28-2.02-2.73c.37-.02.64-.11.8-.28.18-.18.27-.45.28-.83.01-.7 0-1.17-.01-1.43-.04-.58-.38-.87-1-.87l-4.1-.02c.14-.25-.08-.55-.65-.88-.42-.25-.96-.6-1.62-1.06a.76.76 0 0 1-.23-.25.19.19 0 0 0-.15-.1c-.06 0-.13.01-.2.04v-11.1c.04-.08.1-.12.16-.13.04 0 .11.03.22.1.07.07.13.1.17.12 6.89 2.56 12 7.14 15.32 13.73.05.11.2.2.45.27Z" fill="#9C7D51"/><path d="M22.72 29.81v7.6c0 .09.04.13.12.13h.99c.1 0 .17-.05.17-.15v-6.92c.36.07.66.23.96.5l.16.05c.04.02.08.01.12-.02.06-.05.1-.04.12.03l.04.16-.01 5.25c0 .75.37 1.12 1.12 1.11 2.4-.02 4.73-.02 7.02 0l2.02 2.73a723.12 723.12 0 0 0-5.92 3.25c-.73.41-1.4.55-2.05.43a8.42 8.42 0 0 1-2.27-1.04l-10.8-5.89a2.7 2.7 0 0 1-1.3-1.44c-.14-.34-.2-1-.2-1.98v-5.78c3.3.12 6.55.78 9.71 1.98Z" fill="#735829"/><path d="m29.5 34.12-1.59-.01c-.1 0-.17.05-.17.17v.9c0 .11.06.17.16.17h5.31c.08 0 .12.03.12.1v.78c0 .07-.04.11-.12.11h-6.47c-.05 0-.08-.03-.08-.08v-4.4a.45.45 0 0 1 .2-.02c.06 0 .1.03.14.1.06.09.14.17.23.24.66.46 1.2.8 1.62 1.06.57.33.8.63.66.88Z" fill="#735829"/></svg>