<!-- by TradingView --><svg width="56" height="56" viewBox="0 0 56 56" xmlns="http://www.w3.org/2000/svg"><path fill="#F0F3FA" d="M0 0h56v56H0z"/><path d="M31.94 24.5c1.87 0 3.48-.22 4.06-.33-.31.27-1.66.83-4.55.83-3.6 0-7.45-1.47-10.54-1.47-2.47 0-6.3.52-7.91.78 1.32-.44 3.97-1.31 7.73-1.31 3.75 0 8.88 1.5 11.2 1.5Z" fill="#FDAC3A"/><path d="M27.45 21.4A29.2 29.2 0 0 0 32 22.91c-.25.06-.6.09-1 .08a9.96 9.96 0 0 1-4.04-.98 13.6 13.6 0 0 0-6.24-1.28c-2.48 0-4.92.71-6.51 1.9-3 2.26-5.84 2.1-7.83 2.1-1.59 0-2.25.79-2.38 1.26 0-2 2.14-2 4.37-2s3.36-.7 4.28-1.36C15.77 20.28 18 20 20.72 20c2.72 0 4.86.54 6.73 1.4Z" fill="#FDAC3A"/><path d="M44.07 31.17h2.29c.33 0 .64-.15.64-.4 0-.3-.39-.38-.64-.38h-.94c-.82 0-1.41-.2-1.42-1.1-.01-.9.63-1.28 1.45-1.28L47.8 28v.83h-1.92c-.33 0-.87.03-.87.38 0 .33.4.35.63.35h.99c.69 0 1.38.38 1.38 1.15 0 .65-.42 1.29-1.13 1.29h-2.8v-.83ZM48.07 31.17h2.29c.33 0 .64-.15.64-.4 0-.3-.39-.38-.64-.38h-.94c-.82 0-1.41-.2-1.42-1.1-.01-.9.63-1.28 1.45-1.28L51.8 28v.83h-1.92c-.33 0-.87.03-.87.38 0 .33.4.35.63.35h.99c.69 0 1.38.38 1.38 1.15 0 .65-.42 1.29-1.13 1.29h-2.8v-.83ZM36 28h1.84c.59 0 .93.14 1.03.4.09.25.13.6.13 1.03v.26h-1v-.17c0-.37-.03-.58-.1-.64-.05-.06-.31-.1-.7-.1H37V32h-1v-4ZM31 28h2.04c1.07 0 1.96.5 1.96 1.75s-.85 2.04-2.02 2.04H32V33h-1v-5Zm1 .8V31h.27c.9.02 1.76-.18 1.73-1.26-.03-.91-.85-.95-1.61-.95l-.39.01ZM27.42 30 26 28h1.18l.82 1.2.84-1.2H30l-1.42 2.03 1.4 1.97H28.8l-.8-1.16-.82 1.16h-1.17l1.41-2ZM13 28h1v-1h1v1h1v1h-1v1.25c0 .75.27.75 1 .75v1h-.76c-.82 0-1.24-.52-1.24-1.37V29h-1v-1ZM12 27h-1v-1h1v1ZM10 32H9v-6h1v6ZM6.7 32c-.91 0-1.7-.7-1.7-1.99s.78-2 1.7-2L8 28v.83H6.82c-.42.01-.8.11-.82.77l2-.01v.83H6c.02.68.38.75.81.75H8V32H6.7ZM18.7 32c-.91 0-1.7-.7-1.7-1.99s.78-2 1.7-2L20 28v.83h-1.18c-.42.01-.8.11-.82.77l2-.01v.83h-2c.02.68.38.75.81.75H20V32h-1.3ZM23.7 32c-.91 0-1.7-.7-1.7-1.99s.78-2 1.7-2L25 28v.83h-1.18c-.42.01-.8.11-.82.77l2-.01v.83h-2c.02.68.38.75.81.75H25V32h-1.3ZM41.7 32c-.91 0-1.7-.7-1.7-1.99s.78-2 1.7-2L43 28v.83h-1.18c-.42.01-.8.11-.82.77l2-.01v.83h-2c.02.68.38.75.81.75H43V32h-1.3ZM11 32h1v-4h-1v4Z" fill="#4A4A4A"/></svg>