<!-- by TradingView --><svg width="56" height="56" viewBox="0 0 56 56" xmlns="http://www.w3.org/2000/svg"><path fill="url(#a)" d="M0 0h56v56H0z"/><path d="M17.45 26a3.47 3.47 0 0 0-3.4 3.06c-.3 1.9.8 2.94 2.47 2.94 1.2 0 2.57-.48 3.13-1.88H17.7c-.2.33-.54.52-.84.52-.53 0-.93-.44-.83-1.1l3.9-.04c.37-2.06-.57-3.5-2.47-3.5Zm.6 2.32h-1.87c.1-.63.5-1 1.1-1 .5.04.87.48.77 1ZM49.45 26a3.43 3.43 0 0 0-3.4 3.02c-.3 1.89.8 2.98 2.43 2.98 1.2 0 2.6-.5 3.17-1.93H49.7c-.2.33-.54.51-.84.51-.53 0-.93-.43-.83-1.09h3.9v-.04c.37-2.03-.57-3.45-2.47-3.45Zm.64 2.33h-1.87c.1-.62.5-.98 1.1-.98.5 0 .83.43.77.98ZM26.39 28.31c.2-1.33.23-2.31-2.16-2.31-2 0-2.88.69-3.04 1.88h1.93c.13-.47.52-.54.78-.54.2 0 .66.03.6.47-.17 1.05-3.57-.11-4 2.42-.2 1.16.59 1.7 1.54 1.7.75 0 1.37-.18 2.03-.76V32h2.02l.04-.22c-.23-.21-.2-.54-.13-.83l.39-2.64Zm-3.27 2.35c-.4 0-.62-.18-.56-.47.1-.72.95-.58 1.67-.9-.07.76-.4 1.37-1.11 1.37ZM8.63 28.86c-.19.71-.64 1.28-1.34 1.28-1.11 0-1.18-1-1.02-2.07.23-1.46.83-2.21 1.6-2.21.7 0 1.05.46 1.02 1.25h2.1c.13-1.97-.86-3.11-2.9-3.11-1.88 0-3.63 1.54-4.02 4-.38 2.46.74 4 2.97 4 1.78 0 3.22-1.18 3.73-3.14H8.63ZM12.08 24l-1.58 8h2.42l1.58-8h-2.42ZM29.82 27.3l.17-1.3h-1.97L27 32h2.18l.36-2.17c.2-1.2.73-1.63 1.61-1.63.18 0 .32.04.46.04l.39-2.2c-.1 0-.18-.04-.28-.04-.85 0-1.45.4-1.9 1.3ZM36.1 24c-2.02 0-3.65 1.54-4.02 3.95-.4 2.58.77 4.05 2.8 4.05 1.97.04 3.69-1.44 4.06-4.02.3-2-.5-3.98-2.83-3.98Zm.71 3.98c-.18 1.26-.7 2.19-1.63 2.19-1.01 0-1.1-1.22-.95-2.19.15-.97.62-2.11 1.57-2.11.95-.04 1.17 1.07 1.01 2.11ZM44.15 26c-.86 0-1.5.36-2.13 1.05l.15-1.05h-2.09L39 32h2.27l.56-3.07c.15-.73.41-1.16 1.12-1.16.64 0 .71.5.6 1.05l-.6 3.18h2.28l.7-3.61c.27-1.52-.26-2.39-1.78-2.39Z" fill="#fff"/><defs><linearGradient id="a" x1="10.42" y1="9.71" x2="68.15" y2="76.02" gradientUnits="userSpaceOnUse"><stop stop-color="#1A1E21"/><stop offset="1" stop-color="#06060A"/></linearGradient></defs></svg>