<!-- by TradingView --><svg width="56" height="56" viewBox="0 0 56 56" xmlns="http://www.w3.org/2000/svg"><path fill="#F0F3FA" d="M0 0h56v56H0z"/><path d="M40.1 27.78a.12.12 0 0 1-.08-.04.1.1 0 0 1-.03-.07v-.06l.02-.04a.08.08 0 0 1 .06-.02h5.82c.03 0 .06 0 .08.02a.1.1 0 0 1 .03.08v.06c0 .02 0 .04-.02.06a.09.09 0 0 1-.06.02c-1.06.08-1.8.2-1.85 1.26a87.35 87.35 0 0 0-.07 4.7c0 .04-.02.07-.04.1a.13.13 0 0 1-.1.03c-.73 0-1.75.23-3.05.7-.88.3-1.9.45-3.06.42-5.19-.13-7.88-5.01-6.3-9.3 1.15-3.12 3.73-4.92 7.35-4.68 1.34.1 2.51.55 3.5 1.39.84.7 1.18-.19 1.24-.8 0-.04.03-.07.05-.1a.16.16 0 0 1 .11-.03h.01c.04 0 .07.01.1.04.02.02.04.06.04.1v4.12l-.03.09a.15.15 0 0 1-.19.02.13.13 0 0 1-.06-.08c-.49-2.41-1.99-4.23-4.68-4.5-.96-.09-1.86.07-2.7.46-1.96.93-2.66 2.5-2.9 4.59-.24 2.13-.17 5.24 1.49 6.93a4.95 4.95 0 0 0 3.94 1.48c1.76-.07 3.26-1 3.28-2.8v-3.15c-.16-1.05-1.05-.9-1.9-1ZM16.9 21a.1.1 0 0 1 .07.04c.02.02.03.05.03.08v.06c0 .02 0 .03-.02.05a.07.07 0 0 1-.05.02c-1.56 0-1.95.56-1.93 2.09v9.32c-.02 1.53.37 2.08 1.93 2.09.02 0 .03 0 .05.02l.02.05v.07a.11.11 0 0 1-.03.07.1.1 0 0 1-.08.03 495.87 495.87 0 0 1-5.82 0 .1.1 0 0 1-.06-.06l-.01-.04v-.07c0-.02 0-.03.02-.05a.07.07 0 0 1 .05-.02c1.56 0 1.95-.56 1.93-2.09v-9.32c.02-1.53-.37-2.08-1.93-2.1l-.05-.01a.07.07 0 0 1-.02-.05v-.07c0-.03.01-.05.03-.07a.1.1 0 0 1 .08-.04h5.78ZM25.4 27.33c.03-.03.22-.08.57-.14.96-.18 1.63-1.06 1.79-1.92.27-1.51.06-3.22-1.71-3.79-.61-.19-1.53-.26-2.9-.2a.15.15 0 0 0-.1.05.13.13 0 0 0-.05.09v5.93l.01.05.03.04.05.02.05.01 1.92-.03a.3.3 0 0 1 .1.02 3 3 0 0 0 .55.18c1.6.14 3.18.42 4.23 1.52.82.85 1.05 2.17.64 3.26-.88 2.36-3.4 2.56-5.84 2.57H18.6a.12.12 0 0 1-.08-.03.1.1 0 0 1-.03-.07v-.05a.1.1 0 0 1 0-.04.1.1 0 0 1 .03-.03.11.11 0 0 1 .08-.03c2.1.12 2.4-.52 2.4-2.37v-7.85c-.01-1.09-.07-1.84-.16-2.25-.2-.96-1.3-.9-2.08-.89a.13.13 0 0 1-.09-.03.11.11 0 0 1-.03-.08v-.06c0-.02 0-.03.02-.05a250.7 250.7 0 0 1 5.42-.16c2.43-.04 6.5.57 5.82 3.82-.38 1.82-2.7 2.5-4.46 2.6h-.03a.05.05 0 0 1-.02-.03.05.05 0 0 1 0-.06Zm-2.4.5v5.55c.03.7.42 1.27 1.27 1.33 1.89.13 3.7-.26 4.2-2.2.45-1.77.1-3.98-2.13-4.54a9.9 9.9 0 0 0-3.22-.24.12.12 0 0 0-.08.03c-.02.02-.04.05-.04.08ZM44.93 38a.07.07 0 0 0 .05-.02.07.07 0 0 0 .02-.05v-.88l.02-.03a.05.05 0 0 1 .04-.02h1.88a.06.06 0 0 1 .04.02.07.07 0 0 1 .02.05v2.79a.15.15 0 0 1-.05.1.14.14 0 0 1-.1.04H9.15l-.05-.01a.14.14 0 0 1-.08-.08.15.15 0 0 1-.01-.05v-2.79a.07.07 0 0 1 .01-.05.07.07 0 0 1 .05-.02h1.88c.01 0 .03 0 .04.02l.01.03v.88a.07.07 0 0 0 .05.07h33.88ZM44.93 18a.07.07 0 0 1 .05.02.07.07 0 0 1 .02.05v.88l.02.03.04.02h1.87a.06.06 0 0 0 .05-.02.07.07 0 0 0 .02-.05v-2.79a.15.15 0 0 0-.05-.1.14.14 0 0 0-.1-.04H9.15l-.05.01a.14.14 0 0 0-.08.08l-.01.05L9 18.93a.07.07 0 0 0 .02.05.07.07 0 0 0 .05.02h1.88c.01 0 .02 0 .03-.02a.06.06 0 0 0 .02-.04v-.87a.08.08 0 0 1 .03-.05.07.07 0 0 1 .05-.02h33.85Z" fill="#171E2C"/></svg>