<!-- by TradingView --><svg width="56" height="56" viewBox="0 0 56 56" xmlns="http://www.w3.org/2000/svg"><path fill="#F0F3FA" d="M0 0h56v56H0z"/><path d="m35 24 9-7.5a23.1 23.1 0 0 1-8.94 1.94c-5.13 0-7.83-4.07-7.6-7.44l-.12.6c-.5 2.4-1.73 8.4-7.8 8.4-2.63 0-5.6-1.4-6.54-2 .84 1.3 3 4.68 3 7.42 0 3.41-2.7 6.6-4 7.58h13a6.7 6.7 0 0 1-2-4.45c0-3.62 3.24-6.55 7-6.55a7.5 7.5 0 0 1 5 2Z" fill="#2F578A"/><path d="M26.43 34H15c8 3.51 7.66 10.83 8 13 1.3-5.29 5.16-8 10.03-8 3.9 0 7.6 1.16 8.97 1.62L33.56 34a11 11 0 0 1-3.47.7c-1.35 0-3-.47-3.66-.7Z" fill="#94B2D5"/></svg>