<!-- by TradingView --><svg width="56" height="56" viewBox="0 0 56 56" xmlns="http://www.w3.org/2000/svg"><path fill="#F0F3FA" d="M0 0h56v56H0z"/><path d="M43.93 27.96a.19.19 0 0 1 .26.03c.03.04.05.09.05.14 0 .05 0 .1-.04.14-.51.8-.98 1.57-1.75 2.26a72.46 72.46 0 0 1-8.22 6.4c-1.87 1.27-3.4 1.94-4.6 2.04-2.47.2-4.7-.6-6.68-2.37-3.5-3.14-6.16-6.97-9.08-10.49-1.32-1.58-2.75-3.04-4.7-3.14a.18.18 0 0 1-.1-.04.22.22 0 0 1-.07-.22.2.2 0 0 1 .07-.1c1.7-1.5 3.35-1.95 4.96-1.36.78.3 2.08 1.54 3.9 3.76a1032.95 1032.95 0 0 1 6.36 7.77 6.83 6.83 0 0 0 8.54 1.74c3.3-1.62 7-3.8 11.1-6.56Z" fill="#B89F63"/><path d="M46.97 21.47a6.19 6.19 0 0 1-2.05 1.87 85.12 85.12 0 0 1-14.74 7.07 6.8 6.8 0 0 1-5.79-.44.25.25 0 0 1-.1-.12.3.3 0 0 1 .04-.32.25.25 0 0 1 .13-.08 35.7 35.7 0 0 0 6.4-1.81c5.03-1.9 10.33-4.07 15.9-6.47a.17.17 0 0 1 .1 0c.05 0 .08.03.1.06.03.04.04.08.04.12 0 .04-.01.09-.03.12ZM45.64 24.44c.03 0 .06.01.08.03l.05.06a.17.17 0 0 1-.02.16c-.6.87-1.3 1.58-2.1 2.14a72.7 72.7 0 0 1-9.5 5.77c-2.57 1.24-4.61 1.64-7.1.52a.15.15 0 0 1-.06-.05.18.18 0 0 1 0-.22c.08-.12.16-.2.23-.21 1.81-.43 3.46-.96 4.96-1.6a145.93 145.93 0 0 0 13.32-6.62l.14.02Z" fill="#B89F63"/></svg>