<!-- by TradingView --><svg width="56" height="56" viewBox="0 0 56 56" xmlns="http://www.w3.org/2000/svg"><path fill="#EE4049" d="M0 0h56v56H0z"/><path d="M14.16 28.63a283.48 283.48 0 0 1 2.18-.02.05.05 0 0 1 0 .04c-.63 3.3-1.18 6.36-1.66 9.2-.1.62-.19 1.28-.26 1.97-.08.82-.11 1.48-.1 2 .02.29.1.58.26.87.27.46 1.1.36 1.37.02.06-.07.15-.36.28-.87 1.08-4.3 2.1-8.67 3.07-13.12a5.2 5.2 0 0 1 .16-.49.11.11 0 0 1 .04-.03.89.89 0 0 1 .28-.06l.57-.06c1.55-.16 3.4-.34 4.83-.57a9613.15 9613.15 0 0 1 5.5-.76.05.05 0 0 1 .03.03v.03c-.25 1.58-.54 3.46-.84 5.64-.2 1.33-.3 2.25-.31 2.78-.03.85-.01 1.78.05 2.8.1 1.78 1.22 3.91 3.17 4.3 1.12.22 2-.2 2.89-.86l2.82-2.07c.4-.3.67-.56.5-1.05-.07-.17-.2-.28-.41-.33-.28-.08-.7.15-.92.3-.85.57-1.7 1.07-2.56 1.5-.66.32-1.28.43-1.94.26-.99-.25-1.2-1.7-1.27-2.52-.07-.85-.06-1.78.05-2.8a103.45 103.45 0 0 1 1.24-7.94c.07-.4.1-.61.55-.74l.31-.08c.88-.24 1.95-.53 2.71-.93a6.78 6.78 0 0 0 2.87-2.85c.3-.56.46-1.17.48-1.83.02-.65 0-1.28-.05-1.9a7.5 7.5 0 0 0-1.7-4.35c-.3-.34-.68-.52-1.12-.53-1.08-.03-1.99.76-2.58 1.62a14.87 14.87 0 0 0-1.24 2.58c-.82 2.29-1.45 4.18-1.9 5.67-.16.51-.51.81-1.07.9l-.59.1-1.46.26-1.2.22A79.91 79.91 0 0 1 20 26.05a.1.1 0 0 1-.07-.02l-.02-.04v-.03c0-.05 0-.12.02-.2A18446.44 18446.44 0 0 1 22 14.43c.08-.46.18-.96-.25-1.29-.47-.36-1.04-.04-1.2.48A170.83 170.83 0 0 0 16.8 26.5a.15.15 0 0 1-.07.04l-3.23.55a.28.28 0 0 0-.08.03c-.27.13-.42.34-.43.62-.03.73.5.9 1.16.88ZM34 23.45v-.02c.01-.1.04-.21.08-.31l.61-1.56c.5-1.25 1.01-2.44 1.55-3.56.28-.57.52-1 .72-1.31.07-.1.15-.19.22-.23a.2.2 0 0 1 .23.03c.12.11.22.25.3.4.52 1.07.47 2.24.2 3.37-.44 1.76-1.66 2.64-3.35 3.14a2.24 2.24 0 0 1-.53.08.05.05 0 0 1-.03-.03Zm8.83 14.65c.24-.54.23-1.03-.05-1.48a.37.37 0 0 0-.1-.1c-1.2-.87-2.23.94-1.25 1.8.49.43 1.1.45 1.4-.22Z" fill="#fff"/></svg>