<!-- by TradingView --><svg width="56" height="56" viewBox="0 0 56 56" xmlns="http://www.w3.org/2000/svg"><path fill="#F0F3FA" d="M0 0h56v56H0z"/><path d="m10.9 26.45 6.73 6.89a.16.16 0 0 0 .2.03c.58-.37 1.18-.72 1.8-1.05a17.88 17.88 0 0 1 21.16 3.34c.02.02.04.06.04.1 0 .03-.02.06-.04.09l-2.02 2.06a.22.22 0 0 1-.15.07.21.21 0 0 1-.15-.06 14.8 14.8 0 0 0-21 .03.18.18 0 0 1-.25 0L6.05 26.5a.19.19 0 0 1-.05-.13.19.19 0 0 1 .05-.14 30.63 30.63 0 0 1 43.9.06c.03.03.05.08.05.13a.2.2 0 0 1-.05.13l-6.58 6.75a.2.2 0 0 1-.14.06.2.2 0 0 1-.15-.06 21.15 21.15 0 0 0-24.48-4.18.19.19 0 0 1-.22-.04l-2.17-2.22a.12.12 0 0 1-.04-.1.13.13 0 0 1 .07-.1 24.25 24.25 0 0 1 26.54 2c.03.02.07.04.11.03.04 0 .08-.02.1-.05l2.06-2.1a.22.22 0 0 0-.03-.32c-10.18-7.84-23.94-7.91-34.1.03a.13.13 0 0 0-.04.15c0 .02.01.03.03.05Z" fill="#FF4001"/></svg>