<!-- by TradingView --><svg width="56" height="56" viewBox="0 0 56 56" xmlns="http://www.w3.org/2000/svg"><path fill="#FECC00" d="M0 0h56v56H0z"/><path d="M33.6 13c5.15-.07 9.18 4.13 9.4 9.17-.1.45-1.95.25-2.37.18-.17-.11-.17-.48-.17-.83 0-.22 0-.43-.03-.58a7.03 7.03 0 0 0-6.83-5.54V13ZM32 17.36V20h-4v9h8v-4h2.65v4.87c0 .46-1.31 1.7-1.71 1.7h-19.4v2.99c0 .7 1.59 1.57 2.37 1.44h13.8c1.5-.13 2.55-.42 2.52-2h2.44c.23 2.05-1.4 3.94-3.4 4.36v.04c.03 1.17.07 2.71-1.53 2.51-.97-.11-.94-1.08-.92-1.7.01-.3.02-.53-.08-.55H20.97c.47 3.43-3.02 2.88-2.47-.3-1.63-.32-2.92-1.8-3.34-3.38.08-1.97 0-4.02-.06-6.07-.09-2.48-.17-4.97 0-7.32.16-1.85 2.04-4.28 3.98-4.28H32v.05ZM26 20h-6.62c-.43 0-1.86.91-1.86 1.31V29H26v-9Zm7.34-2.7h-.03.03Zm0 0v2.67A2.78 2.78 0 0 1 36 22.5l2.67.2c.23-2.94-2.37-5.38-5.34-5.4Z" fill="#262B28"/></svg>