<!-- by TradingView --><svg width="56" height="56" viewBox="0 0 56 56" xmlns="http://www.w3.org/2000/svg"><path fill="#F0F3FA" d="M0 0h56v56H0z"/><path d="M25.53 26.32c0-.18-.04-.19-.09-.02l-1.76 5.58-.05.07a.15.15 0 0 1-.07.04c-.14.04-.24-.06-.32-.27-.44-1.19-1.1-3-1.97-5.46-.05-.14-.08-.14-.08.02l-.07 4.46a3 3 0 0 0 .08.83c0 .04.03.07.06.09l.29.18c.12.11.1.16-.05.16h-1.12c-.14 0-.18-.04-.05-.16a.92.92 0 0 1 .25-.12l.04-.02a.13.13 0 0 0 .03-.05c.08-.2.12-.38.13-.54l.15-5.35c0-.18-.1-.48-.29-.57l-.18-.09c-.17-.07-.16-.1 0-.1h1.47c.03 0 .06.02.08.03a4711.94 4711.94 0 0 1 1.74 4.84c.03.08.04.2.06.27.04.15.08.15.13 0l1.6-5.07c.01-.04.04-.07.08-.07h1.6c.03 0 .05.02.04.06 0 .01 0 .02-.02.03-.26.07-.58.07-.6.41v.6l.21 5.08a1 1 0 0 0 .19.52c.02.03.05.05.09.06l.46.13.01.02v.04c0 .03 0 .05-.03.05h-2.42c-.02 0-.03-.02-.03-.04s0-.04.02-.05l.34-.12c.04 0 .07-.02.09-.05a.6.6 0 0 0 .1-.38c-.02-1.17-.07-2.9-.14-5.04ZM30.58 25l.02.01v.07c-.25.1-.6.09-.6.51v5.93c0 .27.35.26.54.37.13.07.12.11-.02.1L28.5 32c-.14 0-.15-.03-.02-.1.18-.12.52-.1.52-.38v-5.93c0-.42-.34-.42-.58-.5l-.01-.03v-.04l.02-.02h2.15ZM51.58 25l.02.04-.02.05c-.24.09-.58.08-.58.5v5.93c0 .28.25.27.43.37.13.08.13.11-.02.11H49.5c-.14 0-.15-.03-.02-.1.18-.11.52-.1.52-.38v-5.93c0-.42-.34-.42-.58-.5l-.01-.02v-.05l.02-.01h2.15ZM32.18 26.29c-.05-.07-.08-.06-.08.03l.03 4.58c0 .24.05.47.15.71.01.04.03.06.07.08l.28.18c.14.08.13.13-.02.13h-1.25c-.03 0-.04-.02-.05-.05v-.03l.02-.03.02-.02c.3-.11.45-.35.47-.71l.02-.77.01-4.43c0-.44-.26-.7-.56-.91-.05-.03-.05-.05 0-.05h1.33l.09.02a.2.2 0 0 1 .06.07l3.18 4.65c.05.07.05.06.05-.03v-3.8c-.01-.43-.21-.7-.58-.81-.02-.01-.03-.03-.03-.05l.01-.03.02-.02h1.4c.03 0 .04.02.04.04v.03l-.01.02c-.24.1-.38.21-.42.34-.1.28-.12.61-.12.97v5.56l-.02.02-.03.02h-.03a.45.45 0 0 1-.28-.2c-.54-.81-1.8-2.65-3.77-5.51Z" fill="#080707"/><path fill-rule="evenodd" d="M19.4 29.35c.42-.42.65-.98.65-1.57v-.56c0-.59-.23-1.15-.64-1.57a2.18 2.18 0 0 0-1.55-.65h-.43c-.58 0-1.14.23-1.55.65-.41.42-.64.98-.64 1.57v.56c0 .59.23 1.15.64 1.57.4.42.97.65 1.55.65h.43c.58 0 1.13-.23 1.55-.65Zm-.65-1.88c-.02-1.56-.4-2.33-1.14-2.32-.74.01-1.1.8-1.08 2.36.03 1.56.41 2.33 1.15 2.32.74-.02 1.1-.8 1.07-2.36ZM11.81 31.98c1.76-.1 2.79-1.37 2.79-3.49 0-2.11-1.03-3.39-2.8-3.47C11.59 25 10.78 25 9.4 25c-.03 0-.05.02-.05.06 0 .02.01.04.03.04l.35.13c.03.01.05.04.07.07l.04.07c.07.1.16.25.16.42v5.42c0 .46-.2.54-.56.67l-.05.02c-.02 0-.03.02-.03.04 0 .04.01.06.04.06 1.38 0 2.2-.01 2.42-.02Zm-.73-6.61a.37.37 0 0 0-.08.24v5.83l.03.13c.01.04.04.08.06.11a.3.3 0 0 0 .1.07c.03.02.07.03.11.03h.35c.49 0 .96-.28 1.3-.77a3.2 3.2 0 0 0 .55-1.83v-1.32c0-.34-.05-.68-.14-1-.1-.3-.24-.6-.4-.83a1.95 1.95 0 0 0-.61-.56c-.23-.13-.47-.2-.71-.2h-.35a.27.27 0 0 0-.2.1ZM45 31.51v-2.38c0-.04.02-.07.05-.07l.68-.07.06.01a.1.1 0 0 1 .03.04l1.36 2.9c0 .02.01.04.03.05l.04.01h1.34l.01-.02v-.05c-.2-.26-.4-.58-.62-.96-.2-.35-.59-1.08-1.16-2.18-.03-.06-.02-.1.03-.12.62-.25 1.14-.7 1.3-1.49.2-1.04-.43-1.78-1.28-2.05a3.94 3.94 0 0 0-.94-.13 216 216 0 0 0-2.35 0c-.25 0-.26.04 0 .11.28.08.42.26.42.54v5.14a7.6 7.6 0 0 1-.06.9.13.13 0 0 1-.07.05l-.3.1c-.21.08-.2.13.02.13h2.02c.2 0 .2-.04.01-.12-.02-.02-.07-.03-.13-.05-.19-.06-.48-.15-.5-.29Zm.06-2.7.07-.01c.51-.11.87-.2 1.09-.3.47-.18.75-.51.85-1 .19-.92-.03-1.99-1.07-2.19a3.26 3.26 0 0 0-.9-.04.1.1 0 0 0-.07.04.1.1 0 0 0-.03.07v3.37c0 .04.02.06.06.06ZM38.53 29.72a.1.1 0 0 1 .06-.02h2.05c.02 0 .04 0 .06.02a12.84 12.84 0 0 1 .51 1.63c.01.06 0 .16-.03.27-.03.07-.09.11-.19.14l-.4.12-.03.04c0 .03.02.07.06.08h2.46c.15 0 .16-.05 0-.12l-.3-.13a.19.19 0 0 1-.09-.06 3.07 3.07 0 0 1-.39-.84l-1.84-5.53a1.71 1.71 0 0 0-.13-.27c-.01-.03-.04-.05-.08-.05h-.4c-.02 0-.04.03-.07.07l-.09.24c-.6 1.77-1.2 3.61-1.83 5.52a3.1 3.1 0 0 1-.3.66.91.91 0 0 1-.43.35l-.1.05-.02.01v.06l.02.02a.1.1 0 0 0 .07.02h1.35l.04-.01.02-.04a.08.08 0 0 0-.04-.08l-.37-.18c-.04-.02-.06-.05-.06-.1.01-.28.07-.58.17-.92a75.38 75.38 0 0 1 .32-.95Zm1.08-3.42-.99 3.06a.05.05 0 0 0 0 .04l.02.01h.02l1.94.02h.02l.01-.02a.05.05 0 0 0 0-.04l-.95-3.07-.01-.02-.03-.01h-.02l-.01.03Z" fill="#080707"/><path d="M5.71 26.43c.11-.1.15-.08.1.06-.02.06-.08.15-.17.28-.06.08-.07.16-.02.24l.28.43c.06.09.12.09.17 0 .12-.19.24-.4.36-.66.1-.22.16-.2.17.03 0 .15-.08.3-.23.49a.08.08 0 0 0-.01.08.08.08 0 0 0 .08.05h.79a.13.13 0 0 0 .12-.15 1.74 1.74 0 0 0-.37-.73 1.5 1.5 0 0 1-.32-.63v-.04l.03-.02a.05.05 0 0 1 .01-.01.05.05 0 0 1 .06.02c.11.26.3.54.56.83.06.06.15 0 .28-.17a.13.13 0 0 0-.06-.2l-.08-.03a.1.1 0 0 1-.06-.08c-.02-.1 0-.2.05-.3a.1.1 0 0 1 .08-.05h.1c.07.06.13.04.18-.06.1-.18.08-.3-.08-.34a2.65 2.65 0 0 0-.39-.03l-.04-.02-.02-.04a.52.52 0 0 0-.18-.3.14.14 0 0 0-.1-.03c-.16 0-.3 0-.43-.03a.8.8 0 0 0-.43.03c-.36.12-.6.38-.73.8-.03.09 0 .14.07.15.02 0 .03.01.04.03a.1.1 0 0 1 0 .1l-.14.33a.08.08 0 0 0 .01.1.08.08 0 0 0 .1 0c.1-.04.17-.08.22-.13Zm1.09-1.08c.02.02 0 .08-.04.12-.04.04-.1.05-.12.03-.01-.01-.02-.03-.01-.05 0-.03.02-.05.04-.07.04-.05.1-.06.13-.03Zm-1.9.08.26.79c.01.04 0 .09-.01.13l-.17.35a.17.17 0 0 1-.17.1.17.17 0 0 1-.15-.12l-.24-.8a.17.17 0 0 1 0-.11l.15-.35a.17.17 0 0 1 .17-.11c.03 0 .07.01.1.03.02.03.05.05.06.09Zm3.17 2.79a1.83 1.83 0 0 0 .56.36.04.04 0 0 0 .03-.01v-.01a1.06 1.06 0 0 0-.2-.86c-.18-.26-.34-.5-.14-.87a.44.44 0 0 1 .08-.1l.09-.1c.02-.05.02-.12 0-.2a.55.55 0 0 1 .19-.57.13.13 0 0 0 .04-.13.14.14 0 0 0-.1-.1 2.78 2.78 0 0 0-.22-.04c-.2-.03-.35.08-.37.26-.03.46-.15.87-.35 1.23a.1.1 0 0 0 0 .1c.2.27.3.59.34.94 0 .04.02.07.05.1Zm-1.5.28c-.13-.24-.18-.22-.12.07.01.06.08.13.2.21.13.1.22.17.25.22.06.08.04.1-.06.07-.2-.08-.4-.1-.64-.04a.18.18 0 0 0-.1.08.17.17 0 0 0-.03.13c.1.35.12.71-.09 1.01l-.2.3a.1.1 0 0 0-.02.1l.08.23a.07.07 0 0 1-.02.09.08.08 0 0 1-.08 0l-.04-.01c-.27-.14-.73-.38-.8.05a1.4 1.4 0 0 0-.02.38.08.08 0 0 0 .06.07h.04l.33-.12a.1.1 0 0 1 .11.03c.16.17.22.36.17.57 0 .03-.03.05-.07.05h-.76a.1.1 0 0 1-.08-.04.48.48 0 0 0-.4-.23.12.12 0 0 1-.08-.04.11.11 0 0 1-.03-.07 2.1 2.1 0 0 1 .08-.7c.05-.16 0-.26-.07-.4-.1-.2-.04-.27.17-.2.14.05.3.03.48-.05.3-.14.4-.63.3-.92a.07.07 0 0 0-.11-.02l-.05.07a.85.85 0 0 1-.2.22c-.42.29-.88-.17-.75-.6.07-.2.32-.43.52-.6l.12-.11a.28.28 0 0 0 .1-.2v-.95c0-.11.04-.18.15-.22l.07-.02c.1-.04.15 0 .12.1-.03.18-.05.49-.05.92 0 .28-.06.4-.28.62l-.44.42a.27.27 0 0 0-.06.3c.01.05.05.09.1.12.05.02.1.03.16.02a.71.71 0 0 0 .33-.16l.64-.7c.08-.1.16-.24.24-.42.2-.47.62-.65 1.24-.52.29.06.5.26.66.6.01.03.06.07.14.13a14.85 14.85 0 0 0 .87.52.07.07 0 0 0 .06-.03l.01-.02c.06-.22.2-.38.4-.48a.16.16 0 0 1 .22.14v.58c0 .04-.02.08-.06.1-.19.1-.35.24-.47.4a.07.07 0 0 1-.09.02 1.6 1.6 0 0 1-.44-.31.11.11 0 0 0-.1-.03.56.56 0 0 0-.22.09.09.09 0 0 1-.08 0 .09.09 0 0 1-.05-.06c-.03-.2-.16-.33-.4-.42a.52.52 0 0 0-.22-.02c-.1 0-.2.02-.3-.05a1.8 1.8 0 0 1-.33-.27Zm-.04 2.53.28.1c.04.01.06.04.06.09v.34c0 .05.02.09.05.12.03.03.07.05.1.05.18 0 .31.08.42.21.02.03.05.04.09.05h.71c.04 0 .06-.02.07-.05a.61.61 0 0 0-.1-.5c-.06-.08-.14-.1-.24-.07l-.24.08a.07.07 0 0 1-.08-.02c-.12-.14-.2-.28-.27-.42a.16.16 0 0 1 .03-.18.17.17 0 0 1 .18-.04l.24.08a.07.07 0 0 0 .06-.02.06.06 0 0 0 .02-.06c-.05-.13-.07-.26-.09-.39a1.3 1.3 0 0 0-.14-.5c-.28-.46-.7-.69-1.27-.67-.03 0-.05.02-.05.06v.8c0 .04.02.06.06.06.34.02.48.18.4.47 0 .03-.03.06-.06.08l-.25.2a.08.08 0 0 0-.03.07.08.08 0 0 0 .05.06ZM17.63 31.5l-1.4.5a.04.04 0 0 1-.06-.05l.01-.02 1.44-1.47h.01a.04.04 0 0 1 .03 0h.01l1.44 1.47a.04.04 0 0 1-.05.07l-1.4-.5h-.03Z" fill="#080707"/></svg>