<!-- by TradingView --><svg width="56" height="56" viewBox="0 0 56 56" xmlns="http://www.w3.org/2000/svg"><path fill="#F5B504" d="M0 0h56v56H0z"/><path d="M12.04 18.23c.3-.08.6-.05.9.09.86.39 1.06 1.64 1.06 2.48 0 4.83-.02 8.86 0 12.09 0 .39-.07.7.01.95.24.7.74 1.13 1.5 1.28.48.09.93.06 1.35-.1.45-.17.78-.47 1-.9.18-.35.27-.72.28-1.12l.01-8.21c0-.2.05-.4.15-.63.21-.5.63-.77 1.24-.8.48-.04.85.12 1.1.44.22.3.34.69.34 1.18.02 2.7.03 5.38 0 8.06a4.76 4.76 0 0 1-3.66 4.8c-.71.17-1.44.2-2.2.1a4.62 4.62 0 0 1-2.7-1.41 4.96 4.96 0 0 1-1.39-2.75 7.02 7.02 0 0 1-.02-1.2c.04-.77.05-1.42.05-1.92-.04-3.47-.05-7.16-.04-11.06a1.43 1.43 0 0 1 1.02-1.37ZM40.01 18a4.84 4.84 0 0 1 3.7 1.55c.47.5.82 1.06 1.04 1.69.15.4.23.85.23 1.35a456 456 0 0 1 0 6.76l-.02.23v6.82c0 .54-.2.98-.57 1.3-.4.33-.85.38-1.36.16-.24-.1-.45-.3-.6-.56-.17-.26-.43-.64-.43-1.12a3986.25 3986.25 0 0 1 0-12.24c.01-.92.02-2.07-.86-2.63-.43-.27-.82-.34-1.48-.28-1.3.13-1.66 1.1-1.66 2.28v12.93c0 .6-.42 1.33-1.08 1.65a1 1 0 0 1-.7.08c-.38-.1-.67-.28-.9-.56A1.58 1.58 0 0 1 35 36.4a2762.97 2762.97 0 0 1 .07-13.18 8.4 8.4 0 0 1 .1-1.4 4.52 4.52 0 0 1 2.76-3.38 5.6 5.6 0 0 1 2.08-.44Zm-13.9.33a6.14 6.14 0 0 1 3.1-.22 4.9 4.9 0 0 1 3.73 3.94c.05.27.07.8.06 1.6a130.49 130.49 0 0 0-.01 4.16 158.6 158.6 0 0 1-.03.5c-.03 1.4-.04 2.77-.02 4.13.02.8 0 1.34-.05 1.6a4.55 4.55 0 0 1-1.48 2.67 5 5 0 0 1-2.67 1.22 5.06 5.06 0 0 1-3.48-.72 4.42 4.42 0 0 1-2.2-3.91c-.07-3.22-.08-6.58-.03-10.06a5 5 0 0 1 1.12-3.55 4.04 4.04 0 0 1 1.97-1.36ZM28 21c-.54 0-.98.15-1.33.46-.36.31-.57.75-.63 1.3l-.03.46c-.02 1.86-.01 5.01.01 9.47 0 1.17.4 1.9 1.17 2.18A1.75 1.75 0 0 0 28 35h.36c.1-.01.25-.05.46-.13.77-.28 1.16-1 1.16-2.18.02-4.46.03-7.61.01-9.47 0-.1 0-.24-.03-.46-.06-.55-.27-1-.63-1.3-.35-.3-.8-.46-1.33-.46Zm-8.58-3c.87 0 1.57.72 1.57 1.6 0 .89-.7 1.6-1.57 1.6-.87 0-1.57-.71-1.57-1.6 0-.88.7-1.6 1.57-1.6Z" fill="#fff"/></svg>