<!-- by TradingView --><svg width="56" height="56" viewBox="0 0 56 56" xmlns="http://www.w3.org/2000/svg"><path fill="#F0F3FA" d="M0 0h56v56H0z"/><path d="M23 15.5a2.5 2.5 0 0 1 2.5-2.5h5a2.5 2.5 0 0 1 2.5 2.5v15a2.5 2.5 0 0 1-2.5 2.5h-4a2.5 2.5 0 0 1-2.5-2.5v-5a2.5 2.5 0 0 1 2.5-2.5h4a.5.5 0 0 0 0-1h-4a3.5 3.5 0 0 0-3.5 3.5v5a3.5 3.5 0 0 0 3.5 3.5h4a3.5 3.5 0 0 0 3.5-3.5v-15a3.5 3.5 0 0 0-3.5-3.5h-5a3.5 3.5 0 0 0-3.5 3.5v4a2.5 2.5 0 0 1-2.5 2.5h-4a3.5 3.5 0 0 0-3.5 3.5v5a3.5 3.5 0 0 0 3.5 3.5h4a.5.5 0 0 0 0-1h-4a2.5 2.5 0 0 1-2.5-2.5v-5a2.5 2.5 0 0 1 2.5-2.5h4a3.5 3.5 0 0 0 3.5-3.5v-4ZM36.5 22a.5.5 0 0 0 0 1h4a2.5 2.5 0 0 1 2.5 2.5v5a2.5 2.5 0 0 1-2.5 2.5h-4a3.5 3.5 0 0 0-3.5 3.5v4a2.5 2.5 0 0 1-2.5 2.5h-5a2.5 2.5 0 0 1-2.5-2.5v-4a.5.5 0 0 0-1 0v4a3.5 3.5 0 0 0 3.5 3.5h5a3.5 3.5 0 0 0 3.5-3.5v-4a2.5 2.5 0 0 1 2.5-2.5h4a3.5 3.5 0 0 0 3.5-3.5v-5a3.5 3.5 0 0 0-3.5-3.5h-4Z" fill="#22B0D6"/></svg>