<!-- by TradingView --><svg width="56" height="56" viewBox="0 0 56 56" xmlns="http://www.w3.org/2000/svg"><path fill="#F0F3FA" d="M0 0h56v56H0z"/><path d="M34.96 40.4a1.32 1.32 0 0 1-.8-1c-4.6 1.27-11.1-1.36-19.74-8.02-.1.26-.28.48-.5.64 8.93 8.16 14.77 11.66 18.23 10.87a4 4 0 0 0 .93-.34 4.96 4.96 0 0 0 2.1-2.1c-.08.03-.15 0-.22-.04ZM32 42.22c-2.2.5-5.5-.94-10.16-4.4 4.65 3.05 7.93 4.33 10.27 4.03.5-.08 1-.2 1.44-.42l.07-.03c-.47.41-1 .71-1.62.82Zm.04-1.09c-1.95.27-4.61-.67-8.25-2.9 4.14 2 7.6 2.64 10.45 1.92-.65.57-1.37.87-2.2.98Z" fill="#42458E"/><path d="M29.3 17.19c-12.25 2.67-18.55 5.64-19.24 9-.28 1.38.4 2.81 2.02 4.24a1.24 1.24 0 0 1 1.62-.75l.22.11c1.66-3.53 6.88-7.45 15.6-11.62-.18-.3-.26-.64-.22-.98Zm-17.33 12.2c-1.04-1.06-1.44-2.08-1.26-3.06.4-2.03 3.42-4.02 8.97-5.87-4.43 1.92-7.02 4-7.78 6.17-.25.9-.25 1.85.07 2.75Zm.62-2.5c.57-1.76 2.55-3.46 5.94-5.11.43-.23.9-.42 1.37-.6-4.61 2.52-6.99 5.3-7.13 8.31a3.3 3.3 0 0 1-.18-2.6Zm.86 2.3c.4-3.65 4.5-6.96 12.25-9.9-6.63 3.5-10.66 6.78-12.25 9.9Z" fill="#5A9680"/><path d="M43.1 16.66c-1.66-2.18-5.44-2.22-11.57-.07a1.33 1.33 0 0 1-.32 1.88c3.89 3.99 5.26 10.53 4.03 19.42.18-.04.4 0 .58.07.22.08.4.23.54.42 6.88-11.56 9.08-18.67 6.74-21.72Zm-11.2 1.47a8.26 8.26 0 0 1 4.42 3.95c1.55 3.05 1.52 7.6-.1 13.51.64-7.79-.8-13.62-4.33-17.46Zm5.29 16.4c1.33-5.49 1.26-9.78-.25-12.75a8.32 8.32 0 0 0-3.43-3.61c2.53.64 4.22 1.8 5.12 3.53 1.4 2.68.94 6.89-1.44 12.84Zm1.8-2.97c1.4-4.51 1.48-7.82.22-10.23-1.05-1.96-2.96-3.28-5.84-3.95 3.53-.12 5.9.71 7.02 2.48 1.41 2.3.94 6.2-1.4 11.7Zm1.98-3.38c1.23-3.88 1.19-6.74-.03-8.7-1.27-2-3.75-2.93-7.5-2.82 4.76-1.43 7.82-1.28 9.12.41 1.4 1.85.86 5.57-1.59 11.1Z" fill="#D7A048"/><path d="M30.52 17.98a.6.6 0 0 0 .58-.6c0-.34-.26-.6-.58-.6a.59.59 0 0 0-.57.6c0 .33.26.6.57.6ZM13.27 31.53a.6.6 0 0 0 .58-.6c0-.34-.26-.6-.58-.6a.59.59 0 0 0-.58.6c0 .33.26.6.58.6Zm22.12 8.27c.32 0 .57-.26.57-.6 0-.33-.25-.6-.57-.6a.59.59 0 0 0-.58.6c0 .34.26.6.58.6Z" fill="#1D252D"/></svg>