<!-- by TradingView --><svg width="56" height="56" viewBox="0 0 56 56" xmlns="http://www.w3.org/2000/svg"><path fill="#F0F3FA" d="M0 0h56v56H0z"/><path d="M50.88 28.13c.53.96 1.12 2.05 1.12 3.25 0 1.75-.86 2.79-1.83 3.31a3.5 3.5 0 0 1-1 .31h-.09a.62.62 0 0 1-.6-.47.54.54 0 0 1-.01-.24.62.62 0 0 1 .52-.5c.42-.07 1.77-.41 1.77-2.37a4.6 4.6 0 0 0-.62-2.01l-.29-.54-.06-.13-.42-.79-.05-.11-.06-.12-.25.66-.49 1.2-.26.66a2.57 2.57 0 0 1-2.52 1.66h-.07a.2.2 0 0 1-.03-.01h-.07l-.04-.01h-.08a.2.2 0 0 0-.03-.01l-.03-.01-.06-.01h-.02a.2.2 0 0 0-.03-.01h-.03l-.04-.02h-.04l-.03-.02h-.03l-.06-.03a2 2 0 0 1-1-.74l-.08-.13-.13.11a3.99 3.99 0 0 1-2.42.88 3 3 0 0 1-2.16-.83 2.87 2.87 0 0 1-1.69.82h-.06l-.23.02h-.14c-.5-.03-.95-.21-1.3-.5a1.94 1.94 0 0 1-.63-1.09c-.08-.41-.02-.87.17-1.33l.65-1.73-.16-.06a.6.6 0 0 0-.03-.02l-.04-.01c-.47-.2-.96-.53-1.32-.97l-.04.1-.07.18-.72 1.82-.45 1.14-.04.1-.27.7a2.57 2.57 0 0 1-3.66 1.32 1.9 1.9 0 0 1-.54-.53c-.4-.57-.44-1.3-.14-2.05l.17-.42.32-.83a1.85 1.85 0 0 0 .04-.1 5.37 5.37 0 0 1-1.84.55c0 .15-.02.29-.04.43a4.05 4.05 0 0 1-3.87 3.28c-.93 0-1.75-.36-2.33-1.01l-.06-.08a2.92 2.92 0 0 1-.06-.08l-.08-.12-.03-.05-.03-.04a2.53 2.53 0 0 1-2.3 1.37c-.36 0-.7-.07-1-.21-.26-.13-.49-.31-.67-.53-.47.48-1.1.74-1.82.74h-.28l-.02-.01c-.5-.06-.92-.26-1.24-.58l-.14-.15c-.11.13-.25.23-.38.32l-.1.07a2.62 2.62 0 0 1-1.34.37h-.09a1.01 1.01 0 0 0-.11-.01.2.2 0 0 0-.03 0l-.04-.01h-.04l-.04-.01h-.05l-.03-.01h-.01l-.1-.03h-.02a2.13 2.13 0 0 1-.89-.44.36.36 0 0 1-.04-.04.35.35 0 0 0-.04-.03l-.02-.02a.44.44 0 0 0-.06-.06l-.01-.01-.02-.03a.18.18 0 0 0-.04-.04l-.02-.03-.02-.03-.01-.01-.03-.04-.02-.03-.08-.12c-.7.6-1.6.98-2.54.98a3.17 3.17 0 0 1-2.33-1 2.95 2.95 0 0 1-.68-2.46 4.06 4.06 0 0 1 3.87-3.28c.58 0 1.13.13 1.6.4a2.9 2.9 0 0 1 .86.77l.12.19.21-.53.13-.34a.4.4 0 0 1 .12-.17c.1-.09.23-.14.35-.14h.64c.2 0 .29.14.22.31l-1.32 3.34v.02c-.04.07-.24.57-.27.76-.03.15-.02.3.02.42l.08.17c.05.08.13.14.21.2.15.07.33.12.53.12.54 0 .87-.24 1.08-.53.08-.12.14-.24.19-.35a1766.55 1766.55 0 0 1 2.57-6.5l.22-.56.31-.8.02-.03.01-.02a.52.52 0 0 1 .23-.21.5.5 0 0 1 .21-.06h.65c.07 0 .13.02.17.06.04.03.06.09.07.14 0 .04 0 .08-.02.12l-1.17 2.95-.98 2.48-.08.21-.5 1.29-.05.13c-.08.22-.23.63-.26.77-.04.24 0 .44.1.6l.11.1c.15.14.37.22.64.22.28 0 .51-.08.7-.19.22-.13.37-.32.48-.52l.09-.18a2141.75 2141.75 0 0 1 3.73-9.45.54.54 0 0 1 .47-.32h.64c.2 0 .29.14.22.32l-.57 1.45a2295.52 2295.52 0 0 1-2.17 5.48l-.67 1.7-.15.4c-.06.14-.1.28-.12.37a.81.81 0 0 0 .05.49l.06.1c.11.18.31.28.55.32l.19.01c.74 0 1.1-.48 1.26-.88l.12-.3.22-.56a1108.77 1108.77 0 0 1 2.77-7c0-.02.01-.02.02-.03a.48.48 0 0 1 .2-.2.52.52 0 0 1 .24-.07h.64c.11 0 .19.04.22.11.03.06.04.13 0 .21l-.35.9a307.94 307.94 0 0 0-1.03 2.62c.46-.19.94-.3 1.44-.3a3.04 3.04 0 0 1 2.55 1.3v.02h.01c.12.17.2.34.27.52.49-.05 1-.2 1.46-.43.47-.23.9-.55 1.23-.95.1-.1.25-.2.4-.25h.01l.14-.02h.71c.19 0 .29.14.22.32l-.43 1.07a379.25 379.25 0 0 1-.62 1.56l-.45 1.15c-.07.16-.1.32-.1.46-.01.18.03.34.11.46.14.2.4.33.73.33.76 0 1.11-.48 1.28-.88l.02-.06.44-1.11 1.1-2.79.43-1.07.05-.13a.54.54 0 0 1 .47-.32h.63a.3.3 0 0 1 .11.02h.03l.01.02h.03c.06.05.1.12.11.25v.1c0 .81.94 1.24 1.13 1.32h.01a3.15 3.15 0 0 0 .49.18c.14.05.28.12.4.23.05.07.1.13.14.22a.8.8 0 0 1 0 .67l-.02.04a108.75 108.75 0 0 1-.78 2.04c-.14.37-.14.7.02.92.08.12.2.2.35.26.12.04.25.07.39.07h.1a1.6 1.6 0 0 0 1.18-.7 3.09 3.09 0 0 1-.04-1.98l.03-.1.05-.13v-.02a4.05 4.05 0 0 1 1.07-1.55l.03-.03a.35.35 0 0 0 .03-.03 3.9 3.9 0 0 1 2.56-1 3.12 3.12 0 0 1 2.33 1.01c.1.13.2.25.28.39l.53-1.32.34-.84.26-.67.71-1.79c.05-.1.15-.21.27-.26a.45.45 0 0 1 .2-.06h.65c.2 0 .29.14.22.32a12551.61 12551.61 0 0 0-3.03 7.63l-.04.16v.03a.83.83 0 0 0 .03.48l.07.12c.15.2.4.32.73.32.75 0 1.1-.48 1.27-.88l1.4-3.57c.7-1.69 1.5-1.9 2.14-1.9a1.45 1.45 0 0 1 .63.16c.03.03.06.05.07.08.02.04.01.08 0 .14l-.23.57v.01a.1.1 0 0 1-.05.06.28.28 0 0 1-.06.03h-.04c-.45.03-.74.26-.82.66-.1.56.3 1.3.75 2.13Zm-8.16 2.18a2.73 2.73 0 0 0 1.34-2.22 1.82 1.82 0 0 0-.4-1.16 1.7 1.7 0 0 0-1.32-.59c-.5 0-.97.17-1.38.45a2.82 2.82 0 0 0-1.15 1.8c-.03.2-.03.41 0 .61.05.33.17.62.37.86.2.24.47.4.78.5.17.06.36.08.55.08.41 0 .82-.11 1.17-.31l.01-.01.03-.01Zm-20.8-.26c.22.27.5.45.85.53.15.04.3.06.48.06a2.68 2.68 0 0 0 2.53-2.24c.08-.57-.05-1.1-.38-1.48a1.59 1.59 0 0 0-.58-.43 1.9 1.9 0 0 0-.74-.15c-.6 0-1.17.24-1.63.63-.21.2-.4.42-.55.67l-.01.02-.01.01-.03.05a.77.77 0 0 1-.04.08l-.02.03a8.94 8.94 0 0 0-.15.38c-.03.1-.07.22-.09.37-.08.57.05 1.09.37 1.47Zm-16.14.01c.32.37.8.58 1.34.58a2.7 2.7 0 0 0 2.54-2.24c.1-.57-.04-1.1-.37-1.48a1.71 1.71 0 0 0-1.33-.58 2.69 2.69 0 0 0-2.55 2.24c-.08.51.02.99.28 1.36l.1.12Zm25.5-5.98-.1.01a.76.76 0 0 1-.59-.26.77.77 0 0 1-.16-.61c.07-.46.48-.83.93-.87l.1-.01h.08c.45.05.74.43.67.88-.07.45-.48.82-.94.86Z"/></svg>