<!-- by TradingView --><svg width="56" height="56" viewBox="0 0 56 56" xmlns="http://www.w3.org/2000/svg"><path fill="#F0F3FA" d="M0 0h56v56H0z"/><path d="m18.85 21.4-.87-4.39L18 17h.03l1.5.74c.03.01.06 0 .08-.02l1.93-2.7c.01-.02.03-.02.05 0l1.93 2.7c.02.03.05.04.08.02l1.49-.75h.03l.01.04-.87 4.39c-.01.06 0 .07.04.02l2.27-2.9c.04-.06.07-.05.07.02l.19 1.92c0 .03.02.04.04.03l2.09-.57c.03 0 .04 0 .02.04l-7.39 10.98c-.02.02-.04.02-.05 0l-7.48-10.96c-.03-.05-.02-.06.03-.05l2.17.57c.02.01.03 0 .04-.02l.18-1.96c.01-.06.03-.07.06-.02l2.28 2.92c.04.05.06.04.04-.02Z" fill="#D80021"/><path d="m21.56 34.96 9.49-13.13c.4-.56 1-.83 1.78-.83h9.88c.46 0 .8.05 1.03.14a2 2 0 0 1 .73.52c.21.24.36.5.44.78.21.72.05 1.37-.49 1.96-.21.23-.46.4-.74.49a3 3 0 0 1-.93.11H33.7c-.02 0-.04.02-.05.03-3.35 4.5-6.77 9.12-10.26 13.85-.3.42-.57.69-.78.82a2.02 2.02 0 0 1-2.7-.55c-3.51-5.05-6.9-9.93-10.2-14.64a4.4 4.4 0 0 1-.68-1.2 1.85 1.85 0 0 1 1.19-2.15 2 2 0 0 1 1.27-.07c.46.12.83.4 1.11.8l8.9 13.07c.01.03.03.03.05 0Z" fill="#071C97"/><path d="M39 35.93v-4.92c0-.38.02-.65.1-.83.14-.33.35-.58.65-.77.9-.58 1.78-.54 2.64.12a1.55 1.55 0 0 1 .61 1.22v7.57c0 .75-.33 1.27-1 1.55-.2.09-.54.13-1.01.13h-4.9a7.73 7.73 0 0 1-4.77-1.68c-1.33-1-2.43-2.33-3.31-3.97a.07.07 0 0 1 0-.09c1.04-1.2 2.01-2.44 2.92-3.68.05-.06.07-.05.07.02a6 6 0 0 0 .7 2.98c.52.91 1.3 1.56 2.33 1.96a7 7 0 0 0 2.44.46h2.46c.04 0 .07-.03.07-.07Z" fill="#D80021"/></svg>