<!-- by TradingView --><svg width="56" height="56" viewBox="0 0 56 56" xmlns="http://www.w3.org/2000/svg"><path fill="#F0F3FA" d="M0 0h56v56H0z"/><path d="M28.36 18.69 15.06 15l3.72 13.18L15 40.94l12.84-3.67L40.94 41l-3.52-13.14L41 15.06 28.36 18.7Zm7.68 9.2 3.02 11.23-11.2-3.19-10.96 3.13 3.24-10.9-3.18-11.26 11.37 3.15 10.81-3.1-3.06 10.93h-.04Z" fill="url(#a)"/><path d="M34.7 21.77 28 10l-6.54 11.75L10 28l11.46 6.33L28 46l6.65-11.58L46 28l-11.3-6.23Zm-1 11.71-5.68 9.92-5.59-9.98-9.8-5.42 9.78-5.36L28 12.6l5.72 10.06L43.37 28l-9.7 5.48h.03Z" fill="url(#b)"/><defs><linearGradient id="a" x1="39.27" y1="27.95" x2="17.8" y2="28.08" gradientUnits="userSpaceOnUse"><stop stop-color="#F29726"/><stop offset=".1" stop-color="#EA505C"/><stop offset=".2" stop-color="#E84663"/><stop offset=".3" stop-color="#E73570"/><stop offset=".4" stop-color="#E52979"/><stop offset=".6" stop-color="#E5227E"/><stop offset="1" stop-color="#E52180"/></linearGradient><linearGradient id="b" x1="40.62" y1="16.14" x2="24.91" y2="30.9" gradientUnits="userSpaceOnUse"><stop offset=".1" stop-color="#F29A24"/><stop offset=".4" stop-color="#EB5C53"/><stop offset="1" stop-color="#E52180"/></linearGradient></defs></svg>