<!-- by TradingView --><svg width="56" height="56" viewBox="0 0 56 56" xmlns="http://www.w3.org/2000/svg"><path fill="#F0F3FA" d="M0 0h56v56H0z"/><path d="M28 18c4.4 0 8.1 1.96 9.4 2.94l-.71.4c.63.4 1.8 1.37 2.31 1.8l-1.28.52-.6 1.34a9.7 9.7 0 0 0-3.93-2.51l.26-.84c-1.58-.85-4.3-1.15-5.45-1.19-1.16.04-3.87.34-5.45 1.2l.26.83A9.7 9.7 0 0 0 18.88 25l-.6-1.34-1.28-.51c.5-.44 1.68-1.42 2.31-1.8l-.72-.4C19.9 19.95 23.6 18 28 18Z"/><path d="M30.47 25.26c.79-.48 1.88-.32 2.1.63.18.76-.2 1.38-.38 1.9a.24.24 0 0 0 .03.23c.26.33.44.51.43.88 0 .08.02.16.05.23.3.6.38 1.22.22 1.87-.03.15-.1.3-.21.43a.23.23 0 0 0-.06.17c.01.2-.09.35-.3.43a.16.16 0 0 0-.06.05.14.14 0 0 0-.03.08c-.03.3-.1.51-.23.66-.38.41-.9.68-1.55.8a.76.76 0 0 1-.38 0 .1.1 0 0 0-.1 0 .1.1 0 0 0-.03.04.1.1 0 0 0 0 .05c0 .15-.04.27-.1.36a.15.15 0 0 1-.07.05.16.16 0 0 1-.07.01.76.76 0 0 0-.75.38l-.02.04-.05.31-.02.05a.13.13 0 0 1-.05.03c-.18.1-.33.07-.43-.06-.1-.15-.23-.17-.41-.17-.18 0-.3.02-.41.17-.1.13-.25.16-.43.06a.13.13 0 0 1-.05-.03.12.12 0 0 1-.02-.05l-.05-.3-.02-.05a.76.76 0 0 0-.75-.38l-.07-.01a.15.15 0 0 1-.06-.05.59.59 0 0 1-.1-.36.1.1 0 0 0-.01-.05.1.1 0 0 0-.08-.05.1.1 0 0 0-.05 0 .76.76 0 0 1-.38.02 2.74 2.74 0 0 1-1.55-.81c-.13-.15-.2-.37-.23-.66a.14.14 0 0 0-.03-.08.16.16 0 0 0-.07-.05c-.2-.08-.3-.22-.3-.43a.23.23 0 0 0-.05-.17.93.93 0 0 1-.21-.43 2.65 2.65 0 0 1 .22-1.87.48.48 0 0 0 .05-.23c-.01-.37.17-.55.43-.88a.24.24 0 0 0 .04-.23c-.2-.52-.57-1.14-.4-1.9.23-.95 1.32-1.1 2.11-.63.3.17.1.58-.21.53l-.29-.04c-.03 0-.07.01-.1.03a.14.14 0 0 0-.05.07v.1c.02.02.04.05.07.06.2.1.43.15.66.12.02 0 .03-.01.05-.03a.07.07 0 0 0 .01-.05.36.36 0 0 1 .15-.34.16.16 0 0 1 .12-.03l.46.06.42-.02s.02 0 .03.02l.03.03v.04l-.04.02a1 1 0 0 1-.77.01c-.08-.02-.14 0-.17.06-.05.03-.06.07-.02.12.06.07.07.13.02.19a.1.1 0 0 1-.05.03c-.13.04-.27.05-.41.04a.91.91 0 0 1-.64-.19.16.16 0 0 1-.06-.1c-.02-.16 0-.32.05-.47a.11.11 0 0 1 .06-.06.13.13 0 0 1 .1 0l.37.12h.06c.02 0 .03-.02.04-.04l.02-.04a.06.06 0 0 0-.02-.08h-.03c-.38-.12-.76-.04-1.16.23a.21.21 0 0 0-.08.1.2.2 0 0 0 0 .13l.11.4a.87.87 0 0 0 .54.16l.01-.01v-.01h-.01c-.33-.13-.42-.36-.28-.7 0-.02.01-.02.02-.03h.03l.03.01V26.01c0 .03.02.07.05.09.2.2.43.3.72.31.19 0 .34.01.45.07-.4.36-.72.27-1.28.27h.01a3.18 3.18 0 0 0 .46.16l.01.02v.03l-.03.02c-.2.05-.37.12-.49.22a.3.3 0 0 0-.1.14l-.15.43-.4.56v.01h.01a.3.3 0 0 0 .04 0 .9.9 0 0 1 .18-.24l.4-.4a.46.46 0 0 1 .12-.09l.67-.33h.03c.02 0 .02.01.03.02a.04.04 0 0 1 0 .05 2.31 2.31 0 0 0-.75 2.44c.01.07-.02.12-.1.13a.1.1 0 0 0-.06.03.08.08 0 0 0-.03.06c.06.34.16.66.3.98.25.55.68.97 1.24 1.64l.01.02v.02h-.05a4.74 4.74 0 0 1-1.74-2.26 1.77 1.77 0 0 1-.06-1.21l.21-.85c-.2.14-.37.23-.54.27a.1.1 0 0 0-.06.03.1.1 0 0 0-.02.07c.01.08.04.16.1.25.02.02.02.04.02.07v.06c-.21.45-.3.92-.27 1.4l.15-.02a.07.07 0 0 1 .06.01l.01.02.01.03v.66a.17.17 0 0 0 .08.15h.02l.06.06.03.06c.06.26.09.45.1.58 0 .05-.03.09-.08.1a.05.05 0 0 1-.05 0l-.01-.03v-.02c.05-.23-.02-.38-.22-.44a.12.12 0 0 1-.06-.04.1.1 0 0 1-.02-.06v-.23c0-.04 0-.07-.02-.1a.27.27 0 0 0-.06-.1.47.47 0 0 1-.17-.35l-.03-.03a.05.05 0 0 0-.07 0v.02l-.02.17c-.01.14.05.27.18.38l.05.06.01.07c0 .25.08.41.24.48.03 0 .05.02.07.04.02.02.03.05.03.07l.14.53.02.04c.2.28.5.51.91.69l.57.17c.05.01.1.02.15.01l.3-.04a.1.1 0 0 0 .06-.04.1.1 0 0 0 .02-.06c0-.14.03-.28.1-.42a.12.12 0 0 1 .05-.05.13.13 0 0 1 .15.02c.02.02.03.05.03.07.02.25-.02.47-.12.67a.28.28 0 0 0-.02.1l.01.12a.25.25 0 0 0 .17.14l.1-.02c.05 0 .1 0 .14.02.24.12.42.24.54.37.03.04.04.08.04.12 0 .08.02.19.07.31 0 .02.02.04.03.05a.1.1 0 0 0 .12 0 .1.1 0 0 0 .04-.03c.09-.15.24-.22.45-.22a.1.1 0 0 1 .04-.02h.03a.03.03 0 0 1 .01.03c0 .04.02.07.03.1a.24.24 0 0 0 .03-.1v-.02h.02l.02-.01a.1.1 0 0 1 .04.02c.21 0 .36.07.45.22a.1.1 0 0 0 .04.04.11.11 0 0 0 .12-.01.1.1 0 0 0 .03-.05.87.87 0 0 0 .07-.3c0-.05.01-.1.04-.13.12-.13.3-.25.54-.37a.2.2 0 0 1 .13-.02l.11.02a.25.25 0 0 0 .18-.25.28.28 0 0 0-.02-.11c-.1-.2-.14-.42-.12-.67 0-.02.01-.05.03-.07a.13.13 0 0 1 .15-.03l.05.06c.07.14.1.28.1.42 0 .02 0 .05.02.06a.1.1 0 0 0 .06.04l.3.04h.15l.57-.18a2.03 2.03 0 0 0 .93-.73l.14-.53c0-.02.01-.05.03-.07a.17.17 0 0 1 .07-.04c.16-.07.24-.23.24-.48l.01-.07a.17.17 0 0 1 .05-.06c.13-.1.19-.24.18-.38l-.01-.17-.01-.02-.02-.01h-.05l-.03.04c0 .13-.05.25-.17.36a.27.27 0 0 0-.08.19v.23a.1.1 0 0 1-.02.06.12.12 0 0 1-.06.04c-.2.06-.27.21-.22.44v.02l-.01.02-.03.01h-.02c-.05-.01-.07-.05-.07-.1a3.74 3.74 0 0 1 .12-.64.18.18 0 0 1 .06-.05l.02-.01a.17.17 0 0 0 .08-.15V30.5l.02-.02a.07.07 0 0 1 .06-.01l.15.01c.03-.47-.05-.94-.26-1.39a.13.13 0 0 1 0-.13c.07-.09.1-.17.1-.25a.1.1 0 0 0-.01-.07.1.1 0 0 0-.06-.03 1.4 1.4 0 0 1-.54-.27l.21.85c.13.49.1.77-.06 1.21a4.74 4.74 0 0 1-1.76 2.27l-.02-.01-.01-.02v-.02c.57-.67 1-1.1 1.25-1.64a3.92 3.92 0 0 0 .3-1 .08.08 0 0 0-.05-.06.1.1 0 0 0-.03-.01c-.09-.01-.12-.06-.1-.13a2.31 2.31 0 0 0-.76-2.44v-.05s.01-.02.03-.02h.03l.67.33c.05.02.09.06.12.1l.4.39a.9.9 0 0 1 .18.24.3.3 0 0 0 .05 0 .01.01 0 0 0 0-.01l-.4-.56-.15-.43a.3.3 0 0 0-.1-.14 1.3 1.3 0 0 0-.49-.22l-.02-.02-.01-.03v-.02l.03-.02a3.18 3.18 0 0 0 .45-.14c-.56 0-.87.1-1.28-.27a.93.93 0 0 1 .45-.07c.29 0 .53-.11.72-.31a.13.13 0 0 0 .04-.1v-.27l.01-.03.03-.01h.03l.02.02c.14.35.05.59-.28.7l-.01.02.02.01c.22 0 .4-.06.53-.17l.12-.4a.2.2 0 0 0 0-.12.21.21 0 0 0-.09-.1c-.4-.27-.78-.35-1.16-.24l-.03.01-.01.02a.06.06 0 0 0 0 .06l.01.04c0 .02.02.03.04.04h.06l.38-.13a.12.12 0 0 1 .09 0l.04.03.02.04c.05.15.07.3.05.47 0 .04-.03.08-.06.1-.18.14-.4.2-.64.2-.14 0-.28-.01-.41-.05a.1.1 0 0 1-.05-.03c-.05-.06-.04-.12.02-.19.04-.05.03-.1-.02-.12-.03-.07-.1-.08-.17-.06a1 1 0 0 1-.77 0 .06.06 0 0 1-.03-.03v-.04c0-.01 0-.03.02-.03l.03-.02.42.02.46-.06c.04 0 .08 0 .12.03.1.08.16.2.15.34l.01.05c.02.02.03.03.05.03.23.03.45-.01.66-.12a.14.14 0 0 0 .06-.06.13.13 0 0 0 .01-.1.14.14 0 0 0-.06-.07.15.15 0 0 0-.09-.03l-.29.04c-.32.05-.5-.36-.21-.53Z" fill="#040304"/><path d="M28.31 31.1c.2-.18.4-.2.59-.07.05.03.1.05.16.04h.05l.03.02.01.03v.03c-.12.45-.47.51-.88.68a.23.23 0 0 0-.1.09.51.51 0 0 0-.08.38c.01.04.03.08.07.1.46.38.87.73 1.38.36a.05.05 0 0 1 .06 0l.02.03v.04c-.15.25-.14.5.03.74a.2.2 0 0 1 .03.12v.09l-.03.03a.08.08 0 0 1-.03.03h-.05a.08.08 0 0 1-.04-.03l-.05-.06-.02-.02a.07.07 0 0 0-.06 0l-.03.02c-.13.17-.3.3-.48.41a.3.3 0 0 0-.14.16.9.9 0 0 1-.14.29.07.07 0 0 1-.07 0 .07.07 0 0 1-.03-.02.06.06 0 0 1-.01-.03c0-.08-.06-.12-.16-.11-.1 0-.18-.03-.22-.1a.6.6 0 0 1-.12-.15.59.59 0 0 1-.12.16c-.04.06-.12.1-.22.09-.1 0-.15.03-.16.11l-.01.03-.03.03a.08.08 0 0 1-.07-.01.9.9 0 0 1-.14-.29.3.3 0 0 0-.14-.16 1.65 1.65 0 0 1-.5-.43.07.07 0 0 0-.07 0l-.02.02-.05.06-.04.03h-.05a.08.08 0 0 1-.03-.03.07.07 0 0 1-.02-.03v-.09c0-.05 0-.09.02-.12.17-.25.18-.5.03-.74a.05.05 0 0 1 .02-.06.05.05 0 0 1 .06 0c.5.36.92.01 1.38-.37a.18.18 0 0 0 .07-.1.51.51 0 0 0-.07-.38.23.23 0 0 0-.11-.1c-.4-.16-.76-.22-.88-.67v-.03l.01-.03.03-.02h.05c.06 0 .11-.01.16-.04.2-.13.39-.1.59.07l.01.03v.03l-.03.02h-.03l-.18-.06a.1.1 0 0 0-.05 0 .09.09 0 0 0-.05.03.08.08 0 0 0 0 .1c.17.2.38.25.63.16H28c.26.09.47.03.64-.16a.08.08 0 0 0 0-.1.09.09 0 0 0-.05-.04.1.1 0 0 0-.05 0l-.18.07h-.03a.05.05 0 0 1-.03-.02.04.04 0 0 1 .01-.06Zm-.33 1.64-.96.42a.11.11 0 0 0-.05.04.1.1 0 0 0-.02.06v.36c0 .04.01.09.03.13a.3.3 0 0 0 .1.1.33.33 0 0 0 .26.07c.16-.04.36-.03.62 0l.04.05a.3.3 0 0 1 .04-.05c.26-.03.46-.04.62 0a.34.34 0 0 0 .27-.07.3.3 0 0 0 .09-.1.29.29 0 0 0 .03-.13v-.36a.1.1 0 0 0-.02-.06.11.11 0 0 0-.05-.04l-.96-.42-.02-1.01-.02 1ZM24.23 32.55h.01c.21.24.42.36.64.36h.06a49.05 49.05 0 0 1 .4.19c.1.06.18.07.25.04a.1.1 0 0 1 .06-.01.1.1 0 0 1 .05.03c.02.01.03.03.03.05 0 .02 0 .04-.02.06-.02.02-.07.04-.16.07a.14.14 0 0 1-.12-.02.85.85 0 0 0-.46-.19 24.66 24.66 0 0 0-.55-.3c-.15-.09-.23-.17-.23-.25v-.02h.02l.02-.01ZM31.8 32.55v.01l.01.02c0 .08-.08.16-.22.25a24.3 24.3 0 0 0-.56.3c-.14 0-.3.07-.46.19a.14.14 0 0 1-.12.02c-.09-.03-.14-.05-.16-.07a.08.08 0 0 1 0-.11.1.1 0 0 1 .06-.03.1.1 0 0 1 .06 0c.07.04.15.03.25-.02l.29-.16a.25.25 0 0 1 .11-.04h.06c.22 0 .43-.12.64-.35l.01-.01h.02ZM24.06 30.82h.02l.01.02c.13.47.26.99.56 1.36a.06.06 0 0 0 .06.02c.04-.01.06-.04.06-.07l.02-.04a.07.07 0 0 1 .04-.02.1.1 0 0 1 .09.04c.11.17.15.4.46.49.12.03.25.12.38.27v.04l-.01.01h-.03l-.28-.04a.33.33 0 0 1-.17-.08.93.93 0 0 0-.3-.18.66.66 0 0 1-.22-.14 2.6 2.6 0 0 1-.72-1.32.67.67 0 0 1 0-.34l.01-.02h.02ZM31.94 30.82h.02l.01.02c.03.1.03.2 0 .34a2.6 2.6 0 0 1-.72 1.32.66.66 0 0 1-.23.14c-.1.04-.2.1-.29.18a.33.33 0 0 1-.17.08l-.28.04h-.03l-.01-.01v-.04a.85.85 0 0 1 .38-.27c.31-.1.35-.32.46-.49a.1.1 0 0 1 .09-.04l.04.02.02.04c0 .03.02.06.06.07h.03c.01 0 .02 0 .03-.02.3-.37.43-.89.56-1.36l.01-.02h.02Z" fill="#040304"/><path d="M26.48 32.23c-.31-.34-.13-.34.54.01.19-.02.3.02.33.12a.24.24 0 0 1-.03.22.28.28 0 0 1-.2.11c-.4.04-.61-.11-.64-.46ZM28.98 32.24c.67-.35.85-.35.54-.01-.03.35-.24.5-.64.46a.28.28 0 0 1-.2-.11.25.25 0 0 1-.03-.22c.03-.1.14-.14.33-.12ZM26.39 30.79h.01l.01.01v.02c-.1.23-.15.47-.12.74 0 .02 0 .04.02.05.02.02.04.02.06.02.28-.01.53.05.75.18l.02.03v.03l-.03.02h-.03c-.26-.1-.5-.11-.72-.05a.24.24 0 0 1-.17-.02.22.22 0 0 1-.07-.06.2.2 0 0 1-.03-.08.86.86 0 0 1 .28-.89h.02ZM29.61 30.79h.02c.27.25.37.54.28.9a.2.2 0 0 1-.03.07.22.22 0 0 1-.15.08h-.1a1.15 1.15 0 0 0-.71.05h-.03a.04.04 0 0 1-.03-.02v-.03c0-.01 0-.02.02-.03.22-.13.47-.19.75-.18.02 0 .04 0 .06-.02a.08.08 0 0 0 .02-.05c.03-.27-.01-.51-.12-.74v-.03h.02Z" fill="#040304"/><path d="M28.05 25.78c.18 0 .31.02.4.04.46.13.88.22 1.26.27.04 0 .04.03.01.08-.35.04-.59.03-.72 0-.25-.09-.51-.12-.8-.1l-.02.02a.04.04 0 0 0 0 .05l.03.01c.46.06.9.23 1.33.52.12.09.2.22.23.4v.03l-.04.02h-.03a.06.06 0 0 1-.04-.02c-.19-.27-.45-.45-.76-.55h-.02l-.02.02v.02l.01.02.65.42a.05.05 0 0 1 .02.03.05.05 0 0 1-.01.04.07.07 0 0 1-.07.03l-.03-.01a2.8 2.8 0 0 0-1.25-.48.05.05 0 0 0-.02.02v.04l.03.02c.3.14.62.26.94.37.12.04.2.1.22.18v.05a.05.05 0 0 1-.06 0c-.34-.2-.69-.25-1.06-.16a.15.15 0 0 0-.08.05.14.14 0 0 0 0 .17c.02.03.05.04.08.05.5.12.76.4.8.87l.03.38a.07.07 0 0 0 .03.05.08.08 0 0 0 .06.01c.13 0 .22-.1.4-.09.19.01.37.04.56.08a.47.47 0 0 0 .01-.31.14.14 0 0 0-.07-.09.16.16 0 0 0-.12 0l-.4.14a.1.1 0 0 1-.1-.01.1.1 0 0 1-.03-.04.09.09 0 0 1 0-.04c0-.5-.26-.85-.78-1.04l-.02-.01a.03.03 0 0 1 .01-.05h.03c.32.03.56.14.73.32.11.13.28.25.49.39a.8.8 0 0 0 .32.08.1.1 0 0 0 .06-.01.09.09 0 0 0 .04-.05c.08-.24.02-.53-.18-.85v-.04h.05c.42.42.53.87.32 1.36a.07.07 0 0 0 .01.08l.04.02h.04a.44.44 0 0 0 .3-.16l.02-.02a.07.07 0 0 1 .07 0l.02.03c.5 1.07.1 2.37-.72 3.14a.03.03 0 0 1-.03 0 .03.03 0 0 1 0-.04c.16-.2.25-.46.28-.75l-.01-.04a.1.1 0 0 0-.03-.04.1.1 0 0 0-.1-.01l-.32.1a.03.03 0 0 1-.03 0l-.01-.02v-.01c.13-.16.3-.25.52-.25.04 0 .09-.01.12-.04a.22.22 0 0 0 .09-.1c.19-.45.32-.89.11-1.34-.13-.3-.39-.3-.56-.05a1.83 1.83 0 0 1-.57.57h-.04l-.02-.02v-.01a.05.05 0 0 1 0-.04c0-.02 0-.03.02-.04a.46.46 0 0 0 .27-.38v-.03a.06.06 0 0 0-.04-.03h-.04a.05.05 0 0 0-.03.04.73.73 0 0 1-.5.41.16.16 0 0 0-.07.03.15.15 0 0 0-.04.06.52.52 0 0 0-.03.2l-.01.05-.04.02h-.04a.07.07 0 0 1-.03-.03.83.83 0 0 1-.1-.8.52.52 0 0 0-.06-.38c-.11-.41-.2-.82-.77-.83l-.1-.04a.12.12 0 0 1-.04-.04.12.12 0 0 1-.05.04l-.1.04c-.57.01-.65.42-.76.83a.52.52 0 0 0-.05.39c.1.28.06.55-.1.8l-.04.02h-.04a.06.06 0 0 1-.04-.02.06.06 0 0 1 0-.04.52.52 0 0 0-.04-.2.15.15 0 0 0-.04-.07.16.16 0 0 0-.07-.03.73.73 0 0 1-.5-.41.05.05 0 0 0-.03-.03.06.06 0 0 0-.07.02l-.01.03c.01.17.1.3.27.38l.03.04v.04h-.01a.06.06 0 0 1-.06.03h-.03c-.17-.1-.35-.29-.54-.57-.17-.24-.43-.24-.56.05-.21.45-.08.89.11 1.35l.09.1c.03.02.08.03.12.03.22 0 .4.09.52.25v.03a.03.03 0 0 1-.04 0l-.32-.1a.1.1 0 0 0-.1 0 .1.1 0 0 0-.03.05v.04c.02.3.11.54.28.75a.03.03 0 0 1 0 .04h-.04c-.82-.77-1.22-2.07-.72-3.14l.02-.03h.07l.02.02c.08.1.18.15.3.17l.04-.01.04-.02.01-.04v-.04c-.21-.5-.1-.94.32-1.35l.02-.01h.02l.01.02v.02c-.2.32-.26.6-.18.85 0 .02.02.04.04.05a.1.1 0 0 0 .06.01.8.8 0 0 0 .32-.08c.21-.14.38-.26.5-.39.16-.18.4-.29.72-.33l.03.01.01.02v.03l-.02.01c-.52.2-.78.54-.77 1.04l-.01.05a.1.1 0 0 1-.03.03.1.1 0 0 1-.1.01l-.4-.14a.16.16 0 0 0-.17.04.14.14 0 0 0-.02.05c-.04.09-.03.2 0 .3.2-.03.38-.06.56-.07.19 0 .28.08.41.1l.03-.01a.08.08 0 0 0 .05-.04v-.02l.04-.38c.04-.46.3-.75.8-.87.03 0 .06-.02.08-.05a.14.14 0 0 0 0-.17.15.15 0 0 0-.08-.05 1.38 1.38 0 0 0-1.06.16.05.05 0 0 1-.05 0l-.02-.02v-.03c.03-.08.1-.14.23-.18a13.96 13.96 0 0 0 .97-.39v-.04a.05.05 0 0 0-.02-.02l-.04-.01a2.8 2.8 0 0 0-1.24.5.07.07 0 0 1-.05 0l-.02-.02-.01-.02a.05.05 0 0 1 .02-.06l.65-.42.01-.02v-.02l-.02-.02h-.02c-.31.1-.57.28-.76.55l-.04.03h-.03a.06.06 0 0 1-.03-.03v-.04c.02-.17.1-.3.22-.39a2.96 2.96 0 0 1 1.36-.53.04.04 0 0 0 0-.05l-.03-.01c-.28-.03-.54 0-.8.08-.12.04-.36.05-.71 0-.03-.04-.03-.07 0-.07.39-.05.81-.14 1.27-.27a1.65 1.65 0 0 1 .43-.03l.02.01a.08.08 0 0 1 .05-.02Z" fill="#040304"/><path d="M27.14 30h.02v.01l-.1.69v.01h-.02a.11.11 0 0 1-.06-.04.22.22 0 0 1-.05-.08.43.43 0 0 1-.03-.11.6.6 0 0 1 0-.13l.01-.03a.6.6 0 0 1 .03-.13.44.44 0 0 1 .06-.1.24.24 0 0 1 .07-.07.12.12 0 0 1 .07-.02ZM28.86 30c.02 0 .05 0 .07.02.03.01.05.04.07.07l.06.1a.6.6 0 0 1 .03.13v.03a.6.6 0 0 1 0 .13c0 .04 0 .08-.02.11a.23.23 0 0 1-.05.08.11.11 0 0 1-.06.04h-.02v-.01l-.1-.68V30h.02ZM25.3 29.11a.1.1 0 0 1 .05.01c.1.06.16.15.2.28 0 .02.01.05 0 .07 0 .02 0 .03-.02.05-.13.14-.1.36.09.66v.04h-.05c-.29-.15-.35-.71-.36-1.02l.01-.05.04-.03a.1.1 0 0 1 .04-.01ZM30.7 29.11a.1.1 0 0 1 .08.04l.01.05c0 .3-.07.87-.36 1.02h-.04l-.01-.02v-.02c.19-.3.22-.52.1-.66a.12.12 0 0 1-.04-.05v-.07a.47.47 0 0 1 .21-.28.1.1 0 0 1 .05-.01Z" fill="#040304"/><path d="m16.47 25.26 1.08.3c.37.1.72.22 1.05.36.66.27.98.77.97 1.5-.03 1.83-.05 3.5.43 5.15a.1.1 0 0 1-.05.11.1.1 0 0 1-.12 0 3.54 3.54 0 0 1-1.02-1.53 43.3 43.3 0 0 1-.3-2.2c-.14-1.12-.53-1.78-1.54-2.15-.91-.33-1.97-.69-3.17-1.07-1.11-.36-2.49-.77-2.37-2.28a.1.1 0 0 1 .05-.08.1.1 0 0 1 .1 0c1.5.72 3.13 1.35 4.9 1.89ZM18.64 32.07c-.82.4-1.66.63-2.51.69-.42 0-.72-.15-.92-.46a.16.16 0 0 1 0-.15.15.15 0 0 1 .13-.08 9.12 9.12 0 0 0 2.98-.55l.1.03c.19.1.26.27.22.52ZM14.93 32.85c-.73.23-1.49.32-2.27.27-.45 0-.87-.16-1.25-.5a.19.19 0 0 1 .09-.32l2.65-.41c.07-.01.14 0 .2.01.36.11.6.38.7.8a.1.1 0 0 1-.02.1.2.2 0 0 1-.1.05ZM18.88 32.23c.2.16.29.32.28.48-.52.3-1.07.52-1.65.67-.34.1-.7.04-1.07-.15a.1.1 0 0 1 0-.19l2.44-.81ZM19.45 32.84c.14.05.23.11.27.18.02.03.03.06.03.1l-.04.07c-.29.28-.63.47-1.02.59-.3.1-.63.11-1 0a.1.1 0 0 1-.08-.1l.03-.05a.1.1 0 0 1 .05-.04l1.76-.75ZM15.93 33.16c.12.05.2.1.26.16a.15.15 0 0 1-.03.22c-.72.44-1.49.6-2.3.5-.24-.04-.4-.11-.5-.23a.12.12 0 0 1 0-.16.12.12 0 0 1 .05-.04l1.81-.6c.25-.01.49.04.7.15ZM15.08 34.55l-.04-.1 1.42-.81a.4.4 0 0 1 .34-.03l.62.24a.1.1 0 0 1 .02.18c-.62.47-1.64.95-2.36.52ZM18.7 33.96c.1.08.09.18-.04.3-.2.19-.42.35-.64.5-.35.18-.72.26-1.13.23a.12.12 0 0 1-.1-.08.12.12 0 0 1 .04-.13l.75-.62a.36.36 0 0 1 .17-.08l.94-.12ZM11.49 26.1l-2.7-.78c-1.9-.58-5.02-1.6-4.78-4.2a.14.14 0 0 1 .08-.1.14.14 0 0 1 .14 0 20 20 0 0 0 6.45 2.7.51.51 0 0 1 .37.32l.39.99.03.11.1.89v.03a.06.06 0 0 1-.05.04h-.03Z"/><path d="M4.05 23.84a.1.1 0 0 1 .06-.1.1.1 0 0 1 .11.02l.9.71c.07.05.13.09.2.12 1.08.46 1.93.77 2.55.94a4673.26 4673.26 0 0 1 4.1 1.13.1.1 0 0 1 .01.05l.2 1.36a.03.03 0 0 1 0 .02h-.02a28.53 28.53 0 0 1-5.01-1.07c-1.49-.47-3.25-1.36-3.1-3.18ZM17.78 28.31a15.85 15.85 0 0 1-4.05-.75c-.9-.3-1.8-1.1-1.8-2.15a.11.11 0 0 1 .17-.1c.3.2.66.37 1.1.54l3.4 1.13c.61.2 1.04.58 1.3 1.14a.13.13 0 0 1 0 .13.13.13 0 0 1-.12.06ZM5.4 27.03c.56.2 1.22.47 1.83.61 1.46.35 3.06.63 4.8.84.5.06.79.34.83.9 0 .18.08.37.2.56a.07.07 0 0 1-.05.1c-1.62.03-3.17-.1-4.66-.43-.7-.15-1.35-.4-1.96-.76-.6-.36-1-.9-1.18-1.64a.15.15 0 0 1 .04-.14.15.15 0 0 1 .15-.04ZM12.55 27.58a.09.09 0 0 1 .03-.09.08.08 0 0 1 .09 0c.6.37 1.25.6 1.97.7 1.31.2 2.35.35 3.13.45.06 0 .13.04.17.09.05.04.08.1.1.17l.04.32a.19.19 0 0 1-.04.15.18.18 0 0 1-.14.06c-1.77-.05-4.76.54-5.35-1.85Z"/><path d="M13.42 29.42c.63.17.93.28 1.46.3.95.04 1.94.04 2.97-.02a.3.3 0 0 1 .22.08.3.3 0 0 1 .1.22v.1c0 .08-.04.16-.1.22a.32.32 0 0 1-.21.1c-.66.04-1.3.22-1.95.23-1.19.02-2.25.08-2.62-1.09a.11.11 0 0 1 .07-.14h.06ZM8 30.2a.08.08 0 0 1 .05-.09h.04c1.78.22 3.53.35 5.25.37a.37.37 0 0 1 .35.3 2.03 2.03 0 0 0 .33.7.05.05 0 0 1-.04.06c-1.54.39-3.05.37-4.51-.06-.61-.18-1.33-.63-1.47-1.27ZM18.07 31.34c-.92.24-3.67 1.05-3.9-.32a.1.1 0 0 1 .06-.11.1.1 0 0 1 .04-.01c.89-.03 1.87.03 2.65-.12.5-.1.85-.13 1.08-.13.08 0 .16.04.22.1a.35.35 0 0 1-.15.6ZM18.47 34.99a.08.08 0 0 1-.07-.06.08.08 0 0 1 .02-.08l.79-.8a.23.23 0 0 1 .28-.03l.43.25a.13.13 0 0 1 .07.1.13.13 0 0 1-.05.12c-.45.35-.93.52-1.47.5ZM39.53 25.26l-1.08.3c-.37.1-.72.22-1.05.36-.66.27-.98.77-.97 1.5.03 1.83.05 3.5-.43 5.15a.1.1 0 0 0 .05.11.1.1 0 0 0 .12 0 3.54 3.54 0 0 0 1.02-1.53c.08-.49.19-1.22.3-2.2.14-1.12.53-1.78 1.54-2.15.91-.33 1.97-.69 3.17-1.07 1.11-.36 2.49-.77 2.37-2.28a.1.1 0 0 0-.05-.08.1.1 0 0 0-.1 0 35.7 35.7 0 0 1-4.9 1.89ZM37.36 32.07c.82.4 1.66.63 2.51.69.42 0 .72-.15.92-.46a.16.16 0 0 0 0-.15.15.15 0 0 0-.13-.08 9.12 9.12 0 0 1-2.98-.55.24.24 0 0 0-.1.03c-.19.1-.27.27-.22.52ZM41.07 32.85c.73.23 1.49.32 2.27.27.45 0 .87-.16 1.25-.5a.19.19 0 0 0-.09-.32l-2.65-.41a.43.43 0 0 0-.2.01c-.36.11-.6.38-.7.8 0 .03 0 .07.02.1a.2.2 0 0 0 .1.05ZM37.12 32.23c-.2.16-.29.32-.28.48.52.3 1.07.52 1.65.67.34.1.7.04 1.07-.15a.1.1 0 0 0 .06-.1.1.1 0 0 0-.07-.09l-2.43-.81ZM36.55 32.84a.58.58 0 0 0-.27.18.14.14 0 0 0-.03.1l.04.07c.29.28.63.47 1.02.59.3.1.63.11 1 0a.1.1 0 0 0 .08-.1.1.1 0 0 0-.08-.1l-1.76-.74ZM40.07 33.16a.75.75 0 0 0-.26.16.14.14 0 0 0-.03.12.14.14 0 0 0 .06.1c.72.44 1.49.6 2.3.5.24-.04.4-.11.5-.23a.12.12 0 0 0-.05-.2l-1.82-.6c-.24-.01-.48.04-.7.15ZM40.92 34.55l.04-.1-1.42-.81a.4.4 0 0 0-.34-.03l-.62.24a.1.1 0 0 0-.06.09.1.1 0 0 0 .04.1c.62.46 1.64.94 2.36.5ZM37.3 33.96c-.1.08-.09.18.04.3.2.19.42.35.64.5.35.18.73.26 1.13.23a.12.12 0 0 0 .1-.08.12.12 0 0 0-.04-.13l-.75-.62a.36.36 0 0 0-.17-.08l-.94-.12ZM44.51 26.1l2.7-.78c1.9-.58 5.02-1.6 4.78-4.2a.14.14 0 0 0-.15-.12c-.02 0-.05 0-.07.02a20 20 0 0 1-6.45 2.7.51.51 0 0 0-.37.32l-.39.99a.52.52 0 0 0-.03.11l-.1.89v.03a.06.06 0 0 0 .05.04h.03Z"/><path d="M51.95 23.84a.1.1 0 0 0-.12-.1.1.1 0 0 0-.05.02l-.9.71a.86.86 0 0 1-.2.12c-1.08.46-1.93.77-2.55.94a4633.08 4633.08 0 0 0-4.1 1.13.1.1 0 0 0-.01.05l-.2 1.36a.03.03 0 0 0 0 .02h.02c1.77-.22 3.44-.58 5.01-1.07 1.49-.47 3.25-1.36 3.1-3.18ZM38.22 28.31c1.44-.08 2.8-.33 4.05-.75.9-.3 1.8-1.1 1.8-2.15a.11.11 0 0 0-.17-.1c-.3.2-.66.37-1.1.54l-3.4 1.13c-.61.2-1.04.58-1.3 1.14a.14.14 0 0 0 0 .13.13.13 0 0 0 .12.06ZM50.6 27.03c-.56.2-1.22.47-1.83.61-1.46.35-3.06.63-4.8.84-.5.06-.79.34-.83.9 0 .18-.08.37-.2.56a.07.07 0 0 0 .05.1c1.62.03 3.17-.1 4.66-.43.7-.15 1.35-.4 1.96-.76.6-.36 1-.9 1.18-1.64a.15.15 0 0 0-.04-.14.15.15 0 0 0-.15-.04ZM43.45 27.58a.09.09 0 0 0-.03-.09.08.08 0 0 0-.09 0c-.6.37-1.25.6-1.97.7-1.31.2-2.35.35-3.13.45a.31.31 0 0 0-.17.09.32.32 0 0 0-.1.17l-.04.32a.19.19 0 0 0 .04.15.18.18 0 0 0 .14.06c1.77-.05 4.76.54 5.35-1.85Z"/><path d="M42.58 29.42c-.63.17-.93.28-1.46.3-.95.04-1.94.04-2.97-.02a.3.3 0 0 0-.22.08.3.3 0 0 0-.1.22v.1c0 .08.04.16.1.22.05.06.13.1.21.1.66.04 1.3.22 1.95.23 1.19.02 2.25.08 2.62-1.09a.11.11 0 0 0-.07-.14h-.06ZM48 30.2a.08.08 0 0 0-.02-.07.08.08 0 0 0-.07-.03c-1.78.23-3.53.36-5.25.38a.37.37 0 0 0-.35.3 2.03 2.03 0 0 1-.33.7.05.05 0 0 0 .04.06c1.54.39 3.05.37 4.51-.06.61-.18 1.33-.63 1.47-1.27ZM37.93 31.34c.92.24 3.67 1.05 3.9-.32a.1.1 0 0 0-.02-.09.1.1 0 0 0-.08-.03c-.89-.03-1.87.03-2.65-.12-.5-.1-.85-.13-1.08-.13a.35.35 0 0 0-.08.69ZM37.53 34.99a.08.08 0 0 0 .07-.1.08.08 0 0 0-.02-.04l-.79-.8a.23.23 0 0 0-.28-.03l-.43.25a.13.13 0 0 0-.07.1.13.13 0 0 0 .05.12c.45.35.93.52 1.47.5Z"/><path d="m21.15 20.45-.08-.17.96-.45.07.16-.38.18.5 1.1-.19.09-.5-1.1-.38.19ZM22.72 21.04l-.37-.97.18-.07.06.15c0-.06.02-.12.05-.16a.28.28 0 0 1 .14-.11.85.85 0 0 1 .08-.03l.07.18-.05.01a.4.4 0 0 0-.06.02.26.26 0 0 0-.1.08.23.23 0 0 0-.04.23l.23.6-.19.07ZM23.68 21.1a.4.4 0 0 1-.14.01v-.17c.04 0 .07 0 .1-.02a.12.12 0 0 0 .06-.05.25.25 0 0 0 .02-.12v-.07l-.67-.89.2-.06.5.68v-.85l.2-.07-.04 1.26c0 .06 0 .11-.03.15a.3.3 0 0 1-.07.12.35.35 0 0 1-.13.07ZM24.49 20.43l-.3-1.36.2-.04.13.59.66-.16-.13-.59.2-.04.3 1.35-.2.05-.13-.6-.67.16.14.6-.2.04ZM26.14 20.1a.4.4 0 0 1-.18 0 .3.3 0 0 1-.13-.1.31.31 0 0 1-.07-.16c-.01-.06 0-.1.01-.15a.25.25 0 0 1 .08-.1.46.46 0 0 1 .12-.07l.13-.04.15-.04a.22.22 0 0 0 .08-.04l.02-.05c-.01-.07-.04-.1-.07-.14-.04-.02-.09-.03-.15-.03a.25.25 0 0 0-.15.07.25.25 0 0 0-.07.11l-.19-.01a.37.37 0 0 1 .21-.28.57.57 0 0 1 .3-.05c.05 0 .1.01.14.03.04.02.08.06.11.1.03.04.05.1.06.18l.1.68-.2.03-.01-.14h-.01a.29.29 0 0 1-.14.16.38.38 0 0 1-.14.05Zm.02-.16c.06 0 .1-.03.14-.05a.23.23 0 0 0 .09-.22l-.02-.13-.04.02a.65.65 0 0 1-.13.05l-.06.02a.49.49 0 0 0-.1.03.18.18 0 0 0-.07.07.13.13 0 0 0-.02.09c0 .05.03.08.07.1.04.02.09.03.14.02ZM26.92 19.98l-.08-1.04.2-.01v.16h.01c.02-.06.05-.1.1-.14.04-.03.09-.06.15-.06a.79.79 0 0 1 .08 0l.02.2-.04-.01a.4.4 0 0 0-.07 0 .26.26 0 0 0-.12.04.23.23 0 0 0-.1.21l.05.64-.2.01ZM28 19.95a.39.39 0 0 1-.22-.06.44.44 0 0 1-.15-.18.7.7 0 0 1-.06-.3c0-.1.01-.2.05-.28a.43.43 0 0 1 .15-.19.4.4 0 0 1 .22-.06c.06 0 .12 0 .15.03l.1.07.05.08v-.52h.2l.02 1.39h-.2v-.16h-.02a.53.53 0 0 1-.05.07.29.29 0 0 1-.24.11Zm.04-.17c.06 0 .1-.02.15-.05a.29.29 0 0 0 .09-.13.54.54 0 0 0 .02-.2.54.54 0 0 0-.03-.18.28.28 0 0 0-.09-.13.23.23 0 0 0-.14-.04.23.23 0 0 0-.15.05.3.3 0 0 0-.1.13.54.54 0 0 0-.02.18c0 .07.01.14.03.2.02.05.05.09.1.12.03.03.08.05.14.05ZM30 18.63l.2.02-.1.99c0 .08-.03.16-.07.22-.04.06-.1.1-.16.13a.46.46 0 0 1-.22.02.48.48 0 0 1-.2-.06.34.34 0 0 1-.13-.14.36.36 0 0 1-.03-.2l.2.02c0 .04 0 .07.02.1.01.03.03.06.06.07l.1.04a.2.2 0 0 0 .12-.02.18.18 0 0 0 .07-.07.33.33 0 0 0 .04-.14l.1-.98ZM30.65 20.15a.41.41 0 0 1-.16-.06.3.3 0 0 1-.1-.13.32.32 0 0 1-.03-.18c.01-.06.03-.1.06-.14a.24.24 0 0 1 .1-.07.46.46 0 0 1 .14-.03h.14a49.52 49.52 0 0 0 .24 0c.02-.01.03-.03.03-.05.01-.06 0-.11-.02-.15-.03-.04-.07-.06-.14-.07a.25.25 0 0 0-.16.02.24.24 0 0 0-.1.08l-.17-.07a.36.36 0 0 1 .28-.2.56.56 0 0 1 .3.04c.05.02.08.04.12.08a.3.3 0 0 1 .08.12c.02.05.02.12 0 .2l-.1.68-.2-.04.03-.14h-.01a.29.29 0 0 1-.18.11h-.15Zm.07-.15.15-.01a.23.23 0 0 0 .15-.18l.02-.13-.04.01H30.69a.18.18 0 0 0-.1.04.13.13 0 0 0-.03.09c-.01.04 0 .09.03.12s.08.05.13.06ZM31.33 20.65l.36-1.38.18.05-.04.16h.02a.56.56 0 0 1 .06-.06.28.28 0 0 1 .11-.05l.16.01a.4.4 0 0 1 .2.12c.05.06.08.13.1.22.01.08 0 .18-.02.3-.03.1-.07.19-.13.26a.43.43 0 0 1-.19.14.38.38 0 0 1-.23 0 .3.3 0 0 1-.21-.17.57.57 0 0 1-.03-.08l-.14.53-.2-.05Zm.42-.83a.55.55 0 0 0-.02.2.23.23 0 0 0 .18.23c.06.01.11 0 .16-.01a.3.3 0 0 0 .12-.1c.03-.06.06-.11.08-.18a.53.53 0 0 0 .01-.19c0-.06-.02-.1-.05-.15a.24.24 0 0 0-.14-.08.23.23 0 0 0-.15 0 .27.27 0 0 0-.12.1.53.53 0 0 0-.07.18ZM32.84 20.7a.42.42 0 0 1-.16-.09.3.3 0 0 1-.08-.14.32.32 0 0 1 0-.18c.03-.05.05-.1.09-.13a.24.24 0 0 1 .11-.05 1.24 1.24 0 0 1 .28.02c.06 0 .1.02.14.03h.09c.02 0 .03-.02.04-.04a.19.19 0 0 0 0-.15c-.02-.04-.06-.08-.12-.1a.25.25 0 0 0-.17 0 .24.24 0 0 0-.1.06l-.17-.1a.36.36 0 0 1 .31-.14.57.57 0 0 1 .4.18.3.3 0 0 1 .06.13c0 .06 0 .12-.02.2l-.22.65-.18-.07.04-.13a.3.3 0 0 1-.2.08c-.04 0-.09 0-.14-.03Zm.09-.14c.05.02.1.03.14.02a.23.23 0 0 0 .18-.15l.04-.13h-.04a.65.65 0 0 1-.15-.02 6 6 0 0 0-.17-.02c-.03 0-.06 0-.08.02a.13.13 0 0 0-.06.08.13.13 0 0 0 .02.12c.03.04.07.07.12.08ZM34 20.46l-.23.57-.18-.08.4-.96.17.08-.06.16h.01c.04-.04.1-.07.15-.08.06 0 .13 0 .2.03.06.03.11.07.15.12.03.05.05.1.06.17 0 .06-.01.14-.05.22l-.25.6-.18-.08.24-.58a.26.26 0 0 0 .02-.19.2.2 0 0 0-.12-.12.24.24 0 0 0-.13-.02.21.21 0 0 0-.11.04.3.3 0 0 0-.08.12Z" fill="#fff"/><path d="m22.5 33.94.22.65h.72l-.58.41.22.66-.58-.4-.59.4.23-.66-.59-.4h.72l.23-.66ZM33.5 33.94l-.22.65h-.72l.59.41-.23.66.59-.4.58.4-.22-.66.58-.4h-.72l-.22-.66ZM24.43 35.42l.22.66h.72l-.58.4.22.66-.58-.4-.59.4.23-.66-.59-.4h.72l.23-.66ZM31.57 35.42l-.22.66h-.72l.58.4-.22.66.58-.4.59.4-.23-.66.59-.4h-.72l-.23-.66ZM26.8 36.28l.21.66h.72l-.58.4.22.66-.58-.4-.58.4.22-.66-.58-.4h.72l.22-.66ZM29.2 36.28l-.21.66h-.72l.58.4-.22.66.58-.4.58.4-.22-.66.58-.4h-.72l-.22-.66Z"/><path d="M28 22c4.42 0 8 3.54 8 7.9a7.8 7.8 0 0 1-1.2 4.18l-.8-.44a6.92 6.92 0 0 0 1.1-3.73A7.05 7.05 0 0 0 28 22.9a7.05 7.05 0 0 0-7.1 7.01c0 1.37.4 2.65 1.1 3.72l-.8.45A7.8 7.8 0 0 1 20 29.9c0-4.37 3.58-7.91 8-7.91Z"/></svg>