<!-- by TradingView --><svg width="56" height="56" viewBox="0 0 56 56" xmlns="http://www.w3.org/2000/svg"><path fill="#F0F3FA" d="M0 0h56v56H0z"/><path fill-rule="evenodd" d="M45 25.54v.1l-2.17 8.1c0 .01-.01.02-.03.01l-.77-.25c-.01 0-.03 0-.03.02v4.49c0 .02 0 .03-.02.04L28.02 44h-.04l-13.94-5.95c-.02-.01-.04-.02-.04-.04v-4.5c0-.01 0-.01 0 0l-.8.24c-.01 0-.02 0-.03-.02L11 25.62c0-.05 0-.08.05-.1 1-.36 1.87-.62 2.92-.91.02 0 .03-.02.03-.04v-6.51c0-.02 0-.03.02-.04L28 12h.03l13.96 6 .02.02v6.53a39.4 39.4 0 0 1 3 1Zm-17-2.16c5.73 0 11.17.86 16.31 2.59.02 0 .03.02.03.04l-1.88 7.02c0 .03-.02.03-.04.03a50.65 50.65 0 0 0-12.25-1.96c-.31-.03-1.03-.04-2.17-.04a36.08 36.08 0 0 0-3.17.1 50.7 50.7 0 0 0-11.24 1.9c-.02 0-.04 0-.04-.03l-1.88-7.02c0-.02 0-.04.02-.04A51.08 51.08 0 0 1 28 23.38Zm12-.42H40a14.5 14.5 0 0 0-5.23-4.1 13.63 13.63 0 0 0-10.8-.29 14.29 14.29 0 0 0-4.3 2.68v.02h.01a11.27 11.27 0 0 1 4.94-2.46 8.99 8.99 0 0 1 5.68.7c1.64.77 3.16 1.95 4.55 3.55.03.04.08.07.15.08 2.02.26 4.01.64 5.98 1.13.02 0 .03 0 .03-.02v-5.28c0-.02 0-.04-.03-.04L28.01 13.2h-.03l-12.94 5.7a.06.06 0 0 0-.04.07v5.27c0 .03.01.04.04.03l.9-.24c.03 0 .06-.02.06-.05v-4.14c0-.02 0-.03.02-.04l11.94-5.35a.1.1 0 0 1 .08 0l11.95 5.35.01.03V22.97Z" fill="#2277C2"/><path d="M19.26 20.13c.02 0 .09.35.2 1.05 0 .02 0 .02.03.01l.28-.2h.02l.01.02v.02l-.19.28c-.01.02 0 .03.02.04l.96.16c.12.02.12.04 0 .06l-.87.15a.08.08 0 0 0-.06.04.08.08 0 0 0 0 .08l.14.24v.01h-.01l-.18-.11a.06.06 0 0 0-.06-.01c-.08.04-.12.08-.13.12-.09.57-.14.86-.16.86-.02 0-.07-.29-.16-.86 0-.04-.05-.08-.13-.12a.06.06 0 0 0-.06 0l-.18.12h-.01v-.01l.14-.24a.07.07 0 0 0 0-.08.08.08 0 0 0-.06-.04l-.87-.15c-.12-.02-.12-.04 0-.06l.96-.16c.03 0 .03-.02.02-.04l-.19-.28V21h.03l.28.2c.02 0 .04 0 .04-.02.1-.7.17-1.05.2-1.05Z" fill="#fff"/><path d="m27.1 28.73-.04-4.18c0-.02.01-.04.03-.04h.8l.01.01a379.06 379.06 0 0 0 .06 4.44c.01.1.05.18.13.24.06.05.14.08.24.1.09 0 .18-.01.26-.05.09-.04.15-.1.19-.18.03-.08.05-.23.05-.45 0-1.17-.02-2.53-.05-4.1 0-.02.01-.03.03-.03h.76c.03 0 .04.01.04.04 0 1.28.02 2.57.04 3.89 0 .26 0 .47-.03.63a1.12 1.12 0 0 1-1.08 1c-.47.04-.82-.06-1.06-.28-.25-.23-.38-.58-.39-1.04Z" fill="#02822F"/><path d="M20.96 26.9h.02l.32-2.03c0-.02.01-.03.03-.03l.77-.1c.01 0 .02 0 .02.02L21.48 28v.05l.3 2.23c0 .02-.01.03-.03.03l-.78.1c-.03.01-.04 0-.04-.02l-.28-2.23a.3.3 0 0 0-.03-.1l-1.38-2.92.01-.03.83-.1c.02 0 .04 0 .04.02a170.11 170.11 0 0 1 .84 1.88ZM17.7 28.55c-.03-.06-.05-.06-.07 0l-.13.52a.77.77 0 0 0 0 .36l.3 1.48c0 .02 0 .03-.02.03l-.77.17c-.02 0-.03 0-.03-.02l-1.1-5.31c0-.02 0-.03.02-.04l.77-.16c.02 0 .03 0 .03.02l.45 2.16c.02.07.03.07.05 0l.58-2.4.02-.01.8-.17v.01l-.54 2c-.03.1-.03.18 0 .24l1.67 3.08c0 .02 0 .03-.02.03l-.8.17c-.03 0-.04 0-.05-.02l-1.15-2.14Z" fill="#2277C2"/><path d="M25.01 30.13c.24.02.5-.02.77-.11.02-.01.04 0 .05.02.07.2.2.33.37.4.12.03.3.04.56.03.02 0 .03-.01.03-.03l-.07-.72c0-.03-.01-.04-.04-.03-.16.04-.29.02-.39-.07-.02-.01-.02-.03-.01-.05.13-.26.19-.52.17-.8-.03-.63-.1-1.62-.2-2.99-.02-.4-.14-.72-.36-.94a1.18 1.18 0 0 0-.95-.33c-.73.03-1.15.36-1.25 1-.03.14-.03.36-.01.64l.18 2.66c.02.4.12.7.3.92.2.25.48.38.85.4Zm-.1-4.86h.03c.24-.02.45.17.46.41l.22 3.22a.44.44 0 0 1-.41.46h-.03a.44.44 0 0 1-.47-.4l-.21-3.22a.44.44 0 0 1 .4-.47Z" fill="#02822F"/><path fill-rule="evenodd" d="m30.83 29.96.21-1.03.02-.01.96.06.01.02.1 1.05.02.02.8.05s.02 0 .01-.02l-.52-5.49-.01-.01-1.12-.08c-.01 0-.02 0-.02.02l-1.24 5.37.01.02.75.05c.01 0 .02 0 .02-.02Zm.97-4.35c0-.06-.01-.09-.03-.1-.02 0-.04.04-.05.1a107.93 107.93 0 0 1-.5 2.58 6.36 6.36 0 0 0 .77.03l-.19-2.6ZM36.15 28.74c.05-.53-.09-.88-.42-1.04l-.01-.02c0-.01 0-.02.02-.02a.89.89 0 0 0 .53-.5c.07-.16.13-.41.17-.75.03-.3.03-.52 0-.67-.1-.42-.38-.68-.85-.77-.34-.07-.84-.13-1.48-.2-.02 0-.03 0-.03.03l-.67 5.37c0 .02 0 .03.02.03l.79.1c.01 0 .02 0 .03-.02l.28-2.28c0-.02.01-.03.03-.03.29.01.49.06.6.15.12.1.17.3.14.58l-.14 1.2c-.02.14-.03.28-.02.43 0 .06.03.09.09.1l.77.1c.01 0 .02-.01.01-.02a1.85 1.85 0 0 1 0-.59l.14-1.18Zm-1.28-3.11c-.03 0-.04 0-.05.03l-.19 1.5c0 .03.01.04.04.05l.34.04c.13.02.24-.02.34-.1.1-.08.16-.19.18-.32l.08-.62a.48.48 0 0 0-.1-.36.43.43 0 0 0-.3-.18l-.34-.04Z" fill="#02822F"/><path d="M41.63 28.24h.02l1.07-1.74c0-.02.02-.02.04-.02l.74.2c.02 0 .02.02.01.03l-1.81 2.74a.17.17 0 0 0-.03.05l-.58 2.17c0 .02-.02.03-.04.02l-.76-.2c-.02-.01-.03-.02-.02-.05l.6-2.16v-.1l-.16-3.24c0-.01 0-.02.02-.02l.81.22c.02 0 .03.02.03.04a173.54 173.54 0 0 1 .06 2.06Z" fill="#02822F"/><path d="M14.35 30.18c.07.29.14.48.21.59.13.18.32.21.57.1.18-.07.25-.23.21-.47-.04-.3-.17-.54-.4-.74a3.6 3.6 0 0 0-.71-.43l-.4-.2c-.6-.36-.93-.87-.99-1.53-.03-.34.05-.63.22-.85.17-.22.42-.37.76-.45.6-.15 1.06.04 1.36.57.07.13.14.33.2.62.01.02 0 .03-.01.04l-.73.2c-.01 0-.02 0-.02-.02a1.64 1.64 0 0 0-.18-.5c-.1-.16-.26-.21-.46-.16-.21.06-.32.2-.3.41 0 .29.13.54.36.75.14.12.4.27.76.46.3.15.5.27.62.35.55.42.8 1.01.76 1.79-.01.15-.08.3-.2.48-.12.17-.3.3-.53.4-.2.08-.42.12-.65.13a.98.98 0 0 1-.84-.41 2.37 2.37 0 0 1-.37-.91c0-.02 0-.04.02-.04l.72-.2c.01 0 .02 0 .02.02Z" fill="#2277C2"/><path fill-rule="evenodd" d="M39.32 29.38c.1-.52 0-.88-.32-1.07l-.02-.02.02-.02a.88.88 0 0 0 .58-.45c.08-.15.15-.4.22-.74.06-.29.07-.5.05-.66-.06-.43-.32-.71-.78-.84-.34-.1-.82-.2-1.46-.32-.01 0-.03 0-.03.03l-1.1 5.3c0 .02 0 .03.02.03l.78.16c.01 0 .02 0 .03-.02l.46-2.25.03-.02c.3.04.48.1.58.2.13.11.16.3.1.58 0 .05-.08.45-.24 1.19-.03.14-.04.28-.05.43 0 .05.03.09.08.1l.76.16c.02 0 .02 0 .02-.02-.02-.18 0-.38.03-.58.11-.51.2-.9.24-1.17Zm-1.03-3.2c-.02 0-.03 0-.04.02l-.31 1.5c0 .02 0 .03.02.03l.36.08a.46.46 0 0 0 .54-.37l.13-.63a.46.46 0 0 0-.06-.36.43.43 0 0 0-.29-.2l-.35-.07Z" fill="#02822F"/><path d="M40 32.99v1.67l-1.65-.33a54.21 54.21 0 0 0-22.35.34V33a54.3 54.3 0 0 1 24 0Z" fill="#11B046"/><path d="M15.99 32.99v3.16c0 .02 0 .04.03.05l1.46.65 10.5 4.7H28l10.49-4.7 1.48-.66c.02 0 .03-.02.03-.04l-.01-1.5V33l.96.22c.03.01.04.03.04.06V37c0 .04-.02.07-.06.08l-12.91 5.7h-.06l-12.94-5.7a.05.05 0 0 1-.03-.05v-3.78c0-.02.01-.04.03-.04l.96-.23Z" fill="#fff"/><path d="M40 34.66v1.49c0 .02-.01.04-.03.04l-1.48.67a1.57 1.57 0 0 1-.18-.04 53.04 53.04 0 0 0-6.18-.84 54.7 54.7 0 0 0-14.64.87l-1.46-.65a.05.05 0 0 1-.03-.05v-1.48a54.21 54.21 0 0 1 22.35-.34l1.65.33Z" fill="#02822F"/><path d="m38.5 36.86-10.49 4.7h-.03l-10.5-4.71.22-.04.21-.05a54.83 54.83 0 0 1 20.59.1Z" fill="#033"/></svg>