<!-- by TradingView --><svg width="56" height="56" viewBox="0 0 56 56" xmlns="http://www.w3.org/2000/svg"><path fill="#F0F3FA" d="M0 0h56v56H0z"/><path d="M35.26 13.22c1.12.6 2.17 1.3 3.15 2.08.34.27.56.61.67 1.02a15.04 15.04 0 0 0-5.47-3.23l-2.32-.79a6.8 6.8 0 0 0-1.46-.15c.72-.19 1.41-.2 2.08-.03 1.04.27 2.16.63 3.35 1.1Z" fill="#98F5FC"/><path d="m29.16 12.16-.38.34h-.24c-.84-.13-1.82.03-3.33.26a.36.36 0 0 0-.1.03l-2.27 1.05a.37.37 0 0 0-.1.06l-.91.81a.33.33 0 0 1-.06.04L19 16.35l.9-1.35c.18-.17.44-.34.79-.5.1-.03.19-.1.25-.19a.7.7 0 0 1 .52-.3c.04 0 .08-.02.1-.05a.16.16 0 0 0 .05-.1v-.15c0-.04.01-.09.04-.12a.21.21 0 0 1 .1-.08c1.74-.68 3.05-1.1 3.93-1.28.96-.2 2.13-.22 3.49-.07Z" fill="#A5A697"/><path d="M29.82 12.15c.78.03 1.26.08 1.47.15l2.32.79c2.04.68 3.86 1.76 5.47 3.23L40.63 18c-.08.03-.16 0-.23-.09a.08.08 0 0 0-.08-.02.08.08 0 0 0-.06.07v.18a16.61 16.61 0 0 0-2.78-2.63 58.02 58.02 0 0 0-3.09-1.72l-2.68-.86a2.34 2.34 0 0 0-.44-.1l-2.49-.32.38-.34h.66Z" fill="#32BCCC"/><path d="m28.54 12.5-.2.38a9.65 9.65 0 0 0-4.44.9c-.3.15-.85.5-1.65 1.06-.53.38-1.1.71-1.69 1-.44.22-1.27.94-2.48 2.16a14.18 14.18 0 0 0-4.65 8.42c-.18-.08-.3-.25-.36-.5.23-1.62.77-3.12 1.6-4.52.7-1.16 1.29-2.03 1.79-2.6.47-.54 1.31-1.35 2.53-2.44l2.78-1.61a.32.32 0 0 0 .06-.04l.92-.8a.36.36 0 0 1 .09-.07l2.26-1.05a.36.36 0 0 1 .1-.03c1.52-.23 2.5-.39 3.34-.26Z" fill="#FBFBF9"/><path d="m28.78 12.5 2.5.32c.14.02.29.05.43.1l2.68.86a58.06 58.06 0 0 1 3.09 1.72c.8.56 1.73 1.43 2.78 2.63a15.1 15.1 0 0 1 2.65 8.6l-.2 2.45c-.04.2-.09.36-.17.5-.09-.07-.2-.07-.33 0 .29-1.2.4-2.39.35-3.56-.1-2.74-.9-5.23-2.44-7.47-.91-1.2-1.81-2.1-2.71-2.7a27.52 27.52 0 0 0-3.09-1.79 5.18 5.18 0 0 0-1.45-.46 7.49 7.49 0 0 0-2.52-.47c-.42-.15-.73-.2-.94-.13-.3-.15-.66-.22-1.07-.22l.2-.38h.24Z" fill="#98F5FC"/><path d="M28.34 12.88c.41 0 .76.07 1.07.22l-3.7.55c-.1.01-.2.05-.3.09-2.23 1.06-4.5 2.22-6.18 4.12l-1.6 1.8.45-1.66a13.03 13.03 0 0 1 2.48-2.16c.6-.29 1.16-.62 1.7-1 .79-.56 1.34-.91 1.64-1.05a9.65 9.65 0 0 1 4.44-.9Z" fill="#8C887C"/><path d="m30.35 13.23-2.55.53-2.2.33c-.38.05-.82.3-1.34.73-.06.05-.13.1-.2.13-2.99 1.62-5.25 3.57-6.93 6.5A14.28 14.28 0 0 0 15.7 32.4c.45 1.74 1.11 3.2 2 4.38a23.28 23.28 0 0 0 2.43 2.84 9.97 9.97 0 0 0 4.45 2.4l2.79.73.1.04.7.36a.1.1 0 0 1 .06.1.1.1 0 0 1-.06.1c-.1.02-.24.04-.44.02l-2.89-.71a13.56 13.56 0 0 1-2.78-.91 14.23 14.23 0 0 1-7.1-10.06c-.29-1.75-.39-3.12-.3-4.13.2-2.79 1.2-5.42 2.95-7.9.55-.6 1.09-1.2 1.61-1.8 1.67-1.91 3.95-3.07 6.18-4.13.1-.04.2-.08.3-.1l3.7-.54c.2-.06.52-.02.94.13Z" fill="#FBFBF9"/><path d="M30.35 13.23c.86.01 1.7.17 2.52.47l3.08 2.53a11.92 11.92 0 0 0-3.76-1.54 5.08 5.08 0 0 0-1.55-.16c-1.12.07-2.29.3-3.5.68 0-.23-.07-.44-.2-.63l.32-.26c.36-.08.54-.27.54-.57l2.55-.52Z" fill="#018AA8"/><path d="m40.12 18.65.18 2.22a11.95 11.95 0 0 0-4.35-4.64l-3.08-2.53c.53.1 1.01.24 1.45.46a27.5 27.5 0 0 1 3.09 1.8c.9.6 1.8 1.5 2.7 2.69Z" fill="#0C9DB5"/><path d="M27.8 13.75c0 .3-.18.5-.54.57.02-.07.01-.12-.02-.16-.02-.04-.07-.06-.14-.05-.75.1-1.5.29-2.27.58a.72.72 0 0 0-.25.15c-.43.42-.96.82-1.58 1.2-.61.37-1.15.78-1.61 1.22a14.45 14.45 0 0 0-2.89 3.86 2.5 2.5 0 0 1-1.37.33c1.68-2.94 3.94-4.88 6.93-6.5.07-.03.14-.08.2-.13.52-.44.96-.68 1.34-.73.73-.1 1.46-.21 2.2-.34Z" fill="#7B7E75"/><path d="m27.26 14.32-.33.26c-.38.13-.73.34-1.04.62-1.43 1.27-2.87 2.54-3.52 4.44-.6 1.14-.98 2.02-1.12 2.64-.97 4.24-.03 7.88 2.84 10.91.2.21.42.4.66.56.67.45 1.07.8 1.82 1.17 1.4.7 2.87 1.08 4.42 1.16.51-.01.93.04 1.25.17 1.23.14 2.4-.05 3.52-.58a8.97 8.97 0 0 0 4.82-5.24l.22-.54c.1.06.17.09.24.09 0 .08-.01.17-.05.27a10.95 10.95 0 0 1-2.9 4.41 9.05 9.05 0 0 1-4.78 2.2l-1.41-.06a58.4 58.4 0 0 1-3.59-.52 12.34 12.34 0 0 1-3.03-1.4.18.18 0 0 0-.15.07.2.2 0 0 0-.05.07.32.32 0 0 0 .12.36l2.11 1.53c.67.47 1.65.82 2.96 1.05l1.73-.02c1.91.14 3.67-.3 5.26-1.3a10.87 10.87 0 0 0 4.75-6.21l.2-.75c.13-.07.24-.07.33 0-1 3.89-3.29 6.64-6.88 8.26l-1.95.62c-1.4.16-2.5.14-3.26-.07-.94-.26-1.9-.54-2.84-.84-.44-.27-.86-.55-1.3-.84-1.02-.7-1.89-1.63-2.82-2.48-3.02-3.16-3.77-7.87-2.82-12.02.2-.9.48-1.44.9-2.45a.12.12 0 0 0 0-.08.12.12 0 0 0-.06-.07.11.11 0 0 0-.15.04 16.13 16.13 0 0 0-1.8 4c-1.44 5.2.75 10.7 5.16 13.69a9.34 9.34 0 0 0 3.82 2c1.2.22 2.5.55 3.65.49a9.8 9.8 0 0 0 3.16-.7 5.94 5.94 0 0 0 1.86-.93 12.8 12.8 0 0 0 3.52-2.9l.32.03a14.25 14.25 0 0 1-4.39 3.83 14.72 14.72 0 0 1-3.67 1.16c-1.48.21-3.16.04-5.04-.51a13.49 13.49 0 0 1-4.52-2.29 14.66 14.66 0 0 1-4.84-8.96c-.16-1.69-.07-3.18.28-4.47a20 20 0 0 1 1.84-4.4c.5-.93 1-1.58 1.46-1.95a18.77 18.77 0 0 0 1.55-1.45.1.1 0 0 0-.02-.07.1.1 0 0 0-.1-.03 14.94 14.94 0 0 0-6.15 9.2c-.42 2.12-.32 4.19.28 6.2.9 3.03 2.7 5.28 5.08 7.3 1.21.8 2.53 1.45 3.94 1.94 1.88.67 3.8.95 5.8.84.33-.02 1.08-.2 2.25-.52.2.12.33.25.41.4a9.95 9.95 0 0 1-4.82.75 21.2 21.2 0 0 1-4.62-1.15c-1.66-.63-3.06-1.16-4.32-2.3a14.65 14.65 0 0 1-4.82-9.67c-.26-2.8.37-5.52 1.87-8.16.75-1.45 1.71-2.73 2.89-3.86.46-.44 1-.85 1.61-1.22a9.06 9.06 0 0 0 1.58-1.2.73.73 0 0 1 .25-.15c.76-.3 1.52-.49 2.27-.58.07-.01.12 0 .14.05.03.04.04.1.02.16Z" fill="#FBFBF9"/><path d="M32.19 14.69c-.19-.03-.3.06-.34.25l-.36.03c-1.4-.15-2.76 0-4.05.45l-1.76.56h-.05a.07.07 0 0 1-.03-.02l-.06-.08a.03.03 0 0 1 .02-.04l1.58-.63c1.21-.38 2.38-.6 3.5-.68.48-.03 1 .02 1.55.16Z" fill="#32BCCC"/><path d="M26.93 14.58c.14.2.21.4.21.63l-1.58.63a.03.03 0 0 0-.02.02v.03l.06.07.03.03h.04l1.77-.57c.04.57-.22 1.07-.77 1.48l-.36.15a19.03 19.03 0 0 0-3.3 2.05.1.1 0 0 0-.02.14.1.1 0 0 0 .06.04.1.1 0 0 0 .07-.01 20.1 20.1 0 0 1 3.4-2.01c1.05-.35 2.14-.6 3.25-.72 0 .52-.16.99-.45 1.4a8.44 8.44 0 0 0-5.48 2.72 2.3 2.3 0 0 0-1.47-1.02c.65-1.9 2.09-3.17 3.52-4.44.31-.28.66-.49 1.04-.62Z" fill="#022B52"/><path d="M32.19 14.69c1.32.28 2.57.8 3.76 1.54a11.95 11.95 0 0 1 4.35 4.64 12.87 12.87 0 0 1 1.29 5.03c.08 1.3-.07 2.58-.45 3.84l-.1.24a.53.53 0 0 1-.25-.09c.4-1.32.56-2.69.45-4.1-.26-5.5-4.14-9.68-9.39-10.85.04-.2.15-.28.34-.25Z" fill="#98F5FC"/><path d="M31.5 14.97c-.12.48-.3.87-.58 1.17-1.44.04-2.86.3-4.25.76.55-.41.81-.9.77-1.48 1.3-.45 2.65-.6 4.05-.45Z" fill="#015879"/><path d="M31.85 14.94c5.25 1.17 9.13 5.35 9.39 10.84l-.42.75c-.11.18-.25.23-.42.17a.16.16 0 0 0-.2.07.66.66 0 0 0-.07.27c.12-2.51-.53-4.78-1.97-6.8a8.6 8.6 0 0 0-2.52-2.43 13.16 13.16 0 0 0-4.72-1.67c.27-.3.46-.69.57-1.17l.36-.03Z" fill="#018AA8"/><path d="m19.89 15-.9 1.36a32.9 32.9 0 0 0-2.53 2.44c-.5.57-1.1 1.44-1.8 2.6-.83 1.4-1.36 2.9-1.6 4.51-.52 2.99-.4 6.24.77 9.06l-.04.14a.06.06 0 0 1-.05.04h-.04a.06.06 0 0 1-.02-.04c-.48-1.28-.97-2.2-1.24-3.66-.5-2.7-.44-5.41.16-8.14l1.38-2.92a16.44 16.44 0 0 1 5.9-5.39Z" fill="#4C4741"/><path d="M30.92 16.14c1.78.29 3.35.84 4.72 1.67a8.6 8.6 0 0 1 2.52 2.44 10.55 10.55 0 0 1 1.97 6.8 8.49 8.49 0 0 1-.8 3.18l-.15-.38.49-1.48c.54-3.3-.25-6.2-2.37-8.69-1.18-1.38-3-2.3-4.7-2.84-.95-.3-1.9-.4-2.83-.3-1.11.13-2.2.37-3.24.72l-.22-.21.36-.15a14.5 14.5 0 0 1 4.25-.76Z" fill="#94E3F4"/><path d="M18.59 28.66a16 16 0 0 0-.88-3.35.04.04 0 0 0-.07.02c-.06.17-.13.22-.2.15.42-1.97 1.12-3.7 2.1-5.18a13.61 13.61 0 0 1 4.09-4.02.1.1 0 0 1 .07.04.1.1 0 0 1-.02.14c-.55.56-1.06 1.01-1.51 1.38a6.55 6.55 0 0 0-1.46 1.95 20 20 0 0 0-1.84 4.4c-.35 1.29-.44 2.78-.28 4.47Z" fill="#7B7E75"/><path d="M32.6 16.84c.03.45.18.77.46.98.7.5 1.2.94 1.54 1.33l-1.62-.83a6 6 0 0 0-2.02-.4l-1.64.02c.3-.41.44-.88.45-1.4.94-.1 1.88 0 2.84.3Z" fill="#015879"/><path d="m39.67 28.37-1.22-.44c.4-2.18.03-4.2-1.18-6.03-.77-1.16-1.46-2.09-2.67-2.75-.33-.39-.84-.83-1.54-1.33-.28-.2-.43-.53-.45-.98 1.7.53 3.51 1.46 4.69 2.84a10.23 10.23 0 0 1 2.37 8.69Z" fill="#00648C"/><path d="m26.31 17.05.22.21c-1.2.56-2.34 1.23-3.4 2a.1.1 0 0 1-.08.02.1.1 0 0 1-.06-.03.1.1 0 0 1 .01-.15c1.03-.8 2.14-1.48 3.31-2.05Z" fill="#32BCCC"/><path d="M40.63 18a13.35 13.35 0 0 1 3.03 6.93c-.15.67-.4 1.27-.75 1.8a15.1 15.1 0 0 0-2.65-8.6v-.18a.08.08 0 0 1 .06-.07h.04c.02 0 .03 0 .04.02.07.09.15.12.23.1Z" fill="#0C9DB5"/><path d="M30.96 17.92c-.23.07-.3.16-.23.25-1.1-.02-2.14.12-3.13.42A9.69 9.69 0 0 0 22.9 22c-.17.39-.43.74-.78 1.07a8.08 8.08 0 0 1 1.72-2.41 8.44 8.44 0 0 1 5.48-2.72l1.64-.02Z" fill="#32BCCC"/><path d="M30.96 17.92a6 6 0 0 1 2.02.4l1.62.83c1.21.66 1.9 1.59 2.67 2.75a7.98 7.98 0 0 1-1.05 10.12 113 113 0 0 1-.82.78c-.74.51-1.55.9-2.42 1.17l2.15-1.24c.8-.6 1.38-1.18 1.74-1.74.55-.84 1-1.92 1.33-3.24.3-1.79.04-3.5-.8-5.14a11.71 11.71 0 0 0-1.87-2.44 8.3 8.3 0 0 0-4.8-2c-.08-.1 0-.18.23-.25Z" fill="#94E3F4"/><path d="m18.08 18-.46 1.66a15.66 15.66 0 0 0-2.96 7.9c-.08 1.02.02 2.4.31 4.14.68 4.1 3.35 8.1 7.1 10.06.54.28 1.47.59 2.78.9l2.9.72c.2.13.43.2.66.23.02 0 .04 0 .05.02l.02.05c0 .02 0 .03-.02.05a.06.06 0 0 1-.04.01l-1.3.13h-.05l-.8-.15c-.83-.17-1.67-.32-2.52-.46-1-.17-2.33-.72-4-1.63a11.16 11.16 0 0 1-3.36-3.13c-.7-.93-1.42-2.16-2.16-3.68-.96-2.71-1.23-5.51-.8-8.4A14.18 14.18 0 0 1 18.08 18Z" fill="#4C4741"/><path d="M30.73 18.17a8.3 8.3 0 0 1 4.8 2l-.17.42c-.1.3-.3.48-.55.57a.11.11 0 0 1-.15-.08V21l.26-.83a.12.12 0 0 0-.06-.13.11.11 0 0 0-.14.03c-.28.4-.44.8-.47 1.2-.01.14-.06.23-.15.28a.84.84 0 0 1-.35.09l-1-1.07a.31.31 0 0 0-.16-.1c-1.24-.26-2.73-.6-3.96-.22a2.7 2.7 0 0 1-1.03-1.67c.99-.3 2.03-.44 3.13-.42Z" fill="#014165"/><path d="M27.6 18.59c.15.72.5 1.27 1.03 1.67l-1.65.35-2.2 2.32-.31.32c-.05.1-.07.17-.06.24a2.22 2.22 0 0 0-2.2.17.75.75 0 0 0-.19.17c-.23.28-.38.61-.47 1 0 .02-.02.04-.04.05a.09.09 0 0 1-.11-.01.09.09 0 0 1-.02-.06c.01-.8.26-1.37.74-1.74.35-.33.6-.68.79-1.06l.08-.14a9.68 9.68 0 0 1 4.6-3.28Z" fill="#012945"/><path d="M40.12 18.65a13.74 13.74 0 0 1 2.44 7.47l-.15-.34a.1.1 0 0 0-.11-.06.1.1 0 0 0-.09.1v.7a.04.04 0 0 1-.03.04.04.04 0 0 1-.05-.02l-.31-.7a.08.08 0 0 0-.05-.04.07.07 0 0 0-.07.02l-.11.08c-.2-2-.43-3.31-1.29-5.03l-.18-2.22Z" fill="#018AA8"/><path d="M23.84 20.66a8.07 8.07 0 0 0-1.72 2.41c-.48.37-.73.95-.74 1.74 0 .02 0 .04.02.06a.09.09 0 0 0 .15-.04c.09-.39.25-.72.48-1a.75.75 0 0 1 .18-.17c.7-.45 1.44-.5 2.2-.17a8.97 8.97 0 0 0-.58 2.62c0 .16 0 .31.02.47l.28 1.8c0 .32.06.5.21.54.44.88.79 1.4 1.04 1.59.66.48 1.32.95 1.99 1.4l.26.07c1.32.36 2.67.43 4.05.22.21-.03.36-.08.45-.14l.35-.2.5-.2 1.48.33c.4.08.61.33.67.74l-2.15 1.24-2.11.47h-.01v.02a4.56 4.56 0 0 0 2.07-.42.35.35 0 0 0 .05-.07 8.9 8.9 0 0 0 2.42-1.17l2.64-.73a9 9 0 0 1-3.37 2.8l-2.48 1.05c-.11.04-.23.07-.36.08l-.84.08a10.93 10.93 0 0 1-4.42-1.16c-.75-.37-1.15-.72-1.82-1.17a4.06 4.06 0 0 1-.66-.56c-2.87-3.03-3.82-6.67-2.84-10.9.14-.63.51-1.51 1.12-2.65.61.13 1.1.47 1.47 1.02Z" fill="#01182F"/><path d="M23.49 34.33c.48.66.92 1.33 1.3 2 .28.48.26.85-.07 1.1a12.56 12.56 0 0 1-5.16-13.68c.35-1.27.95-2.6 1.8-4a.11.11 0 0 1 .15-.04.12.12 0 0 1 .06.15c-.42 1.01-.7 1.55-.9 2.45-.95 4.15-.2 8.86 2.82 12.02Z" fill="#8C887C"/><path d="M33.75 21.65c.04.15.18.23.4.22a.2.2 0 0 0 .05-.01l.86-.28.42.08a.13.13 0 0 1 .1.11.13.13 0 0 1-.07.14l-.79.36a.15.15 0 0 0-.08.1.15.15 0 0 0 .02.12c.07.1.16.18.28.23a6.23 6.23 0 0 1 1 4.05c-.08 1-.26 1.79-.56 2.37l-.94-.79-1.23-1.96c-.5-.87-1.12-1.68-1.87-2.42a.41.41 0 0 0-.2-.1c-1.02-.2-1.9-.4-2.88.15-.13-.01-.28.12-.46.4-.22.34-.53 1.07-.83 1.29-.1.08-.12.18-.03.32.31.53.56 1.13.74 1.78a.34.34 0 0 0 .2.22 5.75 5.75 0 0 0 3.6.15l.02.03.03.06a.11.11 0 0 1-.06.15 4.76 4.76 0 0 1-3.91-.21.2.2 0 0 1-.04-.07l-.71-1.87a.2.2 0 0 0-.2-.14.2.2 0 0 0-.19.16 6 6 0 0 1-.9 1.54c-.07.1-.1.17-.08.22 0 .05.04.1.1.13a.08.08 0 0 1 .03.09c0 .01 0 .03-.02.04a2.82 2.82 0 0 0-1.2.61c-.16-.03-.23-.22-.22-.55.34.08.65.01.92-.2a.2.2 0 0 0 .05-.06l1.32-2.14a.13.13 0 0 0 0-.13c-.46-.86-1-1.94-1.85-2.36a.2.2 0 0 1-.1-.15v-.08l.32-.32c.16.4.44.68.86.82a.4.4 0 0 0 .12.02c.2.01.41.05.63.13.18.22.02.27-.49.15a.11.11 0 0 0-.11.04.11.11 0 0 0 0 .13l.9 1.26a.08.08 0 0 0 .13 0 3.76 3.76 0 0 0 .16-4.88l1.64-.34c1.23-.38 2.72-.04 3.96.22.06.01.12.05.16.1l1 1.07Z" fill="#FBFBF9"/><path d="M35.36 20.59c.25 0 .35.09.3.26-.08.24-.28.49-.6.73l-.86.27-.04.01c-.23.02-.36-.06-.41-.21.14-.01.26-.04.35-.09.09-.05.14-.14.15-.29.03-.4.2-.79.47-1.19a.11.11 0 0 1 .14-.03.11.11 0 0 1 .06.13l-.26.83a.12.12 0 0 0 .03.12.11.11 0 0 0 .12.03.85.85 0 0 0 .55-.57Z" fill="#32BCCC"/><path d="m37.4 22.61-1.2.67a.17.17 0 0 1-.2-.03c-.27-.3-.6-.54-.96-.71a.1.1 0 0 0-.1.01.1.1 0 0 0-.03.11l.03.06a.62.62 0 0 1-.28-.23.15.15 0 0 1 .01-.18.15.15 0 0 1 .05-.04l.79-.36a.13.13 0 0 0 .04-.2.13.13 0 0 0-.07-.05l-.42-.08c.32-.24.52-.49.6-.73.05-.17-.05-.26-.3-.26l.17-.42c.72.72 1.35 1.53 1.88 2.44Z" fill="#00648C"/><path d="M31.76 20.8a.38.38 0 0 1 .27.45c-.16.7-.42 1.33-.78 1.88a.76.76 0 0 1-.48.34.74.74 0 0 1-.57-.12 13.41 13.41 0 0 1-2.55-2.42.15.15 0 0 1 .11-.17 7.91 7.91 0 0 1 4 .04Z" fill="#E8EAE9"/><path d="M26.98 20.6a3.76 3.76 0 0 1 .76 3.52l-1.34-.22a2.4 2.4 0 0 0-.63-.13.4.4 0 0 1-.12-.02c-.42-.14-.7-.42-.86-.82l2.2-2.32Z" fill="#9AABB2"/><path d="M18.5 21.12a13.64 13.64 0 0 0-1.87 8.16c.35 3.8 1.96 7.02 4.82 9.67-.02.03-.06.04-.12.03a.06.06 0 0 0-.07.04.07.07 0 0 0 .02.07 10.58 10.58 0 0 0 4.44 2.32c.02 0 .04-.02.06-.04v-.12c1.74.62 3.28 1 4.61 1.15a9.95 9.95 0 0 0 4.82-.75c.8-.14 1.43-.65 2.2-1.01a.07.07 0 0 1 .08.03.07.07 0 0 1-.01.08c-.85.7-1.8 1.26-2.96 1.7l-1.41.54-.18.07-.18.06-.63.15-1.78.08c-.16 0-.31 0-.47-.05-1.78-.45-3.33-1.05-5.28-1.26a9.97 9.97 0 0 1-4.45-2.41 23.27 23.27 0 0 1-2.44-2.84 12.28 12.28 0 0 1-1.99-4.38c-1-3.89-.52-7.54 1.42-10.96.44.03.9-.08 1.37-.33Z" fill="#55504A"/><path d="M37.4 22.61a7.97 7.97 0 0 1 .8 5.14c-.82-.04-1.45.84-1.94 1.37a.19.19 0 0 1-.31-.07.2.2 0 0 1 0-.12c.23-.7.22-1.42-.02-2.16.08-.45.08-.93 0-1.44a6.23 6.23 0 0 0-1.02-2.67.1.1 0 0 1 .02-.1.1.1 0 0 1 .1-.02c.38.17.7.41.96.7a.17.17 0 0 0 .2.04l1.22-.67Z" fill="#014165"/><path d="M24.47 23.25v.08a.19.19 0 0 0 .1.15c.85.42 1.4 1.5 1.85 2.36a.13.13 0 0 1 0 .13l-1.32 2.14a.2.2 0 0 1-.05.06c-.27.21-.58.28-.92.2l-.28-1.8a2.2 2.2 0 0 1-.02-.46c.06-.88.25-1.76.58-2.62-.01-.07 0-.15.06-.24Z" fill="#9AABB2"/><path d="M12.6 23.3c-.6 2.74-.65 5.45-.16 8.15.27 1.45.76 2.38 1.24 3.66a.06.06 0 0 0 .06.04.06.06 0 0 0 .05-.04l.04-.14c.12.05.26 0 .4-.15a21.82 21.82 0 0 0 2.16 3.68 11.16 11.16 0 0 0 3.36 3.13c1.67.91 3 1.46 4 1.63.85.14 1.69.29 2.52.46-3.81 0-7.48-1.14-10.17-4a43.1 43.1 0 0 1-2.7-3.08 11.36 11.36 0 0 1-2.22-9.15c.25-1.54.72-2.94 1.42-4.18Z" fill="#A9BBC2"/><path d="m33.21 26.4-.82 1.79-.3.67c-.18-.08-.27-.37-.27-.87a.2.2 0 0 0-.03-.1.19.19 0 0 0-.08-.07 1.67 1.67 0 0 1-.4-.32 37.27 37.27 0 0 1-3.05-3.48c.99-.54 1.86-.34 2.87-.16.08.02.15.05.21.1.75.75 1.37 1.56 1.87 2.43Z" fill="#E8EAE9"/><path d="M27.74 24.12a2.98 2.98 0 0 0-.91 1.37.08.08 0 0 1-.09.01.08.08 0 0 1-.03-.03l-.9-1.25a.11.11 0 0 1 .04-.17.1.1 0 0 1 .06 0c.51.12.67.07.49-.15l1.34.22Z" fill="#A9BBC2"/><path d="M35.3 24.36a12.62 12.62 0 0 1-.07 3.98.13.13 0 0 1-.2-.02l-1.65-2.28a.19.19 0 0 1 0-.22l1.38-1.92a.17.17 0 0 1 .12-.07.17.17 0 0 1 .13.04c.06.06.12.19.19.4l.03.03.07.06Z" fill="#E8EAE9"/><path d="M28.26 24.02c.87 1.15 1.89 2.3 3.04 3.48.14.14.28.25.41.32.03.01.06.04.08.07a.2.2 0 0 1 .03.1c0 .5.09.79.28.87l-.12 1.3c0 .09 0 .17.03.25l.47 1.45-.35.2c-.06-.5-.15-.88-.29-1.14-.51-.8-1.1-1.3-1.75-1.47l-.6.56a2.1 2.1 0 0 0-1.47.62c-.23.23-.45.66-.65 1.27-.67-.44-1.33-.9-1.99-1.39-.25-.18-.6-.71-1.04-1.59a2.82 2.82 0 0 1 1.21-.61.08.08 0 0 0-.01-.13c-.06-.04-.1-.08-.1-.13-.02-.05.02-.12.09-.22a6 6 0 0 0 .96-1.65.2.2 0 0 1 .32.09l.7 1.87a.19.19 0 0 0 .1.1 4.76 4.76 0 0 0 3.9.16.11.11 0 0 0 .02-.13l-.03-.06a.05.05 0 0 0-.06-.03c-1.2.33-2.38.28-3.56-.15a.33.33 0 0 1-.2-.22 6.99 6.99 0 0 0-.74-1.78c-.09-.14-.08-.24.03-.32.3-.22.61-.95.83-1.28.18-.29.33-.42.46-.4Z" fill="#A9BBC2"/><path d="m43.53 29.44-.83-.26.21-2.44c.35-.54.6-1.14.75-1.8.24 1.38.35 3.15-.13 4.5Z" fill="#00648C"/><path d="M18.59 28.66c.57 3.61 2.18 6.6 4.84 8.96a.28.28 0 0 0-.08.12.15.15 0 0 0 .07.18l2.25 1.42a.2.2 0 0 0 .04.02l1.86.73c.03.02.06.02.1.03.42.05.51-.02.28-.21 1.88.55 3.56.72 5.04.51 1-.14 2.21-.53 3.67-1.16a7.95 7.95 0 0 0 2.52-.59 14.4 14.4 0 0 1-4.38 2.58c-1.17.33-1.92.5-2.25.52-2 .1-3.92-.17-5.8-.84l.12-.03a.1.1 0 0 0 .05-.14 6.6 6.6 0 0 1-4.03-2.01.1.1 0 0 0-.07.03c-.03.03-.03.1 0 .2-2.4-2.01-4.19-4.26-5.09-7.29-.6-2.01-.7-4.08-.29-6.21.07.07.14.02.2-.15a.04.04 0 0 1 .04-.03.04.04 0 0 1 .04.03 16 16 0 0 1 .87 3.33Z" fill="#66615B"/><path d="M42.56 26.12c.05 1.17-.06 2.36-.35 3.56l-.2.75-1.02-.18c.04-.1.05-.19.05-.27l.1-.24c.38-1.26.53-2.54.45-3.84l.11-.08.03-.02h.04a.08.08 0 0 1 .05.05l.31.7.02.01a.04.04 0 0 0 .06-.03v-.7c0-.03.01-.05.03-.07a.1.1 0 0 1 .13-.03.1.1 0 0 1 .04.05l.15.34Z" fill="#00648C"/><path d="M41.24 25.78c.1 1.42-.04 2.8-.44 4.11l-.22.54c-.43.23-1.06.87-1.54.5l.3-.7c.47-1 .73-2.06.8-3.19 0-.1.03-.2.07-.27a.15.15 0 0 1 .19-.07c.17.06.31 0 .42-.17l.42-.75Z" fill="#014165"/><path d="m33.21 26.4 1.23 1.95-2.05-.16.82-1.8Z" fill="#D7D6D3"/><path d="M38.2 27.75c-.34 1.32-.78 2.4-1.33 3.24a7.28 7.28 0 0 1-1.74 1.74c-.06-.4-.28-.66-.67-.74L33 31.66a8.73 8.73 0 0 0 2.4-2.52c.29-.58.47-1.37.54-2.37.24.74.25 1.46.02 2.16a.2.2 0 0 0 .08.22.19.19 0 0 0 .23-.03c.49-.53 1.12-1.41 1.94-1.37Z" fill="#012945"/><path d="m39.67 28.37-.49 1.48-1.14 2.22-2.64.73.82-.78a8.33 8.33 0 0 0 2.23-4.09l1.22.44Z" fill="#022B52"/><path d="m32.39 28.19 2.05.16.94.79a8.73 8.73 0 0 1-2.4 2.52l-.5.2-.47-1.45a.57.57 0 0 1-.03-.24l.12-1.3.29-.68Z" fill="#9AABB2"/><path d="M43.53 29.44c-.64 2.2-1.37 4.22-2.8 5.95a12.8 12.8 0 0 1-3.52 2.91l-1.55-.36a11.83 11.83 0 0 0 6.88-8.26c.08-.14.13-.3.16-.5l.83.26Z" fill="#022B52"/><path d="m41.98 35.35-.24-.89c1.14-1.73 1.47-3.25 2.14-4.98l.03-.03a.06.06 0 0 1 .08.02l.01.05a15.82 15.82 0 0 1-2.02 5.83Z" fill="#014165"/><path d="M31.84 30.92c-1.06-.17-1.64-.66-1.75-1.47.65.17 1.23.66 1.75 1.47Z" fill="#838D91"/><path d="M30.09 29.45c.1.8.7 1.3 1.75 1.47.14.26.23.64.29 1.14-.09.06-.24.1-.45.14-1.38.2-2.73.13-4.05-.22.24-.77.86-1.43 1.85-1.97l.6-.56Z" fill="#9AABB2"/><path d="M29.48 30c-1 .55-1.61 1.2-1.85 1.98l-.26-.08c.2-.61.42-1.04.64-1.27a2.1 2.1 0 0 1 1.47-.62Z" fill="#E8EAE9"/><path d="M40.58 30.43a8.97 8.97 0 0 1-4.82 5.24c-1.12.53-2.3.72-3.52.58.53-.28 1.05-.54 1.58-.76.78-.33 1.3-.58 1.59-.75 1.53-.93 2.74-2.2 3.63-3.81.48.37 1.11-.27 1.54-.5Z" fill="#012945"/><path d="M42.01 30.43a10.87 10.87 0 0 1-4.75 6.2A8.51 8.51 0 0 1 32 37.94c-.25-.15-.17-.32.22-.5a.27.27 0 0 0 .14-.18l.02-.08c0-.04.02-.08.05-.11a.18.18 0 0 1 .1-.06l.78-.16a9.05 9.05 0 0 0 4.78-2.19 10.95 10.95 0 0 0 2.9-4.41l1.02.18Z" fill="#022B52"/><path d="M32.98 33.97a.35.35 0 0 1-.05.07 4.56 4.56 0 0 1-2.06.4l2.1-.47Z" fill="#55504A"/><path d="M28.71 34.32a13.92 13.92 0 0 0 .73.1c.02.02.02.05 0 .08a3.7 3.7 0 0 1-1.47-.2c-.01-.03 0-.05.02-.08h.02l.7.1Z" fill="#022B52"/><path d="m27.6 37.65 1.27.46a.07.07 0 0 1 .04.07l-.01.04-.04.02a.97.97 0 0 1-.5-.08.12.12 0 0 0-.16.13l.1.78a.24.24 0 0 0 .15.19c.23.09.26.15.09.17a9.34 9.34 0 0 1-3.82-2c.33-.25.35-.62.08-1.1-.4-.67-.83-1.34-1.31-2 .93.85 1.8 1.78 2.83 2.48.42.3.85.57 1.29.84Z" fill="#A5A697"/><path d="M41.98 35.35a13.63 13.63 0 0 1-2.8 3.32c-.86.34-1.7.54-2.52.59a14.25 14.25 0 0 0 4.4-3.83l.68-.97.24.9Z" fill="#132329"/><path d="M31.9 36.8c-.74.1-1.26.38-1.58.87a.13.13 0 0 0 .1.2h1.03a.04.04 0 0 1 .05.04l-.01.03-.02.02-.08.02a.34.34 0 0 1-.15 0 3.25 3.25 0 0 0-.97-.02 7.33 7.33 0 0 1-2.96-1.05l-2.11-1.53a.32.32 0 0 1-.12-.35v-.01a.2.2 0 0 1 .11-.12.18.18 0 0 1 .16.01c1.42.8 2.4 1.26 2.96 1.37.76.15 1.96.32 3.59.52Z" fill="#D7D6D3"/><path d="m31.9 36.8 1.4.05-.77.16a.18.18 0 0 0-.15.17c0 .03 0 .05-.02.08a.27.27 0 0 1-.14.18c-.4.18-.47.35-.22.5l-1.73.02c.32-.04.65-.03.97.03h.15a2 2 0 0 0 .08-.03.05.05 0 0 0 .03-.05l-.02-.03h-1.05a.12.12 0 0 1-.11-.08.13.13 0 0 1 0-.13c.32-.49.84-.78 1.58-.87Z" fill="#A5A697"/><path d="M23.43 37.62a13.49 13.49 0 0 0 4.52 2.29c.23.19.14.26-.28.2a.43.43 0 0 1-.1-.02l-1.86-.73a.2.2 0 0 1-.05-.02l-2.24-1.42a.15.15 0 0 1-.07-.18.28.28 0 0 1 .08-.12Z" fill="#4C4741"/><path d="m33.71 38.56-.42.17a.14.14 0 0 0 0 .26c.65.2 1.33.28 2.06.24a9.8 9.8 0 0 1-3.16.7c-1.16.06-2.44-.27-3.65-.5.17-.02.15-.08-.09-.17a.24.24 0 0 1-.15-.2l-.1-.77a.12.12 0 0 1 .16-.13c.22.08.38.1.5.08l.04-.02.01-.04a.07.07 0 0 0-.04-.07l-1.26-.46c.95.3 1.9.57 2.84.84.77.21 1.85.23 3.26.07Z" fill="#7B7E75"/><path d="m35.66 37.94 1.55.36c-.61.44-1.23.75-1.86.93a5.4 5.4 0 0 1-2.05-.25.14.14 0 0 1-.1-.12c0-.03.01-.06.03-.08a.14.14 0 0 1 .06-.05l.42-.17 1.95-.62Z" fill="#4C4741"/><path d="M26.75 40.93a17.05 17.05 0 0 1-3.94-1.94c-.02-.11-.02-.18.01-.21a.1.1 0 0 1 .07-.03 58.3 58.3 0 0 1 4.03 2l.01.06a.1.1 0 0 1-.06.08l-.12.04ZM21.45 38.95c1.26 1.14 2.66 1.67 4.32 2.3.02.07.02.11 0 .12a.13.13 0 0 1-.13.05 10.58 10.58 0 0 1-4.38-2.37.07.07 0 0 1 .03-.06l.04-.01c.06 0 .1 0 .12-.03Z" fill="#132329"/><path d="M32.12 43.27c-1.67.43-3.33.63-5 .6l1.3-.13a.06.06 0 0 0 .06-.06.07.07 0 0 0-.07-.07c-.23-.03-.46-.1-.67-.23.2.02.35 0 .44-.04a.1.1 0 0 0 .06-.09.1.1 0 0 0-.06-.1l-.7-.35a.42.42 0 0 0-.1-.04l-2.79-.72c1.95.21 3.5.81 5.28 1.26.16.04.31.06.47.05l1.78-.08Z" fill="#7B7E75"/><path d="M32.75 43.12a10.1 10.1 0 0 1-5.62.75c1.66.03 3.32-.17 4.99-.6l.63-.15Z" fill="#A9BBC2"/></svg>