<!-- by TradingView --><svg width="56" height="56" viewBox="0 0 56 56" xmlns="http://www.w3.org/2000/svg"><path fill="#F0F3FA" d="M0 0h56v56H0z"/><path d="M39.89 26.77c2.87-1.03 3.93-2.32 4.1-2.84l-3.85-.18c-1.28 1.43-3.13 4.04-.25 3.02Z" fill="#F35201"/><path d="M43.99 23.84c-.14-2.19-3.08-4.14-4.53-4.84-1.34 1.89-3.13 5.67.43 5.67 3.55 0 4.21-.55 4.1-.83Z" fill="#E9985F"/><circle cx="33" cy="40" r="3" fill="#F05100"/><circle cx="26" cy="40" r="3" fill="#FB7C1F"/><path d="M20 21a10 10 0 1 1 20 0v9.16C40 35.6 35.6 40 30.17 40H20V21Z" fill="#FD6900"/><circle cx="30.5" cy="20.5" r="5.5" fill="#FBFFFF"/><path d="M30.5 18a2.5 2.5 0 1 1-2.45 2.02 1.4 1.4 0 0 0 2.45-.92c0-.42-.19-.8-.48-1.05.15-.03.31-.05.48-.05Z" fill="#3A4443"/><path d="M23.48 29.77a2.65 2.65 0 1 1 3.74 3.76l-8.7 8.7a2.65 2.65 0 1 1-3.74-3.76l8.7-8.7Z" fill="#F05100"/><path d="M20.48 25.77a2.65 2.65 0 1 1 3.74 3.76l-8.7 8.7a2.65 2.65 0 1 1-3.74-3.76l8.7-8.7Z" fill="#FF791B"/></svg>