<!-- by TradingView --><svg width="56" height="56" viewBox="0 0 56 56" xmlns="http://www.w3.org/2000/svg"><path fill="#F0F3FA" d="M0 0h56v56H0z"/><path d="M42.9 18.5c.07.02.1.08.1.15 0 .08-.04.13-.1.16l-14.82 6.77c-.2.09-.39.09-.59-.01l-6.18-3.05c-.2-.1-.31-.27-.31-.48v-6.45c0-.18.1-.23.27-.15l6.17 2.86c.19.09.37.1.55.01l7.19-3.21c.32-.14.63-.13.93.02l6.79 3.37ZM19.9 32.55l-6.64 3.22c-.17.09-.26.03-.26-.16V18.87c0-.07.03-.13.1-.16l6.64-3.22c.17-.08.26-.03.26.16V32.4c0 .08-.03.13-.1.16ZM42.9 37.1l-6.66 3.21c-.16.08-.24.03-.24-.15V23.4c0-.07.03-.12.1-.14l6.66-3.22c.16-.08.24-.03.24.14v16.77c0 .06-.03.11-.1.14ZM28.28 30.28l6.62 3.2c.07.03.1.08.1.15v6.77c0 .18-.09.23-.26.15l-6.34-3.07a.18.18 0 0 0-.16 0l-7.66 3.5a.18.18 0 0 1-.16 0l-7.32-3.54a.15.15 0 0 1-.1-.15c0-.06.03-.11.1-.14l15.02-6.87c.05-.03.1-.03.16 0Z" fill="#4C5FA3"/></svg>