<!-- by TradingView --><svg width="56" height="56" viewBox="0 0 56 56" xmlns="http://www.w3.org/2000/svg"><path fill="#F0F3FA" d="M0 0h56v56H0z"/><path d="M34.42 30.79a.8.8 0 1 1 .79.79.8.8 0 0 1-.79-.79ZM41 33c2.21 0 4 1.73 4 4s-1.77 4-4 4-4-1.75-4-4c0-2.27 1.79-4 4-4Zm0 1.51A2.46 2.46 0 0 0 38.51 37c0 1.4 1.1 2.49 2.49 2.49A2.46 2.46 0 0 0 43.49 37c0-1.4-1.11-2.49-2.49-2.49ZM24 33c2.21 0 4 1.73 4 4s-1.77 4-4 4-4-1.75-4-4c0-2.27 1.79-4 4-4Zm0 1.51A2.46 2.46 0 0 0 21.51 37c0 1.4 1.1 2.49 2.49 2.49A2.46 2.46 0 0 0 26.49 37c0-1.4-1.11-2.49-2.49-2.49ZM15 33c2.21 0 4 1.73 4 4s-1.77 4-4 4-4-1.75-4-4c0-2.27 1.79-4 4-4Zm0 1.51A2.46 2.46 0 0 0 12.51 37c0 1.4 1.1 2.49 2.49 2.49A2.46 2.46 0 0 0 17.49 37c0-1.4-1.11-2.49-2.49-2.49ZM30.5 34.13V33h-1.3a.2.2 0 0 0-.2.2V41h1.5v-4.04A2.53 2.53 0 0 1 33 34.5V33c-.87.01-2.01.3-2.5 1.13Z" fill="#2E223A"/><path d="M44.72 25H11.28c-.15 0-.28.1-.28.23v1.54c0 .13.13.23.28.23h33.44c.15 0 .28-.1.28-.23v-1.54c0-.13-.13-.23-.28-.23Z" fill="#F2600F"/><path d="M28 11a8 8 0 1 1 0 16 8 8 0 0 1 0-16Zm0 2a6 6 0 1 0 0 12 6 6 0 0 0 0-12Z" fill="#F2600F"/><path d="M36 33h-1.34c-.1 0-.18.1-.18.21V41H36v-8ZM28 33h-1.34c-.1 0-.18.1-.18.21V41H28v-8ZM19 33h-1.34c-.1 0-.18.1-.18.21V41H19v-8Z" fill="#2E223A"/></svg>