<!-- by TradingView --><svg width="56" height="56" viewBox="0 0 56 56" xmlns="http://www.w3.org/2000/svg"><path fill="url(#a)" d="M0 0h56v56H0z"/><path fill-rule="evenodd" d="m38.24 21.78.02-.02A12.33 12.33 0 0 0 43 18.94a.13.13 0 0 0-.06-.16c-3.15-1.57-6.9-2.36-9.53.7a.22.22 0 0 1-.38-.2 20.28 20.28 0 0 0 .32-5.2.15.15 0 0 0-.16-.08l-2.32.34a.15.15 0 0 0-.12.12v.06c.42 1.56.59 3.1.52 4.6a.17.17 0 0 1-.16.17c-4.2.1-8.15 1.14-11.85 3.1-5.45 2.88-7.85 8.17-5.12 13.97 2.8 5.93 9.13 6.4 14.92 4.94 5.65-1.43 12.7-4.8 12.5-11.6a11.25 11.25 0 0 0-3.32-7.9v-.02ZM35 30.65c0-4.26-4.38-4.98-7.72-4.98-3.33 0-7.7.74-7.7 5s4.39 4.98 7.72 4.97c3.33 0 7.7-.73 7.7-5Z" fill="#F28423"/><defs><linearGradient id="a" x1="10.42" y1="9.71" x2="68.15" y2="76.02" gradientUnits="userSpaceOnUse"><stop stop-color="#1A1E21"/><stop offset="1" stop-color="#06060A"/></linearGradient></defs></svg>