<!-- by TradingView --><svg width="56" height="56" viewBox="0 0 56 56" xmlns="http://www.w3.org/2000/svg"><path fill="#F0F3FA" d="M0 0h56v56H0z"/><path d="m21.75 25.47.25.03-3.33 5.43a.14.14 0 0 1-.05.05.16.16 0 0 1-.08.02h-4.4c-.02 0-.04 0-.07-.02a.14.14 0 0 1-.05-.04.12.12 0 0 1 0-.13L18.77 23a3.64 3.64 0 0 0 2.98 2.47ZM33.98 22.2l-.93 1.73a.14.14 0 0 1-.13.07h-4.31c-.05 0-.1.02-.13.07l-.52.73c-.06.09.01.2.12.2h4.02c.1 0 .17.1.12.2l-1.66 2.73a.14.14 0 0 1-.12.07h-4.32c-.05 0-.1.02-.13.07l-.44.73c-.06.09.01.2.12.2h4.02c.1 0 .17.11.12.2l-.9 1.73a.13.13 0 0 1-.04.05.15.15 0 0 1-.08.02h-8.65c-.1 0-.17-.11-.12-.2l3.12-5.48c.75-.14 1.44-.5 1.97-1.01A3.1 3.1 0 0 0 26.13 22h7.73c.1 0 .17.11.12.2ZM39.16 24.07l-.34.74c-.05.08.02.19.11.19h3.4c.1 0 .17.1.12.2l-3.17 5.74a.13.13 0 0 1-.12.06h-8.03a.13.13 0 0 1-.13-.13c0-.02 0-.04.02-.06l1.12-1.75a.13.13 0 0 1 .12-.06h3.67a.13.13 0 0 0 .12-.06l.34-.75c.05-.08-.01-.19-.1-.19h-3.36c-.1 0-.16-.1-.11-.2l2.9-5.74a.13.13 0 0 1 .12-.06h8.03c.1 0 .16.1.11.2l-.91 1.74a.13.13 0 0 1-.11.06h-3.68c-.05 0-.1.03-.12.07Z" fill="#1A1A1A"/><path d="M21.96 19a2.98 2.98 0 0 0-2.94 3.31 3 3 0 0 0 2.9 2.69A3.09 3.09 0 0 0 25 21.87 3.01 3.01 0 0 0 21.97 19Zm.29 5.07a2.35 2.35 0 0 1-2.85-2.25v-.04c0-1.35 1.19-2.5 2.56-2.35a2.36 2.36 0 0 1 2 2.85 2.38 2.38 0 0 1-1.71 1.79Z" fill="#858D9A"/><path d="M17.83 21.06C15.21 21.78 8 23.5 8 27.26c.04 1.9 2.43 3.48 3.89 4.24a29.8 29.8 0 0 0 6.87 2.4c3.55.83 7.2 1.15 10.84 1.14 4.86 0 9.73-.33 14.5-1.3 1.78-.38 3.55-.84 5.23-1.54a10.07 10.07 0 0 0 1.64-.84l.02.01a.03.03 0 0 1 0 .05c-.51.34-1.05.65-1.6.9a30.52 30.52 0 0 1-5.23 1.73 74.3 74.3 0 0 1-16.4 1.94c-4.7.1-9.45-.32-13.98-1.68-2.64-.84-5.6-2.06-7.23-4.51a3.88 3.88 0 0 1-.42-3 4.37 4.37 0 0 1 1.9-2.28c.62-.37 1.2-.68 1.81-1 1.42-.71 2.94-1.2 4.42-1.62a72.4 72.4 0 0 1 3.59-.89v.01a.03.03 0 0 1-.02.04Z" fill="#858D9A"/></svg>