<!-- by TradingView --><svg width="56" height="56" viewBox="0 0 56 56" xmlns="http://www.w3.org/2000/svg"><path fill="url(#a)" d="M0 0h56v56H0z"/><path d="M15 24v2.5c-.83-.5-2-1.5-3.5-1.5S9 26 9 28s1 3 2.5 3c1.2 0 2.83-1 3.5-1.5V32c-.67.33-2.3 1-3.5 1C10 33 6 32.5 6 28s4-5 5.5-5c1.2 0 2.83.67 3.5 1ZM16 26v7h3v-7c0-.33.2-1 1-1s1 .67 1 1v7h3v-7c0-1-.8-3-4-3s-4 2-4 3ZM33 26v7h3v-7c0-.33.2-1 1-1s1 .67 1 1v7h3v-7c0-1-.8-3-4-3s-4 2-4 3ZM45 23h-3v4c0 2 1.67 2.83 2.5 3v3h3v-3c2 0 2.5-2 2.5-3v-4h-3v4c0 .33-.2 1-1 1s-1-.67-1-1v-4ZM10.4 33.6c.63.77 2.33 2 5.37 3.04C18.8 37.67 23.13 38.5 29 38.5s9.69-.83 12.07-1.85c2.39-1.03 3.29-2.23 3.43-2.95l.5.1c-.2.95-1.28 2.25-3.73 3.3C38.81 38.16 34.91 39 29 39c-5.92 0-10.3-.84-13.4-1.89-3.08-1.05-4.88-2.32-5.6-3.2l.4-.32Zm3-.04c1.82 1.46 7.52 4.34 15.59 3.94 5.07-.25 8.35-.75 10.4-1.42 2.07-.68 2.86-1.51 3.08-2.39l.5.12c-.3 1.12-1.28 2.04-3.41 2.74-2.13.7-5.46 1.2-10.55 1.45-8.19.4-14.01-2.52-15.92-4.06l.32-.38Zm3.06 0c1.13.97 5.26 3 12.54 2.94 4.56-.03 7.32-.53 8.93-1.13.8-.3 1.3-.63 1.6-.92.3-.29.4-.54.4-.7h.5c0 .34-.17.7-.53 1.06-.37.35-.95.7-1.8 1.02-1.68.64-4.51 1.14-9.1 1.17-7.35.05-11.62-1.99-12.87-3.06l.33-.38Zm3.55 0c.39.3 1.32.79 2.82 1.2 1.5.4 3.55.74 6.17.74 3.3 0 5.43-.25 6.73-.62a3.83 3.83 0 0 0 1.33-.59c.25-.2.32-.38.32-.54h.51c0 .34-.18.66-.51.93-.34.26-.83.5-1.52.69-1.36.38-3.55.63-6.86.63a24 24 0 0 1-6.3-.76 9.1 9.1 0 0 1-3-1.3l.31-.39Zm15.27.37c-.1.1-.23.26-.41.39-.2.14-.45.26-.86.36-.8.2-2.22.32-5.01.32-2.25 0-3.83-.17-4.9-.38-.54-.1-.95-.22-1.25-.34-.3-.11-.51-.23-.64-.35l.36-.36c.05.05.18.14.46.24.27.1.65.22 1.17.32 1.03.2 2.58.37 4.8.37 2.8 0 4.16-.13 4.9-.3.35-.1.54-.2.66-.28.14-.1.2-.2.36-.35l.36.36ZM31.54 19c1.49 0 2.45.53 3.04 1.21.58.68.77 1.5.77 2.04h-.5c0-.45-.17-1.14-.66-1.71-.48-.57-1.3-1.04-2.65-1.04-1.37 0-2.99.48-4.46 1.1a23.35 23.35 0 0 0-3.53 1.86l-.28-.42c.77-.5 2.1-1.26 3.6-1.9 1.5-.62 3.2-1.14 4.67-1.14Zm-.5 1.5c.67 0 1.27.28 1.74.6.47.34.82.74 1 1.01l-.42.28a3.7 3.7 0 0 0-.88-.87c-.41-.3-.91-.52-1.45-.52a4.7 4.7 0 0 0-1.87.54c-.64.3-1.2.67-1.53.91l-.3-.4c.34-.26.94-.64 1.6-.96a5.18 5.18 0 0 1 2.1-.59Zm.5-4c.23 0 .51.07.8.17.31.1.65.25 1.01.44.73.36 1.57.87 2.4 1.43a19.85 19.85 0 0 1 4.12 3.56l-.4.3a19.42 19.42 0 0 0-4.01-3.44 21.43 21.43 0 0 0-2.34-1.4 7.97 7.97 0 0 0-.94-.42c-.28-.1-.5-.14-.64-.14-.7 0-1.29.23-2.03.65-.38.22-.78.48-1.26.79-.48.3-1.02.65-1.66 1.02-2.07 1.23-5.66 2.2-7.19 2.53l-.11-.48c1.52-.34 5.04-1.3 7.04-2.47.63-.38 1.16-.72 1.64-1.02.48-.3.9-.58 1.28-.8a4.43 4.43 0 0 1 2.29-.72Zm.5-1.5c.83 0 1.79.3 2.78.77 1 .47 2.04 1.12 3.03 1.84 1.98 1.45 3.8 3.22 4.58 4.51l-.44.26c-.74-1.21-2.48-2.94-4.44-4.37-.98-.7-2-1.34-2.95-1.8a6.36 6.36 0 0 0-2.55-.71c-.72 0-1.73.27-2.92.7-1.18.42-2.5 1-3.84 1.59-1.33.6-2.67 1.2-3.86 1.7-1.2.49-2.27.88-3.06 1-2.39.4-3.6 1.47-3.9 1.9l-.42-.28c.39-.57 1.74-1.7 4.24-2.1.73-.13 1.75-.49 2.94-.98 1.19-.5 2.52-1.1 3.85-1.7 1.34-.59 2.68-1.17 3.88-1.6 1.2-.43 2.28-.73 3.09-.73ZM32 23v2h-4v2h4v2h-4v1c0 .8.67 1 1 1h3v2h-3c-3.2 0-4-2-4-3v-7h7Z" fill="#1D95CC"/><defs><linearGradient id="a" x1="10.42" y1="9.71" x2="68.15" y2="76.02" gradientUnits="userSpaceOnUse"><stop stop-color="#1A1E21"/><stop offset="1" stop-color="#06060A"/></linearGradient></defs></svg>