<!-- by TradingView --><svg width="56" height="56" viewBox="0 0 56 56" xmlns="http://www.w3.org/2000/svg"><path fill="#243978" d="M0 0h56v56H0z"/><path fill-rule="evenodd" d="m4.16 29.8-.16.04v1.42c.32.24 1.26.74 2.5.74 1.54 0 2.5-.94 2.5-2.1 0-1.05-1.03-1.48-1.52-1.69l-.13-.06a4.28 4.28 0 0 0-.32-.11c-.7-.24-2.12-.72-2.12-1.65 0-.4.28-1.19 1.47-1.19 1.18 0 1.98 1.03 2.22 1.54l.12-.05v-1.26A4.9 4.9 0 0 0 6.77 25c-1.07 0-2.65.44-2.65 2.09 0 .41.38 1.29 1.79 1.71 1.72.52 2.23 1.23 2.23 1.78 0 .98-.94 1.2-1.41 1.18-1.5 0-2.34-1.3-2.57-1.96Zm35.54 0-.17.04v1.42c.32.24 1.27.74 2.5.74 1.56 0 2.52-.94 2.52-2.1 0-1.05-1.03-1.48-1.52-1.69l-.14-.06-.31-.11c-.7-.24-2.13-.72-2.13-1.65 0-.4.28-1.19 1.47-1.19 1.2 0 1.99 1.03 2.24 1.54l.11-.05v-1.26c-.29-.14-1.1-.43-1.95-.43-1.08 0-2.67.44-2.67 2.09 0 .41.38 1.29 1.8 1.71 1.73.52 2.24 1.23 2.24 1.78 0 .98-.95 1.2-1.42 1.18-1.51 0-2.35-1.3-2.57-1.96ZM11 25h1.94v.15c-.14.04-.41.21-.41.6v3.93a2.1 2.1 0 0 0 2.14 2.05 2.22 2.22 0 0 0 2.13-2.2v-3.37c0-.28-.16-.87-.8-1.01V25h1.41v.15c-.14.02-.41.25-.41.95v3.5c0 1.24-1.07 2.4-2.37 2.4h-.6a2.57 2.57 0 0 1-2.61-2.51v-3.73c0-.16-.08-.5-.42-.61V25Zm8.56 7v-.18c.4-.1.47-.76.44-1.09v-4.75c0-.58-.37-.79-.55-.82V25h1.19l4.15 5.2v-4.22c0-.44-.46-.73-.7-.82V25h1.39v.16a.77.77 0 0 0-.48.73V32h-.12l-4.68-5.8v4.53c0 .72.5 1.03.74 1.09V32h-1.38Zm8.03 0v-.18a.52.52 0 0 0 .41-.51v-5.5c0-.46-.27-.63-.41-.67V25h2.38c2.04 0 2.48.98 2.45 1.47 0 1.47-1.3 1.87-1.94 1.88.9.03 1.39.76 1.51 1.12.22.49.7 1.55.8 1.88.12.32.33.45.42.47h.3V32H32.5c-.44 0-.75-.44-.85-.65l-1.06-2.43a.93.93 0 0 0-.84-.5H29v2.89c0 .33.37.48.5.51V32h-1.91ZM29 28.23V25.2c.74-.1 2.31.07 2.31 1.6 0 1.2-1.01 1.44-1.52 1.42H29ZM37.38 32h-1.8v-.16c.33-.1.43-.5.42-.69v-5.3c0-.45-.3-.63-.42-.67V25h1.8v.18c-.33.09-.39.48-.38.66v5.31c0 .46.25.65.38.69V32ZM52 32h-5.3v-.2c.33-.06.31-.43.3-.62v-5.42c0-.46-.17-.56-.3-.56V25h4.92l.12 1.46h-.19c-.36-1.08-1.42-1.29-1.91-1.26H48V28h1.55c.35 0 1.07-.15 1.19-.76H51v1.69h-.26c-.07-.25-.4-.75-1.19-.75H48v3.2c0 .24.4.43.64.43h1.35c1.1 0 1.62-.9 1.75-1.34l.26.05V32Z" fill="#fff"/><path d="m36.61 17.1.3 3.93.8-2.42c.02-.06.07-.09.11-.07.04.01.07.06.06.11l-.51 2.62 2.14-3.45a.1.1 0 0 1 .14-.03.1.1 0 0 1 .04.13l-1.66 3.73 1.9-1.83c.03-.03.09-.04.12 0 .03.03.03.09 0 .13L38.4 22l3.44-1.89a.1.1 0 0 1 .14.05.1.1 0 0 1-.03.13l-3.17 2.39 2.54-.65c.05-.02.1.01.12.06 0 .05-.02.1-.07.12l-2.39.98 3.92.15c.06 0 .1.05.1.1a.1.1 0 0 1-.09.1l-3.96.45.01-.3c0-1.43-1.1-2.59-2.46-2.59A2.53 2.53 0 0 0 34.05 24l-3.96-.44a.1.1 0 0 1-.09-.1c0-.06.04-.11.1-.11l3.92-.15-2.4-.98c-.04-.02-.07-.07-.06-.12.02-.05.07-.08.12-.06l2.54.65-3.17-2.39a.1.1 0 0 1-.03-.13.1.1 0 0 1 .14-.05l3.44 1.9-1.65-2.07c-.03-.04-.03-.1 0-.13.03-.04.09-.03.13 0l1.89 1.83-1.66-3.73a.1.1 0 0 1 .04-.13.1.1 0 0 1 .14.03l2.14 3.45-.5-2.62c-.02-.05 0-.1.05-.11.04-.02.1.01.11.07l.8 2.44.32-3.95c0-.05.05-.1.1-.1s.1.04.1.1Z" fill="#FBAF54"/></svg>