<!-- by TradingView --><svg width="56" height="56" viewBox="0 0 56 56" xmlns="http://www.w3.org/2000/svg"><path fill="url(#a)" d="M0 0h56v56H0z"/><circle cx="28" cy="28" r="16" fill="#F0F3FA"/><path d="M28 12a16 16 0 1 0 0 32v1a17 17 0 0 1 0-34v1Z" fill="#020305"/><path d="M28 12a16 16 0 1 1 0 32v1a17 17 0 0 0 0-34v1ZM28 19a9 9 0 1 0 0 18v1a10 10 0 0 1 0-20v1Z" fill="#296B47"/><path d="M28 19a9 9 0 1 1 0 18v1a10 10 0 0 0 0-20v1ZM28 37a9 9 0 1 1 0-18v18Z" fill="#020305"/><path d="M28 37a9 9 0 1 0 0-18v18Z" fill="#296B47"/><path d="M34.5 21.5v13h-13v-13h13ZM22 34h12V22H22v12Z" fill="#F7CE42"/><path d="m26.5 23.5-2-1V25H22l2 2-2 1 2 1-1.5 2.5L25 31v2.5l2-1.5 1 2 1-2 2 1.5V31l2.5.5L32 29l2-1-2-1.5 1.5-1.5h-2v-2.5l-2 1L28 22l-1.5 1.5Z" fill="#F7CE42"/><path d="M34.5 21.5 37 28l-2.5 6.5L28 37l-6.5-2.5L19 28l2.5-6.5L28 19l6.5 2.5Zm-12.61.39L19.54 28l2.35 6.11L28 36.46l6.11-2.35L36.46 28l-2.35-6.11L28 19.54l-6.11 2.35Z" fill="#F7CE42"/><defs><linearGradient id="a" x1="10.42" y1="9.71" x2="68.15" y2="76.02" gradientUnits="userSpaceOnUse"><stop stop-color="#1A1E21"/><stop offset="1" stop-color="#06060A"/></linearGradient></defs></svg>