<!-- by TradingView --><svg width="56" height="56" viewBox="0 0 56 56" xmlns="http://www.w3.org/2000/svg"><path fill="#F0F3FA" d="M0 0h56v56H0z"/><path d="M44.99 25.6a.1.1 0 0 1-.08.06.1.1 0 0 1-.1-.03 2.64 2.64 0 0 0-2.86-.56c-1.02.43-1.6 1.27-1.75 2.52-.15 1.25.24 2.21 1.16 2.9.87.64 1.88.7 3.01.16.23-.1.34-.22.34-.34v-.3c0-.98-.21-1.5-.65-1.84a.1.1 0 0 1 0-.15.09.09 0 0 1 .06-.02h1.79a.1.1 0 0 1 .08.04.1.1 0 0 1 .01.09 7.36 7.36 0 0 0-.14 2.1 78.16 78.16 0 0 1-.01.54 4.3 4.3 0 0 1-2.33 1.18c-.86.13-1.67 0-2.45-.4a3.62 3.62 0 0 1-1.88-2.3 4.02 4.02 0 0 1 .25-3.05 3.71 3.71 0 0 1 2.49-2.06 5.23 5.23 0 0 1 3.35.36.26.26 0 0 1 .07.19c0 .04 0 .07-.02.1l-.34.81ZM47.19 31.89l.08-.41.03-.26v-2.16c0-.3 0-.8.02-1.52.03-1.26.02-2.13-.02-2.62a3.4 3.4 0 0 0-.16-.87l.01-.03.03-.02h.03c.52.11 1.06.15 1.62.13.77-.03 1.53-.03 2.29-.01.07 0 .13.03.19.08.05.06.08.13.08.2l.06.72a.12.12 0 0 1-.03.09.1.1 0 0 1-.03.02h-.05a1.5 1.5 0 0 1-.26-.07 1.79 1.79 0 0 0-.53-.13 89 89 0 0 1-2.1 0 .09.09 0 0 0-.03.02.1.1 0 0 0-.02.07v2.33a.13.13 0 0 0 .04.1.1.1 0 0 0 .04.02.1.1 0 0 0 .05 0l1.71-.33c.04 0 .08 0 .12.02a.2.2 0 0 1 .08.09l.45.84a.1.1 0 0 1 0 .1.1.1 0 0 1-.04.03.09.09 0 0 1-.04.02h-2.32a.09.09 0 0 0-.06.03.1.1 0 0 0-.03.07v2.61a.13.13 0 0 0 .03.09.1.1 0 0 0 .04.02 3.85 3.85 0 0 0 3.5-.31l.02.02a.06.06 0 0 1 0 .07l-.93 1.5a.11.11 0 0 1-.04.05.1.1 0 0 1-.1 0 .11.11 0 0 1-.04-.04c-.14-.23-.45-.46-.92-.45h-2.73a.09.09 0 0 1-.03-.03.1.1 0 0 1-.02-.08ZM11.95 32l-.03-.01a.09.09 0 0 1-.03-.03.1.1 0 0 1-.02-.08l.08-.4a37.43 37.43 0 0 0 .05-2.42c0-.3-.02-.8 0-1.52.03-1.25.02-2.13-.03-2.62a3.44 3.44 0 0 0-.16-.87l.01-.03.03-.02h.03c.52.1 1.06.15 1.62.13.77-.03 1.53-.04 2.29-.02.07 0 .14.03.19.08.05.06.08.13.09.2l.06.72v.05l-.03.04a.1.1 0 0 1-.08.03c-.04 0-.13-.03-.26-.08a1.75 1.75 0 0 0-.53-.12 94.37 94.37 0 0 1-2.1 0 .09.09 0 0 0-.04.02l-.01.03c0 .01-.08.02-.08.04v2.33c0 .02.08.04.09.05 0 .02.01.03.03.04a.1.1 0 0 0 .09.03l1.7-.33c.05 0 .09 0 .13.02a.2.2 0 0 1 .08.08l.45.84a.1.1 0 0 1 0 .1.1.1 0 0 1-.03.04.09.09 0 0 1-.05.02h-2.32a.09.09 0 0 0-.06.03c-.02.02-.11.05-.11.07v2.62l.1.04c0 .02 0 .03.02.04a.1.1 0 0 0 .03.03 3.87 3.87 0 0 0 3.5-.32s.02 0 .03.02a.06.06 0 0 1 0 .07l-.93 1.5a.11.11 0 0 1-.04.05.1.1 0 0 1-.1 0 .11.11 0 0 1-.04-.04c-.14-.23-.43-.45-.9-.45h-2.72ZM7.05 27.26h1.7c.03 0 .05-.02.07-.04a.1.1 0 0 0 .03-.07v-2.09a3.18 3.18 0 0 0-.16-.98l.02-.04.03-.03h1.34l.02.02.01.03v.03c-.09.33-.1.66-.11.98-.02 1.94-.02 3.9 0 5.89a3.74 3.74 0 0 0 .1.98v.03c-.02 0-.02.02-.03.02l-.04.01H8.75l-.04-.01a.08.08 0 0 1-.02-.03.09.09 0 0 1-.01-.08c.1-.28.16-.56.16-.84a238.77 238.77 0 0 1 0-2.75.1.1 0 0 0-.01-.04.1.1 0 0 0-.03-.02h-.04a421.58 421.58 0 0 1-3.45 0 .1.1 0 0 0-.03.02 217.33 217.33 0 0 1-.01 2.79 2.4 2.4 0 0 0 .16.88.1.1 0 0 1-.01.04l-.03.03a.07.07 0 0 1-.04 0H4.04a.07.07 0 0 1-.03-.02.08.08 0 0 1 0-.07c.08-.3.12-.62.12-.95.02-1.98.03-3.95 0-5.88A3.92 3.92 0 0 0 4 24.05l.01-.02.02-.02.03-.01h1.28l.04.01.03.03a.1.1 0 0 1 0 .08c-.1.3-.14.61-.15.94v2.1l.03.06.06.03h1.7ZM24.48 24a73.58 73.58 0 0 0 .6 0l.04.04.01.04v.04a7.83 7.83 0 0 0-.13 1.52v4.72a7.75 7.75 0 0 0 .14 1.56.1.1 0 0 1-.02.04l-.03.03h-.04a106.09 106.09 0 0 0-1.16 0 .09.09 0 0 1-.03-.03.12.12 0 0 1-.02-.08c.09-.52.17-1.02.16-1.52v-4.72c.01-.5-.08-1-.17-1.52a.12.12 0 0 1 .02-.08l.03-.03.04-.01h.56ZM26.71 25.34a.09.09 0 0 1-.1-.02.1.1 0 0 1-.02-.04.1.1 0 0 1 0-.06l.02-.1c.16-.72.4-1.09.7-1.09a295.7 295.7 0 0 0 5-.01c.02 0 .04.02.05.04a.14.14 0 0 1 0 .12l-.36.9a.22.22 0 0 1-.11.13.2.2 0 0 1-.17 0 3.8 3.8 0 0 0-1.53-.4c-.12 0-.2.1-.19.23v5.34c0 .3.06.76.15 1.36a37.07 37.07 0 0 0 .02.17c0 .02-.02.04-.03.05a.11.11 0 0 1-.03.03.1.1 0 0 1-.05.01h-1.25a.1.1 0 0 1-.05-.01.11.11 0 0 1-.03-.04.13.13 0 0 1-.02-.1c.1-.43.29-.8.29-1.1v-5.78c0-.1-.2-.18-.3-.17a6 6 0 0 0-1.99.54ZM17.86 24l.25.06c.12.05.2.07.25.07.67 0 1.32.02 1.95.04.6.02 1.08.2 1.48.57a2.23 2.23 0 0 1 .42 2.66 2.3 2.3 0 0 1-1.2 1.08.11.11 0 0 0-.01.12 25.37 25.37 0 0 0 2.1 3.32.08.08 0 0 1-.03.07.06.06 0 0 1-.03 0H21.8c-.03 0-.06 0-.1-.02a.19.19 0 0 1-.06-.07l-1.62-3.02a.29.29 0 0 0-.1-.1.26.26 0 0 0-.14-.04h-.67a.1.1 0 0 0-.08.03.13.13 0 0 0-.03.08l-.01.7a8.43 8.43 0 0 0 .16 2.41l-.03.02-.03.01h-1.26l-.02-.03-.01-.03v-.03c.1-.36.19-.7.19-1.01v-5.72a3.13 3.13 0 0 0-.2-1.1v-.03l.03-.03.03-.01Zm1.17 1.04H19v.02l-.01.01v2.69l.01.02.03.01h.9c.37 0 .73-.13 1-.37.26-.23.4-.56.4-.89v-.24c0-.16-.03-.33-.1-.48-.07-.15-.18-.29-.3-.4a1.44 1.44 0 0 0-.47-.28c-.17-.06-.35-.1-.54-.1h-.9ZM35.22 24c.13 0 .21.05.26.15.8 1.94 1.63 3.92 2.48 5.93a10.03 10.03 0 0 0 .97 1.83.1.1 0 0 1 0 .04l-.04.04a.08.08 0 0 1-.04.01h-1.23a.1.1 0 0 1-.07-.02.12.12 0 0 1-.03-.05l-.69-1.88a.19.19 0 0 0-.06-.08.17.17 0 0 0-.09-.04 277.43 277.43 0 0 0-2.93 0 .17.17 0 0 0-.1.03.19.19 0 0 0-.05.09l-.69 1.87c0 .02-.02.04-.04.06a.1.1 0 0 1-.06.02h-1.24l-.04-.02a.08.08 0 0 1-.03-.03.1.1 0 0 1 0-.09 10 10 0 0 0 .97-1.78l2.5-5.93c.03-.1.12-.15.25-.15Zm-.06 2.11-.02.02-1.1 2.81V29l.02.01.02-.01h2.25l.02-.01a.06.06 0 0 0 0-.05l-1.12-2.8-.02-.03h-.05Z" fill="#EE7523"/></svg>