<!-- by TradingView --><svg width="56" height="56" viewBox="0 0 56 56" xmlns="http://www.w3.org/2000/svg"><path fill="#F0F3FA" d="M0 0h56v56H0z"/><path d="M49 22v11h-2V22h2ZM37 33V22h2v4.5h5V22h2v11h-2v-4.5h-5V33h-2ZM20.7 33H17V22h3.77c3.24 0 5.23 2.34 5.23 5.49 0 3.2-2.04 5.51-5.3 5.51ZM19 31h1.6c2.31 0 3.4-1.35 3.4-3.55C24 25.3 22.94 24 20.66 24H19v7ZM30.7 33H27V22h3.77c3.24 0 5.23 2.34 5.23 5.49 0 3.2-2.04 5.51-5.3 5.51ZM29 31h1.6c2.31 0 3.4-1.35 3.4-3.55C34 25.3 32.94 24 30.66 24H29v7ZM16 22v11h-2V22h2ZM11.04 25.03c-.1-1-1.04-1.4-1.96-1.4-.86 0-2.07.4-2.08 1.4 0 .68.74 1.07 1.32 1.28.53.2 1.08.3 1.62.45 1.55.37 3.06 1.3 3.06 3.08C13 32.02 10.99 33 9.05 33 6.96 33 5.09 31.93 5 29.68h1.86c.08 1.15 1.12 1.66 2.17 1.66.93 0 1.96-.43 1.97-1.52-.01-.96-1-1.28-1.76-1.48l-1.19-.32C6.62 27.65 5 26.8 5 25.15 5 23.1 7.24 22 9.1 22c1.84 0 3.72 1.02 3.76 3.03h-1.82Z"/></svg>