<!-- by TradingView --><svg width="56" height="56" viewBox="0 0 56 56" xmlns="http://www.w3.org/2000/svg"><path fill="#008DCF" d="M0 0h56v56H0z"/><path d="M50.48 35H42c.75-.23 1-.91 1-1.63V22.6c0-.71-.25-1.37-1-1.6h3.44c-.75.23-.94.89-.94 1.6v12.17h3.21c1.55 0 2.54-.91 3.29-2.23L50.48 35ZM39.4 35H30c.82-.23 1-.95 1-1.66V22.57c0-.72-.18-1.34-1-1.57h9.27l.58 2.37c-.8-1.4-2-2.14-3.71-2.14H32.5v6.54H35c.9 0 1.7-.31 2-1.2v2.6c-.3-.88-1.1-1.17-2-1.17h-2.5v6.77h3.6c1.68 0 3.11-.74 3.9-2.14L39.4 35ZM23.95 35A6.92 6.92 0 0 1 17 28c0-3.94 3.1-7 6.95-7 1.48 0 3.32.37 4.5 1.33v1.99c-1.1-1.62-2.88-3.06-4.9-3.06-3.31 0-5.05 3.2-5.05 6.23 0 3.26 1.9 7.25 5.59 7.25 2 0 3.63-1.47 4.66-3.11l.25 1.3A8.63 8.63 0 0 1 23.95 35Z" fill="#FEFFFF"/><path d="M6 21h3.57c-.37.11-.52.49-.52.83 0 .28.12.6.3.86l2.87 4.37 2.7-4c.17-.29.35-.63.35-.95 0-.54-.4-.94-.93-1.11h2.93c-.7.23-1.42 1.14-1.83 1.74l-3.08 4.55 4.13 6.22c.35.55.87 1.29 1.51 1.49h-3.6c.35-.11.55-.51.55-.86 0-.31-.12-.63-.32-.91l-3.14-4.74-2.96 4.37c-.2.31-.35.63-.35 1.03 0 .51.38.94.87 1.11H6.12c.64-.2 1.45-1.17 1.86-1.74l3.4-5.03L7.7 22.7C7.37 22.17 6.67 21.2 6 21Z" fill="#FEFFFF"/></svg>