<!-- by TradingView --><svg width="56" height="56" viewBox="0 0 56 56" xmlns="http://www.w3.org/2000/svg"><path fill="#134687" d="M0 0h56v56H0z"/><path d="M31.14 14.03c.04-.03.08-.04.12-.02.05.02.06.06.06.1l-2.08 14.77c-.01.08-.06.12-.14.12h-2.4c-.09 0-.13-.05-.12-.14l1.21-8.12c0-.01 0-.01 0 0a66.79 66.79 0 0 1-4.8 5c-.12.12-.23.11-.34-.03l-.52-.7a33.6 33.6 0 0 1-2.79-4.22.04.04 0 0 0-.04-.02c-.02 0-.03.02-.03.04l-1.14 8.06c0 .09-.06.13-.15.13h-2.35c-.1 0-.14-.05-.13-.14l2.08-14.76a.1.1 0 0 1 .09-.1.1.1 0 0 1 .11.05l5.46 7.74c.04.05.08.06.12.01l7.78-7.77Zm.95-.02c1.17-.02 2.3-.01 3.4.03.95.03 1.74.33 2.36.9.6.56.99 1.33 1.15 2.3a3.96 3.96 0 0 1-1.52 3.88c-.07.06-.06.1.02.14.76.32 1.3.84 1.65 1.57.31.66.41 1.4.31 2.24-.1.8-.37 1.54-.82 2.19a3.65 3.65 0 0 1-1.75 1.42 6.1 6.1 0 0 1-1.84.3c-.54.02-2.11.02-4.7.02-.08 0-.1-.04-.1-.11l1.74-14.79c.01-.06.04-.09.1-.09Zm1.77 8.53h-.28c-.05 0-.07.03-.08.08l-.45 3.8c0 .05.02.08.07.08.73.06 1.48.03 2.26-.07a1.68 1.68 0 0 0 1.4-1.04c.24-.54.27-1.15.08-1.8-.14-.49-.55-.8-1.24-.95-.4-.08-.98-.12-1.76-.1Zm.48-6.05c-.08 0-.12.05-.13.13l-.43 3.6c0 .08.02.12.1.13a2.8 2.8 0 0 0 1.52-.24c.52-.25.85-.63 1-1.15.5-1.73-.19-2.55-2.06-2.47Z" fill="#fff"/><path d="m31.02 38.36 1.45 5.52c0 .03 0 .06-.03.08a.08.08 0 0 1-.09 0L27.04 41a.08.08 0 0 0-.08 0l-5.83 2.99a.07.07 0 0 1-.1-.01c-.02-.03-.02-.06 0-.09l2.7-5.5c.02-.05 0-.08-.03-.1l-4.67-3.13c-.03-.02-.04-.05-.03-.09.02-.03.04-.07.08-.07h6.76c.04 0 .06 0 .07-.02l2.65-4.94a.07.07 0 0 1 .08-.04c.03 0 .06.02.06.06l1.29 4.9c0 .04.03.04.07.04h5.86c.04 0 .07.03.08.07 0 .04 0 .06-.03.08l-4.92 3.13c-.03.02-.04.05-.03.08Z" fill="#FED201"/></svg>