<!-- by TradingView --><svg width="56" height="56" viewBox="0 0 56 56" xmlns="http://www.w3.org/2000/svg"><path fill="#F0F3FA" d="M0 0h56v56H0z"/><path d="M28.68 12c3.76.2 7 1.49 9.73 3.84 3.44 2.98 5.3 6.8 5.59 11.48v1.34c-.05.31-.08.63-.12.94A15.85 15.85 0 0 1 38.56 40 16 16 0 0 1 28.72 44h-1.4A16.05 16.05 0 0 1 12 28.68V27.4a15.79 15.79 0 0 1 5.6-11.58A15.83 15.83 0 0 1 27.32 12h1.37ZM28 13a15 15 0 1 0 0 30 15 15 0 0 0 0-30Zm0 .35a14.65 14.65 0 1 1 0 29.3 14.65 14.65 0 0 1 0-29.3ZM24.23 31a.21.21 0 0 0-.16.07.26.26 0 0 0-.07.18v5.19c0 .31-.05.56.3.56h2.51c.05 0 .1-.03.14-.07.03-.04.05-.09.05-.14v-.28c0-.05-.02-.1-.05-.14a.17.17 0 0 0-.13-.06H24.8a.07.07 0 0 1-.05-.02.1.1 0 0 1-.02-.06V34.3a.1.1 0 0 1 .02-.08.09.09 0 0 1 .07-.02h1.67c.05 0 .1-.03.14-.07.03-.04.05-.1.05-.15v-.2a.26.26 0 0 0-.06-.17.2.2 0 0 0-.15-.07h-1.65a.08.08 0 0 1-.07-.03.1.1 0 0 1-.02-.07v-1.67a.1.1 0 0 1 .02-.06.08.08 0 0 1 .06-.03h2c.04 0 .09-.02.12-.05a.2.2 0 0 0 .05-.14v-.3c0-.04-.02-.1-.05-.13a.17.17 0 0 0-.13-.06h-2.57Zm3.96 0c-.05 0-.1.02-.13.06a.23.23 0 0 0-.06.15v.28c0 .06.02.1.05.14.03.04.08.06.13.06h1.39l.05.03.02.06v5.06c0 .04.01.07.03.1.02.03.05.04.09.04L30 37l.24-.02c.03 0 .06-.01.08-.04a.15.15 0 0 0 .04-.1v-5.06c0-.02 0-.05.02-.06a.07.07 0 0 1 .05-.03h1.4c.04 0 .09-.02.12-.05a.21.21 0 0 0 .05-.14v-.29a.23.23 0 0 0-.06-.15.18.18 0 0 0-.13-.06H28.2Zm5 0c-.03 0-.05 0-.08.02a.16.16 0 0 0-.05.06.18.18 0 0 0 0 .16l1.54 3.3c.04.08.06.18.06.27v2.05c0 .02 0 .05.02.07a.1.1 0 0 0 .05.04c.07.02.17.03.3.03.13 0 .23-.01.3-.03a.1.1 0 0 0 .05-.04.12.12 0 0 0 .03-.07v-2.04c0-.1.02-.2.06-.28l1.55-3.3a.18.18 0 0 0 0-.16.16.16 0 0 0-.06-.05.15.15 0 0 0-.08-.03h-.38a.34.34 0 0 0-.2.06c-.06.04-.1.1-.13.17l-1.1 2.57-.01.02h-.01l-.02.01h-.01l-.01-.01-.01-.02-1.1-2.58a.38.38 0 0 0-.13-.16.34.34 0 0 0-.2-.06h-.38Zm-10.83.2c-1.23-.51-2.57-.01-3.1 1.34-.43 1.1-.37 2.96.48 3.83.78.8 2.27.82 3.09.16.05-.04.1-.1.12-.17a.5.5 0 0 0 .05-.2v-.23c0-.03 0-.06-.02-.08a.14.14 0 0 0-.2-.05l-.5.3c-.67.32-1.54.3-2.02-.34-.8-1.03-.66-3.64.8-4 .54-.14 1.1.02 1.68.48.03.02.05.03.08.03a.15.15 0 0 0 .14-.07.17.17 0 0 0 .02-.09v-.3a.48.48 0 0 0-.04-.2.45.45 0 0 0-.11-.15c-.12-.1-.28-.19-.47-.27Zm8.66-4.91c-2.9-1.35-6.67-1.7-9.31.35A9.18 9.18 0 0 0 19 30h.03l.79-.58a9.78 9.78 0 0 1 9.59-.75c.02 0 .04-.02.05-.04l1.57-2.26.01-.02v-.02l-.01-.03-.02-.01Zm2.18-3.14c-2.68-1.05-6.23-1.63-8.9-.21a9.05 9.05 0 0 0-3.66 4 .03.03 0 0 0 .03 0c3.14-2.75 6.9-3.06 10.75-1.27a.1.1 0 0 0 .12-.03l1.69-2.41v-.07h-.03Zm-2.02-3.77c-1.79-.55-3.83-.6-5.4.5a11.37 11.37 0 0 0-3.54 4.08h.02c1.52-1.53 4.02-2.7 6.32-2.5a21.16 21.16 0 0 1 5.05 1.15.1.1 0 0 0 .06-.04l2.3-3.32v-.04l-.02-.01h-.02a6.5 6.5 0 0 1-2.28.64c-.86.06-1.53-.18-2.49-.46Z" fill="#1E60AD"/></svg>