<!-- by TradingView --><svg width="56" height="56" viewBox="0 0 56 56" xmlns="http://www.w3.org/2000/svg"><path fill="url(#a)" d="M0 0h56v56H0z"/><path d="M23.66 20.92c.3-.06.49.06.54.37.43 2.4 1.04 4.75 1.84 7.05a23.77 23.77 0 0 0 4.1 7.5 16.5 16.5 0 0 0 4.6 3.77 42.47 42.47 0 0 1 1.99 1.2.1.1 0 0 1-.01.1.1.1 0 0 1-.04.03c-.27.1-.57.04-.86.03a25.58 25.58 0 0 1-4.37-.67 19.75 19.75 0 0 1-12.64-9.23 22.4 22.4 0 0 1-2.66-6.68c-.07-.3-.09-.52-.05-.64.07-.2.22-.36.46-.46 2.32-1 4.69-1.9 7.1-2.37Zm13.04-7.9c.4-.04.79-.01 1.18.06a.2.2 0 0 1 .1.05c.03.02.05.05.05.09a.9.9 0 0 1 0 .38c-.48 2.63-.85 5.2-1.1 7.69-.04.37-.03.64-.08.95l-.04.38a49.58 49.58 0 0 0-.08 5.65c.05 1.2.2 2.43.44 3.71.27 1.44.7 2.81 1.27 4.12.38.86.86 1.67 1.45 2.42a10.02 10.02 0 0 0 2.1 2.22.1.1 0 0 1 0 .05.1.1 0 0 1-.02.05.1.1 0 0 1-.04.02.72.72 0 0 1-.34 0c-.6-.13-1.19-.3-1.77-.48A19.41 19.41 0 0 1 28.54 29.8a29.68 29.68 0 0 1-2.46-10.54L26 17.54c-.02-.82-.01-1.64.01-2.45.02-.48.49-.58.89-.67 2.75-.6 5.53-1.04 8.34-1.31.5-.05.93-.06 1.47-.1ZM16.25 30.76c.17-.1.3-.06.4.1l.51.94a18.31 18.31 0 0 0 4.54 5.54 20.65 20.65 0 0 0 5.2 2.94c.06.02.15.1.25.21a.05.05 0 0 1 0 .07.42.42 0 0 1-.26.1 25.4 25.4 0 0 1-6.6-.51c-2.86-.64-5.81-2.02-7.49-4.44a5.28 5.28 0 0 1-.79-1.71.33.33 0 0 1 .07-.3c.08-.1.2-.2.35-.32 1.22-.95 2.5-1.83 3.82-2.62Z" fill="#fff"/><defs><linearGradient id="a" x1="28" y1="0" x2="28" y2="56" gradientUnits="userSpaceOnUse"><stop stop-color="#240D5D"/><stop offset="1" stop-color="#463EB7"/></linearGradient></defs></svg>