<!-- by TradingView --><svg width="56" height="56" viewBox="0 0 56 56" xmlns="http://www.w3.org/2000/svg"><path fill="#C62F3C" d="M0 0h56v56H0z"/><path d="M51 29.13C51 31.7 49.7 33 47.06 33 44.61 33 43 31.78 43 29.26V23h2.56l-.01 5.45c0 1.39 0 2.69 1.66 2.69 1.7 0 1.78-1.15 1.78-2.62L49 23h2v6.13ZM42 33h-2.08L36 26.33V33h-2V23h2.64L40 28.85V23h2v10ZM32.69 23 29 28.78V33h-2.5v-4.17L22.95 23h3.19l2.18 3.82L30.54 23h2.15ZM23 27.97c0 2.66-1.67 5.03-4.5 5.03-2.86 0-4.5-2.33-4.5-5.03 0-2.66 1.78-4.97 4.5-4.97 2.8 0 4.5 2.38 4.5 4.97Zm-2.5 0c0-1.25-.4-2.97-2-2.97-1.62 0-2 1.7-2 2.97 0 1.27.4 3.03 2 3.03 1.67 0 2-1.78 2-3.03ZM14 33h-2.92l-2.06-4.25-1.52 1.9V33L5 33V23h2.54v4.63L10.89 23h2.5l-2.63 3.6L14 33Z" fill="#F7F7F7"/></svg>