<!-- by TradingView --><svg width="56" height="56" viewBox="0 0 56 56" xmlns="http://www.w3.org/2000/svg"><path fill="#F0F3FA" d="M0 0h56v56H0z"/><circle cx="5.5" cy="32.5" r="1.5" fill="#F26937"/><path d="M17 28a4 4 0 1 0-4 4v2a6 6 0 1 1 0-12 6 6 0 0 1 0 12v-2a4 4 0 0 0 4-4Z" fill="#F26937"/><path d="M22 26h-2v5c0 1 .7 3 3.5 3s3.5-2 3.5-3v-5h-2v5c0 .33-.3 1-1.5 1s-1.5-.67-1.5-1v-5ZM30 24h-2v7c0 2.4 2 3 3 3h1v-2h-1c-.8 0-1-.67-1-1v-3h2v-2h-2v-2ZM50 24h-2v7c0 2.4 2 3 3 3h1v-2h-1c-.8 0-1-.67-1-1v-3h2v-2h-2v-2ZM43 26a4 4 0 0 1 3.87 5h-5.6a2 2 0 0 0 3.37.14l1.43 1.43A3.99 3.99 0 0 1 39 30a4 4 0 0 1 4-4Zm0 2a2 2 0 0 0-1.73 1h3.46A2 2 0 0 0 43 28ZM36.56 28.54c-.04-.5-.33-.8-.96-.8-.38 0-.85.13-.86.6-.02.32.24.5.52.6.12.06.27.1.44.14l.58.14c1.23.28 2.2 1.04 2.22 2.39 0 1.65-1.4 2.39-2.89 2.39-1.76 0-3.1-1.14-3.11-3h1.83c.04.7.57 1.26 1.25 1.26.42 0 .94-.15.95-.65-.01-.52-.68-.67-1.07-.76l-.7-.17c-1.13-.27-2.04-.96-2.04-2.2 0-1.6 1.42-2.48 2.88-2.48 1.51 0 2.8.94 2.8 2.54h-1.84Z" fill="#464141"/></svg>