<!-- by TradingView --><svg width="56" height="56" viewBox="0 0 56 56" xmlns="http://www.w3.org/2000/svg"><path fill="url(#a)" d="M0 0h56v56H0z"/><path d="M20 13a2 2 0 0 1 1.29.47 15.94 15.94 0 0 1 15.12.92c-3.81-2.34-9.92-1.7-14.44.28A2.01 2.01 0 0 1 20 17a2 2 0 1 1 0-4Zm22.27 22.23a15.93 15.93 0 0 0-.48-15.34 2 2 0 1 0-1.04.97c1.97 4.13 2.17 10.13 1.52 14.37ZM37 42a2 2 0 0 1-.89-.2A15.93 15.93 0 0 1 28 44a16 16 0 0 1-8.91-2.7c4.15 2.7 11.35 1.82 16.05-.57A2 2 0 0 1 37 38a2 2 0 1 1 0 4ZM15.61 17.87a15.93 15.93 0 0 0-2.14 16.84 2 2 0 1 0 1.38-.7c-1.95-4.67-1.95-12.28.76-16.14Z" fill="url(#b)"/><path d="M38.43 24.5c-3.16-7.96-16.03-7.59-19.22-.1a2 2 0 1 1-1.47-.38 11 11 0 0 1 20.7.48Zm-1.64 7.1c-3.38 8.19-17.53 7.78-19.53-1.23a11 11 0 0 0 21 1.61 2 2 0 1 0-1.47-.38Z" fill="url(#c)"/><path d="M32 22.5a2.5 2.5 0 0 1-4.74 1.12c-2.79.69-5.44 4.94-4.78 7.14-1.4-3.84.54-9.34 5-9.74A2.5 2.5 0 0 1 32 22.5Zm-3.48 12.48a2.5 2.5 0 1 1 .1-2.8c2.6-.68 5.33-4.1 5.1-6.32 1.03 3.74-1 8.74-5.2 9.12Z" fill="url(#d)"/><defs><linearGradient id="a" x1="10.42" y1="9.71" x2="68.15" y2="76.02" gradientUnits="userSpaceOnUse"><stop stop-color="#1A1E21"/><stop offset="1" stop-color="#06060A"/></linearGradient><linearGradient id="b" x1="11.5" y1="29.5" x2="45" y2="29.5" gradientUnits="userSpaceOnUse"><stop stop-color="#9AD78E"/><stop offset=".11" stop-color="#447544"/><stop offset=".29" stop-color="#62DC6D"/><stop offset=".47" stop-color="#BAE671"/><stop offset=".76" stop-color="#63922C"/><stop offset=".89" stop-color="#95C558"/><stop offset="1" stop-color="#276830"/></linearGradient><linearGradient id="c" x1="18" y1="27" x2="39" y2="26.5" gradientUnits="userSpaceOnUse"><stop stop-color="#61DD61"/><stop offset=".36" stop-color="#96CA42"/><stop offset="1" stop-color="#2F643A"/></linearGradient><linearGradient id="d" x1="31.5" y1="22.5" x2="24.5" y2="34" gradientUnits="userSpaceOnUse"><stop stop-color="#3D7F2C"/><stop offset=".46" stop-color="#9CEA38"/><stop offset="1" stop-color="#7CDA5A"/></linearGradient></defs></svg>