<!-- by TradingView --><svg width="56" height="56" viewBox="0 0 56 56" xmlns="http://www.w3.org/2000/svg"><path fill="#F0F3FA" d="M0 0h56v56H0z"/><path d="M25.59 35.58c-.65 7.06 4.67 8.83 7.41 8.83-.62.24-2.43.7-4.75.57-3.47 0-17.25-3.44-17.25-16.5C11 15.4 20.15 13 22.93 13c2.78 0 5.32 1.49 5.32 4.47 0 5.5-7.52 6.88-7.52 12.15a5.77 5.77 0 0 0 4.86 5.96Z" fill="#05295A"/><path d="M30.41 20.42c.65-7.06-4.67-8.83-7.41-8.83.62-.24 2.43-.7 4.75-.57 3.47 0 17.25 3.44 17.25 16.5C45 40.6 35.85 43 33.07 43c-2.78 0-5.32-1.49-5.32-4.47 0-5.5 7.52-6.88 7.52-12.15a5.77 5.77 0 0 0-4.86-5.96Z" fill="#BA030E"/><path d="M26.75 26.72A10.67 10.67 0 0 0 30.5 21c.45 0 2.5 1.28 2.5 2.8 0 1.52-1.25 4.08-3.3 5.6-2.9 2.15-4.01 4.63-4.2 5.6-1.7-.23-2.5-1.4-2.5-2.22 0-.81.57-3.5 3.75-6.06Z" fill="#888686"/></svg>