<!-- by TradingView --><svg width="56" height="56" viewBox="0 0 56 56" xmlns="http://www.w3.org/2000/svg"><path fill="#F0F3FA" d="M0 0h56v56H0z"/><path d="M33.85 13.07c.59.5 1.29.64 1.58.31.28-.32.04-.99-.54-1.48-.58-.5-1.28-.64-1.57-.31-.29.32-.05.99.53 1.48Z" fill="#241A57"/><path d="M31.33 16.63c.7.32 1.5.13 1.76-.43s-.11-1.28-.82-1.6c-.71-.31-1.5-.12-1.76.44s.1 1.28.82 1.6ZM28.53 20.53c.97-.05 1.73-.74 1.7-1.55-.04-.82-.86-1.44-1.84-1.4-.97.04-1.73.74-1.7 1.55.04.82.86 1.44 1.84 1.4Z" fill="#4E699D"/><path d="M36.56 19.62c.7.4 1.5.34 1.8-.15.28-.49-.06-1.2-.76-1.61-.7-.4-1.51-.34-1.8.15-.29.49.05 1.2.76 1.6ZM32.94 23.02c.85.17 1.65-.23 1.79-.9.14-.67-.43-1.35-1.28-1.52-.84-.17-1.64.23-1.78.9-.14.66.43 1.34 1.27 1.52Z" fill="#241A57"/><path d="M24.46 24.05c1.17-.32 1.92-1.28 1.67-2.15-.25-.86-1.4-1.3-2.57-.97-1.17.32-1.92 1.28-1.67 2.14.25.87 1.4 1.3 2.57.98Z" fill="#7BA6CD"/><path d="M29.13 26.59c1.08-.06 1.92-.8 1.87-1.65-.04-.86-.96-1.5-2.04-1.45-1.08.06-1.92.8-1.87 1.65.05.85.96 1.5 2.04 1.45Z" fill="#4E699D"/><path d="M38.2 26c.76.14 1.46-.23 1.57-.82.12-.6-.4-1.19-1.16-1.33-.75-.13-1.45.24-1.56.83-.11.6.4 1.18 1.16 1.32Z" fill="#241A57"/><path d="M18.39 27.17c1.46-.3 2.5-1.24 2.3-2.1-.18-.84-1.51-1.28-2.97-.97-1.47.3-2.5 1.24-2.31 2.1.18.84 1.52 1.28 2.98.97ZM17.72 31.9c-1.47-.31-2.5-1.26-2.31-2.11.18-.86 1.52-1.3 2.98-1 1.46.32 2.5 1.27 2.3 2.12-.18.86-1.51 1.3-2.97 1Z" fill="#A6E0F9"/><path d="M24.14 29.57c1.22 0 2.22-.7 2.22-1.56 0-.87-.98-1.58-2.2-1.59-1.23 0-2.23.7-2.23 1.56 0 .87.98 1.58 2.2 1.59Z" fill="#7BA6CD"/><path d="M33.7 29.22c.89 0 1.61-.55 1.62-1.23 0-.69-.72-1.25-1.61-1.25-.9 0-1.62.55-1.62 1.23 0 .69.71 1.25 1.6 1.25Z" fill="#241A57"/><path d="M14 28.6c0 .26-.11.4-.34.4h-.81C10.28 29 9 28.72 9 28.15v-.28c0-.57 1.28-.86 3.85-.87h.81c.23 0 .34.12.34.38v1.22Z" fill="#A6E0F9"/><path d="M29.04 32.48c1.06.01 1.92-.64 1.93-1.47 0-.82-.84-1.5-1.9-1.5-1.05-.01-1.9.64-1.91 1.47-.01.82.83 1.5 1.88 1.5Z" fill="#4E699D"/><path d="M38.57 32.16c.8-.1 1.36-.66 1.28-1.23-.08-.58-.78-.95-1.57-.84-.79.1-1.36.66-1.28 1.23.08.57.79.95 1.57.84Z" fill="#241A57"/><path d="M23.73 34.95c1.07.2 2.06-.3 2.2-1.09.15-.8-.6-1.59-1.67-1.78-1.07-.19-2.06.3-2.2 1.1-.15.79.6 1.58 1.67 1.77Z" fill="#7BA6CD"/><path d="M33.47 35.4c.84-.16 1.4-.82 1.27-1.47-.14-.66-.92-1.05-1.76-.88-.83.16-1.4.83-1.26 1.48.14.65.92 1.04 1.75.88Z" fill="#241A57"/><path d="M28.3 38.34c.94.1 1.77-.41 1.86-1.16.08-.75-.6-1.44-1.54-1.54-.94-.11-1.77.4-1.86 1.16-.08.74.6 1.43 1.54 1.54Z" fill="#4E699D"/><path d="M37.57 38.2c.7-.42 1.01-1.14.72-1.6-.3-.46-1.1-.5-1.78-.08-.7.43-1.01 1.14-.72 1.6.3.47 1.1.5 1.78.08ZM32.23 41.38c.67-.31 1.02-1 .76-1.54-.25-.54-1-.72-1.68-.42-.68.31-1.02 1-.77 1.54.26.54 1.01.73 1.69.42ZM34.83 44.18c.6-.45.88-1.08.62-1.41-.25-.33-.95-.23-1.55.22-.6.45-.88 1.09-.62 1.42.25.32.95.22 1.55-.23Z" fill="#241A57"/></svg>