<!-- by TradingView --><svg width="56" height="56" viewBox="0 0 56 56" xmlns="http://www.w3.org/2000/svg"><path fill="#F0F3FA" d="M0 0h56v56H0z"/><path fill-rule="evenodd" d="M30.53 11.05 28 10l-2.53 1.05a26.64 26.64 0 0 0-14.42 14.42L10 28l1.05 2.53a26.64 26.64 0 0 0 14.42 14.42L28 46l2.53-1.05a26.64 26.64 0 0 0 14.42-14.42L46 28l-1.05-2.53a26.64 26.64 0 0 0-14.42-14.42ZM28 44a41.05 41.05 0 0 0 16-16 39.25 39.25 0 0 0-16-16c-6.89 3.7-12.1 9.3-16 16a42.02 42.02 0 0 0 16 16Zm11.93-20.75A37.46 37.46 0 0 0 28 13a39.17 39.17 0 0 0-14.38 13.97.29.29 0 0 1 .1-.02c.2-.02 1.01.07 1.65.29.19.06.35-.09.52-.24.14-.14.28-.27.45-.28.38 0 .75-.07.99-.42.13-.2.28-.39.42-.57.16-.2.26-.23.43-.27l.09-.03c.65-.2 1-1 1.3-1.71.12-.27.23-.53.35-.74.2-.34.48-.62.76-.9s.56-.56.76-.9c.26-.42.43-.4.52.1l.02.13c.03.19.07.41.17.58.11.18.32.42.53.44.04 0 .07 0 .1-.03.16-.15.27-.29.33-.43.23-.56.49-1.08.78-1.55.06-.11.29-.63.66-1.54.14-.34.36-.6.59-.86l.12-.15c.12-.15.35-.14.57-.14.18.01.35.02.49-.05.14-.08.24-.11.27-.1h.05c.13.02.4.06.45-.07l.24-.7c.18-.55.36-1.1.62-1.63.02-.06.07-.1.12-.14a.3.3 0 0 1 .18-.04c.13.01.26.06.4.14.5.33 1.02.58 1.54.75.11.04.17.12.16.25a6.6 6.6 0 0 0 .14 1.59l.01.05c.09.42.15.7.46.95.13.1.29.06.46-.1.07-.07.13-.07.2-.01.37.3.7 1.3.99 2.15.14.42.27.8.38 1.05.19.39.5.67.95.84.26.1.39-.05.51-.2.1-.1.18-.2.32-.2.16 0 .43.35.56.53l.05.06c.2.25.45.38.73.33h.02c.18-.03.23-.04.37.09.35.34.78.59 1.3.75.33.1.58-.12.85-.33.19-.16.39-.32.61-.36l.67-.08Zm1.65 2.36A38 38 0 0 1 43 28a38.67 38.67 0 0 1-3.26 5h-23.4A40.2 40.2 0 0 1 13 28l.05-.08.06-.03c.2-.1.53-.25.72-.15l.7.4a.1.1 0 0 0 .11 0 7.2 7.2 0 0 1 1.63-.53c.16-.04.47 0 .51.21.01.05 0 .1-.02.13l-.17.33c-.37.7-.83 1.58-1.47 1.9a.11.11 0 0 0-.07.1v.65c0 .06.07.1.11.05.16-.15.32-.34.48-.55.26-.34.49-.69.72-1.03.54-.8 1.06-1.57 1.82-2.24.12-.11.22-.18.3-.21 1-.43 1.62-.8 2.34-1.61.09-.1.08-.35.08-.55v-.18c.01-.18.1-.25.25-.2.16.03.26.14.23.32-.02.15-.02.3 0 .48.03.27-.28.64-.49.9l-.09.11c-.19.24-.14.31.14.21l.47-.2c.27-.11.49-.3.64-.53.2-.29.44-.63.74-1.03.53-.7 1-1.48 1.38-2.36a.21.21 0 0 1 .34-.07l.12.1c.17.14.4.32.36.5-.05.4-.09.84-.1 1.35-.01.34-.07.6-.17.98l-.05.25c-.1.4 0 .47.31.2a1.92 1.92 0 0 0 .6-1.31c.06-.59.12-.99.2-1.2.04-.14.17-.27.3-.4.16-.16.32-.32.32-.5 0-.48.05-.94.14-1.4l.01-.04c.03-.16.09-.47.28-.45.2.01.34.13.42.35.17.46.18 1.11.2 1.64v.22c0 .06.06.1.1.06.2-.17.36-.17.48-.02.04.05.06.11.09.18.03.07.06.15.11.22.03.03.06.05.1.05.22.03.4.13.56.29.03.03.09 0 .09-.04.01-.23-.03-.45-.12-.67l-.08-.21a8.13 8.13 0 0 1-.67-2.15 4.03 4.03 0 0 1-.04-.67c.02-.16.24-.21.42-.26a.93.93 0 0 0 .21-.06c.14-.08.2-.27.24-.46.05-.2.1-.41.26-.52.19-.13.37.2.4.35l.15.95c.02.15.08.3.17.45l.72 1.05c.17.23.25.47.33.75.03.12.13.11.25.1.13 0 .27-.01.34.16l.27.9c.1.34.18.7.32 1.03.06.15.14.2.3.24.2.04.34.12.4.25l.59 1.15c.02.04.05.12.07.22.1.32.23.81.52.58.25-.2.53-.82.46-1.14-.04-.2-.07-.53.1-.64.17-.11.44.14.55.25.13.13.17.11.13-.06-.04-.18.1-.65.33-.38.33.4.65.9.95 1.5.06.12.15.21.26.28.13.07.18.03.13-.12a3.8 3.8 0 0 1-.13-.56c-.03-.22.14-.42.3-.23.3.33.51.62.69 1.06.16.4.35.9.55 1.48.04.1.1.18.18.25.17.15.19-.17.2-.34v-.07c.01-.13-.06-.28-.13-.42-.05-.1-.1-.2-.11-.3-.1-.53-.2-.98-.32-1.37-.05-.16.1-.32.25-.26.25.1.46.39.64.64.06.1.13.18.19.25.08.1.12.23.16.36.03.11.07.23.14.32.15.22.23-.25.22-.34 0-.22-.03-.67-.07-1.36-.04-.68.3-.73.73-.38.41.32.75.68 1 1.1.1-.15.13-.26.15-.36ZM20.56 37.7l-.73-.7h16.46l-.73.7h-15Zm1.92 1.75L22 39h12l-.48.45c-.2.2-.4.4-.6.55h-9.84c-.2-.16-.4-.35-.6-.55Zm2.1 1.55h6.93c-.75.53-1.52.94-2.3 1.35-.4.21-.8.42-1.2.65l-1.14-.62c-.78-.43-1.55-.84-2.3-1.38Zm-4.7-14h4.8l.85.7.85-.7h3.75l.83.7.83-.7h4.33l.88.74v4.9H19v-4.9l.88-.74Z" fill="#042993"/><path fill-rule="evenodd" d="m21.55 28.42-.4.2-.5-.41.4-.21.5.42Zm7.02-.42.4.18-.34.48h1.24V29h-.9v.61h.9v.36h-.9v.65H30V31h-1.04v.46h-.45v-.46h-1.1v-.36h1.1v-.65h-1.07v-.36l.42-.6h-.32v-.36h.57l.46-.66Zm-.18 1.01-.43.61h.55v-.6h-.12ZM33.78 28h.52v3.54h1.18v-2.9H36v3.35h-.52v-.1h-2.96v.1H32V28.64h.52v2.9h1.26V28Zm-13.44 1.08h1.2L20 30.48l.4.2.76-.68v1.99h.5v-1.82l.42.3.35-.26-.87-.58.99-.9h-2.21v.35ZM23 28.2h.5v.12h1.15l-.97 1.24c.36.28.92.91.92 1.69v.21l-.27-.1-.83-.33v.96H23v-3.8Zm.5 1.07v-.7h.55l-.55.7Zm0 1.48v-.96c.27.24.65.7.73 1.24l-.73-.28ZM27.2 29v.34H27v1.86l.62.44h2.7V32h-2.87l-.57-.37-.54.38-.35-.24.51-.35v-2.07H26V29h1.2Zm-.52-.48.4-.21-.34-.31-.4.2.34.32Z" fill="#042993"/><path fill="#042993" fill-opacity=".5" d="M19 34h18v2H19z"/></svg>