<!-- by TradingView --><svg width="56" height="56" viewBox="0 0 56 56" xmlns="http://www.w3.org/2000/svg"><path fill="#F0F3FA" d="M0 0h56v56H0z"/><path d="M39.98 27.32c3.44.57 6.08 1.34 7.59 1.9.34.13.5.48.4.81-.12.39-.57.6-.97.46a52.63 52.63 0 0 0-7.02-1.84 12 12 0 0 1-23.87.99l5.33-.66a6.63 6.63 0 0 0 13.19-1.11c-1.6-.16-3.26-.26-4.95-.26-12.18 0-22.2 3.26-25.68 4.89a51.34 51.34 0 0 1 12.04-4.32H16V28a12 12 0 0 1 23.98-.68Zm-18.56-.17a58.99 58.99 0 0 1 13.08-.49 6.63 6.63 0 0 0-13.08.49Z" fill="#F05E2D"/></svg>