<!-- by TradingView --><svg width="56" height="56" viewBox="0 0 56 56" xmlns="http://www.w3.org/2000/svg"><path fill="#0E264E" d="M0 0h56v56H0z"/><path d="M10 23 4 35h1l5.43-10.86L13 31h1l-3-8h-1Zm6 0h3a4 4 0 0 1 0 8h-3v-5h1v4h2a3 3 0 1 0 0-6h-3v-1Zm11 0h-1v4.5a3.5 3.5 0 1 0 7 0V23h-1v4.5a2.5 2.5 0 0 1-5 0V23Zm9 4v4h1v-3h1.95L41 31h1l-2.07-3.04A2.5 2.5 0 0 0 39.5 23H36v1h3.5a1.5 1.5 0 0 1 0 3H36Z" fill="#F2F2F2"/><path fill-rule="evenodd" d="M48 31a4 4 0 1 0 0-8 4 4 0 0 0 0 8Zm0-1a3 3 0 1 0 0-6 3 3 0 0 0 0 6Z" fill="#F2F2F2"/></svg>