<!-- by TradingView --><svg width="56" height="56" viewBox="0 0 56 56" xmlns="http://www.w3.org/2000/svg"><path fill="#F0F3FA" d="M0 0h56v56H0z"/><path d="m17.2 33.3 2.64-2.55 5-4.9a.23.23 0 0 1 .17-.06.23.23 0 0 1 .16.07L27.2 28a.2.2 0 0 1 0 .28l-7.27 7.08a7.43 7.43 0 0 1-2.41 1.92 5.15 5.15 0 0 1-5.22-.58A79.68 79.68 0 0 1 7.43 32c-2.04-2.15-1.85-5 .25-7.05a3236.99 3236.99 0 0 1 6.59-6.4.28.28 0 0 1 .3.07l2.07 2.18a.1.1 0 0 1 .03.07.1.1 0 0 1-.03.08c-2.19 2.1-4.39 4.25-6.6 6.43-.8.79-.81 1.6-.04 2.4a103.6 103.6 0 0 0 4.22 4.12c1.15 1.07 1.98.38 2.98-.59Z" fill="url(#a)"/><path d="M22.28 19.68c1.23-1.27 2.6-2.45 4.35-1.05.41.33 1.22 1.1 2.44 2.33l5.7 5.59a.38.38 0 0 0 .42.08.38.38 0 0 0 .12-.09l.44-.46 7.28-7.2a.1.1 0 0 1 .16.01l2.21 2.32a.13.13 0 0 1 0 .18c-2.79 2.6-5.6 5.3-8.42 8.1-.26.25-.61.49-1.05.71-1.32.59-2.37-.14-3.3-1.04a741.06 741.06 0 0 1-4.83-4.74l-2.76-2.8-.02-.01a.04.04 0 0 0-.03 0l-.02.01L15.42 31a.15.15 0 0 1-.16.03.15.15 0 0 1-.05-.03L13.1 28.8a.18.18 0 0 1 0-.25l9.18-8.86Z" fill="url(#b)"/><path d="M47.77 23.19a.16.16 0 0 1 .12.05l2.09 2.2a.08.08 0 0 1 0 .1l-5.87 5.7-4.92 4.83c-.24.23-.5.46-.76.68a5.07 5.07 0 0 1-5.67.7c-.44-.26-.8-.52-1.06-.77a11821.43 11821.43 0 0 1-4.5-4.41.14.14 0 0 1 .04-.16l2.16-1.96a.16.16 0 0 1 .21 0l3.68 3.57.92.75c.04.04.09.07.14.08.8.32 1.5.19 2.08-.38l2-1.94 4.88-4.74 4.35-4.26a.16.16 0 0 1 .11-.04Z" fill="url(#c)"/><defs><linearGradient id="a" x1="45.43" y1="27.87" x2="6" y2="27.87" gradientUnits="userSpaceOnUse"><stop offset=".25" stop-color="#5E98F9"/><stop offset=".61" stop-color="#7F52FC"/><stop offset="1" stop-color="#8D2EF8"/></linearGradient><linearGradient id="b" x1="45.43" y1="27.87" x2="6" y2="27.87" gradientUnits="userSpaceOnUse"><stop stop-color="#49C9F9"/><stop offset=".25" stop-color="#5E98F9"/><stop offset=".61" stop-color="#7F52FC"/><stop offset="1" stop-color="#8D2EF8"/></linearGradient><linearGradient id="c" x1="50" y1="30.59" x2="27.19" y2="30.59" gradientUnits="userSpaceOnUse"><stop offset=".04" stop-color="#85ADFF"/><stop offset="1" stop-color="#65D9FF"/></linearGradient></defs></svg>