<!-- by TradingView --><svg width="56" height="56" viewBox="0 0 56 56" xmlns="http://www.w3.org/2000/svg"><path fill="#F0F3FA" d="M0 0h56v56H0z"/><path d="M17.14 23c.02 0 .03 0 .03.02l1.39 4.87.02.01h.01l1.38-4.86c.01-.03.03-.04.05-.04h2c.04 0 .05.02.06.04l1.39 4.87.01.02c.01 0 .02 0 .02-.02l1.39-4.86c0-.03.03-.05.06-.05h2.42c.03 0 .04.01.03.04l-2.65 8.5c0 .02-.03.03-.06.03-.83-.16-1.64-.25-2.43-.25-.02 0-.04-.02-.04-.04l-1.19-4.16h-.02l-1.27 4.45c0 .02-.02.04-.05.05l-2.21.38c-.03 0-.05 0-.06-.03l-2.78-8.93c0-.03 0-.04.03-.04h2.47Zm-10.6 0c.03 0 .04.01.04.04v3.92l.01.02h.02l2.77-3.94a.09.09 0 0 1 .08-.04h3.01c.01 0 .02 0 .03.02v.03l-3.2 4.24v.06l2.96 4.13v.03h-.03a12.97 12.97 0 0 0-3.21-.26l-2.4-3.54h-.03l-.01.01v3.88c0 .01 0 .02-.02.02-.84.17-1.67.3-2.52.38-.03 0-.04-.01-.04-.04v-8.92c0-.03.02-.04.05-.04h2.49Zm45.35 0c.02 0 .03.01.03.04v2.1s0 .02-.02.02h-4.27c-.04 0-.05.01-.05.05v1.24c0 .01 0 .02.02.02h3.89c.02 0 .03.02.03.04v2.04c0 .02 0 .03-.02.03h-3.87c-.04 0-.05.01-.05.05v1.42c0 .01 0 .02.02.02h4.37c.02 0 .03.01.03.04v1.85c0 .03-.02.05-.05.04l-.33-.07a37.63 37.63 0 0 0-2.58-.43c-.93-.1-1.77-.11-2.54-.02-.5.05-.98.13-1.47.21-.02 0-.03 0-.03-.02v-8.65c0-.01 0-.02.02-.02h6.87Zm-14.06 0c.02 0 .03 0 .04.03l1.82 5.44.02.01.02-.01 1.85-5.43c0-.03.03-.04.06-.04h2.57c.03 0 .04.01.03.04l-3.32 8.93c-.01.02-.02.03-.04.03-.82-.06-1.66-.18-2.52-.35a.06.06 0 0 1-.05-.04l-3.14-8.57c0-.02 0-.04.03-.04h2.63Zm-5.19 0c.03 0 .05.01.05.04l3.09 8.2c0 .02 0 .02-.02.02-.62-.04-1.3-.02-2.04.07a39.27 39.27 0 0 0-2.68.44c-.8.14-1.51.21-2.17.23a10.71 10.71 0 0 1-2.14-.19l3.34-8.77a.06.06 0 0 1 .06-.04h2.51Zm-1.28 2.8h-.02l-1.38 4.1c0 .02 0 .03.03.03h2.72c.02 0 .03 0 .02-.02l-1.35-4.1c0-.01 0-.02-.02-.02Z" fill="#1F1E3E"/></svg>