<!-- by TradingView --><svg width="56" height="56" viewBox="0 0 56 56" xmlns="http://www.w3.org/2000/svg"><path fill="url(#a)" d="M0 0h56v56H0z"/><path d="M6.57 28h1.55l-.42-1.84h-.02L6.57 28Zm1.76.93H6L5.35 30H4l3.12-5h1.5l1.3 5H8.57l-.24-1.07ZM13.84 27.34c.8 0 1.14-.32 1.14-.81 0-.39-.26-.6-.89-.6h-1.08l-.25 1.41h1.08ZM10.97 30l.88-5h2.58c1.21 0 1.87.53 1.87 1.42 0 .9-.64 1.44-1.37 1.67l.92 1.91h-1.4l-.8-1.73H12.6L12.3 30h-1.32ZM19.02 25.93H17.1l.17-.93h5.17l-.16.93h-1.92L19.65 30H18.3l.7-4.07ZM23.52 25h4.2l-.17.93h-2.88l-.19 1.1h2.53l-.17.93h-2.52l-.2 1.1h2.93l-.16.94h-4.24l.87-5ZM31.08 27.34c.8 0 1.14-.32 1.14-.81 0-.39-.26-.6-.89-.6h-1.09L30 27.34h1.08ZM28.21 30l.88-5h2.58c1.21 0 1.87.53 1.87 1.42 0 .9-.64 1.44-1.37 1.67l.92 1.91h-1.4l-.81-1.73h-1.05l-.3 1.73h-1.32ZM36.6 25l-.88 5h-1.34l.87-5h1.34ZM38.52 28.43c.04.53.57.73 1.14.73.66 0 1.09-.26 1.09-.66 0-.25-.22-.36-.74-.46l-.97-.19c-.7-.13-1.28-.5-1.28-1.18 0-1.03 1.03-1.67 2.37-1.67 1.43 0 2.16.6 2.19 1.48h-1.24c-.03-.39-.4-.64-1.02-.64s-1 .26-1 .63c0 .27.24.38.72.47l1.02.2c.81.16 1.26.53 1.26 1.15 0 1.03-1.07 1.71-2.45 1.71-1.38 0-2.36-.56-2.38-1.57h1.3Z"/><path d="M52 24v7h-7v-7h7Zm-4.98 2-.52 3h.79l.52-3H47Zm1.39 0-.52 3h.78l.17-1.01h.7c.87 0 1.46-.4 1.46-1.14 0-.55-.43-.85-1.14-.85H48.4Zm1.29.56c.36 0 .51.13.51.36 0 .27-.14.46-.5.5h-.77l.15-.86h.6Z" fill="#FE5000"/><defs><linearGradient id="a" x1="10.42" y1="11.76" x2="8.45" y2="65.81" gradientUnits="userSpaceOnUse"><stop stop-color="#F9F9F9"/><stop offset="1" stop-color="#DBDBDB"/></linearGradient></defs></svg>