<!-- by TradingView --><svg width="56" height="56" viewBox="0 0 56 56" xmlns="http://www.w3.org/2000/svg"><path fill="#F0F3FA" d="M0 0h56v56H0z"/><path d="M12 26.94v2.14a15.78 15.78 0 0 0 4.25 9.81 15.91 15.91 0 0 0 11.7 5.1.04.04 0 0 0 .01-.04v-.02c-3.25-3.64-4.48-9-4.97-13.73l-.03-.3c-.05-.4-.1-.87-.02-1.08.62-1.59 2.27-2.36 3.9-2.56 1.9-.22 4.2.03 5.54 1.38.45.46.68.91.69 1.35.02.96-.1 2.56-.37 4.79a27.35 27.35 0 0 1-1.52 6.4c-.37 1-.94 1.98-1.7 2.94-.2.24-.4.4-.65.61a20.62 20.62 0 0 0-.24.21.04.04 0 0 0 .03.05A16.01 16.01 0 1 0 12 26.94Zm20.37-6.7a4.38 4.38 0 1 1-8.75 0 4.38 4.38 0 0 1 8.75 0Z" fill="#DE6226"/></svg>