<!-- by TradingView --><svg width="56" height="56" viewBox="0 0 56 56" xmlns="http://www.w3.org/2000/svg"><path fill="#F0F3FA" d="M0 0h56v56H0z"/><path d="M27.95 9c.04 0 .09.07.13.22l2.96 4.81a.1.1 0 0 1 0 .1l-3.08 5.01h-.02l-3.09-5a.1.1 0 0 1 0-.1l2.96-4.82c.05-.15.1-.22.14-.22Z" fill="#4F7942"/><path d="m27.94 35 .04-.04.01-.01a.04.04 0 0 0 0-.04l-1.67-2.85a.12.12 0 0 0-.1-.06h-2.9l-.01-.02a.03.03 0 0 1 0-.03l4.6-7.7a.04.04 0 0 1 .06-.02v.02l9.62 15.6a.1.1 0 0 1-.03.13.1.1 0 0 1-.05.02H9.16c-.03 0-.06-.01-.08-.03a.16.16 0 0 1-.06-.06.17.17 0 0 1 0-.17l14.22-23.09h.02a.04.04 0 0 1 .03 0h.01l3.06 4.97a.12.12 0 0 1 0 .13l-7.81 13.17a.04.04 0 0 0 0 .04l.03.04h9.36Z" fill="#0A214A"/><path d="M40.77 39.98 29.5 21.71a.04.04 0 0 1 0-.05l3.08-5a.04.04 0 0 1 .04-.02h.02l.01.02 14.33 23.27.01.03a.04.04 0 0 1-.02.03l-.02.01H40.8a.04.04 0 0 1-.03-.02Z" fill="#4F7942"/></svg>