<!-- by TradingView --><svg width="56" height="56" viewBox="0 0 56 56" xmlns="http://www.w3.org/2000/svg"><path fill="#1B2F55" d="M0 0h56v56H0z"/><path d="M28.26 21.52c-.02-.33.48-.37.51-.04 0 .2-.03.39-.08.57-.1.38-.27.73-.49 1.06.3.14.54.37.7.66a4.07 4.07 0 0 1 1.96-.35c.36.01.32.54-.04.5a5.2 5.2 0 0 0-1.1-.09c-.25.02-.5.05-.74.13.05.12.08.25.1.4.1.68-.19 1.31-.64 1.8.37.74.53 1.58.4 2.4A6.58 6.58 0 0 1 27.17 32a.26.26 0 0 1-.41-.03l-.26-.44-.26-.43-.23-.45-.11-.23-.1-.23-.2-.46c-.1-.23-.18-.5-.26-.72l-.13-.5c-.05-.16-.11-.58-.15-.75 0-.1-.02-.18-.03-.27l-.86.07-.7.04c-.41.03-.84.07-1.26.15-.55.1-1.67.54-2.2.74l-1.5.05c1.5-1.55 3.77-1.66 4.92-1.72a23.2 23.2 0 0 0 1.56-.1 5.86 5.86 0 0 1 .5-2.4c0 .01 0 0 0 0a6.63 6.63 0 0 0-4.82.14l.05.06c.7.8 1.71 1.3 2.74 1.56.27.08.57.13.85.18.07.02.12.09.1.16a.14.14 0 0 1-.15.11l-.59-.08a5.79 5.79 0 0 1-3.57-1.9l-.05-.08a.24.24 0 0 1 .1-.35 7.89 7.89 0 0 1 2.82-.8 5.9 5.9 0 0 1 2.82.4 1.8 1.8 0 0 1 1.55-.81c.23 0 .45.03.64.1.22-.47.34-1 .29-1.5Zm-.41 5.13a5.9 5.9 0 0 1-2.23.77c.02.25.06.51.1.74.04.22.12.48.17.7.07.22.14.47.22.68.1.25.26.65.38.9l.22.43c.07.15.18.34.29.52l.16-.22.13-.22c.81-1.27 1.28-2.92.63-4.34l-.07.04Zm-1.79-2.02a5.28 5.28 0 0 0-.44 1.65l-.02.35v.03a4.73 4.73 0 0 0 1.93-.69 4.6 4.6 0 0 0-.2-.26c-.08-.09-.2-.24-.29-.32-.3-.3-.63-.56-.98-.76Zm2.14-.66c-.38-.48-1.23-.5-1.68-.1-.05.05-.1.1-.14.17a5.22 5.22 0 0 1 1.66 1.47c.35-.45.49-1.03.16-1.54Z" fill="url(#a)"/><path d="M31.49 14.27c2.92-.93 5.99.63 7.42 3.18.79.12 1.56.42 2.25.89 2.2 1.5 2.57 4.41 1.52 6.69.48.35.82.88 1.03 1.43.28.78.34 1.6.25 2.4a4.22 4.22 0 0 1-.92 2.34c-1.04 1.29-2.7 1.92-4.28 2.28-.9.2-1.82.35-2.72.5-.88.13-1.78.24-2.63.43-.83.18-1.64.45-2.4.82a4.24 4.24 0 0 0-2.64 4.42c.15.77.63 1.57 1.1 2.24.16.24.34.48.52.7.18.22-.12.56-.38.34a8.64 8.64 0 0 1-1.89-2.44c-.2-.42-.32-.85-.35-1.29a5.14 5.14 0 0 1 2-4.46 8.55 8.55 0 0 1 1.9-1.07c1.43-.63 3.02-.86 4.54-1.1.52-.07 1.24-.21 1.76-.3 1.6-.3 3.34-.68 4.49-1.88.44-.47.7-1.07.82-1.69.19-.92.2-1.9-.22-2.75a2.38 2.38 0 0 0-.42-.6c-.02 0-.03-.02-.03-.02a.16.16 0 0 1-.12-.18l.02-.13.01-.09c.26-1.71.23-3.63-.86-5.06a7.04 7.04 0 0 0-2.6-1.96c-.06 0-.1-.06-.14-.1l-.22-.24c-1.71-1.8-4.03-3.06-6.59-2.46-.84.18-1.66.51-2.46.93l-.06.02a.2.2 0 0 1-.21-.01 9.2 9.2 0 0 0-2.22-.58 5.7 5.7 0 0 0-4.23.98 8.22 8.22 0 0 0-1.61 1.65.21.21 0 0 1-.19.08c-.22.03-.45.08-.67.13-2.76.6-4.99 1.88-5.15 4.92-.02.24-.02.5-.02.74l.01.25c0 .37.05.75.07 1.12a15.42 15.42 0 0 0-.97 1.81c-1.1 2.32-1.78 5.34-.05 7.51 1.98 2.4 5.12 3.22 8.15 2.61 1.13-.24 2.49-.52 3.05-1.61.23-.44.23-1.04-.02-1.46-.25-.44-.86-.71-1.44-.76-.58-.04-1.14.13-1.72.25-.67.15-1.33.3-2.02.39-.74.09-1.46.04-2.2-.18-.38-.14-.75-.35-1.02-.67a2.1 2.1 0 0 1-.41-.83c-.23-.89.17-1.74.65-2.42a7.5 7.5 0 0 1 3.35-2.5l.53.67a6.77 6.77 0 0 0-3.17 2.31c-.33.47-.65 1.08-.53 1.63l.02.1.03.1.01.04.02.04c.26.67 1.03.8 1.7.87.96.06 1.9-.21 2.83-.41.6-.13 1.22-.31 1.86-.29 1.24.04 2.46.76 2.61 2.06.17 1.12-.47 2.14-1.41 2.72-.76.47-1.67.68-2.53.86-2.75.58-5.81.01-7.97-1.81a6.88 6.88 0 0 1-1.44-1.58c-1.84-2.93-.5-6.61 1.32-9.22l.23-.3-.2-.59-.16-.62a5.01 5.01 0 0 1 1.08-4.43c1.34-1.47 3.47-2.06 5.43-1.96.36-.68.86-1.3 1.47-1.82a5.79 5.79 0 0 1 4.84-1.12c.77.16 1.51.41 2.2.8.7-.55 1.51-.99 2.4-1.26Z" fill="#fff"/><defs><linearGradient id="a" x1="27.56" y1="23.06" x2="20.92" y2="27.38" gradientUnits="userSpaceOnUse"><stop stop-color="#F3DC62"/><stop offset="1" stop-color="#fff"/></linearGradient></defs></svg>