<!-- by TradingView --><svg width="56" height="56" viewBox="0 0 56 56" xmlns="http://www.w3.org/2000/svg"><path fill="#F0F3FA" d="M0 0h56v56H0z"/><path d="M34.93 26.47c1.72.14 3.2.86 4.42 2.17a7.47 7.47 0 0 1 2.06 4.54c.06.67-.02 1.43-.25 2.26a7.64 7.64 0 0 1-2.14 3.68 6.8 6.8 0 0 1-3.86 1.77c-.33.04-1.2.1-2.63.11h-15.5l-.04-.02a.09.09 0 0 1-.04-.09l.02-.05 3.52-3.65c.09-.09.2-.19.33-.19h12.5c1.59 0 2.98 0 3.85-1.5.4-.68.56-1.44.48-2.25-.1-1-.55-1.78-1.33-2.32-.71-.5-1.6-.75-2.65-.74a530.77 530.77 0 0 0-6.17.1.07.07 0 0 1-.03-.08c0-.02 0-.03.02-.04l14.8-15.04a.45.45 0 0 1 .32-.13h3.3a.1.1 0 0 1 .09.12.1.1 0 0 1-.03.05L34.91 26.4a.03.03 0 0 0 0 .04v.01h.02Z" fill="#E20181"/><path d="M21.06 29.53a6.66 6.66 0 0 1-4.42-2.16 7.47 7.47 0 0 1-2.06-4.54 6.3 6.3 0 0 1 .25-2.27 7.64 7.64 0 0 1 2.14-3.67 6.8 6.8 0 0 1 3.85-1.77c.33-.05 1.2-.07 2.63-.08A8839.55 8839.55 0 0 1 39 15.02a.09.09 0 0 1 .03.09c0 .01 0 .03-.02.04l-3.5 3.71a.46.46 0 0 1-.32.14h-12.5c-1.58 0-3 0-3.86 1.5-.4.69-.56 1.44-.48 2.26.1 1 .54 1.77 1.33 2.32.71.5 1.6.74 2.65.73a495.63 495.63 0 0 0 6.16-.1.07.07 0 0 1 .03.08c0 .01 0 .03-.02.04L13.71 40.86a.44.44 0 0 1-.32.14h-3.3a.1.1 0 0 1-.08-.06.1.1 0 0 1 .02-.1l11.05-11.25.01-.02v-.02a.04.04 0 0 0-.03-.02Z" fill="#2E57A3"/></svg>