<!-- by TradingView --><svg width="56" height="56" viewBox="0 0 56 56" xmlns="http://www.w3.org/2000/svg"><path fill="#F0F3FA" d="M0 0h56v56H0z"/><path d="M28 13.91c.16 0 .25-.07.28-.21.22-1.2 1.45-1.68 2.3-1.7.2 0 .34.13.4.4l.02.1v3.73c0 .23-.13.42-.35.56l-2.17 1.44a.33.33 0 0 0-.1.09.42.42 0 0 0-.02.4l.04.06c.03.06.08.1.14.13a.2.2 0 0 0 .17-.03l2.13-1.46a.09.09 0 0 1 .05-.02l.06.02.03.04.02.06v4.98c0 .13-.05.26-.13.35a.39.39 0 0 1-.3.15h-5.14a.39.39 0 0 1-.3-.15.55.55 0 0 1-.13-.34v-4.98l.02-.06c0-.02.02-.04.04-.05a.09.09 0 0 1 .05-.01l.05.01 2.13 1.46a.2.2 0 0 0 .18.03c.06-.02.1-.07.14-.13l.03-.06a.4.4 0 0 0 .03-.27.4.4 0 0 0-.06-.13.33.33 0 0 0-.09-.1l-2.16-1.42c-.23-.15-.36-.34-.36-.56v-3.75c0-.03 0-.06.02-.1.06-.26.2-.4.4-.39.85.02 2.08.5 2.3 1.7.03.14.12.21.28.21Z" fill="#427C55"/><path d="M32 35.87v-3.4a.5.5 0 0 0-.15-.33.45.45 0 0 0-.33-.14h-7.07a.47.47 0 0 0-.33.15c-.1.09-.12.21-.12.34v6.74c0 .02-.02.03 0 .05l.04.01 3.88.01a.27.27 0 0 1 .21.11.29.29 0 0 1 .06.24.4.4 0 0 1-.13.24.39.39 0 0 1-.25.11h-3.74c-.03 0-.05 0-.07.02-.01.02 0 .04 0 .07v3.36a.73.73 0 0 1-.69.55h-7.8a.49.49 0 0 1-.45-.34 2.7 2.7 0 0 1-.06-.7V12.68c0-.56.25-.68.77-.68h7.54c.64 0 .69.34.69.92v10.6c0 .31.18.48.54.48h6.98c.39 0 .48-.37.48-.72v-10.8c0-.31.18-.47.52-.47h7.72c.52 0 .76.1.76.67v30.64c0 .45-.23.68-.69.68H32.5c-.34 0-.49-.2-.49-.59v-6.64l-.02-.03a.08.08 0 0 0-.04-.04H28.28a.27.27 0 0 1-.22-.12.29.29 0 0 1-.05-.23v-.02c.02-.09.07-.17.14-.23a.4.4 0 0 1 .26-.1h3.45c.03 0 .06-.01.09-.04.02-.02.05-.06.05-.1Z" fill="#427C55"/></svg>