<!-- by TradingView --><svg width="56" height="56" viewBox="0 0 56 56" xmlns="http://www.w3.org/2000/svg"><path fill="#044797" d="M0 0h56v56H0z"/><path d="M19.1 5.65c.06.16 0 .52.05.78.92 4.56 4.84 7.53 9.25 8.52.1.02.15.03.17.02a.2.2 0 0 0 .1-.18.23.23 0 0 0-.11-.18 14.51 14.51 0 0 1-3.7-3.06c-1.65-1.94-1.44-4.57.05-6.51a.09.09 0 0 1 .12-.03c.02.01.04.03.04.05v.06c-.81 2.06-1.05 5 1.09 6.37.36.23 1.3.77 2.8 1.62.74.42 1.56 1 2.43 1.78 2.41 2.1 2.63 4.37 3.04 7.57a10.2 10.2 0 0 0 4.15 7.13c.15.12.31.28.47.48 1.02 1.3-.83 1.91-1.75 1.7-1.66-.35-2.9-1.08-4.05-1.63a.99.99 0 0 0-.2-.07c-.6-.14-1.69-.15-1.9.63-.54 2-1.22 3.74-2.03 5.19-.26.45-.48.92-.67 1.4a.2.2 0 0 0 .07.23.2.2 0 0 0 .23 0c.82-.57 2.01-1.45 2.85-1.6.41-.06.74.12 1 .56 1 1.74.31 4.73-.1 6.62a.14.14 0 0 0 .11.16h.07A14.92 14.92 0 0 0 43 28.99a14.75 14.75 0 0 0-1.24-5.59 14.91 14.91 0 0 0-7.38-7.6.85.85 0 0 1-.45-.5l-.19-.58a.2.2 0 0 1 .17-.27c.04 0 .08 0 .12.02a16.42 16.42 0 0 1 7.8 6.75A15.52 15.52 0 0 1 44 29c.04 4.43-1.8 8.81-5.29 11.95a16.1 16.1 0 0 1-12.85 3.93 16 16 0 0 1-11.62-7.61 15.63 15.63 0 0 1-.47-15.3 16.03 16.03 0 0 1 7.5-7.18.32.32 0 0 1 .28 0l.68.4a.19.19 0 0 1 .1.17.19.19 0 0 1-.11.16A15.02 15.02 0 0 0 13 29.25c.01 1.77.38 3.79 1.12 5.38a.15.15 0 0 0 .17.08c2.3-.41 4.45-1.14 6.45-2.17 2.8-1.45 4.92-3.8 6.9-6.35 1.24-1.58 1.94-2.48 1.33-4.29a7.8 7.8 0 0 0-.64-1.25.69.69 0 0 1-.08-.2.58.58 0 0 1-.01-.2c0-.06.03-.12.06-.17a.34.34 0 0 1 .12-.12c.72-.41 1.44.81 1.93 1.5a.26.26 0 0 0 .45-.04c1.55-3.7-5.08-5.61-7.45-7.28-1.68-1.19-2.98-2.4-3.87-4.17a6.78 6.78 0 0 1-.57-4.37.12.12 0 0 1 .18.05Zm15.87 20.9-.26.19a.07.07 0 0 0-.01.09l.3.4c.22.32.46.61.66.82.2.2.32.3.37.27l.04-.03c.03-.01.02-.06 0-.14a6.37 6.37 0 0 0-.7-1.19l-.3-.4a.07.07 0 0 0-.05-.02.07.07 0 0 0-.05.01ZM24.1 42.97a.08.08 0 0 0-.06.05.07.07 0 0 0 .02.07c.06.07.13.12.23.14 1.67.4 5.83 1.12 6.73-.52a.67.67 0 0 0 .07-.19 14.38 14.38 0 0 0 .2-4.06.13.13 0 0 0-.15-.05c-1.5.48-2.68 1.85-3.6 2.74a6.78 6.78 0 0 1-3.44 1.82Z" fill="#FEFEFD"/></svg>