<!-- by TradingView --><svg width="56" height="56" viewBox="0 0 56 56" xmlns="http://www.w3.org/2000/svg"><path fill="#F0F3FA" d="M0 0h56v56H0z"/><path d="M12.6 24.54h-1.1v1.21h1.1c.47 0 .84-.18.84-.6 0-.41-.37-.6-.85-.6Zm-.08-2.21H11.5v1.06h1.02c.4 0 .71-.17.71-.53 0-.37-.3-.54-.71-.54ZM10 21h2.53c1.32 0 2.27.78 2.27 1.7 0 .62-.35 1.03-.87 1.25.64.25 1.07.7 1.07 1.37 0 .95-1 1.68-2.4 1.68H10v-6ZM17.99 26.23c.37 0 .51-.2.51-.48 0-.27-.14-.48-.51-.48-.38 0-.69.21-.69.48s.3.48.69.48Zm-1.45-3c.35-.12.9-.23 1.4-.23 1.3 0 2.06.5 2.06 1.61V27h-1.5v-.37c-.24.22-.44.37-.9.37-1.08 0-1.6-.6-1.6-1.25 0-.68.63-1.23 1.62-1.23.4 0 .64.11.88.28v-.21c0-.46-.21-.66-.72-.66-.43 0-.88.12-1.24.29v-1ZM26 21h1.5v3.3l1.02-1.3H30l-1.5 1.5L30 27h-1.46l-.87-1.78-.17.5V27H26v-6ZM34 26c.54 0 .5-.47.5-1s.04-1-.5-1c-.53 0-.5.47-.5 1s-.03 1 .5 1Zm0-3c1.13 0 2 .87 2 2 0 1.12-.87 2-2 2s-2-.88-2-2c0-1.13.87-2 2-2ZM38.98 24h-.95v3H36.5v-3H36v-1h.5v-.5c0-1 .9-1.5 2-1.5.16 0 .4.03.5.05v1.15a1.4 1.4 0 0 0-.45-.08c-.34 0-.52.19-.52.45V23h.95v1ZM22.5 23.56s.35-.56.91-.56c.97 0 1.59.62 1.59 1.44V27h-1.5v-2.27c0-.42-.03-.7-.5-.7-.46 0-.47.25-.5.66V27H21v-4h1.5v.56Z" fill="#202121"/><path d="M27 34.7c-.46.19-.98.3-1.53.3-1.98 0-3.47-1.3-3.47-3s1.5-3 3.47-3c.55 0 1.07.11 1.53.3v1.4a2.57 2.57 0 0 0-1.53-.49c-1.15 0-1.97.8-1.97 1.79 0 1 .8 1.79 1.97 1.79.62 0 1.17-.2 1.53-.47v1.38ZM28 35h1.5v-6H28v6ZM31.99 34.23c.37 0 .51-.2.51-.48 0-.27-.14-.48-.51-.48-.38 0-.69.21-.69.48s.3.48.69.48Zm-1.45-3c.35-.12.9-.23 1.4-.23 1.3 0 2.06.5 2.06 1.61V35h-1.5v-.37c-.24.22-.44.37-.9.37-1.08 0-1.6-.6-1.6-1.25 0-.68.63-1.23 1.62-1.23.4 0 .64.11.88.28v-.21c0-.46-.21-.66-.72-.66-.43 0-.88.12-1.24.29v-1ZM36.5 31.5c.25-.29.53-.5 1.1-.5.11 0 .29 0 .4.02v1.15c-.2-.08-.44-.12-.75-.12-.49 0-.72.26-.75.67V35H35v-4h1.5v.5Z" fill="#00967F"/><path d="M34.87 19.51A10.88 10.88 0 0 0 19.49 21h-2.46a12.89 12.89 0 0 1 17.84-3.96v2.47ZM16.99 28H15c0 7.18 5.78 13 12.91 13A12.8 12.8 0 0 0 36 38.14l-1.41-1.43A10.84 10.84 0 0 1 27.9 39 10.96 10.96 0 0 1 17 28ZM39 29h1.5v3.3l1.02-1.3H43l-1.39 1.42L43 35h-1.46l-.63-1.74-.41.52V35H39v-6ZM45.5 32.5h1c-.02-.4-.02-.5-.5-.5-.5 0-.44.14-.5.5Zm0 .83c.1.44.42.67 1 .67.51 0 .75-.09 1.13-.31v1c-.37.19-.9.31-1.5.31-1.23 0-2.13-.8-2.13-2 0-1.13.87-2 2.07-2 1.2 0 1.93.83 1.93 1.83 0 .16-.03.37-.07.5H45.5Z" fill="#00967F"/></svg>