<!-- by TradingView --><svg width="56" height="56" viewBox="0 0 56 56" xmlns="http://www.w3.org/2000/svg"><path fill="#F0F3FA" d="M0 0h56v56H0z"/><path d="M21.02 32.98V27.4h7.3c.14 0 .28 0 .43-.02.09-.01.17-.06.23-.13a.4.4 0 0 0 .09-.27c-.01-.2-.13-.3-.35-.33a3.35 3.35 0 0 0-.4-.02H21c.25-1 .85-2.44 1.96-2.63h5.44c.65-.02 1.3.09 1.91.32.7.28 1.24.74 1.43 1.55.17.7.12 1.4-.35 1.97-.18.2-.38.38-.6.54l.05.04c.88.36 1.25 1.27 1.14 2.28-.12 1.14-.7 1.82-1.8 2.1a5.4 5.4 0 0 1-1.27.19h-5.82l-1.94.01c-.04 0-.09 0-.13-.02Zm2.98-2.6.01.01h4.56c.1 0 .19 0 .28-.04a.33.33 0 0 0 .2-.15.37.37 0 0 0 .05-.25.35.35 0 0 0-.07-.23.3.3 0 0 0-.19-.13 1.89 1.89 0 0 0-.42-.05h-4.35l-.07.02v.82Zm10.92.02h6.44c.15 0 .3-.02.44-.05a.41.41 0 0 0 .21-.16.44.44 0 0 0 0-.5.41.41 0 0 0-.21-.16c-.14-.04-.3-.05-.44-.05H36.6a4.93 4.93 0 0 1-1.67-.25c-1.27-.45-1.8-1.5-1.64-2.78.16-1.25.82-1.97 2.07-2.26.43-.1.88-.16 1.32-.18l6.36-.01h1.59l.1.02-1.92 2.6h-5.82c-.16 0-.32 0-.48.02a.35.35 0 0 0-.23.12.37.37 0 0 0-.1.25.39.39 0 0 0 .07.28.37.37 0 0 0 .23.15c.14.04.3.05.44.05h5.06c.54 0 1.09.1 1.6.3.42.15.79.43 1.05.81.25.38.38.84.37 1.3.02.48-.05.95-.2 1.4a2.3 2.3 0 0 1-1.7 1.49 5.2 5.2 0 0 1-1.26.2h-6.5l-2.18.01-.16-.02c.2-1.07.83-2.37 1.92-2.58Zm-21.19-3.17a.43.43 0 0 1-.05-.25c0-.08.02-.16.06-.23.04-.06.1-.1.18-.13h4.22c1-.18 1.79-1.92 1.86-2.6h-9V33h3v-3h3.77c1.52-.69 1.77-2.61 1.77-2.61h-5.62a.38.38 0 0 1-.19-.16Z" fill="#F06924"/><path d="M39.7 23c-7.62-15.15-21.06-7.8-21.06-7.8C34.94 4.83 42.5 23 42.5 23h-2.8Zm-24.09 0H12.5c8.37-15 20.01-6.91 20.01-6.91C20.65 12.17 15.61 23 15.61 23ZM33.65 40.76C21.32 45.85 16.25 34 16.25 34H13.5c7.25 15.81 20.15 6.76 20.15 6.76Zm-13.07 2.02C34.52 47.76 39.78 34 39.78 34h2.72c-6.66 17.63-21.92 8.78-21.92 8.78Z" fill="#192852"/></svg>