<!-- by TradingView --><svg width="56" height="56" viewBox="0 0 56 56" xmlns="http://www.w3.org/2000/svg"><path fill="#F0F3FA" d="M0 0h56v56H0z"/><path fill-rule="evenodd" d="M22.33 41.9A5.87 5.87 0 0 0 28 46c2.61 0 4.9-1.63 5.66-4.1a5.27 5.27 0 0 0-.47-4.2c-.85-1.63-1.99-3.12-3.23-4.52a.35.35 0 0 1-.04-.4.36.36 0 0 1 .1-.12l1-.71a.36.36 0 0 1 .52.1 19.22 19.22 0 0 0 4.27 5.1c2.38 1.84 5.95 1.12 7.82-1.06 2.58-3 1.36-7.45-2.32-9-2.4-1.01-6.31.38-8.55 1.33a.37.37 0 0 1-.41-.09.35.35 0 0 1-.08-.13l-.38-1.15c-.01-.04-.02-.1-.01-.14a.35.35 0 0 1 .14-.26.37.37 0 0 1 .14-.06c1.83-.38 3.57-.96 5.23-1.74 5.7-2.68 3.64-10.72-2.49-10.84a5.83 5.83 0 0 0-5.34 3.2 6.9 6.9 0 0 0-.55 2.14 23.4 23.4 0 0 0-.05 5.18.25.25 0 0 1-.12.15 8.62 8.62 0 0 1-1.67 0 .26.26 0 0 1-.14-.25c.17-1.77.16-3.47-.03-5.08a6.86 6.86 0 0 0-.55-2.14 5.83 5.83 0 0 0-5.34-3.2c-6.13.11-8.2 8.15-2.5 10.84 1.66.78 3.4 1.36 5.23 1.74a.37.37 0 0 1 .24.17.35.35 0 0 1 .03.29l-.38 1.15a.35.35 0 0 1-.2.22.36.36 0 0 1-.29 0c-2.24-.95-6.15-2.35-8.55-1.34-3.68 1.55-4.9 6-2.32 9 1.87 2.19 5.43 2.9 7.82 1.06a19.19 19.19 0 0 0 4.27-5.1.35.35 0 0 1 .24-.16.36.36 0 0 1 .28.06l1 .72a.36.36 0 0 1 .14.25.35.35 0 0 1-.08.27 22.49 22.49 0 0 0-3.23 4.52 5.27 5.27 0 0 0-.48 4.2Zm14.7-25.07a3.58 3.58 0 0 1 .77 5.04c-.97 1.37-4.58 2.26-6.12 2.58-.14.03-.26.01-.35-.06-.09-.06-.14-.16-.15-.3-.13-1.56-.3-5.23.75-6.54a3.68 3.68 0 0 1 5.1-.72Zm-18.02.07a3.67 3.67 0 0 1 5.1.71c1.05 1.31.88 4.98.75 6.53-.02.14-.07.24-.15.3-.1.07-.21.09-.35.06-1.54-.31-5.14-1.2-6.11-2.57A3.58 3.58 0 0 1 19 16.9Zm10.45 10.05A9.42 9.42 0 0 0 28 26.9a9.4 9.4 0 0 0-1.45.04c-.05.03-.21.49-.5 1.36a9.1 9.1 0 0 0-.4 1.38c.02.05.4.34 1.15.88.75.54 1.15.8 1.2.8.05 0 .46-.26 1.2-.8a9.22 9.22 0 0 0 1.15-.88c.02-.05-.11-.51-.4-1.38a9.06 9.06 0 0 0-.5-1.35Zm-16.03 6.57A3.6 3.6 0 0 1 15.78 29c1.6-.55 5.04.8 6.49 1.44.13.06.2.14.24.24.04.1.01.22-.06.34-.8 1.34-2.83 4.4-4.46 4.87a3.65 3.65 0 0 1-4.56-2.36Zm24.53 2.36a3.65 3.65 0 0 0 4.57-2.34A3.6 3.6 0 0 0 40.2 29c-1.6-.56-5.05.79-6.49 1.42-.13.05-.22.13-.25.24-.03.1-.01.21.06.33.8 1.35 2.81 4.43 4.44 4.89Zm-9.95-1.44c.11 0 .21.05.3.16 1.05 1.16 3.4 4 3.35 5.68a3.63 3.63 0 0 1-3.66 3.6 3.63 3.63 0 0 1-3.66-3.6c-.05-1.68 2.31-4.52 3.36-5.69.1-.1.2-.15.3-.15Z" fill="url(#a)"/><defs><linearGradient id="a" x1="12.03" y1="31.23" x2="43.29" y2="30.71" gradientUnits="userSpaceOnUse"><stop stop-color="#66C8F1"/><stop offset="1" stop-color="#579AF3"/></linearGradient></defs></svg>