<!-- by TradingView --><svg width="56" height="56" viewBox="0 0 56 56" xmlns="http://www.w3.org/2000/svg"><path fill="url(#a)" d="M0 0h56v56H0z"/><path d="M7.63 26.86v-.25c0-.73-.95-.83-1.28-.83-.34 0-1.3.01-1.3.7 0 .55.45.71 1.36 1.04l.75.28c1.4.54 1.45 1.24 1.45 1.5s0 1.68-2.26 1.68c-1.82 0-2.33-1-2.35-1.5v-.31c0-.09.08-.17.17-.17h.6c.1 0 .23.08.23.17v.09c0 .21.01.97 1.35.97 1.07 0 1.32-.53 1.31-.8 0-.61-.8-.9-1.63-1.2-.32-.1-.63-.22-.92-.36-.99-.46-.97-1.09-.96-1.3v-.03c0-.17 0-1.54 2.13-1.54 1.7 0 2.24 1.03 2.28 1.54v.32c0 .08-.07.14-.17.14H7.8c-.1 0-.17-.06-.17-.14Zm22 .05v-.29c0-.73-.95-.84-1.28-.84-.34 0-1.3.01-1.3.7 0 .56.45.72 1.36 1.05l.75.28c1.4.54 1.45 1.24 1.45 1.5 0 .27 0 1.69-2.26 1.69-1.82 0-2.33-1-2.35-1.5v-.43c0-.09.08-.16.17-.16h.6c.1 0 .17.07.17.16v.2c0 .22.07.98 1.4.98 1.08 0 1.33-.54 1.32-.8 0-.62-.8-.9-1.63-1.2-.32-.12-.63-.23-.92-.37-.99-.46-.97-1.09-.96-1.3v-.03c0-.18 0-1.55 2.13-1.55 1.7 0 2.24 1.03 2.28 1.55v.36c0 .08-.07.15-.17.15h-.59c-.1 0-.17-.07-.17-.15ZM10 27v-1.76c0-.13.1-.24.24-.24h3.6c.09 0 .16.07.16.16v.47c0 .08-.07.16-.16.16H11v1.2c0 .1-.06.17-.15.17h-.7A.16.16 0 0 1 10 27Zm0 2v1.76c0 .13.1.24.24.24h3.6c.09 0 .16-.07.16-.16v-.47a.16.16 0 0 0-.16-.16H11v-1.2c0-.1-.08-.17-.17-.17h-.67A.16.16 0 0 0 10 29Zm0-1.24c0-.09.07-.16.15-.16h2.7c.08 0 .15.07.15.16v.48c0 .09-.07.16-.15.16h-2.7a.15.15 0 0 1-.15-.16v-.48Zm11-2.52V27c0 .09.07.16.16.16h.69c.09 0 .15-.07.15-.16v-1.21h2.84c.09 0 .16-.08.16-.16v-.47a.16.16 0 0 0-.16-.16h-3.6c-.13 0-.24.1-.24.24Zm0 5.52V29c0-.09.07-.16.16-.16h.68c.08 0 .16.07.16.16v1.21h2.84c.09 0 .16.08.16.16v.47c0 .09-.07.16-.16.16h-3.6a.24.24 0 0 1-.24-.24Zm.15-3.16a.15.15 0 0 0-.15.16v.48c0 .09.07.16.15.16h2.7c.08 0 .15-.07.15-.16v-.48a.15.15 0 0 0-.15-.16h-2.7ZM37 27v-1.76c0-.13.1-.24.24-.24h3.6c.09 0 .16.07.16.16v.47c0 .08-.07.16-.16.16H38v1.2c0 .1-.09.17-.17.17h-.67A.16.16 0 0 1 37 27Zm0 2v1.76c0 .13.1.24.24.24h3.6c.09 0 .16-.07.16-.16v-.47a.16.16 0 0 0-.16-.16H38v-1.2a.16.16 0 0 0-.15-.17h-.7A.16.16 0 0 0 37 29Zm0-1.24c0-.09.07-.16.15-.16h2.7c.08 0 .15.07.15.16v.48c0 .09-.07.16-.15.16h-2.7a.15.15 0 0 1-.15-.16v-.48Zm-22-2.6v5.68c0 .09.08.16.18.16h.65c.1 0 .17-.07.17-.16V26.7l3.04 4.23c.04.04.1.07.16.07h.62c.1 0 .18-.07.18-.16v-5.68c0-.09-.08-.16-.18-.16h-.65c-.1 0-.17.07-.17.16v4.12l-3-4.2a.2.2 0 0 0-.16-.08h-.66c-.1 0-.18.07-.18.16ZM35.64 25c.1 0 .17.07.17.16v.5c0 .08-.08.15-.17.15H34.1c-.1 0-.17.07-.17.16v4.87c0 .09-.08.16-.17.16h-.6c-.09 0-.17-.07-.17-.16v-4.87c0-.09-.07-.16-.17-.16h-1.52c-.1 0-.17-.07-.17-.15v-.5c0-.09.07-.16.17-.16h4.33ZM42 26.84c0-1.02.8-1.84 1.8-1.84h.4c1 0 1.8.82 1.8 1.84v.09c0 .08-.06.14-.14.15l-.51.04a.15.15 0 0 1-.16-.15v-.03c0-.66-.53-1.2-1.18-1.2-.64 0-1.17.54-1.17 1.2v2.12c0 .66.53 1.2 1.17 1.2.65 0 1.18-.54 1.18-1.2v-.03c0-.09.07-.16.16-.15l.51.05c.08 0 .14.07.14.15v.08c0 1.02-.8 1.84-1.8 1.84h-.4c-1 0-1.8-.82-1.8-1.84v-2.32ZM51.14 25c-.1 0-.19.07-.19.16v2.25c0 .1-.08.16-.19.16H47.2c-.1 0-.19.07-.19.16v.54c0 .09.09.16.2.16h3.56c.1 0 .2.07.2.16v2.25c0 .09.08.16.18.16h.67c.1 0 .19-.07.19-.16v-5.68c0-.09-.09-.16-.2-.16h-.66Zm-3.96 0c-.1 0-.18.07-.18.15v1.7c0 .08.08.15.18.15h.64c.1 0 .18-.07.18-.15v-1.7c0-.08-.08-.15-.18-.15h-.64Zm0 4c-.1 0-.18.07-.18.15v1.7c0 .08.08.15.18.15h.64c.1 0 .18-.07.18-.15v-1.7c0-.08-.08-.15-.18-.15h-.64Z" fill="#fff"/><defs><linearGradient id="a" x1="28" y1="0" x2="28" y2="56" gradientUnits="userSpaceOnUse"><stop stop-color="#8EB80E"/><stop offset=".64" stop-color="#1B3A1B"/></linearGradient></defs></svg>