<!-- by TradingView --><svg width="56" height="56" viewBox="0 0 56 56" xmlns="http://www.w3.org/2000/svg"><path fill="#F0F3FA" d="M0 0h56v56H0z"/><path d="M41.53 21.7c.97 1.65.39 3.8-1.29 4.8-1.67 1-3.81.46-4.77-1.2a3.54 3.54 0 0 1 1.29-4.8c1.67-1 3.81-.46 4.77 1.2Zm0 9.64a3.04 3.04 0 0 1-.93 4.16c-1.4.92-3.25.54-4.14-.84a3.04 3.04 0 0 1 .94-4.16 2.97 2.97 0 0 1 4.14.84Z" fill="url(#a)"/><path d="M33.41 13.84a4.05 4.05 0 0 1-1.33 5.53 3.95 3.95 0 0 1-5.5-1.21 4.05 4.05 0 0 1 1.34-5.53 3.95 3.95 0 0 1 5.5 1.21Zm-1.44 9.2a2 2 0 1 1-4-.04 2 2 0 0 1 4 .05ZM27.48 29a1.5 1.5 0 1 0 .04-3 1.5 1.5 0 0 0-.04 3Zm6.13 9.1c.74 1.15.4 2.7-.76 3.47-1.17.77-2.71.47-3.46-.67-.74-1.15-.4-2.7.76-3.47a2.47 2.47 0 0 1 3.46.67Z" fill="url(#b)"/><path d="M19.48 16.78a.75.75 0 1 1-1.5-.03.75.75 0 0 1 1.5.03ZM17.24 21a1 1 0 1 1-2 .02 1 1 0 0 1 2-.02Zm.15 6.06a1.5 1.5 0 1 0 .1-3 1.5 1.5 0 0 0-.1 3ZM23 28.51a1.5 1.5 0 1 1-3-.03 1.5 1.5 0 0 1 3 .03Zm-7.95 6.17c.94-.6 1.23-1.85.65-2.77a1.97 1.97 0 0 0-2.75-.58 2.03 2.03 0 0 0-.65 2.76 1.97 1.97 0 0 0 2.75.59Zm8.55 3.42c.75 1.14.41 2.7-.75 3.47s-2.7.47-3.45-.67c-.75-1.14-.41-2.7.75-3.47a2.47 2.47 0 0 1 3.45.67Z" fill="url(#c)"/><defs><linearGradient id="a" x1="34.61" y1="23.21" x2="42.45" y2="23.18" gradientUnits="userSpaceOnUse"><stop stop-color="#8058F5"/><stop offset=".55" stop-color="#6940F4"/></linearGradient><linearGradient id="b" x1="25.2" y1="18.39" x2="34.61" y2="18.39" gradientUnits="userSpaceOnUse"><stop stop-color="#CDA8E4"/><stop offset="1" stop-color="#9471F7"/></linearGradient><linearGradient id="c" x1="13" y1="39.11" x2="25.35" y2="39.11" gradientUnits="userSpaceOnUse"><stop stop-color="#FFCF01"/><stop offset=".65" stop-color="#ECC252"/><stop offset="1" stop-color="#DDB69C"/></linearGradient></defs></svg>