<!-- by TradingView --><svg width="56" height="56" viewBox="0 0 56 56" xmlns="http://www.w3.org/2000/svg"><path fill="#F0F3FA" d="M0 0h56v56H0z"/><path d="M34 43H16l8-13h7.16L34 43Z" fill="#00BDFF"/><path d="M33.79 43 31 30h4l9 13H33.79Z" fill="#0A9CFF"/><path d="m29 22 2 8h4l-6-8Z" fill="#0AB6F4"/><path d="m31 30-2-8-5 8h7Z" fill="#00EFE9"/><path d="M24 30h-8v13l8-13Z" fill="#157EFE"/><path d="M24 30h-8V13h7l6 9-5 8Z" fill="#1560FA"/><path d="M35 30 22 13h8.93c.94 0 9.07.06 9.07 8.5 0 6.75-3.13 8.5-5 8.5Z" fill="#157EFE"/></svg>