<!-- by TradingView --><svg width="56" height="56" viewBox="0 0 56 56" xmlns="http://www.w3.org/2000/svg"><path fill="#F0F3FA" d="M0 0h56v56H0z"/><path fill-rule="evenodd" d="M28 44a16 16 0 1 0 0-32 16 16 0 0 0 0 32Zm0-7a8 8 0 0 0 8-8c0-5.88-8-11-8-11s-8 5-8 11a8 8 0 0 0 8 8Z" fill="url(#a)"/><path d="M26.84 36.92A8 8 0 0 1 20 29c0-6 8-11 8-11l5.15-5.15a16 16 0 1 0-6.17 31.12l-.14-7.05Z" fill="url(#b)"/><path d="M28 33.5c-2 0-4.17-.67-5-1 .5.83 2.2 2.5 5 2.5s4.5-1.67 5-2.5c-.83.33-3 1-5 1Z" fill="#FF5100"/><defs><linearGradient id="a" x1="36.5" y1="15.5" x2="22.5" y2="42" gradientUnits="userSpaceOnUse"><stop stop-color="#FF2D00"/><stop offset="1" stop-color="#FF5100"/></linearGradient><linearGradient id="b" x1="22.58" y1="12" x2="26" y2="40.5" gradientUnits="userSpaceOnUse"><stop stop-color="#FFA200"/><stop offset="1" stop-color="#FF4E00"/></linearGradient></defs></svg>