<!-- by TradingView --><svg width="56" height="56" viewBox="0 0 56 56" xmlns="http://www.w3.org/2000/svg"><path fill="#F0F3FA" d="M0 0h56v56H0z"/><path d="m32.56 12.66-.64.76-2.1 2.9c-1.54 1.51-3.82 3.49-4.58 5.51a93.37 93.37 0 0 1-2.51 6.12c-1.15 2.41-1.6 4.65-.8 6.91a39.61 39.61 0 0 1 .53 1.68l-.02.02h-.03l-.02-.02c-1.2-2.16-1.32-4.23-1.2-7.05 1.65-2.76 2.5-4.57 2.8-7.09.14-1.18.28-3.16.44-5.94l.91-4.24c2.41-.4 4.88-.25 7.22.44Z" fill="#632FA8"/><path d="m25.34 12.22-.91 4.24a9.03 9.03 0 0 0-3.27 2.6 13.1 13.1 0 0 0-1.8 3.04c-1.14 2.68-.48 6.4.75 8.87a.15.15 0 0 0 .26 0l.6-1.07c-1.34 4.81.82 8.57 4.5 11.4a45.82 45.82 0 0 1 3.26 2.68c-2.34.11-4.67-.3-6.83-1.19a103.99 103.99 0 0 1-3.15-9.94 40.48 40.48 0 0 1-1.34-10.67c.01-.8.2-1.57.58-2.3a27.6 27.6 0 0 1 5.26-7.16 16 16 0 0 1 2.1-.5Z" fill="#360E99"/><path d="M23.25 12.72A27.6 27.6 0 0 0 18 19.87a5.1 5.1 0 0 0-.58 2.31c-.03 3.62.42 7.18 1.34 10.67.88 3.37 1.93 6.68 3.15 9.94-.43-.17-.85-.37-1.26-.58-.23-.83-.66-2-1.3-3.53a70.79 70.79 0 0 1-3.06-9.45c-.51-2.03-.44-4.38.22-7.04l3.2-7.87a16.02 16.02 0 0 1 3.55-1.6ZM32.56 12.66a16 16 0 0 1 8.55 6.17 7.25 7.25 0 0 0-5.33 3.79 20.01 20.01 0 0 0-3.86-9.2l.64-.76Z" fill="#5720A5"/><path d="M31.92 13.42a20.01 20.01 0 0 1 3.86 9.2 15.47 15.47 0 0 1-4.39 5.48c-1 .8-1.8 1.5-1.27 2.77.58 1.4 1.47 2.77 2.67 4.13 1.53 1.72 3 3.47 4.43 5.26-.95.3-1.77.23-2.45-.21a52.77 52.77 0 0 1-3.75-2.84c-2.57-2.06-4.02-4.2-3.04-7.26.73-2.3 1-4.44.82-6.42l-.14-1.71c.16-1.88.55-3.71 1.15-5.5l2.11-2.9Z" fill="#360E99"/><path d="m19.7 14.32-3.2 7.87a13.06 13.06 0 0 0-3.33 7.02c-.25 1.62-.18 2.87.21 3.75.93 2.08 2.58 4.68 4.95 7.8a16.07 16.07 0 0 1-6.3-11.66 16.02 16.02 0 0 1 7.66-14.78Z" fill="#542C89"/><path d="M24.43 16.46c-.16 2.78-.3 4.76-.44 5.94-.3 2.52-1.15 4.33-2.8 7.1-.14.18-.22.32-.22.4l-.6 1.07a.15.15 0 0 1-.26 0c-1.23-2.46-1.9-6.2-.75-8.87a13.1 13.1 0 0 1 1.8-3.04c.9-1.14 2-2 3.27-2.6Z" fill="#2E0E6E"/><path d="M29.81 16.32c-.6 1.79-.99 3.62-1.15 5.5l-.37 3.44a3.99 3.99 0 0 0-.42-1.71.55.55 0 0 0-.83-.17c-.49.4-.91.87-1.27 1.42a57.36 57.36 0 0 0-2.79 5.1c-1.32 2.68-.95 5.2 1.12 7.54 2.15 2.45 5.32 4.99 8.56 5.86-1.27.4-2.6.62-3.93.68a45.83 45.83 0 0 0-3.27-2.68c-3.67-2.83-5.83-6.59-4.5-11.4.01-.08.09-.22.23-.4-.12 2.8 0 4.88 1.2 7.04l.02.02h.03l.02-.02v-.03c-.18-.6-.36-1.16-.54-1.65-.8-2.26-.34-4.5.8-6.91a93.35 93.35 0 0 0 2.52-6.12c.76-2.02 3.04-4 4.57-5.5Z" fill="#5720A5"/><path d="M41.1 18.83a15.98 15.98 0 0 1 1.05 16.64 32.53 32.53 0 0 1-3.33-3.66c-2.05-2.63-1.95-5.05.3-7.26a.78.78 0 0 0 .15-.9.8.8 0 0 0-.2-.27l-.02-.01a1.06 1.06 0 0 0-1.35 0c-3.04 2.54-4.34 5.72-3.9 9.51a27 27 0 0 0 .7 3.07.5.5 0 0 0 .08.18l3.17 4.56-.29.21a.93.93 0 0 1-.24-.64c-1.43-1.79-2.9-3.54-4.43-5.26a15.02 15.02 0 0 1-2.67-4.13c-.53-1.27.27-1.97 1.27-2.77a15.47 15.47 0 0 0 4.39-5.48c1.22-2.14 3-3.4 5.33-3.8Z" fill="#7B22EE"/><path d="M42.15 35.47a15.87 15.87 0 0 1-2.28 3.26 17.09 17.09 0 0 0-4.22-3.71.32.32 0 0 0-.45.43l2.77 5.07c-.08.05-.15.1-.22.17l-3.17-4.56a.5.5 0 0 1-.09-.18c-.4-1.52-.63-2.54-.69-3.07-.44-3.8.86-6.97 3.9-9.5a1.06 1.06 0 0 1 1.35-.01l.02.01a.8.8 0 0 1 .23.9c-.04.1-.1.2-.18.27-2.25 2.2-2.35 4.63-.3 7.26 1 1.3 2.11 2.51 3.33 3.66Z" fill="#882DF2"/><path d="M16.5 22.2c-.66 2.65-.73 5-.22 7.03a70.8 70.8 0 0 0 3.06 9.45c.64 1.53 1.07 2.7 1.3 3.53-.8-.42-1.58-.9-2.3-1.46-2.38-3.11-4.03-5.7-4.96-7.79-.4-.88-.46-2.13-.21-3.75a13.06 13.06 0 0 1 3.33-7.02Z" fill="#360E99"/><path d="m28.66 21.82.14 1.71a14.67 14.67 0 0 1-1.17 5.25c-.6 1.45-.95 2.4-1.01 2.86a5.55 5.55 0 0 0 2.29 5.41 156 156 0 0 1 6.39 5.19c-.48.24-.97.46-1.47.66a16 16 0 0 0-3.29-3.62 29.62 29.62 0 0 1-3.64-2.96c-1.69-1.66-2.24-4.61-.62-6.65a9.5 9.5 0 0 0 2-4.41l.38-3.44Z" fill="#632FA8"/><path d="M28.29 25.26a9.5 9.5 0 0 1-2.01 4.41c-1.62 2.04-1.07 5 .62 6.65.9.9 2.12 1.89 3.64 2.96a16 16 0 0 1 3.3 3.62c-.4.15-.78.29-1.18.4-3.24-.87-6.4-3.41-8.56-5.86-2.07-2.35-2.45-4.86-1.12-7.55a57.33 57.33 0 0 1 2.8-5.09 5.9 5.9 0 0 1 1.26-1.42.55.55 0 0 1 .83.17c.25.45.39 1.02.42 1.7Z" fill="#360E99"/><path d="M37.22 40.26c0 .23.08.45.24.64-.68.5-1.4.95-2.16 1.34a155.9 155.9 0 0 0-6.39-5.19 5.55 5.55 0 0 1-2.3-5.4c.07-.47.41-1.42 1.02-2.87.71-1.66 1.1-3.41 1.17-5.25.18 1.98-.1 4.12-.82 6.42-.98 3.07.47 5.2 3.04 7.26a52.74 52.74 0 0 0 3.75 2.84c.68.44 1.5.51 2.45.2Z" fill="#5720A5"/><path d="M39.87 38.73c-.59.65-1.22 1.24-1.9 1.79l-2.77-5.07a.32.32 0 0 1 .45-.43c1.56.96 2.97 2.2 4.22 3.71Z" fill="#9A4EF6"/></svg>