<!-- by TradingView --><svg width="56" height="56" viewBox="0 0 56 56" xmlns="http://www.w3.org/2000/svg"><path fill="#F0F3FA" d="M0 0h56v56H0z"/><path d="M44.63 33.74a12.74 12.74 0 0 0 0-11.48 15 15 0 0 0-3.9-4.87 18.4 18.4 0 0 0-5.84-3.25C32.69 13.38 30.39 13 28 13c-2.39 0-4.68.38-6.89 1.14a18.4 18.4 0 0 0-5.84 3.25 15 15 0 0 0-3.9 4.87 12.74 12.74 0 0 0 0 11.48 15 15 0 0 0 3.9 4.87 18.4 18.4 0 0 0 5.84 3.25c2.2.76 4.5 1.14 6.89 1.14 2.39 0 4.68-.38 6.89-1.14a18.4 18.4 0 0 0 5.84-3.25 15 15 0 0 0 3.9-4.87Zm-5.33-7.12c0 .02.02.04.03.04h.05a.7.7 0 0 1 .64-.16c.11.03.17.1.18.22 0 .12.04.21.11.27a9.48 9.48 0 0 1 .45.36c.1.12.18.26.23.43v.08l-.19.44a.25.25 0 0 1-.23.17c-.1 0-.19.04-.29.1a.48.48 0 0 0-.17.23l-.04.08a.7.7 0 0 1-.15.17.5.5 0 0 0-.15.2c-.1.38-.08.73.08 1.05.06.1.04.2-.05.29l-.32.29a.08.08 0 0 0-.02.09l.06.18v.06c-.1.2-.23.37-.41.5-.04.02-.05.06-.02.1l.52.82c.03.04.02.07-.02.09-.25.14-.51.23-.78.25l-.37.03a.11.11 0 0 0-.08.06c-.22.34-.37.63-.45.85-.05.13.01.35.18.66l.03.05v.02c.06.1.04.18-.03.26l-.47.5c-.04.03-.07.13-.1.28a.86.86 0 0 1-.08.26c-.18.3-.44.4-.79.3a1.3 1.3 0 0 1-.32-.17c-.29-.19-.51-.28-.67-.26h-.1c-.13-.07-.3-.22-.48-.45a1.74 1.74 0 0 0-.28-.3.49.49 0 0 0-.37-.09.1.1 0 0 0-.08.05l-.06.12c-.07.12-.13.2-.17.24a.51.51 0 0 1-.3.11c-.45.04-.87-.03-1.26-.23-.13-.06-.2-.21-.19-.45 0-.03 0-.05-.04-.06-.4-.13-.8-.2-1.16-.21-.26-.01-.53-.05-.8-.13a.13.13 0 0 0-.09 0c-.57.26-.87.72-.91 1.38-.06.86-.04 1.6.05 2.23.14.9.64 1.48 1.5 1.74.06.02.07.05.03.1-.02.02-.05.04-.1.05-.3.09-.63.11-.98.07a7.87 7.87 0 0 1-1.3-.27c-.14-.03-.3-.03-.46 0l-1.3.23a3.69 3.69 0 0 1-.86.03c-.13-.07-.13-.14-.02-.21.44-.29.76-.56.95-.8.25-.34.38-.73.38-1.18v-.21c0-.63-.02-1.08-.07-1.38-.08-.5-.25-.91-.51-1.25-.46-.6-1.1-.77-1.92-.5a.61.61 0 0 0-.4.3c-.04.1-.07.26-.1.48l-.02.17a.44.44 0 0 1-.06.2.6.6 0 0 1-.13.12l-.06.03a.1.1 0 0 0-.04.09v.44c0 .06-.03.08-.08.08h-.2c-.27 0-.44-.02-.53-.1a.97.97 0 0 1-.35-.59.07.07 0 0 0-.05-.06c-.03 0-.05 0-.07.03-.26.34-.52.42-.78.23a.1.1 0 0 1-.04-.07l-.07-.35a.2.2 0 0 0-.12-.17 1.36 1.36 0 0 0-.59-.1c-.05 0-.08.02-.09.07-.05.25-.2.4-.44.43-.03 0-.06 0-.09-.02a1.03 1.03 0 0 0-.73-.1.1.1 0 0 0-.07.04l-.1.13a.22.22 0 0 1-.06.07l-.25.1c-.18.08-.32.23-.42.46a.15.15 0 0 1-.13.1.15.15 0 0 1-.15-.08l-.52-.82a.16.16 0 0 0-.23-.04l-.04.03a.79.79 0 0 1-.25.14c-.1.03-.18 0-.26-.1l-.33-.4c-.1-.11-.28-.22-.54-.33a7.72 7.72 0 0 1-.16-.07c-.12-.05-.2-.16-.24-.3-.03-.1-.04-.25-.04-.45 0-.12-.05-.2-.16-.25a.92.92 0 0 1-.47-.57c-.02-.07 0-.1.06-.13.45-.13.84-.39 1.2-.78.08-.1.08-.2-.03-.3-.02 0-.17-.13-.46-.36a.71.71 0 0 1-.27-.4c-.02-.1-.02-.24 0-.43v-.37a.58.58 0 0 0-.18-.34c-.2-.19-.4-.42-.56-.68a.3.3 0 0 1-.03-.3c.02-.06.09-.15.19-.27l.08-.1c.07-.1.1-.2.1-.29a.73.73 0 0 0-.1-.23.7.7 0 0 1-.1-.31.7.7 0 0 1 .1-.43c.3-.4.5-.73.6-1.01.03-.11.14-.23.32-.36l.08-.05c.07-.06.1-.13.09-.23-.06-.32-.05-.53.02-.62.06-.07.21-.12.47-.16l.28-.04c.14-.03.29-.14.45-.34a.13.13 0 0 1 .08-.05l.54-.1a.1.1 0 0 0 .07-.05.1.1 0 0 0 .01-.1l-.23-.7a.2.2 0 0 1 0-.1c.03-.29.16-.52.39-.7a.37.37 0 0 0 .14-.22c0-.04.03-.07.07-.09a.11.11 0 0 1 .1 0c.28.16.49.25.62.29.22.06.27-.01.15-.2-.22-.35-.36-.58-.43-.72-.08-.14-.1-.28-.05-.4.03-.06.1-.16.24-.28a3 3 0 0 0 .13-.14.09.09 0 0 0 .02-.08 2 2 0 0 0-.05-.18c-.07-.2-.08-.36-.03-.47a.9.9 0 0 1 .26-.29l.53-.49c.05-.05.15-.08.3-.1a.68.68 0 0 0 .54-.32l.06-.11c.1-.15.18-.25.25-.31a.13.13 0 0 1 .09-.03c.36 0 .71-.11 1.07-.33a.16.16 0 0 0 .07-.11c0-.05 0-.09-.04-.12l-.18-.16c-.04-.04-.05-.07-.04-.1a.26.26 0 0 1 .1-.11.17.17 0 0 0 .05-.07l.08-.2a.1.1 0 0 1 .07-.06l.11-.02c.22-.05.37-.1.44-.18l.32-.33c.03-.03.06-.02.1.01l.1.1c.02.01.03.04.02.07-.07.35-.01.6.17.76l.09.03c.16 0 .3.04.44.1h.07a.07.07 0 0 0 .03-.06.69.69 0 0 1 .36-.54c.1-.06.15-.17.14-.31-.01-.09-.05-.2-.12-.36l-.02-.06a.14.14 0 0 1 0-.13.13.13 0 0 1 .1-.07 3.6 3.6 0 0 0 1.23-.43c.1-.06.2-.07.32-.05.06.01.17.05.32.12l.16.07c.13.05.24.12.34.21l.32.31.18.25c.08.11.17.2.28.25.23.1.38.05.45-.15.01-.06.05-.08.1-.07.1.01.22.06.33.13.38.25.64.41.8.5.15.08.32.1.52.07.03 0 .04-.02.05-.04a.07.07 0 0 0 0-.07 1.36 1.36 0 0 0-.58-.36l-.04-.01a.14.14 0 0 1-.08-.09.14.14 0 0 1 .01-.11c.1-.18.14-.38.14-.58 0-.1.03-.15.11-.19.35-.15.61-.1.78.12.16.21.37.36.64.44.2.06.37.2.5.4.02.03.03.06.03.1 0 .24.15.4.47.48a.3.3 0 0 1 .1.06l.08.1c.14.14.24.23.32.25a1 1 0 0 0 .13.03c.1.02.17.04.21.07.17.12.3.3.41.53l.07.13c.05.12.14.17.27.15l.18-.01c.18-.02.3-.03.38-.02.13.01.24.06.36.13a.1.1 0 0 1 .05.08v.16c-.03.22.07.38.27.48.03.01.05.04.05.07v.1c0 .1.02.18.05.23a4.51 4.51 0 0 1 .27.74c0 .06-.02.14-.06.23-.08.16-.12.34-.12.53 0 .03 0 .06-.03.09-.1.17-.17.35-.2.52 0 .04.01.08.05.11.03.03.07.04.11.02l.71-.22c.18-.05.31-.05.42-.01.16.06.28.13.34.2.02.01.03.04.04.07 0 .26.06.46.16.6.07.11.22.25.46.41.07.06.16.15.25.28.04.06.03.11-.03.16a.73.73 0 0 0-.2.18.1.1 0 0 0 0 .1c.05.19.18.3.37.36a2.17 2.17 0 0 0 .7.03c.1 0 .2.04.3.13l.22.2c.23.22.37.39.42.5v.08c-.1.34-.15.66-.13.98Zm-10.03 4.72.07-.04a.06.06 0 0 1 .06 0l.07.03c.02.01.05 0 .07-.01a.8.8 0 0 0 .27-.89c-.02-.08-.08-.1-.15-.09-.21.05-.42.06-.63.04a.53.53 0 0 1-.2-.1 1.23 1.23 0 0 0-.08-.04.1.1 0 0 0-.1 0l-.49.3c-.06.03-.06.05.01.05.35.02.62.18.8.47.07.1.14.2.23.28.02.02.05.02.07 0Zm-.77 1.24c.1-.17.14-.3.1-.4a.1.1 0 0 1 0-.09c.17-.3.24-.56.2-.8a.53.53 0 0 0-.23-.38.51.51 0 0 0-.37-.07.56.56 0 0 0-.48.6c0 .1.05.3.16.57l.08.23c.05.14.07.34.08.6v.27l.03.03.02-.01c0-.03.03-.09.07-.17a.18.18 0 0 1 .05-.07c.1-.08.2-.18.29-.31Zm-3.94-.69v-.06l-.36-.57a.05.05 0 0 1 0-.05c0-.02.02-.03.04-.03.3 0 .56.09.79.28.04.03.1.06.17.08l.06.01c.03 0 .05.03.06.06.03.07.07.12.15.15.02 0 .03.03.04.05 0 .03-.02.05-.04.06a.7.7 0 0 0-.35.38c0 .03-.03.04-.06.02a3.12 3.12 0 0 1-.4-.2c-.09-.05-.12-.1-.1-.18Zm1.49.12.04.14c.01.03 0 .06-.01.08-.2.26-.29.53-.28.83 0 .24.1.4.31.51.2.1.4.1.6 0 .23-.12.35-.29.36-.5 0-.14-.04-.36-.14-.66a6.04 6.04 0 0 1-.05-.17c-.08-.23-.15-.4-.24-.51a9.83 9.83 0 0 1-.36-.5c-.03-.05-.07-.05-.12 0-.13.13-.2.26-.2.4 0 .07.02.2.09.38Zm4.12-.3c.09-.09.17-.12.23-.09s.1.07.1.14c0 .06-.02.11-.07.15-.08.05-.2.13-.33.25-.32.26-.6.41-.8.45-.05.01-.06 0-.05-.04l.06-.14c.16-.4.33-.66.51-.77a.08.08 0 0 1 .09-.01l.17.08c.03.01.06 0 .09-.02Zm1.61.9c-.22.02-.38-.07-.45-.28-.07-.19-.17-.3-.3-.33-.12-.03-.25.05-.36.23-.11.2-.32.4-.62.6a.86.86 0 0 0-.33.45c-.07.22-.01.38.18.46.02.02.05.01.07 0 .34-.28.73-.46 1.18-.53.18-.04.32-.08.42-.12a.98.98 0 0 0 .32-.26c.04-.05.04-.1.02-.15-.03-.05-.07-.08-.13-.07Zm-6.7.44c0 .02.02.04.04.05.02.02.04.02.06 0l.14-.03a.1.1 0 0 1 .08.04l.17.21c.17.23.33.38.49.44.03.01.03.03 0 .06l-.05.01c-.3 0-.52-.03-.65-.11a.33.33 0 0 0-.32-.02.7.7 0 0 1-.15.05c-.2.03-.39 0-.58-.08-.04-.03-.08-.02-.12.02l-.22.22c-.07.08-.15.08-.24 0l-.18-.15c-.08-.06-.08-.13 0-.2.12-.13.27-.24.47-.33a.5.5 0 0 0 .24-.22c.02-.05.05-.16.07-.32.02-.12.09-.2.22-.22.03 0 .06 0 .08.04l.1.16c.02.04.06.05.1.03l.09-.03c.04-.01.08 0 .11.02.04.03.06.06.06.1v.26Zm8.05.54-.1.02c-.15.05-.33 0-.55-.14a1.66 1.66 0 0 1-.45-.4c-.02-.03-.03-.03-.05-.01-.22.29-.47.46-.75.53l-.01.01.01.02c.29.05.53.14.74.26.11.07.2.1.27.11.08.01.17 0 .28-.03.3-.1.5-.18.62-.25.03-.02.05-.04.05-.07 0-.03-.02-.05-.06-.05Z" fill="#008265"/></svg>