<!-- by TradingView --><svg width="56" height="56" viewBox="0 0 56 56" xmlns="http://www.w3.org/2000/svg"><path fill="#F0F3FA" d="M0 0h56v56H0z"/><path d="M42.92 22.2a.2.2 0 0 1-.13-.07.06.06 0 0 0-.06-.02c-.02 0-.03.02-.02.04a16.87 16.87 0 0 1 .1 11.11 16.03 16.03 0 0 1-5.03 7.02c-.25.2-.5.37-.75.52-.13.08-.33.2-.58.38a9.35 9.35 0 0 1-1.82 1 14.55 14.55 0 0 1-4.2 1.3c-.42.07-1.04.1-1.86.11l-.92.02a9.76 9.76 0 0 1-2.05-.13 16.4 16.4 0 0 1-7.1-3.04 15.88 15.88 0 0 1-3.76-4.1.22.22 0 0 0-.17-.11.2.2 0 0 0-.18.08c-.01.02-.02.06-.01.12a15.92 15.92 0 0 1-1.13-14.59 15.77 15.77 0 0 1 5.44-6.83 15.93 15.93 0 0 1 7.54-2.9 15.86 15.86 0 0 1 16.7 10.09Z" fill="#6AB3B3"/><path d="m26.72 13.43-.09.02c-.9.05-1.47.1-1.7.19l-2.48.84c-.29.1-.68.3-1.16.61l-.32.21c-.92.32-1.66.77-2.22 1.35L17 18.44c-.22.22-.26.48-.11.76.11.22.26.56.43 1.02a20.43 20.43 0 0 0 2.19 3.93c.06.07.08.17.06.28-.37.83-.62 1.7-.77 2.6a4.13 4.13 0 0 0-1.21-1.58 9.1 9.1 0 0 0-1.7-1.04c-.1-.05-.2-.04-.3.05-.63.63-.94 1.4-.92 2.34-.13-.03-.2.09-.2.34 0 .16-.07.24-.22.25h-.27c-.17.02-.23.1-.16.27.12.33.32.5.58.5.06 0 .09.02.1.08l.11.92.73 2-.21-.4c-.23-.42-.4-.72-.55-.9a2.6 2.6 0 0 0-.82-.73c-.06-.03-.07-.08-.06-.14.1-.42.03-.8-.2-1.15-.3-2.63.4-5.24 2.06-7.82a14.56 14.56 0 0 1 11.04-6.8c.05 0 .1.02.12.07.02.05.02.1 0 .14Z" fill="#B8DAE0"/><path d="M39.06 18.05c-.05 0-.09.04-.1.14l-.29-.3c-.12-.12-.34-.11-.63.03a20 20 0 0 0-1.59.84c-.14.09-.36.18-.65.27l-.31.12a1 1 0 0 1 .35-.57c.07-.05.1-.11.1-.2a.23.23 0 0 0-.1-.19c-.1-.07-.19-.16-.26-.25-.15-.18-.1-.26.12-.25.17.01.33-.01.47-.07.06-.02.1-.06.11-.12a.17.17 0 0 0-.03-.16c-.18-.2-.51-.38-1.02-.52-.2-.05-.36-.1-.46-.14-.06-.03-.12-.01-.17.04a.2.2 0 0 0-.05.2c.02.07.06.12.12.15a.5.5 0 0 0 .2.06c.08 0 .12.05.13.13 0 .15-.04.28-.14.38-.07.08-.15.08-.23.02-.23-.17-.43-.13-.6.14-.18.28-.37.56-.56.82a.3.3 0 0 0-.05.22c0 .04.02.07.07.08.04.02.07 0 .1-.03.04-.04.07-.1.09-.15a.2.2 0 0 1 .12-.12c.11-.04.18-.1.21-.21a.21.21 0 0 1 .14-.15c.15-.05.24-.16.27-.33 0-.03.02-.04.05-.05h.07c.06 0 .08.02.06.07-.12.3-.29.51-.51.63-.07.03-.09.09-.05.16.12.19.09.36-.08.53a.15.15 0 0 0-.03.17c.03.07.1.1.21.1-.13 0-.2.06-.22.19l-.87-.9a.27.27 0 0 1-.08-.16c-.05-.43.1-.77.43-1.05.1-.08.1-.18.01-.27l-.07-.07c-.08-.08-.15-.08-.22.02-.25.4-.37.82-.36 1.27 0 .08-.03.1-.1.08a3.09 3.09 0 0 1-.39-.19.17.17 0 0 0-.15-.02.16.16 0 0 0-.1.1c-.01.04 0 .1.03.16l-1.2-1.96a.22.22 0 0 0-.14-.1 3.33 3.33 0 0 0-1.54-.07l.04-.65c0-.05-.02-.1-.06-.13a.15.15 0 0 0-.14-.03c-.14.04-.3.05-.46.03-.13-.02-.13-.06-.03-.13.2-.13.46-.16.75-.1l.13-.01c.1-.05.16-.1.18-.18.01-.08-.02-.14-.1-.18a.68.68 0 0 0-.38-.05c-.1.01-.14-.03-.1-.13a.76.76 0 0 1 .29-.34c.08-.05.08-.12 0-.18l-.06-.06c-.1-.09-.17-.08-.24.03-.24.36-.45.6-.63.75-.25.19-.57.3-.96.34-.06.01-.1.05-.12.11l-.02.08c-.02.06 0 .09.07.08l.46-.05c.03 0 .06 0 .08.04.02.03.02.06 0 .09-.17.31-.23.68-.16 1.1-.19.18-.34.4-.44.65-.37-.36-.48-.74-.33-1.15.02-.06.03-.11 0-.14-.02-.04-.07-.07-.14-.07.05-.18.07-.35.06-.52.1-.09.11-.19.06-.29a.57.57 0 0 0-.43-.27l-.63-1.56c-.02-.05 0-.09.06-.1l.71-.1.09-.02c1.15-.09 2.3-.06 3.44.08.29.04.7.12 1.26.26.6.15 1.04.24 1.34.27.52.04.93.15 1.24.3l1.8.93c.38.2.9.56 1.56 1.1.34.27.6.48.8.61.2.15.5.5.9 1.07Z" fill="#799EC9"/><path d="m26.63 13.45-.71.1c-.06.01-.08.05-.06.1l.63 1.56c-.07.13-.06.26.02.4.08.16.2.21.35.16.01.17 0 .34-.06.52a.5.5 0 0 0-.23.01c-.07.03-.09.07-.07.14l.29 1.07c.03.11-.01.17-.13.17-.15 0-.3.02-.46.07-.05.02-.07.06-.07.11v.08c0 .1.06.14.15.13.4-.08.82-.1 1.24-.05.5.04.9.17 1.19.37.44.3.91.34 1.43.12.43-.2.42-.3-.06-.34-.95-.07-1.89-.24-2.8-.52.1-.25.24-.47.43-.65.02.16.06.3.13.44.04.06.09.08.15.06a1 1 0 0 1 .6 0c.06.03.12.07.16.12.07.1.16.15.27.15.09 0 .13-.04.13-.13v-.85a6 6 0 0 0 .94.3c.29.07.46.13.52.2.18.23.34.46.48.71.13.22.19.5.2.8 0 .36 0 .73.02 1.1-.74-.18-1.42-.37-2.04-.59a4.84 4.84 0 0 0-1.84-.02c-.3-.05-.71-.02-1.22.1-1 .22-1.86.52-2.6.9a7.8 7.8 0 0 0-2.7 2l-3.03-3.7c-.04-.05-.04-.09.02-.12 1-.6 2.09-1.04 3.24-1.33l.4.45c.04.05.04.1 0 .16l-.36.51a.17.17 0 0 0-.02.2l.13.17c.07.09.12.17.15.24.2.5.24.97.14 1.4-.02.1.01.12.1.08a.26.26 0 0 0 .1-.11l.2-.38c.08-.16.2-.2.36-.15.06.02.12 0 .17-.04.05-.04.07-.1.06-.16a2.7 2.7 0 0 0-.35-1.1.13.13 0 0 0-.1-.07.13.13 0 0 0-.12.05.53.53 0 0 1-.3.2c-.09.02-.13-.02-.12-.12.03-.2.13-.35.31-.44a.2.2 0 0 1 .22.03l.62.5c.05.05.08.1.08.17v.5c0 .09.02.1.08.03a.7.7 0 0 0 .18-.35c.01-.06.05-.09.1-.08a.7.7 0 0 1 .37.14c.06.04.12.06.19.06h.88c.14.01.19-.06.13-.19a3.05 3.05 0 0 0-.6-.92c-.1-.1-.13-.07-.1.06.05.2.11.39.2.58.05.1.02.16-.09.18a1.1 1.1 0 0 1-.95-.29.21.21 0 0 1-.08-.13l-.1-.57a.15.15 0 0 0-.12-.14.15.15 0 0 0-.17.06c-.06.08-.05.19.03.32.03.03.03.06.03.1 0 .02-.02.04-.04.05a.06.06 0 0 1-.08 0l-.36-.3a.12.12 0 0 1-.04-.15c.09-.22.03-.37-.16-.45a.37.37 0 0 1-.05-.3c.19-.01.25-.1.2-.26-.04-.13-.18-.16-.4-.09l-.9-1.29.33-.2c.48-.32.87-.53 1.16-.62l2.49-.84c.22-.08.79-.14 1.69-.19Z" fill="#95BED9"/><path d="m29.17 16.57-.02.22v.85c0 .09-.04.13-.13.13-.1 0-.2-.05-.27-.15a.32.32 0 0 0-.17-.12 1 1 0 0 0-.59 0c-.06.02-.11 0-.15-.06a1.07 1.07 0 0 1-.13-.44c-.07-.42-.01-.79.16-1.1a.08.08 0 0 0 0-.1.08.08 0 0 0-.08-.03l-.46.05c-.06 0-.09-.02-.07-.08l.02-.08c.02-.06.06-.1.12-.1.4-.05.71-.16.96-.35.18-.14.39-.4.63-.75.07-.1.15-.12.24-.03l.07.06c.07.06.07.13-.01.18-.14.1-.23.2-.29.34-.04.1 0 .14.1.13a.7.7 0 0 1 .38.05c.08.04.11.1.1.18-.02.07-.07.13-.18.18a.22.22 0 0 1-.13 0 .96.96 0 0 0-.75.11c-.1.07-.1.11.03.13.16.02.32 0 .46-.03.05-.02.1 0 .14.03.04.03.06.08.06.13l-.04.65Z" fill="#282D44"/><path d="M28.18 14.84c-.2.33-.37.41-.53.24a.18.18 0 0 1-.05-.2.18.18 0 0 1 .15-.12l.33-.06c.14-.03.17.02.1.14Z" fill="#282D44"/><path d="M26.86 15.77c-.15.05-.27 0-.35-.15-.08-.15-.1-.28-.03-.4.2.02.35.11.44.26.05.1.03.2-.06.3Z" fill="#102E35"/><path d="m20.97 15.3.88 1.3c-.1.1-.1.2 0 .31.04.04.1.06.21.04-.02.11 0 .2.05.3-.36.13-.71-.08-1.05-.62-.04-.05-.08-.06-.12-.03l-.06.04c-.05.04-.06.09-.03.15.06.11.15.23.3.35-1.16.29-2.24.73-3.25 1.33-.06.03-.06.07-.02.12l3.03 3.7c-.16.36-.2.7-.1 1.01a.34.34 0 0 0-.09.13l-.05.05c-.11.03-.19.01-.22-.05a.16.16 0 0 0-.17-.1.16.16 0 0 0-.15.13c-.13.4-.29.76-.47 1.08a.16.16 0 0 0-.09-.1.38.38 0 0 0-.06-.3c-.69-.95-1.3-1.97-1.81-3.03-.1-.2-.22-.5-.38-.9a9.68 9.68 0 0 0-.43-1c-.15-.3-.11-.55.11-.77l1.75-1.8a5.58 5.58 0 0 1 2.22-1.34Z" fill="#83B5CF"/><path d="M28.36 16.86a.49.49 0 0 1 .07-.37c.03-.05.02-.1-.03-.13-.07-.06-.09-.13-.05-.21.07-.13.15-.14.24-.04.2.21.24.58.15 1.1 0 .03-.02.04-.05.05-.02.01-.04 0-.06-.01-.14-.14-.28-.14-.43-.02-.06.05-.1.03-.13-.04l-.02-.1c-.02-.04 0-.08.04-.1a.49.49 0 0 1 .2-.04c.06 0 .09-.03.07-.09Z" fill="#A8B9C7"/><path d="M33.6 16.66c.04.2.16.36.27.34.1-.02.16-.21.12-.42-.04-.21-.16-.37-.27-.34-.1.02-.16.2-.12.42Zm-6.8-.37c.07 0 .12.03.15.07.02.03.01.08-.01.14-.15.4-.04.79.33 1.15.92.28 1.86.45 2.8.52.49.04.5.15.07.34a1.4 1.4 0 0 1-1.43-.12 2.5 2.5 0 0 0-1.2-.37 4.45 4.45 0 0 0-1.23.05c-.1.01-.14-.03-.15-.13v-.08c0-.05.02-.09.07-.1.16-.06.3-.08.46-.08.12 0 .16-.06.13-.17l-.3-1.07c-.01-.07.01-.11.08-.14a.5.5 0 0 1 .23-.01Z" fill="#282D44"/><path d="M32.05 18.7c.28.15.55.3.81.46.6.36.99.8 1.2 1.3.14.35.55.6 1.2.74a.1.1 0 0 0 .1-.02.1.1 0 0 0 .02-.1.55.55 0 0 0-.23-.33c-.45-.3-.86-.65-1.23-1.02.02-.13.1-.2.22-.19.2.1.35.27.48.49.03.06.08.08.15.06.1-.02.18-.12.27-.31.02.05.04.09.06.1.03.02.05.02.07 0a25.24 25.24 0 0 1 3.4-1.73.15.15 0 0 0 .1-.14v-.11l.29.29a14.96 14.96 0 0 1 3.46 11.77c-.04.35-.22 1.15-.55 2.4a1.9 1.9 0 0 0-1-.76c-.07-.01-.1-.05-.08-.11l.44-2.57c.14.04.21 0 .22-.13 0-.06 0-.13-.04-.2.02-.07.08-.12.19-.15l.44.2c.07.03.1 0 .1-.07v-.07c0-.08-.04-.14-.12-.16a.84.84 0 0 0-.27-.02.21.21 0 0 1-.17-.06l-.3-.3c.1-.01.13-.06.1-.14.11.2.31.26.6.18.03-.01.04-.04.02-.07l-.05-.09c-.01-.03-.04-.04-.07-.02-.15.06-.23.05-.26-.02v-.21c.1-.08.18-.18.22-.3a.14.14 0 0 0-.04-.16c-.07-.07-.19-.07-.34 0l-.6-.04c-.01-.09-.07-.14-.18-.16l.05-1.84c0-.06.03-.12.07-.17.35-.4.65-.8.9-1.17.22-.35.16-.41-.2-.2l-.28.3a53.91 53.91 0 0 1-2.86 3.25.12.12 0 0 0-.01.15l.07.13c-.26-.1-.5-.13-.7-.08-.07.01-.1.05-.1.11l-.02.71-.84.78a7.97 7.97 0 0 0-.58-4.13c-.07-.3-.2-.6-.4-.9-.07-.1-.11-.09-.12.04l-.02.13c0 .04-.02.06-.05.08a.08.08 0 0 1-.09 0 .7.7 0 0 1-.16-.3 2.94 2.94 0 0 1-.16-.68c-.02-.15-.11-.23-.28-.27a.34.34 0 0 1-.19-.11 9.57 9.57 0 0 0-2.42-2.01.11.11 0 0 0-.14 0c-.06.06-.09.13-.08.24l-.26-.19c-.08-.06-.08-.12 0-.17a.35.35 0 0 1 .11-.06c.22-.06.23-.14.03-.25-.18-.1-.36-.16-.54-.2a.23.23 0 0 0-.18.03.5.5 0 0 1-.39.08c0-.16.16-.27.47-.32l-.03-1.1c0-.32-.06-.59-.19-.81-.14-.25-.3-.48-.48-.7-.06-.08-.23-.14-.52-.21a6 6 0 0 1-.94-.3l.02-.22c.51-.1 1.03-.08 1.54.06.06.02.11.05.14.1l1.2 1.97Z" fill="#82ABD3"/><path d="M22.11 17.24c.2.08.25.23.16.45a.12.12 0 0 0 .04.15l.36.3c.02.01.05.02.08 0l.04-.05c0-.04 0-.07-.03-.1-.08-.13-.1-.24-.03-.32.04-.05.1-.07.17-.06.07.02.1.07.12.14l.1.57c.01.06.04.1.08.13.28.25.6.35.95.29.1-.02.14-.08.1-.18a2.82 2.82 0 0 1-.2-.58c-.04-.13 0-.15.1-.06.22.23.42.54.59.92.06.13.01.2-.13.2h-.88a.32.32 0 0 1-.19-.07.71.71 0 0 0-.36-.14c-.06 0-.1.02-.11.08a.77.77 0 0 1-.18.35c-.06.07-.08.06-.08-.03v-.5a.2.2 0 0 0-.08-.17l-.62-.5a.2.2 0 0 0-.22-.03.53.53 0 0 0-.3.44c-.02.1.02.14.12.12.1-.03.2-.1.29-.2a.13.13 0 0 1 .11-.05c.05 0 .08.03.1.07.2.3.31.67.36 1.1.01.07-.01.12-.06.16a.17.17 0 0 1-.17.04c-.17-.06-.29 0-.36.15l-.2.38a.26.26 0 0 1-.1.1c-.09.05-.12.02-.1-.07.1-.43.05-.9-.14-1.4a.88.88 0 0 0-.15-.24.94.94 0 0 1-.13-.18.17.17 0 0 1 .02-.19l.36-.51c.04-.06.04-.1 0-.16l-.4-.45a1.28 1.28 0 0 1-.3-.35c-.02-.06-.01-.11.04-.15l.06-.04c.04-.03.08-.02.12.03.34.54.7.75 1.05.61Z" fill="#282D44"/><path d="M22.06 16.95c-.1.02-.18 0-.21-.04-.1-.11-.1-.22 0-.32.23-.07.37-.04.4.1.06.15 0 .24-.19.26Zm13.43 2.2-.45.63c-.09.19-.18.3-.27.31-.07.02-.12 0-.15-.06a1.33 1.33 0 0 0-.48-.49c-.11 0-.18-.03-.2-.1a.15.15 0 0 1 .02-.17c.17-.17.2-.34.08-.53-.04-.07-.02-.13.05-.16.22-.12.4-.33.5-.63.03-.05 0-.08-.05-.07h-.07c-.03 0-.05.02-.05.05-.03.17-.12.28-.27.33a.21.21 0 0 0-.14.15c-.03.1-.1.17-.2.2a.2.2 0 0 0-.13.13.55.55 0 0 1-.1.15.09.09 0 0 1-.1.03.09.09 0 0 1-.06-.08.3.3 0 0 1 .05-.22c.2-.26.38-.54.56-.82.17-.27.37-.31.6-.14.08.06.16.06.23-.02.1-.1.14-.23.14-.38 0-.08-.05-.12-.12-.13a.5.5 0 0 1-.2-.06.23.23 0 0 1-.13-.14.2.2 0 0 1 .05-.21c.05-.05.1-.07.17-.04.1.04.25.09.46.14.5.14.84.31 1.02.52.03.05.05.1.03.16a.17.17 0 0 1-.1.12 1.1 1.1 0 0 1-.48.07c-.23-.01-.27.07-.12.25.07.1.16.18.26.25.06.05.1.12.1.2 0 .08-.03.14-.1.19a1 1 0 0 0-.35.57Z" fill="#282D44"/><path d="M35.37 17.46c.13.05.26.02.3-.07.02-.09-.06-.2-.2-.25-.12-.05-.26-.02-.29.07-.03.09.05.2.19.25Z" fill="#799EC9"/><path d="M33.92 19.73c.37.37.78.71 1.23 1.02.11.08.2.19.23.33a.1.1 0 0 1-.03.1.1.1 0 0 1-.09.02c-.66-.14-1.06-.39-1.2-.74a2.8 2.8 0 0 0-1.2-1.3c-.26-.16-.54-.31-.81-.46-.03-.07-.04-.12-.03-.15a.16.16 0 0 1 .1-.1c.05-.02.1-.02.15.01.13.07.25.14.38.19.08.03.11 0 .11-.08-.01-.45.1-.87.36-1.27.07-.1.14-.1.22-.02l.07.07c.1.1.09.19-.01.27a1.1 1.1 0 0 0-.43 1.05c0 .06.03.12.08.16l.87.9Z" fill="#282D44"/><path d="M38.67 17.9v.1a.22.22 0 0 1-.1.14c-1.18.5-2.3 1.07-3.4 1.74a.06.06 0 0 1-.07 0l-.06-.11.45-.63.31-.11c.29-.1.5-.2.65-.28.52-.3 1.05-.58 1.59-.84.3-.14.5-.15.63-.02Z" fill="#B8DAE0"/><path d="m20.33 18.88-.13-.18a.95.95 0 0 1-.12-.23c-.1-.26-.07-.41.08-.45.06-.01.1 0 .14.06l.26.41c.04.07.11.1.2.1h.15c.1 0 .15.05.16.15a.9.9 0 0 1-.04.4c-.03.08 0 .13.07.16h.1c.05 0 .1.03.13.07.03.04.04.1.03.14l-.3 1.08c-.02.09-.07.11-.15.07l-.11-.06c-.08-.03-.1-.09-.07-.16l.21-.54a.22.22 0 0 0-.05-.26.21.21 0 0 0-.25-.04l-.24.1c-.08.04-.14.02-.16-.07a.66.66 0 0 1 .1-.58.14.14 0 0 0-.01-.17Z" fill="#282D44"/><path d="m34.88 18.85-.02-.1a.08.08 0 0 1 .03-.09c.16-.13.25-.3.28-.52.01-.08.04-.1.1-.02.06.08.07.17.04.27-.13.36-.3.7-.5 1.02a.2.2 0 0 1-.2.1.2.2 0 0 1-.18-.14c-.06-.15 0-.27.14-.35a.48.48 0 0 1 .14-.04c.06 0 .1-.02.12-.03.05-.02.06-.05.05-.1Z" fill="#798BB3"/><path d="m39.06 18.05.25.31a12.72 12.72 0 0 1 1.61 2.3l.38.67a15.08 15.08 0 0 1 .3 12.55 14.58 14.58 0 0 1-5.62 6.6 14.85 14.85 0 0 1-3.63 1.72c-1.36.42-2.68.6-3.94.55a19.7 19.7 0 0 0-1.01 0 9.85 9.85 0 0 1-1.95-.13 14.86 14.86 0 0 1-9.81-6.54 20 20 0 0 1-1.61-3.19 12.2 12.2 0 0 1-.68-3.49l.02-.17c.01-.08.04-.09.09-.03.05.05.08.11.1.17l.25 1.9c.02.16.1.41.26.76a6.58 6.58 0 0 0 1.16 2.87 17.25 17.25 0 0 0 1.89 2.74 14.77 14.77 0 0 0 8.56 4.7c.41.08 1.04.1 1.88.1h.87c.67.01 1.35-.04 2.04-.15a13.99 13.99 0 0 0 7-3.33 10.72 10.72 0 0 0 2.58-2.92l.28-.43a13.95 13.95 0 0 0 1.54-3.26c.32-1.24.5-2.04.55-2.4.51-4.46-.64-8.38-3.46-11.76.01-.1.04-.14.1-.14Z" fill="#102E35"/><path d="M22.05 18.82h-.01c-.1 0-.2.07-.2.18l-.03.33c0 .1.07.2.17.2H22c.1 0 .2-.07.2-.17l.03-.33c0-.1-.07-.2-.18-.2Z" fill="#799EC9"/><path d="M27.43 19.29c.36.2.71.36 1.05.5.2.08.48.13.86.15.4.03.8.13 1.17.3.06.03.17.03.33-.01a.5.5 0 0 0 .4-.08.23.23 0 0 1 .17-.02c.18.03.36.1.54.19.2.1.2.2-.03.25a.35.35 0 0 0-.1.06c-.1.05-.1.11-.01.17l.26.19c.23.13.4.29.52.46.02.25.06.42.1.52.13.29.06.36-.22.22l-.56-.32c-.07-.04-.1-.02-.1.06v.1c0 .06.03.1.07.11l.97.54-.04.45c0 .06-.03.1-.08.13a.14.14 0 0 1-.15 0l-.86-.53c-.06-.22-.14-.4-.26-.57a.87.87 0 0 1-.09-.9.31.31 0 0 0 0-.27.3.3 0 0 0-.2-.17c-.17-.05-.3.09-.42.4 0 .03-.03.03-.06.02a1.7 1.7 0 0 0-.99-.12.24.24 0 0 0-.14.09 1.2 1.2 0 0 1-.45.36c-.06.03-.07.07-.02.13a.2.2 0 0 0 .09.05c.52.23.58.66.18 1.28-.13.1-.33.17-.58.23-.35.08-.6.24-.76.49a.18.18 0 0 1-.12.08h-.06c-.07.02-.11.06-.11.14 0 .09.02.18.09.27.09.2.1.37.03.5a.16.16 0 0 1-.16.1c-.06 0-.1-.04-.1-.1l-.22-.76a.17.17 0 0 0-.14-.14l-.1-.02a.25.25 0 0 1-.2-.16.47.47 0 0 0-.12-.18c-.06-.06-.12-.05-.18 0-.18.18-.38.3-.61.36-.08.02-.1.07-.07.14.05.15.16.22.32.22.07 0 .1.04.1.1.03.49.01.95-.05 1.4a.35.35 0 0 1-.1.18l-.54.63a.37.37 0 0 1-.3.13c-.45 0-.89.08-1.32.26l-.41-.52A6.72 6.72 0 0 0 22.27 25a7.39 7.39 0 0 1-1.55-1.57.34.34 0 0 1 .08-.13l1.42-1.48c.1-.1.25-.2.48-.3.2-.09.36-.18.45-.26.18-.15.37-.27.58-.36.22-.1.21-.18 0-.25-.12-.03-.16-.16-.12-.37.74-.37 1.6-.67 2.6-.9.5-.1.92-.14 1.22-.1Z" fill="#F0F3FA"/><path d="M31.3 19.9c-.3.06-.45.17-.46.33a.65.65 0 0 1-.33.02 3.17 3.17 0 0 0-1.17-.3 2.83 2.83 0 0 1-.86-.16c-.34-.14-.7-.3-1.05-.5.88-.1 1.5-.1 1.83.02.63.22 1.3.41 2.05.6Z" fill="#34457A"/><path d="M23.61 20.28c-.04.21 0 .34.11.37.22.07.22.15.01.25-.2.09-.4.21-.58.36-.1.08-.24.17-.45.26-.23.1-.39.2-.48.3L20.8 23.3c-.09-.31-.05-.65.11-1 .7-.83 1.6-1.5 2.7-2.02Z" fill="#CBD8E7"/><path d="m35.34 23.81-.07 1.06a.3.3 0 0 0 .17.3l.38.2c.12.07.2.04.2-.1.02-.15.08-.32.16-.5a8 8 0 0 1 .58 4.13 7.4 7.4 0 0 1-.96 3.43.45.45 0 0 0-.3.3.08.08 0 0 1-.07.07c-.04 0-.07 0-.09-.03-.31-.4-.56-.82-.75-1.24a.35.35 0 0 1 .08-.42l1.38-1.4c.03-.03.04-.06.01-.1l-.03-.05c-.03-.05-.07-.05-.11-.01l-.16.16a4.8 4.8 0 0 1-1.59 1.22.24.24 0 0 0-.14.1c-.33.52-.8 1-1.38 1.44l-2.27 2.32c-.04-.15-.1-.24-.15-.26l-.45-.84a.24.24 0 0 0-.21-.13c-.1 0-.18.04-.22.13a.97.97 0 0 0-.1.54c-.07-.48.04-.8.35-.97.04-.02.04-.04 0-.06a.15.15 0 0 1-.07-.04c.1.02.18 0 .24-.05.2-.17.37-.24.51-.21.09.01.2.08.32.2.17.15.31.23.44.22.15-.01.16-.06.04-.14a2.11 2.11 0 0 1-.4-.42c-.24-.3-.48-.5-.71-.55l-.07-.4c.4-.87.7-1.78.85-2.73.05-.36.16-.87.3-1.52.1-.5.19-.9.23-1.17.02-.08.06-.12.14-.13l1.65-.2c.08-.02.09-.05.03-.1l-.93-.85c-.07-.06-.06-.1.04-.1h.21c.36.14.68.36.95.66a.3.3 0 0 0 .14.1c.5.14.91.03 1.22-.34.14-.17.22-.36.26-.6.03-.23.08-.47.15-.72.05-.21-.04-.42-.27-.64a7.02 7.02 0 0 0-1.98-1.9c-.12-.04-.22-.05-.3-.02-.12-.17-.3-.33-.52-.46 0-.1.02-.18.08-.23.04-.04.09-.04.14-.01a9.57 9.57 0 0 1 2.42 2c.05.07.12.1.2.12.16.04.25.12.27.27.03.24.08.47.16.67Z" fill="#33386F"/><path d="m31.46 22.16-.36 3.12c0 .06.02.1.08.13a.1.1 0 0 0 .08 0 .16.16 0 0 0 .1-.11l.16-.65c0-.05.04-.09.09-.1.04-.03.1-.03.14 0l.67.37h-.21c-.1 0-.1.03-.04.1l.93.84c.06.05.05.08-.03.1l-1.64.2c-.08 0-.13.05-.15.13-.04.27-.12.66-.23 1.17-.14.65-.24 1.16-.3 1.52a10.1 10.1 0 0 1-.85 2.72c.25-1.45.52-2.88.81-4.28a3.7 3.7 0 0 0-.02-1.72c-.04-.13-.12-.18-.24-.16-.31.06-.75.05-1.32-.02a6.55 6.55 0 0 0-.89-.08c-.26 0-.3-.1-.13-.3l.43-.5c.05-.07.05-.13-.01-.18a.88.88 0 0 0-.71-.22.41.41 0 0 1-.1-.27c.01-.08.05-.12.12-.13l.06-.01a.18.18 0 0 0 .12-.08c.16-.25.41-.4.76-.5.25-.05.45-.13.58-.22.1-.05.11.06.02.33-.03.07 0 .12.07.15l.59.19c.07.02.14.01.2-.04a.22.22 0 0 0 .09-.2 3.79 3.79 0 0 0-.6-1.84.17.17 0 0 0-.14-.08.18.18 0 0 0-.15.07.37.37 0 0 1-.26.14.2.2 0 0 1-.1-.05c-.04-.06-.03-.1.03-.13.18-.09.33-.2.45-.36a.24.24 0 0 1 .14-.09c.34-.06.67-.02 1 .12.02.01.04 0 .05-.02.11-.31.25-.45.42-.4a.32.32 0 0 1 .2.44c-.14.32-.1.62.09.9Z" fill="#556895"/><path d="M32.89 21.48h-.07c-.05 0-.07.03-.05.08l.26.9c.02.07.07.13.13.18l1.29 1c.05.03.1.03.14-.01l.28-.26c.23.22.32.43.27.64-.07.25-.12.49-.15.73a1.3 1.3 0 0 1-.26.6c-.31.36-.71.47-1.22.32a.3.3 0 0 1-.14-.09c-.27-.3-.59-.52-.95-.65l-.67-.37a.15.15 0 0 0-.14 0 .15.15 0 0 0-.1.1c-.04.22-.1.44-.16.65a.16.16 0 0 1-.09.1.1.1 0 0 1-.08 0c-.06-.01-.09-.06-.08-.12l.36-3.12c.12.17.2.35.26.57l.04 1.11c.01.34.18.5.5.49a.5.5 0 0 0 .2-.04.7.7 0 0 0 .44-.73l-.05-.88-.97-.54a.12.12 0 0 1-.06-.1l-.01-.11c0-.08.03-.1.1-.06.2.13.39.23.56.32.28.14.35.07.22-.22-.04-.1-.08-.27-.1-.52.08-.03.18-.02.3.03Z" fill="#798BB3"/><path d="M32.89 21.48a6.9 6.9 0 0 1 1.98 1.9l-.28.25c-.05.04-.1.04-.15 0l-1.29-1a.34.34 0 0 1-.12-.17l-.26-.9c-.02-.05 0-.08.05-.08h.07Z" fill="#DDE8EF"/><path d="M29.36 23.03c.4-.62.34-1.05-.18-1.28.11-.02.2-.06.26-.14a.18.18 0 0 1 .15-.07c.07 0 .11.03.15.08.35.56.55 1.18.59 1.85 0 .08-.02.14-.09.2a.21.21 0 0 1-.2.03l-.59-.2c-.07-.02-.1-.07-.07-.14.1-.27.09-.38-.02-.33Z" fill="#A8B9C7"/><path d="M42.92 22.2a15.92 15.92 0 0 1 .58 9.72 15.9 15.9 0 0 1-5.88 8.84 15.93 15.93 0 0 1-10.9 3.2 15.9 15.9 0 0 1-6.22-1.81 15.76 15.76 0 0 1-6.12-5.72v-.12a.2.2 0 0 1 .2-.08.2.2 0 0 1 .17.1 15.88 15.88 0 0 0 10.85 7.15c.7.12 1.38.16 2.05.13l.92-.02c.82 0 1.44-.04 1.87-.1 1.5-.24 2.9-.67 4.19-1.3l.85-.42c.23-.12.56-.32.97-.6l.58-.37c.25-.15.5-.32.75-.52 2.32-1.88 4-4.22 5.03-7.01a16.87 16.87 0 0 0-.1-11.12c0-.02 0-.03.02-.04.02 0 .05 0 .06.02a.2.2 0 0 0 .13.07Z" fill="#24546C"/><path d="m32.85 22.68.05.88c.02.35-.13.6-.44.73a.5.5 0 0 1-.2.04c-.32 0-.49-.15-.5-.49l-.05-1.11.87.53c.05.03.1.03.15 0a.15.15 0 0 0 .08-.13l.04-.45Z" fill="#A8B9C7"/><path d="M33.71 23.55h-.54c-.07 0-.1-.03-.11-.1l-.05-.44a.1.1 0 0 1 .06-.11.1.1 0 0 1 .12 0l.6.45c.03.03.05.07.03.12-.02.05-.05.08-.1.08Z" fill="#DDE8EF"/><path d="M20.67 23.48c-.03 1.1.14 1.84.5 2.2l2.48 2.44c.06.2.03.35-.08.47a.98.98 0 0 1-.56.16.14.14 0 0 1-.13-.09 1.8 1.8 0 0 0-.65-.7c-.02-.06-.1-.13-.2-.21a.9.9 0 0 0-.3-.78.23.23 0 0 1-.07-.11l-.23-.8c-.02-.06-.06-.09-.13-.07-.43.1-.8.33-1.1.67-.26.08-.39.2-.37.38-.04.21-.12.33-.24.35-.07 0-.1-.03-.1-.1v-1.24c0-.07.02-.14.06-.2.1-.16.12-.32.03-.49a.29.29 0 0 1-.03-.18l.1-.64c.2-.32.35-.68.48-1.08a.16.16 0 0 1 .15-.13c.08 0 .13.03.17.1.03.06.1.08.22.05Z" fill="#A8B9C7"/><path d="M20.72 23.43A7.39 7.39 0 0 0 22.26 25c.4.26.86.72 1.39 1.38l.41.52c-.24-.16-.45-.18-.62-.06-.13.09-.15.2-.07.33.16.28.25.6.28.95l-2.48-2.44c-.37-.36-.53-1.1-.5-2.2l.05-.05Z" fill="#CBD8E7"/><path d="M27.82 24.24c.26-.03.5.04.7.22.07.05.07.11.02.18l-.43.5c-.17.2-.13.3.13.3.21 0 .5.03.9.08.56.07 1 .08 1.31.02.12-.02.2.03.23.16.15.55.16 1.12.03 1.72-.29 1.4-.56 2.83-.81 4.28l.07.41a1.62 1.62 0 0 1-.74-.31.22.22 0 0 0-.18-.05.8.8 0 0 0-.4.2.12.12 0 0 1-.13.04.13.13 0 0 1-.09-.1c-.07-.26-.23-.4-.49-.38l-1.47-.58a.3.3 0 0 0-.18-.02.81.81 0 0 1-.68-.12c-.03-.03-.04-.05-.01-.08l.06-.03c.08 0 .1-.02.07-.1-.17-.37-.32-.72-.44-1.04a.33.33 0 0 0-.17-.2l-1.55-.75c.11-.12.14-.28.08-.47a2.15 2.15 0 0 0-.28-.95c-.08-.13-.05-.24.07-.33.17-.12.38-.1.62.06.43-.18.87-.27 1.33-.26.11 0 .21-.04.29-.13l.55-.63a.35.35 0 0 0 .09-.19c.06-.44.08-.9.06-1.39 0-.06-.04-.1-.11-.1-.16 0-.27-.07-.32-.22-.03-.07 0-.12.07-.14.23-.06.43-.18.61-.36.06-.05.12-.06.18 0 .05.05.1.1.13.18.03.1.1.15.2.16l.09.02c.07.02.12.06.14.14l.21.77c.02.05.05.08.11.08.07 0 .13-.03.16-.1.07-.12.06-.29-.03-.5Z" fill="#34457A"/><path d="m40.68 26.93-.56 1.11c-.03.06-.01.1.05.12h.08c.05.02.1.06.14.12v.44c0 .07.03.09.09.07l.5-.17c.02.04.05.07.08.09l.17.21-.44 2.57c-.01.06.01.1.07.11.41.13.75.38 1 .75 0 .01 0 .02-.02.03a4.53 4.53 0 0 0-2.35.43c-.8.3-1.66.3-2.58.02-.16-.05-.25 0-.28.17a6.76 6.76 0 0 0-.1 1.8c.01.2.11.31.3.33.7.06 1.36.18 1.98.34.21.06.46.09.75.09.26 0 .51.01.77.05l-.28.43-3.27-.06c-.16 0-.23.08-.21.24l.1 1.15c-.1.18-.22.32-.36.42a.14.14 0 0 0-.06.15c0 .04.03.09.06.13a.94.94 0 0 0-.15.9l-.11.01c-.07 0-.1.04-.1.11.03.15-.01.25-.12.32s-.23.05-.34-.05a.58.58 0 0 1-.22-.52c.01-.08.05-.13.12-.14l.32-.07c.07-.02.09-.05.05-.12l-.04-.05c-.04-.07-.1-.09-.17-.06-.62.23-.69.62-.21 1.18a4.07 4.07 0 0 1-3-.87c.3.02.54-.03.7-.14.25-.2.23-.58-.06-1.14a.6.6 0 0 0-.5-.36c-.21-.03-.38.07-.49.28-.07.15-.06.39.03.73l.02.07-2.36-.99c-.07-.02-.12 0-.15.06l-.03.04c-.02.04-.02.06.02.08l.73.47a.65.65 0 0 0-.5.24.53.53 0 0 0-.07.45c.05.16.13.28.27.36.16.08.34.08.53-.01.08-.04.1-.01.1.07v.07c-.01.08-.06.13-.13.16a.67.67 0 0 1-.46.03c-.06-.02-.1 0-.13.07l-.01.05c-.01.03 0 .06.03.07.57.25.91.07 1-.54.83.2 1.7.53 2.59 1 .77.4 1.6.45 2.47.17.2-.06.4-.3.6-.68a.84.84 0 0 0-.04.42 13.99 13.99 0 0 1-6.03 2.55c-.7.11-1.37.16-2.04.15h-.87a10.9 10.9 0 0 1-1.88-.1 14.77 14.77 0 0 1-8.56-4.7 17.25 17.25 0 0 1-1.9-2.74 6.59 6.59 0 0 1-1.16-2.87l.08-.1c.04-.06.08-.06.1.02.12.46.41.72.87.78l.62.07c.07 0 .1-.03.1-.1l-.01-.36a11.34 11.34 0 0 0 1.43 2.6c.22.32.5.67.85 1.04.4.43.8.88 1.17 1.35-.21-.03-.38.03-.48.15a.14.14 0 0 1-.08.05c-.03 0-.06 0-.08-.03-.02-.03-.03-.05-.01-.08l.08-.17a.16.16 0 0 0-.02-.19.44.44 0 0 0-.23-.15c-.1-.02-.14.01-.13.11l.02.2a.2.2 0 0 1-.05.16.71.71 0 0 0-.18.55c0 .07.04.12.1.14.15.04.28.01.38-.1.02-.02.05-.03.07-.02.03.01.05.03.05.07a.1.1 0 0 1 0 .06l-.1.25a.14.14 0 0 0 .04.16c.05.05.1.06.16.03l.59-.27c.18-.08.29-.25.32-.5l.62.42c.05.03.08.08.08.15a.25.25 0 0 1-.07.22v-.08c-.02-.06-.05-.09-.1-.1a.4.4 0 0 0-.06 0c-.06 0-.1.03-.1.09l-.22.85c-.03.11.02.17.13.17.12 0 .22-.04.3-.14 0 0 0-.02.02-.03.05-.04.1-.06.15-.05.06.02.07.05.05.1-.05.1-.07.2-.07.3.02.27.12.31.32.13.16-.16.35-.3.57-.43.12-.07.14-.2.05-.38.13-.02.22.1.28.36.01.08.04.12.08.12.05 0 .11 0 .19-.03l-.13 1.07c-.01.08.02.13.1.17.06.03.13.02.18-.04l.19-.2c.06-.08.11-.07.15.02.04.09.04.18 0 .27-.03.07-.01.13.05.18.03.03.07.04.1.04.05 0 .1-.04.16-.1.2-.25.41-.5.63-.73l2.03.93c-.03.38.06.63.26.78.21.14.45.09.71-.17.02-.02.02-.04 0-.06l-.03-.04c-.03-.05-.08-.05-.12-.01a.56.56 0 0 1-.2.12.28.28 0 0 1-.26-.03.3.3 0 0 1-.14-.24c-.01-.26.07-.44.25-.54a.2.2 0 0 1 .17-.01c.07.02.14.07.18.14.04.06.09.07.15.04a.2.2 0 0 0 .07-.08c.12.2.33.3.63.29-.06.64.24.9.9.79.09-.02.13-.07.14-.16v-1.33c-.01-.1-.07-.14-.18-.13l.05-.8c.3.1.62.12.96.04.03 0 .05-.03.05-.06v-.08c-.01-.05-.04-.08-.09-.07l-.38.04c-.14.01-.16-.03-.06-.14l.15-.15c.3-.29.42-.55.4-.8-.03-.18-.14-.3-.32-.32-.39-.06-.6.07-.66.39a1.6 1.6 0 0 0-.71-.03.43.43 0 0 0-.36-.41.52.52 0 0 0-.53.12.2.2 0 0 0-.06.16c.02.31-.05.6-.2.86a2.18 2.18 0 0 0-.63-.46c.13-.32.14-.57.05-.76-.16-.31-.41-.38-.77-.2l-1.23-1.65c.97.5 1.97.81 3 .92l.62.1 1.96-.07.75-.17c.74-.18 1.41-.4 2-.68.23-.1.22-.18-.03-.22a9.84 9.84 0 0 0-1.58-.14l-2.6-.25c-.06-.1-.19-.1-.37 0a.25.25 0 0 1-.17.03 1.38 1.38 0 0 1-.6-.27.17.17 0 0 1-.07-.18.28.28 0 0 0-.1-.28 4.35 4.35 0 0 0-.56-.44.24.24 0 0 1-.12-.24l.01-.08c0-.07.04-.08.1-.04.3.2.57.48.81.8.2.26.43.4.72.4.76.04 1.47.1 2.13.17l1.29.1c.73.2 1.43.23 2.1.08.17.03.32.06.44.1.2.06.34.09.44.1.4 0 .76 0 1.05-.03.08.21.26.47.52.77.06.06.12.1.2.1l.32.02c.17 0 .28-.06.35-.19a.59.59 0 0 0 .04-.41.75.75 0 0 0-.2-.39c-.12-.1-.24-.15-.38-.11a.6.6 0 0 0-.4.3.08.08 0 0 1-.08.04.08.08 0 0 1-.08-.05c-.08-.15-.07-.27.02-.37.04-.04.1-.07.15-.06a.4.4 0 0 0 .34-.14c.07-.4-.04-.93-.35-1.61l-.11-.26c.05-.07.12-.17.23-.28.25-.29.39-.55.42-.8a7.4 7.4 0 0 0 .96-3.44l.84-.78c.13.11.1.25-.08.4a.1.1 0 0 0-.04.08c0 .03.01.04.03.05.06.05.1.03.15-.03.1-.16.24-.22.42-.19.1.02.17 0 .24-.07.04-.05.1-.09.15-.11.07-.03.1 0 .1.06l.01.48c0 .07.04.1.1.09h.05c.06 0 .09-.04.09-.1l-.01-.55.04-.04c.03-.03.07-.03.1 0l.07.06a.6.6 0 0 0 .32.38c.06.03.1.02.14-.05.03-.04.02-.12-.02-.22l.32-.55c.27-.46.46-.8.55-1.05.14-.4.2-.81.18-1.26a.05.05 0 0 0-.03-.04h-.05l-1.81 1.86c-.04.05-.1.07-.2.06l-.07-.13c-.04-.05-.03-.1.01-.15 1-1.04 1.95-2.12 2.86-3.24.15-.18.25-.29.29-.31.35-.21.41-.15.19.2-.25.37-.55.76-.9 1.17a.28.28 0 0 0-.07.17l-.05 1.84Z" fill="#9DC2D4"/><path d="M36.18 24.77a1.5 1.5 0 0 0-.15.5c-.02.14-.09.17-.21.1l-.38-.2a.3.3 0 0 1-.17-.3l.07-1.06c.04.15.1.25.16.3.03.02.06.02.1 0a.08.08 0 0 0 .04-.07l.01-.13c.02-.13.06-.14.12-.03.2.3.34.6.41.9Z" fill="#556895"/><path d="M29.7 24.07c0-.09.05-.14.13-.14.09 0 .16.01.22.05.1.07.12.15.06.25l-.1.19c-.1.2-.18.34-.25.4-.13.11-.29.14-.49.1a.08.08 0 0 1-.05-.05c-.04-.08-.02-.13.06-.15.26-.1.4-.3.42-.65Z" fill="#CBD8E7"/><path d="M18.8 27.03a8.82 8.82 0 0 0 3.54 8.23l1.25.81 1.23 1.65c-.25.32-.37.69-.37 1.1a.95.95 0 0 0-.05-.3.14.14 0 0 0-.12-.1l-.27-.02c-.12-.36-.3-.42-.54-.17l-.3-.37c.2-.29.25-.55.17-.8-.09-.26-.27-.37-.53-.32-.15.02-.3.14-.44.36l-.55-.43c.14-.22.17-.4.09-.56a1 1 0 0 0-.45-.37 26.2 26.2 0 0 0-2.16-2.72 5.7 5.7 0 0 1-1.4-3.9c.04.03.08.04.12.03.06 0 .08-.04.09-.1l.02-1.72c0-.14-.06-.22-.2-.24l-.48-.06c-.68-.91-1.38-.83-2.12.26l-.52-.1c-.05 0-.07-.04-.06-.1.04-.13.01-.23-.08-.3-.02-.92.3-1.7.93-2.33.09-.09.18-.1.29-.05.72.36 1.29.7 1.7 1.04.55.46.96.98 1.21 1.58Z" fill="#DDE8EF"/><path d="m19.66 24.54-.1.64c-.01.07 0 .13.02.18.09.17.08.33-.03.5a.33.33 0 0 0-.06.19v1.24c0 .07.03.1.1.1.12-.02.2-.14.24-.35a.3.3 0 0 1 .17-.11c.06-.02.1 0 .14.06l1.34 2.16c.28.85.66 1.58 1.15 2.2.04.05.09.05.13-.01.03-.06.03-.13 0-.22l-.16-1.1 1.04 1.52-.42.1c-.25.06-.26.15-.04.27l.4.18c.42.2.72.39.88.6.26.32.58.78.97 1.4-.65-.04-1.02.14-1.13.53l-.85.34-1.1.3a8.82 8.82 0 0 1-2.77-10.83c.04.03.07.06.08.1Z" fill="#4B2650"/><path d="M39.46 28.36c-.22-.3-.37-.33-.44-.11l-.07-.06c-.03-.03-.07-.03-.1 0l-.04.04c-.01-.2.01-.4.07-.58.02-.07.06-.1.13-.11.1-.02.17-.07.22-.15a.1.1 0 0 0-.01-.12c-.03-.04-.06-.05-.1-.04l-.5.09 1.81-1.85c.01-.02.03-.02.05-.01.02 0 .03.02.03.04.03.45-.04.87-.18 1.26-.1.24-.28.6-.55 1.05l-.32.55Z" fill="#95BED9"/><path d="M22.02 27.75c-.14.28-.24.52-.28.72-.07.34-.18.35-.33.04a4.3 4.3 0 0 0-.52-.77 4.8 4.8 0 0 1-.46-.67.35.35 0 0 0-.13-.14c-.1-.06-.13-.15-.1-.27.3-.34.68-.56 1.1-.67.07-.02.1 0 .13.07l.23.8c.01.04.03.08.07.1.22.21.32.47.3.79Z" fill="#3A2357"/><path d="M17.45 27.03c-.4.07-.67.19-.84.36a.22.22 0 0 0-.06.15l-.02 1.16c0 .1.04.13.13.11l.93-.17c.04 0 .05-.03.03-.07l-.03-.07c-.01-.02-.03-.03-.05-.02l-.7.17a.12.12 0 0 1-.12-.02.13.13 0 0 1-.05-.11l.02-.26c.01-.34.05-.57.1-.7.1-.23.3-.35.58-.37.24 0 .4.07.47.23a1.5 1.5 0 0 1 .09.57c0 .06-.03.1-.1.11-.03.01-.06 0-.1-.02a.23.23 0 0 1-.1-.13l-.1-.4c-.03-.08-.07-.11-.15-.1l-.28.02c-.12.02-.15.07-.08.18l.03.04c.04.05.04.1 0 .16-.1.13-.1.29-.03.48.01.04.04.05.08.04.03-.01.04-.03.04-.05 0-.06.04-.1.1-.09l.56.07c.06 0 .1.04.11.1.04.17 0 .31-.12.44a.12.12 0 0 0-.02.14c.02.05.07.1.13.14a5.7 5.7 0 0 0 1.4 3.9 25.96 25.96 0 0 1 2.16 2.72c-.54.26-.85.62-.92 1.09-.02.13 0 .25.09.36.08.1.19.16.32.18.28.03.57-.2.87-.7l.55.43c-.3.45-.37.8-.22 1.06.1.18.28.24.53.18.2-.05.36-.2.49-.48l.3.37c.14.2.32.25.54.17l.27.03c.06 0 .1.04.12.1.04.08.05.18.05.3.04.2.15.39.34.53-.67.02-1.21.24-1.65.68-.08.12-.17.18-.26.2-.08 0-.1-.03-.1-.1l.03-.33c.01-.14-.05-.2-.18-.15a.49.49 0 0 0-.2.12c-.11.12-.18.1-.21-.07l-.04-.2c-.01-.08-.06-.12-.13-.12-.04 0-.08 0-.11.03a.44.44 0 0 1-.19.03c-.04 0-.07-.04-.08-.12-.06-.26-.15-.38-.28-.36l-.41.32c-.05.04-.09.03-.12 0a.1.1 0 0 1-.02-.06.22.22 0 0 1 .03-.16c.08-.14.08-.27-.01-.39a.12.12 0 0 0-.13-.05.12.12 0 0 0-.1.09.3.3 0 0 1-.25.21c-.06.01-.1-.02-.1-.09a.5.5 0 0 1 .07-.3.28.28 0 0 0 .07-.22.19.19 0 0 0-.08-.15l-.62-.43c-.15 0-.23.04-.26.12-.08.05-.15.06-.22.03-.06-.03-.08-.08-.05-.14.05-.13.08-.28.08-.42a27.2 27.2 0 0 0-1.17-1.35 8.72 8.72 0 0 1-.9-1.13 11.33 11.33 0 0 1-1.38-2.51l-.48-1.18-.73-2 .13-.94c0-.08.06-.13.14-.13h.18c.08 0 .13-.04.17-.1.07-.14.17-.25.27-.35.07-.06.09-.12.07-.2-.03-.08-.1-.13-.24-.15.74-1.09 1.44-1.17 2.12-.26Z" fill="#F0F3FA"/><path d="M26.09 26.64c-.1.09-.12.2-.07.26.06.06.17.04.26-.04.1-.1.12-.2.07-.27-.06-.06-.17-.03-.26.05Z" fill="#A8B9C7"/><path d="M20.2 26.66c-.03.12 0 .21.1.27.05.03.1.08.13.14.09.17.24.4.47.67.25.32.42.58.5.77.16.31.27.3.34-.04.04-.2.14-.44.28-.72.12.08.19.15.21.2a.77.77 0 0 0-.09.88c.27.54.42.93.46 1.18l.16 1.1a6.87 6.87 0 0 0-1.28-1.96l-1.34-2.16c-.03-.06-.08-.08-.14-.06a.35.35 0 0 0-.17.1c-.02-.16.1-.29.38-.37Z" fill="#6A548A"/><path d="M14.67 26.8c.1.06.12.16.08.3-.01.05 0 .08.06.1l.52.09c.14.02.22.07.24.15.02.08 0 .14-.07.2-.1.1-.2.21-.27.34-.04.07-.1.1-.17.1l-.18.01c-.08 0-.13.05-.14.13l-.13.94-.11-.92c-.01-.06-.04-.09-.1-.09-.26 0-.46-.16-.58-.49-.07-.16-.01-.25.16-.26l.27-.01c.15-.01.23-.1.22-.25 0-.25.07-.37.2-.34Z" fill="#161619"/><path d="m40.86 27.1-.28.42a.26.26 0 0 0-.03.2c.02.12-.01.2-.1.24a.33.33 0 0 0-.14.12l-.06.09h-.08c-.06-.03-.08-.07-.05-.13l.56-1.11c.1.02.17.07.18.16Z" fill="#102E35"/><path d="m17.45 27.03.48.06c.14.02.2.1.2.24l-.02 1.72c0 .06-.03.1-.09.1-.04.01-.08 0-.12-.03a.38.38 0 0 1-.13-.14.12.12 0 0 1 .02-.14.47.47 0 0 0 .12-.44c-.01-.06-.05-.1-.1-.1l-.57-.07c-.06 0-.1.03-.1.09 0 .02-.01.04-.04.05-.04 0-.07 0-.08-.04-.07-.2-.06-.35.03-.48a.13.13 0 0 0 0-.16l-.03-.04c-.07-.1-.04-.16.08-.18l.28-.02c.07-.01.12.02.14.1l.11.4c.02.05.05.1.1.13.03.02.07.03.1.02.07-.01.1-.05.1-.11v-.04a1.36 1.36 0 0 0-.09-.53c-.08-.16-.23-.24-.47-.23-.28.02-.47.14-.57.36-.06.14-.1.37-.11.7l-.02.27c0 .04.01.08.05.1.03.04.07.05.11.03l.71-.17c.02-.01.04 0 .05.02l.03.07c.02.04 0 .06-.03.07l-.93.17c-.1.02-.14-.02-.13-.11l.02-1.16c0-.05.02-.1.06-.15.17-.17.45-.3.84-.36Z" fill="#161619"/><path d="m40.86 27.1.6.03.16.46v.2c-.08-.1-.18-.2-.3-.28a.16.16 0 0 1-.06-.15v-.16c0-.02 0-.04-.03-.04l-.06-.02c-.05 0-.08.02-.1.07-.02.28.08.48.31.61.03.08 0 .13-.1.15a.48.48 0 0 0-.32 0 .07.07 0 0 0-.05.07c0 .04.01.06.05.07.05.02.1.03.15.01.06-.01.1 0 .12.07.05.18.17.26.37.25-.1.03-.17.08-.19.16a.48.48 0 0 1-.35.11.26.26 0 0 1-.09-.1c.02-.02.02-.04.01-.06 0-.03-.02-.03-.05-.03l-.27.06c-.08.01-.11-.02-.1-.1v-.3a.14.14 0 0 0-.03-.1.08.08 0 0 0-.08-.03c-.04.01-.06.04-.07.08v.15a.3.3 0 0 0-.13-.11l.06-.1a.33.33 0 0 1 .13-.11c.1-.04.13-.12.1-.24a.26.26 0 0 1 .04-.2l.28-.43Z" fill="#798BB3"/><path d="m41.62 27.59-.16-.46c.15-.07.27-.07.34 0 .05.04.06.1.04.16a.61.61 0 0 1-.22.3Z" fill="#161619"/><path d="M41.62 27.8c.03.07.11.08.26.02.03-.02.06 0 .07.02l.05.09c.02.03.01.06-.03.07-.28.08-.48.02-.59-.18a.57.57 0 0 1-.3-.6c0-.06.04-.09.1-.08l.05.02c.02 0 .03.02.03.04v.16c0 .06.02.11.07.15.11.08.21.17.29.29Zm-2.82.43.02.55c0 .06-.03.1-.09.1h-.05c-.06 0-.1-.02-.1-.09v-.48c0-.07-.04-.09-.1-.06a.48.48 0 0 0-.16.1.24.24 0 0 1-.24.08c-.18-.03-.32.03-.42.2-.04.05-.1.07-.15.02-.02 0-.03-.02-.03-.05a.1.1 0 0 1 .04-.07c.18-.16.2-.3.08-.4l.02-.72c0-.06.03-.1.1-.11.2-.05.44-.02.7.08.1.01.16 0 .2-.06l.5-.1c.04 0 .07.01.1.05a.1.1 0 0 1 0 .12.28.28 0 0 1-.21.15c-.07 0-.11.04-.13.1-.06.2-.08.4-.07.59Z" fill="#161619"/><path d="M15.02 27.78c.14-.04.24-.16.21-.26-.02-.11-.16-.17-.3-.13-.15.03-.25.15-.22.26.02.1.16.16.3.13Z" fill="#DDE8EF"/><path d="m38.57 27.8-.33.38a.1.1 0 0 1-.12.04.1.1 0 0 1-.07-.1l-.03-.54a.1.1 0 0 1 .05-.1.1.1 0 0 1 .1-.01l.36.16c.09.04.1.1.04.17Zm-24.28.1c.12 0 .22-.07.23-.17 0-.1-.1-.2-.21-.2-.12 0-.22.07-.23.17 0 .1.09.19.2.2Z" fill="#9DC2D4"/><path d="M25.88 28.07c-.07.2-.08.39 0 .41.06.03.18-.11.25-.31.08-.2.08-.38.01-.41-.07-.03-.19.11-.26.31Z" fill="#95BED9"/><path d="m15.34 31.16.48 1.18v.36c.01.07-.02.1-.1.1l-.6-.07a.97.97 0 0 1-.88-.78c-.02-.08-.05-.08-.1-.02l-.07.1a3.5 3.5 0 0 1-.26-.75c-.12-.96-.2-1.6-.25-1.9a.36.36 0 0 0-.1-.18c-.05-.06-.08-.05-.09.03l-.02.17c-.11-.6-.06-1.12.16-1.56.22.35.28.73.19 1.15-.02.06 0 .1.06.14.32.18.6.42.82.72.14.19.32.5.55.92l.21.4Z" fill="#799EC9"/><path d="m41.27 27.97.3.29a.2.2 0 0 0 .18.06c.09 0 .18 0 .27.02.08.02.12.08.12.16v.07c0 .08-.03.1-.1.07l-.44-.2c-.2.01-.32-.07-.37-.25-.02-.06-.06-.08-.12-.07a.24.24 0 0 1-.16 0c-.03-.02-.04-.04-.04-.08 0-.03.02-.05.05-.07.1-.03.21-.03.31 0Z" fill="#161619"/><path d="M22.23 27.96c.3.2.52.43.65.7.02.06.07.09.13.09.2 0 .38-.05.56-.16l1.55.76c.08.04.14.1.17.18.12.33.26.68.44 1.06.03.07 0 .1-.07.1-.02 0-.04 0-.06.02-.03.03-.02.05 0 .08.21.14.44.18.69.12a.3.3 0 0 1 .18.02l1.47.58c.05.26.17.45.38.58a.6.6 0 0 0 .2.08c.23.04.39.2.46.49.03.1.1.16.2.15.13 0 .24.08.35.25l.07.04c.04.02.04.04 0 .06-.3.17-.42.5-.35.97-.62.05-.93-.15-.95-.61 0-.07-.04-.11-.1-.12-.45-.08-.82 0-1.12.21a.28.28 0 0 1-.2.06.88.88 0 0 1-.33-.11.15.15 0 0 0-.2.01c-.35.3-.69.27-1-.08-.3-.35-.6-.72-.9-1.13-.1-.15-.23-.3-.38-.43a14.2 14.2 0 0 1-.43-.4l-1.04-1.52a4.5 4.5 0 0 0-.46-1.18.77.77 0 0 1 .1-.87Z" fill="#3A2357"/><path d="m40.97 28.62-.49.17c-.06.02-.09 0-.09-.07v-.44a.29.29 0 0 1-.01-.15c0-.04.03-.07.07-.08.03 0 .06 0 .08.04.02.02.03.05.03.09v.3c-.01.08.02.11.1.1l.27-.06c.03 0 .04 0 .05.03.01.02 0 .04 0 .07Zm-1.51-.26c.04.1.05.18.02.22-.03.07-.08.08-.14.05a.6.6 0 0 1-.32-.38c.07-.22.22-.19.44.11Z" fill="#102E35"/><path d="M41.4 28.6c.04.06.06.13.05.19 0 .12-.08.17-.22.13l-.17-.21c.12.01.23-.02.35-.11Z" fill="#161619"/><path d="M35.8 32.33c-.03.26-.17.52-.42.8a4.45 4.45 0 0 0-.3.4c0-.12-.03-.2-.08-.26s-.1-.06-.15-.02l-.16.13c-.03.03-.05.02-.07 0l-.04-.06c-.02-.03-.02-.06.02-.09.2-.13.27-.32.2-.55a7.82 7.82 0 0 0-.43-1.07.19.19 0 0 0-.19-.11.19.19 0 0 0-.18.11.68.68 0 0 1-.24.26c-.33.23-.7.4-1.11.5a5.88 5.88 0 0 0 1.38-1.43.24.24 0 0 1 .14-.1 4.8 4.8 0 0 0 1.75-1.4c.04-.03.08-.03.1.02l.04.05c.03.04.02.07 0 .1l-1.4 1.4a.35.35 0 0 0-.07.42c.19.42.44.84.75 1.24.02.02.05.03.09.03.03 0 .06-.03.07-.07a.45.45 0 0 1 .3-.3Z" fill="#6A548A"/><path d="M26.63 29.9c.1-.06.13-.17.08-.24-.05-.07-.17-.08-.26-.02-.09.07-.12.18-.07.25.05.08.16.08.25.02Zm-3.02 1c-.14-.2-.16-.38-.05-.54.08-.1.21-.18.38-.2.33-.06.61-.2.86-.43.21-.2.3-.15.29.14v.28c-.01.4-.05.66-.13.81-.09.15-.16.3-.21.47-.02.06-.07.08-.13.07a1.5 1.5 0 0 1-1-.6Z" fill="#A8B9C7"/><path d="M25.35 31.8c-.08.04-.12.02-.1-.08l.05-.31c.01-.1.07-.15.17-.14l.4.06c.05 0 .08.03.09.08 0 .05-.01.08-.06.1l-.55.29Z" fill="#799EC9"/><path d="M29.97 32.11c.23.06.47.24.7.55.16.2.3.34.41.42.12.08.1.13-.04.14-.13 0-.27-.07-.44-.22-.13-.12-.23-.19-.32-.2-.14-.03-.3.04-.5.21-.07.05-.15.07-.25.05-.1-.17-.22-.25-.35-.25-.1 0-.17-.04-.2-.15-.07-.29-.23-.45-.47-.5a.55.55 0 0 1-.2-.07.82.82 0 0 1-.37-.58c.26-.01.42.12.5.38 0 .05.04.09.08.1.05.01.1 0 .13-.03a.8.8 0 0 1 .4-.2.2.2 0 0 1 .18.04c.22.16.46.27.74.31Z" fill="#C3B5D5"/><path d="M35.07 33.53a11.5 11.5 0 0 1-2.2 2.08 4.3 4.3 0 0 1-2.1-.08l-.39-.84 2.27-2.32a3.6 3.6 0 0 0 1.11-.5c.11-.08.2-.16.24-.26.04-.08.1-.11.18-.11.09 0 .15.03.18.11.17.34.32.7.44 1.07.07.23 0 .42-.2.55-.04.03-.04.06-.02.09l.04.05c.02.03.04.04.07.01l.16-.13c.05-.04.1-.04.15.02.05.06.07.14.07.26Z" fill="#38233F"/><path d="m23.64 31.54.43.4c.15.12.28.27.39.42.29.4.58.78.89 1.13.31.35.65.38 1 .08a.15.15 0 0 1 .2-.01c.1.06.2.1.32.1.08.02.15 0 .21-.05.3-.22.67-.3 1.12-.21.06 0 .1.05.1.12.02.46.33.66.95.6 0-.22.02-.4.1-.53a.23.23 0 0 1 .22-.13c.1 0 .17.05.21.13l.45.84c-.1.29-.34.62-.74 1a26.5 26.5 0 0 0-2.13-.16.9.9 0 0 1-.72-.4 3.4 3.4 0 0 0-.81-.81c-.06-.04-.1-.03-.1.04v.08c-.02.1.02.18.1.24.2.13.4.28.58.44a.3.3 0 0 1 .09.28c-.01.07.01.14.07.18.19.14.39.23.6.27.06 0 .11 0 .17-.03.18-.1.31-.1.38 0-.05.1 0 .3.17.56.09.16.22.29.4.4.3.19.6.36.88.5l-1.96.06.8-.04c.1 0 .14-.05.14-.14-.02-.27-.15-.44-.42-.5a.21.21 0 0 1-.14-.12.82.82 0 0 0-.44-.4l-.03-.02a1.36 1.36 0 0 0-.6-.4c-.31-.06-.64-.12-.96-.16-.1-.05-.22-.08-.36-.1-.05 0-.06-.03-.04-.08l.03-.07a.07.07 0 0 1 .07-.04l.8.04c.25 0 .29-.07.1-.24l-.73-.73c-.4-.6-.71-1.07-.97-1.39-.16-.21-.46-.4-.89-.6l-.39-.18c-.22-.12-.21-.21.03-.27l.43-.1Z" fill="#71899B"/><path d="M41.84 32.38a13.95 13.95 0 0 1-1.51 3.23 4.78 4.78 0 0 0-.77-.05 2.8 2.8 0 0 1-.75-.09c-.62-.16-1.28-.28-1.98-.34-.19-.02-.29-.12-.3-.32a6.76 6.76 0 0 1 .1-1.81c.03-.16.12-.22.28-.17.92.29 1.78.28 2.58-.02a4.53 4.53 0 0 1 2.35-.43Z" fill="#82ABD3"/><path d="M15.93 35.54c-.1-.28-.25-.54-.43-.78a.3.3 0 0 1-.06-.17c-.02-.5-.17-.95-.45-1.34-.06-.07-.04-.11.05-.11a.4.4 0 0 1 .33.14c.43.5.8 1.1 1.12 1.81.08.17.05.33-.08.46l-.08.08c-.18.19-.31.16-.4-.09Z" fill="#799EC9"/><path d="m35.15 33.42.11.26c.3.68.42 1.22.35 1.61-.06-.16-.16-.22-.3-.19-.33.09-.5.3-.5.68-.3.02-.64.03-1.05.02-.1 0-.25-.03-.44-.1a2.86 2.86 0 0 0-.45-.09 11.5 11.5 0 0 0 2.28-2.2Z" fill="#95BED9"/><path d="M25.56 35.3c-.61 0-1.03-.23-1.26-.68.1-.4.48-.57 1.13-.54l.74.73c.18.17.14.25-.1.24l-.81-.04a.07.07 0 0 0-.07.04l-.03.07c-.02.05 0 .08.04.08.14.02.26.05.36.1Zm4.82-.61.4.84-1.3-.1c.41-.38.66-.71.75-1 .05.02.1.1.15.26Z" fill="#496F7E"/><path d="M24.3 34.62c.22.45.65.68 1.26.68.32.04.65.1.97.17a1.36 1.36 0 0 1 .62.41c-.48-.11-1-.14-1.53-.07-.12.01-.3 0-.53-.04l-.22-.03c-.17-.02-.28-.13-.3-.33 0-.07-.04-.11-.1-.14a2.56 2.56 0 0 0-1.02-.31l.85-.34Z" fill="#24546C"/><path d="M19.64 35.77a.53.53 0 0 0-.19-.25c-.27-.21-.24-.35.1-.42.3-.06.65-.1 1.03-.12a.1.1 0 0 1 .1.06.2.2 0 0 1 0 .15.17.17 0 0 1-.07.07c-.31.2-.5.46-.57.75 0 .05-.04.07-.09.06-.1-.02-.2 0-.3.06-.14.08-.19.04-.14-.12a.15.15 0 0 1 .08-.09c.06-.03.07-.08.05-.15Z" fill="#38233F"/><path d="M23.45 34.96c.43.05.78.16 1.03.3.05.04.08.08.09.15.02.2.13.31.3.33l.22.03c.24.04.41.05.53.04a4.35 4.35 0 0 1 1.53.07c.1.12.17.23.2.32.03.06.02.12-.03.16l-.73.63a8.28 8.28 0 0 1-3-.92l-1.25-.8 1.11-.31Zm12.15.34a.4.4 0 0 1-.33.13.18.18 0 0 0-.15.06c-.09.1-.1.22-.02.37.01.03.04.05.08.05.03 0 .06-.02.08-.05a.6.6 0 0 1 .4-.3c.14-.03.26.01.38.12.1.1.17.23.2.39a.6.6 0 0 1-.04.41c-.06.13-.18.2-.35.19-.11 0-.22 0-.32-.02a.3.3 0 0 1-.2-.1c-.26-.3-.44-.56-.52-.77 0-.37.17-.6.5-.68.14-.03.24.03.3.2Z" fill="#282D44"/><path d="m20.15 35.35-.24.24a.1.1 0 0 1-.1.03.1.1 0 0 1-.08-.07l-.04-.13c-.04-.08-.01-.13.07-.14a.89.89 0 0 1 .37 0c.05 0 .06.03.02.07Z" fill="#DDE8EF"/><path d="m27.72 35.56 2.59.25.06.33c.01.07-.01.13-.07.16a6.3 6.3 0 0 0-.54.37c-.11.09-.1.14.04.16l.12.02-.75.17a11.9 11.9 0 0 1-.88-.5 1.2 1.2 0 0 1-.4-.4c-.17-.27-.22-.45-.17-.56Z" fill="#496F7E"/><path d="M21.46 35.74a1 1 0 0 1 .45.37c.08.15.05.34-.1.56-.29.5-.58.73-.86.7a.45.45 0 0 1-.32-.18.46.46 0 0 1-.09-.36c.07-.47.38-.83.92-1.1Z" fill="#161619"/><path d="m29.92 36.85-.12-.02c-.14-.02-.15-.07-.04-.16.18-.13.36-.26.54-.37.06-.03.08-.09.07-.16l-.06-.33c.54 0 1.07.05 1.58.14.25.04.26.11.03.22-.59.27-1.26.5-2 .68Z" fill="#282D44"/><path d="M35.61 36.46c.19.08.39 0 .45-.18.07-.17-.03-.37-.21-.44s-.39 0-.45.18c-.07.17.03.37.21.44Z" fill="#71899B"/><path d="m27.21 37.08-.62-.1.73-.62c.05-.04.06-.1.04-.16-.04-.1-.1-.2-.21-.32.2.08.35.22.44.4.03.06.08.1.14.11.27.07.4.24.42.5 0 .1-.04.15-.13.15l-.8.04Z" fill="#38233F"/><path d="M40.06 36.04a10.72 10.72 0 0 1-2.59 2.92c-.41.37-.74.63-.97.78a.83.83 0 0 1 .04-.42l.17-.79c.1.15.2.23.32.23.03 0 .05-.02.07-.04a.07.07 0 0 0-.01-.08l-.46-.62c-.1-.12-.08-.23.04-.31a.36.36 0 0 1 .07-.04c.15-.05.27-.01.36.12.1.16.22.3.35.45a.2.2 0 0 0 .09.05c.04 0 .07-.02.09-.08a.1.1 0 0 0 0-.08c-.26-.52-.57-.78-.95-.76l-.11-1.15c-.02-.16.05-.24.21-.24l3.28.06Z" fill="#83B5CF"/><path d="M20.96 36.38c-.21.3-.27.63-.11.75.15.11.45-.03.66-.33.22-.29.27-.62.12-.74-.15-.11-.45.03-.67.32Z" fill="#CBD8E7"/><path d="M33.7 36.83c.01.05.05.08.1.09.05 0 .09 0 .13-.04.32-.28.6-.25.81.08.15.22.16.42.02.6-.24.31-.5.35-.79.12a1.93 1.93 0 0 1-.53-.79c-.09-.21-.03-.4.19-.54.2-.15.4-.18.6-.09a.1.1 0 0 1 .05.05c.03.06.03.1 0 .13a.12.12 0 0 1-.1.01.51.51 0 0 0-.29 0c-.1.03-.17.09-.2.18a.28.28 0 0 0 0 .2Z" fill="#282D44"/><path d="M23.17 37.86c-.13.28-.29.43-.49.48-.25.06-.43 0-.53-.18-.15-.26-.08-.61.22-1.06.15-.22.3-.34.44-.36.26-.05.44.06.53.33.08.24.02.5-.17.8Z" fill="#161619"/><path d="M19.27 37.33c0 .14-.03.29-.08.42-.03.06-.01.1.05.14.07.03.14.02.22-.03.03-.08.11-.12.26-.12-.03.26-.14.43-.32.5l-.59.28a.13.13 0 0 1-.16-.03.14.14 0 0 1-.04-.16l.1-.25a.1.1 0 0 0 0-.06c0-.04-.02-.06-.05-.07-.02 0-.05 0-.07.02a.35.35 0 0 1-.37.1c-.07-.02-.1-.07-.1-.14a.71.71 0 0 1 .17-.55.2.2 0 0 0 .06-.17l-.03-.19c0-.1.04-.13.13-.1.1.02.17.07.23.14.05.06.06.12.02.19l-.08.17c-.02.03-.01.05 0 .08.03.03.06.04.1.03.02 0 .05-.02.07-.05.1-.12.27-.18.48-.15Z" fill="#33386F"/><path d="M22.44 37.41c-.16.33-.16.65 0 .74.16.08.42-.11.58-.44.16-.32.16-.65 0-.73-.16-.08-.42.11-.58.43Z" fill="#DDE8EF"/><path d="M34.16 37.5c.17.1.36.06.43-.07s-.01-.31-.18-.4c-.16-.1-.35-.06-.42.07-.07.14 0 .32.17.4Z" fill="#799EC9"/><path d="M32.34 38.7a1.5 1.5 0 0 0-.3-.55c0-.02 0-.04-.02-.07-.1-.34-.1-.58-.03-.73.11-.21.28-.3.5-.28.21.02.38.14.49.36.3.56.31.94.06 1.14-.16.11-.4.16-.7.14Z" fill="#282D44"/><path d="M32.04 38.15c.15.18.25.37.3.56.87.68 1.87.97 3 .87.64.15.9-.05.82-.6a.94.94 0 0 1 .15-.9l.4.45-.17.79c-.2.39-.4.62-.6.68a3.1 3.1 0 0 1-2.47-.18c-.9-.46-1.76-.8-2.59-.99-.03-.58-.24-.92-.63-1.02l-.73-.47c-.04-.02-.04-.04-.02-.08l.03-.04c.03-.07.08-.08.15-.06l2.36.99Z" fill="#DDE8EF"/><path d="M32.28 38.03c.14.33.39.54.55.46.17-.07.2-.4.05-.72-.13-.33-.38-.54-.55-.46-.16.07-.18.4-.05.72Z" fill="#95BED9"/><path d="m36.71 38.53-.4-.46a.34.34 0 0 1-.06-.13.14.14 0 0 1 .06-.15c.14-.1.26-.24.37-.42.38-.02.7.24.94.76a.1.1 0 0 1 0 .08c-.01.06-.04.09-.08.08a.17.17 0 0 1-.09-.05c-.13-.15-.25-.3-.35-.45-.1-.13-.21-.17-.36-.12a.36.36 0 0 0-.07.04c-.12.08-.14.19-.04.3l.46.63c.02.02.02.05 0 .08a.07.07 0 0 1-.06.04c-.12 0-.23-.08-.32-.23Zm-11.17.15c-.1.43-.36.66-.75.68a.81.81 0 0 1-.34-.53c0-.42.12-.79.37-1.1.36-.19.61-.12.77.2.1.18.08.43-.05.75Zm4.71-.88c.39.1.6.45.63 1.03-.09.6-.43.79-1 .54-.03-.01-.04-.04-.03-.07l.01-.05c.03-.07.07-.1.13-.07.15.04.3.04.46-.03a.18.18 0 0 0 .12-.16l.01-.07c0-.08-.02-.1-.1-.07-.2.09-.37.09-.53 0a.53.53 0 0 1-.27-.35.53.53 0 0 1 .08-.45c.1-.15.27-.23.5-.24Z" fill="#282D44"/><path d="M24.76 38.42c-.1.33-.05.64.1.68.16.05.35-.19.45-.52.1-.34.05-.65-.1-.7-.16-.04-.36.2-.45.54Z" fill="#DDE8EF"/><path d="M27.32 38.4a.92.92 0 0 0-.13.58c.03.22.02.37 0 .43-.11.22-.3.3-.57.23a.57.57 0 0 1-.46-.5c.16-.26.23-.55.21-.86a.2.2 0 0 1 .06-.16.52.52 0 0 1 .53-.12c.22.05.34.19.36.4Zm.66 1.2c.13-.3.3-.53.54-.66.19-.1.26-.27.23-.48-.03-.2-.12-.28-.27-.23a.51.51 0 0 0-.2.14c-.12.14-.2.16-.25.07.05-.32.27-.45.66-.39.18.03.29.14.31.33.03.24-.1.5-.39.79l-.15.15c-.1.1-.08.15.06.14l.38-.04c.05 0 .08.02.08.07v.08c0 .03 0 .06-.04.06-.34.08-.66.06-.96-.03Z" fill="#282D44"/><path d="M29.93 38.43c.05.18.2.3.36.26.15-.04.23-.22.19-.4-.05-.19-.2-.3-.36-.26-.15.03-.23.21-.19.4Z" fill="#A8B9C7"/><path d="M24 38.4c-.21.08-.39.03-.53-.17.24-.25.42-.2.54.17Z" fill="#282D44"/><path d="M26.86 38.61c.13-.03.22-.15.19-.25s-.15-.17-.28-.14c-.13.04-.21.15-.18.26.02.1.15.16.27.13Z" fill="#B8DAE0"/><path d="m27.98 39.6-.05.79c0 .11-.01.21-.05.3-.03.05-.07.08-.13.08-.34-.03-.57.12-.67.45-.3 0-.52-.1-.64-.3-.27-.45-.62-.42-1.04.11l-2.03-.93a.25.25 0 0 0-.02-.09c-.01-.02-.03-.03-.06-.03-.05 0-.1.02-.15.06.44-.44.98-.66 1.65-.68.4-.02.64-.25.75-.68.25.13.46.28.62.46.04.26.19.43.46.5s.46 0 .56-.23c.03-.06.04-.2.01-.43a.92.92 0 0 1 .13-.57c.24-.05.48-.04.71.03.05.09.13.07.26-.07a.6.6 0 0 1 .2-.14c.14-.05.23.02.26.23.03.21-.04.37-.23.48a1.3 1.3 0 0 0-.54.66Z" fill="#CBD8E7"/><path d="M20.35 38.54a.5.5 0 0 0-.07.3c0 .07.04.1.1.09a.3.3 0 0 0 .25-.21.12.12 0 0 1 .1-.1c.06 0 .1.02.13.06.09.12.1.25.01.39a.25.25 0 0 0-.03.16c0 .02 0 .04.02.05.03.04.07.05.11.01l.42-.32c.09.18.07.31-.05.38-.22.12-.4.27-.57.43-.2.18-.3.14-.32-.13 0-.1.02-.2.07-.3.02-.05 0-.08-.05-.1-.05 0-.1 0-.15.05l-.03.03a.34.34 0 0 1-.29.14c-.11 0-.16-.06-.13-.17l.22-.85c0-.06.04-.08.1-.09a.4.4 0 0 1 .05 0c.06.01.1.04.1.1l.01.08Zm10.92-.03.34-.18c.1-.04.14-.01.14.1 0 .13-.06.23-.17.28a.32.32 0 0 1-.33-.06c-.07-.05-.06-.1.02-.14Z" fill="#282D44"/><path d="M36.16 38.98c.09.55-.18.75-.82.6-.48-.56-.4-.95.2-1.18.08-.03.14-.01.18.06l.04.05c.03.07.02.1-.05.12l-.32.07c-.07.01-.1.06-.12.14-.02.2.05.38.22.52.11.1.23.12.34.05.1-.07.15-.17.13-.32-.01-.07.02-.1.09-.1l.1-.01Z" fill="#102E35"/><path d="M26.72 39.46a.3.3 0 0 0 .31-.31.3.3 0 0 0-.3-.32.3.3 0 0 0-.31.32c0 .17.14.3.3.3Z" fill="#A8B9C7"/><path d="M23.14 40.04c.05-.04.1-.06.15-.06.03 0 .05.01.06.03l.02.09c-.22.24-.43.48-.63.73-.06.06-.1.1-.15.1a.15.15 0 0 1-.11-.04c-.06-.05-.08-.1-.04-.18a.33.33 0 0 0 0-.27c-.05-.09-.1-.1-.16-.02l-.19.2c-.05.06-.12.07-.19.04-.07-.04-.1-.1-.09-.17l.13-1.07a.16.16 0 0 1 .11-.03c.07 0 .12.04.13.11l.04.21c.03.17.1.19.21.07.06-.06.13-.1.2-.12.13-.04.2 0 .18.15l-.03.32c0 .08.02.11.1.1.09 0 .18-.07.26-.2Zm8.86.07.28-.07a.37.37 0 0 1 .2 0 .68.68 0 0 1 .49.78.62.62 0 0 1-.25.4.78.78 0 0 1-.57.13.14.14 0 0 1-.13-.12A9.98 9.98 0 0 0 31.6 40a.18.18 0 0 1 .03-.2c.05-.06.1-.05.15.01.04.06.06.13.07.2 0 .1.05.14.14.11Z" fill="#282D44"/><path d="M30.44 40.52a.79.79 0 0 1 .44.01c.09.03.15.1.17.19l.21.78c.03.11 0 .18-.12.21l-.06.02c-.1.03-.14 0-.15-.1l-.05-.62c-.01-.14-.08-.22-.22-.25l-.1-.02c-.1-.02-.15.02-.14.12l.08.78c0 .06-.02.09-.08.1h-.05c-.05 0-.08-.02-.1-.06a5.96 5.96 0 0 1-.27-1.4c0-.03.01-.06.03-.08a.07.07 0 0 1 .08 0c.1.04.17.12.19.23.02.08.06.11.14.1Z" fill="#33386F"/><path d="M34.35 40.55c.1-.06.13-.17.08-.26-.06-.09-.17-.1-.27-.05-.09.06-.12.18-.07.26.06.09.17.11.26.05Z" fill="#71899B"/><path d="M32.13 40.74c.07.22.23.35.38.31.14-.04.2-.26.13-.47-.06-.22-.23-.36-.37-.31-.14.04-.2.25-.14.47Z" fill="#95BED9"/><path d="M27.08 41.22c.1-.33.33-.48.67-.45.06 0 .1-.03.13-.09a.75.75 0 0 0 .05-.3c.11 0 .17.05.17.14.02.4.02.83 0 1.33 0 .09-.04.14-.13.16-.66.11-.96-.15-.9-.79Zm2.21-.22a.93.93 0 0 0 .16.85c.03.04.03.08-.02.1a.33.33 0 0 1-.25.01.15.15 0 0 1-.1-.13l-.13-1.01c-.05-.46.05-.5.3-.12.05.08.06.18.04.3Zm-2.85-.07a.2.2 0 0 1-.07.08c-.06.03-.11.02-.15-.04a.36.36 0 0 0-.18-.14.2.2 0 0 0-.17 0c-.18.1-.27.29-.25.55.01.1.06.18.14.24a.3.3 0 0 0 .26.03.56.56 0 0 0 .2-.12c.04-.04.09-.04.12 0l.04.05c.01.02.01.04-.01.06-.26.26-.5.31-.7.17-.21-.15-.3-.4-.27-.78.42-.53.76-.56 1.04-.1Z" fill="#102E35"/><path d="M27.85 41.69c0 .08-.04.12-.12.12h-.04a.4.4 0 0 1-.29-.1.36.36 0 0 1-.11-.27v-.06c0-.1.04-.2.11-.27a.38.38 0 0 1 .28-.11h.05c.08 0 .12.04.12.12v.57Z" fill="#B8DAE0"/><path d="M23.97 41.37c0 .08.03.14.08.15.04 0 .08-.06.09-.14 0-.09-.03-.15-.08-.15-.04 0-.09.06-.09.14Z" fill="#496F7E"/></svg>