<!-- by TradingView --><svg width="56" height="56" viewBox="0 0 56 56" xmlns="http://www.w3.org/2000/svg"><path fill="#F0F3FA" d="M0 0h56v56H0z"/><path d="M36 25v7h-1v-7h1ZM29.28 25l1.69 5.51h.06L32.71 25H34l-2.28 7h-1.44L28 25h1.28Z"/><path fill-rule="evenodd" d="M12 32c1.66 0 3-1.57 3-3.5S13.66 25 12 25s-3 1.57-3 3.5 1.34 3.5 3 3.5Zm0-1c1.1 0 2-1.12 2-2.5s-.9-2.5-2-2.5-2 1.12-2 2.5.9 2.5 2 2.5Z"/><path d="M16 32v-7h2.45c1.35 0 2.31.63 2.31 2 0 1.34-.8 2-2.32 2h-1.75v-1h1.71c.74 0 1.28-.22 1.28-1s-.54-1-1.28-1H17v6h-1Zm3.38-3.17L21 32h-1.15l-1.59-3.17h1.12ZM22 32v-7h1v3.22L25.61 25h1.37l-2.44 3.02L27 32h-1.35l-1.89-3.12-.76 1.04V32h-1ZM4 25h1l1.5 3.5L8 25h1l-2 4.39V32H6v-2.61L4 25ZM37 32v-7h1v6h3v1h-4ZM42 32v-7h1v6h3v1h-4ZM47 32v-7h4v1h-3v2h2.5v1H48v2h3v1h-4Z"/></svg>