<!-- by TradingView --><svg width="56" height="56" viewBox="0 0 56 56" xmlns="http://www.w3.org/2000/svg"><path fill="#F0F3FA" d="M0 0h56v56H0z"/><path d="M36.97 15c3.44 0 3.97 3.02 3.8 4.49a5.38 5.38 0 0 0 2.23-4.4c0-1.92-1.12-4.09-4.18-4.09-4.59 0-10.95 3.5-16.24 7.7-8.43 6.99-9.87 15.11-9.54 18.3 4.18-14.44 19.64-22 23.93-22Z" fill="#CA2629"/><path d="M14 39.7c0-9.45 15.05-20.68 20-21.7-15.59 9.52-16.5 18.62-16.5 20.61 0 1.99.74 4.39 4.6 4.39 3.1 0 6.86-1.38 8.33-2.16-2.09 1.39-7.12 4.16-10.5 4.16-4.24 0-5.93-2.83-5.93-5.3Z" fill="#1B91C1"/><circle cx="39" cy="22" r="2" fill="#CA2629"/></svg>