<!-- by TradingView --><svg width="56" height="56" viewBox="0 0 56 56" xmlns="http://www.w3.org/2000/svg"><path fill="#F0F3FA" d="M0 0h56v56H0z"/><path d="M34.54 12.25c0 .48-.03 1.12-.11 1.86v.03c-.65.24-1.3.44-1.92.6-3.2.77-6.73 1.34-9.96 3.15a15.86 15.86 0 0 0-5.95 5.9c-.1.2-.23.39-.33.59-.12.18-.21.35-.3.54-1.08 2.08-2.22 4.45-2.23 6.9a33 33 0 0 1 1.46-3.19 25.85 25.85 0 0 1 2.73-4.22c3.81-4.77 9.09-7.51 16.12-7.92h.04c0 .07-.03.13-.03.2-.34 1.83-.9 3.33-1.66 4.58l-.2.34c-1.72 2.7-4.26 4.28-6.85 5.87-3.86 2.37-7.84 4.79-9.48 11.07l-.02.08c-.08.3-.16.6-.23.93-2.83-3-4.57-6.99-4.62-11.4v-.18a17.04 17.04 0 0 1 18.5-16.91 16.8 16.8 0 0 1 5.05 1.19" fill="#7AC043"/><path d="M21.45 43.75c0-.47.04-1.12.11-1.85v-.03c.65-.24 1.3-.44 1.92-.6 3.2-.77 6.73-1.34 9.96-3.15a15.86 15.86 0 0 0 5.95-5.9c.1-.2.23-.4.33-.59.1-.18.21-.35.3-.54 1.08-2.08 2.22-4.45 2.23-6.9a32.98 32.98 0 0 1-1.46 3.19 26.45 26.45 0 0 1-2.72 4.22c-3.81 4.77-9.09 7.51-16.12 7.92h-.04c0-.07.03-.13.03-.2.34-1.83.9-3.33 1.66-4.58l.2-.34c1.72-2.7 4.26-4.28 6.85-5.87 3.86-2.37 7.84-4.8 9.48-11.07l.02-.08c.08-.3.16-.6.23-.93 2.83 3 4.58 6.99 4.62 11.4v.18a17.05 17.05 0 0 1-22.22 16.2c-.44-.15-.9-.3-1.32-.49" fill="#11487D"/><path d="M21.56 41.89v-.03c.06-.57.14-1.2.26-1.87.03-.16.08-.31.13-.48 7.03-.4 12.32-3.15 16.12-7.92a25.82 25.82 0 0 0 2.72-4.22c.53-1 1-2.07 1.46-3.19-.02 2.45-1.15 4.82-2.22 6.9l-.3.54-.34.58a17.53 17.53 0 0 1-5.61 6.05c-4.12 2.74-9.1 3.42-12.22 3.63" fill="#829FCB"/><path d="M34.43 14.11v.03c-.06.57-.14 1.2-.26 1.87-.03.16-.08.31-.13.48-7.03.4-12.3 3.15-16.12 7.92a25.82 25.82 0 0 0-2.72 4.22c-.53 1-1 2.07-1.46 3.19.02-2.45 1.15-4.82 2.22-6.9l.3-.54.34-.58a17.53 17.53 0 0 1 5.61-6.05c4.12-2.74 9.1-3.42 12.22-3.63" fill="#CDE5B8"/></svg>