<!-- by TradingView --><svg width="56" height="56" viewBox="0 0 56 56" xmlns="http://www.w3.org/2000/svg"><path fill="url(#a)" d="M0 0h56v56H0z"/><path d="M36 18h1v7h-1.02c-.25-1.97-1.83-6.17-6.16-6.17-5.42 0-5.78 7.2-5.7 8.45l-3.63-1.11c.6-2.72 3.32-8.17 9.33-8.17 2.13 0 3.35.85 4.2 1.44.44.31.79.55 1.1.55.73 0 .9-.51.88-.77V18Zm-4.79 13h8.8v1l-3 1v1.9c-1 1.03-3.52 3.1-6.96 3.1a7.73 7.73 0 0 1-3.3-.62l.87-.35h3.22C31.91 37 34 36.5 34 34.76V32h-2.79v-1Z" fill="url(#b)"/><path d="M30.12 24.78h-.79c-.5-4.42-3.24-5.95-5.1-5.95-1.87 0-4.55.49-4.55 3.82s4.97 3.45 5.66 3.61c.69.17 5.98.39 5.98 5.1S28.72 38 24.8 38s-4.87-1.4-5.27-1.4c-.33 0-.49.31-.53.47V38h-.93v-7.2h.93c.12 4.1 2.23 6.51 5.8 6.51s4.64-1.7 4.64-3.9-.68-3.04-5.07-3.96c-4.38-.91-6.3-1.95-6.3-5.48 0-3.53 2.13-5.97 5.4-5.97 3.26 0 4.35 1.75 5.1 1.75.6 0 .77-.73.77-1.1h.8v6.13Z" fill="#fff"/><path fill-rule="evenodd" d="M28 45a17 17 0 1 0 0-34 17 17 0 0 0 0 34Zm0-1a16 16 0 1 0 0-32 16 16 0 0 0 0 32Z" fill="#2B2E41"/><defs><linearGradient id="a" x1="10.42" y1="9.71" x2="68.15" y2="76.02" gradientUnits="userSpaceOnUse"><stop stop-color="#1A1E21"/><stop offset="1" stop-color="#06060A"/></linearGradient><linearGradient id="b" x1="36.26" y1="21.12" x2="30.42" y2="38.06" gradientUnits="userSpaceOnUse"><stop stop-color="#63CEEE"/><stop offset="1" stop-color="#333693"/></linearGradient></defs></svg>