<!-- by TradingView --><svg width="56" height="56" viewBox="0 0 56 56" xmlns="http://www.w3.org/2000/svg"><path fill="url(#a)" d="M0 0h56v56H0z"/><path d="M5 29.69V26.6c0-.34.3-.61.68-.61v3.69c0 .17-.16.31-.34.31-.19 0-.34-.14-.34-.31Zm19.67-.32h-2.34a.32.32 0 0 0-.33.32c0 .17.15.31.33.31h2.34c.18 0 .33-.14.33-.31a.33.33 0 0 0-.33-.32Zm0-1.68h-2.34a.32.32 0 0 0-.33.32c0 .17.15.31.33.31h2.34c.18 0 .33-.14.33-.31-.01-.19-.15-.32-.33-.32Zm0-1.69h-2.34a.32.32 0 0 0-.33.31c0 .17.15.32.33.32h2.34c.18 0 .33-.15.33-.32-.01-.18-.15-.31-.33-.31Zm5.4 1.82a1.2 1.2 0 0 1-.72.4l.94 1.31c.14.2-.01.47-.27.47a.35.35 0 0 1-.28-.14l-1.1-1.57v-.47h.28c.19 0 .37-.05.51-.18.15-.15.23-.3.23-.49a.61.61 0 0 0-.21-.47.72.72 0 0 0-.53-.21h-1.27v.54c0 .17-.14.31-.33.31a.33.33 0 0 1-.32-.3V26h2.02c.23 0 .46.06.66.16s.35.22.47.4c.11.17.17.35.17.55 0 .26-.09.5-.26.71Zm4.76.08c-.18-.09-.4-.17-.7-.25a3.8 3.8 0 0 1-.68-.26c-.14-.08-.22-.2-.22-.32 0-.19.1-.34.3-.44.2-.1.43-.15.68-.15.16 0 .33.03.5.07l.24.08c.12.06.27 0 .33-.1a.23.23 0 0 0-.1-.32 2.77 2.77 0 0 0-1.02-.2c-.44-.01-.81.07-1.12.25a.85.85 0 0 0-.46.8c0 .2.06.36.18.48s.25.23.41.32a5.19 5.19 0 0 0 .83.32l.36.14c.13.06.24.13.32.22.1.1.15.24.12.4a.55.55 0 0 1-.28.39c-.2.1-.4.16-.67.16-.16 0-.37-.04-.6-.1l-.33-.13a.3.3 0 0 0-.39.1c-.07.15-.02.32.14.38a3.25 3.25 0 0 0 1.26.26c.3 0 .56-.05.8-.15.24-.1.43-.25.56-.43.14-.18.21-.4.21-.64 0-.21-.06-.39-.2-.53-.14-.16-.29-.27-.47-.35ZM38 29.69V26.6c0-.34.3-.61.68-.61v3.69c0 .17-.16.31-.34.31-.19 0-.34-.14-.34-.31ZM43.25 26c-1.24 0-2.25.9-2.25 2s1.01 2 2.25 2 2.25-.9 2.25-2-1.01-2-2.25-2Zm0 3.43c-.89 0-1.6-.64-1.6-1.43 0-.79.71-1.43 1.6-1.43.89 0 1.6.64 1.6 1.43 0 .79-.71 1.43-1.6 1.43ZM51 27.68v-1.06a.62.62 0 0 0-.62-.62v2.91l-1.04-1.03-1.79-1.78c-.03-.03-.05-.06-.1-.07a.35.35 0 0 0-.24 0 .29.29 0 0 0-.18.2l-.02.08v1.19c0 .17.15.3.32.3s.3-.13.3-.3v-.44l1.04 1.03.24.24 1.54 1.53c.04.06.08.08.15.11.02 0 .02 0 .03.02h.07a.29.29 0 0 0 .3-.3v-2Zm-3.69 1.7a.31.31 0 0 0-.31.3c0 .18.14.32.31.32.17 0 .31-.14.31-.31a.3.3 0 0 0-.3-.31Zm-28.05.3c0-.16.17-.3.37-.3.2 0 .35.12.37.3 0 .18-.17.32-.37.32-.2 0-.37-.14-.37-.31Zm-1.75-2.01 1.85-1.57c.16-.13.39-.13.52 0 .14.12.14.3 0 .43l-2.14 1.8a.37.37 0 0 1-.25.09.4.4 0 0 1-.25-.09l-1.5-1.27v2.6c0 .17-.17.31-.37.31-.2 0-.37-.14-.37-.3V26.3l.02-.09.01-.03c.04-.08.12-.14.2-.17.1-.02.2-.02.29 0 .05.02.08.05.12.08l1.87 1.57Zm-5.15-1.57-1.86 1.57-1.88-1.57a.3.3 0 0 0-.12-.08.49.49 0 0 0-.28 0c-.09.03-.17.09-.2.17l-.01.07-.01.05v3.35c0 .17.17.31.37.31.2 0 .37-.14.37-.3v-2.61l1.5 1.27c.08.06.18.09.26.09.08 0 .18-.03.25-.09l2.13-1.8a.29.29 0 0 0 0-.43.4.4 0 0 0-.52 0Zm.27 3.28c-.2 0-.37.14-.37.3 0 .18.17.32.37.32.2 0 .37-.14.37-.31-.02-.19-.17-.31-.37-.31Z" fill="#fff"/><defs><linearGradient id="a" x1="10.42" y1="9.71" x2="68.15" y2="76.02" gradientUnits="userSpaceOnUse"><stop stop-color="#1A1E21"/><stop offset="1" stop-color="#06060A"/></linearGradient></defs></svg>