<!-- by TradingView --><svg width="56" height="56" viewBox="0 0 56 56" xmlns="http://www.w3.org/2000/svg"><path fill="#F0F3FA" d="M0 0h56v56H0z"/><path d="m32.26 13.17-2.45 2.55a.16.16 0 0 1-.18.04.16.16 0 0 1-.1-.15v-1.23a.15.15 0 0 0-.03-.1.15.15 0 0 0-.26.04c-.3.73-1.04.81-1.88.82-.5 0-.99.15-1.44.44-.46.29-.86.73-1.39.85a.07.07 0 0 0-.03.02.06.06 0 0 0 0 .09l.04.01.43.04c.02 0 .04 0 .05.02a.09.09 0 0 1-.01.14 2.1 2.1 0 0 0-.96 1.03 1.99 1.99 0 0 1-.55.74.05.05 0 0 0 .02.05h.03c.32.03.6-.08.85-.32a.2.2 0 0 1 .19-.05h.01a.08.08 0 0 1 .06.06.08.08 0 0 1-.02.07c-.53.55-.72 1.18-.7 2.02a3.72 3.72 0 0 1-.3 1.6v.02h.05c.33-.3.55-.66.67-1.1l.02-.04h.04l.03.01c.01.01.02.03.01.04-.06 1.08.02 2.02.7 2.91l.01.02a.04.04 0 0 0 .06-.04.59.59 0 0 0-.07-.23c-.2-.48-.13-1.17.03-1.74 0-.02.02-.04.03-.05a.08.08 0 0 1 .13.06c.04.4.03.52.22.86a2.63 2.63 0 0 1 .06 2.63l.01.02a.04.04 0 0 0 .05 0 3.13 3.13 0 0 0 1.4-2.21c.01-.08.04-.13.08-.15a.1.1 0 0 1 .12.04l.02.04c.14 1.3-.27 2.28-1.25 2.93-.07.04-.14.08-.23.11-1.17.43-1.89.75-2.52 1.92a.05.05 0 0 1-.07.02c-1.24-.93-2.78-.4-3.4.92-.31.69-.3 1.3-.19 2.06.06.38.04.68-.06.88a.1.1 0 0 0 0 .07c0 .02.02.04.04.06a.1.1 0 0 0 .13-.02c.12-.11.22-.28.3-.48a.1.1 0 0 1 .04-.05.1.1 0 0 1 .12.02.1.1 0 0 1 .02.05l.1.5a.4.4 0 0 1 0 .13c-.05.35-.22 1.1-.14 1.7.01.1.04.2.09.3.16.3.75 1.08 0 1.17a1.82 1.82 0 0 1-.85-.1h-.02l-.01.03v.02c.63 1.31 2.05 1.35 2.67.02.23-.49.33-1.06.32-1.73-.01-.66.09-1 .33-1.57.28-.69 0-1.35-.29-2-.13-.32-.17-.6-.12-.88a.23.23 0 0 1 .1-.14c.19-.13.41-.2.67-.2.03 0 .06.01.08.03.02.01.03.04.04.06.1.56.2.93.31 1.1.3.46.62.98.5 1.48-.12.47-.45 1-.93 1.21a.32.32 0 0 0-.17.18.3.3 0 0 0 0 .24c.43.88 1.06 1.98.98 2.84-.01.25.19.6.5.53.15-.03.26-.02.33.05l.02.04.2.75a.14.14 0 0 1-.04.14c-.48.5-.8.79-.97.88l-1.74.92c-.15.08-.35.1-.6.05a42.05 42.05 0 0 1-2.06-.48.15.15 0 0 0-.07.04l-1.83 1.79a.25.25 0 0 1-.33.01 16.43 16.43 0 0 1-6.02-16.05 16.82 16.82 0 0 1 13.23-13.23c9.81-2.03 19.32 4.69 20.42 14.5.09.75.05 1.65.06 2.48 0 .38 0 .7-.04.98a16.33 16.33 0 0 1-3.57 8.69.2.2 0 0 1-.14.08c-.42.06-.96-.32-1.72-.71a.15.15 0 0 0-.16 0l-2.39 1.71-.02.03a.06.06 0 0 0 .02.08 4.4 4.4 0 0 0 2.13.97.12.12 0 0 1 .04.12l-.04.05-.14.14a.46.46 0 0 1-.5.1l-1.52-.6a5.16 5.16 0 0 1-1.08-.5c-.65-.43-1.05-.8-1.65-1.06a216.91 216.91 0 0 0-3.02-1.32.06.06 0 0 1 0-.06c.1-.1.15-.17.15-.2.02-.26-.38-.61-.6-.76a.65.65 0 0 1-.23-.25c-.15-.3-.28-.48-.39-.53a4.92 4.92 0 0 1-1.65-1.37c-.43-.55-.27-1.17.1-1.78.3-.48.5-1.16.41-1.74a.26.26 0 0 0-.02-.06l-.36-.71a.2.2 0 0 1 .05-.24 4.97 4.97 0 0 0 4.1-3.05.16.16 0 0 1 .07-.07.17.17 0 0 1 .09-.02c.64.04 1.12-.65 1.57.17.15.27.33.65.55 1.14a.24.24 0 0 1-.06.29l-.84.7a.11.11 0 0 1-.11.01l-.25-.08a.2.2 0 0 0-.14 0 .2.2 0 0 0-.1.09 3.18 3.18 0 0 0-.35 1.55.07.07 0 0 0 .06.04h.03c.47-.13.8-.38 1.02-.73a.28.28 0 0 1 .13-.1c.15-.07.34-.01.51-.1 1.02-.52 1.1-1.44.65-2.38a3.7 3.7 0 0 1-.37-1.37 1.5 1.5 0 0 0-.33-.76c-.39-.38-.96-.03-1.4.23a.14.14 0 0 1-.18-.05.13.13 0 0 1-.02-.07v-.08c0-.05.02-.1.05-.14a.28.28 0 0 1 .12-.1c.31-.14.57-.32.77-.55.27-.32.57-.24.87.01.45.37.82.72 1.1 1.04a.2.2 0 0 1-.09.32l-.28.08a.24.24 0 0 0-.15.13.24.24 0 0 0 0 .19c.18.42.47.74.88.96a.1.1 0 0 0 .16-.08c.01-.33.05-.5.23-.85.2-.38.15-.74-.13-1.09-.45-.56-.87-1.14-1.25-1.74-.07-.1-.24-.28-.51-.55-.62-.62-1.12.16-1.58.63a.14.14 0 0 1-.21-.03 4 4 0 0 0-1.45-1.66c-.87-.55-2.19-.5-2.2-1.83 0-.09.03-.17.09-.24.05-.06.13-.1.2-.11.5-.04 1.02.47 1.49.86a.38.38 0 0 0 .45.02c.3-.2.5-.5.59-.9a.4.4 0 0 0-.02-.22 3.88 3.88 0 0 0-.58-.87c-.36-.45-.8-.95-1.29-1.5a.27.27 0 0 1-.03-.31l1.79-3.03a.03.03 0 0 0 0-.04h-.05Z" fill="#1B2750"/><path d="M30 36.56a.09.09 0 0 1-.04.08.1.1 0 0 1-.09 0l-.9-.4a.28.28 0 0 0-.2 0c-.23.07-.86.3-1.88.69-.57.22-.55-.11-.65-.51a.3.3 0 0 0-.1-.15c-.25-.21-.48-.36-.64-.65-.27-.49-.75-1.53-.35-2.04.41-.52.74-.86.98-1l.93-.56a.13.13 0 0 1 .1-.02c.04.01.06.03.08.06.4.63.45 1.28.17 1.96a.31.31 0 0 0 0 .23c.02.07.08.14.15.17.7.35 1.24.85 1.6 1.5a.32.32 0 0 0 .4.13.43.43 0 0 1 .15-.01.13.13 0 0 1 .11.06c.11.17.17.33.18.46ZM30.7 39.95v.65l-.03.02h-.05l-1.4-.9a.14.14 0 0 0-.16.01l-.2.19a.17.17 0 0 1-.19.03l-.98-.5a.2.2 0 0 0-.13-.03c-.34.05-.6.11-.76.19-.86.38-1.69.76-2.48 1.13-.48.22-.84.22-1.28.07a.07.07 0 0 1-.03-.02.06.06 0 0 1 .02-.1c.87-.5 1.66-1.07 2.58-1.42a396.2 396.2 0 0 0 3.3-1.27c.03 0 .06 0 .09.02.9.35 1.4.5 2.1.87l.86.43c.45.22.8.29 1.36.43.12.03.23.08.33.15l1.31.84c.02.01.03.02.03.04v.05l-.02.04a16.29 16.29 0 0 0-1.73.12c-.22.03-.43-.02-.64-.14a224.08 224.08 0 0 1-1.8-1 .1.1 0 0 0-.05.02.1.1 0 0 0-.04.03v.05ZM43.98 40.79l.02.07v.08l-.03.05h-.04l-.81-.7h-.04c-.01 0-.02 0-.03.02a.2.2 0 0 0-.03.06 13.47 13.47 0 0 1-.03.26c0 .03-.02.05-.03.06l-.03.03c-.02 0-.03 0-.04-.02-.41-.43-.76-.87-1.16-.54h-.05l-1.03-.88c-.09-.07-.18-.08-.27-.02l-1.33.96h-.02a.1.1 0 0 1-.02-.05V40l1.15-1.7c.14-.23.28-.33.4-.3l.01.01.95.77.05.02 1.46.26c.06.01.12.07.17.16l.78 1.57Z" fill="#1B2750"/><path fill="#1B2750" fill-opacity=".5" d="M20 42h15v2H20zM23 44h10v2H23z"/></svg>