<!-- by TradingView --><svg width="56" height="56" viewBox="0 0 56 56" xmlns="http://www.w3.org/2000/svg"><path fill="#F0F3FA" d="M0 0h56v56H0z"/><path d="M26.68 9.9a1.48 1.48 0 0 1 2-.75c1.18.6 1.17 2.06.07 2.74a.35.35 0 0 0-.17.3c.01 1.1.2 2.14.57 3.1a.33.33 0 0 0 .3.22c.65.02 1.23.1 1.77.46.34.23.07.86.75 1.1a12.75 12.75 0 0 1 8.17 8.17c.14.4.4.62.8.67a.27.27 0 0 1 .2.13c.35.57.52 1.22.5 1.94 0 .04.01.08.04.12a.2.2 0 0 0 .1.07c1.03.32 2.04.5 3.05.57a.44.44 0 0 0 .37-.18c1.22-1.6 3.25-.8 2.71 1.25-.22.84-1.45 1.05-2.11.77a.37.37 0 0 1-.13-.1l-.6-.7a.43.43 0 0 0-.4-.13l-2.54.5a.6.6 0 0 0-.47.55 4.14 4.14 0 0 1-.56 1.76.24.24 0 0 1-.2.13c-.7.04-.9.97-1.23 1.76a12.71 12.71 0 0 1-9.53 7.5c-1.8.28-2.96.13-4.72-.17-3.23-.55-6.1-2.68-7.92-5.37a15.46 15.46 0 0 1-1.64-3.47.35.35 0 0 0-.32-.22c-.9 0-.86-.92-.97-1.71a.96.96 0 0 0-.76-.8l-2.3-.46a.54.54 0 0 0-.56.24c-.84 1.26-2.46 1.07-2.91-.4-.16-.52.23-1.04.56-1.36.87-.82 1.75-.32 2.41.45a.63.63 0 0 0 .6.2l2.26-.46a.81.81 0 0 0 .59-.5c.29-.74.08-1.82 1.24-2.16.05-.02.1-.05.14-.09a.37.37 0 0 0 .1-.14 12.86 12.86 0 0 1 8.62-8.51.22.22 0 0 0 .15-.24c-.04-.51.24-.86.85-1.03.46-.14 1.57-.07 1.64-.8.07-.63.19-1.27.36-1.93.12-.46.05-.8-.23-1.04-.62-.53-.96-1.16-.65-1.97ZM25 37a1 1 0 0 0-1 1v1a1 1 0 0 0 2 0v-1a1 1 0 0 0-1-1Zm3 0a1 1 0 0 0-1 1v1a1 1 0 0 0 2 0v-1a1 1 0 0 0-1-1Zm3 0a1 1 0 0 0-1 1v1a1 1 0 0 0 2 0v-1a1 1 0 0 0-1-1Zm-9.53-14a4.2 4.2 0 0 0-3.16 1.4 4.82 4.82 0 0 0-1.3 3.37l-.01.41a5.08 5.08 0 0 0 1.3 3.39 4.46 4.46 0 0 0 3.16 1.4l13.07.03a4.2 4.2 0 0 0 3.16-1.4 4.82 4.82 0 0 0 1.3-3.37l.01-.41a5.09 5.09 0 0 0-1.3-3.39c-.42-.44-.9-.8-1.45-1.04a4.2 4.2 0 0 0-1.7-.37L21.47 23Z" fill="#5BBE73"/><path d="M20.94 25.5c.15-.72.83-1.07 1.63-1.45a.5.5 0 0 1 .25-.05c1.72.1 2.64 1.28 3.1 2.62.05.11.07.23.06.35 0 .5 0 .99.02 1.48a3.84 3.84 0 0 1-1.32 3.01c-.65.57-1.53.69-2.65.36a.81.81 0 0 1-.29-.16c-1.32-1.13-2.27-3-1.42-4.53a.18.18 0 0 1 .05-.06.22.22 0 0 1 .08-.04.25.25 0 0 1 .17.02c.43.2.74.25.96.1.5-.32.63-.68.38-1.09a.54.54 0 0 0-.17-.17 1.8 1.8 0 0 0-.73-.23l-.05-.02a.15.15 0 0 1-.05-.04.13.13 0 0 1-.02-.05v-.05ZM31.17 25.68a.36.36 0 0 1-.16-.04.31.31 0 0 1-.12-.1.26.26 0 0 1 0-.3c.32-.46.82-.85 1.49-1.18a.52.52 0 0 1 .2-.06c.9-.04 1.6.23 2.11.8a4.54 4.54 0 0 1 .83 5.23c-.68 1.52-2.16 2.65-3.94 1.5A4.85 4.85 0 0 1 30 28.29c-.03-.4 0-.74.1-1 .02-.05.05-.1.09-.14a.4.4 0 0 1 .14-.08.43.43 0 0 1 .33.01c.54.26 1 .12 1.4-.42a.25.25 0 0 0 .03-.25c-.2-.49-.52-.72-.93-.73Z"/></svg>