<!-- by TradingView --><svg width="56" height="56" viewBox="0 0 56 56" xmlns="http://www.w3.org/2000/svg"><path fill="#F0F3FA" d="M0 0h56v56H0z"/><path d="M5 24H4v8h1v-3h2.5a2.5 2.5 0 0 0 0-5H5Zm0 .54h2.02a1.98 1.98 0 1 1 0 3.96H5v-3.96ZM21 24h1v8h-1v-8Zm4.09 4.93A2.5 2.5 0 0 0 24.5 24H22v.5h2a2 2 0 0 1 0 4h-2v.5h1.71l1.87 3H27l-1.91-3.07ZM37 24h1v4h4v-4h1v8h-1v-3.5h-4V32h-1v-8ZM29 24h1v3.47L33.9 24h1.02l-3.84 3.47 4.36 4.52h-1.62L30 28.03V32h-1v-8ZM11.03 32l3.4-8h1.17l3.4 8h-1.31l-1.28-3h-3.6l-1.28 3h-.5Zm1.94-3.38h3.28l-1.64-3.86-1.64 3.86ZM44 32l3.41-8h1.18L52 32h-1.32l-1.28-3h-3.62l-1.28 3H44Zm1.95-3.38h3.3l-1.66-3.86-1.64 3.86Z" fill="#243B7E"/></svg>