<!-- by TradingView --><svg width="56" height="56" viewBox="0 0 56 56" xmlns="http://www.w3.org/2000/svg"><path fill="#F0F3FA" d="M0 0h56v56H0z"/><path d="M41 34.38v2.96c-2.45 1.43-4.96 2.86-7.42 4.3-.93.54-1.87 1.09-2.82 1.61a4.9 4.9 0 0 1-4.9.17c-3.1-1.57-6.26-3.06-9.39-4.58L13 37.12V18.06c1.29.62 2.51 1.2 3.73 1.8 3.2 1.58 6.4 3.13 9.58 4.75 1.39.71 2.61.6 3.94-.2 3.33-2.01 6.72-3.94 10.08-5.9.17-.1.4-.24.67-.18v2.96l-7.64 4.43c-.87.5-1.73 1.02-2.61 1.5-1.6.87-3.23 1.08-4.9.14-.73-.4-1.51-.7-2.33-1.07-.07.74-.07 1.48 0 2.23 1.18.57 2.35 1.16 3.55 1.7 1.04.47 2 .16 2.95-.4l10.3-6.02c.17-.1.41-.2.68-.35v3.13c-.71.42-1.58.89-2.37 1.35l-7.07 4.13c-.62.37-1.27.68-1.95.92-1.1.38-2.19.39-3.26-.13l-9.94-4.8-.73-.34c-.17.77-.07 1.5-.07 2.28 1.28.64 2.56 1.3 3.84 1.93l7.02 3.41c1.2.6 2.35.56 3.53-.13 3.17-1.89 6.37-3.74 9.56-5.6.41-.24.93-.46 1.44-.74v3.06a1536.52 1536.52 0 0 1-10.02 5.82c-1.75 1-3.5 1.23-5.33.18-.66-.38-1.37-.66-2.12-1.02v2.38c1.16.56 2.35 1.22 3.6 1.73.88.37 1.8.23 2.64-.27l9.88-5.78c.37-.22.76-.54 1.35-.58ZM15.63 35.4 21 38.13v-2.4l-5.37-2.68v2.35ZM21 25.16c-1.7-.88-3.55-1.97-5.37-2.74v2.26c1.74.76 3.54 1.97 5.37 2.67v-2.19Z" fill="#663F19"/><path d="M28 12v3.13l-7.34 4.53L18 18.17 28 12ZM35 14.82v3.14l-8.12 4.71L24 21.31l11-6.49Z" fill="#CA9E6B"/></svg>