<!-- by TradingView --><svg width="56" height="56" viewBox="0 0 56 56" xmlns="http://www.w3.org/2000/svg"><path fill="#F0F3FA" d="M0 0h56v56H0z"/><path d="M26.14 10.2c.58-1.6 3.14-1.6 3.72 0 3.39 9.26 9.03 21.25 13.8 28.57.89 1.35-.07 3.23-1.7 3.23H14.04c-1.63 0-2.59-1.88-1.7-3.23 4.77-7.32 10.41-19.3 13.8-28.57Z" fill="#001976"/><path d="M27.66 27.25c1.56 2.32 10.63 8.99 16.31 12.99a2.06 2.06 0 0 1-2 1.76H14.03c-1.25 0-2.1-1.1-2.04-2.23 5.7-4.03 14.15-10.29 15.66-12.52Z" fill="url(#a)"/><path d="M26.14 10.2c.58-1.6 3.14-1.6 3.72 0 3.39 9.26 9.03 21.25 13.8 28.57.88 1.34-.06 3.2-1.66 3.23h-.04v-.96c.8 0 1.38-.99.89-1.75-4.83-7.4-10.5-19.45-13.9-28.76-.13-.33-.47-.57-.95-.57s-.82.24-.95.57c-3.4 9.3-9.07 21.37-13.9 28.76-.5.76.1 1.75.89 1.75V42H14c-1.6-.03-2.54-1.9-1.67-3.23 4.78-7.32 10.42-19.3 13.8-28.57Zm15.82 30.84V42H14.04v-.96h27.92Z" fill="#C7B671"/><path d="M38.9 37.57a.09.09 0 0 0-.06-.08c-.03-.03-.08-.04-.16-.04h-2.02v.78h1.24c.08 0 .14 0 .18-.02.04-.02.06-.07.06-.16h.1v.83h-.1c0-.08-.02-.13-.06-.16a.36.36 0 0 0-.18-.03h-1.24v.83h2.04c.06 0 .1-.02.14-.04a.11.11 0 0 0 .06-.1h.1v.72h-.1c0-.05-.02-.08-.06-.09a.73.73 0 0 0-.14-.01h-2.8v-.1c.02 0 .05 0 .07-.02a.09.09 0 0 0 .03-.07v-2.62c0-.03-.01-.05-.03-.07a.1.1 0 0 0-.07-.03V37h2.78c.08 0 .13-.01.16-.03a.11.11 0 0 0 .06-.1h.1v.7h-.1Z" fill="#F9FBF8"/><path d="M35.9 40.1c0-.05-.02-.08-.06-.09a.68.68 0 0 0-.14-.01h-2.87v-.1c.11 0 .17-.03.17-.1v-2.6c0-.07-.06-.1-.17-.1V37h.98v.1c-.1 0-.16.03-.16.1v2.19h2.05c.06 0 .1-.01.14-.04a.12.12 0 0 0 .06-.1h.1v.85h-.1Z" fill="#F9FBF8"/><path d="M31.82 39.8c0 .07.04.1.13.1v.1h-.87v-.1a.1.1 0 0 0 .06-.02.1.1 0 0 0 .04-.08v-2.3h-.93c-.04 0-.07.01-.1.03-.03.02-.05.05-.05.1H30v-.76h.1c0 .05.02.08.05.1.03.02.06.03.1.03h2.5c.04 0 .07 0 .1-.03.03-.02.05-.05.05-.1h.1v.76h-.1c0-.05-.02-.08-.05-.1a.18.18 0 0 0-.1-.03h-.93v2.3Z" fill="#F9FBF8"/><path d="M28.82 39.8c0 .07.04.1.13.1v.1h-.87v-.1a.1.1 0 0 0 .06-.02.1.1 0 0 0 .04-.08v-2.3h-.93c-.04 0-.07.01-.1.03-.03.02-.05.05-.05.1H27v-.76h.1c0 .05.02.08.05.1.03.02.06.03.1.03h2.5c.04 0 .07 0 .1-.03.03-.02.05-.05.05-.1h.1v.76h-.1c0-.05-.02-.08-.05-.1a.18.18 0 0 0-.1-.03h-.93v2.3ZM24.83 37.1c-.07 0-.1.04-.1.1v1.7c0 .48.27.63.8.63.54 0 .8-.16.8-.62v-1.7c0-.07-.04-.1-.14-.1V37H27v.1c-.08 0-.12.04-.12.1v1.68c0 .87-.58 1.12-1.37 1.12-.79 0-1.37-.25-1.37-1.12V37.2c0-.06-.05-.1-.14-.1V37h.83v.1Z" fill="#F9FBF8"/><path d="M23.42 37.2c0-.06-.04-.1-.12-.1V37h.8v.1a.1.1 0 0 0-.07.03c-.02.02-.03.04-.03.08v2.58c0 .04 0 .07.03.08a.1.1 0 0 0 .06.03v.1h-.79v-.1c.08 0 .12-.04.12-.1v-1.08h-1.84v1.07c0 .04.01.07.03.08a.1.1 0 0 0 .06.03v.1h-.77v-.1c.07 0 .1-.04.1-.1v-2.6c0-.06-.03-.1-.1-.1V37h.77v.1a.1.1 0 0 0-.06.03c-.02.02-.03.04-.03.08v.96h1.84v-.96Z" fill="#F9FBF8"/><path d="m18.31 39.06.06.03c0 .03 0 .06.02.09.03.04.08.09.16.13a1.98 1.98 0 0 0 .59.2 1.8 1.8 0 0 0 .84-.05c.1-.03.19-.07.26-.12.07-.05.11-.12.11-.2a.2.2 0 0 0-.1-.2.71.71 0 0 0-.27-.09 18.7 18.7 0 0 1-1.22-.12 1.27 1.27 0 0 1-.37-.13.8.8 0 0 1-.26-.25.81.81 0 0 1-.1-.42c0-.12.03-.23.08-.34a.86.86 0 0 1 .26-.3c.11-.08.26-.15.43-.2a2.69 2.69 0 0 1 1.52.06c.12.02.2.06.28.09.08.03.14.04.19.04.05 0 .09-.01.11-.03l.07.04-.4.7-.05-.02a.3.3 0 0 0-.04-.13.45.45 0 0 0-.16-.13 1.14 1.14 0 0 0-.24-.12c-.1-.03-.2-.06-.31-.07a1.66 1.66 0 0 0-.83.04.54.54 0 0 0-.19.1.2.2 0 0 0-.07.16c0 .1.04.16.1.2.07.05.16.08.26.1.11.03.24.04.37.05a17.29 17.29 0 0 1 .85.1c.14.02.27.06.38.13a.69.69 0 0 1 .36.65.7.7 0 0 1-.16.48c-.1.12-.23.22-.39.3-.15.06-.32.11-.5.14a4.05 4.05 0 0 1-1.05 0 2.58 2.58 0 0 1-.6-.19.33.33 0 0 0-.15-.04c-.02 0-.05.01-.07.04l-.08-.04.31-.68ZM28 15a6.27 6.27 0 0 1 1.55 3.27v1.98c.04-.35.37-.79.53-.97.54.53.84 1.58.92 2.03v8.48c.85.8 1.02 1.84 1 2.28l-1 .6V35h-1v-2.32l-2 1.92-2-1.92V35h-1v-2.32l-1-.61a3.2 3.2 0 0 1 1-2.31v-8.48c.08-.45.38-1.47.92-2 .16.18.5.62.53.97v-1.98c.07-.62.47-2.14 1.55-3.27Z" fill="#F9FBF8"/><path d="M28 21.01c.8.87 1 2.31 1 3.46v5.54c0 1.16.35 2.44.52 2.93l-.15.06c-.18-.5-.54-1.8-.54-2.99v-5.54a2.4 2.4 0 0 0-.24-.83c-.13-.26-.33-.45-.59-.47-.26.02-.46.21-.6.47-.14.28-.2.61-.23.83v5.54c0 1.19-.36 2.49-.54 2.99l-.15-.06c.17-.5.53-1.77.53-2.93v-5.54c0-1.15.19-2.59.98-3.46H28Zm0 .26c-.47.68-.7 1.57-.78 2.39l.04-.1c.15-.27.37-.52.69-.56h.1c.32.04.54.29.69.56l.04.1c-.09-.82-.3-1.71-.78-2.39ZM26.25 32.62H25v-.17h1.25v.17ZM31 32.45v.17h-1.25v-.17H31ZM26.5 27.2v.03c-.14.3-.38.8-.64 1.27a7.7 7.7 0 0 1-.73 1.18l-.13-.11c.2-.24.47-.68.72-1.16.25-.46.48-.94.62-1.24V20h.17v7.2ZM29.66 20v7.17c.14.3.37.78.62 1.24.25.48.52.92.72 1.16l-.13.1a7.7 7.7 0 0 1-.73-1.17c-.26-.48-.5-.97-.64-1.27V20h.16Z"/><path d="M28.09 32.59v1.48h-.17V32.6h.17Z"/><defs><linearGradient id="a" x1="27.99" y1="27.25" x2="27.99" y2="42" gradientUnits="userSpaceOnUse"><stop stop-color="#2380D0"/><stop offset="1" stop-color="#5CA6D7"/></linearGradient></defs></svg>