<!-- by TradingView --><svg width="56" height="56" viewBox="0 0 56 56" xmlns="http://www.w3.org/2000/svg"><path fill="#F0F3FA" d="M0 0h56v56H0z"/><path d="M42.53 15C37.36 16.89 27 22.99 27 32.27c0 4.03.48 6.84.93 8.44 3.97-1.78 5.85-3.9 5.85-6.16 0-1.88-1.38-4.02-2.07-4.85 2.1.42 3.08 4.46 3.3 6.43 1.11-1.18 3.32-4.33 3.32-6.43 0-1.68-1.29-3.94-1.93-4.86 1.43.74 2.25 2.85 2.48 3.8 1.65-2.4 2.62-6.68 2.9-8.52.66.63-.1 3.76-.56 5.25a4.12 4.12 0 0 1 2.21-.79c-2.2.92-2.9 2.1-3.45 3.15-.44.84-1.28 3.76-1.65 5.12a6.37 6.37 0 0 1 4.27.26c-3.2-.2-4.55.35-4.82.66-1.67 4-6.12 6.92-8.84 8.23C34.96 41.68 46 38.26 46 26.6c0-5.7-2.31-10.1-3.47-11.6Z" fill="#636367"/><path d="M13.47 15C18.64 16.89 29 22.99 29 32.26c0 3.97-.47 6.76-.9 8.37-3.92-1.78-5.76-3.9-5.76-6.13 0-1.9 1.39-4.04 2.08-4.87-2.1.42-3.1 4.48-3.33 6.46-1.1-1.2-3.32-4.35-3.32-6.46 0-1.69 1.3-3.96 1.94-4.88-1.44.74-2.27 2.86-2.5 3.82-1.66-2.42-2.63-6.72-2.91-8.56-.67.63.1 3.77.55 5.27a4.15 4.15 0 0 0-2.22-.8 6.07 6.07 0 0 1 3.47 3.17c.45.84 1.3 3.78 1.67 5.14a6.41 6.41 0 0 0-4.3.26c3.21-.2 4.57.36 4.85.66 1.68 4.04 6.2 6.98 8.93 8.29C21.27 41.74 10 38.37 10 26.6c0-5.7 2.31-10.1 3.47-11.6Z"/><path d="M25.53 35c-1.17 0-2.17.74-2.53 1.1a4.95 4.95 0 0 1 2.53-.55c1.74 0 3.2 1.24 4.8 1.24 1.28 0 2.31-.82 2.67-1.24-.44.19-1.6.55-2.67.55C29 36.1 27 35 25.53 35Z" fill="#fff"/><path d="M25.53 36.1c-1.17 0-2.17.74-2.53 1.1a4.96 4.96 0 0 1 2.53-.54c1.74 0 3.2 1.24 4.8 1.24 1.28 0 2.31-.83 2.67-1.24-.44.18-1.6.55-2.67.55-1.33 0-3.33-1.1-4.8-1.1Z" fill="#fff"/><path d="M25.53 37.2c-1.17 0-2.17.74-2.53 1.11a4.96 4.96 0 0 1 2.53-.55c1.74 0 3.2 1.24 4.8 1.24 1.28 0 2.31-.83 2.67-1.24-.44.18-1.6.55-2.67.55-1.33 0-3.33-1.1-4.8-1.1Z" fill="#fff"/></svg>