<!-- by TradingView --><svg width="56" height="56" viewBox="0 0 56 56" xmlns="http://www.w3.org/2000/svg"><path fill="#000F52" d="M0 0h56v56H0z"/><path d="M33.98 40.07a12.13 12.13 0 0 0 7.18-3.9 11.58 11.58 0 0 0 2.94-6.82 11.57 11.57 0 0 0-8.4-12.28A11.17 11.17 0 0 0 23.25 22c-1 1.68-1.53 3.53-1.58 5.56 0 .6-.1 1.02-.29 1.26-.24.33-.58.48-1.02.46a1.14 1.14 0 0 1-1-.6 1.98 1.98 0 0 1-.16-1.06c.16-2.68 1-5.08 2.52-7.2a12.94 12.94 0 0 1 6-4.59 12.5 12.5 0 0 1 10.1.45 12.66 12.66 0 0 1 6.61 7.73 12.48 12.48 0 0 1-1.48 10.6 12.2 12.2 0 0 1-8.99 5.5v-.01c0-.02 0-.03.02-.04Z" fill="#26ADE1"/><path d="M21.62 16.03a11.88 11.88 0 0 0-5.65 20.67 11.25 11.25 0 0 0 13.87.46 11.01 11.01 0 0 0 4.36-7.1c.05-.24.1-.89.14-1.95.02-.42.1-.71.22-.88.29-.4.68-.55 1.17-.49.48.06.81.32 1 .76.07.18.08.62.02 1.31a13.23 13.23 0 0 1-8.31 11.3 12.82 12.82 0 0 1-14.6-3.83 13.02 13.02 0 0 1-2.8-9.06 12.6 12.6 0 0 1 4.28-8.43 11.66 11.66 0 0 1 4.93-2.56 7.74 7.74 0 0 1 1.37-.2Z" fill="#26ADE1"/><path d="M21.26 18.23a9 9 0 0 0-5.52 3.2 8.55 8.55 0 0 0-1.87 4.66 8.45 8.45 0 0 0 3.46 7.73 8.1 8.1 0 0 0 10.12-.56 7.66 7.66 0 0 0 2.58-5.43c.05-.81.13-1.3.24-1.45.27-.36.64-.52 1.12-.48.5.04.83.29 1.03.73.1.24.12.6.07 1.11-.21 2.08-.92 3.9-2.14 5.45a9.85 9.85 0 0 1-10.17 3.5 9.43 9.43 0 0 1-4.64-2.76 9.42 9.42 0 0 1-2-9.67 9.07 9.07 0 0 1 7.7-6.06c.02 0 .02 0 .02.02v.01Z" fill="#3977E8"/><path d="M34.76 37.79a8.99 8.99 0 0 0 5.51-3.23 8.55 8.55 0 0 0 1.85-4.66 8.46 8.46 0 0 0-3.49-7.73 8.1 8.1 0 0 0-10.12.6 7.67 7.67 0 0 0-2.55 5.44c-.05.82-.13 1.3-.24 1.45-.27.36-.64.53-1.12.49a1.15 1.15 0 0 1-1.03-.73c-.1-.24-.13-.6-.08-1.1.2-2.1.92-3.91 2.13-5.47a9.85 9.85 0 0 1 10.15-3.53 9.45 9.45 0 0 1 4.65 2.74 9.42 9.42 0 0 1 2.03 9.66 9.07 9.07 0 0 1-7.67 6.09c-.02 0-.02 0-.02-.02Z" fill="#2461DF"/></svg>