<!-- by TradingView --><svg width="56" height="56" viewBox="0 0 56 56" xmlns="http://www.w3.org/2000/svg"><path fill="#F0F3FA" d="M0 0h56v56H0z"/><path d="M21.52 16.17a.91.91 0 0 1 .48-1.03l5.46-3.1a.37.37 0 0 1 .5.14c.02.05.04.12.04.18v10.73a.47.47 0 0 1-.3.43.5.5 0 0 1-.52-.1l-5.02-4.93a1.13 1.13 0 0 1-.33-.6l-.31-1.72Zm12.85-.02-4.34 8.5a.48.48 0 0 1-.2.2.43.43 0 0 1-.25.06c-.34-.03-.5-.26-.5-.68-.03-3.15-.06-6.98-.08-11.49 0-.08.02-.15.05-.22a.44.44 0 0 1 .15-.17.39.39 0 0 1 .4-.01l4.52 2.92c.07.04.13.1.19.16a.67.67 0 0 1 .13.48.7.7 0 0 1-.07.25Zm-19.6 3.95 6.47 6.44a.49.49 0 0 0 .83-.4l-1.25-9.45a.48.48 0 0 0-.5-.42.49.49 0 0 0-.22.07l-5.23 3a.48.48 0 0 0-.1.76Zm21-3.8 4.56 2.53a.5.5 0 0 1 .12.78L29.6 30.41a.5.5 0 0 1-.85-.28l-.15-1.15a.5.5 0 0 1 .05-.3L35.1 16.5a.5.5 0 0 1 .68-.2Zm7 5.48L41.72 20a.5.5 0 0 0-.6-.22.5.5 0 0 0-.2.12l-7.61 7.58a.5.5 0 0 0 .42.86l8.66-1.14a.5.5 0 0 0 .44-.5v-4.66a.5.5 0 0 0-.06-.25ZM27 25.43v6.3c0 .1-.03.19-.08.26a.44.44 0 0 1-.2.17.42.42 0 0 1-.49-.13l-3.17-3.86a.46.46 0 0 1-.1-.23L22 20.47c0-.1 0-.2.05-.29a.44.44 0 0 1 .2-.2.42.42 0 0 1 .52.13l4.12 5.03c.07.08.1.18.11.29Zm-13.19 2.45a4.19 4.19 0 0 0 2.59 1.06l5.26.23a.39.39 0 0 0 .38-.27c.06-.18.01-.34-.14-.5-2.73-2.82-5.2-5.35-7.4-7.57a.76.76 0 0 0-1.28.45 58.3 58.3 0 0 0-.22 4.28c-.02 1.06.25 1.84.81 2.32Zm25 .41 3.6-.47a.52.52 0 0 1 .55.3c.03.06.04.14.04.2v5.74a.51.51 0 0 1-.45.5l-8.47 1.11a.52.52 0 0 1-.51-.25.51.51 0 0 1 .03-.57l4.86-6.36a.52.52 0 0 1 .35-.2Zm-17.95 7.66-7.23-7.33a.36.36 0 0 0-.4-.08.39.39 0 0 0-.23.35v8.16a.65.65 0 0 0 .21.48.62.62 0 0 0 .5.15l6.89-.92a.46.46 0 0 0 .38-.32.48.48 0 0 0-.12-.49Zm8.75-4.46 2.53-2.4a1 1 0 0 1 .67-.3l3.96-.2a.5.5 0 0 1 .48.28.5.5 0 0 1-.09.54l-7.7 8.57c-.32.37-.5.32-.53-.15l-.23-4.07c-.05-.9.26-1.65.9-2.27Zm-2.4 2.58-2.58-2.93A3.21 3.21 0 0 0 22.1 30h-4.64c-.53 0-.6.2-.2.58l9.27 9a.57.57 0 0 0 .62.12c.1-.04.2-.11.25-.2.07-.1.1-.2.1-.3v-4.37c0-.3-.1-.54-.3-.76Zm2.98 5.51 2.21-2.56a.94.94 0 0 1 .56-.32l8.37-1.49c1.42-.25 1.93.32 1.55 1.69l-.29 1.02c-.38 1.37-1.28 2.05-2.71 2.05h-9.51c-.35 0-.4-.13-.18-.39Zm-5.75.42c.64 0 .7-.2.2-.58l-1.69-1.27a.93.93 0 0 0-.58-.2h-8.35c-.81 0-.95.31-.41.91l.4.46c.4.45.9.68 1.51.68h8.92Z" fill="#A7C55F"/></svg>