<!-- by TradingView --><svg width="56" height="56" viewBox="0 0 56 56" xmlns="http://www.w3.org/2000/svg"><path fill="#F0F3FA" d="M0 0h56v56H0z"/><path d="M25.16 10.84c-.74.02-1.29.43-1.63 1.22-1.4-.81-1.84-1.9-1.31-3.25.04-.1.1-.19.18-.26 1.63-1.46 4 .23 2.76 2.3Z" fill="#FCEE1F"/><path d="m28.03 14.37-1.8-.86c.72-.85.64-1.67-.23-2.43.4-.86 1-1.3 1.85-1.35 1.1-.05 2.18.77 2.22 1.94.05 1.33-.89 2.1-2.04 2.7Z" fill="#00AEEF"/><path d="m25.16 10.84.84.24c.87.76.95 1.58.23 2.43a4.25 4.25 0 0 0-2.06.37c-.5-.54-.7-1.14-.64-1.82.34-.8.89-1.2 1.63-1.22Z" fill="#8EC73F"/><path d="m26.23 13.51 1.8.86c.04.1.1.18.2.2l.88 1.79-.09.76a.46.46 0 0 0-.14.06.22.22 0 0 0-.08.13 6.45 6.45 0 0 1-1.97 3.04l-.98.42a.49.49 0 0 0-.24.2c-.08.13-.2.26-.38.38a.12.12 0 0 1-.18-.04.11.11 0 0 1-.01-.07c0-.02.03-.06.08-.12a.21.21 0 0 0 .05-.17.2.2 0 0 0-.1-.15 5.2 5.2 0 0 1-2.44-3.24c-.4-1.6.1-2.83 1.54-3.68.6-.29 1.3-.4 2.06-.37Z" fill="#FFC20E"/><path d="M26.83 20.35c1-.91 1.67-1.93 1.97-3.04.02-.06.04-.1.08-.13a.46.46 0 0 1 .14-.06v.5a.19.19 0 0 0 .13.18 4.34 4.34 0 0 0 2-.58c.1-.07.2-.17.26-.28.75-1.54-1.75-2.74-2.3-.58l-.87-1.78c1.68-.68 2.68.07 3.76 1.34.07.08.12.18.14.29.4 1.77-.15 3.02-1.6 3.76-.99.5-2.22.63-3.71.38Z" fill="#F8941D"/><path d="M30.31 16.84c.27 0 .5-.22.5-.48a.49.49 0 0 0-.5-.48c-.27 0-.49.21-.49.48 0 .26.22.48.5.48Z" fill="#F8941D"/><path d="M25.58 29.61a7.73 7.73 0 0 1 .1-4.36l-.1 4.36ZM29.53 32.1c-.24-.29-.1-.82.43-1.58.15.52 0 1.05-.43 1.59ZM30.55 33.88c.01.12 0 .23-.05.34a.7.7 0 0 1-.14-.25.08.08 0 0 1 0-.07.09.09 0 0 1 .07-.03.3.3 0 0 1 .12 0Z" fill="#8EC73F"/><path d="M24.85 24.71c.12-.01.25 0 .36.05.2.08.36.24.46.49a7.73 7.73 0 0 0-.1 4.36l.2.53c.02.05.06.09.1.12a.27.27 0 0 0 .3 0 .26.26 0 0 0 .1-.1c.46-.98.8-2.16 1.99-1.7.83.35 1.4 1.03 1.7 2.06-.52.76-.67 1.29-.43 1.59.37.28.65.6.85.94.16.27.22.54.17.83a.3.3 0 0 0-.12-.01h-.04a.09.09 0 0 0-.02.03l-.02.04v.03c.03.09.08.17.15.25.84 1.27 1.82 2.95 1.58 4.45a.1.1 0 0 1-.04.06.11.11 0 0 1-.07.03c-.03 0-.06-.02-.1-.06l-.01-.01a.04.04 0 0 0-.04 0l-.02.03c-.02.13 0 .23.05.32.06.08.15.12.3.11h.22c.03 0 .07.01.1.03.03.03.05.06.06.1L33 40.8a.33.33 0 0 1-.03.25.34.34 0 0 1-.2.16l-2.33.66a.27.27 0 0 1-.25-.06.26.26 0 0 1-.09-.23c.06-.26.03-.51-.08-.76v-.32a.12.12 0 0 0-.09-.11.13.13 0 0 0-.14.03.54.54 0 0 0-.06.08c-.3.17-.6.35-.93.52-.14.08-.11.22.08.4l2.12 2.7c-.1 1.57-.41 2.24-.93 2l-.48-1.76a.6.6 0 0 0-.15-.26l-2.29-2.37-.17-.25a.21.21 0 0 0-.22-.1.2.2 0 0 0-.17.17c-.22 1.23-.3 2.42-.2 3.58a.5.5 0 0 0 .29.42c0 .1 0 .15.04.15L25.18 48c-.3-.97-.25-1.78.13-2.44.2-.34.25-.71.12-1.11-.23-.73-.39-1.52-.47-2.37a.35.35 0 0 0-.17-.27l-.5-.3a.63.63 0 0 1-.28-.38c-.05-.2-.04-.57.04-1.1.36-2.25.7-4.22 1.02-5.91.13-.66.12-1.19-.04-1.56-.73-1.76-.72-3.77-.65-5.7.01-.25-.01-.49-.07-.72a4.43 4.43 0 0 1-.13-.65.76.76 0 0 1 .67-.78Zm4.12 9.8a.08.08 0 0 0-.04.03.08.08 0 0 0-.02.1c.1.2.17 1.5.2 3.9 0 .46.25.88.73 1.25a.1.1 0 0 0 .16-.03.1.1 0 0 0 .01-.05v-.3a.19.19 0 0 1 .14-.17.2.2 0 0 1 .09 0c.34.05.55 0 .62-.18.1-.25.2-.7.28-1.34a.64.64 0 0 0-.16-.53 10.09 10.09 0 0 1-1.53-2.22.98.98 0 0 0-.43-.44.08.08 0 0 0-.05-.01Z" fill="#00415F"/><path d="M30 40.83c-.1-.03-.13-.02-.07.03a.95.95 0 0 0-.21-.35.54.54 0 0 1 .06-.08.13.13 0 0 1 .2.01l.02.07v.32Z" fill="#FCEE1F"/><path d="M29.72 40.5c.07.07.14.18.21.36l-1.06.57c-.2-.18-.22-.32-.08-.4l.93-.52ZM27.14 41.74c-.23.03-.36.1-.36.22-.06 1.17-.3 2.44-.11 3.6a.5.5 0 0 1-.29-.42c-.1-1.16-.02-2.35.2-3.58a.21.21 0 0 1 .17-.17.21.21 0 0 1 .22.1l.17.25ZM30.06 46.14c.52.23.83-.44.93-2.01.39.83.35 1.57-.13 2.23-.14.2-.29.26-.44.2-.14-.07-.26-.2-.36-.42ZM25.18 48l1.53-2.29c.07.02.13.08.2.18a.34.34 0 0 1 .03.3c-.42 1.18-1 1.78-1.76 1.81Z" fill="#8EC73F"/></svg>