<!-- by TradingView --><svg width="56" height="56" viewBox="0 0 56 56" xmlns="http://www.w3.org/2000/svg"><path fill="url(#a)" d="M0 0h56v56H0z"/><path fill-rule="evenodd" d="M42.21 18.8c0 .45-.38.81-.85.81a.83.83 0 0 1-.85-.8c0-.45.38-.81.85-.81s.85.36.85.8ZM40.6 20H42v5h-1.4v-5ZM7.96 19c1.1 0 1.95.37 2.24.56l-.54 1.03c-.17-.14-.7-.41-1.53-.41-1.04 0-1.8.82-1.8 1.92s.86 1.75 1.8 1.75c.75 0 1.33-.3 1.53-.45l.54 1.06-.03.01c-.38.18-1.11.53-2.04.53C7.17 25 5 24.59 5 22.19S6.6 19 7.96 19Zm4.9 6a2.48 2.48 0 0 0 2.45-2.5c0-1.38-1.1-2.5-2.45-2.5a2.48 2.48 0 0 0-2.46 2.5c0 1.38 1.1 2.5 2.46 2.5Zm0-1.21c.59 0 1.07-.57 1.07-1.27 0-.7-.48-1.26-1.07-1.26-.6 0-1.07.57-1.07 1.26 0 .7.48 1.27 1.07 1.27Zm4.33-3.34c-.1-.15-.5-.45-1.19-.45v5h1.41v-3.53c.07-.1.32-.28.72-.28.5 0 .64.34.64.73V25h1.4v-3.53c.1-.1.36-.28.75-.28.48 0 .62.48.62.85V25H23v-3.47c-.05-.51-.46-1.53-1.66-1.53-.77 0-1.43.35-1.66.52-.1-.17-.49-.52-1.17-.52-.68 0-1.16.3-1.32.45ZM23.5 20c.7 0 1.08.3 1.2.45.15-.15.63-.45 1.31-.45s1.06.35 1.17.52c.23-.17.89-.52 1.66-.52 1.2 0 1.6 1.02 1.66 1.53V25h-1.46v-2.96c0-.37-.14-.85-.62-.85-.39 0-.66.18-.74.28V25h-1.41v-3.08c0-.4-.14-.73-.64-.73-.4 0-.65.18-.72.28V25H23.5v-5Zm13.64.45c-.1-.15-.47-.45-1.14-.45v5h1.35v-3.53c.07-.1.3-.28.7-.28.47 0 .6.34.6.73V25H40v-3.53A1.62 1.62 0 0 0 38.4 20c-.64 0-1.1.3-1.26.45ZM31 22.92V20h1.24v2.93c0 .5.33.89.73.89.4 0 .73-.4.73-.89V20H35v2.92c0 1.15-.77 2.08-1.72 2.08h-.56c-.95 0-1.72-.93-1.72-2.08ZM43 21v2.72c-.04.43.21 1.28 1.52 1.28.6 0 1.02-.13 1.15-.2l-.33-1.08c-.04.06-.18.19-.46.19-.36 0-.55-.18-.55-.4V21h1.2v-1h-1.2v-1l-1.33.21V20h-.44v1H43Zm6.53-1-1.17 2.53-1.1-2.53h-1.43l1.85 4-.93 2h1.53L51 20h-1.47ZM17 27l2.13 6h1.26l1.13-3.45 1.2 3.45h1.19L26 27h-1.55l-1.14 3.85-1.2-3.85h-1.18l-1.11 3.85L18.65 27H17Zm18 4.72V29h-.5v-1h.5v-.79l1.38-.21v1h1.2v1h-1.2v2.5c0 .23.2.4.56.4.3 0 .45-.12.49-.18l.34 1.08c-.14.07-.58.2-1.19.2-1.36 0-1.62-.85-1.58-1.28Zm-8.08-.7h3.23c.2-1 .05-3.02-2.25-3.02-.8 0-2.42.5-2.42 2.58 0 .8.5 2.42 2.48 2.42 1.09 0 1.69-.44 1.85-.66l-.7-.77c-.1.1-.44.33-1.05.33-.77 0-1.01-.48-1.14-.87Zm0-1.07h1.96c-.06-.28-.33-.86-.96-.86-.63 0-.94.58-1 .86Zm3.38 2.58.5-1.14c.22.15.82.46 1.37.46.68 0 .81-.18.81-.36s-.37-.33-1.01-.5c-.64-.17-1.43-.62-1.43-1.54S31.32 28 32.56 28c.99 0 1.47.31 1.59.47l-.5 1.03c-.1-.12-.47-.36-1.1-.36-.77 0-.8.58-.07.76h.01c.73.18 1.88.47 1.88 1.6 0 1.12-1.06 1.5-2.2 1.5a3.7 3.7 0 0 1-1.87-.47Z" fill="#fff"/><path fill-rule="evenodd" d="M35.16 34h-1.41v7h1.4v-1.43l.41-.48L36.74 41h1.51l-1.82-2.94L38.18 36H36.6l-1.44 1.8V34Zm-13.77 1H18v6h3.64c.81 0 1.47-.7 1.47-1.56 0-.66-.38-1.23-.92-1.46.43-.28.72-.79.72-1.37 0-.89-.68-1.61-1.52-1.61Zm-.37 1.23H19.4v1.2h1.62c.3 0 .56-.27.56-.6 0-.33-.25-.6-.56-.6Zm.13 2.32H19.4v1.29h1.75c.33 0 .6-.29.6-.65 0-.35-.27-.64-.6-.64ZM25.42 36c.55 0 1.03.17 1.37.34.25-.17.68-.37 1.19-.34v5h-1.34v-.53c-.28.24-.74.48-1.31.48-1.07 0-1.93-.85-1.93-2.53 0-1.67.97-2.42 2.02-2.42Zm.38 1.16c.38 0 .67.17.84.34v1.96c-.2.17-.48.32-.84.32-.75 0-1.05-.63-1.05-1.25s.33-1.37 1.05-1.37Zm4.4-.76c.26-.2.68-.4 1.3-.4 1.17 0 1.5 1.28 1.5 1.81V41h-1.29v-3.11a.69.69 0 0 0-.73-.67c-.28 0-.52.11-.7.25V41H29v-4.98c.53-.04.98.2 1.2.38Z" fill="#9F844B"/><defs><linearGradient id="a" x1="10.42" y1="9.71" x2="68.15" y2="76.02" gradientUnits="userSpaceOnUse"><stop stop-color="#1A1E21"/><stop offset="1" stop-color="#06060A"/></linearGradient></defs></svg>