<!-- by TradingView --><svg width="56" height="56" viewBox="0 0 56 56" xmlns="http://www.w3.org/2000/svg"><path fill="#F0F3FA" d="M0 0h56v56H0z"/><path d="M28 11a17 17 0 1 1 0 34 17 17 0 0 1 0-34Zm5.8 4.64a11.36 11.36 0 0 0-5.55-1.08 12.8 12.8 0 0 0-9.95 5.28.25.25 0 0 0 .03.19l.07.07 2.85 2.01c.04.03.06.07.07.11.01.04 0 .09-.02.13l-.54.96 2.94 2.11a.35.35 0 0 1 .14.34l-.1.77 2.9 2.1a.26.26 0 0 1 .1.29c-.1.39-.14.7-.1.92l2.6 1.78a.3.3 0 0 1 .14.27c-.03.55 0 1.13.06 1.74a8.6 8.6 0 0 0 2.68 5.34 7.29 7.29 0 0 0 1.8-.64c3.86-2 7.11-6.14 7.3-10.62.22-5.32-2.6-9.81-7.41-12.07Z"/><path d="M34.71 26.58c-.01-2.81-1.15-6.03-3.63-7.52a8.63 8.63 0 0 0-6.32-1.03c-.14.12-.28.1-.44-.1 4.66-1.75 9.63-1 12.69 3.2 1.8 2.5 2.2 5.37 1.2 8.62a.19.19 0 0 1-.23.12l-3.23-.93a.16.16 0 0 1-.12-.16l.08-2.2Z" fill="#5A5B5F"/><path d="m34.71 26.58-3.13-.9a.2.2 0 0 1-.15-.16l-.46-1.95a6.95 6.95 0 0 0-5.07-5.15c-.38-.11-.75-.24-1.14-.4 2.3-.45 4.4-.1 6.32 1.04 2.48 1.49 3.62 4.7 3.63 7.52Z" fill="#97989C"/><path d="M24.32 17.93c.16.2.3.22.44.1.39.15.76.28 1.14.4a6.95 6.95 0 0 1 5.07 5.14l-2.96-.8a.37.37 0 0 1-.27-.26 5.82 5.82 0 0 0-3.87-4.28.09.09 0 0 1 0-.12c.1-.1.26-.16.45-.18Z" fill="#C6C7C9"/><path d="M23.73 26.53c-.35 2.18-.3 4.12.16 5.82.96 3.56 3.3 5.73 7.04 6.5a.3.3 0 0 0 .13 0l.3-.08c.12.16.3.26.54.3-4.72.62-9.2-1.48-11-6.03a13.64 13.64 0 0 1-.14-9.73l2.94 2.11a.34.34 0 0 1 .14.34l-.1.77Z" fill="#5A5B5F"/><path d="m23.73 26.53 2.9 2.1a.26.26 0 0 1 .1.29c-.1.39-.13.7-.1.92-.32 3.34.71 5.96 3.08 7.87.47.37 1.1.7 1.65 1.06l-.3.07a.3.3 0 0 1-.13 0c-3.74-.76-6.08-2.93-7.04-6.49-.45-1.7-.5-3.64-.16-5.82Z" fill="#97989C"/><path d="m32.12 38.97-.22.1a.78.78 0 0 1-.54-.3c-.54-.36-1.18-.69-1.65-1.06-2.37-1.91-3.4-4.53-3.08-7.87l2.61 1.78a.3.3 0 0 1 .14.27c-.03.55 0 1.13.06 1.74a8.6 8.6 0 0 0 2.68 5.34Z" fill="#C6C7C9"/></svg>