<!-- by TradingView --><svg width="56" height="56" viewBox="0 0 56 56" xmlns="http://www.w3.org/2000/svg"><path fill="#F0F3FA" d="M0 0h56v56H0z"/><path d="M42.87 22.86a9.79 9.79 0 0 0-7.39.3c-1.02.46-2.08.8-3.16 1.07-2.26.54-4.38.4-6.37-.45-.78-.32-1.41-.63-2.03-.76a5.67 5.67 0 0 0-3.2.24c-.82.3-1.46.61-1.92.95a233.91 233.91 0 0 1-4.47 3.16 17.6 17.6 0 0 1-4.01 2.05 9.82 9.82 0 0 1-5.73.25A.76.76 0 0 1 4 29v-.05a.43.43 0 0 1 .47-.47c2.59.29 5.08.47 7.38-.93a28.26 28.26 0 0 0 3.06-2.1 28.7 28.7 0 0 1 2.97-2.12c3.19-1.97 6.88-1.2 10.29-.56 1.23.24 2.41.36 3.53.38.46.01.93-.12 1.42-.4 1.64-.9 2.7-1.64 4.23-1.68.91-.02 1.59-.48 2.83-1.1a5.31 5.31 0 0 1 2.13-.33.11.11 0 0 0 .04-.16l-.16-.28a.14.14 0 0 1 0-.15.14.14 0 0 1 .13-.06c1.24.1 2.34.52 3.3 1.3a.4.4 0 0 1 .14.2c.24.88 1.33 1.57.7 2.55-.1.13-.22.21-.38.24a.2.2 0 0 0-.14.11c-.19.44-.5.83-1.03.5-.64-.4-1.32-.74-2.05-1.04Z" fill="#D7272B"/><path d="M42.87 22.86c-.45.08-.87.27-1.28.57a8.66 8.66 0 0 1-3.12 1.7c-.4.1-1.05.1-1.96.02a21.2 21.2 0 0 0-5.2.1c-1.38.2-2.58.33-3.6.37-.96.03-1.9-.13-2.5-.96-.48-.64-.83-.85-1.61-.8-.66.03-1.34.15-2.04.36a27.18 27.18 0 0 0-5.57 2.3c-.82.47-1.37.75-1.66.85 1.51-1.04 3-2.1 4.47-3.16.46-.34 1.1-.65 1.91-.95a5.67 5.67 0 0 1 3.2-.24c.63.13 1.26.44 2.04.76 1.99.84 4.11 1 6.37.45 1.08-.26 2.14-.61 3.16-1.06a9.79 9.79 0 0 1 7.39-.3Z" fill="#8D8C8A"/><path d="M23.37 25.58c-1.51.08-2.55.15-3.8 1.22-.9.8-1.9 1.58-2.97 2.35.13-.73.55-1.42 1.27-2.08.78-.73 2.02-1.57 3.12-1.64.83-.05 1.63 0 2.38.15Z" fill="#E1E0DD"/><path d="m23.37 25.58 4.58 1.63c1.49.46 2.96.66 4.44.62a9.1 9.1 0 0 0 3.23-.68c.93-.38 1.5-.58 1.7-.61 1-.14 1.86.18 2.59.97.5.63 1.13 1.09 1.87 1.35.34.13.75.18 1.23.16.27-.01.7.13 1.3.43 1 .5 1.98.93 3.26 1.69a.8.8 0 0 1 .43.57.34.34 0 0 1-.25.39c-.34.09-.6.11-.8.06a.29.29 0 0 1-.16-.11c-.34-.5-.6-.8-.79-.87-.99-.38-2.11-.72-3.37-1.02a.87.87 0 0 0-.42 0c-1.77.46-3.37.93-4.72-.7a.22.22 0 0 0-.1-.06.21.21 0 0 0-.1 0c-2.56.4-4.52.7-6.7.51-1.24-.1-2.46-.8-3.65-1.58a7.9 7.9 0 0 0-1.47-.83c-.57-.2-1.9-.5-2.45-.06-1.27 1-3.01 2.48-4.66 3.24-.91.42-1.97.77-3.17 1.05-1.27.3-2.2.98-2.79 2.05-.38.7.2 1.28.49 1.85l.02.1-.01.1a.23.23 0 0 1-.05.09.21.21 0 0 1-.08.05c-.39.15-.86-.3-1.1-.5-.78-.67-.55-1.22-.27-2.11a6.1 6.1 0 0 1 1.77-2.7 15.4 15.4 0 0 1 3.43-1.51 42.92 42.92 0 0 0 2.98-2.35c1.24-1.07 2.28-1.14 3.8-1.22Z" fill="#D7272B"/><path d="M39.9 27.5a2.83 2.83 0 0 0-2.57-.96c-.22.03-.78.23-1.7.6a9.1 9.1 0 0 1-3.24.7 13.7 13.7 0 0 1-4.44-.63c.14-.03.18-.14.11-.33a.06.06 0 0 1 .07-.09c1.73.24 3.94.4 5.78-.1 1.58-.45 3.18-.72 4.66-.8.42-.02.84.06 1.28.25.06.02.11.06.16.11.36.42.32.83-.1 1.26Z" fill="#E1E0DD"/></svg>