<!-- by TradingView --><svg width="56" height="56" viewBox="0 0 56 56" xmlns="http://www.w3.org/2000/svg"><path fill="#F0F3FA" d="M0 0h56v56H0z"/><path d="M25.97 13.45c.08.35.08.67.02.94l-6.32 27.48c-.2.98-.84 1.12-1.71 1.13h-5.15c-.68-.07-.93-.53-.76-1.27l4.98-21.77A8.26 8.26 0 0 1 24.86 13c.3-.03.62.05.96.24a.3.3 0 0 1 .15.2Zm5.2 29.22a1.29 1.29 0 0 1-.08-.8l5.66-24.77.73-3.03c.2-.8.74-1.14 1.63-1.06 2.76.27 4.88 2.17 4.89 4.96 0 .36-.1 1.06-.32 2.08-1.17 5.48-2.84 12.78-4.99 21.9-.15.65-.59 1.03-1.31 1.05h-5.23a3 3 0 0 1-.8-.17.28.28 0 0 1-.19-.16Zm-9.6-1.08c-.2.82.03 1.34.91 1.41h4.56c1.22 0 2-.3 2.24-1.42 1.51-6.77 3.01-13.4 4.5-19.89.4-1.72.25-3.23-1.41-4.16-1.78-1-4.1-.54-5.31 1.1a7.68 7.68 0 0 0-.86 2.5l-4.64 20.46Z" fill="red"/></svg>