<!-- by TradingView --><svg width="56" height="56" viewBox="0 0 56 56" xmlns="http://www.w3.org/2000/svg"><path fill="#F0F3FA" d="M0 0h56v56H0z"/><path d="M47.5 32.5v1H43V35h5v1h-6v-6h6v1h-5v1.5h4.5ZM38 33c0 1.84-1.4 3-3.19 3H31v-6h3.81C36.6 30 38 31.17 38 33Zm-6 2h3.04c1.21 0 1.96-.82 1.96-2 0-1.18-.75-2-1.96-2H32v4ZM23 36c-1.88 0-4-.82-4-3s2.13-3 4-3 4 .83 4 3c0 2.18-2.13 3-4 3Zm0-1c1.33 0 3-.45 3-2s-1.67-2-3-2-3 .45-3 2 1.7 2 3 2Z" fill="#577083"/><path d="M51.66 22.37c-.73-.3-2-.37-2.79-.37-.5 0-1.87-.14-1.87.58 0 .73 1.5.79 2.03.86 1.01.14 2.97.43 2.97 1.87 0 1.51-1.93 1.69-3 1.69a5.44 5.44 0 0 1-3-.61v-.76c.8.4 2.11.37 3 .37.52 0 2 0 2-.7 0-.78-1.62-.84-2.19-.91-1.01-.14-2.81-.4-2.81-1.81 0-1.44 1.84-1.58 2.85-1.58.96 0 1.96.1 2.81.61v.76ZM35 21l6 4.15V21h1v6l-6-3.89V27h-1v-6ZM29.92 25.64h-3.85L25.28 27H24l3.49-6h1.02L32 27h-1.28l-.8-1.36Zm-3.3-.95h2.75L28 22.34l-1.38 2.35ZM14 27v-6h4.39c1.2 0 2.61.47 2.61 1.89 0 .95-.75 1.74-1.6 1.96L21 27h-1.43L18 25h-3v2h-1Zm1-5v2h3.71c.82 0 1.29-.4 1.29-1.05 0-.66-.47-.95-1.29-.95H15ZM11 21v1H8v5H7v-5H4v-1h7Z" fill="#1D254D"/><path d="M9.36 33.55c.34 1.17 1.8 1.45 3.03 1.45.78 0 1.9-.14 2.61-.48v.83c-.84.53-1.64.65-2.62.65-1.8 0-4.02-.62-4.38-2.45h1.36ZM12.38 30c.98 0 1.78.13 2.62.65v.83a7.1 7.1 0 0 0-2.62-.48c-1.27 0-2.79.31-3.06 1.59H8c.28-1.94 2.55-2.59 4.38-2.59Z" fill="#577083"/></svg>