<!-- by TradingView --><svg width="56" height="56" viewBox="0 0 56 56" xmlns="http://www.w3.org/2000/svg"><path fill="#F0F3FA" d="M0 0h56v56H0z"/><path d="M11.2 26c-.96 0-1.81.46-2.2 1.2V23H8v9h1v-1.22c.37.75 1.24 1.22 2.2 1.22 1.54 0 2.8-1.16 2.8-2.95 0-1.8-1.28-3.05-2.8-3.05Zm-.25 5C9.85 31 9 30.24 9 29.05c0-1.2.86-2.05 1.95-2.05A2 2 0 0 1 13 29.06c0 1.28-.95 1.94-2.05 1.94ZM26.8 26c.96 0 1.81.46 2.2 1.2V23h1v9h-1v-1.22c-.37.75-1.24 1.22-2.2 1.22-1.54 0-2.8-1.16-2.8-2.95 0-1.8 1.28-3.05 2.8-3.05Zm.25 5c1.1 0 1.95-.76 1.95-1.95 0-1.2-.86-2.05-1.95-2.05A2 2 0 0 0 25 29.06c0 1.28.95 1.94 2.05 1.94ZM15 32h1v-6h-1v6ZM20 32c1.72 0 3-1.15 3-3 0-1.83-1.28-3-3-3s-3 1.17-3 3c0 1.85 1.3 3 3 3Zm0-.85c-1.1 0-2-.83-2-2.15 0-1.3.9-2.16 2-2.16 1.12 0 2 .85 2 2.16 0 1.32-.9 2.15-2 2.15ZM37 28.9c0-1.94-1.22-2.9-2.9-2.9-1.78 0-3.1 1.12-3.1 3 0 1.9 1.3 3 3.13 3a2.9 2.9 0 0 0 2.73-1.7l-1-.18a1.92 1.92 0 0 1-1.75 1.04c-1.08 0-2-.65-2.03-1.99h4.9l.02-.28Zm-2.9-2.1c.97 0 1.7.52 1.78 1.6h-3.76c.2-1.08.98-1.6 1.97-1.6ZM38 32h1.1l1.4-2.27L41.9 32H43l-1.96-3L43 26h-1.08l-1.41 2.29L39.1 26H38l1.96 2.98L38 32ZM45.31 32c.66 0 1.24-.25 1.69-.9.1.56.6.9 1.13.9h.37v-.73c-.38 0-.5-.25-.5-.88V28c0-1.52-1-2-2.08-2-1.34 0-1.98.63-2.16 1.75h.86c.1-.78.62-1 1.25-1 .62 0 1.13.3 1.13 1.14 0 .3-.18.47-.42.53l-.88.16c-1.18.22-2.06.62-2.06 1.83.02 1.1.78 1.59 1.67 1.59Zm.22-.83c-.53 0-.95-.23-.95-.84 0-.58.4-.83 1.11-.95l1.31-.3c0 1.31-.52 2.1-1.47 2.1ZM32.58 18.03c0 .04-.01.07-.03.11-.01.05-.04.08-.05.1a.24.24 0 0 1-.1.07l-.12.03c-.05 0-.08-.02-.12-.03l-.1-.06a.24.24 0 0 1-.06-.1l-.03-.12c0-.05.01-.08.03-.12l.05-.1a.24.24 0 0 1 .1-.06c.05-.02.08-.03.13-.03.04 0 .07.01.11.03l.1.06c.03.03.05.06.06.1.02.03.03.07.03.12ZM30.26 16.93c0 .04-.01.1-.03.14a.23.23 0 0 1-.08.12l-.12.09c-.05.01-.09.03-.15.03a.43.43 0 0 1-.14-.03.23.23 0 0 1-.12-.09.8.8 0 0 1-.1-.12.52.52 0 0 1-.02-.14l.03-.15a.23.23 0 0 1 .09-.12.8.8 0 0 1 .11-.09l.15-.03.15.03c.04.02.09.05.12.1.03.02.05.06.08.1.02.05.03.1.03.16ZM19 19.5c0 .06-.01.13-.04.2a.37.37 0 0 1-.1.15.47.47 0 0 1-.36.15.5.5 0 0 1-.2-.04.37.37 0 0 1-.15-.1.47.47 0 0 1-.15-.36.5.5 0 0 1 .04-.2.37.37 0 0 1 .1-.15.47.47 0 0 1 .36-.15c.06 0 .13.01.2.04.06.02.12.06.15.1.05.06.09.1.11.16a.6.6 0 0 1 .04.2ZM23.5 16.88c0 .06 0 .12-.02.18a.53.53 0 0 1-.25.25c-.06.03-.12.03-.18.03a.74.74 0 0 1-.17-.03.53.53 0 0 1-.25-.25c-.03-.06-.03-.12-.03-.18l.03-.18a.53.53 0 0 1 .25-.24c.06-.03.11-.03.17-.03l.18.03a.52.52 0 0 1 .25.24l.03.18ZM35 20.32c0 .05 0 .08-.02.12l-.06.1-.1.08-.12.03c-.05 0-.07-.02-.12-.03a.45.45 0 0 1-.1-.08.24.24 0 0 1-.06-.1c-.01-.04-.03-.07-.03-.12 0-.04.02-.07.03-.11.01-.05.04-.08.06-.1.03-.04.06-.05.1-.08l.12-.03.12.03c.04.01.07.04.1.07.03.03.04.06.06.1.03.04.03.08.03.12ZM36.64 22.32c0 .05-.02.08-.03.12l-.06.1-.1.08-.12.03c-.05 0-.07-.02-.12-.03a.45.45 0 0 1-.1-.08.24.24 0 0 1-.06-.1.28.28 0 0 1-.03-.12c0-.04.02-.07.03-.11.01-.05.04-.08.06-.1.03-.04.06-.05.1-.08.05-.02.07-.03.12-.03l.12.03c.04.01.07.04.1.07.03.03.04.06.06.1l.03.12ZM37.53 24.22l-.01.09c-.02.03-.03.06-.05.07-.01.02-.04.05-.07.05l-.09.01-.09-.01-.07-.05c-.01-.01-.04-.04-.04-.07-.02-.03-.02-.06-.02-.09s0-.06.02-.09a.32.32 0 0 1 .04-.07c.02-.02.05-.05.07-.05l.1-.01.08.01c.03.02.06.03.07.05.02.01.05.04.05.07l.01.09ZM17 21.5a.5.5 0 0 1-.04.2.37.37 0 0 1-.1.15.47.47 0 0 1-.36.15.5.5 0 0 1-.2-.04.37.37 0 0 1-.15-.1.47.47 0 0 1-.15-.36c0-.06.01-.13.04-.2a.37.37 0 0 1 .1-.15.47.47 0 0 1 .36-.15c.06 0 .13.01.2.04.06.02.12.06.15.1a.47.47 0 0 1 .15.36ZM21 17.5c0 .07-.01.12-.04.19-.03.05-.05.1-.1.16a.49.49 0 0 1-.17.1.43.43 0 0 1-.19.05.48.48 0 0 1-.19-.04c-.05-.03-.1-.05-.16-.1a.49.49 0 0 1-.1-.17.43.43 0 0 1-.05-.19c0-.07.01-.12.04-.19.03-.05.05-.1.1-.16.05-.04.1-.08.17-.1a.43.43 0 0 1 .19-.05c.07 0 .12.01.19.04.05.03.1.05.16.1.04.05.08.1.1.17.04.05.05.12.05.19ZM26.91 16.46l-.03.17a.53.53 0 0 1-.25.25c-.06.03-.12.03-.17.03a.74.74 0 0 1-.18-.03.53.53 0 0 1-.25-.25c-.03-.06-.03-.12-.03-.17l.03-.18a.52.52 0 0 1 .25-.25c.06-.03.12-.03.18-.03l.17.03c.06.01.1.06.15.1l.1.15.03.18ZM33.5 37.35a.6.6 0 0 1-.04.24.45.45 0 0 1-.13.19.56.56 0 0 1-.42.18.61.61 0 0 1-.24-.05.45.45 0 0 1-.19-.13.56.56 0 0 1-.18-.43c0-.07.02-.16.05-.23a.45.45 0 0 1 .13-.2.56.56 0 0 1 .43-.17.6.6 0 0 1 .23.05c.08.03.15.07.2.13a.56.56 0 0 1 .17.42ZM30.25 38.98a.61.61 0 0 1-.16.38.53.53 0 0 1-.18.12.47.47 0 0 1-.2.05.52.52 0 0 1-.21-.05.53.53 0 0 1-.3-.3.47.47 0 0 1-.04-.2.61.61 0 0 1 .16-.38c.05-.04.1-.09.18-.12a.47.47 0 0 1 .2-.04c.08 0 .14.02.21.04.06.03.12.06.18.12.04.05.09.1.11.18.03.07.05.15.05.2ZM27 39.5a.8.8 0 0 1-.03.2.58.58 0 0 1-.28.27c-.06.03-.13.03-.19.03a.8.8 0 0 1-.2-.03.58.58 0 0 1-.27-.28c-.03-.06-.03-.13-.03-.19a.8.8 0 0 1 .03-.2c.02-.06.07-.1.12-.15.04-.05.1-.09.16-.12s.13-.03.19-.03a.8.8 0 0 1 .2.03.58.58 0 0 1 .27.28c.01.06.03.1.03.19ZM23.46 38.84c0 .04-.01.1-.03.14a.23.23 0 0 1-.08.12l-.12.09c-.05.01-.09.03-.15.03a.43.43 0 0 1-.14-.03.23.23 0 0 1-.12-.09.8.8 0 0 1-.09-.12.52.52 0 0 1-.03-.14l.03-.15a.23.23 0 0 1 .09-.12.8.8 0 0 1 .12-.09l.14-.02.15.02c.04.02.09.05.12.1.03.02.06.07.08.11.02.04.03.1.03.15ZM20.34 37.57c0 .05-.02.08-.03.12l-.06.1a.24.24 0 0 1-.1.06l-.12.03c-.05 0-.08-.01-.12-.03l-.1-.06a.24.24 0 0 1-.06-.1c-.02-.04-.03-.07-.03-.12 0-.04.01-.07.03-.11l.06-.1a.24.24 0 0 1 .1-.06c.04-.02.07-.03.12-.03l.11.02.1.06c.04.03.05.06.07.1l.03.12ZM18.09 35.83c0 .04-.02.07-.03.11a.24.24 0 0 1-.06.1.24.24 0 0 1-.1.07l-.12.02-.12-.02a.24.24 0 0 1-.1-.06.24.24 0 0 1-.06-.1l-.03-.12c0-.05.02-.08.03-.12l.06-.1a.24.24 0 0 1 .1-.06.28.28 0 0 1 .12-.03l.12.03c.04.01.07.04.1.06.03.03.04.05.06.1.01.04.03.07.03.12ZM16.44 33.21l-.01.09c-.02.03-.03.06-.05.07-.01.02-.04.05-.07.05l-.09.01-.09-.01a.32.32 0 0 1-.07-.05c-.02-.01-.05-.04-.05-.07l-.01-.09.01-.09.05-.07c.01-.01.04-.04.07-.04.03-.02.06-.02.09-.02s.06 0 .09.02l.07.04c.02.02.05.04.05.07l.01.1Z" fill="#0C3C74"/><path d="M16 24.5a.5.5 0 0 1-.5.5.5.5 0 0 1-.5-.5c0-.27.23-.5.5-.5s.5.23.5.5Z" fill="#00B5F7"/></svg>