<!-- by TradingView --><svg width="56" height="56" viewBox="0 0 56 56" xmlns="http://www.w3.org/2000/svg"><path fill="#F0F3FA" d="M0 0h56v56H0z"/><path d="M7 25v.76H6V30H5v-4.24H4V25h3Zm16 0v5h1v-5h-1Zm3 5 .3-5h.8l.9 3 .9-3h.79l.31 5h-.84L29 27.29l-.66 1.94h-.7L27 27.3l-.17 2.7H26Zm6.3-5-.3 5h.83l.17-2.7.65 1.93h.69L35 27.3l.16 2.7H36l-.31-5h-.78l-.92 3-.88-3h-.8Zm7.71 5c-1.34 0-2.01-.6-2.01-1.83V25h1v2.93c0 .85.2 1.07 1.01 1.07.8 0 .99-.22.99-1.07V25h1v3.17c0 1.22-.66 1.83-1.99 1.83ZM44 25v5h1v-3l2.23 3H48v-5h-1v3l-2.22-3H44Zm8 4.28h-2v-1.47h1.74v-.7H50v-1.4h2V25h-3v5h3v-.72ZM12 25h-1v2H9v-2H8v5h1v-2.16h2V30h1v-5Zm4 5h1l-1.59-5h-.8L13 30h1l1-3 1 3Zm2 0v-3h1.4c.53 0 .6-.2.6-.5s-.06-.5-.59-.5H18v-1h1.49c.88 0 1.51.5 1.51 1.5 0 .79-.41 1.27-1 1.41L21 30h-1l-.84-2H19v2h-1Z" fill="url(#a)"/><defs><linearGradient id="a" x1="45.89" y1="25.23" x2="4" y2="25.23" gradientUnits="userSpaceOnUse"><stop stop-color="#262261"/><stop offset="1" stop-color="#02A7E8"/></linearGradient></defs></svg>