<!-- by TradingView --><svg width="56" height="56" viewBox="0 0 56 56" xmlns="http://www.w3.org/2000/svg"><path fill="#381886" d="M0 0h56v56H0z"/><path d="M42.44 12.21a2.5 2.5 0 0 1 1.92-.04c.62.24 1.13.71 1.4 1.32.29.6.32 1.3.09 1.91-.23.62-.7 1.12-1.3 1.39a2.5 2.5 0 0 1-1.9.04 2.57 2.57 0 0 1-1.42-1.32 2.5 2.5 0 0 1-.08-1.91c.23-.62.7-1.12 1.3-1.39Z" fill="url(#a)"/><path d="M23.17 26.9a.1.1 0 0 0-.15.01.09.09 0 0 0-.02.05V33c0 .45-.38 1-1 1s-1-.55-1-1v-8.04c.02-.94.92-1.3 1.62-.6 2.17 2.18 4.73 4.6 7.7 7.26 3.02 2.7 6.07 5.3 9.51 7.36a10.31 10.31 0 0 0 3.38 1.43c.02 0 .04-.02.05-.03a.1.1 0 0 0 .03-.1c-.53-2.24-2.5-4.32-4.12-6.05a.1.1 0 0 0-.1-.03.1.1 0 0 0-.07.05 5.88 5.88 0 0 1-1.09 1.5.82.82 0 0 1-.57.24.85.85 0 0 1-.58-.22h-.01a.78.78 0 0 1-.08-1.08 9.89 9.89 0 0 0 2.27-4.54c.02-.08-.05-.15-.12-.15h-1.8c-.42 0-1.02-.27-1.02-1 0-.63.61-1 1.03-1 .98-.02 2-.01 2.75 0 .9.02 1.04.67.96 1.43a10.9 10.9 0 0 1-.79 3.03.26.26 0 0 0 .06.28c1.94 1.98 3.68 3.95 4.73 6.42.41.95.45 2.27-.78 2.72-2.08.77-6.63-2.46-8.35-3.78a.3.3 0 0 0-.33-.01 13.17 13.17 0 0 1-10.43 1.69.34.34 0 0 1-.14-.09c-.65-.65-.13-1.59.8-1.4a11.67 11.67 0 0 0 8.46-1.32.1.1 0 0 0 0-.09 144.14 144.14 0 0 1-10.8-9.98Z" fill="#F0F3FA"/><path d="M12.03 15.26c.43-2.35 3.75-.82 4.95-.15 1.45.81 2.85 1.75 4.2 2.81a.24.24 0 0 0 .29 0 12.58 12.58 0 0 1 12.72-.74.4.4 0 0 0 .4-.02 40.5 40.5 0 0 1 5.4-2.9.1.1 0 0 1 .08.06l.01.04v.56a.3.3 0 0 1-.18.28 42.02 42.02 0 0 0-4.61 2.5.1.1 0 0 0 0 .1l.03.03a12.22 12.22 0 0 1 4.38 4.94h.04a.08.08 0 0 0 .06-.02A41.28 41.28 0 0 0 43 18.6c.03-.05.08-.1.14-.12a.4.4 0 0 1 .18-.05h.58a.1.1 0 0 1 .09.05.1.1 0 0 1 0 .1 45.1 45.1 0 0 1-6.4 7.76.4.4 0 0 1-.57 0v-.01a.4.4 0 0 1-.02-.58l1.4-1.44a.3.3 0 0 0 .05-.33 10.96 10.96 0 0 0-15.75-4.91l.01.02.02.03c3.68 3.06 6.61 6.38 10.13 9.97l.05.03h.05l.04-.04V23c0-.39.38-1 1-1s1 .58 1 1c.03 2.27 0 4.8 0 6.96 0 .84.19 1.76-.64 2.03-.35.12-.74-.18-.98-.41-3.63-3.68-6.64-6.87-9.76-9.58-2.45-2.13-5.33-4.47-8.3-5.9a5.99 5.99 0 0 0-1.62-.52.13.13 0 0 0-.09.1l.01.06a10.7 10.7 0 0 0 1.5 2.96 28.9 28.9 0 0 0 2.56 3.05h.05a.11.11 0 0 0 .09-.04l.96-1.39a.77.77 0 0 1 .56-.32.78.78 0 0 1 .62.21l.05.05a.83.83 0 0 1 .07 1.1 10.31 10.31 0 0 0-2.3 7.23 10.37 10.37 0 0 0 5.2 8.42.36.36 0 0 0 .39-.02L28 33.68a.4.4 0 0 1 .54.06v.02a.4.4 0 0 1 .1.29.4.4 0 0 1-.15.27 61.24 61.24 0 0 1-8.48 5.62c-1.37.75-7.57 3.93-7.84.5-.1-1.13.61-2.54 1.2-3.48a34.2 34.2 0 0 1 3.34-4.5.37.37 0 0 0 .07-.38 11.83 11.83 0 0 1 .1-8.48.37.37 0 0 0-.09-.4 27.69 27.69 0 0 1-3.52-4.3c-.61-.95-1.45-2.55-1.25-3.64Zm5.17 17.97a.08.08 0 0 0-.03.02c-.97 1.08-5.17 6.27-3.97 7.63 1.2 1.36 7.05-1.97 8.28-2.75l.03-.03v-.04a.08.08 0 0 0-.03-.07 12.76 12.76 0 0 1-4.24-4.77h-.04Z" fill="#F0F3FA"/><defs><linearGradient id="a" x1="42.5" y1="16.5" x2="45.5" y2="13.5" gradientUnits="userSpaceOnUse"><stop stop-color="#F0F3FA"/><stop offset="1" stop-color="#F0F3FA" stop-opacity=".2"/></linearGradient></defs></svg>