<!-- by TradingView --><svg width="56" height="56" viewBox="0 0 56 56" xmlns="http://www.w3.org/2000/svg"><path fill="#F0F3FA" d="M0 0h56v56H0z"/><path d="M24.25 23.15a.03.03 0 0 1 .02 0l.01.02v.02l-1.4 2.5-.01.01a.03.03 0 0 0 .03.03h4.71a.03.03 0 0 1 .03.02.03.03 0 0 1 0 .02L27 26.91a.17.17 0 0 1-.06.06.16.16 0 0 1-.08.03h-4.65a.1.1 0 0 0-.1.06c-.14.25-.78 1.45-1.86 3.4a.64.64 0 0 0-.06.2c-.06.35.21.41.5.41a80.77 80.77 0 0 0 1.12.01.04.04 0 0 1 0 .04l-.28.8a.1.1 0 0 1-.04.06 59.3 59.3 0 0 0-1.57.02c-.32 0-.55-.03-.68-.12-.66-.45-.5-1.17-.16-1.76.44-.8 1.02-1.9 1.68-3.08v-.03l-.01-.01h-6.63c-.03 0-.05 0-.08.02a.13.13 0 0 0-.04.06l-1.72 4.8-.05.06a.13.13 0 0 1-.07.02h-1.22a.04.04 0 0 1-.03-.02.04.04 0 0 1 0-.04l1.74-4.86a.04.04 0 0 0 0-.03.03.03 0 0 0-.03-.02l-2.31.01h-.04a.63.63 0 0 0-.24.19c-1.06 1.14-2.49 2.76-4.22 4.65a.39.39 0 0 1-.27.12A68.26 68.26 0 0 1 4 31.94a.03.03 0 0 1 0-.04l9.29-10.05a.27.27 0 0 1 .13-.08l2.73-.77h.02l.01.02v.02l-1.68 4.65a.03.03 0 0 0 0 .03h.02v.01h6.9l.06-.01a.12.12 0 0 0 .04-.05l1.11-1.96a.33.33 0 0 1 .2-.16l1.42-.4Zm-10.08-.28a.03.03 0 0 0-.01-.04h-.03l-2.7 2.86a.03.03 0 0 0 0 .02l.01.02h1.69v-.02l1.04-2.84Z" fill="#009DCA"/><path d="M39.4 24.36c.44-.4.55-1 .26-1.33-.3-.34-.89-.3-1.32.1-.44.39-.56.98-.26 1.32.3.34.88.3 1.32-.1Z" fill="#FF7D00"/><path d="M27.6 26.97h-.39a.03.03 0 0 1-.01-.03v-.01l.67-1.18a.03.03 0 0 1 .02-.02h.39l.01.02v.02l-.67 1.19a.03.03 0 0 1-.02.01ZM28.58 25.73h.39a.03.03 0 0 1 .01.03v.01l-.67 1.19h-.01l-.02.01h-.38a.03.03 0 0 1-.01-.04l.67-1.19.02-.01ZM28.97 26.97h-.37a.03.03 0 0 1-.02-.01.03.03 0 0 1 0-.03l.66-1.19h.01l.02-.01h.37a.03.03 0 0 1 .02.01v.03L29 26.96l-.02.01ZM29.95 25.73h.39a.03.03 0 0 1 .02.02v.02l-.68 1.19-.02.01h-.38a.03.03 0 0 1-.02-.01.03.03 0 0 1 0-.03l.67-1.19a.03.03 0 0 1 .02-.01ZM30.06 30.7v.01a.02.02 0 0 0 0 .03H33.4l.01.02a.03.03 0 0 1 0 .03l-.65 1.16a.11.11 0 0 1-.04.04l-.06.01h-5.39a.04.04 0 0 1 0-.05l.5-.92c.1-.17.26-.27.4-.37l5.16-3.6-.03-.04a.02.02 0 0 0 0-.03l-.06.01h-3.29l-.01-.02-.01-.01a.03.03 0 0 1 0-.03l.65-1.16a.11.11 0 0 1 .1-.06h5.37a.04.04 0 0 1 .03.02.04.04 0 0 1 0 .04l-.52.92c-.09.17-.21.3-.36.4l-5.15 3.6ZM37.25 25.73h1.3l.01.02a.03.03 0 0 1 0 .03l-3.34 6.2a.03.03 0 0 1-.03.02h-1.3a.03.03 0 0 1-.02-.01v-.04l3.35-6.2.01-.02h.02ZM27 28.68v.05h-.02l-.02.01-1.96.01c-.64.02-1.4.87-1.17 1.53.12.36.39.46.77.46a2407.9 2407.9 0 0 0 1.86 0 .03.03 0 0 1 0 .04c-.47.58-1.05.97-1.75 1.16-.3.08-.88.08-1.2-.05-1.06-.4-1.26-1.57-.82-2.56.23-.52.58-.95 1.06-1.3 1.06-.77 2.76-.89 3.25.65ZM17 27.54a.03.03 0 0 1 .03.02.03.03 0 0 1 0 .03c-.2.38-.75 1.32-1.62 2.83-.07.14-.17.36-.07.5.2.3.6.1.8-.09.26-.26.5-.57.7-.92a218.1 218.1 0 0 0 1.36-2.35.1.1 0 0 1 .05-.02h1.26a.03.03 0 0 1 .02.02v.03l-2.45 4.3a.12.12 0 0 1-.1.06h-1.24a.05.05 0 0 1-.02-.06l.02-.02c.05-.05.07-.09.06-.12a.04.04 0 0 0-.02-.03.04.04 0 0 0-.04 0c-.43.28-.84.34-1.24.2-.63-.2-.71-1-.41-1.54a209.75 209.75 0 0 1 1.62-2.82.13.13 0 0 1 .07-.02H17ZM42.2 28.7a.05.05 0 0 1 .02.03.04.04 0 0 1-.01.03l-.7.74a.07.07 0 0 1-.08.01c-.6-.43-1.61.47-1.34 1.14.21.54.83.35 1.15.06a.06.06 0 0 1 .09 0l.57.57v.01a.03.03 0 0 1 0 .04c-.23.2-.47.36-.7.48-.78.37-1.84.25-2.14-.7-.14-.42-.05-.97.18-1.39a2.5 2.5 0 0 1 1.67-1.3c.49-.12.92-.02 1.3.28ZM46.06 28.83c.14.15.23.34.28.56.04.21.04.44 0 .68-.05.24-.14.48-.27.7a2.62 2.62 0 0 1-1.17 1.04c-.24.11-.48.17-.71.19-.24.01-.46-.02-.67-.1a1.24 1.24 0 0 1-.78-.9 1.67 1.67 0 0 1 0-.69 2.61 2.61 0 0 1 1.44-1.74c.24-.1.48-.17.72-.19.23-.01.46.02.66.1.2.07.37.2.5.35Zm-.88.71a.57.57 0 0 0-.51-.14c-.2.03-.41.15-.58.32-.08.08-.15.18-.2.28a1 1 0 0 0-.1.31c-.02.1-.02.2 0 .3.03.09.07.17.13.23.13.12.31.17.52.14.2-.03.4-.15.58-.32.08-.09.15-.18.2-.28a1 1 0 0 0 .1-.32c.02-.1.02-.2 0-.29a.52.52 0 0 0-.14-.23ZM50.17 29.78v-.01a.02.02 0 0 0-.02-.02l-1.4.96a.04.04 0 0 1-.04 0 .04.04 0 0 1-.03-.04l-.05-1v-.03l-.03-.01h-.02l-.02.02-1.28 2.27a.16.16 0 0 1-.15.08h-.9a.05.05 0 0 1-.05-.02.05.05 0 0 1 0-.05l1.93-3.41a.1.1 0 0 1 .1-.06h1a.04.04 0 0 1 .04.04l.1.93v.02a.05.05 0 0 0 .05.02h.03l1.29-.89a.6.6 0 0 1 .34-.12 53.5 53.5 0 0 1 .94.03l-1.95 3.44a.13.13 0 0 1-.11.07H48.98l-.01-.02a.05.05 0 0 1 0-.06l1.2-2.14Z" fill="#009DCA"/><path d="M27 28.86h-1.42a.05.05 0 0 0-.04.05c0 .03.02.05.04.05H27c.03 0 .05-.02.05-.05a.05.05 0 0 0-.05-.05ZM26.89 29.8H25.7a.05.05 0 0 0-.05.06c0 .03.02.06.05.06h1.18c.03 0 .05-.03.05-.06a.05.05 0 0 0-.05-.06ZM26.8 30.02h-1.2a.05.05 0 0 0-.05.05v.04c0 .02.02.05.05.05h1.2c.04 0 .06-.03.06-.05v-.04a.05.05 0 0 0-.05-.05ZM26.67 30.25h-1.26a.06.06 0 0 0-.06.06c0 .04.03.06.06.06h1.26c.04 0 .06-.02.06-.06a.06.06 0 0 0-.06-.06ZM26.6 30.49h-1.52a.02.02 0 0 0-.02.02v.08l.02.02h1.52s.02-.01.02-.03v-.07l-.02-.02ZM37.99 31.58c.26-.24.33-.6.16-.8-.17-.2-.53-.18-.8.05-.26.24-.33.6-.16.8.18.2.53.18.8-.05Z" fill="#009DCA"/></svg>