<!-- by TradingView --><svg width="56" height="56" viewBox="0 0 56 56" xmlns="http://www.w3.org/2000/svg"><path fill="#F0F3FA" d="M0 0h56v56H0z"/><path d="M37.53 40H37l2.54-3.45L37.23 33h1.2l1.75 2.69L42.16 33h.54l-2.27 3.08L43 40h-1.21l-2-3.07L37.53 40ZM23.17 36.55H22v-3.13h1.17c.87.01 1.56.63 1.56 1.5 0 .86-.7 1.62-1.56 1.63Zm.55-3.55H21v7h1v-3H23.88C25 37 26 36 26 34.93c0-1.06-1.1-1.93-2.28-1.93ZM13.1 37l1.23-2.43L15.45 37H13.1Zm3.73 3H18l-3.22-7h-.29L11 40h.57l1.3-2.56h2.78L16.83 40ZM34 33.45V33h-5v7h5v-.45h-4V37h2.84v-.52H30v-3.03h4Z" fill="#4F4C4C"/><path d="M33 28a3 3 0 1 1 6 0 3 3 0 0 1-6 0ZM32.5 18.26a2.66 2.66 0 0 0-3.54 1.24l-3.7 7.7a2.66 2.66 0 0 0 4.78 2.3l3.7-7.7a2.66 2.66 0 0 0-1.24-3.54ZM28.55 10.27a2.64 2.64 0 0 1 1.18 3.52l-7.77 15.75a2.62 2.62 0 1 1-4.69-2.33l7.77-15.75a2.62 2.62 0 0 1 3.5-1.19Z" fill="#EF6419"/></svg>