<!-- by TradingView --><svg width="56" height="56" viewBox="0 0 56 56" xmlns="http://www.w3.org/2000/svg"><path fill="#F0F3FA" d="M0 0h56v56H0z"/><path d="M26.73 30.9c.23.19.36 1.15.47 1.43.48 1.26 1.6 2.58 2.95 2.95 3.42.96 3.87-1.98 3.75-4.49 0-.05-.02-.1-.04-.14-.32-.77-1.21-.98-1.99-1.14a.2.2 0 0 1-.08-.04c-.16-.13-.02-.5.14-.56a.27.27 0 0 1 .16 0h4.68c.17 0 .3.33.2.47a.22.22 0 0 1-.13.1c-.27.08-.53.25-.75.51-.35.39-.3.63-.29 1.24.05 3.44-.18 7.69-2.72 10.28a7.02 7.02 0 0 1-2.11 1.3l-.85.18a.49.49 0 0 1-.21 0c-.83-.2-1.25-.27-1.56-.97-.24-.53.16-1.09.54-1.42.19-.16.37-.18.54-.05.85.66 1.74.86 2.67.6 2.07-.58 2.08-4.5 1.96-6.17a.1.1 0 0 0-.02-.06.11.11 0 0 0-.17 0c-.9.96-1.92 1.85-3.3 1.95a4.94 4.94 0 0 1-4.06-1.48 7.4 7.4 0 0 1-2.01-4.3.12.12 0 0 0-.05-.04.13.13 0 0 0-.07-.02c-.13.01-.27 0-.42-.03a5.23 5.23 0 0 1-3.37-2.2 9.45 9.45 0 0 1-1.58-5.9c.13-3.76 2.79-7.2 6.54-7.82a5.02 5.02 0 0 1 2.44.16c.9.3 1.52.88 1.83 1.74a1.23 1.23 0 0 1-.1 1.07l-.63 1.05a.14.14 0 0 1-.06.06.15.15 0 0 1-.17-.03.14.14 0 0 1-.04-.08 3.06 3.06 0 0 0-2.11-2.67c-2.59-.94-4.83.98-5.33 3.46-.11.54-.2.82-.2 1.26a34.14 34.14 0 0 0 0 2.64c.23 2.28 1.05 4.3 3.15 5.39a.13.13 0 0 0 .13 0 .12.12 0 0 0 .04-.05 6.27 6.27 0 0 1 .26-2.13c.8-3.18 3.65-6.13 7.28-6.09 1.24.02 2.64.26 3.34 1.33.27.4.35.9.25 1.47l-.03.06-.95 1.14a.16.16 0 0 1-.23.01.15.15 0 0 1-.05-.07.92.92 0 0 1 0-.31c0-.06 0-.11-.02-.16-.5-1.21-1.56-2.38-2.94-2.42a6.22 6.22 0 0 0-1.8.28c-2.1.61-2.73 2.71-3.01 4.6-.12.77-.05 1.45-.07 2.43a.19.19 0 0 0 .07.15.2.2 0 0 0 .16.04c1.52-.21 2.6-.87 3.26-1.98a.12.12 0 0 1 .05-.05h.08c.02 0 .05 0 .07.02.01.02.03.04.03.07l.06.24a.43.43 0 0 1-.09.36 8.78 8.78 0 0 1-3.5 2.71.08.08 0 0 0-.01.08l.02.03Z" fill="#006EAB"/><path d="M39 28c0-4.8-1.35-9.09-3.48-12.16C33.38 12.77 30.53 11 27.5 11c-3.03 0-5.88 1.77-8.02 4.84C17.35 18.91 16 23.21 16 28c0 4.8 1.35 9.09 3.48 12.16C21.62 43.23 24.47 45 27.5 45v1C20.6 46 15 37.94 15 28s5.6-18 12.5-18S40 18.06 40 28s-5.6 18-12.5 18v-1c3.03 0 5.88-1.77 8.02-4.84C37.65 37.09 39 32.79 39 28Z" fill="#006EAB"/><path d="M40 28c0-4.8-1.35-9.09-3.48-12.16C34.38 12.77 31.53 11 28.5 11c-3.03 0-5.88 1.77-8.02 4.84C18.35 18.91 17 23.21 17 28c0 4.8 1.35 9.09 3.48 12.16C22.62 43.23 25.47 45 28.5 45v1C21.6 46 16 37.94 16 28s5.6-18 12.5-18S41 18.06 41 28s-5.6 18-12.5 18v-1c3.03 0 5.88-1.77 8.02-4.84C38.65 37.09 40 32.79 40 28Z" fill="#DFBC00"/></svg>