<!-- by TradingView --><svg width="56" height="56" viewBox="0 0 56 56" xmlns="http://www.w3.org/2000/svg"><path fill="url(#a)" d="M0 0h56v56H0z"/><path d="M35.5 24.98c.04 0 .05-.01.05-.03a1981.2 1981.2 0 0 0 1.5-7.95h1.9v.01L36.7 27.98c0 .01 0 .02-.02.02h-2.46L31.96 17a.01.01 0 0 1 .01-.01h2.07l.02.02 1.42 7.94c0 .01.01.02.03.02ZM46 26.33V28h-4.98c-.01 0-.02 0-.02-.02V17h4.97l.03.01v1.65h-.03a.02.02 0 0 1-.01.02H43v2.8h2.26l.02.02v1.76H43v3.07h3Z" fill="#fff"/><path fill-rule="evenodd" d="M27.97 17.04a8.11 8.11 0 0 0-.32-.04h-.46c-.1 0-.2.02-.29.03-.94.13-1.62.64-2.01 1.52-.28.61-.38 1.3-.4 1.98v1.17c.04.7.2 1.43.55 2.04a2.48 2.48 0 0 0 2 1.24c.37.04.73.02 1.1-.05 1.64-.32 2.16-1.91 2.2-3.44.03-.77.01-1.58-.18-2.32-.09-.34-.2-.64-.35-.89a2.42 2.42 0 0 0-1.84-1.24Zm.05 1.94c-.12-.26-.33-.37-.6-.37-.28 0-.49.1-.61.37-.14.29-.17.66-.17.98a98.76 98.76 0 0 0 0 2.07c0 .32.03.7.17.99.12.26.33.37.6.37.28 0 .49-.11.6-.37.14-.3.18-.67.18-.99a95.72 95.72 0 0 0 0-2.07c0-.32-.04-.7-.17-.98ZM8 27.98V28h1.9c.02 0 .03 0 .03-.02l.43-2.35h2.1l.02.02.42 2.34.01.01H15v-.01l-2.25-10.97V17h-2.48v.01L8 27.98Zm3.4-7.93-.72 3.9a.04.04 0 0 0 0 .03l.02.01.01.01h1.42a.04.04 0 0 0 .03-.01l.01-.02v-.02l-.7-3.9v-.02a.04.04 0 0 0-.06 0l-.01.02ZM21.04 22.35l.33.09c.94.3 1.47 1.04 1.6 2 .04.38.04.77-.01 1.17-.11.84-.48 1.56-1.23 1.97-.24.14-.51.24-.8.3-.37.08-.76.12-1.16.12h-1.74a287.17 287.17 0 0 1-1.03-.02V17.01h3.01a3.99 3.99 0 0 1 1.4.3c.7.31 1.13.89 1.3 1.7.26 1.3-.02 2.76-1.4 3.25a5.38 5.38 0 0 0-.27.09ZM19 18.75v-.01h.65a1.12 1.12 0 0 1 1.15 1.13v.58c0 .3-.12.58-.34.8-.22.2-.5.33-.81.33h-.63l-.01-.01-.01-.01v-2.81Zm.01 4.49-.01 3v.01a.02.02 0 0 0 .02 0h.73c.33 0 .65-.12.88-.34.24-.22.37-.52.37-.84v-.65a1.14 1.14 0 0 0-.36-.84 1.25 1.25 0 0 0-.88-.34H19Z" fill="#fff"/><path d="M29.98 26h-4.96c-.01 0-.02 0-.02.02v1.96c0 .01 0 .02.02.02h4.96c.01 0 .02 0 .02-.02v-1.96c0-.01 0-.02-.02-.02ZM15.05 34.74H17.32v1.78H15V41h-1.99l-.01-.01V30l.01-.01H18l.01.01v1.77h-3.01v2.93l.05.03Z" fill="#fff"/><path fill-rule="evenodd" d="M22.77 41h.46l.2-.02a2.37 2.37 0 0 0 1.77-1.05c.29-.42.48-.96.59-1.47.1-.51.17-1.02.19-1.54.02-.6.03-1.46 0-2.6 0-.5-.05-1-.14-1.5-.21-1.24-.76-2.38-2-2.7a3.34 3.34 0 0 0-1.48-.06c-.66.13-1.23.49-1.6 1.1-.43.65-.61 1.48-.7 2.28-.03.36-.05.67-.05.94v1.76c0 1.1.06 2.3.52 3.3.4.88 1.04 1.38 1.94 1.52l.3.04Zm1.17-8.18c-.07-.55-.3-1.1-.94-1.1-.65 0-.87.55-.94 1.1-.04.25-.05.49-.06.72a456.18 456.18 0 0 0 0 3.92c0 .24.02.48.06.72.07.55.3 1.1.94 1.1.65 0 .87-.55.94-1.1.04-.24.05-.48.06-.72a456.15 456.15 0 0 0 0-3.92c0-.23-.02-.47-.06-.72ZM30.77 41h.47l.2-.03a2.4 2.4 0 0 0 1.96-1.38c.14-.27.25-.56.33-.86.19-.74.26-1.53.27-2.3l-.01-2.13c0-.5-.06-1-.15-1.5-.1-.6-.3-1.24-.65-1.74a2.36 2.36 0 0 0-1.54-1c-.48-.09-.96-.08-1.43.03-1.54.37-2.03 1.97-2.16 3.43-.03.34-.05.63-.05.86v2c0 .57.03 1.13.12 1.69.1.64.3 1.3.65 1.84.3.44.68.74 1.16.92.24.1.52.15.83.17Zm1-8.78a.8.8 0 0 0-.77-.5.8.8 0 0 0-.77.5c-.1.22-.16.47-.19.74-.02.27-.04.51-.04.73a994.62 994.62 0 0 0 0 3.63c0 .21.02.46.04.73.03.27.09.52.19.74.15.32.42.49.77.49a.8.8 0 0 0 .77-.5c.1-.21.16-.46.19-.73.02-.27.04-.52.04-.73a994.62 994.62 0 0 0 0-3.63c0-.22-.02-.46-.04-.73a2.33 2.33 0 0 0-.19-.74ZM42 35.84a171.52 171.52 0 0 1 0-.67c0-.52 0-.88-.03-1.34-.09-1.46-.52-3.1-2.1-3.64a3.43 3.43 0 0 0-.71-.16c-.15-.02-.4-.03-.73-.03a855.03 855.03 0 0 0-2.43.02 2855.13 2855.13 0 0 1 0 10.96 889.65 889.65 0 0 0 2.43.02c.33 0 .58-.01.73-.03.25-.03.49-.08.72-.16 1.57-.54 2-2.17 2.1-3.64.02-.46.02-.81.02-1.33Zm-2 1.34a353.23 353.23 0 0 0 0-3.36c0-.48-.06-1.01-.33-1.46-.33-.53-.94-.66-1.64-.64-.02 0-.03 0-.03.02a650.05 650.05 0 0 0 .03 7.55c.7.02 1.32-.12 1.64-.65.27-.45.32-.97.33-1.46Z" fill="#fff"/><defs><linearGradient id="a" x1="10.42" y1="9.71" x2="68.15" y2="76.02" gradientUnits="userSpaceOnUse"><stop stop-color="#1A1E21"/><stop offset="1" stop-color="#06060A"/></linearGradient></defs></svg>