<!-- by TradingView --><svg width="56" height="56" viewBox="0 0 56 56" xmlns="http://www.w3.org/2000/svg"><path fill="#F0F3FA" d="M0 0h56v56H0z"/><path d="M14.79 32.76a.3.3 0 0 1 .11.02l.06.02c.07.03.13.08.16.15.03.07.03.14 0 .2-2 5.33 3.76 9.57 8.28 10.6 2.54.58 5.16.67 7.85.26 5.32-.8 10.67-4.29 9.88-10.4a.18.18 0 0 0-.17-.15h-.24l-.05.01a.12.12 0 0 0-.04.03.12.12 0 0 0-.02.04v.05c.43 5.84-3.75 8.63-8.77 9.84-.2.05-.42.08-.63.07a65.28 65.28 0 0 0-4.42.05c-3.1.18-6.28-1-8.57-2.83a7.04 7.04 0 0 1-2.63-6.99.39.39 0 0 1 .25-.18h.15l.1.03c.1.02.19.07.24.15.06.09.08.19.06.28-.97 5.05 3.78 8.14 8.23 8.9.6.1 2.02.16 4.27.2 4.53.09 11.31-2.76 10.85-8.16-.08-1.05.4-1.62 1.15-2.02a.49.49 0 0 1 .68.24c.35.85.49 1.7.4 2.57-.62 6.83-8.92 9.45-14.6 9.25-5.9-.2-15.75-4.1-12.85-12.04a.28.28 0 0 1 .27-.19Zm8.5 4.35c.14-.04.3-.04.44 0 1.29.4 2.7.6 4.22.6 1.51 0 2.91-.2 4.21-.59a.81.81 0 0 1 .82.22c.85.9 1.37 1.7 1.56 2.38a.96.96 0 0 1-.66 1.18c-1.79.52-3.77.78-5.94.77A21.1 21.1 0 0 1 22 40.9a.96.96 0 0 1-.66-1.18c.2-.68.72-1.48 1.57-2.37.1-.11.23-.2.38-.23ZM27.13 11c.03 0 .05.03.07.05.02.03.03.06.03.1 0 .03 0 .06-.03.09-.53.7-.79 1.3-.79 1.83 0 .28.04.55.13.81l.9 2.4a2.88 2.88 0 0 1-.87 2.94.19.19 0 0 0-.06.1.19.19 0 0 0 .21.21l.24-.04a11.36 11.36 0 0 0 1.87-3.59c.28-.88.9-1.2 1.83-.98h-.27a1.42 1.42 0 0 0-1.4 1.44c.06 2.83-1.01 4.38-2.49 7.6-.34.75-.19 1.57.46 2.46 1.6 1.63 3.1 1.66 4.52.07.93-1.05.76-2.11-.53-3.2a.82.82 0 0 0-.63-.2c-.57.05-1 .17-1.3.36a.3.3 0 0 1-.35-.02.28.28 0 0 1-.07-.34c1.32-2.68 4.66-2.96 6.75-.87 1.52 1.52 1.8 3.76.83 6.72a9 9 0 0 1-2.02 3.18.16.16 0 0 0 .16.28c1.91-.44 3.83-.76 5.43-2.17a.45.45 0 0 0-.16-.77l-2.12-.67a.19.19 0 0 1-.12-.19c0-.04.03-.08.05-.1a.19.19 0 0 1 .1-.06c1.35-.16 2.51.17 3.48 1 .25.2.41.51.45.85.03.34-.06.69-.26.97-.71 1-1.58 1.83-2.6 2.48-5.95 3.78-12.09 4.26-18.4 1.43-2.4-.92-4.2-2.27-5.4-4.05a1.34 1.34 0 0 1 .43-1.91c1.35-.79 2.45-1.03 3.3-.75a.19.19 0 0 1 .11.19.19.19 0 0 1-.15.16c-1 .17-1.72.49-2.17.96a.45.45 0 0 0 .09.67c2.06 1.33 3.54 1.4 5.54 1.96a.2.2 0 0 0 .23-.1.2.2 0 0 0-.03-.23 8.92 8.92 0 0 1-2.24-3.87l-.5-2.64a1.08 1.08 0 0 0-.13-.36l-.8-1.32-.11-.2a2.85 2.85 0 0 1-.14-2.88c.74-1.5 1.8-3.03 3.15-4.56 1-1.13 1.26-2.31.79-3.53a.15.15 0 0 1 .22-.18c1.4 1 1.84 2.76 1.3 5.25 0 .03 0 .06.02.08.01.03.03.05.06.07.02.01.05.02.08.01.03 0 .06-.02.07-.04 1.27-1.28 1.19-3.08 1.22-4.96 0-.27.08-.53.23-.76.33-.5.9-.9 1.7-1.18a.15.15 0 0 1 .09 0Zm7.04 5.19a.21.21 0 0 1 .14.2v.64a.3.3 0 0 0 .5.23c.87-.73 1.47-1.07 1.81-1a.23.23 0 0 1 .18.15.24.24 0 0 1-.05.23c-.62.66-1 1.47-1.15 2.43a1.52 1.52 0 0 1-1.84 1.23 4.94 4.94 0 0 0-3.64.34.32.32 0 0 1-.46-.19.32.32 0 0 1 0-.19l.42-1.28a1.38 1.38 0 0 1 .84-.87 6.98 6.98 0 0 0 3.02-1.87.21.21 0 0 1 .23-.05Z" fill="url(#a)"/><defs><linearGradient id="a" x1="19.95" y1="19.64" x2="32.59" y2="43.97" gradientUnits="userSpaceOnUse"><stop stop-color="#ED913C"/><stop offset="1" stop-color="#BE1025"/></linearGradient></defs></svg>