<!-- by TradingView --><svg width="56" height="56" viewBox="0 0 56 56" xmlns="http://www.w3.org/2000/svg"><path fill="#CF0" d="M0 0h56v56H0z"/><path d="M24.33 21h7.71l.08.06a.12.12 0 0 1 0 .1c0 .02 0 .03-.02.04-6.88 7.02-12.29 14.67-15.85 23.58a.34.34 0 0 1-.13.16.36.36 0 0 1-.2.06h-.73a.19.19 0 0 1-.15-.07.17.17 0 0 1-.03-.16c.92-3.07 1.97-6.16 3.17-9.25.13-.34.2-.69.19-1.04-.01-2.75 0-4.8.04-6.14.01-.62.3-1.3.86-2.03.12-.15 1.31-1.25 4.32-4.78.17-.2.35-.36.54-.47a.4.4 0 0 1 .2-.06ZM32.87 22.95h.06a.1.1 0 0 1 .05.04.1.1 0 0 1 .02.06v7.25c0 .08-.02.16-.06.23-.29.47-1.08 2.04-2.8 4.73a2.9 2.9 0 0 1-1.93 1.38c-1.76.5-3.8 1.06-6.56 1.88h-.12l-.05-.01a.12.12 0 0 1-.04-.04.11.11 0 0 1 0-.11c3.18-6.12 6.69-10.4 11.37-15.38a.11.11 0 0 1 .06-.03Z" fill="#1C180D"/><path d="M30.8 14.17c1.76-1.39 6.21-1.43 8.24-.7 1.18.4 1.53 1.57 1.75 2.64.32 1.62.28 3.17-.14 4.67-.1.37-.37.83-.8 1.36-2.57 3.2-3.98 5.08-4.42 5.63-.1.11-.19.21-.29.29a.1.1 0 0 1-.13-.02.08.08 0 0 1-.01-.05v-8.07a.3.3 0 0 0-.02-.08c-.17-.57-.56-.84-1.16-.84h-7.73l-.06-.03a.12.12 0 0 1-.05-.05.11.11 0 0 1 .02-.13c1.54-1.58 3.14-3.32 4.8-4.62Z" fill="#1C180D"/></svg>