<!-- by TradingView --><svg width="56" height="56" viewBox="0 0 56 56" xmlns="http://www.w3.org/2000/svg"><path fill="#F0F3FA" d="M0 0h56v56H0z"/><path d="M27 12h8v6.3c0 .94-.72 1.7-1.62 1.7H27v-8Z" fill="#006DB8"/><path d="M13 21h12v13h-9.58C14.1 34 13 32.76 13 31.23V21Zm8.72 5.13H23v-.54c0-.88-.66-1.59-1.48-1.59h-2.04c-.82 0-1.48.71-1.48 1.59v.87c0 .88.66 1.59 1.48 1.59h1.94c.28 0 .51.24.51.55v.71c0 .3-.23.55-.51.55h-1.7c-.3 0-.52-.24-.52-.55v-.5H18v.6c0 .88.66 1.59 1.48 1.59h2.04c.82 0 1.48-.71 1.48-1.59v-1c0-.88-.66-1.59-1.48-1.59h-1.8c-.3 0-.52-.24-.52-.55v-.6c0-.3.23-.54.51-.54h1.5c.28 0 .51.24.51.55v.45Z" fill="#19357E"/><path fill-rule="evenodd" d="M42 21H26v15h16V21ZM29 32h1.47l.53-1.73h3l.53 1.73H36l-2.48-8h-2.04L29 32Zm4.61-3H31.4l1.11-3.62L33.61 29Z" fill="#A71B24"/><path fill="#F78B28" d="M17 35h8v8h-8z"/></svg>