<!-- by TradingView --><svg width="56" height="56" viewBox="0 0 56 56" xmlns="http://www.w3.org/2000/svg"><path fill="#F3714A" d="M0 0h56v56H0z"/><path d="M12 25.51c2.28-11.27 14.37-17.15 24.4-11.07a16.1 16.1 0 0 1 5.77 21.07C39.7 40.17 35.7 43 30.18 44a.17.17 0 0 1-.2-.18.4.4 0 0 1 .12-.23c1.64-1.7 3.34-3.39 5.1-5.07 2.01-1.91 3.38-3.66 4.12-5.25 2.47-5.32.83-11.6-3.95-15.22a12.62 12.62 0 0 0-13.25-1.08c-.94.47-2.67 1.95-5.17 4.42-1.6 1.58-3.25 3.16-4.95 4.73v-.6Zm9.37-3.49c3.64-3.66 9.3-3.86 12.89-.26 3.6 3.6 3.4 9.24-.28 12.88l-8.81 8.8a1 1 0 0 1-1 .24l-2.63-.84a.4.4 0 0 1-.27-.49.4.4 0 0 1 .1-.17c6.24-6.19 9.75-9.7 10.53-10.53a5.32 5.32 0 0 0-.18-7.36 5.33 5.33 0 0 0-7.36-.19c-.84.78-4.36 4.28-10.56 10.5a.4.4 0 0 1-.66-.16l-.83-2.63a1 1 0 0 1 .24-1l8.82-8.79Zm6.46 4.31c.24-.01.47.02.69.1.2.07.4.2.56.35l.13.13c.31.32.47.76.45 1.24-.03.48-.25.95-.6 1.3l-10.9 10.93a.4.4 0 0 1-.45.1.4.4 0 0 1-.13-.1l-1.95-1.94a.4.4 0 0 1 0-.57l10.9-10.93a2.13 2.13 0 0 1 1.3-.6Z" fill="#fff"/></svg>