<!-- by TradingView --><svg width="56" height="56" viewBox="0 0 56 56" fill="none" xmlns="http://www.w3.org/2000/svg"><path fill="#F0F3FA" d="M0 0h56v56H0z"/><path d="M18 22h2.33c1.32 0 3.37.3 3.33 2.04a1.7 1.7 0 0 1-1.25 1.66c.92.16 1.64.97 1.59 1.91.06 1.96-2.16 2.39-3.67 2.39H18v-8Zm2.76 3.4c.8 0 1.24-.15 1.24-.9.05-1.03-1.04-1-1.77-1h-.73v1.9h1.26Zm-.37 3.1c.79 0 2.11 0 2.11-1 0-.77-.59-1.1-1.7-1.1h-1.3v2.1h.9ZM25.76 22a.75.75 0 1 1-.02 1.5.75.75 0 0 1 .02-1.5ZM41.76 22a.75.75 0 1 1-.02 1.5.75.75 0 0 1 .02-1.5ZM26.5 25H25v5h1.5v-5ZM42.5 25H41v5h1.5v-5Z" fill="#000766"/><path fill-rule="evenodd" d="M34 27c0-1.7-1.28-3-3-3s-3 1.3-3 3 1.28 3 3 3 3-1.3 3-3Zm-1.42 0c0-.9-.67-1.58-1.58-1.58-.9 0-1.58.69-1.58 1.58 0 .89.68 1.58 1.58 1.58s1.58-.69 1.58-1.58Z" fill="#000766"/><path d="M35 27.98c.67.5 1.64.78 2.45.8.73 0 1.05-.32 1.05-1.04 0-.86-.56-.98-1.51-1.28-1.03-.33-1.99-.82-1.99-2.2 0-1.41 1-2.26 2.47-2.26.76 0 1.51.19 2.18.57v1.37a4.12 4.12 0 0 0-2.19-.73c-.69 0-.96.3-.96.95 0 .82.56.93 1.44 1.22 1.09.35 2.06.86 2.06 2.28 0 1.46-1.03 2.34-2.56 2.34-.79 0-1.74-.2-2.44-.59v-1.43ZM44.23 30.93a3.4 3.4 0 0 0 1.8.57c.96 0 1.59-.24 1.59-1.18v-.7c-.43.27-.95.39-1.45.38-1.5.01-2.67-1.5-2.67-3 0-1.62 1.12-3 2.9-3 .49 0 .97.1 1.41.32l1.19-.2v6.18c0 1.7-1.16 2.7-2.92 2.7-.64 0-1.27-.14-1.85-.4v-1.67Zm3.39-5.13c-.36-.2-.75-.3-1.16-.3-1 0-1.46.59-1.46 1.5 0 .97.5 1.5 1.46 1.5.42 0 .82-.12 1.16-.35V25.8Z" fill="#000766"/><path d="M23.48 36.32a.35.35 0 0 0-.32.22.36.36 0 0 0 .25.48.35.35 0 0 0 .43-.35.36.36 0 0 0-.36-.35Z" fill="url(#aiq5rkouv)"/><path d="M21.7 37.5a.4.4 0 0 0 .4-.41.4.4 0 0 0-.4-.4.4.4 0 0 0-.4.4c0 .22.18.4.4.4Z" fill="url(#biq5rkouv)"/><path d="M19.86 36.68a.45.45 0 0 0-.42.28.46.46 0 0 0 .33.63.45.45 0 0 0 .47-.2.46.46 0 0 0-.38-.7Z" fill="url(#ciq5rkouv)"/><path d="M18.04 36.3a.5.5 0 0 0-.47.32.51.51 0 0 0 .37.7.5.5 0 0 0 .6-.5.51.51 0 0 0-.3-.47.5.5 0 0 0-.2-.04Z" fill="url(#diq5rkouv)"/><path d="M25.14 36.2c.17 0 .31-.13.31-.3a.32.32 0 0 0-.31-.33.32.32 0 0 0-.32.32c0 .18.14.32.32.32Z" fill="url(#eiq5rkouv)"/><path d="M16.31 35.57a.55.55 0 0 0-.5.35.56.56 0 0 0 .4.76.55.55 0 0 0 .57-.24.56.56 0 0 0-.47-.87Z" fill="url(#fiq5rkouv)"/><path d="M15.33 35.11a.59.59 0 0 0-.36-.54.58.58 0 0 0-.79.43.59.59 0 0 0 .25.6.58.58 0 0 0 .73-.07c.11-.11.17-.26.17-.42Z" fill="url(#giq5rkouv)"/><path d="M13.42 34.42a.6.6 0 0 0 .56-.38.61.61 0 0 0-.13-.66.6.6 0 0 0-1.04.43.61.61 0 0 0 .6.6Z" fill="url(#hiq5rkouv)"/><path d="M12.37 32.9a.63.63 0 0 0 .58-.39.64.64 0 0 0-.46-.86.63.63 0 0 0-.65.27.64.64 0 0 0 .53.98Z" fill="url(#iiq5rkouv)"/><path d="M11.64 31.35a.65.65 0 0 0 .6-.4.66.66 0 0 0-.47-.9.65.65 0 0 0-.79.64.66.66 0 0 0 .66.66Z" fill="url(#jiq5rkouv)"/><path d="M11.27 29.56a.68.68 0 0 0 .63-.42.69.69 0 0 0-.5-.94.68.68 0 0 0-.7.3.69.69 0 0 0 .57 1.06Z" fill="url(#kiq5rkouv)"/><path d="M10.59 27.11a.69.69 0 0 0 .42.64.68.68 0 0 0 .93-.5.69.69 0 0 0-.3-.7.68.68 0 0 0-1.05.56Z" fill="url(#liq5rkouv)"/><path d="M11.64 25.96c.36 0 .65-.3.65-.66 0-.36-.29-.66-.65-.66-.36 0-.66.3-.66.66 0 .37.3.66.66.66Z" fill="url(#miq5rkouv)"/><path d="M12.37 23.1a.63.63 0 0 0-.59.39.64.64 0 0 0 .46.86.63.63 0 0 0 .65-.27.64.64 0 0 0-.53-.99Z" fill="url(#niq5rkouv)"/><path d="M14.02 22.19a.61.61 0 0 0-.37-.57.6.6 0 0 0-.83.45.61.61 0 0 0 .26.62.6.6 0 0 0 .94-.5Z" fill="url(#oiq5rkouv)"/><path d="M14.75 21.47c.32 0 .58-.27.58-.59a.58.58 0 0 0-.58-.58.58.58 0 0 0-.58.58c0 .32.26.59.58.59Z" fill="url(#piq5rkouv)"/><path d="M15.76 19.87a.56.56 0 0 0 .34.52.55.55 0 0 0 .76-.4.56.56 0 0 0-.24-.58.55.55 0 0 0-.7.07c-.1.1-.16.24-.16.4Z" fill="url(#qiq5rkouv)"/><path d="M17.54 19.18a.5.5 0 0 0 .3.47.5.5 0 0 0 .7-.37.51.51 0 0 0-.22-.52.5.5 0 0 0-.78.42Z" fill="url(#riq5rkouv)"/><path d="M19.4 18.86a.46.46 0 0 0 .55.45.45.45 0 0 0 .33-.62.46.46 0 0 0-.6-.25.45.45 0 0 0-.27.42Z" fill="url(#siq5rkouv)"/><path d="M21.3 18.91a.4.4 0 0 0 .25.38.4.4 0 0 0 .55-.3.4.4 0 0 0-.17-.42.4.4 0 0 0-.63.34Z" fill="url(#tiq5rkouv)"/><path d="M23.48 18.97a.35.35 0 0 0-.32.22.36.36 0 0 0 .25.49.35.35 0 0 0 .43-.35.36.36 0 0 0-.36-.36Z" fill="url(#uiq5rkouv)"/><path d="M25.14 19.79a.31.31 0 0 0-.3.2.32.32 0 0 0 .23.43.31.31 0 0 0 .38-.31.32.32 0 0 0-.31-.32Z" fill="url(#viq5rkouv)"/><path d="M27.7 35.99a.31.31 0 0 0-.3.18.32.32 0 0 0 .21.44.31.31 0 0 0 .39-.3.32.32 0 0 0-.18-.3.31.31 0 0 0-.12-.02Z" fill="#000766"/><path d="M26.2 37.54a.35.35 0 0 0-.34.2.36.36 0 0 0 .24.5.35.35 0 0 0 .37-.14.36.36 0 0 0-.28-.56Z" fill="url(#wiq5rkouv)"/><path d="M24.53 38.32a.4.4 0 0 0-.41.47.4.4 0 0 0 .3.33.4.4 0 0 0 .5-.38.4.4 0 0 0-.39-.42Z" fill="url(#xiq5rkouv)"/><path d="M22.76 38.8a.45.45 0 0 0-.43.27.46.46 0 0 0 .3.63.45.45 0 0 0 .48-.17.46.46 0 0 0-.35-.73Z" fill="url(#yiq5rkouv)"/><path d="M20.91 38.99a.5.5 0 0 0-.48.3.51.51 0 0 0 .35.7.5.5 0 0 0 .52-.2.5.5 0 0 0-.39-.8Z" fill="url(#ziq5rkouv)"/><path d="M19.04 38.93a.53.53 0 0 0-.5.32.53.53 0 0 0 .36.73.53.53 0 0 0 .66-.5.54.54 0 0 0-.31-.5.53.53 0 0 0-.2-.05Z" fill="url(#aaiq5rkouv)"/><path d="M17.2 38.49a.55.55 0 0 0-.52.32.56.56 0 0 0 .38.78.55.55 0 0 0 .58-.22.56.56 0 0 0-.43-.88Z" fill="url(#abiq5rkouv)"/><path d="M15.45 37.79a.58.58 0 0 0-.54.34.59.59 0 0 0 .39.81.58.58 0 0 0 .6-.23.59.59 0 0 0-.45-.92Z" fill="url(#aciq5rkouv)"/><path d="M13.83 36.82a.6.6 0 0 0-.58.35.61.61 0 0 0 .41.85.6.6 0 0 0 .75-.57.61.61 0 0 0-.58-.63Z" fill="url(#adiq5rkouv)"/><path d="M12.42 36.85a.63.63 0 0 0-.14-1.26.63.63 0 0 0 .14 1.26Z" fill="url(#aeiq5rkouv)"/><path d="M11.12 34.15a.65.65 0 0 0-.62.38.66.66 0 0 0 .45.92.65.65 0 0 0 .8-.62.66.66 0 0 0-.63-.68Z" fill="url(#afiq5rkouv)"/><path d="M10.77 33.2a.69.69 0 0 0-.4-.64.68.68 0 0 0-.95.46.69.69 0 0 0 .64.85.68.68 0 0 0 .7-.66Z" fill="url(#agiq5rkouv)"/><path d="M10.06 31.53a.71.71 0 0 0-.42-.67.7.7 0 0 0-.98.48.71.71 0 0 0 .66.88.7.7 0 0 0 .74-.69Z" fill="url(#ahiq5rkouv)"/><path d="M9.65 29.8a.74.74 0 0 0-.43-.7.73.73 0 0 0-1.02.51.74.74 0 0 0 .29.77.73.73 0 0 0 1.16-.58Z" fill="url(#aiiq5rkouv)"/><path d="M8.73 28.76a.75.75 0 0 0 .72-.44.76.76 0 0 0-.52-1.06.75.75 0 0 0-.93.71.76.76 0 0 0 .73.8Z" fill="url(#ajiq5rkouv)"/><path d="M8.89 26.96a.73.73 0 0 0 .69-.43.74.74 0 0 0-.5-1.02.73.73 0 0 0-.76.28.74.74 0 0 0 .57 1.17Z" fill="url(#akiq5rkouv)"/><path d="M9.32 25.2a.7.7 0 0 0 .67-.4.71.71 0 0 0-.48-1 .7.7 0 0 0-.87.67.71.71 0 0 0 .68.74Z" fill="url(#aliq5rkouv)"/><path d="M10.06 23.5a.68.68 0 0 0 .65-.4.69.69 0 0 0-.47-.95.68.68 0 0 0-.7.27.69.69 0 0 0 .52 1.08Z" fill="url(#amiq5rkouv)"/><path d="M11.07 21.85a.65.65 0 0 0 .62-.38.66.66 0 0 0-.44-.92.65.65 0 0 0-.69.26.66.66 0 0 0 .51 1.04Z" fill="url(#aniq5rkouv)"/><path d="M12.32 20.41a.63.63 0 0 0 .6-.37.64.64 0 0 0-.43-.88.63.63 0 0 0-.77.6.64.64 0 0 0 .6.65Z" fill="url(#aoiq5rkouv)"/><path d="M13.78 19.19a.6.6 0 0 0 .58-.36.61.61 0 0 0-.42-.85.6.6 0 0 0-.63.24.61.61 0 0 0 .47.97Z" fill="url(#apiq5rkouv)"/><path d="M15.41 18.2a.58.58 0 0 0 .55-.33.59.59 0 0 0-.4-.81.58.58 0 0 0-.7.55.59.59 0 0 0 .55.6Z" fill="url(#aqiq5rkouv)"/><path d="M17.17 17.51a.55.55 0 0 0 .52-.32.56.56 0 0 0-.37-.78.55.55 0 0 0-.58.22.56.56 0 0 0 .43.88Z" fill="url(#ariq5rkouv)"/><path d="M19 17.07a.53.53 0 0 0 .5-.32.54.54 0 0 0-.35-.74.53.53 0 0 0-.65.5.54.54 0 0 0 .3.5c.07.04.14.05.2.06Z" fill="url(#asiq5rkouv)"/><path d="M20.88 17.01a.5.5 0 0 0 .47-.3.51.51 0 0 0-.34-.7.5.5 0 0 0-.62.48.5.5 0 0 0 .49.52Z" fill="url(#atiq5rkouv)"/><path d="M22.73 17.15a.45.45 0 0 0 .42-.27.46.46 0 0 0-.3-.63.45.45 0 0 0-.48.17.46.46 0 0 0 .36.73Z" fill="url(#auiq5rkouv)"/><path d="M24.5 17.68a.4.4 0 0 0 .39-.23.4.4 0 0 0-.28-.57.4.4 0 0 0-.5.38.4.4 0 0 0 .4.42Z" fill="url(#aviq5rkouv)"/><path d="M26.2 17.75a.35.35 0 0 0-.34.2.36.36 0 0 0 .24.5.35.35 0 0 0 .44-.34.35.35 0 0 0-.35-.36Z" fill="url(#awiq5rkouv)"/><path d="M27.67 19.56a.31.31 0 0 0 .3-.19.32.32 0 0 0-.21-.44.31.31 0 0 0-.39.3.32.32 0 0 0 .08.23.32.32 0 0 0 .22.1Z" fill="url(#axiq5rkouv)"/><defs><linearGradient id="aiq5rkouv" x1="8.02" y1="36.67" x2="27.64" y2="36.67" gradientUnits="userSpaceOnUse"><stop offset=".72" stop-color="#FE675D"/><stop offset=".92" stop-color="#000766"/></linearGradient><linearGradient id="biq5rkouv" x1="8.02" y1="37.09" x2="27.65" y2="37.09" gradientUnits="userSpaceOnUse"><stop offset=".58" stop-color="#FE795B"/><stop offset=".72" stop-color="#FE675D"/></linearGradient><linearGradient id="ciq5rkouv" x1="8.01" y1="37.14" x2="27.65" y2="37.14" gradientUnits="userSpaceOnUse"><stop offset=".58" stop-color="#FE795B"/><stop offset=".72" stop-color="#FE675D"/></linearGradient><linearGradient id="diq5rkouv" x1="8.02" y1="36.82" x2="27.64" y2="36.82" gradientUnits="userSpaceOnUse"><stop offset=".48" stop-color="#FD905D"/><stop offset=".58" stop-color="#FE795B"/></linearGradient><linearGradient id="eiq5rkouv" x1="8.02" y1="35.89" x2="27.64" y2="35.89" gradientUnits="userSpaceOnUse"><stop offset=".72" stop-color="#FE675D"/><stop offset=".92" stop-color="#000766"/></linearGradient><linearGradient id="fiq5rkouv" x1="8.02" y1="36.13" x2="27.64" y2="36.13" gradientUnits="userSpaceOnUse"><stop offset=".38" stop-color="#FCB368"/><stop offset=".48" stop-color="#FD905D"/></linearGradient><linearGradient id="giq5rkouv" x1="8.02" y1="35.11" x2="27.65" y2="35.11" gradientUnits="userSpaceOnUse"><stop offset=".28" stop-color="#FCD672"/><stop offset=".38" stop-color="#FCB368"/></linearGradient><linearGradient id="hiq5rkouv" x1="8.01" y1="33.81" x2="27.67" y2="33.81" gradientUnits="userSpaceOnUse"><stop offset=".18" stop-color="#FAE693"/><stop offset=".28" stop-color="#FCD672"/><stop offset=".72" stop-color="#FE675D"/></linearGradient><linearGradient id="iiq5rkouv" x1="8.02" y1="32.27" x2="27.64" y2="32.27" gradientUnits="userSpaceOnUse"><stop offset=".18" stop-color="#FAE693"/><stop offset=".28" stop-color="#FCD672"/></linearGradient><linearGradient id="jiq5rkouv" x1="8.02" y1="30.69" x2="27.65" y2="30.69" gradientUnits="userSpaceOnUse"><stop offset=".08" stop-color="#F9F5B4"/><stop offset=".28" stop-color="#FCD672"/></linearGradient><linearGradient id="kiq5rkouv" x1="8.02" y1="28.87" x2="27.65" y2="28.87" gradientUnits="userSpaceOnUse"><stop offset=".08" stop-color="#F9F5B4"/><stop offset=".28" stop-color="#FCD672"/></linearGradient><linearGradient id="liq5rkouv" x1="8.02" y1="27.11" x2="27.65" y2="27.11" gradientUnits="userSpaceOnUse"><stop offset=".08" stop-color="#F9F5B4"/><stop offset=".28" stop-color="#FCD672"/></linearGradient><linearGradient id="miq5rkouv" x1="8.02" y1="25.3" x2="27.65" y2="25.3" gradientUnits="userSpaceOnUse"><stop offset=".08" stop-color="#F9F5B4"/><stop offset=".28" stop-color="#FCD672"/></linearGradient><linearGradient id="niq5rkouv" x1="8.02" y1="23.73" x2="27.64" y2="23.73" gradientUnits="userSpaceOnUse"><stop offset=".18" stop-color="#FAE693"/><stop offset=".28" stop-color="#FCD672"/></linearGradient><linearGradient id="oiq5rkouv" x1="8.01" y1="22.19" x2="27.67" y2="22.19" gradientUnits="userSpaceOnUse"><stop offset=".18" stop-color="#FAE693"/><stop offset=".28" stop-color="#FCD672"/><stop offset=".72" stop-color="#FE675D"/></linearGradient><linearGradient id="piq5rkouv" x1="8.02" y1="20.88" x2="27.65" y2="20.88" gradientUnits="userSpaceOnUse"><stop offset=".28" stop-color="#FCD672"/><stop offset=".48" stop-color="#FD905D"/></linearGradient><linearGradient id="qiq5rkouv" x1="8.02" y1="19.87" x2="27.64" y2="19.87" gradientUnits="userSpaceOnUse"><stop offset=".38" stop-color="#FCB368"/><stop offset=".48" stop-color="#FD905D"/></linearGradient><linearGradient id="riq5rkouv" x1="8.02" y1="19.18" x2="27.64" y2="19.18" gradientUnits="userSpaceOnUse"><stop offset=".48" stop-color="#FD905D"/><stop offset=".58" stop-color="#FE795B"/></linearGradient><linearGradient id="siq5rkouv" x1="8.02" y1="18.86" x2="27.65" y2="18.86" gradientUnits="userSpaceOnUse"><stop offset=".58" stop-color="#FE795B"/><stop offset=".72" stop-color="#FE675D"/></linearGradient><linearGradient id="tiq5rkouv" x1="8" y1="18.91" x2="27.65" y2="18.91" gradientUnits="userSpaceOnUse"><stop offset=".58" stop-color="#FE795B"/><stop offset=".72" stop-color="#FE675D"/></linearGradient><linearGradient id="uiq5rkouv" x1="8.02" y1="19.33" x2="27.64" y2="19.33" gradientUnits="userSpaceOnUse"><stop offset=".72" stop-color="#FE675D"/><stop offset=".92" stop-color="#000766"/></linearGradient><linearGradient id="viq5rkouv" x1="8.02" y1="20.11" x2="27.64" y2="20.11" gradientUnits="userSpaceOnUse"><stop offset=".72" stop-color="#FE675D"/><stop offset=".92" stop-color="#000766"/></linearGradient><linearGradient id="wiq5rkouv" x1="8.02" y1="37.9" x2="27.65" y2="37.9" gradientUnits="userSpaceOnUse"><stop offset=".72" stop-color="#FE675D"/><stop offset=".92" stop-color="#000766"/></linearGradient><linearGradient id="xiq5rkouv" x1="7.99" y1="38.72" x2="27.65" y2="38.72" gradientUnits="userSpaceOnUse"><stop offset=".72" stop-color="#FE675D"/><stop offset=".92" stop-color="#000766"/></linearGradient><linearGradient id="yiq5rkouv" x1="8.01" y1="39.26" x2="27.65" y2="39.26" gradientUnits="userSpaceOnUse"><stop offset=".38" stop-color="#FCB368"/><stop offset=".48" stop-color="#FD905D"/><stop offset=".58" stop-color="#FE795B"/><stop offset=".72" stop-color="#FE675D"/><stop offset=".92" stop-color="#000766"/></linearGradient><linearGradient id="ziq5rkouv" x1="8.01" y1="39.49" x2="27.65" y2="39.49" gradientUnits="userSpaceOnUse"><stop offset=".08" stop-color="#F9F5B4"/><stop offset=".18" stop-color="#FAE693"/><stop offset=".28" stop-color="#FCD672"/><stop offset=".38" stop-color="#FCB368"/><stop offset=".48" stop-color="#FD905D"/><stop offset=".58" stop-color="#FE795B"/><stop offset=".72" stop-color="#FE675D"/><stop offset=".92" stop-color="#000766"/></linearGradient><linearGradient id="aaiq5rkouv" x1="8.02" y1="39.47" x2="27.65" y2="39.47" gradientUnits="userSpaceOnUse"><stop offset=".08" stop-color="#F9F5B4"/><stop offset=".18" stop-color="#FAE693"/><stop offset=".28" stop-color="#FCD672"/><stop offset=".38" stop-color="#FCB368"/><stop offset=".48" stop-color="#FD905D"/><stop offset=".58" stop-color="#FE795B"/><stop offset=".72" stop-color="#FE675D"/><stop offset=".92" stop-color="#000766"/></linearGradient><linearGradient id="abiq5rkouv" x1="8.02" y1="39.05" x2="27.64" y2="39.05" gradientUnits="userSpaceOnUse"><stop offset=".08" stop-color="#F9F5B4"/><stop offset=".18" stop-color="#FAE693"/><stop offset=".28" stop-color="#FCD672"/><stop offset=".38" stop-color="#FCB368"/><stop offset=".48" stop-color="#FD905D"/><stop offset=".58" stop-color="#FE795B"/><stop offset=".72" stop-color="#FE675D"/><stop offset=".92" stop-color="#000766"/></linearGradient><linearGradient id="aciq5rkouv" x1="8.02" y1="38.37" x2="27.64" y2="38.37" gradientUnits="userSpaceOnUse"><stop offset=".08" stop-color="#F9F5B4"/><stop offset=".18" stop-color="#FAE693"/><stop offset=".28" stop-color="#FCD672"/><stop offset=".38" stop-color="#FCB368"/><stop offset=".48" stop-color="#FD905D"/><stop offset=".58" stop-color="#FE795B"/><stop offset=".72" stop-color="#FE675D"/><stop offset=".92" stop-color="#000766"/></linearGradient><linearGradient id="adiq5rkouv" x1="8.01" y1="37.43" x2="27.67" y2="37.43" gradientUnits="userSpaceOnUse"><stop offset=".08" stop-color="#F9F5B4"/><stop offset=".18" stop-color="#FAE693"/><stop offset=".28" stop-color="#FCD672"/><stop offset=".38" stop-color="#FCB368"/><stop offset=".48" stop-color="#FD905D"/><stop offset=".58" stop-color="#FE795B"/><stop offset=".72" stop-color="#FE675D"/><stop offset=".92" stop-color="#000766"/></linearGradient><linearGradient id="aeiq5rkouv" x1="8.05" y1="36.71" x2="27.55" y2="34.53" gradientUnits="userSpaceOnUse"><stop offset=".08" stop-color="#F9F5B4"/><stop offset=".18" stop-color="#FAE693"/><stop offset=".28" stop-color="#FCD672"/><stop offset=".38" stop-color="#FCB368"/><stop offset=".48" stop-color="#FD905D"/><stop offset=".58" stop-color="#FE795B"/><stop offset=".72" stop-color="#FE675D"/><stop offset=".92" stop-color="#000766"/></linearGradient><linearGradient id="afiq5rkouv" x1="8.02" y1="34.81" x2="27.65" y2="34.81" gradientUnits="userSpaceOnUse"><stop offset=".08" stop-color="#F9F5B4"/><stop offset=".18" stop-color="#FAE693"/><stop offset=".28" stop-color="#FCD672"/><stop offset=".38" stop-color="#FCB368"/><stop offset=".48" stop-color="#FD905D"/><stop offset=".58" stop-color="#FE795B"/><stop offset=".72" stop-color="#FE675D"/><stop offset=".92" stop-color="#000766"/></linearGradient><linearGradient id="agiq5rkouv" x1="8.02" y1="33.18" x2="27.64" y2="33.18" gradientUnits="userSpaceOnUse"><stop offset=".08" stop-color="#F9F5B4"/><stop offset=".18" stop-color="#FAE693"/><stop offset=".28" stop-color="#FCD672"/><stop offset=".38" stop-color="#FCB368"/><stop offset=".48" stop-color="#FD905D"/><stop offset=".58" stop-color="#FE795B"/><stop offset=".72" stop-color="#FE675D"/><stop offset=".92" stop-color="#000766"/></linearGradient><linearGradient id="ahiq5rkouv" x1="8.02" y1="31.51" x2="27.64" y2="31.51" gradientUnits="userSpaceOnUse"><stop offset=".08" stop-color="#F9F5B4"/><stop offset=".18" stop-color="#FAE693"/><stop offset=".28" stop-color="#FCD672"/><stop offset=".38" stop-color="#FCB368"/><stop offset=".48" stop-color="#FD905D"/><stop offset=".58" stop-color="#FE795B"/><stop offset=".72" stop-color="#FE675D"/><stop offset=".92" stop-color="#000766"/></linearGradient><linearGradient id="aiiq5rkouv" x1="8.02" y1="29.78" x2="27.65" y2="29.78" gradientUnits="userSpaceOnUse"><stop offset=".08" stop-color="#F9F5B4"/><stop offset=".18" stop-color="#FAE693"/><stop offset=".28" stop-color="#FCD672"/><stop offset=".38" stop-color="#FCB368"/><stop offset=".48" stop-color="#FD905D"/><stop offset=".58" stop-color="#FE795B"/><stop offset=".72" stop-color="#FE675D"/><stop offset=".92" stop-color="#000766"/></linearGradient><linearGradient id="ajiq5rkouv" x1="8.02" y1="28" x2="27.64" y2="28" gradientUnits="userSpaceOnUse"><stop offset=".08" stop-color="#F9F5B4"/><stop offset=".18" stop-color="#FAE693"/><stop offset=".28" stop-color="#FCD672"/><stop offset=".38" stop-color="#FCB368"/><stop offset=".48" stop-color="#FD905D"/><stop offset=".58" stop-color="#FE795B"/><stop offset=".72" stop-color="#FE675D"/><stop offset=".92" stop-color="#000766"/></linearGradient><linearGradient id="akiq5rkouv" x1="8.02" y1="26.22" x2="27.65" y2="26.22" gradientUnits="userSpaceOnUse"><stop offset=".08" stop-color="#F9F5B4"/><stop offset=".18" stop-color="#FAE693"/><stop offset=".28" stop-color="#FCD672"/><stop offset=".38" stop-color="#FCB368"/><stop offset=".48" stop-color="#FD905D"/><stop offset=".58" stop-color="#FE795B"/><stop offset=".72" stop-color="#FE675D"/><stop offset=".92" stop-color="#000766"/></linearGradient><linearGradient id="aliq5rkouv" x1="8.02" y1="24.5" x2="27.64" y2="24.5" gradientUnits="userSpaceOnUse"><stop offset=".08" stop-color="#F9F5B4"/><stop offset=".18" stop-color="#FAE693"/><stop offset=".28" stop-color="#FCD672"/><stop offset=".38" stop-color="#FCB368"/><stop offset=".48" stop-color="#FD905D"/><stop offset=".58" stop-color="#FE795B"/><stop offset=".72" stop-color="#FE675D"/><stop offset=".92" stop-color="#000766"/></linearGradient><linearGradient id="amiq5rkouv" x1="8.02" y1="22.82" x2="27.64" y2="22.82" gradientUnits="userSpaceOnUse"><stop offset=".08" stop-color="#F9F5B4"/><stop offset=".18" stop-color="#FAE693"/><stop offset=".28" stop-color="#FCD672"/><stop offset=".38" stop-color="#FCB368"/><stop offset=".48" stop-color="#FD905D"/><stop offset=".58" stop-color="#FE795B"/><stop offset=".72" stop-color="#FE675D"/><stop offset=".92" stop-color="#000766"/></linearGradient><linearGradient id="aniq5rkouv" x1="8.02" y1="21.19" x2="27.65" y2="21.19" gradientUnits="userSpaceOnUse"><stop offset=".08" stop-color="#F9F5B4"/><stop offset=".18" stop-color="#FAE693"/><stop offset=".28" stop-color="#FCD672"/><stop offset=".38" stop-color="#FCB368"/><stop offset=".48" stop-color="#FD905D"/><stop offset=".58" stop-color="#FE795B"/><stop offset=".72" stop-color="#FE675D"/><stop offset=".92" stop-color="#000766"/></linearGradient><linearGradient id="aoiq5rkouv" x1="8.02" y1="19.78" x2="27.64" y2="19.78" gradientUnits="userSpaceOnUse"><stop offset=".08" stop-color="#F9F5B4"/><stop offset=".18" stop-color="#FAE693"/><stop offset=".28" stop-color="#FCD672"/><stop offset=".38" stop-color="#FCB368"/><stop offset=".48" stop-color="#FD905D"/><stop offset=".58" stop-color="#FE795B"/><stop offset=".72" stop-color="#FE675D"/><stop offset=".92" stop-color="#000766"/></linearGradient><linearGradient id="apiq5rkouv" x1="8.01" y1="18.58" x2="27.67" y2="18.58" gradientUnits="userSpaceOnUse"><stop offset=".08" stop-color="#F9F5B4"/><stop offset=".18" stop-color="#FAE693"/><stop offset=".28" stop-color="#FCD672"/><stop offset=".38" stop-color="#FCB368"/><stop offset=".48" stop-color="#FD905D"/><stop offset=".58" stop-color="#FE795B"/><stop offset=".72" stop-color="#FE675D"/><stop offset=".92" stop-color="#000766"/></linearGradient><linearGradient id="aqiq5rkouv" x1="8.02" y1="17.63" x2="27.65" y2="17.63" gradientUnits="userSpaceOnUse"><stop offset=".08" stop-color="#F9F5B4"/><stop offset=".18" stop-color="#FAE693"/><stop offset=".28" stop-color="#FCD672"/><stop offset=".38" stop-color="#FCB368"/><stop offset=".48" stop-color="#FD905D"/><stop offset=".58" stop-color="#FE795B"/><stop offset=".72" stop-color="#FE675D"/><stop offset=".92" stop-color="#000766"/></linearGradient><linearGradient id="ariq5rkouv" x1="8.02" y1="16.96" x2="27.64" y2="16.96" gradientUnits="userSpaceOnUse"><stop offset=".08" stop-color="#F9F5B4"/><stop offset=".18" stop-color="#FAE693"/><stop offset=".28" stop-color="#FCD672"/><stop offset=".38" stop-color="#FCB368"/><stop offset=".48" stop-color="#FD905D"/><stop offset=".58" stop-color="#FE795B"/><stop offset=".72" stop-color="#FE675D"/><stop offset=".92" stop-color="#000766"/></linearGradient><linearGradient id="asiq5rkouv" x1="8.02" y1="16.53" x2="27.65" y2="16.53" gradientUnits="userSpaceOnUse"><stop offset=".08" stop-color="#F9F5B4"/><stop offset=".18" stop-color="#FAE693"/><stop offset=".28" stop-color="#FCD672"/><stop offset=".38" stop-color="#FCB368"/><stop offset=".48" stop-color="#FD905D"/><stop offset=".58" stop-color="#FE795B"/><stop offset=".72" stop-color="#FE675D"/><stop offset=".92" stop-color="#000766"/></linearGradient><linearGradient id="atiq5rkouv" x1="8.01" y1="16.51" x2="27.65" y2="16.51" gradientUnits="userSpaceOnUse"><stop offset=".08" stop-color="#F9F5B4"/><stop offset=".18" stop-color="#FAE693"/><stop offset=".28" stop-color="#FCD672"/><stop offset=".38" stop-color="#FCB368"/><stop offset=".48" stop-color="#FD905D"/><stop offset=".58" stop-color="#FE795B"/><stop offset=".72" stop-color="#FE675D"/><stop offset=".92" stop-color="#000766"/></linearGradient><linearGradient id="auiq5rkouv" x1="8.01" y1="16.69" x2="27.65" y2="16.69" gradientUnits="userSpaceOnUse"><stop offset=".08" stop-color="#F9F5B4"/><stop offset=".18" stop-color="#FAE693"/><stop offset=".28" stop-color="#FCD672"/><stop offset=".38" stop-color="#FCB368"/><stop offset=".48" stop-color="#FD905D"/><stop offset=".58" stop-color="#FE795B"/><stop offset=".72" stop-color="#FE675D"/><stop offset=".92" stop-color="#000766"/></linearGradient><linearGradient id="aviq5rkouv" x1="8" y1="17.28" x2="27.65" y2="17.28" gradientUnits="userSpaceOnUse"><stop offset=".08" stop-color="#F9F5B4"/><stop offset=".18" stop-color="#FAE693"/><stop offset=".28" stop-color="#FCD672"/><stop offset=".38" stop-color="#FCB368"/><stop offset=".48" stop-color="#FD905D"/><stop offset=".58" stop-color="#FE795B"/><stop offset=".72" stop-color="#FE675D"/><stop offset=".92" stop-color="#000766"/></linearGradient><linearGradient id="awiq5rkouv" x1="8.02" y1="18.1" x2="27.65" y2="18.1" gradientUnits="userSpaceOnUse"><stop offset=".08" stop-color="#F9F5B4"/><stop offset=".18" stop-color="#FAE693"/><stop offset=".28" stop-color="#FCD672"/><stop offset=".38" stop-color="#FCB368"/><stop offset=".48" stop-color="#FD905D"/><stop offset=".58" stop-color="#FE795B"/><stop offset=".72" stop-color="#FE675D"/><stop offset=".92" stop-color="#000766"/></linearGradient><linearGradient id="axiq5rkouv" x1="8.02" y1="19.24" x2="27.65" y2="19.24" gradientUnits="userSpaceOnUse"><stop offset=".08" stop-color="#F9F5B4"/><stop offset=".18" stop-color="#FAE693"/><stop offset=".28" stop-color="#FCD672"/><stop offset=".38" stop-color="#FCB368"/><stop offset=".48" stop-color="#FD905D"/><stop offset=".58" stop-color="#FE795B"/><stop offset=".72" stop-color="#FE675D"/><stop offset=".92" stop-color="#000766"/></linearGradient></defs></svg>