<!-- by TradingView --><svg width="56" height="56" viewBox="0 0 56 56" xmlns="http://www.w3.org/2000/svg"><path fill="#222C3C" d="M0 0h56v56H0z"/><path fill-rule="evenodd" d="M28 44a16 16 0 1 0 0-32 16 16 0 0 0 0 32Zm9.72-5.93a14 14 0 1 0-21.17-2.02c1.54-2.84 5.18-7.5 9.69-7.2.25-.03.9-.16 1.48-.45-.14.22-.57.76-1.21 1.16.74 1.38 1.5 5.7-1.19 12.18a14.07 14.07 0 0 0 7.07-.44c.2-1.02.47-2.67.58-4.5.2-3.03 1.85-5.78 3.47-5.84 1.4-.05 2.28 3.7 1.28 7.11ZM21.5 22.21c-2.3 1.37-1.44 3.65-.71 4.63-.33-1.5.14-1.8.41-1.76h2.34c1.54-.11.82-.88.47-1.1a4.38 4.38 0 0 1-1.4-1.57c-.18-.46-.81-.32-1.1-.2Zm9.47 1.4c2.88 1.6 3.9 4.78 4.04 6.17 1.4-3.32-.04-5.5-.94-6.16.62 0 1.56.42 1.96.63a7.57 7.57 0 0 0-2.42-4.2c1.25-.23 1.82-.93 1.95-1.25-1.08.53-2.6.13-3.22-.13l-.14-.06c-.79-.32-2.13-.85-3.32-.88-1.28-.03-5.75.7-5.75 3.4 0 2.32 3.68 3.29 6.05 2.32 1.9-.77 2.9-.85 3.16-.8-1.03.4-1.35.81-1.37.97Zm-1.5-3.22c-.25.12-.94.29-1.78 0-1.05-.37-2.6-.18-2.6 1.17 0 .35.28 1.04 1.48 1.04 1.5 0 1.42-1.3 1.4-1.51.44 0 1.34-.13 1.5-.7Zm-2.95 1.7a.62.62 0 1 0 0-1.23.62.62 0 0 0 0 1.23Z" fill="#fff"/></svg>