<!-- by TradingView --><svg width="56" height="56" viewBox="0 0 56 56" xmlns="http://www.w3.org/2000/svg"><path fill="#F0F3FA" d="M0 0h56v56H0z"/><path d="M17.58 24.96c-.24.55-.58 1.1-1.07 1.57a5.34 5.34 0 0 1-3.71 1.52l5.09 5.11a5.5 5.5 0 0 1 1.52-3.72 5.58 5.58 0 0 1 1.56-1.07 5.75 5.75 0 0 1-3.4-3.41Z" fill="#FF8300"/><path d="M16.45 36.52a4.98 4.98 0 0 0 0-7.02 4.94 4.94 0 0 0-7 0 4.98 4.98 0 0 0 0 7.02 4.94 4.94 0 0 0 7 0Z" fill="#FF8300"/><path d="M26.48 19.45a4.98 4.98 0 0 1 0 7.03 4.94 4.94 0 0 1-7 0 4.98 4.98 0 0 1 0-7.03 4.94 4.94 0 0 1 7 0Z" fill="#53565A"/><path d="M46.55 19.45a4.94 4.94 0 0 0-8.44 3.36 5.5 5.5 0 0 1-1.52 3.72c-.47.47-1.02.84-1.57 1.08a5.7 5.7 0 0 1 3.43 3.43c.23-.58.57-1.1 1.07-1.57a5.34 5.34 0 0 1 3.7-1.52 4.87 4.87 0 0 0 3.35-1.44 5.03 5.03 0 0 0-.02-7.06Zm-1.73 5.3a2.53 2.53 0 0 1-3.55 0 2.54 2.54 0 0 1 1.78-4.33 2.48 2.48 0 0 1 2.5 2.52c.03.7-.23 1.34-.73 1.8Z" fill="#00A7CE"/><path d="M36.52 29.52a4.98 4.98 0 0 1 0 7.03 4.94 4.94 0 0 1-7 0 4.98 4.98 0 0 1 0-7.03 4.94 4.94 0 0 1 7 0Z" fill="#53565A"/><path d="M29.46 26.53a5.38 5.38 0 0 1-1.51-3.72l-5.12 5.11c1.36.08 2.66.47 3.7 1.52a5.38 5.38 0 0 1 1.52 3.72l5.1-5.1a5.33 5.33 0 0 1-3.69-1.53Z" fill="#53565A"/></svg>