<!-- by TradingView --><svg width="56" height="56" viewBox="0 0 56 56" xmlns="http://www.w3.org/2000/svg"><path fill="url(#a)" d="M0 0h56v56H0z"/><path d="m27.6 31 4.55-12.35C33.51 14.9 30.6 11 26.41 11c-2.53 0-4.79 1.5-5.68 3.74l-5.45 13.82c-1.05 2.66 1.02 5.44 4 5.44h3.74l-1.37 3.99c-.86 2.47 1.07 5.01 3.8 5.01h9.26c3.47 0 6.29-2.68 6.29-5.98 0-3.3-2.85-6.02-6.33-6.02h-7.06Zm-3.35 0h-4.79c-.93 0-1.58-.86-1.25-1.68l5.32-13.5a2.98 2.98 0 0 1 2.8-1.82c2.04 0 3.48 1.87 2.81 3.67L24.24 31Zm.67 7.36 1.5-4.36h8.16c1.77 0 3.2 1.34 3.2 3s-1.43 3-3.2 3H26.2c-.9 0-1.55-.83-1.28-1.64Z" fill="#FDFFFF"/><path d="M28.94 27.38 27.6 31h-3.36l1.41-3.89 3.28.27Zm-6.91 9.53 3.46-.1.92-2.81h-3.74l-.06.05h.41l-1 2.86Z" fill="url(#b)"/><defs><linearGradient id="a" x1="48.03" y1="0" x2="0" y2="37.94" gradientUnits="userSpaceOnUse"><stop stop-color="#2E535B"/><stop offset=".39" stop-color="#A26284"/><stop offset=".66" stop-color="#EA6DA5"/><stop offset="1" stop-color="#F38F5E"/></linearGradient><linearGradient id="b" x1="27.38" y1="27.36" x2="25.73" y2="36.87" gradientUnits="userSpaceOnUse"><stop stop-color="#FDFDFD"/><stop offset=".42" stop-color="#EA6DA7"/><stop offset=".72" stop-color="#EF74A2"/><stop offset="1" stop-color="#FFFDFF"/></linearGradient></defs></svg>