<!-- by TradingView --><svg width="56" height="56" viewBox="0 0 56 56" xmlns="http://www.w3.org/2000/svg"><path fill="#F0F3FA" d="M0 0h56v56H0z"/><path d="M26.83 12c1.77 0 3.48.3 5.07.84h-.1a14.13 14.13 0 0 0-14.05 14.2c0 7.86 6.3 14.22 14.06 14.22 1.83 0 3.58-.36 5.19-1A15.66 15.66 0 0 1 26.83 44 15.91 15.91 0 0 1 11 28c0-8.84 7.09-16 15.83-16Z" fill="url(#a)"/><path d="M22.2 33.2a12.8 12.8 0 0 1-1.2-3.86l.03.06c2.7 5.46 9.15 7.61 14.42 4.82 5.27-2.8 7.35-9.48 4.65-14.93A11.02 11.02 0 0 0 37.63 16c2.52 1.1 4.7 3.1 6.04 5.81 3.04 6.14.7 13.67-5.24 16.81A11.87 11.87 0 0 1 22.2 33.2Z" fill="url(#b)"/><path d="M35.92 30.77c-.56.49-1.17.9-1.8 1.23a8.19 8.19 0 0 0 .01-11.01 8.5 8.5 0 0 0-13.13.68 8.96 8.96 0 0 1 2.76-4.4 9.26 9.26 0 0 1 12.93.76 8.92 8.92 0 0 1-.77 12.74Z" fill="#69BF4A"/><path d="M31.75 20.87c.46.27.88.58 1.25.94a5.97 5.97 0 1 0-4.12 11.18 6.5 6.5 0 1 1 2.87-12.12Z" fill="#0686B9"/><defs><linearGradient id="a" x1="37" y1="28" x2="11" y2="28" gradientUnits="userSpaceOnUse"><stop stop-color="#57A1CC"/><stop offset=".68" stop-color="#006AA5"/></linearGradient><linearGradient id="b" x1="45" y1="28" x2="21" y2="28" gradientUnits="userSpaceOnUse"><stop stop-color="#4CBFE7"/><stop offset="1" stop-color="#1F85B6"/></linearGradient></defs></svg>