<!-- by TradingView --><svg width="56" height="56" viewBox="0 0 56 56" xmlns="http://www.w3.org/2000/svg"><path fill="#F0F3FA" d="M0 0h56v56H0z"/><path d="m20 39-9-9v9h9ZM17 17h-6v6l6-6Z" fill="#0C3D4D"/><path d="M25.13 30.32 18 22.79l2.38-2.9 4.75 5.22 8.3-8.11L37 39h-5l-.94-13.9-5.93 5.22Z" fill="url(#a)"/><path d="M26.44 17H20.5L11 26.26 24.06 39H30L16.94 26.26l9.5-9.26ZM42 17 32 39h5l10-22h-5Z" fill="#0C3D4D"/><defs><linearGradient id="a" x1="19.19" y1="20.47" x2="34.22" y2="36.48" gradientUnits="userSpaceOnUse"><stop stop-color="#FFE9AC"/><stop offset=".47" stop-color="#FFC92B"/></linearGradient></defs></svg>