<!-- by TradingView --><svg width="56" height="56" viewBox="0 0 56 56" xmlns="http://www.w3.org/2000/svg"><path fill="#F0F3FA" d="M0 0h56v56H0z"/><path d="M49.4 25c.78 0 1.4.3 1.88.89.48.6.72 1.47.72 2.64 0 1.66-.7 3.56-2.64 3.56-.34 0-.63-.04-.87-.14-.5-.18-.75-.48-.99-.83V35H46V25h1.15l.35 1c.45-.7 1.06-1 1.9-1Zm-.38 1.19c-1.14 0-1.5.7-1.52 2.14v.2c0 1.14.1 2.37 1.54 2.37.68 0 1.13-.4 1.35-1.12.11-.36.17-.78.17-1.27 0-.73-.13-1.3-.38-1.71-.25-.41-.64-.61-1.16-.61ZM44.3 26a5.27 5.27 0 0 1 .7.05l-.13.97a4.32 4.32 0 0 0-.62-.05c-.9 0-1.75.46-1.75 1.46V31H41v-5h1.08l.2.96h.06c.46-.62 1.2-.96 1.96-.96ZM40 28.5c0 2.04-2.42 2.5-4.03 2.5-1.57 0-3.97-.51-3.97-2.5 0-2.05 2.43-2.5 4.03-2.5 1.56 0 3.97.5 3.97 2.5Zm-6.5 0c0 1.25 1.4 1.66 2.5 1.66s2.5-.42 2.5-1.67c0-1.24-1.41-1.65-2.5-1.65-1.5 0-2.5.6-2.5 1.66ZM28.61 32C26.46 32 25 30.74 25 28.54c0-2.27 1.58-3.54 3.77-3.54a6.02 6.02 0 0 1 2.23.4l-.5 1.15c-.28-.1-.58-.18-.88-.25-.3-.07-.59-.1-.87-.1-1.41 0-2.25.98-2.25 2.3 0 1.27.84 2.3 2.2 2.3a4.52 4.52 0 0 0 2.12-.48v1.25c-.3.14-.62.25-.96.32-.34.07-.75.11-1.25.11ZM18 25h1.64l1.45 3.95a9.6 9.6 0 0 1 .41 1.54h.04a8.78 8.78 0 0 1 .45-1.54l1.4-3.95H25l-3.04 7.87c-.17.45-.39.84-.64 1.15-.25.33-.55.57-.9.73-.34.17-.74.25-1.18.25a3.6 3.6 0 0 1-.96-.1v-1.18a3.27 3.27 0 0 0 .76.08c.27 0 .5-.05.7-.16.2-.1.36-.25.5-.44.13-.19.25-.4.34-.65l.25-.65L18 25ZM13.5 22v6l2.7-3h1.63l-2.67 2.94L18 32h-1.66l-2.13-3.12-.71.72V32H12V22h1.5ZM10 29.22c0 .58-.14 1.07-.41 1.49-.27.42-.66.74-1.17.96-.5.22-1.1.33-1.8.33a7.73 7.73 0 0 1-1.87-.23 4.7 4.7 0 0 1-.75-.29v-1.5c.38.17.8.33 1.28.47.47.14.94.2 1.43.2.4 0 .73-.05.99-.15.26-.11.46-.27.59-.47.13-.2.2-.44.2-.71 0-.29-.08-.53-.23-.73-.15-.2-.38-.38-.68-.55-.3-.17-.68-.35-1.13-.54-.3-.13-.6-.27-.89-.44a3.62 3.62 0 0 1-.74-.58 2.5 2.5 0 0 1-.7-1.86c0-.55.12-1.02.37-1.4.26-.4.62-.7 1.08-.9.47-.22 1-.32 1.63-.32a5.77 5.77 0 0 1 2.67.61l-.5 1.29c-.38-.17-.75-.3-1.11-.4-.36-.1-.73-.14-1.1-.14a2 2 0 0 0-.83.15c-.23.1-.4.25-.52.43s-.18.4-.18.65c0 .29.07.53.2.72.14.2.35.37.63.53.29.16.66.34 1.1.53.52.22.96.46 1.32.7.36.24.64.54.83.88.2.34.29.76.29 1.27Z" fill="#2379A3"/></svg>