<!-- by TradingView --><svg width="56" height="56" viewBox="0 0 56 56" xmlns="http://www.w3.org/2000/svg"><path fill="#F0F3FA" d="M0 0h56v56H0z"/><path fill-rule="evenodd" d="M5 29v-4H4v4h1Zm1 0v-4h1.75c.33 0 .6.05.83.14.22.09.38.21.5.37a.9.9 0 0 1 .16.53c0 .16-.04.3-.11.42a.84.84 0 0 1-.29.27c-.12.08-.25.13-.4.16v.04a1.1 1.1 0 0 1 .83.46c.1.14.15.32.15.52s-.06.4-.18.56c-.11.16-.28.3-.52.39-.23.1-.52.14-.87.14H6Zm1-.6h.72c.3 0 .52-.06.65-.16.14-.1.2-.23.2-.39a.54.54 0 0 0-.1-.32.67.67 0 0 0-.28-.22 1.07 1.07 0 0 0-.45-.09H7v1.17Zm0-1.7h.65c.14 0 .27-.02.39-.07.11-.04.2-.11.27-.2.06-.08.1-.18.1-.3a.47.47 0 0 0-.19-.38c-.12-.1-.3-.15-.55-.15H7v1.1Zm4.13 2.3H12l.38-.99h1.72l.38.99h.89l-1.62-4h-1.02l-1.61 4Zm2.76-1.57-.62-1.61h-.04l-.61 1.61h1.27Zm5.8-1.06h-.84a.8.8 0 0 0-.13-.31.9.9 0 0 0-.24-.23c-.1-.07-.2-.12-.33-.15a1.48 1.48 0 0 0-1.05.11c-.2.1-.35.26-.45.47-.11.2-.17.45-.17.74 0 .3.06.55.17.75.1.2.26.36.45.46a1.55 1.55 0 0 0 1.04.1c.12-.02.23-.07.32-.13a.78.78 0 0 0 .38-.53h.84c-.03.2-.1.37-.2.53-.1.16-.24.3-.4.43-.17.12-.37.22-.59.29-.22.07-.47.1-.74.1-.4 0-.77-.08-1.08-.24a1.8 1.8 0 0 1-.75-.68c-.18-.3-.27-.66-.27-1.08 0-.42.09-.78.27-1.08.19-.3.44-.52.75-.68a2.64 2.64 0 0 1 1.78-.15c.23.06.42.15.6.27a1.51 1.51 0 0 1 .63 1Zm3.2 1.27h-.74l.62.69a1.54 1.54 0 0 1-1-.12c-.2-.1-.34-.26-.45-.46a1.6 1.6 0 0 1-.16-.75c0-.3.05-.55.16-.75.11-.2.26-.36.45-.46.2-.1.41-.16.66-.16.25 0 .47.06.66.16.19.1.34.26.45.46.1.2.16.45.16.75s-.06.54-.16.75c-.07.12-.15.23-.25.32l-.4-.43Zm.91.94c.18-.14.33-.3.46-.5a2 2 0 0 0 .27-1.08 2 2 0 0 0-.27-1.08c-.19-.3-.44-.52-.76-.68a2.37 2.37 0 0 0-1.07-.24c-.4 0-.76.08-1.08.24-.31.16-.56.38-.75.68-.18.3-.27.66-.27 1.08 0 .42.09.78.27 1.07.19.3.44.53.75.69.32.16.68.24 1.08.24.3 0 .59-.05.85-.14l.17.14h.8l-.45-.42ZM28 25h1v2.57c0 .98-1.12 1.43-1.98 1.43-.86 0-2.02-.44-2.02-1.43V25h1.02v2.51c0 .56.5.85 1 .85.53 0 .98-.28.98-.85V25Zm3 4v-4h-1v4h1Zm3.15-2.88a.5.5 0 0 0-.26-.39c-.15-.09-.35-.13-.6-.13-.17 0-.32.02-.44.06a.66.66 0 0 0-.29.18.4.4 0 0 0-.1.26c0 .08.02.15.07.21.04.06.1.11.18.16a3.08 3.08 0 0 0 .53.17l.43.09c.17.03.34.08.5.14.16.06.3.13.43.22s.23.2.3.32c.08.12.11.27.11.44 0 .23-.06.43-.2.6-.14.17-.34.3-.6.4-.25.1-.57.15-.93.15-.36 0-.67-.05-.93-.14-.26-.1-.46-.23-.61-.41a1.1 1.1 0 0 1-.24-.66h.82c0 .14.06.25.14.34.1.09.2.16.34.2.14.05.3.07.47.07.18 0 .34-.02.48-.07a.78.78 0 0 0 .32-.2.43.43 0 0 0 .12-.29c0-.1-.04-.18-.1-.25a.78.78 0 0 0-.3-.16 3.12 3.12 0 0 0-.43-.13l-.52-.1c-.37-.1-.67-.22-.9-.38a.8.8 0 0 1-.32-.67.9.9 0 0 1 .22-.6c.15-.18.35-.31.6-.4.26-.1.54-.15.86-.15.33 0 .61.05.86.14.24.1.44.23.58.4.14.17.2.36.21.58h-.8ZM37 29v-4h-1v4h1Zm.6-3.4V25h3.65v.6H40V29h-1v-3.4h-1.4ZM43 29v-4h-1v4h1Zm4.45-2a1.82 1.82 0 0 1-1.03 1.76c-.31.16-.67.24-1.07.24s-.76-.08-1.08-.24A1.85 1.85 0 0 1 43.25 27a1.83 1.83 0 0 1 1.03-1.76c.31-.16.67-.24 1.07-.24s.76.08 1.08.24c.31.16.56.38.75.68a2 2 0 0 1 .27 1.08Zm-.83 0c0-.3-.05-.54-.16-.75-.11-.2-.26-.36-.45-.46-.2-.1-.41-.16-.66-.16-.25 0-.47.06-.66.16-.19.1-.34.26-.45.46-.1.2-.16.45-.16.75s.05.55.16.75c.11.2.26.36.45.46.2.1.41.16.66.16.25 0 .47-.05.66-.16.2-.1.34-.26.45-.46.1-.2.16-.45.16-.75ZM52 25v4h-.78l-2.3-2.72h-.04V29H48v-4h.79l2.29 2.73h.04V25H52Z"/></svg>