<!-- by TradingView --><svg width="56" height="56" viewBox="0 0 56 56" xmlns="http://www.w3.org/2000/svg"><path fill="#F0F3FA" d="M0 0h56v56H0z"/><path d="M40 16.74V23c-.87-2.25-3.49-5-11.26-5-6.22 0-9.73 2.24-10.7 3.31-.35-.99-1.04-3.2-1.04-4.17 0-1.2 2.3-5.14 11.74-5.14 7.55 0 10.65 3.16 11.26 4.74Z" fill="url(#a)"/><path d="m25.76 39.13 1.18.7-1.65 1.1-1.02-.7 1.5-1.1ZM23.56 38.1l1.18.71-1.65 1.1-1.02-.7 1.5-1.1ZM22.78 41.25l1.17.7-1.65 1.1-1.02-.7 1.5-1.1ZM19.81 41.1l1.1.82-1.76.92-.94-.81 1.6-.94Z" fill="#008D45"/><path d="M17 24.02V17l.95 1.53c.37.97 3.11 3.7 11.1 6.86 8 3.16 10.63 6.15 10.95 7.26v1.77L38.33 37c-.7-.8-3.95-3.18-11.18-6.21-7.23-3.03-9.78-5.78-10.15-6.77Z" fill="url(#b)"/><path d="m21 35 1 1-1 1-1-1 1-1Z" fill="#008D45"/><path d="m17.22 40 .78 1.22-1.22.78-.78-1.22 1.22-.78ZM14.22 38l.78 1.22-1.22.78-.78-1.22 1.22-.78ZM19.22 34l.78 1.22-1.22.78-.78-1.22 1.22-.78ZM16.22 33l.78 1.22-1.22.78-.78-1.22 1.22-.78ZM14.22 35l.78 1.22-1.22.78-.78-1.22 1.22-.78ZM17.72 36 19 37.72 17.28 39 16 37.28 17.72 36Z" fill="#283582"/><path d="m20.6 37 1.39 1.5-1.81 1.26-.94-1.26L20.6 37Z" fill="#008D45"/><path d="M13 34c0 .55-.22 1-.5 1s-.5-.45-.5-1 .22-1 .5-1 .5.45.5 1ZM14.68 31.46c.4.46.43 1.08.06 1.38-.38.3-1 .17-1.42-.3-.4-.46-.43-1.08-.06-1.38.38-.3 1-.17 1.42.3ZM15.68 28.46c.4.46.43 1.08.06 1.38-.38.3-1 .17-1.42-.3-.4-.46-.43-1.08-.06-1.38.38-.3 1-.17 1.42.3Z" fill="#283582"/><circle cx="16.5" cy="31.5" r=".5" fill="#283582"/><circle cx="12.5" cy="28.5" r=".5" fill="#283582"/><circle cx="13.5" cy="26.5" r=".5" fill="#283582"/><path d="M40 39.36C39.4 40.91 36.32 44 28.83 44c-1.9 0-3.5-.16-4.85-.42l4.54-3.51-2.6-2.21c.9.1 1.87.16 2.91.16 7.7 0 10.3-2.59 11.17-4.8v6.14Z" fill="url(#c)"/><defs><linearGradient id="a" x1="40" y1="17.5" x2="17" y2="17.5" gradientUnits="userSpaceOnUse"><stop stop-color="#2C3F9B"/><stop offset=".65" stop-color="#3E9ED9"/></linearGradient><linearGradient id="b" x1="40" y1="27" x2="17" y2="27" gradientUnits="userSpaceOnUse"><stop stop-color="#1C337F"/><stop offset=".53" stop-color="#072645"/><stop offset="1" stop-color="#203783"/></linearGradient><linearGradient id="c" x1="40" y1="38.61" x2="23.98" y2="38.61" gradientUnits="userSpaceOnUse"><stop stop-color="#021F25"/><stop offset=".45" stop-color="#0F8C3E"/></linearGradient></defs></svg>