<!-- by TradingView --><svg width="56" height="56" viewBox="0 0 56 56" xmlns="http://www.w3.org/2000/svg"><path fill="#F0F3FA" d="M0 0h56v56H0z"/><path d="m19 32 15.9-19-5.73 14H37L21.1 46l5.61-14H19Z" fill="#FFCA00"/><path d="M34.92 14.39c3.6 1 6.6 1.51 8.08 1.67v.63C42.86 43.23 34.25 45.24 28 47c-1.66-.47-3.48-.95-5.27-1.9l1.34-1.56A20.5 20.5 0 0 0 28 45c2.97-.84 5.82-1.89 8.17-5.16 2.46-3.42 4.65-9.74 4.83-22a65.7 65.7 0 0 1-6.82-1.53l.74-1.92ZM28 12c1.76.74 3.52 1.36 5.2 1.88l-1.49 1.69c-1.21-.4-2.46-.84-3.71-1.34-5 2-10 3.12-13 3.62.18 12.25 2.37 18.57 4.83 22 .7.97 1.45 1.74 2.23 2.38l-.83 1.93c-4.36-3.13-8.14-9.96-8.23-27.47v-.63A60.29 60.29 0 0 0 28 12Z" fill="#00C4F6"/></svg>