<!-- by TradingView --><svg width="56" height="56" viewBox="0 0 56 56" xmlns="http://www.w3.org/2000/svg"><path fill="#F0F3FA" d="M0 0h56v56H0z"/><path fill="#268C43" d="M27 33h4v4h-4zM36 33h4v4h-4zM40 25h4v4h-4zM36 21h4v4h-4z"/><path fill="#98BFA4" d="M27 29h4v4h-4zM36 29h4v4h-4zM40 17h4v4h-4zM27 21h4v4h-4z"/><path fill="#268C43" d="M27 25h4v4h-4zM23 17h4v4h-4z"/><path fill="#61A86E" d="M19 25h4v4h-4zM36 25h4v4h-4zM11 29h4v4h-4z"/><path fill="#268C43" d="M19 29h4v4h-4zM12 21h4v4h-4zM11 25h4v4h-4z"/><path fill="#98BFA4" d="M15 17h4v4h-4zM11 33h4v4h-4zM19 21h4v4h-4z"/></svg>