<!-- by TradingView --><svg width="56" height="56" viewBox="0 0 56 56" xmlns="http://www.w3.org/2000/svg"><path fill="url(#a)" d="M0 0h56v56H0z"/><path d="M30.24 16.34c0 .03.03.06.07.07.04 0 .07 0 .1-.03l3.63-4.08c.1-.1.13-.08.12.05l-1.14 10.7a.19.19 0 0 1-.15.18 2.8 2.8 0 0 1-1.31.04.23.23 0 0 1-.18-.17l-3.14-9.92a.98.98 0 0 1 .04-.72l.58-1.28c.12-.25.2-.24.26.03l1.12 5.13ZM16.71 22.04l-3.1-5.32c-.02-.04-.02-.07 0-.1.04-.03.07-.04.1-.02l10.46 4.68c.04.02.06.06.05.1l-.58 1.91c-.01.05-.04.07-.08.07l-10.81-.13c-.02 0-.04 0-.06-.02l-1.66-1.43c-.03-.03-.04-.06-.02-.1.02-.04.05-.05.09-.05l5.53.54c.11 0 .14-.04.08-.13ZM43.7 20.37c.19-.08.29-.02.29.2v.27c0 .2-.1.3-.31.28a4.54 4.54 0 0 1-1.4-.34.2.2 0 0 1-.1-.09l-.15-.24a.17.17 0 0 1 .02-.2c.05-.07.12-.09.2-.06.66.26 1.14.32 1.44.18ZM42.28 26.53c.82.18 1.58.31 2.29.4.55.06.57.2.06.42L34.5 31.57c-.18.07-.31.02-.4-.15a1.2 1.2 0 0 1-.14-.58c0-.1.13-.24.37-.42l8.19-5.9a.36.36 0 0 1 .24-.07c.6.03 1.01.04 1.25.02.92-.07.98.14.19.64-.37.22-1.03.6-1.97 1.1-.26.15-.24.25.04.32ZM16.92 39.12c.08-.18.02-.24-.16-.16-.98.4-1.94.83-2.88 1.28-.08.04-.13.05-.15.03-.06-.08-.07-.17-.01-.26l6.06-9.99c.05-.08.12-.1.22-.06.41.2.77.45 1.06.74.07.07.09.15.05.25l-3.04 9.3c-.12.38-.35.66-.69.85l-1.37.78c-.32.18-.4.11-.25-.23l1.16-2.53ZM33.97 44.97l-7.6-8.69c-.05-.05-.05-.1.01-.13l1.15-.77c.04-.02.08-.02.11 0l8.37 6.16a.1.1 0 0 1 .04.06l.5 2.2c0 .04-.01.08-.05.1-.04.02-.07.02-.1-.01l-2.45-2.22c-.03-.03-.06-.04-.1-.02-.04.02-.05.05-.05.1l.33 3.15c0 .04-.02.07-.06.1-.04 0-.07 0-.1-.03Z" fill="#fff"/><defs><linearGradient id="a" x1="28" y1="0" x2="28" y2="56" gradientUnits="userSpaceOnUse"><stop stop-color="#051026"/><stop offset="1" stop-color="#09193B"/></linearGradient></defs></svg>