<!-- by TradingView --><svg width="56" height="56" viewBox="0 0 56 56" xmlns="http://www.w3.org/2000/svg"><path fill="#F0F3FA" d="M0 0h56v56H0z"/><path d="M45 28.07c0 3-2.1 4.1-4.78 5.12-3.32 1.27-5.65 2.2-6.98 2.8-3.1 1.37-6.6 3.67-10.52 6.88-2.31 1.91-6.04 1.34-7.27-1.28-1.27-2.7.21-5.6 3.92-6.52 5.64-1.39 10.97-2.47 14.47-6.35.14-.15.2-.36.2-.64s-.06-.5-.2-.64c-3.5-3.88-8.96-4.97-14.6-6.36-2.62-.64-4.2-2.76-4.24-4.84 0-.74.24-1.72.8-2.46 1.6-2.13 4.48-2.41 6.79-.5a48.4 48.4 0 0 0 10.65 6.89c1.33.6 3.66 1.52 6.98 2.8 2.68 1.01 4.78 2.11 4.78 5.1Z" fill="#F52945"/></svg>