<!-- by TradingView --><svg width="56" height="56" viewBox="0 0 56 56" xmlns="http://www.w3.org/2000/svg"><path fill="#F0F3FA" d="M0 0h56v56H0z"/><path d="M21.59 35.4c.19-.17.42-.28.67-.32a12.11 12.11 0 0 0 16.91.99 12.38 12.38 0 0 0 2.57-15.02 11.97 11.97 0 0 0-13.7-5.83c-5.66 1.64-9.15 6.75-8.78 12.86-.16.2-.4.28-.73.36-.3-2.25.03-4.55.95-6.63a12.66 12.66 0 0 1 16.07-7.04 12.85 12.85 0 0 1 7.05 6.3 13.1 13.1 0 0 1 .9 9.49 12.93 12.93 0 0 1-5.77 7.53 12.58 12.58 0 0 1-16.14-2.7Z" fill="#DF7B12"/><path d="m27.61 31.63 13.91-6.36c-1.24-5.76-5.75-9.38-10.65-8.96-5.62.48-9.7 4.68-9.9 10.2-.02.63 0 1.27.08 1.9l-.51.26-2.75 1.27c-2.4-1.27-4.67-1.28-6.83.35-1.14.86-2.12 2.8-1.8 3.8l4-1.77 2.21 1.69-.29 2.78L11 38.67a5.3 5.3 0 0 0 4.76 1.05A5.19 5.19 0 0 0 19.93 35l3.17-1.39a9.58 9.58 0 0 0 6.06 3.8c5.7 1 11.05-2.24 12.28-7.66h-3.85c-2.54 5.05-8.89 5.18-9.98 1.88Zm1.28-10.8c2.26-.79 4.62-.87 6.91 1.49l-10.95 4.63c.27-3.42 1.65-5.28 4.04-6.11Z" fill="#DF7B12"/><path d="M14.34 40c-1.2 0-2.34-.41-3.42-1.25l-.13-.1.15-.07 2.83-1.3 1.22-.56.28-2.66-2.12-1.62-3.3 1.46-.75.33-.03-.1c-.35-1.11.72-3.08 1.83-3.92 2.1-1.59 4.36-1.71 6.9-.39l2.7-1.24.44-.22c-.07-.6-.1-1.23-.08-1.84.2-5.58 4.3-9.82 10-10.3 5.02-.43 9.55 3.37 10.76 9.04l.02.08-13.9 6.34c.43 1.19 1.6 1.95 3.17 2.07a7 7 0 0 0 6.6-4.04l.02-.05h4.04l-.03.12c-1.23 5.43-6.56 8.76-12.4 7.74a9.69 9.69 0 0 1-6.08-3.78l-2.16.94-.89.39a5.26 5.26 0 0 1-4.24 4.75c-.47.12-.95.18-1.43.18Zm-3.16-1.3a5.17 5.17 0 0 0 4.54.92 5.08 5.08 0 0 0 4.1-4.64l.01-.05 1-.44 2.22-.97.07-.03.05.06a9.5 9.5 0 0 0 6 3.77c5.7 1 10.89-2.21 12.15-7.47h-3.67a7.21 7.21 0 0 1-6.75 4.1c-1.69-.12-2.95-.98-3.38-2.29l-.03-.09 13.92-6.35c-1.22-5.53-5.64-9.23-10.53-8.8-5.59.47-9.62 4.62-9.81 10.1-.02.63 0 1.26.08 1.89l.01.07-.57.28-2.8 1.28-.04-.02c-2.48-1.31-4.68-1.2-6.72.34-1.1.83-2 2.62-1.8 3.59l.55-.24c1.1-.5 2.22-.99 3.34-1.48l.06-.02.04.03 2.22 1.69.05.03-.31 2.9-1.32.6-2.68 1.23ZM24.74 27.1l.01-.16c.26-3.35 1.57-5.32 4.1-6.21 3.72-1.3 5.79.24 7.02 1.51l.1.1-11.23 4.76Zm4.18-6.18c-2.41.85-3.67 2.71-3.96 5.87l10.67-4.51c-1.9-1.9-3.98-2.32-6.7-1.36Z" fill="url(#a)"/><defs><linearGradient id="a" x1="9" y1="28.09" x2="41.64" y2="28.09" gradientUnits="userSpaceOnUse"><stop stop-color="#5F2600"/><stop offset="1" stop-color="#fff"/></linearGradient></defs></svg>