<!-- by TradingView --><svg width="56" height="56" viewBox="0 0 56 56" xmlns="http://www.w3.org/2000/svg"><path fill="#F0F3FA" d="M0 0h56v56H0z"/><path d="M11.13 33.25 9 37c4.62-2.25 11.37-1.13 17.05-.75 4.55.3 8.53-2.88 9.95-4.5-2.49.38-15.63-.75-19.54-.75-3.13 0-4.85 1.5-5.33 2.25Z" fill="url(#a)"/><path d="M16.46 31c3.74 0 15.95 1.03 19.16.79A13.6 13.6 0 0 1 28.18 34c-3.98 0-9.71-1.73-12.98-2.91.4-.06.81-.09 1.26-.09Z" fill="url(#b)"/><path d="M44.87 21.75 47 18c-4.62 2.25-11.37 1.13-17.05.75-4.55-.3-8.53 2.88-9.95 4.5 2.49-.38 15.63.75 19.54.75 3.13 0 4.85-1.5 5.33-2.25Z" fill="url(#c)"/><path d="M39.54 24c-3.74 0-15.95-1.03-19.16-.79A13.6 13.6 0 0 1 27.82 21c3.98 0 9.71 1.73 12.98 2.91-.4.06-.81.09-1.26.09Z" fill="url(#d)"/><path d="M17.35 25.67 13 30c.97-.33 3.91-1 7.98-1 5.07 0 7.25.67 11.23.67 3.2 0 5.44-.23 6.16-.34L42 25c-1.09.33-3.99 1-6.89 1-3.62 0-9.06-.67-11.96-.67-2.32 0-4.83.23-5.8.34Z" fill="url(#e)"/><defs><linearGradient id="a" x1="9" y1="34" x2="36" y2="34" gradientUnits="userSpaceOnUse"><stop stop-color="#018C4B"/><stop offset="1" stop-color="#A8BF39"/></linearGradient><linearGradient id="b" x1="15.2" y1="32.5" x2="35.62" y2="32.5" gradientUnits="userSpaceOnUse"><stop stop-color="#038846"/><stop offset="1" stop-color="#8BAF43"/></linearGradient><linearGradient id="c" x1="47" y1="21" x2="20" y2="21" gradientUnits="userSpaceOnUse"><stop stop-color="#1B458D"/><stop offset="1" stop-color="#1886C1"/></linearGradient><linearGradient id="d" x1="40.8" y1="22.5" x2="20.38" y2="22.5" gradientUnits="userSpaceOnUse"><stop stop-color="#0A4A91"/><stop offset="1" stop-color="#0D6AB2"/></linearGradient><linearGradient id="e" x1="13" y1="27.5" x2="42" y2="27.5" gradientUnits="userSpaceOnUse"><stop stop-color="#E5562A"/><stop offset="1" stop-color="#F3983B"/></linearGradient></defs></svg>