<!-- by TradingView --><svg width="56" height="56" viewBox="0 0 56 56" xmlns="http://www.w3.org/2000/svg"><path fill="#F0F3FA" d="M0 0h56v56H0z"/><path d="M39 16.5a18.19 18.19 0 0 0-3.49-2.5c1 0 1.97-.05 2.5.2.83.36 1 1.3 1 2.3Z" fill="#FCCE2F"/><path d="M29.79 13.06a.4.4 0 0 0 .04.35 7.63 7.63 0 0 0-6.08 5.16 2.69 2.69 0 0 0-1.68.14.29.29 0 0 1-.32-.06.28.28 0 0 1-.06-.3 8.12 8.12 0 0 1 4.7-4.27.16.16 0 0 0 .03-.15.16.16 0 0 0-.04-.06c-.03-.03-.07-.04-.13-.02a10.1 10.1 0 0 1 3.54-.79Z" fill="#027B2C"/><path d="M36 14.09c1.03.53 1.98 1.22 2.86 2.07l.77 1a7.58 7.58 0 0 1 1.05 3.01.26.26 0 0 0 .17.22l.3.11.1 1.47-.1.3c-.05.96-.33 1.67-.83 2.13l-1.15 1.49c-.17.25-.2.48-.08.66-.05 0-.1.04-.16.1a.34.34 0 0 0-.1-.21c-.05-.05-.12-.05-.2 0-.64.37-1.17.76-1.6 1.19l-1.97.45a.28.28 0 0 0-.16.1.27.27 0 0 0-.06.18c.03.57.42 1.19 1.16 1.87a2.94 2.94 0 0 1-.93-.55.1.1 0 0 0-.12.08.5.5 0 0 0 .01.28l-3.24 4.34a5.94 5.94 0 0 1-2.18 1.33.27.27 0 0 0-.18.2A6.92 6.92 0 0 1 27.9 39c-.62.7-1.44.82-2.46.36a2.24 2.24 0 0 1-.65-.3.24.24 0 0 0-.35.06c-.85 1.4-1.62 2.63-3.54 2.26a4.86 4.86 0 0 1-3.27-2.52c-.72-1.25-.54-2.33.55-3.24a.29.29 0 0 0 .1-.27c-.12-.65-.77-.9-.86-1.46-.24-1.49.72-1.99 1.72-2.84l.18.15c-.78.58-1.27 1-1.46 1.28-.53.74-.43 1.43.28 2.08.09.07.15.17.2.27.22.6.64.95 1.28 1.1a.33.33 0 0 0 .3-.08.28.28 0 0 0 .07-.13.26.26 0 0 0 0-.15.63.63 0 0 1 .02-.43.07.07 0 0 1 .07-.04.07.07 0 0 1 .06.05l-.1.53a.36.36 0 0 0 .07.28c.73 1 1.87.37 2.09-.66a.4.4 0 0 1 .17-.25l.87-.57c.16-.02.3 0 .4.05l-1.05.62a.55.55 0 0 0-.24.26l-.28.68a.33.33 0 0 1-.12.15c-.66.46-1.27.46-1.85.02a.36.36 0 0 0-.12-.07l-1.23-.32a.27.27 0 0 0-.15 0 .25.25 0 0 0-.12.1c-.28.38-.38.7-.29.93.33.89 1.03 1.7 2.1 2.44-.11.08-.24.07-.4-.04a5.5 5.5 0 0 1-1.73-2.13.13.13 0 0 0-.14-.08.13.13 0 0 0-.08.04.12.12 0 0 0-.03.08c0 .2.04.43.13.67-.26.02-.37-.18-.32-.6 0-.08.03-.14.06-.2.13-.23.2-.4.19-.54a.1.1 0 0 0-.08-.08.1.1 0 0 0-.1.04c-.76 1.3.08 2.3 1 3.43.06.09.15.17.25.23 1.14.76 2.04 1.14 3.39.83a.48.48 0 0 0 .3-.22c.22-.37.44-.59.66-.65a.3.3 0 0 0 .15-.1c.04-.04.06-.1.06-.15 0-.02.24-.34.72-.98a4.74 4.74 0 0 0 .87-3.8 4.5 4.5 0 0 0-.84-1.4.4.4 0 0 1-.08-.32c.16-.9-.06-1.75-.65-2.52a3.63 3.63 0 0 0-2.13-1.77l.24-.1c.77.32 1.5.88 2.17 1.68.16.38.36.8.6 1.26.14.29.19.77.14 1.44-.01.1.01.2.06.29a3.6 3.6 0 0 0 2.5 1.8c1.06.22 1.98.09 2.74-.38.16-.12.54-.35 1.13-.7.25-.14.44-.37.58-.67a.58.58 0 0 1 .1-.16 38.23 38.23 0 0 0 2.64-3.44c.2-.37.2-.88-.01-1.53a.28.28 0 0 0-.07-.1.3.3 0 0 0-.11-.08c-.15-.04-.25-.06-.3-.03-.05-.21-.15-.3-.3-.26l1.66-.42.05-.03a.11.11 0 0 0 .04-.1.11.11 0 0 0-.03-.05l-.15-.2c1.44-.26 2.4-.81 2.85-1.66 2.09-1.41 2.97-3.75 2.08-6.14a8.53 8.53 0 0 0-4.26-4.81c-1.5-1.23-3.5-1.66-6.01-1.29a.4.4 0 0 1-.04-.35c2.2-.21 4.27.13 6.2 1.03Z" fill="#01551D"/><path d="M35.84 14.7c-2.58-.85-4.78-.56-6.6.88a5.88 5.88 0 0 0-.66 8.71c2.47 2.61 6.24 2.87 9.44 1.36-.46.85-1.4 1.4-2.85 1.66-.77.18-1.6.3-2.48.38-2 .16-3.93-.16-5.76-.95a6.38 6.38 0 0 1-1.88-1.41 6.64 6.64 0 0 0-1.3-6.76 7.63 7.63 0 0 1 6.08-5.16c2.5-.37 4.5.06 6 1.29Z" fill="#6EB30B"/><path d="M26.02 14a13.56 13.56 0 0 0-5.99 7H16v-5c0-1.31.51-2 1.86-2h8.16Z" fill="#FCCE2F"/><path d="M35.84 14.7a8.53 8.53 0 0 1 4.26 4.81c.9 2.39 0 4.73-2.08 6.14-3.2 1.5-6.97 1.25-9.44-1.36a5.88 5.88 0 0 1 .66-8.71c1.83-1.44 4.02-1.73 6.6-.88Z" fill="#FBFCC9"/><path d="M39.76 23.35a4.47 4.47 0 0 1-2.43 2.22 7.49 7.49 0 0 1-7.4-.69 5.58 5.58 0 0 1-1.91-7.1 5.82 5.82 0 0 1 6.89-2.93 7.27 7.27 0 0 1 5.12 5.26 4.33 4.33 0 0 1-.27 3.24Z" fill="#013213"/><path d="M36.24 16.7c-.61 1.12-.14 2.84.45 3.87a3.79 3.79 0 0 1-2.24 1.27 5.85 5.85 0 0 0-.9-3.83c-.31-.53-1.06-1.42-1.72-1.04-1.28.7-.22 3.71.36 4.63-2.51-.03-3.66-2.16-2.88-4.32.54-1.5 2.27-2.1 3.81-2.12 1.37 0 2.41.5 3.12 1.55Z" fill="#003E09"/><path d="M36.69 20.57c-.6-1.03-1.06-2.75-.45-3.86.36-.29.71-.25 1.06.13 1 1.08 1.96 3.3 1.22 4.77a.5.5 0 0 1-.32.25.54.54 0 0 1-.42-.05 2.71 2.71 0 0 1-1.1-1.24ZM34.45 21.84c-.4 1.71-1.79.62-2.26-.24-.58-.92-1.64-3.93-.36-4.63.66-.38 1.4.51 1.73 1.04a5.85 5.85 0 0 1 .9 3.83Z" fill="#FCCE2F"/><path d="m41.16 20.5-.3-.1a.26.26 0 0 1-.18-.23 7.58 7.58 0 0 0-1.05-3.01c1.35.51 1.86 1.63 1.53 3.34ZM26.25 13.85c.06-.02.1-.01.13.02a.16.16 0 0 1 .05.14.16.16 0 0 1-.1.12 8.12 8.12 0 0 0-4.64 4.21.27.27 0 0 0 .06.31.29.29 0 0 0 .32.06 2.7 2.7 0 0 1 1.68-.14 6.64 6.64 0 0 1 1.3 6.76c-.48.4-1.03.68-1.65.81a.22.22 0 0 0-.15.32c.02.04.05.08.1.1.43.21.77.45 1 .7-1.17-.15-2.54.62-3.44 1.3a.16.16 0 0 0-.06.15.16.16 0 0 0 .12.13l.76.15-.24.1c-.5-.24-.93-.2-1.28.13-.38.35-.6.7-.64 1.04l.01.04.03.03h.08c1.36-.95 2.54-.15 3.54.9.18.55.81 1.73.22 2.15-.34-1.7-2.43-3.34-4.13-2.17l-.18-.15c-.1-1.87 1.8-3.2 3.32-3.83.3-.12.6-.13.85-.25a.14.14 0 0 0 .07-.1v-.06a.14.14 0 0 0-.04-.05l-.4-.4a2.18 2.18 0 0 1-1.78-1.1A7.42 7.42 0 0 1 20.03 21c1.1-3.03 3.06-5.5 5.65-6.96.18-.02.37-.08.57-.19Zm-4.06 5.36a.92.92 0 0 0-.65-.16c-.42.07-.76.5-.94 1.2-.18.69-.2 1.59-.03 2.5.08.45.2.89.35 1.29.15.4.33.76.54 1.05.2.3.42.52.64.66.22.14.44.2.65.16.42-.07.75-.5.93-1.2.19-.69.2-1.59.04-2.5a7.2 7.2 0 0 0-.35-1.29c-.16-.4-.34-.76-.54-1.05-.2-.3-.42-.52-.64-.66Z" fill="#013213"/><path d="M23.4 22.25c-.23-1.34-.91-2.34-1.52-2.24-.6.1-.9 1.27-.67 2.6.24 1.34.92 2.35 1.52 2.25.6-.1.9-1.27.67-2.61ZM41.86 21.79c.5-1.25 2.02-.8 2.55.14.05.08.12.16.21.2 1.03.56.94 1.23 1.24 2.09.39 1.08-.04 1.98-1.11 2.36a.26.26 0 0 0-.11.08.24.24 0 0 0-.06.11 3.5 3.5 0 0 1-1.54 2.4 10.5 10.5 0 0 1-4.01 1.53l-.2-.02c-.22-.13-.32-.26-.3-.4l3.17-.88a.21.21 0 0 0 .1-.07.2.2 0 0 0 .02-.24.21.21 0 0 0-.1-.08 5.74 5.74 0 0 1-2.8-2.37c.06-.05.12-.08.17-.09a5.08 5.08 0 0 0 2.66 2.24.97.97 0 0 0 .76-.04A3.48 3.48 0 0 0 44 27.5c.07-.12.1-.23.08-.32a.1.1 0 0 0-.08-.08.1.1 0 0 0-.1.04c-1.47 1.85-3.48.17-4.19-1.29a.2.2 0 0 0-.1-.1.2.2 0 0 0-.16.01l-.29.14 1.15-1.49-.03.27c-.09 1.28.75 2.03 2.51 2.25.1.01.2 0 .3-.02 1.35-.38 2.39-.53 2.74-1.86a.47.47 0 0 0-.04-.32l-.04-.1a10.5 10.5 0 0 1-.42-1.42c-.1-.4-.4-.7-.9-.86a.48.48 0 0 1-.27-.25c-.29-.59-.8-.85-1.52-.79a.47.47 0 0 0-.36.23l-.54.92-.04.03c-.16.07-.35 0-.55-.2l.08-.31c.12.09.24.12.36.08.11-.03.2-.12.26-.26Z" fill="#013213"/><path d="m35.17 27.31.15.2a.1.1 0 0 1 0 .15.11.11 0 0 1-.06.03l-1.66.42a18.64 18.64 0 0 1-7.09-.15.09.09 0 0 0-.06.05V28.18l.02.02.91.3c-.22.78-.46 1.56-.73 2.34-.4 1.14-.55 1.93-.46 2.35.22 1.05.99 1.69 2.3 1.91h.07l1.38-.02c-.76.47-1.68.6-2.75.38a3.6 3.6 0 0 1-2.49-1.8.47.47 0 0 1-.06-.29c.05-.67 0-1.15-.15-1.44-.23-.46-.43-.88-.59-1.26.7-.83 2.23-2.92.46-3.4a3.5 3.5 0 0 0-1.02-.71.22.22 0 0 1-.06-.35.23.23 0 0 1 .12-.07c.62-.13 1.17-.4 1.65-.81.7.7 1.32 1.17 1.88 1.4 1.83.8 3.75 1.12 5.76.96.88-.08 1.71-.2 2.48-.38Z" fill="#027B2C"/><path d="M21 25.87a8.1 8.1 0 0 1-2.17.05l-2.65.36a.06.06 0 0 1-.05-.01.06.06 0 0 1-.02-.04l-.02-.14a.1.1 0 0 1 .02-.09.11.11 0 0 1 .08-.04 28.4 28.4 0 0 0 2.86-.3 17.15 17.15 0 0 1 2 .14.05.05 0 0 1-.04.07Z" fill="#FCCE2F"/><path d="M39.1 26.55c-.13-.18-.1-.4.07-.66l.3-.14a.2.2 0 0 1 .25.1c.7 1.45 2.72 3.13 4.19 1.28a.1.1 0 0 1 .1-.03.1.1 0 0 1 .08.08c.02.08-.01.19-.09.31-.32.52-.82.94-1.5 1.27a.96.96 0 0 1-.75.03 5.08 5.08 0 0 1-2.66-2.24Z" fill="#6EB30B"/><path d="m22.94 26.36.4.4a.14.14 0 0 1 .04.12.14.14 0 0 1-.07.1c-.24.12-.54.13-.85.25-1.51.63-3.41 1.96-3.31 3.83-1.01.85-1.97 1.35-1.73 2.84.09.57.74.81.86 1.46a.28.28 0 0 1-.1.27c-1.09.91-1.27 2-.55 3.24a4.84 4.84 0 0 0-.77 3.78c0 .01-.01.03-.03.03a.08.08 0 0 1-.09 0c-.42-.28-.73-.68-.74-1.2v-14.6c0-.05.09-.09.12-.12a.2.2 0 0 1 .11-.06c2.04-.3 3.98-.38 5.83-.22.38.03.67 0 .88-.12Z" fill="#FCCE2F"/><path d="M38.93 26.64a5.74 5.74 0 0 0 2.8 2.37l.1.08a.2.2 0 0 1-.02.24.21.21 0 0 1-.11.07l-3.17.87c-.87-.04-1.4-.15-1.62-.32-.86-.73-.26-1.55.12-2.32.43-.43.96-.82 1.6-1.18.08-.06.15-.06.2-.01.05.04.08.11.1.2ZM24.36 27.26c1.77.49.23 2.58-.46 3.41A5.64 5.64 0 0 0 21.73 29l-.76-.15a.16.16 0 0 1-.12-.12.15.15 0 0 1 .06-.17c.9-.67 2.27-1.44 3.45-1.29Z" fill="#6EB30B"/><path d="M37.03 27.63c-.38.77-.98 1.59-.12 2.32.21.17.75.28 1.62.32-.02.15.08.28.3.4-1.2.19-2.14.04-2.83-.44-.74-.68-1.13-1.3-1.16-1.87 0-.06.02-.13.06-.18.04-.05.1-.08.16-.1l1.97-.45Z" fill="#027B2C"/><path d="M33.6 28.11c.15-.04.25.05.3.26l.17.42a.33.33 0 0 1-.04.3c-.81 1.2-4.66-.16-5.89-.67-.35-.14-.6-.12-.76.08l-.91-.3a.04.04 0 0 1-.03-.04v-.11a.09.09 0 0 1 .04-.07.09.09 0 0 1 .07-.02c2.35.5 4.7.55 7.05.15Z" fill="#013213"/><path d="M21.5 29.1c.99.34 1.7.93 2.12 1.76a.8.8 0 0 1-.39.38c-1-1.06-2.18-1.86-3.54-.91a.07.07 0 0 1-.08 0 .07.07 0 0 1-.04-.07c.05-.35.26-.7.64-1.04.35-.33.78-.37 1.28-.13Z" fill="#6EB30B"/><path d="M36 30.23c.7.48 1.64.63 2.83.45l.18.02c-.05.05-.01.14-.01.27v9.6c0 1.42-.5 2.43-2 2.43h-8.6c-.08 0-.12-.14-.05-.18 4.37-2.73 7.36-7.58 6.61-12.78a.5.5 0 0 1 0-.28.1.1 0 0 1 .06-.07.1.1 0 0 1 .1.02c.23.2.53.38.88.52Z" fill="#FCCE2F"/><path d="M27.38 28.5c.16-.2.41-.22.76-.08 1.23.5 5.08 1.87 5.9.68a.33.33 0 0 0 .03-.3l-.17-.43c.05-.02.15-.01.3.03a.3.3 0 0 1 .1.07c.04.03.06.07.08.1.21.66.22 1.17.01 1.54-.2.4-1.1 1.54-2.65 3.44a.58.58 0 0 0-.1.16c-.13.3-.32.53-.57.67-.59.35-.97.58-1.13.7l-1.38.03-.07-.01c-1.31-.22-2.08-.86-2.3-1.9-.09-.43.07-1.22.46-2.36.27-.78.51-1.56.73-2.34Zm4.27 2.14c-.48-.4-.83-.18-1.36-.12-.06.01-.15.18-.26.52a.15.15 0 0 1-.2.08.15.15 0 0 1-.07-.05l-.09-.15a.36.36 0 0 0-.14-.13.37.37 0 0 0-.18-.04c-.5.01-.86.22-1.05.61-.08.17-.01.34.2.5.47.34.73.6.77.8.02.08.07.13.16.13.08 0 .16-.03.26-.1a.3.3 0 0 1 .17-.07c.86-.06 1.51-.2 1.96-.44a4.32 4.32 0 0 0 .54-.67.13.13 0 0 0-.08-.14c-.4-.15-.67-.16-.83-.04l-.07.08-.03.01h-.05a.08.08 0 0 1-.06-.07c0-.1.13-.25.4-.47a.15.15 0 0 0 .06-.12.15.15 0 0 0-.05-.12Z" fill="#6EB30B"/><path d="M23.62 30.86c.6.77.81 1.61.65 2.52a.4.4 0 0 0 .08.32c.52.69.8 1.16.84 1.4a4.74 4.74 0 0 1-.87 3.8c-.48.64-.72.96-.72.98 0 .06-.02.11-.06.16a.3.3 0 0 1-.15.1c-.22.05-.44.27-.67.64a.46.46 0 0 1-.3.22c-1.34.31-2.24-.07-3.38-.83-.1-.06-.18-.14-.26-.23-.9-1.13-1.75-2.13-.99-3.43a.1.1 0 0 1 .1-.04.1.1 0 0 1 .05.03.1.1 0 0 1 .03.05c0 .13-.06.31-.19.53a.48.48 0 0 0-.06.2c-.05.43.06.63.32.6.33.4.56.92.95 1.18.3.21.61.3.9.25.16.1.29.12.4.04.56.4 1.05.38 1.49-.06 1.2-1.24 2.33-2.97 1.86-4.75a.64.64 0 0 0-.4-.05l.21-1.11c.6-.42-.04-1.6-.22-2.15a.8.8 0 0 0 .39-.37ZM18.45 34.13c0-.14-.01-.25-.05-.26-.04 0-.08.1-.1.25 0 .13.02.25.05.25.04 0 .08-.1.1-.24Z" fill="#027B2C"/><path d="M24.34 40.66c.03 1.07.6 1.56 1.71 1.46a4.89 4.89 0 0 0 2.17-.8 8.63 8.63 0 0 0 4.04-7.37.07.07 0 0 1 .05-.02h.1v.01c.07.87-.01 1.68-.23 2.44a8.68 8.68 0 0 1-4.6 5.53c-.67.34-1.4.47-2.22.4a.86.86 0 0 1-.36-.1c-.75-.44-1.05-.97-.89-1.58a.1.1 0 0 1 .05-.06.11.11 0 0 1 .07-.02.12.12 0 0 1 .1.11Z" fill="#FCCE2F"/><path d="M31.72 34.38a7.8 7.8 0 0 1-2.53 5.73c-.95.9-2.1 1.43-3.47 1.59a.84.84 0 0 1-.6-.16.81.81 0 0 1-.32-.52c-.09-.54.12-1.1.64-1.65 1.02.46 1.84.34 2.46-.36a6.92 6.92 0 0 0 1.46-3.1.26.26 0 0 1 .18-.2 5.93 5.93 0 0 0 2.18-1.33Z" fill="#FCCE2F"/><path d="M23.64 34.54c.47 1.78-.66 3.5-1.86 4.75-.44.44-.93.46-1.5.06a5.34 5.34 0 0 1-2.09-2.44c-.09-.24 0-.55.29-.94a.25.25 0 0 1 .12-.09c.05-.02.1-.02.15 0l1.23.32.12.07c.58.44 1.2.44 1.85-.02.05-.04.1-.1.12-.15l.28-.68c.05-.1.13-.2.24-.26l1.05-.62Z" fill="#6EB30B"/><path d="M19.9 39.31c-.3.05-.6-.04-.91-.25-.4-.26-.62-.79-.95-1.17-.1-.24-.14-.46-.13-.67 0-.03.01-.05.03-.08a.13.13 0 0 1 .07-.04.13.13 0 0 1 .15.08c.35.8.93 1.51 1.74 2.13Z" fill="#6EB30B"/></svg>