<!-- by TradingView --><svg width="56" height="56" viewBox="0 0 56 56" xmlns="http://www.w3.org/2000/svg"><path fill="#F0F3FA" d="M0 0h56v56H0z"/><path d="M30.46 16.06c-.27.32-.45.7-.53 1.14a16.38 16.38 0 0 0-13.66 5.31c-.1.12-.21.13-.32.03v-.01c-.16-.13-.17-.27-.04-.42 3.72-4.3 9-6.5 14.55-6.05Z" fill="#35A7DA"/><path d="M29.93 17.2c.08-.43.26-.82.53-1.14 3.6.33 6.81 1.66 9.63 3.98.27.23.44.42.49.6.17.56-.37 1.2-.94 1.02-.12-.03-.3-.15-.52-.35a16.14 16.14 0 0 0-9.2-4.1Z" fill="url(#a)"/><path d="M42.58 23.3h-.03c-1.65.58-3.38.27-5.18-.93a.2.2 0 0 1-.08-.1.22.22 0 0 1 0-.13v-.05c.04-.12.11-.16.22-.11a5.6 5.6 0 0 0 3.92.25l.01-.03a6.27 6.27 0 0 0-.71-4c-.06-.1-.04-.18.08-.23l.04-.02a.2.2 0 0 1 .23.06c1.36 1.72 1.86 3.47 1.5 5.25v.03Z" fill="#49BBE5"/><path d="M10.7 30.58a.03.03 0 0 0 0 .04.03.03 0 0 0 .02.02h3.82a.4.4 0 0 1 .33.16.43.43 0 0 1 .07.37l-.4 1.54a.4.4 0 0 1-.15.2.39.39 0 0 1-.23.09H7.4a.4.4 0 0 1-.32-.16.41.41 0 0 1-.07-.35c.18-.7.3-1.17.38-1.41.08-.28.2-.51.4-.74a5503 5503 0 0 1 4.42-5.01v-.01H9.34a.4.4 0 0 1-.32-.17.42.42 0 0 1-.07-.35l.4-1.52a.37.37 0 0 1 .13-.2.36.36 0 0 1 .22-.08h5.89a.4.4 0 0 1 .32.16.41.41 0 0 1 .07.36l-.3 1.17c-.04.16-.14.34-.3.52l-4.7 5.37Z" fill="#1A8ACB"/><path d="M45.15 31.06h-1.28a.08.08 0 0 0-.07.05l-.93 1.84a.09.09 0 0 1-.08.05h-2.17a.37.37 0 0 1-.18-.05.4.4 0 0 1-.14-.15.43.43 0 0 1-.02-.4c.42-.83 1.9-3.85 4.45-9.04.11-.24.3-.3.56-.32 1.12-.06 1.94-.05 2.46.01.16.02.24.15.25.38 0 .75-.01 3.8-.06 9.17 0 .1-.04.2-.11.28a.37.37 0 0 1-.27.12h-1.9c-.3 0-.45-.16-.45-.47v-1.4c0-.04-.02-.07-.06-.07Zm2.59 1.64.1-9.37a.1.1 0 0 0-.03-.07.09.09 0 0 0-.07-.02h-.18a.6.6 0 0 0-.11 0c-.03 0-.05.02-.05.02l-.1 9.5s.02.02.05.02a.6.6 0 0 0 .11.01h.2c.01 0 .04 0 .05-.02a.1.1 0 0 0 .03-.07Zm-3.18-4.31c.16-.35.35-.76.6-1.22.06-.15.08-.42.03-.82 0-.04-.01-.04-.03 0l-1.22 2.43c-.03.05-.01.08.04.08h1.17c.04 0 .06-.03.06-.07v-.27c0-.04-.01-.05-.05-.05h-.55c-.06 0-.07-.03-.05-.08Zm.61-.83-.31.62c-.03.06-.01.09.05.09h.24c.04 0 .06-.02.06-.07v-.62c0-.07-.01-.07-.04-.02Zm-2.36 4.27-.44.9c-.01.05 0 .07.03.07h.3c.04 0 .06-.03.08-.08a87.43 87.43 0 0 1 .79-1.62c.01-.05 0-.07-.03-.07h-.3c-.03 0-.06.03-.08.08a88 88 0 0 1-.35.72Z" fill="#8FC320"/><path d="M32 24.97a.04.04 0 0 1-.05.03h-2.08c-.04 0-.05-.02-.04-.05l.44-1.67a.38.38 0 0 1 .36-.28h1.42a.36.36 0 0 1 .29.14.36.36 0 0 1 .06.32l-.4 1.5Z" fill="#49BBE5"/><path d="M25.3 26.9c.47-.55 1.15-.96 1.74-.9.61.06 1.13.62 1.2 1.56.16 2-1.2 5.74-3.8 5.42a1.37 1.37 0 0 1-1.16-.92c-.02-.05-.04-.05-.06 0-.11.34-.08.92-.54.94h-.67c-.06 0-.12-.03-.17-.06a.38.38 0 0 1-.19-.43l2.18-8.24a.36.36 0 0 1 .35-.27h1.27c.52.02.48.36.37.75-.22.77-.4 1.48-.56 2.13-.01.05 0 .06.04.02Zm.48 2.83c.13-.42.46-1.52.18-1.82-.32-.36-.84 0-1.02.33-.11.23-.25.61-.41 1.15-.12.43-.45 1.53-.18 1.83.33.36.85 0 1.02-.33a7 7 0 0 0 .41-1.16Z" fill="#35A7DA"/><path d="M37.19 31.1c-.89 1.31-2.33 2.16-3.89 1.83a1.77 1.77 0 0 1-1.2-.9c-.72-1.23-.23-3 .53-4.13.89-1.31 2.33-2.16 3.88-1.83.53.11.93.41 1.21.9.72 1.23.23 3-.53 4.13Zm-2.93-1.75c-.13.43-.49 1.58-.2 1.9.32.37.86 0 1.04-.34.12-.24.27-.64.44-1.2.13-.44.48-1.58.2-1.9-.33-.37-.87-.01-1.05.33-.12.24-.27.64-.43 1.2Z" fill="#49BBE5"/><path d="M18.65 29.43c0 .05.02.06.04.01l1.73-3.26a.33.33 0 0 1 .3-.18h1.38a.38.38 0 0 1 .39.39c0 .06-.02.13-.05.19a6060.5 6060.5 0 0 1-3.9 6.92c-.16.3-.42.6-.78.93-.75.66-1.69.59-2.58.54-.4-.02-.54-.22-.44-.6l.3-1.14c.02-.04.04-.06.08-.05.59.1 1.28.06 1.53-.5.07-.14.1-.4.1-.75-.02-1.91-.02-3.74-.01-5.48 0-.3.15-.45.45-.45h1.08c.1 0 .2.04.27.11a.4.4 0 0 1 .11.28v3.04Z" fill="#2A9BD6"/><path d="m31.91 26.04-1.7 6.68a.38.38 0 0 1-.12.2.35.35 0 0 1-.22.08H28.5a.37.37 0 0 1-.17-.04.39.39 0 0 1-.14-.12.41.41 0 0 1-.06-.35l1.63-6.45.02-.03.03-.01h2.09a.03.03 0 0 1 .02.02v.02Z" fill="#49BBE5"/><defs><linearGradient id="a" x1="38.77" y1="19.24" x2="30.25" y2="19.24" gradientUnits="userSpaceOnUse"><stop stop-color="#49BBE5"/><stop offset="1" stop-color="#35A7DA"/></linearGradient></defs></svg>