<!-- by TradingView --><svg width="56" height="56" viewBox="0 0 56 56" xmlns="http://www.w3.org/2000/svg"><path fill="#22438A" d="M0 0h56v56H0z"/><path fill-rule="evenodd" d="m17 12 12.68 10H33V12h3v10h4.48c3.43.05 5.52 3.42 5.52 6.69 0 3.57-2.72 7.03-6.11 8.1C38.42 40.98 33.75 44 29 44h-4c-6 0-11-4.8-11-10.73V22h3V12Zm3 10h5.37L20 17.82V22Zm20 11.44c1.55-1.08 3-2.81 3-4.75 0-1.76-1.1-3.64-3-3.69v8.44ZM17 25h19.99v8.27C36.99 37.7 33.47 41 29 41h-4c-4.47 0-8-3.3-8-7.73V25Z" fill="#FDFEFF"/></svg>