<!-- by TradingView --><svg width="56" height="56" viewBox="0 0 56 56" xmlns="http://www.w3.org/2000/svg"><path fill="#F0F3FA" d="M0 0h56v56H0z"/><path d="m26.62 27-3.5 2.04c1.43 10.97-4.26 13.84-6.98 13.84-2.17 0-3.67-1.72-4.14-2.58a5.7 5.7 0 0 0 5.26 3.7c2.85 0 6.65-3 8.32-6.58A16.84 16.84 0 0 0 26.62 27Z" fill="#253370"/><path d="M35.95 13.28c.41 1.36-1.7 3.23-4.7 4.18-3.01.95-5.79.62-6.2-.74-.41-1.36 1.7-3.23 4.7-4.18 3.01-.95 5.79-.62 6.2.74Z" fill="#24AC4A"/><path d="M20.67 17 14 19.93c3.46 0 6.09 3.34 6.97 5.01 1.39.2 4.13-.02 4.03-2.6-.1-2.57-2.93-4.63-4.33-5.34Z" fill="#253370"/><path d="M42.43 16 47 21.53c-5.6.2-12.24.02-21.39 4.69-9.86 5.03-11.34 9.17-11.34 10.86 0 1.34.87 2.5 1.3 2.92-.86-.08-2.57-1.08-2.57-3.85 0-2.76 2.45-8.37 9.3-12.74 7.19-4.93 16.41-7 20.13-7.41Z" fill="#18A3DC"/></svg>