<!-- by TradingView --><svg width="56" height="56" viewBox="0 0 56 56" xmlns="http://www.w3.org/2000/svg"><path fill="#F0F3FA" d="M0 0h56v56H0z"/><path d="m43.73 38.4-.75-.2-1.12-.39-1.19-.7-.5-.46-.24-.13v-.13l-.12-.06-.63-.77-.62-.9-.8-1.35-.94-1.6-1-1.68-.38-.9v-.7l.06-.2.57-1.54.68-1.94.93-2.58 1.21-3.2.13-.65-.13-.2-.44-.12h-3.17l-.38.06-.25.13-.44.52-.38.96-.53 1.35-.68 1.94-.18.64-.13-.06-1-1.67-.8-1.29-.81-1.1-.44-.52-.69-.64-1.06-.84-.87-.52-1-.45-1.19-.32-1.12-.19h-1.19l-.92.13-1.31.39-1.31.52-.93.58-1.18.9-1.07 1.1-.74.9-.75 1.16-.68 1.35-.5 1.3-.44 1.6-.31 1.81v1.87l.24 1.55.38 1.22.5 1.1.69 1.17.62.83 1.13 1.17.86.77 1.19.77 1.43.7 1.25.4 1.3.25 1.13.13h1.25l.68-.06.68-.13 1.5-.4 1.18-.45.93-.52.93-.58 1-.77.75-.77.68-.77.62-.9.5-.84.5-.58.19.26.75 1.41.74 1.3.8 1.16 1.2 1.22.92.65 1 .52 1 .39.87.19h.93l.81-.19 1-.52.87-.58v-.13l-1.3-.12.03-.07ZM30.65 27.63l-.24.9-.81 1.8-.62 1.3-.81 1.35-.87 1.23-.68.83-.44.52-.63.71-.74.58-1.06.58-.93.26-.38.06h-1.25l-.74-.19-1-.52-.81-.64-.69-.77-.62-.97-.5-1.03-.38-1.04-.3-1.48-.13-1.48.06-1.67.19-1.48.37-1.75.5-1.48.63-1.35.74-1.23.57-.7.56-.65.38-.46.68-.58.87-.52.68-.25.25-.07h.87l.86.26.93.52.69.58.8.83.69.9.62.9.75 1.3.5.95.68 1.55.69 1.74.06.2v.45h.01Z" fill="#DC7F39"/></svg>