<!-- by TradingView --><svg width="56" height="56" viewBox="0 0 56 56" xmlns="http://www.w3.org/2000/svg"><path fill="#F0F3FA" d="M0 0h56v56H0z"/><path d="M28 28c9.58 0 18.03 3.18 23 8-5.49-3.98-13.75-6.5-23-6.5S10.49 32.01 5 36c4.97-4.82 13.41-8 23-8Z" fill="#D80007"/><path d="M33.8 36.77c.22 0 .38-.04.48-.1.15-.1.22-.27.22-.52v-4.3c0-.25-.07-.43-.22-.52-.09-.05-.25-.09-.49-.1V31H38v1.2h-.2c-.14-.8-.5-.9-1.26-.9-.23 0-.38.03-.45.09-.06.06-.09.17-.09.33v2.05c1.34 0 1.32-.15 1.45-.69h.2v1.6h-.2c0-.6-.29-.6-1.45-.6v2.07c0 .27.07.45.21.52.15.08.37.11.67.1V37h-3.09v-.23ZM29.24 36.77c.23 0 .4-.03.5-.09.18-.09.26-.27.26-.53v-4.3c0-.26-.08-.44-.24-.52-.1-.06-.27-.1-.52-.1V31h3.04v.23a1.4 1.4 0 0 0-.54.1c-.16.08-.24.26-.24.52v4.3c0 .25.07.41.2.5.13.08.32.12.58.12V37h-3.04v-.23ZM23 31h5.5v1.48h-.25c-.12-.9-.17-1-1.75-1v4.48c0 .33.06.55.17.65.12.11.36.16.73.16V37h-3.27v-.23c.35 0 .58-.05.7-.16.11-.1.17-.32.17-.65v-4.48c-1.53 0-1.67.1-1.75 1H23L23 31ZM22.04 35.57c.22.52.39.85.5 1 .1.14.26.21.46.2V37h-2.85v-.22a2 2 0 0 0 .56-.07c.1-.04.14-.13.14-.28 0-.07-.03-.17-.07-.31a5.32 5.32 0 0 0-.12-.3l-.35-.83h-1.73l-.37.98c-.08.22-.12.38-.12.49 0 .12.09.21.26.27.1.03.25.05.45.05V37H17v-.22c.21-.02.38-.11.51-.29.09-.1.2-.35.36-.73L19.64 31h.58l1.82 4.57Zm-2.65-2.64-.66 1.67h1.42l-.69-1.67h-.07ZM28 14c7.18 0 13 5.72 13 12.77 0 1.12-.15 2.2-.42 3.24l-.4-.13c.27-1 .41-2.04.41-3.11 0-6.83-5.64-12.37-12.59-12.37s-12.6 5.54-12.6 12.37c0 1.07.15 2.12.41 3.11l-.39.13a12.57 12.57 0 0 1-.42-3.24C15 19.72 20.82 14 28 14Z" fill="#D80007"/><path d="m31.7 28.23-3-.17c-.02-.36-.13-.52-.32-.49a.16.16 0 0 0-.07.03l-.27.2a.16.16 0 0 1-.23-.05.16.16 0 0 1-.03-.07c-.03-.42-.2-.73-.5-.94-.27-.18-.4-.42-.58-.63a.14.14 0 0 0-.14-.04l-.68.2a.37.37 0 0 0-.17.1l-1.8 1.9-1.16.11c-.25-.8-.58-1.39-.46-2.13.02-.1.01-.16-.01-.2a.09.09 0 0 0-.16.01.48.48 0 0 1-.12.2.19.19 0 0 1-.2.01l-.19-.1a.1.1 0 0 1-.05-.07.1.1 0 0 1 .02-.09l.1-.1a.1.1 0 0 0-.01-.13.1.1 0 0 0-.05-.03l-.07-.01a.16.16 0 0 1-.1-.06l-.52-.65a.06.06 0 0 0-.07-.02c-.28.05-.5.03-.66-.07a.24.24 0 0 0-.15-.04c-.42.06-.66-.1-.72-.46a.11.11 0 0 0-.09-.09h-.05c-.66.12-.63-.62-.72-1.03a.13.13 0 0 0-.1-.1.13.13 0 0 0-.12.04l-.04.04a.38.38 0 0 0-.1.35c.07.29.08.59.03.91a.1.1 0 0 0 .01.06l.03.04a.05.05 0 0 0 .07 0l.01-.02.01-.05a.05.05 0 0 1 .09 0c.04.08.04.16.01.25a.15.15 0 0 0 0 .1l.04.07c.02.02.05.04.08.04a.2.2 0 0 0 .1 0c.19-.04.32-.15.4-.32l.03-.03a.06.06 0 0 1 .08.04c.05.27.2.53.44.76a.27.27 0 0 1 .06.28.26.26 0 0 1-.05.1c-.18.18-.35.4-.5.65a.73.73 0 0 1-.55.38.29.29 0 0 0-.18.1c-.31.35-.72.56-1.22.64a.17.17 0 0 1-.17-.09.17.17 0 0 1-.02-.07l-.01-.73c0-.1-.02-.19-.04-.28l-.14-.66c-.14-.64-.07-1.2-.1-2.33 0-.06.02-.15.06-.27.04-.12.04-.2.01-.27a.1.1 0 0 0-.1-.05.1.1 0 0 0-.08.08c-.14.87-.19 1.8-.15 2.79.02.57.13 1.07.33 1.5.13.29.12.78.35 1.04a.2.2 0 0 0 .16.07c.39 0 .64-.04.75-.11a.06.06 0 0 1 .07 0 .06.06 0 0 1 .03.05c.02.38-.12.65-.18 1.03l-1.95.56a.1.1 0 0 1-.08-.01.1.1 0 0 1-.05-.06 12.38 12.38 0 0 1 4.57-12.94c.59-.46 1.17-.8 1.75-1.03.36-.08.69-.1.99-.06.1.01.2.01.27-.01.09-.03.16 0 .22.1a.12.12 0 0 0 .21-.02c.1-.25.22-.39.39-.4a.07.07 0 0 1 .06.02.07.07 0 0 1 .02.07c-.02.04-.02.07 0 .1a.1.1 0 0 0 .05.03.1.1 0 0 0 .06 0c.35-.16.58-.24.7-.24.06 0 .13-.03.17-.08.12-.1.33-.14.63-.09a.12.12 0 0 0 .14-.16.12.12 0 0 0-.06-.06l-.2-.11v-.02l-.02-.02a.05.05 0 0 1 .01-.04l.04-.04a.04.04 0 0 1 .05 0l.45.4a.16.16 0 0 0 .13.03h.13c.07.03.1.08.07.16a.56.56 0 0 0-.03.09c0 .03.02.07.05.1.02.02.06.03.1.03l.97.04c.05 0 .1.02.14.06.3.26.65.27 1.05.02a.2.2 0 0 1 .12-.03l1.82.18h.05c.37-.02.61-.06.73-.1.2-.05.4-.06.61-.02a9.13 9.13 0 0 0 1.48.14.06.06 0 0 1 .02.05v.05l-.02.02h-.39a.12.12 0 0 0-.12.1v.05l.01.04.03.02.63.19a.07.07 0 0 1 .05.04.07.07 0 0 1-.02.07c-.08.08-.08.16 0 .25a.04.04 0 0 1-.01.07h-.02a.38.38 0 0 0-.24.04.2.2 0 0 0 0 .35l.61.3c.06.02.11.06.15.11l.58.71a.05.05 0 0 1 0 .06.05.05 0 0 1-.06.01c-.5-.23-.95-.5-1.34-.8a.34.34 0 0 1-.09-.1l-.4-.74a.13.13 0 0 0-.14-.07.13.13 0 0 0-.11.1l-.01.04-.03.03a.06.06 0 0 1-.04.01l-.27-.02a.06.06 0 0 0-.06.06V17l.17.29v.04a.07.07 0 0 1-.04.06h-.04c-.14-.06-.44-.04-.92.07a.15.15 0 0 0-.08.05.15.15 0 0 0-.04.1v.54a.17.17 0 0 0 .08.15c.21.14.41.17.6.1a.28.28 0 0 1 .28.03l.8.63.1.1c.28.37.4.8.38 1.26a.17.17 0 0 1-.1.13c-.04.02-.1.02-.2 0h-.08a.1.1 0 0 0-.05.06c-.07.19-.05.33.05.45a.1.1 0 0 1 .03.07.1.1 0 0 1-.03.07l-.1.12a.11.11 0 0 0-.03.1.1.1 0 0 0 .05.07l.76.45.02.01.15.19a.13.13 0 0 1 0 .16l-.18.2a.1.1 0 0 1-.04.03h-.05a.1.1 0 0 1-.08-.05 1.44 1.44 0 0 0-.74-.68.33.33 0 0 1-.14-.11.94.94 0 0 0-.25-.25c-.12-.07-.23-.04-.32.1a.11.11 0 0 1-.1.05.11.11 0 0 1-.1-.05l-.15-.27a.12.12 0 0 0-.12-.06.12.12 0 0 0-.1.08.53.53 0 0 1-.37.37.08.08 0 0 0-.06.05.08.08 0 0 0 .02.08c.24.27.58.34 1 .2a.11.11 0 0 1 .14.06.11.11 0 0 1-.03.15.86.86 0 0 0-.24.34.12.12 0 0 0 0 .08c0 .03.02.05.05.07.24.14.57.53.91.78.05.03.06.1.03.21a.08.08 0 0 0 .01.08.1.1 0 0 0 .08.04h.08a.13.13 0 0 1 .1.13l-.12 1.2c-.02.1-.15.28-.4.53a.34.34 0 0 1-.15.08l-.8.23a.3.3 0 0 0-.15.1l-.23.25a.1.1 0 0 1-.15 0c-.17-.22-.4-.23-.67-.03-.18.13-.28.24-.3.34a.6.6 0 0 0 .28.62c.4.24.69.56.87.97Z" fill="#D80007"/><path d="M24.3 14.92c.08.12.07.2-.01.22a3.65 3.65 0 0 0-1.06.42.08.08 0 0 1-.07-.02l-.01-.03c-.03-.09-.01-.14.05-.16l1.1-.43ZM33.89 19.36l.43.24a.03.03 0 0 1 .02.02v.02l-.03.06a.05.05 0 0 1-.04.02.05.05 0 0 1-.04-.01l-1.39-1.2v-.01l.03-.04h.03c.17.21.44.38.8.52.11.05.16.13.13.25a.12.12 0 0 0 .06.13ZM34.63 19.98c.21.15.38.22.5.2a.14.14 0 0 1 .15.1l.01.05v.05a.08.08 0 0 1-.02.06.08.08 0 0 1-.06.02.61.61 0 0 0-.37.07.08.08 0 0 1-.08 0 .07.07 0 0 1-.04-.06.8.8 0 0 0-.15-.44v-.02l.01-.02a.04.04 0 0 1 .05-.01ZM35.18 20.93a.07.07 0 0 1 0-.08.07.07 0 0 1 .07-.03c.38.09.58.64.8 1a.2.2 0 0 1-.1.3c-.17.05-.28.14-.32.25a.06.06 0 0 1-.04.04.06.06 0 0 1-.06-.01.25.25 0 0 0-.27-.06c-.16.07-.3.11-.4.12a.08.08 0 0 1-.08-.05.08.08 0 0 1 .03-.09c.38-.23.69-.38.74-.82a.23.23 0 0 0-.05-.17l-.32-.4ZM35.36 27.96c-.08.06-.21.08-.38.04-.2-.05-.4-.2-.59-.45a.1.1 0 0 1-.02-.08l.07-.69a.07.07 0 0 1 .04-.05.07.07 0 0 1 .08.01c.24.22.3.45.2.69a.19.19 0 0 0 0 .16c.1.21.28.3.56.27a.06.06 0 0 1 .06.03v.04c0 .01 0 .02-.02.03Z" fill="#D80007"/></svg>