<!-- by TradingView --><svg width="56" height="56" viewBox="0 0 56 56" xmlns="http://www.w3.org/2000/svg"><path fill="#B4005A" d="M0 0h56v56H0z"/><path d="m27.5 29.22-.82-.28-3.04 3.01h-.77l3.24-3.34-.66-.5-1.08 1.08-2.39 2.44c-.26.28-.54.49-.94.3L21 18h14v13.95h-8.05l2.4-2.6H28.3l-2.77 2.6h-.65l2.63-2.73Zm7.35-4.48c-.13-.1-.28-.2-.43-.26a1.38 1.38 0 0 0-1.43.42c-.64.66-1.3 1.3-1.95 1.94a3.28 3.28 0 0 1-4.68-.02c-.55-.6-1.14-1.14-1.72-1.7-.71-.7-1.43-1.38-2.13-2.05-.37.05-.7-.07-1.06.12 1.59 1.55 3.1 3.06 4.64 4.52a4.08 4.08 0 0 0 5.38-.13c.79-.75 1.54-1.52 2.31-2.28l.65-.08.42-.48ZM23.3 23.1c1.34 1.34 2.53 2.54 3.74 3.71.23.2.5.34.8.42a2.7 2.7 0 0 0 2.82-.69l2.13-2.1c.11-.12.25-.22.38-.33l.53.05.38-.58c-.78-.43-1.15-.41-1.7.08-.31.28-.59.6-.89.89-.54.52-1.06 1.05-1.63 1.54a1.92 1.92 0 0 1-2.55-.14l-1-1.01-1.84-1.84H23.3Zm1.84 0c.96.96 1.8 1.84 2.68 2.66a1.28 1.28 0 0 0 1.55.14 1.01 1.01 0 0 0 .65-1.12l-.64-.23c-.2.4-.38.77-.99.63l-2.09-2.07h-1.16ZM37 34.57V34h-5.46v.57H34V37h.54v-2.43H37Zm-6.4.02V34h-4.4c-.07 0-.14 0-.21.02a.77.77 0 0 0-.4.22.87.87 0 0 0-.22.41.87.87 0 0 0 0 .46c.04.15.13.29.24.4.16.15.38.24.6.23a9115.42 9115.42 0 0 1 3.8 0 .3.3 0 0 1 .18.08c.05.04.08.1.1.16.02.07.02.13 0 .2a.32.32 0 0 1-.1.16.34.34 0 0 1-.25.09H25.7V37H30c.12 0 .24-.03.36-.09a.83.83 0 0 0 .3-.22c.09-.1.15-.22.19-.35a.96.96 0 0 0-.13-.77.91.91 0 0 0-.33-.31.84.84 0 0 0-.43-.1h-3.8a.27.27 0 0 1-.16-.07.3.3 0 0 1-.1-.16.3.3 0 0 1 .04-.2c.03-.05.08-.1.14-.11l.15-.03h4.37Zm-8.16 1.1h-1.4a.28.28 0 0 1-.16-.05l-1.76-1.15a.27.27 0 0 1-.11-.17.26.26 0 0 1 .11-.27.28.28 0 0 1 .31 0l1.69 1.1h1.24l1.57-1.08a.28.28 0 0 1 .31 0 .27.27 0 0 1 .12.16.26.26 0 0 1-.1.28l-1.66 1.12a.28.28 0 0 1-.16.05Zm-.26.9c0 .23-.19.41-.42.41a.42.42 0 0 1-.43-.41c0-.23.19-.42.43-.42.23 0 .42.19.42.42Z" fill="#fff"/><path d="M42 42H14V14h28v28Zm-27.52-.48h27.04V14.48H14.48v27.04Z" fill="#fff"/></svg>