<!-- by TradingView --><svg width="56" height="56" viewBox="0 0 56 56" xmlns="http://www.w3.org/2000/svg"><path fill="url(#a)" d="M0 0h56v56H0z"/><path d="M18.98 31.97a.08.08 0 0 1-.07.03c-1-.12-1.94-.36-2.83-.73-.95-.4-1.75-.91-2.4-1.53a5.31 5.31 0 0 1-1.46-2.35 5.98 5.98 0 0 1 0-3.18c.14-.6.48-1.32 1.01-2.16.9-1.43 2.43-3.6 4.6-6.5l1.58-2.15c.14-.2.3-.32.46-.38.2-.06.37.01.48.23.07.12.08.24.03.35a42.86 42.86 0 0 0-1.89 5.21 9.82 9.82 0 0 0-.49 2.9c.02.6.22 1.1.6 1.48.36.36.83.58 1.41.65.45.06.93.06 1.46 0 .03 0 .05.01.06.03.02.03.02.05 0 .07a.8.8 0 0 1-.17.26 7.46 7.46 0 0 0-1.78 2.69A8.92 8.92 0 0 0 19 30.1v1.83l-.02.03ZM37.08 32.1l-.01-.02H37v-1.83a9 9 0 0 0-.51-3.22 7.46 7.46 0 0 0-1.77-2.69.8.8 0 0 1-.17-.26.07.07 0 0 1 0-.06c.02-.03.04-.04.06-.03.52.05 1 .05 1.45 0a2.3 2.3 0 0 0 1.4-.66c.37-.38.57-.88.59-1.49.02-.72-.14-1.69-.49-2.9-.5-1.76-1.13-3.5-1.87-5.2a.38.38 0 0 1 .02-.35c.12-.22.28-.3.48-.23.17.05.32.18.46.38l1.57 2.14a114.4 114.4 0 0 1 4.56 6.5c.53.85.86 1.57 1 2.16a6.03 6.03 0 0 1 0 3.19 5.32 5.32 0 0 1-1.44 2.34 7.67 7.67 0 0 1-2.38 1.53c-.88.37-1.81.62-2.8.74-.03 0-.06 0-.08-.03ZM25.48 23.45a7.87 7.87 0 0 1 5.73.19 6.04 6.04 0 0 1 3.78 5.67 399.89 399.89 0 0 1 .01 3.05c0 .46-.02.78-.07.96a.85.85 0 0 1-.55.59c-.1.04-.35.09-.78.09h-9c-.03 0-.04-.02-.04 0v1.75c0 .56.31 1.06.73 1.5a4.11 4.11 0 0 0 5.93-.3l.22-.27a.07.07 0 0 1 .08-.02c.12.04 1.09.6 2.9 1.7.15.1.18.21.1.35a6.73 6.73 0 0 1-3.71 2.85c-1.8.6-3.61.59-5.43-.03a6.61 6.61 0 0 1-3.13-2.12 5.63 5.63 0 0 1-1.24-3.6L21 31.03c0-1.54.03-2.5.1-2.87a5.72 5.72 0 0 1 1.53-2.98 6.96 6.96 0 0 1 2.85-1.74ZM27.86 27c-.93 0-1.72.27-2.38.81-.65.54-.98 1.2-.98 1.96v1.06c0 .11.06.17.17.17l6.66-.01c.11 0 .17-.06.17-.18v-1.06c0-.76-.33-1.4-1-1.95a3.64 3.64 0 0 0-2.37-.8h-.27Z" fill="#fff"/><defs><linearGradient id="a" x1="6.17" y1="10.6" x2="45.4" y2="50.7" gradientUnits="userSpaceOnUse"><stop stop-color="#17C83C"/><stop offset="1" stop-color="#4BE38D"/></linearGradient></defs></svg>