<!-- by TradingView --><svg width="56" height="56" viewBox="0 0 56 56" xmlns="http://www.w3.org/2000/svg"><path fill="#F0F3FA" d="M0 0h56v56H0z"/><path fill-rule="evenodd" d="M5 28h2.03v-.3H6.6l.54-1.94h.8l.1.54h.35l.41-1.44h-.37l-.42.44h-.74l.49-1.78H8.8c.12.03.37.23.37.77h.4l.4-1.29h-.12l-.2.14H6.28l-.07.3h.3c.07.02.2.1.09.25l-1.12 4.02H5V28Zm6.25-3.3.06-.2H9.85l-.06.2.35.1-.77 2.77-.38.24-.09.19h1.4l.06-.25-.2-.18.78-2.76.31-.11Zm1.52.12h1.02l.11.54h.3l.26-.98h-.12l-.19.12h-2.5l-.02.16-.01.05.34.1-.77 2.76-.37.24-.1.19h1.4l.06-.25-.2-.18.35-1.23h.72l.12.37h.2l.2-.93h-.25l-.27.33h-.65l.37-1.3Zm1.5.53h.28c.1-.18.32-.55.52-.55h.42l.07.02-.77 2.75-.37.24-.1.19h1.4l.06-.25-.2-.18.79-2.75.06-.02h.48a.6.6 0 0 1 .2.55h.3l.2-.96h-.1l-.13.11h-2.76v-.11h-.11l-.24.96Zm19.72.01h-.28l.24-.96h.11v.1h2.77l.12-.1h.1l-.19.96h-.3a.6.6 0 0 0-.2-.55h-.48l-.07.02-.78 2.74.2.18-.06.25h-1.4l.09-.19.38-.24.76-2.74-.07-.02h-.42c-.2 0-.42.37-.52.55Zm11.68 0h.28c.09-.18.32-.55.52-.55h.42l.07.02-.77 2.74-.38.24-.09.19h1.4l.06-.25-.2-.18.79-2.74.06-.02h.48a.6.6 0 0 1 .2.55h.3l.19-.96h-.1l-.12.1h-2.76v-.1h-.11l-.24.96Zm-26.48-.86-.06.2-.31.1-.35 1.25h1.43l.34-1.24-.34-.11.06-.2h1.46l-.06.2-.3.1-.8 2.77.2.18-.05.25h-1.4l.09-.2.38-.23.36-1.32h-1.43l-.38 1.32.2.18-.05.25h-1.4l.09-.2.37-.23.77-2.76-.34-.11.06-.2h1.46Zm11.29.2.05-.2h-1.46l-.05.2.34.1-.77 2.77-.38.24-.09.19h1.4l.06-.25-.2-.18.79-2.76.3-.11Zm11.6-.2-.06.2-.31.1-.79 2.77.2.18-.05.25h-2.4l-.56-1.58h-.23l-.38 1.2.3.24V28h-1.53l.08-.23.42-.22.77-2.83h-.3v-.22h1.86c.77 0 .96.49.95.73-.05.65-.74.98-1.3 1.12.14.05.23.15.26.2l.51 1.25h.21v.06l.03-.05.37-.24.77-2.76-.34-.11.06-.2h1.46Zm-18.74 3.2-.09.3h2.45c.9-.02 2.71-.66 2.71-3.09 0-.63-.32-1.91-1.5-1.91h-2.46l-.09.28h.49l-1.2 4.42h-.31Zm2.54-4.34-1.06 4.3h.7c.6-.11 1.81-.9 1.81-3.07 0-.97-.47-1.23-.71-1.23h-.74Zm4.3 4.48.3-.88h.2c.03.26.23.79.84.79.76 0 .92-.67.37-1.04l-.04-.03c-.53-.35-.97-.64-.97-1.23 0-.6.63-.95 1.36-.95.34 0 .47.1.58.18.12.1.2.15.52-.03h.23l-.28.85h-.23c-.04-.24-.24-.7-.72-.7-.6 0-.73.67-.18 1l.1.06c.5.3.89.53.89 1.13 0 .65-.59 1.01-1.63 1.01-.3 0-.44-.1-.55-.2-.07-.05-.14-.1-.23-.1-.19 0-.28.1-.3.14h-.26Zm7.87-1.75.36-1.35h.35c.14.01.43.11.43.48 0 .62-.52.84-.78.87h-.36Zm6.7 1.05.28.24c-.15.2-.7.62-1.63.62-1.16 0-1.27-1.1-1.27-1.48 0-.4.46-2.02 2.11-2.02.42 0 .58.11.7.19.07.05.12.08.2.08.18 0 .22-.1.22-.16h.24l-.32 1h-.31c.03-.27-.06-.84-.62-.84-.7 0-1.37.99-1.37 2.15 0 .56.29.76.64.75.39 0 .85-.25 1.13-.53ZM18.22 31.4h.19l.15-.14c.08.08.33.24.67.24.43 0 .95-.26.95-.74 0-.45-.47-.76-.67-.89l-.04-.02c-.16-.12-.2-.24-.2-.34 0-.1.07-.28.38-.28.24 0 .41.29.47.44h.17l.16-.58h-.14l-.18.14c-.03-.08-.2-.23-.66-.23-.56 0-.74.48-.74.77 0 .3.4.66.54.76.15.1.38.3.38.45 0 .17-.09.28-.5.28-.34 0-.5-.28-.54-.43h-.24l-.15.56Zm8.94-2.26.04-.14h-1.06l-.04.14.25.08-.55 1.97-.28.17-.06.14h1.01l.04-.18-.14-.13.56-1.97.23-.08Zm5.82 1.61-.2.64h.17c.02-.04.08-.1.2-.1.07 0 .1.03.16.07a.5.5 0 0 0 .36.14c.7 0 1.1-.26 1.1-.72 0-.43-.27-.6-.6-.8l-.07-.05c-.37-.24-.28-.71.12-.71.32 0 .45.33.48.5h.16l.19-.61h-.16c-.22.13-.27.08-.35.02-.07-.06-.16-.13-.38-.13-.5 0-.92.25-.92.68 0 .42.3.63.65.88l.03.02c.37.26.26.74-.25.74-.4 0-.54-.38-.55-.57h-.14Zm-12.53.75h.96v-.15h-.33c-.02-.05 0-.2.13-.37l.15-.23h.88l.08.6H22v.15H23v-.15h-.2L22.4 29h-.2l-1.46 2.35h-.3v.15Zm1.77-.9-.14-.92-.61.91h.75Zm17.71.9h-.96v-.14h.3L40.73 29h.2l.4 2.35h.2v.14h-1.02v-.14h.33l-.08-.6h-.88l-.15.22c-.12.17-.15.32-.13.38h.33v.14Zm.67-1.81.14.9h-.75l.61-.9ZM24.94 29h.97v.15h-.3l-1.47 2.35h-.2l-.4-2.35h-.2V29h1.03v.15h-.34l.24 1.67.88-1.3c.12-.16.14-.32.13-.37h-.34V29Zm2.14 2.5h.8v-.18h-.28l.46-1.81.81 1.99h.26l.62-2.35h.18V29h-.66v.15h.3l-.44 1.48-.6-1.63h-.76v.15h.2l-.6 2.17h-.3v.18Zm15.58 0h-.8v-.16h.3l.6-2.07h-.2v-.14h.75l.6 1.55.44-1.41h-.3v-.14h.67v.14h-.19l-.62 2.24h-.26l-.8-1.9-.47 1.73h.28v.17Zm-10.28-2.46h.25l-.2.78h-.18c.02-.22-.04-.65-.49-.65-.55 0-.94.9-.94 1.5 0 .58.23.65.49.65.25 0 .47-.32.55-.75-.03 0-.2-.1-.28-.16v-.13h.9v.13l-.19.13v.7c-.08.08-.4.26-.98.26-.74 0-1.08-.42-1.08-1.09 0-.67.69-1.41 1.5-1.41.2 0 .3.06.37.11.05.03.1.06.15.06.12 0 .14-.09.13-.13Zm4.12 2.47h1.53c.25 0 .76-.15.76-.72 0-.32-.37-.5-.56-.55.25-.06.74-.27.74-.63 0-.44-.34-.5-.49-.5h-1.33l-.07.2h.25l-.55 2.02h-.23l-.05.18Zm1.13-1.33.23-.9h.22c.09.02.27.1.27.29 0 .26-.26.52-.39.61h-.33Zm-.3 1.15.25-.92h.32c.1.02.33.1.33.29 0 .27-.32.54-.48.63h-.41Zm8.82-2.06v-.14h-.9l-.04.14h.31l-.59 2.08h-.3v.14h1l.05-.14h-.21l.24-.98.61 1h-.23l-.04.14h.98l.04-.15h-.26l-.62-1.3.8-.78h.32v-.15h-.79l-.03.15h.24l-.81.84h-.15l.2-.85h.18Z" fill="#002A5F"/><path d="M39.73 34c-5.9 0-9.42-1.21-10.64-1.92-.1-.06-.12-.2-.04-.3a.19.19 0 0 1 .22-.04c1.13.5 4.2 1.38 8.62 1.38 8.99 0 11.08-1.9 11.08-2.52 0-.42-.6-.94-1.04-1.23a.24.24 0 0 1-.07-.32l.03-.05c.7.19 2.11.81 2.11 1.85 0 1.3-2.49 3.15-10.27 3.15Z" fill="#00B185"/></svg>