<!-- by TradingView --><svg width="56" height="56" viewBox="0 0 56 56" xmlns="http://www.w3.org/2000/svg"><path fill="#F0F3FA" d="M0 0h56v56H0z"/><path d="m39.99 19.01.01.03v.44l-.01.02-.02.01h-.75l-.03.01v.03l-.04.45v.02l.02.02h.79l.02.01.02.03v.43s0 .02-.02.03H25.01v-.49H25.84l.01-.02h.01v-.5l-.02-.01h-.81l-.02-.01-.01-.03v-.44l.01-.03.02-.01h14.94l.02.01Zm-13.63.5c-.02 0-.04.02-.04.04V20c0 .02.02.04.04.04h1.3c.02 0 .04-.01.04-.03v-.45c0-.02-.01-.04-.03-.04h-1.31Zm7.32 0a.03.03 0 0 0-.03.03V20c0 .02.01.03.03.03l1.3.01c.02 0 .03 0 .03-.02v-.46c0-.02 0-.03-.02-.03l-1.3-.02Zm1.83 0c-.01 0-.03.02-.03.04V20c0 .01.01.03.03.03h1.33c.01 0 .03-.01.03-.03v-.46c0-.01-.01-.03-.03-.03h-1.33Zm-5.47 0c-.02 0-.03.03-.03.05V20c0 .02.01.04.03.04h1.3c.01 0 .03-.01.03-.03v-.45a.04.04 0 0 0-.04-.03l-1.29-.01Zm-1.87 0-.02.03v.47c0 .02 0 .03.02.03h1.35c.02 0 .03-.01.03-.02v-.47c0-.02-.01-.03-.03-.03h-1.35Zm3.68 0c-.02 0-.04.03-.04.05V20c0 .02.02.04.04.04h1.3c.02 0 .04-.02.04-.05v-.43c0-.02-.02-.04-.04-.04h-1.3Zm5.52 0c-.02 0-.03.02-.03.04v.46c0 .02 0 .03.03.03h1.29c.02 0 .03-.01.03-.03v-.46c0-.02-.01-.03-.03-.03h-1.3ZM28.48 25.32v.01h-.45a.02.02 0 0 1-.01 0 .02.02 0 0 1 0-.01 3.7 3.7 0 0 0-.18-1.57 2.6 2.6 0 0 0-.93-1.27 2.89 2.89 0 0 0-1.88-.56.05.05 0 0 1-.03-.05v-.4a.05.05 0 0 1 .05-.05l.59.04a3.3 3.3 0 0 1 1.48.59c.45.32.8.73 1.02 1.23.29.63.4 1.31.34 2.04Z" fill="#040406"/><path d="M29.52 26.26v-.03c-.02-.77-.02-1.28 0-1.54.06-.8.34-1.48.83-2.06a3.1 3.1 0 0 1 4.07-.62c.8.5 1.3 1.23 1.5 2.17.06.3.09.83.08 1.61a6263.44 6263.44 0 0 0-.02 6.2.06.06 0 0 1-.04.01h-.3l-.04-.02a3694.32 3694.32 0 0 1-.02-6.9c0-.84-.22-1.54-.68-2.08a2.76 2.76 0 0 0-1.88-1.03 2.66 2.66 0 0 0-2.04.64c-.48.4-.8.94-.97 1.6-.05.23-.08.53-.07.9a29.76 29.76 0 0 1-.02 1.19.06.06 0 0 1-.05.01h-.3l-.04-.01a.06.06 0 0 1-.01-.04Z" fill="#33A8EB"/><path d="M36.52 25.33c-.06-.73.05-1.41.33-2.04.23-.5.57-.92 1.02-1.24a3.3 3.3 0 0 1 1.49-.59 11.44 11.44 0 0 1 .62-.03.05.05 0 0 1 .02.03V21.89a.05.05 0 0 1-.06.03 2.9 2.9 0 0 0-1.86.56 2.6 2.6 0 0 0-.92 1.27 3.7 3.7 0 0 0-.2 1.6h-.43a.01.01 0 0 1-.01-.02ZM11.48 27a1165.94 1165.94 0 0 1 1.9.02l.01.04v.89a.07.07 0 0 1-.04.04h-1.31l-.02.02-.02.02v3.95l-.02.01a7.85 7.85 0 0 1-.98-.04V28.02a.04.04 0 0 0-.02-.02H9.64l-.03-.01-.02-.02a.07.07 0 0 1-.01-.04v-.87l.01-.04a.05.05 0 0 1 .04-.02h1.85Zm14.7.01.01.04v.9l-.01.03-.03.01h-2.1L24 28l-.01.04v.92l.01.04h1.82l.03.02.01.04v.81l-.01.04-.03.01h-1.78l-.04.01v1.04l.04.02h2.16l.03.01.01.03v.92l-.01.04-.03.01h-3.17l-.03-.01-.01-.04v-4.9l.01-.04.03-.01h3.1l.04.01Zm3.1 0 .42.01a1 1 0 0 1 .63.33c.17.18.28.4.31.67a1.42 1.42 0 0 1-.57 1.38.2.2 0 0 0-.06.04v.01a.03.03 0 0 0 0 .03h.01c.39.13.64.36.75.7.11.37.1.73-.06 1.08-.15.35-.44.57-.86.67a3 3 0 0 1-.64.06 855.5 855.5 0 0 0-2.2 0 .06.06 0 0 1-.01-.04V27h2.28ZM33 27c.52 0 .94.2 1.26.64.2.27.3.56.33.87.04.52-.08.95-.36 1.3-.03.05-.1.12-.2.21a3.28 3.28 0 0 0-.17.18v.03l1.03 1.73V32H33.68a21.18 21.18 0 0 1-.81-1.4.26.26 0 0 0-.23-.17 9.28 9.28 0 0 0-.63.01l-.02.02V32l-.04.01h-.93l-.02-.01-.01-.03v-4.92l.01-.03h.02L33 27Zm5.77 0a2.1 2.1 0 0 1 1.57.69 2.38 2.38 0 0 1 .66 1.66v.27c0 .63-.23 1.23-.65 1.67-.41.45-.98.7-1.56.7l-1.72.01c-.02 0-.03 0-.04-.02a.06.06 0 0 1-.01-.03l-.02-4.9.01-.03.04-.01 1.72-.01Zm11.14 0h.01a.03.03 0 0 1 .02.03v.9a.07.07 0 0 1-.01.04l-.02.02h-1.86c-.01 0-.02 0-.03.02l-.01.03V29h.02l1.58.01h.01l.02.02a.05.05 0 0 1 0 .03v.85l-.01.01h-1.58l-.03.01-.01.04v1.01l.03.01h1.95l.01.04V31.97l-.02.01V32h-.02l-2.91.01c-.01 0-.02 0-.03-.02a.06.06 0 0 1-.02-.04v-4.89l.01-.04.03-.01h2.87Zm-42.74.1c.66-.2 1.37-.08 2.13.36a.1.1 0 0 1 .04.05.1.1 0 0 1 0 .07l-.36.8s0 .02-.02.02a.07.07 0 0 1-.05.02H8.9c-.57-.34-1.03-.46-1.37-.38-.23.05-.32.21-.29.49.02.14.15.25.39.33l.25.09c.52.17.9.33 1.16.5.29.18.44.49.47.9.03.62-.16 1.07-.56 1.35-.26.2-.57.29-.92.3-.73.02-1.4-.18-2.02-.6v-.05l.37-.8a.1.1 0 0 1 .06-.05h.07c.42.28.87.44 1.35.47.34.03.52-.07.54-.28.02-.14 0-.24-.06-.3a.74.74 0 0 0-.23-.16l-.04-.01a.98.98 0 0 0-.16-.07c-.58-.16-1-.34-1.28-.54-.22-.16-.36-.4-.4-.7-.07-.42-.03-.8.14-1.13.17-.34.44-.57.81-.68Zm14.77-.1c.02 0 .03 0 .04.02l.02.05v4.88l-.01.04H21.29a.22.22 0 0 1-.18-.1l-.38-.5c-.55-.7-1.08-1.5-1.7-2.16h-.01l-.02.01v2.74l-.04.02h-.92l-.03-.01-.01-.03v-4.91l.01-.03.03-.02h.7a.1.1 0 0 1 .06.01l.03.04 2.11 2.73.02.02h.02l.02-.02v-2.72c0-.01 0-.03.02-.04a.06.06 0 0 1 .04-.02h.88Zm-6.55 0c.3-.01.59.04.87.16.27.11.53.28.74.5a2.74 2.74 0 0 1 .13 3.53c-.4.5-.97.78-1.56.8-.3.02-.6-.03-.87-.15a2.23 2.23 0 0 1-.75-.5 2.74 2.74 0 0 1-.13-3.53c.41-.5.97-.78 1.57-.8Zm28.57 0c.57 0 1.07.2 1.5.56.08.07.18.18.3.33l.05.07a.1.1 0 0 1-.02.14c-.18.15-.4.3-.65.46a.46.46 0 0 1-.17.06.04.04 0 0 1-.04-.01c-.27-.42-.64-.62-1.1-.6-.33.02-.61.17-.83.44a1.5 1.5 0 0 0-.35.9c-.02.42.07.77.27 1.07.21.33.52.5.9.54.26.02.51-.03.76-.15a1.26 1.26 0 0 0 .57-.57v-.02l-.02-.02h-.9c-.01 0-.03 0-.04-.02v-.77l.02-.01H46v.02l.01.01v2.47a.06.06 0 0 1-.05.06h-.78c-.02 0-.03 0-.04-.02l-.01-.03v-.48l-.02-.01h-.03c-.36.41-.82.6-1.38.56a2.2 2.2 0 0 1-1.39-.6 2.47 2.47 0 0 1-.8-1.97c.01-.6.2-1.11.56-1.56.47-.57 1.1-.85 1.9-.85Zm-15.94 3.01-.02.03v.93l.01.01.02.01h.02l1.14.01a.5.5 0 0 0 .33-.13.4.4 0 0 0 .14-.3v-.13a.42.42 0 0 0-.13-.3.49.49 0 0 0-.33-.14h-1.15l-.03.01Zm10.11-2s-.02 0-.03.02l-.02.03v2.87l.01.04.04.02h.64c.3 0 .58-.14.79-.38.21-.24.33-.57.33-.91v-.4a1.33 1.33 0 0 0-.33-.92c-.1-.11-.22-.2-.36-.27a1 1 0 0 0-.43-.1h-.64ZM15.5 28c-.65 0-1.19.66-1.2 1.48 0 .81.51 1.48 1.16 1.5.66 0 1.2-.66 1.2-1.47 0-.82-.51-1.5-1.16-1.5ZM32.07 28c-.02 0-.03 0-.05.02a.07.07 0 0 0-.02.05v1.27c0 .01 0 .03.02.04.01.02.03.02.04.02h.81c.15 0 .29-.06.39-.17.1-.11.16-.26.16-.42v-.2a.64.64 0 0 0-.16-.43.52.52 0 0 0-.39-.18h-.8Zm-4.03.01h-.02a.04.04 0 0 0-.02.03v.93l.01.03.03.01h1.04a.42.42 0 0 0 .3-.14.46.46 0 0 0 .13-.32v-.09a.46.46 0 0 0-.13-.32.43.43 0 0 0-.3-.13h-1.04Z" fill="#040406"/></svg>