<!-- by TradingView --><svg width="56" height="56" viewBox="0 0 56 56" xmlns="http://www.w3.org/2000/svg"><path fill="#F0F3FA" d="M0 0h56v56H0z"/><path d="M28 12c9.28 0 16 6.51 16 15.92 0 3.67-1.5 7.38-4 10.14 1.08.8 2.72.94 4 .94v5c-3.34 0-5.88-.79-7.63-2.37-2.88 1.82-6.05 2.37-9.4 2.37C18 44 12 36.34 12 27.75 12 18.97 19.06 12 28 12Zm8 22a7.42 7.42 0 0 0 3-5.92C39 21.8 34.3 17 28 17c-5.88 0-11 4.5-11 11.3v1.28c1.36-.35 3.16-.58 4.57-.58 5.29 0 10.56 1.55 14.43 5Zm-17 0c1.21 2.91 5.79 5 8.7 5 1.29 0 4-.86 5.3-1.52-2.68-2.21-7.63-4.04-11.15-4.04-.9 0-1.96.26-2.85.56Z" fill="#E2001A"/></svg>