<!-- by TradingView --><svg width="56" height="56" viewBox="0 0 56 56" xmlns="http://www.w3.org/2000/svg"><path fill="#F0F3FA" d="M0 0h56v56H0z"/><path d="M41.01 18.3A13.3 13.3 0 0 0 44 18c-1.24 15.45-11.31 23.77-16.19 26-2.77-1-5.7-3.79-6.81-5.06C33.26 36.5 39.45 24.16 41.01 18.3Z" fill="url(#a)"/><path d="M12.16 27.58c0 .82.3 1.49.45 1.72 1.17.28 3.49.82 3.44.73l-2.18-3.85c-.57.13-1.7.59-1.7 1.4Z" fill="#00004B"/><path d="M28.17 13a24.42 24.42 0 0 0 11.51 5.33l-1.88 3.6-7.24 5.97c-4.32 2.39-13.54 6.03-15.89 1.51a24.2 24.2 0 0 1-2.66-11.08c7.28.67 13.8-3.27 16.16-5.33Z" fill="url(#b)"/><path d="m39.1 18.23.58.1-1.88 3.6-7.24 5.97c-4.32 2.39-13.54 6.03-15.89 1.51a22.89 22.89 0 0 1-1.31-3.11c10.09 4.67 21.3-3.37 25.74-8.07Z" fill="#022476"/><path d="M32.98 30.64A27.75 27.75 0 0 0 41 16.38C32.93 28.6 18.67 30 12.55 29.18c1.2 3.26 3.92 8.82 7.87 8.82s5.95-1.31 12.56-7.36Z" fill="url(#c)"/><path d="M14.92 34.05c1.4 2.15 3.25 3.95 5.5 3.95 2.84 0 6.1-.93 12.71-6.98 5.22-4.79 7.34-11.74 7.85-14.54-2.95 6.42-12.2 18.72-26.06 17.57Z" fill="url(#d)"/><defs><linearGradient id="a" x1="44.03" y1="17.97" x2="24.58" y2="42.09" gradientUnits="userSpaceOnUse"><stop offset=".53" stop-color="#F56327"/><stop offset=".68" stop-color="#C41414"/></linearGradient><linearGradient id="b" x1="38.55" y1="18.3" x2="12.05" y2="24.03" gradientUnits="userSpaceOnUse"><stop stop-color="#0493DF"/><stop offset=".29" stop-color="#066BBD"/><stop offset=".52" stop-color="#056ABC"/><stop offset=".58" stop-color="#01449B"/><stop offset="1" stop-color="#002D83"/></linearGradient><linearGradient id="c" x1="41" y1="16.38" x2="14.32" y2="32.8" gradientUnits="userSpaceOnUse"><stop stop-color="#13CBFE"/><stop offset="1" stop-color="#064A9F"/></linearGradient><linearGradient id="d" x1="41" y1="16.49" x2="18.23" y2="37.31" gradientUnits="userSpaceOnUse"><stop stop-color="#16A8FE"/><stop offset="1" stop-color="#02449A"/></linearGradient></defs></svg>