<!-- by TradingView --><svg width="56" height="56" viewBox="0 0 56 56" xmlns="http://www.w3.org/2000/svg"><path fill="#F0F3FA" d="M0 0h56v56H0z"/><path fill-rule="evenodd" d="M13.93 26.1H16a4.9 4.9 0 0 0-.54-1.73 4.26 4.26 0 0 0-2.5-2.1 5.5 5.5 0 0 0-4.42.44 4.96 4.96 0 0 0-1.86 2.06C6.23 25.67 6 26.74 6 28c0 1.25.23 2.33.68 3.23A4.92 4.92 0 0 0 11.2 34a4.6 4.6 0 0 0 4.8-4.03h-2.07a2.59 2.59 0 0 1-.95 1.58c-.24.18-.5.32-.8.41a3.22 3.22 0 0 1-2.59-.32 3.14 3.14 0 0 1-1.12-1.38 5.6 5.6 0 0 1-.4-2.26c0-.88.13-1.62.4-2.23a2.88 2.88 0 0 1 2.76-1.87c.35 0 .67.05.97.15a2.45 2.45 0 0 1 1.4 1.12c.16.27.27.58.33.93ZM18 34V22h2v5h5v-5h2v12h-2v-5h-5v5h-2Zm11.04 0h2.3l.99-3h4.43l1 3h2.28l-4.18-12h-2.65l-4.17 12Zm7.05-5-1.5-4.54h-.1L33 29h3.1ZM41 22v12h2v-4H45.51l2.1 4H50l-2.45-4.56a4.05 4.05 0 0 0 2.02-3.6c0-2.43-1.82-3.84-4.15-3.84H41Zm2 6h2.1c1.28 0 2.3-.78 2.3-2.16 0-1.39-1.02-1.84-2.31-1.84H43v4Z"/></svg>