<!-- by TradingView --><svg width="56" height="56" viewBox="0 0 56 56" xmlns="http://www.w3.org/2000/svg"><path fill="#F0F3FA" d="M0 0h56v56H0z"/><path d="M25.56 14.34a.5.5 0 0 0 .34-.14.5.5 0 0 0-.28-.84.5.5 0 0 0-.49.46c0 .13.03.25.11.35.08.1.2.16.32.17Zm4.4 1.45a.5.5 0 0 0 .66-.25.49.49 0 0 0-.27-.62.5.5 0 0 0-.64.23.49.49 0 0 0 .26.64Zm-5.03 2.9a.34.34 0 0 0 .26-.07.33.33 0 0 0-.26-.57.33.33 0 0 0-.34.19.32.32 0 0 0 .2.44c.04.02.1.02.14.02Zm.93-.46c.09.01.18-.01.26-.07a.35.35 0 0 0-.3-.62.36.36 0 0 0-.21.16.35.35 0 0 0 .25.53Zm.53.81a.33.33 0 0 0 .43-.17.32.32 0 0 0-.17-.43.33.33 0 0 0-.44.17.32.32 0 0 0 .18.43Zm1-.3a.36.36 0 0 0 .5-.21.35.35 0 0 0-.1-.38.36.36 0 0 0-.6.23.35.35 0 0 0 .2.35Zm3.41-.4a.44.44 0 0 0 .76-.3.43.43 0 0 0-.27-.41.44.44 0 0 0-.49.1.43.43 0 0 0 0 .6Zm-.28-1.24a.47.47 0 0 0 .66-.27.45.45 0 0 0-.14-.49.46.46 0 0 0-.76.3.45.45 0 0 0 .24.46Zm-1.35.17a.44.44 0 0 0 .5-.25.43.43 0 0 0-.16-.54.44.44 0 0 0-.65.19.43.43 0 0 0 .13.51c.06.04.11.07.18.09Zm-.62-1.23a.47.47 0 0 0 .73-.35.46.46 0 0 0-.29-.46.47.47 0 0 0-.72.35.46.46 0 0 0 .28.46Zm-1.32.4a.44.44 0 0 0 .61-.3.43.43 0 0 0-.18-.45.44.44 0 0 0-.65.2.43.43 0 0 0 .22.56Zm-.69-1.06a.47.47 0 0 0 .56-.38.46.46 0 0 0-.23-.47.47.47 0 0 0-.18-.06.48.48 0 0 0-.53.39.45.45 0 0 0 .22.46c.05.03.11.05.17.06h-.01Zm-1.22.62a.44.44 0 0 0 .43-.25.43.43 0 0 0-.07-.48.44.44 0 0 0-.77.3c0 .1.05.2.12.29.08.08.18.13.3.14Zm-.23 1.5a.38.38 0 0 0 .36-.2.37.37 0 0 0-.05-.41.38.38 0 0 0-.64.37.37.37 0 0 0 .33.25Zm1.06-.53a.4.4 0 0 0 .41-.2.4.4 0 0 0-.22-.58.4.4 0 0 0-.43.13.4.4 0 0 0 .24.65Zm.6.92a.38.38 0 0 0 .41-.07.37.37 0 0 0-.26-.64.38.38 0 0 0-.35.23.37.37 0 0 0 .2.48Zm1.13-.35a.4.4 0 0 0 .55-.16.4.4 0 0 0-.16-.54.4.4 0 0 0-.55.16.4.4 0 0 0 .16.54Zm.54 1.07a.38.38 0 0 0 .4-.09.37.37 0 0 0-.26-.63.38.38 0 0 0-.35.23.37.37 0 0 0 .2.49Zm1.18-.15a.4.4 0 0 0 .58-.23.4.4 0 0 0-.13-.43.4.4 0 0 0-.66.27.4.4 0 0 0 .2.4Zm-4.11 1.23a.3.3 0 0 0 .3-.13.3.3 0 0 0-.16-.44.3.3 0 0 0-.32.08.3.3 0 0 0 .18.5Zm-.79.4a.28.28 0 0 0 .27-.16.27.27 0 0 0-.18-.38.28.28 0 0 0-.3.1.27.27 0 0 0 .21.44Zm2.23-6.67a.54.54 0 0 1-.37-.47.53.53 0 0 1 .3-.52.55.55 0 0 1 .76.34.53.53 0 0 1-.1.49.54.54 0 0 1-.59.16Zm2.47.81a.54.54 0 0 1-.3-.27.53.53 0 0 1-.04-.4.54.54 0 0 1 .48-.37.55.55 0 0 1 .52.3.53.53 0 0 1-.07.59.54.54 0 0 1-.59.15Zm2.14 1.15a.54.54 0 0 1-.19-.56.53.53 0 0 1 .46-.39.55.55 0 0 1 .4.12.54.54 0 0 1 .08.75.53.53 0 0 1-.57.18.54.54 0 0 1-.18-.1Zm-5.73-3.24a.59.59 0 0 1-.45-.46.57.57 0 0 1 0-.23.57.57 0 0 1 .48-.44.58.58 0 0 1 .43.1.58.58 0 0 1 .24.6.58.58 0 0 1-.47.44.59.59 0 0 1-.23 0Zm5.12 1.67a.58.58 0 0 1-.25-.59.57.57 0 0 1 .45-.45.59.59 0 0 1 .6.23.57.57 0 0 1-.36.9.59.59 0 0 1-.44-.09Z" fill="#0580B7"/><path d="M17.31 19.38a.5.5 0 0 0 .18-.51.5.5 0 0 0-.4-.37.5.5 0 0 0-.5.23.49.49 0 0 0 .02.55.5.5 0 0 0 .52.18.5.5 0 0 0 .18-.08Zm4.3-1.68a.5.5 0 0 0 .35-.42.49.49 0 0 0-.25-.48.5.5 0 0 0-.72.29.49.49 0 0 0 .1.45.5.5 0 0 0 .52.16Zm-1.97 5.43a.33.33 0 0 0 .12-.34.33.33 0 0 0-.27-.24.33.33 0 0 0-.33.16.32.32 0 0 0 .02.36.33.33 0 0 0 .46.06Zm.41-.95a.36.36 0 0 0 .11-.48.35.35 0 0 0-.22-.15.36.36 0 0 0-.27.05.35.35 0 0 0-.12.5.36.36 0 0 0 .5.1v-.02Zm.91.3a.33.33 0 0 0 .24-.28.32.32 0 0 0-.17-.32.33.33 0 0 0-.37.03.33.33 0 0 0-.1.34c.02.09.07.16.15.2.08.04.17.05.25.03Zm.57-.88a.36.36 0 0 0 .28-.27.35.35 0 0 0-.16-.37.36.36 0 0 0-.52.17.35.35 0 0 0 .13.42c.08.05.17.07.27.05Zm2.36-2.48a.44.44 0 0 0 .43-.24.43.43 0 0 0-.07-.49.44.44 0 0 0-.77.3.43.43 0 0 0 .4.43Zm-1.02-.77a.46.46 0 0 0 .36-.36.45.45 0 0 0-.2-.47.46.46 0 0 0-.7.47.46.46 0 0 0 .36.36h.18Zm-.93 1a.44.44 0 0 0 .32-.37.43.43 0 0 0-.22-.44.44.44 0 0 0-.64.26.43.43 0 0 0 .21.5c.1.06.22.07.33.04Zm-1.26-.55a.44.44 0 0 0 .3-.2.43.43 0 0 0 .06-.34.46.46 0 0 0-.2-.3.47.47 0 0 0-.52 0 .46.46 0 0 0-.2.48.46.46 0 0 0 .37.36h.19Zm-.74 1.14a.44.44 0 0 0 .32-.37.43.43 0 0 0-.23-.43.44.44 0 0 0-.64.26.43.43 0 0 0 .22.5c.1.06.22.07.33.04Zm-1.22-.38a.46.46 0 0 0 .21-.47.46.46 0 0 0-.35-.37.47.47 0 0 0-.5.19.46.46 0 0 0 0 .51.44.44 0 0 0 .47.23.44.44 0 0 0 .17-.07v-.02Zm-.54 1.25a.44.44 0 0 0-.37-.77.44.44 0 0 0-.33.36.43.43 0 0 0 .21.44.45.45 0 0 0 .5-.03Zm.8 1.3a.37.37 0 0 0 .16-.23.36.36 0 0 0-.18-.37.38.38 0 0 0-.51.12.36.36 0 0 0 .02.41.37.37 0 0 0 .4.14c.04-.01.09-.03.13-.06h-.01Zm.47-1.08a.4.4 0 0 0 .19-.4.4.4 0 0 0-.3-.33.41.41 0 0 0-.43.16.4.4 0 0 0-.01.44.4.4 0 0 0 .55.13Zm1.06.33a.37.37 0 0 0 .26-.32.37.37 0 0 0-.2-.36.38.38 0 0 0-.53.22.37.37 0 0 0 .18.43.38.38 0 0 0 .29.03Zm.64-.99a.4.4 0 0 0 .26-.17.4.4 0 0 0-.42-.61.4.4 0 0 0-.26.17.4.4 0 0 0 .12.55c.09.06.2.08.3.06Zm1.1.48a.38.38 0 0 0 .26-.32.37.37 0 0 0-.2-.36.38.38 0 0 0-.53.21.37.37 0 0 0 .18.44.38.38 0 0 0 .29.03Zm.8-.88a.4.4 0 0 0 .32-.31v-.16a.4.4 0 0 0-.73-.14.4.4 0 0 0-.06.3.4.4 0 0 0 .32.32h.15Zm-2.34 3.57a.3.3 0 0 0 .13-.3.3.3 0 0 0-.45-.2.3.3 0 0 0-.1.4.3.3 0 0 0 .42.1Zm-.34.8a.27.27 0 0 0 .1-.3.27.27 0 0 0-.23-.2.28.28 0 0 0-.28.13.27.27 0 0 0 .02.3.28.28 0 0 0 .39.06Zm-2.65-6.55a.55.55 0 0 1-.58-.12.53.53 0 0 1 .4-.91.55.55 0 0 1 .49.34.53.53 0 0 1-.13.58.54.54 0 0 1-.18.11Zm2.43-.95a.55.55 0 0 1-.59-.12.53.53 0 0 1 .4-.91.55.55 0 0 1 .5.34.53.53 0 0 1-.3.7Zm2.42-.47a.55.55 0 0 1-.51-.31.53.53 0 0 1 .1-.6.54.54 0 0 1 .93.36c0 .15-.04.28-.14.39-.1.1-.24.16-.38.16Zm-6.51 1.18a.59.59 0 0 1-.82-.37.57.57 0 0 1 .2-.6.58.58 0 0 1 .88.2.57.57 0 0 1-.26.77Zm5.01-2a.58.58 0 0 1-.42-.12.57.57 0 0 1 .52-1 .58.58 0 0 1 .41.49.57.57 0 0 1-.3.57.58.58 0 0 1-.2.06Z" fill="#018837"/><path d="M14.26 28.5a.49.49 0 0 0-.36-.64.5.5 0 0 0-.6.4.49.49 0 0 0 .37.56.5.5 0 0 0 .59-.33Zm2.2-4.03a.49.49 0 0 0-.23-.73.5.5 0 0 0-.54.11.5.5 0 0 0 .26.83.5.5 0 0 0 .5-.21Zm2.02 5.42a.32.32 0 0 0-.04-.25.33.33 0 0 0-.6.1c-.03.08-.01.17.03.24a.33.33 0 0 0 .46.11.34.34 0 0 0 .15-.2Zm-.31-1a.35.35 0 0 0-.1-.37.36.36 0 0 0-.6.3.35.35 0 0 0 .26.3.36.36 0 0 0 .44-.22Zm.88-.36a.33.33 0 0 0-.2-.53.33.33 0 0 0-.35.17.33.33 0 0 0 .2.52.33.33 0 0 0 .35-.16Zm-.13-1.03a.35.35 0 1 0-.55.01.35.35 0 0 0 .55 0Zm.2-3.4a.43.43 0 0 0-.22-.72.45.45 0 0 0-.45.15.43.43 0 0 0 .32.7.44.44 0 0 0 .35-.13Zm-1.28.05a.46.46 0 0 0-.15-.7.47.47 0 0 0-.52.06.46.46 0 0 0-.14.5c.03.09.08.16.15.22a.47.47 0 0 0 .7-.08h-.04Zm-.05 1.38a.43.43 0 0 0-.2-.65.45.45 0 0 0-.48.1.43.43 0 0 0 .4.73.44.44 0 0 0 .28-.18Zm-1.33.38a.45.45 0 0 0-.13-.7.47.47 0 0 0-.66.27.45.45 0 0 0 .14.48.47.47 0 0 0 .65-.07v.02Zm.18 1.34a.43.43 0 0 0-.16-.53.45.45 0 0 0-.66.23.43.43 0 0 0 .18.5.44.44 0 0 0 .64-.2Zm-1.19.46a.45.45 0 0 0-.29-.58.47.47 0 0 0-.59.29.46.46 0 0 0 .3.58.44.44 0 0 0 .58-.3Zm.41 1.3a.43.43 0 0 0-.17-.45.44.44 0 0 0-.66.18.43.43 0 0 0 .09.47.44.44 0 0 0 .74-.2Zm1.46.49a.37.37 0 0 0-.15-.39.38.38 0 0 0-.56.16.37.37 0 0 0 .08.4.38.38 0 0 0 .63-.17Zm-.35-1.12a.4.4 0 0 0-.12-.43.4.4 0 0 0-.61.11.4.4 0 0 0 .22.57.4.4 0 0 0 .51-.25Zm1.03-.44a.37.37 0 0 0-.1-.51.38.38 0 0 0-.53.1.37.37 0 0 0 .1.52.38.38 0 0 0 .53-.1Zm-.16-1.17a.4.4 0 0 0-.2-.63.4.4 0 0 0-.43.14.4.4 0 0 0 .07.56.4.4 0 0 0 .56-.07Zm1.15-.33a.37.37 0 0 0-.17-.54.38.38 0 0 0-.4.08.37.37 0 0 0 .19.62.38.38 0 0 0 .38-.16Zm.06-1.17a.4.4 0 0 0-.13-.61.4.4 0 0 0-.57.25.4.4 0 0 0 .14.42.4.4 0 0 0 .44.04.4.4 0 0 0 .12-.1Zm.52 4.22a.28.28 0 0 0-.1-.32.3.3 0 0 0-.1-.05.3.3 0 0 0-.37.18.3.3 0 0 0 .18.4.3.3 0 0 0 .33-.1.3.3 0 0 0 .06-.11Zm.26.82a.27.27 0 0 0-.11-.28.28.28 0 0 0-.44.27.27.27 0 0 0 .21.22.28.28 0 0 0 .34-.2Zm-6.26-3.3a.54.54 0 0 1-.53.27.54.54 0 0 1-.46-.38.53.53 0 0 1 .18-.57.54.54 0 0 1 .85.27.53.53 0 0 1-.04.4Zm1.22-2.28a.54.54 0 0 1-.53.28.55.55 0 0 1-.46-.38.53.53 0 0 1 .18-.57.54.54 0 0 1 .88.48c-.01.07-.03.13-.07.2Zm1.52-1.9a.54.54 0 0 1-.89-.43.53.53 0 0 1 .37-.47.54.54 0 0 1 .57.15.53.53 0 0 1-.05.76Zm-4.2 5.05a.57.57 0 0 1-.54.34.58.58 0 0 1-.53-.36.56.56 0 0 1 .13-.62.58.58 0 0 1 .98.42c0 .07-.01.15-.04.22Zm2.55-4.71a.58.58 0 0 1-1.01-.38.57.57 0 0 1 .34-.54.59.59 0 0 1 .77.29.57.57 0 0 1-.1.63Z" fill="#67C3B7"/><path d="M17.84 37.4a.5.5 0 0 0-.48-.26.5.5 0 0 0-.44.34.49.49 0 0 0 .15.52.5.5 0 0 0 .82-.4.5.5 0 0 0-.05-.2Zm-.93-4.46a.5.5 0 0 0-.87-.23.49.49 0 0 0-.11.34.5.5 0 0 0 .18.33.5.5 0 0 0 .55.05.5.5 0 0 0 .26-.49Zm5.07 2.85a.32.32 0 0 0-.2-.16.33.33 0 0 0-.24.02.33.33 0 0 0-.15.44.33.33 0 0 0 .19.16.34.34 0 0 0 .35-.1.33.33 0 0 0 .05-.36Zm-.89-.55a.35.35 0 0 0-.44-.2.36.36 0 0 0-.2.43.36.36 0 0 0 .45.17.36.36 0 0 0 .21-.42l-.02.02Zm.45-.88a.32.32 0 0 0-.24-.27.33.33 0 0 0-.35.1.33.33 0 0 0 .1.5.33.33 0 0 0 .42-.08.32.32 0 0 0 .07-.25Zm-.78-.7a.35.35 0 0 0-.23-.32.36.36 0 0 0-.38.09.35.35 0 0 0 .27.6c.1 0 .18-.05.25-.12.06-.06.1-.15.1-.25Zm-2.05-2.73a.43.43 0 0 0-.17-.46.44.44 0 0 0-.66.17.43.43 0 0 0 .08.48.44.44 0 0 0 .75-.19Zm-.95.87a.46.46 0 0 0-.3-.42.47.47 0 0 0-.5.12.46.46 0 0 0 .36.77.44.44 0 0 0 .42-.3.43.43 0 0 0 .02-.17Zm.83 1.08a.44.44 0 0 0-.47-.3.44.44 0 0 0-.39.4.43.43 0 0 0 .3.45.45.45 0 0 0 .51-.18.43.43 0 0 0 .05-.37Zm-.76 1.14a.46.46 0 0 0-.3-.42.47.47 0 0 0-.51.12.46.46 0 0 0 .36.77c.13 0 .24-.06.32-.14.08-.1.13-.2.13-.33Zm1 .92a.43.43 0 0 0-.31-.38.44.44 0 0 0-.47.15.43.43 0 0 0 .15.66.44.44 0 0 0 .54-.12c.07-.09.1-.2.1-.31Zm-.58 1.12a.46.46 0 0 0-.43-.3.47.47 0 0 0-.43.28.46.46 0 0 0 .09.5.47.47 0 0 0 .5.12.46.46 0 0 0 .3-.42.45.45 0 0 0-.03-.18Zm1.15.74a.44.44 0 0 0-.43-.25.44.44 0 0 0-.39.3.43.43 0 0 0 .13.46.44.44 0 0 0 .49.06.44.44 0 0 0 .2-.57Zm1.43-.56a.36.36 0 0 0-.36-.2c-.05 0-.1.01-.14.03a.37.37 0 0 0-.17.5.38.38 0 0 0 .5.17.37.37 0 0 0 .21-.36c0-.05-.02-.1-.04-.14Zm-.98-.64a.4.4 0 0 0-.37-.25.4.4 0 0 0-.38.24.4.4 0 0 0 .21.52c.1.04.2.05.3 0a.4.4 0 0 0 .23-.52Zm.5-.98a.37.37 0 0 0-.28-.3.38.38 0 0 0-.39.14.37.37 0 0 0 .13.56.38.38 0 0 0 .55-.25.37.37 0 0 0 0-.15Zm-.87-.8a.4.4 0 0 0-.13-.27.4.4 0 0 0-.65.15.4.4 0 0 0 .1.43.4.4 0 0 0 .58-.03.4.4 0 0 0 .1-.29v.02Zm.66-.98a.37.37 0 0 0-.27-.32.38.38 0 0 0-.4.13.37.37 0 0 0 .13.57.38.38 0 0 0 .35-.01.37.37 0 0 0 .2-.37Zm-.72-.94a.4.4 0 0 0-.14-.25.4.4 0 0 0-.54.02.4.4 0 0 0-.12.26c0 .1.05.2.12.28a.4.4 0 0 0 .3.1.41.41 0 0 0 .36-.27.4.4 0 0 0 .02-.16v.02Zm3.14 2.91a.3.3 0 0 0-.27-.19.3.3 0 0 0-.12.02.3.3 0 0 0-.19.16.3.3 0 0 0 .17.4.3.3 0 0 0 .24 0 .3.3 0 0 0 .19-.28c0-.04 0-.07-.02-.11Zm.73.47a.27.27 0 0 0-.26-.15.28.28 0 0 0-.2.1.27.27 0 0 0-.03.3.27.27 0 0 0 .16.15.28.28 0 0 0 .36-.18.27.27 0 0 0-.03-.22Zm-6.95 1.43a.53.53 0 0 1-.24.53.54.54 0 0 1-.78-.25.53.53 0 0 1 .11-.57.54.54 0 0 1 .91.29Zm-.52-2.53a.52.52 0 0 1-.22.55.55.55 0 0 1-.83-.33.53.53 0 0 1 .23-.56.55.55 0 0 1 .2-.08.54.54 0 0 1 .56.24c.04.06.07.13.08.2l-.02-.02Zm-.07-2.42a.53.53 0 0 1-.4.43.54.54 0 0 1-.56-.2.53.53 0 0 1 .21-.8.54.54 0 0 1 .66.18c.08.11.12.25.1.4Zm.04 6.54a.57.57 0 0 1-.18.61.59.59 0 0 1-.89-.17.57.57 0 0 1 .35-.82.59.59 0 0 1 .72.38Zm-1.1-5.23a.57.57 0 0 1-.4.51.59.59 0 0 1-.62-.16.57.57 0 0 1 .14-.88.59.59 0 0 1 .73.12c.1.1.15.26.14.41Z" fill="#99CF16"/><path d="M26.37 41.96a.5.5 0 0 0-.54.1.5.5 0 0 0 .34.85.5.5 0 0 0 .46-.3.49.49 0 0 0-.26-.65Zm-3.62-2.84a.49.49 0 0 0-.7 0 .49.49 0 0 0 .38.82.5.5 0 0 0 .34-.15.49.49 0 0 0-.02-.7v.03Zm5.73-1.02a.33.33 0 0 0-.47.3.32.32 0 0 0 .2.3.33.33 0 0 0 .43-.17.32.32 0 0 0-.17-.43Zm-1.04.12a.36.36 0 0 0-.5.2.35.35 0 0 0 .1.38.36.36 0 0 0 .59-.23.35.35 0 0 0-.19-.35Zm-.2-.92a.33.33 0 0 0-.38-.1.33.33 0 0 0-.2.2.32.32 0 0 0 .14.37.33.33 0 0 0 .4.1.33.33 0 0 0 .2-.34.33.33 0 0 0-.15-.23Zm-1.04-.04a.35.35 0 0 0-.62.2.35.35 0 0 0 .2.34.35.35 0 0 0 .39-.05.34.34 0 0 0 .03-.5Zm-3.35-.8a.43.43 0 0 0-.25-.27.44.44 0 0 0-.6.3.43.43 0 0 0 .32.52.44.44 0 0 0 .5-.25c.05-.1.06-.2.03-.3Zm-.17 1.26a.47.47 0 0 0-.65-.04.46.46 0 0 0 .28.81.47.47 0 0 0 .45-.26.46.46 0 0 0-.08-.5Zm1.33.3a.44.44 0 0 0-.75.35.43.43 0 0 0 .31.38.45.45 0 0 0 .48-.14.43.43 0 0 0 0-.61l-.04.02Zm.15 1.36a.47.47 0 0 0-.66-.04.46.46 0 0 0 .3.78c.11.01.23-.02.32-.09a.46.46 0 0 0 .04-.65Zm1.37.06a.44.44 0 0 0-.76.3.43.43 0 0 0 .27.41.45.45 0 0 0 .49-.1.43.43 0 0 0 0-.6Zm.28 1.22a.47.47 0 0 0-.66.27.45.45 0 0 0 .14.49.46.46 0 0 0 .76-.3.45.45 0 0 0-.24-.46Zm1.36-.17a.44.44 0 0 0-.49.09.43.43 0 0 0 .3.75.44.44 0 0 0 .41-.27.43.43 0 0 0-.22-.57Zm.73-1.33a.38.38 0 0 0-.5.19.37.37 0 0 0 .2.49.38.38 0 0 0 .5-.2.36.36 0 0 0-.2-.48Zm-1.17.14a.4.4 0 0 0-.59.23.4.4 0 0 0 .13.43.4.4 0 0 0 .62-.12.4.4 0 0 0-.16-.54Zm-.25-1.07a.37.37 0 0 0-.4-.08.37.37 0 0 0 .14.7.38.38 0 0 0 .35-.22.37.37 0 0 0-.09-.4Zm-1.17-.06a.4.4 0 0 0-.71.24.4.4 0 0 0 .22.39.4.4 0 0 0 .59-.34.4.4 0 0 0-.1-.29ZM25.17 37a.37.37 0 0 0-.52 0 .37.37 0 0 0 .26.64.38.38 0 0 0 .35-.23.37.37 0 0 0-.09-.4Zm-1.15-.26a.4.4 0 0 0-.7.24.4.4 0 0 0 .22.38.4.4 0 0 0 .44-.05.4.4 0 0 0 .11-.43.4.4 0 0 0-.07-.13Zm4.28.23a.3.3 0 0 0-.4.12.3.3 0 0 0 .23.46.3.3 0 0 0 .3-.18.3.3 0 0 0-.13-.4Zm.88-.1a.28.28 0 0 0-.36.14.28.28 0 0 0 .36.36.28.28 0 0 0 .17-.25.27.27 0 0 0-.17-.26Zm-4.4 5.51a.53.53 0 0 1 .18.57.53.53 0 0 1-.45.38.54.54 0 0 1-.4-.1.54.54 0 0 1-.09-.76.53.53 0 0 1 .57-.18c.07.02.13.05.19.1Zm-2.06-1.58a.53.53 0 0 1 .19.56.53.53 0 0 1-.46.38.54.54 0 0 1-.53-.27.53.53 0 0 1 .2-.72.54.54 0 0 1 .6.05Zm-1.62-1.82a.53.53 0 0 1-.18.74.55.55 0 0 1-.78-.15.53.53 0 0 1 .22-.76.54.54 0 0 1 .74.17Zm4.28 5a.57.57 0 0 1-.21 1.01.59.59 0 0 1-.6-.21.57.57 0 0 1 .36-.91.59.59 0 0 1 .45.1Zm-4.25-3.3a.57.57 0 0 1-.14.76.59.59 0 0 1-.79-.08.57.57 0 0 1 .12-.8.59.59 0 0 1 .81.11Z" fill="#FFCC01"/><path d="M35.87 40.03a.5.5 0 0 0-.34.42.48.48 0 0 0 .26.47.5.5 0 0 0 .7-.28.48.48 0 0 0-.24-.58.5.5 0 0 0-.38-.03Zm-4.62.12a.5.5 0 0 0-.48.27.49.49 0 0 0 .08.55.5.5 0 0 0 .87-.3.5.5 0 0 0-.13-.36.5.5 0 0 0-.34-.16Zm3.74-4.44a.33.33 0 0 0-.24.28.32.32 0 0 0 .17.32.33.33 0 0 0 .48-.19.32.32 0 0 0-.06-.3.33.33 0 0 0-.35-.1Zm-.72.76a.35.35 0 0 0-.27.28.35.35 0 0 0 .15.35.35.35 0 0 0 .52-.16.34.34 0 0 0-.13-.42.35.35 0 0 0-.27-.05Zm-.77-.59a.33.33 0 0 0-.32.19.32.32 0 0 0 .05.36.33.33 0 0 0 .58-.2.33.33 0 0 0-.31-.35Zm-.83.63a.36.36 0 0 0-.36.17.35.35 0 0 0 .18.51.36.36 0 0 0 .39-.1.35.35 0 0 0 .09-.18.35.35 0 0 0-.07-.26.36.36 0 0 0-.23-.14Zm-3.09 1.53a.44.44 0 0 0-.48.09.43.43 0 0 0 .3.75.44.44 0 0 0 .41-.27.43.43 0 0 0-.22-.57Zm.7 1.07a.47.47 0 0 0-.57.38.46.46 0 0 0 .25.48c.05.03.12.05.18.05a.47.47 0 0 0 .5-.2.46.46 0 0 0-.18-.66.47.47 0 0 0-.18-.05Zm1.21-.62a.44.44 0 0 0-.32.11.43.43 0 0 0 .27.76.44.44 0 0 0 .43-.25.43.43 0 0 0-.38-.62Zm1 .95a.47.47 0 0 0-.47.21.46.46 0 0 0 .25.68.47.47 0 0 0 .5-.13c.06-.07.1-.15.11-.24a.43.43 0 0 0-.21-.47.44.44 0 0 0-.18-.05Zm1.1-.83a.45.45 0 0 0-.43.24.43.43 0 0 0 .07.49.44.44 0 0 0 .76-.3.43.43 0 0 0-.11-.3.44.44 0 0 0-.3-.13Zm1.03.77a.47.47 0 0 0-.36.36.46.46 0 0 0 .2.48.47.47 0 0 0 .69-.21.46.46 0 0 0-.18-.56.47.47 0 0 0-.35-.07Zm.93-1a.44.44 0 0 0-.22.52.44.44 0 0 0 .47.3.44.44 0 0 0 .23-.5.44.44 0 0 0-.47-.3Zm-.3-1.5a.38.38 0 0 0-.28.33.37.37 0 0 0 .2.37.38.38 0 0 0 .54-.22.37.37 0 0 0-.07-.35.37.37 0 0 0-.4-.12Zm-.81.88a.4.4 0 0 0-.32.32.4.4 0 0 0 .17.4.4.4 0 0 0 .56-.11.4.4 0 0 0 .06-.3.4.4 0 0 0-.17-.28.4.4 0 0 0-.32-.06l.02.03Zm-.89-.67a.38.38 0 0 0-.35.21.37.37 0 0 0 .24.52.38.38 0 0 0 .4-.13.37.37 0 0 0-.29-.6Zm-.96.71a.4.4 0 0 0-.4.2.4.4 0 0 0 .21.58.41.41 0 0 0 .44-.13.4.4 0 0 0-.25-.65Zm-.88-.82a.38.38 0 0 0-.36.2.37.37 0 0 0 .06.42.37.37 0 0 0 .4.1.37.37 0 0 0 .26-.33.37.37 0 0 0-.22-.35.38.38 0 0 0-.14-.04Zm-1.05.54a.4.4 0 0 0-.42.19.4.4 0 0 0 .22.58.4.4 0 0 0 .44-.12.4.4 0 0 0 .01-.5.4.4 0 0 0-.25-.15Zm3.43-2.55a.3.3 0 0 0-.23.23.29.29 0 0 0 .13.3.3.3 0 0 0 .44-.13.29.29 0 0 0-.11-.36.3.3 0 0 0-.23-.04Zm.6-.64a.27.27 0 0 0 .05.53.28.28 0 0 0 .27-.13.27.27 0 0 0-.22-.4h-.1Zm.21 7.03c.14 0 .27.06.36.16a.53.53 0 0 1-.33.9.55.55 0 0 1-.55-.3.53.53 0 0 1 .3-.73.55.55 0 0 1 .22-.03Zm-2.6.07a.55.55 0 0 1 .5.31.53.53 0 0 1-.1.6.54.54 0 0 1-.9-.57.53.53 0 0 1 .5-.34Zm-2.42-.36a.54.54 0 0 1 .36.47.53.53 0 0 1-.3.51.54.54 0 0 1-.59-.07.53.53 0 0 1 .53-.9Zm6.52 1.1a.59.59 0 0 1 .57.3.57.57 0 0 1-.32.82.59.59 0 0 1-.63-.17.57.57 0 0 1 .38-.95Zm-5.4.18c.14.04.25.14.33.26a.57.57 0 0 1-.19.76.59.59 0 0 1-.8-.15.57.57 0 0 1 .42-.9c.08 0 .16 0 .24.03Z" fill="#FF6601"/><path d="M41.89 32.5a.49.49 0 0 0 .14.68.5.5 0 0 0 .76-.32.48.48 0 0 0-.21-.5.5.5 0 0 0-.69.14Zm-3.47 3.06a.5.5 0 0 0-.18.51.49.49 0 0 0 .4.37.5.5 0 0 0 .5-.24.49.49 0 0 0-.16-.67.5.5 0 0 0-.56.03Zm0-5.78a.32.32 0 0 0 .1.43.33.33 0 0 0 .5-.14.32.32 0 0 0-.26-.45.33.33 0 0 0-.34.16Zm-.05 1.03a.35.35 0 0 0 .32.57.36.36 0 0 0 .3-.25.35.35 0 0 0-.12-.37.36.36 0 0 0-.5.05Zm-.97.05a.33.33 0 0 0 .15.58c.08.01.17 0 .24-.06a.33.33 0 0 0-.15-.59.33.33 0 0 0-.24.07Zm-.23 1a.35.35 0 0 0-.16.36.35.35 0 0 0 .26.28.36.36 0 0 0 .43-.25.35.35 0 0 0-.04-.27.35.35 0 0 0-.36-.16.35.35 0 0 0-.13.05ZM35.81 35a.44.44 0 0 0-.32.37.43.43 0 0 0 .22.43.44.44 0 0 0 .64-.26.43.43 0 0 0-.22-.5.44.44 0 0 0-.32-.04Zm1.22.38a.46.46 0 0 0-.18.61.47.47 0 0 0 .85-.14.46.46 0 0 0-.34-.55.47.47 0 0 0-.35.06l.02.02Zm.53-1.25a.43.43 0 0 0 .22.72.44.44 0 0 0 .53-.32.43.43 0 0 0-.22-.5.44.44 0 0 0-.53.1Zm1.38.08a.46.46 0 0 0-.22.47.46.46 0 0 0 .19.3.47.47 0 0 0 .72-.27.46.46 0 0 0-.34-.55.47.47 0 0 0-.35.05Zm.3-1.3a.44.44 0 0 0-.17.45.43.43 0 0 0 .36.33.44.44 0 0 0 .44-.21.43.43 0 0 0-.03-.49.44.44 0 0 0-.6-.09Zm1.28-.07a.46.46 0 0 0 .41.74.46.46 0 0 0 .4-.33.45.45 0 0 0-.16-.48.46.46 0 0 0-.65.07Zm.06-1.35a.43.43 0 0 0 .1.58.44.44 0 0 0 .66-.2.43.43 0 0 0-.1-.47.44.44 0 0 0-.68.07l.02.02Zm-1.2-.95a.37.37 0 0 0 .17.55.38.38 0 0 0 .4-.09.37.37 0 0 0-.2-.62.38.38 0 0 0-.38.16Zm-.06 1.17a.4.4 0 0 0 .14.6.4.4 0 0 0 .45-.06.4.4 0 0 0-.04-.62.4.4 0 0 0-.57.06l.02.02Zm-1.11.06a.37.37 0 0 0-.14.39c.01.04.03.09.06.13a.37.37 0 0 0 .4.14.38.38 0 0 0 .28-.31.37.37 0 0 0-.07-.28.38.38 0 0 0-.53-.07Zm-.26 1.14a.4.4 0 0 0-.19.4.4.4 0 0 0 .3.33.4.4 0 0 0 .43-.16.4.4 0 0 0-.24-.61.4.4 0 0 0-.3.04Zm-1.2-.07a.37.37 0 0 0-.13.39.37.37 0 0 0 .3.27.38.38 0 0 0 .38-.18.37.37 0 0 0-.02-.4.38.38 0 0 0-.53-.08Zm-.44 1.08a.4.4 0 0 0-.12.56.4.4 0 0 0 .56.12.4.4 0 0 0 .18-.41.4.4 0 0 0-.16-.26.41.41 0 0 0-.46-.01Zm.95-4.17a.3.3 0 0 0-.03.34.3.3 0 0 0 .53-.02.3.3 0 0 0-.18-.4.3.3 0 0 0-.32.08Zm.05-.87a.27.27 0 0 0 .08.38.27.27 0 0 0 .38-.08.27.27 0 0 0-.26-.47.28.28 0 0 0-.18.17h-.02Zm4.72 5.23a.54.54 0 0 1 .9.43.53.53 0 0 1-.36.48.55.55 0 0 1-.58-.15.54.54 0 0 1 .04-.76Zm-1.95 1.71a.54.54 0 0 1 .9.44.53.53 0 0 1-.37.46.54.54 0 0 1-.57-.14.53.53 0 0 1 .04-.76ZM38 37.1a.54.54 0 0 1 .58.13c.05.05.1.1.12.17a.53.53 0 0 1-.13.59.54.54 0 0 1-.92-.4.53.53 0 0 1 .35-.49Zm5.7-3.28a.58.58 0 0 1 1 .38.57.57 0 0 1-.35.54.58.58 0 0 1-.63-.1.57.57 0 0 1-.02-.82Zm-4.03 3.57a.58.58 0 0 1 .82.36.57.57 0 0 1-.2.6.58.58 0 0 1-.94-.41.56.56 0 0 1 .32-.55Z" fill="#FF0001"/><path d="M41.6 22.91c.03.13.1.23.2.3a.5.5 0 0 0 .68-.07c.08-.1.12-.22.12-.34a.5.5 0 0 0-.19-.33.5.5 0 0 0-.55-.05.5.5 0 0 0-.24.3.49.49 0 0 0-.02.19Zm-.67 4.52a.48.48 0 0 0 .19.51.5.5 0 0 0 .74-.2.48.48 0 0 0-.1-.53.5.5 0 0 0-.61-.08.5.5 0 0 0-.22.3Zm-3.77-4.4a.32.32 0 0 0 .24.27.34.34 0 0 0 .35-.12.32.32 0 0 0-.06-.46.33.33 0 0 0-.46.06.32.32 0 0 0-.07.24Zm.63.82c0 .09.04.17.11.24.07.06.16.1.25.1a.36.36 0 0 0 .32-.36.36.36 0 0 0-.32-.35.36.36 0 0 0-.32.23.35.35 0 0 0-.02.14h-.02Zm-.72.65c-.02.08 0 .17.04.25a.33.33 0 0 0 .45.1.32.32 0 0 0-.1-.6.34.34 0 0 0-.4.24h.01Zm.48.91a.35.35 0 0 0 .23.44.36.36 0 0 0 .38-.1.35.35 0 0 0-.3-.58.35.35 0 0 0-.3.24Zm1 3.27a.44.44 0 0 0-.07.54.44.44 0 0 0 .31.2.44.44 0 0 0 .47-.26.43.43 0 0 0-.12-.58.44.44 0 0 0-.6.12v-.02Zm1.17-.48a.46.46 0 0 0 .31.54.47.47 0 0 0 .57-.25.47.47 0 0 0-.64-.53c-.1.05-.19.13-.24.24Zm-.4-1.31a.43.43 0 0 0 .17.46.44.44 0 0 0 .66-.17.43.43 0 0 0-.08-.49.44.44 0 0 0-.75.2Zm1.12-.81a.43.43 0 0 0 .29.58.47.47 0 0 0 .5-.14.46.46 0 0 0-.12-.7.47.47 0 0 0-.67.26Zm-.64-1.2a.43.43 0 0 0 .17.45.44.44 0 0 0 .66-.17.43.43 0 0 0-.3-.6.44.44 0 0 0-.53.31Zm.94-.88a.46.46 0 0 0 .3.42.47.47 0 0 0 .51-.11.46.46 0 0 0-.1-.71.47.47 0 0 0-.26-.07.44.44 0 0 0-.42.3.43.43 0 0 0-.03.17Zm-.83-1.05a.43.43 0 0 0 .3.38.44.44 0 0 0 .48-.15.43.43 0 0 0-.14-.66.45.45 0 0 0-.54.11c-.08.1-.11.2-.1.32Zm-1.54.04a.37.37 0 0 0 .27.32.38.38 0 0 0 .4-.13.37.37 0 0 0-.13-.57.38.38 0 0 0-.53.23.37.37 0 0 0-.01.15Zm.71.94c0 .1.05.2.13.28a.41.41 0 0 0 .59-.02.4.4 0 0 0-.02-.57.4.4 0 0 0-.29-.1c-.1 0-.2.04-.28.12a.4.4 0 0 0-.1.29h-.03Zm-.8.73a.37.37 0 0 0 .14.38.38.38 0 0 0 .53-.08.37.37 0 0 0 .06-.13.38.38 0 0 0-.28-.44.37.37 0 0 0-.44.28l-.01-.01Zm.54 1.04a.4.4 0 0 0 .27.48.4.4 0 0 0 .5-.22.4.4 0 0 0-.26-.48.4.4 0 0 0-.5.22Zm-.96.7a.37.37 0 0 0 .28.44.38.38 0 0 0 .44-.28.38.38 0 0 0-.28-.43.37.37 0 0 0-.44.28v-.01Zm.35 1.12a.4.4 0 0 0 .12.44.4.4 0 0 0 .61-.1.4.4 0 0 0-.22-.59.4.4 0 0 0-.51.25Zm-1.94-3.79a.3.3 0 0 0 .17.3.3.3 0 0 0 .41-.17.3.3 0 0 0 .01-.13.29.29 0 0 0-.19-.26.3.3 0 0 0-.11-.02.3.3 0 0 0-.27.19.29.29 0 0 0-.02.1Zm-.53-.7a.28.28 0 0 0 .3.24c.07-.01.14-.05.19-.1a.27.27 0 0 0 .06-.2.28.28 0 0 0-.1-.18.28.28 0 0 0-.2-.06.28.28 0 0 0-.2.1.27.27 0 0 0-.05.2Zm7.03 1.02a.53.53 0 0 1 .4-.43.54.54 0 0 1 .57.2.53.53 0 0 1-.22.8.54.54 0 0 1-.66-.17.53.53 0 0 1-.1-.4Zm-.39 2.55a.55.55 0 0 1 .61-.44.55.55 0 0 1 .38.21.53.53 0 0 1-.31.86.55.55 0 0 1-.22 0 .54.54 0 0 1-.35-.22.53.53 0 0 1-.1-.39v-.02Zm-.77 2.3a.54.54 0 0 1 .53-.28.54.54 0 0 1 .47.38.53.53 0 0 1-.18.57.55.55 0 0 1-.86-.26.53.53 0 0 1 .04-.4Zm2.23-6.16a.57.57 0 0 1 .39-.51.59.59 0 0 1 .62.16.57.57 0 0 1-.47.96.58.58 0 0 1-.4-.2.57.57 0 0 1-.14-.4v-.01Zm-.77 5.3a.58.58 0 0 1 .54-.35.59.59 0 0 1 .54.37.57.57 0 0 1-.14.62.58.58 0 0 1-.94-.2.57.57 0 0 1 0-.44Z" fill="#9E2878"/><path d="M35.16 15.74a.5.5 0 0 0 .84-.35.48.48 0 0 0-.3-.45.5.5 0 0 0-.65.26.48.48 0 0 0 .11.54Zm2.42 3.92a.5.5 0 0 0 .48.27.5.5 0 0 0 .43-.34.49.49 0 0 0-.14-.53.5.5 0 0 0-.83.41c0 .07.03.13.06.19Zm-5.75-1a.33.33 0 0 0 .42-.06.32.32 0 0 0-.1-.51.33.33 0 0 0-.39.07.33.33 0 0 0-.03.4l.1.1Zm1.01.22a.36.36 0 0 0 .62-.23.35.35 0 0 0-.21-.33.36.36 0 0 0-.4.07.36.36 0 0 0 0 .5Zm-.12.98a.33.33 0 0 0 .32.18.33.33 0 0 0 .3-.23.32.32 0 0 0-.11-.35.33.33 0 0 0-.37-.04.33.33 0 0 0-.17.2.32.32 0 0 0 .02.24h.01Zm.97.4a.35.35 0 0 0 .44.2.36.36 0 0 0 .24-.32.35.35 0 0 0-.2-.34.36.36 0 0 0-.4.07.35.35 0 0 0-.08.39Zm2.88 1.87a.43.43 0 0 0 .31.38.45.45 0 0 0 .47-.15.43.43 0 0 0-.15-.66.44.44 0 0 0-.54.12c-.07.09-.1.2-.1.31Zm.58-1.12a.46.46 0 0 0 .43.29c.06 0 .12-.01.18-.04a.44.44 0 0 0 .26-.23.43.43 0 0 0 0-.36.47.47 0 0 0-.43-.3.48.48 0 0 0-.44.28.47.47 0 0 0-.01.36h.01ZM36 20.25a.44.44 0 0 0 .43.25.44.44 0 0 0 .39-.3.43.43 0 0 0-.13-.47.44.44 0 0 0-.7.2c-.05.1-.04.22.01.32Zm.33-1.3c.05.1.14.2.25.25a.47.47 0 0 0 .5-.1.46.46 0 0 0 .11-.5.44.44 0 0 0-.42-.3.45.45 0 0 0-.18.05.46.46 0 0 0-.3.42c0 .06.02.12.04.18Zm-1.27-.55a.44.44 0 0 0 .58.2.44.44 0 0 0 .25-.43.43.43 0 0 0-.3-.38.45.45 0 0 0-.47.13.43.43 0 0 0-.06.48Zm.16-1.26a.47.47 0 0 0 .82-.27.46.46 0 0 0-.26-.45.47.47 0 0 0-.52.08.44.44 0 0 0-.14.5l.1.14Zm-1.32-.3a.44.44 0 0 0 .76-.3.43.43 0 0 0-.28-.4.44.44 0 0 0-.48.1.43.43 0 0 0 0 .6Zm-1.16 1.02a.38.38 0 0 0 .53-.02.37.37 0 0 0-.02-.53.38.38 0 0 0-.61.13.37.37 0 0 0 .08.4l.02.02Zm1.16.26a.4.4 0 0 0 .57.03.4.4 0 0 0 .03-.56.4.4 0 0 0-.7.24.4.4 0 0 0 .1.29Zm-.16 1.09a.37.37 0 0 0 .5.16.38.38 0 0 0 .22-.21.37.37 0 0 0-.25-.5.38.38 0 0 0-.3.05.37.37 0 0 0-.21.36c0 .05.02.1.04.14Zm1.1.43a.4.4 0 0 0 .36.26.4.4 0 0 0 .38-.23.4.4 0 0 0-.08-.44.4.4 0 0 0-.44-.09.4.4 0 0 0-.25.36c0 .06 0 .1.03.16v-.02Zm-.29 1.16a.38.38 0 0 0 .36.21.38.38 0 0 0 .34-.24.37.37 0 0 0-.1-.4.38.38 0 0 0-.41-.07.37.37 0 0 0-.17.5h-.02Zm1 .63a.4.4 0 0 0 .37.26l.15-.03a.4.4 0 0 0 .25-.5.4.4 0 0 0-.53-.22.4.4 0 0 0-.22.21.4.4 0 0 0 0 .31l-.02-.03Zm-3.97-1.67a.3.3 0 0 0 .33.09.3.3 0 0 0 .2-.27.3.3 0 0 0-.17-.28.3.3 0 0 0-.43.25.3.3 0 0 0 .07.21Zm-.85-.19a.28.28 0 0 0 .39 0 .27.27 0 0 0-.01-.4.27.27 0 0 0-.3-.06.27.27 0 0 0-.1.06.27.27 0 0 0 0 .39l.02.01Zm6.1-3.68a.53.53 0 0 1 .2-.7.55.55 0 0 1 .8.34.53.53 0 0 1-.45.65.55.55 0 0 1-.56-.3Zm1.35 2.18a.53.53 0 0 1 .28-.78.55.55 0 0 1 .59.14.53.53 0 0 1-.32.9.54.54 0 0 1-.55-.26Zm.89 2.25a.53.53 0 0 1 .44-.63c.14-.02.28 0 .4.08a.54.54 0 0 1 .15.74c-.08.12-.2.2-.34.23a.55.55 0 0 1-.55-.24.53.53 0 0 1-.08-.2l-.02.02Zm-2.3-6.13a.57.57 0 0 1 .15-.76.59.59 0 0 1 .9.29.57.57 0 0 1-.21.63.59.59 0 0 1-.84-.16Zm2.85 4.55a.56.56 0 0 1 .19-.6.58.58 0 0 1 .87.16.57.57 0 0 1-.06.63.58.58 0 0 1-1-.2Z" fill="#666"/></svg>