<!-- by TradingView --><svg width="56" height="56" viewBox="0 0 56 56" xmlns="http://www.w3.org/2000/svg"><path fill="#F0F3FA" d="M0 0h56v56H0z"/><path d="M32.45 13.02c.32.08.51.38.43.68-2.75 10.33.27 20.22 2.8 25.95l.27.57c.13.29-.02.62-.33.74a.63.63 0 0 1-.8-.3l-.24-.57c-2.9-6.05-7.6-10.22-12.06-12.98a30.84 30.84 0 0 1-6.2 3.4.61.61 0 0 1-.79-.3c-.13-.28.02-.61.32-.74 2.1-.85 3.95-1.88 5.59-3.01a40.2 40.2 0 0 0-6.98-3.18c-.32-.11-.51-.42-.45-.73a.66.66 0 0 1 .71-.5c2.13.15 5.76.63 7.86.93.33.04.55.33.5.63-.05.31-.36.52-.69.48-1.12-.16-2.67-.37-4.19-.55 1.33.59 2.77 1.31 4.25 2.19 5.37-4.05 8.3-9.43 9.25-12.31.1-.3.43-.48.75-.4Zm-1.76 5.34a29.43 29.43 0 0 1-7.18 8.01 34.62 34.62 0 0 1 8.88 7.95c-1.4-4.49-2.4-10-1.7-15.96Z" fill="#F58C30"/><circle cx="33.5" cy="10.5" r="1.5" fill="#54668C"/><circle cx="36.5" cy="43.5" r="1.5" fill="#54668C"/><circle cx="13.5" cy="31.5" r="1.5" fill="#54668C"/></svg>