<!-- by TradingView --><svg width="56" height="56" viewBox="0 0 56 56" xmlns="http://www.w3.org/2000/svg"><path fill="#F0F3FA" d="M0 0h56v56H0z"/><path d="M43.45 36v-7H48v1h-3.29v2h3.03v1H44.7v2H48v1h-4.55ZM25 36v-7h4.55v1h-3.3v2h3.03v1h-3.02v2h3.29v1H25ZM14 36v-7h4.55v1h-3.3v2h3.03v1h-3.02v2h3.29v1H14ZM37.9 29l1.75 5.51h.07L41.46 29h1.33l-2.36 7h-1.5l-2.35-7h1.33ZM31 36v-7h2.51c.51 0 .95.1 1.3.28.35.19.61.45.79.79.18.33.27.72.27 1.17 0 .45-.1.84-.27 1.17-.19.33-.45.58-.8.76-.36.18-.8.27-1.3.27h-1.8v-1.06h1.63c.3 0 .55-.04.74-.13a.9.9 0 0 0 .42-.38c.1-.17.14-.38.14-.63 0-.75-.57-1.24-1.3-1.24H32.2v6H31Zm3.46-3.17L36.12 36h-1.36l-1.63-3.17h1.33ZM23.03 30.96a.91.91 0 0 0-.39-.67 1.46 1.46 0 0 0-.87-.25c-.25 0-.47.04-.65.12a.96.96 0 0 0-.42.32.78.78 0 0 0-.05.82c.07.1.15.2.27.26.1.08.23.14.36.18.14.05.28.1.41.13l.63.16c.25.06.5.14.73.24.23.1.45.23.63.38a1.71 1.71 0 0 1 .6 1.33c0 .4-.1.76-.3 1.06a2 2 0 0 1-.86.7c-.38.18-.84.26-1.37.26-.52 0-.97-.08-1.36-.25-.38-.16-.68-.4-.9-.71-.2-.32-.32-.7-.34-1.15h1.2a1.04 1.04 0 0 0 .7.94c.2.08.44.12.69.12.26 0 .5-.04.7-.12.2-.08.35-.2.46-.34a.83.83 0 0 0 .18-.51.66.66 0 0 0-.16-.44c-.1-.12-.24-.22-.42-.3a4.02 4.02 0 0 0-.63-.2l-.76-.2a3.05 3.05 0 0 1-1.3-.66c-.32-.3-.48-.69-.48-1.17 0-.4.1-.76.32-1.06.21-.3.5-.53.88-.7a3 3 0 0 1 1.25-.25c.48 0 .9.08 1.25.25.36.17.64.4.85.7.2.3.31.63.32 1.01h-1.17ZM8 36v-7h2.51c1.35 0 2.36.85 2.36 2.24 0 .45-.1.84-.27 1.17-.19.33-.45.58-.8.76-.36.18-.8.27-1.3.27H8.7v-1.06h1.63c.3 0 .55-.04.74-.13a.9.9 0 0 0 .42-.38c.1-.17.14-.38.14-.63 0-.75-.57-1.24-1.3-1.24H9.2v6H8Zm3.46-3.17L13.12 36h-1.36l-1.63-3.17h1.33ZM44.45 19v7h-1.07l-3.12-4.77h-.06V26H39v-7h1.08l3.12 4.77h.06V19h1.2ZM30.55 26l-1.89-7h1.3l1.21 5.14h.07L32.52 19h1.2L35 24.15h.06l1.2-5.15h1.31l-1.89 7h-1.2l-1.33-4.91h-.06L31.75 26h-1.2ZM28.06 22.5c0 .73-.14 1.36-.41 1.89A2.9 2.9 0 0 1 24.98 26c-.59 0-1.11-.14-1.58-.42a2.95 2.95 0 0 1-1.1-1.2 4.09 4.09 0 0 1-.4-1.88c0-.73.14-1.36.4-1.88A2.93 2.93 0 0 1 24.99 19a2.9 2.9 0 0 1 2.67 1.62c.27.52.4 1.15.4 1.88Zm-1.22 0c0-.52-.08-.95-.24-1.3a1.8 1.8 0 0 0-.66-.82c-.28-.18-.6-.27-.96-.27a1.71 1.71 0 0 0-1.62 1.08c-.16.36-.24.8-.24 1.31 0 .52.08.95.24 1.31a1.73 1.73 0 0 0 1.62 1.08c.36 0 .68-.09.96-.27.28-.18.5-.45.66-.8.16-.37.24-.8.24-1.32ZM16 26v-7h2.51c.51 0 .95.1 1.3.28.35.19.61.45.79.79.18.33.27.72.27 1.17 0 .45-.1.84-.27 1.17-.19.33-.45.58-.8.76-.36.18-.8.27-1.3.27h-1.8v-1.06h1.63c.3 0 .55-.04.74-.13a.9.9 0 0 0 .42-.38c.1-.17.14-.38.14-.63 0-.75-.57-1.24-1.3-1.24H17.2v6H16Zm3.46-3.17L21.12 26h-1.36l-1.63-3.17h1.33ZM15.4 21.4h-1.22a1.57 1.57 0 0 0-.54-.96c-.14-.1-.3-.19-.48-.25a1.83 1.83 0 0 0-.57-.08 1.71 1.71 0 0 0-1.63 1.09c-.16.35-.24.79-.24 1.3 0 .52.08.96.24 1.32.16.35.38.62.66.8a1.92 1.92 0 0 0 1.53.19 1.53 1.53 0 0 0 .83-.63c.1-.16.16-.34.2-.54l1.22.01A2.71 2.71 0 0 1 12.57 26a2.88 2.88 0 0 1-2.67-1.62 4.12 4.12 0 0 1-.4-1.88c0-.73.14-1.36.4-1.88A2.9 2.9 0 0 1 12.58 19c.37 0 .72.05 1.04.16a2.65 2.65 0 0 1 1.47 1.22c.17.3.27.63.32 1.01Z"/></svg>