<!-- by TradingView --><svg width="56" height="56" viewBox="0 0 56 56" xmlns="http://www.w3.org/2000/svg"><path fill="url(#a)" d="M0 0h56v56H0z"/><path d="M13.2 36c-.32-.32-.56-.69-1.03-1.01a.16.16 0 0 1-.04-.04l-.58-.85a.26.26 0 0 0-.21-.12c-.24 0-.36-.18-.34-.54l.02-.08a.16.16 0 0 1 .05-.05c.34-.22.91-1.07 1.52-1.03.05 0 .09.01.13.03.04.02.07.05.1.09l.02.04.02.02a.06.06 0 0 0 .07 0l.41-.36a.15.15 0 0 0 .05-.12c0-.14-.04-.3-.1-.47-.07-.21-.02-.29 0-.47v-.16c-.18-.8-.32-1.58-.42-2.35a7.8 7.8 0 0 1 .02-2.2c.47-3.01 1.4-5.84 3.24-8.23 2.23-2.9 5.54-4.92 9.14-5.1.64-.03 1.09.16 1.35.57.59.9.9 3.24.1 4.12a2.3 2.3 0 0 1-.92.51c-.65.23-2.54.7-3.67 1.46a.32.32 0 0 0-.1.12c-.41.72-.84 1.06-1.55 1.72-.4.38-.6.82-.64 1.33 0 .06-.03.12-.07.16l-.2.23a.45.45 0 0 0-.08.12l-.63 1.38a.14.14 0 0 0 0 .11c.17.39.16.96-.02 1.72-.04.18-.08.31-.12.4a.23.23 0 0 1-.1.1.22.22 0 0 1-.13.03l-.3-.04c-.03 0-.06 0-.08.02a.13.13 0 0 0-.05.07c-.07.21-.09.39-.07.52 0 .05.03.1.06.15.24.4.26.8.06 1.22a.2.2 0 0 0 0 .18 2.66 2.66 0 0 1 .24.95l.01.01h.03c.52-.32 1.17-.69 1.75-.38a.4.4 0 0 1 .12.1c.31.37.54.62.67.75.35.34.39.63.3 1.09-.06.26-.04.41.13.6a.12.12 0 0 1 .03.1.12.12 0 0 1-.06.1c-.33.2-.69.31-1.06.33-.1 0-.27.1-.48.3a.12.12 0 0 0-.04.1.12.12 0 0 0 .06.09c.05.03.08.05.09.08.02.04 0 .09-.04.14a2 2 0 0 1-.88.66.1.1 0 0 0-.02.12c.3.59.6 1.15.9 1.68 1.94 3.39 6.3 4.66 9.92 5 .03 0 .06.02.08.04.02.01.04.04.05.07a.17.17 0 0 1-.04.17c-.49.49-1.6.66-2.27.69a14.24 14.24 0 0 1-3.94-.37c-.55.04-.93 0-1.14-.13-.35-.22-.72-.43-1.1-.63a.3.3 0 0 0-.13-.04c-.05 0-.1.01-.13.03a.26.26 0 0 0-.14.21l.1.17a.1.1 0 0 1 .02.1.1.1 0 0 1-.03.04.1.1 0 0 1-.05.02c-.57.1-1.12-.46-1.67-.99a.79.79 0 0 0-.18-.13c-.29-.15-.58-.31-.49-.67a.15.15 0 0 0-.07-.17 5.8 5.8 0 0 1-2.3-2.43c-.06-.1-.14-.33-.25-.72a.48.48 0 0 0-.11-.2l-.86-.87a.1.1 0 0 0-.12-.02l-1.2.59h-.01c-.21.05-.36.12-.45.21a.1.1 0 0 1-.15 0Z" fill="#191917" fill-opacity=".99"/><path d="M29.5 41.35c-.43.19-.98.38-1.5.42-1.58.13-3.09 0-4.54-.41a.23.23 0 0 0-.16.01c-.21.1-.41.1-.62 0-.15-.06-.52-.27-1.12-.63-.22-.13-.77-.07-.66.35a.13.13 0 0 1-.04.13.12.12 0 0 1-.13.02 4.06 4.06 0 0 1-1.22-.97l-.55-.35a.18.18 0 0 1-.04-.25.17.17 0 0 1 .06-.06l.28-.11.02-.02a.06.06 0 0 0-.01-.07l-.03-.02c-1.1-.03-2.32-1.62-2.8-2.55a.65.65 0 0 1-.05-.15c-.2-.86-.83-1.28-1.58-1.99-.27-.25-.4-.56-.4-.9a.44.44 0 0 0-.05-.23c-.26-.48-.47-1-.63-1.58-.3-1.09-.53-2.22-.69-3.38-.1-.74-.1-1.5.01-2.28.74-5.26 3.27-9.7 7.94-12.02 1.44-.72 2.9-1.1 4.4-1.14.63-.01 1.06.28 1.3.89.26.71.37 1.49.31 2.32-.05.77-.28 1.32-1 1.57-1.29.44-2.76.77-3.92 1.53a.52.52 0 0 0-.16.17c-.3.52-.79 1.07-1.46 1.66-.43.37-.7.86-.8 1.45a.42.42 0 0 1-.08.2l-.19.24a.19.19 0 0 0-.02.04l-.7 1.5a.16.16 0 0 0 0 .13c.04.1.12.2.14.36a4.27 4.27 0 0 1-.23 1.61.23.23 0 0 1-.07.06.2.2 0 0 1-.09.03c-.03 0-.06 0-.09-.02a.47.47 0 0 0-.19-.04c-.03 0-.06 0-.1.02a.17.17 0 0 0-.05.08c-.26.56-.12.75.1 1.32.02.06.02.13 0 .19l-.15.6c-.02.06-.01.12.01.17a2.2 2.2 0 0 1 .23.93l.7 1.86a.23.23 0 0 1-.03.2c-.54.8-.52 1.57.05 2.34l.06.11c.5.97.8 1.53.91 1.7a9.77 9.77 0 0 0 4.3 3.45 18.37 18.37 0 0 0 5.36 1.36.1.1 0 0 1 .02.12.1.1 0 0 1-.05.03Z" fill="#fff"/><path d="M38.96 31.21c-1.16.1-2.2.36-3.12.78-.32.14-.56.47-.66.81-.26.98-.47 1.7-1.46 2.1-3.3 1.3-6.65 1.82-9.52-.85-.26-.25-.5-.61-.7-1.1-.07-.15-.18-.25-.24-.37a.16.16 0 0 1 0-.17l.35-.52a.27.27 0 0 0-.06-.36c-.18-.14-.31-.3-.41-.48a.27.27 0 0 1-.03-.18c.03-.14.14-.24.32-.3a.26.26 0 0 1 .17 0 10 10 0 0 0 2.38.52c.74.09 1.39.1 1.93.02.31-.05.93-.22 1.87-.53 2.07-.67 3.7-1.14 4.92-1.41a9.91 9.91 0 0 1 1.95-.12L39 28.6l.03-.02.01-.03c.02-.8-.07-1.48-.26-2.02a3.28 3.28 0 0 1-.2-.86 4.11 4.11 0 0 0-.2-1.2c-.15-.3-.02-.76-.35-1.01a1.38 1.38 0 0 1-.36-.44 3.98 3.98 0 0 0-.77-.97c-.23-.21-.35-.47-.5-.66a.8.8 0 0 0-.18-.17 6.96 6.96 0 0 0-.96-.5c-.33-.15-.48-.41-.45-.8 0-.03.01-.05.03-.08a.15.15 0 0 1 .06-.05h.02a.05.05 0 0 0 .03-.04.05.05 0 0 0 0-.05c-.31-.43-.68-.63-1.1-.59a.24.24 0 0 1-.17-.06c-.5-.43-1.05-.76-1.7-.73a.1.1 0 0 0-.06.03.11.11 0 0 0-.03.07l-.03.24a.1.1 0 0 1-.04.07.1.1 0 0 1-.08.02 1.4 1.4 0 0 1-.81-.46.3.3 0 0 1-.07-.14c-.03-.2-.16-.3-.4-.32l-.7-.03a.33.33 0 0 1-.2-.07c-.4-.32-.76-1.27-.22-1.61.1-.07.38-.1.8-.08.42.02.74 0 .96-.03 1.88-.32 2.73-.52 3.98-.5.46 0 .9.1 1.32.28.29.12.64.42 1.05.9.96 1.1 1.73 2.25 2.32 3.45.04.1.12.18.2.25l1.2.85.08.1c.18.3.33.7.47 1.22.06.25.2.43.39.53a.21.21 0 0 1 .11.15 27.48 27.48 0 0 1 .4 5.34l.03.02 1.9.21a.5.5 0 0 1 .31.17c.08.09.13.21.14.34.03.67-.68 1.6-1.16 2a.23.23 0 0 1-.28.02 2.2 2.2 0 0 0-1.05-.34.1.1 0 0 0-.07.02.1.1 0 0 0-.03.06l-.13.67a.77.77 0 0 1-.05.16l-.54 1.1c-.06.13-.13.43-.2.88a.53.53 0 0 1-.09.24 33.6 33.6 0 0 1-1.94 2.39c-.05.04-.11.13-.2.26l-1.2 1.6c-.27.35-.76.78-1.47 1.31-.15.12-.19.18-.19.36a.16.16 0 0 1-.07.14c-.74.47-1.3.51-2.3.66-.32.05-.77.25-1.34.6a.53.53 0 0 1-.24.08l-.85.05c-.04 0-.07 0-.1-.03a.15.15 0 0 1-.05-.1l-.02-.12a.1.1 0 0 0-.03-.05.1.1 0 0 0-.05-.02l-.73-.14a.15.15 0 0 1-.08-.05.16.16 0 0 1-.02-.19.15.15 0 0 1 .07-.06c.23-.1.52-.14.86-.13a.3.3 0 0 0 .17-.05c.31-.2.49-.32.53-.37.64-.75.94-1.24 1.84-1.51a.29.29 0 0 0 .15-.11l.13-.2c.04-.05.1-.09.16-.11.32-.17.96-.35 1.28-.6.44-.36.78-.7 1.02-1.05.44-.65.72-1.04.83-1.16a.66.66 0 0 0 .15-.24c.1-.26.22-.53.38-.8.32-.54.5-1.1.76-1.8.04-.1.05-.22.04-.33a2.8 2.8 0 0 1 .11-1.12v-.02l-.02-.01h-.02Z" fill="#191917" fill-opacity=".99"/><path d="M35.3 19.87c-.37-.5-.85-1-1.41-.95a.22.22 0 0 1-.17-.05c-.46-.4-1.2-.81-1.83-.7a.17.17 0 0 0-.07.03.18.18 0 0 0-.05.06.48.48 0 0 0-.05.2.1.1 0 0 1-.03.08.08.08 0 0 1-.08.01 1.46 1.46 0 0 1-.45-.23c-.06-.04-.1-.15-.1-.32-.01-.13-.12-.21-.33-.25-.43-.1-.75-.13-.93-.1a.2.2 0 0 1-.18-.06c-.3-.31-.42-.65-.38-1.02a.4.4 0 0 1 .13-.24c.06-.07.15-.1.24-.1 1.64.04 3.16-.36 4.63-.53.76-.09 2.01-.01 2.6.6a15.04 15.04 0 0 1 2.75 3.87c.08.15.2.29.34.39l1 .73c.16.1.27.26.34.43.2.52.26 1.11.74 1.5.05.05.09.11.1.18a30.87 30.87 0 0 1 .34 5.36l.04.02c.73.06 1.37.13 1.93.2 1.08.13-.3 1.89-.6 2.16a.19.19 0 0 1-.23.03 2.5 2.5 0 0 0-1.28-.32.13.13 0 0 0-.07.08v.05c.02.73-.37 1.3-.66 1.92-.12.23-.2.52-.23.88a.8.8 0 0 1-.15.37c-.4.55-.87 1.14-1.42 1.75a8 8 0 0 0-.78.99l-1.2 1.56c-.24.3-.7.7-1.37 1.18a.3.3 0 0 0-.09.12l-.11.25a.35.35 0 0 1-.14.16c-.33.2-.6.31-.8.34-1.06.16-1.7.23-2.55.74-.2.1-.45.16-.79.16a.2.2 0 0 1-.15-.08l-.08-.1a.2.2 0 0 0-.16-.08 1 1 0 0 1-.48-.11.07.07 0 0 1-.04-.04.08.08 0 0 1 .03-.09.07.07 0 0 1 .04-.01c.45.01.84-.16 1.16-.52l.95-1.03c.13-.15.44-.3.92-.44a.21.21 0 0 0 .11-.09c.13-.21.24-.33.34-.36a4.2 4.2 0 0 0 2.32-1.72c.37-.56.63-.9.76-1.03l.12-.18c.13-.3.37-.78.7-1.46.13-.23.29-.65.5-1.26.05-.15.08-.31.07-.48-.01-.43.04-.87.17-1.31.07-.25.08-.56.01-.93a4.85 4.85 0 0 0-.42-3.89.84.84 0 0 1-.05-.25c-.04-.66-.18-1.41-.42-2.25a.48.48 0 0 0-.08-.17l-1.83-2.32a7.92 7.92 0 0 0-1.22-.67c-.15-.07-.23-.22-.24-.45a.1.1 0 0 1 .01-.04.1.1 0 0 1 .06-.06h.04c.12.02.18.03.2.02a.09.09 0 0 0 .03-.06.1.1 0 0 0-.01-.07Z" fill="#fff"/><path d="M24.75 27.33c-.01-.61.07-1.26.23-1.93a.34.34 0 0 1 .09-.15.1.1 0 0 0 .02-.05c.05-.3.15-.6.32-.87a4.54 4.54 0 0 1 5.5-1.86c1.43.52 2.08 1.53 2.5 3 .09.28-.01.44-.29.49-.13.02-.5.1-1.1.26a.72.72 0 0 0-.22.09c-.8.5-1.63.73-2.48.72-.12 0-.24.01-.36.04-1.3.32-2.68.44-4.12.36a.1.1 0 0 1-.07-.03.1.1 0 0 1-.02-.07Z" fill="#191917" fill-opacity=".99"/><path d="M25 27.27a.1.1 0 0 1-.07-.03.1.1 0 0 1-.03-.07c0-.72.14-1.38.4-1.98a.5.5 0 0 0 .03-.16c.01-.19.08-.38.2-.57a4.17 4.17 0 0 1 2.85-2.02c1.42-.3 3.17.13 4.1 1.36a5.65 5.65 0 0 1 .79 1.83.18.18 0 0 1-.08.13 5.05 5.05 0 0 1-3.9 1.09c-.07 0-.15 0-.22.03-1.33.32-2.68.45-4.07.4ZM39.07 30.98a.1.1 0 0 1-.03.06 1.3 1.3 0 0 0-3.96 1.62c-.22.63-.36 1.38-.98 1.87a.5.5 0 0 1-.12.07c-1.96.82-4.15 1.42-6.1 1.12-1-.16-1.98-.58-2.93-1.26a3.4 3.4 0 0 1-1-1l-.47-.84a.27.27 0 0 1 .04-.31c.21-.24.3-.47.28-.68-.01-.05-.03-.1-.07-.14l-.4-.4a.17.17 0 0 1-.04-.1.2.2 0 0 1 0-.08.23.23 0 0 1 .29-.14 9 9 0 0 0 5.48.22c1.03-.34 2.07-.66 3.12-.97 1.43-.42 2.43-.67 2.98-.76.24-.04.65-.04 1.23-.01.1 0 .2 0 .3-.02l2.23-.45a.13.13 0 0 1 .1.03.14.14 0 0 1 .06.11l-.03 1.2.01.08c.07.23.07.49 0 .78ZM19.6 33.6l-.57.48a.18.18 0 0 1-.16.03.18.18 0 0 1-.07-.04.19.19 0 0 1-.05-.07c-.3-.72-.02-1.19.3-1.85a.1.1 0 0 0 .01-.08l-.6-1.6a.2.2 0 0 1 .05-.22.19.19 0 0 1 .07-.04l.87-.35a.6.6 0 0 1 .69.16l.82.9c.07.07.11.16.13.26.02.1.02.2 0 .29-.09.27-.08.54.03.82.02.03.02.07 0 .1a.14.14 0 0 1-.06.08c-.46.27-.94.08-1.36.53-.14.16-.17.3-.09.4a.14.14 0 0 1-.02.2ZM13.44 32.14a.1.1 0 0 1 .04-.03.09.09 0 0 1 .1.01 14.14 14.14 0 0 0 .37 1c.1.25.28.48.28.74.01.46.28.83.62 1.1a.1.1 0 0 1 .04.1.1.1 0 0 1-.02.05.1.1 0 0 1-.04.03l-1.49.6a.17.17 0 0 1-.2-.05 8.2 8.2 0 0 0-.5-.56c-.15-.15-.24-.43-.4-.47-.07-.01-.13-.07-.2-.15-.22-.33-.41-.64-.73-.75a.2.2 0 0 1-.09-.06.21.21 0 0 1 .02-.3c.15-.12.43-.38.84-.78.14-.13.3-.19.5-.17.03 0 .07.02.1.05l.2.23a.07.07 0 0 0 .06.03l.03-.01.03-.02.44-.6Z" fill="#fff"/><defs><linearGradient id="a" x1="10.42" y1="9.71" x2="68.15" y2="76.02" gradientUnits="userSpaceOnUse"><stop stop-color="#1A1E21"/><stop offset="1" stop-color="#06060A"/></linearGradient></defs></svg>