<!-- by TradingView --><svg width="56" height="56" viewBox="0 0 56 56" xmlns="http://www.w3.org/2000/svg"><path fill="#F0F3FA" d="M0 0h56v56H0z"/><path d="M16 40h7l-7 7v-7ZM25 22h8v8h-8z" fill="#1E5655"/><path d="m23 23-7 7v9h9l7-7h-9v-9Z" fill="url(#a)"/><path d="m16 28 12-11.76L25 13h-3.68A5.26 5.26 0 0 0 16 18.2V28ZM27 39l11.76-12L42 30v3.68A5.26 5.26 0 0 1 36.8 39H27Z" fill="#1E5655"/><path d="m39 25-4 4v-9h-9l4-4-2.71-3H42v14.74L39 25Z" fill="url(#b)"/><defs><linearGradient id="a" x1="16" y1="30.31" x2="24.72" y2="39" gradientUnits="userSpaceOnUse"><stop stop-color="#504F4D"/><stop offset=".46" stop-color="#EFEFEF"/><stop offset="1" stop-color="#433F3E"/></linearGradient><linearGradient id="b" x1="26" y1="20.31" x2="34.72" y2="29" gradientUnits="userSpaceOnUse"><stop stop-color="#504F4D"/><stop offset=".46" stop-color="#EFEFEF"/><stop offset="1" stop-color="#433F3E"/></linearGradient></defs></svg>