<!-- by TradingView --><svg width="56" height="56" viewBox="0 0 56 56" xmlns="http://www.w3.org/2000/svg"><path fill="#F0F3FA" d="M0 0h56v56H0z"/><ellipse cx="28" cy="28" rx="21" ry="13" fill="#33FFFE"/><path d="M33.7 40.5a33.15 33.15 0 0 1-4.17.44c-.4.09-1.06.05-2.04.05-.07 0-.16-.02-.28-.05a34.72 34.72 0 0 1-5.48-.64c-.04 0-.06-.03-.06-.07.14-.32.4-.51.77-.57a.08.08 0 0 0 .05-.03.07.07 0 0 0 .01-.06 2.54 2.54 0 0 1-.1-.85c0-.17.03-.27.09-.31a.26.26 0 0 1 .2-.04.3.3 0 0 1 .18.12c.3.43.59 1.02 1.19.91.6-.1 1.21-.07 1.82.1.05.02.1.02.15.01.28-.07.68-.45.92-.44a70.5 70.5 0 0 0 .44-.02l.05-.04c.4-.5.91-.74 1.53-.73.06 0 .12.02.17.05l.37.22a.39.39 0 0 0 .4 0c.54-.31.96-.7 1.55-.23.07.06.15.09.24.1.09 0 .18-.02.26-.07.27-.15.55-.21.85-.19a.18.18 0 0 0 .14-.04c.04-.05.1-.1.17-.2a1 1 0 0 1 1.15-.23c.44.2.78.35 1 .43.06.02.12.04.18.04l.76.05c.56.1.4.77.02.99-.43.25-.95.36-1.55.33-.25-.01-.44.1-.57.34-.1.19-.24.4-.4.63ZM40.5 24.97l-.06.02c-.33.38-.26.63.2.76a.2.2 0 0 1 .09.05c.13.12.2.26.2.4a.16.16 0 0 1-.05.13l-.08.06a.16.16 0 0 0-.05.13l.04 1.21-.06 1-1.04-.29c-1.53-2.64-10.75-6.4-9.02 2.07l-.52 1.42c-.11.3-.3.52-.55.67a15.94 15.94 0 0 0-1.29.9c-.46.14-.76.02-.92-.35-.34-.8-.65-1.75-1.19-2.62a.4.4 0 0 0-.06-.08l-1.07-.98c.13-.33.18-.67.15-1.03-.06-.9-.91-1.47-1.68-1.72l-.26-.13-.07-.97c1.3-.62-.07-.17-.04-.75l-.03-.04c-.03-.73.24-1.52 1.08-1.64a.07.07 0 0 0 .06-.1c-.15-.41-.15-1.38.51-1.32a.07.07 0 0 0 .06-.02.07.07 0 0 0 .02-.05c-.03-.37.12-.63.45-.77a.2.2 0 0 1 .17 0c.14.08.26.1.34.1.05-.02.08-.04.1-.07.17-.22.22-.44.16-.65-.16-.52.18-1.1.6-1.32.24-.12.34-.27.5-.4a.43.43 0 0 1 .22-.09c.27-.02.54.04.8.19a.1.1 0 0 0 .13-.03c.2-.24.4-.38.6-.4a.28.28 0 0 0 .24-.24v-.11c-.1-.34-.65-1.2.1-1.25a.37.37 0 0 1 .35.2 3.96 3.96 0 0 1 .2.5.08.08 0 0 0 .11 0l.4-.54c.03-.06.08-.1.13-.14.68-.46 2.07-.4 2.96-.38.26.01.86-.04 1.1.1.47.25.71.13 1.27.06l.23.01c.4.08.78.12 1.14.12.7.01.81.43.9 1.04.06.39 0 .74-.16 1.06a.12.12 0 0 0 .03.15l.8.6c.68.44 1.64 1.21 1.92 1.94l.02.12c-.01.3-.16.47-.46.55a.06.06 0 0 0-.04.04.05.05 0 0 0 .02.05c.27.22.45.5.52.83.03.12 0 .34-.1.66-.13.43-.17.87-.12 1.34ZM11.72 26.6a.59.59 0 0 1-.35-.29.2.2 0 0 0-.12-.1c-.74-.2-.92-.87-.66-1.54a.06.06 0 0 0-.07-.08l-.03.02c-.11.12-.23.17-.36.14a.16.16 0 0 1-.07-.03.18.18 0 0 1-.05-.07.21.21 0 0 1-.01-.09c0-.03 0-.06.02-.08a14.14 14.14 0 0 1 1.7-2.83c.24-.33.57-.53.97-.63a.16.16 0 0 0 .11-.08c.55-1.05 1.57-1.47 2.75-2.13a.12.12 0 0 0 .06-.07.11.11 0 0 0-.02-.1l-.08-.08a.11.11 0 0 1 0-.14c.1-.15.22-.25.36-.28.53-.12 1.2-.23 2.04-.33a.5.5 0 0 0 .17-.06c.68-.36 1.5-.56 2.47-.6.29-.01.6-.12.91-.32.4-.26.93-.05.85.45-.07.41-.6.45-.72.94a3.17 3.17 0 0 1-1.02 1.63.54.54 0 0 0-.11.14c-.26.46-.14 1.54-1.08 1.63a.13.13 0 0 0-.11.09.67.67 0 0 1-.55.46c-.28.05-.42-.19-.74.1a.35.35 0 0 1-.48 0c-.05-.05-.1-.07-.14-.06-.01 0-.03 0-.04.02l-1 .85a.63.63 0 0 1-.23.13c-.43.13-.69.23-.76.3-1.55 1.72-3.23.74-3.6 3.09Z" fill="#FFE133"/><path d="M40.13 19.25c-.09-.25-.34-.39-.56-.31-.22.07-.33.34-.24.59.1.25.34.4.56.31.22-.07.33-.34.24-.59ZM25.64 19.8c.03.28-.04.6-.21.98-.01.02-.02.03-.04.03h-.05c-.45-.2-.2-.86.06-1.09a.15.15 0 0 1 .15-.03.14.14 0 0 1 .09.12ZM40.6 20.01c.74-.09 1.2.81 1.3 1.39.05.32-.02.52-.05.83a.45.45 0 0 1-.23.36l-.27.16a.22.22 0 0 1-.24-.01.21.21 0 0 1-.09-.23c.21-.9.03-1.6-.54-2.1a.22.22 0 0 1 0-.34.23.23 0 0 1 .13-.06ZM16.8 27.83c.02.06.03.14 0 .24-.65 1.76-.6 2.34-2.98 1.78a.1.1 0 0 1-.07-.05.1.1 0 0 1 0-.05v-1.7a.06.06 0 0 1 .09-.06c.27.15.44.38.5.69a.2.2 0 0 0 .1.13c.26.16.54 0 .5-.3l.05-.1c.37.12.73-.44 1.05-.56.24-.08.49-.09.76-.02ZM44.85 29v-.08h-.02v.01l-.01.01h-.01v-.32c.06-.17.17-.3.33-.38a.2.2 0 0 1 .16 0c.29.12.5.33.64.64a.1.1 0 0 1 0 .07.1.1 0 0 1-.04.05c-.35.21-.7.21-1.05 0Z" fill="#FFE133"/><path d="M17.32 29.1c.22-.03.34 0 .36.07-.03.6.02 1.1.16 1.52.11.37.74.65 1.08.72.53.1.8.35.7.86-.15.98-.2 1.76-.35 2.58-.13.7-.14 1.3.29 1.72a1160.1 1160.1 0 0 0 .82.84.1.1 0 0 1-.04.1.1.1 0 0 1-.06.02l-.83-.03c-.02 0-.05 0-.07-.02l-.86-.44h-.01a6.17 6.17 0 0 1-1.83-2.1c-.3-.53-.41-1.14-.83-1.6-.2-.23-.4-.47-.57-.73-.47-.68-.93-1.38-1.37-2.11 2.11-.16 2.2-.08 3.27-1.36l.14-.04ZM41.75 34.1c-.56.01-1.02-.15-1.37-.5-.52-.5-.33-1.16.03-1.69.26-.37.7-.39 1.11-.48.42-.1.66-.27.95-.58a.15.15 0 0 1 .12-.05.15.15 0 0 1 .1.07c.33.43.45.62 1.04.73h.04l1.16-.15a.34.34 0 0 1 .35.18c.02.04.03.08.03.13.05 1.09-.5 1.78-1.35 2.43-.46.36-1.48 1.2-2.04.7-.2-.17-.15-.47-.1-.7a.07.07 0 0 0-.01-.06.08.08 0 0 0-.06-.03ZM31.44 32.33c-.04 0-.08 0-.11.03l-.27-.03a.16.16 0 0 1-.12-.07.15.15 0 0 1-.02-.13l.4-1.08a.11.11 0 0 1 .08-.07.12.12 0 0 1 .1.02c.28.22.82.82.46 1.19a.23.23 0 0 1-.12.06l-.4.08ZM45.55 34.8c.25-.27.28-.64.07-.83-.2-.2-.58-.14-.83.13-.25.26-.28.63-.07.83.2.19.58.13.83-.14ZM44.6 35.1c.09.18.04.35-.15.5-.35.3-.78.44-1.3.42-.18 0-.28-.05-.3-.12-.04-.06 0-.16.1-.3.33-.4.72-.63 1.17-.7.24-.04.4.03.49.2Z" fill="#FFE133"/><path d="m42.26 25 2.13 3.38V30h-1.1l-2.7-4.29-.15-.19a.33.33 0 0 0-.14-.08l-.16-.05a.18.18 0 0 1-.1-.07.17.17 0 0 1-.03-.1.2.2 0 0 1 .04-.12.2.2 0 0 1 .1-.07c.04-.02.16-.03.36-.03h1.75Zm-1.68 1.29.42.64v1.96c0 .17.04.32.1.43.07.1.17.2.3.27l.12.06c.07.04.1.09.1.16 0 .06-.02.1-.07.14-.04.03-.13.05-.26.05h-.93c-.24 0-.36-.06-.36-.2 0-.03.01-.07.04-.1a.75.75 0 0 1 .16-.1c.26-.13.38-.36.38-.7v-2.61Zm3.8 1.5-.38-.66v-1.01a.9.9 0 0 0-.1-.47c-.06-.11-.22-.2-.38-.27a.3.3 0 0 1-.12-.08.18.18 0 0 1-.03-.11c0-.07.02-.11.07-.14a.42.42 0 0 1 .23-.05h1c.13 0 .22.02.26.06.05.04.07.08.07.14 0 .05-.01.09-.04.12a.72.72 0 0 1-.18.1.67.67 0 0 0-.32.3.91.91 0 0 0-.08.4v1.68ZM37 25v4.32c0 .1.02.16.06.2l.05.05c.02 0 .14.01.24.04.12.02.18.1.18.2 0 .06-.03.1-.1.15a.49.49 0 0 1-.23.04h-1.92a.4.4 0 0 1-.2-.05.16.16 0 0 1-.08-.14c0-.1.05-.16.15-.2l.14-.04c.02 0 .04-.02.05-.04.03-.04.05-.1.05-.18v-3.7c0-.08-.02-.14-.05-.18l-.05-.04-.14-.05c-.1-.03-.15-.1-.15-.2 0-.05.02-.1.07-.13a.38.38 0 0 1 .21-.05H37Zm1.22 2.5c.24.03.41.07.54.11.12.04.24.1.34.17.1.07.18.16.24.26s.09.21.09.33v.74c0 .08.02.12.07.12.03 0 .04 0 .05-.02a.44.44 0 0 0 .06-.06c.07-.08.13-.12.2-.12.04 0 .08.02.13.06.04.04.06.09.06.13 0 .07-.04.17-.11.27-.08.1-.17.2-.28.29a.98.98 0 0 1-.34.17 1.5 1.5 0 0 1-.42.05c-.34 0-.6-.09-.78-.27a1.01 1.01 0 0 1-.28-.76v-.83a.47.47 0 0 0-.11-.25.46.46 0 0 0-.31-.15v-.38a.6.6 0 0 0 .29-.1c.05-.05.08-.1.1-.15a.75.75 0 0 0 .03-.25v-.95c0-.15-.03-.26-.1-.34-.06-.07-.17-.13-.33-.17V25h.1c.28 0 .52.01.71.03.3.03.56.12.79.27.33.22.5.54.5.95a1.1 1.1 0 0 1-.67 1.06c-.12.05-.31.12-.57.19ZM27.78 25v4.3c0 .1.02.17.05.2l.06.06.16.04c.11.03.17.1.17.2 0 .07-.03.12-.1.16-.04.03-.11.04-.22.04h-1.81a.47.47 0 0 1-.23-.05.17.17 0 0 1-.08-.15c0-.1.06-.17.17-.2l.16-.04.05-.05c.04-.04.05-.11.05-.2V25h1.57ZM29 25v1.5c0 .07-.02.13-.06.17a.19.19 0 0 1-.15.07.2.2 0 0 1-.15-.06.32.32 0 0 1-.07-.17l-.04-.22a1.6 1.6 0 0 0-.2-.6.77.77 0 0 0-.26-.25V25H29Zm-4 0h.93v.44a.73.73 0 0 0-.26.26c-.1.16-.17.36-.2.59l-.04.22a.3.3 0 0 1-.08.17.2.2 0 0 1-.14.06.2.2 0 0 1-.15-.07.26.26 0 0 1-.06-.17V25ZM21.88 25v.4c-.17.05-.3.1-.38.2a.4.4 0 0 0-.13.3c0 .12.03.22.1.3.08.1.2.18.36.26.11.05.37.16.76.3.24.1.43.18.56.26.13.07.26.16.38.27.31.3.47.64.47 1.04 0 .3-.09.58-.26.83-.17.26-.4.45-.7.6a2.52 2.52 0 0 1-1.07.24v-.4c.24-.05.4-.12.5-.2.11-.1.16-.22.16-.37s-.08-.3-.24-.41a3 3 0 0 0-.6-.29l-.69-.27a2.59 2.59 0 0 1-.35-.2c-.5-.3-.75-.73-.75-1.25a1.5 1.5 0 0 1 .71-1.29c.32-.2.7-.3 1.17-.32Zm.31.4v-.38c.17 0 .3.03.42.05.12.03.29.08.5.16l.14.03c.05 0 .08-.01.1-.05l.1-.1a.2.2 0 0 1 .15-.07c.07 0 .13.02.16.07.03.04.05.11.05.21v1.16c0 .07-.02.13-.07.17a.23.23 0 0 1-.17.07.26.26 0 0 1-.14-.05.25.25 0 0 1-.06-.07.67.67 0 0 1-.04-.13 1.65 1.65 0 0 0-.4-.68c-.2-.2-.44-.32-.74-.38Zm-.52 4.2v.4a1.9 1.9 0 0 1-.73-.17l-.2-.07a.36.36 0 0 0-.11-.02c-.05 0-.1 0-.12.02a.65.65 0 0 0-.13.12c-.05.05-.1.07-.16.07-.15 0-.22-.1-.22-.3v-1.28c0-.07.02-.12.06-.17.05-.04.1-.07.16-.07s.1.01.14.04c.04.04.07.09.09.17a1.92 1.92 0 0 0 .67 1.01c.16.13.34.21.55.25ZM16.9 25h1.6l1.09 4.3c.02.08.04.15.07.2.02.05.08.09.16.12.07.03.11.05.14.08.03.03.04.06.04.11 0 .13-.1.19-.3.19h-1.98a.32.32 0 0 1-.18-.05.17.17 0 0 1-.08-.14c0-.05.02-.09.04-.11a.5.5 0 0 1 .14-.1.28.28 0 0 0 .1-.08.18.18 0 0 0 .04-.1l-.01-.12-.13-.53h-1.1l.1-.43h.9l-.73-2.98.1-.36Zm-.27.93.2.76-.7 2.36a.65.65 0 0 0-.03.2c0 .15.08.26.24.33l.13.05c.1.04.13.1.13.19 0 .12-.1.18-.28.18h-1a.43.43 0 0 1-.24-.05.18.18 0 0 1-.08-.16c0-.07.06-.13.17-.18.11-.04.19-.08.24-.12a.7.7 0 0 0 .15-.14c.07-.1.13-.24.18-.4l.9-3.02Z" fill="#CEB300"/><path d="M13 25v5H11.28a.4.4 0 0 1-.2-.05.17.17 0 0 1-.08-.14c0-.1.05-.17.15-.2l.15-.05.04-.04c.03-.04.05-.1.05-.19v-3.66c0-.09-.02-.15-.05-.19l-.04-.04-.15-.05c-.1-.03-.15-.1-.15-.2 0-.06.02-.1.07-.14a.38.38 0 0 1 .22-.05H13Zm.41 0H15v1.3c0 .07-.02.13-.05.16-.03.04-.07.05-.14.05-.06 0-.1 0-.12-.03a.32.32 0 0 1-.07-.14c-.1-.28-.3-.5-.48-.64a1.33 1.33 0 0 0-.73-.27V25Zm-.01 2.67v-.43a.98.98 0 0 0 .32-.22.75.75 0 0 0 .16-.32.4.4 0 0 1 .08-.2c.03-.03.08-.05.14-.05.08 0 .14.03.17.1l.02.2v1.4c0 .12-.01.2-.04.24-.02.05-.07.07-.14.07a.18.18 0 0 1-.14-.05.38.38 0 0 1-.08-.18.91.91 0 0 0-.19-.38.56.56 0 0 0-.3-.18Zm.02 2.33v-.4a1.25 1.25 0 0 0 .73-.3 1.31 1.31 0 0 0 .45-.66.39.39 0 0 1 .08-.16.17.17 0 0 1 .13-.04c.07 0 .12.02.15.06.03.04.04.1.04.2V30h-1.58ZM32 25v5H30.28a.4.4 0 0 1-.2-.05.17.17 0 0 1-.08-.14c0-.1.05-.17.15-.2l.15-.05.04-.04c.03-.04.05-.1.05-.19v-3.66c0-.09-.02-.15-.05-.19l-.04-.04-.15-.05c-.1-.03-.15-.1-.15-.2 0-.06.02-.1.07-.14a.38.38 0 0 1 .22-.05H32Zm.41 0H34v1.3c0 .07-.02.13-.05.16-.03.04-.07.05-.14.05-.06 0-.1 0-.12-.03a.32.32 0 0 1-.07-.14c-.1-.28-.3-.5-.48-.64a1.33 1.33 0 0 0-.73-.27V25Zm-.01 2.67v-.43a.98.98 0 0 0 .32-.22.75.75 0 0 0 .16-.32.4.4 0 0 1 .08-.2c.03-.03.08-.05.14-.05.08 0 .14.03.17.1l.02.2v1.4c0 .12-.01.2-.04.24-.02.05-.07.07-.14.07a.18.18 0 0 1-.14-.05.38.38 0 0 1-.08-.18.91.91 0 0 0-.19-.38.56.56 0 0 0-.3-.18Zm.02 2.33v-.4a1.25 1.25 0 0 0 .73-.3 1.31 1.31 0 0 0 .45-.66.39.39 0 0 1 .08-.16.17.17 0 0 1 .13-.04c.07 0 .12.02.15.06.03.04.04.1.04.2V30h-1.58Z" fill="#CEB300"/></svg>