<!-- by TradingView --><svg width="56" height="56" viewBox="0 0 56 56" xmlns="http://www.w3.org/2000/svg"><path fill="#F0F3FA" d="M0 0h56v56H0z"/><path d="M33.14 22.54a9.39 9.39 0 0 1-.12-4.78c.17-.82.48-1.6.9-2.31.28-.48.67-.88 1.15-1.16a1.57 1.57 0 0 1 1.22-.17c.13.03.25.1.33.21.08.11.12.25.1.39-.02.28-.06.57-.14.84a7.72 7.72 0 0 0-.24 1.7c0 .7.15 1.41.46 2.06.44.9.98 1.74 1.62 2.51.77.98 1.58 1.93 2.28 2.97a16.5 16.5 0 0 1 1.77 3.35c.34.94.52 1.94.53 2.94.04 1.64-.28 3.26-.93 4.76a8.87 8.87 0 0 1-3.7 4.29c-.48.28-.66.5-1.19.68-.17.05-.18.05-.18-.14V27.4c0-.2 0-.39-.19-.39h-8.86l-.12-.02-.01.03.34.19c1.75.98 2.98 2.17 4.74 3.15.04.02.08.05.1.09.02.04 0 .09 0 .13v11.16l.02 1.14c0 .15-.02.16-.15.09-2.24-1.26-3.95-2.52-6.18-3.78a14907.4 14907.4 0 0 1-10.4-5.85 2.21 2.21 0 0 1-1.07-1.6 2.27 2.27 0 0 1 .56-1.84c.32-.34.73-.57 1.18-.67 0-.05-.05-.06-.08-.07-1.55-1-3.11-1.98-4.67-2.96a2.22 2.22 0 0 1-.98-2.37 2.24 2.24 0 0 1 1.86-1.74c.5-.07 1 .04 1.43.31l5.97 3.8 1.4.88c.07.05.17.13.24.03.06-.11-.07-.15-.14-.19l-5.06-3.22c-1.64-1.04-3.28-2.07-4.91-3.12a2.26 2.26 0 0 1-.68-3.07 2.16 2.16 0 0 1 3.02-.7l8.33 5.3.73.46a.37.37 0 0 0 .44 0 .37.37 0 0 0 .15-.38.4.4 0 0 0-.2-.3l-2.3-1.45-3.63-2.32a2.26 2.26 0 0 1-.71-3.04 2.16 2.16 0 0 1 2.98-.77l3.43 2.18a17829.22 17829.22 0 0 1 9.35 5.94l.21.12Z" fill="#004CA1"/></svg>