<!-- by TradingView --><svg width="56" height="56" viewBox="0 0 56 56" xmlns="http://www.w3.org/2000/svg"><path fill="#F0F3FA" d="M0 0h56v56H0z"/><path d="M31.41 12C38.36 12 44 17.64 44 24.59v6.82C44 38.36 38.36 44 31.41 44h-6.82A12.59 12.59 0 0 1 12 31.41v-6.82C12 17.64 17.64 12 24.59 12h6.82Zm-4.47 10c-.71.06-1.35.2-1.73.48-1.34 1.02-1.17 3.3-1.19 4.82-.02 2.55-.04 4.5 0 5.85a.9.9 0 0 0 .88.85h1.31a.8.8 0 0 0 .79-.82v-1.92c0-.9.78-1.07 1.57-1.17.87-.12 1.85-.06 2.55-.47 1.38-.8 1.92-2.2 1.88-3.66a6.76 6.76 0 0 0-.37-1.99c-.38-1.11-1.1-1.97-2.45-1.97h-3.24Zm1.35 1.99c.85-.03 1.68.73 1.7 1.82v.24c.03 1.08-.77 1.91-1.61 1.94h-.62c-.4.01-.75-.37-.76-.85V24.9c-.01-.48.28-.9.67-.92h.62Z" fill="#0068C8"/></svg>