<!-- by TradingView --><svg width="56" height="56" viewBox="0 0 56 56" xmlns="http://www.w3.org/2000/svg"><path fill="#F0F3FA" d="M0 0h56v56H0z"/><path d="M52 30.37v.6l-.05.36c-.3 1.81-1.91 2.63-3.57 2.67a6.6 6.6 0 0 1-4.66-1.71c0-.01 0-.03.02-.04l1.32-1.62h.04a4.9 4.9 0 0 0 2.93 1.29c.66.03 1.63-.13 1.68-1 .02-.37-.16-.65-.53-.84a4.8 4.8 0 0 0-.67-.28c-1.53-.52-3.86-.7-4.3-2.7-.07-.36-.1-.74-.07-1.16.13-1.72 1.5-2.74 3.1-2.9a6.05 6.05 0 0 1 4.44 1.33l-.01.03-1.16 1.72a.03.03 0 0 1-.04 0 7.79 7.79 0 0 0-.98-.58c-.75-.38-1.68-.61-2.48-.32a.87.87 0 0 0-.57.98c.05.44.39.64.76.79.28.11.6.21.94.3 1.66.45 3.71.94 3.86 3.08ZM12 25.24l-.01.05H6.64l-.02.02-.01.03v1.99h4.71l.02.02v2.25a.03.03 0 0 1 0 .02H6.62v.01l-.01.02v2.05h5.38l.01.02v2.25a.03.03 0 0 1 0 .02H5.35c-.3.01-.5 0-.63-.06A1.21 1.21 0 0 1 4 32.77a8777.16 8777.16 0 0 0 .01-9.76l.03-.01h7.92l.02.01.02.02v2.21Z" fill="#2E0D35"/><path d="m14 23.04.01-.02.03-.01 1.43-.01c.38 0 .65.02.81.08.33.12.6.33.8.65A768.37 768.37 0 0 1 18.98 27h-4.95l-.03-.02-.01-.03v-3.91ZM25 23.04V26.99h-.04l-4.88.01h-.01v-.01l-.01-.01v-.01l1.91-3.24c.2-.32.46-.54.78-.65.16-.06.43-.08.8-.08a140.74 140.74 0 0 0 1.44.02l.01.02ZM26 23.04l.01-.02.02-.01h1.43c.39-.01.66.01.82.07.33.11.59.33.78.65A805.62 805.62 0 0 1 31 27h-4.95l-.03-.01-.01-.03v-3.92ZM37 23.04v3.92a.04.04 0 0 1-.01.03.04.04 0 0 1-.03.01H32.06v-.01a.02.02 0 0 1 0-.02l1.9-3.24c.2-.32.46-.54.78-.65.16-.06.43-.08.81-.08a145.55 145.55 0 0 0 1.44.02v.02Z" fill="#FE414D"/><path d="M41.41 23.04v10.93a.04.04 0 0 1-.04.03h-2.35a.02.02 0 0 1-.02-.02V24c0-.43.23-.8.64-.95.08-.03.23-.05.43-.05a81.81 81.81 0 0 1 1.33.02l.01.02Z" fill="#2E0D35"/><path d="m14.02 34-.01-.01v-.02L14 28.51a.03.03 0 0 1 .03-.03h2.29c.02 0 .04 0 .05.02l.02.05v4.4c0 .21-.02.37-.06.47-.12.3-.39.5-.72.56a32.66 32.66 0 0 1-1.59 0ZM21.58 28.5l-2.07 3.1a.02.02 0 0 1-.01 0h-.01l-2.08-3.1v-.02h4.16a.02.02 0 0 1 .01 0 .02.02 0 0 1 0 .02ZM24.96 31.53h-1.25c-.5-.04-.92-.36-1.06-.84a1.8 1.8 0 0 1-.05-.48 1144.32 1144.32 0 0 0 .03-1.7.08.08 0 0 1 .06-.03h2.3l.01.03v2.98l-.01.03-.03.01ZM26 31.46V28.42a.03.03 0 0 1 .02-.02h2.32a.08.08 0 0 1 .08.05v1.71c0 .22-.01.38-.04.49a1.2 1.2 0 0 1-1.07.84 31.45 31.45 0 0 1-1.3 0l-.01-.03ZM33.64 28.42l-2.07 3.14h-.01a.02.02 0 0 1-.02 0l-2.07-3.14v-.01a.02.02 0 0 1 .01-.01h4.14a.02.02 0 0 1 .02.02ZM36.98 34a31.53 31.53 0 0 1-1.57-.02.94.94 0 0 1-.72-.57c-.04-.1-.06-.26-.06-.47a2682.37 2682.37 0 0 0 .02-4.52.07.07 0 0 1 .05-.02H37V33.97a.02.02 0 0 1-.01.02Z" fill="#FE414D"/></svg>