<!-- by TradingView --><svg width="56" height="56" viewBox="0 0 56 56" xmlns="http://www.w3.org/2000/svg"><path fill="#F0F3FA" d="M0 0h56v56H0z"/><path d="M33.61 20c.72 0 1.27.45 1.37 1.08l.02.2v7.53c0 6.48-1.4 7.19-6.95 7.19-5.63 0-7.05-.85-7.05-7.19v-7.54c0-.08 0-.15.03-.21.13-.6.7-1.06 1.4-1.06s1.46.45 1.55 1.08l.02.2v7.53c0 3.69.62 4.19 4.05 4.19 3.43 0 3.95-.5 3.95-4.24v-7.54c0-.08.01-.15.03-.21.13-.6.9-1.01 1.58-1.01Z" fill="#4F105F"/><path d="M27.27 42.7a1.06 1.06 0 0 1 1.67 1.27 16.27 16.27 0 0 1-1.84 0c-.23-.4-.18-.93.17-1.28Zm-5.14 0a1.06 1.06 0 0 1 1.81.78c-.66-.17-1.3-.39-1.93-.64l.12-.15Zm10.28 0a1.06 1.06 0 0 1 1.61.13c-.62.25-1.26.47-1.92.64-.01-.28.1-.56.3-.78Zm-.38-5.53a1.6 1.6 0 0 1 2.25 0 1.6 1.6 0 1 1-2.25 0Zm-10.22.06a1.52 1.52 0 0 1 2.15 2.14 1.52 1.52 0 0 1-2.15-2.14Zm5.14 0a1.52 1.52 0 0 1 2.14 2.14 1.52 1.52 0 0 1-2.14-2.14Zm10.6.33a1.06 1.06 0 0 1 1.5 0c.41.41.41 1.08 0 1.5-.42.41-1.09.41-1.5 0a1.06 1.06 0 0 1 0-1.5Zm-20.56-.01a1.06 1.06 0 0 1 1.5 0c.42.41.42 1.08 0 1.5-.41.41-1.08.41-1.5 0a1.06 1.06 0 0 1 0-1.5Zm-.32-5.46a1.52 1.52 0 0 1 2.15 2.14 1.52 1.52 0 0 1-2.15-2.14Zm20.56 0a1.52 1.52 0 0 1 2.14 2.14 1.52 1.52 0 0 1-2.14-2.14Zm-24.7 0c.3 0 .59.1.81.32a1.06 1.06 0 0 1-.16 1.63c-.26-.63-.47-1.28-.65-1.94Zm30.94 0c-.18.67-.4 1.32-.65 1.95a1.06 1.06 0 0 1 .65-1.94Zm-15.63-3.82a1.43 1.43 0 1 1 0 2.86 1.43 1.43 0 0 1 0-2.86Zm-11.17-1.32a1.52 1.52 0 0 1 2.14 2.14 1.52 1.52 0 0 1-2.14-2.14Zm20.56 0a1.52 1.52 0 0 1 2.14 2.14 1.52 1.52 0 0 1-2.14-2.14Zm-25.2.18a1.06 1.06 0 1 1 0 1.79 16.2 16.2 0 0 1 0-1.8Zm30.63.14c.36-.36.9-.4 1.32-.14a16.26 16.26 0 0 1 0 1.79c-.42.26-.96.2-1.32-.15a1.06 1.06 0 0 1 0-1.5ZM27.84 24.2a1.43 1.43 0 1 1 0 2.87 1.43 1.43 0 0 1 0-2.87Zm-11.17-2.4a1.52 1.52 0 0 1 2.14 2.15 1.52 1.52 0 0 1-2.14-2.14Zm20.56 0a1.52 1.52 0 0 1 2.14 2.15 1.52 1.52 0 0 1-2.14-2.14ZM13.17 22l.17.14a1.06 1.06 0 0 1-.82 1.8c.18-.66.4-1.31.65-1.94Zm29.66 0c.26.63.47 1.28.65 1.95a1.06 1.06 0 0 1-.65-1.95Zm-14.96-1.85a1.43 1.43 0 1 1 0 2.86 1.43 1.43 0 0 1 0-2.86Zm-10.88-3.15a1.06 1.06 0 0 1 1.5 0c.42.42.42 1.09 0 1.5-.41.42-1.08.42-1.5 0a1.06 1.06 0 0 1 0-1.5Zm20.56 0a1.06 1.06 0 0 1 1.5 0c.42.42.42 1.09 0 1.5-.41.42-1.08.42-1.5 0a1.06 1.06 0 0 1 0-1.5Zm-10.76-.55a1.36 1.36 0 1 1 1.92 1.92 1.36 1.36 0 1 1-1.92-1.92Zm5.2.14a1.2 1.2 0 1 1 0 1.7 1.2 1.2 0 0 1 0-1.7Zm-10.02-.03a1.11 1.11 0 1 1 1.57 1.57 1.11 1.11 0 0 1-1.57-1.57Zm1.97-4.03a1.06 1.06 0 0 1-1.8.82c-.06-.05-.11-.11-.15-.17.63-.26 1.28-.47 1.95-.65ZM28 12c.3 0 .61 0 .91.03a1.06 1.06 0 0 1-1.64 1.32c-.36-.37-.4-.92-.14-1.33L28 12Zm4.1.53c.66.18 1.31.4 1.94.65l-.13.16a1.06 1.06 0 0 1-1.81-.81Z" fill="#45CF97"/></svg>