<!-- by TradingView --><svg width="56" height="56" viewBox="0 0 56 56" xmlns="http://www.w3.org/2000/svg"><path fill="#F0F3FA" d="M0 0h56v56H0z"/><path d="M15 15c0-1.27.17-2.2 1.36-2.74 1.83-.81 3.62.37 3.64 2.24v10.17C19.96 26 20.92 26 21.98 26h12.3c1.38.01 1.74-.31 1.72-1.62V14.5c.04-.97.5-1.7 1.33-2.17.76-.45 1.82-.4 2.55.15A2.7 2.7 0 0 1 41 14.42v26.15a5.42 5.42 0 0 1-.39 2.2c-.46.89-1.29 1.3-2.48 1.22-1.91-.12-2.14-1.63-2.13-3.13v-9.82c0-1-.8-1.05-1.71-1.04H21.16c-.84 0-1.25.4-1.24 1.21L20 41.48c0 1.09-.48 2.16-1.75 2.42-1.89.4-3.23-.43-3.25-2.3V15Z" fill="url(#a)"/><defs><linearGradient id="a" x1="28" y1="12" x2="28" y2="44" gradientUnits="userSpaceOnUse"><stop stop-color="#6BCF95"/><stop offset="1" stop-color="#61B9B1"/></linearGradient></defs></svg>