<!-- by TradingView --><svg width="56" height="56" viewBox="0 0 56 56" xmlns="http://www.w3.org/2000/svg"><path fill="#F0F3FA" d="M0 0h56v56H0z"/><path d="M29 25v6h-1v-6h1ZM4 25h1.27L7 29.35 8.73 25H10v6H9v-4l-1.63 3.98h-.74L5 27V31H4v-6ZM11.98 31H11l1.9-6h1.2l1.9 6h-.9l-1.6-5-1.52 5Zm.1-2h2.84v1h-2.84v-1ZM19.96 27a1.4 1.4 0 0 0-1.37-1C17.5 26 17 27.03 17 28c0 .98.48 2 1.61 2 .83 0 1.4-.39 1.4-1.21l.23.04h-1.52V28H21v.7c0 1.4-.98 2.3-2.4 2.3-1.68 0-2.6-1.42-2.6-3 0-1.5.91-3 2.58-3 1.16 0 2.25.82 2.42 2h-1.04ZM27 25v6h-.98L23 26.74V31h-1v-6h.99L26 29.28V25h1ZM30 26v-1h5v1h-2v5h-1v-5h-2ZM40 25h1v3.86c0 1.39-1.22 2.14-2.5 2.14s-2.5-.75-2.5-2.14V25h1v3.77c0 .79.75 1.27 1.5 1.27s1.5-.48 1.5-1.27V25ZM44.06 31H42v-6h2.1c1.77 0 2.9 1.25 2.9 3 0 1.76-1.16 3-2.94 3ZM43 30h1c1.27 0 1.91-.79 1.91-2 0-1.2-.63-2-1.88-2H43v4ZM48 31v-6h4v1h-3v1.5h2.5v1H49V30h3v1h-4Z"/></svg>