<!-- by TradingView --><svg width="56" height="56" viewBox="0 0 56 56" xmlns="http://www.w3.org/2000/svg"><path fill="url(#a)" d="M0 0h56v56H0z"/><path d="M28 35.84h.03l.01-.01 9.37-19.78a.09.09 0 0 1 .08-.05h5.47a.04.04 0 0 1 .03.02.04.04 0 0 1 0 .03l-12.73 26.9-.02.03h-.03a110.78 110.78 0 0 1-4.46-.02L13 16.06v-.04a.04.04 0 0 1 .04-.02h5.47a.09.09 0 0 1 .08.05l9.38 19.78.02.01H28Z" fill="#fff"/><path d="M21.39 16h5.5l.02.03 3.89 8.15a.05.05 0 0 1 0 .05l-2.73 5.74-.02.02a.05.05 0 0 1-.06 0l-.02-.02-6.63-13.9a.05.05 0 0 1 0-.05l.02-.01h.03Z" fill="#8999B2"/><defs><linearGradient id="a" x1="28" y1="0" x2="28" y2="56" gradientUnits="userSpaceOnUse"><stop stop-color="#293038"/><stop offset="1" stop-color="#060709"/></linearGradient></defs></svg>