<!-- by TradingView --><svg width="56" height="56" viewBox="0 0 56 56" xmlns="http://www.w3.org/2000/svg"><path fill="#F0F3FA" d="M0 0h56v56H0z"/><path d="M49 19c-2.52 2.15-7.24 4.15-13.34 5.54C29.56 25.94 23 27.63 23 30c0 3.4 12.14 4.35 18.24 4.4-.53.2-3.19.6-9.55.6-7.96 0-12.3-3.9-19.58-3.9-3.56 0-4.74 1.22-4.88 1.83-.05-.1-.15-.36-.2-.55-.36-2.54 2.35-2.4 3.18-3.85.66-1.12 5.95-4.04 13.24-5.38C29.3 22.08 42.92 19.94 49 19Zm-36.2 8.95c-.31.07-1.3.6-1.81.94h.64l1.17-.94Z" fill="#192030"/></svg>