<!-- by TradingView --><svg width="56" height="56" viewBox="0 0 56 56" xmlns="http://www.w3.org/2000/svg"><path fill="#F0F3FA" d="M0 0h56v56H0z"/><path d="M41.51 33.71a1.1 1.1 0 0 1 1.04.72c.05.14.08.29.07.44a1.15 1.15 0 0 1-.72 1.06 1.1 1.1 0 0 1-.44.07c-.3 0-.59-.13-.8-.34-.2-.22-.32-.51-.32-.82.01-.3.14-.6.36-.8.22-.22.51-.33.81-.33Zm2.83.1a1.06 1.06 0 0 1 1.1.49c.11.18.17.4.16.61a1.04 1.04 0 0 1-1.06 1.05 1.06 1.06 0 0 1-1-.66 1.1 1.1 0 0 1 .24-1.2c.16-.15.35-.25.56-.29Zm-15.88-.18c.24-.02.49.04.7.17a.83.83 0 0 1 .43.6c.01.12.08.23.09.34a1.06 1.06 0 0 1-.42.92.97.97 0 0 1-.7.26c-.3.01-.59-.1-.81-.3a1.15 1.15 0 0 1-.07-1.61c.2-.23.48-.36.78-.38Zm-3.08-.3a1.24 1.24 0 0 1 .91.34 1.28 1.28 0 0 1 .4.9 1.24 1.24 0 0 1-.35.93 1.2 1.2 0 0 1-.9.37 1.29 1.29 0 0 1-1.23-.8c-.07-.16-.1-.33-.1-.5.01-.34.15-.65.39-.88.24-.23.55-.37.88-.37Zm-12.99 0a1.18 1.18 0 0 1 1.17.72 1.23 1.23 0 0 1-1.13 1.7 1.2 1.2 0 0 1-.85-.36 1.24 1.24 0 0 1-.35-.87 1.18 1.18 0 0 1 .33-.85 1.15 1.15 0 0 1 .83-.35Zm-3.23.05c.62 0 1.18.4 1.17 1.17a1.18 1.18 0 0 1-.34.85 1.14 1.14 0 0 1-.84.34c-.3-.01-.6-.14-.81-.36a1.2 1.2 0 0 1-.34-.84 1.14 1.14 0 0 1 .33-.84 1.11 1.11 0 0 1 .83-.32Zm29.72-1.12c.29 0 .57.12.78.32a1.15 1.15 0 0 1 .26 1.22 1.09 1.09 0 0 1-.6.62c-.13.05-.28.08-.43.07a1.1 1.1 0 0 1-1.07-.7c-.05-.14-.08-.3-.08-.44.02-.3.14-.58.35-.78.22-.2.5-.31.79-.31Zm8.26.21a.9.9 0 0 1 .61.3c.16.17.25.4.25.63a.9.9 0 0 1-.27.62.87.87 0 0 1-.62.25.86.86 0 0 1-.63-.26.89.89 0 0 1-.25-.64.9.9 0 0 1 .27-.64.89.89 0 0 1 .64-.26Zm-15.86-.3c.59 0 .98.4 1.03 1.05a1.05 1.05 0 0 1-.7.96c-.13.05-.27.07-.41.05a1 1 0 0 1-.69-.32c-.17-.2-.27-.46-.26-.72a1.02 1.02 0 0 1 .3-.74.99.99 0 0 1 .73-.28Zm-8.69-.56c.35 0 .68.13.93.38a1.34 1.34 0 0 1 .3 1.42 1.28 1.28 0 0 1-.69.7c-.15.07-.32.1-.49.1a1.28 1.28 0 0 1-1.23-.81 1.34 1.34 0 0 1 .27-1.43 1.24 1.24 0 0 1 .91-.36Zm-7.41.22c.27 0 .53.11.72.31.2.2.3.46.3.74a1 1 0 0 1-.28.74.97.97 0 0 1-.63.29h-.21a1 1 0 0 1-.88-.64 1.04 1.04 0 0 1-.08-.42 1.05 1.05 0 0 1 .66-.95c.13-.05.26-.07.4-.07Zm21.74-2.1a1.2 1.2 0 0 1 1.14.77c.07.15.1.32.1.48a1.2 1.2 0 0 1-.72 1.18c-.15.07-.32.1-.48.1a1.23 1.23 0 0 1-1.19-.76 1.28 1.28 0 0 1 .66-1.68c.16-.06.32-.1.49-.1Zm-16.53-.64a1.3 1.3 0 0 1 1.34.59c.15.22.22.48.22.75a1.3 1.3 0 0 1-.39.96 1.27 1.27 0 0 1-.96.36 1.31 1.31 0 0 1-1.2-.85 1.36 1.36 0 0 1 .3-1.46c.2-.18.43-.3.69-.35Zm12.76 1a.72.72 0 0 1 .7.48c.04.1.06.2.05.3a.76.76 0 0 1-.21.53.74.74 0 0 1-.53.22.72.72 0 0 1-.7-.45.75.75 0 0 1-.05-.3.76.76 0 0 1 .45-.71c.1-.04.2-.06.3-.06Zm-15.99-.23c.39.01.72.29.72.82 0 .38-.34.66-.76.65a.67.67 0 0 1-.68-.45.7.7 0 0 1-.04-.29.72.72 0 0 1 .22-.54.7.7 0 0 1 .54-.19ZM35.2 27.3a1.3 1.3 0 0 1 1.22.8c.07.16.1.33.1.5a1.28 1.28 0 0 1-.8 1.16c-.16.06-.32.09-.49.08-.35 0-.68-.13-.93-.38-.25-.24-.4-.58-.4-.93a1.27 1.27 0 0 1 .81-1.16c.16-.05.32-.08.49-.07Zm-16.57-.4c.7 0 1.12.47 1.15 1.2a1.18 1.18 0 0 1-.73 1.1 1.17 1.17 0 0 1-1.29-.29 1.2 1.2 0 0 1 .03-1.68c.23-.22.53-.34.84-.34Zm14.8-2.32c.35 0 .69.12.94.36.25.25.4.58.4.93.03.72-.53 1.41-1.3 1.36a1.3 1.3 0 0 1-.94-.36 1.33 1.33 0 0 1-.31-1.46 1.33 1.33 0 0 1 .7-.73c.17-.07.34-.1.51-.1Zm-16.6-.3a1.27 1.27 0 0 1 .97.4 1.3 1.3 0 0 1 .36.98 1.3 1.3 0 0 1-.8 1.22c-.17.07-.34.1-.5.1a1.3 1.3 0 0 1-1.28-.86c-.06-.17-.1-.35-.08-.53-.01-.8.61-1.3 1.33-1.31Zm3.96.57a.7.7 0 0 1 .7.46c.03.1.04.2.04.3a.76.76 0 0 1-.22.54.74.74 0 0 1-.54.22.74.74 0 0 1-.53-.23.77.77 0 0 1 .02-1.07.74.74 0 0 1 .53-.22Zm15.82-.38a.7.7 0 0 1 .53.22.73.73 0 0 1 .2.55.76.76 0 0 1-.73.73.73.73 0 0 1-.69-.45.76.76 0 0 1-.06-.29.75.75 0 0 1 .22-.54.72.72 0 0 1 .53-.22ZM31.7 22.2a1.32 1.32 0 0 1 1.03 1.04 1.36 1.36 0 0 1-.54 1.37c-.22.15-.47.23-.72.24a1.28 1.28 0 0 1-.98-.39 1.32 1.32 0 0 1-.38-.99 1.35 1.35 0 0 1 .83-1.2c.24-.1.5-.13.76-.07Zm-16.94-.18a1.27 1.27 0 0 1 .94.38 1.3 1.3 0 0 1 .37.96 1.27 1.27 0 0 1-.36.92 1.24 1.24 0 0 1-.91.36 1.26 1.26 0 0 1-.94-.37 1.3 1.3 0 0 1-.39-.95 1.3 1.3 0 0 1 .8-1.21c.15-.07.32-.1.49-.1Zm8.04.1a.97.97 0 0 1 .95.61 1 1 0 0 1 .07.4 1.04 1.04 0 0 1-.62.97 1 1 0 0 1-1.33-.57 1.05 1.05 0 0 1-.07-.4c0-.27.1-.53.3-.72a1 1 0 0 1 .7-.3Zm24.05-.05a.96.96 0 0 1 1 .43 1 1 0 0 1 .16.55.97.97 0 0 1-.61.92.94.94 0 0 1-.38.06.97.97 0 0 1-.9-.62 1 1 0 0 1 .23-1.08.98.98 0 0 1 .5-.26Zm-8.3-.32a.98.98 0 0 1 .95.61 1.07 1.07 0 0 1-.24 1.13c-.2.2-.45.3-.73.3-.26 0-.52-.1-.7-.3a1.05 1.05 0 0 1 0-1.46.98.98 0 0 1 .72-.28Zm-9.77-1.38a1.2 1.2 0 0 1 1.15.8c.06.16.08.33.07.5 0 .7-.55 1.2-1.33 1.15-.73-.04-1.12-.62-1.1-1.26a1.23 1.23 0 0 1 .36-.85 1.2 1.2 0 0 1 .85-.34Zm-3.14-.02a1.11 1.11 0 0 1 1.04.71 1.15 1.15 0 0 1-.26 1.24 1.12 1.12 0 0 1-.8.32 1.08 1.08 0 0 1-1.05-.7c-.05-.14-.08-.3-.07-.45-.04-.63.55-1.12 1.14-1.12Zm18.81-.21a1.16 1.16 0 0 1 .88.35 1.2 1.2 0 0 1 .34.9 1.19 1.19 0 0 1-.35.87 1.15 1.15 0 0 1-.87.33 1.16 1.16 0 0 1-1.17-.76 1.2 1.2 0 0 1-.08-.49 1.23 1.23 0 0 1 .37-.87 1.2 1.2 0 0 1 .88-.33Zm-32.17.02c.3-.01.6.1.83.32a1.2 1.2 0 0 1 .02 1.7 1.22 1.22 0 0 1-1.33.3 1.22 1.22 0 0 1-.76-1.15c.02-.32.15-.62.39-.84.23-.22.53-.34.85-.33ZM41.4 20c.75 0 1.25.6 1.19 1.16.04.7-.61 1.2-1.16 1.2-.32 0-.63-.12-.85-.34a1.25 1.25 0 0 1-.39-.84c.01-.32.14-.62.37-.84.22-.22.52-.34.84-.34Zm-32.33.11a1.05 1.05 0 0 1 1.03.65 1.1 1.1 0 0 1-.23 1.2 1.07 1.07 0 0 1-.77.31c-.29 0-.56-.1-.77-.3A1.1 1.1 0 0 1 8 21.2c.01-.29.13-.56.33-.76.2-.2.46-.32.74-.33Z"/></svg>