<!-- by TradingView --><svg width="56" height="56" viewBox="0 0 56 56" xmlns="http://www.w3.org/2000/svg"><path fill="#F0F3FA" d="M0 0h56v56H0z"/><path d="M16 19c0-.57-.19-.77-.33-.86A1.27 1.27 0 0 0 15 18h-1v2h1c.27 0 .5-.01.68-.12.12-.07.32-.25.32-.88Zm1 0c0 .87-.3 1.44-.8 1.74-.45.27-.97.26-1.2.26h-1v2h-1v-6h2c.27 0 .77.02 1.2.3.49.3.8.86.8 1.7ZM21 21v-2a1 1 0 1 0-2 0v2a1 1 0 0 0 1 1v1a2 2 0 0 1-1.99-1.8L18 21v-2a2 2 0 1 1 4 0v2a2 2 0 0 1-2 2v-1a1 1 0 0 0 1-1ZM24 17h-1v6h1l1.5-2 1.5 2h1v-6h-1v4.5L26 20h-1l-1 1.5V17ZM20 31h-1v-6h1l1.5 2 1.5-2h1v6h-1v-4.5L22 28h-1l-1-1.5V31ZM21 39h-1v-6h1l1.5 2 1.5-2h1v6h-1v-4.5L23 36h-1l-1-1.5V39ZM35 17v5h3v1h-4v-6h1ZM14 33v5h3v1h-4v-6h1ZM40 17v5h3v1h-4v-6h1ZM33 18h-3v1.5h2v1h-2V22h3v1h-4v-6h4v1ZM38 34h-3v1.5h2v1h-2V38h3v1h-4v-6h4v1ZM32 25l1.5 2.25L35 25h1l-2 3 2 3h-1l-1.5-2.25L32 31h-1l2-3-2-3h1ZM42 35c0-.17-.06-.44-.2-.65-.14-.18-.36-.35-.8-.35h-1v4h1c.27 0 .5-.01.68-.12.12-.07.32-.25.32-.88v-2Zm1 2c0 .87-.3 1.44-.8 1.74-.45.27-.97.26-1.2.26h-2v-6h2c.76 0 1.29.33 1.6.77.3.42.4.9.4 1.23v2Z" fill="#0F3675"/><path d="M30 31h-1.25l-.28-1h-1.94l-.28 1H25l1.88-6h1.25L30 31Zm-3.2-2h1.4l-.7-2.5-.7 2.5Z" fill="url(#a)"/><path fill="#0F3675" d="M18 33h1v6h-1zM26 33h1v6h-1zM30 33h1v6h-1z"/><path fill="#0F3675" d="M28 33h5v1h-5z"/><defs><linearGradient id="a" x1="28" y1="25" x2="28" y2="30" gradientUnits="userSpaceOnUse"><stop stop-color="#93BCDF"/><stop offset=".38" stop-color="#5996CA"/><stop offset="1" stop-color="#0F3675"/></linearGradient></defs></svg>