<!-- by TradingView --><svg width="56" height="56" viewBox="0 0 56 56" xmlns="http://www.w3.org/2000/svg"><path fill="#181B1E" d="M0 0h56v56H0z"/><ellipse cx="28" cy="28" rx="18.64" ry="13.74" fill="#002449"/><path d="M28 14c10.5 0 19 6.27 19 14s-8.5 14-19 14S9 35.73 9 28s8.5-14 19-14Zm0 1c-9.39 0-17 5.82-17 13s7.61 13 17 13 17-5.82 17-13-7.61-13-17-13Z" fill="url(#a)"/><rect x="15" y="24" width="7" height="1" rx=".5" fill="#E5E7E8"/><path d="M41.5 24a.5.5 0 0 1 0 1H39v6.5a.5.5 0 0 1-1 0V25h-2.5a.5.5 0 0 1 0-1h6Z" fill="#E5E7E8"/><rect x="15" y="31" width="7" height="1" rx=".5" fill="#E5E7E8"/><path d="M16 28c0-.28.22-.5.5-.5h4a.5.5 0 0 1 0 1h-4a.5.5 0 0 1-.5-.5ZM25.6 24a.6.6 0 0 1 .55.33L29 30l2.86-5.67a.6.6 0 0 1 .54-.33.6.6 0 0 1 .55.87l-3.45 6.83c-.2.4-.78.4-.98 0l-3.45-6.83a.6.6 0 0 1 .55-.87Z" fill="#E5E7E8"/><defs><linearGradient id="a" x1="47" y1="28" x2="9" y2="28" gradientUnits="userSpaceOnUse"><stop stop-color="#E5E7E8"/><stop offset=".49" stop-color="#AFAFAF"/><stop offset="1" stop-color="#E7E9E9"/></linearGradient></defs></svg>