<!-- by TradingView --><svg width="56" height="56" viewBox="0 0 56 56" xmlns="http://www.w3.org/2000/svg"><path fill="#F0F3FA" d="M0 0h56v56H0z"/><path fill="#C12735" d="M6 23h1v9H6zM13.5 23c3.04 0 5.5 2.01 5.5 4.5 0 2.35-2.2 4.27-5 4.48V34h-1v-2.02c-2.8-.2-5-2.13-5-4.48 0-2.49 2.46-4.5 5.5-4.5Zm0 1C10.82 24 9 25.75 9 27.5c0 1.64 1.6 3.28 4 3.48V29h1v1.98c2.4-.2 4-1.84 4-3.48 0-1.75-1.82-3.5-4.5-3.5Z"/><path d="M25.5 29.5c0-1.03-1.92-1.34-2.62-1.51-1.46-.37-3.88-.47-3.88-2.49 0-1.62 1.53-2.5 3-2.5h21v8h7v1h-8v-8h-8v3h5v1h-5v3h6v1h-7v-8h-3v8h-1v-8h-7c-.9 0-2 .45-2 1.5 0 1.27 2.26 1.3 3.12 1.51 1.28.32 3.38.81 3.38 2.49 0 1.4-1.37 2.5-3.5 2.5-1.78 0-3.3-1.1-3.85-1.65l.7-.7A4.96 4.96 0 0 0 23 31c1.87 0 2.5-.9 2.5-1.5Z" fill="#35363A"/></svg>