<!-- by TradingView --><svg width="56" height="56" viewBox="0 0 56 56" xmlns="http://www.w3.org/2000/svg"><path fill="#F0F3FA" d="M0 0h56v56H0z"/><path d="M47 25c-.1-4.84-4.14-9-9.16-9-3.14-.06-5.96 1.69-7.76 4.2l2.56 2.42c1.21-1.69 3.08-3.14 5.2-3.14a5.8 5.8 0 0 1 5.66 5.86c-.08 2.83-2.65 5.66-5.26 5.66-1.1 0-2.2-.47-3.18-1.44L24.65 18.69A9.1 9.1 0 0 0 18.17 16C13.17 16 9 20.2 9 25.2c0 2.45.95 4.75 2.69 6.49l11.16 11.18a7.26 7.26 0 0 0 10.3 0l6.35-6.55c-1.67.66-3.24.3-4.85-.25l-2 2.2-2.04 2.18a3.68 3.68 0 0 1-5.21 0L14.24 29.12a5.58 5.58 0 0 1-1.68-3.93c0-2.94 2.63-5.71 5.6-5.71 1.49 0 2.88.58 3.93 1.63l10.41 11a8.27 8.27 0 0 0 5.82 2.37c5.05.04 8.78-4.68 8.68-9.49Z" fill="url(#a)"/><defs><linearGradient id="a" x1="21.17" y1="45.05" x2="31.45" y2="15.25" gradientUnits="userSpaceOnUse"><stop stop-color="#00D2CC"/><stop offset=".09" stop-color="#01CDCE"/><stop offset=".19" stop-color="#06BFD5"/><stop offset=".3" stop-color="#0FA9E0"/><stop offset=".41" stop-color="#1A8AEF"/><stop offset=".5" stop-color="#266CFF"/><stop offset=".74" stop-color="#7234FF"/><stop offset="1" stop-color="#C300F2"/></linearGradient></defs></svg>