<!-- by TradingView --><svg width="56" height="56" viewBox="0 0 56 56" xmlns="http://www.w3.org/2000/svg"><path fill="#F0F3FA" d="M0 0h56v56H0z"/><path d="m29 27 14-7H29v7ZM27 27l-14-7h14v7Z" fill="#94D4E3"/><path d="M20 33.06 27 45V29l-7 4.06ZM13 21l14 7.32-7.5 4.18L13 21ZM36 33.06 29 45V29l7 4.06ZM43 21l-14 7.32 7.5 4.18L43 21Z" fill="#55B8B3"/><path d="m12 37 7-4.12L12 21v16ZM44 37l-7-4.12L44 21v16ZM19.5 33.62l7 11.38-14-7.5 7-3.88ZM37 34l-7 11 14-7.25L37 34ZM29 11l14 8H29v-8ZM27 11l-14 8h14v-8Z" fill="#3F7F7D"/></svg>