<!-- by TradingView --><svg width="56" height="56" viewBox="0 0 56 56" xmlns="http://www.w3.org/2000/svg"><path fill="#F0F3FA" d="M0 0h56v56H0z"/><path d="M10.5 23.39v2.8a2.29 2.29 0 0 0-.76-.19c-.4 0-.49.32-.49.39 0 .09.03.23.4.47.87.65 1.35 1.28 1.35 2.7C11 31.46 9.86 32 7.3 32c-2.05 0-3.05-.34-3.3-.5v-2.86c.2.1.84.36 1.27.36.43 0 .68-.12.68-.2 0-.1-.05-.3-.35-.51-.69-.48-1.55-1.16-1.55-2.56C4.05 23.5 6.08 23 7.73 23c1.32 0 2.4.26 2.76.39Zm7.5-.12c-.34-.1-1.31-.27-2.42-.27-1.39 0-4.58.8-4.58 4.38S13.51 32 15.58 32c1.3 0 2.15-.16 2.42-.24V28h-2.44c-.3 0-.56-.19-.56-.5s.25-.5.56-.5H18v-3.73Zm4-.27h-3v9h3v-3h2v3h3v-9h-3v3h-2v-3Z" fill="url(#a)"/><path fill="#859CB3" d="M39 23h3v9h-3z"/><path fill-rule="evenodd" d="M47.3 23H43v9h4.3c2.34 0 4.7-2.01 4.7-4.5S49.64 23 47.3 23Zm1.2 4.5c0-.83-1-1.5-2-1.5v3c1 0 2-.67 2-1.5Z" fill="#859CB3"/><path d="M31 23h-3v9h3v-3.28l2.01 2.1L35 28.76V32h3v-9h-3l-1.99 1.9L31 23Z" fill="url(#b)"/><defs><linearGradient id="a" x1="14.78" y1="23" x2="15.57" y2="28.34" gradientUnits="userSpaceOnUse"><stop offset=".77" stop-color="#00315B"/><stop offset="1" stop-color="#01325C" stop-opacity=".45"/></linearGradient><linearGradient id="b" x1="32.69" y1="23" x2="33.17" y2="24.82" gradientUnits="userSpaceOnUse"><stop offset=".77" stop-color="#00315B"/><stop offset="1" stop-color="#01325C" stop-opacity=".45"/></linearGradient></defs></svg>