<!-- by TradingView --><svg width="56" height="56" viewBox="0 0 56 56" xmlns="http://www.w3.org/2000/svg"><path fill="#F0F3FA" d="M0 0h56v56H0z"/><path d="m31.25 37 2.5-5.82 1.67 3.98-1.92 4.82V40H11l1.38-3h18.87Z" fill="#231F20"/><path d="m28.7 33 2.56-6.2 1.67 4.15L31 36H13l1.4-3h14.3Z" fill="#1F419B"/><path d="M31.31 23.99h-3.47V24H25v3h4.58l6.94 12H40l-8.69-15.01Z" fill="#1F419B"/><path d="M30 20h-2v3h3.8l9.65 16H45L33.55 20H30Z" fill="#231F20"/><path d="M29.97 14 32 16.5 24.5 29l2.5 4h-3.6L21 29l8.97-15Z" fill="#1F419B"/><path d="m27 10 1.67 2.8L19.5 29l2.4 4h-3.5L16 29l11-19Z" fill="#231F20"/></svg>