<!-- by TradingView --><svg width="56" height="56" viewBox="0 0 56 56" xmlns="http://www.w3.org/2000/svg"><path fill="#103C25" d="M0 0h56v56H0z"/><path d="M35 26h-4l2 2 2-2Z" fill="#B5BCB5"/><path d="M35 28.4V26l-2 2v.4c0 2.88 2.58 3.6 4 3.6h7.57L47 30h-9.5c-1.95 0-2.5-.8-2.5-1.6Z" fill="#FFFCFA"/><path d="m33 28-2-2v3.43c0 3.66 4.03 4.57 6 4.57h7v-2h-7c-3 0-4-2.67-4-4Z" fill="#858A84"/><path d="M44 32v2l3-4-3 2Z" fill="#9DAAA1"/><path d="m13 24-3 1 2-3 1 2Z" fill="#FAFEFC"/><path d="M48 22H12l.92 2H46l2-2Z" fill="#BFBFC1"/><path d="M46 24v1l2-3-2 2Z" fill="#9DAAA1"/><path d="m13 24-3 1h16l2-1H13ZM30 25l-2-1h18v1H30Z" fill="#838A85"/><path d="M26 25v9l2-2 2 2v-9l-2-1-2 1Z" fill="#FFFAFB"/><path d="m28 32-2 2h4l-2-2Z" fill="#7E8480"/><path d="m13 31-1 1h11.5L22 31h-9Z" fill="#C0BCBB"/><path d="M21.54 34H10l2.3-2h8.66c1.39 0 2.85-1.67 3.04-2l1 2c-.46 1.6-2.5 2-3.46 2ZM12 28l2 1h8.2l1.8-1H12Z" fill="#838E88"/><path d="M22.5 30c0-.48-.3-1-.5-1l1-1-1-2h3l-.5 2c1.5 1.5.91 2.8.5 4l-1.16-1.2-.61 1.2L22 31c.2-.2.5-.52.5-1Z" fill="#EBEDEA"/><path d="M22.4 26H10l1.77 2H23l-.6-2Z" fill="#BFBEB9"/><path d="M10 34v-8l4 3v2l-4 3Z" fill="#FFFFFA"/></svg>