<!-- by TradingView --><svg width="56" height="56" viewBox="0 0 56 56" xmlns="http://www.w3.org/2000/svg"><path fill="#F0F3FA" d="M0 0h56v56H0z"/><path d="M47 20v16h-3V20h3ZM31.17 20l3.56 5.86h.12L38.43 20h3.34l-4.98 8 5.06 8h-3.4l-3.6-5.82h-.12L31.13 36h-3.38l5.1-8-5.04-8h3.36ZM26 20v16h-3V20h3ZM8 36V20h6.18c1.16 0 2.12.18 2.9.55.77.36 1.35.85 1.73 1.47.39.63.58 1.34.58 2.13A3.16 3.16 0 0 1 18 26.94c-.42.28-.9.49-1.42.61v.16a3.64 3.64 0 0 1 2.94 1.85c.33.58.5 1.27.5 2.08 0 .83-.2 1.57-.6 2.23a4.1 4.1 0 0 1-1.83 1.56c-.81.38-1.83.57-3.06.57H8Zm3-2.42h3.07c1.05 0 1.81-.2 2.28-.6.47-.41.7-.93.7-1.57 0-1.68-1.4-2.43-2.9-2.43H11v4.6Zm0-6.6h2.81c1.31 0 2.67-1.12 2.67-2.46 0-.62-.22-1.13-.66-1.53-.44-.4-1.08-.6-1.94-.6H11v4.59Z"/></svg>