<!-- by TradingView --><svg width="56" height="56" viewBox="0 0 56 56" xmlns="http://www.w3.org/2000/svg"><path fill="#F0F3FA" d="M0 0h56v56H0z"/><path d="M45 28c0 .6-.32.87-.96 1h-6.32c-.02 0-.05.06-.07.07a.15.15 0 0 0-.08.13c0 .03.01.06.03.08 4.6 7.73-1.55 17.27-10.43 16.7a11.1 11.1 0 0 1-8.96-16.83.14.14 0 0 0-.14-.14c-2.3.02-4.26.02-5.9 0-.63-.02-1.17-.34-1.17-1.02 0-.67.54-.98 1.18-.99h5.85c.1 0 .25-.04.16-.19a11.13 11.13 0 0 1 9-16.79c8.87-.57 15 9.02 10.38 16.75a.15.15 0 0 0 0 .15.15.15 0 0 0 .13.08h6.34c-.05-.01.05 0 0 0 .64.12.96.4.96 1Zm-17.1-4.05a11.8 11.8 0 0 1 7.01 2.34.2.2 0 0 0 .16-.03 8.87 8.87 0 0 0 1.77-5.44 8.81 8.81 0 0 0-8.94-8.55 8.82 8.82 0 0 0-8.94 8.56 8.87 8.87 0 0 0 1.78 5.44.2.2 0 0 0 .22 0 11.78 11.78 0 0 1 6.94-2.32ZM22.6 28c0 .06.03.1.1.15a9.35 9.35 0 0 0 5.18 1.6c1.8 0 3.54-.53 5.17-1.6.07-.04.1-.1.1-.15 0-.06-.03-.11-.1-.15a9.35 9.35 0 0 0-5.17-1.6c-1.82 0-3.54.53-5.18 1.6-.07.04-.1.09-.1.15Zm5.29 4.04a11.78 11.78 0 0 1-7.02-2.34.2.2 0 0 0-.15.03 8.87 8.87 0 0 0-1.77 5.45 8.82 8.82 0 0 0 8.95 8.55 8.82 8.82 0 0 0 8.93-8.56 8.86 8.86 0 0 0-1.77-5.45.2.2 0 0 0-.23 0 11.8 11.8 0 0 1-6.94 2.32Z" fill="#019395"/></svg>