<!-- by TradingView --><svg width="56" height="56" viewBox="0 0 56 56" xmlns="http://www.w3.org/2000/svg"><path fill="#F0F3FA" d="M0 0h56v56H0z"/><path d="M4.93 22.04V22h4.09c.27 0 .51.11.72.36.1.11.17.24.22.39.03.07.04.22.04.44v6.29c0 .38-.02.7-.05.95l-.14.65-.21.5a2.72 2.72 0 0 1-.46.63l-.41.33H8.7a3.8 3.8 0 0 0-.22.1c-.18.1-.32.15-.4.17a6.2 6.2 0 0 1-.58.14l-.67.04c-.2 0-.46-.02-.75-.07A3.28 3.28 0 0 1 4 31.63c0-.01 0-.03.02-.04l.9-1.12a.05.05 0 0 1 .03-.02.05.05 0 0 1 .04.02l.35.42a.3.3 0 0 0 .05.05l.4.3.46.2h.02l.33.05c.45.07.84-.02 1.17-.3.24-.19.4-.5.46-.9.03-.18.04-.35.04-.5a6366.13 6366.13 0 0 0 0-6.3h-3.3a.04.04 0 0 1-.03-.02.04.04 0 0 1-.01-.03v-1.4ZM23.63 29.44h.01l.24.14c.27.18.48.3.62.35.37.16.6.25.7.28l.64.17a4.26 4.26 0 0 0 .85.1c.5.05 1 0 1.5-.14.2-.05.39-.16.58-.3a.98.98 0 0 0 .38-.62.9.9 0 0 0-.06-.51 1.25 1.25 0 0 0-.66-.63c-.22-.1-.47-.2-.76-.28a81 81 0 0 0-1.3-.32c-.5-.12-.94-.26-1.35-.4a4.14 4.14 0 0 1-.97-.56l-.05-.04a2.32 2.32 0 0 1-.5-.56 2.27 2.27 0 0 1-.3-1.24 2.6 2.6 0 0 1 1.25-2.2 4.5 4.5 0 0 1 2.03-.64 5.83 5.83 0 0 1 1.3 0c.26 0 .47.03.6.06l.49.09c.12.02.28.06.48.13a10.15 10.15 0 0 0 .5.16l.68.35c.02 0 .03.02.03.03v.05l-.55 1.32-.01.02h-.02a.05.05 0 0 1-.03 0 5.28 5.28 0 0 0-3.72-.65l-.44.16a1.21 1.21 0 0 0-.7.81l-.02.22v.13l.07.27v.02c.1.15.17.24.23.28l.09.07c.16.11.3.2.4.24a5.34 5.34 0 0 0 1.23.38c.95.23 1.64.42 2.07.57a3.76 3.76 0 0 1 1.47 1.05c.07.08.12.16.15.23a2.68 2.68 0 0 1-.08 2.29c-.2.36-.47.67-.83.92a4.35 4.35 0 0 1-1.72.67l-.88.09a5 5 0 0 1-.66-.02l-.66-.05a6.66 6.66 0 0 1-2.5-.77 8.72 8.72 0 0 1-.45-.34l.63-1.38ZM36.75 30.3h.01a.02.02 0 0 1 .01.01l.48 1.18v.02l-.01.02a64.82 64.82 0 0 0-.36.2 2.67 2.67 0 0 1-1.16.27h-.3a2.84 2.84 0 0 1-.95-.16c-.61-.21-1.03-.6-1.26-1.16a3.11 3.11 0 0 1-.2-1.2 1957.71 1957.71 0 0 1 .02-6.48l.62.01a1.35 1.35 0 0 1 .76.29c.21.24.32.47.33.69a29.41 29.41 0 0 1 .02 1l.01.01 1.96-.01.02.01v1.35h-.01a1136.46 1136.46 0 0 0-1.99.01v2.97a2.98 2.98 0 0 0 .07.62 1.27 1.27 0 0 0 .27.41l.22.14.02.01c.18.06.36.08.53.08a9.4 9.4 0 0 0 .5-.08l.39-.2ZM52 25.07v1.43l-.01.04-.01.02h-.02c-.35-.07-.7-.05-1.03.05-.36.11-.65.3-.87.56-.11.14-.2.31-.28.51-.1.28-.16.64-.16 1.08v3.2a.04.04 0 0 1-.04.04h-1.55a.03.03 0 0 1-.03-.03V25.1a.03.03 0 0 1 .01-.02.03.03 0 0 1 .02 0h.27c.28 0 .47.02.59.06.15.07.3.17.41.3a1 1 0 0 1 .25.62h.02l.37-.42a.17.17 0 0 1 .03-.03l.47-.29.15-.07.1-.03a3 3 0 0 1 .76-.17 11.6 11.6 0 0 0 .53-.04l.02.06ZM44.26 31.08l-.38.33c-.04.04-.1.08-.22.13l-.12.06a3 3 0 0 1-1.2.37c-.37.04-.73.04-1.06 0a4.22 4.22 0 0 1-.86-.17 3.28 3.28 0 0 1-2.27-2.23 4.3 4.3 0 0 1-.11-1.6 3.26 3.26 0 0 1 1.67-2.45 4.04 4.04 0 0 1 2.09-.52c.27 0 .5.02.67.05a4.6 4.6 0 0 1 1.12.38 2.56 2.56 0 0 1 .6.45h.03l.01-.01v-.79h.01v-.01h.49c.2 0 .36 0 .47.03.23.07.43.2.59.4a.9.9 0 0 1 .21.58 3273.88 3273.88 0 0 0 0 5.9l-.02.02h-1.64l-.02-.02-.01-.02v-.88h-.02a.03.03 0 0 0-.03 0Zm-4.48-2.57c.01.72.29 1.28.83 1.69a2.04 2.04 0 0 0 1.1.41 3.06 3.06 0 0 0 .66 0h.06c.38-.05.72-.2 1.03-.43a2 2 0 0 0 .8-1.7c-.01-.72-.29-1.28-.83-1.69a2.04 2.04 0 0 0-1.04-.4l-.06-.01a3.01 3.01 0 0 0-.73.01c-.37.04-.71.18-1.03.43a2 2 0 0 0-.79 1.7ZM17.79 25.25h-2.22l1.09-3.24a.01.01 0 0 1 .01 0c.04.04.06.1.08.15a1714.97 1714.97 0 0 1 1.04 3.1Z" fill="#1D174F"/><path d="M18.69 28.59a30911.58 30911.58 0 0 0-4.62 3.3.73.73 0 0 1-.46.1c-.16 0-.31-.03-.45-.08a.74.74 0 0 1-.4-.37.87.87 0 0 1-.08-.52l.09-.47a1880.04 1880.04 0 0 0 .46-2.28l.97.18h.02v.02l-.46 2.35v.02h.02a30395.18 30395.18 0 0 0 6.4-4.57.94.94 0 0 0-.29-.03 11215.65 11215.65 0 0 1-8.61-.02V25.27l.02-.01h9.97c.29 0 .5.07.63.22.13.13.18.29.16.46a.62.62 0 0 1-.27.42 837.16 837.16 0 0 1-3.1 2.23Z" fill="#2BB0D4"/><path d="M18.62 28.64a.15.15 0 0 1 .07-.05l.08-.02h.03l.02.03 1.09 3.2v.01h-.01l-2.82-1.96a.05.05 0 0 1-.03-.05v-.02l.03-.02a308.93 308.93 0 0 0 1.54-1.13Z" fill="#1D174F"/></svg>