<!-- by TradingView --><svg width="56" height="56" viewBox="0 0 56 56" xmlns="http://www.w3.org/2000/svg"><path fill="#F0F3FA" d="M0 0h56v56H0z"/><path d="M25.8 15.56c.95 0 1.72-.8 1.72-1.78s-.77-1.77-1.73-1.77c-.95 0-1.73.8-1.73 1.77 0 .98.78 1.78 1.73 1.78ZM30.64 15.55c.95 0 1.73-.8 1.73-1.77 0-.98-.78-1.78-1.73-1.78-.96 0-1.73.8-1.73 1.78s.77 1.77 1.73 1.77ZM21.21 17.22c.95 0 1.72-.79 1.72-1.76s-.77-1.76-1.72-1.76c-.94 0-1.7.79-1.7 1.76s.76 1.76 1.7 1.76ZM35.25 17.22c.95 0 1.71-.78 1.71-1.76 0-.97-.76-1.76-1.71-1.76s-1.71.8-1.71 1.76c0 .98.76 1.76 1.71 1.76ZM17.45 20.5c.96 0 1.73-.8 1.73-1.78s-.77-1.78-1.73-1.78c-.95 0-1.73.8-1.73 1.78s.78 1.78 1.73 1.78ZM38.98 20.48c.95 0 1.72-.79 1.72-1.77s-.77-1.77-1.72-1.77-1.73.8-1.73 1.77c0 .98.78 1.77 1.73 1.77Z" fill="#52BDE8"/><path d="M28.23 21.02c.85 0 1.53-.7 1.53-1.58 0-.87-.68-1.58-1.53-1.58s-1.54.71-1.54 1.58c0 .87.7 1.58 1.54 1.58ZM24.07 22.18c.85 0 1.55-.7 1.55-1.58 0-.88-.7-1.59-1.55-1.59-.85 0-1.54.71-1.54 1.59 0 .87.69 1.58 1.54 1.58ZM32.36 22.18c.85 0 1.54-.7 1.54-1.58 0-.88-.7-1.59-1.54-1.59-.86 0-1.55.71-1.55 1.59 0 .87.7 1.58 1.55 1.58Z" fill="#EA584E"/><path d="M15.05 24.82c.95 0 1.72-.79 1.72-1.76 0-.98-.77-1.77-1.72-1.77s-1.72.79-1.72 1.77c0 .97.77 1.76 1.72 1.76ZM41.42 24.79c.95 0 1.72-.8 1.72-1.77 0-.98-.77-1.77-1.72-1.77s-1.72.8-1.72 1.77c0 .98.77 1.77 1.72 1.77Z" fill="#52BDE8"/><path d="M21.03 25.32c.85 0 1.54-.7 1.54-1.58 0-.87-.69-1.58-1.54-1.58-.85 0-1.53.7-1.53 1.58 0 .87.68 1.58 1.53 1.58ZM35.4 25.3c.85 0 1.54-.71 1.54-1.59 0-.87-.7-1.58-1.54-1.58-.86 0-1.55.7-1.55 1.58 0 .88.7 1.59 1.55 1.59Z" fill="#EA584E"/><path d="M28 31a3 3 0 1 0 0-6 3 3 0 0 0 0 6ZM15.83 28.6a1.8 1.8 0 0 0-1.09-2.27c-.9-.31-1.88.2-2.19 1.15a1.8 1.8 0 0 0 1.09 2.27c.9.3 1.88-.2 2.19-1.15ZM42.28 29.73c.95 0 1.72-.79 1.72-1.76 0-.98-.77-1.77-1.72-1.77s-1.72.79-1.72 1.77c0 .97.77 1.76 1.72 1.76Z" fill="#52BDE8"/><path d="M19.91 29.59c.86 0 1.55-.72 1.55-1.6 0-.88-.7-1.59-1.55-1.59-.86 0-1.55.71-1.55 1.6 0 .87.7 1.59 1.55 1.59ZM36.52 29.53c.84 0 1.53-.7 1.53-1.57 0-.87-.69-1.58-1.53-1.58-.85 0-1.54.7-1.54 1.58 0 .87.69 1.57 1.54 1.57ZM35.42 33.84c.85 0 1.54-.71 1.54-1.59 0-.87-.69-1.58-1.54-1.58-.85 0-1.54.7-1.54 1.58 0 .88.69 1.59 1.54 1.59ZM21.05 33.88c.85 0 1.53-.7 1.53-1.57 0-.87-.68-1.57-1.53-1.57-.84 0-1.53.7-1.53 1.57 0 .87.69 1.57 1.53 1.57Z" fill="#EA584E"/><path d="M41.45 34.66c.95 0 1.73-.8 1.73-1.77 0-.98-.78-1.77-1.73-1.77s-1.72.8-1.72 1.77c0 .98.77 1.77 1.72 1.77ZM15.06 34.72c.94 0 1.7-.79 1.7-1.76s-.76-1.75-1.7-1.75c-.95 0-1.71.78-1.71 1.75s.76 1.76 1.7 1.76Z" fill="#52BDE8"/><path d="M32.4 36.93c.84 0 1.53-.7 1.53-1.58 0-.87-.69-1.58-1.54-1.58-.85 0-1.54.7-1.54 1.58 0 .87.7 1.58 1.54 1.58ZM24.1 36.99c.85 0 1.54-.7 1.54-1.58 0-.87-.69-1.58-1.54-1.58-.85 0-1.54.7-1.54 1.58 0 .87.7 1.58 1.54 1.58ZM28.26 38.08c.85 0 1.53-.7 1.53-1.57 0-.88-.68-1.58-1.53-1.58s-1.54.7-1.54 1.58c0 .87.7 1.57 1.54 1.57Z" fill="#EA584E"/><path d="M39.03 39.03c.95 0 1.72-.8 1.72-1.78 0-.97-.77-1.77-1.72-1.77-.96 0-1.73.8-1.73 1.77 0 .98.77 1.78 1.73 1.78ZM17.49 39.07c.95 0 1.72-.8 1.72-1.77 0-.98-.77-1.77-1.72-1.77-.96 0-1.73.8-1.73 1.77 0 .98.77 1.77 1.73 1.77ZM35.26 42.22c.96 0 1.73-.8 1.73-1.78s-.77-1.78-1.73-1.78c-.95 0-1.73.8-1.73 1.78s.78 1.78 1.73 1.78ZM21.25 42.28c.95 0 1.71-.79 1.71-1.76s-.76-1.76-1.71-1.76-1.71.79-1.71 1.76.76 1.76 1.71 1.76ZM30.7 43.97c.96 0 1.73-.8 1.73-1.77 0-.98-.77-1.78-1.72-1.78-.96 0-1.73.8-1.73 1.78s.77 1.77 1.73 1.77ZM25.82 44c.95 0 1.72-.8 1.72-1.77 0-.98-.77-1.77-1.72-1.77s-1.73.79-1.73 1.77.78 1.77 1.73 1.77Z" fill="#52BDE8"/></svg>