<!-- by TradingView --><svg width="56" height="56" viewBox="0 0 56 56" xmlns="http://www.w3.org/2000/svg"><path fill="#3469F0" d="M0 0h56v56H0z"/><path d="M25.8 45h-.12l-2.72-.61a1.2 1.2 0 0 1-.43-.17c-.36-.28-.4-.61-.36-1.11a69.59 69.59 0 0 0 .05-1.09 15.06 15.06 0 0 1-2.26-1.16h-.03c-.35.3-.67.55-.96.78a.98.98 0 0 1-.64.23.77.77 0 0 1-.51-.18l-2-1.83a1.53 1.53 0 0 1-.25-.27.97.97 0 0 1 .03-1 68.58 68.58 0 0 1 .67-1.05 14.77 14.77 0 0 1-1.24-1.78l-.98.22c-.27.05-.45.07-.57.05a1 1 0 0 1-.51-.24 2 2 0 0 1-.32-.63 298 298 0 0 0-.88-2.26c-.18-.45.05-.91.45-1.15a178.73 178.73 0 0 0 1.06-.64v-.02a15.4 15.4 0 0 1-.28-2.5l-.02-.01-1.24-.41c-.4-.13-.64-.38-.74-.74v-.31l.39-2.43c.05-.33.1-.55.16-.63.1-.15.23-.26.4-.34.11-.05.29-.08.52-.08a46.67 46.67 0 0 1 1.23-.02l.01-.02a15.22 15.22 0 0 1 .78-1.96l-.02-.02-1-.97a.97.97 0 0 1-.26-.9c.02-.1.09-.22.2-.38l1.51-2.18c.27-.38.77-.46 1.17-.26a14592.54 14592.54 0 0 0 1.3.62h.03a15.1 15.1 0 0 1 1.76-1.53V16l-.36-1.1c-.16-.47-.2-.8.06-1.16.07-.09.21-.19.43-.3l2.29-1.2a.9.9 0 0 1 .94.09c.1.07.2.18.3.35a103.78 103.78 0 0 0 .85 1.13h.03a14.2 14.2 0 0 1 1.96-.44l.02-.02.25-1.52c.06-.36.27-.67.61-.79.08-.03.23-.04.44-.04l2.66.03c.41 0 .75.37.81.78a99 99 0 0 1 .27 1.69l.02.01a14.32 14.32 0 0 1 1.9.51l.01-.01.79-1.05c.2-.27.36-.44.47-.49.37-.19.64-.14 1.03.08l2.02 1.09c.27.14.44.26.5.34.12.16.18.34.2.56 0 .12-.04.3-.14.57a152.46 152.46 0 0 0-.45 1.38 14.59 14.59 0 0 1 1.67 1.56h.03l1.4-.67c.25-.12.47-.16.73-.1.27.06.4.23.57.47l1.3 1.9c.2.27.3.47.32.58.03.18 0 .37-.07.56a1.5 1.5 0 0 1-.35.44 421.14 421.14 0 0 0-1.17 1.16 15 15 0 0 1 .54 1.5h.03l1.72.1c.43.02.84.32.88.77a879.8 879.8 0 0 1 .3 2.94.93.93 0 0 1-.33.64c-.12.1-.33.18-.63.26a52.46 52.46 0 0 0-1.38.4 15.42 15.42 0 0 1-.23 1.98l.02.02 1.29.82c.27.18.44.32.52.44a.95.95 0 0 1 .11.8l-1.16 2.69a.63.63 0 0 1-.23.25 1 1 0 0 1-.87.15 200.26 200.26 0 0 0-1.47-.38l-.02.02a14.78 14.78 0 0 1-1.1 1.64l.8 1.37c.26.43.2.9-.18 1.23l-1.74 1.48c-.31.28-.52.43-.63.45-.43.1-.7-.03-1.05-.34a362.44 362.44 0 0 0-.93-.8h-.02a14.64 14.64 0 0 1-1.6.91l.1 1.3c.02.33 0 .56-.04.7a.96.96 0 0 1-.33.45c-.1.07-.28.13-.54.18l-2.5.58a.8.8 0 0 1-.26 0c-.35-.04-.61-.3-.74-.63a271.46 271.46 0 0 0-.5-1.24h-.03a14.71 14.71 0 0 1-2.25.06l-.5 1.24a.96.96 0 0 1-.77.63Zm14.15-17c0-3.2-1.26-6.27-3.5-8.53a11.9 11.9 0 0 0-16.91 0 12.1 12.1 0 0 0 0 17.05 11.9 11.9 0 0 0 16.9 0A12.1 12.1 0 0 0 39.96 28Z" fill="#fff"/><path d="M24.98 32h-.95c-.02 0-.03-.01-.03-.03v-4.53c.1-.3.43-.36.68-.17.34.27.4.49.7.79l.99.97c.19.19.38.36.68.23a.8.8 0 0 0 .22-.17c.8-.8 1.67-1.7 2.62-2.7.13-.15.3-.29.5-.43.82-.57 1.6-.26 1.61.69v4.82c0 .12.36.19.46.2.47.03.54-.23.54-.65v-6.65c0-.63-.92-.82-1.33-.67-.12.04-.26.16-.43.34l-3.9 3.97c-.1.1-.28.21-.45.17a.58.58 0 0 1-.19-.13 688 688 0 0 0-2.17-1.96.78.78 0 0 0-.46-.16c-.5-.05-1.04.17-1.29.59a.52.52 0 0 0-.08.26c0 .47 0 2.35.04 4.73 0 .24-.07.48-.37.49-.23 0-.37-.18-.37-.4v-5.7a1.72 1.72 0 0 1 1.57-1.54c.57-.06 1.1.08 1.55.4a22.02 22.02 0 0 1 2.08 1.91c.24.26.46.14.67-.08l.33-.33a347.86 347.86 0 0 0 2.92-2.98 1.89 1.89 0 0 1 1.95-.02c.62.37.93.94.93 1.64v6.02c0 .32-.02.54-.06.65-.1.29-.31.48-.56.7-.27.22-.57.43-.9.61-.4.2-.95.12-1.3-.08-.05-.02-.18-.14-.18-.2l.03-4.95H31l.02-.01H31c-1.38 1.37-2.4 3.08-3.2 3.86-.17.17-.33.3-.49.37-.39.17-.93.16-1.33.05-.4-.12-.62-1.3-.94-1.56h-.02a3 3 0 0 0-.02.14v1.39c0 .03 0 .11-.02.11Z" fill="#fff"/><path d="M28.8 17.02c.48.03.97.1 1.44.2l.78.18a10.88 10.88 0 0 1 5.84 4 10.9 10.9 0 0 1 1.57 3.01l-1.93.67h-.02v-.01a9.03 9.03 0 0 0-3.97-4.8 9.03 9.03 0 0 0-2.49-.97l-.82-.15a9.33 9.33 0 0 0-1.47-.07l-.63.04a.02.02 0 0 1-.02-.02c0-.38.16-.61.36-.98a5.4 5.4 0 0 1 .77-1.12l.59.02Z" fill="url(#a)"/><path d="M24.46 17.55h.01l.01.01.67 1.93v.02a.03.03 0 0 1-.02.02 9.1 9.1 0 0 0-5 4.24l-.02.06a8.97 8.97 0 0 0-1 3.38l-.03.6a10.15 10.15 0 0 0 .07 1.45l-.35-.19c-.38-.21-.83-.42-1.14-.6a5.88 5.88 0 0 1-.66-.52c0-.4.02-.81.07-1.22l.1-.69a10.53 10.53 0 0 1 1.1-3.21c.34-.64.73-1.23 1.18-1.79l.07-.08c.33-.4.7-.79 1.09-1.14l.05-.05c1.12-1 2.38-1.73 3.8-2.22Z" fill="url(#b)"/><path d="M36.85 26.71a7.33 7.33 0 0 1 2.15 1.1c0 .58-.03 1.16-.1 1.74l-.08.47-.26 1.07a10.85 10.85 0 0 1-2.3 4.18 10.92 10.92 0 0 1-4.8 3.16l-.66-1.91a.03.03 0 0 1 0-.03.03.03 0 0 1 .02-.01 9.38 9.38 0 0 0 3.5-2.18 9.04 9.04 0 0 0 1.49-1.98l.03-.07a9.02 9.02 0 0 0 1.04-3.42l.03-.37.01-.55a9.14 9.14 0 0 0-.07-1.2Z" fill="url(#c)"/><path d="M19.5 30.84h.01a.03.03 0 0 1 .02.02 8.92 8.92 0 0 0 7.67 6.03l.97.03a10.25 10.25 0 0 0 1.26-.1c-.02.23-.07.43-.14.6a9.4 9.4 0 0 1-.84 1.56l-.18.01c-.38.02-.76.01-1.14-.02l-.97-.12L25 38.6a10.96 10.96 0 0 1-7.44-7.1l1.92-.66h.01Z" fill="url(#d)"/><defs><linearGradient id="a" x1="28.63" y1="18.4" x2="36.82" y2="24.39" gradientUnits="userSpaceOnUse"><stop stop-color="#fff"/><stop offset="1" stop-color="#fff" stop-opacity=".3"/></linearGradient><linearGradient id="b" x1="18.04" y1="27.83" x2="24.15" y2="19.94" gradientUnits="userSpaceOnUse"><stop stop-color="#fff"/><stop offset="1" stop-color="#fff" stop-opacity=".3"/></linearGradient><linearGradient id="c" x1="37.68" y1="28.49" x2="32.18" y2="37.39" gradientUnits="userSpaceOnUse"><stop stop-color="#fff"/><stop offset="1" stop-color="#fff" stop-opacity=".3"/></linearGradient><linearGradient id="d" x1="28.25" y1="38.22" x2="19.17" y2="32.73" gradientUnits="userSpaceOnUse"><stop stop-color="#fff"/><stop offset="1" stop-color="#fff" stop-opacity=".3"/></linearGradient></defs></svg>