<!-- by TradingView --><svg width="56" height="56" viewBox="0 0 56 56" xmlns="http://www.w3.org/2000/svg"><path fill="#0DFF00" d="M0 0h56v56H0z"/><path d="M28 52a24 24 0 1 0 0-48 24 24 0 0 0 0 48Z"/><path d="M37.08 32.82c.76 0 1.51-.25 2.26-.75l.66.9A4.78 4.78 0 0 1 37.08 34c-1.28 0-2.28-.4-3-1.2A4.75 4.75 0 0 1 33 29.54c0-.86.16-1.64.48-2.33.33-.69.8-1.23 1.41-1.62.62-.4 1.35-.59 2.2-.59 1.11 0 2.08.34 2.9 1.02l-.68.9c-.76-.5-1.5-.76-2.24-.76-.78 0-1.4.3-1.88.87-.46.57-.7 1.4-.7 2.51 0 1.1.24 1.93.7 2.48.47.53 1.1.8 1.9.8ZM22.47 35.47 29.38 20l1.09.56L23.57 36l-1.1-.53ZM15 32.5c0-.42.14-.77.43-1.06.3-.3.65-.44 1.07-.44.43 0 .79.15 1.07.44.29.29.43.64.43 1.06a1.46 1.46 0 0 1-1.5 1.5 1.5 1.5 0 0 1-1.07-.43A1.5 1.5 0 0 1 15 32.5Z" fill="#0DFF00"/><g filter="url(#a)"><path d="M37.13 32.82a3.9 3.9 0 0 0 2.22-.75l.65.9A4.63 4.63 0 0 1 37.13 34c-1.26 0-2.25-.4-2.96-1.2a4.8 4.8 0 0 1-1.05-3.26c0-.86.16-1.64.47-2.33.32-.69.79-1.23 1.4-1.62.6-.4 1.31-.59 2.14-.59 1.1 0 2.05.34 2.85 1.02l-.66.9a3.93 3.93 0 0 0-2.2-.76c-.77 0-1.38.3-1.85.87-.45.57-.68 1.4-.68 2.51 0 1.1.23 1.93.68 2.48.47.53 1.09.8 1.86.8Z" fill="#0DFF00"/><g filter="url(#b)"><path d="M22.47 35.47 29.38 20l1.09.56L23.57 36l-1.1-.53Z" fill="#0DFF00"/></g><path d="M15 32.5c0-.42.14-.77.43-1.06.3-.3.65-.44 1.07-.44.43 0 .79.15 1.07.44.29.29.43.64.43 1.06a1.46 1.46 0 0 1-1.5 1.5 1.5 1.5 0 0 1-1.07-.43A1.5 1.5 0 0 1 15 32.5Z" fill="#0DFF00"/></g><defs><filter id="a" x="3.53" y="8.53" width="47.94" height="38.94" filterUnits="userSpaceOnUse" color-interpolation-filters="sRGB"><feGaussianBlur stdDeviation="5.73"/></filter><filter id="b" x="18.47" y="20" width="16" height="24" filterUnits="userSpaceOnUse"><feFlood flood-opacity="0" result="BackgroundImageFix"/><feColorMatrix in="SourceAlpha" result="hardAlpha"/><feOffset dy="4"/><feGaussianBlur stdDeviation="2"/><feColorMatrix values="0 0 0 0 0 0 0 0 0 0 0 0 0 0 0 0 0 0 0.25 0"/><feBlend in="SourceGraphic"/></filter></defs></svg>