<!-- by TradingView --><svg width="56" height="56" viewBox="0 0 56 56" xmlns="http://www.w3.org/2000/svg"><path fill="#F0F3FA" d="M0 0h56v56H0z"/><path d="M45 45c-14.93-4.95-13.83-10.8-13.83-10.8S34.35 39.1 45 45ZM23.73 32.71c-.87-2.62-2.79-3.76-5.6-4.05 2.22-1.93 1.9-4.15 1.1-6.68 2.8.7 4.38-.91 5.91-2.86a7.4 7.4 0 0 0 5.9 4.06c-1.75 3.77-.5 8.65 2.63 9.85-2.21-4.67-1.3-8.8 3.04-13.58-8.42 4.16-10.57-.64-12.45-8.45-.01 9.25-3.3 10.95-9.68 7.7l3.15 4.24c1.61 4.5-2.91 5.39-4.73 7.87 6.42-1.97 8.5 2.15 10.49 6.9 1.15-4.95 3.79-2.7 6.58-1.47-1.7-2.84-3.53-4.13-6.34-3.53ZM26 24.97c.5.21.9.62 1.11 1.12.22.5.23 1.08.05 1.6a1.75 1.75 0 0 1-.96 1.12 1.67 1.67 0 0 1-1.46-.05 1.93 1.93 0 0 1-1.27-1.09 2.02 2.02 0 0 1 0-1.7c.45-1.14 1.4-1.28 2.53-1" fill="#678731"/></svg>