<!-- by TradingView --><svg width="56" height="56" viewBox="0 0 56 56" xmlns="http://www.w3.org/2000/svg"><path fill="#F0F3FA" d="M0 0h56v56H0z"/><path fill-rule="evenodd" d="M4 32h1.46l.62-1.97h2.84L9.54 32H11l-2.66-8H6.65L4 32Zm4.55-3.14-1.02-3.22h-.06l-1.02 3.22h2.1Zm9.98-2.62a1.04 1.04 0 0 0-.45-.77c-.26-.19-.6-.28-1.02-.28-.3 0-.55.05-.76.14-.21.08-.38.2-.49.36a.87.87 0 0 0-.06.94 1 1 0 0 0 .31.3 4.66 4.66 0 0 0 .9.35l.74.18c.3.07.58.16.85.28a3 3 0 0 1 .74.44c.22.17.4.39.52.64.13.25.19.54.19.88a2.1 2.1 0 0 1-1.37 2.01c-.44.2-.97.29-1.6.29-.6 0-1.13-.1-1.58-.28-.44-.19-.8-.46-1.05-.82-.24-.36-.38-.8-.4-1.31h1.4c.01.27.1.5.24.67.15.18.34.31.58.4.24.1.5.14.8.14.31 0 .58-.05.81-.14.24-.1.42-.22.55-.39.13-.16.2-.36.2-.58 0-.2-.06-.37-.18-.5a1.32 1.32 0 0 0-.49-.34c-.2-.09-.45-.17-.73-.24l-.89-.23a3.59 3.59 0 0 1-1.53-.75 1.72 1.72 0 0 1-.55-1.34 2 2 0 0 1 .37-1.2c.25-.34.6-.61 1.03-.8.43-.2.92-.29 1.47-.29.55 0 1.04.1 1.45.29.42.19.75.45 1 .8.23.33.36.72.36 1.15h-1.36ZM21 24v8h1.5v-2.7h1.57c.64 0 1.17-.12 1.6-.34.44-.23.77-.55 1-.94.22-.4.33-.86.33-1.37 0-.5-.11-.96-.33-1.36-.22-.4-.55-.72-.98-.95a3.36 3.36 0 0 0-1.6-.34H21Zm1.5 4.1h1.37c.37 0 .68-.06.91-.18.24-.13.41-.3.52-.52.12-.22.18-.47.18-.75 0-.29-.06-.54-.18-.75a1.16 1.16 0 0 0-.52-.5 1.98 1.98 0 0 0-.92-.19H22.5v2.9Zm5.96 3.9H27l2.65-8h1.7L34 32h-1.46l-.62-1.97h-2.84L28.46 32Zm2.07-6.36 1.02 3.22h-2.1l1.02-3.22h.06Zm9.02 1.1H41a3.15 3.15 0 0 0-.38-1.16c-.2-.34-.44-.63-.73-.86-.3-.24-.64-.42-1.02-.54a4.02 4.02 0 0 0-3.1.3c-.54.31-.98.77-1.3 1.37-.31.6-.47 1.31-.47 2.15 0 .84.16 1.55.47 2.15.32.6.75 1.06 1.3 1.37.55.32 1.17.48 1.87.48.47 0 .9-.07 1.29-.2A3.08 3.08 0 0 0 41 29.31l-1.45-.01a1.68 1.68 0 0 1-.66 1.05c-.17.13-.36.22-.57.28a2.35 2.35 0 0 1-1.8-.21c-.34-.21-.6-.52-.79-.92-.19-.41-.28-.91-.28-1.51 0-.59.1-1.08.28-1.49.19-.4.45-.71.78-.92.34-.22.72-.32 1.15-.32.24 0 .47.03.68.1a1.74 1.74 0 0 1 .98.74c.11.18.19.4.23.62ZM46 24v8h-1.5v-8H46Zm3 8v-8h-1.5v8H49Zm3 0v-8h-1.5v8H52Z"/></svg>