<!-- by TradingView --><svg width="56" height="56" viewBox="0 0 56 56" xmlns="http://www.w3.org/2000/svg"><path fill="#F0F3FA" d="M0 0h56v56H0z"/><path d="M28.54 14.79a20.02 20.02 0 0 0-2.61-3.66 17.08 17.08 0 0 1 18.94 18.95c-1.12-1.01-2.34-1.89-3.65-2.62l-1.36-.75A11.88 11.88 0 0 0 29.3 16.14l-.76-1.36Zm11.2 15.34c1.35.74 2.62 1.7 3.76 2.84.2.19.39.39.57.6a16.83 16.83 0 0 1-4.04 6.46 17.04 17.04 0 0 1-26.9-3.76 17.05 17.05 0 0 1 9.3-24.34 17 17 0 0 1 5.12 16.52c4.08-.96 8.45-.4 12.19 1.68ZM17.87 34.3a11.96 11.96 0 0 0 3.28-16.07 11.95 11.95 0 0 0-3.28 16.06Zm3.84 3.84a11.95 11.95 0 0 0 16.06-3.28 11.95 11.95 0 0 0-16.06 3.28Zm13.32-17.17a2.65 2.65 0 1 1-3.75 3.75 2.65 2.65 0 0 1 3.75-3.75Z" fill="#567BFD"/></svg>