<!-- by TradingView --><svg width="56" height="56" viewBox="0 0 56 56" xmlns="http://www.w3.org/2000/svg"><path fill="#F0F3FA" d="M0 0h56v56H0z"/><path d="M41 19h-3v18h7v-3h-4V19ZM13.42 19c-.79 0-1.42.63-1.42 1.4v15.2c0 .77.63 1.4 1.42 1.4h6.16c.79 0 1.42-.63 1.42-1.4V27h-5v3.02h2V34h-3V22h3v3h3v-4.6c0-.77-.63-1.4-1.42-1.4h-6.16ZM26.42 19c-.79 0-1.42.63-1.42 1.4v15.2c0 .77.63 1.4 1.42 1.4h6.16c.79 0 1.42-.63 1.42-1.4v-5.58h-3V34h-3V22h3v3h3v-4.6c0-.77-.63-1.4-1.42-1.4h-6.16Z" fill="#F7BD13"/></svg>