<!-- by TradingView --><svg width="56" height="56" viewBox="0 0 56 56" xmlns="http://www.w3.org/2000/svg"><path fill="#F0F3FA" d="M0 0h56v56H0z"/><path d="M26.5 17H26v7.5l.5-.5v-7ZM41 23c0-5.6-4.33-9-6-9.5 1.25 1.1 5 5.34 5 9.5 0 4-2.59 7.4-4 8.5 1.67-.5 5-2.9 5-8.5Z" fill="#BF0000"/><path d="M21 12v16c.8-1.6 3.67-3.33 5-4v-7c3-.17 9 .8 9 6s-5.33 6.83-8 7v4c8 0 12.6-3 13-11 .4-8-5.83-11-9-11H21Z"/><path d="M26.5 44H26V30c0-4 4.67-8 7-9.5-4.4 3.2-6.17 7.67-6.5 9.5v14Z" fill="#BF0000"/><path fill-rule="evenodd" d="M21 29v15h5V30c0-1.5 1.4-5.5 7-9.5-4 2.17-12 6.9-12 8.5Zm5-3h-.5l1.5-1-1 1Zm-1.5 2h-1l1.5-1.5h.5c-.4.4-.83 1.17-1 1.5ZM23 29v2h1v-2h-1Zm1 3v2h-1v-2h1Zm0 3v2h-1v-2h1Zm0 5v-2h-1v2h1Zm0 1v2h-1v-2h1Z"/><path d="M24 29h-.5v2h.5v-2Zm0 3h-.5v2h.5v-2Zm0 3h-.5v2h.5v-2Zm0 3h-.5v2h.5v-2Zm0 3h-.5v2h.5v-2Zm.5-13H24a3.7 3.7 0 0 1 1.5-1.5l-1 1.5Z" fill="#BF0000"/></svg>