<!-- by TradingView --><svg width="56" height="56" viewBox="0 0 56 56" xmlns="http://www.w3.org/2000/svg"><path fill="#F0F3FA" d="M0 0h56v56H0z"/><path d="m14 24 9.76-2.38c1.88-3.36 5.2-6.28 9.95-6.28 3.8 0 7.1 3.02 8.29 4.53-.6-1.35-3.73-6.87-13.04-6.87-9.28 0-13.84 7.33-14.96 11Z" fill="#E2211C"/><path d="M41.86 19.7c-1.28-2.16-4.18-5.17-8.8-5.17-6.69 0-9.99 4.88-10.87 7.48l1.57-.39c1.88-3.36 5.2-6.28 9.95-6.28 3.66 0 6.87 2.8 8.15 4.36ZM24.9 24.77 30 22l-4.33 8.1a5.31 5.31 0 0 1-3.47 2.68L12.75 35l-.75-.19 1.5-7.53.6.19 9.47-2.2c.47-.1.92-.28 1.34-.5Z"/><path d="m33.88 33.02-5.02 1.23-1.18 1.83 5.28-1.35c.46-.11.85-.42 1.07-.84l.18-.35c.22-.42.61-.73 1.08-.85l7.5-1.88c.59-.15 1.04-.65 1.13-1.26L44 29l-7.73 1.92c-.46.1-.84.4-1.07.82l-.24.45c-.23.42-.62.72-1.08.83ZM32.02 36.52l-5.75 1.42-1.18 1.83 6-1.53c.46-.12.85-.43 1.07-.85l.18-.35c.22-.42.62-.73 1.08-.85L41.8 34c.6-.15 1.05-.64 1.14-1.25l.08-.55-8.6 2.22c-.46.11-.85.41-1.07.82l-.25.45c-.22.42-.61.72-1.07.83Z" fill="#E2211C"/><path d="m25.28 39.73 3.61-5.48-16.13 3.92-.76-.15 2.24 3.4c.3.45.85.67 1.38.55l9.66-2.24Z" fill="#13216A"/><path d="M34.44 26.79c-.15.24-.26.4-.33.46l-.41.37a.18.18 0 0 1-.13.06l-.15-.01c-.04-.02-.05-.04-.04-.07l.19-.89c0-.03-.03-.05-.06-.04a.82.82 0 0 0-.22.14.68.68 0 0 0-.13.2 13 13 0 0 1-.48.85c0 .02-.03.03-.05.03-.04 0-.18.02-.19-.04a.69.69 0 0 1 .04-.38c.03-.07.02-.08-.03-.02l-.52.66c-.14.19-.43.17-.53-.05 0-.01-.04-.02-.05 0a2 2 0 0 1-.46.46c-.14.1-.28.12-.41.06-.28-.1-.41-.47-.46-.74l-.02-.28c0-.03-.02-.04-.04-.02l-1.74 1.44a.09.09 0 0 1-.06.02c-.04 0-.23-.02-.13-.1l1.96-1.63a5.04 5.04 0 0 1 3.76-6.1c.28-.13.56-.18.85-.17.26.02.57.14.71.36.11.17.17.36.18.55.02.8-.43 1.54-1.05 2.09a39.75 39.75 0 0 1-2.3 1.91c.07.48 0 .93-.22 1.37a33.92 33.92 0 0 1-.13.32l.07.09h.05l.48-.57c.15-.18.27-.36.34-.53.1-.24.19-.43.24-.58.03-.11.1-.15.21-.1.09.04.15.1.2.18h.04c.1-.14.21-.26.36-.36a.15.15 0 0 1 .18.01c.13.12.13.27.1.44-.05.23-.13.48-.23.77-.02.06 0 .07.05.03a2 2 0 0 0 .46-.5c.17-.3.42-.6.63-.86.14-.17.32-.3.55-.38.24-.1.42-.05.54.13.01.03.03.03.04 0l.48-1.13c.04-.09.1-.1.17-.04l.02.02c.06.04.08.1.04.18l-.75 1.85a.26.26 0 0 0 0 .2c.03.1.18.06.23 0l1-1.22c.06-.08.12-.07.17.01.07.12.14.24.06.37-.1.15-.19.32-.26.5-.05.12-.1.48.11.48.02 0 .04 0 .05-.02.1-.09.19-.17.23-.23a.5.5 0 0 0 .09-.25c.02-.3.2-1.23.69-1.16.23.04.25.3.16.46a4.82 4.82 0 0 1-.58.88c0 .08.04.14.11.18h.06a.56.56 0 0 0 .2-.1c.2-.16.36-.33.5-.52a.05.05 0 0 0 .02-.05c-.19-.58-.14-1.31.57-1.56.02 0 .03-.02.04-.04l.25-.57c.01-.04.08-.05.1-.02.06.07.07.15.04.25l-.1.3c0 .02 0 .03.03.03.2 0 .4.06.59.16.02.02.03.01.04 0l.25-.84c.01-.02.05-.03.07 0 .09.13.11.29.07.48a14.97 14.97 0 0 1-.11.51l.2.23c.22.32.26.65.11.99l.01.01.51-.09c.02 0 .02 0 .02-.02l.09-2.13c0-.1.06-.19.16-.24a.44.44 0 0 1 .08-.04c.1-.03.15 0 .14.1l-.24 2.26.02.02 2.07-.46c.07-.01.1 0 .09.07v.01l-.02.05a.1.1 0 0 1-.05.03l-2.08.53a.08.08 0 0 0-.06.06 4.5 4.5 0 0 1-.08.52c-.01.06-.04.1-.08.1h-.02c-.03 0-.05-.02-.05-.04 0-.05.07-.58 0-.57a64.31 64.31 0 0 0-1.67.44c-.29.09-.53.04-.74-.14l-.13-.11h-.05c-.2.28-.4.48-.6.62-.2.15-.54.21-.63-.1-.01-.03-.03-.03-.06 0-.14.11-.32.34-.54.33-.31 0-.23-.54-.18-.7.03-.1.01-.11-.05-.03a14.95 14.95 0 0 1-.7.8.62.62 0 0 1-.36.13c-.28.02-.24-.24-.23-.43 0-.02-.03-.02-.04 0-.13.2-.27.39-.42.55-.1.1-.18.16-.25.18-.32.07-.42-.4-.45-.62 0-.02-.01-.02-.02 0Zm-2.25-4.03a7.58 7.58 0 0 0-1.89 4.2c0 .05.02.06.07.03l3.37-2.76c.34-.28.58-.5.7-.63.4-.44.8-1.1.7-1.66-.05-.32-.24-.5-.6-.56-.88-.13-1.92.88-2.35 1.38Zm7.61 1.57c-.01 0-.03 0-.03.02l-.37 1.2v.04c.12.18.3.28.52.3h.04l.02-.04.4-1.26c0-.04 0-.07-.04-.09-.18-.1-.36-.16-.54-.17Zm-.4.11c.02-.03-.07.01-.08.02a.97.97 0 0 0-.25.77c0 .06.02.06.03 0 .06-.24.16-.5.3-.79Zm.94 1.4a.77.77 0 0 0 .43-.16c.3-.25.13-.69-.07-.93h-.03l-.33 1.08Zm-2.34.09c.01 0 .02 0 .03-.02.13-.15.24-.31.33-.48.03-.06.13-.26.02-.3-.1-.05-.2.15-.22.22a2.67 2.67 0 0 0-.16.58Zm-2.24-.08c0-.07-.07-.11-.13-.08-.3.17-.44.47-.58.75a.69.69 0 0 0-.08.32c0 .05.06.08.1.05.17-.14.31-.3.42-.5.1-.17.25-.34.27-.54Zm-4.13.5c0-.01-.01-.02-.03 0l-1.27 1a.07.07 0 0 0-.03.06c-.01.16 0 .91.33.85.4-.07.7-.52.84-.85.14-.35.2-.7.16-1.06Z"/></svg>