<!-- by TradingView --><svg width="56" height="56" viewBox="0 0 56 56" xmlns="http://www.w3.org/2000/svg"><path fill="#F0F3FA" d="M0 0h56v56H0z"/><path d="M30.17 16c7 .83 19.29 4.24 17.69 13.38-.83 4.75-6.03 7.88-10.63 9.23-7.67 2.24-14.98 1.77-21.95-1.41-6.47-2.96-10.06-9.66-4.63-15.26C14.1 18.4 19.13 16.42 25.8 16h4.38ZM28 18.05c-4.12 0-8.07 1.06-10.98 2.93-2.9 1.87-4.54 4.4-4.53 7.03 0 1.3.4 2.6 1.19 3.8.78 1.2 1.93 2.3 3.37 3.22 1.44.92 3.16 1.64 5.04 2.14 1.88.5 3.9.75 5.94.75 4.12-.01 8.07-1.06 10.98-2.93 2.9-1.87 4.53-4.4 4.53-7.03 0-1.3-.4-2.6-1.19-3.8-.78-1.2-1.93-2.3-3.37-3.22a17.86 17.86 0 0 0-5.04-2.14c-1.89-.5-3.9-.75-5.94-.75Zm4.04 3.32c2.1-.69 4.32-.19 6.39-.28.1 0 .18.02.26.07.08.04.15.11.2.2a.45.45 0 0 1-.07.5L37 23.92a1.77 1.77 0 0 1-1.57.57 5.29 5.29 0 0 0-4.43 1 .28.28 0 0 0-.1.14.27.27 0 0 0 0 .18c.02.05.06.1.1.13a.3.3 0 0 0 .18.05h3.43c.05 0 .1.02.16.05.04.03.08.07.1.12a.27.27 0 0 1-.03.3l-1.94 2.21c-.08.1-.2.19-.32.24a.95.95 0 0 1-.39.08h-3.65a1.84 1.84 0 0 0-1.38.63l-4.35 5.15a.66.66 0 0 1-.5.22h-4.25c-.02 0-.05 0-.07-.02a.12.12 0 0 1-.05-.05.11.11 0 0 1 .03-.13l4.53-5.36a.26.26 0 0 0 .04-.28.27.27 0 0 0-.1-.11.3.3 0 0 0-.16-.05h-3.73c-.05 0-.1 0-.14-.04a.25.25 0 0 1-.1-.1.24.24 0 0 1 .04-.27l1.72-1.94c.16-.19.36-.34.6-.44.22-.1.47-.21.73-.21h3.77c.4 0 .71-.09.96-.42a10.62 10.62 0 0 1 5.91-4.21Z" fill="#001D4C"/></svg>