<!-- by TradingView --><svg width="56" height="56" viewBox="0 0 56 56" xmlns="http://www.w3.org/2000/svg"><path fill="#F0F3FA" d="M0 0h56v56H0z"/><path d="m34.25 13.17-.03 1.3a4.1 4.1 0 0 1-1.79 2.78 8.59 8.59 0 0 1-3 1.42.39.39 0 0 1-.22-.02.38.38 0 0 1-.18-.13c-.22-.34-.17-.7.16-1.08.42-.07.64-.17.66-.3a.52.52 0 0 0-.03-.32.56.56 0 0 0-.22-.25.7.7 0 0 0-.68 0l-1.2.68a.86.86 0 0 1-.37.11l-3.8.29c-.97-.48-1.49-1.2-1.57-2.18 0-.09 0-.17.04-.25a1.2 1.2 0 0 0-.04-1l.1-.7A6.72 6.72 0 0 1 26.7 10a.24.24 0 0 1 .29.14.24.24 0 0 1-.1.3 1.8 1.8 0 0 0-.93 1.27.18.18 0 0 0 .1.19.18.18 0 0 0 .2-.02 7.2 7.2 0 0 1 4.62-1.73.37.37 0 0 1 .36.25.36.36 0 0 1-.14.41l-1.36.94a.34.34 0 0 0-.12.43.34.34 0 0 0 .4.17 8.93 8.93 0 0 0 1.32-.45 1.44 1.44 0 0 1 1.74.38c.36.44.75.73 1.17.88Z" fill="#F6AB03"/><path d="m22.09 13.52-.1.7-3.29 3.6c-1.32-1.69-1.35-3.76-1.7-5.74v-.88c1.94-.06 3.64.7 5.09 2.32ZM37.25 17.8l-3.03-3.33.03-1.3a7.15 7.15 0 0 1 4.32-2.02.4.4 0 0 1 .31.1.38.38 0 0 1 .12.3c-.13 1.83-.45 4.83-1.75 6.25Z" fill="#005CAC"/><path d="M21.98 14.22c.16.32.17.65.04 1a.6.6 0 0 0-.04.25c.08.97.6 1.7 1.57 2.18 1.67.99 3.65.23 5.21-.59a.28.28 0 0 1 .36.08l.05.12.02.18c-.33.38-.38.74-.16 1.08.04.06.1.1.18.13.07.03.15.04.23.02a8.59 8.59 0 0 0 3-1.42 4.1 4.1 0 0 0 1.78-2.78l3.03 3.33c-.1.24-.12.4-.08.5.44 1.06.67 1.82.69 2.27.18 3.77.39 7.5.63 11.2a10.72 10.72 0 0 0-7.81-4.47c-4.98-.5-10.16.1-13.16 4.6l.72-12.06.02-.05.47-1.26a.78.78 0 0 0 .03-.47l-.06-.24 3.28-3.6Z" fill="#21ADE7"/><path d="m29.2 17.44-.03-.18a.27.27 0 0 0-.15-.2.28.28 0 0 0-.25 0c-1.57.82-3.55 1.58-5.21.59l3.8-.29a.86.86 0 0 0 .35-.1l1.2-.69a.7.7 0 0 1 .69 0c.1.06.17.15.22.25.04.1.06.21.03.32-.02.13-.24.23-.66.3Z" fill="#E5AD12"/><path d="M22.16 26.7a1.63 1.63 0 0 1-1.01-.87 1.87 1.87 0 0 1-.1-1.41 2 2 0 0 1 .87-1.12 1.64 1.64 0 0 1 2.36.71 1.87 1.87 0 0 1 .1 1.41 2 2 0 0 1-.87 1.12c-.21.12-.43.2-.66.22-.23.03-.47.01-.69-.05ZM33.03 26.84a1.61 1.61 0 0 1-1.07-.78 2.01 2.01 0 0 1-.22-1.42c.1-.5.38-.93.76-1.22.39-.28.85-.4 1.3-.3.44.08.82.37 1.06.78.24.41.32.92.22 1.41-.1.5-.37.94-.76 1.22-.38.29-.85.4-1.3.31Z" fill="#002A70"/><path d="M22.68 24.47c-.01.34.2.62.49.63.28 0 .5-.26.52-.6 0-.34-.21-.62-.5-.63-.27 0-.5.26-.51.6ZM33.33 24.54c.05.34.32.58.62.54.3-.03.5-.34.46-.67-.04-.34-.31-.58-.61-.55-.3.04-.5.34-.47.68Z" fill="#fff"/><path d="M38.49 31.77c1.32 4.3-.73 7.77-4.82 9.25a15.31 15.31 0 0 1-11.22.05c-4.07-1.48-6.3-4.8-4.93-9.16 3-4.52 8.18-5.12 13.16-4.61 3.23.32 5.83 1.82 7.81 4.47Z" fill="#005CAC"/><path d="M27.94 35.94c2.06.02 3.6-.26 5.23-1.52a.2.2 0 0 1 .15-.04c.05 0 .1.03.13.06l.01.01a.18.18 0 0 1 0 .26c-2.17 1.94-3.08 1.74-5.52 1.72-2.43-.02-3.35.16-5.48-1.81a.18.18 0 0 1 0-.26.21.21 0 0 1 .14-.07c.05 0 .1.01.14.04 1.6 1.29 3.15 1.6 5.2 1.6Z" fill="#002A70"/><path d="M27.07 43.42c.34.59.42 1.27.23 2.05l-2.68 1.43a.86.86 0 0 1-1.16-.34 4.54 4.54 0 0 1-.23-3.73.92.92 0 0 1 .51-.57.95.95 0 0 1 .77 0l2.56 1.16ZM29.04 45.46c-.31-.6-.3-1.26.01-1.96.84-.4 1.71-.8 2.61-1.16.68-.28 1.12-.06 1.31.66a4.57 4.57 0 0 1-.31 3.55.83.83 0 0 1-.84.41.84.84 0 0 1-.3-.1l-2.48-1.4Z" fill="#005CAC"/><path d="M29.05 43.5c-.32.7-.32 1.35 0 1.96H27.3a2.7 2.7 0 0 0-.23-2.04l1.98.08Z" fill="#21ADE7"/></svg>