<!-- by TradingView --><svg width="56" height="56" viewBox="0 0 56 56" xmlns="http://www.w3.org/2000/svg"><path fill="#F0F3FA" d="M0 0h56v56H0z"/><path d="M28.2 12.12c.31 0 .57-.25.57-.56 0-.31-.26-.56-.57-.56a.56.56 0 0 0-.57.56c0 .3.25.56.57.56ZM24.71 12.74c.32 0 .57-.25.57-.56 0-.3-.25-.55-.57-.55a.57.57 0 0 0-.57.55c0 .31.26.56.57.56ZM30.32 12.8c.32 0 .58-.26.58-.57a.57.57 0 0 0-.58-.56.57.57 0 0 0-.57.56c0 .31.26.56.57.56ZM26.9 12.99c.31 0 .57-.25.57-.56a.57.57 0 0 0-.58-.56.57.57 0 0 0-.57.56c0 .3.26.56.57.56ZM33.78 13.39c.31 0 .57-.25.57-.56 0-.31-.26-.56-.57-.56a.57.57 0 0 0-.58.56c0 .3.26.56.58.56ZM28.95 13.6c.31 0 .57-.26.57-.57 0-.3-.26-.55-.57-.55a.57.57 0 0 0-.57.55c0 .31.25.56.57.56ZM32.26 13.8c.31 0 .57-.25.57-.56 0-.31-.26-.56-.57-.56a.57.57 0 0 0-.57.56c0 .3.25.56.57.56ZM23.66 13.93c.32 0 .57-.25.57-.56 0-.3-.25-.56-.57-.56a.57.57 0 0 0-.57.56c0 .3.26.56.57.56ZM21.51 14.1c.32 0 .57-.24.57-.55 0-.31-.25-.56-.57-.56a.57.57 0 0 0-.57.56c0 .3.25.56.57.56ZM25.76 14.15c.32 0 .57-.25.57-.56 0-.31-.25-.56-.57-.56a.57.57 0 0 0-.57.56c0 .3.25.56.57.56ZM30.8 14.56c.32 0 .58-.25.58-.56a.57.57 0 0 0-.58-.56.57.57 0 0 0-.57.56c0 .3.26.56.57.56ZM19.36 14.67c.32 0 .58-.25.58-.56 0-.3-.26-.56-.58-.56a.57.57 0 0 0-.57.56c0 .3.26.56.57.56ZM27.72 14.77c.32 0 .58-.25.58-.56 0-.31-.26-.56-.58-.56a.57.57 0 0 0-.57.56c0 .3.26.56.57.56ZM35.51 14.77c.32 0 .57-.25.57-.56 0-.31-.25-.56-.57-.56a.57.57 0 0 0-.57.56c0 .3.25.56.57.56ZM33.94 15.1c.32 0 .57-.25.57-.56 0-.31-.25-.56-.57-.56a.57.57 0 0 0-.57.56c0 .3.26.56.57.56ZM22.87 15.4c.31 0 .57-.26.57-.56 0-.31-.26-.56-.57-.56a.57.57 0 0 0-.57.56c0 .3.25.56.57.56ZM20.8 15.55c.32 0 .57-.25.57-.56 0-.3-.25-.56-.57-.56a.57.57 0 0 0-.57.56c0 .31.25.56.57.56ZM24.88 15.69c.32 0 .57-.25.57-.56 0-.3-.25-.56-.57-.56a.57.57 0 0 0-.57.56c0 .3.26.56.57.56ZM29.46 15.82c.32 0 .58-.26.58-.57a.57.57 0 0 0-.58-.56.57.57 0 0 0-.58.56c0 .31.26.57.58.57ZM32.38 15.87c.32 0 .58-.25.58-.56a.57.57 0 0 0-.58-.56.57.57 0 0 0-.57.56c0 .3.26.56.57.56ZM18.75 16.12c.31 0 .57-.25.57-.56 0-.3-.26-.56-.57-.56a.57.57 0 0 0-.58.56c0 .31.26.56.58.56ZM36.94 16.39c.32 0 .57-.25.57-.56 0-.3-.25-.56-.57-.56a.57.57 0 0 0-.57.56c0 .3.26.56.57.56ZM26.74 16.5c.32 0 .57-.26.57-.57a.57.57 0 0 0-.57-.56.57.57 0 0 0-.57.56c0 .31.25.57.57.57ZM38.52 16.49c.32 0 .57-.25.57-.56 0-.3-.25-.56-.57-.56a.56.56 0 0 0-.57.56c0 .3.26.56.57.56ZM35.3 16.67c.32 0 .57-.25.57-.56 0-.3-.25-.56-.57-.56a.57.57 0 0 0-.57.56c0 .31.25.56.57.56ZM16.78 17.07c.31 0 .57-.25.57-.56 0-.3-.26-.55-.57-.55a.56.56 0 0 0-.57.55c0 .31.25.56.57.56ZM20.43 17.24c.32 0 .57-.25.57-.56 0-.3-.25-.56-.57-.56a.57.57 0 0 0-.57.56c0 .31.25.56.57.56ZM22.45 17.24c.32 0 .57-.25.57-.56 0-.3-.25-.55-.57-.55a.56.56 0 0 0-.57.55c0 .31.26.56.57.56ZM30.86 17.32c.31 0 .57-.25.57-.56a.57.57 0 0 0-.57-.56.57.57 0 0 0-.58.56c0 .3.26.56.58.56ZM33.58 17.5c.32 0 .57-.24.57-.55 0-.31-.25-.56-.57-.56a.57.57 0 0 0-.57.56c0 .3.25.56.57.56ZM18.44 17.74c.32 0 .57-.25.57-.56 0-.3-.25-.56-.57-.56a.56.56 0 0 0-.57.56c0 .3.26.56.57.56ZM24.42 17.85c.32 0 .58-.25.58-.56 0-.31-.26-.56-.58-.56a.57.57 0 0 0-.57.56c0 .3.26.56.57.56ZM28.32 17.92c.32 0 .58-.25.58-.56a.57.57 0 0 0-.58-.57.57.57 0 0 0-.57.57c0 .3.25.56.57.56ZM38.03 18.2c.32 0 .57-.25.57-.56 0-.3-.25-.55-.57-.55a.57.57 0 0 0-.57.55c0 .31.26.56.57.56ZM14.96 18.38c.31 0 .57-.25.57-.56 0-.31-.26-.56-.57-.56a.57.57 0 0 0-.57.56c0 .3.25.56.57.56ZM39.64 18.38c.32 0 .57-.25.57-.56 0-.3-.25-.56-.57-.56a.57.57 0 0 0-.57.56c0 .31.26.56.57.56ZM36.26 18.47c.32 0 .57-.25.57-.56 0-.3-.25-.56-.57-.56a.57.57 0 0 0-.57.56c0 .31.26.56.57.56ZM16.55 18.66c.32 0 .57-.25.57-.56 0-.31-.25-.56-.57-.56a.57.57 0 0 0-.57.56c0 .3.26.56.57.56ZM41.13 18.89c.32 0 .57-.26.57-.56 0-.31-.25-.56-.57-.56a.57.57 0 0 0-.57.56c0 .3.26.56.57.56ZM20.6 19.3c.31 0 .57-.25.57-.56 0-.3-.26-.56-.57-.56a.57.57 0 0 0-.57.56c0 .3.25.56.57.56ZM26.23 19.31c.32 0 .57-.25.57-.56a.57.57 0 0 0-.57-.56.57.57 0 0 0-.57.56c0 .31.25.56.57.56ZM31.71 19.38c.32 0 .58-.25.58-.56 0-.3-.26-.56-.58-.56a.57.57 0 0 0-.57.56c0 .3.26.56.57.56ZM34.25 19.5c.32 0 .57-.26.57-.57 0-.3-.25-.55-.57-.55a.57.57 0 0 0-.57.55c0 .31.26.56.57.56ZM18.58 19.55c.31 0 .57-.25.57-.56 0-.3-.26-.56-.57-.56A.56.56 0 0 0 18 19c0 .3.25.56.57.56ZM22.71 19.78c.32 0 .58-.25.58-.56a.57.57 0 0 0-.58-.56.57.57 0 0 0-.57.56c0 .3.26.56.57.56ZM14.83 19.95c.31 0 .57-.25.57-.56 0-.31-.26-.56-.57-.56a.57.57 0 0 0-.57.56c0 .3.25.56.57.56ZM38.7 20.15c.32 0 .58-.25.58-.56 0-.3-.26-.55-.57-.55a.57.57 0 0 0-.57.55c0 .31.25.56.57.56ZM29.38 20.26c.32 0 .57-.25.57-.56a.57.57 0 0 0-.57-.56.57.57 0 0 0-.58.56c0 .3.26.56.58.56ZM16.7 20.34c.32 0 .58-.25.58-.56 0-.3-.26-.56-.57-.56a.57.57 0 0 0-.57.56c0 .31.25.56.57.56ZM40.4 20.4c.31 0 .57-.25.57-.56 0-.31-.26-.56-.57-.56a.57.57 0 0 0-.58.56c0 .3.26.56.58.56ZM36.72 20.47c.32 0 .57-.25.57-.56 0-.3-.25-.56-.57-.56a.57.57 0 0 0-.57.56c0 .3.26.56.57.56ZM41.88 21c.32 0 .57-.26.57-.57a.57.57 0 0 0-.57-.56.57.57 0 0 0-.57.56c0 .31.25.56.57.56ZM13.31 21.56c.32 0 .57-.25.57-.56 0-.3-.25-.56-.57-.56a.56.56 0 0 0-.57.56c0 .3.26.56.57.56ZM15.03 21.56c.32 0 .57-.25.57-.56 0-.31-.25-.56-.57-.56a.56.56 0 0 0-.57.56c0 .3.26.56.57.56ZM19.46 21.7c.31 0 .57-.26.57-.57 0-.3-.26-.55-.57-.55a.57.57 0 0 0-.57.55c0 .31.25.56.57.56ZM34.1 21.9c.31 0 .57-.26.57-.56a.57.57 0 0 0-.57-.57.57.57 0 0 0-.58.57c0 .3.26.56.58.56ZM21.87 22.14c.31 0 .57-.25.57-.56a.57.57 0 0 0-.57-.56.57.57 0 0 0-.58.56c0 .31.26.56.58.56ZM17.42 22.15c.31 0 .57-.25.57-.55 0-.31-.26-.56-.57-.56a.56.56 0 0 0-.57.56c0 .3.25.55.57.55ZM38.91 22.18c.32 0 .57-.25.57-.56 0-.3-.25-.55-.57-.55a.57.57 0 0 0-.57.55c0 .31.26.56.57.56ZM40.75 22.46c.32 0 .57-.25.57-.56 0-.3-.25-.55-.57-.55a.56.56 0 0 0-.57.55c0 .31.26.56.57.56Z" fill="#8B9899"/><path d="M27.99 21c.35 0 .61.05.79.16 2.1 1.25 3.55 2.14 4.36 2.66.32.2.56.53.7.95.1.24.14.65.15 1.21a261.83 261.83 0 0 1 0 4.01c0 .57-.04.97-.13 1.22a1.8 1.8 0 0 1-.7.95c-.81.52-2.26 1.42-4.36 2.68-.18.1-.44.16-.79.16-.35 0-.61-.05-.79-.16-2.1-1.25-3.55-2.14-4.36-2.66a1.8 1.8 0 0 1-.7-.95 4.14 4.14 0 0 1-.15-1.21 261.94 261.94 0 0 1 0-4.01c0-.57.04-.97.13-1.22.15-.42.38-.74.71-.95.8-.52 2.25-1.42 4.35-2.68.18-.1.44-.16.79-.16Z" fill="#FEC228"/><path d="M36.48 22.62c.32 0 .58-.25.58-.56 0-.3-.26-.56-.58-.56a.57.57 0 0 0-.57.56c0 .31.26.56.57.56ZM13.6 23.12c.3 0 .57-.25.57-.56a.57.57 0 0 0-.58-.56.57.57 0 0 0-.57.56c0 .31.26.56.57.56ZM42.25 23.15c.32 0 .58-.25.58-.56 0-.31-.26-.56-.58-.56a.57.57 0 0 0-.57.56c0 .3.26.56.57.56ZM15.68 23.2c.31 0 .57-.26.57-.56 0-.31-.26-.56-.57-.56a.57.57 0 0 0-.58.56c0 .3.26.55.58.55ZM43.51 24.1c.32 0 .57-.25.57-.56 0-.3-.25-.56-.57-.56a.57.57 0 0 0-.57.56c0 .31.25.56.57.56ZM19.18 24.23c.32 0 .58-.25.58-.56a.57.57 0 0 0-.58-.56.57.57 0 0 0-.57.56c0 .3.26.56.57.56ZM38.52 24.22c.32 0 .57-.25.57-.56 0-.31-.25-.56-.57-.56a.57.57 0 0 0-.57.56c0 .3.26.56.57.56ZM40.65 24.52c.32 0 .58-.25.58-.56 0-.31-.26-.56-.58-.56a.57.57 0 0 0-.57.56c0 .3.26.56.57.56ZM14.23 24.65c.32 0 .58-.25.58-.56a.57.57 0 0 0-.58-.57.57.57 0 0 0-.57.57c0 .3.26.56.57.56ZM17.02 24.86c.32 0 .57-.25.57-.56a.57.57 0 0 0-.57-.56.57.57 0 0 0-.57.56c0 .3.25.56.57.56ZM12.43 24.97c.32 0 .57-.25.57-.56 0-.3-.25-.56-.57-.56a.57.57 0 0 0-.57.56c0 .3.25.56.57.56ZM42.24 25.28c.31 0 .57-.25.57-.56 0-.31-.26-.56-.57-.56a.57.57 0 0 0-.58.56c0 .3.26.56.58.56ZM15.39 26.1c.31 0 .57-.24.57-.55a.57.57 0 0 0-.57-.56.57.57 0 0 0-.58.56c0 .3.26.56.58.56ZM37.32 26.16c.32 0 .57-.25.57-.56a.57.57 0 0 0-.57-.57.57.57 0 0 0-.58.57c0 .3.26.56.58.56ZM43.47 26.32c.31 0 .57-.25.57-.56 0-.3-.26-.56-.57-.56a.57.57 0 0 0-.58.56c0 .31.26.56.58.56ZM13.11 26.42c.32 0 .57-.26.57-.56 0-.31-.25-.56-.57-.56a.57.57 0 0 0-.57.56c0 .3.25.56.57.56ZM40.05 26.47c.32 0 .57-.25.57-.56a.57.57 0 0 0-.57-.56.57.57 0 0 0-.57.56c0 .3.25.56.57.56ZM19.95 26.63c.31 0 .57-.25.57-.56a.57.57 0 0 0-.57-.56.57.57 0 0 0-.58.56c0 .31.26.56.58.56ZM11.57 27.04c.32 0 .57-.25.57-.56 0-.31-.25-.56-.57-.56a.57.57 0 0 0-.57.56c0 .3.26.56.57.56ZM41.8 27.31c.32 0 .58-.25.58-.56 0-.3-.26-.56-.58-.56a.57.57 0 0 0-.57.56c0 .31.26.56.57.56ZM17.43 27.44c.32 0 .58-.25.58-.57a.57.57 0 0 0-.58-.56.57.57 0 0 0-.57.56c0 .32.25.57.57.57ZM44.43 27.56c.31 0 .57-.25.57-.56 0-.3-.26-.55-.57-.55a.56.56 0 0 0-.57.55c0 .31.25.56.57.56ZM14.19 27.75c.31 0 .57-.25.57-.56a.57.57 0 0 0-.57-.56.57.57 0 0 0-.58.56c0 .3.26.56.58.56ZM38.83 28.2c.31 0 .57-.26.57-.57a.57.57 0 0 0-.57-.56.57.57 0 0 0-.58.56c0 .31.26.56.58.56ZM12.33 28.42c.31 0 .57-.25.57-.56 0-.3-.26-.56-.57-.56a.57.57 0 0 0-.58.56c0 .3.26.56.58.56ZM43.05 28.45c.32 0 .57-.25.57-.56 0-.31-.25-.56-.57-.56a.56.56 0 0 0-.57.56c0 .3.26.55.57.55ZM15.84 28.88c.32 0 .57-.25.57-.56 0-.3-.25-.56-.57-.56a.56.56 0 0 0-.57.56c0 .3.26.56.57.56ZM40.95 29.16c.31 0 .57-.25.57-.56 0-.3-.26-.56-.57-.56a.57.57 0 0 0-.58.56c0 .3.26.56.58.56ZM36.7 29.49c.33 0 .58-.25.58-.56a.57.57 0 0 0-.57-.56.57.57 0 0 0-.57.56c0 .3.25.56.57.56ZM18.68 29.62c.32 0 .57-.25.57-.56a.57.57 0 0 0-.57-.56.57.57 0 0 0-.58.56c0 .31.26.56.58.56ZM13.39 29.65c.31 0 .57-.25.57-.56 0-.3-.26-.55-.57-.55a.57.57 0 0 0-.58.55c0 .31.26.56.58.56ZM43.96 29.76c.31 0 .57-.25.57-.56 0-.3-.26-.56-.57-.56a.57.57 0 0 0-.58.56c0 .31.26.56.58.56ZM42.27 30.4c.32 0 .57-.24.57-.55 0-.31-.25-.56-.57-.56a.57.57 0 0 0-.57.56c0 .3.26.56.57.56ZM11.89 30.58c.31 0 .57-.25.57-.55 0-.31-.26-.56-.57-.56a.56.56 0 0 0-.57.56c0 .3.25.55.57.55ZM14.86 30.66c.31 0 .57-.25.57-.56 0-.3-.26-.55-.57-.55a.56.56 0 0 0-.57.55c0 .31.25.56.57.56ZM39.61 30.71c.32 0 .57-.25.57-.56a.57.57 0 0 0-.57-.56.57.57 0 0 0-.57.56c0 .31.25.56.57.56ZM17 31.29c.32 0 .57-.25.57-.56 0-.3-.25-.56-.57-.56a.56.56 0 0 0-.57.56c0 .31.26.56.57.56ZM12.98 31.73c.31 0 .57-.25.57-.55 0-.31-.26-.56-.57-.56a.57.57 0 0 0-.57.56c0 .3.25.55.57.55ZM37.7 31.79c.32 0 .58-.25.58-.56 0-.3-.26-.56-.58-.56a.57.57 0 0 0-.57.56c0 .3.26.56.57.56ZM43.13 31.8c.32 0 .57-.25.57-.56 0-.3-.25-.56-.57-.56a.57.57 0 0 0-.57.56c0 .31.26.56.57.56ZM41.13 32.12c.32 0 .57-.25.57-.56 0-.3-.25-.56-.57-.56a.57.57 0 0 0-.57.56c0 .31.26.56.57.56ZM14.37 32.66c.32 0 .57-.26.57-.56 0-.31-.25-.56-.57-.56a.57.57 0 0 0-.57.56c0 .3.26.55.57.55ZM18.78 33.13c.31 0 .57-.25.57-.56 0-.3-.26-.56-.57-.56a.57.57 0 0 0-.57.56c0 .31.25.56.57.56ZM16.19 33.22c.31 0 .57-.25.57-.56 0-.31-.26-.56-.57-.56a.57.57 0 0 0-.58.56c0 .3.26.56.58.56ZM43.66 33.3c.32 0 .57-.25.57-.56 0-.31-.25-.56-.57-.56a.57.57 0 0 0-.57.56c0 .3.26.56.57.56ZM39.63 33.49c.32 0 .58-.25.58-.56 0-.31-.26-.56-.58-.56a.57.57 0 0 0-.57.56c0 .3.26.56.57.56ZM42 33.62c.32 0 .58-.25.58-.56 0-.31-.26-.56-.58-.56a.57.57 0 0 0-.57.56c0 .3.26.56.57.56ZM12.96 33.91c.31 0 .57-.25.57-.56a.57.57 0 0 0-.57-.56.57.57 0 0 0-.58.56c0 .31.26.56.58.56ZM21.07 34.11c.32 0 .57-.25.57-.56 0-.3-.25-.55-.57-.55a.56.56 0 0 0-.57.55c0 .31.26.56.57.56ZM37.76 34.36c.31 0 .57-.24.57-.55 0-.31-.26-.56-.57-.56a.56.56 0 0 0-.57.56c0 .3.25.55.57.55ZM35.43 34.49c.31 0 .57-.25.57-.56 0-.3-.26-.56-.57-.56a.56.56 0 0 0-.57.56c0 .3.25.56.57.56ZM14.33 34.74c.32 0 .57-.25.57-.55 0-.31-.25-.56-.57-.56a.57.57 0 0 0-.57.56c0 .3.26.55.57.55ZM40.58 35.13c.31 0 .57-.25.57-.55 0-.31-.26-.56-.57-.56a.56.56 0 0 0-.57.56c0 .3.25.55.57.55ZM42.45 35.16c.32 0 .57-.25.57-.55 0-.31-.25-.56-.57-.56a.57.57 0 0 0-.57.56c0 .3.26.55.57.55ZM15.98 35.24c.32 0 .57-.25.57-.55 0-.31-.25-.56-.57-.56a.56.56 0 0 0-.57.56c0 .3.26.55.57.55ZM18.06 35.23c.32 0 .57-.25.57-.56a.57.57 0 0 0-.57-.56.57.57 0 0 0-.57.56c0 .3.26.56.57.56ZM32.48 35.88c.31 0 .57-.25.57-.56 0-.3-.26-.56-.57-.56a.57.57 0 0 0-.57.56c0 .31.25.56.57.56ZM13.32 36.11c.31 0 .57-.25.57-.56 0-.3-.26-.56-.57-.56a.57.57 0 0 0-.57.56c0 .31.25.56.57.56ZM25.24 36.3c.32 0 .57-.24.57-.55 0-.31-.25-.56-.57-.56a.57.57 0 0 0-.57.56c0 .3.25.56.57.56ZM38.9 36.28c.3 0 .56-.25.56-.56 0-.31-.25-.56-.57-.56a.57.57 0 0 0-.57.56c0 .3.25.56.57.56ZM20.33 36.54c.32 0 .57-.25.57-.56 0-.31-.25-.56-.57-.56a.57.57 0 0 0-.57.56c0 .3.26.56.57.56ZM40.98 36.76c.32 0 .57-.25.57-.56 0-.3-.25-.56-.57-.56a.56.56 0 0 0-.57.56c0 .3.26.56.57.56ZM14.7 36.85c.32 0 .58-.25.58-.56a.57.57 0 0 0-.58-.56.57.57 0 0 0-.57.56c0 .31.26.56.57.56ZM22.8 36.97c.32 0 .58-.25.58-.56a.57.57 0 0 0-.57-.56.57.57 0 0 0-.58.56c0 .31.26.56.58.56ZM34.85 36.95c.32 0 .57-.25.57-.56 0-.31-.25-.56-.57-.56a.57.57 0 0 0-.57.56c0 .3.26.56.57.56ZM36.97 36.94c.32 0 .57-.25.57-.56 0-.3-.25-.56-.57-.56a.56.56 0 0 0-.57.56c0 .31.26.56.57.56ZM16.28 37.28c.32 0 .57-.25.57-.56 0-.3-.25-.56-.57-.56a.57.57 0 0 0-.57.56c0 .31.25.56.57.56ZM18.1 37.28c.32 0 .57-.25.57-.56 0-.3-.25-.56-.57-.56a.57.57 0 0 0-.57.56c0 .31.25.56.57.56ZM27.98 37.89c.31 0 .57-.25.57-.56 0-.3-.26-.56-.57-.56a.57.57 0 0 0-.57.56c0 .3.25.56.57.56ZM39.29 38.02c.31 0 .57-.25.57-.56 0-.3-.26-.56-.57-.56a.56.56 0 0 0-.57.56c0 .31.25.56.57.56ZM31.39 38.15c.31 0 .57-.25.57-.56 0-.3-.26-.56-.57-.56a.56.56 0 0 0-.57.56c0 .31.25.56.57.56ZM41.01 38.35c.32 0 .57-.25.57-.56 0-.3-.25-.56-.57-.56a.56.56 0 0 0-.57.56c0 .31.26.56.57.56ZM20.57 38.65c.31 0 .57-.25.57-.56 0-.31-.26-.56-.57-.56a.57.57 0 0 0-.57.56c0 .3.25.56.57.56ZM15.46 38.91c.32 0 .57-.25.57-.56 0-.3-.25-.55-.57-.55a.56.56 0 0 0-.57.55c0 .31.26.56.57.56ZM37.42 38.9c.32 0 .57-.26.57-.56 0-.31-.25-.56-.57-.56a.56.56 0 0 0-.57.56c0 .3.26.55.57.55ZM25.75 39.02c.31 0 .57-.25.57-.56 0-.31-.26-.56-.57-.56a.57.57 0 0 0-.57.56c0 .3.25.56.57.56ZM33.4 39.12c.32 0 .57-.25.57-.56 0-.3-.25-.56-.57-.56a.57.57 0 0 0-.57.56c0 .31.26.56.57.56ZM17.01 39.26c.32 0 .57-.25.57-.56 0-.3-.25-.56-.57-.56a.57.57 0 0 0-.57.56c0 .31.26.56.57.56ZM18.7 39.24c.31 0 .57-.25.57-.56 0-.3-.26-.56-.57-.56a.56.56 0 0 0-.57.56c0 .3.25.56.57.56ZM23.19 39.25c.32 0 .57-.25.57-.56 0-.3-.25-.56-.57-.56a.56.56 0 0 0-.57.56c0 .3.26.56.57.56ZM35.44 39.3c.31 0 .57-.25.57-.56 0-.31-.26-.56-.57-.56a.56.56 0 0 0-.57.56c0 .3.25.55.57.55ZM39.24 39.65c.32 0 .57-.25.57-.55 0-.31-.25-.56-.57-.56a.57.57 0 0 0-.57.56c0 .3.25.55.57.55ZM29.46 39.81c.32 0 .58-.25.58-.56a.57.57 0 0 0-.58-.56.57.57 0 0 0-.57.56c0 .31.26.56.57.56ZM21.42 40.5c.31 0 .57-.25.57-.55 0-.31-.26-.56-.57-.56a.57.57 0 0 0-.58.56c0 .3.26.56.58.56ZM37.32 40.6c.31 0 .57-.25.57-.56a.57.57 0 0 0-.57-.56.57.57 0 0 0-.58.56c0 .31.26.56.58.56ZM27 40.79c.32 0 .58-.25.58-.56 0-.3-.25-.56-.57-.56a.57.57 0 0 0-.57.56c0 .3.25.56.57.56ZM31.28 40.84c.32 0 .57-.25.57-.56 0-.3-.25-.56-.57-.56a.57.57 0 0 0-.57.56c0 .31.25.56.57.56ZM16.58 40.86c.32 0 .57-.25.57-.56 0-.31-.25-.56-.57-.56a.57.57 0 0 0-.57.56c0 .3.25.56.57.56ZM24.25 41.03c.32 0 .57-.25.57-.56a.57.57 0 0 0-.57-.56.57.57 0 0 0-.57.56c0 .31.25.56.57.56ZM19.73 41.03c.32 0 .57-.25.57-.56 0-.3-.25-.55-.57-.55a.57.57 0 0 0-.57.55c0 .31.26.56.57.56ZM18.12 41.11c.32 0 .57-.25.57-.56 0-.3-.25-.56-.57-.56a.57.57 0 0 0-.57.56c0 .31.26.56.57.56ZM35.3 41.15c.32 0 .57-.25.57-.56 0-.31-.25-.56-.57-.56a.57.57 0 0 0-.57.56c0 .3.25.56.57.56ZM38.86 41.18c.32 0 .57-.25.57-.55 0-.31-.25-.56-.57-.56a.56.56 0 0 0-.57.56c0 .3.26.55.57.55ZM33.27 41.25c.31 0 .57-.25.57-.56a.57.57 0 0 0-.57-.56.57.57 0 0 0-.58.56c0 .3.26.56.58.56ZM28.67 41.96c.32 0 .57-.25.57-.56 0-.3-.25-.55-.57-.55a.57.57 0 0 0-.57.55c0 .31.25.56.57.56ZM22.7 42.09c.32 0 .58-.25.58-.56 0-.3-.26-.56-.57-.56a.56.56 0 0 0-.57.56c0 .3.25.56.57.56ZM36.84 42.13c.32 0 .58-.25.58-.56a.57.57 0 0 0-.58-.56.57.57 0 0 0-.57.56c0 .31.26.56.57.56ZM25.75 42.4c.31 0 .57-.25.57-.56 0-.31-.26-.56-.57-.56a.56.56 0 0 0-.57.56c0 .3.25.56.57.56ZM21.14 42.62c.32 0 .57-.25.57-.56 0-.3-.25-.56-.57-.56a.57.57 0 0 0-.57.56c0 .3.25.56.57.56ZM30.58 42.64c.32 0 .57-.25.57-.56 0-.3-.25-.55-.57-.55a.56.56 0 0 0-.57.55c0 .31.26.56.57.56ZM34.75 42.7c.31 0 .57-.25.57-.55 0-.31-.26-.56-.57-.56a.57.57 0 0 0-.57.56c0 .3.25.55.57.55ZM19.57 42.78c.32 0 .57-.25.57-.56 0-.31-.25-.56-.57-.56a.57.57 0 0 0-.57.56c0 .3.26.56.57.56ZM32.64 42.88c.31 0 .57-.25.57-.56 0-.3-.26-.56-.57-.56a.57.57 0 0 0-.57.56c0 .31.25.56.57.56ZM24.35 43.38c.31 0 .57-.25.57-.56a.57.57 0 0 0-.57-.56.57.57 0 0 0-.58.56c0 .31.26.56.58.56ZM27.56 43.38c.31 0 .57-.25.57-.56a.57.57 0 0 0-.57-.56.57.57 0 0 0-.58.56c0 .31.26.56.58.56ZM22.85 43.96c.32 0 .57-.25.57-.56a.57.57 0 0 0-.57-.56.57.57 0 0 0-.57.56c0 .3.25.56.57.56ZM29.57 43.99c.31 0 .57-.26.57-.56a.57.57 0 0 0-.57-.57.57.57 0 0 0-.58.57c0 .3.26.56.58.56ZM33.9 44.05c.32 0 .58-.25.58-.56a.57.57 0 0 0-.58-.56.57.57 0 0 0-.57.56c0 .3.26.56.57.56ZM31.7 44.2c.32 0 .57-.25.57-.56 0-.3-.25-.55-.57-.55a.56.56 0 0 0-.57.55c0 .31.26.56.57.56ZM26.25 44.35c.31 0 .57-.25.57-.56 0-.3-.26-.55-.57-.55a.57.57 0 0 0-.58.55c0 .31.26.56.58.56ZM24.82 45c.31 0 .57-.25.57-.56 0-.3-.26-.56-.57-.56a.56.56 0 0 0-.57.56c0 .31.25.56.57.56ZM28.34 45c.31 0 .57-.26.57-.57 0-.3-.26-.56-.57-.56a.57.57 0 0 0-.57.56c0 .31.25.56.57.56Z" fill="#8B9899"/></svg>