<!-- by TradingView --><svg width="56" height="56" viewBox="0 0 56 56" xmlns="http://www.w3.org/2000/svg"><path fill="#F0F3FA" d="M0 0h56v56H0z"/><path d="m42.28 20 1.69 5.51h.06L45.71 20H47l-2.28 7h-1.44L41 20h1.28ZM29 27v-7h1v3h3v-3h1v7h-1v-3h-3v3h-1ZM9 27v-7h1v3.22L12.61 20h1.37l-2.44 3.02L14 27h-1.35l-1.89-3.12-.76 1.04V27H9Z"/><path fill-rule="evenodd" d="M18 27c1.66 0 3-1.57 3-3.5S19.66 20 18 20s-3 1.57-3 3.5 1.34 3.5 3 3.5Zm0-1c1.1 0 2-1.12 2-2.5s-.9-2.5-2-2.5-2 1.12-2 2.5.9 2.5 2 2.5Z"/><path d="M28 22.4h-1c-.14-.81-1.07-1.4-1.86-1.4-1.32 0-2.14 1.33-2.14 2.5s.8 2.5 2.13 2.5c.78 0 1.72-.57 1.87-1.36l1 .01C27.8 26.1 26.52 27 25.12 27 23.14 27 22 25.36 22 23.5c0-1.85 1.15-3.5 3.12-3.5 1.45 0 2.68.92 2.88 2.4Z"/><path fill-rule="evenodd" d="M35 27h1.11l.64-2h2.49l.64 2H41l-2.28-7h-1.44L35 27Zm3.92-3L38 21.1l-.93 2.9h1.85Z"/><path d="M12.06 36H10v-7h2.1c1.97 0 2.9 1.7 2.9 3.5 0 2.18-1.1 3.5-2.94 3.5ZM11 35h1c1.4 0 2-1.26 2-2.5 0-1.23-.58-2.5-1.96-2.5H11v5ZM16 36v-7h4v1h-3v2h2.5v1H17v2h3v1h-4ZM26 36v-7h4v1h-3v2h2.5v1H27v2h3v1h-4ZM42 36v-7h4v1h-3v2h2.5v1H43v2h3v1h-4ZM21 36v-7h4v1h-3v2h2.5v1H22v3h-1ZM36 29v7h-.98L32 31v5h-1v-7h.99L35 34v-5h1ZM40 31c-.05-.58-.4-1-.96-1-.44 0-1.03.3-1.04.93 0 .81 1 .94 1.47 1.1.79.24 1.53.84 1.53 1.96 0 1.37-1 2.01-1.98 2.01-1.05 0-1.98-.58-2.02-2h1c.04.72.48.95 1.02.95.47 0 .97-.29.98-.97 0-.56-.41-.8-.88-.95-.88-.3-2.12-.63-2.12-2.02 0-1.3 1.1-2.01 2.05-2.01.93 0 1.93.73 1.95 2h-1Z"/></svg>