<!-- by TradingView --><svg width="56" height="56" viewBox="0 0 56 56" xmlns="http://www.w3.org/2000/svg"><path fill="#F0F3FA" d="M0 0h56v56H0z"/><path d="M48 26h-2.07c-.24-1.3-1.43-2-2.7-2-2.11 0-3.23 1.55-3.23 3.48 0 1.94 1.1 3.52 3.22 3.52 1.24 0 2.45-.73 2.7-2.01L48 29a4.89 4.89 0 0 1-4.8 4c-3.16 0-5.2-2.44-5.2-5.5 0-3.05 2.05-5.5 5.2-5.5a4.76 4.76 0 0 1 4.8 4ZM29.3 33H27l4.17-11h2.65L38 33h-2.3l-3.16-8.74h-.09L29.3 33Zm.07-4h6.25v1.6h-6.25V29ZM20.14 22l2.8 8.66h.12l2.8-8.66H28l-3.8 11h-2.4L18 22h2.14ZM8 24v-2h9v2h-3.5v9h-2v-9H8Z"/></svg>