<!-- by TradingView --><svg width="56" height="56" viewBox="0 0 56 56" xmlns="http://www.w3.org/2000/svg"><path fill="#1B1C45" d="M0 0h56v56H0z"/><path d="M24.42 43.5a13.23 13.23 0 0 1-6.9-3.33 14.3 14.3 0 0 1-4.36-6.08 16.58 16.58 0 0 1 .67-13.62c1.8-3.5 4.68-6.04 8.6-7.59.15-.06.86-.25 2.13-.57a9.85 9.85 0 0 1 2.18-.3h.02c2.47-.05 4.25.08 5.32.4a16.1 16.1 0 0 1 10.34 8.7 15.63 15.63 0 0 1 1.5 8.43 15.83 15.83 0 0 1-3.03 8.04 16.16 16.16 0 0 1-6.44 5.19c-2.5 1.14-5.52 1.49-9.04 1.04-.13-.02-.38-.1-.76-.25a1.04 1.04 0 0 0-.23-.07Z" fill="#E6E7ED"/><path d="M30.6 13.33c0 .1.02.18.09.2.06.02.09 0 .1-.06.01-.07-.05-.12-.19-.14a.82.82 0 0 1-.04-.39c.01-.1-.03-.15-.12-.15l-1.65-.13c-.09-.01-.17.02-.24.1-.17.18-.44.26-.8.22-.14-.01-.22-.1-.22-.24 0-.15.06-.24.2-.26.33-.05 1.22-.01 2.67.12.15.02.38.09.68.2.3.13.54.2.7.22.63.08 1.46.34 2.5.78.15.06.18.16.08.3-.18.25-.38.45-.6.59a.5.5 0 0 1-.25.08c-.79.04-1.4 0-1.85-.14-.14-.05-.25 0-.3.13-.29.61-.62.75-1 .41a.23.23 0 0 0-.16-.06l-2-.03c-.06 0-.09-.03-.1-.08 0-.05.02-.08.07-.1.95-.32 1.75-.34 2.41-.05.18.08.31.07.4 0 .07-.07.15-.2.25-.38.04-.08.02-.13-.06-.16-.18-.06-.33-.04-.44.08-.07.07-.13.07-.2 0v-.01c-.05-.05-.05-.1 0-.15.18-.19.4-.34.65-.44a.1.1 0 0 0 .07-.08.1.1 0 0 0-.05-.1l-.07-.04c-.03-.02-.06-.02-.08 0-.2.14-.4.19-.6.13-.25-.07-.66-.1-1.22-.11l-.63-.02c-.11-.01-.16-.07-.15-.18v-.08c0-.07.04-.1.1-.1l2.05.12Z" fill="#1B1C45"/><path d="M27.67 15.49c.42.34.71.52.86.53.29.03.83.05 1.63.06a.4.4 0 0 0 .24-.08l.24-.16c.03-.03.06-.02.1 0 .02.03.03.06 0 .1l-.1.16c-.06.08-.05.16.01.24.27.3.56.54.88.71.03.02.07.02.1-.01s.04-.06.02-.1a1.23 1.23 0 0 0-.66-.6.19.19 0 0 1-.12-.14.19.19 0 0 1 .06-.17l.84-.86a.13.13 0 0 1 .1-.04l1.62-.03c.08 0 .14.03.19.1.2.31.56.61 1.1.9.05.04.08.08.09.14 0 .06-.01.1-.05.15-.27.26-.48.56-.63.89a.26.26 0 0 1-.28.17l-1.82-.15a.28.28 0 0 0-.28.14l-.88 1.33a.17.17 0 0 1-.16.08l-2-.02a.25.25 0 0 0-.18.07c-.27.25-.46.48-.54.7a.5.5 0 0 1-.08.13l-.68.85c-.02.03-.02.05.02.06l.09.03c.01 0 .03 0 .04-.02l1.08-1.23c.1-.1.2-.16.34-.16h1.72c.1 0 .17.04.22.11.42.66.86 1.17 1.33 1.54.07.06.07.12 0 .18-.4.35-.74.82-1.02 1.41a.47.47 0 0 1-.5.3l-1.81-.14a.14.14 0 0 1-.1-.06l-.84-1.18a.7.7 0 0 0-.54-.31l-2.18-.18c-.11 0-.2.03-.25.12l-1.1 1.62a.13.13 0 0 0-.02.05l-.07.2c-.03.09-.1.12-.18.1l-.21-.06a.15.15 0 0 1-.11-.12.15.15 0 0 1 .05-.16l.53-.44a.33.33 0 0 0 .1-.15c.2-.56.5-1 .9-1.32.05-.05.05-.1.01-.16l-.99-1.4c-.14-.2-.12-.38.06-.53.24-.21.38-.45.43-.7.02-.13.11-.3.27-.48l.05-.06a.22.22 0 0 0 .03-.25l-.34-.69a.2.2 0 0 0-.17-.11l-.41-.04a.2.2 0 0 1-.14-.06c-.14-.16-.32-.19-.55-.08-.1.04-.14.01-.15-.1 0-.14.05-.23.18-.28a.14.14 0 0 1 .09 0l.76.21c.13.04.24 0 .33-.09l.87-.87c.08-.07.09-.15.03-.24-.2-.3-.45-.53-.74-.67-.07-.03-.08-.08-.03-.14a.9.9 0 0 1 .24-.24c.1-.05.16-.02.17.08.02.14.12.26.3.37.1.07.13.14.1.22a.19.19 0 0 0 .03.18c.04.05.09.08.15.09.7.12 1.3.15 1.8.1.41-.06.68-.3.78-.73.05-.24-.12-.42-.53-.53-.28-.08-.87-.1-1.78-.06-.09 0-.13-.04-.13-.12v-.07c0-.04.02-.06.05-.07.88-.14 1.68-.1 2.42.13.16.05.28.15.36.3.15.26.29.43.42.5.03.01.04.04.04.07 0 .03-.02.05-.06.06a3 3 0 0 0-1.29.87.26.26 0 0 1-.2.08l-1.67-.02a.42.42 0 0 0-.24.07c-.32.21-.62.5-.9.87a.2.2 0 0 0-.01.23c.07.14.19.24.35.28.16.04.27.1.35.19l.15.14c.1.08.22.13.36.13h1.52c.1 0 .2-.02.29-.08.25-.17.46-.41.64-.73a.17.17 0 0 0-.02-.2l-.43-.62c-.08-.1-.06-.11.04-.03Z" fill="#1B1C45"/><path d="M30.6 13.32c.14.03.2.08.2.15-.02.06-.05.08-.11.06-.07-.02-.1-.1-.09-.2Z" fill="#E6E7ED"/><path d="m27.5 33.42.04.04c.03.03.06.02.08-.01l1.21-1.83a.15.15 0 0 1 .14-.07h2.2c.06 0 .1-.03.1-.1v-.1c0-.07-.05-.11-.13-.12l-2.35-.19a.16.16 0 0 1-.12-.07l-1.02-1.45c-.12-.16-.12-.33 0-.5.5-.66.85-1.21 1.05-1.64.02-.05.01-.09-.03-.11-.05-.03-.09-.02-.12.02L27.42 29c-.03.04-.06.05-.11.03a.76.76 0 0 1-.1-.06.1.1 0 0 0-.06-.01l-1.73-.05a.25.25 0 0 1-.17-.08c-.46-.5-.7-.97-.72-1.42a.2.2 0 0 0-.13-.18.19.19 0 0 0-.21.03c-.17.15-.19.32-.05.5l.9 1.21.02.08c0 .05 0 .09-.02.12-.03.08-.07.08-.11.01l-1.05-1.66a.12.12 0 0 1 0-.13l1.14-1.9a.23.23 0 0 1 .2-.11h1.62c.06 0 .1-.03.14-.08.03-.05.04-.1.02-.16l-.05-.13c-.01-.03 0-.05.02-.07.03-.01.05 0 .07.02l1.68 2.37c.05.08.12.11.2.11h2.19c.04 0 .08.02.1.06l1.37 1.72h.03l.08-.04c.02-.01.03-.03.01-.05l-1.41-1.8a.19.19 0 0 1-.02-.22c.14-.25.5-.8 1.05-1.62.21-.3.5-.43.86-.36.3.05.62 0 .95-.14.04-.02.06-.05.05-.1 0-.05-.04-.07-.09-.07l-1.04-.02c-.09 0-.14.03-.16.1 0 0-.1 0-.3-.04a.15.15 0 0 0-.17.07l-1.24 1.88a.25.25 0 0 1-.23.12c-.17 0-.45 0-.84-.02a.43.43 0 0 0-.3.1c-.07.07-.13.06-.18-.04-.03-.07-.08-.1-.16-.07-.22.06-.42.08-.6.06a.26.26 0 0 1-.21-.13 8.43 8.43 0 0 0-.43-.61 6 6 0 0 1-.98-1.7c-.01-.05-.01-.1.01-.14l.55-1.1c.04-.08.1-.14.18-.19l.29-.16c.08-.05.1-.12.04-.2l-.7-1.07a.06.06 0 0 1 0-.06c.03-.03.05-.02.07 0l.25.35c.28.42.5.68.65.78.06.05.08.11.04.2a.2.2 0 0 1-.05.07c-.12.1-.26.28-.4.52-.2.3-.39.51-.59.62-.07.04-.1.1-.1.18v.16c0 .04.02.07.05.08.03.02.07.01.1-.01a4.7 4.7 0 0 0 1-1.34.15.15 0 0 1 .13-.09h2.04c.06 0 .11.03.15.09.34.56.75 1.04 1.23 1.43.04.04.08.04.12 0 .02-.04.02-.07 0-.1l-1.24-1.48c-.04-.05-.05-.1-.01-.16l1.15-1.73a.25.25 0 0 1 .22-.12l1.61.02c.03 0 .05 0 .07-.02.26-.16.55-.5.87-1 .2-.3.34-.5.45-.6a.4.4 0 0 1 .27-.14l.8-.08v-.07c0-.04-.01-.05-.04-.05l-.88-.07a.14.14 0 0 1-.1-.05l-1.26-1.39c-.08-.08-.08-.16 0-.24l1.08-1.08a.2.2 0 0 1 .16-.07h.8c.04 0 .07-.02.08-.07 0-.05-.02-.08-.06-.1a2.17 2.17 0 0 0-1.13-.05.27.27 0 0 1-.22-.04l-1.14-.76c-.1-.06-.1-.14-.03-.22l.9-.9c.07-.06.15-.08.23-.03a16.2 16.2 0 0 1 5.28 4.33 15.26 15.26 0 0 1 2.94 6.11c1.08 4.66.16 8.96-2.75 12.89-2.82 3.82-6.73 5.88-11.74 6.2-.05 0-.1 0-.16-.02l-.19-.06a2.39 2.39 0 0 1-2.95-.33c-.1-.05-.1-.1-.01-.17l.54-.38a.17.17 0 0 1 .1-.04l1.47.02c.04 0 .05-.02.04-.06l-.06-.3a.07.07 0 0 0-.06-.05 1.74 1.74 0 0 0-1.3.15.32.32 0 0 1-.2.05c-.37-.05-.6.07-.68.35-.02.06-.06.09-.12.08l-2.3-.18a.11.11 0 0 1-.09-.05l-.16-.23c-.04-.06-.03-.08.04-.08l2.44.2c.13 0 .21-.04.26-.15a.24.24 0 0 0-.05-.3l-.58-.58a.84.84 0 0 0-.68-.26l-1 .08a.87.87 0 0 0-.34.1 1.5 1.5 0 0 0-.64.67c-.05.09-.12.12-.22.08-.3-.09-.54-.25-.73-.48-.03-.04-.03-.07.01-.1l.05-.03h.04c.13.15.3.25.5.32.08.03.14 0 .18-.07.14-.27.32-.5.54-.7.08-.06.08-.13 0-.2a22.4 22.4 0 0 1-.91-.7c-.25-.2-.48-.23-.69-.07a.96.96 0 0 1-.27.06c-.09.01-.18 0-.28-.04-.31-.13-.6-.22-.85-.27a.15.15 0 0 1-.1-.06l-.5-.7c-.02-.04-.01-.06.04-.06h.1c.04 0 .07.02.08.05.06.18.16.33.3.44.16.13.33.18.5.14.2-.03.34-.02.42.05.11.11.27.14.46.1.2-.05.38-.16.54-.34.18-.19.4-.43.64-.72.07-.07.07-.14 0-.22l-1.14-1.34a.2.2 0 0 0-.13-.07l-1.18-.15-.02-.01-.12-.22c-.01-.02 0-.03.02-.03l1.01.08c.08 0 .14-.02.2-.07.32-.34.52-.66.6-.96a.2.2 0 0 1 .15-.15l.1-.03c.13-.05.16-.13.08-.24l-1.13-1.6c-.03-.03-.02-.06.03-.06h.08l.05.02 1.31 1.26c.08.07.17.11.27.12l1.47.12c.14 0 .25-.05.32-.17l.77-1.34c.03-.05.06-.1.11-.14l.45-.41c.05-.05.06-.1.01-.15-.05-.06-.12-.08-.21-.05-.08.02-.13 0-.18-.07l-1.14-1.6c-.02-.04-.02-.08.01-.1.04-.04.07-.04.1-.01.19.14.37.4.56.78.17.35.34.6.5.75.03.04.07.04.1 0 .04-.02.05-.06.03-.1l-.56-.96a.7.7 0 0 1 .03-.78l.9-1.36a.14.14 0 0 1 .12-.06l1.89.05a.2.2 0 0 1 .17.1l1.24 1.76c.04.05.04.1 0 .14l-1.1 1.68a.16.16 0 0 1-.15.08l-2.02-.05a.34.34 0 0 0-.3.15l-1.3 1.84v.02c0 .09.02.15.07.17.03.01.06 0 .07-.02.04-.06.08-.1.13-.11.11-.02.15.02.13.14l-.03.03a.16.16 0 0 0 0 .18c.12.24.31.46.56.65.05.04.1.03.13-.03.03-.04.03-.08-.02-.1-.38-.26-.53-.6-.44-.99.05-.23.23-.57.53-1.02l.16-.26c.04-.06.1-.09.17-.09h2.08c.04 0 .08.02.11.05l1.26 1.53c.05.06.04.11 0 .17-.42.44-.79.89-1.09 1.34-.06.08-.08.15-.07.2l.02.08c-.02.09-.07.11-.15.08a4.34 4.34 0 0 0-1.98-.22.29.29 0 0 0-.21.12l-.26.33a3.4 3.4 0 0 0-.72 1.23c-.01.07.02.1.08.08l.35-.06c.04-.01.06-.03.06-.07v-.37c0-.04 0-.08.03-.1l.46-.57a.22.22 0 0 1 .12-.08c.7-.17 1.39-.19 2.06-.06.08.01.15.05.2.11l.96 1.15c.05.07.04.13-.03.18-.34.2-.68.56-1.03 1.06-.04.06-.1.08-.18.06a5.52 5.52 0 0 0-1.8-.18c-.08 0-.15.04-.2.11l-.25.38c-.05.08-.1.08-.16 0l-.04-.05c-.02-.04-.02-.07 0-.1l.3-.29c.08-.09.07-.16-.03-.22a3.39 3.39 0 0 1-.89-.68.25.25 0 0 0-.18-.1l-1.73-.13a.17.17 0 0 0-.12.04l-.92.81a.11.11 0 0 0-.04.11c0 .05.03.08.07.1.34.14.71.45 1.1.92.08.08.17.12.28.12h.3a7.4 7.4 0 0 0 1.47-.07c.48-.1.86-.33 1.13-.68.06-.08.13-.09.2-.03l.05.04c.05.06.12.09.2.08.43-.05.81-.02 1.16.08.07.03.14.01.2-.04l1.34-1.35a.1.1 0 0 1 .08-.02c.38.08.75.1 1.12.07.06 0 .1-.04.1-.1 0-.07-.04-.1-.1-.1l-1.06-.1a.26.26 0 0 1-.19-.09l-1-1.17c-.08-.09-.08-.17-.01-.26l1.04-1.31a.34.34 0 0 1 .25-.13l1.39-.1.02-.03.01-.08c0-.1-.04-.16-.14-.17l-1.32-.1a.45.45 0 0 1-.36-.22l-.1-.17c-.21-.33-.37-.56-.47-.68a2.19 2.19 0 0 0-.59-.47.15.15 0 0 1-.06-.07l-.02-.06c.02-.1.07-.12.15-.06Z" fill="#1B1C45"/><path d="M27.69 17.66c-.03.07-.07.08-.12.03l-.15-.16v-.02l1-1.1c0-.02.02-.02.04 0l.05.05c.05.04.04.09 0 .12-.39.3-.66.66-.82 1.08ZM27.78 17.92c-.04-.04-.03-.09.01-.12h.05c.04.01.08.03.1.07l.57.7c.02.03.03.06.01.1a.09.09 0 0 1-.08.05h-.13c-.08 0-.1.03-.1.1.03.1 0 .2-.04.34a.49.49 0 0 1-.15.2c-.45.38-.78.75-.99 1.12a.24.24 0 0 1-.22.13h-1.73c-.07 0-.12-.03-.14-.1a2.42 2.42 0 0 0-.9-1.27.28.28 0 0 1-.12-.23c0-.1.03-.17.1-.23.22-.2.44-.5.67-.9.11-.21.37-.33.77-.36.24-.02.63 0 1.19.05l.5.04c.08 0 .15.03.21.09.27.24.48.55.62.93l.02.01.15-.04c.03-.01.04-.03.03-.05a2.2 2.2 0 0 0-.4-.63Z" fill="#E6E7ED"/><path d="m35.35 19.17-.84 1.27a.58.58 0 0 1-.51.28h-1.64a.23.23 0 0 1-.18-.08l-1.27-1.43c-.05-.06-.05-.12 0-.18l1.07-1.3a.15.15 0 0 1 .13-.06l1.76.14c.07 0 .12.03.17.07l1.3 1.2c.03.02.04.05.01.09Z" fill="#1B1C45"/><path d="M24.79 37.27c-.05.17-.27.55-.66 1.12-.12.18-.22.25-.28.2a.83.83 0 0 0-.45-.15 5.7 5.7 0 0 1-1.24-.09.28.28 0 0 1-.2-.13 4.92 4.92 0 0 0-1.22-1.28c-.12-.08-.12-.17-.03-.26l1.15-1.16c.05-.05.1-.07.17-.07l1.62.03c.1 0 .17.04.22.1l.81.96c.05.05.1.08.17.1a3 3 0 0 1 .22.06c.14.06.17.15.08.29-.03.04-.1.08-.23.13a.22.22 0 0 0-.14.15ZM28.49 41.16l-.76-.76c-.03-.02-.03-.05 0-.08.02-.03.04-.04.08-.02.34.19.6.44.8.75.04.07.1.1.18.1h1.4c.16 0 .25.06.28.2 0 .02 0 .04-.03.05-.02.02-.04.01-.06 0-.13-.14-.23-.13-.32 0a.17.17 0 0 1-.15.09h-1.17l-.07.01c-.25.12-.48.35-.68.68-.11.18-.07.31.11.4.29.15.47.28.56.38.02.02.03.05 0 .09-.01.02-.04.03-.07.03-.37-.1-.62-.25-.76-.43-.17-.23-.14-.48.09-.74.2-.24.4-.45.57-.62.04-.04.04-.08 0-.13ZM24.63 41.09c.04-.03.13-.04.26-.01.06 0 .1.04.11.09.02.05.01.1-.02.14l-.06.03a.3.3 0 0 1-.28-.06c-.08-.07-.09-.13-.01-.19Z" fill="#E6E7ED"/></svg>