<!-- by TradingView --><svg width="56" height="56" viewBox="0 0 56 56" xmlns="http://www.w3.org/2000/svg"><path fill="#F0F3FA" d="M0 0h56v56H0z"/><path d="m16.84 17-1.63 1.33C13.45 34.58 23.01 43.55 28 46v-8.86C18.8 31.87 16.73 21.52 16.84 17Z" fill="url(#a)"/><path d="m39.16 17 1.63 1.33C42.55 34.58 32.99 43.55 28 46v-8.86C37.2 31.87 39.27 21.52 39.16 17Z" fill="url(#b)"/><path d="M28 33c-5.6-4.14-7.67-11.68-8-14.92L28 15v18Z" fill="url(#c)"/><path d="M28 33c5.6-4.14 7.67-11.68 8-14.92L28 15v18Z" fill="url(#d)"/><path d="M19 16v-2.62L28 10v2.64L19 16Z" fill="#C48B0A"/><path d="M37 16v-2.62L28 10v2.64L37 16Z" fill="#D5AD4D"/><defs><linearGradient id="a" x1="10.92" y1="22.42" x2="30.23" y2="37.43" gradientUnits="userSpaceOnUse"><stop stop-color="#CC9F38"/><stop offset="1" stop-color="#DAB96A"/></linearGradient><linearGradient id="b" x1="45.08" y1="22.42" x2="25.77" y2="37.43" gradientUnits="userSpaceOnUse"><stop stop-color="#C99623"/><stop offset="1" stop-color="#C48A0D"/></linearGradient><linearGradient id="c" x1="24" y1="15" x2="24" y2="33" gradientUnits="userSpaceOnUse"><stop stop-color="#C48A0D"/><stop offset="1" stop-color="#CD9D37"/></linearGradient><linearGradient id="d" x1="32" y1="15" x2="32" y2="33" gradientUnits="userSpaceOnUse"><stop stop-color="#D3AB4C"/><stop offset="1" stop-color="#C58E17"/></linearGradient></defs></svg>