<!-- by TradingView --><svg width="56" height="56" viewBox="0 0 56 56" xmlns="http://www.w3.org/2000/svg"><path fill="#F0F3FA" d="M0 0h56v56H0z"/><path fill-rule="evenodd" d="M28 45a17 17 0 1 0 0-34 17 17 0 0 0 0 34Zm0-2a15 15 0 1 0 0-30 15 15 0 0 0 0 30Z" fill="#F2E77E"/><path fill-rule="evenodd" d="M28 45a17 17 0 1 0-8-32v-1h-.57l-.03 1.33c-.18.1-.36.22-.54.34V12h-.35l-.1 1.96-.79.57L17.5 12h-.35v2.92l-.5.44-.07-3.36H16v3.96A17 17 0 0 0 28 45ZM16 16.68A16.44 16.44 0 0 0 11.5 28c0 4.64 1.92 8.82 5 11.82a1.25 1.25 0 0 1-.02-.27l.03-.5A15.88 15.88 0 0 1 12.06 28c0-4.02 1.49-7.69 3.94-10.49v-.83Zm1.14-.35-.48.47-.02-.76.5-.46v.75Zm-.68 3.74a13.94 13.94 0 0 0 .2 16.16l.83-14.36c.04-.83-.52-1.45-1.03-1.8Zm3.03 19.05a14 14 0 1 0 .5-22.61v3.3c-.51.22-1.54.95-1.48 2.06l.98 17.25Zm-.87 1.76A15.94 15.94 0 1 0 20 14.21v-.64A16.5 16.5 0 1 1 17.83 41a1.7 1.7 0 0 0 .79-.1Zm.77-26.96-.53.35v.67l.52-.35.01-.67ZM19.34 17c-.17.13-.33.26-.48.4v.9h.45l.03-1.3Zm-1.15 1.01-.02.3h-.27l.29-.3Zm.14-2.68-.64.51-.03-.7.71-.54-.04.73Z" fill="#EE6F27"/><path d="M17.05 13.01v-.44c6.23-.44 8.26-1.57 12.31-1.57C36.71 11 40 14.78 40 20c0 5.2-3.07 9-9 9-4.74 0-5.42-2.4-5.4-4h.4c.14 1.11.89 3 4.37 3 4.36 0 6.63-4.18 6.63-8 0-6.6-5.16-7.67-7.9-7.67-2.18 0-4.09.68-5.1 1.03V38.9c0 1.42.51 2.56 1.97 2.56h.9V42H17v-.54h.91c1.46 0 2.09-1.14 2.09-2.56V15.37c0-1.3-.54-2.36-1.89-2.36h-1.06Z"/></svg>