<!-- by TradingView --><svg width="56" height="56" viewBox="0 0 56 56" xmlns="http://www.w3.org/2000/svg"><path fill="#F0F3FA" d="M0 0h56v56H0z"/><path d="M36.5 29h1.46s.51 2-3.94 2c0 0-4.02.28-4.02-3 0 0-.25-2.98 4.02-2.98 0 0 3.98-.4 3.98 1.98h-1.5s.3-1.34-2.52-1.34c0 0-2.48-.14-2.48 2.35 0 0-.3 2.27 2.52 2.27 0 0 2.48.28 2.48-1.28Zm8.94-3.98c1.76.07 3.21.57 3.5 1.78.07.35.07 1.1.03 1.2H41.5c0 .5.04 1.93 1.85 2.25 1.28.17 2.2.03 2.8-.07.57-.15 1.18-.68 1.22-1.18h1.4c0 .1.01 1.89-3.13 1.96-4.23.26-5.05-.8-5.2-1l-.03-.03c-.64-1-.44-3.24 0-3.8.56-.86 2.77-1.22 5.03-1.11Zm-3.94 2.34h6s.23-1.38-1.9-1.67a8.27 8.27 0 0 0-1.93 0h-.04c-.81.08-2.2.2-2.13 1.67ZM15 25h1.5v6H15v-6Zm-2 0h-1.56l-2.96 4.64L5.63 25H4l3.53 6h1.63L13 25Zm13.5 0H28v6h-1.83l-5.67-4.5V31H19v-6h1.7l5.8 4.53V25Zm24.75 6a.75.75 0 1 0 0-1.5.75.75 0 0 0 0 1.5Z"/></svg>