<!-- by TradingView --><svg width="56" height="56" viewBox="0 0 56 56" xmlns="http://www.w3.org/2000/svg"><path fill="#F0F3FA" d="M0 0h56v56H0z"/><path d="M26.07 10.23c2.75-.44 5.95-.37 8.1 1.26.58-.1 1.85-.2 2.39.22.67.52.82 1.63 1.34 2.22.52.6 5.13 4 5.13 5.25 0 1.26-3.35 1.92-4.76 1.92-1.41 0-1.71.15-1.71 1.04s.3 1.7.15 2.59c-.15.89-.75 1.33-.82 2.51-.08 1.19-.45 1.04-.45 1.48 0 .45-.52.89.45 1.4.97.53.97 1.12 1.04 2.52.08 1.4.07 2.22 1.34 2.52 1.26.3 4.17 1.18 4.76 2.59.48 1.12.85 2.63.97 3.25h-6.1l1.26-3.48-2.6-1.33v1.33c.17.25.53.85.6 1.26.05.41-.53 1.65-.82 2.22h-.45l-.97-1.18 1.12-.08c-.03-.4-.18-1.18-.6-1.18-.41 0-.52.44-.52.66-.25-.61-.95-1.96-1.79-2.44.43.18 1.37.67 1.8 1.26.26-.15.78-.62.66-1.33-.15-.89-.67-1.7-1.41-1.78-.75-.07-1.79.08-2.39-.36.38 0 1.2-.14 1.5-.67-.68.02-2.07-.03-2.31-.44.77.12 2.35.13 2.53-.82-.72.1-2.31.1-2.9-.74.66.13 2.2.2 2.97-.52-1.19-.02-3.96-.28-5.5-1.1a13.83 13.83 0 0 1-3.43-2.74c-.05.2-.09.65.15.89.3.3 1.56 1.85 4.17 2.88.27.07.82.44.82 1.33 0 1.11.15 2.52.67 2.52s1.78-.08 1.93.66c-.4-.2-1.28-.51-1.64-.22l3.58 5.4h-.97c-1.12-1.58-3.4-4.87-3.57-5.4-.23-.66-.82-3.25-1.05-3.55-.17-.24-3.15-2.51-4.61-3.62l-1.41 3.62 4.24 3.77 1.11-3.03.53 2.81-3.95 2.44L27.93 41h-6.4c-.1-1.09-.69-3.45-2.24-4.22.45.72 1.37 2.56 1.5 4.22H12c.4-1.55 1.6-4.76 3.27-5.18 2.09-.52 6.48-2.36 6.7-3.03.22-.67.75-1.55.37-1.48-.37.08-.81 1.04-1.04 1.04-.22 0-.82-1.11-.52-1.48.3-.37 1.49-.74 1.34-1.04-.15-.3-1.71.3-1.79-1.1-.07-1.41.97-1.34 1.2-1.12.22.23.74.89 1.19.82.44-.08.81-.45.67-.74-.15-.3-.67-.3-1.05-.82-.3-.41-.27-1.15-.22-1.48-.7-.04-2.08-.4-2.08-1.4 0-1.26 1.26-2.3 1.04-2.52-.22-.22-.45-.37-1.41-.37h-4.1a1.5 1.5 0 0 1-1.34-1.55c0-1.4 2.53-2.44 4.4-3.62 1.85-1.19 4.68-5.25 7.44-5.7Zm2.38 8.21c-1.08 0-2.24.7-2.68 1.04-3.34.23-3.82 1.28-3.65 1.77h2.09c1.07 0 1.48-.3 1.56-.44-.67 1.33-2.53.89-3.43 1.1-.89.23-1.48.97-1.26 1.86a.9.9 0 0 0 1.04.74c-.3-.36-.22-1.09-.15-1.4 0 .26.14.85.67 1.03a.9.9 0 0 0 1.04-.37c-.3-.12-.57-.5-.67-.67.38.37 1.34.81 2.98-.37 1.31-.94 1.3-2.66 1.12-3.4.17.57.49 1.92.37 2.81-.12.89-.65 1.3-.9 1.4h.82c-.53.66-1.6.57-2.08.45l.15.89c-.66-.54-1.22-.37-1.41-.23.17 1.42 1.56 1.58 2.23 1.48l.15 1.26c-.6-.65-1.24-.62-1.5-.52.9 1.78 3.11 2.72 4.1 2.96l-.44-.89c1.06.47 3.45 1.44 4.46 1.56 1.27.15 2-.37 2-1.19 0-.65-.98-.81-1.48-.81 0-.07.08-.24.37-.3.38-.07 1.12-.22 1.12-.51 0-.3-.3-.45-.97-.45-.53 0-1.41.1-1.78.15.89-1.03 2.15-.52 2.45-.44.3.07.75-.22.82-.52.08-.3-.52-.3-.82-.67-.3-.37-.6.08-1.19-.07-.47-.12-.35-.99-.22-1.4.02.27.13.85.37 1.03.3.22.3-.15.6-.22.3-.08.44.07.74.22s1.04.07 1.04-.67-1.49-3.1-1.34-3.99c.12-.7 1.14-.84 1.64-.81-.3-1.19-2.36-1.43-3.35-1.4h-4.61Zm7.07 3.63c.07.24.3.72.6.66.29-.06.22-.57.14-.81l-.74.15Zm.3-1.56c-.48-.06-.55.18-.53.3l.97.44c.05-.22.03-.68-.45-.74Zm-7.37-10.05c-1.57 0-3.8.96-5.14 2.36-1.34 1.4-4.84 6.21-6.55 6.66-.12.12-.25.37.23.37.6 0 2.6-1.04 3.5-2.07.89-1.04 4.68-6.73 7.96-6.29 3.27.44 4.46 1.04 4.83.6.1-.13.03-.48-1.04-.9a9.15 9.15 0 0 0-3.8-.73Zm13.17 8.13c.52-.44-3.65-4-4.1-3.48-.12.05-.26.29.15.82.53.66 3.43 3.1 3.95 2.66Z" fill="#072445"/><path d="M39.24 37.45 37.9 41h-.75c.38-.91 1.09-2.8.97-3.03-.12-.24-1.14-.6-1.64-.74v-1.11l2.76 1.33ZM29.93 35.67c.18.6 2.41 3.83 3.5 5.33h-.82L29.2 36.4l-2.98 1.93L29.86 41h-2l-3.2-2.96 3.94-2.44-.53-2.74-1.11 2.96-4.24-3.77 1.41-3.62c1.32.9 4.06 2.88 4.54 3.47.6.74 1.04 3.03 1.26 3.77Z" fill="#CB1F1B"/><path d="M31.57 19.48c-.83 0-1.68.64-2 .96 1.48-.81 2.9-.3 3.04-.15.15.15-.3.3-.96.37-.54.06-1.17.72-1.42 1.04.36-.42 1.2-.67 1.57-.74-.13.1-.38.32-.38.44 0 .15.15.6.6.67.45.07.67-.3.67-.67 0-.3-.25-.42-.37-.44 1.04 0 1.11-.37 1.19-.67.07-.3-.9-.81-1.94-.81ZM29.07 38.48c.14.3.04.64-.22.76s-.58-.02-.72-.31c-.15-.3-.05-.63.2-.76.27-.12.6.02.74.31Z" fill="#072445"/><path d="M35.14 11.64c1.11 0 2.01 1.03 2.01 2.3 0 1.26-.9 2.28-2 2.28-1.11 0-2.01-1.02-2.01-2.29 0-1.26.9-2.3 2-2.3Zm.08 1.33c-.33 0-.6.5-.6 1.1 0 .62.27 1.12.6 1.12.33 0 .6-.5.6-1.11 0-.61-.27-1.11-.6-1.11Z" fill="#CD322F"/></svg>