<!-- by TradingView --><svg width="56" height="56" viewBox="0 0 56 56" xmlns="http://www.w3.org/2000/svg"><path fill="#F0F3FA" d="M0 0h56v56H0z"/><path d="M20 32H4V20h12v8c0 2.4 2.67 3.67 4 4ZM7.06 36C5.02 36 4.17 34 4 33h48v3H7.06Z" fill="#009B63"/><path d="M49 20c1 0 3 .6 3 3v7H22c-1 0-3-.6-3-3v-7h30Zm-25.97 3c-.62 0-1.15.13-1.6.38-.46.24-.8.6-1.06 1.04A3.2 3.2 0 0 0 20 26c0 .63.12 1.16.37 1.61.25.45.6.8 1.06 1.03.46.24 1.01.36 1.65.36.55 0 1.03-.08 1.44-.24.42-.17.75-.4 1-.7.25-.29.41-.64.48-1.04h-1.96c-.04.1-.1.2-.2.28a.92.92 0 0 1-.31.17c-.12.04-.26.06-.4.06-.22 0-.4-.04-.55-.12a.86.86 0 0 1-.35-.35 1.02 1.02 0 0 1-.12-.5v-.09H26v-.49c0-.46-.07-.87-.21-1.24a2.61 2.61 0 0 0-1.54-1.54c-.36-.13-.77-.2-1.22-.2ZM27 29h2v-5h-2v5Zm6.4-8c-1.43 0-2.4.63-2.4 2.1v.17h-1v1.5h1V29h2v-4.24h1.67v-1.5H33v-.25c0-.26.53-.44 1-.44a2.66 2.66 0 0 1 .64.07l.36-1.48a10.41 10.41 0 0 0-1.6-.16Zm1.6 8h2v-3.09c0-.22.17-.42.27-.58a1 1 0 0 1 .38-.4c.17-.1.36-.14.57-.14a3.48 3.48 0 0 1 .78.1v-1.8a1.73 1.73 0 0 0-.54-.09c-.31 0-.59.1-.83.29-.23.2-.4.5-.5.91H37V23h-2v6Zm7.11-6c-1.24 0-2.07.4-2.5 1-.22.3-.34.62-.37.97h2.08c.05-.36.34-.53.76-.53.4 0 .92.17.92.47v.02c0 .53-1.38.5-1.7.52a3.3 3.3 0 0 0-1.64.47c-.2.15-.37.33-.49.56-.11.23-.17.5-.17.82 0 .39.09.7.26.96.17.25.41.43.72.56.3.12.66.18 1.06.18.27 0 .52-.03.74-.1.46-.11.97-.38 1.22-.81V29h2v-4.09c0-1.44-1.73-1.91-2.89-1.91Zm6.35 0c-.48 0-.9.07-1.25.22s-.62.36-.81.65c-.2.28-.28.62-.28 1.02 0 .46.13.84.38 1.13.26.29.65.48 1.17.59l.9.18c.2.04.34.1.43.16a.31.31 0 0 1-.02.54c-.1.07-.25.1-.41.1a.86.86 0 0 1-.52-.15.64.64 0 0 1-.24-.44H46c.05.6.3 1.09.73 1.45.44.37 1.05.55 1.82.55.47 0 .9-.08 1.26-.25.36-.16.65-.4.87-.7.2-.3.32-.67.32-1.08 0-.43-.13-.77-.39-1.03a2.23 2.23 0 0 0-1.16-.55l-1.03-.2c-.2-.05-.32-.1-.4-.18a.34.34 0 0 1-.09-.24.3.3 0 0 1 .17-.28c.1-.06.24-.1.4-.1.12 0 .23.03.33.08.2.09.34.3.36.53h1.68c-.05-1.33-1.18-2-2.41-2ZM43 26.84c0 .53-.74.84-1.23.84-.38 0-.77-.36-.77-.68 0-.4.53-.38.87-.43.3-.04.84-.1 1.13-.21v.48Zm-19.92-2.37c.18 0 .34.04.48.1a.84.84 0 0 1 .47.75H22.1a.82.82 0 0 1 .49-.74c.14-.07.3-.11.48-.11ZM27 23h2v-2h-2v2Z" fill="#004EA2"/></svg>