<!-- by TradingView --><svg width="56" height="56" viewBox="0 0 56 56" xmlns="http://www.w3.org/2000/svg"><path fill="#19181E" d="M0 0h56v56H0z"/><path d="M28.01 11h.02l.01.01L44 38.88l.01.04-.01.04-.03.03a.08.08 0 0 1-.04.01h-3a.17.17 0 0 1-.14-.09l-12.7-22.18c-.02-.03-.04-.05-.08-.05-.03 0-.06.02-.08.05a343645.24 343645.24 0 0 1-12.76 22.25.17.17 0 0 1-.09.02h-2.99a.08.08 0 0 1-.07-.04.09.09 0 0 1 0-.09l15.95-27.86h.03L28 11h.01Zm4.53 17.37.02.02 6.03 10.52v.06l-.02.02h-3.05a.19.19 0 0 1-.17-.09l-2.77-4.84a.08.08 0 0 0-.03-.03.09.09 0 0 0-.04-.01l-.04.01a.09.09 0 0 0-.03.03l-2.78 4.85a.16.16 0 0 1-.14.08 93.86 93.86 0 0 1-3.12-.02.16.16 0 0 1-.05-.05l-2.79-4.86a.08.08 0 0 0-.07-.04.08.08 0 0 0-.07.04l-2.77 4.84a.19.19 0 0 1-.16.1h-3.03l-.02-.01-.02-.02-.01-.03v-.03l6.03-10.52.02-.02a.06.06 0 0 1 .08.02l4.4 7.67v.01a.1.1 0 0 0 .06.02.1.1 0 0 0 .06-.02l4.4-7.68.02-.02h.06Z" fill="#fff"/></svg>