<!-- by TradingView --><svg width="56" height="56" viewBox="0 0 56 56" xmlns="http://www.w3.org/2000/svg"><path fill="#F0F3FA" d="M0 0h56v56H0z"/><path d="M27.97 12A15.98 15.98 0 0 1 42.8 22.1c2.6 6.45.9 13.59-4.17 18.34a.18.18 0 0 1-.12.04.17.17 0 0 1-.11-.04c-1.09-1.08-2.92-1.24-4.42-1.53a.23.23 0 0 0-.25.14.24.24 0 0 0-.02.1l.17 3.98c0 .05 0 .1-.03.14a.25.25 0 0 1-.1.1l-1.23.59a.16.16 0 0 1-.22-.08 126.22 126.22 0 0 0 .65-11.84c0-.05-.03-.1-.06-.13a.18.18 0 0 0-.12-.06h-.01a.17.17 0 0 0-.12.05.17.17 0 0 0-.05.11l-.38 6.33c0 .03 0 .06-.02.08a.17.17 0 0 1-.21.07c-1.6-.65-1.6-1.89-1.63-3.73 0-.21.08-.42.22-.58a7.1 7.1 0 0 0 1.77-6.07.39.39 0 0 0-.11-.22.37.37 0 0 0-.22-.1c-1.59-.2-2.69.4-3.3 1.77a.1.1 0 0 1-.13.05.1.1 0 0 1-.07-.11c.33-1.34 1.13-2.04 2.4-2.1a.3.3 0 0 0 .17-.07c.05-.03.1-.09.11-.15.03-.08.01-.25-.05-.5a.18.18 0 0 0-.27-.1l-.42.3a.55.55 0 0 1-.34.1c-.56 0-.84-.41-.82-1.23a.17.17 0 0 0-.1-.15.16.16 0 0 0-.17.04c-.66.69-1.35.7-2.07.01a.17.17 0 0 0-.16-.04.16.16 0 0 0-.07.05.16.16 0 0 0-.04.08c-.03.14.06.37-.04.64-.26.65-.81.78-1.33.36l-.24-.2a.16.16 0 0 0-.22.04.17.17 0 0 0-.04.08c-.03.28-.04.46-.02.55.04.13.18.2.43.21 1.14.07 1.88.7 2.22 1.9v.06a.1.1 0 0 1-.02.05l-.1.1a.08.08 0 0 1-.06.02l-.03-.01-.02-.03c-.73-1.57-1.62-1.8-3.1-1.77a.59.59 0 0 0-.56.55c-.2 2.86.69 5.07 2.65 6.64 1 .8 2.02.92 3.1.3h.06c.01 0 .03 0 .04.02a.07.07 0 0 1 0 .1c-.67.83-1.64.76-2.61.52A.97.97 0 0 0 26 36c-.23.16-.4.41-.49.7-.2.76-.67 1.34-1.4 1.74a.25.25 0 0 1-.24 0 .26.26 0 0 1-.14-.22l-.26-6.2-.01-.02-.2-.11a.1.1 0 0 0-.09 0 .09.09 0 0 0-.03.03l-.02.05c-.08 3.72.11 7.64.6 11.74 0 .05-.01.1-.03.14a.24.24 0 0 1-.21.14.24.24 0 0 1-.13-.03l-1.17-.7a.27.27 0 0 1-.13-.24l.23-3.86a.22.22 0 0 0-.06-.17.2.2 0 0 0-.08-.04c-.03-.01-.06-.02-.09-.01-1.2.12-3.32.42-4.54 1.42a.16.16 0 0 1-.22 0C6.5 30.31 13.3 12.09 27.97 12ZM28 22.29a5.65 5.65 0 0 0-5.46 4.48c-.31 1.32.5 3.7-.8 4.53-.78.5-1.54.34-2.27-.5a.13.13 0 0 1 0-.16.13.13 0 0 1 .07-.05h.08c.64.32 1.19.31 1.66 0 2.07-1.4-.82-4.6-2.2-2.02-.23.41-.24.97-.05 1.68.6 2.22 2.91 2.42 3.85.31a.83.83 0 0 0 .07-.36l.04-2.29a5.08 5.08 0 0 1 5-5.04A5.08 5.08 0 0 1 33 27.92l.03 2.28c0 .13.03.25.08.36.93 2.11 3.25 1.92 3.85-.3.19-.7.17-1.27-.05-1.69-1.38-2.58-4.28.63-2.2 2.03.47.3 1.02.31 1.65 0a.13.13 0 0 1 .09 0 .13.13 0 0 1 .1.13c0 .03-.02.05-.04.08-.72.84-1.48 1-2.27.5-1.29-.84-.48-3.22-.8-4.53a5.65 5.65 0 0 0-5.44-4.5Zm0-7.89c-1.7 0-2.87 1.18-3.23 2.8l-.04.07a.17.17 0 0 1-.15.06.17.17 0 0 1-.08-.04c-2.52-2.01-5.69.74-4.46 3.68a.18.18 0 0 1-.06.21.18.18 0 0 1-.08.03c-2.47.29-3.31 2.91-1.33 4.53.13.11.27.18.4.2.25.04.36.16.35.35v.03l-.3.63a.28.28 0 0 1-.14.14.27.27 0 0 1-.2 0c-2.27-.95-3.15 3.08-.34 3.07a.19.19 0 0 0 .18-.15.2.2 0 0 0 0-.09 2.1 2.1 0 0 1 .9-2.43.6.6 0 0 0 .24-.5v-.55a.29.29 0 0 1 .27-.3c1.54-.1 2.36-1.05 2.45-2.84a.3.3 0 0 0-.1-.25A.29.29 0 0 0 22 23c-.26.08-.47.18-.74-.03s-.37-.48-.28-.8a.8.8 0 0 1 .18-.34c.08-.1.2-.16.31-.2a.63.63 0 0 1 .67.15c.1.12.2.34.29.68a.3.3 0 0 0 .3.22 3.16 3.16 0 0 0 2.76-2.07.24.24 0 0 0-.1-.3l-.44-.22a.5.5 0 0 1-.27-.36c-.11-.54.08-.92.57-1.12.1-.04.22-.06.34-.04.11.01.23.06.33.13s.2.16.27.27c.07.12.13.24.15.38.04.17-.05.39-.27.65a.3.3 0 0 0 .05.43c.6.4 1.22.6 1.86.6.65 0 1.27-.2 1.86-.6a.29.29 0 0 0 .13-.2.3.3 0 0 0-.07-.23c-.22-.26-.31-.48-.28-.65.03-.14.08-.26.16-.38.07-.1.16-.2.26-.27s.22-.12.34-.13c.12-.02.23 0 .34.04.49.2.68.58.57 1.12a.51.51 0 0 1-.27.36l-.44.21a.23.23 0 0 0-.11.3 3.17 3.17 0 0 0 2.76 2.08.3.3 0 0 0 .19-.05.3.3 0 0 0 .11-.17c.09-.33.19-.56.3-.68a.63.63 0 0 1 .66-.15c.12.04.23.11.32.2.08.1.14.22.18.34.08.32-.01.59-.29.8-.27.21-.47.12-.74.04a.29.29 0 0 0-.26.05.3.3 0 0 0-.11.25c.1 1.79.91 2.74 2.45 2.85a.29.29 0 0 1 .27.29V27c0 .1.02.2.07.28.04.08.1.16.18.21a2.1 2.1 0 0 1 .89 2.44.2.2 0 0 0 .03.16.2.2 0 0 0 .15.08c2.81 0 1.93-4.02-.33-3.08a.27.27 0 0 1-.2 0 .28.28 0 0 1-.15-.14l-.29-.62v-.03c-.02-.2.1-.32.33-.35a.89.89 0 0 0 .42-.2c1.98-1.63 1.13-4.25-1.34-4.54a.18.18 0 0 1-.13-.09.18.18 0 0 1 0-.15c1.22-2.94-1.95-5.69-4.46-3.68a.17.17 0 0 1-.08.04.17.17 0 0 1-.15-.06.18.18 0 0 1-.04-.07c-.37-1.62-1.53-2.8-3.22-2.8Zm2.5 10.73c-.2-.08-.43.07-.53.34-.1.26-.03.54.17.61.19.08.43-.07.53-.33.1-.27.02-.54-.17-.62Zm-4.97 0c-.2.06-.3.32-.23.59.07.26.3.42.5.37.2-.06.3-.32.22-.59-.07-.26-.3-.42-.5-.37ZM28 23.6c-.4 0-.73.33-.73.74s.33.74.73.74c.4 0 .73-.33.73-.74 0-.4-.33-.74-.73-.74Z" fill="#FE0000"/><path d="M26.9 29.52h.01v.05c-.03.15-.2.26-.46.32-.27.06-.61.05-.96-.02l-.1-.02a3 3 0 0 1-.9-.34.9.9 0 0 1-.25-.23.31.31 0 0 1-.06-.23V29a.01.01 0 0 1 .01 0h.01l2.7.51ZM31.81 29h.01v.04c.02.07 0 .15-.05.23a.91.91 0 0 1-.26.23 3.12 3.12 0 0 1-.91.34l-.1.02c-.35.07-.7.08-.97.02-.27-.05-.43-.16-.46-.3v-.04L31.8 29ZM27.98 32.15a3.47 3.47 0 0 1 .38.04l.04.05a.12.12 0 0 1-.03.12c-.1.11-.24.16-.4.16a.51.51 0 0 1-.4-.18.12.12 0 0 1-.02-.12c0-.02.02-.04.04-.05a4.71 4.71 0 0 1 .39-.02ZM29.1 33.35l.02.02.01.03v.01c0 .1-.02.2-.08.29a.8.8 0 0 1-.23.24c-.1.07-.22.12-.34.16-.13.04-.27.06-.41.06h-.13c-.28 0-.55-.08-.75-.22-.2-.14-.32-.32-.32-.52v-.02s0-.02.02-.03h.03l2.17-.02ZM26.46 39.82l-2.13-.02c-.1 0-.2.09-.2.2v.13c0 .1.09.19.2.19l2.12.02c.1 0 .2-.09.2-.2v-.12c0-.1-.09-.2-.2-.2ZM31.65 39.8l-2.14.02a.24.24 0 0 0-.24.25v.03c0 .13.11.24.24.24l2.15-.03c.13 0 .23-.1.23-.24v-.03c0-.14-.1-.24-.24-.24Z" fill="#FE0000"/></svg>