<!-- by TradingView --><svg width="56" height="56" viewBox="0 0 56 56" xmlns="http://www.w3.org/2000/svg"><path fill="#F0F3FA" d="M0 0h56v56H0z"/><path d="m10.02 37.29 1.19-.5c2.6-1.07 5.57-2.22 8.92-3.45a400.17 400.17 0 0 1 12.94-4.52 469.74 469.74 0 0 1-13.74-7.93c-2.93-1.75-6.04-3.7-9.33-5.82v-.02h.02c1.12.47 2.1.9 2.93 1.3 2.15 1 4.35 2.05 6.6 3.16a458.74 458.74 0 0 1 18.47 9.8 465.7 465.7 0 0 1-16.38 4.99 281.32 281.32 0 0 1-11.61 3.01L10 37.3v-.01Z" fill="#26231E"/><path d="M15.31 27.57c-.05 1.52.17 3.02.66 4.48.1.3.15.5.16.63a1.66 1.66 0 0 1-2.42 1.62c-.23-.12-.41-.28-.56-.48-.1-.14-.22-.38-.33-.74a16.07 16.07 0 0 1 .37-11.17c.14-.35.27-.58.38-.71a1.67 1.67 0 0 1 1.96-.43 1.66 1.66 0 0 1 .94 1.76c-.02.12-.08.33-.2.62-.6 1.43-.9 2.9-.96 4.42Z" fill="#B88D2D"/><path d="M17.86 36.5c.42-.07.82.03 1.19.29a12.22 12.22 0 0 0 3.26 2.45 12.45 12.45 0 0 0 7.6 1.3c-.01 1.12 0 2.24.03 3.37l-.25.01a15.68 15.68 0 0 1-12.6-4.42 1.7 1.7 0 0 1 .02-2.7c.21-.16.46-.27.75-.3ZM24 12.53a15.76 15.76 0 0 1 12.34 1.76 16.01 16.01 0 0 1 7.57 15.27 16.07 16.07 0 0 1-7.17 11.9 15.72 15.72 0 0 1-6.8 2.44 66.31 66.31 0 0 1-.03-3.36 12.48 12.48 0 0 0 8.26-4.95 12.5 12.5 0 0 0 2.44-6.34l.04-.46a8.85 8.85 0 0 0 0-1.6l-.04-.45a12.6 12.6 0 0 0-14.83-11.2 12.27 12.27 0 0 0-5.2 2.33c-.19.13-.33.22-.44.27a1.73 1.73 0 0 1-1.28 0 1.58 1.58 0 0 1-.9-.91c-.13-.35-.16-.7-.06-1.07.1-.36.3-.66.58-.89 1.67-1.28 3.5-2.2 5.52-2.74Z" fill="url(#a)"/><defs><linearGradient id="a" x1="18.11" y1="26.11" x2="42.68" y2="26.11" gradientUnits="userSpaceOnUse"><stop offset=".33" stop-color="#26231E"/><stop offset="1" stop-color="#B2892E"/></linearGradient></defs></svg>