<!-- by TradingView --><svg width="56" height="56" viewBox="0 0 56 56" xmlns="http://www.w3.org/2000/svg"><path fill="#081933" d="M0 0h56v56H0z"/><path d="M27.7 13.48c.56-.18.92-.64.8-1.03-.13-.38-.68-.56-1.24-.38-.57.18-.92.64-.8 1.03s.68.56 1.24.38Zm4.51.77c.65.01 1.18-.34 1.19-.8 0-.44-.52-.81-1.16-.82-.65-.01-1.18.34-1.19.79 0 .45.51.82 1.16.83Zm-9.87.72c-.67.4-1.01 1.03-.78 1.42.23.4.96.4 1.62 0 .66-.39 1.01-1.02.78-1.42-.23-.4-.96-.4-1.62 0Zm-3.62 2.9c-.25-.32-.01-.93.53-1.36.55-.42 1.2-.5 1.45-.18.26.32.02.93-.53 1.36-.55.42-1.2.5-1.45.18Zm7.84-.23c.6.79.3 2.03-.67 2.78s-2.25.72-2.85-.06c-.6-.79-.31-2.03.66-2.78s2.25-.72 2.86.06Zm3.72 5.68c1.28-.6 1.89-2 1.35-3.14-.53-1.13-2-1.56-3.28-.96-1.28.6-1.88 2-1.35 3.14.53 1.13 2 1.56 3.28.96Zm1.23 5.73c1.59 0 2.87-1.15 2.87-2.57 0-1.41-1.28-2.56-2.87-2.56s-2.87 1.15-2.87 2.56c0 1.42 1.28 2.57 2.87 2.57ZM21.4 21c.69-.79.73-1.88.1-2.44-.64-.55-1.71-.37-2.4.42-.7.79-.74 1.88-.1 2.44.64.55 1.71.37 2.4-.42Zm-3.24.4c.62.34.7 1.35.2 2.27-.5.92-1.4 1.4-2.02 1.06-.6-.33-.7-1.35-.2-2.27.5-.92 1.4-1.4 2.02-1.06Zm-.68 5.91c.06-1.04-.45-1.93-1.15-1.97-.7-.04-1.32.77-1.38 1.81-.07 1.05.45 1.93 1.15 1.97.7.05 1.31-.76 1.38-1.8Zm-.8 2.2c.7-.16 1.45.54 1.7 1.55.23 1.02-.14 1.98-.84 2.14-.7.17-1.45-.53-1.68-1.55-.24-1.02.13-1.98.82-2.14Zm4.93 4.27c-.56-1.02-1.63-1.51-2.4-1.1-.76.42-.91 1.6-.35 2.62s1.64 1.51 2.4 1.1c.76-.42.92-1.6.35-2.62Zm1.6-.25c.74-.84 2.17-.78 3.17.13 1 .9 1.2 2.31.46 3.14-.75.84-2.17.78-3.18-.13-1-.9-1.2-2.31-.46-3.14Zm7.54-3.5c-1.4-.67-3.01-.2-3.59 1.03-.58 1.23.1 2.76 1.5 3.42 1.4.66 3 .2 3.58-1.04.58-1.23-.09-2.76-1.5-3.42Zm9.02-3.66c0 1.05-.94 1.9-2.1 1.9-1.15 0-2.08-.85-2.08-1.9 0-1.05.93-1.9 2.09-1.9 1.15 0 2.09.85 2.09 1.9Zm-2.63 6.9c1.15 0 2.09-.85 2.09-1.9 0-1.05-.94-1.9-2.1-1.9-1.14 0-2.08.85-2.08 1.9 0 1.05.94 1.9 2.09 1.9Zm-.42 2.78c-.15.98-1.2 1.65-2.33 1.48-1.15-.17-1.95-1.11-1.8-2.1.14-.99 1.19-1.65 2.33-1.48 1.14.17 1.95 1.1 1.8 2.1Zm-6.4 3.99c.95.44 2.02.16 2.39-.63.36-.8-.12-1.8-1.07-2.23-.96-.44-2.03-.16-2.4.63-.36.79.12 1.79 1.07 2.23Zm-2.06.86c-.4.59-1.39.6-2.2.04-.8-.56-1.12-1.49-.71-2.07.4-.58 1.38-.6 2.19-.03.8.56 1.13 1.48.72 2.06Zm-6.26-.4c.66.6 1.55.72 2 .25.44-.48.27-1.36-.39-1.97-.66-.62-1.55-.73-2-.26-.44.48-.27 1.36.4 1.97Zm-1.72-1.08c-.48.33-1.24.07-1.7-.6-.47-.66-.46-1.47.02-1.8.48-.34 1.24-.08 1.71.59.46.66.45 1.47-.03 1.8Zm-4.18-3.04c.3.67.9 1.06 1.35.86.45-.2.57-.9.27-1.58-.3-.67-.9-1.06-1.35-.86-.45.2-.57.9-.27 1.58Zm-.63-1.85c-.39.1-.85-.35-1.03-1.02-.18-.67-.01-1.3.38-1.4.39-.1.85.35 1.03 1.02.18.67.01 1.3-.38 1.4Zm-1.94-3.95c.13.69.55 1.18.95 1.1.4-.07.63-.68.5-1.36-.12-.68-.55-1.18-.95-1.1-.4.07-.63.68-.5 1.36Zm.37-1.94c-.37 0-.68-.52-.68-1.16 0-.64.3-1.16.68-1.16.38 0 .68.51.69 1.16 0 .64-.3 1.16-.69 1.16Zm-.14-4.22c-.11.6.1 1.15.45 1.2.35.07.73-.37.83-.97.1-.61-.1-1.15-.45-1.21-.35-.06-.73.38-.83.98Zm1.11-1.67c-.34-.18-.36-.8-.05-1.38.3-.59.82-.92 1.16-.74.34.17.36.79.05 1.38-.3.58-.82.91-1.16.74Zm1.77-3.96c-.37.55-.41 1.17-.09 1.4.33.21.9-.05 1.26-.6.38-.54.42-1.16.1-1.39-.33-.22-.9.04-1.27.59Zm27.23 8.16c-.33.64-1.16.86-1.88.5-.7-.36-1.03-1.17-.7-1.8.32-.64 1.16-.86 1.87-.5.71.36 1.03 1.17.7 1.8Zm-3.72-5.6c.68.35 1.45.17 1.74-.39.28-.56-.03-1.3-.7-1.64-.68-.34-1.46-.16-1.75.4-.28.56.03 1.3.71 1.64Zm-2-5.14c-.14.5-.8.76-1.48.58-.68-.18-1.12-.74-.98-1.24.14-.5.8-.77 1.47-.58.68.18 1.12.74.98 1.24Zm-6.42-.73c.18.65-.42 1.39-1.34 1.63-.91.25-1.8-.09-1.97-.74-.18-.66.42-1.4 1.33-1.64.92-.25 1.8.09 1.98.75Zm2.04 3.98c1.03-.11 1.79-.83 1.7-1.6-.08-.78-.98-1.3-2-1.2-1.03.12-1.8.84-1.7 1.61.08.77.98 1.3 2 1.2Zm4.65 1.96c.1.92-.71 1.78-1.83 1.9-1.12.13-2.1-.52-2.21-1.45-.1-.93.72-1.78 1.84-1.9 1.11-.13 2.1.52 2.2 1.45Zm-10.8-6.68c.17.55-.33 1.2-1.12 1.45-.8.25-1.58 0-1.75-.55-.17-.54.33-1.2 1.12-1.44.8-.25 1.57 0 1.75.54Zm-4.19-.6c.46-.26.7-.72.52-1.03-.17-.32-.69-.38-1.14-.13-.46.25-.7.71-.52 1.03.17.32.68.37 1.14.12Zm-3.28.7c.15.28-.05.7-.47.92-.41.23-.88.18-1.03-.1-.16-.3.05-.71.47-.94.41-.22.87-.17 1.03.11Zm-3.3 3.35c.3-.28.4-.69.2-.9-.2-.22-.61-.17-.92.11-.32.29-.41.7-.21.91.2.22.6.17.92-.12Zm-2.13 1.83c.22.13.23.53.02.9-.2.36-.55.56-.78.43-.22-.12-.23-.52-.02-.9.21-.36.56-.56.78-.43Zm-1.2 4.14c.1-.41-.02-.8-.26-.85-.25-.06-.53.23-.63.64-.1.4.02.79.27.85.25.06.53-.23.63-.64Zm-1 2.65c.25.02.43.38.4.8-.04.42-.27.74-.53.73-.25-.02-.43-.38-.4-.8.04-.43.27-.75.52-.73Zm.79 4.14c-.08-.42-.35-.71-.6-.67-.25.05-.39.43-.3.84.07.42.34.72.59.67.25-.05.39-.42.3-.84Zm.37 2.69c.25-.08.56.23.7.68.15.45.07.88-.18.96-.24.08-.55-.23-.7-.68-.14-.46-.06-.89.18-.96Zm2.74 3.92c-.24-.43-.62-.68-.84-.56-.23.13-.2.58.04 1.02.24.43.62.68.84.56.23-.13.2-.58-.04-1.02Zm2.04 2.27c.22-.2.7 0 1.09.42.38.43.51.94.3 1.13-.23.2-.71 0-1.1-.42-.38-.43-.5-.93-.29-1.13Zm5.13 2.22c-.51-.37-1.1-.43-1.3-.15-.2.3.04.82.56 1.2.51.36 1.1.43 1.3.14.21-.29-.04-.82-.56-1.19Zm3.58.66c.17-.41.79-.55 1.39-.3.6.23.95.76.79 1.17-.17.4-.79.54-1.39.3-.6-.24-.95-.77-.79-1.17Zm6.51-1.9c-.75-.01-1.36.42-1.37.96 0 .54.6.99 1.35 1 .75 0 1.36-.42 1.37-.97 0-.54-.6-.98-1.35-.99Zm3.51-2.6c0-.63.62-1.15 1.37-1.14.75.01 1.35.54 1.34 1.18 0 .64-.62 1.16-1.37 1.15-.75-.01-1.35-.54-1.34-1.18Zm5.27-4.36c.7-.4.96-1.23.6-1.84-.36-.62-1.21-.79-1.9-.38-.7.4-.96 1.23-.6 1.84.37.62 1.22.78 1.9.38Z" fill="url(#a3pisev3z)"/><defs><linearGradient id="a3pisev3z" x1="14.61" y1="19.58" x2="34.24" y2="42.08" gradientUnits="userSpaceOnUse"><stop stop-color="#25466C"/><stop offset="1" stop-color="#D3E1EE"/></linearGradient></defs></svg>