<!-- by TradingView --><svg width="56" height="56" viewBox="0 0 56 56" xmlns="http://www.w3.org/2000/svg"><path fill="#F0F3FA" d="M0 0h56v56H0z"/><path d="M28.16 12a16.2 16.2 0 0 1 9.43 3c-.84 6.04-6.06 15.55-9.43 19.55-2.94 3.49-4.65 4.36-5.14 4.36 5.5 1.09 14-12.17 18.28-20.23.46.63.87 1.3 1.23 1.99-4.66 9.36-16.66 21.1-20.24 18.97-2.94-1.75.24-8.97 2.2-12.37l-3.67-2.18c-2.94 3.64-6.91 11.78.73 15.27 6.82 3.12 16.89-3.97 22.45-9.15A16.13 16.13 0 0 1 28.16 44 16.08 16.08 0 0 1 12 28c0-8.84 7.24-16 16.16-16Z" fill="url(#a)"/><defs><linearGradient id="a" x1="20" y1="17.09" x2="33.09" y2="42.55" gradientUnits="userSpaceOnUse"><stop stop-color="#DCC289"/><stop offset=".53" stop-color="#E4D7AB"/><stop offset="1" stop-color="#AA9462"/></linearGradient></defs></svg>