<!-- by TradingView --><svg width="56" height="56" viewBox="0 0 56 56" xmlns="http://www.w3.org/2000/svg"><path fill="#F0F3FA" d="M0 0h56v56H0z"/><path d="M44.45 21.75c.2 0 .38-.17.38-.38 0-.2-.17-.37-.38-.37s-.38.17-.38.37c0 .21.17.38.38.38ZM44.45 23.94c.32 0 .58-.26.58-.58a.58.58 0 0 0-.58-.58.58.58 0 0 0-.59.58c0 .32.26.58.59.58ZM39.33 23.85c.2 0 .38-.17.38-.38 0-.2-.17-.37-.38-.37s-.38.17-.38.37c0 .21.17.38.38.38ZM49.52 23.85a.38.38 0 1 0 0-.75c-.2 0-.38.17-.38.37 0 .21.17.38.38.38ZM42.44 24.32c.32 0 .58-.26.58-.57a.58.58 0 0 0-.58-.58.58.58 0 0 0-.59.58c0 .31.26.57.59.57ZM46.41 24.35c.33 0 .59-.26.59-.58a.58.58 0 0 0-.59-.58.58.58 0 0 0-.58.58c0 .32.26.58.58.58ZM40.75 25.45c.32 0 .58-.26.58-.58a.58.58 0 0 0-.58-.57.58.58 0 0 0-.59.57c0 .32.26.58.59.58ZM48.1 25.45c.33 0 .59-.26.59-.58a.58.58 0 0 0-.59-.57.58.58 0 0 0-.58.57c0 .32.26.58.58.58ZM44.45 26.47c.42 0 .76-.34.76-.76a.76.76 0 0 0-.76-.76.76.76 0 0 0-.77.76c0 .42.34.76.77.76Z" fill="#35A9E0"/><path d="M4.01 31 4 30.99V26H6.1c.8 0 1.7.32 1.87 1.14.08.37.04.7-.1 1-.29.58-1.01.8-1.7.81A77.82 77.82 0 0 1 4.5 29v2l-.02.01h-.47Zm.5-4.62-.01 2.2v.01l1.71.01c.34 0 .66-.1.9-.3.25-.2.38-.47.38-.75v-.12a.9.9 0 0 0-.1-.4 1.06 1.06 0 0 0-.27-.34c-.12-.1-.26-.18-.41-.23a1.52 1.52 0 0 0-.5-.08l-1.7-.01a.01.01 0 0 0 0 .01ZM22.25 26h.58v.02l-2.27 2.2L23 30.99V31a.01.01 0 0 1-.01.01h-.56l-2.2-2.47h-.01l-.75.69V31a.01.01 0 0 1-.01 0V31H19a.01.01 0 0 1-.01-.01V26l.01-.01h.44l.01.01v2.65h.01a.01.01 0 0 0 .01 0L22.24 26Z"/><path d="M46.39 27.3c.42 0 .77-.34.77-.75a.76.76 0 0 0-.77-.76.76.76 0 0 0-.77.76c0 .41.35.75.77.75ZM49.22 27.12c.33 0 .59-.26.59-.57a.58.58 0 0 0-.59-.58.58.58 0 0 0-.58.58c0 .31.26.57.58.57Z" fill="#35A9E0"/><path d="M18 29.32c0 .45-.2.87-.53 1.19-.35.31-.81.49-1.3.49h-.33a1.99 1.99 0 0 1-1.3-.49 1.55 1.55 0 0 1-.54-1.18v-.65c0-.45.2-.87.53-1.19.35-.31.81-.49 1.3-.49h.33a1.99 1.99 0 0 1 1.3.49 1.55 1.55 0 0 1 .54 1.18v.65ZM14.49 29v.34c.05.8.62 1.31 1.52 1.3.9 0 1.46-.51 1.5-1.31a7.25 7.25 0 0 0 0-.67c-.05-.8-.62-1.31-1.52-1.31s-1.46.52-1.5 1.32V29ZM9.02 31H9V27l.02-.01h1.8c.33 0 .61.04.85.1.56.12 1 .44 1.08.95.05.4-.1.74-.47.99a1.72 1.72 0 0 1-.64.27v.01l1.35 1.64.01.01V31h-.02l-.01.01h-.54l-.02-.01-1.3-1.58-.01-.01H9.55v1.58l-.02.01-.01.01h-.5Zm.52-3.61v1.64l.02.01h1.46c.31 0 .62-.08.84-.23.23-.15.35-.35.35-.56v-.08c0-.1-.03-.21-.09-.3a.87.87 0 0 0-.26-.26 1.35 1.35 0 0 0-.39-.18c-.14-.04-.3-.06-.45-.06H9.55v.02ZM24.98 26.98h-.48l-.02.02v4s0 .02.02.02h.48L25 31v-4s0-.02-.02-.02ZM26 27.02V27h1.75c.6 0 1.17.19 1.6.52.41.34.65.8.65 1.27v.42c0 .48-.24.93-.66 1.27-.42.33-1 .52-1.59.52h-1.74l-.01-.02v-3.96Zm.55.36-.01 3.25a.01.01 0 0 0 .01.01h1.19c.22 0 .44-.03.65-.1.21-.07.4-.18.56-.3.16-.14.29-.3.37-.47.09-.17.13-.35.14-.53v-.46c0-.38-.18-.74-.5-1a1.92 1.92 0 0 0-1.22-.41h-1.19ZM33.18 28.87a399 399 0 0 1 1.3 1.45v-3.3l.01-.01.02-.01H35l.01.02v3.97l-.01.01h-.49a.05.05 0 0 1-.03-.02 730.7 730.7 0 0 0-2.95-3.3v3.3l-.01.01-.02.01H31l-.01-.02v-3.97l.01-.01h.49a.05.05 0 0 1 .03.02l1.65 1.85ZM38.97 27.37h-2.5v1.36a.01.01 0 0 0 0 .02h2.19V29.1H36.48l-.01.01v1.53H39l.01.02v.33l-.01.01H36l-.01-.01V27l.01-.01h2.96l.01.01V27.36h-.01ZM42 29.16l1.45-2.14v-.01H44v.01l-1.75 2.5-.01.05v1.42h-.01l-.01.01a14.28 14.28 0 0 1-.47-.02v-1.46L40 27.02V27l.01-.01h.53l.01.02L42 29.16Z"/><path d="M47.24 29.27c.42 0 .76-.34.76-.76a.76.76 0 0 0-.76-.76.76.76 0 0 0-.77.76c0 .42.34.76.77.76ZM49.64 29.07c.32 0 .58-.26.58-.58a.58.58 0 0 0-.58-.58.58.58 0 0 0-.59.58c0 .32.26.58.59.58ZM52 28.44v.14c-.08.3-.4.4-.63.2a.34.34 0 0 1-.12-.23c-.05-.46.61-.58.75-.11ZM46.41 31.21c.43 0 .77-.34.77-.76a.76.76 0 0 0-.77-.75.76.76 0 0 0-.76.75c0 .42.34.76.76.76ZM49.22 31.05c.33 0 .59-.26.59-.57a.58.58 0 0 0-.59-.58.58.58 0 0 0-.58.58c0 .31.26.57.58.57ZM44.42 32.02c.43 0 .77-.33.77-.75a.76.76 0 0 0-.77-.76.76.76 0 0 0-.76.76c0 .42.34.75.76.75ZM40.75 32.7c.32 0 .58-.26.58-.57a.58.58 0 0 0-.58-.58.58.58 0 0 0-.59.58c0 .31.26.57.59.57ZM48.1 32.72c.33 0 .59-.25.59-.57a.58.58 0 0 0-.59-.58.58.58 0 0 0-.58.58c0 .32.26.57.58.57ZM42.44 33.83c.32 0 .58-.26.58-.58a.58.58 0 0 0-.58-.57.58.58 0 0 0-.59.57c0 .32.26.58.59.58ZM46.41 33.83c.33 0 .59-.26.59-.58a.58.58 0 0 0-.59-.57.58.58 0 0 0-.58.57c0 .32.26.58.58.58ZM44.42 34.24c.33 0 .59-.26.59-.58a.58.58 0 0 0-.59-.58.58.58 0 0 0-.58.58c0 .32.26.58.58.58ZM39.33 33.9c.2 0 .38-.17.38-.37 0-.21-.17-.38-.38-.38s-.38.17-.38.38c0 .2.17.37.38.37ZM49.52 33.9c.21 0 .38-.17.38-.37 0-.21-.17-.38-.38-.38-.2 0-.38.17-.38.38 0 .2.17.37.38.37ZM44.42 36c.21 0 .38-.17.38-.37 0-.21-.17-.38-.38-.38-.2 0-.37.17-.37.38 0 .2.16.37.37.37Z" fill="#35A9E0"/></svg>