<!-- by TradingView --><svg width="56" height="56" viewBox="0 0 56 56" xmlns="http://www.w3.org/2000/svg"><path fill="#F0F3FA" d="M0 0h56v56H0z"/><path d="M50.05 22h1.94v.01H52V32l-.02.01h-1.97l-.01-.01V22h.05ZM27.99 22H26l-.01.01v1.97l.01.02H28l.01-.02v-1.97l-.01-.01ZM32.01 24.84c.48-.14.83-.18 1.36-.14.95.08 1.77.48 2.24 1.24.16.26.27.57.34.92.03.17.05.44.05.8v1.72l-.03.28a2.64 2.64 0 0 1-.62 1.43c-.48.55-1.21.84-1.98.9h-.63a2.82 2.82 0 0 1-2.26-1.09c-.25-.36-.4-.79-.45-1.23a4.73 4.73 0 0 1-.03-.6 24809.7 24809.7 0 0 1 .02-7.07h1.96l.02.02v2.82h.01Zm0 3.5v1.1c0 .54.13.96.76 1.06a1.5 1.5 0 0 0 .46 0c.62-.1.76-.52.76-1.06a203.8 203.8 0 0 0 0-2.18c0-.55-.14-.96-.76-1.06a1.48 1.48 0 0 0-.46 0c-.63.1-.76.51-.76 1.06v1.09ZM47.99 22H46l-.01.01V32l.01.01H48l.01-.01V22l-.01-.01ZM10 29.25c0 .72-.2 1.5-.77 2.03-.47.43-1.1.64-1.79.7-1.42.12-2.76-.32-3.25-1.57a2.74 2.74 0 0 1-.18-.98v-1.76c0-.57.13-1.12.47-1.59.5-.7 1.33-1.02 2.27-1.07.32-.02.64 0 .96.04.39.05.77.17 1.1.36.92.53 1.18 1.47 1.19 2.37v.01H7.99c.02-.53 0-1.2-.71-1.32a1.67 1.67 0 0 0-.66.02c-.56.13-.61.6-.62 1.04v2.03c.07.46.18.9.78 1 .64.08.96-.2 1.13-.7.06-.2.09-.4.08-.61v-.01h2v.01ZM18 29.71c0 .26-.03.5-.13.75-.37.96-1.4 1.46-2.53 1.53-.95.06-1.96-.13-2.61-.77-.42-.4-.63-.9-.7-1.44-.02-.12-.03-.3-.03-.54V27.6c.01-1.02.52-1.97 1.67-2.38a4.27 4.27 0 0 1 1.62-.2c.92.04 1.76.36 2.25 1.04.25.34.4.76.44 1.17l.02.5a217.12 217.12 0 0 0-.01 1.28H14v.7c0 .54.34.96.96 1 .42.03.92-.25 1.02-.67.02-.1.02-.19.02-.32l.02-.01h1.97v.01ZM14 27.84H16c.03-.88-.12-1.6-1.12-1.52-.63.04-.85.42-.87.94a12.83 12.83 0 0 0 .01.58ZM44 29.71c0 .26-.03.5-.13.75-.37.96-1.4 1.46-2.53 1.53-.95.06-1.96-.13-2.61-.77-.42-.4-.63-.9-.7-1.44-.02-.12-.03-.3-.03-.54V27.6c.01-1.02.52-1.97 1.67-2.38a4.27 4.27 0 0 1 1.62-.2c.92.04 1.76.36 2.25 1.04.25.34.4.76.44 1.17l.02.5a217.12 217.12 0 0 0-.01 1.28H40v.7c0 .54.34.96.96 1 .42.03.92-.25 1.02-.67.02-.1.02-.19.02-.32l.02-.01h1.97v.01ZM40 27.84H42c.03-.88-.12-1.6-1.12-1.52-.63.04-.85.42-.87.94a12.83 12.83 0 0 0 .01.58ZM23.98 26.6c-.3-.02-.58 0-.85.04-.94.17-1.13.85-1.13 1.56A8594.25 8594.25 0 0 1 22 32H20a28735.65 28735.65 0 0 1 .02-4.55c.06-.93.58-1.8 1.63-2.2.39-.14.8-.23 1.24-.24a23.92 23.92 0 0 1 1.11 0v1.59h-.01ZM27.99 25H26v7h2v-7h-.01Z" fill="#4E5055"/></svg>