<!-- by TradingView --><svg width="56" height="56" viewBox="0 0 56 56" xmlns="http://www.w3.org/2000/svg"><path fill="#F0F3FA" d="M0 0h56v56H0z"/><path d="m29.93 21.34-.01.01h-.34a3 3 0 0 0-.35-.94 1.64 1.64 0 0 0-1.12-.8 2.5 2.5 0 0 0-.68-.01c-1.26.12-2.01 1.17-2.24 2.39-.14.76-.12 1.52.07 2.27.1.44.28.83.53 1.18a2.26 2.26 0 0 0 1.9.99h.1l.17-.02.17-.01c.56-.08.96-.4 1.21-.93a3.54 3.54 0 0 0 .3-.83l.02-.01h.28a.03.03 0 0 1 .02 0 .03.03 0 0 1 0 .03l-.2 1.83-.01.01-.01.01a4.61 4.61 0 0 1-1.81.47c-.67.06-1.36 0-1.99-.25a3.43 3.43 0 0 1-2.2-2.78 59.26 59.26 0 0 1-.05-.44l-.02-.31c0-.32.02-.6.06-.86a3.81 3.81 0 0 1 3.37-3.3 5.19 5.19 0 0 1 2.68.4l.15 1.9ZM10.25 19.25a.06.06 0 0 1-.03-.03.07.07 0 0 1 0-.04v-.17l.02-.01h2.92l.01.01V19.26l-.02.01-.86.3h-.02V22.73H16V19.57l-.84-.34-.01-.02V19l.02-.01h2.88v.24l-.03.02-.74.3-.02.03v6.85h.01l.7.29a.22.22 0 0 0 .03.01l.04.02a.02.02 0 0 1 .02 0 .03.03 0 0 1 0 .02V26.99l-.01.01h-2.95a.02.02 0 0 1-.01 0v-.24h.01l.89-.3.01-.01V23.4h-3.72v3.05a142.08 142.08 0 0 1 .95.34v.2l-.01.01h-3l-.01-.02V26.77h.02l.06-.02h.01v-.02l.7-.29h.02l-.01-.02v-6.87h-.02l-.73-.3ZM45.61 27H42.5a.03.03 0 0 1 0-.03v-.18a.03.03 0 0 1 0-.03h.02l.05-.01a.87.87 0 0 1 .04-.02l.8-.29h.01v-.02l-.4-5.73a.04.04 0 0 0 0-.03.03.03 0 0 0-.03 0h-.03l-.01.02-2.14 5.73-.02.02H40.08l-.02-.01a5457.34 5457.34 0 0 0-2.37-5.6H37.63c0 .08 0 .13-.02.17v.04s0 .18-.03.52a9653.52 9653.52 0 0 1-.34 4.56l-.02.31v.01l1.27.34h.02V27l-.01.01h-2.84a.03.03 0 0 1-.01-.02V26.8a.05.05 0 0 1 .01-.03.04.04 0 0 1 .03-.01c.03 0 .04 0 .06-.02l.05-.02a53.07 53.07 0 0 0 .78-.29l.42-5.3.08-1.06c0-.12.03-.24.03-.37v-.01h-.01l-.99-.45-.01-.02V19H38.42l.01.02 2.34 5.72.01.02a.04.04 0 0 0 .05 0l.02-.02 2.13-5.72.02-.01L43 19h2.09v.23l-.01.01-.95.32-.01.01v.02l.02.45a73.35 73.35 0 0 0 .09 1.13c0 .24.04.46.04.69v.05a174.47 174.47 0 0 1 .14 1.88l.01.07a173.26 173.26 0 0 0 .13 1.85l.06.72v.01l.02.01.98.32h.01l.01.03v.19l-.02.01ZM10.63 30.85a.03.03 0 0 1-.01.02h-.09l-.01-.01-.06-.17c-.07-.26-.28-.46-.55-.48-.93-.06-1.17 1.02-.97 1.79.14.54.5.85 1.05.79.3-.04.48-.33.53-.64l.01-.02h.02l.07-.01h.01v.01l.01.01-.07.66-.01.02h-.01c-.87.42-1.99.14-2.16-1.01-.13-.87.34-1.63 1.16-1.78.34-.06.67-.03.99.11l.03.03.01.04.05.64ZM13.18 32.93h-.02a.05.05 0 0 0-.01.06V33a1.22 1.22 0 0 0 1.35.2h.02l.01.02c-.08.33-.4.5-.7.47-.42-.04-.7-.28-.82-.72v-.02h-.02c-.8 0-1.32-.46-1.38-1.33-.06-1 .54-1.76 1.51-1.61.8.12 1.16.82 1.1 1.63-.04.68-.4 1.19-1.04 1.28Zm-1.1-1.45c0 .58.19 1.28.85 1.28.65 0 .84-.7.84-1.28 0-.58-.2-1.28-.85-1.28-.66 0-.85.71-.84 1.28ZM33.09 31.66c0 .35-.12.68-.34.93-.22.25-.53.4-.85.4h-.23c-.32.01-.63-.12-.86-.36a1.36 1.36 0 0 1-.37-.91l-.01-.38c0-.35.11-.68.34-.93.22-.25.52-.4.84-.4l.24-.01c.32 0 .63.12.86.36.23.24.36.57.37.92v.38Zm-2.2-.16c.01.59.2 1.3.88 1.3.67 0 .86-.72.86-1.3 0-.6-.2-1.31-.87-1.31-.68 0-.86.72-.86 1.31ZM41.34 30.87h-.08v-.01l-.06-.17c-.08-.26-.29-.46-.55-.48-.93-.06-1.17 1.02-.98 1.79.14.54.5.85 1.06.78.3-.03.47-.33.53-.63v-.02l.03-.01H41.36l.01.01v.01l-.07.65v.02l-.02.01c-.86.41-1.98.13-2.15-1.01-.13-.87.34-1.63 1.16-1.78.34-.06.66-.03.98.11l.03.03.01.04.05.64v.02h-.02ZM44.95 31.68c0 .35-.13.68-.35.93-.23.24-.53.38-.85.39h-.24c-.32 0-.63-.13-.86-.38a1.36 1.36 0 0 1-.36-.92v-.38c0-.35.12-.68.34-.93.23-.24.54-.38.86-.39h.23c.32 0 .63.13.86.38.23.24.36.57.36.92v.38Zm-2.2-.18c0 .59.2 1.31.87 1.31.68 0 .87-.73.87-1.32 0-.58-.2-1.3-.87-1.3-.68 0-.87.72-.87 1.31ZM5.55 32.8l.39.16a.03.03 0 0 1 0 .04h-.93L5 32.98v-.02l.02-.01.29-.12.02-.02v-.02l.94-2.69.01-.02h.02l.33-.08h.02l.01.02.9 2.77.02.02.01.01.3.12.02.02v.02L7.9 33H6.67v-.04l.03-.03h.02l.32-.11a.02.02 0 0 0 .02-.01v-.01l-.22-.66a.06.06 0 0 0-.02-.03.05.05 0 0 0-.03-.01h-1l-.01.01-.23.67a.02.02 0 0 0 0 .02Zm.76-.9a36.89 36.89 0 0 0 .44-.02v-.01l-.41-1.28-.01-.01a.04.04 0 0 0-.03 0h-.01l-.43 1.28a.02.02 0 0 0 0 .02h.01l.01.01h.43ZM22.32 30.83h-.1a.01.01 0 0 1-.01 0 1.2 1.2 0 0 0-.18-.4.6.6 0 0 0-.69-.2.42.42 0 0 0-.3.4c-.01.26.13.4.33.54.36.22 1.1.44 1.01 1.07a.83.83 0 0 1-.72.74c-.33.06-.65 0-.95-.16a.1.1 0 0 1-.04-.03.1.1 0 0 1-.01-.05l-.05-.65a.04.04 0 0 1 0-.03.04.04 0 0 1 .04-.01h.08v.03c.1.52.44.82.94.7.41-.12.43-.66.1-.9-.24-.15-.62-.3-.89-.54a.74.74 0 0 1-.2-.71c.11-.47.56-.67.98-.62a1.94 1.94 0 0 1 .6.15v.02l.06.65ZM25.33 30.64a.86.86 0 0 0-.05.23h-.01l-.1.01h-.01l.02-.86V30a.02.02 0 0 1 .02 0 .88.88 0 0 1 .24.03h1.86a.86.86 0 0 1 .22-.04h.01a.02.02 0 0 1 0 .02l.04.85h-.1a1.3 1.3 0 0 0-.18-.44.4.4 0 0 0-.14-.13.57.57 0 0 0-.18-.07 2.88 2.88 0 0 0-.36-.01v2.59h.02l.34.1.02.03.02.02v.01a.03.03 0 0 1 0 .03h-1.27v-.05l.03-.02a.1.1 0 0 1 .06-.03l.28-.08.02-.01v-2.59h-.36a.43.43 0 0 0-.24.1c-.16.13-.14.15-.2.32ZM17.17 30.18l-.31-.15a.02.02 0 0 1 0-.02l.02-.01h.83a.02.02 0 0 1 .02 0v.02l-.28.16h-.01a.02.02 0 0 0-.02.02 330.35 330.35 0 0 0-.01 1.7c-.01.07 0 .16-.02.25-.13.67-.65.93-1.23.83-.4-.07-.67-.29-.79-.65a2.78 2.78 0 0 1-.07-.8 122.55 122.55 0 0 0-.02-1.35l-.25-.1a.02.02 0 0 1-.01-.01l-.02-.05V30l.01-.01h1.04l.02.01.02.03-.01.03-.03.02-.26.09a.02.02 0 0 0-.02 0 .03.03 0 0 0 0 .03v1.67c0 .52.19.92.73.9.33 0 .54-.18.64-.52a2.18 2.18 0 0 0 .05-.55 182.3 182.3 0 0 1-.02-1.53ZM18.88 32.8v-2.6h-.01l-.3-.12-.01-.02a.04.04 0 0 1 0-.05l.03-.01h1.04a.02.02 0 0 1 .01 0v.02l-.28.17h-.01a.03.03 0 0 0-.01.02v2.59l.02.01.26.1a.01.01 0 0 1 .01.02l.03.02V33l-.02.01h-1.08v-.02c0-.04.01-.06.04-.07a.52.52 0 0 0 .08-.02.86.86 0 0 1 .2-.09ZM23.53 32.8h.01V30.2l-.3-.12-.02-.02v-.03l.01-.02.03-.01h1.03a.02.02 0 0 1 .01 0v.02l-.27.17a.02.02 0 0 0-.02 0 .03.03 0 0 0-.01.02v2.57a.03.03 0 0 0 .02.03l.26.1h.01v.02l.03.02v.04h-1.08a.02.02 0 0 1-.02 0v-.02c0-.03.02-.06.05-.06a.52.52 0 0 0 .07-.03.83.83 0 0 1 .2-.07ZM28.82 32.8h.01V30.2h-.01l-.29-.12-.02-.02v-.03l.01-.02.03-.01h1.03a.02.02 0 0 1 .01 0v.02l-.27.17a.02.02 0 0 0-.02 0l-.01.01V32.78a.03.03 0 0 0 .02.03l.26.1a.01.01 0 0 1 .01.02l.02.02.01.01V33h-1.09a.02.02 0 0 1-.01 0v-.02c0-.03.02-.06.05-.06a.52.52 0 0 0 .07-.03.83.83 0 0 1 .2-.07ZM34.21 32.83c0-.02.02-.03.06-.02a.02.02 0 0 0 .02-.01V30.24a.02.02 0 0 0-.01-.02l-.36-.14-.02-.02v-.03l.01-.02.03-.01h.72l.01.02 1.56 2.1a.03.03 0 0 0 .03 0l.02-.01V30.2h-.02l-.4-.14-.03-.01v-.03l.01-.02.02-.01h.95l.03.01v.06l-.02.02-.31.1h-.01l-.01.03V32.98h-.01c-.1.04-.2 0-.27-.1a398.72 398.72 0 0 0-1.63-2.11h-.03l-.02.02v2l.01.01.44.11.02.02v.05l-.03.01h-1.04l-.01-.01a.03.03 0 0 1 0-.03.12.12 0 0 1 .04-.04l.05-.02c.06 0 .1-.05.18-.04h.01l.01-.02ZM45.85 30.11l-.08-.02h-.02l-.01-.02-.02-.04a.02.02 0 0 1 .02-.03h1.33c.1.01.23.04.38.09.37.13.44.62.32.97-.09.27-.32.42-.57.48l-.02.01v.01a.03.03 0 0 0 0 .03c.21.39.45.74.7 1.07.1.13.23.22.38.27l.01.01V33h-.02c-.2.02-.4 0-.6-.05-.23-.07-.41-.4-.54-.65a10.42 10.42 0 0 1-.35-.7H46.53v1.12l.34.14.02.02v.04H45.73a.03.03 0 0 1 0-.03l.04-.04.28-.11.02-.01v-2.49a.03.03 0 0 0-.02-.03l-.2-.08h-.01Zm.68.07v1.23h.3a.52.52 0 0 0 .49-.3.51.51 0 0 0 .04-.2v-.23a.51.51 0 0 0-.15-.36.52.52 0 0 0-.37-.15h-.31v.01ZM49.59 32.8l.39.12.02.02a.04.04 0 0 1-.01.05l-.02.01h-1.2a.03.03 0 0 1-.01-.03v-.01c.06-.08.31-.15.33-.15l.02-.01v-2.58l-.02-.01-.32-.13-.02-.02v-.05h1.28c.11 0 .25.02.4.06.45.13.6.56.56 1.02-.06.58-.55.83-1.04.84a10.43 10.43 0 0 1-.38.02v.84l.02.01Zm-.02-2.62v1.58h.25c.09 0 .18-.01.26-.05a.73.73 0 0 0 .42-.67v-.14a.78.78 0 0 0-.2-.52.64.64 0 0 0-.48-.21h-.24v.01ZM46 36.99l-.01.01H10.01l-.01-.01V36l.01-.01h35.98l.01.01V37Zm-28.79-.78v-.02l-.02-.01h-3.5l-.01.03v.62h3.52l.01-.02v-.6Zm7.15 0v-.02l-.02-.01h-3.5l-.01.02v.63h3.52v-.62Zm14.33 0v-.02l-.03-.01H35.16v.65h3.52v-.62Zm7.16 0-.01-.02-.02-.01h-3.48l-.02.01-.01.02v.62h3.53v-.62Zm-14.32 0a.04.04 0 0 0 0-.02H27.98l-.01.03v.6l.03.02h3.5l.01-.02h.01v-.6Z" fill="#C68B31"/></svg>