<!-- by TradingView --><svg width="56" height="56" viewBox="0 0 56 56" xmlns="http://www.w3.org/2000/svg"><path fill="#F0F3FA" d="M0 0h56v56H0z"/><path d="M7 23v-2h12.5v2h-5v12H12V23H7ZM26.7 21c2.94 0 5.72 1.72 6.18 4.54h-2.7c-.49-1.46-1.81-2.32-3.44-2.32-2.82 0-4.24 2.44-4.24 4.77 0 2.38 1.43 4.8 4.3 4.8 2.03 0 3.6-1.35 3.63-3.29H27V28h6l-.03 7H31v-1.21A7.29 7.29 0 0 1 26.78 35C22.5 35 20 31.79 20 28.01c0-3.7 2.47-7.01 6.7-7.01ZM40.7 21c2.94 0 5.72 1.72 6.18 4.54h-2.7c-.49-1.46-1.81-2.32-3.44-2.32-2.82 0-4.24 2.44-4.24 4.77 0 2.38 1.43 4.8 4.3 4.8 2.03 0 3.6-1.35 3.63-3.29H41V28h6l-.03 7H45v-1.21A7.29 7.29 0 0 1 40.78 35C36.5 35 34 31.79 34 28.01c0-3.7 2.47-7.01 6.7-7.01Z" fill="#0A3139"/></svg>