<!-- by TradingView --><svg width="56" height="56" viewBox="0 0 56 56" xmlns="http://www.w3.org/2000/svg"><path fill="#F0F3FA" d="M0 0h56v56H0z"/><path d="M41.97 9.03 42 9a.04.04 0 0 1 .04 0l.01.02c.25 5.21.22 10.37-.85 15.26-.56 2.56-2.24 5.35-4.05 7.32-1.5 1.64-3.4 2.6-5.56 3.1l-2.8.58c-1.17.24-1.78 1.56-2.09 2.64a.09.09 0 0 1-.09.07h-1.83a.04.04 0 0 1-.03-.01.04.04 0 0 1 0-.04c.32-1.37 1-2.44 2.02-3.18.42-.3 1.18-.6 2.27-.9 1.2-.31 2.39-.69 3.59-1.12a8.9 8.9 0 0 0 4.37-3.15c1.81-2.36 3.2-5.36 3.63-8.37.4-2.73.68-5.71.83-8.95.06-1.12.23-2.2.52-3.25Z" fill="#D6762E"/><path d="M23.33 13.71c-.74 2.14-1.38 4.8-.27 6.86 1.33 2.48 2.64 5.05.44 7.62l-.03.02h-.04a.07.07 0 0 1-.05-.06c-.26-1.52-.7-2.94-1.31-4.24-.3-.63-.8-1.26-1.12-1.74-.72-1.08-.6-2.7-.26-3.94a10.93 10.93 0 0 1 2.58-4.59h.04l.02.04v.03Z" fill="#398743"/><path d="M14.34 13.82a47.99 47.99 0 0 0-.09 9.7c.4 4.29 1.5 8.56 4.44 11.62a.21.21 0 0 1 .04.24l-1.25 2.45-.04.05a.12.12 0 0 1-.11.01.12.12 0 0 1-.05-.03c-3.97-4.05-5.72-9.9-5.19-15.59a27.3 27.3 0 0 1 2.23-8.48.03.03 0 0 1 .02.03ZM40.32 14.54a37.95 37.95 0 0 1-1.7 9.37c-.71 2.26-1.92 4.68-3.89 6a16.84 16.84 0 0 1-7.16 2.31 4.3 4.3 0 0 0-2.17.9c-1.15.88-2.1 3.4-2.45 4.81-.02.06-.05.07-.1.07h-3.7a.08.08 0 0 1-.1-.07l.01-.04c.56-1.7 1.24-3.34 2.05-4.9.36-.7.77-1.33 1.24-1.89.76-.92 1.82-1.27 3.14-1.67 1.31-.4 3.71-1.03 5.32-2.15 1.41-.98 2.69-2 3.84-3.06a15.33 15.33 0 0 0 3.58-5.1 469.79 469.79 0 0 0 2.05-4.63.04.04 0 0 1 .03 0v.02a.04.04 0 0 1 .01.03Z" fill="#D6762E"/><path d="M19.39 34.08a.13.13 0 0 1-.1.06.12.12 0 0 1-.12-.05 21.1 21.1 0 0 1-4.07-14.7h.06v.03a49.16 49.16 0 0 0 2.2 7.66c.68 1.8 1.63 3.77 2.96 5.15a.14.14 0 0 1 .02.16l-.95 1.69ZM43 43.91a.1.1 0 0 1-.02.07.07.07 0 0 1-.06.02H13.08c-.02 0-.04 0-.06-.02a.1.1 0 0 1-.02-.07V39.1c0-.03 0-.05.02-.07a.07.07 0 0 1 .06-.02h29.84c.02 0 .04 0 .06.02a.1.1 0 0 1 .02.07v4.82Z" fill="#D6762E"/><path d="M39.76 42.5c.32.14 1.12.31 1.2-.25a.4.4 0 0 0-.05-.25.37.37 0 0 0-.18-.16l-.7-.3a.46.46 0 0 1-.15-.11c-.31-.36-.34-.7-.08-1.03.34-.42.86-.51 1.56-.27l.01.01v.02l-.07.33a.06.06 0 0 1-.03.04.06.06 0 0 1-.05 0 1.1 1.1 0 0 0-.86-.02.3.3 0 0 0-.18.26.31.31 0 0 0 .15.29l.8.46c.06.03.1.07.14.11.29.44.25.82-.13 1.15-.27.23-.71.28-1.32.16a.25.25 0 0 1-.13-.08.26.26 0 0 1-.07-.14l-.01-.1a.11.11 0 0 1 .04-.1.1.1 0 0 1 .1-.02ZM17 42.65v.26l-.03.06a.11.11 0 0 1-.07.03h-1.8a.11.11 0 0 1-.07-.03.09.09 0 0 1-.03-.06v-2.82l.03-.06a.11.11 0 0 1 .07-.03h.41c.03 0 .06.01.08.03l.03.06v2.38c0 .02 0 .04.03.06.02.02.04.03.07.03h1.18c.02 0 .05 0 .07.03.02.01.03.04.03.06ZM29.64 41.36v.26a.1.1 0 0 1-.03.07.1.1 0 0 1-.07.03h-.9a.1.1 0 0 0-.06.03.1.1 0 0 0-.03.07v1.08a.1.1 0 0 1-.03.07.1.1 0 0 1-.07.03h-.35a.1.1 0 0 1-.07-.03.1.1 0 0 1-.03-.07v-2.8a.1.1 0 0 1 .03-.07.1.1 0 0 1 .07-.03h1.55a.1.1 0 0 1 .07.03.1.1 0 0 1 .03.07v.27a.1.1 0 0 1-.03.07.1.1 0 0 1-.07.03h-.96a.1.1 0 0 0-.06.02.1.1 0 0 0-.03.07v.6c0 .03 0 .05.03.07a.1.1 0 0 0 .06.03h.85a.1.1 0 0 1 .07.03.1.1 0 0 1 .03.07ZM34.6 42.45l.02.04.03.04.04.02h1.1c.05 0 .1.03.14.06.04.03.06.07.06.12l.01.1-.01.07c0 .02-.02.03-.04.05a.19.19 0 0 1-.13.05h-1.67a.16.16 0 0 1-.1-.04.12.12 0 0 1-.04-.1L34 40.2c0-.03 0-.05.02-.08a.2.2 0 0 1 .05-.06.24.24 0 0 1 .16-.06h.17c.06 0 .11.03.15.07a.2.2 0 0 1 .07.14l-.01 2.24Z" fill="#fff"/><path fill-rule="evenodd" d="M21.07 40.08a.24.24 0 0 0-.07.17l.01 2.5a.24.24 0 0 0 .25.25h.71c.42 0 .82-.16 1.1-.42.3-.27.46-.63.46-1v-.18c0-.18-.04-.37-.12-.54a1.4 1.4 0 0 0-.34-.45 1.72 1.72 0 0 0-1.11-.4h-.72a.24.24 0 0 0-.17.07Zm.5.34a.1.1 0 0 0-.01.04v1.95a.1.1 0 0 0 .08.1h.33c.25 0 .5-.1.68-.29a1 1 0 0 0 .28-.69v-.18a1 1 0 0 0-.27-.7.95.95 0 0 0-.68-.28h-.32a.1.1 0 0 0-.1.05Z" fill="#fff"/></svg>