<!-- by TradingView --><svg width="56" height="56" viewBox="0 0 56 56" xmlns="http://www.w3.org/2000/svg"><path fill="#F0F3FA" d="M0 0h56v56H0z"/><path d="M32.78 38h2v-.02a.03.03 0 0 0 0-.03l-6.8-6.72v-.03l.4-.44a.02.02 0 0 1 .01 0h.01c.66.7 1.99 2 4 3.9.9.87 1.84 1.63 2.8 2.29.57.39 1.23.7 1.97.93.24.08.45.11.64.11a436.53 436.53 0 0 0 2.07-.01c1.35-.33 2.48-1 3.4-2.01a6.58 6.58 0 0 0 1.68-5.09 6.72 6.72 0 0 0-4.34-5.45C36.88 24 33 26.5 30.56 29.2a.07.07 0 0 0-.01.06c0 .01 0 .03.02.03l.03.02c.74.14 1.43.04 2.08-.32.16-.1.44-.32.84-.67 1.82-1.64 4.58-2.54 6.91-1.54a5.14 5.14 0 0 1 3.08 5.01 5.1 5.1 0 0 1-3.82 4.77c-1.34.35-2.7-.2-3.8-.95a15.6 15.6 0 0 1-1.2-.86 55.5 55.5 0 0 1-5.34-5.07v-.02l1.7-1.9c.62-.7 1.2-1.45 1.72-2.26.63-.97 1.07-1.81 1.33-2.52.9-2.48.5-5.32-1.43-7.15a6.92 6.92 0 0 0-8.93-.36 6.47 6.47 0 0 0-2.01 7.56c.45 1.04 1.07 2 1.88 2.88a78.64 78.64 0 0 0 3.73 3.77l-.43.46v.01a.02.02 0 0 1-.03 0 105.08 105.08 0 0 0-4.31-4.4c-4.48-3.8-10.7-1.23-11.53 4.54-.04.23-.04.44-.04.65v.25c0 .24 0 .47.04.67.51 3.14 2.7 5.23 5.67 6.04.27.08.57.11.91.11h1.65a.8.8 0 0 0 .21-.04c1.84-.5 3.39-1.5 4.8-2.82.74-.68 1.36-1.33 1.87-1.96.16-.19.3-.33.45-.49a14.16 14.16 0 0 0 .27-.25l5.8 5.51c.03.03.07.05.11.05Zm-4.42-9.43h-.03c-.14-.16-1.02-1.1-2.67-2.82a23.7 23.7 0 0 1-1.64-1.82 6.1 6.1 0 0 1-1.2-3.04c-.18-2.77 1.99-4.92 4.58-5.27a4.76 4.76 0 0 1 2.4.26c2.4.94 3.46 3.75 2.97 6.16-.14.7-.52 1.55-1.12 2.54a16.7 16.7 0 0 1-2.16 2.86c-.5.52-.88.9-1.13 1.13Zm-2.62 2.72.02.02a.06.06 0 0 1-.02.06c-.36.35-.68.7-.95 1.04-.14.17-.38.4-.62.62l-.36.35c-1.24 1.25-2.8 2.41-4.47 2.78-2.74.61-6.16-1.57-6.6-4.44-.41-2.61 1.46-4.8 3.76-5.7a5 5 0 0 1 4.25.55c.38.23.95.72 1.72 1.49l3.27 3.23Z" fill="#E26136"/></svg>