<!-- by TradingView --><svg width="56" height="56" viewBox="0 0 56 56" xmlns="http://www.w3.org/2000/svg"><path fill="#F0F3FA" d="M0 0h56v56H0z"/><path d="M30 39.77c0 1.13-1.26 2.4-2 3.23-.67-.74-2-2.43-2-3.23 0-1 1.12-1.65 2-1.77.97.14 2 .81 2 1.77Z" fill="#245C81"/><path d="M28.17 11.2c.9 1.08 2.7 3.08 3.9 3.9 1.59 1.09 4.2 1.88 3.9 6.15-1.15.67-3.56 2.35-3.9 3.75-.7-1.3-2.46-4-4.03-4.48L28 20.5c-1.59.45-3.37 3.18-4.06 4.49-.35-1.4-2.76-3.08-3.92-3.75-.29-4.27 2.32-5.06 3.92-6.15C25.2 14.23 27.18 12 28 11l.17.2Z" fill="#4AB243"/><path d="M28 23c1 .92 3 3.75 3 7.77 0 4.03-2 5.83-3 6.23-1-.4-3-2.2-3-6.23 0-4.02 2-6.85 3-7.77ZM18.55 31.44C20.04 35.09 22.8 36 24 36a8.92 8.92 0 0 1-1.13-4.33c-.03-1.98.44-3.8.83-4.8-.77-1.29-2.8-3.87-4.73-3.87-1.94 0-3.45 1.5-3.97 2.26 1.4 1 1.7 1.61 3.55 6.18ZM37.45 31.44C35.96 35.09 33.2 36 32 36a8.92 8.92 0 0 0 1.13-4.33c.03-1.98-.44-3.8-.83-4.8.77-1.29 2.8-3.87 4.73-3.87 1.94 0 3.45 1.5 3.97 2.26-1.4 1-1.7 1.61-3.55 6.18Z" fill="#245C81"/><path d="M16.56 30.34c3 6.04 6.88 7.47 8.44 7.43-.9.74-3.16 2.23-5.08 2.23-2.4 0-3.88-.86-5.32-4.1-1.15-2.6-2.88-3.59-3.6-3.76 2.24-2.63 4.64-2.3 5.56-1.8ZM39.44 30.34c-3 6.04-6.88 7.47-8.44 7.43.9.74 3.16 2.23 5.08 2.23 2.4 0 3.88-.86 5.32-4.1 1.15-2.6 2.88-3.59 3.6-3.76-2.24-2.63-4.64-2.3-5.56-1.8Z" fill="#4AB243"/></svg>