<!-- by TradingView --><svg width="56" height="56" viewBox="0 0 56 56" xmlns="http://www.w3.org/2000/svg"><path fill="#F0F3FA" d="M0 0h56v56H0z"/><path d="M40 12c.83 4.72.99 11.49.97 14.29-.96-1.4-5.52-4.33-12.49-4.33-7.68 0-16.19 4.15-19.48 6.22C20.86 16.08 34.62 12.36 40 12Z" fill="#34B1E1"/><path d="M20 19.36a58.84 58.84 0 0 0-11 8.82c5.2 10.74 21.74 15 29.36 15.79C20.69 33.34 19.7 25.15 19.7 22.76c0-1.92.2-3.07.3-3.4Z" fill="#B1B3B2"/><path d="M20 19.37a14.6 14.6 0 0 0-.28 4.03A47.43 47.43 0 0 0 9 28.18a59 59 0 0 1 11-8.81Z" fill="#3F54A3"/><path d="M41 26.22c0-6.53-.66-12.2-1-14.22-.55 19.5-9.95 27.35-14.59 28.84 3.7 1.54 10.17 2.75 12.95 3.16C39.48 40.84 41 34.38 41 26.22Z" fill="#F0E940"/><path d="M29.93 38.15a74.59 74.59 0 0 0 8.43 5.82l-.74-.09a79.51 79.51 0 0 1-9.82-2.2 55.71 55.71 0 0 1-2.39-.84c1.25-.4 2.84-1.27 4.52-2.7Z" fill="#5BA544"/><path d="M40.01 12c.22 1.34.58 4.27.8 7.99.13 2.58.17 4.92.16 6.3a8.07 8.07 0 0 0-2.73-2.1A49.47 49.47 0 0 0 40 12Z" fill="#329DC1"/></svg>