<!-- by TradingView --><svg width="56" height="56" viewBox="0 0 56 56" xmlns="http://www.w3.org/2000/svg"><path fill="#F0F3FA" d="M0 0h56v56H0z"/><path d="M7.09 31.46c-.95 0-2.5-.23-2.5-1.46H4c0 1.57 1.8 2 3.09 2 1.76 0 2.91-.78 2.91-2 0-1.39-1.52-1.85-2.78-2.24l-.16-.05c-1.3-.4-2.37-.75-2.37-1.73 0-.83.78-1.44 2.2-1.43.96 0 2.38.25 2.38 1.45h.59c0-1.54-1.69-2-2.97-2-1.73 0-2.83.81-2.83 2.02 0 1.39 1.54 1.86 2.83 2.25 1.35.4 2.47.75 2.47 1.76 0 .83-.8 1.44-2.27 1.43ZM11.5 24v.5H18V24h-6.5Zm3.5 1h-.5v7h.5v-7Zm9.38-1A2.49 2.49 0 0 1 27 26.57c0 .56-.16.95-.47 1.4a2.4 2.4 0 0 1-1.28.92l2.01 3.1h-.7L24.62 29H21.5v3H21v-8h3.38Zm-2.88.5v4h2.87c1.33 0 2.06-.86 2.06-1.92 0-1.07-.73-2.08-2.07-2.08H21.5Zm9.02 7.5.79-1.8.26-.58 2.19-4.96 2.18 4.97.26.57.8 1.8h.65l-3.58-8h-.63l-3.58 8h.66Zm15.14-1.8-.78 1.8h-.66l3.57-8h.64L52 32h-.65l-.8-1.8-.26-.57-2.18-4.97-2.19 4.96-.26.57ZM38 24v.5h6.5V24H38Zm3.5 1H41v7h.5v-7Z" fill="#504A4E"/></svg>