<!-- by TradingView --><svg width="56" height="56" viewBox="0 0 56 56" xmlns="http://www.w3.org/2000/svg"><path fill="#F0F3FA" d="M0 0h56v56H0z"/><circle cx="28" cy="28" r="7" fill="#2B54AE"/><circle cx="28" cy="15" r="5" fill="#64C0EF"/><circle cx="28" cy="41" r="5" fill="#64C0EF"/><path d="M41.5 25.33a5 5 0 1 1-5-8.66 5 5 0 0 1 5 8.66ZM19.5 39.33a5 5 0 1 1-5-8.66 5 5 0 0 1 5 8.66ZM14.5 25.33a5 5 0 1 0 5-8.66 5 5 0 0 0-5 8.66ZM36.5 39.33a5 5 0 1 0 5-8.66 5 5 0 0 0-5 8.66Z" fill="#64C0EF"/><path d="M15.2 30.33a5 5 0 0 1 5.27 8.27 13 13 0 0 1-5.26-8.27ZM28 36a5 5 0 0 1 4.9 4.04 12.96 12.96 0 0 1-9.8 0A5 5 0 0 1 28 36ZM34.67 32.5a5 5 0 0 1 6.12-2.17 13 13 0 0 1-5.26 8.27 5 5 0 0 1-.86-6.1ZM35.53 17.4a13 13 0 0 1 5.26 8.27 5 5 0 0 1-5.26-8.27ZM28 15c1.74 0 3.4.34 4.9.96a5 5 0 0 1-9.8 0c1.5-.62 3.16-.96 4.9-.96ZM20.47 17.4a5 5 0 0 1-5.26 8.27 13 13 0 0 1 5.26-8.27Z" fill="#2B54AE"/></svg>