<!-- by TradingView --><svg width="56" height="56" viewBox="0 0 56 56" xmlns="http://www.w3.org/2000/svg"><path fill="#F0F3FA" d="M0 0h56v56H0z"/><path d="M47 40H9V16h38v24ZM29.28 25c-.26 0-.51.08-.77.23-.17.1-.32.21-.44.35a2.28 2.28 0 0 0-1.64-.58c-.65 0-1.17.16-1.54.47-.37.31-.55.75-.55 1.3 0 .56.18 1 .55 1.31.23.2.53.34.88.4-.27.16-.48.31-.62.48a.85.85 0 0 0-.23.57c0 .27.13.49.39.65-.4.16-.72.35-.94.57-.25.26-.37.55-.37.89 0 .41.2.74.62.98.41.26.98.38 1.7.38.6 0 1.13-.1 1.6-.28.46-.18.83-.44 1.09-.76.26-.33.4-.7.4-1.12 0-.43-.16-.77-.46-1a2.1 2.1 0 0 0-1.3-.34h-1.23a.97.97 0 0 1-.5-.1.33.33 0 0 1-.17-.3c0-.12.04-.22.1-.32.07-.08.17-.16.3-.24l.28.01c.65 0 1.16-.15 1.53-.47.37-.32.56-.75.56-1.3 0-.38-.09-.7-.25-.95l.05-.06c.1-.08.18-.15.26-.19a.46.46 0 0 1 .2-.07c.07 0 .12.05.16.14a4 4 0 0 1 .1.3c.04.12.1.22.16.31.07.08.17.13.31.13.15 0 .26-.06.35-.17.1-.12.14-.28.14-.48 0-.24-.06-.42-.2-.54-.12-.13-.3-.2-.52-.2Zm-3.58 5.34c.19.05.4.08.66.08h1.1c.33 0 .58.06.73.18.17.14.25.33.25.59 0 .27-.08.51-.26.73-.16.21-.4.38-.69.5-.29.12-.62.18-1 .18-.47 0-.84-.1-1.1-.3a.96.96 0 0 1-.4-.82 1.25 1.25 0 0 1 .7-1.14ZM18.77 23l-2.38 5.46c-.26.65-.66 1.12-1.39 1.16V30h2.92v-.38c-1.05-.04-1.37-.52-.95-1.49l.23-.53h2.85l.52 1.19c.34.78-.33.82-.97.83V30H23v-.38c-.63-.01-1.06-.23-1.32-.81L19.15 23h-.38Zm14.43 2a2 2 0 0 0-1.93 1.19c-.18.37-.27.82-.27 1.33 0 .51.08.95.25 1.33a2 2 0 0 0 .74.86c.32.2.7.29 1.13.29A1.88 1.88 0 0 0 35 28.74l-.32-.19c-.15.31-.33.54-.56.7-.22.16-.48.23-.77.23-.46 0-.81-.17-1.06-.52a2.76 2.76 0 0 1-.36-1.54c0-.67.13-1.18.37-1.53.25-.35.6-.53 1.07-.53.2 0 .38.03.5.1.14.05.2.13.2.23 0 .07-.02.15-.07.22l-.16.24a.62.62 0 0 0-.07.3c0 .14.05.25.14.34.1.08.21.13.36.13a.6.6 0 0 0 .47-.2c.13-.13.19-.3.19-.51a.91.91 0 0 0-.23-.62 1.49 1.49 0 0 0-.62-.43c-.25-.1-.55-.16-.88-.16Zm6 0a2 2 0 0 0-1.93 1.19c-.18.37-.27.82-.27 1.33 0 .51.08.95.25 1.33a2 2 0 0 0 .74.86c.32.2.7.29 1.13.29A1.88 1.88 0 0 0 41 28.74l-.32-.19c-.15.31-.33.54-.56.7-.22.16-.48.23-.77.23-.46 0-.81-.17-1.06-.52a2.76 2.76 0 0 1-.36-1.54c0-.67.13-1.18.37-1.53.25-.35.6-.53 1.07-.53.2 0 .38.03.5.1.14.05.2.13.2.23 0 .07-.02.15-.07.22l-.16.24a.62.62 0 0 0-.07.3c0 .14.05.25.14.34.1.08.21.13.36.13a.6.6 0 0 0 .47-.2c.13-.13.19-.3.19-.51a.91.91 0 0 0-.23-.62 1.49 1.49 0 0 0-.62-.43c-.25-.1-.55-.16-.88-.16Zm-12.77.39c.35 0 .6.11.77.34.17.22.26.57.26 1.04 0 .47-.09.82-.26 1.05-.17.23-.42.35-.77.35-.34 0-.6-.12-.78-.35a1.8 1.8 0 0 1-.24-1.05c0-.47.08-.82.24-1.04.18-.23.44-.34.78-.34Zm-6.54 1.83h-2.52l1.25-2.9 1.27 2.9Z" fill="url(#a)"/><defs><linearGradient id="a" x1="28" y1="16" x2="28" y2="40" gradientUnits="userSpaceOnUse"><stop stop-color="#505050"/><stop offset="1" stop-color="#212121"/></linearGradient></defs></svg>