<!-- by TradingView --><svg width="56" height="56" viewBox="0 0 56 56" xmlns="http://www.w3.org/2000/svg"><path fill="#F0F3FA" d="M0 0h56v56H0z"/><path d="m7.64 27.6.64 3.4h1.59l1.43-6H9.6l-.62 3.68L8.22 25H7.08l-.76 3.68L5.67 25H4l1.43 6h1.56l.65-3.4Zm6.1-2.6C12.19 25 11 26.2 11 27.99c0 1.76 1.19 2.98 2.74 3.01 1.3 0 1.97-.9 2.26-1.69V31h1.57v-2.3h1.86V31H21v-6h-1.57v2.14h-1.86V25H16v1.69c-.3-.8-.96-1.69-2.26-1.69ZM16 26.69v2.62l-1.3-.7c-.13.44-.52.83-.96.83-.72 0-1.22-.65-1.22-1.45 0-.8.5-1.46 1.22-1.46.44 0 .85.4.96.86l1.3-.7ZM21.5 25v6H23v-6h-1.5Zm5.5 6-2-3.05V31h-1.5v-6h1.62L27 27.84V25h1.5v6H27Zm4.72-6c-1.5 0-2.72 1.15-2.72 3s1.23 3 2.72 3c.98 0 1.72-.47 2.28-1.17v-2.38h-2.41V29h.91v.21c-.15.13-.49.26-.78.26-.71 0-1.2-.65-1.2-1.46 0-.8.49-1.46 1.2-1.46.45 0 .78.36.92.73l1.27-.76A2.3 2.3 0 0 0 31.72 25ZM36 31v-5.35h-1.54V25h3.77v.65h-1.58V31H36Zm3-6v6h3.24v-.67H39.6v-2.07h2.6v-.68h-2.58v-1.93h2.64V25H39Zm4 3c0-1.77 1.12-3 2.54-3 .87 0 1.5.5 1.88 1.15l-.51.34c-.3-.5-.8-.84-1.37-.84-1.09 0-1.92.97-1.92 2.35 0 1.38.83 2.35 1.92 2.35.56 0 1.08-.34 1.37-.84l.53.34c-.42.65-1 1.15-1.9 1.15-1.42 0-2.54-1.23-2.54-3Zm8.4.24V31h.6v-6h-.6v2.6h-2.8V25H48v6h.6v-2.76h2.8Z"/></svg>