<!-- by TradingView --><svg width="56" height="56" viewBox="0 0 56 56" xmlns="http://www.w3.org/2000/svg"><path fill="#F0F3FA" d="M0 0h56v56H0z"/><path d="M18 36.28V19.92c0-.9.83-1.92 1.73-1.92h16.5c.9 0 1.77 1.02 1.77 1.92V29h4v-9.79a5.2 5.2 0 0 0-1.54-3.68A5.3 5.3 0 0 0 36.75 14h-17.5a5.3 5.3 0 0 0-3.7 1.53A5.2 5.2 0 0 0 14 19.21V36.8c0 1.38.56 2.7 1.54 3.68A5.3 5.3 0 0 0 19.25 42H29v-4h-9.27A1.8 1.8 0 0 1 18 36.28Z" fill="#2EA880"/><path d="M32 26h-6v6h6v-6Z" fill="#EC7D2D"/><path d="M42 31H31v11h11V31Z" fill="#EC7D2D"/></svg>