<!-- by TradingView --><svg width="56" height="56" viewBox="0 0 56 56" xmlns="http://www.w3.org/2000/svg"><path fill="#F0F3FA" d="M0 0h56v56H0z"/><path d="M32 37.94c-1.25.72-2.35 1.4-3.5 1.98-.3.14-.82.09-1.12-.08-3.91-2.18-7.8-4.38-11.66-6.64-.35-.21-.65-.8-.67-1.2-.05-4.33-.02-8.66-.05-12.97 0-.63.25-.99.77-1.29 3.83-2.15 7.63-4.29 11.42-6.48.61-.35 1.07-.34 1.67 0 3.81 2.2 7.65 4.36 11.46 6.57.33.2.64.73.65 1.1.04 4.39.04 8.78 0 13.17 0 .36-.25.88-.56 1.07-.79.53-1.65.93-2.6 1.43-.39-.85-.8-1.62-1.08-2.44-.07-.2.23-.52.36-.79.21-.42.63-.82.63-1.23.05-3.1 0-6.2.04-9.31 0-.63-.24-.98-.78-1.28a503.86 503.86 0 0 1-8.2-4.64c-.53-.32-.96-.34-1.5-.01-2.78 1.6-5.6 3.17-8.36 4.78a1.3 1.3 0 0 0-.55.94c-.05 3.24-.06 6.48-.02 9.72 0 .35.3.85.6 1.03 2.8 1.64 5.61 3.25 8.47 4.8.33.18.9.11 1.3-.03.65-.26 1.23-.68 1.98-1.1l1.3 2.9Z" fill="#727272"/><path d="M40.38 43.98c-1.46 0-2.72.06-3.97-.03-.3-.03-.67-.5-.83-.86-2.1-4.7-4.16-9.4-6.24-14.1l-1.35-3c-1.16 2.55-2.21 4.92-3.32 7.37-1.2-.69-2.32-1.32-3.5-2.01 2.23-5.16 4.46-10.26 6.67-15.35l.34.01 12.2 27.97ZM15.65 43.98l3.2-7.29c1.09.62 2.1 1.18 3.06 1.79.15.1.23.54.15.74a101.9 101.9 0 0 1-1.91 4.28c-.1.2-.36.46-.56.47-1.26.04-2.5.02-3.94.02Z" fill="#082E6E"/></svg>