<!-- by TradingView --><svg width="56" height="56" viewBox="0 0 56 56" xmlns="http://www.w3.org/2000/svg"><path fill="#F0F3FA" d="M0 0h56v56H0z"/><path d="M37 27.5a3.58 3.58 0 0 1 .99-2.47 3.43 3.43 0 0 1 2.5-1.03 3.5 3.5 0 0 1 2.52 1.03A3.46 3.46 0 0 1 44 27.5a3.5 3.5 0 0 1-2.1 3.22c-.43.19-.9.28-1.4.28a3.5 3.5 0 0 1-2.51-1.03c-.31-.32-.56-.69-.73-1.1A3.63 3.63 0 0 1 37 27.5Zm.7.01c0 .34.04.69.13 1.06.1.38.25.72.46 1.04.22.32.5.58.86.79.36.2.81.3 1.35.3s1-.1 1.35-.3c.36-.21.65-.47.86-.79.21-.32.37-.66.45-1.04.1-.37.14-.72.14-1.06v-.01c0-.34-.05-.69-.14-1.06a2.97 2.97 0 0 0-.45-1.05 2.56 2.56 0 0 0-2.21-1.1c-.54 0-1 .11-1.36.32-.36.2-.65.46-.86.78-.2.32-.36.66-.45 1.05a4.8 4.8 0 0 0-.13 1.06v.01ZM32.2 29.67c.45.56.93.9 1.69.9.83 0 1.48-.42 1.48-1.23 0-.66-.5-1.13-1.04-1.45a43.76 43.76 0 0 1-1.14-.73c-.61-.4-1.01-.95-1.01-1.68 0-.95.96-1.48 1.86-1.48.6 0 1.35.36 1.74.88l-.2.28c-.4-.47-.87-.87-1.54-.87-.68 0-1.24.46-1.24 1.13 0 .57.32.96.8 1.26a95.52 95.52 0 0 1 1.17.74c.67.42 1.23 1.04 1.23 1.85 0 1.1-1.05 1.73-2.11 1.73-.62 0-1.5-.57-1.89-1.07l.2-.26ZM31 31h-.72L26 25.12V31h-.4v-6.32L25 24h.94l4.65 6.3-.02-6.3H31v7ZM50 31h-.72L45 25.12V31h-.4v-6.32L44 24h.94l4.65 6.3-.02-6.3H50v7ZM12 24h.68v2.51h3.64V24H17v7h-.68v-4.2h-3.64V31H12v-7ZM5 27.5C5 25.56 6.53 24 8.46 24c.73 0 1.56.25 2.3 1l-.3.2a3.1 3.1 0 0 0-2-.9c-1.8 0-2.77 1.52-2.77 3.2v.01c0 1.67 1 3.2 2.77 3.2.8 0 1.66-.25 2.27-.79l.27.28c-.74.51-1.75.8-2.54.8A3.47 3.47 0 0 1 5 27.5ZM24 31h-.71l-.8-2h-3.28l-.82 2H18l2.73-6.46-.21-.54h.71L24 31Zm-4.63-2.4h2.97l-1.46-3.65-1.5 3.66Z" fill="#3D495D"/></svg>