<!-- by TradingView --><svg width="56" height="56" viewBox="0 0 56 56" xmlns="http://www.w3.org/2000/svg"><path fill="#F0F3FA" d="M0 0h56v56H0z"/><path d="M37 17.51v5.6h-4v-5.33c0-.98-.8-1.78-1.78-1.78h-6.44c-.98 0-1.78.8-1.78 1.78v4.33c0 .53-.36.89-.89.89h-4.33c-.98 0-1.78.8-1.78 1.78l-.03 6.44c0 .98.8 1.78 1.78 1.78H23v4h-5.49A5.54 5.54 0 0 1 12 31.49V24.5A5.54 5.54 0 0 1 17.51 19H19v-1.49A5.54 5.54 0 0 1 24.51 12h6.98A5.48 5.48 0 0 1 37 17.51Z" fill="#1593CE"/><path d="M19 38.49v-5.6h4v5.33c0 .98.8 1.78 1.78 1.78h6.44c.98 0 1.78-.8 1.78-1.78V33.9c0-.53.36-.89.89-.89h4.33c.98 0 1.78-.8 1.78-1.78l.03-6.44c0-.98-.8-1.78-1.78-1.78H33v-4h5.49A5.54 5.54 0 0 1 44 24.51v6.98A5.54 5.54 0 0 1 38.49 37H37v1.49A5.54 5.54 0 0 1 31.49 44H24.5A5.48 5.48 0 0 1 19 38.49Z" fill="#18BECE"/><path d="M23 32.89C23 27.9 28.02 23 33 23v-4c-6.76 0-14 7.13-14 13.89v3.55h4V32.9Z" fill="#18BECE"/><path d="M33 23.11C33 28.1 27.98 33 23 33v4c6.76 0 14-7.13 14-13.89V19h-4v4.11Z" fill="#1593CE"/></svg>