<!-- by TradingView --><svg width="56" height="56" viewBox="0 0 56 56" xmlns="http://www.w3.org/2000/svg"><path fill="url(#a)" d="M0 0h56v56H0z"/><path d="M28 20.47 17 17l3.3 11.58L17 39l11-2.32L39 39l-2.2-10.42L39 17l-11 3.47Z" fill="#225F8E"/><path d="M28 28V10l-6.75 11.25L28 28Z" fill="#23A6A0"/><path d="M28 28V10l6.75 11.25L28 28Z" fill="#298F94"/><path d="M28 28h18l-11.25-6.75L28 28Z" fill="#23A6A0"/><path d="M30.25 28H46l-11.25 6.75-4.5-6.75Z" fill="#298F94"/><path d="M25.75 28H10l11.25 6.75 4.5-6.75Z" fill="#23A6A0"/><path d="M28 28H10l11.25-6.75L28 28Z" fill="#298F94"/><path d="M38 29.13C38 36.42 28 46 28 46s-10-9-10-16.88C18 23.54 22.48 19 28 19s10 4.53 10 10.13Z" fill="#48C3D3"/><path d="M32.57 29A4.57 4.57 0 1 0 28 33.57V37a8 8 0 1 1 0-16 8 8 0 0 1 0 16v-3.43A4.57 4.57 0 0 0 32.57 29Z" fill="#FFF9F8"/><defs><linearGradient id="a" x1="10.42" y1="9.71" x2="68.15" y2="76.02" gradientUnits="userSpaceOnUse"><stop stop-color="#1A1E21"/><stop offset="1" stop-color="#06060A"/></linearGradient></defs></svg>