<!-- by TradingView --><svg width="56" height="56" viewBox="0 0 56 56" xmlns="http://www.w3.org/2000/svg"><path fill="#F0F3FA" d="M0 0h56v56H0z"/><path d="M42.74 28.4a6.62 6.62 0 0 0-8.23-.4c-.86.62-2.37.48-2.86-.57a1.66 1.66 0 0 1-.1-.83c.1-1.26.81-2.56 1.51-3.6l4.84-7.16c.2-.3.12-.72-.18-.92l-2.22-1.49a8.44 8.44 0 0 0-11.72 2.29L11.6 33.76a3.44 3.44 0 0 0 .94 4.8 8.32 8.32 0 0 0 11.54-2.25c.97-1.43 1.91-3.23 3.32-4.25.5-.36 1.12-.6 1.74-.6.3-.01.59.04.86.16.7.31 1.17 1 1.47 1.7.37.86.56 1.79.87 2.67a5.63 5.63 0 0 0 1.97 2.62 6.63 6.63 0 0 0 8.44-10.21Z" fill="url(#a)"/><defs><linearGradient id="a" x1="28" y1="12" x2="44.99" y2="65.61" gradientUnits="userSpaceOnUse"><stop stop-color="#EB4995"/><stop offset="1" stop-color="#F7AC40"/></linearGradient></defs></svg>