<!-- by TradingView --><svg width="56" height="56" viewBox="0 0 56 56" xmlns="http://www.w3.org/2000/svg"><path fill="#38C5F3" d="M0 0h56v56H0z"/><path d="M25 34h-2V23.5h2V34Zm-2-10.5h-4V22h3.37l.63 1.5Zm6-1.5v1.5h-4l.63-1.5H29ZM10.63 31.85c.87.45 1.9.71 3.02.71.93 0 1.81-.18 2.59-.51-.7 1.11-1.67 1.8-2.75 1.8-1.14 0-2.16-.77-2.86-2ZM19 29.4a5.05 5.05 0 0 1-2.76 2.65c.45-.73.78-1.64.95-2.65h1.8Zm-8.37-5.39a8.03 8.03 0 0 0-.95 3.92c0 1.5.36 2.87.95 3.92C9.05 31.02 8 29.58 8 27.93s1.05-3.1 2.63-3.92Zm5.6-.2c1.3.55 2.3 1.5 2.77 2.65h-1.8a7.28 7.28 0 0 0-.96-2.65ZM13.5 22c1.08 0 2.05.7 2.75 1.81a6.63 6.63 0 0 0-5.6.2c.69-1.23 1.71-2.01 2.85-2.01ZM31 22h1.6l1.6 10.58c-.92 0-1.7-.65-1.84-1.54L31 22ZM38.7 23.42c-.93 0-1.72.66-1.84 1.55l-1.06 7.61c.94 0 1.73-.66 1.87-1.55l1.03-7.61Z" fill="#02010C"/><path d="M34.2 32.58h1.6v.64a.8.8 0 0 1-.8.78.8.8 0 0 1-.8-.78v-.64ZM48 22h-1.6l-1.6 10.58c.92 0 1.7-.65 1.84-1.54L48 22ZM40.3 23.42c.93 0 1.72.66 1.84 1.55l1.06 7.61c-.94 0-1.73-.66-1.87-1.55l-1.03-7.61Z" fill="#02010C"/><path d="M44.8 32.58h-1.6v.64c0 .43.36.78.8.78a.8.8 0 0 0 .8-.78v-.64ZM38.7 23.42h1.6v-.64a.8.8 0 0 0-.8-.78.8.8 0 0 0-.8.78v.64Z" fill="#02010C"/></svg>