<!-- by TradingView --><svg width="56" height="56" viewBox="0 0 56 56" xmlns="http://www.w3.org/2000/svg"><path fill="#F0F3FA" d="M0 0h56v56H0z"/><path d="M28 12a16 16 0 1 1 0 32 16 16 0 0 1 0-32Zm-1 23.05c-1.8.06-3.46.36-4.92.8.87 2.91 2.38 5.5 4.92 6.03v-6.83Zm2 6.83c2.49-.52 3.98-3 4.86-5.84a20.6 20.6 0 0 0-4.86-.95v6.8Zm-8.64-5.42c-.98.4-1.84.86-2.55 1.32a13.5 13.5 0 0 0 5 3.3 15.86 15.86 0 0 1-2.45-4.62Zm15.2.2a15.68 15.68 0 0 1-2.37 4.41 13.5 13.5 0 0 0 4.9-3.19c-.85-.47-1.7-.87-2.52-1.22ZM36.99 29a26.34 26.34 0 0 1-.84 5.82c1.05.44 2.12.96 3.2 1.59 1.5-2.07 2.45-4.6 2.63-7.41h-4.99Zm-22.95 0c.18 2.77 1.1 5.27 2.57 7.32a17.5 17.5 0 0 1 3.2-1.7 26.45 26.45 0 0 1-.78-5.62h-4.99ZM29 33.13c1.7.12 3.49.44 5.35 1.04a31 31 0 0 0 .63-5.17H29v4.13ZM21.02 29c.06 1.4.22 3.18.6 4.98 1.6-.49 3.4-.82 5.38-.88V29h-5.98Zm-4.38-9.38a14.03 14.03 0 0 0-2.6 7.38h4.98c.07-2.03.35-3.96.81-5.71a17.68 17.68 0 0 1-3.19-1.67Zm5 2.3a30.99 30.99 0 0 0-.62 5.08H27v-4.23a20.8 20.8 0 0 1-5.36-.85Zm12.67-.23c-1.85.6-3.62.92-5.31 1.04V27h5.98c-.06-1.48-.25-3.4-.67-5.31Zm4.94-2.22a26.54 26.54 0 0 1-3.15 1.56c.5 1.83.8 3.84.88 5.97h4.99a14.01 14.01 0 0 0-2.72-7.53ZM27 14.14c-2.55.53-4.05 3.12-4.92 6.03 1.46.43 3.11.73 4.92.78v-6.81Zm2 6.77c1.54-.12 3.16-.42 4.85-.97-.88-2.82-2.37-5.28-4.85-5.8v6.77Zm-6.18-5.99a13.5 13.5 0 0 0-5.04 3.33c.72.45 1.58.9 2.57 1.31.64-1.82 1.48-3.4 2.47-4.64Zm10.37 0a15.67 15.67 0 0 1 2.37 4.4c.82-.35 1.66-.76 2.5-1.23a13.5 13.5 0 0 0-4.87-3.16Z" fill="#111F2C"/></svg>