<!-- by TradingView --><svg width="56" height="56" viewBox="0 0 56 56" xmlns="http://www.w3.org/2000/svg"><path fill="#F0F3FA" d="M0 0h56v56H0z"/><path d="m30.38 30.32.5.95c-2.7-1.34-4.92-.27-6.1 1.92-.95.27-1.54-.05-1.77-.96-.08-.35-.1-.67-.03-.96 2.49-1.4 5.15-2.14 7.4-.95ZM24.51 33.68a10.87 10.87 0 0 0-.64 5.34c.3 2.13 1.22 3.62 2.78 4.47 1.16.63 2.32.66 3.48.09A6.22 6.22 0 0 0 32.72 41a.15.15 0 0 1 .13-.02c.02 0 .04.02.05.04l.3.27a.19.19 0 0 1 .03.24 7.2 7.2 0 0 1-4.39 3.26c-1.1.28-2.24.28-3.4-.01a6.66 6.66 0 0 1-3-1.6 7.4 7.4 0 0 1-2.27-4.42c-.25-1.65-.05-3.35.6-5.1l3.74.02Z" fill="#211A19"/><path d="m30.88 31.55-.5-.96-7.26-13.13a.06.06 0 0 0-.07-.03.06.06 0 0 0-.04.02l-.01.04v13.42c-.25 1.12 1.03 2.24 2.07 1.95.3.1.4.42.28.98a.18.18 0 0 1-.17.15l-.67.01-3.74-.02h-1.6a.17.17 0 0 1-.15-.1.17.17 0 0 1-.02-.07v-.72c0-.04.02-.08.05-.1a.15.15 0 0 1 .1-.05h.99a.6.6 0 0 0 .33-.1c.42-.28.52-.74.53-1.38V14.93c0-.38-.12-.76-.59-1.15-.4-.34-.83-.57-1.26-.68a.2.2 0 0 1-.1-.07.2.2 0 0 1-.05-.12v-.75a.15.15 0 0 1 .05-.11.16.16 0 0 1 .11-.05h6.08a.2.2 0 0 1 .18.11l7.45 14.36a.06.06 0 0 0 .07.03l.03-.02.03-.03V13.94c0-.03-.03-.06-.04-.09-.18-.56-.63-.83-1.63-.8a7.74 7.74 0 0 1-.23 0 .15.15 0 0 1-.1-.15v-.74c0-.04.02-.08.05-.11a.16.16 0 0 1 .11-.05h5.69c.04 0 .08.02.1.04.03.03.05.07.05.1v.79a.15.15 0 0 1-.05.1.16.16 0 0 1-.12.05C35.53 13 35 13.34 35 14.1v19.75c0 .03-.13.06-.16.09a.13.13 0 0 1-.09.04h-2.32a.36.36 0 0 1-.32-.2l-1.23-2.24Z" fill="#E10312"/></svg>