<!-- by TradingView --><svg width="56" height="56" viewBox="0 0 56 56" xmlns="http://www.w3.org/2000/svg"><path fill="#F0F3FA" d="M0 0h56v56H0z"/><path d="M29.17 13.9c.54 0 .98-.42.98-.95a.97.97 0 0 0-.98-.95.97.97 0 0 0-1 .95c0 .53.45.96 1 .96ZM25.54 14c.55 0 .99-.43.99-.96a.97.97 0 0 0-1-.96c-.54 0-.98.43-.98.96s.44.96.99.96Z" fill="#058C9C"/><path d="M32.88 14.44c.55 0 1-.42 1-.95a.97.97 0 0 0-1-.96c-.54 0-.99.43-.99.96s.45.95 1 .95Z" fill="#059398"/><path d="M22.05 14.67c.55 0 .99-.43.99-.96a.97.97 0 0 0-.99-.95.97.97 0 0 0-.99.95c0 .53.44.96 1 .96Z" fill="#0A829E"/><path d="M36.6 15.7c.55 0 1-.42 1-.95a.97.97 0 0 0-1-.95.97.97 0 0 0-.98.95c0 .53.44.96.98.96Z" fill="#059398"/><path d="M18.77 15.96c.55 0 .99-.42.99-.95a.97.97 0 0 0-1-.96c-.54 0-.98.43-.98.96s.44.95.99.95Z" fill="#0979A4"/><path d="M27.78 16.03a1 1 0 0 0 1.02-.99 1 1 0 0 0-1.02-.99 1 1 0 0 0-1.02 1 1 1 0 0 0 1.02.98ZM30.92 16.3a1 1 0 0 0 1.02-1 1 1 0 0 0-1.02-.97 1 1 0 0 0-1.02.98 1 1 0 0 0 1.02.98Z" fill="#058C9C"/><path d="M24.73 16.33a1 1 0 0 0 1.02-.98 1 1 0 0 0-1.02-1 1 1 0 0 0-1.03 1 1 1 0 0 0 1.03.98Z" fill="#0A829E"/><path d="M21.86 17.17a1 1 0 0 0 1.03-1 1 1 0 0 0-1.03-.98 1 1 0 0 0-1.02.99 1 1 0 0 0 1.02.99Z" fill="#0979A4"/><path d="M34.1 17.16a1 1 0 0 0 1.03-.98 1 1 0 0 0-1.02-.99 1 1 0 0 0-1.02.99 1 1 0 0 0 1.02.98Z" fill="#059398"/><path d="M15.68 17.87c.55 0 1-.43 1-.96a.97.97 0 0 0-1-.96c-.54 0-.99.43-.99.96s.45.96 1 .96Z" fill="#0979A4"/><path d="M40.14 17.84c.55 0 1-.43 1-.96a.97.97 0 0 0-1-.96c-.54 0-.99.43-.99.96s.45.96 1 .96Z" fill="#059398"/><path d="M29.06 17.91c.5 0 .9-.39.9-.87s-.4-.87-.9-.87-.9.4-.9.87c0 .48.4.87.9.87Z" fill="#058C9C"/><path d="M26.38 17.99c.5 0 .9-.4.9-.88s-.4-.87-.9-.87-.9.4-.9.87c0 .49.4.88.9.88Z" fill="#0A829E"/><path d="M19.12 18.57a1 1 0 0 0 1.03-.98 1 1 0 0 0-1.03-1 1 1 0 0 0-1.02 1 1 1 0 0 0 1.02.98Z" fill="#0979A4"/><path d="M31.7 18.44c.5 0 .9-.39.9-.87s-.4-.87-.9-.87-.9.39-.9.87.4.87.9.87Z" fill="#058C9C"/><path d="M23.87 18.53c.5 0 .9-.4.9-.87 0-.49-.4-.88-.9-.88s-.9.4-.9.88.4.87.9.87Z" fill="#0979A4"/><path d="M37.08 18.75a1 1 0 0 0 1.02-.99 1 1 0 0 0-1.02-.98 1 1 0 0 0-1.02.98 1 1 0 0 0 1.02.99Z" fill="#059398"/><path d="M34.25 19.5c.5 0 .9-.4.9-.87 0-.48-.4-.87-.9-.87s-.9.39-.9.87.4.86.9.86Z" fill="#058C9C"/><path d="M21.5 19.6c.5 0 .9-.39.9-.87s-.4-.88-.9-.88-.91.4-.91.88.4.87.9.87Z" fill="#0979A4"/><path d="M27.61 19.6a.7.7 0 0 0 .72-.7.7.7 0 0 0-.72-.7.7.7 0 0 0-.72.7c0 .38.33.7.72.7ZM29.85 19.77a.7.7 0 0 0 .72-.7.7.7 0 0 0-.72-.68.7.7 0 0 0-.71.69c0 .38.32.69.71.69Z" fill="#0A829E"/><path d="M13.02 20.43c.55 0 1-.43 1-.96a.97.97 0 0 0-1-.96c-.54 0-.99.43-.99.96s.45.96 1 .96ZM16.71 20.5a1 1 0 0 0 1.03-1 1 1 0 0 0-1.03-.98 1 1 0 0 0-1.02.99 1 1 0 0 0 1.02.98ZM25.45 19.91a.7.7 0 0 0 .72-.69.7.7 0 0 0-.72-.7.7.7 0 0 0-.72.7c0 .38.33.7.72.7Z" fill="#0979A4"/><path d="M43.1 20.75c.55 0 1-.43 1-.96a.97.97 0 0 0-1-.96c-.54 0-.98.43-.98.96s.44.96.99.96Z" fill="#059398"/><path d="M31.86 20.39a.7.7 0 0 0 .72-.7.7.7 0 0 0-.72-.69.7.7 0 0 0-.72.7c0 .38.32.69.72.69Z" fill="#0A829E"/><path d="M39.66 21.03a1 1 0 0 0 1.02-.99 1 1 0 0 0-1.02-.98 1 1 0 0 0-1.02.98 1 1 0 0 0 1.02.99Z" fill="#059398"/><path d="M23.42 20.71c.4 0 .72-.3.72-.7 0-.38-.32-.7-.72-.7-.4 0-.72.32-.72.7 0 .4.32.7.72.7Z" fill="#0A829E"/><path d="M19.45 21.1c.5 0 .9-.39.9-.87s-.4-.87-.9-.87-.9.39-.9.87.4.87.9.87Z" fill="#0979A4"/><path d="M36.51 21.14c.5 0 .9-.39.9-.87s-.4-.87-.9-.87-.9.39-.9.87.4.87.9.87ZM33.73 21.47a.7.7 0 0 0 .72-.7.7.7 0 0 0-.72-.69.7.7 0 0 0-.72.7c0 .38.32.7.72.7Z" fill="#058C9C"/><path d="M21.63 21.93a.7.7 0 0 0 .72-.69.7.7 0 0 0-.72-.7.7.7 0 0 0-.71.7c0 .38.32.7.71.7ZM14.82 22.92a1 1 0 0 0 1.02-.99 1 1 0 0 0-1.02-.99 1 1 0 0 0-1.03 1 1 1 0 0 0 1.03.98ZM17.78 23.04c.5 0 .9-.4.9-.88s-.4-.87-.9-.87-.9.39-.9.87c0 .49.4.88.9.88Z" fill="#0979A4"/><path d="M38.26 23.22c.5 0 .9-.39.9-.87 0-.47-.4-.86-.9-.86s-.9.39-.9.86c0 .48.4.87.9.87ZM35.3 22.95a.7.7 0 0 0 .72-.7.7.7 0 0 0-.72-.69.7.7 0 0 0-.72.7c0 .38.32.69.72.69ZM11.04 23.64c.55 0 1-.43 1-.96a.97.97 0 0 0-1-.95.97.97 0 0 0-.98.95c0 .53.44.96.98.96Z" fill="#058C9C"/><path d="M41.62 23.92a1 1 0 0 0 1.02-.98 1 1 0 0 0-1.02-.99 1 1 0 0 0-1.02.99 1 1 0 0 0 1.02.98Z" fill="#059398"/><path d="M20.2 23.51c.39 0 .7-.3.7-.69a.7.7 0 0 0-.7-.69.7.7 0 0 0-.72.7c0 .37.32.68.71.68Z" fill="#0979A4"/><path d="M45.23 24.47c.55 0 .99-.43.99-.95a.97.97 0 0 0-1-.96c-.54 0-.98.43-.98.96 0 .52.44.95.99.95Z" fill="#059398"/><path d="M36.47 24.73a.7.7 0 0 0 .72-.7.7.7 0 0 0-.72-.68.7.7 0 0 0-.72.69c0 .38.32.7.72.7ZM16.6 25.29c.49 0 .9-.4.9-.87 0-.48-.41-.87-.9-.87-.5 0-.91.39-.91.87s.4.87.9.87Z" fill="#0A829E"/><path d="M13.55 25.85a1 1 0 0 0 1.02-.98 1 1 0 0 0-1.02-.99 1 1 0 0 0-1.02.99 1 1 0 0 0 1.02.98Z" fill="#058C9C"/><path d="M19.17 25.39a.7.7 0 0 0 .72-.7.7.7 0 0 0-.72-.7.7.7 0 0 0-.72.7c0 .38.32.7.72.7Z" fill="#0979A4"/><path d="M39.54 25.73c.5 0 .9-.4.9-.87 0-.49-.4-.88-.9-.88s-.9.4-.9.88.4.87.9.87ZM42.64 27.1a1 1 0 0 0 1.02-.99 1 1 0 0 0-1.02-.98 1 1 0 0 0-1.02.98 1 1 0 0 0 1.02.99Z" fill="#058C9C"/><path d="M37.18 26.73a.7.7 0 0 0 .72-.7.7.7 0 0 0-.72-.69.7.7 0 0 0-.72.7c0 .38.32.7.72.7Z" fill="#0A829E"/><path d="M9.99 27.39c.54 0 .98-.43.98-.95a.97.97 0 0 0-.98-.95.97.97 0 0 0-.99.95c0 .52.44.95.99.95Z" fill="#058C9C"/><path d="M18.62 27.42a.7.7 0 0 0 .72-.69.7.7 0 0 0-.72-.7.7.7 0 0 0-.72.7c0 .38.33.7.72.7ZM15.98 27.92c.5 0 .9-.39.9-.87s-.4-.86-.9-.86-.9.38-.9.86.4.87.9.87Z" fill="#0A829E"/><path d="M46 28.49c.56 0 1-.43 1-.96a.97.97 0 0 0-1-.96c-.54 0-.98.43-.98.96s.44.96.99.96Z" fill="#059398"/><path d="M40.02 28.48c.5 0 .9-.39.9-.87s-.4-.87-.9-.87-.9.39-.9.87.4.87.9.87Z" fill="#0A829E"/><path d="M13.1 29.12a1 1 0 0 0 1.02-.98 1 1 0 0 0-1.02-.99 1 1 0 0 0-1.02.99 1 1 0 0 0 1.02.98Z" fill="#058C9C"/><path d="M37.4 28.84c.4 0 .72-.32.72-.7 0-.39-.33-.7-.73-.7-.4 0-.72.31-.72.7 0 .38.33.7.72.7ZM18.58 29.54a.7.7 0 0 0 .72-.7.7.7 0 0 0-.72-.69.7.7 0 0 0-.71.7c0 .38.32.69.71.69Z" fill="#0A829E"/><path d="M42.7 30.46a1 1 0 0 0 1.02-1 1 1 0 0 0-1.03-.98 1 1 0 0 0-1.02.99 1 1 0 0 0 1.02.99ZM16.1 30.64c.5 0 .9-.4.9-.87 0-.48-.4-.87-.9-.87-.49 0-.9.39-.9.87s.41.87.9.87Z" fill="#058C9C"/><path d="M39.74 31.12c.5 0 .9-.39.9-.87s-.4-.88-.9-.88-.9.4-.9.88.4.87.9.87Z" fill="#0A829E"/><path d="M10.17 31.45c.55 0 .99-.42.99-.95a.97.97 0 0 0-.99-.95.97.97 0 0 0-.98.95c0 .53.44.95.98.95Z" fill="#059398"/><path d="M37.1 30.92c.4 0 .72-.31.72-.7 0-.38-.32-.7-.72-.7-.4 0-.72.32-.72.7 0 .39.32.7.72.7Z" fill="#0979A4"/><path d="M19.04 31.6a.7.7 0 0 0 .72-.7.7.7 0 0 0-.72-.69.7.7 0 0 0-.72.7c0 .38.32.69.72.69Z" fill="#0A829E"/><path d="M45.58 32.36c.54 0 .98-.43.98-.96a.97.97 0 0 0-.98-.95.97.97 0 0 0-1 .95c0 .53.45.96 1 .96Z" fill="#058C9C"/><path d="M13.66 32.48a1 1 0 0 0 1.02-.99 1 1 0 0 0-1.02-.98 1 1 0 0 0-1.02.98 1 1 0 0 0 1.02.99Z" fill="#059398"/><path d="M16.96 33.23c.5 0 .9-.4.9-.87 0-.48-.4-.88-.9-.88s-.9.4-.9.88.4.87.9.87Z" fill="#058C9C"/><path d="M36.32 32.88a.7.7 0 0 0 .71-.69.7.7 0 0 0-.71-.69.7.7 0 0 0-.72.7c0 .38.32.68.72.68Z" fill="#0979A4"/><path d="M41.85 33.55a1 1 0 0 0 1.02-.98 1 1 0 0 0-1.02-1 1 1 0 0 0-1.03 1 1 1 0 0 0 1.03.98Z" fill="#0A829E"/><path d="M38.84 33.55c.5 0 .9-.39.9-.87s-.4-.87-.9-.87-.9.39-.9.87.4.87.9.87Z" fill="#0979A4"/><path d="M19.99 33.5a.7.7 0 0 0 .72-.69.7.7 0 0 0-.72-.7.7.7 0 0 0-.72.7c0 .39.32.7.72.7Z" fill="#0A829E"/><path d="M35.08 34.63a.7.7 0 0 0 .72-.7.7.7 0 0 0-.72-.69.7.7 0 0 0-.72.7c0 .38.32.69.72.69Z" fill="#0979A4"/><path d="M11.66 35.4c.55 0 .99-.42.99-.95a.97.97 0 0 0-.99-.96.97.97 0 0 0-.99.96c0 .53.45.95 1 .95ZM15.2 35.59a1 1 0 0 0 1.03-.99 1 1 0 0 0-1.02-.99 1 1 0 0 0-1.03 1 1 1 0 0 0 1.03.98Z" fill="#059398"/><path d="M21.36 35.15a.7.7 0 0 0 .72-.7.7.7 0 0 0-.72-.7.7.7 0 0 0-.72.7c0 .39.33.7.72.7Z" fill="#0A829E"/><path d="M18.51 35.6c.5 0 .9-.4.9-.87 0-.48-.4-.87-.9-.87s-.9.39-.9.87.4.87.9.87Z" fill="#058C9C"/><path d="M37.4 35.68c.5 0 .9-.4.9-.87 0-.48-.4-.87-.9-.87s-.9.39-.9.87.4.87.9.87Z" fill="#0979A4"/><path d="M44 35.92c.54 0 .99-.43.99-.96a.97.97 0 0 0-1-.96c-.54 0-.99.43-.99.96s.45.96 1 .96Z" fill="#0A829E"/><path d="M40.23 36.26a1 1 0 0 0 1.02-.98 1 1 0 0 0-1.02-.99 1 1 0 0 0-1.02.99 1 1 0 0 0 1.02.98ZM33.46 36.05a.7.7 0 0 0 .71-.7.7.7 0 0 0-.71-.68.7.7 0 0 0-.72.69c0 .38.32.69.72.69Z" fill="#0979A4"/><path d="M23.1 36.44c.4 0 .71-.31.71-.7a.7.7 0 0 0-.71-.68.7.7 0 0 0-.72.69c0 .38.32.69.72.69Z" fill="#0A829E"/><path d="M20.5 37.45c.5 0 .9-.4.9-.87 0-.48-.4-.87-.9-.87s-.9.39-.9.87.4.87.9.87Z" fill="#058C9C"/><path d="M31.54 37.06c.4 0 .71-.3.71-.68a.7.7 0 0 0-.7-.69.7.7 0 0 0-.72.69c0 .38.32.68.71.68Z" fill="#0A829E"/><path d="M35.47 37.41c.5 0 .9-.39.9-.87s-.4-.87-.9-.87-.9.4-.9.87c0 .48.4.87.9.87Z" fill="#0979A4"/><path d="M25.1 37.31a.7.7 0 0 0 .71-.69.7.7 0 0 0-.72-.7.7.7 0 0 0-.71.7c0 .38.32.7.71.7Z" fill="#0A829E"/><path d="M17.5 38.13a1 1 0 0 0 1.02-.99 1 1 0 0 0-1.03-.98 1 1 0 0 0-1.02.98 1 1 0 0 0 1.02 1Z" fill="#059398"/><path d="M29.43 37.63c.4 0 .72-.3.72-.69a.7.7 0 0 0-.72-.68.7.7 0 0 0-.71.68c0 .39.32.7.71.7ZM27.24 37.73a.7.7 0 0 0 .72-.7.7.7 0 0 0-.72-.69.7.7 0 0 0-.72.7c0 .38.33.69.72.69Z" fill="#0A829E"/><path d="M38.08 38.45a1 1 0 0 0 1.02-.98 1 1 0 0 0-1.02-.99 1 1 0 0 0-1.02.99 1 1 0 0 0 1.02.98Z" fill="#0979A4"/><path d="M14.21 38.7c.55 0 .99-.42.99-.95a.97.97 0 0 0-.99-.95.97.97 0 0 0-.98.95c0 .53.44.95.98.95Z" fill="#059398"/><path d="M41.64 38.82c.55 0 .99-.42.99-.95a.97.97 0 0 0-.99-.95.97.97 0 0 0-.98.95c0 .53.44.95.98.95ZM33.27 38.75c.5 0 .9-.4.9-.88s-.4-.87-.9-.87-.9.39-.9.87c0 .49.4.88.9.88Z" fill="#0979A4"/><path d="M22.98 38.81c.5 0 .9-.38.9-.86s-.4-.87-.9-.87-.9.39-.9.87.4.86.9.86Z" fill="#058C9C"/><path d="M30.85 39.53c.5 0 .9-.39.9-.87s-.4-.87-.9-.87-.9.39-.9.87.4.87.9.87Z" fill="#0979A4"/><path d="M25.6 39.6c.5 0 .9-.38.9-.86s-.4-.88-.9-.88-.9.4-.9.88.4.87.9.87Z" fill="#058C9C"/><path d="M20.3 40.06a1 1 0 0 0 1.02-1 1 1 0 0 0-1.02-.98 1 1 0 0 0-1.02.99 1 1 0 0 0 1.02.99Z" fill="#059398"/><path d="M28.22 39.83c.5 0 .9-.4.9-.88s-.4-.87-.9-.87-.9.4-.9.87c0 .48.4.88.9.88Z" fill="#0A829E"/><path d="M35.53 40.16a1 1 0 0 0 1.02-.99 1 1 0 0 0-1.02-.98 1 1 0 0 0-1.02.98 1 1 0 0 0 1.02 1ZM38.75 41.08c.55 0 1-.43 1-.96a.97.97 0 0 0-1-.95.97.97 0 0 0-.98.95c0 .53.44.96.98.96ZM32.7 41.25c.58 0 1.04-.44 1.04-.99s-.46-1-1.03-1c-.57 0-1.03.45-1.03 1s.46 1 1.03 1Z" fill="#0979A4"/><path d="M17.56 41.23c.55 0 1-.43 1-.96a.98.98 0 0 0-1-.96c-.55 0-1 .43-1 .96s.45.96 1 .96Z" fill="#059398"/><path d="M23.45 41.31a1 1 0 0 0 1.02-.98 1 1 0 0 0-1.02-1 1 1 0 0 0-1.02 1 1 1 0 0 0 1.02.98ZM26.56 41.88a1 1 0 0 0 1.02-1 1 1 0 0 0-1.02-.98 1 1 0 0 0-1.02.99 1 1 0 0 0 1.02.99ZM29.7 41.87a1 1 0 0 0 1.03-.99 1 1 0 0 0-1.02-.98 1 1 0 0 0-1.03.98 1 1 0 0 0 1.03.99Z" fill="#058C9C"/><path d="M35.56 42.64c.55 0 1-.43 1-.96a.97.97 0 0 0-1-.96c-.55 0-.99.43-.99.96s.44.96.99.96Z" fill="#0A829E"/><path d="M21.19 42.9c.54 0 .99-.43.99-.96a.97.97 0 0 0-1-.95.97.97 0 0 0-.98.95c0 .53.44.95.99.95Z" fill="#059398"/><path d="M32.19 43.62c.54 0 .99-.43.99-.96a.98.98 0 0 0-1-.96c-.54 0-.99.43-.99.96s.45.96 1 .96Z" fill="#0A829E"/><path d="M24.93 43.81c.55 0 1-.43 1-.96a.98.98 0 0 0-1-.96c-.54 0-.99.43-.99.96s.45.96 1 .96Z" fill="#059398"/><path d="M28.57 44c.55 0 1-.42 1-.95a.97.97 0 0 0-1-.96c-.55 0-.99.43-.99.96s.44.95 1 .95Z" fill="#058C9C"/></svg>