<!-- by TradingView --><svg width="56" height="56" viewBox="0 0 56 56" xmlns="http://www.w3.org/2000/svg"><path fill="#F0F3FA" d="M0 0h56v56H0z"/><path d="M14.5 16c0 .8.33 1.67.5 2v1.5h4c.33 0 .6.3 1-.5-.17.5-.2 1-1 1h-4v1.5h4c.33 0 .6.3 1-.5-.17.5-.2 1-1 1h-4v1.16c.22.09.45.2.66.34H19c.33 0 .6.3 1-.5-.17.5-.2 1-1 1h-2.64c1.03.85 1.97 2.14 2.72 3.86C20.24 30.5 21 34.2 21 39h-1c0-4.7-.74-8.25-1.83-10.74-1.06-2.4-2.41-3.75-3.69-4.23-.77.26-1.5.93-2.19 1.96a16.74 16.74 0 0 0-1.81 4.07A32.76 32.76 0 0 0 9 39H8c0-2.38.5-6.04 1.52-9.25.51-1.6 1.15-3.12 1.94-4.3.36-.56.76-1.05 1.2-1.45H10c-.33-.17-1-.2-1-1 .17.33.6.5 1 .5h3.3c.23-.14.46-.27.7-.36V22h-4c-.33-.17-1-.2-1-1 .17.33.6.5 1 .5h4V20h-4c-.33-.17-1-.2-1-1 .17.33.6.5 1 .5h4V18a5 5 0 0 0 .5-2ZM13 39h-1.5v-1h.5v-8h-1v-1h2v10Zm2 0h-1V25.5h1V39Zm3-9h-1v8h.5v1H16V29h2v1Z" fill="#61292A"/><path d="M30 24h-1.5v1H30v1h-1.5v12h2.4c.3 0 1.1-.13 1.1-.5 0-.8-.04-1.5.84-1.5.18 0 .1.03.16 0v-1h1v1c0 .74.05 1-.61 1-.38 0-.39.1-.39.5 0 .88-1.24 1.5-2.1 1.5h-6.58c-.78 0-1.32-.81-1.32-1.5 0-.24.05-.5-.23-.5-.51 0-.77-.54-.77-1v-1h1v1c.78 0 1.02.83 1.02 1.5 0 .25.03.5.3.5h3.18V26H26v-1h1.5v-1H26v-1h4v1Z" fill="#C8996D"/><path d="M26 36h1v1h-2v-7.98l1-.02v7ZM31 37h-2v-1h1v-6.98h1V37Z" fill="#C8996D"/><path d="M27.8 13c.13 1.05.8 3.46 1.7 6C32 22 33 29.08 33 33h-1c0-3.5-1-12-4-14-2 2-2.64 3.93-3.11 5.98a38.42 38.42 0 0 0-.87 8.02H23c0-2.04.46-5.33 1.14-8.3A18.05 18.05 0 0 1 26.5 19c.5-1.39.97-3.52 1.3-6Z" fill="#C8996D"/><path d="M37 29h-.5v8h.5v-8ZM39.5 29H39v8h.5v-8Z" fill="#61292A"/><path d="M38.5 25h.5v1h-.5v12H40v1h-5v-1h2.5V26H37v-1h.5v-1H37v-1h2v1h-.5v1Zm-.5-9c1.91 5.63 3 9 3 17h-1c0-7.47-1.35-12.14-1.98-14.22-1.54 4.47-1.82 9.56-2.02 14.24l-1-.04c.25-5.82.5-10.98 3-16.98ZM47 25v14h-.5V25.5h-4V39H42V25h5Z" fill="#61292A"/><path d="M45.5 26.5h-2v11h2v-11ZM46 38h-3V26h3v12Z" fill="#61292A"/><path d="M42 23.5V22c2 .8 3.5.33 4 0v1.5c-.33.17-1.2.5-2 .5a5.1 5.1 0 0 1-2-.5ZM40.5 19.5c-.4-.4 1.17-.83 2-1V18c-2 0-2.5 1-2.5 1.5s1.5 2.5 4 2.5 4-1.5 4-2.5c0-.8-1.67-1.33-2.5-1.5v.5c.5 0 2 .5 2 1s-1.5 1-3.5 1-3-.5-3.5-1Z" fill="#C8996D"/><path d="M45 19.5c-.8.4-1.67.17-2 0v-2c0-.17.2-.5 1-.5s1 .33 1 .5v2Z" fill="#C8996D"/></svg>