<!-- by TradingView --><svg width="56" height="56" viewBox="0 0 56 56" xmlns="http://www.w3.org/2000/svg"><path fill="#F0F3FA" d="M0 0h56v56H0z"/><path d="M28 12a16 16 0 1 1 0 32 16 16 0 0 1 0-32Zm4.15 11c-9.06 1.13-15.8 7.06-18.1 9.94 2.13-2.65 9.14-5.5 12.4-6.6C25.92 27.43 25.08 33 29 33c4.15 0 10.06-5.56 13-9.05-2.94 2.07-9.33 6-11.4 5.24-2.08-.76.17-4.44 1.55-6.19Z" fill="url(#a)"/><defs><linearGradient id="a" x1="28" y1="12" x2="28" y2="44" gradientUnits="userSpaceOnUse"><stop stop-color="#5A98CA"/><stop offset="1" stop-color="#1D548F"/></linearGradient></defs></svg>