<!-- by TradingView --><svg width="56" height="56" viewBox="0 0 56 56" xmlns="http://www.w3.org/2000/svg"><path fill="#F0F3FA" d="M0 0h56v56H0z"/><path d="M12 28a2.5 2.5 0 0 1 2.5-2.5H24a2.5 2.5 0 0 1 0 5h-9.5A2.5 2.5 0 0 1 12 28Z" fill="#3693A2"/><path d="M29.5 28a2.5 2.5 0 0 1 2.5-2.5h9.5a2.5 2.5 0 0 1 0 5H32a2.5 2.5 0 0 1-2.5-2.5Z" fill="#1F555E"/><path d="M29.5 21.5A2.5 2.5 0 0 1 32 19h3.5a2.5 2.5 0 1 1 0 5H32a2.5 2.5 0 0 1-2.5-2.5ZM29.5 34.5A2.5 2.5 0 0 0 32 37h3.5a2.5 2.5 0 1 0 0-5H32a2.5 2.5 0 0 0-2.5 2.5Z" fill="#3693A2"/><path d="M29.5 15.39A2.45 2.45 0 0 1 32 13c1.38 0 2.5 1.07 2.5 2.39v.22A2.45 2.45 0 0 1 32 18a2.45 2.45 0 0 1-2.5-2.39v-.22ZM29.5 40.61A2.45 2.45 0 0 0 32 43c1.38 0 2.5-1.07 2.5-2.39v-.22A2.45 2.45 0 0 0 32 38a2.45 2.45 0 0 0-2.5 2.39v.22Z" fill="#1F555E"/><path d="M21.5 15.39A2.45 2.45 0 0 1 24 13c1.38 0 2.5 1.07 2.5 2.39v.22A2.45 2.45 0 0 1 24 18a2.45 2.45 0 0 1-2.5-2.39v-.22ZM21.5 40.61A2.45 2.45 0 0 0 24 43c1.38 0 2.5-1.07 2.5-2.39v-.22A2.45 2.45 0 0 0 24 38a2.45 2.45 0 0 0-2.5 2.39v.22Z" fill="#3693A2"/><path d="M18 21.5a2.5 2.5 0 0 1 2.5-2.5H24a2.5 2.5 0 1 1 0 5h-3.5a2.5 2.5 0 0 1-2.5-2.5ZM18 34.5a2.5 2.5 0 0 0 2.5 2.5H24a2.5 2.5 0 1 0 0-5h-3.5a2.5 2.5 0 0 0-2.5 2.5Z" fill="#1F555E"/></svg>