<!-- by TradingView --><svg width="56" height="56" viewBox="0 0 56 56" xmlns="http://www.w3.org/2000/svg"><path fill="#E54424" d="M0 0h56v56H0z"/><path d="M36 38.4v-5.99c0-1.95 1.52-3.4 3.5-3.4h1.94c.18 0 .28-.22.15-.35L28.47 15.21a.52.52 0 0 0-.73 0L14.4 28.67c-.12.12-.03.33.15.33H16c1.96 0 2.98 1.44 2.98 3.42v7c0 .32.17.58.51.58h2.99c.33 0 .51-.17.51-.5v-12c0-3.09 3.16-5.5 6.31-5.5H32v3h-2.69C27.83 25 26 26.05 26 27.5V29h6v3h-6v7.5c0 2-.39 3.5-2.8 3.5h-3.07c-1.85 0-4.12-1.47-4.12-3.42v-7c0-.33-.18-.58-.51-.58h-1.43c-2.7 0-4.08-3.18-2.2-5.09l15.48-15.6c.4-.4 1.05-.41 1.45-.02l15.3 15.6c1.92 1.88.56 5.11-2.16 5.11H39.5c-.34 0-.49.18-.49.5v6c0 2.52-2.03 4.5-4.6 4.5H31v-3h3.41c.9 0 1.59-.7 1.59-1.6Z" fill="#FEFEFD"/></svg>