<!-- by TradingView --><svg width="56" height="56" viewBox="0 0 56 56" xmlns="http://www.w3.org/2000/svg"><path fill="#072722" d="M0 0h56v56H0z"/><path d="M27.7 25.84c.93-.5 1.8-1.48 2.6-2.94.14-.25.37-.7.69-1.34.73-1.46 1.3-2.5 1.74-3.12a5.63 5.63 0 0 1 2.72-2.2c1.12-.4 2.28-.3 3.46.28a7.28 7.28 0 0 1 3.15 3.3A17.49 17.49 0 0 1 44 27.96c.02 2.62-.52 5.14-1.62 7.57a7.79 7.79 0 0 1-3.66 4.02 4.1 4.1 0 0 1-3.14.25A5.39 5.39 0 0 1 33 37.92c-.44-.55-1-1.42-1.68-2.63a33.3 33.3 0 0 0-1.28-2.12c-1.27-1.87-2.88-2.73-4.84-2.59a4.6 4.6 0 0 0-2.79 1.23c-.49.44-1.13 1.23-1.93 2.38-.36.51-.63.9-.82 1.14a4.32 4.32 0 0 1-2.1 1.63 2.9 2.9 0 0 1-3.05-.74 6.92 6.92 0 0 1-1.65-2.84 15.6 15.6 0 0 1-.82-6.33c.12-1.45.4-2.7.82-3.76.35-.85.83-1.5 1.46-1.95a3.38 3.38 0 0 1 2.32-.62c1.1.1 2.2.84 3.31 2.23l.13.16c.84 1.06 1.52 1.8 2.04 2.23a5.04 5.04 0 0 0 5.58.5Z" fill="#96FCE4"/></svg>