<!-- by TradingView --><svg width="56" height="56" viewBox="0 0 56 56" xmlns="http://www.w3.org/2000/svg"><path fill="#F0F3FA" d="M0 0h56v56H0z"/><path d="m36 12 2.29 4.57-2.48 4.54L38.42 26h5.2l-2.47 4.5L38.29 44h-5.07l-2.7-4.63h-5.07L22.72 44l-2.9-1.93L10 30l2.61-4h5.35l2.23-4.8L18 16.5 36 12Zm-5.47 18L28 26l-2.53 4h5.06Z"/><path d="M20.45 12H36.1l-2.96 4.5h-5.18L20.16 30h-4.94l2.68 5h15.35l2.62 4.5H20.3l2.4 4.5H17.5L10 30h4.94l7.8-13.5H18l2.45-4.5Zm12.7 4.57-2.62 4.4 7.8 13.87-2.46 4.62L38.29 44 46 31l-2.38-5-2.59 4.12-7.89-13.55Z" fill="url(#a)"/><defs><linearGradient id="a" x1="35.69" y1="12" x2="24.94" y2="36.67" gradientUnits="userSpaceOnUse"><stop offset=".03" stop-color="#8BA29A"/><stop offset=".37" stop-color="#C2DAC0"/><stop offset="1" stop-color="#F3D2B0"/></linearGradient></defs></svg>