<!-- by TradingView --><svg width="56" height="56" viewBox="0 0 56 56" xmlns="http://www.w3.org/2000/svg"><path fill="#F0F3FA" d="M0 0h56v56H0z"/><path d="M33 21a3 3 0 1 0 0-6 3 3 0 0 0 0 6Z" fill="#27337D"/><path d="M25.1 32.1a.05.05 0 0 1 0-.05c0-.01 0-.02.02-.02h.02A12.9 12.9 0 0 0 40 17.5c0-.02.02-.03.04-.03a.07.07 0 0 1 .08.02 16.08 16.08 0 0 1-1.05 22.04 16.08 16.08 0 0 1-9.73 4.44 5.3 5.3 0 0 1-1.36-.03.09.09 0 0 1-.04-.06v-.03c1-4.41.06-8.33-2.83-11.75Z" fill="#D8232A"/><path d="M25.46 12.19a10.75 10.75 0 0 1 2.58-.17.07.07 0 0 1 .04.05v.03a12.78 12.78 0 0 0 2.78 11.79.08.08 0 0 1-.08.08c-3.75-.58-7.54.53-10.41 3A12.81 12.81 0 0 0 16 38.46c0 .03-.02.04-.04.05a.09.09 0 0 1-.1-.03 16 16 0 0 1 4.77-24.68c.02 0 .05 0 .07.02.02 0 .04.02.06.04l.03.06c.08.26-.02.5-.23.72-.6.61-1.22 1.2-1.33 1.44a.27.27 0 0 0 .2.38l2.19.34a.12.12 0 0 1 .08.06l1.16 1.98a.23.23 0 0 0 .2.11c.05 0 .09-.01.13-.04a.23.23 0 0 0 .08-.09l.91-1.86a.3.3 0 0 1 .05-.08c.1-.1.3-.19.6-.24a38.43 38.43 0 0 0 1.82-.39.27.27 0 0 0 .1-.18v-.11a.72.72 0 0 0-.18-.26c-.3-.31-.76-.75-1.37-1.31a.44.44 0 0 1-.13-.4l.27-1.7c0-.02.01-.05.03-.07a.15.15 0 0 1 .08-.04ZM14.16 31.5a.1.1 0 0 0-.04.04c-.11.14-.2.22-.28.25-.07.02-.2 0-.37-.04a.1.1 0 0 0-.06 0 .1.1 0 0 0-.05.16c.16.21.15.47-.03.78v.03a.05.05 0 0 0 .03.05h.03c.37-.05.62.02.76.21.04.06.08.08.12.07.05-.02.07-.06.06-.13-.01-.23.15-.44.48-.62a.06.06 0 0 0 .03-.05l-.01-.03-.03-.02c-.32-.14-.49-.34-.5-.6a.1.1 0 0 0-.13-.1Zm1.05-7.4c-.02 0-.04 0-.07.03a6.96 6.96 0 0 1-.58.48 6.98 6.98 0 0 1-.76-.06c-.02 0-.04 0-.05.02-.02.02-.02.04 0 .06a6.97 6.97 0 0 1 .28.7l-.01.06c-.08.21-.18.42-.28.63v.06c.01.02.03.03.06.03a6.65 6.65 0 0 1 .76-.06l.06.03c.18.14.35.3.51.46.03.02.05.02.07.02.02-.01.03-.03.04-.06a6.9 6.9 0 0 1 .18-.72 7.36 7.36 0 0 1 .65-.39c.02-.02.04-.03.04-.06 0-.02-.02-.04-.04-.05a7.06 7.06 0 0 1-.65-.4 7.24 7.24 0 0 1-.18-.73c0-.02-.01-.04-.03-.04Zm6.04-2.5a.19.19 0 0 0-.1.05l-.57.5a.43.43 0 0 1-.42.1l-.95-.31a.12.12 0 0 0-.11.02.12.12 0 0 0-.04.12 48.22 48.22 0 0 1 .3 1.1 47.97 47.97 0 0 1-.65 1.02l.01.07.05.05.06.01h1a.44.44 0 0 1 .36.21l.39.66a.18.18 0 0 0 .18.09c.03 0 .06-.02.1-.04a.19.19 0 0 0 .05-.09l.25-.84a.31.31 0 0 1 .14-.17c.18-.1.51-.22.98-.35.06-.01.1-.06.11-.14.01-.07 0-.13-.06-.16a4.42 4.42 0 0 1-.82-.63.3.3 0 0 1-.08-.21l.03-.87c0-.04-.01-.07-.03-.1a.18.18 0 0 0-.18-.08Z" fill="#27337D"/><path d="M23 41a3 3 0 1 0 0-6 3 3 0 0 0 0 6Z" fill="#D8232A"/></svg>