<!-- by TradingView --><svg width="56" height="56" viewBox="0 0 56 56" xmlns="http://www.w3.org/2000/svg"><path fill="#F0F3FA" d="M0 0h56v56H0z"/><path d="M28.62 28.85a8.07 8.07 0 0 1 .34-1.66 34.95 34.95 0 0 0 1.36-4.72 3.9 3.9 0 0 1 .45-1.29c.24-.34.61-.55 1.11-.62.6-.07 1.23-.1 1.92-.1.14 0 .2.08.21.22l.06 2.09c0 .13-.06.2-.18.24l-.08.02c-.1.02-.15-.01-.15-.11l-.03-1.41c0-.07-.04-.11-.1-.12h-.07c-.18-.03-.27.05-.26.24l.05 1.41c0 .12-.05.18-.18.16-.08 0-.16-.06-.23-.15a.3.3 0 0 1-.05-.2c.02-.25 0-.47-.06-.67-.01-.04-.04-.06-.08-.05h-.06c-.07.02-.1.06-.1.13 0 .25 0 .5-.03.73 0 .04-.02.08-.06.11a.36.36 0 0 1-.1.06c-.02 0-.02 0-.03-.02-.04-.17-.24-.32-.62-.45a2.24 2.24 0 0 1-.3-.11.17.17 0 0 1-.07-.06.23.23 0 0 0-.07-.06c-.06-.04-.1-.02-.13.05l-.43 1.46c-.09.3-.02.35.22.14a.5.5 0 0 1 .15-.1c.08-.05.14-.03.17.05.43 1.22.63 2.3.6 3.28a3.27 3.27 0 0 1-1.72 2.82.1.1 0 0 0-.04.1c0 .03.02.06.06.07.79.3 1.48.2 2.07-.27a2.9 2.9 0 0 0 1-1.93c.04-.3.17-.56.38-.78.44-.44.9-.6 1.37-.49.37.1.78.37 1.24.84.07.07.12.07.17-.02l.34-.63c.06-.11.04-.14-.07-.08l-.27.16a.22.22 0 0 1-.26-.02c-.5-.4-1-.6-1.5-.58-.53.01-1 .28-1.36.8a.13.13 0 0 1-.13.07.13.13 0 0 1-.12-.08c0-.03-.02-.06-.04-.1-.35-.8-.57-1.38-.68-1.77a5.54 5.54 0 0 1-.2-1.92c.01-.06.04-.1.1-.14a.17.17 0 0 1 .16-.01 2.1 2.1 0 0 0 1.74-.03c.55-.23.83-.63.84-1.2 0-.48-.16-.98-.5-1.48a1.08 1.08 0 0 0-.9-.5 6.02 6.02 0 0 0-2.1.16c-.71.24-1.13.77-1.27 1.58l-.32 1.89a13.3 13.3 0 0 1-1.18 3.29c-.14.41-.14 1 .02 1.76Zm9.48 3.1a4.94 4.94 0 0 1-1.38-2.39c-.8.33-1.54.39-2.23.16-.35-.11-.39-.05-.11.2.27.24.87.36 1.78.36h.06c.07 0 .13.03.18.09.05.05.06.12.05.19-.04.29-.24.5-.59.66-.86.38-1.84.72-2.92 1a.2.2 0 0 1-.2-.05.2.2 0 0 1-.06-.19c.05-.29.14-.56.28-.82.16-.28.09-.35-.2-.22-.64.3-1.29.5-1.94.6-1.23.17-1.97-.36-2.21-1.6l-.03.82a4.12 4.12 0 0 0 2.04 1.54c3.02 1.04 5.52.92 7.48-.36Z" fill="#CEC53A"/><path d="m4 33 3.4-13h3.85L15 33h-4l-1.1-4H7.93l-1.07 4H4Zm11 0v-8h3.33c.8 0 1.7.47 2.17 1.16V25h2.72l1.23 4.35 1.4-4.35h2.65v8H26v-2.23L25.22 33h-1.66l-1.06-2.23V33h-3.89l-1.11-3.47V33H15Zm5.5-4.7c-.39.57-1 .93-1 .93l1 2.02V28.3ZM8.46 27h.89l-.45-1.65L8.46 27Zm9.22-.68h-.18v1.86h.18c.45 0 .82-.42.82-.93 0-.52-.37-.93-.82-.93Zm25.77 4.83A3.42 3.42 0 0 1 40.5 33c-1.93 0-3.5-1.8-3.5-4s1.57-4 3.5-4c1.27 0 2.39.78 3 1.94A3.37 3.37 0 0 1 46.6 25c1.75 0 2.6 1.09 2.81 1.64l-1.16.86c-.16-.34-.66-1.01-1.39-1.01-.91 0-1.5.7-1.5 2.53 0 1.85.67 2.9 2.02 2.46V30h-1.36l.46-1.5h3.02V25H52v8h-2.5v-2.07A3.17 3.17 0 0 1 46.38 33a3.07 3.07 0 0 1-2.93-1.85Zm-2.95.42c.56 0 1.02-1.15 1.02-2.57s-.46-2.57-1.02-2.57-1.02 1.15-1.02 2.57.46 2.57 1.02 2.57Z"/><path d="M5.05 29 4 33h2.86l1.07-4H5.05Zm8.8 0H9.9l1.1 4h6.5v-3.47L18.61 33h3.89v-2.23L23.56 33h1.66l.78-2.23V33h2.5v-4h-3.93l-.12.35-.1-.35H20.5v2.25l-1-2.02s.14-.08.33-.23H15v4l-1.15-4ZM37 29c0 2.2 1.57 4 3.5 4 1.24 0 2.33-.74 2.95-1.85A3.07 3.07 0 0 0 46.38 33c2 0 2.9-1.38 3.12-2.07V33H52v-4h-5.67l-.3 1h1.35v1.48c-1.35.44-2.01-.61-2.01-2.46V29h-3.85c0 1.42-.46 2.57-1.02 2.57s-1.02-1.15-1.02-2.57H37Z" fill="#28A2DF"/></svg>