<!-- by TradingView --><svg width="56" height="56" viewBox="0 0 56 56" xmlns="http://www.w3.org/2000/svg"><path fill="#F0F3FA" d="M0 0h56v56H0z"/><path d="M13.16 27.5h.58l.58.25.4.41.26.58v.58l-.33.66-.42.33-.33.16h-.83l-.57-.33-.42-.57-.08-.25v-.66l.33-.66.58-.41.25-.08ZM27.8 13l.74.08.5.33.32.41.17.5-.08.74-.42.58-.58.33-.57.08-.67-.25-.57-.66-.09-.24v-.83l.42-.66.5-.33.32-.08ZM40.28 34.76h.58l.58.25.41.4.25.58-.08.75-.34.5-.5.4-.24.09h-.74l-.58-.33-.33-.42-.17-.4v-.67l.25-.57.5-.42.4-.16ZM13.9 31.21l.75.17.57.5.25.57v.58l-.33.66-.5.4-.4.17-.75-.08-.5-.33-.33-.33-.16-.5v-.65l.24-.5.58-.5.58-.16ZM40.36 20.25l.75.09.57.32.34.58.08.25v.58l-.33.66-.42.32-.33.17h-.82l-.5-.25-.41-.5-.17-.4v-.58l.25-.66.5-.41.5-.17ZM20.35 14.98h.75l.66.33.41.57.08.83-.24.58-.58.49-.42.17-.82-.09-.5-.33-.33-.5-.08-.24v-.74l.33-.58.41-.33.33-.16ZM24.07 13.5l.83.16.5.33.33.58v.82l-.25.5-.58.49-.17.08h-.9l-.58-.33-.34-.41-.16-.58.08-.66.33-.5.42-.32.5-.17ZM37.96 17.29h.75l.66.4.33.5.08.25v.66l-.25.5-.57.49-.33.16h-.67l-.5-.24-.49-.58-.16-.41v-.58l.33-.66.41-.33.41-.16ZM17.37 17.29h.75l.5.24.5.58.07.25v.82l-.33.58-.58.41-.24.08h-.67l-.66-.4-.33-.42-.16-.74.25-.74.4-.42.5-.24Z" fill="#0888D3"/><path d="M37.8 37.8h1l.49.34.33.4.16.42v.58l-.33.66-.5.41-.74.16-.74-.24-.5-.58-.16-.41v-.58l.24-.58.42-.4.33-.17Z" fill="#0887D3"/><path d="m42.35 27.5.74.09.5.33.33.41.08.25v.9l-.33.5-.41.33-.34.16h-.74l-.66-.33-.41-.66-.09-.57.25-.75.58-.49.5-.16Z" fill="#0787D3"/><path d="M34.9 14.98h.75l.66.33.41.66v.99l-.33.5-.41.32-.41.17h-.58l-.58-.25-.42-.5-.16-.33v-.9l.33-.5.41-.33.33-.16Z" fill="#0887D3"/><path d="m31.68 13.5.74.16.42.25.33.5.08.24v.74l-.25.5-.58.49-.16.08h-.91l-.58-.33-.41-.66-.09-.66.25-.66.58-.5.58-.16Z" fill="#0787D3"/><path d="m20.6 40.03.66.09.5.33.33.4.16.5-.08.66-.33.5-.5.4-.16.09h-.83l-.66-.41-.41-.66v-.83l.41-.66.5-.32.41-.09ZM17.62 37.73l.83.16.5.41.24.5v.9l-.33.5-.5.41-.74.16-.66-.24-.58-.66-.16-.74.25-.75.5-.4.65-.25Z" fill="#0888D3"/><path d="M41.68 31.3h.75l.5.24.5.58.07.17v.9l-.41.66-.83.41-.74-.08-.66-.5-.25-.49-.08-.57.25-.75.5-.4.4-.17Z" fill="#0887D3"/><path d="M41.6 23.8h.91l.66.4.33.59v.9l-.41.66-.5.33-.66.08-.58-.16-.57-.5-.17-.4v-.91l.41-.66.58-.33ZM15.22 20.25l.75.09.5.32.33.42.08.24v.91l-.33.5-.5.4-.25.09h-.82l-.66-.41-.34-.58v-.9l.25-.5.66-.5.33-.08ZM15.06 34.76h.66l.66.33.42.5.08.24v.82l-.25.5-.5.41-.4.17h-.67l-.58-.33-.41-.5-.09-.25v-.82l.25-.5.5-.4.33-.17Z" fill="#0888D3"/><path d="M13.57 23.8h.83l.58.33.33.4.16.5-.08.74-.33.5-.41.33-.83.16-.66-.24-.5-.58-.16-.41v-.58l.33-.66.5-.41.24-.08Z" fill="#0887D3"/><path d="M34.74 40.12h1.07l.5.33.33.4.08.25v.91l-.33.5-.5.4-.24.09h-.83l-.5-.33-.4-.5-.1-.24v-.83l.26-.49.5-.41.16-.08Z" fill="#0888D3"/><path d="M16.47 27.75h.66l.5.25.4.66v.74l-.4.58-.42.25-.5.08-.66-.25-.5-.66v-.74l.25-.5.42-.32.25-.09Z" fill="#0988D3"/><path d="m33.42 18.03.66.08.5.33.32.58-.08.74-.33.5-.58.32h-.58l-.66-.41-.25-.41-.08-.58.25-.66.58-.41.25-.08Z" fill="#0888D3"/><path d="M30.52 16.96h.75l.5.24.4.66v.66l-.33.58-.57.33h-.75l-.5-.33-.32-.5v-.82l.33-.5.5-.32ZM38.87 27.75h.66l.5.25.33.41.17.74-.25.58-.5.41-.66.17-.58-.25-.41-.41-.17-.41.09-.75.5-.57.32-.17ZM16.8 24.87h.74l.58.33.25.41.08.74-.25.5-.5.4-.16.1h-.74l-.5-.34-.25-.25-.16-.5.08-.65.58-.66.25-.08ZM22.25 18.03l.66.08.58.5.17.4v.58l-.25.5-.41.33-.33.16h-.58l-.58-.33-.33-.57v-.75l.33-.57.41-.25.33-.08ZM22.34 37.64h.74l.58.33.25.41.08.75-.41.66-.33.24-.25.09h-.66l-.5-.33-.33-.5-.08-.58.24-.66.42-.32.25-.09ZM17.87 33.44h.91l.5.33.24.41.09.74-.25.5-.5.41-.24.08h-.67l-.5-.33-.32-.5v-.9l.33-.5.41-.24ZM38.8 30.64l.65.16.42.33.24.58-.08.74-.5.58-.4.16h-.59l-.58-.33-.24-.33-.09-.24v-.83l.33-.5.5-.24.33-.08Z" fill="#0988D3"/><path d="M37.47 22.15h.58l.58.33.33.5.08.57-.33.66-.42.33-.16.08h-.83l-.5-.33-.32-.66.08-.74.33-.5.58-.24Z" fill="#0888D3"/><path d="m27.8 16.54.74.09.5.4.24.59-.08.74-.41.5-.58.24-.66-.08-.67-.58-.08-.17v-.9l.33-.5.66-.33ZM37.3 33.44h.83l.5.33.33.58v.57l-.25.5-.5.41-.16.08h-.75l-.5-.33-.32-.5v-.82l.24-.4.42-.34.16-.08ZM38.54 24.87h.66l.58.33.33.57v.66l-.41.66-.5.25h-.74l-.66-.5-.17-.32v-.83l.33-.5.33-.24.25-.08Z" fill="#0988D3"/><path d="m17.13 30.64.66.16.41.33.25.58-.08.74-.5.58-.41.16-.75-.08-.5-.33-.24-.41v-.9l.41-.59.75-.24Z" fill="#0888D3"/><path d="M35.4 35.83h.83l.5.33.24.33.08.25v.66l-.33.57-.58.33h-.66l-.58-.33-.33-.66v-.57l.33-.58.5-.33Z" fill="#0988D3"/><path d="m18.04 22.15.82.08.42.33.24.5v.74l-.33.5-.5.32h-.82l-.5-.33-.33-.58v-.66l.42-.65.58-.25Z" fill="#0888D3"/><path d="M19.77 35.83h.83l.41.25.33.4.09.17v.83l-.33.5-.58.32h-.66l-.5-.33-.33-.4-.08-.75.24-.58.42-.33.16-.08ZM24.73 16.96h.75l.58.33.33.66-.09.74-.5.57-.32.17h-.75l-.5-.33-.32-.41v-1l.5-.57.32-.16Z" fill="#0988D3"/><path d="M35.57 19.84h.74l.5.33.33.41.08.25v.58l-.33.5-.41.32-.17.08h-.83l-.58-.5-.16-.32v-.83l.33-.49.5-.33ZM19.69 19.84h.66l.5.25.41.5.08.73-.24.5-.58.5h-.91l-.58-.5-.17-.33v-.83l.33-.49.5-.33Z" fill="#0888D3"/><path d="M32.92 37.64h.74l.58.33.33.58v.58l-.33.66-.58.33H33l-.58-.33-.33-.58v-.74l.33-.5.5-.33Z" fill="#0988D3"/><path d="m22.09 34.26.58.09.5.57v.58l-.26.41-.5.25-.57-.08-.41-.42-.09-.16v-.58l.25-.4.5-.26Z" fill="#0C8AD4"/><path d="m24.07 35.75.75.08.41.5v.65l-.41.5-.66.16-.5-.33-.25-.4.08-.75.42-.33.16-.08Z" fill="#0D8AD4"/><path d="M31.43 35.75h.5l.5.33.16.24v.66l-.41.5-.58.16-.5-.24-.25-.25-.08-.74.33-.5.33-.16Z" fill="#0B89D4"/><path d="m33.66 34.26.5.09.41.33.09.16v.74l-.33.41-.42.17-.58-.08-.41-.42-.08-.57.25-.5.33-.24.24-.09Z" fill="#0C8AD4"/><path d="m23.82 33.03.42.08.33.41v.5l-.5.4h-.41l-.41-.49.08-.57.25-.25.24-.08Z" fill="#0F8BD4"/><path d="m25.48 34.18.5.08.32.33v.5l-.33.41-.5.08-.4-.33-.09-.57.33-.42.17-.08Z" fill="#108CD5"/><path d="m30.27 34.18.42.08.33.33v.58l-.33.33-.42.08-.41-.24-.16-.33.08-.5.25-.25.24-.08Z" fill="#0E8BD4"/><path d="M31.76 33.11h.66l.33.33v.58l-.5.4-.49-.07-.33-.42.08-.57.25-.25Z" fill="#0F8BD4"/><path d="M21.6 28.33h.4l.42.5-.08.57-.33.25-.58-.08-.25-.25-.08-.5.33-.4.16-.09ZM34.08 28.33l.5.08.32.41-.08.58-.33.25H34l-.33-.33-.08-.41.25-.42.25-.16ZM21.67 30.06h.58l.33.25.09.57-.33.42h-.67l-.33-.42.09-.57.24-.25ZM33.17 31.63l.58.08.24.41-.08.5-.41.33-.5-.09-.33-.4.08-.5.17-.25.25-.08ZM22.5 31.63l.58.08.25.33v.5l-.5.4-.5-.08-.24-.24-.08-.42.24-.4.25-.17ZM33.17 25.28h.58l.33.41-.09.58-.33.25h-.5l-.32-.33-.09-.5.42-.41ZM30.85 22.97h.5l.41.41v.5l-.41.41-.58-.08-.25-.33v-.5l.33-.4ZM24.65 22.97h.5l.33.33.08.41-.25.42-.25.16-.5-.08-.32-.5.08-.49.33-.25ZM33.75 30.06h.58l.33.41v.5l-.33.33h-.58l-.33-.33-.09-.33.17-.41.25-.17ZM22.25 25.28h.58l.42.41-.09.58-.33.25h-.5l-.32-.33-.09-.42.25-.4.08-.09ZM29.61 22.31l.5.17.16.33-.08.57-.33.25-.58-.08-.25-.25-.08-.33.17-.4.16-.17.33-.09ZM27.71 22.15h.58l.33.33.08.41-.25.41-.16.08h-.5l-.41-.4v-.5l.33-.33ZM33.83 26.76h.5l.33.33.08.42-.25.4-.16.09h-.5l-.41-.41v-.5l.41-.33ZM21.67 26.76h.58l.33.33v.58l-.33.33h-.58l-.33-.41v-.5l.33-.33ZM32.18 23.96h.5l.4.41-.08.58-.41.33-.41-.08-.42-.5.08-.4.34-.34ZM26.22 22.31l.5.09.33.4-.08.58-.42.25-.5-.08-.24-.25v-.66l.41-.33ZM23.33 23.96h.5l.32.33.09.5-.33.4-.33.09-.5-.33-.08-.08v-.58l.33-.33Z" fill="#FF8633"/><path d="M19.7 27.8h.56l.55.66-.1.77-.45.33-.78-.1-.33-.34-.1-.66.43-.55.22-.11ZM36.42 27.8l.66.1.44.56-.1.77-.45.33h-.66l-.45-.44-.1-.55.32-.55.34-.22ZM19.82 30.11h.77l.44.34.11.77-.44.55h-.88l-.45-.55.11-.77.34-.34ZM35.2 32.21l.77.11.34.55-.12.66-.55.45-.66-.11-.45-.56.12-.66.22-.33.33-.1ZM20.92 32.21l.78.11.33.44v.66l-.67.56-.66-.11-.33-.34-.11-.55.33-.55.33-.22ZM35.2 23.72h.77l.45.55-.11.77-.45.33h-.66l-.44-.44-.11-.66.55-.55ZM32.1 20.63h.66l.56.55v.66l-.56.55-.77-.1-.33-.45v-.66l.44-.55ZM23.8 20.63h.66l.45.44.1.55-.33.55-.33.22-.66-.1-.44-.67.1-.66.45-.33ZM35.97 30.11h.78l.44.56v.66l-.44.44h-.78l-.44-.44-.11-.44.22-.55.33-.23ZM20.59 23.72h.77l.56.55-.11.77-.45.33h-.66l-.44-.44-.11-.55.33-.55.11-.11ZM30.44 19.75l.66.22.23.44-.12.77-.44.33-.77-.11-.33-.33-.12-.44.23-.55.22-.22.44-.11ZM27.9 19.52h.77l.44.45.11.55-.33.55-.22.1H28l-.55-.54v-.66l.44-.45ZM36.08 25.7h.67l.44.44.11.55-.33.56-.22.1h-.67l-.55-.54v-.67l.55-.44ZM19.82 25.7h.77l.44.44v.78l-.44.44h-.77l-.45-.55v-.67l.45-.44ZM33.87 21.95h.66l.56.55-.11.78-.56.44-.55-.11-.55-.67.1-.55.45-.44ZM25.9 19.75l.67.1.44.56-.11.77-.56.33-.66-.11-.33-.33v-.88l.55-.44ZM22.03 21.95h.66l.45.44.1.66-.44.56-.44.1-.66-.43-.11-.12v-.77l.44-.44Z" fill="#BECC9B"/><path d="M26.55 32.7h.5l.33.41-.08.58-.33.24-.5-.08-.25-.33v-.5l.33-.32Z" fill="#128DD5"/><path d="m25.23 31.8.5.07.24.33-.08.58-.33.25-.5-.08-.24-.25v-.58l.41-.33Z" fill="#118CD5"/><path d="M29.03 32.7h.42l.33.33v.57l-.42.33-.5-.08-.24-.41.08-.5.33-.24Z" fill="#128CD5"/><path d="m30.52 31.8.42.07.33.33v.42l-.42.4h-.41l-.33-.32v-.58l.25-.25.16-.08Z" fill="#0F8BD4"/><path d="m27.96 31.38.41.16.25.42-.08.33-.42.33-.4-.09-.34-.4.17-.5.4-.25ZM26.55 30.64h.42l.33.4-.09.5-.33.25-.5-.08-.24-.41.08-.42.33-.24Z" fill="#128DD5"/><path d="m29.12 30.64.5.08.32.5-.25.4-.24.17-.5-.08-.16-.25v-.58l.33-.24Z" fill="#118CD5"/><path d="m27.96 29.48.33.17.25.33-.09.33-.24.25h-.42l-.24-.25v-.5l.4-.33Z" fill="#148DD5"/></svg>