<!-- by TradingView --><svg width="56" height="56" viewBox="0 0 56 56" xmlns="http://www.w3.org/2000/svg"><path fill="#008E90" d="M0 0h56v56H0z"/><path fill-rule="evenodd" d="M36.07 20.36 36 20l-.07.36c-.18.84-.77 1.5-1.54 1.7l-.39.1.28.06c.82.17 1.48.86 1.65 1.75l.07.36.07-.36c.17-.89.83-1.58 1.65-1.75l.28-.05-.39-.1a2.18 2.18 0 0 1-1.54-1.7ZM4 29.02l.36 1.79c.25.06 1.12.19 2.55.19 1.78 0 3.09-.89 3.09-1.98 0-.92-.69-1.32-1.28-1.65a11.87 11.87 0 0 0-.9-.53c-.61-.33-1.27-.7-1.27-1 0-.41 1.52-.7 3.13.1l-.3-1.7A9.22 9.22 0 0 0 7.15 24c-1.39 0-2.9.8-2.9 1.93 0 1.14 1.43 1.8 1.67 1.91.23.1 1.74.96 1.74 1.36 0 .4-1.99.65-3.66-.18ZM18 24v7l-3.07-7H12.9l-3.14 7h2.14l.63-1.5h2.76l.62 1.5H20v-4.1l1.63 3.1h1.73L25 26.9V31h2v-7h-2.41l-2.09 4.26L20.41 24H18Zm-4.83 4h1.5l-.74-1.77-.76 1.77ZM28 24v7h2v-2.77h3.55v-1.46H30v-1.26h4V24h-6Zm10 0v7h2v-4.1l2.73 4.1H45v-7h-2v4.05L40.27 24H38Zm8 0v7h6v-1.45h-4v-1.3h3.68v-1.43H48v-1.34h4V24h-6Zm-10.35 0H35v7h2v-7h-.65c-.13.28-.23.59-.28.92l-.07.44-.07-.44a3.32 3.32 0 0 0-.28-.92Z" fill="#fff"/></svg>