<!-- by TradingView --><svg width="56" height="56" viewBox="0 0 56 56" xmlns="http://www.w3.org/2000/svg"><path fill="#F0F3FA" d="M0 0h56v56H0z"/><path d="M42 15v13.95c-.25 5.17-3.24 15.81-13.26 17.05C23.83 45.48 14 41.35 14 28.95V15h28ZM28 31a3.24 3.24 0 0 0-3 2c.5-.22 1.8-.67 3-.67s2.5.45 3 .67c-.25-.67-1.2-2-3-2Zm0-5c-4.35 0-6.74 4-7 6 .52-1.5 3.27-4 7-4s6.48 2.5 7 4c-.26-2-2.64-6-7-6Zm.11-5c-8.12 0-10.7 7.24-11 10.93 1.05-2.86 4.6-8.43 10.9-8.43 6.28 0 10.05 5.62 11.1 8.5-.26-3.67-2.83-11-11-11Z" fill="#005DA8"/></svg>