<!-- by TradingView --><svg width="56" height="56" viewBox="0 0 56 56" xmlns="http://www.w3.org/2000/svg"><path fill="#F0F3FA" d="M0 0h56v56H0z"/><path d="m22.9 19 .36-4.17A2.03 2.03 0 0 1 25.3 13h14.65a2.02 2.02 0 0 1 2.02 2.33l-.48 2.83c-.08.49-.51.84-1.01.84H22.9l-1.03 7h15.26c.6 0 1.08.51 1.02 1.1l-.3 3c-.06.51-.5.9-1.03.9h-7.07c-1 0-1.85.7-2.02 1.67L25.98 43h-4.29a2.02 2.02 0 0 1-2.02-2.3L21.88 26h-5.83a2.02 2.02 0 0 1-2.03-2.28l.44-3c.14-.99 1-1.72 2.03-1.72h6.42Z" fill="url(#a)"/><defs><linearGradient id="a" x1="28" y1="13" x2="28" y2="43" gradientUnits="userSpaceOnUse"><stop stop-color="#2E8CBC"/><stop offset="1" stop-color="#3279A5"/></linearGradient></defs></svg>