<!-- by TradingView --><svg width="56" height="56" viewBox="0 0 56 56" xmlns="http://www.w3.org/2000/svg"><path fill="#1A2C5A" d="M0 0h56v56H0z"/><path d="M28 11a16.84 16.84 0 0 1 12.02 4.98A16.84 16.84 0 0 1 45 28a16.84 16.84 0 0 1-4.98 12.02A16.84 16.84 0 0 1 28 45a16.84 16.84 0 0 1-12.02-4.98A16.84 16.84 0 0 1 11 28a16.84 16.84 0 0 1 4.98-12.02A16.84 16.84 0 0 1 28 11Zm0 .48c-2.2 0-4.3.42-6.32 1.26a16.36 16.36 0 0 0-8.94 8.94A16.36 16.36 0 0 0 11.48 28a16.35 16.35 0 0 0 4.84 11.67A16.37 16.37 0 0 0 28 44.51a16.36 16.36 0 0 0 11.68-4.84A16.36 16.36 0 0 0 44.5 28a16.36 16.36 0 0 0-10.2-15.26A16.36 16.36 0 0 0 28 11.48Zm6.72 7.72c.3.04.56.19.78.43.14.16.3.42.49.79.8 1.58 1.23 3.23 1.3 4.95.08 1.77-.24 3.43-.95 5a11.24 11.24 0 0 1-4.6 5.06 15.59 15.59 0 0 1-6.62 2.06c-.82.08-1.43.13-1.84.14-.61.03-1.08-.18-1.41-.62a3.42 3.42 0 0 1-.55-1.5c-.09-.56.22-.79.93-.7 1.73.23 3.47.15 5.22-.22a10.86 10.86 0 0 0 4.77-2.26 9.61 9.61 0 0 0 2.98-4.32c.42-1.22.6-2.5.54-3.87-.07-1.35-.36-2.6-.9-3.76a9.92 9.92 0 0 1-.34-.83c-.04-.1-.04-.19-.02-.25.04-.08.1-.12.22-.1Zm-13.74 5.37c.3-.12.62-.12.97 0 .13.03.33.18.6.42a15.35 15.35 0 0 0 1.58 1.26c.3.21.48.37.56.5.18.3.25.62.2.94-.04.29-.17.54-.4.75-.22.2-.48.32-.77.35a1.4 1.4 0 0 1-.93-.25 14.96 14.96 0 0 1-2.18-1.73 1.4 1.4 0 0 1-.44-.85c-.04-.3.02-.57.17-.84.15-.26.36-.44.64-.55Zm5.43-5.08c.33 0 .63.1.9.33a15.25 15.25 0 0 1 2.02 1.91c.23.27.35.57.37.9 0 .29-.07.56-.25.8-.17.26-.4.42-.69.5-.3.1-.63.07-.96-.07a2.05 2.05 0 0 1-.56-.48 14.95 14.95 0 0 0-1.46-1.4 2.03 2.03 0 0 1-.51-.54c-.16-.32-.2-.64-.12-.96.07-.28.22-.52.46-.7.24-.2.5-.29.8-.29Z" fill="#7BC145"/></svg>