<!-- by TradingView --><svg width="56" height="56" viewBox="0 0 56 56" xmlns="http://www.w3.org/2000/svg"><path fill="#F0F3FA" d="M0 0h56v56H0z"/><path d="M45.5 24a4.5 4.5 0 1 1 0 9 4.5 4.5 0 0 1 0-9Zm0 2a2.5 2.5 0 1 0 0 5 2.5 2.5 0 0 0 0-5ZM29 24.76a4.5 4.5 0 1 1-2 3.74V20h2v4.76ZM31.5 26a2.5 2.5 0 1 0 0 5 2.5 2.5 0 0 0 0-5Z" fill="#008E9D"/><path d="M23 24.76a4.5 4.5 0 1 0 2 3.74V20h-2v4.76ZM20.5 26a2.5 2.5 0 1 1 0 5 2.5 2.5 0 0 1 0-5Z" fill="#201D1D"/><circle cx="38.5" cy="21.5" r="1.5" fill="#008E9D"/><path d="M38.48 24.1a1.49 1.49 0 0 1 1.5 1.65c-.13.96-.98 1.83-.98 2.8 0 .97.85 1.84.99 2.8l.01.19c0 .8-.68 1.46-1.52 1.46a1.49 1.49 0 0 1-1.5-1.65c.13-.96.99-1.83.99-2.8 0-.97-.86-1.84-.99-2.8l-.01-.19c0-.8.68-1.46 1.51-1.46Z" fill="#008E9D"/><path d="M11.3 29.87 13.5 24H16l-3.46 7.73C11.99 33.49 9.91 37 6 37v-2.03c1.31-.12 3.9-.95 3.72-3.25L6.33 24h2.49l2.47 5.87Z" fill="#201D1D"/></svg>