<!-- by TradingView --><svg width="56" height="56" viewBox="0 0 56 56" xmlns="http://www.w3.org/2000/svg"><path fill="#F0F3FA" d="M0 0h56v56H0z"/><path fill-rule="evenodd" d="M6 22h9.5v1.5h-4V34H10V23.5H6V22Zm11.05 0h4.29c2.97 0 5.7 2.38 5.7 5.3v1.4c0 2.92-2.73 5.3-5.7 5.3h-4.29V22Zm1.45 1.5h2.49a4.5 4.5 0 1 1 0 9H18.5v-9Zm11 10.5h-1.62l4.19-12h2.42l4.18 12h-1.56l-1.17-3.5h-5.26L29.5 34Zm5.93-5-2.12-6.36L31.18 29h4.25Zm9.65 5c2.42 0 4.25-1.67 4.92-4h-1.5c-.63 1.48-1.95 2.5-3.46 2.5-2.14 0-3.54-2.01-3.54-4.5s1.4-4.5 3.54-4.5c1.34 0 2.52.8 3.21 2h1.58c-.77-2.07-2.51-3.5-4.75-3.5-3.06 0-5.08 2.69-5.08 6s2.02 6 5.08 6Z"/></svg>