<!-- by TradingView --><svg width="56" height="56" viewBox="0 0 56 56" xmlns="http://www.w3.org/2000/svg"><path fill="#F0F3FA" d="M0 0h56v56H0z"/><path d="M37.63 12A6.37 6.37 0 0 1 44 18.37v19.26A6.37 6.37 0 0 1 37.63 44H18.37A6.37 6.37 0 0 1 12 37.63V18.37A6.37 6.37 0 0 1 18.37 12h19.26ZM17 23l3.05 12h2.63L25 25.9l2.32 9.1h2.63L33 23h-2.67l-1.8 8.1L26.3 23h-2.6l-2.23 8.1-1.8-8.1H17Zm16 12h7v-2h-7v2Z" fill="#222A30"/><path d="m37.98 43-.35 1H18.37l-.35-1h19.96ZM43 37.98V18.02A5.02 5.02 0 0 0 37.98 13H18.02A5.02 5.02 0 0 0 13 18.02v19.96A5.02 5.02 0 0 0 18.02 43l.35 1h-.08A6.37 6.37 0 0 1 12 37.71V18.37A6.37 6.37 0 0 1 18.37 12H37.7A6.37 6.37 0 0 1 44 18.37V37.7A6.37 6.37 0 0 1 37.7 44h-.08l.35-1A5.02 5.02 0 0 0 43 37.98Z" fill="#414D58"/></svg>