<!-- by TradingView --><svg width="56" height="56" viewBox="0 0 56 56" xmlns="http://www.w3.org/2000/svg"><path fill="#F0F3FA" d="M0 0h56v56H0z"/><path fill="url(#afgdgdgxk)" d="M4.55 20.34H51.5v15.1H4.55z"/><path d="M4.55 20.87c.28.03.95.26 1.39.88a2.27 2.27 0 0 1-1.4-.88Zm0 2.34c.28.04.95.27 1.39.89a2.27 2.27 0 0 1-1.4-.89Zm0 2.17c.28.03.95.26 1.39.88a2.27 2.27 0 0 1-1.4-.88Zm0 2.5c.28.04.95.27 1.39.89a2.27 2.27 0 0 1-1.4-.89Zm0 2.17c.28.03.95.26 1.39.88a2.27 2.27 0 0 1-1.4-.88Zm0 2.35c.28.03.95.26 1.39.88a2.27 2.27 0 0 1-1.4-.88Zm0 2.16c.28.03.95.26 1.39.88a2.27 2.27 0 0 1-1.4-.88ZM7.75 22c-.28.04-.95.27-1.39.9.81-.2 1.27-.68 1.4-.9Zm0 2.22c-.28.04-.95.27-1.39.9.81-.2 1.27-.68 1.4-.9Zm0 2.58c-.28.04-.95.27-1.39.9.81-.2 1.27-.68 1.4-.9Zm0 2.22c-.28.04-.95.27-1.39.9.81-.2 1.27-.68 1.4-.9Zm0 2.42c-.28.03-.95.27-1.39.9.81-.2 1.27-.69 1.4-.9Zm0 2.22c-.28.03-.95.27-1.39.9.81-.2 1.27-.68 1.4-.9Zm.4-12.8c.28.03.95.26 1.38.88a2.27 2.27 0 0 1-1.38-.88Zm0 2.34c.28.04.95.27 1.38.89a2.27 2.27 0 0 1-1.38-.89Zm0 2.17c.28.03.95.26 1.38.88a2.27 2.27 0 0 1-1.38-.88Zm0 2.5c.28.04.95.27 1.38.89a2.27 2.27 0 0 1-1.38-.89Zm0 2.17c.28.03.95.26 1.38.88a2.27 2.27 0 0 1-1.38-.88Zm0 2.35c.28.03.95.26 1.38.88a2.27 2.27 0 0 1-1.38-.88Zm0 2.16c.28.03.95.26 1.38.88a2.27 2.27 0 0 1-1.38-.88ZM11.35 22c-.28.04-.95.27-1.39.9.81-.2 1.26-.68 1.39-.9Zm0 2.22c-.28.04-.95.27-1.39.9.81-.2 1.26-.68 1.39-.9Zm0 2.58c-.28.04-.95.27-1.39.9.81-.2 1.26-.68 1.39-.9Zm0 2.22c-.28.04-.95.27-1.39.9.81-.2 1.26-.68 1.39-.9Zm0 2.42c-.28.03-.95.27-1.39.9.81-.2 1.26-.69 1.39-.9Zm0 2.22c-.28.03-.95.27-1.39.9.81-.2 1.26-.68 1.39-.9Zm.53-12.8c.28.03.95.26 1.39.88a2.27 2.27 0 0 1-1.39-.88Zm0 2.34c.28.04.95.27 1.39.89a2.27 2.27 0 0 1-1.39-.89Zm0 2.17c.28.03.95.26 1.39.88a2.27 2.27 0 0 1-1.39-.88Zm0 2.5c.28.04.95.27 1.39.89a2.27 2.27 0 0 1-1.39-.89Zm0 2.17c.28.03.95.26 1.39.88a2.27 2.27 0 0 1-1.39-.88Zm0 2.35c.28.03.95.26 1.39.88a2.27 2.27 0 0 1-1.39-.88Zm0 2.16c.28.03.95.26 1.39.88a2.27 2.27 0 0 1-1.39-.88ZM15.08 22c-.28.04-.94.27-1.38.9.8-.2 1.26-.68 1.38-.9Zm0 2.22c-.28.04-.94.27-1.38.9.8-.2 1.26-.68 1.38-.9Zm0 2.58c-.28.04-.94.27-1.38.9.8-.2 1.26-.68 1.38-.9Zm0 2.22c-.28.04-.94.27-1.38.9.8-.2 1.26-.68 1.38-.9Zm0 2.42c-.28.03-.94.27-1.38.9.8-.2 1.26-.69 1.38-.9Zm0 2.22c-.28.03-.94.27-1.38.9.8-.2 1.26-.68 1.38-.9Zm.7-12.8c.28.03.95.26 1.39.88a2.27 2.27 0 0 1-1.39-.88Zm0 2.34c.28.04.95.27 1.39.89a2.27 2.27 0 0 1-1.39-.89Zm0 2.17c.28.03.95.26 1.39.88a2.27 2.27 0 0 1-1.39-.88Zm0 2.5c.28.04.95.27 1.39.89a2.27 2.27 0 0 1-1.39-.89Zm0 2.17c.28.03.95.26 1.39.88a2.27 2.27 0 0 1-1.39-.88Zm0 2.35c.28.03.95.26 1.39.88a2.27 2.27 0 0 1-1.39-.88Zm0 2.16c.28.03.95.26 1.39.88a2.27 2.27 0 0 1-1.39-.88ZM18.98 22c-.28.04-.95.27-1.39.9.82-.2 1.27-.68 1.4-.9Zm0 2.22c-.28.04-.95.27-1.39.9.82-.2 1.27-.68 1.4-.9Zm0 2.58c-.28.04-.95.27-1.39.9.82-.2 1.27-.68 1.4-.9Zm0 2.22c-.28.04-.95.27-1.39.9.82-.2 1.27-.68 1.4-.9Zm0 2.42c-.28.03-.95.27-1.39.9.82-.2 1.27-.69 1.4-.9Zm0 2.22c-.28.03-.95.27-1.39.9.82-.2 1.27-.68 1.4-.9Zm.4-12.8c.28.03.95.26 1.39.88a2.27 2.27 0 0 1-1.4-.88Zm0 2.34c.28.04.95.27 1.39.89a2.27 2.27 0 0 1-1.4-.89Zm0 2.17c.28.03.95.26 1.39.88a2.27 2.27 0 0 1-1.4-.88Zm0 2.5c.28.04.95.27 1.39.89a2.27 2.27 0 0 1-1.4-.89Zm0 2.17c.28.03.95.26 1.39.88a2.27 2.27 0 0 1-1.4-.88Zm0 2.35c.28.03.95.26 1.39.88a2.27 2.27 0 0 1-1.4-.88Zm0 2.16c.28.03.95.26 1.39.88a2.27 2.27 0 0 1-1.4-.88ZM22.58 22c-.28.04-.95.27-1.39.9.82-.2 1.27-.68 1.4-.9Zm0 2.22c-.28.04-.95.27-1.39.9.82-.2 1.27-.68 1.4-.9Zm0 2.58c-.28.04-.95.27-1.39.9.82-.2 1.27-.68 1.4-.9Zm0 2.22c-.28.04-.95.27-1.39.9.82-.2 1.27-.68 1.4-.9Zm0 2.42c-.28.03-.95.27-1.39.9.82-.2 1.27-.69 1.4-.9Zm0 2.22c-.28.03-.95.27-1.39.9.82-.2 1.27-.68 1.4-.9Zm.7-12.8c.28.03.95.26 1.38.88a2.27 2.27 0 0 1-1.38-.88Zm0 2.34c.28.04.95.27 1.38.89a2.27 2.27 0 0 1-1.38-.89Zm0 2.17c.28.03.95.26 1.38.88a2.27 2.27 0 0 1-1.38-.88Zm0 2.5c.28.04.95.27 1.38.89a2.27 2.27 0 0 1-1.38-.89Zm0 2.17c.28.03.95.26 1.38.88a2.27 2.27 0 0 1-1.38-.88Zm0 2.35c.28.03.95.26 1.38.88a2.27 2.27 0 0 1-1.38-.88Zm0 2.16c.28.03.95.26 1.38.88a2.27 2.27 0 0 1-1.38-.88ZM26.48 22c-.28.04-.95.27-1.39.9.81-.2 1.26-.68 1.39-.9Zm0 2.22c-.28.04-.95.27-1.39.9.81-.2 1.26-.68 1.39-.9Zm0 2.58c-.28.04-.95.27-1.39.9.81-.2 1.26-.68 1.39-.9Zm0 2.22c-.28.04-.95.27-1.39.9.81-.2 1.26-.68 1.39-.9Zm0 2.42c-.28.03-.95.27-1.39.9.81-.2 1.26-.69 1.39-.9Zm0 2.22c-.28.03-.95.27-1.39.9.81-.2 1.26-.68 1.39-.9Zm.4-12.8c.27.03.94.26 1.38.88a2.27 2.27 0 0 1-1.38-.88Zm0 2.34c.27.04.94.27 1.38.89a2.27 2.27 0 0 1-1.38-.89Zm0 2.17c.27.03.94.26 1.38.88a2.27 2.27 0 0 1-1.38-.88Zm0 2.5c.27.04.94.27 1.38.89a2.27 2.27 0 0 1-1.38-.89Zm0 2.17c.27.03.94.26 1.38.88a2.27 2.27 0 0 1-1.38-.88Zm0 2.35c.27.03.94.26 1.38.88a2.27 2.27 0 0 1-1.38-.88Zm0 2.16c.27.03.94.26 1.38.88a2.27 2.27 0 0 1-1.38-.88ZM30.08 22c-.28.04-.95.27-1.39.9.81-.2 1.26-.68 1.39-.9Zm0 2.22c-.28.04-.95.27-1.39.9.81-.2 1.26-.68 1.39-.9Zm0 2.58c-.28.04-.95.27-1.39.9.81-.2 1.26-.68 1.39-.9Zm0 2.22c-.28.04-.95.27-1.39.9.81-.2 1.26-.68 1.39-.9Zm0 2.42c-.28.03-.95.27-1.39.9.81-.2 1.26-.69 1.39-.9Zm0 2.22c-.28.03-.95.27-1.39.9.81-.2 1.26-.68 1.39-.9Zm.4-12.8c.27.03.94.26 1.38.88a2.27 2.27 0 0 1-1.39-.88Zm0 2.34c.27.04.94.27 1.38.89a2.27 2.27 0 0 1-1.39-.89Zm0 2.17c.27.03.94.26 1.38.88a2.27 2.27 0 0 1-1.39-.88Zm0 2.5c.27.04.94.27 1.38.89a2.27 2.27 0 0 1-1.39-.89Zm0 2.17c.27.03.94.26 1.38.88a2.27 2.27 0 0 1-1.39-.88Zm0 2.35c.27.03.94.26 1.38.88a2.27 2.27 0 0 1-1.39-.88Zm0 2.16c.27.03.94.26 1.38.88a2.27 2.27 0 0 1-1.39-.88ZM33.67 22c-.28.04-.95.27-1.4.9.82-.2 1.27-.68 1.4-.9Zm0 2.22c-.28.04-.95.27-1.4.9.82-.2 1.27-.68 1.4-.9Zm0 2.58c-.28.04-.95.27-1.4.9.82-.2 1.27-.68 1.4-.9Zm0 2.22c-.28.04-.95.27-1.4.9.82-.2 1.27-.68 1.4-.9Zm0 2.42c-.28.03-.95.27-1.4.9.82-.2 1.27-.69 1.4-.9Zm0 2.22c-.28.03-.95.27-1.4.9.82-.2 1.27-.68 1.4-.9Zm.7-12.8c.27.03.94.26 1.38.88a2.27 2.27 0 0 1-1.39-.88Zm0 2.34c.27.04.94.27 1.38.89a2.27 2.27 0 0 1-1.39-.89Zm0 2.17c.27.03.94.26 1.38.88a2.27 2.27 0 0 1-1.39-.88Zm0 2.5c.27.04.94.27 1.38.89a2.27 2.27 0 0 1-1.39-.89Zm0 2.17c.27.03.94.26 1.38.88a2.27 2.27 0 0 1-1.39-.88Zm0 2.35c.27.03.94.26 1.38.88a2.27 2.27 0 0 1-1.39-.88Zm0 2.16c.27.03.94.26 1.38.88a2.27 2.27 0 0 1-1.39-.88ZM37.57 22c-.28.04-.95.27-1.4.9.82-.2 1.27-.68 1.4-.9Zm0 2.22c-.28.04-.95.27-1.4.9.82-.2 1.27-.68 1.4-.9Zm0 2.58c-.28.04-.95.27-1.4.9.82-.2 1.27-.68 1.4-.9Zm0 2.22c-.28.04-.95.27-1.4.9.82-.2 1.27-.68 1.4-.9Zm0 2.42c-.28.03-.95.27-1.4.9.82-.2 1.27-.69 1.4-.9Zm0 2.22c-.28.03-.95.27-1.4.9.82-.2 1.27-.68 1.4-.9Zm.4-12.8c.27.03.94.26 1.38.88a2.27 2.27 0 0 1-1.39-.88Zm0 2.34c.27.04.94.27 1.38.89a2.27 2.27 0 0 1-1.39-.89Zm0 2.17c.27.03.94.26 1.38.88a2.27 2.27 0 0 1-1.39-.88Zm0 2.5c.27.04.94.27 1.38.89a2.27 2.27 0 0 1-1.39-.89Zm0 2.17c.27.03.94.26 1.38.88a2.27 2.27 0 0 1-1.39-.88Zm0 2.35c.27.03.94.26 1.38.88a2.27 2.27 0 0 1-1.39-.88Zm0 2.16c.27.03.94.26 1.38.88a2.27 2.27 0 0 1-1.39-.88ZM41.17 22c-.29.04-.96.27-1.4.9.82-.2 1.27-.68 1.4-.9Zm0 2.22c-.29.04-.96.27-1.4.9.82-.2 1.27-.68 1.4-.9Zm0 2.58c-.29.04-.96.27-1.4.9.82-.2 1.27-.68 1.4-.9Zm0 2.22c-.29.04-.96.27-1.4.9.82-.2 1.27-.68 1.4-.9Zm0 2.42c-.29.03-.96.27-1.4.9.82-.2 1.27-.69 1.4-.9Zm0 2.22c-.29.03-.96.27-1.4.9.82-.2 1.27-.68 1.4-.9Zm.69-12.8c.28.03.95.26 1.39.88a2.27 2.27 0 0 1-1.4-.88Zm0 2.34c.28.04.95.27 1.39.89a2.27 2.27 0 0 1-1.4-.89Zm0 2.17c.28.03.95.26 1.39.88a2.27 2.27 0 0 1-1.4-.88Zm0 2.5c.28.04.95.27 1.39.89a2.27 2.27 0 0 1-1.4-.89Zm0 2.17c.28.03.95.26 1.39.88a2.27 2.27 0 0 1-1.4-.88Zm0 2.35c.28.03.95.26 1.39.88a2.27 2.27 0 0 1-1.4-.88Zm0 2.16c.28.03.95.26 1.39.88a2.27 2.27 0 0 1-1.4-.88ZM45.07 22c-.28.04-.95.27-1.39.9.82-.2 1.27-.68 1.4-.9Zm0 2.22c-.28.04-.95.27-1.39.9.82-.2 1.27-.68 1.4-.9Zm0 2.58c-.28.04-.95.27-1.39.9.82-.2 1.27-.68 1.4-.9Zm0 2.22c-.28.04-.95.27-1.39.9.82-.2 1.27-.68 1.4-.9Zm0 2.42c-.28.03-.95.27-1.39.9.82-.2 1.27-.69 1.4-.9Zm0 2.22c-.28.03-.95.27-1.39.9.82-.2 1.27-.68 1.4-.9Zm.51-12.8c.28.03.95.26 1.39.88a2.27 2.27 0 0 1-1.39-.88Zm0 2.34c.28.04.95.27 1.39.89a2.27 2.27 0 0 1-1.39-.89Zm0 2.17c.28.03.95.26 1.39.88a2.27 2.27 0 0 1-1.39-.88Zm0 2.5c.28.04.95.27 1.39.89a2.27 2.27 0 0 1-1.39-.89Zm0 2.17c.28.03.95.26 1.39.88a2.27 2.27 0 0 1-1.39-.88Zm0 2.35c.28.03.95.26 1.39.88a2.27 2.27 0 0 1-1.39-.88Zm0 2.16c.28.03.95.26 1.39.88a2.27 2.27 0 0 1-1.39-.88ZM48.78 22c-.27.04-.94.27-1.38.9.8-.2 1.26-.68 1.38-.9Zm0 2.22c-.27.04-.94.27-1.38.9.8-.2 1.26-.68 1.38-.9Zm0 2.58c-.27.04-.94.27-1.38.9.8-.2 1.26-.68 1.38-.9Zm0 2.22c-.27.04-.94.27-1.38.9.8-.2 1.26-.68 1.38-.9Zm0 2.42c-.27.03-.94.27-1.38.9.8-.2 1.26-.69 1.38-.9Zm0 2.22c-.27.03-.94.27-1.38.9.8-.2 1.26-.68 1.38-.9Zm.4-12.8c.25.03.84.26 1.22.88a2.01 2.01 0 0 1-1.22-.88Zm0 2.34c.25.04.84.27 1.22.89a2.01 2.01 0 0 1-1.22-.89Zm0 2.17c.25.03.84.26 1.22.88a2.01 2.01 0 0 1-1.22-.88Zm0 2.5c.25.04.84.27 1.22.89a2.01 2.01 0 0 1-1.22-.89Zm0 2.17c.25.03.84.26 1.22.88a2.01 2.01 0 0 1-1.22-.88Zm0 2.35c.25.03.84.26 1.22.88a2.01 2.01 0 0 1-1.22-.88Zm0 2.16c.25.03.84.26 1.22.88a2.01 2.01 0 0 1-1.22-.88ZM52 22c-.25.04-.84.27-1.22.9.71-.2 1.11-.68 1.22-.9Zm0 2.22c-.25.04-.84.27-1.22.9.71-.2 1.11-.68 1.22-.9Zm0 2.58c-.25.04-.84.27-1.22.9.71-.2 1.11-.68 1.22-.9Zm0 2.22c-.25.04-.84.27-1.22.9.71-.2 1.11-.68 1.22-.9Zm0 2.42c-.25.03-.84.27-1.22.9.71-.2 1.11-.69 1.22-.9Zm0 2.22c-.25.03-.84.27-1.22.9.71-.2 1.11-.68 1.22-.9Z" fill="#B6BCD7"/><path fill-rule="evenodd" d="M5.2 20c-.66 0-1.2.53-1.2 1.18v13.64c0 .65.54 1.18 1.2 1.18h45.6c.66 0 1.2-.53 1.2-1.18V21.18c0-.65-.54-1.18-1.2-1.18H5.2Zm.02 1c-.12 0-.22.1-.22.21V34.8c0 .12.1.21.22.21h45.56c.12 0 .22-.1.22-.21V21.2c0-.12-.1-.21-.22-.21H5.22Z" fill="url(#bfgdgdgxk)"/><path fill-rule="evenodd" d="m20 22.34-.31-.34h4.33l.26-.25v1.26l-.27-.28H21V24h1.71l.3-.35v1.47l-.3-.35H21v1.53h3.01l.27-.29v1.3L24 27H19.7l.31-.3v-4.37ZM6.8 27l.2-.2v-4.6L6.8 22h4.25l.18-.2V23l-.18-.2H8V24h2l.3-.33v1.4l-.3-.33H8v2.06l.21.2h-1.4ZM12 22.3l-.27-.3h3.32c.4 0 1.45.3 1.45 1.52 0 .98-.8 1.43-1.23 1.48l1.2 1.7.49.3h-1.8l.29-.3-1.23-1.7H13v1.7l.27.3h-1.54l.27-.3v-4.4Zm1 1.89V22.8h1.91c.2 0 .59.13.59.64 0 .52-.4.7-.59.74H13Zm5-1.96-.26-.23h1.55l-.29.23v4.54l.29.23h-1.55l.26-.23v-4.54Zm6.8-.23h3.16A2.4 2.4 0 0 1 30 24.46 2.52 2.52 0 0 1 27.96 27h-3.17l.21-.26v-4.48l-.2-.26Zm1.2 4.26V22.8h1.7c.43-.03 1.3.29 1.3 1.77 0 1.49-.87 1.74-1.3 1.69H26Zm4.72.74h1.58l-.3-.31v-3.07L33.89 27 36 23.62v3.07l-.4.3h1.7l-.3-.3V22.3l.3-.31h-2l.31.31-1.6 2.77-1.58-2.77.32-.31h-1.97l.22.25v4.44l-.28.3Zm6.8 0h1.5l-.26-.3.44-1.03h2.13l.44 1.03-.26.3h1.64l-.37-.3-1.98-4.37.3-.33h-1.6l.3.33-1.9 4.37-.37.3Zm3.52-2-.78-1.79-.77 1.79h1.55Zm2.68 2h1.57l-.29-.33V23.6l3.02 3.07-.3.32h1.56l-.28-.32v-4.33l.28-.32h-1.56l.28.32v3.04l-2.9-2.95.39-.41h-1.77l.28.32v4.33l-.28.32Z" fill="url(#cfgdgdgxk)"/><path fill="#A5A9AB" d="M7 28.5h42v.5H7z"/><path fill-rule="evenodd" d="M7 33v-3h.7v3H7Zm1.3 0v-3H9v.16l1.67 1.6V30h.67v3h-.67v-.21L9 31.05V33h-.7Zm31-3v3h.7v-1.92l1.98 1.75.02-.13v.3h.7v-3H42v1.82l-2-1.63V30h-.7ZM12 33v-3h1.6c.46.05 1.4.43 1.4 1.57 0 1.14-.84 1.43-1.26 1.43H12Zm.69-.48v-2.04h.86c.25.03.76.29.76 1.07s-.45.97-.68.97h-.94ZM15.3 30h.7v1.83c.01.23.3.7.94.7.78 0 1.04-.42 1.04-.7V30h.7v2.13c-.02.29-.31.87-1.74.87-1.25 0-1.65-.58-1.64-.87V30Zm3.62 2.56.31-.55c.22.2.8.48 1.16.48.43 0 .62-.11.62-.39 0-.22-.1-.23-.47-.28l-.35-.05c-.66-.1-1.1-.33-1.1-.9 0-.58.55-.87 1.3-.87.6 0 1.02.25 1.16.38l-.25.48c-.15-.13-.53-.4-.91-.4-.49 0-.75.12-.75.35 0 .24.2.3.55.36l.17.02c.47.06 1.37.18 1.37.74 0 .64-.49 1.07-1.34 1.07a2.7 2.7 0 0 1-1.47-.44ZM32.31 32l-.31.55c.2.15.77.44 1.46.44.86 0 1.34-.43 1.34-1.07 0-.56-.9-.68-1.36-.74l-.18-.02c-.34-.06-.55-.12-.55-.36 0-.23.27-.35.75-.35.39 0 .77.27.91.4l.25-.48a1.83 1.83 0 0 0-1.16-.38c-.75 0-1.29.29-1.29.86 0 .58.44.8 1.1.91l.35.05c.36.05.47.06.47.28 0 .28-.19.39-.63.39-.35 0-.93-.29-1.15-.48ZM22.02 30v.5H23V33h.7v-2.5h1.06V30h-2.74ZM25 33v-3h2c.33.01.99.21.99.94 0 .57-.4.9-.74 1.02L28 33h-.72l-.75-1h-.83v1H25Zm1.88-2.53H25.7v.92h1.18c.23 0 .42-.2.42-.46s-.19-.46-.42-.46ZM28.3 30v3h.7v-3h-.7Zm10 3v-3h.7v3h-.7Zm-9-3v3H32v-.44h-2v-.82h1.25v-.5H30v-.69h2V30h-2.7ZM43 31.61c0-.53.3-1.61 1.59-1.61.64 0 1.17.38 1.36.57l-.3.48a1.46 1.46 0 0 0-1.06-.55c-.63 0-.89.4-.89 1.11 0 .73.73.77.89.77.15 0 .56 0 1.05-.41l.36.51c-.23.18-.83.52-1.41.52-.73 0-1.59-.34-1.59-1.39Zm5 1.04a.35.35 0 1 1-.7 0 .35.35 0 0 1 .7 0Zm-12.58.83c.1-.1.3-.39.25-.63-.13.02-.38-.02-.38-.25 0-.3.24-.3.31-.3.08 0 .4 0 .4.4 0 .34-.39.66-.58.78Z" fill="url(#dfgdgdgxk)"/><defs><linearGradient id="afgdgdgxk" x1="30.28" y1="27.89" x2="50.26" y2="27.89" gradientUnits="userSpaceOnUse"><stop stop-color="#111837"/><stop offset="1" stop-color="#283159"/></linearGradient><linearGradient id="bfgdgdgxk" x1="28" y1="20" x2="28" y2="36" gradientUnits="userSpaceOnUse"><stop stop-color="#8A8F92"/><stop offset=".43" stop-color="#fff"/><stop offset=".51" stop-color="#444C50"/><stop offset=".8" stop-color="#CCCECF"/><stop offset="1" stop-color="#BCBFC1"/></linearGradient><linearGradient id="cfgdgdgxk" x1="28.02" y1="21.75" x2="28.02" y2="27.3" gradientUnits="userSpaceOnUse"><stop stop-color="#A2A4A6"/><stop offset=".44" stop-color="#FDFDFD"/><stop offset=".51" stop-color="#4F565B"/><stop offset="1" stop-color="#DEDFE0"/></linearGradient><linearGradient id="dfgdgdgxk" x1="27.5" y1="30" x2="27.5" y2="33.48" gradientUnits="userSpaceOnUse"><stop stop-color="#B9BCBA"/><stop offset=".4" stop-color="#FEFEFE"/><stop offset=".56" stop-color="#51595C"/><stop offset="1" stop-color="#C1C4C5"/></linearGradient></defs></svg>