<!-- by TradingView --><svg width="56" height="56" viewBox="0 0 56 56" xmlns="http://www.w3.org/2000/svg"><path fill="#181B1E" d="M0 0h56v56H0z"/><path d="M48 26.42h-2c-.22-1.19-1.14-1.84-2.3-1.84-1.9 0-2.7 1.64-2.7 3.38 0 1.75.77 3.46 2.7 3.46 1.12 0 2.07-.62 2.3-1.79l2 .01c-.32 2.13-2.29 3.36-4.32 3.36-2.86 0-4.68-2.24-4.68-5 0-2.75 1.82-5 4.68-5 2.1 0 4.01 1.24 4.32 3.42ZM27 23h2.32l3.18 7.25L35.67 23H38v10h-2v-6.5l-2.82 6.47h-1.36L29 26.5V33h-2V23ZM18.93 23l2.57 7.82L24.07 23H26l-3.42 10h-2.17L17 23h1.93ZM8 33V23h2v4h4v-4h2v10h-2v-4h-4v4H8Z" fill="#fff"/></svg>