<!-- by TradingView --><svg width="56" height="56" viewBox="0 0 56 56" xmlns="http://www.w3.org/2000/svg"><path fill="#F0F3FA" d="M0 0h56v56H0z"/><path d="m20.69 38.4-2.37-3.83c2.2.75 7.3 2.25 10.02 2.25 7.53 0 15.44-4.7 18.45-7.06C41.99 36.99 33.67 40 28.34 40c-4.26 0-6.88-1.06-7.65-1.6Z" fill="url(#a)"/><path d="m18.38 34.72-5.9-9.24c2.42 1.86 8.63 5.6 14.09 5.6 5.46 0 11.04-.95 13.15-1.42.93-.08 3.05-.31 4.09-.6 1.29-.34 1.72-1.02 2.36-1.02.64 0 .83.38.83.91 0 .43-.23.75-.35.86-3.2 3.25-10.11 7.08-17.05 7.08-5.56 0-9.8-1.44-11.22-2.17Z" fill="url(#b)"/><path d="M17.2 14.5c3.42 0 5.55 2.79 6.93 4.18 4.29 4.35 9.35 10.91 15.72 10.96-3.45.37-10.85-.22-17.74-3.2-5.5-2.4-9.47-5.82-10.77-7.24.38-1.62 2.45-4.7 5.87-4.7Z" fill="url(#c)"/><path d="M11 21.85c0-1 .16-2.14.24-2.6 3.26 1.88 11.14 6.12 16.56 8.11 5.41 2 10.2 2.36 11.92 2.3-1.9.49-8.74 1.57-16.2.21-5.97-1.08-9.99-3.44-11.25-4.48-.43-.77-1.27-2.55-1.27-3.54Z" fill="url(#d)"/><path d="M28.84 31.15c-10.44 0-15.3-3.8-16.43-5.7.95.87 4.48 2.97 10.98 4.36a54.93 54.93 0 0 0 16.37-.15c-1.3.5-5.32 1.49-10.92 1.49Z" fill="url(#e)"/><defs><linearGradient id="a" x1="20.36" y1="36.21" x2="33.6" y2="40.04" gradientUnits="userSpaceOnUse"><stop stop-color="#A3D6ED"/><stop offset="1" stop-color="#3697CF"/></linearGradient><linearGradient id="b" x1="12.48" y1="31.19" x2="30.68" y2="36.95" gradientUnits="userSpaceOnUse"><stop stop-color="#E4F4FA"/><stop offset="1" stop-color="#63B9E1"/></linearGradient><linearGradient id="c" x1="14.26" y1="15.39" x2="34.44" y2="31.83" gradientUnits="userSpaceOnUse"><stop stop-color="#E4F4FA"/><stop offset=".23" stop-color="#BFE2F2"/><stop offset="1" stop-color="#0171BC"/></linearGradient><linearGradient id="d" x1="11" y1="21.85" x2="36.55" y2="28.19" gradientUnits="userSpaceOnUse"><stop stop-color="#8DC9E8"/><stop offset=".62" stop-color="#0E64B0"/><stop offset="1" stop-color="#01499E"/></linearGradient><linearGradient id="e" x1="15.22" y1="27.68" x2="37.9" y2="31.19" gradientUnits="userSpaceOnUse"><stop stop-color="#2381C2"/><stop offset="1" stop-color="#01338A"/></linearGradient></defs></svg>