<!-- by TradingView --><svg width="56" height="56" viewBox="0 0 56 56" xmlns="http://www.w3.org/2000/svg"><path fill="#F0F3FA" d="M0 0h56v56H0z"/><path d="m28 20-1.98 5h3.96L28 20Z" fill="#1D2088"/><path d="m28 20 4.39 5H35l-7-5Z" fill="#9FD9F6"/><path d="m28 20 1.98 5h2.41L28 20Z" fill="#0092D8"/><path d="m28 20-7 5h2.61L28 20Z" fill="#9FD9F6"/><path d="m28 20-4.4 5h2.42L28 20Z" fill="#0092D8"/><path d="m11.6 26-3.12 4.85L5.36 26H4l3.86 6H9.1l3.9-6h-1.4ZM14 26v6h6v-1h-5v-1.59h5v-.86h-5V27h5v-1h-6ZM36 26v6h6v-1h-5v-1.59h5v-.86h-5V27h5v-1h-6ZM27.7 27.96c0-1.57-2.2-1.96-3.37-1.96H21v6h1v-5h2.14c.63 0 2.23 0 2.23.96 0 .83-1.35 1-1.93 1.04h-1.43l3.33 3H28l-2.46-2.24c.9-.18 2.16-.7 2.16-1.8ZM52 32l-3.63-3L52 26h-1.7l-2.8 2.3-2.76-2.3H43l3.63 3L43 32h1.7l2.8-2.3 2.8 2.3H52ZM28 27h3v5h1v-5h3v-1h-7v1Z" fill="#1D2088"/></svg>