<!-- by TradingView --><svg width="56" height="56" viewBox="0 0 56 56" xmlns="http://www.w3.org/2000/svg"><path fill="#F0F3FA" d="M0 0h56v56H0z"/><path d="m27.8 13 .01.02v.02c-2.1 1.66-3.48 3.4-4.14 5.2-.14.39-.29.88-.44 1.48-.37 1.5-.48 2.83-.32 3.97a17.86 17.86 0 0 0 .39 2.06v-.01l.01-.01c-.02-2.42.5-4.53 1.54-6.34a14.68 14.68 0 0 1 3.34-4.05 22.76 22.76 0 0 1 3.18-2.2c.1-.06.18-.1.25-.12h.09a29.13 29.13 0 0 1 4.99.9v.01l-.01.01a.42.42 0 0 1-.11.02 11.67 11.67 0 0 0-5.08 2.33 18.9 18.9 0 0 0-2.55 2.25c-1.63 1.71-2.65 4.14-3.05 7.28l-.07.78a18.86 18.86 0 0 0 1 7.36.03.03 0 0 0 .03 0l.56-.35h.04l.01.02v1.9l.01.03.03.02h.06l1.18-1.08h.04v.02l.07 2.98c0 .15.02.27.04.37a.07.07 0 0 0 .05.05.07.07 0 0 0 .07-.03l1.21-1.99h.03l.02.01.65 4.22.02.01.01-.01.91-2.5h.04v.01c.07.72.38 1.67.94 2.86a37.53 37.53 0 0 0 .9 1.74 1.39 1.39 0 0 0 .48.28l.01.01v.04h-.01c-3.27.7-6.76.54-10.48-.46a19.06 19.06 0 0 1-6.65-3.27 10.7 10.7 0 0 1-1.07-.99l.01-.02a12.3 12.3 0 0 0 1.48-2.87h-.02a12.26 12.26 0 0 1-2.01 2.29c-.02 0-.03 0-.03-.02a13.36 13.36 0 0 1-1.38-1.85.07.07 0 0 1 .03-.05 10.98 10.98 0 0 0 2.4-2.2 11.63 11.63 0 0 1-2.85 1.51 14.47 14.47 0 0 1-.97-2.25v-.01h.02a10.56 10.56 0 0 0 3.5-1.27h.01v-.02a.01.01 0 0 0-.02 0 12.33 12.33 0 0 1-3.8.38 14.78 14.78 0 0 1-.4-2.67h.04c1.17.3 2.28.43 3.34.37a54.71 54.71 0 0 0 1.28-.1v-.01A11.47 11.47 0 0 1 12 27.54a13.37 13.37 0 0 1 .47-2.96.04.04 0 0 1 .03 0 11.49 11.49 0 0 0 5.24 2.74l-.45-.27A11.65 11.65 0 0 1 13.05 23l.01-.06a17.09 17.09 0 0 1 1.69-2.94h.02l.01.02c.73 2.09 1.7 3.68 2.93 4.77l.03.03a21.48 21.48 0 0 0 1.65 1.34v-.03c-.76-.92-1.4-1.88-1.92-2.88a11.25 11.25 0 0 1-1.29-5.05 15.42 15.42 0 0 1 3.39-2.73h.01v.03c-.55 1.9-.66 3.66-.32 5.25a12.54 12.54 0 0 0 2.03 4.82h.01v-.02a12.23 12.23 0 0 1-.8-5.95c.25-1.99.83-3.78 1.73-5.38a.18.18 0 0 1 .1-.08A19.9 19.9 0 0 1 27.8 13Zm6.97 9.12c1.07.14 1.99.39 2.77.73.76.34 1.17.77 1.24 1.32l.02.04.04.03 1 .36c.86.3 1.61.7 2.27 1.21a4.7 4.7 0 0 1 1.86 3.25 3.34 3.34 0 0 1-.48 2.22h-.01a1.8 1.8 0 0 0-.3-.42c-.41-.4-.78-.75-1.11-1.02-.85-.7-2.27-.87-4.26-.5-.21.03-.4.08-.55.15a4.12 4.12 0 0 0-2.42 2.9 15.6 15.6 0 0 0-.49 5.5 25.11 25.11 0 0 0 .7 4.08 17.34 17.34 0 0 1-1.75-5.7 12.3 12.3 0 0 1 .47-5.11 5.26 5.26 0 0 1 3.44-3.45 6.28 6.28 0 0 1 4.93.66l.04-.02.01-.03v-.03a2.94 2.94 0 0 0-.33-.61c-.3-.43-.54-.72-.73-.86-.4-.28-.81-.5-1.25-.67a18.47 18.47 0 0 0-2.93-.9h.01c.13-.15.24-.47.32-.98l.01-.08c.1-.57-.33-1.09-1.29-1.55a9.54 9.54 0 0 0-1.23-.5v-.02Zm-3.69 2.26a7.58 7.58 0 0 1 3.7-.35 9.64 9.64 0 0 1 1.3.4l.01.03-.01.03-.03.02-.95.21c-.01 0-.02 0-.03.02l-.01.03a.73.73 0 0 1-.09.26.21.21 0 0 1-.07.07c-.54.33-1.06.4-1.56.23-.22-.07-.47-.29-.76-.65a.18.18 0 0 0-.11-.07l-1.38-.2h-.01v-.03Z" fill="#A41034"/></svg>