<!-- by TradingView --><svg width="56" height="56" viewBox="0 0 56 56" xmlns="http://www.w3.org/2000/svg"><path fill="#F0F3FA" d="M0 0h56v56H0z"/><path d="M20 43h-5.37c-.9 0-1.63-.73-1.63-1.63V38a100 100 0 0 0 7-.22V43Zm23-1.63c0 .9-.73 1.63-1.63 1.63H21v-5.3c4.58-.42 7-1.26 9.97-2.46 3.3-1.33 9.06-4 12.03-5.24v11.37Z" fill="#2D7C3B"/><path d="M13 31c1.55-.01 4.55.12 6.47.72l.53.16v4.8c-2.06.2-4.4.3-7 .32v-6Zm8 1.17c3.12.86 8.23 2.06 10 2.06-1.1.73-4.49 1.78-10 2.36v-4.42Z" fill="#56CE4E"/><path d="M41.37 13c.9 0 1.63.73 1.63 1.63v14.39c-3.5 1.48-9.87 4.19-10.64 4.59A137.77 137.77 0 0 1 21 30.8V25h3.3l3.05 4c0-1.74 3.61-4.97 3.65-5l-10-7.99V15h-1v15.57c-1.93-.4-3.86-.54-7-.57V14.63c0-.9.73-1.63 1.63-1.63h26.74Z" fill="#008CC4"/></svg>