<!-- by TradingView --><svg width="56" height="56" viewBox="0 0 56 56" xmlns="http://www.w3.org/2000/svg"><path fill="#F0F3FA" d="M0 0h56v56H0z"/><path d="M33.26 16.95A55.73 55.73 0 0 0 16 28.38a75.7 75.7 0 0 0-3.11.04c-.28.01-.49-.02-.63-.1a.5.5 0 0 1-.25-.36.47.47 0 0 1 .13-.4c4.72-4.74 9.83-9.83 15.3-15.27.37-.36.71-.38 1.04-.06 1.57 1.52 3.17 3.1 4.78 4.72Z" fill="#97CA4D"/><path d="m33.26 16.95 6.5 6.44a44.88 44.88 0 0 0-19.49 7.92A40.04 40.04 0 0 0 16 34.86v-6.48a55.73 55.73 0 0 1 17.26-11.43Z" fill="#39AB53"/><path d="m39.75 23.4 3.8 3.6c.23.21.37.47.44.78a.48.48 0 0 1-.1.41.5.5 0 0 1-.4.18h-3.4a.11.11 0 0 0-.07.04c-.02.02-.02.04-.02.07V39.5a.5.5 0 0 1-.16.35c-.1.09-.22.14-.35.14H28.86c-.37 0-.77-.08-1.23-.27-1.75-.7-3.88-1.58-6.39-2.63a.38.38 0 0 0-.34.03l-4.34 2.65a.37.37 0 0 1-.5-.12.35.35 0 0 1-.05-.18v-4.61a39.96 39.96 0 0 1 4.26-3.55 44.88 44.88 0 0 1 19.48-7.92Z" fill="#327041"/></svg>