<!-- by TradingView --><svg width="56" height="56" viewBox="0 0 56 56" xmlns="http://www.w3.org/2000/svg"><path fill="#F0F3FA" d="M0 0h56v56H0z"/><path d="M28.02 11c1.84.01 3.09 1.66 2.97 3.78-.09 1.73-1.3 4.23-3.01 4.22-1.71-.01-2.9-2.52-2.98-4.25-.09-2.13 1.18-3.76 3.02-3.75Z" fill="#316139"/><path d="M19.99 17.4c.57-.41 1.21-.5 1.91-.28 2.58.84 3.3 4.45 3.06 6.98-.05.48-.13.76-.24.85-.13.09-.4.06-.84-.08-2.28-.74-5.12-2.83-4.86-5.7.07-.77.4-1.36.97-1.77ZM36 17.4c.59.4.91 1 .98 1.77.27 2.86-2.57 4.95-4.86 5.7-.43.14-.7.17-.84.08-.11-.08-.2-.37-.24-.85-.24-2.53.47-6.13 3.05-6.98.7-.23 1.34-.14 1.92.27Z" fill="#2F4FD3"/><path d="M18.7 26.5c-.95 1.71-3.9 1.79-5.51 1.08-1.98-.86-2.77-2.88-1.73-4.73 1.03-1.85 3.23-2.37 5.1-1.3 1.52.87 3.11 3.22 2.15 4.94ZM37.28 26.45c-.94-1.73.68-4.07 2.2-4.92 1.88-1.05 4.07-.5 5.09 1.36 1 1.86.2 3.87-1.8 4.71-1.6.7-4.55.59-5.5-1.15Z" fill="#0047B1"/><path d="M40.85 33.33c-.24.72-.7 1.2-1.38 1.47-2.51.95-5.02-1.63-6.2-3.93-.22-.43-.3-.72-.26-.87.06-.16.3-.31.72-.48 2.22-.84 5.62-.91 6.95 1.68.36.7.42 1.41.17 2.13Z" fill="#AECCE2"/><path d="M15.14 33.3a2.66 2.66 0 0 1 .2-2.14c1.34-2.58 4.73-2.48 6.95-1.6.41.16.65.32.7.46.05.16-.04.46-.27.9-1.19 2.28-3.71 4.85-6.21 3.86a2.26 2.26 0 0 1-1.37-1.48Z" fill="#53A8EB"/><path d="M27.95 43a2.8 2.8 0 0 1-2.03-.82c-1.98-1.98-.42-4.98 1.4-6.7.34-.32.6-.48.76-.48.18 0 .43.17.76.5 1.75 1.76 3.2 4.79 1.16 6.73-.56.52-1.24.78-2.05.77ZM22.5 36.3c1.72.95 1.78 3.9 1.08 5.52-.86 1.98-2.88 2.76-4.73 1.72-1.85-1.04-2.37-3.23-1.3-5.1.87-1.52 3.22-3.11 4.94-2.15ZM33.34 36.36c1.66-1.06 4.08.41 5.01 1.89 1.15 1.81.75 4.05-1.04 5.2-1.79 1.14-3.82.46-4.78-1.48-.78-1.58-.85-4.55.81-5.6Z" fill="#2F4FD3"/></svg>