<!-- by TradingView --><svg width="56" height="56" viewBox="0 0 56 56" xmlns="http://www.w3.org/2000/svg"><path fill="#1854CC" d="M0 0h56v56H0z"/><path fill-rule="evenodd" d="M21.5 14H13v13h8.5a6.5 6.5 0 1 0 0-13Zm-1 3H17v7h3.5a3.5 3.5 0 1 0 0-7Z" fill="#fff"/><path d="M33 18.01A4 4 0 0 0 29 14v13h14v-4H33v-4.99Z" fill="#fff"/><path fill-rule="evenodd" d="M17 28h6a5 5 0 0 1 0 10h-6v4h-4V28h4Zm0 7v-4h5a2 2 0 1 1 0 4h-5Z" fill="#fff"/><path d="M33 42h-4V28h4l6 8v-8h4v14h-4l-6-8v8Z" fill="#fff"/></svg>