<!-- by TradingView --><svg width="56" height="56" viewBox="0 0 56 56" xmlns="http://www.w3.org/2000/svg"><path fill="#004582" d="M0 0h56v56H0z"/><path d="M35.07 9h.01v.01L33.5 19.94v.02l.02.01 14.47 3.01.01.01V23H10.71v-.01l18.68-3.02a.03.03 0 0 0 .02-.02L35.07 9ZM11.54 25.86h-.01L9.35 30l-.02.01H8v-.01l2.66-4.96.02-.01H13.1l-.86 3.31v.01l2.66-3.32a.02.02 0 0 1 .02 0l2.41-.02h.01v.01l-2.66 4.97-.02.02h-1.45v-.01l2.24-4.07-3.48 4.07h-.01l-.02.01H10.57v-.01l.97-4.13ZM20.96 30a.01.01 0 0 1-.01 0v-.01L23.62 25h2.63c.45 0 1.07.06 1.44.27.84.46.52 1.47.17 2.15a4.7 4.7 0 0 1-1.63 1.86c-.78.5-1.68.7-2.63.7h-2.64Zm2.05-.97c.4 0 .84.02 1.22-.03a2.89 2.89 0 0 0 2.19-1.43c.28-.47.82-1.5-.26-1.61-.47-.04-.93-.03-1.5-.03h-.01v.01L23 29.01v.01l.01.01ZM31.67 29.01l-.53.98-.01.01H27.34v-.01L30 25l.02-.01h1.56a.01.01 0 0 1 0 .02l-2.12 3.96.01.01H31.68v.02ZM34.68 25h1.58a.01.01 0 0 1 0 .02l-2.66 4.97-.01.01H32v-.01L34.67 25V25ZM38.03 26.18 36 29.98l-.01.01-.03.01h-1.32a.02.02 0 0 1-.02-.01v-.01l2.67-4.97.02-.01H39.43v.02l-.1 3.65 1.97-3.66.02-.01h1.32a.01.01 0 0 1 .01.01L40 30h-.01l-.01.01H37.9a.02.02 0 0 1-.02 0 .02.02 0 0 1 0-.02 1481.07 1481.07 0 0 1 .14-3.8ZM22.1 26h-2.65l-.53.98V27H21.4l.01.01v.01l-.51.99h-2.5l-.01.01-.53.97V29h2.68a.01.01 0 0 1 .01 0v.01l-.51.98L20 30h-4.23l-.01-.01L18.43 25l.02-.01h4.17l.01.01-.52.98h-.01ZM47.47 26h-2.65l-.53.98V27H46.77l.01.01v.01l-.51.99a.01.01 0 0 1-.02 0h-2.48l-.01.01-.53.97a.01.01 0 0 0 0 .02H45.91a.01.01 0 0 1 0 .02l-.51.97a.01.01 0 0 1-.02.01h-4.23l-.01-.01L43.8 25l.02-.01h4.17a.01.01 0 0 1 .01.01l-.52.98h-.01ZM22.84 48l3.2-15.98a.03.03 0 0 1 .03-.02h4.04v.02L22.86 48h-.01Z" fill="#fff"/></svg>