<!-- by TradingView --><svg width="56" height="56" viewBox="0 0 56 56" xmlns="http://www.w3.org/2000/svg"><path fill="url(#a)" d="M0 0h56v56H0z"/><path d="M27.96 12c.28-.01.53.06.75.23.13.1.29.3.48.63l2.67 4.63 1.75 3.02c.22.69.24 1.34.08 1.96-.15.57-.58 1.22-.91 1.78l-4.72 8.15-.02.02-.04.01h-.03a.07.07 0 0 1-.03-.03l-4.73-8.17c-.3-.53-.72-1.14-.87-1.67-.21-.69-.17-1.4.1-2.14l1.8-3.12 2.73-4.71c.22-.37.54-.56.99-.59Z" fill="url(#b)"/><path d="M22.45 20.42a3.27 3.27 0 0 0-.11 2.14c.15.53.57 1.14.87 1.67l4.73 8.17a.07.07 0 0 0 .1.02l.02-.02 4.72-8.15c.33-.56.76-1.2.9-1.78.17-.62.15-1.27-.07-1.96l5.95 10.28 4.28 7.4c.39.67.04 1.5-.68 1.81h-9.9a2.81 2.81 0 0 1-1.15-.64 4.3 4.3 0 0 1-.7-.97A1805.91 1805.91 0 0 0 28 32.53h-.02v.01c-1.12 1.93-2.24 3.85-3.35 5.79-.29.5-.54.85-.74 1.04-.32.29-.7.5-1.14.63h-9.9c-.68-.29-1.03-1-.76-1.68l.38-.68L16.9 30l5.55-9.57Z" fill="url(#c)"/><defs><linearGradient id="a" x1="10.42" y1="9.71" x2="68.15" y2="76.02" gradientUnits="userSpaceOnUse"><stop stop-color="#1A1E21"/><stop offset="1" stop-color="#06060A"/></linearGradient><linearGradient id="b" x1="28" y1="12" x2="28" y2="32.43" gradientUnits="userSpaceOnUse"><stop stop-color="#550408"/><stop offset="1" stop-color="#B70912"/></linearGradient><linearGradient id="c" x1="28" y1="20.42" x2="28" y2="40" gradientUnits="userSpaceOnUse"><stop stop-color="#BE2B3C"/><stop offset="1" stop-color="#FD3A4E"/></linearGradient></defs></svg>