<!-- by TradingView --><svg width="56" height="56" viewBox="0 0 56 56" xmlns="http://www.w3.org/2000/svg"><path fill="#F0F3FA" d="M0 0h56v56H0z"/><path d="M27.71 34.59a13.6 13.6 0 0 0 5.5-4.22l.1.1c-1.09 1.97-3.3 4.11-5.7 4.27l-.08.16c7.13 3.18 11.27-6.56 9.8-12.03-4.32 2.98-7 7.11-9.62 11.72ZM21 27.05c.47 2.97 3.49 6.81 5.66 9l.1-.15c-.68-1.82-1.17-3.91-1.85-5.57l.13-.02c.87 1.55 1.7 3.3 1.81 5.43 2.76-4.7-.44-8.74-4.96-8.74-.3 0-.6.02-.9.05Z" fill="#B2C15D"/><path d="M24.06 12.48a17.22 17.22 0 0 0-4.46 1.9l-1 .68-.26.19c-.08.05-.15.12-.23.19l-.47.4c-.64.48-1.17 1.1-1.73 1.68a17.22 17.22 0 0 0-2.58 4.09 17.39 17.39 0 0 0-1.25 4.65c-.15 1.58-.09 3.18.2 4.75.3 1.54.84 3.02 1.57 4.4a15.58 15.58 0 0 0 2.77 3.63c-.4-.65-.86-1.23-1.18-1.92l-.26-.49-.14-.24-.1-.27-.43-1.02c-.5-1.38-.81-2.82-.95-4.28-.1-1.43 0-2.88.26-4.3.3-1.38.76-2.73 1.4-4l.51-.9.13-.22.15-.22.3-.42.31-.43c.1-.14.23-.27.34-.4.22-.26.44-.53.68-.79.5-.47.98-.98 1.54-1.38l.4-.32.21-.16.22-.13.87-.55a15.2 15.2 0 0 1 3.8-1.5c1.32-.3 2.69-.42 4.05-.36 1.35.1 2.7.37 3.98.82 1.28.47 2.5 1.12 3.6 1.92l.81.65.2.16.18.18.37.36c.51.47.93 1.02 1.38 1.55l.59.86c.1.15.2.28.29.44l.25.46.25.45.13.23.1.24.42.97c.5 1.33.81 2.72.95 4.13.1 1.44.03 2.88-.22 4.3a16.78 16.78 0 0 1-1.42 4.13l-.53.97-.14.25-.15.22-.32.47c-.4.64-.92 1.17-1.39 1.77a15.39 15.39 0 0 0 3.17-3.28c.88-1.3 1.57-2.7 2.06-4.2.45-1.52.69-3.1.71-4.7a17.44 17.44 0 0 0-.72-4.76c-.5-1.55-1.21-3.02-2.12-4.37-.49-.64-.95-1.31-1.53-1.88l-.42-.45-.21-.21-.23-.2-.92-.8c-1.3-1-2.72-1.8-4.23-2.4-1.52-.55-3.12-.89-4.73-1-1.62-.07-3.25.09-4.83.46" fill="#B2C15D"/><path d="M16.52 21.78a14.52 14.52 0 0 0-1.8 3.71 14.54 14.54 0 0 0 3.09 13.98l.35.4.17.19.2.18.8.71c1.11.88 2.34 1.6 3.66 2.13 1.32.5 2.7.8 4.1.9 1.41.07 2.82-.08 4.19-.41 1.36-.38 2.67-.96 3.87-1.7a14.25 14.25 0 0 0 6.49-10.61c.13-1.41.07-2.83-.18-4.22a14.57 14.57 0 0 0-1.37-3.9 13.4 13.4 0 0 0-2.42-3.18c.33.58.72 1.1.99 1.71l.22.43.1.22.1.23.35.9c.41 1.22.67 2.48.77 3.76a15.6 15.6 0 0 1-.24 3.76c-.26 1.2-.67 2.38-1.22 3.48l-.45.8-.1.2-.14.18-.26.37-.26.37c-.08.13-.19.23-.28.35l-.58.68c-.42.43-.86.83-1.32 1.2l-.35.28c-.05.05-.1.1-.17.14l-.18.12-.74.48c-1.01.58-2.1 1.02-3.22 1.3a11.81 11.81 0 0 1-9.85-2.06 14.05 14.05 0 0 1-2.49-2.5c-.18-.25-.33-.5-.5-.75-.08-.13-.18-.25-.24-.38l-.22-.4-.24-.4-.1-.2-.1-.2-.35-.84c-.42-1.16-.7-2.37-.82-3.6-.1-1.26-.04-2.52.17-3.77.25-1.26.64-2.48 1.18-3.64l.46-.86.11-.22.14-.2.26-.4c.33-.58.78-1.05 1.18-1.59a13.4 13.4 0 0 0-2.76 2.87Z" fill="#B2C15D"/><path d="M27.6 31.56c.27 1.1.16 2.25-.32 3.28a8.58 8.58 0 0 0-.71 6.77l.44-.18a8.25 8.25 0 0 1 .5-6.5c.46-1.07.54-2.28.22-3.4a8.12 8.12 0 0 0-1.58-3.03c.7.9 1.19 1.94 1.45 3.05" fill="#B2C15D"/></svg>