<!-- by TradingView --><svg width="56" height="56" viewBox="0 0 56 56" xmlns="http://www.w3.org/2000/svg"><path fill="#F0F3FA" d="M0 0h56v56H0z"/><path d="m42.87 38.36-9.54-24.75-4 12.73 4.31 12.02h9.23Z" fill="#1A2DA6"/><path d="M23.49 12h9.64l-1.39 4.83-11.53 5.84L23.49 12Z" fill="#000D66"/><path d="m29.33 26.34-2.71 8.3 14.87-6.9L44 20l-14.67 6.34Z" fill="#0C63D6"/><path d="M42.87 38.36 24 43.5l.62-2.11 9.02-3.03h9.23Z" fill="#B5C1D1"/><path d="m17.33 31.87 11.39-5.33L23.33 44H13.6l3.74-12.13Z" fill="#000D66"/><path d="M14.72 24.23 12 32.53l17.23-7.95 2.51-7.75-17.02 7.4Z" fill="#0C63D6"/></svg>