<!-- by TradingView --><svg width="56" height="56" viewBox="0 0 56 56" xmlns="http://www.w3.org/2000/svg"><path fill="#F0F3FA" d="M0 0h56v56H0z"/><path d="m41.93 23 2.52 7.87h.1L47.07 23H49l-3.42 10h-2.17L40 23h1.93ZM39 23v10h-2V23h2ZM26 33V23h3.93c1.96 0 3.69 1.08 3.69 3.2 0 2.13-1.76 3.14-3.72 3.14h-2.8v-1.5h2.54c1.08 0 2.04-.44 2.04-1.64s-.95-1.69-2.05-1.69H28V33h-2Zm5.4-4.53L34 33h-2.12l-2.54-4.53h2.07ZM23.04 25.8c-.11-.97-1.11-1.31-1.96-1.31-.79 0-1.88.3-1.9 1.27 0 .65.6.98 1.14 1.16.21.07.43.13.64.18l.98.22c.39.09.77.2 1.13.35 1.07.42 1.93 1.24 1.93 2.45 0 2.11-2.17 2.88-3.95 2.88-1.93 0-3.96-.82-4.05-3h1.86c.09 1.11 1.2 1.5 2.17 1.5.85 0 1.96-.31 1.97-1.36 0-.5-.22-.85-.78-1.07-.28-.12-.6-.22-.98-.3l-1.19-.3c-1.33-.31-2.78-1.04-2.78-2.6 0-2 2.12-2.87 3.83-2.87 1.7 0 3.72.85 3.76 2.8h-1.82ZM14.05 26.24a2.41 2.41 0 0 0-2.38-1.66C9.77 24.58 9 26.27 9 28c0 1.76.77 3.43 2.7 3.43 1.12 0 2.52-.7 2.52-1.98l.42.06H12V28h4v.94C16 31.4 14.08 33 11.7 33 8.82 33 7 30.8 7 28c0-2.71 1.87-5 4.64-5 1.98 0 3.95 1.18 4.28 3.24h-1.87Z"/></svg>