<!-- by TradingView --><svg xmlns="http://www.w3.org/2000/svg" width="56" height="56"><path fill="url(#aqdkisdbu)" d="M0 0h56v56H0z"/><path fill-rule="evenodd" d="M27.6 12.9c.52 0 .94-.43.94-.95a.94.94 0 00-.93-.95.95.95 0 10-.48 1.76l-1.09 2.18a.76.76 0 00-.95.74c0 .41.34.76.75.76.3 0 .57-.18.69-.44l2.86.12c.04.6.53 1.08 1.13 1.08.6 0 1.1-.47 1.13-1.07l2.79-.06a.76.76 0 00.88.57l.97 2.43a.95.95 0 00.42 1.8.94.94 0 00.9-1.2l4.81-1.2c.1.3.38.5.7.5l.69 5.3a.92.92 0 00-.23.1l-2.33-2.98a.95.95 0 00-.61-1.66.94.94 0 00-.94.94.94.94 0 001.38.84l2.33 3a.95.95 0 00.66 1.62c.51 0 .93-.42.93-.94a.94.94 0 00-.98-.95l-.7-5.3a.76.76 0 00.56-.73.76.76 0 00-.75-.76.76.76 0 00-.75.81l-4.85 1.2a.95.95 0 00-.32-.34l1.31-2.72c.07.02.14.04.21.04.42 0 .76-.35.76-.77a.76.76 0 00-.76-.76.76.76 0 10-.4 1.4l-1.3 2.72a.92.92 0 00-.55-.03l-.96-2.44a.76.76 0 00-.35-1.44c-.41 0-.74.33-.76.74l-2.76.06c-.03-.27-.16-.5-.34-.69l1.8-2.44a.76.76 0 001.12-.66.76.76 0 00-.74-.76.77.77 0 10-.54 1.3l-1.8 2.43c-.18-.12-.4-.2-.63-.2-.57 0-1.05.44-1.12 1l-2.81-.11v-.12a.76.76 0 00-.36-.65l1.08-2.18c.1.04.2.05.3.05zm13.98 19.17v.16c0 .63.5 1.14 1.12 1.14.63 0 1.14-.51 1.14-1.14a1.13 1.13 0 10-2.2-.36l-1.75-.45v-.05a.76.76 0 00-.75-.76.76.76 0 00-.75.76c0 .31.18.58.44.7l-.87 2.96a.94.94 0 00-.99.48l-2.8-.79a1.4 1.4 0 00-.04-.8 7.42 7.42 0 001.42-3.49 19.93 19.93 0 003.66-2.4 5 5 0 001.11-1.3c.25-.47.35-.98.16-1.5-.2-.48-.62-.87-1.22-1.16-.31-.16-.7-.3-1.14-.43a1.32 1.32 0 00-1.28-1.03c-.72 0-1.31.6-1.31 1.33 0 .74.59 1.33 1.31 1.33.5 0 .92-.27 1.15-.67.34.1.62.21.85.33.49.24.69.48.75.66.07.16.06.37-.1.68-.17.3-.47.66-.9 1.05-.75.65-1.79 1.33-2.95 1.98 0-.26 0-.5-.03-.72a4.94 4.94 0 00-.3-1.3l.01-.13c0-.76-.6-1.38-1.36-1.38-.63 0-1.15.42-1.32 1-.12 0-.25.02-.39.04-.82.1-1.8.39-2.82.74-1.47.52-3.04 1.2-4.33 1.83a1.35 1.35 0 00-.94-.38c-.75 0-1.36.62-1.36 1.38 0 .77.6 1.39 1.36 1.39a1.37 1.37 0 001.36-1.53c1.27-.61 2.8-1.28 4.22-1.78a14.35 14.35 0 012.97-.74 1.37 1.37 0 001.92.63 5.22 5.22 0 01.04 1.47 38.87 38.87 0 01-13.9 4.32 8.39 8.39 0 01-1.06-1.49 5.64 5.64 0 01-.68-2.67c.57-.37 1.2-.74 1.87-1.1a47.66 47.66 0 018.1-3.34 1.36 1.36 0 002.48-.79c0-.76-.6-1.38-1.36-1.38-.71 0-1.3.54-1.36 1.24a48.58 48.58 0 00-8.3 3.42c-.47.26-.93.51-1.37.78.07-.55.2-1.1.38-1.66h.03c.8 0 1.46-.67 1.46-1.49 0-.35-.12-.68-.33-.94a9.32 9.32 0 013.34-3.13c.3.28.69.45 1.12.45.8 0 1.47-.6 1.6-1.37 1.85-.3 3.58.02 4.81.45l-.02.26c0 .91.73 1.65 1.63 1.65.9 0 1.62-.74 1.62-1.65 0-.9-.73-1.64-1.62-1.64-.47 0-.89.2-1.18.51-1.37-.49-3.29-.86-5.36-.53a1.62 1.62 0 00-3.07 1.03 10.27 10.27 0 00-3.67 3.46 1.48 1.48 0 00-1.79 1.65l-2.08.67a.76.76 0 00-.53-.5l.6-3.46h.04c.52 0 .94-.43.94-.95a.94.94 0 00-.94-.95.94.94 0 00-.93.95c0 .44.3.8.69.91L15.22 26c-.3 0-.57.2-.68.47l-2.3-.88.02-.27a1.131 1.131 0 10-2.26 0c0 .63.5 1.15 1.13 1.15.46 0 .86-.28 1.04-.68l2.32.89a.76.76 0 00.75.84c.42 0 .76-.34.76-.76v-.02l2.08-.66c.09.3.27.56.5.74a9.9 9.9 0 00-.5 2.63c-.55.38-1.04.77-1.46 1.15-.48.44-.87.9-1.13 1.37-.25.46-.38.97-.27 1.49.2.98 1.18 1.41 2.22 1.6.82.14 1.84.15 2.96.07.78.77 1.7 1.33 2.8 1.67.6.19 1.24.3 1.93.35.2.7.83 1.21 1.58 1.21.84 0 1.52-.63 1.63-1.44.63-.11 1.29-.27 1.98-.47.72-.2 1.36-.49 1.91-.82a1.37 1.37 0 001.88-.7l2.78.78a.94.94 0 00.9 1.2c.2 0 .39-.07.54-.17l1.7 2.15a.56.56 0 00-.08.13l-4.97-.65a.94.94 0 00-.94-.9.94.94 0 00-.87 1.28l-4.34 2.61a.75.75 0 00-.58-.27.76.76 0 00-.75.77c0 .42.34.76.75.76a.76.76 0 00.7-1.08l4.31-2.6c.05.08.11.15.18.21a1154.2 1154.2 0 00-1.23 2.36.76.76 0 00-.99.73c0 .42.35.76.76.76a.76.76 0 10.42-1.4 475.93 475.93 0 011.22-2.33.94.94 0 001.34-.68l4.95.64v.02c0 .3.24.56.55.56.3 0 .55-.25.55-.56a.55.55 0 00-.81-.5l-1.71-2.16a.95.95 0 00-.33-1.5l.87-2.96h.11c.33 0 .6-.2.71-.5l1.73.44zm-8.09 1.1a6.5 6.5 0 00.99-2.18 39.94 39.94 0 01-12.77 4c.53.4 1.11.7 1.77.9.5.15 1.06.26 1.66.3a1.64 1.64 0 113.06-.22c.58-.1 1.2-.25 1.86-.44a6.97 6.97 0 001.52-.63 1.37 1.37 0 011.92-1.73zm-13.9 1.05c-.25-.34-.48-.7-.7-1.1a6.34 6.34 0 01-.77-2.51c-.32.23-.61.47-.87.7-.43.4-.74.78-.93 1.12-.18.33-.22.6-.18.83.07.34.45.68 1.46.85a10 10 0 002 .1zm3.88 8.4c-.62 0-1.12-.5-1.14-1.12l-1.35-.05a.76.76 0 01-.73.58.76.76 0 01-.75-.76.751.751 0 011.5-.03l1.35.04c.03-.19.11-.37.23-.51l-3.52-3.18a.75.75 0 01-.75.16l-.77 1.74a1.15 1.15 0 01-.53 2.16c-.63 0-1.13-.51-1.13-1.14a1.14 1.14 0 011.46-1.1l.78-1.75a.76.76 0 01.43-1.4.774.774 0 01.65 1.17l3.52 3.18a1.14 1.14 0 011.88.86c0 .64-.5 1.15-1.13 1.15zm-5.34-28.19A.94.94 0 0117 13.5c0-.51.43-.94.94-.94a.947.947 0 01.39 1.81l1.44 3.85a.92.92 0 01.6.02l1.26-2.3a.76.76 0 01.41-1.41c.42 0 .76.34.76.76a.76.76 0 01-.98.73l-1.27 2.32a.95.95 0 01-.52 1.74.95.95 0 11-.45-1.78l-1.45-3.87zM12.1 35.96c.42 0 .76-.34.76-.77a.76.76 0 00-.76-.76.76.76 0 00-.75.76c0 .43.34.77.75.77zm1.51-16.83c.42 0 .76-.34.76-.76a.76.76 0 00-.76-.77.76.76 0 00-.75.77c0 .42.34.76.75.76z" fill="#fff"/><defs><linearGradient id="aqdkisdbu" x1="10.42" y1="9.71" x2="68.15" y2="76.02" gradientUnits="userSpaceOnUse"><stop stop-color="#1A1E21"/><stop offset="1" stop-color="#06060A"/></linearGradient></defs></svg>