<!-- by TradingView --><svg width="56" height="56" viewBox="0 0 56 56" xmlns="http://www.w3.org/2000/svg"><path fill="#F0F3FA" d="M0 0h56v56H0z"/><path d="M29.34 20.4a4.37 4.37 0 0 1 3.92.45c.48.3.85.73 1.25 1.13l5.86 5.94c.01.03.08.05.04.09-2.14 2.18-4.3 4.34-6.43 6.53a4.32 4.32 0 0 1-5.44.62c-.53-.32-.95-.8-1.38-1.24L21.3 28l2.48-2.52 3.92-3.99a4.32 4.32 0 0 1 1.63-1.07Zm.13 2.16c-.25.18-.45.41-.67.63l-4.72 4.8 5.07 5.15a2.41 2.41 0 0 0 3.4.02l1.3-1.3 3.8-3.88-5.11-5.19a2.4 2.4 0 0 0-3.06-.23Z" fill="url(#a)"/><path d="M18.06 18.13a5.28 5.28 0 0 1 5.32.24c-.44.47-.9.92-1.35 1.38H22a3.5 3.5 0 0 0-3.74.5l-.59.57L10.62 28l7.42 7.52a3.43 3.43 0 0 0 3.98.7l1.36 1.39a5.3 5.3 0 0 1-5.97-.17c-.44-.31-.8-.71-1.18-1.1L8 28v-.01l8.67-8.8c.4-.41.87-.78 1.39-1.05Z" fill="url(#b)"/><path d="m27.61 25.15 1.31-1.34 4.11 4.16-.02.04-4.09 4.15-1.31-1.33 2.8-2.84-2.8-2.84Z" fill="url(#c)"/><path d="m24.2 21.7 1.32-1.34 1.28 1.3v.01L25.48 23l-1.28-1.3Zm0 12.58 1.29-1.3 1.31 1.33-1.28 1.3-1.31-1.33Z" fill="url(#d)"/><path d="M30.92 14h.81c1.36.09 2.7.57 3.79 1.42.5.38.92.85 1.37 1.3L48 27.98 36.53 39.62a6.8 6.8 0 0 1-4.82 2.34c-.08 0-.14.03-.2.04h-.37c-.06 0-.12-.03-.2-.03a6.86 6.86 0 0 1-4.31-1.83c-.4-.38-.77-.78-1.15-1.16l-10.84-11L25.48 17c.39-.4.77-.8 1.17-1.18A6.85 6.85 0 0 1 30.92 14Zm-2.58 2.85c-.46.33-.83.76-1.23 1.16L17.27 28l9.95 10.1c.37.36.71.74 1.13 1.04a5.01 5.01 0 0 0 6.18-.19c.27-.21.5-.47.73-.7l10.11-10.25-.96-.99-8.94-9.06c-.4-.4-.77-.82-1.24-1.14a5.03 5.03 0 0 0-5.9.05Z" fill="url(#e)"/><defs><linearGradient id="a" x1="21.31" y1="27.99" x2="40.42" y2="27.99" gradientUnits="userSpaceOnUse"><stop stop-color="#264A86"/><stop offset="1" stop-color="#269ED6"/></linearGradient><linearGradient id="b" x1="8" y1="27.99" x2="23.38" y2="27.99" gradientUnits="userSpaceOnUse"><stop stop-color="#2A3588"/><stop offset=".32" stop-color="#262968"/><stop offset="1" stop-color="#269ED5"/></linearGradient><linearGradient id="c" x1="27.61" y1="27.73" x2="32.87" y2="27.73" gradientUnits="userSpaceOnUse"><stop stop-color="#2B4296"/><stop offset="1" stop-color="#26A9E0"/></linearGradient><linearGradient id="d" x1="23.61" y1="24.21" x2="26.8" y2="24.21" gradientUnits="userSpaceOnUse"><stop stop-color="#2A489B"/><stop offset="1" stop-color="#278DCC"/></linearGradient><linearGradient id="e" x1="16.41" y1="28" x2="48" y2="28" gradientUnits="userSpaceOnUse"><stop stop-color="#8AC445"/><stop offset="1" stop-color="#0C703E"/></linearGradient></defs></svg>