<!-- by TradingView --><svg width="56" height="56" viewBox="0 0 56 56" xmlns="http://www.w3.org/2000/svg"><path fill="#F0F3FA" d="M0 0h56v56H0z"/><path d="m25.72 18.18-5.19 13.06-2.4 6.04c-.23.59-1 .72-1.65.72H9.74c-1.64 0-2.07-.63-1.5-2.03l7.19-18.14c.27-.67.84-.82 1.58-.82h7.46c.73 0 1.15.38 1.25 1.17ZM40.6 18.23l-5.17 13c-.8 2-1.6 4-2.37 5.98-.25.62-.9.79-1.63.79h-7.18c-.82 0-1.3-.39-1.46-1.14l5.19-13.12 2.24-5.67c.33-.83.76-1.08 1.67-1.07 1.63.02 4.02.02 7.19 0 .45 0 .8.1 1.05.28.3.23.46.55.47.95Z" fill="#2768B2"/><path d="M27.98 23.74 22.8 36.86l-2.27-5.62 5.2-13.06 2.25 5.56ZM40.6 18.23c.98 2.2 1.87 4.38 2.66 6.52.04.09.06.23.07.41-.6-.2-1.02-.03-1.23.5-1.5 3.75-2.98 7.49-4.44 11.22l-2.23-5.65 5.17-13Z" fill="#93B3D9"/><path d="M43.33 25.16c.1.1.19.24.25.4 2 5 3.45 8.65 4.37 10.99.05.14.06.28.03.43-.18.9-.92 1-1.82 1.01h-7.22c-.61 0-1.04-.38-1.28-1.11 1.46-3.73 2.94-7.47 4.44-11.21.21-.54.62-.7 1.23-.5Z" fill="#2768B2"/></svg>