<!-- by TradingView --><svg width="56" height="56" viewBox="0 0 56 56" xmlns="http://www.w3.org/2000/svg"><path fill="url(#a)" d="M0 0h56v56H0z"/><path d="M12.7 22.07a5.69 5.69 0 0 1 3.84.82 3.56 3.56 0 0 1 .36.23l.09-1a.02.02 0 0 1 .02-.02h1.97l.02.02v10.23c0 .66-.07 1.3-.2 1.93-.22.96-.6 1.74-1.18 2.34-.5.51-1.12.88-1.89 1.1a8.11 8.11 0 0 1-2.2.27l-.03-1.94v-.01h.01l.01-.01c.59 0 1.11-.07 1.56-.21a2.38 2.38 0 0 0 1.63-1.68c.1-.31.15-.68.18-1.09a15.13 15.13 0 0 0-.01-1.1 5.47 5.47 0 0 1-3.8 1.1 5.4 5.4 0 0 1-4.95-4.38 5.52 5.52 0 0 1 2.35-5.77c.67-.43 1.4-.71 2.22-.83ZM22.93 17s.02 0 .02.02v15.96l-.02.02h-1.97l-.01-.02V17.02l.01-.02h1.97Zm7.47 5a5.61 5.61 0 0 1 3.94 1.52 5.57 5.57 0 0 1 1.07 6.47A5.37 5.37 0 0 1 30.6 33a5.38 5.38 0 0 1-4.92-2.84 5.61 5.61 0 0 1 .85-6.5A5.37 5.37 0 0 1 30.4 22Zm10.62.2a5.59 5.59 0 0 1 3.47.16 5.47 5.47 0 0 1 3.47 4.48 5.57 5.57 0 0 1-2.48 5.31 5.6 5.6 0 0 1-7.2-1.09 5.43 5.43 0 0 1-1.28-3.68 5.52 5.52 0 0 1 1.45-3.63 5.35 5.35 0 0 1 2.57-1.54ZM13.5 24c-1.01 0-1.85.35-2.52 1.04A3.4 3.4 0 0 0 10 27.5c0 .97.33 1.8.98 2.47A3.37 3.37 0 0 0 13.5 31a3.4 3.4 0 0 0 3.5-3.5c0-.97-.33-1.8-.98-2.46A3.37 3.37 0 0 0 13.5 24Zm17 0c-1.01 0-1.86.35-2.52 1.04A3.4 3.4 0 0 0 27 27.5c0 .97.33 1.8.98 2.47A3.37 3.37 0 0 0 30.5 31c1.01 0 1.85-.35 2.52-1.04.65-.67.98-1.49.98-2.46a3.4 3.4 0 0 0-3.5-3.5Zm12 0a3.4 3.4 0 0 0-3.5 3.5 3.41 3.41 0 0 0 3.5 3.5c1.01 0 1.85-.35 2.52-1.04.65-.67.98-1.49.98-2.46s-.33-1.8-.98-2.47A3.37 3.37 0 0 0 42.5 24Z" fill="#fff"/><defs><linearGradient id="a" x1="28" y1="0" x2="28" y2="61.21" gradientUnits="userSpaceOnUse"><stop offset=".71" stop-color="#171A1E"/><stop offset=".96" stop-color="#F3C114"/></linearGradient></defs></svg>