<!-- by TradingView --><svg width="56" height="56" viewBox="0 0 56 56" xmlns="http://www.w3.org/2000/svg"><path fill="#F0F3FA" d="M0 0h56v56H0z"/><path d="M8 24.2c0-3.42 2.78-6.2 6.22-6.2h13.56A6.21 6.21 0 0 1 34 24.2V28h-4v-3.84c0-1.2-.96-2.16-2.14-2.16H14.14c-1.18 0-2.14.97-2.14 2.16v4.68c0 1.2.96 2.16 2.14 2.16h4.83c.29 1.23.95 3.22 1.89 4h-6.64A6.21 6.21 0 0 1 8 28.8v-4.6Z" fill="#150A84"/><path d="M48 31.8c0 3.42-2.78 6.2-6.22 6.2H28.22A6.21 6.21 0 0 1 22 31.8V28h4v3.84c0 1.2.96 2.16 2.14 2.16h13.72c1.18 0 2.14-.97 2.14-2.16v-4.68c0-1.2-.96-2.16-2.14-2.16h-4.83c-.29-1.23-.95-3.22-1.89-4h6.64A6.21 6.21 0 0 1 48 27.2v4.6Z" fill="#150A84"/></svg>