<!-- by TradingView --><svg width="56" height="56" viewBox="0 0 56 56" xmlns="http://www.w3.org/2000/svg"><path fill="#F0F3FA" d="M0 0h56v56H0z"/><path d="M51.11 24.34c.02 0 .03.02.03.03v.04l-.34.8-.03.02h-.04c-.62-.23-1.7-.37-2.31-.1-.32.14-.5.6-.2.89.16.14.41.26.64.3.52.13 1.14.23 1.62.43.68.28 1.03.75 1.05 1.42.04 1.16-.85 1.68-1.83 1.8a4.87 4.87 0 0 1-2.7-.44v-.07l.3-.87a.07.07 0 0 1 .03-.04.06.06 0 0 1 .05 0c.62.32 1.42.46 2.2.45.27 0 .66-.18.82-.41.32-.44-.13-.91-.54-1.03-.9-.26-2.6-.38-2.74-1.59-.12-1 .31-1.62 1.3-1.85.9-.22 1.84-.16 2.7.22ZM6.06 29h2.89c.03 0 .05.02.05.05v.89a.07.07 0 0 1-.02.04l-.01.02H5.05c-.01 0-.02 0-.03-.02a.06.06 0 0 1-.02-.04v-5.88c0-.02 0-.03.02-.04a.05.05 0 0 1 .03-.02h.9c.01 0 .03 0 .04.02l.01.04v4.87a.07.07 0 0 0 .02.04l.02.02.02.01ZM11.96 24h-.92c-.02 0-.04.02-.04.05v5.9c0 .03.02.05.04.05h.92c.02 0 .04-.02.04-.05v-5.9c0-.03-.02-.05-.04-.05ZM17.05 25.88l-.01-.01h-.02l-.01.01v4.06l-.02.04a.05.05 0 0 1-.04.02h-.9c-.01 0-.02 0-.03-.02a.06.06 0 0 1-.02-.04v-5.87c0-.02 0-.04.02-.05a.06.06 0 0 1 .04-.02h.91c.03 0 .05 0 .07.02.02 0 .03.02.05.04l2.85 4.03.02.01h.02l.01-.01V24.06a.06.06 0 0 1 .02-.04.05.05 0 0 1 .04-.02h.9a.05.05 0 0 1 .03.02l.02.02v5.89a.07.07 0 0 1-.02.05.06.06 0 0 1-.04.02h-.91c-.03 0-.05 0-.07-.02a.15.15 0 0 1-.05-.04l-2.86-4.06ZM25.82 27.57l-.81.9-.01.02v1.47l-.01.03-.02.01h-.94l-.02-.01-.01-.03v-5.93l.01-.02h.98a.04.04 0 0 1 .01.03v2.78l.02.02h.02l.02-.01L27.49 24a.03.03 0 0 1 .03-.01h1.31v.02l.01.03v.02l-2.22 2.6-.01.03v.02L29 29.94l.01.02v.02l-.02.01-.01.01h-1.43l-.01-.02-1.66-2.41-.01-.01a.03.03 0 0 0-.04 0ZM35.6 26.47v.84l-.02.04a.05.05 0 0 1-.04.02h-2.49c-.01 0-.02 0-.03.02a.06.06 0 0 0-.02.04v1.51a.06.06 0 0 0 .02.04.05.05 0 0 0 .03.02h2.9c.01 0 .03 0 .04.02l.01.04v.88a.06.06 0 0 1-.01.04.05.05 0 0 1-.04.02h-3.92l-.01-.02a.06.06 0 0 1-.02-.04v-5.88c0-.02 0-.03.02-.04a.05.05 0 0 1 .03-.02h3.9c.01 0 .03 0 .04.02l.01.04v.89l-.01.04a.05.05 0 0 1-.04.01h-2.9l-.04.02a.06.06 0 0 0-.01.04v1.3l.01.04.04.01h2.5l.03.02.01.04ZM40 29.96V24.01h.03c1.25-.01 2.13 0 2.62.02.9.04 1.53.5 1.64 1.58.12 1.08-.25 1.8-1.1 2.16l-.02.01v.02a.06.06 0 0 0 0 .04l1.34 2.14V30h-1.19l-.02-.03-1.23-1.91a.14.14 0 0 0-.04-.05.12.12 0 0 0-.06-.01H41.03a.05.05 0 0 0-.03.03v1.92l-.01.04H40l-.01-.03Zm1-4.92v1.93l.01.03h1.35a.92.92 0 0 0 .91-.93v-.2c0-.5-.42-.87-.92-.87h-1.33l-.02.02v.02ZM4 32c1.34.2 2.49.34 3.46.38 3.3.17 6.42.12 9.35-.15 1.71-.15 4.55-.42 8.52-.8 1.17-.12 2.9-.24 5.17-.37 3.6-.2 7.04-.22 10.33-.08a46.88 46.88 0 0 1 11.16 1.8c-2.16-.4-4.34-.7-6.54-.91-3.84-.39-7.62-.56-11.33-.53-2.38.02-4.96.15-7.73.38l-10.68 1c-1.68.17-3.34.26-4.96.28a20.28 20.28 0 0 1-6.74-1Z" fill="#2A4878"/></svg>