<!-- by TradingView --><svg width="56" height="56" viewBox="0 0 56 56" xmlns="http://www.w3.org/2000/svg"><path fill="#F0F3FA" d="M0 0h56v56H0z"/><path d="M45.37 28c0 .63-.12 1.17-.36 1.62A2.5 2.5 0 0 1 42.68 31a2.55 2.55 0 0 1-2.33-1.39A3.45 3.45 0 0 1 40 28c0-.63.12-1.17.35-1.61A2.53 2.53 0 0 1 42.68 25a2.5 2.5 0 0 1 2.33 1.39c.24.44.36.98.36 1.61Zm-1.07 0c0-.44-.07-.82-.2-1.12-.14-.3-.33-.54-.57-.7a1.51 1.51 0 0 0-.85-.23c-.31 0-.6.08-.84.24-.24.15-.43.38-.57.69-.14.3-.2.68-.2 1.12 0 .44.06.82.2 1.12.14.3.33.54.57.7.25.15.53.23.84.23.32 0 .6-.08.85-.23.24-.16.43-.4.57-.7.13-.3.2-.68.2-1.12ZM39 25v6h-1v-6h1ZM33 31v-6h2.16c.45 0 .82.08 1.12.24.3.16.53.39.68.67.16.3.24.63.24 1 0 1.22-.9 2.09-2.05 2.09h-1.54v-1H35c.64 0 1.12-.4 1.12-1.08S35.65 26 35 26h-1l.05 5H33Zm2.98-2.72L37.41 31h-1.17l-1.4-2.72h1.14ZM31 25h1v3.86c0 1.39-1.22 2.14-2.5 2.14s-2.5-.75-2.5-2.14V25h1v3.77c0 .79.75 1.23 1.5 1.23s1.5-.44 1.5-1.23V25ZM21 26v-1h5v1h-2v5h-1v-5h-2ZM20 25v6h-.98l-2.87-4.09H16V31h-1v-6h.99l2.86 4.09H19V25h1ZM51 25v6h-.98l-2.87-4.09H47V31h-1v-6h.99l2.86 4.09H50V25h1ZM10 31v-6h4v1h-3v1.54h2.77v.91H11V30h3v1h-4ZM9 27H7.96a1.28 1.28 0 0 0-.86-.98 1.53 1.53 0 0 0-.49-.07 1.44 1.44 0 0 0-1.37.94c-.14.3-.2.67-.2 1.11 0 .45.06.82.2 1.13.13.3.32.53.56.69a1.6 1.6 0 0 0 1.3.16 1.3 1.3 0 0 0 .7-.54c.08-.14.13-.27.16-.44H9a2.3 2.3 0 0 1-2.4 2 2.46 2.46 0 0 1-2.26-1.39A3.56 3.56 0 0 1 4 28c0-.63.11-1.17.34-1.61.23-.45.54-.8.93-1.03a2.75 2.75 0 0 1 2.21-.22c.82.27 1.4 1 1.52 1.86Z"/></svg>