<!-- by TradingView --><svg width="56" height="56" viewBox="0 0 56 56" xmlns="http://www.w3.org/2000/svg"><path fill="#F0F3FA" d="M0 0h56v56H0z"/><path d="M28 20c4.76.04 9.25 1.94 13.42 5.38.08.07.1.15.08.25l-1.25 4.4c-.03.09-.07.1-.14.05a28.22 28.22 0 0 0-6.58-3.91c-.13-.05-.2 0-.2.14v6.71c0 .08.05.14.12.16.08.02.14 0 .18-.08l1.87-3.27c.17-.29.38-.33.65-.14l2.74 2c.32.24.4.54.25.9-2.12 5.01-5.28 9.12-9.89 12.34-.17.13-.25.08-.25-.13V25.44c0-.19-.1-.44-.29-.44h-1.34c-.24 0-.37.28-.37.52v18.97c0 .1-.04.18-.13.23a.24.24 0 0 1-.26 0c-4.02-2.43-7.17-6.43-9.78-12-.14-.3-.09-.56.16-.77l2.64-2.15c.18-.15.32-.12.44.08l2.07 3.63c.05.09.13.12.23.1.09-.03.14-.1.14-.2v-6.83c0-.3-.14-.4-.42-.27-1.98.9-3.97 2.2-5.97 3.93-.1.08-.16.06-.2-.05l-1.3-4.48a.27.27 0 0 1 .09-.3C18.72 21.87 23.14 19.96 28 20Zm.49-6.98c4.83.37 9.1 1.75 12.83 4.14.45.29.68.7.68 1.24v4.13c0 .23-.1.4-.3.5a.5.5 0 0 1-.57-.06 22.93 22.93 0 0 0-12.94-4.9h-.32c-4.87.25-9.2 1.82-13 4.7a.5.5 0 0 1-.58.06.52.52 0 0 1-.29-.5l.06-4.13c0-.54.24-.95.7-1.24A27.2 27.2 0 0 1 28.06 13l.43.02Z" fill="url(#a)"/><defs><linearGradient id="a" x1="17.75" y1="40.31" x2="46.34" y2="19.67" gradientUnits="userSpaceOnUse"><stop stop-color="#0878F5"/><stop offset="1" stop-color="#02EBDD"/></linearGradient></defs></svg>