<!-- by TradingView --><svg width="56" height="56" viewBox="0 0 56 56" xmlns="http://www.w3.org/2000/svg"><path fill="#2CBFCC" d="M0 0h56v56H0z"/><path d="M32.38 17.28C31.53 15.7 29.76 14.96 28 15c-2.79.07-5.03 1.99-5 4.87.01.88.26 1.7.75 2.46.36.55.94 1.2 1.77 1.97.94.87 2.35 2.22 4.23 4.04l2.68 2.59a8.2 8.2 0 0 1 2.13 3.19c.44 1.25.47 2.51.09 3.79a6.85 6.85 0 0 1-7.6 5.02c-3.4-.46-5.98-3.05-6.03-6.52a7.1 7.1 0 0 1 .46-2.66c.34-.88.83-1.63 1.46-2.27.7-.69 1.36-1.3 1.97-1.8.43-.37.85-.32 1.24.13l.03.03c.34.43.31.85-.1 1.28-.4.42-.98 1-1.73 1.7a4.85 4.85 0 0 0-1.27 1.96 3.8 3.8 0 0 0-.1 2.32c.64 2.3 2.5 3.96 5.02 3.9 2.36-.06 4.47-1.3 4.94-3.71.21-1.06.08-2.07-.4-3.02a8.83 8.83 0 0 0-1.92-2.4c-2.8-2.6-5.24-4.96-7.31-7.04A8.28 8.28 0 0 1 21.4 22a5.62 5.62 0 0 1-.28-3.3c.23-1.08.71-2.12 1.43-3.11a6.1 6.1 0 0 1 2.97-2.2 7.2 7.2 0 0 1 3.75-.27 6.51 6.51 0 0 1 5.3 4.62 6.12 6.12 0 0 1-1.18 6.38c-.6.7-1.33 1.4-2.17 2.12-.48.4-.94.38-1.4-.05l-.04-.04c-.42-.47-.4-.9.08-1.28 1.47-1.22 2.43-2.33 2.87-3.34.58-1.33.46-2.75-.36-4.26Zm11.43 7.5a4.91 4.91 0 0 0-8.36 1.26 4.94 4.94 0 0 0 1.41 5.85c.95.74 2.12 1.11 3.5 1.11a5.2 5.2 0 0 0 4.24-3.07c.35-.83.47-1.69.36-2.57-.13-.95-.51-1.8-1.15-2.58ZM43 28a3 3 0 1 1-6 0 3 3 0 0 1 6 0Zm-22 0c0 1.38-.49 2.56-1.46 3.54A4.82 4.82 0 0 1 16 33a4.82 4.82 0 0 1-3.54-1.46A4.82 4.82 0 0 1 11 28c0-1.38.49-2.56 1.46-3.54A4.82 4.82 0 0 1 16 23c1.38 0 2.56.49 3.54 1.46A4.82 4.82 0 0 1 21 28Zm-5 3a3 3 0 1 0 0-6 3 3 0 0 0 0 6Z" fill="#fff"/></svg>