<!-- by TradingView --><svg width="56" height="56" viewBox="0 0 56 56" xmlns="http://www.w3.org/2000/svg"><path fill="#F0F3FA" d="M0 0h56v56H0z"/><path d="M27.93 15c.34 3.15 2.74 3.28 2.74 5.47 0 1.75-1.55 2.5-2.33 2.67.41-.14.89-.62.89-1.58 0-.95-.2-1.16-.68-1.98a5.45 5.45 0 0 1-.62-1.64c-.04.27-.23.98-.61 1.64-.48.82-.69 1.03-.69 1.98 0 .96.48 1.44.9 1.58-.78-.16-2.33-.92-2.33-2.67 0-2.19 2.39-2.32 2.73-5.47Z" fill="#F1B318"/><path fill="#015FB5" d="M25 24h6v1h-6zM22 34h12v1H22zM27 31.38c0 .9-.72 1.62-1.6 1.62H4v-1h22v-6h1v5.38ZM29 31.38c0 .9.72 1.62 1.6 1.62H52v-1H30v-6h-1v5.38Z"/><path d="M48.62 29.93v.32c0 .25.01.36.12.39.03.02.02.12-.01.13-.1.02-.25.04-.41.1-.2.05-.7.13-1.03.13-.4 0-.73-.04-1.14-.2A1.82 1.82 0 0 1 45 29.05c0-.72.33-1.36 1.02-1.74.4-.22.87-.31 1.36-.31.65 0 .97.14 1.15.14.02.17.03.58.09.93-.03.06-.18.07-.22.01-.2-.54-.56-.81-1.1-.81-.92 0-1.37.76-1.37 1.67 0 .83.29 1.32.66 1.57.28.19.58.22.8.22.33 0 .4-.06.4-.44v-.36c0-.31-.03-.35-.31-.39l-.26-.03c-.06-.04-.06-.17 0-.2h1.75c.04.03.04.16 0 .2l-.14.02c-.17.04-.2.09-.2.4Z" fill="#015FB5"/><path d="M42 30.1v-2.17c0-.6-.01-.66-.26-.7l-.17-.02c-.06-.03-.06-.18.02-.21h1.66c.73 0 1.75.2 1.75 1.11 0 .53-.4.75-.68.89-.06.03-.06.06-.03.13.4.8.65 1.25.93 1.5.16.12.32.15.4.16.06.03.06.12.03.16-.1.04-.29.05-.47.05-.56 0-.9-.2-1.17-.63-.2-.31-.33-.6-.47-.92-.07-.17-.17-.21-.32-.21-.2 0-.22 0-.22.13v.73c0 .55.04.6.3.64l.17.03c.04.03.04.18 0 .21-.59-.02-1.35-.02-1.94 0-.05-.03-.05-.18 0-.2l.16-.04c.27-.04.31-.09.31-.64Zm1-2.52v1.19c0 .2.02.23.37.23.5 0 .63-.4.63-.84 0-.54-.27-.88-.74-.88-.25 0-.25.01-.26.3ZM37.5 28.5v2.36c-.03.07-.19.14-.32.14 0 0-.18-.3-.44-.64l-1.26-1.7c-.32-.42-.5-.66-.6-.75-.03.06-.03.16-.03.38v1.14c0 .48.02 1 .08 1.15.05.12.18.16.32.19l.15.02c.05.05.04.17 0 .21h-1.34c-.04-.04-.05-.16 0-.2l.1-.02c.14-.04.24-.08.3-.2.05-.16.07-.67.07-1.15v-1.5c0-.32 0-.42-.04-.5-.04-.1-.12-.16-.31-.2l-.16-.02c-.03-.05-.03-.2.03-.21h1.21c.06.27.41.71.9 1.35l.46.58c.25.3.4.52.53.65.02-.06.02-.16.02-.26v-.82c0-.48-.02-.92-.08-1.08-.05-.12-.17-.16-.32-.19l-.15-.02c-.04-.05-.03-.17 0-.21h1.35c.03.04.04.16 0 .2l-.1.02c-.14.04-.24.08-.3.2-.05.16-.08.6-.08 1.08ZM24.38 29.7v.42c0 .56.04.6.31.64l.25.03c.04.04.04.17 0 .21H23c-.05-.04-.05-.17 0-.21l.2-.03c.28-.04.32-.08.32-.64v-.3c0-.3-.01-.4-.17-.72l-.72-1.48c-.12-.24-.18-.33-.39-.37l-.2-.04c-.06-.05-.05-.2.02-.21h1.74c.06.02.07.16.01.21l-.2.05c-.11.02-.15.05-.15.05 0 .05.03.14.16.42l.28.65.28.58c.18-.29.35-.64.51-.95.23-.42.32-.62.32-.7 0-.03-.06-.05-.2-.08l-.15-.02c-.05-.03-.05-.18 0-.21h1.28c.07.02.07.17.03.21l-.16.03c-.11.02-.23.06-.3.14-.08.12-.24.33-.53.86l-.38.68c-.16.28-.22.43-.22.78ZM50.38 29.7v.42c0 .56.04.6.31.64l.25.03c.04.04.04.17 0 .21H49c-.05-.04-.05-.17 0-.21l.2-.03c.28-.04.32-.08.32-.64v-.3c0-.3-.01-.4-.17-.72l-.72-1.48c-.12-.24-.18-.33-.39-.37l-.2-.04c-.06-.05-.05-.2.02-.21h1.74c.06.02.07.16.01.21l-.2.05c-.11.02-.15.05-.15.05 0 .05.03.14.16.42l.28.65.28.58c.18-.29.35-.64.51-.95.23-.42.32-.62.32-.7 0-.03-.06-.05-.2-.08l-.15-.02c-.05-.03-.05-.18 0-.21h1.28c.07.02.07.17.03.21l-.16.03c-.11.02-.23.06-.3.14-.08.12-.24.33-.53.86l-.38.68c-.16.28-.22.43-.22.78ZM18.03 30.8l.13-.02c.33-.06.45-.23.64-.5.16-.23.44-.67.68-1.06a.44.44 0 0 0 .08-.18c0-.03-.02-.09-.09-.2-.18-.29-.53-.89-.79-1.29-.13-.2-.24-.28-.49-.32l-.1-.02c-.04-.05-.04-.17.01-.21h1.7c.06.03.06.16.02.21l-.12.02c-.09.03-.18.05-.18.1s.02.1.08.23l.49.83.55-.91c.05-.11.06-.15.06-.18 0-.02-.04-.04-.11-.06l-.18-.03c-.04-.04-.04-.18.02-.21h1.27c.06.03.06.16.02.21l-.17.02a.47.47 0 0 0-.32.15 10.54 10.54 0 0 0-.93 1.3 135.47 135.47 0 0 0 .96 1.66c.2.31.33.39.54.43l.17.02c.04.04.04.17-.01.21h-1.8c-.04-.02-.06-.18-.01-.21l.15-.02c.14-.02.2-.05.2-.08 0-.05-.02-.1-.16-.36-.08-.16-.48-.83-.56-.95-.22.35-.46.77-.65 1.15a.4.4 0 0 0-.05.16c0 .04.07.06.18.08l.14.02c.05.04.05.19-.01.21h-1.34c-.05-.03-.07-.16-.02-.2ZM17 27.9v2.2c0 .57.04.61.33.66l.18.03c.05.04.04.17 0 .21h-2.02c-.05-.04-.05-.17 0-.21l.18-.03c.3-.05.33-.09.33-.65V27.9c0-.57-.04-.61-.33-.66l-.18-.03c-.05-.04-.05-.17 0-.21h2.02c.05.04.05.17 0 .21l-.18.03c-.3.05-.33.09-.33.66Z" fill="#015FB5"/><path d="M14 27.88v2.1c0 .29.02.48.09.58.07.1.16.15.54.15.48 0 .62-.02.93-.72.04-.06.16-.04.2.04-.02.3-.15.8-.22.97h-2.99c-.05-.04-.06-.17-.02-.21l.2-.03c.24-.04.27-.08.27-.64v-2.24c0-.56-.03-.6-.27-.65l-.15-.02c-.05-.04-.05-.17.01-.21h1.81c.04.04.04.17 0 .21l-.13.02c-.24.05-.27.1-.27.65ZM10 27.53v1.05c0 .17 0 .18.14.18h.36c.27 0 .33-.04.38-.33l.03-.15c.03-.05.16-.05.19 0a12.08 12.08 0 0 0 0 1.28c-.03.05-.16.06-.2 0l-.02-.15c-.05-.28-.11-.33-.38-.33h-.36c-.13 0-.14 0-.14.18v.72c0 .28.02.47.08.57.07.1.17.16.54.16.45 0 .63-.02.91-.7.04-.07.17-.04.2.03-.03.31-.15.8-.22.96H8.49c-.04-.04-.04-.18 0-.21l.25-.04c.23-.04.26-.08.26-.63v-2.24c0-.55-.03-.6-.26-.64l-.13-.03c-.05-.04-.04-.17 0-.21h2.8l.07.93c-.02.07-.14.08-.2.02a1.5 1.5 0 0 0-.2-.47c-.09-.11-.24-.19-.5-.19h-.41c-.17 0-.17.02-.17.24ZM32 27.53v1.05c0 .17 0 .18.14.18h.36c.27 0 .33-.04.38-.33l.03-.15c.03-.05.16-.05.19 0a12.08 12.08 0 0 0 0 1.28c-.03.05-.16.06-.2 0l-.02-.15c-.05-.28-.11-.33-.38-.33h-.36c-.13 0-.14 0-.14.18v.72c0 .28.02.47.08.57.07.1.17.16.54.16.45 0 .63-.02.91-.7.04-.07.17-.04.2.03-.03.31-.15.8-.22.96h-3.02c-.04-.04-.04-.18 0-.21l.25-.04c.23-.04.26-.08.26-.63v-2.24c0-.55-.03-.6-.26-.64l-.13-.03c-.05-.04-.04-.17 0-.21h2.8l.07.93c-.02.07-.14.08-.2.02a1.5 1.5 0 0 0-.2-.47c-.09-.11-.24-.19-.5-.19h-.41c-.17 0-.17.02-.17.24ZM40 27.53v1.05c0 .17 0 .18.14.18h.36c.27 0 .33-.04.38-.33l.03-.15c.03-.05.16-.05.19 0a12.08 12.08 0 0 0 0 1.28c-.03.05-.16.06-.2 0l-.02-.15c-.05-.28-.11-.33-.38-.33h-.36c-.13 0-.14 0-.14.18v.72c0 .28.02.47.08.57.07.1.17.16.54.16.45 0 .63-.02.91-.7.04-.07.17-.04.2.03-.03.31-.15.8-.22.96h-3.02c-.04-.04-.04-.18 0-.21l.25-.04c.23-.04.26-.08.26-.63v-2.24c0-.55-.03-.6-.26-.64l-.13-.03c-.05-.04-.04-.17 0-.21h2.8l.07.93c-.02.07-.14.08-.2.02a1.5 1.5 0 0 0-.2-.47c-.09-.11-.24-.19-.5-.19h-.41c-.17 0-.17.02-.17.24Z" fill="#015FB5"/><path d="M5.01 30.11 5 27.94c0-.57-.01-.69-.26-.72l-.1-.01c-.06-.03-.06-.2 0-.21h1.69c1.13 0 2.17.46 2.17 1.94 0 1.5-.96 2.06-2.15 2.06H4.56c-.04-.04-.04-.19 0-.22l.17-.03c.25-.04.28-.09.28-.64Zm.99-2.4v2.18c0 .33.01.55.11.67s.26.18.46.18c.95 0 .93-.93.93-1.74 0-1.08-.18-1.72-1.18-1.72-.14 0-.25.03-.28.07-.03.05-.04.17-.04.35Z" fill="#015FB5"/></svg>