<!-- by TradingView --><svg width="56" height="56" viewBox="0 0 56 56" xmlns="http://www.w3.org/2000/svg"><path fill="#F0F3FA" d="M0 0h56v56H0z"/><path fill="#385DAB" d="M24 30h2v14h-2z"/><path d="m24 17 19.27 3.51-.29 1.64L26 19v11h-2V17Z" fill="#11284B"/><path d="m18 28 25 4.24-.28 1.64L20 30v11h-2V28Z" fill="#11284B"/><path d="m30 24 14.5 2.44-.29 1.65L32 26.14v16.81h-2V24Z" fill="#385DAB"/><path d="M16.57 40.59a17 17 0 1 1 25.61-21.96l-2.76-.35a15 15 0 0 0-22.85 19.44v2.87Z" fill="#385DAB"/><path d="M45 28a17 17 0 0 1-27 13.75v-2.57A15 15 0 0 0 40.75 20.1l2.52.42C44.37 22.78 45 25.32 45 28Z" fill="#11284B"/></svg>