<!-- by TradingView --><svg width="56" height="56" viewBox="0 0 56 56" xmlns="http://www.w3.org/2000/svg"><path fill="#072B27" d="M0 0h56v56H0z"/><path d="M50.62 29c-.32 0-.6-.06-.85-.2-.24-.12-.43-.3-.56-.52-.14-.23-.21-.5-.21-.78a1.43 1.43 0 0 1 .73-1.3c.23-.13.5-.2.78-.2s.54.06.76.2c.23.11.4.29.54.52a1.54 1.54 0 0 1 .18.84v.06h-2.67v-.3h2.45l-.16.12a1.09 1.09 0 0 0-.54-.96c-.16-.1-.35-.14-.56-.14-.22 0-.4.05-.57.14a1 1 0 0 0-.4.4c-.09.16-.14.36-.14.57v.06c0 .23.06.43.16.6.1.17.25.3.43.4.19.09.4.14.64.14.19 0 .36-.04.52-.1.16-.06.3-.16.42-.29l.24.26c-.14.15-.31.27-.52.36-.2.08-.43.12-.67.12Z" fill="#fff"/><path d="M47.92 29a1.4 1.4 0 0 1-1.24-.72 1.62 1.62 0 0 1-.18-.78c0-.3.06-.56.18-.78a1.36 1.36 0 0 1 1.24-.72c.23 0 .45.05.63.15.2.1.34.24.45.43l-.28.2a.9.9 0 0 0-.35-.33 1 1 0 0 0-.45-.1.99.99 0 0 0-.9.54c-.1.17-.14.38-.14.6 0 .24.04.44.13.61.1.17.22.3.38.4.15.1.33.15.53.15a1 1 0 0 0 .45-.11.9.9 0 0 0 .35-.32l.28.2c-.1.19-.26.33-.45.43-.18.1-.4.15-.63.15ZM44.66 26c.27 0 .5.05.7.14.2.1.35.23.47.42.11.19.17.43.17.71V29h-.44v-1.69c0-.31-.09-.55-.26-.7a1 1 0 0 0-.72-.25c-.23 0-.43.05-.6.13-.18.09-.3.2-.4.37-.1.16-.14.35-.14.58V29H43v-3h.42v.84l-.07-.15c.1-.21.27-.38.5-.5.23-.13.5-.19.81-.19ZM41.12 29c-.32 0-.6-.06-.85-.2-.24-.12-.43-.3-.56-.52-.14-.23-.21-.5-.21-.78a1.43 1.43 0 0 1 .73-1.3c.23-.13.5-.2.78-.2s.54.06.76.2c.23.11.4.29.54.52a1.54 1.54 0 0 1 .18.84v.06h-2.67v-.3h2.45l-.16.12a1.09 1.09 0 0 0-.54-.96c-.16-.1-.35-.14-.56-.14-.22 0-.4.05-.57.14a1 1 0 0 0-.4.4c-.09.16-.14.36-.14.57v.06c0 .23.06.43.16.6.1.17.25.3.43.4.19.09.4.14.64.14.19 0 .36-.04.52-.1.16-.06.3-.16.42-.29l.24.26c-.14.15-.31.27-.52.36-.2.08-.43.12-.67.12ZM37.54 30c-.27 0-.52-.04-.77-.12a1.52 1.52 0 0 1-.6-.32l.2-.3a1.9 1.9 0 0 0 1.15.4c.38 0 .65-.1.82-.26.18-.17.27-.44.27-.8v-.71l.05-.5-.04-.49V26H39v2.56c0 .5-.12.86-.37 1.09-.25.23-.61.35-1.1.35Zm-.07-1.2c-.28 0-.53-.06-.75-.18-.23-.12-.4-.28-.53-.5a1.4 1.4 0 0 1-.19-.73 1.34 1.34 0 0 1 .72-1.22c.22-.11.47-.17.75-.17.26 0 .49.05.7.16.2.1.37.26.5.47.11.21.17.46.17.76s-.06.56-.18.77c-.12.2-.29.36-.5.47-.2.11-.43.17-.7.17Zm.04-.35c.21 0 .4-.04.57-.13.16-.09.3-.21.4-.37.09-.16.14-.35.14-.56a1 1 0 0 0-.54-.92c-.17-.08-.36-.13-.57-.13-.22 0-.4.05-.58.14a1 1 0 0 0-.4.36c-.08.16-.13.35-.13.55 0 .21.05.4.14.56.1.16.23.28.4.37.16.09.35.13.57.13ZM35.02 29l.01-3h.39l-.01 3H35Zm.2-3.4a.28.28 0 0 1-.29-.28c0-.07.03-.13.08-.18a.28.28 0 0 1 .2-.08c.09 0 .15.02.2.07.06.05.09.11.09.19s-.03.14-.08.2a.27.27 0 0 1-.2.07ZM33.61 29v-4H34v4h-.39ZM32.61 29v-4H33v4h-.39ZM30.62 29c-.32 0-.6-.06-.85-.2-.24-.12-.43-.3-.56-.52-.14-.23-.21-.5-.21-.78a1.43 1.43 0 0 1 .73-1.3c.23-.13.5-.2.78-.2s.54.06.76.2c.23.11.4.29.54.52a1.54 1.54 0 0 1 .18.84v.06h-2.67v-.3h2.45l-.16.12a1.09 1.09 0 0 0-.54-.96c-.16-.1-.35-.14-.56-.14-.22 0-.4.05-.57.14a1 1 0 0 0-.4.4c-.09.16-.14.36-.14.57v.06c0 .23.06.43.16.6.1.17.25.3.43.4.19.09.4.14.64.14.19 0 .36-.04.52-.1.16-.06.3-.16.42-.29l.24.26c-.14.15-.31.27-.52.36-.2.08-.43.12-.67.12ZM28.38 29c-.27 0-.48-.08-.63-.25-.15-.16-.23-.4-.23-.7V25h.4v3.03c0 .19.04.33.13.44.09.1.21.15.38.15a.6.6 0 0 0 .43-.16l.14.31a.71.71 0 0 1-.28.17c-.11.04-.22.06-.34.06ZM27 26v-.37h1.81V26H27ZM25.38 26c.22 0 .42.05.58.14.17.1.3.23.4.42.1.19.14.43.14.71V29h-.37v-1.69c0-.31-.07-.55-.21-.7a.75.75 0 0 0-.6-.25c-.2 0-.36.05-.5.13a.84.84 0 0 0-.34.37c-.08.16-.11.35-.11.58V29H24v-3h.35v.84l-.06-.15c.1-.21.23-.38.42-.5.19-.13.41-.19.67-.19ZM22.6 29v-4h.4v4h-.4ZM19.02 26a.87.87 0 0 1 .85.56c.09.19.13.43.13.71V29h-.33v-1.69c0-.31-.06-.55-.18-.7a.6.6 0 0 0-.51-.25.73.73 0 0 0-.44.13.81.81 0 0 0-.28.37c-.06.16-.1.35-.1.58V29h-.32v-1.69c0-.31-.06-.55-.19-.7a.61.61 0 0 0-.51-.25c-.16 0-.3.05-.43.13a.8.8 0 0 0-.29.37c-.06.16-.1.35-.1.58V29H16v-3h.31v.83l-.05-.14c.08-.21.2-.38.36-.5a.95.95 0 0 1 .58-.19c.24 0 .44.07.6.22.17.14.28.36.33.65l-.13-.06c.07-.24.2-.44.37-.58.18-.15.4-.23.65-.23ZM13.5 29a1.46 1.46 0 0 1-1.5-1.5c0-.3.07-.56.2-.78.13-.23.3-.4.53-.53.22-.13.48-.19.77-.19.29 0 .55.06.77.2.23.12.4.3.53.52.13.22.2.48.2.78 0 .29-.07.55-.2.78-.12.22-.3.4-.53.53-.23.13-.48.19-.77.19Zm0-.35c.21 0 .4-.05.56-.14.17-.1.3-.24.39-.4.1-.18.15-.38.15-.61 0-.23-.05-.44-.15-.6a1 1 0 0 0-.39-.4c-.16-.1-.35-.15-.56-.15a1.08 1.08 0 0 0-.95.54c-.1.17-.15.38-.15.6 0 .24.05.44.15.61.1.17.23.3.4.4.16.1.34.15.55.15ZM11.02 29v-3h.39v3H11Zm.2-3.46a.28.28 0 0 1-.2-.08.26.26 0 0 1-.09-.2c0-.07.03-.13.08-.18a.28.28 0 0 1 .2-.08c.09 0 .15.02.2.07.06.05.09.12.09.19 0 .08-.03.14-.08.2a.27.27 0 0 1-.2.08ZM8 29l1.12-1.65v.2L8.04 26h.4l.88 1.29-.16-.01.88-1.28h.39l-1.07 1.57v-.22L10.5 29h-.4l-.93-1.37.14.02-.9 1.35H8ZM4 29l1.8-4h.4L8 29h-.44l-1.65-3.75h.17L4.43 29H4Zm.7-1.07.13-.34h2.28l.13.34H4.7Z" fill="#fff"/></svg>