<!-- by TradingView --><svg width="56" height="56" viewBox="0 0 56 56" xmlns="http://www.w3.org/2000/svg"><path fill="#F0F3FA" d="M0 0h56v56H0z"/><path d="M16.53 14c1.66.38 2.49 1.44 2.47 3.18v4.74l-.03.04a.08.08 0 0 0 .06.04h.04c4.18-1.6 8.43 0 10.7 3.82 1.4 2.36 1.2 4.35 1.23 7.36a3.3 3.3 0 0 0 4.37 3.09 3.37 3.37 0 0 0 2.2-2.35 9 9 0 0 0 .1-2.03 5.55 5.55 0 0 1-2.73-3.7 5.6 5.6 0 0 1 10.78-2.92c.82 2.48-.21 5.04-2.45 6.52a.14.14 0 0 0-.06.13c.25 3.96-1.44 7.37-4.95 9.13a8.94 8.94 0 0 1-7.34.29c-3.3-1.36-5.76-4.42-5.92-7.98v-3.17c0-2.26-1.78-3.9-3.89-3.02-.9.38-1.54 1-1.92 1.9A6.5 6.5 0 0 0 19 31.2v7.07c0 .95-.1 1.59-.22 1.92-.65 1.73-3.2 2.38-4.69 1.2A2.9 2.9 0 0 1 13 38.99V18.07c0-1.21.1-2.03.3-2.48.37-.83 1.08-1.36 2.14-1.59h1.1Zm26.53 13.41a.7.7 0 0 0 0-.98l-2.23-2.22a.7.7 0 0 0-.98 0l-2.22 2.23a.7.7 0 0 0 0 .98l2.23 2.22a.7.7 0 0 0 .98 0l2.22-2.23Z" fill="#094"/></svg>