<!-- by TradingView --><svg width="56" height="56" viewBox="0 0 56 56" xmlns="http://www.w3.org/2000/svg"><path fill="url(#a)" d="M0 0h56v56H0z"/><path fill-rule="evenodd" d="M42.66 38.22a4.46 4.46 0 0 0-.98-4.9A4.44 4.44 0 0 0 38.5 32a4.46 4.46 0 0 0-4.16 2.78 4.46 4.46 0 0 0 .98 4.9A4.44 4.44 0 0 0 38.5 41a4.46 4.46 0 0 0 4.16-2.78Zm-6.54.73.28-.8v-.03c.02-.05.04-.12.06-.12h1.82c.02 0 .04.08.05.13v.03l.24.79c0 .03.02.04.05.04l1.21.01c.06 0 .08-.03.06-.08l-1.75-4.88c-.01-.02-.03-.04-.06-.04h-1.4c-.03 0-.05.01-.06.04l-1.75 4.88c-.02.05 0 .08.05.08l1.15-.01c.02 0 .04-.01.05-.04Zm1.86-2.03a23.87 23.87 0 0 1-.54-1.73c-.04-.25-.1-.25-.16 0-.17.58-.36 1.15-.56 1.71-.02.06 0 .1.07.1h1.12c.07 0 .09-.03.07-.08Zm2.96-2.9h-.88c-.03 0-.06.02-.06.06v4.85c0 .04.03.07.06.07h.88c.03 0 .06-.03.06-.07v-4.85c0-.04-.03-.07-.06-.07Z" fill="url(#b)"/><path d="m36.13 21.66.62.96c.02.02.03.03.05 0a27.54 27.54 0 0 0 6.37-7.42c.62-1.09.9-1.93.82-2.52-.11-.84-1.02-.9-2.72-.18l-.02.01c-.1.05-.1.07.01.09.97.1 1.2.75.69 1.95-.2.45-.43.88-.7 1.3a28.25 28.25 0 0 1-5.11 5.71c-.03.03-.03.06-.01.1Zm-21.39 8.68c.27 1.5.78 2.9 1.53 4.2.03.04.02.08-.03.11-.43.31-.9.56-1.39.75-.69.27-1.11.25-1.26-.05-.09-.17-.06-.4.08-.71.1-.22.24-.44.4-.65a.22.22 0 0 0 .04-.25l-.4-.8c-.05-.1-.1-.1-.18-.03-.53.6-.93 1.28-1.18 2.03a2.4 2.4 0 0 0-.1 1.5c.16.5.58.72 1.25.65a6.4 6.4 0 0 0 2.27-.73c1.87-.96 3.8-2.13 5.8-3.5a80.56 80.56 0 0 0 10.48-8.63c1.89-1.84 3.8-3.73 5.72-5.67.6-.6 1.17-1.24 1.68-1.9.72-.9 1.06-1.68 1.04-2.31-.03-.97-.85-1.12-2.45-.44a15.01 15.01 0 0 0-2.9 1.63c-.03.03-.03.05 0 .08l.62.42c.05.04.1.04.16.01.28-.14.56-.26.85-.38.34-.14.64-.2.92-.18.39.01.54.2.44.59-.13.48-.58 1.1-1.34 1.85a912.4 912.4 0 0 1-6.22 6.02 73.72 73.72 0 0 1-12.5 9.68h-.05c-.89-1.62-1.4-3.32-1.52-5.08a10.67 10.67 0 0 1 2.74-7.83 11 11 0 0 1 7.42-3.62c1.23-.08 2.46.07 3.7.45 1.21.37 2.35.94 3.44 1.7.06.06.13.05.19 0l1.28-1.28c.03-.03.03-.06 0-.1a12.8 12.8 0 0 0-16.74.7 12.8 12.8 0 0 0-3.82 7.33c-.24 1.49-.23 2.97.03 4.44Zm5.93.42c.02.04 0 .07-.03.1l-1.56.98c-.05.03-.1.02-.12-.04a9.57 9.57 0 0 1-.81-4.48c.04-.9.23-1.78.58-2.66a9.41 9.41 0 0 1 5.75-5.47 9.27 9.27 0 0 1 8.05 1.3c.08.06.09.12.01.2l-1.28 1.22c-.05.05-.1.05-.15.02a7.23 7.23 0 0 0-4.4-1.11c-1.56.1-2.94.68-4.14 1.72a6.87 6.87 0 0 0-2.26 3.79 7.6 7.6 0 0 0 .36 4.43Zm12.72-6.5.31.64c.04.07.1.1.17.1h1.79c.06 0 .12-.04.15-.1a.18.18 0 0 0 .01-.18l-.86-1.83a.17.17 0 0 0-.13-.1.18.18 0 0 0-.16.05l-1.24 1.2c-.07.07-.08.14-.04.22Zm4.34.44 1.52-.97a.12.12 0 0 1 .17.06c.36 1.07.58 2.17.67 3.3.09 1.17.02 2.28-.2 3.32-.01.06-.04.08-.1.06a6.32 6.32 0 0 0-1.75-.21c-.08 0-.1-.04-.1-.11a11.14 11.14 0 0 0-.26-5.32c-.01-.06 0-.1.05-.13Zm-3.94 5.68c.07 0 .09.03.06.09a7.48 7.48 0 0 1-2 2.87 7 7 0 0 1-9.27.04h-.06l-1.58 1.05a.1.1 0 0 0-.05.08c0 .03.01.06.04.09a9.1 9.1 0 0 0 11.28 1.04.13.13 0 0 0 .06-.1 6.15 6.15 0 0 1 3.56-4.79.16.16 0 0 0 .1-.1c.19-.77.32-1.83.39-2.59 0-.05-.02-.06-.08-.06h-6.33c-.05 0-.09 0-.13.03l-2.36 2.27c-.07.05-.06.08.03.08h6.34Zm-13.55 5.98v.02a18.23 18.23 0 0 1-4.64 2.48c-.94.34-1.79.54-2.54.6-1.2.1-1.89-.23-2.04-.98a2.97 2.97 0 0 1 .2-1.38c.02-.07.04-.08.07-.01l.2.41c.47.94 1.74.98 3.8.12a22.85 22.85 0 0 0 3.92-2.17c.03-.02.07-.02.1.01l.93.9Zm1.32.97-.06.01-1.35 1.28c-.04.05-.04.1.01.13 1.9 1.33 4.01 2.07 6.36 2.22 2.34.14 4.53-.33 6.57-1.4.05-.03.06-.06.03-.1a5.26 5.26 0 0 1-.69-1.66c-.01-.07-.05-.09-.12-.05-1.66.89-3.47 1.3-5.42 1.21a10.68 10.68 0 0 1-5.33-1.64Z" fill="url(#c)"/><defs><linearGradient id="a" x1="10.42" y1="9.71" x2="68.15" y2="76.02" gradientUnits="userSpaceOnUse"><stop stop-color="#1A1E21"/><stop offset="1" stop-color="#06060A"/></linearGradient><linearGradient id="b" x1="32.49" y1="36.32" x2="41.3" y2="33.94" gradientUnits="userSpaceOnUse"><stop stop-color="#66ECF5"/><stop offset="1" stop-color="#46B6FE"/></linearGradient><linearGradient id="c" x1="11" y1="37.19" x2="40.96" y2="14.14" gradientUnits="userSpaceOnUse"><stop stop-color="#3FBAF5"/><stop offset=".35" stop-color="#4DD3F6"/><stop offset=".6" stop-color="#66F0FB"/><stop offset=".8" stop-color="#3ABAFE"/><stop offset="1" stop-color="#71FBFA"/></linearGradient></defs></svg>