<!-- by TradingView --><svg width="56" height="56" viewBox="0 0 56 56" xmlns="http://www.w3.org/2000/svg"><path fill="#F0F3FA" d="M0 0h56v56H0z"/><path d="m27 37-4.85-11.4L21 19h8l7 18h-9Z" fill="url(#a)"/><path d="M18.5 39H8c1.36-.98 4.43-4.24 5.83-9.41A37.1 37.1 0 0 1 18.5 19H29c-1.75.59-3.5 4.7-5.25 10.59A24.6 24.6 0 0 1 18.5 39Z" fill="url(#b)"/><path d="M37.5 37H27c1.36-.98 4.43-4.24 5.83-9.41A37.1 37.1 0 0 1 37.5 17H48c-1.75.59-3.5 4.7-5.25 10.59A24.6 24.6 0 0 1 37.5 37Z" fill="url(#c)"/><path d="m34 31 2.49-6h1.01l2.5 6h-1.08l-2.14-5.4h.41L35.06 31H34Zm1.22-1 .28-1h2.99l.27 1h-3.54Z" fill="url(#d)"/><path d="M17 31v-6h2.4c1.32 0 2.5.72 2.5 2.13 0 .88-.41 1.53-1.16 1.87-.37.17-.81.25-1.33.25h-1.8l.39-.5V31h-1Zm3.83 0-1.48-2.18h1.16L22 31h-1.17ZM18 28.87l-.4-.54h1.76c.96 0 1.44-.45 1.44-1.2 0-.76-.48-1.13-1.44-1.13H17.6l.4-.6v3.47Z" fill="url(#e)"/><defs><linearGradient id="a" x1="22.73" y1="28" x2="33.12" y2="28.55" gradientUnits="userSpaceOnUse"><stop stop-color="#649FBC"/><stop offset=".44" stop-color="#B0DFF7"/><stop offset="1" stop-color="#65ADCB"/></linearGradient><linearGradient id="b" x1="18.5" y1="19" x2="18.5" y2="39" gradientUnits="userSpaceOnUse"><stop stop-color="#747285"/><stop offset=".44" stop-color="#EAE9E9"/><stop offset="1" stop-color="#7B7987"/></linearGradient><linearGradient id="c" x1="37.5" y1="17" x2="37.5" y2="37" gradientUnits="userSpaceOnUse"><stop stop-color="#747285"/><stop offset=".44" stop-color="#EAE9E9"/><stop offset="1" stop-color="#7B7987"/></linearGradient><linearGradient id="d" x1="37" y1="25" x2="37" y2="31" gradientUnits="userSpaceOnUse"><stop stop-color="#6C181C"/><stop offset=".48" stop-color="#C9202D"/><stop offset="1" stop-color="#440D0E"/></linearGradient><linearGradient id="e" x1="19.5" y1="25" x2="19.5" y2="31" gradientUnits="userSpaceOnUse"><stop stop-color="#561619"/><stop offset=".49" stop-color="#CD202E"/><stop offset="1" stop-color="#420D0E"/></linearGradient></defs></svg>