<!-- by TradingView --><svg width="56" height="56" viewBox="0 0 56 56" xmlns="http://www.w3.org/2000/svg"><path fill="#F0F3FA" d="M0 0h56v56H0z"/><path d="M28 10h.08l.05.02c.04.04.15.1.32.21a4012.8 4012.8 0 0 0 15.23 8.68c.27.16.32.43.32.75v17.3c0 .34-.19.47-.5.65-7.75 4.23-12.78 6.99-15.1 8.27a.84.84 0 0 1-.4.12.85.85 0 0 1-.4-.12c-2.32-1.28-7.35-4.04-15.1-8.27-.31-.17-.5-.3-.5-.66V19.66c0-.32.05-.6.32-.75a3997.06 3997.06 0 0 0 15.23-8.68 11.17 11.17 0 0 0 .37-.23H28Z" fill="#002D72"/><path d="M30.02 17v.01h.01v.01c-.29.52-.55 1.21-.77 1.64-.14.27-.29.34-.59.34h-2.46c-.22 0-.21.25-.21.44v4.24c0 .18.02.32.2.32h7.78c.9.04 1.9.09 2.61.7.67.6.97 1.38.9 2.35-.05.5-.1.9-.14 1.15a3.56 3.56 0 0 1-1.31 2.34l.01.01c.59.09 1.02.13 1.46.49.67.55.89 1.17.96 2.05.06.64.04 1.28-.03 1.93a5.05 5.05 0 0 1-.8 1.91c-.36.5-.82.76-1.4 1.1-1.2.68-2.61.94-3.99.97a4.84 4.84 0 0 1-2.93-.76l-.02.01c-.42.4-.92.73-1.49.75h-2.39l-.01-.01a.03.03 0 0 1 0-.03c.1-.18.26-.6.45-1 .05-.11.14-.18.26-.22.06-.02.16 0 .31.05.16.05.33.06.52.04.14-.01.3-.11.44-.2.36-.23.6-.63.61-1.08V27.3c0-.28.1-.57.3-.88a49.1 49.1 0 0 0 .9-1.4l-.02-.02h-2.66c-.35 0-.52 0-.52.38v3.36c0 .7-.22 1.33-.6 1.91a2.71 2.71 0 0 1-1.54 1.22c-.16.04-.4.06-.71.08l-2.55.1c-.37 0-.71-.06-1.02-.19-.2-.08-.48-.28-.86-.59-.7-.57-1.11-.9-1.24-1.03-.3-.28-.37-.4-.2-.79l1-2.22c.08-.17.22-.24.4-.23h3.3V27.07c-.26.46-.54.95-.83 1.5-.07.1-.22.16-.36.17-.4.02-.76.04-1.07.37-.74.77-.16 1.4.65 1.74.9.38 2.68.21 3.34-.6.2-.27.27-.54.29-.9v-3.97c0-.1 0-.19-.02-.24a.18.18 0 0 0-.07-.08c-.03-.02-.06-.06-.1-.06h-2.07c-.02 0-.09.02-.09-.03v-.01c.13-.2.27-.37.43-.7.1-.23.3-.27.55-.26H24v-2c-.03-.58.18-1.03.55-1.59.26-.39.31-.66.67-1.27a.05.05 0 0 0 0-.05c0-.01 0-.02-.02-.02l-.17-.07h-5.96c-.24 0-.23-.01-.33.02-.96.3-.45 1.05.1 1.4a6.94 6.94 0 0 0 1.57.78v.02l-.55 1.16c-.07.15-.26.17-.42.14-.59-.11-1.18-.19-1.7-.4a2.2 2.2 0 0 1-1.34-2.71c.25-.9.75-1.59 1.51-2.07.45-.29.85-.34 1.44-.34h10.67Z" fill="#fff"/><path d="M30.1 30.75c-.1-.1-.1-.48-.1-.63 0-2.25-.02-3.58.03-4.43 0-.23.32-.25.52-.25l2.18.01c.7 0 1.3.02 1.88.23 1.25.45 1.1 2.13.85 3.12-.3 1.15-1.2 1.78-2.39 2-.18.02-.47.04-.88.04h-1.9a.27.27 0 0 1-.19-.09ZM30 32.54c0-.18-.03-.44.2-.49l.17-.01c1.05-.06 2.09-.05 3.1.05.63.05 1.22.16 1.77.42 1.03.49 1.45 1.5 1.42 2.6a3.31 3.31 0 0 1-.38 1.66c-.63 1.04-2 1.14-3.07 1.08a6.78 6.78 0 0 1-3.04-.96c-.13-.08-.16-.18-.16-.33v-4.02Z" fill="#002D72"/></svg>