<!-- by TradingView --><svg width="56" height="56" viewBox="0 0 56 56" xmlns="http://www.w3.org/2000/svg"><path fill="#131927" d="M0 0h56v56H0z"/><path d="M37.5 22a3.5 3.5 0 1 0 0-7 3.5 3.5 0 0 0 0 7Z" fill="url(#a)"/><path d="M40.99 35.15a5.87 5.87 0 0 1-1.35 4.13c-.47.55-1.02.97-1.65 1.27a4.67 4.67 0 0 1-4.52-.27 5.02 5.02 0 0 1-1.79-1.92 8 8 0 0 1-.78-2.33l-.24-1.46a11.79 11.79 0 0 0-1.46-4.15 15.83 15.83 0 0 0-2.73-3.4 10.13 10.13 0 0 0-4.69-2.76c-.28-.07-.72-.13-1.3-.2a10.8 10.8 0 0 1-1.4-.22c-.5-.14-.94-.34-1.3-.63a4.68 4.68 0 0 1-.28-7.1 3.66 3.66 0 0 1 3.9-.88 4.43 4.43 0 0 1 2.92 3.36c.08.29.17.75.29 1.39a9.99 9.99 0 0 0 .7 2.49A14.83 14.83 0 0 0 29 27.58a8.9 8.9 0 0 0 6.23 2.47c.77.01 1.3.04 1.6.1 1.4.24 2.5 1 3.28 2.27.53.84.82 1.75.89 2.72Z" fill="url(#b)"/><path d="M20 41a5 5 0 1 0 0-10 5 5 0 0 0 0 10Z" fill="url(#c)"/><defs><linearGradient id="a" x1="41" y1="16.34" x2="34.77" y2="21.1" gradientUnits="userSpaceOnUse"><stop stop-color="#96FA98"/><stop offset="1" stop-color="#7FF7D1"/></linearGradient><linearGradient id="b" x1="34.16" y1="27.35" x2="26.59" y2="33.31" gradientUnits="userSpaceOnUse"><stop stop-color="#80F7D1"/><stop offset="1" stop-color="#55C6FF"/></linearGradient><linearGradient id="c" x1="23.65" y1="32.44" x2="17.49" y2="39.84" gradientUnits="userSpaceOnUse"><stop stop-color="#4A92F6"/><stop offset="1" stop-color="#2D53FE"/></linearGradient></defs></svg>