<!-- by TradingView --><svg width="56" height="56" viewBox="0 0 56 56" xmlns="http://www.w3.org/2000/svg"><path fill="#F0F3FA" d="M0 0h56v56H0z"/><path d="M14.95 23.37c.3-.5.1-.32-.39.34.22-.23.01 1.07-.29 2.38-.28 1.21-.63 2.42-.78 2.4.19.56-.43.56-.78 0 .11.02-.11-1.2-.38-2.4-.3-1.3-.65-2.61-.71-2.38.06-.66-.14-.83-.4-.34.08-.5-1.43-.5-1.37 0-.24-.5-.44-.32-.38.34-.06-.23-.4 1.07-.7 2.37-.27 1.21-.49 2.42-.38 2.4-.33.56-.95.56-.76 0-.15.02-.5-1.19-.8-2.4-.3-1.3-.52-2.6-.3-2.37-.47-.66-.68-.83-.4-.34-.45-.5-1.9-.5-1.3 0-.92-.5-1.12-.17-.38.6-.32-.2.17 1.99.8 4.18.6 2.19 1.36 4.4 1.56 4.17-.34.64-.14.8.37.31-.35.5 1.32.5 1.5 0 0 .5.2.32.4-.34-.08.24.2-.98.48-2.19.26-1.11.54-2.22.56-2.22.07-.52.69-.52.77 0 .02 0 .3 1.1.55 2.22.28 1.21.55 2.43.47 2.19.2.66.4.83.39.34.19.5 1.84.5 1.5 0 .51.5.71.33.37-.31.2.22.95-1.97 1.58-4.17.63-2.2 1.12-4.39.8-4.17.74-.78.54-1.1-.37-.61.3-.25.1-.37-.22-.37s-.77.13-1 .37M18.66 23.37c-.54-.5-.75-.25-.4.46-.17-.22-.26 1.98-.26 4.17 0 2.2.09 4.4.26 4.17-.35.72-.14.95.4.46-.3.5 5.98.5 5.68 0 .54.5.75.26.4-.46.35.44.35-.58 0-.93.35.07.14-.17-.4-.46.3.3-3.7.3-3.61 0-.33.3-.53.06-.4-.46-.13.24-.13-.8 0-.94-.13-.14.07-.37.4-.47-.08.1 3.3.1 3.06 0 .49.1.7-.13.4-.46.15.02.22-.22.22-.46 0-.25-.07-.5-.21-.47.28-.32.08-.56-.4-.46.23-.1-3.15-.1-3.07 0-.33-.1-.53-.33-.4-.46-.13-.15-.13-1.16 0-.92-.13-.52.07-.75.4-.46-.08-.3 3.77-.3 3.48 0 .53-.3.73-.53.4-.46.33-.34.33-1.37 0-.93.33-.72.13-.95-.4-.46.14-.25-1.32-.37-2.78-.37-1.46 0-2.91.13-2.77.37M31.08 28.86c.38-.1.6.12.43.46.09-.03.13.27.13.57 0 .3-.04.59-.13.56.17.34-.05.57-.43.46.12.11-1.37.11-1.35 0-.93.11-1.49-.3-1.33-1.04-.16-.7.4-1.12 1.33-1-.03-.12 1.46-.12 1.35 0v-.01Zm0-3.8c.37-.1.59.14.44.47.08-.02.11.23.11.5 0 .25-.03.5-.11.48.15.33-.07.57-.43.46.1.1-1.39.1-1.35 0-.75.1-1.2-.3-1.06-.96-.14-.66.3-1.04 1.06-.94-.04-.1 1.45-.1 1.35 0Zm-1.47-1.7c-2.18-.48-3.55.51-3.18 2.32-.37.65.05 1.4 1.04 1.86-.17 0-.18.27-.02.33-1.17.38-1.72 1.28-1.32 2.2-.4 1.95 1.02 3.05 3.33 2.56-.05.5 4.16.5 3.8 0 .62.5.84.26.44-.46.2.22.3-1.98.3-4.17 0-2.2-.1-4.39-.3-4.17.4-.72.18-.95-.43-.46.17-.25-.75-.37-1.71-.37-.97 0-1.97.13-1.95.37M41.27 23.38c-.02-.5-.23-.27-.4.47.09-.24.13 1.12.13 2.48 0 1.28-.05 2.55-.13 2.52.17 1.48-.76 2.35-1.84 2.06-1.08.29-2.07-.58-1.9-2.06-.08.03-.13-1.24-.13-2.52 0-1.36.04-2.71.13-2.48-.17-.74-.38-.98-.4-.47-.22-.5-1.38-.5-1.03 0-.6-.5-.8-.27-.4.47-.2-.24-.3 1.12-.3 2.48 0 1.28.1 2.55.3 2.52-.4 2.82 1.21 4.57 3.72 4.06 2.5.5 4.08-1.24 3.69-4.06.19.03.28-1.24.29-2.52 0-1.36-.1-2.71-.3-2.48.4-.74.2-.98-.4-.47.18-.25-.08-.38-.4-.38-.33 0-.52.13-.63.38ZM50.18 23.37c.1-.5-.1-.36-.36.24.19-.47-1.41 2.91-1.45 3.05-.14.24-.56.24-.7 0a63.87 63.87 0 0 0-1.49-3.05c-.25-.6-.46-.73-.36-.24-.23-.5-1.48-.5-1.13 0-.73-.5-.93-.1-.36.69-.2-.22.46 1.27 1.16 2.76.69 1.43 1.41 2.86 1.47 2.78-.1.2-.06.39.04.23-.1.19-.1 2.78 0 2.34-.1.72.1.95.4.46-.05.5 1.32.5 1.25 0 .31.5.51.26.4-.46.11.44.11-2.22 0-2.4.11.13.15-.04.05-.23.06.08.77-1.34 1.43-2.75.7-1.47 1.34-2.95 1.14-2.73.57-.8.36-1.18-.34-.7.17-.24-.06-.36-.36-.36s-.68.13-.8.37" fill="#0060FF"/></svg>