<!-- by TradingView --><svg width="56" height="56" viewBox="0 0 56 56" xmlns="http://www.w3.org/2000/svg"><path fill="#F0F3FA" d="M0 0h56v56H0z"/><path fill-rule="evenodd" d="M27 18v11.12l2.5 3.13v5.72h4v-5.72l2.5-3.13V18h-4v11.65c0 .33-.2.6-.53.6-.34 0-.47-.27-.47-.6V18h-4Zm-10 1.06c0-.58.5-1.06 1.11-1.06h6.78c.61 0 1.11.48 1.11 1.06v17.88c0 .58-.5 1.06-1.11 1.06H18.1c-.61 0-1.11-.48-1.11-1.06V20h-2v18h-4V20H9v-1.99h8v1.05Zm4 1.56c0-.34.22-.62.5-.62s.5.28.5.62v14.76c0 .34-.22.62-.5.62s-.5-.28-.5-.62V20.62ZM38.11 18c-.61 0-1.11.48-1.11 1.06v17.88c0 .58.5 1.06 1.11 1.06h6.78c.61 0 1.11-.48 1.11-1.06V19.06c0-.58-.5-1.06-1.11-1.06H38.1Zm3.39 2c-.28 0-.5.28-.5.62v14.76c0 .34.22.62.5.62s.5-.28.5-.62V20.62c0-.34-.22-.62-.5-.62Z" fill="#1F5AA5"/></svg>