<!-- by TradingView --><svg width="56" height="56" viewBox="0 0 56 56" xmlns="http://www.w3.org/2000/svg"><path fill="#F0F3FA" d="M0 0h56v56H0z"/><path d="M44 20a4 4 0 0 1 4 4v12H12a4 4 0 0 1-4-4V20h36ZM9 29v.06h.08c.11 0 .2.03.29.1.05.06.1.12.1.19l.01.07v3.23a.35.35 0 0 1-.11.19.42.42 0 0 1-.29.1h-.07L9 33h1.53c.31 0 .58-.04.8-.13.22-.1.39-.22.5-.38a.97.97 0 0 0 .17-.56 1.04 1.04 0 0 0-.5-.9 1.4 1.4 0 0 0-.58-.2c.12-.04.23-.09.34-.16a.86.86 0 0 0 .36-.71.81.81 0 0 0-.16-.5 1 1 0 0 0-.47-.34c-.2-.08-.44-.12-.74-.12H9Zm5.48 1-.03.13a2.48 2.48 0 0 1-.12.31l-.02.06-.92 2.16c-.05.1-.1.18-.16.22a.34.34 0 0 1-.2.07H13V33h.85v-.05h-.03c-.06 0-.1-.02-.15-.08-.04-.05-.04-.12-.01-.21l.25-.65h1.12l.25.65c.02.1.02.16-.02.21-.04.05-.09.08-.14.08h-.03V33H16v-.05h-.04a.33.33 0 0 1-.18-.07.54.54 0 0 1-.17-.24L14.52 30h-.04Zm2.79 0 .01.18c.02.11.02.25.02.42v2.15c0 .05-.03.1-.06.13a.22.22 0 0 1-.17.07H17V33h.8v-.05h-.07a.23.23 0 0 1-.17-.07.24.24 0 0 1-.06-.13V30.65L19.7 33h.03v-.09a7.55 7.55 0 0 1-.03-.52v-2.14c0-.05.03-.1.06-.13.05-.05.1-.07.17-.07H20V30h-.8v.05h.07c.07 0 .12.02.17.07.03.03.05.08.06.13v2.09L17.3 30h-.03Zm5.34 0c-.33 0-.62.06-.86.18s-.43.3-.56.52c-.13.22-.19.49-.19.8 0 .3.06.58.2.8.12.22.31.4.55.51a2.03 2.03 0 0 0 1.4.12c.17-.05.33-.12.47-.22.13-.09.24-.2.33-.33l.05-.65h-.04c-.02.26-.09.47-.21.64a1.1 1.1 0 0 1-.49.37c-.19.07-.4.11-.65.11-.26 0-.48-.06-.67-.17a1.14 1.14 0 0 1-.44-.46 1.6 1.6 0 0 1-.15-.72c0-.28.05-.52.15-.72.1-.2.25-.36.44-.47.18-.11.4-.17.66-.17.3 0 .56.07.78.2.21.12.36.33.43.62h.04l-.1-.67a2.51 2.51 0 0 0-1.14-.3Zm3.89 0a1.54 1.54 0 0 0-1.06.42c-.14.13-.25.29-.32.47-.08.18-.12.39-.12.61 0 .22.04.43.12.61a1.45 1.45 0 0 0 1.38.89 1.44 1.44 0 0 0 1.39-.89c.07-.18.11-.39.11-.61 0-.22-.04-.43-.12-.6a1.4 1.4 0 0 0-.8-.79 1.53 1.53 0 0 0-.58-.11Zm2.5 0v.05h.07a.3.3 0 0 1 .2.07c.05.04.08.1.09.15v2.45a.28.28 0 0 1-.29.23H29V33h1.05v-.05h-.07a.28.28 0 0 1-.2-.08.28.28 0 0 1-.09-.14v-2.57h.58c.1 0 .2.02.28.05a.62.62 0 0 1 .35.32c.03.07.05.15.05.25a.78.78 0 0 1-.03.28.59.59 0 0 1-.2.3.58.58 0 0 1-.27.11 4.1 4.1 0 0 1-.58.02v.05c.1 0 .2.03.29.1a1.27 1.27 0 0 1 .32.36 14.15 14.15 0 0 1 .41.56l.2.2c.07.07.17.12.29.17.12.05.27.07.46.07H32v-.05a.63.63 0 0 1-.25-.04.82.82 0 0 1-.19-.14 6.18 6.18 0 0 1-.4-.44l-.17-.21-.07-.1a2 2 0 0 0-.2-.23.62.62 0 0 0-.2-.16.93.93 0 0 0 .41-.13.83.83 0 0 0 .29-.3c.07-.12.1-.25.1-.39a.78.78 0 0 0-.07-.34.7.7 0 0 0-.21-.26.93.93 0 0 0-.33-.16 1.54 1.54 0 0 0-.43-.05H29Zm4 0v.05h.06c.07 0 .13.03.17.07.04.04.06.09.08.14V32.73a.29.29 0 0 1-.08.14.22.22 0 0 1-.17.08H33V33h.9v-.05h-.06a.23.23 0 0 1-.18-.08.3.3 0 0 1-.07-.15v-2.57H34a.7.7 0 0 1 .5.18c.13.11.19.27.19.47a1.23 1.23 0 0 1-.03.28.8.8 0 0 1-.18.33.6.6 0 0 1-.23.16.92.92 0 0 1-.24.04c-.08 0-.14 0-.19-.02l-.07-.01v.05c.15.08.3.13.44.13a.8.8 0 0 0 .4-.1.8.8 0 0 0 .3-.32 1 1 0 0 0 .11-.48.83.83 0 0 0-.12-.46.76.76 0 0 0-.34-.3c-.15-.06-.33-.1-.53-.1H33Zm4-1v.06h.06c.08 0 .15.03.2.1.04.06.07.12.08.19l.01.07v3.23a.41.41 0 0 1-.09.19.25.25 0 0 1-.2.1H37V33h1v-.06h-.06a.26.26 0 0 1-.2-.1.42.42 0 0 1-.08-.19l-.01-.07v-3.23a.39.39 0 0 1 .09-.18c.05-.08.12-.11.2-.11H38V29h-1Zm2.27 1 .01.18c.02.11.02.25.02.42v2.15c0 .05-.03.1-.06.13a.22.22 0 0 1-.17.07H39V33h.8v-.05h-.07a.23.23 0 0 1-.17-.07.24.24 0 0 1-.06-.13V30.65L41.7 33h.03v-.09a7.55 7.55 0 0 1-.03-.52v-2.14c0-.05.03-.1.06-.13.05-.05.1-.07.17-.07H42V30h-.8v.05h.07c.07 0 .12.02.17.07.03.03.05.08.06.13v2.09L39.3 30h-.03Zm5.34 0c-.33 0-.62.06-.86.18s-.43.3-.56.52c-.13.22-.19.49-.19.8 0 .3.06.58.2.8.12.22.31.4.55.51a2.03 2.03 0 0 0 1.4.12c.17-.05.33-.12.47-.22.13-.09.24-.2.33-.33l.05-.65h-.04c-.02.26-.09.47-.21.64a1.1 1.1 0 0 1-.49.37c-.19.07-.4.11-.65.11-.26 0-.48-.06-.67-.17a1.14 1.14 0 0 1-.44-.46 1.6 1.6 0 0 1-.15-.72c0-.28.05-.52.15-.72.1-.2.25-.36.44-.47.18-.11.4-.17.66-.17.3 0 .56.07.78.2.21.12.36.33.43.62h.04l-.1-.67a2.51 2.51 0 0 0-1.14-.3Zm-18.11.14c.22 0 .42.06.6.18.17.11.31.27.42.47.1.2.15.44.15.71 0 .27-.05.5-.15.7-.1.21-.25.37-.43.48-.17.12-.37.18-.6.18-.2 0-.4-.06-.58-.18a1.2 1.2 0 0 1-.43-.47c-.1-.2-.15-.44-.15-.71 0-.27.05-.5.15-.7.1-.21.25-.37.43-.48.17-.12.37-.18.59-.18Zm-16.27-.96c.2 0 .37.04.5.1.14.06.24.15.3.27.08.13.11.27.11.44 0 .19-.03.34-.1.45a.71.71 0 0 1-.27.25c-.11.06-.22.1-.34.12l-.32.02v.06c.15 0 .3 0 .47.04.17.02.32.06.46.13a.85.85 0 0 1 .49.83c0 .19-.04.35-.12.49a.78.78 0 0 1-.35.31c-.15.07-.33.1-.55.1h-.62v-3.6h.34Zm4.75 2.68h-1.02l.52-1.34.5 1.34ZM9 28v.5h37V28H9Zm3.07-6-1.12 3.94-.92-3.5c0-.1 0-.2.04-.25.06-.08.13-.11.2-.11h.06V22H9v.07h.05c.09 0 .19.03.3.1.1.06.18.27.23.42h.03l1.32 4.4H11a2.52 2.52 0 0 1 .1-.64l.02-.12.9-3.16L13.26 27h.05a2.48 2.48 0 0 1 .1-.64l.03-.12.97-3.64h.02c.05-.15.12-.36.23-.42.11-.07.21-.1.3-.1H15V22h-1.18v.07h.05c.08 0 .15.03.2.1.04.05.05.16.05.27l-.82 3.35-1.18-3.8h-.05ZM15 23v.07h.06c.08 0 .15.03.2.1.05.05.08.11.1.18v3.29a.4.4 0 0 1-.1.19.25.25 0 0 1-.2.1H15V27h1v-.07h-.06a.27.27 0 0 1-.21-.1.4.4 0 0 1-.08-.19l-.01-.07v-3.22a.38.38 0 0 1 .09-.18c.06-.07.13-.1.2-.1H16V23h-1Zm2.36 0 .02.24c.02.15.03.34.03.55v2.82l-.01.06a.32.32 0 0 1-.08.17.3.3 0 0 1-.22.1H17V27h1.07v-.06h-.1a.3.3 0 0 1-.22-.1.33.33 0 0 1-.09-.23v-2.75L20.58 27h.05l-.01-.11a9.99 9.99 0 0 1-.04-.7v-2.8l.01-.06a.32.32 0 0 1 .08-.17.3.3 0 0 1 .22-.1h.1V23h-1.07v.06h.1a.3.3 0 0 1 .22.1c.05.05.07.1.09.17v2.79L17.42 23h-.05Zm5.78 0c-.43 0-.82.08-1.14.24-.32.16-.57.4-.74.69-.17.3-.26.65-.26 1.07 0 .41.09.77.26 1.06.17.3.42.53.74.7.32.15.7.24 1.14.24.26 0 .5-.03.73-.1.23-.06.44-.16.62-.28.18-.12.33-.27.44-.44l.07-.87h-.06c-.02.34-.11.63-.28.85-.16.22-.38.38-.64.49-.26.1-.55.15-.88.15a1.8 1.8 0 0 1-.89-.22 1.52 1.52 0 0 1-.58-.62c-.14-.28-.2-.6-.2-.96 0-.37.06-.7.2-.96.14-.27.33-.48.58-.63.25-.14.54-.22.89-.22.4 0 .74.09 1.03.26.29.17.48.45.58.84h.06l-.15-.9c-.2-.12-.43-.22-.7-.29-.28-.07-.55-.1-.82-.1ZM25 23v.07h.06c.07 0 .13.03.19.1.04.05.06.11.07.18l.01.08v3.21a.42.42 0 0 1-.08.19c-.06.07-.12.1-.2.1H25V27h.96v-.07h-.06c-.07 0-.14-.03-.19-.1a.4.4 0 0 1-.07-.19v-1.51h1.73v1.51a.42.42 0 0 1-.09.19c-.05.07-.1.1-.18.1h-.06V27H28v-.07h-.06c-.07 0-.14-.03-.19-.1a.43.43 0 0 1-.07-.19l-.01-.07v-3.22a.4.4 0 0 1 .08-.18c.05-.07.12-.1.2-.1H28V23h-.96v.07h.06c.07 0 .13.03.18.1.04.05.07.11.08.18v1.58h-1.73v-1.58a.37.37 0 0 1 .08-.18c.05-.07.12-.1.2-.1h.05V23H25Zm3.5 0v.07h.1c.1 0 .19.03.26.1a.6.6 0 0 1 .14.33v3c0 .1-.07.26-.14.33a.36.36 0 0 1-.27.1h-.09V27h2.64l.36-.95h-.07c-.06.14-.13.27-.21.38-.08.11-.2.2-.33.27-.13.06-.3.1-.52.1h-.99v-1.7H30.56c.05.02.1.04.13.09a.3.3 0 0 1 .07.19v.09h.07v-.94h-.07v.09c0 .08-.02.14-.07.2-.04.05-.1.08-.2.08h-1.1v-1.7h1.34l.07.01c.07.02.12.05.17.1.06.06.09.14.09.24v.1h.07V23H28.5Zm4.51 0a.92.92 0 0 0-.8.46.9.9 0 0 0-.13.47c0 .11.02.23.06.35a.8.8 0 0 0 .21.34l1.13.98c.08.07.13.15.16.23a.7.7 0 0 1 .05.28c0 .2-.07.37-.2.5a.82.82 0 0 1-.56.2.85.85 0 0 1-.43-.1.7.7 0 0 1-.29-.3.96.96 0 0 1-.07-.5h-.07a2.23 2.23 0 0 0-.07.57c0 .09 0 .16.02.22.07.07.16.13.27.17a2.2 2.2 0 0 0 .7.13.97.97 0 0 0 .88-.51c.09-.16.13-.33.13-.52 0-.12-.03-.24-.07-.36a.72.72 0 0 0-.2-.32l-1.14-.99a.88.88 0 0 1-.13-.17.77.77 0 0 1-.07-.16.92.92 0 0 1-.02-.17c0-.17.06-.32.2-.43.13-.12.3-.18.48-.18.23 0 .4.05.5.15.1.1.16.24.16.41h.06v-.69h-.2l-.07-.02A1.83 1.83 0 0 0 33 23Zm1.49 0v.65h.06v-.11c0-.1.02-.17.07-.23a.26.26 0 0 1 .14-.1l.06-.01h1v3.37l-.02.07a.4.4 0 0 1-.09.19.29.29 0 0 1-.22.1h-.07V27h1.13v-.07h-.06a.29.29 0 0 1-.22-.1.4.4 0 0 1-.1-.19V23.2h1.05c.05.02.1.06.13.1.05.07.08.15.08.24v.1h.06V23h-3Zm3.5 0v.07h.1c.1 0 .19.03.26.1a.6.6 0 0 1 .14.33v3c0 .1-.07.26-.14.33a.36.36 0 0 1-.27.1H38V27h2.64l.36-.95h-.07c-.06.14-.13.27-.21.38-.08.11-.2.2-.33.27-.13.06-.3.1-.52.1h-.99v-1.7H40.06c.05.02.1.04.13.09a.3.3 0 0 1 .07.19v.09h.07v-.94h-.07v.09c0 .08-.02.14-.07.2-.04.05-.1.08-.2.08h-1.1v-1.7h1.34l.07.01c.07.02.12.05.17.1.06.06.09.14.09.24v.1h.07V23H38Zm3 0v.07h.1c.1 0 .2.03.27.1.06.05.1.12.1.2v3.25a.37.37 0 0 1-.38.31H41V27h1.4l-.01-.07h-.09c-.1 0-.2-.03-.27-.1a.37.37 0 0 1-.1-.19l-.02-.07v-3.36h.79c.13 0 .26.03.36.07.11.04.2.1.28.17.09.07.15.15.19.25.04.1.07.2.07.33a1.04 1.04 0 0 1-.04.38.78.78 0 0 1-.27.4.77.77 0 0 1-.35.15 5.5 5.5 0 0 1-.77.03v.06a.6.6 0 0 1 .37.14 1.68 1.68 0 0 1 .43.47 18.82 18.82 0 0 1 .55.75c.07.09.16.18.26.27.1.09.23.16.39.23.16.06.37.09.62.09H45v-.07a.84.84 0 0 1-.33-.06c-.09-.04-.17-.1-.26-.18a8.38 8.38 0 0 1-.53-.58l-.23-.29-.09-.12c-.07-.1-.16-.2-.26-.31a.82.82 0 0 0-.27-.21c.2-.02.39-.08.55-.19.16-.1.29-.23.38-.39.09-.16.13-.33.13-.52 0-.17-.03-.32-.1-.45a.92.92 0 0 0-.27-.34c-.12-.1-.26-.17-.44-.22a2.06 2.06 0 0 0-.57-.07H41Z" fill="#0D9660"/></svg>