<!-- by TradingView --><svg width="56" height="56" viewBox="0 0 56 56" xmlns="http://www.w3.org/2000/svg"><path fill="#F0F3FA" d="M0 0h56v56H0z"/><path d="M28 12a16 16 0 1 1 0 32 16 16 0 0 1 0-32Zm0 3a13 13 0 0 0-11.93 7.82c6.71 3.73 12.85 7.48 19.64 11.55a10 10 0 0 1-17.33-9.1l-2.66-1.55a13 13 0 0 0 24.14 9.6l-2.6-1.56-.01.04-6.47-3.88L37 23.65a9.96 9.96 0 0 1 .5 7.41l2.67 1.48a12.97 12.97 0 0 0-2.44-13.15 816.52 816.52 0 0 1-9.8 6.83l-7.65-4.6a9.98 9.98 0 0 1 14.06-1.34L37 18.62A12.95 12.95 0 0 0 28 15Z" fill="#933826"/></svg>