<!-- by TradingView --><svg width="56" height="56" viewBox="0 0 56 56" xmlns="http://www.w3.org/2000/svg"><path fill="#65AD40" d="M0 0h56v56H0z"/><path d="M19 21.1c0-1.16-.86-2.1-2-2.1-1.14 0-2 .94-2 2.1v13.27A9.57 9.57 0 0 0 24.5 44c5.25 0 9.5-4.31 9.5-9.63V21.09c0-1.15-.86-2.09-2-2.09-1.14 0-2 .94-2 2.1v13.76c0 3-2.53 5.14-5.5 5.14S19 37.86 19 34.86V21.09Z" fill="#fff"/><path d="M37 34.9c0 1.16.86 2.1 2 2.1 1.14 0 2-.94 2-2.1V21.64A9.57 9.57 0 0 0 31.5 12a9.57 9.57 0 0 0-9.5 9.63v13.28c0 1.15.86 2.09 2 2.09 1.14 0 2-.94 2-2.1V21.15c0-3 2.53-5.14 5.5-5.14s5.5 2.14 5.5 5.14v13.77Z" fill="#fff"/></svg>