<!-- by TradingView --><svg width="56" height="56" viewBox="0 0 56 56" xmlns="http://www.w3.org/2000/svg"><path fill="#F0F3FA" d="M0 0h56v56H0z"/><path fill-rule="evenodd" d="M6.73 24h2.54L12 31H9.55l-.3-1h-2.5l-.3 1H4l2.73-7Zm1.9 4L8 25.98 7.37 28h1.26Zm5.71 3h-.29L12 26h2.05l.96 2.94.96-2.94h2.05l-2.05 5H14.34ZM39 27.53v2.8c0 .33.32.46.5.46.13 0 .3-.14.37-.21l.13.12-.06.04c-.2.12-.42.26-.96.26-.68 0-1.32-.39-1.43-.73l-.02.08c-.08.28-.2.65-1 .65-1.06 0-1.53-.47-1.53-1.06 0-.68.3-.93 1.48-1.31.85-.28.95-.6 1-.76l.02-.05v-.85c0-.33 0-.78-.47-.78-.46 0-.5.32-.5.53 0 .1.01.18.03.27.03.1.05.2.05.32 0 .26-.25.43-.64.43-.38 0-.67-.3-.67-.6 0-.59.93-1.14 1.9-1.14 1.56 0 1.81 1.02 1.8 1.53Zm-2.05 3.26c.42 0 .55-.47.55-.93v-1.74a.45.45 0 0 0-.06.12c-.06.13-.14.32-.5.47-.58.26-.63.93-.63 1.15 0 .42.22.93.64.93ZM19 26h2v5h-2v-5Zm2-2h-2v1h2v-1Zm7 0h-2v2.5a2.5 2.5 0 1 0 0 4v.5h2v-7Zm-2 4.5c0-.83-.45-1.5-1-1.5s-1 .67-1 1.5.45 1.5 1 1.5 1-.67 1-1.5Zm3-4.5h2v2.69c.25-.43.63-.69 1.13-.69 1.03 0 1.87 1.12 1.87 2.5s-.84 2.5-1.87 2.5c-.5 0-.88-.26-1.13-.69V31h-2v-.27h.5v-6.46H29V24Zm2 5.56v-2.12c0-.5.33-.9.74-.9.42 0 .75.4.75.9v2.12c0 .5-.33.9-.75.9-.4 0-.74-.4-.74-.9ZM46.5 25H46v.24h.5v5.52H46V31h2v-2.21l1.74 1.97H49V31h3v-.24h-.43l-2.67-3.2 1.26-1.32h.83V26h-1.92v.24h.74L48 28.14V25h-1.5Zm-6 1h-.48v.26h.48v4.48h-.48V31h2.48v-.26H42v-3.52c.23-.52.57-.9.99-.9.43 0 .47.35.5.6l.01.12v3.7H43V31h2.5v-.26H45v-3.3c0-.72-.55-1.44-1.64-1.44-.57 0-1.04.38-1.36.76V26h-1.5Z" fill="#003D6E"/><path fill-rule="evenodd" d="M39 30.32v-2.8c.01-.5-.24-1.52-1.8-1.52-.97 0-1.9.55-1.9 1.14 0 .3.3.6.67.6.39 0 .64-.17.64-.43 0-.13-.02-.23-.05-.32-.02-.09-.03-.17-.03-.27 0-.21.04-.53.5-.53.47 0 .47.45.47.78v.85l-.02.05c-.05.17-.15.48-1 .76-1.18.38-1.48.63-1.48 1.31 0 .6.47 1.06 1.53 1.06.8 0 .92-.37 1-.64l.02-.1c.11.35.75.74 1.43.74.54 0 .76-.14.96-.26l.06-.04-.13-.12c-.07.07-.24.2-.38.2-.17 0-.49-.12-.49-.46Zm-1.5-.46c0 .46-.13.93-.55.93-.42 0-.64-.51-.64-.93 0-.22.05-.9.64-1.15.35-.15.43-.34.49-.47a.46.46 0 0 1 .06-.12v1.74ZM28 28.63l-2.63 2.21c.23-.08.44-.2.63-.34v.5h2v-2.37Zm1.5-1.26v3.36H29V31h2v-.69c.25.43.63.69 1.13.69 1.03 0 1.87-1.12 1.87-2.5s-.84-2.5-1.87-2.5c-.5 0-.88.26-1.13.69v-.58l-1.5 1.26Zm20.3 1.27-.9-1.07 1.26-1.33h.83V26h-1.92v.24h.74L48 28.14V25h-2v.24h.5v5.52H46V31h1.67l.33-.37V28.8l.82.93.98-1.08ZM31 27.44v2.12c0 .5.33.9.74.9.42 0 .75-.4.75-.9v-2.12c0-.5-.33-.9-.75-.9-.4 0-.74.4-.74.9ZM40.02 26H42v.76c.32-.38.79-.76 1.36-.76 1.1 0 1.64.72 1.64 1.44v3.3h.5V31H43v-.26h.5v-3.7l-.02-.12c-.02-.25-.06-.6-.5-.6-.4 0-.75.38-.98.9v3.52h.5V31h-2.48v-.26h.48v-4.48h-.48V26Z" fill="#3A86C3"/></svg>