<!-- by TradingView --><svg width="56" height="56" viewBox="0 0 56 56" xmlns="http://www.w3.org/2000/svg"><path fill="#F0F3FA" d="M0 0h56v56H0z"/><path d="M17.09 29.57 24.15 13c.27-.6.86-1 1.52-1h4.16L31 17.77l-4.44 12.56a1 1 0 0 1-.95.67h-7.6c-.73 0-1.22-.76-.92-1.43Z" fill="url(#alr55xid5)"/><path d="M42.98 41H13.36a1.34 1.34 0 0 1-1.23-1.9l2.74-5.51c.17-.36.53-.59.93-.59h14.18c.55 0 .97-.5 1.02-1 .01-.15 0-.3-.06-.45L24.1 14.27a1.65 1.65 0 0 1-.11-.64c.03-.87.74-1.63 1.7-1.63h5.75c.4 0 .78.24.93.61l11.54 27a1 1 0 0 1-.94 1.39Z" fill="url(#blr55xid5)"/><defs><linearGradient id="alr55xid5" x1="17.13" y1="31" x2="31.17" y2="31" gradientUnits="userSpaceOnUse"><stop offset=".29" stop-color="#E52629"/><stop offset=".62" stop-color="#BD222F"/></linearGradient><linearGradient id="blr55xid5" x1="12.29" y1="41" x2="44.38" y2="41" gradientUnits="userSpaceOnUse"><stop offset=".2" stop-color="#E62629"/><stop offset=".79" stop-color="#BD222F"/></linearGradient></defs></svg>