<!-- by TradingView --><svg width="56" height="56" viewBox="0 0 56 56" xmlns="http://www.w3.org/2000/svg"><path fill="#F0F3FA" d="M0 0h56v56H0z"/><path d="M6 28c0-1.88.7-3.7 1.96-5.14 1.26-1.44 3-2.4 4.93-2.73a8.51 8.51 0 0 1 5.94 1.14c.37.22.71.48 1.1.62a3.44 3.44 0 0 0 3.31-.42c1.01-.7 2.18-1.17 3.41-1.35a8.42 8.42 0 0 1 6.3 1.46c1.07.74 2.76.72 3.8-.01a8.5 8.5 0 0 1 7.92-1.03 8.32 8.32 0 0 1 3.37 2.3 7.9 7.9 0 0 1 1.8 3.59c.91 4.3-2.07 8.6-6.55 9.41a8.47 8.47 0 0 1-6.51-1.4 3.53 3.53 0 0 0-3.88.02 8.4 8.4 0 0 1-5.58 1.5 8.28 8.28 0 0 1-4.12-1.46 3.54 3.54 0 0 0-4.04 0c-4.91 3.39-11.84.73-12.98-5-.1-.49-.12-1-.18-1.5Z"/><path d="M16 27.9c.36-.57.7-1.1 1.03-1.65l.56-.88c.1-.15.24-.27.41-.33a.8.8 0 0 1 .54.01c.3.09.46.34.46.7v4.54c0 .5-.41.82-.87.67a.67.67 0 0 1-.34-.26.66.66 0 0 1-.11-.42v-2.6c0-.06 0-.13-.03-.2l-.1.14-.97 1.47a.72.72 0 0 1-.47.39.65.65 0 0 1-.7-.34l-.92-1.4a.83.83 0 0 0-.2-.22V30.28c0 .38-.16.6-.49.7a.64.64 0 0 1-.69-.26.61.61 0 0 1-.1-.24v-4.67c0-.42.13-.68.45-.76.44-.1.76 0 .99.37.46.76.94 1.51 1.41 2.27l.14.21ZM41.58 31c-.63.02-1.25-.2-1.73-.6a2.42 2.42 0 0 1-.83-1.61c-.08-.61.08-1.23.45-1.73.36-.5.9-.85 1.52-.98a2.7 2.7 0 0 1 2.14.38c.12.06.22.17.28.3.06.12.07.25.04.39-.1.43-.6.6-1 .36-.19-.13-.4-.23-.61-.29a1.2 1.2 0 0 0-.98.22 1.17 1.17 0 0 0-.47.87c-.03.3.01.6.14.87a1.24 1.24 0 0 0 .84.63 1.28 1.28 0 0 0 1.04-.22l.23-.14a.59.59 0 0 1 .86.54c0 .13-.07.26-.17.36-.4.39-.93.62-1.5.65h-.25ZM33 27.97v2.3c0 .1-.02.2-.06.3a.62.62 0 0 1-.2.23.67.67 0 0 1-.94-.17.6.6 0 0 1-.1-.4V25.63c0-.12.04-.24.1-.34.07-.1.17-.18.29-.22a.64.64 0 0 1 .65.07c.09.06.16.15.2.24.05.1.07.2.06.3v2.3ZM28.4 26c1.38 0 2.45 1.1 2.45 2.5 0 1.44-1.09 2.5-2.55 2.5a2.31 2.31 0 0 1-1.74-.72 2.5 2.5 0 0 1-.71-1.8c0-1.4 1.11-2.49 2.54-2.48Zm-.05 1.18c-.71 0-1.2.53-1.2 1.3a1.32 1.32 0 0 0 .33.95 1.24 1.24 0 0 0 .4.29c.15.07.31.1.48.1.7.01 1.2-.54 1.2-1.3 0-.72-.47-1.28-1.09-1.34h-.12ZM22.5 26c1.42 0 2.5 1.07 2.5 2.47A2.46 2.46 0 0 1 22.51 31 2.44 2.44 0 0 1 20 28.54 2.48 2.48 0 0 1 22.5 26Zm-.02 1.17a1.15 1.15 0 0 0-.85.38c-.2.23-.33.56-.33.94 0 .1 0 .18.02.27.11.62.58 1.07 1.18 1.07h.13c.5-.06.9-.4 1.03-.9a1.53 1.53 0 0 0 .05-.41 1.34 1.34 0 0 0-.34-.95 1.24 1.24 0 0 0-.89-.4ZM35.47 26.07a2.59 2.59 0 0 1 2.08.4c.3.22.53.49.7.8.16.3.25.65.25 1 0 .45-.25.7-.74.7h-2.79c.18.74.85 1.1 1.66.88.2-.06.4-.14.57-.25.31-.18.66-.15.84.1a.54.54 0 0 1 .1.42.54.54 0 0 1-.1.2.58.58 0 0 1-.16.15c-.83.63-2.16.7-3.12.19a2.5 2.5 0 0 1-1.03-1.1 2.31 2.31 0 0 1-.19-1.45 2.42 2.42 0 0 1 1.93-2.04Zm.59 1.03a1.17 1.17 0 0 0-.77.3 1.02 1.02 0 0 0-.32.7h2.12a.94.94 0 0 0-.3-.7 1.06 1.06 0 0 0-.63-.3h-.1Z" fill="#F0F3FA"/></svg>