<!-- by TradingView --><svg width="56" height="56" viewBox="0 0 56 56" xmlns="http://www.w3.org/2000/svg"><path fill="#F0F3FA" d="M0 0h56v56H0z"/><path d="M35 25v6h-1v-6h1ZM9.07 25l1.4 4.72h.06l1.4-4.72H13l-1.9 6H9.9L8 25h1.07ZM4 31v-6h4v1H5v1.5h2.5v1H5V30h3v1H4ZM14 31v-6h4v1h-3v1.5h2.5v1H15V30h3v1h-4ZM19 31v-6h1.96c1.14 0 2.04.8 2.04 1.92 0 1.15-.84 2.08-2.05 2.08h-1.4v-1h1.27c.63 0 1.18-.45 1.18-1.08 0-.64-.55-.92-1.18-.92H20v5h-1Zm2.7-2.72L23 31h-1.06l-1.27-2.72h1.03ZM29 31v-6h1.96c1.14 0 2.04.8 2.04 1.92 0 1.15-.84 2.08-2.05 2.08h-1.4v-1h1.27c.63 0 1.18-.45 1.18-1.08 0-.64-.55-.92-1.18-.92H30v5h-1Zm2.7-2.72L33 31h-1.06l-1.27-2.72h1.03ZM24 31v-6h2.05c.95 0 1.74.55 1.74 1.56 0 .6-.34 1.11-.94 1.27v.06c.75.05 1.15.8 1.15 1.48 0 1.05-.83 1.63-1.83 1.63H24Zm1-1h1.02c.51 0 .98-.14.98-.72a.92.92 0 0 0-.96-.95H25V30Zm0-2.45h.93c.5 0 .89-.35.89-.85 0-.47-.3-.7-.87-.7H25v1.55ZM39.96 27a1.4 1.4 0 0 0-1.37-1C37.5 26 37 27.03 37 28c0 .98.48 2 1.61 2 .83 0 1.4-.39 1.4-1.21l.23.04h-1.52V28H41v.7c0 1.4-.98 2.3-2.4 2.3-1.68 0-2.6-1.42-2.6-3 0-1.5.91-3 2.58-3 1.16 0 2.25.82 2.42 2h-1.04ZM42 31v-6h1v2.54h3V25h1v6h-1v-2.55h-3V31h-1ZM47 26v-1h5v1h-2v5h-1v-5h-2Z"/></svg>