<!-- by TradingView --><svg width="56" height="56" viewBox="0 0 56 56" xmlns="http://www.w3.org/2000/svg"><path fill="#F0F3FA" d="M0 0h56v56H0z"/><path d="M49.13 30a.13.13 0 0 1-.1-.03.13.13 0 0 1-.03-.1v-2.74c0-.05.01-.08.03-.1a.13.13 0 0 1 .1-.03c.03 0 .06 0 .08.02a.2.2 0 0 1 .06.07l1.3 2.27h-.13l1.29-2.27a.3.3 0 0 1 .06-.07.16.16 0 0 1 .09-.02c.03 0 .06.01.08.03.03.02.04.05.04.1v2.74c0 .04-.01.07-.03.1-.02.02-.05.03-.1.03a.14.14 0 0 1-.1-.03.13.13 0 0 1-.03-.1v-2.54h.11l-1.21 2.13a.2.2 0 0 1-.05.06.12.12 0 0 1-.08.02c-.04 0-.07 0-.09-.02a.28.28 0 0 1-.05-.06l-1.22-2.13h.1v2.54c0 .04 0 .07-.03.1-.02.02-.05.03-.1.03ZM47 30c-.16 0-.3-.02-.43-.08a.79.79 0 0 1-.32-.22c-.08-.1-.14-.22-.19-.37a1.9 1.9 0 0 1-.06-.51v-1.7c0-.04.01-.07.03-.09a.1.1 0 0 1 .08-.03c.04 0 .06.01.08.03.02.02.03.05.03.1v1.67c0 .32.07.57.2.73.13.16.33.24.58.24.26 0 .45-.08.58-.24.13-.16.2-.4.2-.73v-1.67c0-.05 0-.08.03-.1.02-.02.04-.03.08-.03a.1.1 0 0 1 .08.03c.02.02.03.05.03.1v1.69c0 .26-.04.47-.11.65a.82.82 0 0 1-.34.4c-.15.09-.33.13-.55.13ZM43.5 30a.17.17 0 0 1-.12-.03.13.13 0 0 1-.04-.1v-2.64h-1.19a.17.17 0 0 1-.11-.03.1.1 0 0 1-.04-.09.1.1 0 0 1 .04-.08.18.18 0 0 1 .11-.03h2.7c.05 0 .09.01.11.03a.1.1 0 0 1 .04.08c0 .04-.01.07-.04.1l-.1.02h-1.2v2.63c0 .05-.02.08-.04.1-.03.03-.07.04-.12.04ZM37.5 30a.2.2 0 0 1-.11-.03.3.3 0 0 1-.08-.1l-1.3-2.7a.15.15 0 0 1 0-.1c0-.02.01-.04.04-.05a.17.17 0 0 1 .08-.02c.05 0 .08 0 .1.03l.06.07 1.28 2.69h-.13l1.28-2.69a.18.18 0 0 1 .06-.07.17.17 0 0 1 .1-.03c.03 0 .06 0 .08.02.02.01.03.03.04.06 0 .02 0 .05-.02.08l-1.3 2.72a.2.2 0 0 1-.07.1.19.19 0 0 1-.11.02ZM40.5 27a.2.2 0 0 0-.11.03.3.3 0 0 0-.08.1l-1.3 2.7a.15.15 0 0 0 0 .1c0 .02.01.04.04.05l.08.02c.05 0 .08 0 .1-.03a.24.24 0 0 0 .06-.07l1.28-2.69h-.13l1.28 2.69c.01.03.03.06.06.07.02.02.06.03.1.03.03 0 .06 0 .08-.02a.08.08 0 0 0 .04-.06c0-.02 0-.05-.02-.08l-1.3-2.72a.2.2 0 0 0-.07-.1.19.19 0 0 0-.11-.02ZM17.5 27a.2.2 0 0 0-.11.03.3.3 0 0 0-.08.1l-1.3 2.7a.15.15 0 0 0 0 .1c0 .02.01.04.04.05l.08.02c.05 0 .08 0 .1-.03a.24.24 0 0 0 .06-.07l1.28-2.69h-.13l1.28 2.69c.01.03.03.06.06.07.02.02.06.03.1.03.03 0 .06 0 .08-.02a.08.08 0 0 0 .04-.06c0-.02 0-.05-.02-.08l-1.3-2.72a.2.2 0 0 0-.07-.1.19.19 0 0 0-.11-.02ZM33.5 30c-.3 0-.57-.06-.8-.18-.22-.13-.4-.3-.52-.52-.12-.23-.18-.5-.18-.8 0-.24.03-.44.1-.63a1.28 1.28 0 0 1 .77-.77c.19-.07.4-.1.63-.1.3 0 .58.06.8.18.23.12.4.3.52.52.12.22.18.49.18.8 0 .23-.03.44-.1.62-.07.19-.17.35-.3.48a1.3 1.3 0 0 1-.48.3c-.18.07-.4.1-.62.1Zm0-.23c.25 0 .47-.05.64-.15.18-.1.32-.25.4-.44.1-.18.15-.41.15-.68 0-.4-.1-.71-.31-.93-.2-.23-.5-.34-.88-.34-.25 0-.47.05-.64.15a1 1 0 0 0-.41.44c-.1.18-.14.41-.14.68 0 .4.1.7.31.93.21.23.5.34.88.34ZM29.1 30a.1.1 0 0 1-.07-.03.16.16 0 0 1-.03-.1v-2.74c0-.04 0-.07.03-.1a.08.08 0 0 1 .06-.03c.04 0 .06 0 .07.02a.2.2 0 0 1 .05.06l1.67 2.59h-.09v-2.54c0-.05.01-.08.03-.1a.1.1 0 0 1 .08-.03c.03 0 .05.01.07.03.02.02.03.05.03.1v2.74c0 .04 0 .07-.03.1a.07.07 0 0 1-.06.03.1.1 0 0 1-.07-.02.22.22 0 0 1-.05-.06l-1.66-2.59h.08v2.54c0 .04-.01.07-.03.1a.09.09 0 0 1-.07.03ZM26.1 30a.1.1 0 0 1-.07-.03.16.16 0 0 1-.03-.1v-2.74c0-.04 0-.07.03-.1a.08.08 0 0 1 .06-.03c.04 0 .06 0 .07.02a.2.2 0 0 1 .05.06l1.67 2.59h-.09v-2.54c0-.05.01-.08.03-.1a.1.1 0 0 1 .08-.03c.03 0 .05.01.07.03.02.02.03.05.03.1v2.74c0 .04 0 .07-.03.1a.07.07 0 0 1-.06.03.1.1 0 0 1-.07-.02.22.22 0 0 1-.05-.06l-1.66-2.59h.08v2.54c0 .04-.01.07-.03.1a.09.09 0 0 1-.07.03ZM24.1 30a.1.1 0 0 1-.07-.03.17.17 0 0 1-.03-.1v-2.74c0-.04 0-.07.03-.1a.1.1 0 0 1 .07-.03.1.1 0 0 1 .08.03c.02.03.03.06.03.1v2.74c0 .04 0 .07-.03.1-.01.02-.04.03-.08.03ZM13.12 30a.1.1 0 0 1-.09-.03.16.16 0 0 1-.03-.1v-2.73c0-.05.01-.08.03-.1a.12.12 0 0 1 .09-.04h.9c.29 0 .5.07.66.22.15.15.23.35.23.62 0 .18-.03.33-.1.46a.67.67 0 0 1-.3.28c-.14.06-.3.1-.49.1l.04-.06h.06c.1 0 .18.03.25.08.07.06.14.15.2.28l.4.83c.02.03.03.06.03.1a.1.1 0 0 1-.03.06.1.1 0 0 1-.07.03c-.03 0-.06 0-.08-.03a.22.22 0 0 1-.05-.07l-.43-.88c-.07-.13-.15-.22-.23-.26a.69.69 0 0 0-.33-.07h-.55v1.17c0 .05 0 .08-.03.1-.01.03-.04.04-.08.04Zm.11-1.53H14c.23 0 .4-.05.51-.16.12-.1.17-.26.17-.47 0-.2-.05-.35-.17-.46-.11-.1-.28-.16-.51-.16h-.76v1.25ZM10.12 30a.1.1 0 0 1-.09-.03.16.16 0 0 1-.03-.1v-2.73c0-.05.01-.08.03-.1a.12.12 0 0 1 .09-.04h.9c.29 0 .5.07.66.22.15.15.23.35.23.62 0 .18-.03.33-.1.46a.67.67 0 0 1-.3.28c-.14.06-.3.1-.49.1l.04-.06h.06c.1 0 .18.03.25.08.07.06.14.15.2.28l.4.83c.02.03.03.06.03.1a.1.1 0 0 1-.03.06.1.1 0 0 1-.07.03c-.03 0-.06 0-.08-.03a.22.22 0 0 1-.05-.07l-.43-.88c-.07-.13-.15-.22-.23-.26a.69.69 0 0 0-.33-.07h-.55v1.17c0 .05 0 .08-.03.1-.01.03-.04.04-.08.04Zm.11-1.53H11c.23 0 .4-.05.51-.16.12-.1.17-.26.17-.47 0-.2-.05-.35-.17-.46-.11-.1-.28-.16-.51-.16h-.76v1.25ZM5 30a.1.1 0 0 1-.08-.03.17.17 0 0 1-.02-.1v-2.64h-.8a.09.09 0 0 1-.07-.03.13.13 0 0 1-.03-.09c0-.03 0-.06.03-.08A.1.1 0 0 1 4.1 27h1.8c.03 0 .06.01.07.03.02.02.03.05.03.08 0 .04 0 .07-.03.1l-.07.02h-.8v2.63c0 .05 0 .08-.02.1-.02.03-.04.04-.08.04ZM8.87 29.77c.05 0 .08.01.1.03.02.02.03.05.03.08 0 .04-.01.07-.03.09-.02.02-.05.03-.1.03H7.15a.16.16 0 0 1-.1-.04C7 29.94 7 29.9 7 29.86v-.09h1.87ZM8.78 28.37c.04 0 .08 0 .1.03.02.01.03.04.03.08 0 .03-.01.06-.03.08-.02.02-.06.03-.1.03H7v-.22h1.78ZM8.87 27c.05 0 .08.01.1.03a.1.1 0 0 1 .03.08c0 .04-.01.07-.03.09-.02.02-.05.03-.1.03H7v-.08c0-.05.01-.09.04-.11a.16.16 0 0 1 .11-.04h1.72Z"/><path d="M16 22a6 6 0 1 1-4.47 10c.98.93 2.5 1.5 3.97 1.5a5.5 5.5 0 1 0 0-11c-1.46 0-2.99.57-3.97 1.5 1.1-1.23 2.7-2 4.47-2Z"/></svg>