<!-- by TradingView --><svg width="56" height="56" viewBox="0 0 56 56" xmlns="http://www.w3.org/2000/svg"><path fill="#F0F3FA" d="M0 0h56v56H0z"/><path d="M33 12.74a.95.95 0 0 0-.39-.04c-.2.02-.28.1-.22.24.03.08.12.14.27.19.02 0 .04.02.06.04l.16.24c.05.06.12.12.2.15 2.49.96 4.93 2.37 7.3 4.2a8.91 8.91 0 0 1-2.56 2.16.42.42 0 0 1-.57-.12 19.32 19.32 0 0 0-3.93-4.32c.25-.3.08-.63-.5-1l-.8-.49a6.85 6.85 0 0 0-2.03-1.12c-.96-.16-1.92-.39-2.86-.67 1.95-.4 3.91-.21 5.87.54Z" fill="#86C6E8"/><path d="M27.13 12.2c.94.28 1.9.5 2.86.67.36.06 1.04.44 2.02 1.12l.8.5c.59.36.76.7.5.99a15.77 15.77 0 0 0-9.37-2.82.1.1 0 0 1-.1-.1V12.45h.02l3.27-.24ZM33 12.74c2.85.9 5.3 2.58 7.39 5.02a29.36 29.36 0 0 0-7.32-4.2.42.42 0 0 1-.19-.15l-.16-.24a.14.14 0 0 0-.06-.04c-.15-.05-.24-.1-.27-.19-.06-.14.02-.22.22-.24.13-.01.26 0 .39.04ZM13.67 34.75c0-.75-.04-1.92-.15-3.5-.1-1.46.03-3.16.4-5.1.64-3.39 2.36-6.06 5.14-8.03 1-.7 1.78-1.55 1.72-2.83 5.89-1.66 11.55.42 14.76 5.6a.21.21 0 0 1-.29.3 8.67 8.67 0 0 0-9.28.17c-2.18 1.34-3.63 2.46-5.91 2.32a.3.3 0 0 1-.3-.33c.01-.06.03-.1.07-.15 3.15-4.2 7.35-5.53 12.59-4a.04.04 0 0 0 .06-.01.04.04 0 0 0-.02-.06 8.78 8.78 0 0 0-2.2-1.17 1.38 1.38 0 0 0-.35-.07c-2.27-.23-4.64-.22-6.84.7-3.18 1.3-5.36 4.63-6.1 7.92a.45.45 0 0 0 .35.54l7.79 1.39a.14.14 0 0 1 .11.11.14.14 0 0 1-.06.15l-10.6 7.42a.21.21 0 0 1-.32-.09l-.57-1.28Z" fill="#4B9DC9"/><path d="M20.78 15.3c.06 1.27-.71 2.11-1.72 2.82a12.27 12.27 0 0 0-5.14 8.04c-.37 1.93-.5 3.63-.4 5.1.1 1.57.16 2.74.15 3.49a14.93 14.93 0 0 1-1.28-10.21c1.02-4.5 3.82-7.58 8.4-9.25Z" fill="#86C6E8"/><path d="M42.74 21.6c-.14-.09-.23-.13-.27-.11a.36.36 0 0 0-.24.38c.17 1.56.45 3.18.35 4.69-.26 4.17-1.5 8.33-4.92 10.7-1.4.97-2.48 2.16-3.26 3.57-3.81.88-7.22.23-10.22-1.94a18.84 18.84 0 0 1-3.6-3.73.19.19 0 0 1 .1-.29.19.19 0 0 1 .1 0c1.5.5 2.72 1.04 4.06 1.11 1.63.08 3.2-.32 4.72-1.2 2.37-1.39 4.1-2.73 6.48-2.66a.35.35 0 0 1 .35.4c-.01.06-.03.12-.07.17-2.84 3.88-6.65 5.28-11.42 4.2a.09.09 0 0 0-.1.06.09.09 0 0 0 .04.11c1.37.73 2.85.91 4.5.88 5.32-.1 8.66-3.74 9.8-8.77a.2.2 0 0 0-.04-.16.21.21 0 0 0-.14-.1L31 27.5a.18.18 0 0 1-.14-.14.19.19 0 0 1 .07-.19l10.53-7.37a.33.33 0 0 1 .5.14l.78 1.67Z" fill="#6FB539"/><path d="M42.74 21.6A16.46 16.46 0 0 1 44 27.56c.26 6.35-3.39 11.73-9.59 13.27.78-1.41 1.87-2.6 3.26-3.56 3.43-2.38 4.66-6.54 4.92-10.71.1-1.5-.18-3.13-.35-4.7a.36.36 0 0 1 .24-.37c.04-.02.13.02.27.11ZM32.53 43.48a16.8 16.8 0 0 1-14.57-3.01.81.81 0 0 1-.18-.19 7.25 7.25 0 0 0-1.95-1.91.41.41 0 0 1-.14-.54.42.42 0 0 1 .13-.15l2.64-1.84a.2.2 0 0 1 .15-.03.2.2 0 0 1 .12.09 16.5 16.5 0 0 0 5.64 5.54c1.08.66 2.4 1.15 3.94 1.46 1.46.3 2.86.43 4.2.4a.1.1 0 0 1 .02.18Z" fill="#3E9C3F"/></svg>