<!-- by TradingView --><svg width="56" height="56" viewBox="0 0 56 56" xmlns="http://www.w3.org/2000/svg"><path fill="#F0F3FA" d="M0 0h56v56H0z"/><path d="M46 32h5l-.98-2h-3.05L46 32Z" fill="#E20613"/><path d="m7 29 1.48-3.36L9.95 29H6.99Zm.69-5L4 32h1.67l.75-1.69h4.1l.75 1.69H13l-3.64-8H7.69ZM17.75 25.69c.4-.24.84-.35 1.3-.35a3.11 3.11 0 0 1 2.13.89l.82-1.1A4.42 4.42 0 0 0 19.06 24a4.09 4.09 0 0 0-3.52 1.95 3.9 3.9 0 0 0-.54 2.02 4.02 4.02 0 0 0 1.96 3.49c.6.35 1.27.53 2.01.53a4.9 4.9 0 0 0 2.97-1.02v-2.96H20.7v2.14a3.46 3.46 0 0 1-1.62.5c-.48 0-.92-.13-1.31-.36a2.67 2.67 0 0 1-1.29-2.31 2.66 2.66 0 0 1 1.28-2.3M30.2 29.33c-.23.4-.54.73-.92.97a2.42 2.42 0 0 1-2.53 0 2.64 2.64 0 0 1-1.28-2.32 2.68 2.68 0 0 1 1.28-2.3 2.46 2.46 0 0 1 3.44.96c.23.4.34.86.34 1.34 0 .5-.11.94-.34 1.35Zm-.17-4.8A4.03 4.03 0 0 0 28 24c-.75 0-1.42.17-2.03.52a3.8 3.8 0 0 0-1.45 1.44c-.35.6-.52 1.28-.52 2.02a4.01 4.01 0 0 0 1.97 3.49c.6.35 1.29.53 2.03.53a3.98 3.98 0 0 0 4-4.02c0-.74-.17-1.41-.52-2.02a3.8 3.8 0 0 0-1.45-1.44ZM38.83 27.92c-.31.25-.77.37-1.37.37h-1.87v-2.96h1.87c.6 0 1.06.13 1.37.37.32.24.48.6.48 1.1 0 .48-.16.87-.48 1.12m1.57.43c.28-.44.42-.97.42-1.6 0-.87-.3-1.55-.88-2.03a3.82 3.82 0 0 0-2.48-.72H34v8h1.59v-2.35h1.87c.13 0 .23 0 .3-.02L39.19 32H41l-1.82-2.65c.53-.22.94-.55 1.22-1M48.36 24h-1.67L43 32h1.67l2.81-6.36 2.8 6.36H52l-3.64-8Z"/></svg>