<!-- by TradingView --><svg width="56" height="56" viewBox="0 0 56 56" xmlns="http://www.w3.org/2000/svg"><path fill="#F0F3FA" d="M0 0h56v56H0z"/><path d="m30.7 19.55.1.01c.19 0 .35-.12.4-.3l1.97-7.05c.46-.05.87-.36 1-.81.16-.6-.2-1.2-.82-1.36-.62-.16-1.25.19-1.41.78-.13.46.06.93.44 1.19l-1.97 7.06a.4.4 0 0 0 .3.48Z" fill="#053FA5"/><path d="M33.14 25.9c-.2.11-.27.35-.15.54.07.13.21.2.35.2.07 0 .14-.02.2-.06l6.59-3.65c.36.28.88.34 1.3.1.56-.3.74-.98.43-1.51a1.18 1.18 0 0 0-1.58-.4c-.43.23-.63.69-.56 1.13l-6.58 3.66Zm-1.07-1.16a.38.38 0 0 0 0 .55.43.43 0 0 0 .58 0l5.38-5.17c.42.19.94.11 1.29-.22.45-.43.45-1.13 0-1.57a1.19 1.19 0 0 0-1.63 0c-.35.34-.42.83-.23 1.24l-5.38 5.17Zm-1.34-.86a.39.39 0 0 0 .15.53c.06.04.13.06.2.06.14 0 .28-.07.36-.2l3.8-6.33c.46.07.94-.13 1.19-.54.31-.53.13-1.2-.43-1.51a1.18 1.18 0 0 0-1.57.4c-.25.41-.19.91.1 1.26l-3.8 6.33Zm12.12 4.22c-.5 0-.91.3-1.08.71h-7.6a.4.4 0 0 0-.41.4c0 .21.18.39.4.39h7.6c.17.42.6.72 1.09.72.63 0 1.15-.5 1.15-1.11 0-.62-.52-1.11-1.15-1.11Zm-1.65-2.7-7.35 1.9a.4.4 0 0 0-.29.47.41.41 0 0 0 .5.28l7.35-1.89c.27.36.75.55 1.23.42.61-.15.98-.76.81-1.35-.16-.6-.8-.95-1.4-.79-.49.12-.8.52-.85.96Z" fill="url(#a)"/><path d="M23.58 34.09a.38.38 0 0 0 0-.56.42.42 0 0 0-.58 0l-5.37 5.17a1.2 1.2 0 0 0-1.3.22 1.08 1.08 0 0 0 0 1.57c.46.43 1.19.43 1.64 0 .35-.33.42-.83.23-1.24l5.38-5.17Zm1.34.86a.39.39 0 0 0-.15-.54.42.42 0 0 0-.55.15l-3.8 6.33c-.47-.07-.94.12-1.2.53-.31.54-.12 1.21.43 1.52.55.3 1.26.12 1.58-.4.24-.42.18-.92-.11-1.26l3.8-6.33Zm1.24.01a.41.41 0 0 0-.5.28L23.7 42.3c-.47.04-.87.36-1 .81-.17.6.2 1.2.82 1.36.61.16 1.25-.2 1.4-.78.14-.46-.05-.93-.43-1.19l1.97-7.06a.4.4 0 0 0-.3-.48Zm1.9 7.9v-7.31a.4.4 0 0 0-.4-.4.4.4 0 0 0-.41.4v7.3a1.1 1.1 0 0 0-.75 1.04c0 .61.52 1.11 1.16 1.11.63 0 1.15-.5 1.15-1.1 0-.49-.31-.89-.75-1.04Zm3.55-.56-1.96-7.06a.41.41 0 0 0-.5-.28.4.4 0 0 0-.3.48l1.97 7.06c-.38.26-.57.73-.44 1.19.16.59.8.94 1.41.78.62-.16.99-.77.82-1.36a1.14 1.14 0 0 0-1-.81Z" fill="url(#b)"/><path d="m35.57 40.89-3.8-6.33a.42.42 0 0 0-.57-.15c-.19.11-.26.35-.14.54l3.8 6.33c-.3.34-.36.84-.11 1.25.32.53 1.03.71 1.58.4.55-.3.74-.98.42-1.5-.25-.42-.72-.61-1.19-.54Zm2.78-2.19-5.37-5.17a.42.42 0 0 0-.58 0 .38.38 0 0 0 0 .56l5.37 5.17c-.19.4-.1.9.24 1.24.45.43 1.18.43 1.63 0 .45-.44.45-1.14 0-1.57-.35-.34-.87-.4-1.3-.22h.01Zm3.41-2.9a1.19 1.19 0 0 0-1.3.1l-6.59-3.66a.42.42 0 0 0-.56.14.39.39 0 0 0 .15.54l6.59 3.66c-.08.44.13.9.56 1.14.55.3 1.25.12 1.57-.4.32-.54.13-1.22-.42-1.52Zm1.2-3.56c-.47-.13-.95.06-1.22.42l-7.35-1.9a.41.41 0 0 0-.5.29.4.4 0 0 0 .3.48l7.34 1.89c.04.45.37.84.84.96.62.16 1.25-.2 1.42-.79.16-.59-.2-1.2-.82-1.35Z" fill="url(#c)"/><path d="M24.83 16.04c.38-.26.57-.73.44-1.19-.16-.59-.8-.94-1.41-.78a1.1 1.1 0 0 0-.82 1.36c.13.46.54.77 1 .8l1.97 7.07a.4.4 0 0 0 .5.28.4.4 0 0 0 .29-.48l-1.97-7.06ZM28 10.99c-.63 0-1.15.5-1.15 1.1 0 .48.3.89.74 1.04v7.31c0 .22.19.4.41.4a.4.4 0 0 0 .41-.4v-7.3c.44-.16.75-.57.75-1.04 0-.61-.52-1.11-1.16-1.11Zm-7.24 6.67 3.8 6.33c.08.13.22.2.36.2.07 0 .14-.02.2-.06.2-.1.27-.35.15-.53l-3.8-6.33c.3-.35.35-.85.1-1.26a1.18 1.18 0 0 0-1.57-.4c-.55.3-.74.98-.42 1.51.24.41.72.6 1.18.54Zm-2.79 2.18 5.38 5.17c.08.08.19.11.3.11.1 0 .2-.04.28-.11a.38.38 0 0 0 0-.55l-5.37-5.17c.19-.4.11-.9-.24-1.24a1.19 1.19 0 0 0-1.63 0 1.08 1.08 0 0 0 0 1.57c.35.33.87.4 1.3.22h-.02Zm-3.4 2.9c.42.24.94.19 1.3-.1l6.58 3.66c.07.03.14.05.2.05.15 0 .29-.07.36-.2a.39.39 0 0 0-.15-.53l-6.58-3.66a1.1 1.1 0 0 0-.56-1.14 1.18 1.18 0 0 0-1.58.4c-.31.54-.13 1.22.43 1.52Z" fill="url(#d)"/><path d="M16.28 36.59c.07.44-.13.9-.56 1.14-.55.3-1.26.12-1.58-.4a1.08 1.08 0 0 1 .43-1.53c.42-.23.94-.17 1.3.11l6.58-3.66c.2-.1.45-.04.56.15.12.19.05.43-.15.53l-6.58 3.66Zm-2.05-6.57h7.6a.4.4 0 0 0 .41-.4.4.4 0 0 0-.4-.39h-7.6a1.15 1.15 0 0 0-1.09-.71c-.63 0-1.15.5-1.15 1.1 0 .62.52 1.12 1.15 1.12.5 0 .92-.3 1.08-.72Zm.58 3.41 7.34-1.89a.4.4 0 0 0 .3-.48.41.41 0 0 0-.5-.28l-7.35 1.9a1.17 1.17 0 0 0-1.23-.43 1.1 1.1 0 0 0-.82 1.36c.16.6.8.94 1.41.78.48-.12.8-.51.85-.96Zm-1.45-6.42c.48.12.96-.06 1.23-.43l7.35 1.9h.1c.18 0 .35-.11.4-.28a.4.4 0 0 0-.3-.49l-7.34-1.89a1.12 1.12 0 0 0-.84-.96c-.62-.16-1.25.2-1.41.79-.17.6.2 1.2.81 1.36Z" fill="url(#e)"/><defs><linearGradient id="a" x1="34" y1="27.79" x2="40.45" y2="23.27" gradientUnits="userSpaceOnUse"><stop stop-color="#053FA5"/><stop offset="1" stop-color="#F63E02"/></linearGradient><linearGradient id="b" x1="28" y1="35.2" x2="26.53" y2="40.65" gradientUnits="userSpaceOnUse"><stop stop-color="#053FA5"/><stop offset="1" stop-color="#F63E02"/></linearGradient><linearGradient id="c" x1="33.17" y1="34.71" x2="38.12" y2="39.21" gradientUnits="userSpaceOnUse"><stop stop-color="#053FA5"/><stop offset="1" stop-color="#F63E02"/></linearGradient><linearGradient id="d" x1="25.5" y1="25.32" x2="21.07" y2="18.85" gradientUnits="userSpaceOnUse"><stop offset=".05" stop-color="#053FA5"/><stop offset=".99" stop-color="#F63E02"/></linearGradient><linearGradient id="e" x1="23" y1="29.98" x2="13.5" y2="30.48" gradientUnits="userSpaceOnUse"><stop offset=".05" stop-color="#053FA5"/><stop offset=".99" stop-color="#F63E02"/></linearGradient></defs></svg>