<!-- by TradingView --><svg width="56" height="56" viewBox="0 0 56 56" xmlns="http://www.w3.org/2000/svg"><path fill="#F0F3FA" d="M0 0h56v56H0z"/><path d="M47.23 33c-.63 0-1.19-.13-1.68-.38a2.95 2.95 0 0 1-1.14-1.07c-.27-.45-.41-.97-.41-1.55a2.84 2.84 0 0 1 1.47-2.62c.45-.25.97-.38 1.54-.38.57 0 1.07.12 1.52.37.46.25.82.6 1.07 1.06a2.98 2.98 0 0 1 .39 1.63v.08h-5.55v-.45h5.22l-.24.22c.01-.46-.1-.87-.31-1.23-.2-.37-.5-.66-.85-.86A2.43 2.43 0 0 0 47 27.5c-.47 0-.89.1-1.25.32-.37.2-.65.49-.86.86-.2.36-.31.77-.31 1.24v.1c0 .49.11.92.34 1.3.23.36.54.65.95.86.4.2.85.31 1.37.31.4 0 .77-.07 1.11-.2.36-.14.65-.35.9-.63l.34.38c-.27.31-.61.56-1.03.72-.41.16-.85.24-1.34.24ZM40.12 36c-.97 0-2.04-.3-2.72-1.03l.3-.47c.6.6 1.46.94 2.4.94 1.6 0 2.33-.8 2.33-2.52l.02-5.92H43v5.84c0 1.86-.94 3.16-2.88 3.16Zm-.16-3A2.88 2.88 0 0 1 37 30c0-1.7 1.2-3 2.96-3 1.78 0 2.85 1.5 2.85 3.14 0 1.67-1.09 2.86-2.85 2.86Zm.05-.56c1.45 0 2.43-.88 2.43-2.3 0-1.4-.97-2.58-2.43-2.58A2.32 2.32 0 0 0 37.58 30c0 1.4.97 2.44 2.43 2.44ZM27.76 33A1.7 1.7 0 0 1 26 31.23V25h.58v6.16c0 .84.51 1.3 1.24 1.3.38 0 .69-.12.94-.36l.24.44a1.4 1.4 0 0 1-.57.35c-.21.07-.44.11-.67.11ZM25 27v-.54h3.62V27H25ZM21 33v-6h.58v1.68l-.06-.19c.18-.47.48-.84.9-1.1.42-.26.95-.39 1.58-.39v.56h-.07a2.17 2.17 0 0 0-1.72.62c-.4.4-.6.98-.6 1.72V33H21ZM16 33c-.57 0-1.09-.13-1.54-.38A2.93 2.93 0 0 1 13 30a2.93 2.93 0 0 1 3-3c.57 0 1.09.13 1.54.38.45.26.8.62 1.07 1.07.26.44.39.96.39 1.55 0 .58-.13 1.1-.4 1.55-.25.45-.6.8-1.06 1.07-.45.25-.97.38-1.54.38Zm0-.5c.46 0 .87-.11 1.24-.32.37-.2.66-.5.86-.88.21-.38.31-.8.31-1.3s-.1-.93-.3-1.3c-.21-.38-.5-.67-.87-.87A2.45 2.45 0 0 0 16 27.5c-.46 0-.87.1-1.24.32-.36.2-.65.5-.86.87-.21.37-.31.8-.31 1.3s.1.92.3 1.3c.22.38.5.67.87.88.37.2.78.31 1.24.31ZM31.46 32.61c.45.26.97.39 1.54.39.57 0 1.09-.13 1.54-.39.4-.22.71-.52.96-.89V33h.5v-6h-.5v1.27a2.8 2.8 0 0 0-.96-.89A3.07 3.07 0 0 0 33 27c-.57 0-1.09.13-1.54.38A2.93 2.93 0 0 0 30 30a2.93 2.93 0 0 0 1.46 2.61Zm2.78-.43c-.37.2-.78.3-1.24.3-.46 0-.87-.1-1.24-.3-.36-.2-.65-.5-.86-.88-.21-.38-.31-.81-.31-1.3 0-.5.1-.93.3-1.3.22-.38.5-.67.87-.87.37-.22.78-.32 1.24-.32.46 0 .87.1 1.24.32.37.2.66.49.86.87.21.37.31.8.31 1.3 0 .49-.1.92-.3 1.3-.21.38-.5.67-.87.88ZM9.02 32.89c-.53 0-1-.12-1.44-.36a2.67 2.67 0 0 1-1.01-1 3.2 3.2 0 0 1-.37-1.59c0-.6.12-1.13.37-1.56.25-.45.59-.79 1.01-1.02.43-.24.91-.36 1.44-.36.57 0 1.08.13 1.53.38.45.24.8.59 1.06 1.03.26.45.39.96.39 1.53 0 .58-.13 1.1-.4 1.54-.25.44-.6.79-1.05 1.04-.45.25-.96.37-1.53.37ZM6 35v-7.96h.55v1.9l-.09 1.02.12 1V35H6Zm2.99-2.61c.46 0 .88-.1 1.24-.3.37-.2.66-.5.87-.87.22-.37.32-.8.32-1.28s-.1-.91-.32-1.27c-.2-.37-.5-.66-.87-.86A2.5 2.5 0 0 0 9 27.5c-.46 0-.88.1-1.25.31-.36.2-.65.49-.86.86-.21.36-.31.79-.31 1.27 0 .49.1.91.3 1.28.22.37.51.66.87.87.37.2.79.3 1.25.3Z" fill="#888"/><path d="M13 25H8c2-2.5 8-6 14-6 6.25 0 14.83 4.17 16 6-2.5-1.5-8.6-4.5-13-4.5s-9.83 3-12 4.5Z" fill="#70CDF4"/><path d="M42 25h5c-2-2.5-8-6-14-6-6.25 0-14.83 4.17-16 6 2.5-1.5 8.6-4.5 13-4.5s9.83 3 12 4.5Z" fill="#1682B2"/></svg>