<!-- by TradingView --><svg width="56" height="56" viewBox="0 0 56 56" xmlns="http://www.w3.org/2000/svg"><path fill="#F0F3FA" d="M0 0h56v56H0z"/><path fill-rule="evenodd" d="m42.91 19.39-14.79-8.4a.25.25 0 0 0-.24 0l-14.8 8.4c-.07.04-.08.12-.08.2v16.82c0 .08.01.16.09.2l14.79 8.4c.07.05.17.05.24 0l14.8-8.4c.07-.04.08-.12.08-.2V19.6c0-.09-.01-.17-.09-.21Zm-14.3-9.23a1.23 1.23 0 0 0-1.22 0l-14.79 8.4c-.37.22-.6.61-.6 1.04v16.8c0 .43.23.82.6 1.04l14.8 8.4c.37.21.83.21 1.2 0l14.8-8.4c.37-.22.6-.61.6-1.03V19.6c0-.43-.23-.82-.6-1.04l-14.8-8.4Z" fill="#002C5D"/><path d="M28 17 17 36h4.66L28 25l6.34 11H39L28 17Z" fill="#002C5D"/><path d="M26 30h4v4h-4v-4Z" fill="#AC171D"/></svg>