<!-- by TradingView --><svg width="56" height="56" viewBox="0 0 56 56" xmlns="http://www.w3.org/2000/svg"><path fill="#F0F3FA" d="M0 0h56v56H0z"/><path d="M25 15h6v6.5L28 23l-3-1v-7Z" fill="#0195F3" fill-opacity=".5"/><path d="M31 11v4.8c-.84.13-2.21.37-2.67.53-.66.24-1.37.48-1.96.48-.38 0-.96-.14-1.37-.33V11c.5.31 1.85.85 3.09.85A6.6 6.6 0 0 0 31 11Zm0 10.58v-.13c-1.22.4-2.93.9-3.68.9-.59 0-1.7-.16-2.32-.35l3.09 3L31 21.58ZM18.02 19.6C12.03 21.67 8 25.55 8 30c0 6.63 8.95 12 20 12s20-5.37 20-12c0-4.41-3.97-8.27-9.88-10.35l1.43 3.43C42.31 24.88 44 27.32 44 30c0 5.52-7.16 10-16 10s-16-4.48-16-10c0-2.74 1.76-5.22 4.62-7.03l1.4-3.37ZM21 28.5c0-.14.05-.26.15-.36.1-.1.21-.14.35-.14a.48.48 0 0 1 .5.5c0 .14-.05.26-.15.36-.1.1-.21.14-.35.14a.48.48 0 0 1-.35-.14.48.48 0 0 1-.15-.36Zm10.5-.5H30v6h1.5v-6Zm5.5 0h1.5v3.91s1.27-1.59 1.56-1.91H41l-1.56 1.75S40.47 33.21 41 34h-1.41l-1.09-1.82V34H37v-6Zm-2.5 3.95c0-.5 0-1.6-.49-1.6-.53 0-.52.9-.51 1.44v.16c0 .52.02 1.7.5 1.7.5 0 .5-1.2.5-1.7Zm-2.5 0c0-1.12.77-1.95 2-1.95 1.18 0 2 .81 2 1.95 0 1.11-.78 2.05-2 2.05-1.17 0-2-.91-2-2.05ZM23 30h1.5v4H23v-4Zm4.6 0c-.56 0-.78.25-1.1.66V30H25v4h1.5V31.66c-.02-.46-.04-1 .54-1 .5 0 .48.4.47.8l-.01.2V34H29v-2.55c0-.83-.41-1.45-1.4-1.45Zm-4.45-1.86c-.1.1-.15.22-.15.36 0 .14.05.26.15.36.1.1.21.14.35.14.14 0 .26-.05.35-.14.1-.1.15-.22.15-.36a.48.48 0 0 0-.15-.36.48.48 0 0 0-.35-.14.48.48 0 0 0-.35.14ZM20 35.67c.58-.16.57-.5.56-.95V30H22v3.99c0 .77-.34 1.51-1.1 1.82-.22.09-.48.15-.78.19l-.12-.33Zm-1.85-6.1L15 33.87V34h5v-.58h-3.12s2.02-2.88 3.12-4.3V29h-4.63v.57h2.78Z" fill="url(#a)"/><defs><linearGradient id="a" x1="48" y1="26.5" x2="8" y2="26.5" gradientUnits="userSpaceOnUse"><stop stop-color="#00C2FA"/><stop offset="1" stop-color="#0063EB"/></linearGradient></defs></svg>