<!-- by TradingView --><svg width="56" height="56" viewBox="0 0 56 56" xmlns="http://www.w3.org/2000/svg"><path fill="#F0F3FA" d="M0 0h56v56H0z"/><path fill-rule="evenodd" d="M42.59 21.27a1.7 1.7 0 0 0-.62-.85c-.14-.1-.3-.18-.5-.23a2.2 2.2 0 0 0-1.65.2c-.3.18-.55.45-.73.8-.17.36-.26.8-.26 1.3 0 .52.09.95.26 1.31a1.89 1.89 0 0 0 1.8 1.1c.38 0 .7-.07.97-.2a1.47 1.47 0 0 0 .86-1.4h-1.69v-.96H44v.82a2.66 2.66 0 0 1-1.5 2.5c-.47.23-1 .34-1.6.34-.68 0-1.27-.14-1.78-.42-.51-.29-.9-.69-1.2-1.21a3.86 3.86 0 0 1-.42-1.86c0-.55.08-1.04.25-1.48a3.15 3.15 0 0 1 1.77-1.8c.41-.15.85-.23 1.33-.23.4 0 .78.06 1.13.17.35.1.67.26.94.46.27.2.5.44.67.72.18.28.3.58.35.92h-1.35ZM7 36h2.47c.74 0 1.37-.14 1.9-.42.52-.28.93-.68 1.2-1.2.29-.53.43-1.16.43-1.89 0-.72-.14-1.35-.42-1.87a2.86 2.86 0 0 0-1.2-1.2A3.87 3.87 0 0 0 9.52 29H7v7Zm2.4-1.1H8.32v-4.8h1.12c.5 0 .9.09 1.24.26.33.18.59.44.76.8.17.35.25.8.25 1.33 0 .54-.08.99-.25 1.34-.17.36-.43.63-.77.8-.34.18-.76.27-1.27.27ZM14 36v-7h2.73c.56 0 1.03.1 1.41.28.38.19.67.45.87.79.2.33.3.72.3 1.17 0 .45-.1.84-.3 1.17a1.95 1.95 0 0 1-1.02.82L19.57 36H18.1l-1.44-2.56h-1.34V36H14Zm2.54-3.62h-1.22v-2.32h1.21a2 2 0 0 1 .8.14c.22.1.37.23.47.4.1.18.16.39.16.64s-.05.46-.16.63c-.1.17-.25.3-.46.38-.2.09-.48.13-.8.13ZM20.3 36h1.41l.6-1.73h2.75l.6 1.73h1.41l-2.57-7h-1.63l-2.57 7Zm4.4-2.74-.99-2.82h-.05l-.99 2.82h2.03Zm7.39-2a1.71 1.71 0 0 0-.62-.84c-.14-.1-.3-.18-.5-.23a2.2 2.2 0 0 0-1.65.2c-.3.18-.55.45-.73.8-.17.36-.26.8-.26 1.3 0 .52.09.95.26 1.31a1.89 1.89 0 0 0 1.8 1.1c.38 0 .7-.07.97-.2a1.47 1.47 0 0 0 .86-1.4h-1.69v-.96h2.97v.82a2.66 2.66 0 0 1-1.5 2.5c-.47.23-1 .34-1.6.34-.68 0-1.27-.14-1.78-.42-.51-.29-.9-.69-1.2-1.21a3.86 3.86 0 0 1-.42-1.86c0-.55.08-1.04.25-1.48a3.15 3.15 0 0 1 1.77-1.8c.41-.15.85-.23 1.33-.23.4 0 .78.06 1.13.17.35.1.67.26.94.46.27.2.5.44.67.72.18.28.3.58.35.92h-1.35Zm8.95 3.13c.3-.53.46-1.16.46-1.89s-.15-1.36-.46-1.88c-.3-.53-.72-.93-1.25-1.2A3.78 3.78 0 0 0 38 29a3.8 3.8 0 0 0-1.8.42 3.1 3.1 0 0 0-1.24 1.2c-.3.52-.46 1.15-.46 1.88s.15 1.36.46 1.88c.3.52.72.92 1.25 1.2A3.8 3.8 0 0 0 38 36c.67 0 1.26-.14 1.79-.42.53-.27.94-.67 1.25-1.2Zm-1.2-3.2c.18.36.27.8.27 1.31 0 .52-.09.95-.27 1.31-.18.36-.43.63-.74.8-.32.2-.69.28-1.1.28-.41 0-.78-.09-1.1-.27a1.91 1.91 0 0 1-.74-.8c-.18-.37-.27-.8-.27-1.32s.09-.95.27-1.3c.18-.36.43-.63.74-.82.32-.18.69-.27 1.1-.27.41 0 .78.09 1.1.27.31.19.56.46.74.81ZM47.73 36H49v-7h-1.43v4.77h-.06L43.78 29H42.5v7H44v-4.77L47.73 36ZM36.5 26v-7H35v4.76L31.28 19H30v7h1.43v-4.77h.07L35.23 26h1.27ZM29 19v7h-1.5v-7H29Zm-4.22 1.29a.9.9 0 0 1 .41.67h1.26c0-.38-.12-.72-.34-1.01-.22-.3-.53-.53-.91-.7a3.35 3.35 0 0 0-1.35-.25c-.51 0-.96.08-1.36.25-.4.17-.72.4-.95.7-.23.3-.35.66-.35 1.06 0 .48.17.87.52 1.17.34.3.81.51 1.4.65l.83.2c.26.07.49.14.68.22.2.07.35.17.46.29.1.11.16.26.16.44 0 .2-.06.36-.19.5-.12.15-.29.27-.5.35-.22.08-.47.12-.75.12s-.52-.04-.74-.12c-.22-.08-.4-.2-.54-.35a1 1 0 0 1-.23-.6H21c.02.46.14.84.37 1.16.24.31.56.55.97.71.42.17.9.25 1.47.25.58 0 1.07-.08 1.48-.25.4-.17.72-.4.94-.71.21-.3.32-.65.32-1.05a1.6 1.6 0 0 0-.65-1.34c-.2-.15-.43-.28-.69-.38-.25-.1-.51-.18-.78-.24l-.68-.16a4.5 4.5 0 0 1-.84-.3.91.91 0 0 1-.29-.27.66.66 0 0 1-.1-.37c0-.17.05-.32.16-.45.1-.14.25-.24.45-.32.2-.08.43-.12.7-.12.39 0 .7.08.95.25ZM20 19v7h-1.5v-7H20Zm-8 0v7h1.31v-2.56h1.33L16.07 26h1.46l-1.57-2.77.14-.06c.38-.18.67-.43.87-.76.2-.33.3-.72.3-1.17 0-.45-.1-.84-.3-1.17-.2-.34-.48-.6-.86-.79a3.13 3.13 0 0 0-1.4-.28H12Zm1.31 3.38v-2.32h1.2c.33 0 .6.05.8.14.21.1.36.23.47.4.1.18.15.39.15.64s-.05.46-.15.63c-.1.17-.26.3-.46.38-.21.09-.48.13-.8.13H13.3Z"/></svg>