<!-- by TradingView --><svg width="56" height="56" viewBox="0 0 56 56" xmlns="http://www.w3.org/2000/svg"><path fill="#F0F3FA" d="M0 0h56v56H0z"/><path d="M17.47 29.14h-.02a.05.05 0 0 1-.04-.04v-.03l8-14.86c.72-1.33 2.54-1.56 3.7-.72.28.2.62.68 1.03 1.43a1637.5 1637.5 0 0 1 6.07 11.36s0 .02-.02.02a9.48 9.48 0 0 1-4.76 2.24.3.3 0 0 1-.3-.14l-3.47-6.34a.07.07 0 0 0-.07-.04.08.08 0 0 0-.07.04L24 28.46a.3.3 0 0 1-.28.16c-2.15-.13-4.13-.11-6.25.52Z" fill="#536F87"/><path d="M42.25 21.34c.41 0 .75-.33.75-.74a.75.75 0 0 0-.75-.74.75.75 0 0 0-.76.74c0 .41.34.74.76.74ZM40.98 25.25c.59 0 1.06-.47 1.06-1.04 0-.58-.47-1.05-1.06-1.05-.58 0-1.06.47-1.06 1.05 0 .57.48 1.04 1.06 1.04ZM37.98 29.16c.77 0 1.4-.61 1.4-1.37 0-.76-.63-1.37-1.4-1.37-.77 0-1.39.61-1.39 1.37 0 .76.62 1.37 1.4 1.37ZM33.2 32.15c.88 0 1.59-.7 1.59-1.56 0-.86-.71-1.56-1.59-1.56-.87 0-1.58.7-1.58 1.56 0 .87.7 1.56 1.58 1.56ZM26.85 32.81c1.02 0 1.84-.8 1.84-1.8s-.82-1.81-1.84-1.81c-1.01 0-1.83.8-1.83 1.8s.82 1.8 1.83 1.8ZM20.52 32.53c.88 0 1.59-.7 1.59-1.56 0-.86-.71-1.56-1.59-1.56-.87 0-1.58.7-1.58 1.56 0 .86.7 1.56 1.58 1.56ZM38.48 30.66a.06.06 0 0 1 .07 0l.02.01C39.9 33.1 41.2 35.54 42.5 38c.48.91-.16 1.88-1.22 1.97-.24.02-.85.03-1.83.02-1.17 0-1.97.03-2.47-.9a505.04 505.04 0 0 1-2.95-5.56.1.1 0 0 1 .03-.08 11.68 11.68 0 0 0 4.41-2.79ZM15.68 33.8c.77 0 1.39-.62 1.39-1.38 0-.75-.62-1.37-1.4-1.37-.76 0-1.38.62-1.38 1.37 0 .76.62 1.37 1.39 1.37Z" fill="#23B2BA"/><path d="M21.31 33.19a.05.05 0 0 1 .05.07l-3.23 5.87c-.34.6-.93.86-1.67.85-.47 0-1.6.12-2.14-.18-.9-.5-.83-1.32-.33-2.15 1.62-2.72 4.1-4.44 7.32-4.46Z" fill="#536F87"/><path d="M12.3 36.9c.6 0 1.09-.48 1.09-1.06 0-.59-.49-1.06-1.08-1.06-.6 0-1.08.47-1.08 1.06 0 .58.48 1.06 1.08 1.06ZM10 39.38v-.3c.14-.39.4-.57.75-.52.29.04.47.18.54.42.07.23.01.44-.17.65-.32.38-.7.3-1.12-.25Z" fill="#23B2BA"/></svg>