<!-- by TradingView --><svg width="56" height="56" viewBox="0 0 56 56" xmlns="http://www.w3.org/2000/svg"><path fill="#F0F3FA" d="M0 0h56v56H0z"/><path d="M25.53 42.57h.02a.05.05 0 0 0 .04-.03V8.07a.05.05 0 0 1 .02-.04.05.05 0 0 1 .04-.01h2.24a.1.1 0 0 1 .08.03.1.1 0 0 1 .03.07V45.8a.2.2 0 0 1-.06.14.2.2 0 0 1-.16.06 14.24 14.24 0 0 1-10.3-4.65 13.44 13.44 0 0 1-.56-17.38 14.14 14.14 0 0 1 8.01-5.01.11.11 0 0 1 .08.06l.01.04v2.96c0 .05-.02.1-.05.14a.24.24 0 0 1-.12.09c-2.25.7-4.08 1.96-5.47 3.75a10.3 10.3 0 0 0 .03 12.66 10.94 10.94 0 0 0 6.12 3.9Z" fill="#F16E25"/><path d="M30.53 8.1v10.01a.11.11 0 0 1-.03.08.1.1 0 0 1-.07.03l-2.01-.2a.1.1 0 0 1-.07-.03.11.11 0 0 1-.02-.07V8.14c0-.03 0-.05.02-.07a.1.1 0 0 1 .07-.03l2-.04a.1.1 0 0 1 .08.03.11.11 0 0 1 .03.08ZM30.67 42.5v.03a.07.07 0 0 0 .09.04 10.6 10.6 0 0 0 7.93-12.11 10.57 10.57 0 0 0-10.25-8.7c-.08 0-.12-.04-.12-.11v-2.86a.14.14 0 0 1 .15-.14c5.46 0 10.35 3.36 12.45 8.34a13.66 13.66 0 0 1-12.56 18.98.08.08 0 0 1-.03-.06V22.4a.06.06 0 0 1 .02-.04l.03-.01h.02l2 .17a.23.23 0 0 1 .21.2c.04.3.05.56.05.76l.01 19.01Z" fill="#72CCDF"/></svg>