<!-- by TradingView --><svg width="56" height="56" viewBox="0 0 56 56" xmlns="http://www.w3.org/2000/svg"><path fill="#F0F3FA" d="M0 0h56v56H0z"/><path d="m21.56 10 .55.46a27.69 27.69 0 0 1 5.58 6.7c1.84 3.08 3.35 6.91 3.35 11.1 0 4.18-1.5 7.94-3.36 10.93a25.58 25.58 0 0 1-5.59 6.4l-.52.41-.52-.4a25.98 25.98 0 0 1-5.7-6.45c-1.87-2.99-3.39-6.75-3.35-10.9.04-4.14 1.57-7.97 3.43-11.05a28.6 28.6 0 0 1 5.59-6.74l.54-.46Zm.01 2.19a27.9 27.9 0 0 0-4.7 5.84c-1.76 2.93-3.15 6.47-3.2 10.23-.03 3.76 1.35 7.21 3.12 10.03a25.12 25.12 0 0 0 4.78 5.6 24.77 24.77 0 0 0 4.67-5.56 19.28 19.28 0 0 0 3.12-10.07c0-3.8-1.37-7.35-3.12-10.27a26.97 26.97 0 0 0-4.67-5.8Z" fill="url(#a)"/><path d="m25.86 10 .55.46a27.69 27.69 0 0 1 5.57 6.7c1.85 3.08 3.35 6.91 3.35 11.1 0 4.18-1.5 7.94-3.35 10.93a25.57 25.57 0 0 1-5.6 6.4l-.51.41-.52-.4a25.98 25.98 0 0 1-5.7-6.45c-1.88-2.99-3.4-6.75-3.35-10.9.04-4.14 1.57-7.97 3.43-11.05a28.6 28.6 0 0 1 5.59-6.74l.54-.46Zm0 2.19a27.9 27.9 0 0 0-4.69 5.84c-1.76 2.93-3.16 6.47-3.2 10.23-.03 3.76 1.34 7.21 3.11 10.03a25.12 25.12 0 0 0 4.78 5.6 24.77 24.77 0 0 0 4.68-5.56 19.28 19.28 0 0 0 3.12-10.07c0-3.8-1.38-7.35-3.12-10.27a26.97 26.97 0 0 0-4.67-5.8Z" fill="url(#b)"/><path d="m30.38 10 .54.46a27.68 27.68 0 0 1 5.58 6.7c1.84 3.08 3.35 6.91 3.35 11.1 0 4.18-1.5 7.94-3.36 10.93a25.58 25.58 0 0 1-5.59 6.4l-.52.41-.52-.4a25.98 25.98 0 0 1-5.7-6.45c-1.87-2.99-3.39-6.75-3.35-10.9.04-4.14 1.57-7.97 3.43-11.05a28.6 28.6 0 0 1 5.6-6.74l.54-.46Zm0 2.19a27.9 27.9 0 0 0-4.7 5.84c-1.76 2.93-3.15 6.47-3.19 10.23-.04 3.76 1.34 7.21 3.1 10.03a25.12 25.12 0 0 0 4.79 5.6 24.77 24.77 0 0 0 4.68-5.56 19.28 19.28 0 0 0 3.11-10.07c0-3.8-1.37-7.35-3.12-10.27a26.98 26.98 0 0 0-4.67-5.8Z" fill="url(#c)"/><path d="m34.53 10 .55.46a27.69 27.69 0 0 1 5.57 6.7c1.84 3.08 3.35 6.91 3.35 11.1 0 4.18-1.5 7.94-3.36 10.93a25.58 25.58 0 0 1-5.59 6.4l-.52.41-.52-.4a25.98 25.98 0 0 1-5.7-6.45c-1.87-2.99-3.39-6.75-3.35-10.9.04-4.14 1.57-7.97 3.43-11.05a28.6 28.6 0 0 1 5.6-6.74l.54-.46Zm0 2.19a27.9 27.9 0 0 0-4.69 5.84c-1.77 2.93-3.16 6.47-3.2 10.23-.04 3.76 1.34 7.21 3.1 10.03a25.12 25.12 0 0 0 4.79 5.6 24.77 24.77 0 0 0 4.68-5.56 19.28 19.28 0 0 0 3.11-10.07c0-3.8-1.37-7.35-3.12-10.27a26.97 26.97 0 0 0-4.67-5.8Z" fill="url(#d)"/><defs><linearGradient id="a" x1="12" y1="28" x2="31.04" y2="28" gradientUnits="userSpaceOnUse"><stop stop-color="#B4BE42"/><stop offset="1" stop-color="#FBD206"/></linearGradient><linearGradient id="b" x1="16.3" y1="28" x2="35.33" y2="28" gradientUnits="userSpaceOnUse"><stop stop-color="#1BB5A2"/><stop offset="1" stop-color="#82C44D"/></linearGradient><linearGradient id="c" x1="20.81" y1="28" x2="39.85" y2="28" gradientUnits="userSpaceOnUse"><stop stop-color="#1BA4D8"/><stop offset="1" stop-color="#20B066"/></linearGradient><linearGradient id="d" x1="24.96" y1="28" x2="44" y2="28" gradientUnits="userSpaceOnUse"><stop stop-color="#046AAD"/><stop offset="1" stop-color="#018A63"/></linearGradient></defs></svg>