<!-- by TradingView --><svg width="56" height="56" viewBox="0 0 56 56" xmlns="http://www.w3.org/2000/svg"><path fill="#F0F3FA" d="M0 0h56v56H0z"/><path d="M16 12.86c0-.72 0-.8-.41-1.02l-.14-.07c-.07-.04-.07-.21 0-.25.32-.11.98-.27 1.5-.52.06 0 .09.02.11.07v4.08c0 .2.03.26.11.26.36-.19.65-.41 1.33-.41 1.57 0 2.5.85 2.5 2.21 0 1.64-.93 2.79-2.78 2.79-.6 0-1.17-.2-1.75-.2-.11 0-.22.1-.3.19l-.05.01a.13.13 0 0 1-.12-.07v-7.07Zm1.06 3.57v1.72c0 .85.49 1.48 1.37 1.48 1.3 0 1.57-.99 1.57-2.05 0-1.27-.5-2.05-1.86-2.05-.41 0-.75.09-.94.2-.14.08-.14.22-.14.7ZM40.66 31.73l.95-.3c.12-.04.13-.1.13-.2l.01-.33c0-.27-.09-.62-.58-.62-.22 0-.5.1-.51.32 0 .11-.02.2-.08.24a.93.93 0 0 1-.45.13c-.07 0-.11-.03-.11-.1 0-.37.9-.87 1.48-.87.57 0 .85.3.82.83l-.04 1.24c-.02.33.05.62.36.62a.5.5 0 0 0 .2-.05l.1-.05c.04 0 .06.05.06.1 0 .03-.28.31-.67.31a.67.67 0 0 1-.52-.22c-.03-.04-.08-.1-.12-.1-.06 0-.15.06-.31.14-.18.09-.35.18-.58.18a.89.89 0 0 1-.55-.16.64.64 0 0 1-.25-.5c0-.28.15-.44.66-.6Zm-.05.52c0 .12.1.43.5.43.16 0 .41-.1.49-.18.1-.08.1-.18.1-.33l.02-.42c0-.08-.03-.1-.08-.1s-.18.03-.33.08c-.47.14-.7.25-.7.52ZM34.44 31.08h-1.61c-.23 0-.24.01-.24.2 0 .71.52 1.32 1.45 1.32.29 0 .53-.07.8-.35.09-.02.15.02.16.09-.29.48-.92.66-1.37.66-.57 0-1.01-.2-1.26-.47a1.33 1.33 0 0 1-.37-.92c0-.88.7-1.61 1.75-1.61.75 0 1.24.42 1.24.85 0 .1-.02.15-.03.18-.03.04-.15.05-.52.05Zm-1.69-.21h.62c.64 0 .84-.03.9-.07.03-.02.06-.05.06-.14 0-.2-.17-.45-.67-.45-.52 0-.96.39-.97.62 0 .02 0 .04.06.04ZM24.42 32.19v-1.24c0-.27 0-.3-.19-.43l-.06-.05c-.02-.03-.02-.1.01-.12.16-.06.6-.24.77-.35.03 0 .05.02.05.05v.4c0 .04 0 .07.02.07.24-.2.42-.42.67-.42.17 0 .31.11.31.28a.3.3 0 0 1-.3.33c-.06 0-.1-.03-.14-.05-.1-.07-.13-.12-.23-.12a.3.3 0 0 0-.24.14c-.07.1-.09.3-.09.55v.96c0 .5.01.6.27.61l.25.02c.05.04-.02.18-.02.18h-1.46s-.06-.14-.01-.18l.13-.02c.25-.04.26-.1.26-.61ZM17 30c.2 0 .52.04.74.12.07.05.13.16.13.29 0 .12-.09.26-.18.26a.15.15 0 0 1-.12-.05 1.2 1.2 0 0 0-.83-.38c-.58 0-1.14.4-1.14 1.15 0 .55.44 1.21 1.33 1.21.48 0 .73-.18.92-.42.07-.02.14.03.15.1-.28.52-.9.72-1.38.72-.44 0-.85-.12-1.14-.36a1.32 1.32 0 0 1-.48-1.05c0-.77.63-1.59 2-1.59ZM40 43.19v-1.24c0-.27 0-.3-.17-.43l-.06-.05c-.03-.03-.03-.1 0-.12.15-.06.52-.24.65-.35.02 0 .05.01.07.05-.02.16-.02.27-.02.33 0 .04.03.08.07.08.27-.18.39-.36.71-.36.53 0 .75.4.75.87v1.22c0 .5.01.58.24.61l.14.02c.05.04-.01.18-.01.18h-1.2s-.05-.14 0-.18l.11-.02c.24-.04.25-.1.25-.61v-1.05c0-.4-.17-.7-.42-.7-.24 0-.45.11-.54.24-.08.12-.1.22-.1.43v1.08c0 .5.02.57.25.61l.11.02c.05.04-.01.18-.01.18h-1.18s-.06-.14-.02-.18l.14-.02c.23-.03.24-.1.24-.61ZM33.54 41c.8 0 1.46.6 1.46 1.47 0 .89-.62 1.53-1.52 1.53-.83 0-1.48-.58-1.48-1.46 0-.9.69-1.54 1.54-1.54Zm.84 1.59c0-.6-.25-1.38-.93-1.38-.48 0-.83.45-.83 1.23 0 .65.3 1.35.93 1.35.64 0 .83-.66.83-1.2ZM24.36 43.27v-1.12c0-.25 0-.28-.27-.4l-.1-.03c-.03-.03-.03-.1.02-.12.23-.05.68-.22.91-.31.05 0 .07.01.08.04v1.94c0 .46 0 .52.36.55l.2.02c.08.03-.01.16-.01.16h-1.76s-.1-.13-.02-.16l.2-.02c.38-.03.39-.1.39-.55ZM16.94 41.7h-.8c-.13 0-.14.02-.14.15v1.18c0 .36.02.7.51.7.07 0 .14-.02.2-.04.07-.02.17-.09.19-.09.06 0 .09.07.07.11-.13.13-.4.29-.78.29-.65 0-.78-.3-.78-.68V41.9c0-.17-.01-.19-.16-.19h-.21c-.04-.02-.05-.1-.02-.13.22-.05.4-.14.48-.2.1-.07.24-.24.31-.36.04-.02.17-.02.2.03v.28c0 .11 0 .12.13.12h.8c.09.06.07.23 0 .26ZM38 17.26v-1.63c0-.24-.05-.35-.2-.35h-.32c-.04 0-.05-.01-.05-.06v-.16c0-.05 0-.06.06-.06h2.12c.06 0 .06.01.06.06v.17c0 .04 0 .05-.05.05h-.24c-.23 0-.35.13-.37.27l-.01.9v.45l.03 1.46c.02.67.41 1.2 1.13 1.2.8 0 1.35-.68 1.35-1.42v-2.56c-.03-.17-.19-.3-.3-.3h-.16c-.04 0-.05-.02-.05-.05v-.18c0-.04 0-.05.05-.05h1.45c.06 0 .07.03.07.06v.15c0 .04 0 .07-.04.07h-.22c-.26 0-.28.2-.3.26L42 16.7c0 .1-.01 1.3-.03 1.57A1.9 1.9 0 0 1 40 20C38.28 20 38 18.76 38 17.26Z"/><circle cx="38.5" cy="13.5" r=".5"/><circle cx="41.5" cy="13.5" r=".5"/><path d="M25 40.5c0-.27-.2-.5-.48-.5a.5.5 0 0 0-.52.52c0 .26.2.48.49.48.27 0 .51-.15.51-.5Z"/></svg>