<!-- by TradingView --><svg width="56" height="56" viewBox="0 0 56 56" xmlns="http://www.w3.org/2000/svg"><path fill="#F0F3FA" d="M0 0h56v56H0z"/><path d="M16.05 24.53c.25.3.55.5.88.61 2 .68 4.34 1.36 4.04 4.07-.14 1.28-.86 2.12-2.16 2.54a5.4 5.4 0 0 1-4.74-.75.12.12 0 0 1-.06-.11v-2.25a.04.04 0 0 1 .02-.03.04.04 0 0 1 .04 0c1.6 1.49 3.04 1.94 4.33 1.37 1.12-.51.89-1.88-.15-2.34-1.8-.8-4.33-1.17-4.25-3.8.04-1.36.93-2.32 2.23-2.66a4.79 4.79 0 0 1 4.2.82c.02.02.02.04.02.06v2.17a.04.04 0 0 1-.02.03h-.04c-1.76-1.53-3.16-1.88-4.2-1.06-.36.3-.44.97-.14 1.33ZM23.68 32.06v2.88c0 .04-.02.06-.05.06h-1.58c-.01 0-.02 0-.03-.02a.06.06 0 0 1-.02-.04v-10.2a.2.2 0 0 1 .03-.11.18.18 0 0 1 .08-.07 6.75 6.75 0 0 1 4.42-.33c2.26.67 2.9 3.3 2.2 5.41a3.46 3.46 0 0 1-3 2.38 5.2 5.2 0 0 1-1.9-.08c-.1-.02-.15.02-.15.12Zm-.01-5.92.01 3.85a.57.57 0 0 0 .15.38.5.5 0 0 0 .36.16h.88c.6 0 1.16-.25 1.58-.7.42-.44.66-1.04.65-1.67v-.22a2.45 2.45 0 0 0-.66-1.66 2.24 2.24 0 0 0-1.59-.68h-.88a.48.48 0 0 0-.36.16.54.54 0 0 0-.14.38ZM34.3 27.2c.33-2.4-2.5-1.67-3.57-1.02a.04.04 0 0 1-.04 0l-.01-.02V24.7c0-.03 0-.05.03-.07 1.41-.75 4.14-1.11 5.03.64.17.32.26.94.26 1.87v4.44c0 .08-.04.13-.12.14-1.87.4-5.85.82-5.88-2.02-.02-2.23 2.43-2.44 4.17-2.37.08 0 .12-.04.13-.11Zm.03 3.28-.03-1.83a.16.16 0 0 0-.05-.1.15.15 0 0 0-.1-.05l-.9.02c-.2 0-.4.03-.59.09-.19.05-.35.12-.5.22-.14.09-.25.2-.32.32a.67.67 0 0 0-.11.37v.2c0 .12.05.25.13.37.08.11.2.22.34.3.14.1.31.16.5.2.19.05.39.07.59.07l.9-.02a.15.15 0 0 0 .1-.05.15.15 0 0 0 .04-.1ZM38.85 28.02c.02 2.54 2.83 3 4.52 1.7l.02-.01h.01a.03.03 0 0 1 .02.03v1.63c0 .04-.02.06-.05.08-2.81 1.43-6.34 0-6.37-3.41-.03-3.41 3.47-4.9 6.3-3.53.04.01.05.04.06.07l.03 1.64v.01a.03.03 0 0 1-.05.01c-1.72-1.27-4.52-.75-4.5 1.78Z" fill="#0071BA"/><path d="M46.27 28.42c-.59-.05-.7.2-.33.77l.33.5c.43.46 1.02.74 1.64.78a4.3 4.3 0 0 0 2.77-.73.03.03 0 0 1 .01.03v1.5a.1.1 0 0 1-.05.1 5.3 5.3 0 0 1-4.35.3c-3.27-1.19-2.96-6.73.43-7.53a3.65 3.65 0 0 1 2.72.26c1.44.82 1.65 2.38 1.53 3.92 0 .08-.04.11-.12.11-2.84.01-4.36 0-4.58-.01Zm-.37-1.17 3.43-.02h.02l.01-.02v-.01a1.7 1.7 0 0 0-1.08-1.59 1.75 1.75 0 0 0-1.9.38c-.33.33-.51.77-.51 1.23v.02l.03.01Z" fill="#0071BA"/><path d="M12.26 30.51v1.42l-.02.05a.07.07 0 0 1-.05.02H6.07c-.02 0-.04 0-.05-.02a.08.08 0 0 1-.02-.05v-1.48c0-.01 0-.03.02-.05l3.85-4.77a.08.08 0 0 0-.02-.11.07.07 0 0 0-.04-.02H6.24c-.02 0-.03 0-.05-.02a.08.08 0 0 1-.02-.05v-1.36c0-.02 0-.03.02-.05a.07.07 0 0 1 .05-.02h5.77c.02 0 .04 0 .05.02.02.02.02.03.02.05v1.4l-.01.05-3.87 4.8a.08.08 0 0 0 0 .08s0 .02.02.03h3.97c.02 0 .03.02.05.03l.02.05Z" fill="#1BBFDD"/></svg>