<!-- by TradingView --><svg width="56" height="56" viewBox="0 0 56 56" xmlns="http://www.w3.org/2000/svg"><path fill="#F0F3FA" d="M0 0h56v56H0z"/><circle cx="32" cy="11" r="3" fill="#DB261C"/><path d="M29.7 14c.3.44 1.44 1.2 3.43.66l-.4 1.94c2.01.6 3.05 1.45 3.38 1.66.5.33 1.19 1.08.93 1.5-.25.42-.85.25-1.95-.58-.67-.51-1.53-1.17-2.56-1.6l-1.37 6.66c.89.9 1.77 1.77 2.48 2.54 2.38 2.6 5.36 5.6 5.36 9.11C39 41.74 33.47 44 27.85 44c-.46 0-.9-.02-1.33-.05-1.1 2.04-2.85 4.05-5.16 4.05-1.46 0-2.23-.83-2.23-2.57 0-.87.29-2.11.93-3.32a10.91 10.91 0 0 1-1.9-1.29c-.77-.66-1.45-1.42-1.03-1.92.43-.5 1.02-.17 1.79.5a9.08 9.08 0 0 0 1.85 1.58A7.39 7.39 0 0 1 23 39c-.26.7-.63 1.71-.93 2.68.46.2.92.35 1.36.47a22.85 22.85 0 0 0 1.79-6.58c-.76-.78-1.48-1.49-1.96-2.02-1.62-1.75-5.7-6.1-5.7-9.86 0-5.82 7.09-7.55 10.63-7.69.37 0 .72.01 1.06.03l.44-2.03Zm-3.78 23.08c-1.11 6.74-3.07 8.47-4.1 8.47-.82 0-.72-2.06-.66-2.94l-.68-.26c-.94 2.3-.45 4.65.92 4.65 3.4 0 5.17-5.9 5.62-8.8l-1.1-1.12Zm-4.2 5.8c-.2.86-.24 1.48.07 1.48.3 0 .67-.4 1.07-1.08-.4-.12-.78-.26-1.13-.4Zm6-1.83c-.13.44-.3.96-.54 1.51 1.5-.12 1.82-.9 1.82-1.74 0-.5-.33-1.16-.85-1.89l-.43 2.12Zm-5.51-1.32a24.6 24.6 0 0 0-1.11 1.45l.5.17c.18-.43.54-1.35.6-1.62ZM29 21.95 30.35 23 32 16h-1.45L29 21.95Zm0-4.76c-1.26.2-2 .74-2 1.57 0 .57.46 1.35 1.16 2.24l.83-3.81Z" fill="#DB261C"/></svg>