<!-- by TradingView --><svg width="56" height="56" viewBox="0 0 56 56" xmlns="http://www.w3.org/2000/svg"><path fill="#F0F3FA" d="M0 0h56v56H0z"/><path d="M37 15v-4c-1.2 1.6-4.5 2-6 2-11.6 0-14.83 8.67-15 13h-3c-3.2 0-4 2-4 3h17c2.4 0 3.67-2 4-3H19c1-10.5 9-12.5 12-12.5 1.5 0 2.5 0 3.5.5 1.26.63 2.17 1 2.5 1Z" fill="url(#a)"/><path d="M19 31h-3c0 6 8 12 14 12 2.5 0 2-.5 4-.5 1.6 0 2.67 1.67 3 2.5v-4c-2.4 0-2.85 1.5-7 1.5-6 0-10.17-7.67-11-11.5Z" fill="url(#b)"/><defs><linearGradient id="a" x1="23" y1="11" x2="23" y2="45" gradientUnits="userSpaceOnUse"><stop stop-color="#8FB7E7"/><stop offset="1" stop-color="#0D1570"/></linearGradient><linearGradient id="b" x1="23" y1="11" x2="23" y2="45" gradientUnits="userSpaceOnUse"><stop stop-color="#8FB7E7"/><stop offset="1" stop-color="#0D1570"/></linearGradient></defs></svg>