<!-- by TradingView --><svg width="56" height="56" viewBox="0 0 56 56" xmlns="http://www.w3.org/2000/svg"><path fill="#F0F3FA" d="M0 0h56v56H0z"/><path d="M28 12a16 16 0 1 1-10.8 27.8 5.06 5.06 0 0 1 2.2-.88c1.59-.13 3.15-.24 4.68-.34a.45.45 0 0 1 .35.15.43.43 0 0 1 .1.36c-.19.97 0 1.69.55 2.16a.44.44 0 0 1 .11.52c-.15.33-.42.57-.78.73a.26.26 0 0 0-.06.44c.04.04.1.06.16.06h4.92a.24.24 0 0 0 .16-.07.23.23 0 0 0 .07-.16v-.25a.25.25 0 0 0-.24-.24h-2.09a1.09 1.09 0 0 1-1.04-.8c-.33-1.31-.18-2.34.46-3.1.1-.11.23-.21.37-.27 3.1-1.45 5.22-2.4 6.8-5.7 2.07-4.28.21-8.35-3.59-10.9a.23.23 0 0 0-.35.16c0 .05.01.1.04.15l1.56 2.23a.32.32 0 0 1-.07.45h-.01a.36.36 0 0 1-.25.08.37.37 0 0 1-.24-.11c-2.04-2.19-3.14-3.03-3.69-5.17a.45.45 0 0 1 .17-.47.46.46 0 0 1 .51-.02 83.64 83.64 0 0 0 12.72 6.17.22.22 0 0 0 .23-.06.2.2 0 0 0 .03-.23 3.95 3.95 0 0 0-1-1.16c-2.24-1.91-4.47-3.79-6.7-5.63a3.55 3.55 0 0 1-.79-.92c-.6-1-1.46-2.76-2.7-2.92a7.42 7.42 0 0 0-6.2 2.12.24.24 0 0 0 .02.37c.03.03.08.04.13.05.46.01.81.13 1.05.34a.46.46 0 0 1 .13.5c-.81 2.25.82 4.68 2.6 6.05 2.34 1.8 5.04 3.81 3.44 7.2-1.99 4.22-6.84 6.63-11.52 6.98-.95.07-2 .48-3.16 1.22A16 16 0 0 1 28 12Zm1.6 17.9c1.2-2.5-.43-4.25-3.03-3.84-2.74.43-5.1 1.7-7.09 3.83A13.6 13.6 0 0 0 16 36.74a.21.21 0 0 0 .1.22.23.23 0 0 0 .24 0 21.6 21.6 0 0 0 4.54-3.87.25.25 0 0 1 .33-.03c.05.03.08.08.1.14 0 .06 0 .12-.03.17l-1.44 2.43a.27.27 0 0 0-.04.17c0 .06.02.11.06.16a.29.29 0 0 0 .33.07 8.44 8.44 0 0 0 4.31-3.75.35.35 0 0 1 .22-.17h.14l.12.06c.06.05.08.14.06.27-.08.38-.3.93-.67 1.66a.34.34 0 0 0 .08.41.37.37 0 0 0 .43.06 10.95 10.95 0 0 0 4.71-4.85Zm.12-14.9c.13 0 .26.05.38.13.1.08.2.2.26.33.93 2.17 3.28 3.85 4.58 5.16a.2.2 0 0 1 .06.15c0 .03 0 .06-.02.09a.22.22 0 0 1-.04.07l-.03.03a.13.13 0 0 1-.08.04c-.03 0-.06 0-.09-.03l-5.23-4.25c-.49-.4-.62-.83-.42-1.3a.73.73 0 0 1 .26-.31.63.63 0 0 1 .37-.11Z" fill="#022952"/></svg>