<!-- by TradingView --><svg width="56" height="56" viewBox="0 0 56 56" xmlns="http://www.w3.org/2000/svg"><path fill="#F0F3FA" d="M0 0h56v56H0z"/><path d="M18 26.53c9.26-6.98 16.49-7.86 19-7.54-16 4.78-16 9.29-16 10.2v.01c1.96 6.81 9.63 13.86 14.4 13.86 4.79 0 6.75-6.41 7.6-8.75C43 39.17 41.04 45 34.66 45c-11.15 0-15.82-11.54-16.2-12.6-2.38.26-5.46-1.66-5.46-8.25 0-5.28 5.05-9.62 7.51-11.23-.28-.25-.98-1.07-.98-1.54 0-1.06 1.7-1.36 2.47-1.38-.42.2-1.4.71-1.4 1.22 0 .64.82 1.06 1.4 1.7-5.42 3.35-6 7.08-6 9.26 0 2.18 1.1 2.8 2 4.35Z" fill="#1F63AD"/></svg>