<!-- by TradingView --><svg width="56" height="56" viewBox="0 0 56 56" xmlns="http://www.w3.org/2000/svg"><path fill="#A78347" d="M0 0h56v56H0z"/><path d="M39.55 40.96a.05.05 0 0 1-.04.04.05.05 0 0 1-.06-.02c-.49-.84-.8-1.5-1-2.48l-.39-1.86c-.1-.5-.32-1.17-.66-1.69a6.05 6.05 0 0 1-1.07-2.7 12 12 0 0 1 .02-1.9 8 8 0 0 1 1.58-4.23c.09-.13.13-.29.12-.45-.12-1.84-.16-3.8 2.16-4.2a.06.06 0 0 1 .06.02l.01.04-.01.03c-.86 1.03-2 3.4-.31 4.21.62.3 1.02.53 1.2.68.56.5 1.04.95 1.45 1.35.5.5 1.48 1.37 2.2 1.35a.41.41 0 0 0 .38-.33c.13-.57-.23-1.55-.45-2.07A94.36 94.36 0 0 0 42.49 22c-.48-.94-.9-1.45-1.61-2.5a.3.3 0 0 1-.02-.3c.29-.59.62-1.25 1.15-1.68a30.95 30.95 0 0 1 .7-.51.07.07 0 0 1 .07.03l.01.04-.04 1.21a5.54 5.54 0 0 0 .6 2.9c.33.62.78 1.22 1.1 1.97a103 103 0 0 0 2.19 4.77c.43.88.6 2.28-.2 3.04-.69.65-1.51.8-2.47.44-.3-.1-.53-.73-.68-1.07a.7.7 0 0 0-.27-.31 49.2 49.2 0 0 1-3-2c-.4-.29-.73-.63-1-1.02a.13.13 0 0 0-.17-.03c-1.25.7-1.53 1.98-1.56 3.34a5.9 5.9 0 0 0 1.15 3.58c.55.83 1.27 2.02 1.34 2.93.09 1.24 0 2.75-.23 4.14Z" fill="#CCCACE"/><path d="M26.44 37.58a.04.04 0 0 1-.05-.02.04.04 0 0 1 0-.04c1.46-1.36 2.77-3.22 3.16-5.14a5.92 5.92 0 0 0-1.2-4.9.17.17 0 0 1-.02-.17 18.07 18.07 0 0 1 4.2-5.67A10.04 10.04 0 0 1 40.06 19l.01.03a.04.04 0 0 1-.03.04c-.75.04-1.4.12-1.94.24-3.63.8-5.3 4.7-6.51 7.8a.25.25 0 0 0 .04.24c.2.24.4.53.6.86 1.01 1.6.78 3.48-.3 5-1.34 1.9-3.33 3.19-5.48 4.36ZM27.59 28.4h.02l.02.02a.04.04 0 0 1-.02.05c-6.47 2.94-15.13 4.93-20.55-1.25A14.4 14.4 0 0 1 5 24.13l.01-.02a.05.05 0 0 1 .06-.01c4.7 2.18 9.6 3.59 14.73 4.22 2.67.33 5.27.36 7.79.08Z" fill="#CCCACE"/><path d="M27.89 29.7a.07.07 0 0 1 .05.04.07.07 0 0 1 0 .06 12.04 12.04 0 0 1-5 4.77c-3.51 1.82-7.34 1.18-10.42-1.13a.88.88 0 0 1-.2-.18.05.05 0 0 1 .05-.08c.32.04.58.06.8.07a28.78 28.78 0 0 0 14.72-3.55ZM20.86 37.65a.07.07 0 0 1-.06-.06.07.07 0 0 1 .03-.08c3.1-1.61 6.03-4 7.69-7.08a.05.05 0 0 1 .06-.02l.02.01.02.03a7.6 7.6 0 0 1-.73 3.62 5.88 5.88 0 0 1-4.18 3.37c-.94.23-1.89.3-2.85.21Z" fill="#CCCACE"/></svg>