<!-- by TradingView --><svg width="56" height="56" viewBox="0 0 56 56" xmlns="http://www.w3.org/2000/svg"><path fill="#F0F3FA" d="M0 0h56v56H0z"/><path d="M19 20.5v5.9c.68-3.23 3.31-5.42 9-4.29 4.56.9 7.23.64 8 .39l-3.89-5.42a37.7 37.7 0 0 1-4.1-.74c-1.2-.35-4.47-.92-6.63.35a5.2 5.2 0 0 0-2.38 3.8Z" fill="url(#a)"/><path d="M19 28.74v5.92c.68-3.24 3.28-5.42 8.9-4.3 4.51.9 5.34-1.02 6.1-1.26l-2.03-3.77c-.96-.13-3.12-.46-4.06-.74-1.18-.35-4.42-.92-6.56.35a5.22 5.22 0 0 0-2.35 3.8Z" fill="url(#b)"/><path d="m31.56 19.97.22-1.47h9.07l.57 1.47-4.26 3.2h-1.22l-4.38-3.2Z" fill="url(#c)"/><path d="m32.05 18.59-1.91-4.49c.18.1 2.42.38 2.49.49.05.09 1.27 1.5 1.88 2.18h3.47l1.86-1.86 3.08-.8-2.24 4.48h-8.63Z" fill="#DFDFDF"/><path d="M33.56 16.43a5.7 5.7 0 0 0-3.49-2.3c1.16-.27 3.77-.29 4.91 1.75 0 .09-.4.54-.6.75l-.82-.2Zm5.95 0a5.7 5.7 0 0 1 3.49-2.3c-1.16-.27-3.77-.29-4.91 1.75 0 .09.4.54.6.75l.82-.2Z" fill="url(#d)"/><path d="M39.13 16h-5.1c-1.07.51-2.02 2.01-2.36 2.7a5.64 5.64 0 0 1 4.04 4.64h1.63c.02-1.1.76-3.52 3.58-4.46A5.63 5.63 0 0 0 39.13 16Z" fill="url(#e)"/><path d="M37.3 22.97h-1.6l.78 1.06.82-1.06Z" fill="#150D02"/><path d="M33.03 25.25c-1.77 0-4.16-.54-5.13-.8.22 1.87 2.45 3.68 3.53 4.36H27.2c.68.7 2.57 2.1 4.7 2.1 3.98 0 4.7-4.41 4.55-6.62-.4.32-1.65.96-3.42.96Z" fill="url(#f)"/><path d="M25 37.06c0-3.44 2.02-4.8 3-5.06h-3.2c-4.36 0-5.68 4.51-5.8 6.77v3.27A2.99 2.99 0 0 0 22.02 45 2.95 2.95 0 0 0 25 42.04v-4.98Z" fill="url(#g)"/><defs><linearGradient id="a" x1="18.64" y1="22.39" x2="33.23" y2="22.39" gradientUnits="userSpaceOnUse"><stop stop-color="#BCBCBC"/><stop offset=".19" stop-color="#D9D9DB"/><stop offset=".43" stop-color="#BCBCBC"/><stop offset="1" stop-color="#878586"/></linearGradient><linearGradient id="b" x1="18.64" y1="30.65" x2="33.07" y2="30.65" gradientUnits="userSpaceOnUse"><stop stop-color="#BCBCBC"/><stop offset=".19" stop-color="#D9D9DB"/><stop offset=".43" stop-color="#BCBCBC"/><stop offset="1" stop-color="#878586"/></linearGradient><linearGradient id="c" x1="38.31" y1="19.68" x2="40.24" y2="17.42" gradientUnits="userSpaceOnUse"><stop stop-color="#CACACA"/><stop offset="1" stop-color="#918F90"/></linearGradient><linearGradient id="d" x1="34.23" y1="12.43" x2="34.23" y2="15.88" gradientUnits="userSpaceOnUse"><stop offset=".42" stop-color="#727071"/><stop offset="1" stop-color="#9E9C9D"/></linearGradient><linearGradient id="e" x1="36.3" y1="16" x2="36.3" y2="23.34" gradientUnits="userSpaceOnUse"><stop offset=".17" stop-color="#727071"/><stop offset="1" stop-color="#D9D9DB"/></linearGradient><linearGradient id="f" x1="32.6" y1="28.02" x2="35.11" y2="29.38" gradientUnits="userSpaceOnUse"><stop stop-color="#D5D3D4"/><stop offset="1" stop-color="#EBEAEB"/></linearGradient><linearGradient id="g" x1="28.44" y1="33.63" x2="20.7" y2="44.68" gradientUnits="userSpaceOnUse"><stop stop-color="#353C92"/><stop offset="1" stop-color="#4488C8"/></linearGradient></defs></svg>