<!-- by TradingView --><svg width="56" height="56" viewBox="0 0 56 56" xmlns="http://www.w3.org/2000/svg"><path fill="#F0F3FA" d="M0 0h56v56H0z"/><path d="M45.43 32H43.7l3.15-8h2L52 32h-1.73l-2.39-6.36h-.07L45.43 32Zm.05-3.14h4.72V30h-4.72v-1.14ZM36 32v-8h1.62v3.68h.1l3.5-3.68h1.98l-3.46 3.59L43.23 32h-1.95l-2.67-3.43-.99 1.05V32H36ZM28 32v-8h6v1.21h-4.34v2.18h4v1.21h-4v2.19H34V32h-6ZM20 32v-8h3.35c.7 0 1.27.1 1.73.32a2.35 2.35 0 0 1 1.43 2.24c0 .51-.13.96-.37 1.33-.24.38-.6.67-1.07.88-.47.2-1.05.23-1.74.23h-2.39v-1.22h2.17c.8 0 1.75-.27 1.75-1.22 0-1-.87-1.35-1.76-1.35h-1.48V32H20Zm4.62-3.63L26.83 32h-1.8l-2.18-3.63h1.77ZM17 24h1.65v5.15c0 .56-.16 1.06-.46 1.49-.3.43-.72.76-1.26 1-.55.24-1.19.36-1.91.36-.73 0-1.37-.12-1.92-.36a2.97 2.97 0 0 1-1.26-1c-.3-.43-.45-.93-.45-1.5V24H13v5.03a1.6 1.6 0 0 0 .95 1.48c.3.14.66.22 1.07.22.4 0 .76-.08 1.06-.22.3-.15.54-.35.7-.6.16-.26.22-.55.22-.88V24ZM4 32v-8h6v1.21H5.66v2.18h4v1.21h-4v2.19H10V32H4Z"/></svg>