<!-- by TradingView --><svg width="56" height="56" viewBox="0 0 56 56" xmlns="http://www.w3.org/2000/svg"><path fill="#F0F3FA" d="M0 0h56v56H0z"/><path d="M4 23v2h3v9h2v-9h3v-2H4ZM34 23v6.65L27 21l.01 13H29v-6.67L36 36V23h-2ZM38 23l.01 11H40V23h-2ZM48.16 28.25 51.34 23h-2.42c-.68 1.13-1.36 2.27-2.06 3.38L44.62 23h-2.45c1.12 1.74 2.3 3.45 3.39 5.21L42 34h2.43l2.41-3.92L49.51 34H52l-3.84-5.75Z" fill="#1172BA"/><circle cx="19.5" cy="28.5" r="1.5" fill="#2BAAE2"/><path d="M19 20.71c0-.4.22-.71.5-.71s.5.32.5.71V29h-1v-8.29Z" fill="#2BAAE2"/><path d="M18 23.1c-2.3.65-4 2.8-4 5.34A5.53 5.53 0 0 0 19.5 34c3.04 0 5.5-2.49 5.5-5.56 0-2.54-1.7-4.69-4-5.35v2.25a3.5 3.5 0 1 1-3 0v-2.25Z" fill="#2BAAE2"/></svg>