<!-- by TradingView --><svg width="56" height="56" viewBox="0 0 56 56" xmlns="http://www.w3.org/2000/svg"><path fill="#F0F3FA" d="M0 0h56v56H0z"/><path d="M27.73 26.14a6.35 6.35 0 0 0-.47.16 54.65 54.65 0 0 0-.01-1.64c0-.3-.12-.49-.35-.6a.65.65 0 0 0-.58.01c-.21.1-.32.3-.32.58v5.6c0 .19.02.32.05.4.05.13.15.23.3.29.23.1.45.07.65-.08a.55.55 0 0 0 .25-.47 110.94 110.94 0 0 1 0-1.87c-.02-.3.06-.56.21-.78.17-.23.41-.4.72-.48.28-.07.55-.05.81.06.28.11.48.29.6.53.12.22.18.42.18.61v1.95c0 .23.09.4.26.49.31.17.6.12.84-.14a.43.43 0 0 0 .13-.3V29.04c0-.6-.03-1.02-.1-1.24A2.58 2.58 0 0 0 28.57 26c-.27 0-.55.05-.83.14ZM43.33 24h.04c.35 0 .63.27.63.6l-.01 5.81c0 .33-.29.6-.64.6h-.03c-.35 0-.63-.28-.63-.6v-5.82c.01-.32.3-.59.64-.59Zm2.4 3.2a47.8 47.8 0 0 0-.01 1.76c0 .23.06.42.16.58.07.12.16.2.43.23a.8.8 0 0 1 .48.2c.13.11.18.28.15.49a.51.51 0 0 1-.26.41c-.13.08-.3.1-.5.09a1.6 1.6 0 0 1-1.36-.84 2.22 2.22 0 0 1-.27-.74 4.67 4.67 0 0 1-.05-.78v-3.83c0-.18.02-.32.05-.4a.55.55 0 0 1 .37-.34.63.63 0 0 1 .5.06c.2.1.3.27.3.51a89 89 0 0 1-.01 1.38c0 .02.01.02.04.02h.5c.4 0 .64.28.63.62 0 .36-.28.6-.63.6l-.47-.01h-.05Zm3.81-1.2c-.41 0-.82.1-1.22.3-.04.01-.06 0-.06-.04-.01-.38-.02-1.13-.01-1.49 0-.2-.02-.34-.05-.41a.6.6 0 0 0-.47-.35.62.62 0 0 0-.56.2.53.53 0 0 0-.14.26c-.02.07-.03.18-.03.32a2283.26 2283.26 0 0 0 0 5.31c0 .24.02.4.05.5.05.14.15.23.3.3.14.06.28.07.43.04.31-.07.47-.26.47-.58v-1.67c-.01-.31.02-.56.09-.72.1-.27.29-.47.55-.6.26-.15.53-.2.82-.14a1.26 1.26 0 0 1 1 .86c.04.12.06.34.06.66v1.44c0 .2 0 .33.04.4.08.17.18.27.29.32.17.07.35.07.53 0 .2-.06.3-.19.34-.38l.03-.29v-1.77c0-.47-.12-.9-.37-1.3A2.57 2.57 0 0 0 49.54 26Zm-14.23 2.07a1.36 1.36 0 0 0-1.6-.9 1.32 1.32 0 0 0-1.09 1.43c.02.26.1.48.26.68.38.5.88.66 1.47.53.28-.07.46-.12.55-.17a.3.3 0 0 1 .35.02c.18.13.27.29.28.47.02.23-.07.4-.27.52a2.39 2.39 0 0 1-2.14.18 2.45 2.45 0 0 1-1.54-2.94c.1-.38.27-.73.54-1.03a2.48 2.48 0 0 1 2.63-.75 2.45 2.45 0 0 1 1.75 2.37c0 .38-.21.51-.62.52h-1.15a.25.25 0 0 0-.13.07c-.28.26-.6.36-.97.2a.8.8 0 0 1-.36-.33.75.75 0 0 1-.09-.47.77.77 0 0 1 .18-.45c.17-.19.37-.3.6-.31a.74.74 0 0 1 .66.28l.11.1c.04.02.1.03.17.03h.37c.04 0 .05-.02.04-.05Zm5.61 2.59c-.02-.05-.06-.06-.11-.03a2.5 2.5 0 0 1-3.58-1.08 2.49 2.49 0 0 1 .32-2.61 2.5 2.5 0 0 1 2.43-.9 2.47 2.47 0 0 1 1.92 1.73c.07.25.1.66.1 1.2v1.46c0 .17-.07.32-.2.42-.22.18-.45.2-.68.05a.68.68 0 0 1-.2-.24Zm-1.42-.8a1.37 1.37 0 1 0 0-2.74 1.37 1.37 0 0 0 0 2.74Z" fill="#444"/><path fill-rule="evenodd" d="m11.57 26.32-.1-.08a.23.23 0 0 1-.08-.1c-.08-.27 0-.48.25-.63.18-.11.37-.16.6-.15a2.37 2.37 0 0 1 .62.15c.24.09.42.14.53.14.18 0 .33-.06.45-.2.1-.1.15-.22.18-.37a.54.54 0 0 0-.07-.4 1.43 1.43 0 0 0-.84-.56c-.32-.09-.67-.13-1.05-.12-.63.02-1.16.23-1.58.64a2 2 0 0 0-.56.89c-.1.33-.11.68-.04 1.05.08.5.46.88 1.12 1.14.18.08.47.18.88.32l.85.3c.15.06.24.18.26.36a.85.85 0 0 1-.09.47c-.11.23-.33.38-.64.43-.23.04-.42.04-.57 0l-1.04-.32a.79.79 0 0 0-.46.03c-.15.04-.26.16-.33.33a.75.75 0 0 0-.03.47c.05.2.17.37.37.5.15.08.34.16.6.23.4.1.8.15 1.2.16.63 0 1.16-.14 1.6-.44.54-.38.84-.9.9-1.56.02-.2.02-.42-.02-.64-.07-.5-.36-.9-.86-1.22a3.44 3.44 0 0 0-.7-.3l-.25-.09c-.5-.16-.87-.3-1.1-.43Zm-4.54 2.12c0 .02-.02.02-.03.02-.01 0-.02 0-.03-.02L5.51 24.6c-.16-.39-.39-.59-.7-.6a.73.73 0 0 0-.66.3.7.7 0 0 0-.09.72l.8 2 1.31 3.22c.1.26.2.43.28.53.14.15.32.23.55.23.23 0 .4-.08.54-.23.09-.1.18-.27.28-.53a1119.47 1119.47 0 0 1 2.12-5.22.7.7 0 0 0-.09-.72.73.73 0 0 0-.65-.3c-.32.01-.55.21-.7.6l-1.47 3.84Zm9.14.52c0-.02 0-.03.03-.03h2.66c.28 0 .46-.02.54-.06.2-.08.28-.25.27-.53-.02-.42-.13-.8-.32-1.1-.3-.5-.7-.84-1.19-1.05a2.37 2.37 0 0 0-1.6-.1c-.56.16-1 .49-1.34 1-.31.47-.46 1-.43 1.55.03.47.14.87.35 1.21.22.37.53.65.92.86.37.18.76.28 1.2.29.7.01 1.36-.18 1.94-.56a.76.76 0 0 0 .33-.43c.06-.2.01-.35-.14-.48a.98.98 0 0 0-.26-.16c-.09-.04-.2-.03-.33.03l-.5.24c-.24.11-.4.18-.53.2-.26.05-.53.04-.8-.04-.43-.12-.7-.4-.8-.84Zm0-.88a756.14 756.14 0 0 0 2.14-.03c-.05-.39-.25-.68-.61-.87a1 1 0 0 0-.48-.1 1 1 0 0 0-.47.1c-.36.2-.56.49-.6.88 0 .01 0 .02.02.02Zm5.09.87c.01.23.12.43.3.6.18.15.39.24.63.29.22.03.42.04.61 0a3 3 0 0 0 .84-.34c.2-.1.33-.14.41-.14.17-.01.31.06.44.2.2.23.19.48-.04.72-.17.19-.41.34-.72.45-.9.34-1.71.36-2.45.05a2.22 2.22 0 0 1-1.36-1.68 2.65 2.65 0 0 1 .95-2.63c.21-.16.43-.28.65-.35a2.48 2.48 0 0 1 2 .22 2.48 2.48 0 0 1 1.17 1.59c.06.25.06.48 0 .7-.02.1-.1.18-.23.23a.85.85 0 0 1-.35.06h-2.83c-.02 0-.03.01-.02.03Zm-.02-.88c0-.28.1-.5.3-.7.21-.19.46-.28.75-.28h.02c.3 0 .54.1.75.28.2.2.3.43.3.7h-2.12Z" fill="#1E9AD6"/></svg>