<!-- by TradingView --><svg width="56" height="56" viewBox="0 0 56 56" xmlns="http://www.w3.org/2000/svg"><path fill="#F0F3FA" d="M0 0h56v56H0z"/><path d="m37.65 25.5-.12.04a.12.12 0 0 0-.06.04.12.12 0 0 0-.03.08v.13a.2.2 0 0 1-.03.11.75.75 0 0 0-.14.4 1.91 1.91 0 0 1-1.12 1.67c.29-.35.47-.67.54-.95.06-.25.02-.55-.14-.9.26.08.34-.02.23-.31a.55.55 0 0 0-.32-.31l-.6-.24a.1.1 0 0 0-.04 0l-1.09-.04c.9-.28 2.19-.4 2.92.29Z" fill="#933049"/><path d="M37.65 25.5c.33.27.43.6.29.97-.3.82-1.3 1.54-2.08 1.94a67.9 67.9 0 0 0-1.7.91c-.51.48-.59 1.95-.57 2.54 0 .03.01.05.03.07a.1.1 0 0 0 .05.03l.05.01a.07.07 0 0 1 .05.05v.03l-.01.03c-.27.38-.62.7-1.05.92l.3-.63c.1-.2.15-.44.17-.69.05-.65.16-1.3.33-1.94.16-.61.3-1.18.4-1.69l.3-1.66a.3.3 0 0 1 .09-.16c.15-.15.25-.31.32-.5.08-.05.15-.06.2-.03a.07.07 0 0 1 .04.08l-.75 3.2a.03.03 0 0 0 .01.04.03.03 0 0 0 .04 0l1.65-.82a.28.28 0 0 0 .06-.04c.1-.08.2-.15.28-.19.68-.33 1.06-.89 1.12-1.67.01-.16.06-.3.14-.4a.2.2 0 0 0 .03-.11v-.13a.12.12 0 0 1 .1-.12l.11-.03Z" fill="#201E1A"/><path d="M34.62 25.73c-.07.19-.17.35-.32.5a.3.3 0 0 0-.09.16l-.3 1.66c-.1.51-.24 1.08-.4 1.69-.17.65-.28 1.3-.33 1.94-.02.25-.07.48-.16.69l-.3.63a2.5 2.5 0 0 1-.06-.83 84.54 84.54 0 0 1 1.21-6.21.12.12 0 0 1 .06-.04l.7-.19ZM32.32 25.99c-.15.15-.34.27-.55.36l-1.5 1.07c-.01-.05 0-.12.05-.2a4.8 4.8 0 0 1 2-1.23Z" fill="#AE3357"/><path d="M35.82 25.26a.1.1 0 0 1 .04 0l.6.24a.54.54 0 0 1 .32.3c.1.3.03.4-.23.31-.44-.56-1.1-.76-1.99-.6-.33.06-.78.2-1.35.44l-.61.25c-.72.31-1.88.95-2.14 1.6-.13.34-.08.58.15.73a.1.1 0 0 1 .02.15.1.1 0 0 1-.03.03l-.04.02a.17.17 0 0 1-.2-.03c-.3-.3-.59-.9-.09-1.28.65-.46 1-.96 2.05-1.43l2.41-.77 1.09.04ZM39.02 26.8l1.37-.76c.1-.04.17-.05.23-.03l.02.01.02.03a.06.06 0 0 1-.03.06 25.33 25.33 0 0 0-1.28.88.35.35 0 0 1-.13 0 .32.32 0 0 1-.13-.03.3.3 0 0 1-.09-.08l.02-.08Z" fill="#201E1A"/><path d="m40.39 26.04-1.37.76c.03-.22.09-.43.18-.62a.2.2 0 0 1 .17-.1l1.02-.04ZM13.24 22c-.2.4-.55.64-1.04.67l-3.15.14c-.98.04-1.22.88-1.22 1.73v6.1c0 .45-.17.97-.5 1.53a1.35 1.35 0 0 1-.33-.9v-7.86c0-.86.84-1.4 1.6-1.41h4.64Z" fill="#AE3357"/><path d="M13.94 22.32c-.39.5-.92.76-1.6.77-1.31 0-2.74-.1-4.06.16a.09.09 0 0 0-.05.03 393.71 393.71 0 0 0-.03 6c0 1.17 0 2.16-.87 2.89.33-.56.5-1.08.5-1.54v-6.09c0-.85.24-1.7 1.22-1.73l3.15-.14c.49-.03.83-.26 1.04-.67.25.06.49.18.7.32Z" fill="#933049"/><path d="M13.94 22.32c.17.1.32.22.44.37l-.29.73c-.22.3-.37.66-.45 1.1a.35.35 0 0 1-.11.19.34.34 0 0 1-.2.08c-.72.06-1.5.11-2.3.15-.77.03-1.22.41-1.27 1.22a3 3 0 0 0 .19 1.54l-.01.07-.14.38a.72.72 0 0 0-.04.23c0 .82-.03 1.66-.06 2.52-.03.55-.3.77-.82.94-.47.15-.94.31-1.4.5a.64.64 0 0 1-.15-.17c.87-.73.87-1.72.87-2.89a393.73 393.73 0 0 1 .03-6 .09.09 0 0 1 .05-.03c1.32-.26 2.75-.15 4.07-.16.67 0 1.2-.26 1.59-.77Z" fill="#6C2B39"/><path d="M14.38 22.69c.23.2.39.45.47.74-.22-.15-.48-.15-.76 0l.29-.74Z" fill="#353325"/><path d="M14.86 23.43c.24.78.17 1.46-.22 2.05-.34.54-1.06.53-1.73.52h-1.83a.09.09 0 0 0-.06.03.09.09 0 0 0-.02.06V27c-.05 1.05-.02.56 2.38.2.32.38.34 1.03-.1 1.3-.13.08-.35.12-.67.1l-1.55.01c-.03 0-.06.08-.06.1v1.88c0 .46-.05.82-.15 1.08-.35.87-1.02 1.44-1.98 1.31a2.19 2.19 0 0 1-1.4-.64c.47-.19.94-.35 1.41-.5.52-.17.8-.39.82-.94.03-.86.06-1.7.06-2.52 0-.08.02-.15.04-.23l.14-.38a.18.18 0 0 0-.01-.14 3 3 0 0 1-.17-1.47c.05-.81.5-1.2 1.26-1.22.82-.04 1.59-.09 2.3-.15.08 0 .15-.03.2-.08.06-.06.1-.12.12-.2.08-.43.23-.79.45-1.09.28-.14.54-.14.77.01Z" fill="#201E1A"/><path d="M13.38 27.2c-.4.06-.35.6-.85.59l-1.66-.04a.2.2 0 0 1-.17-.11.2.2 0 0 1 .02-.2L11 27h1.95c.17 0 .32.06.43.19ZM27.96 24c-.14.5-.55.84-1.18.85-1.62 0-2.64.02-3.05.04-1.17.04-2 .6-2.47 1.68-.68-1.12.07-2.22 1.2-2.55l.15-.02h5.35Z" fill="#AE3357"/><path d="M27.96 24c.12.03.2.17.29.24a3.18 3.18 0 0 1-.7.98 46.72 46.72 0 0 0-3-.07c-.73 0-1.56.02-2.06.4a8.2 8.2 0 0 0-1.16 1.12.35.35 0 0 1-.07-.1 2.63 2.63 0 0 1 2.47-1.68c.41-.02 1.43-.03 3.05-.04.63 0 1.04-.35 1.18-.85Z" fill="#933049"/><path d="M28.25 24.24c.1.04.17.1.23.17l-.84 1.53a.19.19 0 0 1-.18.1c-.96-.04-1.94.16-1.96 1.34-.02 1.1.06 2.72-.06 4.17a.14.14 0 0 1-.07.1l-1.14.66a.2.2 0 0 1-.13.03l-.55-.1-.21-.2-.04-.04a.04.04 0 0 1 .02-.06h.02c.11.02.26.01.45-.02.47-.35.7-.84.68-1.48-.03-.74-.1-1.66-.22-2.76-.05-.43-.29-.7-.72-.82l.08-.35a.35.35 0 0 0-.38-.43c-.72.07-1.16.4-1.8.7a.3.3 0 0 1-.1-.1c.45-.51.83-.88 1.16-1.13.5-.38 1.33-.4 2.07-.4a46.73 46.73 0 0 1 3 .07l.06-.04c.26-.27.47-.59.63-.94Z" fill="#6C2B39"/><path d="M28.48 24.4c.58.5.57 1.14.46 1.89-.05.37-.4.67-.82.71h-1.04c-.04 0-.08.03-.08.07v4.67c0 .05-.02.1-.04.14-.56 1.4-2.5 1.45-3.4.37l.54.09c.04 0 .09 0 .13-.03l1.14-.65a.14.14 0 0 0 .07-.11c.12-1.45.04-3.08.06-4.17.02-1.18 1-1.38 1.96-1.34a.19.19 0 0 0 .18-.1l.84-1.53ZM23.11 27.34c-.66-.02-1.23.05-1.69-.55.65-.31 1.1-.64 1.81-.7.3-.04.84.13.77.41-.09.37-.6.59-.89.84Z" fill="#201E1A"/><path d="M23.79 31.92c.28-1 .39-2.07.33-3.24-.03-.6.1-1.47-.73-1.58.03-.1.08-.18.14-.24.43.12.67.4.72.82.12 1.1.2 2.02.22 2.76.02.64-.2 1.13-.68 1.48Z" fill="#933049"/><path d="M24 32c-.64.12-.95.12-1-.78v-3.88l.4-.24c.81.1.69.98.72 1.58.06 1.17.16 2.33-.12 3.32ZM39.66 28.1c-.5.14-.82.35-.96.64-.12.24-.4 1.03-.83 2.35a3.8 3.8 0 0 0-.16 1.08c0 .17-.15.33-.43.48a.6.6 0 0 1-.28-.52c0-.42.08-.91.25-1.49.25-.86.55-1.71.9-2.55a.14.14 0 0 1 .06-.07.2.2 0 0 1 .1-.02h1.26c.03 0 .06.01.08.03.03.02.03.07 0 .08Z" fill="#AE3357"/><path d="M39.66 28.1c-.4 1.06-.79 2.09-1.18 3.08-.14.36-.18.72-.12 1.09a.3.3 0 0 0 .14.2c.08.04.18.06.28.06l1.2-.08h.01v.01c-.94.36-1.74.9-2.71.19.28-.15.43-.31.43-.48.02-.36.04-.7.16-1.08.44-1.32.71-2.1.83-2.35.14-.3.46-.5.96-.63Z" fill="#201E1A"/><path d="M18.66 24.1c-.4.38-.8.73-1.22 1.05-.72.54-.95 1.26-1.25 2.17-.23.71-.53 1.76-.9 3.14-.2.78-.58 1.38-1.12 1.78-.16-.22-.2-.44-.14-.65l1.82-6.3a.6.6 0 0 1 .09-.18c.7-.96 1.6-1.3 2.72-1.01Z" fill="#AE3357"/><path d="m18.66 24.1.36.18c-.28.55-.61.73-1.15 1-.7.34-1.02.89-1.24 1.7-.16.6-.5 1.74-1 3.43-.26.87-.6 1.57-1.46 1.87a.5.5 0 0 0 0-.04c.54-.4.92-1 1.12-1.78.37-1.38.67-2.43.9-3.14.3-.9.53-1.63 1.25-2.17.42-.32.82-.67 1.22-1.05Z" fill="#933049"/><path d="M19.92 25.01c-.72.64-.72 1.25-.41 2.18.35 1.04.69 2.08 1.02 3.14a3.63 3.63 0 0 1 .07 1.41l.03.01h.04l.02-.04c.14-.64.1-1.3-.15-1.97-.2-.52-.45-1.34-.77-2.46-.14-.5-.2-.94-.2-1.33.06.43.13.8.22 1.1.3.92.61 1.97.97 3.15a3.41 3.41 0 0 1 0 1.48.2.2 0 0 1-.06.07l-.79.58a.15.15 0 0 1-.14.02l-.53-.2a2.3 2.3 0 0 1-.32-.71.36.36 0 0 0 .13-.1l.32.68.02.02h.06l.02-.03.14-.66a.13.13 0 0 0-.05-.14c-.11-.07-.25-.08-.4-.04l.18-.46c.5-.52.26-1 0-1.66-.23-.55-.5-.95-1.07-1.15l.13-.62c0-.04 0-.08-.02-.11a.16.16 0 0 0-.08-.07c-.79-.28-1.32.07-1.63.86a7.28 7.28 0 0 0-.54 2.47l-.51 1.23a.15.15 0 0 1-.05.06l-1 .7a.06.06 0 0 1-.05 0 .2.2 0 0 0-.07 0c-.02.02-.04.04-.04.08l-.01.09-.23-.31c.86-.3 1.2-1 1.46-1.87.5-1.7.84-2.84 1-3.44.22-.8.55-1.35 1.24-1.7.54-.26.87-.44 1.15-1 .33.18.63.43.9.74Z" fill="#6C2B39"/><path d="m19.92 25.01.31.38-.66.56c0 .39.06.83.2 1.33.32 1.12.58 1.94.77 2.46a3.47 3.47 0 0 1 .13 2 .05.05 0 0 1-.04.01h-.03l-.01-.01v-.01c.06-.6.04-1.07-.06-1.4-.33-1.06-.67-2.1-1.02-3.14-.31-.93-.3-1.54.4-2.18Z" fill="#353325"/><path d="m19.24 32.16.54.19a.15.15 0 0 0 .13-.02l.8-.58a.2.2 0 0 0 .05-.07 3.41 3.41 0 0 0 0-1.48l-.97-3.16c-.09-.3-.16-.66-.22-1.1l.66-.55 1.68 5.28c.16.5.13 1.45-.24 1.93-.18.22-.45.35-.83.39l-.24.01c-.55-.01-1-.32-1.36-.84Z" fill="#201E1A"/><path d="m18.27 27.9-.33.4-.59 1.93a.99.99 0 0 0-.21.38.1.1 0 0 0 0 .06l.05.05c.48.23 1.5.06 1.86-.02.1.02.2.02.3 0l-.2.47a.53.53 0 0 1-.1.18.36.36 0 0 1-.13.09.54.54 0 0 0-.07-.05.12.12 0 0 0-.06-.01h-1.64c-.02 0-.04 0-.06.02a.13.13 0 0 0-.05.06c-.11.33-.18.86-.42 1.1-.57.6-1.64.55-2.22.03v-.09c.01-.04.03-.06.05-.07a.2.2 0 0 1 .07 0c.02 0 .03 0 .04-.02l1-.7a.15.15 0 0 0 .06-.05l.51-1.23v-.01c.03-.78.2-1.6.54-2.46.3-.79.84-1.14 1.63-.86.03 0 .06.03.08.07.02.03.03.07.02.1l-.13.63Z" fill="#201E1A"/><path d="M19.34 30.7a.82.82 0 0 1-.29 0c.19-.05.31-.12.37-.19a.22.22 0 0 0-.02-.3.2.2 0 0 0-.09-.04c-.29-.08-.5-.08-.65-.01l-.72-1.86.33-.4c.58.2.84.6 1.06 1.15.27.66.51 1.14.01 1.66Z" fill="#933049"/><path d="M19.05 30.7c-.35.08-1.38.25-1.86.02a.09.09 0 0 1-.05-.05.1.1 0 0 1 0-.06.99.99 0 0 1 .21-.38l1.3-.07c.15-.07.37-.07.66 0a.2.2 0 0 1 .1.06c.02.02.04.05.05.09a.22.22 0 0 1-.04.2c-.06.07-.18.14-.37.19ZM19.15 31.17c.16-.04.3-.03.41.04l.05.06v.08l-.14.66-.02.02a.05.05 0 0 1-.06.01l-.02-.02-.32-.67c.04-.04.07-.1.1-.18Z" fill="#AE3357"/><path d="M47.94 28.13c-.5.04-.78.17-.83.4a.4.4 0 0 0-.4.15c-.13.18-.24.42-.32.71-.1-.14-.2-.15-.3-.01-.48.67-.6 1.42-.37 2.24.06.22.22.35.24.55 0 .05 0 .1-.03.16a.28.28 0 0 1-.1.11.22.22 0 0 1-.27 0c-.1-.08-.14-.06-.13.07a3.03 3.03 0 0 1-.4-2.01c.17-1 1.49-2.05 2.29-2.43.21-.1.42-.09.62.06Z" fill="#933049"/><path d="M47.94 28.13c.27.12.55.34.84.65.62.65-.22 1.1-.69 1.26-.03.02-.07.01-.1-.02s-.03-.07 0-.1c.21-.2.35-.44.43-.74a.33.33 0 0 0 0-.14.3.3 0 0 0-.06-.12.24.24 0 0 0-.1-.08.21.21 0 0 0-.12 0c-.05 0-.1.05-.13.12a.16.16 0 0 1-.08.09.22.22 0 0 1-.13 0 1.6 1.6 0 0 0-.7-.52c.06-.23.34-.36.84-.4Z" fill="#201E1A"/><path d="m48.1 30.04-1.45.66c-.08-.14-.2-.18-.39-.12a.07.07 0 0 1-.05 0l-.03-.03v-.03c-.02-.07 0-.11.04-.13l.02.05.03.03h.04c.57-.19 1.08-.3 1.48-.61a.22.22 0 0 0 .08-.14c.03-.22 0-.44-.07-.67h.13a.16.16 0 0 0 .08-.09c.04-.07.08-.12.13-.13l.12.01.1.08a.3.3 0 0 1 .06.12v.14c-.08.3-.22.55-.43.74-.03.03-.03.07 0 .1s.07.04.1.02Z" fill="#933049"/><path d="m46.39 29.4-.17.99c-.05.02-.06.06-.05.13l.01.03.03.02a.07.07 0 0 0 .05 0c.18-.05.3 0 .39.13l-.4.19a.1.1 0 0 0-.05.05.1.1 0 0 0 0 .06c.08.37.22.7.4 1 0 .05 0 .1-.03.12-.02.02-.05.03-.1.02-.09-.02-.15-.01-.2.04a.13.13 0 0 0-.02.16c0 .02.01.03.03.04.36.23.71.27 1.06.12l.6-.13.06.01a2.6 2.6 0 0 1-.65.4c-.82.37-1.46.28-1.92-.27-.01-.13.04-.15.14-.07a.22.22 0 0 0 .27 0 .28.28 0 0 0 .1-.11l.02-.16c-.02-.2-.18-.33-.24-.55a2.51 2.51 0 0 1 .37-2.24c.1-.14.2-.13.3.01Z" fill="#201E1A"/><path d="M47.34 32.5c-.35.15-.7.11-1.06-.12a.12.12 0 0 1-.04-.04.13.13 0 0 1-.01-.11c0-.02.02-.04.03-.05.06-.05.12-.06.2-.04.06.01.09 0 .11-.02.02-.03.04-.07.04-.12.19.28.43.45.73.5Z" fill="#6C2B39"/><path d="M29.99 27.17c-.03.13-.08.22-.17.25-.12.04-.2.1-.21.17l-.15.04.03-.33c0-.07.02-.14.04-.2.6-1.57 1.25-3.45 1.61-5.16.13-.77.16-1.45.46-2.32.17-.49.27-.8.29-.92.03-.16.12-.5.28-.99.1-.27.17-.55.23-.84.05-.28.12-.56.2-.85-.04-.54.53-1.39.8-1.87.04-.08.09-.13.14-.15a.12.12 0 0 1 .14.07c.1.25.15.5.15.73 0 .5-.1 1.16-.27 1.98-.3 1.44-.7 2.87-1.2 4.3-.7 2.06-1.5 4.1-2.37 6.09ZM30.13 19.37a.2.2 0 0 1 .18.1c.02.03.03.06.03.1-.01.14-.04.3-.1.44-.05.16-.16.23-.34.2-.5.26-.95.68-1.35 1.28-.68 1.02-1.26 2-1.74 2.95-.05 0-.1.01-.13.03l-.02.01a.05.05 0 0 1-.05-.02.14.14 0 0 1-.01-.05.83.83 0 0 0 .12-.19 34 34 0 0 1 2.03-3.53c.31-.47.8-1.16 1.38-1.32Z" fill="#353325"/><path d="M24.83 37.2c-.04-.02-.06-.04-.07-.07a60.12 60.12 0 0 0 4.36-8.95c.07-.2.19-.39.34-.55l.15-.04c-.61 2.41-2.86 6.6-4.78 9.61Z" fill="#201E1A"/><path d="M23.59 31.82c0 .03.02.06.04.07a78.55 78.55 0 0 0-1.05 3.5c-.24.87-.42 1.74-.53 2.63-.08.57-.03 1.12.14 1.64a.14.14 0 0 0 .11.1c.73.1 2.12-2.1 2.46-2.63 0 .03.03.05.07.07-.48.8-1.04 1.53-1.67 2.2-.24.26-.52.45-.84.58a.27.27 0 0 1-.3-.08 5.25 5.25 0 0 1-.09-2.16c.35-2.03.9-4 1.66-5.92Z" fill="#6F715C"/><path d="M32.72 15.72c-.53 2.15-1.2 4.05-1.58 6.22l-.37-1.4a.14.14 0 0 0-.09-.1l-.97-.4c.64-1.46 1.45-3.44 3.01-4.32Z" fill="#C0CD53"/><path d="M42.76 27.14c-.51 2.44-1.38 4.78-1.9 7.26a.16.16 0 0 1-.08.1l-.77.5-.01-.15a.12.12 0 0 1 .06-.11c.15-.09.24-.2.28-.35a461.05 461.05 0 0 1 1.7-6.26.06.06 0 0 0-.04-.04h-.03a.8.8 0 0 0-.27.17.05.05 0 0 1-.03.01l-.04-.01-.03-.04a.04.04 0 0 1-.01-.05l.01-.01 1.16-1.02ZM44.5 27.94c.06.15.01.34-.15.57a.19.19 0 0 1-.23.07.19.19 0 0 1-.07-.06c-.03-.03-.08-.05-.17-.05.17-.27.38-.45.62-.53Z" fill="#AE3357"/><path d="m42.93 27 .03.02.02.03v.04l-.67 2.84v.04a.06.06 0 0 0 .1.01l1.47-1.5c.08-.01.14 0 .17.04a.2.2 0 0 0 .16.07c.03 0 .05 0 .08-.02a.19.19 0 0 0 .06-.06c.16-.23.2-.42.15-.57.2-.07.33.03.38.3l.1 1a2.1 2.1 0 0 1-.71 1.9 8.8 8.8 0 0 1-2.37 1.49.49.49 0 0 0-.28.33l-.35 1.49a.18.18 0 0 0 .11.2c.09.04.16.1.22.16a.1.1 0 0 1-.02.15.1.1 0 0 1-.05.02L40 35l.77-.5a.16.16 0 0 0 .07-.1c.16-.73.36-1.54.6-2.41.43-1.55.98-3.3 1.3-4.85.04-.08.09-.13.15-.14h.03Zm.92 2.33c-.73.22-1.24.95-1.38 1.1-.15.14-.65 1.59-.58 1.66.07.07.44-.07 1.23-.65.64-.47.75-1.6.73-2.1Z" fill="#201E1A"/></svg>