<!-- by TradingView --><svg width="56" height="56" viewBox="0 0 56 56" xmlns="http://www.w3.org/2000/svg"><path fill="#181B1E" d="M0 0h56v56H0z"/><path d="M17 25a3 3 0 1 1 0 6 3 3 0 0 1 0-6Zm0 1.59a1.41 1.41 0 1 0 0 2.82 1.41 1.41 0 0 0 0-2.82ZM37 31h-1.5v-.4a3 3 0 1 1 0-5.19V25H37v6Zm-3-4.47a1.47 1.47 0 1 0 0 2.94 1.47 1.47 0 0 0 0-2.94ZM51 31h-1.5v-.4a3 3 0 1 1 0-5.19V25H51v6Zm-3-4.47a1.47 1.47 0 1 0 0 2.94 1.47 1.47 0 0 0 0-2.94ZM25.5 25.4A3 3 0 1 1 24 28v-4.7l1.5-.3v2.4Zm1.5 1.14a1.46 1.46 0 1 0 0 2.92 1.46 1.46 0 0 0 0-2.92ZM39.5 25.4A3 3 0 1 1 38 28v-4.7l1.5-.3v2.4Zm1.5 1.14a1.46 1.46 0 1 0 0 2.92 1.46 1.46 0 0 0 0-2.92ZM6.8 25H7v1.67a1.18 1.18 0 0 0-.2-.02 1.34 1.34 0 0 0-1.3 1.4V31H4v-3.04C4.02 26.32 5.27 25 6.8 25ZM20.2 33H20v-1.7c.07.02.13.02.2.02a1.35 1.35 0 0 0 1.3-1.4v-4.37L23 25v5c-.02 1.66-1.27 3-2.8 3Z" fill="#fff"/><path d="M10.5 25.92 12.28 23H14l-2.62 4.58V31H9.62v-3.42L7 23h1.72l1.78 2.92Z" fill="#A68A22"/></svg>